<?xml version="1.0" encoding="UTF-8" standalone="no"?>
<!DOCTYPE svg PUBLIC "-//W3C//DTD SVG 1.1//EN"
 "http://www.w3.org/Graphics/SVG/1.1/DTD/svg11.dtd">
<!-- Generated by graphviz version 2.43.0 (0)
 -->
<!-- Title: rm::para::PlanarTrackerParam Pages: 1 -->
<svg width="300pt" height="164pt"
 viewBox="0.00 0.00 299.50 164.00" xmlns="http://www.w3.org/2000/svg" xmlns:xlink="http://www.w3.org/1999/xlink">
<g id="graph0" class="graph" transform="scale(1 1) rotate(0) translate(4 160)">
<title>rm::para::PlanarTrackerParam</title>
<!-- Node1 -->
<g id="Node000001" class="node">
<title>Node1</title>
<g id="a_Node000001"><a xlink:title="PlanarTrackerParam 参数模块">
<polygon fill="#999999" stroke="transparent" points="216,-49 62,-49 62,0 216,0 216,-49"/>
<text text-anchor="start" x="67" y="-36.5" font-family="Helvetica,sans-Serif" font-size="10.00">rm::para::PlanarTrackerParam</text>
<text text-anchor="start" x="137" y="-21.5" font-family="Helvetica,sans-Serif" font-size="10.00"> </text>
<text text-anchor="start" x="92" y="-6.5" font-family="Helvetica,sans-Serif" font-size="10.00">+</text>
<text text-anchor="start" x="131" y="-6.5" font-family="Helvetica,sans-Serif" font-size="10.00">load()</text>
<polygon fill="#666666" stroke="#666666" points="62,-31.5 62,-31.5 216,-31.5 216,-31.5 62,-31.5"/>
<polygon fill="#666666" stroke="#666666" points="62,-16.5 62,-16.5 216,-16.5 216,-16.5 62,-16.5"/>
<polygon fill="none" stroke="#666666" points="62,0 62,-49 216,-49 216,0 62,0"/>
</a>
</g>
</g>
<!-- Node2 -->
<g id="Node000002" class="node">
<title>Node2</title>
<g id="a_Node000002"><a xlink:title=" ">
<polygon fill="white" stroke="transparent" points="50,-156 0,-156 0,-107 50,-107 50,-156"/>
<text text-anchor="start" x="5" y="-143.5" font-family="Helvetica,sans-Serif" font-size="10.00">uint32_t</text>
<text text-anchor="start" x="23" y="-128.5" font-family="Helvetica,sans-Serif" font-size="10.00"> </text>
<text text-anchor="start" x="23" y="-113.5" font-family="Helvetica,sans-Serif" font-size="10.00"> </text>
<polygon fill="#666666" stroke="#666666" points="0,-138.5 0,-138.5 50,-138.5 50,-138.5 0,-138.5"/>
<polygon fill="#666666" stroke="#666666" points="0,-123.5 0,-123.5 50,-123.5 50,-123.5 0,-123.5"/>
<polygon fill="none" stroke="#666666" points="0,-107 0,-156 50,-156 50,-107 0,-107"/>
</a>
</g>
</g>
<!-- Node2&#45;&gt;Node1 -->
<g id="edge1_Node000001_Node000002" class="edge">
<title>Node2&#45;&gt;Node1</title>
<g id="a_edge1_Node000001_Node000002"><a xlink:title=" ">
<path fill="none" stroke="#63b8ff" d="M27.23,-106.71C29.56,-93.65 34.31,-77.94 44,-67 47.59,-62.95 51.64,-59.28 56.01,-55.95"/>
<polygon fill="none" stroke="#63b8ff" points="56.04,-55.93 58.78,-49.25 65.99,-49.21 63.25,-55.88 56.04,-55.93"/>
</a>
</g>
<text text-anchor="middle" x="89.5" y="-75.5" font-family="Helvetica,sans-Serif" font-size="10.00" fill="grey"> +TRACK_FRAMES</text>
</g>
<!-- Node3 -->
<g id="Node000003" class="node">
<title>Node3</title>
<g id="a_Node000003"><a xlink:title=" ">
<polygon fill="white" stroke="transparent" points="161,-156 117,-156 117,-107 161,-107 161,-156"/>
<text text-anchor="start" x="122" y="-143.5" font-family="Helvetica,sans-Serif" font-size="10.00">double</text>
<text text-anchor="start" x="137" y="-128.5" font-family="Helvetica,sans-Serif" font-size="10.00"> </text>
<text text-anchor="start" x="137" y="-113.5" font-family="Helvetica,sans-Serif" font-size="10.00"> </text>
<polygon fill="#666666" stroke="#666666" points="117,-138.5 117,-138.5 161,-138.5 161,-138.5 117,-138.5"/>
<polygon fill="#666666" stroke="#666666" points="117,-123.5 117,-123.5 161,-123.5 161,-123.5 117,-123.5"/>
<polygon fill="none" stroke="#666666" points="117,-107 117,-156 161,-156 161,-107 117,-107"/>
</a>
</g>
</g>
<!-- Node3&#45;&gt;Node1 -->
<g id="edge2_Node000001_Node000003" class="edge">
<title>Node3&#45;&gt;Node1</title>
<g id="a_edge2_Node000001_Node000003"><a xlink:title=" ">
<path fill="none" stroke="#63b8ff" d="M139,-106.94C139,-93.52 139,-76.44 139,-61.39"/>
<polygon fill="none" stroke="#63b8ff" points="139,-61.35 135,-55.35 139,-49.35 143,-55.35 139,-61.35"/>
</a>
</g>
<text text-anchor="middle" x="191" y="-75.5" font-family="Helvetica,sans-Serif" font-size="10.00" fill="grey"> +SAMPLE_INTERVAL</text>
</g>
<!-- Node4 -->
<g id="Node000004" class="node">
<title>Node4</title>
<g id="a_Node000004"><a xlink:title=" ">
<polygon fill="white" stroke="transparent" points="291.5,-156 240.5,-156 240.5,-107 291.5,-107 291.5,-156"/>
<text text-anchor="start" x="246" y="-143.5" font-family="Helvetica,sans-Serif" font-size="10.00">Matx44f</text>
<text text-anchor="start" x="264.5" y="-128.5" font-family="Helvetica,sans-Serif" font-size="10.00"> </text>
<text text-anchor="start" x="264.5" y="-113.5" font-family="Helvetica,sans-Serif" font-size="10.00"> </text>
<polygon fill="#666666" stroke="#666666" points="241,-138.5 241,-138.5 292,-138.5 292,-138.5 241,-138.5"/>
<polygon fill="#666666" stroke="#666666" points="241,-123.5 241,-123.5 292,-123.5 292,-123.5 241,-123.5"/>
<polygon fill="none" stroke="#666666" points="240.5,-107 240.5,-156 291.5,-156 291.5,-107 240.5,-107"/>
</a>
</g>
</g>
<!-- Node4&#45;&gt;Node1 -->
<g id="edge3_Node000001_Node000004" class="edge">
<title>Node4&#45;&gt;Node1</title>
<g id="a_edge3_Node000001_Node000004"><a xlink:title=" ">
<path fill="none" stroke="#63b8ff" d="M262.75,-106.84C259.83,-93.66 254.33,-77.78 244,-67 238.96,-61.74 233.17,-57.13 226.96,-53.1"/>
<polygon fill="none" stroke="#63b8ff" points="226.54,-52.86 219.34,-53.31 216.16,-46.84 223.36,-46.39 226.54,-52.86"/>
</a>
</g>
<text text-anchor="middle" x="266.5" y="-81" font-family="Helvetica,sans-Serif" font-size="10.00" fill="grey"> +Q</text>
<text text-anchor="middle" x="266.5" y="-70" font-family="Helvetica,sans-Serif" font-size="10.00" fill="grey">+R</text>
</g>
</g>
</svg>
