<?xml version="1.0" encoding="UTF-8" standalone="no"?>
<!DOCTYPE svg PUBLIC "-//W3C//DTD SVG 1.1//EN"
 "http://www.w3.org/Graphics/SVG/1.1/DTD/svg11.dtd">
<!-- Generated by graphviz version 14.1.2 (0)
 -->
<!-- Title: rm::SSLContext::~SSLContext Pages: 1 -->
<svg width="518pt" height="29pt"
 viewBox="0.00 0.00 518.00 29.00" xmlns="http://www.w3.org/2000/svg" xmlns:xlink="http://www.w3.org/1999/xlink">
<g id="graph0" class="graph" transform="scale(1 1) rotate(0) translate(4 24.75)">
<title>rm::SSLContext::~SSLContext</title>
<!-- Node1 -->
<g id="Node000001" class="node">
<title>Node1</title>
<g id="a_Node000001"><a xlink:title=" ">
<polygon fill="#999999" stroke="#666666" points="160.75,-20.75 0,-20.75 0,0 160.75,0 160.75,-20.75"/>
<text xml:space="preserve" text-anchor="middle" x="80.38" y="-7.25" font-family="Helvetica,sans-Serif" font-size="10.00">rm::SSLContext::~SSLContext</text>
</a>
</g>
</g>
<!-- Node2 -->
<g id="Node000002" class="node">
<title>Node2</title>
<g id="a_Node000002"><a xlink:href="../../de/db8/classrm_1_1SSLContext.html#a7ff99d3c72504c55bd13ac333f022494" target="_top" xlink:title="创建 TLS 上下文">
<polygon fill="white" stroke="#666666" points="349.25,-20.75 196.75,-20.75 196.75,0 349.25,0 349.25,-20.75"/>
<text xml:space="preserve" text-anchor="middle" x="273" y="-7.25" font-family="Helvetica,sans-Serif" font-size="10.00">rm::SSLContext::SSLContext</text>
</a>
</g>
</g>
<!-- Node1&#45;&gt;Node2 -->
<g id="edge1_Node000001_Node000002" class="edge">
<title>Node1&#45;&gt;Node2</title>
<g id="a_edge1_Node000001_Node000002"><a xlink:title=" ">
<path fill="none" stroke="#63b8ff" d="M161.11,-10.38C169.09,-10.38 177.21,-10.38 185.25,-10.38"/>
<polygon fill="#63b8ff" stroke="#63b8ff" points="185.03,-13.88 195.03,-10.38 185.03,-6.88 185.03,-13.88"/>
</a>
</g>
</g>
<!-- Node3 -->
<g id="Node000003" class="node">
<title>Node3</title>
<g id="a_Node000003"><a xlink:href="../../de/db8/classrm_1_1SSLContext.html#a03431ce7743c02f082f97a13a2850e7e" target="_top" xlink:title="获取 TLS 工作模式">
<polygon fill="white" stroke="#666666" points="510,-20.75 385.25,-20.75 385.25,0 510,0 510,-20.75"/>
<text xml:space="preserve" text-anchor="middle" x="447.62" y="-7.25" font-family="Helvetica,sans-Serif" font-size="10.00">rm::SSLContext::mode</text>
</a>
</g>
</g>
<!-- Node2&#45;&gt;Node3 -->
<g id="edge2_Node000002_Node000003" class="edge">
<title>Node2&#45;&gt;Node3</title>
<g id="a_edge2_Node000002_Node000003"><a xlink:title=" ">
<path fill="none" stroke="#63b8ff" d="M349.72,-10.38C357.63,-10.38 365.66,-10.38 373.54,-10.38"/>
<polygon fill="#63b8ff" stroke="#63b8ff" points="373.44,-13.88 383.44,-10.38 373.44,-6.88 373.44,-13.88"/>
</a>
</g>
</g>
</g>
</svg>
