<?xml version="1.0" encoding="UTF-8" standalone="no"?>
<!DOCTYPE svg PUBLIC "-//W3C//DTD SVG 1.1//EN"
 "http://www.w3.org/Graphics/SVG/1.1/DTD/svg11.dtd">
<!-- Generated by graphviz version 2.43.0 (0)
 -->
<!-- Title: rmvl/decider/gyro_decider.h Pages: 1 -->
<svg width="1397pt" height="522pt"
 viewBox="0.00 0.00 1396.50 522.00" xmlns="http://www.w3.org/2000/svg" xmlns:xlink="http://www.w3.org/1999/xlink">
<g id="graph0" class="graph" transform="scale(1 1) rotate(0) translate(4 518)">
<title>rmvl/decider/gyro_decider.h</title>
<!-- Node1 -->
<g id="Node000001" class="node">
<title>Node1</title>
<g id="a_Node000001"><a xlink:title="装甲板模块决策器头文件">
<polygon fill="#999999" stroke="#666666" points="467,-514 315,-514 315,-495 467,-495 467,-514"/>
<text text-anchor="middle" x="391" y="-502" font-family="Helvetica,sans-Serif" font-size="10.00">rmvl/decider/gyro_decider.h</text>
</a>
</g>
</g>
<!-- Node2 -->
<g id="Node000002" class="node">
<title>Node2</title>
<g id="a_Node000002"><a xlink:href="../../d3/d70/decider_8h.html" target="_top" xlink:title="抽象决策类头文件">
<polygon fill="white" stroke="#666666" points="372.5,-459 311.5,-459 311.5,-440 372.5,-440 372.5,-459"/>
<text text-anchor="middle" x="342" y="-447" font-family="Helvetica,sans-Serif" font-size="10.00">decider.h</text>
</a>
</g>
</g>
<!-- Node1&#45;&gt;Node2 -->
<g id="edge1_Node000001_Node000002" class="edge">
<title>Node1&#45;&gt;Node2</title>
<g id="a_edge1_Node000001_Node000002"><a xlink:title=" ">
<path fill="none" stroke="#63b8ff" d="M382.91,-494.75C375.84,-487.11 365.41,-475.82 356.85,-466.56"/>
<polygon fill="#63b8ff" stroke="#63b8ff" points="359.3,-464.06 349.94,-459.09 354.16,-468.81 359.3,-464.06"/>
</a>
</g>
</g>
<!-- Node6 -->
<g id="Node000006" class="node">
<title>Node6</title>
<g id="a_Node000006"><a xlink:href="../../dc/ded/tracker_8h.html" target="_top" xlink:title="追踪器抽象头文件">
<polygon fill="white" stroke="#666666" points="589.5,-294 468.5,-294 468.5,-275 589.5,-275 589.5,-294"/>
<text text-anchor="middle" x="529" y="-282" font-family="Helvetica,sans-Serif" font-size="10.00">rmvl/tracker/tracker.h</text>
</a>
</g>
</g>
<!-- Node1&#45;&gt;Node6 -->
<g id="edge43_Node000001_Node000006" class="edge">
<title>Node1&#45;&gt;Node6</title>
<g id="a_edge43_Node000001_Node000006"><a xlink:title=" ">
<path fill="none" stroke="#63b8ff" d="M407.7,-494.78C434.2,-479.99 485.39,-447.32 510,-404 527.95,-372.41 530.26,-328.87 529.91,-304.32"/>
<polygon fill="#63b8ff" stroke="#63b8ff" points="533.41,-304.09 529.6,-294.21 526.41,-304.31 533.41,-304.09"/>
</a>
</g>
</g>
<!-- Node3 -->
<g id="Node000003" class="node">
<title>Node3</title>
<g id="a_Node000003"><a xlink:href="../../d9/df2/compensator_8h.html" target="_top" xlink:title="抽象补偿类头文件">
<polygon fill="white" stroke="#666666" points="342.5,-404 161.5,-404 161.5,-385 342.5,-385 342.5,-404"/>
<text text-anchor="middle" x="252" y="-392" font-family="Helvetica,sans-Serif" font-size="10.00">rmvl/compensator/compensator.h</text>
</a>
</g>
</g>
<!-- Node2&#45;&gt;Node3 -->
<g id="edge2_Node000002_Node000003" class="edge">
<title>Node2&#45;&gt;Node3</title>
<g id="a_edge2_Node000002_Node000003"><a xlink:title=" ">
<path fill="none" stroke="#63b8ff" d="M327.54,-439.98C313.58,-431.77 292.21,-419.18 275.75,-409.49"/>
<polygon fill="#63b8ff" stroke="#63b8ff" points="277.12,-406.23 266.72,-404.17 273.56,-412.26 277.12,-406.23"/>
</a>
</g>
</g>
<!-- Node29 -->
<g id="Node000029" class="node">
<title>Node29</title>
<g id="a_Node000029"><a xlink:href="../../d5/d9f/detector_8h.html" target="_top" xlink:title="抽象识别类头文件">
<polygon fill="white" stroke="#666666" points="143,-404 9,-404 9,-385 143,-385 143,-404"/>
<text text-anchor="middle" x="76" y="-392" font-family="Helvetica,sans-Serif" font-size="10.00">rmvl/detector/detector.h</text>
</a>
</g>
</g>
<!-- Node2&#45;&gt;Node29 -->
<g id="edge36_Node000002_Node000029" class="edge">
<title>Node2&#45;&gt;Node29</title>
<g id="a_edge36_Node000002_Node000029"><a xlink:title=" ">
<path fill="none" stroke="#63b8ff" d="M311.49,-442.42C266.91,-433.54 183.35,-416.89 128.7,-406"/>
<polygon fill="#63b8ff" stroke="#63b8ff" points="129.34,-402.56 118.85,-404.04 127.98,-409.43 129.34,-402.56"/>
</a>
</g>
</g>
<!-- Node32 -->
<g id="Node000032" class="node">
<title>Node32</title>
<g id="a_Node000032"><a xlink:href="../../dc/d08/predictor_8h.html" target="_top" xlink:title="抽象预测类头文件">
<polygon fill="white" stroke="#666666" points="501,-404 361,-404 361,-385 501,-385 501,-404"/>
<text text-anchor="middle" x="431" y="-392" font-family="Helvetica,sans-Serif" font-size="10.00">rmvl/predictor/predictor.h</text>
</a>
</g>
</g>
<!-- Node2&#45;&gt;Node32 -->
<g id="edge40_Node000002_Node000032" class="edge">
<title>Node2&#45;&gt;Node32</title>
<g id="a_edge40_Node000002_Node000032"><a xlink:title=" ">
<path fill="none" stroke="#63b8ff" d="M356.3,-439.98C370.1,-431.77 391.24,-419.18 407.51,-409.49"/>
<polygon fill="#63b8ff" stroke="#63b8ff" points="409.64,-412.29 416.44,-404.17 406.06,-406.28 409.64,-412.29"/>
</a>
</g>
</g>
<!-- Node4 -->
<g id="Node000004" class="node">
<title>Node4</title>
<g id="a_Node000004"><a xlink:title=" ">
<polygon fill="#e0e0e0" stroke="#999999" points="298.5,-129 205.5,-129 205.5,-110 298.5,-110 298.5,-129"/>
<text text-anchor="middle" x="252" y="-117" font-family="Helvetica,sans-Serif" font-size="10.00">unordered_map</text>
</a>
</g>
</g>
<!-- Node3&#45;&gt;Node4 -->
<g id="edge3_Node000003_Node000004" class="edge">
<title>Node3&#45;&gt;Node4</title>
<g id="a_edge3_Node000003_Node000004"><a xlink:title=" ">
<path fill="none" stroke="#63b8ff" d="M252,-384.82C252,-366.48 252,-322.44 252,-285.5 252,-285.5 252,-285.5 252,-228.5 252,-197.19 252,-160.77 252,-139.23"/>
<polygon fill="#63b8ff" stroke="#63b8ff" points="255.5,-139.18 252,-129.18 248.5,-139.18 255.5,-139.18"/>
</a>
</g>
</g>
<!-- Node5 -->
<g id="Node000005" class="node">
<title>Node5</title>
<g id="a_Node000005"><a xlink:href="../../d9/dd1/group_8h.html" target="_top" xlink:title="序列组抽象头文件">
<polygon fill="white" stroke="#666666" points="396,-349 286,-349 286,-330 396,-330 396,-349"/>
<text text-anchor="middle" x="341" y="-337" font-family="Helvetica,sans-Serif" font-size="10.00">rmvl/group/group.h</text>
</a>
</g>
</g>
<!-- Node3&#45;&gt;Node5 -->
<g id="edge4_Node000003_Node000005" class="edge">
<title>Node3&#45;&gt;Node5</title>
<g id="a_edge4_Node000003_Node000005"><a xlink:title=" ">
<path fill="none" stroke="#63b8ff" d="M266.3,-384.98C280.1,-376.77 301.24,-364.18 317.51,-354.49"/>
<polygon fill="#63b8ff" stroke="#63b8ff" points="319.64,-357.29 326.44,-349.17 316.06,-351.28 319.64,-357.29"/>
</a>
</g>
</g>
<!-- Node5&#45;&gt;Node6 -->
<g id="edge5_Node000005_Node000006" class="edge">
<title>Node5&#45;&gt;Node6</title>
<g id="a_edge5_Node000005_Node000006"><a xlink:title=" ">
<path fill="none" stroke="#63b8ff" d="M371.21,-329.98C403.04,-321.01 453.36,-306.82 488.6,-296.89"/>
<polygon fill="#63b8ff" stroke="#63b8ff" points="489.88,-300.16 498.56,-294.08 487.98,-293.43 489.88,-300.16"/>
</a>
</g>
</g>
<!-- Node7 -->
<g id="Node000007" class="node">
<title>Node7</title>
<g id="a_Node000007"><a xlink:title=" ">
<polygon fill="#e0e0e0" stroke="#999999" points="552.5,-239 505.5,-239 505.5,-220 552.5,-220 552.5,-239"/>
<text text-anchor="middle" x="529" y="-227" font-family="Helvetica,sans-Serif" font-size="10.00">deque</text>
</a>
</g>
</g>
<!-- Node6&#45;&gt;Node7 -->
<g id="edge6_Node000006_Node000007" class="edge">
<title>Node6&#45;&gt;Node7</title>
<g id="a_edge6_Node000006_Node000007"><a xlink:title=" ">
<path fill="none" stroke="#63b8ff" d="M529,-274.75C529,-267.8 529,-257.85 529,-249.13"/>
<polygon fill="#63b8ff" stroke="#63b8ff" points="532.5,-249.09 529,-239.09 525.5,-249.09 532.5,-249.09"/>
</a>
</g>
</g>
<!-- Node8 -->
<g id="Node000008" class="node">
<title>Node8</title>
<g id="a_Node000008"><a xlink:href="../../d8/d36/combo_8h.html" target="_top" xlink:title="the combination of the features header file">
<polygon fill="white" stroke="#666666" points="981,-239 861,-239 861,-220 981,-220 981,-239"/>
<text text-anchor="middle" x="921" y="-227" font-family="Helvetica,sans-Serif" font-size="10.00">rmvl/combo/combo.h</text>
</a>
</g>
</g>
<!-- Node6&#45;&gt;Node8 -->
<g id="edge7_Node000006_Node000008" class="edge">
<title>Node6&#45;&gt;Node8</title>
<g id="a_edge7_Node000006_Node000008"><a xlink:title=" ">
<path fill="none" stroke="#63b8ff" d="M589.82,-275.28C660.27,-265.75 776.15,-250.08 850.48,-240.03"/>
<polygon fill="#63b8ff" stroke="#63b8ff" points="851.24,-243.46 860.68,-238.66 850.3,-236.53 851.24,-243.46"/>
</a>
</g>
</g>
<!-- Node9 -->
<g id="Node000009" class="node">
<title>Node9</title>
<g id="a_Node000009"><a xlink:href="../../d3/d7e/camutils_8hpp.html" target="_top" xlink:title=" ">
<polygon fill="white" stroke="#666666" points="1329.5,-184 1184.5,-184 1184.5,-165 1329.5,-165 1329.5,-184"/>
<text text-anchor="middle" x="1257" y="-172" font-family="Helvetica,sans-Serif" font-size="10.00">rmvl/camera/camutils.hpp</text>
</a>
</g>
</g>
<!-- Node8&#45;&gt;Node9 -->
<g id="edge8_Node000008_Node000009" class="edge">
<title>Node8&#45;&gt;Node9</title>
<g id="a_edge8_Node000008_Node000009"><a xlink:title=" ">
<path fill="none" stroke="#63b8ff" d="M974.98,-219.98C1034.29,-210.63 1129.49,-195.61 1192.64,-185.65"/>
<polygon fill="#63b8ff" stroke="#63b8ff" points="1193.54,-189.05 1202.87,-184.04 1192.45,-182.14 1193.54,-189.05"/>
</a>
</g>
</g>
<!-- Node12 -->
<g id="Node000012" class="node">
<title>Node12</title>
<g id="a_Node000012"><a xlink:href="../../d4/d78/math_8hpp.html" target="_top" xlink:title="基础数学库">
<polygon fill="white" stroke="#666666" points="628.5,-184 489.5,-184 489.5,-165 628.5,-165 628.5,-184"/>
<text text-anchor="middle" x="559" y="-172" font-family="Helvetica,sans-Serif" font-size="10.00">rmvl/algorithm/math.hpp</text>
</a>
</g>
</g>
<!-- Node8&#45;&gt;Node12 -->
<g id="edge11_Node000008_Node000012" class="edge">
<title>Node8&#45;&gt;Node12</title>
<g id="a_edge11_Node000008_Node000012"><a xlink:title=" ">
<path fill="none" stroke="#63b8ff" d="M862.84,-219.98C798.68,-210.59 695.53,-195.49 627.51,-185.53"/>
<polygon fill="#63b8ff" stroke="#63b8ff" points="627.72,-182.02 617.32,-184.04 626.7,-188.95 627.72,-182.02"/>
</a>
</g>
</g>
<!-- Node22 -->
<g id="Node000022" class="node">
<title>Node22</title>
<g id="a_Node000022"><a xlink:href="../../dd/de3/types_8hpp.html" target="_top" xlink:title="常用状态类型定义">
<polygon fill="white" stroke="#666666" points="1229,-129 1139,-129 1139,-110 1229,-110 1229,-129"/>
<text text-anchor="middle" x="1184" y="-117" font-family="Helvetica,sans-Serif" font-size="10.00">rmvl/types.hpp</text>
</a>
</g>
</g>
<!-- Node8&#45;&gt;Node22 -->
<g id="edge23_Node000008_Node000022" class="edge">
<title>Node8&#45;&gt;Node22</title>
<g id="a_edge23_Node000008_Node000022"><a xlink:title=" ">
<path fill="none" stroke="#63b8ff" d="M957.03,-219.96C987.47,-212.2 1031.9,-199.61 1069,-184 1102.81,-169.77 1139.53,-148.36 1162.16,-134.4"/>
<polygon fill="#63b8ff" stroke="#63b8ff" points="1164.03,-137.36 1170.66,-129.1 1160.33,-131.42 1164.03,-137.36"/>
</a>
</g>
</g>
<!-- Node23 -->
<g id="Node000023" class="node">
<title>Node23</title>
<g id="a_Node000023"><a xlink:href="../../d2/dc6/io_8hpp.html" target="_top" xlink:title="数据 IO 与通信模块">
<polygon fill="white" stroke="#666666" points="893,-184 797,-184 797,-165 893,-165 893,-184"/>
<text text-anchor="middle" x="845" y="-172" font-family="Helvetica,sans-Serif" font-size="10.00">rmvl/core/io.hpp</text>
</a>
</g>
</g>
<!-- Node8&#45;&gt;Node23 -->
<g id="edge25_Node000008_Node000023" class="edge">
<title>Node8&#45;&gt;Node23</title>
<g id="a_edge25_Node000008_Node000023"><a xlink:title=" ">
<path fill="none" stroke="#63b8ff" d="M908.79,-219.98C897.22,-211.92 879.62,-199.65 865.84,-190.03"/>
<polygon fill="#63b8ff" stroke="#63b8ff" points="867.64,-187.02 857.43,-184.17 863.63,-192.76 867.64,-187.02"/>
</a>
</g>
</g>
<!-- Node27 -->
<g id="Node000027" class="node">
<title>Node27</title>
<g id="a_Node000027"><a xlink:href="../../d2/d74/feature_8h.html" target="_top" xlink:title="feature class header">
<polygon fill="white" stroke="#666666" points="1059.5,-184 934.5,-184 934.5,-165 1059.5,-165 1059.5,-184"/>
<text text-anchor="middle" x="997" y="-172" font-family="Helvetica,sans-Serif" font-size="10.00">rmvl/feature/feature.h</text>
</a>
</g>
</g>
<!-- Node8&#45;&gt;Node27 -->
<g id="edge32_Node000008_Node000027" class="edge">
<title>Node8&#45;&gt;Node27</title>
<g id="a_edge32_Node000008_Node000027"><a xlink:title=" ">
<path fill="none" stroke="#63b8ff" d="M933.21,-219.98C944.78,-211.92 962.38,-199.65 976.16,-190.03"/>
<polygon fill="#63b8ff" stroke="#63b8ff" points="978.37,-192.76 984.57,-184.17 974.36,-187.02 978.37,-192.76"/>
</a>
</g>
</g>
<!-- Node10 -->
<g id="Node000010" class="node">
<title>Node10</title>
<g id="a_Node000010"><a xlink:title=" ">
<polygon fill="#e0e0e0" stroke="#999999" points="1388.5,-129 1285.5,-129 1285.5,-110 1388.5,-110 1388.5,-129"/>
<text text-anchor="middle" x="1337" y="-117" font-family="Helvetica,sans-Serif" font-size="10.00">opencv2/core.hpp</text>
</a>
</g>
</g>
<!-- Node9&#45;&gt;Node10 -->
<g id="edge9_Node000009_Node000010" class="edge">
<title>Node9&#45;&gt;Node10</title>
<g id="a_edge9_Node000009_Node000010"><a xlink:title=" ">
<path fill="none" stroke="#63b8ff" d="M1269.85,-164.98C1282.14,-156.84 1300.91,-144.41 1315.48,-134.76"/>
<polygon fill="#63b8ff" stroke="#63b8ff" points="1317.51,-137.61 1323.91,-129.17 1313.64,-131.78 1317.51,-137.61"/>
</a>
</g>
</g>
<!-- Node11 -->
<g id="Node000011" class="node">
<title>Node11</title>
<g id="a_Node000011"><a xlink:href="../../db/d41/rmvldef_8hpp.html" target="_top" xlink:title=" ">
<polygon fill="white" stroke="#666666" points="1010.5,-19 885.5,-19 885.5,0 1010.5,0 1010.5,-19"/>
<text text-anchor="middle" x="948" y="-7" font-family="Helvetica,sans-Serif" font-size="10.00">rmvl/core/rmvldef.hpp</text>
</a>
</g>
</g>
<!-- Node9&#45;&gt;Node11 -->
<g id="edge10_Node000009_Node000011" class="edge">
<title>Node9&#45;&gt;Node11</title>
<g id="a_edge10_Node000009_Node000011"><a xlink:title=" ">
<path fill="none" stroke="#63b8ff" d="M1256.82,-164.88C1256.07,-151.39 1252.67,-125.27 1238,-110 1180.76,-50.44 1086.34,-26.52 1020.86,-16.93"/>
<polygon fill="#63b8ff" stroke="#63b8ff" points="1020.99,-13.41 1010.61,-15.51 1020.03,-20.35 1020.99,-13.41"/>
</a>
</g>
</g>
<!-- Node12&#45;&gt;Node4 -->
<g id="edge14_Node000012_Node000004" class="edge">
<title>Node12&#45;&gt;Node4</title>
<g id="a_edge14_Node000012_Node000004"><a xlink:title=" ">
<path fill="none" stroke="#63b8ff" d="M509.68,-164.98C454.83,-155.52 366.39,-140.25 308.73,-130.29"/>
<polygon fill="#63b8ff" stroke="#63b8ff" points="309.14,-126.81 298.69,-128.56 307.95,-133.71 309.14,-126.81"/>
</a>
</g>
</g>
<!-- Node13 -->
<g id="Node000013" class="node">
<title>Node13</title>
<g id="a_Node000013"><a xlink:title=" ">
<polygon fill="#e0e0e0" stroke="#999999" points="512.5,-129 465.5,-129 465.5,-110 512.5,-110 512.5,-129"/>
<text text-anchor="middle" x="489" y="-117" font-family="Helvetica,sans-Serif" font-size="10.00">cmath</text>
</a>
</g>
</g>
<!-- Node12&#45;&gt;Node13 -->
<g id="edge12_Node000012_Node000013" class="edge">
<title>Node12&#45;&gt;Node13</title>
<g id="a_edge12_Node000012_Node000013"><a xlink:title=" ">
<path fill="none" stroke="#63b8ff" d="M547.75,-164.98C537.2,-157 521.2,-144.88 508.56,-135.31"/>
<polygon fill="#63b8ff" stroke="#63b8ff" points="510.54,-132.42 500.45,-129.17 506.31,-138 510.54,-132.42"/>
</a>
</g>
</g>
<!-- Node14 -->
<g id="Node000014" class="node">
<title>Node14</title>
<g id="a_Node000014"><a xlink:title=" ">
<polygon fill="#e0e0e0" stroke="#999999" points="587,-129 531,-129 531,-110 587,-110 587,-129"/>
<text text-anchor="middle" x="559" y="-117" font-family="Helvetica,sans-Serif" font-size="10.00">numeric</text>
</a>
</g>
</g>
<!-- Node12&#45;&gt;Node14 -->
<g id="edge13_Node000012_Node000014" class="edge">
<title>Node12&#45;&gt;Node14</title>
<g id="a_edge13_Node000012_Node000014"><a xlink:title=" ">
<path fill="none" stroke="#63b8ff" d="M559,-164.75C559,-157.8 559,-147.85 559,-139.13"/>
<polygon fill="#63b8ff" stroke="#63b8ff" points="562.5,-139.09 559,-129.09 555.5,-139.09 562.5,-139.09"/>
</a>
</g>
</g>
<!-- Node15 -->
<g id="Node000015" class="node">
<title>Node15</title>
<g id="a_Node000015"><a xlink:title=" ">
<polygon fill="#e0e0e0" stroke="#999999" points="690.5,-129 643.5,-129 643.5,-110 690.5,-110 690.5,-129"/>
<text text-anchor="middle" x="667" y="-117" font-family="Helvetica,sans-Serif" font-size="10.00">vector</text>
</a>
</g>
</g>
<!-- Node12&#45;&gt;Node15 -->
<g id="edge15_Node000012_Node000015" class="edge">
<title>Node12&#45;&gt;Node15</title>
<g id="a_edge15_Node000012_Node000015"><a xlink:title=" ">
<path fill="none" stroke="#63b8ff" d="M576.35,-164.98C593.57,-156.54 620.2,-143.47 640.15,-133.68"/>
<polygon fill="#63b8ff" stroke="#63b8ff" points="641.9,-136.72 649.33,-129.17 638.81,-130.43 641.9,-136.72"/>
</a>
</g>
</g>
<!-- Node16 -->
<g id="Node000016" class="node">
<title>Node16</title>
<g id="a_Node000016"><a xlink:title=" ">
<polygon fill="#e0e0e0" stroke="#999999" points="447.5,-129 316.5,-129 316.5,-110 447.5,-110 447.5,-129"/>
<text text-anchor="middle" x="382" y="-117" font-family="Helvetica,sans-Serif" font-size="10.00">opencv2/core/matx.hpp</text>
</a>
</g>
</g>
<!-- Node12&#45;&gt;Node16 -->
<g id="edge16_Node000012_Node000016" class="edge">
<title>Node12&#45;&gt;Node16</title>
<g id="a_edge16_Node000012_Node000016"><a xlink:title=" ">
<path fill="none" stroke="#63b8ff" d="M530.56,-164.98C500.72,-156.05 453.62,-141.94 420.47,-132.02"/>
<polygon fill="#63b8ff" stroke="#63b8ff" points="421.24,-128.6 410.66,-129.08 419.24,-135.3 421.24,-128.6"/>
</a>
</g>
</g>
<!-- Node17 -->
<g id="Node000017" class="node">
<title>Node17</title>
<g id="a_Node000017"><a xlink:href="../../d0/d3f/util_8hpp.html" target="_top" xlink:title=" ">
<polygon fill="white" stroke="#666666" points="789.5,-74 686.5,-74 686.5,-55 789.5,-55 789.5,-74"/>
<text text-anchor="middle" x="738" y="-62" font-family="Helvetica,sans-Serif" font-size="10.00">rmvl/core/util.hpp</text>
</a>
</g>
</g>
<!-- Node12&#45;&gt;Node17 -->
<g id="edge17_Node000012_Node000017" class="edge">
<title>Node12&#45;&gt;Node17</title>
<g id="a_edge17_Node000012_Node000017"><a xlink:title=" ">
<path fill="none" stroke="#63b8ff" d="M567.7,-164.76C581.18,-151.58 608.35,-126.41 635,-110 656.52,-96.75 682.69,-85.5 703.27,-77.62"/>
<polygon fill="#63b8ff" stroke="#63b8ff" points="704.73,-80.81 712.87,-74.03 702.28,-74.25 704.73,-80.81"/>
</a>
</g>
</g>
<!-- Node17&#45;&gt;Node11 -->
<g id="edge22_Node000017_Node000011" class="edge">
<title>Node17&#45;&gt;Node11</title>
<g id="a_edge22_Node000017_Node000011"><a xlink:title=" ">
<path fill="none" stroke="#63b8ff" d="M771.74,-54.98C807.68,-45.91 864.72,-31.52 904.13,-21.57"/>
<polygon fill="#63b8ff" stroke="#63b8ff" points="905.16,-24.92 914,-19.08 903.44,-18.14 905.16,-24.92"/>
</a>
</g>
</g>
<!-- Node18 -->
<g id="Node000018" class="node">
<title>Node18</title>
<g id="a_Node000018"><a xlink:title=" ">
<polygon fill="#e0e0e0" stroke="#999999" points="804.5,-19 671.5,-19 671.5,0 804.5,0 804.5,-19"/>
<text text-anchor="middle" x="738" y="-7" font-family="Helvetica,sans-Serif" font-size="10.00">rmvl/rmvl_modules.hpp</text>
</a>
</g>
</g>
<!-- Node17&#45;&gt;Node18 -->
<g id="edge18_Node000017_Node000018" class="edge">
<title>Node17&#45;&gt;Node18</title>
<g id="a_edge18_Node000017_Node000018"><a xlink:title=" ">
<path fill="none" stroke="#63b8ff" d="M738,-54.75C738,-47.8 738,-37.85 738,-29.13"/>
<polygon fill="#63b8ff" stroke="#63b8ff" points="741.5,-29.09 738,-19.09 734.5,-29.09 741.5,-29.09"/>
</a>
</g>
</g>
<!-- Node19 -->
<g id="Node000019" class="node">
<title>Node19</title>
<g id="a_Node000019"><a xlink:title=" ">
<polygon fill="#e0e0e0" stroke="#999999" points="589,-19 539,-19 539,0 589,0 589,-19"/>
<text text-anchor="middle" x="564" y="-7" font-family="Helvetica,sans-Serif" font-size="10.00">cstdint</text>
</a>
</g>
</g>
<!-- Node17&#45;&gt;Node19 -->
<g id="edge19_Node000017_Node000019" class="edge">
<title>Node17&#45;&gt;Node19</title>
<g id="a_edge19_Node000017_Node000019"><a xlink:title=" ">
<path fill="none" stroke="#63b8ff" d="M710.04,-54.98C679.75,-45.76 631.36,-31.02 598.67,-21.06"/>
<polygon fill="#63b8ff" stroke="#63b8ff" points="599.65,-17.7 589.06,-18.13 597.61,-24.4 599.65,-17.7"/>
</a>
</g>
</g>
<!-- Node20 -->
<g id="Node000020" class="node">
<title>Node20</title>
<g id="a_Node000020"><a xlink:title=" ">
<polygon fill="#e0e0e0" stroke="#999999" points="653,-19 607,-19 607,0 653,0 653,-19"/>
<text text-anchor="middle" x="630" y="-7" font-family="Helvetica,sans-Serif" font-size="10.00">cstdio</text>
</a>
</g>
</g>
<!-- Node17&#45;&gt;Node20 -->
<g id="edge20_Node000017_Node000020" class="edge">
<title>Node17&#45;&gt;Node20</title>
<g id="a_edge20_Node000017_Node000020"><a xlink:title=" ">
<path fill="none" stroke="#63b8ff" d="M720.65,-54.98C703.43,-46.54 676.8,-33.47 656.85,-23.68"/>
<polygon fill="#63b8ff" stroke="#63b8ff" points="658.19,-20.43 647.67,-19.17 655.1,-26.72 658.19,-20.43"/>
</a>
</g>
</g>
<!-- Node21 -->
<g id="Node000021" class="node">
<title>Node21</title>
<g id="a_Node000021"><a xlink:title=" ">
<polygon fill="#e0e0e0" stroke="#999999" points="867,-19 823,-19 823,0 867,0 867,-19"/>
<text text-anchor="middle" x="845" y="-7" font-family="Helvetica,sans-Serif" font-size="10.00">string</text>
</a>
</g>
</g>
<!-- Node17&#45;&gt;Node21 -->
<g id="edge21_Node000017_Node000021" class="edge">
<title>Node17&#45;&gt;Node21</title>
<g id="a_edge21_Node000017_Node000021"><a xlink:title=" ">
<path fill="none" stroke="#63b8ff" d="M755.19,-54.98C772.25,-46.54 798.63,-33.47 818.4,-23.68"/>
<polygon fill="#63b8ff" stroke="#63b8ff" points="820.09,-26.75 827.5,-19.17 816.98,-20.47 820.09,-26.75"/>
</a>
</g>
</g>
<!-- Node22&#45;&gt;Node17 -->
<g id="edge24_Node000022_Node000017" class="edge">
<title>Node22&#45;&gt;Node17</title>
<g id="a_edge24_Node000022_Node000017"><a xlink:title=" ">
<path fill="none" stroke="#63b8ff" d="M1138.94,-111.26C1135.92,-110.82 1132.92,-110.39 1130,-110 1013.56,-94.23 877.15,-79.62 799.82,-71.69"/>
<polygon fill="#63b8ff" stroke="#63b8ff" points="800.07,-68.19 789.77,-70.66 799.36,-75.16 800.07,-68.19"/>
</a>
</g>
</g>
<!-- Node23&#45;&gt;Node11 -->
<g id="edge31_Node000023_Node000011" class="edge">
<title>Node23&#45;&gt;Node11</title>
<g id="a_edge31_Node000023_Node000011"><a xlink:title=" ">
<path fill="none" stroke="#63b8ff" d="M850.54,-164.74C866.88,-138.87 915.15,-62.48 937.02,-27.88"/>
<polygon fill="#63b8ff" stroke="#63b8ff" points="940.05,-29.63 942.43,-19.31 934.13,-25.89 940.05,-29.63"/>
</a>
</g>
</g>
<!-- Node23&#45;&gt;Node15 -->
<g id="edge30_Node000023_Node000015" class="edge">
<title>Node23&#45;&gt;Node15</title>
<g id="a_edge30_Node000023_Node000015"><a xlink:title=" ">
<path fill="none" stroke="#63b8ff" d="M816.4,-164.98C784.78,-155.57 733.91,-140.42 700.47,-130.46"/>
<polygon fill="#63b8ff" stroke="#63b8ff" points="701.27,-127.05 690.69,-127.55 699.27,-133.76 701.27,-127.05"/>
</a>
</g>
</g>
<!-- Node23&#45;&gt;Node21 -->
<g id="edge29_Node000023_Node000021" class="edge">
<title>Node23&#45;&gt;Node21</title>
<g id="a_edge29_Node000023_Node000021"><a xlink:title=" ">
<path fill="none" stroke="#63b8ff" d="M845,-164.74C845,-139.31 845,-65.08 845,-29.69"/>
<polygon fill="#63b8ff" stroke="#63b8ff" points="848.5,-29.31 845,-19.31 841.5,-29.31 848.5,-29.31"/>
</a>
</g>
</g>
<!-- Node24 -->
<g id="Node000024" class="node">
<title>Node24</title>
<g id="a_Node000024"><a xlink:title=" ">
<polygon fill="#e0e0e0" stroke="#999999" points="751,-129 709,-129 709,-110 751,-110 751,-129"/>
<text text-anchor="middle" x="730" y="-117" font-family="Helvetica,sans-Serif" font-size="10.00">array</text>
</a>
</g>
</g>
<!-- Node23&#45;&gt;Node24 -->
<g id="edge26_Node000023_Node000024" class="edge">
<title>Node23&#45;&gt;Node24</title>
<g id="a_edge26_Node000023_Node000024"><a xlink:title=" ">
<path fill="none" stroke="#63b8ff" d="M826.52,-164.98C808.02,-156.46 779.32,-143.23 758.02,-133.41"/>
<polygon fill="#63b8ff" stroke="#63b8ff" points="759.36,-130.18 748.81,-129.17 756.43,-136.53 759.36,-130.18"/>
</a>
</g>
</g>
<!-- Node25 -->
<g id="Node000025" class="node">
<title>Node25</title>
<g id="a_Node000025"><a xlink:title=" ">
<polygon fill="#e0e0e0" stroke="#999999" points="817,-129 769,-129 769,-110 817,-110 817,-129"/>
<text text-anchor="middle" x="793" y="-117" font-family="Helvetica,sans-Serif" font-size="10.00">iosfwd</text>
</a>
</g>
</g>
<!-- Node23&#45;&gt;Node25 -->
<g id="edge27_Node000023_Node000025" class="edge">
<title>Node23&#45;&gt;Node25</title>
<g id="a_edge27_Node000023_Node000025"><a xlink:title=" ">
<path fill="none" stroke="#63b8ff" d="M836.41,-164.75C828.84,-157.03 817.62,-145.6 808.49,-136.28"/>
<polygon fill="#63b8ff" stroke="#63b8ff" points="810.93,-133.78 801.43,-129.09 805.93,-138.68 810.93,-133.78"/>
</a>
</g>
</g>
<!-- Node26 -->
<g id="Node000026" class="node">
<title>Node26</title>
<g id="a_Node000026"><a xlink:title=" ">
<polygon fill="#e0e0e0" stroke="#999999" points="969,-129 911,-129 911,-110 969,-110 969,-129"/>
<text text-anchor="middle" x="940" y="-117" font-family="Helvetica,sans-Serif" font-size="10.00">memory</text>
</a>
</g>
</g>
<!-- Node23&#45;&gt;Node26 -->
<g id="edge28_Node000023_Node000026" class="edge">
<title>Node23&#45;&gt;Node26</title>
<g id="a_edge28_Node000023_Node000026"><a xlink:title=" ">
<path fill="none" stroke="#63b8ff" d="M860.26,-164.98C875.13,-156.69 897.98,-143.94 915.42,-134.22"/>
<polygon fill="#63b8ff" stroke="#63b8ff" points="917.43,-137.1 924.46,-129.17 914.02,-130.99 917.43,-137.1"/>
</a>
</g>
</g>
<!-- Node27&#45;&gt;Node22 -->
<g id="edge35_Node000027_Node000022" class="edge">
<title>Node27&#45;&gt;Node22</title>
<g id="a_edge35_Node000027_Node000022"><a xlink:title=" ">
<path fill="none" stroke="#63b8ff" d="M1027.04,-164.98C1058.71,-156.01 1108.77,-141.82 1143.81,-131.89"/>
<polygon fill="#63b8ff" stroke="#63b8ff" points="1145.05,-135.18 1153.72,-129.08 1143.14,-128.44 1145.05,-135.18"/>
</a>
</g>
</g>
<!-- Node27&#45;&gt;Node26 -->
<g id="edge33_Node000027_Node000026" class="edge">
<title>Node27&#45;&gt;Node26</title>
<g id="a_edge33_Node000027_Node000026"><a xlink:title=" ">
<path fill="none" stroke="#63b8ff" d="M987.84,-164.98C979.5,-157.23 966.97,-145.58 956.82,-136.14"/>
<polygon fill="#63b8ff" stroke="#63b8ff" points="959.03,-133.42 949.32,-129.17 954.26,-138.54 959.03,-133.42"/>
</a>
</g>
</g>
<!-- Node28 -->
<g id="Node000028" class="node">
<title>Node28</title>
<g id="a_Node000028"><a xlink:title=" ">
<polygon fill="#e0e0e0" stroke="#999999" points="1120.5,-129 987.5,-129 987.5,-110 1120.5,-110 1120.5,-129"/>
<text text-anchor="middle" x="1054" y="-117" font-family="Helvetica,sans-Serif" font-size="10.00">opencv2/core/types.hpp</text>
</a>
</g>
</g>
<!-- Node27&#45;&gt;Node28 -->
<g id="edge34_Node000027_Node000028" class="edge">
<title>Node27&#45;&gt;Node28</title>
<g id="a_edge34_Node000027_Node000028"><a xlink:title=" ">
<path fill="none" stroke="#63b8ff" d="M1006.16,-164.98C1014.5,-157.23 1027.03,-145.58 1037.18,-136.14"/>
<polygon fill="#63b8ff" stroke="#63b8ff" points="1039.74,-138.54 1044.68,-129.17 1034.97,-133.42 1039.74,-138.54"/>
</a>
</g>
</g>
<!-- Node29&#45;&gt;Node5 -->
<g id="edge37_Node000029_Node000005" class="edge">
<title>Node29&#45;&gt;Node5</title>
<g id="a_edge37_Node000029_Node000005"><a xlink:title=" ">
<path fill="none" stroke="#63b8ff" d="M118.58,-384.98C164.7,-375.76 238.36,-361.03 288.16,-351.07"/>
<polygon fill="#63b8ff" stroke="#63b8ff" points="288.97,-354.48 298.09,-349.08 287.6,-347.61 288.97,-354.48"/>
</a>
</g>
</g>
<!-- Node30 -->
<g id="Node000030" class="node">
<title>Node30</title>
<g id="a_Node000030"><a xlink:href="../../d2/d4c/pretreat_8hpp.html" target="_top" xlink:title="图像预处理模块">
<polygon fill="white" stroke="#666666" points="152,-349 0,-349 0,-330 152,-330 152,-349"/>
<text text-anchor="middle" x="76" y="-337" font-family="Helvetica,sans-Serif" font-size="10.00">rmvl/algorithm/pretreat.hpp</text>
</a>
</g>
</g>
<!-- Node29&#45;&gt;Node30 -->
<g id="edge38_Node000029_Node000030" class="edge">
<title>Node29&#45;&gt;Node30</title>
<g id="a_edge38_Node000029_Node000030"><a xlink:title=" ">
<path fill="none" stroke="#63b8ff" d="M76,-384.75C76,-377.8 76,-367.85 76,-359.13"/>
<polygon fill="#63b8ff" stroke="#63b8ff" points="79.5,-359.09 76,-349.09 72.5,-359.09 79.5,-359.09"/>
</a>
</g>
</g>
<!-- Node31 -->
<g id="Node000031" class="node">
<title>Node31</title>
<g id="a_Node000031"><a xlink:title=" ">
<polygon fill="#e0e0e0" stroke="#999999" points="138.5,-294 13.5,-294 13.5,-275 138.5,-275 138.5,-294"/>
<text text-anchor="middle" x="76" y="-282" font-family="Helvetica,sans-Serif" font-size="10.00">opencv2/core/mat.hpp</text>
</a>
</g>
</g>
<!-- Node30&#45;&gt;Node31 -->
<g id="edge39_Node000030_Node000031" class="edge">
<title>Node30&#45;&gt;Node31</title>
<g id="a_edge39_Node000030_Node000031"><a xlink:title=" ">
<path fill="none" stroke="#63b8ff" d="M76,-329.75C76,-322.8 76,-312.85 76,-304.13"/>
<polygon fill="#63b8ff" stroke="#63b8ff" points="79.5,-304.09 76,-294.09 72.5,-304.09 79.5,-304.09"/>
</a>
</g>
</g>
<!-- Node32&#45;&gt;Node4 -->
<g id="edge41_Node000032_Node000004" class="edge">
<title>Node32&#45;&gt;Node4</title>
<g id="a_edge41_Node000032_Node000004"><a xlink:title=" ">
<path fill="none" stroke="#63b8ff" d="M430.46,-384.82C429.37,-366.49 427,-322.46 427,-285.5 427,-285.5 427,-285.5 427,-228.5 427,-171.93 359.97,-144.02 308.88,-130.96"/>
<polygon fill="#63b8ff" stroke="#63b8ff" points="309.44,-127.49 298.9,-128.54 307.79,-134.29 309.44,-127.49"/>
</a>
</g>
</g>
<!-- Node32&#45;&gt;Node5 -->
<g id="edge42_Node000032_Node000005" class="edge">
<title>Node32&#45;&gt;Node5</title>
<g id="a_edge42_Node000032_Node000005"><a xlink:title=" ">
<path fill="none" stroke="#63b8ff" d="M416.54,-384.98C402.58,-376.77 381.21,-364.18 364.75,-354.49"/>
<polygon fill="#63b8ff" stroke="#63b8ff" points="366.12,-351.23 355.72,-349.17 362.56,-357.26 366.12,-351.23"/>
</a>
</g>
</g>
</g>
</svg>
