<?xml version="1.0" encoding="UTF-8" standalone="no"?>
<!DOCTYPE svg PUBLIC "-//W3C//DTD SVG 1.1//EN"
 "http://www.w3.org/Graphics/SVG/1.1/DTD/svg11.dtd">
<!-- Generated by graphviz version 2.43.0 (0)
 -->
<!-- Title: rmvl/predictor.hpp Pages: 1 -->
<svg width="1118pt" height="467pt"
 viewBox="0.00 0.00 1117.50 467.00" xmlns="http://www.w3.org/2000/svg" xmlns:xlink="http://www.w3.org/1999/xlink">
<g id="graph0" class="graph" transform="scale(1 1) rotate(0) translate(4 463)">
<title>rmvl/predictor.hpp</title>
<!-- Node1 -->
<g id="Node000001" class="node">
<title>Node1</title>
<g id="a_Node000001"><a xlink:title=" ">
<polygon fill="#999999" stroke="#666666" points="106,-459 0,-459 0,-440 106,-440 106,-459"/>
<text text-anchor="middle" x="53" y="-447" font-family="Helvetica,sans-Serif" font-size="10.00">rmvl/predictor.hpp</text>
</a>
</g>
</g>
<!-- Node2 -->
<g id="Node000002" class="node">
<title>Node2</title>
<g id="a_Node000002"><a xlink:title=" ">
<polygon fill="#e0e0e0" stroke="#999999" points="184.5,-19 51.5,-19 51.5,0 184.5,0 184.5,-19"/>
<text text-anchor="middle" x="118" y="-7" font-family="Helvetica,sans-Serif" font-size="10.00">rmvl/rmvl_modules.hpp</text>
</a>
</g>
</g>
<!-- Node1&#45;&gt;Node2 -->
<g id="edge1_Node000001_Node000002" class="edge">
<title>Node1&#45;&gt;Node2</title>
<g id="a_edge1_Node000001_Node000002"><a xlink:title=" ">
<path fill="none" stroke="#63b8ff" d="M46.84,-439.73C34.95,-421.92 10,-379.85 10,-340.5 10,-340.5 10,-340.5 10,-118.5 10,-73.37 57.74,-40.51 89.74,-23.55"/>
<polygon fill="#63b8ff" stroke="#63b8ff" points="91.36,-26.65 98.69,-19 88.19,-20.41 91.36,-26.65"/>
</a>
</g>
</g>
<!-- Node3 -->
<g id="Node000003" class="node">
<title>Node3</title>
<g id="a_Node000003"><a xlink:href="../../dc/d08/predictor_8h.html" target="_top" xlink:title="抽象预测类头文件">
<polygon fill="white" stroke="#666666" points="153.5,-404 38.5,-404 38.5,-385 153.5,-385 153.5,-404"/>
<text text-anchor="middle" x="96" y="-392" font-family="Helvetica,sans-Serif" font-size="10.00">predictor/predictor.h</text>
</a>
</g>
</g>
<!-- Node1&#45;&gt;Node3 -->
<g id="edge2_Node000001_Node000003" class="edge">
<title>Node1&#45;&gt;Node3</title>
<g id="a_edge2_Node000001_Node000003"><a xlink:title=" ">
<path fill="none" stroke="#63b8ff" d="M60.1,-439.75C66.17,-432.26 75.09,-421.28 82.51,-412.13"/>
<polygon fill="#63b8ff" stroke="#63b8ff" points="85.45,-414.06 89.03,-404.09 80.01,-409.65 85.45,-414.06"/>
</a>
</g>
</g>
<!-- Node4 -->
<g id="Node000004" class="node">
<title>Node4</title>
<g id="a_Node000004"><a xlink:title=" ">
<polygon fill="#e0e0e0" stroke="#999999" points="131.5,-129 38.5,-129 38.5,-110 131.5,-110 131.5,-129"/>
<text text-anchor="middle" x="85" y="-117" font-family="Helvetica,sans-Serif" font-size="10.00">unordered_map</text>
</a>
</g>
</g>
<!-- Node3&#45;&gt;Node4 -->
<g id="edge3_Node000003_Node000004" class="edge">
<title>Node3&#45;&gt;Node4</title>
<g id="a_edge3_Node000003_Node000004"><a xlink:title=" ">
<path fill="none" stroke="#63b8ff" d="M95.19,-384.83C93.55,-366.51 90,-322.49 90,-285.5 90,-285.5 90,-285.5 90,-228.5 90,-197.16 87.87,-160.75 86.39,-139.22"/>
<polygon fill="#63b8ff" stroke="#63b8ff" points="89.88,-138.9 85.67,-129.17 82.9,-139.4 89.88,-138.9"/>
</a>
</g>
</g>
<!-- Node5 -->
<g id="Node000005" class="node">
<title>Node5</title>
<g id="a_Node000005"><a xlink:href="../../d9/dd1/group_8h.html" target="_top" xlink:title="序列组抽象头文件">
<polygon fill="white" stroke="#666666" points="391,-349 281,-349 281,-330 391,-330 391,-349"/>
<text text-anchor="middle" x="336" y="-337" font-family="Helvetica,sans-Serif" font-size="10.00">rmvl/group/group.h</text>
</a>
</g>
</g>
<!-- Node3&#45;&gt;Node5 -->
<g id="edge4_Node000003_Node000005" class="edge">
<title>Node3&#45;&gt;Node5</title>
<g id="a_edge4_Node000003_Node000005"><a xlink:title=" ">
<path fill="none" stroke="#63b8ff" d="M134.56,-384.98C176.07,-375.82 242.21,-361.21 287.29,-351.26"/>
<polygon fill="#63b8ff" stroke="#63b8ff" points="288.13,-354.66 297.14,-349.08 286.62,-347.82 288.13,-354.66"/>
</a>
</g>
</g>
<!-- Node6 -->
<g id="Node000006" class="node">
<title>Node6</title>
<g id="a_Node000006"><a xlink:href="../../dc/ded/tracker_8h.html" target="_top" xlink:title="追踪器抽象头文件">
<polygon fill="white" stroke="#666666" points="630.5,-294 509.5,-294 509.5,-275 630.5,-275 630.5,-294"/>
<text text-anchor="middle" x="570" y="-282" font-family="Helvetica,sans-Serif" font-size="10.00">rmvl/tracker/tracker.h</text>
</a>
</g>
</g>
<!-- Node5&#45;&gt;Node6 -->
<g id="edge5_Node000005_Node000006" class="edge">
<title>Node5&#45;&gt;Node6</title>
<g id="a_edge5_Node000005_Node000006"><a xlink:title=" ">
<path fill="none" stroke="#63b8ff" d="M373.6,-329.98C413.99,-320.84 478.28,-306.27 522.23,-296.32"/>
<polygon fill="#63b8ff" stroke="#63b8ff" points="523.13,-299.7 532.11,-294.08 521.58,-292.88 523.13,-299.7"/>
</a>
</g>
</g>
<!-- Node7 -->
<g id="Node000007" class="node">
<title>Node7</title>
<g id="a_Node000007"><a xlink:title=" ">
<polygon fill="#e0e0e0" stroke="#999999" points="695.5,-239 648.5,-239 648.5,-220 695.5,-220 695.5,-239"/>
<text text-anchor="middle" x="672" y="-227" font-family="Helvetica,sans-Serif" font-size="10.00">deque</text>
</a>
</g>
</g>
<!-- Node6&#45;&gt;Node7 -->
<g id="edge6_Node000006_Node000007" class="edge">
<title>Node6&#45;&gt;Node7</title>
<g id="a_edge6_Node000006_Node000007"><a xlink:title=" ">
<path fill="none" stroke="#63b8ff" d="M586.39,-274.98C602.57,-266.57 627.57,-253.59 646.38,-243.81"/>
<polygon fill="#63b8ff" stroke="#63b8ff" points="648.05,-246.89 655.31,-239.17 644.83,-240.68 648.05,-246.89"/>
</a>
</g>
</g>
<!-- Node8 -->
<g id="Node000008" class="node">
<title>Node8</title>
<g id="a_Node000008"><a xlink:href="../../d8/d36/combo_8h.html" target="_top" xlink:title="the combination of the features header file">
<polygon fill="white" stroke="#666666" points="630,-239 510,-239 510,-220 630,-220 630,-239"/>
<text text-anchor="middle" x="570" y="-227" font-family="Helvetica,sans-Serif" font-size="10.00">rmvl/combo/combo.h</text>
</a>
</g>
</g>
<!-- Node6&#45;&gt;Node8 -->
<g id="edge7_Node000006_Node000008" class="edge">
<title>Node6&#45;&gt;Node8</title>
<g id="a_edge7_Node000006_Node000008"><a xlink:title=" ">
<path fill="none" stroke="#63b8ff" d="M570,-274.75C570,-267.8 570,-257.85 570,-249.13"/>
<polygon fill="#63b8ff" stroke="#63b8ff" points="573.5,-249.09 570,-239.09 566.5,-249.09 573.5,-249.09"/>
</a>
</g>
</g>
<!-- Node9 -->
<g id="Node000009" class="node">
<title>Node9</title>
<g id="a_Node000009"><a xlink:href="../../d3/d7e/camutils_8hpp.html" target="_top" xlink:title=" ">
<polygon fill="white" stroke="#666666" points="340.5,-184 195.5,-184 195.5,-165 340.5,-165 340.5,-184"/>
<text text-anchor="middle" x="268" y="-172" font-family="Helvetica,sans-Serif" font-size="10.00">rmvl/camera/camutils.hpp</text>
</a>
</g>
</g>
<!-- Node8&#45;&gt;Node9 -->
<g id="edge8_Node000008_Node000009" class="edge">
<title>Node8&#45;&gt;Node9</title>
<g id="a_edge8_Node000008_Node000009"><a xlink:title=" ">
<path fill="none" stroke="#63b8ff" d="M521.48,-219.98C468.39,-210.67 383.31,-195.74 326.56,-185.78"/>
<polygon fill="#63b8ff" stroke="#63b8ff" points="327.11,-182.32 316.65,-184.04 325.9,-189.21 327.11,-182.32"/>
</a>
</g>
</g>
<!-- Node11 -->
<g id="Node000011" class="node">
<title>Node11</title>
<g id="a_Node000011"><a xlink:href="../../d4/d78/math_8hpp.html" target="_top" xlink:title="基础数学库">
<polygon fill="white" stroke="#666666" points="564.5,-184 425.5,-184 425.5,-165 564.5,-165 564.5,-184"/>
<text text-anchor="middle" x="495" y="-172" font-family="Helvetica,sans-Serif" font-size="10.00">rmvl/algorithm/math.hpp</text>
</a>
</g>
</g>
<!-- Node8&#45;&gt;Node11 -->
<g id="edge10_Node000008_Node000011" class="edge">
<title>Node8&#45;&gt;Node11</title>
<g id="a_edge10_Node000008_Node000011"><a xlink:title=" ">
<path fill="none" stroke="#63b8ff" d="M557.95,-219.98C546.54,-211.92 529.17,-199.65 515.57,-190.03"/>
<polygon fill="#63b8ff" stroke="#63b8ff" points="517.46,-187.08 507.27,-184.17 513.42,-192.8 517.46,-187.08"/>
</a>
</g>
</g>
<!-- Node21 -->
<g id="Node000021" class="node">
<title>Node21</title>
<g id="a_Node000021"><a xlink:href="../../dd/de3/types_8hpp.html" target="_top" xlink:title="常用状态类型定义">
<polygon fill="white" stroke="#666666" points="882,-129 792,-129 792,-110 882,-110 882,-129"/>
<text text-anchor="middle" x="837" y="-117" font-family="Helvetica,sans-Serif" font-size="10.00">rmvl/types.hpp</text>
</a>
</g>
</g>
<!-- Node8&#45;&gt;Node21 -->
<g id="edge22_Node000008_Node000021" class="edge">
<title>Node8&#45;&gt;Node21</title>
<g id="a_edge22_Node000008_Node000021"><a xlink:title=" ">
<path fill="none" stroke="#63b8ff" d="M603.47,-219.97C633.03,-212 677.06,-199.1 714,-184 749.74,-169.39 789.07,-148.1 813.4,-134.28"/>
<polygon fill="#63b8ff" stroke="#63b8ff" points="815.32,-137.21 822.26,-129.2 811.84,-131.14 815.32,-137.21"/>
</a>
</g>
</g>
<!-- Node22 -->
<g id="Node000022" class="node">
<title>Node22</title>
<g id="a_Node000022"><a xlink:href="../../d5/d60/dataio_8hpp.html" target="_top" xlink:title="陀螺仪数据">
<polygon fill="white" stroke="#666666" points="705,-184 587,-184 587,-165 705,-165 705,-184"/>
<text text-anchor="middle" x="646" y="-172" font-family="Helvetica,sans-Serif" font-size="10.00">rmvl/core/dataio.hpp</text>
</a>
</g>
</g>
<!-- Node8&#45;&gt;Node22 -->
<g id="edge24_Node000008_Node000022" class="edge">
<title>Node8&#45;&gt;Node22</title>
<g id="a_edge24_Node000008_Node000022"><a xlink:title=" ">
<path fill="none" stroke="#63b8ff" d="M582.21,-219.98C593.78,-211.92 611.38,-199.65 625.16,-190.03"/>
<polygon fill="#63b8ff" stroke="#63b8ff" points="627.37,-192.76 633.57,-184.17 623.36,-187.02 627.37,-192.76"/>
</a>
</g>
</g>
<!-- Node25 -->
<g id="Node000025" class="node">
<title>Node25</title>
<g id="a_Node000025"><a xlink:href="../../d2/d74/feature_8h.html" target="_top" xlink:title="feature class header">
<polygon fill="white" stroke="#666666" points="945.5,-184 820.5,-184 820.5,-165 945.5,-165 945.5,-184"/>
<text text-anchor="middle" x="883" y="-172" font-family="Helvetica,sans-Serif" font-size="10.00">rmvl/feature/feature.h</text>
</a>
</g>
</g>
<!-- Node8&#45;&gt;Node25 -->
<g id="edge28_Node000008_Node000025" class="edge">
<title>Node8&#45;&gt;Node25</title>
<g id="a_edge28_Node000008_Node000025"><a xlink:title=" ">
<path fill="none" stroke="#63b8ff" d="M620.29,-219.98C675.42,-210.65 763.85,-195.67 822.68,-185.71"/>
<polygon fill="#63b8ff" stroke="#63b8ff" points="823.3,-189.16 832.58,-184.04 822.13,-182.26 823.3,-189.16"/>
</a>
</g>
</g>
<!-- Node10 -->
<g id="Node000010" class="node">
<title>Node10</title>
<g id="a_Node000010"><a xlink:title=" ">
<polygon fill="#e0e0e0" stroke="#999999" points="252.5,-129 149.5,-129 149.5,-110 252.5,-110 252.5,-129"/>
<text text-anchor="middle" x="201" y="-117" font-family="Helvetica,sans-Serif" font-size="10.00">opencv2/core.hpp</text>
</a>
</g>
</g>
<!-- Node9&#45;&gt;Node10 -->
<g id="edge9_Node000009_Node000010" class="edge">
<title>Node9&#45;&gt;Node10</title>
<g id="a_edge9_Node000009_Node000010"><a xlink:title=" ">
<path fill="none" stroke="#63b8ff" d="M257.24,-164.98C247.23,-157.07 232.11,-145.11 220.07,-135.58"/>
<polygon fill="#63b8ff" stroke="#63b8ff" points="221.97,-132.63 211.96,-129.17 217.63,-138.12 221.97,-132.63"/>
</a>
</g>
</g>
<!-- Node11&#45;&gt;Node4 -->
<g id="edge13_Node000011_Node000004" class="edge">
<title>Node11&#45;&gt;Node4</title>
<g id="a_edge13_Node000011_Node000004"><a xlink:title=" ">
<path fill="none" stroke="#63b8ff" d="M425.2,-165.35C355.8,-157.11 246.01,-143.71 141.85,-129.23"/>
<polygon fill="#63b8ff" stroke="#63b8ff" points="142.18,-125.74 131.79,-127.83 141.21,-132.67 142.18,-125.74"/>
</a>
</g>
</g>
<!-- Node12 -->
<g id="Node000012" class="node">
<title>Node12</title>
<g id="a_Node000012"><a xlink:title=" ">
<polygon fill="#e0e0e0" stroke="#999999" points="466.5,-129 419.5,-129 419.5,-110 466.5,-110 466.5,-129"/>
<text text-anchor="middle" x="443" y="-117" font-family="Helvetica,sans-Serif" font-size="10.00">cmath</text>
</a>
</g>
</g>
<!-- Node11&#45;&gt;Node12 -->
<g id="edge11_Node000011_Node000012" class="edge">
<title>Node11&#45;&gt;Node12</title>
<g id="a_edge11_Node000011_Node000012"><a xlink:title=" ">
<path fill="none" stroke="#63b8ff" d="M486.41,-164.75C478.84,-157.03 467.62,-145.6 458.49,-136.28"/>
<polygon fill="#63b8ff" stroke="#63b8ff" points="460.93,-133.78 451.43,-129.09 455.93,-138.68 460.93,-133.78"/>
</a>
</g>
</g>
<!-- Node13 -->
<g id="Node000013" class="node">
<title>Node13</title>
<g id="a_Node000013"><a xlink:title=" ">
<polygon fill="#e0e0e0" stroke="#999999" points="647.5,-129 600.5,-129 600.5,-110 647.5,-110 647.5,-129"/>
<text text-anchor="middle" x="624" y="-117" font-family="Helvetica,sans-Serif" font-size="10.00">vector</text>
</a>
</g>
</g>
<!-- Node11&#45;&gt;Node13 -->
<g id="edge12_Node000011_Node000013" class="edge">
<title>Node11&#45;&gt;Node13</title>
<g id="a_edge12_Node000011_Node000013"><a xlink:title=" ">
<path fill="none" stroke="#63b8ff" d="M515.73,-164.98C536.76,-156.34 569.55,-142.87 593.54,-133.02"/>
<polygon fill="#63b8ff" stroke="#63b8ff" points="594.98,-136.21 602.9,-129.17 592.32,-129.73 594.98,-136.21"/>
</a>
</g>
</g>
<!-- Node14 -->
<g id="Node000014" class="node">
<title>Node14</title>
<g id="a_Node000014"><a xlink:title=" ">
<polygon fill="#e0e0e0" stroke="#999999" points="582.5,-129 523.5,-129 523.5,-110 582.5,-110 582.5,-129"/>
<text text-anchor="middle" x="553" y="-117" font-family="Helvetica,sans-Serif" font-size="10.00">numbers</text>
</a>
</g>
</g>
<!-- Node11&#45;&gt;Node14 -->
<g id="edge14_Node000011_Node000014" class="edge">
<title>Node11&#45;&gt;Node14</title>
<g id="a_edge14_Node000011_Node000014"><a xlink:title=" ">
<path fill="none" stroke="#63b8ff" d="M504.32,-164.98C512.81,-157.23 525.56,-145.58 535.88,-136.14"/>
<polygon fill="#63b8ff" stroke="#63b8ff" points="538.49,-138.5 543.51,-129.17 533.77,-133.33 538.49,-138.5"/>
</a>
</g>
</g>
<!-- Node15 -->
<g id="Node000015" class="node">
<title>Node15</title>
<g id="a_Node000015"><a xlink:title=" ">
<polygon fill="#e0e0e0" stroke="#999999" points="401.5,-129 270.5,-129 270.5,-110 401.5,-110 401.5,-129"/>
<text text-anchor="middle" x="336" y="-117" font-family="Helvetica,sans-Serif" font-size="10.00">opencv2/core/matx.hpp</text>
</a>
</g>
</g>
<!-- Node11&#45;&gt;Node15 -->
<g id="edge15_Node000011_Node000015" class="edge">
<title>Node11&#45;&gt;Node15</title>
<g id="a_edge15_Node000011_Node000015"><a xlink:title=" ">
<path fill="none" stroke="#63b8ff" d="M469.45,-164.98C442.88,-156.13 401.06,-142.19 371.33,-132.28"/>
<polygon fill="#63b8ff" stroke="#63b8ff" points="372.34,-128.92 361.75,-129.08 370.13,-135.56 372.34,-128.92"/>
</a>
</g>
</g>
<!-- Node16 -->
<g id="Node000016" class="node">
<title>Node16</title>
<g id="a_Node000016"><a xlink:href="../../d0/d3f/util_8hpp.html" target="_top" xlink:title=" ">
<polygon fill="white" stroke="#666666" points="546.5,-74 443.5,-74 443.5,-55 546.5,-55 546.5,-74"/>
<text text-anchor="middle" x="495" y="-62" font-family="Helvetica,sans-Serif" font-size="10.00">rmvl/core/util.hpp</text>
</a>
</g>
</g>
<!-- Node11&#45;&gt;Node16 -->
<g id="edge16_Node000011_Node000016" class="edge">
<title>Node11&#45;&gt;Node16</title>
<g id="a_edge16_Node000011_Node000016"><a xlink:title=" ">
<path fill="none" stroke="#63b8ff" d="M495,-164.66C495,-147.17 495,-107.8 495,-84.27"/>
<polygon fill="#63b8ff" stroke="#63b8ff" points="498.5,-84.16 495,-74.16 491.5,-84.16 498.5,-84.16"/>
</a>
</g>
</g>
<!-- Node16&#45;&gt;Node2 -->
<g id="edge17_Node000016_Node000002" class="edge">
<title>Node16&#45;&gt;Node2</title>
<g id="a_edge17_Node000016_Node000002"><a xlink:title=" ">
<path fill="none" stroke="#63b8ff" d="M443.37,-56.24C377.4,-46.97 262.92,-30.87 188.83,-20.46"/>
<polygon fill="#63b8ff" stroke="#63b8ff" points="189.05,-16.95 178.66,-19.03 188.07,-23.89 189.05,-16.95"/>
</a>
</g>
</g>
<!-- Node17 -->
<g id="Node000017" class="node">
<title>Node17</title>
<g id="a_Node000017"><a xlink:title=" ">
<polygon fill="#e0e0e0" stroke="#999999" points="487,-19 437,-19 437,0 487,0 487,-19"/>
<text text-anchor="middle" x="462" y="-7" font-family="Helvetica,sans-Serif" font-size="10.00">cstdint</text>
</a>
</g>
</g>
<!-- Node16&#45;&gt;Node17 -->
<g id="edge18_Node000016_Node000017" class="edge">
<title>Node16&#45;&gt;Node17</title>
<g id="a_edge18_Node000016_Node000017"><a xlink:title=" ">
<path fill="none" stroke="#63b8ff" d="M489.55,-54.75C484.99,-47.42 478.33,-36.73 472.71,-27.7"/>
<polygon fill="#63b8ff" stroke="#63b8ff" points="475.6,-25.73 467.35,-19.09 469.66,-29.43 475.6,-25.73"/>
</a>
</g>
</g>
<!-- Node18 -->
<g id="Node000018" class="node">
<title>Node18</title>
<g id="a_Node000018"><a xlink:title=" ">
<polygon fill="#e0e0e0" stroke="#999999" points="551,-19 505,-19 505,0 551,0 551,-19"/>
<text text-anchor="middle" x="528" y="-7" font-family="Helvetica,sans-Serif" font-size="10.00">cstdio</text>
</a>
</g>
</g>
<!-- Node16&#45;&gt;Node18 -->
<g id="edge19_Node000016_Node000018" class="edge">
<title>Node16&#45;&gt;Node18</title>
<g id="a_edge19_Node000016_Node000018"><a xlink:title=" ">
<path fill="none" stroke="#63b8ff" d="M500.45,-54.75C505.01,-47.42 511.67,-36.73 517.29,-27.7"/>
<polygon fill="#63b8ff" stroke="#63b8ff" points="520.34,-29.43 522.65,-19.09 514.4,-25.73 520.34,-29.43"/>
</a>
</g>
</g>
<!-- Node19 -->
<g id="Node000019" class="node">
<title>Node19</title>
<g id="a_Node000019"><a xlink:title=" ">
<polygon fill="#e0e0e0" stroke="#999999" points="613,-19 569,-19 569,0 613,0 613,-19"/>
<text text-anchor="middle" x="591" y="-7" font-family="Helvetica,sans-Serif" font-size="10.00">string</text>
</a>
</g>
</g>
<!-- Node16&#45;&gt;Node19 -->
<g id="edge20_Node000016_Node000019" class="edge">
<title>Node16&#45;&gt;Node19</title>
<g id="a_edge20_Node000016_Node000019"><a xlink:title=" ">
<path fill="none" stroke="#63b8ff" d="M510.42,-54.98C525.45,-46.69 548.54,-33.94 566.16,-24.22"/>
<polygon fill="#63b8ff" stroke="#63b8ff" points="568.23,-27.07 575.3,-19.17 564.85,-20.94 568.23,-27.07"/>
</a>
</g>
</g>
<!-- Node20 -->
<g id="Node000020" class="node">
<title>Node20</title>
<g id="a_Node000020"><a xlink:href="../../db/d41/rmvldef_8hpp.html" target="_top" xlink:title=" ">
<polygon fill="white" stroke="#666666" points="418.5,-19 343.5,-19 343.5,0 418.5,0 418.5,-19"/>
<text text-anchor="middle" x="381" y="-7" font-family="Helvetica,sans-Serif" font-size="10.00">rmvldef.hpp</text>
</a>
</g>
</g>
<!-- Node16&#45;&gt;Node20 -->
<g id="edge21_Node000016_Node000020" class="edge">
<title>Node16&#45;&gt;Node20</title>
<g id="a_edge21_Node000016_Node000020"><a xlink:title=" ">
<path fill="none" stroke="#63b8ff" d="M476.68,-54.98C458.34,-46.46 429.89,-33.23 408.77,-23.41"/>
<polygon fill="#63b8ff" stroke="#63b8ff" points="410.19,-20.21 399.65,-19.17 407.24,-26.56 410.19,-20.21"/>
</a>
</g>
</g>
<!-- Node21&#45;&gt;Node16 -->
<g id="edge23_Node000021_Node000016" class="edge">
<title>Node21&#45;&gt;Node16</title>
<g id="a_edge23_Node000021_Node000016"><a xlink:title=" ">
<path fill="none" stroke="#63b8ff" d="M791.92,-111.39C788.9,-110.92 785.91,-110.45 783,-110 704.95,-97.83 614.99,-83.95 556.66,-74.98"/>
<polygon fill="#63b8ff" stroke="#63b8ff" points="556.93,-71.48 546.51,-73.41 555.86,-78.39 556.93,-71.48"/>
</a>
</g>
</g>
<!-- Node22&#45;&gt;Node13 -->
<g id="edge27_Node000022_Node000013" class="edge">
<title>Node22&#45;&gt;Node13</title>
<g id="a_edge27_Node000022_Node000013"><a xlink:title=" ">
<path fill="none" stroke="#63b8ff" d="M642.37,-164.75C639.42,-157.65 635.17,-147.4 631.49,-138.56"/>
<polygon fill="#63b8ff" stroke="#63b8ff" points="634.63,-136.98 627.57,-129.09 628.17,-139.67 634.63,-136.98"/>
</a>
</g>
</g>
<!-- Node23 -->
<g id="Node000023" class="node">
<title>Node23</title>
<g id="a_Node000023"><a xlink:title=" ">
<polygon fill="#e0e0e0" stroke="#999999" points="774,-129 732,-129 732,-110 774,-110 774,-129"/>
<text text-anchor="middle" x="753" y="-117" font-family="Helvetica,sans-Serif" font-size="10.00">array</text>
</a>
</g>
</g>
<!-- Node22&#45;&gt;Node23 -->
<g id="edge25_Node000022_Node000023" class="edge">
<title>Node22&#45;&gt;Node23</title>
<g id="a_edge25_Node000022_Node000023"><a xlink:title=" ">
<path fill="none" stroke="#63b8ff" d="M663.19,-164.98C680.25,-156.54 706.63,-143.47 726.4,-133.68"/>
<polygon fill="#63b8ff" stroke="#63b8ff" points="728.09,-136.75 735.5,-129.17 724.98,-130.47 728.09,-136.75"/>
</a>
</g>
</g>
<!-- Node24 -->
<g id="Node000024" class="node">
<title>Node24</title>
<g id="a_Node000024"><a xlink:title=" ">
<polygon fill="#e0e0e0" stroke="#999999" points="714,-129 666,-129 666,-110 714,-110 714,-129"/>
<text text-anchor="middle" x="690" y="-117" font-family="Helvetica,sans-Serif" font-size="10.00">iosfwd</text>
</a>
</g>
</g>
<!-- Node22&#45;&gt;Node24 -->
<g id="edge26_Node000022_Node000024" class="edge">
<title>Node22&#45;&gt;Node24</title>
<g id="a_edge26_Node000022_Node000024"><a xlink:title=" ">
<path fill="none" stroke="#63b8ff" d="M653.27,-164.75C659.54,-157.18 668.79,-146.05 676.43,-136.84"/>
<polygon fill="#63b8ff" stroke="#63b8ff" points="679.17,-139.02 682.87,-129.09 673.79,-134.55 679.17,-139.02"/>
</a>
</g>
</g>
<!-- Node25&#45;&gt;Node21 -->
<g id="edge31_Node000025_Node000021" class="edge">
<title>Node25&#45;&gt;Node21</title>
<g id="a_edge31_Node000025_Node000021"><a xlink:title=" ">
<path fill="none" stroke="#63b8ff" d="M875.4,-164.75C868.84,-157.18 859.18,-146.05 851.19,-136.84"/>
<polygon fill="#63b8ff" stroke="#63b8ff" points="853.65,-134.35 844.45,-129.09 848.37,-138.94 853.65,-134.35"/>
</a>
</g>
</g>
<!-- Node26 -->
<g id="Node000026" class="node">
<title>Node26</title>
<g id="a_Node000026"><a xlink:title=" ">
<polygon fill="#e0e0e0" stroke="#999999" points="958,-129 900,-129 900,-110 958,-110 958,-129"/>
<text text-anchor="middle" x="929" y="-117" font-family="Helvetica,sans-Serif" font-size="10.00">memory</text>
</a>
</g>
</g>
<!-- Node25&#45;&gt;Node26 -->
<g id="edge29_Node000025_Node000026" class="edge">
<title>Node25&#45;&gt;Node26</title>
<g id="a_edge29_Node000025_Node000026"><a xlink:title=" ">
<path fill="none" stroke="#63b8ff" d="M890.6,-164.75C897.16,-157.18 906.82,-146.05 914.81,-136.84"/>
<polygon fill="#63b8ff" stroke="#63b8ff" points="917.63,-138.94 921.55,-129.09 912.35,-134.35 917.63,-138.94"/>
</a>
</g>
</g>
<!-- Node27 -->
<g id="Node000027" class="node">
<title>Node27</title>
<g id="a_Node000027"><a xlink:title=" ">
<polygon fill="#e0e0e0" stroke="#999999" points="1109.5,-129 976.5,-129 976.5,-110 1109.5,-110 1109.5,-129"/>
<text text-anchor="middle" x="1043" y="-117" font-family="Helvetica,sans-Serif" font-size="10.00">opencv2/core/types.hpp</text>
</a>
</g>
</g>
<!-- Node25&#45;&gt;Node27 -->
<g id="edge30_Node000025_Node000027" class="edge">
<title>Node25&#45;&gt;Node27</title>
<g id="a_edge30_Node000025_Node000027"><a xlink:title=" ">
<path fill="none" stroke="#63b8ff" d="M908.71,-164.98C935.45,-156.13 977.53,-142.19 1007.45,-132.28"/>
<polygon fill="#63b8ff" stroke="#63b8ff" points="1008.7,-135.55 1017.09,-129.08 1006.5,-128.9 1008.7,-135.55"/>
</a>
</g>
</g>
</g>
</svg>
