<?xml version="1.0" encoding="UTF-8" standalone="no"?>
<!DOCTYPE svg PUBLIC "-//W3C//DTD SVG 1.1//EN"
 "http://www.w3.org/Graphics/SVG/1.1/DTD/svg11.dtd">
<!-- Generated by graphviz version 2.43.0 (0)
 -->
<!-- Title: rmvl/predictor.hpp Pages: 1 -->
<!--zoomable 467 -->

<svg id="main" version="1.1" xmlns="http://www.w3.org/2000/svg" xmlns:xlink="http://www.w3.org/1999/xlink" xml:space="preserve" onload="init(evt)">

<style type="text/css"><![CDATA[
.node, .edge {opacity: 0.7;}
.node.selected, .edge.selected {opacity: 1;}
.edge:hover path { stroke: red; }
.edge:hover polygon { stroke: red; fill: red; }
]]></style>

<defs>
  <circle id="rim" cx="0" cy="0" r="7"/>
  <circle id="rim2" cx="0" cy="0" r="3.5"/>
  <g id="zoomPlus">
    <use xlink:href="#rim" fill="#404040"><set attributeName="fill" to="#808080" begin="zoomplus.mouseover" end="zoomplus.mouseout"/></use>
    <path d="M-4,0h8M0,-4v8" fill="none" stroke="white" stroke-width="1.5" pointer-events="none"/>
  </g>
  <g id="zoomMin">
    <use xlink:href="#rim" fill="#404040"><set attributeName="fill" to="#808080" begin="zoomminus.mouseover" end="zoomminus.mouseout"/></use>
    <path d="M-4,0h8" fill="none" stroke="white" stroke-width="1.5" pointer-events="none"/>
  </g>
  <g id="arrowUp" transform="translate(30 24)">
    <use xlink:href="#rim"/>
    <path pointer-events="none" fill="none" stroke="white" stroke-width="1.5" d="M0,-3.0v7 M-2.5,-0.5L0,-3.0L2.5,-0.5"/>
  </g>
  <g id="arrowRight" transform="rotate(90) translate(36 -43)">
    <use xlink:href="#rim"/>
    <path pointer-events="none" fill="none" stroke="white" stroke-width="1.5" d="M0,-3.0v7 M-2.5,-0.5L0,-3.0L2.5,-0.5"/>
  </g>
  <g id="arrowDown" transform="rotate(180) translate(-30 -48)">
    <use xlink:href="#rim"/>
    <path pointer-events="none" fill="none" stroke="white" stroke-width="1.5" d="M0,-3.0v7 M-2.5,-0.5L0,-3.0L2.5,-0.5"/>
  </g>
  <g id="arrowLeft" transform="rotate(270) translate(-36 17)">
    <use xlink:href="#rim"/>
    <path pointer-events="none" fill="none" stroke="white" stroke-width="1.5" d="M0,-3.0v7 M-2.5,-0.5L0,-3.0L2.5,-0.5"/>
  </g>
  <g id="resetDef">
    <use xlink:href="#rim2" fill="#404040"><set attributeName="fill" to="#808080" begin="reset.mouseover" end="reset.mouseout"/></use>
  </g>
</defs>
<script type="application/ecmascript">
var viewWidth = 1231;
var viewHeight = 467;
var sectionId = 'dynsection-0';
</script>
<script type="application/ecmascript" xlink:href="../../svg.min.js"/>
<svg id="graph" class="graph">
<g id="viewport">
<title>rmvl/predictor.hpp</title>
<!-- Node1 -->
<g id="Node000001" class="node">
<title>Node1</title>
<g id="a_Node000001"><a xlink:title=" ">
<polygon fill="#999999" stroke="#666666" points="106,-459 0,-459 0,-440 106,-440 106,-459"/>
<text text-anchor="middle" x="53" y="-447" font-family="Helvetica,sans-Serif" font-size="10.00">rmvl/predictor.hpp</text>
</a>
</g>
</g>
<!-- Node2 -->
<g id="Node000002" class="node">
<title>Node2</title>
<g id="a_Node000002"><a xlink:title=" ">
<polygon fill="#e0e0e0" stroke="#999999" points="294.5,-19 161.5,-19 161.5,0 294.5,0 294.5,-19"/>
<text text-anchor="middle" x="228" y="-7" font-family="Helvetica,sans-Serif" font-size="10.00">rmvl/rmvl_modules.hpp</text>
</a>
</g>
</g>
<!-- Node1&#45;&gt;Node2 -->
<g id="edge1_Node000001_Node000002" class="edge">
<title>Node1&#45;&gt;Node2</title>
<g id="a_edge1_Node000001_Node000002"><a xlink:title=" ">
<path fill="none" stroke="#63b8ff" d="M46.84,-439.73C34.95,-421.92 10,-379.85 10,-340.5 10,-340.5 10,-340.5 10,-118.5 10,-53.55 88.66,-27.66 151.48,-17.34"/>
<polygon fill="#63b8ff" stroke="#63b8ff" points="152.06,-20.79 161.41,-15.81 150.99,-13.87 152.06,-20.79"/>
</a>
</g>
</g>
<!-- Node3 -->
<g id="Node000003" class="node">
<title>Node3</title>
<g id="a_Node000003"><a xlink:href="../../dc/d08/predictor_8h.html" target="_top" xlink:title="抽象预测类头文件">
<polygon fill="white" stroke="#666666" points="153.5,-404 38.5,-404 38.5,-385 153.5,-385 153.5,-404"/>
<text text-anchor="middle" x="96" y="-392" font-family="Helvetica,sans-Serif" font-size="10.00">predictor/predictor.h</text>
</a>
</g>
</g>
<!-- Node1&#45;&gt;Node3 -->
<g id="edge2_Node000001_Node000003" class="edge">
<title>Node1&#45;&gt;Node3</title>
<g id="a_edge2_Node000001_Node000003"><a xlink:title=" ">
<path fill="none" stroke="#63b8ff" d="M60.1,-439.75C66.17,-432.26 75.09,-421.28 82.51,-412.13"/>
<polygon fill="#63b8ff" stroke="#63b8ff" points="85.45,-414.06 89.03,-404.09 80.01,-409.65 85.45,-414.06"/>
</a>
</g>
</g>
<!-- Node4 -->
<g id="Node000004" class="node">
<title>Node4</title>
<g id="a_Node000004"><a xlink:title=" ">
<polygon fill="#e0e0e0" stroke="#999999" points="131.5,-129 38.5,-129 38.5,-110 131.5,-110 131.5,-129"/>
<text text-anchor="middle" x="85" y="-117" font-family="Helvetica,sans-Serif" font-size="10.00">unordered_map</text>
</a>
</g>
</g>
<!-- Node3&#45;&gt;Node4 -->
<g id="edge3_Node000003_Node000004" class="edge">
<title>Node3&#45;&gt;Node4</title>
<g id="a_edge3_Node000003_Node000004"><a xlink:title=" ">
<path fill="none" stroke="#63b8ff" d="M95.19,-384.83C93.55,-366.51 90,-322.49 90,-285.5 90,-285.5 90,-285.5 90,-228.5 90,-197.16 87.87,-160.75 86.39,-139.22"/>
<polygon fill="#63b8ff" stroke="#63b8ff" points="89.88,-138.9 85.67,-129.17 82.9,-139.4 89.88,-138.9"/>
</a>
</g>
</g>
<!-- Node5 -->
<g id="Node000005" class="node">
<title>Node5</title>
<g id="a_Node000005"><a xlink:href="../../d9/dd1/group_8h.html" target="_top" xlink:title="序列组抽象头文件">
<polygon fill="white" stroke="#666666" points="476,-349 366,-349 366,-330 476,-330 476,-349"/>
<text text-anchor="middle" x="421" y="-337" font-family="Helvetica,sans-Serif" font-size="10.00">rmvl/group/group.h</text>
</a>
</g>
</g>
<!-- Node3&#45;&gt;Node5 -->
<g id="edge4_Node000003_Node000005" class="edge">
<title>Node3&#45;&gt;Node5</title>
<g id="a_edge4_Node000003_Node000005"><a xlink:title=" ">
<path fill="none" stroke="#63b8ff" d="M148.22,-384.98C205.58,-375.63 297.67,-360.61 358.74,-350.65"/>
<polygon fill="#63b8ff" stroke="#63b8ff" points="359.34,-354.1 368.64,-349.04 358.21,-347.19 359.34,-354.1"/>
</a>
</g>
</g>
<!-- Node6 -->
<g id="Node000006" class="node">
<title>Node6</title>
<g id="a_Node000006"><a xlink:href="../../dc/ded/tracker_8h.html" target="_top" xlink:title="追踪器抽象头文件">
<polygon fill="white" stroke="#666666" points="789.5,-294 668.5,-294 668.5,-275 789.5,-275 789.5,-294"/>
<text text-anchor="middle" x="729" y="-282" font-family="Helvetica,sans-Serif" font-size="10.00">rmvl/tracker/tracker.h</text>
</a>
</g>
</g>
<!-- Node5&#45;&gt;Node6 -->
<g id="edge5_Node000005_Node000006" class="edge">
<title>Node5&#45;&gt;Node6</title>
<g id="a_edge5_Node000005_Node000006"><a xlink:title=" ">
<path fill="none" stroke="#63b8ff" d="M470.49,-329.98C524.63,-320.67 611.4,-305.74 669.28,-295.78"/>
<polygon fill="#63b8ff" stroke="#63b8ff" points="670.12,-299.18 679.38,-294.04 668.93,-292.28 670.12,-299.18"/>
</a>
</g>
</g>
<!-- Node7 -->
<g id="Node000007" class="node">
<title>Node7</title>
<g id="a_Node000007"><a xlink:title=" ">
<polygon fill="#e0e0e0" stroke="#999999" points="854.5,-239 807.5,-239 807.5,-220 854.5,-220 854.5,-239"/>
<text text-anchor="middle" x="831" y="-227" font-family="Helvetica,sans-Serif" font-size="10.00">deque</text>
</a>
</g>
</g>
<!-- Node6&#45;&gt;Node7 -->
<g id="edge6_Node000006_Node000007" class="edge">
<title>Node6&#45;&gt;Node7</title>
<g id="a_edge6_Node000006_Node000007"><a xlink:title=" ">
<path fill="none" stroke="#63b8ff" d="M745.39,-274.98C761.57,-266.57 786.57,-253.59 805.38,-243.81"/>
<polygon fill="#63b8ff" stroke="#63b8ff" points="807.05,-246.89 814.31,-239.17 803.83,-240.68 807.05,-246.89"/>
</a>
</g>
</g>
<!-- Node8 -->
<g id="Node000008" class="node">
<title>Node8</title>
<g id="a_Node000008"><a xlink:href="../../d8/d36/combo_8h.html" target="_top" xlink:title="the combination of the features header file">
<polygon fill="white" stroke="#666666" points="789,-239 669,-239 669,-220 789,-220 789,-239"/>
<text text-anchor="middle" x="729" y="-227" font-family="Helvetica,sans-Serif" font-size="10.00">rmvl/combo/combo.h</text>
</a>
</g>
</g>
<!-- Node6&#45;&gt;Node8 -->
<g id="edge7_Node000006_Node000008" class="edge">
<title>Node6&#45;&gt;Node8</title>
<g id="a_edge7_Node000006_Node000008"><a xlink:title=" ">
<path fill="none" stroke="#63b8ff" d="M729,-274.75C729,-267.8 729,-257.85 729,-249.13"/>
<polygon fill="#63b8ff" stroke="#63b8ff" points="732.5,-249.09 729,-239.09 725.5,-249.09 732.5,-249.09"/>
</a>
</g>
</g>
<!-- Node9 -->
<g id="Node000009" class="node">
<title>Node9</title>
<g id="a_Node000009"><a xlink:href="../../d3/d7e/camutils_8hpp.html" target="_top" xlink:title=" ">
<polygon fill="white" stroke="#666666" points="1163.5,-184 1018.5,-184 1018.5,-165 1163.5,-165 1163.5,-184"/>
<text text-anchor="middle" x="1091" y="-172" font-family="Helvetica,sans-Serif" font-size="10.00">rmvl/camera/camutils.hpp</text>
</a>
</g>
</g>
<!-- Node8&#45;&gt;Node9 -->
<g id="edge8_Node000008_Node000009" class="edge">
<title>Node8&#45;&gt;Node9</title>
<g id="a_edge8_Node000008_Node000009"><a xlink:title=" ">
<path fill="none" stroke="#63b8ff" d="M787.16,-219.98C851.32,-210.59 954.47,-195.49 1022.49,-185.53"/>
<polygon fill="#63b8ff" stroke="#63b8ff" points="1023.3,-188.95 1032.68,-184.04 1022.28,-182.02 1023.3,-188.95"/>
</a>
</g>
</g>
<!-- Node12 -->
<g id="Node000012" class="node">
<title>Node12</title>
<g id="a_Node000012"><a xlink:href="../../d4/d78/math_8hpp.html" target="_top" xlink:title="基础数学库">
<polygon fill="white" stroke="#666666" points="424.5,-184 285.5,-184 285.5,-165 424.5,-165 424.5,-184"/>
<text text-anchor="middle" x="355" y="-172" font-family="Helvetica,sans-Serif" font-size="10.00">rmvl/algorithm/math.hpp</text>
</a>
</g>
</g>
<!-- Node8&#45;&gt;Node12 -->
<g id="edge11_Node000008_Node000012" class="edge">
<title>Node8&#45;&gt;Node12</title>
<g id="a_edge11_Node000008_Node000012"><a xlink:title=" ">
<path fill="none" stroke="#63b8ff" d="M668.91,-219.98C602.49,-210.57 495.62,-195.43 425.34,-185.47"/>
<polygon fill="#63b8ff" stroke="#63b8ff" points="425.64,-181.98 415.25,-184.04 424.66,-188.91 425.64,-181.98"/>
</a>
</g>
</g>
<!-- Node21 -->
<g id="Node000021" class="node">
<title>Node21</title>
<g id="a_Node000021"><a xlink:href="../../dd/de3/types_8hpp.html" target="_top" xlink:title="常用状态类型定义">
<polygon fill="white" stroke="#666666" points="1063,-129 973,-129 973,-110 1063,-110 1063,-129"/>
<text text-anchor="middle" x="1018" y="-117" font-family="Helvetica,sans-Serif" font-size="10.00">rmvl/types.hpp</text>
</a>
</g>
</g>
<!-- Node8&#45;&gt;Node21 -->
<g id="edge23_Node000008_Node000021" class="edge">
<title>Node8&#45;&gt;Node21</title>
<g id="a_edge23_Node000008_Node000021"><a xlink:title=" ">
<path fill="none" stroke="#63b8ff" d="M768.9,-219.97C802.35,-212.26 851.06,-199.72 892,-184 929.11,-169.75 969.8,-148.05 994.62,-134.07"/>
<polygon fill="#63b8ff" stroke="#63b8ff" points="996.35,-137.11 1003.31,-129.13 992.89,-131.03 996.35,-137.11"/>
</a>
</g>
</g>
<!-- Node22 -->
<g id="Node000022" class="node">
<title>Node22</title>
<g id="a_Node000022"><a xlink:href="../../d2/dc6/io_8hpp.html" target="_top" xlink:title="陀螺仪数据">
<polygon fill="white" stroke="#666666" points="713,-184 617,-184 617,-165 713,-165 713,-184"/>
<text text-anchor="middle" x="665" y="-172" font-family="Helvetica,sans-Serif" font-size="10.00">rmvl/core/io.hpp</text>
</a>
</g>
</g>
<!-- Node8&#45;&gt;Node22 -->
<g id="edge25_Node000008_Node000022" class="edge">
<title>Node8&#45;&gt;Node22</title>
<g id="a_edge25_Node000008_Node000022"><a xlink:title=" ">
<path fill="none" stroke="#63b8ff" d="M718.72,-219.98C709.16,-212.07 694.72,-200.11 683.22,-190.58"/>
<polygon fill="#63b8ff" stroke="#63b8ff" points="685.4,-187.85 675.47,-184.17 680.94,-193.24 685.4,-187.85"/>
</a>
</g>
</g>
<!-- Node26 -->
<g id="Node000026" class="node">
<title>Node26</title>
<g id="a_Node000026"><a xlink:href="../../d2/d74/feature_8h.html" target="_top" xlink:title="feature class header">
<polygon fill="white" stroke="#666666" points="882.5,-184 757.5,-184 757.5,-165 882.5,-165 882.5,-184"/>
<text text-anchor="middle" x="820" y="-172" font-family="Helvetica,sans-Serif" font-size="10.00">rmvl/feature/feature.h</text>
</a>
</g>
</g>
<!-- Node8&#45;&gt;Node26 -->
<g id="edge32_Node000008_Node000026" class="edge">
<title>Node8&#45;&gt;Node26</title>
<g id="a_edge32_Node000008_Node000026"><a xlink:title=" ">
<path fill="none" stroke="#63b8ff" d="M743.62,-219.98C757.86,-211.69 779.75,-198.94 796.45,-189.22"/>
<polygon fill="#63b8ff" stroke="#63b8ff" points="798.23,-192.23 805.11,-184.17 794.71,-186.18 798.23,-192.23"/>
</a>
</g>
</g>
<!-- Node10 -->
<g id="Node000010" class="node">
<title>Node10</title>
<g id="a_Node000010"><a xlink:title=" ">
<polygon fill="#e0e0e0" stroke="#999999" points="1222.5,-129 1119.5,-129 1119.5,-110 1222.5,-110 1222.5,-129"/>
<text text-anchor="middle" x="1171" y="-117" font-family="Helvetica,sans-Serif" font-size="10.00">opencv2/core.hpp</text>
</a>
</g>
</g>
<!-- Node9&#45;&gt;Node10 -->
<g id="edge9_Node000009_Node000010" class="edge">
<title>Node9&#45;&gt;Node10</title>
<g id="a_edge9_Node000009_Node000010"><a xlink:title=" ">
<path fill="none" stroke="#63b8ff" d="M1103.85,-164.98C1116.14,-156.84 1134.91,-144.41 1149.48,-134.76"/>
<polygon fill="#63b8ff" stroke="#63b8ff" points="1151.51,-137.61 1157.91,-129.17 1147.64,-131.78 1151.51,-137.61"/>
</a>
</g>
</g>
<!-- Node11 -->
<g id="Node000011" class="node">
<title>Node11</title>
<g id="a_Node000011"><a xlink:href="../../db/d41/rmvldef_8hpp.html" target="_top" xlink:title=" ">
<polygon fill="white" stroke="#666666" points="850.5,-19 725.5,-19 725.5,0 850.5,0 850.5,-19"/>
<text text-anchor="middle" x="788" y="-7" font-family="Helvetica,sans-Serif" font-size="10.00">rmvl/core/rmvldef.hpp</text>
</a>
</g>
</g>
<!-- Node9&#45;&gt;Node11 -->
<g id="edge10_Node000009_Node000011" class="edge">
<title>Node9&#45;&gt;Node11</title>
<g id="a_edge10_Node000009_Node000011"><a xlink:title=" ">
<path fill="none" stroke="#63b8ff" d="M1090.81,-164.89C1090.04,-151.42 1086.62,-125.31 1072,-110 1016.35,-51.72 924.66,-27.54 860.56,-17.54"/>
<polygon fill="#63b8ff" stroke="#63b8ff" points="860.92,-14.05 850.52,-16.05 859.9,-20.98 860.92,-14.05"/>
</a>
</g>
</g>
<!-- Node12&#45;&gt;Node4 -->
<g id="edge14_Node000012_Node000004" class="edge">
<title>Node12&#45;&gt;Node4</title>
<g id="a_edge14_Node000012_Node000004"><a xlink:title=" ">
<path fill="none" stroke="#63b8ff" d="M311.62,-164.98C264.62,-155.76 189.57,-141.03 138.84,-131.07"/>
<polygon fill="#63b8ff" stroke="#63b8ff" points="139.21,-127.57 128.72,-129.08 137.86,-134.44 139.21,-127.57"/>
</a>
</g>
</g>
<!-- Node13 -->
<g id="Node000013" class="node">
<title>Node13</title>
<g id="a_Node000013"><a xlink:title=" ">
<polygon fill="#e0e0e0" stroke="#999999" points="196.5,-129 149.5,-129 149.5,-110 196.5,-110 196.5,-129"/>
<text text-anchor="middle" x="173" y="-117" font-family="Helvetica,sans-Serif" font-size="10.00">cmath</text>
</a>
</g>
</g>
<!-- Node12&#45;&gt;Node13 -->
<g id="edge12_Node000012_Node000013" class="edge">
<title>Node12&#45;&gt;Node13</title>
<g id="a_edge12_Node000012_Node000013"><a xlink:title=" ">
<path fill="none" stroke="#63b8ff" d="M325.76,-164.98C293.25,-155.52 240.83,-140.25 206.64,-130.3"/>
<polygon fill="#63b8ff" stroke="#63b8ff" points="207.24,-126.83 196.66,-127.39 205.28,-133.55 207.24,-126.83"/>
</a>
</g>
</g>
<!-- Node14 -->
<g id="Node000014" class="node">
<title>Node14</title>
<g id="a_Node000014"><a xlink:title=" ">
<polygon fill="#e0e0e0" stroke="#999999" points="271,-129 215,-129 215,-110 271,-110 271,-129"/>
<text text-anchor="middle" x="243" y="-117" font-family="Helvetica,sans-Serif" font-size="10.00">numeric</text>
</a>
</g>
</g>
<!-- Node12&#45;&gt;Node14 -->
<g id="edge13_Node000012_Node000014" class="edge">
<title>Node12&#45;&gt;Node14</title>
<g id="a_edge13_Node000012_Node000014"><a xlink:title=" ">
<path fill="none" stroke="#63b8ff" d="M337.01,-164.98C319.07,-156.5 291.28,-143.35 270.57,-133.54"/>
<polygon fill="#63b8ff" stroke="#63b8ff" points="271.86,-130.28 261.32,-129.17 268.86,-136.61 271.86,-130.28"/>
</a>
</g>
</g>
<!-- Node15 -->
<g id="Node000015" class="node">
<title>Node15</title>
<g id="a_Node000015"><a xlink:title=" ">
<polygon fill="#e0e0e0" stroke="#999999" points="524.5,-129 477.5,-129 477.5,-110 524.5,-110 524.5,-129"/>
<text text-anchor="middle" x="501" y="-117" font-family="Helvetica,sans-Serif" font-size="10.00">vector</text>
</a>
</g>
</g>
<!-- Node12&#45;&gt;Node15 -->
<g id="edge15_Node000012_Node000015" class="edge">
<title>Node12&#45;&gt;Node15</title>
<g id="a_edge15_Node000012_Node000015"><a xlink:title=" ">
<path fill="none" stroke="#63b8ff" d="M378.46,-164.98C402.58,-156.23 440.37,-142.51 467.6,-132.62"/>
<polygon fill="#63b8ff" stroke="#63b8ff" points="468.91,-135.87 477.12,-129.17 466.52,-129.29 468.91,-135.87"/>
</a>
</g>
</g>
<!-- Node16 -->
<g id="Node000016" class="node">
<title>Node16</title>
<g id="a_Node000016"><a xlink:title=" ">
<polygon fill="#e0e0e0" stroke="#999999" points="420.5,-129 289.5,-129 289.5,-110 420.5,-110 420.5,-129"/>
<text text-anchor="middle" x="355" y="-117" font-family="Helvetica,sans-Serif" font-size="10.00">opencv2/core/matx.hpp</text>
</a>
</g>
</g>
<!-- Node12&#45;&gt;Node16 -->
<g id="edge16_Node000012_Node000016" class="edge">
<title>Node12&#45;&gt;Node16</title>
<g id="a_edge16_Node000012_Node000016"><a xlink:title=" ">
<path fill="none" stroke="#63b8ff" d="M355,-164.75C355,-157.8 355,-147.85 355,-139.13"/>
<polygon fill="#63b8ff" stroke="#63b8ff" points="358.5,-139.09 355,-129.09 351.5,-139.09 358.5,-139.09"/>
</a>
</g>
</g>
<!-- Node17 -->
<g id="Node000017" class="node">
<title>Node17</title>
<g id="a_Node000017"><a xlink:href="../../d0/d3f/util_8hpp.html" target="_top" xlink:title=" ">
<polygon fill="white" stroke="#666666" points="684.5,-74 581.5,-74 581.5,-55 684.5,-55 684.5,-74"/>
<text text-anchor="middle" x="633" y="-62" font-family="Helvetica,sans-Serif" font-size="10.00">rmvl/core/util.hpp</text>
</a>
</g>
</g>
<!-- Node12&#45;&gt;Node17 -->
<g id="edge17_Node000012_Node000017" class="edge">
<title>Node12&#45;&gt;Node17</title>
<g id="a_edge17_Node000012_Node000017"><a xlink:title=" ">
<path fill="none" stroke="#63b8ff" d="M369.31,-164.87C394.99,-149.47 448.1,-118.12 468,-110 504.34,-95.16 547.19,-83.77 580.12,-76.23"/>
<polygon fill="#63b8ff" stroke="#63b8ff" points="581.01,-79.62 590,-74.02 579.48,-72.79 581.01,-79.62"/>
</a>
</g>
</g>
<!-- Node17&#45;&gt;Node2 -->
<g id="edge18_Node000017_Node000002" class="edge">
<title>Node17&#45;&gt;Node2</title>
<g id="a_edge18_Node000017_Node000002"><a xlink:title=" ">
<path fill="none" stroke="#63b8ff" d="M581.3,-56.73C510.84,-47.51 384.22,-30.94 303.24,-20.35"/>
<polygon fill="#63b8ff" stroke="#63b8ff" points="303.48,-16.85 293.11,-19.02 302.57,-23.79 303.48,-16.85"/>
</a>
</g>
</g>
<!-- Node17&#45;&gt;Node11 -->
<g id="edge22_Node000017_Node000011" class="edge">
<title>Node17&#45;&gt;Node11</title>
<g id="a_edge22_Node000017_Node000011"><a xlink:title=" ">
<path fill="none" stroke="#63b8ff" d="M657.9,-54.98C683.7,-46.16 724.22,-32.31 753.18,-22.41"/>
<polygon fill="#63b8ff" stroke="#63b8ff" points="754.57,-25.63 762.9,-19.08 752.31,-19.01 754.57,-25.63"/>
</a>
</g>
</g>
<!-- Node18 -->
<g id="Node000018" class="node">
<title>Node18</title>
<g id="a_Node000018"><a xlink:title=" ">
<polygon fill="#e0e0e0" stroke="#999999" points="707,-19 657,-19 657,0 707,0 707,-19"/>
<text text-anchor="middle" x="682" y="-7" font-family="Helvetica,sans-Serif" font-size="10.00">cstdint</text>
</a>
</g>
</g>
<!-- Node17&#45;&gt;Node18 -->
<g id="edge19_Node000017_Node000018" class="edge">
<title>Node17&#45;&gt;Node18</title>
<g id="a_edge19_Node000017_Node000018"><a xlink:title=" ">
<path fill="none" stroke="#63b8ff" d="M641.09,-54.75C648.16,-47.11 658.59,-35.82 667.15,-26.56"/>
<polygon fill="#63b8ff" stroke="#63b8ff" points="669.84,-28.81 674.06,-19.09 664.7,-24.06 669.84,-28.81"/>
</a>
</g>
</g>
<!-- Node19 -->
<g id="Node000019" class="node">
<title>Node19</title>
<g id="a_Node000019"><a xlink:title=" ">
<polygon fill="#e0e0e0" stroke="#999999" points="639,-19 593,-19 593,0 639,0 639,-19"/>
<text text-anchor="middle" x="616" y="-7" font-family="Helvetica,sans-Serif" font-size="10.00">cstdio</text>
</a>
</g>
</g>
<!-- Node17&#45;&gt;Node19 -->
<g id="edge20_Node000017_Node000019" class="edge">
<title>Node17&#45;&gt;Node19</title>
<g id="a_edge20_Node000017_Node000019"><a xlink:title=" ">
<path fill="none" stroke="#63b8ff" d="M630.19,-54.75C627.94,-47.72 624.7,-37.62 621.88,-28.84"/>
<polygon fill="#63b8ff" stroke="#63b8ff" points="625.14,-27.54 618.75,-19.09 618.48,-29.68 625.14,-27.54"/>
</a>
</g>
</g>
<!-- Node20 -->
<g id="Node000020" class="node">
<title>Node20</title>
<g id="a_Node000020"><a xlink:title=" ">
<polygon fill="#e0e0e0" stroke="#999999" points="575,-19 531,-19 531,0 575,0 575,-19"/>
<text text-anchor="middle" x="553" y="-7" font-family="Helvetica,sans-Serif" font-size="10.00">string</text>
</a>
</g>
</g>
<!-- Node17&#45;&gt;Node20 -->
<g id="edge21_Node000017_Node000020" class="edge">
<title>Node17&#45;&gt;Node20</title>
<g id="a_edge21_Node000017_Node000020"><a xlink:title=" ">
<path fill="none" stroke="#63b8ff" d="M620.15,-54.98C607.86,-46.84 589.09,-34.41 574.52,-24.76"/>
<polygon fill="#63b8ff" stroke="#63b8ff" points="576.36,-21.78 566.09,-19.17 572.49,-27.61 576.36,-21.78"/>
</a>
</g>
</g>
<!-- Node21&#45;&gt;Node17 -->
<g id="edge24_Node000021_Node000017" class="edge">
<title>Node21&#45;&gt;Node17</title>
<g id="a_edge24_Node000021_Node000017"><a xlink:title=" ">
<path fill="none" stroke="#63b8ff" d="M972.93,-111.33C969.91,-110.87 966.91,-110.42 964,-110 870.33,-96.33 761.51,-82 694.96,-73.41"/>
<polygon fill="#63b8ff" stroke="#63b8ff" points="695.02,-69.89 684.65,-72.08 694.12,-76.83 695.02,-69.89"/>
</a>
</g>
</g>
<!-- Node22&#45;&gt;Node11 -->
<g id="edge31_Node000022_Node000011" class="edge">
<title>Node22&#45;&gt;Node11</title>
<g id="a_edge31_Node000022_Node000011"><a xlink:title=" ">
<path fill="none" stroke="#63b8ff" d="M671.61,-164.74C691.22,-138.76 749.27,-61.83 775.22,-27.44"/>
<polygon fill="#63b8ff" stroke="#63b8ff" points="778.12,-29.4 781.35,-19.31 772.54,-25.18 778.12,-29.4"/>
</a>
</g>
</g>
<!-- Node22&#45;&gt;Node15 -->
<g id="edge30_Node000022_Node000015" class="edge">
<title>Node22&#45;&gt;Node15</title>
<g id="a_edge30_Node000022_Node000015"><a xlink:title=" ">
<path fill="none" stroke="#63b8ff" d="M638.65,-164.98C610.34,-155.84 565.28,-141.27 534.48,-131.32"/>
<polygon fill="#63b8ff" stroke="#63b8ff" points="535.21,-127.88 524.62,-128.13 533.06,-134.54 535.21,-127.88"/>
</a>
</g>
</g>
<!-- Node22&#45;&gt;Node20 -->
<g id="edge29_Node000022_Node000020" class="edge">
<title>Node22&#45;&gt;Node20</title>
<g id="a_edge29_Node000022_Node000020"><a xlink:title=" ">
<path fill="none" stroke="#63b8ff" d="M628.32,-164.86C608.6,-158.3 585.61,-147.21 572,-129 550.04,-99.62 549.3,-54.61 550.98,-29.36"/>
<polygon fill="#63b8ff" stroke="#63b8ff" points="554.47,-29.54 551.85,-19.28 547.5,-28.94 554.47,-29.54"/>
</a>
</g>
</g>
<!-- Node23 -->
<g id="Node000023" class="node">
<title>Node23</title>
<g id="a_Node000023"><a xlink:title=" ">
<polygon fill="#e0e0e0" stroke="#999999" points="623,-129 581,-129 581,-110 623,-110 623,-129"/>
<text text-anchor="middle" x="602" y="-117" font-family="Helvetica,sans-Serif" font-size="10.00">array</text>
</a>
</g>
</g>
<!-- Node22&#45;&gt;Node23 -->
<g id="edge26_Node000022_Node000023" class="edge">
<title>Node22&#45;&gt;Node23</title>
<g id="a_edge26_Node000022_Node000023"><a xlink:title=" ">
<path fill="none" stroke="#63b8ff" d="M654.88,-164.98C645.56,-157.15 631.53,-145.34 620.26,-135.86"/>
<polygon fill="#63b8ff" stroke="#63b8ff" points="622.21,-132.93 612.31,-129.17 617.71,-138.29 622.21,-132.93"/>
</a>
</g>
</g>
<!-- Node24 -->
<g id="Node000024" class="node">
<title>Node24</title>
<g id="a_Node000024"><a xlink:title=" ">
<polygon fill="#e0e0e0" stroke="#999999" points="689,-129 641,-129 641,-110 689,-110 689,-129"/>
<text text-anchor="middle" x="665" y="-117" font-family="Helvetica,sans-Serif" font-size="10.00">iosfwd</text>
</a>
</g>
</g>
<!-- Node22&#45;&gt;Node24 -->
<g id="edge27_Node000022_Node000024" class="edge">
<title>Node22&#45;&gt;Node24</title>
<g id="a_edge27_Node000022_Node000024"><a xlink:title=" ">
<path fill="none" stroke="#63b8ff" d="M665,-164.75C665,-157.8 665,-147.85 665,-139.13"/>
<polygon fill="#63b8ff" stroke="#63b8ff" points="668.5,-139.09 665,-129.09 661.5,-139.09 668.5,-139.09"/>
</a>
</g>
</g>
<!-- Node25 -->
<g id="Node000025" class="node">
<title>Node25</title>
<g id="a_Node000025"><a xlink:title=" ">
<polygon fill="#e0e0e0" stroke="#999999" points="803,-129 745,-129 745,-110 803,-110 803,-129"/>
<text text-anchor="middle" x="774" y="-117" font-family="Helvetica,sans-Serif" font-size="10.00">memory</text>
</a>
</g>
</g>
<!-- Node22&#45;&gt;Node25 -->
<g id="edge28_Node000022_Node000025" class="edge">
<title>Node22&#45;&gt;Node25</title>
<g id="a_edge28_Node000022_Node000025"><a xlink:title=" ">
<path fill="none" stroke="#63b8ff" d="M682.51,-164.98C699.97,-156.5 727.01,-143.35 747.17,-133.54"/>
<polygon fill="#63b8ff" stroke="#63b8ff" points="748.71,-136.69 756.17,-129.17 745.64,-130.4 748.71,-136.69"/>
</a>
</g>
</g>
<!-- Node26&#45;&gt;Node21 -->
<g id="edge35_Node000026_Node000021" class="edge">
<title>Node26&#45;&gt;Node21</title>
<g id="a_edge35_Node000026_Node000021"><a xlink:title=" ">
<path fill="none" stroke="#63b8ff" d="M851.81,-164.98C885.49,-155.97 938.8,-141.7 975.92,-131.76"/>
<polygon fill="#63b8ff" stroke="#63b8ff" points="977.18,-135.05 985.94,-129.08 975.37,-128.29 977.18,-135.05"/>
</a>
</g>
</g>
<!-- Node26&#45;&gt;Node25 -->
<g id="edge33_Node000026_Node000025" class="edge">
<title>Node26&#45;&gt;Node25</title>
<g id="a_edge33_Node000026_Node000025"><a xlink:title=" ">
<path fill="none" stroke="#63b8ff" d="M812.4,-164.75C805.84,-157.18 796.18,-146.05 788.19,-136.84"/>
<polygon fill="#63b8ff" stroke="#63b8ff" points="790.65,-134.35 781.45,-129.09 785.37,-138.94 790.65,-134.35"/>
</a>
</g>
</g>
<!-- Node27 -->
<g id="Node000027" class="node">
<title>Node27</title>
<g id="a_Node000027"><a xlink:title=" ">
<polygon fill="#e0e0e0" stroke="#999999" points="954.5,-129 821.5,-129 821.5,-110 954.5,-110 954.5,-129"/>
<text text-anchor="middle" x="888" y="-117" font-family="Helvetica,sans-Serif" font-size="10.00">opencv2/core/types.hpp</text>
</a>
</g>
</g>
<!-- Node26&#45;&gt;Node27 -->
<g id="edge34_Node000026_Node000027" class="edge">
<title>Node26&#45;&gt;Node27</title>
<g id="a_edge34_Node000026_Node000027"><a xlink:title=" ">
<path fill="none" stroke="#63b8ff" d="M830.93,-164.98C841.08,-157.07 856.42,-145.11 868.65,-135.58"/>
<polygon fill="#63b8ff" stroke="#63b8ff" points="871.14,-138.08 876.88,-129.17 866.84,-132.56 871.14,-138.08"/>
</a>
</g>
</g>
</g>
</svg>

<g id="navigator" transform="translate(0 0)" fill="#404254">
  <rect fill="#f2f5e9" fill-opacity="0.5" stroke="#606060" stroke-width=".5" x="0" y="0" width="60" height="60"/>
  <use id="zoomplus" xlink:href="#zoomPlus" x="17" y="9" onmousedown="handleZoom(evt,'in')"/>
  <use id="zoomminus" xlink:href="#zoomMin" x="42" y="9" onmousedown="handleZoom(evt,'out')"/>
  <use id="reset" xlink:href="#resetDef" x="30" y="36" onmousedown="handleReset()"/>
   <use id="arrowup" xlink:href="#arrowUp" x="0" y="0" onmousedown="handlePan(0,-1)"/>
  <use id="arrowright" xlink:href="#arrowRight" x="0" y="0" onmousedown="handlePan(1,0)"/>
  <use id="arrowdown" xlink:href="#arrowDown" x="0" y="0" onmousedown="handlePan(0,1)"/>
  <use id="arrowleft" xlink:href="#arrowLeft" x="0" y="0" onmousedown="handlePan(-1,0)"/>
</g>
<svg viewBox="0 0 15 15" width="100%" height="30px" preserveAspectRatio="xMaxYMin meet">
 <g id="arrow_out" transform="scale(0.3 0.3)">
  <a xlink:href="rmvl_2predictor_8hpp__incl_org.svg" target="_base">
   <rect id="button" ry="5" rx="5" y="6" x="6" height="38" width="38"
        fill="#f2f5e9" fill-opacity="0.5" stroke="#606060" stroke-width="1.0"/>
   <path id="arrow"
     d="M 11.500037,31.436501 C 11.940474,20.09759 22.043105,11.32322 32.158766,21.979434 L 37.068811,17.246167 C 37.068811,17.246167 37.088388,32 37.088388,32 L 22.160133,31.978069 C 22.160133,31.978069 26.997745,27.140456 26.997745,27.140456 C 18.528582,18.264221 13.291696,25.230495 11.500037,31.436501 z"
     style="fill:#404040;"/>
  </a>
 </g>
</svg>

<style type='text/css'>
<![CDATA[
[data-mouse-over-selected='false'] { opacity: 0.7; }
[data-mouse-over-selected='true']  { opacity: 1.0; }
]]>
</style>
<script type="application/ecmascript"><![CDATA[
document.addEventListener('DOMContentLoaded', (event) => {
  highlightEdges();
  highlightAdjacentNodes();
});
]]></script>
</svg>
