<?xml version="1.0" encoding="UTF-8" standalone="no"?>
<!DOCTYPE svg PUBLIC "-//W3C//DTD SVG 1.1//EN"
 "http://www.w3.org/Graphics/SVG/1.1/DTD/svg11.dtd">
<!-- Generated by graphviz version 2.43.0 (0)
 -->
<!-- Title: rmvl/predictor.hpp Pages: 1 -->
<!--zoomable 412 -->

<svg id="main" version="1.1" xmlns="http://www.w3.org/2000/svg" xmlns:xlink="http://www.w3.org/1999/xlink" xml:space="preserve" onload="init(evt)">

<style type="text/css"><![CDATA[
.node, .edge {opacity: 0.7;}
.node.selected, .edge.selected {opacity: 1;}
.edge:hover path { stroke: red; }
.edge:hover polygon { stroke: red; fill: red; }
]]></style>

<defs>
  <circle id="rim" cx="0" cy="0" r="7"/>
  <circle id="rim2" cx="0" cy="0" r="3.5"/>
  <g id="zoomPlus">
    <use xlink:href="#rim" fill="#404040"><set attributeName="fill" to="#808080" begin="zoomplus.mouseover" end="zoomplus.mouseout"/></use>
    <path d="M-4,0h8M0,-4v8" fill="none" stroke="white" stroke-width="1.5" pointer-events="none"/>
  </g>
  <g id="zoomMin">
    <use xlink:href="#rim" fill="#404040"><set attributeName="fill" to="#808080" begin="zoomminus.mouseover" end="zoomminus.mouseout"/></use>
    <path d="M-4,0h8" fill="none" stroke="white" stroke-width="1.5" pointer-events="none"/>
  </g>
  <g id="arrowUp" transform="translate(30 24)">
    <use xlink:href="#rim"/>
    <path pointer-events="none" fill="none" stroke="white" stroke-width="1.5" d="M0,-3.0v7 M-2.5,-0.5L0,-3.0L2.5,-0.5"/>
  </g>
  <g id="arrowRight" transform="rotate(90) translate(36 -43)">
    <use xlink:href="#rim"/>
    <path pointer-events="none" fill="none" stroke="white" stroke-width="1.5" d="M0,-3.0v7 M-2.5,-0.5L0,-3.0L2.5,-0.5"/>
  </g>
  <g id="arrowDown" transform="rotate(180) translate(-30 -48)">
    <use xlink:href="#rim"/>
    <path pointer-events="none" fill="none" stroke="white" stroke-width="1.5" d="M0,-3.0v7 M-2.5,-0.5L0,-3.0L2.5,-0.5"/>
  </g>
  <g id="arrowLeft" transform="rotate(270) translate(-36 17)">
    <use xlink:href="#rim"/>
    <path pointer-events="none" fill="none" stroke="white" stroke-width="1.5" d="M0,-3.0v7 M-2.5,-0.5L0,-3.0L2.5,-0.5"/>
  </g>
  <g id="resetDef">
    <use xlink:href="#rim2" fill="#404040"><set attributeName="fill" to="#808080" begin="reset.mouseover" end="reset.mouseout"/></use>
  </g>
</defs>
<script type="application/ecmascript">
var viewWidth = 1326;
var viewHeight = 412;
var sectionId = 'dynsection-0';
</script>
<script type="application/ecmascript" xlink:href="../../svg.min.js"/>
<svg id="graph" class="graph">
<g id="viewport">
<title>rmvl/predictor.hpp</title>
<!-- Node1 -->
<g id="Node000001" class="node">
<title>Node1</title>
<g id="a_Node000001"><a xlink:title=" ">
<polygon fill="#999999" stroke="#666666" points="273.7,-404 179.7,-404 179.7,-385 273.7,-385 273.7,-404"/>
<text text-anchor="middle" x="226.7" y="-392" font-family="Helvetica,sans-Serif" font-size="10.00">rmvl/predictor.hpp</text>
</a>
</g>
</g>
<!-- Node2 -->
<g id="Node000002" class="node">
<title>Node2</title>
<g id="a_Node000002"><a xlink:title=" ">
<polygon fill="#e0e0e0" stroke="#999999" points="304.7,-19 186.7,-19 186.7,0 304.7,0 304.7,-19"/>
<text text-anchor="middle" x="245.7" y="-7" font-family="Helvetica,sans-Serif" font-size="10.00">rmvl/rmvl_modules.hpp</text>
</a>
</g>
</g>
<!-- Node1&#45;&gt;Node2 -->
<g id="edge1_Node000001_Node000002" class="edge">
<title>Node1&#45;&gt;Node2</title>
<g id="a_edge1_Node000001_Node000002"><a xlink:title=" ">
<path fill="none" stroke="#63b8ff" d="M179.6,-391.37C113.37,-385.55 0.7,-364.1 0.7,-285.5 0.7,-285.5 0.7,-285.5 0.7,-118.5 0.7,-89.04 -2.11,-74.8 19.7,-55 42.36,-34.43 118.71,-22.55 176.45,-16.32"/>
<polygon fill="#63b8ff" stroke="#63b8ff" points="177.05,-19.78 186.64,-15.26 176.33,-12.81 177.05,-19.78"/>
</a>
</g>
</g>
<!-- Node3 -->
<g id="Node000003" class="node">
<title>Node3</title>
<g id="a_Node000003"><a xlink:href="../../dc/d08/predictor_8h.html" target="_top" xlink:title="抽象预测类头文件">
<polygon fill="white" stroke="#666666" points="557.7,-349 455.7,-349 455.7,-330 557.7,-330 557.7,-349"/>
<text text-anchor="middle" x="506.7" y="-337" font-family="Helvetica,sans-Serif" font-size="10.00">predictor/predictor.h</text>
</a>
</g>
</g>
<!-- Node1&#45;&gt;Node3 -->
<g id="edge2_Node000001_Node000003" class="edge">
<title>Node1&#45;&gt;Node3</title>
<g id="a_edge2_Node000001_Node000003"><a xlink:title=" ">
<path fill="none" stroke="#63b8ff" d="M271.69,-384.98C320.63,-375.72 398.91,-360.9 451.52,-350.94"/>
<polygon fill="#63b8ff" stroke="#63b8ff" points="452.19,-354.38 461.36,-349.08 450.89,-347.5 452.19,-354.38"/>
</a>
</g>
</g>
<!-- Node4 -->
<g id="Node000004" class="node">
<title>Node4</title>
<g id="a_Node000004"><a xlink:title=" ">
<polygon fill="#e0e0e0" stroke="#999999" points="1318.2,-19 1235.2,-19 1235.2,0 1318.2,0 1318.2,-19"/>
<text text-anchor="middle" x="1276.7" y="-7" font-family="Helvetica,sans-Serif" font-size="10.00">unordered_map</text>
</a>
</g>
</g>
<!-- Node3&#45;&gt;Node4 -->
<g id="edge3_Node000003_Node000004" class="edge">
<title>Node3&#45;&gt;Node4</title>
<g id="a_edge3_Node000003_Node000004"><a xlink:title=" ">
<path fill="none" stroke="#63b8ff" d="M557.86,-337.07C735.47,-331.44 1314.7,-307.19 1314.7,-230.5 1314.7,-230.5 1314.7,-230.5 1314.7,-118.5 1314.7,-85.02 1298.25,-48.84 1287,-28.01"/>
<polygon fill="#63b8ff" stroke="#63b8ff" points="1289.94,-26.1 1281.99,-19.1 1283.84,-29.53 1289.94,-26.1"/>
</a>
</g>
</g>
<!-- Node5 -->
<g id="Node000005" class="node">
<title>Node5</title>
<g id="a_Node000005"><a xlink:href="../../d9/dd1/group_8h.html" target="_top" xlink:title="序列组抽象头文件">
<polygon fill="white" stroke="#666666" points="555.7,-294 457.7,-294 457.7,-275 555.7,-275 555.7,-294"/>
<text text-anchor="middle" x="506.7" y="-282" font-family="Helvetica,sans-Serif" font-size="10.00">rmvl/group/group.h</text>
</a>
</g>
</g>
<!-- Node3&#45;&gt;Node5 -->
<g id="edge4_Node000003_Node000005" class="edge">
<title>Node3&#45;&gt;Node5</title>
<g id="a_edge4_Node000003_Node000005"><a xlink:title=" ">
<path fill="none" stroke="#63b8ff" d="M506.7,-329.75C506.7,-322.8 506.7,-312.85 506.7,-304.13"/>
<polygon fill="#63b8ff" stroke="#63b8ff" points="510.2,-304.09 506.7,-294.09 503.2,-304.09 510.2,-304.09"/>
</a>
</g>
</g>
<!-- Node6 -->
<g id="Node000006" class="node">
<title>Node6</title>
<g id="a_Node000006"><a xlink:href="../../dc/ded/tracker_8h.html" target="_top" xlink:title="追踪器抽象头文件">
<polygon fill="white" stroke="#666666" points="561.2,-239 452.2,-239 452.2,-220 561.2,-220 561.2,-239"/>
<text text-anchor="middle" x="506.7" y="-227" font-family="Helvetica,sans-Serif" font-size="10.00">rmvl/tracker/tracker.h</text>
</a>
</g>
</g>
<!-- Node5&#45;&gt;Node6 -->
<g id="edge5_Node000005_Node000006" class="edge">
<title>Node5&#45;&gt;Node6</title>
<g id="a_edge5_Node000005_Node000006"><a xlink:title=" ">
<path fill="none" stroke="#63b8ff" d="M506.7,-274.75C506.7,-267.8 506.7,-257.85 506.7,-249.13"/>
<polygon fill="#63b8ff" stroke="#63b8ff" points="510.2,-249.09 506.7,-239.09 503.2,-249.09 510.2,-249.09"/>
</a>
</g>
</g>
<!-- Node7 -->
<g id="Node000007" class="node">
<title>Node7</title>
<g id="a_Node000007"><a xlink:title=" ">
<polygon fill="#e0e0e0" stroke="#999999" points="575.2,-184 532.2,-184 532.2,-165 575.2,-165 575.2,-184"/>
<text text-anchor="middle" x="553.7" y="-172" font-family="Helvetica,sans-Serif" font-size="10.00">deque</text>
</a>
</g>
</g>
<!-- Node6&#45;&gt;Node7 -->
<g id="edge6_Node000006_Node000007" class="edge">
<title>Node6&#45;&gt;Node7</title>
<g id="a_edge6_Node000006_Node000007"><a xlink:title=" ">
<path fill="none" stroke="#63b8ff" d="M514.46,-219.75C521.17,-212.18 531.04,-201.05 539.21,-191.84"/>
<polygon fill="#63b8ff" stroke="#63b8ff" points="542.07,-193.89 546.09,-184.09 536.83,-189.25 542.07,-193.89"/>
</a>
</g>
</g>
<!-- Node8 -->
<g id="Node000008" class="node">
<title>Node8</title>
<g id="a_Node000008"><a xlink:href="../../d8/d36/combo_8h.html" target="_top" xlink:title="the combination of the features header file">
<polygon fill="white" stroke="#666666" points="513.7,-184 405.7,-184 405.7,-165 513.7,-165 513.7,-184"/>
<text text-anchor="middle" x="459.7" y="-172" font-family="Helvetica,sans-Serif" font-size="10.00">rmvl/combo/combo.h</text>
</a>
</g>
</g>
<!-- Node6&#45;&gt;Node8 -->
<g id="edge7_Node000006_Node000008" class="edge">
<title>Node6&#45;&gt;Node8</title>
<g id="a_edge7_Node000006_Node000008"><a xlink:title=" ">
<path fill="none" stroke="#63b8ff" d="M498.94,-219.75C492.23,-212.18 482.36,-201.05 474.2,-191.84"/>
<polygon fill="#63b8ff" stroke="#63b8ff" points="476.57,-189.25 467.32,-184.09 471.34,-193.89 476.57,-189.25"/>
</a>
</g>
</g>
<!-- Node9 -->
<g id="Node000009" class="node">
<title>Node9</title>
<g id="a_Node000009"><a xlink:href="../../d4/d78/math_8hpp.html" target="_top" xlink:title="基础数学库">
<polygon fill="white" stroke="#666666" points="1038.7,-129 916.7,-129 916.7,-110 1038.7,-110 1038.7,-129"/>
<text text-anchor="middle" x="977.7" y="-117" font-family="Helvetica,sans-Serif" font-size="10.00">rmvl/algorithm/math.hpp</text>
</a>
</g>
</g>
<!-- Node8&#45;&gt;Node9 -->
<g id="edge8_Node000008_Node000009" class="edge">
<title>Node8&#45;&gt;Node9</title>
<g id="a_edge8_Node000008_Node000009"><a xlink:title=" ">
<path fill="none" stroke="#63b8ff" d="M513.98,-166.05C516.93,-165.68 519.85,-165.33 522.7,-165 658.21,-149.24 816.86,-134.58 906.49,-126.65"/>
<polygon fill="#63b8ff" stroke="#63b8ff" points="906.89,-130.13 916.54,-125.76 906.27,-123.16 906.89,-130.13"/>
</a>
</g>
</g>
<!-- Node20 -->
<g id="Node000020" class="node">
<title>Node20</title>
<g id="a_Node000020"><a xlink:href="../../d3/d7e/camutils_8hpp.html" target="_top" xlink:title="相机基本配置信息">
<polygon fill="white" stroke="#666666" points="215.2,-129 86.2,-129 86.2,-110 215.2,-110 215.2,-129"/>
<text text-anchor="middle" x="150.7" y="-117" font-family="Helvetica,sans-Serif" font-size="10.00">rmvl/camera/camutils.hpp</text>
</a>
</g>
</g>
<!-- Node8&#45;&gt;Node20 -->
<g id="edge21_Node000008_Node000020" class="edge">
<title>Node8&#45;&gt;Node20</title>
<g id="a_edge21_Node000008_Node000020"><a xlink:title=" ">
<path fill="none" stroke="#63b8ff" d="M410.06,-164.98C355.74,-155.67 268.69,-140.74 210.61,-130.78"/>
<polygon fill="#63b8ff" stroke="#63b8ff" points="210.93,-127.28 200.48,-129.04 209.75,-134.18 210.93,-127.28"/>
</a>
</g>
</g>
<!-- Node22 -->
<g id="Node000022" class="node">
<title>Node22</title>
<g id="a_Node000022"><a xlink:href="../../d2/dc6/io_8hpp.html" target="_top" xlink:title="数据 IO 与通信模块">
<polygon fill="white" stroke="#666666" points="427.7,-129 341.7,-129 341.7,-110 427.7,-110 427.7,-129"/>
<text text-anchor="middle" x="384.7" y="-117" font-family="Helvetica,sans-Serif" font-size="10.00">rmvl/core/io.hpp</text>
</a>
</g>
</g>
<!-- Node8&#45;&gt;Node22 -->
<g id="edge24_Node000008_Node000022" class="edge">
<title>Node8&#45;&gt;Node22</title>
<g id="a_edge24_Node000008_Node000022"><a xlink:title=" ">
<path fill="none" stroke="#63b8ff" d="M447.65,-164.98C436.24,-156.92 418.87,-144.65 405.27,-135.03"/>
<polygon fill="#63b8ff" stroke="#63b8ff" points="407.16,-132.08 396.97,-129.17 403.12,-137.8 407.16,-132.08"/>
</a>
</g>
</g>
<!-- Node27 -->
<g id="Node000027" class="node">
<title>Node27</title>
<g id="a_Node000027"><a xlink:href="../../d2/d74/feature_8h.html" target="_top" xlink:title="feature class header">
<polygon fill="white" stroke="#666666" points="590.7,-129 480.7,-129 480.7,-110 590.7,-110 590.7,-129"/>
<text text-anchor="middle" x="535.7" y="-117" font-family="Helvetica,sans-Serif" font-size="10.00">rmvl/feature/feature.h</text>
</a>
</g>
</g>
<!-- Node8&#45;&gt;Node27 -->
<g id="edge32_Node000008_Node000027" class="edge">
<title>Node8&#45;&gt;Node27</title>
<g id="a_edge32_Node000008_Node000027"><a xlink:title=" ">
<path fill="none" stroke="#63b8ff" d="M471.91,-164.98C483.48,-156.92 501.08,-144.65 514.86,-135.03"/>
<polygon fill="#63b8ff" stroke="#63b8ff" points="517.07,-137.76 523.27,-129.17 513.06,-132.02 517.07,-137.76"/>
</a>
</g>
</g>
<!-- Node9&#45;&gt;Node4 -->
<g id="edge12_Node000009_Node000004" class="edge">
<title>Node9&#45;&gt;Node4</title>
<g id="a_edge12_Node000009_Node000004"><a xlink:title=" ">
<path fill="none" stroke="#63b8ff" d="M1039.02,-116.22C1111.41,-112.29 1225.98,-101.75 1257.7,-74 1270.28,-63 1274.7,-44.05 1276.17,-29.71"/>
<polygon fill="#63b8ff" stroke="#63b8ff" points="1279.68,-29.64 1276.82,-19.43 1272.7,-29.19 1279.68,-29.64"/>
</a>
</g>
</g>
<!-- Node10 -->
<g id="Node000010" class="node">
<title>Node10</title>
<g id="a_Node000010"><a xlink:title=" ">
<polygon fill="#e0e0e0" stroke="#999999" points="964.7,-74 920.7,-74 920.7,-55 964.7,-55 964.7,-74"/>
<text text-anchor="middle" x="942.7" y="-62" font-family="Helvetica,sans-Serif" font-size="10.00">cmath</text>
</a>
</g>
</g>
<!-- Node9&#45;&gt;Node10 -->
<g id="edge9_Node000009_Node000010" class="edge">
<title>Node9&#45;&gt;Node10</title>
<g id="a_edge9_Node000009_Node000010"><a xlink:title=" ">
<path fill="none" stroke="#63b8ff" d="M971.92,-109.75C967.08,-102.42 960.02,-91.73 954.06,-82.7"/>
<polygon fill="#63b8ff" stroke="#63b8ff" points="956.81,-80.5 948.37,-74.09 950.96,-84.36 956.81,-80.5"/>
</a>
</g>
</g>
<!-- Node11 -->
<g id="Node000011" class="node">
<title>Node11</title>
<g id="a_Node000011"><a xlink:title=" ">
<polygon fill="#e0e0e0" stroke="#999999" points="1042.2,-74 983.2,-74 983.2,-55 1042.2,-55 1042.2,-74"/>
<text text-anchor="middle" x="1012.7" y="-62" font-family="Helvetica,sans-Serif" font-size="10.00">functional</text>
</a>
</g>
</g>
<!-- Node9&#45;&gt;Node11 -->
<g id="edge10_Node000009_Node000011" class="edge">
<title>Node9&#45;&gt;Node11</title>
<g id="a_edge10_Node000009_Node000011"><a xlink:title=" ">
<path fill="none" stroke="#63b8ff" d="M983.48,-109.75C988.32,-102.42 995.38,-91.73 1001.35,-82.7"/>
<polygon fill="#63b8ff" stroke="#63b8ff" points="1004.44,-84.36 1007.03,-74.09 998.6,-80.5 1004.44,-84.36"/>
</a>
</g>
</g>
<!-- Node12 -->
<g id="Node000012" class="node">
<title>Node12</title>
<g id="a_Node000012"><a xlink:title=" ">
<polygon fill="#e0e0e0" stroke="#999999" points="1111.2,-74 1060.2,-74 1060.2,-55 1111.2,-55 1111.2,-74"/>
<text text-anchor="middle" x="1085.7" y="-62" font-family="Helvetica,sans-Serif" font-size="10.00">numeric</text>
</a>
</g>
</g>
<!-- Node9&#45;&gt;Node12 -->
<g id="edge11_Node000009_Node000012" class="edge">
<title>Node9&#45;&gt;Node12</title>
<g id="a_edge11_Node000009_Node000012"><a xlink:title=" ">
<path fill="none" stroke="#63b8ff" d="M995.05,-109.98C1012.27,-101.54 1038.9,-88.47 1058.85,-78.68"/>
<polygon fill="#63b8ff" stroke="#63b8ff" points="1060.6,-81.72 1068.03,-74.17 1057.52,-75.43 1060.6,-81.72"/>
</a>
</g>
</g>
<!-- Node13 -->
<g id="Node000013" class="node">
<title>Node13</title>
<g id="a_Node000013"><a xlink:title=" ">
<polygon fill="#e0e0e0" stroke="#999999" points="692.7,-74 648.7,-74 648.7,-55 692.7,-55 692.7,-74"/>
<text text-anchor="middle" x="670.7" y="-62" font-family="Helvetica,sans-Serif" font-size="10.00">vector</text>
</a>
</g>
</g>
<!-- Node9&#45;&gt;Node13 -->
<g id="edge13_Node000009_Node000013" class="edge">
<title>Node9&#45;&gt;Node13</title>
<g id="a_edge13_Node000009_Node000013"><a xlink:title=" ">
<path fill="none" stroke="#63b8ff" d="M916.5,-110.56C862.64,-103.14 781.94,-90.96 703.09,-74.11"/>
<polygon fill="#63b8ff" stroke="#63b8ff" points="703.5,-70.61 692.98,-71.92 702.02,-77.45 703.5,-70.61"/>
</a>
</g>
</g>
<!-- Node14 -->
<g id="Node000014" class="node">
<title>Node14</title>
<g id="a_Node000014"><a xlink:title=" ">
<polygon fill="#e0e0e0" stroke="#999999" points="1248.2,-74 1129.2,-74 1129.2,-55 1248.2,-55 1248.2,-74"/>
<text text-anchor="middle" x="1188.7" y="-62" font-family="Helvetica,sans-Serif" font-size="10.00">opencv2/core/matx.hpp</text>
</a>
</g>
</g>
<!-- Node9&#45;&gt;Node14 -->
<g id="edge14_Node000009_Node000014" class="edge">
<title>Node9&#45;&gt;Node14</title>
<g id="a_edge14_Node000009_Node000014"><a xlink:title=" ">
<path fill="none" stroke="#63b8ff" d="M1011.6,-109.98C1047.72,-100.91 1105.03,-86.52 1144.62,-76.57"/>
<polygon fill="#63b8ff" stroke="#63b8ff" points="1145.69,-79.91 1154.54,-74.08 1143.98,-73.12 1145.69,-79.91"/>
</a>
</g>
</g>
<!-- Node15 -->
<g id="Node000015" class="node">
<title>Node15</title>
<g id="a_Node000015"><a xlink:href="../../d0/d3f/util_8hpp.html" target="_top" xlink:title=" ">
<polygon fill="white" stroke="#666666" points="802.7,-74 710.7,-74 710.7,-55 802.7,-55 802.7,-74"/>
<text text-anchor="middle" x="756.7" y="-62" font-family="Helvetica,sans-Serif" font-size="10.00">rmvl/core/util.hpp</text>
</a>
</g>
</g>
<!-- Node9&#45;&gt;Node15 -->
<g id="edge15_Node000009_Node000015" class="edge">
<title>Node9&#45;&gt;Node15</title>
<g id="a_edge15_Node000009_Node000015"><a xlink:title=" ">
<path fill="none" stroke="#63b8ff" d="M942.19,-109.98C904.21,-100.87 843.83,-86.4 802.34,-76.45"/>
<polygon fill="#63b8ff" stroke="#63b8ff" points="803.03,-73.01 792.49,-74.08 801.4,-79.82 803.03,-73.01"/>
</a>
</g>
</g>
<!-- Node15&#45;&gt;Node2 -->
<g id="edge16_Node000015_Node000002" class="edge">
<title>Node15&#45;&gt;Node2</title>
<g id="a_edge16_Node000015_Node000002"><a xlink:title=" ">
<path fill="none" stroke="#63b8ff" d="M710.52,-56.17C707.54,-55.76 704.58,-55.36 701.7,-55 564.92,-37.77 404.33,-23.47 314.87,-16.04"/>
<polygon fill="#63b8ff" stroke="#63b8ff" points="315.1,-12.54 304.85,-15.21 314.53,-19.52 315.1,-12.54"/>
</a>
</g>
</g>
<!-- Node16 -->
<g id="Node000016" class="node">
<title>Node16</title>
<g id="a_Node000016"><a xlink:title=" ">
<polygon fill="#e0e0e0" stroke="#999999" points="699.7,-19 653.7,-19 653.7,0 699.7,0 699.7,-19"/>
<text text-anchor="middle" x="676.7" y="-7" font-family="Helvetica,sans-Serif" font-size="10.00">cstdint</text>
</a>
</g>
</g>
<!-- Node15&#45;&gt;Node16 -->
<g id="edge17_Node000015_Node000016" class="edge">
<title>Node15&#45;&gt;Node16</title>
<g id="a_edge17_Node000015_Node000016"><a xlink:title=" ">
<path fill="none" stroke="#63b8ff" d="M743.85,-54.98C731.56,-46.84 712.8,-34.41 698.22,-24.76"/>
<polygon fill="#63b8ff" stroke="#63b8ff" points="700.06,-21.78 689.79,-19.17 696.19,-27.61 700.06,-21.78"/>
</a>
</g>
</g>
<!-- Node17 -->
<g id="Node000017" class="node">
<title>Node17</title>
<g id="a_Node000017"><a xlink:title=" ">
<polygon fill="#e0e0e0" stroke="#999999" points="761.2,-19 718.2,-19 718.2,0 761.2,0 761.2,-19"/>
<text text-anchor="middle" x="739.7" y="-7" font-family="Helvetica,sans-Serif" font-size="10.00">cstdio</text>
</a>
</g>
</g>
<!-- Node15&#45;&gt;Node17 -->
<g id="edge18_Node000015_Node000017" class="edge">
<title>Node15&#45;&gt;Node17</title>
<g id="a_edge18_Node000015_Node000017"><a xlink:title=" ">
<path fill="none" stroke="#63b8ff" d="M753.9,-54.75C751.64,-47.72 748.4,-37.62 745.59,-28.84"/>
<polygon fill="#63b8ff" stroke="#63b8ff" points="748.84,-27.54 742.46,-19.09 742.18,-29.68 748.84,-27.54"/>
</a>
</g>
</g>
<!-- Node18 -->
<g id="Node000018" class="node">
<title>Node18</title>
<g id="a_Node000018"><a xlink:title=" ">
<polygon fill="#e0e0e0" stroke="#999999" points="820.2,-19 779.2,-19 779.2,0 820.2,0 820.2,-19"/>
<text text-anchor="middle" x="799.7" y="-7" font-family="Helvetica,sans-Serif" font-size="10.00">string</text>
</a>
</g>
</g>
<!-- Node15&#45;&gt;Node18 -->
<g id="edge19_Node000015_Node000018" class="edge">
<title>Node15&#45;&gt;Node18</title>
<g id="a_edge19_Node000015_Node000018"><a xlink:title=" ">
<path fill="none" stroke="#63b8ff" d="M763.8,-54.75C769.88,-47.26 778.79,-36.28 786.21,-27.13"/>
<polygon fill="#63b8ff" stroke="#63b8ff" points="789.15,-29.06 792.73,-19.09 783.72,-24.65 789.15,-29.06"/>
</a>
</g>
</g>
<!-- Node19 -->
<g id="Node000019" class="node">
<title>Node19</title>
<g id="a_Node000019"><a xlink:href="../../db/d41/rmvldef_8hpp.html" target="_top" xlink:title=" ">
<polygon fill="white" stroke="#666666" points="428.7,-19 360.7,-19 360.7,0 428.7,0 428.7,-19"/>
<text text-anchor="middle" x="394.7" y="-7" font-family="Helvetica,sans-Serif" font-size="10.00">rmvldef.hpp</text>
</a>
</g>
</g>
<!-- Node15&#45;&gt;Node19 -->
<g id="edge20_Node000015_Node000019" class="edge">
<title>Node15&#45;&gt;Node19</title>
<g id="a_edge20_Node000015_Node000019"><a xlink:title=" ">
<path fill="none" stroke="#63b8ff" d="M710.49,-56.33C707.52,-55.87 704.57,-55.43 701.7,-55 608.25,-41.01 498.68,-25.29 438.99,-16.79"/>
<polygon fill="#63b8ff" stroke="#63b8ff" points="439.18,-13.28 428.79,-15.33 438.2,-20.21 439.18,-13.28"/>
</a>
</g>
</g>
<!-- Node20&#45;&gt;Node19 -->
<g id="edge23_Node000020_Node000019" class="edge">
<title>Node20&#45;&gt;Node19</title>
<g id="a_edge23_Node000020_Node000019"><a xlink:title=" ">
<path fill="none" stroke="#63b8ff" d="M154.4,-109.98C160.86,-96.14 175.56,-68.93 196.7,-55 221.61,-38.59 300.2,-24.42 350.55,-16.71"/>
<polygon fill="#63b8ff" stroke="#63b8ff" points="351.16,-20.15 360.53,-15.2 350.12,-13.23 351.16,-20.15"/>
</a>
</g>
</g>
<!-- Node21 -->
<g id="Node000021" class="node">
<title>Node21</title>
<g id="a_Node000021"><a xlink:title=" ">
<polygon fill="#e0e0e0" stroke="#999999" points="122.7,-74 28.7,-74 28.7,-55 122.7,-55 122.7,-74"/>
<text text-anchor="middle" x="75.7" y="-62" font-family="Helvetica,sans-Serif" font-size="10.00">opencv2/core.hpp</text>
</a>
</g>
</g>
<!-- Node20&#45;&gt;Node21 -->
<g id="edge22_Node000020_Node000021" class="edge">
<title>Node20&#45;&gt;Node21</title>
<g id="a_edge22_Node000020_Node000021"><a xlink:title=" ">
<path fill="none" stroke="#63b8ff" d="M138.65,-109.98C127.24,-101.92 109.87,-89.65 96.27,-80.03"/>
<polygon fill="#63b8ff" stroke="#63b8ff" points="98.16,-77.08 87.97,-74.17 94.12,-82.8 98.16,-77.08"/>
</a>
</g>
</g>
<!-- Node22&#45;&gt;Node13 -->
<g id="edge30_Node000022_Node000013" class="edge">
<title>Node22&#45;&gt;Node13</title>
<g id="a_edge30_Node000022_Node000013"><a xlink:title=" ">
<path fill="none" stroke="#63b8ff" d="M427.81,-112.25C476.63,-104.9 558.72,-91.68 638.23,-74.16"/>
<polygon fill="#63b8ff" stroke="#63b8ff" points="639.42,-77.48 648.41,-71.88 637.89,-70.64 639.42,-77.48"/>
</a>
</g>
</g>
<!-- Node22&#45;&gt;Node18 -->
<g id="edge29_Node000022_Node000018" class="edge">
<title>Node22&#45;&gt;Node18</title>
<g id="a_edge29_Node000022_Node000018"><a xlink:title=" ">
<path fill="none" stroke="#63b8ff" d="M388.09,-109.7C394.09,-95.47 408.01,-67.7 429.7,-55 492.95,-17.96 680.87,-32.54 768.93,-18.85"/>
<polygon fill="#63b8ff" stroke="#63b8ff" points="769.67,-22.27 778.9,-17.08 768.45,-15.38 769.67,-22.27"/>
</a>
</g>
</g>
<!-- Node22&#45;&gt;Node19 -->
<g id="edge31_Node000022_Node000019" class="edge">
<title>Node22&#45;&gt;Node19</title>
<g id="a_edge31_Node000022_Node000019"><a xlink:title=" ">
<path fill="none" stroke="#63b8ff" d="M341.48,-117.43C277.9,-114.29 170.52,-102.07 207.7,-55 225.13,-32.94 300.64,-20.64 350.22,-14.81"/>
<polygon fill="#63b8ff" stroke="#63b8ff" points="350.83,-18.26 360.37,-13.66 350.04,-11.31 350.83,-18.26"/>
</a>
</g>
</g>
<!-- Node23 -->
<g id="Node000023" class="node">
<title>Node23</title>
<g id="a_Node000023"><a xlink:title=" ">
<polygon fill="#e0e0e0" stroke="#999999" points="254.7,-74 216.7,-74 216.7,-55 254.7,-55 254.7,-74"/>
<text text-anchor="middle" x="235.7" y="-62" font-family="Helvetica,sans-Serif" font-size="10.00">array</text>
</a>
</g>
</g>
<!-- Node22&#45;&gt;Node23 -->
<g id="edge25_Node000022_Node000023" class="edge">
<title>Node22&#45;&gt;Node23</title>
<g id="a_edge25_Node000022_Node000023"><a xlink:title=" ">
<path fill="none" stroke="#63b8ff" d="M360.76,-109.98C334.53,-100.65 292.47,-85.69 264.47,-75.73"/>
<polygon fill="#63b8ff" stroke="#63b8ff" points="265.44,-72.36 254.85,-72.31 263.09,-78.96 265.44,-72.36"/>
</a>
</g>
</g>
<!-- Node24 -->
<g id="Node000024" class="node">
<title>Node24</title>
<g id="a_Node000024"><a xlink:title=" ">
<polygon fill="#e0e0e0" stroke="#999999" points="318.7,-74 272.7,-74 272.7,-55 318.7,-55 318.7,-74"/>
<text text-anchor="middle" x="295.7" y="-62" font-family="Helvetica,sans-Serif" font-size="10.00">cstring</text>
</a>
</g>
</g>
<!-- Node22&#45;&gt;Node24 -->
<g id="edge26_Node000022_Node000024" class="edge">
<title>Node22&#45;&gt;Node24</title>
<g id="a_edge26_Node000022_Node000024"><a xlink:title=" ">
<path fill="none" stroke="#63b8ff" d="M370.4,-109.98C356.6,-101.77 335.46,-89.18 319.19,-79.49"/>
<polygon fill="#63b8ff" stroke="#63b8ff" points="320.64,-76.28 310.26,-74.17 317.06,-82.29 320.64,-76.28"/>
</a>
</g>
</g>
<!-- Node25 -->
<g id="Node000025" class="node">
<title>Node25</title>
<g id="a_Node000025"><a xlink:title=" ">
<polygon fill="#e0e0e0" stroke="#999999" points="382.2,-74 337.2,-74 337.2,-55 382.2,-55 382.2,-74"/>
<text text-anchor="middle" x="359.7" y="-62" font-family="Helvetica,sans-Serif" font-size="10.00">iosfwd</text>
</a>
</g>
</g>
<!-- Node22&#45;&gt;Node25 -->
<g id="edge27_Node000022_Node000025" class="edge">
<title>Node22&#45;&gt;Node25</title>
<g id="a_edge27_Node000022_Node000025"><a xlink:title=" ">
<path fill="none" stroke="#63b8ff" d="M380.57,-109.75C377.19,-102.57 372.29,-92.18 368.08,-83.27"/>
<polygon fill="#63b8ff" stroke="#63b8ff" points="371.19,-81.64 363.75,-74.09 364.85,-84.63 371.19,-81.64"/>
</a>
</g>
</g>
<!-- Node26 -->
<g id="Node000026" class="node">
<title>Node26</title>
<g id="a_Node000026"><a xlink:title=" ">
<polygon fill="#e0e0e0" stroke="#999999" points="490.7,-74 438.7,-74 438.7,-55 490.7,-55 490.7,-74"/>
<text text-anchor="middle" x="464.7" y="-62" font-family="Helvetica,sans-Serif" font-size="10.00">memory</text>
</a>
</g>
</g>
<!-- Node22&#45;&gt;Node26 -->
<g id="edge28_Node000022_Node000026" class="edge">
<title>Node22&#45;&gt;Node26</title>
<g id="a_edge28_Node000022_Node000026"><a xlink:title=" ">
<path fill="none" stroke="#63b8ff" d="M397.56,-109.98C409.85,-101.84 428.61,-89.41 443.18,-79.76"/>
<polygon fill="#63b8ff" stroke="#63b8ff" points="445.21,-82.61 451.61,-74.17 441.35,-76.78 445.21,-82.61"/>
</a>
</g>
</g>
<!-- Node27&#45;&gt;Node26 -->
<g id="edge33_Node000027_Node000026" class="edge">
<title>Node27&#45;&gt;Node26</title>
<g id="a_edge33_Node000027_Node000026"><a xlink:title=" ">
<path fill="none" stroke="#63b8ff" d="M524.29,-109.98C513.59,-102 497.36,-89.88 484.54,-80.31"/>
<polygon fill="#63b8ff" stroke="#63b8ff" points="486.42,-77.35 476.32,-74.17 482.24,-82.96 486.42,-77.35"/>
</a>
</g>
</g>
<!-- Node28 -->
<g id="Node000028" class="node">
<title>Node28</title>
<g id="a_Node000028"><a xlink:title=" ">
<polygon fill="#e0e0e0" stroke="#999999" points="630.2,-74 509.2,-74 509.2,-55 630.2,-55 630.2,-74"/>
<text text-anchor="middle" x="569.7" y="-62" font-family="Helvetica,sans-Serif" font-size="10.00">opencv2/core/types.hpp</text>
</a>
</g>
</g>
<!-- Node27&#45;&gt;Node28 -->
<g id="edge34_Node000027_Node000028" class="edge">
<title>Node27&#45;&gt;Node28</title>
<g id="a_edge34_Node000027_Node000028"><a xlink:title=" ">
<path fill="none" stroke="#63b8ff" d="M541.32,-109.75C546.02,-102.42 552.88,-91.73 558.67,-82.7"/>
<polygon fill="#63b8ff" stroke="#63b8ff" points="561.74,-84.4 564.19,-74.09 555.85,-80.62 561.74,-84.4"/>
</a>
</g>
</g>
<!-- Node29 -->
<g id="Node000029" class="node">
<title>Node29</title>
<g id="a_Node000029"><a xlink:href="../../dd/de3/types_8hpp.html" target="_top" xlink:title="状态类型系统">
<polygon fill="white" stroke="#666666" points="902.2,-74 821.2,-74 821.2,-55 902.2,-55 902.2,-74"/>
<text text-anchor="middle" x="861.7" y="-62" font-family="Helvetica,sans-Serif" font-size="10.00">rmvl/types.hpp</text>
</a>
</g>
</g>
<!-- Node27&#45;&gt;Node29 -->
<g id="edge35_Node000027_Node000029" class="edge">
<title>Node27&#45;&gt;Node29</title>
<g id="a_edge35_Node000027_Node000029"><a xlink:title=" ">
<path fill="none" stroke="#63b8ff" d="M589.41,-109.98C642.92,-101.46 727.73,-87.87 811.15,-74.08"/>
<polygon fill="#63b8ff" stroke="#63b8ff" points="811.75,-77.53 821.05,-72.44 810.61,-70.62 811.75,-77.53"/>
</a>
</g>
</g>
<!-- Node29&#45;&gt;Node4 -->
<g id="edge38_Node000029_Node000004" class="edge">
<title>Node29&#45;&gt;Node4</title>
<g id="a_edge38_Node000029_Node000004"><a xlink:title=" ">
<path fill="none" stroke="#63b8ff" d="M902.34,-56.43C905.5,-55.93 908.65,-55.44 911.7,-55 1023.09,-38.75 1154.2,-23.77 1225.01,-16.03"/>
<polygon fill="#63b8ff" stroke="#63b8ff" points="1225.45,-19.5 1235.02,-14.94 1224.7,-12.54 1225.45,-19.5"/>
</a>
</g>
</g>
<!-- Node29&#45;&gt;Node18 -->
<g id="edge36_Node000029_Node000018" class="edge">
<title>Node29&#45;&gt;Node18</title>
<g id="a_edge36_Node000029_Node000018"><a xlink:title=" ">
<path fill="none" stroke="#63b8ff" d="M851.74,-54.98C842.58,-47.15 828.77,-35.34 817.67,-25.86"/>
<polygon fill="#63b8ff" stroke="#63b8ff" points="819.72,-23.01 809.84,-19.17 815.17,-28.33 819.72,-23.01"/>
</a>
</g>
</g>
<!-- Node29&#45;&gt;Node19 -->
<g id="edge40_Node000029_Node000019" class="edge">
<title>Node29&#45;&gt;Node19</title>
<g id="a_edge40_Node000029_Node000019"><a xlink:title=" ">
<path fill="none" stroke="#63b8ff" d="M821.08,-56.38C817.91,-55.89 814.75,-55.42 811.7,-55 676.35,-36.29 515.34,-21.1 439.04,-14.32"/>
<polygon fill="#63b8ff" stroke="#63b8ff" points="439.11,-10.81 428.84,-13.42 438.5,-17.79 439.11,-10.81"/>
</a>
</g>
</g>
<!-- Node30 -->
<g id="Node000030" class="node">
<title>Node30</title>
<g id="a_Node000030"><a xlink:title=" ">
<polygon fill="#e0e0e0" stroke="#999999" points="968.7,-19 902.7,-19 902.7,0 968.7,0 968.7,-19"/>
<text text-anchor="middle" x="935.7" y="-7" font-family="Helvetica,sans-Serif" font-size="10.00">string_view</text>
</a>
</g>
</g>
<!-- Node29&#45;&gt;Node30 -->
<g id="edge37_Node000029_Node000030" class="edge">
<title>Node29&#45;&gt;Node30</title>
<g id="a_edge37_Node000029_Node000030"><a xlink:title=" ">
<path fill="none" stroke="#63b8ff" d="M873.59,-54.98C884.85,-46.92 901.99,-34.65 915.41,-25.03"/>
<polygon fill="#63b8ff" stroke="#63b8ff" points="917.5,-27.84 923.6,-19.17 913.43,-22.15 917.5,-27.84"/>
</a>
</g>
</g>
<!-- Node31 -->
<g id="Node000031" class="node">
<title>Node31</title>
<g id="a_Node000031"><a xlink:title=" ">
<polygon fill="#e0e0e0" stroke="#999999" points="884.7,-19 838.7,-19 838.7,0 884.7,0 884.7,-19"/>
<text text-anchor="middle" x="861.7" y="-7" font-family="Helvetica,sans-Serif" font-size="10.00">variant</text>
</a>
</g>
</g>
<!-- Node29&#45;&gt;Node31 -->
<g id="edge39_Node000029_Node000031" class="edge">
<title>Node29&#45;&gt;Node31</title>
<g id="a_edge39_Node000029_Node000031"><a xlink:title=" ">
<path fill="none" stroke="#63b8ff" d="M861.7,-54.75C861.7,-47.8 861.7,-37.85 861.7,-29.13"/>
<polygon fill="#63b8ff" stroke="#63b8ff" points="865.2,-29.09 861.7,-19.09 858.2,-29.09 865.2,-29.09"/>
</a>
</g>
</g>
</g>
</svg>

<g id="navigator" transform="translate(0 0)" fill="#404254">
  <rect fill="#f2f5e9" fill-opacity="0.5" stroke="#606060" stroke-width=".5" x="0" y="0" width="60" height="60"/>
  <use id="zoomplus" xlink:href="#zoomPlus" x="17" y="9" onmousedown="handleZoom(evt,'in')"/>
  <use id="zoomminus" xlink:href="#zoomMin" x="42" y="9" onmousedown="handleZoom(evt,'out')"/>
  <use id="reset" xlink:href="#resetDef" x="30" y="36" onmousedown="handleReset()"/>
   <use id="arrowup" xlink:href="#arrowUp" x="0" y="0" onmousedown="handlePan(0,-1)"/>
  <use id="arrowright" xlink:href="#arrowRight" x="0" y="0" onmousedown="handlePan(1,0)"/>
  <use id="arrowdown" xlink:href="#arrowDown" x="0" y="0" onmousedown="handlePan(0,1)"/>
  <use id="arrowleft" xlink:href="#arrowLeft" x="0" y="0" onmousedown="handlePan(-1,0)"/>
</g>
<svg viewBox="0 0 15 15" width="100%" height="30px" preserveAspectRatio="xMaxYMin meet">
 <g id="arrow_out" transform="scale(0.3 0.3)">
  <a xlink:href="rmvl_2predictor_8hpp__incl_org.svg" target="_base">
   <rect id="button" ry="5" rx="5" y="6" x="6" height="38" width="38"
        fill="#f2f5e9" fill-opacity="0.5" stroke="#606060" stroke-width="1.0"/>
   <path id="arrow"
     d="M 11.500037,31.436501 C 11.940474,20.09759 22.043105,11.32322 32.158766,21.979434 L 37.068811,17.246167 C 37.068811,17.246167 37.088388,32 37.088388,32 L 22.160133,31.978069 C 22.160133,31.978069 26.997745,27.140456 26.997745,27.140456 C 18.528582,18.264221 13.291696,25.230495 11.500037,31.436501 z"
     style="fill:#404040;"/>
  </a>
 </g>
</svg>

<style type='text/css'>
<![CDATA[
[data-mouse-over-selected='false'] { opacity: 0.7; }
[data-mouse-over-selected='true']  { opacity: 1.0; }
]]>
</style>
<script type="application/ecmascript"><![CDATA[
document.addEventListener('DOMContentLoaded', (event) => {
  highlightEdges();
  highlightAdjacentNodes();
});
]]></script>
</svg>
