<?xml version="1.0" encoding="UTF-8" standalone="no"?>
<!DOCTYPE svg PUBLIC "-//W3C//DTD SVG 1.1//EN"
 "http://www.w3.org/Graphics/SVG/1.1/DTD/svg11.dtd">
<!-- Generated by graphviz version 2.43.0 (0)
 -->
<!-- Title: rm::GravityCompensator Pages: 1 -->
<svg width="181pt" height="332pt"
 viewBox="0.00 0.00 180.50 332.00" xmlns="http://www.w3.org/2000/svg" xmlns:xlink="http://www.w3.org/1999/xlink">
<g id="graph0" class="graph" transform="scale(1 1) rotate(0) translate(4 328)">
<title>rm::GravityCompensator</title>
<polygon fill="white" stroke="transparent" points="-4,4 -4,-328 176.5,-328 176.5,4 -4,4"/>
<!-- Node1 -->
<g id="node1" class="node">
<title>Node1</title>
<g id="a_node1"><a xlink:title="使用重力模型的补偿模块">
<polygon fill="#bfbfbf" stroke="black" points="0,-0.5 0,-90.5 145,-90.5 145,-0.5 0,-0.5"/>
<text text-anchor="middle" x="72.5" y="-78.5" font-family="Helvetica,sans-Serif" font-size="10.00">rm::GravityCompensator</text>
<polyline fill="none" stroke="black" points="0,-71.5 145,-71.5 "/>
<text text-anchor="middle" x="72.5" y="-59.5" font-family="Helvetica,sans-Serif" font-size="10.00"> </text>
<polyline fill="none" stroke="black" points="0,-52.5 145,-52.5 "/>
<text text-anchor="start" x="8" y="-40.5" font-family="Helvetica,sans-Serif" font-size="10.00">+ GravityCompensator()</text>
<text text-anchor="start" x="8" y="-29.5" font-family="Helvetica,sans-Serif" font-size="10.00">+ ~GravityCompensator()</text>
<text text-anchor="start" x="8" y="-18.5" font-family="Helvetica,sans-Serif" font-size="10.00">+ compensate()</text>
<text text-anchor="start" x="8" y="-7.5" font-family="Helvetica,sans-Serif" font-size="10.00">+ make_compensator()</text>
</a>
</g>
</g>
<!-- Node2 -->
<g id="node2" class="node">
<title>Node2</title>
<g id="a_node2"><a xlink:href="../../df/d72/classrm_1_1compensator.html" target="_top" xlink:title="弹道下坠补偿模块">
<polygon fill="white" stroke="black" points="19,-128.5 19,-207.5 126,-207.5 126,-128.5 19,-128.5"/>
<text text-anchor="middle" x="72.5" y="-195.5" font-family="Helvetica,sans-Serif" font-size="10.00">rm::compensator</text>
<polyline fill="none" stroke="black" points="19,-188.5 126,-188.5 "/>
<text text-anchor="middle" x="72.5" y="-176.5" font-family="Helvetica,sans-Serif" font-size="10.00"> </text>
<polyline fill="none" stroke="black" points="19,-169.5 126,-169.5 "/>
<text text-anchor="start" x="27" y="-157.5" font-family="Helvetica,sans-Serif" font-size="10.00">+ compensator()</text>
<text text-anchor="start" x="27" y="-146.5" font-family="Helvetica,sans-Serif" font-size="10.00">+ ~compensator()</text>
<text text-anchor="start" x="27" y="-135.5" font-family="Helvetica,sans-Serif" font-size="10.00">+ compensate()</text>
</a>
</g>
</g>
<!-- Node2&#45;&gt;Node1 -->
<g id="edge1" class="edge">
<title>Node2&#45;&gt;Node1</title>
<path fill="none" stroke="midnightblue" d="M72.5,-118.14C72.5,-109.05 72.5,-99.6 72.5,-90.66"/>
<polygon fill="none" stroke="midnightblue" points="69,-118.21 72.5,-128.21 76,-118.21 69,-118.21"/>
</g>
<!-- Node3 -->
<g id="node3" class="node">
<title>Node3</title>
<g id="a_node3"><a xlink:title=" ">
<polygon fill="white" stroke="#bfbfbf" points="53.5,-266.5 53.5,-323.5 91.5,-323.5 91.5,-266.5 53.5,-266.5"/>
<text text-anchor="middle" x="72.5" y="-311.5" font-family="Helvetica,sans-Serif" font-size="10.00">float</text>
<polyline fill="none" stroke="#bfbfbf" points="53.5,-304.5 91.5,-304.5 "/>
<text text-anchor="middle" x="72.5" y="-292.5" font-family="Helvetica,sans-Serif" font-size="10.00"> </text>
<polyline fill="none" stroke="#bfbfbf" points="53.5,-285.5 91.5,-285.5 "/>
<text text-anchor="middle" x="72.5" y="-273.5" font-family="Helvetica,sans-Serif" font-size="10.00"> </text>
</a>
</g>
</g>
<!-- Node3&#45;&gt;Node2 -->
<g id="edge2" class="edge">
<title>Node3&#45;&gt;Node2</title>
<path fill="none" stroke="#404040" d="M72.5,-266.26C72.5,-252.64 72.5,-235.79 72.5,-219.96"/>
<polygon fill="none" stroke="#404040" points="72.5,-219.57 68.5,-213.57 72.5,-207.57 76.5,-213.57 72.5,-219.57"/>
<text text-anchor="middle" x="122.5" y="-240" font-family="Helvetica,sans-Serif" font-size="10.00"> #_pitch_static_com</text>
<text text-anchor="middle" x="122.5" y="-229" font-family="Helvetica,sans-Serif" font-size="10.00">#_yaw_static_com</text>
</g>
</g>
</svg>
