<?xml version="1.0" encoding="UTF-8" standalone="no"?>
<!DOCTYPE svg PUBLIC "-//W3C//DTD SVG 1.1//EN"
 "http://www.w3.org/Graphics/SVG/1.1/DTD/svg11.dtd">
<!-- Generated by graphviz version 2.43.0 (0)
 -->
<!-- Title: rmvl/detector/armor_detector.h Pages: 1 -->
<!--zoomable 500 -->

<svg id="main" version="1.1" xmlns="http://www.w3.org/2000/svg" xmlns:xlink="http://www.w3.org/1999/xlink" xml:space="preserve" onload="init(evt)">
<style type="text/css"><![CDATA[
.node, .edge {opacity: 0.7;}
.node.selected, .edge.selected {opacity: 1;}
.edge:hover path { stroke: red; }
.edge:hover polygon { stroke: red; fill: red; }
]]></style>

<defs>
  <circle id="rim" cx="0" cy="0" r="7"/>
  <circle id="rim2" cx="0" cy="0" r="3.5"/>
  <g id="zoomPlus">
    <use xlink:href="#rim" fill="#404040"><set attributeName="fill" to="#808080" begin="zoomplus.mouseover" end="zoomplus.mouseout"/></use>
    <path d="M-4,0h8M0,-4v8" fill="none" stroke="white" stroke-width="1.5" pointer-events="none"/>
  </g>
  <g id="zoomMin">
    <use xlink:href="#rim" fill="#404040"><set attributeName="fill" to="#808080" begin="zoomminus.mouseover" end="zoomminus.mouseout"/></use>
    <path d="M-4,0h8" fill="none" stroke="white" stroke-width="1.5" pointer-events="none"/>
  </g>
  <g id="arrowUp" transform="translate(30 24)">
    <use xlink:href="#rim"/>
    <path pointer-events="none" fill="none" stroke="white" stroke-width="1.5" d="M0,-3.0v7 M-2.5,-0.5L0,-3.0L2.5,-0.5"/>
  </g>
  <g id="arrowRight" transform="rotate(90) translate(36 -43)">
    <use xlink:href="#rim"/>
    <path pointer-events="none" fill="none" stroke="white" stroke-width="1.5" d="M0,-3.0v7 M-2.5,-0.5L0,-3.0L2.5,-0.5"/>
  </g>
  <g id="arrowDown" transform="rotate(180) translate(-30 -48)">
    <use xlink:href="#rim"/>
    <path pointer-events="none" fill="none" stroke="white" stroke-width="1.5" d="M0,-3.0v7 M-2.5,-0.5L0,-3.0L2.5,-0.5"/>
  </g>
  <g id="arrowLeft" transform="rotate(270) translate(-36 17)">
    <use xlink:href="#rim"/>
    <path pointer-events="none" fill="none" stroke="white" stroke-width="1.5" d="M0,-3.0v7 M-2.5,-0.5L0,-3.0L2.5,-0.5"/>
  </g>
  <g id="resetDef">
    <use xlink:href="#rim2" fill="#404040"><set attributeName="fill" to="#808080" begin="reset.mouseover" end="reset.mouseout"/></use>
  </g>
</defs>
<script type="application/ecmascript">
var viewWidth = 1077;
var viewHeight = 500;
var sectionId = 'dynsection-0';
</script>
<script type="application/ecmascript" xlink:href="../../svg.min.js"/>
<svg id="graph" class="graph">
<g id="viewport">
<title>rmvl/detector/armor_detector.h</title>
<!-- Node1 -->
<g id="Node000001" class="node">
<title>Node1</title>
<g id="a_Node000001"><a xlink:title="装甲板识别派生类头文件">
<polygon fill="#999999" stroke="#666666" points="598.77,-492 483.77,-492 483.77,-462 598.77,-462 598.77,-492"/>
<text text-anchor="start" x="491.77" y="-480" font-family="Helvetica,sans-Serif" font-size="10.00">rmvl/detector/armor</text>
<text text-anchor="middle" x="541.27" y="-469" font-family="Helvetica,sans-Serif" font-size="10.00">_detector.h</text>
</a>
</g>
</g>
<!-- Node2 -->
<g id="Node000002" class="node">
<title>Node2</title>
<g id="a_Node000002"><a xlink:href="../../d5/d9f/detector_8h.html" target="_top" xlink:title="抽象识别类头文件">
<polygon fill="white" stroke="#666666" points="573.77,-426 508.77,-426 508.77,-407 573.77,-407 573.77,-426"/>
<text text-anchor="middle" x="541.27" y="-414" font-family="Helvetica,sans-Serif" font-size="10.00">detector.h</text>
</a>
</g>
</g>
<!-- Node1&#45;&gt;Node2 -->
<g id="edge1_Node000001_Node000002" class="edge">
<title>Node1&#45;&gt;Node2</title>
<g id="a_edge1_Node000001_Node000002"><a xlink:title=" ">
<path fill="none" stroke="#63b8ff" d="M541.27,-461.84C541.27,-454.21 541.27,-444.7 541.27,-436.45"/>
<polygon fill="#63b8ff" stroke="#63b8ff" points="544.77,-436.27 541.27,-426.27 537.77,-436.27 544.77,-436.27"/>
</a>
</g>
</g>
<!-- Node30 -->
<g id="Node000030" class="node">
<title>Node30</title>
<g id="a_Node000030"><a xlink:href="../../d9/d8f/ml_2ort_8h.html" target="_top" xlink:title="the deployment library header file of the ONNXruntime (Ort)">
<polygon fill="white" stroke="#666666" points="488.27,-426 408.27,-426 408.27,-407 488.27,-407 488.27,-426"/>
<text text-anchor="middle" x="448.27" y="-414" font-family="Helvetica,sans-Serif" font-size="10.00">rmvl/ml/ort.h</text>
</a>
</g>
</g>
<!-- Node1&#45;&gt;Node30 -->
<g id="edge32_Node000001_Node000030" class="edge">
<title>Node1&#45;&gt;Node30</title>
<g id="a_edge32_Node000001_Node000030"><a xlink:title=" ">
<path fill="none" stroke="#63b8ff" d="M518.75,-461.84C504.2,-452.68 485.33,-440.82 470.78,-431.66"/>
<polygon fill="#63b8ff" stroke="#63b8ff" points="472.26,-428.46 461.93,-426.09 468.53,-434.38 472.26,-428.46"/>
</a>
</g>
</g>
<!-- Node31 -->
<g id="Node000031" class="node">
<title>Node31</title>
<g id="a_Node000031"><a xlink:href="../../d5/dea/tracker_2planar__tracker_8h.html" target="_top" xlink:title="平面目标追踪器头文件">
<polygon fill="white" stroke="#666666" points="815.27,-371 705.27,-371 705.27,-341 815.27,-341 815.27,-371"/>
<text text-anchor="start" x="713.27" y="-359" font-family="Helvetica,sans-Serif" font-size="10.00">rmvl/tracker/planar</text>
<text text-anchor="middle" x="760.27" y="-348" font-family="Helvetica,sans-Serif" font-size="10.00">_tracker.h</text>
</a>
</g>
</g>
<!-- Node1&#45;&gt;Node31 -->
<g id="edge34_Node000001_Node000031" class="edge">
<title>Node1&#45;&gt;Node31</title>
<g id="a_edge34_Node000001_Node000031"><a xlink:title=" ">
<path fill="none" stroke="#63b8ff" d="M567.25,-461.88C606.6,-440.5 681.38,-399.87 725.41,-375.94"/>
<polygon fill="#63b8ff" stroke="#63b8ff" points="727.2,-378.95 734.32,-371.1 723.86,-372.8 727.2,-378.95"/>
</a>
</g>
</g>
<!-- Node3 -->
<g id="Node000003" class="node">
<title>Node3</title>
<g id="a_Node000003"><a xlink:href="../../d9/dd1/group_8h.html" target="_top" xlink:title="序列组抽象头文件">
<polygon fill="white" stroke="#666666" points="681.27,-365.5 571.27,-365.5 571.27,-346.5 681.27,-346.5 681.27,-365.5"/>
<text text-anchor="middle" x="626.27" y="-353.5" font-family="Helvetica,sans-Serif" font-size="10.00">rmvl/group/group.h</text>
</a>
</g>
</g>
<!-- Node2&#45;&gt;Node3 -->
<g id="edge2_Node000002_Node000003" class="edge">
<title>Node2&#45;&gt;Node3</title>
<g id="a_edge2_Node000002_Node000003"><a xlink:title=" ">
<path fill="none" stroke="#63b8ff" d="M553.81,-406.87C567.37,-397.54 589.21,-382.51 605.37,-371.38"/>
<polygon fill="#63b8ff" stroke="#63b8ff" points="607.42,-374.22 613.67,-365.67 603.45,-368.45 607.42,-374.22"/>
</a>
</g>
</g>
<!-- Node28 -->
<g id="Node000028" class="node">
<title>Node28</title>
<g id="a_Node000028"><a xlink:href="../../df/d4b/pretreat_8h.html" target="_top" xlink:title="Header of the image pretreating module">
<polygon fill="white" stroke="#666666" points="552.77,-365.5 419.77,-365.5 419.77,-346.5 552.77,-346.5 552.77,-365.5"/>
<text text-anchor="middle" x="486.27" y="-353.5" font-family="Helvetica,sans-Serif" font-size="10.00">rmvl/imgproc/pretreat.h</text>
</a>
</g>
</g>
<!-- Node2&#45;&gt;Node28 -->
<g id="edge30_Node000002_Node000028" class="edge">
<title>Node2&#45;&gt;Node28</title>
<g id="a_edge30_Node000002_Node000028"><a xlink:title=" ">
<path fill="none" stroke="#63b8ff" d="M533.15,-406.87C524.87,-398.05 511.8,-384.16 501.57,-373.27"/>
<polygon fill="#63b8ff" stroke="#63b8ff" points="503.82,-370.56 494.42,-365.67 498.72,-375.35 503.82,-370.56"/>
</a>
</g>
</g>
<!-- Node4 -->
<g id="Node000004" class="node">
<title>Node4</title>
<g id="a_Node000004"><a xlink:href="../../dc/ded/tracker_8h.html" target="_top" xlink:title="追踪器抽象头文件">
<polygon fill="white" stroke="#666666" points="683.77,-305 562.77,-305 562.77,-286 683.77,-286 683.77,-305"/>
<text text-anchor="middle" x="623.27" y="-293" font-family="Helvetica,sans-Serif" font-size="10.00">rmvl/tracker/tracker.h</text>
</a>
</g>
</g>
<!-- Node3&#45;&gt;Node4 -->
<g id="edge3_Node000003_Node000004" class="edge">
<title>Node3&#45;&gt;Node4</title>
<g id="a_edge3_Node000003_Node000004"><a xlink:title=" ">
<path fill="none" stroke="#63b8ff" d="M625.82,-346.37C625.41,-338.25 624.77,-325.81 624.24,-315.39"/>
<polygon fill="#63b8ff" stroke="#63b8ff" points="627.72,-314.97 623.71,-305.17 620.73,-315.33 627.72,-314.97"/>
</a>
</g>
</g>
<!-- Node5 -->
<g id="Node000005" class="node">
<title>Node5</title>
<g id="a_Node000005"><a xlink:title=" ">
<polygon fill="#e0e0e0" stroke="#999999" points="568.77,-244.5 521.77,-244.5 521.77,-225.5 568.77,-225.5 568.77,-244.5"/>
<text text-anchor="middle" x="545.27" y="-232.5" font-family="Helvetica,sans-Serif" font-size="10.00">deque</text>
</a>
</g>
</g>
<!-- Node4&#45;&gt;Node5 -->
<g id="edge4_Node000004_Node000005" class="edge">
<title>Node4&#45;&gt;Node5</title>
<g id="a_edge4_Node000004_Node000005"><a xlink:title=" ">
<path fill="none" stroke="#63b8ff" d="M611.76,-285.87C599.43,-276.62 579.65,-261.78 564.86,-250.69"/>
<polygon fill="#63b8ff" stroke="#63b8ff" points="566.92,-247.87 556.82,-244.67 562.72,-253.47 566.92,-247.87"/>
</a>
</g>
</g>
<!-- Node6 -->
<g id="Node000006" class="node">
<title>Node6</title>
<g id="a_Node000006"><a xlink:href="../../d8/d36/combo_8h.html" target="_top" xlink:title="the combination of the features header file">
<polygon fill="white" stroke="#666666" points="707.27,-244.5 587.27,-244.5 587.27,-225.5 707.27,-225.5 707.27,-244.5"/>
<text text-anchor="middle" x="647.27" y="-232.5" font-family="Helvetica,sans-Serif" font-size="10.00">rmvl/combo/combo.h</text>
</a>
</g>
</g>
<!-- Node4&#45;&gt;Node6 -->
<g id="edge5_Node000004_Node000006" class="edge">
<title>Node4&#45;&gt;Node6</title>
<g id="a_edge5_Node000004_Node000006"><a xlink:title=" ">
<path fill="none" stroke="#63b8ff" d="M626.81,-285.87C630.21,-277.57 635.46,-264.78 639.79,-254.22"/>
<polygon fill="#63b8ff" stroke="#63b8ff" points="643.15,-255.25 643.71,-244.67 636.68,-252.59 643.15,-255.25"/>
</a>
</g>
</g>
<!-- Node7 -->
<g id="Node000007" class="node">
<title>Node7</title>
<g id="a_Node000007"><a xlink:href="../../d3/d7e/camutils_8hpp.html" target="_top" xlink:title=" ">
<polygon fill="white" stroke="#666666" points="713.77,-184 568.77,-184 568.77,-165 713.77,-165 713.77,-184"/>
<text text-anchor="middle" x="641.27" y="-172" font-family="Helvetica,sans-Serif" font-size="10.00">rmvl/camera/camutils.hpp</text>
</a>
</g>
</g>
<!-- Node6&#45;&gt;Node7 -->
<g id="edge6_Node000006_Node000007" class="edge">
<title>Node6&#45;&gt;Node7</title>
<g id="a_edge6_Node000006_Node000007"><a xlink:title=" ">
<path fill="none" stroke="#63b8ff" d="M646.38,-225.37C645.55,-217.25 644.27,-204.81 643.2,-194.39"/>
<polygon fill="#63b8ff" stroke="#63b8ff" points="646.66,-193.76 642.16,-184.17 639.7,-194.47 646.66,-193.76"/>
</a>
</g>
</g>
<!-- Node9 -->
<g id="Node000009" class="node">
<title>Node9</title>
<g id="a_Node000009"><a xlink:href="../../d4/d78/math_8hpp.html" target="_top" xlink:title="基础数学库">
<polygon fill="white" stroke="#666666" points="281.77,-184 168.77,-184 168.77,-165 281.77,-165 281.77,-184"/>
<text text-anchor="middle" x="225.27" y="-172" font-family="Helvetica,sans-Serif" font-size="10.00">rmvl/core/math.hpp</text>
</a>
</g>
</g>
<!-- Node6&#45;&gt;Node9 -->
<g id="edge8_Node000006_Node000009" class="edge">
<title>Node6&#45;&gt;Node9</title>
<g id="a_edge8_Node000006_Node000009"><a xlink:title=" ">
<path fill="none" stroke="#63b8ff" d="M607.95,-225.49C598.27,-223.55 587.92,-221.58 578.27,-220 479.07,-203.71 363.33,-190.15 292.18,-182.43"/>
<polygon fill="#63b8ff" stroke="#63b8ff" points="292.33,-178.92 282.01,-181.33 291.58,-185.88 292.33,-178.92"/>
</a>
</g>
</g>
<!-- Node21 -->
<g id="Node000021" class="node">
<title>Node21</title>
<g id="a_Node000021"><a xlink:href="../../dd/de3/types_8hpp.html" target="_top" xlink:title="常用状态类型定义">
<polygon fill="white" stroke="#666666" points="825.27,-129 735.27,-129 735.27,-110 825.27,-110 825.27,-129"/>
<text text-anchor="middle" x="780.27" y="-117" font-family="Helvetica,sans-Serif" font-size="10.00">rmvl/types.hpp</text>
</a>
</g>
</g>
<!-- Node6&#45;&gt;Node21 -->
<g id="edge20_Node000006_Node000021" class="edge">
<title>Node6&#45;&gt;Node21</title>
<g id="a_edge20_Node000006_Node000021"><a xlink:title=" ">
<path fill="none" stroke="#63b8ff" d="M662.64,-225.48C678.59,-216.28 703.87,-200.69 723.27,-184 739.85,-169.73 756.26,-150.8 767.19,-137.33"/>
<polygon fill="#63b8ff" stroke="#63b8ff" points="770.04,-139.37 773.52,-129.37 764.56,-135.01 770.04,-139.37"/>
</a>
</g>
</g>
<!-- Node22 -->
<g id="Node000022" class="node">
<title>Node22</title>
<g id="a_Node000022"><a xlink:href="../../d5/d60/dataio_8hpp.html" target="_top" xlink:title="陀螺仪数据">
<polygon fill="white" stroke="#666666" points="550.27,-184 432.27,-184 432.27,-165 550.27,-165 550.27,-184"/>
<text text-anchor="middle" x="491.27" y="-172" font-family="Helvetica,sans-Serif" font-size="10.00">rmvl/core/dataio.hpp</text>
</a>
</g>
</g>
<!-- Node6&#45;&gt;Node22 -->
<g id="edge22_Node000006_Node000022" class="edge">
<title>Node6&#45;&gt;Node22</title>
<g id="a_edge22_Node000006_Node000022"><a xlink:title=" ">
<path fill="none" stroke="#63b8ff" d="M624.58,-225.49C598.01,-215.53 553.79,-198.95 523.62,-187.63"/>
<polygon fill="#63b8ff" stroke="#63b8ff" points="524.57,-184.25 513.98,-184.02 522.11,-190.81 524.57,-184.25"/>
</a>
</g>
</g>
<!-- Node25 -->
<g id="Node000025" class="node">
<title>Node25</title>
<g id="a_Node000025"><a xlink:href="../../d2/d74/feature_8h.html" target="_top" xlink:title="feature class header">
<polygon fill="white" stroke="#666666" points="934.77,-184 809.77,-184 809.77,-165 934.77,-165 934.77,-184"/>
<text text-anchor="middle" x="872.27" y="-172" font-family="Helvetica,sans-Serif" font-size="10.00">rmvl/feature/feature.h</text>
</a>
</g>
</g>
<!-- Node6&#45;&gt;Node25 -->
<g id="edge26_Node000006_Node000025" class="edge">
<title>Node6&#45;&gt;Node25</title>
<g id="a_edge26_Node000006_Node000025"><a xlink:title=" ">
<path fill="none" stroke="#63b8ff" d="M679.98,-225.49C719.56,-215.2 786.27,-197.86 829.79,-186.54"/>
<polygon fill="#63b8ff" stroke="#63b8ff" points="830.71,-189.92 839.51,-184.02 828.95,-183.15 830.71,-189.92"/>
</a>
</g>
</g>
<!-- Node8 -->
<g id="Node000008" class="node">
<title>Node8</title>
<g id="a_Node000008"><a xlink:title=" ">
<polygon fill="#e0e0e0" stroke="#999999" points="716.77,-129 613.77,-129 613.77,-110 716.77,-110 716.77,-129"/>
<text text-anchor="middle" x="665.27" y="-117" font-family="Helvetica,sans-Serif" font-size="10.00">opencv2/core.hpp</text>
</a>
</g>
</g>
<!-- Node7&#45;&gt;Node8 -->
<g id="edge7_Node000007_Node000008" class="edge">
<title>Node7&#45;&gt;Node8</title>
<g id="a_edge7_Node000007_Node000008"><a xlink:title=" ">
<path fill="none" stroke="#63b8ff" d="M645.23,-164.75C648.48,-157.57 653.19,-147.18 657.22,-138.27"/>
<polygon fill="#63b8ff" stroke="#63b8ff" points="660.44,-139.64 661.38,-129.09 654.06,-136.75 660.44,-139.64"/>
</a>
</g>
</g>
<!-- Node10 -->
<g id="Node000010" class="node">
<title>Node10</title>
<g id="a_Node000010"><a xlink:title=" ">
<polygon fill="#e0e0e0" stroke="#999999" points="66.77,-129 19.77,-129 19.77,-110 66.77,-110 66.77,-129"/>
<text text-anchor="middle" x="43.27" y="-117" font-family="Helvetica,sans-Serif" font-size="10.00">cmath</text>
</a>
</g>
</g>
<!-- Node9&#45;&gt;Node10 -->
<g id="edge9_Node000009_Node000010" class="edge">
<title>Node9&#45;&gt;Node10</title>
<g id="a_edge9_Node000009_Node000010"><a xlink:title=" ">
<path fill="none" stroke="#63b8ff" d="M196.03,-164.98C163.52,-155.52 111.1,-140.25 76.91,-130.3"/>
<polygon fill="#63b8ff" stroke="#63b8ff" points="77.51,-126.83 66.93,-127.39 75.55,-133.55 77.51,-126.83"/>
</a>
</g>
</g>
<!-- Node11 -->
<g id="Node000011" class="node">
<title>Node11</title>
<g id="a_Node000011"><a xlink:title=" ">
<polygon fill="#e0e0e0" stroke="#999999" points="468.77,-129 421.77,-129 421.77,-110 468.77,-110 468.77,-129"/>
<text text-anchor="middle" x="445.27" y="-117" font-family="Helvetica,sans-Serif" font-size="10.00">vector</text>
</a>
</g>
</g>
<!-- Node9&#45;&gt;Node11 -->
<g id="edge10_Node000009_Node000011" class="edge">
<title>Node9&#45;&gt;Node11</title>
<g id="a_edge10_Node000009_Node000011"><a xlink:title=" ">
<path fill="none" stroke="#63b8ff" d="M262.22,-164.92C297.91,-156.58 353.75,-143.42 411.46,-129.17"/>
<polygon fill="#63b8ff" stroke="#63b8ff" points="412.62,-132.48 421.49,-126.68 410.94,-125.69 412.62,-132.48"/>
</a>
</g>
</g>
<!-- Node12 -->
<g id="Node000012" class="node">
<title>Node12</title>
<g id="a_Node000012"><a xlink:title=" ">
<polygon fill="#e0e0e0" stroke="#999999" points="177.77,-129 84.77,-129 84.77,-110 177.77,-110 177.77,-129"/>
<text text-anchor="middle" x="131.27" y="-117" font-family="Helvetica,sans-Serif" font-size="10.00">unordered_map</text>
</a>
</g>
</g>
<!-- Node9&#45;&gt;Node12 -->
<g id="edge11_Node000009_Node000012" class="edge">
<title>Node9&#45;&gt;Node12</title>
<g id="a_edge11_Node000009_Node000012"><a xlink:title=" ">
<path fill="none" stroke="#63b8ff" d="M210.16,-164.98C195.45,-156.69 172.84,-143.94 155.59,-134.22"/>
<polygon fill="#63b8ff" stroke="#63b8ff" points="157.07,-131.03 146.64,-129.17 153.64,-137.13 157.07,-131.03"/>
</a>
</g>
</g>
<!-- Node13 -->
<g id="Node000013" class="node">
<title>Node13</title>
<g id="a_Node000013"><a xlink:title=" ">
<polygon fill="#e0e0e0" stroke="#999999" points="254.77,-129 195.77,-129 195.77,-110 254.77,-110 254.77,-129"/>
<text text-anchor="middle" x="225.27" y="-117" font-family="Helvetica,sans-Serif" font-size="10.00">numbers</text>
</a>
</g>
</g>
<!-- Node9&#45;&gt;Node13 -->
<g id="edge12_Node000009_Node000013" class="edge">
<title>Node9&#45;&gt;Node13</title>
<g id="a_edge12_Node000009_Node000013"><a xlink:title=" ">
<path fill="none" stroke="#63b8ff" d="M225.27,-164.75C225.27,-157.8 225.27,-147.85 225.27,-139.13"/>
<polygon fill="#63b8ff" stroke="#63b8ff" points="228.77,-139.09 225.27,-129.09 221.77,-139.09 228.77,-139.09"/>
</a>
</g>
</g>
<!-- Node14 -->
<g id="Node000014" class="node">
<title>Node14</title>
<g id="a_Node000014"><a xlink:title=" ">
<polygon fill="#e0e0e0" stroke="#999999" points="403.77,-129 272.77,-129 272.77,-110 403.77,-110 403.77,-129"/>
<text text-anchor="middle" x="338.27" y="-117" font-family="Helvetica,sans-Serif" font-size="10.00">opencv2/core/matx.hpp</text>
</a>
</g>
</g>
<!-- Node9&#45;&gt;Node14 -->
<g id="edge13_Node000009_Node000014" class="edge">
<title>Node9&#45;&gt;Node14</title>
<g id="a_edge13_Node000009_Node000014"><a xlink:title=" ">
<path fill="none" stroke="#63b8ff" d="M243.42,-164.98C261.52,-156.5 289.55,-143.35 310.45,-133.54"/>
<polygon fill="#63b8ff" stroke="#63b8ff" points="312.21,-136.59 319.78,-129.17 309.24,-130.25 312.21,-136.59"/>
</a>
</g>
</g>
<!-- Node15 -->
<g id="Node000015" class="node">
<title>Node15</title>
<g id="a_Node000015"><a xlink:href="../../d0/d3f/util_8hpp.html" target="_top" xlink:title=" ">
<polygon fill="white" stroke="#666666" points="411.77,-74 358.77,-74 358.77,-55 411.77,-55 411.77,-74"/>
<text text-anchor="middle" x="385.27" y="-62" font-family="Helvetica,sans-Serif" font-size="10.00">util.hpp</text>
</a>
</g>
</g>
<!-- Node9&#45;&gt;Node15 -->
<g id="edge14_Node000009_Node000015" class="edge">
<title>Node9&#45;&gt;Node15</title>
<g id="a_edge14_Node000009_Node000015"><a xlink:title=" ">
<path fill="none" stroke="#63b8ff" d="M168.67,-173.9C90.33,-172.6 -36.52,-162.67 10.27,-110 32.54,-84.92 258.85,-71.5 348.74,-67.13"/>
<polygon fill="#63b8ff" stroke="#63b8ff" points="348.93,-70.62 358.76,-66.65 348.6,-63.63 348.93,-70.62"/>
</a>
</g>
</g>
<!-- Node16 -->
<g id="Node000016" class="node">
<title>Node16</title>
<g id="a_Node000016"><a xlink:title=" ">
<polygon fill="#e0e0e0" stroke="#999999" points="275.77,-19 142.77,-19 142.77,0 275.77,0 275.77,-19"/>
<text text-anchor="middle" x="209.27" y="-7" font-family="Helvetica,sans-Serif" font-size="10.00">rmvl/rmvl_modules.hpp</text>
</a>
</g>
</g>
<!-- Node15&#45;&gt;Node16 -->
<g id="edge15_Node000015_Node000016" class="edge">
<title>Node15&#45;&gt;Node16</title>
<g id="a_edge15_Node000015_Node000016"><a xlink:title=" ">
<path fill="none" stroke="#63b8ff" d="M358.54,-55.45C328.99,-46.55 281.16,-32.15 247.62,-22.05"/>
<polygon fill="#63b8ff" stroke="#63b8ff" points="248.3,-18.6 237.71,-19.07 246.28,-25.3 248.3,-18.6"/>
</a>
</g>
</g>
<!-- Node17 -->
<g id="Node000017" class="node">
<title>Node17</title>
<g id="a_Node000017"><a xlink:title=" ">
<polygon fill="#e0e0e0" stroke="#999999" points="344.27,-19 294.27,-19 294.27,0 344.27,0 344.27,-19"/>
<text text-anchor="middle" x="319.27" y="-7" font-family="Helvetica,sans-Serif" font-size="10.00">cstdint</text>
</a>
</g>
</g>
<!-- Node15&#45;&gt;Node17 -->
<g id="edge16_Node000015_Node000017" class="edge">
<title>Node15&#45;&gt;Node17</title>
<g id="a_edge16_Node000015_Node000017"><a xlink:title=" ">
<path fill="none" stroke="#63b8ff" d="M374.66,-54.98C364.81,-47.07 349.92,-35.11 338.05,-25.58"/>
<polygon fill="#63b8ff" stroke="#63b8ff" points="340.05,-22.7 330.06,-19.17 335.67,-28.16 340.05,-22.7"/>
</a>
</g>
</g>
<!-- Node18 -->
<g id="Node000018" class="node">
<title>Node18</title>
<g id="a_Node000018"><a xlink:title=" ">
<polygon fill="#e0e0e0" stroke="#999999" points="408.27,-19 362.27,-19 362.27,0 408.27,0 408.27,-19"/>
<text text-anchor="middle" x="385.27" y="-7" font-family="Helvetica,sans-Serif" font-size="10.00">cstdio</text>
</a>
</g>
</g>
<!-- Node15&#45;&gt;Node18 -->
<g id="edge17_Node000015_Node000018" class="edge">
<title>Node15&#45;&gt;Node18</title>
<g id="a_edge17_Node000015_Node000018"><a xlink:title=" ">
<path fill="none" stroke="#63b8ff" d="M385.27,-54.75C385.27,-47.8 385.27,-37.85 385.27,-29.13"/>
<polygon fill="#63b8ff" stroke="#63b8ff" points="388.77,-29.09 385.27,-19.09 381.77,-29.09 388.77,-29.09"/>
</a>
</g>
</g>
<!-- Node19 -->
<g id="Node000019" class="node">
<title>Node19</title>
<g id="a_Node000019"><a xlink:title=" ">
<polygon fill="#e0e0e0" stroke="#999999" points="470.27,-19 426.27,-19 426.27,0 470.27,0 470.27,-19"/>
<text text-anchor="middle" x="448.27" y="-7" font-family="Helvetica,sans-Serif" font-size="10.00">string</text>
</a>
</g>
</g>
<!-- Node15&#45;&gt;Node19 -->
<g id="edge18_Node000015_Node000019" class="edge">
<title>Node15&#45;&gt;Node19</title>
<g id="a_edge18_Node000015_Node000019"><a xlink:title=" ">
<path fill="none" stroke="#63b8ff" d="M395.39,-54.98C404.7,-47.15 418.74,-35.34 430.01,-25.86"/>
<polygon fill="#63b8ff" stroke="#63b8ff" points="432.56,-28.29 437.96,-19.17 428.06,-22.93 432.56,-28.29"/>
</a>
</g>
</g>
<!-- Node20 -->
<g id="Node000020" class="node">
<title>Node20</title>
<g id="a_Node000020"><a xlink:href="../../db/d41/rmvldef_8hpp.html" target="_top" xlink:title=" ">
<polygon fill="white" stroke="#666666" points="563.77,-19 488.77,-19 488.77,0 563.77,0 563.77,-19"/>
<text text-anchor="middle" x="526.27" y="-7" font-family="Helvetica,sans-Serif" font-size="10.00">rmvldef.hpp</text>
</a>
</g>
</g>
<!-- Node15&#45;&gt;Node20 -->
<g id="edge19_Node000015_Node000020" class="edge">
<title>Node15&#45;&gt;Node20</title>
<g id="a_edge19_Node000015_Node000020"><a xlink:title=" ">
<path fill="none" stroke="#63b8ff" d="M407.92,-54.98C431.11,-46.27 467.39,-32.63 493.67,-22.75"/>
<polygon fill="#63b8ff" stroke="#63b8ff" points="495.07,-25.97 503.2,-19.17 492.61,-19.41 495.07,-25.97"/>
</a>
</g>
</g>
<!-- Node21&#45;&gt;Node15 -->
<g id="edge21_Node000021_Node000015" class="edge">
<title>Node21&#45;&gt;Node15</title>
<g id="a_edge21_Node000021_Node000015"><a xlink:title=" ">
<path fill="none" stroke="#63b8ff" d="M735.2,-111.32C732.18,-110.86 729.18,-110.42 726.27,-110 615.66,-94.08 484.5,-77.65 421.98,-69.97"/>
<polygon fill="#63b8ff" stroke="#63b8ff" points="422.18,-66.47 411.83,-68.72 421.33,-73.42 422.18,-66.47"/>
</a>
</g>
</g>
<!-- Node22&#45;&gt;Node11 -->
<g id="edge25_Node000022_Node000011" class="edge">
<title>Node22&#45;&gt;Node11</title>
<g id="a_edge25_Node000022_Node000011"><a xlink:title=" ">
<path fill="none" stroke="#63b8ff" d="M483.67,-164.75C477.11,-157.18 467.44,-146.05 459.45,-136.84"/>
<polygon fill="#63b8ff" stroke="#63b8ff" points="461.92,-134.35 452.72,-129.09 456.63,-138.94 461.92,-134.35"/>
</a>
</g>
</g>
<!-- Node23 -->
<g id="Node000023" class="node">
<title>Node23</title>
<g id="a_Node000023"><a xlink:title=" ">
<polygon fill="#e0e0e0" stroke="#999999" points="529.27,-129 487.27,-129 487.27,-110 529.27,-110 529.27,-129"/>
<text text-anchor="middle" x="508.27" y="-117" font-family="Helvetica,sans-Serif" font-size="10.00">array</text>
</a>
</g>
</g>
<!-- Node22&#45;&gt;Node23 -->
<g id="edge23_Node000022_Node000023" class="edge">
<title>Node22&#45;&gt;Node23</title>
<g id="a_edge23_Node000022_Node000023"><a xlink:title=" ">
<path fill="none" stroke="#63b8ff" d="M494.07,-164.75C496.33,-157.72 499.57,-147.62 502.38,-138.84"/>
<polygon fill="#63b8ff" stroke="#63b8ff" points="505.79,-139.68 505.51,-129.09 499.13,-137.54 505.79,-139.68"/>
</a>
</g>
</g>
<!-- Node24 -->
<g id="Node000024" class="node">
<title>Node24</title>
<g id="a_Node000024"><a xlink:title=" ">
<polygon fill="#e0e0e0" stroke="#999999" points="595.27,-129 547.27,-129 547.27,-110 595.27,-110 595.27,-129"/>
<text text-anchor="middle" x="571.27" y="-117" font-family="Helvetica,sans-Serif" font-size="10.00">iosfwd</text>
</a>
</g>
</g>
<!-- Node22&#45;&gt;Node24 -->
<g id="edge24_Node000022_Node000024" class="edge">
<title>Node22&#45;&gt;Node24</title>
<g id="a_edge24_Node000022_Node000024"><a xlink:title=" ">
<path fill="none" stroke="#63b8ff" d="M504.12,-164.98C516.41,-156.84 535.17,-144.41 549.74,-134.76"/>
<polygon fill="#63b8ff" stroke="#63b8ff" points="551.78,-137.61 558.18,-129.17 547.91,-131.78 551.78,-137.61"/>
</a>
</g>
</g>
<!-- Node25&#45;&gt;Node21 -->
<g id="edge29_Node000025_Node000021" class="edge">
<title>Node25&#45;&gt;Node21</title>
<g id="a_edge29_Node000025_Node000021"><a xlink:title=" ">
<path fill="none" stroke="#63b8ff" d="M857.49,-164.98C843.09,-156.69 820.96,-143.94 804.08,-134.22"/>
<polygon fill="#63b8ff" stroke="#63b8ff" points="805.73,-131.13 795.32,-129.17 802.24,-137.19 805.73,-131.13"/>
</a>
</g>
</g>
<!-- Node26 -->
<g id="Node000026" class="node">
<title>Node26</title>
<g id="a_Node000026"><a xlink:title=" ">
<polygon fill="#e0e0e0" stroke="#999999" points="901.27,-129 843.27,-129 843.27,-110 901.27,-110 901.27,-129"/>
<text text-anchor="middle" x="872.27" y="-117" font-family="Helvetica,sans-Serif" font-size="10.00">memory</text>
</a>
</g>
</g>
<!-- Node25&#45;&gt;Node26 -->
<g id="edge27_Node000025_Node000026" class="edge">
<title>Node25&#45;&gt;Node26</title>
<g id="a_edge27_Node000025_Node000026"><a xlink:title=" ">
<path fill="none" stroke="#63b8ff" d="M872.27,-164.75C872.27,-157.8 872.27,-147.85 872.27,-139.13"/>
<polygon fill="#63b8ff" stroke="#63b8ff" points="875.77,-139.09 872.27,-129.09 868.77,-139.09 875.77,-139.09"/>
</a>
</g>
</g>
<!-- Node27 -->
<g id="Node000027" class="node">
<title>Node27</title>
<g id="a_Node000027"><a xlink:title=" ">
<polygon fill="#e0e0e0" stroke="#999999" points="1052.77,-129 919.77,-129 919.77,-110 1052.77,-110 1052.77,-129"/>
<text text-anchor="middle" x="986.27" y="-117" font-family="Helvetica,sans-Serif" font-size="10.00">opencv2/core/types.hpp</text>
</a>
</g>
</g>
<!-- Node25&#45;&gt;Node27 -->
<g id="edge28_Node000025_Node000027" class="edge">
<title>Node25&#45;&gt;Node27</title>
<g id="a_edge28_Node000025_Node000027"><a xlink:title=" ">
<path fill="none" stroke="#63b8ff" d="M890.58,-164.98C908.92,-156.46 937.38,-143.23 958.49,-133.41"/>
<polygon fill="#63b8ff" stroke="#63b8ff" points="960.03,-136.56 967.62,-129.17 957.07,-130.21 960.03,-136.56"/>
</a>
</g>
</g>
<!-- Node29 -->
<g id="Node000029" class="node">
<title>Node29</title>
<g id="a_Node000029"><a xlink:title=" ">
<polygon fill="#e0e0e0" stroke="#999999" points="503.77,-305 378.77,-305 378.77,-286 503.77,-286 503.77,-305"/>
<text text-anchor="middle" x="441.27" y="-293" font-family="Helvetica,sans-Serif" font-size="10.00">opencv2/core/mat.hpp</text>
</a>
</g>
</g>
<!-- Node28&#45;&gt;Node29 -->
<g id="edge31_Node000028_Node000029" class="edge">
<title>Node28&#45;&gt;Node29</title>
<g id="a_edge31_Node000028_Node000029"><a xlink:title=" ">
<path fill="none" stroke="#63b8ff" d="M479.63,-346.37C472.98,-337.73 462.58,-324.2 454.28,-313.42"/>
<polygon fill="#63b8ff" stroke="#63b8ff" points="456.81,-310.96 447.93,-305.17 451.26,-315.23 456.81,-310.96"/>
</a>
</g>
</g>
<!-- Node30&#45;&gt;Node29 -->
<g id="edge33_Node000030_Node000029" class="edge">
<title>Node30&#45;&gt;Node29</title>
<g id="a_edge33_Node000030_Node000029"><a xlink:title=" ">
<path fill="none" stroke="#63b8ff" d="M437.56,-406.93C428.33,-398.8 415.68,-385.68 410.27,-371 405.65,-358.49 406.27,-353.72 410.27,-341 413.5,-330.71 420.05,-320.72 426.29,-312.82"/>
<polygon fill="#63b8ff" stroke="#63b8ff" points="428.99,-315.04 432.79,-305.15 423.65,-310.52 428.99,-315.04"/>
</a>
</g>
</g>
<!-- Node31&#45;&gt;Node4 -->
<g id="edge43_Node000031_Node000004" class="edge">
<title>Node31&#45;&gt;Node4</title>
<g id="a_edge43_Node000031_Node000004"><a xlink:title=" ">
<path fill="none" stroke="#63b8ff" d="M727.45,-340.99C704.8,-331.31 674.92,-318.56 652.97,-309.18"/>
<polygon fill="#63b8ff" stroke="#63b8ff" points="654.07,-305.85 643.5,-305.14 651.32,-312.29 654.07,-305.85"/>
</a>
</g>
</g>
<!-- Node32 -->
<g id="Node000032" class="node">
<title>Node32</title>
<g id="a_Node000032"><a xlink:href="../../db/d0f/kalman_8hpp.html" target="_top" xlink:title="包含轻量级 cv::Matx 的卡尔曼滤波模块">
<polygon fill="white" stroke="#666666" points="824.77,-305 701.77,-305 701.77,-286 824.77,-286 824.77,-305"/>
<text text-anchor="middle" x="763.27" y="-293" font-family="Helvetica,sans-Serif" font-size="10.00">rmvl/core/kalman.hpp</text>
</a>
</g>
</g>
<!-- Node31&#45;&gt;Node32 -->
<g id="edge35_Node000031_Node000032" class="edge">
<title>Node31&#45;&gt;Node32</title>
<g id="a_edge35_Node000031_Node000032"><a xlink:title=" ">
<path fill="none" stroke="#63b8ff" d="M760.99,-340.84C761.38,-333.21 761.87,-323.7 762.3,-315.45"/>
<polygon fill="#63b8ff" stroke="#63b8ff" points="765.8,-315.43 762.82,-305.27 758.81,-315.07 765.8,-315.43"/>
</a>
</g>
</g>
<!-- Node34 -->
<g id="Node000034" class="node">
<title>Node34</title>
<g id="a_Node000034"><a xlink:href="../../dd/d92/combo_2armor_8h.html" target="_top" xlink:title="装甲板类头文件">
<polygon fill="white" stroke="#666666" points="959.27,-305 843.27,-305 843.27,-286 959.27,-286 959.27,-305"/>
<text text-anchor="middle" x="901.27" y="-293" font-family="Helvetica,sans-Serif" font-size="10.00">rmvl/combo/armor.h</text>
</a>
</g>
</g>
<!-- Node31&#45;&gt;Node34 -->
<g id="edge38_Node000031_Node000034" class="edge">
<title>Node31&#45;&gt;Node34</title>
<g id="a_edge38_Node000031_Node000034"><a xlink:title=" ">
<path fill="none" stroke="#63b8ff" d="M794.04,-340.99C817.46,-331.27 848.38,-318.44 871,-309.06"/>
<polygon fill="#63b8ff" stroke="#63b8ff" points="872.55,-312.2 880.44,-305.14 869.87,-305.74 872.55,-312.2"/>
</a>
</g>
</g>
<!-- Node32&#45;&gt;Node8 -->
<g id="edge37_Node000032_Node000008" class="edge">
<title>Node32&#45;&gt;Node8</title>
<g id="a_edge37_Node000032_Node000008"><a xlink:title=" ">
<path fill="none" stroke="#63b8ff" d="M762.42,-285.84C759.9,-263.82 750.82,-204.59 723.27,-165 714.6,-152.55 701.38,-142.02 689.75,-134.34"/>
<polygon fill="#63b8ff" stroke="#63b8ff" points="691.61,-131.37 681.27,-129.03 687.89,-137.3 691.61,-131.37"/>
</a>
</g>
</g>
<!-- Node33 -->
<g id="Node000033" class="node">
<title>Node33</title>
<g id="a_Node000033"><a xlink:title=" ">
<polygon fill="#e0e0e0" stroke="#999999" points="835.77,-244.5 770.77,-244.5 770.77,-225.5 835.77,-225.5 835.77,-244.5"/>
<text text-anchor="middle" x="803.27" y="-232.5" font-family="Helvetica,sans-Serif" font-size="10.00">functional</text>
</a>
</g>
</g>
<!-- Node32&#45;&gt;Node33 -->
<g id="edge36_Node000032_Node000033" class="edge">
<title>Node32&#45;&gt;Node33</title>
<g id="a_edge36_Node000032_Node000033"><a xlink:title=" ">
<path fill="none" stroke="#63b8ff" d="M769.17,-285.87C775.02,-277.31 784.14,-263.97 791.48,-253.24"/>
<polygon fill="#63b8ff" stroke="#63b8ff" points="794.59,-254.9 797.34,-244.67 788.81,-250.95 794.59,-254.9"/>
</a>
</g>
</g>
<!-- Node34&#45;&gt;Node6 -->
<g id="edge40_Node000034_Node000006" class="edge">
<title>Node34&#45;&gt;Node6</title>
<g id="a_edge40_Node000034_Node000006"><a xlink:title=" ">
<path fill="none" stroke="#63b8ff" d="M864.33,-285.99C819.37,-275.64 743.39,-258.14 694.29,-246.83"/>
<polygon fill="#63b8ff" stroke="#63b8ff" points="694.78,-243.35 684.25,-244.52 693.21,-250.17 694.78,-243.35"/>
</a>
</g>
</g>
<!-- Node35 -->
<g id="Node000035" class="node">
<title>Node35</title>
<g id="a_Node000035"><a xlink:title=" ">
<polygon fill="#e0e0e0" stroke="#999999" points="948.77,-244.5 853.77,-244.5 853.77,-225.5 948.77,-225.5 948.77,-244.5"/>
<text text-anchor="middle" x="901.27" y="-232.5" font-family="Helvetica,sans-Serif" font-size="10.00">opencv2/ml.hpp</text>
</a>
</g>
</g>
<!-- Node34&#45;&gt;Node35 -->
<g id="edge39_Node000034_Node000035" class="edge">
<title>Node34&#45;&gt;Node35</title>
<g id="a_edge39_Node000034_Node000035"><a xlink:title=" ">
<path fill="none" stroke="#63b8ff" d="M901.27,-285.87C901.27,-277.75 901.27,-265.31 901.27,-254.89"/>
<polygon fill="#63b8ff" stroke="#63b8ff" points="904.77,-254.67 901.27,-244.67 897.77,-254.67 904.77,-254.67"/>
</a>
</g>
</g>
<!-- Node36 -->
<g id="Node000036" class="node">
<title>Node36</title>
<g id="a_Node000036"><a xlink:href="../../d4/d54/feature_2light__blob_8h.html" target="_top" xlink:title="灯条类头文件">
<polygon fill="white" stroke="#666666" points="1069.27,-250 967.27,-250 967.27,-220 1069.27,-220 1069.27,-250"/>
<text text-anchor="start" x="975.27" y="-238" font-family="Helvetica,sans-Serif" font-size="10.00">rmvl/feature/light</text>
<text text-anchor="middle" x="1018.27" y="-227" font-family="Helvetica,sans-Serif" font-size="10.00">_blob.h</text>
</a>
</g>
</g>
<!-- Node34&#45;&gt;Node36 -->
<g id="edge41_Node000034_Node000036" class="edge">
<title>Node34&#45;&gt;Node36</title>
<g id="a_edge41_Node000034_Node000036"><a xlink:title=" ">
<path fill="none" stroke="#63b8ff" d="M918.28,-285.99C934.62,-277.82 959.86,-265.2 980.89,-254.69"/>
<polygon fill="#63b8ff" stroke="#63b8ff" points="982.53,-257.78 989.91,-250.18 979.4,-251.52 982.53,-257.78"/>
</a>
</g>
</g>
<!-- Node36&#45;&gt;Node25 -->
<g id="edge42_Node000036_Node000025" class="edge">
<title>Node36&#45;&gt;Node25</title>
<g id="a_edge42_Node000036_Node000025"><a xlink:title=" ">
<path fill="none" stroke="#63b8ff" d="M983.3,-219.99C958.94,-210.23 926.74,-197.33 903.29,-187.93"/>
<polygon fill="#63b8ff" stroke="#63b8ff" points="904.41,-184.61 893.83,-184.14 901.81,-191.11 904.41,-184.61"/>
</a>
</g>
</g>
</g>
</svg>

<g id="navigator" transform="translate(0 0)" fill="#404254">
  <rect fill="#f2f5e9" fill-opacity="0.5" stroke="#606060" stroke-width=".5" x="0" y="0" width="60" height="60"/>
  <use id="zoomplus" xlink:href="#zoomPlus" x="17" y="9" onmousedown="handleZoom(evt,'in')"/>
  <use id="zoomminus" xlink:href="#zoomMin" x="42" y="9" onmousedown="handleZoom(evt,'out')"/>
  <use id="reset" xlink:href="#resetDef" x="30" y="36" onmousedown="handleReset()"/>
   <use id="arrowup" xlink:href="#arrowUp" x="0" y="0" onmousedown="handlePan(0,-1)"/>
  <use id="arrowright" xlink:href="#arrowRight" x="0" y="0" onmousedown="handlePan(1,0)"/>
  <use id="arrowdown" xlink:href="#arrowDown" x="0" y="0" onmousedown="handlePan(0,1)"/>
  <use id="arrowleft" xlink:href="#arrowLeft" x="0" y="0" onmousedown="handlePan(-1,0)"/>
</g>
<svg viewBox="0 0 15 15" width="100%" height="30px" preserveAspectRatio="xMaxYMin meet">
 <g id="arrow_out" transform="scale(0.3 0.3)">
  <a xlink:href="detector_2armor__detector_8h__incl_org.svg" target="_base">
   <rect id="button" ry="5" rx="5" y="6" x="6" height="38" width="38"
        fill="#f2f5e9" fill-opacity="0.5" stroke="#606060" stroke-width="1.0"/>
   <path id="arrow"
     d="M 11.500037,31.436501 C 11.940474,20.09759 22.043105,11.32322 32.158766,21.979434 L 37.068811,17.246167 C 37.068811,17.246167 37.088388,32 37.088388,32 L 22.160133,31.978069 C 22.160133,31.978069 26.997745,27.140456 26.997745,27.140456 C 18.528582,18.264221 13.291696,25.230495 11.500037,31.436501 z"
     style="fill:#404040;"/>
  </a>
 </g>
</svg>

<style type='text/css'>
<![CDATA[
[data-mouse-over-selected='false'] { opacity: 0.7; }
[data-mouse-over-selected='true']  { opacity: 1.0; }
]]>
</style>
<script type="application/ecmascript"><![CDATA[
document.addEventListener('DOMContentLoaded', (event) => {
  highlightEdges();
  highlightAdjacentNodes();
});
]]></script>
</svg>
