<?xml version="1.0" encoding="UTF-8" standalone="no"?>
<!DOCTYPE svg PUBLIC "-//W3C//DTD SVG 1.1//EN"
 "http://www.w3.org/Graphics/SVG/1.1/DTD/svg11.dtd">
<!-- Generated by graphviz version 2.43.0 (0)
 -->
<!-- Title: rm::async::Timer Pages: 1 -->
<svg width="117pt" height="187pt"
 viewBox="0.00 0.00 117.00 187.00" xmlns="http://www.w3.org/2000/svg" xmlns:xlink="http://www.w3.org/1999/xlink">
<g id="graph0" class="graph" transform="scale(1 1) rotate(0) translate(4 183)">
<title>rm::async::Timer</title>
<!-- Node1 -->
<g id="Node000001" class="node">
<title>Node1</title>
<g id="a_Node000001"><a xlink:title="异步定时器">
<polygon fill="#999999" stroke="transparent" points="97,-179 12,-179 12,-85 97,-85 97,-179"/>
<text text-anchor="start" x="17.5" y="-167" font-family="Helvetica,sans-Serif" font-size="10.00">rm::async::Timer</text>
<text text-anchor="start" x="53" y="-152" font-family="Helvetica,sans-Serif" font-size="10.00"> </text>
<text text-anchor="start" x="19.5" y="-137" font-family="Helvetica,sans-Serif" font-size="10.00">+</text>
<text text-anchor="start" x="33.5" y="-137" font-family="Helvetica,sans-Serif" font-size="10.00">Timer()</text>
<text text-anchor="start" x="19.5" y="-122" font-family="Helvetica,sans-Serif" font-size="10.00">+</text>
<text text-anchor="start" x="33.5" y="-122" font-family="Helvetica,sans-Serif" font-size="10.00">~Timer()</text>
<text text-anchor="start" x="19.5" y="-107" font-family="Helvetica,sans-Serif" font-size="10.00">+</text>
<text text-anchor="start" x="33.5" y="-107" font-family="Helvetica,sans-Serif" font-size="10.00">sleep_for()</text>
<text text-anchor="start" x="19.5" y="-92" font-family="Helvetica,sans-Serif" font-size="10.00">+</text>
<text text-anchor="start" x="33.5" y="-92" font-family="Helvetica,sans-Serif" font-size="10.00">sleep_until()</text>
<polygon fill="#666666" stroke="#666666" points="12.5,-162 12.5,-162 97.5,-162 97.5,-162 12.5,-162"/>
<polygon fill="#666666" stroke="#666666" points="12.5,-147 12.5,-147 97.5,-147 97.5,-147 12.5,-147"/>
<polygon fill="none" stroke="#666666" points="12,-85 12,-179 97,-179 97,-85 12,-85"/>
</a>
</g>
</g>
<!-- Node2 -->
<g id="Node000002" class="node">
<title>Node2</title>
<g id="a_Node000002"><a xlink:href="../../d2/dd6/classrm_1_1lpss_1_1async_1_1Timer.html" target="_top" xlink:title="异步定时器代理">
<polygon fill="white" stroke="transparent" points="109,-49 0,-49 0,0 109,0 109,-49"/>
<text text-anchor="start" x="5.5" y="-36.5" font-family="Helvetica,sans-Serif" font-size="10.00">rm::lpss::async::Timer</text>
<text text-anchor="start" x="53" y="-21.5" font-family="Helvetica,sans-Serif" font-size="10.00"> </text>
<text text-anchor="start" x="53" y="-6.5" font-family="Helvetica,sans-Serif" font-size="10.00"> </text>
<polygon fill="#666666" stroke="#666666" points="0.5,-31.5 0.5,-31.5 109.5,-31.5 109.5,-31.5 0.5,-31.5"/>
<polygon fill="#666666" stroke="#666666" points="0.5,-16.5 0.5,-16.5 109.5,-16.5 109.5,-16.5 0.5,-16.5"/>
<polygon fill="none" stroke="#666666" points="0,0 0,-49 109,-49 109,0 0,0"/>
</a>
</g>
</g>
<!-- Node1&#45;&gt;Node2 -->
<g id="edge1_Node000001_Node000002" class="edge">
<title>Node1&#45;&gt;Node2</title>
<g id="a_edge1_Node000001_Node000002"><a xlink:title=" ">
<path fill="none" stroke="#63b8ff" d="M54.5,-74.59C54.5,-65.62 54.5,-56.79 54.5,-49.15"/>
<polygon fill="none" stroke="#63b8ff" points="51,-74.73 54.5,-84.73 58,-74.73 51,-74.73"/>
</a>
</g>
</g>
</g>
</svg>
