<?xml version="1.0" encoding="UTF-8" standalone="no"?>
<!DOCTYPE svg PUBLIC "-//W3C//DTD SVG 1.1//EN"
 "http://www.w3.org/Graphics/SVG/1.1/DTD/svg11.dtd">
<!-- Generated by graphviz version 2.43.0 (0)
 -->
<!-- Title: rm::KalmanFilter&lt; Tp, StateDim, MeasureDim &gt; Pages: 1 -->
<svg width="731pt" height="450pt"
 viewBox="0.00 0.00 730.50 450.00" xmlns="http://www.w3.org/2000/svg" xmlns:xlink="http://www.w3.org/1999/xlink">
<g id="graph0" class="graph" transform="scale(1 1) rotate(0) translate(4 446)">
<title>rm::KalmanFilter&lt; Tp, StateDim, MeasureDim &gt;</title>
<!-- Node1 -->
<g id="Node000001" class="node">
<title>Node1</title>
<g id="a_Node000001"><a xlink:title="卡尔曼滤波器">
<polygon fill="#999999" stroke="transparent" points="576,-120 437,-120 437,0 576,0 576,-120"/>
<text text-anchor="start" x="442.5" y="-108" font-family="Helvetica,sans-Serif" font-size="10.00">rm::KalmanFilter&lt; Tp,</text>
<text text-anchor="start" x="442.5" y="-97" font-family="Helvetica,sans-Serif" font-size="10.00"> StateDim, MeasureDim &gt;</text>
<text text-anchor="start" x="505" y="-82" font-family="Helvetica,sans-Serif" font-size="10.00"> </text>
<text text-anchor="start" x="453.5" y="-67" font-family="Helvetica,sans-Serif" font-size="10.00">+</text>
<text text-anchor="start" x="478.5" y="-67" font-family="Helvetica,sans-Serif" font-size="10.00">KalmanFilter()</text>
<text text-anchor="start" x="453.5" y="-52" font-family="Helvetica,sans-Serif" font-size="10.00">+</text>
<text text-anchor="start" x="478.5" y="-52" font-family="Helvetica,sans-Serif" font-size="10.00">setA()</text>
<text text-anchor="start" x="453.5" y="-37" font-family="Helvetica,sans-Serif" font-size="10.00">+</text>
<text text-anchor="start" x="478.5" y="-37" font-family="Helvetica,sans-Serif" font-size="10.00">setH()</text>
<text text-anchor="start" x="453.5" y="-22" font-family="Helvetica,sans-Serif" font-size="10.00">+</text>
<text text-anchor="start" x="478.5" y="-22" font-family="Helvetica,sans-Serif" font-size="10.00">predict()</text>
<text text-anchor="start" x="453.5" y="-7" font-family="Helvetica,sans-Serif" font-size="10.00">+</text>
<text text-anchor="start" x="478.5" y="-7" font-family="Helvetica,sans-Serif" font-size="10.00">correct()</text>
<polygon fill="#666666" stroke="#666666" points="437.5,-92 437.5,-92 576.5,-92 576.5,-92 437.5,-92"/>
<polygon fill="#666666" stroke="#666666" points="437.5,-77 437.5,-77 576.5,-77 576.5,-77 437.5,-77"/>
<polygon fill="none" stroke="#666666" points="437,0 437,-120 576,-120 576,0 437,0"/>
</a>
</g>
</g>
<!-- Node2 -->
<g id="Node000002" class="node">
<title>Node2</title>
<g id="a_Node000002"><a xlink:href="../../df/d1a/classrm_1_1KalmanFilterStaticDatas.html" target="_top" xlink:title="卡尔曼滤波静态数据">
<polygon fill="white" stroke="transparent" points="486,-302 321,-302 321,-167 486,-167 486,-302"/>
<text text-anchor="start" x="326.5" y="-289.5" font-family="Helvetica,sans-Serif" font-size="10.00">rm::KalmanFilterStaticDatas</text>
<text text-anchor="start" x="326.5" y="-278.5" font-family="Helvetica,sans-Serif" font-size="10.00">&lt; Tp, StateDim, MeasureDim &gt;</text>
<text text-anchor="start" x="402" y="-263.5" font-family="Helvetica,sans-Serif" font-size="10.00"> </text>
<text text-anchor="start" x="329.5" y="-248.5" font-family="Helvetica,sans-Serif" font-size="10.00">+</text>
<text text-anchor="start" x="346.5" y="-248.5" font-family="Helvetica,sans-Serif" font-size="10.00">KalmanFilterStaticDatas()</text>
<text text-anchor="start" x="329.5" y="-233.5" font-family="Helvetica,sans-Serif" font-size="10.00">+</text>
<text text-anchor="start" x="346.5" y="-233.5" font-family="Helvetica,sans-Serif" font-size="10.00">init()</text>
<text text-anchor="start" x="329.5" y="-218.5" font-family="Helvetica,sans-Serif" font-size="10.00">+</text>
<text text-anchor="start" x="346.5" y="-218.5" font-family="Helvetica,sans-Serif" font-size="10.00">init()</text>
<text text-anchor="start" x="329.5" y="-203.5" font-family="Helvetica,sans-Serif" font-size="10.00">+</text>
<text text-anchor="start" x="346.5" y="-203.5" font-family="Helvetica,sans-Serif" font-size="10.00">setR()</text>
<text text-anchor="start" x="329.5" y="-188.5" font-family="Helvetica,sans-Serif" font-size="10.00">+</text>
<text text-anchor="start" x="346.5" y="-188.5" font-family="Helvetica,sans-Serif" font-size="10.00">setQ()</text>
<text text-anchor="start" x="329.5" y="-173.5" font-family="Helvetica,sans-Serif" font-size="10.00">+</text>
<text text-anchor="start" x="346.5" y="-173.5" font-family="Helvetica,sans-Serif" font-size="10.00">setP()</text>
<polygon fill="#666666" stroke="#666666" points="321.5,-273.5 321.5,-273.5 486.5,-273.5 486.5,-273.5 321.5,-273.5"/>
<polygon fill="#666666" stroke="#666666" points="321.5,-258.5 321.5,-258.5 486.5,-258.5 486.5,-258.5 321.5,-258.5"/>
<polygon fill="none" stroke="#666666" points="321,-167 321,-302 486,-302 486,-167 321,-167"/>
</a>
</g>
</g>
<!-- Node2&#45;&gt;Node1 -->
<g id="edge1_Node000001_Node000002" class="edge">
<title>Node2&#45;&gt;Node1</title>
<g id="a_edge1_Node000001_Node000002"><a xlink:title=" ">
<path fill="none" stroke="#63b8ff" d="M448.53,-158.09C456.1,-145.4 463.87,-132.4 471.15,-120.2"/>
<polygon fill="none" stroke="#63b8ff" points="445.44,-156.43 443.32,-166.81 451.45,-160.02 445.44,-156.43"/>
</a>
</g>
</g>
<!-- Node3 -->
<g id="Node000003" class="node">
<title>Node3</title>
<g id="a_Node000003"><a xlink:title=" ">
<polygon fill="white" stroke="transparent" points="413.5,-436.5 279.5,-436.5 279.5,-387.5 413.5,-387.5 413.5,-436.5"/>
<text text-anchor="start" x="284.5" y="-424" font-family="Helvetica,sans-Serif" font-size="10.00">Matx&lt; Tp, StateDim, 1 &gt;</text>
<text text-anchor="start" x="344.5" y="-409" font-family="Helvetica,sans-Serif" font-size="10.00"> </text>
<text text-anchor="start" x="344.5" y="-394" font-family="Helvetica,sans-Serif" font-size="10.00"> </text>
<polygon fill="#666666" stroke="#666666" points="279.5,-419 279.5,-419 413.5,-419 413.5,-419 279.5,-419"/>
<polygon fill="#666666" stroke="#666666" points="279.5,-404 279.5,-404 413.5,-404 413.5,-404 279.5,-404"/>
<polygon fill="none" stroke="#666666" points="279.5,-387.5 279.5,-436.5 413.5,-436.5 413.5,-387.5 279.5,-387.5"/>
</a>
</g>
</g>
<!-- Node3&#45;&gt;Node2 -->
<g id="edge2_Node000002_Node000003" class="edge">
<title>Node3&#45;&gt;Node2</title>
<g id="a_edge2_Node000002_Node000003"><a xlink:title=" ">
<path fill="none" stroke="#63b8ff" d="M354.19,-387.33C360.35,-368.34 369.38,-340.55 378.03,-313.91"/>
<polygon fill="none" stroke="#63b8ff" points="378.13,-313.61 376.18,-306.67 381.84,-302.2 383.79,-309.14 378.13,-313.61"/>
</a>
</g>
<text text-anchor="middle" x="385.5" y="-345" font-family="Helvetica,sans-Serif" font-size="10.00" fill="grey"> #x</text>
<text text-anchor="middle" x="385.5" y="-334" font-family="Helvetica,sans-Serif" font-size="10.00" fill="grey">#x_</text>
</g>
<!-- Node4 -->
<g id="Node000004" class="node">
<title>Node4</title>
<g id="a_Node000004"><a xlink:title=" ">
<polygon fill="white" stroke="transparent" points="581.5,-436.5 431.5,-436.5 431.5,-387.5 581.5,-387.5 581.5,-436.5"/>
<text text-anchor="start" x="436.5" y="-424" font-family="Helvetica,sans-Serif" font-size="10.00">Matx&lt; Tp, MeasureDim, 1 &gt;</text>
<text text-anchor="start" x="504.5" y="-409" font-family="Helvetica,sans-Serif" font-size="10.00"> </text>
<text text-anchor="start" x="504.5" y="-394" font-family="Helvetica,sans-Serif" font-size="10.00"> </text>
<polygon fill="#666666" stroke="#666666" points="431.5,-419 431.5,-419 581.5,-419 581.5,-419 431.5,-419"/>
<polygon fill="#666666" stroke="#666666" points="431.5,-404 431.5,-404 581.5,-404 581.5,-404 431.5,-404"/>
<polygon fill="none" stroke="#666666" points="431.5,-387.5 431.5,-436.5 581.5,-436.5 581.5,-387.5 431.5,-387.5"/>
</a>
</g>
</g>
<!-- Node4&#45;&gt;Node2 -->
<g id="edge3_Node000002_Node000004" class="edge">
<title>Node4&#45;&gt;Node2</title>
<g id="a_edge3_Node000002_Node000004"><a xlink:title=" ">
<path fill="none" stroke="#63b8ff" d="M492.21,-387.11C487.8,-379.71 482.94,-371.53 478.5,-364 468.72,-347.42 458.28,-329.6 448.39,-312.67"/>
<polygon fill="none" stroke="#63b8ff" points="448.36,-312.62 441.88,-309.46 442.31,-302.26 448.79,-305.43 448.36,-312.62"/>
</a>
</g>
<text text-anchor="middle" x="487" y="-339.5" font-family="Helvetica,sans-Serif" font-size="10.00" fill="grey"> #z</text>
</g>
<!-- Node5 -->
<g id="Node000005" class="node">
<title>Node5</title>
<g id="a_Node000005"><a xlink:title=" ">
<polygon fill="white" stroke="transparent" points="113,-442 0,-442 0,-382 113,-382 113,-442"/>
<text text-anchor="start" x="5.5" y="-430" font-family="Helvetica,sans-Serif" font-size="10.00">Matx&lt; Tp, StateDim,</text>
<text text-anchor="start" x="26.5" y="-419" font-family="Helvetica,sans-Serif" font-size="10.00"> StateDim &gt;</text>
<text text-anchor="start" x="55" y="-404" font-family="Helvetica,sans-Serif" font-size="10.00"> </text>
<text text-anchor="start" x="55" y="-389" font-family="Helvetica,sans-Serif" font-size="10.00"> </text>
<polygon fill="#666666" stroke="#666666" points="0.5,-414 0.5,-414 113.5,-414 113.5,-414 0.5,-414"/>
<polygon fill="#666666" stroke="#666666" points="0.5,-399 0.5,-399 113.5,-399 113.5,-399 0.5,-399"/>
<polygon fill="none" stroke="#666666" points="0,-382 0,-442 113,-442 113,-382 0,-382"/>
</a>
</g>
</g>
<!-- Node5&#45;&gt;Node1 -->
<g id="edge7_Node000001_Node000005" class="edge">
<title>Node5&#45;&gt;Node1</title>
<g id="a_edge7_Node000001_Node000005"><a xlink:title=" ">
<path fill="none" stroke="#63b8ff" d="M84.64,-381.9C101.91,-364.04 124.48,-340.69 144.5,-320 210.27,-252 216.11,-222.81 292.5,-167 333.29,-137.2 383.72,-111.76 425.38,-93.27"/>
<polygon fill="none" stroke="#63b8ff" points="425.61,-93.17 429.5,-87.11 436.6,-88.37 432.71,-94.44 425.61,-93.17"/>
</a>
</g>
<text text-anchor="middle" x="302" y="-237.5" font-family="Helvetica,sans-Serif" font-size="10.00" fill="grey"> #A</text>
<text text-anchor="middle" x="302" y="-226.5" font-family="Helvetica,sans-Serif" font-size="10.00" fill="grey">#At</text>
</g>
<!-- Node5&#45;&gt;Node2 -->
<g id="edge4_Node000002_Node000005" class="edge">
<title>Node5&#45;&gt;Node2</title>
<g id="a_edge4_Node000002_Node000005"><a xlink:title=" ">
<path fill="none" stroke="#63b8ff" d="M110.46,-381.8C144.22,-363.69 188.71,-340.13 228.5,-320 254.71,-306.74 283.34,-292.73 309.7,-280.01"/>
<polygon fill="none" stroke="#63b8ff" points="310.03,-279.85 313.7,-273.64 320.85,-274.64 317.17,-280.85 310.03,-279.85"/>
</a>
</g>
<text text-anchor="middle" x="238.5" y="-356" font-family="Helvetica,sans-Serif" font-size="10.00" fill="grey"> #I</text>
<text text-anchor="middle" x="238.5" y="-345" font-family="Helvetica,sans-Serif" font-size="10.00" fill="grey">#P</text>
<text text-anchor="middle" x="238.5" y="-334" font-family="Helvetica,sans-Serif" font-size="10.00" fill="grey">#P_</text>
<text text-anchor="middle" x="238.5" y="-323" font-family="Helvetica,sans-Serif" font-size="10.00" fill="grey">#Q</text>
</g>
<!-- Node6 -->
<g id="Node000006" class="node">
<title>Node6</title>
<g id="a_Node000006"><a xlink:title=" ">
<polygon fill="white" stroke="transparent" points="261.5,-442 131.5,-442 131.5,-382 261.5,-382 261.5,-442"/>
<text text-anchor="start" x="136.5" y="-430" font-family="Helvetica,sans-Serif" font-size="10.00">Matx&lt; Tp, MeasureDim,</text>
<text text-anchor="start" x="158" y="-419" font-family="Helvetica,sans-Serif" font-size="10.00"> MeasureDim &gt;</text>
<text text-anchor="start" x="194.5" y="-404" font-family="Helvetica,sans-Serif" font-size="10.00"> </text>
<text text-anchor="start" x="194.5" y="-389" font-family="Helvetica,sans-Serif" font-size="10.00"> </text>
<polygon fill="#666666" stroke="#666666" points="131.5,-414 131.5,-414 261.5,-414 261.5,-414 131.5,-414"/>
<polygon fill="#666666" stroke="#666666" points="131.5,-399 131.5,-399 261.5,-399 261.5,-399 131.5,-399"/>
<polygon fill="none" stroke="#666666" points="131.5,-382 131.5,-442 261.5,-442 261.5,-382 131.5,-382"/>
</a>
</g>
</g>
<!-- Node6&#45;&gt;Node2 -->
<g id="edge5_Node000002_Node000006" class="edge">
<title>Node6&#45;&gt;Node2</title>
<g id="a_edge5_Node000002_Node000006"><a xlink:title=" ">
<path fill="none" stroke="#63b8ff" d="M231.15,-381.63C254.3,-361.99 285.87,-335.23 315.67,-309.97"/>
<polygon fill="none" stroke="#63b8ff" points="315.69,-309.94 317.68,-303.01 324.85,-302.18 322.86,-309.11 315.69,-309.94"/>
</a>
</g>
<text text-anchor="middle" x="310" y="-339.5" font-family="Helvetica,sans-Serif" font-size="10.00" fill="grey"> #R</text>
</g>
<!-- Node7 -->
<g id="Node000007" class="node">
<title>Node7</title>
<g id="a_Node000007"><a xlink:title=" ">
<polygon fill="white" stroke="transparent" points="713,-442 600,-442 600,-382 713,-382 713,-442"/>
<text text-anchor="start" x="605.5" y="-430" font-family="Helvetica,sans-Serif" font-size="10.00">Matx&lt; Tp, StateDim,</text>
<text text-anchor="start" x="618.5" y="-419" font-family="Helvetica,sans-Serif" font-size="10.00"> MeasureDim &gt;</text>
<text text-anchor="start" x="655" y="-404" font-family="Helvetica,sans-Serif" font-size="10.00"> </text>
<text text-anchor="start" x="655" y="-389" font-family="Helvetica,sans-Serif" font-size="10.00"> </text>
<polygon fill="#666666" stroke="#666666" points="600.5,-414 600.5,-414 713.5,-414 713.5,-414 600.5,-414"/>
<polygon fill="#666666" stroke="#666666" points="600.5,-399 600.5,-399 713.5,-399 713.5,-399 600.5,-399"/>
<polygon fill="none" stroke="#666666" points="600,-382 600,-442 713,-442 713,-382 600,-382"/>
</a>
</g>
</g>
<!-- Node7&#45;&gt;Node1 -->
<g id="edge9_Node000001_Node000007" class="edge">
<title>Node7&#45;&gt;Node1</title>
<g id="a_edge9_Node000001_Node000007"><a xlink:title=" ">
<path fill="none" stroke="#63b8ff" d="M623.26,-381.75C602.19,-361.41 576.07,-332.56 560.5,-302 533.3,-248.62 519.7,-181.71 512.97,-131.95"/>
<polygon fill="none" stroke="#63b8ff" points="512.96,-131.91 508.23,-126.47 511.44,-120.01 516.17,-125.45 512.96,-131.91"/>
</a>
</g>
<text text-anchor="middle" x="572" y="-232" font-family="Helvetica,sans-Serif" font-size="10.00" fill="grey"> #Ht</text>
</g>
<!-- Node7&#45;&gt;Node2 -->
<g id="edge6_Node000002_Node000007" class="edge">
<title>Node7&#45;&gt;Node2</title>
<g id="a_edge6_Node000002_Node000007"><a xlink:title=" ">
<path fill="none" stroke="#63b8ff" d="M599.86,-385.39C596.71,-384.19 593.58,-383.05 590.5,-382 559.29,-371.33 544.41,-384.41 518.5,-364 501.16,-350.35 508.94,-337.5 495.5,-320 493.26,-317.08 490.92,-314.18 488.49,-311.31"/>
<polygon fill="none" stroke="#63b8ff" points="488.42,-311.23 481.45,-309.38 480.48,-302.23 487.45,-304.08 488.42,-311.23"/>
</a>
</g>
<text text-anchor="middle" x="528" y="-339.5" font-family="Helvetica,sans-Serif" font-size="10.00" fill="grey"> #K</text>
</g>
<!-- Node8 -->
<g id="Node000008" class="node">
<title>Node8</title>
<g id="a_Node000008"><a xlink:title=" ">
<polygon fill="white" stroke="transparent" points="722.5,-264.5 592.5,-264.5 592.5,-204.5 722.5,-204.5 722.5,-264.5"/>
<text text-anchor="start" x="597.5" y="-252.5" font-family="Helvetica,sans-Serif" font-size="10.00">Matx&lt; Tp, MeasureDim,</text>
<text text-anchor="start" x="627" y="-241.5" font-family="Helvetica,sans-Serif" font-size="10.00"> StateDim &gt;</text>
<text text-anchor="start" x="655.5" y="-226.5" font-family="Helvetica,sans-Serif" font-size="10.00"> </text>
<text text-anchor="start" x="655.5" y="-211.5" font-family="Helvetica,sans-Serif" font-size="10.00"> </text>
<polygon fill="#666666" stroke="#666666" points="592.5,-236.5 592.5,-236.5 722.5,-236.5 722.5,-236.5 592.5,-236.5"/>
<polygon fill="#666666" stroke="#666666" points="592.5,-221.5 592.5,-221.5 722.5,-221.5 722.5,-221.5 592.5,-221.5"/>
<polygon fill="none" stroke="#666666" points="592.5,-204.5 592.5,-264.5 722.5,-264.5 722.5,-204.5 592.5,-204.5"/>
</a>
</g>
</g>
<!-- Node8&#45;&gt;Node1 -->
<g id="edge8_Node000001_Node000008" class="edge">
<title>Node8&#45;&gt;Node1</title>
<g id="a_edge8_Node000001_Node000008"><a xlink:title=" ">
<path fill="none" stroke="#63b8ff" d="M631.88,-204.24C613.9,-183.69 589.07,-155.32 566.25,-129.26"/>
<polygon fill="none" stroke="#63b8ff" points="566.18,-129.18 559.22,-127.3 558.28,-120.15 565.24,-122.03 566.18,-129.18"/>
</a>
</g>
<text text-anchor="middle" x="591" y="-141" font-family="Helvetica,sans-Serif" font-size="10.00" fill="grey"> #H</text>
</g>
</g>
</svg>
