<?xml version="1.0" encoding="UTF-8" standalone="no"?>
<!DOCTYPE svg PUBLIC "-//W3C//DTD SVG 1.1//EN"
 "http://www.w3.org/Graphics/SVG/1.1/DTD/svg11.dtd">
<!-- Generated by graphviz version 2.43.0 (0)
 -->
<!-- Title: rmvl/detector/armor_detector.h Pages: 1 -->
<svg width="1080pt" height="509pt"
 viewBox="0.00 0.00 1080.00 509.00" xmlns="http://www.w3.org/2000/svg" xmlns:xlink="http://www.w3.org/1999/xlink">
<g id="graph0" class="graph" transform="scale(1 1) rotate(0) translate(4 505)">
<title>rmvl/detector/armor_detector.h</title>
<polygon fill="white" stroke="transparent" points="-4,4 -4,-505 1076,-505 1076,4 -4,4"/>
<!-- Node1 -->
<g id="node1" class="node">
<title>Node1</title>
<g id="a_node1"><a xlink:title="装甲板识别派生类头文件">
<polygon fill="#bfbfbf" stroke="black" points="137,-470.5 137,-500.5 252,-500.5 252,-470.5 137,-470.5"/>
<text text-anchor="start" x="145" y="-488.5" font-family="Helvetica,sans-Serif" font-size="10.00">rmvl/detector/armor</text>
<text text-anchor="middle" x="194.5" y="-477.5" font-family="Helvetica,sans-Serif" font-size="10.00">_detector.h</text>
</a>
</g>
</g>
<!-- Node2 -->
<g id="node2" class="node">
<title>Node2</title>
<g id="a_node2"><a xlink:href="../../d5/d9f/detector_8h.html" target="_top" xlink:title="抽象识别类头文件">
<polygon fill="white" stroke="black" points="162,-414.5 162,-433.5 227,-433.5 227,-414.5 162,-414.5"/>
<text text-anchor="middle" x="194.5" y="-421.5" font-family="Helvetica,sans-Serif" font-size="10.00">detector.h</text>
</a>
</g>
</g>
<!-- Node1&#45;&gt;Node2 -->
<g id="edge1" class="edge">
<title>Node1&#45;&gt;Node2</title>
<path fill="none" stroke="midnightblue" d="M194.5,-470.4C194.5,-462.47 194.5,-452.46 194.5,-443.86"/>
<polygon fill="midnightblue" stroke="midnightblue" points="198,-443.66 194.5,-433.66 191,-443.66 198,-443.66"/>
</g>
<!-- Node30 -->
<g id="node30" class="node">
<title>Node30</title>
<g id="a_node30"><a xlink:href="../../d5/d47/ort_8h.html" target="_top" xlink:title="the deployment library header file of the ONNXruntime (Ort)">
<polygon fill="white" stroke="black" points="61.5,-414.5 61.5,-433.5 141.5,-433.5 141.5,-414.5 61.5,-414.5"/>
<text text-anchor="middle" x="101.5" y="-421.5" font-family="Helvetica,sans-Serif" font-size="10.00">rmvl/ml/ort.h</text>
</a>
</g>
</g>
<!-- Node1&#45;&gt;Node30 -->
<g id="edge31" class="edge">
<title>Node1&#45;&gt;Node30</title>
<path fill="none" stroke="midnightblue" d="M172.46,-470.4C157.69,-460.95 138.32,-448.56 123.55,-439.11"/>
<polygon fill="midnightblue" stroke="midnightblue" points="125.34,-436.1 115.03,-433.66 121.57,-442 125.34,-436.1"/>
</g>
<!-- Node31 -->
<g id="node31" class="node">
<title>Node31</title>
<g id="a_node31"><a xlink:href="../../d5/dea/tracker_2planar__tracker_8h.html" target="_top" xlink:title="平面目标追踪器头文件">
<polygon fill="white" stroke="black" points="358.5,-347.5 358.5,-377.5 468.5,-377.5 468.5,-347.5 358.5,-347.5"/>
<text text-anchor="start" x="366.5" y="-365.5" font-family="Helvetica,sans-Serif" font-size="10.00">rmvl/tracker/planar</text>
<text text-anchor="middle" x="413.5" y="-354.5" font-family="Helvetica,sans-Serif" font-size="10.00">_tracker.h</text>
</a>
</g>
</g>
<!-- Node1&#45;&gt;Node31 -->
<g id="edge33" class="edge">
<title>Node1&#45;&gt;Node31</title>
<path fill="none" stroke="midnightblue" d="M220.05,-470.38C259.45,-448.62 335.08,-406.83 379.2,-382.45"/>
<polygon fill="midnightblue" stroke="midnightblue" points="381.05,-385.43 388.11,-377.53 377.67,-379.3 381.05,-385.43"/>
</g>
<!-- Node3 -->
<g id="node3" class="node">
<title>Node3</title>
<g id="a_node3"><a xlink:href="../../d9/dd1/group_8h.html" target="_top" xlink:title="序列组抽象头文件">
<polygon fill="white" stroke="black" points="224.5,-353 224.5,-372 334.5,-372 334.5,-353 224.5,-353"/>
<text text-anchor="middle" x="279.5" y="-360" font-family="Helvetica,sans-Serif" font-size="10.00">rmvl/group/group.h</text>
</a>
</g>
</g>
<!-- Node2&#45;&gt;Node3 -->
<g id="edge2" class="edge">
<title>Node2&#45;&gt;Node3</title>
<path fill="none" stroke="midnightblue" d="M206.68,-414.48C220.31,-404.93 242.63,-389.31 258.97,-377.87"/>
<polygon fill="midnightblue" stroke="midnightblue" points="261.16,-380.61 267.34,-372.01 257.14,-374.88 261.16,-380.61"/>
</g>
<!-- Node28 -->
<g id="node28" class="node">
<title>Node28</title>
<g id="a_node28"><a xlink:href="../../df/d4b/pretreat_8h.html" target="_top" xlink:title="Header of the image pretreating module">
<polygon fill="white" stroke="black" points="73,-353 73,-372 206,-372 206,-353 73,-353"/>
<text text-anchor="middle" x="139.5" y="-360" font-family="Helvetica,sans-Serif" font-size="10.00">rmvl/imgproc/pretreat.h</text>
</a>
</g>
</g>
<!-- Node2&#45;&gt;Node28 -->
<g id="edge29" class="edge">
<title>Node2&#45;&gt;Node28</title>
<path fill="none" stroke="midnightblue" d="M186.62,-414.48C178.21,-405.37 164.68,-390.74 154.27,-379.48"/>
<polygon fill="midnightblue" stroke="midnightblue" points="156.72,-376.98 147.37,-372.01 151.58,-381.73 156.72,-376.98"/>
</g>
<!-- Node4 -->
<g id="node4" class="node">
<title>Node4</title>
<g id="a_node4"><a xlink:href="../../dc/ded/tracker_8h.html" target="_top" xlink:title="追踪器抽象头文件">
<polygon fill="white" stroke="black" points="216,-291.5 216,-310.5 337,-310.5 337,-291.5 216,-291.5"/>
<text text-anchor="middle" x="276.5" y="-298.5" font-family="Helvetica,sans-Serif" font-size="10.00">rmvl/tracker/tracker.h</text>
</a>
</g>
</g>
<!-- Node3&#45;&gt;Node4 -->
<g id="edge3" class="edge">
<title>Node3&#45;&gt;Node4</title>
<path fill="none" stroke="midnightblue" d="M279.07,-352.98C278.65,-344.58 277.99,-331.48 277.44,-320.66"/>
<polygon fill="midnightblue" stroke="midnightblue" points="280.93,-320.32 276.93,-310.51 273.94,-320.67 280.93,-320.32"/>
</g>
<!-- Node5 -->
<g id="node5" class="node">
<title>Node5</title>
<g id="a_node5"><a xlink:title=" ">
<polygon fill="white" stroke="#bfbfbf" points="211,-230 211,-249 258,-249 258,-230 211,-230"/>
<text text-anchor="middle" x="234.5" y="-237" font-family="Helvetica,sans-Serif" font-size="10.00">deque</text>
</a>
</g>
</g>
<!-- Node4&#45;&gt;Node5 -->
<g id="edge4" class="edge">
<title>Node4&#45;&gt;Node5</title>
<path fill="none" stroke="midnightblue" d="M270.48,-291.48C264.24,-282.64 254.33,-268.59 246.48,-257.48"/>
<polygon fill="midnightblue" stroke="midnightblue" points="249.13,-255.16 240.51,-249.01 243.41,-259.2 249.13,-255.16"/>
</g>
<!-- Node6 -->
<g id="node6" class="node">
<title>Node6</title>
<g id="a_node6"><a xlink:href="../../d8/d36/combo_8h.html" target="_top" xlink:title="the combination of the features header file">
<polygon fill="white" stroke="black" points="408.5,-230 408.5,-249 528.5,-249 528.5,-230 408.5,-230"/>
<text text-anchor="middle" x="468.5" y="-237" font-family="Helvetica,sans-Serif" font-size="10.00">rmvl/combo/combo.h</text>
</a>
</g>
</g>
<!-- Node4&#45;&gt;Node6 -->
<g id="edge5" class="edge">
<title>Node4&#45;&gt;Node6</title>
<path fill="none" stroke="midnightblue" d="M304.01,-291.48C337.37,-281.14 393.76,-263.66 431.06,-252.1"/>
<polygon fill="midnightblue" stroke="midnightblue" points="432.53,-255.31 441.04,-249.01 430.45,-248.63 432.53,-255.31"/>
</g>
<!-- Node7 -->
<g id="node7" class="node">
<title>Node7</title>
<g id="a_node7"><a xlink:href="../../d3/d7e/camutils_8hpp.html" target="_top" xlink:title=" ">
<polygon fill="white" stroke="black" points="315,-168.5 315,-187.5 460,-187.5 460,-168.5 315,-168.5"/>
<text text-anchor="middle" x="387.5" y="-175.5" font-family="Helvetica,sans-Serif" font-size="10.00">rmvl/camera/camutils.hpp</text>
</a>
</g>
</g>
<!-- Node6&#45;&gt;Node7 -->
<g id="edge6" class="edge">
<title>Node6&#45;&gt;Node7</title>
<path fill="none" stroke="midnightblue" d="M456.89,-229.98C444.02,-220.52 423.03,-205.1 407.49,-193.69"/>
<polygon fill="midnightblue" stroke="midnightblue" points="409.22,-190.61 399.08,-187.51 405.07,-196.25 409.22,-190.61"/>
</g>
<!-- Node9 -->
<g id="node9" class="node">
<title>Node9</title>
<g id="a_node9"><a xlink:href="../../dc/d71/uty__math_8hpp.html" target="_top" xlink:title=" ">
<polygon fill="white" stroke="black" points="478.5,-168.5 478.5,-187.5 620.5,-187.5 620.5,-168.5 478.5,-168.5"/>
<text text-anchor="middle" x="549.5" y="-175.5" font-family="Helvetica,sans-Serif" font-size="10.00">rmvl/rmath/uty_math.hpp</text>
</a>
</g>
</g>
<!-- Node6&#45;&gt;Node9 -->
<g id="edge8" class="edge">
<title>Node6&#45;&gt;Node9</title>
<path fill="none" stroke="midnightblue" d="M480.11,-229.98C492.98,-220.52 513.97,-205.1 529.51,-193.69"/>
<polygon fill="midnightblue" stroke="midnightblue" points="531.93,-196.25 537.92,-187.51 527.78,-190.61 531.93,-196.25"/>
</g>
<!-- Node20 -->
<g id="node20" class="node">
<title>Node20</title>
<g id="a_node20"><a xlink:href="../../dd/de3/types_8hpp.html" target="_top" xlink:title="常用状态类型定义">
<polygon fill="white" stroke="black" points="754.5,-112.5 754.5,-131.5 844.5,-131.5 844.5,-112.5 754.5,-112.5"/>
<text text-anchor="middle" x="799.5" y="-119.5" font-family="Helvetica,sans-Serif" font-size="10.00">rmvl/types.hpp</text>
</a>
</g>
</g>
<!-- Node6&#45;&gt;Node20 -->
<g id="edge19" class="edge">
<title>Node6&#45;&gt;Node20</title>
<path fill="none" stroke="midnightblue" d="M497.47,-230C529.83,-220.36 583.71,-203.92 629.5,-188 678.8,-170.86 735.26,-148.77 769.12,-135.26"/>
<polygon fill="midnightblue" stroke="midnightblue" points="770.47,-138.49 778.45,-131.53 767.87,-131.99 770.47,-138.49"/>
</g>
<!-- Node21 -->
<g id="node21" class="node">
<title>Node21</title>
<g id="a_node21"><a xlink:href="../../d5/d60/dataio_8hpp.html" target="_top" xlink:title="陀螺仪数据">
<polygon fill="white" stroke="black" points="59.5,-168.5 59.5,-187.5 177.5,-187.5 177.5,-168.5 59.5,-168.5"/>
<text text-anchor="middle" x="118.5" y="-175.5" font-family="Helvetica,sans-Serif" font-size="10.00">rmvl/core/dataio.hpp</text>
</a>
</g>
</g>
<!-- Node6&#45;&gt;Node21 -->
<g id="edge21" class="edge">
<title>Node6&#45;&gt;Node21</title>
<path fill="none" stroke="midnightblue" d="M418.35,-229.98C355.07,-219.22 246.33,-200.73 178.64,-189.22"/>
<polygon fill="midnightblue" stroke="midnightblue" points="179,-185.73 168.55,-187.51 177.83,-192.64 179,-185.73"/>
</g>
<!-- Node25 -->
<g id="node25" class="node">
<title>Node25</title>
<g id="a_node25"><a xlink:href="../../d2/d74/feature_8h.html" target="_top" xlink:title="feature class header">
<polygon fill="white" stroke="black" points="737,-168.5 737,-187.5 862,-187.5 862,-168.5 737,-168.5"/>
<text text-anchor="middle" x="799.5" y="-175.5" font-family="Helvetica,sans-Serif" font-size="10.00">rmvl/feature/feature.h</text>
</a>
</g>
</g>
<!-- Node6&#45;&gt;Node25 -->
<g id="edge25" class="edge">
<title>Node6&#45;&gt;Node25</title>
<path fill="none" stroke="midnightblue" d="M507.86,-229.97C517.54,-227.94 527.88,-225.84 537.5,-224 605.22,-211.07 683.11,-197.91 736.25,-189.19"/>
<polygon fill="midnightblue" stroke="midnightblue" points="736.9,-192.63 746.21,-187.56 735.77,-185.72 736.9,-192.63"/>
</g>
<!-- Node8 -->
<g id="node8" class="node">
<title>Node8</title>
<g id="a_node8"><a xlink:title=" ">
<polygon fill="white" stroke="#bfbfbf" points="192,-112.5 192,-131.5 295,-131.5 295,-112.5 192,-112.5"/>
<text text-anchor="middle" x="243.5" y="-119.5" font-family="Helvetica,sans-Serif" font-size="10.00">opencv2/core.hpp</text>
</a>
</g>
</g>
<!-- Node7&#45;&gt;Node8 -->
<g id="edge7" class="edge">
<title>Node7&#45;&gt;Node8</title>
<path fill="none" stroke="midnightblue" d="M364.68,-168.44C340.67,-159.44 302.67,-145.19 275.63,-135.05"/>
<polygon fill="midnightblue" stroke="midnightblue" points="276.8,-131.75 266.21,-131.52 274.34,-138.3 276.8,-131.75"/>
</g>
<!-- Node10 -->
<g id="node10" class="node">
<title>Node10</title>
<g id="a_node10"><a xlink:title=" ">
<polygon fill="white" stroke="#bfbfbf" points="578,-112.5 578,-131.5 625,-131.5 625,-112.5 578,-112.5"/>
<text text-anchor="middle" x="601.5" y="-119.5" font-family="Helvetica,sans-Serif" font-size="10.00">cmath</text>
</a>
</g>
</g>
<!-- Node9&#45;&gt;Node10 -->
<g id="edge9" class="edge">
<title>Node9&#45;&gt;Node10</title>
<path fill="none" stroke="midnightblue" d="M558.09,-168.08C565.66,-160.22 576.88,-148.57 586.01,-139.08"/>
<polygon fill="midnightblue" stroke="midnightblue" points="588.66,-141.38 593.07,-131.75 583.62,-136.53 588.66,-141.38"/>
</g>
<!-- Node11 -->
<g id="node11" class="node">
<title>Node11</title>
<g id="a_node11"><a xlink:title=" ">
<polygon fill="white" stroke="#bfbfbf" points="643,-112.5 643,-131.5 736,-131.5 736,-112.5 643,-112.5"/>
<text text-anchor="middle" x="689.5" y="-119.5" font-family="Helvetica,sans-Serif" font-size="10.00">unordered_map</text>
</a>
</g>
</g>
<!-- Node9&#45;&gt;Node11 -->
<g id="edge10" class="edge">
<title>Node9&#45;&gt;Node11</title>
<path fill="none" stroke="midnightblue" d="M571.68,-168.44C594.93,-159.48 631.65,-145.31 657.92,-135.18"/>
<polygon fill="midnightblue" stroke="midnightblue" points="659.35,-138.38 667.42,-131.52 656.83,-131.85 659.35,-138.38"/>
</g>
<!-- Node12 -->
<g id="node12" class="node">
<title>Node12</title>
<g id="a_node12"><a xlink:title=" ">
<polygon fill="white" stroke="#bfbfbf" points="313,-112.5 313,-131.5 372,-131.5 372,-112.5 313,-112.5"/>
<text text-anchor="middle" x="342.5" y="-119.5" font-family="Helvetica,sans-Serif" font-size="10.00">numbers</text>
</a>
</g>
</g>
<!-- Node9&#45;&gt;Node12 -->
<g id="edge11" class="edge">
<title>Node9&#45;&gt;Node12</title>
<path fill="none" stroke="midnightblue" d="M516.7,-168.44C480.18,-158.92 421.16,-143.52 382.09,-133.33"/>
<polygon fill="midnightblue" stroke="midnightblue" points="382.69,-129.87 372.13,-130.73 380.92,-136.64 382.69,-129.87"/>
</g>
<!-- Node13 -->
<g id="node13" class="node">
<title>Node13</title>
<g id="a_node13"><a xlink:title=" ">
<polygon fill="white" stroke="#bfbfbf" points="390,-112.5 390,-131.5 521,-131.5 521,-112.5 390,-112.5"/>
<text text-anchor="middle" x="455.5" y="-119.5" font-family="Helvetica,sans-Serif" font-size="10.00">opencv2/core/matx.hpp</text>
</a>
</g>
</g>
<!-- Node9&#45;&gt;Node13 -->
<g id="edge12" class="edge">
<title>Node9&#45;&gt;Node13</title>
<path fill="none" stroke="midnightblue" d="M534.4,-168.32C519.6,-159.82 496.81,-146.73 479.52,-136.8"/>
<polygon fill="midnightblue" stroke="midnightblue" points="480.98,-133.6 470.57,-131.65 477.49,-139.67 480.98,-133.6"/>
</g>
<!-- Node14 -->
<g id="node14" class="node">
<title>Node14</title>
<g id="a_node14"><a xlink:href="../../d0/d3f/util_8hpp.html" target="_top" xlink:title=" ">
<polygon fill="white" stroke="black" points="623,-56.5 623,-75.5 726,-75.5 726,-56.5 623,-56.5"/>
<text text-anchor="middle" x="674.5" y="-63.5" font-family="Helvetica,sans-Serif" font-size="10.00">rmvl/core/util.hpp</text>
</a>
</g>
</g>
<!-- Node9&#45;&gt;Node14 -->
<g id="edge13" class="edge">
<title>Node9&#45;&gt;Node14</title>
<path fill="none" stroke="midnightblue" d="M549.91,-168.3C551,-154.67 554.98,-128.16 569.5,-112 583.85,-96.04 604.83,-85.53 624.27,-78.72"/>
<polygon fill="midnightblue" stroke="midnightblue" points="625.52,-81.99 633.95,-75.57 623.36,-75.33 625.52,-81.99"/>
</g>
<!-- Node15 -->
<g id="node15" class="node">
<title>Node15</title>
<g id="a_node15"><a xlink:title=" ">
<polygon fill="white" stroke="#bfbfbf" points="432,-0.5 432,-19.5 565,-19.5 565,-0.5 432,-0.5"/>
<text text-anchor="middle" x="498.5" y="-7.5" font-family="Helvetica,sans-Serif" font-size="10.00">rmvl/rmvl_modules.hpp</text>
</a>
</g>
</g>
<!-- Node14&#45;&gt;Node15 -->
<g id="edge14" class="edge">
<title>Node14&#45;&gt;Node15</title>
<path fill="none" stroke="midnightblue" d="M646.61,-56.44C616.75,-47.28 569.19,-32.69 536.04,-22.52"/>
<polygon fill="midnightblue" stroke="midnightblue" points="536.84,-19.1 526.26,-19.52 534.79,-25.8 536.84,-19.1"/>
</g>
<!-- Node16 -->
<g id="node16" class="node">
<title>Node16</title>
<g id="a_node16"><a xlink:title=" ">
<polygon fill="white" stroke="#bfbfbf" points="583.5,-0.5 583.5,-19.5 633.5,-19.5 633.5,-0.5 583.5,-0.5"/>
<text text-anchor="middle" x="608.5" y="-7.5" font-family="Helvetica,sans-Serif" font-size="10.00">cstdint</text>
</a>
</g>
</g>
<!-- Node14&#45;&gt;Node16 -->
<g id="edge15" class="edge">
<title>Node14&#45;&gt;Node16</title>
<path fill="none" stroke="midnightblue" d="M663.9,-56.32C654.04,-48.26 639.15,-36.08 627.28,-26.37"/>
<polygon fill="midnightblue" stroke="midnightblue" points="629.25,-23.46 619.3,-19.83 624.82,-28.88 629.25,-23.46"/>
</g>
<!-- Node17 -->
<g id="node17" class="node">
<title>Node17</title>
<g id="a_node17"><a xlink:title=" ">
<polygon fill="white" stroke="#bfbfbf" points="651.5,-0.5 651.5,-19.5 697.5,-19.5 697.5,-0.5 651.5,-0.5"/>
<text text-anchor="middle" x="674.5" y="-7.5" font-family="Helvetica,sans-Serif" font-size="10.00">cstdio</text>
</a>
</g>
</g>
<!-- Node14&#45;&gt;Node17 -->
<g id="edge16" class="edge">
<title>Node14&#45;&gt;Node17</title>
<path fill="none" stroke="midnightblue" d="M674.5,-56.08C674.5,-49.01 674.5,-38.86 674.5,-29.99"/>
<polygon fill="midnightblue" stroke="midnightblue" points="678,-29.75 674.5,-19.75 671,-29.75 678,-29.75"/>
</g>
<!-- Node18 -->
<g id="node18" class="node">
<title>Node18</title>
<g id="a_node18"><a xlink:title=" ">
<polygon fill="white" stroke="#bfbfbf" points="715.5,-0.5 715.5,-19.5 759.5,-19.5 759.5,-0.5 715.5,-0.5"/>
<text text-anchor="middle" x="737.5" y="-7.5" font-family="Helvetica,sans-Serif" font-size="10.00">string</text>
</a>
</g>
</g>
<!-- Node14&#45;&gt;Node18 -->
<g id="edge17" class="edge">
<title>Node14&#45;&gt;Node18</title>
<path fill="none" stroke="midnightblue" d="M684.62,-56.32C694.03,-48.26 708.24,-36.08 719.57,-26.37"/>
<polygon fill="midnightblue" stroke="midnightblue" points="721.88,-29 727.19,-19.83 717.32,-23.68 721.88,-29"/>
</g>
<!-- Node19 -->
<g id="node19" class="node">
<title>Node19</title>
<g id="a_node19"><a xlink:href="../../db/d41/rmvldef_8hpp.html" target="_top" xlink:title=" ">
<polygon fill="white" stroke="black" points="778,-0.5 778,-19.5 853,-19.5 853,-0.5 778,-0.5"/>
<text text-anchor="middle" x="815.5" y="-7.5" font-family="Helvetica,sans-Serif" font-size="10.00">rmvldef.hpp</text>
</a>
</g>
</g>
<!-- Node14&#45;&gt;Node19 -->
<g id="edge18" class="edge">
<title>Node14&#45;&gt;Node19</title>
<path fill="none" stroke="midnightblue" d="M696.84,-56.44C720.25,-47.48 757.24,-33.31 783.69,-23.18"/>
<polygon fill="midnightblue" stroke="midnightblue" points="785.18,-26.36 793.26,-19.52 782.67,-19.82 785.18,-26.36"/>
</g>
<!-- Node20&#45;&gt;Node14 -->
<g id="edge20" class="edge">
<title>Node20&#45;&gt;Node14</title>
<path fill="none" stroke="midnightblue" d="M779.69,-112.44C759.21,-103.6 727.02,-89.69 703.64,-79.59"/>
<polygon fill="midnightblue" stroke="midnightblue" points="704.78,-76.27 694.21,-75.52 702.01,-82.7 704.78,-76.27"/>
</g>
<!-- Node22 -->
<g id="node22" class="node">
<title>Node22</title>
<g id="a_node22"><a xlink:title=" ">
<polygon fill="white" stroke="#bfbfbf" points="65.5,-112.5 65.5,-131.5 107.5,-131.5 107.5,-112.5 65.5,-112.5"/>
<text text-anchor="middle" x="86.5" y="-119.5" font-family="Helvetica,sans-Serif" font-size="10.00">array</text>
</a>
</g>
</g>
<!-- Node21&#45;&gt;Node22 -->
<g id="edge22" class="edge">
<title>Node21&#45;&gt;Node22</title>
<path fill="none" stroke="midnightblue" d="M113.22,-168.08C108.79,-160.61 102.34,-149.72 96.88,-140.52"/>
<polygon fill="midnightblue" stroke="midnightblue" points="99.79,-138.57 91.69,-131.75 93.77,-142.14 99.79,-138.57"/>
</g>
<!-- Node23 -->
<g id="node23" class="node">
<title>Node23</title>
<g id="a_node23"><a xlink:title=" ">
<polygon fill="white" stroke="#bfbfbf" points="125.5,-112.5 125.5,-131.5 173.5,-131.5 173.5,-112.5 125.5,-112.5"/>
<text text-anchor="middle" x="149.5" y="-119.5" font-family="Helvetica,sans-Serif" font-size="10.00">iosfwd</text>
</a>
</g>
</g>
<!-- Node21&#45;&gt;Node23 -->
<g id="edge23" class="edge">
<title>Node21&#45;&gt;Node23</title>
<path fill="none" stroke="midnightblue" d="M123.62,-168.08C127.91,-160.61 134.16,-149.72 139.44,-140.52"/>
<polygon fill="midnightblue" stroke="midnightblue" points="142.53,-142.17 144.48,-131.75 136.46,-138.68 142.53,-142.17"/>
</g>
<!-- Node24 -->
<g id="node24" class="node">
<title>Node24</title>
<g id="a_node24"><a xlink:title=" ">
<polygon fill="white" stroke="#bfbfbf" points="0,-112.5 0,-131.5 47,-131.5 47,-112.5 0,-112.5"/>
<text text-anchor="middle" x="23.5" y="-119.5" font-family="Helvetica,sans-Serif" font-size="10.00">vector</text>
</a>
</g>
</g>
<!-- Node21&#45;&gt;Node24 -->
<g id="edge24" class="edge">
<title>Node21&#45;&gt;Node24</title>
<path fill="none" stroke="midnightblue" d="M103.24,-168.32C88.28,-159.82 65.25,-146.73 47.77,-136.8"/>
<polygon fill="midnightblue" stroke="midnightblue" points="49.15,-133.55 38.73,-131.65 45.69,-139.64 49.15,-133.55"/>
</g>
<!-- Node25&#45;&gt;Node20 -->
<g id="edge28" class="edge">
<title>Node25&#45;&gt;Node20</title>
<path fill="none" stroke="midnightblue" d="M799.5,-168.08C799.5,-161.01 799.5,-150.86 799.5,-141.99"/>
<polygon fill="midnightblue" stroke="midnightblue" points="803,-141.75 799.5,-131.75 796,-141.75 803,-141.75"/>
</g>
<!-- Node26 -->
<g id="node26" class="node">
<title>Node26</title>
<g id="a_node26"><a xlink:title=" ">
<polygon fill="white" stroke="#bfbfbf" points="862.5,-112.5 862.5,-131.5 920.5,-131.5 920.5,-112.5 862.5,-112.5"/>
<text text-anchor="middle" x="891.5" y="-119.5" font-family="Helvetica,sans-Serif" font-size="10.00">memory</text>
</a>
</g>
</g>
<!-- Node25&#45;&gt;Node26 -->
<g id="edge26" class="edge">
<title>Node25&#45;&gt;Node26</title>
<path fill="none" stroke="midnightblue" d="M814.28,-168.32C828.77,-159.82 851.07,-146.73 867.99,-136.8"/>
<polygon fill="midnightblue" stroke="midnightblue" points="869.9,-139.74 876.76,-131.65 866.36,-133.7 869.9,-139.74"/>
</g>
<!-- Node27 -->
<g id="node27" class="node">
<title>Node27</title>
<g id="a_node27"><a xlink:title=" ">
<polygon fill="white" stroke="#bfbfbf" points="939,-112.5 939,-131.5 1072,-131.5 1072,-112.5 939,-112.5"/>
<text text-anchor="middle" x="1005.5" y="-119.5" font-family="Helvetica,sans-Serif" font-size="10.00">opencv2/core/types.hpp</text>
</a>
</g>
</g>
<!-- Node25&#45;&gt;Node27 -->
<g id="edge27" class="edge">
<title>Node25&#45;&gt;Node27</title>
<path fill="none" stroke="midnightblue" d="M832.14,-168.44C867.55,-159.16 924.21,-144.31 963.05,-134.13"/>
<polygon fill="midnightblue" stroke="midnightblue" points="964.23,-137.44 973.01,-131.52 962.45,-130.67 964.23,-137.44"/>
</g>
<!-- Node29 -->
<g id="node29" class="node">
<title>Node29</title>
<g id="a_node29"><a xlink:title=" ">
<polygon fill="white" stroke="#bfbfbf" points="32,-291.5 32,-310.5 157,-310.5 157,-291.5 32,-291.5"/>
<text text-anchor="middle" x="94.5" y="-298.5" font-family="Helvetica,sans-Serif" font-size="10.00">opencv2/core/mat.hpp</text>
</a>
</g>
</g>
<!-- Node28&#45;&gt;Node29 -->
<g id="edge30" class="edge">
<title>Node28&#45;&gt;Node29</title>
<path fill="none" stroke="midnightblue" d="M133.05,-352.98C126.3,-344.05 115.53,-329.81 107.09,-318.64"/>
<polygon fill="midnightblue" stroke="midnightblue" points="109.76,-316.37 100.94,-310.51 104.18,-320.6 109.76,-316.37"/>
</g>
<!-- Node30&#45;&gt;Node29 -->
<g id="edge32" class="edge">
<title>Node30&#45;&gt;Node29</title>
<path fill="none" stroke="midnightblue" d="M91.06,-414.24C82.08,-405.97 69.75,-392.66 64.5,-378 59.85,-365.03 60.51,-360.19 64.5,-347 67.62,-336.7 73.95,-326.61 80,-318.6"/>
<polygon fill="midnightblue" stroke="midnightblue" points="82.73,-320.8 86.29,-310.82 77.28,-316.4 82.73,-320.8"/>
</g>
<!-- Node31&#45;&gt;Node4 -->
<g id="edge41" class="edge">
<title>Node31&#45;&gt;Node4</title>
<path fill="none" stroke="midnightblue" d="M381.03,-347.4C358.15,-337.46 327.77,-324.26 305.66,-314.66"/>
<polygon fill="midnightblue" stroke="midnightblue" points="307,-311.43 296.43,-310.66 304.21,-317.85 307,-311.43"/>
</g>
<!-- Node32 -->
<g id="node32" class="node">
<title>Node32</title>
<g id="a_node32"><a xlink:href="../../db/d0f/kalman_8hpp.html" target="_top" xlink:title="包含轻量级 cv::Matx 的卡尔曼滤波模块">
<polygon fill="white" stroke="black" points="355,-291.5 355,-310.5 478,-310.5 478,-291.5 355,-291.5"/>
<text text-anchor="middle" x="416.5" y="-298.5" font-family="Helvetica,sans-Serif" font-size="10.00">rmvl/core/kalman.hpp</text>
</a>
</g>
</g>
<!-- Node31&#45;&gt;Node32 -->
<g id="edge34" class="edge">
<title>Node31&#45;&gt;Node32</title>
<path fill="none" stroke="midnightblue" d="M414.21,-347.4C414.61,-339.47 415.12,-329.46 415.55,-320.86"/>
<polygon fill="midnightblue" stroke="midnightblue" points="419.06,-320.82 416.06,-310.66 412.06,-320.47 419.06,-320.82"/>
</g>
<!-- Node33 -->
<g id="node33" class="node">
<title>Node33</title>
<g id="a_node33"><a xlink:href="../../dd/d92/combo_2armor_8h.html" target="_top" xlink:title="装甲板类头文件">
<polygon fill="white" stroke="black" points="498.5,-291.5 498.5,-310.5 614.5,-310.5 614.5,-291.5 498.5,-291.5"/>
<text text-anchor="middle" x="556.5" y="-298.5" font-family="Helvetica,sans-Serif" font-size="10.00">rmvl/combo/armor.h</text>
</a>
</g>
</g>
<!-- Node31&#45;&gt;Node33 -->
<g id="edge36" class="edge">
<title>Node31&#45;&gt;Node33</title>
<path fill="none" stroke="midnightblue" d="M447.39,-347.4C471.38,-337.42 503.27,-324.15 526.38,-314.53"/>
<polygon fill="midnightblue" stroke="midnightblue" points="527.8,-317.73 535.69,-310.66 525.11,-311.27 527.8,-317.73"/>
</g>
<!-- Node32&#45;&gt;Node8 -->
<g id="edge35" class="edge">
<title>Node32&#45;&gt;Node8</title>
<path fill="none" stroke="midnightblue" d="M407.92,-291.31C389.38,-272.5 344.18,-226.62 306.5,-188 290.32,-171.42 271.89,-152.38 259.16,-139.21"/>
<polygon fill="midnightblue" stroke="midnightblue" points="261.51,-136.61 252.04,-131.85 256.47,-141.47 261.51,-136.61"/>
</g>
<!-- Node33&#45;&gt;Node6 -->
<g id="edge38" class="edge">
<title>Node33&#45;&gt;Node6</title>
<path fill="none" stroke="midnightblue" d="M543.89,-291.48C529.78,-281.93 506.67,-266.31 489.75,-254.87"/>
<polygon fill="midnightblue" stroke="midnightblue" points="491.33,-251.71 481.08,-249.01 487.41,-257.51 491.33,-251.71"/>
</g>
<!-- Node34 -->
<g id="node34" class="node">
<title>Node34</title>
<g id="a_node34"><a xlink:title=" ">
<polygon fill="white" stroke="#bfbfbf" points="667,-230 667,-249 762,-249 762,-230 667,-230"/>
<text text-anchor="middle" x="714.5" y="-237" font-family="Helvetica,sans-Serif" font-size="10.00">opencv2/ml.hpp</text>
</a>
</g>
</g>
<!-- Node33&#45;&gt;Node34 -->
<g id="edge37" class="edge">
<title>Node33&#45;&gt;Node34</title>
<path fill="none" stroke="midnightblue" d="M579.14,-291.48C606.24,-281.27 651.81,-264.11 682.5,-252.55"/>
<polygon fill="midnightblue" stroke="midnightblue" points="683.78,-255.81 691.9,-249.01 681.31,-249.26 683.78,-255.81"/>
</g>
<!-- Node35 -->
<g id="node35" class="node">
<title>Node35</title>
<g id="a_node35"><a xlink:href="../../d4/d54/feature_2light__blob_8h.html" target="_top" xlink:title="灯条类头文件">
<polygon fill="white" stroke="black" points="546.5,-224.5 546.5,-254.5 648.5,-254.5 648.5,-224.5 546.5,-224.5"/>
<text text-anchor="start" x="554.5" y="-242.5" font-family="Helvetica,sans-Serif" font-size="10.00">rmvl/feature/light</text>
<text text-anchor="middle" x="597.5" y="-231.5" font-family="Helvetica,sans-Serif" font-size="10.00">_blob.h</text>
</a>
</g>
</g>
<!-- Node33&#45;&gt;Node35 -->
<g id="edge39" class="edge">
<title>Node33&#45;&gt;Node35</title>
<path fill="none" stroke="midnightblue" d="M562.37,-291.48C567.51,-284.02 575.21,-272.85 582.09,-262.87"/>
<polygon fill="midnightblue" stroke="midnightblue" points="585.05,-264.74 587.84,-254.52 579.28,-260.77 585.05,-264.74"/>
</g>
<!-- Node35&#45;&gt;Node25 -->
<g id="edge40" class="edge">
<title>Node35&#45;&gt;Node25</title>
<path fill="none" stroke="midnightblue" d="M645.12,-224.47C680.42,-214.08 727.94,-200.08 760.89,-190.37"/>
<polygon fill="midnightblue" stroke="midnightblue" points="762.02,-193.69 770.62,-187.51 760.04,-186.97 762.02,-193.69"/>
</g>
</g>
</svg>
