<?xml version="1.0" encoding="UTF-8" standalone="no"?>
<!DOCTYPE svg PUBLIC "-//W3C//DTD SVG 1.1//EN"
 "http://www.w3.org/Graphics/SVG/1.1/DTD/svg11.dtd">
<!-- Generated by graphviz version 2.43.0 (0)
 -->
<!-- Title: rm::lpss::RobotPlanner Pages: 1 -->
<svg width="183pt" height="513pt"
 viewBox="0.00 0.00 183.00 513.00" xmlns="http://www.w3.org/2000/svg" xmlns:xlink="http://www.w3.org/1999/xlink">
<g id="graph0" class="graph" transform="scale(1 1) rotate(0) translate(4 509)">
<title>rm::lpss::RobotPlanner</title>
<!-- Node1 -->
<g id="Node000001" class="node">
<title>Node1</title>
<g id="a_Node000001"><a xlink:title="机器人规划模块，提供 URDF 解析、正/逆运动学求解、轨迹规划等运动学功能">
<polygon fill="#999999" stroke="transparent" points="124.5,-199 3.5,-199 3.5,0 124.5,0 124.5,-199"/>
<text text-anchor="start" x="9" y="-186.5" font-family="Helvetica,sans-Serif" font-size="10.00">rm::lpss::RobotPlanner</text>
<text text-anchor="start" x="62.5" y="-171.5" font-family="Helvetica,sans-Serif" font-size="10.00"> </text>
<text text-anchor="start" x="12.5" y="-156.5" font-family="Helvetica,sans-Serif" font-size="10.00">+</text>
<text text-anchor="start" x="30" y="-156.5" font-family="Helvetica,sans-Serif" font-size="10.00">RobotPlanner()</text>
<text text-anchor="start" x="12.5" y="-141.5" font-family="Helvetica,sans-Serif" font-size="10.00">+</text>
<text text-anchor="start" x="30" y="-141.5" font-family="Helvetica,sans-Serif" font-size="10.00">RobotPlanner()</text>
<text text-anchor="start" x="12.5" y="-126.5" font-family="Helvetica,sans-Serif" font-size="10.00">+</text>
<text text-anchor="start" x="30" y="-126.5" font-family="Helvetica,sans-Serif" font-size="10.00">operator=()</text>
<text text-anchor="start" x="12.5" y="-111.5" font-family="Helvetica,sans-Serif" font-size="10.00">+</text>
<text text-anchor="start" x="30" y="-111.5" font-family="Helvetica,sans-Serif" font-size="10.00">~RobotPlanner()</text>
<text text-anchor="start" x="12.5" y="-96.5" font-family="Helvetica,sans-Serif" font-size="10.00">+</text>
<text text-anchor="start" x="30" y="-96.5" font-family="Helvetica,sans-Serif" font-size="10.00">load()</text>
<text text-anchor="start" x="12.5" y="-81.5" font-family="Helvetica,sans-Serif" font-size="10.00">+</text>
<text text-anchor="start" x="30" y="-81.5" font-family="Helvetica,sans-Serif" font-size="10.00">update()</text>
<text text-anchor="start" x="12.5" y="-66.5" font-family="Helvetica,sans-Serif" font-size="10.00">+</text>
<text text-anchor="start" x="30" y="-66.5" font-family="Helvetica,sans-Serif" font-size="10.00">joints()</text>
<text text-anchor="start" x="12.5" y="-51.5" font-family="Helvetica,sans-Serif" font-size="10.00">+</text>
<text text-anchor="start" x="30" y="-51.5" font-family="Helvetica,sans-Serif" font-size="10.00">urdf()</text>
<text text-anchor="start" x="12.5" y="-36.5" font-family="Helvetica,sans-Serif" font-size="10.00">+</text>
<text text-anchor="start" x="30" y="-36.5" font-family="Helvetica,sans-Serif" font-size="10.00">tf()</text>
<text text-anchor="start" x="12.5" y="-21.5" font-family="Helvetica,sans-Serif" font-size="10.00">+</text>
<text text-anchor="start" x="30" y="-21.5" font-family="Helvetica,sans-Serif" font-size="10.00">plan()</text>
<text text-anchor="start" x="30" y="-6.5" font-family="Helvetica,sans-Serif" font-size="10.00">和 7 更多...</text>
<polygon fill="#666666" stroke="#666666" points="4,-181.5 4,-181.5 125,-181.5 125,-181.5 4,-181.5"/>
<polygon fill="#666666" stroke="#666666" points="4,-166.5 4,-166.5 125,-166.5 125,-166.5 4,-166.5"/>
<polygon fill="none" stroke="#666666" points="3.5,0 3.5,-199 124.5,-199 124.5,0 3.5,0"/>
</a>
</g>
</g>
<!-- Node2 -->
<g id="Node000002" class="node">
<title>Node2</title>
<g id="a_Node000002"><a xlink:title=" ">
<polygon fill="white" stroke="transparent" points="128,-301 0,-301 0,-252 128,-252 128,-301"/>
<text text-anchor="start" x="5" y="-288.5" font-family="Helvetica,sans-Serif" font-size="10.00">std::unique_ptr&lt; Impl &gt;</text>
<text text-anchor="start" x="62" y="-273.5" font-family="Helvetica,sans-Serif" font-size="10.00"> </text>
<text text-anchor="start" x="15.5" y="-258.5" font-family="Helvetica,sans-Serif" font-size="10.00">+</text>
<text text-anchor="start" x="40" y="-258.5" font-family="Helvetica,sans-Serif" font-size="10.00">operator&#45;&gt;()</text>
<polygon fill="#666666" stroke="#666666" points="0,-283.5 0,-283.5 128,-283.5 128,-283.5 0,-283.5"/>
<polygon fill="#666666" stroke="#666666" points="0,-268.5 0,-268.5 128,-268.5 128,-268.5 0,-268.5"/>
<polygon fill="none" stroke="#666666" points="0,-252 0,-301 128,-301 128,-252 0,-252"/>
</a>
</g>
</g>
<!-- Node2&#45;&gt;Node1 -->
<g id="edge1_Node000001_Node000002" class="edge">
<title>Node2&#45;&gt;Node1</title>
<g id="a_edge1_Node000001_Node000002"><a xlink:title=" ">
<path fill="none" stroke="#63b8ff" d="M64,-251.9C64,-240.78 64,-226.64 64,-211.48"/>
<polygon fill="none" stroke="#63b8ff" points="64,-211.15 60,-205.15 64,-199.15 68,-205.15 64,-211.15"/>
</a>
</g>
<text text-anchor="start" x="67" y="-222.5" font-family="Helvetica,sans-Serif" font-size="10.00" fill="grey">#_impl</text>
</g>
<!-- Node3 -->
<g id="Node000003" class="node">
<title>Node3</title>
<g id="a_Node000003"><a xlink:title=" ">
<polygon fill="white" stroke="transparent" points="45,-403 13,-403 13,-354 45,-354 45,-403"/>
<text text-anchor="start" x="18" y="-390.5" font-family="Helvetica,sans-Serif" font-size="10.00">Impl</text>
<text text-anchor="start" x="27" y="-375.5" font-family="Helvetica,sans-Serif" font-size="10.00"> </text>
<text text-anchor="start" x="27" y="-360.5" font-family="Helvetica,sans-Serif" font-size="10.00"> </text>
<polygon fill="#666666" stroke="#666666" points="13,-385.5 13,-385.5 45,-385.5 45,-385.5 13,-385.5"/>
<polygon fill="#666666" stroke="#666666" points="13,-370.5 13,-370.5 45,-370.5 45,-370.5 13,-370.5"/>
<polygon fill="none" stroke="#666666" points="13,-354 13,-403 45,-403 45,-354 13,-354"/>
</a>
</g>
</g>
<!-- Node3&#45;&gt;Node2 -->
<g id="edge2_Node000002_Node000003" class="edge">
<title>Node3&#45;&gt;Node2</title>
<g id="a_edge2_Node000002_Node000003"><a xlink:title=" ">
<path fill="none" stroke="#63b8ff" d="M36.98,-353.84C40.61,-343.18 44.98,-330.44 49,-319 49.73,-316.92 50.49,-314.79 51.25,-312.64"/>
<polygon fill="none" stroke="#63b8ff" points="51.31,-312.47 49.57,-305.47 55.36,-301.18 57.1,-308.17 51.31,-312.47"/>
</a>
</g>
<text text-anchor="start" x="52" y="-324.5" font-family="Helvetica,sans-Serif" font-size="10.00" fill="grey">+ptr</text>
</g>
<!-- Node4 -->
<g id="Node000004" class="node">
<title>Node4</title>
<g id="a_Node000004"><a xlink:title=" ">
<polygon fill="white" stroke="transparent" points="175,-403 63,-403 63,-354 175,-354 175,-403"/>
<text text-anchor="start" x="68" y="-390.5" font-family="Helvetica,sans-Serif" font-size="10.00">std::unique_ptr&lt; T &gt;</text>
<text text-anchor="start" x="117" y="-375.5" font-family="Helvetica,sans-Serif" font-size="10.00"> </text>
<text text-anchor="start" x="74.5" y="-360.5" font-family="Helvetica,sans-Serif" font-size="10.00">+</text>
<text text-anchor="start" x="95" y="-360.5" font-family="Helvetica,sans-Serif" font-size="10.00">operator&#45;&gt;()</text>
<polygon fill="#666666" stroke="#666666" points="63,-385.5 63,-385.5 175,-385.5 175,-385.5 63,-385.5"/>
<polygon fill="#666666" stroke="#666666" points="63,-370.5 63,-370.5 175,-370.5 175,-370.5 63,-370.5"/>
<polygon fill="none" stroke="#666666" points="63,-354 63,-403 175,-403 175,-354 63,-354"/>
</a>
</g>
</g>
<!-- Node4&#45;&gt;Node2 -->
<g id="edge3_Node000002_Node000004" class="edge">
<title>Node4&#45;&gt;Node2</title>
<g id="a_edge3_Node000002_Node000004"><a xlink:title=" ">
<path fill="none" stroke="orange" d="M101.01,-344.78C93.15,-330.5 84.12,-314.08 76.94,-301.03"/>
<polygon fill="orange" stroke="orange" points="98.08,-346.73 105.97,-353.8 104.21,-343.35 98.08,-346.73"/>
</a>
</g>
<text text-anchor="start" x="97.5" y="-324.5" font-family="Helvetica,sans-Serif" font-size="10.00" fill="grey">&lt; Impl &gt;</text>
</g>
<!-- Node5 -->
<g id="Node000005" class="node">
<title>Node5</title>
<g id="a_Node000005"><a xlink:title=" ">
<polygon fill="white" stroke="transparent" points="127.5,-505 110.5,-505 110.5,-456 127.5,-456 127.5,-505"/>
<text text-anchor="start" x="116" y="-492.5" font-family="Helvetica,sans-Serif" font-size="10.00">T</text>
<text text-anchor="start" x="117.5" y="-477.5" font-family="Helvetica,sans-Serif" font-size="10.00"> </text>
<text text-anchor="start" x="117.5" y="-462.5" font-family="Helvetica,sans-Serif" font-size="10.00"> </text>
<polygon fill="#666666" stroke="#666666" points="111,-487.5 111,-487.5 128,-487.5 128,-487.5 111,-487.5"/>
<polygon fill="#666666" stroke="#666666" points="111,-472.5 111,-472.5 128,-472.5 128,-472.5 111,-472.5"/>
<polygon fill="none" stroke="#666666" points="110.5,-456 110.5,-505 127.5,-505 127.5,-456 110.5,-456"/>
</a>
</g>
</g>
<!-- Node5&#45;&gt;Node4 -->
<g id="edge4_Node000004_Node000005" class="edge">
<title>Node5&#45;&gt;Node4</title>
<g id="a_edge4_Node000004_Node000005"><a xlink:title=" ">
<path fill="none" stroke="#63b8ff" d="M119,-455.8C119,-443.72 119,-428.78 119,-415.33"/>
<polygon fill="none" stroke="#63b8ff" points="119,-415.03 115,-409.03 119,-403.03 123,-409.03 119,-415.03"/>
</a>
</g>
<text text-anchor="start" x="122" y="-426.5" font-family="Helvetica,sans-Serif" font-size="10.00" fill="grey">+ptr</text>
</g>
</g>
</svg>
