<?xml version="1.0" encoding="UTF-8" standalone="no"?>
<!DOCTYPE svg PUBLIC "-//W3C//DTD SVG 1.1//EN"
 "http://www.w3.org/Graphics/SVG/1.1/DTD/svg11.dtd">
<!-- Generated by graphviz version 14.1.2 (0)
 -->
<!-- Title: rm::lpss::RobotPlanner Pages: 1 -->
<!--zoomable 558 -->

<svg id="main" version="1.1" xmlns="http://www.w3.org/2000/svg" xmlns:xlink="http://www.w3.org/1999/xlink" xml:space="preserve" onload="init(evt)">

<style type="text/css"><![CDATA[
.node, .edge {opacity: 0.7;}
.node.selected, .edge.selected {opacity: 1;}
.edge:hover path { stroke: red; }
.edge:hover polygon { stroke: red; fill: red; }
]]></style>

<defs>
  <circle id="rim" cx="0" cy="0" r="7"/>
  <circle id="rim2" cx="0" cy="0" r="3.5"/>
  <g id="zoomPlus">
    <use xlink:href="#rim" fill="#404040"><set attributeName="fill" to="#808080" begin="zoomplus.mouseover" end="zoomplus.mouseout"/></use>
    <path d="M-4,0h8M0,-4v8" fill="none" stroke="white" stroke-width="1.5" pointer-events="none"/>
  </g>
  <g id="zoomMin">
    <use xlink:href="#rim" fill="#404040"><set attributeName="fill" to="#808080" begin="zoomminus.mouseover" end="zoomminus.mouseout"/></use>
    <path d="M-4,0h8" fill="none" stroke="white" stroke-width="1.5" pointer-events="none"/>
  </g>
  <g id="arrowUp" transform="translate(30 24)">
    <use xlink:href="#rim"/>
    <path pointer-events="none" fill="none" stroke="white" stroke-width="1.5" d="M0,-3.0v7 M-2.5,-0.5L0,-3.0L2.5,-0.5"/>
  </g>
  <g id="arrowRight" transform="rotate(90) translate(36 -43)">
    <use xlink:href="#rim"/>
    <path pointer-events="none" fill="none" stroke="white" stroke-width="1.5" d="M0,-3.0v7 M-2.5,-0.5L0,-3.0L2.5,-0.5"/>
  </g>
  <g id="arrowDown" transform="rotate(180) translate(-30 -48)">
    <use xlink:href="#rim"/>
    <path pointer-events="none" fill="none" stroke="white" stroke-width="1.5" d="M0,-3.0v7 M-2.5,-0.5L0,-3.0L2.5,-0.5"/>
  </g>
  <g id="arrowLeft" transform="rotate(270) translate(-36 17)">
    <use xlink:href="#rim"/>
    <path pointer-events="none" fill="none" stroke="white" stroke-width="1.5" d="M0,-3.0v7 M-2.5,-0.5L0,-3.0L2.5,-0.5"/>
  </g>
  <g id="resetDef">
    <use xlink:href="#rim2" fill="#404040"><set attributeName="fill" to="#808080" begin="reset.mouseover" end="reset.mouseout"/></use>
  </g>
</defs>
<script type="application/ecmascript">
var viewWidth = 188;
var viewHeight = 558;
var sectionId = 'dynsection-0';
</script>
<script type="application/ecmascript" xlink:href="../../svg.min.js"/>
<svg id="graph" class="graph">
<g id="viewport">
<title>rm::lpss::RobotPlanner</title>
<!-- Node1 -->
<g id="Node000001" class="node">
<title>Node1</title>
<g id="a_Node000001"><a xlink:title="机器人规划模块，提供 URDF 解析、正/逆运动学求解、轨迹规划等运动学功能">
<polygon fill="#999999" stroke="none" points="121.62,-222.65 3.38,-222.65 3.38,0 121.62,0 121.62,-222.65"/>
<text xml:space="preserve" text-anchor="start" x="7.38" y="-209.15" font-family="Helvetica,sans-Serif" font-size="10.00">rm::lpss::RobotPlanner</text>
<text xml:space="preserve" text-anchor="start" x="61" y="-192.4" font-family="Helvetica,sans-Serif" font-size="10.00"> </text>
<text xml:space="preserve" text-anchor="start" x="11.62" y="-175.65" font-family="Helvetica,sans-Serif" font-size="10.00">+</text>
<text xml:space="preserve" text-anchor="start" x="28.12" y="-175.65" font-family="Helvetica,sans-Serif" font-size="10.00">RobotPlanner()</text>
<text xml:space="preserve" text-anchor="start" x="11.62" y="-158.9" font-family="Helvetica,sans-Serif" font-size="10.00">+</text>
<text xml:space="preserve" text-anchor="start" x="28.12" y="-158.9" font-family="Helvetica,sans-Serif" font-size="10.00">RobotPlanner()</text>
<text xml:space="preserve" text-anchor="start" x="11.62" y="-142.15" font-family="Helvetica,sans-Serif" font-size="10.00">+</text>
<text xml:space="preserve" text-anchor="start" x="28.12" y="-142.15" font-family="Helvetica,sans-Serif" font-size="10.00">operator=()</text>
<text xml:space="preserve" text-anchor="start" x="11.62" y="-125.4" font-family="Helvetica,sans-Serif" font-size="10.00">+</text>
<text xml:space="preserve" text-anchor="start" x="28.12" y="-125.4" font-family="Helvetica,sans-Serif" font-size="10.00">~RobotPlanner()</text>
<text xml:space="preserve" text-anchor="start" x="11.62" y="-108.65" font-family="Helvetica,sans-Serif" font-size="10.00">+</text>
<text xml:space="preserve" text-anchor="start" x="28.12" y="-108.65" font-family="Helvetica,sans-Serif" font-size="10.00">load()</text>
<text xml:space="preserve" text-anchor="start" x="11.62" y="-91.9" font-family="Helvetica,sans-Serif" font-size="10.00">+</text>
<text xml:space="preserve" text-anchor="start" x="28.12" y="-91.9" font-family="Helvetica,sans-Serif" font-size="10.00">update()</text>
<text xml:space="preserve" text-anchor="start" x="11.62" y="-75.15" font-family="Helvetica,sans-Serif" font-size="10.00">+</text>
<text xml:space="preserve" text-anchor="start" x="28.12" y="-75.15" font-family="Helvetica,sans-Serif" font-size="10.00">joints()</text>
<text xml:space="preserve" text-anchor="start" x="11.62" y="-58.4" font-family="Helvetica,sans-Serif" font-size="10.00">+</text>
<text xml:space="preserve" text-anchor="start" x="28.12" y="-58.4" font-family="Helvetica,sans-Serif" font-size="10.00">urdf()</text>
<text xml:space="preserve" text-anchor="start" x="11.62" y="-41.65" font-family="Helvetica,sans-Serif" font-size="10.00">+</text>
<text xml:space="preserve" text-anchor="start" x="28.12" y="-41.65" font-family="Helvetica,sans-Serif" font-size="10.00">tf()</text>
<text xml:space="preserve" text-anchor="start" x="11.62" y="-24.9" font-family="Helvetica,sans-Serif" font-size="10.00">+</text>
<text xml:space="preserve" text-anchor="start" x="28.12" y="-24.9" font-family="Helvetica,sans-Serif" font-size="10.00">plan()</text>
<text xml:space="preserve" text-anchor="start" x="28.12" y="-8.15" font-family="Helvetica,sans-Serif" font-size="10.00">和 7 更多...</text>
<polygon fill="#666666" stroke="#666666" points="3.38,-203.9 3.38,-203.9 121.62,-203.9 121.62,-203.9 3.38,-203.9"/>
<polygon fill="#666666" stroke="#666666" points="3.38,-187.15 3.38,-187.15 121.62,-187.15 121.62,-187.15 3.38,-187.15"/>
<polygon fill="none" stroke="#666666" points="3.38,0 3.38,-222.65 121.62,-222.65 121.62,0 3.38,0"/>
</a>
</g>
</g>
<!-- Node2 -->
<g id="Node000002" class="node">
<title>Node2</title>
<g id="a_Node000002"><a xlink:title=" ">
<polygon fill="white" stroke="none" points="125,-331.65 0,-331.65 0,-277.4 125,-277.4 125,-331.65"/>
<text xml:space="preserve" text-anchor="start" x="4" y="-318.15" font-family="Helvetica,sans-Serif" font-size="10.00">std::unique_ptr&lt; Impl &gt;</text>
<text xml:space="preserve" text-anchor="start" x="61" y="-301.4" font-family="Helvetica,sans-Serif" font-size="10.00"> </text>
<text xml:space="preserve" text-anchor="start" x="15" y="-284.65" font-family="Helvetica,sans-Serif" font-size="10.00">+</text>
<text xml:space="preserve" text-anchor="start" x="38.25" y="-284.65" font-family="Helvetica,sans-Serif" font-size="10.00">operator&#45;&gt;()</text>
<polygon fill="#666666" stroke="#666666" points="0,-312.9 0,-312.9 125,-312.9 125,-312.9 0,-312.9"/>
<polygon fill="#666666" stroke="#666666" points="0,-296.15 0,-296.15 125,-296.15 125,-296.15 0,-296.15"/>
<polygon fill="none" stroke="#666666" points="0,-277.4 0,-331.65 125,-331.65 125,-277.4 0,-277.4"/>
</a>
</g>
</g>
<!-- Node2&#45;&gt;Node1 -->
<g id="edge1_Node000001_Node000002" class="edge">
<title>Node2&#45;&gt;Node1</title>
<g id="a_edge1_Node000001_Node000002"><a xlink:title=" ">
<path fill="none" stroke="#63b8ff" d="M62.5,-277.74C62.5,-266 62.5,-251.17 62.5,-235.23"/>
<polygon fill="none" stroke="#63b8ff" points="62.5,-235.15 58.5,-229.15 62.5,-223.15 66.5,-229.15 62.5,-235.15"/>
</a>
</g>
<text xml:space="preserve" text-anchor="start" x="65.5" y="-246.9" font-family="Helvetica,sans-Serif" font-size="10.00" fill="grey">#_impl</text>
</g>
<!-- Node3 -->
<g id="Node000003" class="node">
<title>Node3</title>
<g id="a_Node000003"><a xlink:title=" ">
<polygon fill="white" stroke="none" points="52.38,-440.65 22.62,-440.65 22.62,-386.4 52.38,-386.4 52.38,-440.65"/>
<text xml:space="preserve" text-anchor="start" x="26.62" y="-427.15" font-family="Helvetica,sans-Serif" font-size="10.00">Impl</text>
<text xml:space="preserve" text-anchor="start" x="36" y="-410.4" font-family="Helvetica,sans-Serif" font-size="10.00"> </text>
<text xml:space="preserve" text-anchor="start" x="36" y="-393.65" font-family="Helvetica,sans-Serif" font-size="10.00"> </text>
<polygon fill="#666666" stroke="#666666" points="22.62,-421.9 22.62,-421.9 52.38,-421.9 52.38,-421.9 22.62,-421.9"/>
<polygon fill="#666666" stroke="#666666" points="22.62,-405.15 22.62,-405.15 52.38,-405.15 52.38,-405.15 22.62,-405.15"/>
<polygon fill="none" stroke="#666666" points="22.62,-386.4 22.62,-440.65 52.38,-440.65 52.38,-386.4 22.62,-386.4"/>
</a>
</g>
</g>
<!-- Node3&#45;&gt;Node2 -->
<g id="edge2_Node000002_Node000003" class="edge">
<title>Node3&#45;&gt;Node2</title>
<g id="a_edge2_Node000002_Node000003"><a xlink:title=" ">
<path fill="none" stroke="#63b8ff" d="M43.55,-386.63C46.54,-373.84 50.2,-358.16 53.51,-344.01"/>
<polygon fill="none" stroke="#63b8ff" points="53.48,-344.13 50.95,-337.37 56.21,-332.44 58.74,-339.19 53.48,-344.13"/>
</a>
</g>
<text xml:space="preserve" text-anchor="start" x="54.5" y="-355.9" font-family="Helvetica,sans-Serif" font-size="10.00" fill="grey">+ptr</text>
</g>
<!-- Node4 -->
<g id="Node000004" class="node">
<title>Node4</title>
<g id="a_Node000004"><a xlink:title=" ">
<polygon fill="white" stroke="none" points="180.12,-440.65 70.88,-440.65 70.88,-386.4 180.12,-386.4 180.12,-440.65"/>
<text xml:space="preserve" text-anchor="start" x="74.88" y="-427.15" font-family="Helvetica,sans-Serif" font-size="10.00">std::unique_ptr&lt; T &gt;</text>
<text xml:space="preserve" text-anchor="start" x="124" y="-410.4" font-family="Helvetica,sans-Serif" font-size="10.00"> </text>
<text xml:space="preserve" text-anchor="start" x="81.94" y="-393.65" font-family="Helvetica,sans-Serif" font-size="10.00">+</text>
<text xml:space="preserve" text-anchor="start" x="101.25" y="-393.65" font-family="Helvetica,sans-Serif" font-size="10.00">operator&#45;&gt;()</text>
<polygon fill="#666666" stroke="#666666" points="70.88,-421.9 70.88,-421.9 180.12,-421.9 180.12,-421.9 70.88,-421.9"/>
<polygon fill="#666666" stroke="#666666" points="70.88,-405.15 70.88,-405.15 180.12,-405.15 180.12,-405.15 70.88,-405.15"/>
<polygon fill="none" stroke="#666666" points="70.88,-386.4 70.88,-440.65 180.12,-440.65 180.12,-386.4 70.88,-386.4"/>
</a>
</g>
</g>
<!-- Node4&#45;&gt;Node2 -->
<g id="edge3_Node000002_Node000004" class="edge">
<title>Node4&#45;&gt;Node2</title>
<g id="a_edge3_Node000002_Node000004"><a xlink:title=" ">
<path fill="none" stroke="orange" d="M104.45,-376.78C95.74,-361.99 85.83,-345.15 77.83,-331.56"/>
<polygon fill="orange" stroke="orange" points="101.39,-378.48 109.48,-385.32 107.42,-374.93 101.39,-378.48"/>
</a>
</g>
<text xml:space="preserve" text-anchor="start" x="100.77" y="-355.9" font-family="Helvetica,sans-Serif" font-size="10.00" fill="grey">&lt; Impl &gt;</text>
</g>
<!-- Node5 -->
<g id="Node000005" class="node">
<title>Node5</title>
<g id="a_Node000005"><a xlink:title=" ">
<polygon fill="white" stroke="none" points="132.5,-549.65 118.5,-549.65 118.5,-495.4 132.5,-495.4 132.5,-549.65"/>
<text xml:space="preserve" text-anchor="start" x="122.5" y="-536.15" font-family="Helvetica,sans-Serif" font-size="10.00">T</text>
<text xml:space="preserve" text-anchor="start" x="124" y="-519.4" font-family="Helvetica,sans-Serif" font-size="10.00"> </text>
<text xml:space="preserve" text-anchor="start" x="124" y="-502.65" font-family="Helvetica,sans-Serif" font-size="10.00"> </text>
<polygon fill="#666666" stroke="#666666" points="118.5,-530.9 118.5,-530.9 132.5,-530.9 132.5,-530.9 118.5,-530.9"/>
<polygon fill="#666666" stroke="#666666" points="118.5,-514.15 118.5,-514.15 132.5,-514.15 132.5,-514.15 118.5,-514.15"/>
<polygon fill="none" stroke="#666666" points="118.5,-495.4 118.5,-549.65 132.5,-549.65 132.5,-495.4 118.5,-495.4"/>
</a>
</g>
</g>
<!-- Node5&#45;&gt;Node4 -->
<g id="edge4_Node000004_Node000005" class="edge">
<title>Node5&#45;&gt;Node4</title>
<g id="a_edge4_Node000004_Node000005"><a xlink:title=" ">
<path fill="none" stroke="#63b8ff" d="M125.5,-495.63C125.5,-482.97 125.5,-467.48 125.5,-453.44"/>
<polygon fill="none" stroke="#63b8ff" points="125.5,-453.46 121.5,-447.46 125.5,-441.46 129.5,-447.46 125.5,-453.46"/>
</a>
</g>
<text xml:space="preserve" text-anchor="start" x="128.5" y="-464.9" font-family="Helvetica,sans-Serif" font-size="10.00" fill="grey">+ptr</text>
</g>
</g>
</svg>

<g id="navigator" transform="translate(0 0)" fill="#404254">
  <rect fill="#f2f5e9" fill-opacity="0.5" stroke="#606060" stroke-width=".5" x="0" y="0" width="60" height="60"/>
  <use id="zoomplus" xlink:href="#zoomPlus" x="17" y="9" onmousedown="handleZoom(evt,'in')"/>
  <use id="zoomminus" xlink:href="#zoomMin" x="42" y="9" onmousedown="handleZoom(evt,'out')"/>
  <use id="reset" xlink:href="#resetDef" x="30" y="36" onmousedown="handleReset()"/>
   <use id="arrowup" xlink:href="#arrowUp" x="0" y="0" onmousedown="handlePan(0,-1)"/>
  <use id="arrowright" xlink:href="#arrowRight" x="0" y="0" onmousedown="handlePan(1,0)"/>
  <use id="arrowdown" xlink:href="#arrowDown" x="0" y="0" onmousedown="handlePan(0,1)"/>
  <use id="arrowleft" xlink:href="#arrowLeft" x="0" y="0" onmousedown="handlePan(-1,0)"/>
</g>
<svg viewBox="0 0 15 15" width="100%" height="30px" preserveAspectRatio="xMaxYMin meet">
 <g id="arrow_out" transform="scale(0.3 0.3)">
  <a xlink:href="classrm_1_1lpss_1_1RobotPlanner__coll__graph_org.svg" target="_base">
   <rect id="button" ry="5" rx="5" y="6" x="6" height="38" width="38"
        fill="#f2f5e9" fill-opacity="0.5" stroke="#606060" stroke-width="1.0"/>
   <path id="arrow"
     d="M 11.500037,31.436501 C 11.940474,20.09759 22.043105,11.32322 32.158766,21.979434 L 37.068811,17.246167 C 37.068811,17.246167 37.088388,32 37.088388,32 L 22.160133,31.978069 C 22.160133,31.978069 26.997745,27.140456 26.997745,27.140456 C 18.528582,18.264221 13.291696,25.230495 11.500037,31.436501 z"
     style="fill:#404040;"/>
  </a>
 </g>
</svg>

<style type='text/css'>
<![CDATA[
[data-mouse-over-selected='false'] { opacity: 0.7; }
[data-mouse-over-selected='true']  { opacity: 1.0; }
]]>
</style>
<script type="application/ecmascript"><![CDATA[
document.addEventListener('DOMContentLoaded', (event) => {
  highlightEdges();
  highlightAdjacentNodes();
});
]]></script>
</svg>
