<?xml version="1.0" encoding="UTF-8" standalone="no"?>
<!DOCTYPE svg PUBLIC "-//W3C//DTD SVG 1.1//EN"
 "http://www.w3.org/Graphics/SVG/1.1/DTD/svg11.dtd">
<!-- Generated by graphviz version 2.43.0 (0)
 -->
<!-- Title: rm::lpss::RobotPlanner Pages: 1 -->
<!--zoomable 513 -->

<svg id="main" version="1.1" xmlns="http://www.w3.org/2000/svg" xmlns:xlink="http://www.w3.org/1999/xlink" xml:space="preserve" onload="init(evt)">

<style type="text/css"><![CDATA[
.node, .edge {opacity: 0.7;}
.node.selected, .edge.selected {opacity: 1;}
.edge:hover path { stroke: red; }
.edge:hover polygon { stroke: red; fill: red; }
]]></style>

<defs>
  <circle id="rim" cx="0" cy="0" r="7"/>
  <circle id="rim2" cx="0" cy="0" r="3.5"/>
  <g id="zoomPlus">
    <use xlink:href="#rim" fill="#404040"><set attributeName="fill" to="#808080" begin="zoomplus.mouseover" end="zoomplus.mouseout"/></use>
    <path d="M-4,0h8M0,-4v8" fill="none" stroke="white" stroke-width="1.5" pointer-events="none"/>
  </g>
  <g id="zoomMin">
    <use xlink:href="#rim" fill="#404040"><set attributeName="fill" to="#808080" begin="zoomminus.mouseover" end="zoomminus.mouseout"/></use>
    <path d="M-4,0h8" fill="none" stroke="white" stroke-width="1.5" pointer-events="none"/>
  </g>
  <g id="arrowUp" transform="translate(30 24)">
    <use xlink:href="#rim"/>
    <path pointer-events="none" fill="none" stroke="white" stroke-width="1.5" d="M0,-3.0v7 M-2.5,-0.5L0,-3.0L2.5,-0.5"/>
  </g>
  <g id="arrowRight" transform="rotate(90) translate(36 -43)">
    <use xlink:href="#rim"/>
    <path pointer-events="none" fill="none" stroke="white" stroke-width="1.5" d="M0,-3.0v7 M-2.5,-0.5L0,-3.0L2.5,-0.5"/>
  </g>
  <g id="arrowDown" transform="rotate(180) translate(-30 -48)">
    <use xlink:href="#rim"/>
    <path pointer-events="none" fill="none" stroke="white" stroke-width="1.5" d="M0,-3.0v7 M-2.5,-0.5L0,-3.0L2.5,-0.5"/>
  </g>
  <g id="arrowLeft" transform="rotate(270) translate(-36 17)">
    <use xlink:href="#rim"/>
    <path pointer-events="none" fill="none" stroke="white" stroke-width="1.5" d="M0,-3.0v7 M-2.5,-0.5L0,-3.0L2.5,-0.5"/>
  </g>
  <g id="resetDef">
    <use xlink:href="#rim2" fill="#404040"><set attributeName="fill" to="#808080" begin="reset.mouseover" end="reset.mouseout"/></use>
  </g>
</defs>
<script type="application/ecmascript">
var viewWidth = 164;
var viewHeight = 513;
var sectionId = 'dynsection-0';
</script>
<script type="application/ecmascript" xlink:href="../../svg.min.js"/>
<svg id="graph" class="graph">
<g id="viewport">
<title>rm::lpss::RobotPlanner</title>
<!-- Node1 -->
<g id="Node000001" class="node">
<title>Node1</title>
<g id="a_Node000001"><a xlink:title="机器人规划模块，提供 URDF 解析、正/逆运动学求解、轨迹规划等运动学功能">
<polygon fill="#999999" stroke="transparent" points="111.5,-199 0.5,-199 0.5,0 111.5,0 111.5,-199"/>
<text text-anchor="start" x="6" y="-186.5" font-family="Helvetica,sans-Serif" font-size="10.00">rm::lpss::RobotPlanner</text>
<text text-anchor="start" x="54.5" y="-171.5" font-family="Helvetica,sans-Serif" font-size="10.00"> </text>
<text text-anchor="start" x="10" y="-156.5" font-family="Helvetica,sans-Serif" font-size="10.00">+</text>
<text text-anchor="start" x="26" y="-156.5" font-family="Helvetica,sans-Serif" font-size="10.00">RobotPlanner()</text>
<text text-anchor="start" x="10" y="-141.5" font-family="Helvetica,sans-Serif" font-size="10.00">+</text>
<text text-anchor="start" x="26" y="-141.5" font-family="Helvetica,sans-Serif" font-size="10.00">RobotPlanner()</text>
<text text-anchor="start" x="10" y="-126.5" font-family="Helvetica,sans-Serif" font-size="10.00">+</text>
<text text-anchor="start" x="26" y="-126.5" font-family="Helvetica,sans-Serif" font-size="10.00">operator=()</text>
<text text-anchor="start" x="10" y="-111.5" font-family="Helvetica,sans-Serif" font-size="10.00">+</text>
<text text-anchor="start" x="26" y="-111.5" font-family="Helvetica,sans-Serif" font-size="10.00">~RobotPlanner()</text>
<text text-anchor="start" x="10" y="-96.5" font-family="Helvetica,sans-Serif" font-size="10.00">+</text>
<text text-anchor="start" x="26" y="-96.5" font-family="Helvetica,sans-Serif" font-size="10.00">load()</text>
<text text-anchor="start" x="10" y="-81.5" font-family="Helvetica,sans-Serif" font-size="10.00">+</text>
<text text-anchor="start" x="26" y="-81.5" font-family="Helvetica,sans-Serif" font-size="10.00">update()</text>
<text text-anchor="start" x="10" y="-66.5" font-family="Helvetica,sans-Serif" font-size="10.00">+</text>
<text text-anchor="start" x="26" y="-66.5" font-family="Helvetica,sans-Serif" font-size="10.00">joints()</text>
<text text-anchor="start" x="10" y="-51.5" font-family="Helvetica,sans-Serif" font-size="10.00">+</text>
<text text-anchor="start" x="26" y="-51.5" font-family="Helvetica,sans-Serif" font-size="10.00">urdf()</text>
<text text-anchor="start" x="10" y="-36.5" font-family="Helvetica,sans-Serif" font-size="10.00">+</text>
<text text-anchor="start" x="26" y="-36.5" font-family="Helvetica,sans-Serif" font-size="10.00">tf()</text>
<text text-anchor="start" x="10" y="-21.5" font-family="Helvetica,sans-Serif" font-size="10.00">+</text>
<text text-anchor="start" x="26" y="-21.5" font-family="Helvetica,sans-Serif" font-size="10.00">plan()</text>
<text text-anchor="start" x="10" y="-6.5" font-family="Helvetica,sans-Serif" font-size="10.00">+</text>
<text text-anchor="start" x="26" y="-6.5" font-family="Helvetica,sans-Serif" font-size="10.00">linkpose()</text>
<polygon fill="#666666" stroke="#666666" points="1,-181.5 1,-181.5 112,-181.5 112,-181.5 1,-181.5"/>
<polygon fill="#666666" stroke="#666666" points="1,-166.5 1,-166.5 112,-166.5 112,-166.5 1,-166.5"/>
<polygon fill="none" stroke="#666666" points="0.5,0 0.5,-199 111.5,-199 111.5,0 0.5,0"/>
</a>
</g>
</g>
<!-- Node2 -->
<g id="Node000002" class="node">
<title>Node2</title>
<g id="a_Node000002"><a xlink:title=" ">
<polygon fill="white" stroke="transparent" points="112,-301 0,-301 0,-252 112,-252 112,-301"/>
<text text-anchor="start" x="5" y="-288.5" font-family="Helvetica,sans-Serif" font-size="10.00">std::unique_ptr&lt; Impl &gt;</text>
<text text-anchor="start" x="54" y="-273.5" font-family="Helvetica,sans-Serif" font-size="10.00"> </text>
<text text-anchor="start" x="14.5" y="-258.5" font-family="Helvetica,sans-Serif" font-size="10.00">+</text>
<text text-anchor="start" x="36" y="-258.5" font-family="Helvetica,sans-Serif" font-size="10.00">operator&#45;&gt;()</text>
<polygon fill="#666666" stroke="#666666" points="0,-283.5 0,-283.5 112,-283.5 112,-283.5 0,-283.5"/>
<polygon fill="#666666" stroke="#666666" points="0,-268.5 0,-268.5 112,-268.5 112,-268.5 0,-268.5"/>
<polygon fill="none" stroke="#666666" points="0,-252 0,-301 112,-301 112,-252 0,-252"/>
</a>
</g>
</g>
<!-- Node2&#45;&gt;Node1 -->
<g id="edge1_Node000001_Node000002" class="edge">
<title>Node2&#45;&gt;Node1</title>
<g id="a_edge1_Node000001_Node000002"><a xlink:title=" ">
<path fill="none" stroke="#63b8ff" d="M56,-251.9C56,-240.78 56,-226.64 56,-211.48"/>
<polygon fill="none" stroke="#63b8ff" points="56,-211.15 52,-205.15 56,-199.15 60,-205.15 56,-211.15"/>
</a>
</g>
<text text-anchor="start" x="59.5" y="-222.5" font-family="Helvetica,sans-Serif" font-size="10.00" fill="grey">#_impl</text>
</g>
<!-- Node3 -->
<g id="Node000003" class="node">
<title>Node3</title>
<g id="a_Node000003"><a xlink:title=" ">
<polygon fill="white" stroke="transparent" points="38.5,-403 9.5,-403 9.5,-354 38.5,-354 38.5,-403"/>
<text text-anchor="start" x="15" y="-390.5" font-family="Helvetica,sans-Serif" font-size="10.00">Impl</text>
<text text-anchor="start" x="22.5" y="-375.5" font-family="Helvetica,sans-Serif" font-size="10.00"> </text>
<text text-anchor="start" x="22.5" y="-360.5" font-family="Helvetica,sans-Serif" font-size="10.00"> </text>
<polygon fill="#666666" stroke="#666666" points="10,-385.5 10,-385.5 39,-385.5 39,-385.5 10,-385.5"/>
<polygon fill="#666666" stroke="#666666" points="10,-370.5 10,-370.5 39,-370.5 39,-370.5 10,-370.5"/>
<polygon fill="none" stroke="#666666" points="9.5,-354 9.5,-403 38.5,-403 38.5,-354 9.5,-354"/>
</a>
</g>
</g>
<!-- Node3&#45;&gt;Node2 -->
<g id="edge2_Node000002_Node000003" class="edge">
<title>Node3&#45;&gt;Node2</title>
<g id="a_edge2_Node000002_Node000003"><a xlink:title=" ">
<path fill="none" stroke="#63b8ff" d="M31.13,-353.83C34.38,-343.17 38.31,-330.43 42,-319 42.67,-316.92 43.37,-314.78 44.08,-312.63"/>
<polygon fill="none" stroke="#63b8ff" points="44.1,-312.55 42.2,-305.59 47.89,-301.17 49.79,-308.12 44.1,-312.55"/>
</a>
</g>
<text text-anchor="start" x="45" y="-324.5" font-family="Helvetica,sans-Serif" font-size="10.00" fill="grey">+ptr</text>
</g>
<!-- Node4 -->
<g id="Node000004" class="node">
<title>Node4</title>
<g id="a_Node000004"><a xlink:title=" ">
<polygon fill="white" stroke="transparent" points="155.5,-403 56.5,-403 56.5,-354 155.5,-354 155.5,-403"/>
<text text-anchor="start" x="62" y="-390.5" font-family="Helvetica,sans-Serif" font-size="10.00">std::unique_ptr&lt; T &gt;</text>
<text text-anchor="start" x="104.5" y="-375.5" font-family="Helvetica,sans-Serif" font-size="10.00"> </text>
<text text-anchor="start" x="68" y="-360.5" font-family="Helvetica,sans-Serif" font-size="10.00">+</text>
<text text-anchor="start" x="86" y="-360.5" font-family="Helvetica,sans-Serif" font-size="10.00">operator&#45;&gt;()</text>
<polygon fill="#666666" stroke="#666666" points="57,-385.5 57,-385.5 156,-385.5 156,-385.5 57,-385.5"/>
<polygon fill="#666666" stroke="#666666" points="57,-370.5 57,-370.5 156,-370.5 156,-370.5 57,-370.5"/>
<polygon fill="none" stroke="#666666" points="56.5,-354 56.5,-403 155.5,-403 155.5,-354 56.5,-354"/>
</a>
</g>
</g>
<!-- Node4&#45;&gt;Node2 -->
<g id="edge3_Node000002_Node000004" class="edge">
<title>Node4&#45;&gt;Node2</title>
<g id="a_edge3_Node000002_Node000004"><a xlink:title=" ">
<path fill="none" stroke="orange" d="M89.64,-344.78C82.5,-330.5 74.29,-314.08 67.76,-301.03"/>
<polygon fill="orange" stroke="orange" points="86.55,-346.42 94.15,-353.8 92.81,-343.29 86.55,-346.42"/>
</a>
</g>
<text text-anchor="start" x="86.5" y="-324.5" font-family="Helvetica,sans-Serif" font-size="10.00" fill="grey">&lt; Impl &gt;</text>
</g>
<!-- Node5 -->
<g id="Node000005" class="node">
<title>Node5</title>
<g id="a_Node000005"><a xlink:title=" ">
<polygon fill="white" stroke="transparent" points="114.5,-505 97.5,-505 97.5,-456 114.5,-456 114.5,-505"/>
<text text-anchor="start" x="103" y="-492.5" font-family="Helvetica,sans-Serif" font-size="10.00">T</text>
<text text-anchor="start" x="104.5" y="-477.5" font-family="Helvetica,sans-Serif" font-size="10.00"> </text>
<text text-anchor="start" x="104.5" y="-462.5" font-family="Helvetica,sans-Serif" font-size="10.00"> </text>
<polygon fill="#666666" stroke="#666666" points="98,-487.5 98,-487.5 115,-487.5 115,-487.5 98,-487.5"/>
<polygon fill="#666666" stroke="#666666" points="98,-472.5 98,-472.5 115,-472.5 115,-472.5 98,-472.5"/>
<polygon fill="none" stroke="#666666" points="97.5,-456 97.5,-505 114.5,-505 114.5,-456 97.5,-456"/>
</a>
</g>
</g>
<!-- Node5&#45;&gt;Node4 -->
<g id="edge4_Node000004_Node000005" class="edge">
<title>Node5&#45;&gt;Node4</title>
<g id="a_edge4_Node000004_Node000005"><a xlink:title=" ">
<path fill="none" stroke="#63b8ff" d="M106,-455.8C106,-443.72 106,-428.78 106,-415.33"/>
<polygon fill="none" stroke="#63b8ff" points="106,-415.03 102,-409.03 106,-403.03 110,-409.03 106,-415.03"/>
</a>
</g>
<text text-anchor="start" x="109" y="-426.5" font-family="Helvetica,sans-Serif" font-size="10.00" fill="grey">+ptr</text>
</g>
</g>
</svg>

<g id="navigator" transform="translate(0 0)" fill="#404254">
  <rect fill="#f2f5e9" fill-opacity="0.5" stroke="#606060" stroke-width=".5" x="0" y="0" width="60" height="60"/>
  <use id="zoomplus" xlink:href="#zoomPlus" x="17" y="9" onmousedown="handleZoom(evt,'in')"/>
  <use id="zoomminus" xlink:href="#zoomMin" x="42" y="9" onmousedown="handleZoom(evt,'out')"/>
  <use id="reset" xlink:href="#resetDef" x="30" y="36" onmousedown="handleReset()"/>
   <use id="arrowup" xlink:href="#arrowUp" x="0" y="0" onmousedown="handlePan(0,-1)"/>
  <use id="arrowright" xlink:href="#arrowRight" x="0" y="0" onmousedown="handlePan(1,0)"/>
  <use id="arrowdown" xlink:href="#arrowDown" x="0" y="0" onmousedown="handlePan(0,1)"/>
  <use id="arrowleft" xlink:href="#arrowLeft" x="0" y="0" onmousedown="handlePan(-1,0)"/>
</g>
<svg viewBox="0 0 15 15" width="100%" height="30px" preserveAspectRatio="xMaxYMin meet">
 <g id="arrow_out" transform="scale(0.3 0.3)">
  <a xlink:href="classrm_1_1lpss_1_1RobotPlanner__coll__graph_org.svg" target="_base">
   <rect id="button" ry="5" rx="5" y="6" x="6" height="38" width="38"
        fill="#f2f5e9" fill-opacity="0.5" stroke="#606060" stroke-width="1.0"/>
   <path id="arrow"
     d="M 11.500037,31.436501 C 11.940474,20.09759 22.043105,11.32322 32.158766,21.979434 L 37.068811,17.246167 C 37.068811,17.246167 37.088388,32 37.088388,32 L 22.160133,31.978069 C 22.160133,31.978069 26.997745,27.140456 26.997745,27.140456 C 18.528582,18.264221 13.291696,25.230495 11.500037,31.436501 z"
     style="fill:#404040;"/>
  </a>
 </g>
</svg>

<style type='text/css'>
<![CDATA[
[data-mouse-over-selected='false'] { opacity: 0.7; }
[data-mouse-over-selected='true']  { opacity: 1.0; }
]]>
</style>
<script type="application/ecmascript"><![CDATA[
document.addEventListener('DOMContentLoaded', (event) => {
  highlightEdges();
  highlightAdjacentNodes();
});
]]></script>
</svg>
