<?xml version="1.0" encoding="UTF-8" standalone="no"?>
<!DOCTYPE svg PUBLIC "-//W3C//DTD SVG 1.1//EN"
 "http://www.w3.org/Graphics/SVG/1.1/DTD/svg11.dtd">
<!-- Generated by graphviz version 14.1.2 (0)
 -->
<!-- Title: rm::lpss::ctl::UnitTF::create Pages: 1 -->
<svg width="260pt" height="94pt"
 viewBox="0.00 0.00 260.00 94.00" xmlns="http://www.w3.org/2000/svg" xmlns:xlink="http://www.w3.org/1999/xlink">
<g id="graph0" class="graph" transform="scale(1 1) rotate(0) translate(4 89.5)">
<title>rm::lpss::ctl::UnitTF::create</title>
<!-- Node1 -->
<g id="Node000001" class="node">
<title>Node1</title>
<g id="a_Node000001"><a xlink:title="创建单位传递函数控制律对象">
<polygon fill="#999999" stroke="#666666" points="111.25,-59.5 0,-59.5 0,-26 111.25,-26 111.25,-59.5"/>
<text xml:space="preserve" text-anchor="start" x="8" y="-46" font-family="Helvetica,sans-Serif" font-size="10.00">rm::lpss::ctl::UnitTF</text>
<text xml:space="preserve" text-anchor="middle" x="55.62" y="-33.25" font-family="Helvetica,sans-Serif" font-size="10.00">::create</text>
</a>
</g>
</g>
<!-- Node2 -->
<g id="Node000002" class="node">
<title>Node2</title>
<g id="a_Node000002"><a xlink:href="../../d2/d7d/group__lpss__robot.html#ga1fe3b083ecd49d8e3a385c71568b42fc" target="_top" xlink:title="基础位置采样输入映射，从 position 字段提取">
<polygon fill="white" stroke="#666666" points="251.75,-85.5 147.25,-85.5 147.25,-52 251.75,-52 251.75,-85.5"/>
<text xml:space="preserve" text-anchor="start" x="155.25" y="-72" font-family="Helvetica,sans-Serif" font-size="10.00">rm::lpss::ctl::basic</text>
<text xml:space="preserve" text-anchor="middle" x="199.5" y="-59.25" font-family="Helvetica,sans-Serif" font-size="10.00">_pos_imapping</text>
</a>
</g>
</g>
<!-- Node1&#45;&gt;Node2 -->
<g id="edge1_Node000001_Node000002" class="edge">
<title>Node1&#45;&gt;Node2</title>
<g id="a_edge1_Node000001_Node000002"><a xlink:title=" ">
<path fill="none" stroke="#63b8ff" d="M111.48,-52.8C119.43,-54.26 127.66,-55.77 135.75,-57.25"/>
<polygon fill="#63b8ff" stroke="#63b8ff" points="135.09,-60.69 145.56,-59.05 136.36,-53.8 135.09,-60.69"/>
</a>
</g>
</g>
<!-- Node3 -->
<g id="Node000003" class="node">
<title>Node3</title>
<g id="a_Node000003"><a xlink:href="../../d2/d7d/group__lpss__robot.html#gac161329e130922c510699809be82362f" target="_top" xlink:title="基础位置采样输出映射，将结果写回 position 字段">
<polygon fill="white" stroke="#666666" points="251.75,-33.5 147.25,-33.5 147.25,0 251.75,0 251.75,-33.5"/>
<text xml:space="preserve" text-anchor="start" x="155.25" y="-20" font-family="Helvetica,sans-Serif" font-size="10.00">rm::lpss::ctl::basic</text>
<text xml:space="preserve" text-anchor="middle" x="199.5" y="-7.25" font-family="Helvetica,sans-Serif" font-size="10.00">_pos_omapping</text>
</a>
</g>
</g>
<!-- Node1&#45;&gt;Node3 -->
<g id="edge2_Node000001_Node000003" class="edge">
<title>Node1&#45;&gt;Node3</title>
<g id="a_edge2_Node000001_Node000003"><a xlink:title=" ">
<path fill="none" stroke="#63b8ff" d="M111.48,-32.7C119.43,-31.24 127.66,-29.73 135.75,-28.25"/>
<polygon fill="#63b8ff" stroke="#63b8ff" points="136.36,-31.7 145.56,-26.45 135.09,-24.81 136.36,-31.7"/>
</a>
</g>
</g>
</g>
</svg>
