<?xml version="1.0" encoding="UTF-8" standalone="no"?>
<!DOCTYPE svg PUBLIC "-//W3C//DTD SVG 1.1//EN"
 "http://www.w3.org/Graphics/SVG/1.1/DTD/svg11.dtd">
<!-- Generated by graphviz version 2.43.0 (0)
 -->
<!-- Title: rm::GyroGroup Pages: 1 -->
<svg width="153pt" height="547pt"
 viewBox="0.00 0.00 153.00 547.00" xmlns="http://www.w3.org/2000/svg" xmlns:xlink="http://www.w3.org/1999/xlink">
<g id="graph0" class="graph" transform="scale(1 1) rotate(0) translate(4 543)">
<title>rm::GyroGroup</title>
<!-- Node1 -->
<g id="Node000001" class="node">
<title>Node1</title>
<g id="a_Node000001"><a xlink:title="整车状态序列组">
<polygon fill="#999999" stroke="transparent" points="145,-229 0,-229 0,0 145,0 145,-229"/>
<text text-anchor="start" x="40.5" y="-216.5" font-family="Helvetica,sans-Serif" font-size="10.00">rm::GyroGroup</text>
<text text-anchor="start" x="71" y="-201.5" font-family="Helvetica,sans-Serif" font-size="10.00"> </text>
<text text-anchor="start" x="4.5" y="-186.5" font-family="Helvetica,sans-Serif" font-size="10.00">+</text>
<text text-anchor="start" x="15.5" y="-186.5" font-family="Helvetica,sans-Serif" font-size="10.00">clone()</text>
<text text-anchor="start" x="4.5" y="-171.5" font-family="Helvetica,sans-Serif" font-size="10.00">+</text>
<text text-anchor="start" x="15.5" y="-171.5" font-family="Helvetica,sans-Serif" font-size="10.00">invalid()</text>
<text text-anchor="start" x="4.5" y="-156.5" font-family="Helvetica,sans-Serif" font-size="10.00">+</text>
<text text-anchor="start" x="15.5" y="-156.5" font-family="Helvetica,sans-Serif" font-size="10.00">sync()</text>
<text text-anchor="start" x="4.5" y="-141.5" font-family="Helvetica,sans-Serif" font-size="10.00">+</text>
<text text-anchor="start" x="15.5" y="-141.5" font-family="Helvetica,sans-Serif" font-size="10.00">getTrackerState()</text>
<text text-anchor="start" x="4.5" y="-126.5" font-family="Helvetica,sans-Serif" font-size="10.00">+</text>
<text text-anchor="start" x="15.5" y="-126.5" font-family="Helvetica,sans-Serif" font-size="10.00">getCenter3D()</text>
<text text-anchor="start" x="4.5" y="-111.5" font-family="Helvetica,sans-Serif" font-size="10.00">+</text>
<text text-anchor="start" x="15.5" y="-111.5" font-family="Helvetica,sans-Serif" font-size="10.00">getSpeed3D()</text>
<text text-anchor="start" x="4.5" y="-96.5" font-family="Helvetica,sans-Serif" font-size="10.00">+</text>
<text text-anchor="start" x="15.5" y="-96.5" font-family="Helvetica,sans-Serif" font-size="10.00">getRotatedSpeed()</text>
<text text-anchor="start" x="4.5" y="-81.5" font-family="Helvetica,sans-Serif" font-size="10.00">+</text>
<text text-anchor="start" x="15.5" y="-81.5" font-family="Helvetica,sans-Serif" font-size="10.00">imu()</text>
<text text-anchor="start" x="4.5" y="-66.5" font-family="Helvetica,sans-Serif" font-size="10.00">+</text>
<text text-anchor="start" x="15.5" y="-66.5" font-family="Helvetica,sans-Serif" font-size="10.00">getRotStatus()</text>
<text text-anchor="start" x="4.5" y="-51.5" font-family="Helvetica,sans-Serif" font-size="10.00">+</text>
<text text-anchor="start" x="15.5" y="-51.5" font-family="Helvetica,sans-Serif" font-size="10.00">make_group()</text>
<text text-anchor="start" x="4.5" y="-36.5" font-family="Helvetica,sans-Serif" font-size="10.00">+</text>
<text text-anchor="start" x="15.5" y="-36.5" font-family="Helvetica,sans-Serif" font-size="10.00">calcGroupFrom3DMessage()</text>
<text text-anchor="start" x="4.5" y="-21.5" font-family="Helvetica,sans-Serif" font-size="10.00">+</text>
<text text-anchor="start" x="15.5" y="-21.5" font-family="Helvetica,sans-Serif" font-size="10.00">constructComboForced()</text>
<text text-anchor="start" x="4.5" y="-6.5" font-family="Helvetica,sans-Serif" font-size="10.00">+</text>
<text text-anchor="start" x="15.5" y="-6.5" font-family="Helvetica,sans-Serif" font-size="10.00">calcArmorNum()</text>
<polygon fill="#666666" stroke="#666666" points="0.5,-211.5 0.5,-211.5 145.5,-211.5 145.5,-211.5 0.5,-211.5"/>
<polygon fill="#666666" stroke="#666666" points="0.5,-196.5 0.5,-196.5 145.5,-196.5 145.5,-196.5 0.5,-196.5"/>
<polygon fill="none" stroke="#666666" points="0,0 0,-229 145,-229 145,0 0,0"/>
</a>
</g>
</g>
<!-- Node2 -->
<g id="Node000002" class="node">
<title>Node2</title>
<g id="a_Node000002"><a xlink:href="../../d6/d6c/classrm_1_1group.html" target="_top" xlink:title="相关追踪器的空间集合（序列组）">
<polygon fill="white" stroke="transparent" points="124,-539 21,-539 21,-265 124,-265 124,-539"/>
<text text-anchor="start" x="52" y="-527" font-family="Helvetica,sans-Serif" font-size="10.00">rm::group</text>
<text text-anchor="start" x="26" y="-512" font-family="Helvetica,sans-Serif" font-size="10.00">#</text>
<text text-anchor="start" x="36.5" y="-512" font-family="Helvetica,sans-Serif" font-size="10.00">_trackers</text>
<text text-anchor="start" x="26" y="-497" font-family="Helvetica,sans-Serif" font-size="10.00">#</text>
<text text-anchor="start" x="36.5" y="-497" font-family="Helvetica,sans-Serif" font-size="10.00">_center</text>
<text text-anchor="start" x="26" y="-482" font-family="Helvetica,sans-Serif" font-size="10.00">#</text>
<text text-anchor="start" x="36.5" y="-482" font-family="Helvetica,sans-Serif" font-size="10.00">_is_tracked</text>
<text text-anchor="start" x="26" y="-467" font-family="Helvetica,sans-Serif" font-size="10.00">#</text>
<text text-anchor="start" x="36.5" y="-467" font-family="Helvetica,sans-Serif" font-size="10.00">_vanish_num</text>
<text text-anchor="start" x="26" y="-452" font-family="Helvetica,sans-Serif" font-size="10.00">#</text>
<text text-anchor="start" x="36.5" y="-452" font-family="Helvetica,sans-Serif" font-size="10.00">_state</text>
<text text-anchor="start" x="25.5" y="-437" font-family="Helvetica,sans-Serif" font-size="10.00">+</text>
<text text-anchor="start" x="36.5" y="-437" font-family="Helvetica,sans-Serif" font-size="10.00">clone()</text>
<text text-anchor="start" x="25.5" y="-422" font-family="Helvetica,sans-Serif" font-size="10.00">+</text>
<text text-anchor="start" x="36.5" y="-422" font-family="Helvetica,sans-Serif" font-size="10.00">sync()</text>
<text text-anchor="start" x="25.5" y="-407" font-family="Helvetica,sans-Serif" font-size="10.00">+</text>
<text text-anchor="start" x="36.5" y="-407" font-family="Helvetica,sans-Serif" font-size="10.00">add()</text>
<text text-anchor="start" x="25.5" y="-392" font-family="Helvetica,sans-Serif" font-size="10.00">+</text>
<text text-anchor="start" x="36.5" y="-392" font-family="Helvetica,sans-Serif" font-size="10.00">invalid()</text>
<text text-anchor="start" x="25.5" y="-377" font-family="Helvetica,sans-Serif" font-size="10.00">+</text>
<text text-anchor="start" x="36.5" y="-377" font-family="Helvetica,sans-Serif" font-size="10.00">data()</text>
<text text-anchor="start" x="25.5" y="-362" font-family="Helvetica,sans-Serif" font-size="10.00">+</text>
<text text-anchor="start" x="36.5" y="-362" font-family="Helvetica,sans-Serif" font-size="10.00">size()</text>
<text text-anchor="start" x="25.5" y="-347" font-family="Helvetica,sans-Serif" font-size="10.00">+</text>
<text text-anchor="start" x="36.5" y="-347" font-family="Helvetica,sans-Serif" font-size="10.00">empty()</text>
<text text-anchor="start" x="25.5" y="-332" font-family="Helvetica,sans-Serif" font-size="10.00">+</text>
<text text-anchor="start" x="36.5" y="-332" font-family="Helvetica,sans-Serif" font-size="10.00">at()</text>
<text text-anchor="start" x="25.5" y="-317" font-family="Helvetica,sans-Serif" font-size="10.00">+</text>
<text text-anchor="start" x="36.5" y="-317" font-family="Helvetica,sans-Serif" font-size="10.00">center()</text>
<text text-anchor="start" x="25.5" y="-302" font-family="Helvetica,sans-Serif" font-size="10.00">+</text>
<text text-anchor="start" x="36.5" y="-302" font-family="Helvetica,sans-Serif" font-size="10.00">getVanishNumber()</text>
<text text-anchor="start" x="25.5" y="-287" font-family="Helvetica,sans-Serif" font-size="10.00">+</text>
<text text-anchor="start" x="36.5" y="-287" font-family="Helvetica,sans-Serif" font-size="10.00">state()</text>
<text text-anchor="start" x="25.5" y="-272" font-family="Helvetica,sans-Serif" font-size="10.00">+</text>
<text text-anchor="start" x="36.5" y="-272" font-family="Helvetica,sans-Serif" font-size="10.00">state()</text>
<polygon fill="#666666" stroke="#666666" points="21.5,-522 21.5,-522 124.5,-522 124.5,-522 21.5,-522"/>
<polygon fill="#666666" stroke="#666666" points="21.5,-447 21.5,-447 34.5,-447 34.5,-447 21.5,-447"/>
<polygon fill="#666666" stroke="#666666" points="34.5,-447 34.5,-447 124.5,-447 124.5,-447 34.5,-447"/>
<polygon fill="none" stroke="#666666" points="21,-265 21,-539 124,-539 124,-265 21,-265"/>
</a>
</g>
</g>
<!-- Node2&#45;&gt;Node1 -->
<g id="edge1_Node000001_Node000002" class="edge">
<title>Node2&#45;&gt;Node1</title>
<g id="a_edge1_Node000001_Node000002"><a xlink:title=" ">
<path fill="none" stroke="#63b8ff" d="M72.5,-254.87C72.5,-246.3 72.5,-237.74 72.5,-229.32"/>
<polygon fill="none" stroke="#63b8ff" points="69,-254.94 72.5,-264.94 76,-254.94 69,-254.94"/>
</a>
</g>
</g>
</g>
</svg>
