<?xml version="1.0" encoding="UTF-8" standalone="no"?>
<!DOCTYPE svg PUBLIC "-//W3C//DTD SVG 1.1//EN"
 "http://www.w3.org/Graphics/SVG/1.1/DTD/svg11.dtd">
<!-- Generated by graphviz version 2.43.0 (0)
 -->
<!-- Title: rm::KalmanFilterStaticDatas&lt; Tp, StateDim, MeasureDim &gt; Pages: 1 -->
<!--zoomable 283 -->

<svg id="main" version="1.1" xmlns="http://www.w3.org/2000/svg" xmlns:xlink="http://www.w3.org/1999/xlink" xml:space="preserve" onload="init(evt)">

<style type="text/css"><![CDATA[
.node, .edge {opacity: 0.7;}
.node.selected, .edge.selected {opacity: 1;}
.edge:hover path { stroke: red; }
.edge:hover polygon { stroke: red; fill: red; }
]]></style>

<defs>
  <circle id="rim" cx="0" cy="0" r="7"/>
  <circle id="rim2" cx="0" cy="0" r="3.5"/>
  <g id="zoomPlus">
    <use xlink:href="#rim" fill="#404040"><set attributeName="fill" to="#808080" begin="zoomplus.mouseover" end="zoomplus.mouseout"/></use>
    <path d="M-4,0h8M0,-4v8" fill="none" stroke="white" stroke-width="1.5" pointer-events="none"/>
  </g>
  <g id="zoomMin">
    <use xlink:href="#rim" fill="#404040"><set attributeName="fill" to="#808080" begin="zoomminus.mouseover" end="zoomminus.mouseout"/></use>
    <path d="M-4,0h8" fill="none" stroke="white" stroke-width="1.5" pointer-events="none"/>
  </g>
  <g id="arrowUp" transform="translate(30 24)">
    <use xlink:href="#rim"/>
    <path pointer-events="none" fill="none" stroke="white" stroke-width="1.5" d="M0,-3.0v7 M-2.5,-0.5L0,-3.0L2.5,-0.5"/>
  </g>
  <g id="arrowRight" transform="rotate(90) translate(36 -43)">
    <use xlink:href="#rim"/>
    <path pointer-events="none" fill="none" stroke="white" stroke-width="1.5" d="M0,-3.0v7 M-2.5,-0.5L0,-3.0L2.5,-0.5"/>
  </g>
  <g id="arrowDown" transform="rotate(180) translate(-30 -48)">
    <use xlink:href="#rim"/>
    <path pointer-events="none" fill="none" stroke="white" stroke-width="1.5" d="M0,-3.0v7 M-2.5,-0.5L0,-3.0L2.5,-0.5"/>
  </g>
  <g id="arrowLeft" transform="rotate(270) translate(-36 17)">
    <use xlink:href="#rim"/>
    <path pointer-events="none" fill="none" stroke="white" stroke-width="1.5" d="M0,-3.0v7 M-2.5,-0.5L0,-3.0L2.5,-0.5"/>
  </g>
  <g id="resetDef">
    <use xlink:href="#rim2" fill="#404040"><set attributeName="fill" to="#808080" begin="reset.mouseover" end="reset.mouseout"/></use>
  </g>
</defs>
<script type="application/ecmascript">
var viewWidth = 658;
var viewHeight = 283;
var sectionId = 'dynsection-1';
</script>
<script type="application/ecmascript" xlink:href="../../svg.min.js"/>
<svg id="graph" class="graph">
<g id="viewport">
<title>rm::KalmanFilterStaticDatas&lt; Tp, StateDim, MeasureDim &gt;</title>
<!-- Node1 -->
<g id="Node000001" class="node">
<title>Node1</title>
<g id="a_Node000001"><a xlink:title="卡尔曼滤波静态数据">
<polygon fill="#999999" stroke="transparent" points="416.5,-135 267.5,-135 267.5,0 416.5,0 416.5,-135"/>
<text text-anchor="start" x="273" y="-122.5" font-family="Helvetica,sans-Serif" font-size="10.00">rm::KalmanFilterStaticDatas</text>
<text text-anchor="start" x="273" y="-111.5" font-family="Helvetica,sans-Serif" font-size="10.00">&lt; Tp, StateDim, MeasureDim &gt;</text>
<text text-anchor="start" x="340.5" y="-96.5" font-family="Helvetica,sans-Serif" font-size="10.00"> </text>
<text text-anchor="start" x="276" y="-81.5" font-family="Helvetica,sans-Serif" font-size="10.00">+</text>
<text text-anchor="start" x="291" y="-81.5" font-family="Helvetica,sans-Serif" font-size="10.00">KalmanFilterStaticDatas()</text>
<text text-anchor="start" x="276" y="-66.5" font-family="Helvetica,sans-Serif" font-size="10.00">+</text>
<text text-anchor="start" x="291" y="-66.5" font-family="Helvetica,sans-Serif" font-size="10.00">init()</text>
<text text-anchor="start" x="276" y="-51.5" font-family="Helvetica,sans-Serif" font-size="10.00">+</text>
<text text-anchor="start" x="291" y="-51.5" font-family="Helvetica,sans-Serif" font-size="10.00">init()</text>
<text text-anchor="start" x="276" y="-36.5" font-family="Helvetica,sans-Serif" font-size="10.00">+</text>
<text text-anchor="start" x="291" y="-36.5" font-family="Helvetica,sans-Serif" font-size="10.00">setR()</text>
<text text-anchor="start" x="276" y="-21.5" font-family="Helvetica,sans-Serif" font-size="10.00">+</text>
<text text-anchor="start" x="291" y="-21.5" font-family="Helvetica,sans-Serif" font-size="10.00">setQ()</text>
<text text-anchor="start" x="276" y="-6.5" font-family="Helvetica,sans-Serif" font-size="10.00">+</text>
<text text-anchor="start" x="291" y="-6.5" font-family="Helvetica,sans-Serif" font-size="10.00">setP()</text>
<polygon fill="#666666" stroke="#666666" points="268,-106.5 268,-106.5 417,-106.5 417,-106.5 268,-106.5"/>
<polygon fill="#666666" stroke="#666666" points="268,-91.5 268,-91.5 417,-91.5 417,-91.5 268,-91.5"/>
<polygon fill="none" stroke="#666666" points="267.5,0 267.5,-135 416.5,-135 416.5,0 267.5,0"/>
</a>
</g>
</g>
<!-- Node2 -->
<g id="Node000002" class="node">
<title>Node2</title>
<g id="a_Node000002"><a xlink:title=" ">
<polygon fill="white" stroke="transparent" points="120,-269.5 0,-269.5 0,-220.5 120,-220.5 120,-269.5"/>
<text text-anchor="start" x="5" y="-257" font-family="Helvetica,sans-Serif" font-size="10.00">Matx&lt; Tp, StateDim, 1 &gt;</text>
<text text-anchor="start" x="58" y="-242" font-family="Helvetica,sans-Serif" font-size="10.00"> </text>
<text text-anchor="start" x="58" y="-227" font-family="Helvetica,sans-Serif" font-size="10.00"> </text>
<polygon fill="#666666" stroke="#666666" points="0,-252 0,-252 120,-252 120,-252 0,-252"/>
<polygon fill="#666666" stroke="#666666" points="0,-237 0,-237 120,-237 120,-237 0,-237"/>
<polygon fill="none" stroke="#666666" points="0,-220.5 0,-269.5 120,-269.5 120,-220.5 0,-220.5"/>
</a>
</g>
</g>
<!-- Node2&#45;&gt;Node1 -->
<g id="edge1_Node000001_Node000002" class="edge">
<title>Node2&#45;&gt;Node1</title>
<g id="a_edge1_Node000001_Node000002"><a xlink:title=" ">
<path fill="none" stroke="#63b8ff" d="M98.03,-220.33C138.55,-195.11 204.02,-154.37 256.94,-121.44"/>
<polygon fill="none" stroke="#63b8ff" points="257.16,-121.3 260.14,-114.73 267.35,-114.96 264.37,-121.53 257.16,-121.3"/>
</a>
</g>
<text text-anchor="middle" x="209" y="-178" font-family="Helvetica,sans-Serif" font-size="10.00" fill="grey"> #x</text>
<text text-anchor="middle" x="209" y="-167" font-family="Helvetica,sans-Serif" font-size="10.00" fill="grey">#x_</text>
</g>
<!-- Node3 -->
<g id="Node000003" class="node">
<title>Node3</title>
<g id="a_Node000003"><a xlink:title=" ">
<polygon fill="white" stroke="transparent" points="272,-269.5 138,-269.5 138,-220.5 272,-220.5 272,-269.5"/>
<text text-anchor="start" x="143" y="-257" font-family="Helvetica,sans-Serif" font-size="10.00">Matx&lt; Tp, MeasureDim, 1 &gt;</text>
<text text-anchor="start" x="203" y="-242" font-family="Helvetica,sans-Serif" font-size="10.00"> </text>
<text text-anchor="start" x="203" y="-227" font-family="Helvetica,sans-Serif" font-size="10.00"> </text>
<polygon fill="#666666" stroke="#666666" points="138,-252 138,-252 272,-252 272,-252 138,-252"/>
<polygon fill="#666666" stroke="#666666" points="138,-237 138,-237 272,-237 272,-237 138,-237"/>
<polygon fill="none" stroke="#666666" points="138,-220.5 138,-269.5 272,-269.5 272,-220.5 138,-220.5"/>
</a>
</g>
</g>
<!-- Node3&#45;&gt;Node1 -->
<g id="edge2_Node000001_Node000003" class="edge">
<title>Node3&#45;&gt;Node1</title>
<g id="a_edge2_Node000001_Node000003"><a xlink:title=" ">
<path fill="none" stroke="#63b8ff" d="M223.48,-220.33C238.7,-200.83 261.17,-172.05 282.46,-144.77"/>
<polygon fill="none" stroke="#63b8ff" points="282.55,-144.66 283.09,-137.47 289.93,-135.2 289.39,-142.39 282.55,-144.66"/>
</a>
</g>
<text text-anchor="middle" x="281" y="-172.5" font-family="Helvetica,sans-Serif" font-size="10.00" fill="grey"> #z</text>
</g>
<!-- Node4 -->
<g id="Node000004" class="node">
<title>Node4</title>
<g id="a_Node000004"><a xlink:title=" ">
<polygon fill="white" stroke="transparent" points="393.5,-275 290.5,-275 290.5,-215 393.5,-215 393.5,-275"/>
<text text-anchor="start" x="296" y="-263" font-family="Helvetica,sans-Serif" font-size="10.00">Matx&lt; Tp, StateDim,</text>
<text text-anchor="start" x="315.5" y="-252" font-family="Helvetica,sans-Serif" font-size="10.00"> StateDim &gt;</text>
<text text-anchor="start" x="340.5" y="-237" font-family="Helvetica,sans-Serif" font-size="10.00"> </text>
<text text-anchor="start" x="340.5" y="-222" font-family="Helvetica,sans-Serif" font-size="10.00"> </text>
<polygon fill="#666666" stroke="#666666" points="291,-247 291,-247 394,-247 394,-247 291,-247"/>
<polygon fill="#666666" stroke="#666666" points="291,-232 291,-232 394,-232 394,-232 291,-232"/>
<polygon fill="none" stroke="#666666" points="290.5,-215 290.5,-275 393.5,-275 393.5,-215 290.5,-215"/>
</a>
</g>
</g>
<!-- Node4&#45;&gt;Node1 -->
<g id="edge3_Node000001_Node000004" class="edge">
<title>Node4&#45;&gt;Node1</title>
<g id="a_edge3_Node000001_Node000004"><a xlink:title=" ">
<path fill="none" stroke="#63b8ff" d="M342,-214.63C342,-196.09 342,-171.2 342,-147.22"/>
<polygon fill="none" stroke="#63b8ff" points="342,-147.18 338,-141.18 342,-135.18 346,-141.18 342,-147.18"/>
</a>
</g>
<text text-anchor="middle" x="351" y="-189" font-family="Helvetica,sans-Serif" font-size="10.00" fill="grey"> #I</text>
<text text-anchor="middle" x="351" y="-178" font-family="Helvetica,sans-Serif" font-size="10.00" fill="grey">#P</text>
<text text-anchor="middle" x="351" y="-167" font-family="Helvetica,sans-Serif" font-size="10.00" fill="grey">#P_</text>
<text text-anchor="middle" x="351" y="-156" font-family="Helvetica,sans-Serif" font-size="10.00" fill="grey">#Q</text>
</g>
<!-- Node5 -->
<g id="Node000005" class="node">
<title>Node5</title>
<g id="a_Node000005"><a xlink:title=" ">
<polygon fill="white" stroke="transparent" points="528.5,-275 411.5,-275 411.5,-215 528.5,-215 528.5,-275"/>
<text text-anchor="start" x="417" y="-263" font-family="Helvetica,sans-Serif" font-size="10.00">Matx&lt; Tp, MeasureDim,</text>
<text text-anchor="start" x="436.5" y="-252" font-family="Helvetica,sans-Serif" font-size="10.00"> MeasureDim &gt;</text>
<text text-anchor="start" x="468.5" y="-237" font-family="Helvetica,sans-Serif" font-size="10.00"> </text>
<text text-anchor="start" x="468.5" y="-222" font-family="Helvetica,sans-Serif" font-size="10.00"> </text>
<polygon fill="#666666" stroke="#666666" points="412,-247 412,-247 529,-247 529,-247 412,-247"/>
<polygon fill="#666666" stroke="#666666" points="412,-232 412,-232 529,-232 529,-232 412,-232"/>
<polygon fill="none" stroke="#666666" points="411.5,-215 411.5,-275 528.5,-275 528.5,-215 411.5,-215"/>
</a>
</g>
</g>
<!-- Node5&#45;&gt;Node1 -->
<g id="edge4_Node000001_Node000005" class="edge">
<title>Node5&#45;&gt;Node1</title>
<g id="a_edge4_Node000001_Node000005"><a xlink:title=" ">
<path fill="none" stroke="#63b8ff" d="M448.58,-214.63C434.63,-195.5 415.74,-169.61 397.74,-144.93"/>
<polygon fill="none" stroke="#63b8ff" points="397.71,-144.88 390.94,-142.39 390.64,-135.18 397.4,-137.67 397.71,-144.88"/>
</a>
</g>
<text text-anchor="middle" x="444" y="-172.5" font-family="Helvetica,sans-Serif" font-size="10.00" fill="grey"> #R</text>
</g>
<!-- Node6 -->
<g id="Node000006" class="node">
<title>Node6</title>
<g id="a_Node000006"><a xlink:title=" ">
<polygon fill="white" stroke="transparent" points="649.5,-275 546.5,-275 546.5,-215 649.5,-215 649.5,-275"/>
<text text-anchor="start" x="552" y="-263" font-family="Helvetica,sans-Serif" font-size="10.00">Matx&lt; Tp, StateDim,</text>
<text text-anchor="start" x="564.5" y="-252" font-family="Helvetica,sans-Serif" font-size="10.00"> MeasureDim &gt;</text>
<text text-anchor="start" x="596.5" y="-237" font-family="Helvetica,sans-Serif" font-size="10.00"> </text>
<text text-anchor="start" x="596.5" y="-222" font-family="Helvetica,sans-Serif" font-size="10.00"> </text>
<polygon fill="#666666" stroke="#666666" points="547,-247 547,-247 650,-247 650,-247 547,-247"/>
<polygon fill="#666666" stroke="#666666" points="547,-232 547,-232 650,-232 650,-232 547,-232"/>
<polygon fill="none" stroke="#666666" points="546.5,-215 546.5,-275 649.5,-275 649.5,-215 546.5,-215"/>
</a>
</g>
</g>
<!-- Node6&#45;&gt;Node1 -->
<g id="edge5_Node000001_Node000006" class="edge">
<title>Node6&#45;&gt;Node1</title>
<g id="a_edge5_Node000001_Node000006"><a xlink:title=" ">
<path fill="none" stroke="#63b8ff" d="M555.44,-214.82C520.42,-190.81 469.7,-156.04 426.48,-126.42"/>
<polygon fill="none" stroke="#63b8ff" points="426.43,-126.38 419.22,-126.29 416.53,-119.6 423.74,-119.69 426.43,-126.38"/>
</a>
</g>
<text text-anchor="middle" x="537" y="-172.5" font-family="Helvetica,sans-Serif" font-size="10.00" fill="grey"> #K</text>
</g>
</g>
</svg>

<g id="navigator" transform="translate(0 0)" fill="#404254">
  <rect fill="#f2f5e9" fill-opacity="0.5" stroke="#606060" stroke-width=".5" x="0" y="0" width="60" height="60"/>
  <use id="zoomplus" xlink:href="#zoomPlus" x="17" y="9" onmousedown="handleZoom(evt,'in')"/>
  <use id="zoomminus" xlink:href="#zoomMin" x="42" y="9" onmousedown="handleZoom(evt,'out')"/>
  <use id="reset" xlink:href="#resetDef" x="30" y="36" onmousedown="handleReset()"/>
   <use id="arrowup" xlink:href="#arrowUp" x="0" y="0" onmousedown="handlePan(0,-1)"/>
  <use id="arrowright" xlink:href="#arrowRight" x="0" y="0" onmousedown="handlePan(1,0)"/>
  <use id="arrowdown" xlink:href="#arrowDown" x="0" y="0" onmousedown="handlePan(0,1)"/>
  <use id="arrowleft" xlink:href="#arrowLeft" x="0" y="0" onmousedown="handlePan(-1,0)"/>
</g>
<svg viewBox="0 0 15 15" width="100%" height="30px" preserveAspectRatio="xMaxYMin meet">
 <g id="arrow_out" transform="scale(0.3 0.3)">
  <a xlink:href="classrm_1_1KalmanFilterStaticDatas__coll__graph_org.svg" target="_base">
   <rect id="button" ry="5" rx="5" y="6" x="6" height="38" width="38"
        fill="#f2f5e9" fill-opacity="0.5" stroke="#606060" stroke-width="1.0"/>
   <path id="arrow"
     d="M 11.500037,31.436501 C 11.940474,20.09759 22.043105,11.32322 32.158766,21.979434 L 37.068811,17.246167 C 37.068811,17.246167 37.088388,32 37.088388,32 L 22.160133,31.978069 C 22.160133,31.978069 26.997745,27.140456 26.997745,27.140456 C 18.528582,18.264221 13.291696,25.230495 11.500037,31.436501 z"
     style="fill:#404040;"/>
  </a>
 </g>
</svg>

<style type='text/css'>
<![CDATA[
[data-mouse-over-selected='false'] { opacity: 0.7; }
[data-mouse-over-selected='true']  { opacity: 1.0; }
]]>
</style>
<script type="application/ecmascript"><![CDATA[
document.addEventListener('DOMContentLoaded', (event) => {
  highlightEdges();
  highlightAdjacentNodes();
});
]]></script>
</svg>
