<?xml version="1.0" encoding="UTF-8" standalone="no"?>
<!DOCTYPE svg PUBLIC "-//W3C//DTD SVG 1.1//EN"
 "http://www.w3.org/Graphics/SVG/1.1/DTD/svg11.dtd">
<!-- Generated by graphviz version 2.43.0 (0)
 -->
<!-- Title: rm::KalmanFilterStaticDatas&lt; Tp, StateDim, MeasureDim &gt; Pages: 1 -->
<svg width="722pt" height="301pt"
 viewBox="0.00 0.00 721.50 301.00" xmlns="http://www.w3.org/2000/svg" xmlns:xlink="http://www.w3.org/1999/xlink">
<g id="graph0" class="graph" transform="scale(1 1) rotate(0) translate(4 297)">
<title>rm::KalmanFilterStaticDatas&lt; Tp, StateDim, MeasureDim &gt;</title>
<!-- Node1 -->
<g id="Node000001" class="node">
<title>Node1</title>
<g id="a_Node000001"><a xlink:title="卡尔曼滤波静态数据">
<polygon fill="#999999" stroke="transparent" points="459.5,-135 294.5,-135 294.5,0 459.5,0 459.5,-135"/>
<text text-anchor="start" x="300" y="-122.5" font-family="Helvetica,sans-Serif" font-size="10.00">rm::KalmanFilterStaticDatas</text>
<text text-anchor="start" x="300" y="-111.5" font-family="Helvetica,sans-Serif" font-size="10.00">&lt; Tp, StateDim, MeasureDim &gt;</text>
<text text-anchor="start" x="375.5" y="-96.5" font-family="Helvetica,sans-Serif" font-size="10.00"> </text>
<text text-anchor="start" x="303" y="-81.5" font-family="Helvetica,sans-Serif" font-size="10.00">+</text>
<text text-anchor="start" x="320" y="-81.5" font-family="Helvetica,sans-Serif" font-size="10.00">KalmanFilterStaticDatas()</text>
<text text-anchor="start" x="303" y="-66.5" font-family="Helvetica,sans-Serif" font-size="10.00">+</text>
<text text-anchor="start" x="320" y="-66.5" font-family="Helvetica,sans-Serif" font-size="10.00">init()</text>
<text text-anchor="start" x="303" y="-51.5" font-family="Helvetica,sans-Serif" font-size="10.00">+</text>
<text text-anchor="start" x="320" y="-51.5" font-family="Helvetica,sans-Serif" font-size="10.00">init()</text>
<text text-anchor="start" x="303" y="-36.5" font-family="Helvetica,sans-Serif" font-size="10.00">+</text>
<text text-anchor="start" x="320" y="-36.5" font-family="Helvetica,sans-Serif" font-size="10.00">setR()</text>
<text text-anchor="start" x="303" y="-21.5" font-family="Helvetica,sans-Serif" font-size="10.00">+</text>
<text text-anchor="start" x="320" y="-21.5" font-family="Helvetica,sans-Serif" font-size="10.00">setQ()</text>
<text text-anchor="start" x="303" y="-6.5" font-family="Helvetica,sans-Serif" font-size="10.00">+</text>
<text text-anchor="start" x="320" y="-6.5" font-family="Helvetica,sans-Serif" font-size="10.00">setP()</text>
<polygon fill="#666666" stroke="#666666" points="295,-106.5 295,-106.5 460,-106.5 460,-106.5 295,-106.5"/>
<polygon fill="#666666" stroke="#666666" points="295,-91.5 295,-91.5 460,-91.5 460,-91.5 295,-91.5"/>
<polygon fill="none" stroke="#666666" points="294.5,0 294.5,-135 459.5,-135 459.5,0 294.5,0"/>
</a>
</g>
</g>
<!-- Node2 -->
<g id="Node000002" class="node">
<title>Node2</title>
<g id="a_Node000002"><a xlink:title=" ">
<polygon fill="white" stroke="transparent" points="134,-287.5 0,-287.5 0,-238.5 134,-238.5 134,-287.5"/>
<text text-anchor="start" x="5" y="-275" font-family="Helvetica,sans-Serif" font-size="10.00">Matx&lt; Tp, StateDim, 1 &gt;</text>
<text text-anchor="start" x="65" y="-260" font-family="Helvetica,sans-Serif" font-size="10.00"> </text>
<text text-anchor="start" x="65" y="-245" font-family="Helvetica,sans-Serif" font-size="10.00"> </text>
<polygon fill="#666666" stroke="#666666" points="0,-270 0,-270 134,-270 134,-270 0,-270"/>
<polygon fill="#666666" stroke="#666666" points="0,-255 0,-255 134,-255 134,-255 0,-255"/>
<polygon fill="none" stroke="#666666" points="0,-238.5 0,-287.5 134,-287.5 134,-238.5 0,-238.5"/>
</a>
</g>
</g>
<!-- Node2&#45;&gt;Node1 -->
<g id="edge1_Node000001_Node000002" class="edge">
<title>Node2&#45;&gt;Node1</title>
<g id="a_edge1_Node000001_Node000002"><a xlink:title=" ">
<path fill="none" stroke="#63b8ff" d="M103.55,-238.38C138.08,-216.15 191.38,-182.03 238,-153 252.71,-143.84 268.35,-134.22 283.63,-124.89"/>
<polygon fill="none" stroke="#63b8ff" points="283.89,-124.73 286.93,-118.19 294.13,-118.48 291.1,-125.02 283.89,-124.73"/>
</a>
</g>
<text text-anchor="start" x="241" y="-189" font-family="Helvetica,sans-Serif" font-size="10.00" fill="grey">#x</text>
<text text-anchor="start" x="241" y="-174" font-family="Helvetica,sans-Serif" font-size="10.00" fill="grey">#x_</text>
</g>
<!-- Node3 -->
<g id="Node000003" class="node">
<title>Node3</title>
<g id="a_Node000003"><a xlink:title=" ">
<polygon fill="white" stroke="transparent" points="302,-287.5 152,-287.5 152,-238.5 302,-238.5 302,-287.5"/>
<text text-anchor="start" x="157" y="-275" font-family="Helvetica,sans-Serif" font-size="10.00">Matx&lt; Tp, MeasureDim, 1 &gt;</text>
<text text-anchor="start" x="225" y="-260" font-family="Helvetica,sans-Serif" font-size="10.00"> </text>
<text text-anchor="start" x="225" y="-245" font-family="Helvetica,sans-Serif" font-size="10.00"> </text>
<polygon fill="#666666" stroke="#666666" points="152,-270 152,-270 302,-270 302,-270 152,-270"/>
<polygon fill="#666666" stroke="#666666" points="152,-255 152,-255 302,-255 302,-255 152,-255"/>
<polygon fill="none" stroke="#666666" points="152,-238.5 152,-287.5 302,-287.5 302,-238.5 152,-238.5"/>
</a>
</g>
</g>
<!-- Node3&#45;&gt;Node1 -->
<g id="edge2_Node000001_Node000003" class="edge">
<title>Node3&#45;&gt;Node1</title>
<g id="a_edge2_Node000001_Node000003"><a xlink:title=" ">
<path fill="none" stroke="#63b8ff" d="M245.39,-238.27C263.41,-215.03 291.84,-178.36 317.67,-145.03"/>
<polygon fill="none" stroke="#63b8ff" points="317.88,-144.76 318.4,-137.57 325.23,-135.28 324.72,-142.47 317.88,-144.76"/>
</a>
</g>
<text text-anchor="start" x="314" y="-181" font-family="Helvetica,sans-Serif" font-size="10.00" fill="grey">#z</text>
</g>
<!-- Node4 -->
<g id="Node000004" class="node">
<title>Node4</title>
<g id="a_Node000004"><a xlink:title=" ">
<polygon fill="white" stroke="transparent" points="433.5,-293 320.5,-293 320.5,-233 433.5,-233 433.5,-293"/>
<text text-anchor="start" x="326" y="-281" font-family="Helvetica,sans-Serif" font-size="10.00">Matx&lt; Tp, StateDim,</text>
<text text-anchor="start" x="347" y="-270" font-family="Helvetica,sans-Serif" font-size="10.00"> StateDim &gt;</text>
<text text-anchor="start" x="375.5" y="-255" font-family="Helvetica,sans-Serif" font-size="10.00"> </text>
<text text-anchor="start" x="375.5" y="-240" font-family="Helvetica,sans-Serif" font-size="10.00"> </text>
<polygon fill="#666666" stroke="#666666" points="321,-265 321,-265 434,-265 434,-265 321,-265"/>
<polygon fill="#666666" stroke="#666666" points="321,-250 321,-250 434,-250 434,-250 321,-250"/>
<polygon fill="none" stroke="#666666" points="320.5,-233 320.5,-293 433.5,-293 433.5,-233 320.5,-233"/>
</a>
</g>
</g>
<!-- Node4&#45;&gt;Node1 -->
<g id="edge3_Node000001_Node000004" class="edge">
<title>Node4&#45;&gt;Node1</title>
<g id="a_edge3_Node000001_Node000004"><a xlink:title=" ">
<path fill="none" stroke="#63b8ff" d="M377,-232.61C377,-209.94 377,-177.47 377,-147.38"/>
<polygon fill="none" stroke="#63b8ff" points="377,-147.12 373,-141.12 377,-135.12 381,-141.12 377,-147.12"/>
</a>
</g>
<text text-anchor="start" x="380" y="-204" font-family="Helvetica,sans-Serif" font-size="10.00" fill="grey">#I</text>
<text text-anchor="start" x="380" y="-189" font-family="Helvetica,sans-Serif" font-size="10.00" fill="grey">#P</text>
<text text-anchor="start" x="380" y="-174" font-family="Helvetica,sans-Serif" font-size="10.00" fill="grey">#P_</text>
<text text-anchor="start" x="380" y="-159" font-family="Helvetica,sans-Serif" font-size="10.00" fill="grey">#Q</text>
</g>
<!-- Node5 -->
<g id="Node000005" class="node">
<title>Node5</title>
<g id="a_Node000005"><a xlink:title=" ">
<polygon fill="white" stroke="transparent" points="582,-293 452,-293 452,-233 582,-233 582,-293"/>
<text text-anchor="start" x="457" y="-281" font-family="Helvetica,sans-Serif" font-size="10.00">Matx&lt; Tp, MeasureDim,</text>
<text text-anchor="start" x="478.5" y="-270" font-family="Helvetica,sans-Serif" font-size="10.00"> MeasureDim &gt;</text>
<text text-anchor="start" x="515" y="-255" font-family="Helvetica,sans-Serif" font-size="10.00"> </text>
<text text-anchor="start" x="515" y="-240" font-family="Helvetica,sans-Serif" font-size="10.00"> </text>
<polygon fill="#666666" stroke="#666666" points="452,-265 452,-265 582,-265 582,-265 452,-265"/>
<polygon fill="#666666" stroke="#666666" points="452,-250 452,-250 582,-250 582,-250 452,-250"/>
<polygon fill="none" stroke="#666666" points="452,-233 452,-293 582,-293 582,-233 452,-233"/>
</a>
</g>
</g>
<!-- Node5&#45;&gt;Node1 -->
<g id="edge4_Node000001_Node000005" class="edge">
<title>Node5&#45;&gt;Node1</title>
<g id="a_edge4_Node000001_Node000005"><a xlink:title=" ">
<path fill="none" stroke="#63b8ff" d="M495.74,-232.61C478.9,-209.33 454.58,-175.73 432.34,-144.98"/>
<polygon fill="none" stroke="#63b8ff" points="432.23,-144.84 425.47,-142.32 425.2,-135.12 431.96,-137.63 432.23,-144.84"/>
</a>
</g>
<text text-anchor="start" x="482" y="-181" font-family="Helvetica,sans-Serif" font-size="10.00" fill="grey">#R</text>
</g>
<!-- Node6 -->
<g id="Node000006" class="node">
<title>Node6</title>
<g id="a_Node000006"><a xlink:title=" ">
<polygon fill="white" stroke="transparent" points="713.5,-293 600.5,-293 600.5,-233 713.5,-233 713.5,-293"/>
<text text-anchor="start" x="606" y="-281" font-family="Helvetica,sans-Serif" font-size="10.00">Matx&lt; Tp, StateDim,</text>
<text text-anchor="start" x="619" y="-270" font-family="Helvetica,sans-Serif" font-size="10.00"> MeasureDim &gt;</text>
<text text-anchor="start" x="655.5" y="-255" font-family="Helvetica,sans-Serif" font-size="10.00"> </text>
<text text-anchor="start" x="655.5" y="-240" font-family="Helvetica,sans-Serif" font-size="10.00"> </text>
<polygon fill="#666666" stroke="#666666" points="601,-265 601,-265 714,-265 714,-265 601,-265"/>
<polygon fill="#666666" stroke="#666666" points="601,-250 601,-250 714,-250 714,-250 601,-250"/>
<polygon fill="none" stroke="#666666" points="600.5,-233 600.5,-293 713.5,-293 713.5,-233 600.5,-233"/>
</a>
</g>
</g>
<!-- Node6&#45;&gt;Node1 -->
<g id="edge5_Node000001_Node000006" class="edge">
<title>Node6&#45;&gt;Node1</title>
<g id="a_edge5_Node000001_Node000006"><a xlink:title=" ">
<path fill="none" stroke="#63b8ff" d="M617.29,-232.89C586.8,-210.69 543.52,-179.51 505,-153 493.6,-145.16 481.56,-137.02 469.61,-129.02"/>
<polygon fill="none" stroke="#63b8ff" points="469.58,-129.01 462.37,-129.01 459.6,-122.35 466.81,-122.35 469.58,-129.01"/>
</a>
</g>
<text text-anchor="start" x="594" y="-181" font-family="Helvetica,sans-Serif" font-size="10.00" fill="grey">#K</text>
</g>
</g>
</svg>
