<?xml version="1.0" encoding="UTF-8" standalone="no"?>
<!DOCTYPE svg PUBLIC "-//W3C//DTD SVG 1.1//EN"
 "http://www.w3.org/Graphics/SVG/1.1/DTD/svg11.dtd">
<!-- Generated by graphviz version 2.43.0 (0)
 -->
<!-- Title: rm::ua::VariableType::cast Pages: 1 -->
<svg width="276pt" height="86pt"
 viewBox="0.00 0.00 276.00 86.00" xmlns="http://www.w3.org/2000/svg" xmlns:xlink="http://www.w3.org/1999/xlink">
<g id="graph0" class="graph" transform="scale(1 1) rotate(0) translate(4 82)">
<title>rm::ua::VariableType::cast</title>
<!-- Node1 -->
<g id="Node000001" class="node">
<title>Node1</title>
<g id="a_Node000001"><a xlink:title="将变量类型节点转化为指定类型的数据">
<polygon fill="#999999" stroke="#666666" points="116,-54 0,-54 0,-24 116,-24 116,-54"/>
<text text-anchor="start" x="8" y="-42" font-family="Helvetica,sans-Serif" font-size="10.00">rm::ua::VariableType</text>
<text text-anchor="middle" x="58" y="-31" font-family="Helvetica,sans-Serif" font-size="10.00">::cast</text>
</a>
</g>
</g>
<!-- Node2 -->
<g id="Node000002" class="node">
<title>Node2</title>
<g id="a_Node000002"><a xlink:href="../../de/de3/classrm_1_1ua_1_1VariableType.html#ac6e189b6ffee3d735b41dd6ef4291529" target="_top" xlink:title="获取默认数据">
<polygon fill="white" stroke="#666666" points="268,-78 152,-78 152,-48 268,-48 268,-78"/>
<text text-anchor="start" x="160" y="-66" font-family="Helvetica,sans-Serif" font-size="10.00">rm::ua::VariableType</text>
<text text-anchor="middle" x="210" y="-55" font-family="Helvetica,sans-Serif" font-size="10.00">::data</text>
</a>
</g>
</g>
<!-- Node1&#45;&gt;Node2 -->
<g id="edge1_Node000001_Node000002" class="edge">
<title>Node1&#45;&gt;Node2</title>
<g id="a_edge1_Node000001_Node000002"><a xlink:title=" ">
<path fill="none" stroke="#63b8ff" d="M116.14,-48.14C124.47,-49.47 133.11,-50.86 141.62,-52.22"/>
<polygon fill="#63b8ff" stroke="#63b8ff" points="141.1,-55.68 151.53,-53.8 142.2,-48.77 141.1,-55.68"/>
</a>
</g>
</g>
<!-- Node3 -->
<g id="Node000003" class="node">
<title>Node3</title>
<g id="a_Node000003"><a xlink:href="../../de/de3/classrm_1_1ua_1_1VariableType.html#af8ccaafb5619dddcefe8824b784c2c95" target="_top" xlink:title=" ">
<polygon fill="white" stroke="#666666" points="268,-30 152,-30 152,0 268,0 268,-30"/>
<text text-anchor="start" x="160" y="-18" font-family="Helvetica,sans-Serif" font-size="10.00">rm::ua::VariableType</text>
<text text-anchor="middle" x="210" y="-7" font-family="Helvetica,sans-Serif" font-size="10.00">::VariableType</text>
</a>
</g>
</g>
<!-- Node1&#45;&gt;Node3 -->
<g id="edge2_Node000001_Node000003" class="edge">
<title>Node1&#45;&gt;Node3</title>
<g id="a_edge2_Node000001_Node000003"><a xlink:title=" ">
<path fill="none" stroke="#63b8ff" d="M116.14,-29.86C124.47,-28.53 133.11,-27.14 141.62,-25.78"/>
<polygon fill="#63b8ff" stroke="#63b8ff" points="142.2,-29.23 151.53,-24.2 141.1,-22.32 142.2,-29.23"/>
</a>
</g>
</g>
</g>
</svg>
