<?xml version="1.0" encoding="UTF-8" standalone="no"?>
<!DOCTYPE svg PUBLIC "-//W3C//DTD SVG 1.1//EN"
 "http://www.w3.org/Graphics/SVG/1.1/DTD/svg11.dtd">
<!-- Generated by graphviz version 2.43.0 (0)
 -->
<!-- Title: rmvl/opcua/server.hpp Pages: 1 -->
<!--zoomable 258 -->

<svg id="main" version="1.1" xmlns="http://www.w3.org/2000/svg" xmlns:xlink="http://www.w3.org/1999/xlink" xml:space="preserve" onload="init(evt)">
<style type="text/css"><![CDATA[
.node, .edge {opacity: 0.7;}
.node.selected, .edge.selected {opacity: 1;}
.edge:hover path { stroke: red; }
.edge:hover polygon { stroke: red; fill: red; }
]]></style>

<defs>
  <circle id="rim" cx="0" cy="0" r="7"/>
  <circle id="rim2" cx="0" cy="0" r="3.5"/>
  <g id="zoomPlus">
    <use xlink:href="#rim" fill="#404040"><set attributeName="fill" to="#808080" begin="zoomplus.mouseover" end="zoomplus.mouseout"/></use>
    <path d="M-4,0h8M0,-4v8" fill="none" stroke="white" stroke-width="1.5" pointer-events="none"/>
  </g>
  <g id="zoomMin">
    <use xlink:href="#rim" fill="#404040"><set attributeName="fill" to="#808080" begin="zoomminus.mouseover" end="zoomminus.mouseout"/></use>
    <path d="M-4,0h8" fill="none" stroke="white" stroke-width="1.5" pointer-events="none"/>
  </g>
  <g id="arrowUp" transform="translate(30 24)">
    <use xlink:href="#rim"/>
    <path pointer-events="none" fill="none" stroke="white" stroke-width="1.5" d="M0,-3.0v7 M-2.5,-0.5L0,-3.0L2.5,-0.5"/>
  </g>
  <g id="arrowRight" transform="rotate(90) translate(36 -43)">
    <use xlink:href="#rim"/>
    <path pointer-events="none" fill="none" stroke="white" stroke-width="1.5" d="M0,-3.0v7 M-2.5,-0.5L0,-3.0L2.5,-0.5"/>
  </g>
  <g id="arrowDown" transform="rotate(180) translate(-30 -48)">
    <use xlink:href="#rim"/>
    <path pointer-events="none" fill="none" stroke="white" stroke-width="1.5" d="M0,-3.0v7 M-2.5,-0.5L0,-3.0L2.5,-0.5"/>
  </g>
  <g id="arrowLeft" transform="rotate(270) translate(-36 17)">
    <use xlink:href="#rim"/>
    <path pointer-events="none" fill="none" stroke="white" stroke-width="1.5" d="M0,-3.0v7 M-2.5,-0.5L0,-3.0L2.5,-0.5"/>
  </g>
  <g id="resetDef">
    <use xlink:href="#rim2" fill="#404040"><set attributeName="fill" to="#808080" begin="reset.mouseover" end="reset.mouseout"/></use>
  </g>
</defs>
<script type="application/ecmascript">
var viewWidth = 917;
var viewHeight = 258;
var sectionId = 'dynsection-0';
</script>
<script type="application/ecmascript" xlink:href="../../svg.min.js"/>
<svg id="graph" class="graph">
<g id="viewport">
<title>rmvl/opcua/server.hpp</title>
<!-- Node1 -->
<g id="Node000001" class="node">
<title>Node1</title>
<g id="a_Node000001"><a xlink:title="OPC UA 服务器">
<polygon fill="#999999" stroke="#666666" points="368.5,-250 243.5,-250 243.5,-231 368.5,-231 368.5,-250"/>
<text text-anchor="middle" x="306" y="-238" font-family="Helvetica,sans-Serif" font-size="10.00">rmvl/opcua/server.hpp</text>
</a>
</g>
</g>
<!-- Node2 -->
<g id="Node000002" class="node">
<title>Node2</title>
<g id="a_Node000002"><a xlink:title=" ">
<polygon fill="#e0e0e0" stroke="#999999" points="68,-195 20,-195 20,-176 68,-176 68,-195"/>
<text text-anchor="middle" x="44" y="-183" font-family="Helvetica,sans-Serif" font-size="10.00">thread</text>
</a>
</g>
</g>
<!-- Node1&#45;&gt;Node2 -->
<g id="edge1_Node000001_Node000002" class="edge">
<title>Node1&#45;&gt;Node2</title>
<g id="a_edge1_Node000001_Node000002"><a xlink:title=" ">
<path fill="none" stroke="#63b8ff" d="M257.57,-230.96C213.28,-222.96 145.73,-210.26 78.09,-195.14"/>
<polygon fill="#63b8ff" stroke="#63b8ff" points="78.63,-191.67 68.11,-192.89 77.1,-198.5 78.63,-191.67"/>
</a>
</g>
</g>
<!-- Node3 -->
<g id="Node000003" class="node">
<title>Node3</title>
<g id="a_Node000003"><a xlink:title=" ">
<polygon fill="#e0e0e0" stroke="#999999" points="172,-195 86,-195 86,-176 172,-176 172,-195"/>
<text text-anchor="middle" x="129" y="-183" font-family="Helvetica,sans-Serif" font-size="10.00">unordered_set</text>
</a>
</g>
</g>
<!-- Node1&#45;&gt;Node3 -->
<g id="edge2_Node000001_Node000003" class="edge">
<title>Node1&#45;&gt;Node3</title>
<g id="a_edge2_Node000001_Node000003"><a xlink:title=" ">
<path fill="none" stroke="#63b8ff" d="M277.56,-230.98C247.72,-222.05 200.62,-207.94 167.47,-198.02"/>
<polygon fill="#63b8ff" stroke="#63b8ff" points="168.24,-194.6 157.66,-195.08 166.24,-201.3 168.24,-194.6"/>
</a>
</g>
</g>
<!-- Node4 -->
<g id="Node000004" class="node">
<title>Node4</title>
<g id="a_Node000004"><a xlink:title=" ">
<polygon fill="#e0e0e0" stroke="#999999" points="311.5,-195 190.5,-195 190.5,-176 311.5,-176 311.5,-195"/>
<text text-anchor="middle" x="251" y="-183" font-family="Helvetica,sans-Serif" font-size="10.00">open62541/nodeids.h</text>
</a>
</g>
</g>
<!-- Node1&#45;&gt;Node4 -->
<g id="edge3_Node000001_Node000004" class="edge">
<title>Node1&#45;&gt;Node4</title>
<g id="a_edge3_Node000001_Node000004"><a xlink:title=" ">
<path fill="none" stroke="#63b8ff" d="M296.92,-230.75C288.91,-223.03 277.04,-211.6 267.38,-202.28"/>
<polygon fill="#63b8ff" stroke="#63b8ff" points="269.54,-199.51 259.91,-195.09 264.69,-204.55 269.54,-199.51"/>
</a>
</g>
</g>
<!-- Node5 -->
<g id="Node000005" class="node">
<title>Node5</title>
<g id="a_Node000005"><a xlink:href="../../dc/d94/event_8hpp.html" target="_top" xlink:title="OPC UA 事件">
<polygon fill="white" stroke="#666666" points="394.5,-195 329.5,-195 329.5,-176 394.5,-176 394.5,-195"/>
<text text-anchor="middle" x="362" y="-183" font-family="Helvetica,sans-Serif" font-size="10.00">event.hpp</text>
</a>
</g>
</g>
<!-- Node1&#45;&gt;Node5 -->
<g id="edge4_Node000001_Node000005" class="edge">
<title>Node1&#45;&gt;Node5</title>
<g id="a_edge4_Node000001_Node000005"><a xlink:title=" ">
<path fill="none" stroke="#63b8ff" d="M315,-230.98C323.19,-223.23 335.51,-211.58 345.47,-202.14"/>
<polygon fill="#63b8ff" stroke="#63b8ff" points="347.98,-204.59 352.84,-195.17 343.17,-199.5 347.98,-204.59"/>
</a>
</g>
</g>
<!-- Node22 -->
<g id="Node000022" class="node">
<title>Node22</title>
<g id="a_Node000022"><a xlink:href="../../df/de1/object_8hpp.html" target="_top" xlink:title="对象（类型）">
<polygon fill="white" stroke="#666666" points="559,-195 491,-195 491,-176 559,-176 559,-195"/>
<text text-anchor="middle" x="525" y="-183" font-family="Helvetica,sans-Serif" font-size="10.00">object.hpp</text>
</a>
</g>
</g>
<!-- Node1&#45;&gt;Node22 -->
<g id="edge23_Node000001_Node000022" class="edge">
<title>Node1&#45;&gt;Node22</title>
<g id="a_edge23_Node000001_Node000022"><a xlink:title=" ">
<path fill="none" stroke="#63b8ff" d="M341.19,-230.98C379.28,-221.77 440.08,-207.05 481.23,-197.09"/>
<polygon fill="#63b8ff" stroke="#63b8ff" points="482.09,-200.49 490.98,-194.73 480.44,-193.68 482.09,-200.49"/>
</a>
</g>
</g>
<!-- Node24 -->
<g id="Node000024" class="node">
<title>Node24</title>
<g id="a_Node000024"><a xlink:href="../../d8/d11/view_8hpp.html" target="_top" xlink:title="视图">
<polygon fill="white" stroke="#666666" points="473,-195 413,-195 413,-176 473,-176 473,-195"/>
<text text-anchor="middle" x="443" y="-183" font-family="Helvetica,sans-Serif" font-size="10.00">view.hpp</text>
</a>
</g>
</g>
<!-- Node1&#45;&gt;Node24 -->
<g id="edge30_Node000001_Node000024" class="edge">
<title>Node1&#45;&gt;Node24</title>
<g id="a_edge30_Node000001_Node000024"><a xlink:title=" ">
<path fill="none" stroke="#63b8ff" d="M328.01,-230.98C350.45,-222.3 385.48,-208.75 410.99,-198.88"/>
<polygon fill="#63b8ff" stroke="#63b8ff" points="412.52,-202.04 420.59,-195.17 410,-195.51 412.52,-202.04"/>
</a>
</g>
</g>
<!-- Node6 -->
<g id="Node000006" class="node">
<title>Node6</title>
<g id="a_Node000006"><a xlink:title=" ">
<polygon fill="#e0e0e0" stroke="#999999" points="421,-24.5 377,-24.5 377,-5.5 421,-5.5 421,-24.5"/>
<text text-anchor="middle" x="399" y="-12.5" font-family="Helvetica,sans-Serif" font-size="10.00">string</text>
</a>
</g>
</g>
<!-- Node5&#45;&gt;Node6 -->
<g id="edge5_Node000005_Node000006" class="edge">
<title>Node5&#45;&gt;Node6</title>
<g id="a_edge5_Node000005_Node000006"><a xlink:title=" ">
<path fill="none" stroke="#63b8ff" d="M352.39,-175.69C344.13,-167.41 332.8,-154.18 328,-140 317.46,-108.85 312.85,-95.19 328,-66 333.17,-56.04 356.33,-40.76 374.81,-29.71"/>
<polygon fill="#63b8ff" stroke="#63b8ff" points="376.81,-32.6 383.67,-24.52 373.27,-26.56 376.81,-32.6"/>
</a>
</g>
</g>
<!-- Node7 -->
<g id="Node000007" class="node">
<title>Node7</title>
<g id="a_Node000007"><a xlink:title=" ">
<polygon fill="#e0e0e0" stroke="#999999" points="547.5,-24.5 454.5,-24.5 454.5,-5.5 547.5,-5.5 547.5,-24.5"/>
<text text-anchor="middle" x="501" y="-12.5" font-family="Helvetica,sans-Serif" font-size="10.00">unordered_map</text>
</a>
</g>
</g>
<!-- Node5&#45;&gt;Node7 -->
<g id="edge6_Node000005_Node000007" class="edge">
<title>Node5&#45;&gt;Node7</title>
<g id="a_edge6_Node000005_Node000007"><a xlink:title=" ">
<path fill="none" stroke="#63b8ff" d="M358.8,-175.76C351.67,-154.65 336.94,-100.14 361,-66 371.94,-50.48 416.57,-36.28 452.53,-27.01"/>
<polygon fill="#63b8ff" stroke="#63b8ff" points="453.57,-30.36 462.41,-24.53 451.86,-23.57 453.57,-30.36"/>
</a>
</g>
</g>
<!-- Node8 -->
<g id="Node000008" class="node">
<title>Node8</title>
<g id="a_Node000008"><a xlink:href="../../da/d0e/variable_8hpp.html" target="_top" xlink:title="变量（类型）">
<polygon fill="white" stroke="#666666" points="502.5,-140 425.5,-140 425.5,-121 502.5,-121 502.5,-140"/>
<text text-anchor="middle" x="464" y="-128" font-family="Helvetica,sans-Serif" font-size="10.00">variable.hpp</text>
</a>
</g>
</g>
<!-- Node5&#45;&gt;Node8 -->
<g id="edge7_Node000005_Node000008" class="edge">
<title>Node5&#45;&gt;Node8</title>
<g id="a_edge7_Node000005_Node000008"><a xlink:title=" ">
<path fill="none" stroke="#63b8ff" d="M378.39,-175.98C394.57,-167.57 419.57,-154.59 438.38,-144.81"/>
<polygon fill="#63b8ff" stroke="#63b8ff" points="440.05,-147.89 447.31,-140.17 436.83,-141.68 440.05,-147.89"/>
</a>
</g>
</g>
<!-- Node9 -->
<g id="Node000009" class="node">
<title>Node9</title>
<g id="a_Node000009"><a xlink:title=" ">
<polygon fill="#e0e0e0" stroke="#999999" points="481.5,-85 446.5,-85 446.5,-66 481.5,-66 481.5,-85"/>
<text text-anchor="middle" x="464" y="-73" font-family="Helvetica,sans-Serif" font-size="10.00">any</text>
</a>
</g>
</g>
<!-- Node8&#45;&gt;Node9 -->
<g id="edge8_Node000008_Node000009" class="edge">
<title>Node8&#45;&gt;Node9</title>
<g id="a_edge8_Node000008_Node000009"><a xlink:title=" ">
<path fill="none" stroke="#63b8ff" d="M464,-120.75C464,-113.8 464,-103.85 464,-95.13"/>
<polygon fill="#63b8ff" stroke="#63b8ff" points="467.5,-95.09 464,-85.09 460.5,-95.09 467.5,-95.09"/>
</a>
</g>
</g>
<!-- Node10 -->
<g id="Node000010" class="node">
<title>Node10</title>
<g id="a_Node000010"><a xlink:title=" ">
<polygon fill="#e0e0e0" stroke="#999999" points="428,-85 370,-85 370,-66 428,-66 428,-85"/>
<text text-anchor="middle" x="399" y="-73" font-family="Helvetica,sans-Serif" font-size="10.00">memory</text>
</a>
</g>
</g>
<!-- Node8&#45;&gt;Node10 -->
<g id="edge9_Node000008_Node000010" class="edge">
<title>Node8&#45;&gt;Node10</title>
<g id="a_edge9_Node000008_Node000010"><a xlink:title=" ">
<path fill="none" stroke="#63b8ff" d="M453.56,-120.98C443.85,-113.07 429.18,-101.11 417.5,-91.58"/>
<polygon fill="#63b8ff" stroke="#63b8ff" points="419.6,-88.78 409.63,-85.17 415.17,-94.2 419.6,-88.78"/>
</a>
</g>
</g>
<!-- Node11 -->
<g id="Node000011" class="node">
<title>Node11</title>
<g id="a_Node000011"><a xlink:title=" ">
<polygon fill="#e0e0e0" stroke="#999999" points="544.5,-85 499.5,-85 499.5,-66 544.5,-66 544.5,-85"/>
<text text-anchor="middle" x="522" y="-73" font-family="Helvetica,sans-Serif" font-size="10.00">utility</text>
</a>
</g>
</g>
<!-- Node8&#45;&gt;Node11 -->
<g id="edge10_Node000008_Node000011" class="edge">
<title>Node8&#45;&gt;Node11</title>
<g id="a_edge10_Node000008_Node000011"><a xlink:title=" ">
<path fill="none" stroke="#63b8ff" d="M473.32,-120.98C481.81,-113.23 494.56,-101.58 504.88,-92.14"/>
<polygon fill="#63b8ff" stroke="#63b8ff" points="507.49,-94.5 512.51,-85.17 502.77,-89.33 507.49,-94.5"/>
</a>
</g>
</g>
<!-- Node12 -->
<g id="Node000012" class="node">
<title>Node12</title>
<g id="a_Node000012"><a xlink:title=" ">
<polygon fill="#e0e0e0" stroke="#999999" points="609.5,-85 562.5,-85 562.5,-66 609.5,-66 609.5,-85"/>
<text text-anchor="middle" x="586" y="-73" font-family="Helvetica,sans-Serif" font-size="10.00">vector</text>
</a>
</g>
</g>
<!-- Node8&#45;&gt;Node12 -->
<g id="edge11_Node000008_Node000012" class="edge">
<title>Node8&#45;&gt;Node12</title>
<g id="a_edge11_Node000008_Node000012"><a xlink:title=" ">
<path fill="none" stroke="#63b8ff" d="M483.6,-120.98C503.32,-112.42 533.95,-99.11 556.58,-89.28"/>
<polygon fill="#63b8ff" stroke="#63b8ff" points="558.26,-92.37 566.04,-85.17 555.48,-85.94 558.26,-92.37"/>
</a>
</g>
</g>
<!-- Node13 -->
<g id="Node000013" class="node">
<title>Node13</title>
<g id="a_Node000013"><a xlink:href="../../d0/d3f/util_8hpp.html" target="_top" xlink:title=" ">
<polygon fill="white" stroke="#666666" points="275.5,-85 172.5,-85 172.5,-66 275.5,-66 275.5,-85"/>
<text text-anchor="middle" x="224" y="-73" font-family="Helvetica,sans-Serif" font-size="10.00">rmvl/core/util.hpp</text>
</a>
</g>
</g>
<!-- Node8&#45;&gt;Node13 -->
<g id="edge12_Node000008_Node000013" class="edge">
<title>Node8&#45;&gt;Node13</title>
<g id="a_edge12_Node000008_Node000013"><a xlink:title=" ">
<path fill="none" stroke="#63b8ff" d="M425.44,-120.98C383.93,-111.82 317.79,-97.21 272.71,-87.26"/>
<polygon fill="#63b8ff" stroke="#63b8ff" points="273.38,-83.82 262.86,-85.08 271.87,-90.66 273.38,-83.82"/>
</a>
</g>
</g>
<!-- Node18 -->
<g id="Node000018" class="node">
<title>Node18</title>
<g id="a_Node000018"><a xlink:href="../../dc/d5f/utilities_8hpp.html" target="_top" xlink:title=" ">
<polygon fill="white" stroke="#666666" points="740,-85 666,-85 666,-66 740,-66 740,-85"/>
<text text-anchor="middle" x="703" y="-73" font-family="Helvetica,sans-Serif" font-size="10.00">utilities.hpp</text>
</a>
</g>
</g>
<!-- Node8&#45;&gt;Node18 -->
<g id="edge18_Node000008_Node000018" class="edge">
<title>Node8&#45;&gt;Node18</title>
<g id="a_edge18_Node000008_Node000018"><a xlink:title=" ">
<path fill="none" stroke="#63b8ff" d="M502.4,-120.98C544.23,-111.71 611.17,-96.86 656.08,-86.9"/>
<polygon fill="#63b8ff" stroke="#63b8ff" points="656.87,-90.31 665.88,-84.73 655.35,-83.48 656.87,-90.31"/>
</a>
</g>
</g>
<!-- Node13&#45;&gt;Node6 -->
<g id="edge16_Node000013_Node000006" class="edge">
<title>Node13&#45;&gt;Node6</title>
<g id="a_edge16_Node000013_Node000006"><a xlink:title=" ">
<path fill="none" stroke="#63b8ff" d="M255.56,-65.97C284.99,-57.73 329.95,-44.41 368,-30 369.21,-29.54 370.44,-29.06 371.68,-28.56"/>
<polygon fill="#63b8ff" stroke="#63b8ff" points="373.3,-31.67 381.13,-24.53 370.56,-25.23 373.3,-31.67"/>
</a>
</g>
</g>
<!-- Node14 -->
<g id="Node000014" class="node">
<title>Node14</title>
<g id="a_Node000014"><a xlink:title=" ">
<polygon fill="#e0e0e0" stroke="#999999" points="290.5,-24.5 157.5,-24.5 157.5,-5.5 290.5,-5.5 290.5,-24.5"/>
<text text-anchor="middle" x="224" y="-12.5" font-family="Helvetica,sans-Serif" font-size="10.00">rmvl/rmvl_modules.hpp</text>
</a>
</g>
</g>
<!-- Node13&#45;&gt;Node14 -->
<g id="edge13_Node000013_Node000014" class="edge">
<title>Node13&#45;&gt;Node14</title>
<g id="a_edge13_Node000013_Node000014"><a xlink:title=" ">
<path fill="none" stroke="#63b8ff" d="M224,-65.87C224,-57.75 224,-45.31 224,-34.89"/>
<polygon fill="#63b8ff" stroke="#63b8ff" points="227.5,-34.67 224,-24.67 220.5,-34.67 227.5,-34.67"/>
</a>
</g>
</g>
<!-- Node15 -->
<g id="Node000015" class="node">
<title>Node15</title>
<g id="a_Node000015"><a xlink:title=" ">
<polygon fill="#e0e0e0" stroke="#999999" points="359,-24.5 309,-24.5 309,-5.5 359,-5.5 359,-24.5"/>
<text text-anchor="middle" x="334" y="-12.5" font-family="Helvetica,sans-Serif" font-size="10.00">cstdint</text>
</a>
</g>
</g>
<!-- Node13&#45;&gt;Node15 -->
<g id="edge14_Node000013_Node000015" class="edge">
<title>Node13&#45;&gt;Node15</title>
<g id="a_edge14_Node000013_Node000015"><a xlink:title=" ">
<path fill="none" stroke="#63b8ff" d="M240.23,-65.87C258.27,-56.28 287.62,-40.67 308.68,-29.47"/>
<polygon fill="#63b8ff" stroke="#63b8ff" points="310.52,-32.45 317.7,-24.67 307.23,-26.27 310.52,-32.45"/>
</a>
</g>
</g>
<!-- Node16 -->
<g id="Node000016" class="node">
<title>Node16</title>
<g id="a_Node000016"><a xlink:title=" ">
<polygon fill="#e0e0e0" stroke="#999999" points="46,-24.5 0,-24.5 0,-5.5 46,-5.5 46,-24.5"/>
<text text-anchor="middle" x="23" y="-12.5" font-family="Helvetica,sans-Serif" font-size="10.00">cstdio</text>
</a>
</g>
</g>
<!-- Node13&#45;&gt;Node16 -->
<g id="edge15_Node000013_Node000016" class="edge">
<title>Node13&#45;&gt;Node16</title>
<g id="a_edge15_Node000013_Node000016"><a xlink:title=" ">
<path fill="none" stroke="#63b8ff" d="M184.55,-65.94C149.97,-58 98.55,-45.16 55,-30 53.6,-29.51 52.18,-28.99 50.76,-28.45"/>
<polygon fill="#63b8ff" stroke="#63b8ff" points="52,-25.18 41.42,-24.64 49.35,-31.66 52,-25.18"/>
</a>
</g>
</g>
<!-- Node17 -->
<g id="Node000017" class="node">
<title>Node17</title>
<g id="a_Node000017"><a xlink:href="../../db/d41/rmvldef_8hpp.html" target="_top" xlink:title=" ">
<polygon fill="white" stroke="#666666" points="139.5,-24.5 64.5,-24.5 64.5,-5.5 139.5,-5.5 139.5,-24.5"/>
<text text-anchor="middle" x="102" y="-12.5" font-family="Helvetica,sans-Serif" font-size="10.00">rmvldef.hpp</text>
</a>
</g>
</g>
<!-- Node13&#45;&gt;Node17 -->
<g id="edge17_Node000013_Node000017" class="edge">
<title>Node13&#45;&gt;Node17</title>
<g id="a_edge17_Node000013_Node000017"><a xlink:title=" ">
<path fill="none" stroke="#63b8ff" d="M206.26,-65.99C185.93,-56.25 152.39,-40.16 128.86,-28.88"/>
<polygon fill="#63b8ff" stroke="#63b8ff" points="130.29,-25.68 119.76,-24.52 127.26,-32 130.29,-25.68"/>
</a>
</g>
</g>
<!-- Node18&#45;&gt;Node7 -->
<g id="edge21_Node000018_Node000007" class="edge">
<title>Node18&#45;&gt;Node7</title>
<g id="a_edge21_Node000018_Node000007"><a xlink:title=" ">
<path fill="none" stroke="#63b8ff" d="M673.63,-65.99C638.4,-55.79 579.21,-38.65 540.13,-27.33"/>
<polygon fill="#63b8ff" stroke="#63b8ff" points="540.99,-23.94 530.41,-24.52 539.04,-30.66 540.99,-23.94"/>
</a>
</g>
</g>
<!-- Node19 -->
<g id="Node000019" class="node">
<title>Node19</title>
<g id="a_Node000019"><a xlink:title=" ">
<polygon fill="#e0e0e0" stroke="#999999" points="652.5,-24.5 579.5,-24.5 579.5,-5.5 652.5,-5.5 652.5,-24.5"/>
<text text-anchor="middle" x="616" y="-12.5" font-family="Helvetica,sans-Serif" font-size="10.00">string_view</text>
</a>
</g>
</g>
<!-- Node18&#45;&gt;Node19 -->
<g id="edge19_Node000018_Node000019" class="edge">
<title>Node18&#45;&gt;Node19</title>
<g id="a_edge19_Node000018_Node000019"><a xlink:title=" ">
<path fill="none" stroke="#63b8ff" d="M690.16,-65.87C676.28,-56.54 653.93,-41.51 637.39,-30.38"/>
<polygon fill="#63b8ff" stroke="#63b8ff" points="639.14,-27.34 628.89,-24.67 635.24,-33.15 639.14,-27.34"/>
</a>
</g>
</g>
<!-- Node20 -->
<g id="Node000020" class="node">
<title>Node20</title>
<g id="a_Node000020"><a xlink:title=" ">
<polygon fill="#e0e0e0" stroke="#999999" points="735.5,-24.5 670.5,-24.5 670.5,-5.5 735.5,-5.5 735.5,-24.5"/>
<text text-anchor="middle" x="703" y="-12.5" font-family="Helvetica,sans-Serif" font-size="10.00">typeindex</text>
</a>
</g>
</g>
<!-- Node18&#45;&gt;Node20 -->
<g id="edge20_Node000018_Node000020" class="edge">
<title>Node18&#45;&gt;Node20</title>
<g id="a_edge20_Node000018_Node000020"><a xlink:title=" ">
<path fill="none" stroke="#63b8ff" d="M703,-65.87C703,-57.75 703,-45.31 703,-34.89"/>
<polygon fill="#63b8ff" stroke="#63b8ff" points="706.5,-34.67 703,-24.67 699.5,-34.67 706.5,-34.67"/>
</a>
</g>
</g>
<!-- Node21 -->
<g id="Node000021" class="node">
<title>Node21</title>
<g id="a_Node000021"><a xlink:title=" ">
<polygon fill="#e0e0e0" stroke="#999999" points="908.5,-30 753.5,-30 753.5,0 908.5,0 908.5,-30"/>
<text text-anchor="start" x="761.5" y="-18" font-family="Helvetica,sans-Serif" font-size="10.00">open62541/types_generated</text>
<text text-anchor="middle" x="831" y="-7" font-family="Helvetica,sans-Serif" font-size="10.00">_handling.h</text>
</a>
</g>
</g>
<!-- Node18&#45;&gt;Node21 -->
<g id="edge22_Node000018_Node000021" class="edge">
<title>Node18&#45;&gt;Node21</title>
<g id="a_edge22_Node000018_Node000021"><a xlink:title=" ">
<path fill="none" stroke="#63b8ff" d="M721.61,-65.99C739.65,-57.75 767.6,-44.98 790.73,-34.4"/>
<polygon fill="#63b8ff" stroke="#63b8ff" points="792.34,-37.52 799.98,-30.18 789.43,-31.15 792.34,-37.52"/>
</a>
</g>
</g>
<!-- Node22&#45;&gt;Node8 -->
<g id="edge29_Node000022_Node000008" class="edge">
<title>Node22&#45;&gt;Node8</title>
<g id="a_edge29_Node000022_Node000008"><a xlink:title=" ">
<path fill="none" stroke="#63b8ff" d="M515.2,-175.98C506.18,-168.15 492.59,-156.34 481.68,-146.86"/>
<polygon fill="#63b8ff" stroke="#63b8ff" points="483.82,-144.09 473.98,-140.17 479.23,-149.37 483.82,-144.09"/>
</a>
</g>
</g>
<!-- Node23 -->
<g id="Node000023" class="node">
<title>Node23</title>
<g id="a_Node000023"><a xlink:href="../../d7/d9c/method_8hpp.html" target="_top" xlink:title="方法节点">
<polygon fill="white" stroke="#666666" points="623.5,-140 548.5,-140 548.5,-121 623.5,-121 623.5,-140"/>
<text text-anchor="middle" x="586" y="-128" font-family="Helvetica,sans-Serif" font-size="10.00">method.hpp</text>
</a>
</g>
</g>
<!-- Node22&#45;&gt;Node23 -->
<g id="edge24_Node000022_Node000023" class="edge">
<title>Node22&#45;&gt;Node23</title>
<g id="a_edge24_Node000022_Node000023"><a xlink:title=" ">
<path fill="none" stroke="#63b8ff" d="M534.8,-175.98C543.82,-168.15 557.41,-156.34 568.32,-146.86"/>
<polygon fill="#63b8ff" stroke="#63b8ff" points="570.77,-149.37 576.02,-140.17 566.18,-144.09 570.77,-149.37"/>
</a>
</g>
</g>
<!-- Node23&#45;&gt;Node6 -->
<g id="edge25_Node000023_Node000006" class="edge">
<title>Node23&#45;&gt;Node6</title>
<g id="a_edge25_Node000023_Node000006"><a xlink:title=" ">
<path fill="none" stroke="#63b8ff" d="M596.73,-120.62C611.07,-107.69 633.12,-83.34 619,-66 569.14,-4.76 521.52,-49.52 445,-30 440.51,-28.85 435.81,-27.55 431.19,-26.2"/>
<polygon fill="#63b8ff" stroke="#63b8ff" points="431.93,-22.77 421.35,-23.25 429.92,-29.48 431.93,-22.77"/>
</a>
</g>
</g>
<!-- Node23&#45;&gt;Node11 -->
<g id="edge26_Node000023_Node000011" class="edge">
<title>Node23&#45;&gt;Node11</title>
<g id="a_edge26_Node000023_Node000011"><a xlink:title=" ">
<path fill="none" stroke="#63b8ff" d="M575.72,-120.98C566.16,-113.07 551.72,-101.11 540.22,-91.58"/>
<polygon fill="#63b8ff" stroke="#63b8ff" points="542.4,-88.85 532.47,-85.17 537.94,-94.24 542.4,-88.85"/>
</a>
</g>
</g>
<!-- Node23&#45;&gt;Node12 -->
<g id="edge27_Node000023_Node000012" class="edge">
<title>Node23&#45;&gt;Node12</title>
<g id="a_edge27_Node000023_Node000012"><a xlink:title=" ">
<path fill="none" stroke="#63b8ff" d="M586,-120.75C586,-113.8 586,-103.85 586,-95.13"/>
<polygon fill="#63b8ff" stroke="#63b8ff" points="589.5,-95.09 586,-85.09 582.5,-95.09 589.5,-95.09"/>
</a>
</g>
</g>
<!-- Node23&#45;&gt;Node18 -->
<g id="edge28_Node000023_Node000018" class="edge">
<title>Node23&#45;&gt;Node18</title>
<g id="a_edge28_Node000023_Node000018"><a xlink:title=" ">
<path fill="none" stroke="#63b8ff" d="M604.8,-120.98C623.62,-112.46 652.82,-99.23 674.5,-89.41"/>
<polygon fill="#63b8ff" stroke="#63b8ff" points="676.2,-92.48 683.86,-85.17 673.31,-86.11 676.2,-92.48"/>
</a>
</g>
</g>
<!-- Node24&#45;&gt;Node8 -->
<g id="edge31_Node000024_Node000008" class="edge">
<title>Node24&#45;&gt;Node8</title>
<g id="a_edge31_Node000024_Node000008"><a xlink:title=" ">
<path fill="none" stroke="#63b8ff" d="M446.47,-175.75C449.28,-168.65 453.34,-158.4 456.85,-149.56"/>
<polygon fill="#63b8ff" stroke="#63b8ff" points="460.17,-150.68 460.6,-140.09 453.66,-148.1 460.17,-150.68"/>
</a>
</g>
</g>
</g>
</svg>

<g id="navigator" transform="translate(0 0)" fill="#404254">
  <rect fill="#f2f5e9" fill-opacity="0.5" stroke="#606060" stroke-width=".5" x="0" y="0" width="60" height="60"/>
  <use id="zoomplus" xlink:href="#zoomPlus" x="17" y="9" onmousedown="handleZoom(evt,'in')"/>
  <use id="zoomminus" xlink:href="#zoomMin" x="42" y="9" onmousedown="handleZoom(evt,'out')"/>
  <use id="reset" xlink:href="#resetDef" x="30" y="36" onmousedown="handleReset()"/>
   <use id="arrowup" xlink:href="#arrowUp" x="0" y="0" onmousedown="handlePan(0,-1)"/>
  <use id="arrowright" xlink:href="#arrowRight" x="0" y="0" onmousedown="handlePan(1,0)"/>
  <use id="arrowdown" xlink:href="#arrowDown" x="0" y="0" onmousedown="handlePan(0,1)"/>
  <use id="arrowleft" xlink:href="#arrowLeft" x="0" y="0" onmousedown="handlePan(-1,0)"/>
</g>
<svg viewBox="0 0 15 15" width="100%" height="30px" preserveAspectRatio="xMaxYMin meet">
 <g id="arrow_out" transform="scale(0.3 0.3)">
  <a xlink:href="server_8hpp__incl_org.svg" target="_base">
   <rect id="button" ry="5" rx="5" y="6" x="6" height="38" width="38"
        fill="#f2f5e9" fill-opacity="0.5" stroke="#606060" stroke-width="1.0"/>
   <path id="arrow"
     d="M 11.500037,31.436501 C 11.940474,20.09759 22.043105,11.32322 32.158766,21.979434 L 37.068811,17.246167 C 37.068811,17.246167 37.088388,32 37.088388,32 L 22.160133,31.978069 C 22.160133,31.978069 26.997745,27.140456 26.997745,27.140456 C 18.528582,18.264221 13.291696,25.230495 11.500037,31.436501 z"
     style="fill:#404040;"/>
  </a>
 </g>
</svg>

<style type='text/css'>
<![CDATA[
[data-mouse-over-selected='false'] { opacity: 0.7; }
[data-mouse-over-selected='true']  { opacity: 1.0; }
]]>
</style>
<script type="application/ecmascript"><![CDATA[
document.addEventListener('DOMContentLoaded', (event) => {
  highlightEdges();
  highlightAdjacentNodes();
});
]]></script>
</svg>
