<?xml version="1.0" encoding="UTF-8" standalone="no"?>
<!DOCTYPE svg PUBLIC "-//W3C//DTD SVG 1.1//EN"
 "http://www.w3.org/Graphics/SVG/1.1/DTD/svg11.dtd">
<!-- Generated by graphviz version 2.43.0 (0)
 -->
<!-- Title: rm::DataSourceVariable Pages: 1 -->
<svg width="473pt" height="283pt"
 viewBox="0.00 0.00 473.00 283.00" xmlns="http://www.w3.org/2000/svg" xmlns:xlink="http://www.w3.org/1999/xlink">
<g id="graph0" class="graph" transform="scale(1 1) rotate(0) translate(4 279)">
<title>rm::DataSourceVariable</title>
<!-- Node1 -->
<g id="Node000001" class="node">
<title>Node1</title>
<g id="a_Node000001"><a xlink:title="OPC UA 数据源变量">
<polygon fill="#999999" stroke="transparent" points="227.5,-49 113.5,-49 113.5,0 227.5,0 227.5,-49"/>
<text text-anchor="start" x="118.5" y="-36.5" font-family="Helvetica,sans-Serif" font-size="10.00">rm::DataSourceVariable</text>
<text text-anchor="start" x="168.5" y="-21.5" font-family="Helvetica,sans-Serif" font-size="10.00"> </text>
<text text-anchor="start" x="168.5" y="-6.5" font-family="Helvetica,sans-Serif" font-size="10.00"> </text>
<polygon fill="#666666" stroke="#666666" points="113.5,-31.5 113.5,-31.5 227.5,-31.5 227.5,-31.5 113.5,-31.5"/>
<polygon fill="#666666" stroke="#666666" points="113.5,-16.5 113.5,-16.5 227.5,-16.5 227.5,-16.5 113.5,-16.5"/>
<polygon fill="none" stroke="#666666" points="113.5,0 113.5,-49 227.5,-49 227.5,0 113.5,0"/>
</a>
</g>
</g>
<!-- Node2 -->
<g id="Node000002" class="node">
<title>Node2</title>
<g id="a_Node000002"><a xlink:title=" ">
<polygon fill="white" stroke="transparent" points="45,-172.5 0,-172.5 0,-123.5 45,-123.5 45,-172.5"/>
<text text-anchor="start" x="5.5" y="-160" font-family="Helvetica,sans-Serif" font-size="10.00">uint16_t</text>
<text text-anchor="start" x="21" y="-145" font-family="Helvetica,sans-Serif" font-size="10.00"> </text>
<text text-anchor="start" x="21" y="-130" font-family="Helvetica,sans-Serif" font-size="10.00"> </text>
<polygon fill="#666666" stroke="#666666" points="0.5,-155 0.5,-155 45.5,-155 45.5,-155 0.5,-155"/>
<polygon fill="#666666" stroke="#666666" points="0.5,-140 0.5,-140 45.5,-140 45.5,-140 0.5,-140"/>
<polygon fill="none" stroke="#666666" points="0,-123.5 0,-172.5 45,-172.5 45,-123.5 0,-123.5"/>
</a>
</g>
</g>
<!-- Node2&#45;&gt;Node1 -->
<g id="edge1_Node000001_Node000002" class="edge">
<title>Node2&#45;&gt;Node1</title>
<g id="a_edge1_Node000001_Node000002"><a xlink:title=" ">
<path fill="none" stroke="#63b8ff" d="M29.46,-123.47C35.77,-105.8 46.69,-82.15 63.5,-67 74.48,-57.1 88.09,-49.45 101.88,-43.58"/>
<polygon fill="none" stroke="#63b8ff" points="102.27,-43.43 106.41,-37.52 113.45,-39.06 109.32,-44.97 102.27,-43.43"/>
</a>
</g>
<text text-anchor="middle" x="73.5" y="-81" font-family="Helvetica,sans-Serif" font-size="10.00" fill="grey"> +ns</text>
</g>
<!-- Node3 -->
<g id="Node000003" class="node">
<title>Node3</title>
<g id="a_Node000003"><a xlink:title=" ">
<polygon fill="white" stroke="transparent" points="117.5,-172.5 63.5,-172.5 63.5,-123.5 117.5,-123.5 117.5,-172.5"/>
<text text-anchor="start" x="68.5" y="-160" font-family="Helvetica,sans-Serif" font-size="10.00">std::string</text>
<text text-anchor="start" x="88.5" y="-145" font-family="Helvetica,sans-Serif" font-size="10.00"> </text>
<text text-anchor="start" x="88.5" y="-130" font-family="Helvetica,sans-Serif" font-size="10.00"> </text>
<polygon fill="#666666" stroke="#666666" points="63.5,-155 63.5,-155 117.5,-155 117.5,-155 63.5,-155"/>
<polygon fill="#666666" stroke="#666666" points="63.5,-140 63.5,-140 117.5,-140 117.5,-140 63.5,-140"/>
<polygon fill="none" stroke="#666666" points="63.5,-123.5 63.5,-172.5 117.5,-172.5 117.5,-123.5 63.5,-123.5"/>
</a>
</g>
</g>
<!-- Node3&#45;&gt;Node1 -->
<g id="edge2_Node000001_Node000003" class="edge">
<title>Node3&#45;&gt;Node1</title>
<g id="a_edge2_Node000001_Node000003"><a xlink:title=" ">
<path fill="none" stroke="#63b8ff" d="M86.69,-123.46C85.19,-106.47 85.87,-83.68 96.5,-67 98.79,-63.41 101.5,-60.11 104.51,-57.06"/>
<polygon fill="none" stroke="#63b8ff" points="104.59,-57 106.53,-50.05 113.69,-49.17 111.75,-56.12 104.59,-57"/>
</a>
</g>
<text text-anchor="middle" x="131.5" y="-92" font-family="Helvetica,sans-Serif" font-size="10.00" fill="grey"> +browse_name</text>
<text text-anchor="middle" x="131.5" y="-81" font-family="Helvetica,sans-Serif" font-size="10.00" fill="grey">+description</text>
<text text-anchor="middle" x="131.5" y="-70" font-family="Helvetica,sans-Serif" font-size="10.00" fill="grey">+display_name</text>
</g>
<!-- Node4 -->
<g id="Node000004" class="node">
<title>Node4</title>
<g id="a_Node000004"><a xlink:title=" ">
<polygon fill="white" stroke="transparent" points="135,-275 46,-275 46,-215 135,-215 135,-275"/>
<text text-anchor="start" x="51.5" y="-263" font-family="Helvetica,sans-Serif" font-size="10.00">std::basic_string&lt;</text>
<text text-anchor="start" x="74" y="-252" font-family="Helvetica,sans-Serif" font-size="10.00"> Char &gt;</text>
<text text-anchor="start" x="89" y="-237" font-family="Helvetica,sans-Serif" font-size="10.00"> </text>
<text text-anchor="start" x="89" y="-222" font-family="Helvetica,sans-Serif" font-size="10.00"> </text>
<polygon fill="#666666" stroke="#666666" points="46.5,-247 46.5,-247 135.5,-247 135.5,-247 46.5,-247"/>
<polygon fill="#666666" stroke="#666666" points="46.5,-232 46.5,-232 135.5,-232 135.5,-232 46.5,-232"/>
<polygon fill="none" stroke="#666666" points="46,-215 46,-275 135,-275 135,-215 46,-215"/>
</a>
</g>
</g>
<!-- Node4&#45;&gt;Node3 -->
<g id="edge3_Node000003_Node000004" class="edge">
<title>Node4&#45;&gt;Node3</title>
<g id="a_edge3_Node000003_Node000004"><a xlink:title=" ">
<path fill="none" stroke="#63b8ff" d="M90.5,-204.81C90.5,-193.93 90.5,-182.44 90.5,-172.74"/>
<polygon fill="none" stroke="#63b8ff" points="87,-204.98 90.5,-214.98 94,-204.98 87,-204.98"/>
</a>
</g>
</g>
<!-- Node5 -->
<g id="Node000005" class="node">
<title>Node5</title>
<g id="a_Node000005"><a xlink:title=" ">
<polygon fill="white" stroke="transparent" points="190.5,-172.5 150.5,-172.5 150.5,-123.5 190.5,-123.5 190.5,-172.5"/>
<text text-anchor="start" x="155.5" y="-160" font-family="Helvetica,sans-Serif" font-size="10.00">uint8_t</text>
<text text-anchor="start" x="168.5" y="-145" font-family="Helvetica,sans-Serif" font-size="10.00"> </text>
<text text-anchor="start" x="168.5" y="-130" font-family="Helvetica,sans-Serif" font-size="10.00"> </text>
<polygon fill="#666666" stroke="#666666" points="150.5,-155 150.5,-155 190.5,-155 190.5,-155 150.5,-155"/>
<polygon fill="#666666" stroke="#666666" points="150.5,-140 150.5,-140 190.5,-140 190.5,-140 150.5,-140"/>
<polygon fill="none" stroke="#666666" points="150.5,-123.5 150.5,-172.5 190.5,-172.5 190.5,-123.5 150.5,-123.5"/>
</a>
</g>
</g>
<!-- Node5&#45;&gt;Node1 -->
<g id="edge4_Node000001_Node000005" class="edge">
<title>Node5&#45;&gt;Node1</title>
<g id="a_edge4_Node000001_Node000005"><a xlink:title=" ">
<path fill="none" stroke="#63b8ff" d="M170.5,-123.29C170.5,-105.64 170.5,-81.25 170.5,-61.25"/>
<polygon fill="none" stroke="#63b8ff" points="170.5,-61.16 166.5,-55.16 170.5,-49.16 174.5,-55.16 170.5,-61.16"/>
</a>
</g>
<text text-anchor="middle" x="204" y="-81" font-family="Helvetica,sans-Serif" font-size="10.00" fill="grey"> +access_level</text>
</g>
<!-- Node6 -->
<g id="Node000006" class="node">
<title>Node6</title>
<g id="a_Node000006"><a xlink:title=" ">
<polygon fill="white" stroke="transparent" points="306,-178 215,-178 215,-118 306,-118 306,-178"/>
<text text-anchor="start" x="220.5" y="-166" font-family="Helvetica,sans-Serif" font-size="10.00">function&lt; Variable</text>
<text text-anchor="start" x="220.5" y="-155" font-family="Helvetica,sans-Serif" font-size="10.00">(const NodeId &amp;)&gt;</text>
<text text-anchor="start" x="259" y="-140" font-family="Helvetica,sans-Serif" font-size="10.00"> </text>
<text text-anchor="start" x="259" y="-125" font-family="Helvetica,sans-Serif" font-size="10.00"> </text>
<polygon fill="#666666" stroke="#666666" points="215.5,-150 215.5,-150 306.5,-150 306.5,-150 215.5,-150"/>
<polygon fill="#666666" stroke="#666666" points="215.5,-135 215.5,-135 306.5,-135 306.5,-135 215.5,-135"/>
<polygon fill="none" stroke="#666666" points="215,-118 215,-178 306,-178 306,-118 215,-118"/>
</a>
</g>
</g>
<!-- Node6&#45;&gt;Node1 -->
<g id="edge5_Node000001_Node000006" class="edge">
<title>Node6&#45;&gt;Node1</title>
<g id="a_edge5_Node000001_Node000006"><a xlink:title=" ">
<path fill="none" stroke="#63b8ff" d="M257.76,-117.66C255.01,-101.41 249.51,-81.61 238.5,-67 235.76,-63.36 232.6,-59.97 229.17,-56.83"/>
<polygon fill="none" stroke="#63b8ff" points="228.91,-56.62 221.73,-55.96 219.58,-49.08 226.76,-49.74 228.91,-56.62"/>
</a>
</g>
<text text-anchor="middle" x="275.5" y="-81" font-family="Helvetica,sans-Serif" font-size="10.00" fill="grey"> +on_read</text>
</g>
<!-- Node7 -->
<g id="Node000007" class="node">
<title>Node7</title>
<g id="a_Node000007"><a xlink:title=" ">
<polygon fill="white" stroke="transparent" points="465,-178 324,-178 324,-118 465,-118 465,-178"/>
<text text-anchor="start" x="329.5" y="-166" font-family="Helvetica,sans-Serif" font-size="10.00">function&lt; void(const</text>
<text text-anchor="start" x="329.5" y="-155" font-family="Helvetica,sans-Serif" font-size="10.00"> NodeId &amp;, const Variable &amp;)&gt;</text>
<text text-anchor="start" x="393" y="-140" font-family="Helvetica,sans-Serif" font-size="10.00"> </text>
<text text-anchor="start" x="393" y="-125" font-family="Helvetica,sans-Serif" font-size="10.00"> </text>
<polygon fill="#666666" stroke="#666666" points="324.5,-150 324.5,-150 465.5,-150 465.5,-150 324.5,-150"/>
<polygon fill="#666666" stroke="#666666" points="324.5,-135 324.5,-135 465.5,-135 465.5,-135 324.5,-135"/>
<polygon fill="none" stroke="#666666" points="324,-118 324,-178 465,-178 465,-118 324,-118"/>
</a>
</g>
</g>
<!-- Node7&#45;&gt;Node1 -->
<g id="edge6_Node000001_Node000007" class="edge">
<title>Node7&#45;&gt;Node1</title>
<g id="a_edge6_Node000001_Node000007"><a xlink:title=" ">
<path fill="none" stroke="#63b8ff" d="M366.66,-117.74C349.29,-100.9 325.68,-80.48 301.5,-67 282.34,-56.32 260.04,-47.95 239.33,-41.62"/>
<polygon fill="none" stroke="#63b8ff" points="239.2,-41.59 232.32,-43.74 227.68,-38.22 234.57,-36.06 239.2,-41.59"/>
</a>
</g>
<text text-anchor="middle" x="367.5" y="-81" font-family="Helvetica,sans-Serif" font-size="10.00" fill="grey"> +on_write</text>
</g>
</g>
</svg>
