<?xml version="1.0" encoding="UTF-8" standalone="no"?>
<!DOCTYPE svg PUBLIC "-//W3C//DTD SVG 1.1//EN"
 "http://www.w3.org/Graphics/SVG/1.1/DTD/svg11.dtd">
<!-- Generated by graphviz version 2.43.0 (0)
 -->
<!-- Title: rm::Translation Pages: 1 -->
<svg width="91pt" height="234pt"
 viewBox="0.00 0.00 91.00 234.00" xmlns="http://www.w3.org/2000/svg" xmlns:xlink="http://www.w3.org/1999/xlink">
<g id="graph0" class="graph" transform="scale(1 1) rotate(0) translate(4 230)">
<title>rm::Translation</title>
<!-- Node1 -->
<g id="Node000001" class="node">
<title>Node1</title>
<g id="a_Node000001"><a xlink:title="移动位置信息">
<polygon fill="#999999" stroke="transparent" points="83,-49 0,-49 0,0 83,0 83,-49"/>
<text text-anchor="start" x="5.5" y="-36.5" font-family="Helvetica,sans-Serif" font-size="10.00">rm::Translation</text>
<text text-anchor="start" x="40" y="-21.5" font-family="Helvetica,sans-Serif" font-size="10.00"> </text>
<text text-anchor="start" x="40" y="-6.5" font-family="Helvetica,sans-Serif" font-size="10.00"> </text>
<polygon fill="#666666" stroke="#666666" points="0.5,-31.5 0.5,-31.5 83.5,-31.5 83.5,-31.5 0.5,-31.5"/>
<polygon fill="#666666" stroke="#666666" points="0.5,-16.5 0.5,-16.5 83.5,-16.5 83.5,-16.5 0.5,-16.5"/>
<polygon fill="none" stroke="#666666" points="0,0 0,-49 83,-49 83,0 0,0"/>
</a>
</g>
</g>
<!-- Node2 -->
<g id="Node000002" class="node">
<title>Node2</title>
<g id="a_Node000002"><a xlink:title=" ">
<polygon fill="white" stroke="transparent" points="57.5,-226 25.5,-226 25.5,-177 57.5,-177 57.5,-226"/>
<text text-anchor="start" x="30.5" y="-213.5" font-family="Helvetica,sans-Serif" font-size="10.00">float</text>
<text text-anchor="start" x="39.5" y="-198.5" font-family="Helvetica,sans-Serif" font-size="10.00"> </text>
<text text-anchor="start" x="39.5" y="-183.5" font-family="Helvetica,sans-Serif" font-size="10.00"> </text>
<polygon fill="#666666" stroke="#666666" points="25.5,-208.5 25.5,-208.5 57.5,-208.5 57.5,-208.5 25.5,-208.5"/>
<polygon fill="#666666" stroke="#666666" points="25.5,-193.5 25.5,-193.5 57.5,-193.5 57.5,-193.5 25.5,-193.5"/>
<polygon fill="none" stroke="#666666" points="25.5,-177 25.5,-226 57.5,-226 57.5,-177 25.5,-177"/>
</a>
</g>
</g>
<!-- Node2&#45;&gt;Node1 -->
<g id="edge1_Node000001_Node000002" class="edge">
<title>Node2&#45;&gt;Node1</title>
<g id="a_edge1_Node000001_Node000002"><a xlink:title=" ">
<path fill="none" stroke="#63b8ff" d="M41.5,-176.9C41.5,-147.2 41.5,-95.91 41.5,-61.35"/>
<polygon fill="none" stroke="#63b8ff" points="41.5,-61.01 37.5,-55.01 41.5,-49.01 45.5,-55.01 41.5,-61.01"/>
</a>
</g>
<text text-anchor="start" x="45" y="-148" font-family="Helvetica,sans-Serif" font-size="10.00" fill="grey">+vx</text>
<text text-anchor="start" x="45" y="-133" font-family="Helvetica,sans-Serif" font-size="10.00" fill="grey">+vy</text>
<text text-anchor="start" x="45" y="-118" font-family="Helvetica,sans-Serif" font-size="10.00" fill="grey">+vz</text>
<text text-anchor="start" x="45" y="-103" font-family="Helvetica,sans-Serif" font-size="10.00" fill="grey">+x</text>
<text text-anchor="start" x="45" y="-88" font-family="Helvetica,sans-Serif" font-size="10.00" fill="grey">+y</text>
<text text-anchor="start" x="45" y="-73" font-family="Helvetica,sans-Serif" font-size="10.00" fill="grey">+z</text>
</g>
</g>
</svg>
