<?xml version="1.0" encoding="UTF-8" standalone="no"?>
<!DOCTYPE svg PUBLIC "-//W3C//DTD SVG 1.1//EN"
 "http://www.w3.org/Graphics/SVG/1.1/DTD/svg11.dtd">
<!-- Generated by graphviz version 2.43.0 (0)
 -->
<!-- Title: rm::hash_aggregate::operator() Pages: 1 -->
<svg width="372pt" height="51pt"
 viewBox="0.00 0.00 372.00 50.50" xmlns="http://www.w3.org/2000/svg" xmlns:xlink="http://www.w3.org/1999/xlink">
<g id="graph0" class="graph" transform="scale(1 1) rotate(0) translate(4 46.5)">
<title>rm::hash_aggregate::operator()</title>
<!-- Node1 -->
<g id="Node000001" class="node">
<title>Node1</title>
<g id="a_Node000001"><a xlink:title=" ">
<polygon fill="#999999" stroke="#666666" points="103,-30 0,-30 0,0 103,0 103,-30"/>
<text text-anchor="start" x="8" y="-18" font-family="Helvetica,sans-Serif" font-size="10.00">rm::hash_aggregate</text>
<text text-anchor="middle" x="51.5" y="-7" font-family="Helvetica,sans-Serif" font-size="10.00">::operator()</text>
</a>
</g>
</g>
<!-- Node2 -->
<g id="Node000002" class="node">
<title>Node2</title>
<g id="a_Node000002"><a xlink:href="../../d5/d3e/group__core__reflect.html#ga9863cff22a9ace50a697915560ee8290" target="_top" xlink:title="遍历聚合类的每一个数据成员">
<polygon fill="white" stroke="#666666" points="243,-24.5 139,-24.5 139,-5.5 243,-5.5 243,-24.5"/>
<text text-anchor="middle" x="191" y="-12.5" font-family="Helvetica,sans-Serif" font-size="10.00">rm::reflect::for_each</text>
</a>
</g>
</g>
<!-- Node1&#45;&gt;Node2 -->
<g id="edge1_Node000001_Node000002" class="edge">
<title>Node1&#45;&gt;Node2</title>
<g id="a_edge1_Node000001_Node000002"><a xlink:title=" ">
<path fill="none" stroke="#63b8ff" d="M103.31,-15C111.58,-15 120.22,-15 128.7,-15"/>
<polygon fill="#63b8ff" stroke="#63b8ff" points="128.94,-18.5 138.94,-15 128.94,-11.5 128.94,-18.5"/>
</a>
</g>
</g>
<!-- Node3 -->
<g id="Node000003" class="node">
<title>Node3</title>
<g id="a_Node000003"><a xlink:href="../../d5/d3e/group__core__reflect.html#gadc3b4f53ef6981ca8c58abd401a506b9" target="_top" xlink:title="获取指定类型的成员个数">
<polygon fill="white" stroke="#666666" points="364,-24.5 279,-24.5 279,-5.5 364,-5.5 364,-24.5"/>
<text text-anchor="middle" x="321.5" y="-12.5" font-family="Helvetica,sans-Serif" font-size="10.00">rm::reflect::size</text>
</a>
</g>
</g>
<!-- Node2&#45;&gt;Node3 -->
<g id="edge2_Node000002_Node000003" class="edge">
<title>Node2&#45;&gt;Node3</title>
<g id="a_edge2_Node000002_Node000003"><a xlink:title=" ">
<path fill="none" stroke="#63b8ff" d="M243.16,-15C251.52,-15 260.18,-15 268.56,-15"/>
<polygon fill="#63b8ff" stroke="#63b8ff" points="268.6,-18.5 278.6,-15 268.6,-11.5 268.6,-18.5"/>
</a>
</g>
</g>
<!-- Node3&#45;&gt;Node3 -->
<g id="edge3_Node000003_Node000003" class="edge">
<title>Node3&#45;&gt;Node3</title>
<g id="a_edge3_Node000003_Node000003"><a xlink:title=" ">
<path fill="none" stroke="#63b8ff" d="M301.46,-24.58C291.72,-33.23 298.39,-42.5 321.5,-42.5 336.3,-42.5 344.36,-38.7 345.68,-33.69"/>
<polygon fill="#63b8ff" stroke="#63b8ff" points="348.86,-32.23 341.54,-24.58 342.49,-35.13 348.86,-32.23"/>
</a>
</g>
</g>
</g>
</svg>
