<?xml version="1.0" encoding="UTF-8" standalone="no"?>
<!DOCTYPE svg PUBLIC "-//W3C//DTD SVG 1.1//EN"
 "http://www.w3.org/Graphics/SVG/1.1/DTD/svg11.dtd">
<!-- Generated by graphviz version 2.43.0 (0)
 -->
<!-- Title: rm::tracker Pages: 1 -->
<svg width="1281pt" height="777pt"
 viewBox="0.00 0.00 1281.00 777.00" xmlns="http://www.w3.org/2000/svg" xmlns:xlink="http://www.w3.org/1999/xlink">
<g id="graph0" class="graph" transform="scale(1 1) rotate(0) translate(4 773)">
<title>rm::tracker</title>
<polygon fill="white" stroke="transparent" points="-4,4 -4,-773 1277,-773 1277,4 -4,4"/>
<!-- Node1 -->
<g id="node1" class="node">
<title>Node1</title>
<g id="a_node1"><a xlink:title="组合体时间序列">
<polygon fill="#bfbfbf" stroke="black" points="429,-0.5 429,-167.5 551,-167.5 551,-0.5 429,-0.5"/>
<text text-anchor="middle" x="490" y="-155.5" font-family="Helvetica,sans-Serif" font-size="10.00">rm::tracker</text>
<polyline fill="none" stroke="black" points="429,-148.5 551,-148.5 "/>
<text text-anchor="middle" x="490" y="-136.5" font-family="Helvetica,sans-Serif" font-size="10.00"> </text>
<polyline fill="none" stroke="black" points="429,-129.5 551,-129.5 "/>
<text text-anchor="start" x="437" y="-117.5" font-family="Helvetica,sans-Serif" font-size="10.00">+ tracker()</text>
<text text-anchor="start" x="437" y="-106.5" font-family="Helvetica,sans-Serif" font-size="10.00">+ ~tracker()</text>
<text text-anchor="start" x="437" y="-95.5" font-family="Helvetica,sans-Serif" font-size="10.00">+ update()</text>
<text text-anchor="start" x="437" y="-84.5" font-family="Helvetica,sans-Serif" font-size="10.00">+ front()</text>
<text text-anchor="start" x="437" y="-73.5" font-family="Helvetica,sans-Serif" font-size="10.00">+ back()</text>
<text text-anchor="start" x="437" y="-62.5" font-family="Helvetica,sans-Serif" font-size="10.00">+ getVanishNumber()</text>
<text text-anchor="start" x="437" y="-51.5" font-family="Helvetica,sans-Serif" font-size="10.00">+ size()</text>
<text text-anchor="start" x="437" y="-40.5" font-family="Helvetica,sans-Serif" font-size="10.00">+ data()</text>
<text text-anchor="start" x="437" y="-29.5" font-family="Helvetica,sans-Serif" font-size="10.00">+ empty()</text>
<text text-anchor="start" x="437" y="-18.5" font-family="Helvetica,sans-Serif" font-size="10.00">+ at()</text>
<text text-anchor="start" x="437" y="-7.5" font-family="Helvetica,sans-Serif" font-size="10.00">和 9 更多...</text>
</a>
</g>
</g>
<!-- Node2 -->
<g id="node2" class="node">
<title>Node2</title>
<g id="a_node2"><a xlink:href="../../da/dbf/classrm_1_1CameraExtrinsics.html" target="_top" xlink:title=" ">
<polygon fill="white" stroke="black" points="4,-237.5 4,-426.5 126,-426.5 126,-237.5 4,-237.5"/>
<text text-anchor="start" x="12" y="-414.5" font-family="Helvetica,sans-Serif" font-size="10.00">rm::CameraExtrinsics</text>
<text text-anchor="middle" x="65" y="-403.5" font-family="Helvetica,sans-Serif" font-size="10.00">&lt; float &gt;</text>
<polyline fill="none" stroke="black" points="4,-396.5 126,-396.5 "/>
<text text-anchor="middle" x="65" y="-384.5" font-family="Helvetica,sans-Serif" font-size="10.00"> </text>
<polyline fill="none" stroke="black" points="4,-377.5 126,-377.5 "/>
<text text-anchor="start" x="12" y="-365.5" font-family="Helvetica,sans-Serif" font-size="10.00">+ tvec()</text>
<text text-anchor="start" x="12" y="-354.5" font-family="Helvetica,sans-Serif" font-size="10.00">+ tvec()</text>
<text text-anchor="start" x="12" y="-343.5" font-family="Helvetica,sans-Serif" font-size="10.00">+ rvec()</text>
<text text-anchor="start" x="12" y="-332.5" font-family="Helvetica,sans-Serif" font-size="10.00">+ rvec()</text>
<text text-anchor="start" x="12" y="-321.5" font-family="Helvetica,sans-Serif" font-size="10.00">+ R()</text>
<text text-anchor="start" x="12" y="-310.5" font-family="Helvetica,sans-Serif" font-size="10.00">+ R()</text>
<text text-anchor="start" x="12" y="-299.5" font-family="Helvetica,sans-Serif" font-size="10.00">+ T()</text>
<text text-anchor="start" x="12" y="-288.5" font-family="Helvetica,sans-Serif" font-size="10.00">+ yaw()</text>
<text text-anchor="start" x="12" y="-277.5" font-family="Helvetica,sans-Serif" font-size="10.00">+ pitch()</text>
<text text-anchor="start" x="12" y="-266.5" font-family="Helvetica,sans-Serif" font-size="10.00">+ roll()</text>
<text text-anchor="start" x="12" y="-255.5" font-family="Helvetica,sans-Serif" font-size="10.00">+ distance()</text>
<text text-anchor="start" x="12" y="-244.5" font-family="Helvetica,sans-Serif" font-size="10.00">+ distance()</text>
</a>
</g>
</g>
<!-- Node2&#45;&gt;Node1 -->
<g id="edge1" class="edge">
<title>Node2&#45;&gt;Node1</title>
<path fill="none" stroke="#404040" d="M67.32,-237.4C71.83,-218.47 79.72,-200.08 93,-186 136.85,-139.52 314.74,-108.53 416.9,-94.18"/>
<polygon fill="none" stroke="#404040" points="417.08,-94.16 422.48,-89.37 428.97,-92.51 423.57,-97.3 417.08,-94.16"/>
<text text-anchor="middle" x="122.5" y="-200" font-family="Helvetica,sans-Serif" font-size="10.00"> #_extrinsic</text>
</g>
<!-- Node3 -->
<g id="node3" class="node">
<title>Node3</title>
<g id="a_node3"><a xlink:href="../../da/dbf/classrm_1_1CameraExtrinsics.html" target="_top" xlink:title="相机外参">
<polygon fill="white" stroke="black" points="0,-474.5 0,-663.5 122,-663.5 122,-474.5 0,-474.5"/>
<text text-anchor="start" x="8" y="-651.5" font-family="Helvetica,sans-Serif" font-size="10.00">rm::CameraExtrinsics</text>
<text text-anchor="middle" x="61" y="-640.5" font-family="Helvetica,sans-Serif" font-size="10.00">&lt; Tp &gt;</text>
<polyline fill="none" stroke="black" points="0,-633.5 122,-633.5 "/>
<text text-anchor="middle" x="61" y="-621.5" font-family="Helvetica,sans-Serif" font-size="10.00"> </text>
<polyline fill="none" stroke="black" points="0,-614.5 122,-614.5 "/>
<text text-anchor="start" x="8" y="-602.5" font-family="Helvetica,sans-Serif" font-size="10.00">+ tvec()</text>
<text text-anchor="start" x="8" y="-591.5" font-family="Helvetica,sans-Serif" font-size="10.00">+ rvec()</text>
<text text-anchor="start" x="8" y="-580.5" font-family="Helvetica,sans-Serif" font-size="10.00">+ R()</text>
<text text-anchor="start" x="8" y="-569.5" font-family="Helvetica,sans-Serif" font-size="10.00">+ T()</text>
<text text-anchor="start" x="8" y="-558.5" font-family="Helvetica,sans-Serif" font-size="10.00">+ yaw()</text>
<text text-anchor="start" x="8" y="-547.5" font-family="Helvetica,sans-Serif" font-size="10.00">+ pitch()</text>
<text text-anchor="start" x="8" y="-536.5" font-family="Helvetica,sans-Serif" font-size="10.00">+ roll()</text>
<text text-anchor="start" x="8" y="-525.5" font-family="Helvetica,sans-Serif" font-size="10.00">+ distance()</text>
<text text-anchor="start" x="8" y="-514.5" font-family="Helvetica,sans-Serif" font-size="10.00">+ tvec()</text>
<text text-anchor="start" x="8" y="-503.5" font-family="Helvetica,sans-Serif" font-size="10.00">+ rvec()</text>
<text text-anchor="start" x="8" y="-492.5" font-family="Helvetica,sans-Serif" font-size="10.00">+ R()</text>
<text text-anchor="start" x="8" y="-481.5" font-family="Helvetica,sans-Serif" font-size="10.00">+ distance()</text>
</a>
</g>
</g>
<!-- Node3&#45;&gt;Node2 -->
<g id="edge2" class="edge">
<title>Node3&#45;&gt;Node2</title>
<path fill="none" stroke="orange" d="M62.76,-464.42C62.98,-451.84 63.2,-439.04 63.41,-426.62"/>
<polygon fill="orange" stroke="orange" points="59.26,-464.39 62.59,-474.45 66.26,-464.51 59.26,-464.39"/>
<text text-anchor="middle" x="87" y="-448" font-family="Helvetica,sans-Serif" font-size="10.00"> &lt; float &gt;</text>
</g>
<!-- Node4 -->
<g id="node4" class="node">
<title>Node4</title>
<g id="a_node4"><a xlink:title=" ">
<polygon fill="white" stroke="#bfbfbf" points="268,-303.5 268,-360.5 410,-360.5 410,-303.5 268,-303.5"/>
<text text-anchor="middle" x="339" y="-348.5" font-family="Helvetica,sans-Serif" font-size="10.00">std::vector&lt; cv::Point2f &gt;</text>
<polyline fill="none" stroke="#bfbfbf" points="268,-341.5 410,-341.5 "/>
<text text-anchor="middle" x="339" y="-329.5" font-family="Helvetica,sans-Serif" font-size="10.00"> </text>
<polyline fill="none" stroke="#bfbfbf" points="268,-322.5 410,-322.5 "/>
<text text-anchor="middle" x="339" y="-310.5" font-family="Helvetica,sans-Serif" font-size="10.00"> </text>
</a>
</g>
</g>
<!-- Node4&#45;&gt;Node1 -->
<g id="edge3" class="edge">
<title>Node4&#45;&gt;Node1</title>
<path fill="none" stroke="#404040" d="M356.03,-303.26C374.67,-272.89 405.56,-222.56 432.99,-177.88"/>
<polygon fill="none" stroke="#404040" points="433.05,-177.79 432.78,-170.58 439.32,-167.56 439.59,-174.76 433.05,-177.79"/>
<text text-anchor="middle" x="450.5" y="-200" font-family="Helvetica,sans-Serif" font-size="10.00"> #_corners</text>
</g>
<!-- Node5 -->
<g id="node5" class="node">
<title>Node5</title>
<g id="a_node5"><a xlink:title=" ">
<polygon fill="white" stroke="#bfbfbf" points="140.5,-540.5 140.5,-597.5 191.5,-597.5 191.5,-540.5 140.5,-540.5"/>
<text text-anchor="middle" x="166" y="-585.5" font-family="Helvetica,sans-Serif" font-size="10.00">Point2f</text>
<polyline fill="none" stroke="#bfbfbf" points="140.5,-578.5 191.5,-578.5 "/>
<text text-anchor="middle" x="166" y="-566.5" font-family="Helvetica,sans-Serif" font-size="10.00"> </text>
<polyline fill="none" stroke="#bfbfbf" points="140.5,-559.5 191.5,-559.5 "/>
<text text-anchor="middle" x="166" y="-547.5" font-family="Helvetica,sans-Serif" font-size="10.00"> </text>
</a>
</g>
</g>
<!-- Node5&#45;&gt;Node1 -->
<g id="edge16" class="edge">
<title>Node5&#45;&gt;Node1</title>
<path fill="none" stroke="#404040" d="M157.9,-540.36C141.89,-479.78 112.86,-333.05 175,-237 228.74,-153.93 341.67,-115.03 416.68,-97.73"/>
<polygon fill="none" stroke="#404040" points="417.12,-97.63 422.11,-92.42 428.84,-95.03 423.84,-100.23 417.12,-97.63"/>
<text text-anchor="middle" x="217" y="-340.5" font-family="Helvetica,sans-Serif" font-size="10.00"> #_center</text>
<text text-anchor="middle" x="217" y="-329.5" font-family="Helvetica,sans-Serif" font-size="10.00">#_relative_angle</text>
<text text-anchor="middle" x="217" y="-318.5" font-family="Helvetica,sans-Serif" font-size="10.00">#_speed</text>
</g>
<!-- Node5&#45;&gt;Node4 -->
<g id="edge4" class="edge">
<title>Node5&#45;&gt;Node4</title>
<path fill="none" stroke="#404040" d="M172.38,-540.08C177.71,-520.5 186.63,-494.28 200,-474 210.38,-458.25 216.67,-457.27 231,-445 240.86,-436.56 244.5,-435.85 254,-427 272.88,-409.41 292.3,-388.21 307.81,-370.4"/>
<polygon fill="none" stroke="#404040" points="308.16,-369.99 309.04,-362.83 315.99,-360.9 315.11,-368.05 308.16,-369.99"/>
<text text-anchor="middle" x="260" y="-448" font-family="Helvetica,sans-Serif" font-size="10.00"> +elements</text>
</g>
<!-- Node6 -->
<g id="node6" class="node">
<title>Node6</title>
<g id="a_node6"><a xlink:title=" ">
<polygon fill="white" stroke="#bfbfbf" points="209.5,-540.5 209.5,-597.5 306.5,-597.5 306.5,-540.5 209.5,-540.5"/>
<text text-anchor="middle" x="258" y="-585.5" font-family="Helvetica,sans-Serif" font-size="10.00">std::vector&lt; T &gt;</text>
<polyline fill="none" stroke="#bfbfbf" points="209.5,-578.5 306.5,-578.5 "/>
<text text-anchor="middle" x="258" y="-566.5" font-family="Helvetica,sans-Serif" font-size="10.00"> </text>
<polyline fill="none" stroke="#bfbfbf" points="209.5,-559.5 306.5,-559.5 "/>
<text text-anchor="middle" x="258" y="-547.5" font-family="Helvetica,sans-Serif" font-size="10.00"> </text>
</a>
</g>
</g>
<!-- Node6&#45;&gt;Node4 -->
<g id="edge5" class="edge">
<title>Node6&#45;&gt;Node4</title>
<path fill="none" stroke="orange" d="M268.77,-530.84C276.05,-506.33 286.11,-473.59 296,-445 306.01,-416.07 318.7,-383.43 327.7,-360.89"/>
<polygon fill="orange" stroke="orange" points="265.41,-529.89 265.93,-540.47 272.12,-531.87 265.41,-529.89"/>
<text text-anchor="middle" x="334.5" y="-448" font-family="Helvetica,sans-Serif" font-size="10.00"> &lt; cv::Point2f &gt;</text>
</g>
<!-- Node7 -->
<g id="node7" class="node">
<title>Node7</title>
<g id="a_node7"><a xlink:title=" ">
<polygon fill="white" stroke="#bfbfbf" points="369.5,-711.5 369.5,-768.5 398.5,-768.5 398.5,-711.5 369.5,-711.5"/>
<text text-anchor="middle" x="384" y="-756.5" font-family="Helvetica,sans-Serif" font-size="10.00">T</text>
<polyline fill="none" stroke="#bfbfbf" points="369.5,-749.5 398.5,-749.5 "/>
<text text-anchor="middle" x="384" y="-737.5" font-family="Helvetica,sans-Serif" font-size="10.00"> </text>
<polyline fill="none" stroke="#bfbfbf" points="369.5,-730.5 398.5,-730.5 "/>
<text text-anchor="middle" x="384" y="-718.5" font-family="Helvetica,sans-Serif" font-size="10.00"> </text>
</a>
</g>
</g>
<!-- Node7&#45;&gt;Node6 -->
<g id="edge6" class="edge">
<title>Node7&#45;&gt;Node6</title>
<path fill="none" stroke="#404040" d="M369.48,-730.87C355.88,-722.68 335.65,-709.01 322,-693 300.6,-667.9 283.77,-634.44 272.75,-608.75"/>
<polygon fill="none" stroke="#404040" points="272.71,-608.63 266.71,-604.63 268.11,-597.55 274.1,-601.56 272.71,-608.63"/>
<text text-anchor="middle" x="351" y="-685" font-family="Helvetica,sans-Serif" font-size="10.00"> +elements</text>
</g>
<!-- Node19 -->
<g id="node19" class="node">
<title>Node19</title>
<g id="a_node19"><a xlink:title=" ">
<polygon fill="white" stroke="#bfbfbf" points="325,-540.5 325,-597.5 443,-597.5 443,-540.5 325,-540.5"/>
<text text-anchor="middle" x="384" y="-585.5" font-family="Helvetica,sans-Serif" font-size="10.00">std::shared_ptr&lt; T &gt;</text>
<polyline fill="none" stroke="#bfbfbf" points="325,-578.5 443,-578.5 "/>
<text text-anchor="middle" x="384" y="-566.5" font-family="Helvetica,sans-Serif" font-size="10.00"> </text>
<polyline fill="none" stroke="#bfbfbf" points="325,-559.5 443,-559.5 "/>
<text text-anchor="start" x="333" y="-547.5" font-family="Helvetica,sans-Serif" font-size="10.00">+ operator&#45;&gt;()</text>
</a>
</g>
</g>
<!-- Node7&#45;&gt;Node19 -->
<g id="edge20" class="edge">
<title>Node7&#45;&gt;Node19</title>
<path fill="none" stroke="#404040" d="M384,-711.47C384,-683.85 384,-641.03 384,-609.73"/>
<polygon fill="none" stroke="#404040" points="384,-609.52 380,-603.52 384,-597.52 388,-603.52 384,-609.52"/>
<text text-anchor="middle" x="396.5" y="-685" font-family="Helvetica,sans-Serif" font-size="10.00"> +ptr</text>
</g>
<!-- Node20 -->
<g id="node20" class="node">
<title>Node20</title>
<g id="a_node20"><a xlink:title=" ">
<polygon fill="white" stroke="#bfbfbf" points="461,-540.5 461,-597.5 557,-597.5 557,-540.5 461,-540.5"/>
<text text-anchor="middle" x="509" y="-585.5" font-family="Helvetica,sans-Serif" font-size="10.00">std::deque&lt; T &gt;</text>
<polyline fill="none" stroke="#bfbfbf" points="461,-578.5 557,-578.5 "/>
<text text-anchor="middle" x="509" y="-566.5" font-family="Helvetica,sans-Serif" font-size="10.00"> </text>
<polyline fill="none" stroke="#bfbfbf" points="461,-559.5 557,-559.5 "/>
<text text-anchor="middle" x="509" y="-547.5" font-family="Helvetica,sans-Serif" font-size="10.00"> </text>
</a>
</g>
</g>
<!-- Node7&#45;&gt;Node20 -->
<g id="edge22" class="edge">
<title>Node7&#45;&gt;Node20</title>
<path fill="none" stroke="#404040" d="M398.69,-724.51C413.11,-709.91 435.29,-686.4 452,-664 465.13,-646.39 477.98,-625.61 488.14,-608.07"/>
<polygon fill="none" stroke="#404040" points="488.16,-608.05 487.66,-600.86 494.1,-597.63 494.6,-604.82 488.16,-608.05"/>
<text text-anchor="middle" x="466" y="-685" font-family="Helvetica,sans-Serif" font-size="10.00"> +elements</text>
</g>
<!-- Node8 -->
<g id="node8" class="node">
<title>Node8</title>
<g id="a_node8"><a xlink:href="../../d0/d01/structrm_1_1RMStatus.html" target="_top" xlink:title="状态类型">
<polygon fill="white" stroke="black" points="695.5,-298 695.5,-366 778.5,-366 778.5,-298 695.5,-298"/>
<text text-anchor="middle" x="737" y="-354" font-family="Helvetica,sans-Serif" font-size="10.00">rm::RMStatus</text>
<polyline fill="none" stroke="black" points="695.5,-347 778.5,-347 "/>
<text text-anchor="middle" x="737" y="-335" font-family="Helvetica,sans-Serif" font-size="10.00"> </text>
<polyline fill="none" stroke="black" points="695.5,-328 778.5,-328 "/>
<text text-anchor="start" x="703.5" y="-316" font-family="Helvetica,sans-Serif" font-size="10.00">+ to_string()</text>
<text text-anchor="start" x="703.5" y="-305" font-family="Helvetica,sans-Serif" font-size="10.00">+ to_string()</text>
</a>
</g>
</g>
<!-- Node8&#45;&gt;Node1 -->
<g id="edge7" class="edge">
<title>Node8&#45;&gt;Node1</title>
<path fill="none" stroke="#404040" d="M703.69,-297.82C666.99,-261.28 606.95,-201.47 559.83,-154.55"/>
<polygon fill="none" stroke="#404040" points="559.7,-154.42 552.62,-153.02 551.19,-145.95 558.27,-147.35 559.7,-154.42"/>
<text text-anchor="middle" x="639.5" y="-200" font-family="Helvetica,sans-Serif" font-size="10.00"> #_type</text>
</g>
<!-- Node9 -->
<g id="node9" class="node">
<title>Node9</title>
<g id="a_node9"><a xlink:title=" ">
<polygon fill="white" stroke="#bfbfbf" points="575,-540.5 575,-597.5 641,-597.5 641,-540.5 575,-540.5"/>
<text text-anchor="middle" x="608" y="-585.5" font-family="Helvetica,sans-Serif" font-size="10.00">MoveType</text>
<polyline fill="none" stroke="#bfbfbf" points="575,-578.5 641,-578.5 "/>
<text text-anchor="middle" x="608" y="-566.5" font-family="Helvetica,sans-Serif" font-size="10.00"> </text>
<polyline fill="none" stroke="#bfbfbf" points="575,-559.5 641,-559.5 "/>
<text text-anchor="middle" x="608" y="-547.5" font-family="Helvetica,sans-Serif" font-size="10.00"> </text>
</a>
</g>
</g>
<!-- Node9&#45;&gt;Node8 -->
<g id="edge8" class="edge">
<title>Node9&#45;&gt;Node8</title>
<path fill="none" stroke="#404040" d="M603.52,-540.17C600.66,-514.24 599.78,-475.17 614,-445 629.4,-412.34 659.09,-384.86 685.45,-365.3"/>
<polygon fill="none" stroke="#404040" points="685.6,-365.19 688.14,-358.45 695.35,-358.2 692.8,-364.95 685.6,-365.19"/>
<text text-anchor="middle" x="650" y="-448" font-family="Helvetica,sans-Serif" font-size="10.00"> +MoveTypeID</text>
</g>
<!-- Node10 -->
<g id="node10" class="node">
<title>Node10</title>
<g id="a_node10"><a xlink:title=" ">
<polygon fill="white" stroke="#bfbfbf" points="659,-540.5 659,-597.5 723,-597.5 723,-540.5 659,-540.5"/>
<text text-anchor="middle" x="691" y="-585.5" font-family="Helvetica,sans-Serif" font-size="10.00">RuneType</text>
<polyline fill="none" stroke="#bfbfbf" points="659,-578.5 723,-578.5 "/>
<text text-anchor="middle" x="691" y="-566.5" font-family="Helvetica,sans-Serif" font-size="10.00"> </text>
<polyline fill="none" stroke="#bfbfbf" points="659,-559.5 723,-559.5 "/>
<text text-anchor="middle" x="691" y="-547.5" font-family="Helvetica,sans-Serif" font-size="10.00"> </text>
</a>
</g>
</g>
<!-- Node10&#45;&gt;Node8 -->
<g id="edge9" class="edge">
<title>Node10&#45;&gt;Node8</title>
<path fill="none" stroke="#404040" d="M688.31,-540.35C686.56,-515.22 685.62,-477.26 692,-445 696.57,-421.86 705.82,-397.43 714.75,-377.3"/>
<polygon fill="none" stroke="#404040" points="714.79,-377.21 713.65,-370.09 719.79,-366.3 720.93,-373.42 714.79,-377.21"/>
<text text-anchor="middle" x="727" y="-448" font-family="Helvetica,sans-Serif" font-size="10.00"> +RuneTypeID</text>
</g>
<!-- Node11 -->
<g id="node11" class="node">
<title>Node11</title>
<g id="a_node11"><a xlink:title=" ">
<polygon fill="white" stroke="#bfbfbf" points="741.5,-540.5 741.5,-597.5 830.5,-597.5 830.5,-540.5 741.5,-540.5"/>
<text text-anchor="middle" x="786" y="-585.5" font-family="Helvetica,sans-Serif" font-size="10.00">ArmorSizeType</text>
<polyline fill="none" stroke="#bfbfbf" points="741.5,-578.5 830.5,-578.5 "/>
<text text-anchor="middle" x="786" y="-566.5" font-family="Helvetica,sans-Serif" font-size="10.00"> </text>
<polyline fill="none" stroke="#bfbfbf" points="741.5,-559.5 830.5,-559.5 "/>
<text text-anchor="middle" x="786" y="-547.5" font-family="Helvetica,sans-Serif" font-size="10.00"> </text>
</a>
</g>
</g>
<!-- Node11&#45;&gt;Node8 -->
<g id="edge10" class="edge">
<title>Node11&#45;&gt;Node8</title>
<path fill="none" stroke="#404040" d="M780.78,-540.11C776.06,-515.15 768.81,-477.58 762,-445 757.39,-422.93 751.97,-398.49 747.35,-378.09"/>
<polygon fill="none" stroke="#404040" points="747.33,-377.98 742.1,-373.01 744.67,-366.27 749.9,-371.24 747.33,-377.98"/>
<text text-anchor="middle" x="811.5" y="-448" font-family="Helvetica,sans-Serif" font-size="10.00"> +ArmorSizeTypeID</text>
</g>
<!-- Node12 -->
<g id="node12" class="node">
<title>Node12</title>
<g id="a_node12"><a xlink:title=" ">
<polygon fill="white" stroke="#bfbfbf" points="851.5,-540.5 851.5,-597.5 952.5,-597.5 952.5,-540.5 851.5,-540.5"/>
<text text-anchor="middle" x="902" y="-585.5" font-family="Helvetica,sans-Serif" font-size="10.00">CompensateType</text>
<polyline fill="none" stroke="#bfbfbf" points="851.5,-578.5 952.5,-578.5 "/>
<text text-anchor="middle" x="902" y="-566.5" font-family="Helvetica,sans-Serif" font-size="10.00"> </text>
<polyline fill="none" stroke="#bfbfbf" points="851.5,-559.5 952.5,-559.5 "/>
<text text-anchor="middle" x="902" y="-547.5" font-family="Helvetica,sans-Serif" font-size="10.00"> </text>
</a>
</g>
</g>
<!-- Node12&#45;&gt;Node8 -->
<g id="edge11" class="edge">
<title>Node12&#45;&gt;Node8</title>
<path fill="none" stroke="#404040" d="M900.83,-540.43C898.12,-512.42 889.56,-469.73 863,-445 837.91,-421.64 815.19,-447.87 788,-427 771.73,-414.51 760.01,-395.31 751.94,-377.5"/>
<polygon fill="none" stroke="#404040" points="751.91,-377.44 745.9,-373.46 747.26,-366.38 753.27,-370.36 751.91,-377.44"/>
<text text-anchor="middle" x="925" y="-448" font-family="Helvetica,sans-Serif" font-size="10.00"> +CompensateTypeID</text>
</g>
<!-- Node13 -->
<g id="node13" class="node">
<title>Node13</title>
<g id="a_node13"><a xlink:title=" ">
<polygon fill="white" stroke="#bfbfbf" points="1003,-540.5 1003,-597.5 1059,-597.5 1059,-540.5 1003,-540.5"/>
<text text-anchor="middle" x="1031" y="-585.5" font-family="Helvetica,sans-Serif" font-size="10.00">TagType</text>
<polyline fill="none" stroke="#bfbfbf" points="1003,-578.5 1059,-578.5 "/>
<text text-anchor="middle" x="1031" y="-566.5" font-family="Helvetica,sans-Serif" font-size="10.00"> </text>
<polyline fill="none" stroke="#bfbfbf" points="1003,-559.5 1059,-559.5 "/>
<text text-anchor="middle" x="1031" y="-547.5" font-family="Helvetica,sans-Serif" font-size="10.00"> </text>
</a>
</g>
</g>
<!-- Node13&#45;&gt;Node8 -->
<g id="edge12" class="edge">
<title>Node13&#45;&gt;Node8</title>
<path fill="none" stroke="#404040" d="M1028.22,-540.24C1023.74,-511.44 1012.1,-467.51 982,-445 947.33,-419.07 824.14,-450.84 788,-427 770.54,-415.49 758.58,-395.91 750.65,-377.59"/>
<polygon fill="none" stroke="#404040" points="750.65,-377.59 744.71,-373.49 746.22,-366.43 752.15,-370.54 750.65,-377.59"/>
<text text-anchor="middle" x="1022.5" y="-448" font-family="Helvetica,sans-Serif" font-size="10.00"> +TagTypeID</text>
</g>
<!-- Node14 -->
<g id="node14" class="node">
<title>Node14</title>
<g id="a_node14"><a xlink:title=" ">
<polygon fill="white" stroke="#bfbfbf" points="1081,-540.5 1081,-597.5 1149,-597.5 1149,-540.5 1081,-540.5"/>
<text text-anchor="middle" x="1115" y="-585.5" font-family="Helvetica,sans-Serif" font-size="10.00">RobotType</text>
<polyline fill="none" stroke="#bfbfbf" points="1081,-578.5 1149,-578.5 "/>
<text text-anchor="middle" x="1115" y="-566.5" font-family="Helvetica,sans-Serif" font-size="10.00"> </text>
<polyline fill="none" stroke="#bfbfbf" points="1081,-559.5 1149,-559.5 "/>
<text text-anchor="middle" x="1115" y="-547.5" font-family="Helvetica,sans-Serif" font-size="10.00"> </text>
</a>
</g>
</g>
<!-- Node14&#45;&gt;Node8 -->
<g id="edge13" class="edge">
<title>Node14&#45;&gt;Node8</title>
<path fill="none" stroke="#404040" d="M1110.37,-540.48C1103.89,-511.43 1089.09,-466.88 1057,-445 1007.5,-411.25 838.43,-459.34 788,-427 770.27,-415.63 758.24,-395.87 750.34,-377.4"/>
<polygon fill="none" stroke="#404040" points="750.31,-377.33 744.4,-373.19 745.94,-366.15 751.85,-370.28 750.31,-377.33"/>
<text text-anchor="middle" x="1104.5" y="-448" font-family="Helvetica,sans-Serif" font-size="10.00"> +RobotTypeID</text>
</g>
<!-- Node15 -->
<g id="node15" class="node">
<title>Node15</title>
<g id="a_node15"><a xlink:title=" ">
<polygon fill="white" stroke="#bfbfbf" points="1167,-540.5 1167,-597.5 1273,-597.5 1273,-540.5 1167,-540.5"/>
<text text-anchor="middle" x="1220" y="-585.5" font-family="Helvetica,sans-Serif" font-size="10.00">TargetChangeType</text>
<polyline fill="none" stroke="#bfbfbf" points="1167,-578.5 1273,-578.5 "/>
<text text-anchor="middle" x="1220" y="-566.5" font-family="Helvetica,sans-Serif" font-size="10.00"> </text>
<polyline fill="none" stroke="#bfbfbf" points="1167,-559.5 1273,-559.5 "/>
<text text-anchor="middle" x="1220" y="-547.5" font-family="Helvetica,sans-Serif" font-size="10.00"> </text>
</a>
</g>
</g>
<!-- Node15&#45;&gt;Node8 -->
<g id="edge14" class="edge">
<title>Node15&#45;&gt;Node8</title>
<path fill="none" stroke="#404040" d="M1211.75,-540.42C1201.37,-511.1 1180.46,-466.1 1145,-445 1076.74,-404.38 855.22,-469.33 788,-427 770.18,-415.77 758.13,-396.04 750.25,-377.54"/>
<polygon fill="none" stroke="#404040" points="750.21,-377.45 744.31,-373.31 745.86,-366.26 751.77,-370.41 750.21,-377.45"/>
<text text-anchor="middle" x="1213" y="-448" font-family="Helvetica,sans-Serif" font-size="10.00"> +TargetChangeTypeID</text>
</g>
<!-- Node16 -->
<g id="node16" class="node">
<title>Node16</title>
<g id="a_node16"><a xlink:title=" ">
<polygon fill="white" stroke="#bfbfbf" points="797,-303.5 797,-360.5 835,-360.5 835,-303.5 797,-303.5"/>
<text text-anchor="middle" x="816" y="-348.5" font-family="Helvetica,sans-Serif" font-size="10.00">float</text>
<polyline fill="none" stroke="#bfbfbf" points="797,-341.5 835,-341.5 "/>
<text text-anchor="middle" x="816" y="-329.5" font-family="Helvetica,sans-Serif" font-size="10.00"> </text>
<polyline fill="none" stroke="#bfbfbf" points="797,-322.5 835,-322.5 "/>
<text text-anchor="middle" x="816" y="-310.5" font-family="Helvetica,sans-Serif" font-size="10.00"> </text>
</a>
</g>
</g>
<!-- Node16&#45;&gt;Node1 -->
<g id="edge15" class="edge">
<title>Node16&#45;&gt;Node1</title>
<path fill="none" stroke="#404040" d="M813.56,-303.16C810.49,-282.85 803.58,-255.71 788,-237 729.63,-166.9 630.71,-125.6 562.96,-104.15"/>
<polygon fill="none" stroke="#404040" points="562.58,-104.03 555.67,-106.09 551.11,-100.5 558.03,-98.44 562.58,-104.03"/>
<text text-anchor="middle" x="791.5" y="-211" font-family="Helvetica,sans-Serif" font-size="10.00"> #_angle</text>
<text text-anchor="middle" x="791.5" y="-200" font-family="Helvetica,sans-Serif" font-size="10.00">#_height</text>
<text text-anchor="middle" x="791.5" y="-189" font-family="Helvetica,sans-Serif" font-size="10.00">#_width</text>
</g>
<!-- Node17 -->
<g id="node17" class="node">
<title>Node17</title>
<g id="a_node17"><a xlink:title=" ">
<polygon fill="white" stroke="#bfbfbf" points="854,-303.5 854,-360.5 910,-360.5 910,-303.5 854,-303.5"/>
<text text-anchor="middle" x="882" y="-348.5" font-family="Helvetica,sans-Serif" font-size="10.00">uint32_t</text>
<polyline fill="none" stroke="#bfbfbf" points="854,-341.5 910,-341.5 "/>
<text text-anchor="middle" x="882" y="-329.5" font-family="Helvetica,sans-Serif" font-size="10.00"> </text>
<polyline fill="none" stroke="#bfbfbf" points="854,-322.5 910,-322.5 "/>
<text text-anchor="middle" x="882" y="-310.5" font-family="Helvetica,sans-Serif" font-size="10.00"> </text>
</a>
</g>
</g>
<!-- Node17&#45;&gt;Node1 -->
<g id="edge17" class="edge">
<title>Node17&#45;&gt;Node1</title>
<path fill="none" stroke="#404040" d="M877.37,-303.38C870.38,-270.48 853.91,-216.19 818,-186 745.14,-124.75 635.48,-100.61 563.32,-91.12"/>
<polygon fill="none" stroke="#404040" points="563.1,-91.09 556.65,-94.32 551.19,-89.62 557.64,-86.38 563.1,-91.09"/>
<text text-anchor="middle" x="883" y="-200" font-family="Helvetica,sans-Serif" font-size="10.00"> #_vanish_num</text>
</g>
<!-- Node18 -->
<g id="node18" class="node">
<title>Node18</title>
<g id="a_node18"><a xlink:title=" ">
<polygon fill="white" stroke="#bfbfbf" points="431,-298 431,-366 549,-366 549,-298 431,-298"/>
<text text-anchor="start" x="439" y="-354" font-family="Helvetica,sans-Serif" font-size="10.00">std::deque&lt; combo::</text>
<text text-anchor="middle" x="490" y="-343" font-family="Helvetica,sans-Serif" font-size="10.00">ptr &gt;</text>
<polyline fill="none" stroke="#bfbfbf" points="431,-336 549,-336 "/>
<text text-anchor="middle" x="490" y="-324" font-family="Helvetica,sans-Serif" font-size="10.00"> </text>
<polyline fill="none" stroke="#bfbfbf" points="431,-317 549,-317 "/>
<text text-anchor="middle" x="490" y="-305" font-family="Helvetica,sans-Serif" font-size="10.00"> </text>
</a>
</g>
</g>
<!-- Node18&#45;&gt;Node1 -->
<g id="edge18" class="edge">
<title>Node18&#45;&gt;Node1</title>
<path fill="none" stroke="#404040" d="M490,-297.82C490,-267.56 490,-221.36 490,-179.72"/>
<polygon fill="none" stroke="#404040" points="490,-179.55 486,-173.55 490,-167.55 494,-173.55 490,-179.55"/>
<text text-anchor="middle" x="532.5" y="-200" font-family="Helvetica,sans-Serif" font-size="10.00"> #_combo_deque</text>
</g>
<!-- Node19&#45;&gt;Node18 -->
<g id="edge19" class="edge">
<title>Node19&#45;&gt;Node18</title>
<path fill="none" stroke="#404040" d="M393.86,-540.3C403.03,-515.14 417.45,-477.16 432,-445 442.28,-422.28 454.9,-397.6 465.73,-377.21"/>
<polygon fill="none" stroke="#404040" points="465.88,-376.94 465.19,-369.76 471.54,-366.36 472.24,-373.54 465.88,-376.94"/>
<text text-anchor="middle" x="461" y="-448" font-family="Helvetica,sans-Serif" font-size="10.00"> +elements</text>
</g>
<!-- Node20&#45;&gt;Node18 -->
<g id="edge21" class="edge">
<title>Node20&#45;&gt;Node18</title>
<path fill="none" stroke="orange" d="M503.49,-530.33C500.52,-508.64 497.05,-480.84 495,-456 492.49,-425.65 491.23,-390.98 490.6,-366.2"/>
<polygon fill="orange" stroke="orange" points="500.06,-531.03 504.9,-540.45 506.99,-530.06 500.06,-531.03"/>
<text text-anchor="middle" x="534.5" y="-448" font-family="Helvetica,sans-Serif" font-size="10.00"> &lt; combo::ptr &gt;</text>
</g>
</g>
</svg>
