<?xml version="1.0" encoding="UTF-8" standalone="no"?>
<!DOCTYPE svg PUBLIC "-//W3C//DTD SVG 1.1//EN"
 "http://www.w3.org/Graphics/SVG/1.1/DTD/svg11.dtd">
<!-- Generated by graphviz version 2.43.0 (0)
 -->
<!-- Title: rm::ua::Subscriber Pages: 1 -->
<svg width="162pt" height="410pt"
 viewBox="0.00 0.00 161.50 410.00" xmlns="http://www.w3.org/2000/svg" xmlns:xlink="http://www.w3.org/1999/xlink">
<g id="graph0" class="graph" transform="scale(1 1) rotate(0) translate(4 406)">
<title>rm::ua::Subscriber</title>
<!-- Node1 -->
<g id="Node000001" class="node">
<title>Node1</title>
<g id="a_Node000001"><a xlink:title="OPC UA 订阅者">
<polygon fill="#999999" stroke="transparent" points="119,-64 28,-64 28,0 119,0 119,-64"/>
<text text-anchor="start" x="33.5" y="-52" font-family="Helvetica,sans-Serif" font-size="10.00">rm::ua::Subscriber</text>
<text text-anchor="start" x="72" y="-37" font-family="Helvetica,sans-Serif" font-size="10.00"> </text>
<text text-anchor="start" x="37" y="-22" font-family="Helvetica,sans-Serif" font-size="10.00">+</text>
<text text-anchor="start" x="52.5" y="-22" font-family="Helvetica,sans-Serif" font-size="10.00">Subscriber()</text>
<text text-anchor="start" x="37" y="-7" font-family="Helvetica,sans-Serif" font-size="10.00">+</text>
<text text-anchor="start" x="52.5" y="-7" font-family="Helvetica,sans-Serif" font-size="10.00">subscribe()</text>
<polygon fill="#666666" stroke="#666666" points="28.5,-47 28.5,-47 119.5,-47 119.5,-47 28.5,-47"/>
<polygon fill="#666666" stroke="#666666" points="28.5,-32 28.5,-32 119.5,-32 119.5,-32 28.5,-32"/>
<polygon fill="none" stroke="#666666" points="28,0 28,-64 119,-64 119,0 28,0"/>
</a>
</g>
</g>
<!-- Node2 -->
<g id="Node000002" class="node">
<title>Node2</title>
<g id="a_Node000002"><a xlink:href="../../dc/d95/classrm_1_1ua_1_1Server.html" target="_top" xlink:title="OPC UA 服务器">
<polygon fill="white" stroke="transparent" points="133.5,-300 13.5,-300 13.5,-101 133.5,-101 133.5,-300"/>
<text text-anchor="start" x="42" y="-287.5" font-family="Helvetica,sans-Serif" font-size="10.00">rm::ua::Server</text>
<text text-anchor="start" x="71.5" y="-272.5" font-family="Helvetica,sans-Serif" font-size="10.00"> </text>
<text text-anchor="start" x="17.5" y="-257.5" font-family="Helvetica,sans-Serif" font-size="10.00">+</text>
<text text-anchor="start" x="28.5" y="-257.5" font-family="Helvetica,sans-Serif" font-size="10.00">Server()</text>
<text text-anchor="start" x="17.5" y="-242.5" font-family="Helvetica,sans-Serif" font-size="10.00">+</text>
<text text-anchor="start" x="28.5" y="-242.5" font-family="Helvetica,sans-Serif" font-size="10.00">Server()</text>
<text text-anchor="start" x="17.5" y="-227.5" font-family="Helvetica,sans-Serif" font-size="10.00">+</text>
<text text-anchor="start" x="28.5" y="-227.5" font-family="Helvetica,sans-Serif" font-size="10.00">operator ServerView()</text>
<text text-anchor="start" x="17.5" y="-212.5" font-family="Helvetica,sans-Serif" font-size="10.00">+</text>
<text text-anchor="start" x="28.5" y="-212.5" font-family="Helvetica,sans-Serif" font-size="10.00">spin()</text>
<text text-anchor="start" x="17.5" y="-197.5" font-family="Helvetica,sans-Serif" font-size="10.00">+</text>
<text text-anchor="start" x="28.5" y="-197.5" font-family="Helvetica,sans-Serif" font-size="10.00">spinOnce()</text>
<text text-anchor="start" x="17.5" y="-182.5" font-family="Helvetica,sans-Serif" font-size="10.00">+</text>
<text text-anchor="start" x="28.5" y="-182.5" font-family="Helvetica,sans-Serif" font-size="10.00">shutdown()</text>
<text text-anchor="start" x="17.5" y="-167.5" font-family="Helvetica,sans-Serif" font-size="10.00">+</text>
<text text-anchor="start" x="28.5" y="-167.5" font-family="Helvetica,sans-Serif" font-size="10.00">~Server()</text>
<text text-anchor="start" x="17.5" y="-152.5" font-family="Helvetica,sans-Serif" font-size="10.00">+</text>
<text text-anchor="start" x="28.5" y="-152.5" font-family="Helvetica,sans-Serif" font-size="10.00">node()</text>
<text text-anchor="start" x="17.5" y="-137.5" font-family="Helvetica,sans-Serif" font-size="10.00">+</text>
<text text-anchor="start" x="28.5" y="-137.5" font-family="Helvetica,sans-Serif" font-size="10.00">find()</text>
<text text-anchor="start" x="17.5" y="-122.5" font-family="Helvetica,sans-Serif" font-size="10.00">+</text>
<text text-anchor="start" x="28.5" y="-122.5" font-family="Helvetica,sans-Serif" font-size="10.00">addVariableTypeNode()</text>
<text text-anchor="start" x="28.5" y="-107.5" font-family="Helvetica,sans-Serif" font-size="10.00">和 12 更多...</text>
<polygon fill="#666666" stroke="#666666" points="13.5,-282.5 13.5,-282.5 133.5,-282.5 133.5,-282.5 13.5,-282.5"/>
<polygon fill="#666666" stroke="#666666" points="13.5,-267.5 13.5,-267.5 133.5,-267.5 133.5,-267.5 13.5,-267.5"/>
<polygon fill="none" stroke="#666666" points="13.5,-101 13.5,-300 133.5,-300 133.5,-101 13.5,-101"/>
</a>
</g>
</g>
<!-- Node2&#45;&gt;Node1 -->
<g id="edge1_Node000001_Node000002" class="edge">
<title>Node2&#45;&gt;Node1</title>
<g id="a_edge1_Node000001_Node000002"><a xlink:title=" ">
<path fill="none" stroke="#63b8ff" d="M73.5,-90.67C73.5,-81.17 73.5,-72.17 73.5,-64.22"/>
<polygon fill="none" stroke="#63b8ff" points="70,-90.72 73.5,-100.72 77,-90.72 70,-90.72"/>
</a>
</g>
</g>
<!-- Node3 -->
<g id="Node000003" class="node">
<title>Node3</title>
<g id="a_Node000003"><a xlink:title=" ">
<polygon fill="white" stroke="transparent" points="65,-402 0,-402 0,-353 65,-353 65,-402"/>
<text text-anchor="start" x="5.5" y="-389.5" font-family="Helvetica,sans-Serif" font-size="10.00">UA_Server *</text>
<text text-anchor="start" x="31" y="-374.5" font-family="Helvetica,sans-Serif" font-size="10.00"> </text>
<text text-anchor="start" x="31" y="-359.5" font-family="Helvetica,sans-Serif" font-size="10.00"> </text>
<polygon fill="#666666" stroke="#666666" points="0.5,-384.5 0.5,-384.5 65.5,-384.5 65.5,-384.5 0.5,-384.5"/>
<polygon fill="#666666" stroke="#666666" points="0.5,-369.5 0.5,-369.5 65.5,-369.5 65.5,-369.5 0.5,-369.5"/>
<polygon fill="none" stroke="#666666" points="0,-353 0,-402 65,-402 65,-353 0,-353"/>
</a>
</g>
</g>
<!-- Node3&#45;&gt;Node2 -->
<g id="edge2_Node000002_Node000003" class="edge">
<title>Node3&#45;&gt;Node2</title>
<g id="a_edge2_Node000002_Node000003"><a xlink:title=" ">
<path fill="none" stroke="#63b8ff" d="M38.03,-352.9C40.66,-341.67 44.01,-327.36 47.6,-312.03"/>
<polygon fill="none" stroke="#63b8ff" points="47.65,-311.83 45.12,-305.08 50.39,-300.15 52.91,-306.9 47.65,-311.83"/>
</a>
</g>
<text text-anchor="start" x="49.5" y="-323.5" font-family="Helvetica,sans-Serif" font-size="10.00" fill="grey">#_server</text>
</g>
<!-- Node4 -->
<g id="Node000004" class="node">
<title>Node4</title>
<g id="a_Node000004"><a xlink:title=" ">
<polygon fill="white" stroke="transparent" points="146,-402 83,-402 83,-353 146,-353 146,-402"/>
<text text-anchor="start" x="88.5" y="-389.5" font-family="Helvetica,sans-Serif" font-size="10.00">atomic_bool</text>
<text text-anchor="start" x="113" y="-374.5" font-family="Helvetica,sans-Serif" font-size="10.00"> </text>
<text text-anchor="start" x="113" y="-359.5" font-family="Helvetica,sans-Serif" font-size="10.00"> </text>
<polygon fill="#666666" stroke="#666666" points="83.5,-384.5 83.5,-384.5 146.5,-384.5 146.5,-384.5 83.5,-384.5"/>
<polygon fill="#666666" stroke="#666666" points="83.5,-369.5 83.5,-369.5 146.5,-369.5 146.5,-369.5 83.5,-369.5"/>
<polygon fill="none" stroke="#666666" points="83,-353 83,-402 146,-402 146,-353 83,-353"/>
</a>
</g>
</g>
<!-- Node4&#45;&gt;Node2 -->
<g id="edge3_Node000002_Node000004" class="edge">
<title>Node4&#45;&gt;Node2</title>
<g id="a_edge3_Node000002_Node000004"><a xlink:title=" ">
<path fill="none" stroke="#63b8ff" d="M108.97,-352.9C106.34,-341.67 102.99,-327.36 99.4,-312.03"/>
<polygon fill="none" stroke="#63b8ff" points="99.35,-311.83 94.09,-306.9 96.61,-300.15 101.88,-305.08 99.35,-311.83"/>
</a>
</g>
<text text-anchor="start" x="108" y="-323.5" font-family="Helvetica,sans-Serif" font-size="10.00" fill="grey">#_running</text>
</g>
</g>
</svg>
