<?xml version="1.0" encoding="UTF-8" standalone="no"?>
<!DOCTYPE svg PUBLIC "-//W3C//DTD SVG 1.1//EN"
 "http://www.w3.org/Graphics/SVG/1.1/DTD/svg11.dtd">
<!-- Generated by graphviz version 2.43.0 (0)
 -->
<!-- Title: rmvl/algorithm/kalman.hpp Pages: 1 -->
<svg width="734pt" height="159pt"
 viewBox="0.00 0.00 734.00 159.00" xmlns="http://www.w3.org/2000/svg" xmlns:xlink="http://www.w3.org/1999/xlink">
<g id="graph0" class="graph" transform="scale(1 1) rotate(0) translate(4 155)">
<title>rmvl/algorithm/kalman.hpp</title>
<!-- Node1 -->
<g id="Node000001" class="node">
<title>Node1</title>
<g id="a_Node000001"><a xlink:title="包含轻量级 cv::Matx 的卡尔曼滤波模块">
<polygon fill="#999999" stroke="#666666" points="432.5,-151 283.5,-151 283.5,-132 432.5,-132 432.5,-151"/>
<text text-anchor="middle" x="358" y="-139" font-family="Helvetica,sans-Serif" font-size="10.00">rmvl/algorithm/kalman.hpp</text>
</a>
</g>
</g>
<!-- Node2 -->
<g id="Node000002" class="node">
<title>Node2</title>
<g id="a_Node000002"><a xlink:href="../../d1/d11/rmvl_2algorithm_8hpp.html" target="_top" xlink:title="数学、算法模块头文件">
<polygon fill="white" stroke="#666666" points="110,-90.5 0,-90.5 0,-71.5 110,-71.5 110,-90.5"/>
<text text-anchor="middle" x="55" y="-78.5" font-family="Helvetica,sans-Serif" font-size="10.00">rmvl/algorithm.hpp</text>
</a>
</g>
</g>
<!-- Node1&#45;&gt;Node2 -->
<g id="edge1_Node000001_Node000002" class="edge">
<title>Node1&#45;&gt;Node2</title>
<g id="a_edge1_Node000001_Node000002"><a xlink:title=" ">
<path fill="none" stroke="#63b8ff" d="M299.86,-130.2C251.4,-121.49 180.6,-108.47 119,-96 110.64,-94.31 101.68,-92.41 93.2,-90.56"/>
<polygon fill="#63b8ff" stroke="#63b8ff" points="299.39,-133.67 309.85,-131.99 300.62,-126.78 299.39,-133.67"/>
</a>
</g>
</g>
<!-- Node3 -->
<g id="Node000003" class="node">
<title>Node3</title>
<g id="a_Node000003"><a xlink:href="../../d3/df0/group_2gyro__group_8h.html" target="_top" xlink:title="装甲序列组头文件">
<polygon fill="white" stroke="#666666" points="265.5,-90.5 128.5,-90.5 128.5,-71.5 265.5,-71.5 265.5,-90.5"/>
<text text-anchor="middle" x="197" y="-78.5" font-family="Helvetica,sans-Serif" font-size="10.00">rmvl/group/gyro_group.h</text>
</a>
</g>
</g>
<!-- Node1&#45;&gt;Node3 -->
<g id="edge2_Node000001_Node000003" class="edge">
<title>Node1&#45;&gt;Node3</title>
<g id="a_edge2_Node000001_Node000003"><a xlink:title=" ">
<path fill="none" stroke="#63b8ff" d="M325.04,-128.52C293.91,-117.21 248,-100.53 220.44,-90.52"/>
<polygon fill="#63b8ff" stroke="#63b8ff" points="324,-131.87 334.59,-131.99 326.39,-125.29 324,-131.87"/>
</a>
</g>
</g>
<!-- Node4 -->
<g id="Node000004" class="node">
<title>Node4</title>
<g id="a_Node000004"><a xlink:href="../../d7/de6/tracker_2gyro__tracker_8h.html" target="_top" xlink:title="装甲板追踪器头文件">
<polygon fill="white" stroke="#666666" points="432,-90.5 284,-90.5 284,-71.5 432,-71.5 432,-90.5"/>
<text text-anchor="middle" x="358" y="-78.5" font-family="Helvetica,sans-Serif" font-size="10.00">rmvl/tracker/gyro_tracker.h</text>
</a>
</g>
</g>
<!-- Node1&#45;&gt;Node4 -->
<g id="edge3_Node000001_Node000004" class="edge">
<title>Node1&#45;&gt;Node4</title>
<g id="a_edge3_Node000001_Node000004"><a xlink:title=" ">
<path fill="none" stroke="#63b8ff" d="M358,-121.66C358,-111.24 358,-98.8 358,-90.67"/>
<polygon fill="#63b8ff" stroke="#63b8ff" points="354.5,-121.87 358,-131.87 361.5,-121.87 354.5,-121.87"/>
</a>
</g>
</g>
<!-- Node6 -->
<g id="Node000006" class="node">
<title>Node6</title>
<g id="a_Node000006"><a xlink:href="../../d5/dea/tracker_2planar__tracker_8h.html" target="_top" xlink:title="平面目标追踪器头文件">
<polygon fill="white" stroke="#666666" points="560,-96 450,-96 450,-66 560,-66 560,-96"/>
<text text-anchor="start" x="458" y="-84" font-family="Helvetica,sans-Serif" font-size="10.00">rmvl/tracker/planar</text>
<text text-anchor="middle" x="505" y="-73" font-family="Helvetica,sans-Serif" font-size="10.00">_tracker.h</text>
</a>
</g>
</g>
<!-- Node1&#45;&gt;Node6 -->
<g id="edge5_Node000001_Node000006" class="edge">
<title>Node1&#45;&gt;Node6</title>
<g id="a_edge5_Node000001_Node000006"><a xlink:title=" ">
<path fill="none" stroke="#63b8ff" d="M388.89,-128.21C412.48,-118.82 445.03,-105.87 469.66,-96.06"/>
<polygon fill="#63b8ff" stroke="#63b8ff" points="387.37,-125.04 379.38,-131.99 389.96,-131.55 387.37,-125.04"/>
</a>
</g>
</g>
<!-- Node8 -->
<g id="Node000008" class="node">
<title>Node8</title>
<g id="a_Node000008"><a xlink:href="../../dd/d0a/tracker_2rune__tracker_8h.html" target="_top" xlink:title="神符追踪器头文件">
<polygon fill="white" stroke="#666666" points="726,-90.5 578,-90.5 578,-71.5 726,-71.5 726,-90.5"/>
<text text-anchor="middle" x="652" y="-78.5" font-family="Helvetica,sans-Serif" font-size="10.00">rmvl/tracker/rune_tracker.h</text>
</a>
</g>
</g>
<!-- Node1&#45;&gt;Node8 -->
<g id="edge7_Node000001_Node000008" class="edge">
<title>Node1&#45;&gt;Node8</title>
<g id="a_edge7_Node000001_Node000008"><a xlink:title=" ">
<path fill="none" stroke="#63b8ff" d="M410.6,-130.03C467.34,-118.74 556.59,-100.98 609.2,-90.52"/>
<polygon fill="#63b8ff" stroke="#63b8ff" points="409.87,-126.61 400.75,-131.99 411.24,-133.47 409.87,-126.61"/>
</a>
</g>
</g>
<!-- Node5 -->
<g id="Node000005" class="node">
<title>Node5</title>
<g id="a_Node000005"><a xlink:href="../../d1/d6b/detector_2gyro__detector_8h.html" target="_top" xlink:title="装甲板识别派生类头文件">
<polygon fill="white" stroke="#666666" points="411.5,-30 304.5,-30 304.5,0 411.5,0 411.5,-30"/>
<text text-anchor="start" x="312.5" y="-18" font-family="Helvetica,sans-Serif" font-size="10.00">rmvl/detector/gyro</text>
<text text-anchor="middle" x="358" y="-7" font-family="Helvetica,sans-Serif" font-size="10.00">_detector.h</text>
</a>
</g>
</g>
<!-- Node4&#45;&gt;Node5 -->
<g id="edge4_Node000004_Node000005" class="edge">
<title>Node4&#45;&gt;Node5</title>
<g id="a_edge4_Node000004_Node000005"><a xlink:title=" ">
<path fill="none" stroke="#63b8ff" d="M358,-61.35C358,-51.47 358,-39.51 358,-30.36"/>
<polygon fill="#63b8ff" stroke="#63b8ff" points="354.5,-61.37 358,-71.37 361.5,-61.37 354.5,-61.37"/>
</a>
</g>
</g>
<!-- Node7 -->
<g id="Node000007" class="node">
<title>Node7</title>
<g id="a_Node000007"><a xlink:href="../../da/d95/detector_2armor__detector_8h.html" target="_top" xlink:title="装甲板识别派生类头文件">
<polygon fill="white" stroke="#666666" points="562.5,-30 447.5,-30 447.5,0 562.5,0 562.5,-30"/>
<text text-anchor="start" x="455.5" y="-18" font-family="Helvetica,sans-Serif" font-size="10.00">rmvl/detector/armor</text>
<text text-anchor="middle" x="505" y="-7" font-family="Helvetica,sans-Serif" font-size="10.00">_detector.h</text>
</a>
</g>
</g>
<!-- Node6&#45;&gt;Node7 -->
<g id="edge6_Node000006_Node000007" class="edge">
<title>Node6&#45;&gt;Node7</title>
<g id="a_edge6_Node000006_Node000007"><a xlink:title=" ">
<path fill="none" stroke="#63b8ff" d="M505,-55.54C505,-46.96 505,-37.61 505,-30.16"/>
<polygon fill="#63b8ff" stroke="#63b8ff" points="501.5,-55.8 505,-65.8 508.5,-55.8 501.5,-55.8"/>
</a>
</g>
</g>
<!-- Node9 -->
<g id="Node000009" class="node">
<title>Node9</title>
<g id="a_Node000009"><a xlink:href="../../db/dcc/detector_2rune__detector_8h.html" target="_top" xlink:title="神符识别派生类头文件">
<polygon fill="white" stroke="#666666" points="705.5,-30 598.5,-30 598.5,0 705.5,0 705.5,-30"/>
<text text-anchor="start" x="606.5" y="-18" font-family="Helvetica,sans-Serif" font-size="10.00">rmvl/detector/rune</text>
<text text-anchor="middle" x="652" y="-7" font-family="Helvetica,sans-Serif" font-size="10.00">_detector.h</text>
</a>
</g>
</g>
<!-- Node8&#45;&gt;Node9 -->
<g id="edge8_Node000008_Node000009" class="edge">
<title>Node8&#45;&gt;Node9</title>
<g id="a_edge8_Node000008_Node000009"><a xlink:title=" ">
<path fill="none" stroke="#63b8ff" d="M652,-61.35C652,-51.47 652,-39.51 652,-30.36"/>
<polygon fill="#63b8ff" stroke="#63b8ff" points="648.5,-61.37 652,-71.37 655.5,-61.37 648.5,-61.37"/>
</a>
</g>
</g>
</g>
</svg>
