<?xml version="1.0" encoding="UTF-8" standalone="no"?>
<!DOCTYPE svg PUBLIC "-//W3C//DTD SVG 1.1//EN"
 "http://www.w3.org/Graphics/SVG/1.1/DTD/svg11.dtd">
<!-- Generated by graphviz version 2.43.0 (0)
 -->
<!-- Title: rm::DgramSocket Pages: 1 -->
<svg width="103pt" height="228pt"
 viewBox="0.00 0.00 103.00 228.00" xmlns="http://www.w3.org/2000/svg" xmlns:xlink="http://www.w3.org/1999/xlink">

<svg id="main" version="1.1" xmlns="http://www.w3.org/2000/svg" xmlns:xlink="http://www.w3.org/1999/xlink" xml:space="preserve">

<style type="text/css"><![CDATA[
.node, .edge {opacity: 0.7;}
.node.selected, .edge.selected {opacity: 1;}
.edge:hover path { stroke: red; }
.edge:hover polygon { stroke: red; fill: red; }
]]></style>
<script type="application/ecmascript" xlink:href="../../svg.min.js"/>
<svg id="graph" class="graph">
<g id="graph0" class="graph" transform="scale(1 1) rotate(0) translate(4 224)">
<title>rm::DgramSocket</title>
<!-- Node1 -->
<g id="Node000001" class="node">
<title>Node1</title>
<g id="a_Node000001"><a xlink:title="由 rm::Listener 或 rm::Sender 建立的数据报式 Socket 会话">
<polygon fill="#999999" stroke="transparent" points="95,-124 0,-124 0,0 95,0 95,-124"/>
<text text-anchor="start" x="5.5" y="-112" font-family="Helvetica,sans-Serif" font-size="10.00">rm::DgramSocket</text>
<text text-anchor="start" x="46" y="-97" font-family="Helvetica,sans-Serif" font-size="10.00"> </text>
<text text-anchor="start" x="9" y="-82" font-family="Helvetica,sans-Serif" font-size="10.00">+</text>
<text text-anchor="start" x="26.5" y="-82" font-family="Helvetica,sans-Serif" font-size="10.00">invalid()</text>
<text text-anchor="start" x="9" y="-67" font-family="Helvetica,sans-Serif" font-size="10.00">+</text>
<text text-anchor="start" x="26.5" y="-67" font-family="Helvetica,sans-Serif" font-size="10.00">setOption()</text>
<text text-anchor="start" x="9" y="-52" font-family="Helvetica,sans-Serif" font-size="10.00">+</text>
<text text-anchor="start" x="26.5" y="-52" font-family="Helvetica,sans-Serif" font-size="10.00">endpoint()</text>
<text text-anchor="start" x="9" y="-37" font-family="Helvetica,sans-Serif" font-size="10.00">+</text>
<text text-anchor="start" x="26.5" y="-37" font-family="Helvetica,sans-Serif" font-size="10.00">read()</text>
<text text-anchor="start" x="9" y="-22" font-family="Helvetica,sans-Serif" font-size="10.00">+</text>
<text text-anchor="start" x="26.5" y="-22" font-family="Helvetica,sans-Serif" font-size="10.00">write()</text>
<text text-anchor="start" x="9" y="-7" font-family="Helvetica,sans-Serif" font-size="10.00">+</text>
<text text-anchor="start" x="26.5" y="-7" font-family="Helvetica,sans-Serif" font-size="10.00">write()</text>
<polygon fill="#666666" stroke="#666666" points="0.5,-107 0.5,-107 95.5,-107 95.5,-107 0.5,-107"/>
<polygon fill="#666666" stroke="#666666" points="0.5,-92 0.5,-92 95.5,-92 95.5,-92 0.5,-92"/>
<polygon fill="none" stroke="#666666" points="0,0 0,-124 95,-124 95,0 0,0"/>
</a>
</g>
</g>
<!-- Node2 -->
<g id="Node000002" class="node">
<title>Node2</title>
<g id="a_Node000002"><a xlink:title=" ">
<polygon fill="white" stroke="transparent" points="59,-220 36,-220 36,-171 59,-171 59,-220"/>
<text text-anchor="start" x="41.5" y="-207.5" font-family="Helvetica,sans-Serif" font-size="10.00">int</text>
<text text-anchor="start" x="46" y="-192.5" font-family="Helvetica,sans-Serif" font-size="10.00"> </text>
<text text-anchor="start" x="46" y="-177.5" font-family="Helvetica,sans-Serif" font-size="10.00"> </text>
<polygon fill="#666666" stroke="#666666" points="36.5,-202.5 36.5,-202.5 59.5,-202.5 59.5,-202.5 36.5,-202.5"/>
<polygon fill="#666666" stroke="#666666" points="36.5,-187.5 36.5,-187.5 59.5,-187.5 59.5,-187.5 36.5,-187.5"/>
<polygon fill="none" stroke="#666666" points="36,-171 36,-220 59,-220 59,-171 36,-171"/>
</a>
</g>
</g>
<!-- Node2&#45;&gt;Node1 -->
<g id="edge1_Node000001_Node000002" class="edge">
<title>Node2&#45;&gt;Node1</title>
<g id="a_edge1_Node000001_Node000002"><a xlink:title=" ">
<path fill="none" stroke="#63b8ff" d="M47.5,-170.99C47.5,-161.03 47.5,-148.82 47.5,-136.24"/>
<polygon fill="none" stroke="#63b8ff" points="47.5,-136.12 43.5,-130.12 47.5,-124.12 51.5,-130.12 47.5,-136.12"/>
</a>
</g>
<text text-anchor="middle" x="61" y="-145" font-family="Helvetica,sans-Serif" font-size="10.00" fill="grey"> #_fd</text>
</g>
</g>
</svg>
</svg>

<style type='text/css'>
<![CDATA[
[data-mouse-over-selected='false'] { opacity: 0.7; }
[data-mouse-over-selected='true']  { opacity: 1.0; }
]]>
</style>
<script type="application/ecmascript"><![CDATA[
document.addEventListener('DOMContentLoaded', (event) => {
  highlightEdges();
  highlightAdjacentNodes();
});
]]></script>
</svg>
