<?xml version="1.0" encoding="UTF-8" standalone="no"?>
<!DOCTYPE svg PUBLIC "-//W3C//DTD SVG 1.1//EN"
 "http://www.w3.org/Graphics/SVG/1.1/DTD/svg11.dtd">
<!-- Generated by graphviz version 2.43.0 (0)
 -->
<!-- Title: rmvl/opcua/method.hpp Pages: 1 -->
<svg width="441pt" height="140pt"
 viewBox="0.00 0.00 441.00 140.00" xmlns="http://www.w3.org/2000/svg" xmlns:xlink="http://www.w3.org/1999/xlink">
<g id="graph0" class="graph" transform="scale(1 1) rotate(0) translate(4 136)">
<title>rmvl/opcua/method.hpp</title>
<polygon fill="white" stroke="transparent" points="-4,4 -4,-136 437,-136 437,4 -4,4"/>
<!-- Node1 -->
<g id="node1" class="node">
<title>Node1</title>
<g id="a_node1"><a xlink:title="方法节点">
<polygon fill="#bfbfbf" stroke="black" points="26.5,-112.5 26.5,-131.5 159.5,-131.5 159.5,-112.5 26.5,-112.5"/>
<text text-anchor="middle" x="93" y="-119.5" font-family="Helvetica,sans-Serif" font-size="10.00">rmvl/opcua/method.hpp</text>
</a>
</g>
</g>
<!-- Node2 -->
<g id="node2" class="node">
<title>Node2</title>
<g id="a_node2"><a xlink:title=" ">
<polygon fill="white" stroke="#bfbfbf" points="0,-0.5 0,-19.5 44,-19.5 44,-0.5 0,-0.5"/>
<text text-anchor="middle" x="22" y="-7.5" font-family="Helvetica,sans-Serif" font-size="10.00">string</text>
</a>
</g>
</g>
<!-- Node1&#45;&gt;Node2 -->
<g id="edge1" class="edge">
<title>Node1&#45;&gt;Node2</title>
<path fill="none" stroke="midnightblue" d="M72.67,-112.37C57.94,-104.98 38.93,-92.85 29,-76 20.81,-62.1 19.55,-43.59 20.06,-29.88"/>
<polygon fill="midnightblue" stroke="midnightblue" points="23.57,-29.92 20.79,-19.69 16.58,-29.42 23.57,-29.92"/>
</g>
<!-- Node3 -->
<g id="node3" class="node">
<title>Node3</title>
<g id="a_node3"><a xlink:title=" ">
<polygon fill="white" stroke="#bfbfbf" points="38.5,-56.5 38.5,-75.5 83.5,-75.5 83.5,-56.5 38.5,-56.5"/>
<text text-anchor="middle" x="61" y="-63.5" font-family="Helvetica,sans-Serif" font-size="10.00">utility</text>
</a>
</g>
</g>
<!-- Node1&#45;&gt;Node3 -->
<g id="edge2" class="edge">
<title>Node1&#45;&gt;Node3</title>
<path fill="none" stroke="midnightblue" d="M87.72,-112.08C83.29,-104.61 76.84,-93.72 71.38,-84.52"/>
<polygon fill="midnightblue" stroke="midnightblue" points="74.29,-82.57 66.19,-75.75 68.27,-86.14 74.29,-82.57"/>
</g>
<!-- Node4 -->
<g id="node4" class="node">
<title>Node4</title>
<g id="a_node4"><a xlink:title=" ">
<polygon fill="white" stroke="#bfbfbf" points="101.5,-56.5 101.5,-75.5 148.5,-75.5 148.5,-56.5 101.5,-56.5"/>
<text text-anchor="middle" x="125" y="-63.5" font-family="Helvetica,sans-Serif" font-size="10.00">vector</text>
</a>
</g>
</g>
<!-- Node1&#45;&gt;Node4 -->
<g id="edge3" class="edge">
<title>Node1&#45;&gt;Node4</title>
<path fill="none" stroke="midnightblue" d="M98.28,-112.08C102.71,-104.61 109.16,-93.72 114.62,-84.52"/>
<polygon fill="midnightblue" stroke="midnightblue" points="117.73,-86.14 119.81,-75.75 111.71,-82.57 117.73,-86.14"/>
</g>
<!-- Node5 -->
<g id="node5" class="node">
<title>Node5</title>
<g id="a_node5"><a xlink:href="../../dc/d5f/utilities_8hpp.html" target="_top" xlink:title=" ">
<polygon fill="white" stroke="black" points="167,-56.5 167,-75.5 241,-75.5 241,-56.5 167,-56.5"/>
<text text-anchor="middle" x="204" y="-63.5" font-family="Helvetica,sans-Serif" font-size="10.00">utilities.hpp</text>
</a>
</g>
</g>
<!-- Node1&#45;&gt;Node5 -->
<g id="edge4" class="edge">
<title>Node1&#45;&gt;Node5</title>
<path fill="none" stroke="midnightblue" d="M110.83,-112.32C128.72,-103.62 156.48,-90.12 177.05,-80.11"/>
<polygon fill="midnightblue" stroke="midnightblue" points="178.75,-83.18 186.21,-75.65 175.69,-76.88 178.75,-83.18"/>
</g>
<!-- Node5&#45;&gt;Node2 -->
<g id="edge5" class="edge">
<title>Node5&#45;&gt;Node2</title>
<path fill="none" stroke="midnightblue" d="M175.16,-56.44C142.19,-46.66 88.36,-30.69 54.08,-20.52"/>
<polygon fill="midnightblue" stroke="midnightblue" points="54.7,-17.05 44.12,-17.56 52.71,-23.76 54.7,-17.05"/>
</g>
<!-- Node6 -->
<g id="node6" class="node">
<title>Node6</title>
<g id="a_node6"><a xlink:title=" ">
<polygon fill="white" stroke="#bfbfbf" points="74.5,-0.5 74.5,-19.5 139.5,-19.5 139.5,-0.5 74.5,-0.5"/>
<text text-anchor="middle" x="107" y="-7.5" font-family="Helvetica,sans-Serif" font-size="10.00">typeindex</text>
</a>
</g>
</g>
<!-- Node5&#45;&gt;Node6 -->
<g id="edge6" class="edge">
<title>Node5&#45;&gt;Node6</title>
<path fill="none" stroke="midnightblue" d="M188.42,-56.32C173,-47.74 149.19,-34.49 131.29,-24.52"/>
<polygon fill="midnightblue" stroke="midnightblue" points="132.99,-21.46 122.55,-19.65 129.58,-27.58 132.99,-21.46"/>
</g>
<!-- Node7 -->
<g id="node7" class="node">
<title>Node7</title>
<g id="a_node7"><a xlink:title=" ">
<polygon fill="white" stroke="#bfbfbf" points="157.5,-0.5 157.5,-19.5 250.5,-19.5 250.5,-0.5 157.5,-0.5"/>
<text text-anchor="middle" x="204" y="-7.5" font-family="Helvetica,sans-Serif" font-size="10.00">unordered_map</text>
</a>
</g>
</g>
<!-- Node5&#45;&gt;Node7 -->
<g id="edge7" class="edge">
<title>Node5&#45;&gt;Node7</title>
<path fill="none" stroke="midnightblue" d="M204,-56.08C204,-49.01 204,-38.86 204,-29.99"/>
<polygon fill="midnightblue" stroke="midnightblue" points="207.5,-29.75 204,-19.75 200.5,-29.75 207.5,-29.75"/>
</g>
<!-- Node8 -->
<g id="node8" class="node">
<title>Node8</title>
<g id="a_node8"><a xlink:title=" ">
<polygon fill="white" stroke="#bfbfbf" points="269,-0.5 269,-19.5 433,-19.5 433,-0.5 269,-0.5"/>
<text text-anchor="middle" x="351" y="-7.5" font-family="Helvetica,sans-Serif" font-size="10.00">open62541/types_generated.h</text>
</a>
</g>
</g>
<!-- Node5&#45;&gt;Node8 -->
<g id="edge8" class="edge">
<title>Node5&#45;&gt;Node8</title>
<path fill="none" stroke="midnightblue" d="M227.29,-56.44C251.81,-47.44 290.6,-33.19 318.2,-23.05"/>
<polygon fill="midnightblue" stroke="midnightblue" points="319.64,-26.25 327.82,-19.52 317.22,-19.68 319.64,-26.25"/>
</g>
</g>
</svg>
