<?xml version="1.0" encoding="UTF-8" standalone="no"?>
<!DOCTYPE svg PUBLIC "-//W3C//DTD SVG 1.1//EN"
 "http://www.w3.org/Graphics/SVG/1.1/DTD/svg11.dtd">
<!-- Generated by graphviz version 14.1.2 (0)
 -->
<!-- Title: rmvl/core/numcal.hpp Pages: 1 -->
<svg width="266pt" height="86pt"
 viewBox="0.00 0.00 266.00 86.00" xmlns="http://www.w3.org/2000/svg" xmlns:xlink="http://www.w3.org/1999/xlink">
<g id="graph0" class="graph" transform="scale(1 1) rotate(0) translate(4 81.5)">
<title>rmvl/core/numcal.hpp</title>
<!-- Node1 -->
<g id="Node000001" class="node">
<title>Node1</title>
<g id="a_Node000001"><a xlink:title="Numerical Calculation Module 数值计算模块">
<polygon fill="#999999" stroke="#666666" points="184.12,-77.5 61.62,-77.5 61.62,-56.75 184.12,-56.75 184.12,-77.5"/>
<text xml:space="preserve" text-anchor="middle" x="122.88" y="-64" font-family="Helvetica,sans-Serif" font-size="10.00">rmvl/core/numcal.hpp</text>
</a>
</g>
</g>
<!-- Node2 -->
<g id="Node000002" class="node">
<title>Node2</title>
<g id="a_Node000002"><a xlink:title=" ">
<polygon fill="#e0e0e0" stroke="#999999" points="43.75,-20.75 0,-20.75 0,0 43.75,0 43.75,-20.75"/>
<text xml:space="preserve" text-anchor="middle" x="21.88" y="-7.25" font-family="Helvetica,sans-Serif" font-size="10.00">bitset</text>
</a>
</g>
</g>
<!-- Node1&#45;&gt;Node2 -->
<g id="edge1_Node000001_Node000002" class="edge">
<title>Node1&#45;&gt;Node2</title>
<g id="a_edge1_Node000001_Node000002"><a xlink:title=" ">
<path fill="none" stroke="#63b8ff" d="M104.82,-56.34C89.45,-48.01 67.13,-35.91 49.52,-26.36"/>
<polygon fill="#63b8ff" stroke="#63b8ff" points="51.57,-23.49 41.11,-21.8 48.23,-29.64 51.57,-23.49"/>
</a>
</g>
</g>
<!-- Node3 -->
<g id="Node000003" class="node">
<title>Node3</title>
<g id="a_Node000003"><a xlink:title=" ">
<polygon fill="#e0e0e0" stroke="#999999" points="110.38,-20.75 61.38,-20.75 61.38,0 110.38,0 110.38,-20.75"/>
<text xml:space="preserve" text-anchor="middle" x="85.88" y="-7.25" font-family="Helvetica,sans-Serif" font-size="10.00">cstdint</text>
</a>
</g>
</g>
<!-- Node1&#45;&gt;Node3 -->
<g id="edge2_Node000001_Node000003" class="edge">
<title>Node1&#45;&gt;Node3</title>
<g id="a_edge2_Node000001_Node000003"><a xlink:title=" ">
<path fill="none" stroke="#63b8ff" d="M116.26,-56.34C111.42,-49.17 104.7,-39.23 98.8,-30.51"/>
<polygon fill="#63b8ff" stroke="#63b8ff" points="101.78,-28.66 93.28,-22.33 95.98,-32.58 101.78,-28.66"/>
</a>
</g>
</g>
<!-- Node4 -->
<g id="Node000004" class="node">
<title>Node4</title>
<g id="a_Node000004"><a xlink:title=" ">
<polygon fill="#e0e0e0" stroke="#999999" points="193.25,-20.75 128.5,-20.75 128.5,0 193.25,0 193.25,-20.75"/>
<text xml:space="preserve" text-anchor="middle" x="160.88" y="-7.25" font-family="Helvetica,sans-Serif" font-size="10.00">functional</text>
</a>
</g>
</g>
<!-- Node1&#45;&gt;Node4 -->
<g id="edge3_Node000001_Node000004" class="edge">
<title>Node1&#45;&gt;Node4</title>
<g id="a_edge3_Node000001_Node000004"><a xlink:title=" ">
<path fill="none" stroke="#63b8ff" d="M129.67,-56.34C134.64,-49.17 141.54,-39.23 147.6,-30.51"/>
<polygon fill="#63b8ff" stroke="#63b8ff" points="150.45,-32.53 153.28,-22.32 144.7,-28.54 150.45,-32.53"/>
</a>
</g>
</g>
<!-- Node5 -->
<g id="Node000005" class="node">
<title>Node5</title>
<g id="a_Node000005"><a xlink:title=" ">
<polygon fill="#e0e0e0" stroke="#999999" points="258.25,-20.75 211.5,-20.75 211.5,0 258.25,0 258.25,-20.75"/>
<text xml:space="preserve" text-anchor="middle" x="234.88" y="-7.25" font-family="Helvetica,sans-Serif" font-size="10.00">vector</text>
</a>
</g>
</g>
<!-- Node1&#45;&gt;Node5 -->
<g id="edge4_Node000001_Node000005" class="edge">
<title>Node1&#45;&gt;Node5</title>
<g id="a_edge4_Node000001_Node000005"><a xlink:title=" ">
<path fill="none" stroke="#63b8ff" d="M142.9,-56.34C160.1,-47.93 185.15,-35.68 204.77,-26.09"/>
<polygon fill="#63b8ff" stroke="#63b8ff" points="206.22,-29.28 213.67,-21.74 203.14,-22.99 206.22,-29.28"/>
</a>
</g>
</g>
</g>
</svg>
