<?xml version="1.0" encoding="UTF-8" standalone="no"?>
<!DOCTYPE svg PUBLIC "-//W3C//DTD SVG 1.1//EN"
 "http://www.w3.org/Graphics/SVG/1.1/DTD/svg11.dtd">
<!-- Generated by graphviz version 2.43.0 (0)
 -->
<!-- Title: rm::async::Listener Pages: 1 -->
<svg width="155pt" height="467pt"
 viewBox="0.00 0.00 154.50 467.00" xmlns="http://www.w3.org/2000/svg" xmlns:xlink="http://www.w3.org/1999/xlink">
<g id="graph0" class="graph" transform="scale(1 1) rotate(0) translate(4 463)">
<title>rm::async::Listener</title>
<!-- Node1 -->
<g id="Node000001" class="node">
<title>Node1</title>
<g id="a_Node000001"><a xlink:title="异步数据报式 Socket 监听器">
<polygon fill="#999999" stroke="transparent" points="144.5,-79 49.5,-79 49.5,0 144.5,0 144.5,-79"/>
<text text-anchor="start" x="55" y="-66.5" font-family="Helvetica,sans-Serif" font-size="10.00">rm::async::Listener</text>
<text text-anchor="start" x="95.5" y="-51.5" font-family="Helvetica,sans-Serif" font-size="10.00"> </text>
<text text-anchor="start" x="61" y="-36.5" font-family="Helvetica,sans-Serif" font-size="10.00">+</text>
<text text-anchor="start" x="79" y="-36.5" font-family="Helvetica,sans-Serif" font-size="10.00">Listener()</text>
<text text-anchor="start" x="61" y="-21.5" font-family="Helvetica,sans-Serif" font-size="10.00">+</text>
<text text-anchor="start" x="79" y="-21.5" font-family="Helvetica,sans-Serif" font-size="10.00">~Listener()</text>
<text text-anchor="start" x="61" y="-6.5" font-family="Helvetica,sans-Serif" font-size="10.00">+</text>
<text text-anchor="start" x="79" y="-6.5" font-family="Helvetica,sans-Serif" font-size="10.00">create()</text>
<polygon fill="#666666" stroke="#666666" points="50,-61.5 50,-61.5 145,-61.5 145,-61.5 50,-61.5"/>
<polygon fill="#666666" stroke="#666666" points="50,-46.5 50,-46.5 145,-46.5 145,-46.5 50,-46.5"/>
<polygon fill="none" stroke="#666666" points="49.5,0 49.5,-79 144.5,-79 144.5,0 49.5,0"/>
</a>
</g>
</g>
<!-- Node2 -->
<g id="Node000002" class="node">
<title>Node2</title>
<g id="a_Node000002"><a xlink:href="../../d5/dcd/classrm_1_1Listener.html" target="_top" xlink:title="同步数据报式 Socket 监听器">
<polygon fill="white" stroke="transparent" points="130,-210 64,-210 64,-116 130,-116 130,-210"/>
<text text-anchor="start" x="71" y="-198" font-family="Helvetica,sans-Serif" font-size="10.00">rm::Listener</text>
<text text-anchor="start" x="95" y="-183" font-family="Helvetica,sans-Serif" font-size="10.00"> </text>
<text text-anchor="start" x="68" y="-168" font-family="Helvetica,sans-Serif" font-size="10.00">+</text>
<text text-anchor="start" x="79" y="-168" font-family="Helvetica,sans-Serif" font-size="10.00">Listener()</text>
<text text-anchor="start" x="68" y="-153" font-family="Helvetica,sans-Serif" font-size="10.00">+</text>
<text text-anchor="start" x="79" y="-153" font-family="Helvetica,sans-Serif" font-size="10.00">~Listener()</text>
<text text-anchor="start" x="68" y="-138" font-family="Helvetica,sans-Serif" font-size="10.00">+</text>
<text text-anchor="start" x="79" y="-138" font-family="Helvetica,sans-Serif" font-size="10.00">create()</text>
<text text-anchor="start" x="68.5" y="-123" font-family="Helvetica,sans-Serif" font-size="10.00">#</text>
<text text-anchor="start" x="79" y="-123" font-family="Helvetica,sans-Serif" font-size="10.00">Listener()</text>
<polygon fill="#666666" stroke="#666666" points="64,-193 64,-193 130,-193 130,-193 64,-193"/>
<polygon fill="#666666" stroke="#666666" points="64,-178 64,-178 130,-178 130,-178 64,-178"/>
<polygon fill="none" stroke="#666666" points="64,-116 64,-210 130,-210 130,-116 64,-116"/>
</a>
</g>
</g>
<!-- Node2&#45;&gt;Node1 -->
<g id="edge1_Node000001_Node000002" class="edge">
<title>Node2&#45;&gt;Node1</title>
<g id="a_edge1_Node000001_Node000002"><a xlink:title=" ">
<path fill="none" stroke="#63b8ff" d="M97,-105.68C97,-96.7 97,-87.59 97,-79.14"/>
<polygon fill="none" stroke="#63b8ff" points="93.5,-105.72 97,-115.72 100.5,-105.72 93.5,-105.72"/>
</a>
</g>
</g>
<!-- Node3 -->
<g id="Node000003" class="node">
<title>Node3</title>
<g id="a_Node000003"><a xlink:href="../../dc/db5/classrm_1_1Endpoint.html" target="_top" xlink:title="端点">
<polygon fill="white" stroke="transparent" points="92,-357 26,-357 26,-263 92,-263 92,-357"/>
<text text-anchor="start" x="31" y="-345" font-family="Helvetica,sans-Serif" font-size="10.00">rm::Endpoint</text>
<text text-anchor="start" x="57" y="-330" font-family="Helvetica,sans-Serif" font-size="10.00"> </text>
<text text-anchor="start" x="30.5" y="-315" font-family="Helvetica,sans-Serif" font-size="10.00">+</text>
<text text-anchor="start" x="42" y="-315" font-family="Helvetica,sans-Serif" font-size="10.00">Endpoint()</text>
<text text-anchor="start" x="30.5" y="-300" font-family="Helvetica,sans-Serif" font-size="10.00">+</text>
<text text-anchor="start" x="42" y="-300" font-family="Helvetica,sans-Serif" font-size="10.00">family()</text>
<text text-anchor="start" x="30.5" y="-285" font-family="Helvetica,sans-Serif" font-size="10.00">+</text>
<text text-anchor="start" x="42" y="-285" font-family="Helvetica,sans-Serif" font-size="10.00">type()</text>
<text text-anchor="start" x="30.5" y="-270" font-family="Helvetica,sans-Serif" font-size="10.00">+</text>
<text text-anchor="start" x="42" y="-270" font-family="Helvetica,sans-Serif" font-size="10.00">port()</text>
<polygon fill="#666666" stroke="#666666" points="26,-340 26,-340 92,-340 92,-340 26,-340"/>
<polygon fill="#666666" stroke="#666666" points="26,-325 26,-325 92,-325 92,-325 26,-325"/>
<polygon fill="none" stroke="#666666" points="26,-263 26,-357 92,-357 92,-263 26,-263"/>
</a>
</g>
</g>
<!-- Node3&#45;&gt;Node2 -->
<g id="edge2_Node000002_Node000003" class="edge">
<title>Node3&#45;&gt;Node2</title>
<g id="a_edge2_Node000002_Node000003"><a xlink:title=" ">
<path fill="none" stroke="#63b8ff" d="M55.53,-262.59C55.77,-251.13 56.98,-238.98 60,-228 60.59,-225.87 61.26,-223.73 62.01,-221.6"/>
<polygon fill="none" stroke="#63b8ff" points="62.08,-221.43 60.67,-214.36 66.65,-210.33 68.06,-217.4 62.08,-221.43"/>
</a>
</g>
<text text-anchor="start" x="63" y="-233.5" font-family="Helvetica,sans-Serif" font-size="10.00" fill="grey">#_endpoint</text>
</g>
<!-- Node4 -->
<g id="Node000004" class="node">
<title>Node4</title>
<g id="a_Node000004"><a xlink:title=" ">
<polygon fill="white" stroke="transparent" points="118,-459 0,-459 0,-410 118,-410 118,-459"/>
<text text-anchor="start" x="5" y="-446.5" font-family="Helvetica,sans-Serif" font-size="10.00">static constexpr uint16_t</text>
<text text-anchor="start" x="57" y="-431.5" font-family="Helvetica,sans-Serif" font-size="10.00"> </text>
<text text-anchor="start" x="57" y="-416.5" font-family="Helvetica,sans-Serif" font-size="10.00"> </text>
<polygon fill="#666666" stroke="#666666" points="0,-441.5 0,-441.5 118,-441.5 118,-441.5 0,-441.5"/>
<polygon fill="#666666" stroke="#666666" points="0,-426.5 0,-426.5 118,-426.5 118,-426.5 0,-426.5"/>
<polygon fill="none" stroke="#666666" points="0,-410 0,-459 118,-459 118,-410 0,-410"/>
</a>
</g>
</g>
<!-- Node4&#45;&gt;Node3 -->
<g id="edge3_Node000003_Node000004" class="edge">
<title>Node4&#45;&gt;Node3</title>
<g id="a_edge3_Node000003_Node000004"><a xlink:title=" ">
<path fill="none" stroke="#63b8ff" d="M59,-409.88C59,-398.32 59,-383.84 59,-369.55"/>
<polygon fill="none" stroke="#63b8ff" points="59,-369.13 55,-363.13 59,-357.13 63,-363.13 59,-369.13"/>
</a>
</g>
<text text-anchor="start" x="62.5" y="-380.5" font-family="Helvetica,sans-Serif" font-size="10.00" fill="grey">+ANY_PORT</text>
</g>
<!-- Node5 -->
<g id="Node000005" class="node">
<title>Node5</title>
<g id="a_Node000005"><a xlink:title=" ">
<polygon fill="white" stroke="transparent" points="146.5,-334.5 125.5,-334.5 125.5,-285.5 146.5,-285.5 146.5,-334.5"/>
<text text-anchor="start" x="131" y="-322" font-family="Helvetica,sans-Serif" font-size="10.00">int</text>
<text text-anchor="start" x="134.5" y="-307" font-family="Helvetica,sans-Serif" font-size="10.00"> </text>
<text text-anchor="start" x="134.5" y="-292" font-family="Helvetica,sans-Serif" font-size="10.00"> </text>
<polygon fill="#666666" stroke="#666666" points="126,-317 126,-317 147,-317 147,-317 126,-317"/>
<polygon fill="#666666" stroke="#666666" points="126,-302 126,-302 147,-302 147,-302 126,-302"/>
<polygon fill="none" stroke="#666666" points="125.5,-285.5 125.5,-334.5 146.5,-334.5 146.5,-285.5 125.5,-285.5"/>
</a>
</g>
</g>
<!-- Node5&#45;&gt;Node2 -->
<g id="edge4_Node000002_Node000005" class="edge">
<title>Node5&#45;&gt;Node2</title>
<g id="a_edge4_Node000002_Node000005"><a xlink:title=" ">
<path fill="none" stroke="#63b8ff" d="M129.65,-285.38C125.02,-268.17 118.54,-244.08 112.57,-221.9"/>
<polygon fill="none" stroke="#63b8ff" points="112.54,-221.76 107.11,-217 109.42,-210.17 114.84,-214.93 112.54,-221.76"/>
</a>
</g>
<text text-anchor="start" x="120.5" y="-233.5" font-family="Helvetica,sans-Serif" font-size="10.00" fill="grey">#_fd</text>
</g>
</g>
</svg>
