<?xml version="1.0" encoding="UTF-8" standalone="no"?>
<!DOCTYPE svg PUBLIC "-//W3C//DTD SVG 1.1//EN"
 "http://www.w3.org/Graphics/SVG/1.1/DTD/svg11.dtd">
<!-- Generated by graphviz version 2.43.0 (0)
 -->
<!-- Title: rmvl/group.hpp Pages: 1 -->
<svg width="1369pt" height="357pt"
 viewBox="0.00 0.00 1368.79 357.00" xmlns="http://www.w3.org/2000/svg" xmlns:xlink="http://www.w3.org/1999/xlink">
<g id="graph0" class="graph" transform="scale(1 1) rotate(0) translate(4 353)">
<title>rmvl/group.hpp</title>
<!-- Node1 -->
<g id="Node000001" class="node">
<title>Node1</title>
<g id="a_Node000001"><a xlink:title=" ">
<polygon fill="#999999" stroke="#666666" points="91,-349 0,-349 0,-330 91,-330 91,-349"/>
<text text-anchor="middle" x="45.5" y="-337" font-family="Helvetica,sans-Serif" font-size="10.00">rmvl/group.hpp</text>
</a>
</g>
</g>
<!-- Node2 -->
<g id="Node000002" class="node">
<title>Node2</title>
<g id="a_Node000002"><a xlink:title=" ">
<polygon fill="#e0e0e0" stroke="#999999" points="337,-19 204,-19 204,0 337,0 337,-19"/>
<text text-anchor="middle" x="270.5" y="-7" font-family="Helvetica,sans-Serif" font-size="10.00">rmvl/rmvl_modules.hpp</text>
</a>
</g>
</g>
<!-- Node1&#45;&gt;Node2 -->
<g id="edge1_Node000001_Node000002" class="edge">
<title>Node1&#45;&gt;Node2</title>
<g id="a_edge1_Node000001_Node000002"><a xlink:title=" ">
<path fill="none" stroke="#63b8ff" d="M40.63,-329.85C31.02,-311.92 10.5,-269.13 10.5,-230.5 10.5,-230.5 10.5,-230.5 10.5,-118.5 10.5,-89.04 7.57,-74.67 29.5,-55 53.35,-33.6 132.56,-21.98 193.73,-16.04"/>
<polygon fill="#63b8ff" stroke="#63b8ff" points="194.13,-19.51 203.76,-15.1 193.48,-12.54 194.13,-19.51"/>
</a>
</g>
</g>
<!-- Node3 -->
<g id="Node000003" class="node">
<title>Node3</title>
<g id="a_Node000003"><a xlink:href="../../d9/dd1/group_8h.html" target="_top" xlink:title="序列组抽象头文件">
<polygon fill="white" stroke="#666666" points="276.5,-294 192.5,-294 192.5,-275 276.5,-275 276.5,-294"/>
<text text-anchor="middle" x="234.5" y="-282" font-family="Helvetica,sans-Serif" font-size="10.00">group/group.h</text>
</a>
</g>
</g>
<!-- Node1&#45;&gt;Node3 -->
<g id="edge2_Node000001_Node000003" class="edge">
<title>Node1&#45;&gt;Node3</title>
<g id="a_edge2_Node000001_Node000003"><a xlink:title=" ">
<path fill="none" stroke="#63b8ff" d="M75.87,-329.98C107.87,-321.01 158.46,-306.82 193.88,-296.89"/>
<polygon fill="#63b8ff" stroke="#63b8ff" points="195.21,-300.15 203.9,-294.08 193.32,-293.41 195.21,-300.15"/>
</a>
</g>
</g>
<!-- Node4 -->
<g id="Node000004" class="node">
<title>Node4</title>
<g id="a_Node000004"><a xlink:href="../../dc/ded/tracker_8h.html" target="_top" xlink:title="追踪器抽象头文件">
<polygon fill="white" stroke="#666666" points="449,-239 328,-239 328,-220 449,-220 449,-239"/>
<text text-anchor="middle" x="388.5" y="-227" font-family="Helvetica,sans-Serif" font-size="10.00">rmvl/tracker/tracker.h</text>
</a>
</g>
</g>
<!-- Node3&#45;&gt;Node4 -->
<g id="edge3_Node000003_Node000004" class="edge">
<title>Node3&#45;&gt;Node4</title>
<g id="a_edge3_Node000003_Node000004"><a xlink:title=" ">
<path fill="none" stroke="#63b8ff" d="M259.24,-274.98C284.87,-266.16 325.13,-252.31 353.91,-242.41"/>
<polygon fill="#63b8ff" stroke="#63b8ff" points="355.25,-245.65 363.56,-239.08 352.97,-239.03 355.25,-245.65"/>
</a>
</g>
</g>
<!-- Node5 -->
<g id="Node000005" class="node">
<title>Node5</title>
<g id="a_Node000005"><a xlink:title=" ">
<polygon fill="#e0e0e0" stroke="#999999" points="514,-184 467,-184 467,-165 514,-165 514,-184"/>
<text text-anchor="middle" x="490.5" y="-172" font-family="Helvetica,sans-Serif" font-size="10.00">deque</text>
</a>
</g>
</g>
<!-- Node4&#45;&gt;Node5 -->
<g id="edge4_Node000004_Node000005" class="edge">
<title>Node4&#45;&gt;Node5</title>
<g id="a_edge4_Node000004_Node000005"><a xlink:title=" ">
<path fill="none" stroke="#63b8ff" d="M404.89,-219.98C421.07,-211.57 446.07,-198.59 464.88,-188.81"/>
<polygon fill="#63b8ff" stroke="#63b8ff" points="466.55,-191.89 473.81,-184.17 463.33,-185.68 466.55,-191.89"/>
</a>
</g>
</g>
<!-- Node6 -->
<g id="Node000006" class="node">
<title>Node6</title>
<g id="a_Node000006"><a xlink:href="../../d8/d36/combo_8h.html" target="_top" xlink:title="the combination of the features header file">
<polygon fill="white" stroke="#666666" points="448.5,-184 328.5,-184 328.5,-165 448.5,-165 448.5,-184"/>
<text text-anchor="middle" x="388.5" y="-172" font-family="Helvetica,sans-Serif" font-size="10.00">rmvl/combo/combo.h</text>
</a>
</g>
</g>
<!-- Node4&#45;&gt;Node6 -->
<g id="edge5_Node000004_Node000006" class="edge">
<title>Node4&#45;&gt;Node6</title>
<g id="a_edge5_Node000004_Node000006"><a xlink:title=" ">
<path fill="none" stroke="#63b8ff" d="M388.5,-219.75C388.5,-212.8 388.5,-202.85 388.5,-194.13"/>
<polygon fill="#63b8ff" stroke="#63b8ff" points="392,-194.09 388.5,-184.09 385,-194.09 392,-194.09"/>
</a>
</g>
</g>
<!-- Node7 -->
<g id="Node000007" class="node">
<title>Node7</title>
<g id="a_Node000007"><a xlink:href="../../d4/d78/math_8hpp.html" target="_top" xlink:title="基础数学库">
<polygon fill="white" stroke="#666666" points="1121,-129 982,-129 982,-110 1121,-110 1121,-129"/>
<text text-anchor="middle" x="1051.5" y="-117" font-family="Helvetica,sans-Serif" font-size="10.00">rmvl/algorithm/math.hpp</text>
</a>
</g>
</g>
<!-- Node6&#45;&gt;Node7 -->
<g id="edge6_Node000006_Node000007" class="edge">
<title>Node6&#45;&gt;Node7</title>
<g id="a_edge6_Node000006_Node000007"><a xlink:title=" ">
<path fill="none" stroke="#63b8ff" d="M448.81,-166C452.09,-165.65 455.33,-165.31 458.5,-165 641.77,-147.01 857.53,-132.48 971.53,-125.33"/>
<polygon fill="#63b8ff" stroke="#63b8ff" points="971.81,-128.82 981.57,-124.7 971.38,-121.83 971.81,-128.82"/>
</a>
</g>
</g>
<!-- Node19 -->
<g id="Node000019" class="node">
<title>Node19</title>
<g id="a_Node000019"><a xlink:href="../../d3/d7e/camutils_8hpp.html" target="_top" xlink:title="相机基本配置信息">
<polygon fill="white" stroke="#666666" points="243,-129 98,-129 98,-110 243,-110 243,-129"/>
<text text-anchor="middle" x="170.5" y="-117" font-family="Helvetica,sans-Serif" font-size="10.00">rmvl/camera/camutils.hpp</text>
</a>
</g>
</g>
<!-- Node6&#45;&gt;Node19 -->
<g id="edge19_Node000006_Node000019" class="edge">
<title>Node6&#45;&gt;Node19</title>
<g id="a_edge19_Node000006_Node000019"><a xlink:title=" ">
<path fill="none" stroke="#63b8ff" d="M353.47,-164.98C316,-155.87 256.45,-141.4 215.52,-131.45"/>
<polygon fill="#63b8ff" stroke="#63b8ff" points="216.34,-128.04 205.8,-129.08 214.69,-134.85 216.34,-128.04"/>
</a>
</g>
</g>
<!-- Node21 -->
<g id="Node000021" class="node">
<title>Node21</title>
<g id="a_Node000021"><a xlink:href="../../d2/dc6/io_8hpp.html" target="_top" xlink:title="数据 IO 与通信模块">
<polygon fill="white" stroke="#666666" points="436.5,-129 340.5,-129 340.5,-110 436.5,-110 436.5,-129"/>
<text text-anchor="middle" x="388.5" y="-117" font-family="Helvetica,sans-Serif" font-size="10.00">rmvl/core/io.hpp</text>
</a>
</g>
</g>
<!-- Node6&#45;&gt;Node21 -->
<g id="edge22_Node000006_Node000021" class="edge">
<title>Node6&#45;&gt;Node21</title>
<g id="a_edge22_Node000006_Node000021"><a xlink:title=" ">
<path fill="none" stroke="#63b8ff" d="M388.5,-164.75C388.5,-157.8 388.5,-147.85 388.5,-139.13"/>
<polygon fill="#63b8ff" stroke="#63b8ff" points="392,-139.09 388.5,-129.09 385,-139.09 392,-139.09"/>
</a>
</g>
</g>
<!-- Node26 -->
<g id="Node000026" class="node">
<title>Node26</title>
<g id="a_Node000026"><a xlink:href="../../d2/d74/feature_8h.html" target="_top" xlink:title="feature class header">
<polygon fill="white" stroke="#666666" points="659,-129 534,-129 534,-110 659,-110 659,-129"/>
<text text-anchor="middle" x="596.5" y="-117" font-family="Helvetica,sans-Serif" font-size="10.00">rmvl/feature/feature.h</text>
</a>
</g>
</g>
<!-- Node6&#45;&gt;Node26 -->
<g id="edge30_Node000006_Node000026" class="edge">
<title>Node6&#45;&gt;Node26</title>
<g id="a_edge30_Node000006_Node000026"><a xlink:title=" ">
<path fill="none" stroke="#63b8ff" d="M421.92,-164.98C457.44,-155.93 513.77,-141.58 552.8,-131.64"/>
<polygon fill="#63b8ff" stroke="#63b8ff" points="553.99,-134.94 562.82,-129.08 552.26,-128.16 553.99,-134.94"/>
</a>
</g>
</g>
<!-- Node8 -->
<g id="Node000008" class="node">
<title>Node8</title>
<g id="a_Node000008"><a xlink:title=" ">
<polygon fill="#e0e0e0" stroke="#999999" points="1038,-74 991,-74 991,-55 1038,-55 1038,-74"/>
<text text-anchor="middle" x="1014.5" y="-62" font-family="Helvetica,sans-Serif" font-size="10.00">cmath</text>
</a>
</g>
</g>
<!-- Node7&#45;&gt;Node8 -->
<g id="edge7_Node000007_Node000008" class="edge">
<title>Node7&#45;&gt;Node8</title>
<g id="a_edge7_Node000007_Node000008"><a xlink:title=" ">
<path fill="none" stroke="#63b8ff" d="M1045.39,-109.75C1040.22,-102.34 1032.65,-91.5 1026.31,-82.41"/>
<polygon fill="#63b8ff" stroke="#63b8ff" points="1029.09,-80.29 1020.5,-74.09 1023.35,-84.29 1029.09,-80.29"/>
</a>
</g>
</g>
<!-- Node9 -->
<g id="Node000009" class="node">
<title>Node9</title>
<g id="a_Node000009"><a xlink:title=" ">
<polygon fill="#e0e0e0" stroke="#999999" points="1121,-74 1056,-74 1056,-55 1121,-55 1121,-74"/>
<text text-anchor="middle" x="1088.5" y="-62" font-family="Helvetica,sans-Serif" font-size="10.00">functional</text>
</a>
</g>
</g>
<!-- Node7&#45;&gt;Node9 -->
<g id="edge8_Node000007_Node000009" class="edge">
<title>Node7&#45;&gt;Node9</title>
<g id="a_edge8_Node000007_Node000009"><a xlink:title=" ">
<path fill="none" stroke="#63b8ff" d="M1057.61,-109.75C1062.78,-102.34 1070.35,-91.5 1076.69,-82.41"/>
<polygon fill="#63b8ff" stroke="#63b8ff" points="1079.65,-84.29 1082.5,-74.09 1073.91,-80.29 1079.65,-84.29"/>
</a>
</g>
</g>
<!-- Node10 -->
<g id="Node000010" class="node">
<title>Node10</title>
<g id="a_Node000010"><a xlink:title=" ">
<polygon fill="#e0e0e0" stroke="#999999" points="1195.5,-74 1139.5,-74 1139.5,-55 1195.5,-55 1195.5,-74"/>
<text text-anchor="middle" x="1167.5" y="-62" font-family="Helvetica,sans-Serif" font-size="10.00">numeric</text>
</a>
</g>
</g>
<!-- Node7&#45;&gt;Node10 -->
<g id="edge9_Node000007_Node000010" class="edge">
<title>Node7&#45;&gt;Node10</title>
<g id="a_edge9_Node000007_Node000010"><a xlink:title=" ">
<path fill="none" stroke="#63b8ff" d="M1070.14,-109.98C1088.8,-101.46 1117.75,-88.23 1139.24,-78.41"/>
<polygon fill="#63b8ff" stroke="#63b8ff" points="1140.88,-81.51 1148.52,-74.17 1137.97,-75.14 1140.88,-81.51"/>
</a>
</g>
</g>
<!-- Node11 -->
<g id="Node000011" class="node">
<title>Node11</title>
<g id="a_Node000011"><a xlink:title=" ">
<polygon fill="#e0e0e0" stroke="#999999" points="1287,-19 1194,-19 1194,0 1287,0 1287,-19"/>
<text text-anchor="middle" x="1240.5" y="-7" font-family="Helvetica,sans-Serif" font-size="10.00">unordered_map</text>
</a>
</g>
</g>
<!-- Node7&#45;&gt;Node11 -->
<g id="edge10_Node000007_Node000011" class="edge">
<title>Node7&#45;&gt;Node11</title>
<g id="a_edge10_Node000007_Node000011"><a xlink:title=" ">
<path fill="none" stroke="#63b8ff" d="M1121.11,-118.39C1201.03,-116.6 1324.96,-108.2 1354.5,-74 1376.34,-48.71 1335.17,-31.48 1296.35,-21.42"/>
<polygon fill="#63b8ff" stroke="#63b8ff" points="1297.11,-18.01 1286.57,-19.02 1295.44,-24.81 1297.11,-18.01"/>
</a>
</g>
</g>
<!-- Node12 -->
<g id="Node000012" class="node">
<title>Node12</title>
<g id="a_Node000012"><a xlink:title=" ">
<polygon fill="#e0e0e0" stroke="#999999" points="592,-74 545,-74 545,-55 592,-55 592,-74"/>
<text text-anchor="middle" x="568.5" y="-62" font-family="Helvetica,sans-Serif" font-size="10.00">vector</text>
</a>
</g>
</g>
<!-- Node7&#45;&gt;Node12 -->
<g id="edge11_Node000007_Node000012" class="edge">
<title>Node7&#45;&gt;Node12</title>
<g id="a_edge11_Node000007_Node000012"><a xlink:title=" ">
<path fill="none" stroke="#63b8ff" d="M981.67,-114.93C894.89,-109.74 742.21,-98.18 602.25,-73.84"/>
<polygon fill="#63b8ff" stroke="#63b8ff" points="602.65,-70.36 592.2,-72.07 601.44,-77.25 602.65,-70.36"/>
</a>
</g>
</g>
<!-- Node13 -->
<g id="Node000013" class="node">
<title>Node13</title>
<g id="a_Node000013"><a xlink:title=" ">
<polygon fill="#e0e0e0" stroke="#999999" points="1345,-74 1214,-74 1214,-55 1345,-55 1345,-74"/>
<text text-anchor="middle" x="1279.5" y="-62" font-family="Helvetica,sans-Serif" font-size="10.00">opencv2/core/matx.hpp</text>
</a>
</g>
</g>
<!-- Node7&#45;&gt;Node13 -->
<g id="edge12_Node000007_Node000013" class="edge">
<title>Node7&#45;&gt;Node13</title>
<g id="a_edge12_Node000007_Node000013"><a xlink:title=" ">
<path fill="none" stroke="#63b8ff" d="M1088.13,-109.98C1127.41,-100.86 1189.87,-86.33 1232.69,-76.38"/>
<polygon fill="#63b8ff" stroke="#63b8ff" points="1233.63,-79.76 1242.58,-74.08 1232.05,-72.94 1233.63,-79.76"/>
</a>
</g>
</g>
<!-- Node14 -->
<g id="Node000014" class="node">
<title>Node14</title>
<g id="a_Node000014"><a xlink:href="../../d0/d3f/util_8hpp.html" target="_top" xlink:title=" ">
<polygon fill="white" stroke="#666666" points="864,-74 761,-74 761,-55 864,-55 864,-74"/>
<text text-anchor="middle" x="812.5" y="-62" font-family="Helvetica,sans-Serif" font-size="10.00">rmvl/core/util.hpp</text>
</a>
</g>
</g>
<!-- Node7&#45;&gt;Node14 -->
<g id="edge13_Node000007_Node000014" class="edge">
<title>Node7&#45;&gt;Node14</title>
<g id="a_edge13_Node000007_Node000014"><a xlink:title=" ">
<path fill="none" stroke="#63b8ff" d="M1013.1,-109.98C971.76,-100.82 905.9,-86.21 861.01,-76.26"/>
<polygon fill="#63b8ff" stroke="#63b8ff" points="861.72,-72.83 851.2,-74.08 860.21,-79.66 861.72,-72.83"/>
</a>
</g>
</g>
<!-- Node14&#45;&gt;Node2 -->
<g id="edge14_Node000014_Node000002" class="edge">
<title>Node14&#45;&gt;Node2</title>
<g id="a_edge14_Node000014_Node000002"><a xlink:title=" ">
<path fill="none" stroke="#63b8ff" d="M760.81,-56.01C758,-55.66 755.22,-55.32 752.5,-55 609.75,-38.31 442.62,-24.06 347.39,-16.44"/>
<polygon fill="#63b8ff" stroke="#63b8ff" points="347.52,-12.94 337.27,-15.63 346.96,-19.91 347.52,-12.94"/>
</a>
</g>
</g>
<!-- Node15 -->
<g id="Node000015" class="node">
<title>Node15</title>
<g id="a_Node000015"><a xlink:title=" ">
<polygon fill="#e0e0e0" stroke="#999999" points="819.5,-19 769.5,-19 769.5,0 819.5,0 819.5,-19"/>
<text text-anchor="middle" x="794.5" y="-7" font-family="Helvetica,sans-Serif" font-size="10.00">cstdint</text>
</a>
</g>
</g>
<!-- Node14&#45;&gt;Node15 -->
<g id="edge15_Node000014_Node000015" class="edge">
<title>Node14&#45;&gt;Node15</title>
<g id="a_edge15_Node000014_Node000015"><a xlink:title=" ">
<path fill="none" stroke="#63b8ff" d="M809.53,-54.75C807.14,-47.72 803.71,-37.62 800.73,-28.84"/>
<polygon fill="#63b8ff" stroke="#63b8ff" points="803.95,-27.43 797.42,-19.09 797.32,-29.68 803.95,-27.43"/>
</a>
</g>
</g>
<!-- Node16 -->
<g id="Node000016" class="node">
<title>Node16</title>
<g id="a_Node000016"><a xlink:title=" ">
<polygon fill="#e0e0e0" stroke="#999999" points="883.5,-19 837.5,-19 837.5,0 883.5,0 883.5,-19"/>
<text text-anchor="middle" x="860.5" y="-7" font-family="Helvetica,sans-Serif" font-size="10.00">cstdio</text>
</a>
</g>
</g>
<!-- Node14&#45;&gt;Node16 -->
<g id="edge16_Node000014_Node000016" class="edge">
<title>Node14&#45;&gt;Node16</title>
<g id="a_edge16_Node000014_Node000016"><a xlink:title=" ">
<path fill="none" stroke="#63b8ff" d="M820.43,-54.75C827.35,-47.11 837.57,-35.82 845.95,-26.56"/>
<polygon fill="#63b8ff" stroke="#63b8ff" points="848.6,-28.85 852.72,-19.09 843.41,-24.15 848.6,-28.85"/>
</a>
</g>
</g>
<!-- Node17 -->
<g id="Node000017" class="node">
<title>Node17</title>
<g id="a_Node000017"><a xlink:title=" ">
<polygon fill="#e0e0e0" stroke="#999999" points="751.5,-19 707.5,-19 707.5,0 751.5,0 751.5,-19"/>
<text text-anchor="middle" x="729.5" y="-7" font-family="Helvetica,sans-Serif" font-size="10.00">string</text>
</a>
</g>
</g>
<!-- Node14&#45;&gt;Node17 -->
<g id="edge17_Node000014_Node000017" class="edge">
<title>Node14&#45;&gt;Node17</title>
<g id="a_edge17_Node000014_Node000017"><a xlink:title=" ">
<path fill="none" stroke="#63b8ff" d="M799.16,-54.98C786.41,-46.84 766.95,-34.41 751.83,-24.76"/>
<polygon fill="#63b8ff" stroke="#63b8ff" points="753.39,-21.6 743.08,-19.17 749.62,-27.5 753.39,-21.6"/>
</a>
</g>
</g>
<!-- Node18 -->
<g id="Node000018" class="node">
<title>Node18</title>
<g id="a_Node000018"><a xlink:href="../../db/d41/rmvldef_8hpp.html" target="_top" xlink:title=" ">
<polygon fill="white" stroke="#666666" points="468,-19 393,-19 393,0 468,0 468,-19"/>
<text text-anchor="middle" x="430.5" y="-7" font-family="Helvetica,sans-Serif" font-size="10.00">rmvldef.hpp</text>
</a>
</g>
</g>
<!-- Node14&#45;&gt;Node18 -->
<g id="edge18_Node000014_Node000018" class="edge">
<title>Node14&#45;&gt;Node18</title>
<g id="a_edge18_Node000014_Node000018"><a xlink:title=" ">
<path fill="none" stroke="#63b8ff" d="M760.79,-56.16C757.99,-55.77 755.21,-55.38 752.5,-55 655.09,-41.37 541.06,-25.67 478.19,-17.04"/>
<polygon fill="#63b8ff" stroke="#63b8ff" points="478.56,-13.56 468.18,-15.67 477.61,-20.49 478.56,-13.56"/>
</a>
</g>
</g>
<!-- Node19&#45;&gt;Node18 -->
<g id="edge21_Node000019_Node000018" class="edge">
<title>Node19&#45;&gt;Node18</title>
<g id="a_edge21_Node000019_Node000018"><a xlink:title=" ">
<path fill="none" stroke="#63b8ff" d="M174.04,-109.94C180.24,-96.04 194.47,-68.76 215.5,-55 242.55,-37.31 328.1,-23.53 382.78,-16.24"/>
<polygon fill="#63b8ff" stroke="#63b8ff" points="383.48,-19.68 392.94,-14.92 382.57,-12.74 383.48,-19.68"/>
</a>
</g>
</g>
<!-- Node20 -->
<g id="Node000020" class="node">
<title>Node20</title>
<g id="a_Node000020"><a xlink:title=" ">
<polygon fill="#e0e0e0" stroke="#999999" points="142,-74 39,-74 39,-55 142,-55 142,-74"/>
<text text-anchor="middle" x="90.5" y="-62" font-family="Helvetica,sans-Serif" font-size="10.00">opencv2/core.hpp</text>
</a>
</g>
</g>
<!-- Node19&#45;&gt;Node20 -->
<g id="edge20_Node000019_Node000020" class="edge">
<title>Node19&#45;&gt;Node20</title>
<g id="a_edge20_Node000019_Node000020"><a xlink:title=" ">
<path fill="none" stroke="#63b8ff" d="M157.65,-109.98C145.36,-101.84 126.59,-89.41 112.02,-79.76"/>
<polygon fill="#63b8ff" stroke="#63b8ff" points="113.86,-76.78 103.59,-74.17 109.99,-82.61 113.86,-76.78"/>
</a>
</g>
</g>
<!-- Node21&#45;&gt;Node12 -->
<g id="edge28_Node000021_Node000012" class="edge">
<title>Node21&#45;&gt;Node12</title>
<g id="a_edge28_Node000021_Node000012"><a xlink:title=" ">
<path fill="none" stroke="#63b8ff" d="M417.42,-109.98C449.48,-100.54 501.13,-85.34 534.94,-75.38"/>
<polygon fill="#63b8ff" stroke="#63b8ff" points="536.22,-78.65 544.82,-72.47 534.24,-71.94 536.22,-78.65"/>
</a>
</g>
</g>
<!-- Node21&#45;&gt;Node17 -->
<g id="edge27_Node000021_Node000017" class="edge">
<title>Node21&#45;&gt;Node17</title>
<g id="a_edge27_Node000021_Node000017"><a xlink:title=" ">
<path fill="none" stroke="#63b8ff" d="M395.3,-109.83C406.85,-95.79 431.76,-68.28 459.5,-55 538.87,-17 644.75,-10.69 697.21,-10.11"/>
<polygon fill="#63b8ff" stroke="#63b8ff" points="697.28,-13.61 707.27,-10.06 697.25,-6.61 697.28,-13.61"/>
</a>
</g>
</g>
<!-- Node21&#45;&gt;Node18 -->
<g id="edge29_Node000021_Node000018" class="edge">
<title>Node21&#45;&gt;Node18</title>
<g id="a_edge29_Node000021_Node000018"><a xlink:title=" ">
<path fill="none" stroke="#63b8ff" d="M340.45,-115.76C281.88,-110.6 194.54,-95.97 227.5,-55 237.24,-42.89 325.8,-26.93 382.69,-17.78"/>
<polygon fill="#63b8ff" stroke="#63b8ff" points="383.59,-21.18 392.92,-16.15 382.49,-14.27 383.59,-21.18"/>
</a>
</g>
</g>
<!-- Node22 -->
<g id="Node000022" class="node">
<title>Node22</title>
<g id="a_Node000022"><a xlink:title=" ">
<polygon fill="#e0e0e0" stroke="#999999" points="278.5,-74 236.5,-74 236.5,-55 278.5,-55 278.5,-74"/>
<text text-anchor="middle" x="257.5" y="-62" font-family="Helvetica,sans-Serif" font-size="10.00">array</text>
</a>
</g>
</g>
<!-- Node21&#45;&gt;Node22 -->
<g id="edge23_Node000021_Node000022" class="edge">
<title>Node21&#45;&gt;Node22</title>
<g id="a_edge23_Node000021_Node000022"><a xlink:title=" ">
<path fill="none" stroke="#63b8ff" d="M367.45,-109.98C346.09,-101.34 312.8,-87.87 288.44,-78.02"/>
<polygon fill="#63b8ff" stroke="#63b8ff" points="289.51,-74.68 278.93,-74.17 286.89,-81.17 289.51,-74.68"/>
</a>
</g>
</g>
<!-- Node23 -->
<g id="Node000023" class="node">
<title>Node23</title>
<g id="a_Node000023"><a xlink:title=" ">
<polygon fill="#e0e0e0" stroke="#999999" points="346.5,-74 296.5,-74 296.5,-55 346.5,-55 346.5,-74"/>
<text text-anchor="middle" x="321.5" y="-62" font-family="Helvetica,sans-Serif" font-size="10.00">cstring</text>
</a>
</g>
</g>
<!-- Node21&#45;&gt;Node23 -->
<g id="edge24_Node000021_Node000023" class="edge">
<title>Node21&#45;&gt;Node23</title>
<g id="a_edge24_Node000021_Node000023"><a xlink:title=" ">
<path fill="none" stroke="#63b8ff" d="M377.74,-109.98C367.73,-102.07 352.61,-90.11 340.57,-80.58"/>
<polygon fill="#63b8ff" stroke="#63b8ff" points="342.47,-77.63 332.46,-74.17 338.13,-83.12 342.47,-77.63"/>
</a>
</g>
</g>
<!-- Node24 -->
<g id="Node000024" class="node">
<title>Node24</title>
<g id="a_Node000024"><a xlink:title=" ">
<polygon fill="#e0e0e0" stroke="#999999" points="412.5,-74 364.5,-74 364.5,-55 412.5,-55 412.5,-74"/>
<text text-anchor="middle" x="388.5" y="-62" font-family="Helvetica,sans-Serif" font-size="10.00">iosfwd</text>
</a>
</g>
</g>
<!-- Node21&#45;&gt;Node24 -->
<g id="edge25_Node000021_Node000024" class="edge">
<title>Node21&#45;&gt;Node24</title>
<g id="a_edge25_Node000021_Node000024"><a xlink:title=" ">
<path fill="none" stroke="#63b8ff" d="M388.5,-109.75C388.5,-102.8 388.5,-92.85 388.5,-84.13"/>
<polygon fill="#63b8ff" stroke="#63b8ff" points="392,-84.09 388.5,-74.09 385,-84.09 392,-84.09"/>
</a>
</g>
</g>
<!-- Node25 -->
<g id="Node000025" class="node">
<title>Node25</title>
<g id="a_Node000025"><a xlink:title=" ">
<polygon fill="#e0e0e0" stroke="#999999" points="526.5,-74 468.5,-74 468.5,-55 526.5,-55 526.5,-74"/>
<text text-anchor="middle" x="497.5" y="-62" font-family="Helvetica,sans-Serif" font-size="10.00">memory</text>
</a>
</g>
</g>
<!-- Node21&#45;&gt;Node25 -->
<g id="edge26_Node000021_Node000025" class="edge">
<title>Node21&#45;&gt;Node25</title>
<g id="a_edge26_Node000021_Node000025"><a xlink:title=" ">
<path fill="none" stroke="#63b8ff" d="M406.01,-109.98C423.47,-101.5 450.51,-88.35 470.67,-78.54"/>
<polygon fill="#63b8ff" stroke="#63b8ff" points="472.21,-81.69 479.67,-74.17 469.14,-75.4 472.21,-81.69"/>
</a>
</g>
</g>
<!-- Node26&#45;&gt;Node25 -->
<g id="edge31_Node000026_Node000025" class="edge">
<title>Node26&#45;&gt;Node25</title>
<g id="a_edge31_Node000026_Node000025"><a xlink:title=" ">
<path fill="none" stroke="#63b8ff" d="M580.59,-109.98C564.95,-101.61 540.84,-88.7 522.62,-78.95"/>
<polygon fill="#63b8ff" stroke="#63b8ff" points="524.16,-75.8 513.7,-74.17 520.86,-81.98 524.16,-75.8"/>
</a>
</g>
</g>
<!-- Node27 -->
<g id="Node000027" class="node">
<title>Node27</title>
<g id="a_Node000027"><a xlink:title=" ">
<polygon fill="#e0e0e0" stroke="#999999" points="743,-74 610,-74 610,-55 743,-55 743,-74"/>
<text text-anchor="middle" x="676.5" y="-62" font-family="Helvetica,sans-Serif" font-size="10.00">opencv2/core/types.hpp</text>
</a>
</g>
</g>
<!-- Node26&#45;&gt;Node27 -->
<g id="edge32_Node000026_Node000027" class="edge">
<title>Node26&#45;&gt;Node27</title>
<g id="a_edge32_Node000026_Node000027"><a xlink:title=" ">
<path fill="none" stroke="#63b8ff" d="M609.35,-109.98C621.64,-101.84 640.41,-89.41 654.98,-79.76"/>
<polygon fill="#63b8ff" stroke="#63b8ff" points="657.01,-82.61 663.41,-74.17 653.14,-76.78 657.01,-82.61"/>
</a>
</g>
</g>
<!-- Node28 -->
<g id="Node000028" class="node">
<title>Node28</title>
<g id="a_Node000028"><a xlink:href="../../dd/de3/types_8hpp.html" target="_top" xlink:title="状态类型系统">
<polygon fill="white" stroke="#666666" points="972.5,-74 882.5,-74 882.5,-55 972.5,-55 972.5,-74"/>
<text text-anchor="middle" x="927.5" y="-62" font-family="Helvetica,sans-Serif" font-size="10.00">rmvl/types.hpp</text>
</a>
</g>
</g>
<!-- Node26&#45;&gt;Node28 -->
<g id="edge33_Node000026_Node000028" class="edge">
<title>Node26&#45;&gt;Node28</title>
<g id="a_edge33_Node000026_Node000028"><a xlink:title=" ">
<path fill="none" stroke="#63b8ff" d="M649.68,-109.98C710.79,-100.2 810.58,-84.22 872.46,-74.31"/>
<polygon fill="#63b8ff" stroke="#63b8ff" points="873.11,-77.75 882.43,-72.72 872,-70.84 873.11,-77.75"/>
</a>
</g>
</g>
<!-- Node28&#45;&gt;Node11 -->
<g id="edge36_Node000028_Node000011" class="edge">
<title>Node28&#45;&gt;Node11</title>
<g id="a_edge36_Node000028_Node000011"><a xlink:title=" ">
<path fill="none" stroke="#63b8ff" d="M972.68,-55.85C1028.37,-46.42 1123.06,-30.39 1183.64,-20.13"/>
<polygon fill="#63b8ff" stroke="#63b8ff" points="1184.53,-23.53 1193.8,-18.41 1183.36,-16.63 1184.53,-23.53"/>
</a>
</g>
</g>
<!-- Node28&#45;&gt;Node17 -->
<g id="edge34_Node000028_Node000017" class="edge">
<title>Node28&#45;&gt;Node17</title>
<g id="a_edge34_Node000028_Node000017"><a xlink:title=" ">
<path fill="none" stroke="#63b8ff" d="M895.15,-54.95C863.47,-46.57 813.56,-33.31 761.29,-19.2"/>
<polygon fill="#63b8ff" stroke="#63b8ff" points="762.08,-15.79 751.51,-16.56 760.25,-22.54 762.08,-15.79"/>
</a>
</g>
</g>
<!-- Node28&#45;&gt;Node18 -->
<g id="edge38_Node000028_Node000018" class="edge">
<title>Node28&#45;&gt;Node18</title>
<g id="a_edge38_Node000028_Node000018"><a xlink:title=" ">
<path fill="none" stroke="#63b8ff" d="M882.45,-56.21C879.42,-55.79 876.42,-55.38 873.5,-55 730.25,-36.55 560.1,-21.32 478.64,-14.45"/>
<polygon fill="#63b8ff" stroke="#63b8ff" points="478.47,-10.92 468.21,-13.57 477.88,-17.9 478.47,-10.92"/>
</a>
</g>
</g>
<!-- Node29 -->
<g id="Node000029" class="node">
<title>Node29</title>
<g id="a_Node000029"><a xlink:title=" ">
<polygon fill="#e0e0e0" stroke="#999999" points="1044,-19 971,-19 971,0 1044,0 1044,-19"/>
<text text-anchor="middle" x="1007.5" y="-7" font-family="Helvetica,sans-Serif" font-size="10.00">string_view</text>
</a>
</g>
</g>
<!-- Node28&#45;&gt;Node29 -->
<g id="edge35_Node000028_Node000029" class="edge">
<title>Node28&#45;&gt;Node29</title>
<g id="a_edge35_Node000028_Node000029"><a xlink:title=" ">
<path fill="none" stroke="#63b8ff" d="M940.35,-54.98C952.64,-46.84 971.41,-34.41 985.98,-24.76"/>
<polygon fill="#63b8ff" stroke="#63b8ff" points="988.01,-27.61 994.41,-19.17 984.14,-21.78 988.01,-27.61"/>
</a>
</g>
</g>
<!-- Node30 -->
<g id="Node000030" class="node">
<title>Node30</title>
<g id="a_Node000030"><a xlink:title=" ">
<polygon fill="#e0e0e0" stroke="#999999" points="953,-19 902,-19 902,0 953,0 953,-19"/>
<text text-anchor="middle" x="927.5" y="-7" font-family="Helvetica,sans-Serif" font-size="10.00">variant</text>
</a>
</g>
</g>
<!-- Node28&#45;&gt;Node30 -->
<g id="edge37_Node000028_Node000030" class="edge">
<title>Node28&#45;&gt;Node30</title>
<g id="a_edge37_Node000028_Node000030"><a xlink:title=" ">
<path fill="none" stroke="#63b8ff" d="M927.5,-54.75C927.5,-47.8 927.5,-37.85 927.5,-29.13"/>
<polygon fill="#63b8ff" stroke="#63b8ff" points="931,-29.09 927.5,-19.09 924,-29.09 931,-29.09"/>
</a>
</g>
</g>
</g>
</svg>
