<?xml version="1.0" encoding="UTF-8" standalone="no"?>
<!DOCTYPE svg PUBLIC "-//W3C//DTD SVG 1.1//EN"
 "http://www.w3.org/Graphics/SVG/1.1/DTD/svg11.dtd">
<!-- Generated by graphviz version 14.1.2 (0)
 -->
<!-- Title: rm::hash_aggregate::operator() Pages: 1 -->
<svg width="400pt" height="53pt"
 viewBox="0.00 0.00 400.00 53.00" xmlns="http://www.w3.org/2000/svg" xmlns:xlink="http://www.w3.org/1999/xlink">
<g id="graph0" class="graph" transform="scale(1 1) rotate(0) translate(4 49.12)">
<title>rm::hash_aggregate::operator()</title>
<!-- Node1 -->
<g id="Node000001" class="node">
<title>Node1</title>
<g id="a_Node000001"><a xlink:title=" ">
<polygon fill="#999999" stroke="#666666" points="113.5,-33.5 0,-33.5 0,0 113.5,0 113.5,-33.5"/>
<text xml:space="preserve" text-anchor="start" x="8" y="-20" font-family="Helvetica,sans-Serif" font-size="10.00">rm::hash_aggregate</text>
<text xml:space="preserve" text-anchor="middle" x="56.75" y="-7.25" font-family="Helvetica,sans-Serif" font-size="10.00">::operator()</text>
</a>
</g>
</g>
<!-- Node2 -->
<g id="Node000002" class="node">
<title>Node2</title>
<g id="a_Node000002"><a xlink:href="../../d5/d3e/group__core__reflect.html#ga9863cff22a9ace50a697915560ee8290" target="_top" xlink:title="遍历聚合类的每一个数据成员">
<polygon fill="white" stroke="#666666" points="263.75,-27.12 149.5,-27.12 149.5,-6.38 263.75,-6.38 263.75,-27.12"/>
<text xml:space="preserve" text-anchor="middle" x="206.62" y="-13.62" font-family="Helvetica,sans-Serif" font-size="10.00">rm::reflect::for_each</text>
</a>
</g>
</g>
<!-- Node1&#45;&gt;Node2 -->
<g id="edge1_Node000001_Node000002" class="edge">
<title>Node1&#45;&gt;Node2</title>
<g id="a_edge1_Node000001_Node000002"><a xlink:title=" ">
<path fill="none" stroke="#63b8ff" d="M113.66,-16.75C121.55,-16.75 129.73,-16.75 137.82,-16.75"/>
<polygon fill="#63b8ff" stroke="#63b8ff" points="137.64,-20.25 147.64,-16.75 137.64,-13.25 137.64,-20.25"/>
</a>
</g>
</g>
<!-- Node3 -->
<g id="Node000003" class="node">
<title>Node3</title>
<g id="a_Node000003"><a xlink:href="../../d5/d3e/group__core__reflect.html#gadc3b4f53ef6981ca8c58abd401a506b9" target="_top" xlink:title="获取指定类型的成员个数">
<polygon fill="white" stroke="#666666" points="391.5,-27.12 299.75,-27.12 299.75,-6.38 391.5,-6.38 391.5,-27.12"/>
<text xml:space="preserve" text-anchor="middle" x="345.62" y="-13.62" font-family="Helvetica,sans-Serif" font-size="10.00">rm::reflect::size</text>
</a>
</g>
</g>
<!-- Node2&#45;&gt;Node3 -->
<g id="edge2_Node000002_Node000003" class="edge">
<title>Node2&#45;&gt;Node3</title>
<g id="a_edge2_Node000002_Node000003"><a xlink:title=" ">
<path fill="none" stroke="#63b8ff" d="M264.14,-16.75C272.06,-16.75 280.21,-16.75 288.13,-16.75"/>
<polygon fill="#63b8ff" stroke="#63b8ff" points="288.02,-20.25 298.02,-16.75 288.02,-13.25 288.02,-20.25"/>
</a>
</g>
</g>
<!-- Node3&#45;&gt;Node3 -->
<g id="edge3_Node000003_Node000003" class="edge">
<title>Node3&#45;&gt;Node3</title>
<g id="a_edge3_Node000003_Node000003"><a xlink:title=" ">
<path fill="none" stroke="#63b8ff" d="M323.23,-27.52C314.27,-36.18 321.73,-45.12 345.62,-45.12 358.69,-45.12 366.84,-42.45 370.08,-38.61"/>
<polygon fill="#63b8ff" stroke="#63b8ff" points="373.57,-38.2 368.3,-29.01 366.69,-39.48 373.57,-38.2"/>
</a>
</g>
</g>
</g>
</svg>
