<?xml version="1.0" encoding="UTF-8" standalone="no"?>
<!DOCTYPE svg PUBLIC "-//W3C//DTD SVG 1.1//EN"
 "http://www.w3.org/Graphics/SVG/1.1/DTD/svg11.dtd">
<!-- Generated by graphviz version 14.1.2 (0)
 -->
<!-- Title: RMVL 核心模块 Pages: 1 -->
<svg width="261pt" height="150pt"
 viewBox="0.00 0.00 261.00 150.00" xmlns="http://www.w3.org/2000/svg" xmlns:xlink="http://www.w3.org/1999/xlink">
<g id="graph0" class="graph" transform="scale(1 1) rotate(0) translate(4 145.5)">
<title>RMVL 核心模块</title>
<!-- Node1 -->
<g id="Node000001" class="node">
<title>Node1</title>
<g id="a_Node000001"><a xlink:title="涵盖了有关异常处理、定时器、编程工具等相关内容">
<polygon fill="#999999" stroke="#666666" points="85.75,-81.5 0,-81.5 0,-60 85.75,-60 85.75,-81.5"/>
<text xml:space="preserve" text-anchor="middle" x="42.88" y="-68" font-family="Helvetica,sans-Serif" font-size="10.00">RMVL 核心模块</text>
</a>
</g>
</g>
<!-- Node3 -->
<g id="Node000003" class="node">
<title>Node3</title>
<g id="a_Node000003"><a xlink:href="../../de/df6/group__core__meta.html" target="_top" xlink:title="目前提供了 hash 生成相关的 Type Traits">
<polygon fill="white" stroke="#666666" points="209.75,-141.5 164.5,-141.5 164.5,-120 209.75,-120 209.75,-141.5"/>
<text xml:space="preserve" text-anchor="middle" x="187.12" y="-128" font-family="Helvetica,sans-Serif" font-size="10.00">元编程</text>
</a>
</g>
</g>
<!-- Node1&#45;&gt;Node3 -->
<g id="edge2" class="edge">
<title>Node1&#45;&gt;Node3</title>
<path fill="none" stroke="black" d="M73.08,-87.28C87.46,-95.02 105.22,-104 121.75,-110.75 135.51,-116.37 151.46,-121.34 164.04,-124.91"/>
<polygon fill="black" stroke="black" points="75.06,-84.37 64.6,-82.64 71.69,-90.51 75.06,-84.37"/>
</g>
<!-- Node2 -->
<g id="Node000002" class="node">
<title>Node2</title>
<g id="a_Node000002"><a xlink:href="../../d5/d3e/group__core__reflect.html" target="_top" xlink:title="提供了 C++17 和 C++20 两种实现的聚合体编译期反射功能">
<polygon fill="white" stroke="#666666" points="234.12,-101.5 140.12,-101.5 140.12,-80 234.12,-80 234.12,-101.5"/>
<text xml:space="preserve" text-anchor="middle" x="187.12" y="-88" font-family="Helvetica,sans-Serif" font-size="10.00">聚合体编译期反射</text>
</a>
</g>
</g>
<!-- Node1&#45;&gt;Node2 -->
<g id="edge1" class="edge">
<title>Node1&#45;&gt;Node2</title>
<path fill="none" stroke="black" d="M97.56,-78.3C111.45,-80.25 126.29,-82.34 139.77,-84.23"/>
<polygon fill="black" stroke="black" points="98.06,-74.83 87.67,-76.91 97.08,-81.77 98.06,-74.83"/>
</g>
<!-- Node4 -->
<g id="Node000004" class="node">
<title>Node4</title>
<g id="a_Node000004"><a xlink:href="../../d0/d17/group__core__str.html" target="_top" xlink:title="提供了 Python 风格的字符串处理函数，例如 split、strip 等">
<polygon fill="white" stroke="#666666" points="252.5,-61.5 121.75,-61.5 121.75,-40 252.5,-40 252.5,-61.5"/>
<text xml:space="preserve" text-anchor="middle" x="187.12" y="-48" font-family="Helvetica,sans-Serif" font-size="10.00">Python 风格的字符串处理</text>
</a>
</g>
</g>
<!-- Node1&#45;&gt;Node4 -->
<g id="edge3" class="edge">
<title>Node1&#45;&gt;Node4</title>
<path fill="none" stroke="black" d="M97.37,-63.23C105.19,-62.13 113.32,-60.99 121.34,-59.86"/>
<polygon fill="black" stroke="black" points="97.08,-59.73 87.67,-64.59 98.06,-66.67 97.08,-59.73"/>
</g>
<!-- Node5 -->
<g id="Node000005" class="node">
<title>Node5</title>
<g id="a_Node000005"><a xlink:href="../../db/d06/group__core__timer.html" target="_top" xlink:title=" ">
<polygon fill="white" stroke="#666666" points="229.25,-21.5 145,-21.5 145,0 229.25,0 229.25,-21.5"/>
<text xml:space="preserve" text-anchor="middle" x="187.12" y="-8" font-family="Helvetica,sans-Serif" font-size="10.00">定时、计时模块</text>
</a>
</g>
</g>
<!-- Node1&#45;&gt;Node5 -->
<g id="edge4" class="edge">
<title>Node1&#45;&gt;Node5</title>
<path fill="none" stroke="black" d="M73.08,-54.22C87.46,-46.48 105.22,-37.5 121.75,-30.75 129.55,-27.56 138.06,-24.59 146.25,-21.95"/>
<polygon fill="black" stroke="black" points="71.69,-50.99 64.6,-58.86 75.06,-57.13 71.69,-50.99"/>
</g>
</g>
</svg>
