<?xml version="1.0" encoding="UTF-8" standalone="no"?>
<!DOCTYPE svg PUBLIC "-//W3C//DTD SVG 1.1//EN"
 "http://www.w3.org/Graphics/SVG/1.1/DTD/svg11.dtd">
<!-- Generated by graphviz version 2.43.0 (0)
 -->
<!-- Title: rm::DgramSocket::multiwrite Pages: 1 -->
<svg width="501pt" height="57pt"
 viewBox="0.00 0.00 501.00 56.54" xmlns="http://www.w3.org/2000/svg" xmlns:xlink="http://www.w3.org/1999/xlink">
<g id="graph0" class="graph" transform="scale(1 1) rotate(0) translate(4 52.54)">
<title>rm::DgramSocket::multiwrite</title>
<!-- Node1 -->
<g id="Node000001" class="node">
<title>Node1</title>
<g id="a_Node000001"><a xlink:title="同步多缓冲区写入">
<polygon fill="#999999" stroke="#666666" points="142,-47 0,-47 0,-28 142,-28 142,-47"/>
<text text-anchor="middle" x="71" y="-35" font-family="Helvetica,sans-Serif" font-size="10.00">rm::DgramSocket::multiwrite</text>
</a>
</g>
</g>
<!-- Node2 -->
<g id="Node000002" class="node">
<title>Node2</title>
<g id="a_Node000002"><a xlink:href="../../d0/d75/classrm_1_1DgramSocket.html#a353ebe3282840f6775df68fc00b455f6" target="_top" xlink:title="获取绑定的端点">
<polygon fill="white" stroke="#666666" points="493,-47 356,-47 356,-28 493,-28 493,-47"/>
<text text-anchor="middle" x="424.5" y="-35" font-family="Helvetica,sans-Serif" font-size="10.00">rm::DgramSocket::endpoint</text>
</a>
</g>
</g>
<!-- Node1&#45;&gt;Node2 -->
<g id="edge1_Node000001_Node000002" class="edge">
<title>Node1&#45;&gt;Node2</title>
<g id="a_edge1_Node000001_Node000002"><a xlink:title=" ">
<path fill="none" stroke="#63b8ff" d="M142.08,-44.29C154.05,-45.21 166.37,-46.01 178,-46.5 241.05,-49.17 256.95,-49.24 320,-46.5 328.35,-46.14 337.08,-45.61 345.76,-44.99"/>
<polygon fill="#63b8ff" stroke="#63b8ff" points="346.2,-48.47 355.91,-44.23 345.68,-41.49 346.2,-48.47"/>
</a>
</g>
</g>
<!-- Node3 -->
<g id="Node000003" class="node">
<title>Node3</title>
<g id="a_Node000003"><a xlink:href="../../d0/d75/classrm_1_1DgramSocket.html#a8e3a6f732a596923bffda381b8edb01d" target="_top" xlink:title="同步多缓冲区写入">
<polygon fill="white" stroke="#666666" points="320,-19 178,-19 178,0 320,0 320,-19"/>
<text text-anchor="middle" x="249" y="-7" font-family="Helvetica,sans-Serif" font-size="10.00">rm::DgramSocket::multiwrite</text>
</a>
</g>
</g>
<!-- Node1&#45;&gt;Node3 -->
<g id="edge2_Node000001_Node000003" class="edge">
<title>Node1&#45;&gt;Node3</title>
<g id="a_edge2_Node000001_Node000003"><a xlink:title=" ">
<path fill="none" stroke="#63b8ff" d="M132.08,-27.94C146.94,-25.58 163,-23.02 178.28,-20.59"/>
<polygon fill="#63b8ff" stroke="#63b8ff" points="178.87,-24.04 188.19,-19.01 177.77,-17.13 178.87,-24.04"/>
</a>
</g>
</g>
<!-- Node3&#45;&gt;Node2 -->
<g id="edge3_Node000003_Node000002" class="edge">
<title>Node3&#45;&gt;Node2</title>
<g id="a_edge3_Node000003_Node000002"><a xlink:title=" ">
<path fill="none" stroke="#63b8ff" d="M309.22,-19.06C323.74,-21.4 339.4,-23.93 354.34,-26.34"/>
<polygon fill="#63b8ff" stroke="#63b8ff" points="354.11,-29.85 364.54,-27.99 355.23,-22.94 354.11,-29.85"/>
</a>
</g>
</g>
<!-- Node3&#45;&gt;Node3 -->
<g id="edge4_Node000003_Node000003" class="edge">
<title>Node3&#45;&gt;Node3</title>
<g id="a_edge4_Node000003_Node000003"><a xlink:title=" ">
<path fill="none" stroke="#63b8ff" d="M222.18,-19.08C209.13,-27.73 218.07,-37 249,-37 269.78,-37 280.63,-32.82 281.56,-27.45"/>
<polygon fill="#63b8ff" stroke="#63b8ff" points="284.36,-25.35 275.82,-19.08 278.59,-29.31 284.36,-25.35"/>
</a>
</g>
</g>
</g>
</svg>
