<?xml version="1.0" encoding="UTF-8" standalone="no"?>
<!DOCTYPE svg PUBLIC "-//W3C//DTD SVG 1.1//EN"
 "http://www.w3.org/Graphics/SVG/1.1/DTD/svg11.dtd">
<!-- Generated by graphviz version 2.43.0 (0)
 -->
<!-- Title: rmvl/types.hpp Pages: 1 -->
<!--zoomable 464 -->
<svg id="main" version="1.1" xmlns="http://www.w3.org/2000/svg" xmlns:xlink="http://www.w3.org/1999/xlink" xml:space="preserve" onload="init(evt)">
<style type="text/css"><![CDATA[
.edge:hover path { stroke: red; }
.edge:hover polygon { stroke: red; fill: red; }
]]></style>
<script type="text/javascript"><![CDATA[
var edges = document.getElementsByTagName('g');
if (edges && edges.length) {
  for (var i=0;i<edges.length;i++) {
    if (edges[i].id.substr(0,4)=='edge') {
      edges[i].setAttribute('class','edge');
    }
  }
}
]]></script>
        <defs>
                <circle id="rim" cx="0" cy="0" r="7"/>
                <circle id="rim2" cx="0" cy="0" r="3.5"/>
                <g id="zoomPlus">
                        <use xlink:href="#rim" fill="#404040">
                                <set attributeName="fill" to="#808080" begin="zoomplus.mouseover" end="zoomplus.mouseout"/>
                        </use>
                        <path d="M-4,0h8M0,-4v8" fill="none" stroke="white" stroke-width="1.5" pointer-events="none"/>
                </g>
                <g id="zoomMin">
                        <use xlink:href="#rim" fill="#404040">
                                <set attributeName="fill" to="#808080" begin="zoomminus.mouseover" end="zoomminus.mouseout"/>
                        </use>
                        <path d="M-4,0h8" fill="none" stroke="white" stroke-width="1.5" pointer-events="none"/>
                </g>
                <g id="dirArrow">
                        <path fill="none" stroke="white" stroke-width="1.5" d="M0,-3.0v7 M-2.5,-0.5L0,-3.0L2.5,-0.5"/>
                </g>
               <g id="resetDef">
                       <use xlink:href="#rim2" fill="#404040">
                               <set attributeName="fill" to="#808080" begin="reset.mouseover" end="reset.mouseout"/>
                       </use>
               </g>
        </defs>

<script type="text/javascript">
var viewWidth = 2112;
var viewHeight = 464;
var sectionId = 'dynsection-1';
</script>
<script xlink:href="../../svgpan.js"/>
<svg id="graph" class="graph">
<g id="viewport">
<title>rmvl/types.hpp</title>
<polygon fill="white" stroke="transparent" points="-4,4 -4,-460 2108.39,-460 2108.39,4 -4,4"/>
<!-- Node1 -->
<g id="node1" class="node">
<title>Node1</title>
<g id="a_node1"><a xlink:title="常用状态类型定义">
<polygon fill="#bfbfbf" stroke="black" points="1372.39,-436.5 1372.39,-455.5 1462.39,-455.5 1462.39,-436.5 1372.39,-436.5"/>
<text text-anchor="middle" x="1417.39" y="-443.5" font-family="Helvetica,sans-Serif" font-size="10.00">rmvl/types.hpp</text>
</a>
</g>
</g>
<!-- Node2 -->
<g id="node2" class="node">
<title>Node2</title>
<g id="a_node2"><a xlink:href="../../d8/d36/combo_8h.html" target="_top" xlink:title="the combination of the features header file">
<polygon fill="white" stroke="black" points="1167.39,-319 1167.39,-338 1287.39,-338 1287.39,-319 1167.39,-319"/>
<text text-anchor="middle" x="1227.39" y="-326" font-family="Helvetica,sans-Serif" font-size="10.00">rmvl/combo/combo.h</text>
</a>
</g>
</g>
<!-- Node1&#45;&gt;Node2 -->
<g id="edge1" class="edge">
<title>Node1&#45;&gt;Node2</title>
<path fill="none" stroke="midnightblue" d="M1394.37,-431.01C1354.6,-406.83 1274.16,-357.93 1241.58,-338.12"/>
<polygon fill="midnightblue" stroke="midnightblue" points="1392.74,-434.11 1403.11,-436.32 1396.38,-428.13 1392.74,-434.11"/>
</g>
<!-- Node36 -->
<g id="node36" class="node">
<title>Node36</title>
<g id="a_node36"><a xlink:href="../../d2/d74/feature_8h.html" target="_top" xlink:title="feature class header">
<polygon fill="white" stroke="black" points="1484.89,-380.5 1484.89,-399.5 1609.89,-399.5 1609.89,-380.5 1484.89,-380.5"/>
<text text-anchor="middle" x="1547.39" y="-387.5" font-family="Helvetica,sans-Serif" font-size="10.00">rmvl/feature/feature.h</text>
</a>
</g>
</g>
<!-- Node1&#45;&gt;Node36 -->
<g id="edge44" class="edge">
<title>Node1&#45;&gt;Node36</title>
<path fill="none" stroke="midnightblue" d="M1447.47,-432.5C1471.84,-422.38 1505.53,-408.39 1526.89,-399.52"/>
<polygon fill="midnightblue" stroke="midnightblue" points="1445.88,-429.38 1437.99,-436.44 1448.56,-435.84 1445.88,-429.38"/>
</g>
<!-- Node3 -->
<g id="node3" class="node">
<title>Node3</title>
<g id="a_node3"><a xlink:href="../../dd/d92/combo_2armor_8h.html" target="_top" xlink:title="装甲板类头文件">
<polygon fill="white" stroke="black" points="1540.39,-257.5 1540.39,-276.5 1656.39,-276.5 1656.39,-257.5 1540.39,-257.5"/>
<text text-anchor="middle" x="1598.39" y="-264.5" font-family="Helvetica,sans-Serif" font-size="10.00">rmvl/combo/armor.h</text>
</a>
</g>
</g>
<!-- Node2&#45;&gt;Node3 -->
<g id="edge2" class="edge">
<title>Node2&#45;&gt;Node3</title>
<path fill="none" stroke="midnightblue" d="M1276.62,-316.94C1283.58,-315.55 1290.66,-314.2 1297.39,-313 1381.53,-298.01 1479.51,-284 1540.25,-275.71"/>
<polygon fill="midnightblue" stroke="midnightblue" points="1275.66,-313.56 1266.56,-318.98 1277.05,-320.42 1275.66,-313.56"/>
</g>
<!-- Node8 -->
<g id="node8" class="node">
<title>Node8</title>
<g id="a_node8"><a xlink:href="../../de/de6/combo_2rune_8h.html" target="_top" xlink:title="神符类头文件">
<polygon fill="white" stroke="black" points="1807.89,-257.5 1807.89,-276.5 1916.89,-276.5 1916.89,-257.5 1807.89,-257.5"/>
<text text-anchor="middle" x="1862.39" y="-264.5" font-family="Helvetica,sans-Serif" font-size="10.00">rmvl/combo/rune.h</text>
</a>
</g>
</g>
<!-- Node2&#45;&gt;Node8 -->
<g id="edge7" class="edge">
<title>Node2&#45;&gt;Node8</title>
<path fill="none" stroke="midnightblue" d="M1274.24,-316.95C1281.95,-315.46 1289.87,-314.07 1297.39,-313 1483.45,-286.43 1706.38,-274.46 1807.6,-270.09"/>
<polygon fill="midnightblue" stroke="midnightblue" points="1273.4,-313.55 1264.29,-318.96 1274.79,-320.42 1273.4,-313.55"/>
</g>
<!-- Node11 -->
<g id="node11" class="node">
<title>Node11</title>
<g id="a_node11"><a xlink:href="../../d1/dad/rmvl_2combo_8hpp.html" target="_top" xlink:title=" ">
<polygon fill="white" stroke="black" points="1179.39,-257.5 1179.39,-276.5 1275.39,-276.5 1275.39,-257.5 1179.39,-257.5"/>
<text text-anchor="middle" x="1227.39" y="-264.5" font-family="Helvetica,sans-Serif" font-size="10.00">rmvl/combo.hpp</text>
</a>
</g>
</g>
<!-- Node2&#45;&gt;Node11 -->
<g id="edge10" class="edge">
<title>Node2&#45;&gt;Node11</title>
<path fill="none" stroke="midnightblue" d="M1227.39,-308.82C1227.39,-298 1227.39,-284.9 1227.39,-276.51"/>
<polygon fill="midnightblue" stroke="midnightblue" points="1223.89,-308.98 1227.39,-318.98 1230.89,-308.98 1223.89,-308.98"/>
</g>
<!-- Node12 -->
<g id="node12" class="node">
<title>Node12</title>
<g id="a_node12"><a xlink:href="../../dc/ded/tracker_8h.html" target="_top" xlink:title="追踪器抽象头文件">
<polygon fill="white" stroke="black" points="1303.89,-257.5 1303.89,-276.5 1424.89,-276.5 1424.89,-257.5 1303.89,-257.5"/>
<text text-anchor="middle" x="1364.39" y="-264.5" font-family="Helvetica,sans-Serif" font-size="10.00">rmvl/tracker/tracker.h</text>
</a>
</g>
</g>
<!-- Node2&#45;&gt;Node12 -->
<g id="edge11" class="edge">
<title>Node2&#45;&gt;Node12</title>
<path fill="none" stroke="midnightblue" d="M1256.22,-314.98C1282.82,-303.42 1321.62,-286.58 1344.8,-276.51"/>
<polygon fill="midnightblue" stroke="midnightblue" points="1254.79,-311.78 1247.02,-318.98 1257.58,-318.2 1254.79,-311.78"/>
</g>
<!-- Node4 -->
<g id="node4" class="node">
<title>Node4</title>
<g id="a_node4"><a xlink:href="../../d7/de6/tracker_2gyro__tracker_8h.html" target="_top" xlink:title="装甲板追踪器头文件">
<polygon fill="white" stroke="black" points="1597.39,-196 1597.39,-215 1745.39,-215 1745.39,-196 1597.39,-196"/>
<text text-anchor="middle" x="1671.39" y="-203" font-family="Helvetica,sans-Serif" font-size="10.00">rmvl/tracker/gyro_tracker.h</text>
</a>
</g>
</g>
<!-- Node3&#45;&gt;Node4 -->
<g id="edge3" class="edge">
<title>Node3&#45;&gt;Node4</title>
<path fill="none" stroke="midnightblue" d="M1616.82,-250.97C1630.79,-239.59 1649.46,-224.37 1660.95,-215.01"/>
<polygon fill="midnightblue" stroke="midnightblue" points="1614.39,-248.44 1608.85,-257.48 1618.81,-253.87 1614.39,-248.44"/>
</g>
<!-- Node6 -->
<g id="node6" class="node">
<title>Node6</title>
<g id="a_node6"><a xlink:href="../../d5/dea/tracker_2planar__tracker_8h.html" target="_top" xlink:title="平面目标追踪器头文件">
<polygon fill="white" stroke="black" points="1469.39,-190.5 1469.39,-220.5 1579.39,-220.5 1579.39,-190.5 1469.39,-190.5"/>
<text text-anchor="start" x="1477.39" y="-208.5" font-family="Helvetica,sans-Serif" font-size="10.00">rmvl/tracker/planar</text>
<text text-anchor="middle" x="1524.39" y="-197.5" font-family="Helvetica,sans-Serif" font-size="10.00">_tracker.h</text>
</a>
</g>
</g>
<!-- Node3&#45;&gt;Node6 -->
<g id="edge5" class="edge">
<title>Node3&#45;&gt;Node6</title>
<path fill="none" stroke="midnightblue" d="M1579.98,-251.2C1568.31,-241.81 1553.31,-229.75 1541.83,-220.52"/>
<polygon fill="midnightblue" stroke="midnightblue" points="1577.8,-253.94 1587.79,-257.48 1582.19,-248.48 1577.8,-253.94"/>
</g>
<!-- Node5 -->
<g id="node5" class="node">
<title>Node5</title>
<g id="a_node5"><a xlink:href="../../d1/d6b/detector_2gyro__detector_8h.html" target="_top" xlink:title="装甲板识别派生类头文件">
<polygon fill="white" stroke="black" points="1678.89,-67.5 1678.89,-97.5 1785.89,-97.5 1785.89,-67.5 1678.89,-67.5"/>
<text text-anchor="start" x="1686.89" y="-85.5" font-family="Helvetica,sans-Serif" font-size="10.00">rmvl/detector/gyro</text>
<text text-anchor="middle" x="1732.39" y="-74.5" font-family="Helvetica,sans-Serif" font-size="10.00">_detector.h</text>
</a>
</g>
</g>
<!-- Node4&#45;&gt;Node5 -->
<g id="edge4" class="edge">
<title>Node4&#45;&gt;Node5</title>
<path fill="none" stroke="midnightblue" d="M1680.38,-186.67C1692.59,-162.44 1714.18,-119.62 1725.31,-97.54"/>
<polygon fill="midnightblue" stroke="midnightblue" points="1677.15,-185.29 1675.77,-195.8 1683.4,-188.44 1677.15,-185.29"/>
</g>
<!-- Node7 -->
<g id="node7" class="node">
<title>Node7</title>
<g id="a_node7"><a xlink:href="../../da/d95/detector_2armor__detector_8h.html" target="_top" xlink:title="装甲板识别派生类头文件">
<polygon fill="white" stroke="black" points="1545.89,-67.5 1545.89,-97.5 1660.89,-97.5 1660.89,-67.5 1545.89,-67.5"/>
<text text-anchor="start" x="1553.89" y="-85.5" font-family="Helvetica,sans-Serif" font-size="10.00">rmvl/detector/armor</text>
<text text-anchor="middle" x="1603.39" y="-74.5" font-family="Helvetica,sans-Serif" font-size="10.00">_detector.h</text>
</a>
</g>
</g>
<!-- Node6&#45;&gt;Node7 -->
<g id="edge6" class="edge">
<title>Node6&#45;&gt;Node7</title>
<path fill="none" stroke="midnightblue" d="M1539.24,-181.76C1555.32,-157.12 1580.49,-118.57 1594.03,-97.84"/>
<polygon fill="midnightblue" stroke="midnightblue" points="1536.3,-179.86 1533.76,-190.14 1542.16,-183.68 1536.3,-179.86"/>
</g>
<!-- Node9 -->
<g id="node9" class="node">
<title>Node9</title>
<g id="a_node9"><a xlink:href="../../dd/d0a/tracker_2rune__tracker_8h.html" target="_top" xlink:title="神符追踪器头文件">
<polygon fill="white" stroke="black" points="1783.39,-196 1783.39,-215 1931.39,-215 1931.39,-196 1783.39,-196"/>
<text text-anchor="middle" x="1857.39" y="-203" font-family="Helvetica,sans-Serif" font-size="10.00">rmvl/tracker/rune_tracker.h</text>
</a>
</g>
</g>
<!-- Node8&#45;&gt;Node9 -->
<g id="edge8" class="edge">
<title>Node8&#45;&gt;Node9</title>
<path fill="none" stroke="midnightblue" d="M1860.82,-247.32C1859.91,-236.5 1858.81,-223.4 1858.1,-215.01"/>
<polygon fill="midnightblue" stroke="midnightblue" points="1857.35,-247.8 1861.67,-257.48 1864.32,-247.22 1857.35,-247.8"/>
</g>
<!-- Node10 -->
<g id="node10" class="node">
<title>Node10</title>
<g id="a_node10"><a xlink:href="../../db/dcc/detector_2rune__detector_8h.html" target="_top" xlink:title="神符识别派生类头文件">
<polygon fill="white" stroke="black" points="1803.89,-67.5 1803.89,-97.5 1910.89,-97.5 1910.89,-67.5 1803.89,-67.5"/>
<text text-anchor="start" x="1811.89" y="-85.5" font-family="Helvetica,sans-Serif" font-size="10.00">rmvl/detector/rune</text>
<text text-anchor="middle" x="1857.39" y="-74.5" font-family="Helvetica,sans-Serif" font-size="10.00">_detector.h</text>
</a>
</g>
</g>
<!-- Node9&#45;&gt;Node10 -->
<g id="edge9" class="edge">
<title>Node9&#45;&gt;Node10</title>
<path fill="none" stroke="midnightblue" d="M1857.39,-185.68C1857.39,-161.3 1857.39,-119.32 1857.39,-97.54"/>
<polygon fill="midnightblue" stroke="midnightblue" points="1853.89,-185.8 1857.39,-195.8 1860.89,-185.8 1853.89,-185.8"/>
</g>
<!-- Node12&#45;&gt;Node4 -->
<g id="edge40" class="edge">
<title>Node12&#45;&gt;Node4</title>
<path fill="none" stroke="midnightblue" d="M1418.33,-255.55C1477.81,-244.02 1572.35,-225.69 1627.48,-215.01"/>
<polygon fill="midnightblue" stroke="midnightblue" points="1417.52,-252.14 1408.37,-257.48 1418.86,-259.01 1417.52,-252.14"/>
</g>
<!-- Node12&#45;&gt;Node6 -->
<g id="edge41" class="edge">
<title>Node12&#45;&gt;Node6</title>
<path fill="none" stroke="midnightblue" d="M1396.72,-253.98C1422.74,-244.3 1459.33,-230.69 1486.68,-220.52"/>
<polygon fill="midnightblue" stroke="midnightblue" points="1395.46,-250.71 1387.31,-257.48 1397.9,-257.27 1395.46,-250.71"/>
</g>
<!-- Node12&#45;&gt;Node9 -->
<g id="edge42" class="edge">
<title>Node12&#45;&gt;Node9</title>
<path fill="none" stroke="midnightblue" d="M1435.12,-258.38C1513.31,-249.82 1642.94,-235.27 1754.39,-221 1768.72,-219.16 1784.15,-217.06 1798.6,-215.03"/>
<polygon fill="midnightblue" stroke="midnightblue" points="1434.47,-254.93 1424.91,-259.49 1435.23,-261.88 1434.47,-254.93"/>
</g>
<!-- Node13 -->
<g id="node13" class="node">
<title>Node13</title>
<g id="a_node13"><a xlink:href="../../d6/dd8/decider_2gyro__decider_8h.html" target="_top" xlink:title="装甲板模块决策器头文件">
<polygon fill="white" stroke="black" points="338.39,-6 338.39,-25 490.39,-25 490.39,-6 338.39,-6"/>
<text text-anchor="middle" x="414.39" y="-13" font-family="Helvetica,sans-Serif" font-size="10.00">rmvl/decider/gyro_decider.h</text>
</a>
</g>
</g>
<!-- Node12&#45;&gt;Node13 -->
<g id="edge12" class="edge">
<title>Node12&#45;&gt;Node13</title>
<path fill="none" stroke="midnightblue" d="M1293.65,-257.81C1290.52,-257.52 1287.42,-257.25 1284.39,-257 776.49,-215.16 633.76,-289.15 142.39,-154 79.36,-136.66 42.76,-152.31 6.39,-98 -1.28,-86.55 -2.74,-77.32 6.39,-67 27.95,-42.6 226.12,-27.32 338.14,-20.56"/>
<polygon fill="midnightblue" stroke="midnightblue" points="1293.42,-261.31 1303.71,-258.79 1294.09,-254.34 1293.42,-261.31"/>
</g>
<!-- Node14 -->
<g id="node14" class="node">
<title>Node14</title>
<g id="a_node14"><a xlink:href="../../d9/dd1/group_8h.html" target="_top" xlink:title="序列组抽象头文件">
<polygon fill="white" stroke="black" points="606.39,-196 606.39,-215 716.39,-215 716.39,-196 606.39,-196"/>
<text text-anchor="middle" x="661.39" y="-203" font-family="Helvetica,sans-Serif" font-size="10.00">rmvl/group/group.h</text>
</a>
</g>
</g>
<!-- Node12&#45;&gt;Node14 -->
<g id="edge13" class="edge">
<title>Node12&#45;&gt;Node14</title>
<path fill="none" stroke="midnightblue" d="M1293.64,-257.92C1290.52,-257.6 1287.42,-257.29 1284.39,-257 1074.85,-236.73 825.12,-218.18 716.44,-210.38"/>
<polygon fill="midnightblue" stroke="midnightblue" points="1293.38,-261.41 1303.69,-258.97 1294.11,-254.45 1293.38,-261.41"/>
</g>
<!-- Node35 -->
<g id="node35" class="node">
<title>Node35</title>
<g id="a_node35"><a xlink:href="../../dc/d2d/rmvl_2tracker_8hpp.html" target="_top" xlink:title=" ">
<polygon fill="white" stroke="black" points="1316.39,-196 1316.39,-215 1412.39,-215 1412.39,-196 1316.39,-196"/>
<text text-anchor="middle" x="1364.39" y="-203" font-family="Helvetica,sans-Serif" font-size="10.00">rmvl/tracker.hpp</text>
</a>
</g>
</g>
<!-- Node12&#45;&gt;Node35 -->
<g id="edge43" class="edge">
<title>Node12&#45;&gt;Node35</title>
<path fill="none" stroke="midnightblue" d="M1364.39,-247.32C1364.39,-236.5 1364.39,-223.4 1364.39,-215.01"/>
<polygon fill="midnightblue" stroke="midnightblue" points="1360.89,-247.48 1364.39,-257.48 1367.89,-247.48 1360.89,-247.48"/>
</g>
<!-- Node15 -->
<g id="node15" class="node">
<title>Node15</title>
<g id="a_node15"><a xlink:href="../../d9/df2/compensator_8h.html" target="_top" xlink:title="抽象补偿类头文件">
<polygon fill="white" stroke="black" points="570.89,-134.5 570.89,-153.5 751.89,-153.5 751.89,-134.5 570.89,-134.5"/>
<text text-anchor="middle" x="661.39" y="-141.5" font-family="Helvetica,sans-Serif" font-size="10.00">rmvl/compensator/compensator.h</text>
</a>
</g>
</g>
<!-- Node14&#45;&gt;Node15 -->
<g id="edge14" class="edge">
<title>Node14&#45;&gt;Node15</title>
<path fill="none" stroke="midnightblue" d="M661.39,-185.82C661.39,-175 661.39,-161.9 661.39,-153.51"/>
<polygon fill="midnightblue" stroke="midnightblue" points="657.89,-185.98 661.39,-195.98 664.89,-185.98 657.89,-185.98"/>
</g>
<!-- Node23 -->
<g id="node23" class="node">
<title>Node23</title>
<g id="a_node23"><a xlink:href="../../d5/d9f/detector_8h.html" target="_top" xlink:title="抽象识别类头文件">
<polygon fill="white" stroke="black" points="1383.39,-134.5 1383.39,-153.5 1517.39,-153.5 1517.39,-134.5 1383.39,-134.5"/>
<text text-anchor="middle" x="1450.39" y="-141.5" font-family="Helvetica,sans-Serif" font-size="10.00">rmvl/detector/detector.h</text>
</a>
</g>
</g>
<!-- Node14&#45;&gt;Node23 -->
<g id="edge23" class="edge">
<title>Node14&#45;&gt;Node23</title>
<path fill="none" stroke="midnightblue" d="M726.84,-199.56C874.84,-188.4 1233.93,-161.32 1383.39,-150.05"/>
<polygon fill="midnightblue" stroke="midnightblue" points="726.26,-196.1 716.56,-200.34 726.79,-203.08 726.26,-196.1"/>
</g>
<!-- Node26 -->
<g id="node26" class="node">
<title>Node26</title>
<g id="a_node26"><a xlink:href="../../d3/df0/group_2gyro__group_8h.html" target="_top" xlink:title="装甲序列组头文件">
<polygon fill="white" stroke="black" points="151.89,-134.5 151.89,-153.5 288.89,-153.5 288.89,-134.5 151.89,-134.5"/>
<text text-anchor="middle" x="220.39" y="-141.5" font-family="Helvetica,sans-Serif" font-size="10.00">rmvl/group/gyro_group.h</text>
</a>
</g>
</g>
<!-- Node14&#45;&gt;Node26 -->
<g id="edge30" class="edge">
<title>Node14&#45;&gt;Node26</title>
<path fill="none" stroke="midnightblue" d="M596.02,-195.68C511.82,-184.32 366.43,-164.7 283.39,-153.5"/>
<polygon fill="midnightblue" stroke="midnightblue" points="595.6,-199.16 605.98,-197.02 596.54,-192.22 595.6,-199.16"/>
</g>
<!-- Node27 -->
<g id="node27" class="node">
<title>Node27</title>
<g id="a_node27"><a xlink:href="../../d8/df3/group_2rune__group_8h.html" target="_top" xlink:title="神符序列组头文件">
<polygon fill="white" stroke="black" points="306.89,-134.5 306.89,-153.5 443.89,-153.5 443.89,-134.5 306.89,-134.5"/>
<text text-anchor="middle" x="375.39" y="-141.5" font-family="Helvetica,sans-Serif" font-size="10.00">rmvl/group/rune_group.h</text>
</a>
</g>
</g>
<!-- Node14&#45;&gt;Node27 -->
<g id="edge31" class="edge">
<title>Node14&#45;&gt;Node27</title>
<path fill="none" stroke="midnightblue" d="M610.45,-193.9C555,-182.37 467.44,-164.15 416.29,-153.51"/>
<polygon fill="midnightblue" stroke="midnightblue" points="609.91,-197.36 620.41,-195.98 611.33,-190.51 609.91,-197.36"/>
</g>
<!-- Node28 -->
<g id="node28" class="node">
<title>Node28</title>
<g id="a_node28"><a xlink:href="../../db/d4f/rmvl_2group_8hpp.html" target="_top" xlink:title=" ">
<polygon fill="white" stroke="black" points="461.89,-134.5 461.89,-153.5 552.89,-153.5 552.89,-134.5 461.89,-134.5"/>
<text text-anchor="middle" x="507.39" y="-141.5" font-family="Helvetica,sans-Serif" font-size="10.00">rmvl/group.hpp</text>
</a>
</g>
</g>
<!-- Node14&#45;&gt;Node28 -->
<g id="edge32" class="edge">
<title>Node14&#45;&gt;Node28</title>
<path fill="none" stroke="midnightblue" d="M629.77,-192.28C599.84,-180.72 555.69,-163.66 529.41,-153.51"/>
<polygon fill="midnightblue" stroke="midnightblue" points="628.73,-195.64 639.32,-195.98 631.26,-189.11 628.73,-195.64"/>
</g>
<!-- Node29 -->
<g id="node29" class="node">
<title>Node29</title>
<g id="a_node29"><a xlink:href="../../dc/d08/predictor_8h.html" target="_top" xlink:title="抽象预测类头文件">
<polygon fill="white" stroke="black" points="770.39,-134.5 770.39,-153.5 910.39,-153.5 910.39,-134.5 770.39,-134.5"/>
<text text-anchor="middle" x="840.39" y="-141.5" font-family="Helvetica,sans-Serif" font-size="10.00">rmvl/predictor/predictor.h</text>
</a>
</g>
</g>
<!-- Node14&#45;&gt;Node29 -->
<g id="edge33" class="edge">
<title>Node14&#45;&gt;Node29</title>
<path fill="none" stroke="midnightblue" d="M696.79,-192.73C731.59,-181.17 783.84,-163.8 814.79,-153.51"/>
<polygon fill="midnightblue" stroke="midnightblue" points="695.42,-189.5 687.03,-195.98 697.63,-196.14 695.42,-189.5"/>
</g>
<!-- Node16 -->
<g id="node16" class="node">
<title>Node16</title>
<g id="a_node16"><a xlink:href="../../d1/d91/compensator_2gravity__compensator_8h.html" target="_top" xlink:title="重力模型补偿头文件">
<polygon fill="white" stroke="black" points="15.89,-67.5 15.89,-97.5 158.89,-97.5 158.89,-67.5 15.89,-67.5"/>
<text text-anchor="start" x="23.89" y="-85.5" font-family="Helvetica,sans-Serif" font-size="10.00">rmvl/compensator/gravity</text>
<text text-anchor="middle" x="87.39" y="-74.5" font-family="Helvetica,sans-Serif" font-size="10.00">_compensator.h</text>
</a>
</g>
</g>
<!-- Node15&#45;&gt;Node16 -->
<g id="edge15" class="edge">
<title>Node15&#45;&gt;Node16</title>
<path fill="none" stroke="midnightblue" d="M560.73,-133.94C419.09,-121.18 177.02,-99.31 167.39,-98 164.73,-97.64 162.03,-97.25 159.3,-96.84"/>
<polygon fill="midnightblue" stroke="midnightblue" points="560.47,-137.43 570.75,-134.85 561.1,-130.46 560.47,-137.43"/>
</g>
<!-- Node17 -->
<g id="node17" class="node">
<title>Node17</title>
<g id="a_node17"><a xlink:href="../../d5/d90/compensator_2gyro__compensator_8h.html" target="_top" xlink:title="整车状态补偿模块接口声明">
<polygon fill="white" stroke="black" points="176.89,-67.5 176.89,-97.5 307.89,-97.5 307.89,-67.5 176.89,-67.5"/>
<text text-anchor="start" x="184.89" y="-85.5" font-family="Helvetica,sans-Serif" font-size="10.00">rmvl/compensator/gyro</text>
<text text-anchor="middle" x="242.39" y="-74.5" font-family="Helvetica,sans-Serif" font-size="10.00">_compensator.h</text>
</a>
</g>
</g>
<!-- Node15&#45;&gt;Node17 -->
<g id="edge16" class="edge">
<title>Node15&#45;&gt;Node17</title>
<path fill="none" stroke="midnightblue" d="M575.98,-133.29C506.25,-125.02 405.23,-112.22 317.39,-98 314.38,-97.51 311.3,-97 308.2,-96.46"/>
<polygon fill="midnightblue" stroke="midnightblue" points="575.7,-136.78 586.04,-134.48 576.52,-129.83 575.7,-136.78"/>
</g>
<!-- Node18 -->
<g id="node18" class="node">
<title>Node18</title>
<g id="a_node18"><a xlink:href="../../d6/ddf/rmvl_2compensator_8hpp.html" target="_top" xlink:title=" ">
<polygon fill="white" stroke="black" points="326.39,-73 326.39,-92 452.39,-92 452.39,-73 326.39,-73"/>
<text text-anchor="middle" x="389.39" y="-80" font-family="Helvetica,sans-Serif" font-size="10.00">rmvl/compensator.hpp</text>
</a>
</g>
</g>
<!-- Node15&#45;&gt;Node18 -->
<g id="edge17" class="edge">
<title>Node15&#45;&gt;Node18</title>
<path fill="none" stroke="midnightblue" d="M612.61,-132.33C559.86,-120.79 476.83,-102.63 428.29,-92.01"/>
<polygon fill="midnightblue" stroke="midnightblue" points="611.9,-135.76 622.42,-134.48 613.4,-128.92 611.9,-135.76"/>
</g>
<!-- Node19 -->
<g id="node19" class="node">
<title>Node19</title>
<g id="a_node19"><a xlink:href="../../d3/d70/decider_8h.html" target="_top" xlink:title="抽象决策类头文件">
<polygon fill="white" stroke="black" points="1108.89,-73 1108.89,-92 1233.89,-92 1233.89,-73 1108.89,-73"/>
<text text-anchor="middle" x="1171.39" y="-80" font-family="Helvetica,sans-Serif" font-size="10.00">rmvl/decider/decider.h</text>
</a>
</g>
</g>
<!-- Node15&#45;&gt;Node19 -->
<g id="edge18" class="edge">
<title>Node15&#45;&gt;Node19</title>
<path fill="none" stroke="midnightblue" d="M762.34,-133.77C870.98,-123.63 1036.63,-107.52 1099.39,-98 1110.23,-96.36 1121.91,-94.18 1132.65,-92.01"/>
<polygon fill="midnightblue" stroke="midnightblue" points="761.97,-130.29 752.34,-134.7 762.62,-137.25 761.97,-130.29"/>
</g>
<!-- Node19&#45;&gt;Node13 -->
<g id="edge19" class="edge">
<title>Node19&#45;&gt;Node13</title>
<path fill="none" stroke="midnightblue" d="M1123.46,-70.98C1115.45,-69.47 1107.2,-68.07 1099.39,-67 879.49,-36.87 617.26,-23.86 490.48,-19"/>
<polygon fill="midnightblue" stroke="midnightblue" points="1122.94,-74.44 1133.43,-72.93 1124.28,-67.57 1122.94,-74.44"/>
</g>
<!-- Node20 -->
<g id="node20" class="node">
<title>Node20</title>
<g id="a_node20"><a xlink:href="../../dd/d03/decider_2rune__decider_8h.html" target="_top" xlink:title="神符模块决策器头文件">
<polygon fill="white" stroke="black" points="934.39,-6 934.39,-25 1086.39,-25 1086.39,-6 934.39,-6"/>
<text text-anchor="middle" x="1010.39" y="-13" font-family="Helvetica,sans-Serif" font-size="10.00">rmvl/decider/rune_decider.h</text>
</a>
</g>
</g>
<!-- Node19&#45;&gt;Node20 -->
<g id="edge20" class="edge">
<title>Node19&#45;&gt;Node20</title>
<path fill="none" stroke="midnightblue" d="M1140.68,-69.1C1108.72,-56.2 1059.5,-36.33 1031.6,-25.06"/>
<polygon fill="midnightblue" stroke="midnightblue" points="1139.43,-72.37 1150.01,-72.87 1142.05,-65.88 1139.43,-72.37"/>
</g>
<!-- Node21 -->
<g id="node21" class="node">
<title>Node21</title>
<g id="a_node21"><a xlink:href="../../de/d06/decider_2translation__decider_8h.html" target="_top" xlink:title="平移目标决策器头文件">
<polygon fill="white" stroke="black" points="1104.39,-0.5 1104.39,-30.5 1238.39,-30.5 1238.39,-0.5 1104.39,-0.5"/>
<text text-anchor="start" x="1112.39" y="-18.5" font-family="Helvetica,sans-Serif" font-size="10.00">rmvl/decider/translation</text>
<text text-anchor="middle" x="1171.39" y="-7.5" font-family="Helvetica,sans-Serif" font-size="10.00">_decider.h</text>
</a>
</g>
</g>
<!-- Node19&#45;&gt;Node21 -->
<g id="edge21" class="edge">
<title>Node19&#45;&gt;Node21</title>
<path fill="none" stroke="midnightblue" d="M1171.39,-62.41C1171.39,-52.22 1171.39,-39.9 1171.39,-30.59"/>
<polygon fill="midnightblue" stroke="midnightblue" points="1167.89,-62.73 1171.39,-72.73 1174.89,-62.73 1167.89,-62.73"/>
</g>
<!-- Node22 -->
<g id="node22" class="node">
<title>Node22</title>
<g id="a_node22"><a xlink:href="../../de/d18/rmvl_2decider_8hpp.html" target="_top" xlink:title=" ">
<polygon fill="white" stroke="black" points="1256.39,-6 1256.39,-25 1354.39,-25 1354.39,-6 1256.39,-6"/>
<text text-anchor="middle" x="1305.39" y="-13" font-family="Helvetica,sans-Serif" font-size="10.00">rmvl/decider.hpp</text>
</a>
</g>
</g>
<!-- Node19&#45;&gt;Node22 -->
<g id="edge22" class="edge">
<title>Node19&#45;&gt;Node22</title>
<path fill="none" stroke="midnightblue" d="M1198.3,-68.44C1224.85,-55.57 1264.66,-36.26 1287.52,-25.17"/>
<polygon fill="midnightblue" stroke="midnightblue" points="1196.65,-65.35 1189.18,-72.87 1199.71,-71.65 1196.65,-65.35"/>
</g>
<!-- Node23&#45;&gt;Node5 -->
<g id="edge26" class="edge">
<title>Node23&#45;&gt;Node5</title>
<path fill="none" stroke="midnightblue" d="M1503.91,-132.49C1548.51,-123.62 1613.68,-110.43 1670.39,-98 1673.09,-97.41 1675.85,-96.79 1678.64,-96.17"/>
<polygon fill="midnightblue" stroke="midnightblue" points="1503,-129.1 1493.88,-134.48 1504.37,-135.97 1503,-129.1"/>
</g>
<!-- Node23&#45;&gt;Node7 -->
<g id="edge25" class="edge">
<title>Node23&#45;&gt;Node7</title>
<path fill="none" stroke="midnightblue" d="M1481.64,-130.85C1506.49,-121.18 1541.3,-107.65 1567.33,-97.52"/>
<polygon fill="midnightblue" stroke="midnightblue" points="1480.36,-127.59 1472.31,-134.48 1482.9,-134.11 1480.36,-127.59"/>
</g>
<!-- Node23&#45;&gt;Node10 -->
<g id="edge27" class="edge">
<title>Node23&#45;&gt;Node10</title>
<path fill="none" stroke="midnightblue" d="M1527.56,-135.17C1597.7,-127.52 1703.91,-114.62 1795.39,-98 1798.11,-97.51 1800.89,-96.97 1803.69,-96.41"/>
<polygon fill="midnightblue" stroke="midnightblue" points="1527.04,-131.71 1517.48,-136.26 1527.8,-138.66 1527.04,-131.71"/>
</g>
<!-- Node23&#45;&gt;Node19 -->
<g id="edge24" class="edge">
<title>Node23&#45;&gt;Node19</title>
<path fill="none" stroke="midnightblue" d="M1400.36,-132.33C1346.25,-120.79 1261.08,-102.63 1211.29,-92.01"/>
<polygon fill="midnightblue" stroke="midnightblue" points="1399.9,-135.81 1410.41,-134.48 1401.36,-128.97 1399.9,-135.81"/>
</g>
<!-- Node24 -->
<g id="node24" class="node">
<title>Node24</title>
<g id="a_node24"><a xlink:href="../../d6/d58/detector_2tag__detector_8h.html" target="_top" xlink:title="AprilTag 识别模块">
<polygon fill="white" stroke="black" points="1372.89,-73 1372.89,-92 1527.89,-92 1527.89,-73 1372.89,-73"/>
<text text-anchor="middle" x="1450.39" y="-80" font-family="Helvetica,sans-Serif" font-size="10.00">rmvl/detector/tag_detector.h</text>
</a>
</g>
</g>
<!-- Node23&#45;&gt;Node24 -->
<g id="edge28" class="edge">
<title>Node23&#45;&gt;Node24</title>
<path fill="none" stroke="midnightblue" d="M1450.39,-124.32C1450.39,-113.5 1450.39,-100.4 1450.39,-92.01"/>
<polygon fill="midnightblue" stroke="midnightblue" points="1446.89,-124.48 1450.39,-134.48 1453.89,-124.48 1446.89,-124.48"/>
</g>
<!-- Node25 -->
<g id="node25" class="node">
<title>Node25</title>
<g id="a_node25"><a xlink:href="../../dd/d9f/rmvl_2detector_8hpp.html" target="_top" xlink:title=" ">
<polygon fill="white" stroke="black" points="1251.89,-73 1251.89,-92 1354.89,-92 1354.89,-73 1251.89,-73"/>
<text text-anchor="middle" x="1303.39" y="-80" font-family="Helvetica,sans-Serif" font-size="10.00">rmvl/detector.hpp</text>
</a>
</g>
</g>
<!-- Node23&#45;&gt;Node25 -->
<g id="edge29" class="edge">
<title>Node23&#45;&gt;Node25</title>
<path fill="none" stroke="midnightblue" d="M1419.83,-130.63C1391.27,-119.07 1349.39,-102.12 1324.41,-92.01"/>
<polygon fill="midnightblue" stroke="midnightblue" points="1418.74,-133.97 1429.33,-134.48 1421.37,-127.48 1418.74,-133.97"/>
</g>
<!-- Node29&#45;&gt;Node19 -->
<g id="edge34" class="edge">
<title>Node29&#45;&gt;Node19</title>
<path fill="none" stroke="midnightblue" d="M902.22,-132.73C954.75,-123.9 1032.1,-110.62 1099.39,-98 1109.29,-96.14 1119.94,-94.05 1129.92,-92.05"/>
<polygon fill="midnightblue" stroke="midnightblue" points="901.34,-129.33 892.06,-134.44 902.5,-136.24 901.34,-129.33"/>
</g>
<!-- Node30 -->
<g id="node30" class="node">
<title>Node30</title>
<g id="a_node30"><a xlink:href="../../df/d4c/predictor_2armor__predictor_8h.html" target="_top" xlink:title="装甲板预测派生类头文件">
<polygon fill="white" stroke="black" points="972.39,-67.5 972.39,-97.5 1090.39,-97.5 1090.39,-67.5 972.39,-67.5"/>
<text text-anchor="start" x="980.39" y="-85.5" font-family="Helvetica,sans-Serif" font-size="10.00">rmvl/predictor/armor</text>
<text text-anchor="middle" x="1031.39" y="-74.5" font-family="Helvetica,sans-Serif" font-size="10.00">_predictor.h</text>
</a>
</g>
</g>
<!-- Node29&#45;&gt;Node30 -->
<g id="edge35" class="edge">
<title>Node29&#45;&gt;Node30</title>
<path fill="none" stroke="midnightblue" d="M877.36,-131.48C908.5,-121.78 953.15,-107.87 986.37,-97.52"/>
<polygon fill="midnightblue" stroke="midnightblue" points="876.26,-128.16 867.75,-134.48 878.34,-134.84 876.26,-128.16"/>
</g>
<!-- Node31 -->
<g id="node31" class="node">
<title>Node31</title>
<g id="a_node31"><a xlink:href="../../d9/de5/predictor_2gyro__predictor_8h.html" target="_top" xlink:title="整车状态预测派生类头文件">
<polygon fill="white" stroke="black" points="470.39,-67.5 470.39,-97.5 580.39,-97.5 580.39,-67.5 470.39,-67.5"/>
<text text-anchor="start" x="478.39" y="-85.5" font-family="Helvetica,sans-Serif" font-size="10.00">rmvl/predictor/gyro</text>
<text text-anchor="middle" x="525.39" y="-74.5" font-family="Helvetica,sans-Serif" font-size="10.00">_predictor.h</text>
</a>
</g>
</g>
<!-- Node29&#45;&gt;Node31 -->
<g id="edge36" class="edge">
<title>Node29&#45;&gt;Node31</title>
<path fill="none" stroke="midnightblue" d="M778.96,-132.79C728.05,-124.13 653.86,-111.08 589.39,-98 586.48,-97.41 583.51,-96.79 580.51,-96.16"/>
<polygon fill="midnightblue" stroke="midnightblue" points="778.38,-136.24 788.82,-134.46 779.55,-129.34 778.38,-136.24"/>
</g>
<!-- Node32 -->
<g id="node32" class="node">
<title>Node32</title>
<g id="a_node32"><a xlink:href="../../d5/dec/predictor_2rune__predictor_8h.html" target="_top" xlink:title="神符预测派生类头文件">
<polygon fill="white" stroke="black" points="598.39,-67.5 598.39,-97.5 708.39,-97.5 708.39,-67.5 598.39,-67.5"/>
<text text-anchor="start" x="606.39" y="-85.5" font-family="Helvetica,sans-Serif" font-size="10.00">rmvl/predictor/rune</text>
<text text-anchor="middle" x="653.39" y="-74.5" font-family="Helvetica,sans-Serif" font-size="10.00">_predictor.h</text>
</a>
</g>
</g>
<!-- Node29&#45;&gt;Node32 -->
<g id="edge37" class="edge">
<title>Node29&#45;&gt;Node32</title>
<path fill="none" stroke="midnightblue" d="M803.8,-131.36C773.33,-121.66 729.84,-107.83 697.46,-97.52"/>
<polygon fill="midnightblue" stroke="midnightblue" points="803,-134.78 813.6,-134.48 805.13,-128.11 803,-134.78"/>
</g>
<!-- Node33 -->
<g id="node33" class="node">
<title>Node33</title>
<g id="a_node33"><a xlink:href="../../dc/d86/predictor_2spi__rune__predictor_8h.html" target="_top" xlink:title="系统参数辨识神符预测头文件">
<polygon fill="white" stroke="black" points="726.89,-67.5 726.89,-97.5 829.89,-97.5 829.89,-67.5 726.89,-67.5"/>
<text text-anchor="start" x="734.89" y="-85.5" font-family="Helvetica,sans-Serif" font-size="10.00">rmvl/predictor/spi</text>
<text text-anchor="middle" x="778.39" y="-74.5" font-family="Helvetica,sans-Serif" font-size="10.00">_rune_predictor.h</text>
</a>
</g>
</g>
<!-- Node29&#45;&gt;Node33 -->
<g id="edge38" class="edge">
<title>Node29&#45;&gt;Node33</title>
<path fill="none" stroke="midnightblue" d="M824.1,-127.37C814.45,-118.11 802.34,-106.48 793,-97.52"/>
<polygon fill="midnightblue" stroke="midnightblue" points="821.87,-130.08 831.5,-134.48 826.71,-125.03 821.87,-130.08"/>
</g>
<!-- Node34 -->
<g id="node34" class="node">
<title>Node34</title>
<g id="a_node34"><a xlink:href="../../df/d54/rmvl_2predictor_8hpp.html" target="_top" xlink:title=" ">
<polygon fill="white" stroke="black" points="848.39,-73 848.39,-92 954.39,-92 954.39,-73 848.39,-73"/>
<text text-anchor="middle" x="901.39" y="-80" font-family="Helvetica,sans-Serif" font-size="10.00">rmvl/predictor.hpp</text>
</a>
</g>
</g>
<!-- Node29&#45;&gt;Node34 -->
<g id="edge39" class="edge">
<title>Node29&#45;&gt;Node34</title>
<path fill="none" stroke="midnightblue" d="M856.46,-127.32C868.05,-116.02 883.25,-101.19 892.66,-92.01"/>
<polygon fill="midnightblue" stroke="midnightblue" points="853.84,-124.99 849.13,-134.48 858.73,-130 853.84,-124.99"/>
</g>
<!-- Node36&#45;&gt;Node2 -->
<g id="edge45" class="edge">
<title>Node36&#45;&gt;Node2</title>
<path fill="none" stroke="midnightblue" d="M1487.38,-378.65C1436.69,-369.8 1362.2,-356.54 1297.39,-344 1287.76,-342.14 1277.41,-340.04 1267.7,-338.04"/>
<polygon fill="midnightblue" stroke="midnightblue" points="1487.06,-382.15 1497.51,-380.42 1488.26,-375.25 1487.06,-382.15"/>
</g>
<!-- Node37 -->
<g id="node37" class="node">
<title>Node37</title>
<g id="a_node37"><a xlink:href="../../d4/d54/feature_2light__blob_8h.html" target="_top" xlink:title="灯条类头文件">
<polygon fill="white" stroke="black" points="1674.39,-313.5 1674.39,-343.5 1776.39,-343.5 1776.39,-313.5 1674.39,-313.5"/>
<text text-anchor="start" x="1682.39" y="-331.5" font-family="Helvetica,sans-Serif" font-size="10.00">rmvl/feature/light</text>
<text text-anchor="middle" x="1725.39" y="-320.5" font-family="Helvetica,sans-Serif" font-size="10.00">_blob.h</text>
</a>
</g>
</g>
<!-- Node36&#45;&gt;Node37 -->
<g id="edge46" class="edge">
<title>Node36&#45;&gt;Node37</title>
<path fill="none" stroke="midnightblue" d="M1582.6,-377.23C1611.58,-367.54 1652.75,-353.78 1683.44,-343.52"/>
<polygon fill="midnightblue" stroke="midnightblue" points="1581.27,-373.99 1572.89,-380.48 1583.48,-380.62 1581.27,-373.99"/>
</g>
<!-- Node38 -->
<g id="node38" class="node">
<title>Node38</title>
<g id="a_node38"><a xlink:href="../../df/d8b/feature_2pilot_8h.html" target="_top" xlink:title="引导灯类头文件">
<polygon fill="white" stroke="black" points="1305.89,-319 1305.89,-338 1416.89,-338 1416.89,-319 1305.89,-319"/>
<text text-anchor="middle" x="1361.39" y="-326" font-family="Helvetica,sans-Serif" font-size="10.00">rmvl/feature/pilot.h</text>
</a>
</g>
</g>
<!-- Node36&#45;&gt;Node38 -->
<g id="edge48" class="edge">
<title>Node36&#45;&gt;Node38</title>
<path fill="none" stroke="midnightblue" d="M1511.06,-377.38C1474.91,-365.82 1420.28,-348.34 1387.99,-338.01"/>
<polygon fill="midnightblue" stroke="midnightblue" points="1510.15,-380.76 1520.74,-380.48 1512.28,-374.09 1510.15,-380.76"/>
</g>
<!-- Node39 -->
<g id="node39" class="node">
<title>Node39</title>
<g id="a_node39"><a xlink:href="../../d6/d1d/feature_2rune__center_8h.html" target="_top" xlink:title=" ">
<polygon fill="white" stroke="black" points="1958.39,-319 1958.39,-338 2104.39,-338 2104.39,-319 1958.39,-319"/>
<text text-anchor="middle" x="2031.39" y="-326" font-family="Helvetica,sans-Serif" font-size="10.00">rmvl/feature/rune_center.h</text>
</a>
</g>
</g>
<!-- Node36&#45;&gt;Node39 -->
<g id="edge49" class="edge">
<title>Node36&#45;&gt;Node39</title>
<path fill="none" stroke="midnightblue" d="M1620.27,-382.25C1700.94,-374.45 1834.74,-360.54 1949.39,-344 1961.26,-342.29 1974.06,-340.16 1985.93,-338.07"/>
<polygon fill="midnightblue" stroke="midnightblue" points="1619.83,-378.77 1610.21,-383.21 1620.5,-385.74 1619.83,-378.77"/>
</g>
<!-- Node40 -->
<g id="node40" class="node">
<title>Node40</title>
<g id="a_node40"><a xlink:href="../../d2/d8d/feature_2rune__target_8h.html" target="_top" xlink:title=" ">
<polygon fill="white" stroke="black" points="1794.39,-319 1794.39,-338 1940.39,-338 1940.39,-319 1794.39,-319"/>
<text text-anchor="middle" x="1867.39" y="-326" font-family="Helvetica,sans-Serif" font-size="10.00">rmvl/feature/rune_target.h</text>
</a>
</g>
</g>
<!-- Node36&#45;&gt;Node40 -->
<g id="edge51" class="edge">
<title>Node36&#45;&gt;Node40</title>
<path fill="none" stroke="midnightblue" d="M1603.23,-378.62C1665.2,-367.09 1764.04,-348.72 1821.62,-338.01"/>
<polygon fill="midnightblue" stroke="midnightblue" points="1602.43,-375.21 1593.24,-380.48 1603.71,-382.09 1602.43,-375.21"/>
</g>
<!-- Node41 -->
<g id="node41" class="node">
<title>Node41</title>
<g id="a_node41"><a xlink:href="../../d2/dcd/tag_8h.html" target="_top" xlink:title="AprilTag 视觉标签特征类">
<polygon fill="white" stroke="black" points="1434.89,-319 1434.89,-338 1539.89,-338 1539.89,-319 1434.89,-319"/>
<text text-anchor="middle" x="1487.39" y="-326" font-family="Helvetica,sans-Serif" font-size="10.00">rmvl/feature/tag.h</text>
</a>
</g>
</g>
<!-- Node36&#45;&gt;Node41 -->
<g id="edge53" class="edge">
<title>Node36&#45;&gt;Node41</title>
<path fill="none" stroke="midnightblue" d="M1531.58,-373.32C1520.18,-362.02 1505.23,-347.19 1495.97,-338.01"/>
<polygon fill="midnightblue" stroke="midnightblue" points="1529.23,-375.92 1538.79,-380.48 1534.16,-370.95 1529.23,-375.92"/>
</g>
<!-- Node42 -->
<g id="node42" class="node">
<title>Node42</title>
<g id="a_node42"><a xlink:href="../../d7/d13/rmvl_2feature_8hpp.html" target="_top" xlink:title=" ">
<polygon fill="white" stroke="black" points="1558.39,-319 1558.39,-338 1656.39,-338 1656.39,-319 1558.39,-319"/>
<text text-anchor="middle" x="1607.39" y="-326" font-family="Helvetica,sans-Serif" font-size="10.00">rmvl/feature.hpp</text>
</a>
</g>
</g>
<!-- Node36&#45;&gt;Node42 -->
<g id="edge54" class="edge">
<title>Node36&#45;&gt;Node42</title>
<path fill="none" stroke="midnightblue" d="M1563.19,-373.32C1574.59,-362.02 1589.55,-347.19 1598.81,-338.01"/>
<polygon fill="midnightblue" stroke="midnightblue" points="1560.62,-370.95 1555.98,-380.48 1565.55,-375.92 1560.62,-370.95"/>
</g>
<!-- Node37&#45;&gt;Node3 -->
<g id="edge47" class="edge">
<title>Node37&#45;&gt;Node3</title>
<path fill="none" stroke="midnightblue" d="M1686.08,-309.08C1663.01,-298.28 1634.93,-285.12 1616.87,-276.66"/>
<polygon fill="midnightblue" stroke="midnightblue" points="1684.75,-312.33 1695.29,-313.4 1687.72,-305.99 1684.75,-312.33"/>
</g>
<!-- Node39&#45;&gt;Node8 -->
<g id="edge50" class="edge">
<title>Node39&#45;&gt;Node8</title>
<path fill="none" stroke="midnightblue" d="M1997.54,-315.58C1964.69,-304.02 1915.65,-286.75 1886.56,-276.51"/>
<polygon fill="midnightblue" stroke="midnightblue" points="1996.58,-318.96 2007.17,-318.98 1998.9,-312.35 1996.58,-318.96"/>
</g>
<!-- Node40&#45;&gt;Node8 -->
<g id="edge52" class="edge">
<title>Node40&#45;&gt;Node8</title>
<path fill="none" stroke="midnightblue" d="M1865.82,-308.82C1864.91,-298 1863.81,-284.9 1863.1,-276.51"/>
<polygon fill="midnightblue" stroke="midnightblue" points="1862.35,-309.3 1866.67,-318.98 1869.32,-308.72 1862.35,-309.3"/>
</g>
</g>
</svg>
        <g id="navigator" transform="translate(0 0)" fill="#404254">
                <rect fill="#f2f5e9" fill-opacity="0.5" stroke="#606060" stroke-width=".5" x="0" y="0" width="60" height="60"/>
                <use id="zoomplus" xlink:href="#zoomPlus" x="17" y="9" onmousedown="handleZoom(evt,'in')"/>
                <use id="zoomminus" xlink:href="#zoomMin" x="42" y="9" onmousedown="handleZoom(evt,'out')"/>
                <use id="reset" xlink:href="#resetDef" x="30" y="36" onmousedown="handleReset()"/>
                <g id="arrowUp" xlink:href="#dirArrow" transform="translate(30 24)" onmousedown="handlePan(0,-1)">
                  <use xlink:href="#rim" fill="#404040">
                        <set attributeName="fill" to="#808080" begin="arrowUp.mouseover" end="arrowUp.mouseout"/>
                  </use>
                  <path fill="none" stroke="white" stroke-width="1.5" d="M0,-3.0v7 M-2.5,-0.5L0,-3.0L2.5,-0.5"/>
                </g>
                <g id="arrowRight" xlink:href="#dirArrow" transform="rotate(90) translate(36 -43)" onmousedown="handlePan(1,0)">
                  <use xlink:href="#rim" fill="#404040">
                        <set attributeName="fill" to="#808080" begin="arrowRight.mouseover" end="arrowRight.mouseout"/>
                  </use>
                  <path fill="none" stroke="white" stroke-width="1.5" d="M0,-3.0v7 M-2.5,-0.5L0,-3.0L2.5,-0.5"/>
                </g>
                <g id="arrowDown" xlink:href="#dirArrow" transform="rotate(180) translate(-30 -48)" onmousedown="handlePan(0,1)">
                  <use xlink:href="#rim" fill="#404040">
                        <set attributeName="fill" to="#808080" begin="arrowDown.mouseover" end="arrowDown.mouseout"/>
                  </use>
                  <path fill="none" stroke="white" stroke-width="1.5" d="M0,-3.0v7 M-2.5,-0.5L0,-3.0L2.5,-0.5"/>
                </g>
                <g id="arrowLeft" xlink:href="#dirArrow" transform="rotate(270) translate(-36 17)" onmousedown="handlePan(-1,0)">
                  <use xlink:href="#rim" fill="#404040">
                        <set attributeName="fill" to="#808080" begin="arrowLeft.mouseover" end="arrowLeft.mouseout"/>
                  </use>
                  <path fill="none" stroke="white" stroke-width="1.5" d="M0,-3.0v7 M-2.5,-0.5L0,-3.0L2.5,-0.5"/>
                </g>
        </g>
        <svg viewBox="0 0 15 15" width="100%" height="30px" preserveAspectRatio="xMaxYMin meet">
         <g id="arrow_out" transform="scale(0.3 0.3)">
          <a xlink:href="types_8hpp__dep__incl_org.svg" target="_base">
           <rect id="button" ry="5" rx="5" y="6" x="6" height="38" width="38"
                fill="#f2f5e9" fill-opacity="0.5" stroke="#606060" stroke-width="1.0"/>
           <path id="arrow"
             d="M 11.500037,31.436501 C 11.940474,20.09759 22.043105,11.32322 32.158766,21.979434 L 37.068811,17.246167 C 37.068811,17.246167 37.088388,32 37.088388,32 L 22.160133,31.978069 C 22.160133,31.978069 26.997745,27.140456 26.997745,27.140456 C 18.528582,18.264221 13.291696,25.230495 11.500037,31.436501 z"
             style="fill:#404040;"/>
          </a>
         </g>
        </svg>
</svg>
