<?xml version="1.0" encoding="UTF-8" standalone="no"?>
<!DOCTYPE svg PUBLIC "-//W3C//DTD SVG 1.1//EN"
 "http://www.w3.org/Graphics/SVG/1.1/DTD/svg11.dtd">
<!-- Generated by graphviz version 2.43.0 (0)
 -->
<!-- Title: rm::Object::Object Pages: 1 -->
<svg width="283pt" height="64pt"
 viewBox="0.00 0.00 283.00 64.00" xmlns="http://www.w3.org/2000/svg" xmlns:xlink="http://www.w3.org/1999/xlink">
<g id="graph0" class="graph" transform="scale(1 1) rotate(0) translate(4 60)">
<title>rm::Object::Object</title>
<!-- Node1 -->
<g id="Node000001" class="node">
<title>Node1</title>
<g id="a_Node000001"><a xlink:title="从对象类型构造新的对象节点">
<polygon fill="#999999" stroke="#666666" points="105,-37 0,-37 0,-18 105,-18 105,-37"/>
<text text-anchor="middle" x="52.5" y="-25" font-family="Helvetica,sans-Serif" font-size="10.00">rm::Object::Object</text>
</a>
</g>
</g>
<!-- Node2 -->
<g id="Node000002" class="node">
<title>Node2</title>
<g id="a_Node000002"><a xlink:href="../../d8/d9b/classrm_1_1Object.html#ab080711baf651b7ddddb08a08ee5ace0" target="_top" xlink:title="获取 rm::Method 表示的方法节点的列表">
<polygon fill="white" stroke="#666666" points="273.5,-56 142.5,-56 142.5,-37 273.5,-37 273.5,-56"/>
<text text-anchor="middle" x="208" y="-44" font-family="Helvetica,sans-Serif" font-size="10.00">rm::Object::getMethods</text>
</a>
</g>
</g>
<!-- Node1&#45;&gt;Node2 -->
<g id="edge1_Node000001_Node000002" class="edge">
<title>Node1&#45;&gt;Node2</title>
<g id="a_edge1_Node000001_Node000002"><a xlink:title=" ">
<path fill="none" stroke="#63b8ff" d="M105.04,-33.88C113.8,-34.96 123.06,-36.11 132.28,-37.25"/>
<polygon fill="#63b8ff" stroke="#63b8ff" points="131.88,-40.73 142.24,-38.48 132.74,-33.78 131.88,-40.73"/>
</a>
</g>
</g>
<!-- Node3 -->
<g id="Node000003" class="node">
<title>Node3</title>
<g id="a_Node000003"><a xlink:href="../../d8/d9b/classrm_1_1Object.html#a49cfc4f9faded63172fab7175f1b14ff" target="_top" xlink:title="获取 rm::Variable 表示的变量节点的列表">
<polygon fill="white" stroke="#666666" points="275,-19 141,-19 141,0 275,0 275,-19"/>
<text text-anchor="middle" x="208" y="-7" font-family="Helvetica,sans-Serif" font-size="10.00">rm::Object::getVariables</text>
</a>
</g>
</g>
<!-- Node1&#45;&gt;Node3 -->
<g id="edge2_Node000001_Node000003" class="edge">
<title>Node1&#45;&gt;Node3</title>
<g id="a_edge2_Node000001_Node000003"><a xlink:title=" ">
<path fill="none" stroke="#63b8ff" d="M105.04,-21.46C113.3,-20.49 122.01,-19.47 130.7,-18.45"/>
<polygon fill="#63b8ff" stroke="#63b8ff" points="131.35,-21.89 140.88,-17.25 130.54,-14.94 131.35,-21.89"/>
</a>
</g>
</g>
</g>
</svg>
