<?xml version="1.0" encoding="UTF-8" standalone="no"?>
<!DOCTYPE svg PUBLIC "-//W3C//DTD SVG 1.1//EN"
 "http://www.w3.org/Graphics/SVG/1.1/DTD/svg11.dtd">
<!-- Generated by graphviz version 2.43.0 (0)
 -->
<!-- Title: rmvl/camera/hik_video_capture.h Pages: 1 -->
<svg width="500pt" height="151pt"
 viewBox="0.00 0.00 500.00 151.00" xmlns="http://www.w3.org/2000/svg" xmlns:xlink="http://www.w3.org/1999/xlink">
<g id="graph0" class="graph" transform="scale(1 1) rotate(0) translate(4 147)">
<title>rmvl/camera/hik_video_capture.h</title>
<polygon fill="white" stroke="transparent" points="-4,4 -4,-147 496,-147 496,4 -4,4"/>
<!-- Node1 -->
<g id="node1" class="node">
<title>Node1</title>
<g id="a_node1"><a xlink:title="Hik Robot 工业相机库">
<polygon fill="#bfbfbf" stroke="black" points="194.5,-112.5 194.5,-142.5 323.5,-142.5 323.5,-112.5 194.5,-112.5"/>
<text text-anchor="start" x="202.5" y="-130.5" font-family="Helvetica,sans-Serif" font-size="10.00">rmvl/camera/hik_video</text>
<text text-anchor="middle" x="259" y="-119.5" font-family="Helvetica,sans-Serif" font-size="10.00">_capture.h</text>
</a>
</g>
</g>
<!-- Node2 -->
<g id="node2" class="node">
<title>Node2</title>
<g id="a_node2"><a xlink:title=" ">
<polygon fill="white" stroke="#bfbfbf" points="0,-56.5 0,-75.5 122,-75.5 122,-56.5 0,-56.5"/>
<text text-anchor="middle" x="61" y="-63.5" font-family="Helvetica,sans-Serif" font-size="10.00">opencv2/imgproc.hpp</text>
</a>
</g>
</g>
<!-- Node1&#45;&gt;Node2 -->
<g id="edge1" class="edge">
<title>Node1&#45;&gt;Node2</title>
<path fill="none" stroke="midnightblue" d="M212.33,-112.47C177.87,-102.12 131.54,-88.2 99.26,-78.5"/>
<polygon fill="midnightblue" stroke="midnightblue" points="99.89,-75.03 89.31,-75.51 97.88,-81.74 99.89,-75.03"/>
</g>
<!-- Node3 -->
<g id="node3" class="node">
<title>Node3</title>
<g id="a_node3"><a xlink:title=" ">
<polygon fill="white" stroke="#bfbfbf" points="140,-56.5 140,-75.5 254,-75.5 254,-56.5 140,-56.5"/>
<text text-anchor="middle" x="197" y="-63.5" font-family="Helvetica,sans-Serif" font-size="10.00">MvCameraControl.h</text>
</a>
</g>
</g>
<!-- Node1&#45;&gt;Node3 -->
<g id="edge2" class="edge">
<title>Node1&#45;&gt;Node3</title>
<path fill="none" stroke="midnightblue" d="M244.31,-112.4C235.02,-103.49 223,-91.95 213.4,-82.74"/>
<polygon fill="midnightblue" stroke="midnightblue" points="215.66,-80.06 206.02,-75.66 210.81,-85.11 215.66,-80.06"/>
</g>
<!-- Node4 -->
<g id="node4" class="node">
<title>Node4</title>
<g id="a_node4"><a xlink:href="../../d3/d7b/camera__define_8h.html" target="_top" xlink:title=" ">
<polygon fill="white" stroke="black" points="272,-56.5 272,-75.5 370,-75.5 370,-56.5 272,-56.5"/>
<text text-anchor="middle" x="321" y="-63.5" font-family="Helvetica,sans-Serif" font-size="10.00">camera_define.h</text>
</a>
</g>
</g>
<!-- Node1&#45;&gt;Node4 -->
<g id="edge3" class="edge">
<title>Node1&#45;&gt;Node4</title>
<path fill="none" stroke="midnightblue" d="M273.69,-112.4C282.98,-103.49 295,-91.95 304.6,-82.74"/>
<polygon fill="midnightblue" stroke="midnightblue" points="307.19,-85.11 311.98,-75.66 302.34,-80.06 307.19,-85.11"/>
</g>
<!-- Node7 -->
<g id="node7" class="node">
<title>Node7</title>
<g id="a_node7"><a xlink:href="../../d3/d87/camera__logging_8h.html" target="_top" xlink:title=" ">
<polygon fill="white" stroke="black" points="388,-56.5 388,-75.5 492,-75.5 492,-56.5 388,-56.5"/>
<text text-anchor="middle" x="440" y="-63.5" font-family="Helvetica,sans-Serif" font-size="10.00">camera_logging.h</text>
</a>
</g>
</g>
<!-- Node1&#45;&gt;Node7 -->
<g id="edge6" class="edge">
<title>Node1&#45;&gt;Node7</title>
<path fill="none" stroke="midnightblue" d="M301.89,-112.4C333.03,-102.16 374.69,-88.47 404.08,-78.81"/>
<polygon fill="midnightblue" stroke="midnightblue" points="405.52,-82.02 413.93,-75.57 403.33,-75.37 405.52,-82.02"/>
</g>
<!-- Node5 -->
<g id="node5" class="node">
<title>Node5</title>
<g id="a_node5"><a xlink:title=" ">
<polygon fill="white" stroke="#bfbfbf" points="194,-0.5 194,-19.5 252,-19.5 252,-0.5 194,-0.5"/>
<text text-anchor="middle" x="223" y="-7.5" font-family="Helvetica,sans-Serif" font-size="10.00">memory</text>
</a>
</g>
</g>
<!-- Node4&#45;&gt;Node5 -->
<g id="edge4" class="edge">
<title>Node4&#45;&gt;Node5</title>
<path fill="none" stroke="midnightblue" d="M305.25,-56.32C289.68,-47.74 265.62,-34.49 247.54,-24.52"/>
<polygon fill="midnightblue" stroke="midnightblue" points="249.15,-21.42 238.71,-19.65 245.78,-27.55 249.15,-21.42"/>
</g>
<!-- Node6 -->
<g id="node6" class="node">
<title>Node6</title>
<g id="a_node6"><a xlink:title=" ">
<polygon fill="white" stroke="#bfbfbf" points="270,-0.5 270,-19.5 388,-19.5 388,-0.5 270,-0.5"/>
<text text-anchor="middle" x="329" y="-7.5" font-family="Helvetica,sans-Serif" font-size="10.00">opencv2/videoio.hpp</text>
</a>
</g>
</g>
<!-- Node4&#45;&gt;Node6 -->
<g id="edge5" class="edge">
<title>Node4&#45;&gt;Node6</title>
<path fill="none" stroke="midnightblue" d="M322.32,-56.08C323.38,-48.93 324.91,-38.64 326.23,-29.69"/>
<polygon fill="midnightblue" stroke="midnightblue" points="329.7,-30.16 327.7,-19.75 322.78,-29.13 329.7,-30.16"/>
</g>
<!-- Node8 -->
<g id="node8" class="node">
<title>Node8</title>
<g id="a_node8"><a xlink:title=" ">
<polygon fill="white" stroke="#bfbfbf" points="415,-0.5 415,-19.5 465,-19.5 465,-0.5 415,-0.5"/>
<text text-anchor="middle" x="440" y="-7.5" font-family="Helvetica,sans-Serif" font-size="10.00">stdio.h</text>
</a>
</g>
</g>
<!-- Node7&#45;&gt;Node8 -->
<g id="edge7" class="edge">
<title>Node7&#45;&gt;Node8</title>
<path fill="none" stroke="midnightblue" d="M440,-56.08C440,-49.01 440,-38.86 440,-29.99"/>
<polygon fill="midnightblue" stroke="midnightblue" points="443.5,-29.75 440,-19.75 436.5,-29.75 443.5,-29.75"/>
</g>
</g>
</svg>
