<?xml version="1.0" encoding="UTF-8" standalone="no"?>
<!DOCTYPE svg PUBLIC "-//W3C//DTD SVG 1.1//EN"
 "http://www.w3.org/Graphics/SVG/1.1/DTD/svg11.dtd">
<!-- Generated by graphviz version 2.43.0 (0)
 -->
<!-- Title: rmvl/opcua/event.hpp Pages: 1 -->
<svg width="946pt" height="192pt"
 viewBox="0.00 0.00 946.00 192.00" xmlns="http://www.w3.org/2000/svg" xmlns:xlink="http://www.w3.org/1999/xlink">
<g id="graph0" class="graph" transform="scale(1 1) rotate(0) translate(4 188)">
<title>rmvl/opcua/event.hpp</title>
<!-- Node1 -->
<g id="Node000001" class="node">
<title>Node1</title>
<g id="a_Node000001"><a xlink:title="OPC UA 事件">
<polygon fill="#999999" stroke="#666666" points="653,-184 530,-184 530,-165 653,-165 653,-184"/>
<text text-anchor="middle" x="591.5" y="-172" font-family="Helvetica,sans-Serif" font-size="10.00">rmvl/opcua/event.hpp</text>
</a>
</g>
</g>
<!-- Node2 -->
<g id="Node000002" class="node">
<title>Node2</title>
<g id="a_Node000002"><a xlink:title=" ">
<polygon fill="#e0e0e0" stroke="#999999" points="560.5,-19 516.5,-19 516.5,0 560.5,0 560.5,-19"/>
<text text-anchor="middle" x="538.5" y="-7" font-family="Helvetica,sans-Serif" font-size="10.00">string</text>
</a>
</g>
</g>
<!-- Node1&#45;&gt;Node2 -->
<g id="edge1_Node000001_Node000002" class="edge">
<title>Node1&#45;&gt;Node2</title>
<g id="a_edge1_Node000001_Node000002"><a xlink:title=" ">
<path fill="none" stroke="#63b8ff" d="M595.75,-164.83C605.13,-144.34 625.28,-91.88 605.5,-55 597.83,-40.7 583.32,-30.22 569.76,-23.03"/>
<polygon fill="#63b8ff" stroke="#63b8ff" points="571.14,-19.81 560.62,-18.57 568.08,-26.1 571.14,-19.81"/>
</a>
</g>
</g>
<!-- Node3 -->
<g id="Node000003" class="node">
<title>Node3</title>
<g id="a_Node000003"><a xlink:title=" ">
<polygon fill="#e0e0e0" stroke="#999999" points="498,-19 405,-19 405,0 498,0 498,-19"/>
<text text-anchor="middle" x="451.5" y="-7" font-family="Helvetica,sans-Serif" font-size="10.00">unordered_map</text>
</a>
</g>
</g>
<!-- Node1&#45;&gt;Node3 -->
<g id="edge2_Node000001_Node000003" class="edge">
<title>Node1&#45;&gt;Node3</title>
<g id="a_edge2_Node000001_Node000003"><a xlink:title=" ">
<path fill="none" stroke="#63b8ff" d="M592.72,-164.88C595.23,-143.57 598.64,-87.79 571.5,-55 561.41,-42.81 525.42,-30.41 495.46,-21.81"/>
<polygon fill="#63b8ff" stroke="#63b8ff" points="496.15,-18.37 485.57,-19.05 494.26,-25.11 496.15,-18.37"/>
</a>
</g>
</g>
<!-- Node4 -->
<g id="Node000004" class="node">
<title>Node4</title>
<g id="a_Node000004"><a xlink:href="../../da/d0e/variable_8hpp.html" target="_top" xlink:title="变量（类型）">
<polygon fill="white" stroke="#666666" points="514,-129 437,-129 437,-110 514,-110 514,-129"/>
<text text-anchor="middle" x="475.5" y="-117" font-family="Helvetica,sans-Serif" font-size="10.00">variable.hpp</text>
</a>
</g>
</g>
<!-- Node1&#45;&gt;Node4 -->
<g id="edge3_Node000001_Node000004" class="edge">
<title>Node1&#45;&gt;Node4</title>
<g id="a_edge3_Node000001_Node000004"><a xlink:title=" ">
<path fill="none" stroke="#63b8ff" d="M572.86,-164.98C554.2,-156.46 525.25,-143.23 503.76,-133.41"/>
<polygon fill="#63b8ff" stroke="#63b8ff" points="505.03,-130.14 494.48,-129.17 502.12,-136.51 505.03,-130.14"/>
</a>
</g>
</g>
<!-- Node5 -->
<g id="Node000005" class="node">
<title>Node5</title>
<g id="a_Node000005"><a xlink:title=" ">
<polygon fill="#e0e0e0" stroke="#999999" points="358,-74 323,-74 323,-55 358,-55 358,-74"/>
<text text-anchor="middle" x="340.5" y="-62" font-family="Helvetica,sans-Serif" font-size="10.00">any</text>
</a>
</g>
</g>
<!-- Node4&#45;&gt;Node5 -->
<g id="edge4_Node000004_Node000005" class="edge">
<title>Node4&#45;&gt;Node5</title>
<g id="a_edge4_Node000004_Node000005"><a xlink:title=" ">
<path fill="none" stroke="#63b8ff" d="M453.81,-109.98C430.39,-100.79 393.02,-86.12 367.66,-76.16"/>
<polygon fill="#63b8ff" stroke="#63b8ff" points="368.84,-72.87 358.26,-72.47 366.29,-79.38 368.84,-72.87"/>
</a>
</g>
</g>
<!-- Node6 -->
<g id="Node000006" class="node">
<title>Node6</title>
<g id="a_Node000006"><a xlink:title=" ">
<polygon fill="#e0e0e0" stroke="#999999" points="434.5,-74 376.5,-74 376.5,-55 434.5,-55 434.5,-74"/>
<text text-anchor="middle" x="405.5" y="-62" font-family="Helvetica,sans-Serif" font-size="10.00">memory</text>
</a>
</g>
</g>
<!-- Node4&#45;&gt;Node6 -->
<g id="edge5_Node000004_Node000006" class="edge">
<title>Node4&#45;&gt;Node6</title>
<g id="a_edge5_Node000004_Node000006"><a xlink:title=" ">
<path fill="none" stroke="#63b8ff" d="M464.25,-109.98C453.7,-102 437.7,-89.88 425.06,-80.31"/>
<polygon fill="#63b8ff" stroke="#63b8ff" points="427.04,-77.42 416.95,-74.17 422.81,-83 427.04,-77.42"/>
</a>
</g>
</g>
<!-- Node7 -->
<g id="Node000007" class="node">
<title>Node7</title>
<g id="a_Node000007"><a xlink:title=" ">
<polygon fill="#e0e0e0" stroke="#999999" points="498,-74 453,-74 453,-55 498,-55 498,-74"/>
<text text-anchor="middle" x="475.5" y="-62" font-family="Helvetica,sans-Serif" font-size="10.00">utility</text>
</a>
</g>
</g>
<!-- Node4&#45;&gt;Node7 -->
<g id="edge6_Node000004_Node000007" class="edge">
<title>Node4&#45;&gt;Node7</title>
<g id="a_edge6_Node000004_Node000007"><a xlink:title=" ">
<path fill="none" stroke="#63b8ff" d="M475.5,-109.75C475.5,-102.8 475.5,-92.85 475.5,-84.13"/>
<polygon fill="#63b8ff" stroke="#63b8ff" points="479,-84.09 475.5,-74.09 472,-84.09 479,-84.09"/>
</a>
</g>
</g>
<!-- Node8 -->
<g id="Node000008" class="node">
<title>Node8</title>
<g id="a_Node000008"><a xlink:title=" ">
<polygon fill="#e0e0e0" stroke="#999999" points="563,-74 516,-74 516,-55 563,-55 563,-74"/>
<text text-anchor="middle" x="539.5" y="-62" font-family="Helvetica,sans-Serif" font-size="10.00">vector</text>
</a>
</g>
</g>
<!-- Node4&#45;&gt;Node8 -->
<g id="edge7_Node000004_Node000008" class="edge">
<title>Node4&#45;&gt;Node8</title>
<g id="a_edge7_Node000004_Node000008"><a xlink:title=" ">
<path fill="none" stroke="#63b8ff" d="M485.78,-109.98C495.34,-102.07 509.78,-90.11 521.28,-80.58"/>
<polygon fill="#63b8ff" stroke="#63b8ff" points="523.56,-83.24 529.03,-74.17 519.1,-77.85 523.56,-83.24"/>
</a>
</g>
</g>
<!-- Node9 -->
<g id="Node000009" class="node">
<title>Node9</title>
<g id="a_Node000009"><a xlink:href="../../d0/d3f/util_8hpp.html" target="_top" xlink:title=" ">
<polygon fill="white" stroke="#666666" points="784,-74 681,-74 681,-55 784,-55 784,-74"/>
<text text-anchor="middle" x="732.5" y="-62" font-family="Helvetica,sans-Serif" font-size="10.00">rmvl/core/util.hpp</text>
</a>
</g>
</g>
<!-- Node4&#45;&gt;Node9 -->
<g id="edge8_Node000004_Node000009" class="edge">
<title>Node4&#45;&gt;Node9</title>
<g id="a_edge8_Node000004_Node000009"><a xlink:title=" ">
<path fill="none" stroke="#63b8ff" d="M514.25,-110.51C558.73,-101.34 631.84,-86.26 681.06,-76.11"/>
<polygon fill="#63b8ff" stroke="#63b8ff" points="681.78,-79.53 690.87,-74.09 680.37,-72.68 681.78,-79.53"/>
</a>
</g>
</g>
<!-- Node14 -->
<g id="Node000014" class="node">
<title>Node14</title>
<g id="a_Node000014"><a xlink:href="../../dc/d5f/utilities_8hpp.html" target="_top" xlink:title=" ">
<polygon fill="white" stroke="#666666" points="304.5,-74 230.5,-74 230.5,-55 304.5,-55 304.5,-74"/>
<text text-anchor="middle" x="267.5" y="-62" font-family="Helvetica,sans-Serif" font-size="10.00">utilities.hpp</text>
</a>
</g>
</g>
<!-- Node4&#45;&gt;Node14 -->
<g id="edge14_Node000004_Node000014" class="edge">
<title>Node4&#45;&gt;Node14</title>
<g id="a_edge14_Node000004_Node000014"><a xlink:title=" ">
<path fill="none" stroke="#63b8ff" d="M442.08,-109.98C406.56,-100.93 350.23,-86.58 311.2,-76.64"/>
<polygon fill="#63b8ff" stroke="#63b8ff" points="311.74,-73.16 301.18,-74.08 310.01,-79.94 311.74,-73.16"/>
</a>
</g>
</g>
<!-- Node9&#45;&gt;Node2 -->
<g id="edge12_Node000009_Node000002" class="edge">
<title>Node9&#45;&gt;Node2</title>
<g id="a_edge12_Node000009_Node000002"><a xlink:title=" ">
<path fill="none" stroke="#63b8ff" d="M701.25,-54.98C670.42,-46.57 621.69,-33.28 570.45,-19.26"/>
<polygon fill="#63b8ff" stroke="#63b8ff" points="571.08,-15.8 560.51,-16.54 569.24,-22.55 571.08,-15.8"/>
</a>
</g>
</g>
<!-- Node10 -->
<g id="Node000010" class="node">
<title>Node10</title>
<g id="a_Node000010"><a xlink:title=" ">
<polygon fill="#e0e0e0" stroke="#999999" points="712,-19 579,-19 579,0 712,0 712,-19"/>
<text text-anchor="middle" x="645.5" y="-7" font-family="Helvetica,sans-Serif" font-size="10.00">rmvl/rmvl_modules.hpp</text>
</a>
</g>
</g>
<!-- Node9&#45;&gt;Node10 -->
<g id="edge9_Node000009_Node000010" class="edge">
<title>Node9&#45;&gt;Node10</title>
<g id="a_edge9_Node000009_Node000010"><a xlink:title=" ">
<path fill="none" stroke="#63b8ff" d="M718.52,-54.98C705.03,-46.77 684.37,-34.18 668.46,-24.49"/>
<polygon fill="#63b8ff" stroke="#63b8ff" points="670.09,-21.38 659.73,-19.17 666.45,-27.36 670.09,-21.38"/>
</a>
</g>
</g>
<!-- Node11 -->
<g id="Node000011" class="node">
<title>Node11</title>
<g id="a_Node000011"><a xlink:title=" ">
<polygon fill="#e0e0e0" stroke="#999999" points="780.5,-19 730.5,-19 730.5,0 780.5,0 780.5,-19"/>
<text text-anchor="middle" x="755.5" y="-7" font-family="Helvetica,sans-Serif" font-size="10.00">cstdint</text>
</a>
</g>
</g>
<!-- Node9&#45;&gt;Node11 -->
<g id="edge10_Node000009_Node000011" class="edge">
<title>Node9&#45;&gt;Node11</title>
<g id="a_edge10_Node000009_Node000011"><a xlink:title=" ">
<path fill="none" stroke="#63b8ff" d="M736.3,-54.75C739.41,-47.57 743.92,-37.18 747.79,-28.27"/>
<polygon fill="#63b8ff" stroke="#63b8ff" points="751,-29.66 751.77,-19.09 744.58,-26.87 751,-29.66"/>
</a>
</g>
</g>
<!-- Node12 -->
<g id="Node000012" class="node">
<title>Node12</title>
<g id="a_Node000012"><a xlink:title=" ">
<polygon fill="#e0e0e0" stroke="#999999" points="844.5,-19 798.5,-19 798.5,0 844.5,0 844.5,-19"/>
<text text-anchor="middle" x="821.5" y="-7" font-family="Helvetica,sans-Serif" font-size="10.00">cstdio</text>
</a>
</g>
</g>
<!-- Node9&#45;&gt;Node12 -->
<g id="edge11_Node000009_Node000012" class="edge">
<title>Node9&#45;&gt;Node12</title>
<g id="a_edge11_Node000009_Node000012"><a xlink:title=" ">
<path fill="none" stroke="#63b8ff" d="M746.8,-54.98C760.6,-46.77 781.74,-34.18 798.01,-24.49"/>
<polygon fill="#63b8ff" stroke="#63b8ff" points="800.14,-27.29 806.94,-19.17 796.56,-21.28 800.14,-27.29"/>
</a>
</g>
</g>
<!-- Node13 -->
<g id="Node000013" class="node">
<title>Node13</title>
<g id="a_Node000013"><a xlink:href="../../db/d41/rmvldef_8hpp.html" target="_top" xlink:title=" ">
<polygon fill="white" stroke="#666666" points="938,-19 863,-19 863,0 938,0 938,-19"/>
<text text-anchor="middle" x="900.5" y="-7" font-family="Helvetica,sans-Serif" font-size="10.00">rmvldef.hpp</text>
</a>
</g>
</g>
<!-- Node9&#45;&gt;Node13 -->
<g id="edge13_Node000009_Node000013" class="edge">
<title>Node9&#45;&gt;Node13</title>
<g id="a_edge13_Node000009_Node000013"><a xlink:title=" ">
<path fill="none" stroke="#63b8ff" d="M759.49,-54.98C787.7,-46.09 832.14,-32.07 863.58,-22.15"/>
<polygon fill="#63b8ff" stroke="#63b8ff" points="864.81,-25.43 873.3,-19.08 862.71,-18.75 864.81,-25.43"/>
</a>
</g>
</g>
<!-- Node14&#45;&gt;Node2 -->
<g id="edge15_Node000014_Node000002" class="edge">
<title>Node14&#45;&gt;Node2</title>
<g id="a_edge15_Node000014_Node000002"><a xlink:title=" ">
<path fill="none" stroke="#63b8ff" d="M304.69,-56.61C362.64,-45.88 470.82,-25.82 506.07,-18.77"/>
<polygon fill="#63b8ff" stroke="#63b8ff" points="507.1,-22.13 516.17,-16.66 505.67,-15.28 507.1,-22.13"/>
</a>
</g>
</g>
<!-- Node14&#45;&gt;Node3 -->
<g id="edge17_Node000014_Node000003" class="edge">
<title>Node14&#45;&gt;Node3</title>
<g id="a_edge17_Node000014_Node000003"><a xlink:title=" ">
<path fill="none" stroke="#63b8ff" d="M297.06,-54.98C328.22,-46.01 377.47,-31.82 411.96,-21.89"/>
<polygon fill="#63b8ff" stroke="#63b8ff" points="413.07,-25.21 421.71,-19.08 411.13,-18.49 413.07,-25.21"/>
</a>
</g>
</g>
<!-- Node15 -->
<g id="Node000015" class="node">
<title>Node15</title>
<g id="a_Node000015"><a xlink:title=" ">
<polygon fill="#e0e0e0" stroke="#999999" points="387,-19 322,-19 322,0 387,0 387,-19"/>
<text text-anchor="middle" x="354.5" y="-7" font-family="Helvetica,sans-Serif" font-size="10.00">typeindex</text>
</a>
</g>
</g>
<!-- Node14&#45;&gt;Node15 -->
<g id="edge16_Node000014_Node000015" class="edge">
<title>Node14&#45;&gt;Node15</title>
<g id="a_edge16_Node000014_Node000015"><a xlink:title=" ">
<path fill="none" stroke="#63b8ff" d="M281.48,-54.98C294.97,-46.77 315.63,-34.18 331.54,-24.49"/>
<polygon fill="#63b8ff" stroke="#63b8ff" points="333.55,-27.36 340.27,-19.17 329.91,-21.38 333.55,-27.36"/>
</a>
</g>
</g>
<!-- Node16 -->
<g id="Node000016" class="node">
<title>Node16</title>
<g id="a_Node000016"><a xlink:title=" ">
<polygon fill="#e0e0e0" stroke="#999999" points="121,-19 0,-19 0,0 121,0 121,-19"/>
<text text-anchor="middle" x="60.5" y="-7" font-family="Helvetica,sans-Serif" font-size="10.00">open62541/nodeids.h</text>
</a>
</g>
</g>
<!-- Node14&#45;&gt;Node16 -->
<g id="edge18_Node000014_Node000016" class="edge">
<title>Node14&#45;&gt;Node16</title>
<g id="a_edge18_Node000014_Node000016"><a xlink:title=" ">
<path fill="none" stroke="#63b8ff" d="M234.24,-54.98C198.89,-45.93 142.83,-31.58 103.99,-21.64"/>
<polygon fill="#63b8ff" stroke="#63b8ff" points="104.57,-18.17 94.02,-19.08 102.84,-24.95 104.57,-18.17"/>
</a>
</g>
</g>
<!-- Node17 -->
<g id="Node000017" class="node">
<title>Node17</title>
<g id="a_Node000017"><a xlink:title=" ">
<polygon fill="#e0e0e0" stroke="#999999" points="303.5,-19 139.5,-19 139.5,0 303.5,0 303.5,-19"/>
<text text-anchor="middle" x="221.5" y="-7" font-family="Helvetica,sans-Serif" font-size="10.00">open62541/types_generated.h</text>
</a>
</g>
</g>
<!-- Node14&#45;&gt;Node17 -->
<g id="edge19_Node000014_Node000017" class="edge">
<title>Node14&#45;&gt;Node17</title>
<g id="a_edge19_Node000014_Node000017"><a xlink:title=" ">
<path fill="none" stroke="#63b8ff" d="M259.9,-54.75C253.34,-47.18 243.68,-36.05 235.69,-26.84"/>
<polygon fill="#63b8ff" stroke="#63b8ff" points="238.15,-24.35 228.95,-19.09 232.87,-28.94 238.15,-24.35"/>
</a>
</g>
</g>
</g>
</svg>
