<?xml version="1.0" encoding="UTF-8" standalone="no"?>
<!DOCTYPE svg PUBLIC "-//W3C//DTD SVG 1.1//EN"
 "http://www.w3.org/Graphics/SVG/1.1/DTD/svg11.dtd">
<!-- Generated by graphviz version 2.43.0 (0)
 -->
<!-- Title: rm::LightBlob Pages: 1 -->
<svg width="780pt" height="678pt"
 viewBox="0.00 0.00 780.00 678.00" xmlns="http://www.w3.org/2000/svg" xmlns:xlink="http://www.w3.org/1999/xlink">
<g id="graph0" class="graph" transform="scale(1 1) rotate(0) translate(4 674)">
<title>rm::LightBlob</title>
<!-- Node1 -->
<g id="Node000001" class="node">
<title>Node1</title>
<g id="a_Node000001"><a xlink:title="装甲板灯条">
<polygon fill="#999999" stroke="transparent" points="170,-139 64,-139 64,0 170,0 170,-139"/>
<text text-anchor="start" x="84" y="-126.5" font-family="Helvetica,sans-Serif" font-size="10.00">rm::LightBlob</text>
<text text-anchor="start" x="115" y="-111.5" font-family="Helvetica,sans-Serif" font-size="10.00"> </text>
<text text-anchor="start" x="68" y="-96.5" font-family="Helvetica,sans-Serif" font-size="10.00">+</text>
<text text-anchor="start" x="81" y="-96.5" font-family="Helvetica,sans-Serif" font-size="10.00">getTopPoint()</text>
<text text-anchor="start" x="68" y="-81.5" font-family="Helvetica,sans-Serif" font-size="10.00">+</text>
<text text-anchor="start" x="81" y="-81.5" font-family="Helvetica,sans-Serif" font-size="10.00">getBottomPoint()</text>
<text text-anchor="start" x="68" y="-66.5" font-family="Helvetica,sans-Serif" font-size="10.00">+</text>
<text text-anchor="start" x="81" y="-66.5" font-family="Helvetica,sans-Serif" font-size="10.00">clone()</text>
<text text-anchor="start" x="68" y="-51.5" font-family="Helvetica,sans-Serif" font-size="10.00">+</text>
<text text-anchor="start" x="81" y="-51.5" font-family="Helvetica,sans-Serif" font-size="10.00">make_feature()</text>
<text text-anchor="start" x="68" y="-36.5" font-family="Helvetica,sans-Serif" font-size="10.00">+</text>
<text text-anchor="start" x="81" y="-36.5" font-family="Helvetica,sans-Serif" font-size="10.00">make_feature()</text>
<text text-anchor="start" x="68" y="-21.5" font-family="Helvetica,sans-Serif" font-size="10.00">+</text>
<text text-anchor="start" x="81" y="-21.5" font-family="Helvetica,sans-Serif" font-size="10.00">cast()</text>
<text text-anchor="start" x="68" y="-6.5" font-family="Helvetica,sans-Serif" font-size="10.00">+</text>
<text text-anchor="start" x="81" y="-6.5" font-family="Helvetica,sans-Serif" font-size="10.00">cast()</text>
<polygon fill="#666666" stroke="#666666" points="64,-121.5 64,-121.5 170,-121.5 170,-121.5 64,-121.5"/>
<polygon fill="#666666" stroke="#666666" points="64,-106.5 64,-106.5 170,-106.5 170,-106.5 64,-106.5"/>
<polygon fill="none" stroke="#666666" points="64,0 64,-139 170,-139 170,0 64,0"/>
</a>
</g>
</g>
<!-- Node2 -->
<g id="Node000002" class="node">
<title>Node2</title>
<g id="a_Node000002"><a xlink:href="../../df/db7/classrm_1_1feature.html" target="_top" xlink:title="图像中的轮廓特征">
<polygon fill="white" stroke="transparent" points="149.5,-330 84.5,-330 84.5,-176 149.5,-176 149.5,-330"/>
<text text-anchor="start" x="90" y="-318" font-family="Helvetica,sans-Serif" font-size="10.00">rm::feature</text>
<text text-anchor="start" x="115.5" y="-303" font-family="Helvetica,sans-Serif" font-size="10.00"> </text>
<text text-anchor="start" x="89" y="-288" font-family="Helvetica,sans-Serif" font-size="10.00">+</text>
<text text-anchor="start" x="102" y="-288" font-family="Helvetica,sans-Serif" font-size="10.00">clone()</text>
<text text-anchor="start" x="89" y="-273" font-family="Helvetica,sans-Serif" font-size="10.00">+</text>
<text text-anchor="start" x="102" y="-273" font-family="Helvetica,sans-Serif" font-size="10.00">area()</text>
<text text-anchor="start" x="89" y="-258" font-family="Helvetica,sans-Serif" font-size="10.00">+</text>
<text text-anchor="start" x="102" y="-258" font-family="Helvetica,sans-Serif" font-size="10.00">center()</text>
<text text-anchor="start" x="89" y="-243" font-family="Helvetica,sans-Serif" font-size="10.00">+</text>
<text text-anchor="start" x="102" y="-243" font-family="Helvetica,sans-Serif" font-size="10.00">width()</text>
<text text-anchor="start" x="89" y="-228" font-family="Helvetica,sans-Serif" font-size="10.00">+</text>
<text text-anchor="start" x="102" y="-228" font-family="Helvetica,sans-Serif" font-size="10.00">height()</text>
<text text-anchor="start" x="89" y="-213" font-family="Helvetica,sans-Serif" font-size="10.00">+</text>
<text text-anchor="start" x="102" y="-213" font-family="Helvetica,sans-Serif" font-size="10.00">angle()</text>
<text text-anchor="start" x="89" y="-198" font-family="Helvetica,sans-Serif" font-size="10.00">+</text>
<text text-anchor="start" x="102" y="-198" font-family="Helvetica,sans-Serif" font-size="10.00">corners()</text>
<text text-anchor="start" x="89" y="-183" font-family="Helvetica,sans-Serif" font-size="10.00">+</text>
<text text-anchor="start" x="102" y="-183" font-family="Helvetica,sans-Serif" font-size="10.00">type()</text>
<polygon fill="#666666" stroke="#666666" points="85,-313 85,-313 150,-313 150,-313 85,-313"/>
<polygon fill="#666666" stroke="#666666" points="85,-298 85,-298 150,-298 150,-298 85,-298"/>
<polygon fill="none" stroke="#666666" points="84.5,-176 84.5,-330 149.5,-330 149.5,-176 84.5,-176"/>
</a>
</g>
</g>
<!-- Node2&#45;&gt;Node1 -->
<g id="edge1_Node000001_Node000002" class="edge">
<title>Node2&#45;&gt;Node1</title>
<g id="a_edge1_Node000001_Node000002"><a xlink:title=" ">
<path fill="none" stroke="#63b8ff" d="M117,-165.81C117,-156.9 117,-147.94 117,-139.27"/>
<polygon fill="none" stroke="#63b8ff" points="113.5,-165.82 117,-175.82 120.5,-165.82 113.5,-165.82"/>
</a>
</g>
</g>
<!-- Node3 -->
<g id="Node000003" class="node">
<title>Node3</title>
<g id="a_Node000003"><a xlink:title=" ">
<polygon fill="white" stroke="transparent" points="32,-463 0,-463 0,-414 32,-414 32,-463"/>
<text text-anchor="start" x="5" y="-450.5" font-family="Helvetica,sans-Serif" font-size="10.00">float</text>
<text text-anchor="start" x="14" y="-435.5" font-family="Helvetica,sans-Serif" font-size="10.00"> </text>
<text text-anchor="start" x="14" y="-420.5" font-family="Helvetica,sans-Serif" font-size="10.00"> </text>
<polygon fill="#666666" stroke="#666666" points="0,-445.5 0,-445.5 32,-445.5 32,-445.5 0,-445.5"/>
<polygon fill="#666666" stroke="#666666" points="0,-430.5 0,-430.5 32,-430.5 32,-430.5 0,-430.5"/>
<polygon fill="none" stroke="#666666" points="0,-414 0,-463 32,-463 32,-414 0,-414"/>
</a>
</g>
</g>
<!-- Node3&#45;&gt;Node2 -->
<g id="edge2_Node000002_Node000003" class="edge">
<title>Node3&#45;&gt;Node2</title>
<g id="a_edge2_Node000002_Node000003"><a xlink:title=" ">
<path fill="none" stroke="#63b8ff" d="M11.34,-413.63C8.84,-394.96 7.88,-368.77 17,-348 28.91,-320.88 52.83,-297.93 74.29,-281.5"/>
<polygon fill="none" stroke="#63b8ff" points="74.57,-281.3 77.04,-274.52 84.25,-274.19 81.78,-280.97 74.57,-281.3"/>
</a>
</g>
<text text-anchor="middle" x="39.5" y="-373" font-family="Helvetica,sans-Serif" font-size="10.00" fill="grey"> #_angle</text>
<text text-anchor="middle" x="39.5" y="-362" font-family="Helvetica,sans-Serif" font-size="10.00" fill="grey">#_height</text>
<text text-anchor="middle" x="39.5" y="-351" font-family="Helvetica,sans-Serif" font-size="10.00" fill="grey">#_width</text>
</g>
<!-- Node4 -->
<g id="Node000004" class="node">
<title>Node4</title>
<g id="a_Node000004"><a xlink:title=" ">
<polygon fill="white" stroke="transparent" points="118.5,-574 73.5,-574 73.5,-525 118.5,-525 118.5,-574"/>
<text text-anchor="start" x="79" y="-561.5" font-family="Helvetica,sans-Serif" font-size="10.00">Point2f</text>
<text text-anchor="start" x="94.5" y="-546.5" font-family="Helvetica,sans-Serif" font-size="10.00"> </text>
<text text-anchor="start" x="94.5" y="-531.5" font-family="Helvetica,sans-Serif" font-size="10.00"> </text>
<polygon fill="#666666" stroke="#666666" points="74,-556.5 74,-556.5 119,-556.5 119,-556.5 74,-556.5"/>
<polygon fill="#666666" stroke="#666666" points="74,-541.5 74,-541.5 119,-541.5 119,-541.5 74,-541.5"/>
<polygon fill="none" stroke="#666666" points="73.5,-525 73.5,-574 118.5,-574 118.5,-525 73.5,-525"/>
</a>
</g>
</g>
<!-- Node4&#45;&gt;Node2 -->
<g id="edge3_Node000002_Node000004" class="edge">
<title>Node4&#45;&gt;Node2</title>
<g id="a_edge3_Node000002_Node000004"><a xlink:title=" ">
<path fill="none" stroke="#63b8ff" d="M91.36,-524.79C88.93,-511.16 86.22,-493.69 85,-478 82.29,-442.99 81.19,-433.9 85,-399 87.03,-380.41 90.47,-360.72 94.37,-342.04"/>
<polygon fill="none" stroke="#63b8ff" points="94.39,-341.97 91.74,-335.26 96.92,-330.24 99.56,-336.95 94.39,-341.97"/>
</a>
</g>
<text text-anchor="middle" x="109" y="-436" font-family="Helvetica,sans-Serif" font-size="10.00" fill="grey"> #_center</text>
</g>
<!-- Node5 -->
<g id="Node000005" class="node">
<title>Node5</title>
<g id="a_Node000005"><a xlink:title=" ">
<polygon fill="white" stroke="transparent" points="278,-463 142,-463 142,-414 278,-414 278,-463"/>
<text text-anchor="start" x="147" y="-450.5" font-family="Helvetica,sans-Serif" font-size="10.00">std::vector&lt; cv::Point2f &gt;</text>
<text text-anchor="start" x="208" y="-435.5" font-family="Helvetica,sans-Serif" font-size="10.00"> </text>
<text text-anchor="start" x="208" y="-420.5" font-family="Helvetica,sans-Serif" font-size="10.00"> </text>
<polygon fill="#666666" stroke="#666666" points="142,-445.5 142,-445.5 278,-445.5 278,-445.5 142,-445.5"/>
<polygon fill="#666666" stroke="#666666" points="142,-430.5 142,-430.5 278,-430.5 278,-430.5 142,-430.5"/>
<polygon fill="none" stroke="#666666" points="142,-414 142,-463 278,-463 278,-414 142,-414"/>
</a>
</g>
</g>
<!-- Node4&#45;&gt;Node5 -->
<g id="edge5_Node000005_Node000004" class="edge">
<title>Node4&#45;&gt;Node5</title>
<g id="a_edge5_Node000005_Node000004"><a xlink:title=" ">
<path fill="none" stroke="#63b8ff" d="M116.44,-524.93C124.75,-515.67 134.59,-505.1 144,-496 152.61,-487.67 162.23,-479.07 171.4,-471.17"/>
<polygon fill="none" stroke="#63b8ff" points="171.59,-471 173.58,-464.07 180.74,-463.23 178.76,-470.17 171.59,-471"/>
</a>
</g>
<text text-anchor="middle" x="173" y="-499" font-family="Helvetica,sans-Serif" font-size="10.00" fill="grey"> +elements</text>
</g>
<!-- Node5&#45;&gt;Node2 -->
<g id="edge4_Node000002_Node000005" class="edge">
<title>Node5&#45;&gt;Node2</title>
<g id="a_edge4_Node000002_Node000005"><a xlink:title=" ">
<path fill="none" stroke="#63b8ff" d="M198.03,-413.89C187.15,-392.42 170.5,-359.55 155.11,-329.19"/>
<polygon fill="none" stroke="#63b8ff" points="154.93,-328.85 148.65,-325.3 149.51,-318.14 155.79,-321.69 154.93,-328.85"/>
</a>
</g>
<text text-anchor="middle" x="206.5" y="-362" font-family="Helvetica,sans-Serif" font-size="10.00" fill="grey"> #_corners</text>
</g>
<!-- Node6 -->
<g id="Node000006" class="node">
<title>Node6</title>
<g id="a_Node000006"><a xlink:title=" ">
<polygon fill="white" stroke="transparent" points="247.5,-574 156.5,-574 156.5,-525 247.5,-525 247.5,-574"/>
<text text-anchor="start" x="162" y="-561.5" font-family="Helvetica,sans-Serif" font-size="10.00">std::vector&lt; T &gt;</text>
<text text-anchor="start" x="200.5" y="-546.5" font-family="Helvetica,sans-Serif" font-size="10.00"> </text>
<text text-anchor="start" x="200.5" y="-531.5" font-family="Helvetica,sans-Serif" font-size="10.00"> </text>
<polygon fill="#666666" stroke="#666666" points="157,-556.5 157,-556.5 248,-556.5 248,-556.5 157,-556.5"/>
<polygon fill="#666666" stroke="#666666" points="157,-541.5 157,-541.5 248,-541.5 248,-541.5 157,-541.5"/>
<polygon fill="none" stroke="#666666" points="156.5,-525 156.5,-574 247.5,-574 247.5,-525 156.5,-525"/>
</a>
</g>
</g>
<!-- Node6&#45;&gt;Node5 -->
<g id="edge6_Node000005_Node000006" class="edge">
<title>Node6&#45;&gt;Node5</title>
<g id="a_edge6_Node000005_Node000006"><a xlink:title=" ">
<path fill="none" stroke="orange" d="M204.5,-514.4C205.73,-497.74 207.17,-478.09 208.27,-463.11"/>
<polygon fill="orange" stroke="orange" points="200.98,-514.62 203.74,-524.85 207.96,-515.13 200.98,-514.62"/>
</a>
</g>
<text text-anchor="middle" x="244.5" y="-499" font-family="Helvetica,sans-Serif" font-size="10.00" fill="grey"> &lt; cv::Point2f &gt;</text>
</g>
<!-- Node7 -->
<g id="Node000007" class="node">
<title>Node7</title>
<g id="a_Node000007"><a xlink:title=" ">
<polygon fill="white" stroke="transparent" points="210.5,-670 193.5,-670 193.5,-621 210.5,-621 210.5,-670"/>
<text text-anchor="start" x="199" y="-657.5" font-family="Helvetica,sans-Serif" font-size="10.00">T</text>
<text text-anchor="start" x="200.5" y="-642.5" font-family="Helvetica,sans-Serif" font-size="10.00"> </text>
<text text-anchor="start" x="200.5" y="-627.5" font-family="Helvetica,sans-Serif" font-size="10.00"> </text>
<polygon fill="#666666" stroke="#666666" points="194,-652.5 194,-652.5 211,-652.5 211,-652.5 194,-652.5"/>
<polygon fill="#666666" stroke="#666666" points="194,-637.5 194,-637.5 211,-637.5 211,-637.5 194,-637.5"/>
<polygon fill="none" stroke="#666666" points="193.5,-621 193.5,-670 210.5,-670 210.5,-621 193.5,-621"/>
</a>
</g>
</g>
<!-- Node7&#45;&gt;Node6 -->
<g id="edge7_Node000006_Node000007" class="edge">
<title>Node7&#45;&gt;Node6</title>
<g id="a_edge7_Node000006_Node000007"><a xlink:title=" ">
<path fill="none" stroke="#63b8ff" d="M202,-620.78C202,-610.32 202,-597.79 202,-586.23"/>
<polygon fill="none" stroke="#63b8ff" points="202,-586.21 198,-580.21 202,-574.21 206,-580.21 202,-586.21"/>
</a>
</g>
<text text-anchor="middle" x="231" y="-595" font-family="Helvetica,sans-Serif" font-size="10.00" fill="grey"> +elements</text>
</g>
<!-- Node8 -->
<g id="Node000008" class="node">
<title>Node8</title>
<g id="a_Node000008"><a xlink:href="../../d0/d01/structrm_1_1RMStatus.html" target="_top" xlink:title="状态类型">
<polygon fill="white" stroke="transparent" points="514.5,-478 427.5,-478 427.5,-399 514.5,-399 514.5,-478"/>
<text text-anchor="start" x="438" y="-465.5" font-family="Helvetica,sans-Serif" font-size="10.00">rm::RMStatus</text>
<text text-anchor="start" x="469.5" y="-450.5" font-family="Helvetica,sans-Serif" font-size="10.00"> </text>
<text text-anchor="start" x="432" y="-435.5" font-family="Helvetica,sans-Serif" font-size="10.00">+</text>
<text text-anchor="start" x="445" y="-435.5" font-family="Helvetica,sans-Serif" font-size="10.00">operator==()</text>
<text text-anchor="start" x="432" y="-420.5" font-family="Helvetica,sans-Serif" font-size="10.00">+</text>
<text text-anchor="start" x="445" y="-420.5" font-family="Helvetica,sans-Serif" font-size="10.00">to_string()</text>
<text text-anchor="start" x="432" y="-405.5" font-family="Helvetica,sans-Serif" font-size="10.00">+</text>
<text text-anchor="start" x="445" y="-405.5" font-family="Helvetica,sans-Serif" font-size="10.00">to_string()</text>
<polygon fill="#666666" stroke="#666666" points="428,-460.5 428,-460.5 515,-460.5 515,-460.5 428,-460.5"/>
<polygon fill="#666666" stroke="#666666" points="428,-445.5 428,-445.5 515,-445.5 515,-445.5 428,-445.5"/>
<polygon fill="none" stroke="#666666" points="427.5,-399 427.5,-478 514.5,-478 514.5,-399 427.5,-399"/>
</a>
</g>
</g>
<!-- Node8&#45;&gt;Node2 -->
<g id="edge8_Node000002_Node000008" class="edge">
<title>Node8&#45;&gt;Node2</title>
<g id="a_edge8_Node000002_Node000008"><a xlink:title=" ">
<path fill="none" stroke="#63b8ff" d="M427.24,-414.82C359.07,-379.48 228.33,-311.71 160.39,-276.49"/>
<polygon fill="none" stroke="#63b8ff" points="160.31,-276.45 153.14,-277.24 149.65,-270.93 156.82,-270.14 160.31,-276.45"/>
</a>
</g>
<text text-anchor="middle" x="376.5" y="-362" font-family="Helvetica,sans-Serif" font-size="10.00" fill="grey"> #_type</text>
</g>
<!-- Node9 -->
<g id="Node000009" class="node">
<title>Node9</title>
<g id="a_Node000009"><a xlink:title=" ">
<polygon fill="white" stroke="transparent" points="348.5,-574 265.5,-574 265.5,-525 348.5,-525 348.5,-574"/>
<text text-anchor="start" x="271" y="-561.5" font-family="Helvetica,sans-Serif" font-size="10.00">ArmorSizeType</text>
<text text-anchor="start" x="305.5" y="-546.5" font-family="Helvetica,sans-Serif" font-size="10.00"> </text>
<text text-anchor="start" x="305.5" y="-531.5" font-family="Helvetica,sans-Serif" font-size="10.00"> </text>
<polygon fill="#666666" stroke="#666666" points="266,-556.5 266,-556.5 349,-556.5 349,-556.5 266,-556.5"/>
<polygon fill="#666666" stroke="#666666" points="266,-541.5 266,-541.5 349,-541.5 349,-541.5 266,-541.5"/>
<polygon fill="none" stroke="#666666" points="265.5,-525 265.5,-574 348.5,-574 348.5,-525 265.5,-525"/>
</a>
</g>
</g>
<!-- Node9&#45;&gt;Node8 -->
<g id="edge9_Node000008_Node000009" class="edge">
<title>Node9&#45;&gt;Node8</title>
<g id="a_edge9_Node000008_Node000009"><a xlink:title=" ">
<path fill="none" stroke="#63b8ff" d="M310.58,-524.74C313.14,-514.8 317.52,-503.78 325,-496 348.95,-471.1 385.12,-456.99 415.46,-449.11"/>
<polygon fill="none" stroke="#63b8ff" points="415.53,-449.09 420.43,-443.8 427.2,-446.28 422.3,-451.58 415.53,-449.09"/>
</a>
</g>
<text text-anchor="middle" x="372.5" y="-499" font-family="Helvetica,sans-Serif" font-size="10.00" fill="grey"> +ArmorSizeTypeID</text>
</g>
<!-- Node10 -->
<g id="Node000010" class="node">
<title>Node10</title>
<g id="a_Node000010"><a xlink:title=" ">
<polygon fill="white" stroke="transparent" points="453,-574 395,-574 395,-525 453,-525 453,-574"/>
<text text-anchor="start" x="400" y="-561.5" font-family="Helvetica,sans-Serif" font-size="10.00">RuneType</text>
<text text-anchor="start" x="422" y="-546.5" font-family="Helvetica,sans-Serif" font-size="10.00"> </text>
<text text-anchor="start" x="422" y="-531.5" font-family="Helvetica,sans-Serif" font-size="10.00"> </text>
<polygon fill="#666666" stroke="#666666" points="395,-556.5 395,-556.5 453,-556.5 453,-556.5 395,-556.5"/>
<polygon fill="#666666" stroke="#666666" points="395,-541.5 395,-541.5 453,-541.5 453,-541.5 395,-541.5"/>
<polygon fill="none" stroke="#666666" points="395,-525 395,-574 453,-574 453,-525 395,-525"/>
</a>
</g>
</g>
<!-- Node10&#45;&gt;Node8 -->
<g id="edge10_Node000008_Node000010" class="edge">
<title>Node10&#45;&gt;Node8</title>
<g id="a_edge10_Node000008_Node000010"><a xlink:title=" ">
<path fill="none" stroke="#63b8ff" d="M421.79,-524.89C421.72,-515.62 422.64,-505.06 426,-496 426.89,-493.61 427.92,-491.25 429.06,-488.92"/>
<polygon fill="none" stroke="#63b8ff" points="429.17,-488.72 428.68,-481.52 435.14,-478.31 435.63,-485.5 429.17,-488.72"/>
</a>
</g>
<text text-anchor="middle" x="461" y="-499" font-family="Helvetica,sans-Serif" font-size="10.00" fill="grey"> +RuneTypeID</text>
</g>
<!-- Node11 -->
<g id="Node000011" class="node">
<title>Node11</title>
<g id="a_Node000011"><a xlink:title=" ">
<polygon fill="white" stroke="transparent" points="566.5,-574 471.5,-574 471.5,-525 566.5,-525 566.5,-574"/>
<text text-anchor="start" x="477" y="-561.5" font-family="Helvetica,sans-Serif" font-size="10.00">CompensateType</text>
<text text-anchor="start" x="517.5" y="-546.5" font-family="Helvetica,sans-Serif" font-size="10.00"> </text>
<text text-anchor="start" x="517.5" y="-531.5" font-family="Helvetica,sans-Serif" font-size="10.00"> </text>
<polygon fill="#666666" stroke="#666666" points="472,-556.5 472,-556.5 567,-556.5 567,-556.5 472,-556.5"/>
<polygon fill="#666666" stroke="#666666" points="472,-541.5 472,-541.5 567,-541.5 567,-541.5 472,-541.5"/>
<polygon fill="none" stroke="#666666" points="471.5,-525 471.5,-574 566.5,-574 566.5,-525 471.5,-525"/>
</a>
</g>
</g>
<!-- Node11&#45;&gt;Node8 -->
<g id="edge11_Node000008_Node000011" class="edge">
<title>Node11&#45;&gt;Node8</title>
<g id="a_edge11_Node000008_Node000011"><a xlink:title=" ">
<path fill="none" stroke="#63b8ff" d="M508.71,-524.97C504.75,-515.91 500.17,-505.47 496,-496 495,-493.74 493.98,-491.42 492.95,-489.09"/>
<polygon fill="none" stroke="#63b8ff" points="492.95,-489.07 486.86,-485.19 488.1,-478.09 494.18,-481.96 492.95,-489.07"/>
</a>
</g>
<text text-anchor="middle" x="553" y="-499" font-family="Helvetica,sans-Serif" font-size="10.00" fill="grey"> +CompensateTypeID</text>
</g>
<!-- Node12 -->
<g id="Node000012" class="node">
<title>Node12</title>
<g id="a_Node000012"><a xlink:title=" ">
<polygon fill="white" stroke="transparent" points="678,-574 616,-574 616,-525 678,-525 678,-574"/>
<text text-anchor="start" x="621" y="-561.5" font-family="Helvetica,sans-Serif" font-size="10.00">RobotType</text>
<text text-anchor="start" x="645" y="-546.5" font-family="Helvetica,sans-Serif" font-size="10.00"> </text>
<text text-anchor="start" x="645" y="-531.5" font-family="Helvetica,sans-Serif" font-size="10.00"> </text>
<polygon fill="#666666" stroke="#666666" points="616,-556.5 616,-556.5 678,-556.5 678,-556.5 616,-556.5"/>
<polygon fill="#666666" stroke="#666666" points="616,-541.5 616,-541.5 678,-541.5 678,-541.5 616,-541.5"/>
<polygon fill="none" stroke="#666666" points="616,-525 616,-574 678,-574 678,-525 616,-525"/>
</a>
</g>
</g>
<!-- Node12&#45;&gt;Node8 -->
<g id="edge12_Node000008_Node000012" class="edge">
<title>Node12&#45;&gt;Node8</title>
<g id="a_edge12_Node000008_Node000012"><a xlink:title=" ">
<path fill="none" stroke="#63b8ff" d="M634.5,-524.99C628.23,-514.99 619.86,-503.84 610,-496 585.57,-476.59 553.58,-462.97 526.44,-453.98"/>
<polygon fill="none" stroke="#63b8ff" points="526.19,-453.9 519.27,-455.91 514.75,-450.29 521.68,-448.28 526.19,-453.9"/>
</a>
</g>
<text text-anchor="middle" x="657.5" y="-499" font-family="Helvetica,sans-Serif" font-size="10.00" fill="grey"> +RobotTypeID</text>
</g>
<!-- Node13 -->
<g id="Node000013" class="node">
<title>Node13</title>
<g id="a_Node000013"><a xlink:title=" ">
<polygon fill="white" stroke="transparent" points="768,-574 718,-574 718,-525 768,-525 768,-574"/>
<text text-anchor="start" x="723" y="-561.5" font-family="Helvetica,sans-Serif" font-size="10.00">TagType</text>
<text text-anchor="start" x="741" y="-546.5" font-family="Helvetica,sans-Serif" font-size="10.00"> </text>
<text text-anchor="start" x="741" y="-531.5" font-family="Helvetica,sans-Serif" font-size="10.00"> </text>
<polygon fill="#666666" stroke="#666666" points="718,-556.5 718,-556.5 768,-556.5 768,-556.5 718,-556.5"/>
<polygon fill="#666666" stroke="#666666" points="718,-541.5 718,-541.5 768,-541.5 768,-541.5 718,-541.5"/>
<polygon fill="none" stroke="#666666" points="718,-525 718,-574 768,-574 768,-525 718,-525"/>
</a>
</g>
</g>
<!-- Node13&#45;&gt;Node8 -->
<g id="edge13_Node000008_Node000013" class="edge">
<title>Node13&#45;&gt;Node8</title>
<g id="a_edge13_Node000008_Node000013"><a xlink:title=" ">
<path fill="none" stroke="#63b8ff" d="M727.77,-524.86C720.02,-514.58 709.75,-503.25 698,-496 645.39,-463.52 575.07,-449.69 526.71,-443.81"/>
<polygon fill="none" stroke="#63b8ff" points="526.53,-443.79 520.12,-447.1 514.61,-442.45 521.02,-439.15 526.53,-443.79"/>
</a>
</g>
<text text-anchor="middle" x="741.5" y="-499" font-family="Helvetica,sans-Serif" font-size="10.00" fill="grey"> +TagTypeID</text>
</g>
</g>
</svg>
