<?xml version="1.0" encoding="UTF-8" standalone="no"?>
<!DOCTYPE svg PUBLIC "-//W3C//DTD SVG 1.1//EN"
 "http://www.w3.org/Graphics/SVG/1.1/DTD/svg11.dtd">
<!-- Generated by graphviz version 2.43.0 (0)
 -->
<!-- Title: rm::Tag Pages: 1 -->
<svg width="388pt" height="783pt"
 viewBox="0.00 0.00 388.00 783.00" xmlns="http://www.w3.org/2000/svg" xmlns:xlink="http://www.w3.org/1999/xlink">
<g id="graph0" class="graph" transform="scale(1 1) rotate(0) translate(4 779)">
<title>rm::Tag</title>
<!-- Node1 -->
<g id="Node000001" class="node">
<title>Node1</title>
<g id="a_Node000001"><a xlink:title="AprilTag 视觉标签特征类">
<polygon fill="#999999" stroke="transparent" points="165.5,-94 68.5,-94 68.5,0 165.5,0 165.5,-94"/>
<text text-anchor="start" x="99" y="-82" font-family="Helvetica,sans-Serif" font-size="10.00">rm::Tag</text>
<text text-anchor="start" x="115.5" y="-67" font-family="Helvetica,sans-Serif" font-size="10.00"> </text>
<text text-anchor="start" x="73" y="-52" font-family="Helvetica,sans-Serif" font-size="10.00">+</text>
<text text-anchor="start" x="86" y="-52" font-family="Helvetica,sans-Serif" font-size="10.00">clone()</text>
<text text-anchor="start" x="73" y="-37" font-family="Helvetica,sans-Serif" font-size="10.00">+</text>
<text text-anchor="start" x="86" y="-37" font-family="Helvetica,sans-Serif" font-size="10.00">make_feature()</text>
<text text-anchor="start" x="73" y="-22" font-family="Helvetica,sans-Serif" font-size="10.00">+</text>
<text text-anchor="start" x="86" y="-22" font-family="Helvetica,sans-Serif" font-size="10.00">cast()</text>
<text text-anchor="start" x="73" y="-7" font-family="Helvetica,sans-Serif" font-size="10.00">+</text>
<text text-anchor="start" x="86" y="-7" font-family="Helvetica,sans-Serif" font-size="10.00">cast()</text>
<polygon fill="#666666" stroke="#666666" points="69,-77 69,-77 166,-77 166,-77 69,-77"/>
<polygon fill="#666666" stroke="#666666" points="69,-62 69,-62 166,-62 166,-62 69,-62"/>
<polygon fill="none" stroke="#666666" points="68.5,0 68.5,-94 165.5,-94 165.5,0 68.5,0"/>
</a>
</g>
</g>
<!-- Node2 -->
<g id="Node000002" class="node">
<title>Node2</title>
<g id="a_Node000002"><a xlink:href="../../df/db7/classrm_1_1feature.html" target="_top" xlink:title="图像中的轮廓特征">
<polygon fill="white" stroke="transparent" points="149.5,-300 84.5,-300 84.5,-131 149.5,-131 149.5,-300"/>
<text text-anchor="start" x="90" y="-287.5" font-family="Helvetica,sans-Serif" font-size="10.00">rm::feature</text>
<text text-anchor="start" x="115.5" y="-272.5" font-family="Helvetica,sans-Serif" font-size="10.00"> </text>
<text text-anchor="start" x="89" y="-257.5" font-family="Helvetica,sans-Serif" font-size="10.00">+</text>
<text text-anchor="start" x="102" y="-257.5" font-family="Helvetica,sans-Serif" font-size="10.00">clone()</text>
<text text-anchor="start" x="89" y="-242.5" font-family="Helvetica,sans-Serif" font-size="10.00">+</text>
<text text-anchor="start" x="102" y="-242.5" font-family="Helvetica,sans-Serif" font-size="10.00">area()</text>
<text text-anchor="start" x="89" y="-227.5" font-family="Helvetica,sans-Serif" font-size="10.00">+</text>
<text text-anchor="start" x="102" y="-227.5" font-family="Helvetica,sans-Serif" font-size="10.00">center()</text>
<text text-anchor="start" x="89" y="-212.5" font-family="Helvetica,sans-Serif" font-size="10.00">+</text>
<text text-anchor="start" x="102" y="-212.5" font-family="Helvetica,sans-Serif" font-size="10.00">width()</text>
<text text-anchor="start" x="89" y="-197.5" font-family="Helvetica,sans-Serif" font-size="10.00">+</text>
<text text-anchor="start" x="102" y="-197.5" font-family="Helvetica,sans-Serif" font-size="10.00">height()</text>
<text text-anchor="start" x="89" y="-182.5" font-family="Helvetica,sans-Serif" font-size="10.00">+</text>
<text text-anchor="start" x="102" y="-182.5" font-family="Helvetica,sans-Serif" font-size="10.00">angle()</text>
<text text-anchor="start" x="89" y="-167.5" font-family="Helvetica,sans-Serif" font-size="10.00">+</text>
<text text-anchor="start" x="102" y="-167.5" font-family="Helvetica,sans-Serif" font-size="10.00">corners()</text>
<text text-anchor="start" x="89" y="-152.5" font-family="Helvetica,sans-Serif" font-size="10.00">+</text>
<text text-anchor="start" x="102" y="-152.5" font-family="Helvetica,sans-Serif" font-size="10.00">state()</text>
<text text-anchor="start" x="89" y="-137.5" font-family="Helvetica,sans-Serif" font-size="10.00">+</text>
<text text-anchor="start" x="102" y="-137.5" font-family="Helvetica,sans-Serif" font-size="10.00">state()</text>
<polygon fill="#666666" stroke="#666666" points="85,-282.5 85,-282.5 150,-282.5 150,-282.5 85,-282.5"/>
<polygon fill="#666666" stroke="#666666" points="85,-267.5 85,-267.5 150,-267.5 150,-267.5 85,-267.5"/>
<polygon fill="none" stroke="#666666" points="84.5,-131 84.5,-300 149.5,-300 149.5,-131 84.5,-131"/>
</a>
</g>
</g>
<!-- Node2&#45;&gt;Node1 -->
<g id="edge1_Node000001_Node000002" class="edge">
<title>Node2&#45;&gt;Node1</title>
<g id="a_edge1_Node000001_Node000002"><a xlink:title=" ">
<path fill="none" stroke="#63b8ff" d="M117,-120.72C117,-111.51 117,-102.47 117,-94.07"/>
<polygon fill="none" stroke="#63b8ff" points="113.5,-120.76 117,-130.76 120.5,-120.76 113.5,-120.76"/>
</a>
</g>
</g>
<!-- Node3 -->
<g id="Node000003" class="node">
<title>Node3</title>
<g id="a_Node000003"><a xlink:title=" ">
<polygon fill="white" stroke="transparent" points="32,-500.5 0,-500.5 0,-451.5 32,-451.5 32,-500.5"/>
<text text-anchor="start" x="5" y="-488" font-family="Helvetica,sans-Serif" font-size="10.00">float</text>
<text text-anchor="start" x="14" y="-473" font-family="Helvetica,sans-Serif" font-size="10.00"> </text>
<text text-anchor="start" x="14" y="-458" font-family="Helvetica,sans-Serif" font-size="10.00"> </text>
<polygon fill="#666666" stroke="#666666" points="0,-483 0,-483 32,-483 32,-483 0,-483"/>
<polygon fill="#666666" stroke="#666666" points="0,-468 0,-468 32,-468 32,-468 0,-468"/>
<polygon fill="none" stroke="#666666" points="0,-451.5 0,-500.5 32,-500.5 32,-451.5 0,-451.5"/>
</a>
</g>
</g>
<!-- Node3&#45;&gt;Node2 -->
<g id="edge2_Node000002_Node000003" class="edge">
<title>Node3&#45;&gt;Node2</title>
<g id="a_edge2_Node000002_Node000003"><a xlink:title=" ">
<path fill="none" stroke="#63b8ff" d="M10.81,-451.3C5.03,-419.59 -1.28,-362.21 17,-318 28.86,-289.33 53.11,-264.38 74.75,-246.4"/>
<polygon fill="none" stroke="#63b8ff" points="74.77,-246.38 76.96,-239.51 84.14,-238.88 81.96,-245.75 74.77,-246.38"/>
</a>
</g>
<text text-anchor="middle" x="39.5" y="-343" font-family="Helvetica,sans-Serif" font-size="10.00" fill="grey"> #_angle</text>
<text text-anchor="middle" x="39.5" y="-332" font-family="Helvetica,sans-Serif" font-size="10.00" fill="grey">#_height</text>
<text text-anchor="middle" x="39.5" y="-321" font-family="Helvetica,sans-Serif" font-size="10.00" fill="grey">#_width</text>
</g>
<!-- Node4 -->
<g id="Node000004" class="node">
<title>Node4</title>
<g id="a_Node000004"><a xlink:title=" ">
<polygon fill="white" stroke="transparent" points="122.5,-679 77.5,-679 77.5,-630 122.5,-630 122.5,-679"/>
<text text-anchor="start" x="83" y="-666.5" font-family="Helvetica,sans-Serif" font-size="10.00">Point2f</text>
<text text-anchor="start" x="98.5" y="-651.5" font-family="Helvetica,sans-Serif" font-size="10.00"> </text>
<text text-anchor="start" x="98.5" y="-636.5" font-family="Helvetica,sans-Serif" font-size="10.00"> </text>
<polygon fill="#666666" stroke="#666666" points="78,-661.5 78,-661.5 123,-661.5 123,-661.5 78,-661.5"/>
<polygon fill="#666666" stroke="#666666" points="78,-646.5 78,-646.5 123,-646.5 123,-646.5 78,-646.5"/>
<polygon fill="none" stroke="#666666" points="77.5,-630 77.5,-679 122.5,-679 122.5,-630 77.5,-630"/>
</a>
</g>
</g>
<!-- Node4&#45;&gt;Node2 -->
<g id="edge3_Node000002_Node000004" class="edge">
<title>Node4&#45;&gt;Node2</title>
<g id="a_edge3_Node000002_Node000004"><a xlink:title=" ">
<path fill="none" stroke="#63b8ff" d="M93.68,-629.88C90.37,-616.28 86.66,-598.8 85,-583 75.05,-488.41 75.18,-463.6 85,-369 86.92,-350.48 90.12,-330.9 93.78,-312.16"/>
<polygon fill="none" stroke="#63b8ff" points="93.8,-312.07 91.06,-305.4 96.17,-300.31 98.9,-306.98 93.8,-312.07"/>
</a>
</g>
<text text-anchor="middle" x="109" y="-473.5" font-family="Helvetica,sans-Serif" font-size="10.00" fill="grey"> #_center</text>
</g>
<!-- Node5 -->
<g id="Node000005" class="node">
<title>Node5</title>
<g id="a_Node000005"><a xlink:title=" ">
<polygon fill="white" stroke="transparent" points="278,-500.5 142,-500.5 142,-451.5 278,-451.5 278,-500.5"/>
<text text-anchor="start" x="147" y="-488" font-family="Helvetica,sans-Serif" font-size="10.00">std::vector&lt; cv::Point2f &gt;</text>
<text text-anchor="start" x="208" y="-473" font-family="Helvetica,sans-Serif" font-size="10.00"> </text>
<text text-anchor="start" x="208" y="-458" font-family="Helvetica,sans-Serif" font-size="10.00"> </text>
<polygon fill="#666666" stroke="#666666" points="142,-483 142,-483 278,-483 278,-483 142,-483"/>
<polygon fill="#666666" stroke="#666666" points="142,-468 142,-468 278,-468 278,-468 142,-468"/>
<polygon fill="none" stroke="#666666" points="142,-451.5 142,-500.5 278,-500.5 278,-451.5 142,-451.5"/>
</a>
</g>
</g>
<!-- Node4&#45;&gt;Node5 -->
<g id="edge5_Node000005_Node000004" class="edge">
<title>Node4&#45;&gt;Node5</title>
<g id="a_edge5_Node000005_Node000004"><a xlink:title=" ">
<path fill="none" stroke="#63b8ff" d="M114.84,-629.7C133.83,-599.21 166.89,-546.18 188.6,-511.33"/>
<polygon fill="none" stroke="#63b8ff" points="188.88,-510.89 188.66,-503.68 195.22,-500.71 195.45,-507.92 188.88,-510.89"/>
</a>
</g>
<text text-anchor="middle" x="162" y="-604" font-family="Helvetica,sans-Serif" font-size="10.00" fill="grey"> +elements</text>
</g>
<!-- Node5&#45;&gt;Node2 -->
<g id="edge4_Node000002_Node000005" class="edge">
<title>Node5&#45;&gt;Node2</title>
<g id="a_edge4_Node000002_Node000005"><a xlink:title=" ">
<path fill="none" stroke="#63b8ff" d="M201.42,-451.14C190.05,-419.55 169.33,-361.95 151.26,-311.72"/>
<polygon fill="none" stroke="#63b8ff" points="151.15,-311.43 145.36,-307.14 147.09,-300.14 152.89,-304.43 151.15,-311.43"/>
</a>
</g>
<text text-anchor="middle" x="190.5" y="-332" font-family="Helvetica,sans-Serif" font-size="10.00" fill="grey"> #_corners</text>
</g>
<!-- Node6 -->
<g id="Node000006" class="node">
<title>Node6</title>
<g id="a_Node000006"><a xlink:title=" ">
<polygon fill="white" stroke="transparent" points="255.5,-679 164.5,-679 164.5,-630 255.5,-630 255.5,-679"/>
<text text-anchor="start" x="170" y="-666.5" font-family="Helvetica,sans-Serif" font-size="10.00">std::vector&lt; T &gt;</text>
<text text-anchor="start" x="208.5" y="-651.5" font-family="Helvetica,sans-Serif" font-size="10.00"> </text>
<text text-anchor="start" x="208.5" y="-636.5" font-family="Helvetica,sans-Serif" font-size="10.00"> </text>
<polygon fill="#666666" stroke="#666666" points="165,-661.5 165,-661.5 256,-661.5 256,-661.5 165,-661.5"/>
<polygon fill="#666666" stroke="#666666" points="165,-646.5 165,-646.5 256,-646.5 256,-646.5 165,-646.5"/>
<polygon fill="none" stroke="#666666" points="164.5,-630 164.5,-679 255.5,-679 255.5,-630 164.5,-630"/>
</a>
</g>
</g>
<!-- Node6&#45;&gt;Node5 -->
<g id="edge6_Node000005_Node000006" class="edge">
<title>Node6&#45;&gt;Node5</title>
<g id="a_edge6_Node000005_Node000006"><a xlink:title=" ">
<path fill="none" stroke="orange" d="M210,-619.51C210,-584.63 210,-531.27 210,-500.71"/>
<polygon fill="orange" stroke="orange" points="206.5,-619.7 210,-629.7 213.5,-619.7 206.5,-619.7"/>
</a>
</g>
<text text-anchor="middle" x="248.5" y="-604" font-family="Helvetica,sans-Serif" font-size="10.00" fill="grey"> &lt; cv::Point2f &gt;</text>
</g>
<!-- Node7 -->
<g id="Node000007" class="node">
<title>Node7</title>
<g id="a_Node000007"><a xlink:title=" ">
<polygon fill="white" stroke="transparent" points="218.5,-775 201.5,-775 201.5,-726 218.5,-726 218.5,-775"/>
<text text-anchor="start" x="207" y="-762.5" font-family="Helvetica,sans-Serif" font-size="10.00">T</text>
<text text-anchor="start" x="208.5" y="-747.5" font-family="Helvetica,sans-Serif" font-size="10.00"> </text>
<text text-anchor="start" x="208.5" y="-732.5" font-family="Helvetica,sans-Serif" font-size="10.00"> </text>
<polygon fill="#666666" stroke="#666666" points="202,-757.5 202,-757.5 219,-757.5 219,-757.5 202,-757.5"/>
<polygon fill="#666666" stroke="#666666" points="202,-742.5 202,-742.5 219,-742.5 219,-742.5 202,-742.5"/>
<polygon fill="none" stroke="#666666" points="201.5,-726 201.5,-775 218.5,-775 218.5,-726 201.5,-726"/>
</a>
</g>
</g>
<!-- Node7&#45;&gt;Node6 -->
<g id="edge7_Node000006_Node000007" class="edge">
<title>Node7&#45;&gt;Node6</title>
<g id="a_edge7_Node000006_Node000007"><a xlink:title=" ">
<path fill="none" stroke="#63b8ff" d="M210,-725.78C210,-715.32 210,-702.79 210,-691.23"/>
<polygon fill="none" stroke="#63b8ff" points="210,-691.21 206,-685.21 210,-679.21 214,-685.21 210,-691.21"/>
</a>
</g>
<text text-anchor="middle" x="239" y="-700" font-family="Helvetica,sans-Serif" font-size="10.00" fill="grey"> +elements</text>
</g>
<!-- Node8 -->
<g id="Node000008" class="node">
<title>Node8</title>
<g id="a_Node000008"><a xlink:href="../../d3/da8/classrm_1_1StateInfo.html" target="_top" xlink:title="状态类型系统">
<polygon fill="white" stroke="transparent" points="380,-583 296,-583 296,-369 380,-369 380,-583"/>
<text text-anchor="start" x="306" y="-571" font-family="Helvetica,sans-Serif" font-size="10.00">rm::StateInfo</text>
<text text-anchor="start" x="336" y="-556" font-family="Helvetica,sans-Serif" font-size="10.00"> </text>
<text text-anchor="start" x="300" y="-541" font-family="Helvetica,sans-Serif" font-size="10.00">+</text>
<text text-anchor="start" x="313" y="-541" font-family="Helvetica,sans-Serif" font-size="10.00">StateInfo()</text>
<text text-anchor="start" x="300" y="-526" font-family="Helvetica,sans-Serif" font-size="10.00">+</text>
<text text-anchor="start" x="313" y="-526" font-family="Helvetica,sans-Serif" font-size="10.00">add()</text>
<text text-anchor="start" x="300" y="-511" font-family="Helvetica,sans-Serif" font-size="10.00">+</text>
<text text-anchor="start" x="313" y="-511" font-family="Helvetica,sans-Serif" font-size="10.00">add()</text>
<text text-anchor="start" x="300" y="-496" font-family="Helvetica,sans-Serif" font-size="10.00">+</text>
<text text-anchor="start" x="313" y="-496" font-family="Helvetica,sans-Serif" font-size="10.00">remove()</text>
<text text-anchor="start" x="300" y="-481" font-family="Helvetica,sans-Serif" font-size="10.00">+</text>
<text text-anchor="start" x="313" y="-481" font-family="Helvetica,sans-Serif" font-size="10.00">contains()</text>
<text text-anchor="start" x="300" y="-466" font-family="Helvetica,sans-Serif" font-size="10.00">+</text>
<text text-anchor="start" x="313" y="-466" font-family="Helvetica,sans-Serif" font-size="10.00">clear()</text>
<text text-anchor="start" x="300" y="-451" font-family="Helvetica,sans-Serif" font-size="10.00">+</text>
<text text-anchor="start" x="313" y="-451" font-family="Helvetica,sans-Serif" font-size="10.00">empty()</text>
<text text-anchor="start" x="300" y="-436" font-family="Helvetica,sans-Serif" font-size="10.00">+</text>
<text text-anchor="start" x="313" y="-436" font-family="Helvetica,sans-Serif" font-size="10.00">at()</text>
<text text-anchor="start" x="300" y="-421" font-family="Helvetica,sans-Serif" font-size="10.00">+</text>
<text text-anchor="start" x="313" y="-421" font-family="Helvetica,sans-Serif" font-size="10.00">at_numeric()</text>
<text text-anchor="start" x="300" y="-406" font-family="Helvetica,sans-Serif" font-size="10.00">+</text>
<text text-anchor="start" x="313" y="-406" font-family="Helvetica,sans-Serif" font-size="10.00">at_string()</text>
<text text-anchor="start" x="300" y="-391" font-family="Helvetica,sans-Serif" font-size="10.00">+</text>
<text text-anchor="start" x="313" y="-391" font-family="Helvetica,sans-Serif" font-size="10.00">at()</text>
<text text-anchor="start" x="300" y="-376" font-family="Helvetica,sans-Serif" font-size="10.00">+</text>
<text text-anchor="start" x="313" y="-376" font-family="Helvetica,sans-Serif" font-size="10.00">operator[]()</text>
<polygon fill="#666666" stroke="#666666" points="296,-566 296,-566 380,-566 380,-566 296,-566"/>
<polygon fill="#666666" stroke="#666666" points="296,-551 296,-551 380,-551 380,-551 296,-551"/>
<polygon fill="none" stroke="#666666" points="296,-369 296,-583 380,-583 380,-369 296,-369"/>
</a>
</g>
</g>
<!-- Node8&#45;&gt;Node2 -->
<g id="edge8_Node000002_Node000008" class="edge">
<title>Node8&#45;&gt;Node2</title>
<g id="a_edge8_Node000002_Node000008"><a xlink:title=" ">
<path fill="none" stroke="#63b8ff" d="M295.85,-381.81C293.02,-377.38 290.07,-373.08 287,-369 250.55,-320.46 196.89,-275.43 159.65,-247.08"/>
<polygon fill="none" stroke="#63b8ff" points="159.2,-246.74 152,-246.34 149.61,-239.53 156.81,-239.94 159.2,-246.74"/>
</a>
</g>
<text text-anchor="middle" x="293" y="-332" font-family="Helvetica,sans-Serif" font-size="10.00" fill="grey"> #_state</text>
</g>
</g>
</svg>
