<?xml version="1.0" encoding="UTF-8" standalone="no"?>
<!DOCTYPE svg PUBLIC "-//W3C//DTD SVG 1.1//EN"
 "http://www.w3.org/Graphics/SVG/1.1/DTD/svg11.dtd">
<!-- Generated by graphviz version 14.1.2 (0)
 -->
<!-- Title: rm::async::DgramSocket Pages: 1 -->
<svg width="135pt" height="614pt"
 viewBox="0.00 0.00 135.00 614.00" xmlns="http://www.w3.org/2000/svg" xmlns:xlink="http://www.w3.org/1999/xlink">
<g id="graph0" class="graph" transform="scale(1 1) rotate(0) translate(4 610.25)">
<title>rm::async::DgramSocket</title>
<!-- Node1 -->
<g id="Node000001" class="node">
<title>Node1</title>
<g id="a_Node000001"><a xlink:title="由 rm::async::Listener 建立的数据报式 Socket 异步会话">
<polygon fill="#999999" stroke="none" points="127.25,-188.25 0,-188.25 0,0 127.25,0 127.25,-188.25"/>
<text xml:space="preserve" text-anchor="start" x="4" y="-174.75" font-family="Helvetica,sans-Serif" font-size="10.00">rm::async::DgramSocket</text>
<text xml:space="preserve" text-anchor="start" x="62.12" y="-158" font-family="Helvetica,sans-Serif" font-size="10.00"> </text>
<text xml:space="preserve" text-anchor="start" x="16.31" y="-141.25" font-family="Helvetica,sans-Serif" font-size="10.00">+</text>
<text xml:space="preserve" text-anchor="start" x="40.88" y="-141.25" font-family="Helvetica,sans-Serif" font-size="10.00">read()</text>
<text xml:space="preserve" text-anchor="start" x="16.31" y="-124.5" font-family="Helvetica,sans-Serif" font-size="10.00">+</text>
<text xml:space="preserve" text-anchor="start" x="40.88" y="-124.5" font-family="Helvetica,sans-Serif" font-size="10.00">write()</text>
<text xml:space="preserve" text-anchor="start" x="16.31" y="-107.75" font-family="Helvetica,sans-Serif" font-size="10.00">+</text>
<text xml:space="preserve" text-anchor="start" x="40.88" y="-107.75" font-family="Helvetica,sans-Serif" font-size="10.00">write()</text>
<text xml:space="preserve" text-anchor="start" x="16.31" y="-91" font-family="Helvetica,sans-Serif" font-size="10.00">+</text>
<text xml:space="preserve" text-anchor="start" x="40.88" y="-91" font-family="Helvetica,sans-Serif" font-size="10.00">multiread()</text>
<text xml:space="preserve" text-anchor="start" x="16.31" y="-74.25" font-family="Helvetica,sans-Serif" font-size="10.00">+</text>
<text xml:space="preserve" text-anchor="start" x="40.88" y="-74.25" font-family="Helvetica,sans-Serif" font-size="10.00">multiread()</text>
<text xml:space="preserve" text-anchor="start" x="16.31" y="-57.5" font-family="Helvetica,sans-Serif" font-size="10.00">+</text>
<text xml:space="preserve" text-anchor="start" x="40.88" y="-57.5" font-family="Helvetica,sans-Serif" font-size="10.00">multiwrite()</text>
<text xml:space="preserve" text-anchor="start" x="16.31" y="-40.75" font-family="Helvetica,sans-Serif" font-size="10.00">+</text>
<text xml:space="preserve" text-anchor="start" x="40.88" y="-40.75" font-family="Helvetica,sans-Serif" font-size="10.00">multiwrite()</text>
<text xml:space="preserve" text-anchor="start" x="16.31" y="-24" font-family="Helvetica,sans-Serif" font-size="10.00">+</text>
<text xml:space="preserve" text-anchor="start" x="40.88" y="-24" font-family="Helvetica,sans-Serif" font-size="10.00">multiwrite()</text>
<text xml:space="preserve" text-anchor="start" x="16.31" y="-7.25" font-family="Helvetica,sans-Serif" font-size="10.00">+</text>
<text xml:space="preserve" text-anchor="start" x="40.88" y="-7.25" font-family="Helvetica,sans-Serif" font-size="10.00">multiwrite()</text>
<polygon fill="#666666" stroke="#666666" points="0,-169.5 0,-169.5 127.25,-169.5 127.25,-169.5 0,-169.5"/>
<polygon fill="#666666" stroke="#666666" points="0,-152.75 0,-152.75 127.25,-152.75 127.25,-152.75 0,-152.75"/>
<polygon fill="none" stroke="#666666" points="0,0 0,-188.25 127.25,-188.25 127.25,0 0,0"/>
</a>
</g>
</g>
<!-- Node2 -->
<g id="Node000002" class="node">
<title>Node2</title>
<g id="a_Node000002"><a xlink:href="../../d0/d75/classrm_1_1DgramSocket.html" target="_top" xlink:title="由 rm::Listener 或 rm::Sender 建立的数据报式 Socket 会话">
<polygon fill="white" stroke="none" points="112,-497.25 15.25,-497.25 15.25,-225.25 112,-225.25 112,-497.25"/>
<text xml:space="preserve" text-anchor="start" x="21.25" y="-483.75" font-family="Helvetica,sans-Serif" font-size="10.00">rm::DgramSocket</text>
<text xml:space="preserve" text-anchor="start" x="62.12" y="-467" font-family="Helvetica,sans-Serif" font-size="10.00"> </text>
<text xml:space="preserve" text-anchor="start" x="19.25" y="-450.25" font-family="Helvetica,sans-Serif" font-size="10.00">+</text>
<text xml:space="preserve" text-anchor="start" x="31.5" y="-450.25" font-family="Helvetica,sans-Serif" font-size="10.00">invalid()</text>
<text xml:space="preserve" text-anchor="start" x="19.25" y="-433.5" font-family="Helvetica,sans-Serif" font-size="10.00">+</text>
<text xml:space="preserve" text-anchor="start" x="31.5" y="-433.5" font-family="Helvetica,sans-Serif" font-size="10.00">native_handle()</text>
<text xml:space="preserve" text-anchor="start" x="19.25" y="-416.75" font-family="Helvetica,sans-Serif" font-size="10.00">+</text>
<text xml:space="preserve" text-anchor="start" x="31.5" y="-416.75" font-family="Helvetica,sans-Serif" font-size="10.00">setOption()</text>
<text xml:space="preserve" text-anchor="start" x="19.25" y="-400" font-family="Helvetica,sans-Serif" font-size="10.00">+</text>
<text xml:space="preserve" text-anchor="start" x="31.5" y="-400" font-family="Helvetica,sans-Serif" font-size="10.00">endpoint()</text>
<text xml:space="preserve" text-anchor="start" x="19.25" y="-383.25" font-family="Helvetica,sans-Serif" font-size="10.00">+</text>
<text xml:space="preserve" text-anchor="start" x="31.5" y="-383.25" font-family="Helvetica,sans-Serif" font-size="10.00">read()</text>
<text xml:space="preserve" text-anchor="start" x="19.25" y="-366.5" font-family="Helvetica,sans-Serif" font-size="10.00">+</text>
<text xml:space="preserve" text-anchor="start" x="31.5" y="-366.5" font-family="Helvetica,sans-Serif" font-size="10.00">write()</text>
<text xml:space="preserve" text-anchor="start" x="19.25" y="-349.75" font-family="Helvetica,sans-Serif" font-size="10.00">+</text>
<text xml:space="preserve" text-anchor="start" x="31.5" y="-349.75" font-family="Helvetica,sans-Serif" font-size="10.00">write()</text>
<text xml:space="preserve" text-anchor="start" x="19.25" y="-333" font-family="Helvetica,sans-Serif" font-size="10.00">+</text>
<text xml:space="preserve" text-anchor="start" x="31.5" y="-333" font-family="Helvetica,sans-Serif" font-size="10.00">multiwrite()</text>
<text xml:space="preserve" text-anchor="start" x="19.25" y="-316.25" font-family="Helvetica,sans-Serif" font-size="10.00">+</text>
<text xml:space="preserve" text-anchor="start" x="31.5" y="-316.25" font-family="Helvetica,sans-Serif" font-size="10.00">multiwrite()</text>
<text xml:space="preserve" text-anchor="start" x="19.25" y="-299.5" font-family="Helvetica,sans-Serif" font-size="10.00">+</text>
<text xml:space="preserve" text-anchor="start" x="31.5" y="-299.5" font-family="Helvetica,sans-Serif" font-size="10.00">multiwrite()</text>
<text xml:space="preserve" text-anchor="start" x="19.25" y="-282.75" font-family="Helvetica,sans-Serif" font-size="10.00">+</text>
<text xml:space="preserve" text-anchor="start" x="31.5" y="-282.75" font-family="Helvetica,sans-Serif" font-size="10.00">multiwrite()</text>
<text xml:space="preserve" text-anchor="start" x="19.25" y="-266" font-family="Helvetica,sans-Serif" font-size="10.00">+</text>
<text xml:space="preserve" text-anchor="start" x="31.5" y="-266" font-family="Helvetica,sans-Serif" font-size="10.00">multiread()</text>
<text xml:space="preserve" text-anchor="start" x="19.25" y="-249.25" font-family="Helvetica,sans-Serif" font-size="10.00">+</text>
<text xml:space="preserve" text-anchor="start" x="31.5" y="-249.25" font-family="Helvetica,sans-Serif" font-size="10.00">multiread()</text>
<text xml:space="preserve" text-anchor="start" x="19.25" y="-232.5" font-family="Helvetica,sans-Serif" font-size="10.00">+</text>
<text xml:space="preserve" text-anchor="start" x="31.5" y="-232.5" font-family="Helvetica,sans-Serif" font-size="10.00">read_to()</text>
<polygon fill="#666666" stroke="#666666" points="15.25,-478.5 15.25,-478.5 112,-478.5 112,-478.5 15.25,-478.5"/>
<polygon fill="#666666" stroke="#666666" points="15.25,-461.75 15.25,-461.75 112,-461.75 112,-461.75 15.25,-461.75"/>
<polygon fill="none" stroke="#666666" points="15.25,-225.25 15.25,-497.25 112,-497.25 112,-225.25 15.25,-225.25"/>
</a>
</g>
</g>
<!-- Node2&#45;&gt;Node1 -->
<g id="edge1_Node000001_Node000002" class="edge">
<title>Node2&#45;&gt;Node1</title>
<g id="a_edge1_Node000001_Node000002"><a xlink:title=" ">
<path fill="none" stroke="#63b8ff" d="M63.62,-214.1C63.62,-205.23 63.62,-196.45 63.62,-187.91"/>
<polygon fill="none" stroke="#63b8ff" points="60.13,-213.84 63.63,-223.84 67.13,-213.84 60.13,-213.84"/>
</a>
</g>
</g>
<!-- Node3 -->
<g id="Node000003" class="node">
<title>Node3</title>
<g id="a_Node000003"><a xlink:title=" ">
<polygon fill="white" stroke="none" points="74,-606.25 53.25,-606.25 53.25,-552 74,-552 74,-606.25"/>
<text xml:space="preserve" text-anchor="start" x="57.25" y="-592.75" font-family="Helvetica,sans-Serif" font-size="10.00">int</text>
<text xml:space="preserve" text-anchor="start" x="62.12" y="-576" font-family="Helvetica,sans-Serif" font-size="10.00"> </text>
<text xml:space="preserve" text-anchor="start" x="62.12" y="-559.25" font-family="Helvetica,sans-Serif" font-size="10.00"> </text>
<polygon fill="#666666" stroke="#666666" points="53.25,-587.5 53.25,-587.5 74,-587.5 74,-587.5 53.25,-587.5"/>
<polygon fill="#666666" stroke="#666666" points="53.25,-570.75 53.25,-570.75 74,-570.75 74,-570.75 53.25,-570.75"/>
<polygon fill="none" stroke="#666666" points="53.25,-552 53.25,-606.25 74,-606.25 74,-552 53.25,-552"/>
</a>
</g>
</g>
<!-- Node3&#45;&gt;Node2 -->
<g id="edge2_Node000002_Node000003" class="edge">
<title>Node3&#45;&gt;Node2</title>
<g id="a_edge2_Node000002_Node000003"><a xlink:title=" ">
<path fill="none" stroke="#63b8ff" d="M63.62,-552.09C63.62,-540.58 63.62,-526.07 63.62,-510.21"/>
<polygon fill="none" stroke="#63b8ff" points="63.63,-510.14 59.63,-504.14 63.63,-498.14 67.63,-504.14 63.63,-510.14"/>
</a>
</g>
<text xml:space="preserve" text-anchor="start" x="66.62" y="-521.5" font-family="Helvetica,sans-Serif" font-size="10.00" fill="grey">#_fd</text>
</g>
</g>
</svg>
