<?xml version="1.0" encoding="UTF-8" standalone="no"?>
<!DOCTYPE svg PUBLIC "-//W3C//DTD SVG 1.1//EN"
 "http://www.w3.org/Graphics/SVG/1.1/DTD/svg11.dtd">
<!-- Generated by graphviz version 2.43.0 (0)
 -->
<!-- Title: rm::async::DgramSocket Pages: 1 -->
<svg width="128pt" height="545pt"
 viewBox="0.00 0.00 128.00 545.00" xmlns="http://www.w3.org/2000/svg" xmlns:xlink="http://www.w3.org/1999/xlink">
<g id="graph0" class="graph" transform="scale(1 1) rotate(0) translate(4 541)">
<title>rm::async::DgramSocket</title>
<!-- Node1 -->
<g id="Node000001" class="node">
<title>Node1</title>
<g id="a_Node000001"><a xlink:title="由 rm::async::Listener 建立的数据报式 Socket 异步会话">
<polygon fill="#999999" stroke="transparent" points="120,-169 0,-169 0,0 120,0 120,-169"/>
<text text-anchor="start" x="5" y="-156.5" font-family="Helvetica,sans-Serif" font-size="10.00">rm::async::DgramSocket</text>
<text text-anchor="start" x="58" y="-141.5" font-family="Helvetica,sans-Serif" font-size="10.00"> </text>
<text text-anchor="start" x="17" y="-126.5" font-family="Helvetica,sans-Serif" font-size="10.00">+</text>
<text text-anchor="start" x="41" y="-126.5" font-family="Helvetica,sans-Serif" font-size="10.00">read()</text>
<text text-anchor="start" x="17" y="-111.5" font-family="Helvetica,sans-Serif" font-size="10.00">+</text>
<text text-anchor="start" x="41" y="-111.5" font-family="Helvetica,sans-Serif" font-size="10.00">write()</text>
<text text-anchor="start" x="17" y="-96.5" font-family="Helvetica,sans-Serif" font-size="10.00">+</text>
<text text-anchor="start" x="41" y="-96.5" font-family="Helvetica,sans-Serif" font-size="10.00">write()</text>
<text text-anchor="start" x="17" y="-81.5" font-family="Helvetica,sans-Serif" font-size="10.00">+</text>
<text text-anchor="start" x="41" y="-81.5" font-family="Helvetica,sans-Serif" font-size="10.00">multiread()</text>
<text text-anchor="start" x="17" y="-66.5" font-family="Helvetica,sans-Serif" font-size="10.00">+</text>
<text text-anchor="start" x="41" y="-66.5" font-family="Helvetica,sans-Serif" font-size="10.00">multiread()</text>
<text text-anchor="start" x="17" y="-51.5" font-family="Helvetica,sans-Serif" font-size="10.00">+</text>
<text text-anchor="start" x="41" y="-51.5" font-family="Helvetica,sans-Serif" font-size="10.00">multiwrite()</text>
<text text-anchor="start" x="17" y="-36.5" font-family="Helvetica,sans-Serif" font-size="10.00">+</text>
<text text-anchor="start" x="41" y="-36.5" font-family="Helvetica,sans-Serif" font-size="10.00">multiwrite()</text>
<text text-anchor="start" x="17" y="-21.5" font-family="Helvetica,sans-Serif" font-size="10.00">+</text>
<text text-anchor="start" x="41" y="-21.5" font-family="Helvetica,sans-Serif" font-size="10.00">multiwrite()</text>
<text text-anchor="start" x="17" y="-6.5" font-family="Helvetica,sans-Serif" font-size="10.00">+</text>
<text text-anchor="start" x="41" y="-6.5" font-family="Helvetica,sans-Serif" font-size="10.00">multiwrite()</text>
<polygon fill="#666666" stroke="#666666" points="0,-151.5 0,-151.5 120,-151.5 120,-151.5 0,-151.5"/>
<polygon fill="#666666" stroke="#666666" points="0,-136.5 0,-136.5 120,-136.5 120,-136.5 0,-136.5"/>
<polygon fill="none" stroke="#666666" points="0,0 0,-169 120,-169 120,0 0,0"/>
</a>
</g>
</g>
<!-- Node2 -->
<g id="Node000002" class="node">
<title>Node2</title>
<g id="a_Node000002"><a xlink:href="../../d0/d75/classrm_1_1DgramSocket.html" target="_top" xlink:title="由 rm::Listener 或 rm::Sender 建立的数据报式 Socket 会话">
<polygon fill="white" stroke="transparent" points="104,-435 16,-435 16,-206 104,-206 104,-435"/>
<text text-anchor="start" x="21" y="-422.5" font-family="Helvetica,sans-Serif" font-size="10.00">rm::DgramSocket</text>
<text text-anchor="start" x="58" y="-407.5" font-family="Helvetica,sans-Serif" font-size="10.00"> </text>
<text text-anchor="start" x="25" y="-392.5" font-family="Helvetica,sans-Serif" font-size="10.00">+</text>
<text text-anchor="start" x="41" y="-392.5" font-family="Helvetica,sans-Serif" font-size="10.00">invalid()</text>
<text text-anchor="start" x="25" y="-377.5" font-family="Helvetica,sans-Serif" font-size="10.00">+</text>
<text text-anchor="start" x="41" y="-377.5" font-family="Helvetica,sans-Serif" font-size="10.00">setOption()</text>
<text text-anchor="start" x="25" y="-362.5" font-family="Helvetica,sans-Serif" font-size="10.00">+</text>
<text text-anchor="start" x="41" y="-362.5" font-family="Helvetica,sans-Serif" font-size="10.00">endpoint()</text>
<text text-anchor="start" x="25" y="-347.5" font-family="Helvetica,sans-Serif" font-size="10.00">+</text>
<text text-anchor="start" x="41" y="-347.5" font-family="Helvetica,sans-Serif" font-size="10.00">read()</text>
<text text-anchor="start" x="25" y="-332.5" font-family="Helvetica,sans-Serif" font-size="10.00">+</text>
<text text-anchor="start" x="41" y="-332.5" font-family="Helvetica,sans-Serif" font-size="10.00">write()</text>
<text text-anchor="start" x="25" y="-317.5" font-family="Helvetica,sans-Serif" font-size="10.00">+</text>
<text text-anchor="start" x="41" y="-317.5" font-family="Helvetica,sans-Serif" font-size="10.00">write()</text>
<text text-anchor="start" x="25" y="-302.5" font-family="Helvetica,sans-Serif" font-size="10.00">+</text>
<text text-anchor="start" x="41" y="-302.5" font-family="Helvetica,sans-Serif" font-size="10.00">multiwrite()</text>
<text text-anchor="start" x="25" y="-287.5" font-family="Helvetica,sans-Serif" font-size="10.00">+</text>
<text text-anchor="start" x="41" y="-287.5" font-family="Helvetica,sans-Serif" font-size="10.00">multiwrite()</text>
<text text-anchor="start" x="25" y="-272.5" font-family="Helvetica,sans-Serif" font-size="10.00">+</text>
<text text-anchor="start" x="41" y="-272.5" font-family="Helvetica,sans-Serif" font-size="10.00">multiwrite()</text>
<text text-anchor="start" x="25" y="-257.5" font-family="Helvetica,sans-Serif" font-size="10.00">+</text>
<text text-anchor="start" x="41" y="-257.5" font-family="Helvetica,sans-Serif" font-size="10.00">multiwrite()</text>
<text text-anchor="start" x="25" y="-242.5" font-family="Helvetica,sans-Serif" font-size="10.00">+</text>
<text text-anchor="start" x="41" y="-242.5" font-family="Helvetica,sans-Serif" font-size="10.00">multiread()</text>
<text text-anchor="start" x="25" y="-227.5" font-family="Helvetica,sans-Serif" font-size="10.00">+</text>
<text text-anchor="start" x="41" y="-227.5" font-family="Helvetica,sans-Serif" font-size="10.00">multiread()</text>
<text text-anchor="start" x="25" y="-212.5" font-family="Helvetica,sans-Serif" font-size="10.00">+</text>
<text text-anchor="start" x="41" y="-212.5" font-family="Helvetica,sans-Serif" font-size="10.00">read_to()</text>
<polygon fill="#666666" stroke="#666666" points="16,-417.5 16,-417.5 104,-417.5 104,-417.5 16,-417.5"/>
<polygon fill="#666666" stroke="#666666" points="16,-402.5 16,-402.5 104,-402.5 104,-402.5 16,-402.5"/>
<polygon fill="none" stroke="#666666" points="16,-206 16,-435 104,-435 104,-206 16,-206"/>
</a>
</g>
</g>
<!-- Node2&#45;&gt;Node1 -->
<g id="edge1_Node000001_Node000002" class="edge">
<title>Node2&#45;&gt;Node1</title>
<g id="a_edge1_Node000001_Node000002"><a xlink:title=" ">
<path fill="none" stroke="#63b8ff" d="M60,-195.8C60,-186.84 60,-177.94 60,-169.3"/>
<polygon fill="none" stroke="#63b8ff" points="56.5,-195.93 60,-205.93 63.5,-195.93 56.5,-195.93"/>
</a>
</g>
</g>
<!-- Node3 -->
<g id="Node000003" class="node">
<title>Node3</title>
<g id="a_Node000003"><a xlink:title=" ">
<polygon fill="white" stroke="transparent" points="70.5,-537 49.5,-537 49.5,-488 70.5,-488 70.5,-537"/>
<text text-anchor="start" x="55" y="-524.5" font-family="Helvetica,sans-Serif" font-size="10.00">int</text>
<text text-anchor="start" x="58.5" y="-509.5" font-family="Helvetica,sans-Serif" font-size="10.00"> </text>
<text text-anchor="start" x="58.5" y="-494.5" font-family="Helvetica,sans-Serif" font-size="10.00"> </text>
<polygon fill="#666666" stroke="#666666" points="50,-519.5 50,-519.5 71,-519.5 71,-519.5 50,-519.5"/>
<polygon fill="#666666" stroke="#666666" points="50,-504.5 50,-504.5 71,-504.5 71,-504.5 50,-504.5"/>
<polygon fill="none" stroke="#666666" points="49.5,-488 49.5,-537 70.5,-537 70.5,-488 49.5,-488"/>
</a>
</g>
</g>
<!-- Node3&#45;&gt;Node2 -->
<g id="edge2_Node000002_Node000003" class="edge">
<title>Node3&#45;&gt;Node2</title>
<g id="a_edge2_Node000002_Node000003"><a xlink:title=" ">
<path fill="none" stroke="#63b8ff" d="M60,-487.82C60,-476.83 60,-462.84 60,-447.66"/>
<polygon fill="none" stroke="#63b8ff" points="60,-447.26 56,-441.26 60,-435.26 64,-441.26 60,-447.26"/>
</a>
</g>
<text text-anchor="start" x="63.5" y="-458.5" font-family="Helvetica,sans-Serif" font-size="10.00" fill="grey">#_fd</text>
</g>
</g>
</svg>
