<?xml version="1.0" encoding="UTF-8" standalone="no"?>
<!DOCTYPE svg PUBLIC "-//W3C//DTD SVG 1.1//EN"
 "http://www.w3.org/Graphics/SVG/1.1/DTD/svg11.dtd">
<!-- Generated by graphviz version 2.43.0 (0)
 -->
<!-- Title: rm::async::DgramSocket Pages: 1 -->
<svg width="128pt" height="335pt"
 viewBox="0.00 0.00 128.00 335.00" xmlns="http://www.w3.org/2000/svg" xmlns:xlink="http://www.w3.org/1999/xlink">

<svg id="main" version="1.1" xmlns="http://www.w3.org/2000/svg" xmlns:xlink="http://www.w3.org/1999/xlink" xml:space="preserve">

<style type="text/css"><![CDATA[
.node, .edge {opacity: 0.7;}
.node.selected, .edge.selected {opacity: 1;}
.edge:hover path { stroke: red; }
.edge:hover polygon { stroke: red; fill: red; }
]]></style>
<script type="application/ecmascript" xlink:href="../../svg.min.js"/>
<svg id="graph" class="graph">
<g id="graph0" class="graph" transform="scale(1 1) rotate(0) translate(4 331)">
<title>rm::async::DgramSocket</title>
<!-- Node1 -->
<g id="Node000001" class="node">
<title>Node1</title>
<g id="a_Node000001"><a xlink:title="由 rm::async::Listener 建立的数据报式 Socket 异步会话">
<polygon fill="#999999" stroke="transparent" points="120,-64 0,-64 0,0 120,0 120,-64"/>
<text text-anchor="start" x="5" y="-52" font-family="Helvetica,sans-Serif" font-size="10.00">rm::async::DgramSocket</text>
<text text-anchor="start" x="58" y="-37" font-family="Helvetica,sans-Serif" font-size="10.00"> </text>
<text text-anchor="start" x="22" y="-22" font-family="Helvetica,sans-Serif" font-size="10.00">+</text>
<text text-anchor="start" x="51" y="-22" font-family="Helvetica,sans-Serif" font-size="10.00">read()</text>
<text text-anchor="start" x="22" y="-7" font-family="Helvetica,sans-Serif" font-size="10.00">+</text>
<text text-anchor="start" x="51" y="-7" font-family="Helvetica,sans-Serif" font-size="10.00">write()</text>
<polygon fill="#666666" stroke="#666666" points="0,-47 0,-47 120,-47 120,-47 0,-47"/>
<polygon fill="#666666" stroke="#666666" points="0,-32 0,-32 120,-32 120,-32 0,-32"/>
<polygon fill="none" stroke="#666666" points="0,0 0,-64 120,-64 120,0 0,0"/>
</a>
</g>
</g>
<!-- Node2 -->
<g id="Node000002" class="node">
<title>Node2</title>
<g id="a_Node000002"><a xlink:href="../../d0/d75/classrm_1_1DgramSocket.html" target="_top" xlink:title="由 rm::Listener 或 rm::Sender 建立的数据报式 Socket 会话">
<polygon fill="white" stroke="transparent" points="104,-225 16,-225 16,-101 104,-101 104,-225"/>
<text text-anchor="start" x="21" y="-213" font-family="Helvetica,sans-Serif" font-size="10.00">rm::DgramSocket</text>
<text text-anchor="start" x="58" y="-198" font-family="Helvetica,sans-Serif" font-size="10.00"> </text>
<text text-anchor="start" x="25" y="-183" font-family="Helvetica,sans-Serif" font-size="10.00">+</text>
<text text-anchor="start" x="41" y="-183" font-family="Helvetica,sans-Serif" font-size="10.00">invalid()</text>
<text text-anchor="start" x="25" y="-168" font-family="Helvetica,sans-Serif" font-size="10.00">+</text>
<text text-anchor="start" x="41" y="-168" font-family="Helvetica,sans-Serif" font-size="10.00">setOption()</text>
<text text-anchor="start" x="25" y="-153" font-family="Helvetica,sans-Serif" font-size="10.00">+</text>
<text text-anchor="start" x="41" y="-153" font-family="Helvetica,sans-Serif" font-size="10.00">endpoint()</text>
<text text-anchor="start" x="25" y="-138" font-family="Helvetica,sans-Serif" font-size="10.00">+</text>
<text text-anchor="start" x="41" y="-138" font-family="Helvetica,sans-Serif" font-size="10.00">read()</text>
<text text-anchor="start" x="25" y="-123" font-family="Helvetica,sans-Serif" font-size="10.00">+</text>
<text text-anchor="start" x="41" y="-123" font-family="Helvetica,sans-Serif" font-size="10.00">write()</text>
<text text-anchor="start" x="25" y="-108" font-family="Helvetica,sans-Serif" font-size="10.00">+</text>
<text text-anchor="start" x="41" y="-108" font-family="Helvetica,sans-Serif" font-size="10.00">write()</text>
<polygon fill="#666666" stroke="#666666" points="16,-208 16,-208 104,-208 104,-208 16,-208"/>
<polygon fill="#666666" stroke="#666666" points="16,-193 16,-193 104,-193 104,-193 16,-193"/>
<polygon fill="none" stroke="#666666" points="16,-101 16,-225 104,-225 104,-101 16,-101"/>
</a>
</g>
</g>
<!-- Node2&#45;&gt;Node1 -->
<g id="edge1_Node000001_Node000002" class="edge">
<title>Node2&#45;&gt;Node1</title>
<g id="a_edge1_Node000001_Node000002"><a xlink:title=" ">
<path fill="none" stroke="#63b8ff" d="M60,-90.73C60,-81.39 60,-72.24 60,-64.08"/>
<polygon fill="none" stroke="#63b8ff" points="56.5,-90.9 60,-100.9 63.5,-90.9 56.5,-90.9"/>
</a>
</g>
</g>
<!-- Node3 -->
<g id="Node000003" class="node">
<title>Node3</title>
<g id="a_Node000003"><a xlink:title=" ">
<polygon fill="white" stroke="transparent" points="70.5,-327 49.5,-327 49.5,-278 70.5,-278 70.5,-327"/>
<text text-anchor="start" x="55" y="-314.5" font-family="Helvetica,sans-Serif" font-size="10.00">int</text>
<text text-anchor="start" x="58.5" y="-299.5" font-family="Helvetica,sans-Serif" font-size="10.00"> </text>
<text text-anchor="start" x="58.5" y="-284.5" font-family="Helvetica,sans-Serif" font-size="10.00"> </text>
<polygon fill="#666666" stroke="#666666" points="50,-309.5 50,-309.5 71,-309.5 71,-309.5 50,-309.5"/>
<polygon fill="#666666" stroke="#666666" points="50,-294.5 50,-294.5 71,-294.5 71,-294.5 50,-294.5"/>
<polygon fill="none" stroke="#666666" points="49.5,-278 49.5,-327 70.5,-327 70.5,-278 49.5,-278"/>
</a>
</g>
</g>
<!-- Node3&#45;&gt;Node2 -->
<g id="edge2_Node000002_Node000003" class="edge">
<title>Node3&#45;&gt;Node2</title>
<g id="a_edge2_Node000002_Node000003"><a xlink:title=" ">
<path fill="none" stroke="#63b8ff" d="M60,-277.86C60,-266.47 60,-252.11 60,-237.46"/>
<polygon fill="none" stroke="#63b8ff" points="60,-237.15 56,-231.15 60,-225.15 64,-231.15 60,-237.15"/>
</a>
</g>
<text text-anchor="start" x="63.5" y="-248.5" font-family="Helvetica,sans-Serif" font-size="10.00" fill="grey">#_fd</text>
</g>
</g>
</svg>
</svg>

<style type='text/css'>
<![CDATA[
[data-mouse-over-selected='false'] { opacity: 0.7; }
[data-mouse-over-selected='true']  { opacity: 1.0; }
]]>
</style>
<script type="application/ecmascript"><![CDATA[
document.addEventListener('DOMContentLoaded', (event) => {
  highlightEdges();
  highlightAdjacentNodes();
});
]]></script>
</svg>
