<?xml version="1.0" encoding="UTF-8" standalone="no"?>
<!DOCTYPE svg PUBLIC "-//W3C//DTD SVG 1.1//EN"
 "http://www.w3.org/Graphics/SVG/1.1/DTD/svg11.dtd">
<!-- Generated by graphviz version 2.43.0 (0)
 -->
<!-- Title: rm::Method Pages: 1 -->
<svg width="415pt" height="546pt"
 viewBox="0.00 0.00 414.50 546.00" xmlns="http://www.w3.org/2000/svg" xmlns:xlink="http://www.w3.org/1999/xlink">
<g id="graph0" class="graph" transform="scale(1 1) rotate(0) translate(4 542)">
<title>rm::Method</title>
<!-- Node1 -->
<g id="Node000001" class="node">
<title>Node1</title>
<g id="a_Node000001"><a xlink:title="OPC UA 方法">
<polygon fill="#999999" stroke="transparent" points="353,-64 286,-64 286,0 353,0 353,-64"/>
<text text-anchor="start" x="291.5" y="-52" font-family="Helvetica,sans-Serif" font-size="10.00">rm::Method</text>
<text text-anchor="start" x="318" y="-37" font-family="Helvetica,sans-Serif" font-size="10.00"> </text>
<text text-anchor="start" x="290.5" y="-22" font-family="Helvetica,sans-Serif" font-size="10.00">+</text>
<text text-anchor="start" x="303.5" y="-22" font-family="Helvetica,sans-Serif" font-size="10.00">Method()</text>
<text text-anchor="start" x="290.5" y="-7" font-family="Helvetica,sans-Serif" font-size="10.00">+</text>
<text text-anchor="start" x="303.5" y="-7" font-family="Helvetica,sans-Serif" font-size="10.00">Method()</text>
<polygon fill="#666666" stroke="#666666" points="286.5,-47 286.5,-47 353.5,-47 353.5,-47 286.5,-47"/>
<polygon fill="#666666" stroke="#666666" points="286.5,-32 286.5,-32 353.5,-32 353.5,-32 286.5,-32"/>
<polygon fill="none" stroke="#666666" points="286,0 286,-64 353,-64 353,0 286,0"/>
</a>
</g>
</g>
<!-- Node2 -->
<g id="Node000002" class="node">
<title>Node2</title>
<g id="a_Node000002"><a xlink:title=" ">
<polygon fill="white" stroke="transparent" points="129.5,-171 79.5,-171 79.5,-122 129.5,-122 129.5,-171"/>
<text text-anchor="start" x="84.5" y="-158.5" font-family="Helvetica,sans-Serif" font-size="10.00">uint16_t</text>
<text text-anchor="start" x="102.5" y="-143.5" font-family="Helvetica,sans-Serif" font-size="10.00"> </text>
<text text-anchor="start" x="102.5" y="-128.5" font-family="Helvetica,sans-Serif" font-size="10.00"> </text>
<polygon fill="#666666" stroke="#666666" points="79.5,-153.5 79.5,-153.5 129.5,-153.5 129.5,-153.5 79.5,-153.5"/>
<polygon fill="#666666" stroke="#666666" points="79.5,-138.5 79.5,-138.5 129.5,-138.5 129.5,-138.5 79.5,-138.5"/>
<polygon fill="none" stroke="#666666" points="79.5,-122 79.5,-171 129.5,-171 129.5,-122 79.5,-122"/>
</a>
</g>
</g>
<!-- Node2&#45;&gt;Node1 -->
<g id="edge1_Node000001_Node000002" class="edge">
<title>Node2&#45;&gt;Node1</title>
<g id="a_edge1_Node000001_Node000002"><a xlink:title=" ">
<path fill="none" stroke="#63b8ff" d="M129.86,-127.38C132.73,-125.5 135.65,-123.67 138.5,-122 183.52,-95.57 237.48,-69.74 274.71,-52.78"/>
<polygon fill="none" stroke="#63b8ff" points="274.77,-52.75 278.58,-46.63 285.7,-47.8 281.88,-53.92 274.77,-52.75"/>
</a>
</g>
<text text-anchor="middle" x="224" y="-90.5" font-family="Helvetica,sans-Serif" font-size="10.00" fill="grey"> +ns</text>
</g>
<!-- Node3 -->
<g id="Node000003" class="node">
<title>Node3</title>
<g id="a_Node000003"><a xlink:title=" ">
<polygon fill="white" stroke="transparent" points="328,-418.5 269,-418.5 269,-369.5 328,-369.5 328,-418.5"/>
<text text-anchor="start" x="274.5" y="-406" font-family="Helvetica,sans-Serif" font-size="10.00">std::string</text>
<text text-anchor="start" x="297" y="-391" font-family="Helvetica,sans-Serif" font-size="10.00"> </text>
<text text-anchor="start" x="297" y="-376" font-family="Helvetica,sans-Serif" font-size="10.00"> </text>
<polygon fill="#666666" stroke="#666666" points="269.5,-401 269.5,-401 328.5,-401 328.5,-401 269.5,-401"/>
<polygon fill="#666666" stroke="#666666" points="269.5,-386 269.5,-386 328.5,-386 328.5,-386 269.5,-386"/>
<polygon fill="none" stroke="#666666" points="269,-369.5 269,-418.5 328,-418.5 328,-369.5 269,-369.5"/>
</a>
</g>
</g>
<!-- Node3&#45;&gt;Node1 -->
<g id="edge2_Node000001_Node000003" class="edge">
<title>Node3&#45;&gt;Node1</title>
<g id="a_edge2_Node000001_Node000003"><a xlink:title=" ">
<path fill="none" stroke="#63b8ff" d="M307.26,-369.35C311.22,-357.43 315.47,-342.64 317.5,-329 330.72,-240.16 326.82,-134.65 323.01,-76.65"/>
<polygon fill="none" stroke="#63b8ff" points="322.99,-76.3 318.59,-70.59 322.16,-64.33 326.57,-70.04 322.99,-76.3"/>
</a>
</g>
<text text-anchor="middle" x="366.5" y="-214" font-family="Helvetica,sans-Serif" font-size="10.00" fill="grey"> +browse_name</text>
<text text-anchor="middle" x="366.5" y="-203" font-family="Helvetica,sans-Serif" font-size="10.00" fill="grey">+description</text>
<text text-anchor="middle" x="366.5" y="-192" font-family="Helvetica,sans-Serif" font-size="10.00" fill="grey">+display_name</text>
</g>
<!-- Node6 -->
<g id="Node000006" class="node">
<title>Node6</title>
<g id="a_Node000006"><a xlink:href="../../df/d48/structrm_1_1Argument.html" target="_top" xlink:title="OPC UA 方法参数">
<polygon fill="white" stroke="transparent" points="240.5,-289 162.5,-289 162.5,-240 240.5,-240 240.5,-289"/>
<text text-anchor="start" x="167.5" y="-276.5" font-family="Helvetica,sans-Serif" font-size="10.00">rm::Argument</text>
<text text-anchor="start" x="199.5" y="-261.5" font-family="Helvetica,sans-Serif" font-size="10.00"> </text>
<text text-anchor="start" x="199.5" y="-246.5" font-family="Helvetica,sans-Serif" font-size="10.00"> </text>
<polygon fill="#666666" stroke="#666666" points="162.5,-271.5 162.5,-271.5 240.5,-271.5 240.5,-271.5 162.5,-271.5"/>
<polygon fill="#666666" stroke="#666666" points="162.5,-256.5 162.5,-256.5 240.5,-256.5 240.5,-256.5 162.5,-256.5"/>
<polygon fill="none" stroke="#666666" points="162.5,-240 162.5,-289 240.5,-289 240.5,-240 162.5,-240"/>
</a>
</g>
</g>
<!-- Node3&#45;&gt;Node6 -->
<g id="edge6_Node000006_Node000003" class="edge">
<title>Node3&#45;&gt;Node6</title>
<g id="a_edge6_Node000006_Node000003"><a xlink:title=" ">
<path fill="none" stroke="#63b8ff" d="M280.48,-369.32C265.37,-349.46 243.63,-320.87 226.78,-298.73"/>
<polygon fill="none" stroke="#63b8ff" points="226.69,-298.61 219.87,-296.25 219.42,-289.06 226.24,-291.41 226.69,-298.61"/>
</a>
</g>
<text text-anchor="middle" x="280.5" y="-321" font-family="Helvetica,sans-Serif" font-size="10.00" fill="grey"> +description</text>
<text text-anchor="middle" x="280.5" y="-310" font-family="Helvetica,sans-Serif" font-size="10.00" fill="grey">+name</text>
</g>
<!-- Node4 -->
<g id="Node000004" class="node">
<title>Node4</title>
<g id="a_Node000004"><a xlink:title=" ">
<polygon fill="white" stroke="transparent" points="347.5,-538 249.5,-538 249.5,-478 347.5,-478 347.5,-538"/>
<text text-anchor="start" x="254.5" y="-526" font-family="Helvetica,sans-Serif" font-size="10.00">std::basic_string&lt;</text>
<text text-anchor="start" x="280" y="-515" font-family="Helvetica,sans-Serif" font-size="10.00"> Char &gt;</text>
<text text-anchor="start" x="296.5" y="-500" font-family="Helvetica,sans-Serif" font-size="10.00"> </text>
<text text-anchor="start" x="296.5" y="-485" font-family="Helvetica,sans-Serif" font-size="10.00"> </text>
<polygon fill="#666666" stroke="#666666" points="249.5,-510 249.5,-510 347.5,-510 347.5,-510 249.5,-510"/>
<polygon fill="#666666" stroke="#666666" points="249.5,-495 249.5,-495 347.5,-495 347.5,-495 249.5,-495"/>
<polygon fill="none" stroke="#666666" points="249.5,-478 249.5,-538 347.5,-538 347.5,-478 249.5,-478"/>
</a>
</g>
</g>
<!-- Node4&#45;&gt;Node3 -->
<g id="edge3_Node000003_Node000004" class="edge">
<title>Node4&#45;&gt;Node3</title>
<g id="a_edge3_Node000003_Node000004"><a xlink:title=" ">
<path fill="none" stroke="#63b8ff" d="M298.5,-467.52C298.5,-451.22 298.5,-432.87 298.5,-418.71"/>
<polygon fill="none" stroke="#63b8ff" points="295,-467.87 298.5,-477.87 302,-467.87 295,-467.87"/>
</a>
</g>
</g>
<!-- Node5 -->
<g id="Node000005" class="node">
<title>Node5</title>
<g id="a_Node000005"><a xlink:title=" ">
<polygon fill="white" stroke="transparent" points="299.5,-171 147.5,-171 147.5,-122 299.5,-122 299.5,-171"/>
<text text-anchor="start" x="152.5" y="-158.5" font-family="Helvetica,sans-Serif" font-size="10.00">std::vector&lt; rm::Argument &gt;</text>
<text text-anchor="start" x="221.5" y="-143.5" font-family="Helvetica,sans-Serif" font-size="10.00"> </text>
<text text-anchor="start" x="221.5" y="-128.5" font-family="Helvetica,sans-Serif" font-size="10.00"> </text>
<polygon fill="#666666" stroke="#666666" points="147.5,-153.5 147.5,-153.5 299.5,-153.5 299.5,-153.5 147.5,-153.5"/>
<polygon fill="#666666" stroke="#666666" points="147.5,-138.5 147.5,-138.5 299.5,-138.5 299.5,-138.5 147.5,-138.5"/>
<polygon fill="none" stroke="#666666" points="147.5,-122 147.5,-171 299.5,-171 299.5,-122 147.5,-122"/>
</a>
</g>
</g>
<!-- Node5&#45;&gt;Node1 -->
<g id="edge4_Node000001_Node000005" class="edge">
<title>Node5&#45;&gt;Node1</title>
<g id="a_edge4_Node000001_Node000005"><a xlink:title=" ">
<path fill="none" stroke="#63b8ff" d="M243.62,-121.92C255.57,-107.91 271.05,-89.78 284.91,-73.54"/>
<polygon fill="none" stroke="#63b8ff" points="285.05,-73.37 285.9,-66.21 292.84,-64.24 291.99,-71.4 285.05,-73.37"/>
</a>
</g>
<text text-anchor="middle" x="294.5" y="-96" font-family="Helvetica,sans-Serif" font-size="10.00" fill="grey"> +iargs</text>
<text text-anchor="middle" x="294.5" y="-85" font-family="Helvetica,sans-Serif" font-size="10.00" fill="grey">+oargs</text>
</g>
<!-- Node6&#45;&gt;Node5 -->
<g id="edge5_Node000005_Node000006" class="edge">
<title>Node6&#45;&gt;Node5</title>
<g id="a_edge5_Node000005_Node000006"><a xlink:title=" ">
<path fill="none" stroke="#63b8ff" d="M206.01,-239.75C209.09,-223.48 213.24,-201.62 216.72,-183.26"/>
<polygon fill="none" stroke="#63b8ff" points="216.76,-183.01 213.95,-176.37 219,-171.22 221.81,-177.86 216.76,-183.01"/>
</a>
</g>
<text text-anchor="middle" x="244.5" y="-203" font-family="Helvetica,sans-Serif" font-size="10.00" fill="grey"> +elements</text>
</g>
<!-- Node7 -->
<g id="Node000007" class="node">
<title>Node7</title>
<g id="a_Node000007"><a xlink:href="../../df/d6b/classrm_1_1DataType.html" target="_top" xlink:title="OPC UA 数据类型">
<polygon fill="white" stroke="transparent" points="160,-441 35,-441 35,-347 160,-347 160,-441"/>
<text text-anchor="start" x="65" y="-429" font-family="Helvetica,sans-Serif" font-size="10.00">rm::DataType</text>
<text text-anchor="start" x="96" y="-414" font-family="Helvetica,sans-Serif" font-size="10.00"> </text>
<text text-anchor="start" x="39.5" y="-399" font-family="Helvetica,sans-Serif" font-size="10.00">+</text>
<text text-anchor="start" x="52.5" y="-399" font-family="Helvetica,sans-Serif" font-size="10.00">DataType()</text>
<text text-anchor="start" x="39.5" y="-384" font-family="Helvetica,sans-Serif" font-size="10.00">+</text>
<text text-anchor="start" x="52.5" y="-384" font-family="Helvetica,sans-Serif" font-size="10.00">DataType()</text>
<text text-anchor="start" x="39.5" y="-369" font-family="Helvetica,sans-Serif" font-size="10.00">+</text>
<text text-anchor="start" x="52.5" y="-369" font-family="Helvetica,sans-Serif" font-size="10.00">DataType()</text>
<text text-anchor="start" x="39.5" y="-354" font-family="Helvetica,sans-Serif" font-size="10.00">+</text>
<text text-anchor="start" x="52.5" y="-354" font-family="Helvetica,sans-Serif" font-size="10.00">operator UA_UInt32()</text>
<polygon fill="#666666" stroke="#666666" points="35.5,-424 35.5,-424 160.5,-424 160.5,-424 35.5,-424"/>
<polygon fill="#666666" stroke="#666666" points="35.5,-409 35.5,-409 160.5,-409 160.5,-409 35.5,-409"/>
<polygon fill="none" stroke="#666666" points="35,-347 35,-441 160,-441 160,-347 35,-347"/>
</a>
</g>
</g>
<!-- Node7&#45;&gt;Node6 -->
<g id="edge7_Node000006_Node000007" class="edge">
<title>Node7&#45;&gt;Node6</title>
<g id="a_edge7_Node000006_Node000007"><a xlink:title=" ">
<path fill="none" stroke="#63b8ff" d="M107.49,-346.98C112.16,-333.04 118.89,-318.41 128.5,-307 134.91,-299.39 143.09,-292.89 151.64,-287.44"/>
<polygon fill="none" stroke="#63b8ff" points="151.79,-287.36 154.96,-280.88 162.16,-281.32 158.99,-287.8 151.79,-287.36"/>
</a>
</g>
<text text-anchor="middle" x="159" y="-315.5" font-family="Helvetica,sans-Serif" font-size="10.00" fill="grey"> +data_type</text>
</g>
<!-- Node8 -->
<g id="Node000008" class="node">
<title>Node8</title>
<g id="a_Node000008"><a xlink:title=" ">
<polygon fill="white" stroke="transparent" points="228.5,-418.5 178.5,-418.5 178.5,-369.5 228.5,-369.5 228.5,-418.5"/>
<text text-anchor="start" x="183.5" y="-406" font-family="Helvetica,sans-Serif" font-size="10.00">uint32_t</text>
<text text-anchor="start" x="201.5" y="-391" font-family="Helvetica,sans-Serif" font-size="10.00"> </text>
<text text-anchor="start" x="201.5" y="-376" font-family="Helvetica,sans-Serif" font-size="10.00"> </text>
<polygon fill="#666666" stroke="#666666" points="178.5,-401 178.5,-401 228.5,-401 228.5,-401 178.5,-401"/>
<polygon fill="#666666" stroke="#666666" points="178.5,-386 178.5,-386 228.5,-386 228.5,-386 178.5,-386"/>
<polygon fill="none" stroke="#666666" points="178.5,-369.5 178.5,-418.5 228.5,-418.5 228.5,-369.5 178.5,-369.5"/>
</a>
</g>
</g>
<!-- Node8&#45;&gt;Node6 -->
<g id="edge8_Node000006_Node000008" class="edge">
<title>Node8&#45;&gt;Node6</title>
<g id="a_edge8_Node000006_Node000008"><a xlink:title=" ">
<path fill="none" stroke="#63b8ff" d="M198.04,-369.3C194.72,-352.04 191.49,-328.1 193.5,-307 193.68,-305.08 193.91,-303.12 194.18,-301.15"/>
<polygon fill="none" stroke="#63b8ff" points="194.21,-300.93 191.23,-294.37 196.15,-289.09 199.13,-295.66 194.21,-300.93"/>
</a>
</g>
<text text-anchor="middle" x="211.5" y="-315.5" font-family="Helvetica,sans-Serif" font-size="10.00" fill="grey"> +dims</text>
</g>
<!-- Node9 -->
<g id="Node000009" class="node">
<title>Node9</title>
<g id="a_Node000009"><a xlink:title=" ">
<polygon fill="white" stroke="transparent" points="106,-289 15,-289 15,-240 106,-240 106,-289"/>
<text text-anchor="start" x="20.5" y="-276.5" font-family="Helvetica,sans-Serif" font-size="10.00">std::vector&lt; T &gt;</text>
<text text-anchor="start" x="59" y="-261.5" font-family="Helvetica,sans-Serif" font-size="10.00"> </text>
<text text-anchor="start" x="59" y="-246.5" font-family="Helvetica,sans-Serif" font-size="10.00"> </text>
<polygon fill="#666666" stroke="#666666" points="15.5,-271.5 15.5,-271.5 106.5,-271.5 106.5,-271.5 15.5,-271.5"/>
<polygon fill="#666666" stroke="#666666" points="15.5,-256.5 15.5,-256.5 106.5,-256.5 106.5,-256.5 15.5,-256.5"/>
<polygon fill="none" stroke="#666666" points="15,-240 15,-289 106,-289 106,-240 15,-240"/>
</a>
</g>
</g>
<!-- Node9&#45;&gt;Node5 -->
<g id="edge9_Node000005_Node000009" class="edge">
<title>Node9&#45;&gt;Node5</title>
<g id="a_edge9_Node000005_Node000009"><a xlink:title=" ">
<path fill="none" stroke="orange" d="M77.19,-231.06C86.02,-216.54 98.05,-200.21 112.5,-189 122.91,-180.93 135.05,-174.3 147.4,-168.9"/>
<polygon fill="orange" stroke="orange" points="74.1,-229.4 72.11,-239.81 80.16,-232.92 74.1,-229.4"/>
</a>
</g>
<text text-anchor="middle" x="159.5" y="-203" font-family="Helvetica,sans-Serif" font-size="10.00" fill="grey"> &lt; rm::Argument &gt;</text>
</g>
<!-- Node10 -->
<g id="Node000010" class="node">
<title>Node10</title>
<g id="a_Node000010"><a xlink:title=" ">
<polygon fill="white" stroke="transparent" points="17,-418.5 0,-418.5 0,-369.5 17,-369.5 17,-418.5"/>
<text text-anchor="start" x="5.5" y="-406" font-family="Helvetica,sans-Serif" font-size="10.00">T</text>
<text text-anchor="start" x="7" y="-391" font-family="Helvetica,sans-Serif" font-size="10.00"> </text>
<text text-anchor="start" x="7" y="-376" font-family="Helvetica,sans-Serif" font-size="10.00"> </text>
<polygon fill="#666666" stroke="#666666" points="0.5,-401 0.5,-401 17.5,-401 17.5,-401 0.5,-401"/>
<polygon fill="#666666" stroke="#666666" points="0.5,-386 0.5,-386 17.5,-386 17.5,-386 0.5,-386"/>
<polygon fill="none" stroke="#666666" points="0,-369.5 0,-418.5 17,-418.5 17,-369.5 0,-369.5"/>
</a>
</g>
</g>
<!-- Node10&#45;&gt;Node9 -->
<g id="edge10_Node000009_Node000010" class="edge">
<title>Node10&#45;&gt;Node9</title>
<g id="a_edge10_Node000009_Node000010"><a xlink:title=" ">
<path fill="none" stroke="#63b8ff" d="M6.72,-369.18C6.36,-351.21 8.03,-326.43 17.5,-307 18.94,-304.04 20.69,-301.18 22.64,-298.44"/>
<polygon fill="none" stroke="#63b8ff" points="22.76,-298.28 23.52,-291.11 30.43,-289.05 29.67,-296.22 22.76,-298.28"/>
</a>
</g>
<text text-anchor="middle" x="46.5" y="-315.5" font-family="Helvetica,sans-Serif" font-size="10.00" fill="grey"> +elements</text>
</g>
<!-- Node11 -->
<g id="Node000011" class="node">
<title>Node11</title>
<g id="a_Node000011"><a xlink:title=" ">
<polygon fill="white" stroke="transparent" points="400,-171 361,-171 361,-122 400,-122 400,-171"/>
<text text-anchor="start" x="366.5" y="-158.5" font-family="Helvetica,sans-Serif" font-size="10.00">size_t</text>
<text text-anchor="start" x="379" y="-143.5" font-family="Helvetica,sans-Serif" font-size="10.00"> </text>
<text text-anchor="start" x="379" y="-128.5" font-family="Helvetica,sans-Serif" font-size="10.00"> </text>
<polygon fill="#666666" stroke="#666666" points="361.5,-153.5 361.5,-153.5 400.5,-153.5 400.5,-153.5 361.5,-153.5"/>
<polygon fill="#666666" stroke="#666666" points="361.5,-138.5 361.5,-138.5 400.5,-138.5 400.5,-138.5 361.5,-138.5"/>
<polygon fill="none" stroke="#666666" points="361,-122 361,-171 400,-171 400,-122 361,-122"/>
</a>
</g>
</g>
<!-- Node11&#45;&gt;Node1 -->
<g id="edge11_Node000001_Node000011" class="edge">
<title>Node11&#45;&gt;Node1</title>
<g id="a_edge11_Node000001_Node000011"><a xlink:title=" ">
<path fill="none" stroke="#63b8ff" d="M367.97,-121.94C361.58,-109.96 353.66,-95.19 346.5,-82 345.22,-79.64 343.9,-77.22 342.57,-74.78"/>
<polygon fill="none" stroke="#63b8ff" points="342.47,-74.6 336.07,-71.26 336.7,-64.07 343.09,-67.41 342.47,-74.6"/>
</a>
</g>
<text text-anchor="middle" x="374" y="-90.5" font-family="Helvetica,sans-Serif" font-size="10.00" fill="grey"> +func</text>
</g>
</g>
</svg>
