<?xml version="1.0" encoding="UTF-8" standalone="no"?>
<!DOCTYPE svg PUBLIC "-//W3C//DTD SVG 1.1//EN"
 "http://www.w3.org/Graphics/SVG/1.1/DTD/svg11.dtd">
<!-- Generated by graphviz version 2.43.0 (0)
 -->
<!-- Title: rm::async::Socket Pages: 1 -->
<svg width="99pt" height="470pt"
 viewBox="0.00 0.00 99.00 470.00" xmlns="http://www.w3.org/2000/svg" xmlns:xlink="http://www.w3.org/1999/xlink">
<g id="graph0" class="graph" transform="scale(1 1) rotate(0) translate(4 466)">
<title>rm::async::Socket</title>
<!-- Node1 -->
<g id="Node000001" class="node">
<title>Node1</title>
<g id="a_Node000001"><a xlink:title="Socket 异步会话层">
<polygon fill="#999999" stroke="transparent" points="91,-154 0,-154 0,0 91,0 91,-154"/>
<text text-anchor="start" x="5.5" y="-142" font-family="Helvetica,sans-Serif" font-size="10.00">rm::async::Socket</text>
<text text-anchor="start" x="44" y="-127" font-family="Helvetica,sans-Serif" font-size="10.00"> </text>
<text text-anchor="start" x="10.5" y="-112" font-family="Helvetica,sans-Serif" font-size="10.00">+</text>
<text text-anchor="start" x="27.5" y="-112" font-family="Helvetica,sans-Serif" font-size="10.00">Socket()</text>
<text text-anchor="start" x="10.5" y="-97" font-family="Helvetica,sans-Serif" font-size="10.00">+</text>
<text text-anchor="start" x="27.5" y="-97" font-family="Helvetica,sans-Serif" font-size="10.00">Socket()</text>
<text text-anchor="start" x="10.5" y="-82" font-family="Helvetica,sans-Serif" font-size="10.00">+</text>
<text text-anchor="start" x="27.5" y="-82" font-family="Helvetica,sans-Serif" font-size="10.00">Socket()</text>
<text text-anchor="start" x="10.5" y="-67" font-family="Helvetica,sans-Serif" font-size="10.00">+</text>
<text text-anchor="start" x="27.5" y="-67" font-family="Helvetica,sans-Serif" font-size="10.00">operator=()</text>
<text text-anchor="start" x="10.5" y="-52" font-family="Helvetica,sans-Serif" font-size="10.00">+</text>
<text text-anchor="start" x="27.5" y="-52" font-family="Helvetica,sans-Serif" font-size="10.00">operator=()</text>
<text text-anchor="start" x="10.5" y="-37" font-family="Helvetica,sans-Serif" font-size="10.00">+</text>
<text text-anchor="start" x="27.5" y="-37" font-family="Helvetica,sans-Serif" font-size="10.00">~Socket()</text>
<text text-anchor="start" x="10.5" y="-22" font-family="Helvetica,sans-Serif" font-size="10.00">+</text>
<text text-anchor="start" x="27.5" y="-22" font-family="Helvetica,sans-Serif" font-size="10.00">read()</text>
<text text-anchor="start" x="10.5" y="-7" font-family="Helvetica,sans-Serif" font-size="10.00">+</text>
<text text-anchor="start" x="27.5" y="-7" font-family="Helvetica,sans-Serif" font-size="10.00">write()</text>
<polygon fill="#666666" stroke="#666666" points="0.5,-137 0.5,-137 91.5,-137 91.5,-137 0.5,-137"/>
<polygon fill="#666666" stroke="#666666" points="0.5,-122 0.5,-122 91.5,-122 91.5,-122 0.5,-122"/>
<polygon fill="none" stroke="#666666" points="0,0 0,-154 91,-154 91,0 0,0"/>
</a>
</g>
</g>
<!-- Node2 -->
<g id="Node000002" class="node">
<title>Node2</title>
<g id="a_Node000002"><a xlink:href="../../d0/dff/classrm_1_1Socket.html" target="_top" xlink:title="Socket 会话层">
<polygon fill="white" stroke="transparent" points="79,-360 12,-360 12,-191 79,-191 79,-360"/>
<text text-anchor="start" x="21.5" y="-347.5" font-family="Helvetica,sans-Serif" font-size="10.00">rm::Socket</text>
<text text-anchor="start" x="44" y="-332.5" font-family="Helvetica,sans-Serif" font-size="10.00"> </text>
<text text-anchor="start" x="16.5" y="-317.5" font-family="Helvetica,sans-Serif" font-size="10.00">+</text>
<text text-anchor="start" x="27.5" y="-317.5" font-family="Helvetica,sans-Serif" font-size="10.00">Socket()</text>
<text text-anchor="start" x="16.5" y="-302.5" font-family="Helvetica,sans-Serif" font-size="10.00">+</text>
<text text-anchor="start" x="27.5" y="-302.5" font-family="Helvetica,sans-Serif" font-size="10.00">Socket()</text>
<text text-anchor="start" x="16.5" y="-287.5" font-family="Helvetica,sans-Serif" font-size="10.00">+</text>
<text text-anchor="start" x="27.5" y="-287.5" font-family="Helvetica,sans-Serif" font-size="10.00">Socket()</text>
<text text-anchor="start" x="16.5" y="-272.5" font-family="Helvetica,sans-Serif" font-size="10.00">+</text>
<text text-anchor="start" x="27.5" y="-272.5" font-family="Helvetica,sans-Serif" font-size="10.00">operator=()</text>
<text text-anchor="start" x="16.5" y="-257.5" font-family="Helvetica,sans-Serif" font-size="10.00">+</text>
<text text-anchor="start" x="27.5" y="-257.5" font-family="Helvetica,sans-Serif" font-size="10.00">operator=()</text>
<text text-anchor="start" x="16.5" y="-242.5" font-family="Helvetica,sans-Serif" font-size="10.00">+</text>
<text text-anchor="start" x="27.5" y="-242.5" font-family="Helvetica,sans-Serif" font-size="10.00">invalid()</text>
<text text-anchor="start" x="16.5" y="-227.5" font-family="Helvetica,sans-Serif" font-size="10.00">+</text>
<text text-anchor="start" x="27.5" y="-227.5" font-family="Helvetica,sans-Serif" font-size="10.00">~Socket()</text>
<text text-anchor="start" x="16.5" y="-212.5" font-family="Helvetica,sans-Serif" font-size="10.00">+</text>
<text text-anchor="start" x="27.5" y="-212.5" font-family="Helvetica,sans-Serif" font-size="10.00">read()</text>
<text text-anchor="start" x="16.5" y="-197.5" font-family="Helvetica,sans-Serif" font-size="10.00">+</text>
<text text-anchor="start" x="27.5" y="-197.5" font-family="Helvetica,sans-Serif" font-size="10.00">write()</text>
<polygon fill="#666666" stroke="#666666" points="12.5,-342.5 12.5,-342.5 79.5,-342.5 79.5,-342.5 12.5,-342.5"/>
<polygon fill="#666666" stroke="#666666" points="12.5,-327.5 12.5,-327.5 79.5,-327.5 79.5,-327.5 12.5,-327.5"/>
<polygon fill="none" stroke="#666666" points="12,-191 12,-360 79,-360 79,-191 12,-191"/>
</a>
</g>
</g>
<!-- Node2&#45;&gt;Node1 -->
<g id="edge1_Node000001_Node000002" class="edge">
<title>Node2&#45;&gt;Node1</title>
<g id="a_edge1_Node000001_Node000002"><a xlink:title=" ">
<path fill="none" stroke="#63b8ff" d="M45.5,-180.8C45.5,-171.84 45.5,-162.83 45.5,-154.07"/>
<polygon fill="none" stroke="#63b8ff" points="42,-180.88 45.5,-190.88 49,-180.88 42,-180.88"/>
</a>
</g>
</g>
<!-- Node3 -->
<g id="Node000003" class="node">
<title>Node3</title>
<g id="a_Node000003"><a xlink:title=" ">
<polygon fill="white" stroke="transparent" points="56,-462 35,-462 35,-413 56,-413 56,-462"/>
<text text-anchor="start" x="40.5" y="-449.5" font-family="Helvetica,sans-Serif" font-size="10.00">int</text>
<text text-anchor="start" x="44" y="-434.5" font-family="Helvetica,sans-Serif" font-size="10.00"> </text>
<text text-anchor="start" x="44" y="-419.5" font-family="Helvetica,sans-Serif" font-size="10.00"> </text>
<polygon fill="#666666" stroke="#666666" points="35.5,-444.5 35.5,-444.5 56.5,-444.5 56.5,-444.5 35.5,-444.5"/>
<polygon fill="#666666" stroke="#666666" points="35.5,-429.5 35.5,-429.5 56.5,-429.5 56.5,-429.5 35.5,-429.5"/>
<polygon fill="none" stroke="#666666" points="35,-413 35,-462 56,-462 56,-413 35,-413"/>
</a>
</g>
</g>
<!-- Node3&#45;&gt;Node2 -->
<g id="edge2_Node000002_Node000003" class="edge">
<title>Node3&#45;&gt;Node2</title>
<g id="a_edge2_Node000002_Node000003"><a xlink:title=" ">
<path fill="none" stroke="#63b8ff" d="M45.5,-412.89C45.5,-401.64 45.5,-387.37 45.5,-372.31"/>
<polygon fill="none" stroke="#63b8ff" points="45.5,-372.12 41.5,-366.12 45.5,-360.12 49.5,-366.12 45.5,-372.12"/>
</a>
</g>
<text text-anchor="start" x="49" y="-383.5" font-family="Helvetica,sans-Serif" font-size="10.00" fill="grey">#_fd</text>
</g>
</g>
</svg>
