<?xml version="1.0" encoding="UTF-8" standalone="no"?>
<!DOCTYPE svg PUBLIC "-//W3C//DTD SVG 1.1//EN"
 "http://www.w3.org/Graphics/SVG/1.1/DTD/svg11.dtd">
<!-- Generated by graphviz version 2.43.0 (0)
 -->
<!-- Title: rm::RuneTarget Pages: 1 -->
<svg width="717pt" height="663pt"
 viewBox="0.00 0.00 716.50 663.00" xmlns="http://www.w3.org/2000/svg" xmlns:xlink="http://www.w3.org/1999/xlink">
<g id="graph0" class="graph" transform="scale(1 1) rotate(0) translate(4 659)">
<title>rm::RuneTarget</title>
<!-- Node1 -->
<g id="Node000001" class="node">
<title>Node1</title>
<g id="a_Node000001"><a xlink:title="神符靶心特征">
<polygon fill="#999999" stroke="transparent" points="147,-139 62,-139 62,0 147,0 147,-139"/>
<text text-anchor="start" x="71" y="-126.5" font-family="Helvetica,sans-Serif" font-size="10.00">rm::RuneTarget</text>
<text text-anchor="start" x="103" y="-111.5" font-family="Helvetica,sans-Serif" font-size="10.00"> </text>
<text text-anchor="start" x="66.5" y="-96.5" font-family="Helvetica,sans-Serif" font-size="10.00">+</text>
<text text-anchor="start" x="77.5" y="-96.5" font-family="Helvetica,sans-Serif" font-size="10.00">clone()</text>
<text text-anchor="start" x="66.5" y="-81.5" font-family="Helvetica,sans-Serif" font-size="10.00">+</text>
<text text-anchor="start" x="77.5" y="-81.5" font-family="Helvetica,sans-Serif" font-size="10.00">getRatio()</text>
<text text-anchor="start" x="66.5" y="-66.5" font-family="Helvetica,sans-Serif" font-size="10.00">+</text>
<text text-anchor="start" x="77.5" y="-66.5" font-family="Helvetica,sans-Serif" font-size="10.00">isActive()</text>
<text text-anchor="start" x="66.5" y="-51.5" font-family="Helvetica,sans-Serif" font-size="10.00">+</text>
<text text-anchor="start" x="77.5" y="-51.5" font-family="Helvetica,sans-Serif" font-size="10.00">getRadius()</text>
<text text-anchor="start" x="66.5" y="-36.5" font-family="Helvetica,sans-Serif" font-size="10.00">+</text>
<text text-anchor="start" x="77.5" y="-36.5" font-family="Helvetica,sans-Serif" font-size="10.00">getContours()</text>
<text text-anchor="start" x="66.5" y="-21.5" font-family="Helvetica,sans-Serif" font-size="10.00">+</text>
<text text-anchor="start" x="77.5" y="-21.5" font-family="Helvetica,sans-Serif" font-size="10.00">make_feature()</text>
<text text-anchor="start" x="66.5" y="-6.5" font-family="Helvetica,sans-Serif" font-size="10.00">+</text>
<text text-anchor="start" x="77.5" y="-6.5" font-family="Helvetica,sans-Serif" font-size="10.00">make_feature()</text>
<polygon fill="#666666" stroke="#666666" points="62.5,-121.5 62.5,-121.5 147.5,-121.5 147.5,-121.5 62.5,-121.5"/>
<polygon fill="#666666" stroke="#666666" points="62.5,-106.5 62.5,-106.5 147.5,-106.5 147.5,-106.5 62.5,-106.5"/>
<polygon fill="none" stroke="#666666" points="62,0 62,-139 147,-139 147,0 62,0"/>
</a>
</g>
</g>
<!-- Node2 -->
<g id="Node000002" class="node">
<title>Node2</title>
<g id="a_Node000002"><a xlink:href="../../df/db7/classrm_1_1feature.html" target="_top" xlink:title="图像中的轮廓特征">
<polygon fill="white" stroke="transparent" points="133.5,-330 75.5,-330 75.5,-176 133.5,-176 133.5,-330"/>
<text text-anchor="start" x="80.5" y="-318" font-family="Helvetica,sans-Serif" font-size="10.00">rm::feature</text>
<text text-anchor="start" x="102.5" y="-303" font-family="Helvetica,sans-Serif" font-size="10.00"> </text>
<text text-anchor="start" x="79.5" y="-288" font-family="Helvetica,sans-Serif" font-size="10.00">+</text>
<text text-anchor="start" x="90.5" y="-288" font-family="Helvetica,sans-Serif" font-size="10.00">clone()</text>
<text text-anchor="start" x="79.5" y="-273" font-family="Helvetica,sans-Serif" font-size="10.00">+</text>
<text text-anchor="start" x="90.5" y="-273" font-family="Helvetica,sans-Serif" font-size="10.00">area()</text>
<text text-anchor="start" x="79.5" y="-258" font-family="Helvetica,sans-Serif" font-size="10.00">+</text>
<text text-anchor="start" x="90.5" y="-258" font-family="Helvetica,sans-Serif" font-size="10.00">center()</text>
<text text-anchor="start" x="79.5" y="-243" font-family="Helvetica,sans-Serif" font-size="10.00">+</text>
<text text-anchor="start" x="90.5" y="-243" font-family="Helvetica,sans-Serif" font-size="10.00">width()</text>
<text text-anchor="start" x="79.5" y="-228" font-family="Helvetica,sans-Serif" font-size="10.00">+</text>
<text text-anchor="start" x="90.5" y="-228" font-family="Helvetica,sans-Serif" font-size="10.00">height()</text>
<text text-anchor="start" x="79.5" y="-213" font-family="Helvetica,sans-Serif" font-size="10.00">+</text>
<text text-anchor="start" x="90.5" y="-213" font-family="Helvetica,sans-Serif" font-size="10.00">angle()</text>
<text text-anchor="start" x="79.5" y="-198" font-family="Helvetica,sans-Serif" font-size="10.00">+</text>
<text text-anchor="start" x="90.5" y="-198" font-family="Helvetica,sans-Serif" font-size="10.00">corners()</text>
<text text-anchor="start" x="79.5" y="-183" font-family="Helvetica,sans-Serif" font-size="10.00">+</text>
<text text-anchor="start" x="90.5" y="-183" font-family="Helvetica,sans-Serif" font-size="10.00">type()</text>
<polygon fill="#666666" stroke="#666666" points="75.5,-313 75.5,-313 133.5,-313 133.5,-313 75.5,-313"/>
<polygon fill="#666666" stroke="#666666" points="75.5,-298 75.5,-298 133.5,-298 133.5,-298 75.5,-298"/>
<polygon fill="none" stroke="#666666" points="75.5,-176 75.5,-330 133.5,-330 133.5,-176 75.5,-176"/>
</a>
</g>
</g>
<!-- Node2&#45;&gt;Node1 -->
<g id="edge1_Node000001_Node000002" class="edge">
<title>Node2&#45;&gt;Node1</title>
<g id="a_edge1_Node000001_Node000002"><a xlink:title=" ">
<path fill="none" stroke="#63b8ff" d="M104.5,-165.81C104.5,-156.9 104.5,-147.94 104.5,-139.27"/>
<polygon fill="none" stroke="#63b8ff" points="101,-165.82 104.5,-175.82 108,-165.82 101,-165.82"/>
</a>
</g>
</g>
<!-- Node3 -->
<g id="Node000003" class="node">
<title>Node3</title>
<g id="a_Node000003"><a xlink:title=" ">
<polygon fill="white" stroke="transparent" points="29,-455.5 0,-455.5 0,-406.5 29,-406.5 29,-455.5"/>
<text text-anchor="start" x="5.5" y="-443" font-family="Helvetica,sans-Serif" font-size="10.00">float</text>
<text text-anchor="start" x="13" y="-428" font-family="Helvetica,sans-Serif" font-size="10.00"> </text>
<text text-anchor="start" x="13" y="-413" font-family="Helvetica,sans-Serif" font-size="10.00"> </text>
<polygon fill="#666666" stroke="#666666" points="0.5,-438 0.5,-438 29.5,-438 29.5,-438 0.5,-438"/>
<polygon fill="#666666" stroke="#666666" points="0.5,-423 0.5,-423 29.5,-423 29.5,-423 0.5,-423"/>
<polygon fill="none" stroke="#666666" points="0,-406.5 0,-455.5 29,-455.5 29,-406.5 0,-406.5"/>
</a>
</g>
</g>
<!-- Node3&#45;&gt;Node2 -->
<g id="edge2_Node000002_Node000003" class="edge">
<title>Node3&#45;&gt;Node2</title>
<g id="a_edge2_Node000002_Node000003"><a xlink:title=" ">
<path fill="none" stroke="#63b8ff" d="M10.36,-406.49C8.42,-389.59 7.96,-366.6 15.5,-348 25.9,-322.34 46.9,-299.61 65.89,-282.93"/>
<polygon fill="none" stroke="#63b8ff" points="66.11,-282.75 68.12,-275.82 75.28,-275.01 73.27,-281.94 66.11,-282.75"/>
</a>
</g>
<text text-anchor="middle" x="34" y="-373" font-family="Helvetica,sans-Serif" font-size="10.00" fill="grey"> #_angle</text>
<text text-anchor="middle" x="34" y="-362" font-family="Helvetica,sans-Serif" font-size="10.00" fill="grey">#_height</text>
<text text-anchor="middle" x="34" y="-351" font-family="Helvetica,sans-Serif" font-size="10.00" fill="grey">#_width</text>
</g>
<!-- Node4 -->
<g id="Node000004" class="node">
<title>Node4</title>
<g id="a_Node000004"><a xlink:title=" ">
<polygon fill="white" stroke="transparent" points="104,-559 63,-559 63,-510 104,-510 104,-559"/>
<text text-anchor="start" x="68.5" y="-546.5" font-family="Helvetica,sans-Serif" font-size="10.00">Point2f</text>
<text text-anchor="start" x="82" y="-531.5" font-family="Helvetica,sans-Serif" font-size="10.00"> </text>
<text text-anchor="start" x="82" y="-516.5" font-family="Helvetica,sans-Serif" font-size="10.00"> </text>
<polygon fill="#666666" stroke="#666666" points="63.5,-541.5 63.5,-541.5 104.5,-541.5 104.5,-541.5 63.5,-541.5"/>
<polygon fill="#666666" stroke="#666666" points="63.5,-526.5 63.5,-526.5 104.5,-526.5 104.5,-526.5 63.5,-526.5"/>
<polygon fill="none" stroke="#666666" points="63,-510 63,-559 104,-559 104,-510 63,-510"/>
</a>
</g>
</g>
<!-- Node4&#45;&gt;Node2 -->
<g id="edge3_Node000002_Node000004" class="edge">
<title>Node4&#45;&gt;Node2</title>
<g id="a_edge3_Node000002_Node000004"><a xlink:title=" ">
<path fill="none" stroke="#63b8ff" d="M80.13,-509.73C78.36,-496.09 76.38,-478.62 75.5,-463 73.89,-434.6 72.7,-427.31 75.5,-399 77.33,-380.47 80.46,-360.8 83.99,-342.12"/>
<polygon fill="none" stroke="#63b8ff" points="83.99,-342.11 81.22,-335.45 86.3,-330.33 89.07,-336.99 83.99,-342.11"/>
</a>
</g>
<text text-anchor="middle" x="96" y="-428.5" font-family="Helvetica,sans-Serif" font-size="10.00" fill="grey"> #_center</text>
</g>
<!-- Node5 -->
<g id="Node000005" class="node">
<title>Node5</title>
<g id="a_Node000005"><a xlink:title=" ">
<polygon fill="white" stroke="transparent" points="247.5,-455.5 125.5,-455.5 125.5,-406.5 247.5,-406.5 247.5,-455.5"/>
<text text-anchor="start" x="130.5" y="-443" font-family="Helvetica,sans-Serif" font-size="10.00">std::vector&lt; cv::Point2f &gt;</text>
<text text-anchor="start" x="184.5" y="-428" font-family="Helvetica,sans-Serif" font-size="10.00"> </text>
<text text-anchor="start" x="184.5" y="-413" font-family="Helvetica,sans-Serif" font-size="10.00"> </text>
<polygon fill="#666666" stroke="#666666" points="125.5,-438 125.5,-438 247.5,-438 247.5,-438 125.5,-438"/>
<polygon fill="#666666" stroke="#666666" points="125.5,-423 125.5,-423 247.5,-423 247.5,-423 125.5,-423"/>
<polygon fill="none" stroke="#666666" points="125.5,-406.5 125.5,-455.5 247.5,-455.5 247.5,-406.5 125.5,-406.5"/>
</a>
</g>
</g>
<!-- Node4&#45;&gt;Node5 -->
<g id="edge5_Node000005_Node000004" class="edge">
<title>Node4&#45;&gt;Node5</title>
<g id="a_edge5_Node000005_Node000004"><a xlink:title=" ">
<path fill="none" stroke="#63b8ff" d="M102.97,-509.86C110.92,-500.59 120.37,-490.04 129.5,-481 135.36,-475.2 141.79,-469.28 148.16,-463.65"/>
<polygon fill="none" stroke="#63b8ff" points="148.31,-463.52 150.23,-456.57 157.38,-455.66 155.47,-462.61 148.31,-463.52"/>
</a>
</g>
<text text-anchor="middle" x="154" y="-484" font-family="Helvetica,sans-Serif" font-size="10.00" fill="grey"> +elements</text>
</g>
<!-- Node5&#45;&gt;Node2 -->
<g id="edge4_Node000002_Node000005" class="edge">
<title>Node5&#45;&gt;Node2</title>
<g id="a_edge4_Node000002_Node000005"><a xlink:title=" ">
<path fill="none" stroke="#63b8ff" d="M175.44,-406.26C165.99,-385.97 151.86,-355.65 138.7,-327.4"/>
<polygon fill="none" stroke="#63b8ff" points="138.59,-327.16 132.43,-323.41 133.52,-316.28 139.68,-320.03 138.59,-327.16"/>
</a>
</g>
<text text-anchor="middle" x="185.5" y="-362" font-family="Helvetica,sans-Serif" font-size="10.00" fill="grey"> #_corners</text>
</g>
<!-- Node6 -->
<g id="Node000006" class="node">
<title>Node6</title>
<g id="a_Node000006"><a xlink:title=" ">
<polygon fill="white" stroke="transparent" points="220,-559 139,-559 139,-510 220,-510 220,-559"/>
<text text-anchor="start" x="144.5" y="-546.5" font-family="Helvetica,sans-Serif" font-size="10.00">std::vector&lt; T &gt;</text>
<text text-anchor="start" x="178" y="-531.5" font-family="Helvetica,sans-Serif" font-size="10.00"> </text>
<text text-anchor="start" x="178" y="-516.5" font-family="Helvetica,sans-Serif" font-size="10.00"> </text>
<polygon fill="#666666" stroke="#666666" points="139.5,-541.5 139.5,-541.5 220.5,-541.5 220.5,-541.5 139.5,-541.5"/>
<polygon fill="#666666" stroke="#666666" points="139.5,-526.5 139.5,-526.5 220.5,-526.5 220.5,-526.5 139.5,-526.5"/>
<polygon fill="none" stroke="#666666" points="139,-510 139,-559 220,-559 220,-510 139,-510"/>
</a>
</g>
</g>
<!-- Node6&#45;&gt;Node5 -->
<g id="edge6_Node000005_Node000006" class="edge">
<title>Node6&#45;&gt;Node5</title>
<g id="a_edge6_Node000005_Node000006"><a xlink:title=" ">
<path fill="none" stroke="orange" d="M181.82,-499.89C182.81,-485.45 183.95,-468.9 184.86,-455.77"/>
<polygon fill="orange" stroke="orange" points="178.32,-499.74 181.12,-509.96 185.3,-500.22 178.32,-499.74"/>
</a>
</g>
<text text-anchor="middle" x="218" y="-484" font-family="Helvetica,sans-Serif" font-size="10.00" fill="grey"> &lt; cv::Point2f &gt;</text>
</g>
<!-- Node7 -->
<g id="Node000007" class="node">
<title>Node7</title>
<g id="a_Node000007"><a xlink:title=" ">
<polygon fill="white" stroke="transparent" points="188,-655 171,-655 171,-606 188,-606 188,-655"/>
<text text-anchor="start" x="176.5" y="-642.5" font-family="Helvetica,sans-Serif" font-size="10.00">T</text>
<text text-anchor="start" x="178" y="-627.5" font-family="Helvetica,sans-Serif" font-size="10.00"> </text>
<text text-anchor="start" x="178" y="-612.5" font-family="Helvetica,sans-Serif" font-size="10.00"> </text>
<polygon fill="#666666" stroke="#666666" points="171.5,-637.5 171.5,-637.5 188.5,-637.5 188.5,-637.5 171.5,-637.5"/>
<polygon fill="#666666" stroke="#666666" points="171.5,-622.5 171.5,-622.5 188.5,-622.5 188.5,-622.5 171.5,-622.5"/>
<polygon fill="none" stroke="#666666" points="171,-606 171,-655 188,-655 188,-606 171,-606"/>
</a>
</g>
</g>
<!-- Node7&#45;&gt;Node6 -->
<g id="edge7_Node000006_Node000007" class="edge">
<title>Node7&#45;&gt;Node6</title>
<g id="a_edge7_Node000006_Node000007"><a xlink:title=" ">
<path fill="none" stroke="#63b8ff" d="M179.5,-605.78C179.5,-595.32 179.5,-582.79 179.5,-571.23"/>
<polygon fill="none" stroke="#63b8ff" points="179.5,-571.21 175.5,-565.21 179.5,-559.21 183.5,-565.21 179.5,-571.21"/>
</a>
</g>
<text text-anchor="middle" x="204" y="-580" font-family="Helvetica,sans-Serif" font-size="10.00" fill="grey"> +elements</text>
</g>
<!-- Node8 -->
<g id="Node000008" class="node">
<title>Node8</title>
<g id="a_Node000008"><a xlink:href="../../d0/d01/structrm_1_1RMStatus.html" target="_top" xlink:title="状态类型">
<polygon fill="white" stroke="transparent" points="465.5,-463 393.5,-463 393.5,-399 465.5,-399 465.5,-463"/>
<text text-anchor="start" x="398.5" y="-451" font-family="Helvetica,sans-Serif" font-size="10.00">rm::RMStatus</text>
<text text-anchor="start" x="427.5" y="-436" font-family="Helvetica,sans-Serif" font-size="10.00"> </text>
<text text-anchor="start" x="399.5" y="-421" font-family="Helvetica,sans-Serif" font-size="10.00">+</text>
<text text-anchor="start" x="412.5" y="-421" font-family="Helvetica,sans-Serif" font-size="10.00">to_string()</text>
<text text-anchor="start" x="399.5" y="-406" font-family="Helvetica,sans-Serif" font-size="10.00">+</text>
<text text-anchor="start" x="412.5" y="-406" font-family="Helvetica,sans-Serif" font-size="10.00">to_string()</text>
<polygon fill="#666666" stroke="#666666" points="393.5,-446 393.5,-446 465.5,-446 465.5,-446 393.5,-446"/>
<polygon fill="#666666" stroke="#666666" points="393.5,-431 393.5,-431 465.5,-431 465.5,-431 393.5,-431"/>
<polygon fill="none" stroke="#666666" points="393.5,-399 393.5,-463 465.5,-463 465.5,-399 393.5,-399"/>
</a>
</g>
</g>
<!-- Node8&#45;&gt;Node2 -->
<g id="edge8_Node000002_Node000008" class="edge">
<title>Node8&#45;&gt;Node2</title>
<g id="a_edge8_Node000002_Node000008"><a xlink:title=" ">
<path fill="none" stroke="#63b8ff" d="M393.48,-410.49C332.21,-377.31 208.15,-310.13 144.36,-275.59"/>
<polygon fill="none" stroke="#63b8ff" points="144.1,-275.45 136.92,-276.11 133.55,-269.73 140.73,-269.07 144.1,-275.45"/>
</a>
</g>
<text text-anchor="middle" x="350" y="-362" font-family="Helvetica,sans-Serif" font-size="10.00" fill="grey"> #_type</text>
</g>
<!-- Node9 -->
<g id="Node000009" class="node">
<title>Node9</title>
<g id="a_Node000009"><a xlink:title=" ">
<polygon fill="white" stroke="transparent" points="315,-559 238,-559 238,-510 315,-510 315,-559"/>
<text text-anchor="start" x="243.5" y="-546.5" font-family="Helvetica,sans-Serif" font-size="10.00">ArmorSizeType</text>
<text text-anchor="start" x="275" y="-531.5" font-family="Helvetica,sans-Serif" font-size="10.00"> </text>
<text text-anchor="start" x="275" y="-516.5" font-family="Helvetica,sans-Serif" font-size="10.00"> </text>
<polygon fill="#666666" stroke="#666666" points="238.5,-541.5 238.5,-541.5 315.5,-541.5 315.5,-541.5 238.5,-541.5"/>
<polygon fill="#666666" stroke="#666666" points="238.5,-526.5 238.5,-526.5 315.5,-526.5 315.5,-526.5 238.5,-526.5"/>
<polygon fill="none" stroke="#666666" points="238,-510 238,-559 315,-559 315,-510 238,-510"/>
</a>
</g>
</g>
<!-- Node9&#45;&gt;Node8 -->
<g id="edge9_Node000008_Node000009" class="edge">
<title>Node9&#45;&gt;Node8</title>
<g id="a_edge9_Node000008_Node000009"><a xlink:title=" ">
<path fill="none" stroke="#63b8ff" d="M279.44,-509.94C281.78,-499.92 285.97,-488.78 293.5,-481 316.64,-457.09 352.28,-444.81 381.27,-438.52"/>
<polygon fill="none" stroke="#63b8ff" points="381.46,-438.48 386.58,-433.4 393.23,-436.17 388.12,-441.25 381.46,-438.48"/>
</a>
</g>
<text text-anchor="middle" x="337" y="-484" font-family="Helvetica,sans-Serif" font-size="10.00" fill="grey"> +ArmorSizeTypeID</text>
</g>
<!-- Node10 -->
<g id="Node000010" class="node">
<title>Node10</title>
<g id="a_Node000010"><a xlink:title=" ">
<polygon fill="white" stroke="transparent" points="413,-559 358,-559 358,-510 413,-510 413,-559"/>
<text text-anchor="start" x="363.5" y="-546.5" font-family="Helvetica,sans-Serif" font-size="10.00">RuneType</text>
<text text-anchor="start" x="384" y="-531.5" font-family="Helvetica,sans-Serif" font-size="10.00"> </text>
<text text-anchor="start" x="384" y="-516.5" font-family="Helvetica,sans-Serif" font-size="10.00"> </text>
<polygon fill="#666666" stroke="#666666" points="358.5,-541.5 358.5,-541.5 413.5,-541.5 413.5,-541.5 358.5,-541.5"/>
<polygon fill="#666666" stroke="#666666" points="358.5,-526.5 358.5,-526.5 413.5,-526.5 413.5,-526.5 358.5,-526.5"/>
<polygon fill="none" stroke="#666666" points="358,-510 358,-559 413,-559 413,-510 358,-510"/>
</a>
</g>
</g>
<!-- Node10&#45;&gt;Node8 -->
<g id="edge10_Node000008_Node000010" class="edge">
<title>Node10&#45;&gt;Node8</title>
<g id="a_edge10_Node000008_Node000010"><a xlink:title=" ">
<path fill="none" stroke="#63b8ff" d="M383.12,-509.82C383.02,-500.55 383.97,-490 387.5,-481 388.5,-478.46 389.68,-475.95 391.02,-473.51"/>
<polygon fill="none" stroke="#63b8ff" points="391.17,-473.27 391.04,-466.06 397.65,-463.18 397.77,-470.39 391.17,-473.27"/>
</a>
</g>
<text text-anchor="middle" x="419.5" y="-484" font-family="Helvetica,sans-Serif" font-size="10.00" fill="grey"> +RuneTypeID</text>
</g>
<!-- Node11 -->
<g id="Node000011" class="node">
<title>Node11</title>
<g id="a_Node000011"><a xlink:title=" ">
<polygon fill="white" stroke="transparent" points="518,-559 431,-559 431,-510 518,-510 518,-559"/>
<text text-anchor="start" x="436.5" y="-546.5" font-family="Helvetica,sans-Serif" font-size="10.00">CompensateType</text>
<text text-anchor="start" x="473" y="-531.5" font-family="Helvetica,sans-Serif" font-size="10.00"> </text>
<text text-anchor="start" x="473" y="-516.5" font-family="Helvetica,sans-Serif" font-size="10.00"> </text>
<polygon fill="#666666" stroke="#666666" points="431.5,-541.5 431.5,-541.5 518.5,-541.5 518.5,-541.5 431.5,-541.5"/>
<polygon fill="#666666" stroke="#666666" points="431.5,-526.5 431.5,-526.5 518.5,-526.5 518.5,-526.5 431.5,-526.5"/>
<polygon fill="none" stroke="#666666" points="431,-510 431,-559 518,-559 518,-510 431,-510"/>
</a>
</g>
</g>
<!-- Node11&#45;&gt;Node8 -->
<g id="edge11_Node000008_Node000011" class="edge">
<title>Node11&#45;&gt;Node8</title>
<g id="a_edge11_Node000008_Node000011"><a xlink:title=" ">
<path fill="none" stroke="#63b8ff" d="M464.24,-509.96C460.28,-500.9 455.7,-490.46 451.5,-481 450.5,-478.74 449.46,-476.41 448.42,-474.07"/>
<polygon fill="none" stroke="#63b8ff" points="448.41,-474.04 442.31,-470.2 443.51,-463.09 449.61,-466.93 448.41,-474.04"/>
</a>
</g>
<text text-anchor="middle" x="504" y="-484" font-family="Helvetica,sans-Serif" font-size="10.00" fill="grey"> +CompensateTypeID</text>
</g>
<!-- Node12 -->
<g id="Node000012" class="node">
<title>Node12</title>
<g id="a_Node000012"><a xlink:title=" ">
<polygon fill="white" stroke="transparent" points="622.5,-559 564.5,-559 564.5,-510 622.5,-510 622.5,-559"/>
<text text-anchor="start" x="569.5" y="-546.5" font-family="Helvetica,sans-Serif" font-size="10.00">RobotType</text>
<text text-anchor="start" x="591.5" y="-531.5" font-family="Helvetica,sans-Serif" font-size="10.00"> </text>
<text text-anchor="start" x="591.5" y="-516.5" font-family="Helvetica,sans-Serif" font-size="10.00"> </text>
<polygon fill="#666666" stroke="#666666" points="564.5,-541.5 564.5,-541.5 622.5,-541.5 622.5,-541.5 564.5,-541.5"/>
<polygon fill="#666666" stroke="#666666" points="564.5,-526.5 564.5,-526.5 622.5,-526.5 622.5,-526.5 564.5,-526.5"/>
<polygon fill="none" stroke="#666666" points="564.5,-510 564.5,-559 622.5,-559 622.5,-510 564.5,-510"/>
</a>
</g>
</g>
<!-- Node12&#45;&gt;Node8 -->
<g id="edge12_Node000008_Node000012" class="edge">
<title>Node12&#45;&gt;Node8</title>
<g id="a_edge12_Node000008_Node000012"><a xlink:title=" ">
<path fill="none" stroke="#63b8ff" d="M581.06,-509.91C574.81,-499.89 566.43,-488.75 556.5,-481 533.34,-462.93 502.72,-450.85 477.36,-443.21"/>
<polygon fill="none" stroke="#63b8ff" points="477.29,-443.19 470.43,-445.4 465.75,-439.91 472.61,-437.7 477.29,-443.19"/>
</a>
</g>
<text text-anchor="middle" x="601" y="-484" font-family="Helvetica,sans-Serif" font-size="10.00" fill="grey"> +RobotTypeID</text>
</g>
<!-- Node13 -->
<g id="Node000013" class="node">
<title>Node13</title>
<g id="a_Node000013"><a xlink:title=" ">
<polygon fill="white" stroke="transparent" points="707,-559 660,-559 660,-510 707,-510 707,-559"/>
<text text-anchor="start" x="665.5" y="-546.5" font-family="Helvetica,sans-Serif" font-size="10.00">TagType</text>
<text text-anchor="start" x="682" y="-531.5" font-family="Helvetica,sans-Serif" font-size="10.00"> </text>
<text text-anchor="start" x="682" y="-516.5" font-family="Helvetica,sans-Serif" font-size="10.00"> </text>
<polygon fill="#666666" stroke="#666666" points="660.5,-541.5 660.5,-541.5 707.5,-541.5 707.5,-541.5 660.5,-541.5"/>
<polygon fill="#666666" stroke="#666666" points="660.5,-526.5 660.5,-526.5 707.5,-526.5 707.5,-526.5 660.5,-526.5"/>
<polygon fill="none" stroke="#666666" points="660,-510 660,-559 707,-559 707,-510 660,-510"/>
</a>
</g>
</g>
<!-- Node13&#45;&gt;Node8 -->
<g id="edge13_Node000008_Node000013" class="edge">
<title>Node13&#45;&gt;Node8</title>
<g id="a_edge13_Node000008_Node000013"><a xlink:title=" ">
<path fill="none" stroke="#63b8ff" d="M668.32,-509.79C660.58,-499.49 650.3,-488.17 638.5,-481 588.98,-450.89 522.49,-439.28 477.93,-434.81"/>
<polygon fill="none" stroke="#63b8ff" points="477.65,-434.78 471.31,-438.22 465.7,-433.7 472.03,-430.26 477.65,-434.78"/>
</a>
</g>
<text text-anchor="middle" x="680" y="-484" font-family="Helvetica,sans-Serif" font-size="10.00" fill="grey"> +TagTypeID</text>
</g>
</g>
</svg>
