<?xml version="1.0" encoding="UTF-8" standalone="no"?>
<!DOCTYPE svg PUBLIC "-//W3C//DTD SVG 1.1//EN"
 "http://www.w3.org/Graphics/SVG/1.1/DTD/svg11.dtd">
<!-- Generated by graphviz version 2.43.0 (0)
 -->
<!-- Title: rm::para::RuneGroupParam Pages: 1 -->
<svg width="239pt" height="189pt"
 viewBox="0.00 0.00 239.00 189.00" xmlns="http://www.w3.org/2000/svg" xmlns:xlink="http://www.w3.org/1999/xlink">

<svg id="main" version="1.1" xmlns="http://www.w3.org/2000/svg" xmlns:xlink="http://www.w3.org/1999/xlink" xml:space="preserve">

<style type="text/css"><![CDATA[
.node, .edge {opacity: 0.7;}
.node.selected, .edge.selected {opacity: 1;}
.edge:hover path { stroke: red; }
.edge:hover polygon { stroke: red; fill: red; }
]]></style>
<script type="application/ecmascript" xlink:href="../../svg.min.js"/>
<svg id="graph" class="graph">
<g id="graph0" class="graph" transform="scale(1 1) rotate(0) translate(4 185)">
<title>rm::para::RuneGroupParam</title>
<!-- Node1 -->
<g id="Node000001" class="node">
<title>Node1</title>
<g id="a_Node000001"><a xlink:title="RuneGroupParam 参数模块">
<polygon fill="#999999" stroke="transparent" points="154.5,-79 11.5,-79 11.5,0 154.5,0 154.5,-79"/>
<text text-anchor="start" x="17" y="-66.5" font-family="Helvetica,sans-Serif" font-size="10.00">rm::para::RuneGroupParam</text>
<text text-anchor="start" x="81.5" y="-51.5" font-family="Helvetica,sans-Serif" font-size="10.00"> </text>
<text text-anchor="start" x="23" y="-36.5" font-family="Helvetica,sans-Serif" font-size="10.00">+</text>
<text text-anchor="start" x="43" y="-36.5" font-family="Helvetica,sans-Serif" font-size="10.00">RuneGroupParam()</text>
<text text-anchor="start" x="23" y="-21.5" font-family="Helvetica,sans-Serif" font-size="10.00">+</text>
<text text-anchor="start" x="43" y="-21.5" font-family="Helvetica,sans-Serif" font-size="10.00">read()</text>
<text text-anchor="start" x="23" y="-6.5" font-family="Helvetica,sans-Serif" font-size="10.00">+</text>
<text text-anchor="start" x="43" y="-6.5" font-family="Helvetica,sans-Serif" font-size="10.00">write()</text>
<polygon fill="#666666" stroke="#666666" points="12,-61.5 12,-61.5 155,-61.5 155,-61.5 12,-61.5"/>
<polygon fill="#666666" stroke="#666666" points="12,-46.5 12,-46.5 155,-46.5 155,-46.5 12,-46.5"/>
<polygon fill="none" stroke="#666666" points="11.5,0 11.5,-79 154.5,-79 154.5,0 11.5,0"/>
</a>
</g>
</g>
<!-- Node2 -->
<g id="Node000002" class="node">
<title>Node2</title>
<g id="a_Node000002"><a xlink:title=" ">
<polygon fill="white" stroke="transparent" points="44,-181 0,-181 0,-132 44,-132 44,-181"/>
<text text-anchor="start" x="5" y="-168.5" font-family="Helvetica,sans-Serif" font-size="10.00">double</text>
<text text-anchor="start" x="20" y="-153.5" font-family="Helvetica,sans-Serif" font-size="10.00"> </text>
<text text-anchor="start" x="20" y="-138.5" font-family="Helvetica,sans-Serif" font-size="10.00"> </text>
<polygon fill="#666666" stroke="#666666" points="0,-163.5 0,-163.5 44,-163.5 44,-163.5 0,-163.5"/>
<polygon fill="#666666" stroke="#666666" points="0,-148.5 0,-148.5 44,-148.5 44,-148.5 0,-148.5"/>
<polygon fill="none" stroke="#666666" points="0,-132 0,-181 44,-181 44,-132 0,-132"/>
</a>
</g>
</g>
<!-- Node2&#45;&gt;Node1 -->
<g id="edge1_Node000001_Node000002" class="edge">
<title>Node2&#45;&gt;Node1</title>
<g id="a_edge1_Node000001_Node000002"><a xlink:title=" ">
<path fill="none" stroke="#63b8ff" d="M18.3,-131.82C17.58,-120.8 18.24,-107.78 23,-97 24.24,-94.19 25.69,-91.46 27.32,-88.81"/>
<polygon fill="none" stroke="#63b8ff" points="27.34,-88.77 27.57,-81.57 34.31,-79 34.08,-86.21 27.34,-88.77"/>
</a>
</g>
<text text-anchor="start" x="26" y="-102.5" font-family="Helvetica,sans-Serif" font-size="10.00" fill="grey">+INTERVAL_ANGLE</text>
</g>
<!-- Node3 -->
<g id="Node000003" class="node">
<title>Node3</title>
<g id="a_Node000003"><a xlink:title=" ">
<polygon fill="white" stroke="transparent" points="164.5,-181 125.5,-181 125.5,-132 164.5,-132 164.5,-181"/>
<text text-anchor="start" x="131" y="-168.5" font-family="Helvetica,sans-Serif" font-size="10.00">size_t</text>
<text text-anchor="start" x="143.5" y="-153.5" font-family="Helvetica,sans-Serif" font-size="10.00"> </text>
<text text-anchor="start" x="143.5" y="-138.5" font-family="Helvetica,sans-Serif" font-size="10.00"> </text>
<polygon fill="#666666" stroke="#666666" points="126,-163.5 126,-163.5 165,-163.5 165,-163.5 126,-163.5"/>
<polygon fill="#666666" stroke="#666666" points="126,-148.5 126,-148.5 165,-148.5 165,-148.5 126,-148.5"/>
<polygon fill="none" stroke="#666666" points="125.5,-132 125.5,-181 164.5,-181 164.5,-132 125.5,-132"/>
</a>
</g>
</g>
<!-- Node3&#45;&gt;Node1 -->
<g id="edge2_Node000001_Node000003" class="edge">
<title>Node3&#45;&gt;Node1</title>
<g id="a_edge2_Node000001_Node000003"><a xlink:title=" ">
<path fill="none" stroke="#63b8ff" d="M137.65,-131.84C133.88,-120.95 128.85,-108.02 123,-97 121.67,-94.49 120.24,-91.97 118.75,-89.45"/>
<polygon fill="none" stroke="#63b8ff" points="118.69,-89.35 112.12,-86.39 112.32,-79.19 118.89,-82.14 118.69,-89.35"/>
</a>
</g>
<text text-anchor="start" x="133.5" y="-102.5" font-family="Helvetica,sans-Serif" font-size="10.00" fill="grey">+RAW_DATAS_SIZE</text>
</g>
</g>
</svg>
</svg>

<style type='text/css'>
<![CDATA[
[data-mouse-over-selected='false'] { opacity: 0.7; }
[data-mouse-over-selected='true']  { opacity: 1.0; }
]]>
</style>
<script type="application/ecmascript"><![CDATA[
document.addEventListener('DOMContentLoaded', (event) => {
  highlightEdges();
  highlightAdjacentNodes();
});
]]></script>
</svg>
