<?xml version="1.0" encoding="UTF-8" standalone="no"?>
<!DOCTYPE svg PUBLIC "-//W3C//DTD SVG 1.1//EN"
 "http://www.w3.org/Graphics/SVG/1.1/DTD/svg11.dtd">
<!-- Generated by graphviz version 2.43.0 (0)
 -->
<!-- Title: rmvl/feature/feature.h Pages: 1 -->
<svg width="1911pt" height="401pt"
 viewBox="0.00 0.00 1910.50 401.00" xmlns="http://www.w3.org/2000/svg" xmlns:xlink="http://www.w3.org/1999/xlink">
<g id="graph0" class="graph" transform="scale(1 1) rotate(0) translate(4 397)">
<title>rmvl/feature/feature.h</title>
<!-- Node1 -->
<g id="Node000001" class="node">
<title>Node1</title>
<g id="a_Node000001"><a xlink:title="feature class header">
<polygon fill="#999999" stroke="#666666" points="609.5,-393 499.5,-393 499.5,-374 609.5,-374 609.5,-393"/>
<text text-anchor="middle" x="554.5" y="-381" font-family="Helvetica,sans-Serif" font-size="10.00">rmvl/feature/feature.h</text>
</a>
</g>
</g>
<!-- Node2 -->
<g id="Node000002" class="node">
<title>Node2</title>
<g id="a_Node000002"><a xlink:href="../../d8/d36/combo_8h.html" target="_top" xlink:title="the combination of the features header file">
<polygon fill="white" stroke="#666666" points="325.5,-332.5 217.5,-332.5 217.5,-313.5 325.5,-313.5 325.5,-332.5"/>
<text text-anchor="middle" x="271.5" y="-320.5" font-family="Helvetica,sans-Serif" font-size="10.00">rmvl/combo/combo.h</text>
</a>
</g>
</g>
<!-- Node1&#45;&gt;Node2 -->
<g id="edge1_Node000001_Node000002" class="edge">
<title>Node1&#45;&gt;Node2</title>
<g id="a_edge1_Node000001_Node000002"><a xlink:title=" ">
<path fill="none" stroke="#63b8ff" d="M501.01,-371.98C456.42,-363.13 391.26,-350.05 334.5,-338 326.39,-336.28 317.7,-334.38 309.45,-332.56"/>
<polygon fill="#63b8ff" stroke="#63b8ff" points="500.55,-375.45 511.04,-373.96 501.91,-368.59 500.55,-375.45"/>
</a>
</g>
</g>
<!-- Node36 -->
<g id="Node000036" class="node">
<title>Node36</title>
<g id="a_Node000036"><a xlink:href="../../d7/d13/rmvl_2feature_8hpp.html" target="_top" xlink:title=" ">
<polygon fill="white" stroke="#666666" points="725,-332.5 638,-332.5 638,-313.5 725,-313.5 725,-332.5"/>
<text text-anchor="middle" x="681.5" y="-320.5" font-family="Helvetica,sans-Serif" font-size="10.00">rmvl/feature.hpp</text>
</a>
</g>
</g>
<!-- Node1&#45;&gt;Node36 -->
<g id="edge44_Node000001_Node000036" class="edge">
<title>Node1&#45;&gt;Node36</title>
<g id="a_edge44_Node000001_Node000036"><a xlink:title=" ">
<path fill="none" stroke="#63b8ff" d="M582.11,-369.78C606.62,-358.49 641.74,-342.31 663.01,-332.52"/>
<polygon fill="#63b8ff" stroke="#63b8ff" points="580.59,-366.63 572.97,-373.99 583.51,-372.99 580.59,-366.63"/>
</a>
</g>
</g>
<!-- Node37 -->
<g id="Node000037" class="node">
<title>Node37</title>
<g id="a_Node000037"><a xlink:href="../../d4/d54/feature_2light__blob_8h.html" target="_top" xlink:title="灯条类头文件">
<polygon fill="white" stroke="#666666" points="199,-338 110,-338 110,-308 199,-308 199,-338"/>
<text text-anchor="start" x="118" y="-326" font-family="Helvetica,sans-Serif" font-size="10.00">rmvl/feature/light</text>
<text text-anchor="middle" x="154.5" y="-315" font-family="Helvetica,sans-Serif" font-size="10.00">_blob.h</text>
</a>
</g>
</g>
<!-- Node1&#45;&gt;Node37 -->
<g id="edge45_Node000001_Node000037" class="edge">
<title>Node1&#45;&gt;Node37</title>
<g id="a_edge45_Node000001_Node000037"><a xlink:title=" ">
<path fill="none" stroke="#63b8ff" d="M489.35,-376.59C419.51,-369.68 305.56,-356.75 208.5,-338 205.46,-337.41 202.33,-336.75 199.19,-336.05"/>
<polygon fill="#63b8ff" stroke="#63b8ff" points="489.03,-380.07 499.33,-377.56 489.72,-373.11 489.03,-380.07"/>
</a>
</g>
</g>
<!-- Node38 -->
<g id="Node000038" class="node">
<title>Node38</title>
<g id="a_Node000038"><a xlink:href="../../df/d8b/feature_2pilot_8h.html" target="_top" xlink:title="引导灯类头文件">
<polygon fill="white" stroke="#666666" points="841.5,-332.5 743.5,-332.5 743.5,-313.5 841.5,-313.5 841.5,-332.5"/>
<text text-anchor="middle" x="792.5" y="-320.5" font-family="Helvetica,sans-Serif" font-size="10.00">rmvl/feature/pilot.h</text>
</a>
</g>
</g>
<!-- Node1&#45;&gt;Node38 -->
<g id="edge47_Node000001_Node000038" class="edge">
<title>Node1&#45;&gt;Node38</title>
<g id="a_edge47_Node000001_Node000038"><a xlink:title=" ">
<path fill="none" stroke="#63b8ff" d="M599.1,-371.54C645.1,-360.23 715.88,-342.83 757.85,-332.52"/>
<polygon fill="#63b8ff" stroke="#63b8ff" points="597.98,-368.21 589.11,-373.99 599.65,-375.01 597.98,-368.21"/>
</a>
</g>
</g>
<!-- Node39 -->
<g id="Node000039" class="node">
<title>Node39</title>
<g id="a_Node000039"><a xlink:href="../../d6/d1d/feature_2rune__center_8h.html" target="_top" xlink:title=" ">
<polygon fill="white" stroke="#666666" points="619.5,-332.5 489.5,-332.5 489.5,-313.5 619.5,-313.5 619.5,-332.5"/>
<text text-anchor="middle" x="554.5" y="-320.5" font-family="Helvetica,sans-Serif" font-size="10.00">rmvl/feature/rune_center.h</text>
</a>
</g>
</g>
<!-- Node1&#45;&gt;Node39 -->
<g id="edge48_Node000001_Node000039" class="edge">
<title>Node1&#45;&gt;Node39</title>
<g id="a_edge48_Node000001_Node000039"><a xlink:title=" ">
<path fill="none" stroke="#63b8ff" d="M554.5,-363.66C554.5,-353.24 554.5,-340.8 554.5,-332.67"/>
<polygon fill="#63b8ff" stroke="#63b8ff" points="551,-363.87 554.5,-373.87 558,-363.87 551,-363.87"/>
</a>
</g>
</g>
<!-- Node40 -->
<g id="Node000040" class="node">
<title>Node40</title>
<g id="a_Node000040"><a xlink:href="../../d2/d8d/feature_2rune__target_8h.html" target="_top" xlink:title=" ">
<polygon fill="white" stroke="#666666" points="471.5,-332.5 343.5,-332.5 343.5,-313.5 471.5,-313.5 471.5,-332.5"/>
<text text-anchor="middle" x="407.5" y="-320.5" font-family="Helvetica,sans-Serif" font-size="10.00">rmvl/feature/rune_target.h</text>
</a>
</g>
</g>
<!-- Node1&#45;&gt;Node40 -->
<g id="edge50_Node000001_Node000040" class="edge">
<title>Node1&#45;&gt;Node40</title>
<g id="a_edge50_Node000001_Node000040"><a xlink:title=" ">
<path fill="none" stroke="#63b8ff" d="M523.67,-370.23C495.26,-358.92 453.84,-342.44 428.9,-332.52"/>
<polygon fill="#63b8ff" stroke="#63b8ff" points="522.54,-373.55 533.12,-373.99 525.13,-367.04 522.54,-373.55"/>
</a>
</g>
</g>
<!-- Node41 -->
<g id="Node000041" class="node">
<title>Node41</title>
<g id="a_Node000041"><a xlink:href="../../d2/dcd/tag_8h.html" target="_top" xlink:title="AprilTag 视觉标签特征类">
<polygon fill="white" stroke="#666666" points="953,-332.5 860,-332.5 860,-313.5 953,-313.5 953,-332.5"/>
<text text-anchor="middle" x="906.5" y="-320.5" font-family="Helvetica,sans-Serif" font-size="10.00">rmvl/feature/tag.h</text>
</a>
</g>
</g>
<!-- Node1&#45;&gt;Node41 -->
<g id="edge52_Node000001_Node000041" class="edge">
<title>Node1&#45;&gt;Node41</title>
<g id="a_edge52_Node000001_Node000041"><a xlink:title=" ">
<path fill="none" stroke="#63b8ff" d="M619.72,-374.52C679.9,-366.73 771.62,-353.75 850.5,-338 858.36,-336.43 866.78,-334.47 874.64,-332.53"/>
<polygon fill="#63b8ff" stroke="#63b8ff" points="619.07,-371.07 609.6,-375.82 619.97,-378.02 619.07,-371.07"/>
</a>
</g>
</g>
<!-- Node3 -->
<g id="Node000003" class="node">
<title>Node3</title>
<g id="a_Node000003"><a xlink:href="../../d1/dad/rmvl_2combo_8hpp.html" target="_top" xlink:title=" ">
<polygon fill="white" stroke="#666666" points="310.5,-272 224.5,-272 224.5,-253 310.5,-253 310.5,-272"/>
<text text-anchor="middle" x="267.5" y="-260" font-family="Helvetica,sans-Serif" font-size="10.00">rmvl/combo.hpp</text>
</a>
</g>
</g>
<!-- Node2&#45;&gt;Node3 -->
<g id="edge2_Node000002_Node000003" class="edge">
<title>Node2&#45;&gt;Node3</title>
<g id="a_edge2_Node000002_Node000003"><a xlink:title=" ">
<path fill="none" stroke="#63b8ff" d="M270.21,-303.16C269.5,-292.74 268.65,-280.3 268.09,-272.17"/>
<polygon fill="#63b8ff" stroke="#63b8ff" points="266.74,-303.63 270.91,-313.37 273.72,-303.15 266.74,-303.63"/>
</a>
</g>
</g>
<!-- Node4 -->
<g id="Node000004" class="node">
<title>Node4</title>
<g id="a_Node000004"><a xlink:href="../../dd/d92/combo_2armor_8h.html" target="_top" xlink:title="装甲板类头文件">
<polygon fill="white" stroke="#666666" points="206,-272 103,-272 103,-253 206,-253 206,-272"/>
<text text-anchor="middle" x="154.5" y="-260" font-family="Helvetica,sans-Serif" font-size="10.00">rmvl/combo/armor.h</text>
</a>
</g>
</g>
<!-- Node2&#45;&gt;Node4 -->
<g id="edge3_Node000002_Node000004" class="edge">
<title>Node2&#45;&gt;Node4</title>
<g id="a_edge3_Node000002_Node000004"><a xlink:title=" ">
<path fill="none" stroke="#63b8ff" d="M245.46,-308.98C222.92,-297.71 190.95,-281.73 171.53,-272.02"/>
<polygon fill="#63b8ff" stroke="#63b8ff" points="243.98,-312.15 254.49,-313.49 247.11,-305.89 243.98,-312.15"/>
</a>
</g>
</g>
<!-- Node9 -->
<g id="Node000009" class="node">
<title>Node9</title>
<g id="a_Node000009"><a xlink:href="../../de/de6/combo_2rune_8h.html" target="_top" xlink:title="神符类头文件">
<polygon fill="white" stroke="#666666" points="578.5,-272 480.5,-272 480.5,-253 578.5,-253 578.5,-272"/>
<text text-anchor="middle" x="529.5" y="-260" font-family="Helvetica,sans-Serif" font-size="10.00">rmvl/combo/rune.h</text>
</a>
</g>
</g>
<!-- Node2&#45;&gt;Node9 -->
<g id="edge8_Node000002_Node000009" class="edge">
<title>Node2&#45;&gt;Node9</title>
<g id="a_edge8_Node000002_Node000009"><a xlink:title=" ">
<path fill="none" stroke="#63b8ff" d="M318.9,-311.25C368.75,-299.95 446.16,-282.4 491.94,-272.02"/>
<polygon fill="#63b8ff" stroke="#63b8ff" points="317.99,-307.87 309.02,-313.49 319.54,-314.7 317.99,-307.87"/>
</a>
</g>
</g>
<!-- Node12 -->
<g id="Node000012" class="node">
<title>Node12</title>
<g id="a_Node000012"><a xlink:href="../../dc/ded/tracker_8h.html" target="_top" xlink:title="追踪器抽象头文件">
<polygon fill="white" stroke="#666666" points="438,-272 329,-272 329,-253 438,-253 438,-272"/>
<text text-anchor="middle" x="383.5" y="-260" font-family="Helvetica,sans-Serif" font-size="10.00">rmvl/tracker/tracker.h</text>
</a>
</g>
</g>
<!-- Node2&#45;&gt;Node12 -->
<g id="edge11_Node000002_Node000012" class="edge">
<title>Node2&#45;&gt;Node12</title>
<g id="a_edge11_Node000002_Node000012"><a xlink:title=" ">
<path fill="none" stroke="#63b8ff" d="M296.91,-308.73C318.36,-297.53 348.43,-281.82 366.91,-272.17"/>
<polygon fill="#63b8ff" stroke="#63b8ff" points="295.27,-305.64 288.03,-313.37 298.51,-311.84 295.27,-305.64"/>
</a>
</g>
</g>
<!-- Node5 -->
<g id="Node000005" class="node">
<title>Node5</title>
<g id="a_Node000005"><a xlink:href="../../d7/de6/tracker_2gyro__tracker_8h.html" target="_top" xlink:title="装甲板追踪器头文件">
<polygon fill="white" stroke="#666666" points="133,-211.5 0,-211.5 0,-192.5 133,-192.5 133,-211.5"/>
<text text-anchor="middle" x="66.5" y="-199.5" font-family="Helvetica,sans-Serif" font-size="10.00">rmvl/tracker/gyro_tracker.h</text>
</a>
</g>
</g>
<!-- Node4&#45;&gt;Node5 -->
<g id="edge4_Node000004_Node000005" class="edge">
<title>Node4&#45;&gt;Node5</title>
<g id="a_edge4_Node000004_Node000005"><a xlink:title=" ">
<path fill="none" stroke="#63b8ff" d="M132.93,-247.16C116.21,-236.05 93.6,-221.01 79.54,-211.67"/>
<polygon fill="#63b8ff" stroke="#63b8ff" points="131.25,-250.25 141.52,-252.87 135.13,-244.42 131.25,-250.25"/>
</a>
</g>
</g>
<!-- Node7 -->
<g id="Node000007" class="node">
<title>Node7</title>
<g id="a_Node000007"><a xlink:href="../../d5/dea/tracker_2planar__tracker_8h.html" target="_top" xlink:title="平面目标追踪器头文件">
<polygon fill="white" stroke="#666666" points="249.5,-217 151.5,-217 151.5,-187 249.5,-187 249.5,-217"/>
<text text-anchor="start" x="159.5" y="-205" font-family="Helvetica,sans-Serif" font-size="10.00">rmvl/tracker/planar</text>
<text text-anchor="middle" x="200.5" y="-194" font-family="Helvetica,sans-Serif" font-size="10.00">_tracker.h</text>
</a>
</g>
</g>
<!-- Node4&#45;&gt;Node7 -->
<g id="edge6_Node000004_Node000007" class="edge">
<title>Node4&#45;&gt;Node7</title>
<g id="a_edge6_Node000004_Node000007"><a xlink:title=" ">
<path fill="none" stroke="#63b8ff" d="M167.57,-244.88C174.46,-236.11 182.83,-225.48 189.4,-217.11"/>
<polygon fill="#63b8ff" stroke="#63b8ff" points="164.72,-242.84 161.29,-252.87 170.22,-247.17 164.72,-242.84"/>
</a>
</g>
</g>
<!-- Node6 -->
<g id="Node000006" class="node">
<title>Node6</title>
<g id="a_Node000006"><a xlink:href="../../d1/d6b/detector_2gyro__detector_8h.html" target="_top" xlink:title="装甲板识别派生类头文件">
<polygon fill="white" stroke="#666666" points="286,-96 191,-96 191,-66 286,-66 286,-96"/>
<text text-anchor="start" x="199" y="-84" font-family="Helvetica,sans-Serif" font-size="10.00">rmvl/detector/gyro</text>
<text text-anchor="middle" x="238.5" y="-73" font-family="Helvetica,sans-Serif" font-size="10.00">_detector.h</text>
</a>
</g>
</g>
<!-- Node5&#45;&gt;Node6 -->
<g id="edge5_Node000005_Node000006" class="edge">
<title>Node5&#45;&gt;Node6</title>
<g id="a_edge5_Node000005_Node000006"><a xlink:title=" ">
<path fill="none" stroke="#63b8ff" d="M87.37,-186.56C120.67,-163.52 185.37,-118.76 218.26,-96"/>
<polygon fill="#63b8ff" stroke="#63b8ff" points="85.1,-183.87 78.87,-192.44 89.08,-189.63 85.1,-183.87"/>
</a>
</g>
</g>
<!-- Node8 -->
<g id="Node000008" class="node">
<title>Node8</title>
<g id="a_Node000008"><a xlink:href="../../da/d95/detector_2armor__detector_8h.html" target="_top" xlink:title="装甲板识别派生类头文件">
<polygon fill="white" stroke="#666666" points="405,-96 304,-96 304,-66 405,-66 405,-96"/>
<text text-anchor="start" x="312" y="-84" font-family="Helvetica,sans-Serif" font-size="10.00">rmvl/detector/armor</text>
<text text-anchor="middle" x="354.5" y="-73" font-family="Helvetica,sans-Serif" font-size="10.00">_detector.h</text>
</a>
</g>
</g>
<!-- Node7&#45;&gt;Node8 -->
<g id="edge7_Node000007_Node000008" class="edge">
<title>Node7&#45;&gt;Node8</title>
<g id="a_edge7_Node000007_Node000008"><a xlink:title=" ">
<path fill="none" stroke="#63b8ff" d="M201.77,-176.45C203.74,-161.91 208.46,-144.04 219.5,-132 231.33,-119.11 270.59,-105.36 303.75,-95.55"/>
<polygon fill="#63b8ff" stroke="#63b8ff" points="198.25,-176.47 200.74,-186.77 205.22,-177.17 198.25,-176.47"/>
</a>
</g>
</g>
<!-- Node10 -->
<g id="Node000010" class="node">
<title>Node10</title>
<g id="a_Node000010"><a xlink:href="../../dd/d0a/tracker_2rune__tracker_8h.html" target="_top" xlink:title="神符追踪器头文件">
<polygon fill="white" stroke="#666666" points="712,-211.5 579,-211.5 579,-192.5 712,-192.5 712,-211.5"/>
<text text-anchor="middle" x="645.5" y="-199.5" font-family="Helvetica,sans-Serif" font-size="10.00">rmvl/tracker/rune_tracker.h</text>
</a>
</g>
</g>
<!-- Node9&#45;&gt;Node10 -->
<g id="edge9_Node000009_Node000010" class="edge">
<title>Node9&#45;&gt;Node10</title>
<g id="a_edge9_Node000009_Node000010"><a xlink:title=" ">
<path fill="none" stroke="#63b8ff" d="M555.82,-248.23C578.03,-237.03 609.18,-221.32 628.31,-211.67"/>
<polygon fill="#63b8ff" stroke="#63b8ff" points="553.97,-245.24 546.62,-252.87 557.12,-251.49 553.97,-245.24"/>
</a>
</g>
</g>
<!-- Node11 -->
<g id="Node000011" class="node">
<title>Node11</title>
<g id="a_Node000011"><a xlink:href="../../db/dcc/detector_2rune__detector_8h.html" target="_top" xlink:title="神符识别派生类头文件">
<polygon fill="white" stroke="#666666" points="785,-96 690,-96 690,-66 785,-66 785,-96"/>
<text text-anchor="start" x="698" y="-84" font-family="Helvetica,sans-Serif" font-size="10.00">rmvl/detector/rune</text>
<text text-anchor="middle" x="737.5" y="-73" font-family="Helvetica,sans-Serif" font-size="10.00">_detector.h</text>
</a>
</g>
</g>
<!-- Node10&#45;&gt;Node11 -->
<g id="edge10_Node000010_Node000011" class="edge">
<title>Node10&#45;&gt;Node11</title>
<g id="a_edge10_Node000010_Node000011"><a xlink:title=" ">
<path fill="none" stroke="#63b8ff" d="M687.4,-188.7C705.8,-181 725.66,-169.02 736.5,-151 746.56,-134.26 744.22,-110.87 741.18,-96.08"/>
<polygon fill="#63b8ff" stroke="#63b8ff" points="686.02,-185.48 677.96,-192.35 688.55,-192.01 686.02,-185.48"/>
</a>
</g>
</g>
<!-- Node12&#45;&gt;Node5 -->
<g id="edge41_Node000012_Node000005" class="edge">
<title>Node12&#45;&gt;Node5</title>
<g id="a_edge41_Node000012_Node000005"><a xlink:title=" ">
<path fill="none" stroke="#63b8ff" d="M327.54,-251.17C266.4,-239.89 169.61,-222.03 112.65,-211.52"/>
<polygon fill="#63b8ff" stroke="#63b8ff" points="326.94,-254.62 337.41,-252.99 328.21,-247.74 326.94,-254.62"/>
</a>
</g>
</g>
<!-- Node12&#45;&gt;Node7 -->
<g id="edge42_Node000012_Node000007" class="edge">
<title>Node12&#45;&gt;Node7</title>
<g id="a_edge42_Node000012_Node000007"><a xlink:title=" ">
<path fill="none" stroke="#63b8ff" d="M347,-249.83C317.49,-240.4 275.84,-227.09 244.5,-217.06"/>
<polygon fill="#63b8ff" stroke="#63b8ff" points="346.3,-253.28 356.89,-252.99 348.43,-246.61 346.3,-253.28"/>
</a>
</g>
</g>
<!-- Node12&#45;&gt;Node10 -->
<g id="edge43_Node000012_Node000010" class="edge">
<title>Node12&#45;&gt;Node10</title>
<g id="a_edge43_Node000012_Node000010"><a xlink:title=" ">
<path fill="none" stroke="#63b8ff" d="M431.64,-250.75C482.25,-239.45 560.86,-221.9 607.36,-211.52"/>
<polygon fill="#63b8ff" stroke="#63b8ff" points="430.59,-247.4 421.6,-252.99 432.12,-254.23 430.59,-247.4"/>
</a>
</g>
</g>
<!-- Node13 -->
<g id="Node000013" class="node">
<title>Node13</title>
<g id="a_Node000013"><a xlink:href="../../d6/dd8/decider_2gyro__decider_8h.html" target="_top" xlink:title="装甲板模块决策器头文件">
<polygon fill="white" stroke="#666666" points="502.5,-24.5 366.5,-24.5 366.5,-5.5 502.5,-5.5 502.5,-24.5"/>
<text text-anchor="middle" x="434.5" y="-12.5" font-family="Helvetica,sans-Serif" font-size="10.00">rmvl/decider/gyro_decider.h</text>
</a>
</g>
</g>
<!-- Node12&#45;&gt;Node13 -->
<g id="edge12_Node000012_Node000013" class="edge">
<title>Node12&#45;&gt;Node13</title>
<g id="a_edge12_Node000012_Node000013"><a xlink:title=" ">
<path fill="none" stroke="#63b8ff" d="M357.76,-248.16C323.53,-229.57 262.35,-193.36 219.5,-151 190.07,-121.91 155.23,-97.97 181.5,-66 204.49,-38.02 299.43,-25.44 366.22,-19.97"/>
<polygon fill="#63b8ff" stroke="#63b8ff" points="356.2,-251.29 366.67,-252.92 359.5,-245.12 356.2,-251.29"/>
</a>
</g>
</g>
<!-- Node14 -->
<g id="Node000014" class="node">
<title>Node14</title>
<g id="a_Node000014"><a xlink:href="../../d9/dd1/group_8h.html" target="_top" xlink:title="序列组抽象头文件">
<polygon fill="white" stroke="#666666" points="560.5,-211.5 462.5,-211.5 462.5,-192.5 560.5,-192.5 560.5,-211.5"/>
<text text-anchor="middle" x="511.5" y="-199.5" font-family="Helvetica,sans-Serif" font-size="10.00">rmvl/group/group.h</text>
</a>
</g>
</g>
<!-- Node12&#45;&gt;Node14 -->
<g id="edge13_Node000012_Node000014" class="edge">
<title>Node12&#45;&gt;Node14</title>
<g id="a_edge13_Node000012_Node000014"><a xlink:title=" ">
<path fill="none" stroke="#63b8ff" d="M411.33,-248.78C436.03,-237.49 471.43,-221.31 492.87,-211.52"/>
<polygon fill="#63b8ff" stroke="#63b8ff" points="409.75,-245.65 402.11,-252.99 412.66,-252.02 409.75,-245.65"/>
</a>
</g>
</g>
<!-- Node35 -->
<g id="Node000035" class="node">
<title>Node35</title>
<g id="a_Node000035"><a xlink:href="../../dc/d2d/rmvl_2tracker_8hpp.html" target="_top" xlink:title=" ">
<polygon fill="white" stroke="#666666" points="426.5,-211.5 340.5,-211.5 340.5,-192.5 426.5,-192.5 426.5,-211.5"/>
<text text-anchor="middle" x="383.5" y="-199.5" font-family="Helvetica,sans-Serif" font-size="10.00">rmvl/tracker.hpp</text>
</a>
</g>
</g>
<!-- Node12&#45;&gt;Node35 -->
<g id="edge40_Node000012_Node000035" class="edge">
<title>Node12&#45;&gt;Node35</title>
<g id="a_edge40_Node000012_Node000035"><a xlink:title=" ">
<path fill="none" stroke="#63b8ff" d="M383.5,-242.66C383.5,-232.24 383.5,-219.8 383.5,-211.67"/>
<polygon fill="#63b8ff" stroke="#63b8ff" points="380,-242.87 383.5,-252.87 387,-242.87 380,-242.87"/>
</a>
</g>
</g>
<!-- Node15 -->
<g id="Node000015" class="node">
<title>Node15</title>
<g id="a_Node000015"><a xlink:href="../../d9/df2/compensator_8h.html" target="_top" xlink:title="抽象补偿类头文件">
<polygon fill="white" stroke="#666666" points="1085,-151 924,-151 924,-132 1085,-132 1085,-151"/>
<text text-anchor="middle" x="1004.5" y="-139" font-family="Helvetica,sans-Serif" font-size="10.00">rmvl/compensator/compensator.h</text>
</a>
</g>
</g>
<!-- Node14&#45;&gt;Node15 -->
<g id="edge14_Node000014_Node000015" class="edge">
<title>Node14&#45;&gt;Node15</title>
<g id="a_edge14_Node000014_Node000015"><a xlink:title=" ">
<path fill="none" stroke="#63b8ff" d="M553.63,-190.13C558.95,-188.96 564.34,-187.88 569.5,-187 692.22,-166.01 836.23,-153.65 923.89,-147.48"/>
<polygon fill="#63b8ff" stroke="#63b8ff" points="552.51,-186.79 543.55,-192.45 554.08,-193.62 552.51,-186.79"/>
</a>
</g>
</g>
<!-- Node23 -->
<g id="Node000023" class="node">
<title>Node23</title>
<g id="a_Node000023"><a xlink:href="../../d5/d9f/detector_8h.html" target="_top" xlink:title="抽象识别类头文件">
<polygon fill="white" stroke="#666666" points="728,-151 609,-151 609,-132 728,-132 728,-151"/>
<text text-anchor="middle" x="668.5" y="-139" font-family="Helvetica,sans-Serif" font-size="10.00">rmvl/detector/detector.h</text>
</a>
</g>
</g>
<!-- Node14&#45;&gt;Node23 -->
<g id="edge23_Node000014_Node000023" class="edge">
<title>Node14&#45;&gt;Node23</title>
<g id="a_edge23_Node000014_Node000023"><a xlink:title=" ">
<path fill="none" stroke="#63b8ff" d="M544.03,-188.88C574.38,-177.57 618.89,-160.99 645.64,-151.02"/>
<polygon fill="#63b8ff" stroke="#63b8ff" points="542.48,-185.72 534.33,-192.49 544.92,-192.28 542.48,-185.72"/>
</a>
</g>
</g>
<!-- Node26 -->
<g id="Node000026" class="node">
<title>Node26</title>
<g id="a_Node000026"><a xlink:href="../../db/d4f/rmvl_2group_8hpp.html" target="_top" xlink:title=" ">
<polygon fill="white" stroke="#666666" points="310,-151 229,-151 229,-132 310,-132 310,-151"/>
<text text-anchor="middle" x="269.5" y="-139" font-family="Helvetica,sans-Serif" font-size="10.00">rmvl/group.hpp</text>
</a>
</g>
</g>
<!-- Node14&#45;&gt;Node26 -->
<g id="edge30_Node000014_Node000026" class="edge">
<title>Node14&#45;&gt;Node26</title>
<g id="a_edge30_Node000014_Node000026"><a xlink:title=" ">
<path fill="none" stroke="#63b8ff" d="M466.45,-190.11C419.68,-178.8 347.5,-161.35 304.73,-151.02"/>
<polygon fill="#63b8ff" stroke="#63b8ff" points="465.77,-193.55 476.31,-192.49 467.41,-186.74 465.77,-193.55"/>
</a>
</g>
</g>
<!-- Node27 -->
<g id="Node000027" class="node">
<title>Node27</title>
<g id="a_Node000027"><a xlink:href="../../d3/df0/group_2gyro__group_8h.html" target="_top" xlink:title="装甲序列组头文件">
<polygon fill="white" stroke="#666666" points="450.5,-151 328.5,-151 328.5,-132 450.5,-132 450.5,-151"/>
<text text-anchor="middle" x="389.5" y="-139" font-family="Helvetica,sans-Serif" font-size="10.00">rmvl/group/gyro_group.h</text>
</a>
</g>
</g>
<!-- Node14&#45;&gt;Node27 -->
<g id="edge31_Node000014_Node000027" class="edge">
<title>Node14&#45;&gt;Node27</title>
<g id="a_edge31_Node000014_Node000027"><a xlink:title=" ">
<path fill="none" stroke="#63b8ff" d="M484.67,-188.13C461.14,-176.85 427.6,-160.77 407.26,-151.02"/>
<polygon fill="#63b8ff" stroke="#63b8ff" points="483.23,-191.33 493.76,-192.49 486.26,-185.01 483.23,-191.33"/>
</a>
</g>
</g>
<!-- Node28 -->
<g id="Node000028" class="node">
<title>Node28</title>
<g id="a_Node000028"><a xlink:href="../../d8/df3/group_2rune__group_8h.html" target="_top" xlink:title="神符序列组头文件">
<polygon fill="white" stroke="#666666" points="590.5,-151 468.5,-151 468.5,-132 590.5,-132 590.5,-151"/>
<text text-anchor="middle" x="529.5" y="-139" font-family="Helvetica,sans-Serif" font-size="10.00">rmvl/group/rune_group.h</text>
</a>
</g>
</g>
<!-- Node14&#45;&gt;Node28 -->
<g id="edge32_Node000014_Node000028" class="edge">
<title>Node14&#45;&gt;Node28</title>
<g id="a_edge32_Node000014_Node000028"><a xlink:title=" ">
<path fill="none" stroke="#63b8ff" d="M517.19,-182.49C520.42,-172.01 524.3,-159.39 526.83,-151.17"/>
<polygon fill="#63b8ff" stroke="#63b8ff" points="513.75,-181.78 514.16,-192.37 520.44,-183.84 513.75,-181.78"/>
</a>
</g>
</g>
<!-- Node29 -->
<g id="Node000029" class="node">
<title>Node29</title>
<g id="a_Node000029"><a xlink:href="../../dc/d08/predictor_8h.html" target="_top" xlink:title="抽象预测类头文件">
<polygon fill="white" stroke="#666666" points="1570.5,-151 1446.5,-151 1446.5,-132 1570.5,-132 1570.5,-151"/>
<text text-anchor="middle" x="1508.5" y="-139" font-family="Helvetica,sans-Serif" font-size="10.00">rmvl/predictor/predictor.h</text>
</a>
</g>
</g>
<!-- Node14&#45;&gt;Node29 -->
<g id="edge33_Node000014_Node000029" class="edge">
<title>Node14&#45;&gt;Node29</title>
<g id="a_edge33_Node000014_Node000029"><a xlink:title=" ">
<path fill="none" stroke="#63b8ff" d="M551.76,-190.25C557.67,-188.97 563.72,-187.83 569.5,-187 739.64,-162.66 1265.45,-148.25 1446.49,-143.9"/>
<polygon fill="#63b8ff" stroke="#63b8ff" points="550.95,-186.84 541.99,-192.49 552.52,-193.66 550.95,-186.84"/>
</a>
</g>
</g>
<!-- Node16 -->
<g id="Node000016" class="node">
<title>Node16</title>
<g id="a_Node000016"><a xlink:href="../../d6/ddf/rmvl_2compensator_8hpp.html" target="_top" xlink:title=" ">
<polygon fill="white" stroke="#666666" points="1326,-90.5 1213,-90.5 1213,-71.5 1326,-71.5 1326,-90.5"/>
<text text-anchor="middle" x="1269.5" y="-78.5" font-family="Helvetica,sans-Serif" font-size="10.00">rmvl/compensator.hpp</text>
</a>
</g>
</g>
<!-- Node15&#45;&gt;Node16 -->
<g id="edge15_Node000015_Node000016" class="edge">
<title>Node15&#45;&gt;Node16</title>
<g id="a_edge15_Node000015_Node000016"><a xlink:title=" ">
<path fill="none" stroke="#63b8ff" d="M1052.87,-129.82C1104.05,-118.52 1183.8,-100.92 1230.92,-90.52"/>
<polygon fill="#63b8ff" stroke="#63b8ff" points="1052.04,-126.42 1043.03,-131.99 1053.55,-133.26 1052.04,-126.42"/>
</a>
</g>
</g>
<!-- Node17 -->
<g id="Node000017" class="node">
<title>Node17</title>
<g id="a_Node000017"><a xlink:href="../../d1/d91/compensator_2gravity__compensator_8h.html" target="_top" xlink:title="重力模型补偿头文件">
<polygon fill="white" stroke="#666666" points="930,-96 803,-96 803,-66 930,-66 930,-96"/>
<text text-anchor="start" x="811" y="-84" font-family="Helvetica,sans-Serif" font-size="10.00">rmvl/compensator/gravity</text>
<text text-anchor="middle" x="866.5" y="-73" font-family="Helvetica,sans-Serif" font-size="10.00">_compensator.h</text>
</a>
</g>
</g>
<!-- Node15&#45;&gt;Node17 -->
<g id="edge16_Node000015_Node000017" class="edge">
<title>Node15&#45;&gt;Node17</title>
<g id="a_edge16_Node000015_Node000017"><a xlink:title=" ">
<path fill="none" stroke="#63b8ff" d="M975.2,-128.08C953.08,-118.7 922.7,-105.82 899.68,-96.06"/>
<polygon fill="#63b8ff" stroke="#63b8ff" points="973.86,-131.31 984.43,-131.99 976.59,-124.87 973.86,-131.31"/>
</a>
</g>
</g>
<!-- Node18 -->
<g id="Node000018" class="node">
<title>Node18</title>
<g id="a_Node000018"><a xlink:href="../../d5/d90/compensator_2gyro__compensator_8h.html" target="_top" xlink:title="整车状态补偿模块接口声明">
<polygon fill="white" stroke="#666666" points="1194.5,-96 1078.5,-96 1078.5,-66 1194.5,-66 1194.5,-96"/>
<text text-anchor="start" x="1086.5" y="-84" font-family="Helvetica,sans-Serif" font-size="10.00">rmvl/compensator/gyro</text>
<text text-anchor="middle" x="1136.5" y="-73" font-family="Helvetica,sans-Serif" font-size="10.00">_compensator.h</text>
</a>
</g>
</g>
<!-- Node15&#45;&gt;Node18 -->
<g id="edge17_Node000015_Node000018" class="edge">
<title>Node15&#45;&gt;Node18</title>
<g id="a_edge17_Node000015_Node000018"><a xlink:title=" ">
<path fill="none" stroke="#63b8ff" d="M1033.09,-127.83C1054.21,-118.47 1082.94,-105.74 1104.77,-96.06"/>
<polygon fill="#63b8ff" stroke="#63b8ff" points="1031.42,-124.74 1023.69,-131.99 1034.25,-131.14 1031.42,-124.74"/>
</a>
</g>
</g>
<!-- Node19 -->
<g id="Node000019" class="node">
<title>Node19</title>
<g id="a_Node000019"><a xlink:href="../../d3/d70/decider_8h.html" target="_top" xlink:title="抽象决策类头文件">
<polygon fill="white" stroke="#666666" points="1060.5,-90.5 948.5,-90.5 948.5,-71.5 1060.5,-71.5 1060.5,-90.5"/>
<text text-anchor="middle" x="1004.5" y="-78.5" font-family="Helvetica,sans-Serif" font-size="10.00">rmvl/decider/decider.h</text>
</a>
</g>
</g>
<!-- Node15&#45;&gt;Node19 -->
<g id="edge18_Node000015_Node000019" class="edge">
<title>Node15&#45;&gt;Node19</title>
<g id="a_edge18_Node000015_Node000019"><a xlink:title=" ">
<path fill="none" stroke="#63b8ff" d="M1004.5,-121.66C1004.5,-111.24 1004.5,-98.8 1004.5,-90.67"/>
<polygon fill="#63b8ff" stroke="#63b8ff" points="1001,-121.87 1004.5,-131.87 1008,-121.87 1001,-121.87"/>
</a>
</g>
</g>
<!-- Node19&#45;&gt;Node13 -->
<g id="edge20_Node000019_Node000013" class="edge">
<title>Node19&#45;&gt;Node13</title>
<g id="a_edge20_Node000019_Node000013"><a xlink:title=" ">
<path fill="none" stroke="#63b8ff" d="M957.68,-69.4C951.26,-68.15 944.73,-66.97 938.5,-66 783.62,-41.97 600.07,-27.16 502.87,-20.38"/>
<polygon fill="#63b8ff" stroke="#63b8ff" points="957.13,-72.87 967.63,-71.43 958.53,-66.01 957.13,-72.87"/>
</a>
</g>
</g>
<!-- Node20 -->
<g id="Node000020" class="node">
<title>Node20</title>
<g id="a_Node000020"><a xlink:href="../../de/d18/rmvl_2decider_8hpp.html" target="_top" xlink:title=" ">
<polygon fill="white" stroke="#666666" points="1169.5,-24.5 1081.5,-24.5 1081.5,-5.5 1169.5,-5.5 1169.5,-24.5"/>
<text text-anchor="middle" x="1125.5" y="-12.5" font-family="Helvetica,sans-Serif" font-size="10.00">rmvl/decider.hpp</text>
</a>
</g>
</g>
<!-- Node19&#45;&gt;Node20 -->
<g id="edge19_Node000019_Node000020" class="edge">
<title>Node19&#45;&gt;Node20</title>
<g id="a_edge19_Node000019_Node000020"><a xlink:title=" ">
<path fill="none" stroke="#63b8ff" d="M1029.97,-66.53C1053.8,-53.92 1088.7,-35.47 1109.05,-24.7"/>
<polygon fill="#63b8ff" stroke="#63b8ff" points="1028.02,-63.6 1020.82,-71.37 1031.29,-69.79 1028.02,-63.6"/>
</a>
</g>
</g>
<!-- Node21 -->
<g id="Node000021" class="node">
<title>Node21</title>
<g id="a_Node000021"><a xlink:href="../../dd/d03/decider_2rune__decider_8h.html" target="_top" xlink:title="神符模块决策器头文件">
<polygon fill="white" stroke="#666666" points="927.5,-24.5 791.5,-24.5 791.5,-5.5 927.5,-5.5 927.5,-24.5"/>
<text text-anchor="middle" x="859.5" y="-12.5" font-family="Helvetica,sans-Serif" font-size="10.00">rmvl/decider/rune_decider.h</text>
</a>
</g>
</g>
<!-- Node19&#45;&gt;Node21 -->
<g id="edge21_Node000019_Node000021" class="edge">
<title>Node19&#45;&gt;Node21</title>
<g id="a_edge21_Node000019_Node000021"><a xlink:title=" ">
<path fill="none" stroke="#63b8ff" d="M975.49,-67.19C946.91,-54.58 904.04,-35.66 879.21,-24.7"/>
<polygon fill="#63b8ff" stroke="#63b8ff" points="974.38,-70.53 984.94,-71.37 977.21,-64.13 974.38,-70.53"/>
</a>
</g>
</g>
<!-- Node22 -->
<g id="Node000022" class="node">
<title>Node22</title>
<g id="a_Node000022"><a xlink:href="../../de/d06/decider_2translation__decider_8h.html" target="_top" xlink:title="平移目标决策器头文件">
<polygon fill="white" stroke="#666666" points="1063.5,-30 945.5,-30 945.5,0 1063.5,0 1063.5,-30"/>
<text text-anchor="start" x="953.5" y="-18" font-family="Helvetica,sans-Serif" font-size="10.00">rmvl/decider/translation</text>
<text text-anchor="middle" x="1004.5" y="-7" font-family="Helvetica,sans-Serif" font-size="10.00">_decider.h</text>
</a>
</g>
</g>
<!-- Node19&#45;&gt;Node22 -->
<g id="edge22_Node000019_Node000022" class="edge">
<title>Node19&#45;&gt;Node22</title>
<g id="a_edge22_Node000019_Node000022"><a xlink:title=" ">
<path fill="none" stroke="#63b8ff" d="M1004.5,-61.35C1004.5,-51.47 1004.5,-39.51 1004.5,-30.36"/>
<polygon fill="#63b8ff" stroke="#63b8ff" points="1001,-61.37 1004.5,-71.37 1008,-61.37 1001,-61.37"/>
</a>
</g>
</g>
<!-- Node23&#45;&gt;Node6 -->
<g id="edge27_Node000023_Node000006" class="edge">
<title>Node23&#45;&gt;Node6</title>
<g id="a_edge27_Node000023_Node000006"><a xlink:title=" ">
<path fill="none" stroke="#63b8ff" d="M598.67,-131.92C462.28,-115.87 425.61,-120.03 294.5,-96 291.74,-95.49 288.91,-94.93 286.07,-94.33"/>
<polygon fill="#63b8ff" stroke="#63b8ff" points="598.32,-135.4 608.66,-133.11 599.15,-128.45 598.32,-135.4"/>
</a>
</g>
</g>
<!-- Node23&#45;&gt;Node8 -->
<g id="edge26_Node000023_Node000008" class="edge">
<title>Node23&#45;&gt;Node8</title>
<g id="a_edge26_Node000023_Node000008"><a xlink:title=" ">
<path fill="none" stroke="#63b8ff" d="M604.84,-130.36C553.35,-121.91 479.06,-109.18 414.5,-96 411.46,-95.38 408.34,-94.72 405.2,-94.04"/>
<polygon fill="#63b8ff" stroke="#63b8ff" points="604.39,-133.83 614.82,-131.99 605.51,-126.92 604.39,-133.83"/>
</a>
</g>
</g>
<!-- Node23&#45;&gt;Node11 -->
<g id="edge28_Node000023_Node000011" class="edge">
<title>Node23&#45;&gt;Node11</title>
<g id="a_edge28_Node000023_Node000011"><a xlink:title=" ">
<path fill="none" stroke="#63b8ff" d="M686.51,-125.23C697.13,-116.23 710.48,-104.91 720.85,-96.11"/>
<polygon fill="#63b8ff" stroke="#63b8ff" points="684.05,-122.73 678.68,-131.87 688.57,-128.07 684.05,-122.73"/>
</a>
</g>
</g>
<!-- Node23&#45;&gt;Node19 -->
<g id="edge24_Node000023_Node000019" class="edge">
<title>Node23&#45;&gt;Node19</title>
<g id="a_edge24_Node000023_Node000019"><a xlink:title=" ">
<path fill="none" stroke="#63b8ff" d="M734.66,-130.46C789.41,-121.94 869.17,-109.06 938.5,-96 947.36,-94.33 956.87,-92.4 965.82,-90.51"/>
<polygon fill="#63b8ff" stroke="#63b8ff" points="734.08,-127.01 724.74,-132 735.16,-133.92 734.08,-127.01"/>
</a>
</g>
</g>
<!-- Node24 -->
<g id="Node000024" class="node">
<title>Node24</title>
<g id="a_Node000024"><a xlink:href="../../dd/d9f/rmvl_2detector_8hpp.html" target="_top" xlink:title=" ">
<polygon fill="white" stroke="#666666" points="515.5,-90.5 423.5,-90.5 423.5,-71.5 515.5,-71.5 515.5,-90.5"/>
<text text-anchor="middle" x="469.5" y="-78.5" font-family="Helvetica,sans-Serif" font-size="10.00">rmvl/detector.hpp</text>
</a>
</g>
</g>
<!-- Node23&#45;&gt;Node24 -->
<g id="edge25_Node000023_Node000024" class="edge">
<title>Node23&#45;&gt;Node24</title>
<g id="a_edge25_Node000023_Node000024"><a xlink:title=" ">
<path fill="none" stroke="#63b8ff" d="M629.75,-129.11C591.26,-117.79 533.12,-100.7 498.47,-90.52"/>
<polygon fill="#63b8ff" stroke="#63b8ff" points="628.98,-132.53 639.56,-131.99 630.96,-125.82 628.98,-132.53"/>
</a>
</g>
</g>
<!-- Node25 -->
<g id="Node000025" class="node">
<title>Node25</title>
<g id="a_Node000025"><a xlink:href="../../d6/d58/detector_2tag__detector_8h.html" target="_top" xlink:title="AprilTag 识别模块">
<polygon fill="white" stroke="#666666" points="671.5,-90.5 533.5,-90.5 533.5,-71.5 671.5,-71.5 671.5,-90.5"/>
<text text-anchor="middle" x="602.5" y="-78.5" font-family="Helvetica,sans-Serif" font-size="10.00">rmvl/detector/tag_detector.h</text>
</a>
</g>
</g>
<!-- Node23&#45;&gt;Node25 -->
<g id="edge29_Node000023_Node000025" class="edge">
<title>Node23&#45;&gt;Node25</title>
<g id="a_edge29_Node000023_Node000025"><a xlink:title=" ">
<path fill="none" stroke="#63b8ff" d="M651.26,-125.22C638.84,-114.21 622.53,-99.75 612.28,-90.67"/>
<polygon fill="#63b8ff" stroke="#63b8ff" points="648.96,-127.85 658.76,-131.87 653.6,-122.62 648.96,-127.85"/>
</a>
</g>
</g>
<!-- Node29&#45;&gt;Node19 -->
<g id="edge34_Node000029_Node000019" class="edge">
<title>Node29&#45;&gt;Node19</title>
<g id="a_edge34_Node000029_Node000019"><a xlink:title=" ">
<path fill="none" stroke="#63b8ff" d="M1436.37,-135.66C1349.12,-129.23 1197.97,-116.28 1069.5,-96 1060.15,-94.52 1050.12,-92.56 1040.81,-90.57"/>
<polygon fill="#63b8ff" stroke="#63b8ff" points="1436.2,-139.16 1446.42,-136.39 1436.71,-132.17 1436.2,-139.16"/>
</a>
</g>
</g>
<!-- Node30 -->
<g id="Node000030" class="node">
<title>Node30</title>
<g id="a_Node000030"><a xlink:href="../../df/d54/rmvl_2predictor_8hpp.html" target="_top" xlink:title=" ">
<polygon fill="white" stroke="#666666" points="1438.5,-90.5 1344.5,-90.5 1344.5,-71.5 1438.5,-71.5 1438.5,-90.5"/>
<text text-anchor="middle" x="1391.5" y="-78.5" font-family="Helvetica,sans-Serif" font-size="10.00">rmvl/predictor.hpp</text>
</a>
</g>
</g>
<!-- Node29&#45;&gt;Node30 -->
<g id="edge35_Node000029_Node000030" class="edge">
<title>Node29&#45;&gt;Node30</title>
<g id="a_edge35_Node000029_Node000030"><a xlink:title=" ">
<path fill="none" stroke="#63b8ff" d="M1482.46,-127.48C1459.92,-116.21 1427.95,-100.23 1408.53,-90.52"/>
<polygon fill="#63b8ff" stroke="#63b8ff" points="1480.98,-130.65 1491.49,-131.99 1484.11,-124.39 1480.98,-130.65"/>
</a>
</g>
</g>
<!-- Node31 -->
<g id="Node000031" class="node">
<title>Node31</title>
<g id="a_Node000031"><a xlink:href="../../df/d4c/predictor_2armor__predictor_8h.html" target="_top" xlink:title="装甲板预测派生类头文件">
<polygon fill="white" stroke="#666666" points="1560.5,-96 1456.5,-96 1456.5,-66 1560.5,-66 1560.5,-96"/>
<text text-anchor="start" x="1464.5" y="-84" font-family="Helvetica,sans-Serif" font-size="10.00">rmvl/predictor/armor</text>
<text text-anchor="middle" x="1508.5" y="-73" font-family="Helvetica,sans-Serif" font-size="10.00">_predictor.h</text>
</a>
</g>
</g>
<!-- Node29&#45;&gt;Node31 -->
<g id="edge36_Node000029_Node000031" class="edge">
<title>Node29&#45;&gt;Node31</title>
<g id="a_edge36_Node000029_Node000031"><a xlink:title=" ">
<path fill="none" stroke="#63b8ff" d="M1508.5,-121.65C1508.5,-113.36 1508.5,-103.78 1508.5,-96.11"/>
<polygon fill="#63b8ff" stroke="#63b8ff" points="1505,-121.87 1508.5,-131.87 1512,-121.87 1505,-121.87"/>
</a>
</g>
</g>
<!-- Node32 -->
<g id="Node000032" class="node">
<title>Node32</title>
<g id="a_Node000032"><a xlink:href="../../d9/de5/predictor_2gyro__predictor_8h.html" target="_top" xlink:title="整车状态预测派生类头文件">
<polygon fill="white" stroke="#666666" points="1676.5,-96 1578.5,-96 1578.5,-66 1676.5,-66 1676.5,-96"/>
<text text-anchor="start" x="1586.5" y="-84" font-family="Helvetica,sans-Serif" font-size="10.00">rmvl/predictor/gyro</text>
<text text-anchor="middle" x="1627.5" y="-73" font-family="Helvetica,sans-Serif" font-size="10.00">_predictor.h</text>
</a>
</g>
</g>
<!-- Node29&#45;&gt;Node32 -->
<g id="edge37_Node000029_Node000032" class="edge">
<title>Node29&#45;&gt;Node32</title>
<g id="a_edge37_Node000029_Node000032"><a xlink:title=" ">
<path fill="none" stroke="#63b8ff" d="M1535.02,-127.46C1553.91,-118.18 1579.27,-105.71 1598.66,-96.18"/>
<polygon fill="#63b8ff" stroke="#63b8ff" points="1533.23,-124.44 1525.8,-131.99 1536.32,-130.72 1533.23,-124.44"/>
</a>
</g>
</g>
<!-- Node33 -->
<g id="Node000033" class="node">
<title>Node33</title>
<g id="a_Node000033"><a xlink:href="../../d5/dec/predictor_2rune__predictor_8h.html" target="_top" xlink:title="神符预测派生类头文件">
<polygon fill="white" stroke="#666666" points="1792.5,-96 1694.5,-96 1694.5,-66 1792.5,-66 1792.5,-96"/>
<text text-anchor="start" x="1702.5" y="-84" font-family="Helvetica,sans-Serif" font-size="10.00">rmvl/predictor/rune</text>
<text text-anchor="middle" x="1743.5" y="-73" font-family="Helvetica,sans-Serif" font-size="10.00">_predictor.h</text>
</a>
</g>
</g>
<!-- Node29&#45;&gt;Node33 -->
<g id="edge38_Node000029_Node000033" class="edge">
<title>Node29&#45;&gt;Node33</title>
<g id="a_edge38_Node000029_Node000033"><a xlink:title=" ">
<path fill="none" stroke="#63b8ff" d="M1552.47,-129.55C1592.73,-119.53 1652.25,-104.72 1694.13,-94.29"/>
<polygon fill="#63b8ff" stroke="#63b8ff" points="1551.53,-126.18 1542.67,-131.99 1553.22,-132.97 1551.53,-126.18"/>
</a>
</g>
</g>
<!-- Node34 -->
<g id="Node000034" class="node">
<title>Node34</title>
<g id="a_Node000034"><a xlink:href="../../dc/d86/predictor_2spi__rune__predictor_8h.html" target="_top" xlink:title="系统参数辨识神符预测头文件">
<polygon fill="white" stroke="#666666" points="1902.5,-96 1810.5,-96 1810.5,-66 1902.5,-66 1902.5,-96"/>
<text text-anchor="start" x="1818.5" y="-84" font-family="Helvetica,sans-Serif" font-size="10.00">rmvl/predictor/spi</text>
<text text-anchor="middle" x="1856.5" y="-73" font-family="Helvetica,sans-Serif" font-size="10.00">_rune_predictor.h</text>
</a>
</g>
</g>
<!-- Node29&#45;&gt;Node34 -->
<g id="edge39_Node000029_Node000034" class="edge">
<title>Node29&#45;&gt;Node34</title>
<g id="a_edge39_Node000029_Node000034"><a xlink:title=" ">
<path fill="none" stroke="#63b8ff" d="M1580.6,-131.57C1640.12,-123.71 1726.66,-111.17 1801.5,-96 1804.4,-95.41 1807.37,-94.77 1810.36,-94.1"/>
<polygon fill="#63b8ff" stroke="#63b8ff" points="1580.01,-128.11 1570.55,-132.88 1580.92,-135.05 1580.01,-128.11"/>
</a>
</g>
</g>
<!-- Node37&#45;&gt;Node4 -->
<g id="edge46_Node000037_Node000004" class="edge">
<title>Node37&#45;&gt;Node4</title>
<g id="a_edge46_Node000037_Node000004"><a xlink:title=" ">
<path fill="none" stroke="#63b8ff" d="M154.5,-297.75C154.5,-288.72 154.5,-279.03 154.5,-272.27"/>
<polygon fill="#63b8ff" stroke="#63b8ff" points="151,-297.84 154.5,-307.84 158,-297.84 151,-297.84"/>
</a>
</g>
</g>
<!-- Node39&#45;&gt;Node9 -->
<g id="edge49_Node000039_Node000009" class="edge">
<title>Node39&#45;&gt;Node9</title>
<g id="a_edge49_Node000039_Node000009"><a xlink:title=" ">
<path fill="none" stroke="#63b8ff" d="M546.87,-304.15C542.34,-293.54 536.79,-280.56 533.2,-272.17"/>
<polygon fill="#63b8ff" stroke="#63b8ff" points="543.66,-305.55 550.81,-313.37 550.1,-302.8 543.66,-305.55"/>
</a>
</g>
</g>
<!-- Node40&#45;&gt;Node9 -->
<g id="edge51_Node000040_Node000009" class="edge">
<title>Node40&#45;&gt;Node9</title>
<g id="a_edge51_Node000040_Node000009"><a xlink:title=" ">
<path fill="none" stroke="#63b8ff" d="M434.33,-309.13C457.86,-297.85 491.4,-281.77 511.74,-272.02"/>
<polygon fill="#63b8ff" stroke="#63b8ff" points="432.74,-306.01 425.24,-313.49 435.77,-312.33 432.74,-306.01"/>
</a>
</g>
</g>
</g>
</svg>
