<?xml version="1.0" encoding="UTF-8" standalone="no"?>
<!DOCTYPE svg PUBLIC "-//W3C//DTD SVG 1.1//EN"
 "http://www.w3.org/Graphics/SVG/1.1/DTD/svg11.dtd">
<!-- Generated by graphviz version 2.43.0 (0)
 -->
<!-- Title: rm::ArmorDetector Pages: 1 -->
<svg width="117pt" height="262pt"
 viewBox="0.00 0.00 117.00 262.00" xmlns="http://www.w3.org/2000/svg" xmlns:xlink="http://www.w3.org/1999/xlink">
<g id="graph0" class="graph" transform="scale(1 1) rotate(0) translate(4 258)">
<title>rm::ArmorDetector</title>
<!-- Node1 -->
<g id="Node000001" class="node">
<title>Node1</title>
<g id="a_Node000001"><a xlink:title="装甲板识别模块">
<polygon fill="#999999" stroke="transparent" points="109,-124 0,-124 0,0 109,0 109,-124"/>
<text text-anchor="start" x="9" y="-112" font-family="Helvetica,sans-Serif" font-size="10.00">rm::ArmorDetector</text>
<text text-anchor="start" x="53" y="-97" font-family="Helvetica,sans-Serif" font-size="10.00"> </text>
<text text-anchor="start" x="4.5" y="-82" font-family="Helvetica,sans-Serif" font-size="10.00">+</text>
<text text-anchor="start" x="17.5" y="-82" font-family="Helvetica,sans-Serif" font-size="10.00">ArmorDetector()</text>
<text text-anchor="start" x="4.5" y="-67" font-family="Helvetica,sans-Serif" font-size="10.00">+</text>
<text text-anchor="start" x="17.5" y="-67" font-family="Helvetica,sans-Serif" font-size="10.00">~ArmorDetector()</text>
<text text-anchor="start" x="4.5" y="-52" font-family="Helvetica,sans-Serif" font-size="10.00">+</text>
<text text-anchor="start" x="17.5" y="-52" font-family="Helvetica,sans-Serif" font-size="10.00">ArmorDetector()</text>
<text text-anchor="start" x="4.5" y="-37" font-family="Helvetica,sans-Serif" font-size="10.00">+</text>
<text text-anchor="start" x="17.5" y="-37" font-family="Helvetica,sans-Serif" font-size="10.00">detect()</text>
<text text-anchor="start" x="4.5" y="-22" font-family="Helvetica,sans-Serif" font-size="10.00">+</text>
<text text-anchor="start" x="17.5" y="-22" font-family="Helvetica,sans-Serif" font-size="10.00">make_detector()</text>
<text text-anchor="start" x="4.5" y="-7" font-family="Helvetica,sans-Serif" font-size="10.00">+</text>
<text text-anchor="start" x="17.5" y="-7" font-family="Helvetica,sans-Serif" font-size="10.00">make_detector()</text>
<polygon fill="#666666" stroke="#666666" points="0.5,-107 0.5,-107 109.5,-107 109.5,-107 0.5,-107"/>
<polygon fill="#666666" stroke="#666666" points="0.5,-92 0.5,-92 109.5,-92 109.5,-92 0.5,-92"/>
<polygon fill="none" stroke="#666666" points="0,0 0,-124 109,-124 109,0 0,0"/>
</a>
</g>
</g>
<!-- Node2 -->
<g id="Node000002" class="node">
<title>Node2</title>
<g id="a_Node000002"><a xlink:href="../../d3/d77/classrm_1_1detector.html" target="_top" xlink:title="识别检测模块">
<polygon fill="white" stroke="transparent" points="93.5,-254 15.5,-254 15.5,-160 93.5,-160 93.5,-254"/>
<text text-anchor="start" x="24" y="-242" font-family="Helvetica,sans-Serif" font-size="10.00">rm::detector</text>
<text text-anchor="start" x="19.5" y="-227" font-family="Helvetica,sans-Serif" font-size="10.00">#</text>
<text text-anchor="start" x="32.5" y="-227" font-family="Helvetica,sans-Serif" font-size="10.00">_tick</text>
<text text-anchor="start" x="19.5" y="-212" font-family="Helvetica,sans-Serif" font-size="10.00">#</text>
<text text-anchor="start" x="32.5" y="-212" font-family="Helvetica,sans-Serif" font-size="10.00">_imu_data</text>
<text text-anchor="start" x="19.5" y="-197" font-family="Helvetica,sans-Serif" font-size="10.00">+</text>
<text text-anchor="start" x="32.5" y="-197" font-family="Helvetica,sans-Serif" font-size="10.00">detector()</text>
<text text-anchor="start" x="19.5" y="-182" font-family="Helvetica,sans-Serif" font-size="10.00">+</text>
<text text-anchor="start" x="32.5" y="-182" font-family="Helvetica,sans-Serif" font-size="10.00">~detector()</text>
<text text-anchor="start" x="19.5" y="-167" font-family="Helvetica,sans-Serif" font-size="10.00">+</text>
<text text-anchor="start" x="32.5" y="-167" font-family="Helvetica,sans-Serif" font-size="10.00">detect()</text>
<polygon fill="#666666" stroke="#666666" points="15.5,-237 15.5,-237 93.5,-237 93.5,-237 15.5,-237"/>
<polygon fill="#666666" stroke="#666666" points="15.5,-207 15.5,-207 30.5,-207 30.5,-207 15.5,-207"/>
<polygon fill="#666666" stroke="#666666" points="30.5,-207 30.5,-207 93.5,-207 93.5,-207 30.5,-207"/>
<polygon fill="none" stroke="#666666" points="15.5,-160 15.5,-254 93.5,-254 93.5,-160 15.5,-160"/>
</a>
</g>
</g>
<!-- Node2&#45;&gt;Node1 -->
<g id="edge1_Node000001_Node000002" class="edge">
<title>Node2&#45;&gt;Node1</title>
<g id="a_edge1_Node000001_Node000002"><a xlink:title=" ">
<path fill="none" stroke="#63b8ff" d="M54.5,-149.84C54.5,-141.38 54.5,-132.63 54.5,-124.08"/>
<polygon fill="none" stroke="#63b8ff" points="51,-149.97 54.5,-159.97 58,-149.97 51,-149.97"/>
</a>
</g>
</g>
</g>
</svg>
