<?xml version="1.0" encoding="UTF-8" standalone="no"?>
<!DOCTYPE svg PUBLIC "-//W3C//DTD SVG 1.1//EN"
 "http://www.w3.org/Graphics/SVG/1.1/DTD/svg11.dtd">
<!-- Generated by graphviz version 2.43.0 (0)
 -->
<!-- Title: rm::combo Pages: 1 -->
<svg width="437pt" height="742pt"
 viewBox="0.00 0.00 436.50 742.00" xmlns="http://www.w3.org/2000/svg" xmlns:xlink="http://www.w3.org/1999/xlink">
<g id="graph0" class="graph" transform="scale(1 1) rotate(0) translate(4 738)">
<title>rm::combo</title>
<!-- Node1 -->
<g id="Node000001" class="node">
<title>Node1</title>
<g id="a_Node000001"><a xlink:title="特征组合体">
<polygon fill="#999999" stroke="transparent" points="263.5,-734 150.5,-734 150.5,-385 263.5,-385 263.5,-734"/>
<text text-anchor="start" x="181" y="-721.5" font-family="Helvetica,sans-Serif" font-size="10.00">rm::combo</text>
<text text-anchor="start" x="155" y="-706.5" font-family="Helvetica,sans-Serif" font-size="10.00">#</text>
<text text-anchor="start" x="168" y="-706.5" font-family="Helvetica,sans-Serif" font-size="10.00">_features</text>
<text text-anchor="start" x="155" y="-691.5" font-family="Helvetica,sans-Serif" font-size="10.00">#</text>
<text text-anchor="start" x="168" y="-691.5" font-family="Helvetica,sans-Serif" font-size="10.00">_height</text>
<text text-anchor="start" x="155" y="-676.5" font-family="Helvetica,sans-Serif" font-size="10.00">#</text>
<text text-anchor="start" x="168" y="-676.5" font-family="Helvetica,sans-Serif" font-size="10.00">_width</text>
<text text-anchor="start" x="155" y="-661.5" font-family="Helvetica,sans-Serif" font-size="10.00">#</text>
<text text-anchor="start" x="168" y="-661.5" font-family="Helvetica,sans-Serif" font-size="10.00">_angle</text>
<text text-anchor="start" x="155" y="-646.5" font-family="Helvetica,sans-Serif" font-size="10.00">#</text>
<text text-anchor="start" x="168" y="-646.5" font-family="Helvetica,sans-Serif" font-size="10.00">_type</text>
<text text-anchor="start" x="155" y="-631.5" font-family="Helvetica,sans-Serif" font-size="10.00">#</text>
<text text-anchor="start" x="168" y="-631.5" font-family="Helvetica,sans-Serif" font-size="10.00">_center</text>
<text text-anchor="start" x="155" y="-616.5" font-family="Helvetica,sans-Serif" font-size="10.00">#</text>
<text text-anchor="start" x="168" y="-616.5" font-family="Helvetica,sans-Serif" font-size="10.00">_relative_angle</text>
<text text-anchor="start" x="155" y="-601.5" font-family="Helvetica,sans-Serif" font-size="10.00">#</text>
<text text-anchor="start" x="168" y="-601.5" font-family="Helvetica,sans-Serif" font-size="10.00">_gyro_data</text>
<text text-anchor="start" x="155" y="-586.5" font-family="Helvetica,sans-Serif" font-size="10.00">#</text>
<text text-anchor="start" x="168" y="-586.5" font-family="Helvetica,sans-Serif" font-size="10.00">_corners</text>
<text text-anchor="start" x="155" y="-571.5" font-family="Helvetica,sans-Serif" font-size="10.00">#</text>
<text text-anchor="start" x="168" y="-571.5" font-family="Helvetica,sans-Serif" font-size="10.00">_extrinsic</text>
<text text-anchor="start" x="155" y="-556.5" font-family="Helvetica,sans-Serif" font-size="10.00">#</text>
<text text-anchor="start" x="168" y="-556.5" font-family="Helvetica,sans-Serif" font-size="10.00">_tick</text>
<text text-anchor="start" x="155" y="-541.5" font-family="Helvetica,sans-Serif" font-size="10.00">+</text>
<text text-anchor="start" x="168" y="-541.5" font-family="Helvetica,sans-Serif" font-size="10.00">~combo()</text>
<text text-anchor="start" x="155" y="-526.5" font-family="Helvetica,sans-Serif" font-size="10.00">+</text>
<text text-anchor="start" x="168" y="-526.5" font-family="Helvetica,sans-Serif" font-size="10.00">getHeight()</text>
<text text-anchor="start" x="155" y="-511.5" font-family="Helvetica,sans-Serif" font-size="10.00">+</text>
<text text-anchor="start" x="168" y="-511.5" font-family="Helvetica,sans-Serif" font-size="10.00">getWidth()</text>
<text text-anchor="start" x="155" y="-496.5" font-family="Helvetica,sans-Serif" font-size="10.00">+</text>
<text text-anchor="start" x="168" y="-496.5" font-family="Helvetica,sans-Serif" font-size="10.00">getAngle()</text>
<text text-anchor="start" x="155" y="-481.5" font-family="Helvetica,sans-Serif" font-size="10.00">+</text>
<text text-anchor="start" x="168" y="-481.5" font-family="Helvetica,sans-Serif" font-size="10.00">getCenter()</text>
<text text-anchor="start" x="155" y="-466.5" font-family="Helvetica,sans-Serif" font-size="10.00">+</text>
<text text-anchor="start" x="168" y="-466.5" font-family="Helvetica,sans-Serif" font-size="10.00">getCorners()</text>
<text text-anchor="start" x="155" y="-451.5" font-family="Helvetica,sans-Serif" font-size="10.00">+</text>
<text text-anchor="start" x="168" y="-451.5" font-family="Helvetica,sans-Serif" font-size="10.00">getExtrinsics()</text>
<text text-anchor="start" x="155" y="-436.5" font-family="Helvetica,sans-Serif" font-size="10.00">+</text>
<text text-anchor="start" x="168" y="-436.5" font-family="Helvetica,sans-Serif" font-size="10.00">getType()</text>
<text text-anchor="start" x="155" y="-421.5" font-family="Helvetica,sans-Serif" font-size="10.00">+</text>
<text text-anchor="start" x="168" y="-421.5" font-family="Helvetica,sans-Serif" font-size="10.00">getTick()</text>
<text text-anchor="start" x="155" y="-406.5" font-family="Helvetica,sans-Serif" font-size="10.00">+</text>
<text text-anchor="start" x="168" y="-406.5" font-family="Helvetica,sans-Serif" font-size="10.00">getRelativeAngle()</text>
<text text-anchor="start" x="168" y="-391.5" font-family="Helvetica,sans-Serif" font-size="10.00">和 6 更多...</text>
<polygon fill="#666666" stroke="#666666" points="151,-716.5 151,-716.5 264,-716.5 264,-716.5 151,-716.5"/>
<polygon fill="#666666" stroke="#666666" points="151,-551.5 151,-551.5 166,-551.5 166,-551.5 151,-551.5"/>
<polygon fill="#666666" stroke="#666666" points="166,-551.5 166,-551.5 264,-551.5 264,-551.5 166,-551.5"/>
<polygon fill="none" stroke="#666666" points="150.5,-385 150.5,-734 263.5,-734 263.5,-385 150.5,-385"/>
</a>
</g>
</g>
<!-- Node2 -->
<g id="Node000002" class="node">
<title>Node2</title>
<g id="a_Node000002"><a xlink:href="../../df/d41/classrm_1_1Armor.html" target="_top" xlink:title="装甲模块组合特征">
<polygon fill="white" stroke="transparent" points="138,-349 0,-349 0,0 138,0 138,-349"/>
<text text-anchor="start" x="44" y="-336.5" font-family="Helvetica,sans-Serif" font-size="10.00">rm::Armor</text>
<text text-anchor="start" x="67" y="-321.5" font-family="Helvetica,sans-Serif" font-size="10.00"> </text>
<text text-anchor="start" x="4" y="-306.5" font-family="Helvetica,sans-Serif" font-size="10.00">+</text>
<text text-anchor="start" x="17" y="-306.5" font-family="Helvetica,sans-Serif" font-size="10.00">Armor()</text>
<text text-anchor="start" x="4" y="-291.5" font-family="Helvetica,sans-Serif" font-size="10.00">+</text>
<text text-anchor="start" x="17" y="-291.5" font-family="Helvetica,sans-Serif" font-size="10.00">Armor()</text>
<text text-anchor="start" x="4" y="-276.5" font-family="Helvetica,sans-Serif" font-size="10.00">+</text>
<text text-anchor="start" x="17" y="-276.5" font-family="Helvetica,sans-Serif" font-size="10.00">Armor()</text>
<text text-anchor="start" x="4" y="-261.5" font-family="Helvetica,sans-Serif" font-size="10.00">+</text>
<text text-anchor="start" x="17" y="-261.5" font-family="Helvetica,sans-Serif" font-size="10.00">Armor()</text>
<text text-anchor="start" x="4" y="-246.5" font-family="Helvetica,sans-Serif" font-size="10.00">+</text>
<text text-anchor="start" x="17" y="-246.5" font-family="Helvetica,sans-Serif" font-size="10.00">getComboRatio()</text>
<text text-anchor="start" x="4" y="-231.5" font-family="Helvetica,sans-Serif" font-size="10.00">+</text>
<text text-anchor="start" x="17" y="-231.5" font-family="Helvetica,sans-Serif" font-size="10.00">getWidthRatio()</text>
<text text-anchor="start" x="4" y="-216.5" font-family="Helvetica,sans-Serif" font-size="10.00">+</text>
<text text-anchor="start" x="17" y="-216.5" font-family="Helvetica,sans-Serif" font-size="10.00">getLengthRatio()</text>
<text text-anchor="start" x="4" y="-201.5" font-family="Helvetica,sans-Serif" font-size="10.00">+</text>
<text text-anchor="start" x="17" y="-201.5" font-family="Helvetica,sans-Serif" font-size="10.00">getCornerAngle()</text>
<text text-anchor="start" x="4" y="-186.5" font-family="Helvetica,sans-Serif" font-size="10.00">+</text>
<text text-anchor="start" x="17" y="-186.5" font-family="Helvetica,sans-Serif" font-size="10.00">getError()</text>
<text text-anchor="start" x="4" y="-171.5" font-family="Helvetica,sans-Serif" font-size="10.00">+</text>
<text text-anchor="start" x="17" y="-171.5" font-family="Helvetica,sans-Serif" font-size="10.00">getArmorType()</text>
<text text-anchor="start" x="4" y="-156.5" font-family="Helvetica,sans-Serif" font-size="10.00">+</text>
<text text-anchor="start" x="17" y="-156.5" font-family="Helvetica,sans-Serif" font-size="10.00">setType()</text>
<text text-anchor="start" x="4" y="-141.5" font-family="Helvetica,sans-Serif" font-size="10.00">+</text>
<text text-anchor="start" x="17" y="-141.5" font-family="Helvetica,sans-Serif" font-size="10.00">setExtrinsic()</text>
<text text-anchor="start" x="4" y="-126.5" font-family="Helvetica,sans-Serif" font-size="10.00">+</text>
<text text-anchor="start" x="17" y="-126.5" font-family="Helvetica,sans-Serif" font-size="10.00">getPose()</text>
<text text-anchor="start" x="4" y="-111.5" font-family="Helvetica,sans-Serif" font-size="10.00">+</text>
<text text-anchor="start" x="17" y="-111.5" font-family="Helvetica,sans-Serif" font-size="10.00">make_combo()</text>
<text text-anchor="start" x="4" y="-96.5" font-family="Helvetica,sans-Serif" font-size="10.00">+</text>
<text text-anchor="start" x="17" y="-96.5" font-family="Helvetica,sans-Serif" font-size="10.00">cast()</text>
<text text-anchor="start" x="4" y="-81.5" font-family="Helvetica,sans-Serif" font-size="10.00">+</text>
<text text-anchor="start" x="17" y="-81.5" font-family="Helvetica,sans-Serif" font-size="10.00">cast()</text>
<text text-anchor="start" x="4" y="-66.5" font-family="Helvetica,sans-Serif" font-size="10.00">+</text>
<text text-anchor="start" x="17" y="-66.5" font-family="Helvetica,sans-Serif" font-size="10.00">loadSVM()</text>
<text text-anchor="start" x="4" y="-51.5" font-family="Helvetica,sans-Serif" font-size="10.00">+</text>
<text text-anchor="start" x="17" y="-51.5" font-family="Helvetica,sans-Serif" font-size="10.00">gyroConvertToCamera()</text>
<text text-anchor="start" x="4" y="-36.5" font-family="Helvetica,sans-Serif" font-size="10.00">+</text>
<text text-anchor="start" x="17" y="-36.5" font-family="Helvetica,sans-Serif" font-size="10.00">cameraConvertToGyro()</text>
<text text-anchor="start" x="4" y="-21.5" font-family="Helvetica,sans-Serif" font-size="10.00">+</text>
<text text-anchor="start" x="17" y="-21.5" font-family="Helvetica,sans-Serif" font-size="10.00">isContainBlob()</text>
<text text-anchor="start" x="4" y="-6.5" font-family="Helvetica,sans-Serif" font-size="10.00">+</text>
<text text-anchor="start" x="17" y="-6.5" font-family="Helvetica,sans-Serif" font-size="10.00">getNumberROI()</text>
<polygon fill="#666666" stroke="#666666" points="0,-331.5 0,-331.5 138,-331.5 138,-331.5 0,-331.5"/>
<polygon fill="#666666" stroke="#666666" points="0,-316.5 0,-316.5 138,-316.5 138,-316.5 0,-316.5"/>
<polygon fill="none" stroke="#666666" points="0,0 0,-349 138,-349 138,0 0,0"/>
</a>
</g>
</g>
<!-- Node1&#45;&gt;Node2 -->
<g id="edge1_Node000001_Node000002" class="edge">
<title>Node1&#45;&gt;Node2</title>
<g id="a_edge1_Node000001_Node000002"><a xlink:title=" ">
<path fill="none" stroke="#63b8ff" d="M146.96,-391.87C141.88,-377.76 136.72,-363.46 131.62,-349.29"/>
<polygon fill="none" stroke="#63b8ff" points="143.79,-393.39 150.47,-401.61 150.37,-391.02 143.79,-393.39"/>
</a>
</g>
</g>
<!-- Node3 -->
<g id="Node000003" class="node">
<title>Node3</title>
<g id="a_Node000003"><a xlink:href="../../d1/daf/classrm_1_1DefaultCombo.html" target="_top" xlink:title="默认组合体，包含一个固定的特征，退化为 feature 使用">
<polygon fill="white" stroke="transparent" points="257.5,-236.5 156.5,-236.5 156.5,-112.5 257.5,-112.5 257.5,-236.5"/>
<text text-anchor="start" x="162" y="-224.5" font-family="Helvetica,sans-Serif" font-size="10.00">rm::DefaultCombo</text>
<text text-anchor="start" x="205.5" y="-209.5" font-family="Helvetica,sans-Serif" font-size="10.00"> </text>
<text text-anchor="start" x="161" y="-194.5" font-family="Helvetica,sans-Serif" font-size="10.00">+</text>
<text text-anchor="start" x="174" y="-194.5" font-family="Helvetica,sans-Serif" font-size="10.00">DefaultCombo()</text>
<text text-anchor="start" x="161" y="-179.5" font-family="Helvetica,sans-Serif" font-size="10.00">+</text>
<text text-anchor="start" x="174" y="-179.5" font-family="Helvetica,sans-Serif" font-size="10.00">DefaultCombo()</text>
<text text-anchor="start" x="161" y="-164.5" font-family="Helvetica,sans-Serif" font-size="10.00">+</text>
<text text-anchor="start" x="174" y="-164.5" font-family="Helvetica,sans-Serif" font-size="10.00">DefaultCombo()</text>
<text text-anchor="start" x="161" y="-149.5" font-family="Helvetica,sans-Serif" font-size="10.00">+</text>
<text text-anchor="start" x="174" y="-149.5" font-family="Helvetica,sans-Serif" font-size="10.00">make_combo()</text>
<text text-anchor="start" x="161" y="-134.5" font-family="Helvetica,sans-Serif" font-size="10.00">+</text>
<text text-anchor="start" x="174" y="-134.5" font-family="Helvetica,sans-Serif" font-size="10.00">cast()</text>
<text text-anchor="start" x="161" y="-119.5" font-family="Helvetica,sans-Serif" font-size="10.00">+</text>
<text text-anchor="start" x="174" y="-119.5" font-family="Helvetica,sans-Serif" font-size="10.00">cast()</text>
<polygon fill="#666666" stroke="#666666" points="157,-219.5 157,-219.5 258,-219.5 258,-219.5 157,-219.5"/>
<polygon fill="#666666" stroke="#666666" points="157,-204.5 157,-204.5 258,-204.5 258,-204.5 157,-204.5"/>
<polygon fill="none" stroke="#666666" points="156.5,-112.5 156.5,-236.5 257.5,-236.5 257.5,-112.5 156.5,-112.5"/>
</a>
</g>
</g>
<!-- Node1&#45;&gt;Node3 -->
<g id="edge2_Node000001_Node000003" class="edge">
<title>Node1&#45;&gt;Node3</title>
<g id="a_edge2_Node000001_Node000003"><a xlink:title=" ">
<path fill="none" stroke="#63b8ff" d="M207,-374.65C207,-324.87 207,-274.4 207,-236.72"/>
<polygon fill="none" stroke="#63b8ff" points="203.5,-374.93 207,-384.93 210.5,-374.93 203.5,-374.93"/>
</a>
</g>
</g>
<!-- Node4 -->
<g id="Node000004" class="node">
<title>Node4</title>
<g id="a_Node000004"><a xlink:href="../../d1/dfe/classrm_1_1Rune.html" target="_top" xlink:title="神符（能量机关）">
<polygon fill="white" stroke="transparent" points="428.5,-266.5 275.5,-266.5 275.5,-82.5 428.5,-82.5 428.5,-266.5"/>
<text text-anchor="start" x="330" y="-254.5" font-family="Helvetica,sans-Serif" font-size="10.00">rm::Rune</text>
<text text-anchor="start" x="350.5" y="-239.5" font-family="Helvetica,sans-Serif" font-size="10.00"> </text>
<text text-anchor="start" x="280" y="-224.5" font-family="Helvetica,sans-Serif" font-size="10.00">+</text>
<text text-anchor="start" x="293" y="-224.5" font-family="Helvetica,sans-Serif" font-size="10.00">Rune()</text>
<text text-anchor="start" x="280" y="-209.5" font-family="Helvetica,sans-Serif" font-size="10.00">+</text>
<text text-anchor="start" x="293" y="-209.5" font-family="Helvetica,sans-Serif" font-size="10.00">Rune()</text>
<text text-anchor="start" x="280" y="-194.5" font-family="Helvetica,sans-Serif" font-size="10.00">+</text>
<text text-anchor="start" x="293" y="-194.5" font-family="Helvetica,sans-Serif" font-size="10.00">Rune()</text>
<text text-anchor="start" x="280" y="-179.5" font-family="Helvetica,sans-Serif" font-size="10.00">+</text>
<text text-anchor="start" x="293" y="-179.5" font-family="Helvetica,sans-Serif" font-size="10.00">getFeatureDis()</text>
<text text-anchor="start" x="280" y="-164.5" font-family="Helvetica,sans-Serif" font-size="10.00">+</text>
<text text-anchor="start" x="293" y="-164.5" font-family="Helvetica,sans-Serif" font-size="10.00">isActive()</text>
<text text-anchor="start" x="280" y="-149.5" font-family="Helvetica,sans-Serif" font-size="10.00">+</text>
<text text-anchor="start" x="293" y="-149.5" font-family="Helvetica,sans-Serif" font-size="10.00">make_combo()</text>
<text text-anchor="start" x="280" y="-134.5" font-family="Helvetica,sans-Serif" font-size="10.00">+</text>
<text text-anchor="start" x="293" y="-134.5" font-family="Helvetica,sans-Serif" font-size="10.00">cast()</text>
<text text-anchor="start" x="280" y="-119.5" font-family="Helvetica,sans-Serif" font-size="10.00">+</text>
<text text-anchor="start" x="293" y="-119.5" font-family="Helvetica,sans-Serif" font-size="10.00">cast()</text>
<text text-anchor="start" x="280" y="-104.5" font-family="Helvetica,sans-Serif" font-size="10.00">+</text>
<text text-anchor="start" x="293" y="-104.5" font-family="Helvetica,sans-Serif" font-size="10.00">cameraConvertToVertical()</text>
<text text-anchor="start" x="280" y="-89.5" font-family="Helvetica,sans-Serif" font-size="10.00">+</text>
<text text-anchor="start" x="293" y="-89.5" font-family="Helvetica,sans-Serif" font-size="10.00">verticalConvertToCamera()</text>
<polygon fill="#666666" stroke="#666666" points="276,-249.5 276,-249.5 429,-249.5 429,-249.5 276,-249.5"/>
<polygon fill="#666666" stroke="#666666" points="276,-234.5 276,-234.5 429,-234.5 429,-234.5 276,-234.5"/>
<polygon fill="none" stroke="#666666" points="275.5,-82.5 275.5,-266.5 428.5,-266.5 428.5,-82.5 275.5,-82.5"/>
</a>
</g>
</g>
<!-- Node1&#45;&gt;Node4 -->
<g id="edge3_Node000001_Node000004" class="edge">
<title>Node1&#45;&gt;Node4</title>
<g id="a_edge3_Node000001_Node000004"><a xlink:title=" ">
<path fill="none" stroke="#63b8ff" d="M267.22,-399.43C284.37,-354.14 302.46,-306.36 317.5,-266.62"/>
<polygon fill="none" stroke="#63b8ff" points="263.85,-398.46 263.58,-409.05 270.39,-400.94 263.85,-398.46"/>
</a>
</g>
</g>
</g>
</svg>
