<?xml version="1.0" encoding="UTF-8" standalone="no"?>
<!DOCTYPE svg PUBLIC "-//W3C//DTD SVG 1.1//EN"
 "http://www.w3.org/Graphics/SVG/1.1/DTD/svg11.dtd">
<!-- Generated by graphviz version 2.43.0 (0)
 -->
<!-- Title: 类继承关系图 Pages: 1 -->
<svg width="209pt" height="101pt"
 viewBox="0.00 0.00 209.00 101.00" xmlns="http://www.w3.org/2000/svg" xmlns:xlink="http://www.w3.org/1999/xlink">
<g id="graph0" class="graph" transform="scale(1 1) rotate(0) translate(4 97)">
<title>类继承关系图</title>
<!-- Node0 -->
<g id="Node000000" class="node">
<title>Node0</title>
<g id="a_Node000000"><a xlink:href="d6/d6c/classrm_1_1group.html" target="_top" xlink:title="相关追踪器的空间集合（序列组）">
<polygon fill="white" stroke="#666666" points="64,-56 0,-56 0,-37 64,-37 64,-56"/>
<text text-anchor="middle" x="32" y="-44" font-family="Helvetica,sans-Serif" font-size="10.00">rm::group</text>
</a>
</g>
</g>
<!-- Node1 -->
<g id="Node000001" class="node">
<title>Node1</title>
<g id="a_Node000001"><a xlink:href="d0/df4/classrm_1_1DefaultGroup.html" target="_top" xlink:title="默认序列组（一般退化为 trackers 使用）">
<polygon fill="white" stroke="#666666" points="201,-93 100,-93 100,-74 201,-74 201,-93"/>
<text text-anchor="middle" x="150.5" y="-81" font-family="Helvetica,sans-Serif" font-size="10.00">rm::DefaultGroup</text>
</a>
</g>
</g>
<!-- Node0&#45;&gt;Node1 -->
<g id="edge20_Node000000_Node000001" class="edge">
<title>Node0&#45;&gt;Node1</title>
<g id="a_edge20_Node000000_Node000001"><a xlink:title=" ">
<path fill="none" stroke="#63b8ff" d="M72.68,-59.1C87.89,-63.93 105,-69.37 119.2,-73.88"/>
<polygon fill="#63b8ff" stroke="#63b8ff" points="73.59,-55.72 63,-56.03 71.47,-62.39 73.59,-55.72"/>
</a>
</g>
</g>
<!-- Node2 -->
<g id="Node000002" class="node">
<title>Node2</title>
<g id="a_Node000002"><a xlink:href="da/df9/classrm_1_1GyroGroup.html" target="_top" xlink:title="整车状态序列组">
<polygon fill="white" stroke="#666666" points="195,-56 106,-56 106,-37 195,-37 195,-56"/>
<text text-anchor="middle" x="150.5" y="-44" font-family="Helvetica,sans-Serif" font-size="10.00">rm::GyroGroup</text>
</a>
</g>
</g>
<!-- Node0&#45;&gt;Node2 -->
<g id="edge21_Node000000_Node000002" class="edge">
<title>Node0&#45;&gt;Node2</title>
<g id="a_edge21_Node000000_Node000002"><a xlink:title=" ">
<path fill="none" stroke="#63b8ff" d="M74.51,-46.5C84.7,-46.5 95.64,-46.5 105.93,-46.5"/>
<polygon fill="#63b8ff" stroke="#63b8ff" points="74.22,-43 64.22,-46.5 74.22,-50 74.22,-43"/>
</a>
</g>
</g>
<!-- Node3 -->
<g id="Node000003" class="node">
<title>Node3</title>
<g id="a_Node000003"><a xlink:href="d2/df2/classrm_1_1RuneGroup.html" target="_top" xlink:title="神符序列组">
<polygon fill="white" stroke="#666666" points="195.5,-19 105.5,-19 105.5,0 195.5,0 195.5,-19"/>
<text text-anchor="middle" x="150.5" y="-7" font-family="Helvetica,sans-Serif" font-size="10.00">rm::RuneGroup</text>
</a>
</g>
</g>
<!-- Node0&#45;&gt;Node3 -->
<g id="edge22_Node000000_Node000003" class="edge">
<title>Node0&#45;&gt;Node3</title>
<g id="a_edge22_Node000000_Node000003"><a xlink:title=" ">
<path fill="none" stroke="#63b8ff" d="M72.68,-33.9C87.89,-29.07 105,-23.63 119.2,-19.12"/>
<polygon fill="#63b8ff" stroke="#63b8ff" points="71.47,-30.61 63,-36.97 73.59,-37.28 71.47,-30.61"/>
</a>
</g>
</g>
</g>
</svg>
