<?xml version="1.0" encoding="UTF-8" standalone="no"?>
<!DOCTYPE svg PUBLIC "-//W3C//DTD SVG 1.1//EN"
 "http://www.w3.org/Graphics/SVG/1.1/DTD/svg11.dtd">
<!-- Generated by graphviz version 2.43.0 (0)
 -->
<!-- Title: rm::async::StreamSocket Pages: 1 -->
<svg width="130pt" height="232pt"
 viewBox="0.00 0.00 130.00 232.00" xmlns="http://www.w3.org/2000/svg" xmlns:xlink="http://www.w3.org/1999/xlink">

<svg id="main" version="1.1" xmlns="http://www.w3.org/2000/svg" xmlns:xlink="http://www.w3.org/1999/xlink" xml:space="preserve">

<style type="text/css"><![CDATA[
.node, .edge {opacity: 0.7;}
.node.selected, .edge.selected {opacity: 1;}
.edge:hover path { stroke: red; }
.edge:hover polygon { stroke: red; fill: red; }
]]></style>
<script type="application/ecmascript" xlink:href="../../svg.min.js"/>
<svg id="graph" class="graph">
<g id="graph0" class="graph" transform="scale(1 1) rotate(0) translate(4 228)">
<title>rm::async::StreamSocket</title>
<!-- Node1 -->
<g id="Node000001" class="node">
<title>Node1</title>
<g id="a_Node000001"><a xlink:title="由 rm::async::Acceptor 建立的流式 Socket 异步会话">
<polygon fill="#999999" stroke="transparent" points="122,-64 0,-64 0,0 122,0 122,-64"/>
<text text-anchor="start" x="5" y="-52" font-family="Helvetica,sans-Serif" font-size="10.00">rm::async::StreamSocket</text>
<text text-anchor="start" x="59" y="-37" font-family="Helvetica,sans-Serif" font-size="10.00"> </text>
<text text-anchor="start" x="22.5" y="-22" font-family="Helvetica,sans-Serif" font-size="10.00">+</text>
<text text-anchor="start" x="52" y="-22" font-family="Helvetica,sans-Serif" font-size="10.00">read()</text>
<text text-anchor="start" x="22.5" y="-7" font-family="Helvetica,sans-Serif" font-size="10.00">+</text>
<text text-anchor="start" x="52" y="-7" font-family="Helvetica,sans-Serif" font-size="10.00">write()</text>
<polygon fill="#666666" stroke="#666666" points="0,-47 0,-47 122,-47 122,-47 0,-47"/>
<polygon fill="#666666" stroke="#666666" points="0,-32 0,-32 122,-32 122,-32 0,-32"/>
<polygon fill="none" stroke="#666666" points="0,0 0,-64 122,-64 122,0 0,0"/>
</a>
</g>
</g>
<!-- Node2 -->
<g id="Node000002" class="node">
<title>Node2</title>
<g id="a_Node000002"><a xlink:href="../../d8/df3/classrm_1_1StreamSocket.html" target="_top" xlink:title="由 rm::Acceptor 或 rm::Connector 建立的流式 Socket 会话">
<polygon fill="white" stroke="transparent" points="106,-224 16,-224 16,-100 106,-100 106,-224"/>
<text text-anchor="start" x="21" y="-212" font-family="Helvetica,sans-Serif" font-size="10.00">rm::StreamSocket</text>
<text text-anchor="start" x="26" y="-197" font-family="Helvetica,sans-Serif" font-size="10.00">#</text>
<text text-anchor="start" x="42" y="-197" font-family="Helvetica,sans-Serif" font-size="10.00">_fd</text>
<text text-anchor="start" x="25.5" y="-182" font-family="Helvetica,sans-Serif" font-size="10.00">+</text>
<text text-anchor="start" x="42" y="-182" font-family="Helvetica,sans-Serif" font-size="10.00">invalid()</text>
<text text-anchor="start" x="25.5" y="-167" font-family="Helvetica,sans-Serif" font-size="10.00">+</text>
<text text-anchor="start" x="42" y="-167" font-family="Helvetica,sans-Serif" font-size="10.00">setOption()</text>
<text text-anchor="start" x="25.5" y="-152" font-family="Helvetica,sans-Serif" font-size="10.00">+</text>
<text text-anchor="start" x="42" y="-152" font-family="Helvetica,sans-Serif" font-size="10.00">endpoint()</text>
<text text-anchor="start" x="25.5" y="-137" font-family="Helvetica,sans-Serif" font-size="10.00">+</text>
<text text-anchor="start" x="42" y="-137" font-family="Helvetica,sans-Serif" font-size="10.00">read()</text>
<text text-anchor="start" x="25.5" y="-122" font-family="Helvetica,sans-Serif" font-size="10.00">+</text>
<text text-anchor="start" x="42" y="-122" font-family="Helvetica,sans-Serif" font-size="10.00">write()</text>
<text text-anchor="start" x="25.5" y="-107" font-family="Helvetica,sans-Serif" font-size="10.00">+</text>
<text text-anchor="start" x="42" y="-107" font-family="Helvetica,sans-Serif" font-size="10.00">close()</text>
<polygon fill="#666666" stroke="#666666" points="16,-207 16,-207 106,-207 106,-207 16,-207"/>
<polygon fill="#666666" stroke="#666666" points="16,-192 16,-192 40,-192 40,-192 16,-192"/>
<polygon fill="#666666" stroke="#666666" points="40,-192 40,-192 106,-192 106,-192 40,-192"/>
<polygon fill="none" stroke="#666666" points="16,-100 16,-224 106,-224 106,-100 16,-100"/>
</a>
</g>
</g>
<!-- Node2&#45;&gt;Node1 -->
<g id="edge1_Node000001_Node000002" class="edge">
<title>Node2&#45;&gt;Node1</title>
<g id="a_edge1_Node000001_Node000002"><a xlink:title=" ">
<path fill="none" stroke="#63b8ff" d="M61,-89.86C61,-80.92 61,-72.17 61,-64.31"/>
<polygon fill="none" stroke="#63b8ff" points="57.5,-90 61,-100 64.5,-90 57.5,-90"/>
</a>
</g>
</g>
</g>
</svg>
</svg>

<style type='text/css'>
<![CDATA[
[data-mouse-over-selected='false'] { opacity: 0.7; }
[data-mouse-over-selected='true']  { opacity: 1.0; }
]]>
</style>
<script type="application/ecmascript"><![CDATA[
document.addEventListener('DOMContentLoaded', (event) => {
  highlightEdges();
  highlightAdjacentNodes();
});
]]></script>
</svg>
