<?xml version="1.0" encoding="UTF-8" standalone="no"?>
<!DOCTYPE svg PUBLIC "-//W3C//DTD SVG 1.1//EN"
 "http://www.w3.org/Graphics/SVG/1.1/DTD/svg11.dtd">
<!-- Generated by graphviz version 2.43.0 (0)
 -->
<!-- Title: rm::feature Pages: 1 -->
<svg width="780pt" height="487pt"
 viewBox="0.00 0.00 780.00 487.00" xmlns="http://www.w3.org/2000/svg" xmlns:xlink="http://www.w3.org/1999/xlink">
<g id="graph0" class="graph" transform="scale(1 1) rotate(0) translate(4 483)">
<title>rm::feature</title>
<!-- Node1 -->
<g id="Node000001" class="node">
<title>Node1</title>
<g id="a_Node000001"><a xlink:title="图像中的轮廓特征">
<polygon fill="#999999" stroke="transparent" points="158,-154 76,-154 76,0 158,0 158,-154"/>
<text text-anchor="start" x="89.5" y="-142" font-family="Helvetica,sans-Serif" font-size="10.00">rm::feature</text>
<text text-anchor="start" x="115" y="-127" font-family="Helvetica,sans-Serif" font-size="10.00"> </text>
<text text-anchor="start" x="80" y="-112" font-family="Helvetica,sans-Serif" font-size="10.00">+</text>
<text text-anchor="start" x="93" y="-112" font-family="Helvetica,sans-Serif" font-size="10.00">clone()</text>
<text text-anchor="start" x="80" y="-97" font-family="Helvetica,sans-Serif" font-size="10.00">+</text>
<text text-anchor="start" x="93" y="-97" font-family="Helvetica,sans-Serif" font-size="10.00">getArea()</text>
<text text-anchor="start" x="80" y="-82" font-family="Helvetica,sans-Serif" font-size="10.00">+</text>
<text text-anchor="start" x="93" y="-82" font-family="Helvetica,sans-Serif" font-size="10.00">getCenter()</text>
<text text-anchor="start" x="80" y="-67" font-family="Helvetica,sans-Serif" font-size="10.00">+</text>
<text text-anchor="start" x="93" y="-67" font-family="Helvetica,sans-Serif" font-size="10.00">getWidth()</text>
<text text-anchor="start" x="80" y="-52" font-family="Helvetica,sans-Serif" font-size="10.00">+</text>
<text text-anchor="start" x="93" y="-52" font-family="Helvetica,sans-Serif" font-size="10.00">getHeight()</text>
<text text-anchor="start" x="80" y="-37" font-family="Helvetica,sans-Serif" font-size="10.00">+</text>
<text text-anchor="start" x="93" y="-37" font-family="Helvetica,sans-Serif" font-size="10.00">getAngle()</text>
<text text-anchor="start" x="80" y="-22" font-family="Helvetica,sans-Serif" font-size="10.00">+</text>
<text text-anchor="start" x="93" y="-22" font-family="Helvetica,sans-Serif" font-size="10.00">getCorners()</text>
<text text-anchor="start" x="80" y="-7" font-family="Helvetica,sans-Serif" font-size="10.00">+</text>
<text text-anchor="start" x="93" y="-7" font-family="Helvetica,sans-Serif" font-size="10.00">getType()</text>
<polygon fill="#666666" stroke="#666666" points="76,-137 76,-137 158,-137 158,-137 76,-137"/>
<polygon fill="#666666" stroke="#666666" points="76,-122 76,-122 158,-122 158,-122 76,-122"/>
<polygon fill="none" stroke="#666666" points="76,0 76,-154 158,-154 158,0 76,0"/>
</a>
</g>
</g>
<!-- Node2 -->
<g id="Node000002" class="node">
<title>Node2</title>
<g id="a_Node000002"><a xlink:title=" ">
<polygon fill="white" stroke="transparent" points="32,-279.5 0,-279.5 0,-230.5 32,-230.5 32,-279.5"/>
<text text-anchor="start" x="5" y="-267" font-family="Helvetica,sans-Serif" font-size="10.00">float</text>
<text text-anchor="start" x="14" y="-252" font-family="Helvetica,sans-Serif" font-size="10.00"> </text>
<text text-anchor="start" x="14" y="-237" font-family="Helvetica,sans-Serif" font-size="10.00"> </text>
<polygon fill="#666666" stroke="#666666" points="0,-262 0,-262 32,-262 32,-262 0,-262"/>
<polygon fill="#666666" stroke="#666666" points="0,-247 0,-247 32,-247 32,-247 0,-247"/>
<polygon fill="none" stroke="#666666" points="0,-230.5 0,-279.5 32,-279.5 32,-230.5 0,-230.5"/>
</a>
</g>
</g>
<!-- Node2&#45;&gt;Node1 -->
<g id="edge1_Node000001_Node000002" class="edge">
<title>Node2&#45;&gt;Node1</title>
<g id="a_edge1_Node000001_Node000002"><a xlink:title=" ">
<path fill="none" stroke="#63b8ff" d="M11.53,-230.35C9.44,-213.39 8.92,-190.38 17,-172 27.46,-148.21 47.16,-127.63 66.33,-111.84"/>
<polygon fill="none" stroke="#63b8ff" points="66.53,-111.68 68.76,-104.83 75.95,-104.25 73.71,-111.11 66.53,-111.68"/>
</a>
</g>
<text text-anchor="middle" x="39.5" y="-197" font-family="Helvetica,sans-Serif" font-size="10.00" fill="grey"> #_angle</text>
<text text-anchor="middle" x="39.5" y="-186" font-family="Helvetica,sans-Serif" font-size="10.00" fill="grey">#_height</text>
<text text-anchor="middle" x="39.5" y="-175" font-family="Helvetica,sans-Serif" font-size="10.00" fill="grey">#_width</text>
</g>
<!-- Node3 -->
<g id="Node000003" class="node">
<title>Node3</title>
<g id="a_Node000003"><a xlink:title=" ">
<polygon fill="white" stroke="transparent" points="118.5,-383 73.5,-383 73.5,-334 118.5,-334 118.5,-383"/>
<text text-anchor="start" x="79" y="-370.5" font-family="Helvetica,sans-Serif" font-size="10.00">Point2f</text>
<text text-anchor="start" x="94.5" y="-355.5" font-family="Helvetica,sans-Serif" font-size="10.00"> </text>
<text text-anchor="start" x="94.5" y="-340.5" font-family="Helvetica,sans-Serif" font-size="10.00"> </text>
<polygon fill="#666666" stroke="#666666" points="74,-365.5 74,-365.5 119,-365.5 119,-365.5 74,-365.5"/>
<polygon fill="#666666" stroke="#666666" points="74,-350.5 74,-350.5 119,-350.5 119,-350.5 74,-350.5"/>
<polygon fill="none" stroke="#666666" points="73.5,-334 73.5,-383 118.5,-383 118.5,-334 73.5,-334"/>
</a>
</g>
</g>
<!-- Node3&#45;&gt;Node1 -->
<g id="edge2_Node000001_Node000003" class="edge">
<title>Node3&#45;&gt;Node1</title>
<g id="a_edge2_Node000001_Node000003"><a xlink:title=" ">
<path fill="none" stroke="#63b8ff" d="M91.36,-333.79C88.93,-320.16 86.22,-302.69 85,-287 82.8,-258.64 81.92,-251.28 85,-223 87.03,-204.41 90.47,-184.72 94.37,-166.04"/>
<polygon fill="none" stroke="#63b8ff" points="94.39,-165.97 91.74,-159.26 96.92,-154.24 99.56,-160.95 94.39,-165.97"/>
</a>
</g>
<text text-anchor="middle" x="109" y="-252.5" font-family="Helvetica,sans-Serif" font-size="10.00" fill="grey"> #_center</text>
</g>
<!-- Node4 -->
<g id="Node000004" class="node">
<title>Node4</title>
<g id="a_Node000004"><a xlink:title=" ">
<polygon fill="white" stroke="transparent" points="278,-279.5 142,-279.5 142,-230.5 278,-230.5 278,-279.5"/>
<text text-anchor="start" x="147" y="-267" font-family="Helvetica,sans-Serif" font-size="10.00">std::vector&lt; cv::Point2f &gt;</text>
<text text-anchor="start" x="208" y="-252" font-family="Helvetica,sans-Serif" font-size="10.00"> </text>
<text text-anchor="start" x="208" y="-237" font-family="Helvetica,sans-Serif" font-size="10.00"> </text>
<polygon fill="#666666" stroke="#666666" points="142,-262 142,-262 278,-262 278,-262 142,-262"/>
<polygon fill="#666666" stroke="#666666" points="142,-247 142,-247 278,-247 278,-247 142,-247"/>
<polygon fill="none" stroke="#666666" points="142,-230.5 142,-279.5 278,-279.5 278,-230.5 142,-230.5"/>
</a>
</g>
</g>
<!-- Node3&#45;&gt;Node4 -->
<g id="edge4_Node000004_Node000003" class="edge">
<title>Node3&#45;&gt;Node4</title>
<g id="a_edge4_Node000004_Node000003"><a xlink:title=" ">
<path fill="none" stroke="#63b8ff" d="M115.89,-333.85C124.2,-324.48 134.19,-313.86 144,-305 150.78,-298.88 158.29,-292.76 165.74,-287.02"/>
<polygon fill="none" stroke="#63b8ff" points="165.85,-286.94 168.24,-280.14 175.44,-279.73 173.05,-286.53 165.85,-286.94"/>
</a>
</g>
<text text-anchor="middle" x="173" y="-308" font-family="Helvetica,sans-Serif" font-size="10.00" fill="grey"> +elements</text>
</g>
<!-- Node4&#45;&gt;Node1 -->
<g id="edge3_Node000001_Node000004" class="edge">
<title>Node4&#45;&gt;Node1</title>
<g id="a_edge3_Node000001_Node000004"><a xlink:title=" ">
<path fill="none" stroke="#63b8ff" d="M197.46,-230.26C188.43,-213.18 175.65,-189 162.93,-164.92"/>
<polygon fill="none" stroke="#63b8ff" points="162.9,-164.87 156.56,-161.43 157.3,-154.26 163.64,-157.69 162.9,-164.87"/>
</a>
</g>
<text text-anchor="middle" x="209.5" y="-186" font-family="Helvetica,sans-Serif" font-size="10.00" fill="grey"> #_corners</text>
</g>
<!-- Node5 -->
<g id="Node000005" class="node">
<title>Node5</title>
<g id="a_Node000005"><a xlink:title=" ">
<polygon fill="white" stroke="transparent" points="247.5,-383 156.5,-383 156.5,-334 247.5,-334 247.5,-383"/>
<text text-anchor="start" x="162" y="-370.5" font-family="Helvetica,sans-Serif" font-size="10.00">std::vector&lt; T &gt;</text>
<text text-anchor="start" x="200.5" y="-355.5" font-family="Helvetica,sans-Serif" font-size="10.00"> </text>
<text text-anchor="start" x="200.5" y="-340.5" font-family="Helvetica,sans-Serif" font-size="10.00"> </text>
<polygon fill="#666666" stroke="#666666" points="157,-365.5 157,-365.5 248,-365.5 248,-365.5 157,-365.5"/>
<polygon fill="#666666" stroke="#666666" points="157,-350.5 157,-350.5 248,-350.5 248,-350.5 157,-350.5"/>
<polygon fill="none" stroke="#666666" points="156.5,-334 156.5,-383 247.5,-383 247.5,-334 156.5,-334"/>
</a>
</g>
</g>
<!-- Node5&#45;&gt;Node4 -->
<g id="edge5_Node000004_Node000005" class="edge">
<title>Node5&#45;&gt;Node4</title>
<g id="a_edge5_Node000004_Node000005"><a xlink:title=" ">
<path fill="none" stroke="orange" d="M204.65,-323.89C205.79,-309.45 207.09,-292.9 208.13,-279.77"/>
<polygon fill="orange" stroke="orange" points="201.15,-323.71 203.86,-333.96 208.13,-324.26 201.15,-323.71"/>
</a>
</g>
<text text-anchor="middle" x="244.5" y="-308" font-family="Helvetica,sans-Serif" font-size="10.00" fill="grey"> &lt; cv::Point2f &gt;</text>
</g>
<!-- Node6 -->
<g id="Node000006" class="node">
<title>Node6</title>
<g id="a_Node000006"><a xlink:title=" ">
<polygon fill="white" stroke="transparent" points="210.5,-479 193.5,-479 193.5,-430 210.5,-430 210.5,-479"/>
<text text-anchor="start" x="199" y="-466.5" font-family="Helvetica,sans-Serif" font-size="10.00">T</text>
<text text-anchor="start" x="200.5" y="-451.5" font-family="Helvetica,sans-Serif" font-size="10.00"> </text>
<text text-anchor="start" x="200.5" y="-436.5" font-family="Helvetica,sans-Serif" font-size="10.00"> </text>
<polygon fill="#666666" stroke="#666666" points="194,-461.5 194,-461.5 211,-461.5 211,-461.5 194,-461.5"/>
<polygon fill="#666666" stroke="#666666" points="194,-446.5 194,-446.5 211,-446.5 211,-446.5 194,-446.5"/>
<polygon fill="none" stroke="#666666" points="193.5,-430 193.5,-479 210.5,-479 210.5,-430 193.5,-430"/>
</a>
</g>
</g>
<!-- Node6&#45;&gt;Node5 -->
<g id="edge6_Node000005_Node000006" class="edge">
<title>Node6&#45;&gt;Node5</title>
<g id="a_edge6_Node000005_Node000006"><a xlink:title=" ">
<path fill="none" stroke="#63b8ff" d="M202,-429.78C202,-419.32 202,-406.79 202,-395.23"/>
<polygon fill="none" stroke="#63b8ff" points="202,-395.21 198,-389.21 202,-383.21 206,-389.21 202,-395.21"/>
</a>
</g>
<text text-anchor="middle" x="231" y="-404" font-family="Helvetica,sans-Serif" font-size="10.00" fill="grey"> +elements</text>
</g>
<!-- Node7 -->
<g id="Node000007" class="node">
<title>Node7</title>
<g id="a_Node000007"><a xlink:href="../../d0/d01/structrm_1_1RMStatus.html" target="_top" xlink:title="状态类型">
<polygon fill="white" stroke="transparent" points="509.5,-287 432.5,-287 432.5,-223 509.5,-223 509.5,-287"/>
<text text-anchor="start" x="438" y="-275" font-family="Helvetica,sans-Serif" font-size="10.00">rm::RMStatus</text>
<text text-anchor="start" x="469.5" y="-260" font-family="Helvetica,sans-Serif" font-size="10.00"> </text>
<text text-anchor="start" x="438" y="-245" font-family="Helvetica,sans-Serif" font-size="10.00">+</text>
<text text-anchor="start" x="452" y="-245" font-family="Helvetica,sans-Serif" font-size="10.00">to_string()</text>
<text text-anchor="start" x="438" y="-230" font-family="Helvetica,sans-Serif" font-size="10.00">+</text>
<text text-anchor="start" x="452" y="-230" font-family="Helvetica,sans-Serif" font-size="10.00">to_string()</text>
<polygon fill="#666666" stroke="#666666" points="433,-270 433,-270 510,-270 510,-270 433,-270"/>
<polygon fill="#666666" stroke="#666666" points="433,-255 433,-255 510,-255 510,-255 433,-255"/>
<polygon fill="none" stroke="#666666" points="432.5,-223 432.5,-287 509.5,-287 509.5,-223 432.5,-223"/>
</a>
</g>
</g>
<!-- Node7&#45;&gt;Node1 -->
<g id="edge7_Node000001_Node000007" class="edge">
<title>Node7&#45;&gt;Node1</title>
<g id="a_edge7_Node000001_Node000007"><a xlink:title=" ">
<path fill="none" stroke="#63b8ff" d="M432.44,-234.83C368.66,-203.12 241.09,-139.7 169.27,-103.99"/>
<polygon fill="none" stroke="#63b8ff" points="168.98,-103.84 161.83,-104.75 158.23,-98.5 165.39,-97.59 168.98,-103.84"/>
</a>
</g>
<text text-anchor="middle" x="386.5" y="-186" font-family="Helvetica,sans-Serif" font-size="10.00" fill="grey"> #_type</text>
</g>
<!-- Node8 -->
<g id="Node000008" class="node">
<title>Node8</title>
<g id="a_Node000008"><a xlink:title=" ">
<polygon fill="white" stroke="transparent" points="348.5,-383 265.5,-383 265.5,-334 348.5,-334 348.5,-383"/>
<text text-anchor="start" x="271" y="-370.5" font-family="Helvetica,sans-Serif" font-size="10.00">ArmorSizeType</text>
<text text-anchor="start" x="305.5" y="-355.5" font-family="Helvetica,sans-Serif" font-size="10.00"> </text>
<text text-anchor="start" x="305.5" y="-340.5" font-family="Helvetica,sans-Serif" font-size="10.00"> </text>
<polygon fill="#666666" stroke="#666666" points="266,-365.5 266,-365.5 349,-365.5 349,-365.5 266,-365.5"/>
<polygon fill="#666666" stroke="#666666" points="266,-350.5 266,-350.5 349,-350.5 349,-350.5 266,-350.5"/>
<polygon fill="none" stroke="#666666" points="265.5,-334 265.5,-383 348.5,-383 348.5,-334 265.5,-334"/>
</a>
</g>
</g>
<!-- Node8&#45;&gt;Node7 -->
<g id="edge8_Node000007_Node000008" class="edge">
<title>Node8&#45;&gt;Node7</title>
<g id="a_edge8_Node000007_Node000008"><a xlink:title=" ">
<path fill="none" stroke="#63b8ff" d="M309.85,-333.85C312.17,-323.82 316.38,-312.69 324,-305 349.42,-279.37 388.58,-267.14 420.09,-261.31"/>
<polygon fill="none" stroke="#63b8ff" points="420.34,-261.27 425.61,-256.35 432.18,-259.31 426.92,-264.24 420.34,-261.27"/>
</a>
</g>
<text text-anchor="middle" x="371.5" y="-308" font-family="Helvetica,sans-Serif" font-size="10.00" fill="grey"> +ArmorSizeTypeID</text>
</g>
<!-- Node9 -->
<g id="Node000009" class="node">
<title>Node9</title>
<g id="a_Node000009"><a xlink:title=" ">
<polygon fill="white" stroke="transparent" points="453,-383 395,-383 395,-334 453,-334 453,-383"/>
<text text-anchor="start" x="400" y="-370.5" font-family="Helvetica,sans-Serif" font-size="10.00">RuneType</text>
<text text-anchor="start" x="422" y="-355.5" font-family="Helvetica,sans-Serif" font-size="10.00"> </text>
<text text-anchor="start" x="422" y="-340.5" font-family="Helvetica,sans-Serif" font-size="10.00"> </text>
<polygon fill="#666666" stroke="#666666" points="395,-365.5 395,-365.5 453,-365.5 453,-365.5 395,-365.5"/>
<polygon fill="#666666" stroke="#666666" points="395,-350.5 395,-350.5 453,-350.5 453,-350.5 395,-350.5"/>
<polygon fill="none" stroke="#666666" points="395,-334 395,-383 453,-383 453,-334 395,-334"/>
</a>
</g>
</g>
<!-- Node9&#45;&gt;Node7 -->
<g id="edge9_Node000007_Node000009" class="edge">
<title>Node9&#45;&gt;Node7</title>
<g id="a_edge9_Node000007_Node000009"><a xlink:title=" ">
<path fill="none" stroke="#63b8ff" d="M421.46,-333.76C421.34,-324.48 422.32,-313.94 426,-305 427.09,-302.34 428.4,-299.74 429.87,-297.2"/>
<polygon fill="none" stroke="#63b8ff" points="429.93,-297.12 429.99,-289.91 436.68,-287.2 436.61,-294.41 429.93,-297.12"/>
</a>
</g>
<text text-anchor="middle" x="461" y="-308" font-family="Helvetica,sans-Serif" font-size="10.00" fill="grey"> +RuneTypeID</text>
</g>
<!-- Node10 -->
<g id="Node000010" class="node">
<title>Node10</title>
<g id="a_Node000010"><a xlink:title=" ">
<polygon fill="white" stroke="transparent" points="566.5,-383 471.5,-383 471.5,-334 566.5,-334 566.5,-383"/>
<text text-anchor="start" x="477" y="-370.5" font-family="Helvetica,sans-Serif" font-size="10.00">CompensateType</text>
<text text-anchor="start" x="517.5" y="-355.5" font-family="Helvetica,sans-Serif" font-size="10.00"> </text>
<text text-anchor="start" x="517.5" y="-340.5" font-family="Helvetica,sans-Serif" font-size="10.00"> </text>
<polygon fill="#666666" stroke="#666666" points="472,-365.5 472,-365.5 567,-365.5 567,-365.5 472,-365.5"/>
<polygon fill="#666666" stroke="#666666" points="472,-350.5 472,-350.5 567,-350.5 567,-350.5 472,-350.5"/>
<polygon fill="none" stroke="#666666" points="471.5,-334 471.5,-383 566.5,-383 566.5,-334 471.5,-334"/>
</a>
</g>
</g>
<!-- Node10&#45;&gt;Node7 -->
<g id="edge10_Node000007_Node000010" class="edge">
<title>Node10&#45;&gt;Node7</title>
<g id="a_edge10_Node000007_Node000010"><a xlink:title=" ">
<path fill="none" stroke="#63b8ff" d="M508.99,-333.85C505.06,-324.77 500.43,-314.35 496,-305 494.93,-302.74 493.82,-300.43 492.68,-298.11"/>
<polygon fill="none" stroke="#63b8ff" points="492.62,-297.98 486.37,-294.39 487.28,-287.23 493.53,-290.83 492.62,-297.98"/>
</a>
</g>
<text text-anchor="middle" x="553" y="-308" font-family="Helvetica,sans-Serif" font-size="10.00" fill="grey"> +CompensateTypeID</text>
</g>
<!-- Node11 -->
<g id="Node000011" class="node">
<title>Node11</title>
<g id="a_Node000011"><a xlink:title=" ">
<polygon fill="white" stroke="transparent" points="678,-383 616,-383 616,-334 678,-334 678,-383"/>
<text text-anchor="start" x="621" y="-370.5" font-family="Helvetica,sans-Serif" font-size="10.00">RobotType</text>
<text text-anchor="start" x="645" y="-355.5" font-family="Helvetica,sans-Serif" font-size="10.00"> </text>
<text text-anchor="start" x="645" y="-340.5" font-family="Helvetica,sans-Serif" font-size="10.00"> </text>
<polygon fill="#666666" stroke="#666666" points="616,-365.5 616,-365.5 678,-365.5 678,-365.5 616,-365.5"/>
<polygon fill="#666666" stroke="#666666" points="616,-350.5 616,-350.5 678,-350.5 678,-350.5 616,-350.5"/>
<polygon fill="none" stroke="#666666" points="616,-334 616,-383 678,-383 678,-334 616,-334"/>
</a>
</g>
</g>
<!-- Node11&#45;&gt;Node7 -->
<g id="edge11_Node000007_Node000011" class="edge">
<title>Node11&#45;&gt;Node7</title>
<g id="a_edge11_Node000007_Node000011"><a xlink:title=" ">
<path fill="none" stroke="#63b8ff" d="M634.67,-333.78C628.43,-323.72 620.05,-312.6 610,-305 584.14,-285.43 549.82,-273.22 521.75,-265.89"/>
<polygon fill="none" stroke="#63b8ff" points="521.4,-265.81 514.62,-268.26 509.74,-262.95 516.52,-260.49 521.4,-265.81"/>
</a>
</g>
<text text-anchor="middle" x="657.5" y="-308" font-family="Helvetica,sans-Serif" font-size="10.00" fill="grey"> +RobotTypeID</text>
</g>
<!-- Node12 -->
<g id="Node000012" class="node">
<title>Node12</title>
<g id="a_Node000012"><a xlink:title=" ">
<polygon fill="white" stroke="transparent" points="768,-383 718,-383 718,-334 768,-334 768,-383"/>
<text text-anchor="start" x="723" y="-370.5" font-family="Helvetica,sans-Serif" font-size="10.00">TagType</text>
<text text-anchor="start" x="741" y="-355.5" font-family="Helvetica,sans-Serif" font-size="10.00"> </text>
<text text-anchor="start" x="741" y="-340.5" font-family="Helvetica,sans-Serif" font-size="10.00"> </text>
<polygon fill="#666666" stroke="#666666" points="718,-365.5 718,-365.5 768,-365.5 768,-365.5 718,-365.5"/>
<polygon fill="#666666" stroke="#666666" points="718,-350.5 718,-350.5 768,-350.5 768,-350.5 718,-350.5"/>
<polygon fill="none" stroke="#666666" points="718,-334 718,-383 768,-383 768,-334 718,-334"/>
</a>
</g>
</g>
<!-- Node12&#45;&gt;Node7 -->
<g id="edge12_Node000007_Node000012" class="edge">
<title>Node12&#45;&gt;Node7</title>
<g id="a_edge12_Node000007_Node000012"><a xlink:title=" ">
<path fill="none" stroke="#63b8ff" d="M728.08,-333.96C720.32,-323.58 709.96,-312.13 698,-305 643.52,-272.53 570.28,-261.47 521.91,-257.76"/>
<polygon fill="none" stroke="#63b8ff" points="521.84,-257.75 515.59,-261.34 509.87,-256.95 516.13,-253.36 521.84,-257.75"/>
</a>
</g>
<text text-anchor="middle" x="741.5" y="-308" font-family="Helvetica,sans-Serif" font-size="10.00" fill="grey"> +TagTypeID</text>
</g>
</g>
</svg>
