<?xml version="1.0" encoding="UTF-8" standalone="no"?>
<!DOCTYPE svg PUBLIC "-//W3C//DTD SVG 1.1//EN"
 "http://www.w3.org/Graphics/SVG/1.1/DTD/svg11.dtd">
<!-- Generated by graphviz version 2.43.0 (0)
 -->
<!-- Title: rm::para::PlanarTrackerParam Pages: 1 -->
<svg width="491pt" height="204pt"
 viewBox="0.00 0.00 490.50 204.00" xmlns="http://www.w3.org/2000/svg" xmlns:xlink="http://www.w3.org/1999/xlink">
<g id="graph0" class="graph" transform="scale(1 1) rotate(0) translate(4 200)">
<title>rm::para::PlanarTrackerParam</title>
<!-- Node1 -->
<g id="Node000001" class="node">
<title>Node1</title>
<g id="a_Node000001"><a xlink:title="PlanarTrackerParam 参数模块">
<polygon fill="#999999" stroke="transparent" points="339.5,-79 197.5,-79 197.5,0 339.5,0 339.5,-79"/>
<text text-anchor="start" x="202.5" y="-66.5" font-family="Helvetica,sans-Serif" font-size="10.00">rm::para::PlanarTrackerParam</text>
<text text-anchor="start" x="266.5" y="-51.5" font-family="Helvetica,sans-Serif" font-size="10.00"> </text>
<text text-anchor="start" x="208" y="-36.5" font-family="Helvetica,sans-Serif" font-size="10.00">+</text>
<text text-anchor="start" x="225.5" y="-36.5" font-family="Helvetica,sans-Serif" font-size="10.00">PlanarTrackerParam()</text>
<text text-anchor="start" x="208" y="-21.5" font-family="Helvetica,sans-Serif" font-size="10.00">+</text>
<text text-anchor="start" x="225.5" y="-21.5" font-family="Helvetica,sans-Serif" font-size="10.00">read()</text>
<text text-anchor="start" x="208" y="-6.5" font-family="Helvetica,sans-Serif" font-size="10.00">+</text>
<text text-anchor="start" x="225.5" y="-6.5" font-family="Helvetica,sans-Serif" font-size="10.00">write()</text>
<polygon fill="#666666" stroke="#666666" points="197.5,-61.5 197.5,-61.5 339.5,-61.5 339.5,-61.5 197.5,-61.5"/>
<polygon fill="#666666" stroke="#666666" points="197.5,-46.5 197.5,-46.5 339.5,-46.5 339.5,-46.5 197.5,-46.5"/>
<polygon fill="none" stroke="#666666" points="197.5,0 197.5,-79 339.5,-79 339.5,0 197.5,0"/>
</a>
</g>
</g>
<!-- Node2 -->
<g id="Node000002" class="node">
<title>Node2</title>
<g id="a_Node000002"><a xlink:title=" ">
<polygon fill="white" stroke="transparent" points="45,-196 0,-196 0,-147 45,-147 45,-196"/>
<text text-anchor="start" x="5.5" y="-183.5" font-family="Helvetica,sans-Serif" font-size="10.00">uint32_t</text>
<text text-anchor="start" x="21" y="-168.5" font-family="Helvetica,sans-Serif" font-size="10.00"> </text>
<text text-anchor="start" x="21" y="-153.5" font-family="Helvetica,sans-Serif" font-size="10.00"> </text>
<polygon fill="#666666" stroke="#666666" points="0.5,-178.5 0.5,-178.5 45.5,-178.5 45.5,-178.5 0.5,-178.5"/>
<polygon fill="#666666" stroke="#666666" points="0.5,-163.5 0.5,-163.5 45.5,-163.5 45.5,-163.5 0.5,-163.5"/>
<polygon fill="none" stroke="#666666" points="0,-147 0,-196 45,-196 45,-147 0,-147"/>
</a>
</g>
</g>
<!-- Node2&#45;&gt;Node1 -->
<g id="edge1_Node000001_Node000002" class="edge">
<title>Node2&#45;&gt;Node1</title>
<g id="a_edge1_Node000001_Node000002"><a xlink:title=" ">
<path fill="none" stroke="#63b8ff" d="M24.01,-146.83C26.3,-130.64 31.9,-109.87 45.5,-97 65.84,-77.75 130.79,-62.64 185.39,-52.91"/>
<polygon fill="none" stroke="#63b8ff" points="185.4,-52.91 190.62,-47.94 197.22,-50.85 191.99,-55.82 185.4,-52.91"/>
</a>
</g>
<text text-anchor="start" x="48.5" y="-110" font-family="Helvetica,sans-Serif" font-size="10.00" fill="grey">+TRACK_FRAMES</text>
</g>
<!-- Node3 -->
<g id="Node000003" class="node">
<title>Node3</title>
<g id="a_Node000003"><a xlink:title=" ">
<polygon fill="white" stroke="transparent" points="159,-196 120,-196 120,-147 159,-147 159,-196"/>
<text text-anchor="start" x="125.5" y="-183.5" font-family="Helvetica,sans-Serif" font-size="10.00">double</text>
<text text-anchor="start" x="138" y="-168.5" font-family="Helvetica,sans-Serif" font-size="10.00"> </text>
<text text-anchor="start" x="138" y="-153.5" font-family="Helvetica,sans-Serif" font-size="10.00"> </text>
<polygon fill="#666666" stroke="#666666" points="120.5,-178.5 120.5,-178.5 159.5,-178.5 159.5,-178.5 120.5,-178.5"/>
<polygon fill="#666666" stroke="#666666" points="120.5,-163.5 120.5,-163.5 159.5,-163.5 159.5,-163.5 120.5,-163.5"/>
<polygon fill="none" stroke="#666666" points="120,-147 120,-196 159,-196 159,-147 120,-147"/>
</a>
</g>
</g>
<!-- Node3&#45;&gt;Node1 -->
<g id="edge2_Node000001_Node000003" class="edge">
<title>Node3&#45;&gt;Node1</title>
<g id="a_edge2_Node000001_Node000003"><a xlink:title=" ">
<path fill="none" stroke="#63b8ff" d="M140.69,-146.76C142.57,-131.16 147.22,-111.1 158.5,-97 166.27,-87.28 176.17,-79.07 186.82,-72.17"/>
<polygon fill="none" stroke="#63b8ff" points="186.92,-72.11 190.03,-65.6 197.23,-65.96 194.13,-72.47 186.92,-72.11"/>
</a>
</g>
<text text-anchor="start" x="161.5" y="-110" font-family="Helvetica,sans-Serif" font-size="10.00" fill="grey">+SAMPLE_INTERVAL</text>
</g>
<!-- Node4 -->
<g id="Node000004" class="node">
<title>Node4</title>
<g id="a_Node000004"><a xlink:title=" ">
<polygon fill="white" stroke="transparent" points="314.5,-196 222.5,-196 222.5,-147 314.5,-147 314.5,-196"/>
<text text-anchor="start" x="227.5" y="-183.5" font-family="Helvetica,sans-Serif" font-size="10.00">Matx&lt; float, 2, 2 &gt;</text>
<text text-anchor="start" x="266.5" y="-168.5" font-family="Helvetica,sans-Serif" font-size="10.00"> </text>
<text text-anchor="start" x="266.5" y="-153.5" font-family="Helvetica,sans-Serif" font-size="10.00"> </text>
<polygon fill="#666666" stroke="#666666" points="222.5,-178.5 222.5,-178.5 314.5,-178.5 314.5,-178.5 222.5,-178.5"/>
<polygon fill="#666666" stroke="#666666" points="222.5,-163.5 222.5,-163.5 314.5,-163.5 314.5,-163.5 222.5,-163.5"/>
<polygon fill="none" stroke="#666666" points="222.5,-147 222.5,-196 314.5,-196 314.5,-147 222.5,-147"/>
</a>
</g>
</g>
<!-- Node4&#45;&gt;Node1 -->
<g id="edge3_Node000001_Node000004" class="edge">
<title>Node4&#45;&gt;Node1</title>
<g id="a_edge3_Node000001_Node000004"><a xlink:title=" ">
<path fill="none" stroke="#63b8ff" d="M268.5,-146.96C268.5,-131.47 268.5,-110.6 268.5,-91.44"/>
<polygon fill="none" stroke="#63b8ff" points="268.5,-91.17 264.5,-85.17 268.5,-79.17 272.5,-85.17 268.5,-91.17"/>
</a>
</g>
<text text-anchor="start" x="272" y="-118" font-family="Helvetica,sans-Serif" font-size="10.00" fill="grey">+DIS_Q</text>
<text text-anchor="start" x="272" y="-103" font-family="Helvetica,sans-Serif" font-size="10.00" fill="grey">+MOTION_R</text>
</g>
<!-- Node5 -->
<g id="Node000005" class="node">
<title>Node5</title>
<g id="a_Node000005"><a xlink:title=" ">
<polygon fill="white" stroke="transparent" points="371,-196 342,-196 342,-147 371,-147 371,-196"/>
<text text-anchor="start" x="347.5" y="-183.5" font-family="Helvetica,sans-Serif" font-size="10.00">float</text>
<text text-anchor="start" x="355" y="-168.5" font-family="Helvetica,sans-Serif" font-size="10.00"> </text>
<text text-anchor="start" x="355" y="-153.5" font-family="Helvetica,sans-Serif" font-size="10.00"> </text>
<polygon fill="#666666" stroke="#666666" points="342.5,-178.5 342.5,-178.5 371.5,-178.5 371.5,-178.5 342.5,-178.5"/>
<polygon fill="#666666" stroke="#666666" points="342.5,-163.5 342.5,-163.5 371.5,-163.5 371.5,-163.5 342.5,-163.5"/>
<polygon fill="none" stroke="#666666" points="342,-147 342,-196 371,-196 371,-147 342,-147"/>
</a>
</g>
</g>
<!-- Node5&#45;&gt;Node1 -->
<g id="edge4_Node000001_Node000005" class="edge">
<title>Node5&#45;&gt;Node1</title>
<g id="a_edge4_Node000001_Node000005"><a xlink:title=" ">
<path fill="none" stroke="#63b8ff" d="M352.97,-146.86C349.89,-131.69 344.31,-112.07 334.5,-97 332.51,-93.94 330.3,-90.95 327.94,-88.05"/>
<polygon fill="none" stroke="#63b8ff" points="327.94,-88.04 320.96,-86.24 319.94,-79.1 326.92,-80.9 327.94,-88.04"/>
</a>
</g>
<text text-anchor="start" x="351" y="-110" font-family="Helvetica,sans-Serif" font-size="10.00" fill="grey">+DIS_R</text>
</g>
<!-- Node6 -->
<g id="Node000006" class="node">
<title>Node6</title>
<g id="a_Node000006"><a xlink:title=" ">
<polygon fill="white" stroke="transparent" points="481.5,-196 389.5,-196 389.5,-147 481.5,-147 481.5,-196"/>
<text text-anchor="start" x="394.5" y="-183.5" font-family="Helvetica,sans-Serif" font-size="10.00">Matx&lt; float, 4, 4 &gt;</text>
<text text-anchor="start" x="433.5" y="-168.5" font-family="Helvetica,sans-Serif" font-size="10.00"> </text>
<text text-anchor="start" x="433.5" y="-153.5" font-family="Helvetica,sans-Serif" font-size="10.00"> </text>
<polygon fill="#666666" stroke="#666666" points="389.5,-178.5 389.5,-178.5 481.5,-178.5 481.5,-178.5 389.5,-178.5"/>
<polygon fill="#666666" stroke="#666666" points="389.5,-163.5 389.5,-163.5 481.5,-163.5 481.5,-163.5 389.5,-163.5"/>
<polygon fill="none" stroke="#666666" points="389.5,-147 389.5,-196 481.5,-196 481.5,-147 389.5,-147"/>
</a>
</g>
</g>
<!-- Node6&#45;&gt;Node1 -->
<g id="edge5_Node000001_Node000006" class="edge">
<title>Node6&#45;&gt;Node1</title>
<g id="a_edge5_Node000001_Node000006"><a xlink:title=" ">
<path fill="none" stroke="#63b8ff" d="M426.87,-146.73C420.12,-130.92 409.37,-110.62 394.5,-97 381.79,-85.35 366.28,-75.79 350.54,-68.06"/>
<polygon fill="none" stroke="#63b8ff" points="350.53,-68.06 343.4,-69.16 339.65,-63 346.77,-61.9 350.53,-68.06"/>
</a>
</g>
<text text-anchor="start" x="421" y="-110" font-family="Helvetica,sans-Serif" font-size="10.00" fill="grey">+MOTION_Q</text>
</g>
</g>
</svg>
