<?xml version="1.0" encoding="UTF-8" standalone="no"?>
<!DOCTYPE svg PUBLIC "-//W3C//DTD SVG 1.1//EN"
 "http://www.w3.org/Graphics/SVG/1.1/DTD/svg11.dtd">
<!-- Generated by graphviz version 2.43.0 (0)
 -->
<!-- Title: rmvl/algorithm/math.hpp Pages: 1 -->
<svg width="1840pt" height="390pt"
 viewBox="0.00 0.00 1840.03 390.00" xmlns="http://www.w3.org/2000/svg" xmlns:xlink="http://www.w3.org/1999/xlink">
<g id="graph0" class="graph" transform="scale(1 1) rotate(0) translate(4 386)">
<title>rmvl/algorithm/math.hpp</title>
<!-- Node1 -->
<g id="Node000001" class="node">
<title>Node1</title>
<g id="a_Node000001"><a xlink:title="基础数学库">
<polygon fill="#999999" stroke="#666666" points="230.5,-382 108.5,-382 108.5,-363 230.5,-363 230.5,-382"/>
<text text-anchor="middle" x="169.5" y="-370" font-family="Helvetica,sans-Serif" font-size="10.00">rmvl/algorithm/math.hpp</text>
</a>
</g>
</g>
<!-- Node2 -->
<g id="Node000002" class="node">
<title>Node2</title>
<g id="a_Node000002"><a xlink:href="../../d1/d11/rmvl_2algorithm_8hpp.html" target="_top" xlink:title="数学、算法模块头文件">
<polygon fill="white" stroke="#666666" points="119,-272 22,-272 22,-253 119,-253 119,-272"/>
<text text-anchor="middle" x="70.5" y="-260" font-family="Helvetica,sans-Serif" font-size="10.00">rmvl/algorithm.hpp</text>
</a>
</g>
</g>
<!-- Node1&#45;&gt;Node2 -->
<g id="edge1_Node000001_Node000002" class="edge">
<title>Node1&#45;&gt;Node2</title>
<g id="a_edge1_Node000001_Node000002"><a xlink:title=" ">
<path fill="none" stroke="#63b8ff" d="M167.29,-352.58C164.87,-338.94 159.85,-320.76 149.5,-308 135.62,-290.88 113.29,-279.18 95.91,-272.09"/>
<polygon fill="#63b8ff" stroke="#63b8ff" points="163.87,-353.35 168.77,-362.75 170.8,-352.35 163.87,-353.35"/>
</a>
</g>
</g>
<!-- Node3 -->
<g id="Node000003" class="node">
<title>Node3</title>
<g id="a_Node000003"><a xlink:href="../../d6/deb/transform_8hpp.html" target="_top" xlink:title="坐标变换">
<polygon fill="white" stroke="#666666" points="141,-327 0,-327 0,-308 141,-308 141,-327"/>
<text text-anchor="middle" x="70.5" y="-315" font-family="Helvetica,sans-Serif" font-size="10.00">rmvl/algorithm/transform.hpp</text>
</a>
</g>
</g>
<!-- Node1&#45;&gt;Node3 -->
<g id="edge2_Node000001_Node000003" class="edge">
<title>Node1&#45;&gt;Node3</title>
<g id="a_edge2_Node000001_Node000003"><a xlink:title=" ">
<path fill="none" stroke="#63b8ff" d="M144.72,-358.23C126.56,-348.51 102.44,-335.6 86.7,-327.17"/>
<polygon fill="#63b8ff" stroke="#63b8ff" points="143.13,-361.35 153.59,-362.98 146.43,-355.18 143.13,-361.35"/>
</a>
</g>
</g>
<!-- Node4 -->
<g id="Node000004" class="node">
<title>Node4</title>
<g id="a_Node000004"><a xlink:href="../../d8/d36/combo_8h.html" target="_top" xlink:title="the combination of the features header file">
<polygon fill="white" stroke="#666666" points="361.5,-327 253.5,-327 253.5,-308 361.5,-308 361.5,-327"/>
<text text-anchor="middle" x="307.5" y="-315" font-family="Helvetica,sans-Serif" font-size="10.00">rmvl/combo/combo.h</text>
</a>
</g>
</g>
<!-- Node1&#45;&gt;Node4 -->
<g id="edge4_Node000001_Node000004" class="edge">
<title>Node1&#45;&gt;Node4</title>
<g id="a_edge4_Node000001_Node000004"><a xlink:title=" ">
<path fill="none" stroke="#63b8ff" d="M201.29,-359.29C226.87,-349.47 262.17,-335.91 284.92,-327.17"/>
<polygon fill="#63b8ff" stroke="#63b8ff" points="199.75,-356.13 191.67,-362.98 202.26,-362.67 199.75,-356.13"/>
</a>
</g>
</g>
<!-- Node3&#45;&gt;Node2 -->
<g id="edge3_Node000003_Node000002" class="edge">
<title>Node3&#45;&gt;Node2</title>
<g id="a_edge3_Node000003_Node000002"><a xlink:title=" ">
<path fill="none" stroke="#63b8ff" d="M70.5,-297.66C70.5,-288.93 70.5,-278.99 70.5,-272.09"/>
<polygon fill="#63b8ff" stroke="#63b8ff" points="67,-297.75 70.5,-307.75 74,-297.75 67,-297.75"/>
</a>
</g>
</g>
<!-- Node5 -->
<g id="Node000005" class="node">
<title>Node5</title>
<g id="a_Node000005"><a xlink:href="../../d1/dad/rmvl_2combo_8hpp.html" target="_top" xlink:title=" ">
<polygon fill="white" stroke="#666666" points="460.5,-272 374.5,-272 374.5,-253 460.5,-253 460.5,-272"/>
<text text-anchor="middle" x="417.5" y="-260" font-family="Helvetica,sans-Serif" font-size="10.00">rmvl/combo.hpp</text>
</a>
</g>
</g>
<!-- Node4&#45;&gt;Node5 -->
<g id="edge5_Node000004_Node000005" class="edge">
<title>Node4&#45;&gt;Node5</title>
<g id="a_edge5_Node000004_Node000005"><a xlink:title=" ">
<path fill="none" stroke="#63b8ff" d="M334.2,-303.63C354.47,-293.87 381.77,-280.71 399.51,-272.17"/>
<polygon fill="#63b8ff" stroke="#63b8ff" points="332.66,-300.49 325.17,-307.98 335.7,-306.8 332.66,-300.49"/>
</a>
</g>
</g>
<!-- Node6 -->
<g id="Node000006" class="node">
<title>Node6</title>
<g id="a_Node000006"><a xlink:href="../../dd/d92/combo_2armor_8h.html" target="_top" xlink:title="装甲板类头文件">
<polygon fill="white" stroke="#666666" points="240,-272 137,-272 137,-253 240,-253 240,-272"/>
<text text-anchor="middle" x="188.5" y="-260" font-family="Helvetica,sans-Serif" font-size="10.00">rmvl/combo/armor.h</text>
</a>
</g>
</g>
<!-- Node4&#45;&gt;Node6 -->
<g id="edge6_Node000004_Node000006" class="edge">
<title>Node4&#45;&gt;Node6</title>
<g id="a_edge6_Node000004_Node000006"><a xlink:title=" ">
<path fill="none" stroke="#63b8ff" d="M279.2,-303.9C257.22,-294.11 227.32,-280.79 207.97,-272.17"/>
<polygon fill="#63b8ff" stroke="#63b8ff" points="277.82,-307.11 288.38,-307.98 280.67,-300.72 277.82,-307.11"/>
</a>
</g>
</g>
<!-- Node12 -->
<g id="Node000012" class="node">
<title>Node12</title>
<g id="a_Node000012"><a xlink:href="../../de/de6/combo_2rune_8h.html" target="_top" xlink:title="神符类头文件">
<polygon fill="white" stroke="#666666" points="356.5,-272 258.5,-272 258.5,-253 356.5,-253 356.5,-272"/>
<text text-anchor="middle" x="307.5" y="-260" font-family="Helvetica,sans-Serif" font-size="10.00">rmvl/combo/rune.h</text>
</a>
</g>
</g>
<!-- Node4&#45;&gt;Node12 -->
<g id="edge12_Node000004_Node000012" class="edge">
<title>Node4&#45;&gt;Node12</title>
<g id="a_edge12_Node000004_Node000012"><a xlink:title=" ">
<path fill="none" stroke="#63b8ff" d="M307.5,-297.66C307.5,-288.93 307.5,-278.99 307.5,-272.09"/>
<polygon fill="#63b8ff" stroke="#63b8ff" points="304,-297.75 307.5,-307.75 311,-297.75 304,-297.75"/>
</a>
</g>
</g>
<!-- Node15 -->
<g id="Node000015" class="node">
<title>Node15</title>
<g id="a_Node000015"><a xlink:href="../../dc/ded/tracker_8h.html" target="_top" xlink:title="追踪器抽象头文件">
<polygon fill="white" stroke="#666666" points="588,-272 479,-272 479,-253 588,-253 588,-272"/>
<text text-anchor="middle" x="533.5" y="-260" font-family="Helvetica,sans-Serif" font-size="10.00">rmvl/tracker/tracker.h</text>
</a>
</g>
</g>
<!-- Node4&#45;&gt;Node15 -->
<g id="edge15_Node000004_Node000015" class="edge">
<title>Node4&#45;&gt;Node15</title>
<g id="a_edge15_Node000004_Node000015"><a xlink:title=" ">
<path fill="none" stroke="#63b8ff" d="M353.59,-305.69C395.94,-295.76 457.86,-281.24 496.9,-272.08"/>
<polygon fill="#63b8ff" stroke="#63b8ff" points="352.75,-302.29 343.81,-307.98 354.35,-309.11 352.75,-302.29"/>
</a>
</g>
</g>
<!-- Node7 -->
<g id="Node000007" class="node">
<title>Node7</title>
<g id="a_Node000007"><a xlink:href="../../d6/dd8/decider_2gyro__decider_8h.html" target="_top" xlink:title="装甲板模块决策器头文件">
<polygon fill="white" stroke="#666666" points="925.5,-24.5 789.5,-24.5 789.5,-5.5 925.5,-5.5 925.5,-24.5"/>
<text text-anchor="middle" x="857.5" y="-12.5" font-family="Helvetica,sans-Serif" font-size="10.00">rmvl/decider/gyro_decider.h</text>
</a>
</g>
</g>
<!-- Node6&#45;&gt;Node7 -->
<g id="edge7_Node000006_Node000007" class="edge">
<title>Node6&#45;&gt;Node7</title>
<g id="a_edge7_Node000006_Node000007"><a xlink:title=" ">
<path fill="none" stroke="#63b8ff" d="M139.58,-249.33C123.02,-242.63 106.26,-232.41 96.5,-217 60.61,-160.29 49.62,-114.98 95.5,-66 142.37,-15.95 611.1,-14.14 789.27,-15.29"/>
<polygon fill="#63b8ff" stroke="#63b8ff" points="138.66,-252.72 149.26,-252.88 141.08,-246.15 138.66,-252.72"/>
</a>
</g>
</g>
<!-- Node8 -->
<g id="Node000008" class="node">
<title>Node8</title>
<g id="a_Node000008"><a xlink:href="../../d7/de6/tracker_2gyro__tracker_8h.html" target="_top" xlink:title="装甲板追踪器头文件">
<polygon fill="white" stroke="#666666" points="355,-211.5 222,-211.5 222,-192.5 355,-192.5 355,-211.5"/>
<text text-anchor="middle" x="288.5" y="-199.5" font-family="Helvetica,sans-Serif" font-size="10.00">rmvl/tracker/gyro_tracker.h</text>
</a>
</g>
</g>
<!-- Node6&#45;&gt;Node8 -->
<g id="edge8_Node000006_Node000008" class="edge">
<title>Node6&#45;&gt;Node8</title>
<g id="a_edge8_Node000006_Node000008"><a xlink:title=" ">
<path fill="none" stroke="#63b8ff" d="M211.97,-247.77C231.06,-236.6 257.41,-221.19 273.68,-211.67"/>
<polygon fill="#63b8ff" stroke="#63b8ff" points="210.12,-244.8 203.26,-252.87 213.65,-250.84 210.12,-244.8"/>
</a>
</g>
</g>
<!-- Node10 -->
<g id="Node000010" class="node">
<title>Node10</title>
<g id="a_Node000010"><a xlink:href="../../d5/dea/tracker_2planar__tracker_8h.html" target="_top" xlink:title="平面目标追踪器头文件">
<polygon fill="white" stroke="#666666" points="203.5,-217 105.5,-217 105.5,-187 203.5,-187 203.5,-217"/>
<text text-anchor="start" x="113.5" y="-205" font-family="Helvetica,sans-Serif" font-size="10.00">rmvl/tracker/planar</text>
<text text-anchor="middle" x="154.5" y="-194" font-family="Helvetica,sans-Serif" font-size="10.00">_tracker.h</text>
</a>
</g>
</g>
<!-- Node6&#45;&gt;Node10 -->
<g id="edge10_Node000006_Node000010" class="edge">
<title>Node6&#45;&gt;Node10</title>
<g id="a_edge10_Node000006_Node000010"><a xlink:title=" ">
<path fill="none" stroke="#63b8ff" d="M178.36,-244.05C173.36,-235.45 167.41,-225.21 162.7,-217.11"/>
<polygon fill="#63b8ff" stroke="#63b8ff" points="175.43,-245.98 183.48,-252.87 181.48,-242.46 175.43,-245.98"/>
</a>
</g>
</g>
<!-- Node9 -->
<g id="Node000009" class="node">
<title>Node9</title>
<g id="a_Node000009"><a xlink:href="../../d1/d6b/detector_2gyro__detector_8h.html" target="_top" xlink:title="装甲板识别派生类头文件">
<polygon fill="white" stroke="#666666" points="319,-96 224,-96 224,-66 319,-66 319,-96"/>
<text text-anchor="start" x="232" y="-84" font-family="Helvetica,sans-Serif" font-size="10.00">rmvl/detector/gyro</text>
<text text-anchor="middle" x="271.5" y="-73" font-family="Helvetica,sans-Serif" font-size="10.00">_detector.h</text>
</a>
</g>
</g>
<!-- Node8&#45;&gt;Node9 -->
<g id="edge9_Node000008_Node000009" class="edge">
<title>Node8&#45;&gt;Node9</title>
<g id="a_edge9_Node000008_Node000009"><a xlink:title=" ">
<path fill="none" stroke="#63b8ff" d="M285.82,-182.23C282.41,-158.35 276.59,-117.65 273.53,-96.2"/>
<polygon fill="#63b8ff" stroke="#63b8ff" points="282.4,-183.04 287.28,-192.44 289.33,-182.05 282.4,-183.04"/>
</a>
</g>
</g>
<!-- Node11 -->
<g id="Node000011" class="node">
<title>Node11</title>
<g id="a_Node000011"><a xlink:href="../../da/d95/detector_2armor__detector_8h.html" target="_top" xlink:title="装甲板识别派生类头文件">
<polygon fill="white" stroke="#666666" points="206,-96 105,-96 105,-66 206,-66 206,-96"/>
<text text-anchor="start" x="113" y="-84" font-family="Helvetica,sans-Serif" font-size="10.00">rmvl/detector/armor</text>
<text text-anchor="middle" x="155.5" y="-73" font-family="Helvetica,sans-Serif" font-size="10.00">_detector.h</text>
</a>
</g>
</g>
<!-- Node10&#45;&gt;Node11 -->
<g id="edge11_Node000010_Node000011" class="edge">
<title>Node10&#45;&gt;Node11</title>
<g id="a_edge11_Node000010_Node000011"><a xlink:title=" ">
<path fill="none" stroke="#63b8ff" d="M154.7,-176.69C154.91,-152.42 155.21,-115.95 155.38,-96.1"/>
<polygon fill="#63b8ff" stroke="#63b8ff" points="151.2,-176.85 154.62,-186.88 158.2,-176.91 151.2,-176.85"/>
</a>
</g>
</g>
<!-- Node13 -->
<g id="Node000013" class="node">
<title>Node13</title>
<g id="a_Node000013"><a xlink:href="../../dd/d0a/tracker_2rune__tracker_8h.html" target="_top" xlink:title="神符追踪器头文件">
<polygon fill="white" stroke="#666666" points="506,-211.5 373,-211.5 373,-192.5 506,-192.5 506,-211.5"/>
<text text-anchor="middle" x="439.5" y="-199.5" font-family="Helvetica,sans-Serif" font-size="10.00">rmvl/tracker/rune_tracker.h</text>
</a>
</g>
</g>
<!-- Node12&#45;&gt;Node13 -->
<g id="edge13_Node000012_Node000013" class="edge">
<title>Node12&#45;&gt;Node13</title>
<g id="a_edge13_Node000012_Node000013"><a xlink:title=" ">
<path fill="none" stroke="#63b8ff" d="M335.86,-248.93C361.34,-237.64 398.08,-221.36 420.28,-211.52"/>
<polygon fill="#63b8ff" stroke="#63b8ff" points="334.42,-245.74 326.69,-252.99 337.25,-252.14 334.42,-245.74"/>
</a>
</g>
</g>
<!-- Node14 -->
<g id="Node000014" class="node">
<title>Node14</title>
<g id="a_Node000014"><a xlink:href="../../db/dcc/detector_2rune__detector_8h.html" target="_top" xlink:title="神符识别派生类头文件">
<polygon fill="white" stroke="#666666" points="432,-96 337,-96 337,-66 432,-66 432,-96"/>
<text text-anchor="start" x="345" y="-84" font-family="Helvetica,sans-Serif" font-size="10.00">rmvl/detector/rune</text>
<text text-anchor="middle" x="384.5" y="-73" font-family="Helvetica,sans-Serif" font-size="10.00">_detector.h</text>
</a>
</g>
</g>
<!-- Node13&#45;&gt;Node14 -->
<g id="edge14_Node000013_Node000014" class="edge">
<title>Node13&#45;&gt;Node14</title>
<g id="a_edge14_Node000013_Node000014"><a xlink:title=" ">
<path fill="none" stroke="#63b8ff" d="M431.27,-183.2C420.3,-159.47 401.11,-117.95 391.06,-96.2"/>
<polygon fill="#63b8ff" stroke="#63b8ff" points="428.17,-184.83 435.54,-192.44 434.53,-181.9 428.17,-184.83"/>
</a>
</g>
</g>
<!-- Node15&#45;&gt;Node7 -->
<g id="edge16_Node000015_Node000007" class="edge">
<title>Node15&#45;&gt;Node7</title>
<g id="a_edge16_Node000015_Node000007"><a xlink:title=" ">
<path fill="none" stroke="#63b8ff" d="M598.24,-260.75C770.13,-257.53 1251.39,-240.54 1639.5,-151 1723.5,-131.62 1773.91,-165.06 1825.5,-96 1833.48,-85.32 1834.74,-75.62 1825.5,-66 1791.18,-30.27 983.74,-35.44 934.5,-30 922.75,-28.7 910.09,-26.67 898.5,-24.55"/>
<polygon fill="#63b8ff" stroke="#63b8ff" points="598.03,-257.25 588.1,-260.93 598.16,-264.25 598.03,-257.25"/>
</a>
</g>
</g>
<!-- Node15&#45;&gt;Node8 -->
<g id="edge45_Node000015_Node000008" class="edge">
<title>Node15&#45;&gt;Node8</title>
<g id="a_edge45_Node000015_Node000008"><a xlink:title=" ">
<path fill="none" stroke="#63b8ff" d="M487.89,-250.61C440.54,-239.3 367.46,-221.85 324.17,-211.52"/>
<polygon fill="#63b8ff" stroke="#63b8ff" points="487.34,-254.08 497.87,-252.99 488.96,-247.27 487.34,-254.08"/>
</a>
</g>
</g>
<!-- Node15&#45;&gt;Node10 -->
<g id="edge46_Node000015_Node000010" class="edge">
<title>Node15&#45;&gt;Node10</title>
<g id="a_edge46_Node000015_Node000010"><a xlink:title=" ">
<path fill="none" stroke="#63b8ff" d="M468.69,-252.87C382.21,-241.29 237.06,-221.65 212.5,-217 209.65,-216.46 206.73,-215.87 203.79,-215.25"/>
<polygon fill="#63b8ff" stroke="#63b8ff" points="468.3,-256.35 478.68,-254.2 469.23,-249.41 468.3,-256.35"/>
</a>
</g>
</g>
<!-- Node15&#45;&gt;Node13 -->
<g id="edge47_Node000015_Node000013" class="edge">
<title>Node15&#45;&gt;Node13</title>
<g id="a_edge47_Node000015_Node000013"><a xlink:title=" ">
<path fill="none" stroke="#63b8ff" d="M510.95,-247.47C493.05,-236.32 468.58,-221.1 453.43,-211.67"/>
<polygon fill="#63b8ff" stroke="#63b8ff" points="509.29,-250.56 519.63,-252.87 512.99,-244.61 509.29,-250.56"/>
</a>
</g>
</g>
<!-- Node16 -->
<g id="Node000016" class="node">
<title>Node16</title>
<g id="a_Node000016"><a xlink:href="../../d9/dd1/group_8h.html" target="_top" xlink:title="序列组抽象头文件">
<polygon fill="white" stroke="#666666" points="1236.5,-211.5 1138.5,-211.5 1138.5,-192.5 1236.5,-192.5 1236.5,-211.5"/>
<text text-anchor="middle" x="1187.5" y="-199.5" font-family="Helvetica,sans-Serif" font-size="10.00">rmvl/group/group.h</text>
</a>
</g>
</g>
<!-- Node15&#45;&gt;Node16 -->
<g id="edge17_Node000015_Node000016" class="edge">
<title>Node15&#45;&gt;Node16</title>
<g id="a_edge17_Node000015_Node000016"><a xlink:title=" ">
<path fill="none" stroke="#63b8ff" d="M598.4,-255.69C729.22,-243.99 1022.02,-217.8 1138.42,-207.39"/>
<polygon fill="#63b8ff" stroke="#63b8ff" points="597.78,-252.24 588.13,-256.61 598.41,-259.21 597.78,-252.24"/>
</a>
</g>
</g>
<!-- Node37 -->
<g id="Node000037" class="node">
<title>Node37</title>
<g id="a_Node000037"><a xlink:href="../../dc/d2d/rmvl_2tracker_8hpp.html" target="_top" xlink:title=" ">
<polygon fill="white" stroke="#666666" points="610.5,-211.5 524.5,-211.5 524.5,-192.5 610.5,-192.5 610.5,-211.5"/>
<text text-anchor="middle" x="567.5" y="-199.5" font-family="Helvetica,sans-Serif" font-size="10.00">rmvl/tracker.hpp</text>
</a>
</g>
</g>
<!-- Node15&#45;&gt;Node37 -->
<g id="edge44_Node000015_Node000037" class="edge">
<title>Node15&#45;&gt;Node37</title>
<g id="a_edge44_Node000015_Node000037"><a xlink:title=" ">
<path fill="none" stroke="#63b8ff" d="M543.68,-243.98C549.88,-233.31 557.53,-220.15 562.46,-211.67"/>
<polygon fill="#63b8ff" stroke="#63b8ff" points="540.52,-242.46 538.52,-252.87 546.57,-245.98 540.52,-242.46"/>
</a>
</g>
</g>
<!-- Node17 -->
<g id="Node000017" class="node">
<title>Node17</title>
<g id="a_Node000017"><a xlink:href="../../d9/df2/compensator_8h.html" target="_top" xlink:title="抽象补偿类头文件">
<polygon fill="white" stroke="#666666" points="1108,-151 947,-151 947,-132 1108,-132 1108,-151"/>
<text text-anchor="middle" x="1027.5" y="-139" font-family="Helvetica,sans-Serif" font-size="10.00">rmvl/compensator/compensator.h</text>
</a>
</g>
</g>
<!-- Node16&#45;&gt;Node17 -->
<g id="edge18_Node000016_Node000017" class="edge">
<title>Node16&#45;&gt;Node17</title>
<g id="a_edge18_Node000016_Node000017"><a xlink:title=" ">
<path fill="none" stroke="#63b8ff" d="M1154.75,-189.02C1123.81,-177.71 1078.18,-161.03 1050.79,-151.02"/>
<polygon fill="#63b8ff" stroke="#63b8ff" points="1153.64,-192.35 1164.23,-192.49 1156.04,-185.77 1153.64,-192.35"/>
</a>
</g>
</g>
<!-- Node25 -->
<g id="Node000025" class="node">
<title>Node25</title>
<g id="a_Node000025"><a xlink:href="../../d5/d9f/detector_8h.html" target="_top" xlink:title="抽象识别类头文件">
<polygon fill="white" stroke="#666666" points="556,-151 437,-151 437,-132 556,-132 556,-151"/>
<text text-anchor="middle" x="496.5" y="-139" font-family="Helvetica,sans-Serif" font-size="10.00">rmvl/detector/detector.h</text>
</a>
</g>
</g>
<!-- Node16&#45;&gt;Node25 -->
<g id="edge27_Node000016_Node000025" class="edge">
<title>Node16&#45;&gt;Node25</title>
<g id="a_edge27_Node000016_Node000025"><a xlink:title=" ">
<path fill="none" stroke="#63b8ff" d="M1128.16,-195.98C997.69,-184.93 687.08,-158.63 556.24,-147.56"/>
<polygon fill="#63b8ff" stroke="#63b8ff" points="1128.1,-199.48 1138.36,-196.84 1128.69,-192.51 1128.1,-199.48"/>
</a>
</g>
</g>
<!-- Node28 -->
<g id="Node000028" class="node">
<title>Node28</title>
<g id="a_Node000028"><a xlink:href="../../db/d4f/rmvl_2group_8hpp.html" target="_top" xlink:title=" ">
<polygon fill="white" stroke="#666666" points="1490,-151 1409,-151 1409,-132 1490,-132 1490,-151"/>
<text text-anchor="middle" x="1449.5" y="-139" font-family="Helvetica,sans-Serif" font-size="10.00">rmvl/group.hpp</text>
</a>
</g>
</g>
<!-- Node16&#45;&gt;Node28 -->
<g id="edge34_Node000016_Node000028" class="edge">
<title>Node16&#45;&gt;Node28</title>
<g id="a_edge34_Node000016_Node000028"><a xlink:title=" ">
<path fill="none" stroke="#63b8ff" d="M1235.64,-190.25C1286.25,-178.95 1364.86,-161.4 1411.36,-151.02"/>
<polygon fill="#63b8ff" stroke="#63b8ff" points="1234.59,-186.9 1225.6,-192.49 1236.12,-193.73 1234.59,-186.9"/>
</a>
</g>
</g>
<!-- Node29 -->
<g id="Node000029" class="node">
<title>Node29</title>
<g id="a_Node000029"><a xlink:href="../../d3/df0/group_2gyro__group_8h.html" target="_top" xlink:title="装甲序列组头文件">
<polygon fill="white" stroke="#666666" points="1630.5,-151 1508.5,-151 1508.5,-132 1630.5,-132 1630.5,-151"/>
<text text-anchor="middle" x="1569.5" y="-139" font-family="Helvetica,sans-Serif" font-size="10.00">rmvl/group/gyro_group.h</text>
</a>
</g>
</g>
<!-- Node16&#45;&gt;Node29 -->
<g id="edge35_Node000016_Node000029" class="edge">
<title>Node16&#45;&gt;Node29</title>
<g id="a_edge35_Node000016_Node000029"><a xlink:title=" ">
<path fill="none" stroke="#63b8ff" d="M1246.6,-191.95C1319.47,-180.79 1442.41,-161.96 1513.72,-151.04"/>
<polygon fill="#63b8ff" stroke="#63b8ff" points="1246.01,-188.5 1236.66,-193.47 1247.07,-195.42 1246.01,-188.5"/>
</a>
</g>
</g>
<!-- Node30 -->
<g id="Node000030" class="node">
<title>Node30</title>
<g id="a_Node000030"><a xlink:href="../../d8/df3/group_2rune__group_8h.html" target="_top" xlink:title="神符序列组头文件">
<polygon fill="white" stroke="#666666" points="1248.5,-151 1126.5,-151 1126.5,-132 1248.5,-132 1248.5,-151"/>
<text text-anchor="middle" x="1187.5" y="-139" font-family="Helvetica,sans-Serif" font-size="10.00">rmvl/group/rune_group.h</text>
</a>
</g>
</g>
<!-- Node16&#45;&gt;Node30 -->
<g id="edge36_Node000016_Node000030" class="edge">
<title>Node16&#45;&gt;Node30</title>
<g id="a_edge36_Node000016_Node000030"><a xlink:title=" ">
<path fill="none" stroke="#63b8ff" d="M1187.5,-182.16C1187.5,-171.74 1187.5,-159.3 1187.5,-151.17"/>
<polygon fill="#63b8ff" stroke="#63b8ff" points="1184,-182.37 1187.5,-192.37 1191,-182.37 1184,-182.37"/>
</a>
</g>
</g>
<!-- Node31 -->
<g id="Node000031" class="node">
<title>Node31</title>
<g id="a_Node000031"><a xlink:href="../../dc/d08/predictor_8h.html" target="_top" xlink:title="抽象预测类头文件">
<polygon fill="white" stroke="#666666" points="1390.5,-151 1266.5,-151 1266.5,-132 1390.5,-132 1390.5,-151"/>
<text text-anchor="middle" x="1328.5" y="-139" font-family="Helvetica,sans-Serif" font-size="10.00">rmvl/predictor/predictor.h</text>
</a>
</g>
</g>
<!-- Node16&#45;&gt;Node31 -->
<g id="edge37_Node000016_Node000031" class="edge">
<title>Node16&#45;&gt;Node31</title>
<g id="a_edge37_Node000016_Node000031"><a xlink:title=" ">
<path fill="none" stroke="#63b8ff" d="M1217.43,-188.58C1244.67,-177.28 1284.15,-160.9 1307.97,-151.02"/>
<polygon fill="#63b8ff" stroke="#63b8ff" points="1215.9,-185.43 1208,-192.49 1218.58,-191.89 1215.9,-185.43"/>
</a>
</g>
</g>
<!-- Node18 -->
<g id="Node000018" class="node">
<title>Node18</title>
<g id="a_Node000018"><a xlink:href="../../d6/ddf/rmvl_2compensator_8hpp.html" target="_top" xlink:title=" ">
<polygon fill="white" stroke="#666666" points="1240,-90.5 1127,-90.5 1127,-71.5 1240,-71.5 1240,-90.5"/>
<text text-anchor="middle" x="1183.5" y="-78.5" font-family="Helvetica,sans-Serif" font-size="10.00">rmvl/compensator.hpp</text>
</a>
</g>
</g>
<!-- Node17&#45;&gt;Node18 -->
<g id="edge19_Node000017_Node000018" class="edge">
<title>Node17&#45;&gt;Node18</title>
<g id="a_edge19_Node000017_Node000018"><a xlink:title=" ">
<path fill="none" stroke="#63b8ff" d="M1059.83,-128.38C1089.98,-117.07 1134.2,-100.49 1160.79,-90.52"/>
<polygon fill="#63b8ff" stroke="#63b8ff" points="1058.32,-125.21 1050.18,-131.99 1060.78,-131.76 1058.32,-125.21"/>
</a>
</g>
</g>
<!-- Node19 -->
<g id="Node000019" class="node">
<title>Node19</title>
<g id="a_Node000019"><a xlink:href="../../d1/d91/compensator_2gravity__compensator_8h.html" target="_top" xlink:title="重力模型补偿头文件">
<polygon fill="white" stroke="#666666" points="844,-96 717,-96 717,-66 844,-66 844,-96"/>
<text text-anchor="start" x="725" y="-84" font-family="Helvetica,sans-Serif" font-size="10.00">rmvl/compensator/gravity</text>
<text text-anchor="middle" x="780.5" y="-73" font-family="Helvetica,sans-Serif" font-size="10.00">_compensator.h</text>
</a>
</g>
</g>
<!-- Node17&#45;&gt;Node19 -->
<g id="edge20_Node000017_Node000019" class="edge">
<title>Node17&#45;&gt;Node19</title>
<g id="a_edge20_Node000017_Node000019"><a xlink:title=" ">
<path fill="none" stroke="#63b8ff" d="M981.83,-129.68C941.85,-120.21 883.49,-106.39 839.88,-96.06"/>
<polygon fill="#63b8ff" stroke="#63b8ff" points="981.05,-133.09 991.58,-131.99 982.66,-126.28 981.05,-133.09"/>
</a>
</g>
</g>
<!-- Node20 -->
<g id="Node000020" class="node">
<title>Node20</title>
<g id="a_Node000020"><a xlink:href="../../d5/d90/compensator_2gyro__compensator_8h.html" target="_top" xlink:title="整车状态补偿模块接口声明">
<polygon fill="white" stroke="#666666" points="978.5,-96 862.5,-96 862.5,-66 978.5,-66 978.5,-96"/>
<text text-anchor="start" x="870.5" y="-84" font-family="Helvetica,sans-Serif" font-size="10.00">rmvl/compensator/gyro</text>
<text text-anchor="middle" x="920.5" y="-73" font-family="Helvetica,sans-Serif" font-size="10.00">_compensator.h</text>
</a>
</g>
</g>
<!-- Node17&#45;&gt;Node20 -->
<g id="edge21_Node000017_Node000020" class="edge">
<title>Node17&#45;&gt;Node20</title>
<g id="a_edge21_Node000017_Node000020"><a xlink:title=" ">
<path fill="none" stroke="#63b8ff" d="M1002.47,-126.81C985.58,-117.58 963.36,-105.43 946.32,-96.11"/>
<polygon fill="#63b8ff" stroke="#63b8ff" points="1001.26,-130.14 1011.71,-131.87 1004.62,-124 1001.26,-130.14"/>
</a>
</g>
</g>
<!-- Node21 -->
<g id="Node000021" class="node">
<title>Node21</title>
<g id="a_Node000021"><a xlink:href="../../d3/d70/decider_8h.html" target="_top" xlink:title="抽象决策类头文件">
<polygon fill="white" stroke="#666666" points="1108.5,-90.5 996.5,-90.5 996.5,-71.5 1108.5,-71.5 1108.5,-90.5"/>
<text text-anchor="middle" x="1052.5" y="-78.5" font-family="Helvetica,sans-Serif" font-size="10.00">rmvl/decider/decider.h</text>
</a>
</g>
</g>
<!-- Node17&#45;&gt;Node21 -->
<g id="edge22_Node000017_Node000021" class="edge">
<title>Node17&#45;&gt;Node21</title>
<g id="a_edge22_Node000017_Node000021"><a xlink:title=" ">
<path fill="none" stroke="#63b8ff" d="M1035.13,-122.65C1039.66,-112.04 1045.21,-99.06 1048.8,-90.67"/>
<polygon fill="#63b8ff" stroke="#63b8ff" points="1031.9,-121.3 1031.19,-131.87 1038.34,-124.05 1031.9,-121.3"/>
</a>
</g>
</g>
<!-- Node21&#45;&gt;Node7 -->
<g id="edge24_Node000021_Node000007" class="edge">
<title>Node21&#45;&gt;Node7</title>
<g id="a_edge24_Node000021_Node000007"><a xlink:title=" ">
<path fill="none" stroke="#63b8ff" d="M1016.43,-68.16C977.94,-55.53 917.9,-35.82 883.69,-24.6"/>
<polygon fill="#63b8ff" stroke="#63b8ff" points="1015.61,-71.58 1026.2,-71.37 1017.79,-64.92 1015.61,-71.58"/>
</a>
</g>
</g>
<!-- Node22 -->
<g id="Node000022" class="node">
<title>Node22</title>
<g id="a_Node000022"><a xlink:href="../../de/d18/rmvl_2decider_8hpp.html" target="_top" xlink:title=" ">
<polygon fill="white" stroke="#666666" points="1031.5,-24.5 943.5,-24.5 943.5,-5.5 1031.5,-5.5 1031.5,-24.5"/>
<text text-anchor="middle" x="987.5" y="-12.5" font-family="Helvetica,sans-Serif" font-size="10.00">rmvl/decider.hpp</text>
</a>
</g>
</g>
<!-- Node21&#45;&gt;Node22 -->
<g id="edge23_Node000021_Node000022" class="edge">
<title>Node21&#45;&gt;Node22</title>
<g id="a_edge23_Node000021_Node000022"><a xlink:title=" ">
<path fill="none" stroke="#63b8ff" d="M1036.58,-64.33C1024,-51.94 1006.88,-35.09 996.54,-24.91"/>
<polygon fill="#63b8ff" stroke="#63b8ff" points="1034.15,-66.85 1043.73,-71.37 1039.06,-61.86 1034.15,-66.85"/>
</a>
</g>
</g>
<!-- Node23 -->
<g id="Node000023" class="node">
<title>Node23</title>
<g id="a_Node000023"><a xlink:href="../../dd/d03/decider_2rune__decider_8h.html" target="_top" xlink:title="神符模块决策器头文件">
<polygon fill="white" stroke="#666666" points="1185.5,-24.5 1049.5,-24.5 1049.5,-5.5 1185.5,-5.5 1185.5,-24.5"/>
<text text-anchor="middle" x="1117.5" y="-12.5" font-family="Helvetica,sans-Serif" font-size="10.00">rmvl/decider/rune_decider.h</text>
</a>
</g>
</g>
<!-- Node21&#45;&gt;Node23 -->
<g id="edge25_Node000021_Node000023" class="edge">
<title>Node21&#45;&gt;Node23</title>
<g id="a_edge25_Node000021_Node000023"><a xlink:title=" ">
<path fill="none" stroke="#63b8ff" d="M1068.42,-64.33C1081,-51.94 1098.12,-35.09 1108.46,-24.91"/>
<polygon fill="#63b8ff" stroke="#63b8ff" points="1065.94,-61.86 1061.27,-71.37 1070.85,-66.85 1065.94,-61.86"/>
</a>
</g>
</g>
<!-- Node24 -->
<g id="Node000024" class="node">
<title>Node24</title>
<g id="a_Node000024"><a xlink:href="../../de/d06/decider_2translation__decider_8h.html" target="_top" xlink:title="平移目标决策器头文件">
<polygon fill="white" stroke="#666666" points="1321.5,-30 1203.5,-30 1203.5,0 1321.5,0 1321.5,-30"/>
<text text-anchor="start" x="1211.5" y="-18" font-family="Helvetica,sans-Serif" font-size="10.00">rmvl/decider/translation</text>
<text text-anchor="middle" x="1262.5" y="-7" font-family="Helvetica,sans-Serif" font-size="10.00">_decider.h</text>
</a>
</g>
</g>
<!-- Node21&#45;&gt;Node24 -->
<g id="edge26_Node000021_Node000024" class="edge">
<title>Node21&#45;&gt;Node24</title>
<g id="a_edge26_Node000021_Node000024"><a xlink:title=" ">
<path fill="none" stroke="#63b8ff" d="M1090.74,-68.35C1126.04,-57.59 1178.53,-41.59 1216.18,-30.12"/>
<polygon fill="#63b8ff" stroke="#63b8ff" points="1089.37,-65.11 1080.82,-71.37 1091.41,-71.8 1089.37,-65.11"/>
</a>
</g>
</g>
<!-- Node25&#45;&gt;Node9 -->
<g id="edge31_Node000025_Node000009" class="edge">
<title>Node25&#45;&gt;Node9</title>
<g id="a_edge31_Node000025_Node000009"><a xlink:title=" ">
<path fill="none" stroke="#63b8ff" d="M453.94,-129.44C415.54,-119.45 359.11,-104.78 319.19,-94.4"/>
<polygon fill="#63b8ff" stroke="#63b8ff" points="453.22,-132.86 463.78,-131.99 454.99,-126.09 453.22,-132.86"/>
</a>
</g>
</g>
<!-- Node25&#45;&gt;Node11 -->
<g id="edge30_Node000025_Node000011" class="edge">
<title>Node25&#45;&gt;Node11</title>
<g id="a_edge30_Node000025_Node000011"><a xlink:title=" ">
<path fill="none" stroke="#63b8ff" d="M426.83,-131.02C369.6,-122.87 286.52,-110.21 214.5,-96 211.81,-95.47 209.07,-94.9 206.29,-94.31"/>
<polygon fill="#63b8ff" stroke="#63b8ff" points="426.46,-134.5 436.85,-132.44 427.44,-127.57 426.46,-134.5"/>
</a>
</g>
</g>
<!-- Node25&#45;&gt;Node14 -->
<g id="edge32_Node000025_Node000014" class="edge">
<title>Node25&#45;&gt;Node14</title>
<g id="a_edge32_Node000025_Node000014"><a xlink:title=" ">
<path fill="none" stroke="#63b8ff" d="M470.79,-127.07C453.06,-117.81 429.53,-105.52 411.52,-96.11"/>
<polygon fill="#63b8ff" stroke="#63b8ff" points="469.49,-130.34 479.97,-131.87 472.73,-124.14 469.49,-130.34"/>
</a>
</g>
</g>
<!-- Node25&#45;&gt;Node21 -->
<g id="edge28_Node000025_Node000021" class="edge">
<title>Node25&#45;&gt;Node21</title>
<g id="a_edge28_Node000025_Node000021"><a xlink:title=" ">
<path fill="none" stroke="#63b8ff" d="M566.22,-136.86C661.7,-131.27 838.3,-118.74 987.5,-96 996.97,-94.56 1007.13,-92.58 1016.54,-90.56"/>
<polygon fill="#63b8ff" stroke="#63b8ff" points="565.89,-133.37 556.11,-137.44 566.3,-140.36 565.89,-133.37"/>
</a>
</g>
</g>
<!-- Node26 -->
<g id="Node000026" class="node">
<title>Node26</title>
<g id="a_Node000026"><a xlink:href="../../dd/d9f/rmvl_2detector_8hpp.html" target="_top" xlink:title=" ">
<polygon fill="white" stroke="#666666" points="542.5,-90.5 450.5,-90.5 450.5,-71.5 542.5,-71.5 542.5,-90.5"/>
<text text-anchor="middle" x="496.5" y="-78.5" font-family="Helvetica,sans-Serif" font-size="10.00">rmvl/detector.hpp</text>
</a>
</g>
</g>
<!-- Node25&#45;&gt;Node26 -->
<g id="edge29_Node000025_Node000026" class="edge">
<title>Node25&#45;&gt;Node26</title>
<g id="a_edge29_Node000025_Node000026"><a xlink:title=" ">
<path fill="none" stroke="#63b8ff" d="M496.5,-121.66C496.5,-111.24 496.5,-98.8 496.5,-90.67"/>
<polygon fill="#63b8ff" stroke="#63b8ff" points="493,-121.87 496.5,-131.87 500,-121.87 493,-121.87"/>
</a>
</g>
</g>
<!-- Node27 -->
<g id="Node000027" class="node">
<title>Node27</title>
<g id="a_Node000027"><a xlink:href="../../d6/d58/detector_2tag__detector_8h.html" target="_top" xlink:title="AprilTag 识别模块">
<polygon fill="white" stroke="#666666" points="698.5,-90.5 560.5,-90.5 560.5,-71.5 698.5,-71.5 698.5,-90.5"/>
<text text-anchor="middle" x="629.5" y="-78.5" font-family="Helvetica,sans-Serif" font-size="10.00">rmvl/detector/tag_detector.h</text>
</a>
</g>
</g>
<!-- Node25&#45;&gt;Node27 -->
<g id="edge33_Node000025_Node000027" class="edge">
<title>Node25&#45;&gt;Node27</title>
<g id="a_edge33_Node000025_Node000027"><a xlink:title=" ">
<path fill="none" stroke="#63b8ff" d="M525.07,-127.93C550.75,-116.64 587.77,-100.36 610.14,-90.52"/>
<polygon fill="#63b8ff" stroke="#63b8ff" points="523.58,-124.76 515.84,-131.99 526.4,-131.17 523.58,-124.76"/>
</a>
</g>
</g>
<!-- Node31&#45;&gt;Node21 -->
<g id="edge38_Node000031_Node000021" class="edge">
<title>Node31&#45;&gt;Node21</title>
<g id="a_edge38_Node000031_Node000021"><a xlink:title=" ">
<path fill="none" stroke="#63b8ff" d="M1277.76,-129.86C1235.02,-120.89 1172.24,-107.67 1117.5,-96 1109.26,-94.24 1100.43,-92.35 1092.02,-90.54"/>
<polygon fill="#63b8ff" stroke="#63b8ff" points="1277.14,-133.31 1287.64,-131.94 1278.58,-126.46 1277.14,-133.31"/>
</a>
</g>
</g>
<!-- Node32 -->
<g id="Node000032" class="node">
<title>Node32</title>
<g id="a_Node000032"><a xlink:href="../../df/d54/rmvl_2predictor_8hpp.html" target="_top" xlink:title=" ">
<polygon fill="white" stroke="#666666" points="1462.5,-90.5 1368.5,-90.5 1368.5,-71.5 1462.5,-71.5 1462.5,-90.5"/>
<text text-anchor="middle" x="1415.5" y="-78.5" font-family="Helvetica,sans-Serif" font-size="10.00">rmvl/predictor.hpp</text>
</a>
</g>
</g>
<!-- Node31&#45;&gt;Node32 -->
<g id="edge39_Node000031_Node000032" class="edge">
<title>Node31&#45;&gt;Node32</title>
<g id="a_edge39_Node000031_Node000032"><a xlink:title=" ">
<path fill="none" stroke="#63b8ff" d="M1349.83,-126.16C1366.36,-115.05 1388.71,-100.01 1402.61,-90.67"/>
<polygon fill="#63b8ff" stroke="#63b8ff" points="1347.68,-123.38 1341.34,-131.87 1351.59,-129.19 1347.68,-123.38"/>
</a>
</g>
</g>
<!-- Node33 -->
<g id="Node000033" class="node">
<title>Node33</title>
<g id="a_Node000033"><a xlink:href="../../df/d4c/predictor_2armor__predictor_8h.html" target="_top" xlink:title="装甲板预测派生类头文件">
<polygon fill="white" stroke="#666666" points="1584.5,-96 1480.5,-96 1480.5,-66 1584.5,-66 1584.5,-96"/>
<text text-anchor="start" x="1488.5" y="-84" font-family="Helvetica,sans-Serif" font-size="10.00">rmvl/predictor/armor</text>
<text text-anchor="middle" x="1532.5" y="-73" font-family="Helvetica,sans-Serif" font-size="10.00">_predictor.h</text>
</a>
</g>
</g>
<!-- Node31&#45;&gt;Node33 -->
<g id="edge40_Node000031_Node000033" class="edge">
<title>Node31&#45;&gt;Node33</title>
<g id="a_edge40_Node000031_Node000033"><a xlink:title=" ">
<path fill="none" stroke="#63b8ff" d="M1367.91,-129.2C1400.87,-119.75 1448.05,-106.22 1483.46,-96.06"/>
<polygon fill="#63b8ff" stroke="#63b8ff" points="1366.81,-125.87 1358.16,-131.99 1368.74,-132.6 1366.81,-125.87"/>
</a>
</g>
</g>
<!-- Node34 -->
<g id="Node000034" class="node">
<title>Node34</title>
<g id="a_Node000034"><a xlink:href="../../d9/de5/predictor_2gyro__predictor_8h.html" target="_top" xlink:title="整车状态预测派生类头文件">
<polygon fill="white" stroke="#666666" points="1700.5,-96 1602.5,-96 1602.5,-66 1700.5,-66 1700.5,-96"/>
<text text-anchor="start" x="1610.5" y="-84" font-family="Helvetica,sans-Serif" font-size="10.00">rmvl/predictor/gyro</text>
<text text-anchor="middle" x="1651.5" y="-73" font-family="Helvetica,sans-Serif" font-size="10.00">_predictor.h</text>
</a>
</g>
</g>
<!-- Node31&#45;&gt;Node34 -->
<g id="edge41_Node000031_Node000034" class="edge">
<title>Node31&#45;&gt;Node34</title>
<g id="a_edge41_Node000031_Node000034"><a xlink:title=" ">
<path fill="none" stroke="#63b8ff" d="M1396.44,-130.44C1450.12,-122.17 1526.84,-109.62 1593.5,-96 1596.34,-95.42 1599.26,-94.8 1602.19,-94.15"/>
<polygon fill="#63b8ff" stroke="#63b8ff" points="1395.71,-127.01 1386.36,-131.99 1396.77,-133.93 1395.71,-127.01"/>
</a>
</g>
</g>
<!-- Node35 -->
<g id="Node000035" class="node">
<title>Node35</title>
<g id="a_Node000035"><a xlink:href="../../d5/dec/predictor_2rune__predictor_8h.html" target="_top" xlink:title="神符预测派生类头文件">
<polygon fill="white" stroke="#666666" points="1816.5,-96 1718.5,-96 1718.5,-66 1816.5,-66 1816.5,-96"/>
<text text-anchor="start" x="1726.5" y="-84" font-family="Helvetica,sans-Serif" font-size="10.00">rmvl/predictor/rune</text>
<text text-anchor="middle" x="1767.5" y="-73" font-family="Helvetica,sans-Serif" font-size="10.00">_predictor.h</text>
</a>
</g>
</g>
<!-- Node31&#45;&gt;Node35 -->
<g id="edge42_Node000031_Node000035" class="edge">
<title>Node31&#45;&gt;Node35</title>
<g id="a_edge42_Node000031_Node000035"><a xlink:title=" ">
<path fill="none" stroke="#63b8ff" d="M1400.2,-132.04C1400.3,-132.02 1400.4,-132.01 1400.5,-132 1537.82,-115.89 1573.38,-120.27 1709.5,-96 1712.36,-95.49 1715.28,-94.93 1718.22,-94.32"/>
<polygon fill="#63b8ff" stroke="#63b8ff" points="1400.08,-128.53 1390.55,-133.17 1400.89,-135.48 1400.08,-128.53"/>
</a>
</g>
</g>
<!-- Node36 -->
<g id="Node000036" class="node">
<title>Node36</title>
<g id="a_Node000036"><a xlink:href="../../dc/d86/predictor_2spi__rune__predictor_8h.html" target="_top" xlink:title="系统参数辨识神符预测头文件">
<polygon fill="white" stroke="#666666" points="1350.5,-96 1258.5,-96 1258.5,-66 1350.5,-66 1350.5,-96"/>
<text text-anchor="start" x="1266.5" y="-84" font-family="Helvetica,sans-Serif" font-size="10.00">rmvl/predictor/spi</text>
<text text-anchor="middle" x="1304.5" y="-73" font-family="Helvetica,sans-Serif" font-size="10.00">_rune_predictor.h</text>
</a>
</g>
</g>
<!-- Node31&#45;&gt;Node36 -->
<g id="edge43_Node000031_Node000036" class="edge">
<title>Node31&#45;&gt;Node36</title>
<g id="a_edge43_Node000031_Node000036"><a xlink:title=" ">
<path fill="none" stroke="#63b8ff" d="M1321.11,-122.5C1317.63,-114.01 1313.54,-104.04 1310.29,-96.11"/>
<polygon fill="#63b8ff" stroke="#63b8ff" points="1317.92,-123.94 1324.96,-131.87 1324.4,-121.29 1317.92,-123.94"/>
</a>
</g>
</g>
</g>
</svg>
