<?xml version="1.0" encoding="UTF-8" standalone="no"?>
<!DOCTYPE svg PUBLIC "-//W3C//DTD SVG 1.1//EN"
 "http://www.w3.org/Graphics/SVG/1.1/DTD/svg11.dtd">
<!-- Generated by graphviz version 2.43.0 (0)
 -->
<!-- Title: rm::para::PlanarTrackerParam Pages: 1 -->
<svg width="478pt" height="194pt"
 viewBox="0.00 0.00 477.50 194.00" xmlns="http://www.w3.org/2000/svg" xmlns:xlink="http://www.w3.org/1999/xlink">

<svg id="main" version="1.1" xmlns="http://www.w3.org/2000/svg" xmlns:xlink="http://www.w3.org/1999/xlink" xml:space="preserve">

<style type="text/css"><![CDATA[
.node, .edge {opacity: 0.7;}
.node.selected, .edge.selected {opacity: 1;}
.edge:hover path { stroke: red; }
.edge:hover polygon { stroke: red; fill: red; }
]]></style>
<script type="application/ecmascript" xlink:href="../../svg.min.js"/>
<svg id="graph" class="graph">
<g id="graph0" class="graph" transform="scale(1 1) rotate(0) translate(4 190)">
<title>rm::para::PlanarTrackerParam</title>
<!-- Node1 -->
<g id="Node000001" class="node">
<title>Node1</title>
<g id="a_Node000001"><a xlink:title="PlanarTrackerParam 参数模块">
<polygon fill="#999999" stroke="transparent" points="333.5,-79 191.5,-79 191.5,0 333.5,0 333.5,-79"/>
<text text-anchor="start" x="196.5" y="-66.5" font-family="Helvetica,sans-Serif" font-size="10.00">rm::para::PlanarTrackerParam</text>
<text text-anchor="start" x="260.5" y="-51.5" font-family="Helvetica,sans-Serif" font-size="10.00"> </text>
<text text-anchor="start" x="202" y="-36.5" font-family="Helvetica,sans-Serif" font-size="10.00">+</text>
<text text-anchor="start" x="219.5" y="-36.5" font-family="Helvetica,sans-Serif" font-size="10.00">PlanarTrackerParam()</text>
<text text-anchor="start" x="202" y="-21.5" font-family="Helvetica,sans-Serif" font-size="10.00">+</text>
<text text-anchor="start" x="219.5" y="-21.5" font-family="Helvetica,sans-Serif" font-size="10.00">read()</text>
<text text-anchor="start" x="202" y="-6.5" font-family="Helvetica,sans-Serif" font-size="10.00">+</text>
<text text-anchor="start" x="219.5" y="-6.5" font-family="Helvetica,sans-Serif" font-size="10.00">write()</text>
<polygon fill="#666666" stroke="#666666" points="191.5,-61.5 191.5,-61.5 333.5,-61.5 333.5,-61.5 191.5,-61.5"/>
<polygon fill="#666666" stroke="#666666" points="191.5,-46.5 191.5,-46.5 333.5,-46.5 333.5,-46.5 191.5,-46.5"/>
<polygon fill="none" stroke="#666666" points="191.5,0 191.5,-79 333.5,-79 333.5,0 191.5,0"/>
</a>
</g>
</g>
<!-- Node2 -->
<g id="Node000002" class="node">
<title>Node2</title>
<g id="a_Node000002"><a xlink:title=" ">
<polygon fill="white" stroke="transparent" points="45,-186 0,-186 0,-137 45,-137 45,-186"/>
<text text-anchor="start" x="5.5" y="-173.5" font-family="Helvetica,sans-Serif" font-size="10.00">uint32_t</text>
<text text-anchor="start" x="21" y="-158.5" font-family="Helvetica,sans-Serif" font-size="10.00"> </text>
<text text-anchor="start" x="21" y="-143.5" font-family="Helvetica,sans-Serif" font-size="10.00"> </text>
<polygon fill="#666666" stroke="#666666" points="0.5,-168.5 0.5,-168.5 45.5,-168.5 45.5,-168.5 0.5,-168.5"/>
<polygon fill="#666666" stroke="#666666" points="0.5,-153.5 0.5,-153.5 45.5,-153.5 45.5,-153.5 0.5,-153.5"/>
<polygon fill="none" stroke="#666666" points="0,-137 0,-186 45,-186 45,-137 0,-137"/>
</a>
</g>
</g>
<!-- Node2&#45;&gt;Node1 -->
<g id="edge1_Node000001_Node000002" class="edge">
<title>Node2&#45;&gt;Node1</title>
<g id="a_edge1_Node000001_Node000002"><a xlink:title=" ">
<path fill="none" stroke="#63b8ff" d="M26.74,-136.92C30.34,-123.43 36.86,-107.21 48.5,-97 84.41,-65.5 135.9,-51.27 179.38,-44.96"/>
<polygon fill="none" stroke="#63b8ff" points="179.51,-44.95 184.94,-40.2 191.41,-43.39 185.98,-48.13 179.51,-44.95"/>
</a>
</g>
<text text-anchor="middle" x="94" y="-105.5" font-family="Helvetica,sans-Serif" font-size="10.00" fill="grey"> +TRACK_FRAMES</text>
</g>
<!-- Node3 -->
<g id="Node000003" class="node">
<title>Node3</title>
<g id="a_Node000003"><a xlink:title=" ">
<polygon fill="white" stroke="transparent" points="156,-186 117,-186 117,-137 156,-137 156,-186"/>
<text text-anchor="start" x="122.5" y="-173.5" font-family="Helvetica,sans-Serif" font-size="10.00">double</text>
<text text-anchor="start" x="135" y="-158.5" font-family="Helvetica,sans-Serif" font-size="10.00"> </text>
<text text-anchor="start" x="135" y="-143.5" font-family="Helvetica,sans-Serif" font-size="10.00"> </text>
<polygon fill="#666666" stroke="#666666" points="117.5,-168.5 117.5,-168.5 156.5,-168.5 156.5,-168.5 117.5,-168.5"/>
<polygon fill="#666666" stroke="#666666" points="117.5,-153.5 117.5,-153.5 156.5,-153.5 156.5,-153.5 117.5,-153.5"/>
<polygon fill="none" stroke="#666666" points="117,-137 117,-186 156,-186 156,-137 117,-137"/>
</a>
</g>
</g>
<!-- Node3&#45;&gt;Node1 -->
<g id="edge2_Node000001_Node000003" class="edge">
<title>Node3&#45;&gt;Node1</title>
<g id="a_edge2_Node000001_Node000003"><a xlink:title=" ">
<path fill="none" stroke="#63b8ff" d="M139.04,-136.98C141.47,-124.01 146.22,-108.29 155.5,-97 162.68,-88.27 171.56,-80.71 181.12,-74.22"/>
<polygon fill="none" stroke="#63b8ff" points="181.13,-74.22 184.08,-67.64 191.29,-67.83 188.33,-74.41 181.13,-74.22"/>
</a>
</g>
<text text-anchor="middle" x="207" y="-105.5" font-family="Helvetica,sans-Serif" font-size="10.00" fill="grey"> +SAMPLE_INTERVAL</text>
</g>
<!-- Node4 -->
<g id="Node000004" class="node">
<title>Node4</title>
<g id="a_Node000004"><a xlink:title=" ">
<polygon fill="white" stroke="transparent" points="308.5,-186 216.5,-186 216.5,-137 308.5,-137 308.5,-186"/>
<text text-anchor="start" x="221.5" y="-173.5" font-family="Helvetica,sans-Serif" font-size="10.00">Matx&lt; float, 2, 2 &gt;</text>
<text text-anchor="start" x="260.5" y="-158.5" font-family="Helvetica,sans-Serif" font-size="10.00"> </text>
<text text-anchor="start" x="260.5" y="-143.5" font-family="Helvetica,sans-Serif" font-size="10.00"> </text>
<polygon fill="#666666" stroke="#666666" points="216.5,-168.5 216.5,-168.5 308.5,-168.5 308.5,-168.5 216.5,-168.5"/>
<polygon fill="#666666" stroke="#666666" points="216.5,-153.5 216.5,-153.5 308.5,-153.5 308.5,-153.5 216.5,-153.5"/>
<polygon fill="none" stroke="#666666" points="216.5,-137 216.5,-186 308.5,-186 308.5,-137 216.5,-137"/>
</a>
</g>
</g>
<!-- Node4&#45;&gt;Node1 -->
<g id="edge3_Node000001_Node000004" class="edge">
<title>Node4&#45;&gt;Node1</title>
<g id="a_edge3_Node000001_Node000004"><a xlink:title=" ">
<path fill="none" stroke="#63b8ff" d="M262.5,-136.79C262.5,-123.86 262.5,-107.32 262.5,-91.61"/>
<polygon fill="none" stroke="#63b8ff" points="262.5,-91.27 258.5,-85.27 262.5,-79.27 266.5,-85.27 262.5,-91.27"/>
</a>
</g>
<text text-anchor="middle" x="292" y="-111" font-family="Helvetica,sans-Serif" font-size="10.00" fill="grey"> +DIS_Q</text>
<text text-anchor="middle" x="292" y="-100" font-family="Helvetica,sans-Serif" font-size="10.00" fill="grey">+MOTION_R</text>
</g>
<!-- Node5 -->
<g id="Node000005" class="node">
<title>Node5</title>
<g id="a_Node000005"><a xlink:title=" ">
<polygon fill="white" stroke="transparent" points="359,-186 330,-186 330,-137 359,-137 359,-186"/>
<text text-anchor="start" x="335.5" y="-173.5" font-family="Helvetica,sans-Serif" font-size="10.00">float</text>
<text text-anchor="start" x="343" y="-158.5" font-family="Helvetica,sans-Serif" font-size="10.00"> </text>
<text text-anchor="start" x="343" y="-143.5" font-family="Helvetica,sans-Serif" font-size="10.00"> </text>
<polygon fill="#666666" stroke="#666666" points="330.5,-168.5 330.5,-168.5 359.5,-168.5 359.5,-168.5 330.5,-168.5"/>
<polygon fill="#666666" stroke="#666666" points="330.5,-153.5 330.5,-153.5 359.5,-153.5 359.5,-153.5 330.5,-153.5"/>
<polygon fill="none" stroke="#666666" points="330,-137 330,-186 359,-186 359,-137 330,-137"/>
</a>
</g>
</g>
<!-- Node5&#45;&gt;Node1 -->
<g id="edge4_Node000001_Node000005" class="edge">
<title>Node5&#45;&gt;Node1</title>
<g id="a_edge4_Node000001_Node000005"><a xlink:title=" ">
<path fill="none" stroke="#63b8ff" d="M339.25,-136.95C335.77,-124.42 330.36,-109.15 322.5,-97 320.6,-94.07 318.53,-91.19 316.32,-88.37"/>
<polygon fill="none" stroke="#63b8ff" points="316.16,-88.19 309.22,-86.22 308.38,-79.05 315.31,-81.03 316.16,-88.19"/>
</a>
</g>
<text text-anchor="middle" x="352.5" y="-105.5" font-family="Helvetica,sans-Serif" font-size="10.00" fill="grey"> +DIS_R</text>
</g>
<!-- Node6 -->
<g id="Node000006" class="node">
<title>Node6</title>
<g id="a_Node000006"><a xlink:title=" ">
<polygon fill="white" stroke="transparent" points="469.5,-186 377.5,-186 377.5,-137 469.5,-137 469.5,-186"/>
<text text-anchor="start" x="382.5" y="-173.5" font-family="Helvetica,sans-Serif" font-size="10.00">Matx&lt; float, 4, 4 &gt;</text>
<text text-anchor="start" x="421.5" y="-158.5" font-family="Helvetica,sans-Serif" font-size="10.00"> </text>
<text text-anchor="start" x="421.5" y="-143.5" font-family="Helvetica,sans-Serif" font-size="10.00"> </text>
<polygon fill="#666666" stroke="#666666" points="377.5,-168.5 377.5,-168.5 469.5,-168.5 469.5,-168.5 377.5,-168.5"/>
<polygon fill="#666666" stroke="#666666" points="377.5,-153.5 377.5,-153.5 469.5,-153.5 469.5,-153.5 377.5,-153.5"/>
<polygon fill="none" stroke="#666666" points="377.5,-137 377.5,-186 469.5,-186 469.5,-137 377.5,-137"/>
</a>
</g>
</g>
<!-- Node6&#45;&gt;Node1 -->
<g id="edge5_Node000001_Node000006" class="edge">
<title>Node6&#45;&gt;Node1</title>
<g id="a_edge5_Node000001_Node000006"><a xlink:title=" ">
<path fill="none" stroke="#63b8ff" d="M409.9,-136.89C401.53,-123.9 389.86,-108.18 376.5,-97 366.71,-88.8 355.53,-81.43 344.08,-74.92"/>
<polygon fill="none" stroke="#63b8ff" points="344.07,-74.92 336.89,-75.57 333.53,-69.19 340.71,-68.54 344.07,-74.92"/>
</a>
</g>
<text text-anchor="middle" x="427.5" y="-105.5" font-family="Helvetica,sans-Serif" font-size="10.00" fill="grey"> +MOTION_Q</text>
</g>
</g>
</svg>
</svg>

<style type='text/css'>
<![CDATA[
[data-mouse-over-selected='false'] { opacity: 0.7; }
[data-mouse-over-selected='true']  { opacity: 1.0; }
]]>
</style>
<script type="application/ecmascript"><![CDATA[
document.addEventListener('DOMContentLoaded', (event) => {
  highlightEdges();
  highlightAdjacentNodes();
});
]]></script>
</svg>
