<?xml version="1.0" encoding="UTF-8" standalone="no"?>
<!DOCTYPE svg PUBLIC "-//W3C//DTD SVG 1.1//EN"
 "http://www.w3.org/Graphics/SVG/1.1/DTD/svg11.dtd">
<!-- Generated by graphviz version 2.43.0 (0)
 -->
<!-- Title: rmvl/algorithm/math.hpp Pages: 1 -->
<svg width="703pt" height="137pt"
 viewBox="0.00 0.00 703.00 137.00" xmlns="http://www.w3.org/2000/svg" xmlns:xlink="http://www.w3.org/1999/xlink">
<g id="graph0" class="graph" transform="scale(1 1) rotate(0) translate(4 133)">
<title>rmvl/algorithm/math.hpp</title>
<!-- Node1 -->
<g id="Node000001" class="node">
<title>Node1</title>
<g id="a_Node000001"><a xlink:title="基础数学库">
<polygon fill="#999999" stroke="#666666" points="300,-129 161,-129 161,-110 300,-110 300,-129"/>
<text text-anchor="middle" x="230.5" y="-117" font-family="Helvetica,sans-Serif" font-size="10.00">rmvl/algorithm/math.hpp</text>
</a>
</g>
</g>
<!-- Node2 -->
<g id="Node000002" class="node">
<title>Node2</title>
<g id="a_Node000002"><a xlink:title=" ">
<polygon fill="#e0e0e0" stroke="#999999" points="47,-74 0,-74 0,-55 47,-55 47,-74"/>
<text text-anchor="middle" x="23.5" y="-62" font-family="Helvetica,sans-Serif" font-size="10.00">cmath</text>
</a>
</g>
</g>
<!-- Node1&#45;&gt;Node2 -->
<g id="edge1_Node000001_Node000002" class="edge">
<title>Node1&#45;&gt;Node2</title>
<g id="a_edge1_Node000001_Node000002"><a xlink:title=" ">
<path fill="none" stroke="#63b8ff" d="M197.14,-109.99C164.09,-101.55 111.78,-88.18 57.15,-74.16"/>
<polygon fill="#63b8ff" stroke="#63b8ff" points="57.85,-70.73 47.29,-71.63 56.11,-77.51 57.85,-70.73"/>
</a>
</g>
</g>
<!-- Node3 -->
<g id="Node000003" class="node">
<title>Node3</title>
<g id="a_Node000003"><a xlink:title=" ">
<polygon fill="#e0e0e0" stroke="#999999" points="121.5,-74 65.5,-74 65.5,-55 121.5,-55 121.5,-74"/>
<text text-anchor="middle" x="93.5" y="-62" font-family="Helvetica,sans-Serif" font-size="10.00">numeric</text>
</a>
</g>
</g>
<!-- Node1&#45;&gt;Node3 -->
<g id="edge2_Node000001_Node000003" class="edge">
<title>Node1&#45;&gt;Node3</title>
<g id="a_edge2_Node000001_Node000003"><a xlink:title=" ">
<path fill="none" stroke="#63b8ff" d="M208.49,-109.98C186.05,-101.3 151.02,-87.75 125.51,-77.88"/>
<polygon fill="#63b8ff" stroke="#63b8ff" points="126.5,-74.51 115.91,-74.17 123.98,-81.04 126.5,-74.51"/>
</a>
</g>
</g>
<!-- Node4 -->
<g id="Node000004" class="node">
<title>Node4</title>
<g id="a_Node000004"><a xlink:title=" ">
<polygon fill="#e0e0e0" stroke="#999999" points="233,-74 140,-74 140,-55 233,-55 233,-74"/>
<text text-anchor="middle" x="186.5" y="-62" font-family="Helvetica,sans-Serif" font-size="10.00">unordered_map</text>
</a>
</g>
</g>
<!-- Node1&#45;&gt;Node4 -->
<g id="edge3_Node000001_Node000004" class="edge">
<title>Node1&#45;&gt;Node4</title>
<g id="a_edge3_Node000001_Node000004"><a xlink:title=" ">
<path fill="none" stroke="#63b8ff" d="M223.23,-109.75C216.96,-102.18 207.71,-91.05 200.07,-81.84"/>
<polygon fill="#63b8ff" stroke="#63b8ff" points="202.71,-79.55 193.63,-74.09 197.33,-84.02 202.71,-79.55"/>
</a>
</g>
</g>
<!-- Node5 -->
<g id="Node000005" class="node">
<title>Node5</title>
<g id="a_Node000005"><a xlink:title=" ">
<polygon fill="#e0e0e0" stroke="#999999" points="298,-74 251,-74 251,-55 298,-55 298,-74"/>
<text text-anchor="middle" x="274.5" y="-62" font-family="Helvetica,sans-Serif" font-size="10.00">vector</text>
</a>
</g>
</g>
<!-- Node1&#45;&gt;Node5 -->
<g id="edge4_Node000001_Node000005" class="edge">
<title>Node1&#45;&gt;Node5</title>
<g id="a_edge4_Node000001_Node000005"><a xlink:title=" ">
<path fill="none" stroke="#63b8ff" d="M237.77,-109.75C244.04,-102.18 253.29,-91.05 260.93,-81.84"/>
<polygon fill="#63b8ff" stroke="#63b8ff" points="263.67,-84.02 267.37,-74.09 258.29,-79.55 263.67,-84.02"/>
</a>
</g>
</g>
<!-- Node6 -->
<g id="Node000006" class="node">
<title>Node6</title>
<g id="a_Node000006"><a xlink:title=" ">
<polygon fill="#e0e0e0" stroke="#999999" points="447,-74 316,-74 316,-55 447,-55 447,-74"/>
<text text-anchor="middle" x="381.5" y="-62" font-family="Helvetica,sans-Serif" font-size="10.00">opencv2/core/matx.hpp</text>
</a>
</g>
</g>
<!-- Node1&#45;&gt;Node6 -->
<g id="edge5_Node000001_Node000006" class="edge">
<title>Node1&#45;&gt;Node6</title>
<g id="a_edge5_Node000001_Node000006"><a xlink:title=" ">
<path fill="none" stroke="#63b8ff" d="M254.76,-109.98C279.82,-101.19 319.13,-87.39 347.33,-77.49"/>
<polygon fill="#63b8ff" stroke="#63b8ff" points="348.52,-80.78 356.8,-74.17 346.2,-74.18 348.52,-80.78"/>
</a>
</g>
</g>
<!-- Node7 -->
<g id="Node000007" class="node">
<title>Node7</title>
<g id="a_Node000007"><a xlink:href="../../d0/d3f/util_8hpp.html" target="_top" xlink:title=" ">
<polygon fill="white" stroke="#666666" points="568,-74 465,-74 465,-55 568,-55 568,-74"/>
<text text-anchor="middle" x="516.5" y="-62" font-family="Helvetica,sans-Serif" font-size="10.00">rmvl/core/util.hpp</text>
</a>
</g>
</g>
<!-- Node1&#45;&gt;Node7 -->
<g id="edge6_Node000001_Node000007" class="edge">
<title>Node1&#45;&gt;Node7</title>
<g id="a_edge6_Node000001_Node000007"><a xlink:title=" ">
<path fill="none" stroke="#63b8ff" d="M276.45,-109.98C326.44,-100.72 406.39,-85.9 460.14,-75.94"/>
<polygon fill="#63b8ff" stroke="#63b8ff" points="460.99,-79.35 470.19,-74.08 459.72,-72.46 460.99,-79.35"/>
</a>
</g>
</g>
<!-- Node8 -->
<g id="Node000008" class="node">
<title>Node8</title>
<g id="a_Node000008"><a xlink:title=" ">
<polygon fill="#e0e0e0" stroke="#999999" points="407,-19 274,-19 274,0 407,0 407,-19"/>
<text text-anchor="middle" x="340.5" y="-7" font-family="Helvetica,sans-Serif" font-size="10.00">rmvl/rmvl_modules.hpp</text>
</a>
</g>
</g>
<!-- Node7&#45;&gt;Node8 -->
<g id="edge7_Node000007_Node000008" class="edge">
<title>Node7&#45;&gt;Node8</title>
<g id="a_edge7_Node000007_Node000008"><a xlink:title=" ">
<path fill="none" stroke="#63b8ff" d="M488.22,-54.98C458.55,-46.05 411.71,-31.94 378.75,-22.02"/>
<polygon fill="#63b8ff" stroke="#63b8ff" points="379.58,-18.61 369,-19.08 377.57,-25.32 379.58,-18.61"/>
</a>
</g>
</g>
<!-- Node9 -->
<g id="Node000009" class="node">
<title>Node9</title>
<g id="a_Node000009"><a xlink:title=" ">
<polygon fill="#e0e0e0" stroke="#999999" points="475.5,-19 425.5,-19 425.5,0 475.5,0 475.5,-19"/>
<text text-anchor="middle" x="450.5" y="-7" font-family="Helvetica,sans-Serif" font-size="10.00">cstdint</text>
</a>
</g>
</g>
<!-- Node7&#45;&gt;Node9 -->
<g id="edge8_Node000007_Node000009" class="edge">
<title>Node7&#45;&gt;Node9</title>
<g id="a_edge8_Node000007_Node000009"><a xlink:title=" ">
<path fill="none" stroke="#63b8ff" d="M505.9,-54.98C496.04,-47.07 481.15,-35.11 469.28,-25.58"/>
<polygon fill="#63b8ff" stroke="#63b8ff" points="471.29,-22.7 461.3,-19.17 466.9,-28.16 471.29,-22.7"/>
</a>
</g>
</g>
<!-- Node10 -->
<g id="Node000010" class="node">
<title>Node10</title>
<g id="a_Node000010"><a xlink:title=" ">
<polygon fill="#e0e0e0" stroke="#999999" points="539.5,-19 493.5,-19 493.5,0 539.5,0 539.5,-19"/>
<text text-anchor="middle" x="516.5" y="-7" font-family="Helvetica,sans-Serif" font-size="10.00">cstdio</text>
</a>
</g>
</g>
<!-- Node7&#45;&gt;Node10 -->
<g id="edge9_Node000007_Node000010" class="edge">
<title>Node7&#45;&gt;Node10</title>
<g id="a_edge9_Node000007_Node000010"><a xlink:title=" ">
<path fill="none" stroke="#63b8ff" d="M516.5,-54.75C516.5,-47.8 516.5,-37.85 516.5,-29.13"/>
<polygon fill="#63b8ff" stroke="#63b8ff" points="520,-29.09 516.5,-19.09 513,-29.09 520,-29.09"/>
</a>
</g>
</g>
<!-- Node11 -->
<g id="Node000011" class="node">
<title>Node11</title>
<g id="a_Node000011"><a xlink:title=" ">
<polygon fill="#e0e0e0" stroke="#999999" points="601.5,-19 557.5,-19 557.5,0 601.5,0 601.5,-19"/>
<text text-anchor="middle" x="579.5" y="-7" font-family="Helvetica,sans-Serif" font-size="10.00">string</text>
</a>
</g>
</g>
<!-- Node7&#45;&gt;Node11 -->
<g id="edge10_Node000007_Node000011" class="edge">
<title>Node7&#45;&gt;Node11</title>
<g id="a_edge10_Node000007_Node000011"><a xlink:title=" ">
<path fill="none" stroke="#63b8ff" d="M526.62,-54.98C535.94,-47.15 549.97,-35.34 561.24,-25.86"/>
<polygon fill="#63b8ff" stroke="#63b8ff" points="563.79,-28.29 569.19,-19.17 559.29,-22.93 563.79,-28.29"/>
</a>
</g>
</g>
<!-- Node12 -->
<g id="Node000012" class="node">
<title>Node12</title>
<g id="a_Node000012"><a xlink:href="../../db/d41/rmvldef_8hpp.html" target="_top" xlink:title=" ">
<polygon fill="white" stroke="#666666" points="695,-19 620,-19 620,0 695,0 695,-19"/>
<text text-anchor="middle" x="657.5" y="-7" font-family="Helvetica,sans-Serif" font-size="10.00">rmvldef.hpp</text>
</a>
</g>
</g>
<!-- Node7&#45;&gt;Node12 -->
<g id="edge11_Node000007_Node000012" class="edge">
<title>Node7&#45;&gt;Node12</title>
<g id="a_edge11_Node000007_Node000012"><a xlink:title=" ">
<path fill="none" stroke="#63b8ff" d="M539.15,-54.98C562.35,-46.27 598.62,-32.63 624.9,-22.75"/>
<polygon fill="#63b8ff" stroke="#63b8ff" points="626.3,-25.97 634.43,-19.17 623.84,-19.41 626.3,-25.97"/>
</a>
</g>
</g>
</g>
</svg>
