<?xml version="1.0" encoding="UTF-8" standalone="no"?>
<!DOCTYPE svg PUBLIC "-//W3C//DTD SVG 1.1//EN"
 "http://www.w3.org/Graphics/SVG/1.1/DTD/svg11.dtd">
<!-- Generated by graphviz version 2.43.0 (0)
 -->
<!-- Title: rm::Response Pages: 1 -->
<!--zoomable 602 -->

<svg id="main" version="1.1" xmlns="http://www.w3.org/2000/svg" xmlns:xlink="http://www.w3.org/1999/xlink" xml:space="preserve" onload="init(evt)">

<style type="text/css"><![CDATA[
.node, .edge {opacity: 0.7;}
.node.selected, .edge.selected {opacity: 1;}
.edge:hover path { stroke: red; }
.edge:hover polygon { stroke: red; fill: red; }
]]></style>

<defs>
  <circle id="rim" cx="0" cy="0" r="7"/>
  <circle id="rim2" cx="0" cy="0" r="3.5"/>
  <g id="zoomPlus">
    <use xlink:href="#rim" fill="#404040"><set attributeName="fill" to="#808080" begin="zoomplus.mouseover" end="zoomplus.mouseout"/></use>
    <path d="M-4,0h8M0,-4v8" fill="none" stroke="white" stroke-width="1.5" pointer-events="none"/>
  </g>
  <g id="zoomMin">
    <use xlink:href="#rim" fill="#404040"><set attributeName="fill" to="#808080" begin="zoomminus.mouseover" end="zoomminus.mouseout"/></use>
    <path d="M-4,0h8" fill="none" stroke="white" stroke-width="1.5" pointer-events="none"/>
  </g>
  <g id="arrowUp" transform="translate(30 24)">
    <use xlink:href="#rim"/>
    <path pointer-events="none" fill="none" stroke="white" stroke-width="1.5" d="M0,-3.0v7 M-2.5,-0.5L0,-3.0L2.5,-0.5"/>
  </g>
  <g id="arrowRight" transform="rotate(90) translate(36 -43)">
    <use xlink:href="#rim"/>
    <path pointer-events="none" fill="none" stroke="white" stroke-width="1.5" d="M0,-3.0v7 M-2.5,-0.5L0,-3.0L2.5,-0.5"/>
  </g>
  <g id="arrowDown" transform="rotate(180) translate(-30 -48)">
    <use xlink:href="#rim"/>
    <path pointer-events="none" fill="none" stroke="white" stroke-width="1.5" d="M0,-3.0v7 M-2.5,-0.5L0,-3.0L2.5,-0.5"/>
  </g>
  <g id="arrowLeft" transform="rotate(270) translate(-36 17)">
    <use xlink:href="#rim"/>
    <path pointer-events="none" fill="none" stroke="white" stroke-width="1.5" d="M0,-3.0v7 M-2.5,-0.5L0,-3.0L2.5,-0.5"/>
  </g>
  <g id="resetDef">
    <use xlink:href="#rim2" fill="#404040"><set attributeName="fill" to="#808080" begin="reset.mouseover" end="reset.mouseout"/></use>
  </g>
</defs>
<script type="application/ecmascript">
var viewWidth = 262;
var viewHeight = 602;
var sectionId = 'dynsection-0';
</script>
<script type="application/ecmascript" xlink:href="../../svg.min.js"/>
<svg id="graph" class="graph">
<g id="viewport">
<title>rm::Response</title>
<!-- Node1 -->
<g id="Node000001" class="node">
<title>Node1</title>
<g id="a_Node000001"><a xlink:title="HTTP 响应结构">
<polygon fill="#999999" stroke="transparent" points="173.5,-229 91.5,-229 91.5,0 173.5,0 173.5,-229"/>
<text text-anchor="start" x="101.5" y="-216.5" font-family="Helvetica,sans-Serif" font-size="10.00">rm::Response</text>
<text text-anchor="start" x="130.5" y="-201.5" font-family="Helvetica,sans-Serif" font-size="10.00"> </text>
<text text-anchor="start" x="95.5" y="-186.5" font-family="Helvetica,sans-Serif" font-size="10.00">+</text>
<text text-anchor="start" x="106.5" y="-186.5" font-family="Helvetica,sans-Serif" font-size="10.00">generate()</text>
<text text-anchor="start" x="95.5" y="-171.5" font-family="Helvetica,sans-Serif" font-size="10.00">+</text>
<text text-anchor="start" x="106.5" y="-171.5" font-family="Helvetica,sans-Serif" font-size="10.00">attachment()</text>
<text text-anchor="start" x="95.5" y="-156.5" font-family="Helvetica,sans-Serif" font-size="10.00">+</text>
<text text-anchor="start" x="106.5" y="-156.5" font-family="Helvetica,sans-Serif" font-size="10.00">download()</text>
<text text-anchor="start" x="95.5" y="-141.5" font-family="Helvetica,sans-Serif" font-size="10.00">+</text>
<text text-anchor="start" x="106.5" y="-141.5" font-family="Helvetica,sans-Serif" font-size="10.00">get()</text>
<text text-anchor="start" x="95.5" y="-126.5" font-family="Helvetica,sans-Serif" font-size="10.00">+</text>
<text text-anchor="start" x="106.5" y="-126.5" font-family="Helvetica,sans-Serif" font-size="10.00">json()</text>
<text text-anchor="start" x="95.5" y="-111.5" font-family="Helvetica,sans-Serif" font-size="10.00">+</text>
<text text-anchor="start" x="106.5" y="-111.5" font-family="Helvetica,sans-Serif" font-size="10.00">redirect()</text>
<text text-anchor="start" x="95.5" y="-96.5" font-family="Helvetica,sans-Serif" font-size="10.00">+</text>
<text text-anchor="start" x="106.5" y="-96.5" font-family="Helvetica,sans-Serif" font-size="10.00">redirect()</text>
<text text-anchor="start" x="95.5" y="-81.5" font-family="Helvetica,sans-Serif" font-size="10.00">+</text>
<text text-anchor="start" x="106.5" y="-81.5" font-family="Helvetica,sans-Serif" font-size="10.00">send()</text>
<text text-anchor="start" x="95.5" y="-66.5" font-family="Helvetica,sans-Serif" font-size="10.00">+</text>
<text text-anchor="start" x="106.5" y="-66.5" font-family="Helvetica,sans-Serif" font-size="10.00">sendFile()</text>
<text text-anchor="start" x="95.5" y="-51.5" font-family="Helvetica,sans-Serif" font-size="10.00">+</text>
<text text-anchor="start" x="106.5" y="-51.5" font-family="Helvetica,sans-Serif" font-size="10.00">set()</text>
<text text-anchor="start" x="95.5" y="-36.5" font-family="Helvetica,sans-Serif" font-size="10.00">+</text>
<text text-anchor="start" x="106.5" y="-36.5" font-family="Helvetica,sans-Serif" font-size="10.00">status()</text>
<text text-anchor="start" x="95.5" y="-21.5" font-family="Helvetica,sans-Serif" font-size="10.00">+</text>
<text text-anchor="start" x="106.5" y="-21.5" font-family="Helvetica,sans-Serif" font-size="10.00">operator bool()</text>
<text text-anchor="start" x="95.5" y="-6.5" font-family="Helvetica,sans-Serif" font-size="10.00">+</text>
<text text-anchor="start" x="106.5" y="-6.5" font-family="Helvetica,sans-Serif" font-size="10.00">parse()</text>
<polygon fill="#666666" stroke="#666666" points="91.5,-211.5 91.5,-211.5 173.5,-211.5 173.5,-211.5 91.5,-211.5"/>
<polygon fill="#666666" stroke="#666666" points="91.5,-196.5 91.5,-196.5 173.5,-196.5 173.5,-196.5 91.5,-196.5"/>
<polygon fill="none" stroke="#666666" points="91.5,0 91.5,-229 173.5,-229 173.5,0 91.5,0"/>
</a>
</g>
</g>
<!-- Node2 -->
<g id="Node000002" class="node">
<title>Node2</title>
<g id="a_Node000002"><a xlink:title=" ">
<polygon fill="white" stroke="transparent" points="66,-342 21,-342 21,-293 66,-293 66,-342"/>
<text text-anchor="start" x="26.5" y="-329.5" font-family="Helvetica,sans-Serif" font-size="10.00">uint16_t</text>
<text text-anchor="start" x="42" y="-314.5" font-family="Helvetica,sans-Serif" font-size="10.00"> </text>
<text text-anchor="start" x="42" y="-299.5" font-family="Helvetica,sans-Serif" font-size="10.00"> </text>
<polygon fill="#666666" stroke="#666666" points="21.5,-324.5 21.5,-324.5 66.5,-324.5 66.5,-324.5 21.5,-324.5"/>
<polygon fill="#666666" stroke="#666666" points="21.5,-309.5 21.5,-309.5 66.5,-309.5 66.5,-309.5 21.5,-309.5"/>
<polygon fill="none" stroke="#666666" points="21,-293 21,-342 66,-342 66,-293 21,-293"/>
</a>
</g>
</g>
<!-- Node2&#45;&gt;Node1 -->
<g id="edge1_Node000001_Node000002" class="edge">
<title>Node2&#45;&gt;Node1</title>
<g id="a_edge1_Node000001_Node000002"><a xlink:title=" ">
<path fill="none" stroke="#63b8ff" d="M54.06,-292.65C62.31,-274.02 74.4,-246.72 86.62,-219.12"/>
<polygon fill="none" stroke="#63b8ff" points="86.63,-219.1 85.4,-211.99 91.49,-208.12 92.72,-215.23 86.63,-219.1"/>
</a>
</g>
<text text-anchor="start" x="75.5" y="-252.5" font-family="Helvetica,sans-Serif" font-size="10.00" fill="grey">+state</text>
</g>
<!-- Node3 -->
<g id="Node000003" class="node">
<title>Node3</title>
<g id="a_Node000003"><a xlink:title=" ">
<polygon fill="white" stroke="transparent" points="197.5,-475.5 143.5,-475.5 143.5,-426.5 197.5,-426.5 197.5,-475.5"/>
<text text-anchor="start" x="148.5" y="-463" font-family="Helvetica,sans-Serif" font-size="10.00">std::string</text>
<text text-anchor="start" x="168.5" y="-448" font-family="Helvetica,sans-Serif" font-size="10.00"> </text>
<text text-anchor="start" x="168.5" y="-433" font-family="Helvetica,sans-Serif" font-size="10.00"> </text>
<polygon fill="#666666" stroke="#666666" points="143.5,-458 143.5,-458 197.5,-458 197.5,-458 143.5,-458"/>
<polygon fill="#666666" stroke="#666666" points="143.5,-443 143.5,-443 197.5,-443 197.5,-443 143.5,-443"/>
<polygon fill="none" stroke="#666666" points="143.5,-426.5 143.5,-475.5 197.5,-475.5 197.5,-426.5 143.5,-426.5"/>
</a>
</g>
</g>
<!-- Node3&#45;&gt;Node1 -->
<g id="edge2_Node000001_Node000003" class="edge">
<title>Node3&#45;&gt;Node1</title>
<g id="a_edge2_Node000001_Node000003"><a xlink:title=" ">
<path fill="none" stroke="#63b8ff" d="M191.41,-426.16C196.34,-419.16 200.92,-411.18 203.5,-403 207.79,-389.44 204.61,-385.18 203.5,-371 200.38,-331.08 199.13,-320.87 189.5,-282 185.96,-267.73 181.74,-252.93 177.22,-238.32"/>
<polygon fill="none" stroke="#63b8ff" points="177.15,-238.1 171.52,-233.58 173.53,-226.66 179.15,-231.17 177.15,-238.1"/>
</a>
</g>
<text text-anchor="start" x="204.5" y="-322.5" font-family="Helvetica,sans-Serif" font-size="10.00" fill="grey">+body</text>
<text text-anchor="start" x="204.5" y="-307.5" font-family="Helvetica,sans-Serif" font-size="10.00" fill="grey">+message</text>
</g>
<!-- Node5 -->
<g id="Node000005" class="node">
<title>Node5</title>
<g id="a_Node000005"><a xlink:title=" ">
<polygon fill="white" stroke="transparent" points="181,-353 84,-353 84,-282 181,-282 181,-353"/>
<text text-anchor="start" x="89.5" y="-340.5" font-family="Helvetica,sans-Serif" font-size="10.00">std::unordered_map</text>
<text text-anchor="start" x="89.5" y="-329.5" font-family="Helvetica,sans-Serif" font-size="10.00">&lt; std::string, std::</text>
<text text-anchor="start" x="116" y="-318.5" font-family="Helvetica,sans-Serif" font-size="10.00">string &gt;</text>
<text text-anchor="start" x="131" y="-303.5" font-family="Helvetica,sans-Serif" font-size="10.00"> </text>
<text text-anchor="start" x="131" y="-288.5" font-family="Helvetica,sans-Serif" font-size="10.00"> </text>
<polygon fill="#666666" stroke="#666666" points="84.5,-313.5 84.5,-313.5 181.5,-313.5 181.5,-313.5 84.5,-313.5"/>
<polygon fill="#666666" stroke="#666666" points="84.5,-298.5 84.5,-298.5 181.5,-298.5 181.5,-298.5 84.5,-298.5"/>
<polygon fill="none" stroke="#666666" points="84,-282 84,-353 181,-353 181,-282 84,-282"/>
</a>
</g>
</g>
<!-- Node3&#45;&gt;Node5 -->
<g id="edge5_Node000005_Node000003" class="edge">
<title>Node3&#45;&gt;Node5</title>
<g id="a_edge5_Node000005_Node000003"><a xlink:title=" ">
<path fill="none" stroke="#63b8ff" d="M160.07,-426.36C157.05,-418.97 153.91,-410.73 151.5,-403 147.74,-390.94 144.4,-377.7 141.61,-365.35"/>
<polygon fill="none" stroke="#63b8ff" points="141.55,-365.1 136.37,-360.08 139.01,-353.37 144.19,-358.39 141.55,-365.1"/>
</a>
</g>
<text text-anchor="start" x="154.5" y="-392" font-family="Helvetica,sans-Serif" font-size="10.00" fill="grey">+elements</text>
<text text-anchor="start" x="154.5" y="-377" font-family="Helvetica,sans-Serif" font-size="10.00" fill="grey">+keys</text>
</g>
<!-- Node4 -->
<g id="Node000004" class="node">
<title>Node4</title>
<g id="a_Node000004"><a xlink:title=" ">
<polygon fill="white" stroke="transparent" points="215,-594 126,-594 126,-534 215,-534 215,-594"/>
<text text-anchor="start" x="131.5" y="-582" font-family="Helvetica,sans-Serif" font-size="10.00">std::basic_string&lt;</text>
<text text-anchor="start" x="154" y="-571" font-family="Helvetica,sans-Serif" font-size="10.00"> Char &gt;</text>
<text text-anchor="start" x="169" y="-556" font-family="Helvetica,sans-Serif" font-size="10.00"> </text>
<text text-anchor="start" x="169" y="-541" font-family="Helvetica,sans-Serif" font-size="10.00"> </text>
<polygon fill="#666666" stroke="#666666" points="126.5,-566 126.5,-566 215.5,-566 215.5,-566 126.5,-566"/>
<polygon fill="#666666" stroke="#666666" points="126.5,-551 126.5,-551 215.5,-551 215.5,-551 126.5,-551"/>
<polygon fill="none" stroke="#666666" points="126,-534 126,-594 215,-594 215,-534 126,-534"/>
</a>
</g>
</g>
<!-- Node4&#45;&gt;Node3 -->
<g id="edge3_Node000003_Node000004" class="edge">
<title>Node4&#45;&gt;Node3</title>
<g id="a_edge3_Node000003_Node000004"><a xlink:title=" ">
<path fill="none" stroke="#63b8ff" d="M170.5,-523.66C170.5,-507.66 170.5,-489.68 170.5,-475.74"/>
<polygon fill="none" stroke="#63b8ff" points="167,-523.84 170.5,-533.84 174,-523.84 167,-523.84"/>
</a>
</g>
</g>
<!-- Node5&#45;&gt;Node1 -->
<g id="edge4_Node000001_Node000005" class="edge">
<title>Node5&#45;&gt;Node1</title>
<g id="a_edge4_Node000001_Node000005"><a xlink:title=" ">
<path fill="none" stroke="#63b8ff" d="M132.5,-281.95C132.5,-270.08 132.5,-256.01 132.5,-241.17"/>
<polygon fill="none" stroke="#63b8ff" points="132.5,-241.12 128.5,-235.12 132.5,-229.12 136.5,-235.12 132.5,-241.12"/>
</a>
</g>
<text text-anchor="start" x="136" y="-252.5" font-family="Helvetica,sans-Serif" font-size="10.00" fill="grey">+heads</text>
</g>
<!-- Node6 -->
<g id="Node000006" class="node">
<title>Node6</title>
<g id="a_Node000006"><a xlink:title=" ">
<polygon fill="white" stroke="transparent" points="97,-481 0,-481 0,-421 97,-421 97,-481"/>
<text text-anchor="start" x="5.5" y="-469" font-family="Helvetica,sans-Serif" font-size="10.00">std::unordered_map</text>
<text text-anchor="start" x="30.5" y="-458" font-family="Helvetica,sans-Serif" font-size="10.00">&lt; K, T &gt;</text>
<text text-anchor="start" x="47" y="-443" font-family="Helvetica,sans-Serif" font-size="10.00"> </text>
<text text-anchor="start" x="47" y="-428" font-family="Helvetica,sans-Serif" font-size="10.00"> </text>
<polygon fill="#666666" stroke="#666666" points="0.5,-453 0.5,-453 97.5,-453 97.5,-453 0.5,-453"/>
<polygon fill="#666666" stroke="#666666" points="0.5,-438 0.5,-438 97.5,-438 97.5,-438 0.5,-438"/>
<polygon fill="none" stroke="#666666" points="0,-421 0,-481 97,-481 97,-421 0,-421"/>
</a>
</g>
</g>
<!-- Node6&#45;&gt;Node5 -->
<g id="edge6_Node000005_Node000006" class="edge">
<title>Node6&#45;&gt;Node5</title>
<g id="a_edge6_Node000005_Node000006"><a xlink:title=" ">
<path fill="none" stroke="orange" d="M48.48,-410.4C49.99,-397.11 53.4,-382.7 60.5,-371 66.36,-361.35 74.74,-352.93 83.71,-345.83"/>
<polygon fill="orange" stroke="orange" points="44.96,-410.51 47.64,-420.76 51.93,-411.07 44.96,-410.51"/>
</a>
</g>
<text text-anchor="start" x="64" y="-392" font-family="Helvetica,sans-Serif" font-size="10.00" fill="grey">&lt; std::string, std</text>
<text text-anchor="start" x="64" y="-377" font-family="Helvetica,sans-Serif" font-size="10.00" fill="grey">  ::string &gt;</text>
</g>
<!-- Node7 -->
<g id="Node000007" class="node">
<title>Node7</title>
<g id="a_Node000007"><a xlink:title=" ">
<polygon fill="white" stroke="transparent" points="36,-588.5 19,-588.5 19,-539.5 36,-539.5 36,-588.5"/>
<text text-anchor="start" x="24.5" y="-576" font-family="Helvetica,sans-Serif" font-size="10.00">K</text>
<text text-anchor="start" x="26" y="-561" font-family="Helvetica,sans-Serif" font-size="10.00"> </text>
<text text-anchor="start" x="26" y="-546" font-family="Helvetica,sans-Serif" font-size="10.00"> </text>
<polygon fill="#666666" stroke="#666666" points="19.5,-571 19.5,-571 36.5,-571 36.5,-571 19.5,-571"/>
<polygon fill="#666666" stroke="#666666" points="19.5,-556 19.5,-556 36.5,-556 36.5,-556 19.5,-556"/>
<polygon fill="none" stroke="#666666" points="19,-539.5 19,-588.5 36,-588.5 36,-539.5 19,-539.5"/>
</a>
</g>
</g>
<!-- Node7&#45;&gt;Node6 -->
<g id="edge7_Node000006_Node000007" class="edge">
<title>Node7&#45;&gt;Node6</title>
<g id="a_edge7_Node000006_Node000007"><a xlink:title=" ">
<path fill="none" stroke="#63b8ff" d="M25.71,-539.35C25.33,-527.17 25.71,-512.15 28.5,-499 28.96,-496.85 29.51,-494.67 30.14,-492.5"/>
<polygon fill="none" stroke="#63b8ff" points="30.19,-492.36 28.37,-485.38 34.11,-481.02 35.93,-487.99 30.19,-492.36"/>
</a>
</g>
<text text-anchor="start" x="31.5" y="-504.5" font-family="Helvetica,sans-Serif" font-size="10.00" fill="grey">+keys</text>
</g>
<!-- Node8 -->
<g id="Node000008" class="node">
<title>Node8</title>
<g id="a_Node000008"><a xlink:title=" ">
<polygon fill="white" stroke="transparent" points="93,-588.5 76,-588.5 76,-539.5 93,-539.5 93,-588.5"/>
<text text-anchor="start" x="81.5" y="-576" font-family="Helvetica,sans-Serif" font-size="10.00">T</text>
<text text-anchor="start" x="83" y="-561" font-family="Helvetica,sans-Serif" font-size="10.00"> </text>
<text text-anchor="start" x="83" y="-546" font-family="Helvetica,sans-Serif" font-size="10.00"> </text>
<polygon fill="#666666" stroke="#666666" points="76.5,-571 76.5,-571 93.5,-571 93.5,-571 76.5,-571"/>
<polygon fill="#666666" stroke="#666666" points="76.5,-556 76.5,-556 93.5,-556 93.5,-556 76.5,-556"/>
<polygon fill="none" stroke="#666666" points="76,-539.5 76,-588.5 93,-588.5 93,-539.5 76,-539.5"/>
</a>
</g>
</g>
<!-- Node8&#45;&gt;Node6 -->
<g id="edge8_Node000006_Node000008" class="edge">
<title>Node8&#45;&gt;Node6</title>
<g id="a_edge8_Node000006_Node000008"><a xlink:title=" ">
<path fill="none" stroke="#63b8ff" d="M76.87,-539.46C72.46,-525.87 66.79,-508.4 61.68,-492.65"/>
<polygon fill="none" stroke="#63b8ff" points="61.62,-492.45 55.96,-487.98 57.92,-481.04 63.57,-485.51 61.62,-492.45"/>
</a>
</g>
<text text-anchor="start" x="72.5" y="-504.5" font-family="Helvetica,sans-Serif" font-size="10.00" fill="grey">+elements</text>
</g>
</g>
</svg>

<g id="navigator" transform="translate(0 0)" fill="#404254">
  <rect fill="#f2f5e9" fill-opacity="0.5" stroke="#606060" stroke-width=".5" x="0" y="0" width="60" height="60"/>
  <use id="zoomplus" xlink:href="#zoomPlus" x="17" y="9" onmousedown="handleZoom(evt,'in')"/>
  <use id="zoomminus" xlink:href="#zoomMin" x="42" y="9" onmousedown="handleZoom(evt,'out')"/>
  <use id="reset" xlink:href="#resetDef" x="30" y="36" onmousedown="handleReset()"/>
   <use id="arrowup" xlink:href="#arrowUp" x="0" y="0" onmousedown="handlePan(0,-1)"/>
  <use id="arrowright" xlink:href="#arrowRight" x="0" y="0" onmousedown="handlePan(1,0)"/>
  <use id="arrowdown" xlink:href="#arrowDown" x="0" y="0" onmousedown="handlePan(0,1)"/>
  <use id="arrowleft" xlink:href="#arrowLeft" x="0" y="0" onmousedown="handlePan(-1,0)"/>
</g>
<svg viewBox="0 0 15 15" width="100%" height="30px" preserveAspectRatio="xMaxYMin meet">
 <g id="arrow_out" transform="scale(0.3 0.3)">
  <a xlink:href="structrm_1_1Response__coll__graph_org.svg" target="_base">
   <rect id="button" ry="5" rx="5" y="6" x="6" height="38" width="38"
        fill="#f2f5e9" fill-opacity="0.5" stroke="#606060" stroke-width="1.0"/>
   <path id="arrow"
     d="M 11.500037,31.436501 C 11.940474,20.09759 22.043105,11.32322 32.158766,21.979434 L 37.068811,17.246167 C 37.068811,17.246167 37.088388,32 37.088388,32 L 22.160133,31.978069 C 22.160133,31.978069 26.997745,27.140456 26.997745,27.140456 C 18.528582,18.264221 13.291696,25.230495 11.500037,31.436501 z"
     style="fill:#404040;"/>
  </a>
 </g>
</svg>

<style type='text/css'>
<![CDATA[
[data-mouse-over-selected='false'] { opacity: 0.7; }
[data-mouse-over-selected='true']  { opacity: 1.0; }
]]>
</style>
<script type="application/ecmascript"><![CDATA[
document.addEventListener('DOMContentLoaded', (event) => {
  highlightEdges();
  highlightAdjacentNodes();
});
]]></script>
</svg>
