<?xml version="1.0" encoding="UTF-8" standalone="no"?>
<!DOCTYPE svg PUBLIC "-//W3C//DTD SVG 1.1//EN"
 "http://www.w3.org/Graphics/SVG/1.1/DTD/svg11.dtd">
<!-- Generated by graphviz version 2.43.0 (0)
 -->
<!-- Title: rm::msg::String Pages: 1 -->
<svg width="157pt" height="301pt"
 viewBox="0.00 0.00 156.50 301.00" xmlns="http://www.w3.org/2000/svg" xmlns:xlink="http://www.w3.org/1999/xlink">
<g id="graph0" class="graph" transform="scale(1 1) rotate(0) translate(4 297)">
<title>rm::msg::String</title>
<!-- Node1 -->
<g id="Node000001" class="node">
<title>Node1</title>
<g id="a_Node000001"><a xlink:title="String 消息类型：std/String">
<polygon fill="#999999" stroke="transparent" points="117.5,-94 31.5,-94 31.5,0 117.5,0 117.5,-94"/>
<text text-anchor="start" x="40.5" y="-82" font-family="Helvetica,sans-Serif" font-size="10.00">rm::msg::String</text>
<text text-anchor="start" x="72.5" y="-67" font-family="Helvetica,sans-Serif" font-size="10.00"> </text>
<text text-anchor="start" x="35.5" y="-52" font-family="Helvetica,sans-Serif" font-size="10.00">+</text>
<text text-anchor="start" x="46.5" y="-52" font-family="Helvetica,sans-Serif" font-size="10.00">serialize()</text>
<text text-anchor="start" x="35.5" y="-37" font-family="Helvetica,sans-Serif" font-size="10.00">+</text>
<text text-anchor="start" x="46.5" y="-37" font-family="Helvetica,sans-Serif" font-size="10.00">json()</text>
<text text-anchor="start" x="35.5" y="-22" font-family="Helvetica,sans-Serif" font-size="10.00">+</text>
<text text-anchor="start" x="46.5" y="-22" font-family="Helvetica,sans-Serif" font-size="10.00">compact_size()</text>
<text text-anchor="start" x="35.5" y="-7" font-family="Helvetica,sans-Serif" font-size="10.00">+</text>
<text text-anchor="start" x="46.5" y="-7" font-family="Helvetica,sans-Serif" font-size="10.00">deserialize()</text>
<polygon fill="#666666" stroke="#666666" points="31.5,-77 31.5,-77 117.5,-77 117.5,-77 31.5,-77"/>
<polygon fill="#666666" stroke="#666666" points="31.5,-62 31.5,-62 117.5,-62 117.5,-62 31.5,-62"/>
<polygon fill="none" stroke="#666666" points="31.5,0 31.5,-94 117.5,-94 117.5,0 31.5,0"/>
</a>
</g>
</g>
<!-- Node2 -->
<g id="Node000002" class="node">
<title>Node2</title>
<g id="a_Node000002"><a xlink:title=" ">
<polygon fill="white" stroke="transparent" points="71.5,-196 17.5,-196 17.5,-147 71.5,-147 71.5,-196"/>
<text text-anchor="start" x="22.5" y="-183.5" font-family="Helvetica,sans-Serif" font-size="10.00">std::string</text>
<text text-anchor="start" x="42.5" y="-168.5" font-family="Helvetica,sans-Serif" font-size="10.00"> </text>
<text text-anchor="start" x="42.5" y="-153.5" font-family="Helvetica,sans-Serif" font-size="10.00"> </text>
<polygon fill="#666666" stroke="#666666" points="17.5,-178.5 17.5,-178.5 71.5,-178.5 71.5,-178.5 17.5,-178.5"/>
<polygon fill="#666666" stroke="#666666" points="17.5,-163.5 17.5,-163.5 71.5,-163.5 71.5,-163.5 17.5,-163.5"/>
<polygon fill="none" stroke="#666666" points="17.5,-147 17.5,-196 71.5,-196 71.5,-147 17.5,-147"/>
</a>
</g>
</g>
<!-- Node2&#45;&gt;Node1 -->
<g id="edge1_Node000001_Node000002" class="edge">
<title>Node2&#45;&gt;Node1</title>
<g id="a_edge1_Node000001_Node000002"><a xlink:title=" ">
<path fill="none" stroke="#63b8ff" d="M46.1,-146.95C47.14,-136.19 48.82,-123.35 51.5,-112 51.98,-109.99 52.49,-107.95 53.05,-105.9"/>
<polygon fill="none" stroke="#63b8ff" points="53.13,-105.62 51,-98.73 56.54,-94.12 58.67,-101.01 53.13,-105.62"/>
</a>
</g>
<text text-anchor="start" x="55" y="-117.5" font-family="Helvetica,sans-Serif" font-size="10.00" fill="grey">+data</text>
</g>
<!-- Node3 -->
<g id="Node000003" class="node">
<title>Node3</title>
<g id="a_Node000003"><a xlink:title=" ">
<polygon fill="white" stroke="transparent" points="89,-293 0,-293 0,-233 89,-233 89,-293"/>
<text text-anchor="start" x="5.5" y="-281" font-family="Helvetica,sans-Serif" font-size="10.00">std::basic_string&lt;</text>
<text text-anchor="start" x="28" y="-270" font-family="Helvetica,sans-Serif" font-size="10.00"> Char &gt;</text>
<text text-anchor="start" x="43" y="-255" font-family="Helvetica,sans-Serif" font-size="10.00"> </text>
<text text-anchor="start" x="43" y="-240" font-family="Helvetica,sans-Serif" font-size="10.00"> </text>
<polygon fill="#666666" stroke="#666666" points="0.5,-265 0.5,-265 89.5,-265 89.5,-265 0.5,-265"/>
<polygon fill="#666666" stroke="#666666" points="0.5,-250 0.5,-250 89.5,-250 89.5,-250 0.5,-250"/>
<polygon fill="none" stroke="#666666" points="0,-233 0,-293 89,-293 89,-233 0,-233"/>
</a>
</g>
</g>
<!-- Node3&#45;&gt;Node2 -->
<g id="edge2_Node000002_Node000003" class="edge">
<title>Node3&#45;&gt;Node2</title>
<g id="a_edge2_Node000002_Node000003"><a xlink:title=" ">
<path fill="none" stroke="#63b8ff" d="M44.5,-222.41C44.5,-213.47 44.5,-204.25 44.5,-196.21"/>
<polygon fill="none" stroke="#63b8ff" points="41,-222.69 44.5,-232.69 48,-222.69 41,-222.69"/>
</a>
</g>
</g>
<!-- Node4 -->
<g id="Node000004" class="node">
<title>Node4</title>
<g id="a_Node000004"><a xlink:title=" ">
<polygon fill="white" stroke="transparent" points="119,-196 90,-196 90,-147 119,-147 119,-196"/>
<text text-anchor="start" x="95.5" y="-183.5" font-family="Helvetica,sans-Serif" font-size="10.00">char</text>
<text text-anchor="start" x="103" y="-168.5" font-family="Helvetica,sans-Serif" font-size="10.00"> </text>
<text text-anchor="start" x="103" y="-153.5" font-family="Helvetica,sans-Serif" font-size="10.00"> </text>
<polygon fill="#666666" stroke="#666666" points="90.5,-178.5 90.5,-178.5 119.5,-178.5 119.5,-178.5 90.5,-178.5"/>
<polygon fill="#666666" stroke="#666666" points="90.5,-163.5 90.5,-163.5 119.5,-163.5 119.5,-163.5 90.5,-163.5"/>
<polygon fill="none" stroke="#666666" points="90,-147 90,-196 119,-196 119,-147 90,-147"/>
</a>
</g>
</g>
<!-- Node4&#45;&gt;Node1 -->
<g id="edge3_Node000001_Node000004" class="edge">
<title>Node4&#45;&gt;Node1</title>
<g id="a_edge3_Node000001_Node000004"><a xlink:title=" ">
<path fill="none" stroke="#63b8ff" d="M98.72,-146.88C95.86,-135.2 92.27,-120.54 88.73,-106.12"/>
<polygon fill="none" stroke="#63b8ff" points="88.65,-105.78 83.34,-100.91 85.8,-94.13 91.11,-99 88.65,-105.78"/>
</a>
</g>
<text text-anchor="start" x="97" y="-117.5" font-family="Helvetica,sans-Serif" font-size="10.00" fill="grey">+msg_type</text>
</g>
</g>
</svg>
