<?xml version="1.0" encoding="UTF-8" standalone="no"?>
<!DOCTYPE svg PUBLIC "-//W3C//DTD SVG 1.1//EN"
 "http://www.w3.org/Graphics/SVG/1.1/DTD/svg11.dtd">
<!-- Generated by graphviz version 2.43.0 (0)
 -->
<!-- Title: rmvlpara/detector/armor_detector.h Pages: 1 -->
<svg width="429pt" height="207pt"
 viewBox="0.00 0.00 429.00 207.00" xmlns="http://www.w3.org/2000/svg" xmlns:xlink="http://www.w3.org/1999/xlink">
<g id="graph0" class="graph" transform="scale(1 1) rotate(0) translate(4 203)">
<title>rmvlpara/detector/armor_detector.h</title>
<polygon fill="white" stroke="transparent" points="-4,4 -4,-203 425,-203 425,4 -4,4"/>
<!-- Node1 -->
<g id="node1" class="node">
<title>Node1</title>
<g id="a_node1"><a xlink:title="ArmorDetectorParam module header file (Generated by CMake automatically)">
<polygon fill="#bfbfbf" stroke="black" points="103,-168.5 103,-198.5 240,-198.5 240,-168.5 103,-168.5"/>
<text text-anchor="start" x="111" y="-186.5" font-family="Helvetica,sans-Serif" font-size="10.00">rmvlpara/detector/armor</text>
<text text-anchor="middle" x="171.5" y="-175.5" font-family="Helvetica,sans-Serif" font-size="10.00">_detector.h</text>
</a>
</g>
</g>
<!-- Node2 -->
<g id="node2" class="node">
<title>Node2</title>
<g id="a_node2"><a xlink:title=" ">
<polygon fill="white" stroke="#bfbfbf" points="34,-112.5 34,-131.5 167,-131.5 167,-112.5 34,-112.5"/>
<text text-anchor="middle" x="100.5" y="-119.5" font-family="Helvetica,sans-Serif" font-size="10.00">opencv2/core/types.hpp</text>
</a>
</g>
</g>
<!-- Node1&#45;&gt;Node2 -->
<g id="edge1" class="edge">
<title>Node1&#45;&gt;Node2</title>
<path fill="none" stroke="midnightblue" d="M154.67,-168.4C143.83,-159.31 129.72,-147.49 118.63,-138.19"/>
<polygon fill="midnightblue" stroke="midnightblue" points="120.74,-135.4 110.83,-131.66 116.25,-140.76 120.74,-135.4"/>
</g>
<!-- Node3 -->
<g id="node3" class="node">
<title>Node3</title>
<g id="a_node3"><a xlink:href="../../d2/d8f/loader_8hpp.html" target="_top" xlink:title=" ">
<polygon fill="white" stroke="black" points="185,-112.5 185,-131.5 300,-131.5 300,-112.5 185,-112.5"/>
<text text-anchor="middle" x="242.5" y="-119.5" font-family="Helvetica,sans-Serif" font-size="10.00">rmvlpara/loader.hpp</text>
</a>
</g>
</g>
<!-- Node1&#45;&gt;Node3 -->
<g id="edge2" class="edge">
<title>Node1&#45;&gt;Node3</title>
<path fill="none" stroke="midnightblue" d="M188.33,-168.4C199.17,-159.31 213.28,-147.49 224.37,-138.19"/>
<polygon fill="midnightblue" stroke="midnightblue" points="226.75,-140.76 232.17,-131.66 222.26,-135.4 226.75,-140.76"/>
</g>
<!-- Node4 -->
<g id="node4" class="node">
<title>Node4</title>
<g id="a_node4"><a xlink:href="../../d0/d3f/util_8hpp.html" target="_top" xlink:title=" ">
<polygon fill="white" stroke="black" points="191,-56.5 191,-75.5 294,-75.5 294,-56.5 191,-56.5"/>
<text text-anchor="middle" x="242.5" y="-63.5" font-family="Helvetica,sans-Serif" font-size="10.00">rmvl/core/util.hpp</text>
</a>
</g>
</g>
<!-- Node3&#45;&gt;Node4 -->
<g id="edge3" class="edge">
<title>Node3&#45;&gt;Node4</title>
<path fill="none" stroke="midnightblue" d="M242.5,-112.08C242.5,-105.01 242.5,-94.86 242.5,-85.99"/>
<polygon fill="midnightblue" stroke="midnightblue" points="246,-85.75 242.5,-75.75 239,-85.75 246,-85.75"/>
</g>
<!-- Node5 -->
<g id="node5" class="node">
<title>Node5</title>
<g id="a_node5"><a xlink:title=" ">
<polygon fill="white" stroke="#bfbfbf" points="0,-0.5 0,-19.5 133,-19.5 133,-0.5 0,-0.5"/>
<text text-anchor="middle" x="66.5" y="-7.5" font-family="Helvetica,sans-Serif" font-size="10.00">rmvl/rmvl_modules.hpp</text>
</a>
</g>
</g>
<!-- Node4&#45;&gt;Node5 -->
<g id="edge4" class="edge">
<title>Node4&#45;&gt;Node5</title>
<path fill="none" stroke="midnightblue" d="M214.61,-56.44C184.75,-47.28 137.19,-32.69 104.04,-22.52"/>
<polygon fill="midnightblue" stroke="midnightblue" points="104.84,-19.1 94.26,-19.52 102.79,-25.8 104.84,-19.1"/>
</g>
<!-- Node6 -->
<g id="node6" class="node">
<title>Node6</title>
<g id="a_node6"><a xlink:title=" ">
<polygon fill="white" stroke="#bfbfbf" points="151.5,-0.5 151.5,-19.5 201.5,-19.5 201.5,-0.5 151.5,-0.5"/>
<text text-anchor="middle" x="176.5" y="-7.5" font-family="Helvetica,sans-Serif" font-size="10.00">cstdint</text>
</a>
</g>
</g>
<!-- Node4&#45;&gt;Node6 -->
<g id="edge5" class="edge">
<title>Node4&#45;&gt;Node6</title>
<path fill="none" stroke="midnightblue" d="M231.9,-56.32C222.04,-48.26 207.15,-36.08 195.28,-26.37"/>
<polygon fill="midnightblue" stroke="midnightblue" points="197.25,-23.46 187.3,-19.83 192.82,-28.88 197.25,-23.46"/>
</g>
<!-- Node7 -->
<g id="node7" class="node">
<title>Node7</title>
<g id="a_node7"><a xlink:title=" ">
<polygon fill="white" stroke="#bfbfbf" points="219.5,-0.5 219.5,-19.5 265.5,-19.5 265.5,-0.5 219.5,-0.5"/>
<text text-anchor="middle" x="242.5" y="-7.5" font-family="Helvetica,sans-Serif" font-size="10.00">cstdio</text>
</a>
</g>
</g>
<!-- Node4&#45;&gt;Node7 -->
<g id="edge6" class="edge">
<title>Node4&#45;&gt;Node7</title>
<path fill="none" stroke="midnightblue" d="M242.5,-56.08C242.5,-49.01 242.5,-38.86 242.5,-29.99"/>
<polygon fill="midnightblue" stroke="midnightblue" points="246,-29.75 242.5,-19.75 239,-29.75 246,-29.75"/>
</g>
<!-- Node8 -->
<g id="node8" class="node">
<title>Node8</title>
<g id="a_node8"><a xlink:title=" ">
<polygon fill="white" stroke="#bfbfbf" points="283.5,-0.5 283.5,-19.5 327.5,-19.5 327.5,-0.5 283.5,-0.5"/>
<text text-anchor="middle" x="305.5" y="-7.5" font-family="Helvetica,sans-Serif" font-size="10.00">string</text>
</a>
</g>
</g>
<!-- Node4&#45;&gt;Node8 -->
<g id="edge7" class="edge">
<title>Node4&#45;&gt;Node8</title>
<path fill="none" stroke="midnightblue" d="M252.62,-56.32C262.03,-48.26 276.24,-36.08 287.57,-26.37"/>
<polygon fill="midnightblue" stroke="midnightblue" points="289.88,-29 295.19,-19.83 285.32,-23.68 289.88,-29"/>
</g>
<!-- Node9 -->
<g id="node9" class="node">
<title>Node9</title>
<g id="a_node9"><a xlink:href="../../db/d41/rmvldef_8hpp.html" target="_top" xlink:title=" ">
<polygon fill="white" stroke="black" points="346,-0.5 346,-19.5 421,-19.5 421,-0.5 346,-0.5"/>
<text text-anchor="middle" x="383.5" y="-7.5" font-family="Helvetica,sans-Serif" font-size="10.00">rmvldef.hpp</text>
</a>
</g>
</g>
<!-- Node4&#45;&gt;Node9 -->
<g id="edge8" class="edge">
<title>Node4&#45;&gt;Node9</title>
<path fill="none" stroke="midnightblue" d="M264.84,-56.44C288.25,-47.48 325.24,-33.31 351.69,-23.18"/>
<polygon fill="midnightblue" stroke="midnightblue" points="353.18,-26.36 361.26,-19.52 350.67,-19.82 353.18,-26.36"/>
</g>
</g>
</svg>
