<?xml version="1.0" encoding="UTF-8" standalone="no"?>
<!DOCTYPE svg PUBLIC "-//W3C//DTD SVG 1.1//EN"
 "http://www.w3.org/Graphics/SVG/1.1/DTD/svg11.dtd">
<!-- Generated by graphviz version 14.1.2 (0)
 -->
<!-- Title: rm::async::Listener Pages: 1 -->
<svg width="109pt" height="253pt"
 viewBox="0.00 0.00 109.00 253.00" xmlns="http://www.w3.org/2000/svg" xmlns:xlink="http://www.w3.org/1999/xlink">
<g id="graph0" class="graph" transform="scale(1 1) rotate(0) translate(4 249)">
<title>rm::async::Listener</title>
<!-- Node1 -->
<g id="Node000001" class="node">
<title>Node1</title>
<g id="a_Node000001"><a xlink:title="异步数据报式 Socket 监听器">
<polygon fill="#999999" stroke="none" points="101,-87.75 0,-87.75 0,0 101,0 101,-87.75"/>
<text xml:space="preserve" text-anchor="start" x="4" y="-74.25" font-family="Helvetica,sans-Serif" font-size="10.00">rm::async::Listener</text>
<text xml:space="preserve" text-anchor="start" x="49" y="-57.5" font-family="Helvetica,sans-Serif" font-size="10.00"> </text>
<text xml:space="preserve" text-anchor="start" x="10.5" y="-40.75" font-family="Helvetica,sans-Serif" font-size="10.00">+</text>
<text xml:space="preserve" text-anchor="start" x="29.25" y="-40.75" font-family="Helvetica,sans-Serif" font-size="10.00">Listener()</text>
<text xml:space="preserve" text-anchor="start" x="10.5" y="-24" font-family="Helvetica,sans-Serif" font-size="10.00">+</text>
<text xml:space="preserve" text-anchor="start" x="29.25" y="-24" font-family="Helvetica,sans-Serif" font-size="10.00">~Listener()</text>
<text xml:space="preserve" text-anchor="start" x="10.5" y="-7.25" font-family="Helvetica,sans-Serif" font-size="10.00">+</text>
<text xml:space="preserve" text-anchor="start" x="29.25" y="-7.25" font-family="Helvetica,sans-Serif" font-size="10.00">create()</text>
<polygon fill="#666666" stroke="#666666" points="0,-69 0,-69 101,-69 101,-69 0,-69"/>
<polygon fill="#666666" stroke="#666666" points="0,-52.25 0,-52.25 101,-52.25 101,-52.25 0,-52.25"/>
<polygon fill="none" stroke="#666666" points="0,0 0,-87.75 101,-87.75 101,0 0,0"/>
</a>
</g>
</g>
<!-- Node2 -->
<g id="Node000002" class="node">
<title>Node2</title>
<g id="a_Node000002"><a xlink:href="../../d5/dcd/classrm_1_1Listener.html" target="_top" xlink:title="同步数据报式 Socket 监听器">
<polygon fill="white" stroke="none" points="88,-245 13,-245 13,-123.75 88,-123.75 88,-245"/>
<text xml:space="preserve" text-anchor="start" x="21.25" y="-231.5" font-family="Helvetica,sans-Serif" font-size="10.00">rm::Listener</text>
<text xml:space="preserve" text-anchor="start" x="17" y="-214.75" font-family="Helvetica,sans-Serif" font-size="10.00">#</text>
<text xml:space="preserve" text-anchor="start" x="29.25" y="-214.75" font-family="Helvetica,sans-Serif" font-size="10.00">_endpoint</text>
<text xml:space="preserve" text-anchor="start" x="17" y="-198" font-family="Helvetica,sans-Serif" font-size="10.00">#</text>
<text xml:space="preserve" text-anchor="start" x="29.25" y="-198" font-family="Helvetica,sans-Serif" font-size="10.00">_fd</text>
<text xml:space="preserve" text-anchor="start" x="17" y="-181.25" font-family="Helvetica,sans-Serif" font-size="10.00">+</text>
<text xml:space="preserve" text-anchor="start" x="29.25" y="-181.25" font-family="Helvetica,sans-Serif" font-size="10.00">Listener()</text>
<text xml:space="preserve" text-anchor="start" x="17" y="-164.5" font-family="Helvetica,sans-Serif" font-size="10.00">+</text>
<text xml:space="preserve" text-anchor="start" x="29.25" y="-164.5" font-family="Helvetica,sans-Serif" font-size="10.00">~Listener()</text>
<text xml:space="preserve" text-anchor="start" x="17" y="-147.75" font-family="Helvetica,sans-Serif" font-size="10.00">+</text>
<text xml:space="preserve" text-anchor="start" x="29.25" y="-147.75" font-family="Helvetica,sans-Serif" font-size="10.00">create()</text>
<text xml:space="preserve" text-anchor="start" x="17" y="-131" font-family="Helvetica,sans-Serif" font-size="10.00">#</text>
<text xml:space="preserve" text-anchor="start" x="29.25" y="-131" font-family="Helvetica,sans-Serif" font-size="10.00">Listener()</text>
<polygon fill="#666666" stroke="#666666" points="13,-226.25 13,-226.25 88,-226.25 88,-226.25 13,-226.25"/>
<polygon fill="#666666" stroke="#666666" points="13,-192.75 13,-192.75 27.25,-192.75 27.25,-192.75 13,-192.75"/>
<polygon fill="#666666" stroke="#666666" points="27.25,-192.75 27.25,-192.75 88,-192.75 88,-192.75 27.25,-192.75"/>
<polygon fill="none" stroke="#666666" points="13,-123.75 13,-245 88,-245 88,-123.75 13,-123.75"/>
</a>
</g>
</g>
<!-- Node2&#45;&gt;Node1 -->
<g id="edge1_Node000001_Node000002" class="edge">
<title>Node2&#45;&gt;Node1</title>
<g id="a_edge1_Node000001_Node000002"><a xlink:title=" ">
<path fill="none" stroke="#63b8ff" d="M50.5,-112.35C50.5,-103.91 50.5,-95.51 50.5,-87.64"/>
<polygon fill="none" stroke="#63b8ff" points="47,-112.32 50.5,-122.32 54,-112.32 47,-112.32"/>
</a>
</g>
</g>
</g>
</svg>
