<?xml version="1.0" encoding="UTF-8" standalone="no"?>
<!DOCTYPE svg PUBLIC "-//W3C//DTD SVG 1.1//EN"
 "http://www.w3.org/Graphics/SVG/1.1/DTD/svg11.dtd">
<!-- Generated by graphviz version 2.43.0 (0)
 -->
<!-- Title: rm::RungeKutta Pages: 1 -->
<svg width="468pt" height="541pt"
 viewBox="0.00 0.00 468.00 541.00" xmlns="http://www.w3.org/2000/svg" xmlns:xlink="http://www.w3.org/1999/xlink">
<g id="graph0" class="graph" transform="scale(1 1) rotate(0) translate(4 537)">
<title>rm::RungeKutta</title>
<polygon fill="white" stroke="transparent" points="-4,4 -4,-537 464,-537 464,4 -4,4"/>
<!-- Node1 -->
<g id="node1" class="node">
<title>Node1</title>
<g id="a_node1"><a xlink:title="Butcher 表形式的常微分方程（组）数值求解器">
<polygon fill="#bfbfbf" stroke="black" points="55,-0.5 55,-101.5 147,-101.5 147,-0.5 55,-0.5"/>
<text text-anchor="middle" x="101" y="-89.5" font-family="Helvetica,sans-Serif" font-size="10.00">rm::RungeKutta</text>
<polyline fill="none" stroke="black" points="55,-82.5 147,-82.5 "/>
<text text-anchor="middle" x="101" y="-70.5" font-family="Helvetica,sans-Serif" font-size="10.00"> </text>
<polyline fill="none" stroke="black" points="55,-63.5 147,-63.5 "/>
<text text-anchor="start" x="63" y="-51.5" font-family="Helvetica,sans-Serif" font-size="10.00">+ RungeKutta()</text>
<text text-anchor="start" x="63" y="-40.5" font-family="Helvetica,sans-Serif" font-size="10.00">+ init()</text>
<text text-anchor="start" x="63" y="-29.5" font-family="Helvetica,sans-Serif" font-size="10.00">+ init()</text>
<text text-anchor="start" x="63" y="-18.5" font-family="Helvetica,sans-Serif" font-size="10.00">+ solve()</text>
<text text-anchor="start" x="63" y="-7.5" font-family="Helvetica,sans-Serif" font-size="10.00">+ generate()</text>
</a>
</g>
</g>
<!-- Node2 -->
<g id="node2" class="node">
<title>Node2</title>
<g id="a_node2"><a xlink:title=" ">
<polygon fill="white" stroke="#bfbfbf" points="0,-370.5 0,-427.5 50,-427.5 50,-370.5 0,-370.5"/>
<text text-anchor="middle" x="25" y="-415.5" font-family="Helvetica,sans-Serif" font-size="10.00">double</text>
<polyline fill="none" stroke="#bfbfbf" points="0,-408.5 50,-408.5 "/>
<text text-anchor="middle" x="25" y="-396.5" font-family="Helvetica,sans-Serif" font-size="10.00"> </text>
<polyline fill="none" stroke="#bfbfbf" points="0,-389.5 50,-389.5 "/>
<text text-anchor="middle" x="25" y="-377.5" font-family="Helvetica,sans-Serif" font-size="10.00"> </text>
</a>
</g>
</g>
<!-- Node2&#45;&gt;Node1 -->
<g id="edge1" class="edge">
<title>Node2&#45;&gt;Node1</title>
<path fill="none" stroke="#404040" d="M23.38,-370.33C22.28,-343.32 21.83,-301.12 27,-265 36.47,-198.82 43.05,-182.41 67,-120 67.91,-117.64 68.86,-115.26 69.87,-112.86"/>
<polygon fill="none" stroke="#404040" points="69.97,-112.62 68.73,-105.52 74.8,-101.64 76.05,-108.74 69.97,-112.62"/>
<text text-anchor="middle" x="45.5" y="-239" font-family="Helvetica,sans-Serif" font-size="10.00"> #_t0</text>
</g>
<!-- Node4 -->
<g id="node4" class="node">
<title>Node4</title>
<g id="a_node4"><a xlink:title=" ">
<polygon fill="white" stroke="#bfbfbf" points="36,-265.5 36,-322.5 160,-322.5 160,-265.5 36,-265.5"/>
<text text-anchor="middle" x="98" y="-310.5" font-family="Helvetica,sans-Serif" font-size="10.00">std::vector&lt; double &gt;</text>
<polyline fill="none" stroke="#bfbfbf" points="36,-303.5 160,-303.5 "/>
<text text-anchor="middle" x="98" y="-291.5" font-family="Helvetica,sans-Serif" font-size="10.00"> </text>
<polyline fill="none" stroke="#bfbfbf" points="36,-284.5 160,-284.5 "/>
<text text-anchor="middle" x="98" y="-272.5" font-family="Helvetica,sans-Serif" font-size="10.00"> </text>
</a>
</g>
</g>
<!-- Node2&#45;&gt;Node4 -->
<g id="edge4" class="edge">
<title>Node2&#45;&gt;Node4</title>
<path fill="none" stroke="#404040" d="M29.73,-370.46C32.29,-360.6 36.17,-349.77 42,-341 44.19,-337.7 46.69,-334.51 49.4,-331.47"/>
<polygon fill="none" stroke="#404040" points="49.56,-331.3 50.92,-324.22 57.99,-322.76 56.62,-329.84 49.56,-331.3"/>
<text text-anchor="middle" x="71" y="-344" font-family="Helvetica,sans-Serif" font-size="10.00"> +elements</text>
</g>
<!-- Node3 -->
<g id="node3" class="node">
<title>Node3</title>
<g id="a_node3"><a xlink:title=" ">
<polygon fill="white" stroke="#bfbfbf" points="130.5,-149.5 130.5,-217.5 261.5,-217.5 261.5,-149.5 130.5,-149.5"/>
<text text-anchor="start" x="138.5" y="-205.5" font-family="Helvetica,sans-Serif" font-size="10.00">std::vector&lt; std::vector</text>
<text text-anchor="middle" x="196" y="-194.5" font-family="Helvetica,sans-Serif" font-size="10.00">&lt; double &gt; &gt;</text>
<polyline fill="none" stroke="#bfbfbf" points="130.5,-187.5 261.5,-187.5 "/>
<text text-anchor="middle" x="196" y="-175.5" font-family="Helvetica,sans-Serif" font-size="10.00"> </text>
<polyline fill="none" stroke="#bfbfbf" points="130.5,-168.5 261.5,-168.5 "/>
<text text-anchor="middle" x="196" y="-156.5" font-family="Helvetica,sans-Serif" font-size="10.00"> </text>
</a>
</g>
</g>
<!-- Node3&#45;&gt;Node1 -->
<g id="edge2" class="edge">
<title>Node3&#45;&gt;Node1</title>
<path fill="none" stroke="#404040" d="M171.78,-149.23C163.46,-137.8 153.87,-124.62 144.49,-111.74"/>
<polygon fill="none" stroke="#404040" points="144.44,-111.68 137.68,-109.18 137.38,-101.98 144.15,-104.47 144.44,-111.68"/>
<text text-anchor="middle" x="168.5" y="-123" font-family="Helvetica,sans-Serif" font-size="10.00"> #_r</text>
</g>
<!-- Node4&#45;&gt;Node1 -->
<g id="edge11" class="edge">
<title>Node4&#45;&gt;Node1</title>
<path fill="none" stroke="#404040" d="M83.51,-265.33C77.08,-251.52 70.24,-234.31 67,-218 61.03,-187.92 61.86,-179.23 67,-149 69.01,-137.19 72.3,-124.91 76.07,-113.21"/>
<polygon fill="none" stroke="#404040" points="76.1,-113.1 74.24,-106.14 79.96,-101.74 81.82,-108.71 76.1,-113.1"/>
<text text-anchor="middle" x="94" y="-192" font-family="Helvetica,sans-Serif" font-size="10.00"> #_lambda</text>
<text text-anchor="middle" x="94" y="-181" font-family="Helvetica,sans-Serif" font-size="10.00">#_p</text>
<text text-anchor="middle" x="94" y="-170" font-family="Helvetica,sans-Serif" font-size="10.00">#_x0</text>
</g>
<!-- Node4&#45;&gt;Node3 -->
<g id="edge3" class="edge">
<title>Node4&#45;&gt;Node3</title>
<path fill="none" stroke="#404040" d="M107.25,-265.23C111.39,-255.35 116.95,-244.56 124,-236 126.99,-232.37 130.3,-228.87 133.8,-225.52"/>
<polygon fill="none" stroke="#404040" points="133.86,-225.47 135.7,-218.5 142.85,-217.52 141,-224.49 133.86,-225.47"/>
<text text-anchor="middle" x="153" y="-239" font-family="Helvetica,sans-Serif" font-size="10.00"> +elements</text>
</g>
<!-- Node5 -->
<g id="node5" class="node">
<title>Node5</title>
<g id="a_node5"><a xlink:title=" ">
<polygon fill="white" stroke="#bfbfbf" points="147.5,-370.5 147.5,-427.5 244.5,-427.5 244.5,-370.5 147.5,-370.5"/>
<text text-anchor="middle" x="196" y="-415.5" font-family="Helvetica,sans-Serif" font-size="10.00">std::vector&lt; T &gt;</text>
<polyline fill="none" stroke="#bfbfbf" points="147.5,-408.5 244.5,-408.5 "/>
<text text-anchor="middle" x="196" y="-396.5" font-family="Helvetica,sans-Serif" font-size="10.00"> </text>
<polyline fill="none" stroke="#bfbfbf" points="147.5,-389.5 244.5,-389.5 "/>
<text text-anchor="middle" x="196" y="-377.5" font-family="Helvetica,sans-Serif" font-size="10.00"> </text>
</a>
</g>
</g>
<!-- Node5&#45;&gt;Node3 -->
<g id="edge7" class="edge">
<title>Node5&#45;&gt;Node3</title>
<path fill="none" stroke="orange" d="M196,-360.08C196,-319.64 196,-256.21 196,-217.68"/>
<polygon fill="orange" stroke="orange" points="192.5,-360.09 196,-370.09 199.5,-360.09 192.5,-360.09"/>
<text text-anchor="middle" x="262.5" y="-291.5" font-family="Helvetica,sans-Serif" font-size="10.00"> &lt; std::vector&lt; double &gt; &gt;</text>
</g>
<!-- Node5&#45;&gt;Node4 -->
<g id="edge5" class="edge">
<title>Node5&#45;&gt;Node4</title>
<path fill="none" stroke="orange" d="M139.07,-367.07C133.22,-362.5 127.7,-357.46 123,-352 115.74,-343.57 110.27,-332.69 106.33,-322.71"/>
<polygon fill="orange" stroke="orange" points="137.08,-369.95 147.23,-373.02 141.21,-364.3 137.08,-369.95"/>
<text text-anchor="middle" x="152.5" y="-344" font-family="Helvetica,sans-Serif" font-size="10.00"> &lt; double &gt;</text>
</g>
<!-- Node7 -->
<g id="node7" class="node">
<title>Node7</title>
<g id="a_node7"><a xlink:title=" ">
<polygon fill="white" stroke="#bfbfbf" points="347,-265.5 347,-322.5 457,-322.5 457,-265.5 347,-265.5"/>
<text text-anchor="middle" x="402" y="-310.5" font-family="Helvetica,sans-Serif" font-size="10.00">std::vector&lt; Ode &gt;</text>
<polyline fill="none" stroke="#bfbfbf" points="347,-303.5 457,-303.5 "/>
<text text-anchor="middle" x="402" y="-291.5" font-family="Helvetica,sans-Serif" font-size="10.00"> </text>
<polyline fill="none" stroke="#bfbfbf" points="347,-284.5 457,-284.5 "/>
<text text-anchor="middle" x="402" y="-272.5" font-family="Helvetica,sans-Serif" font-size="10.00"> </text>
</a>
</g>
</g>
<!-- Node5&#45;&gt;Node7 -->
<g id="edge10" class="edge">
<title>Node5&#45;&gt;Node7</title>
<path fill="none" stroke="orange" d="M253.79,-369.1C282.93,-354.53 318.1,-336.95 346.86,-322.57"/>
<polygon fill="orange" stroke="orange" points="251.94,-366.12 244.56,-373.72 255.07,-372.38 251.94,-366.12"/>
<text text-anchor="middle" x="328" y="-344" font-family="Helvetica,sans-Serif" font-size="10.00"> &lt; Ode &gt;</text>
</g>
<!-- Node6 -->
<g id="node6" class="node">
<title>Node6</title>
<g id="a_node6"><a xlink:title=" ">
<polygon fill="white" stroke="#bfbfbf" points="181.5,-475.5 181.5,-532.5 210.5,-532.5 210.5,-475.5 181.5,-475.5"/>
<text text-anchor="middle" x="196" y="-520.5" font-family="Helvetica,sans-Serif" font-size="10.00">T</text>
<polyline fill="none" stroke="#bfbfbf" points="181.5,-513.5 210.5,-513.5 "/>
<text text-anchor="middle" x="196" y="-501.5" font-family="Helvetica,sans-Serif" font-size="10.00"> </text>
<polyline fill="none" stroke="#bfbfbf" points="181.5,-494.5 210.5,-494.5 "/>
<text text-anchor="middle" x="196" y="-482.5" font-family="Helvetica,sans-Serif" font-size="10.00"> </text>
</a>
</g>
</g>
<!-- Node6&#45;&gt;Node5 -->
<g id="edge6" class="edge">
<title>Node6&#45;&gt;Node5</title>
<path fill="none" stroke="#404040" d="M196,-475.4C196,-464.55 196,-451.87 196,-440.05"/>
<polygon fill="none" stroke="#404040" points="196,-439.68 192,-433.68 196,-427.68 200,-433.68 196,-439.68"/>
<text text-anchor="middle" x="225" y="-449" font-family="Helvetica,sans-Serif" font-size="10.00"> +elements</text>
</g>
<!-- Node7&#45;&gt;Node1 -->
<g id="edge8" class="edge">
<title>Node7&#45;&gt;Node1</title>
<path fill="none" stroke="#404040" d="M381.04,-265.44C356.66,-234.58 314.09,-184.28 270,-149 235.44,-121.34 192.06,-96.62 157.91,-79.05"/>
<polygon fill="none" stroke="#404040" points="157.87,-79.03 150.71,-79.89 147.16,-73.61 154.33,-72.75 157.87,-79.03"/>
<text text-anchor="middle" x="353" y="-181" font-family="Helvetica,sans-Serif" font-size="10.00"> #_fs</text>
</g>
<!-- Node8 -->
<g id="node8" class="node">
<title>Node8</title>
<g id="a_node8"><a xlink:title=" ">
<polygon fill="white" stroke="#bfbfbf" points="384,-370.5 384,-427.5 420,-427.5 420,-370.5 384,-370.5"/>
<text text-anchor="middle" x="402" y="-415.5" font-family="Helvetica,sans-Serif" font-size="10.00">Ode</text>
<polyline fill="none" stroke="#bfbfbf" points="384,-408.5 420,-408.5 "/>
<text text-anchor="middle" x="402" y="-396.5" font-family="Helvetica,sans-Serif" font-size="10.00"> </text>
<polyline fill="none" stroke="#bfbfbf" points="384,-389.5 420,-389.5 "/>
<text text-anchor="middle" x="402" y="-377.5" font-family="Helvetica,sans-Serif" font-size="10.00"> </text>
</a>
</g>
</g>
<!-- Node8&#45;&gt;Node7 -->
<g id="edge9" class="edge">
<title>Node8&#45;&gt;Node7</title>
<path fill="none" stroke="#404040" d="M402,-370.4C402,-359.55 402,-346.87 402,-335.05"/>
<polygon fill="none" stroke="#404040" points="402,-334.68 398,-328.68 402,-322.68 406,-328.68 402,-334.68"/>
<text text-anchor="middle" x="431" y="-344" font-family="Helvetica,sans-Serif" font-size="10.00"> +elements</text>
</g>
</g>
</svg>
