<?xml version="1.0" encoding="UTF-8" standalone="no"?>
<!DOCTYPE svg PUBLIC "-//W3C//DTD SVG 1.1//EN"
 "http://www.w3.org/Graphics/SVG/1.1/DTD/svg11.dtd">
<!-- Generated by graphviz version 2.43.0 (0)
 -->
<!-- Title: rmvl/camera.hpp Pages: 1 -->
<!--zoomable 192 -->

<svg id="main" version="1.1" xmlns="http://www.w3.org/2000/svg" xmlns:xlink="http://www.w3.org/1999/xlink" xml:space="preserve" onload="init(evt)">

<style type="text/css"><![CDATA[
.node, .edge {opacity: 0.7;}
.node.selected, .edge.selected {opacity: 1;}
.edge:hover path { stroke: red; }
.edge:hover polygon { stroke: red; fill: red; }
]]></style>

<defs>
  <circle id="rim" cx="0" cy="0" r="7"/>
  <circle id="rim2" cx="0" cy="0" r="3.5"/>
  <g id="zoomPlus">
    <use xlink:href="#rim" fill="#404040"><set attributeName="fill" to="#808080" begin="zoomplus.mouseover" end="zoomplus.mouseout"/></use>
    <path d="M-4,0h8M0,-4v8" fill="none" stroke="white" stroke-width="1.5" pointer-events="none"/>
  </g>
  <g id="zoomMin">
    <use xlink:href="#rim" fill="#404040"><set attributeName="fill" to="#808080" begin="zoomminus.mouseover" end="zoomminus.mouseout"/></use>
    <path d="M-4,0h8" fill="none" stroke="white" stroke-width="1.5" pointer-events="none"/>
  </g>
  <g id="arrowUp" transform="translate(30 24)">
    <use xlink:href="#rim"/>
    <path pointer-events="none" fill="none" stroke="white" stroke-width="1.5" d="M0,-3.0v7 M-2.5,-0.5L0,-3.0L2.5,-0.5"/>
  </g>
  <g id="arrowRight" transform="rotate(90) translate(36 -43)">
    <use xlink:href="#rim"/>
    <path pointer-events="none" fill="none" stroke="white" stroke-width="1.5" d="M0,-3.0v7 M-2.5,-0.5L0,-3.0L2.5,-0.5"/>
  </g>
  <g id="arrowDown" transform="rotate(180) translate(-30 -48)">
    <use xlink:href="#rim"/>
    <path pointer-events="none" fill="none" stroke="white" stroke-width="1.5" d="M0,-3.0v7 M-2.5,-0.5L0,-3.0L2.5,-0.5"/>
  </g>
  <g id="arrowLeft" transform="rotate(270) translate(-36 17)">
    <use xlink:href="#rim"/>
    <path pointer-events="none" fill="none" stroke="white" stroke-width="1.5" d="M0,-3.0v7 M-2.5,-0.5L0,-3.0L2.5,-0.5"/>
  </g>
  <g id="resetDef">
    <use xlink:href="#rim2" fill="#404040"><set attributeName="fill" to="#808080" begin="reset.mouseover" end="reset.mouseout"/></use>
  </g>
</defs>
<script type="application/ecmascript">
var viewWidth = 551;
var viewHeight = 192;
var sectionId = 'dynsection-0';
</script>
<script type="application/ecmascript" xlink:href="../../svg.min.js"/>
<svg id="graph" class="graph">
<g id="viewport">
<title>rmvl/camera.hpp</title>
<!-- Node1 -->
<g id="Node000001" class="node">
<title>Node1</title>
<g id="a_Node000001"><a xlink:title="相机调用">
<polygon fill="#999999" stroke="#666666" points="341.5,-184 241.5,-184 241.5,-165 341.5,-165 341.5,-184"/>
<text text-anchor="middle" x="291.5" y="-172" font-family="Helvetica,sans-Serif" font-size="10.00">rmvl/camera.hpp</text>
</a>
</g>
</g>
<!-- Node2 -->
<g id="Node000002" class="node">
<title>Node2</title>
<g id="a_Node000002"><a xlink:title=" ">
<polygon fill="#e0e0e0" stroke="#999999" points="133,-19 0,-19 0,0 133,0 133,-19"/>
<text text-anchor="middle" x="66.5" y="-7" font-family="Helvetica,sans-Serif" font-size="10.00">rmvl/rmvl_modules.hpp</text>
</a>
</g>
</g>
<!-- Node1&#45;&gt;Node2 -->
<g id="edge1_Node000001_Node000002" class="edge">
<title>Node1&#45;&gt;Node2</title>
<g id="a_edge1_Node000001_Node000002"><a xlink:title=" ">
<path fill="none" stroke="#63b8ff" d="M241.25,-165.84C212.58,-159.57 177.15,-148.43 150.5,-129 113.78,-102.23 87.14,-54.45 74.58,-28.48"/>
<polygon fill="#63b8ff" stroke="#63b8ff" points="77.6,-26.69 70.2,-19.11 71.26,-29.65 77.6,-26.69"/>
</a>
</g>
</g>
<!-- Node3 -->
<g id="Node000003" class="node">
<title>Node3</title>
<g id="a_Node000003"><a xlink:href="../../d3/d7e/camutils_8hpp.html" target="_top" xlink:title=" ">
<polygon fill="white" stroke="#666666" points="446,-74 327,-74 327,-55 446,-55 446,-74"/>
<text text-anchor="middle" x="386.5" y="-62" font-family="Helvetica,sans-Serif" font-size="10.00">camera/camutils.hpp</text>
</a>
</g>
</g>
<!-- Node1&#45;&gt;Node3 -->
<g id="edge2_Node000001_Node000003" class="edge">
<title>Node1&#45;&gt;Node3</title>
<g id="a_edge2_Node000001_Node000003"><a xlink:title=" ">
<path fill="none" stroke="#63b8ff" d="M341.79,-171.89C373.36,-167.96 411.86,-157.16 432.5,-129 444.7,-112.36 426.32,-93.16 409.31,-80.27"/>
<polygon fill="#63b8ff" stroke="#63b8ff" points="410.88,-77.09 400.7,-74.15 406.82,-82.8 410.88,-77.09"/>
</a>
</g>
</g>
<!-- Node5 -->
<g id="Node000005" class="node">
<title>Node5</title>
<g id="a_Node000005"><a xlink:href="../../d1/d67/camera_2mv__camera_8h.html" target="_top" xlink:title="迈德威视相机库">
<polygon fill="white" stroke="#666666" points="283,-129 160,-129 160,-110 283,-110 283,-129"/>
<text text-anchor="middle" x="221.5" y="-117" font-family="Helvetica,sans-Serif" font-size="10.00">camera/mv_camera.h</text>
</a>
</g>
</g>
<!-- Node1&#45;&gt;Node5 -->
<g id="edge4_Node000001_Node000005" class="edge">
<title>Node1&#45;&gt;Node5</title>
<g id="a_edge4_Node000001_Node000005"><a xlink:title=" ">
<path fill="none" stroke="#63b8ff" d="M280.25,-164.98C269.7,-157 253.7,-144.88 241.06,-135.31"/>
<polygon fill="#63b8ff" stroke="#63b8ff" points="243.04,-132.42 232.95,-129.17 238.81,-138 243.04,-132.42"/>
</a>
</g>
</g>
<!-- Node11 -->
<g id="Node000011" class="node">
<title>Node11</title>
<g id="a_Node000011"><a xlink:href="../../da/d35/camera_2hik__camera_8h.html" target="_top" xlink:title="Hik Robot 工业相机库">
<polygon fill="white" stroke="#666666" points="423.5,-129 301.5,-129 301.5,-110 423.5,-110 423.5,-129"/>
<text text-anchor="middle" x="362.5" y="-117" font-family="Helvetica,sans-Serif" font-size="10.00">camera/hik_camera.h</text>
</a>
</g>
</g>
<!-- Node1&#45;&gt;Node11 -->
<g id="edge12_Node000001_Node000011" class="edge">
<title>Node1&#45;&gt;Node11</title>
<g id="a_edge12_Node000001_Node000011"><a xlink:title=" ">
<path fill="none" stroke="#63b8ff" d="M302.91,-164.98C313.61,-157 329.84,-144.88 342.66,-135.31"/>
<polygon fill="#63b8ff" stroke="#63b8ff" points="344.97,-137.96 350.89,-129.17 340.78,-132.35 344.97,-137.96"/>
</a>
</g>
</g>
<!-- Node4 -->
<g id="Node000004" class="node">
<title>Node4</title>
<g id="a_Node000004"><a xlink:title=" ">
<polygon fill="#e0e0e0" stroke="#999999" points="543,-19 440,-19 440,0 543,0 543,-19"/>
<text text-anchor="middle" x="491.5" y="-7" font-family="Helvetica,sans-Serif" font-size="10.00">opencv2/core.hpp</text>
</a>
</g>
</g>
<!-- Node3&#45;&gt;Node4 -->
<g id="edge3_Node000003_Node000004" class="edge">
<title>Node3&#45;&gt;Node4</title>
<g id="a_edge3_Node000003_Node000004"><a xlink:title=" ">
<path fill="none" stroke="#63b8ff" d="M403.37,-54.98C420.11,-46.54 446,-33.47 465.39,-23.68"/>
<polygon fill="#63b8ff" stroke="#63b8ff" points="466.97,-26.8 474.32,-19.17 463.82,-20.55 466.97,-26.8"/>
</a>
</g>
</g>
<!-- Node5&#45;&gt;Node3 -->
<g id="edge5_Node000005_Node000003" class="edge">
<title>Node5&#45;&gt;Node3</title>
<g id="a_edge5_Node000005_Node000003"><a xlink:title=" ">
<path fill="none" stroke="#63b8ff" d="M248.01,-109.98C275.71,-101.09 319.36,-87.07 350.24,-77.15"/>
<polygon fill="#63b8ff" stroke="#63b8ff" points="351.33,-80.47 359.78,-74.08 349.19,-73.81 351.33,-80.47"/>
</a>
</g>
</g>
<!-- Node6 -->
<g id="Node000006" class="node">
<title>Node6</title>
<g id="a_Node000006"><a xlink:href="../../d0/d3f/util_8hpp.html" target="_top" xlink:title=" ">
<polygon fill="white" stroke="#666666" points="303,-74 200,-74 200,-55 303,-55 303,-74"/>
<text text-anchor="middle" x="251.5" y="-62" font-family="Helvetica,sans-Serif" font-size="10.00">rmvl/core/util.hpp</text>
</a>
</g>
</g>
<!-- Node5&#45;&gt;Node6 -->
<g id="edge6_Node000005_Node000006" class="edge">
<title>Node5&#45;&gt;Node6</title>
<g id="a_edge6_Node000005_Node000006"><a xlink:title=" ">
<path fill="none" stroke="#63b8ff" d="M226.45,-109.75C230.56,-102.49 236.53,-91.95 241.6,-82.98"/>
<polygon fill="#63b8ff" stroke="#63b8ff" points="244.76,-84.52 246.64,-74.09 238.67,-81.07 244.76,-84.52"/>
</a>
</g>
</g>
<!-- Node6&#45;&gt;Node2 -->
<g id="edge7_Node000006_Node000002" class="edge">
<title>Node6&#45;&gt;Node2</title>
<g id="a_edge7_Node000006_Node000002"><a xlink:title=" ">
<path fill="none" stroke="#63b8ff" d="M221.78,-54.98C190.45,-46.01 140.93,-31.82 106.26,-21.89"/>
<polygon fill="#63b8ff" stroke="#63b8ff" points="107.03,-18.47 96.46,-19.08 105.11,-25.2 107.03,-18.47"/>
</a>
</g>
</g>
<!-- Node7 -->
<g id="Node000007" class="node">
<title>Node7</title>
<g id="a_Node000007"><a xlink:title=" ">
<polygon fill="#e0e0e0" stroke="#999999" points="357.5,-19 307.5,-19 307.5,0 357.5,0 357.5,-19"/>
<text text-anchor="middle" x="332.5" y="-7" font-family="Helvetica,sans-Serif" font-size="10.00">cstdint</text>
</a>
</g>
</g>
<!-- Node6&#45;&gt;Node7 -->
<g id="edge8_Node000006_Node000007" class="edge">
<title>Node6&#45;&gt;Node7</title>
<g id="a_edge8_Node000006_Node000007"><a xlink:title=" ">
<path fill="none" stroke="#63b8ff" d="M264.51,-54.98C276.96,-46.84 295.96,-34.41 310.71,-24.76"/>
<polygon fill="#63b8ff" stroke="#63b8ff" points="312.8,-27.57 319.25,-19.17 308.96,-21.72 312.8,-27.57"/>
</a>
</g>
</g>
<!-- Node8 -->
<g id="Node000008" class="node">
<title>Node8</title>
<g id="a_Node000008"><a xlink:title=" ">
<polygon fill="#e0e0e0" stroke="#999999" points="421.5,-19 375.5,-19 375.5,0 421.5,0 421.5,-19"/>
<text text-anchor="middle" x="398.5" y="-7" font-family="Helvetica,sans-Serif" font-size="10.00">cstdio</text>
</a>
</g>
</g>
<!-- Node6&#45;&gt;Node8 -->
<g id="edge9_Node000006_Node000008" class="edge">
<title>Node6&#45;&gt;Node8</title>
<g id="a_edge9_Node000006_Node000008"><a xlink:title=" ">
<path fill="none" stroke="#63b8ff" d="M275.12,-54.98C299.69,-46.12 338.36,-32.18 365.85,-22.27"/>
<polygon fill="#63b8ff" stroke="#63b8ff" points="367.21,-25.5 375.43,-18.82 364.83,-18.92 367.21,-25.5"/>
</a>
</g>
</g>
<!-- Node9 -->
<g id="Node000009" class="node">
<title>Node9</title>
<g id="a_Node000009"><a xlink:title=" ">
<polygon fill="#e0e0e0" stroke="#999999" points="195.5,-19 151.5,-19 151.5,0 195.5,0 195.5,-19"/>
<text text-anchor="middle" x="173.5" y="-7" font-family="Helvetica,sans-Serif" font-size="10.00">string</text>
</a>
</g>
</g>
<!-- Node6&#45;&gt;Node9 -->
<g id="edge10_Node000006_Node000009" class="edge">
<title>Node6&#45;&gt;Node9</title>
<g id="a_edge10_Node000006_Node000009"><a xlink:title=" ">
<path fill="none" stroke="#63b8ff" d="M238.97,-54.98C227.1,-46.92 209.04,-34.65 194.89,-25.03"/>
<polygon fill="#63b8ff" stroke="#63b8ff" points="196.5,-21.9 186.26,-19.17 192.56,-27.69 196.5,-21.9"/>
</a>
</g>
</g>
<!-- Node10 -->
<g id="Node000010" class="node">
<title>Node10</title>
<g id="a_Node000010"><a xlink:href="../../db/d41/rmvldef_8hpp.html" target="_top" xlink:title=" ">
<polygon fill="white" stroke="#666666" points="289,-19 214,-19 214,0 289,0 289,-19"/>
<text text-anchor="middle" x="251.5" y="-7" font-family="Helvetica,sans-Serif" font-size="10.00">rmvldef.hpp</text>
</a>
</g>
</g>
<!-- Node6&#45;&gt;Node10 -->
<g id="edge11_Node000006_Node000010" class="edge">
<title>Node6&#45;&gt;Node10</title>
<g id="a_edge11_Node000006_Node000010"><a xlink:title=" ">
<path fill="none" stroke="#63b8ff" d="M251.5,-54.75C251.5,-47.8 251.5,-37.85 251.5,-29.13"/>
<polygon fill="#63b8ff" stroke="#63b8ff" points="255,-29.09 251.5,-19.09 248,-29.09 255,-29.09"/>
</a>
</g>
</g>
<!-- Node11&#45;&gt;Node3 -->
<g id="edge13_Node000011_Node000003" class="edge">
<title>Node11&#45;&gt;Node3</title>
<g id="a_edge13_Node000011_Node000003"><a xlink:title=" ">
<path fill="none" stroke="#63b8ff" d="M366.46,-109.75C369.71,-102.57 374.42,-92.18 378.45,-83.27"/>
<polygon fill="#63b8ff" stroke="#63b8ff" points="381.67,-84.64 382.61,-74.09 375.3,-81.75 381.67,-84.64"/>
</a>
</g>
</g>
<!-- Node11&#45;&gt;Node6 -->
<g id="edge14_Node000011_Node000006" class="edge">
<title>Node11&#45;&gt;Node6</title>
<g id="a_edge14_Node000011_Node000006"><a xlink:title=" ">
<path fill="none" stroke="#63b8ff" d="M344.67,-109.98C326.89,-101.5 299.35,-88.35 278.82,-78.54"/>
<polygon fill="#63b8ff" stroke="#63b8ff" points="280.19,-75.32 269.66,-74.17 277.17,-81.64 280.19,-75.32"/>
</a>
</g>
</g>
</g>
</svg>

<g id="navigator" transform="translate(0 0)" fill="#404254">
  <rect fill="#f2f5e9" fill-opacity="0.5" stroke="#606060" stroke-width=".5" x="0" y="0" width="60" height="60"/>
  <use id="zoomplus" xlink:href="#zoomPlus" x="17" y="9" onmousedown="handleZoom(evt,'in')"/>
  <use id="zoomminus" xlink:href="#zoomMin" x="42" y="9" onmousedown="handleZoom(evt,'out')"/>
  <use id="reset" xlink:href="#resetDef" x="30" y="36" onmousedown="handleReset()"/>
   <use id="arrowup" xlink:href="#arrowUp" x="0" y="0" onmousedown="handlePan(0,-1)"/>
  <use id="arrowright" xlink:href="#arrowRight" x="0" y="0" onmousedown="handlePan(1,0)"/>
  <use id="arrowdown" xlink:href="#arrowDown" x="0" y="0" onmousedown="handlePan(0,1)"/>
  <use id="arrowleft" xlink:href="#arrowLeft" x="0" y="0" onmousedown="handlePan(-1,0)"/>
</g>
<svg viewBox="0 0 15 15" width="100%" height="30px" preserveAspectRatio="xMaxYMin meet">
 <g id="arrow_out" transform="scale(0.3 0.3)">
  <a xlink:href="rmvl_2camera_8hpp__incl_org.svg" target="_base">
   <rect id="button" ry="5" rx="5" y="6" x="6" height="38" width="38"
        fill="#f2f5e9" fill-opacity="0.5" stroke="#606060" stroke-width="1.0"/>
   <path id="arrow"
     d="M 11.500037,31.436501 C 11.940474,20.09759 22.043105,11.32322 32.158766,21.979434 L 37.068811,17.246167 C 37.068811,17.246167 37.088388,32 37.088388,32 L 22.160133,31.978069 C 22.160133,31.978069 26.997745,27.140456 26.997745,27.140456 C 18.528582,18.264221 13.291696,25.230495 11.500037,31.436501 z"
     style="fill:#404040;"/>
  </a>
 </g>
</svg>

<style type='text/css'>
<![CDATA[
[data-mouse-over-selected='false'] { opacity: 0.7; }
[data-mouse-over-selected='true']  { opacity: 1.0; }
]]>
</style>
<script type="application/ecmascript"><![CDATA[
document.addEventListener('DOMContentLoaded', (event) => {
  highlightEdges();
  highlightAdjacentNodes();
});
]]></script>
</svg>
