<?xml version="1.0" encoding="UTF-8" standalone="no"?>
<!DOCTYPE svg PUBLIC "-//W3C//DTD SVG 1.1//EN"
 "http://www.w3.org/Graphics/SVG/1.1/DTD/svg11.dtd">
<!-- Generated by graphviz version 14.1.2 (0)
 -->
<!-- Title: 相机模块 Pages: 1 -->
<svg width="250pt" height="214pt"
 viewBox="0.00 0.00 250.00 214.00" xmlns="http://www.w3.org/2000/svg" xmlns:xlink="http://www.w3.org/1999/xlink">
<g id="graph0" class="graph" transform="scale(1 1) rotate(0) translate(4 210)">
<title>相机模块</title>
<!-- Node1 -->
<g id="Node000001" class="node">
<title>Node1</title>
<g id="a_Node000001"><a xlink:title=" ">
<polygon fill="#999999" stroke="#666666" points="55,-114.5 0,-114.5 0,-91.5 55,-91.5 55,-114.5"/>
<text xml:space="preserve" text-anchor="middle" x="27.5" y="-101" font-family="Helvetica,sans-Serif" font-size="10.00">相机模块</text>
</a>
</g>
</g>
<!-- Node2 -->
<g id="Node000002" class="node">
<title>Node2</title>
<g id="a_Node000002"><a xlink:href="../../d4/d59/group__galaxy__camera.html" target="_top" xlink:title=" ">
<polygon fill="white" stroke="#666666" points="242,-206 91,-206 91,-168 242,-168 242,-206"/>
<text xml:space="preserve" text-anchor="start" x="99" y="-192.5" font-family="Helvetica,sans-Serif" font-size="10.00">大恒图像 Galaxy</text>
<text xml:space="preserve" text-anchor="middle" x="166.5" y="-177.5" font-family="Helvetica,sans-Serif" font-size="10.00"> USB3.0/GigE 系列工业相机库</text>
</a>
</g>
</g>
<!-- Node1&#45;&gt;Node2 -->
<g id="edge1" class="edge">
<title>Node1&#45;&gt;Node2</title>
<path fill="none" stroke="black" d="M46.72,-122.68C58.46,-134.46 74.56,-149.03 91,-159 96.08,-162.08 101.56,-164.92 107.15,-167.5"/>
<polygon fill="black" stroke="black" points="49.52,-120.54 40.05,-115.79 44.49,-125.41 49.52,-120.54"/>
</g>
<!-- Node3 -->
<g id="Node000003" class="node">
<title>Node3</title>
<g id="a_Node000003"><a xlink:href="../../db/d27/group__hik__camera.html" target="_top" xlink:title=" ">
<polygon fill="white" stroke="#666666" points="222.88,-150 110.12,-150 110.12,-112 222.88,-112 222.88,-150"/>
<text xml:space="preserve" text-anchor="start" x="118.12" y="-136.5" font-family="Helvetica,sans-Serif" font-size="10.00">海康机器人 USB3.0</text>
<text xml:space="preserve" text-anchor="middle" x="166.5" y="-121.5" font-family="Helvetica,sans-Serif" font-size="10.00">/GigE 系列工业相机库</text>
</a>
</g>
</g>
<!-- Node1&#45;&gt;Node3 -->
<g id="edge2" class="edge">
<title>Node1&#45;&gt;Node3</title>
<path fill="none" stroke="black" d="M66.41,-110.75C79.78,-113.48 95.1,-116.61 109.64,-119.58"/>
<polygon fill="black" stroke="black" points="67.22,-107.34 56.72,-108.77 65.82,-114.2 67.22,-107.34"/>
</g>
<!-- Node4 -->
<g id="Node000004" class="node">
<title>Node4</title>
<g id="a_Node000004"><a xlink:href="../../dd/df4/group__mv__camera.html" target="_top" xlink:title=" ">
<polygon fill="white" stroke="#666666" points="212.75,-94 120.25,-94 120.25,-56 212.75,-56 212.75,-94"/>
<text xml:space="preserve" text-anchor="start" x="128.25" y="-80.5" font-family="Helvetica,sans-Serif" font-size="10.00">迈德威视 USB3.0</text>
<text xml:space="preserve" text-anchor="middle" x="166.5" y="-65.5" font-family="Helvetica,sans-Serif" font-size="10.00"> 相机库</text>
</a>
</g>
</g>
<!-- Node1&#45;&gt;Node4 -->
<g id="edge3" class="edge">
<title>Node1&#45;&gt;Node4</title>
<path fill="none" stroke="black" d="M66.2,-95.3C82.82,-91.9 102.5,-87.88 119.94,-84.31"/>
<polygon fill="black" stroke="black" points="65.82,-91.8 56.72,-97.23 67.22,-98.66 65.82,-91.8"/>
</g>
<!-- Node5 -->
<g id="Node000005" class="node">
<title>Node5</title>
<g id="a_Node000005"><a xlink:href="../../d4/d5d/group__opt__camera.html" target="_top" xlink:title=" ">
<polygon fill="white" stroke="#666666" points="242,-38 91,-38 91,0 242,0 242,-38"/>
<text xml:space="preserve" text-anchor="start" x="99" y="-24.5" font-family="Helvetica,sans-Serif" font-size="10.00">奥普特机器视觉</text>
<text xml:space="preserve" text-anchor="middle" x="166.5" y="-9.5" font-family="Helvetica,sans-Serif" font-size="10.00"> USB3.0/GigE 系列工业相机库</text>
</a>
</g>
</g>
<!-- Node1&#45;&gt;Node5 -->
<g id="edge4" class="edge">
<title>Node1&#45;&gt;Node5</title>
<path fill="none" stroke="black" d="M46.72,-83.32C58.46,-71.54 74.56,-56.97 91,-47 96.08,-43.92 101.56,-41.08 107.15,-38.5"/>
<polygon fill="black" stroke="black" points="44.49,-80.59 40.05,-90.21 49.52,-85.46 44.49,-80.59"/>
</g>
</g>
</svg>
