<?xml version="1.0" encoding="UTF-8" standalone="no"?>
<!DOCTYPE svg PUBLIC "-//W3C//DTD SVG 1.1//EN"
 "http://www.w3.org/Graphics/SVG/1.1/DTD/svg11.dtd">
<!-- Generated by graphviz version 14.1.2 (0)
 -->
<!-- Title: rm::LoggerOptions Pages: 1 -->
<!--zoomable 201 -->

<svg id="main" version="1.1" xmlns="http://www.w3.org/2000/svg" xmlns:xlink="http://www.w3.org/1999/xlink" xml:space="preserve">

<style type="text/css"><![CDATA[
.node, .edge {opacity: 0.7;}
.node.selected, .edge.selected {opacity: 1;}
.edge:hover path { stroke: red; }
.edge:hover polygon { stroke: red; fill: red; }
]]></style>

<defs>
  <circle id="rim" cx="0" cy="0" r="7"/>
  <circle id="rim2" cx="0" cy="0" r="3.5"/>
  <g id="zoomPlus">
    <use xlink:href="#rim" fill="#404040"><set attributeName="fill" to="#808080" begin="zoomplus.mouseover" end="zoomplus.mouseout"/></use>
    <path d="M-4,0h8M0,-4v8" fill="none" stroke="white" stroke-width="1.5" pointer-events="none"/>
  </g>
  <g id="zoomMin">
    <use xlink:href="#rim" fill="#404040"><set attributeName="fill" to="#808080" begin="zoomminus.mouseover" end="zoomminus.mouseout"/></use>
    <path d="M-4,0h8" fill="none" stroke="white" stroke-width="1.5" pointer-events="none"/>
  </g>
  <g id="arrowUp" transform="translate(30 24)">
    <use xlink:href="#rim"/>
    <path pointer-events="none" fill="none" stroke="white" stroke-width="1.5" d="M0,-3.0v7 M-2.5,-0.5L0,-3.0L2.5,-0.5"/>
  </g>
  <g id="arrowRight" transform="rotate(90) translate(36 -43)">
    <use xlink:href="#rim"/>
    <path pointer-events="none" fill="none" stroke="white" stroke-width="1.5" d="M0,-3.0v7 M-2.5,-0.5L0,-3.0L2.5,-0.5"/>
  </g>
  <g id="arrowDown" transform="rotate(180) translate(-30 -48)">
    <use xlink:href="#rim"/>
    <path pointer-events="none" fill="none" stroke="white" stroke-width="1.5" d="M0,-3.0v7 M-2.5,-0.5L0,-3.0L2.5,-0.5"/>
  </g>
  <g id="arrowLeft" transform="rotate(270) translate(-36 17)">
    <use xlink:href="#rim"/>
    <path pointer-events="none" fill="none" stroke="white" stroke-width="1.5" d="M0,-3.0v7 M-2.5,-0.5L0,-3.0L2.5,-0.5"/>
  </g>
  <g id="resetDef">
    <use xlink:href="#rim2" fill="#404040"><set attributeName="fill" to="#808080" begin="reset.mouseover" end="reset.mouseout"/></use>
  </g>
</defs>
<script type="application/ecmascript" xlink:href="../../svg.min.js"/>
<svg id="graph" class="graph" data-view-width="547" data-view-height="201" data-section-id="dynsection-0">
<g id="viewport">
<title>rm::LoggerOptions</title>
<!-- Node1 -->
<g id="Node000001" class="node">
<title>Node1</title>
<g id="a_Node000001"><a xlink:title="日志公共配置">
<polygon fill="#999999" stroke="none" points="256.75,-54.25 158.75,-54.25 158.75,0 256.75,0 256.75,-54.25"/>
<text xml:space="preserve" text-anchor="start" x="162.75" y="-40.75" font-family="Helvetica,sans-Serif" font-size="10.00">rm::LoggerOptions</text>
<text xml:space="preserve" text-anchor="start" x="206.25" y="-24" font-family="Helvetica,sans-Serif" font-size="10.00"> </text>
<text xml:space="preserve" text-anchor="start" x="206.25" y="-7.25" font-family="Helvetica,sans-Serif" font-size="10.00"> </text>
<polygon fill="#666666" stroke="#666666" points="158.75,-35.5 158.75,-35.5 256.75,-35.5 256.75,-35.5 158.75,-35.5"/>
<polygon fill="#666666" stroke="#666666" points="158.75,-18.75 158.75,-18.75 256.75,-18.75 256.75,-18.75 158.75,-18.75"/>
<polygon fill="none" stroke="#666666" points="158.75,0 158.75,-54.25 256.75,-54.25 256.75,0 158.75,0"/>
</a>
</g>
</g>
<!-- Node2 -->
<g id="Node000002" class="node">
<title>Node2</title>
<g id="a_Node000002"><a xlink:title=" ">
<polygon fill="white" stroke="none" points="51.5,-186.38 0,-186.38 0,-132.12 51.5,-132.12 51.5,-186.38"/>
<text xml:space="preserve" text-anchor="start" x="4" y="-172.88" font-family="Helvetica,sans-Serif" font-size="10.00">LogLevel</text>
<text xml:space="preserve" text-anchor="start" x="24.25" y="-156.12" font-family="Helvetica,sans-Serif" font-size="10.00"> </text>
<text xml:space="preserve" text-anchor="start" x="24.25" y="-139.38" font-family="Helvetica,sans-Serif" font-size="10.00"> </text>
<polygon fill="#666666" stroke="#666666" points="0,-167.62 0,-167.62 51.5,-167.62 51.5,-167.62 0,-167.62"/>
<polygon fill="#666666" stroke="#666666" points="0,-150.88 0,-150.88 51.5,-150.88 51.5,-150.88 0,-150.88"/>
<polygon fill="none" stroke="#666666" points="0,-132.12 0,-186.38 51.5,-186.38 51.5,-132.12 0,-132.12"/>
</a>
</g>
</g>
<!-- Node2&#45;&gt;Node1 -->
<g id="edge1_Node000001_Node000002" class="edge">
<title>Node2&#45;&gt;Node1</title>
<g id="a_edge1_Node000001_Node000002"><a xlink:title=" ">
<path fill="none" stroke="#63b8ff" d="M32.01,-132.23C37.89,-113.12 48.54,-87.86 66.5,-72.25 88.68,-52.97 119.24,-42.11 146.26,-36"/>
<polygon fill="none" stroke="#63b8ff" points="146.15,-36.02 151.22,-30.9 157.9,-33.61 152.83,-38.74 146.15,-36.02"/>
</a>
</g>
<text xml:space="preserve" text-anchor="start" x="69.5" y="-86.88" font-family="Helvetica,sans-Serif" font-size="10.00" fill="grey">+level</text>
</g>
<!-- Node3 -->
<g id="Node000003" class="node">
<title>Node3</title>
<g id="a_Node000003"><a xlink:title=" ">
<polygon fill="white" stroke="none" points="139.5,-186.38 70,-186.38 70,-132.12 139.5,-132.12 139.5,-186.38"/>
<text xml:space="preserve" text-anchor="start" x="74" y="-172.88" font-family="Helvetica,sans-Serif" font-size="10.00">milliseconds</text>
<text xml:space="preserve" text-anchor="start" x="103.25" y="-156.12" font-family="Helvetica,sans-Serif" font-size="10.00"> </text>
<text xml:space="preserve" text-anchor="start" x="103.25" y="-139.38" font-family="Helvetica,sans-Serif" font-size="10.00"> </text>
<polygon fill="#666666" stroke="#666666" points="70,-167.62 70,-167.62 139.5,-167.62 139.5,-167.62 70,-167.62"/>
<polygon fill="#666666" stroke="#666666" points="70,-150.88 70,-150.88 139.5,-150.88 139.5,-150.88 70,-150.88"/>
<polygon fill="none" stroke="#666666" points="70,-132.12 70,-186.38 139.5,-186.38 139.5,-132.12 70,-132.12"/>
</a>
</g>
</g>
<!-- Node3&#45;&gt;Node1 -->
<g id="edge2_Node000001_Node000003" class="edge">
<title>Node3&#45;&gt;Node1</title>
<g id="a_edge2_Node000001_Node000003"><a xlink:title=" ">
<path fill="none" stroke="#63b8ff" d="M104.79,-132.15C106.07,-113.73 110.43,-89.38 123.5,-72.25 129.91,-63.85 138.37,-56.89 147.47,-51.18"/>
<polygon fill="none" stroke="#63b8ff" points="147.54,-51.14 150.81,-44.71 158,-45.26 154.73,-51.69 147.54,-51.14"/>
</a>
</g>
<text xml:space="preserve" text-anchor="start" x="126.5" y="-86.88" font-family="Helvetica,sans-Serif" font-size="10.00" fill="grey">+flush_interval</text>
</g>
<!-- Node4 -->
<g id="Node000004" class="node">
<title>Node4</title>
<g id="a_Node000004"><a xlink:title=" ">
<polygon fill="white" stroke="none" points="226,-186.38 189.5,-186.38 189.5,-132.12 226,-132.12 226,-186.38"/>
<text xml:space="preserve" text-anchor="start" x="193.5" y="-172.88" font-family="Helvetica,sans-Serif" font-size="10.00">size_t</text>
<text xml:space="preserve" text-anchor="start" x="206.25" y="-156.12" font-family="Helvetica,sans-Serif" font-size="10.00"> </text>
<text xml:space="preserve" text-anchor="start" x="206.25" y="-139.38" font-family="Helvetica,sans-Serif" font-size="10.00"> </text>
<polygon fill="#666666" stroke="#666666" points="189.5,-167.62 189.5,-167.62 226,-167.62 226,-167.62 189.5,-167.62"/>
<polygon fill="#666666" stroke="#666666" points="189.5,-150.88 189.5,-150.88 226,-150.88 226,-150.88 189.5,-150.88"/>
<polygon fill="none" stroke="#666666" points="189.5,-132.12 189.5,-186.38 226,-186.38 226,-132.12 189.5,-132.12"/>
</a>
</g>
</g>
<!-- Node4&#45;&gt;Node1 -->
<g id="edge3_Node000001_Node000004" class="edge">
<title>Node4&#45;&gt;Node1</title>
<g id="a_edge3_Node000001_Node000004"><a xlink:title=" ">
<path fill="none" stroke="#63b8ff" d="M207.75,-132.23C207.75,-113.52 207.75,-87.99 207.75,-66.89"/>
<polygon fill="none" stroke="#63b8ff" points="207.75,-67 203.75,-61 207.75,-55 211.75,-61 207.75,-67"/>
</a>
</g>
<text xml:space="preserve" text-anchor="start" x="210.75" y="-95.25" font-family="Helvetica,sans-Serif" font-size="10.00" fill="grey">+max_queue_memory</text>
<text xml:space="preserve" text-anchor="start" x="210.75" y="-78.5" font-family="Helvetica,sans-Serif" font-size="10.00" fill="grey">+queue_memory_limit</text>
</g>
<!-- Node5 -->
<g id="Node000005" class="node">
<title>Node5</title>
<g id="a_Node000005"><a xlink:title=" ">
<polygon fill="white" stroke="none" points="398.75,-186.38 300.75,-186.38 300.75,-132.12 398.75,-132.12 398.75,-186.38"/>
<text xml:space="preserve" text-anchor="start" x="304.75" y="-172.88" font-family="Helvetica,sans-Serif" font-size="10.00">LogOverflowPolicy</text>
<text xml:space="preserve" text-anchor="start" x="348.25" y="-156.12" font-family="Helvetica,sans-Serif" font-size="10.00"> </text>
<text xml:space="preserve" text-anchor="start" x="348.25" y="-139.38" font-family="Helvetica,sans-Serif" font-size="10.00"> </text>
<polygon fill="#666666" stroke="#666666" points="300.75,-167.62 300.75,-167.62 398.75,-167.62 398.75,-167.62 300.75,-167.62"/>
<polygon fill="#666666" stroke="#666666" points="300.75,-150.88 300.75,-150.88 398.75,-150.88 398.75,-150.88 300.75,-150.88"/>
<polygon fill="none" stroke="#666666" points="300.75,-132.12 300.75,-186.38 398.75,-186.38 398.75,-132.12 300.75,-132.12"/>
</a>
</g>
</g>
<!-- Node5&#45;&gt;Node1 -->
<g id="edge4_Node000001_Node000005" class="edge">
<title>Node5&#45;&gt;Node1</title>
<g id="a_edge4_Node000001_Node000005"><a xlink:title=" ">
<path fill="none" stroke="#63b8ff" d="M349.31,-132.33C347.65,-113.52 342.52,-88.61 327.75,-72.25 312.52,-55.38 290.27,-44.95 269.06,-38.5"/>
<polygon fill="none" stroke="#63b8ff" points="269.2,-38.54 262.35,-40.82 257.62,-35.38 264.46,-33.1 269.2,-38.54"/>
</a>
</g>
<text xml:space="preserve" text-anchor="start" x="347.8" y="-86.88" font-family="Helvetica,sans-Serif" font-size="10.00" fill="grey">+overflow_policy</text>
</g>
<!-- Node6 -->
<g id="Node000006" class="node">
<title>Node6</title>
<g id="a_Node000006"><a xlink:title=" ">
<polygon fill="white" stroke="none" points="515.12,-192.75 416.38,-192.75 416.38,-125.75 515.12,-125.75 515.12,-192.75"/>
<text xml:space="preserve" text-anchor="start" x="420.38" y="-179.25" font-family="Helvetica,sans-Serif" font-size="10.00">function&lt; void(std</text>
<text xml:space="preserve" text-anchor="start" x="428.62" y="-166.5" font-family="Helvetica,sans-Serif" font-size="10.00">::string_view)&gt;</text>
<text xml:space="preserve" text-anchor="start" x="464.25" y="-149.75" font-family="Helvetica,sans-Serif" font-size="10.00"> </text>
<text xml:space="preserve" text-anchor="start" x="464.25" y="-133" font-family="Helvetica,sans-Serif" font-size="10.00"> </text>
<polygon fill="#666666" stroke="#666666" points="416.38,-161.25 416.38,-161.25 515.12,-161.25 515.12,-161.25 416.38,-161.25"/>
<polygon fill="#666666" stroke="#666666" points="416.38,-144.5 416.38,-144.5 515.12,-144.5 515.12,-144.5 416.38,-144.5"/>
<polygon fill="none" stroke="#666666" points="416.38,-125.75 416.38,-192.75 515.12,-192.75 515.12,-125.75 416.38,-125.75"/>
</a>
</g>
</g>
<!-- Node6&#45;&gt;Node1 -->
<g id="edge5_Node000001_Node000006" class="edge">
<title>Node6&#45;&gt;Node1</title>
<g id="a_edge5_Node000001_Node000006"><a xlink:title=" ">
<path fill="none" stroke="#63b8ff" d="M464.01,-126.11C461.29,-107.78 454.83,-85.81 439.75,-72.25 415.15,-50.12 329.35,-38.36 269.29,-32.68"/>
<polygon fill="none" stroke="#63b8ff" points="269.37,-32.69 263.04,-36.13 257.42,-31.61 263.76,-28.17 269.37,-32.69"/>
</a>
</g>
<text xml:space="preserve" text-anchor="start" x="462.91" y="-86.88" font-family="Helvetica,sans-Serif" font-size="10.00" fill="grey">+error_handler</text>
</g>
</g>
</svg>

<g id="navigator" transform="translate(0 0)" fill="#404254">
  <rect fill="#f2f5e9" fill-opacity="0.5" stroke="#606060" stroke-width=".5" x="0" y="0" width="60" height="60"/>
  <use id="zoomplus" xlink:href="#zoomPlus" x="17" y="9" data-zoom="in"/>
  <use id="zoomminus" xlink:href="#zoomMin" x="42" y="9" data-zoom="out"/>
  <use id="reset" xlink:href="#resetDef" x="30" y="36" data-reset="true"/>
  <use id="arrowup" xlink:href="#arrowUp" x="0" y="0" data-pan-x="0" data-pan-y="-1"/>
  <use id="arrowright" xlink:href="#arrowRight" x="0" y="0" data-pan-x="1" data-pan-y="0"/>
  <use id="arrowdown" xlink:href="#arrowDown" x="0" y="0" data-pan-x="0" data-pan-y="1"/>
  <use id="arrowleft" xlink:href="#arrowLeft" x="0" y="0" data-pan-x="-1" data-pan-y="0"/>
</g>
<svg viewBox="0 0 15 15" width="100%" height="30px" preserveAspectRatio="xMaxYMin meet">
 <g id="arrow_out" transform="scale(0.3 0.3)">
  <a xlink:href="structrm_1_1LoggerOptions__coll__graph_org.svg" target="_base">
   <rect id="button" ry="5" rx="5" y="6" x="6" height="38" width="38"
        fill="#f2f5e9" fill-opacity="0.5" stroke="#606060" stroke-width="1.0"/>
   <path id="arrow"
     d="M 11.500037,31.436501 C 11.940474,20.09759 22.043105,11.32322 32.158766,21.979434 L 37.068811,17.246167 C 37.068811,17.246167 37.088388,32 37.088388,32 L 22.160133,31.978069 C 22.160133,31.978069 26.997745,27.140456 26.997745,27.140456 C 18.528582,18.264221 13.291696,25.230495 11.500037,31.436501 z"
     style="fill:#404040;"/>
  </a>
 </g>
</svg>

<style type='text/css'>
<![CDATA[
[data-mouse-over-selected='false'] { opacity: 0.7; }
[data-mouse-over-selected='true']  { opacity: 1.0; }
]]>
</style>
</svg>
