<?xml version="1.0" encoding="UTF-8" standalone="no"?>
<!DOCTYPE svg PUBLIC "-//W3C//DTD SVG 1.1//EN"
 "http://www.w3.org/Graphics/SVG/1.1/DTD/svg11.dtd">
<!-- Generated by graphviz version 2.43.0 (0)
 -->
<!-- Title: rm::msg::Float64 Pages: 1 -->
<svg width="127pt" height="204pt"
 viewBox="0.00 0.00 126.50 204.00" xmlns="http://www.w3.org/2000/svg" xmlns:xlink="http://www.w3.org/1999/xlink">

<svg id="main" version="1.1" xmlns="http://www.w3.org/2000/svg" xmlns:xlink="http://www.w3.org/1999/xlink" xml:space="preserve">

<style type="text/css"><![CDATA[
.node, .edge {opacity: 0.7;}
.node.selected, .edge.selected {opacity: 1;}
.edge:hover path { stroke: red; }
.edge:hover polygon { stroke: red; fill: red; }
]]></style>
<script type="application/ecmascript" xlink:href="../../svg.min.js"/>
<svg id="graph" class="graph">
<g id="graph0" class="graph" transform="scale(1 1) rotate(0) translate(4 200)">
<title>rm::msg::Float64</title>
<!-- Node1 -->
<g id="Node000001" class="node">
<title>Node1</title>
<g id="a_Node000001"><a xlink:title="Float64 消息类型：std/Float64">
<polygon fill="#999999" stroke="transparent" points="89.5,-94 3.5,-94 3.5,0 89.5,0 89.5,-94"/>
<text text-anchor="start" x="9" y="-82" font-family="Helvetica,sans-Serif" font-size="10.00">rm::msg::Float64</text>
<text text-anchor="start" x="44.5" y="-67" font-family="Helvetica,sans-Serif" font-size="10.00"> </text>
<text text-anchor="start" x="7.5" y="-52" font-family="Helvetica,sans-Serif" font-size="10.00">+</text>
<text text-anchor="start" x="18.5" y="-52" font-family="Helvetica,sans-Serif" font-size="10.00">serialize()</text>
<text text-anchor="start" x="7.5" y="-37" font-family="Helvetica,sans-Serif" font-size="10.00">+</text>
<text text-anchor="start" x="18.5" y="-37" font-family="Helvetica,sans-Serif" font-size="10.00">json()</text>
<text text-anchor="start" x="7.5" y="-22" font-family="Helvetica,sans-Serif" font-size="10.00">+</text>
<text text-anchor="start" x="18.5" y="-22" font-family="Helvetica,sans-Serif" font-size="10.00">compact_size()</text>
<text text-anchor="start" x="7.5" y="-7" font-family="Helvetica,sans-Serif" font-size="10.00">+</text>
<text text-anchor="start" x="18.5" y="-7" font-family="Helvetica,sans-Serif" font-size="10.00">deserialize()</text>
<polygon fill="#666666" stroke="#666666" points="3.5,-77 3.5,-77 89.5,-77 89.5,-77 3.5,-77"/>
<polygon fill="#666666" stroke="#666666" points="3.5,-62 3.5,-62 89.5,-62 89.5,-62 3.5,-62"/>
<polygon fill="none" stroke="#666666" points="3.5,0 3.5,-94 89.5,-94 89.5,0 3.5,0"/>
</a>
</g>
</g>
<!-- Node2 -->
<g id="Node000002" class="node">
<title>Node2</title>
<g id="a_Node000002"><a xlink:title=" ">
<polygon fill="white" stroke="transparent" points="39,-196 0,-196 0,-147 39,-147 39,-196"/>
<text text-anchor="start" x="5.5" y="-183.5" font-family="Helvetica,sans-Serif" font-size="10.00">double</text>
<text text-anchor="start" x="18" y="-168.5" font-family="Helvetica,sans-Serif" font-size="10.00"> </text>
<text text-anchor="start" x="18" y="-153.5" font-family="Helvetica,sans-Serif" font-size="10.00"> </text>
<polygon fill="#666666" stroke="#666666" points="0.5,-178.5 0.5,-178.5 39.5,-178.5 39.5,-178.5 0.5,-178.5"/>
<polygon fill="#666666" stroke="#666666" points="0.5,-163.5 0.5,-163.5 39.5,-163.5 39.5,-163.5 0.5,-163.5"/>
<polygon fill="none" stroke="#666666" points="0,-147 0,-196 39,-196 39,-147 0,-147"/>
</a>
</g>
</g>
<!-- Node2&#45;&gt;Node1 -->
<g id="edge1_Node000001_Node000002" class="edge">
<title>Node2&#45;&gt;Node1</title>
<g id="a_edge1_Node000001_Node000002"><a xlink:title=" ">
<path fill="none" stroke="#63b8ff" d="M17.94,-146.94C17.73,-136.19 18.18,-123.35 20.5,-112 20.91,-109.98 21.39,-107.94 21.91,-105.9"/>
<polygon fill="none" stroke="#63b8ff" points="21.97,-105.71 19.86,-98.81 25.42,-94.22 27.53,-101.11 21.97,-105.71"/>
</a>
</g>
<text text-anchor="start" x="24" y="-117.5" font-family="Helvetica,sans-Serif" font-size="10.00" fill="grey">+data</text>
</g>
<!-- Node3 -->
<g id="Node000003" class="node">
<title>Node3</title>
<g id="a_Node000003"><a xlink:title=" ">
<polygon fill="white" stroke="transparent" points="88,-196 59,-196 59,-147 88,-147 88,-196"/>
<text text-anchor="start" x="64.5" y="-183.5" font-family="Helvetica,sans-Serif" font-size="10.00">char</text>
<text text-anchor="start" x="72" y="-168.5" font-family="Helvetica,sans-Serif" font-size="10.00"> </text>
<text text-anchor="start" x="72" y="-153.5" font-family="Helvetica,sans-Serif" font-size="10.00"> </text>
<polygon fill="#666666" stroke="#666666" points="59.5,-178.5 59.5,-178.5 88.5,-178.5 88.5,-178.5 59.5,-178.5"/>
<polygon fill="#666666" stroke="#666666" points="59.5,-163.5 59.5,-163.5 88.5,-163.5 88.5,-163.5 59.5,-163.5"/>
<polygon fill="none" stroke="#666666" points="59,-147 59,-196 88,-196 88,-147 59,-147"/>
</a>
</g>
</g>
<!-- Node3&#45;&gt;Node1 -->
<g id="edge2_Node000001_Node000003" class="edge">
<title>Node3&#45;&gt;Node1</title>
<g id="a_edge2_Node000001_Node000003"><a xlink:title=" ">
<path fill="none" stroke="#63b8ff" d="M68.29,-146.88C65.72,-135.2 62.49,-120.54 59.31,-106.12"/>
<polygon fill="none" stroke="#63b8ff" points="59.25,-105.85 54.05,-100.85 56.67,-94.13 61.86,-99.12 59.25,-105.85"/>
</a>
</g>
<text text-anchor="start" x="67" y="-117.5" font-family="Helvetica,sans-Serif" font-size="10.00" fill="grey">+msg_type</text>
</g>
</g>
</svg>
</svg>

<style type='text/css'>
<![CDATA[
[data-mouse-over-selected='false'] { opacity: 0.7; }
[data-mouse-over-selected='true']  { opacity: 1.0; }
]]>
</style>
<script type="application/ecmascript"><![CDATA[
document.addEventListener('DOMContentLoaded', (event) => {
  highlightEdges();
  highlightAdjacentNodes();
});
]]></script>
</svg>
