<?xml version="1.0" encoding="UTF-8" standalone="no"?>
<!DOCTYPE svg PUBLIC "-//W3C//DTD SVG 1.1//EN"
 "http://www.w3.org/Graphics/SVG/1.1/DTD/svg11.dtd">
<!-- Generated by graphviz version 2.43.0 (0)
 -->
<!-- Title: rmvl/tracker/gyro_tracker.h Pages: 1 -->
<!--zoomable 368 -->

<svg id="main" version="1.1" xmlns="http://www.w3.org/2000/svg" xmlns:xlink="http://www.w3.org/1999/xlink" xml:space="preserve" onload="init(evt)">

<style type="text/css"><![CDATA[
.node, .edge {opacity: 0.7;}
.node.selected, .edge.selected {opacity: 1;}
.edge:hover path { stroke: red; }
.edge:hover polygon { stroke: red; fill: red; }
]]></style>

<defs>
  <circle id="rim" cx="0" cy="0" r="7"/>
  <circle id="rim2" cx="0" cy="0" r="3.5"/>
  <g id="zoomPlus">
    <use xlink:href="#rim" fill="#404040"><set attributeName="fill" to="#808080" begin="zoomplus.mouseover" end="zoomplus.mouseout"/></use>
    <path d="M-4,0h8M0,-4v8" fill="none" stroke="white" stroke-width="1.5" pointer-events="none"/>
  </g>
  <g id="zoomMin">
    <use xlink:href="#rim" fill="#404040"><set attributeName="fill" to="#808080" begin="zoomminus.mouseover" end="zoomminus.mouseout"/></use>
    <path d="M-4,0h8" fill="none" stroke="white" stroke-width="1.5" pointer-events="none"/>
  </g>
  <g id="arrowUp" transform="translate(30 24)">
    <use xlink:href="#rim"/>
    <path pointer-events="none" fill="none" stroke="white" stroke-width="1.5" d="M0,-3.0v7 M-2.5,-0.5L0,-3.0L2.5,-0.5"/>
  </g>
  <g id="arrowRight" transform="rotate(90) translate(36 -43)">
    <use xlink:href="#rim"/>
    <path pointer-events="none" fill="none" stroke="white" stroke-width="1.5" d="M0,-3.0v7 M-2.5,-0.5L0,-3.0L2.5,-0.5"/>
  </g>
  <g id="arrowDown" transform="rotate(180) translate(-30 -48)">
    <use xlink:href="#rim"/>
    <path pointer-events="none" fill="none" stroke="white" stroke-width="1.5" d="M0,-3.0v7 M-2.5,-0.5L0,-3.0L2.5,-0.5"/>
  </g>
  <g id="arrowLeft" transform="rotate(270) translate(-36 17)">
    <use xlink:href="#rim"/>
    <path pointer-events="none" fill="none" stroke="white" stroke-width="1.5" d="M0,-3.0v7 M-2.5,-0.5L0,-3.0L2.5,-0.5"/>
  </g>
  <g id="resetDef">
    <use xlink:href="#rim2" fill="#404040"><set attributeName="fill" to="#808080" begin="reset.mouseover" end="reset.mouseout"/></use>
  </g>
</defs>
<script type="application/ecmascript">
var viewWidth = 1258;
var viewHeight = 368;
var sectionId = 'dynsection-0';
</script>
<script type="application/ecmascript" xlink:href="../../svg.min.js"/>
<svg id="graph" class="graph">
<g id="viewport">
<title>rmvl/tracker/gyro_tracker.h</title>
<!-- Node1 -->
<g id="Node000001" class="node">
<title>Node1</title>
<g id="a_Node000001"><a xlink:title="装甲板追踪器头文件">
<polygon fill="#999999" stroke="#666666" points="538.5,-360 390.5,-360 390.5,-341 538.5,-341 538.5,-360"/>
<text text-anchor="middle" x="464.5" y="-348" font-family="Helvetica,sans-Serif" font-size="10.00">rmvl/tracker/gyro_tracker.h</text>
</a>
</g>
</g>
<!-- Node2 -->
<g id="Node000002" class="node">
<title>Node2</title>
<g id="a_Node000002"><a xlink:href="../../db/d0f/kalman_8hpp.html" target="_top" xlink:title="包含轻量级 cv::Matx 的卡尔曼滤波模块">
<polygon fill="white" stroke="#666666" points="664,-305 515,-305 515,-286 664,-286 664,-305"/>
<text text-anchor="middle" x="589.5" y="-293" font-family="Helvetica,sans-Serif" font-size="10.00">rmvl/algorithm/kalman.hpp</text>
</a>
</g>
</g>
<!-- Node1&#45;&gt;Node2 -->
<g id="edge1_Node000001_Node000002" class="edge">
<title>Node1&#45;&gt;Node2</title>
<g id="a_edge1_Node000001_Node000002"><a xlink:title=" ">
<path fill="none" stroke="#63b8ff" d="M484.58,-340.98C504.87,-332.38 536.46,-318.99 559.67,-309.15"/>
<polygon fill="#63b8ff" stroke="#63b8ff" points="561.21,-312.3 569.05,-305.17 558.48,-305.85 561.21,-312.3"/>
</a>
</g>
</g>
<!-- Node5 -->
<g id="Node000005" class="node">
<title>Node5</title>
<g id="a_Node000005"><a xlink:href="../../dd/d92/combo_2armor_8h.html" target="_top" xlink:title="装甲板类头文件">
<polygon fill="white" stroke="#666666" points="410.5,-305 294.5,-305 294.5,-286 410.5,-286 410.5,-305"/>
<text text-anchor="middle" x="352.5" y="-293" font-family="Helvetica,sans-Serif" font-size="10.00">rmvl/combo/armor.h</text>
</a>
</g>
</g>
<!-- Node1&#45;&gt;Node5 -->
<g id="edge4_Node000001_Node000005" class="edge">
<title>Node1&#45;&gt;Node5</title>
<g id="a_edge4_Node000001_Node000005"><a xlink:title=" ">
<path fill="none" stroke="#63b8ff" d="M446.51,-340.98C428.57,-332.5 400.78,-319.35 380.07,-309.54"/>
<polygon fill="#63b8ff" stroke="#63b8ff" points="381.36,-306.28 370.82,-305.17 378.36,-312.61 381.36,-306.28"/>
</a>
</g>
</g>
<!-- Node30 -->
<g id="Node000030" class="node">
<title>Node30</title>
<g id="a_Node000030"><a xlink:href="../../dc/ded/tracker_8h.html" target="_top" xlink:title="追踪器抽象头文件">
<polygon fill="white" stroke="#666666" points="494,-305 435,-305 435,-286 494,-286 494,-305"/>
<text text-anchor="middle" x="464.5" y="-293" font-family="Helvetica,sans-Serif" font-size="10.00">tracker.h</text>
</a>
</g>
</g>
<!-- Node1&#45;&gt;Node30 -->
<g id="edge38_Node000001_Node000030" class="edge">
<title>Node1&#45;&gt;Node30</title>
<g id="a_edge38_Node000001_Node000030"><a xlink:title=" ">
<path fill="none" stroke="#63b8ff" d="M464.5,-340.75C464.5,-333.8 464.5,-323.85 464.5,-315.13"/>
<polygon fill="#63b8ff" stroke="#63b8ff" points="468,-315.09 464.5,-305.09 461,-315.09 468,-315.09"/>
</a>
</g>
</g>
<!-- Node3 -->
<g id="Node000003" class="node">
<title>Node3</title>
<g id="a_Node000003"><a xlink:title=" ">
<polygon fill="#e0e0e0" stroke="#999999" points="622,-244.5 557,-244.5 557,-225.5 622,-225.5 622,-244.5"/>
<text text-anchor="middle" x="589.5" y="-232.5" font-family="Helvetica,sans-Serif" font-size="10.00">functional</text>
</a>
</g>
</g>
<!-- Node2&#45;&gt;Node3 -->
<g id="edge2_Node000002_Node000003" class="edge">
<title>Node2&#45;&gt;Node3</title>
<g id="a_edge2_Node000002_Node000003"><a xlink:title=" ">
<path fill="none" stroke="#63b8ff" d="M589.5,-285.87C589.5,-277.75 589.5,-265.31 589.5,-254.89"/>
<polygon fill="#63b8ff" stroke="#63b8ff" points="593,-254.67 589.5,-244.67 586,-254.67 593,-254.67"/>
</a>
</g>
</g>
<!-- Node4 -->
<g id="Node000004" class="node">
<title>Node4</title>
<g id="a_Node000004"><a xlink:title=" ">
<polygon fill="#e0e0e0" stroke="#999999" points="774,-129 671,-129 671,-110 774,-110 774,-129"/>
<text text-anchor="middle" x="722.5" y="-117" font-family="Helvetica,sans-Serif" font-size="10.00">opencv2/core.hpp</text>
</a>
</g>
</g>
<!-- Node2&#45;&gt;Node4 -->
<g id="edge3_Node000002_Node000004" class="edge">
<title>Node2&#45;&gt;Node4</title>
<g id="a_edge3_Node000002_Node000004"><a xlink:title=" ">
<path fill="none" stroke="#63b8ff" d="M599.48,-285.72C608.66,-277.26 622.23,-263.74 631.5,-250 654.74,-215.54 645.46,-198.18 670.5,-165 679.11,-153.59 691.12,-143.08 701.42,-135.14"/>
<polygon fill="#63b8ff" stroke="#63b8ff" points="703.61,-137.87 709.56,-129.11 699.44,-132.24 703.61,-137.87"/>
</a>
</g>
</g>
<!-- Node6 -->
<g id="Node000006" class="node">
<title>Node6</title>
<g id="a_Node000006"><a xlink:title=" ">
<polygon fill="#e0e0e0" stroke="#999999" points="397,-244.5 302,-244.5 302,-225.5 397,-225.5 397,-244.5"/>
<text text-anchor="middle" x="349.5" y="-232.5" font-family="Helvetica,sans-Serif" font-size="10.00">opencv2/ml.hpp</text>
</a>
</g>
</g>
<!-- Node5&#45;&gt;Node6 -->
<g id="edge5_Node000005_Node000006" class="edge">
<title>Node5&#45;&gt;Node6</title>
<g id="a_edge5_Node000005_Node000006"><a xlink:title=" ">
<path fill="none" stroke="#63b8ff" d="M352.06,-285.87C351.64,-277.75 351,-265.31 350.47,-254.89"/>
<polygon fill="#63b8ff" stroke="#63b8ff" points="353.95,-254.47 349.94,-244.67 346.96,-254.83 353.95,-254.47"/>
</a>
</g>
</g>
<!-- Node7 -->
<g id="Node000007" class="node">
<title>Node7</title>
<g id="a_Node000007"><a xlink:href="../../d8/d36/combo_8h.html" target="_top" xlink:title="the combination of the features header file">
<polygon fill="white" stroke="#666666" points="474,-244.5 415,-244.5 415,-225.5 474,-225.5 474,-244.5"/>
<text text-anchor="middle" x="444.5" y="-232.5" font-family="Helvetica,sans-Serif" font-size="10.00">combo.h</text>
</a>
</g>
</g>
<!-- Node5&#45;&gt;Node7 -->
<g id="edge6_Node000005_Node000007" class="edge">
<title>Node5&#45;&gt;Node7</title>
<g id="a_edge6_Node000005_Node000007"><a xlink:title=" ">
<path fill="none" stroke="#63b8ff" d="M366.07,-285.87C380.89,-276.45 404.83,-261.23 422.36,-250.08"/>
<polygon fill="#63b8ff" stroke="#63b8ff" points="424.31,-252.99 430.87,-244.67 420.55,-247.08 424.31,-252.99"/>
</a>
</g>
</g>
<!-- Node29 -->
<g id="Node000029" class="node">
<title>Node29</title>
<g id="a_Node000029"><a xlink:href="../../d4/d54/feature_2light__blob_8h.html" target="_top" xlink:title="灯条类头文件">
<polygon fill="white" stroke="#666666" points="283.5,-250 181.5,-250 181.5,-220 283.5,-220 283.5,-250"/>
<text text-anchor="start" x="189.5" y="-238" font-family="Helvetica,sans-Serif" font-size="10.00">rmvl/feature/light</text>
<text text-anchor="middle" x="232.5" y="-227" font-family="Helvetica,sans-Serif" font-size="10.00">_blob.h</text>
</a>
</g>
</g>
<!-- Node5&#45;&gt;Node29 -->
<g id="edge36_Node000005_Node000029" class="edge">
<title>Node5&#45;&gt;Node29</title>
<g id="a_edge36_Node000005_Node000029"><a xlink:title=" ">
<path fill="none" stroke="#63b8ff" d="M335.05,-285.99C318.29,-277.82 292.4,-265.2 270.83,-254.69"/>
<polygon fill="#63b8ff" stroke="#63b8ff" points="272.1,-251.41 261.58,-250.18 269.04,-257.71 272.1,-251.41"/>
</a>
</g>
</g>
<!-- Node8 -->
<g id="Node000008" class="node">
<title>Node8</title>
<g id="a_Node000008"><a xlink:href="../../d4/d78/math_8hpp.html" target="_top" xlink:title="基础数学库">
<polygon fill="white" stroke="#666666" points="981,-184 842,-184 842,-165 981,-165 981,-184"/>
<text text-anchor="middle" x="911.5" y="-172" font-family="Helvetica,sans-Serif" font-size="10.00">rmvl/algorithm/math.hpp</text>
</a>
</g>
</g>
<!-- Node7&#45;&gt;Node8 -->
<g id="edge7_Node000007_Node000008" class="edge">
<title>Node7&#45;&gt;Node8</title>
<g id="a_edge7_Node000007_Node000008"><a xlink:title=" ">
<path fill="none" stroke="#63b8ff" d="M464.72,-225.48C470.39,-223.39 476.61,-221.36 482.5,-220 632.14,-185.34 675.77,-199.86 831.81,-184.15"/>
<polygon fill="#63b8ff" stroke="#63b8ff" points="832.17,-187.63 841.76,-183.12 831.45,-180.67 832.17,-187.63"/>
</a>
</g>
</g>
<!-- Node20 -->
<g id="Node000020" class="node">
<title>Node20</title>
<g id="a_Node000020"><a xlink:href="../../d3/d7e/camutils_8hpp.html" target="_top" xlink:title=" ">
<polygon fill="white" stroke="#666666" points="824,-184 679,-184 679,-165 824,-165 824,-184"/>
<text text-anchor="middle" x="751.5" y="-172" font-family="Helvetica,sans-Serif" font-size="10.00">rmvl/camera/camutils.hpp</text>
</a>
</g>
</g>
<!-- Node7&#45;&gt;Node20 -->
<g id="edge19_Node000007_Node000020" class="edge">
<title>Node7&#45;&gt;Node20</title>
<g id="a_edge19_Node000007_Node000020"><a xlink:title=" ">
<path fill="none" stroke="#63b8ff" d="M465.58,-225.43C471.02,-223.44 476.93,-221.47 482.5,-220 543.98,-203.75 615.01,-192.3 668.64,-185.09"/>
<polygon fill="#63b8ff" stroke="#63b8ff" points="669.33,-188.52 678.79,-183.74 668.41,-181.58 669.33,-188.52"/>
</a>
</g>
</g>
<!-- Node21 -->
<g id="Node000021" class="node">
<title>Node21</title>
<g id="a_Node000021"><a xlink:href="../../dd/de3/types_8hpp.html" target="_top" xlink:title="常用状态类型定义">
<polygon fill="white" stroke="#666666" points="241.5,-129 151.5,-129 151.5,-110 241.5,-110 241.5,-129"/>
<text text-anchor="middle" x="196.5" y="-117" font-family="Helvetica,sans-Serif" font-size="10.00">rmvl/types.hpp</text>
</a>
</g>
</g>
<!-- Node7&#45;&gt;Node21 -->
<g id="edge22_Node000007_Node000021" class="edge">
<title>Node7&#45;&gt;Node21</title>
<g id="a_edge22_Node000007_Node000021"><a xlink:title=" ">
<path fill="none" stroke="#63b8ff" d="M427.73,-225.38C401.47,-211.98 348.94,-185.55 303.5,-165 278.22,-153.57 249.13,-141.54 227.67,-132.88"/>
<polygon fill="#63b8ff" stroke="#63b8ff" points="228.97,-129.63 218.39,-129.15 226.36,-136.13 228.97,-129.63"/>
</a>
</g>
</g>
<!-- Node22 -->
<g id="Node000022" class="node">
<title>Node22</title>
<g id="a_Node000022"><a xlink:href="../../d2/dc6/io_8hpp.html" target="_top" xlink:title="数据 IO 与通信模块">
<polygon fill="white" stroke="#666666" points="500.5,-184 404.5,-184 404.5,-165 500.5,-165 500.5,-184"/>
<text text-anchor="middle" x="452.5" y="-172" font-family="Helvetica,sans-Serif" font-size="10.00">rmvl/core/io.hpp</text>
</a>
</g>
</g>
<!-- Node7&#45;&gt;Node22 -->
<g id="edge24_Node000007_Node000022" class="edge">
<title>Node7&#45;&gt;Node22</title>
<g id="a_edge24_Node000007_Node000022"><a xlink:title=" ">
<path fill="none" stroke="#63b8ff" d="M445.68,-225.37C446.79,-217.25 448.49,-204.81 449.92,-194.39"/>
<polygon fill="#63b8ff" stroke="#63b8ff" points="453.43,-194.55 451.31,-184.17 446.49,-193.6 453.43,-194.55"/>
</a>
</g>
</g>
<!-- Node27 -->
<g id="Node000027" class="node">
<title>Node27</title>
<g id="a_Node000027"><a xlink:href="../../d2/d74/feature_8h.html" target="_top" xlink:title="feature class header">
<polygon fill="white" stroke="#666666" points="295,-184 170,-184 170,-165 295,-165 295,-184"/>
<text text-anchor="middle" x="232.5" y="-172" font-family="Helvetica,sans-Serif" font-size="10.00">rmvl/feature/feature.h</text>
</a>
</g>
</g>
<!-- Node7&#45;&gt;Node27 -->
<g id="edge32_Node000007_Node000027" class="edge">
<title>Node7&#45;&gt;Node27</title>
<g id="a_edge32_Node000007_Node000027"><a xlink:title=" ">
<path fill="none" stroke="#63b8ff" d="M421.93,-225.5C416.58,-223.59 410.86,-221.65 405.5,-220 363.41,-207.06 314.79,-194.79 279.83,-186.42"/>
<polygon fill="#63b8ff" stroke="#63b8ff" points="280.44,-182.97 269.9,-184.06 278.82,-189.78 280.44,-182.97"/>
</a>
</g>
</g>
<!-- Node9 -->
<g id="Node000009" class="node">
<title>Node9</title>
<g id="a_Node000009"><a xlink:title=" ">
<polygon fill="#e0e0e0" stroke="#999999" points="1250,-129 1203,-129 1203,-110 1250,-110 1250,-129"/>
<text text-anchor="middle" x="1226.5" y="-117" font-family="Helvetica,sans-Serif" font-size="10.00">cmath</text>
</a>
</g>
</g>
<!-- Node8&#45;&gt;Node9 -->
<g id="edge8_Node000008_Node000009" class="edge">
<title>Node8&#45;&gt;Node9</title>
<g id="a_edge8_Node000008_Node000009"><a xlink:title=" ">
<path fill="none" stroke="#63b8ff" d="M978.47,-164.96C1033.68,-157.47 1114.2,-145.5 1192.74,-129.2"/>
<polygon fill="#63b8ff" stroke="#63b8ff" points="1193.73,-132.57 1202.8,-127.09 1192.29,-125.72 1193.73,-132.57"/>
</a>
</g>
</g>
<!-- Node10 -->
<g id="Node000010" class="node">
<title>Node10</title>
<g id="a_Node000010"><a xlink:title=" ">
<polygon fill="#e0e0e0" stroke="#999999" points="924.5,-129 868.5,-129 868.5,-110 924.5,-110 924.5,-129"/>
<text text-anchor="middle" x="896.5" y="-117" font-family="Helvetica,sans-Serif" font-size="10.00">numeric</text>
</a>
</g>
</g>
<!-- Node8&#45;&gt;Node10 -->
<g id="edge9_Node000008_Node000010" class="edge">
<title>Node8&#45;&gt;Node10</title>
<g id="a_edge9_Node000008_Node000010"><a xlink:title=" ">
<path fill="none" stroke="#63b8ff" d="M909.02,-164.75C907.04,-157.72 904.18,-147.62 901.69,-138.84"/>
<polygon fill="#63b8ff" stroke="#63b8ff" points="905.02,-137.76 898.93,-129.09 898.29,-139.66 905.02,-137.76"/>
</a>
</g>
</g>
<!-- Node11 -->
<g id="Node000011" class="node">
<title>Node11</title>
<g id="a_Node000011"><a xlink:title=" ">
<polygon fill="#e0e0e0" stroke="#999999" points="1036,-129 943,-129 943,-110 1036,-110 1036,-129"/>
<text text-anchor="middle" x="989.5" y="-117" font-family="Helvetica,sans-Serif" font-size="10.00">unordered_map</text>
</a>
</g>
</g>
<!-- Node8&#45;&gt;Node11 -->
<g id="edge10_Node000008_Node000011" class="edge">
<title>Node8&#45;&gt;Node11</title>
<g id="a_edge10_Node000008_Node000011"><a xlink:title=" ">
<path fill="none" stroke="#63b8ff" d="M924.03,-164.98C935.9,-156.92 953.96,-144.65 968.11,-135.03"/>
<polygon fill="#63b8ff" stroke="#63b8ff" points="970.44,-137.69 976.74,-129.17 966.5,-131.9 970.44,-137.69"/>
</a>
</g>
</g>
<!-- Node12 -->
<g id="Node000012" class="node">
<title>Node12</title>
<g id="a_Node000012"><a xlink:title=" ">
<polygon fill="#e0e0e0" stroke="#999999" points="653,-129 606,-129 606,-110 653,-110 653,-129"/>
<text text-anchor="middle" x="629.5" y="-117" font-family="Helvetica,sans-Serif" font-size="10.00">vector</text>
</a>
</g>
</g>
<!-- Node8&#45;&gt;Node12 -->
<g id="edge11_Node000008_Node000012" class="edge">
<title>Node8&#45;&gt;Node12</title>
<g id="a_edge11_Node000008_Node000012"><a xlink:title=" ">
<path fill="none" stroke="#63b8ff" d="M856.86,-164.95C808.43,-157.1 735.6,-144.62 663.01,-128.97"/>
<polygon fill="#63b8ff" stroke="#63b8ff" points="663.76,-125.55 653.24,-126.84 662.27,-132.39 663.76,-125.55"/>
</a>
</g>
</g>
<!-- Node13 -->
<g id="Node000013" class="node">
<title>Node13</title>
<g id="a_Node000013"><a xlink:title=" ">
<polygon fill="#e0e0e0" stroke="#999999" points="1185,-129 1054,-129 1054,-110 1185,-110 1185,-129"/>
<text text-anchor="middle" x="1119.5" y="-117" font-family="Helvetica,sans-Serif" font-size="10.00">opencv2/core/matx.hpp</text>
</a>
</g>
</g>
<!-- Node8&#45;&gt;Node13 -->
<g id="edge12_Node000008_Node000013" class="edge">
<title>Node8&#45;&gt;Node13</title>
<g id="a_edge12_Node000008_Node000013"><a xlink:title=" ">
<path fill="none" stroke="#63b8ff" d="M944.92,-164.98C980.44,-155.93 1036.77,-141.58 1075.8,-131.64"/>
<polygon fill="#63b8ff" stroke="#63b8ff" points="1076.99,-134.94 1085.82,-129.08 1075.26,-128.16 1076.99,-134.94"/>
</a>
</g>
</g>
<!-- Node14 -->
<g id="Node000014" class="node">
<title>Node14</title>
<g id="a_Node000014"><a xlink:href="../../d0/d3f/util_8hpp.html" target="_top" xlink:title=" ">
<polygon fill="white" stroke="#666666" points="528,-74 425,-74 425,-55 528,-55 528,-74"/>
<text text-anchor="middle" x="476.5" y="-62" font-family="Helvetica,sans-Serif" font-size="10.00">rmvl/core/util.hpp</text>
</a>
</g>
</g>
<!-- Node8&#45;&gt;Node14 -->
<g id="edge13_Node000008_Node000014" class="edge">
<title>Node8&#45;&gt;Node14</title>
<g id="a_edge13_Node000008_Node000014"><a xlink:title=" ">
<path fill="none" stroke="#63b8ff" d="M897.9,-164.93C875.16,-151.03 827.55,-123.73 783.5,-110 700.95,-84.26 601.18,-73.3 538.27,-68.71"/>
<polygon fill="#63b8ff" stroke="#63b8ff" points="538.33,-65.21 528.12,-68 537.85,-72.19 538.33,-65.21"/>
</a>
</g>
</g>
<!-- Node15 -->
<g id="Node000015" class="node">
<title>Node15</title>
<g id="a_Node000015"><a xlink:title=" ">
<polygon fill="#e0e0e0" stroke="#999999" points="651,-19 518,-19 518,0 651,0 651,-19"/>
<text text-anchor="middle" x="584.5" y="-7" font-family="Helvetica,sans-Serif" font-size="10.00">rmvl/rmvl_modules.hpp</text>
</a>
</g>
</g>
<!-- Node14&#45;&gt;Node15 -->
<g id="edge14_Node000014_Node000015" class="edge">
<title>Node14&#45;&gt;Node15</title>
<g id="a_edge14_Node000014_Node000015"><a xlink:title=" ">
<path fill="none" stroke="#63b8ff" d="M493.85,-54.98C511.07,-46.54 537.7,-33.47 557.65,-23.68"/>
<polygon fill="#63b8ff" stroke="#63b8ff" points="559.4,-26.72 566.83,-19.17 556.31,-20.43 559.4,-26.72"/>
</a>
</g>
</g>
<!-- Node16 -->
<g id="Node000016" class="node">
<title>Node16</title>
<g id="a_Node000016"><a xlink:title=" ">
<polygon fill="#e0e0e0" stroke="#999999" points="435.5,-19 385.5,-19 385.5,0 435.5,0 435.5,-19"/>
<text text-anchor="middle" x="410.5" y="-7" font-family="Helvetica,sans-Serif" font-size="10.00">cstdint</text>
</a>
</g>
</g>
<!-- Node14&#45;&gt;Node16 -->
<g id="edge15_Node000014_Node000016" class="edge">
<title>Node14&#45;&gt;Node16</title>
<g id="a_edge15_Node000014_Node000016"><a xlink:title=" ">
<path fill="none" stroke="#63b8ff" d="M465.9,-54.98C456.04,-47.07 441.15,-35.11 429.28,-25.58"/>
<polygon fill="#63b8ff" stroke="#63b8ff" points="431.29,-22.7 421.3,-19.17 426.9,-28.16 431.29,-22.7"/>
</a>
</g>
</g>
<!-- Node17 -->
<g id="Node000017" class="node">
<title>Node17</title>
<g id="a_Node000017"><a xlink:title=" ">
<polygon fill="#e0e0e0" stroke="#999999" points="499.5,-19 453.5,-19 453.5,0 499.5,0 499.5,-19"/>
<text text-anchor="middle" x="476.5" y="-7" font-family="Helvetica,sans-Serif" font-size="10.00">cstdio</text>
</a>
</g>
</g>
<!-- Node14&#45;&gt;Node17 -->
<g id="edge16_Node000014_Node000017" class="edge">
<title>Node14&#45;&gt;Node17</title>
<g id="a_edge16_Node000014_Node000017"><a xlink:title=" ">
<path fill="none" stroke="#63b8ff" d="M476.5,-54.75C476.5,-47.8 476.5,-37.85 476.5,-29.13"/>
<polygon fill="#63b8ff" stroke="#63b8ff" points="480,-29.09 476.5,-19.09 473,-29.09 480,-29.09"/>
</a>
</g>
</g>
<!-- Node18 -->
<g id="Node000018" class="node">
<title>Node18</title>
<g id="a_Node000018"><a xlink:title=" ">
<polygon fill="#e0e0e0" stroke="#999999" points="367.5,-19 323.5,-19 323.5,0 367.5,0 367.5,-19"/>
<text text-anchor="middle" x="345.5" y="-7" font-family="Helvetica,sans-Serif" font-size="10.00">string</text>
</a>
</g>
</g>
<!-- Node14&#45;&gt;Node18 -->
<g id="edge17_Node000014_Node000018" class="edge">
<title>Node14&#45;&gt;Node18</title>
<g id="a_edge17_Node000014_Node000018"><a xlink:title=" ">
<path fill="none" stroke="#63b8ff" d="M455.45,-54.98C434.09,-46.34 400.8,-32.87 376.44,-23.02"/>
<polygon fill="#63b8ff" stroke="#63b8ff" points="377.51,-19.68 366.93,-19.17 374.89,-26.17 377.51,-19.68"/>
</a>
</g>
</g>
<!-- Node19 -->
<g id="Node000019" class="node">
<title>Node19</title>
<g id="a_Node000019"><a xlink:href="../../db/d41/rmvldef_8hpp.html" target="_top" xlink:title=" ">
<polygon fill="white" stroke="#666666" points="744,-19 669,-19 669,0 744,0 744,-19"/>
<text text-anchor="middle" x="706.5" y="-7" font-family="Helvetica,sans-Serif" font-size="10.00">rmvldef.hpp</text>
</a>
</g>
</g>
<!-- Node14&#45;&gt;Node19 -->
<g id="edge18_Node000014_Node000019" class="edge">
<title>Node14&#45;&gt;Node19</title>
<g id="a_edge18_Node000014_Node000019"><a xlink:title=" ">
<path fill="none" stroke="#63b8ff" d="M513.45,-54.98C553.07,-45.86 616.09,-31.33 659.27,-21.38"/>
<polygon fill="#63b8ff" stroke="#63b8ff" points="660.3,-24.74 669.26,-19.08 658.73,-17.92 660.3,-24.74"/>
</a>
</g>
</g>
<!-- Node20&#45;&gt;Node4 -->
<g id="edge20_Node000020_Node000004" class="edge">
<title>Node20&#45;&gt;Node4</title>
<g id="a_edge20_Node000020_Node000004"><a xlink:title=" ">
<path fill="none" stroke="#63b8ff" d="M746.71,-164.75C742.74,-157.49 736.97,-146.95 732.07,-137.98"/>
<polygon fill="#63b8ff" stroke="#63b8ff" points="735.07,-136.18 727.2,-129.09 728.93,-139.54 735.07,-136.18"/>
</a>
</g>
</g>
<!-- Node20&#45;&gt;Node19 -->
<g id="edge21_Node000020_Node000019" class="edge">
<title>Node20&#45;&gt;Node19</title>
<g id="a_edge21_Node000020_Node000019"><a xlink:title=" ">
<path fill="none" stroke="#63b8ff" d="M760.98,-164.8C772.77,-152.86 790.53,-130.56 783.5,-110 771.76,-75.64 742.79,-43.94 723.93,-25.94"/>
<polygon fill="#63b8ff" stroke="#63b8ff" points="726.25,-23.33 716.54,-19.1 721.5,-28.46 726.25,-23.33"/>
</a>
</g>
</g>
<!-- Node21&#45;&gt;Node14 -->
<g id="edge23_Node000021_Node000014" class="edge">
<title>Node21&#45;&gt;Node14</title>
<g id="a_edge23_Node000021_Node000014"><a xlink:title=" ">
<path fill="none" stroke="#63b8ff" d="M241.49,-109.98C290.43,-100.72 368.7,-85.9 421.32,-75.94"/>
<polygon fill="#63b8ff" stroke="#63b8ff" points="421.99,-79.38 431.16,-74.08 420.68,-72.5 421.99,-79.38"/>
</a>
</g>
</g>
<!-- Node22&#45;&gt;Node12 -->
<g id="edge30_Node000022_Node000012" class="edge">
<title>Node22&#45;&gt;Node12</title>
<g id="a_edge30_Node000022_Node000012"><a xlink:title=" ">
<path fill="none" stroke="#63b8ff" d="M480.94,-164.98C512.38,-155.57 562.96,-140.42 596.22,-130.46"/>
<polygon fill="#63b8ff" stroke="#63b8ff" points="597.37,-133.77 605.95,-127.55 595.36,-127.07 597.37,-133.77"/>
</a>
</g>
</g>
<!-- Node22&#45;&gt;Node18 -->
<g id="edge29_Node000022_Node000018" class="edge">
<title>Node22&#45;&gt;Node18</title>
<g id="a_edge29_Node000022_Node000018"><a xlink:title=" ">
<path fill="none" stroke="#63b8ff" d="M419.51,-164.99C400.46,-158.34 377.73,-147.11 364.5,-129 342.87,-99.38 342,-54.46 343.57,-29.29"/>
<polygon fill="#63b8ff" stroke="#63b8ff" points="347.07,-29.5 344.4,-19.24 340.09,-28.92 347.07,-29.5"/>
</a>
</g>
</g>
<!-- Node22&#45;&gt;Node19 -->
<g id="edge31_Node000022_Node000019" class="edge">
<title>Node22&#45;&gt;Node19</title>
<g id="a_edge31_Node000022_Node000019"><a xlink:title=" ">
<path fill="none" stroke="#63b8ff" d="M478.29,-164.95C500.37,-157.11 532.59,-144.4 558.5,-129 610.33,-98.19 663.76,-50.8 689.97,-26.33"/>
<polygon fill="#63b8ff" stroke="#63b8ff" points="692.61,-28.65 697.48,-19.24 687.81,-23.56 692.61,-28.65"/>
</a>
</g>
</g>
<!-- Node23 -->
<g id="Node000023" class="node">
<title>Node23</title>
<g id="a_Node000023"><a xlink:title=" ">
<polygon fill="#e0e0e0" stroke="#999999" points="481.5,-129 439.5,-129 439.5,-110 481.5,-110 481.5,-129"/>
<text text-anchor="middle" x="460.5" y="-117" font-family="Helvetica,sans-Serif" font-size="10.00">array</text>
</a>
</g>
</g>
<!-- Node22&#45;&gt;Node23 -->
<g id="edge25_Node000022_Node000023" class="edge">
<title>Node22&#45;&gt;Node23</title>
<g id="a_edge25_Node000022_Node000023"><a xlink:title=" ">
<path fill="none" stroke="#63b8ff" d="M453.82,-164.75C454.87,-157.8 456.37,-147.85 457.69,-139.13"/>
<polygon fill="#63b8ff" stroke="#63b8ff" points="461.17,-139.5 459.2,-129.09 454.25,-138.45 461.17,-139.5"/>
</a>
</g>
</g>
<!-- Node24 -->
<g id="Node000024" class="node">
<title>Node24</title>
<g id="a_Node000024"><a xlink:title=" ">
<polygon fill="#e0e0e0" stroke="#999999" points="549.5,-129 499.5,-129 499.5,-110 549.5,-110 549.5,-129"/>
<text text-anchor="middle" x="524.5" y="-117" font-family="Helvetica,sans-Serif" font-size="10.00">cstring</text>
</a>
</g>
</g>
<!-- Node22&#45;&gt;Node24 -->
<g id="edge26_Node000022_Node000024" class="edge">
<title>Node22&#45;&gt;Node24</title>
<g id="a_edge26_Node000022_Node000024"><a xlink:title=" ">
<path fill="none" stroke="#63b8ff" d="M464.07,-164.98C474.92,-157 491.38,-144.88 504.38,-135.31"/>
<polygon fill="#63b8ff" stroke="#63b8ff" points="506.74,-137.92 512.72,-129.17 502.59,-132.28 506.74,-137.92"/>
</a>
</g>
</g>
<!-- Node25 -->
<g id="Node000025" class="node">
<title>Node25</title>
<g id="a_Node000025"><a xlink:title=" ">
<polygon fill="#e0e0e0" stroke="#999999" points="421.5,-129 373.5,-129 373.5,-110 421.5,-110 421.5,-129"/>
<text text-anchor="middle" x="397.5" y="-117" font-family="Helvetica,sans-Serif" font-size="10.00">iosfwd</text>
</a>
</g>
</g>
<!-- Node22&#45;&gt;Node25 -->
<g id="edge27_Node000022_Node000025" class="edge">
<title>Node22&#45;&gt;Node25</title>
<g id="a_edge27_Node000022_Node000025"><a xlink:title=" ">
<path fill="none" stroke="#63b8ff" d="M443.42,-164.75C435.41,-157.03 423.54,-145.6 413.88,-136.28"/>
<polygon fill="#63b8ff" stroke="#63b8ff" points="416.04,-133.51 406.41,-129.09 411.19,-138.55 416.04,-133.51"/>
</a>
</g>
</g>
<!-- Node26 -->
<g id="Node000026" class="node">
<title>Node26</title>
<g id="a_Node000026"><a xlink:title=" ">
<polygon fill="#e0e0e0" stroke="#999999" points="317.5,-129 259.5,-129 259.5,-110 317.5,-110 317.5,-129"/>
<text text-anchor="middle" x="288.5" y="-117" font-family="Helvetica,sans-Serif" font-size="10.00">memory</text>
</a>
</g>
</g>
<!-- Node22&#45;&gt;Node26 -->
<g id="edge28_Node000022_Node000026" class="edge">
<title>Node22&#45;&gt;Node26</title>
<g id="a_edge28_Node000022_Node000026"><a xlink:title=" ">
<path fill="none" stroke="#63b8ff" d="M426.15,-164.98C398.74,-156.13 355.61,-142.19 324.94,-132.28"/>
<polygon fill="#63b8ff" stroke="#63b8ff" points="325.65,-128.83 315.06,-129.08 323.5,-135.49 325.65,-128.83"/>
</a>
</g>
</g>
<!-- Node27&#45;&gt;Node21 -->
<g id="edge35_Node000027_Node000021" class="edge">
<title>Node27&#45;&gt;Node21</title>
<g id="a_edge35_Node000027_Node000021"><a xlink:title=" ">
<path fill="none" stroke="#63b8ff" d="M226.56,-164.75C221.52,-157.34 214.16,-146.5 207.99,-137.41"/>
<polygon fill="#63b8ff" stroke="#63b8ff" points="210.85,-135.39 202.33,-129.09 205.06,-139.33 210.85,-135.39"/>
</a>
</g>
</g>
<!-- Node27&#45;&gt;Node26 -->
<g id="edge33_Node000027_Node000026" class="edge">
<title>Node27&#45;&gt;Node26</title>
<g id="a_edge33_Node000027_Node000026"><a xlink:title=" ">
<path fill="none" stroke="#63b8ff" d="M241.5,-164.98C249.69,-157.23 262.01,-145.58 271.97,-136.14"/>
<polygon fill="#63b8ff" stroke="#63b8ff" points="274.48,-138.59 279.34,-129.17 269.67,-133.5 274.48,-138.59"/>
</a>
</g>
</g>
<!-- Node28 -->
<g id="Node000028" class="node">
<title>Node28</title>
<g id="a_Node000028"><a xlink:title=" ">
<polygon fill="#e0e0e0" stroke="#999999" points="133,-129 0,-129 0,-110 133,-110 133,-129"/>
<text text-anchor="middle" x="66.5" y="-117" font-family="Helvetica,sans-Serif" font-size="10.00">opencv2/core/types.hpp</text>
</a>
</g>
</g>
<!-- Node27&#45;&gt;Node28 -->
<g id="edge34_Node000027_Node000028" class="edge">
<title>Node27&#45;&gt;Node28</title>
<g id="a_edge34_Node000027_Node000028"><a xlink:title=" ">
<path fill="none" stroke="#63b8ff" d="M205.83,-164.98C177.96,-156.09 134.05,-142.07 102.98,-132.15"/>
<polygon fill="#63b8ff" stroke="#63b8ff" points="103.97,-128.79 93.38,-129.08 101.84,-135.46 103.97,-128.79"/>
</a>
</g>
</g>
<!-- Node29&#45;&gt;Node27 -->
<g id="edge37_Node000029_Node000027" class="edge">
<title>Node29&#45;&gt;Node27</title>
<g id="a_edge37_Node000029_Node000027"><a xlink:title=" ">
<path fill="none" stroke="#63b8ff" d="M232.5,-219.84C232.5,-212.21 232.5,-202.7 232.5,-194.45"/>
<polygon fill="#63b8ff" stroke="#63b8ff" points="236,-194.27 232.5,-184.27 229,-194.27 236,-194.27"/>
</a>
</g>
</g>
<!-- Node30&#45;&gt;Node7 -->
<g id="edge40_Node000030_Node000007" class="edge">
<title>Node30&#45;&gt;Node7</title>
<g id="a_edge40_Node000030_Node000007"><a xlink:title=" ">
<path fill="none" stroke="#63b8ff" d="M461.55,-285.87C458.71,-277.57 454.34,-264.78 450.73,-254.22"/>
<polygon fill="#63b8ff" stroke="#63b8ff" points="454.01,-253 447.46,-244.67 447.39,-255.26 454.01,-253"/>
</a>
</g>
</g>
<!-- Node31 -->
<g id="Node000031" class="node">
<title>Node31</title>
<g id="a_Node000031"><a xlink:title=" ">
<polygon fill="#e0e0e0" stroke="#999999" points="539,-244.5 492,-244.5 492,-225.5 539,-225.5 539,-244.5"/>
<text text-anchor="middle" x="515.5" y="-232.5" font-family="Helvetica,sans-Serif" font-size="10.00">deque</text>
</a>
</g>
</g>
<!-- Node30&#45;&gt;Node31 -->
<g id="edge39_Node000030_Node000031" class="edge">
<title>Node30&#45;&gt;Node31</title>
<g id="a_edge39_Node000030_Node000031"><a xlink:title=" ">
<path fill="none" stroke="#63b8ff" d="M472.03,-285.87C479.71,-277.05 491.82,-263.16 501.31,-252.27"/>
<polygon fill="#63b8ff" stroke="#63b8ff" points="504.01,-254.51 507.94,-244.67 498.73,-249.91 504.01,-254.51"/>
</a>
</g>
</g>
</g>
</svg>

<g id="navigator" transform="translate(0 0)" fill="#404254">
  <rect fill="#f2f5e9" fill-opacity="0.5" stroke="#606060" stroke-width=".5" x="0" y="0" width="60" height="60"/>
  <use id="zoomplus" xlink:href="#zoomPlus" x="17" y="9" onmousedown="handleZoom(evt,'in')"/>
  <use id="zoomminus" xlink:href="#zoomMin" x="42" y="9" onmousedown="handleZoom(evt,'out')"/>
  <use id="reset" xlink:href="#resetDef" x="30" y="36" onmousedown="handleReset()"/>
   <use id="arrowup" xlink:href="#arrowUp" x="0" y="0" onmousedown="handlePan(0,-1)"/>
  <use id="arrowright" xlink:href="#arrowRight" x="0" y="0" onmousedown="handlePan(1,0)"/>
  <use id="arrowdown" xlink:href="#arrowDown" x="0" y="0" onmousedown="handlePan(0,1)"/>
  <use id="arrowleft" xlink:href="#arrowLeft" x="0" y="0" onmousedown="handlePan(-1,0)"/>
</g>
<svg viewBox="0 0 15 15" width="100%" height="30px" preserveAspectRatio="xMaxYMin meet">
 <g id="arrow_out" transform="scale(0.3 0.3)">
  <a xlink:href="tracker_2gyro__tracker_8h__incl_org.svg" target="_base">
   <rect id="button" ry="5" rx="5" y="6" x="6" height="38" width="38"
        fill="#f2f5e9" fill-opacity="0.5" stroke="#606060" stroke-width="1.0"/>
   <path id="arrow"
     d="M 11.500037,31.436501 C 11.940474,20.09759 22.043105,11.32322 32.158766,21.979434 L 37.068811,17.246167 C 37.068811,17.246167 37.088388,32 37.088388,32 L 22.160133,31.978069 C 22.160133,31.978069 26.997745,27.140456 26.997745,27.140456 C 18.528582,18.264221 13.291696,25.230495 11.500037,31.436501 z"
     style="fill:#404040;"/>
  </a>
 </g>
</svg>

<style type='text/css'>
<![CDATA[
[data-mouse-over-selected='false'] { opacity: 0.7; }
[data-mouse-over-selected='true']  { opacity: 1.0; }
]]>
</style>
<script type="application/ecmascript"><![CDATA[
document.addEventListener('DOMContentLoaded', (event) => {
  highlightEdges();
  highlightAdjacentNodes();
});
]]></script>
</svg>
