<?xml version="1.0" encoding="UTF-8" standalone="no"?>
<!DOCTYPE svg PUBLIC "-//W3C//DTD SVG 1.1//EN"
 "http://www.w3.org/Graphics/SVG/1.1/DTD/svg11.dtd">
<!-- Generated by graphviz version 2.43.0 (0)
 -->
<!-- Title: rm::CameraConfig Pages: 1 -->
<svg width="378pt" height="174pt"
 viewBox="0.00 0.00 377.50 174.00" xmlns="http://www.w3.org/2000/svg" xmlns:xlink="http://www.w3.org/1999/xlink">

<svg id="main" version="1.1" xmlns="http://www.w3.org/2000/svg" xmlns:xlink="http://www.w3.org/1999/xlink" xml:space="preserve">

<style type="text/css"><![CDATA[
.node, .edge {opacity: 0.7;}
.node.selected, .edge.selected {opacity: 1;}
.edge:hover path { stroke: red; }
.edge:hover polygon { stroke: red; fill: red; }
]]></style>
<script type="application/ecmascript" xlink:href="../../svg.min.js"/>
<svg id="graph" class="graph">
<g id="graph0" class="graph" transform="scale(1 1) rotate(0) translate(4 170)">
<title>rm::CameraConfig</title>
<!-- Node1 -->
<g id="Node000001" class="node">
<title>Node1</title>
<g id="a_Node000001"><a xlink:title="相机初始化配置模式">
<polygon fill="#999999" stroke="transparent" points="228,-64 137,-64 137,0 228,0 228,-64"/>
<text text-anchor="start" x="142.5" y="-52" font-family="Helvetica,sans-Serif" font-size="10.00">rm::CameraConfig</text>
<text text-anchor="start" x="181" y="-37" font-family="Helvetica,sans-Serif" font-size="10.00"> </text>
<text text-anchor="start" x="151" y="-22" font-family="Helvetica,sans-Serif" font-size="10.00">+</text>
<text text-anchor="start" x="171.5" y="-22" font-family="Helvetica,sans-Serif" font-size="10.00">set()</text>
<text text-anchor="start" x="151" y="-7" font-family="Helvetica,sans-Serif" font-size="10.00">+</text>
<text text-anchor="start" x="171.5" y="-7" font-family="Helvetica,sans-Serif" font-size="10.00">create()</text>
<polygon fill="#666666" stroke="#666666" points="137.5,-47 137.5,-47 228.5,-47 228.5,-47 137.5,-47"/>
<polygon fill="#666666" stroke="#666666" points="137.5,-32 137.5,-32 228.5,-32 228.5,-32 137.5,-32"/>
<polygon fill="none" stroke="#666666" points="137,0 137,-64 228,-64 228,0 137,0"/>
</a>
</g>
</g>
<!-- Node2 -->
<g id="Node000002" class="node">
<title>Node2</title>
<g id="a_Node000002"><a xlink:title=" ">
<polygon fill="white" stroke="transparent" points="77,-166 0,-166 0,-117 77,-117 77,-166"/>
<text text-anchor="start" x="5.5" y="-153.5" font-family="Helvetica,sans-Serif" font-size="10.00">TriggerChannel</text>
<text text-anchor="start" x="37" y="-138.5" font-family="Helvetica,sans-Serif" font-size="10.00"> </text>
<text text-anchor="start" x="37" y="-123.5" font-family="Helvetica,sans-Serif" font-size="10.00"> </text>
<polygon fill="#666666" stroke="#666666" points="0.5,-148.5 0.5,-148.5 77.5,-148.5 77.5,-148.5 0.5,-148.5"/>
<polygon fill="#666666" stroke="#666666" points="0.5,-133.5 0.5,-133.5 77.5,-133.5 77.5,-133.5 0.5,-133.5"/>
<polygon fill="none" stroke="#666666" points="0,-117 0,-166 77,-166 77,-117 0,-117"/>
</a>
</g>
</g>
<!-- Node2&#45;&gt;Node1 -->
<g id="edge1_Node000001_Node000002" class="edge">
<title>Node2&#45;&gt;Node1</title>
<g id="a_edge1_Node000001_Node000002"><a xlink:title=" ">
<path fill="none" stroke="#63b8ff" d="M40.02,-116.73C41.9,-105.03 45.95,-91.44 54.5,-82 72.76,-61.84 100.23,-49.92 125.05,-42.89"/>
<polygon fill="none" stroke="#63b8ff" points="125.34,-42.82 130.15,-37.45 136.96,-39.82 132.15,-45.19 125.34,-42.82"/>
</a>
</g>
<text text-anchor="start" x="58" y="-87.5" font-family="Helvetica,sans-Serif" font-size="10.00" fill="grey">+trigger_channel</text>
</g>
<!-- Node3 -->
<g id="Node000003" class="node">
<title>Node3</title>
<g id="a_Node000003"><a xlink:title=" ">
<polygon fill="white" stroke="transparent" points="168.5,-166 112.5,-166 112.5,-117 168.5,-117 168.5,-166"/>
<text text-anchor="start" x="117.5" y="-153.5" font-family="Helvetica,sans-Serif" font-size="10.00">GrabMode</text>
<text text-anchor="start" x="138.5" y="-138.5" font-family="Helvetica,sans-Serif" font-size="10.00"> </text>
<text text-anchor="start" x="138.5" y="-123.5" font-family="Helvetica,sans-Serif" font-size="10.00"> </text>
<polygon fill="#666666" stroke="#666666" points="112.5,-148.5 112.5,-148.5 168.5,-148.5 168.5,-148.5 112.5,-148.5"/>
<polygon fill="#666666" stroke="#666666" points="112.5,-133.5 112.5,-133.5 168.5,-133.5 168.5,-133.5 112.5,-133.5"/>
<polygon fill="none" stroke="#666666" points="112.5,-117 112.5,-166 168.5,-166 168.5,-117 112.5,-117"/>
</a>
</g>
</g>
<!-- Node3&#45;&gt;Node1 -->
<g id="edge2_Node000001_Node000003" class="edge">
<title>Node3&#45;&gt;Node1</title>
<g id="a_edge2_Node000001_Node000003"><a xlink:title=" ">
<path fill="none" stroke="#63b8ff" d="M137.36,-116.77C136.8,-105.86 137.42,-92.95 141.5,-82 142.44,-79.47 143.58,-76.97 144.86,-74.53"/>
<polygon fill="none" stroke="#63b8ff" points="144.94,-74.4 144.72,-67.2 151.29,-64.22 151.51,-71.43 144.94,-74.4"/>
</a>
</g>
<text text-anchor="start" x="145" y="-87.5" font-family="Helvetica,sans-Serif" font-size="10.00" fill="grey">+grab_mode</text>
</g>
<!-- Node4 -->
<g id="Node000004" class="node">
<title>Node4</title>
<g id="a_Node000004"><a xlink:title=" ">
<polygon fill="white" stroke="transparent" points="257,-166 192,-166 192,-117 257,-117 257,-166"/>
<text text-anchor="start" x="197.5" y="-153.5" font-family="Helvetica,sans-Serif" font-size="10.00">HandleMode</text>
<text text-anchor="start" x="223" y="-138.5" font-family="Helvetica,sans-Serif" font-size="10.00"> </text>
<text text-anchor="start" x="223" y="-123.5" font-family="Helvetica,sans-Serif" font-size="10.00"> </text>
<polygon fill="#666666" stroke="#666666" points="192.5,-148.5 192.5,-148.5 257.5,-148.5 257.5,-148.5 192.5,-148.5"/>
<polygon fill="#666666" stroke="#666666" points="192.5,-133.5 192.5,-133.5 257.5,-133.5 257.5,-133.5 192.5,-133.5"/>
<polygon fill="none" stroke="#666666" points="192,-117 192,-166 257,-166 257,-117 192,-117"/>
</a>
</g>
</g>
<!-- Node4&#45;&gt;Node1 -->
<g id="edge3_Node000001_Node000004" class="edge">
<title>Node4&#45;&gt;Node1</title>
<g id="a_edge3_Node000001_Node000004"><a xlink:title=" ">
<path fill="none" stroke="#63b8ff" d="M215.76,-116.82C211.79,-106.15 206.98,-93.42 202.5,-82 201.64,-79.82 200.76,-77.59 199.86,-75.33"/>
<polygon fill="none" stroke="#63b8ff" points="199.81,-75.19 193.86,-71.11 195.33,-64.05 201.28,-68.13 199.81,-75.19"/>
</a>
</g>
<text text-anchor="start" x="211.5" y="-87.5" font-family="Helvetica,sans-Serif" font-size="10.00" fill="grey">+handle_mode</text>
</g>
<!-- Node5 -->
<g id="Node000005" class="node">
<title>Node5</title>
<g id="a_Node000005"><a xlink:title=" ">
<polygon fill="white" stroke="transparent" points="353,-166 282,-166 282,-117 353,-117 353,-166"/>
<text text-anchor="start" x="287.5" y="-153.5" font-family="Helvetica,sans-Serif" font-size="10.00">RetrieveMode</text>
<text text-anchor="start" x="316" y="-138.5" font-family="Helvetica,sans-Serif" font-size="10.00"> </text>
<text text-anchor="start" x="316" y="-123.5" font-family="Helvetica,sans-Serif" font-size="10.00"> </text>
<polygon fill="#666666" stroke="#666666" points="282.5,-148.5 282.5,-148.5 353.5,-148.5 353.5,-148.5 282.5,-148.5"/>
<polygon fill="#666666" stroke="#666666" points="282.5,-133.5 282.5,-133.5 353.5,-133.5 353.5,-133.5 282.5,-133.5"/>
<polygon fill="none" stroke="#666666" points="282,-117 282,-166 353,-166 353,-117 282,-117"/>
</a>
</g>
</g>
<!-- Node5&#45;&gt;Node1 -->
<g id="edge4_Node000001_Node000005" class="edge">
<title>Node5&#45;&gt;Node1</title>
<g id="a_edge4_Node000001_Node000005"><a xlink:title=" ">
<path fill="none" stroke="#63b8ff" d="M307.36,-116.94C301.44,-105.29 293.04,-91.69 282.5,-82 270.02,-70.52 254.35,-61.16 239.15,-53.8"/>
<polygon fill="none" stroke="#63b8ff" points="239.12,-53.79 232,-54.94 228.21,-48.8 235.33,-47.66 239.12,-53.79"/>
</a>
</g>
<text text-anchor="start" x="298.5" y="-87.5" font-family="Helvetica,sans-Serif" font-size="10.00" fill="grey">+retrieve_mode</text>
</g>
</g>
</svg>
</svg>

<style type='text/css'>
<![CDATA[
[data-mouse-over-selected='false'] { opacity: 0.7; }
[data-mouse-over-selected='true']  { opacity: 1.0; }
]]>
</style>
<script type="application/ecmascript"><![CDATA[
document.addEventListener('DOMContentLoaded', (event) => {
  highlightEdges();
  highlightAdjacentNodes();
});
]]></script>
</svg>
