<?xml version="1.0" encoding="UTF-8" standalone="no"?>
<!DOCTYPE svg PUBLIC "-//W3C//DTD SVG 1.1//EN"
 "http://www.w3.org/Graphics/SVG/1.1/DTD/svg11.dtd">
<!-- Generated by graphviz version 14.1.2 (0)
 -->
<!-- Title: rm::Armor Pages: 1 -->
<svg width="950pt" height="1312pt"
 viewBox="0.00 0.00 950.00 1312.00" xmlns="http://www.w3.org/2000/svg" xmlns:xlink="http://www.w3.org/1999/xlink">
<g id="graph0" class="graph" transform="scale(1 1) rotate(0) translate(4 1308)">
<title>rm::Armor</title>
<!-- Node1 -->
<g id="Node000001" class="node">
<title>Node1</title>
<g id="a_Node000001"><a xlink:title="装甲模块组合特征">
<polygon fill="#999999" stroke="none" points="644,-305.5 510.5,-305.5 510.5,0 644,0 644,-305.5"/>
<text xml:space="preserve" text-anchor="start" x="552.5" y="-292" font-family="Helvetica,sans-Serif" font-size="10.00">rm::Armor</text>
<text xml:space="preserve" text-anchor="start" x="575.75" y="-275.25" font-family="Helvetica,sans-Serif" font-size="10.00"> </text>
<text xml:space="preserve" text-anchor="start" x="514.5" y="-258.5" font-family="Helvetica,sans-Serif" font-size="10.00">+</text>
<text xml:space="preserve" text-anchor="start" x="526.75" y="-258.5" font-family="Helvetica,sans-Serif" font-size="10.00">clone()</text>
<text xml:space="preserve" text-anchor="start" x="514.5" y="-241.75" font-family="Helvetica,sans-Serif" font-size="10.00">+</text>
<text xml:space="preserve" text-anchor="start" x="526.75" y="-241.75" font-family="Helvetica,sans-Serif" font-size="10.00">getComboRatio()</text>
<text xml:space="preserve" text-anchor="start" x="514.5" y="-225" font-family="Helvetica,sans-Serif" font-size="10.00">+</text>
<text xml:space="preserve" text-anchor="start" x="526.75" y="-225" font-family="Helvetica,sans-Serif" font-size="10.00">getWidthRatio()</text>
<text xml:space="preserve" text-anchor="start" x="514.5" y="-208.25" font-family="Helvetica,sans-Serif" font-size="10.00">+</text>
<text xml:space="preserve" text-anchor="start" x="526.75" y="-208.25" font-family="Helvetica,sans-Serif" font-size="10.00">getLengthRatio()</text>
<text xml:space="preserve" text-anchor="start" x="514.5" y="-191.5" font-family="Helvetica,sans-Serif" font-size="10.00">+</text>
<text xml:space="preserve" text-anchor="start" x="526.75" y="-191.5" font-family="Helvetica,sans-Serif" font-size="10.00">getCornerAngle()</text>
<text xml:space="preserve" text-anchor="start" x="514.5" y="-174.75" font-family="Helvetica,sans-Serif" font-size="10.00">+</text>
<text xml:space="preserve" text-anchor="start" x="526.75" y="-174.75" font-family="Helvetica,sans-Serif" font-size="10.00">getError()</text>
<text xml:space="preserve" text-anchor="start" x="514.5" y="-158" font-family="Helvetica,sans-Serif" font-size="10.00">+</text>
<text xml:space="preserve" text-anchor="start" x="526.75" y="-158" font-family="Helvetica,sans-Serif" font-size="10.00">setType()</text>
<text xml:space="preserve" text-anchor="start" x="514.5" y="-141.25" font-family="Helvetica,sans-Serif" font-size="10.00">+</text>
<text xml:space="preserve" text-anchor="start" x="526.75" y="-141.25" font-family="Helvetica,sans-Serif" font-size="10.00">getPose()</text>
<text xml:space="preserve" text-anchor="start" x="514.5" y="-124.5" font-family="Helvetica,sans-Serif" font-size="10.00">+</text>
<text xml:space="preserve" text-anchor="start" x="526.75" y="-124.5" font-family="Helvetica,sans-Serif" font-size="10.00">make_combo()</text>
<text xml:space="preserve" text-anchor="start" x="514.5" y="-107.75" font-family="Helvetica,sans-Serif" font-size="10.00">+</text>
<text xml:space="preserve" text-anchor="start" x="526.75" y="-107.75" font-family="Helvetica,sans-Serif" font-size="10.00">cast()</text>
<text xml:space="preserve" text-anchor="start" x="514.5" y="-91" font-family="Helvetica,sans-Serif" font-size="10.00">+</text>
<text xml:space="preserve" text-anchor="start" x="526.75" y="-91" font-family="Helvetica,sans-Serif" font-size="10.00">cast()</text>
<text xml:space="preserve" text-anchor="start" x="514.5" y="-74.25" font-family="Helvetica,sans-Serif" font-size="10.00">+</text>
<text xml:space="preserve" text-anchor="start" x="526.75" y="-74.25" font-family="Helvetica,sans-Serif" font-size="10.00">loadSVM()</text>
<text xml:space="preserve" text-anchor="start" x="514.5" y="-57.5" font-family="Helvetica,sans-Serif" font-size="10.00">+</text>
<text xml:space="preserve" text-anchor="start" x="526.75" y="-57.5" font-family="Helvetica,sans-Serif" font-size="10.00">imuConvertToCamera()</text>
<text xml:space="preserve" text-anchor="start" x="514.5" y="-40.75" font-family="Helvetica,sans-Serif" font-size="10.00">+</text>
<text xml:space="preserve" text-anchor="start" x="526.75" y="-40.75" font-family="Helvetica,sans-Serif" font-size="10.00">cameraConvertToImu()</text>
<text xml:space="preserve" text-anchor="start" x="514.5" y="-24" font-family="Helvetica,sans-Serif" font-size="10.00">+</text>
<text xml:space="preserve" text-anchor="start" x="526.75" y="-24" font-family="Helvetica,sans-Serif" font-size="10.00">isContainBlob()</text>
<text xml:space="preserve" text-anchor="start" x="514.5" y="-7.25" font-family="Helvetica,sans-Serif" font-size="10.00">+</text>
<text xml:space="preserve" text-anchor="start" x="526.75" y="-7.25" font-family="Helvetica,sans-Serif" font-size="10.00">getNumberROI()</text>
<polygon fill="#666666" stroke="#666666" points="510.5,-286.75 510.5,-286.75 644,-286.75 644,-286.75 510.5,-286.75"/>
<polygon fill="#666666" stroke="#666666" points="510.5,-270 510.5,-270 644,-270 644,-270 510.5,-270"/>
<polygon fill="none" stroke="#666666" points="510.5,0 510.5,-305.5 644,-305.5 644,0 510.5,0"/>
</a>
</g>
</g>
<!-- Node2 -->
<g id="Node000002" class="node">
<title>Node2</title>
<g id="a_Node000002"><a xlink:href="../../de/dee/classrm_1_1combo.html" target="_top" xlink:title="特征组合体">
<polygon fill="white" stroke="none" points="612.5,-566.5 542,-566.5 542,-342.5 612.5,-342.5 612.5,-566.5"/>
<text xml:space="preserve" text-anchor="start" x="551" y="-553" font-family="Helvetica,sans-Serif" font-size="10.00">rm::combo</text>
<text xml:space="preserve" text-anchor="start" x="575.75" y="-536.25" font-family="Helvetica,sans-Serif" font-size="10.00"> </text>
<text xml:space="preserve" text-anchor="start" x="546" y="-519.5" font-family="Helvetica,sans-Serif" font-size="10.00">+</text>
<text xml:space="preserve" text-anchor="start" x="558.25" y="-519.5" font-family="Helvetica,sans-Serif" font-size="10.00">clone()</text>
<text xml:space="preserve" text-anchor="start" x="546" y="-502.75" font-family="Helvetica,sans-Serif" font-size="10.00">+</text>
<text xml:space="preserve" text-anchor="start" x="558.25" y="-502.75" font-family="Helvetica,sans-Serif" font-size="10.00">height()</text>
<text xml:space="preserve" text-anchor="start" x="546" y="-486" font-family="Helvetica,sans-Serif" font-size="10.00">+</text>
<text xml:space="preserve" text-anchor="start" x="558.25" y="-486" font-family="Helvetica,sans-Serif" font-size="10.00">width()</text>
<text xml:space="preserve" text-anchor="start" x="546" y="-469.25" font-family="Helvetica,sans-Serif" font-size="10.00">+</text>
<text xml:space="preserve" text-anchor="start" x="558.25" y="-469.25" font-family="Helvetica,sans-Serif" font-size="10.00">angle()</text>
<text xml:space="preserve" text-anchor="start" x="546" y="-452.5" font-family="Helvetica,sans-Serif" font-size="10.00">+</text>
<text xml:space="preserve" text-anchor="start" x="558.25" y="-452.5" font-family="Helvetica,sans-Serif" font-size="10.00">center()</text>
<text xml:space="preserve" text-anchor="start" x="546" y="-435.75" font-family="Helvetica,sans-Serif" font-size="10.00">+</text>
<text xml:space="preserve" text-anchor="start" x="558.25" y="-435.75" font-family="Helvetica,sans-Serif" font-size="10.00">corners()</text>
<text xml:space="preserve" text-anchor="start" x="546" y="-419" font-family="Helvetica,sans-Serif" font-size="10.00">+</text>
<text xml:space="preserve" text-anchor="start" x="558.25" y="-419" font-family="Helvetica,sans-Serif" font-size="10.00">corner()</text>
<text xml:space="preserve" text-anchor="start" x="546" y="-402.25" font-family="Helvetica,sans-Serif" font-size="10.00">+</text>
<text xml:space="preserve" text-anchor="start" x="558.25" y="-402.25" font-family="Helvetica,sans-Serif" font-size="10.00">extrinsic()</text>
<text xml:space="preserve" text-anchor="start" x="546" y="-385.5" font-family="Helvetica,sans-Serif" font-size="10.00">+</text>
<text xml:space="preserve" text-anchor="start" x="558.25" y="-385.5" font-family="Helvetica,sans-Serif" font-size="10.00">state()</text>
<text xml:space="preserve" text-anchor="start" x="546" y="-368.75" font-family="Helvetica,sans-Serif" font-size="10.00">+</text>
<text xml:space="preserve" text-anchor="start" x="558.25" y="-368.75" font-family="Helvetica,sans-Serif" font-size="10.00">state()</text>
<text xml:space="preserve" text-anchor="start" x="558.25" y="-352" font-family="Helvetica,sans-Serif" font-size="10.00">和 8 更多...</text>
<polygon fill="#666666" stroke="#666666" points="542,-547.75 542,-547.75 612.5,-547.75 612.5,-547.75 542,-547.75"/>
<polygon fill="#666666" stroke="#666666" points="542,-531 542,-531 612.5,-531 612.5,-531 542,-531"/>
<polygon fill="none" stroke="#666666" points="542,-342.5 542,-566.5 612.5,-566.5 612.5,-342.5 542,-342.5"/>
</a>
</g>
</g>
<!-- Node2&#45;&gt;Node1 -->
<g id="edge1_Node000001_Node000002" class="edge">
<title>Node2&#45;&gt;Node1</title>
<g id="a_edge1_Node000001_Node000002"><a xlink:title=" ">
<path fill="none" stroke="#63b8ff" d="M577.25,-331.22C577.25,-322.72 577.25,-314.09 577.25,-305.46"/>
<polygon fill="none" stroke="#63b8ff" points="573.75,-331.22 577.25,-341.22 580.75,-331.22 573.75,-331.22"/>
</a>
</g>
</g>
<!-- Node3 -->
<g id="Node000003" class="node">
<title>Node3</title>
<g id="a_Node000003"><a xlink:title=" ">
<polygon fill="white" stroke="none" points="205.38,-774 99.12,-774 99.12,-707 205.38,-707 205.38,-774"/>
<text xml:space="preserve" text-anchor="start" x="103.12" y="-760.5" font-family="Helvetica,sans-Serif" font-size="10.00">std::vector&lt; feature</text>
<text xml:space="preserve" text-anchor="start" x="136.88" y="-747.75" font-family="Helvetica,sans-Serif" font-size="10.00">::ptr &gt;</text>
<text xml:space="preserve" text-anchor="start" x="150.75" y="-731" font-family="Helvetica,sans-Serif" font-size="10.00"> </text>
<text xml:space="preserve" text-anchor="start" x="150.75" y="-714.25" font-family="Helvetica,sans-Serif" font-size="10.00"> </text>
<polygon fill="#666666" stroke="#666666" points="99.12,-742.5 99.12,-742.5 205.38,-742.5 205.38,-742.5 99.12,-742.5"/>
<polygon fill="#666666" stroke="#666666" points="99.12,-725.75 99.12,-725.75 205.38,-725.75 205.38,-725.75 99.12,-725.75"/>
<polygon fill="none" stroke="#666666" points="99.12,-707 99.12,-774 205.38,-774 205.38,-707 99.12,-707"/>
</a>
</g>
</g>
<!-- Node3&#45;&gt;Node2 -->
<g id="edge2_Node000002_Node000003" class="edge">
<title>Node3&#45;&gt;Node2</title>
<g id="a_edge2_Node000002_Node000003"><a xlink:title=" ">
<path fill="none" stroke="#63b8ff" d="M180.47,-707.11C201.44,-683.19 230.86,-649.95 257.25,-621.25 272.52,-604.65 273.86,-597.56 292.25,-584.5 368.37,-530.45 470.76,-490.83 529.82,-470.62"/>
<polygon fill="none" stroke="#63b8ff" points="529.87,-470.61 534.28,-464.9 541.24,-466.78 536.83,-472.48 529.87,-470.61"/>
</a>
</g>
<text xml:space="preserve" text-anchor="start" x="295.25" y="-590.75" font-family="Helvetica,sans-Serif" font-size="10.00" fill="grey">#_features</text>
</g>
<!-- Node4 -->
<g id="Node000004" class="node">
<title>Node4</title>
<g id="a_Node000004"><a xlink:title=" ">
<polygon fill="white" stroke="none" points="138.5,-1002.25 0,-1002.25 0,-948 138.5,-948 138.5,-1002.25"/>
<text xml:space="preserve" text-anchor="start" x="4" y="-988.75" font-family="Helvetica,sans-Serif" font-size="10.00">std::shared_ptr&lt; feature &gt;</text>
<text xml:space="preserve" text-anchor="start" x="18.38" y="-972" font-family="Helvetica,sans-Serif" font-size="10.00">+</text>
<text xml:space="preserve" text-anchor="start" x="45" y="-972" font-family="Helvetica,sans-Serif" font-size="10.00">ptr</text>
<text xml:space="preserve" text-anchor="start" x="18.38" y="-955.25" font-family="Helvetica,sans-Serif" font-size="10.00">+</text>
<text xml:space="preserve" text-anchor="start" x="45" y="-955.25" font-family="Helvetica,sans-Serif" font-size="10.00">operator&#45;&gt;()</text>
<polygon fill="#666666" stroke="#666666" points="0,-983.5 0,-983.5 138.5,-983.5 138.5,-983.5 0,-983.5"/>
<polygon fill="#666666" stroke="#666666" points="0,-966.75 0,-966.75 43,-966.75 43,-966.75 0,-966.75"/>
<polygon fill="#666666" stroke="#666666" points="43,-966.75 43,-966.75 138.5,-966.75 138.5,-966.75 43,-966.75"/>
<polygon fill="none" stroke="#666666" points="0,-948 0,-1002.25 138.5,-1002.25 138.5,-948 0,-948"/>
</a>
</g>
</g>
<!-- Node4&#45;&gt;Node3 -->
<g id="edge3_Node000003_Node000004" class="edge">
<title>Node4&#45;&gt;Node3</title>
<g id="a_edge3_Node000003_Node000004"><a xlink:title=" ">
<path fill="none" stroke="#63b8ff" d="M68.12,-948.22C67.98,-928.49 69.33,-900.89 76.25,-877.75 86.19,-844.52 105.2,-810.45 121.72,-784.68"/>
<polygon fill="none" stroke="#63b8ff" points="121.77,-784.61 121.72,-777.39 128.36,-774.58 128.41,-781.79 121.77,-784.61"/>
</a>
</g>
<text xml:space="preserve" text-anchor="start" x="79.25" y="-900.75" font-family="Helvetica,sans-Serif" font-size="10.00" fill="grey">+elements</text>
</g>
<!-- Node5 -->
<g id="Node000005" class="node">
<title>Node5</title>
<g id="a_Node000005"><a xlink:title=" ">
<polygon fill="white" stroke="none" points="138.88,-1195 29.62,-1195 29.62,-1140.75 138.88,-1140.75 138.88,-1195"/>
<text xml:space="preserve" text-anchor="start" x="33.62" y="-1181.5" font-family="Helvetica,sans-Serif" font-size="10.00">std::shared_ptr&lt; T &gt;</text>
<text xml:space="preserve" text-anchor="start" x="82.75" y="-1164.75" font-family="Helvetica,sans-Serif" font-size="10.00"> </text>
<text xml:space="preserve" text-anchor="start" x="40.69" y="-1148" font-family="Helvetica,sans-Serif" font-size="10.00">+</text>
<text xml:space="preserve" text-anchor="start" x="60" y="-1148" font-family="Helvetica,sans-Serif" font-size="10.00">operator&#45;&gt;()</text>
<polygon fill="#666666" stroke="#666666" points="29.62,-1176.25 29.62,-1176.25 138.88,-1176.25 138.88,-1176.25 29.62,-1176.25"/>
<polygon fill="#666666" stroke="#666666" points="29.62,-1159.5 29.62,-1159.5 138.88,-1159.5 138.88,-1159.5 29.62,-1159.5"/>
<polygon fill="none" stroke="#666666" points="29.62,-1140.75 29.62,-1195 138.88,-1195 138.88,-1140.75 29.62,-1140.75"/>
</a>
</g>
</g>
<!-- Node5&#45;&gt;Node4 -->
<g id="edge4_Node000004_Node000005" class="edge">
<title>Node5&#45;&gt;Node4</title>
<g id="a_edge4_Node000004_Node000005"><a xlink:title=" ">
<path fill="none" stroke="orange" d="M81.3,-1129.3C78.34,-1091.78 73.89,-1035.1 71.3,-1002.24"/>
<polygon fill="orange" stroke="orange" points="77.8,-1129.55 82.08,-1139.24 84.78,-1129 77.8,-1129.55"/>
</a>
</g>
<text xml:space="preserve" text-anchor="start" x="83.63" y="-1068.38" font-family="Helvetica,sans-Serif" font-size="10.00" fill="grey">&lt; feature &gt;</text>
</g>
<!-- Node6 -->
<g id="Node000006" class="node">
<title>Node6</title>
<g id="a_Node000006"><a xlink:title=" ">
<polygon fill="white" stroke="none" points="141.25,-1304 127.25,-1304 127.25,-1249.75 141.25,-1249.75 141.25,-1304"/>
<text xml:space="preserve" text-anchor="start" x="131.25" y="-1290.5" font-family="Helvetica,sans-Serif" font-size="10.00">T</text>
<text xml:space="preserve" text-anchor="start" x="132.75" y="-1273.75" font-family="Helvetica,sans-Serif" font-size="10.00"> </text>
<text xml:space="preserve" text-anchor="start" x="132.75" y="-1257" font-family="Helvetica,sans-Serif" font-size="10.00"> </text>
<polygon fill="#666666" stroke="#666666" points="127.25,-1285.25 127.25,-1285.25 141.25,-1285.25 141.25,-1285.25 127.25,-1285.25"/>
<polygon fill="#666666" stroke="#666666" points="127.25,-1268.5 127.25,-1268.5 141.25,-1268.5 141.25,-1268.5 127.25,-1268.5"/>
<polygon fill="none" stroke="#666666" points="127.25,-1249.75 127.25,-1304 141.25,-1304 141.25,-1249.75 127.25,-1249.75"/>
</a>
</g>
</g>
<!-- Node6&#45;&gt;Node5 -->
<g id="edge5_Node000005_Node000006" class="edge">
<title>Node6&#45;&gt;Node5</title>
<g id="a_edge5_Node000005_Node000006"><a xlink:title=" ">
<path fill="none" stroke="#63b8ff" d="M127.3,-1261C120.74,-1246.96 110.63,-1225.33 101.86,-1206.55"/>
<polygon fill="none" stroke="#63b8ff" points="101.8,-1206.42 95.63,-1202.68 96.72,-1195.55 102.88,-1199.29 101.8,-1206.42"/>
</a>
</g>
<text xml:space="preserve" text-anchor="start" x="115.24" y="-1219.25" font-family="Helvetica,sans-Serif" font-size="10.00" fill="grey">+ptr</text>
</g>
<!-- Node7 -->
<g id="Node000007" class="node">
<title>Node7</title>
<g id="a_Node000007"><a xlink:title=" ">
<polygon fill="white" stroke="none" points="244.38,-1002.25 156.12,-1002.25 156.12,-948 244.38,-948 244.38,-1002.25"/>
<text xml:space="preserve" text-anchor="start" x="160.12" y="-988.75" font-family="Helvetica,sans-Serif" font-size="10.00">std::vector&lt; T &gt;</text>
<text xml:space="preserve" text-anchor="start" x="198.75" y="-972" font-family="Helvetica,sans-Serif" font-size="10.00"> </text>
<text xml:space="preserve" text-anchor="start" x="198.75" y="-955.25" font-family="Helvetica,sans-Serif" font-size="10.00"> </text>
<polygon fill="#666666" stroke="#666666" points="156.12,-983.5 156.12,-983.5 244.38,-983.5 244.38,-983.5 156.12,-983.5"/>
<polygon fill="#666666" stroke="#666666" points="156.12,-966.75 156.12,-966.75 244.38,-966.75 244.38,-966.75 156.12,-966.75"/>
<polygon fill="none" stroke="#666666" points="156.12,-948 156.12,-1002.25 244.38,-1002.25 244.38,-948 156.12,-948"/>
</a>
</g>
</g>
<!-- Node6&#45;&gt;Node7 -->
<g id="edge7_Node000007_Node000006" class="edge">
<title>Node6&#45;&gt;Node7</title>
<g id="a_edge7_Node000007_Node000006"><a xlink:title=" ">
<path fill="none" stroke="#63b8ff" d="M140.1,-1250.22C141.47,-1244.16 142.92,-1237.73 144.25,-1231.75 161.4,-1154.78 181.04,-1064.66 191.91,-1014.61"/>
<polygon fill="none" stroke="#63b8ff" points="191.93,-1014.51 189.3,-1007.8 194.48,-1002.78 197.11,-1009.49 191.93,-1014.51"/>
</a>
</g>
<text xml:space="preserve" text-anchor="start" x="167.1" y="-1164.75" font-family="Helvetica,sans-Serif" font-size="10.00" fill="grey">+elements</text>
</g>
<!-- Node7&#45;&gt;Node3 -->
<g id="edge6_Node000003_Node000007" class="edge">
<title>Node7&#45;&gt;Node3</title>
<g id="a_edge6_Node000003_Node000007"><a xlink:title=" ">
<path fill="none" stroke="orange" d="M158.14,-939.17C156.14,-936.25 154.39,-933.19 153,-930 130.73,-879.02 137.71,-812.62 144.91,-773.77"/>
<polygon fill="orange" stroke="orange" points="155.29,-941.22 164.29,-946.82 160.75,-936.84 155.29,-941.22"/>
</a>
</g>
<text xml:space="preserve" text-anchor="start" x="156" y="-900.75" font-family="Helvetica,sans-Serif" font-size="10.00" fill="grey">&lt; feature::ptr &gt;</text>
</g>
<!-- Node14 -->
<g id="Node000014" class="node">
<title>Node14</title>
<g id="a_Node000014"><a xlink:title=" ">
<polygon fill="white" stroke="none" points="399.88,-767.62 266.62,-767.62 266.62,-713.38 399.88,-713.38 399.88,-767.62"/>
<text xml:space="preserve" text-anchor="start" x="270.62" y="-754.12" font-family="Helvetica,sans-Serif" font-size="10.00">std::vector&lt; cv::Point2f &gt;</text>
<text xml:space="preserve" text-anchor="start" x="331.75" y="-737.38" font-family="Helvetica,sans-Serif" font-size="10.00"> </text>
<text xml:space="preserve" text-anchor="start" x="331.75" y="-720.62" font-family="Helvetica,sans-Serif" font-size="10.00"> </text>
<polygon fill="#666666" stroke="#666666" points="266.62,-748.88 266.62,-748.88 399.88,-748.88 399.88,-748.88 266.62,-748.88"/>
<polygon fill="#666666" stroke="#666666" points="266.62,-732.12 266.62,-732.12 399.88,-732.12 399.88,-732.12 266.62,-732.12"/>
<polygon fill="none" stroke="#666666" points="266.62,-713.38 266.62,-767.62 399.88,-767.62 399.88,-713.38 266.62,-713.38"/>
</a>
</g>
</g>
<!-- Node7&#45;&gt;Node14 -->
<g id="edge18_Node000014_Node000007" class="edge">
<title>Node7&#45;&gt;Node14</title>
<g id="a_edge18_Node000014_Node000007"><a xlink:title=" ">
<path fill="none" stroke="orange" d="M229.83,-939.23C232.08,-936.17 234.25,-933.07 236.25,-930 250.45,-908.18 250.88,-900.92 262.75,-877.75 282.42,-839.35 305.43,-794.99 319.67,-767.59"/>
<polygon fill="orange" stroke="orange" points="227.16,-936.97 223.84,-947.03 232.71,-941.23 227.16,-936.97"/>
</a>
</g>
<text xml:space="preserve" text-anchor="start" x="265.75" y="-900.75" font-family="Helvetica,sans-Serif" font-size="10.00" fill="grey">&lt; cv::Point2f &gt;</text>
</g>
<!-- Node8 -->
<g id="Node000008" class="node">
<title>Node8</title>
<g id="a_Node000008"><a xlink:title=" ">
<polygon fill="white" stroke="none" points="638.12,-1195 608.38,-1195 608.38,-1140.75 638.12,-1140.75 638.12,-1195"/>
<text xml:space="preserve" text-anchor="start" x="612.38" y="-1181.5" font-family="Helvetica,sans-Serif" font-size="10.00">float</text>
<text xml:space="preserve" text-anchor="start" x="621.75" y="-1164.75" font-family="Helvetica,sans-Serif" font-size="10.00"> </text>
<text xml:space="preserve" text-anchor="start" x="621.75" y="-1148" font-family="Helvetica,sans-Serif" font-size="10.00"> </text>
<polygon fill="#666666" stroke="#666666" points="608.38,-1176.25 608.38,-1176.25 638.12,-1176.25 638.12,-1176.25 608.38,-1176.25"/>
<polygon fill="#666666" stroke="#666666" points="608.38,-1159.5 608.38,-1159.5 638.12,-1159.5 638.12,-1159.5 608.38,-1159.5"/>
<polygon fill="none" stroke="#666666" points="608.38,-1140.75 608.38,-1195 638.12,-1195 638.12,-1140.75 608.38,-1140.75"/>
</a>
</g>
</g>
<!-- Node8&#45;&gt;Node2 -->
<g id="edge8_Node000002_Node000008" class="edge">
<title>Node8&#45;&gt;Node2</title>
<g id="a_edge8_Node000002_Node000008"><a xlink:title=" ">
<path fill="none" stroke="#63b8ff" d="M614.01,-1141C602.89,-1108.88 584.46,-1052.21 574.25,-1002.25 545.03,-859.19 552.01,-690.65 562.23,-578.9"/>
<polygon fill="none" stroke="#63b8ff" points="562.21,-579.08 558.8,-572.74 563.34,-567.14 566.76,-573.49 562.21,-579.08"/>
</a>
</g>
<text xml:space="preserve" text-anchor="start" x="565.52" y="-917.5" font-family="Helvetica,sans-Serif" font-size="10.00" fill="grey">#_angle</text>
<text xml:space="preserve" text-anchor="start" x="565.52" y="-900.75" font-family="Helvetica,sans-Serif" font-size="10.00" fill="grey">#_height</text>
<text xml:space="preserve" text-anchor="start" x="565.52" y="-884" font-family="Helvetica,sans-Serif" font-size="10.00" fill="grey">#_width</text>
</g>
<!-- Node12 -->
<g id="Node000012" class="node">
<title>Node12</title>
<g id="a_Node000012"><a xlink:href="../../d4/def/structrm_1_1Translation.html" target="_top" xlink:title="移动位置信息">
<polygon fill="white" stroke="none" points="663.62,-1002.25 582.88,-1002.25 582.88,-948 663.62,-948 663.62,-1002.25"/>
<text xml:space="preserve" text-anchor="start" x="586.88" y="-988.75" font-family="Helvetica,sans-Serif" font-size="10.00">rm::Translation</text>
<text xml:space="preserve" text-anchor="start" x="621.75" y="-972" font-family="Helvetica,sans-Serif" font-size="10.00"> </text>
<text xml:space="preserve" text-anchor="start" x="621.75" y="-955.25" font-family="Helvetica,sans-Serif" font-size="10.00"> </text>
<polygon fill="#666666" stroke="#666666" points="582.88,-983.5 582.88,-983.5 663.62,-983.5 663.62,-983.5 582.88,-983.5"/>
<polygon fill="#666666" stroke="#666666" points="582.88,-966.75 582.88,-966.75 663.62,-966.75 663.62,-966.75 582.88,-966.75"/>
<polygon fill="none" stroke="#666666" points="582.88,-948 582.88,-1002.25 663.62,-1002.25 663.62,-948 582.88,-948"/>
</a>
</g>
</g>
<!-- Node8&#45;&gt;Node12 -->
<g id="edge13_Node000012_Node000008" class="edge">
<title>Node8&#45;&gt;Node12</title>
<g id="a_edge13_Node000012_Node000008"><a xlink:title=" ">
<path fill="none" stroke="#63b8ff" d="M623.25,-1140.75C623.25,-1108.31 623.25,-1052.67 623.25,-1015.16"/>
<polygon fill="none" stroke="#63b8ff" points="623.25,-1015.14 619.25,-1009.14 623.25,-1003.14 627.25,-1009.14 623.25,-1015.14"/>
</a>
</g>
<text xml:space="preserve" text-anchor="start" x="626.25" y="-1110.25" font-family="Helvetica,sans-Serif" font-size="10.00" fill="grey">+vx</text>
<text xml:space="preserve" text-anchor="start" x="626.25" y="-1093.5" font-family="Helvetica,sans-Serif" font-size="10.00" fill="grey">+vy</text>
<text xml:space="preserve" text-anchor="start" x="626.25" y="-1076.75" font-family="Helvetica,sans-Serif" font-size="10.00" fill="grey">+vz</text>
<text xml:space="preserve" text-anchor="start" x="626.25" y="-1060" font-family="Helvetica,sans-Serif" font-size="10.00" fill="grey">+x</text>
<text xml:space="preserve" text-anchor="start" x="626.25" y="-1043.25" font-family="Helvetica,sans-Serif" font-size="10.00" fill="grey">+y</text>
<text xml:space="preserve" text-anchor="start" x="626.25" y="-1026.5" font-family="Helvetica,sans-Serif" font-size="10.00" fill="grey">+z</text>
</g>
<!-- Node13 -->
<g id="Node000013" class="node">
<title>Node13</title>
<g id="a_Node000013"><a xlink:href="../../d1/d5f/structrm_1_1Rotation.html" target="_top" xlink:title="转动姿态信息">
<polygon fill="white" stroke="none" points="750.62,-1002.25 681.88,-1002.25 681.88,-948 750.62,-948 750.62,-1002.25"/>
<text xml:space="preserve" text-anchor="start" x="685.88" y="-988.75" font-family="Helvetica,sans-Serif" font-size="10.00">rm::Rotation</text>
<text xml:space="preserve" text-anchor="start" x="714.75" y="-972" font-family="Helvetica,sans-Serif" font-size="10.00"> </text>
<text xml:space="preserve" text-anchor="start" x="714.75" y="-955.25" font-family="Helvetica,sans-Serif" font-size="10.00"> </text>
<polygon fill="#666666" stroke="#666666" points="681.88,-983.5 681.88,-983.5 750.62,-983.5 750.62,-983.5 681.88,-983.5"/>
<polygon fill="#666666" stroke="#666666" points="681.88,-966.75 681.88,-966.75 750.62,-966.75 750.62,-966.75 681.88,-966.75"/>
<polygon fill="none" stroke="#666666" points="681.88,-948 681.88,-1002.25 750.62,-1002.25 750.62,-948 681.88,-948"/>
</a>
</g>
</g>
<!-- Node8&#45;&gt;Node13 -->
<g id="edge15_Node000013_Node000008" class="edge">
<title>Node8&#45;&gt;Node13</title>
<g id="a_edge15_Node000013_Node000008"><a xlink:title=" ">
<path fill="none" stroke="#63b8ff" d="M637.83,-1147.18C643.02,-1139.72 648.71,-1131.04 653.25,-1122.75 672.77,-1087.14 690.59,-1044.25 702.26,-1014.08"/>
<polygon fill="none" stroke="#63b8ff" points="702.27,-1014.04 700.67,-1007.01 706.55,-1002.83 708.14,-1009.86 702.27,-1014.04"/>
</a>
</g>
<text xml:space="preserve" text-anchor="start" x="701.89" y="-1110.25" font-family="Helvetica,sans-Serif" font-size="10.00" fill="grey">+pitch</text>
<text xml:space="preserve" text-anchor="start" x="701.89" y="-1093.5" font-family="Helvetica,sans-Serif" font-size="10.00" fill="grey">+pitch_speed</text>
<text xml:space="preserve" text-anchor="start" x="701.89" y="-1076.75" font-family="Helvetica,sans-Serif" font-size="10.00" fill="grey">+roll</text>
<text xml:space="preserve" text-anchor="start" x="701.89" y="-1060" font-family="Helvetica,sans-Serif" font-size="10.00" fill="grey">+roll_speed</text>
<text xml:space="preserve" text-anchor="start" x="701.89" y="-1043.25" font-family="Helvetica,sans-Serif" font-size="10.00" fill="grey">+yaw</text>
<text xml:space="preserve" text-anchor="start" x="701.89" y="-1026.5" font-family="Helvetica,sans-Serif" font-size="10.00" fill="grey">+yaw_speed</text>
</g>
<!-- Node9 -->
<g id="Node000009" class="node">
<title>Node9</title>
<g id="a_Node000009"><a xlink:href="../../d3/da8/classrm_1_1StateInfo.html" target="_top" xlink:title="状态类型系统">
<polygon fill="white" stroke="none" points="751.5,-859.75 669,-859.75 669,-621.25 751.5,-621.25 751.5,-859.75"/>
<text xml:space="preserve" text-anchor="start" x="678.38" y="-846.25" font-family="Helvetica,sans-Serif" font-size="10.00">rm::StateInfo</text>
<text xml:space="preserve" text-anchor="start" x="708.75" y="-829.5" font-family="Helvetica,sans-Serif" font-size="10.00"> </text>
<text xml:space="preserve" text-anchor="start" x="673" y="-812.75" font-family="Helvetica,sans-Serif" font-size="10.00">+</text>
<text xml:space="preserve" text-anchor="start" x="685.25" y="-812.75" font-family="Helvetica,sans-Serif" font-size="10.00">StateInfo()</text>
<text xml:space="preserve" text-anchor="start" x="673" y="-796" font-family="Helvetica,sans-Serif" font-size="10.00">+</text>
<text xml:space="preserve" text-anchor="start" x="685.25" y="-796" font-family="Helvetica,sans-Serif" font-size="10.00">add()</text>
<text xml:space="preserve" text-anchor="start" x="673" y="-779.25" font-family="Helvetica,sans-Serif" font-size="10.00">+</text>
<text xml:space="preserve" text-anchor="start" x="685.25" y="-779.25" font-family="Helvetica,sans-Serif" font-size="10.00">add()</text>
<text xml:space="preserve" text-anchor="start" x="673" y="-762.5" font-family="Helvetica,sans-Serif" font-size="10.00">+</text>
<text xml:space="preserve" text-anchor="start" x="685.25" y="-762.5" font-family="Helvetica,sans-Serif" font-size="10.00">remove()</text>
<text xml:space="preserve" text-anchor="start" x="673" y="-745.75" font-family="Helvetica,sans-Serif" font-size="10.00">+</text>
<text xml:space="preserve" text-anchor="start" x="685.25" y="-745.75" font-family="Helvetica,sans-Serif" font-size="10.00">contains()</text>
<text xml:space="preserve" text-anchor="start" x="673" y="-729" font-family="Helvetica,sans-Serif" font-size="10.00">+</text>
<text xml:space="preserve" text-anchor="start" x="685.25" y="-729" font-family="Helvetica,sans-Serif" font-size="10.00">clear()</text>
<text xml:space="preserve" text-anchor="start" x="673" y="-712.25" font-family="Helvetica,sans-Serif" font-size="10.00">+</text>
<text xml:space="preserve" text-anchor="start" x="685.25" y="-712.25" font-family="Helvetica,sans-Serif" font-size="10.00">empty()</text>
<text xml:space="preserve" text-anchor="start" x="673" y="-695.5" font-family="Helvetica,sans-Serif" font-size="10.00">+</text>
<text xml:space="preserve" text-anchor="start" x="685.25" y="-695.5" font-family="Helvetica,sans-Serif" font-size="10.00">at()</text>
<text xml:space="preserve" text-anchor="start" x="673" y="-678.75" font-family="Helvetica,sans-Serif" font-size="10.00">+</text>
<text xml:space="preserve" text-anchor="start" x="685.25" y="-678.75" font-family="Helvetica,sans-Serif" font-size="10.00">at_numeric()</text>
<text xml:space="preserve" text-anchor="start" x="673" y="-662" font-family="Helvetica,sans-Serif" font-size="10.00">+</text>
<text xml:space="preserve" text-anchor="start" x="685.25" y="-662" font-family="Helvetica,sans-Serif" font-size="10.00">at_string()</text>
<text xml:space="preserve" text-anchor="start" x="673" y="-645.25" font-family="Helvetica,sans-Serif" font-size="10.00">+</text>
<text xml:space="preserve" text-anchor="start" x="685.25" y="-645.25" font-family="Helvetica,sans-Serif" font-size="10.00">at()</text>
<text xml:space="preserve" text-anchor="start" x="673" y="-628.5" font-family="Helvetica,sans-Serif" font-size="10.00">+</text>
<text xml:space="preserve" text-anchor="start" x="685.25" y="-628.5" font-family="Helvetica,sans-Serif" font-size="10.00">operator[]()</text>
<polygon fill="#666666" stroke="#666666" points="669,-841 669,-841 751.5,-841 751.5,-841 669,-841"/>
<polygon fill="#666666" stroke="#666666" points="669,-824.25 669,-824.25 751.5,-824.25 751.5,-824.25 669,-824.25"/>
<polygon fill="none" stroke="#666666" points="669,-621.25 669,-859.75 751.5,-859.75 751.5,-621.25 669,-621.25"/>
</a>
</g>
</g>
<!-- Node9&#45;&gt;Node2 -->
<g id="edge9_Node000002_Node000009" class="edge">
<title>Node9&#45;&gt;Node2</title>
<g id="a_edge9_Node000002_Node000009"><a xlink:title=" ">
<path fill="none" stroke="#63b8ff" d="M681.22,-621.63C676.77,-608.87 671.79,-596.27 666.25,-584.5 653.84,-558.15 636.24,-531.28 619.97,-508.94"/>
<polygon fill="none" stroke="#63b8ff" points="620.05,-509.04 613.26,-506.6 612.9,-499.4 619.69,-501.84 620.05,-509.04"/>
</a>
</g>
<text xml:space="preserve" text-anchor="start" x="676.25" y="-590.75" font-family="Helvetica,sans-Serif" font-size="10.00" fill="grey">#_state</text>
</g>
<!-- Node10 -->
<g id="Node000010" class="node">
<title>Node10</title>
<g id="a_Node000010"><a xlink:title=" ">
<polygon fill="white" stroke="none" points="419.5,-1002.25 377,-1002.25 377,-948 419.5,-948 419.5,-1002.25"/>
<text xml:space="preserve" text-anchor="start" x="381" y="-988.75" font-family="Helvetica,sans-Serif" font-size="10.00">Point2f</text>
<text xml:space="preserve" text-anchor="start" x="396.75" y="-972" font-family="Helvetica,sans-Serif" font-size="10.00"> </text>
<text xml:space="preserve" text-anchor="start" x="396.75" y="-955.25" font-family="Helvetica,sans-Serif" font-size="10.00"> </text>
<polygon fill="#666666" stroke="#666666" points="377,-983.5 377,-983.5 419.5,-983.5 419.5,-983.5 377,-983.5"/>
<polygon fill="#666666" stroke="#666666" points="377,-966.75 377,-966.75 419.5,-966.75 419.5,-966.75 377,-966.75"/>
<polygon fill="none" stroke="#666666" points="377,-948 377,-1002.25 419.5,-1002.25 419.5,-948 377,-948"/>
</a>
</g>
</g>
<!-- Node10&#45;&gt;Node2 -->
<g id="edge10_Node000002_Node000010" class="edge">
<title>Node10&#45;&gt;Node2</title>
<g id="a_edge10_Node000002_Node000010"><a xlink:title=" ">
<path fill="none" stroke="#63b8ff" d="M414.56,-948.29C417.59,-942.47 420.38,-936.18 422.25,-930 462.16,-798.13 399.9,-749.59 450,-621.25 468.35,-574.24 504.33,-529.38 533.37,-498.21"/>
<polygon fill="none" stroke="#63b8ff" points="533.24,-498.34 534.47,-491.24 541.51,-489.64 540.27,-496.75 533.24,-498.34"/>
</a>
</g>
<text xml:space="preserve" text-anchor="start" x="453" y="-745.75" font-family="Helvetica,sans-Serif" font-size="10.00" fill="grey">#_center</text>
<text xml:space="preserve" text-anchor="start" x="453" y="-729" font-family="Helvetica,sans-Serif" font-size="10.00" fill="grey">#_relative_angle</text>
</g>
<!-- Node10&#45;&gt;Node14 -->
<g id="edge17_Node000014_Node000010" class="edge">
<title>Node10&#45;&gt;Node14</title>
<g id="a_edge17_Node000014_Node000010"><a xlink:title=" ">
<path fill="none" stroke="#63b8ff" d="M377.03,-952.78C371.39,-946 365.87,-938.13 362.25,-930 340.64,-881.42 334.73,-819.63 333.33,-780.3"/>
<polygon fill="none" stroke="#63b8ff" points="333.33,-780.29 329.18,-774.39 333.02,-768.29 337.17,-774.19 333.33,-780.29"/>
</a>
</g>
<text xml:space="preserve" text-anchor="start" x="365.25" y="-900.75" font-family="Helvetica,sans-Serif" font-size="10.00" fill="grey">+elements</text>
</g>
<!-- Node11 -->
<g id="Node000011" class="node">
<title>Node11</title>
<g id="a_Node000011"><a xlink:href="../../db/def/structrm_1_1ImuData.html" target="_top" xlink:title="IMU 数据">
<polygon fill="white" stroke="none" points="651,-792.75 581.5,-792.75 581.5,-688.25 651,-688.25 651,-792.75"/>
<text xml:space="preserve" text-anchor="start" x="585.5" y="-779.25" font-family="Helvetica,sans-Serif" font-size="10.00">rm::ImuData</text>
<text xml:space="preserve" text-anchor="start" x="614.75" y="-762.5" font-family="Helvetica,sans-Serif" font-size="10.00"> </text>
<text xml:space="preserve" text-anchor="start" x="589.75" y="-745.75" font-family="Helvetica,sans-Serif" font-size="10.00">+</text>
<text xml:space="preserve" text-anchor="start" x="606.25" y="-745.75" font-family="Helvetica,sans-Serif" font-size="10.00">write()</text>
<text xml:space="preserve" text-anchor="start" x="589.75" y="-729" font-family="Helvetica,sans-Serif" font-size="10.00">+</text>
<text xml:space="preserve" text-anchor="start" x="606.25" y="-729" font-family="Helvetica,sans-Serif" font-size="10.00">read()</text>
<text xml:space="preserve" text-anchor="start" x="589.75" y="-712.25" font-family="Helvetica,sans-Serif" font-size="10.00">+</text>
<text xml:space="preserve" text-anchor="start" x="606.25" y="-712.25" font-family="Helvetica,sans-Serif" font-size="10.00">write()</text>
<text xml:space="preserve" text-anchor="start" x="589.75" y="-695.5" font-family="Helvetica,sans-Serif" font-size="10.00">+</text>
<text xml:space="preserve" text-anchor="start" x="606.25" y="-695.5" font-family="Helvetica,sans-Serif" font-size="10.00">read()</text>
<polygon fill="#666666" stroke="#666666" points="581.5,-774 581.5,-774 651,-774 651,-774 581.5,-774"/>
<polygon fill="#666666" stroke="#666666" points="581.5,-757.25 581.5,-757.25 651,-757.25 651,-757.25 581.5,-757.25"/>
<polygon fill="none" stroke="#666666" points="581.5,-688.25 581.5,-792.75 651,-792.75 651,-688.25 581.5,-688.25"/>
</a>
</g>
</g>
<!-- Node11&#45;&gt;Node2 -->
<g id="edge11_Node000002_Node000011" class="edge">
<title>Node11&#45;&gt;Node2</title>
<g id="a_edge11_Node000002_Node000011"><a xlink:title=" ">
<path fill="none" stroke="#63b8ff" d="M609.23,-688.4C605.03,-657.77 599.48,-617.41 594.2,-578.91"/>
<polygon fill="none" stroke="#63b8ff" points="594.21,-578.99 589.43,-573.59 592.58,-567.1 597.36,-572.5 594.21,-578.99"/>
</a>
</g>
<text xml:space="preserve" text-anchor="start" x="599.75" y="-590.75" font-family="Helvetica,sans-Serif" font-size="10.00" fill="grey">#_imu_data</text>
</g>
<!-- Node12&#45;&gt;Node11 -->
<g id="edge12_Node000011_Node000012" class="edge">
<title>Node12&#45;&gt;Node11</title>
<g id="a_edge12_Node000011_Node000012"><a xlink:title=" ">
<path fill="none" stroke="#63b8ff" d="M622.47,-948.34C621.44,-914.06 619.59,-852.34 618.17,-805.21"/>
<polygon fill="none" stroke="#63b8ff" points="618.17,-805.23 613.99,-799.36 617.81,-793.24 621.99,-799.12 618.17,-805.23"/>
</a>
</g>
<text xml:space="preserve" text-anchor="start" x="624.91" y="-900.75" font-family="Helvetica,sans-Serif" font-size="10.00" fill="grey">+translation</text>
</g>
<!-- Node13&#45;&gt;Node11 -->
<g id="edge14_Node000011_Node000013" class="edge">
<title>Node13&#45;&gt;Node11</title>
<g id="a_edge14_Node000011_Node000013"><a xlink:title=" ">
<path fill="none" stroke="#63b8ff" d="M715.34,-948.4C713.4,-927.48 707.82,-898.18 692.25,-877.75 682.36,-864.77 670.85,-872.15 660.25,-859.75 646.88,-844.11 637.4,-824.03 630.75,-804.87"/>
<polygon fill="none" stroke="#63b8ff" points="630.72,-804.76 625.08,-800.26 627.06,-793.33 632.69,-797.82 630.72,-804.76"/>
</a>
</g>
<text xml:space="preserve" text-anchor="start" x="715.74" y="-900.75" font-family="Helvetica,sans-Serif" font-size="10.00" fill="grey">+rotation</text>
</g>
<!-- Node14&#45;&gt;Node2 -->
<g id="edge16_Node000002_Node000014" class="edge">
<title>Node14&#45;&gt;Node2</title>
<g id="a_edge16_Node000002_Node000014"><a xlink:title=" ">
<path fill="none" stroke="#63b8ff" d="M332.84,-713.44C333.58,-680.48 339.2,-623.35 366.75,-584.5 407.13,-527.58 481.3,-490.88 529.94,-471.7"/>
<polygon fill="none" stroke="#63b8ff" points="529.97,-471.69 534.15,-465.82 541.18,-467.41 537,-473.29 529.97,-471.69"/>
</a>
</g>
<text xml:space="preserve" text-anchor="start" x="369.75" y="-590.75" font-family="Helvetica,sans-Serif" font-size="10.00" fill="grey">#_corners</text>
</g>
<!-- Node15 -->
<g id="Node000015" class="node">
<title>Node15</title>
<g id="a_Node000015"><a xlink:href="../../da/dbf/classrm_1_1CameraExtrinsics.html" target="_top" xlink:title="相机外参">
<polygon fill="white" stroke="none" points="882.75,-859.75 769.75,-859.75 769.75,-621.25 882.75,-621.25 882.75,-859.75"/>
<text xml:space="preserve" text-anchor="start" x="773.75" y="-846.25" font-family="Helvetica,sans-Serif" font-size="10.00">rm::CameraExtrinsics</text>
<text xml:space="preserve" text-anchor="start" x="824.75" y="-829.5" font-family="Helvetica,sans-Serif" font-size="10.00"> </text>
<text xml:space="preserve" text-anchor="start" x="784.75" y="-812.75" font-family="Helvetica,sans-Serif" font-size="10.00">+</text>
<text xml:space="preserve" text-anchor="start" x="808" y="-812.75" font-family="Helvetica,sans-Serif" font-size="10.00">tvec()</text>
<text xml:space="preserve" text-anchor="start" x="784.75" y="-796" font-family="Helvetica,sans-Serif" font-size="10.00">+</text>
<text xml:space="preserve" text-anchor="start" x="808" y="-796" font-family="Helvetica,sans-Serif" font-size="10.00">rvec()</text>
<text xml:space="preserve" text-anchor="start" x="784.75" y="-779.25" font-family="Helvetica,sans-Serif" font-size="10.00">+</text>
<text xml:space="preserve" text-anchor="start" x="808" y="-779.25" font-family="Helvetica,sans-Serif" font-size="10.00">R()</text>
<text xml:space="preserve" text-anchor="start" x="784.75" y="-762.5" font-family="Helvetica,sans-Serif" font-size="10.00">+</text>
<text xml:space="preserve" text-anchor="start" x="808" y="-762.5" font-family="Helvetica,sans-Serif" font-size="10.00">T()</text>
<text xml:space="preserve" text-anchor="start" x="784.75" y="-745.75" font-family="Helvetica,sans-Serif" font-size="10.00">+</text>
<text xml:space="preserve" text-anchor="start" x="808" y="-745.75" font-family="Helvetica,sans-Serif" font-size="10.00">yaw()</text>
<text xml:space="preserve" text-anchor="start" x="784.75" y="-729" font-family="Helvetica,sans-Serif" font-size="10.00">+</text>
<text xml:space="preserve" text-anchor="start" x="808" y="-729" font-family="Helvetica,sans-Serif" font-size="10.00">pitch()</text>
<text xml:space="preserve" text-anchor="start" x="784.75" y="-712.25" font-family="Helvetica,sans-Serif" font-size="10.00">+</text>
<text xml:space="preserve" text-anchor="start" x="808" y="-712.25" font-family="Helvetica,sans-Serif" font-size="10.00">roll()</text>
<text xml:space="preserve" text-anchor="start" x="784.75" y="-695.5" font-family="Helvetica,sans-Serif" font-size="10.00">+</text>
<text xml:space="preserve" text-anchor="start" x="808" y="-695.5" font-family="Helvetica,sans-Serif" font-size="10.00">distance()</text>
<text xml:space="preserve" text-anchor="start" x="784.75" y="-678.75" font-family="Helvetica,sans-Serif" font-size="10.00">+</text>
<text xml:space="preserve" text-anchor="start" x="808" y="-678.75" font-family="Helvetica,sans-Serif" font-size="10.00">tvec()</text>
<text xml:space="preserve" text-anchor="start" x="784.75" y="-662" font-family="Helvetica,sans-Serif" font-size="10.00">+</text>
<text xml:space="preserve" text-anchor="start" x="808" y="-662" font-family="Helvetica,sans-Serif" font-size="10.00">rvec()</text>
<text xml:space="preserve" text-anchor="start" x="784.75" y="-645.25" font-family="Helvetica,sans-Serif" font-size="10.00">+</text>
<text xml:space="preserve" text-anchor="start" x="808" y="-645.25" font-family="Helvetica,sans-Serif" font-size="10.00">R()</text>
<text xml:space="preserve" text-anchor="start" x="784.75" y="-628.5" font-family="Helvetica,sans-Serif" font-size="10.00">+</text>
<text xml:space="preserve" text-anchor="start" x="808" y="-628.5" font-family="Helvetica,sans-Serif" font-size="10.00">distance()</text>
<polygon fill="#666666" stroke="#666666" points="769.75,-841 769.75,-841 882.75,-841 882.75,-841 769.75,-841"/>
<polygon fill="#666666" stroke="#666666" points="769.75,-824.25 769.75,-824.25 882.75,-824.25 882.75,-824.25 769.75,-824.25"/>
<polygon fill="none" stroke="#666666" points="769.75,-621.25 769.75,-859.75 882.75,-859.75 882.75,-621.25 769.75,-621.25"/>
</a>
</g>
</g>
<!-- Node15&#45;&gt;Node2 -->
<g id="edge19_Node000002_Node000015" class="edge">
<title>Node15&#45;&gt;Node2</title>
<g id="a_edge19_Node000002_Node000015"><a xlink:title=" ">
<path fill="none" stroke="#63b8ff" d="M769.81,-634.24C766.69,-629.77 763.5,-625.42 760.25,-621.25 719.85,-569.42 662.21,-520.23 622.47,-489.1"/>
<polygon fill="none" stroke="#63b8ff" points="622.47,-489.1 615.28,-488.59 612.98,-481.75 620.17,-482.26 622.47,-489.1"/>
</a>
</g>
<text xml:space="preserve" text-anchor="start" x="746.22" y="-590.75" font-family="Helvetica,sans-Serif" font-size="10.00" fill="grey">#_extrinsic</text>
</g>
<!-- Node16 -->
<g id="Node000016" class="node">
<title>Node16</title>
<g id="a_Node000016"><a xlink:title=" ">
<polygon fill="white" stroke="none" points="942.12,-767.62 900.38,-767.62 900.38,-713.38 942.12,-713.38 942.12,-767.62"/>
<text xml:space="preserve" text-anchor="start" x="904.38" y="-754.12" font-family="Helvetica,sans-Serif" font-size="10.00">int64_t</text>
<text xml:space="preserve" text-anchor="start" x="919.75" y="-737.38" font-family="Helvetica,sans-Serif" font-size="10.00"> </text>
<text xml:space="preserve" text-anchor="start" x="919.75" y="-720.62" font-family="Helvetica,sans-Serif" font-size="10.00"> </text>
<polygon fill="#666666" stroke="#666666" points="900.38,-748.88 900.38,-748.88 942.12,-748.88 942.12,-748.88 900.38,-748.88"/>
<polygon fill="#666666" stroke="#666666" points="900.38,-732.12 900.38,-732.12 942.12,-732.12 942.12,-732.12 900.38,-732.12"/>
<polygon fill="none" stroke="#666666" points="900.38,-713.38 900.38,-767.62 942.12,-767.62 942.12,-713.38 900.38,-713.38"/>
</a>
</g>
</g>
<!-- Node16&#45;&gt;Node2 -->
<g id="edge20_Node000002_Node000016" class="edge">
<title>Node16&#45;&gt;Node2</title>
<g id="a_edge20_Node000002_Node000016"><a xlink:title=" ">
<path fill="none" stroke="#63b8ff" d="M920.89,-713.81C919.28,-687.92 913.21,-648.06 892.25,-621.25 823.28,-533.02 694.11,-486.64 624.53,-467.08"/>
<polygon fill="none" stroke="#63b8ff" points="624.7,-467.13 617.86,-469.41 613.13,-463.97 619.97,-461.69 624.7,-467.13"/>
</a>
</g>
<text xml:space="preserve" text-anchor="start" x="876.49" y="-590.75" font-family="Helvetica,sans-Serif" font-size="10.00" fill="grey">#_tick</text>
</g>
</g>
</svg>
