<?xml version="1.0" encoding="UTF-8" standalone="no"?>
<!DOCTYPE svg PUBLIC "-//W3C//DTD SVG 1.1//EN"
 "http://www.w3.org/Graphics/SVG/1.1/DTD/svg11.dtd">
<!-- Generated by graphviz version 14.1.2 (0)
 -->
<!-- Title: rm::KalmanFilter&lt; FloatTp, StateDim, MeasureDim &gt; Pages: 1 -->
<!--zoomable 653 -->

<svg id="main" version="1.1" xmlns="http://www.w3.org/2000/svg" xmlns:xlink="http://www.w3.org/1999/xlink" xml:space="preserve" onload="init(evt)">

<style type="text/css"><![CDATA[
.node, .edge {opacity: 0.7;}
.node.selected, .edge.selected {opacity: 1;}
.edge:hover path { stroke: red; }
.edge:hover polygon { stroke: red; fill: red; }
]]></style>

<defs>
  <circle id="rim" cx="0" cy="0" r="7"/>
  <circle id="rim2" cx="0" cy="0" r="3.5"/>
  <g id="zoomPlus">
    <use xlink:href="#rim" fill="#404040"><set attributeName="fill" to="#808080" begin="zoomplus.mouseover" end="zoomplus.mouseout"/></use>
    <path d="M-4,0h8M0,-4v8" fill="none" stroke="white" stroke-width="1.5" pointer-events="none"/>
  </g>
  <g id="zoomMin">
    <use xlink:href="#rim" fill="#404040"><set attributeName="fill" to="#808080" begin="zoomminus.mouseover" end="zoomminus.mouseout"/></use>
    <path d="M-4,0h8" fill="none" stroke="white" stroke-width="1.5" pointer-events="none"/>
  </g>
  <g id="arrowUp" transform="translate(30 24)">
    <use xlink:href="#rim"/>
    <path pointer-events="none" fill="none" stroke="white" stroke-width="1.5" d="M0,-3.0v7 M-2.5,-0.5L0,-3.0L2.5,-0.5"/>
  </g>
  <g id="arrowRight" transform="rotate(90) translate(36 -43)">
    <use xlink:href="#rim"/>
    <path pointer-events="none" fill="none" stroke="white" stroke-width="1.5" d="M0,-3.0v7 M-2.5,-0.5L0,-3.0L2.5,-0.5"/>
  </g>
  <g id="arrowDown" transform="rotate(180) translate(-30 -48)">
    <use xlink:href="#rim"/>
    <path pointer-events="none" fill="none" stroke="white" stroke-width="1.5" d="M0,-3.0v7 M-2.5,-0.5L0,-3.0L2.5,-0.5"/>
  </g>
  <g id="arrowLeft" transform="rotate(270) translate(-36 17)">
    <use xlink:href="#rim"/>
    <path pointer-events="none" fill="none" stroke="white" stroke-width="1.5" d="M0,-3.0v7 M-2.5,-0.5L0,-3.0L2.5,-0.5"/>
  </g>
  <g id="resetDef">
    <use xlink:href="#rim2" fill="#404040"><set attributeName="fill" to="#808080" begin="reset.mouseover" end="reset.mouseout"/></use>
  </g>
</defs>
<script type="application/ecmascript">
var viewWidth = 288;
var viewHeight = 653;
var sectionId = 'dynsection-0';
</script>
<script type="application/ecmascript" xlink:href="../../svg.min.js"/>
<svg id="graph" class="graph">
<g id="viewport">
<title>rm::KalmanFilter&lt; FloatTp, StateDim, MeasureDim &gt;</title>
<!-- Node1 -->
<g id="Node000001" class="node">
<title>Node1</title>
<g id="a_Node000001"><a xlink:title="卡尔曼滤波器">
<polygon fill="#999999" stroke="none" points="207.25,-322.75 66.5,-322.75 66.5,-188.75 207.25,-188.75 207.25,-322.75"/>
<text xml:space="preserve" text-anchor="start" x="70.5" y="-309.25" font-family="Helvetica,sans-Serif" font-size="10.00">rm::KalmanFilter&lt; FloatTp,</text>
<text xml:space="preserve" text-anchor="start" x="72.75" y="-296.5" font-family="Helvetica,sans-Serif" font-size="10.00"> StateDim, MeasureDim &gt;</text>
<text xml:space="preserve" text-anchor="start" x="135.38" y="-279.75" font-family="Helvetica,sans-Serif" font-size="10.00"> </text>
<text xml:space="preserve" text-anchor="start" x="83.19" y="-263" font-family="Helvetica,sans-Serif" font-size="10.00">+</text>
<text xml:space="preserve" text-anchor="start" x="108.12" y="-263" font-family="Helvetica,sans-Serif" font-size="10.00">KalmanFilter()</text>
<text xml:space="preserve" text-anchor="start" x="83.19" y="-246.25" font-family="Helvetica,sans-Serif" font-size="10.00">+</text>
<text xml:space="preserve" text-anchor="start" x="108.12" y="-246.25" font-family="Helvetica,sans-Serif" font-size="10.00">setA()</text>
<text xml:space="preserve" text-anchor="start" x="83.19" y="-229.5" font-family="Helvetica,sans-Serif" font-size="10.00">+</text>
<text xml:space="preserve" text-anchor="start" x="108.12" y="-229.5" font-family="Helvetica,sans-Serif" font-size="10.00">setH()</text>
<text xml:space="preserve" text-anchor="start" x="83.19" y="-212.75" font-family="Helvetica,sans-Serif" font-size="10.00">+</text>
<text xml:space="preserve" text-anchor="start" x="108.12" y="-212.75" font-family="Helvetica,sans-Serif" font-size="10.00">predict()</text>
<text xml:space="preserve" text-anchor="start" x="83.19" y="-196" font-family="Helvetica,sans-Serif" font-size="10.00">+</text>
<text xml:space="preserve" text-anchor="start" x="108.12" y="-196" font-family="Helvetica,sans-Serif" font-size="10.00">correct()</text>
<polygon fill="#666666" stroke="#666666" points="66.5,-291.25 66.5,-291.25 207.25,-291.25 207.25,-291.25 66.5,-291.25"/>
<polygon fill="#666666" stroke="#666666" points="66.5,-274.5 66.5,-274.5 207.25,-274.5 207.25,-274.5 66.5,-274.5"/>
<polygon fill="none" stroke="#666666" points="66.5,-188.75 66.5,-322.75 207.25,-322.75 207.25,-188.75 66.5,-188.75"/>
</a>
</g>
</g>
<!-- Node3 -->
<g id="Node000003" class="node">
<title>Node3</title>
<g id="a_Node000003"><a xlink:href="../../d9/d1a/classrm_1_1KalmanFilter.html" target="_top" xlink:title=" ">
<polygon fill="white" stroke="none" points="125.75,-134 0,-134 0,0 125.75,0 125.75,-134"/>
<text xml:space="preserve" text-anchor="start" x="4" y="-120.5" font-family="Helvetica,sans-Serif" font-size="10.00">rm::KalmanFilter&lt; float,</text>
<text xml:space="preserve" text-anchor="start" x="46.75" y="-107.75" font-family="Helvetica,sans-Serif" font-size="10.00"> 2, 1 &gt;</text>
<text xml:space="preserve" text-anchor="start" x="61.38" y="-91" font-family="Helvetica,sans-Serif" font-size="10.00"> </text>
<text xml:space="preserve" text-anchor="start" x="12.94" y="-74.25" font-family="Helvetica,sans-Serif" font-size="10.00">+</text>
<text xml:space="preserve" text-anchor="start" x="34.12" y="-74.25" font-family="Helvetica,sans-Serif" font-size="10.00">KalmanFilter()</text>
<text xml:space="preserve" text-anchor="start" x="12.94" y="-57.5" font-family="Helvetica,sans-Serif" font-size="10.00">+</text>
<text xml:space="preserve" text-anchor="start" x="34.12" y="-57.5" font-family="Helvetica,sans-Serif" font-size="10.00">setA()</text>
<text xml:space="preserve" text-anchor="start" x="12.94" y="-40.75" font-family="Helvetica,sans-Serif" font-size="10.00">+</text>
<text xml:space="preserve" text-anchor="start" x="34.12" y="-40.75" font-family="Helvetica,sans-Serif" font-size="10.00">setH()</text>
<text xml:space="preserve" text-anchor="start" x="12.94" y="-24" font-family="Helvetica,sans-Serif" font-size="10.00">+</text>
<text xml:space="preserve" text-anchor="start" x="34.12" y="-24" font-family="Helvetica,sans-Serif" font-size="10.00">predict()</text>
<text xml:space="preserve" text-anchor="start" x="12.94" y="-7.25" font-family="Helvetica,sans-Serif" font-size="10.00">+</text>
<text xml:space="preserve" text-anchor="start" x="34.12" y="-7.25" font-family="Helvetica,sans-Serif" font-size="10.00">correct()</text>
<polygon fill="#666666" stroke="#666666" points="0,-102.5 0,-102.5 125.75,-102.5 125.75,-102.5 0,-102.5"/>
<polygon fill="#666666" stroke="#666666" points="0,-85.75 0,-85.75 125.75,-85.75 125.75,-85.75 0,-85.75"/>
<polygon fill="none" stroke="#666666" points="0,0 0,-134 125.75,-134 125.75,0 0,0"/>
</a>
</g>
</g>
<!-- Node1&#45;&gt;Node3 -->
<g id="edge2_Node000001_Node000003" class="edge">
<title>Node1&#45;&gt;Node3</title>
<g id="a_edge2_Node000001_Node000003"><a xlink:title=" ">
<path fill="none" stroke="orange" d="M106.58,-178.3C100.74,-163.56 94.67,-148.24 88.98,-133.88"/>
<polygon fill="orange" stroke="orange" points="103.29,-179.49 110.23,-187.5 109.8,-176.92 103.29,-179.49"/>
</a>
</g>
<text xml:space="preserve" text-anchor="start" x="105.09" y="-158.25" font-family="Helvetica,sans-Serif" font-size="10.00" fill="grey">&lt; float, 2, 1 &gt;</text>
</g>
<!-- Node4 -->
<g id="Node000004" class="node">
<title>Node4</title>
<g id="a_Node000004"><a xlink:href="../../d9/d1a/classrm_1_1KalmanFilter.html" target="_top" xlink:title=" ">
<polygon fill="white" stroke="none" points="280.38,-134 143.38,-134 143.38,0 280.38,0 280.38,-134"/>
<text xml:space="preserve" text-anchor="start" x="147.38" y="-120.5" font-family="Helvetica,sans-Serif" font-size="10.00">rm::KalmanFilter&lt; double,</text>
<text xml:space="preserve" text-anchor="start" x="195.75" y="-107.75" font-family="Helvetica,sans-Serif" font-size="10.00"> 2, 1 &gt;</text>
<text xml:space="preserve" text-anchor="start" x="210.38" y="-91" font-family="Helvetica,sans-Serif" font-size="10.00"> </text>
<text xml:space="preserve" text-anchor="start" x="159.12" y="-74.25" font-family="Helvetica,sans-Serif" font-size="10.00">+</text>
<text xml:space="preserve" text-anchor="start" x="183.12" y="-74.25" font-family="Helvetica,sans-Serif" font-size="10.00">KalmanFilter()</text>
<text xml:space="preserve" text-anchor="start" x="159.12" y="-57.5" font-family="Helvetica,sans-Serif" font-size="10.00">+</text>
<text xml:space="preserve" text-anchor="start" x="183.12" y="-57.5" font-family="Helvetica,sans-Serif" font-size="10.00">setA()</text>
<text xml:space="preserve" text-anchor="start" x="159.12" y="-40.75" font-family="Helvetica,sans-Serif" font-size="10.00">+</text>
<text xml:space="preserve" text-anchor="start" x="183.12" y="-40.75" font-family="Helvetica,sans-Serif" font-size="10.00">setH()</text>
<text xml:space="preserve" text-anchor="start" x="159.12" y="-24" font-family="Helvetica,sans-Serif" font-size="10.00">+</text>
<text xml:space="preserve" text-anchor="start" x="183.12" y="-24" font-family="Helvetica,sans-Serif" font-size="10.00">predict()</text>
<text xml:space="preserve" text-anchor="start" x="159.12" y="-7.25" font-family="Helvetica,sans-Serif" font-size="10.00">+</text>
<text xml:space="preserve" text-anchor="start" x="183.12" y="-7.25" font-family="Helvetica,sans-Serif" font-size="10.00">correct()</text>
<polygon fill="#666666" stroke="#666666" points="143.38,-102.5 143.38,-102.5 280.38,-102.5 280.38,-102.5 143.38,-102.5"/>
<polygon fill="#666666" stroke="#666666" points="143.38,-85.75 143.38,-85.75 280.38,-85.75 280.38,-85.75 143.38,-85.75"/>
<polygon fill="none" stroke="#666666" points="143.38,0 143.38,-134 280.38,-134 280.38,0 143.38,0"/>
</a>
</g>
</g>
<!-- Node1&#45;&gt;Node4 -->
<g id="edge3_Node000001_Node000004" class="edge">
<title>Node1&#45;&gt;Node4</title>
<g id="a_edge3_Node000001_Node000004"><a xlink:title=" ">
<path fill="none" stroke="orange" d="M176.69,-178.3C177.79,-175.77 178.86,-173.25 179.88,-170.75 184.68,-158.99 189.18,-146.22 193.22,-133.82"/>
<polygon fill="orange" stroke="orange" points="173.52,-176.82 172.6,-187.38 179.9,-179.7 173.52,-176.82"/>
</a>
</g>
<text xml:space="preserve" text-anchor="start" x="189.19" y="-158.25" font-family="Helvetica,sans-Serif" font-size="10.00" fill="grey">&lt; double, 2, 1 &gt;</text>
</g>
<!-- Node2 -->
<g id="Node000002" class="node">
<title>Node2</title>
<g id="a_Node000002"><a xlink:href="../../df/d1a/classrm_1_1KalmanFilterStaticDatas.html" target="_top" xlink:title="卡尔曼滤波静态数据">
<polygon fill="white" stroke="none" points="230.5,-644.5 43.25,-644.5 43.25,-359.75 230.5,-359.75 230.5,-644.5"/>
<text xml:space="preserve" text-anchor="start" x="47.25" y="-631" font-family="Helvetica,sans-Serif" font-size="10.00">rm::KalmanFilterStaticDatas</text>
<text xml:space="preserve" text-anchor="start" x="47.25" y="-618.25" font-family="Helvetica,sans-Serif" font-size="10.00">&lt; FloatTp, StateDim, MeasureDim &gt;</text>
<text xml:space="preserve" text-anchor="start" x="57.5" y="-601.5" font-family="Helvetica,sans-Serif" font-size="10.00">#</text>
<text xml:space="preserve" text-anchor="start" x="80" y="-601.5" font-family="Helvetica,sans-Serif" font-size="10.00">x</text>
<text xml:space="preserve" text-anchor="start" x="57.5" y="-584.75" font-family="Helvetica,sans-Serif" font-size="10.00">#</text>
<text xml:space="preserve" text-anchor="start" x="80" y="-584.75" font-family="Helvetica,sans-Serif" font-size="10.00">x_</text>
<text xml:space="preserve" text-anchor="start" x="57.5" y="-568" font-family="Helvetica,sans-Serif" font-size="10.00">#</text>
<text xml:space="preserve" text-anchor="start" x="80" y="-568" font-family="Helvetica,sans-Serif" font-size="10.00">z</text>
<text xml:space="preserve" text-anchor="start" x="57.5" y="-551.25" font-family="Helvetica,sans-Serif" font-size="10.00">#</text>
<text xml:space="preserve" text-anchor="start" x="80" y="-551.25" font-family="Helvetica,sans-Serif" font-size="10.00">Q</text>
<text xml:space="preserve" text-anchor="start" x="57.5" y="-534.5" font-family="Helvetica,sans-Serif" font-size="10.00">#</text>
<text xml:space="preserve" text-anchor="start" x="80" y="-534.5" font-family="Helvetica,sans-Serif" font-size="10.00">R</text>
<text xml:space="preserve" text-anchor="start" x="57.5" y="-517.75" font-family="Helvetica,sans-Serif" font-size="10.00">#</text>
<text xml:space="preserve" text-anchor="start" x="80" y="-517.75" font-family="Helvetica,sans-Serif" font-size="10.00">P</text>
<text xml:space="preserve" text-anchor="start" x="57.5" y="-501" font-family="Helvetica,sans-Serif" font-size="10.00">#</text>
<text xml:space="preserve" text-anchor="start" x="80" y="-501" font-family="Helvetica,sans-Serif" font-size="10.00">P_</text>
<text xml:space="preserve" text-anchor="start" x="57.5" y="-484.25" font-family="Helvetica,sans-Serif" font-size="10.00">#</text>
<text xml:space="preserve" text-anchor="start" x="80" y="-484.25" font-family="Helvetica,sans-Serif" font-size="10.00">I</text>
<text xml:space="preserve" text-anchor="start" x="57.5" y="-467.5" font-family="Helvetica,sans-Serif" font-size="10.00">#</text>
<text xml:space="preserve" text-anchor="start" x="80" y="-467.5" font-family="Helvetica,sans-Serif" font-size="10.00">K</text>
<text xml:space="preserve" text-anchor="start" x="57.5" y="-450.75" font-family="Helvetica,sans-Serif" font-size="10.00">+</text>
<text xml:space="preserve" text-anchor="start" x="80" y="-450.75" font-family="Helvetica,sans-Serif" font-size="10.00">KalmanFilterStaticDatas()</text>
<text xml:space="preserve" text-anchor="start" x="57.5" y="-434" font-family="Helvetica,sans-Serif" font-size="10.00">+</text>
<text xml:space="preserve" text-anchor="start" x="80" y="-434" font-family="Helvetica,sans-Serif" font-size="10.00">init()</text>
<text xml:space="preserve" text-anchor="start" x="57.5" y="-417.25" font-family="Helvetica,sans-Serif" font-size="10.00">+</text>
<text xml:space="preserve" text-anchor="start" x="80" y="-417.25" font-family="Helvetica,sans-Serif" font-size="10.00">init()</text>
<text xml:space="preserve" text-anchor="start" x="57.5" y="-400.5" font-family="Helvetica,sans-Serif" font-size="10.00">+</text>
<text xml:space="preserve" text-anchor="start" x="80" y="-400.5" font-family="Helvetica,sans-Serif" font-size="10.00">setR()</text>
<text xml:space="preserve" text-anchor="start" x="57.5" y="-383.75" font-family="Helvetica,sans-Serif" font-size="10.00">+</text>
<text xml:space="preserve" text-anchor="start" x="80" y="-383.75" font-family="Helvetica,sans-Serif" font-size="10.00">setQ()</text>
<text xml:space="preserve" text-anchor="start" x="57.5" y="-367" font-family="Helvetica,sans-Serif" font-size="10.00">+</text>
<text xml:space="preserve" text-anchor="start" x="80" y="-367" font-family="Helvetica,sans-Serif" font-size="10.00">setP()</text>
<polygon fill="#666666" stroke="#666666" points="43.25,-613 43.25,-613 230.5,-613 230.5,-613 43.25,-613"/>
<polygon fill="#666666" stroke="#666666" points="43.25,-462.25 43.25,-462.25 78,-462.25 78,-462.25 43.25,-462.25"/>
<polygon fill="#666666" stroke="#666666" points="78,-462.25 78,-462.25 230.5,-462.25 230.5,-462.25 78,-462.25"/>
<polygon fill="none" stroke="#666666" points="43.25,-359.75 43.25,-644.5 230.5,-644.5 230.5,-359.75 43.25,-359.75"/>
</a>
</g>
</g>
<!-- Node2&#45;&gt;Node1 -->
<g id="edge1_Node000001_Node000002" class="edge">
<title>Node2&#45;&gt;Node1</title>
<g id="a_edge1_Node000001_Node000002"><a xlink:title=" ">
<path fill="none" stroke="#63b8ff" d="M136.88,-348.53C136.88,-339.54 136.88,-330.78 136.88,-322.47"/>
<polygon fill="none" stroke="#63b8ff" points="133.38,-348.52 136.88,-358.52 140.38,-348.52 133.38,-348.52"/>
</a>
</g>
</g>
</g>
</svg>

<g id="navigator" transform="translate(0 0)" fill="#404254">
  <rect fill="#f2f5e9" fill-opacity="0.5" stroke="#606060" stroke-width=".5" x="0" y="0" width="60" height="60"/>
  <use id="zoomplus" xlink:href="#zoomPlus" x="17" y="9" onmousedown="handleZoom(evt,'in')"/>
  <use id="zoomminus" xlink:href="#zoomMin" x="42" y="9" onmousedown="handleZoom(evt,'out')"/>
  <use id="reset" xlink:href="#resetDef" x="30" y="36" onmousedown="handleReset()"/>
   <use id="arrowup" xlink:href="#arrowUp" x="0" y="0" onmousedown="handlePan(0,-1)"/>
  <use id="arrowright" xlink:href="#arrowRight" x="0" y="0" onmousedown="handlePan(1,0)"/>
  <use id="arrowdown" xlink:href="#arrowDown" x="0" y="0" onmousedown="handlePan(0,1)"/>
  <use id="arrowleft" xlink:href="#arrowLeft" x="0" y="0" onmousedown="handlePan(-1,0)"/>
</g>
<svg viewBox="0 0 15 15" width="100%" height="30px" preserveAspectRatio="xMaxYMin meet">
 <g id="arrow_out" transform="scale(0.3 0.3)">
  <a xlink:href="classrm_1_1KalmanFilter__inherit__graph_org.svg" target="_base">
   <rect id="button" ry="5" rx="5" y="6" x="6" height="38" width="38"
        fill="#f2f5e9" fill-opacity="0.5" stroke="#606060" stroke-width="1.0"/>
   <path id="arrow"
     d="M 11.500037,31.436501 C 11.940474,20.09759 22.043105,11.32322 32.158766,21.979434 L 37.068811,17.246167 C 37.068811,17.246167 37.088388,32 37.088388,32 L 22.160133,31.978069 C 22.160133,31.978069 26.997745,27.140456 26.997745,27.140456 C 18.528582,18.264221 13.291696,25.230495 11.500037,31.436501 z"
     style="fill:#404040;"/>
  </a>
 </g>
</svg>

<style type='text/css'>
<![CDATA[
[data-mouse-over-selected='false'] { opacity: 0.7; }
[data-mouse-over-selected='true']  { opacity: 1.0; }
]]>
</style>
<script type="application/ecmascript"><![CDATA[
document.addEventListener('DOMContentLoaded', (event) => {
  highlightEdges();
  highlightAdjacentNodes();
});
]]></script>
</svg>
