<?xml version="1.0" encoding="UTF-8" standalone="no"?>
<!DOCTYPE svg PUBLIC "-//W3C//DTD SVG 1.1//EN"
 "http://www.w3.org/Graphics/SVG/1.1/DTD/svg11.dtd">
<!-- Generated by graphviz version 2.43.0 (0)
 -->
<!-- Title: rm::KalmanFilter&lt; Tp, StateDim, MeasureDim &gt; Pages: 1 -->
<svg width="428pt" height="587pt"
 viewBox="0.00 0.00 428.00 587.00" xmlns="http://www.w3.org/2000/svg" xmlns:xlink="http://www.w3.org/1999/xlink">
<g id="graph0" class="graph" transform="scale(1 1) rotate(0) translate(4 583)">
<title>rm::KalmanFilter&lt; Tp, StateDim, MeasureDim &gt;</title>
<!-- Node1 -->
<g id="Node000001" class="node">
<title>Node1</title>
<g id="a_Node000001"><a xlink:title="卡尔曼滤波器">
<polygon fill="#999999" stroke="transparent" points="279.5,-287 140.5,-287 140.5,-167 279.5,-167 279.5,-287"/>
<text text-anchor="start" x="146" y="-275" font-family="Helvetica,sans-Serif" font-size="10.00">rm::KalmanFilter&lt; Tp,</text>
<text text-anchor="start" x="146" y="-264" font-family="Helvetica,sans-Serif" font-size="10.00"> StateDim, MeasureDim &gt;</text>
<text text-anchor="start" x="208.5" y="-249" font-family="Helvetica,sans-Serif" font-size="10.00"> </text>
<text text-anchor="start" x="157" y="-234" font-family="Helvetica,sans-Serif" font-size="10.00">+</text>
<text text-anchor="start" x="182" y="-234" font-family="Helvetica,sans-Serif" font-size="10.00">KalmanFilter()</text>
<text text-anchor="start" x="157" y="-219" font-family="Helvetica,sans-Serif" font-size="10.00">+</text>
<text text-anchor="start" x="182" y="-219" font-family="Helvetica,sans-Serif" font-size="10.00">setA()</text>
<text text-anchor="start" x="157" y="-204" font-family="Helvetica,sans-Serif" font-size="10.00">+</text>
<text text-anchor="start" x="182" y="-204" font-family="Helvetica,sans-Serif" font-size="10.00">setH()</text>
<text text-anchor="start" x="157" y="-189" font-family="Helvetica,sans-Serif" font-size="10.00">+</text>
<text text-anchor="start" x="182" y="-189" font-family="Helvetica,sans-Serif" font-size="10.00">predict()</text>
<text text-anchor="start" x="157" y="-174" font-family="Helvetica,sans-Serif" font-size="10.00">+</text>
<text text-anchor="start" x="182" y="-174" font-family="Helvetica,sans-Serif" font-size="10.00">correct()</text>
<polygon fill="#666666" stroke="#666666" points="141,-259 141,-259 280,-259 280,-259 141,-259"/>
<polygon fill="#666666" stroke="#666666" points="141,-244 141,-244 280,-244 280,-244 141,-244"/>
<polygon fill="none" stroke="#666666" points="140.5,-167 140.5,-287 279.5,-287 279.5,-167 140.5,-167"/>
</a>
</g>
</g>
<!-- Node3 -->
<g id="Node000003" class="node">
<title>Node3</title>
<g id="a_Node000003"><a xlink:href="../../d9/d1a/classrm_1_1KalmanFilter.html" target="_top" xlink:title=" ">
<polygon fill="white" stroke="transparent" points="128,-120 0,-120 0,0 128,0 128,-120"/>
<text text-anchor="start" x="5" y="-108" font-family="Helvetica,sans-Serif" font-size="10.00">rm::KalmanFilter&lt; float,</text>
<text text-anchor="start" x="40" y="-97" font-family="Helvetica,sans-Serif" font-size="10.00"> 6U, 3U &gt;</text>
<text text-anchor="start" x="62" y="-82" font-family="Helvetica,sans-Serif" font-size="10.00"> </text>
<text text-anchor="start" x="13" y="-67" font-family="Helvetica,sans-Serif" font-size="10.00">+</text>
<text text-anchor="start" x="35" y="-67" font-family="Helvetica,sans-Serif" font-size="10.00">KalmanFilter()</text>
<text text-anchor="start" x="13" y="-52" font-family="Helvetica,sans-Serif" font-size="10.00">+</text>
<text text-anchor="start" x="35" y="-52" font-family="Helvetica,sans-Serif" font-size="10.00">setA()</text>
<text text-anchor="start" x="13" y="-37" font-family="Helvetica,sans-Serif" font-size="10.00">+</text>
<text text-anchor="start" x="35" y="-37" font-family="Helvetica,sans-Serif" font-size="10.00">setH()</text>
<text text-anchor="start" x="13" y="-22" font-family="Helvetica,sans-Serif" font-size="10.00">+</text>
<text text-anchor="start" x="35" y="-22" font-family="Helvetica,sans-Serif" font-size="10.00">predict()</text>
<text text-anchor="start" x="13" y="-7" font-family="Helvetica,sans-Serif" font-size="10.00">+</text>
<text text-anchor="start" x="35" y="-7" font-family="Helvetica,sans-Serif" font-size="10.00">correct()</text>
<polygon fill="#666666" stroke="#666666" points="0,-92 0,-92 128,-92 128,-92 0,-92"/>
<polygon fill="#666666" stroke="#666666" points="0,-77 0,-77 128,-77 128,-77 0,-77"/>
<polygon fill="none" stroke="#666666" points="0,0 0,-120 128,-120 128,0 0,0"/>
</a>
</g>
</g>
<!-- Node1&#45;&gt;Node3 -->
<g id="edge2_Node000001_Node000003" class="edge">
<title>Node1&#45;&gt;Node3</title>
<g id="a_edge2_Node000001_Node000003"><a xlink:title=" ">
<path fill="none" stroke="orange" d="M132.98,-163.92C128.08,-159.04 123.37,-154.05 119,-149 111.33,-140.15 104.02,-130.12 97.36,-120.08"/>
<polygon fill="orange" stroke="orange" points="130.65,-166.54 140.28,-170.98 135.52,-161.51 130.65,-166.54"/>
</a>
</g>
<text text-anchor="middle" x="162.5" y="-141" font-family="Helvetica,sans-Serif" font-size="10.00" fill="grey"> &lt; float, 6U, 3U &gt;</text>
</g>
<!-- Node4 -->
<g id="Node000004" class="node">
<title>Node4</title>
<g id="a_Node000004"><a xlink:href="../../d9/d1a/classrm_1_1KalmanFilter.html" target="_top" xlink:title=" ">
<polygon fill="white" stroke="transparent" points="274,-120 146,-120 146,0 274,0 274,-120"/>
<text text-anchor="start" x="151" y="-108" font-family="Helvetica,sans-Serif" font-size="10.00">rm::KalmanFilter&lt; float,</text>
<text text-anchor="start" x="186" y="-97" font-family="Helvetica,sans-Serif" font-size="10.00"> 4U, 2U &gt;</text>
<text text-anchor="start" x="208" y="-82" font-family="Helvetica,sans-Serif" font-size="10.00"> </text>
<text text-anchor="start" x="159" y="-67" font-family="Helvetica,sans-Serif" font-size="10.00">+</text>
<text text-anchor="start" x="181" y="-67" font-family="Helvetica,sans-Serif" font-size="10.00">KalmanFilter()</text>
<text text-anchor="start" x="159" y="-52" font-family="Helvetica,sans-Serif" font-size="10.00">+</text>
<text text-anchor="start" x="181" y="-52" font-family="Helvetica,sans-Serif" font-size="10.00">setA()</text>
<text text-anchor="start" x="159" y="-37" font-family="Helvetica,sans-Serif" font-size="10.00">+</text>
<text text-anchor="start" x="181" y="-37" font-family="Helvetica,sans-Serif" font-size="10.00">setH()</text>
<text text-anchor="start" x="159" y="-22" font-family="Helvetica,sans-Serif" font-size="10.00">+</text>
<text text-anchor="start" x="181" y="-22" font-family="Helvetica,sans-Serif" font-size="10.00">predict()</text>
<text text-anchor="start" x="159" y="-7" font-family="Helvetica,sans-Serif" font-size="10.00">+</text>
<text text-anchor="start" x="181" y="-7" font-family="Helvetica,sans-Serif" font-size="10.00">correct()</text>
<polygon fill="#666666" stroke="#666666" points="146,-92 146,-92 274,-92 274,-92 146,-92"/>
<polygon fill="#666666" stroke="#666666" points="146,-77 146,-77 274,-77 274,-77 146,-77"/>
<polygon fill="none" stroke="#666666" points="146,0 146,-120 274,-120 274,0 146,0"/>
</a>
</g>
</g>
<!-- Node1&#45;&gt;Node4 -->
<g id="edge3_Node000001_Node000004" class="edge">
<title>Node1&#45;&gt;Node4</title>
<g id="a_edge3_Node000001_Node000004"><a xlink:title=" ">
<path fill="none" stroke="orange" d="M210,-156.8C210,-144.65 210,-132.1 210,-120.24"/>
<polygon fill="orange" stroke="orange" points="206.5,-156.9 210,-166.9 213.5,-156.9 206.5,-156.9"/>
</a>
</g>
<text text-anchor="middle" x="253.5" y="-141" font-family="Helvetica,sans-Serif" font-size="10.00" fill="grey"> &lt; float, 4U, 2U &gt;</text>
</g>
<!-- Node5 -->
<g id="Node000005" class="node">
<title>Node5</title>
<g id="a_Node000005"><a xlink:href="../../d9/d1a/classrm_1_1KalmanFilter.html" target="_top" xlink:title=" ">
<polygon fill="white" stroke="transparent" points="420,-120 292,-120 292,0 420,0 420,-120"/>
<text text-anchor="start" x="297" y="-108" font-family="Helvetica,sans-Serif" font-size="10.00">rm::KalmanFilter&lt; float,</text>
<text text-anchor="start" x="332" y="-97" font-family="Helvetica,sans-Serif" font-size="10.00"> 2U, 1U &gt;</text>
<text text-anchor="start" x="354" y="-82" font-family="Helvetica,sans-Serif" font-size="10.00"> </text>
<text text-anchor="start" x="305" y="-67" font-family="Helvetica,sans-Serif" font-size="10.00">+</text>
<text text-anchor="start" x="327" y="-67" font-family="Helvetica,sans-Serif" font-size="10.00">KalmanFilter()</text>
<text text-anchor="start" x="305" y="-52" font-family="Helvetica,sans-Serif" font-size="10.00">+</text>
<text text-anchor="start" x="327" y="-52" font-family="Helvetica,sans-Serif" font-size="10.00">setA()</text>
<text text-anchor="start" x="305" y="-37" font-family="Helvetica,sans-Serif" font-size="10.00">+</text>
<text text-anchor="start" x="327" y="-37" font-family="Helvetica,sans-Serif" font-size="10.00">setH()</text>
<text text-anchor="start" x="305" y="-22" font-family="Helvetica,sans-Serif" font-size="10.00">+</text>
<text text-anchor="start" x="327" y="-22" font-family="Helvetica,sans-Serif" font-size="10.00">predict()</text>
<text text-anchor="start" x="305" y="-7" font-family="Helvetica,sans-Serif" font-size="10.00">+</text>
<text text-anchor="start" x="327" y="-7" font-family="Helvetica,sans-Serif" font-size="10.00">correct()</text>
<polygon fill="#666666" stroke="#666666" points="292,-92 292,-92 420,-92 420,-92 292,-92"/>
<polygon fill="#666666" stroke="#666666" points="292,-77 292,-77 420,-77 420,-77 292,-77"/>
<polygon fill="none" stroke="#666666" points="292,0 292,-120 420,-120 420,0 292,0"/>
</a>
</g>
</g>
<!-- Node1&#45;&gt;Node5 -->
<g id="edge4_Node000001_Node000005" class="edge">
<title>Node1&#45;&gt;Node5</title>
<g id="a_edge4_Node000001_Node000005"><a xlink:title=" ">
<path fill="none" stroke="orange" d="M287.02,-163.92C291.92,-159.04 296.63,-154.05 301,-149 308.67,-140.15 315.98,-130.12 322.64,-120.08"/>
<polygon fill="orange" stroke="orange" points="284.48,-161.51 279.72,-170.98 289.35,-166.54 284.48,-161.51"/>
</a>
</g>
<text text-anchor="middle" x="352.5" y="-141" font-family="Helvetica,sans-Serif" font-size="10.00" fill="grey"> &lt; float, 2U, 1U &gt;</text>
</g>
<!-- Node2 -->
<g id="Node000002" class="node">
<title>Node2</title>
<g id="a_Node000002"><a xlink:href="../../df/d1a/classrm_1_1KalmanFilterStaticDatas.html" target="_top" xlink:title="卡尔曼滤波静态数据">
<polygon fill="white" stroke="transparent" points="292.5,-579 127.5,-579 127.5,-324 292.5,-324 292.5,-579"/>
<text text-anchor="start" x="133" y="-566.5" font-family="Helvetica,sans-Serif" font-size="10.00">rm::KalmanFilterStaticDatas</text>
<text text-anchor="start" x="133" y="-555.5" font-family="Helvetica,sans-Serif" font-size="10.00">&lt; Tp, StateDim, MeasureDim &gt;</text>
<text text-anchor="start" x="136" y="-540.5" font-family="Helvetica,sans-Serif" font-size="10.00">#</text>
<text text-anchor="start" x="153" y="-540.5" font-family="Helvetica,sans-Serif" font-size="10.00">x</text>
<text text-anchor="start" x="136" y="-525.5" font-family="Helvetica,sans-Serif" font-size="10.00">#</text>
<text text-anchor="start" x="153" y="-525.5" font-family="Helvetica,sans-Serif" font-size="10.00">x_</text>
<text text-anchor="start" x="136" y="-510.5" font-family="Helvetica,sans-Serif" font-size="10.00">#</text>
<text text-anchor="start" x="153" y="-510.5" font-family="Helvetica,sans-Serif" font-size="10.00">z</text>
<text text-anchor="start" x="136" y="-495.5" font-family="Helvetica,sans-Serif" font-size="10.00">#</text>
<text text-anchor="start" x="153" y="-495.5" font-family="Helvetica,sans-Serif" font-size="10.00">Q</text>
<text text-anchor="start" x="136" y="-480.5" font-family="Helvetica,sans-Serif" font-size="10.00">#</text>
<text text-anchor="start" x="153" y="-480.5" font-family="Helvetica,sans-Serif" font-size="10.00">R</text>
<text text-anchor="start" x="136" y="-465.5" font-family="Helvetica,sans-Serif" font-size="10.00">#</text>
<text text-anchor="start" x="153" y="-465.5" font-family="Helvetica,sans-Serif" font-size="10.00">P</text>
<text text-anchor="start" x="136" y="-450.5" font-family="Helvetica,sans-Serif" font-size="10.00">#</text>
<text text-anchor="start" x="153" y="-450.5" font-family="Helvetica,sans-Serif" font-size="10.00">P_</text>
<text text-anchor="start" x="136" y="-435.5" font-family="Helvetica,sans-Serif" font-size="10.00">#</text>
<text text-anchor="start" x="153" y="-435.5" font-family="Helvetica,sans-Serif" font-size="10.00">I</text>
<text text-anchor="start" x="136" y="-420.5" font-family="Helvetica,sans-Serif" font-size="10.00">#</text>
<text text-anchor="start" x="153" y="-420.5" font-family="Helvetica,sans-Serif" font-size="10.00">K</text>
<text text-anchor="start" x="136" y="-405.5" font-family="Helvetica,sans-Serif" font-size="10.00">+</text>
<text text-anchor="start" x="153" y="-405.5" font-family="Helvetica,sans-Serif" font-size="10.00">KalmanFilterStaticDatas()</text>
<text text-anchor="start" x="136" y="-390.5" font-family="Helvetica,sans-Serif" font-size="10.00">+</text>
<text text-anchor="start" x="153" y="-390.5" font-family="Helvetica,sans-Serif" font-size="10.00">init()</text>
<text text-anchor="start" x="136" y="-375.5" font-family="Helvetica,sans-Serif" font-size="10.00">+</text>
<text text-anchor="start" x="153" y="-375.5" font-family="Helvetica,sans-Serif" font-size="10.00">init()</text>
<text text-anchor="start" x="136" y="-360.5" font-family="Helvetica,sans-Serif" font-size="10.00">+</text>
<text text-anchor="start" x="153" y="-360.5" font-family="Helvetica,sans-Serif" font-size="10.00">setR()</text>
<text text-anchor="start" x="136" y="-345.5" font-family="Helvetica,sans-Serif" font-size="10.00">+</text>
<text text-anchor="start" x="153" y="-345.5" font-family="Helvetica,sans-Serif" font-size="10.00">setQ()</text>
<text text-anchor="start" x="136" y="-330.5" font-family="Helvetica,sans-Serif" font-size="10.00">+</text>
<text text-anchor="start" x="153" y="-330.5" font-family="Helvetica,sans-Serif" font-size="10.00">setP()</text>
<polygon fill="#666666" stroke="#666666" points="128,-550.5 128,-550.5 293,-550.5 293,-550.5 128,-550.5"/>
<polygon fill="#666666" stroke="#666666" points="128,-415.5 128,-415.5 151,-415.5 151,-415.5 128,-415.5"/>
<polygon fill="#666666" stroke="#666666" points="151,-415.5 151,-415.5 293,-415.5 293,-415.5 151,-415.5"/>
<polygon fill="none" stroke="#666666" points="127.5,-324 127.5,-579 292.5,-579 292.5,-324 127.5,-324"/>
</a>
</g>
</g>
<!-- Node2&#45;&gt;Node1 -->
<g id="edge1_Node000001_Node000002" class="edge">
<title>Node2&#45;&gt;Node1</title>
<g id="a_edge1_Node000001_Node000002"><a xlink:title=" ">
<path fill="none" stroke="#63b8ff" d="M210,-313.83C210,-304.56 210,-295.54 210,-287.05"/>
<polygon fill="none" stroke="#63b8ff" points="206.5,-313.97 210,-323.97 213.5,-313.97 206.5,-313.97"/>
</a>
</g>
</g>
</g>
</svg>
