<?xml version="1.0" encoding="UTF-8" standalone="no"?>
<!DOCTYPE svg PUBLIC "-//W3C//DTD SVG 1.1//EN"
 "http://www.w3.org/Graphics/SVG/1.1/DTD/svg11.dtd">
<!-- Generated by graphviz version 2.43.0 (0)
 -->
<!-- Title: rmvl/combo/rune.h Pages: 1 -->
<!--zoomable 302 -->

<svg id="main" version="1.1" xmlns="http://www.w3.org/2000/svg" xmlns:xlink="http://www.w3.org/1999/xlink" xml:space="preserve" onload="init(evt)">

<style type="text/css"><![CDATA[
.node, .edge {opacity: 0.7;}
.node.selected, .edge.selected {opacity: 1;}
.edge:hover path { stroke: red; }
.edge:hover polygon { stroke: red; fill: red; }
]]></style>

<defs>
  <circle id="rim" cx="0" cy="0" r="7"/>
  <circle id="rim2" cx="0" cy="0" r="3.5"/>
  <g id="zoomPlus">
    <use xlink:href="#rim" fill="#404040"><set attributeName="fill" to="#808080" begin="zoomplus.mouseover" end="zoomplus.mouseout"/></use>
    <path d="M-4,0h8M0,-4v8" fill="none" stroke="white" stroke-width="1.5" pointer-events="none"/>
  </g>
  <g id="zoomMin">
    <use xlink:href="#rim" fill="#404040"><set attributeName="fill" to="#808080" begin="zoomminus.mouseover" end="zoomminus.mouseout"/></use>
    <path d="M-4,0h8" fill="none" stroke="white" stroke-width="1.5" pointer-events="none"/>
  </g>
  <g id="arrowUp" transform="translate(30 24)">
    <use xlink:href="#rim"/>
    <path pointer-events="none" fill="none" stroke="white" stroke-width="1.5" d="M0,-3.0v7 M-2.5,-0.5L0,-3.0L2.5,-0.5"/>
  </g>
  <g id="arrowRight" transform="rotate(90) translate(36 -43)">
    <use xlink:href="#rim"/>
    <path pointer-events="none" fill="none" stroke="white" stroke-width="1.5" d="M0,-3.0v7 M-2.5,-0.5L0,-3.0L2.5,-0.5"/>
  </g>
  <g id="arrowDown" transform="rotate(180) translate(-30 -48)">
    <use xlink:href="#rim"/>
    <path pointer-events="none" fill="none" stroke="white" stroke-width="1.5" d="M0,-3.0v7 M-2.5,-0.5L0,-3.0L2.5,-0.5"/>
  </g>
  <g id="arrowLeft" transform="rotate(270) translate(-36 17)">
    <use xlink:href="#rim"/>
    <path pointer-events="none" fill="none" stroke="white" stroke-width="1.5" d="M0,-3.0v7 M-2.5,-0.5L0,-3.0L2.5,-0.5"/>
  </g>
  <g id="resetDef">
    <use xlink:href="#rim2" fill="#404040"><set attributeName="fill" to="#808080" begin="reset.mouseover" end="reset.mouseout"/></use>
  </g>
</defs>
<script type="application/ecmascript">
var viewWidth = 1173;
var viewHeight = 302;
var sectionId = 'dynsection-0';
</script>
<script type="application/ecmascript" xlink:href="../../svg.min.js"/>
<svg id="graph" class="graph">
<g id="viewport">
<title>rmvl/combo/rune.h</title>
<!-- Node1 -->
<g id="Node000001" class="node">
<title>Node1</title>
<g id="a_Node000001"><a xlink:title="神符类头文件">
<polygon fill="#999999" stroke="#666666" points="904,-294 795,-294 795,-275 904,-275 904,-294"/>
<text text-anchor="middle" x="849.5" y="-282" font-family="Helvetica,sans-Serif" font-size="10.00">rmvl/combo/rune.h</text>
</a>
</g>
</g>
<!-- Node2 -->
<g id="Node000002" class="node">
<title>Node2</title>
<g id="a_Node000002"><a xlink:href="../../d8/d36/combo_8h.html" target="_top" xlink:title="the combination of the features header file">
<polygon fill="white" stroke="#666666" points="758,-239 699,-239 699,-220 758,-220 758,-239"/>
<text text-anchor="middle" x="728.5" y="-227" font-family="Helvetica,sans-Serif" font-size="10.00">combo.h</text>
</a>
</g>
</g>
<!-- Node1&#45;&gt;Node2 -->
<g id="edge1_Node000001_Node000002" class="edge">
<title>Node1&#45;&gt;Node2</title>
<g id="a_edge1_Node000001_Node000002"><a xlink:title=" ">
<path fill="none" stroke="#63b8ff" d="M830.06,-274.98C810.51,-266.42 780.12,-253.11 757.68,-243.28"/>
<polygon fill="#63b8ff" stroke="#63b8ff" points="758.86,-239.98 748.29,-239.17 756.05,-246.39 758.86,-239.98"/>
</a>
</g>
</g>
<!-- Node24 -->
<g id="Node000024" class="node">
<title>Node24</title>
<g id="a_Node000024"><a xlink:href="../../d6/d1d/feature_2rune__center_8h.html" target="_top" xlink:title=" ">
<polygon fill="white" stroke="#666666" points="1086.5,-239 940.5,-239 940.5,-220 1086.5,-220 1086.5,-239"/>
<text text-anchor="middle" x="1013.5" y="-227" font-family="Helvetica,sans-Serif" font-size="10.00">rmvl/feature/rune_center.h</text>
</a>
</g>
</g>
<!-- Node1&#45;&gt;Node24 -->
<g id="edge30_Node000001_Node000024" class="edge">
<title>Node1&#45;&gt;Node24</title>
<g id="a_edge30_Node000001_Node000024"><a xlink:title=" ">
<path fill="none" stroke="#63b8ff" d="M875.85,-274.98C903.26,-266.13 946.39,-252.19 977.06,-242.28"/>
<polygon fill="#63b8ff" stroke="#63b8ff" points="978.5,-245.49 986.94,-239.08 976.35,-238.83 978.5,-245.49"/>
</a>
</g>
</g>
<!-- Node25 -->
<g id="Node000025" class="node">
<title>Node25</title>
<g id="a_Node000025"><a xlink:href="../../d2/d8d/feature_2rune__target_8h.html" target="_top" xlink:title=" ">
<polygon fill="white" stroke="#666666" points="922.5,-239 776.5,-239 776.5,-220 922.5,-220 922.5,-239"/>
<text text-anchor="middle" x="849.5" y="-227" font-family="Helvetica,sans-Serif" font-size="10.00">rmvl/feature/rune_target.h</text>
</a>
</g>
</g>
<!-- Node1&#45;&gt;Node25 -->
<g id="edge32_Node000001_Node000025" class="edge">
<title>Node1&#45;&gt;Node25</title>
<g id="a_edge32_Node000001_Node000025"><a xlink:title=" ">
<path fill="none" stroke="#63b8ff" d="M849.5,-274.75C849.5,-267.8 849.5,-257.85 849.5,-249.13"/>
<polygon fill="#63b8ff" stroke="#63b8ff" points="853,-249.09 849.5,-239.09 846,-249.09 853,-249.09"/>
</a>
</g>
</g>
<!-- Node3 -->
<g id="Node000003" class="node">
<title>Node3</title>
<g id="a_Node000003"><a xlink:href="../../d3/d7e/camutils_8hpp.html" target="_top" xlink:title=" ">
<polygon fill="white" stroke="#666666" points="145,-184 0,-184 0,-165 145,-165 145,-184"/>
<text text-anchor="middle" x="72.5" y="-172" font-family="Helvetica,sans-Serif" font-size="10.00">rmvl/camera/camutils.hpp</text>
</a>
</g>
</g>
<!-- Node2&#45;&gt;Node3 -->
<g id="edge2_Node000002_Node000003" class="edge">
<title>Node2&#45;&gt;Node3</title>
<g id="a_edge2_Node000002_Node000003"><a xlink:title=" ">
<path fill="none" stroke="#63b8ff" d="M698.61,-226.08C603.02,-218.36 302.49,-194.08 155.33,-182.19"/>
<polygon fill="#63b8ff" stroke="#63b8ff" points="155.25,-178.67 145.01,-181.36 154.69,-185.65 155.25,-178.67"/>
</a>
</g>
</g>
<!-- Node6 -->
<g id="Node000006" class="node">
<title>Node6</title>
<g id="a_Node000006"><a xlink:href="../../d4/d78/math_8hpp.html" target="_top" xlink:title="基础数学库">
<polygon fill="white" stroke="#666666" points="565,-184 426,-184 426,-165 565,-165 565,-184"/>
<text text-anchor="middle" x="495.5" y="-172" font-family="Helvetica,sans-Serif" font-size="10.00">rmvl/algorithm/math.hpp</text>
</a>
</g>
</g>
<!-- Node2&#45;&gt;Node6 -->
<g id="edge5_Node000002_Node000006" class="edge">
<title>Node2&#45;&gt;Node6</title>
<g id="a_edge5_Node000002_Node000006"><a xlink:title=" ">
<path fill="none" stroke="#63b8ff" d="M698.99,-221.79C659.75,-212.86 589.9,-196.97 543.14,-186.34"/>
<polygon fill="#63b8ff" stroke="#63b8ff" points="543.77,-182.89 533.24,-184.09 542.22,-189.72 543.77,-182.89"/>
</a>
</g>
</g>
<!-- Node17 -->
<g id="Node000017" class="node">
<title>Node17</title>
<g id="a_Node000017"><a xlink:href="../../dd/de3/types_8hpp.html" target="_top" xlink:title="常用状态类型定义">
<polygon fill="white" stroke="#666666" points="1013.5,-129 923.5,-129 923.5,-110 1013.5,-110 1013.5,-129"/>
<text text-anchor="middle" x="968.5" y="-117" font-family="Helvetica,sans-Serif" font-size="10.00">rmvl/types.hpp</text>
</a>
</g>
</g>
<!-- Node2&#45;&gt;Node17 -->
<g id="edge17_Node000002_Node000017" class="edge">
<title>Node2&#45;&gt;Node17</title>
<g id="a_edge17_Node000002_Node000017"><a xlink:title=" ">
<path fill="none" stroke="#63b8ff" d="M747.73,-219.84C789.97,-200.84 890.97,-155.39 940.35,-133.17"/>
<polygon fill="#63b8ff" stroke="#63b8ff" points="941.82,-136.34 949.51,-129.05 938.95,-129.96 941.82,-136.34"/>
</a>
</g>
</g>
<!-- Node18 -->
<g id="Node000018" class="node">
<title>Node18</title>
<g id="a_Node000018"><a xlink:href="../../d2/dc6/io_8hpp.html" target="_top" xlink:title="陀螺仪数据">
<polygon fill="white" stroke="#666666" points="776.5,-184 680.5,-184 680.5,-165 776.5,-165 776.5,-184"/>
<text text-anchor="middle" x="728.5" y="-172" font-family="Helvetica,sans-Serif" font-size="10.00">rmvl/core/io.hpp</text>
</a>
</g>
</g>
<!-- Node2&#45;&gt;Node18 -->
<g id="edge19_Node000002_Node000018" class="edge">
<title>Node2&#45;&gt;Node18</title>
<g id="a_edge19_Node000002_Node000018"><a xlink:title=" ">
<path fill="none" stroke="#63b8ff" d="M728.5,-219.75C728.5,-212.8 728.5,-202.85 728.5,-194.13"/>
<polygon fill="#63b8ff" stroke="#63b8ff" points="732,-194.09 728.5,-184.09 725,-194.09 732,-194.09"/>
</a>
</g>
</g>
<!-- Node22 -->
<g id="Node000022" class="node">
<title>Node22</title>
<g id="a_Node000022"><a xlink:href="../../d2/d74/feature_8h.html" target="_top" xlink:title="feature class header">
<polygon fill="white" stroke="#666666" points="1019,-184 894,-184 894,-165 1019,-165 1019,-184"/>
<text text-anchor="middle" x="956.5" y="-172" font-family="Helvetica,sans-Serif" font-size="10.00">rmvl/feature/feature.h</text>
</a>
</g>
</g>
<!-- Node2&#45;&gt;Node22 -->
<g id="edge26_Node000002_Node000022" class="edge">
<title>Node2&#45;&gt;Node22</title>
<g id="a_edge26_Node000002_Node000022"><a xlink:title=" ">
<path fill="none" stroke="#63b8ff" d="M758.31,-221.57C796.91,-212.6 864.62,-196.86 910.01,-186.31"/>
<polygon fill="#63b8ff" stroke="#63b8ff" points="910.95,-189.68 919.9,-184.01 909.37,-182.86 910.95,-189.68"/>
</a>
</g>
</g>
<!-- Node4 -->
<g id="Node000004" class="node">
<title>Node4</title>
<g id="a_Node000004"><a xlink:title=" ">
<polygon fill="#e0e0e0" stroke="#999999" points="124,-129 21,-129 21,-110 124,-110 124,-129"/>
<text text-anchor="middle" x="72.5" y="-117" font-family="Helvetica,sans-Serif" font-size="10.00">opencv2/core.hpp</text>
</a>
</g>
</g>
<!-- Node3&#45;&gt;Node4 -->
<g id="edge3_Node000003_Node000004" class="edge">
<title>Node3&#45;&gt;Node4</title>
<g id="a_edge3_Node000003_Node000004"><a xlink:title=" ">
<path fill="none" stroke="#63b8ff" d="M72.5,-164.75C72.5,-157.8 72.5,-147.85 72.5,-139.13"/>
<polygon fill="#63b8ff" stroke="#63b8ff" points="76,-139.09 72.5,-129.09 69,-139.09 76,-139.09"/>
</a>
</g>
</g>
<!-- Node5 -->
<g id="Node000005" class="node">
<title>Node5</title>
<g id="a_Node000005"><a xlink:href="../../db/d41/rmvldef_8hpp.html" target="_top" xlink:title=" ">
<polygon fill="white" stroke="#666666" points="519,-19 394,-19 394,0 519,0 519,-19"/>
<text text-anchor="middle" x="456.5" y="-7" font-family="Helvetica,sans-Serif" font-size="10.00">rmvl/core/rmvldef.hpp</text>
</a>
</g>
</g>
<!-- Node3&#45;&gt;Node5 -->
<g id="edge4_Node000003_Node000005" class="edge">
<title>Node3&#45;&gt;Node5</title>
<g id="a_edge4_Node000003_Node000005"><a xlink:title=" ">
<path fill="none" stroke="#63b8ff" d="M53.42,-164.92C29.82,-153.14 -5.32,-131 11.5,-110 57.32,-52.8 269.66,-26.29 383.66,-16"/>
<polygon fill="#63b8ff" stroke="#63b8ff" points="384.06,-19.48 393.71,-15.11 383.44,-12.51 384.06,-19.48"/>
</a>
</g>
</g>
<!-- Node7 -->
<g id="Node000007" class="node">
<title>Node7</title>
<g id="a_Node000007"><a xlink:title=" ">
<polygon fill="#e0e0e0" stroke="#999999" points="449,-129 402,-129 402,-110 449,-110 449,-129"/>
<text text-anchor="middle" x="425.5" y="-117" font-family="Helvetica,sans-Serif" font-size="10.00">cmath</text>
</a>
</g>
</g>
<!-- Node6&#45;&gt;Node7 -->
<g id="edge6_Node000006_Node000007" class="edge">
<title>Node6&#45;&gt;Node7</title>
<g id="a_edge6_Node000006_Node000007"><a xlink:title=" ">
<path fill="none" stroke="#63b8ff" d="M484.25,-164.98C473.7,-157 457.7,-144.88 445.06,-135.31"/>
<polygon fill="#63b8ff" stroke="#63b8ff" points="447.04,-132.42 436.95,-129.17 442.81,-138 447.04,-132.42"/>
</a>
</g>
</g>
<!-- Node8 -->
<g id="Node000008" class="node">
<title>Node8</title>
<g id="a_Node000008"><a xlink:title=" ">
<polygon fill="#e0e0e0" stroke="#999999" points="523.5,-129 467.5,-129 467.5,-110 523.5,-110 523.5,-129"/>
<text text-anchor="middle" x="495.5" y="-117" font-family="Helvetica,sans-Serif" font-size="10.00">numeric</text>
</a>
</g>
</g>
<!-- Node6&#45;&gt;Node8 -->
<g id="edge7_Node000006_Node000008" class="edge">
<title>Node6&#45;&gt;Node8</title>
<g id="a_edge7_Node000006_Node000008"><a xlink:title=" ">
<path fill="none" stroke="#63b8ff" d="M495.5,-164.75C495.5,-157.8 495.5,-147.85 495.5,-139.13"/>
<polygon fill="#63b8ff" stroke="#63b8ff" points="499,-139.09 495.5,-129.09 492,-139.09 499,-139.09"/>
</a>
</g>
</g>
<!-- Node9 -->
<g id="Node000009" class="node">
<title>Node9</title>
<g id="a_Node000009"><a xlink:title=" ">
<polygon fill="#e0e0e0" stroke="#999999" points="235,-129 142,-129 142,-110 235,-110 235,-129"/>
<text text-anchor="middle" x="188.5" y="-117" font-family="Helvetica,sans-Serif" font-size="10.00">unordered_map</text>
</a>
</g>
</g>
<!-- Node6&#45;&gt;Node9 -->
<g id="edge8_Node000006_Node000009" class="edge">
<title>Node6&#45;&gt;Node9</title>
<g id="a_edge8_Node000006_Node000009"><a xlink:title=" ">
<path fill="none" stroke="#63b8ff" d="M446.18,-164.98C391.33,-155.52 302.89,-140.25 245.23,-130.29"/>
<polygon fill="#63b8ff" stroke="#63b8ff" points="245.64,-126.81 235.19,-128.56 244.45,-133.71 245.64,-126.81"/>
</a>
</g>
</g>
<!-- Node10 -->
<g id="Node000010" class="node">
<title>Node10</title>
<g id="a_Node000010"><a xlink:title=" ">
<polygon fill="#e0e0e0" stroke="#999999" points="627,-129 580,-129 580,-110 627,-110 627,-129"/>
<text text-anchor="middle" x="603.5" y="-117" font-family="Helvetica,sans-Serif" font-size="10.00">vector</text>
</a>
</g>
</g>
<!-- Node6&#45;&gt;Node10 -->
<g id="edge9_Node000006_Node000010" class="edge">
<title>Node6&#45;&gt;Node10</title>
<g id="a_edge9_Node000006_Node000010"><a xlink:title=" ">
<path fill="none" stroke="#63b8ff" d="M512.85,-164.98C530.07,-156.54 556.7,-143.47 576.65,-133.68"/>
<polygon fill="#63b8ff" stroke="#63b8ff" points="578.4,-136.72 585.83,-129.17 575.31,-130.43 578.4,-136.72"/>
</a>
</g>
</g>
<!-- Node11 -->
<g id="Node000011" class="node">
<title>Node11</title>
<g id="a_Node000011"><a xlink:title=" ">
<polygon fill="#e0e0e0" stroke="#999999" points="384,-129 253,-129 253,-110 384,-110 384,-129"/>
<text text-anchor="middle" x="318.5" y="-117" font-family="Helvetica,sans-Serif" font-size="10.00">opencv2/core/matx.hpp</text>
</a>
</g>
</g>
<!-- Node6&#45;&gt;Node11 -->
<g id="edge10_Node000006_Node000011" class="edge">
<title>Node6&#45;&gt;Node11</title>
<g id="a_edge10_Node000006_Node000011"><a xlink:title=" ">
<path fill="none" stroke="#63b8ff" d="M467.06,-164.98C437.22,-156.05 390.12,-141.94 356.97,-132.02"/>
<polygon fill="#63b8ff" stroke="#63b8ff" points="357.74,-128.6 347.16,-129.08 355.74,-135.3 357.74,-128.6"/>
</a>
</g>
</g>
<!-- Node12 -->
<g id="Node000012" class="node">
<title>Node12</title>
<g id="a_Node000012"><a xlink:href="../../d0/d3f/util_8hpp.html" target="_top" xlink:title=" ">
<polygon fill="white" stroke="#666666" points="787,-74 684,-74 684,-55 787,-55 787,-74"/>
<text text-anchor="middle" x="735.5" y="-62" font-family="Helvetica,sans-Serif" font-size="10.00">rmvl/core/util.hpp</text>
</a>
</g>
</g>
<!-- Node6&#45;&gt;Node12 -->
<g id="edge11_Node000006_Node000012" class="edge">
<title>Node6&#45;&gt;Node12</title>
<g id="a_edge11_Node000006_Node000012"><a xlink:title=" ">
<path fill="none" stroke="#63b8ff" d="M503.36,-164.72C516.12,-151.01 542.7,-124.58 570.5,-110 602.63,-93.15 641.7,-82.25 673.76,-75.45"/>
<polygon fill="#63b8ff" stroke="#63b8ff" points="674.81,-78.81 683.91,-73.39 673.41,-71.95 674.81,-78.81"/>
</a>
</g>
</g>
<!-- Node12&#45;&gt;Node5 -->
<g id="edge16_Node000012_Node000005" class="edge">
<title>Node12&#45;&gt;Node5</title>
<g id="a_edge16_Node000012_Node000005"><a xlink:title=" ">
<path fill="none" stroke="#63b8ff" d="M690.67,-54.98C642.01,-45.74 564.24,-30.97 511.81,-21.01"/>
<polygon fill="#63b8ff" stroke="#63b8ff" points="512.16,-17.51 501.68,-19.08 510.85,-24.39 512.16,-17.51"/>
</a>
</g>
</g>
<!-- Node13 -->
<g id="Node000013" class="node">
<title>Node13</title>
<g id="a_Node000013"><a xlink:title=" ">
<polygon fill="#e0e0e0" stroke="#999999" points="670,-19 537,-19 537,0 670,0 670,-19"/>
<text text-anchor="middle" x="603.5" y="-7" font-family="Helvetica,sans-Serif" font-size="10.00">rmvl/rmvl_modules.hpp</text>
</a>
</g>
</g>
<!-- Node12&#45;&gt;Node13 -->
<g id="edge12_Node000012_Node000013" class="edge">
<title>Node12&#45;&gt;Node13</title>
<g id="a_edge12_Node000012_Node000013"><a xlink:title=" ">
<path fill="none" stroke="#63b8ff" d="M714.29,-54.98C692.77,-46.34 659.22,-32.87 634.67,-23.02"/>
<polygon fill="#63b8ff" stroke="#63b8ff" points="635.68,-19.65 625.09,-19.17 633.07,-26.14 635.68,-19.65"/>
</a>
</g>
</g>
<!-- Node14 -->
<g id="Node000014" class="node">
<title>Node14</title>
<g id="a_Node000014"><a xlink:title=" ">
<polygon fill="#e0e0e0" stroke="#999999" points="738.5,-19 688.5,-19 688.5,0 738.5,0 738.5,-19"/>
<text text-anchor="middle" x="713.5" y="-7" font-family="Helvetica,sans-Serif" font-size="10.00">cstdint</text>
</a>
</g>
</g>
<!-- Node12&#45;&gt;Node14 -->
<g id="edge13_Node000012_Node000014" class="edge">
<title>Node12&#45;&gt;Node14</title>
<g id="a_edge13_Node000012_Node000014"><a xlink:title=" ">
<path fill="none" stroke="#63b8ff" d="M731.87,-54.75C728.92,-47.65 724.67,-37.4 720.99,-28.56"/>
<polygon fill="#63b8ff" stroke="#63b8ff" points="724.13,-26.98 717.07,-19.09 717.67,-29.67 724.13,-26.98"/>
</a>
</g>
</g>
<!-- Node15 -->
<g id="Node000015" class="node">
<title>Node15</title>
<g id="a_Node000015"><a xlink:title=" ">
<polygon fill="#e0e0e0" stroke="#999999" points="802.5,-19 756.5,-19 756.5,0 802.5,0 802.5,-19"/>
<text text-anchor="middle" x="779.5" y="-7" font-family="Helvetica,sans-Serif" font-size="10.00">cstdio</text>
</a>
</g>
</g>
<!-- Node12&#45;&gt;Node15 -->
<g id="edge14_Node000012_Node000015" class="edge">
<title>Node12&#45;&gt;Node15</title>
<g id="a_edge14_Node000012_Node000015"><a xlink:title=" ">
<path fill="none" stroke="#63b8ff" d="M742.77,-54.75C749.04,-47.18 758.29,-36.05 765.93,-26.84"/>
<polygon fill="#63b8ff" stroke="#63b8ff" points="768.67,-29.02 772.37,-19.09 763.29,-24.55 768.67,-29.02"/>
</a>
</g>
</g>
<!-- Node16 -->
<g id="Node000016" class="node">
<title>Node16</title>
<g id="a_Node000016"><a xlink:title=" ">
<polygon fill="#e0e0e0" stroke="#999999" points="864.5,-19 820.5,-19 820.5,0 864.5,0 864.5,-19"/>
<text text-anchor="middle" x="842.5" y="-7" font-family="Helvetica,sans-Serif" font-size="10.00">string</text>
</a>
</g>
</g>
<!-- Node12&#45;&gt;Node16 -->
<g id="edge15_Node000012_Node000016" class="edge">
<title>Node12&#45;&gt;Node16</title>
<g id="a_edge15_Node000012_Node000016"><a xlink:title=" ">
<path fill="none" stroke="#63b8ff" d="M752.69,-54.98C769.75,-46.54 796.13,-33.47 815.9,-23.68"/>
<polygon fill="#63b8ff" stroke="#63b8ff" points="817.59,-26.75 825,-19.17 814.48,-20.47 817.59,-26.75"/>
</a>
</g>
</g>
<!-- Node17&#45;&gt;Node12 -->
<g id="edge18_Node000017_Node000012" class="edge">
<title>Node17&#45;&gt;Node12</title>
<g id="a_edge18_Node000017_Node000012"><a xlink:title=" ">
<path fill="none" stroke="#63b8ff" d="M931.06,-109.98C890.85,-100.84 826.82,-86.27 783.06,-76.32"/>
<polygon fill="#63b8ff" stroke="#63b8ff" points="783.76,-72.89 773.23,-74.08 782.2,-79.71 783.76,-72.89"/>
</a>
</g>
</g>
<!-- Node18&#45;&gt;Node5 -->
<g id="edge25_Node000018_Node000005" class="edge">
<title>Node18&#45;&gt;Node5</title>
<g id="a_edge25_Node000018_Node000005"><a xlink:title=" ">
<path fill="none" stroke="#63b8ff" d="M716.69,-164.92C699.26,-152.37 665.44,-128.49 635.5,-110 582.13,-77.04 517.31,-42.26 482.17,-23.81"/>
<polygon fill="#63b8ff" stroke="#63b8ff" points="483.56,-20.59 473.08,-19.06 480.32,-26.8 483.56,-20.59"/>
</a>
</g>
</g>
<!-- Node18&#45;&gt;Node10 -->
<g id="edge24_Node000018_Node000010" class="edge">
<title>Node18&#45;&gt;Node10</title>
<g id="a_edge24_Node000018_Node000010"><a xlink:title=" ">
<path fill="none" stroke="#63b8ff" d="M708.42,-164.98C688.13,-156.38 656.54,-142.99 633.33,-133.15"/>
<polygon fill="#63b8ff" stroke="#63b8ff" points="634.52,-129.85 623.95,-129.17 631.79,-136.3 634.52,-129.85"/>
</a>
</g>
</g>
<!-- Node18&#45;&gt;Node16 -->
<g id="edge23_Node000018_Node000016" class="edge">
<title>Node18&#45;&gt;Node16</title>
<g id="a_edge23_Node000018_Node000016"><a xlink:title=" ">
<path fill="none" stroke="#63b8ff" d="M750.16,-164.86C766.09,-157.49 787.21,-145.47 800.5,-129 824.63,-99.1 835.43,-54.28 839.83,-29.21"/>
<polygon fill="#63b8ff" stroke="#63b8ff" points="843.31,-29.63 841.42,-19.2 836.39,-28.53 843.31,-29.63"/>
</a>
</g>
</g>
<!-- Node19 -->
<g id="Node000019" class="node">
<title>Node19</title>
<g id="a_Node000019"><a xlink:title=" ">
<polygon fill="#e0e0e0" stroke="#999999" points="725.5,-129 683.5,-129 683.5,-110 725.5,-110 725.5,-129"/>
<text text-anchor="middle" x="704.5" y="-117" font-family="Helvetica,sans-Serif" font-size="10.00">array</text>
</a>
</g>
</g>
<!-- Node18&#45;&gt;Node19 -->
<g id="edge20_Node000018_Node000019" class="edge">
<title>Node18&#45;&gt;Node19</title>
<g id="a_edge20_Node000018_Node000019"><a xlink:title=" ">
<path fill="none" stroke="#63b8ff" d="M724.54,-164.75C721.29,-157.57 716.58,-147.18 712.55,-138.27"/>
<polygon fill="#63b8ff" stroke="#63b8ff" points="715.7,-136.75 708.39,-129.09 709.33,-139.64 715.7,-136.75"/>
</a>
</g>
</g>
<!-- Node20 -->
<g id="Node000020" class="node">
<title>Node20</title>
<g id="a_Node000020"><a xlink:title=" ">
<polygon fill="#e0e0e0" stroke="#999999" points="791.5,-129 743.5,-129 743.5,-110 791.5,-110 791.5,-129"/>
<text text-anchor="middle" x="767.5" y="-117" font-family="Helvetica,sans-Serif" font-size="10.00">iosfwd</text>
</a>
</g>
</g>
<!-- Node18&#45;&gt;Node20 -->
<g id="edge21_Node000018_Node000020" class="edge">
<title>Node18&#45;&gt;Node20</title>
<g id="a_edge21_Node000018_Node000020"><a xlink:title=" ">
<path fill="none" stroke="#63b8ff" d="M734.94,-164.75C740.39,-157.34 748.36,-146.5 755.06,-137.41"/>
<polygon fill="#63b8ff" stroke="#63b8ff" points="758.07,-139.22 761.18,-129.09 752.43,-135.07 758.07,-139.22"/>
</a>
</g>
</g>
<!-- Node21 -->
<g id="Node000021" class="node">
<title>Node21</title>
<g id="a_Node000021"><a xlink:title=" ">
<polygon fill="#e0e0e0" stroke="#999999" points="905.5,-129 847.5,-129 847.5,-110 905.5,-110 905.5,-129"/>
<text text-anchor="middle" x="876.5" y="-117" font-family="Helvetica,sans-Serif" font-size="10.00">memory</text>
</a>
</g>
</g>
<!-- Node18&#45;&gt;Node21 -->
<g id="edge22_Node000018_Node000021" class="edge">
<title>Node18&#45;&gt;Node21</title>
<g id="a_edge22_Node000018_Node000021"><a xlink:title=" ">
<path fill="none" stroke="#63b8ff" d="M752.28,-164.98C776.73,-156.23 815.03,-142.51 842.65,-132.62"/>
<polygon fill="#63b8ff" stroke="#63b8ff" points="844.05,-135.84 852.29,-129.17 841.69,-129.25 844.05,-135.84"/>
</a>
</g>
</g>
<!-- Node22&#45;&gt;Node17 -->
<g id="edge29_Node000022_Node000017" class="edge">
<title>Node22&#45;&gt;Node17</title>
<g id="a_edge29_Node000022_Node000017"><a xlink:title=" ">
<path fill="none" stroke="#63b8ff" d="M958.48,-164.75C960.07,-157.72 962.36,-147.62 964.35,-138.84"/>
<polygon fill="#63b8ff" stroke="#63b8ff" points="967.76,-139.62 966.56,-129.09 960.93,-138.07 967.76,-139.62"/>
</a>
</g>
</g>
<!-- Node22&#45;&gt;Node21 -->
<g id="edge27_Node000022_Node000021" class="edge">
<title>Node22&#45;&gt;Node21</title>
<g id="a_edge27_Node000022_Node000021"><a xlink:title=" ">
<path fill="none" stroke="#63b8ff" d="M943.65,-164.98C931.36,-156.84 912.59,-144.41 898.02,-134.76"/>
<polygon fill="#63b8ff" stroke="#63b8ff" points="899.86,-131.78 889.59,-129.17 895.99,-137.61 899.86,-131.78"/>
</a>
</g>
</g>
<!-- Node23 -->
<g id="Node000023" class="node">
<title>Node23</title>
<g id="a_Node000023"><a xlink:title=" ">
<polygon fill="#e0e0e0" stroke="#999999" points="1165,-129 1032,-129 1032,-110 1165,-110 1165,-129"/>
<text text-anchor="middle" x="1098.5" y="-117" font-family="Helvetica,sans-Serif" font-size="10.00">opencv2/core/types.hpp</text>
</a>
</g>
</g>
<!-- Node22&#45;&gt;Node23 -->
<g id="edge28_Node000022_Node000023" class="edge">
<title>Node22&#45;&gt;Node23</title>
<g id="a_edge28_Node000022_Node000023"><a xlink:title=" ">
<path fill="none" stroke="#63b8ff" d="M979.31,-164.98C1002.67,-156.27 1039.2,-142.63 1065.67,-132.75"/>
<polygon fill="#63b8ff" stroke="#63b8ff" points="1067.13,-135.95 1075.27,-129.17 1064.68,-129.39 1067.13,-135.95"/>
</a>
</g>
</g>
<!-- Node24&#45;&gt;Node22 -->
<g id="edge31_Node000024_Node000022" class="edge">
<title>Node24&#45;&gt;Node22</title>
<g id="a_edge31_Node000024_Node000022"><a xlink:title=" ">
<path fill="none" stroke="#63b8ff" d="M1004.34,-219.98C996,-212.23 983.47,-200.58 973.32,-191.14"/>
<polygon fill="#63b8ff" stroke="#63b8ff" points="975.53,-188.42 965.82,-184.17 970.76,-193.54 975.53,-188.42"/>
</a>
</g>
</g>
<!-- Node25&#45;&gt;Node22 -->
<g id="edge33_Node000025_Node000022" class="edge">
<title>Node25&#45;&gt;Node22</title>
<g id="a_edge33_Node000025_Node000022"><a xlink:title=" ">
<path fill="none" stroke="#63b8ff" d="M866.69,-219.98C883.75,-211.54 910.13,-198.47 929.9,-188.68"/>
<polygon fill="#63b8ff" stroke="#63b8ff" points="931.59,-191.75 939,-184.17 928.48,-185.47 931.59,-191.75"/>
</a>
</g>
</g>
</g>
</svg>

<g id="navigator" transform="translate(0 0)" fill="#404254">
  <rect fill="#f2f5e9" fill-opacity="0.5" stroke="#606060" stroke-width=".5" x="0" y="0" width="60" height="60"/>
  <use id="zoomplus" xlink:href="#zoomPlus" x="17" y="9" onmousedown="handleZoom(evt,'in')"/>
  <use id="zoomminus" xlink:href="#zoomMin" x="42" y="9" onmousedown="handleZoom(evt,'out')"/>
  <use id="reset" xlink:href="#resetDef" x="30" y="36" onmousedown="handleReset()"/>
   <use id="arrowup" xlink:href="#arrowUp" x="0" y="0" onmousedown="handlePan(0,-1)"/>
  <use id="arrowright" xlink:href="#arrowRight" x="0" y="0" onmousedown="handlePan(1,0)"/>
  <use id="arrowdown" xlink:href="#arrowDown" x="0" y="0" onmousedown="handlePan(0,1)"/>
  <use id="arrowleft" xlink:href="#arrowLeft" x="0" y="0" onmousedown="handlePan(-1,0)"/>
</g>
<svg viewBox="0 0 15 15" width="100%" height="30px" preserveAspectRatio="xMaxYMin meet">
 <g id="arrow_out" transform="scale(0.3 0.3)">
  <a xlink:href="combo_2rune_8h__incl_org.svg" target="_base">
   <rect id="button" ry="5" rx="5" y="6" x="6" height="38" width="38"
        fill="#f2f5e9" fill-opacity="0.5" stroke="#606060" stroke-width="1.0"/>
   <path id="arrow"
     d="M 11.500037,31.436501 C 11.940474,20.09759 22.043105,11.32322 32.158766,21.979434 L 37.068811,17.246167 C 37.068811,17.246167 37.088388,32 37.088388,32 L 22.160133,31.978069 C 22.160133,31.978069 26.997745,27.140456 26.997745,27.140456 C 18.528582,18.264221 13.291696,25.230495 11.500037,31.436501 z"
     style="fill:#404040;"/>
  </a>
 </g>
</svg>

<style type='text/css'>
<![CDATA[
[data-mouse-over-selected='false'] { opacity: 0.7; }
[data-mouse-over-selected='true']  { opacity: 1.0; }
]]>
</style>
<script type="application/ecmascript"><![CDATA[
document.addEventListener('DOMContentLoaded', (event) => {
  highlightEdges();
  highlightAdjacentNodes();
});
]]></script>
</svg>
