<?xml version="1.0" encoding="UTF-8" standalone="no"?>
<!DOCTYPE svg PUBLIC "-//W3C//DTD SVG 1.1//EN"
 "http://www.w3.org/Graphics/SVG/1.1/DTD/svg11.dtd">
<!-- Generated by graphviz version 2.43.0 (0)
 -->
<!-- Title: rm::DefaultFeature Pages: 1 -->
<!--zoomable 618 -->

<svg id="main" version="1.1" xmlns="http://www.w3.org/2000/svg" xmlns:xlink="http://www.w3.org/1999/xlink" xml:space="preserve" onload="init(evt)">

<style type="text/css"><![CDATA[
.node, .edge {opacity: 0.7;}
.node.selected, .edge.selected {opacity: 1;}
.edge:hover path { stroke: red; }
.edge:hover polygon { stroke: red; fill: red; }
]]></style>

<defs>
  <circle id="rim" cx="0" cy="0" r="7"/>
  <circle id="rim2" cx="0" cy="0" r="3.5"/>
  <g id="zoomPlus">
    <use xlink:href="#rim" fill="#404040"><set attributeName="fill" to="#808080" begin="zoomplus.mouseover" end="zoomplus.mouseout"/></use>
    <path d="M-4,0h8M0,-4v8" fill="none" stroke="white" stroke-width="1.5" pointer-events="none"/>
  </g>
  <g id="zoomMin">
    <use xlink:href="#rim" fill="#404040"><set attributeName="fill" to="#808080" begin="zoomminus.mouseover" end="zoomminus.mouseout"/></use>
    <path d="M-4,0h8" fill="none" stroke="white" stroke-width="1.5" pointer-events="none"/>
  </g>
  <g id="arrowUp" transform="translate(30 24)">
    <use xlink:href="#rim"/>
    <path pointer-events="none" fill="none" stroke="white" stroke-width="1.5" d="M0,-3.0v7 M-2.5,-0.5L0,-3.0L2.5,-0.5"/>
  </g>
  <g id="arrowRight" transform="rotate(90) translate(36 -43)">
    <use xlink:href="#rim"/>
    <path pointer-events="none" fill="none" stroke="white" stroke-width="1.5" d="M0,-3.0v7 M-2.5,-0.5L0,-3.0L2.5,-0.5"/>
  </g>
  <g id="arrowDown" transform="rotate(180) translate(-30 -48)">
    <use xlink:href="#rim"/>
    <path pointer-events="none" fill="none" stroke="white" stroke-width="1.5" d="M0,-3.0v7 M-2.5,-0.5L0,-3.0L2.5,-0.5"/>
  </g>
  <g id="arrowLeft" transform="rotate(270) translate(-36 17)">
    <use xlink:href="#rim"/>
    <path pointer-events="none" fill="none" stroke="white" stroke-width="1.5" d="M0,-3.0v7 M-2.5,-0.5L0,-3.0L2.5,-0.5"/>
  </g>
  <g id="resetDef">
    <use xlink:href="#rim2" fill="#404040"><set attributeName="fill" to="#808080" begin="reset.mouseover" end="reset.mouseout"/></use>
  </g>
</defs>
<script type="application/ecmascript">
var viewWidth = 717;
var viewHeight = 618;
var sectionId = 'dynsection-1';
</script>
<script type="application/ecmascript" xlink:href="../../svg.min.js"/>
<svg id="graph" class="graph">
<g id="viewport">
<title>rm::DefaultFeature</title>
<!-- Node1 -->
<g id="Node000001" class="node">
<title>Node1</title>
<g id="a_Node000001"><a xlink:title="默认图像特征，仅表示一个孤立的点 cv::Point2f">
<polygon fill="#999999" stroke="transparent" points="150.5,-94 58.5,-94 58.5,0 150.5,0 150.5,-94"/>
<text text-anchor="start" x="63.5" y="-82" font-family="Helvetica,sans-Serif" font-size="10.00">rm::DefaultFeature</text>
<text text-anchor="start" x="102.5" y="-67" font-family="Helvetica,sans-Serif" font-size="10.00"> </text>
<text text-anchor="start" x="63" y="-52" font-family="Helvetica,sans-Serif" font-size="10.00">+</text>
<text text-anchor="start" x="74.5" y="-52" font-family="Helvetica,sans-Serif" font-size="10.00">DefaultFeature()</text>
<text text-anchor="start" x="63" y="-37" font-family="Helvetica,sans-Serif" font-size="10.00">+</text>
<text text-anchor="start" x="74.5" y="-37" font-family="Helvetica,sans-Serif" font-size="10.00">DefaultFeature()</text>
<text text-anchor="start" x="63" y="-22" font-family="Helvetica,sans-Serif" font-size="10.00">+</text>
<text text-anchor="start" x="74.5" y="-22" font-family="Helvetica,sans-Serif" font-size="10.00">clone()</text>
<text text-anchor="start" x="63" y="-7" font-family="Helvetica,sans-Serif" font-size="10.00">+</text>
<text text-anchor="start" x="74.5" y="-7" font-family="Helvetica,sans-Serif" font-size="10.00">make_feature()</text>
<polygon fill="#666666" stroke="#666666" points="58.5,-77 58.5,-77 150.5,-77 150.5,-77 58.5,-77"/>
<polygon fill="#666666" stroke="#666666" points="58.5,-62 58.5,-62 150.5,-62 150.5,-62 58.5,-62"/>
<polygon fill="none" stroke="#666666" points="58.5,0 58.5,-94 150.5,-94 150.5,0 58.5,0"/>
</a>
</g>
</g>
<!-- Node2 -->
<g id="Node000002" class="node">
<title>Node2</title>
<g id="a_Node000002"><a xlink:href="../../df/db7/classrm_1_1feature.html" target="_top" xlink:title="图像中的轮廓特征">
<polygon fill="white" stroke="transparent" points="133.5,-285 75.5,-285 75.5,-131 133.5,-131 133.5,-285"/>
<text text-anchor="start" x="80.5" y="-273" font-family="Helvetica,sans-Serif" font-size="10.00">rm::feature</text>
<text text-anchor="start" x="102.5" y="-258" font-family="Helvetica,sans-Serif" font-size="10.00"> </text>
<text text-anchor="start" x="79.5" y="-243" font-family="Helvetica,sans-Serif" font-size="10.00">+</text>
<text text-anchor="start" x="90.5" y="-243" font-family="Helvetica,sans-Serif" font-size="10.00">clone()</text>
<text text-anchor="start" x="79.5" y="-228" font-family="Helvetica,sans-Serif" font-size="10.00">+</text>
<text text-anchor="start" x="90.5" y="-228" font-family="Helvetica,sans-Serif" font-size="10.00">area()</text>
<text text-anchor="start" x="79.5" y="-213" font-family="Helvetica,sans-Serif" font-size="10.00">+</text>
<text text-anchor="start" x="90.5" y="-213" font-family="Helvetica,sans-Serif" font-size="10.00">center()</text>
<text text-anchor="start" x="79.5" y="-198" font-family="Helvetica,sans-Serif" font-size="10.00">+</text>
<text text-anchor="start" x="90.5" y="-198" font-family="Helvetica,sans-Serif" font-size="10.00">width()</text>
<text text-anchor="start" x="79.5" y="-183" font-family="Helvetica,sans-Serif" font-size="10.00">+</text>
<text text-anchor="start" x="90.5" y="-183" font-family="Helvetica,sans-Serif" font-size="10.00">height()</text>
<text text-anchor="start" x="79.5" y="-168" font-family="Helvetica,sans-Serif" font-size="10.00">+</text>
<text text-anchor="start" x="90.5" y="-168" font-family="Helvetica,sans-Serif" font-size="10.00">angle()</text>
<text text-anchor="start" x="79.5" y="-153" font-family="Helvetica,sans-Serif" font-size="10.00">+</text>
<text text-anchor="start" x="90.5" y="-153" font-family="Helvetica,sans-Serif" font-size="10.00">corners()</text>
<text text-anchor="start" x="79.5" y="-138" font-family="Helvetica,sans-Serif" font-size="10.00">+</text>
<text text-anchor="start" x="90.5" y="-138" font-family="Helvetica,sans-Serif" font-size="10.00">type()</text>
<polygon fill="#666666" stroke="#666666" points="75.5,-268 75.5,-268 133.5,-268 133.5,-268 75.5,-268"/>
<polygon fill="#666666" stroke="#666666" points="75.5,-253 75.5,-253 133.5,-253 133.5,-253 75.5,-253"/>
<polygon fill="none" stroke="#666666" points="75.5,-131 75.5,-285 133.5,-285 133.5,-131 75.5,-131"/>
</a>
</g>
</g>
<!-- Node2&#45;&gt;Node1 -->
<g id="edge1_Node000001_Node000002" class="edge">
<title>Node2&#45;&gt;Node1</title>
<g id="a_edge1_Node000001_Node000002"><a xlink:title=" ">
<path fill="none" stroke="#63b8ff" d="M104.5,-120.56C104.5,-111.55 104.5,-102.66 104.5,-94.36"/>
<polygon fill="none" stroke="#63b8ff" points="101,-120.76 104.5,-130.76 108,-120.76 101,-120.76"/>
</a>
</g>
</g>
<!-- Node3 -->
<g id="Node000003" class="node">
<title>Node3</title>
<g id="a_Node000003"><a xlink:title=" ">
<polygon fill="white" stroke="transparent" points="29,-410.5 0,-410.5 0,-361.5 29,-361.5 29,-410.5"/>
<text text-anchor="start" x="5.5" y="-398" font-family="Helvetica,sans-Serif" font-size="10.00">float</text>
<text text-anchor="start" x="13" y="-383" font-family="Helvetica,sans-Serif" font-size="10.00"> </text>
<text text-anchor="start" x="13" y="-368" font-family="Helvetica,sans-Serif" font-size="10.00"> </text>
<polygon fill="#666666" stroke="#666666" points="0.5,-393 0.5,-393 29.5,-393 29.5,-393 0.5,-393"/>
<polygon fill="#666666" stroke="#666666" points="0.5,-378 0.5,-378 29.5,-378 29.5,-378 0.5,-378"/>
<polygon fill="none" stroke="#666666" points="0,-361.5 0,-410.5 29,-410.5 29,-361.5 0,-361.5"/>
</a>
</g>
</g>
<!-- Node3&#45;&gt;Node2 -->
<g id="edge2_Node000002_Node000003" class="edge">
<title>Node3&#45;&gt;Node2</title>
<g id="a_edge2_Node000002_Node000003"><a xlink:title=" ">
<path fill="none" stroke="#63b8ff" d="M10.36,-361.49C8.42,-344.59 7.96,-321.6 15.5,-303 25.9,-277.34 46.9,-254.61 65.89,-237.93"/>
<polygon fill="none" stroke="#63b8ff" points="66.11,-237.75 68.12,-230.82 75.28,-230.01 73.27,-236.94 66.11,-237.75"/>
</a>
</g>
<text text-anchor="middle" x="34" y="-328" font-family="Helvetica,sans-Serif" font-size="10.00" fill="grey"> #_angle</text>
<text text-anchor="middle" x="34" y="-317" font-family="Helvetica,sans-Serif" font-size="10.00" fill="grey">#_height</text>
<text text-anchor="middle" x="34" y="-306" font-family="Helvetica,sans-Serif" font-size="10.00" fill="grey">#_width</text>
</g>
<!-- Node4 -->
<g id="Node000004" class="node">
<title>Node4</title>
<g id="a_Node000004"><a xlink:title=" ">
<polygon fill="white" stroke="transparent" points="104,-514 63,-514 63,-465 104,-465 104,-514"/>
<text text-anchor="start" x="68.5" y="-501.5" font-family="Helvetica,sans-Serif" font-size="10.00">Point2f</text>
<text text-anchor="start" x="82" y="-486.5" font-family="Helvetica,sans-Serif" font-size="10.00"> </text>
<text text-anchor="start" x="82" y="-471.5" font-family="Helvetica,sans-Serif" font-size="10.00"> </text>
<polygon fill="#666666" stroke="#666666" points="63.5,-496.5 63.5,-496.5 104.5,-496.5 104.5,-496.5 63.5,-496.5"/>
<polygon fill="#666666" stroke="#666666" points="63.5,-481.5 63.5,-481.5 104.5,-481.5 104.5,-481.5 63.5,-481.5"/>
<polygon fill="none" stroke="#666666" points="63,-465 63,-514 104,-514 104,-465 63,-465"/>
</a>
</g>
</g>
<!-- Node4&#45;&gt;Node2 -->
<g id="edge3_Node000002_Node000004" class="edge">
<title>Node4&#45;&gt;Node2</title>
<g id="a_edge3_Node000002_Node000004"><a xlink:title=" ">
<path fill="none" stroke="#63b8ff" d="M80.13,-464.73C78.36,-451.09 76.38,-433.62 75.5,-418 73.89,-389.6 72.7,-382.31 75.5,-354 77.33,-335.47 80.46,-315.8 83.99,-297.12"/>
<polygon fill="none" stroke="#63b8ff" points="83.99,-297.11 81.22,-290.45 86.3,-285.33 89.07,-291.99 83.99,-297.11"/>
</a>
</g>
<text text-anchor="middle" x="96" y="-383.5" font-family="Helvetica,sans-Serif" font-size="10.00" fill="grey"> #_center</text>
</g>
<!-- Node5 -->
<g id="Node000005" class="node">
<title>Node5</title>
<g id="a_Node000005"><a xlink:title=" ">
<polygon fill="white" stroke="transparent" points="247.5,-410.5 125.5,-410.5 125.5,-361.5 247.5,-361.5 247.5,-410.5"/>
<text text-anchor="start" x="130.5" y="-398" font-family="Helvetica,sans-Serif" font-size="10.00">std::vector&lt; cv::Point2f &gt;</text>
<text text-anchor="start" x="184.5" y="-383" font-family="Helvetica,sans-Serif" font-size="10.00"> </text>
<text text-anchor="start" x="184.5" y="-368" font-family="Helvetica,sans-Serif" font-size="10.00"> </text>
<polygon fill="#666666" stroke="#666666" points="125.5,-393 125.5,-393 247.5,-393 247.5,-393 125.5,-393"/>
<polygon fill="#666666" stroke="#666666" points="125.5,-378 125.5,-378 247.5,-378 247.5,-378 125.5,-378"/>
<polygon fill="none" stroke="#666666" points="125.5,-361.5 125.5,-410.5 247.5,-410.5 247.5,-361.5 125.5,-361.5"/>
</a>
</g>
</g>
<!-- Node4&#45;&gt;Node5 -->
<g id="edge5_Node000005_Node000004" class="edge">
<title>Node4&#45;&gt;Node5</title>
<g id="a_edge5_Node000005_Node000004"><a xlink:title=" ">
<path fill="none" stroke="#63b8ff" d="M102.97,-464.86C110.92,-455.59 120.37,-445.04 129.5,-436 135.36,-430.2 141.79,-424.28 148.16,-418.65"/>
<polygon fill="none" stroke="#63b8ff" points="148.31,-418.52 150.23,-411.57 157.38,-410.66 155.47,-417.61 148.31,-418.52"/>
</a>
</g>
<text text-anchor="middle" x="154" y="-439" font-family="Helvetica,sans-Serif" font-size="10.00" fill="grey"> +elements</text>
</g>
<!-- Node5&#45;&gt;Node2 -->
<g id="edge4_Node000002_Node000005" class="edge">
<title>Node5&#45;&gt;Node2</title>
<g id="a_edge4_Node000002_Node000005"><a xlink:title=" ">
<path fill="none" stroke="#63b8ff" d="M175.44,-361.26C165.99,-340.97 151.86,-310.65 138.7,-282.4"/>
<polygon fill="none" stroke="#63b8ff" points="138.59,-282.16 132.43,-278.41 133.52,-271.28 139.68,-275.03 138.59,-282.16"/>
</a>
</g>
<text text-anchor="middle" x="185.5" y="-317" font-family="Helvetica,sans-Serif" font-size="10.00" fill="grey"> #_corners</text>
</g>
<!-- Node6 -->
<g id="Node000006" class="node">
<title>Node6</title>
<g id="a_Node000006"><a xlink:title=" ">
<polygon fill="white" stroke="transparent" points="220,-514 139,-514 139,-465 220,-465 220,-514"/>
<text text-anchor="start" x="144.5" y="-501.5" font-family="Helvetica,sans-Serif" font-size="10.00">std::vector&lt; T &gt;</text>
<text text-anchor="start" x="178" y="-486.5" font-family="Helvetica,sans-Serif" font-size="10.00"> </text>
<text text-anchor="start" x="178" y="-471.5" font-family="Helvetica,sans-Serif" font-size="10.00"> </text>
<polygon fill="#666666" stroke="#666666" points="139.5,-496.5 139.5,-496.5 220.5,-496.5 220.5,-496.5 139.5,-496.5"/>
<polygon fill="#666666" stroke="#666666" points="139.5,-481.5 139.5,-481.5 220.5,-481.5 220.5,-481.5 139.5,-481.5"/>
<polygon fill="none" stroke="#666666" points="139,-465 139,-514 220,-514 220,-465 139,-465"/>
</a>
</g>
</g>
<!-- Node6&#45;&gt;Node5 -->
<g id="edge6_Node000005_Node000006" class="edge">
<title>Node6&#45;&gt;Node5</title>
<g id="a_edge6_Node000005_Node000006"><a xlink:title=" ">
<path fill="none" stroke="orange" d="M181.82,-454.89C182.81,-440.45 183.95,-423.9 184.86,-410.77"/>
<polygon fill="orange" stroke="orange" points="178.32,-454.74 181.12,-464.96 185.3,-455.22 178.32,-454.74"/>
</a>
</g>
<text text-anchor="middle" x="218" y="-439" font-family="Helvetica,sans-Serif" font-size="10.00" fill="grey"> &lt; cv::Point2f &gt;</text>
</g>
<!-- Node7 -->
<g id="Node000007" class="node">
<title>Node7</title>
<g id="a_Node000007"><a xlink:title=" ">
<polygon fill="white" stroke="transparent" points="188,-610 171,-610 171,-561 188,-561 188,-610"/>
<text text-anchor="start" x="176.5" y="-597.5" font-family="Helvetica,sans-Serif" font-size="10.00">T</text>
<text text-anchor="start" x="178" y="-582.5" font-family="Helvetica,sans-Serif" font-size="10.00"> </text>
<text text-anchor="start" x="178" y="-567.5" font-family="Helvetica,sans-Serif" font-size="10.00"> </text>
<polygon fill="#666666" stroke="#666666" points="171.5,-592.5 171.5,-592.5 188.5,-592.5 188.5,-592.5 171.5,-592.5"/>
<polygon fill="#666666" stroke="#666666" points="171.5,-577.5 171.5,-577.5 188.5,-577.5 188.5,-577.5 171.5,-577.5"/>
<polygon fill="none" stroke="#666666" points="171,-561 171,-610 188,-610 188,-561 171,-561"/>
</a>
</g>
</g>
<!-- Node7&#45;&gt;Node6 -->
<g id="edge7_Node000006_Node000007" class="edge">
<title>Node7&#45;&gt;Node6</title>
<g id="a_edge7_Node000006_Node000007"><a xlink:title=" ">
<path fill="none" stroke="#63b8ff" d="M179.5,-560.78C179.5,-550.32 179.5,-537.79 179.5,-526.23"/>
<polygon fill="none" stroke="#63b8ff" points="179.5,-526.21 175.5,-520.21 179.5,-514.21 183.5,-520.21 179.5,-526.21"/>
</a>
</g>
<text text-anchor="middle" x="204" y="-535" font-family="Helvetica,sans-Serif" font-size="10.00" fill="grey"> +elements</text>
</g>
<!-- Node8 -->
<g id="Node000008" class="node">
<title>Node8</title>
<g id="a_Node000008"><a xlink:href="../../d0/d01/structrm_1_1RMStatus.html" target="_top" xlink:title="状态类型">
<polygon fill="white" stroke="transparent" points="465.5,-418 393.5,-418 393.5,-354 465.5,-354 465.5,-418"/>
<text text-anchor="start" x="398.5" y="-406" font-family="Helvetica,sans-Serif" font-size="10.00">rm::RMStatus</text>
<text text-anchor="start" x="427.5" y="-391" font-family="Helvetica,sans-Serif" font-size="10.00"> </text>
<text text-anchor="start" x="399.5" y="-376" font-family="Helvetica,sans-Serif" font-size="10.00">+</text>
<text text-anchor="start" x="412.5" y="-376" font-family="Helvetica,sans-Serif" font-size="10.00">to_string()</text>
<text text-anchor="start" x="399.5" y="-361" font-family="Helvetica,sans-Serif" font-size="10.00">+</text>
<text text-anchor="start" x="412.5" y="-361" font-family="Helvetica,sans-Serif" font-size="10.00">to_string()</text>
<polygon fill="#666666" stroke="#666666" points="393.5,-401 393.5,-401 465.5,-401 465.5,-401 393.5,-401"/>
<polygon fill="#666666" stroke="#666666" points="393.5,-386 393.5,-386 465.5,-386 465.5,-386 393.5,-386"/>
<polygon fill="none" stroke="#666666" points="393.5,-354 393.5,-418 465.5,-418 465.5,-354 393.5,-354"/>
</a>
</g>
</g>
<!-- Node8&#45;&gt;Node2 -->
<g id="edge8_Node000002_Node000008" class="edge">
<title>Node8&#45;&gt;Node2</title>
<g id="a_edge8_Node000002_Node000008"><a xlink:title=" ">
<path fill="none" stroke="#63b8ff" d="M393.48,-365.49C332.21,-332.31 208.15,-265.13 144.36,-230.59"/>
<polygon fill="none" stroke="#63b8ff" points="144.1,-230.45 136.92,-231.11 133.55,-224.73 140.73,-224.07 144.1,-230.45"/>
</a>
</g>
<text text-anchor="middle" x="350" y="-317" font-family="Helvetica,sans-Serif" font-size="10.00" fill="grey"> #_type</text>
</g>
<!-- Node9 -->
<g id="Node000009" class="node">
<title>Node9</title>
<g id="a_Node000009"><a xlink:title=" ">
<polygon fill="white" stroke="transparent" points="315,-514 238,-514 238,-465 315,-465 315,-514"/>
<text text-anchor="start" x="243.5" y="-501.5" font-family="Helvetica,sans-Serif" font-size="10.00">ArmorSizeType</text>
<text text-anchor="start" x="275" y="-486.5" font-family="Helvetica,sans-Serif" font-size="10.00"> </text>
<text text-anchor="start" x="275" y="-471.5" font-family="Helvetica,sans-Serif" font-size="10.00"> </text>
<polygon fill="#666666" stroke="#666666" points="238.5,-496.5 238.5,-496.5 315.5,-496.5 315.5,-496.5 238.5,-496.5"/>
<polygon fill="#666666" stroke="#666666" points="238.5,-481.5 238.5,-481.5 315.5,-481.5 315.5,-481.5 238.5,-481.5"/>
<polygon fill="none" stroke="#666666" points="238,-465 238,-514 315,-514 315,-465 238,-465"/>
</a>
</g>
</g>
<!-- Node9&#45;&gt;Node8 -->
<g id="edge9_Node000008_Node000009" class="edge">
<title>Node9&#45;&gt;Node8</title>
<g id="a_edge9_Node000008_Node000009"><a xlink:title=" ">
<path fill="none" stroke="#63b8ff" d="M279.44,-464.94C281.78,-454.92 285.97,-443.78 293.5,-436 316.64,-412.09 352.28,-399.81 381.27,-393.52"/>
<polygon fill="none" stroke="#63b8ff" points="381.46,-393.48 386.58,-388.4 393.23,-391.17 388.12,-396.25 381.46,-393.48"/>
</a>
</g>
<text text-anchor="middle" x="337" y="-439" font-family="Helvetica,sans-Serif" font-size="10.00" fill="grey"> +ArmorSizeTypeID</text>
</g>
<!-- Node10 -->
<g id="Node000010" class="node">
<title>Node10</title>
<g id="a_Node000010"><a xlink:title=" ">
<polygon fill="white" stroke="transparent" points="413,-514 358,-514 358,-465 413,-465 413,-514"/>
<text text-anchor="start" x="363.5" y="-501.5" font-family="Helvetica,sans-Serif" font-size="10.00">RuneType</text>
<text text-anchor="start" x="384" y="-486.5" font-family="Helvetica,sans-Serif" font-size="10.00"> </text>
<text text-anchor="start" x="384" y="-471.5" font-family="Helvetica,sans-Serif" font-size="10.00"> </text>
<polygon fill="#666666" stroke="#666666" points="358.5,-496.5 358.5,-496.5 413.5,-496.5 413.5,-496.5 358.5,-496.5"/>
<polygon fill="#666666" stroke="#666666" points="358.5,-481.5 358.5,-481.5 413.5,-481.5 413.5,-481.5 358.5,-481.5"/>
<polygon fill="none" stroke="#666666" points="358,-465 358,-514 413,-514 413,-465 358,-465"/>
</a>
</g>
</g>
<!-- Node10&#45;&gt;Node8 -->
<g id="edge10_Node000008_Node000010" class="edge">
<title>Node10&#45;&gt;Node8</title>
<g id="a_edge10_Node000008_Node000010"><a xlink:title=" ">
<path fill="none" stroke="#63b8ff" d="M383.12,-464.82C383.02,-455.55 383.97,-445 387.5,-436 388.5,-433.46 389.68,-430.95 391.02,-428.51"/>
<polygon fill="none" stroke="#63b8ff" points="391.17,-428.27 391.04,-421.06 397.65,-418.18 397.77,-425.39 391.17,-428.27"/>
</a>
</g>
<text text-anchor="middle" x="419.5" y="-439" font-family="Helvetica,sans-Serif" font-size="10.00" fill="grey"> +RuneTypeID</text>
</g>
<!-- Node11 -->
<g id="Node000011" class="node">
<title>Node11</title>
<g id="a_Node000011"><a xlink:title=" ">
<polygon fill="white" stroke="transparent" points="518,-514 431,-514 431,-465 518,-465 518,-514"/>
<text text-anchor="start" x="436.5" y="-501.5" font-family="Helvetica,sans-Serif" font-size="10.00">CompensateType</text>
<text text-anchor="start" x="473" y="-486.5" font-family="Helvetica,sans-Serif" font-size="10.00"> </text>
<text text-anchor="start" x="473" y="-471.5" font-family="Helvetica,sans-Serif" font-size="10.00"> </text>
<polygon fill="#666666" stroke="#666666" points="431.5,-496.5 431.5,-496.5 518.5,-496.5 518.5,-496.5 431.5,-496.5"/>
<polygon fill="#666666" stroke="#666666" points="431.5,-481.5 431.5,-481.5 518.5,-481.5 518.5,-481.5 431.5,-481.5"/>
<polygon fill="none" stroke="#666666" points="431,-465 431,-514 518,-514 518,-465 431,-465"/>
</a>
</g>
</g>
<!-- Node11&#45;&gt;Node8 -->
<g id="edge11_Node000008_Node000011" class="edge">
<title>Node11&#45;&gt;Node8</title>
<g id="a_edge11_Node000008_Node000011"><a xlink:title=" ">
<path fill="none" stroke="#63b8ff" d="M464.24,-464.96C460.28,-455.9 455.7,-445.46 451.5,-436 450.5,-433.74 449.46,-431.41 448.42,-429.07"/>
<polygon fill="none" stroke="#63b8ff" points="448.41,-429.04 442.31,-425.2 443.51,-418.09 449.61,-421.93 448.41,-429.04"/>
</a>
</g>
<text text-anchor="middle" x="504" y="-439" font-family="Helvetica,sans-Serif" font-size="10.00" fill="grey"> +CompensateTypeID</text>
</g>
<!-- Node12 -->
<g id="Node000012" class="node">
<title>Node12</title>
<g id="a_Node000012"><a xlink:title=" ">
<polygon fill="white" stroke="transparent" points="622.5,-514 564.5,-514 564.5,-465 622.5,-465 622.5,-514"/>
<text text-anchor="start" x="569.5" y="-501.5" font-family="Helvetica,sans-Serif" font-size="10.00">RobotType</text>
<text text-anchor="start" x="591.5" y="-486.5" font-family="Helvetica,sans-Serif" font-size="10.00"> </text>
<text text-anchor="start" x="591.5" y="-471.5" font-family="Helvetica,sans-Serif" font-size="10.00"> </text>
<polygon fill="#666666" stroke="#666666" points="564.5,-496.5 564.5,-496.5 622.5,-496.5 622.5,-496.5 564.5,-496.5"/>
<polygon fill="#666666" stroke="#666666" points="564.5,-481.5 564.5,-481.5 622.5,-481.5 622.5,-481.5 564.5,-481.5"/>
<polygon fill="none" stroke="#666666" points="564.5,-465 564.5,-514 622.5,-514 622.5,-465 564.5,-465"/>
</a>
</g>
</g>
<!-- Node12&#45;&gt;Node8 -->
<g id="edge12_Node000008_Node000012" class="edge">
<title>Node12&#45;&gt;Node8</title>
<g id="a_edge12_Node000008_Node000012"><a xlink:title=" ">
<path fill="none" stroke="#63b8ff" d="M581.06,-464.91C574.81,-454.89 566.43,-443.75 556.5,-436 533.34,-417.93 502.72,-405.85 477.36,-398.21"/>
<polygon fill="none" stroke="#63b8ff" points="477.29,-398.19 470.43,-400.4 465.75,-394.91 472.61,-392.7 477.29,-398.19"/>
</a>
</g>
<text text-anchor="middle" x="601" y="-439" font-family="Helvetica,sans-Serif" font-size="10.00" fill="grey"> +RobotTypeID</text>
</g>
<!-- Node13 -->
<g id="Node000013" class="node">
<title>Node13</title>
<g id="a_Node000013"><a xlink:title=" ">
<polygon fill="white" stroke="transparent" points="707,-514 660,-514 660,-465 707,-465 707,-514"/>
<text text-anchor="start" x="665.5" y="-501.5" font-family="Helvetica,sans-Serif" font-size="10.00">TagType</text>
<text text-anchor="start" x="682" y="-486.5" font-family="Helvetica,sans-Serif" font-size="10.00"> </text>
<text text-anchor="start" x="682" y="-471.5" font-family="Helvetica,sans-Serif" font-size="10.00"> </text>
<polygon fill="#666666" stroke="#666666" points="660.5,-496.5 660.5,-496.5 707.5,-496.5 707.5,-496.5 660.5,-496.5"/>
<polygon fill="#666666" stroke="#666666" points="660.5,-481.5 660.5,-481.5 707.5,-481.5 707.5,-481.5 660.5,-481.5"/>
<polygon fill="none" stroke="#666666" points="660,-465 660,-514 707,-514 707,-465 660,-465"/>
</a>
</g>
</g>
<!-- Node13&#45;&gt;Node8 -->
<g id="edge13_Node000008_Node000013" class="edge">
<title>Node13&#45;&gt;Node8</title>
<g id="a_edge13_Node000008_Node000013"><a xlink:title=" ">
<path fill="none" stroke="#63b8ff" d="M668.32,-464.79C660.58,-454.49 650.3,-443.17 638.5,-436 588.98,-405.89 522.49,-394.28 477.93,-389.81"/>
<polygon fill="none" stroke="#63b8ff" points="477.65,-389.78 471.31,-393.22 465.7,-388.7 472.03,-385.26 477.65,-389.78"/>
</a>
</g>
<text text-anchor="middle" x="680" y="-439" font-family="Helvetica,sans-Serif" font-size="10.00" fill="grey"> +TagTypeID</text>
</g>
</g>
</svg>

<g id="navigator" transform="translate(0 0)" fill="#404254">
  <rect fill="#f2f5e9" fill-opacity="0.5" stroke="#606060" stroke-width=".5" x="0" y="0" width="60" height="60"/>
  <use id="zoomplus" xlink:href="#zoomPlus" x="17" y="9" onmousedown="handleZoom(evt,'in')"/>
  <use id="zoomminus" xlink:href="#zoomMin" x="42" y="9" onmousedown="handleZoom(evt,'out')"/>
  <use id="reset" xlink:href="#resetDef" x="30" y="36" onmousedown="handleReset()"/>
   <use id="arrowup" xlink:href="#arrowUp" x="0" y="0" onmousedown="handlePan(0,-1)"/>
  <use id="arrowright" xlink:href="#arrowRight" x="0" y="0" onmousedown="handlePan(1,0)"/>
  <use id="arrowdown" xlink:href="#arrowDown" x="0" y="0" onmousedown="handlePan(0,1)"/>
  <use id="arrowleft" xlink:href="#arrowLeft" x="0" y="0" onmousedown="handlePan(-1,0)"/>
</g>
<svg viewBox="0 0 15 15" width="100%" height="30px" preserveAspectRatio="xMaxYMin meet">
 <g id="arrow_out" transform="scale(0.3 0.3)">
  <a xlink:href="classrm_1_1DefaultFeature__coll__graph_org.svg" target="_base">
   <rect id="button" ry="5" rx="5" y="6" x="6" height="38" width="38"
        fill="#f2f5e9" fill-opacity="0.5" stroke="#606060" stroke-width="1.0"/>
   <path id="arrow"
     d="M 11.500037,31.436501 C 11.940474,20.09759 22.043105,11.32322 32.158766,21.979434 L 37.068811,17.246167 C 37.068811,17.246167 37.088388,32 37.088388,32 L 22.160133,31.978069 C 22.160133,31.978069 26.997745,27.140456 26.997745,27.140456 C 18.528582,18.264221 13.291696,25.230495 11.500037,31.436501 z"
     style="fill:#404040;"/>
  </a>
 </g>
</svg>

<style type='text/css'>
<![CDATA[
[data-mouse-over-selected='false'] { opacity: 0.7; }
[data-mouse-over-selected='true']  { opacity: 1.0; }
]]>
</style>
<script type="application/ecmascript"><![CDATA[
document.addEventListener('DOMContentLoaded', (event) => {
  highlightEdges();
  highlightAdjacentNodes();
});
]]></script>
</svg>
