<?xml version="1.0" encoding="UTF-8" standalone="no"?>
<!DOCTYPE svg PUBLIC "-//W3C//DTD SVG 1.1//EN"
 "http://www.w3.org/Graphics/SVG/1.1/DTD/svg11.dtd">
<!-- Generated by graphviz version 2.43.0 (0)
 -->
<!-- Title: rm::msg::MarkerArray Pages: 1 -->
<svg width="1301pt" height="949pt"
 viewBox="0.00 0.00 1301.00 949.00" xmlns="http://www.w3.org/2000/svg" xmlns:xlink="http://www.w3.org/1999/xlink">
<g id="graph0" class="graph" transform="scale(1 1) rotate(0) translate(4 945)">
<title>rm::msg::MarkerArray</title>
<!-- Node1 -->
<g id="Node000001" class="node">
<title>Node1</title>
<g id="a_Node000001"><a xlink:title="MarkerArray 消息类型：viz/MarkerArray">
<polygon fill="#999999" stroke="transparent" points="156.5,-79 50.5,-79 50.5,0 156.5,0 156.5,-79"/>
<text text-anchor="start" x="55.5" y="-66.5" font-family="Helvetica,sans-Serif" font-size="10.00">rm::msg::MarkerArray</text>
<text text-anchor="start" x="101.5" y="-51.5" font-family="Helvetica,sans-Serif" font-size="10.00"> </text>
<text text-anchor="start" x="59.5" y="-36.5" font-family="Helvetica,sans-Serif" font-size="10.00">+</text>
<text text-anchor="start" x="75.5" y="-36.5" font-family="Helvetica,sans-Serif" font-size="10.00">serialize()</text>
<text text-anchor="start" x="59.5" y="-21.5" font-family="Helvetica,sans-Serif" font-size="10.00">+</text>
<text text-anchor="start" x="75.5" y="-21.5" font-family="Helvetica,sans-Serif" font-size="10.00">compact_size()</text>
<text text-anchor="start" x="59.5" y="-6.5" font-family="Helvetica,sans-Serif" font-size="10.00">+</text>
<text text-anchor="start" x="75.5" y="-6.5" font-family="Helvetica,sans-Serif" font-size="10.00">deserialize()</text>
<polygon fill="#666666" stroke="#666666" points="50.5,-61.5 50.5,-61.5 156.5,-61.5 156.5,-61.5 50.5,-61.5"/>
<polygon fill="#666666" stroke="#666666" points="50.5,-46.5 50.5,-46.5 156.5,-46.5 156.5,-46.5 50.5,-46.5"/>
<polygon fill="none" stroke="#666666" points="50.5,0 50.5,-79 156.5,-79 156.5,0 50.5,0"/>
</a>
</g>
</g>
<!-- Node2 -->
<g id="Node000002" class="node">
<title>Node2</title>
<g id="a_Node000002"><a xlink:title=" ">
<polygon fill="white" stroke="transparent" points="205.5,-192 103.5,-192 103.5,-132 205.5,-132 205.5,-192"/>
<text text-anchor="start" x="108.5" y="-180" font-family="Helvetica,sans-Serif" font-size="10.00">std::vector&lt; rm::msg</text>
<text text-anchor="start" x="131.5" y="-169" font-family="Helvetica,sans-Serif" font-size="10.00">::Marker &gt;</text>
<text text-anchor="start" x="152.5" y="-154" font-family="Helvetica,sans-Serif" font-size="10.00"> </text>
<text text-anchor="start" x="152.5" y="-139" font-family="Helvetica,sans-Serif" font-size="10.00"> </text>
<polygon fill="#666666" stroke="#666666" points="103.5,-164 103.5,-164 205.5,-164 205.5,-164 103.5,-164"/>
<polygon fill="#666666" stroke="#666666" points="103.5,-149 103.5,-149 205.5,-149 205.5,-149 103.5,-149"/>
<polygon fill="none" stroke="#666666" points="103.5,-132 103.5,-192 205.5,-192 205.5,-132 103.5,-132"/>
</a>
</g>
</g>
<!-- Node2&#45;&gt;Node1 -->
<g id="edge1_Node000001_Node000002" class="edge">
<title>Node2&#45;&gt;Node1</title>
<g id="a_edge1_Node000001_Node000002"><a xlink:title=" ">
<path fill="none" stroke="#63b8ff" d="M142.15,-131.83C136.9,-119.41 130.61,-104.56 124.65,-90.48"/>
<polygon fill="none" stroke="#63b8ff" points="124.65,-90.47 118.63,-86.5 119.97,-79.42 125.99,-83.39 124.65,-90.47"/>
</a>
</g>
<text text-anchor="start" x="137.5" y="-102.5" font-family="Helvetica,sans-Serif" font-size="10.00" fill="grey">+markers</text>
</g>
<!-- Node3 -->
<g id="Node000003" class="node">
<title>Node3</title>
<g id="a_Node000003"><a xlink:href="../../d0/da6/classrm_1_1msg_1_1Marker.html" target="_top" xlink:title="Marker 消息类型：viz/Marker">
<polygon fill="white" stroke="transparent" points="753,-369 634,-369 634,-245 753,-245 753,-369"/>
<text text-anchor="start" x="657.5" y="-357" font-family="Helvetica,sans-Serif" font-size="10.00">rm::msg::Marker</text>
<text text-anchor="start" x="638.5" y="-342" font-family="Helvetica,sans-Serif" font-size="10.00">+</text>
<text text-anchor="start" x="649.5" y="-342" font-family="Helvetica,sans-Serif" font-size="10.00">type</text>
<text text-anchor="start" x="638.5" y="-327" font-family="Helvetica,sans-Serif" font-size="10.00">+</text>
<text text-anchor="start" x="649.5" y="-327" font-family="Helvetica,sans-Serif" font-size="10.00">action</text>
<text text-anchor="start" x="638.5" y="-312" font-family="Helvetica,sans-Serif" font-size="10.00">+</text>
<text text-anchor="start" x="649.5" y="-312" font-family="Helvetica,sans-Serif" font-size="10.00">TYPE_SPHERE</text>
<text text-anchor="start" x="638.5" y="-297" font-family="Helvetica,sans-Serif" font-size="10.00">+</text>
<text text-anchor="start" x="649.5" y="-297" font-family="Helvetica,sans-Serif" font-size="10.00">TYPE_SPHERE_LIST</text>
<text text-anchor="start" x="638.5" y="-282" font-family="Helvetica,sans-Serif" font-size="10.00">+</text>
<text text-anchor="start" x="649.5" y="-282" font-family="Helvetica,sans-Serif" font-size="10.00">serialize()</text>
<text text-anchor="start" x="638.5" y="-267" font-family="Helvetica,sans-Serif" font-size="10.00">+</text>
<text text-anchor="start" x="649.5" y="-267" font-family="Helvetica,sans-Serif" font-size="10.00">compact_size()</text>
<text text-anchor="start" x="638.5" y="-252" font-family="Helvetica,sans-Serif" font-size="10.00">+</text>
<text text-anchor="start" x="649.5" y="-252" font-family="Helvetica,sans-Serif" font-size="10.00">deserialize()</text>
<polygon fill="#666666" stroke="#666666" points="634.5,-352 634.5,-352 753.5,-352 753.5,-352 634.5,-352"/>
<polygon fill="#666666" stroke="#666666" points="634.5,-292 634.5,-292 647.5,-292 647.5,-292 634.5,-292"/>
<polygon fill="#666666" stroke="#666666" points="647.5,-292 647.5,-292 753.5,-292 753.5,-292 647.5,-292"/>
<polygon fill="none" stroke="#666666" points="634,-245 634,-369 753,-369 753,-245 634,-245"/>
</a>
</g>
</g>
<!-- Node3&#45;&gt;Node2 -->
<g id="edge2_Node000002_Node000003" class="edge">
<title>Node3&#45;&gt;Node2</title>
<g id="a_edge2_Node000002_Node000003"><a xlink:title=" ">
<path fill="none" stroke="#63b8ff" d="M633.76,-290.15C531.09,-262.91 322.14,-207.48 217.37,-179.68"/>
<polygon fill="none" stroke="#63b8ff" points="217.33,-179.67 210.5,-182 205.73,-176.59 212.55,-174.26 217.33,-179.67"/>
</a>
</g>
<text text-anchor="start" x="395.5" y="-215.5" font-family="Helvetica,sans-Serif" font-size="10.00" fill="grey">+elements</text>
</g>
<!-- Node4 -->
<g id="Node000004" class="node">
<title>Node4</title>
<g id="a_Node000004"><a xlink:href="../../de/de3/classrm_1_1msg_1_1Header.html" target="_top" xlink:title="Header 消息类型：std/Header">
<polygon fill="white" stroke="transparent" points="1136.5,-651 1050.5,-651 1050.5,-572 1136.5,-572 1136.5,-651"/>
<text text-anchor="start" x="1056.5" y="-638.5" font-family="Helvetica,sans-Serif" font-size="10.00">rm::msg::Header</text>
<text text-anchor="start" x="1091.5" y="-623.5" font-family="Helvetica,sans-Serif" font-size="10.00"> </text>
<text text-anchor="start" x="1054.5" y="-608.5" font-family="Helvetica,sans-Serif" font-size="10.00">+</text>
<text text-anchor="start" x="1065.5" y="-608.5" font-family="Helvetica,sans-Serif" font-size="10.00">serialize()</text>
<text text-anchor="start" x="1054.5" y="-593.5" font-family="Helvetica,sans-Serif" font-size="10.00">+</text>
<text text-anchor="start" x="1065.5" y="-593.5" font-family="Helvetica,sans-Serif" font-size="10.00">compact_size()</text>
<text text-anchor="start" x="1054.5" y="-578.5" font-family="Helvetica,sans-Serif" font-size="10.00">+</text>
<text text-anchor="start" x="1065.5" y="-578.5" font-family="Helvetica,sans-Serif" font-size="10.00">deserialize()</text>
<polygon fill="#666666" stroke="#666666" points="1050.5,-633.5 1050.5,-633.5 1136.5,-633.5 1136.5,-633.5 1050.5,-633.5"/>
<polygon fill="#666666" stroke="#666666" points="1050.5,-618.5 1050.5,-618.5 1136.5,-618.5 1136.5,-618.5 1050.5,-618.5"/>
<polygon fill="none" stroke="#666666" points="1050.5,-572 1050.5,-651 1136.5,-651 1136.5,-572 1050.5,-572"/>
</a>
</g>
</g>
<!-- Node4&#45;&gt;Node3 -->
<g id="edge3_Node000003_Node000004" class="edge">
<title>Node4&#45;&gt;Node3</title>
<g id="a_edge3_Node000003_Node000004"><a xlink:title=" ">
<path fill="none" stroke="#63b8ff" d="M1100.69,-571.8C1107.47,-522.31 1110.66,-437.05 1064.5,-387 1024.84,-344 861.56,-322.64 765.34,-313.59"/>
<polygon fill="none" stroke="#63b8ff" points="765.32,-313.59 758.98,-317.02 753.37,-312.49 759.71,-309.06 765.32,-313.59"/>
</a>
</g>
<text text-anchor="start" x="1107.5" y="-467.5" font-family="Helvetica,sans-Serif" font-size="10.00" fill="grey">+header</text>
</g>
<!-- Node5 -->
<g id="Node000005" class="node">
<title>Node5</title>
<g id="a_Node000005"><a xlink:title=" ">
<polygon fill="white" stroke="transparent" points="1179,-768 1134,-768 1134,-719 1179,-719 1179,-768"/>
<text text-anchor="start" x="1139.5" y="-755.5" font-family="Helvetica,sans-Serif" font-size="10.00">uint32_t</text>
<text text-anchor="start" x="1155" y="-740.5" font-family="Helvetica,sans-Serif" font-size="10.00"> </text>
<text text-anchor="start" x="1155" y="-725.5" font-family="Helvetica,sans-Serif" font-size="10.00"> </text>
<polygon fill="#666666" stroke="#666666" points="1134.5,-750.5 1134.5,-750.5 1179.5,-750.5 1179.5,-750.5 1134.5,-750.5"/>
<polygon fill="#666666" stroke="#666666" points="1134.5,-735.5 1134.5,-735.5 1179.5,-735.5 1179.5,-735.5 1134.5,-735.5"/>
<polygon fill="none" stroke="#666666" points="1134,-719 1134,-768 1179,-768 1179,-719 1134,-719"/>
</a>
</g>
</g>
<!-- Node5&#45;&gt;Node4 -->
<g id="edge4_Node000004_Node000005" class="edge">
<title>Node5&#45;&gt;Node4</title>
<g id="a_edge4_Node000004_Node000005"><a xlink:title=" ">
<path fill="none" stroke="#63b8ff" d="M1151.58,-718.9C1147.98,-704.1 1142.35,-684.88 1134.5,-669 1133.3,-666.57 1132,-664.14 1130.62,-661.72"/>
<polygon fill="none" stroke="#63b8ff" points="1130.46,-661.47 1123.91,-658.45 1124.17,-651.25 1130.72,-654.26 1130.46,-661.47"/>
</a>
</g>
<text text-anchor="start" x="1143.5" y="-674.5" font-family="Helvetica,sans-Serif" font-size="10.00" fill="grey">+seq</text>
</g>
<!-- Node6 -->
<g id="Node000006" class="node">
<title>Node6</title>
<g id="a_Node000006"><a xlink:title=" ">
<polygon fill="white" stroke="transparent" points="1115.5,-768 1075.5,-768 1075.5,-719 1115.5,-719 1115.5,-768"/>
<text text-anchor="start" x="1080.5" y="-755.5" font-family="Helvetica,sans-Serif" font-size="10.00">int64_t</text>
<text text-anchor="start" x="1093.5" y="-740.5" font-family="Helvetica,sans-Serif" font-size="10.00"> </text>
<text text-anchor="start" x="1093.5" y="-725.5" font-family="Helvetica,sans-Serif" font-size="10.00"> </text>
<polygon fill="#666666" stroke="#666666" points="1075.5,-750.5 1075.5,-750.5 1115.5,-750.5 1115.5,-750.5 1075.5,-750.5"/>
<polygon fill="#666666" stroke="#666666" points="1075.5,-735.5 1075.5,-735.5 1115.5,-735.5 1115.5,-735.5 1075.5,-735.5"/>
<polygon fill="none" stroke="#666666" points="1075.5,-719 1075.5,-768 1115.5,-768 1115.5,-719 1075.5,-719"/>
</a>
</g>
</g>
<!-- Node6&#45;&gt;Node4 -->
<g id="edge5_Node000004_Node000006" class="edge">
<title>Node6&#45;&gt;Node4</title>
<g id="a_edge5_Node000004_Node000006"><a xlink:title=" ">
<path fill="none" stroke="#63b8ff" d="M1095.06,-718.86C1094.88,-708.74 1094.67,-696.79 1094.5,-686 1094.38,-678.64 1094.27,-670.86 1094.16,-663.22"/>
<polygon fill="none" stroke="#63b8ff" points="1094.16,-663.03 1090.08,-657.08 1093.99,-651.03 1098.08,-656.97 1094.16,-663.03"/>
</a>
</g>
<text text-anchor="start" x="1097.5" y="-674.5" font-family="Helvetica,sans-Serif" font-size="10.00" fill="grey">+stamp</text>
</g>
<!-- Node7 -->
<g id="Node000007" class="node">
<title>Node7</title>
<g id="a_Node000007"><a xlink:title=" ">
<polygon fill="white" stroke="transparent" points="1275.5,-768 1221.5,-768 1221.5,-719 1275.5,-719 1275.5,-768"/>
<text text-anchor="start" x="1226.5" y="-755.5" font-family="Helvetica,sans-Serif" font-size="10.00">std::string</text>
<text text-anchor="start" x="1246.5" y="-740.5" font-family="Helvetica,sans-Serif" font-size="10.00"> </text>
<text text-anchor="start" x="1246.5" y="-725.5" font-family="Helvetica,sans-Serif" font-size="10.00"> </text>
<polygon fill="#666666" stroke="#666666" points="1221.5,-750.5 1221.5,-750.5 1275.5,-750.5 1275.5,-750.5 1221.5,-750.5"/>
<polygon fill="#666666" stroke="#666666" points="1221.5,-735.5 1221.5,-735.5 1275.5,-735.5 1275.5,-735.5 1221.5,-735.5"/>
<polygon fill="none" stroke="#666666" points="1221.5,-719 1221.5,-768 1275.5,-768 1275.5,-719 1221.5,-719"/>
</a>
</g>
</g>
<!-- Node7&#45;&gt;Node3 -->
<g id="edge9_Node000003_Node000007" class="edge">
<title>Node7&#45;&gt;Node3</title>
<g id="a_edge9_Node000003_Node000007"><a xlink:title=" ">
<path fill="none" stroke="#63b8ff" d="M1250.09,-718.87C1253.01,-654.3 1251.34,-473.97 1150.5,-387 1093.88,-338.16 878.86,-318.61 765.09,-311.55"/>
<polygon fill="none" stroke="#63b8ff" points="765.05,-311.55 758.82,-315.18 753.07,-310.83 759.3,-307.2 765.05,-311.55"/>
</a>
</g>
<text text-anchor="start" x="1253" y="-608.5" font-family="Helvetica,sans-Serif" font-size="10.00" fill="grey">+ns</text>
</g>
<!-- Node7&#45;&gt;Node4 -->
<g id="edge6_Node000004_Node000007" class="edge">
<title>Node7&#45;&gt;Node4</title>
<g id="a_edge6_Node000004_Node000007"><a xlink:title=" ">
<path fill="none" stroke="#63b8ff" d="M1225.71,-718.73C1211.03,-703.86 1191.25,-684.63 1172.5,-669 1164.31,-662.18 1155.35,-655.28 1146.5,-648.76"/>
<polygon fill="none" stroke="#63b8ff" points="1146.31,-648.62 1139.11,-648.34 1136.6,-641.58 1143.8,-641.86 1146.31,-648.62"/>
</a>
</g>
<text text-anchor="start" x="1192.5" y="-674.5" font-family="Helvetica,sans-Serif" font-size="10.00" fill="grey">+frame_id</text>
</g>
<!-- Node8 -->
<g id="Node000008" class="node">
<title>Node8</title>
<g id="a_Node000008"><a xlink:title=" ">
<polygon fill="white" stroke="transparent" points="1293,-941 1204,-941 1204,-881 1293,-881 1293,-941"/>
<text text-anchor="start" x="1209.5" y="-929" font-family="Helvetica,sans-Serif" font-size="10.00">std::basic_string&lt;</text>
<text text-anchor="start" x="1232" y="-918" font-family="Helvetica,sans-Serif" font-size="10.00"> Char &gt;</text>
<text text-anchor="start" x="1247" y="-903" font-family="Helvetica,sans-Serif" font-size="10.00"> </text>
<text text-anchor="start" x="1247" y="-888" font-family="Helvetica,sans-Serif" font-size="10.00"> </text>
<polygon fill="#666666" stroke="#666666" points="1204.5,-913 1204.5,-913 1293.5,-913 1293.5,-913 1204.5,-913"/>
<polygon fill="#666666" stroke="#666666" points="1204.5,-898 1204.5,-898 1293.5,-898 1293.5,-898 1204.5,-898"/>
<polygon fill="none" stroke="#666666" points="1204,-881 1204,-941 1293,-941 1293,-881 1204,-881"/>
</a>
</g>
</g>
<!-- Node8&#45;&gt;Node7 -->
<g id="edge7_Node000007_Node000008" class="edge">
<title>Node8&#45;&gt;Node7</title>
<g id="a_edge7_Node000007_Node000008"><a xlink:title=" ">
<path fill="none" stroke="#63b8ff" d="M1248.5,-870.47C1248.5,-838.55 1248.5,-794.72 1248.5,-768.07"/>
<polygon fill="none" stroke="#63b8ff" points="1245,-870.79 1248.5,-880.79 1252,-870.79 1245,-870.79"/>
</a>
</g>
</g>
<!-- Node9 -->
<g id="Node000009" class="node">
<title>Node9</title>
<g id="a_Node000009"><a xlink:title=" ">
<polygon fill="white" stroke="transparent" points="665,-935.5 636,-935.5 636,-886.5 665,-886.5 665,-935.5"/>
<text text-anchor="start" x="641.5" y="-923" font-family="Helvetica,sans-Serif" font-size="10.00">char</text>
<text text-anchor="start" x="649" y="-908" font-family="Helvetica,sans-Serif" font-size="10.00"> </text>
<text text-anchor="start" x="649" y="-893" font-family="Helvetica,sans-Serif" font-size="10.00"> </text>
<polygon fill="#666666" stroke="#666666" points="636.5,-918 636.5,-918 665.5,-918 665.5,-918 636.5,-918"/>
<polygon fill="#666666" stroke="#666666" points="636.5,-903 636.5,-903 665.5,-903 665.5,-903 636.5,-903"/>
<polygon fill="none" stroke="#666666" points="636,-886.5 636,-935.5 665,-935.5 665,-886.5 636,-886.5"/>
</a>
</g>
</g>
<!-- Node9&#45;&gt;Node1 -->
<g id="edge35_Node000001_Node000009" class="edge">
<title>Node9&#45;&gt;Node1</title>
<g id="a_edge35_Node000001_Node000009"><a xlink:title=" ">
<path fill="none" stroke="#63b8ff" d="M635.72,-907.9C595.86,-902.12 482.89,-884.92 390.5,-863 268.31,-834.01 229.53,-843.53 119.5,-783 96.73,-770.48 75.5,-770.48 75.5,-744.5 75.5,-744.5 75.5,-744.5 75.5,-161 75.5,-137.55 80.59,-112.19 86.43,-90.8"/>
<polygon fill="none" stroke="#63b8ff" points="86.5,-90.58 84.32,-83.7 89.83,-79.05 92.01,-85.92 86.5,-90.58"/>
</a>
</g>
<text text-anchor="start" x="79" y="-467.5" font-family="Helvetica,sans-Serif" font-size="10.00" fill="grey">+msg_type</text>
</g>
<!-- Node9&#45;&gt;Node3 -->
<g id="edge33_Node000003_Node000009" class="edge">
<title>Node9&#45;&gt;Node3</title>
<g id="a_edge33_Node000003_Node000009"><a xlink:title=" ">
<path fill="none" stroke="#63b8ff" d="M635.88,-897.34C626.03,-888.35 613.12,-875.69 603.5,-863 548.46,-790.44 527.97,-759.58 537.5,-669 550.91,-541.56 530.97,-496.51 597.5,-387 604.69,-375.16 614.32,-364.29 624.7,-354.65"/>
<polygon fill="none" stroke="#63b8ff" points="624.96,-354.42 626.83,-347.45 633.97,-346.5 632.11,-353.46 624.96,-354.42"/>
</a>
</g>
<text text-anchor="start" x="541" y="-674.5" font-family="Helvetica,sans-Serif" font-size="10.00" fill="grey">+msg_type</text>
</g>
<!-- Node9&#45;&gt;Node4 -->
<g id="edge8_Node000004_Node000009" class="edge">
<title>Node9&#45;&gt;Node4</title>
<g id="a_edge8_Node000004_Node000009"><a xlink:title=" ">
<path fill="none" stroke="#63b8ff" d="M665.1,-907.05C693.3,-901.41 757.27,-888.98 811.5,-881 846.24,-875.88 941.88,-885.9 968.5,-863 1024,-815.26 976.57,-768.33 1011.5,-704 1019.94,-688.46 1031.5,-673.4 1043.29,-660.13"/>
<polygon fill="none" stroke="#63b8ff" points="1043.33,-660.08 1044.45,-652.95 1051.45,-651.24 1050.34,-658.36 1043.33,-660.08"/>
</a>
</g>
<text text-anchor="start" x="1015" y="-740.5" font-family="Helvetica,sans-Serif" font-size="10.00" fill="grey">+msg_type</text>
</g>
<!-- Node12 -->
<g id="Node000012" class="node">
<title>Node12</title>
<g id="a_Node000012"><a xlink:href="../../d4/d23/classrm_1_1msg_1_1Pose.html" target="_top" xlink:title="Pose 消息类型：geometry/Pose">
<polygon fill="white" stroke="transparent" points="848.5,-651 762.5,-651 762.5,-572 848.5,-572 848.5,-651"/>
<text text-anchor="start" x="773" y="-638.5" font-family="Helvetica,sans-Serif" font-size="10.00">rm::msg::Pose</text>
<text text-anchor="start" x="803.5" y="-623.5" font-family="Helvetica,sans-Serif" font-size="10.00"> </text>
<text text-anchor="start" x="766.5" y="-608.5" font-family="Helvetica,sans-Serif" font-size="10.00">+</text>
<text text-anchor="start" x="777.5" y="-608.5" font-family="Helvetica,sans-Serif" font-size="10.00">serialize()</text>
<text text-anchor="start" x="766.5" y="-593.5" font-family="Helvetica,sans-Serif" font-size="10.00">+</text>
<text text-anchor="start" x="777.5" y="-593.5" font-family="Helvetica,sans-Serif" font-size="10.00">compact_size()</text>
<text text-anchor="start" x="766.5" y="-578.5" font-family="Helvetica,sans-Serif" font-size="10.00">+</text>
<text text-anchor="start" x="777.5" y="-578.5" font-family="Helvetica,sans-Serif" font-size="10.00">deserialize()</text>
<polygon fill="#666666" stroke="#666666" points="762.5,-633.5 762.5,-633.5 848.5,-633.5 848.5,-633.5 762.5,-633.5"/>
<polygon fill="#666666" stroke="#666666" points="762.5,-618.5 762.5,-618.5 848.5,-618.5 848.5,-618.5 762.5,-618.5"/>
<polygon fill="none" stroke="#666666" points="762.5,-572 762.5,-651 848.5,-651 848.5,-572 762.5,-572"/>
</a>
</g>
</g>
<!-- Node9&#45;&gt;Node12 -->
<g id="edge19_Node000012_Node000009" class="edge">
<title>Node9&#45;&gt;Node12</title>
<g id="a_edge19_Node000012_Node000009"><a xlink:title=" ">
<path fill="none" stroke="#63b8ff" d="M663.87,-886.18C667.47,-878.92 671.04,-870.8 673.5,-863 695.02,-794.78 663.6,-766.44 698.5,-704 705.63,-691.25 729.43,-670.46 752.77,-651.91"/>
<polygon fill="none" stroke="#63b8ff" points="752.91,-651.81 755.16,-644.96 762.35,-644.4 760.1,-651.25 752.91,-651.81"/>
</a>
</g>
<text text-anchor="start" x="702" y="-740.5" font-family="Helvetica,sans-Serif" font-size="10.00" fill="grey">+msg_type</text>
</g>
<!-- Node13 -->
<g id="Node000013" class="node">
<title>Node13</title>
<g id="a_Node000013"><a xlink:href="../../d0/deb/classrm_1_1msg_1_1Point.html" target="_top" xlink:title="Point 消息类型：geometry/Point">
<polygon fill="white" stroke="transparent" points="848.5,-783 762.5,-783 762.5,-704 848.5,-704 848.5,-783"/>
<text text-anchor="start" x="773" y="-770.5" font-family="Helvetica,sans-Serif" font-size="10.00">rm::msg::Point</text>
<text text-anchor="start" x="803.5" y="-755.5" font-family="Helvetica,sans-Serif" font-size="10.00"> </text>
<text text-anchor="start" x="766.5" y="-740.5" font-family="Helvetica,sans-Serif" font-size="10.00">+</text>
<text text-anchor="start" x="777.5" y="-740.5" font-family="Helvetica,sans-Serif" font-size="10.00">serialize()</text>
<text text-anchor="start" x="766.5" y="-725.5" font-family="Helvetica,sans-Serif" font-size="10.00">+</text>
<text text-anchor="start" x="777.5" y="-725.5" font-family="Helvetica,sans-Serif" font-size="10.00">compact_size()</text>
<text text-anchor="start" x="766.5" y="-710.5" font-family="Helvetica,sans-Serif" font-size="10.00">+</text>
<text text-anchor="start" x="777.5" y="-710.5" font-family="Helvetica,sans-Serif" font-size="10.00">deserialize()</text>
<polygon fill="#666666" stroke="#666666" points="762.5,-765.5 762.5,-765.5 848.5,-765.5 848.5,-765.5 762.5,-765.5"/>
<polygon fill="#666666" stroke="#666666" points="762.5,-750.5 762.5,-750.5 848.5,-750.5 848.5,-750.5 762.5,-750.5"/>
<polygon fill="none" stroke="#666666" points="762.5,-704 762.5,-783 848.5,-783 848.5,-704 762.5,-704"/>
</a>
</g>
</g>
<!-- Node9&#45;&gt;Node13 -->
<g id="edge15_Node000013_Node000009" class="edge">
<title>Node9&#45;&gt;Node13</title>
<g id="a_edge15_Node000013_Node000009"><a xlink:title=" ">
<path fill="none" stroke="#63b8ff" d="M665.06,-906.14C684.79,-900.18 719.79,-886.83 739.5,-863 757.87,-840.79 744.79,-826.35 758.5,-801 759.93,-798.35 761.5,-795.7 763.17,-793.09"/>
<polygon fill="none" stroke="#63b8ff" points="763.19,-793.07 763.31,-785.86 770.01,-783.2 769.89,-790.41 763.19,-793.07"/>
</a>
</g>
<text text-anchor="start" x="762" y="-829" font-family="Helvetica,sans-Serif" font-size="10.00" fill="grey">+msg_type</text>
</g>
<!-- Node15 -->
<g id="Node000015" class="node">
<title>Node15</title>
<g id="a_Node000015"><a xlink:href="../../d1/dbe/classrm_1_1msg_1_1Quaternion.html" target="_top" xlink:title="Quaternion 消息类型：geometry/Quaternion">
<polygon fill="white" stroke="transparent" points="966.5,-783 866.5,-783 866.5,-704 966.5,-704 966.5,-783"/>
<text text-anchor="start" x="871.5" y="-770.5" font-family="Helvetica,sans-Serif" font-size="10.00">rm::msg::Quaternion</text>
<text text-anchor="start" x="914.5" y="-755.5" font-family="Helvetica,sans-Serif" font-size="10.00"> </text>
<text text-anchor="start" x="874" y="-740.5" font-family="Helvetica,sans-Serif" font-size="10.00">+</text>
<text text-anchor="start" x="888.5" y="-740.5" font-family="Helvetica,sans-Serif" font-size="10.00">serialize()</text>
<text text-anchor="start" x="874" y="-725.5" font-family="Helvetica,sans-Serif" font-size="10.00">+</text>
<text text-anchor="start" x="888.5" y="-725.5" font-family="Helvetica,sans-Serif" font-size="10.00">compact_size()</text>
<text text-anchor="start" x="874" y="-710.5" font-family="Helvetica,sans-Serif" font-size="10.00">+</text>
<text text-anchor="start" x="888.5" y="-710.5" font-family="Helvetica,sans-Serif" font-size="10.00">deserialize()</text>
<polygon fill="#666666" stroke="#666666" points="866.5,-765.5 866.5,-765.5 966.5,-765.5 966.5,-765.5 866.5,-765.5"/>
<polygon fill="#666666" stroke="#666666" points="866.5,-750.5 866.5,-750.5 966.5,-750.5 966.5,-750.5 866.5,-750.5"/>
<polygon fill="none" stroke="#666666" points="866.5,-704 866.5,-783 966.5,-783 966.5,-704 866.5,-704"/>
</a>
</g>
</g>
<!-- Node9&#45;&gt;Node15 -->
<g id="edge18_Node000015_Node000009" class="edge">
<title>Node9&#45;&gt;Node15</title>
<g id="a_edge18_Node000015_Node000009"><a xlink:title=" ">
<path fill="none" stroke="#63b8ff" d="M665.3,-907.34C709.27,-899.33 837.03,-875.23 851.5,-863 874.32,-843.71 863.16,-827.21 877.5,-801 878.88,-798.49 880.34,-795.95 881.86,-793.41"/>
<polygon fill="none" stroke="#63b8ff" points="881.98,-793.21 881.78,-786 888.35,-783.04 888.55,-790.25 881.98,-793.21"/>
</a>
</g>
<text text-anchor="start" x="881" y="-829" font-family="Helvetica,sans-Serif" font-size="10.00" fill="grey">+msg_type</text>
</g>
<!-- Node16 -->
<g id="Node000016" class="node">
<title>Node16</title>
<g id="a_Node000016"><a xlink:href="../../d3/d5d/classrm_1_1msg_1_1Vector3.html" target="_top" xlink:title="Vector3 消息类型：geometry/Vector3">
<polygon fill="white" stroke="transparent" points="653.5,-783 567.5,-783 567.5,-704 653.5,-704 653.5,-783"/>
<text text-anchor="start" x="572.5" y="-770.5" font-family="Helvetica,sans-Serif" font-size="10.00">rm::msg::Vector3</text>
<text text-anchor="start" x="608.5" y="-755.5" font-family="Helvetica,sans-Serif" font-size="10.00"> </text>
<text text-anchor="start" x="571.5" y="-740.5" font-family="Helvetica,sans-Serif" font-size="10.00">+</text>
<text text-anchor="start" x="582.5" y="-740.5" font-family="Helvetica,sans-Serif" font-size="10.00">serialize()</text>
<text text-anchor="start" x="571.5" y="-725.5" font-family="Helvetica,sans-Serif" font-size="10.00">+</text>
<text text-anchor="start" x="582.5" y="-725.5" font-family="Helvetica,sans-Serif" font-size="10.00">compact_size()</text>
<text text-anchor="start" x="571.5" y="-710.5" font-family="Helvetica,sans-Serif" font-size="10.00">+</text>
<text text-anchor="start" x="582.5" y="-710.5" font-family="Helvetica,sans-Serif" font-size="10.00">deserialize()</text>
<polygon fill="#666666" stroke="#666666" points="567.5,-765.5 567.5,-765.5 653.5,-765.5 653.5,-765.5 567.5,-765.5"/>
<polygon fill="#666666" stroke="#666666" points="567.5,-750.5 567.5,-750.5 653.5,-750.5 653.5,-750.5 567.5,-750.5"/>
<polygon fill="none" stroke="#666666" points="567.5,-704 567.5,-783 653.5,-783 653.5,-704 567.5,-704"/>
</a>
</g>
</g>
<!-- Node9&#45;&gt;Node16 -->
<g id="edge22_Node000016_Node000009" class="edge">
<title>Node9&#45;&gt;Node16</title>
<g id="a_edge22_Node000016_Node000009"><a xlink:title=" ">
<path fill="none" stroke="#63b8ff" d="M635.94,-893.35C629.4,-884.86 622.3,-874.01 618.5,-863 611.1,-841.58 608.58,-816.7 608.11,-795.29"/>
<polygon fill="none" stroke="#63b8ff" points="608.11,-795.14 604.08,-789.15 608.05,-783.14 612.08,-789.12 608.11,-795.14"/>
</a>
</g>
<text text-anchor="start" x="622" y="-829" font-family="Helvetica,sans-Serif" font-size="10.00" fill="grey">+msg_type</text>
</g>
<!-- Node17 -->
<g id="Node000017" class="node">
<title>Node17</title>
<g id="a_Node000017"><a xlink:href="../../d8/da1/classrm_1_1msg_1_1ColorRGBA.html" target="_top" xlink:title="ColorRGBA 消息类型：std/ColorRGBA">
<polygon fill="white" stroke="transparent" points="446.5,-783 342.5,-783 342.5,-704 446.5,-704 446.5,-783"/>
<text text-anchor="start" x="347.5" y="-770.5" font-family="Helvetica,sans-Serif" font-size="10.00">rm::msg::ColorRGBA</text>
<text text-anchor="start" x="392.5" y="-755.5" font-family="Helvetica,sans-Serif" font-size="10.00"> </text>
<text text-anchor="start" x="351" y="-740.5" font-family="Helvetica,sans-Serif" font-size="10.00">+</text>
<text text-anchor="start" x="366.5" y="-740.5" font-family="Helvetica,sans-Serif" font-size="10.00">serialize()</text>
<text text-anchor="start" x="351" y="-725.5" font-family="Helvetica,sans-Serif" font-size="10.00">+</text>
<text text-anchor="start" x="366.5" y="-725.5" font-family="Helvetica,sans-Serif" font-size="10.00">compact_size()</text>
<text text-anchor="start" x="351" y="-710.5" font-family="Helvetica,sans-Serif" font-size="10.00">+</text>
<text text-anchor="start" x="366.5" y="-710.5" font-family="Helvetica,sans-Serif" font-size="10.00">deserialize()</text>
<polygon fill="#666666" stroke="#666666" points="342.5,-765.5 342.5,-765.5 446.5,-765.5 446.5,-765.5 342.5,-765.5"/>
<polygon fill="#666666" stroke="#666666" points="342.5,-750.5 342.5,-750.5 446.5,-750.5 446.5,-750.5 342.5,-750.5"/>
<polygon fill="none" stroke="#666666" points="342.5,-704 342.5,-783 446.5,-783 446.5,-704 342.5,-704"/>
</a>
</g>
</g>
<!-- Node9&#45;&gt;Node17 -->
<g id="edge25_Node000017_Node000009" class="edge">
<title>Node9&#45;&gt;Node17</title>
<g id="a_edge25_Node000017_Node000009"><a xlink:title=" ">
<path fill="none" stroke="#63b8ff" d="M635.93,-909.68C603.23,-908.29 522.77,-900.95 470.5,-863 446.49,-845.57 428.16,-818.02 415.52,-793.87"/>
<polygon fill="none" stroke="#63b8ff" points="415.48,-793.79 409.22,-790.22 410.12,-783.06 416.38,-786.64 415.48,-793.79"/>
</a>
</g>
<text text-anchor="start" x="474" y="-829" font-family="Helvetica,sans-Serif" font-size="10.00" fill="grey">+msg_type</text>
</g>
<!-- Node10 -->
<g id="Node000010" class="node">
<title>Node10</title>
<g id="a_Node000010"><a xlink:title=" ">
<polygon fill="white" stroke="transparent" points="906.5,-636 866.5,-636 866.5,-587 906.5,-587 906.5,-636"/>
<text text-anchor="start" x="871.5" y="-623.5" font-family="Helvetica,sans-Serif" font-size="10.00">int32_t</text>
<text text-anchor="start" x="884.5" y="-608.5" font-family="Helvetica,sans-Serif" font-size="10.00"> </text>
<text text-anchor="start" x="884.5" y="-593.5" font-family="Helvetica,sans-Serif" font-size="10.00"> </text>
<polygon fill="#666666" stroke="#666666" points="866.5,-618.5 866.5,-618.5 906.5,-618.5 906.5,-618.5 866.5,-618.5"/>
<polygon fill="#666666" stroke="#666666" points="866.5,-603.5 866.5,-603.5 906.5,-603.5 906.5,-603.5 866.5,-603.5"/>
<polygon fill="none" stroke="#666666" points="866.5,-587 866.5,-636 906.5,-636 906.5,-587 866.5,-587"/>
</a>
</g>
</g>
<!-- Node10&#45;&gt;Node3 -->
<g id="edge10_Node000003_Node000010" class="edge">
<title>Node10&#45;&gt;Node3</title>
<g id="a_edge10_Node000003_Node000010"><a xlink:title=" ">
<path fill="none" stroke="#63b8ff" d="M885.99,-586.75C883.89,-542.94 873.89,-448.27 827.5,-387 811.24,-365.53 787.32,-348.8 764.18,-336.38"/>
<polygon fill="none" stroke="#63b8ff" points="763.95,-336.26 756.79,-337.09 753.27,-330.8 760.43,-329.97 763.95,-336.26"/>
</a>
</g>
<text text-anchor="start" x="885.5" y="-467.5" font-family="Helvetica,sans-Serif" font-size="10.00" fill="grey">+id</text>
</g>
<!-- Node11 -->
<g id="Node000011" class="node">
<title>Node11</title>
<g id="a_Node000011"><a xlink:title=" ">
<polygon fill="white" stroke="transparent" points="964.5,-636 924.5,-636 924.5,-587 964.5,-587 964.5,-636"/>
<text text-anchor="start" x="929.5" y="-623.5" font-family="Helvetica,sans-Serif" font-size="10.00">uint8_t</text>
<text text-anchor="start" x="942.5" y="-608.5" font-family="Helvetica,sans-Serif" font-size="10.00"> </text>
<text text-anchor="start" x="942.5" y="-593.5" font-family="Helvetica,sans-Serif" font-size="10.00"> </text>
<polygon fill="#666666" stroke="#666666" points="924.5,-618.5 924.5,-618.5 964.5,-618.5 964.5,-618.5 924.5,-618.5"/>
<polygon fill="#666666" stroke="#666666" points="924.5,-603.5 924.5,-603.5 964.5,-603.5 964.5,-603.5 924.5,-603.5"/>
<polygon fill="none" stroke="#666666" points="924.5,-587 924.5,-636 964.5,-636 964.5,-587 924.5,-587"/>
</a>
</g>
</g>
<!-- Node11&#45;&gt;Node3 -->
<g id="edge11_Node000003_Node000011" class="edge">
<title>Node11&#45;&gt;Node3</title>
<g id="a_edge11_Node000003_Node000011"><a xlink:title=" ">
<path fill="none" stroke="#63b8ff" d="M947.57,-586.84C951.97,-542.31 954.85,-445.34 906.5,-387 871.77,-345.1 812.6,-325.41 765.42,-316.17"/>
<polygon fill="none" stroke="#63b8ff" points="765.2,-316.13 758.59,-319 753.4,-313.99 760.01,-311.12 765.2,-316.13"/>
</a>
</g>
<text text-anchor="start" x="952.5" y="-542.5" font-family="Helvetica,sans-Serif" font-size="10.00" fill="grey">+ACTION_ADD</text>
<text text-anchor="start" x="952.5" y="-527.5" font-family="Helvetica,sans-Serif" font-size="10.00" fill="grey">+ACTION_DELETE</text>
<text text-anchor="start" x="952.5" y="-512.5" font-family="Helvetica,sans-Serif" font-size="10.00" fill="grey">+ACTION_DELETEALL</text>
<text text-anchor="start" x="952.5" y="-497.5" font-family="Helvetica,sans-Serif" font-size="10.00" fill="grey">+TYPE_ARROW</text>
<text text-anchor="start" x="952.5" y="-482.5" font-family="Helvetica,sans-Serif" font-size="10.00" fill="grey">+TYPE_CUBE</text>
<text text-anchor="start" x="952.5" y="-467.5" font-family="Helvetica,sans-Serif" font-size="10.00" fill="grey">+TYPE_CUBE_LIST</text>
<text text-anchor="start" x="952.5" y="-452.5" font-family="Helvetica,sans-Serif" font-size="10.00" fill="grey">+TYPE_CYLINDER</text>
<text text-anchor="start" x="952.5" y="-437.5" font-family="Helvetica,sans-Serif" font-size="10.00" fill="grey">+TYPE_LINE_LIST</text>
<text text-anchor="start" x="952.5" y="-422.5" font-family="Helvetica,sans-Serif" font-size="10.00" fill="grey">+TYPE_LINE_STRIP</text>
<text text-anchor="start" x="952.5" y="-407.5" font-family="Helvetica,sans-Serif" font-size="10.00" fill="grey">+TYPE_POINTS</text>
<text text-anchor="start" x="952.5" y="-392.5" font-family="Helvetica,sans-Serif" font-size="10.00" fill="grey"> &#160;...</text>
</g>
<!-- Node12&#45;&gt;Node3 -->
<g id="edge12_Node000003_Node000012" class="edge">
<title>Node12&#45;&gt;Node3</title>
<g id="a_edge12_Node000003_Node000012"><a xlink:title=" ">
<path fill="none" stroke="#63b8ff" d="M796.04,-571.71C784.44,-526.47 763,-449.87 736.5,-387 735.53,-384.7 734.51,-382.37 733.45,-380.04"/>
<polygon fill="none" stroke="#63b8ff" points="733.41,-379.94 727.23,-376.22 728.28,-369.09 734.46,-372.8 733.41,-379.94"/>
</a>
</g>
<text text-anchor="start" x="792.5" y="-467.5" font-family="Helvetica,sans-Serif" font-size="10.00" fill="grey">+pose</text>
</g>
<!-- Node13&#45;&gt;Node12 -->
<g id="edge13_Node000012_Node000013" class="edge">
<title>Node13&#45;&gt;Node12</title>
<g id="a_edge13_Node000012_Node000013"><a xlink:title=" ">
<path fill="none" stroke="#63b8ff" d="M805.5,-703.85C805.5,-691.13 805.5,-676.78 805.5,-663.3"/>
<polygon fill="none" stroke="#63b8ff" points="805.5,-663.23 801.5,-657.23 805.5,-651.23 809.5,-657.23 805.5,-663.23"/>
</a>
</g>
<text text-anchor="start" x="808.5" y="-674.5" font-family="Helvetica,sans-Serif" font-size="10.00" fill="grey">+position</text>
</g>
<!-- Node19 -->
<g id="Node000019" class="node">
<title>Node19</title>
<g id="a_Node000019"><a xlink:title=" ">
<polygon fill="white" stroke="transparent" points="744.5,-641.5 642.5,-641.5 642.5,-581.5 744.5,-581.5 744.5,-641.5"/>
<text text-anchor="start" x="647.5" y="-629.5" font-family="Helvetica,sans-Serif" font-size="10.00">std::vector&lt; rm::msg</text>
<text text-anchor="start" x="674.5" y="-618.5" font-family="Helvetica,sans-Serif" font-size="10.00">::Point &gt;</text>
<text text-anchor="start" x="691.5" y="-603.5" font-family="Helvetica,sans-Serif" font-size="10.00"> </text>
<text text-anchor="start" x="691.5" y="-588.5" font-family="Helvetica,sans-Serif" font-size="10.00"> </text>
<polygon fill="#666666" stroke="#666666" points="642.5,-613.5 642.5,-613.5 744.5,-613.5 744.5,-613.5 642.5,-613.5"/>
<polygon fill="#666666" stroke="#666666" points="642.5,-598.5 642.5,-598.5 744.5,-598.5 744.5,-598.5 642.5,-598.5"/>
<polygon fill="none" stroke="#666666" points="642.5,-581.5 642.5,-641.5 744.5,-641.5 744.5,-581.5 642.5,-581.5"/>
</a>
</g>
</g>
<!-- Node13&#45;&gt;Node19 -->
<g id="edge27_Node000019_Node000013" class="edge">
<title>Node13&#45;&gt;Node19</title>
<g id="a_edge27_Node000019_Node000013"><a xlink:title=" ">
<path fill="none" stroke="#63b8ff" d="M765.96,-703.92C760.31,-698.03 754.67,-691.94 749.5,-686 740.05,-675.14 730.35,-662.87 721.73,-651.5"/>
<polygon fill="none" stroke="#63b8ff" points="721.66,-651.41 714.86,-649.01 714.47,-641.81 721.27,-644.21 721.66,-651.41"/>
</a>
</g>
<text text-anchor="start" x="752.5" y="-674.5" font-family="Helvetica,sans-Serif" font-size="10.00" fill="grey">+elements</text>
</g>
<!-- Node14 -->
<g id="Node000014" class="node">
<title>Node14</title>
<g id="a_Node000014"><a xlink:title=" ">
<polygon fill="white" stroke="transparent" points="859,-935.5 820,-935.5 820,-886.5 859,-886.5 859,-935.5"/>
<text text-anchor="start" x="825.5" y="-923" font-family="Helvetica,sans-Serif" font-size="10.00">double</text>
<text text-anchor="start" x="838" y="-908" font-family="Helvetica,sans-Serif" font-size="10.00"> </text>
<text text-anchor="start" x="838" y="-893" font-family="Helvetica,sans-Serif" font-size="10.00"> </text>
<polygon fill="#666666" stroke="#666666" points="820.5,-918 820.5,-918 859.5,-918 859.5,-918 820.5,-918"/>
<polygon fill="#666666" stroke="#666666" points="820.5,-903 820.5,-903 859.5,-903 859.5,-903 820.5,-903"/>
<polygon fill="none" stroke="#666666" points="820,-886.5 820,-935.5 859,-935.5 859,-886.5 820,-886.5"/>
</a>
</g>
</g>
<!-- Node14&#45;&gt;Node13 -->
<g id="edge14_Node000013_Node000014" class="edge">
<title>Node14&#45;&gt;Node13</title>
<g id="a_edge14_Node000013_Node000014"><a xlink:title=" ">
<path fill="none" stroke="#63b8ff" d="M834.76,-886.17C830.35,-864.08 823.57,-830.3 817.5,-801 817.09,-799.01 816.67,-796.98 816.24,-794.93"/>
<polygon fill="none" stroke="#63b8ff" points="816.22,-794.83 811.07,-789.78 813.75,-783.09 818.9,-788.14 816.22,-794.83"/>
</a>
</g>
<text text-anchor="start" x="832.5" y="-844" font-family="Helvetica,sans-Serif" font-size="10.00" fill="grey">+x</text>
<text text-anchor="start" x="832.5" y="-829" font-family="Helvetica,sans-Serif" font-size="10.00" fill="grey">+y</text>
<text text-anchor="start" x="832.5" y="-814" font-family="Helvetica,sans-Serif" font-size="10.00" fill="grey">+z</text>
</g>
<!-- Node14&#45;&gt;Node15 -->
<g id="edge17_Node000015_Node000014" class="edge">
<title>Node14&#45;&gt;Node15</title>
<g id="a_edge17_Node000015_Node000014"><a xlink:title=" ">
<path fill="none" stroke="#63b8ff" d="M859.27,-906.78C882.38,-901.84 919.61,-889.96 936.5,-863 949.13,-842.84 946.55,-817.14 939.79,-794.82"/>
<polygon fill="none" stroke="#63b8ff" points="939.69,-794.53 933.96,-790.14 935.81,-783.17 941.53,-787.56 939.69,-794.53"/>
</a>
</g>
<text text-anchor="start" x="947.5" y="-852" font-family="Helvetica,sans-Serif" font-size="10.00" fill="grey">+w</text>
<text text-anchor="start" x="947.5" y="-837" font-family="Helvetica,sans-Serif" font-size="10.00" fill="grey">+x</text>
<text text-anchor="start" x="947.5" y="-822" font-family="Helvetica,sans-Serif" font-size="10.00" fill="grey">+y</text>
<text text-anchor="start" x="947.5" y="-807" font-family="Helvetica,sans-Serif" font-size="10.00" fill="grey">+z</text>
</g>
<!-- Node14&#45;&gt;Node16 -->
<g id="edge21_Node000016_Node000014" class="edge">
<title>Node14&#45;&gt;Node16</title>
<g id="a_edge21_Node000016_Node000014"><a xlink:title=" ">
<path fill="none" stroke="#63b8ff" d="M819.84,-906.39C794.01,-900.82 748.32,-888.06 717.5,-863 692.06,-842.31 699.16,-825.62 677.5,-801 672.93,-795.8 667.87,-790.67 662.63,-785.74"/>
<polygon fill="none" stroke="#63b8ff" points="662.61,-785.72 655.48,-784.66 653.72,-777.67 660.85,-778.73 662.61,-785.72"/>
</a>
</g>
<text text-anchor="start" x="720.5" y="-844" font-family="Helvetica,sans-Serif" font-size="10.00" fill="grey">+x</text>
<text text-anchor="start" x="720.5" y="-829" font-family="Helvetica,sans-Serif" font-size="10.00" fill="grey">+y</text>
<text text-anchor="start" x="720.5" y="-814" font-family="Helvetica,sans-Serif" font-size="10.00" fill="grey">+z</text>
</g>
<!-- Node15&#45;&gt;Node12 -->
<g id="edge16_Node000012_Node000015" class="edge">
<title>Node15&#45;&gt;Node12</title>
<g id="a_edge16_Node000012_Node000015"><a xlink:title=" ">
<path fill="none" stroke="#63b8ff" d="M884.75,-703.78C875.4,-692.5 865.1,-680.21 855.5,-669 853.11,-666.21 850.63,-663.34 848.13,-660.46"/>
<polygon fill="none" stroke="#63b8ff" points="847.99,-660.3 841.03,-658.41 840.09,-651.26 847.05,-653.15 847.99,-660.3"/>
</a>
</g>
<text text-anchor="start" x="871.5" y="-674.5" font-family="Helvetica,sans-Serif" font-size="10.00" fill="grey">+orientation</text>
</g>
<!-- Node16&#45;&gt;Node3 -->
<g id="edge20_Node000003_Node000016" class="edge">
<title>Node16&#45;&gt;Node3</title>
<g id="a_edge20_Node000003_Node000016"><a xlink:title=" ">
<path fill="none" stroke="#63b8ff" d="M602.11,-703.97C595.84,-669.24 589.59,-616.88 597.5,-572 609.32,-504.88 636.85,-432.37 659.4,-380.36"/>
<polygon fill="none" stroke="#63b8ff" points="659.46,-380.24 658.21,-373.13 664.28,-369.25 665.53,-376.35 659.46,-380.24"/>
</a>
</g>
<text text-anchor="start" x="600.5" y="-608.5" font-family="Helvetica,sans-Serif" font-size="10.00" fill="grey">+scale</text>
</g>
<!-- Node17&#45;&gt;Node3 -->
<g id="edge23_Node000003_Node000017" class="edge">
<title>Node17&#45;&gt;Node3</title>
<g id="a_edge23_Node000003_Node000017"><a xlink:title=" ">
<path fill="none" stroke="#63b8ff" d="M398.65,-703.8C408.29,-632.24 438.4,-478.22 525.5,-387 551.68,-359.58 589.27,-340.68 622.26,-328.26"/>
<polygon fill="none" stroke="#63b8ff" points="622.42,-328.2 626.71,-322.4 633.71,-324.13 629.42,-329.93 622.42,-328.2"/>
</a>
</g>
<text text-anchor="start" x="429.5" y="-608.5" font-family="Helvetica,sans-Serif" font-size="10.00" fill="grey">+color</text>
</g>
<!-- Node22 -->
<g id="Node000022" class="node">
<title>Node22</title>
<g id="a_Node000022"><a xlink:title=" ">
<polygon fill="white" stroke="transparent" points="358.5,-641.5 256.5,-641.5 256.5,-581.5 358.5,-581.5 358.5,-641.5"/>
<text text-anchor="start" x="261.5" y="-629.5" font-family="Helvetica,sans-Serif" font-size="10.00">std::vector&lt; rm::msg</text>
<text text-anchor="start" x="274" y="-618.5" font-family="Helvetica,sans-Serif" font-size="10.00">::ColorRGBA &gt;</text>
<text text-anchor="start" x="305.5" y="-603.5" font-family="Helvetica,sans-Serif" font-size="10.00"> </text>
<text text-anchor="start" x="305.5" y="-588.5" font-family="Helvetica,sans-Serif" font-size="10.00"> </text>
<polygon fill="#666666" stroke="#666666" points="256.5,-613.5 256.5,-613.5 358.5,-613.5 358.5,-613.5 256.5,-613.5"/>
<polygon fill="#666666" stroke="#666666" points="256.5,-598.5 256.5,-598.5 358.5,-598.5 358.5,-598.5 256.5,-598.5"/>
<polygon fill="none" stroke="#666666" points="256.5,-581.5 256.5,-641.5 358.5,-641.5 358.5,-581.5 256.5,-581.5"/>
</a>
</g>
</g>
<!-- Node17&#45;&gt;Node22 -->
<g id="edge31_Node000022_Node000017" class="edge">
<title>Node17&#45;&gt;Node22</title>
<g id="a_edge31_Node000022_Node000017"><a xlink:title=" ">
<path fill="none" stroke="#63b8ff" d="M342.98,-703.95C337.57,-698.37 332.57,-692.35 328.5,-686 322.24,-676.24 317.8,-664.58 314.68,-653.45"/>
<polygon fill="none" stroke="#63b8ff" points="314.65,-653.35 309.33,-648.48 311.78,-641.7 317.1,-646.57 314.65,-653.35"/>
</a>
</g>
<text text-anchor="start" x="331.5" y="-674.5" font-family="Helvetica,sans-Serif" font-size="10.00" fill="grey">+elements</text>
</g>
<!-- Node18 -->
<g id="Node000018" class="node">
<title>Node18</title>
<g id="a_Node000018"><a xlink:title=" ">
<polygon fill="white" stroke="transparent" points="409,-935.5 380,-935.5 380,-886.5 409,-886.5 409,-935.5"/>
<text text-anchor="start" x="385.5" y="-923" font-family="Helvetica,sans-Serif" font-size="10.00">float</text>
<text text-anchor="start" x="393" y="-908" font-family="Helvetica,sans-Serif" font-size="10.00"> </text>
<text text-anchor="start" x="393" y="-893" font-family="Helvetica,sans-Serif" font-size="10.00"> </text>
<polygon fill="#666666" stroke="#666666" points="380.5,-918 380.5,-918 409.5,-918 409.5,-918 380.5,-918"/>
<polygon fill="#666666" stroke="#666666" points="380.5,-903 380.5,-903 409.5,-903 409.5,-903 380.5,-903"/>
<polygon fill="none" stroke="#666666" points="380,-886.5 380,-935.5 409,-935.5 409,-886.5 380,-886.5"/>
</a>
</g>
</g>
<!-- Node18&#45;&gt;Node17 -->
<g id="edge24_Node000017_Node000018" class="edge">
<title>Node18&#45;&gt;Node17</title>
<g id="a_edge24_Node000017_Node000018"><a xlink:title=" ">
<path fill="none" stroke="#63b8ff" d="M394.5,-886.29C394.5,-862.64 394.5,-825.58 394.5,-795.27"/>
<polygon fill="none" stroke="#63b8ff" points="394.5,-795.19 390.5,-789.19 394.5,-783.19 398.5,-789.19 394.5,-795.19"/>
</a>
</g>
<text text-anchor="start" x="397.5" y="-852" font-family="Helvetica,sans-Serif" font-size="10.00" fill="grey">+a</text>
<text text-anchor="start" x="397.5" y="-837" font-family="Helvetica,sans-Serif" font-size="10.00" fill="grey">+b</text>
<text text-anchor="start" x="397.5" y="-822" font-family="Helvetica,sans-Serif" font-size="10.00" fill="grey">+g</text>
<text text-anchor="start" x="397.5" y="-807" font-family="Helvetica,sans-Serif" font-size="10.00" fill="grey">+r</text>
</g>
<!-- Node19&#45;&gt;Node3 -->
<g id="edge26_Node000003_Node000019" class="edge">
<title>Node19&#45;&gt;Node3</title>
<g id="a_edge26_Node000003_Node000019"><a xlink:title=" ">
<path fill="none" stroke="#63b8ff" d="M693.5,-581.5C693.5,-535.79 693.5,-445.6 693.5,-381.29"/>
<polygon fill="none" stroke="#63b8ff" points="693.5,-381.2 689.5,-375.2 693.5,-369.2 697.5,-375.2 693.5,-381.2"/>
</a>
</g>
<text text-anchor="start" x="697" y="-467.5" font-family="Helvetica,sans-Serif" font-size="10.00" fill="grey">+points</text>
</g>
<!-- Node20 -->
<g id="Node000020" class="node">
<title>Node20</title>
<g id="a_Node000020"><a xlink:title=" ">
<polygon fill="white" stroke="transparent" points="210,-768 129,-768 129,-719 210,-719 210,-768"/>
<text text-anchor="start" x="134.5" y="-755.5" font-family="Helvetica,sans-Serif" font-size="10.00">std::vector&lt; T &gt;</text>
<text text-anchor="start" x="168" y="-740.5" font-family="Helvetica,sans-Serif" font-size="10.00"> </text>
<text text-anchor="start" x="168" y="-725.5" font-family="Helvetica,sans-Serif" font-size="10.00"> </text>
<polygon fill="#666666" stroke="#666666" points="129.5,-750.5 129.5,-750.5 210.5,-750.5 210.5,-750.5 129.5,-750.5"/>
<polygon fill="#666666" stroke="#666666" points="129.5,-735.5 129.5,-735.5 210.5,-735.5 210.5,-735.5 129.5,-735.5"/>
<polygon fill="none" stroke="#666666" points="129,-719 129,-768 210,-768 210,-719 129,-719"/>
</a>
</g>
</g>
<!-- Node20&#45;&gt;Node2 -->
<g id="edge34_Node000002_Node000020" class="edge">
<title>Node20&#45;&gt;Node2</title>
<g id="a_edge34_Node000002_Node000020"><a xlink:title=" ">
<path fill="none" stroke="orange" d="M168.62,-708.42C165.91,-603.94 157.77,-289.35 155.25,-192.02"/>
<polygon fill="orange" stroke="orange" points="165.13,-708.8 168.88,-718.7 172.12,-708.62 165.13,-708.8"/>
</a>
</g>
<text text-anchor="start" x="169" y="-467.5" font-family="Helvetica,sans-Serif" font-size="10.00" fill="grey">&lt; rm::msg::Marker &gt;</text>
</g>
<!-- Node20&#45;&gt;Node19 -->
<g id="edge28_Node000019_Node000020" class="edge">
<title>Node20&#45;&gt;Node19</title>
<g id="a_edge28_Node000019_Node000020"><a xlink:title=" ">
<path fill="none" stroke="orange" d="M220.16,-730.88C264.02,-720.42 328.97,-703.96 384.5,-686 404.45,-679.55 408.08,-673.76 428.5,-669 515.41,-648.72 543.57,-678.42 628.5,-651 635.86,-648.62 643.29,-645.3 650.35,-641.58"/>
<polygon fill="orange" stroke="orange" points="219.23,-727.5 210.31,-733.21 220.85,-734.31 219.23,-727.5"/>
</a>
</g>
<text text-anchor="start" x="432" y="-674.5" font-family="Helvetica,sans-Serif" font-size="10.00" fill="grey">&lt; rm::msg::Point &gt;</text>
</g>
<!-- Node20&#45;&gt;Node22 -->
<g id="edge32_Node000022_Node000020" class="edge">
<title>Node20&#45;&gt;Node22</title>
<g id="a_edge32_Node000022_Node000020"><a xlink:title=" ">
<path fill="none" stroke="orange" d="M177.14,-709.07C181.58,-695.41 188.37,-680.23 198.5,-669 214.07,-651.75 236.14,-638.95 256.35,-629.93"/>
<polygon fill="orange" stroke="orange" points="173.79,-708.08 174.31,-718.66 180.5,-710.06 173.79,-708.08"/>
</a>
</g>
<text text-anchor="start" x="201.5" y="-674.5" font-family="Helvetica,sans-Serif" font-size="10.00" fill="grey">&lt; rm::msg::ColorRGBA &gt;</text>
</g>
<!-- Node21 -->
<g id="Node000021" class="node">
<title>Node21</title>
<g id="a_Node000021"><a xlink:title=" ">
<polygon fill="white" stroke="transparent" points="17,-935.5 0,-935.5 0,-886.5 17,-886.5 17,-935.5"/>
<text text-anchor="start" x="5.5" y="-923" font-family="Helvetica,sans-Serif" font-size="10.00">T</text>
<text text-anchor="start" x="7" y="-908" font-family="Helvetica,sans-Serif" font-size="10.00"> </text>
<text text-anchor="start" x="7" y="-893" font-family="Helvetica,sans-Serif" font-size="10.00"> </text>
<polygon fill="#666666" stroke="#666666" points="0.5,-918 0.5,-918 17.5,-918 17.5,-918 0.5,-918"/>
<polygon fill="#666666" stroke="#666666" points="0.5,-903 0.5,-903 17.5,-903 17.5,-903 0.5,-903"/>
<polygon fill="none" stroke="#666666" points="0,-886.5 0,-935.5 17,-935.5 17,-886.5 0,-886.5"/>
</a>
</g>
</g>
<!-- Node21&#45;&gt;Node20 -->
<g id="edge29_Node000020_Node000021" class="edge">
<title>Node21&#45;&gt;Node20</title>
<g id="a_edge29_Node000020_Node000021"><a xlink:title=" ">
<path fill="none" stroke="#63b8ff" d="M17.16,-901.1C39.53,-878.1 100.15,-815.78 137.83,-777.05"/>
<polygon fill="none" stroke="#63b8ff" points="138.05,-776.82 139.37,-769.73 146.42,-768.22 145.11,-775.31 138.05,-776.82"/>
</a>
</g>
<text text-anchor="start" x="116.5" y="-829" font-family="Helvetica,sans-Serif" font-size="10.00" fill="grey">+elements</text>
</g>
<!-- Node22&#45;&gt;Node3 -->
<g id="edge30_Node000003_Node000022" class="edge">
<title>Node22&#45;&gt;Node3</title>
<g id="a_edge30_Node000003_Node000022"><a xlink:title=" ">
<path fill="none" stroke="#63b8ff" d="M302.57,-581.48C296.32,-534.18 291.71,-440.39 341.5,-387 378.96,-346.83 530.29,-324.62 621.9,-314.62"/>
<polygon fill="none" stroke="#63b8ff" points="621.93,-314.62 627.47,-310 633.86,-313.35 628.32,-317.96 621.93,-314.62"/>
</a>
</g>
<text text-anchor="start" x="345" y="-467.5" font-family="Helvetica,sans-Serif" font-size="10.00" fill="grey">+colors</text>
</g>
</g>
</svg>
