<?xml version="1.0" encoding="UTF-8" standalone="no"?>
<!DOCTYPE svg PUBLIC "-//W3C//DTD SVG 1.1//EN"
 "http://www.w3.org/Graphics/SVG/1.1/DTD/svg11.dtd">
<!-- Generated by graphviz version 2.43.0 (0)
 -->
<!-- Title: rm::para::CameraParam Pages: 1 -->
<svg width="276pt" height="175pt"
 viewBox="0.00 0.00 275.50 175.00" xmlns="http://www.w3.org/2000/svg" xmlns:xlink="http://www.w3.org/1999/xlink">
<g id="graph0" class="graph" transform="scale(1 1) rotate(0) translate(4 171)">
<title>rm::para::CameraParam</title>
<!-- Node1 -->
<g id="Node000001" class="node">
<title>Node1</title>
<g id="a_Node000001"><a xlink:title="CameraParam 参数模块">
<polygon fill="#999999" stroke="transparent" points="157,-49 30,-49 30,0 157,0 157,-49"/>
<text text-anchor="start" x="35.5" y="-36.5" font-family="Helvetica,sans-Serif" font-size="10.00">rm::para::CameraParam</text>
<text text-anchor="start" x="92" y="-21.5" font-family="Helvetica,sans-Serif" font-size="10.00"> </text>
<text text-anchor="start" x="53.5" y="-6.5" font-family="Helvetica,sans-Serif" font-size="10.00">+</text>
<text text-anchor="start" x="85.5" y="-6.5" font-family="Helvetica,sans-Serif" font-size="10.00">load()</text>
<polygon fill="#666666" stroke="#666666" points="30.5,-31.5 30.5,-31.5 157.5,-31.5 157.5,-31.5 30.5,-31.5"/>
<polygon fill="#666666" stroke="#666666" points="30.5,-16.5 30.5,-16.5 157.5,-16.5 157.5,-16.5 30.5,-16.5"/>
<polygon fill="none" stroke="#666666" points="30,0 30,-49 157,-49 157,0 30,0"/>
</a>
</g>
</g>
<!-- Node2 -->
<g id="Node000002" class="node">
<title>Node2</title>
<g id="a_Node000002"><a xlink:title=" ">
<polygon fill="white" stroke="transparent" points="23,-167 0,-167 0,-118 23,-118 23,-167"/>
<text text-anchor="start" x="5.5" y="-154.5" font-family="Helvetica,sans-Serif" font-size="10.00">int</text>
<text text-anchor="start" x="10" y="-139.5" font-family="Helvetica,sans-Serif" font-size="10.00"> </text>
<text text-anchor="start" x="10" y="-124.5" font-family="Helvetica,sans-Serif" font-size="10.00"> </text>
<polygon fill="#666666" stroke="#666666" points="0.5,-149.5 0.5,-149.5 23.5,-149.5 23.5,-149.5 0.5,-149.5"/>
<polygon fill="#666666" stroke="#666666" points="0.5,-134.5 0.5,-134.5 23.5,-134.5 23.5,-134.5 0.5,-134.5"/>
<polygon fill="none" stroke="#666666" points="0,-118 0,-167 23,-167 23,-118 0,-118"/>
</a>
</g>
</g>
<!-- Node2&#45;&gt;Node1 -->
<g id="edge1_Node000001_Node000002" class="edge">
<title>Node2&#45;&gt;Node1</title>
<g id="a_edge1_Node000001_Node000002"><a xlink:title=" ">
<path fill="none" stroke="#63b8ff" d="M14.72,-117.9C17.77,-102.28 23.6,-82 34.5,-67 37.01,-63.55 39.89,-60.29 43,-57.22"/>
<polygon fill="none" stroke="#63b8ff" points="43.25,-57.01 45.13,-50.04 52.27,-49.1 50.4,-56.06 43.25,-57.01"/>
</a>
</g>
<text text-anchor="middle" x="62" y="-92" font-family="Helvetica,sans-Serif" font-size="10.00" fill="grey"> +EULER_0</text>
<text text-anchor="middle" x="62" y="-81" font-family="Helvetica,sans-Serif" font-size="10.00" fill="grey">+EULER_1</text>
<text text-anchor="middle" x="62" y="-70" font-family="Helvetica,sans-Serif" font-size="10.00" fill="grey">+EULER_2</text>
</g>
<!-- Node3 -->
<g id="Node000003" class="node">
<title>Node3</title>
<g id="a_Node000003"><a xlink:title=" ">
<polygon fill="white" stroke="transparent" points="145.5,-167 41.5,-167 41.5,-118 145.5,-118 145.5,-167"/>
<text text-anchor="start" x="46.5" y="-154.5" font-family="Helvetica,sans-Serif" font-size="10.00">Matx&lt; float, 3, 3 &gt;</text>
<text text-anchor="start" x="91.5" y="-139.5" font-family="Helvetica,sans-Serif" font-size="10.00"> </text>
<text text-anchor="start" x="91.5" y="-124.5" font-family="Helvetica,sans-Serif" font-size="10.00"> </text>
<polygon fill="#666666" stroke="#666666" points="41.5,-149.5 41.5,-149.5 145.5,-149.5 145.5,-149.5 41.5,-149.5"/>
<polygon fill="#666666" stroke="#666666" points="41.5,-134.5 41.5,-134.5 145.5,-134.5 145.5,-134.5 41.5,-134.5"/>
<polygon fill="none" stroke="#666666" points="41.5,-118 41.5,-167 145.5,-167 145.5,-118 41.5,-118"/>
</a>
</g>
</g>
<!-- Node3&#45;&gt;Node1 -->
<g id="edge2_Node000001_Node000003" class="edge">
<title>Node3&#45;&gt;Node1</title>
<g id="a_edge2_Node000001_Node000003"><a xlink:title=" ">
<path fill="none" stroke="#63b8ff" d="M93.5,-117.75C93.5,-101.48 93.5,-79.62 93.5,-61.26"/>
<polygon fill="none" stroke="#63b8ff" points="93.5,-61.22 89.5,-55.22 93.5,-49.22 97.5,-55.22 93.5,-61.22"/>
</a>
</g>
<text text-anchor="middle" x="133.5" y="-81" font-family="Helvetica,sans-Serif" font-size="10.00" fill="grey"> +cameraMatrix</text>
</g>
<!-- Node4 -->
<g id="Node000004" class="node">
<title>Node4</title>
<g id="a_Node000004"><a xlink:title=" ">
<polygon fill="white" stroke="transparent" points="267.5,-167 163.5,-167 163.5,-118 267.5,-118 267.5,-167"/>
<text text-anchor="start" x="168.5" y="-154.5" font-family="Helvetica,sans-Serif" font-size="10.00">Matx&lt; float, 5, 1 &gt;</text>
<text text-anchor="start" x="213.5" y="-139.5" font-family="Helvetica,sans-Serif" font-size="10.00"> </text>
<text text-anchor="start" x="213.5" y="-124.5" font-family="Helvetica,sans-Serif" font-size="10.00"> </text>
<polygon fill="#666666" stroke="#666666" points="163.5,-149.5 163.5,-149.5 267.5,-149.5 267.5,-149.5 163.5,-149.5"/>
<polygon fill="#666666" stroke="#666666" points="163.5,-134.5 163.5,-134.5 267.5,-134.5 267.5,-134.5 163.5,-134.5"/>
<polygon fill="none" stroke="#666666" points="163.5,-118 163.5,-167 267.5,-167 267.5,-118 163.5,-118"/>
</a>
</g>
</g>
<!-- Node4&#45;&gt;Node1 -->
<g id="edge3_Node000001_Node000004" class="edge">
<title>Node4&#45;&gt;Node1</title>
<g id="a_edge3_Node000001_Node000004"><a xlink:title=" ">
<path fill="none" stroke="#63b8ff" d="M207.94,-117.93C201.83,-101.92 191.86,-81.18 177.5,-67 173.38,-62.93 168.77,-59.19 163.91,-55.76"/>
<polygon fill="none" stroke="#63b8ff" points="163.71,-55.64 156.5,-55.77 153.61,-49.17 160.82,-49.04 163.71,-55.64"/>
</a>
</g>
<text text-anchor="middle" x="229" y="-81" font-family="Helvetica,sans-Serif" font-size="10.00" fill="grey"> +distCoeffs</text>
</g>
</g>
</svg>
