<?xml version="1.0" encoding="UTF-8" standalone="no"?>
<!DOCTYPE svg PUBLIC "-//W3C//DTD SVG 1.1//EN"
 "http://www.w3.org/Graphics/SVG/1.1/DTD/svg11.dtd">
<!-- Generated by graphviz version 14.1.2 (0)
 -->
<!-- Title: rm::ua::Server Pages: 1 -->
<svg width="214pt" height="356pt"
 viewBox="0.00 0.00 214.00 356.00" xmlns="http://www.w3.org/2000/svg" xmlns:xlink="http://www.w3.org/1999/xlink">
<g id="graph0" class="graph" transform="scale(1 1) rotate(0) translate(4 351.75)">
<title>rm::ua::Server</title>
<!-- Node1 -->
<g id="Node000001" class="node">
<title>Node1</title>
<g id="a_Node000001"><a xlink:title="OPC UA 服务器">
<polygon fill="#999999" stroke="none" points="168,-347.75 34.5,-347.75 34.5,-107 168,-107 168,-347.75"/>
<text xml:space="preserve" text-anchor="start" x="66.75" y="-334.25" font-family="Helvetica,sans-Serif" font-size="10.00">rm::ua::Server</text>
<text xml:space="preserve" text-anchor="start" x="38.5" y="-317.5" font-family="Helvetica,sans-Serif" font-size="10.00">#</text>
<text xml:space="preserve" text-anchor="start" x="50.75" y="-317.5" font-family="Helvetica,sans-Serif" font-size="10.00">_server</text>
<text xml:space="preserve" text-anchor="start" x="38.5" y="-300.75" font-family="Helvetica,sans-Serif" font-size="10.00">#</text>
<text xml:space="preserve" text-anchor="start" x="50.75" y="-300.75" font-family="Helvetica,sans-Serif" font-size="10.00">_running</text>
<text xml:space="preserve" text-anchor="start" x="38.5" y="-284" font-family="Helvetica,sans-Serif" font-size="10.00">+</text>
<text xml:space="preserve" text-anchor="start" x="50.75" y="-284" font-family="Helvetica,sans-Serif" font-size="10.00">Server()</text>
<text xml:space="preserve" text-anchor="start" x="38.5" y="-267.25" font-family="Helvetica,sans-Serif" font-size="10.00">+</text>
<text xml:space="preserve" text-anchor="start" x="50.75" y="-267.25" font-family="Helvetica,sans-Serif" font-size="10.00">Server()</text>
<text xml:space="preserve" text-anchor="start" x="38.5" y="-250.5" font-family="Helvetica,sans-Serif" font-size="10.00">+</text>
<text xml:space="preserve" text-anchor="start" x="50.75" y="-250.5" font-family="Helvetica,sans-Serif" font-size="10.00">operator ServerView()</text>
<text xml:space="preserve" text-anchor="start" x="38.5" y="-233.75" font-family="Helvetica,sans-Serif" font-size="10.00">+</text>
<text xml:space="preserve" text-anchor="start" x="50.75" y="-233.75" font-family="Helvetica,sans-Serif" font-size="10.00">spin()</text>
<text xml:space="preserve" text-anchor="start" x="38.5" y="-217" font-family="Helvetica,sans-Serif" font-size="10.00">+</text>
<text xml:space="preserve" text-anchor="start" x="50.75" y="-217" font-family="Helvetica,sans-Serif" font-size="10.00">spinOnce()</text>
<text xml:space="preserve" text-anchor="start" x="38.5" y="-200.25" font-family="Helvetica,sans-Serif" font-size="10.00">+</text>
<text xml:space="preserve" text-anchor="start" x="50.75" y="-200.25" font-family="Helvetica,sans-Serif" font-size="10.00">shutdown()</text>
<text xml:space="preserve" text-anchor="start" x="38.5" y="-183.5" font-family="Helvetica,sans-Serif" font-size="10.00">+</text>
<text xml:space="preserve" text-anchor="start" x="50.75" y="-183.5" font-family="Helvetica,sans-Serif" font-size="10.00">~Server()</text>
<text xml:space="preserve" text-anchor="start" x="38.5" y="-166.75" font-family="Helvetica,sans-Serif" font-size="10.00">+</text>
<text xml:space="preserve" text-anchor="start" x="50.75" y="-166.75" font-family="Helvetica,sans-Serif" font-size="10.00">node()</text>
<text xml:space="preserve" text-anchor="start" x="38.5" y="-150" font-family="Helvetica,sans-Serif" font-size="10.00">+</text>
<text xml:space="preserve" text-anchor="start" x="50.75" y="-150" font-family="Helvetica,sans-Serif" font-size="10.00">find()</text>
<text xml:space="preserve" text-anchor="start" x="38.5" y="-133.25" font-family="Helvetica,sans-Serif" font-size="10.00">+</text>
<text xml:space="preserve" text-anchor="start" x="50.75" y="-133.25" font-family="Helvetica,sans-Serif" font-size="10.00">addVariableTypeNode()</text>
<text xml:space="preserve" text-anchor="start" x="50.75" y="-116.5" font-family="Helvetica,sans-Serif" font-size="10.00">和 12 更多...</text>
<polygon fill="#666666" stroke="#666666" points="34.5,-329 34.5,-329 168,-329 168,-329 34.5,-329"/>
<polygon fill="#666666" stroke="#666666" points="34.5,-295.5 34.5,-295.5 48.75,-295.5 48.75,-295.5 34.5,-295.5"/>
<polygon fill="#666666" stroke="#666666" points="48.75,-295.5 48.75,-295.5 168,-295.5 168,-295.5 48.75,-295.5"/>
<polygon fill="none" stroke="#666666" points="34.5,-107 34.5,-347.75 168,-347.75 168,-107 34.5,-107"/>
</a>
</g>
</g>
<!-- Node2 -->
<g id="Node000002" class="node">
<title>Node2</title>
<g id="a_Node000002"><a xlink:href="../../d9/d4d/classrm_1_1ua_1_1Publisher.html" target="_top" xlink:title="OPC UA 发布者">
<polygon fill="white" stroke="none" points="90.5,-71 0,-71 0,0 90.5,0 90.5,-71"/>
<text xml:space="preserve" text-anchor="start" x="4" y="-57.5" font-family="Helvetica,sans-Serif" font-size="10.00">rm::ua::Publisher</text>
<text xml:space="preserve" text-anchor="start" x="43.75" y="-40.75" font-family="Helvetica,sans-Serif" font-size="10.00"> </text>
<text xml:space="preserve" text-anchor="start" x="8.44" y="-24" font-family="Helvetica,sans-Serif" font-size="10.00">+</text>
<text xml:space="preserve" text-anchor="start" x="25.12" y="-24" font-family="Helvetica,sans-Serif" font-size="10.00">Publisher()</text>
<text xml:space="preserve" text-anchor="start" x="8.44" y="-7.25" font-family="Helvetica,sans-Serif" font-size="10.00">+</text>
<text xml:space="preserve" text-anchor="start" x="25.12" y="-7.25" font-family="Helvetica,sans-Serif" font-size="10.00">publish()</text>
<polygon fill="#666666" stroke="#666666" points="0,-52.25 0,-52.25 90.5,-52.25 90.5,-52.25 0,-52.25"/>
<polygon fill="#666666" stroke="#666666" points="0,-35.5 0,-35.5 90.5,-35.5 90.5,-35.5 0,-35.5"/>
<polygon fill="none" stroke="#666666" points="0,0 0,-71 90.5,-71 90.5,0 0,0"/>
</a>
</g>
</g>
<!-- Node1&#45;&gt;Node2 -->
<g id="edge1_Node000001_Node000002" class="edge">
<title>Node1&#45;&gt;Node2</title>
<g id="a_edge1_Node000001_Node000002"><a xlink:title=" ">
<path fill="none" stroke="#63b8ff" d="M62.89,-96.32C60.21,-87.22 57.67,-78.63 55.41,-70.94"/>
<polygon fill="none" stroke="#63b8ff" points="59.49,-97.15 65.67,-105.75 66.2,-95.17 59.49,-97.15"/>
</a>
</g>
</g>
<!-- Node3 -->
<g id="Node000003" class="node">
<title>Node3</title>
<g id="a_Node000003"><a xlink:href="../../d8/d2f/classrm_1_1ua_1_1Subscriber.html" target="_top" xlink:title="OPC UA 订阅者">
<polygon fill="white" stroke="none" points="205.5,-71 109,-71 109,0 205.5,0 205.5,-71"/>
<text xml:space="preserve" text-anchor="start" x="113" y="-57.5" font-family="Helvetica,sans-Serif" font-size="10.00">rm::ua::Subscriber</text>
<text xml:space="preserve" text-anchor="start" x="155.75" y="-40.75" font-family="Helvetica,sans-Serif" font-size="10.00"> </text>
<text xml:space="preserve" text-anchor="start" x="117.44" y="-24" font-family="Helvetica,sans-Serif" font-size="10.00">+</text>
<text xml:space="preserve" text-anchor="start" x="134.12" y="-24" font-family="Helvetica,sans-Serif" font-size="10.00">Subscriber()</text>
<text xml:space="preserve" text-anchor="start" x="117.44" y="-7.25" font-family="Helvetica,sans-Serif" font-size="10.00">+</text>
<text xml:space="preserve" text-anchor="start" x="134.12" y="-7.25" font-family="Helvetica,sans-Serif" font-size="10.00">subscribe()</text>
<polygon fill="#666666" stroke="#666666" points="109,-52.25 109,-52.25 205.5,-52.25 205.5,-52.25 109,-52.25"/>
<polygon fill="#666666" stroke="#666666" points="109,-35.5 109,-35.5 205.5,-35.5 205.5,-35.5 109,-35.5"/>
<polygon fill="none" stroke="#666666" points="109,0 109,-71 205.5,-71 205.5,0 109,0"/>
</a>
</g>
</g>
<!-- Node1&#45;&gt;Node3 -->
<g id="edge2_Node000001_Node000003" class="edge">
<title>Node1&#45;&gt;Node3</title>
<g id="a_edge2_Node000001_Node000003"><a xlink:title=" ">
<path fill="none" stroke="#63b8ff" d="M139.61,-96.32C142.29,-87.22 144.83,-78.63 147.09,-70.94"/>
<polygon fill="none" stroke="#63b8ff" points="136.3,-95.17 136.83,-105.75 143.01,-97.15 136.3,-95.17"/>
</a>
</g>
</g>
</g>
</svg>
