<?xml version="1.0" encoding="UTF-8" standalone="no"?>
<!DOCTYPE svg PUBLIC "-//W3C//DTD SVG 1.1//EN"
 "http://www.w3.org/Graphics/SVG/1.1/DTD/svg11.dtd">
<!-- Generated by graphviz version 2.43.0 (0)
 -->
<!-- Title: rmvl/combo/armor.h Pages: 1 -->
<!--zoomable 258 -->

<svg id="main" version="1.1" xmlns="http://www.w3.org/2000/svg" xmlns:xlink="http://www.w3.org/1999/xlink" xml:space="preserve" onload="init(evt)">

<style type="text/css"><![CDATA[
.node, .edge {opacity: 0.7;}
.node.selected, .edge.selected {opacity: 1;}
.edge:hover path { stroke: red; }
.edge:hover polygon { stroke: red; fill: red; }
]]></style>

<defs>
  <circle id="rim" cx="0" cy="0" r="7"/>
  <circle id="rim2" cx="0" cy="0" r="3.5"/>
  <g id="zoomPlus">
    <use xlink:href="#rim" fill="#404040"><set attributeName="fill" to="#808080" begin="zoomplus.mouseover" end="zoomplus.mouseout"/></use>
    <path d="M-4,0h8M0,-4v8" fill="none" stroke="white" stroke-width="1.5" pointer-events="none"/>
  </g>
  <g id="zoomMin">
    <use xlink:href="#rim" fill="#404040"><set attributeName="fill" to="#808080" begin="zoomminus.mouseover" end="zoomminus.mouseout"/></use>
    <path d="M-4,0h8" fill="none" stroke="white" stroke-width="1.5" pointer-events="none"/>
  </g>
  <g id="arrowUp" transform="translate(30 24)">
    <use xlink:href="#rim"/>
    <path pointer-events="none" fill="none" stroke="white" stroke-width="1.5" d="M0,-3.0v7 M-2.5,-0.5L0,-3.0L2.5,-0.5"/>
  </g>
  <g id="arrowRight" transform="rotate(90) translate(36 -43)">
    <use xlink:href="#rim"/>
    <path pointer-events="none" fill="none" stroke="white" stroke-width="1.5" d="M0,-3.0v7 M-2.5,-0.5L0,-3.0L2.5,-0.5"/>
  </g>
  <g id="arrowDown" transform="rotate(180) translate(-30 -48)">
    <use xlink:href="#rim"/>
    <path pointer-events="none" fill="none" stroke="white" stroke-width="1.5" d="M0,-3.0v7 M-2.5,-0.5L0,-3.0L2.5,-0.5"/>
  </g>
  <g id="arrowLeft" transform="rotate(270) translate(-36 17)">
    <use xlink:href="#rim"/>
    <path pointer-events="none" fill="none" stroke="white" stroke-width="1.5" d="M0,-3.0v7 M-2.5,-0.5L0,-3.0L2.5,-0.5"/>
  </g>
  <g id="resetDef">
    <use xlink:href="#rim2" fill="#404040"><set attributeName="fill" to="#808080" begin="reset.mouseover" end="reset.mouseout"/></use>
  </g>
</defs>
<script type="application/ecmascript">
var viewWidth = 1285;
var viewHeight = 258;
var sectionId = 'dynsection-0';
</script>
<script type="application/ecmascript" xlink:href="../../svg.min.js"/>
<svg id="graph" class="graph">
<g id="viewport">
<title>rmvl/combo/armor.h</title>
<!-- Node1 -->
<g id="Node000001" class="node">
<title>Node1</title>
<g id="a_Node000001"><a xlink:title="装甲板类头文件">
<polygon fill="#999999" stroke="#666666" points="853.5,-250 750.5,-250 750.5,-231 853.5,-231 853.5,-250"/>
<text text-anchor="middle" x="802" y="-238" font-family="Helvetica,sans-Serif" font-size="10.00">rmvl/combo/armor.h</text>
</a>
</g>
</g>
<!-- Node2 -->
<g id="Node000002" class="node">
<title>Node2</title>
<g id="a_Node000002"><a xlink:title=" ">
<polygon fill="#e0e0e0" stroke="#999999" points="757,-189.5 671,-189.5 671,-170.5 757,-170.5 757,-189.5"/>
<text text-anchor="middle" x="714" y="-177.5" font-family="Helvetica,sans-Serif" font-size="10.00">opencv2/ml.hpp</text>
</a>
</g>
</g>
<!-- Node1&#45;&gt;Node2 -->
<g id="edge1_Node000001_Node000002" class="edge">
<title>Node1&#45;&gt;Node2</title>
<g id="a_edge1_Node000001_Node000002"><a xlink:title=" ">
<path fill="none" stroke="#63b8ff" d="M789.02,-230.87C774.98,-221.54 752.37,-206.51 735.64,-195.38"/>
<polygon fill="#63b8ff" stroke="#63b8ff" points="737.3,-192.29 727.04,-189.67 733.43,-198.12 737.3,-192.29"/>
</a>
</g>
</g>
<!-- Node3 -->
<g id="Node000003" class="node">
<title>Node3</title>
<g id="a_Node000003"><a xlink:href="../../d8/d36/combo_8h.html" target="_top" xlink:title="the combination of the features header file">
<polygon fill="white" stroke="#666666" points="829,-189.5 775,-189.5 775,-170.5 829,-170.5 829,-189.5"/>
<text text-anchor="middle" x="802" y="-177.5" font-family="Helvetica,sans-Serif" font-size="10.00">combo.h</text>
</a>
</g>
</g>
<!-- Node1&#45;&gt;Node3 -->
<g id="edge2_Node000001_Node000003" class="edge">
<title>Node1&#45;&gt;Node3</title>
<g id="a_edge2_Node000001_Node000003"><a xlink:title=" ">
<path fill="none" stroke="#63b8ff" d="M802,-230.87C802,-222.75 802,-210.31 802,-199.89"/>
<polygon fill="#63b8ff" stroke="#63b8ff" points="805.5,-199.67 802,-189.67 798.5,-199.67 805.5,-199.67"/>
</a>
</g>
</g>
<!-- Node29 -->
<g id="Node000029" class="node">
<title>Node29</title>
<g id="a_Node000029"><a xlink:href="../../d4/d54/feature_2light__blob_8h.html" target="_top" xlink:title="灯条类头文件">
<polygon fill="white" stroke="#666666" points="986.5,-195 897.5,-195 897.5,-165 986.5,-165 986.5,-195"/>
<text text-anchor="start" x="905.5" y="-183" font-family="Helvetica,sans-Serif" font-size="10.00">rmvl/feature/light</text>
<text text-anchor="middle" x="942" y="-172" font-family="Helvetica,sans-Serif" font-size="10.00">_blob.h</text>
</a>
</g>
</g>
<!-- Node1&#45;&gt;Node29 -->
<g id="edge36_Node000001_Node000029" class="edge">
<title>Node1&#45;&gt;Node29</title>
<g id="a_edge36_Node000001_Node000029"><a xlink:title=" ">
<path fill="none" stroke="#63b8ff" d="M822.36,-230.99C842.33,-222.65 873.41,-209.66 898.89,-199.02"/>
<polygon fill="#63b8ff" stroke="#63b8ff" points="900.46,-202.15 908.34,-195.06 897.77,-195.69 900.46,-202.15"/>
</a>
</g>
</g>
<!-- Node4 -->
<g id="Node000004" class="node">
<title>Node4</title>
<g id="a_Node000004"><a xlink:href="../../d4/d78/math_8hpp.html" target="_top" xlink:title="基础数学库">
<polygon fill="white" stroke="#666666" points="324,-129 202,-129 202,-110 324,-110 324,-129"/>
<text text-anchor="middle" x="263" y="-117" font-family="Helvetica,sans-Serif" font-size="10.00">rmvl/algorithm/math.hpp</text>
</a>
</g>
</g>
<!-- Node3&#45;&gt;Node4 -->
<g id="edge3_Node000003_Node000004" class="edge">
<title>Node3&#45;&gt;Node4</title>
<g id="a_edge3_Node000003_Node000004"><a xlink:title=" ">
<path fill="none" stroke="#63b8ff" d="M782.89,-170.41C777.52,-168.32 771.62,-166.31 766,-165 615.12,-129.74 432.81,-121.96 334.4,-120.52"/>
<polygon fill="#63b8ff" stroke="#63b8ff" points="334.31,-117.01 324.27,-120.39 334.22,-124.01 334.31,-117.01"/>
</a>
</g>
</g>
<!-- Node17 -->
<g id="Node000017" class="node">
<title>Node17</title>
<g id="a_Node000017"><a xlink:href="../../d3/d7e/camutils_8hpp.html" target="_top" xlink:title="相机基本配置信息">
<polygon fill="white" stroke="#666666" points="706.5,-129 577.5,-129 577.5,-110 706.5,-110 706.5,-129"/>
<text text-anchor="middle" x="642" y="-117" font-family="Helvetica,sans-Serif" font-size="10.00">rmvl/camera/camutils.hpp</text>
</a>
</g>
</g>
<!-- Node3&#45;&gt;Node17 -->
<g id="edge16_Node000003_Node000017" class="edge">
<title>Node3&#45;&gt;Node17</title>
<g id="a_edge16_Node000003_Node000017"><a xlink:title=" ">
<path fill="none" stroke="#63b8ff" d="M780.33,-170.47C775.62,-168.64 770.65,-166.74 766,-165 735.68,-153.67 701,-141.27 676.03,-132.44"/>
<polygon fill="#63b8ff" stroke="#63b8ff" points="676.9,-129.04 666.3,-129.01 674.57,-135.64 676.9,-129.04"/>
</a>
</g>
</g>
<!-- Node19 -->
<g id="Node000019" class="node">
<title>Node19</title>
<g id="a_Node000019"><a xlink:href="../../d2/dc6/io_8hpp.html" target="_top" xlink:title="数据 IO 与通信模块">
<polygon fill="white" stroke="#666666" points="845,-129 759,-129 759,-110 845,-110 845,-129"/>
<text text-anchor="middle" x="802" y="-117" font-family="Helvetica,sans-Serif" font-size="10.00">rmvl/core/io.hpp</text>
</a>
</g>
</g>
<!-- Node3&#45;&gt;Node19 -->
<g id="edge19_Node000003_Node000019" class="edge">
<title>Node3&#45;&gt;Node19</title>
<g id="a_edge19_Node000003_Node000019"><a xlink:title=" ">
<path fill="none" stroke="#63b8ff" d="M802,-170.37C802,-162.25 802,-149.81 802,-139.39"/>
<polygon fill="#63b8ff" stroke="#63b8ff" points="805.5,-139.17 802,-129.17 798.5,-139.17 805.5,-139.17"/>
</a>
</g>
</g>
<!-- Node24 -->
<g id="Node000024" class="node">
<title>Node24</title>
<g id="a_Node000024"><a xlink:href="../../d2/d74/feature_8h.html" target="_top" xlink:title="feature class header">
<polygon fill="white" stroke="#666666" points="1048,-129 938,-129 938,-110 1048,-110 1048,-129"/>
<text text-anchor="middle" x="993" y="-117" font-family="Helvetica,sans-Serif" font-size="10.00">rmvl/feature/feature.h</text>
</a>
</g>
</g>
<!-- Node3&#45;&gt;Node24 -->
<g id="edge27_Node000003_Node000024" class="edge">
<title>Node3&#45;&gt;Node24</title>
<g id="a_edge27_Node000003_Node000024"><a xlink:title=" ">
<path fill="none" stroke="#63b8ff" d="M829.37,-170.62C862.37,-160.51 918.01,-143.47 955.12,-132.1"/>
<polygon fill="#63b8ff" stroke="#63b8ff" points="956.53,-135.33 965.06,-129.06 954.48,-128.64 956.53,-135.33"/>
</a>
</g>
</g>
<!-- Node5 -->
<g id="Node000005" class="node">
<title>Node5</title>
<g id="a_Node000005"><a xlink:title=" ">
<polygon fill="#e0e0e0" stroke="#999999" points="44,-74 0,-74 0,-55 44,-55 44,-74"/>
<text text-anchor="middle" x="22" y="-62" font-family="Helvetica,sans-Serif" font-size="10.00">cmath</text>
</a>
</g>
</g>
<!-- Node4&#45;&gt;Node5 -->
<g id="edge4_Node000004_Node000005" class="edge">
<title>Node4&#45;&gt;Node5</title>
<g id="a_edge4_Node000004_Node000005"><a xlink:title=" ">
<path fill="none" stroke="#63b8ff" d="M218.99,-109.96C178.55,-101.93 116.72,-89.22 54.33,-74.21"/>
<polygon fill="#63b8ff" stroke="#63b8ff" points="54.85,-70.74 44.31,-71.79 53.2,-77.54 54.85,-70.74"/>
</a>
</g>
</g>
<!-- Node6 -->
<g id="Node000006" class="node">
<title>Node6</title>
<g id="a_Node000006"><a xlink:title=" ">
<polygon fill="#e0e0e0" stroke="#999999" points="121.5,-74 62.5,-74 62.5,-55 121.5,-55 121.5,-74"/>
<text text-anchor="middle" x="92" y="-62" font-family="Helvetica,sans-Serif" font-size="10.00">functional</text>
</a>
</g>
</g>
<!-- Node4&#45;&gt;Node6 -->
<g id="edge5_Node000004_Node000006" class="edge">
<title>Node4&#45;&gt;Node6</title>
<g id="a_edge5_Node000004_Node000006"><a xlink:title=" ">
<path fill="none" stroke="#63b8ff" d="M235.53,-109.98C206.82,-101.09 161.58,-87.07 129.58,-77.15"/>
<polygon fill="#63b8ff" stroke="#63b8ff" points="130.28,-73.7 119.69,-74.08 128.2,-80.39 130.28,-73.7"/>
</a>
</g>
</g>
<!-- Node7 -->
<g id="Node000007" class="node">
<title>Node7</title>
<g id="a_Node000007"><a xlink:title=" ">
<polygon fill="#e0e0e0" stroke="#999999" points="190.5,-74 139.5,-74 139.5,-55 190.5,-55 190.5,-74"/>
<text text-anchor="middle" x="165" y="-62" font-family="Helvetica,sans-Serif" font-size="10.00">numeric</text>
</a>
</g>
</g>
<!-- Node4&#45;&gt;Node7 -->
<g id="edge6_Node000004_Node000007" class="edge">
<title>Node4&#45;&gt;Node7</title>
<g id="a_edge6_Node000004_Node000007"><a xlink:title=" ">
<path fill="none" stroke="#63b8ff" d="M247.25,-109.98C231.77,-101.61 207.91,-88.7 189.86,-78.95"/>
<polygon fill="#63b8ff" stroke="#63b8ff" points="191.49,-75.85 181.03,-74.17 188.16,-82.01 191.49,-75.85"/>
</a>
</g>
</g>
<!-- Node8 -->
<g id="Node000008" class="node">
<title>Node8</title>
<g id="a_Node000008"><a xlink:title=" ">
<polygon fill="#e0e0e0" stroke="#999999" points="260.5,-19 177.5,-19 177.5,0 260.5,0 260.5,-19"/>
<text text-anchor="middle" x="219" y="-7" font-family="Helvetica,sans-Serif" font-size="10.00">unordered_map</text>
</a>
</g>
</g>
<!-- Node4&#45;&gt;Node8 -->
<g id="edge7_Node000004_Node000008" class="edge">
<title>Node4&#45;&gt;Node8</title>
<g id="a_edge7_Node000004_Node000008"><a xlink:title=" ">
<path fill="none" stroke="#63b8ff" d="M257.43,-109.93C251.92,-101.17 243.54,-87.05 238,-74 231.81,-59.42 226.78,-42.15 223.46,-29.31"/>
<polygon fill="#63b8ff" stroke="#63b8ff" points="226.79,-28.21 220.99,-19.34 220,-29.89 226.79,-28.21"/>
</a>
</g>
</g>
<!-- Node9 -->
<g id="Node000009" class="node">
<title>Node9</title>
<g id="a_Node000009"><a xlink:title=" ">
<polygon fill="#e0e0e0" stroke="#999999" points="539,-74 495,-74 495,-55 539,-55 539,-74"/>
<text text-anchor="middle" x="517" y="-62" font-family="Helvetica,sans-Serif" font-size="10.00">vector</text>
</a>
</g>
</g>
<!-- Node4&#45;&gt;Node9 -->
<g id="edge8_Node000004_Node000009" class="edge">
<title>Node4&#45;&gt;Node9</title>
<g id="a_edge8_Node000004_Node000009"><a xlink:title=" ">
<path fill="none" stroke="#63b8ff" d="M311.06,-109.92C354.16,-102.01 419.32,-89.48 484.64,-74.19"/>
<polygon fill="#63b8ff" stroke="#63b8ff" points="485.77,-77.52 494.7,-71.82 484.16,-70.71 485.77,-77.52"/>
</a>
</g>
</g>
<!-- Node10 -->
<g id="Node000010" class="node">
<title>Node10</title>
<g id="a_Node000010"><a xlink:title=" ">
<polygon fill="#e0e0e0" stroke="#999999" points="366.5,-74 247.5,-74 247.5,-55 366.5,-55 366.5,-74"/>
<text text-anchor="middle" x="307" y="-62" font-family="Helvetica,sans-Serif" font-size="10.00">opencv2/core/matx.hpp</text>
</a>
</g>
</g>
<!-- Node4&#45;&gt;Node10 -->
<g id="edge9_Node000004_Node000010" class="edge">
<title>Node4&#45;&gt;Node10</title>
<g id="a_edge9_Node000004_Node000010"><a xlink:title=" ">
<path fill="none" stroke="#63b8ff" d="M270.27,-109.75C276.54,-102.18 285.79,-91.05 293.43,-81.84"/>
<polygon fill="#63b8ff" stroke="#63b8ff" points="296.17,-84.02 299.87,-74.09 290.79,-79.55 296.17,-84.02"/>
</a>
</g>
</g>
<!-- Node11 -->
<g id="Node000011" class="node">
<title>Node11</title>
<g id="a_Node000011"><a xlink:href="../../d0/d3f/util_8hpp.html" target="_top" xlink:title=" ">
<polygon fill="white" stroke="#666666" points="477,-74 385,-74 385,-55 477,-55 477,-74"/>
<text text-anchor="middle" x="431" y="-62" font-family="Helvetica,sans-Serif" font-size="10.00">rmvl/core/util.hpp</text>
</a>
</g>
</g>
<!-- Node4&#45;&gt;Node11 -->
<g id="edge10_Node000004_Node000011" class="edge">
<title>Node4&#45;&gt;Node11</title>
<g id="a_edge10_Node000004_Node000011"><a xlink:title=" ">
<path fill="none" stroke="#63b8ff" d="M289.99,-109.98C318.2,-101.09 362.64,-87.07 394.08,-77.15"/>
<polygon fill="#63b8ff" stroke="#63b8ff" points="395.31,-80.43 403.8,-74.08 393.21,-73.75 395.31,-80.43"/>
</a>
</g>
</g>
<!-- Node12 -->
<g id="Node000012" class="node">
<title>Node12</title>
<g id="a_Node000012"><a xlink:title=" ">
<polygon fill="#e0e0e0" stroke="#999999" points="397,-19 279,-19 279,0 397,0 397,-19"/>
<text text-anchor="middle" x="338" y="-7" font-family="Helvetica,sans-Serif" font-size="10.00">rmvl/rmvl_modules.hpp</text>
</a>
</g>
</g>
<!-- Node11&#45;&gt;Node12 -->
<g id="edge11_Node000011_Node000012" class="edge">
<title>Node11&#45;&gt;Node12</title>
<g id="a_edge11_Node000011_Node000012"><a xlink:title=" ">
<path fill="none" stroke="#63b8ff" d="M416.06,-54.98C401.5,-46.69 379.13,-33.94 362.07,-24.22"/>
<polygon fill="#63b8ff" stroke="#63b8ff" points="363.64,-21.08 353.21,-19.17 360.17,-27.16 363.64,-21.08"/>
</a>
</g>
</g>
<!-- Node13 -->
<g id="Node000013" class="node">
<title>Node13</title>
<g id="a_Node000013"><a xlink:title=" ">
<polygon fill="#e0e0e0" stroke="#999999" points="461,-19 415,-19 415,0 461,0 461,-19"/>
<text text-anchor="middle" x="438" y="-7" font-family="Helvetica,sans-Serif" font-size="10.00">cstdint</text>
</a>
</g>
</g>
<!-- Node11&#45;&gt;Node13 -->
<g id="edge12_Node000011_Node000013" class="edge">
<title>Node11&#45;&gt;Node13</title>
<g id="a_edge12_Node000011_Node000013"><a xlink:title=" ">
<path fill="none" stroke="#63b8ff" d="M432.16,-54.75C433.07,-47.8 434.39,-37.85 435.54,-29.13"/>
<polygon fill="#63b8ff" stroke="#63b8ff" points="439.03,-29.46 436.87,-19.09 432.09,-28.54 439.03,-29.46"/>
</a>
</g>
</g>
<!-- Node14 -->
<g id="Node000014" class="node">
<title>Node14</title>
<g id="a_Node000014"><a xlink:title=" ">
<polygon fill="#e0e0e0" stroke="#999999" points="522.5,-19 479.5,-19 479.5,0 522.5,0 522.5,-19"/>
<text text-anchor="middle" x="501" y="-7" font-family="Helvetica,sans-Serif" font-size="10.00">cstdio</text>
</a>
</g>
</g>
<!-- Node11&#45;&gt;Node14 -->
<g id="edge13_Node000011_Node000014" class="edge">
<title>Node11&#45;&gt;Node14</title>
<g id="a_edge13_Node000011_Node000014"><a xlink:title=" ">
<path fill="none" stroke="#63b8ff" d="M442.25,-54.98C452.8,-47 468.8,-34.88 481.44,-25.31"/>
<polygon fill="#63b8ff" stroke="#63b8ff" points="483.69,-28 489.55,-19.17 479.46,-22.42 483.69,-28"/>
</a>
</g>
</g>
<!-- Node15 -->
<g id="Node000015" class="node">
<title>Node15</title>
<g id="a_Node000015"><a xlink:title=" ">
<polygon fill="#e0e0e0" stroke="#999999" points="702.5,-19 661.5,-19 661.5,0 702.5,0 702.5,-19"/>
<text text-anchor="middle" x="682" y="-7" font-family="Helvetica,sans-Serif" font-size="10.00">string</text>
</a>
</g>
</g>
<!-- Node11&#45;&gt;Node15 -->
<g id="edge14_Node000011_Node000015" class="edge">
<title>Node11&#45;&gt;Node15</title>
<g id="a_edge14_Node000011_Node000015"><a xlink:title=" ">
<path fill="none" stroke="#63b8ff" d="M471.33,-54.98C521.6,-44.37 606.38,-26.47 651.54,-16.93"/>
<polygon fill="#63b8ff" stroke="#63b8ff" points="652.28,-20.35 661.34,-14.86 650.83,-13.5 652.28,-20.35"/>
</a>
</g>
</g>
<!-- Node16 -->
<g id="Node000016" class="node">
<title>Node16</title>
<g id="a_Node000016"><a xlink:href="../../db/d41/rmvldef_8hpp.html" target="_top" xlink:title=" ">
<polygon fill="white" stroke="#666666" points="789,-19 721,-19 721,0 789,0 789,-19"/>
<text text-anchor="middle" x="755" y="-7" font-family="Helvetica,sans-Serif" font-size="10.00">rmvldef.hpp</text>
</a>
</g>
</g>
<!-- Node11&#45;&gt;Node16 -->
<g id="edge15_Node000011_Node000016" class="edge">
<title>Node11&#45;&gt;Node16</title>
<g id="a_edge15_Node000011_Node000016"><a xlink:title=" ">
<path fill="none" stroke="#63b8ff" d="M477.16,-56.35C544.65,-45.87 667.01,-26.74 711,-19 711.1,-18.98 711.2,-18.96 711.3,-18.95"/>
<polygon fill="#63b8ff" stroke="#63b8ff" points="711.7,-22.43 720.91,-17.2 710.45,-15.55 711.7,-22.43"/>
</a>
</g>
</g>
<!-- Node17&#45;&gt;Node16 -->
<g id="edge18_Node000017_Node000016" class="edge">
<title>Node17&#45;&gt;Node16</title>
<g id="a_edge18_Node000017_Node000016"><a xlink:title=" ">
<path fill="none" stroke="#63b8ff" d="M624.76,-109.98C602.97,-98.07 570.12,-75.61 586,-55 593.74,-44.95 663.49,-29.04 710.92,-19.22"/>
<polygon fill="#63b8ff" stroke="#63b8ff" points="711.88,-22.59 720.97,-17.16 710.47,-15.74 711.88,-22.59"/>
</a>
</g>
</g>
<!-- Node18 -->
<g id="Node000018" class="node">
<title>Node18</title>
<g id="a_Node000018"><a xlink:title=" ">
<polygon fill="#e0e0e0" stroke="#999999" points="689,-74 595,-74 595,-55 689,-55 689,-74"/>
<text text-anchor="middle" x="642" y="-62" font-family="Helvetica,sans-Serif" font-size="10.00">opencv2/core.hpp</text>
</a>
</g>
</g>
<!-- Node17&#45;&gt;Node18 -->
<g id="edge17_Node000017_Node000018" class="edge">
<title>Node17&#45;&gt;Node18</title>
<g id="a_edge17_Node000017_Node000018"><a xlink:title=" ">
<path fill="none" stroke="#63b8ff" d="M642,-109.75C642,-102.8 642,-92.85 642,-84.13"/>
<polygon fill="#63b8ff" stroke="#63b8ff" points="645.5,-84.09 642,-74.09 638.5,-84.09 645.5,-84.09"/>
</a>
</g>
</g>
<!-- Node19&#45;&gt;Node9 -->
<g id="edge25_Node000019_Node000009" class="edge">
<title>Node19&#45;&gt;Node9</title>
<g id="a_edge25_Node000019_Node000009"><a xlink:title=" ">
<path fill="none" stroke="#63b8ff" d="M758.71,-110.45C701.02,-99.72 600.27,-80.98 548.97,-71.45"/>
<polygon fill="#63b8ff" stroke="#63b8ff" points="549.58,-68 539.1,-69.61 548.3,-74.88 549.58,-68"/>
</a>
</g>
</g>
<!-- Node19&#45;&gt;Node15 -->
<g id="edge24_Node000019_Node000015" class="edge">
<title>Node19&#45;&gt;Node15</title>
<g id="a_edge24_Node000019_Node000015"><a xlink:title=" ">
<path fill="none" stroke="#63b8ff" d="M792.18,-109.66C771.77,-91.3 724.57,-48.81 699.07,-25.87"/>
<polygon fill="#63b8ff" stroke="#63b8ff" points="701.39,-23.25 691.62,-19.16 696.71,-28.45 701.39,-23.25"/>
</a>
</g>
</g>
<!-- Node19&#45;&gt;Node16 -->
<g id="edge26_Node000019_Node000016" class="edge">
<title>Node19&#45;&gt;Node16</title>
<g id="a_edge26_Node000019_Node000016"><a xlink:title=" ">
<path fill="none" stroke="#63b8ff" d="M795.45,-109.7C789.23,-101.01 779.96,-87.13 774,-74 767.45,-59.57 762.45,-42.3 759.23,-29.41"/>
<polygon fill="#63b8ff" stroke="#63b8ff" points="762.57,-28.32 756.86,-19.4 755.75,-29.94 762.57,-28.32"/>
</a>
</g>
</g>
<!-- Node20 -->
<g id="Node000020" class="node">
<title>Node20</title>
<g id="a_Node000020"><a xlink:title=" ">
<polygon fill="#e0e0e0" stroke="#999999" points="821,-74 783,-74 783,-55 821,-55 821,-74"/>
<text text-anchor="middle" x="802" y="-62" font-family="Helvetica,sans-Serif" font-size="10.00">array</text>
</a>
</g>
</g>
<!-- Node19&#45;&gt;Node20 -->
<g id="edge20_Node000019_Node000020" class="edge">
<title>Node19&#45;&gt;Node20</title>
<g id="a_edge20_Node000019_Node000020"><a xlink:title=" ">
<path fill="none" stroke="#63b8ff" d="M802,-109.75C802,-102.8 802,-92.85 802,-84.13"/>
<polygon fill="#63b8ff" stroke="#63b8ff" points="805.5,-84.09 802,-74.09 798.5,-84.09 805.5,-84.09"/>
</a>
</g>
</g>
<!-- Node21 -->
<g id="Node000021" class="node">
<title>Node21</title>
<g id="a_Node000021"><a xlink:title=" ">
<polygon fill="#e0e0e0" stroke="#999999" points="885,-74 839,-74 839,-55 885,-55 885,-74"/>
<text text-anchor="middle" x="862" y="-62" font-family="Helvetica,sans-Serif" font-size="10.00">cstring</text>
</a>
</g>
</g>
<!-- Node19&#45;&gt;Node21 -->
<g id="edge21_Node000019_Node000021" class="edge">
<title>Node19&#45;&gt;Node21</title>
<g id="a_edge21_Node000019_Node000021"><a xlink:title=" ">
<path fill="none" stroke="#63b8ff" d="M811.64,-109.98C820.51,-102.15 833.87,-90.34 844.61,-80.86"/>
<polygon fill="#63b8ff" stroke="#63b8ff" points="847.01,-83.41 852.18,-74.17 842.37,-78.17 847.01,-83.41"/>
</a>
</g>
</g>
<!-- Node22 -->
<g id="Node000022" class="node">
<title>Node22</title>
<g id="a_Node000022"><a xlink:title=" ">
<polygon fill="#e0e0e0" stroke="#999999" points="948.5,-74 903.5,-74 903.5,-55 948.5,-55 948.5,-74"/>
<text text-anchor="middle" x="926" y="-62" font-family="Helvetica,sans-Serif" font-size="10.00">iosfwd</text>
</a>
</g>
</g>
<!-- Node19&#45;&gt;Node22 -->
<g id="edge22_Node000019_Node000022" class="edge">
<title>Node19&#45;&gt;Node22</title>
<g id="a_edge22_Node000019_Node000022"><a xlink:title=" ">
<path fill="none" stroke="#63b8ff" d="M821.92,-109.98C842.05,-101.38 873.38,-87.99 896.41,-78.15"/>
<polygon fill="#63b8ff" stroke="#63b8ff" points="897.9,-81.32 905.71,-74.17 895.14,-74.88 897.9,-81.32"/>
</a>
</g>
</g>
<!-- Node23 -->
<g id="Node000023" class="node">
<title>Node23</title>
<g id="a_Node000023"><a xlink:title=" ">
<polygon fill="#e0e0e0" stroke="#999999" points="1019,-74 967,-74 967,-55 1019,-55 1019,-74"/>
<text text-anchor="middle" x="993" y="-62" font-family="Helvetica,sans-Serif" font-size="10.00">memory</text>
</a>
</g>
</g>
<!-- Node19&#45;&gt;Node23 -->
<g id="edge23_Node000019_Node000023" class="edge">
<title>Node19&#45;&gt;Node23</title>
<g id="a_edge23_Node000019_Node000023"><a xlink:title=" ">
<path fill="none" stroke="#63b8ff" d="M832.69,-109.98C866.57,-100.58 921.05,-85.46 956.94,-75.51"/>
<polygon fill="#63b8ff" stroke="#63b8ff" points="958.29,-78.76 966.99,-72.72 956.42,-72.02 958.29,-78.76"/>
</a>
</g>
</g>
<!-- Node24&#45;&gt;Node23 -->
<g id="edge28_Node000024_Node000023" class="edge">
<title>Node24&#45;&gt;Node23</title>
<g id="a_edge28_Node000024_Node000023"><a xlink:title=" ">
<path fill="none" stroke="#63b8ff" d="M993,-109.75C993,-102.8 993,-92.85 993,-84.13"/>
<polygon fill="#63b8ff" stroke="#63b8ff" points="996.5,-84.09 993,-74.09 989.5,-84.09 996.5,-84.09"/>
</a>
</g>
</g>
<!-- Node25 -->
<g id="Node000025" class="node">
<title>Node25</title>
<g id="a_Node000025"><a xlink:title=" ">
<polygon fill="#e0e0e0" stroke="#999999" points="1158.5,-74 1037.5,-74 1037.5,-55 1158.5,-55 1158.5,-74"/>
<text text-anchor="middle" x="1098" y="-62" font-family="Helvetica,sans-Serif" font-size="10.00">opencv2/core/types.hpp</text>
</a>
</g>
</g>
<!-- Node24&#45;&gt;Node25 -->
<g id="edge29_Node000024_Node000025" class="edge">
<title>Node24&#45;&gt;Node25</title>
<g id="a_edge29_Node000024_Node000025"><a xlink:title=" ">
<path fill="none" stroke="#63b8ff" d="M1009.87,-109.98C1026.61,-101.54 1052.5,-88.47 1071.89,-78.68"/>
<polygon fill="#63b8ff" stroke="#63b8ff" points="1073.47,-81.8 1080.82,-74.17 1070.32,-75.55 1073.47,-81.8"/>
</a>
</g>
</g>
<!-- Node26 -->
<g id="Node000026" class="node">
<title>Node26</title>
<g id="a_Node000026"><a xlink:href="../../dd/de3/types_8hpp.html" target="_top" xlink:title="状态类型系统">
<polygon fill="white" stroke="#666666" points="1257.5,-74 1176.5,-74 1176.5,-55 1257.5,-55 1257.5,-74"/>
<text text-anchor="middle" x="1217" y="-62" font-family="Helvetica,sans-Serif" font-size="10.00">rmvl/types.hpp</text>
</a>
</g>
</g>
<!-- Node24&#45;&gt;Node26 -->
<g id="edge30_Node000024_Node000026" class="edge">
<title>Node24&#45;&gt;Node26</title>
<g id="a_edge30_Node000024_Node000026"><a xlink:title=" ">
<path fill="none" stroke="#63b8ff" d="M1028.99,-109.98C1067.49,-100.87 1128.69,-86.4 1170.74,-76.45"/>
<polygon fill="#63b8ff" stroke="#63b8ff" points="1171.8,-79.79 1180.73,-74.08 1170.19,-72.98 1171.8,-79.79"/>
</a>
</g>
</g>
<!-- Node26&#45;&gt;Node8 -->
<g id="edge33_Node000026_Node000008" class="edge">
<title>Node26&#45;&gt;Node8</title>
<g id="a_edge33_Node000026_Node000008"><a xlink:title=" ">
<path fill="none" stroke="#63b8ff" d="M1176.4,-56.15C1173.23,-55.71 1170.07,-55.32 1167,-55 773.47,-13.83 668.62,-59.11 270.74,-18.91"/>
<polygon fill="#63b8ff" stroke="#63b8ff" points="271,-15.42 260.69,-17.88 270.28,-22.38 271,-15.42"/>
</a>
</g>
</g>
<!-- Node26&#45;&gt;Node15 -->
<g id="edge31_Node000026_Node000015" class="edge">
<title>Node26&#45;&gt;Node15</title>
<g id="a_edge31_Node000026_Node000015"><a xlink:title=" ">
<path fill="none" stroke="#63b8ff" d="M1176.39,-56.28C1173.21,-55.82 1170.06,-55.38 1167,-55 968.94,-30.38 913.45,-54.04 712.52,-18.68"/>
<polygon fill="#63b8ff" stroke="#63b8ff" points="712.99,-15.21 702.53,-16.89 711.76,-22.1 712.99,-15.21"/>
</a>
</g>
</g>
<!-- Node26&#45;&gt;Node16 -->
<g id="edge35_Node000026_Node000016" class="edge">
<title>Node26&#45;&gt;Node16</title>
<g id="a_edge35_Node000026_Node000016"><a xlink:title=" ">
<path fill="none" stroke="#63b8ff" d="M1176.37,-56.38C1173.2,-55.89 1170.05,-55.42 1167,-55 1033.6,-36.47 875,-21.25 799.38,-14.4"/>
<polygon fill="#63b8ff" stroke="#63b8ff" points="799.54,-10.9 789.27,-13.49 798.92,-17.87 799.54,-10.9"/>
</a>
</g>
</g>
<!-- Node27 -->
<g id="Node000027" class="node">
<title>Node27</title>
<g id="a_Node000027"><a xlink:title=" ">
<polygon fill="#e0e0e0" stroke="#999999" points="1213,-19 1147,-19 1147,0 1213,0 1213,-19"/>
<text text-anchor="middle" x="1180" y="-7" font-family="Helvetica,sans-Serif" font-size="10.00">string_view</text>
</a>
</g>
</g>
<!-- Node26&#45;&gt;Node27 -->
<g id="edge32_Node000026_Node000027" class="edge">
<title>Node26&#45;&gt;Node27</title>
<g id="a_edge32_Node000026_Node000027"><a xlink:title=" ">
<path fill="none" stroke="#63b8ff" d="M1210.89,-54.75C1205.72,-47.34 1198.15,-36.5 1191.81,-27.41"/>
<polygon fill="#63b8ff" stroke="#63b8ff" points="1194.59,-25.29 1186,-19.09 1188.85,-29.29 1194.59,-25.29"/>
</a>
</g>
</g>
<!-- Node28 -->
<g id="Node000028" class="node">
<title>Node28</title>
<g id="a_Node000028"><a xlink:title=" ">
<polygon fill="#e0e0e0" stroke="#999999" points="1277,-19 1231,-19 1231,0 1277,0 1277,-19"/>
<text text-anchor="middle" x="1254" y="-7" font-family="Helvetica,sans-Serif" font-size="10.00">variant</text>
</a>
</g>
</g>
<!-- Node26&#45;&gt;Node28 -->
<g id="edge34_Node000026_Node000028" class="edge">
<title>Node26&#45;&gt;Node28</title>
<g id="a_edge34_Node000026_Node000028"><a xlink:title=" ">
<path fill="none" stroke="#63b8ff" d="M1223.11,-54.75C1228.28,-47.34 1235.85,-36.5 1242.19,-27.41"/>
<polygon fill="#63b8ff" stroke="#63b8ff" points="1245.15,-29.29 1248,-19.09 1239.41,-25.29 1245.15,-29.29"/>
</a>
</g>
</g>
<!-- Node29&#45;&gt;Node24 -->
<g id="edge37_Node000029_Node000024" class="edge">
<title>Node29&#45;&gt;Node24</title>
<g id="a_edge37_Node000029_Node000024"><a xlink:title=" ">
<path fill="none" stroke="#63b8ff" d="M954.35,-164.84C961.67,-156.43 971,-145.74 978.65,-136.96"/>
<polygon fill="#63b8ff" stroke="#63b8ff" points="981.42,-139.1 985.36,-129.27 976.15,-134.5 981.42,-139.1"/>
</a>
</g>
</g>
</g>
</svg>

<g id="navigator" transform="translate(0 0)" fill="#404254">
  <rect fill="#f2f5e9" fill-opacity="0.5" stroke="#606060" stroke-width=".5" x="0" y="0" width="60" height="60"/>
  <use id="zoomplus" xlink:href="#zoomPlus" x="17" y="9" onmousedown="handleZoom(evt,'in')"/>
  <use id="zoomminus" xlink:href="#zoomMin" x="42" y="9" onmousedown="handleZoom(evt,'out')"/>
  <use id="reset" xlink:href="#resetDef" x="30" y="36" onmousedown="handleReset()"/>
   <use id="arrowup" xlink:href="#arrowUp" x="0" y="0" onmousedown="handlePan(0,-1)"/>
  <use id="arrowright" xlink:href="#arrowRight" x="0" y="0" onmousedown="handlePan(1,0)"/>
  <use id="arrowdown" xlink:href="#arrowDown" x="0" y="0" onmousedown="handlePan(0,1)"/>
  <use id="arrowleft" xlink:href="#arrowLeft" x="0" y="0" onmousedown="handlePan(-1,0)"/>
</g>
<svg viewBox="0 0 15 15" width="100%" height="30px" preserveAspectRatio="xMaxYMin meet">
 <g id="arrow_out" transform="scale(0.3 0.3)">
  <a xlink:href="combo_2armor_8h__incl_org.svg" target="_base">
   <rect id="button" ry="5" rx="5" y="6" x="6" height="38" width="38"
        fill="#f2f5e9" fill-opacity="0.5" stroke="#606060" stroke-width="1.0"/>
   <path id="arrow"
     d="M 11.500037,31.436501 C 11.940474,20.09759 22.043105,11.32322 32.158766,21.979434 L 37.068811,17.246167 C 37.068811,17.246167 37.088388,32 37.088388,32 L 22.160133,31.978069 C 22.160133,31.978069 26.997745,27.140456 26.997745,27.140456 C 18.528582,18.264221 13.291696,25.230495 11.500037,31.436501 z"
     style="fill:#404040;"/>
  </a>
 </g>
</svg>

<style type='text/css'>
<![CDATA[
[data-mouse-over-selected='false'] { opacity: 0.7; }
[data-mouse-over-selected='true']  { opacity: 1.0; }
]]>
</style>
<script type="application/ecmascript"><![CDATA[
document.addEventListener('DOMContentLoaded', (event) => {
  highlightEdges();
  highlightAdjacentNodes();
});
]]></script>
</svg>
