<?xml version="1.0" encoding="UTF-8" standalone="no"?>
<!DOCTYPE svg PUBLIC "-//W3C//DTD SVG 1.1//EN"
 "http://www.w3.org/Graphics/SVG/1.1/DTD/svg11.dtd">
<!-- Generated by graphviz version 2.43.0 (0)
 -->
<!-- Title: rm::RecvtoData Pages: 1 -->
<svg width="181pt" height="256pt"
 viewBox="0.00 0.00 181.00 256.00" xmlns="http://www.w3.org/2000/svg" xmlns:xlink="http://www.w3.org/1999/xlink">

<svg id="main" version="1.1" xmlns="http://www.w3.org/2000/svg" xmlns:xlink="http://www.w3.org/1999/xlink" xml:space="preserve">

<style type="text/css"><![CDATA[
.node, .edge {opacity: 0.7;}
.node.selected, .edge.selected {opacity: 1;}
.edge:hover path { stroke: red; }
.edge:hover polygon { stroke: red; fill: red; }
]]></style>
<script type="application/ecmascript" xlink:href="../../svg.min.js"/>
<svg id="graph" class="graph">
<g id="graph0" class="graph" transform="scale(1 1) rotate(0) translate(4 252)">
<title>rm::RecvtoData</title>
<!-- Node1 -->
<g id="Node000001" class="node">
<title>Node1</title>
<g id="a_Node000001"><a xlink:title="Socket 读取结果结构体">
<polygon fill="#999999" stroke="transparent" points="122.5,-49 42.5,-49 42.5,0 122.5,0 122.5,-49"/>
<text text-anchor="start" x="47.5" y="-36.5" font-family="Helvetica,sans-Serif" font-size="10.00">rm::RecvtoData</text>
<text text-anchor="start" x="80.5" y="-21.5" font-family="Helvetica,sans-Serif" font-size="10.00"> </text>
<text text-anchor="start" x="80.5" y="-6.5" font-family="Helvetica,sans-Serif" font-size="10.00"> </text>
<polygon fill="#666666" stroke="#666666" points="42.5,-31.5 42.5,-31.5 122.5,-31.5 122.5,-31.5 42.5,-31.5"/>
<polygon fill="#666666" stroke="#666666" points="42.5,-16.5 42.5,-16.5 122.5,-16.5 122.5,-16.5 42.5,-16.5"/>
<polygon fill="none" stroke="#666666" points="42.5,0 42.5,-49 122.5,-49 122.5,0 42.5,0"/>
</a>
</g>
</g>
<!-- Node2 -->
<g id="Node000002" class="node">
<title>Node2</title>
<g id="a_Node000002"><a xlink:title=" ">
<polygon fill="white" stroke="transparent" points="37,-151 0,-151 0,-102 37,-102 37,-151"/>
<text text-anchor="start" x="5.5" y="-138.5" font-family="Helvetica,sans-Serif" font-size="10.00">size_t</text>
<text text-anchor="start" x="17" y="-123.5" font-family="Helvetica,sans-Serif" font-size="10.00"> </text>
<text text-anchor="start" x="17" y="-108.5" font-family="Helvetica,sans-Serif" font-size="10.00"> </text>
<polygon fill="#666666" stroke="#666666" points="0.5,-133.5 0.5,-133.5 37.5,-133.5 37.5,-133.5 0.5,-133.5"/>
<polygon fill="#666666" stroke="#666666" points="0.5,-118.5 0.5,-118.5 37.5,-118.5 37.5,-118.5 0.5,-118.5"/>
<polygon fill="none" stroke="#666666" points="0,-102 0,-151 37,-151 37,-102 0,-102"/>
</a>
</g>
</g>
<!-- Node2&#45;&gt;Node1 -->
<g id="edge1_Node000001_Node000002" class="edge">
<title>Node2&#45;&gt;Node1</title>
<g id="a_edge1_Node000001_Node000002"><a xlink:title=" ">
<path fill="none" stroke="#63b8ff" d="M25.32,-101.95C29.13,-90.84 34.54,-77.7 41.5,-67 43.42,-64.06 45.57,-61.15 47.85,-58.32"/>
<polygon fill="none" stroke="#63b8ff" points="48.06,-58.08 49.03,-50.93 56,-49.08 55.03,-56.22 48.06,-58.08"/>
</a>
</g>
<text text-anchor="start" x="45" y="-72.5" font-family="Helvetica,sans-Serif" font-size="10.00" fill="grey">+bytes</text>
</g>
<!-- Node3 -->
<g id="Node000003" class="node">
<title>Node3</title>
<g id="a_Node000003"><a xlink:title=" ">
<polygon fill="white" stroke="transparent" points="109.5,-151 55.5,-151 55.5,-102 109.5,-102 109.5,-151"/>
<text text-anchor="start" x="60.5" y="-138.5" font-family="Helvetica,sans-Serif" font-size="10.00">std::string</text>
<text text-anchor="start" x="80.5" y="-123.5" font-family="Helvetica,sans-Serif" font-size="10.00"> </text>
<text text-anchor="start" x="80.5" y="-108.5" font-family="Helvetica,sans-Serif" font-size="10.00"> </text>
<polygon fill="#666666" stroke="#666666" points="55.5,-133.5 55.5,-133.5 109.5,-133.5 109.5,-133.5 55.5,-133.5"/>
<polygon fill="#666666" stroke="#666666" points="55.5,-118.5 55.5,-118.5 109.5,-118.5 109.5,-118.5 55.5,-118.5"/>
<polygon fill="none" stroke="#666666" points="55.5,-102 55.5,-151 109.5,-151 109.5,-102 55.5,-102"/>
</a>
</g>
</g>
<!-- Node3&#45;&gt;Node1 -->
<g id="edge2_Node000001_Node000003" class="edge">
<title>Node3&#45;&gt;Node1</title>
<g id="a_edge2_Node000001_Node000003"><a xlink:title=" ">
<path fill="none" stroke="#63b8ff" d="M82.5,-101.8C82.5,-89.72 82.5,-74.78 82.5,-61.33"/>
<polygon fill="none" stroke="#63b8ff" points="82.5,-61.03 78.5,-55.03 82.5,-49.03 86.5,-55.03 82.5,-61.03"/>
</a>
</g>
<text text-anchor="start" x="86" y="-72.5" font-family="Helvetica,sans-Serif" font-size="10.00" fill="grey">+addr</text>
</g>
<!-- Node4 -->
<g id="Node000004" class="node">
<title>Node4</title>
<g id="a_Node000004"><a xlink:title=" ">
<polygon fill="white" stroke="transparent" points="127,-248 38,-248 38,-188 127,-188 127,-248"/>
<text text-anchor="start" x="43.5" y="-236" font-family="Helvetica,sans-Serif" font-size="10.00">std::basic_string&lt;</text>
<text text-anchor="start" x="66" y="-225" font-family="Helvetica,sans-Serif" font-size="10.00"> Char &gt;</text>
<text text-anchor="start" x="81" y="-210" font-family="Helvetica,sans-Serif" font-size="10.00"> </text>
<text text-anchor="start" x="81" y="-195" font-family="Helvetica,sans-Serif" font-size="10.00"> </text>
<polygon fill="#666666" stroke="#666666" points="38.5,-220 38.5,-220 127.5,-220 127.5,-220 38.5,-220"/>
<polygon fill="#666666" stroke="#666666" points="38.5,-205 38.5,-205 127.5,-205 127.5,-205 38.5,-205"/>
<polygon fill="none" stroke="#666666" points="38,-188 38,-248 127,-248 127,-188 38,-188"/>
</a>
</g>
</g>
<!-- Node4&#45;&gt;Node3 -->
<g id="edge3_Node000003_Node000004" class="edge">
<title>Node4&#45;&gt;Node3</title>
<g id="a_edge3_Node000003_Node000004"><a xlink:title=" ">
<path fill="none" stroke="#63b8ff" d="M82.5,-177.41C82.5,-168.47 82.5,-159.25 82.5,-151.21"/>
<polygon fill="none" stroke="#63b8ff" points="79,-177.69 82.5,-187.69 86,-177.69 79,-177.69"/>
</a>
</g>
</g>
<!-- Node5 -->
<g id="Node000005" class="node">
<title>Node5</title>
<g id="a_Node000005"><a xlink:title=" ">
<polygon fill="white" stroke="transparent" points="173,-151 128,-151 128,-102 173,-102 173,-151"/>
<text text-anchor="start" x="133.5" y="-138.5" font-family="Helvetica,sans-Serif" font-size="10.00">uint16_t</text>
<text text-anchor="start" x="149" y="-123.5" font-family="Helvetica,sans-Serif" font-size="10.00"> </text>
<text text-anchor="start" x="149" y="-108.5" font-family="Helvetica,sans-Serif" font-size="10.00"> </text>
<polygon fill="#666666" stroke="#666666" points="128.5,-133.5 128.5,-133.5 173.5,-133.5 173.5,-133.5 128.5,-133.5"/>
<polygon fill="#666666" stroke="#666666" points="128.5,-118.5 128.5,-118.5 173.5,-118.5 173.5,-118.5 128.5,-118.5"/>
<polygon fill="none" stroke="#666666" points="128,-102 128,-151 173,-151 173,-102 128,-102"/>
</a>
</g>
</g>
<!-- Node5&#45;&gt;Node1 -->
<g id="edge4_Node000001_Node000005" class="edge">
<title>Node5&#45;&gt;Node1</title>
<g id="a_edge4_Node000001_Node000005"><a xlink:title=" ">
<path fill="none" stroke="#63b8ff" d="M138.46,-101.83C132.59,-90.94 125.15,-78.01 117.5,-67 115.53,-64.17 113.42,-61.3 111.23,-58.46"/>
<polygon fill="none" stroke="#63b8ff" points="111.17,-58.39 104.29,-56.22 103.65,-49.03 110.53,-51.2 111.17,-58.39"/>
</a>
</g>
<text text-anchor="start" x="130" y="-72.5" font-family="Helvetica,sans-Serif" font-size="10.00" fill="grey">+port</text>
</g>
</g>
</svg>
</svg>

<style type='text/css'>
<![CDATA[
[data-mouse-over-selected='false'] { opacity: 0.7; }
[data-mouse-over-selected='true']  { opacity: 1.0; }
]]>
</style>
<script type="application/ecmascript"><![CDATA[
document.addEventListener('DOMContentLoaded', (event) => {
  highlightEdges();
  highlightAdjacentNodes();
});
]]></script>
</svg>
