<?xml version="1.0" encoding="UTF-8" standalone="no"?>
<!DOCTYPE svg PUBLIC "-//W3C//DTD SVG 1.1//EN"
 "http://www.w3.org/Graphics/SVG/1.1/DTD/svg11.dtd">
<!-- Generated by graphviz version 2.43.0 (0)
 -->
<!-- Title: rmvl/detector/rune_detector.h Pages: 1 -->
<!--zoomable 478 -->

<svg id="main" version="1.1" xmlns="http://www.w3.org/2000/svg" xmlns:xlink="http://www.w3.org/1999/xlink" xml:space="preserve" onload="init(evt)">

<style type="text/css"><![CDATA[
.node, .edge {opacity: 0.7;}
.node.selected, .edge.selected {opacity: 1;}
.edge:hover path { stroke: red; }
.edge:hover polygon { stroke: red; fill: red; }
]]></style>

<defs>
  <circle id="rim" cx="0" cy="0" r="7"/>
  <circle id="rim2" cx="0" cy="0" r="3.5"/>
  <g id="zoomPlus">
    <use xlink:href="#rim" fill="#404040"><set attributeName="fill" to="#808080" begin="zoomplus.mouseover" end="zoomplus.mouseout"/></use>
    <path d="M-4,0h8M0,-4v8" fill="none" stroke="white" stroke-width="1.5" pointer-events="none"/>
  </g>
  <g id="zoomMin">
    <use xlink:href="#rim" fill="#404040"><set attributeName="fill" to="#808080" begin="zoomminus.mouseover" end="zoomminus.mouseout"/></use>
    <path d="M-4,0h8" fill="none" stroke="white" stroke-width="1.5" pointer-events="none"/>
  </g>
  <g id="arrowUp" transform="translate(30 24)">
    <use xlink:href="#rim"/>
    <path pointer-events="none" fill="none" stroke="white" stroke-width="1.5" d="M0,-3.0v7 M-2.5,-0.5L0,-3.0L2.5,-0.5"/>
  </g>
  <g id="arrowRight" transform="rotate(90) translate(36 -43)">
    <use xlink:href="#rim"/>
    <path pointer-events="none" fill="none" stroke="white" stroke-width="1.5" d="M0,-3.0v7 M-2.5,-0.5L0,-3.0L2.5,-0.5"/>
  </g>
  <g id="arrowDown" transform="rotate(180) translate(-30 -48)">
    <use xlink:href="#rim"/>
    <path pointer-events="none" fill="none" stroke="white" stroke-width="1.5" d="M0,-3.0v7 M-2.5,-0.5L0,-3.0L2.5,-0.5"/>
  </g>
  <g id="arrowLeft" transform="rotate(270) translate(-36 17)">
    <use xlink:href="#rim"/>
    <path pointer-events="none" fill="none" stroke="white" stroke-width="1.5" d="M0,-3.0v7 M-2.5,-0.5L0,-3.0L2.5,-0.5"/>
  </g>
  <g id="resetDef">
    <use xlink:href="#rim2" fill="#404040"><set attributeName="fill" to="#808080" begin="reset.mouseover" end="reset.mouseout"/></use>
  </g>
</defs>
<script type="application/ecmascript">
var viewWidth = 1248;
var viewHeight = 478;
var sectionId = 'dynsection-0';
</script>
<script type="application/ecmascript" xlink:href="../../svg.min.js"/>
<svg id="graph" class="graph">
<g id="viewport">
<title>rmvl/detector/rune_detector.h</title>
<!-- Node1 -->
<g id="Node000001" class="node">
<title>Node1</title>
<g id="a_Node000001"><a xlink:title="神符识别派生类头文件">
<polygon fill="#999999" stroke="#666666" points="672.64,-470 565.64,-470 565.64,-440 672.64,-440 672.64,-470"/>
<text text-anchor="start" x="573.64" y="-458" font-family="Helvetica,sans-Serif" font-size="10.00">rmvl/detector/rune</text>
<text text-anchor="middle" x="619.14" y="-447" font-family="Helvetica,sans-Serif" font-size="10.00">_detector.h</text>
</a>
</g>
</g>
<!-- Node2 -->
<g id="Node000002" class="node">
<title>Node2</title>
<g id="a_Node000002"><a xlink:href="../../d5/d9f/detector_8h.html" target="_top" xlink:title="抽象识别类头文件">
<polygon fill="white" stroke="#666666" points="621.64,-404 556.64,-404 556.64,-385 621.64,-385 621.64,-404"/>
<text text-anchor="middle" x="589.14" y="-392" font-family="Helvetica,sans-Serif" font-size="10.00">detector.h</text>
</a>
</g>
</g>
<!-- Node1&#45;&gt;Node2 -->
<g id="edge1_Node000001_Node000002" class="edge">
<title>Node1&#45;&gt;Node2</title>
<g id="a_edge1_Node000001_Node000002"><a xlink:title=" ">
<path fill="none" stroke="#63b8ff" d="M611.88,-439.84C607.79,-431.87 602.65,-421.84 598.29,-413.33"/>
<polygon fill="#63b8ff" stroke="#63b8ff" points="601.31,-411.57 593.64,-404.27 595.09,-414.76 601.31,-411.57"/>
</a>
</g>
</g>
<!-- Node30 -->
<g id="Node000030" class="node">
<title>Node30</title>
<g id="a_Node000030"><a xlink:href="../../dd/d0a/tracker_2rune__tracker_8h.html" target="_top" xlink:title="神符追踪器头文件">
<polygon fill="white" stroke="#666666" points="810.14,-349 662.14,-349 662.14,-330 810.14,-330 810.14,-349"/>
<text text-anchor="middle" x="736.14" y="-337" font-family="Helvetica,sans-Serif" font-size="10.00">rmvl/tracker/rune_tracker.h</text>
</a>
</g>
</g>
<!-- Node1&#45;&gt;Node30 -->
<g id="edge37_Node000001_Node000030" class="edge">
<title>Node1&#45;&gt;Node30</title>
<g id="a_edge37_Node000001_Node000030"><a xlink:title=" ">
<path fill="none" stroke="#63b8ff" d="M633.96,-439.63C655.96,-418.28 697.12,-378.36 719.91,-356.25"/>
<polygon fill="#63b8ff" stroke="#63b8ff" points="722.4,-358.7 727.14,-349.23 717.53,-353.68 722.4,-358.7"/>
</a>
</g>
</g>
<!-- Node3 -->
<g id="Node000003" class="node">
<title>Node3</title>
<g id="a_Node000003"><a xlink:href="../../d9/dd1/group_8h.html" target="_top" xlink:title="序列组抽象头文件">
<polygon fill="white" stroke="#666666" points="644.14,-349 534.14,-349 534.14,-330 644.14,-330 644.14,-349"/>
<text text-anchor="middle" x="589.14" y="-337" font-family="Helvetica,sans-Serif" font-size="10.00">rmvl/group/group.h</text>
</a>
</g>
</g>
<!-- Node2&#45;&gt;Node3 -->
<g id="edge2_Node000002_Node000003" class="edge">
<title>Node2&#45;&gt;Node3</title>
<g id="a_edge2_Node000002_Node000003"><a xlink:title=" ">
<path fill="none" stroke="#63b8ff" d="M589.14,-384.75C589.14,-377.8 589.14,-367.85 589.14,-359.13"/>
<polygon fill="#63b8ff" stroke="#63b8ff" points="592.64,-359.09 589.14,-349.09 585.64,-359.09 592.64,-359.09"/>
</a>
</g>
</g>
<!-- Node28 -->
<g id="Node000028" class="node">
<title>Node28</title>
<g id="a_Node000028"><a xlink:href="../../d2/d4c/pretreat_8hpp.html" target="_top" xlink:title="图像预处理模块">
<polygon fill="white" stroke="#666666" points="500.14,-349 348.14,-349 348.14,-330 500.14,-330 500.14,-349"/>
<text text-anchor="middle" x="424.14" y="-337" font-family="Helvetica,sans-Serif" font-size="10.00">rmvl/algorithm/pretreat.hpp</text>
</a>
</g>
</g>
<!-- Node2&#45;&gt;Node28 -->
<g id="edge34_Node000002_Node000028" class="edge">
<title>Node2&#45;&gt;Node28</title>
<g id="a_edge34_Node000002_Node000028"><a xlink:title=" ">
<path fill="none" stroke="#63b8ff" d="M562.63,-384.98C534.93,-376.09 491.28,-362.07 460.4,-352.15"/>
<polygon fill="#63b8ff" stroke="#63b8ff" points="461.45,-348.81 450.86,-349.08 459.31,-355.47 461.45,-348.81"/>
</a>
</g>
</g>
<!-- Node4 -->
<g id="Node000004" class="node">
<title>Node4</title>
<g id="a_Node000004"><a xlink:href="../../dc/ded/tracker_8h.html" target="_top" xlink:title="追踪器抽象头文件">
<polygon fill="white" stroke="#666666" points="664.64,-294 543.64,-294 543.64,-275 664.64,-275 664.64,-294"/>
<text text-anchor="middle" x="604.14" y="-282" font-family="Helvetica,sans-Serif" font-size="10.00">rmvl/tracker/tracker.h</text>
</a>
</g>
</g>
<!-- Node3&#45;&gt;Node4 -->
<g id="edge3_Node000003_Node000004" class="edge">
<title>Node3&#45;&gt;Node4</title>
<g id="a_edge3_Node000003_Node000004"><a xlink:title=" ">
<path fill="none" stroke="#63b8ff" d="M591.62,-329.75C593.61,-322.72 596.47,-312.62 598.95,-303.84"/>
<polygon fill="#63b8ff" stroke="#63b8ff" points="602.36,-304.66 601.71,-294.09 595.62,-302.76 602.36,-304.66"/>
</a>
</g>
</g>
<!-- Node5 -->
<g id="Node000005" class="node">
<title>Node5</title>
<g id="a_Node000005"><a xlink:title=" ">
<polygon fill="#e0e0e0" stroke="#999999" points="611.64,-239 564.64,-239 564.64,-220 611.64,-220 611.64,-239"/>
<text text-anchor="middle" x="588.14" y="-227" font-family="Helvetica,sans-Serif" font-size="10.00">deque</text>
</a>
</g>
</g>
<!-- Node4&#45;&gt;Node5 -->
<g id="edge4_Node000004_Node000005" class="edge">
<title>Node4&#45;&gt;Node5</title>
<g id="a_edge4_Node000004_Node000005"><a xlink:title=" ">
<path fill="none" stroke="#63b8ff" d="M601.5,-274.75C599.38,-267.72 596.33,-257.62 593.68,-248.84"/>
<polygon fill="#63b8ff" stroke="#63b8ff" points="596.98,-247.65 590.73,-239.09 590.27,-249.67 596.98,-247.65"/>
</a>
</g>
</g>
<!-- Node6 -->
<g id="Node000006" class="node">
<title>Node6</title>
<g id="a_Node000006"><a xlink:href="../../d8/d36/combo_8h.html" target="_top" xlink:title="the combination of the features header file">
<polygon fill="white" stroke="#666666" points="750.14,-239 630.14,-239 630.14,-220 750.14,-220 750.14,-239"/>
<text text-anchor="middle" x="690.14" y="-227" font-family="Helvetica,sans-Serif" font-size="10.00">rmvl/combo/combo.h</text>
</a>
</g>
</g>
<!-- Node4&#45;&gt;Node6 -->
<g id="edge5_Node000004_Node000006" class="edge">
<title>Node4&#45;&gt;Node6</title>
<g id="a_edge5_Node000004_Node000006"><a xlink:title=" ">
<path fill="none" stroke="#63b8ff" d="M617.96,-274.98C631.3,-266.77 651.72,-254.18 667.45,-244.49"/>
<polygon fill="#63b8ff" stroke="#63b8ff" points="669.4,-247.4 676.07,-239.17 665.72,-241.44 669.4,-247.4"/>
</a>
</g>
</g>
<!-- Node7 -->
<g id="Node000007" class="node">
<title>Node7</title>
<g id="a_Node000007"><a xlink:href="../../d4/d78/math_8hpp.html" target="_top" xlink:title="基础数学库">
<polygon fill="white" stroke="#666666" points="325.64,-184 186.64,-184 186.64,-165 325.64,-165 325.64,-184"/>
<text text-anchor="middle" x="256.14" y="-172" font-family="Helvetica,sans-Serif" font-size="10.00">rmvl/algorithm/math.hpp</text>
</a>
</g>
</g>
<!-- Node6&#45;&gt;Node7 -->
<g id="edge6_Node000006_Node000007" class="edge">
<title>Node6&#45;&gt;Node7</title>
<g id="a_edge6_Node000006_Node000007"><a xlink:title=" ">
<path fill="none" stroke="#63b8ff" d="M629.8,-221.13C553.14,-211.77 420.64,-195.59 335.76,-185.22"/>
<polygon fill="#63b8ff" stroke="#63b8ff" points="336,-181.73 325.65,-183.99 335.16,-188.68 336,-181.73"/>
</a>
</g>
</g>
<!-- Node19 -->
<g id="Node000019" class="node">
<title>Node19</title>
<g id="a_Node000019"><a xlink:href="../../d3/d7e/camutils_8hpp.html" target="_top" xlink:title=" ">
<polygon fill="white" stroke="#666666" points="1117.64,-184 972.64,-184 972.64,-165 1117.64,-165 1117.64,-184"/>
<text text-anchor="middle" x="1045.14" y="-172" font-family="Helvetica,sans-Serif" font-size="10.00">rmvl/camera/camutils.hpp</text>
</a>
</g>
</g>
<!-- Node6&#45;&gt;Node19 -->
<g id="edge18_Node000006_Node000019" class="edge">
<title>Node6&#45;&gt;Node19</title>
<g id="a_edge18_Node000006_Node000019"><a xlink:title=" ">
<path fill="none" stroke="#63b8ff" d="M747.18,-219.98C810.1,-210.59 911.25,-195.49 977.96,-185.53"/>
<polygon fill="#63b8ff" stroke="#63b8ff" points="978.58,-188.98 987.95,-184.04 977.55,-182.05 978.58,-188.98"/>
</a>
</g>
</g>
<!-- Node21 -->
<g id="Node000021" class="node">
<title>Node21</title>
<g id="a_Node000021"><a xlink:href="../../dd/de3/types_8hpp.html" target="_top" xlink:title="常用状态类型定义">
<polygon fill="white" stroke="#666666" points="608.14,-129 518.14,-129 518.14,-110 608.14,-110 608.14,-129"/>
<text text-anchor="middle" x="563.14" y="-117" font-family="Helvetica,sans-Serif" font-size="10.00">rmvl/types.hpp</text>
</a>
</g>
</g>
<!-- Node6&#45;&gt;Node21 -->
<g id="edge21_Node000006_Node000021" class="edge">
<title>Node6&#45;&gt;Node21</title>
<g id="a_edge21_Node000006_Node000021"><a xlink:title=" ">
<path fill="none" stroke="#63b8ff" d="M678.59,-219.88C666.93,-211.09 648.51,-196.94 633.14,-184 614.47,-168.28 593.85,-149.38 579.86,-136.31"/>
<polygon fill="#63b8ff" stroke="#63b8ff" points="582.14,-133.65 572.45,-129.35 577.35,-138.75 582.14,-133.65"/>
</a>
</g>
</g>
<!-- Node22 -->
<g id="Node000022" class="node">
<title>Node22</title>
<g id="a_Node000022"><a xlink:href="../../d2/dc6/io_8hpp.html" target="_top" xlink:title="数据 IO 与通信模块">
<polygon fill="white" stroke="#666666" points="738.14,-184 642.14,-184 642.14,-165 738.14,-165 738.14,-184"/>
<text text-anchor="middle" x="690.14" y="-172" font-family="Helvetica,sans-Serif" font-size="10.00">rmvl/core/io.hpp</text>
</a>
</g>
</g>
<!-- Node6&#45;&gt;Node22 -->
<g id="edge23_Node000006_Node000022" class="edge">
<title>Node6&#45;&gt;Node22</title>
<g id="a_edge23_Node000006_Node000022"><a xlink:title=" ">
<path fill="none" stroke="#63b8ff" d="M690.14,-219.75C690.14,-212.8 690.14,-202.85 690.14,-194.13"/>
<polygon fill="#63b8ff" stroke="#63b8ff" points="693.64,-194.09 690.14,-184.09 686.64,-194.09 693.64,-194.09"/>
</a>
</g>
</g>
<!-- Node26 -->
<g id="Node000026" class="node">
<title>Node26</title>
<g id="a_Node000026"><a xlink:href="../../d2/d74/feature_8h.html" target="_top" xlink:title="feature class header">
<polygon fill="white" stroke="#666666" points="909.64,-184 784.64,-184 784.64,-165 909.64,-165 909.64,-184"/>
<text text-anchor="middle" x="847.14" y="-172" font-family="Helvetica,sans-Serif" font-size="10.00">rmvl/feature/feature.h</text>
</a>
</g>
</g>
<!-- Node6&#45;&gt;Node26 -->
<g id="edge30_Node000006_Node000026" class="edge">
<title>Node6&#45;&gt;Node26</title>
<g id="a_edge30_Node000006_Node000026"><a xlink:title=" ">
<path fill="none" stroke="#63b8ff" d="M715.37,-219.98C741.5,-211.16 782.54,-197.31 811.87,-187.41"/>
<polygon fill="#63b8ff" stroke="#63b8ff" points="813.36,-190.6 821.72,-184.08 811.13,-183.96 813.36,-190.6"/>
</a>
</g>
</g>
<!-- Node8 -->
<g id="Node000008" class="node">
<title>Node8</title>
<g id="a_Node000008"><a xlink:title=" ">
<polygon fill="#e0e0e0" stroke="#999999" points="209.64,-129 162.64,-129 162.64,-110 209.64,-110 209.64,-129"/>
<text text-anchor="middle" x="186.14" y="-117" font-family="Helvetica,sans-Serif" font-size="10.00">cmath</text>
</a>
</g>
</g>
<!-- Node7&#45;&gt;Node8 -->
<g id="edge7_Node000007_Node000008" class="edge">
<title>Node7&#45;&gt;Node8</title>
<g id="a_edge7_Node000007_Node000008"><a xlink:title=" ">
<path fill="none" stroke="#63b8ff" d="M244.9,-164.98C234.34,-157 218.34,-144.88 205.7,-135.31"/>
<polygon fill="#63b8ff" stroke="#63b8ff" points="207.68,-132.42 197.59,-129.17 203.45,-138 207.68,-132.42"/>
</a>
</g>
</g>
<!-- Node9 -->
<g id="Node000009" class="node">
<title>Node9</title>
<g id="a_Node000009"><a xlink:title=" ">
<polygon fill="#e0e0e0" stroke="#999999" points="284.14,-129 228.14,-129 228.14,-110 284.14,-110 284.14,-129"/>
<text text-anchor="middle" x="256.14" y="-117" font-family="Helvetica,sans-Serif" font-size="10.00">numeric</text>
</a>
</g>
</g>
<!-- Node7&#45;&gt;Node9 -->
<g id="edge8_Node000007_Node000009" class="edge">
<title>Node7&#45;&gt;Node9</title>
<g id="a_edge8_Node000007_Node000009"><a xlink:title=" ">
<path fill="none" stroke="#63b8ff" d="M256.14,-164.75C256.14,-157.8 256.14,-147.85 256.14,-139.13"/>
<polygon fill="#63b8ff" stroke="#63b8ff" points="259.64,-139.09 256.14,-129.09 252.64,-139.09 259.64,-139.09"/>
</a>
</g>
</g>
<!-- Node10 -->
<g id="Node000010" class="node">
<title>Node10</title>
<g id="a_Node000010"><a xlink:title=" ">
<polygon fill="#e0e0e0" stroke="#999999" points="395.64,-129 302.64,-129 302.64,-110 395.64,-110 395.64,-129"/>
<text text-anchor="middle" x="349.14" y="-117" font-family="Helvetica,sans-Serif" font-size="10.00">unordered_map</text>
</a>
</g>
</g>
<!-- Node7&#45;&gt;Node10 -->
<g id="edge9_Node000007_Node000010" class="edge">
<title>Node7&#45;&gt;Node10</title>
<g id="a_edge9_Node000007_Node000010"><a xlink:title=" ">
<path fill="none" stroke="#63b8ff" d="M271.08,-164.98C285.64,-156.69 308.01,-143.94 325.08,-134.22"/>
<polygon fill="#63b8ff" stroke="#63b8ff" points="326.97,-137.16 333.93,-129.17 323.51,-131.08 326.97,-137.16"/>
</a>
</g>
</g>
<!-- Node11 -->
<g id="Node000011" class="node">
<title>Node11</title>
<g id="a_Node000011"><a xlink:title=" ">
<polygon fill="#e0e0e0" stroke="#999999" points="499.64,-129 452.64,-129 452.64,-110 499.64,-110 499.64,-129"/>
<text text-anchor="middle" x="476.14" y="-117" font-family="Helvetica,sans-Serif" font-size="10.00">vector</text>
</a>
</g>
</g>
<!-- Node7&#45;&gt;Node11 -->
<g id="edge10_Node000007_Node000011" class="edge">
<title>Node7&#45;&gt;Node11</title>
<g id="a_edge10_Node000007_Node000011"><a xlink:title=" ">
<path fill="none" stroke="#63b8ff" d="M291.49,-164.98C333.14,-154.95 401.84,-138.4 442.66,-128.57"/>
<polygon fill="#63b8ff" stroke="#63b8ff" points="443.51,-131.96 452.41,-126.22 441.87,-125.16 443.51,-131.96"/>
</a>
</g>
</g>
<!-- Node12 -->
<g id="Node000012" class="node">
<title>Node12</title>
<g id="a_Node000012"><a xlink:title=" ">
<polygon fill="#e0e0e0" stroke="#999999" points="144.64,-129 13.64,-129 13.64,-110 144.64,-110 144.64,-129"/>
<text text-anchor="middle" x="79.14" y="-117" font-family="Helvetica,sans-Serif" font-size="10.00">opencv2/core/matx.hpp</text>
</a>
</g>
</g>
<!-- Node7&#45;&gt;Node12 -->
<g id="edge11_Node000007_Node000012" class="edge">
<title>Node7&#45;&gt;Node12</title>
<g id="a_edge11_Node000007_Node000012"><a xlink:title=" ">
<path fill="none" stroke="#63b8ff" d="M227.7,-164.98C197.86,-156.05 150.76,-141.94 117.61,-132.02"/>
<polygon fill="#63b8ff" stroke="#63b8ff" points="118.39,-128.6 107.8,-129.08 116.38,-135.3 118.39,-128.6"/>
</a>
</g>
</g>
<!-- Node13 -->
<g id="Node000013" class="node">
<title>Node13</title>
<g id="a_Node000013"><a xlink:href="../../d0/d3f/util_8hpp.html" target="_top" xlink:title=" ">
<polygon fill="white" stroke="#666666" points="395.64,-74 292.64,-74 292.64,-55 395.64,-55 395.64,-74"/>
<text text-anchor="middle" x="344.14" y="-62" font-family="Helvetica,sans-Serif" font-size="10.00">rmvl/core/util.hpp</text>
</a>
</g>
</g>
<!-- Node7&#45;&gt;Node13 -->
<g id="edge12_Node000007_Node000013" class="edge">
<title>Node7&#45;&gt;Node13</title>
<g id="a_edge12_Node000007_Node000013"><a xlink:title=" ">
<path fill="none" stroke="#63b8ff" d="M186.35,-170.93C120,-166.84 27.02,-156.27 4.14,-129 -1.29,-122.53 -1.43,-116.35 4.14,-110 22.17,-89.46 189.25,-75.49 282.29,-69.23"/>
<polygon fill="#63b8ff" stroke="#63b8ff" points="282.68,-72.72 292.43,-68.56 282.22,-65.73 282.68,-72.72"/>
</a>
</g>
</g>
<!-- Node14 -->
<g id="Node000014" class="node">
<title>Node14</title>
<g id="a_Node000014"><a xlink:title=" ">
<polygon fill="#e0e0e0" stroke="#999999" points="300.64,-19 167.64,-19 167.64,0 300.64,0 300.64,-19"/>
<text text-anchor="middle" x="234.14" y="-7" font-family="Helvetica,sans-Serif" font-size="10.00">rmvl/rmvl_modules.hpp</text>
</a>
</g>
</g>
<!-- Node13&#45;&gt;Node14 -->
<g id="edge13_Node000013_Node000014" class="edge">
<title>Node13&#45;&gt;Node14</title>
<g id="a_edge13_Node000013_Node000014"><a xlink:title=" ">
<path fill="none" stroke="#63b8ff" d="M326.47,-54.98C308.85,-46.5 281.56,-33.35 261.22,-23.54"/>
<polygon fill="#63b8ff" stroke="#63b8ff" points="262.66,-20.36 252.14,-19.17 259.63,-26.66 262.66,-20.36"/>
</a>
</g>
</g>
<!-- Node15 -->
<g id="Node000015" class="node">
<title>Node15</title>
<g id="a_Node000015"><a xlink:title=" ">
<polygon fill="#e0e0e0" stroke="#999999" points="369.14,-19 319.14,-19 319.14,0 369.14,0 369.14,-19"/>
<text text-anchor="middle" x="344.14" y="-7" font-family="Helvetica,sans-Serif" font-size="10.00">cstdint</text>
</a>
</g>
</g>
<!-- Node13&#45;&gt;Node15 -->
<g id="edge14_Node000013_Node000015" class="edge">
<title>Node13&#45;&gt;Node15</title>
<g id="a_edge14_Node000013_Node000015"><a xlink:title=" ">
<path fill="none" stroke="#63b8ff" d="M344.14,-54.75C344.14,-47.8 344.14,-37.85 344.14,-29.13"/>
<polygon fill="#63b8ff" stroke="#63b8ff" points="347.64,-29.09 344.14,-19.09 340.64,-29.09 347.64,-29.09"/>
</a>
</g>
</g>
<!-- Node16 -->
<g id="Node000016" class="node">
<title>Node16</title>
<g id="a_Node000016"><a xlink:title=" ">
<polygon fill="#e0e0e0" stroke="#999999" points="433.14,-19 387.14,-19 387.14,0 433.14,0 433.14,-19"/>
<text text-anchor="middle" x="410.14" y="-7" font-family="Helvetica,sans-Serif" font-size="10.00">cstdio</text>
</a>
</g>
</g>
<!-- Node13&#45;&gt;Node16 -->
<g id="edge15_Node000013_Node000016" class="edge">
<title>Node13&#45;&gt;Node16</title>
<g id="a_edge15_Node000013_Node000016"><a xlink:title=" ">
<path fill="none" stroke="#63b8ff" d="M354.75,-54.98C364.6,-47.07 379.49,-35.11 391.36,-25.58"/>
<polygon fill="#63b8ff" stroke="#63b8ff" points="393.74,-28.16 399.34,-19.17 389.36,-22.7 393.74,-28.16"/>
</a>
</g>
</g>
<!-- Node17 -->
<g id="Node000017" class="node">
<title>Node17</title>
<g id="a_Node000017"><a xlink:title=" ">
<polygon fill="#e0e0e0" stroke="#999999" points="517.14,-19 473.14,-19 473.14,0 517.14,0 517.14,-19"/>
<text text-anchor="middle" x="495.14" y="-7" font-family="Helvetica,sans-Serif" font-size="10.00">string</text>
</a>
</g>
</g>
<!-- Node13&#45;&gt;Node17 -->
<g id="edge16_Node000013_Node000017" class="edge">
<title>Node13&#45;&gt;Node17</title>
<g id="a_edge16_Node000013_Node000017"><a xlink:title=" ">
<path fill="none" stroke="#63b8ff" d="M368.4,-54.98C394.21,-45.93 435.13,-31.56 463.46,-21.62"/>
<polygon fill="#63b8ff" stroke="#63b8ff" points="464.63,-24.92 472.91,-18.3 462.31,-18.31 464.63,-24.92"/>
</a>
</g>
</g>
<!-- Node18 -->
<g id="Node000018" class="node">
<title>Node18</title>
<g id="a_Node000018"><a xlink:href="../../db/d41/rmvldef_8hpp.html" target="_top" xlink:title=" ">
<polygon fill="white" stroke="#666666" points="652.64,-19 577.64,-19 577.64,0 652.64,0 652.64,-19"/>
<text text-anchor="middle" x="615.14" y="-7" font-family="Helvetica,sans-Serif" font-size="10.00">rmvldef.hpp</text>
</a>
</g>
</g>
<!-- Node13&#45;&gt;Node18 -->
<g id="edge17_Node000013_Node000018" class="edge">
<title>Node13&#45;&gt;Node18</title>
<g id="a_edge17_Node000013_Node000018"><a xlink:title=" ">
<path fill="none" stroke="#63b8ff" d="M387.68,-54.98C436.81,-45.38 516.49,-29.79 567.32,-19.85"/>
<polygon fill="#63b8ff" stroke="#63b8ff" points="568.25,-23.24 577.39,-17.88 566.91,-16.37 568.25,-23.24"/>
</a>
</g>
</g>
<!-- Node19&#45;&gt;Node18 -->
<g id="edge20_Node000019_Node000018" class="edge">
<title>Node19&#45;&gt;Node18</title>
<g id="a_edge20_Node000019_Node000018"><a xlink:title=" ">
<path fill="none" stroke="#63b8ff" d="M1048.68,-164.59C1053.36,-151.18 1059.64,-125.71 1047.14,-110 999.47,-50.11 765.06,-23.22 662.89,-14.2"/>
<polygon fill="#63b8ff" stroke="#63b8ff" points="663.11,-10.71 652.84,-13.34 662.51,-17.68 663.11,-10.71"/>
</a>
</g>
</g>
<!-- Node20 -->
<g id="Node000020" class="node">
<title>Node20</title>
<g id="a_Node000020"><a xlink:title=" ">
<polygon fill="#e0e0e0" stroke="#999999" points="1197.64,-129 1094.64,-129 1094.64,-110 1197.64,-110 1197.64,-129"/>
<text text-anchor="middle" x="1146.14" y="-117" font-family="Helvetica,sans-Serif" font-size="10.00">opencv2/core.hpp</text>
</a>
</g>
</g>
<!-- Node19&#45;&gt;Node20 -->
<g id="edge19_Node000019_Node000020" class="edge">
<title>Node19&#45;&gt;Node20</title>
<g id="a_edge19_Node000019_Node000020"><a xlink:title=" ">
<path fill="none" stroke="#63b8ff" d="M1061.37,-164.98C1077.32,-156.61 1101.92,-143.7 1120.52,-133.95"/>
<polygon fill="#63b8ff" stroke="#63b8ff" points="1122.39,-136.92 1129.62,-129.17 1119.14,-130.72 1122.39,-136.92"/>
</a>
</g>
</g>
<!-- Node21&#45;&gt;Node13 -->
<g id="edge22_Node000021_Node000013" class="edge">
<title>Node21&#45;&gt;Node13</title>
<g id="a_edge22_Node000021_Node000013"><a xlink:title=" ">
<path fill="none" stroke="#63b8ff" d="M527.96,-109.98C490.31,-100.87 430.48,-86.4 389.37,-76.45"/>
<polygon fill="#63b8ff" stroke="#63b8ff" points="390.15,-73.03 379.6,-74.08 388.5,-79.84 390.15,-73.03"/>
</a>
</g>
</g>
<!-- Node22&#45;&gt;Node11 -->
<g id="edge28_Node000022_Node000011" class="edge">
<title>Node22&#45;&gt;Node11</title>
<g id="a_edge28_Node000022_Node000011"><a xlink:title=" ">
<path fill="none" stroke="#63b8ff" d="M654.74,-164.92C620.23,-156.52 566,-143.27 509.71,-129.12"/>
<polygon fill="#63b8ff" stroke="#63b8ff" points="510.48,-125.71 499.93,-126.66 508.77,-132.49 510.48,-125.71"/>
</a>
</g>
</g>
<!-- Node22&#45;&gt;Node17 -->
<g id="edge27_Node000022_Node000017" class="edge">
<title>Node22&#45;&gt;Node17</title>
<g id="a_edge27_Node000022_Node000017"><a xlink:title=" ">
<path fill="none" stroke="#63b8ff" d="M723.44,-164.95C756.43,-154.8 799.56,-135.91 781.14,-110 750.93,-67.5 595.79,-31.12 527.49,-16.89"/>
<polygon fill="#63b8ff" stroke="#63b8ff" points="527.8,-13.38 517.3,-14.8 526.4,-20.24 527.8,-13.38"/>
</a>
</g>
</g>
<!-- Node22&#45;&gt;Node18 -->
<g id="edge29_Node000022_Node000018" class="edge">
<title>Node22&#45;&gt;Node18</title>
<g id="a_edge29_Node000022_Node000018"><a xlink:title=" ">
<path fill="none" stroke="#63b8ff" d="M681.93,-164.93C674.13,-156.41 662.53,-142.66 655.14,-129 637.21,-95.86 625.21,-53.21 619.34,-29.16"/>
<polygon fill="#63b8ff" stroke="#63b8ff" points="622.7,-28.18 617.01,-19.24 615.89,-29.78 622.7,-28.18"/>
</a>
</g>
</g>
<!-- Node23 -->
<g id="Node000023" class="node">
<title>Node23</title>
<g id="a_Node000023"><a xlink:title=" ">
<polygon fill="#e0e0e0" stroke="#999999" points="706.14,-129 664.14,-129 664.14,-110 706.14,-110 706.14,-129"/>
<text text-anchor="middle" x="685.14" y="-117" font-family="Helvetica,sans-Serif" font-size="10.00">array</text>
</a>
</g>
</g>
<!-- Node22&#45;&gt;Node23 -->
<g id="edge24_Node000022_Node000023" class="edge">
<title>Node22&#45;&gt;Node23</title>
<g id="a_edge24_Node000022_Node000023"><a xlink:title=" ">
<path fill="none" stroke="#63b8ff" d="M689.32,-164.75C688.66,-157.8 687.72,-147.85 686.9,-139.13"/>
<polygon fill="#63b8ff" stroke="#63b8ff" points="690.38,-138.72 685.95,-129.09 683.41,-139.37 690.38,-138.72"/>
</a>
</g>
</g>
<!-- Node24 -->
<g id="Node000024" class="node">
<title>Node24</title>
<g id="a_Node000024"><a xlink:title=" ">
<polygon fill="#e0e0e0" stroke="#999999" points="772.14,-129 724.14,-129 724.14,-110 772.14,-110 772.14,-129"/>
<text text-anchor="middle" x="748.14" y="-117" font-family="Helvetica,sans-Serif" font-size="10.00">iosfwd</text>
</a>
</g>
</g>
<!-- Node22&#45;&gt;Node24 -->
<g id="edge25_Node000022_Node000024" class="edge">
<title>Node22&#45;&gt;Node24</title>
<g id="a_edge25_Node000022_Node000024"><a xlink:title=" ">
<path fill="none" stroke="#63b8ff" d="M699.46,-164.98C707.95,-157.23 720.7,-145.58 731.02,-136.14"/>
<polygon fill="#63b8ff" stroke="#63b8ff" points="733.63,-138.5 738.65,-129.17 728.91,-133.33 733.63,-138.5"/>
</a>
</g>
</g>
<!-- Node25 -->
<g id="Node000025" class="node">
<title>Node25</title>
<g id="a_Node000025"><a xlink:title=" ">
<polygon fill="#e0e0e0" stroke="#999999" points="886.14,-129 828.14,-129 828.14,-110 886.14,-110 886.14,-129"/>
<text text-anchor="middle" x="857.14" y="-117" font-family="Helvetica,sans-Serif" font-size="10.00">memory</text>
</a>
</g>
</g>
<!-- Node22&#45;&gt;Node25 -->
<g id="edge26_Node000022_Node000025" class="edge">
<title>Node22&#45;&gt;Node25</title>
<g id="a_edge26_Node000022_Node000025"><a xlink:title=" ">
<path fill="none" stroke="#63b8ff" d="M716.97,-164.98C745.01,-156.09 789.19,-142.07 820.44,-132.15"/>
<polygon fill="#63b8ff" stroke="#63b8ff" points="821.63,-135.44 830.1,-129.08 819.51,-128.77 821.63,-135.44"/>
</a>
</g>
</g>
<!-- Node26&#45;&gt;Node21 -->
<g id="edge33_Node000026_Node000021" class="edge">
<title>Node26&#45;&gt;Node21</title>
<g id="a_edge33_Node000026_Node000021"><a xlink:title=" ">
<path fill="none" stroke="#63b8ff" d="M801.51,-164.98C751.58,-155.67 671.53,-140.73 618.16,-130.77"/>
<polygon fill="#63b8ff" stroke="#63b8ff" points="618.66,-127.3 608.19,-128.91 617.38,-134.18 618.66,-127.3"/>
</a>
</g>
</g>
<!-- Node26&#45;&gt;Node25 -->
<g id="edge31_Node000026_Node000025" class="edge">
<title>Node26&#45;&gt;Node25</title>
<g id="a_edge31_Node000026_Node000025"><a xlink:title=" ">
<path fill="none" stroke="#63b8ff" d="M848.79,-164.75C850.1,-157.8 851.98,-147.85 853.63,-139.13"/>
<polygon fill="#63b8ff" stroke="#63b8ff" points="857.11,-139.56 855.52,-129.09 850.23,-138.27 857.11,-139.56"/>
</a>
</g>
</g>
<!-- Node27 -->
<g id="Node000027" class="node">
<title>Node27</title>
<g id="a_Node000027"><a xlink:title=" ">
<polygon fill="#e0e0e0" stroke="#999999" points="1037.64,-129 904.64,-129 904.64,-110 1037.64,-110 1037.64,-129"/>
<text text-anchor="middle" x="971.14" y="-117" font-family="Helvetica,sans-Serif" font-size="10.00">opencv2/core/types.hpp</text>
</a>
</g>
</g>
<!-- Node26&#45;&gt;Node27 -->
<g id="edge32_Node000026_Node000027" class="edge">
<title>Node26&#45;&gt;Node27</title>
<g id="a_edge32_Node000026_Node000027"><a xlink:title=" ">
<path fill="none" stroke="#63b8ff" d="M867.06,-164.98C887.19,-156.38 918.52,-142.99 941.55,-133.15"/>
<polygon fill="#63b8ff" stroke="#63b8ff" points="943.04,-136.32 950.86,-129.17 940.29,-129.88 943.04,-136.32"/>
</a>
</g>
</g>
<!-- Node28&#45;&gt;Node18 -->
<g id="edge35_Node000028_Node000018" class="edge">
<title>Node28&#45;&gt;Node18</title>
<g id="a_edge35_Node000028_Node000018"><a xlink:title=" ">
<path fill="none" stroke="#63b8ff" d="M424.14,-329.82C424.14,-311.48 424.14,-267.44 424.14,-230.5 424.14,-230.5 424.14,-230.5 424.14,-118.5 424.14,-52.87 510.64,-26.66 567.22,-16.54"/>
<polygon fill="#63b8ff" stroke="#63b8ff" points="568.12,-19.94 577.41,-14.83 566.97,-13.03 568.12,-19.94"/>
</a>
</g>
</g>
<!-- Node29 -->
<g id="Node000029" class="node">
<title>Node29</title>
<g id="a_Node000029"><a xlink:title=" ">
<polygon fill="#e0e0e0" stroke="#999999" points="395.64,-294 270.64,-294 270.64,-275 395.64,-275 395.64,-294"/>
<text text-anchor="middle" x="333.14" y="-282" font-family="Helvetica,sans-Serif" font-size="10.00">opencv2/core/mat.hpp</text>
</a>
</g>
</g>
<!-- Node28&#45;&gt;Node29 -->
<g id="edge36_Node000028_Node000029" class="edge">
<title>Node28&#45;&gt;Node29</title>
<g id="a_edge36_Node000028_Node000029"><a xlink:title=" ">
<path fill="none" stroke="#63b8ff" d="M409.52,-329.98C395.28,-321.69 373.39,-308.94 356.69,-299.22"/>
<polygon fill="#63b8ff" stroke="#63b8ff" points="358.43,-296.18 348.03,-294.17 354.91,-302.23 358.43,-296.18"/>
</a>
</g>
</g>
<!-- Node30&#45;&gt;Node4 -->
<g id="edge48_Node000030_Node000004" class="edge">
<title>Node30&#45;&gt;Node4</title>
<g id="a_edge48_Node000030_Node000004"><a xlink:title=" ">
<path fill="none" stroke="#63b8ff" d="M714.93,-329.98C693.41,-321.34 659.86,-307.87 635.31,-298.02"/>
<polygon fill="#63b8ff" stroke="#63b8ff" points="636.32,-294.65 625.74,-294.17 633.71,-301.14 636.32,-294.65"/>
</a>
</g>
</g>
<!-- Node30&#45;&gt;Node5 -->
<g id="edge38_Node000030_Node000005" class="edge">
<title>Node30&#45;&gt;Node5</title>
<g id="a_edge38_Node000030_Node000005"><a xlink:title=" ">
<path fill="none" stroke="#63b8ff" d="M729.09,-329.86C718.13,-316.8 695.88,-291.78 673.14,-275 656.11,-262.43 635.05,-251.38 618.15,-243.43"/>
<polygon fill="#63b8ff" stroke="#63b8ff" points="619.29,-240.1 608.74,-239.12 616.38,-246.47 619.29,-240.1"/>
</a>
</g>
</g>
<!-- Node31 -->
<g id="Node000031" class="node">
<title>Node31</title>
<g id="a_Node000031"><a xlink:href="../../db/d0f/kalman_8hpp.html" target="_top" xlink:title="包含轻量级 cv::Matx 的卡尔曼滤波模块">
<polygon fill="white" stroke="#666666" points="1220.64,-294 1071.64,-294 1071.64,-275 1220.64,-275 1220.64,-294"/>
<text text-anchor="middle" x="1146.14" y="-282" font-family="Helvetica,sans-Serif" font-size="10.00">rmvl/algorithm/kalman.hpp</text>
</a>
</g>
</g>
<!-- Node30&#45;&gt;Node31 -->
<g id="edge39_Node000030_Node000031" class="edge">
<title>Node30&#45;&gt;Node31</title>
<g id="a_edge39_Node000030_Node000031"><a xlink:title=" ">
<path fill="none" stroke="#63b8ff" d="M802.02,-329.98C875.13,-320.53 992.95,-305.3 1069.97,-295.35"/>
<polygon fill="#63b8ff" stroke="#63b8ff" points="1070.62,-298.79 1080.09,-294.04 1069.73,-291.85 1070.62,-298.79"/>
</a>
</g>
</g>
<!-- Node33 -->
<g id="Node000033" class="node">
<title>Node33</title>
<g id="a_Node000033"><a xlink:href="../../de/de6/combo_2rune_8h.html" target="_top" xlink:title="神符类头文件">
<polygon fill="white" stroke="#666666" points="870.64,-294 761.64,-294 761.64,-275 870.64,-275 870.64,-294"/>
<text text-anchor="middle" x="816.14" y="-282" font-family="Helvetica,sans-Serif" font-size="10.00">rmvl/combo/rune.h</text>
</a>
</g>
</g>
<!-- Node30&#45;&gt;Node33 -->
<g id="edge42_Node000030_Node000033" class="edge">
<title>Node30&#45;&gt;Node33</title>
<g id="a_edge42_Node000030_Node000033"><a xlink:title=" ">
<path fill="none" stroke="#63b8ff" d="M749,-329.98C761.29,-321.84 780.05,-309.41 794.62,-299.76"/>
<polygon fill="#63b8ff" stroke="#63b8ff" points="796.65,-302.61 803.05,-294.17 792.79,-296.78 796.65,-302.61"/>
</a>
</g>
</g>
<!-- Node31&#45;&gt;Node20 -->
<g id="edge41_Node000031_Node000020" class="edge">
<title>Node31&#45;&gt;Node20</title>
<g id="a_edge41_Node000031_Node000020"><a xlink:title=" ">
<path fill="none" stroke="#63b8ff" d="M1146.14,-274.74C1146.14,-249.31 1146.14,-175.08 1146.14,-139.69"/>
<polygon fill="#63b8ff" stroke="#63b8ff" points="1149.64,-139.31 1146.14,-129.31 1142.64,-139.31 1149.64,-139.31"/>
</a>
</g>
</g>
<!-- Node32 -->
<g id="Node000032" class="node">
<title>Node32</title>
<g id="a_Node000032"><a xlink:title=" ">
<polygon fill="#e0e0e0" stroke="#999999" points="1239.64,-239 1174.64,-239 1174.64,-220 1239.64,-220 1239.64,-239"/>
<text text-anchor="middle" x="1207.14" y="-227" font-family="Helvetica,sans-Serif" font-size="10.00">functional</text>
</a>
</g>
</g>
<!-- Node31&#45;&gt;Node32 -->
<g id="edge40_Node000031_Node000032" class="edge">
<title>Node31&#45;&gt;Node32</title>
<g id="a_edge40_Node000031_Node000032"><a xlink:title=" ">
<path fill="none" stroke="#63b8ff" d="M1155.94,-274.98C1164.96,-267.15 1178.55,-255.34 1189.46,-245.86"/>
<polygon fill="#63b8ff" stroke="#63b8ff" points="1191.91,-248.37 1197.16,-239.17 1187.32,-243.09 1191.91,-248.37"/>
</a>
</g>
</g>
<!-- Node33&#45;&gt;Node6 -->
<g id="edge43_Node000033_Node000006" class="edge">
<title>Node33&#45;&gt;Node6</title>
<g id="a_edge43_Node000033_Node000006"><a xlink:title=" ">
<path fill="none" stroke="#63b8ff" d="M795.9,-274.98C775.45,-266.38 743.61,-252.99 720.21,-243.15"/>
<polygon fill="#63b8ff" stroke="#63b8ff" points="721.33,-239.82 710.75,-239.17 718.61,-246.27 721.33,-239.82"/>
</a>
</g>
</g>
<!-- Node34 -->
<g id="Node000034" class="node">
<title>Node34</title>
<g id="a_Node000034"><a xlink:href="../../d6/d1d/feature_2rune__center_8h.html" target="_top" xlink:title=" ">
<polygon fill="white" stroke="#666666" points="914.14,-239 768.14,-239 768.14,-220 914.14,-220 914.14,-239"/>
<text text-anchor="middle" x="841.14" y="-227" font-family="Helvetica,sans-Serif" font-size="10.00">rmvl/feature/rune_center.h</text>
</a>
</g>
</g>
<!-- Node33&#45;&gt;Node34 -->
<g id="edge44_Node000033_Node000034" class="edge">
<title>Node33&#45;&gt;Node34</title>
<g id="a_edge44_Node000033_Node000034"><a xlink:title=" ">
<path fill="none" stroke="#63b8ff" d="M820.27,-274.75C823.66,-267.57 828.56,-257.18 832.76,-248.27"/>
<polygon fill="#63b8ff" stroke="#63b8ff" points="835.99,-249.63 837.09,-239.09 829.66,-246.64 835.99,-249.63"/>
</a>
</g>
</g>
<!-- Node35 -->
<g id="Node000035" class="node">
<title>Node35</title>
<g id="a_Node000035"><a xlink:href="../../d2/d8d/feature_2rune__target_8h.html" target="_top" xlink:title=" ">
<polygon fill="white" stroke="#666666" points="1078.14,-239 932.14,-239 932.14,-220 1078.14,-220 1078.14,-239"/>
<text text-anchor="middle" x="1005.14" y="-227" font-family="Helvetica,sans-Serif" font-size="10.00">rmvl/feature/rune_target.h</text>
</a>
</g>
</g>
<!-- Node33&#45;&gt;Node35 -->
<g id="edge46_Node000033_Node000035" class="edge">
<title>Node33&#45;&gt;Node35</title>
<g id="a_edge46_Node000033_Node000035"><a xlink:title=" ">
<path fill="none" stroke="#63b8ff" d="M846.51,-274.98C878.51,-266.01 929.1,-251.82 964.52,-241.89"/>
<polygon fill="#63b8ff" stroke="#63b8ff" points="965.85,-245.15 974.54,-239.08 963.96,-238.41 965.85,-245.15"/>
</a>
</g>
</g>
<!-- Node34&#45;&gt;Node26 -->
<g id="edge45_Node000034_Node000026" class="edge">
<title>Node34&#45;&gt;Node26</title>
<g id="a_edge45_Node000034_Node000026"><a xlink:title=" ">
<path fill="none" stroke="#63b8ff" d="M842.13,-219.75C842.92,-212.8 844.05,-202.85 845.03,-194.13"/>
<polygon fill="#63b8ff" stroke="#63b8ff" points="848.52,-194.42 846.17,-184.09 841.57,-193.63 848.52,-194.42"/>
</a>
</g>
</g>
<!-- Node35&#45;&gt;Node26 -->
<g id="edge47_Node000035_Node000026" class="edge">
<title>Node35&#45;&gt;Node26</title>
<g id="a_edge47_Node000035_Node000026"><a xlink:title=" ">
<path fill="none" stroke="#63b8ff" d="M979.76,-219.98C953.34,-211.13 911.8,-197.19 882.25,-187.28"/>
<polygon fill="#63b8ff" stroke="#63b8ff" points="883.32,-183.94 872.73,-184.08 881.09,-190.58 883.32,-183.94"/>
</a>
</g>
</g>
</g>
</svg>

<g id="navigator" transform="translate(0 0)" fill="#404254">
  <rect fill="#f2f5e9" fill-opacity="0.5" stroke="#606060" stroke-width=".5" x="0" y="0" width="60" height="60"/>
  <use id="zoomplus" xlink:href="#zoomPlus" x="17" y="9" onmousedown="handleZoom(evt,'in')"/>
  <use id="zoomminus" xlink:href="#zoomMin" x="42" y="9" onmousedown="handleZoom(evt,'out')"/>
  <use id="reset" xlink:href="#resetDef" x="30" y="36" onmousedown="handleReset()"/>
   <use id="arrowup" xlink:href="#arrowUp" x="0" y="0" onmousedown="handlePan(0,-1)"/>
  <use id="arrowright" xlink:href="#arrowRight" x="0" y="0" onmousedown="handlePan(1,0)"/>
  <use id="arrowdown" xlink:href="#arrowDown" x="0" y="0" onmousedown="handlePan(0,1)"/>
  <use id="arrowleft" xlink:href="#arrowLeft" x="0" y="0" onmousedown="handlePan(-1,0)"/>
</g>
<svg viewBox="0 0 15 15" width="100%" height="30px" preserveAspectRatio="xMaxYMin meet">
 <g id="arrow_out" transform="scale(0.3 0.3)">
  <a xlink:href="detector_2rune__detector_8h__incl_org.svg" target="_base">
   <rect id="button" ry="5" rx="5" y="6" x="6" height="38" width="38"
        fill="#f2f5e9" fill-opacity="0.5" stroke="#606060" stroke-width="1.0"/>
   <path id="arrow"
     d="M 11.500037,31.436501 C 11.940474,20.09759 22.043105,11.32322 32.158766,21.979434 L 37.068811,17.246167 C 37.068811,17.246167 37.088388,32 37.088388,32 L 22.160133,31.978069 C 22.160133,31.978069 26.997745,27.140456 26.997745,27.140456 C 18.528582,18.264221 13.291696,25.230495 11.500037,31.436501 z"
     style="fill:#404040;"/>
  </a>
 </g>
</svg>

<style type='text/css'>
<![CDATA[
[data-mouse-over-selected='false'] { opacity: 0.7; }
[data-mouse-over-selected='true']  { opacity: 1.0; }
]]>
</style>
<script type="application/ecmascript"><![CDATA[
document.addEventListener('DOMContentLoaded', (event) => {
  highlightEdges();
  highlightAdjacentNodes();
});
]]></script>
</svg>
