<?xml version="1.0" encoding="UTF-8" standalone="no"?>
<!DOCTYPE svg PUBLIC "-//W3C//DTD SVG 1.1//EN"
 "http://www.w3.org/Graphics/SVG/1.1/DTD/svg11.dtd">
<!-- Generated by graphviz version 2.43.0 (0)
 -->
<!-- Title: 类继承关系图 Pages: 1 -->
<svg width="243pt" height="138pt"
 viewBox="0.00 0.00 243.00 138.00" xmlns="http://www.w3.org/2000/svg" xmlns:xlink="http://www.w3.org/1999/xlink">
<g id="graph0" class="graph" transform="scale(1 1) rotate(0) translate(4 134)">
<title>类继承关系图</title>
<!-- Node0 -->
<g id="Node000000" class="node">
<title>Node0</title>
<g id="a_Node000000"><a xlink:href="dc/d74/classrm_1_1predictor.html" target="_top" xlink:title="目标预测模块">
<polygon fill="white" stroke="#666666" points="80,-74 0,-74 0,-55 80,-55 80,-74"/>
<text text-anchor="middle" x="40" y="-62" font-family="Helvetica,sans-Serif" font-size="10.00">rm::predictor</text>
</a>
</g>
</g>
<!-- Node1 -->
<g id="Node000001" class="node">
<title>Node1</title>
<g id="a_Node000001"><a xlink:href="d6/df1/classrm_1_1ArmorPredictor.html" target="_top" xlink:title="装甲预测模块">
<polygon fill="white" stroke="#666666" points="230.5,-130 120.5,-130 120.5,-111 230.5,-111 230.5,-130"/>
<text text-anchor="middle" x="175.5" y="-118" font-family="Helvetica,sans-Serif" font-size="10.00">rm::ArmorPredictor</text>
</a>
</g>
</g>
<!-- Node0&#45;&gt;Node1 -->
<g id="edge22_Node000000_Node000001" class="edge">
<title>Node0&#45;&gt;Node1</title>
<g id="a_edge22_Node000000_Node000001"><a xlink:title=" ">
<path fill="none" stroke="#63b8ff" d="M67.04,-79.08C81.24,-86.67 99.28,-95.75 116,-102.5 123.69,-105.6 132.12,-108.49 140.13,-111"/>
<polygon fill="#63b8ff" stroke="#63b8ff" points="68.35,-75.8 57.89,-74.11 65.01,-81.95 68.35,-75.8"/>
</a>
</g>
</g>
<!-- Node2 -->
<g id="Node000002" class="node">
<title>Node2</title>
<g id="a_Node000002"><a xlink:href="d4/d7b/classrm_1_1GyroPredictor.html" target="_top" xlink:title="整车状态预测模块">
<polygon fill="white" stroke="#666666" points="227,-93 124,-93 124,-74 227,-74 227,-93"/>
<text text-anchor="middle" x="175.5" y="-81" font-family="Helvetica,sans-Serif" font-size="10.00">rm::GyroPredictor</text>
</a>
</g>
</g>
<!-- Node0&#45;&gt;Node2 -->
<g id="edge23_Node000000_Node000002" class="edge">
<title>Node0&#45;&gt;Node2</title>
<g id="a_edge23_Node000000_Node000002"><a xlink:title=" ">
<path fill="none" stroke="#63b8ff" d="M90.45,-71.54C101.25,-73.07 112.7,-74.7 123.55,-76.25"/>
<polygon fill="#63b8ff" stroke="#63b8ff" points="90.73,-68.04 80.33,-70.1 89.74,-74.97 90.73,-68.04"/>
</a>
</g>
</g>
<!-- Node3 -->
<g id="Node000003" class="node">
<title>Node3</title>
<g id="a_Node000003"><a xlink:href="db/d9e/classrm_1_1RunePredictor.html" target="_top" xlink:title="神符预测模块">
<polygon fill="white" stroke="#666666" points="227.5,-56 123.5,-56 123.5,-37 227.5,-37 227.5,-56"/>
<text text-anchor="middle" x="175.5" y="-44" font-family="Helvetica,sans-Serif" font-size="10.00">rm::RunePredictor</text>
</a>
</g>
</g>
<!-- Node0&#45;&gt;Node3 -->
<g id="edge24_Node000000_Node000003" class="edge">
<title>Node0&#45;&gt;Node3</title>
<g id="a_edge24_Node000000_Node000003"><a xlink:title=" ">
<path fill="none" stroke="#63b8ff" d="M90.33,-57.85C101,-56.41 112.31,-54.88 123.06,-53.44"/>
<polygon fill="#63b8ff" stroke="#63b8ff" points="89.77,-54.39 80.33,-59.2 90.71,-61.33 89.77,-54.39"/>
</a>
</g>
</g>
<!-- Node4 -->
<g id="Node000004" class="node">
<title>Node4</title>
<g id="a_Node000004"><a xlink:href="d0/d05/classrm_1_1SpiRunePredictor.html" target="_top" xlink:title="系统参数辨识神符预测类">
<polygon fill="white" stroke="#666666" points="235,-19 116,-19 116,0 235,0 235,-19"/>
<text text-anchor="middle" x="175.5" y="-7" font-family="Helvetica,sans-Serif" font-size="10.00">rm::SpiRunePredictor</text>
</a>
</g>
</g>
<!-- Node0&#45;&gt;Node4 -->
<g id="edge25_Node000000_Node000004" class="edge">
<title>Node0&#45;&gt;Node4</title>
<g id="a_edge25_Node000000_Node000004"><a xlink:title=" ">
<path fill="none" stroke="#63b8ff" d="M68.3,-50.31C82.35,-43.29 99.88,-34.95 116,-28.5 124.43,-25.13 133.71,-21.9 142.34,-19.09"/>
<polygon fill="#63b8ff" stroke="#63b8ff" points="66.53,-47.29 59.19,-54.93 69.69,-53.53 66.53,-47.29"/>
</a>
</g>
</g>
</g>
</svg>
