<?xml version="1.0" encoding="UTF-8" standalone="no"?>
<!DOCTYPE svg PUBLIC "-//W3C//DTD SVG 1.1//EN"
 "http://www.w3.org/Graphics/SVG/1.1/DTD/svg11.dtd">
<!-- Generated by graphviz version 2.43.0 (0)
 -->
<!-- Title: rm::GyroGroup Pages: 1 -->
<!--zoomable 773 -->
<svg id="main" version="1.1" xmlns="http://www.w3.org/2000/svg" xmlns:xlink="http://www.w3.org/1999/xlink" xml:space="preserve" onload="init(evt)">
<style type="text/css"><![CDATA[
.edge:hover path { stroke: red; }
.edge:hover polygon { stroke: red; fill: red; }
]]></style>
<script type="text/javascript"><![CDATA[
var edges = document.getElementsByTagName('g');
if (edges && edges.length) {
  for (var i=0;i<edges.length;i++) {
    if (edges[i].id.substr(0,4)=='edge') {
      edges[i].setAttribute('class','edge');
    }
  }
}
]]></script>
        <defs>
                <circle id="rim" cx="0" cy="0" r="7"/>
                <circle id="rim2" cx="0" cy="0" r="3.5"/>
                <g id="zoomPlus">
                        <use xlink:href="#rim" fill="#404040">
                                <set attributeName="fill" to="#808080" begin="zoomplus.mouseover" end="zoomplus.mouseout"/>
                        </use>
                        <path d="M-4,0h8M0,-4v8" fill="none" stroke="white" stroke-width="1.5" pointer-events="none"/>
                </g>
                <g id="zoomMin">
                        <use xlink:href="#rim" fill="#404040">
                                <set attributeName="fill" to="#808080" begin="zoomminus.mouseover" end="zoomminus.mouseout"/>
                        </use>
                        <path d="M-4,0h8" fill="none" stroke="white" stroke-width="1.5" pointer-events="none"/>
                </g>
                <g id="dirArrow">
                        <path fill="none" stroke="white" stroke-width="1.5" d="M0,-3.0v7 M-2.5,-0.5L0,-3.0L2.5,-0.5"/>
                </g>
               <g id="resetDef">
                       <use xlink:href="#rim2" fill="#404040">
                               <set attributeName="fill" to="#808080" begin="reset.mouseover" end="reset.mouseout"/>
                       </use>
               </g>
        </defs>

<script type="text/javascript">
var viewWidth = 971;
var viewHeight = 773;
var sectionId = 'dynsection-1';
</script>
<script xlink:href="../../svgpan.js"/>
<svg id="graph" class="graph">
<g id="viewport">
<title>rm::GyroGroup</title>
<polygon fill="white" stroke="transparent" points="-4,4 -4,-769 966.5,-769 966.5,4 -4,4"/>
<!-- Node1 -->
<g id="node1" class="node">
<title>Node1</title>
<g id="a_node1"><a xlink:title="整车状态序列组">
<polygon fill="#bfbfbf" stroke="black" points="489,-0.5 489,-233.5 655,-233.5 655,-0.5 489,-0.5"/>
<text text-anchor="middle" x="572" y="-221.5" font-family="Helvetica,sans-Serif" font-size="10.00">rm::GyroGroup</text>
<polyline fill="none" stroke="black" points="489,-214.5 655,-214.5 "/>
<text text-anchor="middle" x="572" y="-202.5" font-family="Helvetica,sans-Serif" font-size="10.00"> </text>
<polyline fill="none" stroke="black" points="489,-195.5 655,-195.5 "/>
<text text-anchor="start" x="497" y="-183.5" font-family="Helvetica,sans-Serif" font-size="10.00">+ GyroGroup()</text>
<text text-anchor="start" x="497" y="-172.5" font-family="Helvetica,sans-Serif" font-size="10.00">+ GyroGroup()</text>
<text text-anchor="start" x="497" y="-161.5" font-family="Helvetica,sans-Serif" font-size="10.00">+ GyroGroup()</text>
<text text-anchor="start" x="497" y="-150.5" font-family="Helvetica,sans-Serif" font-size="10.00">+ GyroGroup()</text>
<text text-anchor="start" x="497" y="-139.5" font-family="Helvetica,sans-Serif" font-size="10.00">+ sync()</text>
<text text-anchor="start" x="497" y="-128.5" font-family="Helvetica,sans-Serif" font-size="10.00">+ getTrackerState()</text>
<text text-anchor="start" x="497" y="-117.5" font-family="Helvetica,sans-Serif" font-size="10.00">+ getCenter3D()</text>
<text text-anchor="start" x="497" y="-106.5" font-family="Helvetica,sans-Serif" font-size="10.00">+ getSpeed3D()</text>
<text text-anchor="start" x="497" y="-95.5" font-family="Helvetica,sans-Serif" font-size="10.00">+ getRotatedSpeed()</text>
<text text-anchor="start" x="497" y="-84.5" font-family="Helvetica,sans-Serif" font-size="10.00">+ getGyroData()</text>
<text text-anchor="start" x="497" y="-73.5" font-family="Helvetica,sans-Serif" font-size="10.00">+ getRotStatus()</text>
<text text-anchor="start" x="497" y="-62.5" font-family="Helvetica,sans-Serif" font-size="10.00">+ make_group()</text>
<text text-anchor="start" x="497" y="-51.5" font-family="Helvetica,sans-Serif" font-size="10.00">+ cast()</text>
<text text-anchor="start" x="497" y="-40.5" font-family="Helvetica,sans-Serif" font-size="10.00">+ cast()</text>
<text text-anchor="start" x="497" y="-29.5" font-family="Helvetica,sans-Serif" font-size="10.00">+ calcGroupFrom3DMessage()</text>
<text text-anchor="start" x="497" y="-18.5" font-family="Helvetica,sans-Serif" font-size="10.00">+ constructComboForced()</text>
<text text-anchor="start" x="497" y="-7.5" font-family="Helvetica,sans-Serif" font-size="10.00">+ calcArmorNum()</text>
</a>
</g>
</g>
<!-- Node2 -->
<g id="node2" class="node">
<title>Node2</title>
<g id="a_node2"><a xlink:href="../../d6/d6c/classrm_1_1group.html" target="_top" xlink:title="相关追踪器的空间集合（序列组）">
<polygon fill="white" stroke="black" points="511,-271.5 511,-438.5 633,-438.5 633,-271.5 511,-271.5"/>
<text text-anchor="middle" x="572" y="-426.5" font-family="Helvetica,sans-Serif" font-size="10.00">rm::group</text>
<polyline fill="none" stroke="black" points="511,-419.5 633,-419.5 "/>
<text text-anchor="middle" x="572" y="-407.5" font-family="Helvetica,sans-Serif" font-size="10.00"> </text>
<polyline fill="none" stroke="black" points="511,-400.5 633,-400.5 "/>
<text text-anchor="start" x="519" y="-388.5" font-family="Helvetica,sans-Serif" font-size="10.00">+ group()</text>
<text text-anchor="start" x="519" y="-377.5" font-family="Helvetica,sans-Serif" font-size="10.00">+ ~group()</text>
<text text-anchor="start" x="519" y="-366.5" font-family="Helvetica,sans-Serif" font-size="10.00">+ sync()</text>
<text text-anchor="start" x="519" y="-355.5" font-family="Helvetica,sans-Serif" font-size="10.00">+ add()</text>
<text text-anchor="start" x="519" y="-344.5" font-family="Helvetica,sans-Serif" font-size="10.00">+ data()</text>
<text text-anchor="start" x="519" y="-333.5" font-family="Helvetica,sans-Serif" font-size="10.00">+ size()</text>
<text text-anchor="start" x="519" y="-322.5" font-family="Helvetica,sans-Serif" font-size="10.00">+ empty()</text>
<text text-anchor="start" x="519" y="-311.5" font-family="Helvetica,sans-Serif" font-size="10.00">+ at()</text>
<text text-anchor="start" x="519" y="-300.5" font-family="Helvetica,sans-Serif" font-size="10.00">+ getCenter()</text>
<text text-anchor="start" x="519" y="-289.5" font-family="Helvetica,sans-Serif" font-size="10.00">+ getVanishNumber()</text>
<text text-anchor="start" x="519" y="-278.5" font-family="Helvetica,sans-Serif" font-size="10.00">+ getType()</text>
</a>
</g>
</g>
<!-- Node2&#45;&gt;Node1 -->
<g id="edge1" class="edge">
<title>Node2&#45;&gt;Node1</title>
<path fill="none" stroke="midnightblue" d="M572,-261.31C572,-252.24 572,-242.95 572,-233.69"/>
<polygon fill="none" stroke="midnightblue" points="568.5,-261.46 572,-271.46 575.5,-261.46 568.5,-261.46"/>
</g>
<!-- Node3 -->
<g id="node3" class="node">
<title>Node3</title>
<g id="a_node3"><a xlink:href="../../d0/d01/structrm_1_1RMStatus.html" target="_top" xlink:title="状态类型">
<polygon fill="white" stroke="black" points="324.5,-486.5 324.5,-554.5 407.5,-554.5 407.5,-486.5 324.5,-486.5"/>
<text text-anchor="middle" x="366" y="-542.5" font-family="Helvetica,sans-Serif" font-size="10.00">rm::RMStatus</text>
<polyline fill="none" stroke="black" points="324.5,-535.5 407.5,-535.5 "/>
<text text-anchor="middle" x="366" y="-523.5" font-family="Helvetica,sans-Serif" font-size="10.00"> </text>
<polyline fill="none" stroke="black" points="324.5,-516.5 407.5,-516.5 "/>
<text text-anchor="start" x="332.5" y="-504.5" font-family="Helvetica,sans-Serif" font-size="10.00">+ to_string()</text>
<text text-anchor="start" x="332.5" y="-493.5" font-family="Helvetica,sans-Serif" font-size="10.00">+ to_string()</text>
</a>
</g>
</g>
<!-- Node3&#45;&gt;Node2 -->
<g id="edge2" class="edge">
<title>Node3&#45;&gt;Node2</title>
<path fill="none" stroke="#404040" d="M407.69,-486.41C434.54,-465.1 470.12,-436.86 501.31,-412.1"/>
<polygon fill="none" stroke="#404040" points="501.44,-412 503.65,-405.14 510.84,-404.54 508.63,-411.41 501.44,-412"/>
<text text-anchor="middle" x="464.5" y="-460" font-family="Helvetica,sans-Serif" font-size="10.00"> #_type</text>
</g>
<!-- Node4 -->
<g id="node4" class="node">
<title>Node4</title>
<g id="a_node4"><a xlink:title=" ">
<polygon fill="white" stroke="#bfbfbf" points="0,-602.5 0,-659.5 66,-659.5 66,-602.5 0,-602.5"/>
<text text-anchor="middle" x="33" y="-647.5" font-family="Helvetica,sans-Serif" font-size="10.00">MoveType</text>
<polyline fill="none" stroke="#bfbfbf" points="0,-640.5 66,-640.5 "/>
<text text-anchor="middle" x="33" y="-628.5" font-family="Helvetica,sans-Serif" font-size="10.00"> </text>
<polyline fill="none" stroke="#bfbfbf" points="0,-621.5 66,-621.5 "/>
<text text-anchor="middle" x="33" y="-609.5" font-family="Helvetica,sans-Serif" font-size="10.00"> </text>
</a>
</g>
</g>
<!-- Node4&#45;&gt;Node3 -->
<g id="edge3" class="edge">
<title>Node4&#45;&gt;Node3</title>
<path fill="none" stroke="#404040" d="M46.72,-602.49C53.48,-591.66 62.65,-580.13 74,-573 112.84,-548.6 239.08,-533.22 312.24,-526.12"/>
<polygon fill="none" stroke="#404040" points="312.43,-526.1 318.02,-521.55 324.37,-524.97 318.78,-529.52 312.43,-526.1"/>
<text text-anchor="middle" x="110" y="-576" font-family="Helvetica,sans-Serif" font-size="10.00"> +MoveTypeID</text>
</g>
<!-- Node5 -->
<g id="node5" class="node">
<title>Node5</title>
<g id="a_node5"><a xlink:title=" ">
<polygon fill="white" stroke="#bfbfbf" points="95,-602.5 95,-659.5 159,-659.5 159,-602.5 95,-602.5"/>
<text text-anchor="middle" x="127" y="-647.5" font-family="Helvetica,sans-Serif" font-size="10.00">RuneType</text>
<polyline fill="none" stroke="#bfbfbf" points="95,-640.5 159,-640.5 "/>
<text text-anchor="middle" x="127" y="-628.5" font-family="Helvetica,sans-Serif" font-size="10.00"> </text>
<polyline fill="none" stroke="#bfbfbf" points="95,-621.5 159,-621.5 "/>
<text text-anchor="middle" x="127" y="-609.5" font-family="Helvetica,sans-Serif" font-size="10.00"> </text>
</a>
</g>
</g>
<!-- Node5&#45;&gt;Node3 -->
<g id="edge4" class="edge">
<title>Node5&#45;&gt;Node3</title>
<path fill="none" stroke="#404040" d="M137.44,-602.32C142.72,-591.73 150.14,-580.43 160,-573 204.28,-539.65 267.61,-527.71 312.34,-523.54"/>
<polygon fill="none" stroke="#404040" points="312.47,-523.53 318.12,-519.05 324.43,-522.55 318.77,-527.03 312.47,-523.53"/>
<text text-anchor="middle" x="195" y="-576" font-family="Helvetica,sans-Serif" font-size="10.00"> +RuneTypeID</text>
</g>
<!-- Node6 -->
<g id="node6" class="node">
<title>Node6</title>
<g id="a_node6"><a xlink:title=" ">
<polygon fill="white" stroke="#bfbfbf" points="177.5,-602.5 177.5,-659.5 266.5,-659.5 266.5,-602.5 177.5,-602.5"/>
<text text-anchor="middle" x="222" y="-647.5" font-family="Helvetica,sans-Serif" font-size="10.00">ArmorSizeType</text>
<polyline fill="none" stroke="#bfbfbf" points="177.5,-640.5 266.5,-640.5 "/>
<text text-anchor="middle" x="222" y="-628.5" font-family="Helvetica,sans-Serif" font-size="10.00"> </text>
<polyline fill="none" stroke="#bfbfbf" points="177.5,-621.5 266.5,-621.5 "/>
<text text-anchor="middle" x="222" y="-609.5" font-family="Helvetica,sans-Serif" font-size="10.00"> </text>
</a>
</g>
</g>
<!-- Node6&#45;&gt;Node3 -->
<g id="edge5" class="edge">
<title>Node6&#45;&gt;Node3</title>
<path fill="none" stroke="#404040" d="M226.23,-602.26C228.99,-592.04 233.53,-581.01 241,-573 259.85,-552.8 287.8,-540.28 312.5,-532.66"/>
<polygon fill="none" stroke="#404040" points="312.76,-532.59 317.44,-527.1 324.3,-529.3 319.63,-534.79 312.76,-532.59"/>
<text text-anchor="middle" x="288.5" y="-576" font-family="Helvetica,sans-Serif" font-size="10.00"> +ArmorSizeTypeID</text>
</g>
<!-- Node7 -->
<g id="node7" class="node">
<title>Node7</title>
<g id="a_node7"><a xlink:title=" ">
<polygon fill="white" stroke="#bfbfbf" points="289.5,-602.5 289.5,-659.5 390.5,-659.5 390.5,-602.5 289.5,-602.5"/>
<text text-anchor="middle" x="340" y="-647.5" font-family="Helvetica,sans-Serif" font-size="10.00">CompensateType</text>
<polyline fill="none" stroke="#bfbfbf" points="289.5,-640.5 390.5,-640.5 "/>
<text text-anchor="middle" x="340" y="-628.5" font-family="Helvetica,sans-Serif" font-size="10.00"> </text>
<polyline fill="none" stroke="#bfbfbf" points="289.5,-621.5 390.5,-621.5 "/>
<text text-anchor="middle" x="340" y="-609.5" font-family="Helvetica,sans-Serif" font-size="10.00"> </text>
</a>
</g>
</g>
<!-- Node7&#45;&gt;Node3 -->
<g id="edge6" class="edge">
<title>Node7&#45;&gt;Node3</title>
<path fill="none" stroke="#404040" d="M338.09,-602.44C338.07,-593 338.74,-582.43 341,-573 341.58,-570.58 342.28,-568.15 343.08,-565.72"/>
<polygon fill="none" stroke="#404040" points="343.08,-565.71 341.51,-558.67 347.4,-554.51 348.98,-561.55 343.08,-565.71"/>
<text text-anchor="middle" x="394" y="-576" font-family="Helvetica,sans-Serif" font-size="10.00"> +CompensateTypeID</text>
</g>
<!-- Node8 -->
<g id="node8" class="node">
<title>Node8</title>
<g id="a_node8"><a xlink:title=" ">
<polygon fill="white" stroke="#bfbfbf" points="441,-602.5 441,-659.5 497,-659.5 497,-602.5 441,-602.5"/>
<text text-anchor="middle" x="469" y="-647.5" font-family="Helvetica,sans-Serif" font-size="10.00">TagType</text>
<polyline fill="none" stroke="#bfbfbf" points="441,-640.5 497,-640.5 "/>
<text text-anchor="middle" x="469" y="-628.5" font-family="Helvetica,sans-Serif" font-size="10.00"> </text>
<polyline fill="none" stroke="#bfbfbf" points="441,-621.5 497,-621.5 "/>
<text text-anchor="middle" x="469" y="-609.5" font-family="Helvetica,sans-Serif" font-size="10.00"> </text>
</a>
</g>
</g>
<!-- Node8&#45;&gt;Node3 -->
<g id="edge7" class="edge">
<title>Node8&#45;&gt;Node3</title>
<path fill="none" stroke="#404040" d="M462.24,-602.31C458.84,-592.33 453.92,-581.45 447,-573 439,-563.23 428.63,-554.73 418.01,-547.61"/>
<polygon fill="none" stroke="#404040" points="417.97,-547.59 410.77,-547.78 407.81,-541.2 415.02,-541.01 417.97,-547.59"/>
<text text-anchor="middle" x="484.5" y="-576" font-family="Helvetica,sans-Serif" font-size="10.00"> +TagTypeID</text>
</g>
<!-- Node9 -->
<g id="node9" class="node">
<title>Node9</title>
<g id="a_node9"><a xlink:title=" ">
<polygon fill="white" stroke="#bfbfbf" points="517,-602.5 517,-659.5 585,-659.5 585,-602.5 517,-602.5"/>
<text text-anchor="middle" x="551" y="-647.5" font-family="Helvetica,sans-Serif" font-size="10.00">RobotType</text>
<polyline fill="none" stroke="#bfbfbf" points="517,-640.5 585,-640.5 "/>
<text text-anchor="middle" x="551" y="-628.5" font-family="Helvetica,sans-Serif" font-size="10.00"> </text>
<polyline fill="none" stroke="#bfbfbf" points="517,-621.5 585,-621.5 "/>
<text text-anchor="middle" x="551" y="-609.5" font-family="Helvetica,sans-Serif" font-size="10.00"> </text>
</a>
</g>
</g>
<!-- Node9&#45;&gt;Node3 -->
<g id="edge8" class="edge">
<title>Node9&#45;&gt;Node3</title>
<path fill="none" stroke="#404040" d="M540.61,-602.41C535.49,-591.96 528.36,-580.73 519,-573 499.5,-556.89 488.98,-563.05 465,-555 450.21,-550.03 434.18,-544.62 419.42,-539.62"/>
<polygon fill="none" stroke="#404040" points="419.26,-539.57 412.29,-541.44 407.89,-535.72 414.86,-533.86 419.26,-539.57"/>
<text text-anchor="middle" x="565.5" y="-576" font-family="Helvetica,sans-Serif" font-size="10.00"> +RobotTypeID</text>
</g>
<!-- Node10 -->
<g id="node10" class="node">
<title>Node10</title>
<g id="a_node10"><a xlink:title=" ">
<polygon fill="white" stroke="#bfbfbf" points="603,-602.5 603,-659.5 709,-659.5 709,-602.5 603,-602.5"/>
<text text-anchor="middle" x="656" y="-647.5" font-family="Helvetica,sans-Serif" font-size="10.00">TargetChangeType</text>
<polyline fill="none" stroke="#bfbfbf" points="603,-640.5 709,-640.5 "/>
<text text-anchor="middle" x="656" y="-628.5" font-family="Helvetica,sans-Serif" font-size="10.00"> </text>
<polyline fill="none" stroke="#bfbfbf" points="603,-621.5 709,-621.5 "/>
<text text-anchor="middle" x="656" y="-609.5" font-family="Helvetica,sans-Serif" font-size="10.00"> </text>
</a>
</g>
</g>
<!-- Node10&#45;&gt;Node3 -->
<g id="edge9" class="edge">
<title>Node10&#45;&gt;Node3</title>
<path fill="none" stroke="#404040" d="M638.46,-602.46C630.01,-591.49 618.9,-579.86 606,-573 550.22,-543.33 526.56,-569.2 465,-555 449.93,-551.53 433.93,-546.65 419.28,-541.7"/>
<polygon fill="none" stroke="#404040" points="419.2,-541.67 412.21,-543.48 407.86,-537.73 414.84,-535.92 419.2,-541.67"/>
<text text-anchor="middle" x="678" y="-576" font-family="Helvetica,sans-Serif" font-size="10.00"> +TargetChangeTypeID</text>
</g>
<!-- Node11 -->
<g id="node11" class="node">
<title>Node11</title>
<g id="a_node11"><a xlink:title=" ">
<polygon fill="white" stroke="#bfbfbf" points="474.5,-492 474.5,-549 525.5,-549 525.5,-492 474.5,-492"/>
<text text-anchor="middle" x="500" y="-537" font-family="Helvetica,sans-Serif" font-size="10.00">Point2f</text>
<polyline fill="none" stroke="#bfbfbf" points="474.5,-530 525.5,-530 "/>
<text text-anchor="middle" x="500" y="-518" font-family="Helvetica,sans-Serif" font-size="10.00"> </text>
<polyline fill="none" stroke="#bfbfbf" points="474.5,-511 525.5,-511 "/>
<text text-anchor="middle" x="500" y="-499" font-family="Helvetica,sans-Serif" font-size="10.00"> </text>
</a>
</g>
</g>
<!-- Node11&#45;&gt;Node2 -->
<g id="edge10" class="edge">
<title>Node11&#45;&gt;Node2</title>
<path fill="none" stroke="#404040" d="M507.79,-491.76C511.16,-480.79 515.38,-468.16 520,-457 520.97,-454.65 521.98,-452.28 523.01,-449.9"/>
<polygon fill="none" stroke="#404040" points="523.12,-449.66 521.93,-442.55 528.04,-438.71 529.23,-445.82 523.12,-449.66"/>
<text text-anchor="middle" x="544" y="-460" font-family="Helvetica,sans-Serif" font-size="10.00"> #_center</text>
</g>
<!-- Node12 -->
<g id="node12" class="node">
<title>Node12</title>
<g id="a_node12"><a xlink:title=" ">
<polygon fill="white" stroke="#bfbfbf" points="544,-492 544,-549 600,-549 600,-492 544,-492"/>
<text text-anchor="middle" x="572" y="-537" font-family="Helvetica,sans-Serif" font-size="10.00">uint32_t</text>
<polyline fill="none" stroke="#bfbfbf" points="544,-530 600,-530 "/>
<text text-anchor="middle" x="572" y="-518" font-family="Helvetica,sans-Serif" font-size="10.00"> </text>
<polyline fill="none" stroke="#bfbfbf" points="544,-511 600,-511 "/>
<text text-anchor="middle" x="572" y="-499" font-family="Helvetica,sans-Serif" font-size="10.00"> </text>
</a>
</g>
</g>
<!-- Node12&#45;&gt;Node2 -->
<g id="edge11" class="edge">
<title>Node12&#45;&gt;Node2</title>
<path fill="none" stroke="#404040" d="M572,-491.76C572,-480.05 572,-465.65 572,-450.66"/>
<polygon fill="none" stroke="#404040" points="572,-450.55 568,-444.55 572,-438.55 576,-444.55 572,-450.55"/>
<text text-anchor="middle" x="610" y="-460" font-family="Helvetica,sans-Serif" font-size="10.00"> #_vanish_num</text>
</g>
<!-- Node13 -->
<g id="node13" class="node">
<title>Node13</title>
<g id="a_node13"><a xlink:title=" ">
<polygon fill="white" stroke="#bfbfbf" points="652,-492 652,-549 690,-549 690,-492 652,-492"/>
<text text-anchor="middle" x="671" y="-537" font-family="Helvetica,sans-Serif" font-size="10.00">bool</text>
<polyline fill="none" stroke="#bfbfbf" points="652,-530 690,-530 "/>
<text text-anchor="middle" x="671" y="-518" font-family="Helvetica,sans-Serif" font-size="10.00"> </text>
<polyline fill="none" stroke="#bfbfbf" points="652,-511 690,-511 "/>
<text text-anchor="middle" x="671" y="-499" font-family="Helvetica,sans-Serif" font-size="10.00"> </text>
</a>
</g>
</g>
<!-- Node13&#45;&gt;Node2 -->
<g id="edge12" class="edge">
<title>Node13&#45;&gt;Node2</title>
<path fill="none" stroke="#404040" d="M663.36,-491.95C659.74,-480.76 654.9,-467.93 649,-457 646.13,-451.68 642.99,-446.34 639.67,-441.05"/>
<polygon fill="none" stroke="#404040" points="639.64,-441 633.01,-438.15 633.09,-430.94 639.72,-433.79 639.64,-441"/>
<text text-anchor="middle" x="687.5" y="-460" font-family="Helvetica,sans-Serif" font-size="10.00"> #_is_tracked</text>
</g>
<!-- Node14 -->
<g id="node14" class="node">
<title>Node14</title>
<g id="a_node14"><a xlink:title=" ">
<polygon fill="white" stroke="#bfbfbf" points="732.5,-486.5 732.5,-554.5 845.5,-554.5 845.5,-486.5 732.5,-486.5"/>
<text text-anchor="start" x="740.5" y="-542.5" font-family="Helvetica,sans-Serif" font-size="10.00">std::vector&lt; tracker</text>
<text text-anchor="middle" x="789" y="-531.5" font-family="Helvetica,sans-Serif" font-size="10.00">::ptr &gt;</text>
<polyline fill="none" stroke="#bfbfbf" points="732.5,-524.5 845.5,-524.5 "/>
<text text-anchor="middle" x="789" y="-512.5" font-family="Helvetica,sans-Serif" font-size="10.00"> </text>
<polyline fill="none" stroke="#bfbfbf" points="732.5,-505.5 845.5,-505.5 "/>
<text text-anchor="middle" x="789" y="-493.5" font-family="Helvetica,sans-Serif" font-size="10.00"> </text>
</a>
</g>
</g>
<!-- Node14&#45;&gt;Node2 -->
<g id="edge13" class="edge">
<title>Node14&#45;&gt;Node2</title>
<path fill="none" stroke="#404040" d="M757.55,-486.45C747.52,-476.56 736.12,-465.97 725,-457 699.52,-436.45 669.81,-416.12 643.4,-399.13"/>
<polygon fill="none" stroke="#404040" points="643.19,-399 635.98,-399.15 633.07,-392.56 640.28,-392.4 643.19,-399"/>
<text text-anchor="middle" x="765" y="-460" font-family="Helvetica,sans-Serif" font-size="10.00"> #_trackers</text>
</g>
<!-- Node15 -->
<g id="node15" class="node">
<title>Node15</title>
<g id="a_node15"><a xlink:title=" ">
<polygon fill="white" stroke="#bfbfbf" points="729,-602.5 729,-659.5 847,-659.5 847,-602.5 729,-602.5"/>
<text text-anchor="middle" x="788" y="-647.5" font-family="Helvetica,sans-Serif" font-size="10.00">std::shared_ptr&lt; T &gt;</text>
<polyline fill="none" stroke="#bfbfbf" points="729,-640.5 847,-640.5 "/>
<text text-anchor="middle" x="788" y="-628.5" font-family="Helvetica,sans-Serif" font-size="10.00"> </text>
<polyline fill="none" stroke="#bfbfbf" points="729,-621.5 847,-621.5 "/>
<text text-anchor="start" x="737" y="-609.5" font-family="Helvetica,sans-Serif" font-size="10.00">+ operator&#45;&gt;()</text>
</a>
</g>
</g>
<!-- Node15&#45;&gt;Node14 -->
<g id="edge14" class="edge">
<title>Node15&#45;&gt;Node14</title>
<path fill="none" stroke="#404040" d="M788.25,-602.34C788.35,-591.53 788.47,-578.85 788.58,-566.77"/>
<polygon fill="none" stroke="#404040" points="788.58,-566.52 784.64,-560.48 788.7,-554.52 792.64,-560.56 788.58,-566.52"/>
<text text-anchor="middle" x="818" y="-576" font-family="Helvetica,sans-Serif" font-size="10.00"> +elements</text>
</g>
<!-- Node16 -->
<g id="node16" class="node">
<title>Node16</title>
<g id="a_node16"><a xlink:title=" ">
<polygon fill="white" stroke="#bfbfbf" points="836.5,-707.5 836.5,-764.5 865.5,-764.5 865.5,-707.5 836.5,-707.5"/>
<text text-anchor="middle" x="851" y="-752.5" font-family="Helvetica,sans-Serif" font-size="10.00">T</text>
<polyline fill="none" stroke="#bfbfbf" points="836.5,-745.5 865.5,-745.5 "/>
<text text-anchor="middle" x="851" y="-733.5" font-family="Helvetica,sans-Serif" font-size="10.00"> </text>
<polyline fill="none" stroke="#bfbfbf" points="836.5,-726.5 865.5,-726.5 "/>
<text text-anchor="middle" x="851" y="-714.5" font-family="Helvetica,sans-Serif" font-size="10.00"> </text>
</a>
</g>
</g>
<!-- Node16&#45;&gt;Node15 -->
<g id="edge15" class="edge">
<title>Node16&#45;&gt;Node15</title>
<path fill="none" stroke="#404040" d="M836.39,-711.11C828.99,-699.01 819.82,-684.03 811.47,-670.37"/>
<polygon fill="none" stroke="#404040" points="811.25,-670.01 804.7,-666.98 804.99,-659.77 811.53,-662.8 811.25,-670.01"/>
<text text-anchor="middle" x="834.5" y="-681" font-family="Helvetica,sans-Serif" font-size="10.00"> +ptr</text>
</g>
<!-- Node17 -->
<g id="node17" class="node">
<title>Node17</title>
<g id="a_node17"><a xlink:title=" ">
<polygon fill="white" stroke="#bfbfbf" points="865.5,-602.5 865.5,-659.5 962.5,-659.5 962.5,-602.5 865.5,-602.5"/>
<text text-anchor="middle" x="914" y="-647.5" font-family="Helvetica,sans-Serif" font-size="10.00">std::vector&lt; T &gt;</text>
<polyline fill="none" stroke="#bfbfbf" points="865.5,-640.5 962.5,-640.5 "/>
<text text-anchor="middle" x="914" y="-628.5" font-family="Helvetica,sans-Serif" font-size="10.00"> </text>
<polyline fill="none" stroke="#bfbfbf" points="865.5,-621.5 962.5,-621.5 "/>
<text text-anchor="middle" x="914" y="-609.5" font-family="Helvetica,sans-Serif" font-size="10.00"> </text>
</a>
</g>
</g>
<!-- Node16&#45;&gt;Node17 -->
<g id="edge17" class="edge">
<title>Node16&#45;&gt;Node17</title>
<path fill="none" stroke="#404040" d="M865.61,-711.11C873.01,-699.01 882.18,-684.03 890.53,-670.37"/>
<polygon fill="none" stroke="#404040" points="890.75,-670.01 890.47,-662.8 897.01,-659.77 897.3,-666.98 890.75,-670.01"/>
<text text-anchor="middle" x="914" y="-681" font-family="Helvetica,sans-Serif" font-size="10.00"> +elements</text>
</g>
<!-- Node17&#45;&gt;Node14 -->
<g id="edge16" class="edge">
<title>Node17&#45;&gt;Node14</title>
<path fill="none" stroke="orange" d="M876.6,-595.69C868.23,-588.15 859.36,-580.25 851,-573 844.13,-567.04 836.75,-560.79 829.56,-554.78"/>
<polygon fill="orange" stroke="orange" points="874.35,-598.37 884.11,-602.48 879.04,-593.18 874.35,-598.37"/>
<text text-anchor="middle" x="903.5" y="-576" font-family="Helvetica,sans-Serif" font-size="10.00"> &lt; tracker::ptr &gt;</text>
</g>
</g>
</svg>
        <g id="navigator" transform="translate(0 0)" fill="#404254">
                <rect fill="#f2f5e9" fill-opacity="0.5" stroke="#606060" stroke-width=".5" x="0" y="0" width="60" height="60"/>
                <use id="zoomplus" xlink:href="#zoomPlus" x="17" y="9" onmousedown="handleZoom(evt,'in')"/>
                <use id="zoomminus" xlink:href="#zoomMin" x="42" y="9" onmousedown="handleZoom(evt,'out')"/>
                <use id="reset" xlink:href="#resetDef" x="30" y="36" onmousedown="handleReset()"/>
                <g id="arrowUp" xlink:href="#dirArrow" transform="translate(30 24)" onmousedown="handlePan(0,-1)">
                  <use xlink:href="#rim" fill="#404040">
                        <set attributeName="fill" to="#808080" begin="arrowUp.mouseover" end="arrowUp.mouseout"/>
                  </use>
                  <path fill="none" stroke="white" stroke-width="1.5" d="M0,-3.0v7 M-2.5,-0.5L0,-3.0L2.5,-0.5"/>
                </g>
                <g id="arrowRight" xlink:href="#dirArrow" transform="rotate(90) translate(36 -43)" onmousedown="handlePan(1,0)">
                  <use xlink:href="#rim" fill="#404040">
                        <set attributeName="fill" to="#808080" begin="arrowRight.mouseover" end="arrowRight.mouseout"/>
                  </use>
                  <path fill="none" stroke="white" stroke-width="1.5" d="M0,-3.0v7 M-2.5,-0.5L0,-3.0L2.5,-0.5"/>
                </g>
                <g id="arrowDown" xlink:href="#dirArrow" transform="rotate(180) translate(-30 -48)" onmousedown="handlePan(0,1)">
                  <use xlink:href="#rim" fill="#404040">
                        <set attributeName="fill" to="#808080" begin="arrowDown.mouseover" end="arrowDown.mouseout"/>
                  </use>
                  <path fill="none" stroke="white" stroke-width="1.5" d="M0,-3.0v7 M-2.5,-0.5L0,-3.0L2.5,-0.5"/>
                </g>
                <g id="arrowLeft" xlink:href="#dirArrow" transform="rotate(270) translate(-36 17)" onmousedown="handlePan(-1,0)">
                  <use xlink:href="#rim" fill="#404040">
                        <set attributeName="fill" to="#808080" begin="arrowLeft.mouseover" end="arrowLeft.mouseout"/>
                  </use>
                  <path fill="none" stroke="white" stroke-width="1.5" d="M0,-3.0v7 M-2.5,-0.5L0,-3.0L2.5,-0.5"/>
                </g>
        </g>
        <svg viewBox="0 0 15 15" width="100%" height="30px" preserveAspectRatio="xMaxYMin meet">
         <g id="arrow_out" transform="scale(0.3 0.3)">
          <a xlink:href="classrm_1_1GyroGroup__coll__graph_org.svg" target="_base">
           <rect id="button" ry="5" rx="5" y="6" x="6" height="38" width="38"
                fill="#f2f5e9" fill-opacity="0.5" stroke="#606060" stroke-width="1.0"/>
           <path id="arrow"
             d="M 11.500037,31.436501 C 11.940474,20.09759 22.043105,11.32322 32.158766,21.979434 L 37.068811,17.246167 C 37.068811,17.246167 37.088388,32 37.088388,32 L 22.160133,31.978069 C 22.160133,31.978069 26.997745,27.140456 26.997745,27.140456 C 18.528582,18.264221 13.291696,25.230495 11.500037,31.436501 z"
             style="fill:#404040;"/>
          </a>
         </g>
        </svg>
</svg>
