<?xml version="1.0" encoding="UTF-8" standalone="no"?>
<!DOCTYPE svg PUBLIC "-//W3C//DTD SVG 1.1//EN"
 "http://www.w3.org/Graphics/SVG/1.1/DTD/svg11.dtd">
<!-- Generated by graphviz version 2.43.0 (0)
 -->
<!-- Title: rm::LightBlob Pages: 1 -->
<svg width="101pt" height="382pt"
 viewBox="0.00 0.00 101.00 382.00" xmlns="http://www.w3.org/2000/svg" xmlns:xlink="http://www.w3.org/1999/xlink">
<g id="graph0" class="graph" transform="scale(1 1) rotate(0) translate(4 378)">
<title>rm::LightBlob</title>
<!-- Node1 -->
<g id="Node000001" class="node">
<title>Node1</title>
<g id="a_Node000001"><a xlink:title="装甲板灯条">
<polygon fill="#999999" stroke="transparent" points="93,-109 0,-109 0,0 93,0 93,-109"/>
<text text-anchor="start" x="18" y="-96.5" font-family="Helvetica,sans-Serif" font-size="10.00">rm::LightBlob</text>
<text text-anchor="start" x="45" y="-81.5" font-family="Helvetica,sans-Serif" font-size="10.00"> </text>
<text text-anchor="start" x="4.5" y="-66.5" font-family="Helvetica,sans-Serif" font-size="10.00">+</text>
<text text-anchor="start" x="15.5" y="-66.5" font-family="Helvetica,sans-Serif" font-size="10.00">getTopPoint()</text>
<text text-anchor="start" x="4.5" y="-51.5" font-family="Helvetica,sans-Serif" font-size="10.00">+</text>
<text text-anchor="start" x="15.5" y="-51.5" font-family="Helvetica,sans-Serif" font-size="10.00">getBottomPoint()</text>
<text text-anchor="start" x="4.5" y="-36.5" font-family="Helvetica,sans-Serif" font-size="10.00">+</text>
<text text-anchor="start" x="15.5" y="-36.5" font-family="Helvetica,sans-Serif" font-size="10.00">clone()</text>
<text text-anchor="start" x="4.5" y="-21.5" font-family="Helvetica,sans-Serif" font-size="10.00">+</text>
<text text-anchor="start" x="15.5" y="-21.5" font-family="Helvetica,sans-Serif" font-size="10.00">make_feature()</text>
<text text-anchor="start" x="4.5" y="-6.5" font-family="Helvetica,sans-Serif" font-size="10.00">+</text>
<text text-anchor="start" x="15.5" y="-6.5" font-family="Helvetica,sans-Serif" font-size="10.00">make_feature()</text>
<polygon fill="#666666" stroke="#666666" points="0.5,-91.5 0.5,-91.5 93.5,-91.5 93.5,-91.5 0.5,-91.5"/>
<polygon fill="#666666" stroke="#666666" points="0.5,-76.5 0.5,-76.5 93.5,-76.5 93.5,-76.5 0.5,-76.5"/>
<polygon fill="none" stroke="#666666" points="0,0 0,-109 93,-109 93,0 0,0"/>
</a>
</g>
</g>
<!-- Node2 -->
<g id="Node000002" class="node">
<title>Node2</title>
<g id="a_Node000002"><a xlink:href="../../df/db7/classrm_1_1feature.html" target="_top" xlink:title="图像中的轮廓特征">
<polygon fill="white" stroke="transparent" points="75.5,-374 17.5,-374 17.5,-145 75.5,-145 75.5,-374"/>
<text text-anchor="start" x="22.5" y="-361.5" font-family="Helvetica,sans-Serif" font-size="10.00">rm::feature</text>
<text text-anchor="start" x="22" y="-346.5" font-family="Helvetica,sans-Serif" font-size="10.00">#</text>
<text text-anchor="start" x="32.5" y="-346.5" font-family="Helvetica,sans-Serif" font-size="10.00">_width</text>
<text text-anchor="start" x="22" y="-331.5" font-family="Helvetica,sans-Serif" font-size="10.00">#</text>
<text text-anchor="start" x="32.5" y="-331.5" font-family="Helvetica,sans-Serif" font-size="10.00">_height</text>
<text text-anchor="start" x="22" y="-316.5" font-family="Helvetica,sans-Serif" font-size="10.00">#</text>
<text text-anchor="start" x="32.5" y="-316.5" font-family="Helvetica,sans-Serif" font-size="10.00">_angle</text>
<text text-anchor="start" x="22" y="-301.5" font-family="Helvetica,sans-Serif" font-size="10.00">#</text>
<text text-anchor="start" x="32.5" y="-301.5" font-family="Helvetica,sans-Serif" font-size="10.00">_center</text>
<text text-anchor="start" x="22" y="-286.5" font-family="Helvetica,sans-Serif" font-size="10.00">#</text>
<text text-anchor="start" x="32.5" y="-286.5" font-family="Helvetica,sans-Serif" font-size="10.00">_corners</text>
<text text-anchor="start" x="22" y="-271.5" font-family="Helvetica,sans-Serif" font-size="10.00">#</text>
<text text-anchor="start" x="32.5" y="-271.5" font-family="Helvetica,sans-Serif" font-size="10.00">_type</text>
<text text-anchor="start" x="21.5" y="-256.5" font-family="Helvetica,sans-Serif" font-size="10.00">+</text>
<text text-anchor="start" x="32.5" y="-256.5" font-family="Helvetica,sans-Serif" font-size="10.00">clone()</text>
<text text-anchor="start" x="21.5" y="-241.5" font-family="Helvetica,sans-Serif" font-size="10.00">+</text>
<text text-anchor="start" x="32.5" y="-241.5" font-family="Helvetica,sans-Serif" font-size="10.00">area()</text>
<text text-anchor="start" x="21.5" y="-226.5" font-family="Helvetica,sans-Serif" font-size="10.00">+</text>
<text text-anchor="start" x="32.5" y="-226.5" font-family="Helvetica,sans-Serif" font-size="10.00">center()</text>
<text text-anchor="start" x="21.5" y="-211.5" font-family="Helvetica,sans-Serif" font-size="10.00">+</text>
<text text-anchor="start" x="32.5" y="-211.5" font-family="Helvetica,sans-Serif" font-size="10.00">width()</text>
<text text-anchor="start" x="21.5" y="-196.5" font-family="Helvetica,sans-Serif" font-size="10.00">+</text>
<text text-anchor="start" x="32.5" y="-196.5" font-family="Helvetica,sans-Serif" font-size="10.00">height()</text>
<text text-anchor="start" x="21.5" y="-181.5" font-family="Helvetica,sans-Serif" font-size="10.00">+</text>
<text text-anchor="start" x="32.5" y="-181.5" font-family="Helvetica,sans-Serif" font-size="10.00">angle()</text>
<text text-anchor="start" x="21.5" y="-166.5" font-family="Helvetica,sans-Serif" font-size="10.00">+</text>
<text text-anchor="start" x="32.5" y="-166.5" font-family="Helvetica,sans-Serif" font-size="10.00">corners()</text>
<text text-anchor="start" x="21.5" y="-151.5" font-family="Helvetica,sans-Serif" font-size="10.00">+</text>
<text text-anchor="start" x="32.5" y="-151.5" font-family="Helvetica,sans-Serif" font-size="10.00">type()</text>
<polygon fill="#666666" stroke="#666666" points="17.5,-356.5 17.5,-356.5 75.5,-356.5 75.5,-356.5 17.5,-356.5"/>
<polygon fill="#666666" stroke="#666666" points="17.5,-266.5 17.5,-266.5 30.5,-266.5 30.5,-266.5 17.5,-266.5"/>
<polygon fill="#666666" stroke="#666666" points="30.5,-266.5 30.5,-266.5 75.5,-266.5 75.5,-266.5 30.5,-266.5"/>
<polygon fill="none" stroke="#666666" points="17.5,-145 17.5,-374 75.5,-374 75.5,-145 17.5,-145"/>
</a>
</g>
</g>
<!-- Node2&#45;&gt;Node1 -->
<g id="edge1_Node000001_Node000002" class="edge">
<title>Node2&#45;&gt;Node1</title>
<g id="a_edge1_Node000001_Node000002"><a xlink:title=" ">
<path fill="none" stroke="#63b8ff" d="M46.5,-134.8C46.5,-125.98 46.5,-117.4 46.5,-109.34"/>
<polygon fill="none" stroke="#63b8ff" points="43,-134.83 46.5,-144.83 50,-134.83 43,-134.83"/>
</a>
</g>
</g>
</g>
</svg>
