<?xml version="1.0" encoding="UTF-8" standalone="no"?>
<!DOCTYPE svg PUBLIC "-//W3C//DTD SVG 1.1//EN"
 "http://www.w3.org/Graphics/SVG/1.1/DTD/svg11.dtd">
<!-- Generated by graphviz version 2.43.0 (0)
 -->
<!-- Title: rm::tracker Pages: 1 -->
<svg width="492pt" height="607pt"
 viewBox="0.00 0.00 492.00 607.00" xmlns="http://www.w3.org/2000/svg" xmlns:xlink="http://www.w3.org/1999/xlink">
<g id="graph0" class="graph" transform="scale(1 1) rotate(0) translate(4 603)">
<title>rm::tracker</title>
<!-- Node1 -->
<g id="Node000001" class="node">
<title>Node1</title>
<g id="a_Node000001"><a xlink:title="组合体时间序列">
<polygon fill="#999999" stroke="transparent" points="300.5,-599 184.5,-599 184.5,-250 300.5,-250 300.5,-599"/>
<text text-anchor="start" x="215.5" y="-586.5" font-family="Helvetica,sans-Serif" font-size="10.00">rm::tracker</text>
<text text-anchor="start" x="188.5" y="-571.5" font-family="Helvetica,sans-Serif" font-size="10.00">#</text>
<text text-anchor="start" x="201.5" y="-571.5" font-family="Helvetica,sans-Serif" font-size="10.00">_combo_deque</text>
<text text-anchor="start" x="188.5" y="-556.5" font-family="Helvetica,sans-Serif" font-size="10.00">#</text>
<text text-anchor="start" x="201.5" y="-556.5" font-family="Helvetica,sans-Serif" font-size="10.00">_vanish_num</text>
<text text-anchor="start" x="188.5" y="-541.5" font-family="Helvetica,sans-Serif" font-size="10.00">#</text>
<text text-anchor="start" x="201.5" y="-541.5" font-family="Helvetica,sans-Serif" font-size="10.00">_type</text>
<text text-anchor="start" x="188.5" y="-526.5" font-family="Helvetica,sans-Serif" font-size="10.00">#</text>
<text text-anchor="start" x="201.5" y="-526.5" font-family="Helvetica,sans-Serif" font-size="10.00">_height</text>
<text text-anchor="start" x="188.5" y="-511.5" font-family="Helvetica,sans-Serif" font-size="10.00">#</text>
<text text-anchor="start" x="201.5" y="-511.5" font-family="Helvetica,sans-Serif" font-size="10.00">_width</text>
<text text-anchor="start" x="188.5" y="-496.5" font-family="Helvetica,sans-Serif" font-size="10.00">#</text>
<text text-anchor="start" x="201.5" y="-496.5" font-family="Helvetica,sans-Serif" font-size="10.00">_angle</text>
<text text-anchor="start" x="188.5" y="-481.5" font-family="Helvetica,sans-Serif" font-size="10.00">#</text>
<text text-anchor="start" x="201.5" y="-481.5" font-family="Helvetica,sans-Serif" font-size="10.00">_center</text>
<text text-anchor="start" x="188.5" y="-466.5" font-family="Helvetica,sans-Serif" font-size="10.00">#</text>
<text text-anchor="start" x="201.5" y="-466.5" font-family="Helvetica,sans-Serif" font-size="10.00">_relative_angle</text>
<text text-anchor="start" x="188.5" y="-451.5" font-family="Helvetica,sans-Serif" font-size="10.00">#</text>
<text text-anchor="start" x="201.5" y="-451.5" font-family="Helvetica,sans-Serif" font-size="10.00">_corners</text>
<text text-anchor="start" x="188.5" y="-436.5" font-family="Helvetica,sans-Serif" font-size="10.00">#</text>
<text text-anchor="start" x="201.5" y="-436.5" font-family="Helvetica,sans-Serif" font-size="10.00">_extrinsic</text>
<text text-anchor="start" x="188.5" y="-421.5" font-family="Helvetica,sans-Serif" font-size="10.00">#</text>
<text text-anchor="start" x="201.5" y="-421.5" font-family="Helvetica,sans-Serif" font-size="10.00">_speed</text>
<text text-anchor="start" x="188.5" y="-406.5" font-family="Helvetica,sans-Serif" font-size="10.00">+</text>
<text text-anchor="start" x="201.5" y="-406.5" font-family="Helvetica,sans-Serif" font-size="10.00">clone()</text>
<text text-anchor="start" x="188.5" y="-391.5" font-family="Helvetica,sans-Serif" font-size="10.00">+</text>
<text text-anchor="start" x="201.5" y="-391.5" font-family="Helvetica,sans-Serif" font-size="10.00">update()</text>
<text text-anchor="start" x="188.5" y="-376.5" font-family="Helvetica,sans-Serif" font-size="10.00">+</text>
<text text-anchor="start" x="201.5" y="-376.5" font-family="Helvetica,sans-Serif" font-size="10.00">update()</text>
<text text-anchor="start" x="188.5" y="-361.5" font-family="Helvetica,sans-Serif" font-size="10.00">+</text>
<text text-anchor="start" x="201.5" y="-361.5" font-family="Helvetica,sans-Serif" font-size="10.00">front()</text>
<text text-anchor="start" x="188.5" y="-346.5" font-family="Helvetica,sans-Serif" font-size="10.00">+</text>
<text text-anchor="start" x="201.5" y="-346.5" font-family="Helvetica,sans-Serif" font-size="10.00">back()</text>
<text text-anchor="start" x="188.5" y="-331.5" font-family="Helvetica,sans-Serif" font-size="10.00">+</text>
<text text-anchor="start" x="201.5" y="-331.5" font-family="Helvetica,sans-Serif" font-size="10.00">getVanishNumber()</text>
<text text-anchor="start" x="188.5" y="-316.5" font-family="Helvetica,sans-Serif" font-size="10.00">+</text>
<text text-anchor="start" x="201.5" y="-316.5" font-family="Helvetica,sans-Serif" font-size="10.00">size()</text>
<text text-anchor="start" x="188.5" y="-301.5" font-family="Helvetica,sans-Serif" font-size="10.00">+</text>
<text text-anchor="start" x="201.5" y="-301.5" font-family="Helvetica,sans-Serif" font-size="10.00">data()</text>
<text text-anchor="start" x="188.5" y="-286.5" font-family="Helvetica,sans-Serif" font-size="10.00">+</text>
<text text-anchor="start" x="201.5" y="-286.5" font-family="Helvetica,sans-Serif" font-size="10.00">empty()</text>
<text text-anchor="start" x="188.5" y="-271.5" font-family="Helvetica,sans-Serif" font-size="10.00">+</text>
<text text-anchor="start" x="201.5" y="-271.5" font-family="Helvetica,sans-Serif" font-size="10.00">at()</text>
<text text-anchor="start" x="201.5" y="-256.5" font-family="Helvetica,sans-Serif" font-size="10.00">和 9 更多...</text>
<polygon fill="#666666" stroke="#666666" points="184.5,-581.5 184.5,-581.5 300.5,-581.5 300.5,-581.5 184.5,-581.5"/>
<polygon fill="#666666" stroke="#666666" points="184.5,-416.5 184.5,-416.5 199.5,-416.5 199.5,-416.5 184.5,-416.5"/>
<polygon fill="#666666" stroke="#666666" points="199.5,-416.5 199.5,-416.5 300.5,-416.5 300.5,-416.5 199.5,-416.5"/>
<polygon fill="none" stroke="#666666" points="184.5,-250 184.5,-599 300.5,-599 300.5,-250 184.5,-250"/>
</a>
</g>
</g>
<!-- Node2 -->
<g id="Node000002" class="node">
<title>Node2</title>
<g id="a_Node000002"><a xlink:href="../../d3/d25/classrm_1_1DefaultTracker.html" target="_top" xlink:title="默认追踪器，时间序列仅用于存储组合体，可退化为 combos 使用">
<polygon fill="white" stroke="transparent" points="101,-169 0,-169 0,-45 101,-45 101,-169"/>
<text text-anchor="start" x="5.5" y="-157" font-family="Helvetica,sans-Serif" font-size="10.00">rm::DefaultTracker</text>
<text text-anchor="start" x="49" y="-142" font-family="Helvetica,sans-Serif" font-size="10.00"> </text>
<text text-anchor="start" x="4.5" y="-127" font-family="Helvetica,sans-Serif" font-size="10.00">+</text>
<text text-anchor="start" x="17.5" y="-127" font-family="Helvetica,sans-Serif" font-size="10.00">DefaultTracker()</text>
<text text-anchor="start" x="4.5" y="-112" font-family="Helvetica,sans-Serif" font-size="10.00">+</text>
<text text-anchor="start" x="17.5" y="-112" font-family="Helvetica,sans-Serif" font-size="10.00">DefaultTracker()</text>
<text text-anchor="start" x="4.5" y="-97" font-family="Helvetica,sans-Serif" font-size="10.00">+</text>
<text text-anchor="start" x="17.5" y="-97" font-family="Helvetica,sans-Serif" font-size="10.00">clone()</text>
<text text-anchor="start" x="4.5" y="-82" font-family="Helvetica,sans-Serif" font-size="10.00">+</text>
<text text-anchor="start" x="17.5" y="-82" font-family="Helvetica,sans-Serif" font-size="10.00">update()</text>
<text text-anchor="start" x="4.5" y="-67" font-family="Helvetica,sans-Serif" font-size="10.00">+</text>
<text text-anchor="start" x="17.5" y="-67" font-family="Helvetica,sans-Serif" font-size="10.00">update()</text>
<text text-anchor="start" x="4.5" y="-52" font-family="Helvetica,sans-Serif" font-size="10.00">+</text>
<text text-anchor="start" x="17.5" y="-52" font-family="Helvetica,sans-Serif" font-size="10.00">make_tracker()</text>
<polygon fill="#666666" stroke="#666666" points="0.5,-152 0.5,-152 101.5,-152 101.5,-152 0.5,-152"/>
<polygon fill="#666666" stroke="#666666" points="0.5,-137 0.5,-137 101.5,-137 101.5,-137 0.5,-137"/>
<polygon fill="none" stroke="#666666" points="0,-45 0,-169 101,-169 101,-45 0,-45"/>
</a>
</g>
</g>
<!-- Node1&#45;&gt;Node2 -->
<g id="edge1_Node000001_Node000002" class="edge">
<title>Node1&#45;&gt;Node2</title>
<g id="a_edge1_Node000001_Node000002"><a xlink:title=" ">
<path fill="none" stroke="#63b8ff" d="M178.78,-325.71C156.42,-290.74 131.43,-250.86 109.5,-214 100.94,-199.61 92,-183.94 83.75,-169.16"/>
<polygon fill="none" stroke="#63b8ff" points="176.06,-327.96 184.4,-334.49 181.95,-324.18 176.06,-327.96"/>
</a>
</g>
</g>
<!-- Node3 -->
<g id="Node000003" class="node">
<title>Node3</title>
<g id="a_Node000003"><a xlink:href="../../d4/d88/classrm_1_1GyroTracker.html" target="_top" xlink:title="整车状态追踪器">
<polygon fill="white" stroke="transparent" points="240,-214 119,-214 119,0 240,0 240,-214"/>
<text text-anchor="start" x="141" y="-202" font-family="Helvetica,sans-Serif" font-size="10.00">rm::GyroTracker</text>
<text text-anchor="start" x="178" y="-187" font-family="Helvetica,sans-Serif" font-size="10.00"> </text>
<text text-anchor="start" x="123.5" y="-172" font-family="Helvetica,sans-Serif" font-size="10.00">+</text>
<text text-anchor="start" x="136.5" y="-172" font-family="Helvetica,sans-Serif" font-size="10.00">GyroTracker()</text>
<text text-anchor="start" x="123.5" y="-157" font-family="Helvetica,sans-Serif" font-size="10.00">+</text>
<text text-anchor="start" x="136.5" y="-157" font-family="Helvetica,sans-Serif" font-size="10.00">GyroTracker()</text>
<text text-anchor="start" x="123.5" y="-142" font-family="Helvetica,sans-Serif" font-size="10.00">+</text>
<text text-anchor="start" x="136.5" y="-142" font-family="Helvetica,sans-Serif" font-size="10.00">clone()</text>
<text text-anchor="start" x="123.5" y="-127" font-family="Helvetica,sans-Serif" font-size="10.00">+</text>
<text text-anchor="start" x="136.5" y="-127" font-family="Helvetica,sans-Serif" font-size="10.00">update()</text>
<text text-anchor="start" x="123.5" y="-112" font-family="Helvetica,sans-Serif" font-size="10.00">+</text>
<text text-anchor="start" x="136.5" y="-112" font-family="Helvetica,sans-Serif" font-size="10.00">update()</text>
<text text-anchor="start" x="123.5" y="-97" font-family="Helvetica,sans-Serif" font-size="10.00">+</text>
<text text-anchor="start" x="136.5" y="-97" font-family="Helvetica,sans-Serif" font-size="10.00">updateVanishState()</text>
<text text-anchor="start" x="123.5" y="-82" font-family="Helvetica,sans-Serif" font-size="10.00">+</text>
<text text-anchor="start" x="136.5" y="-82" font-family="Helvetica,sans-Serif" font-size="10.00">getDuration()</text>
<text text-anchor="start" x="123.5" y="-67" font-family="Helvetica,sans-Serif" font-size="10.00">+</text>
<text text-anchor="start" x="136.5" y="-67" font-family="Helvetica,sans-Serif" font-size="10.00">getPose()</text>
<text text-anchor="start" x="123.5" y="-52" font-family="Helvetica,sans-Serif" font-size="10.00">+</text>
<text text-anchor="start" x="136.5" y="-52" font-family="Helvetica,sans-Serif" font-size="10.00">getRotatedSpeed()</text>
<text text-anchor="start" x="123.5" y="-37" font-family="Helvetica,sans-Serif" font-size="10.00">+</text>
<text text-anchor="start" x="136.5" y="-37" font-family="Helvetica,sans-Serif" font-size="10.00">make_tracker()</text>
<text text-anchor="start" x="123.5" y="-22" font-family="Helvetica,sans-Serif" font-size="10.00">+</text>
<text text-anchor="start" x="136.5" y="-22" font-family="Helvetica,sans-Serif" font-size="10.00">cast()</text>
<text text-anchor="start" x="123.5" y="-7" font-family="Helvetica,sans-Serif" font-size="10.00">+</text>
<text text-anchor="start" x="136.5" y="-7" font-family="Helvetica,sans-Serif" font-size="10.00">cast()</text>
<polygon fill="#666666" stroke="#666666" points="119.5,-197 119.5,-197 240.5,-197 240.5,-197 119.5,-197"/>
<polygon fill="#666666" stroke="#666666" points="119.5,-182 119.5,-182 240.5,-182 240.5,-182 119.5,-182"/>
<polygon fill="none" stroke="#666666" points="119,0 119,-214 240,-214 240,0 119,0"/>
</a>
</g>
</g>
<!-- Node1&#45;&gt;Node3 -->
<g id="edge2_Node000001_Node000003" class="edge">
<title>Node1&#45;&gt;Node3</title>
<g id="a_edge2_Node000001_Node000003"><a xlink:title=" ">
<path fill="none" stroke="#63b8ff" d="M205.82,-239.79C204.09,-231.14 202.38,-222.59 200.72,-214.26"/>
<polygon fill="none" stroke="#63b8ff" points="202.38,-240.48 207.78,-249.6 209.25,-239.11 202.38,-240.48"/>
</a>
</g>
</g>
<!-- Node4 -->
<g id="Node000004" class="node">
<title>Node4</title>
<g id="a_Node000004"><a xlink:href="../../d1/dc8/classrm_1_1PlanarTracker.html" target="_top" xlink:title="平面目标追踪器">
<polygon fill="white" stroke="transparent" points="353,-176.5 258,-176.5 258,-37.5 353,-37.5 353,-176.5"/>
<text text-anchor="start" x="263.5" y="-164" font-family="Helvetica,sans-Serif" font-size="10.00">rm::PlanarTracker</text>
<text text-anchor="start" x="304" y="-149" font-family="Helvetica,sans-Serif" font-size="10.00"> </text>
<text text-anchor="start" x="262.5" y="-134" font-family="Helvetica,sans-Serif" font-size="10.00">+</text>
<text text-anchor="start" x="275.5" y="-134" font-family="Helvetica,sans-Serif" font-size="10.00">PlanarTracker()</text>
<text text-anchor="start" x="262.5" y="-119" font-family="Helvetica,sans-Serif" font-size="10.00">+</text>
<text text-anchor="start" x="275.5" y="-119" font-family="Helvetica,sans-Serif" font-size="10.00">clone()</text>
<text text-anchor="start" x="262.5" y="-104" font-family="Helvetica,sans-Serif" font-size="10.00">+</text>
<text text-anchor="start" x="275.5" y="-104" font-family="Helvetica,sans-Serif" font-size="10.00">update()</text>
<text text-anchor="start" x="262.5" y="-89" font-family="Helvetica,sans-Serif" font-size="10.00">+</text>
<text text-anchor="start" x="275.5" y="-89" font-family="Helvetica,sans-Serif" font-size="10.00">update()</text>
<text text-anchor="start" x="262.5" y="-74" font-family="Helvetica,sans-Serif" font-size="10.00">+</text>
<text text-anchor="start" x="275.5" y="-74" font-family="Helvetica,sans-Serif" font-size="10.00">make_tracker()</text>
<text text-anchor="start" x="262.5" y="-59" font-family="Helvetica,sans-Serif" font-size="10.00">+</text>
<text text-anchor="start" x="275.5" y="-59" font-family="Helvetica,sans-Serif" font-size="10.00">cast()</text>
<text text-anchor="start" x="262.5" y="-44" font-family="Helvetica,sans-Serif" font-size="10.00">+</text>
<text text-anchor="start" x="275.5" y="-44" font-family="Helvetica,sans-Serif" font-size="10.00">cast()</text>
<polygon fill="#666666" stroke="#666666" points="258.5,-159 258.5,-159 353.5,-159 353.5,-159 258.5,-159"/>
<polygon fill="#666666" stroke="#666666" points="258.5,-144 258.5,-144 353.5,-144 353.5,-144 258.5,-144"/>
<polygon fill="none" stroke="#666666" points="258,-37.5 258,-176.5 353,-176.5 353,-37.5 258,-37.5"/>
</a>
</g>
</g>
<!-- Node1&#45;&gt;Node4 -->
<g id="edge3_Node000001_Node000004" class="edge">
<title>Node1&#45;&gt;Node4</title>
<g id="a_edge3_Node000001_Node000004"><a xlink:title=" ">
<path fill="none" stroke="#63b8ff" d="M279.21,-239.64C283.68,-217.28 288,-195.65 291.8,-176.6"/>
<polygon fill="none" stroke="#63b8ff" points="275.75,-239.11 277.22,-249.6 282.62,-240.48 275.75,-239.11"/>
</a>
</g>
</g>
<!-- Node5 -->
<g id="Node000005" class="node">
<title>Node5</title>
<g id="a_Node000005"><a xlink:href="../../df/da0/classrm_1_1RuneTracker.html" target="_top" xlink:title="神符时间序列">
<polygon fill="white" stroke="transparent" points="484,-199 371,-199 371,-15 484,-15 484,-199"/>
<text text-anchor="start" x="388.5" y="-187" font-family="Helvetica,sans-Serif" font-size="10.00">rm::RuneTracker</text>
<text text-anchor="start" x="426" y="-172" font-family="Helvetica,sans-Serif" font-size="10.00"> </text>
<text text-anchor="start" x="375.5" y="-157" font-family="Helvetica,sans-Serif" font-size="10.00">+</text>
<text text-anchor="start" x="388.5" y="-157" font-family="Helvetica,sans-Serif" font-size="10.00">RuneTracker()</text>
<text text-anchor="start" x="375.5" y="-142" font-family="Helvetica,sans-Serif" font-size="10.00">+</text>
<text text-anchor="start" x="388.5" y="-142" font-family="Helvetica,sans-Serif" font-size="10.00">RuneTracker()</text>
<text text-anchor="start" x="375.5" y="-127" font-family="Helvetica,sans-Serif" font-size="10.00">+</text>
<text text-anchor="start" x="388.5" y="-127" font-family="Helvetica,sans-Serif" font-size="10.00">clone()</text>
<text text-anchor="start" x="375.5" y="-112" font-family="Helvetica,sans-Serif" font-size="10.00">+</text>
<text text-anchor="start" x="388.5" y="-112" font-family="Helvetica,sans-Serif" font-size="10.00">update()</text>
<text text-anchor="start" x="375.5" y="-97" font-family="Helvetica,sans-Serif" font-size="10.00">+</text>
<text text-anchor="start" x="388.5" y="-97" font-family="Helvetica,sans-Serif" font-size="10.00">update()</text>
<text text-anchor="start" x="375.5" y="-82" font-family="Helvetica,sans-Serif" font-size="10.00">+</text>
<text text-anchor="start" x="388.5" y="-82" font-family="Helvetica,sans-Serif" font-size="10.00">initFilter()</text>
<text text-anchor="start" x="375.5" y="-67" font-family="Helvetica,sans-Serif" font-size="10.00">+</text>
<text text-anchor="start" x="388.5" y="-67" font-family="Helvetica,sans-Serif" font-size="10.00">getRotatedSpeed()</text>
<text text-anchor="start" x="375.5" y="-52" font-family="Helvetica,sans-Serif" font-size="10.00">+</text>
<text text-anchor="start" x="388.5" y="-52" font-family="Helvetica,sans-Serif" font-size="10.00">make_tracker()</text>
<text text-anchor="start" x="375.5" y="-37" font-family="Helvetica,sans-Serif" font-size="10.00">+</text>
<text text-anchor="start" x="388.5" y="-37" font-family="Helvetica,sans-Serif" font-size="10.00">cast()</text>
<text text-anchor="start" x="375.5" y="-22" font-family="Helvetica,sans-Serif" font-size="10.00">+</text>
<text text-anchor="start" x="388.5" y="-22" font-family="Helvetica,sans-Serif" font-size="10.00">cast()</text>
<polygon fill="#666666" stroke="#666666" points="371.5,-182 371.5,-182 484.5,-182 484.5,-182 371.5,-182"/>
<polygon fill="#666666" stroke="#666666" points="371.5,-167 371.5,-167 484.5,-167 484.5,-167 371.5,-167"/>
<polygon fill="none" stroke="#666666" points="371,-15 371,-199 484,-199 484,-15 371,-15"/>
</a>
</g>
</g>
<!-- Node1&#45;&gt;Node5 -->
<g id="edge4_Node000001_Node000005" class="edge">
<title>Node1&#45;&gt;Node5</title>
<g id="a_edge4_Node000001_Node000005"><a xlink:title=" ">
<path fill="none" stroke="#63b8ff" d="M305.82,-315.51C328.04,-277.62 352.76,-235.47 374.08,-199.1"/>
<polygon fill="none" stroke="#63b8ff" points="302.57,-314.14 300.53,-324.54 308.61,-317.68 302.57,-314.14"/>
</a>
</g>
</g>
</g>
</svg>
