<?xml version="1.0" encoding="UTF-8" standalone="no"?>
<!DOCTYPE svg PUBLIC "-//W3C//DTD SVG 1.1//EN"
 "http://www.w3.org/Graphics/SVG/1.1/DTD/svg11.dtd">
<!-- Generated by graphviz version 2.43.0 (0)
 -->
<!-- Title: rm::DefaultGroup Pages: 1 -->
<svg width="519pt" height="821pt"
 viewBox="0.00 0.00 519.00 821.00" xmlns="http://www.w3.org/2000/svg" xmlns:xlink="http://www.w3.org/1999/xlink">
<g id="graph0" class="graph" transform="scale(1 1) rotate(0) translate(4 817)">
<title>rm::DefaultGroup</title>
<!-- Node1 -->
<g id="Node000001" class="node">
<title>Node1</title>
<g id="a_Node000001"><a xlink:title="默认序列组（一般退化为 trackers 使用）">
<polygon fill="#999999" stroke="transparent" points="327.5,-109 232.5,-109 232.5,0 327.5,0 327.5,-109"/>
<text text-anchor="start" x="238" y="-96.5" font-family="Helvetica,sans-Serif" font-size="10.00">rm::DefaultGroup</text>
<text text-anchor="start" x="278.5" y="-81.5" font-family="Helvetica,sans-Serif" font-size="10.00"> </text>
<text text-anchor="start" x="238.5" y="-66.5" font-family="Helvetica,sans-Serif" font-size="10.00">+</text>
<text text-anchor="start" x="253" y="-66.5" font-family="Helvetica,sans-Serif" font-size="10.00">clone()</text>
<text text-anchor="start" x="238.5" y="-51.5" font-family="Helvetica,sans-Serif" font-size="10.00">+</text>
<text text-anchor="start" x="253" y="-51.5" font-family="Helvetica,sans-Serif" font-size="10.00">sync()</text>
<text text-anchor="start" x="238.5" y="-36.5" font-family="Helvetica,sans-Serif" font-size="10.00">+</text>
<text text-anchor="start" x="253" y="-36.5" font-family="Helvetica,sans-Serif" font-size="10.00">make_group()</text>
<text text-anchor="start" x="238.5" y="-21.5" font-family="Helvetica,sans-Serif" font-size="10.00">+</text>
<text text-anchor="start" x="253" y="-21.5" font-family="Helvetica,sans-Serif" font-size="10.00">cast()</text>
<text text-anchor="start" x="238.5" y="-6.5" font-family="Helvetica,sans-Serif" font-size="10.00">+</text>
<text text-anchor="start" x="253" y="-6.5" font-family="Helvetica,sans-Serif" font-size="10.00">cast()</text>
<polygon fill="#666666" stroke="#666666" points="233,-91.5 233,-91.5 328,-91.5 328,-91.5 233,-91.5"/>
<polygon fill="#666666" stroke="#666666" points="233,-76.5 233,-76.5 328,-76.5 328,-76.5 233,-76.5"/>
<polygon fill="none" stroke="#666666" points="232.5,0 232.5,-109 327.5,-109 327.5,0 232.5,0"/>
</a>
</g>
</g>
<!-- Node2 -->
<g id="Node000002" class="node">
<title>Node2</title>
<g id="a_Node000002"><a xlink:href="../../d6/d6c/classrm_1_1group.html" target="_top" xlink:title="相关追踪器的空间集合（序列组）">
<polygon fill="white" stroke="transparent" points="338,-360 222,-360 222,-146 338,-146 338,-360"/>
<text text-anchor="start" x="256" y="-348" font-family="Helvetica,sans-Serif" font-size="10.00">rm::group</text>
<text text-anchor="start" x="278" y="-333" font-family="Helvetica,sans-Serif" font-size="10.00"> </text>
<text text-anchor="start" x="226" y="-318" font-family="Helvetica,sans-Serif" font-size="10.00">+</text>
<text text-anchor="start" x="239" y="-318" font-family="Helvetica,sans-Serif" font-size="10.00">clone()</text>
<text text-anchor="start" x="226" y="-303" font-family="Helvetica,sans-Serif" font-size="10.00">+</text>
<text text-anchor="start" x="239" y="-303" font-family="Helvetica,sans-Serif" font-size="10.00">sync()</text>
<text text-anchor="start" x="226" y="-288" font-family="Helvetica,sans-Serif" font-size="10.00">+</text>
<text text-anchor="start" x="239" y="-288" font-family="Helvetica,sans-Serif" font-size="10.00">add()</text>
<text text-anchor="start" x="226" y="-273" font-family="Helvetica,sans-Serif" font-size="10.00">+</text>
<text text-anchor="start" x="239" y="-273" font-family="Helvetica,sans-Serif" font-size="10.00">invalid()</text>
<text text-anchor="start" x="226" y="-258" font-family="Helvetica,sans-Serif" font-size="10.00">+</text>
<text text-anchor="start" x="239" y="-258" font-family="Helvetica,sans-Serif" font-size="10.00">data()</text>
<text text-anchor="start" x="226" y="-243" font-family="Helvetica,sans-Serif" font-size="10.00">+</text>
<text text-anchor="start" x="239" y="-243" font-family="Helvetica,sans-Serif" font-size="10.00">size()</text>
<text text-anchor="start" x="226" y="-228" font-family="Helvetica,sans-Serif" font-size="10.00">+</text>
<text text-anchor="start" x="239" y="-228" font-family="Helvetica,sans-Serif" font-size="10.00">empty()</text>
<text text-anchor="start" x="226" y="-213" font-family="Helvetica,sans-Serif" font-size="10.00">+</text>
<text text-anchor="start" x="239" y="-213" font-family="Helvetica,sans-Serif" font-size="10.00">at()</text>
<text text-anchor="start" x="226" y="-198" font-family="Helvetica,sans-Serif" font-size="10.00">+</text>
<text text-anchor="start" x="239" y="-198" font-family="Helvetica,sans-Serif" font-size="10.00">center()</text>
<text text-anchor="start" x="226" y="-183" font-family="Helvetica,sans-Serif" font-size="10.00">+</text>
<text text-anchor="start" x="239" y="-183" font-family="Helvetica,sans-Serif" font-size="10.00">getVanishNumber()</text>
<text text-anchor="start" x="226" y="-168" font-family="Helvetica,sans-Serif" font-size="10.00">+</text>
<text text-anchor="start" x="239" y="-168" font-family="Helvetica,sans-Serif" font-size="10.00">state()</text>
<text text-anchor="start" x="226" y="-153" font-family="Helvetica,sans-Serif" font-size="10.00">+</text>
<text text-anchor="start" x="239" y="-153" font-family="Helvetica,sans-Serif" font-size="10.00">state()</text>
<polygon fill="#666666" stroke="#666666" points="222,-343 222,-343 338,-343 338,-343 222,-343"/>
<polygon fill="#666666" stroke="#666666" points="222,-328 222,-328 338,-328 338,-328 222,-328"/>
<polygon fill="none" stroke="#666666" points="222,-146 222,-360 338,-360 338,-146 222,-146"/>
</a>
</g>
</g>
<!-- Node2&#45;&gt;Node1 -->
<g id="edge1_Node000001_Node000002" class="edge">
<title>Node2&#45;&gt;Node1</title>
<g id="a_edge1_Node000001_Node000002"><a xlink:title=" ">
<path fill="none" stroke="#63b8ff" d="M280,-135.93C280,-126.72 280,-117.73 280,-109.29"/>
<polygon fill="none" stroke="#63b8ff" points="276.5,-135.99 280,-145.99 283.5,-135.99 276.5,-135.99"/>
</a>
</g>
</g>
<!-- Node3 -->
<g id="Node000003" class="node">
<title>Node3</title>
<g id="a_Node000003"><a xlink:title=" ">
<polygon fill="white" stroke="transparent" points="168.5,-544 61.5,-544 61.5,-484 168.5,-484 168.5,-544"/>
<text text-anchor="start" x="67" y="-532" font-family="Helvetica,sans-Serif" font-size="10.00">std::vector&lt; tracker</text>
<text text-anchor="start" x="100" y="-521" font-family="Helvetica,sans-Serif" font-size="10.00">::ptr &gt;</text>
<text text-anchor="start" x="113.5" y="-506" font-family="Helvetica,sans-Serif" font-size="10.00"> </text>
<text text-anchor="start" x="113.5" y="-491" font-family="Helvetica,sans-Serif" font-size="10.00"> </text>
<polygon fill="#666666" stroke="#666666" points="62,-516 62,-516 169,-516 169,-516 62,-516"/>
<polygon fill="#666666" stroke="#666666" points="62,-501 62,-501 169,-501 169,-501 62,-501"/>
<polygon fill="none" stroke="#666666" points="61.5,-484 61.5,-544 168.5,-544 168.5,-484 61.5,-484"/>
</a>
</g>
</g>
<!-- Node3&#45;&gt;Node2 -->
<g id="edge2_Node000002_Node000003" class="edge">
<title>Node3&#45;&gt;Node2</title>
<g id="a_edge2_Node000002_Node000003"><a xlink:title=" ">
<path fill="none" stroke="#63b8ff" d="M122.21,-483.85C130.03,-455.46 144.25,-411.75 165,-378 178.41,-356.18 196.04,-334.84 213.44,-316.17"/>
<polygon fill="none" stroke="#63b8ff" points="213.68,-315.93 214.92,-308.83 221.95,-307.24 220.71,-314.34 213.68,-315.93"/>
</a>
</g>
<text text-anchor="middle" x="193" y="-381" font-family="Helvetica,sans-Serif" font-size="10.00" fill="grey"> #_trackers</text>
</g>
<!-- Node4 -->
<g id="Node000004" class="node">
<title>Node4</title>
<g id="a_Node000004"><a xlink:title=" ">
<polygon fill="white" stroke="transparent" points="112,-717 0,-717 0,-668 112,-668 112,-717"/>
<text text-anchor="start" x="5" y="-704.5" font-family="Helvetica,sans-Serif" font-size="10.00">std::shared_ptr&lt; T &gt;</text>
<text text-anchor="start" x="54" y="-689.5" font-family="Helvetica,sans-Serif" font-size="10.00"> </text>
<text text-anchor="start" x="11.5" y="-674.5" font-family="Helvetica,sans-Serif" font-size="10.00">+</text>
<text text-anchor="start" x="32" y="-674.5" font-family="Helvetica,sans-Serif" font-size="10.00">operator&#45;&gt;()</text>
<polygon fill="#666666" stroke="#666666" points="0,-699.5 0,-699.5 112,-699.5 112,-699.5 0,-699.5"/>
<polygon fill="#666666" stroke="#666666" points="0,-684.5 0,-684.5 112,-684.5 112,-684.5 0,-684.5"/>
<polygon fill="none" stroke="#666666" points="0,-668 0,-717 112,-717 112,-668 0,-668"/>
</a>
</g>
</g>
<!-- Node4&#45;&gt;Node3 -->
<g id="edge3_Node000003_Node000004" class="edge">
<title>Node4&#45;&gt;Node3</title>
<g id="a_edge3_Node000003_Node000004"><a xlink:title=" ">
<path fill="none" stroke="#63b8ff" d="M63.96,-667.7C73.52,-639.08 89.74,-590.58 101.32,-555.92"/>
<polygon fill="none" stroke="#63b8ff" points="101.41,-555.67 99.51,-548.71 105.21,-544.29 107.1,-551.25 101.41,-555.67"/>
</a>
</g>
<text text-anchor="middle" x="103" y="-642" font-family="Helvetica,sans-Serif" font-size="10.00" fill="grey"> +elements</text>
</g>
<!-- Node5 -->
<g id="Node000005" class="node">
<title>Node5</title>
<g id="a_Node000005"><a xlink:title=" ">
<polygon fill="white" stroke="transparent" points="124.5,-813 107.5,-813 107.5,-764 124.5,-764 124.5,-813"/>
<text text-anchor="start" x="113" y="-800.5" font-family="Helvetica,sans-Serif" font-size="10.00">T</text>
<text text-anchor="start" x="114.5" y="-785.5" font-family="Helvetica,sans-Serif" font-size="10.00"> </text>
<text text-anchor="start" x="114.5" y="-770.5" font-family="Helvetica,sans-Serif" font-size="10.00"> </text>
<polygon fill="#666666" stroke="#666666" points="108,-795.5 108,-795.5 125,-795.5 125,-795.5 108,-795.5"/>
<polygon fill="#666666" stroke="#666666" points="108,-780.5 108,-780.5 125,-780.5 125,-780.5 108,-780.5"/>
<polygon fill="none" stroke="#666666" points="107.5,-764 107.5,-813 124.5,-813 124.5,-764 107.5,-764"/>
</a>
</g>
</g>
<!-- Node5&#45;&gt;Node4 -->
<g id="edge4_Node000004_Node000005" class="edge">
<title>Node5&#45;&gt;Node4</title>
<g id="a_edge4_Node000004_Node000005"><a xlink:title=" ">
<path fill="none" stroke="#63b8ff" d="M107.4,-774.03C99.64,-761.87 87.89,-743.46 77.58,-727.32"/>
<polygon fill="none" stroke="#63b8ff" points="77.53,-727.23 70.93,-724.33 71.08,-717.12 77.68,-720.02 77.53,-727.23"/>
</a>
</g>
<text text-anchor="middle" x="100.5" y="-738" font-family="Helvetica,sans-Serif" font-size="10.00" fill="grey"> +ptr</text>
</g>
<!-- Node6 -->
<g id="Node000006" class="node">
<title>Node6</title>
<g id="a_Node000006"><a xlink:title=" ">
<polygon fill="white" stroke="transparent" points="221.5,-717 130.5,-717 130.5,-668 221.5,-668 221.5,-717"/>
<text text-anchor="start" x="136" y="-704.5" font-family="Helvetica,sans-Serif" font-size="10.00">std::vector&lt; T &gt;</text>
<text text-anchor="start" x="174.5" y="-689.5" font-family="Helvetica,sans-Serif" font-size="10.00"> </text>
<text text-anchor="start" x="174.5" y="-674.5" font-family="Helvetica,sans-Serif" font-size="10.00"> </text>
<polygon fill="#666666" stroke="#666666" points="131,-699.5 131,-699.5 222,-699.5 222,-699.5 131,-699.5"/>
<polygon fill="#666666" stroke="#666666" points="131,-684.5 131,-684.5 222,-684.5 222,-684.5 131,-684.5"/>
<polygon fill="none" stroke="#666666" points="130.5,-668 130.5,-717 221.5,-717 221.5,-668 130.5,-668"/>
</a>
</g>
</g>
<!-- Node5&#45;&gt;Node6 -->
<g id="edge6_Node000006_Node000005" class="edge">
<title>Node5&#45;&gt;Node6</title>
<g id="a_edge6_Node000006_Node000005"><a xlink:title=" ">
<path fill="none" stroke="#63b8ff" d="M124.6,-774.03C132.36,-761.87 144.11,-743.46 154.42,-727.32"/>
<polygon fill="none" stroke="#63b8ff" points="154.47,-727.23 154.32,-720.02 160.92,-717.12 161.07,-724.33 154.47,-727.23"/>
</a>
</g>
<text text-anchor="middle" x="177" y="-738" font-family="Helvetica,sans-Serif" font-size="10.00" fill="grey"> +elements</text>
</g>
<!-- Node6&#45;&gt;Node3 -->
<g id="edge5_Node000003_Node000006" class="edge">
<title>Node6&#45;&gt;Node3</title>
<g id="a_edge5_Node000003_Node000006"><a xlink:title=" ">
<path fill="none" stroke="orange" d="M164.45,-658.08C153.1,-625.24 135.95,-575.62 125.12,-544.29"/>
<polygon fill="orange" stroke="orange" points="161.2,-659.39 167.77,-667.7 167.81,-657.1 161.2,-659.39"/>
</a>
</g>
<text text-anchor="middle" x="201.5" y="-642" font-family="Helvetica,sans-Serif" font-size="10.00" fill="grey"> &lt; tracker::ptr &gt;</text>
</g>
<!-- Node7 -->
<g id="Node000007" class="node">
<title>Node7</title>
<g id="a_Node000007"><a xlink:title=" ">
<polygon fill="white" stroke="transparent" points="231.5,-538.5 186.5,-538.5 186.5,-489.5 231.5,-489.5 231.5,-538.5"/>
<text text-anchor="start" x="192" y="-526" font-family="Helvetica,sans-Serif" font-size="10.00">Point2f</text>
<text text-anchor="start" x="207.5" y="-511" font-family="Helvetica,sans-Serif" font-size="10.00"> </text>
<text text-anchor="start" x="207.5" y="-496" font-family="Helvetica,sans-Serif" font-size="10.00"> </text>
<polygon fill="#666666" stroke="#666666" points="187,-521 187,-521 232,-521 232,-521 187,-521"/>
<polygon fill="#666666" stroke="#666666" points="187,-506 187,-506 232,-506 232,-506 187,-506"/>
<polygon fill="none" stroke="#666666" points="186.5,-489.5 186.5,-538.5 231.5,-538.5 231.5,-489.5 186.5,-489.5"/>
</a>
</g>
</g>
<!-- Node7&#45;&gt;Node2 -->
<g id="edge7_Node000002_Node000007" class="edge">
<title>Node7&#45;&gt;Node2</title>
<g id="a_edge7_Node000002_Node000007"><a xlink:title=" ">
<path fill="none" stroke="#63b8ff" d="M210.49,-489.21C212.62,-461.95 217.52,-416.11 228,-378 228.55,-375.99 229.13,-373.97 229.73,-371.94"/>
<polygon fill="none" stroke="#63b8ff" points="229.81,-371.7 227.79,-364.78 233.4,-360.25 235.42,-367.17 229.81,-371.7"/>
</a>
</g>
<text text-anchor="middle" x="252" y="-381" font-family="Helvetica,sans-Serif" font-size="10.00" fill="grey"> #_center</text>
</g>
<!-- Node8 -->
<g id="Node000008" class="node">
<title>Node8</title>
<g id="a_Node000008"><a xlink:title=" ">
<polygon fill="white" stroke="transparent" points="296,-538.5 264,-538.5 264,-489.5 296,-489.5 296,-538.5"/>
<text text-anchor="start" x="269" y="-526" font-family="Helvetica,sans-Serif" font-size="10.00">bool</text>
<text text-anchor="start" x="278" y="-511" font-family="Helvetica,sans-Serif" font-size="10.00"> </text>
<text text-anchor="start" x="278" y="-496" font-family="Helvetica,sans-Serif" font-size="10.00"> </text>
<polygon fill="#666666" stroke="#666666" points="264,-521 264,-521 296,-521 296,-521 264,-521"/>
<polygon fill="#666666" stroke="#666666" points="264,-506 264,-506 296,-506 296,-506 264,-506"/>
<polygon fill="none" stroke="#666666" points="264,-489.5 264,-538.5 296,-538.5 296,-489.5 264,-489.5"/>
</a>
</g>
</g>
<!-- Node8&#45;&gt;Node2 -->
<g id="edge8_Node000002_Node000008" class="edge">
<title>Node8&#45;&gt;Node2</title>
<g id="a_edge8_Node000002_Node000008"><a xlink:title=" ">
<path fill="none" stroke="#63b8ff" d="M280,-489.1C280,-462.14 280,-416.29 280,-372.21"/>
<polygon fill="none" stroke="#63b8ff" points="280,-372.14 276,-366.14 280,-360.14 284,-366.14 280,-372.14"/>
</a>
</g>
<text text-anchor="middle" x="313.5" y="-381" font-family="Helvetica,sans-Serif" font-size="10.00" fill="grey"> #_is_tracked</text>
</g>
<!-- Node9 -->
<g id="Node000009" class="node">
<title>Node9</title>
<g id="a_Node000009"><a xlink:title=" ">
<polygon fill="white" stroke="transparent" points="395,-538.5 345,-538.5 345,-489.5 395,-489.5 395,-538.5"/>
<text text-anchor="start" x="350" y="-526" font-family="Helvetica,sans-Serif" font-size="10.00">uint32_t</text>
<text text-anchor="start" x="368" y="-511" font-family="Helvetica,sans-Serif" font-size="10.00"> </text>
<text text-anchor="start" x="368" y="-496" font-family="Helvetica,sans-Serif" font-size="10.00"> </text>
<polygon fill="#666666" stroke="#666666" points="345,-521 345,-521 395,-521 395,-521 345,-521"/>
<polygon fill="#666666" stroke="#666666" points="345,-506 345,-506 395,-506 395,-506 345,-506"/>
<polygon fill="none" stroke="#666666" points="345,-489.5 345,-538.5 395,-538.5 395,-489.5 345,-489.5"/>
</a>
</g>
</g>
<!-- Node9&#45;&gt;Node2 -->
<g id="edge9_Node000002_Node000009" class="edge">
<title>Node9&#45;&gt;Node2</title>
<g id="a_edge9_Node000002_Node000009"><a xlink:title=" ">
<path fill="none" stroke="#63b8ff" d="M368.59,-489.48C366.4,-462.07 360.99,-415.72 348,-378 346.45,-373.49 344.74,-368.96 342.91,-364.42"/>
<polygon fill="none" stroke="#63b8ff" points="342.82,-364.21 336.79,-360.25 338.12,-353.17 344.15,-357.12 342.82,-364.21"/>
</a>
</g>
<text text-anchor="middle" x="389" y="-381" font-family="Helvetica,sans-Serif" font-size="10.00" fill="grey"> #_vanish_num</text>
</g>
<!-- Node10 -->
<g id="Node000010" class="node">
<title>Node10</title>
<g id="a_Node000010"><a xlink:href="../../d3/da8/classrm_1_1StateInfo.html" target="_top" xlink:title="状态类型系统">
<polygon fill="white" stroke="transparent" points="511,-621 427,-621 427,-407 511,-407 511,-621"/>
<text text-anchor="start" x="437" y="-609" font-family="Helvetica,sans-Serif" font-size="10.00">rm::StateInfo</text>
<text text-anchor="start" x="467" y="-594" font-family="Helvetica,sans-Serif" font-size="10.00"> </text>
<text text-anchor="start" x="431" y="-579" font-family="Helvetica,sans-Serif" font-size="10.00">+</text>
<text text-anchor="start" x="444" y="-579" font-family="Helvetica,sans-Serif" font-size="10.00">StateInfo()</text>
<text text-anchor="start" x="431" y="-564" font-family="Helvetica,sans-Serif" font-size="10.00">+</text>
<text text-anchor="start" x="444" y="-564" font-family="Helvetica,sans-Serif" font-size="10.00">add()</text>
<text text-anchor="start" x="431" y="-549" font-family="Helvetica,sans-Serif" font-size="10.00">+</text>
<text text-anchor="start" x="444" y="-549" font-family="Helvetica,sans-Serif" font-size="10.00">add()</text>
<text text-anchor="start" x="431" y="-534" font-family="Helvetica,sans-Serif" font-size="10.00">+</text>
<text text-anchor="start" x="444" y="-534" font-family="Helvetica,sans-Serif" font-size="10.00">remove()</text>
<text text-anchor="start" x="431" y="-519" font-family="Helvetica,sans-Serif" font-size="10.00">+</text>
<text text-anchor="start" x="444" y="-519" font-family="Helvetica,sans-Serif" font-size="10.00">contains()</text>
<text text-anchor="start" x="431" y="-504" font-family="Helvetica,sans-Serif" font-size="10.00">+</text>
<text text-anchor="start" x="444" y="-504" font-family="Helvetica,sans-Serif" font-size="10.00">clear()</text>
<text text-anchor="start" x="431" y="-489" font-family="Helvetica,sans-Serif" font-size="10.00">+</text>
<text text-anchor="start" x="444" y="-489" font-family="Helvetica,sans-Serif" font-size="10.00">empty()</text>
<text text-anchor="start" x="431" y="-474" font-family="Helvetica,sans-Serif" font-size="10.00">+</text>
<text text-anchor="start" x="444" y="-474" font-family="Helvetica,sans-Serif" font-size="10.00">at()</text>
<text text-anchor="start" x="431" y="-459" font-family="Helvetica,sans-Serif" font-size="10.00">+</text>
<text text-anchor="start" x="444" y="-459" font-family="Helvetica,sans-Serif" font-size="10.00">at_numeric()</text>
<text text-anchor="start" x="431" y="-444" font-family="Helvetica,sans-Serif" font-size="10.00">+</text>
<text text-anchor="start" x="444" y="-444" font-family="Helvetica,sans-Serif" font-size="10.00">at_string()</text>
<text text-anchor="start" x="431" y="-429" font-family="Helvetica,sans-Serif" font-size="10.00">+</text>
<text text-anchor="start" x="444" y="-429" font-family="Helvetica,sans-Serif" font-size="10.00">at()</text>
<text text-anchor="start" x="431" y="-414" font-family="Helvetica,sans-Serif" font-size="10.00">+</text>
<text text-anchor="start" x="444" y="-414" font-family="Helvetica,sans-Serif" font-size="10.00">operator[]()</text>
<polygon fill="#666666" stroke="#666666" points="427,-604 427,-604 511,-604 511,-604 427,-604"/>
<polygon fill="#666666" stroke="#666666" points="427,-589 427,-589 511,-589 511,-589 427,-589"/>
<polygon fill="none" stroke="#666666" points="427,-407 427,-621 511,-621 511,-407 427,-407"/>
</a>
</g>
</g>
<!-- Node10&#45;&gt;Node2 -->
<g id="edge10_Node000002_Node000010" class="edge">
<title>Node10&#45;&gt;Node2</title>
<g id="a_edge10_Node000002_Node000010"><a xlink:title=" ">
<path fill="none" stroke="#63b8ff" d="M445.9,-406.7C441.72,-396.62 436.79,-386.87 431,-378 409.74,-345.47 377.28,-317.23 347.89,-295.94"/>
<polygon fill="none" stroke="#63b8ff" points="347.86,-295.92 340.65,-295.73 338.06,-289 345.27,-289.19 347.86,-295.92"/>
</a>
</g>
<text text-anchor="middle" x="457" y="-381" font-family="Helvetica,sans-Serif" font-size="10.00" fill="grey"> #_state</text>
</g>
</g>
</svg>
