<?xml version="1.0" encoding="UTF-8" standalone="no"?>
<!DOCTYPE svg PUBLIC "-//W3C//DTD SVG 1.1//EN"
 "http://www.w3.org/Graphics/SVG/1.1/DTD/svg11.dtd">
<!-- Generated by graphviz version 2.43.0 (0)
 -->
<!-- Title: rm::DefaultGroup Pages: 1 -->
<svg width="782pt" height="671pt"
 viewBox="0.00 0.00 782.00 671.00" xmlns="http://www.w3.org/2000/svg" xmlns:xlink="http://www.w3.org/1999/xlink">
<g id="graph0" class="graph" transform="scale(1 1) rotate(0) translate(4 667)">
<title>rm::DefaultGroup</title>
<!-- Node1 -->
<g id="Node000001" class="node">
<title>Node1</title>
<g id="a_Node000001"><a xlink:title="默认序列组（一般退化为 trackers 使用）">
<polygon fill="#999999" stroke="transparent" points="370.5,-109 275.5,-109 275.5,0 370.5,0 370.5,-109"/>
<text text-anchor="start" x="281" y="-96.5" font-family="Helvetica,sans-Serif" font-size="10.00">rm::DefaultGroup</text>
<text text-anchor="start" x="321.5" y="-81.5" font-family="Helvetica,sans-Serif" font-size="10.00"> </text>
<text text-anchor="start" x="281.5" y="-66.5" font-family="Helvetica,sans-Serif" font-size="10.00">+</text>
<text text-anchor="start" x="296" y="-66.5" font-family="Helvetica,sans-Serif" font-size="10.00">clone()</text>
<text text-anchor="start" x="281.5" y="-51.5" font-family="Helvetica,sans-Serif" font-size="10.00">+</text>
<text text-anchor="start" x="296" y="-51.5" font-family="Helvetica,sans-Serif" font-size="10.00">sync()</text>
<text text-anchor="start" x="281.5" y="-36.5" font-family="Helvetica,sans-Serif" font-size="10.00">+</text>
<text text-anchor="start" x="296" y="-36.5" font-family="Helvetica,sans-Serif" font-size="10.00">make_group()</text>
<text text-anchor="start" x="281.5" y="-21.5" font-family="Helvetica,sans-Serif" font-size="10.00">+</text>
<text text-anchor="start" x="296" y="-21.5" font-family="Helvetica,sans-Serif" font-size="10.00">cast()</text>
<text text-anchor="start" x="281.5" y="-6.5" font-family="Helvetica,sans-Serif" font-size="10.00">+</text>
<text text-anchor="start" x="296" y="-6.5" font-family="Helvetica,sans-Serif" font-size="10.00">cast()</text>
<polygon fill="#666666" stroke="#666666" points="276,-91.5 276,-91.5 371,-91.5 371,-91.5 276,-91.5"/>
<polygon fill="#666666" stroke="#666666" points="276,-76.5 276,-76.5 371,-76.5 371,-76.5 276,-76.5"/>
<polygon fill="none" stroke="#666666" points="275.5,0 275.5,-109 370.5,-109 370.5,0 275.5,0"/>
</a>
</g>
</g>
<!-- Node2 -->
<g id="Node000002" class="node">
<title>Node2</title>
<g id="a_Node000002"><a xlink:href="../../d6/d6c/classrm_1_1group.html" target="_top" xlink:title="相关追踪器的空间集合（序列组）">
<polygon fill="white" stroke="transparent" points="381,-345 265,-345 265,-146 381,-146 381,-345"/>
<text text-anchor="start" x="299" y="-332.5" font-family="Helvetica,sans-Serif" font-size="10.00">rm::group</text>
<text text-anchor="start" x="321" y="-317.5" font-family="Helvetica,sans-Serif" font-size="10.00"> </text>
<text text-anchor="start" x="269" y="-302.5" font-family="Helvetica,sans-Serif" font-size="10.00">+</text>
<text text-anchor="start" x="282" y="-302.5" font-family="Helvetica,sans-Serif" font-size="10.00">clone()</text>
<text text-anchor="start" x="269" y="-287.5" font-family="Helvetica,sans-Serif" font-size="10.00">+</text>
<text text-anchor="start" x="282" y="-287.5" font-family="Helvetica,sans-Serif" font-size="10.00">sync()</text>
<text text-anchor="start" x="269" y="-272.5" font-family="Helvetica,sans-Serif" font-size="10.00">+</text>
<text text-anchor="start" x="282" y="-272.5" font-family="Helvetica,sans-Serif" font-size="10.00">add()</text>
<text text-anchor="start" x="269" y="-257.5" font-family="Helvetica,sans-Serif" font-size="10.00">+</text>
<text text-anchor="start" x="282" y="-257.5" font-family="Helvetica,sans-Serif" font-size="10.00">invalid()</text>
<text text-anchor="start" x="269" y="-242.5" font-family="Helvetica,sans-Serif" font-size="10.00">+</text>
<text text-anchor="start" x="282" y="-242.5" font-family="Helvetica,sans-Serif" font-size="10.00">data()</text>
<text text-anchor="start" x="269" y="-227.5" font-family="Helvetica,sans-Serif" font-size="10.00">+</text>
<text text-anchor="start" x="282" y="-227.5" font-family="Helvetica,sans-Serif" font-size="10.00">size()</text>
<text text-anchor="start" x="269" y="-212.5" font-family="Helvetica,sans-Serif" font-size="10.00">+</text>
<text text-anchor="start" x="282" y="-212.5" font-family="Helvetica,sans-Serif" font-size="10.00">empty()</text>
<text text-anchor="start" x="269" y="-197.5" font-family="Helvetica,sans-Serif" font-size="10.00">+</text>
<text text-anchor="start" x="282" y="-197.5" font-family="Helvetica,sans-Serif" font-size="10.00">at()</text>
<text text-anchor="start" x="269" y="-182.5" font-family="Helvetica,sans-Serif" font-size="10.00">+</text>
<text text-anchor="start" x="282" y="-182.5" font-family="Helvetica,sans-Serif" font-size="10.00">center()</text>
<text text-anchor="start" x="269" y="-167.5" font-family="Helvetica,sans-Serif" font-size="10.00">+</text>
<text text-anchor="start" x="282" y="-167.5" font-family="Helvetica,sans-Serif" font-size="10.00">getVanishNumber()</text>
<text text-anchor="start" x="269" y="-152.5" font-family="Helvetica,sans-Serif" font-size="10.00">+</text>
<text text-anchor="start" x="282" y="-152.5" font-family="Helvetica,sans-Serif" font-size="10.00">type()</text>
<polygon fill="#666666" stroke="#666666" points="265,-327.5 265,-327.5 381,-327.5 381,-327.5 265,-327.5"/>
<polygon fill="#666666" stroke="#666666" points="265,-312.5 265,-312.5 381,-312.5 381,-312.5 265,-312.5"/>
<polygon fill="none" stroke="#666666" points="265,-146 265,-345 381,-345 381,-146 265,-146"/>
</a>
</g>
</g>
<!-- Node2&#45;&gt;Node1 -->
<g id="edge1_Node000001_Node000002" class="edge">
<title>Node2&#45;&gt;Node1</title>
<g id="a_edge1_Node000001_Node000002"><a xlink:title=" ">
<path fill="none" stroke="#63b8ff" d="M323,-135.61C323,-126.59 323,-117.75 323,-109.43"/>
<polygon fill="none" stroke="#63b8ff" points="319.5,-135.85 323,-145.85 326.5,-135.85 319.5,-135.85"/>
</a>
</g>
</g>
<!-- Node3 -->
<g id="Node000003" class="node">
<title>Node3</title>
<g id="a_Node000003"><a xlink:title=" ">
<polygon fill="white" stroke="transparent" points="211.5,-461.5 104.5,-461.5 104.5,-401.5 211.5,-401.5 211.5,-461.5"/>
<text text-anchor="start" x="110" y="-449.5" font-family="Helvetica,sans-Serif" font-size="10.00">std::vector&lt; tracker</text>
<text text-anchor="start" x="143" y="-438.5" font-family="Helvetica,sans-Serif" font-size="10.00">::ptr &gt;</text>
<text text-anchor="start" x="156.5" y="-423.5" font-family="Helvetica,sans-Serif" font-size="10.00"> </text>
<text text-anchor="start" x="156.5" y="-408.5" font-family="Helvetica,sans-Serif" font-size="10.00"> </text>
<polygon fill="#666666" stroke="#666666" points="105,-433.5 105,-433.5 212,-433.5 212,-433.5 105,-433.5"/>
<polygon fill="#666666" stroke="#666666" points="105,-418.5 105,-418.5 212,-418.5 212,-418.5 105,-418.5"/>
<polygon fill="none" stroke="#666666" points="104.5,-401.5 104.5,-461.5 211.5,-461.5 211.5,-401.5 104.5,-401.5"/>
</a>
</g>
</g>
<!-- Node3&#45;&gt;Node2 -->
<g id="edge2_Node000002_Node000003" class="edge">
<title>Node3&#45;&gt;Node2</title>
<g id="a_edge2_Node000002_Node000003"><a xlink:title=" ">
<path fill="none" stroke="#63b8ff" d="M178.3,-401.23C187.06,-389.1 197.66,-375.07 208,-363 223.03,-345.45 240.12,-327.29 256.44,-310.68"/>
<polygon fill="none" stroke="#63b8ff" points="256.45,-310.68 257.83,-303.6 264.89,-302.15 263.51,-309.23 256.45,-310.68"/>
</a>
</g>
<text text-anchor="middle" x="236" y="-366" font-family="Helvetica,sans-Serif" font-size="10.00" fill="grey"> #_trackers</text>
</g>
<!-- Node4 -->
<g id="Node000004" class="node">
<title>Node4</title>
<g id="a_Node000004"><a xlink:title=" ">
<polygon fill="white" stroke="transparent" points="112,-567 0,-567 0,-518 112,-518 112,-567"/>
<text text-anchor="start" x="5" y="-554.5" font-family="Helvetica,sans-Serif" font-size="10.00">std::shared_ptr&lt; T &gt;</text>
<text text-anchor="start" x="54" y="-539.5" font-family="Helvetica,sans-Serif" font-size="10.00"> </text>
<text text-anchor="start" x="11.5" y="-524.5" font-family="Helvetica,sans-Serif" font-size="10.00">+</text>
<text text-anchor="start" x="32" y="-524.5" font-family="Helvetica,sans-Serif" font-size="10.00">operator&#45;&gt;()</text>
<polygon fill="#666666" stroke="#666666" points="0,-549.5 0,-549.5 112,-549.5 112,-549.5 0,-549.5"/>
<polygon fill="#666666" stroke="#666666" points="0,-534.5 0,-534.5 112,-534.5 112,-534.5 0,-534.5"/>
<polygon fill="none" stroke="#666666" points="0,-518 0,-567 112,-567 112,-518 0,-518"/>
</a>
</g>
</g>
<!-- Node4&#45;&gt;Node3 -->
<g id="edge3_Node000003_Node000004" class="edge">
<title>Node4&#45;&gt;Node3</title>
<g id="a_edge3_Node000003_Node000004"><a xlink:title=" ">
<path fill="none" stroke="#63b8ff" d="M78.13,-517.85C91.06,-504.03 107.68,-486.27 122.41,-470.53"/>
<polygon fill="none" stroke="#63b8ff" points="122.63,-470.3 123.8,-463.19 130.82,-461.54 129.65,-468.65 122.63,-470.3"/>
</a>
</g>
<text text-anchor="middle" x="133" y="-492" font-family="Helvetica,sans-Serif" font-size="10.00" fill="grey"> +elements</text>
</g>
<!-- Node5 -->
<g id="Node000005" class="node">
<title>Node5</title>
<g id="a_Node000005"><a xlink:title=" ">
<polygon fill="white" stroke="transparent" points="124.5,-663 107.5,-663 107.5,-614 124.5,-614 124.5,-663"/>
<text text-anchor="start" x="113" y="-650.5" font-family="Helvetica,sans-Serif" font-size="10.00">T</text>
<text text-anchor="start" x="114.5" y="-635.5" font-family="Helvetica,sans-Serif" font-size="10.00"> </text>
<text text-anchor="start" x="114.5" y="-620.5" font-family="Helvetica,sans-Serif" font-size="10.00"> </text>
<polygon fill="#666666" stroke="#666666" points="108,-645.5 108,-645.5 125,-645.5 125,-645.5 108,-645.5"/>
<polygon fill="#666666" stroke="#666666" points="108,-630.5 108,-630.5 125,-630.5 125,-630.5 108,-630.5"/>
<polygon fill="none" stroke="#666666" points="107.5,-614 107.5,-663 124.5,-663 124.5,-614 107.5,-614"/>
</a>
</g>
</g>
<!-- Node5&#45;&gt;Node4 -->
<g id="edge4_Node000004_Node000005" class="edge">
<title>Node5&#45;&gt;Node4</title>
<g id="a_edge4_Node000004_Node000005"><a xlink:title=" ">
<path fill="none" stroke="#63b8ff" d="M107.4,-624.03C99.64,-611.87 87.89,-593.46 77.58,-577.32"/>
<polygon fill="none" stroke="#63b8ff" points="77.53,-577.23 70.93,-574.33 71.08,-567.12 77.68,-570.02 77.53,-577.23"/>
</a>
</g>
<text text-anchor="middle" x="100.5" y="-588" font-family="Helvetica,sans-Serif" font-size="10.00" fill="grey"> +ptr</text>
</g>
<!-- Node6 -->
<g id="Node000006" class="node">
<title>Node6</title>
<g id="a_Node000006"><a xlink:title=" ">
<polygon fill="white" stroke="transparent" points="221.5,-567 130.5,-567 130.5,-518 221.5,-518 221.5,-567"/>
<text text-anchor="start" x="136" y="-554.5" font-family="Helvetica,sans-Serif" font-size="10.00">std::vector&lt; T &gt;</text>
<text text-anchor="start" x="174.5" y="-539.5" font-family="Helvetica,sans-Serif" font-size="10.00"> </text>
<text text-anchor="start" x="174.5" y="-524.5" font-family="Helvetica,sans-Serif" font-size="10.00"> </text>
<polygon fill="#666666" stroke="#666666" points="131,-549.5 131,-549.5 222,-549.5 222,-549.5 131,-549.5"/>
<polygon fill="#666666" stroke="#666666" points="131,-534.5 131,-534.5 222,-534.5 222,-534.5 131,-534.5"/>
<polygon fill="none" stroke="#666666" points="130.5,-518 130.5,-567 221.5,-567 221.5,-518 130.5,-518"/>
</a>
</g>
</g>
<!-- Node5&#45;&gt;Node6 -->
<g id="edge6_Node000006_Node000005" class="edge">
<title>Node5&#45;&gt;Node6</title>
<g id="a_edge6_Node000006_Node000005"><a xlink:title=" ">
<path fill="none" stroke="#63b8ff" d="M124.6,-624.03C132.36,-611.87 144.11,-593.46 154.42,-577.32"/>
<polygon fill="none" stroke="#63b8ff" points="154.47,-577.23 154.32,-570.02 160.92,-567.12 161.07,-574.33 154.47,-577.23"/>
</a>
</g>
<text text-anchor="middle" x="177" y="-588" font-family="Helvetica,sans-Serif" font-size="10.00" fill="grey"> +elements</text>
</g>
<!-- Node6&#45;&gt;Node3 -->
<g id="edge5_Node000003_Node000006" class="edge">
<title>Node6&#45;&gt;Node3</title>
<g id="a_edge5_Node000003_Node000006"><a xlink:title=" ">
<path fill="none" stroke="orange" d="M170.4,-507.59C167.96,-492.83 165.13,-475.71 162.8,-461.54"/>
<polygon fill="orange" stroke="orange" points="167.01,-508.55 172.09,-517.85 173.92,-507.41 167.01,-508.55"/>
</a>
</g>
<text text-anchor="middle" x="209.5" y="-492" font-family="Helvetica,sans-Serif" font-size="10.00" fill="grey"> &lt; tracker::ptr &gt;</text>
</g>
<!-- Node7 -->
<g id="Node000007" class="node">
<title>Node7</title>
<g id="a_Node000007"><a xlink:title=" ">
<polygon fill="white" stroke="transparent" points="274.5,-456 229.5,-456 229.5,-407 274.5,-407 274.5,-456"/>
<text text-anchor="start" x="235" y="-443.5" font-family="Helvetica,sans-Serif" font-size="10.00">Point2f</text>
<text text-anchor="start" x="250.5" y="-428.5" font-family="Helvetica,sans-Serif" font-size="10.00"> </text>
<text text-anchor="start" x="250.5" y="-413.5" font-family="Helvetica,sans-Serif" font-size="10.00"> </text>
<polygon fill="#666666" stroke="#666666" points="230,-438.5 230,-438.5 275,-438.5 275,-438.5 230,-438.5"/>
<polygon fill="#666666" stroke="#666666" points="230,-423.5 230,-423.5 275,-423.5 275,-423.5 230,-423.5"/>
<polygon fill="none" stroke="#666666" points="229.5,-407 229.5,-456 274.5,-456 274.5,-407 229.5,-407"/>
</a>
</g>
</g>
<!-- Node7&#45;&gt;Node2 -->
<g id="edge7_Node000002_Node000007" class="edge">
<title>Node7&#45;&gt;Node2</title>
<g id="a_edge7_Node000002_Node000007"><a xlink:title=" ">
<path fill="none" stroke="#63b8ff" d="M257.77,-406.81C261.17,-393.74 265.82,-377.31 271,-363 271.76,-360.9 272.54,-358.79 273.33,-356.67"/>
<polygon fill="none" stroke="#63b8ff" points="273.42,-356.44 271.86,-349.4 277.75,-345.25 279.32,-352.28 273.42,-356.44"/>
</a>
</g>
<text text-anchor="middle" x="295" y="-366" font-family="Helvetica,sans-Serif" font-size="10.00" fill="grey"> #_center</text>
</g>
<!-- Node8 -->
<g id="Node000008" class="node">
<title>Node8</title>
<g id="a_Node000008"><a xlink:title=" ">
<polygon fill="white" stroke="transparent" points="339,-456 307,-456 307,-407 339,-407 339,-456"/>
<text text-anchor="start" x="312" y="-443.5" font-family="Helvetica,sans-Serif" font-size="10.00">bool</text>
<text text-anchor="start" x="321" y="-428.5" font-family="Helvetica,sans-Serif" font-size="10.00"> </text>
<text text-anchor="start" x="321" y="-413.5" font-family="Helvetica,sans-Serif" font-size="10.00"> </text>
<polygon fill="#666666" stroke="#666666" points="307,-438.5 307,-438.5 339,-438.5 339,-438.5 307,-438.5"/>
<polygon fill="#666666" stroke="#666666" points="307,-423.5 307,-423.5 339,-423.5 339,-423.5 307,-423.5"/>
<polygon fill="none" stroke="#666666" points="307,-407 307,-456 339,-456 339,-407 307,-407"/>
</a>
</g>
</g>
<!-- Node8&#45;&gt;Node2 -->
<g id="edge8_Node000002_Node000008" class="edge">
<title>Node8&#45;&gt;Node2</title>
<g id="a_edge8_Node000002_Node000008"><a xlink:title=" ">
<path fill="none" stroke="#63b8ff" d="M323,-406.82C323,-393.54 323,-375.91 323,-357.2"/>
<polygon fill="none" stroke="#63b8ff" points="323,-357.12 319,-351.12 323,-345.12 327,-351.12 323,-357.12"/>
</a>
</g>
<text text-anchor="middle" x="356.5" y="-366" font-family="Helvetica,sans-Serif" font-size="10.00" fill="grey"> #_is_tracked</text>
</g>
<!-- Node9 -->
<g id="Node000009" class="node">
<title>Node9</title>
<g id="a_Node000009"><a xlink:title=" ">
<polygon fill="white" stroke="transparent" points="438,-456 388,-456 388,-407 438,-407 438,-456"/>
<text text-anchor="start" x="393" y="-443.5" font-family="Helvetica,sans-Serif" font-size="10.00">uint32_t</text>
<text text-anchor="start" x="411" y="-428.5" font-family="Helvetica,sans-Serif" font-size="10.00"> </text>
<text text-anchor="start" x="411" y="-413.5" font-family="Helvetica,sans-Serif" font-size="10.00"> </text>
<polygon fill="#666666" stroke="#666666" points="388,-438.5 388,-438.5 438,-438.5 438,-438.5 388,-438.5"/>
<polygon fill="#666666" stroke="#666666" points="388,-423.5 388,-423.5 438,-423.5 438,-423.5 388,-423.5"/>
<polygon fill="none" stroke="#666666" points="388,-407 388,-456 438,-456 438,-407 388,-407"/>
</a>
</g>
</g>
<!-- Node9&#45;&gt;Node2 -->
<g id="edge9_Node000002_Node000009" class="edge">
<title>Node9&#45;&gt;Node2</title>
<g id="a_edge9_Node000002_Node000009"><a xlink:title=" ">
<path fill="none" stroke="#63b8ff" d="M406.66,-406.92C402.79,-393.74 397.36,-377.17 391,-363 389.56,-359.79 388.06,-356.57 386.5,-353.33"/>
<polygon fill="none" stroke="#63b8ff" points="386.36,-353.04 380.11,-349.44 381.03,-342.29 387.28,-345.89 386.36,-353.04"/>
</a>
</g>
<text text-anchor="middle" x="434" y="-366" font-family="Helvetica,sans-Serif" font-size="10.00" fill="grey"> #_vanish_num</text>
</g>
<!-- Node10 -->
<g id="Node000010" class="node">
<title>Node10</title>
<g id="a_Node000010"><a xlink:href="../../d0/d01/structrm_1_1RMStatus.html" target="_top" xlink:title="状态类型">
<polygon fill="white" stroke="transparent" points="555.5,-471 468.5,-471 468.5,-392 555.5,-392 555.5,-471"/>
<text text-anchor="start" x="479" y="-458.5" font-family="Helvetica,sans-Serif" font-size="10.00">rm::RMStatus</text>
<text text-anchor="start" x="510.5" y="-443.5" font-family="Helvetica,sans-Serif" font-size="10.00"> </text>
<text text-anchor="start" x="473" y="-428.5" font-family="Helvetica,sans-Serif" font-size="10.00">+</text>
<text text-anchor="start" x="486" y="-428.5" font-family="Helvetica,sans-Serif" font-size="10.00">operator==()</text>
<text text-anchor="start" x="473" y="-413.5" font-family="Helvetica,sans-Serif" font-size="10.00">+</text>
<text text-anchor="start" x="486" y="-413.5" font-family="Helvetica,sans-Serif" font-size="10.00">to_string()</text>
<text text-anchor="start" x="473" y="-398.5" font-family="Helvetica,sans-Serif" font-size="10.00">+</text>
<text text-anchor="start" x="486" y="-398.5" font-family="Helvetica,sans-Serif" font-size="10.00">to_string()</text>
<polygon fill="#666666" stroke="#666666" points="469,-453.5 469,-453.5 556,-453.5 556,-453.5 469,-453.5"/>
<polygon fill="#666666" stroke="#666666" points="469,-438.5 469,-438.5 556,-438.5 556,-438.5 469,-438.5"/>
<polygon fill="none" stroke="#666666" points="468.5,-392 468.5,-471 555.5,-471 555.5,-392 468.5,-392"/>
</a>
</g>
</g>
<!-- Node10&#45;&gt;Node2 -->
<g id="edge10_Node000002_Node000010" class="edge">
<title>Node10&#45;&gt;Node2</title>
<g id="a_edge10_Node000002_Node000010"><a xlink:title=" ">
<path fill="none" stroke="#63b8ff" d="M495.06,-391.89C489.74,-381.93 483.32,-371.6 476,-363 451.91,-334.68 419.82,-308.95 391.25,-288.92"/>
<polygon fill="none" stroke="#63b8ff" points="391.2,-288.88 383.99,-288.78 381.32,-282.08 388.53,-282.19 391.2,-288.88"/>
</a>
</g>
<text text-anchor="middle" x="502.5" y="-366" font-family="Helvetica,sans-Serif" font-size="10.00" fill="grey"> #_type</text>
</g>
<!-- Node11 -->
<g id="Node000011" class="node">
<title>Node11</title>
<g id="a_Node000011"><a xlink:title=" ">
<polygon fill="white" stroke="transparent" points="341.5,-567 258.5,-567 258.5,-518 341.5,-518 341.5,-567"/>
<text text-anchor="start" x="264" y="-554.5" font-family="Helvetica,sans-Serif" font-size="10.00">ArmorSizeType</text>
<text text-anchor="start" x="298.5" y="-539.5" font-family="Helvetica,sans-Serif" font-size="10.00"> </text>
<text text-anchor="start" x="298.5" y="-524.5" font-family="Helvetica,sans-Serif" font-size="10.00"> </text>
<polygon fill="#666666" stroke="#666666" points="259,-549.5 259,-549.5 342,-549.5 342,-549.5 259,-549.5"/>
<polygon fill="#666666" stroke="#666666" points="259,-534.5 259,-534.5 342,-534.5 342,-534.5 259,-534.5"/>
<polygon fill="none" stroke="#666666" points="258.5,-518 258.5,-567 341.5,-567 341.5,-518 258.5,-518"/>
</a>
</g>
</g>
<!-- Node11&#45;&gt;Node10 -->
<g id="edge11_Node000010_Node000011" class="edge">
<title>Node11&#45;&gt;Node10</title>
<g id="a_edge11_Node000010_Node000011"><a xlink:title=" ">
<path fill="none" stroke="#63b8ff" d="M309.46,-517.74C314.82,-507.3 322.58,-495.88 333,-489 375.82,-460.76 398.74,-488.38 447,-471 450.47,-469.75 453.96,-468.31 457.42,-466.74"/>
<polygon fill="none" stroke="#63b8ff" points="457.59,-466.66 461.19,-460.42 468.34,-461.34 464.74,-467.59 457.59,-466.66"/>
</a>
</g>
<text text-anchor="middle" x="380.5" y="-492" font-family="Helvetica,sans-Serif" font-size="10.00" fill="grey"> +ArmorSizeTypeID</text>
</g>
<!-- Node12 -->
<g id="Node000012" class="node">
<title>Node12</title>
<g id="a_Node000012"><a xlink:title=" ">
<polygon fill="white" stroke="transparent" points="447,-567 389,-567 389,-518 447,-518 447,-567"/>
<text text-anchor="start" x="394" y="-554.5" font-family="Helvetica,sans-Serif" font-size="10.00">RuneType</text>
<text text-anchor="start" x="416" y="-539.5" font-family="Helvetica,sans-Serif" font-size="10.00"> </text>
<text text-anchor="start" x="416" y="-524.5" font-family="Helvetica,sans-Serif" font-size="10.00"> </text>
<polygon fill="#666666" stroke="#666666" points="389,-549.5 389,-549.5 447,-549.5 447,-549.5 389,-549.5"/>
<polygon fill="#666666" stroke="#666666" points="389,-534.5 389,-534.5 447,-534.5 447,-534.5 389,-534.5"/>
<polygon fill="none" stroke="#666666" points="389,-518 389,-567 447,-567 447,-518 389,-518"/>
</a>
</g>
</g>
<!-- Node12&#45;&gt;Node10 -->
<g id="edge12_Node000010_Node000012" class="edge">
<title>Node12&#45;&gt;Node10</title>
<g id="a_edge12_Node000010_Node000012"><a xlink:title=" ">
<path fill="none" stroke="#63b8ff" d="M423.92,-517.87C427.07,-508.3 431.64,-497.52 438,-489 443.91,-481.08 451.22,-473.72 458.92,-467.11"/>
<polygon fill="none" stroke="#63b8ff" points="459.11,-466.96 461.26,-460.08 468.44,-459.42 466.29,-466.3 459.11,-466.96"/>
</a>
</g>
<text text-anchor="middle" x="473" y="-492" font-family="Helvetica,sans-Serif" font-size="10.00" fill="grey"> +RuneTypeID</text>
</g>
<!-- Node13 -->
<g id="Node000013" class="node">
<title>Node13</title>
<g id="a_Node000013"><a xlink:title=" ">
<polygon fill="white" stroke="transparent" points="560.5,-567 465.5,-567 465.5,-518 560.5,-518 560.5,-567"/>
<text text-anchor="start" x="471" y="-554.5" font-family="Helvetica,sans-Serif" font-size="10.00">CompensateType</text>
<text text-anchor="start" x="511.5" y="-539.5" font-family="Helvetica,sans-Serif" font-size="10.00"> </text>
<text text-anchor="start" x="511.5" y="-524.5" font-family="Helvetica,sans-Serif" font-size="10.00"> </text>
<polygon fill="#666666" stroke="#666666" points="466,-549.5 466,-549.5 561,-549.5 561,-549.5 466,-549.5"/>
<polygon fill="#666666" stroke="#666666" points="466,-534.5 466,-534.5 561,-534.5 561,-534.5 466,-534.5"/>
<polygon fill="none" stroke="#666666" points="465.5,-518 465.5,-567 560.5,-567 560.5,-518 465.5,-518"/>
</a>
</g>
</g>
<!-- Node13&#45;&gt;Node10 -->
<g id="edge13_Node000010_Node000013" class="edge">
<title>Node13&#45;&gt;Node10</title>
<g id="a_edge13_Node000010_Node000013"><a xlink:title=" ">
<path fill="none" stroke="#63b8ff" d="M512.78,-517.85C512.69,-507.72 512.58,-495.47 512.47,-483.45"/>
<polygon fill="none" stroke="#63b8ff" points="512.46,-483.1 508.41,-477.14 512.35,-471.1 516.41,-477.07 512.46,-483.1"/>
</a>
</g>
<text text-anchor="middle" x="565" y="-492" font-family="Helvetica,sans-Serif" font-size="10.00" fill="grey"> +CompensateTypeID</text>
</g>
<!-- Node14 -->
<g id="Node000014" class="node">
<title>Node14</title>
<g id="a_Node000014"><a xlink:title=" ">
<polygon fill="white" stroke="transparent" points="672,-567 610,-567 610,-518 672,-518 672,-567"/>
<text text-anchor="start" x="615" y="-554.5" font-family="Helvetica,sans-Serif" font-size="10.00">RobotType</text>
<text text-anchor="start" x="639" y="-539.5" font-family="Helvetica,sans-Serif" font-size="10.00"> </text>
<text text-anchor="start" x="639" y="-524.5" font-family="Helvetica,sans-Serif" font-size="10.00"> </text>
<polygon fill="#666666" stroke="#666666" points="610,-549.5 610,-549.5 672,-549.5 672,-549.5 610,-549.5"/>
<polygon fill="#666666" stroke="#666666" points="610,-534.5 610,-534.5 672,-534.5 672,-534.5 610,-534.5"/>
<polygon fill="none" stroke="#666666" points="610,-518 610,-567 672,-567 672,-518 610,-518"/>
</a>
</g>
</g>
<!-- Node14&#45;&gt;Node10 -->
<g id="edge14_Node000010_Node000014" class="edge">
<title>Node14&#45;&gt;Node10</title>
<g id="a_edge14_Node000010_Node000014"><a xlink:title=" ">
<path fill="none" stroke="#63b8ff" d="M634.95,-517.84C631.52,-508.04 626.4,-497.09 619,-489 604.73,-473.39 585.13,-461.33 566.61,-452.42"/>
<polygon fill="none" stroke="#63b8ff" points="566.5,-452.38 559.38,-453.54 555.57,-447.42 562.69,-446.25 566.5,-452.38"/>
</a>
</g>
<text text-anchor="middle" x="662.5" y="-492" font-family="Helvetica,sans-Serif" font-size="10.00" fill="grey"> +RobotTypeID</text>
</g>
<!-- Node15 -->
<g id="Node000015" class="node">
<title>Node15</title>
<g id="a_Node000015"><a xlink:title=" ">
<polygon fill="white" stroke="transparent" points="762,-567 712,-567 712,-518 762,-518 762,-567"/>
<text text-anchor="start" x="717" y="-554.5" font-family="Helvetica,sans-Serif" font-size="10.00">TagType</text>
<text text-anchor="start" x="735" y="-539.5" font-family="Helvetica,sans-Serif" font-size="10.00"> </text>
<text text-anchor="start" x="735" y="-524.5" font-family="Helvetica,sans-Serif" font-size="10.00"> </text>
<polygon fill="#666666" stroke="#666666" points="712,-549.5 712,-549.5 762,-549.5 762,-549.5 712,-549.5"/>
<polygon fill="#666666" stroke="#666666" points="712,-534.5 712,-534.5 762,-534.5 762,-534.5 712,-534.5"/>
<polygon fill="none" stroke="#666666" points="712,-518 712,-567 762,-567 762,-518 712,-518"/>
</a>
</g>
</g>
<!-- Node15&#45;&gt;Node10 -->
<g id="edge15_Node000010_Node000015" class="edge">
<title>Node15&#45;&gt;Node10</title>
<g id="a_edge15_Node000010_Node000015"><a xlink:title=" ">
<path fill="none" stroke="#63b8ff" d="M726.37,-517.8C720.74,-507.63 712.92,-496.41 703,-489 663.38,-459.39 608.4,-445.23 567.6,-438.5"/>
<polygon fill="none" stroke="#63b8ff" points="567.56,-438.49 561.02,-441.54 555.69,-436.68 562.23,-433.63 567.56,-438.49"/>
</a>
</g>
<text text-anchor="middle" x="743.5" y="-492" font-family="Helvetica,sans-Serif" font-size="10.00" fill="grey"> +TagTypeID</text>
</g>
</g>
</svg>
