<?xml version="1.0" encoding="UTF-8" standalone="no"?>
<!DOCTYPE svg PUBLIC "-//W3C//DTD SVG 1.1//EN"
 "http://www.w3.org/Graphics/SVG/1.1/DTD/svg11.dtd">
<!-- Generated by graphviz version 2.43.0 (0)
 -->
<!-- Title: rmvl/detector/rune_detector.h Pages: 1 -->
<!--zoomable 478 -->

<svg id="main" version="1.1" xmlns="http://www.w3.org/2000/svg" xmlns:xlink="http://www.w3.org/1999/xlink" xml:space="preserve" onload="init(evt)">
<style type="text/css"><![CDATA[
.node, .edge {opacity: 0.7;}
.node.selected, .edge.selected {opacity: 1;}
.edge:hover path { stroke: red; }
.edge:hover polygon { stroke: red; fill: red; }
]]></style>

<defs>
  <circle id="rim" cx="0" cy="0" r="7"/>
  <circle id="rim2" cx="0" cy="0" r="3.5"/>
  <g id="zoomPlus">
    <use xlink:href="#rim" fill="#404040"><set attributeName="fill" to="#808080" begin="zoomplus.mouseover" end="zoomplus.mouseout"/></use>
    <path d="M-4,0h8M0,-4v8" fill="none" stroke="white" stroke-width="1.5" pointer-events="none"/>
  </g>
  <g id="zoomMin">
    <use xlink:href="#rim" fill="#404040"><set attributeName="fill" to="#808080" begin="zoomminus.mouseover" end="zoomminus.mouseout"/></use>
    <path d="M-4,0h8" fill="none" stroke="white" stroke-width="1.5" pointer-events="none"/>
  </g>
  <g id="arrowUp" transform="translate(30 24)">
    <use xlink:href="#rim"/>
    <path pointer-events="none" fill="none" stroke="white" stroke-width="1.5" d="M0,-3.0v7 M-2.5,-0.5L0,-3.0L2.5,-0.5"/>
  </g>
  <g id="arrowRight" transform="rotate(90) translate(36 -43)">
    <use xlink:href="#rim"/>
    <path pointer-events="none" fill="none" stroke="white" stroke-width="1.5" d="M0,-3.0v7 M-2.5,-0.5L0,-3.0L2.5,-0.5"/>
  </g>
  <g id="arrowDown" transform="rotate(180) translate(-30 -48)">
    <use xlink:href="#rim"/>
    <path pointer-events="none" fill="none" stroke="white" stroke-width="1.5" d="M0,-3.0v7 M-2.5,-0.5L0,-3.0L2.5,-0.5"/>
  </g>
  <g id="arrowLeft" transform="rotate(270) translate(-36 17)">
    <use xlink:href="#rim"/>
    <path pointer-events="none" fill="none" stroke="white" stroke-width="1.5" d="M0,-3.0v7 M-2.5,-0.5L0,-3.0L2.5,-0.5"/>
  </g>
  <g id="resetDef">
    <use xlink:href="#rim2" fill="#404040"><set attributeName="fill" to="#808080" begin="reset.mouseover" end="reset.mouseout"/></use>
  </g>
</defs>
<script type="application/ecmascript">
var viewWidth = 1080;
var viewHeight = 478;
var sectionId = 'dynsection-0';
</script>
<script type="application/ecmascript" xlink:href="../../svg.min.js"/>
<svg id="graph" class="graph">
<g id="viewport">
<title>rmvl/detector/rune_detector.h</title>
<!-- Node1 -->
<g id="Node000001" class="node">
<title>Node1</title>
<g id="a_Node000001"><a xlink:title="神符识别派生类头文件">
<polygon fill="#999999" stroke="#666666" points="522,-470 415,-470 415,-440 522,-440 522,-470"/>
<text text-anchor="start" x="423" y="-458" font-family="Helvetica,sans-Serif" font-size="10.00">rmvl/detector/rune</text>
<text text-anchor="middle" x="468.5" y="-447" font-family="Helvetica,sans-Serif" font-size="10.00">_detector.h</text>
</a>
</g>
</g>
<!-- Node2 -->
<g id="Node000002" class="node">
<title>Node2</title>
<g id="a_Node000002"><a xlink:href="../../d5/d9f/detector_8h.html" target="_top" xlink:title="抽象识别类头文件">
<polygon fill="white" stroke="#666666" points="471,-404 406,-404 406,-385 471,-385 471,-404"/>
<text text-anchor="middle" x="438.5" y="-392" font-family="Helvetica,sans-Serif" font-size="10.00">detector.h</text>
</a>
</g>
</g>
<!-- Node1&#45;&gt;Node2 -->
<g id="edge1_Node000001_Node000002" class="edge">
<title>Node1&#45;&gt;Node2</title>
<g id="a_edge1_Node000001_Node000002"><a xlink:title=" ">
<path fill="none" stroke="#63b8ff" d="M461.24,-439.84C457.15,-431.87 452.01,-421.84 447.64,-413.33"/>
<polygon fill="#63b8ff" stroke="#63b8ff" points="450.67,-411.57 443,-404.27 444.44,-414.76 450.67,-411.57"/>
</a>
</g>
</g>
<!-- Node30 -->
<g id="Node000030" class="node">
<title>Node30</title>
<g id="a_Node000030"><a xlink:href="../../dd/d0a/tracker_2rune__tracker_8h.html" target="_top" xlink:title="神符追踪器头文件">
<polygon fill="white" stroke="#666666" points="659.5,-349 511.5,-349 511.5,-330 659.5,-330 659.5,-349"/>
<text text-anchor="middle" x="585.5" y="-337" font-family="Helvetica,sans-Serif" font-size="10.00">rmvl/tracker/rune_tracker.h</text>
</a>
</g>
</g>
<!-- Node1&#45;&gt;Node30 -->
<g id="edge31_Node000001_Node000030" class="edge">
<title>Node1&#45;&gt;Node30</title>
<g id="a_edge31_Node000001_Node000030"><a xlink:title=" ">
<path fill="none" stroke="#63b8ff" d="M483.32,-439.63C505.32,-418.28 546.47,-378.36 569.27,-356.25"/>
<polygon fill="#63b8ff" stroke="#63b8ff" points="571.76,-358.7 576.5,-349.23 566.89,-353.68 571.76,-358.7"/>
</a>
</g>
</g>
<!-- Node3 -->
<g id="Node000003" class="node">
<title>Node3</title>
<g id="a_Node000003"><a xlink:href="../../d9/dd1/group_8h.html" target="_top" xlink:title="序列组抽象头文件">
<polygon fill="white" stroke="#666666" points="493.5,-349 383.5,-349 383.5,-330 493.5,-330 493.5,-349"/>
<text text-anchor="middle" x="438.5" y="-337" font-family="Helvetica,sans-Serif" font-size="10.00">rmvl/group/group.h</text>
</a>
</g>
</g>
<!-- Node2&#45;&gt;Node3 -->
<g id="edge2_Node000002_Node000003" class="edge">
<title>Node2&#45;&gt;Node3</title>
<g id="a_edge2_Node000002_Node000003"><a xlink:title=" ">
<path fill="none" stroke="#63b8ff" d="M438.5,-384.75C438.5,-377.8 438.5,-367.85 438.5,-359.13"/>
<polygon fill="#63b8ff" stroke="#63b8ff" points="442,-359.09 438.5,-349.09 435,-359.09 442,-359.09"/>
</a>
</g>
</g>
<!-- Node28 -->
<g id="Node000028" class="node">
<title>Node28</title>
<g id="a_Node000028"><a xlink:href="../../df/d4b/pretreat_8h.html" target="_top" xlink:title="Header of the image pretreating module">
<polygon fill="white" stroke="#666666" points="357,-349 224,-349 224,-330 357,-330 357,-349"/>
<text text-anchor="middle" x="290.5" y="-337" font-family="Helvetica,sans-Serif" font-size="10.00">rmvl/imgproc/pretreat.h</text>
</a>
</g>
</g>
<!-- Node2&#45;&gt;Node28 -->
<g id="edge29_Node000002_Node000028" class="edge">
<title>Node2&#45;&gt;Node28</title>
<g id="a_edge29_Node000002_Node000028"><a xlink:title=" ">
<path fill="none" stroke="#63b8ff" d="M414.72,-384.98C390.27,-376.23 351.97,-362.51 324.35,-352.62"/>
<polygon fill="#63b8ff" stroke="#63b8ff" points="325.31,-349.25 314.71,-349.17 322.95,-355.84 325.31,-349.25"/>
</a>
</g>
</g>
<!-- Node4 -->
<g id="Node000004" class="node">
<title>Node4</title>
<g id="a_Node000004"><a xlink:href="../../dc/ded/tracker_8h.html" target="_top" xlink:title="追踪器抽象头文件">
<polygon fill="white" stroke="#666666" points="515,-294 394,-294 394,-275 515,-275 515,-294"/>
<text text-anchor="middle" x="454.5" y="-282" font-family="Helvetica,sans-Serif" font-size="10.00">rmvl/tracker/tracker.h</text>
</a>
</g>
</g>
<!-- Node3&#45;&gt;Node4 -->
<g id="edge3_Node000003_Node000004" class="edge">
<title>Node3&#45;&gt;Node4</title>
<g id="a_edge3_Node000003_Node000004"><a xlink:title=" ">
<path fill="none" stroke="#63b8ff" d="M441.14,-329.75C443.26,-322.72 446.31,-312.62 448.96,-303.84"/>
<polygon fill="#63b8ff" stroke="#63b8ff" points="452.37,-304.67 451.91,-294.09 445.67,-302.65 452.37,-304.67"/>
</a>
</g>
</g>
<!-- Node5 -->
<g id="Node000005" class="node">
<title>Node5</title>
<g id="a_Node000005"><a xlink:title=" ">
<polygon fill="#e0e0e0" stroke="#999999" points="393,-239 346,-239 346,-220 393,-220 393,-239"/>
<text text-anchor="middle" x="369.5" y="-227" font-family="Helvetica,sans-Serif" font-size="10.00">deque</text>
</a>
</g>
</g>
<!-- Node4&#45;&gt;Node5 -->
<g id="edge4_Node000004_Node000005" class="edge">
<title>Node4&#45;&gt;Node5</title>
<g id="a_edge4_Node000004_Node000005"><a xlink:title=" ">
<path fill="none" stroke="#63b8ff" d="M440.84,-274.98C427.66,-266.77 407.47,-254.18 391.93,-244.49"/>
<polygon fill="#63b8ff" stroke="#63b8ff" points="393.74,-241.49 383.41,-239.17 390.04,-247.43 393.74,-241.49"/>
</a>
</g>
</g>
<!-- Node6 -->
<g id="Node000006" class="node">
<title>Node6</title>
<g id="a_Node000006"><a xlink:href="../../d8/d36/combo_8h.html" target="_top" xlink:title="the combination of the features header file">
<polygon fill="white" stroke="#666666" points="637.5,-239 517.5,-239 517.5,-220 637.5,-220 637.5,-239"/>
<text text-anchor="middle" x="577.5" y="-227" font-family="Helvetica,sans-Serif" font-size="10.00">rmvl/combo/combo.h</text>
</a>
</g>
</g>
<!-- Node4&#45;&gt;Node6 -->
<g id="edge5_Node000004_Node000006" class="edge">
<title>Node4&#45;&gt;Node6</title>
<g id="a_edge5_Node000004_Node000006"><a xlink:title=" ">
<path fill="none" stroke="#63b8ff" d="M474.26,-274.98C494.23,-266.38 525.3,-252.99 548.15,-243.15"/>
<polygon fill="#63b8ff" stroke="#63b8ff" points="549.58,-246.34 557.38,-239.17 546.81,-239.91 549.58,-246.34"/>
</a>
</g>
</g>
<!-- Node7 -->
<g id="Node000007" class="node">
<title>Node7</title>
<g id="a_Node000007"><a xlink:href="../../d3/d7e/camutils_8hpp.html" target="_top" xlink:title=" ">
<polygon fill="white" stroke="#666666" points="755,-184 610,-184 610,-165 755,-165 755,-184"/>
<text text-anchor="middle" x="682.5" y="-172" font-family="Helvetica,sans-Serif" font-size="10.00">rmvl/camera/camutils.hpp</text>
</a>
</g>
</g>
<!-- Node6&#45;&gt;Node7 -->
<g id="edge6_Node000006_Node000007" class="edge">
<title>Node6&#45;&gt;Node7</title>
<g id="a_edge6_Node000006_Node000007"><a xlink:title=" ">
<path fill="none" stroke="#63b8ff" d="M594.37,-219.98C611.11,-211.54 637,-198.47 656.39,-188.68"/>
<polygon fill="#63b8ff" stroke="#63b8ff" points="657.97,-191.8 665.32,-184.17 654.82,-185.55 657.97,-191.8"/>
</a>
</g>
</g>
<!-- Node9 -->
<g id="Node000009" class="node">
<title>Node9</title>
<g id="a_Node000009"><a xlink:href="../../dc/d71/uty__math_8hpp.html" target="_top" xlink:title=" ">
<polygon fill="white" stroke="#666666" points="254.5,-184 112.5,-184 112.5,-165 254.5,-165 254.5,-184"/>
<text text-anchor="middle" x="183.5" y="-172" font-family="Helvetica,sans-Serif" font-size="10.00">rmvl/rmath/uty_math.hpp</text>
</a>
</g>
</g>
<!-- Node6&#45;&gt;Node9 -->
<g id="edge8_Node000006_Node000009" class="edge">
<title>Node6&#45;&gt;Node9</title>
<g id="a_edge8_Node000006_Node000009"><a xlink:title=" ">
<path fill="none" stroke="#63b8ff" d="M517.23,-220.39C447.33,-210.99 332.12,-195.49 257.02,-185.39"/>
<polygon fill="#63b8ff" stroke="#63b8ff" points="257.08,-181.87 246.7,-184 256.14,-188.8 257.08,-181.87"/>
</a>
</g>
</g>
<!-- Node20 -->
<g id="Node000020" class="node">
<title>Node20</title>
<g id="a_Node000020"><a xlink:href="../../dd/de3/types_8hpp.html" target="_top" xlink:title="常用状态类型定义">
<polygon fill="white" stroke="#666666" points="844.5,-129 754.5,-129 754.5,-110 844.5,-110 844.5,-129"/>
<text text-anchor="middle" x="799.5" y="-117" font-family="Helvetica,sans-Serif" font-size="10.00">rmvl/types.hpp</text>
</a>
</g>
</g>
<!-- Node6&#45;&gt;Node20 -->
<g id="edge19_Node000006_Node000020" class="edge">
<title>Node6&#45;&gt;Node20</title>
<g id="a_edge19_Node000006_Node000020"><a xlink:title=" ">
<path fill="none" stroke="#63b8ff" d="M635.48,-219.96C682.58,-212.08 744.38,-199.31 764.5,-184 779.19,-172.83 788.53,-153.62 793.84,-139.25"/>
<polygon fill="#63b8ff" stroke="#63b8ff" points="797.27,-140.01 797.13,-129.42 790.63,-137.79 797.27,-140.01"/>
</a>
</g>
</g>
<!-- Node21 -->
<g id="Node000021" class="node">
<title>Node21</title>
<g id="a_Node000021"><a xlink:href="../../d5/d60/dataio_8hpp.html" target="_top" xlink:title="陀螺仪数据">
<polygon fill="white" stroke="#666666" points="588.5,-184 470.5,-184 470.5,-165 588.5,-165 588.5,-184"/>
<text text-anchor="middle" x="529.5" y="-172" font-family="Helvetica,sans-Serif" font-size="10.00">rmvl/core/dataio.hpp</text>
</a>
</g>
</g>
<!-- Node6&#45;&gt;Node21 -->
<g id="edge21_Node000006_Node000021" class="edge">
<title>Node6&#45;&gt;Node21</title>
<g id="a_edge21_Node000006_Node000021"><a xlink:title=" ">
<path fill="none" stroke="#63b8ff" d="M569.57,-219.75C562.65,-212.11 552.43,-200.82 544.05,-191.56"/>
<polygon fill="#63b8ff" stroke="#63b8ff" points="546.59,-189.15 537.28,-184.09 541.4,-193.85 546.59,-189.15"/>
</a>
</g>
</g>
<!-- Node25 -->
<g id="Node000025" class="node">
<title>Node25</title>
<g id="a_Node000025"><a xlink:href="../../d2/d74/feature_8h.html" target="_top" xlink:title="feature class header">
<polygon fill="white" stroke="#666666" points="951,-184 826,-184 826,-165 951,-165 951,-184"/>
<text text-anchor="middle" x="888.5" y="-172" font-family="Helvetica,sans-Serif" font-size="10.00">rmvl/feature/feature.h</text>
</a>
</g>
</g>
<!-- Node6&#45;&gt;Node25 -->
<g id="edge25_Node000006_Node000025" class="edge">
<title>Node6&#45;&gt;Node25</title>
<g id="a_edge25_Node000006_Node000025"><a xlink:title=" ">
<path fill="none" stroke="#63b8ff" d="M627.47,-219.98C682.14,-210.67 769.75,-195.74 828.2,-185.78"/>
<polygon fill="#63b8ff" stroke="#63b8ff" points="829.13,-189.17 838.4,-184.04 827.95,-182.27 829.13,-189.17"/>
</a>
</g>
</g>
<!-- Node8 -->
<g id="Node000008" class="node">
<title>Node8</title>
<g id="a_Node000008"><a xlink:title=" ">
<polygon fill="#e0e0e0" stroke="#999999" points="736,-129 633,-129 633,-110 736,-110 736,-129"/>
<text text-anchor="middle" x="684.5" y="-117" font-family="Helvetica,sans-Serif" font-size="10.00">opencv2/core.hpp</text>
</a>
</g>
</g>
<!-- Node7&#45;&gt;Node8 -->
<g id="edge7_Node000007_Node000008" class="edge">
<title>Node7&#45;&gt;Node8</title>
<g id="a_edge7_Node000007_Node000008"><a xlink:title=" ">
<path fill="none" stroke="#63b8ff" d="M682.83,-164.75C683.09,-157.8 683.47,-147.85 683.8,-139.13"/>
<polygon fill="#63b8ff" stroke="#63b8ff" points="687.3,-139.21 684.18,-129.09 680.3,-138.95 687.3,-139.21"/>
</a>
</g>
</g>
<!-- Node10 -->
<g id="Node000010" class="node">
<title>Node10</title>
<g id="a_Node000010"><a xlink:title=" ">
<polygon fill="#e0e0e0" stroke="#999999" points="163,-129 116,-129 116,-110 163,-110 163,-129"/>
<text text-anchor="middle" x="139.5" y="-117" font-family="Helvetica,sans-Serif" font-size="10.00">cmath</text>
</a>
</g>
</g>
<!-- Node9&#45;&gt;Node10 -->
<g id="edge9_Node000009_Node000010" class="edge">
<title>Node9&#45;&gt;Node10</title>
<g id="a_edge9_Node000009_Node000010"><a xlink:title=" ">
<path fill="none" stroke="#63b8ff" d="M176.23,-164.75C169.96,-157.18 160.71,-146.05 153.07,-136.84"/>
<polygon fill="#63b8ff" stroke="#63b8ff" points="155.71,-134.55 146.63,-129.09 150.33,-139.02 155.71,-134.55"/>
</a>
</g>
</g>
<!-- Node11 -->
<g id="Node000011" class="node">
<title>Node11</title>
<g id="a_Node000011"><a xlink:title=" ">
<polygon fill="#e0e0e0" stroke="#999999" points="274,-129 181,-129 181,-110 274,-110 274,-129"/>
<text text-anchor="middle" x="227.5" y="-117" font-family="Helvetica,sans-Serif" font-size="10.00">unordered_map</text>
</a>
</g>
</g>
<!-- Node9&#45;&gt;Node11 -->
<g id="edge10_Node000009_Node000011" class="edge">
<title>Node9&#45;&gt;Node11</title>
<g id="a_edge10_Node000009_Node000011"><a xlink:title=" ">
<path fill="none" stroke="#63b8ff" d="M190.77,-164.75C197.04,-157.18 206.29,-146.05 213.93,-136.84"/>
<polygon fill="#63b8ff" stroke="#63b8ff" points="216.67,-139.02 220.37,-129.09 211.29,-134.55 216.67,-139.02"/>
</a>
</g>
</g>
<!-- Node12 -->
<g id="Node000012" class="node">
<title>Node12</title>
<g id="a_Node000012"><a xlink:title=" ">
<polygon fill="#e0e0e0" stroke="#999999" points="59,-129 0,-129 0,-110 59,-110 59,-129"/>
<text text-anchor="middle" x="29.5" y="-117" font-family="Helvetica,sans-Serif" font-size="10.00">numbers</text>
</a>
</g>
</g>
<!-- Node9&#45;&gt;Node12 -->
<g id="edge11_Node000009_Node000012" class="edge">
<title>Node9&#45;&gt;Node12</title>
<g id="a_edge11_Node000009_Node000012"><a xlink:title=" ">
<path fill="none" stroke="#63b8ff" d="M158.76,-164.98C133.13,-156.16 92.87,-142.31 64.09,-132.41"/>
<polygon fill="#63b8ff" stroke="#63b8ff" points="65.03,-129.03 54.44,-129.08 62.75,-135.65 65.03,-129.03"/>
</a>
</g>
</g>
<!-- Node13 -->
<g id="Node000013" class="node">
<title>Node13</title>
<g id="a_Node000013"><a xlink:title=" ">
<polygon fill="#e0e0e0" stroke="#999999" points="423,-129 292,-129 292,-110 423,-110 423,-129"/>
<text text-anchor="middle" x="357.5" y="-117" font-family="Helvetica,sans-Serif" font-size="10.00">opencv2/core/matx.hpp</text>
</a>
</g>
</g>
<!-- Node9&#45;&gt;Node13 -->
<g id="edge12_Node000009_Node000013" class="edge">
<title>Node9&#45;&gt;Node13</title>
<g id="a_edge12_Node000009_Node000013"><a xlink:title=" ">
<path fill="none" stroke="#63b8ff" d="M211.46,-164.98C240.8,-156.05 287.1,-141.94 319.69,-132.02"/>
<polygon fill="#63b8ff" stroke="#63b8ff" points="320.78,-135.34 329.32,-129.08 318.74,-128.65 320.78,-135.34"/>
</a>
</g>
</g>
<!-- Node14 -->
<g id="Node000014" class="node">
<title>Node14</title>
<g id="a_Node000014"><a xlink:href="../../d0/d3f/util_8hpp.html" target="_top" xlink:title=" ">
<polygon fill="white" stroke="#666666" points="495,-74 392,-74 392,-55 495,-55 495,-74"/>
<text text-anchor="middle" x="443.5" y="-62" font-family="Helvetica,sans-Serif" font-size="10.00">rmvl/core/util.hpp</text>
</a>
</g>
</g>
<!-- Node9&#45;&gt;Node14 -->
<g id="edge13_Node000009_Node000014" class="edge">
<title>Node9&#45;&gt;Node14</title>
<g id="a_edge13_Node000009_Node000014"><a xlink:title=" ">
<path fill="none" stroke="#63b8ff" d="M158.23,-164.91C128.85,-153.62 86.74,-132.54 106.5,-110 124.33,-89.66 289.53,-75.62 381.83,-69.3"/>
<polygon fill="#63b8ff" stroke="#63b8ff" points="382.15,-72.79 391.89,-68.62 381.68,-65.8 382.15,-72.79"/>
</a>
</g>
</g>
<!-- Node15 -->
<g id="Node000015" class="node">
<title>Node15</title>
<g id="a_Node000015"><a xlink:title=" ">
<polygon fill="#e0e0e0" stroke="#999999" points="334,-19 201,-19 201,0 334,0 334,-19"/>
<text text-anchor="middle" x="267.5" y="-7" font-family="Helvetica,sans-Serif" font-size="10.00">rmvl/rmvl_modules.hpp</text>
</a>
</g>
</g>
<!-- Node14&#45;&gt;Node15 -->
<g id="edge14_Node000014_Node000015" class="edge">
<title>Node14&#45;&gt;Node15</title>
<g id="a_edge14_Node000014_Node000015"><a xlink:title=" ">
<path fill="none" stroke="#63b8ff" d="M415.22,-54.98C385.55,-46.05 338.71,-31.94 305.75,-22.02"/>
<polygon fill="#63b8ff" stroke="#63b8ff" points="306.58,-18.61 296,-19.08 304.57,-25.32 306.58,-18.61"/>
</a>
</g>
</g>
<!-- Node16 -->
<g id="Node000016" class="node">
<title>Node16</title>
<g id="a_Node000016"><a xlink:title=" ">
<polygon fill="#e0e0e0" stroke="#999999" points="402.5,-19 352.5,-19 352.5,0 402.5,0 402.5,-19"/>
<text text-anchor="middle" x="377.5" y="-7" font-family="Helvetica,sans-Serif" font-size="10.00">cstdint</text>
</a>
</g>
</g>
<!-- Node14&#45;&gt;Node16 -->
<g id="edge15_Node000014_Node000016" class="edge">
<title>Node14&#45;&gt;Node16</title>
<g id="a_edge15_Node000014_Node000016"><a xlink:title=" ">
<path fill="none" stroke="#63b8ff" d="M432.9,-54.98C423.04,-47.07 408.15,-35.11 396.28,-25.58"/>
<polygon fill="#63b8ff" stroke="#63b8ff" points="398.29,-22.7 388.3,-19.17 393.9,-28.16 398.29,-22.7"/>
</a>
</g>
</g>
<!-- Node17 -->
<g id="Node000017" class="node">
<title>Node17</title>
<g id="a_Node000017"><a xlink:title=" ">
<polygon fill="#e0e0e0" stroke="#999999" points="466.5,-19 420.5,-19 420.5,0 466.5,0 466.5,-19"/>
<text text-anchor="middle" x="443.5" y="-7" font-family="Helvetica,sans-Serif" font-size="10.00">cstdio</text>
</a>
</g>
</g>
<!-- Node14&#45;&gt;Node17 -->
<g id="edge16_Node000014_Node000017" class="edge">
<title>Node14&#45;&gt;Node17</title>
<g id="a_edge16_Node000014_Node000017"><a xlink:title=" ">
<path fill="none" stroke="#63b8ff" d="M443.5,-54.75C443.5,-47.8 443.5,-37.85 443.5,-29.13"/>
<polygon fill="#63b8ff" stroke="#63b8ff" points="447,-29.09 443.5,-19.09 440,-29.09 447,-29.09"/>
</a>
</g>
</g>
<!-- Node18 -->
<g id="Node000018" class="node">
<title>Node18</title>
<g id="a_Node000018"><a xlink:title=" ">
<polygon fill="#e0e0e0" stroke="#999999" points="528.5,-19 484.5,-19 484.5,0 528.5,0 528.5,-19"/>
<text text-anchor="middle" x="506.5" y="-7" font-family="Helvetica,sans-Serif" font-size="10.00">string</text>
</a>
</g>
</g>
<!-- Node14&#45;&gt;Node18 -->
<g id="edge17_Node000014_Node000018" class="edge">
<title>Node14&#45;&gt;Node18</title>
<g id="a_edge17_Node000014_Node000018"><a xlink:title=" ">
<path fill="none" stroke="#63b8ff" d="M453.62,-54.98C462.94,-47.15 476.97,-35.34 488.24,-25.86"/>
<polygon fill="#63b8ff" stroke="#63b8ff" points="490.79,-28.29 496.19,-19.17 486.29,-22.93 490.79,-28.29"/>
</a>
</g>
</g>
<!-- Node19 -->
<g id="Node000019" class="node">
<title>Node19</title>
<g id="a_Node000019"><a xlink:href="../../db/d41/rmvldef_8hpp.html" target="_top" xlink:title=" ">
<polygon fill="white" stroke="#666666" points="622,-19 547,-19 547,0 622,0 622,-19"/>
<text text-anchor="middle" x="584.5" y="-7" font-family="Helvetica,sans-Serif" font-size="10.00">rmvldef.hpp</text>
</a>
</g>
</g>
<!-- Node14&#45;&gt;Node19 -->
<g id="edge18_Node000014_Node000019" class="edge">
<title>Node14&#45;&gt;Node19</title>
<g id="a_edge18_Node000014_Node000019"><a xlink:title=" ">
<path fill="none" stroke="#63b8ff" d="M466.15,-54.98C489.35,-46.27 525.62,-32.63 551.9,-22.75"/>
<polygon fill="#63b8ff" stroke="#63b8ff" points="553.3,-25.97 561.43,-19.17 550.84,-19.41 553.3,-25.97"/>
</a>
</g>
</g>
<!-- Node20&#45;&gt;Node14 -->
<g id="edge20_Node000020_Node000014" class="edge">
<title>Node20&#45;&gt;Node14</title>
<g id="a_edge20_Node000020_Node000014"><a xlink:title=" ">
<path fill="none" stroke="#63b8ff" d="M754.42,-111.37C751.4,-110.9 748.41,-110.44 745.5,-110 662.42,-97.34 566.39,-83.29 505.33,-74.43"/>
<polygon fill="#63b8ff" stroke="#63b8ff" points="505.49,-70.92 495.09,-72.94 504.48,-77.84 505.49,-70.92"/>
</a>
</g>
</g>
<!-- Node22 -->
<g id="Node000022" class="node">
<title>Node22</title>
<g id="a_Node000022"><a xlink:title=" ">
<polygon fill="#e0e0e0" stroke="#999999" points="548.5,-129 506.5,-129 506.5,-110 548.5,-110 548.5,-129"/>
<text text-anchor="middle" x="527.5" y="-117" font-family="Helvetica,sans-Serif" font-size="10.00">array</text>
</a>
</g>
</g>
<!-- Node21&#45;&gt;Node22 -->
<g id="edge22_Node000021_Node000022" class="edge">
<title>Node21&#45;&gt;Node22</title>
<g id="a_edge22_Node000021_Node000022"><a xlink:title=" ">
<path fill="none" stroke="#63b8ff" d="M529.17,-164.75C528.91,-157.8 528.53,-147.85 528.2,-139.13"/>
<polygon fill="#63b8ff" stroke="#63b8ff" points="531.7,-138.95 527.82,-129.09 524.7,-139.21 531.7,-138.95"/>
</a>
</g>
</g>
<!-- Node23 -->
<g id="Node000023" class="node">
<title>Node23</title>
<g id="a_Node000023"><a xlink:title=" ">
<polygon fill="#e0e0e0" stroke="#999999" points="614.5,-129 566.5,-129 566.5,-110 614.5,-110 614.5,-129"/>
<text text-anchor="middle" x="590.5" y="-117" font-family="Helvetica,sans-Serif" font-size="10.00">iosfwd</text>
</a>
</g>
</g>
<!-- Node21&#45;&gt;Node23 -->
<g id="edge23_Node000021_Node000023" class="edge">
<title>Node21&#45;&gt;Node23</title>
<g id="a_edge23_Node000021_Node000023"><a xlink:title=" ">
<path fill="none" stroke="#63b8ff" d="M539.3,-164.98C548.32,-157.15 561.91,-145.34 572.82,-135.86"/>
<polygon fill="#63b8ff" stroke="#63b8ff" points="575.27,-138.37 580.52,-129.17 570.68,-133.09 575.27,-138.37"/>
</a>
</g>
</g>
<!-- Node24 -->
<g id="Node000024" class="node">
<title>Node24</title>
<g id="a_Node000024"><a xlink:title=" ">
<polygon fill="#e0e0e0" stroke="#999999" points="488,-129 441,-129 441,-110 488,-110 488,-129"/>
<text text-anchor="middle" x="464.5" y="-117" font-family="Helvetica,sans-Serif" font-size="10.00">vector</text>
</a>
</g>
</g>
<!-- Node21&#45;&gt;Node24 -->
<g id="edge24_Node000021_Node000024" class="edge">
<title>Node21&#45;&gt;Node24</title>
<g id="a_edge24_Node000021_Node000024"><a xlink:title=" ">
<path fill="none" stroke="#63b8ff" d="M519.06,-164.98C509.35,-157.07 494.68,-145.11 483,-135.58"/>
<polygon fill="#63b8ff" stroke="#63b8ff" points="485.1,-132.78 475.13,-129.17 480.67,-138.2 485.1,-132.78"/>
</a>
</g>
</g>
<!-- Node25&#45;&gt;Node20 -->
<g id="edge28_Node000025_Node000020" class="edge">
<title>Node25&#45;&gt;Node20</title>
<g id="a_edge28_Node000025_Node000020"><a xlink:title=" ">
<path fill="none" stroke="#63b8ff" d="M874.2,-164.98C860.4,-156.77 839.26,-144.18 822.99,-134.49"/>
<polygon fill="#63b8ff" stroke="#63b8ff" points="824.44,-131.28 814.06,-129.17 820.86,-137.29 824.44,-131.28"/>
</a>
</g>
</g>
<!-- Node26 -->
<g id="Node000026" class="node">
<title>Node26</title>
<g id="a_Node000026"><a xlink:title=" ">
<polygon fill="#e0e0e0" stroke="#999999" points="920.5,-129 862.5,-129 862.5,-110 920.5,-110 920.5,-129"/>
<text text-anchor="middle" x="891.5" y="-117" font-family="Helvetica,sans-Serif" font-size="10.00">memory</text>
</a>
</g>
</g>
<!-- Node25&#45;&gt;Node26 -->
<g id="edge26_Node000025_Node000026" class="edge">
<title>Node25&#45;&gt;Node26</title>
<g id="a_edge26_Node000025_Node000026"><a xlink:title=" ">
<path fill="none" stroke="#63b8ff" d="M889,-164.75C889.39,-157.8 889.95,-147.85 890.45,-139.13"/>
<polygon fill="#63b8ff" stroke="#63b8ff" points="893.94,-139.27 891.01,-129.09 886.95,-138.88 893.94,-139.27"/>
</a>
</g>
</g>
<!-- Node27 -->
<g id="Node000027" class="node">
<title>Node27</title>
<g id="a_Node000027"><a xlink:title=" ">
<polygon fill="#e0e0e0" stroke="#999999" points="1072,-129 939,-129 939,-110 1072,-110 1072,-129"/>
<text text-anchor="middle" x="1005.5" y="-117" font-family="Helvetica,sans-Serif" font-size="10.00">opencv2/core/types.hpp</text>
</a>
</g>
</g>
<!-- Node25&#45;&gt;Node27 -->
<g id="edge27_Node000025_Node000027" class="edge">
<title>Node25&#45;&gt;Node27</title>
<g id="a_edge27_Node000025_Node000027"><a xlink:title=" ">
<path fill="none" stroke="#63b8ff" d="M907.3,-164.98C926.12,-156.46 955.32,-143.23 977,-133.41"/>
<polygon fill="#63b8ff" stroke="#63b8ff" points="978.7,-136.48 986.36,-129.17 975.81,-130.11 978.7,-136.48"/>
</a>
</g>
</g>
<!-- Node29 -->
<g id="Node000029" class="node">
<title>Node29</title>
<g id="a_Node000029"><a xlink:title=" ">
<polygon fill="#e0e0e0" stroke="#999999" points="337,-294 212,-294 212,-275 337,-275 337,-294"/>
<text text-anchor="middle" x="274.5" y="-282" font-family="Helvetica,sans-Serif" font-size="10.00">opencv2/core/mat.hpp</text>
</a>
</g>
</g>
<!-- Node28&#45;&gt;Node29 -->
<g id="edge30_Node000028_Node000029" class="edge">
<title>Node28&#45;&gt;Node29</title>
<g id="a_edge30_Node000028_Node000029"><a xlink:title=" ">
<path fill="none" stroke="#63b8ff" d="M287.86,-329.75C285.74,-322.72 282.69,-312.62 280.04,-303.84"/>
<polygon fill="#63b8ff" stroke="#63b8ff" points="283.33,-302.65 277.09,-294.09 276.63,-304.67 283.33,-302.65"/>
</a>
</g>
</g>
<!-- Node30&#45;&gt;Node4 -->
<g id="edge41_Node000030_Node000004" class="edge">
<title>Node30&#45;&gt;Node4</title>
<g id="a_edge41_Node000030_Node000004"><a xlink:title=" ">
<path fill="none" stroke="#63b8ff" d="M564.45,-329.98C543.09,-321.34 509.8,-307.87 485.44,-298.02"/>
<polygon fill="#63b8ff" stroke="#63b8ff" points="486.51,-294.68 475.93,-294.17 483.89,-301.17 486.51,-294.68"/>
</a>
</g>
</g>
<!-- Node30&#45;&gt;Node5 -->
<g id="edge32_Node000030_Node000005" class="edge">
<title>Node30&#45;&gt;Node5</title>
<g id="a_edge32_Node000030_Node000005"><a xlink:title=" ">
<path fill="none" stroke="#63b8ff" d="M511.3,-330.18C462.12,-323.17 403.45,-311.45 385.5,-294 373.67,-282.49 370.11,-263.61 369.25,-249.42"/>
<polygon fill="#63b8ff" stroke="#63b8ff" points="372.74,-249.2 369.03,-239.28 365.74,-249.36 372.74,-249.2"/>
</a>
</g>
</g>
<!-- Node31 -->
<g id="Node000031" class="node">
<title>Node31</title>
<g id="a_Node000031"><a xlink:href="../../de/de6/combo_2rune_8h.html" target="_top" xlink:title="神符类头文件">
<polygon fill="white" stroke="#666666" points="783,-294 674,-294 674,-275 783,-275 783,-294"/>
<text text-anchor="middle" x="728.5" y="-282" font-family="Helvetica,sans-Serif" font-size="10.00">rmvl/combo/rune.h</text>
</a>
</g>
</g>
<!-- Node30&#45;&gt;Node31 -->
<g id="edge33_Node000030_Node000031" class="edge">
<title>Node30&#45;&gt;Node31</title>
<g id="a_edge33_Node000030_Node000031"><a xlink:title=" ">
<path fill="none" stroke="#63b8ff" d="M608.48,-329.98C632,-321.27 668.79,-307.63 695.44,-297.75"/>
<polygon fill="#63b8ff" stroke="#63b8ff" points="696.95,-300.93 705.11,-294.17 694.51,-294.36 696.95,-300.93"/>
</a>
</g>
</g>
<!-- Node34 -->
<g id="Node000034" class="node">
<title>Node34</title>
<g id="a_Node000034"><a xlink:href="../../db/d0f/kalman_8hpp.html" target="_top" xlink:title="包含轻量级 cv::Matx 的卡尔曼滤波模块">
<polygon fill="white" stroke="#666666" points="656,-294 533,-294 533,-275 656,-275 656,-294"/>
<text text-anchor="middle" x="594.5" y="-282" font-family="Helvetica,sans-Serif" font-size="10.00">rmvl/core/kalman.hpp</text>
</a>
</g>
</g>
<!-- Node30&#45;&gt;Node34 -->
<g id="edge39_Node000030_Node000034" class="edge">
<title>Node30&#45;&gt;Node34</title>
<g id="a_edge39_Node000030_Node000034"><a xlink:title=" ">
<path fill="none" stroke="#63b8ff" d="M586.99,-329.75C588.17,-322.8 589.86,-312.85 591.34,-304.13"/>
<polygon fill="#63b8ff" stroke="#63b8ff" points="594.82,-304.53 593.04,-294.09 587.92,-303.36 594.82,-304.53"/>
</a>
</g>
</g>
<!-- Node31&#45;&gt;Node6 -->
<g id="edge34_Node000031_Node000006" class="edge">
<title>Node31&#45;&gt;Node6</title>
<g id="a_edge34_Node000031_Node000006"><a xlink:title=" ">
<path fill="none" stroke="#63b8ff" d="M704.24,-274.98C679.18,-266.19 639.87,-252.39 611.67,-242.49"/>
<polygon fill="#63b8ff" stroke="#63b8ff" points="612.8,-239.18 602.2,-239.17 610.48,-245.78 612.8,-239.18"/>
</a>
</g>
</g>
<!-- Node32 -->
<g id="Node000032" class="node">
<title>Node32</title>
<g id="a_Node000032"><a xlink:href="../../d6/d1d/feature_2rune__center_8h.html" target="_top" xlink:title=" ">
<polygon fill="white" stroke="#666666" points="965.5,-239 819.5,-239 819.5,-220 965.5,-220 965.5,-239"/>
<text text-anchor="middle" x="892.5" y="-227" font-family="Helvetica,sans-Serif" font-size="10.00">rmvl/feature/rune_center.h</text>
</a>
</g>
</g>
<!-- Node31&#45;&gt;Node32 -->
<g id="edge35_Node000031_Node000032" class="edge">
<title>Node31&#45;&gt;Node32</title>
<g id="a_edge35_Node000031_Node000032"><a xlink:title=" ">
<path fill="none" stroke="#63b8ff" d="M754.85,-274.98C782.26,-266.13 825.39,-252.19 856.06,-242.28"/>
<polygon fill="#63b8ff" stroke="#63b8ff" points="857.5,-245.49 865.94,-239.08 855.35,-238.83 857.5,-245.49"/>
</a>
</g>
</g>
<!-- Node33 -->
<g id="Node000033" class="node">
<title>Node33</title>
<g id="a_Node000033"><a xlink:href="../../d2/d8d/feature_2rune__target_8h.html" target="_top" xlink:title=" ">
<polygon fill="white" stroke="#666666" points="801.5,-239 655.5,-239 655.5,-220 801.5,-220 801.5,-239"/>
<text text-anchor="middle" x="728.5" y="-227" font-family="Helvetica,sans-Serif" font-size="10.00">rmvl/feature/rune_target.h</text>
</a>
</g>
</g>
<!-- Node31&#45;&gt;Node33 -->
<g id="edge37_Node000031_Node000033" class="edge">
<title>Node31&#45;&gt;Node33</title>
<g id="a_edge37_Node000031_Node000033"><a xlink:title=" ">
<path fill="none" stroke="#63b8ff" d="M728.5,-274.75C728.5,-267.8 728.5,-257.85 728.5,-249.13"/>
<polygon fill="#63b8ff" stroke="#63b8ff" points="732,-249.09 728.5,-239.09 725,-249.09 732,-249.09"/>
</a>
</g>
</g>
<!-- Node32&#45;&gt;Node25 -->
<g id="edge36_Node000032_Node000025" class="edge">
<title>Node32&#45;&gt;Node25</title>
<g id="a_edge36_Node000032_Node000025"><a xlink:title=" ">
<path fill="none" stroke="#63b8ff" d="M891.84,-219.75C891.32,-212.8 890.56,-202.85 889.91,-194.13"/>
<polygon fill="#63b8ff" stroke="#63b8ff" points="893.39,-193.8 889.15,-184.09 886.41,-194.32 893.39,-193.8"/>
</a>
</g>
</g>
<!-- Node33&#45;&gt;Node25 -->
<g id="edge38_Node000033_Node000025" class="edge">
<title>Node33&#45;&gt;Node25</title>
<g id="a_edge38_Node000033_Node000025"><a xlink:title=" ">
<path fill="none" stroke="#63b8ff" d="M754.21,-219.98C780.95,-211.13 823.03,-197.19 852.95,-187.28"/>
<polygon fill="#63b8ff" stroke="#63b8ff" points="854.2,-190.55 862.59,-184.08 852,-183.9 854.2,-190.55"/>
</a>
</g>
</g>
<!-- Node34&#45;&gt;Node13 -->
<g id="edge40_Node000034_Node000013" class="edge">
<title>Node34&#45;&gt;Node13</title>
<g id="a_edge40_Node000034_Node000013"><a xlink:title=" ">
<path fill="none" stroke="#63b8ff" d="M575.48,-274.93C557.67,-266.61 530.56,-253.18 508.5,-239 457.19,-206.01 402.05,-159.6 374.79,-135.84"/>
<polygon fill="#63b8ff" stroke="#63b8ff" points="377.09,-133.2 367.26,-129.23 372.47,-138.46 377.09,-133.2"/>
</a>
</g>
</g>
</g>
</svg>

<g id="navigator" transform="translate(0 0)" fill="#404254">
  <rect fill="#f2f5e9" fill-opacity="0.5" stroke="#606060" stroke-width=".5" x="0" y="0" width="60" height="60"/>
  <use id="zoomplus" xlink:href="#zoomPlus" x="17" y="9" onmousedown="handleZoom(evt,'in')"/>
  <use id="zoomminus" xlink:href="#zoomMin" x="42" y="9" onmousedown="handleZoom(evt,'out')"/>
  <use id="reset" xlink:href="#resetDef" x="30" y="36" onmousedown="handleReset()"/>
   <use id="arrowup" xlink:href="#arrowUp" x="0" y="0" onmousedown="handlePan(0,-1)"/>
  <use id="arrowright" xlink:href="#arrowRight" x="0" y="0" onmousedown="handlePan(1,0)"/>
  <use id="arrowdown" xlink:href="#arrowDown" x="0" y="0" onmousedown="handlePan(0,1)"/>
  <use id="arrowleft" xlink:href="#arrowLeft" x="0" y="0" onmousedown="handlePan(-1,0)"/>
</g>
<svg viewBox="0 0 15 15" width="100%" height="30px" preserveAspectRatio="xMaxYMin meet">
 <g id="arrow_out" transform="scale(0.3 0.3)">
  <a xlink:href="detector_2rune__detector_8h__incl_org.svg" target="_base">
   <rect id="button" ry="5" rx="5" y="6" x="6" height="38" width="38"
        fill="#f2f5e9" fill-opacity="0.5" stroke="#606060" stroke-width="1.0"/>
   <path id="arrow"
     d="M 11.500037,31.436501 C 11.940474,20.09759 22.043105,11.32322 32.158766,21.979434 L 37.068811,17.246167 C 37.068811,17.246167 37.088388,32 37.088388,32 L 22.160133,31.978069 C 22.160133,31.978069 26.997745,27.140456 26.997745,27.140456 C 18.528582,18.264221 13.291696,25.230495 11.500037,31.436501 z"
     style="fill:#404040;"/>
  </a>
 </g>
</svg>

<style type='text/css'>
<![CDATA[
[data-mouse-over-selected='false'] { opacity: 0.7; }
[data-mouse-over-selected='true']  { opacity: 1.0; }
]]>
</style>
<script type="application/ecmascript"><![CDATA[
document.addEventListener('DOMContentLoaded', (event) => {
  highlightEdges();
  highlightAdjacentNodes();
});
]]></script>
</svg>
