<?xml version="1.0" encoding="UTF-8" standalone="no"?>
<!DOCTYPE svg PUBLIC "-//W3C//DTD SVG 1.1//EN"
 "http://www.w3.org/Graphics/SVG/1.1/DTD/svg11.dtd">
<!-- Generated by graphviz version 2.43.0 (0)
 -->
<!-- Title: rm::ua::Method Pages: 1 -->
<!--zoomable 624 -->

<svg id="main" version="1.1" xmlns="http://www.w3.org/2000/svg" xmlns:xlink="http://www.w3.org/1999/xlink" xml:space="preserve" onload="init(evt)">

<style type="text/css"><![CDATA[
.node, .edge {opacity: 0.7;}
.node.selected, .edge.selected {opacity: 1;}
.edge:hover path { stroke: red; }
.edge:hover polygon { stroke: red; fill: red; }
]]></style>

<defs>
  <circle id="rim" cx="0" cy="0" r="7"/>
  <circle id="rim2" cx="0" cy="0" r="3.5"/>
  <g id="zoomPlus">
    <use xlink:href="#rim" fill="#404040"><set attributeName="fill" to="#808080" begin="zoomplus.mouseover" end="zoomplus.mouseout"/></use>
    <path d="M-4,0h8M0,-4v8" fill="none" stroke="white" stroke-width="1.5" pointer-events="none"/>
  </g>
  <g id="zoomMin">
    <use xlink:href="#rim" fill="#404040"><set attributeName="fill" to="#808080" begin="zoomminus.mouseover" end="zoomminus.mouseout"/></use>
    <path d="M-4,0h8" fill="none" stroke="white" stroke-width="1.5" pointer-events="none"/>
  </g>
  <g id="arrowUp" transform="translate(30 24)">
    <use xlink:href="#rim"/>
    <path pointer-events="none" fill="none" stroke="white" stroke-width="1.5" d="M0,-3.0v7 M-2.5,-0.5L0,-3.0L2.5,-0.5"/>
  </g>
  <g id="arrowRight" transform="rotate(90) translate(36 -43)">
    <use xlink:href="#rim"/>
    <path pointer-events="none" fill="none" stroke="white" stroke-width="1.5" d="M0,-3.0v7 M-2.5,-0.5L0,-3.0L2.5,-0.5"/>
  </g>
  <g id="arrowDown" transform="rotate(180) translate(-30 -48)">
    <use xlink:href="#rim"/>
    <path pointer-events="none" fill="none" stroke="white" stroke-width="1.5" d="M0,-3.0v7 M-2.5,-0.5L0,-3.0L2.5,-0.5"/>
  </g>
  <g id="arrowLeft" transform="rotate(270) translate(-36 17)">
    <use xlink:href="#rim"/>
    <path pointer-events="none" fill="none" stroke="white" stroke-width="1.5" d="M0,-3.0v7 M-2.5,-0.5L0,-3.0L2.5,-0.5"/>
  </g>
  <g id="resetDef">
    <use xlink:href="#rim2" fill="#404040"><set attributeName="fill" to="#808080" begin="reset.mouseover" end="reset.mouseout"/></use>
  </g>
</defs>
<script type="application/ecmascript">
var viewWidth = 480;
var viewHeight = 624;
var sectionId = 'dynsection-0';
</script>
<script type="application/ecmascript" xlink:href="../../svg.min.js"/>
<svg id="graph" class="graph">
<g id="viewport">
<title>rm::ua::Method</title>
<!-- Node1 -->
<g id="Node000001" class="node">
<title>Node1</title>
<g id="a_Node000001"><a xlink:title="OPC UA 方法">
<polygon fill="#999999" stroke="transparent" points="351,-64 266,-64 266,0 351,0 351,-64"/>
<text text-anchor="start" x="271.5" y="-52" font-family="Helvetica,sans-Serif" font-size="10.00">rm::ua::Method</text>
<text text-anchor="start" x="307" y="-37" font-family="Helvetica,sans-Serif" font-size="10.00"> </text>
<text text-anchor="start" x="275" y="-22" font-family="Helvetica,sans-Serif" font-size="10.00">+</text>
<text text-anchor="start" x="292.5" y="-22" font-family="Helvetica,sans-Serif" font-size="10.00">Method()</text>
<text text-anchor="start" x="275" y="-7" font-family="Helvetica,sans-Serif" font-size="10.00">+</text>
<text text-anchor="start" x="292.5" y="-7" font-family="Helvetica,sans-Serif" font-size="10.00">Method()</text>
<polygon fill="#666666" stroke="#666666" points="266.5,-47 266.5,-47 351.5,-47 351.5,-47 266.5,-47"/>
<polygon fill="#666666" stroke="#666666" points="266.5,-32 266.5,-32 351.5,-32 351.5,-32 266.5,-32"/>
<polygon fill="none" stroke="#666666" points="266,0 266,-64 351,-64 351,0 266,0"/>
</a>
</g>
</g>
<!-- Node2 -->
<g id="Node000002" class="node">
<title>Node2</title>
<g id="a_Node000002"><a xlink:title=" ">
<polygon fill="white" stroke="transparent" points="148.5,-203 98.5,-203 98.5,-154 148.5,-154 148.5,-203"/>
<text text-anchor="start" x="103.5" y="-190.5" font-family="Helvetica,sans-Serif" font-size="10.00">uint16_t</text>
<text text-anchor="start" x="121.5" y="-175.5" font-family="Helvetica,sans-Serif" font-size="10.00"> </text>
<text text-anchor="start" x="121.5" y="-160.5" font-family="Helvetica,sans-Serif" font-size="10.00"> </text>
<polygon fill="#666666" stroke="#666666" points="98.5,-185.5 98.5,-185.5 148.5,-185.5 148.5,-185.5 98.5,-185.5"/>
<polygon fill="#666666" stroke="#666666" points="98.5,-170.5 98.5,-170.5 148.5,-170.5 148.5,-170.5 98.5,-170.5"/>
<polygon fill="none" stroke="#666666" points="98.5,-154 98.5,-203 148.5,-203 148.5,-154 98.5,-154"/>
</a>
</g>
</g>
<!-- Node2&#45;&gt;Node1 -->
<g id="edge1_Node000001_Node000002" class="edge">
<title>Node2&#45;&gt;Node1</title>
<g id="a_edge1_Node000001_Node000002"><a xlink:title=" ">
<path fill="none" stroke="#63b8ff" d="M139.86,-153.57C145.18,-146.38 151.31,-138.63 157.5,-132 180.71,-107.11 187.38,-101.17 215.5,-82 227.75,-73.65 241.6,-65.66 254.79,-58.65"/>
<polygon fill="none" stroke="#63b8ff" points="255.01,-58.54 258.49,-52.22 265.66,-53.01 262.18,-59.32 255.01,-58.54"/>
</a>
</g>
<text text-anchor="start" x="218.5" y="-95" font-family="Helvetica,sans-Serif" font-size="10.00" fill="grey">+ns</text>
</g>
<!-- Node3 -->
<g id="Node000003" class="node">
<title>Node3</title>
<g id="a_Node000003"><a xlink:title=" ">
<polygon fill="white" stroke="transparent" points="311,-496.5 252,-496.5 252,-447.5 311,-447.5 311,-496.5"/>
<text text-anchor="start" x="257.5" y="-484" font-family="Helvetica,sans-Serif" font-size="10.00">std::string</text>
<text text-anchor="start" x="280" y="-469" font-family="Helvetica,sans-Serif" font-size="10.00"> </text>
<text text-anchor="start" x="280" y="-454" font-family="Helvetica,sans-Serif" font-size="10.00"> </text>
<polygon fill="#666666" stroke="#666666" points="252.5,-479 252.5,-479 311.5,-479 311.5,-479 252.5,-479"/>
<polygon fill="#666666" stroke="#666666" points="252.5,-464 252.5,-464 311.5,-464 311.5,-464 252.5,-464"/>
<polygon fill="none" stroke="#666666" points="252,-447.5 252,-496.5 311,-496.5 311,-447.5 252,-447.5"/>
</a>
</g>
</g>
<!-- Node3&#45;&gt;Node1 -->
<g id="edge2_Node000001_Node000003" class="edge">
<title>Node3&#45;&gt;Node1</title>
<g id="a_edge2_Node000001_Node000003"><a xlink:title=" ">
<path fill="none" stroke="#63b8ff" d="M291.6,-447.47C296.18,-435.57 301.1,-420.77 303.5,-407 324.03,-288.96 317.57,-146.78 312.35,-76.59"/>
<polygon fill="none" stroke="#63b8ff" points="312.33,-76.3 307.88,-70.63 311.4,-64.34 315.85,-70.01 312.33,-76.3"/>
</a>
</g>
<text text-anchor="start" x="320" y="-278.5" font-family="Helvetica,sans-Serif" font-size="10.00" fill="grey">+browse_name</text>
<text text-anchor="start" x="320" y="-263.5" font-family="Helvetica,sans-Serif" font-size="10.00" fill="grey">+description</text>
<text text-anchor="start" x="320" y="-248.5" font-family="Helvetica,sans-Serif" font-size="10.00" fill="grey">+display_name</text>
</g>
<!-- Node6 -->
<g id="Node000006" class="node">
<title>Node6</title>
<g id="a_Node000006"><a xlink:href="../../d9/d39/structrm_1_1ua_1_1Argument.html" target="_top" xlink:title="OPC UA 方法参数信息">
<polygon fill="white" stroke="transparent" points="227.5,-357 131.5,-357 131.5,-308 227.5,-308 227.5,-357"/>
<text text-anchor="start" x="136.5" y="-344.5" font-family="Helvetica,sans-Serif" font-size="10.00">rm::ua::Argument</text>
<text text-anchor="start" x="177.5" y="-329.5" font-family="Helvetica,sans-Serif" font-size="10.00"> </text>
<text text-anchor="start" x="144.5" y="-314.5" font-family="Helvetica,sans-Serif" font-size="10.00">+</text>
<text text-anchor="start" x="166.5" y="-314.5" font-family="Helvetica,sans-Serif" font-size="10.00">create()</text>
<polygon fill="#666666" stroke="#666666" points="131.5,-339.5 131.5,-339.5 227.5,-339.5 227.5,-339.5 131.5,-339.5"/>
<polygon fill="#666666" stroke="#666666" points="131.5,-324.5 131.5,-324.5 227.5,-324.5 227.5,-324.5 131.5,-324.5"/>
<polygon fill="none" stroke="#666666" points="131.5,-308 131.5,-357 227.5,-357 227.5,-308 131.5,-308"/>
</a>
</g>
</g>
<!-- Node3&#45;&gt;Node6 -->
<g id="edge6_Node000006_Node000003" class="edge">
<title>Node3&#45;&gt;Node6</title>
<g id="a_edge6_Node000006_Node000003"><a xlink:title=" ">
<path fill="none" stroke="#63b8ff" d="M264.03,-447.34C255.16,-435.28 244.22,-420.38 234.5,-407 224.21,-392.83 221.96,-389.05 211.5,-375 209.53,-372.35 207.48,-369.63 205.4,-366.89"/>
<polygon fill="none" stroke="#63b8ff" points="205.2,-366.63 198.38,-364.29 197.91,-357.1 204.74,-359.43 205.2,-366.63"/>
</a>
</g>
<text text-anchor="start" x="238" y="-396" font-family="Helvetica,sans-Serif" font-size="10.00" fill="grey">+description</text>
<text text-anchor="start" x="238" y="-381" font-family="Helvetica,sans-Serif" font-size="10.00" fill="grey">+name</text>
</g>
<!-- Node4 -->
<g id="Node000004" class="node">
<title>Node4</title>
<g id="a_Node000004"><a xlink:title=" ">
<polygon fill="white" stroke="transparent" points="330.5,-616 232.5,-616 232.5,-556 330.5,-556 330.5,-616"/>
<text text-anchor="start" x="237.5" y="-604" font-family="Helvetica,sans-Serif" font-size="10.00">std::basic_string&lt;</text>
<text text-anchor="start" x="263" y="-593" font-family="Helvetica,sans-Serif" font-size="10.00"> Char &gt;</text>
<text text-anchor="start" x="279.5" y="-578" font-family="Helvetica,sans-Serif" font-size="10.00"> </text>
<text text-anchor="start" x="279.5" y="-563" font-family="Helvetica,sans-Serif" font-size="10.00"> </text>
<polygon fill="#666666" stroke="#666666" points="232.5,-588 232.5,-588 330.5,-588 330.5,-588 232.5,-588"/>
<polygon fill="#666666" stroke="#666666" points="232.5,-573 232.5,-573 330.5,-573 330.5,-573 232.5,-573"/>
<polygon fill="none" stroke="#666666" points="232.5,-556 232.5,-616 330.5,-616 330.5,-556 232.5,-556"/>
</a>
</g>
</g>
<!-- Node4&#45;&gt;Node3 -->
<g id="edge3_Node000003_Node000004" class="edge">
<title>Node4&#45;&gt;Node3</title>
<g id="a_edge3_Node000003_Node000004"><a xlink:title=" ">
<path fill="none" stroke="#63b8ff" d="M281.5,-545.52C281.5,-529.22 281.5,-510.87 281.5,-496.71"/>
<polygon fill="none" stroke="#63b8ff" points="278,-545.87 281.5,-555.87 285,-545.87 278,-545.87"/>
</a>
</g>
</g>
<!-- Node5 -->
<g id="Node000005" class="node">
<title>Node5</title>
<g id="a_Node000005"><a xlink:title=" ">
<polygon fill="white" stroke="transparent" points="272,-208.5 167,-208.5 167,-148.5 272,-148.5 272,-208.5"/>
<text text-anchor="start" x="172.5" y="-196.5" font-family="Helvetica,sans-Serif" font-size="10.00">std::vector&lt; rm::ua</text>
<text text-anchor="start" x="187" y="-185.5" font-family="Helvetica,sans-Serif" font-size="10.00">::Argument &gt;</text>
<text text-anchor="start" x="218" y="-170.5" font-family="Helvetica,sans-Serif" font-size="10.00"> </text>
<text text-anchor="start" x="218" y="-155.5" font-family="Helvetica,sans-Serif" font-size="10.00"> </text>
<polygon fill="#666666" stroke="#666666" points="167.5,-180.5 167.5,-180.5 272.5,-180.5 272.5,-180.5 167.5,-180.5"/>
<polygon fill="#666666" stroke="#666666" points="167.5,-165.5 167.5,-165.5 272.5,-165.5 272.5,-165.5 167.5,-165.5"/>
<polygon fill="none" stroke="#666666" points="167,-148.5 167,-208.5 272,-208.5 272,-148.5 167,-148.5"/>
</a>
</g>
</g>
<!-- Node5&#45;&gt;Node1 -->
<g id="edge4_Node000001_Node000005" class="edge">
<title>Node5&#45;&gt;Node1</title>
<g id="a_edge4_Node000001_Node000005"><a xlink:title=" ">
<path fill="none" stroke="#63b8ff" d="M229.35,-148.15C236.65,-128.53 247.71,-102.63 261.5,-82 263.44,-79.11 265.55,-76.23 267.78,-73.4"/>
<polygon fill="none" stroke="#63b8ff" points="267.94,-73.2 268.75,-66.04 275.68,-64.03 274.87,-71.2 267.94,-73.2"/>
</a>
</g>
<text text-anchor="start" x="264.5" y="-103" font-family="Helvetica,sans-Serif" font-size="10.00" fill="grey">+iargs</text>
<text text-anchor="start" x="264.5" y="-88" font-family="Helvetica,sans-Serif" font-size="10.00" fill="grey">+oargs</text>
</g>
<!-- Node6&#45;&gt;Node5 -->
<g id="edge5_Node000005_Node000006" class="edge">
<title>Node6&#45;&gt;Node5</title>
<g id="a_edge5_Node000005_Node000006"><a xlink:title=" ">
<path fill="none" stroke="#63b8ff" d="M185.75,-307.75C191.89,-284.4 201.39,-248.3 208.75,-220.35"/>
<polygon fill="none" stroke="#63b8ff" points="208.8,-220.14 206.46,-213.32 211.86,-208.54 214.2,-215.36 208.8,-220.14"/>
</a>
</g>
<text text-anchor="start" x="206" y="-263.5" font-family="Helvetica,sans-Serif" font-size="10.00" fill="grey">+elements</text>
</g>
<!-- Node7 -->
<g id="Node000007" class="node">
<title>Node7</title>
<g id="a_Node000007"><a xlink:href="../../d9/d0f/classrm_1_1ua_1_1DataType.html" target="_top" xlink:title="OPC UA 数据类型">
<polygon fill="white" stroke="transparent" points="148,-519 35,-519 35,-425 148,-425 148,-519"/>
<text text-anchor="start" x="50" y="-507" font-family="Helvetica,sans-Serif" font-size="10.00">rm::ua::DataType</text>
<text text-anchor="start" x="90" y="-492" font-family="Helvetica,sans-Serif" font-size="10.00"> </text>
<text text-anchor="start" x="39.5" y="-477" font-family="Helvetica,sans-Serif" font-size="10.00">+</text>
<text text-anchor="start" x="52.5" y="-477" font-family="Helvetica,sans-Serif" font-size="10.00">DataType()</text>
<text text-anchor="start" x="39.5" y="-462" font-family="Helvetica,sans-Serif" font-size="10.00">+</text>
<text text-anchor="start" x="52.5" y="-462" font-family="Helvetica,sans-Serif" font-size="10.00">DataType()</text>
<text text-anchor="start" x="39.5" y="-447" font-family="Helvetica,sans-Serif" font-size="10.00">+</text>
<text text-anchor="start" x="52.5" y="-447" font-family="Helvetica,sans-Serif" font-size="10.00">DataType()</text>
<text text-anchor="start" x="39.5" y="-432" font-family="Helvetica,sans-Serif" font-size="10.00">+</text>
<text text-anchor="start" x="52.5" y="-432" font-family="Helvetica,sans-Serif" font-size="10.00">operator uint32_t()</text>
<polygon fill="#666666" stroke="#666666" points="35.5,-502 35.5,-502 148.5,-502 148.5,-502 35.5,-502"/>
<polygon fill="#666666" stroke="#666666" points="35.5,-487 35.5,-487 148.5,-487 148.5,-487 35.5,-487"/>
<polygon fill="none" stroke="#666666" points="35,-425 35,-519 148,-519 148,-425 35,-425"/>
</a>
</g>
</g>
<!-- Node7&#45;&gt;Node6 -->
<g id="edge7_Node000006_Node000007" class="edge">
<title>Node7&#45;&gt;Node6</title>
<g id="a_edge7_Node000006_Node000007"><a xlink:title=" ">
<path fill="none" stroke="#63b8ff" d="M105.17,-424.71C111.36,-408.12 119.73,-389.86 130.5,-375 132.82,-371.8 135.44,-368.68 138.23,-365.69"/>
<polygon fill="none" stroke="#63b8ff" points="138.4,-365.53 139.9,-358.48 146.99,-357.15 145.49,-364.21 138.4,-365.53"/>
</a>
</g>
<text text-anchor="start" x="134" y="-388" font-family="Helvetica,sans-Serif" font-size="10.00" fill="grey">+type</text>
</g>
<!-- Node8 -->
<g id="Node000008" class="node">
<title>Node8</title>
<g id="a_Node000008"><a xlink:title=" ">
<polygon fill="white" stroke="transparent" points="216.5,-496.5 166.5,-496.5 166.5,-447.5 216.5,-447.5 216.5,-496.5"/>
<text text-anchor="start" x="171.5" y="-484" font-family="Helvetica,sans-Serif" font-size="10.00">uint32_t</text>
<text text-anchor="start" x="189.5" y="-469" font-family="Helvetica,sans-Serif" font-size="10.00"> </text>
<text text-anchor="start" x="189.5" y="-454" font-family="Helvetica,sans-Serif" font-size="10.00"> </text>
<polygon fill="#666666" stroke="#666666" points="166.5,-479 166.5,-479 216.5,-479 216.5,-479 166.5,-479"/>
<polygon fill="#666666" stroke="#666666" points="166.5,-464 166.5,-464 216.5,-464 216.5,-464 166.5,-464"/>
<polygon fill="none" stroke="#666666" points="166.5,-447.5 166.5,-496.5 216.5,-496.5 216.5,-447.5 166.5,-447.5"/>
</a>
</g>
</g>
<!-- Node8&#45;&gt;Node6 -->
<g id="edge8_Node000006_Node000008" class="edge">
<title>Node8&#45;&gt;Node6</title>
<g id="a_edge8_Node000006_Node000008"><a xlink:title=" ">
<path fill="none" stroke="#63b8ff" d="M182.7,-447.36C178.73,-435.44 174.48,-420.65 172.5,-407 170.45,-392.93 171.31,-389.17 172.5,-375 172.66,-373.09 172.86,-371.13 173.09,-369.16"/>
<polygon fill="none" stroke="#63b8ff" points="173.12,-368.99 170.01,-362.49 174.82,-357.12 177.93,-363.62 173.12,-368.99"/>
</a>
</g>
<text text-anchor="start" x="176" y="-388" font-family="Helvetica,sans-Serif" font-size="10.00" fill="grey">+dims</text>
</g>
<!-- Node9 -->
<g id="Node000009" class="node">
<title>Node9</title>
<g id="a_Node000009"><a xlink:title=" ">
<polygon fill="white" stroke="transparent" points="98,-357 7,-357 7,-308 98,-308 98,-357"/>
<text text-anchor="start" x="12.5" y="-344.5" font-family="Helvetica,sans-Serif" font-size="10.00">std::vector&lt; T &gt;</text>
<text text-anchor="start" x="51" y="-329.5" font-family="Helvetica,sans-Serif" font-size="10.00"> </text>
<text text-anchor="start" x="51" y="-314.5" font-family="Helvetica,sans-Serif" font-size="10.00"> </text>
<polygon fill="#666666" stroke="#666666" points="7.5,-339.5 7.5,-339.5 98.5,-339.5 98.5,-339.5 7.5,-339.5"/>
<polygon fill="#666666" stroke="#666666" points="7.5,-324.5 7.5,-324.5 98.5,-324.5 98.5,-324.5 7.5,-324.5"/>
<polygon fill="none" stroke="#666666" points="7,-308 7,-357 98,-357 98,-308 7,-308"/>
</a>
</g>
</g>
<!-- Node9&#45;&gt;Node5 -->
<g id="edge9_Node000005_Node000009" class="edge">
<title>Node9&#45;&gt;Node5</title>
<g id="a_edge9_Node000005_Node000009"><a xlink:title=" ">
<path fill="none" stroke="orange" d="M51.75,-297.72C53.17,-279.17 58.18,-257.12 72.5,-243 99.99,-215.88 122.25,-240.78 157.5,-225 167.01,-220.75 176.47,-214.86 185.05,-208.73"/>
<polygon fill="orange" stroke="orange" points="48.24,-297.73 51.28,-307.87 55.24,-298.05 48.24,-297.73"/>
</a>
</g>
<text text-anchor="start" x="76" y="-263.5" font-family="Helvetica,sans-Serif" font-size="10.00" fill="grey">&lt; rm::ua::Argument &gt;</text>
</g>
<!-- Node10 -->
<g id="Node000010" class="node">
<title>Node10</title>
<g id="a_Node000010"><a xlink:title=" ">
<polygon fill="white" stroke="transparent" points="17,-496.5 0,-496.5 0,-447.5 17,-447.5 17,-496.5"/>
<text text-anchor="start" x="5.5" y="-484" font-family="Helvetica,sans-Serif" font-size="10.00">T</text>
<text text-anchor="start" x="7" y="-469" font-family="Helvetica,sans-Serif" font-size="10.00"> </text>
<text text-anchor="start" x="7" y="-454" font-family="Helvetica,sans-Serif" font-size="10.00"> </text>
<polygon fill="#666666" stroke="#666666" points="0.5,-479 0.5,-479 17.5,-479 17.5,-479 0.5,-479"/>
<polygon fill="#666666" stroke="#666666" points="0.5,-464 0.5,-464 17.5,-464 17.5,-464 0.5,-464"/>
<polygon fill="none" stroke="#666666" points="0,-447.5 0,-496.5 17,-496.5 17,-447.5 0,-447.5"/>
</a>
</g>
</g>
<!-- Node10&#45;&gt;Node9 -->
<g id="edge10_Node000009_Node000010" class="edge">
<title>Node10&#45;&gt;Node9</title>
<g id="a_edge10_Node000009_Node000010"><a xlink:title=" ">
<path fill="none" stroke="#63b8ff" d="M3.84,-447.46C0.98,-427.36 -0.46,-398.11 9.5,-375 10.72,-372.17 12.24,-369.43 13.97,-366.81"/>
<polygon fill="none" stroke="#63b8ff" points="14.06,-366.7 14.65,-359.51 21.51,-357.29 20.92,-364.48 14.06,-366.7"/>
</a>
</g>
<text text-anchor="start" x="13" y="-388" font-family="Helvetica,sans-Serif" font-size="10.00" fill="grey">+elements</text>
</g>
<!-- Node11 -->
<g id="Node000011" class="node">
<title>Node11</title>
<g id="a_Node000011"><a xlink:title=" ">
<polygon fill="white" stroke="transparent" points="471.5,-225 345.5,-225 345.5,-132 471.5,-132 471.5,-225"/>
<text text-anchor="start" x="350.5" y="-212.5" font-family="Helvetica,sans-Serif" font-size="10.00">function&lt; std::pair</text>
<text text-anchor="start" x="350.5" y="-201.5" font-family="Helvetica,sans-Serif" font-size="10.00">&lt; bool, std::vector</text>
<text text-anchor="start" x="350.5" y="-190.5" font-family="Helvetica,sans-Serif" font-size="10.00">&lt; Variable &gt; &gt;(const</text>
<text text-anchor="start" x="350.5" y="-179.5" font-family="Helvetica,sans-Serif" font-size="10.00"> NodeId &amp;, const std::</text>
<text text-anchor="start" x="350.5" y="-168.5" font-family="Helvetica,sans-Serif" font-size="10.00">vector&lt; Variable &gt; &amp;)&gt;</text>
<text text-anchor="start" x="406.5" y="-153.5" font-family="Helvetica,sans-Serif" font-size="10.00"> </text>
<text text-anchor="start" x="406.5" y="-138.5" font-family="Helvetica,sans-Serif" font-size="10.00"> </text>
<polygon fill="#666666" stroke="#666666" points="345.5,-163.5 345.5,-163.5 471.5,-163.5 471.5,-163.5 345.5,-163.5"/>
<polygon fill="#666666" stroke="#666666" points="345.5,-148.5 345.5,-148.5 471.5,-148.5 471.5,-148.5 345.5,-148.5"/>
<polygon fill="none" stroke="#666666" points="345.5,-132 345.5,-225 471.5,-225 471.5,-132 345.5,-132"/>
</a>
</g>
</g>
<!-- Node11&#45;&gt;Node1 -->
<g id="edge11_Node000001_Node000011" class="edge">
<title>Node11&#45;&gt;Node1</title>
<g id="a_edge11_Node000001_Node000011"><a xlink:title=" ">
<path fill="none" stroke="#63b8ff" d="M376.86,-131.78C364.08,-113.31 349.43,-92.15 336.99,-74.17"/>
<polygon fill="none" stroke="#63b8ff" points="336.97,-74.13 330.26,-71.48 330.14,-64.27 336.84,-66.92 336.97,-74.13"/>
</a>
</g>
<text text-anchor="start" x="366.5" y="-95" font-family="Helvetica,sans-Serif" font-size="10.00" fill="grey">+func</text>
</g>
</g>
</svg>

<g id="navigator" transform="translate(0 0)" fill="#404254">
  <rect fill="#f2f5e9" fill-opacity="0.5" stroke="#606060" stroke-width=".5" x="0" y="0" width="60" height="60"/>
  <use id="zoomplus" xlink:href="#zoomPlus" x="17" y="9" onmousedown="handleZoom(evt,'in')"/>
  <use id="zoomminus" xlink:href="#zoomMin" x="42" y="9" onmousedown="handleZoom(evt,'out')"/>
  <use id="reset" xlink:href="#resetDef" x="30" y="36" onmousedown="handleReset()"/>
   <use id="arrowup" xlink:href="#arrowUp" x="0" y="0" onmousedown="handlePan(0,-1)"/>
  <use id="arrowright" xlink:href="#arrowRight" x="0" y="0" onmousedown="handlePan(1,0)"/>
  <use id="arrowdown" xlink:href="#arrowDown" x="0" y="0" onmousedown="handlePan(0,1)"/>
  <use id="arrowleft" xlink:href="#arrowLeft" x="0" y="0" onmousedown="handlePan(-1,0)"/>
</g>
<svg viewBox="0 0 15 15" width="100%" height="30px" preserveAspectRatio="xMaxYMin meet">
 <g id="arrow_out" transform="scale(0.3 0.3)">
  <a xlink:href="classrm_1_1ua_1_1Method__coll__graph_org.svg" target="_base">
   <rect id="button" ry="5" rx="5" y="6" x="6" height="38" width="38"
        fill="#f2f5e9" fill-opacity="0.5" stroke="#606060" stroke-width="1.0"/>
   <path id="arrow"
     d="M 11.500037,31.436501 C 11.940474,20.09759 22.043105,11.32322 32.158766,21.979434 L 37.068811,17.246167 C 37.068811,17.246167 37.088388,32 37.088388,32 L 22.160133,31.978069 C 22.160133,31.978069 26.997745,27.140456 26.997745,27.140456 C 18.528582,18.264221 13.291696,25.230495 11.500037,31.436501 z"
     style="fill:#404040;"/>
  </a>
 </g>
</svg>

<style type='text/css'>
<![CDATA[
[data-mouse-over-selected='false'] { opacity: 0.7; }
[data-mouse-over-selected='true']  { opacity: 1.0; }
]]>
</style>
<script type="application/ecmascript"><![CDATA[
document.addEventListener('DOMContentLoaded', (event) => {
  highlightEdges();
  highlightAdjacentNodes();
});
]]></script>
</svg>
