<?xml version="1.0" encoding="UTF-8" standalone="no"?>
<!DOCTYPE svg PUBLIC "-//W3C//DTD SVG 1.1//EN"
 "http://www.w3.org/Graphics/SVG/1.1/DTD/svg11.dtd">
<!-- Generated by graphviz version 2.43.0 (0)
 -->
<!-- Title: rm::async::DgramSocket::SocketWriteAwaiter::SocketWriteAwaiter Pages: 1 -->
<svg width="492pt" height="49pt"
 viewBox="0.00 0.00 492.00 49.00" xmlns="http://www.w3.org/2000/svg" xmlns:xlink="http://www.w3.org/1999/xlink">
<g id="graph0" class="graph" transform="scale(1 1) rotate(0) translate(4 45)">
<title>rm::async::DgramSocket::SocketWriteAwaiter::SocketWriteAwaiter</title>
<!-- Node1 -->
<g id="Node000001" class="node">
<title>Node1</title>
<g id="a_Node000001"><a xlink:title="创建流式 Socket 异步写等待器">
<polygon fill="#999999" stroke="#666666" points="126,-41 0,-41 0,0 126,0 126,-41"/>
<text text-anchor="start" x="8" y="-29" font-family="Helvetica,sans-Serif" font-size="10.00">rm::async::DgramSocket</text>
<text text-anchor="start" x="8" y="-18" font-family="Helvetica,sans-Serif" font-size="10.00">::SocketWriteAwaiter::</text>
<text text-anchor="middle" x="63" y="-7" font-family="Helvetica,sans-Serif" font-size="10.00">SocketWriteAwaiter</text>
</a>
</g>
</g>
<!-- Node2 -->
<g id="Node000002" class="node">
<title>Node2</title>
<g id="a_Node000002"><a xlink:href="../../db/d38/classrm_1_1async_1_1AsyncWriteAwaiter.html#ab6f476b6a5d759007c67d79294385341" target="_top" xlink:title="创建异步写等待器">
<polygon fill="white" stroke="#666666" points="311,-35.5 162,-35.5 162,-5.5 311,-5.5 311,-35.5"/>
<text text-anchor="start" x="170" y="-23.5" font-family="Helvetica,sans-Serif" font-size="10.00">rm::async::AsyncWriteAwaiter</text>
<text text-anchor="middle" x="236.5" y="-12.5" font-family="Helvetica,sans-Serif" font-size="10.00">::AsyncWriteAwaiter</text>
</a>
</g>
</g>
<!-- Node1&#45;&gt;Node2 -->
<g id="edge1_Node000001_Node000002" class="edge">
<title>Node1&#45;&gt;Node2</title>
<g id="a_edge1_Node000001_Node000002"><a xlink:title=" ">
<path fill="none" stroke="#63b8ff" d="M126.4,-20.5C134.66,-20.5 143.23,-20.5 151.78,-20.5"/>
<polygon fill="#63b8ff" stroke="#63b8ff" points="151.78,-24 161.78,-20.5 151.78,-17 151.78,-24"/>
</a>
</g>
</g>
<!-- Node3 -->
<g id="Node000003" class="node">
<title>Node3</title>
<g id="a_Node000003"><a xlink:href="../../d6/d17/classrm_1_1async_1_1AsyncIOAwaiter.html#aeec678a03f6e4fdeb8b11b2b3314bd77" target="_top" xlink:title="创建异步 IO 等待器">
<polygon fill="white" stroke="#666666" points="484,-35.5 347,-35.5 347,-5.5 484,-5.5 484,-35.5"/>
<text text-anchor="start" x="355" y="-23.5" font-family="Helvetica,sans-Serif" font-size="10.00">rm::async::AsyncIOAwaiter</text>
<text text-anchor="middle" x="415.5" y="-12.5" font-family="Helvetica,sans-Serif" font-size="10.00">::AsyncIOAwaiter</text>
</a>
</g>
</g>
<!-- Node2&#45;&gt;Node3 -->
<g id="edge2_Node000002_Node000003" class="edge">
<title>Node2&#45;&gt;Node3</title>
<g id="a_edge2_Node000002_Node000003"><a xlink:title=" ">
<path fill="none" stroke="#63b8ff" d="M311.03,-20.5C319.47,-20.5 328.09,-20.5 336.59,-20.5"/>
<polygon fill="#63b8ff" stroke="#63b8ff" points="336.87,-24 346.87,-20.5 336.87,-17 336.87,-24"/>
</a>
</g>
</g>
</g>
</svg>
