<?xml version="1.0" encoding="UTF-8" standalone="no"?>
<!DOCTYPE svg PUBLIC "-//W3C//DTD SVG 1.1//EN"
 "http://www.w3.org/Graphics/SVG/1.1/DTD/svg11.dtd">
<!-- Generated by graphviz version 2.43.0 (0)
 -->
<!-- Title: rm::hash_traits&lt; Tp, std::enable_if_t&lt; std::is_aggregate_v&lt; Tp &gt; &gt; &gt; Pages: 1 -->
<svg width="187pt" height="208pt"
 viewBox="0.00 0.00 187.00 208.00" xmlns="http://www.w3.org/2000/svg" xmlns:xlink="http://www.w3.org/1999/xlink">
<g id="graph0" class="graph" transform="scale(1 1) rotate(0) translate(4 204)">
<title>rm::hash_traits&lt; Tp, std::enable_if_t&lt; std::is_aggregate_v&lt; Tp &gt; &gt; &gt;</title>
<!-- Node1 -->
<g id="Node000001" class="node">
<title>Node1</title>
<g id="a_Node000001"><a xlink:title="聚合类哈希生成函数类型 traits">
<polygon fill="#999999" stroke="transparent" points="148,-71 0,-71 0,0 148,0 148,-71"/>
<text text-anchor="start" x="5" y="-58.5" font-family="Helvetica,sans-Serif" font-size="10.00">rm::hash_traits&lt; Tp,</text>
<text text-anchor="start" x="5" y="-47.5" font-family="Helvetica,sans-Serif" font-size="10.00"> std::enable_if_t&lt; std</text>
<text text-anchor="start" x="5" y="-36.5" font-family="Helvetica,sans-Serif" font-size="10.00">::is_aggregate_v&lt; Tp &gt; &gt; &gt;</text>
<text text-anchor="start" x="72" y="-21.5" font-family="Helvetica,sans-Serif" font-size="10.00"> </text>
<text text-anchor="start" x="72" y="-6.5" font-family="Helvetica,sans-Serif" font-size="10.00"> </text>
<polygon fill="#666666" stroke="#666666" points="0,-31.5 0,-31.5 148,-31.5 148,-31.5 0,-31.5"/>
<polygon fill="#666666" stroke="#666666" points="0,-16.5 0,-16.5 148,-16.5 148,-16.5 0,-16.5"/>
<polygon fill="none" stroke="#666666" points="0,0 0,-71 148,-71 148,0 0,0"/>
</a>
</g>
</g>
<!-- Node2 -->
<g id="Node000002" class="node">
<title>Node2</title>
<g id="a_Node000002"><a xlink:href="../../d4/d45/structrm_1_1hash__traits.html" target="_top" xlink:title="哈希生成函数类型 traits">
<polygon fill="white" stroke="transparent" points="129,-200 19,-200 19,-140 129,-140 129,-200"/>
<text text-anchor="start" x="24" y="-188" font-family="Helvetica,sans-Serif" font-size="10.00">rm::hash_traits&lt; Tp,</text>
<text text-anchor="start" x="50" y="-177" font-family="Helvetica,sans-Serif" font-size="10.00"> Enable &gt;</text>
<text text-anchor="start" x="72" y="-162" font-family="Helvetica,sans-Serif" font-size="10.00"> </text>
<text text-anchor="start" x="72" y="-147" font-family="Helvetica,sans-Serif" font-size="10.00"> </text>
<polygon fill="#666666" stroke="#666666" points="19,-172 19,-172 129,-172 129,-172 19,-172"/>
<polygon fill="#666666" stroke="#666666" points="19,-157 19,-157 129,-157 129,-157 19,-157"/>
<polygon fill="none" stroke="#666666" points="19,-140 19,-200 129,-200 129,-140 19,-140"/>
</a>
</g>
</g>
<!-- Node2&#45;&gt;Node1 -->
<g id="edge1_Node000001_Node000002" class="edge">
<title>Node2&#45;&gt;Node1</title>
<g id="a_edge1_Node000001_Node000002"><a xlink:title=" ">
<path fill="none" stroke="orange" d="M74,-129.71C74,-111.12 74,-89.11 74,-71.15"/>
<polygon fill="orange" stroke="orange" points="70.5,-129.92 74,-139.92 77.5,-129.92 70.5,-129.92"/>
</a>
</g>
<text text-anchor="start" x="74" y="-114" font-family="Helvetica,sans-Serif" font-size="10.00" fill="grey"> &lt; Tp, std::enable_if</text>
<text text-anchor="start" x="74" y="-103" font-family="Helvetica,sans-Serif" font-size="10.00" fill="grey">_t&lt; std::is_aggregate</text>
<text text-anchor="middle" x="126.5" y="-92" font-family="Helvetica,sans-Serif" font-size="10.00" fill="grey">_v&lt; Tp &gt; &gt; &gt;</text>
</g>
</g>
</svg>
