<?xml version="1.0" encoding="UTF-8" standalone="no"?>
<!DOCTYPE svg PUBLIC "-//W3C//DTD SVG 1.1//EN"
 "http://www.w3.org/Graphics/SVG/1.1/DTD/svg11.dtd">
<!-- Generated by graphviz version 2.43.0 (0)
 -->
<!-- Title: rmvl/decider.hpp Pages: 1 -->
<!--zoomable 522 -->

<svg id="main" version="1.1" xmlns="http://www.w3.org/2000/svg" xmlns:xlink="http://www.w3.org/1999/xlink" xml:space="preserve" onload="init(evt)">

<style type="text/css"><![CDATA[
.node, .edge {opacity: 0.7;}
.node.selected, .edge.selected {opacity: 1;}
.edge:hover path { stroke: red; }
.edge:hover polygon { stroke: red; fill: red; }
]]></style>

<defs>
  <circle id="rim" cx="0" cy="0" r="7"/>
  <circle id="rim2" cx="0" cy="0" r="3.5"/>
  <g id="zoomPlus">
    <use xlink:href="#rim" fill="#404040"><set attributeName="fill" to="#808080" begin="zoomplus.mouseover" end="zoomplus.mouseout"/></use>
    <path d="M-4,0h8M0,-4v8" fill="none" stroke="white" stroke-width="1.5" pointer-events="none"/>
  </g>
  <g id="zoomMin">
    <use xlink:href="#rim" fill="#404040"><set attributeName="fill" to="#808080" begin="zoomminus.mouseover" end="zoomminus.mouseout"/></use>
    <path d="M-4,0h8" fill="none" stroke="white" stroke-width="1.5" pointer-events="none"/>
  </g>
  <g id="arrowUp" transform="translate(30 24)">
    <use xlink:href="#rim"/>
    <path pointer-events="none" fill="none" stroke="white" stroke-width="1.5" d="M0,-3.0v7 M-2.5,-0.5L0,-3.0L2.5,-0.5"/>
  </g>
  <g id="arrowRight" transform="rotate(90) translate(36 -43)">
    <use xlink:href="#rim"/>
    <path pointer-events="none" fill="none" stroke="white" stroke-width="1.5" d="M0,-3.0v7 M-2.5,-0.5L0,-3.0L2.5,-0.5"/>
  </g>
  <g id="arrowDown" transform="rotate(180) translate(-30 -48)">
    <use xlink:href="#rim"/>
    <path pointer-events="none" fill="none" stroke="white" stroke-width="1.5" d="M0,-3.0v7 M-2.5,-0.5L0,-3.0L2.5,-0.5"/>
  </g>
  <g id="arrowLeft" transform="rotate(270) translate(-36 17)">
    <use xlink:href="#rim"/>
    <path pointer-events="none" fill="none" stroke="white" stroke-width="1.5" d="M0,-3.0v7 M-2.5,-0.5L0,-3.0L2.5,-0.5"/>
  </g>
  <g id="resetDef">
    <use xlink:href="#rim2" fill="#404040"><set attributeName="fill" to="#808080" begin="reset.mouseover" end="reset.mouseout"/></use>
  </g>
</defs>
<script type="application/ecmascript">
var viewWidth = 1186;
var viewHeight = 522;
var sectionId = 'dynsection-0';
</script>
<script type="application/ecmascript" xlink:href="../../svg.min.js"/>
<svg id="graph" class="graph">
<g id="viewport">
<title>rmvl/decider.hpp</title>
<!-- Node1 -->
<g id="Node000001" class="node">
<title>Node1</title>
<g id="a_Node000001"><a xlink:title=" ">
<polygon fill="#999999" stroke="#666666" points="108,-514 10,-514 10,-495 108,-495 108,-514"/>
<text text-anchor="middle" x="59" y="-502" font-family="Helvetica,sans-Serif" font-size="10.00">rmvl/decider.hpp</text>
</a>
</g>
</g>
<!-- Node2 -->
<g id="Node000002" class="node">
<title>Node2</title>
<g id="a_Node000002"><a xlink:title=" ">
<polygon fill="#e0e0e0" stroke="#999999" points="249.5,-19 116.5,-19 116.5,0 249.5,0 249.5,-19"/>
<text text-anchor="middle" x="183" y="-7" font-family="Helvetica,sans-Serif" font-size="10.00">rmvl/rmvl_modules.hpp</text>
</a>
</g>
</g>
<!-- Node1&#45;&gt;Node2 -->
<g id="edge1_Node000001_Node000002" class="edge">
<title>Node1&#45;&gt;Node2</title>
<g id="a_edge1_Node000001_Node000002"><a xlink:title=" ">
<path fill="none" stroke="#63b8ff" d="M50.29,-494.86C33.88,-477.6 0,-436.95 0,-395.5 0,-395.5 0,-395.5 0,-118.5 0,-62.01 65.48,-34.46 118.1,-21.44"/>
<polygon fill="#63b8ff" stroke="#63b8ff" points="119.16,-24.78 128.09,-19.1 117.56,-17.97 119.16,-24.78"/>
</a>
</g>
</g>
<!-- Node3 -->
<g id="Node000003" class="node">
<title>Node3</title>
<g id="a_Node000003"><a xlink:href="../../d3/d70/decider_8h.html" target="_top" xlink:title="抽象决策类头文件">
<polygon fill="white" stroke="#666666" points="258,-459 158,-459 158,-440 258,-440 258,-459"/>
<text text-anchor="middle" x="208" y="-447" font-family="Helvetica,sans-Serif" font-size="10.00">decider/decider.h</text>
</a>
</g>
</g>
<!-- Node1&#45;&gt;Node3 -->
<g id="edge2_Node000001_Node000003" class="edge">
<title>Node1&#45;&gt;Node3</title>
<g id="a_edge2_Node000001_Node000003"><a xlink:title=" ">
<path fill="none" stroke="#63b8ff" d="M82.94,-494.98C107.56,-486.23 146.12,-472.51 173.92,-462.62"/>
<polygon fill="#63b8ff" stroke="#63b8ff" points="175.38,-465.82 183.62,-459.17 173.03,-459.22 175.38,-465.82"/>
</a>
</g>
</g>
<!-- Node4 -->
<g id="Node000004" class="node">
<title>Node4</title>
<g id="a_Node000004"><a xlink:href="../../d9/df2/compensator_8h.html" target="_top" xlink:title="抽象补偿类头文件">
<polygon fill="white" stroke="#666666" points="209.5,-404 28.5,-404 28.5,-385 209.5,-385 209.5,-404"/>
<text text-anchor="middle" x="119" y="-392" font-family="Helvetica,sans-Serif" font-size="10.00">rmvl/compensator/compensator.h</text>
</a>
</g>
</g>
<!-- Node3&#45;&gt;Node4 -->
<g id="edge3_Node000003_Node000004" class="edge">
<title>Node3&#45;&gt;Node4</title>
<g id="a_edge3_Node000003_Node000004"><a xlink:title=" ">
<path fill="none" stroke="#63b8ff" d="M193.7,-439.98C179.9,-431.77 158.76,-419.18 142.49,-409.49"/>
<polygon fill="#63b8ff" stroke="#63b8ff" points="143.94,-406.28 133.56,-404.17 140.36,-412.29 143.94,-406.28"/>
</a>
</g>
</g>
<!-- Node30 -->
<g id="Node000030" class="node">
<title>Node30</title>
<g id="a_Node000030"><a xlink:href="../../d5/d9f/detector_8h.html" target="_top" xlink:title="抽象识别类头文件">
<polygon fill="white" stroke="#666666" points="520,-404 386,-404 386,-385 520,-385 520,-404"/>
<text text-anchor="middle" x="453" y="-392" font-family="Helvetica,sans-Serif" font-size="10.00">rmvl/detector/detector.h</text>
</a>
</g>
</g>
<!-- Node3&#45;&gt;Node30 -->
<g id="edge34_Node000003_Node000030" class="edge">
<title>Node3&#45;&gt;Node30</title>
<g id="a_edge34_Node000003_Node000030"><a xlink:title=" ">
<path fill="none" stroke="#63b8ff" d="M247.36,-439.98C289.74,-430.82 357.26,-416.21 403.28,-406.26"/>
<polygon fill="#63b8ff" stroke="#63b8ff" points="404.29,-409.62 413.33,-404.08 402.81,-402.78 404.29,-409.62"/>
</a>
</g>
</g>
<!-- Node33 -->
<g id="Node000033" class="node">
<title>Node33</title>
<g id="a_Node000033"><a xlink:href="../../dc/d08/predictor_8h.html" target="_top" xlink:title="抽象预测类头文件">
<polygon fill="white" stroke="#666666" points="368,-404 228,-404 228,-385 368,-385 368,-404"/>
<text text-anchor="middle" x="298" y="-392" font-family="Helvetica,sans-Serif" font-size="10.00">rmvl/predictor/predictor.h</text>
</a>
</g>
</g>
<!-- Node3&#45;&gt;Node33 -->
<g id="edge38_Node000003_Node000033" class="edge">
<title>Node3&#45;&gt;Node33</title>
<g id="a_edge38_Node000003_Node000033"><a xlink:title=" ">
<path fill="none" stroke="#63b8ff" d="M222.46,-439.98C236.42,-431.77 257.79,-419.18 274.25,-409.49"/>
<polygon fill="#63b8ff" stroke="#63b8ff" points="276.44,-412.26 283.28,-404.17 272.88,-406.23 276.44,-412.26"/>
</a>
</g>
</g>
<!-- Node5 -->
<g id="Node000005" class="node">
<title>Node5</title>
<g id="a_Node000005"><a xlink:title=" ">
<polygon fill="#e0e0e0" stroke="#999999" points="124.5,-129 31.5,-129 31.5,-110 124.5,-110 124.5,-129"/>
<text text-anchor="middle" x="78" y="-117" font-family="Helvetica,sans-Serif" font-size="10.00">unordered_map</text>
</a>
</g>
</g>
<!-- Node4&#45;&gt;Node5 -->
<g id="edge4_Node000004_Node000005" class="edge">
<title>Node4&#45;&gt;Node5</title>
<g id="a_edge4_Node000004_Node000005"><a xlink:title=" ">
<path fill="none" stroke="#63b8ff" d="M114.13,-384.85C104.52,-366.92 84,-324.13 84,-285.5 84,-285.5 84,-285.5 84,-228.5 84,-197.14 81.45,-160.74 79.67,-139.22"/>
<polygon fill="#63b8ff" stroke="#63b8ff" points="83.15,-138.83 78.81,-129.17 76.18,-139.43 83.15,-138.83"/>
</a>
</g>
</g>
<!-- Node6 -->
<g id="Node000006" class="node">
<title>Node6</title>
<g id="a_Node000006"><a xlink:href="../../d9/dd1/group_8h.html" target="_top" xlink:title="序列组抽象头文件">
<polygon fill="white" stroke="#666666" points="359,-349 249,-349 249,-330 359,-330 359,-349"/>
<text text-anchor="middle" x="304" y="-337" font-family="Helvetica,sans-Serif" font-size="10.00">rmvl/group/group.h</text>
</a>
</g>
</g>
<!-- Node4&#45;&gt;Node6 -->
<g id="edge5_Node000004_Node000006" class="edge">
<title>Node4&#45;&gt;Node6</title>
<g id="a_edge5_Node000004_Node000006"><a xlink:title=" ">
<path fill="none" stroke="#63b8ff" d="M148.72,-384.98C180.05,-376.01 229.57,-361.82 264.24,-351.89"/>
<polygon fill="#63b8ff" stroke="#63b8ff" points="265.39,-355.2 274.04,-349.08 263.47,-348.47 265.39,-355.2"/>
</a>
</g>
</g>
<!-- Node7 -->
<g id="Node000007" class="node">
<title>Node7</title>
<g id="a_Node000007"><a xlink:href="../../dc/ded/tracker_8h.html" target="_top" xlink:title="追踪器抽象头文件">
<polygon fill="white" stroke="#666666" points="369.5,-294 248.5,-294 248.5,-275 369.5,-275 369.5,-294"/>
<text text-anchor="middle" x="309" y="-282" font-family="Helvetica,sans-Serif" font-size="10.00">rmvl/tracker/tracker.h</text>
</a>
</g>
</g>
<!-- Node6&#45;&gt;Node7 -->
<g id="edge6_Node000006_Node000007" class="edge">
<title>Node6&#45;&gt;Node7</title>
<g id="a_edge6_Node000006_Node000007"><a xlink:title=" ">
<path fill="none" stroke="#63b8ff" d="M304.83,-329.75C305.48,-322.8 306.42,-312.85 307.24,-304.13"/>
<polygon fill="#63b8ff" stroke="#63b8ff" points="310.73,-304.37 308.19,-294.09 303.77,-303.72 310.73,-304.37"/>
</a>
</g>
</g>
<!-- Node8 -->
<g id="Node000008" class="node">
<title>Node8</title>
<g id="a_Node000008"><a xlink:title=" ">
<polygon fill="#e0e0e0" stroke="#999999" points="332.5,-239 285.5,-239 285.5,-220 332.5,-220 332.5,-239"/>
<text text-anchor="middle" x="309" y="-227" font-family="Helvetica,sans-Serif" font-size="10.00">deque</text>
</a>
</g>
</g>
<!-- Node7&#45;&gt;Node8 -->
<g id="edge7_Node000007_Node000008" class="edge">
<title>Node7&#45;&gt;Node8</title>
<g id="a_edge7_Node000007_Node000008"><a xlink:title=" ">
<path fill="none" stroke="#63b8ff" d="M309,-274.75C309,-267.8 309,-257.85 309,-249.13"/>
<polygon fill="#63b8ff" stroke="#63b8ff" points="312.5,-249.09 309,-239.09 305.5,-249.09 312.5,-249.09"/>
</a>
</g>
</g>
<!-- Node9 -->
<g id="Node000009" class="node">
<title>Node9</title>
<g id="a_Node000009"><a xlink:href="../../d8/d36/combo_8h.html" target="_top" xlink:title="the combination of the features header file">
<polygon fill="white" stroke="#666666" points="474,-239 354,-239 354,-220 474,-220 474,-239"/>
<text text-anchor="middle" x="414" y="-227" font-family="Helvetica,sans-Serif" font-size="10.00">rmvl/combo/combo.h</text>
</a>
</g>
</g>
<!-- Node7&#45;&gt;Node9 -->
<g id="edge8_Node000007_Node000009" class="edge">
<title>Node7&#45;&gt;Node9</title>
<g id="a_edge8_Node000007_Node000009"><a xlink:title=" ">
<path fill="none" stroke="#63b8ff" d="M325.87,-274.98C342.61,-266.54 368.5,-253.47 387.89,-243.68"/>
<polygon fill="#63b8ff" stroke="#63b8ff" points="389.47,-246.8 396.82,-239.17 386.32,-240.55 389.47,-246.8"/>
</a>
</g>
</g>
<!-- Node10 -->
<g id="Node000010" class="node">
<title>Node10</title>
<g id="a_Node000010"><a xlink:href="../../d3/d7e/camutils_8hpp.html" target="_top" xlink:title=" ">
<polygon fill="white" stroke="#666666" points="321.5,-184 176.5,-184 176.5,-165 321.5,-165 321.5,-184"/>
<text text-anchor="middle" x="249" y="-172" font-family="Helvetica,sans-Serif" font-size="10.00">rmvl/camera/camutils.hpp</text>
</a>
</g>
</g>
<!-- Node9&#45;&gt;Node10 -->
<g id="edge9_Node000009_Node000010" class="edge">
<title>Node9&#45;&gt;Node10</title>
<g id="a_edge9_Node000009_Node000010"><a xlink:title=" ">
<path fill="none" stroke="#63b8ff" d="M387.49,-219.98C359.79,-211.09 316.14,-197.07 285.26,-187.15"/>
<polygon fill="#63b8ff" stroke="#63b8ff" points="286.31,-183.81 275.72,-184.08 284.17,-190.47 286.31,-183.81"/>
</a>
</g>
</g>
<!-- Node12 -->
<g id="Node000012" class="node">
<title>Node12</title>
<g id="a_Node000012"><a xlink:href="../../d4/d78/math_8hpp.html" target="_top" xlink:title="基础数学库">
<polygon fill="white" stroke="#666666" points="638.5,-184 525.5,-184 525.5,-165 638.5,-165 638.5,-184"/>
<text text-anchor="middle" x="582" y="-172" font-family="Helvetica,sans-Serif" font-size="10.00">rmvl/core/math.hpp</text>
</a>
</g>
</g>
<!-- Node9&#45;&gt;Node12 -->
<g id="edge11_Node000009_Node000012" class="edge">
<title>Node9&#45;&gt;Node12</title>
<g id="a_edge11_Node000009_Node000012"><a xlink:title=" ">
<path fill="none" stroke="#63b8ff" d="M440.99,-219.98C469.2,-211.09 513.64,-197.07 545.08,-187.15"/>
<polygon fill="#63b8ff" stroke="#63b8ff" points="546.31,-190.43 554.8,-184.08 544.21,-183.75 546.31,-190.43"/>
</a>
</g>
</g>
<!-- Node23 -->
<g id="Node000023" class="node">
<title>Node23</title>
<g id="a_Node000023"><a xlink:href="../../dd/de3/types_8hpp.html" target="_top" xlink:title="常用状态类型定义">
<polygon fill="white" stroke="#666666" points="1178,-129 1088,-129 1088,-110 1178,-110 1178,-129"/>
<text text-anchor="middle" x="1133" y="-117" font-family="Helvetica,sans-Serif" font-size="10.00">rmvl/types.hpp</text>
</a>
</g>
</g>
<!-- Node9&#45;&gt;Node23 -->
<g id="edge24_Node000009_Node000023" class="edge">
<title>Node9&#45;&gt;Node23</title>
<g id="a_edge24_Node000009_Node000023"><a xlink:title=" ">
<path fill="none" stroke="#63b8ff" d="M474.17,-227.71C607.89,-225.36 926.03,-216.45 1028,-184 1061.07,-173.48 1094.57,-150.63 1114.56,-135.41"/>
<polygon fill="#63b8ff" stroke="#63b8ff" points="1116.77,-138.13 1122.5,-129.22 1112.46,-132.61 1116.77,-138.13"/>
</a>
</g>
</g>
<!-- Node24 -->
<g id="Node000024" class="node">
<title>Node24</title>
<g id="a_Node000024"><a xlink:href="../../d5/d60/dataio_8hpp.html" target="_top" xlink:title="陀螺仪数据">
<polygon fill="white" stroke="#666666" points="470,-184 352,-184 352,-165 470,-165 470,-184"/>
<text text-anchor="middle" x="411" y="-172" font-family="Helvetica,sans-Serif" font-size="10.00">rmvl/core/dataio.hpp</text>
</a>
</g>
</g>
<!-- Node9&#45;&gt;Node24 -->
<g id="edge26_Node000009_Node000024" class="edge">
<title>Node9&#45;&gt;Node24</title>
<g id="a_edge26_Node000009_Node000024"><a xlink:title=" ">
<path fill="none" stroke="#63b8ff" d="M413.5,-219.75C413.11,-212.8 412.55,-202.85 412.05,-194.13"/>
<polygon fill="#63b8ff" stroke="#63b8ff" points="415.55,-193.88 411.49,-184.09 408.56,-194.27 415.55,-193.88"/>
</a>
</g>
</g>
<!-- Node27 -->
<g id="Node000027" class="node">
<title>Node27</title>
<g id="a_Node000027"><a xlink:href="../../d2/d74/feature_8h.html" target="_top" xlink:title="feature class header">
<polygon fill="white" stroke="#666666" points="1018.5,-184 893.5,-184 893.5,-165 1018.5,-165 1018.5,-184"/>
<text text-anchor="middle" x="956" y="-172" font-family="Helvetica,sans-Serif" font-size="10.00">rmvl/feature/feature.h</text>
</a>
</g>
</g>
<!-- Node9&#45;&gt;Node27 -->
<g id="edge30_Node000009_Node000027" class="edge">
<title>Node9&#45;&gt;Node27</title>
<g id="a_edge30_Node000009_Node000027"><a xlink:title=" ">
<path fill="none" stroke="#63b8ff" d="M474.07,-222.63C574.2,-212.83 774.86,-193.21 882.98,-182.64"/>
<polygon fill="#63b8ff" stroke="#63b8ff" points="883.54,-186.1 893.15,-181.65 882.86,-179.14 883.54,-186.1"/>
</a>
</g>
</g>
<!-- Node11 -->
<g id="Node000011" class="node">
<title>Node11</title>
<g id="a_Node000011"><a xlink:title=" ">
<polygon fill="#e0e0e0" stroke="#999999" points="245.5,-129 142.5,-129 142.5,-110 245.5,-110 245.5,-129"/>
<text text-anchor="middle" x="194" y="-117" font-family="Helvetica,sans-Serif" font-size="10.00">opencv2/core.hpp</text>
</a>
</g>
</g>
<!-- Node10&#45;&gt;Node11 -->
<g id="edge10_Node000010_Node000011" class="edge">
<title>Node10&#45;&gt;Node11</title>
<g id="a_edge10_Node000010_Node000011"><a xlink:title=" ">
<path fill="none" stroke="#63b8ff" d="M239.92,-164.75C231.91,-157.03 220.04,-145.6 210.38,-136.28"/>
<polygon fill="#63b8ff" stroke="#63b8ff" points="212.54,-133.51 202.91,-129.09 207.69,-138.55 212.54,-133.51"/>
</a>
</g>
</g>
<!-- Node12&#45;&gt;Node5 -->
<g id="edge14_Node000012_Node000005" class="edge">
<title>Node12&#45;&gt;Node5</title>
<g id="a_edge14_Node000012_Node000005"><a xlink:title=" ">
<path fill="none" stroke="#63b8ff" d="M525.32,-168.81C442.11,-161.73 281.78,-147.28 134.83,-129.04"/>
<polygon fill="#63b8ff" stroke="#63b8ff" points="135.08,-125.54 124.73,-127.78 134.21,-132.49 135.08,-125.54"/>
</a>
</g>
</g>
<!-- Node13 -->
<g id="Node000013" class="node">
<title>Node13</title>
<g id="a_Node000013"><a xlink:title=" ">
<polygon fill="#e0e0e0" stroke="#999999" points="690.5,-129 643.5,-129 643.5,-110 690.5,-110 690.5,-129"/>
<text text-anchor="middle" x="667" y="-117" font-family="Helvetica,sans-Serif" font-size="10.00">cmath</text>
</a>
</g>
</g>
<!-- Node12&#45;&gt;Node13 -->
<g id="edge12_Node000012_Node000013" class="edge">
<title>Node12&#45;&gt;Node13</title>
<g id="a_edge12_Node000012_Node000013"><a xlink:title=" ">
<path fill="none" stroke="#63b8ff" d="M595.66,-164.98C608.84,-156.77 629.03,-144.18 644.57,-134.49"/>
<polygon fill="#63b8ff" stroke="#63b8ff" points="646.46,-137.43 653.09,-129.17 642.76,-131.49 646.46,-137.43"/>
</a>
</g>
</g>
<!-- Node14 -->
<g id="Node000014" class="node">
<title>Node14</title>
<g id="a_Node000014"><a xlink:title=" ">
<polygon fill="#e0e0e0" stroke="#999999" points="765,-129 709,-129 709,-110 765,-110 765,-129"/>
<text text-anchor="middle" x="737" y="-117" font-family="Helvetica,sans-Serif" font-size="10.00">numeric</text>
</a>
</g>
</g>
<!-- Node12&#45;&gt;Node14 -->
<g id="edge13_Node000012_Node000014" class="edge">
<title>Node12&#45;&gt;Node14</title>
<g id="a_edge13_Node000012_Node000014"><a xlink:title=" ">
<path fill="none" stroke="#63b8ff" d="M606.9,-164.98C632.7,-156.16 673.22,-142.31 702.18,-132.41"/>
<polygon fill="#63b8ff" stroke="#63b8ff" points="703.57,-135.63 711.9,-129.08 701.31,-129.01 703.57,-135.63"/>
</a>
</g>
</g>
<!-- Node15 -->
<g id="Node000015" class="node">
<title>Node15</title>
<g id="a_Node000015"><a xlink:title=" ">
<polygon fill="#e0e0e0" stroke="#999999" points="437.5,-129 390.5,-129 390.5,-110 437.5,-110 437.5,-129"/>
<text text-anchor="middle" x="414" y="-117" font-family="Helvetica,sans-Serif" font-size="10.00">vector</text>
</a>
</g>
</g>
<!-- Node12&#45;&gt;Node15 -->
<g id="edge15_Node000012_Node000015" class="edge">
<title>Node12&#45;&gt;Node15</title>
<g id="a_edge15_Node000012_Node000015"><a xlink:title=" ">
<path fill="none" stroke="#63b8ff" d="M555.01,-164.98C525.71,-155.74 478.91,-140.98 447.34,-131.02"/>
<polygon fill="#63b8ff" stroke="#63b8ff" points="448.26,-127.64 437.67,-127.97 446.15,-134.31 448.26,-127.64"/>
</a>
</g>
</g>
<!-- Node16 -->
<g id="Node000016" class="node">
<title>Node16</title>
<g id="a_Node000016"><a xlink:title=" ">
<polygon fill="#e0e0e0" stroke="#999999" points="842.5,-129 783.5,-129 783.5,-110 842.5,-110 842.5,-129"/>
<text text-anchor="middle" x="813" y="-117" font-family="Helvetica,sans-Serif" font-size="10.00">numbers</text>
</a>
</g>
</g>
<!-- Node12&#45;&gt;Node16 -->
<g id="edge16_Node000012_Node000016" class="edge">
<title>Node12&#45;&gt;Node16</title>
<g id="a_edge16_Node000012_Node000016"><a xlink:title=" ">
<path fill="none" stroke="#63b8ff" d="M619.11,-164.98C661.38,-155.29 730.17,-139.5 773.44,-129.58"/>
<polygon fill="#63b8ff" stroke="#63b8ff" points="774.36,-132.96 783.32,-127.31 772.79,-126.13 774.36,-132.96"/>
</a>
</g>
</g>
<!-- Node17 -->
<g id="Node000017" class="node">
<title>Node17</title>
<g id="a_Node000017"><a xlink:title=" ">
<polygon fill="#e0e0e0" stroke="#999999" points="586.5,-129 455.5,-129 455.5,-110 586.5,-110 586.5,-129"/>
<text text-anchor="middle" x="521" y="-117" font-family="Helvetica,sans-Serif" font-size="10.00">opencv2/core/matx.hpp</text>
</a>
</g>
</g>
<!-- Node12&#45;&gt;Node17 -->
<g id="edge17_Node000012_Node000017" class="edge">
<title>Node12&#45;&gt;Node17</title>
<g id="a_edge17_Node000012_Node000017"><a xlink:title=" ">
<path fill="none" stroke="#63b8ff" d="M572.2,-164.98C563.18,-157.15 549.59,-145.34 538.68,-135.86"/>
<polygon fill="#63b8ff" stroke="#63b8ff" points="540.82,-133.09 530.98,-129.17 536.23,-138.37 540.82,-133.09"/>
</a>
</g>
</g>
<!-- Node18 -->
<g id="Node000018" class="node">
<title>Node18</title>
<g id="a_Node000018"><a xlink:href="../../d0/d3f/util_8hpp.html" target="_top" xlink:title=" ">
<polygon fill="white" stroke="#666666" points="641.5,-74 588.5,-74 588.5,-55 641.5,-55 641.5,-74"/>
<text text-anchor="middle" x="615" y="-62" font-family="Helvetica,sans-Serif" font-size="10.00">util.hpp</text>
</a>
</g>
</g>
<!-- Node12&#45;&gt;Node18 -->
<g id="edge18_Node000012_Node000018" class="edge">
<title>Node12&#45;&gt;Node18</title>
<g id="a_edge18_Node000012_Node000018"><a xlink:title=" ">
<path fill="none" stroke="#63b8ff" d="M584.72,-164.98C587.57,-156.03 592.15,-141.54 596,-129 600.65,-113.85 605.79,-96.63 609.55,-83.95"/>
<polygon fill="#63b8ff" stroke="#63b8ff" points="612.98,-84.72 612.46,-74.14 606.26,-82.74 612.98,-84.72"/>
</a>
</g>
</g>
<!-- Node18&#45;&gt;Node2 -->
<g id="edge19_Node000018_Node000002" class="edge">
<title>Node18&#45;&gt;Node2</title>
<g id="a_edge19_Node000018_Node000002"><a xlink:title=" ">
<path fill="none" stroke="#63b8ff" d="M588.3,-60.22C523.99,-52.33 358.51,-32.03 260.03,-19.95"/>
<polygon fill="#63b8ff" stroke="#63b8ff" points="260.18,-16.44 249.83,-18.7 259.33,-23.39 260.18,-16.44"/>
</a>
</g>
</g>
<!-- Node19 -->
<g id="Node000019" class="node">
<title>Node19</title>
<g id="a_Node000019"><a xlink:title=" ">
<polygon fill="#e0e0e0" stroke="#999999" points="760,-19 710,-19 710,0 760,0 760,-19"/>
<text text-anchor="middle" x="735" y="-7" font-family="Helvetica,sans-Serif" font-size="10.00">cstdint</text>
</a>
</g>
</g>
<!-- Node18&#45;&gt;Node19 -->
<g id="edge20_Node000018_Node000019" class="edge">
<title>Node18&#45;&gt;Node19</title>
<g id="a_edge20_Node000018_Node000019"><a xlink:title=" ">
<path fill="none" stroke="#63b8ff" d="M634.28,-54.98C653.67,-46.42 683.81,-33.11 706.07,-23.28"/>
<polygon fill="#63b8ff" stroke="#63b8ff" points="707.64,-26.41 715.37,-19.17 704.81,-20.01 707.64,-26.41"/>
</a>
</g>
</g>
<!-- Node20 -->
<g id="Node000020" class="node">
<title>Node20</title>
<g id="a_Node000020"><a xlink:title=" ">
<polygon fill="#e0e0e0" stroke="#999999" points="536,-19 490,-19 490,0 536,0 536,-19"/>
<text text-anchor="middle" x="513" y="-7" font-family="Helvetica,sans-Serif" font-size="10.00">cstdio</text>
</a>
</g>
</g>
<!-- Node18&#45;&gt;Node20 -->
<g id="edge21_Node000018_Node000020" class="edge">
<title>Node18&#45;&gt;Node20</title>
<g id="a_edge21_Node000018_Node000020"><a xlink:title=" ">
<path fill="none" stroke="#63b8ff" d="M598.61,-54.98C582.43,-46.57 557.43,-33.59 538.62,-23.81"/>
<polygon fill="#63b8ff" stroke="#63b8ff" points="540.17,-20.68 529.69,-19.17 536.95,-26.89 540.17,-20.68"/>
</a>
</g>
</g>
<!-- Node21 -->
<g id="Node000021" class="node">
<title>Node21</title>
<g id="a_Node000021"><a xlink:title=" ">
<polygon fill="#e0e0e0" stroke="#999999" points="598,-19 554,-19 554,0 598,0 598,-19"/>
<text text-anchor="middle" x="576" y="-7" font-family="Helvetica,sans-Serif" font-size="10.00">string</text>
</a>
</g>
</g>
<!-- Node18&#45;&gt;Node21 -->
<g id="edge22_Node000018_Node000021" class="edge">
<title>Node18&#45;&gt;Node21</title>
<g id="a_edge22_Node000018_Node000021"><a xlink:title=" ">
<path fill="none" stroke="#63b8ff" d="M608.56,-54.75C603.11,-47.34 595.14,-36.5 588.44,-27.41"/>
<polygon fill="#63b8ff" stroke="#63b8ff" points="591.07,-25.07 582.32,-19.09 585.43,-29.22 591.07,-25.07"/>
</a>
</g>
</g>
<!-- Node22 -->
<g id="Node000022" class="node">
<title>Node22</title>
<g id="a_Node000022"><a xlink:href="../../db/d41/rmvldef_8hpp.html" target="_top" xlink:title=" ">
<polygon fill="white" stroke="#666666" points="691.5,-19 616.5,-19 616.5,0 691.5,0 691.5,-19"/>
<text text-anchor="middle" x="654" y="-7" font-family="Helvetica,sans-Serif" font-size="10.00">rmvldef.hpp</text>
</a>
</g>
</g>
<!-- Node18&#45;&gt;Node22 -->
<g id="edge23_Node000018_Node000022" class="edge">
<title>Node18&#45;&gt;Node22</title>
<g id="a_edge23_Node000018_Node000022"><a xlink:title=" ">
<path fill="none" stroke="#63b8ff" d="M621.44,-54.75C626.89,-47.34 634.86,-36.5 641.56,-27.41"/>
<polygon fill="#63b8ff" stroke="#63b8ff" points="644.57,-29.22 647.68,-19.09 638.93,-25.07 644.57,-29.22"/>
</a>
</g>
</g>
<!-- Node23&#45;&gt;Node18 -->
<g id="edge25_Node000023_Node000018" class="edge">
<title>Node23&#45;&gt;Node18</title>
<g id="a_edge25_Node000023_Node000018"><a xlink:title=" ">
<path fill="none" stroke="#63b8ff" d="M1087.95,-111.2C1084.92,-110.77 1081.92,-110.37 1079,-110 920.66,-89.96 730.9,-74.39 652.11,-68.29"/>
<polygon fill="#63b8ff" stroke="#63b8ff" points="651.98,-64.77 641.74,-67.49 651.44,-71.75 651.98,-64.77"/>
</a>
</g>
</g>
<!-- Node24&#45;&gt;Node15 -->
<g id="edge29_Node000024_Node000015" class="edge">
<title>Node24&#45;&gt;Node15</title>
<g id="a_edge29_Node000024_Node000015"><a xlink:title=" ">
<path fill="none" stroke="#63b8ff" d="M411.5,-164.75C411.89,-157.8 412.45,-147.85 412.95,-139.13"/>
<polygon fill="#63b8ff" stroke="#63b8ff" points="416.44,-139.27 413.51,-129.09 409.45,-138.88 416.44,-139.27"/>
</a>
</g>
</g>
<!-- Node25 -->
<g id="Node000025" class="node">
<title>Node25</title>
<g id="a_Node000025"><a xlink:title=" ">
<polygon fill="#e0e0e0" stroke="#999999" points="306,-129 264,-129 264,-110 306,-110 306,-129"/>
<text text-anchor="middle" x="285" y="-117" font-family="Helvetica,sans-Serif" font-size="10.00">array</text>
</a>
</g>
</g>
<!-- Node24&#45;&gt;Node25 -->
<g id="edge27_Node000024_Node000025" class="edge">
<title>Node24&#45;&gt;Node25</title>
<g id="a_edge27_Node000024_Node000025"><a xlink:title=" ">
<path fill="none" stroke="#63b8ff" d="M390.76,-164.98C370.3,-156.38 338.47,-142.99 315.07,-133.15"/>
<polygon fill="#63b8ff" stroke="#63b8ff" points="316.19,-129.82 305.61,-129.17 313.47,-136.27 316.19,-129.82"/>
</a>
</g>
</g>
<!-- Node26 -->
<g id="Node000026" class="node">
<title>Node26</title>
<g id="a_Node000026"><a xlink:title=" ">
<polygon fill="#e0e0e0" stroke="#999999" points="372,-129 324,-129 324,-110 372,-110 372,-129"/>
<text text-anchor="middle" x="348" y="-117" font-family="Helvetica,sans-Serif" font-size="10.00">iosfwd</text>
</a>
</g>
</g>
<!-- Node24&#45;&gt;Node26 -->
<g id="edge28_Node000024_Node000026" class="edge">
<title>Node24&#45;&gt;Node26</title>
<g id="a_edge28_Node000024_Node000026"><a xlink:title=" ">
<path fill="none" stroke="#63b8ff" d="M400.88,-164.98C391.56,-157.15 377.53,-145.34 366.26,-135.86"/>
<polygon fill="#63b8ff" stroke="#63b8ff" points="368.21,-132.93 358.31,-129.17 363.71,-138.29 368.21,-132.93"/>
</a>
</g>
</g>
<!-- Node27&#45;&gt;Node23 -->
<g id="edge33_Node000027_Node000023" class="edge">
<title>Node27&#45;&gt;Node23</title>
<g id="a_edge33_Node000027_Node000023"><a xlink:title=" ">
<path fill="none" stroke="#63b8ff" d="M984.44,-164.98C1014.28,-156.05 1061.38,-141.94 1094.53,-132.02"/>
<polygon fill="#63b8ff" stroke="#63b8ff" points="1095.76,-135.3 1104.34,-129.08 1093.76,-128.6 1095.76,-135.3"/>
</a>
</g>
</g>
<!-- Node28 -->
<g id="Node000028" class="node">
<title>Node28</title>
<g id="a_Node000028"><a xlink:title=" ">
<polygon fill="#e0e0e0" stroke="#999999" points="1070,-129 1012,-129 1012,-110 1070,-110 1070,-129"/>
<text text-anchor="middle" x="1041" y="-117" font-family="Helvetica,sans-Serif" font-size="10.00">memory</text>
</a>
</g>
</g>
<!-- Node27&#45;&gt;Node28 -->
<g id="edge31_Node000027_Node000028" class="edge">
<title>Node27&#45;&gt;Node28</title>
<g id="a_edge31_Node000027_Node000028"><a xlink:title=" ">
<path fill="none" stroke="#63b8ff" d="M969.66,-164.98C982.84,-156.77 1003.03,-144.18 1018.57,-134.49"/>
<polygon fill="#63b8ff" stroke="#63b8ff" points="1020.46,-137.43 1027.09,-129.17 1016.76,-131.49 1020.46,-137.43"/>
</a>
</g>
</g>
<!-- Node29 -->
<g id="Node000029" class="node">
<title>Node29</title>
<g id="a_Node000029"><a xlink:title=" ">
<polygon fill="#e0e0e0" stroke="#999999" points="993.5,-129 860.5,-129 860.5,-110 993.5,-110 993.5,-129"/>
<text text-anchor="middle" x="927" y="-117" font-family="Helvetica,sans-Serif" font-size="10.00">opencv2/core/types.hpp</text>
</a>
</g>
</g>
<!-- Node27&#45;&gt;Node29 -->
<g id="edge32_Node000027_Node000029" class="edge">
<title>Node27&#45;&gt;Node29</title>
<g id="a_edge32_Node000027_Node000029"><a xlink:title=" ">
<path fill="none" stroke="#63b8ff" d="M951.21,-164.75C947.24,-157.49 941.47,-146.95 936.57,-137.98"/>
<polygon fill="#63b8ff" stroke="#63b8ff" points="939.57,-136.18 931.7,-129.09 933.43,-139.54 939.57,-136.18"/>
</a>
</g>
</g>
<!-- Node30&#45;&gt;Node6 -->
<g id="edge35_Node000030_Node000006" class="edge">
<title>Node30&#45;&gt;Node6</title>
<g id="a_edge35_Node000030_Node000006"><a xlink:title=" ">
<path fill="none" stroke="#63b8ff" d="M429.06,-384.98C404.44,-376.23 365.88,-362.51 338.08,-352.62"/>
<polygon fill="#63b8ff" stroke="#63b8ff" points="338.97,-349.22 328.38,-349.17 336.62,-355.82 338.97,-349.22"/>
</a>
</g>
</g>
<!-- Node31 -->
<g id="Node000031" class="node">
<title>Node31</title>
<g id="a_Node000031"><a xlink:href="../../d2/d4c/pretreat_8hpp.html" target="_top" xlink:title="图像预处理模块">
<polygon fill="white" stroke="#666666" points="516,-349 390,-349 390,-330 516,-330 516,-349"/>
<text text-anchor="middle" x="453" y="-337" font-family="Helvetica,sans-Serif" font-size="10.00">rmvl/core/pretreat.hpp</text>
</a>
</g>
</g>
<!-- Node30&#45;&gt;Node31 -->
<g id="edge36_Node000030_Node000031" class="edge">
<title>Node30&#45;&gt;Node31</title>
<g id="a_edge36_Node000030_Node000031"><a xlink:title=" ">
<path fill="none" stroke="#63b8ff" d="M453,-384.75C453,-377.8 453,-367.85 453,-359.13"/>
<polygon fill="#63b8ff" stroke="#63b8ff" points="456.5,-359.09 453,-349.09 449.5,-359.09 456.5,-359.09"/>
</a>
</g>
</g>
<!-- Node32 -->
<g id="Node000032" class="node">
<title>Node32</title>
<g id="a_Node000032"><a xlink:title=" ">
<polygon fill="#e0e0e0" stroke="#999999" points="515.5,-294 390.5,-294 390.5,-275 515.5,-275 515.5,-294"/>
<text text-anchor="middle" x="453" y="-282" font-family="Helvetica,sans-Serif" font-size="10.00">opencv2/core/mat.hpp</text>
</a>
</g>
</g>
<!-- Node31&#45;&gt;Node32 -->
<g id="edge37_Node000031_Node000032" class="edge">
<title>Node31&#45;&gt;Node32</title>
<g id="a_edge37_Node000031_Node000032"><a xlink:title=" ">
<path fill="none" stroke="#63b8ff" d="M453,-329.75C453,-322.8 453,-312.85 453,-304.13"/>
<polygon fill="#63b8ff" stroke="#63b8ff" points="456.5,-304.09 453,-294.09 449.5,-304.09 456.5,-304.09"/>
</a>
</g>
</g>
<!-- Node33&#45;&gt;Node5 -->
<g id="edge39_Node000033_Node000005" class="edge">
<title>Node33&#45;&gt;Node5</title>
<g id="a_edge39_Node000033_Node000005"><a xlink:title=" ">
<path fill="none" stroke="#63b8ff" d="M250.27,-384.97C199.06,-372.74 125,-344.81 125,-285.5 125,-285.5 125,-285.5 125,-228.5 125,-193.92 104.49,-157.9 90.57,-137.43"/>
<polygon fill="#63b8ff" stroke="#63b8ff" points="93.37,-135.32 84.73,-129.18 87.65,-139.37 93.37,-135.32"/>
</a>
</g>
</g>
<!-- Node33&#45;&gt;Node6 -->
<g id="edge40_Node000033_Node000006" class="edge">
<title>Node33&#45;&gt;Node6</title>
<g id="a_edge40_Node000033_Node000006"><a xlink:title=" ">
<path fill="none" stroke="#63b8ff" d="M298.99,-384.75C299.78,-377.8 300.9,-367.85 301.89,-359.13"/>
<polygon fill="#63b8ff" stroke="#63b8ff" points="305.38,-359.42 303.03,-349.09 298.42,-358.63 305.38,-359.42"/>
</a>
</g>
</g>
</g>
</svg>

<g id="navigator" transform="translate(0 0)" fill="#404254">
  <rect fill="#f2f5e9" fill-opacity="0.5" stroke="#606060" stroke-width=".5" x="0" y="0" width="60" height="60"/>
  <use id="zoomplus" xlink:href="#zoomPlus" x="17" y="9" onmousedown="handleZoom(evt,'in')"/>
  <use id="zoomminus" xlink:href="#zoomMin" x="42" y="9" onmousedown="handleZoom(evt,'out')"/>
  <use id="reset" xlink:href="#resetDef" x="30" y="36" onmousedown="handleReset()"/>
   <use id="arrowup" xlink:href="#arrowUp" x="0" y="0" onmousedown="handlePan(0,-1)"/>
  <use id="arrowright" xlink:href="#arrowRight" x="0" y="0" onmousedown="handlePan(1,0)"/>
  <use id="arrowdown" xlink:href="#arrowDown" x="0" y="0" onmousedown="handlePan(0,1)"/>
  <use id="arrowleft" xlink:href="#arrowLeft" x="0" y="0" onmousedown="handlePan(-1,0)"/>
</g>
<svg viewBox="0 0 15 15" width="100%" height="30px" preserveAspectRatio="xMaxYMin meet">
 <g id="arrow_out" transform="scale(0.3 0.3)">
  <a xlink:href="rmvl_2decider_8hpp__incl_org.svg" target="_base">
   <rect id="button" ry="5" rx="5" y="6" x="6" height="38" width="38"
        fill="#f2f5e9" fill-opacity="0.5" stroke="#606060" stroke-width="1.0"/>
   <path id="arrow"
     d="M 11.500037,31.436501 C 11.940474,20.09759 22.043105,11.32322 32.158766,21.979434 L 37.068811,17.246167 C 37.068811,17.246167 37.088388,32 37.088388,32 L 22.160133,31.978069 C 22.160133,31.978069 26.997745,27.140456 26.997745,27.140456 C 18.528582,18.264221 13.291696,25.230495 11.500037,31.436501 z"
     style="fill:#404040;"/>
  </a>
 </g>
</svg>

<style type='text/css'>
<![CDATA[
[data-mouse-over-selected='false'] { opacity: 0.7; }
[data-mouse-over-selected='true']  { opacity: 1.0; }
]]>
</style>
<script type="application/ecmascript"><![CDATA[
document.addEventListener('DOMContentLoaded', (event) => {
  highlightEdges();
  highlightAdjacentNodes();
});
]]></script>
</svg>
