<?xml version="1.0" encoding="UTF-8" standalone="no"?>
<!DOCTYPE svg PUBLIC "-//W3C//DTD SVG 1.1//EN"
 "http://www.w3.org/Graphics/SVG/1.1/DTD/svg11.dtd">
<!-- Generated by graphviz version 2.43.0 (0)
 -->
<!-- Title: rmvl/opcua/subscriber.hpp Pages: 1 -->
<svg width="1179pt" height="368pt"
 viewBox="0.00 0.00 1178.50 368.00" xmlns="http://www.w3.org/2000/svg" xmlns:xlink="http://www.w3.org/1999/xlink">
<g id="graph0" class="graph" transform="scale(1 1) rotate(0) translate(4 364)">
<title>rmvl/opcua/subscriber.hpp</title>
<!-- Node1 -->
<g id="Node000001" class="node">
<title>Node1</title>
<g id="a_Node000001"><a xlink:title="OPC UA 订阅者">
<polygon fill="#999999" stroke="#666666" points="254.5,-360 109.5,-360 109.5,-341 254.5,-341 254.5,-360"/>
<text text-anchor="middle" x="182" y="-348" font-family="Helvetica,sans-Serif" font-size="10.00">rmvl/opcua/subscriber.hpp</text>
</a>
</g>
</g>
<!-- Node2 -->
<g id="Node000002" class="node">
<title>Node2</title>
<g id="a_Node000002"><a xlink:href="../../df/d0a/server_8hpp.html" target="_top" xlink:title="OPC UA 服务器">
<polygon fill="white" stroke="#666666" points="216,-305 148,-305 148,-286 216,-286 216,-305"/>
<text text-anchor="middle" x="182" y="-293" font-family="Helvetica,sans-Serif" font-size="10.00">server.hpp</text>
</a>
</g>
</g>
<!-- Node1&#45;&gt;Node2 -->
<g id="edge1_Node000001_Node000002" class="edge">
<title>Node1&#45;&gt;Node2</title>
<g id="a_edge1_Node000001_Node000002"><a xlink:title=" ">
<path fill="none" stroke="#63b8ff" d="M182,-340.75C182,-333.8 182,-323.85 182,-315.13"/>
<polygon fill="#63b8ff" stroke="#63b8ff" points="185.5,-315.09 182,-305.09 178.5,-315.09 185.5,-315.09"/>
</a>
</g>
</g>
<!-- Node3 -->
<g id="Node000003" class="node">
<title>Node3</title>
<g id="a_Node000003"><a xlink:title=" ">
<polygon fill="#e0e0e0" stroke="#999999" points="50,-250 0,-250 0,-231 50,-231 50,-250"/>
<text text-anchor="middle" x="25" y="-238" font-family="Helvetica,sans-Serif" font-size="10.00">atomic</text>
</a>
</g>
</g>
<!-- Node2&#45;&gt;Node3 -->
<g id="edge2_Node000002_Node000003" class="edge">
<title>Node2&#45;&gt;Node3</title>
<g id="a_edge2_Node000002_Node000003"><a xlink:title=" ">
<path fill="none" stroke="#63b8ff" d="M156.78,-285.98C130.57,-277.14 89.36,-263.23 60.01,-253.32"/>
<polygon fill="#63b8ff" stroke="#63b8ff" points="60.76,-249.88 50.16,-249.99 58.52,-256.51 60.76,-249.88"/>
</a>
</g>
</g>
<!-- Node4 -->
<g id="Node000004" class="node">
<title>Node4</title>
<g id="a_Node000004"><a xlink:title=" ">
<polygon fill="#e0e0e0" stroke="#999999" points="154,-250 68,-250 68,-231 154,-231 154,-250"/>
<text text-anchor="middle" x="111" y="-238" font-family="Helvetica,sans-Serif" font-size="10.00">unordered_set</text>
</a>
</g>
</g>
<!-- Node2&#45;&gt;Node4 -->
<g id="edge3_Node000002_Node000004" class="edge">
<title>Node2&#45;&gt;Node4</title>
<g id="a_edge3_Node000002_Node000004"><a xlink:title=" ">
<path fill="none" stroke="#63b8ff" d="M170.59,-285.98C159.89,-278 143.66,-265.88 130.84,-256.31"/>
<polygon fill="#63b8ff" stroke="#63b8ff" points="132.72,-253.35 122.61,-250.17 128.53,-258.96 132.72,-253.35"/>
</a>
</g>
</g>
<!-- Node5 -->
<g id="Node000005" class="node">
<title>Node5</title>
<g id="a_Node000005"><a xlink:href="../../dc/d94/event_8hpp.html" target="_top" xlink:title="OPC UA 事件">
<polygon fill="white" stroke="#666666" points="181.5,-195 116.5,-195 116.5,-176 181.5,-176 181.5,-195"/>
<text text-anchor="middle" x="149" y="-183" font-family="Helvetica,sans-Serif" font-size="10.00">event.hpp</text>
</a>
</g>
</g>
<!-- Node2&#45;&gt;Node5 -->
<g id="edge4_Node000002_Node000005" class="edge">
<title>Node2&#45;&gt;Node5</title>
<g id="a_edge4_Node000002_Node000005"><a xlink:title=" ">
<path fill="none" stroke="#63b8ff" d="M179.46,-285.86C175.85,-273.63 169.01,-250.58 163,-231 160.35,-222.38 157.36,-212.83 154.82,-204.8"/>
<polygon fill="#63b8ff" stroke="#63b8ff" points="158.08,-203.49 151.72,-195.02 151.41,-205.61 158.08,-203.49"/>
</a>
</g>
</g>
<!-- Node24 -->
<g id="Node000024" class="node">
<title>Node24</title>
<g id="a_Node000024"><a xlink:href="../../df/de1/object_8hpp.html" target="_top" xlink:title="对象（类型）">
<polygon fill="white" stroke="#666666" points="278,-250 210,-250 210,-231 278,-231 278,-250"/>
<text text-anchor="middle" x="244" y="-238" font-family="Helvetica,sans-Serif" font-size="10.00">object.hpp</text>
</a>
</g>
</g>
<!-- Node2&#45;&gt;Node24 -->
<g id="edge25_Node000002_Node000024" class="edge">
<title>Node2&#45;&gt;Node24</title>
<g id="a_edge25_Node000002_Node000024"><a xlink:title=" ">
<path fill="none" stroke="#63b8ff" d="M191.96,-285.98C201.13,-278.15 214.94,-266.34 226.03,-256.86"/>
<polygon fill="#63b8ff" stroke="#63b8ff" points="228.53,-259.33 233.86,-250.17 223.98,-254.01 228.53,-259.33"/>
</a>
</g>
</g>
<!-- Node26 -->
<g id="Node000026" class="node">
<title>Node26</title>
<g id="a_Node000026"><a xlink:href="../../d8/d11/view_8hpp.html" target="_top" xlink:title="视图">
<polygon fill="white" stroke="#666666" points="391,-195 331,-195 331,-176 391,-176 391,-195"/>
<text text-anchor="middle" x="361" y="-183" font-family="Helvetica,sans-Serif" font-size="10.00">view.hpp</text>
</a>
</g>
</g>
<!-- Node2&#45;&gt;Node26 -->
<g id="edge29_Node000002_Node000026" class="edge">
<title>Node2&#45;&gt;Node26</title>
<g id="a_edge29_Node000002_Node000026"><a xlink:title=" ">
<path fill="none" stroke="#63b8ff" d="M208.12,-285.98C230.05,-278.24 261.76,-265.65 287,-250 308.89,-236.43 330.9,-216.56 345.15,-202.67"/>
<polygon fill="#63b8ff" stroke="#63b8ff" points="347.96,-204.81 352.59,-195.28 343.03,-199.85 347.96,-204.81"/>
</a>
</g>
</g>
<!-- Node6 -->
<g id="Node000006" class="node">
<title>Node6</title>
<g id="a_Node000006"><a xlink:href="../../da/d0e/variable_8hpp.html" target="_top" xlink:title="变量（类型）">
<polygon fill="white" stroke="#666666" points="281.5,-140 204.5,-140 204.5,-121 281.5,-121 281.5,-140"/>
<text text-anchor="middle" x="243" y="-128" font-family="Helvetica,sans-Serif" font-size="10.00">variable.hpp</text>
</a>
</g>
</g>
<!-- Node5&#45;&gt;Node6 -->
<g id="edge5_Node000005_Node000006" class="edge">
<title>Node5&#45;&gt;Node6</title>
<g id="a_edge5_Node000005_Node000006"><a xlink:title=" ">
<path fill="none" stroke="#63b8ff" d="M164.1,-175.98C178.82,-167.69 201.42,-154.94 218.67,-145.22"/>
<polygon fill="#63b8ff" stroke="#63b8ff" points="220.63,-148.13 227.62,-140.17 217.19,-142.03 220.63,-148.13"/>
</a>
</g>
</g>
<!-- Node7 -->
<g id="Node000007" class="node">
<title>Node7</title>
<g id="a_Node000007"><a xlink:title=" ">
<polygon fill="#e0e0e0" stroke="#999999" points="77.5,-85 42.5,-85 42.5,-66 77.5,-66 77.5,-85"/>
<text text-anchor="middle" x="60" y="-73" font-family="Helvetica,sans-Serif" font-size="10.00">any</text>
</a>
</g>
</g>
<!-- Node6&#45;&gt;Node7 -->
<g id="edge6_Node000006_Node000007" class="edge">
<title>Node6&#45;&gt;Node7</title>
<g id="a_edge6_Node000006_Node000007"><a xlink:title=" ">
<path fill="none" stroke="#63b8ff" d="M211.62,-121C181.83,-112.85 135.59,-99.96 87.28,-85.31"/>
<polygon fill="#63b8ff" stroke="#63b8ff" points="88.18,-81.93 77.59,-82.36 86.14,-88.62 88.18,-81.93"/>
</a>
</g>
</g>
<!-- Node8 -->
<g id="Node000008" class="node">
<title>Node8</title>
<g id="a_Node000008"><a xlink:title=" ">
<polygon fill="#e0e0e0" stroke="#999999" points="160.5,-85 95.5,-85 95.5,-66 160.5,-66 160.5,-85"/>
<text text-anchor="middle" x="128" y="-73" font-family="Helvetica,sans-Serif" font-size="10.00">functional</text>
</a>
</g>
</g>
<!-- Node6&#45;&gt;Node8 -->
<g id="edge7_Node000006_Node000008" class="edge">
<title>Node6&#45;&gt;Node8</title>
<g id="a_edge7_Node000006_Node000008"><a xlink:title=" ">
<path fill="none" stroke="#63b8ff" d="M224.52,-120.98C206.02,-112.46 177.32,-99.23 156.02,-89.41"/>
<polygon fill="#63b8ff" stroke="#63b8ff" points="157.36,-86.18 146.81,-85.17 154.43,-92.53 157.36,-86.18"/>
</a>
</g>
</g>
<!-- Node9 -->
<g id="Node000009" class="node">
<title>Node9</title>
<g id="a_Node000009"><a xlink:title=" ">
<polygon fill="#e0e0e0" stroke="#999999" points="237,-85 179,-85 179,-66 237,-66 237,-85"/>
<text text-anchor="middle" x="208" y="-73" font-family="Helvetica,sans-Serif" font-size="10.00">memory</text>
</a>
</g>
</g>
<!-- Node6&#45;&gt;Node9 -->
<g id="edge8_Node000006_Node000009" class="edge">
<title>Node6&#45;&gt;Node9</title>
<g id="a_edge8_Node000006_Node000009"><a xlink:title=" ">
<path fill="none" stroke="#63b8ff" d="M237.22,-120.75C232.38,-113.42 225.32,-102.73 219.36,-93.7"/>
<polygon fill="#63b8ff" stroke="#63b8ff" points="222.1,-91.5 213.67,-85.09 216.26,-95.36 222.1,-91.5"/>
</a>
</g>
</g>
<!-- Node10 -->
<g id="Node000010" class="node">
<title>Node10</title>
<g id="a_Node000010"><a xlink:title=" ">
<polygon fill="#e0e0e0" stroke="#999999" points="300.5,-85 255.5,-85 255.5,-66 300.5,-66 300.5,-85"/>
<text text-anchor="middle" x="278" y="-73" font-family="Helvetica,sans-Serif" font-size="10.00">utility</text>
</a>
</g>
</g>
<!-- Node6&#45;&gt;Node10 -->
<g id="edge9_Node000006_Node000010" class="edge">
<title>Node6&#45;&gt;Node10</title>
<g id="a_edge9_Node000006_Node000010"><a xlink:title=" ">
<path fill="none" stroke="#63b8ff" d="M248.78,-120.75C253.62,-113.42 260.68,-102.73 266.64,-93.7"/>
<polygon fill="#63b8ff" stroke="#63b8ff" points="269.74,-95.36 272.33,-85.09 263.9,-91.5 269.74,-95.36"/>
</a>
</g>
</g>
<!-- Node11 -->
<g id="Node000011" class="node">
<title>Node11</title>
<g id="a_Node000011"><a xlink:href="../../d0/d3f/util_8hpp.html" target="_top" xlink:title=" ">
<polygon fill="white" stroke="#666666" points="421.5,-85 318.5,-85 318.5,-66 421.5,-66 421.5,-85"/>
<text text-anchor="middle" x="370" y="-73" font-family="Helvetica,sans-Serif" font-size="10.00">rmvl/core/util.hpp</text>
</a>
</g>
</g>
<!-- Node6&#45;&gt;Node11 -->
<g id="edge10_Node000006_Node000011" class="edge">
<title>Node6&#45;&gt;Node11</title>
<g id="a_edge10_Node000006_Node000011"><a xlink:title=" ">
<path fill="none" stroke="#63b8ff" d="M263.4,-120.98C284.02,-112.38 316.11,-98.99 339.69,-89.15"/>
<polygon fill="#63b8ff" stroke="#63b8ff" points="341.34,-92.25 349.22,-85.17 338.65,-85.79 341.34,-92.25"/>
</a>
</g>
</g>
<!-- Node17 -->
<g id="Node000017" class="node">
<title>Node17</title>
<g id="a_Node000017"><a xlink:href="../../dc/d5f/utilities_8hpp.html" target="_top" xlink:title=" ">
<polygon fill="white" stroke="#666666" points="689,-85 615,-85 615,-66 689,-66 689,-85"/>
<text text-anchor="middle" x="652" y="-73" font-family="Helvetica,sans-Serif" font-size="10.00">utilities.hpp</text>
</a>
</g>
</g>
<!-- Node6&#45;&gt;Node17 -->
<g id="edge16_Node000006_Node000017" class="edge">
<title>Node6&#45;&gt;Node17</title>
<g id="a_edge16_Node000006_Node000017"><a xlink:title=" ">
<path fill="none" stroke="#63b8ff" d="M281.85,-124.47C357.28,-114.69 523.34,-93.17 604.9,-82.6"/>
<polygon fill="#63b8ff" stroke="#63b8ff" points="605.43,-86.06 614.89,-81.31 604.53,-79.12 605.43,-86.06"/>
</a>
</g>
</g>
<!-- Node12 -->
<g id="Node000012" class="node">
<title>Node12</title>
<g id="a_Node000012"><a xlink:title=" ">
<polygon fill="#e0e0e0" stroke="#999999" points="220.5,-24.5 87.5,-24.5 87.5,-5.5 220.5,-5.5 220.5,-24.5"/>
<text text-anchor="middle" x="154" y="-12.5" font-family="Helvetica,sans-Serif" font-size="10.00">rmvl/rmvl_modules.hpp</text>
</a>
</g>
</g>
<!-- Node11&#45;&gt;Node12 -->
<g id="edge11_Node000011_Node000012" class="edge">
<title>Node11&#45;&gt;Node12</title>
<g id="a_edge11_Node000011_Node000012"><a xlink:title=" ">
<path fill="none" stroke="#63b8ff" d="M338.59,-65.99C300.76,-55.75 237.09,-38.5 195.31,-27.19"/>
<polygon fill="#63b8ff" stroke="#63b8ff" points="196.01,-23.75 185.45,-24.52 194.18,-30.51 196.01,-23.75"/>
</a>
</g>
</g>
<!-- Node13 -->
<g id="Node000013" class="node">
<title>Node13</title>
<g id="a_Node000013"><a xlink:title=" ">
<polygon fill="#e0e0e0" stroke="#999999" points="289,-24.5 239,-24.5 239,-5.5 289,-5.5 289,-24.5"/>
<text text-anchor="middle" x="264" y="-12.5" font-family="Helvetica,sans-Serif" font-size="10.00">cstdint</text>
</a>
</g>
</g>
<!-- Node11&#45;&gt;Node13 -->
<g id="edge12_Node000011_Node000013" class="edge">
<title>Node11&#45;&gt;Node13</title>
<g id="a_edge12_Node000011_Node000013"><a xlink:title=" ">
<path fill="none" stroke="#63b8ff" d="M354.36,-65.87C337.06,-56.32 308.95,-40.81 288.67,-29.62"/>
<polygon fill="#63b8ff" stroke="#63b8ff" points="290.15,-26.43 279.7,-24.67 286.77,-32.56 290.15,-26.43"/>
</a>
</g>
</g>
<!-- Node14 -->
<g id="Node000014" class="node">
<title>Node14</title>
<g id="a_Node000014"><a xlink:title=" ">
<polygon fill="#e0e0e0" stroke="#999999" points="353,-24.5 307,-24.5 307,-5.5 353,-5.5 353,-24.5"/>
<text text-anchor="middle" x="330" y="-12.5" font-family="Helvetica,sans-Serif" font-size="10.00">cstdio</text>
</a>
</g>
</g>
<!-- Node11&#45;&gt;Node14 -->
<g id="edge13_Node000011_Node000014" class="edge">
<title>Node11&#45;&gt;Node14</title>
<g id="a_edge13_Node000011_Node000014"><a xlink:title=" ">
<path fill="none" stroke="#63b8ff" d="M364.1,-65.87C358.25,-57.31 349.13,-43.97 341.79,-33.24"/>
<polygon fill="#63b8ff" stroke="#63b8ff" points="344.46,-30.95 335.93,-24.67 338.68,-34.9 344.46,-30.95"/>
</a>
</g>
</g>
<!-- Node15 -->
<g id="Node000015" class="node">
<title>Node15</title>
<g id="a_Node000015"><a xlink:title=" ">
<polygon fill="#e0e0e0" stroke="#999999" points="508,-24.5 464,-24.5 464,-5.5 508,-5.5 508,-24.5"/>
<text text-anchor="middle" x="486" y="-12.5" font-family="Helvetica,sans-Serif" font-size="10.00">string</text>
</a>
</g>
</g>
<!-- Node11&#45;&gt;Node15 -->
<g id="edge14_Node000011_Node000015" class="edge">
<title>Node11&#45;&gt;Node15</title>
<g id="a_edge14_Node000011_Node000015"><a xlink:title=" ">
<path fill="none" stroke="#63b8ff" d="M387.12,-65.87C406.22,-56.23 437.37,-40.53 459.6,-29.31"/>
<polygon fill="#63b8ff" stroke="#63b8ff" points="461.46,-32.3 468.81,-24.67 458.31,-26.05 461.46,-32.3"/>
</a>
</g>
</g>
<!-- Node16 -->
<g id="Node000016" class="node">
<title>Node16</title>
<g id="a_Node000016"><a xlink:href="../../db/d41/rmvldef_8hpp.html" target="_top" xlink:title=" ">
<polygon fill="white" stroke="#666666" points="446.5,-24.5 371.5,-24.5 371.5,-5.5 446.5,-5.5 446.5,-24.5"/>
<text text-anchor="middle" x="409" y="-12.5" font-family="Helvetica,sans-Serif" font-size="10.00">rmvldef.hpp</text>
</a>
</g>
</g>
<!-- Node11&#45;&gt;Node16 -->
<g id="edge15_Node000011_Node000016" class="edge">
<title>Node11&#45;&gt;Node16</title>
<g id="a_edge15_Node000011_Node000016"><a xlink:title=" ">
<path fill="none" stroke="#63b8ff" d="M375.75,-65.87C381.46,-57.31 390.35,-43.97 397.51,-33.24"/>
<polygon fill="#63b8ff" stroke="#63b8ff" points="400.59,-34.93 403.22,-24.67 394.76,-31.05 400.59,-34.93"/>
</a>
</g>
</g>
<!-- Node17&#45;&gt;Node15 -->
<g id="edge17_Node000017_Node000015" class="edge">
<title>Node17&#45;&gt;Node15</title>
<g id="a_edge17_Node000017_Node000015"><a xlink:title=" ">
<path fill="none" stroke="#63b8ff" d="M623.76,-65.95C596.46,-57.49 554.04,-43.84 518,-30 516.79,-29.54 515.56,-29.05 514.32,-28.55"/>
<polygon fill="#63b8ff" stroke="#63b8ff" points="515.41,-25.21 504.83,-24.58 512.7,-31.67 515.41,-25.21"/>
</a>
</g>
</g>
<!-- Node17&#45;&gt;Node16 -->
<g id="edge24_Node000017_Node000016" class="edge">
<title>Node17&#45;&gt;Node16</title>
<g id="a_edge24_Node000017_Node000016"><a xlink:title=" ">
<path fill="none" stroke="#63b8ff" d="M614.77,-66.94C575.01,-58.67 510.25,-44.63 455,-30 452.03,-29.21 448.96,-28.36 445.89,-27.49"/>
<polygon fill="#63b8ff" stroke="#63b8ff" points="446.73,-24.08 436.15,-24.62 444.76,-30.8 446.73,-24.08"/>
</a>
</g>
</g>
<!-- Node18 -->
<g id="Node000018" class="node">
<title>Node18</title>
<g id="a_Node000018"><a xlink:title=" ">
<polygon fill="#e0e0e0" stroke="#999999" points="976.5,-24.5 903.5,-24.5 903.5,-5.5 976.5,-5.5 976.5,-24.5"/>
<text text-anchor="middle" x="940" y="-12.5" font-family="Helvetica,sans-Serif" font-size="10.00">string_view</text>
</a>
</g>
</g>
<!-- Node17&#45;&gt;Node18 -->
<g id="edge18_Node000017_Node000018" class="edge">
<title>Node17&#45;&gt;Node18</title>
<g id="a_edge18_Node000017_Node000018"><a xlink:title=" ">
<path fill="none" stroke="#63b8ff" d="M689.35,-69.09C737.31,-61.82 822.95,-47.74 895,-30 898.18,-29.22 901.46,-28.34 904.74,-27.41"/>
<polygon fill="#63b8ff" stroke="#63b8ff" points="905.86,-30.73 914.45,-24.53 903.87,-24.02 905.86,-30.73"/>
</a>
</g>
</g>
<!-- Node19 -->
<g id="Node000019" class="node">
<title>Node19</title>
<g id="a_Node000019"><a xlink:title=" ">
<polygon fill="#e0e0e0" stroke="#999999" points="1059.5,-24.5 994.5,-24.5 994.5,-5.5 1059.5,-5.5 1059.5,-24.5"/>
<text text-anchor="middle" x="1027" y="-12.5" font-family="Helvetica,sans-Serif" font-size="10.00">typeindex</text>
</a>
</g>
</g>
<!-- Node17&#45;&gt;Node19 -->
<g id="edge19_Node000017_Node000019" class="edge">
<title>Node17&#45;&gt;Node19</title>
<g id="a_edge19_Node000017_Node000019"><a xlink:title=" ">
<path fill="none" stroke="#63b8ff" d="M689,-71.96C751.07,-67.17 879.79,-54.95 986,-30 988.98,-29.3 992.05,-28.47 995.1,-27.57"/>
<polygon fill="#63b8ff" stroke="#63b8ff" points="996.21,-30.88 1004.68,-24.51 994.08,-24.22 996.21,-30.88"/>
</a>
</g>
</g>
<!-- Node20 -->
<g id="Node000020" class="node">
<title>Node20</title>
<g id="a_Node000020"><a xlink:title=" ">
<polygon fill="#e0e0e0" stroke="#999999" points="1170.5,-24.5 1077.5,-24.5 1077.5,-5.5 1170.5,-5.5 1170.5,-24.5"/>
<text text-anchor="middle" x="1124" y="-12.5" font-family="Helvetica,sans-Serif" font-size="10.00">unordered_map</text>
</a>
</g>
</g>
<!-- Node17&#45;&gt;Node20 -->
<g id="edge20_Node000017_Node000020" class="edge">
<title>Node17&#45;&gt;Node20</title>
<g id="a_edge20_Node000017_Node000020"><a xlink:title=" ">
<path fill="none" stroke="#63b8ff" d="M689.07,-72.33C762.19,-67.65 929.98,-54.98 1069,-30 1073.78,-29.14 1078.76,-28.09 1083.68,-26.96"/>
<polygon fill="#63b8ff" stroke="#63b8ff" points="1084.73,-30.31 1093.62,-24.56 1083.08,-23.51 1084.73,-30.31"/>
</a>
</g>
</g>
<!-- Node21 -->
<g id="Node000021" class="node">
<title>Node21</title>
<g id="a_Node000021"><a xlink:title=" ">
<polygon fill="#e0e0e0" stroke="#999999" points="573.5,-24.5 526.5,-24.5 526.5,-5.5 573.5,-5.5 573.5,-24.5"/>
<text text-anchor="middle" x="550" y="-12.5" font-family="Helvetica,sans-Serif" font-size="10.00">vector</text>
</a>
</g>
</g>
<!-- Node17&#45;&gt;Node21 -->
<g id="edge21_Node000017_Node000021" class="edge">
<title>Node17&#45;&gt;Node21</title>
<g id="a_edge21_Node000017_Node000021"><a xlink:title=" ">
<path fill="none" stroke="#63b8ff" d="M636.95,-65.87C620.38,-56.36 593.5,-40.95 574.01,-29.77"/>
<polygon fill="#63b8ff" stroke="#63b8ff" points="575.53,-26.61 565.11,-24.67 572.05,-32.68 575.53,-26.61"/>
</a>
</g>
</g>
<!-- Node22 -->
<g id="Node000022" class="node">
<title>Node22</title>
<g id="a_Node000022"><a xlink:title=" ">
<polygon fill="#e0e0e0" stroke="#999999" points="712.5,-24.5 591.5,-24.5 591.5,-5.5 712.5,-5.5 712.5,-24.5"/>
<text text-anchor="middle" x="652" y="-12.5" font-family="Helvetica,sans-Serif" font-size="10.00">open62541/nodeids.h</text>
</a>
</g>
</g>
<!-- Node17&#45;&gt;Node22 -->
<g id="edge22_Node000017_Node000022" class="edge">
<title>Node17&#45;&gt;Node22</title>
<g id="a_edge22_Node000017_Node000022"><a xlink:title=" ">
<path fill="none" stroke="#63b8ff" d="M652,-65.87C652,-57.75 652,-45.31 652,-34.89"/>
<polygon fill="#63b8ff" stroke="#63b8ff" points="655.5,-34.67 652,-24.67 648.5,-34.67 655.5,-34.67"/>
</a>
</g>
</g>
<!-- Node23 -->
<g id="Node000023" class="node">
<title>Node23</title>
<g id="a_Node000023"><a xlink:title=" ">
<polygon fill="#e0e0e0" stroke="#999999" points="885.5,-30 730.5,-30 730.5,0 885.5,0 885.5,-30"/>
<text text-anchor="start" x="738.5" y="-18" font-family="Helvetica,sans-Serif" font-size="10.00">open62541/types_generated</text>
<text text-anchor="middle" x="808" y="-7" font-family="Helvetica,sans-Serif" font-size="10.00">_handling.h</text>
</a>
</g>
</g>
<!-- Node17&#45;&gt;Node23 -->
<g id="edge23_Node000017_Node000023" class="edge">
<title>Node17&#45;&gt;Node23</title>
<g id="a_edge23_Node000017_Node000023"><a xlink:title=" ">
<path fill="none" stroke="#63b8ff" d="M674.68,-65.99C697.23,-57.54 732.49,-44.32 761.08,-33.59"/>
<polygon fill="#63b8ff" stroke="#63b8ff" points="762.36,-36.85 770.5,-30.06 759.9,-30.3 762.36,-36.85"/>
</a>
</g>
</g>
<!-- Node24&#45;&gt;Node6 -->
<g id="edge28_Node000024_Node000006" class="edge">
<title>Node24&#45;&gt;Node6</title>
<g id="a_edge28_Node000024_Node000006"><a xlink:title=" ">
<path fill="none" stroke="#63b8ff" d="M240.4,-230.82C236.94,-221.99 231.97,-207.81 230,-195 227.65,-179.69 231.59,-162.48 235.73,-149.84"/>
<polygon fill="#63b8ff" stroke="#63b8ff" points="239.15,-150.67 239.27,-140.08 232.57,-148.29 239.15,-150.67"/>
</a>
</g>
</g>
<!-- Node25 -->
<g id="Node000025" class="node">
<title>Node25</title>
<g id="a_Node000025"><a xlink:href="../../d7/d9c/method_8hpp.html" target="_top" xlink:title="方法节点">
<polygon fill="white" stroke="#666666" points="313.5,-195 238.5,-195 238.5,-176 313.5,-176 313.5,-195"/>
<text text-anchor="middle" x="276" y="-183" font-family="Helvetica,sans-Serif" font-size="10.00">method.hpp</text>
</a>
</g>
</g>
<!-- Node24&#45;&gt;Node25 -->
<g id="edge26_Node000024_Node000025" class="edge">
<title>Node24&#45;&gt;Node25</title>
<g id="a_edge26_Node000024_Node000025"><a xlink:title=" ">
<path fill="none" stroke="#63b8ff" d="M249.28,-230.75C253.71,-223.42 260.16,-212.73 265.62,-203.7"/>
<polygon fill="#63b8ff" stroke="#63b8ff" points="268.64,-205.46 270.81,-195.09 262.65,-201.84 268.64,-205.46"/>
</a>
</g>
</g>
<!-- Node25&#45;&gt;Node6 -->
<g id="edge27_Node000025_Node000006" class="edge">
<title>Node25&#45;&gt;Node6</title>
<g id="a_edge27_Node000025_Node000006"><a xlink:title=" ">
<path fill="none" stroke="#63b8ff" d="M270.55,-175.75C265.99,-168.42 259.33,-157.73 253.71,-148.7"/>
<polygon fill="#63b8ff" stroke="#63b8ff" points="256.6,-146.73 248.35,-140.09 250.66,-150.43 256.6,-146.73"/>
</a>
</g>
</g>
<!-- Node26&#45;&gt;Node6 -->
<g id="edge30_Node000026_Node000006" class="edge">
<title>Node26&#45;&gt;Node6</title>
<g id="a_edge30_Node000026_Node000006"><a xlink:title=" ">
<path fill="none" stroke="#63b8ff" d="M342.04,-175.98C322.97,-167.42 293.34,-154.11 271.45,-144.28"/>
<polygon fill="#63b8ff" stroke="#63b8ff" points="272.86,-141.07 262.3,-140.17 269.99,-147.46 272.86,-141.07"/>
</a>
</g>
</g>
</g>
</svg>
