<?xml version="1.0" encoding="UTF-8" standalone="no"?>
<!DOCTYPE svg PUBLIC "-//W3C//DTD SVG 1.1//EN"
 "http://www.w3.org/Graphics/SVG/1.1/DTD/svg11.dtd">
<!-- Generated by graphviz version 2.43.0 (0)
 -->
<!-- Title: rmvl/opcua/variable.hpp Pages: 1 -->
<svg width="915pt" height="148pt"
 viewBox="0.00 0.00 915.00 148.00" xmlns="http://www.w3.org/2000/svg" xmlns:xlink="http://www.w3.org/1999/xlink">
<g id="graph0" class="graph" transform="scale(1 1) rotate(0) translate(4 144)">
<title>rmvl/opcua/variable.hpp</title>
<!-- Node1 -->
<g id="Node000001" class="node">
<title>Node1</title>
<g id="a_Node000001"><a xlink:title="变量（类型）">
<polygon fill="#999999" stroke="#666666" points="252,-140 117,-140 117,-121 252,-121 252,-140"/>
<text text-anchor="middle" x="184.5" y="-128" font-family="Helvetica,sans-Serif" font-size="10.00">rmvl/opcua/variable.hpp</text>
</a>
</g>
</g>
<!-- Node2 -->
<g id="Node000002" class="node">
<title>Node2</title>
<g id="a_Node000002"><a xlink:title=" ">
<polygon fill="#e0e0e0" stroke="#999999" points="35,-85 0,-85 0,-66 35,-66 35,-85"/>
<text text-anchor="middle" x="17.5" y="-73" font-family="Helvetica,sans-Serif" font-size="10.00">any</text>
</a>
</g>
</g>
<!-- Node1&#45;&gt;Node2 -->
<g id="edge1_Node000001_Node000002" class="edge">
<title>Node1&#45;&gt;Node2</title>
<g id="a_edge1_Node000001_Node000002"><a xlink:title=" ">
<path fill="none" stroke="#63b8ff" d="M157.67,-120.98C126.69,-111.15 76,-95.07 44.82,-85.17"/>
<polygon fill="#63b8ff" stroke="#63b8ff" points="45.63,-81.76 35.04,-82.07 43.52,-88.43 45.63,-81.76"/>
</a>
</g>
</g>
<!-- Node3 -->
<g id="Node000003" class="node">
<title>Node3</title>
<g id="a_Node000003"><a xlink:title=" ">
<polygon fill="#e0e0e0" stroke="#999999" points="111.5,-85 53.5,-85 53.5,-66 111.5,-66 111.5,-85"/>
<text text-anchor="middle" x="82.5" y="-73" font-family="Helvetica,sans-Serif" font-size="10.00">memory</text>
</a>
</g>
</g>
<!-- Node1&#45;&gt;Node3 -->
<g id="edge2_Node000001_Node000003" class="edge">
<title>Node1&#45;&gt;Node3</title>
<g id="a_edge2_Node000001_Node000003"><a xlink:title=" ">
<path fill="none" stroke="#63b8ff" d="M168.11,-120.98C151.93,-112.57 126.93,-99.59 108.12,-89.81"/>
<polygon fill="#63b8ff" stroke="#63b8ff" points="109.67,-86.68 99.19,-85.17 106.45,-92.89 109.67,-86.68"/>
</a>
</g>
</g>
<!-- Node4 -->
<g id="Node000004" class="node">
<title>Node4</title>
<g id="a_Node000004"><a xlink:title=" ">
<polygon fill="#e0e0e0" stroke="#999999" points="175,-85 130,-85 130,-66 175,-66 175,-85"/>
<text text-anchor="middle" x="152.5" y="-73" font-family="Helvetica,sans-Serif" font-size="10.00">utility</text>
</a>
</g>
</g>
<!-- Node1&#45;&gt;Node4 -->
<g id="edge3_Node000001_Node000004" class="edge">
<title>Node1&#45;&gt;Node4</title>
<g id="a_edge3_Node000001_Node000004"><a xlink:title=" ">
<path fill="none" stroke="#63b8ff" d="M179.22,-120.75C174.79,-113.42 168.34,-102.73 162.88,-93.7"/>
<polygon fill="#63b8ff" stroke="#63b8ff" points="165.85,-91.84 157.69,-85.09 159.86,-95.46 165.85,-91.84"/>
</a>
</g>
</g>
<!-- Node5 -->
<g id="Node000005" class="node">
<title>Node5</title>
<g id="a_Node000005"><a xlink:title=" ">
<polygon fill="#e0e0e0" stroke="#999999" points="240,-85 193,-85 193,-66 240,-66 240,-85"/>
<text text-anchor="middle" x="216.5" y="-73" font-family="Helvetica,sans-Serif" font-size="10.00">vector</text>
</a>
</g>
</g>
<!-- Node1&#45;&gt;Node5 -->
<g id="edge4_Node000001_Node000005" class="edge">
<title>Node1&#45;&gt;Node5</title>
<g id="a_edge4_Node000001_Node000005"><a xlink:title=" ">
<path fill="none" stroke="#63b8ff" d="M189.78,-120.75C194.21,-113.42 200.66,-102.73 206.12,-93.7"/>
<polygon fill="#63b8ff" stroke="#63b8ff" points="209.14,-95.46 211.31,-85.09 203.15,-91.84 209.14,-95.46"/>
</a>
</g>
</g>
<!-- Node6 -->
<g id="Node000006" class="node">
<title>Node6</title>
<g id="a_Node000006"><a xlink:href="../../d0/d3f/util_8hpp.html" target="_top" xlink:title=" ">
<polygon fill="white" stroke="#666666" points="361,-85 258,-85 258,-66 361,-66 361,-85"/>
<text text-anchor="middle" x="309.5" y="-73" font-family="Helvetica,sans-Serif" font-size="10.00">rmvl/core/util.hpp</text>
</a>
</g>
</g>
<!-- Node1&#45;&gt;Node6 -->
<g id="edge5_Node000001_Node000006" class="edge">
<title>Node1&#45;&gt;Node6</title>
<g id="a_edge5_Node000001_Node000006"><a xlink:title=" ">
<path fill="none" stroke="#63b8ff" d="M204.58,-120.98C224.87,-112.38 256.46,-98.99 279.67,-89.15"/>
<polygon fill="#63b8ff" stroke="#63b8ff" points="281.21,-92.3 289.05,-85.17 278.48,-85.85 281.21,-92.3"/>
</a>
</g>
</g>
<!-- Node12 -->
<g id="Node000012" class="node">
<title>Node12</title>
<g id="a_Node000012"><a xlink:href="../../dc/d5f/utilities_8hpp.html" target="_top" xlink:title=" ">
<polygon fill="white" stroke="#666666" points="579.5,-85 505.5,-85 505.5,-66 579.5,-66 579.5,-85"/>
<text text-anchor="middle" x="542.5" y="-73" font-family="Helvetica,sans-Serif" font-size="10.00">utilities.hpp</text>
</a>
</g>
</g>
<!-- Node1&#45;&gt;Node12 -->
<g id="edge11_Node000001_Node000012" class="edge">
<title>Node1&#45;&gt;Node12</title>
<g id="a_edge11_Node000001_Node000012"><a xlink:title=" ">
<path fill="none" stroke="#63b8ff" d="M242.02,-120.98C312.37,-110.57 430.14,-93.13 495.39,-83.47"/>
<polygon fill="#63b8ff" stroke="#63b8ff" points="496.01,-86.92 505.39,-81.99 494.99,-80 496.01,-86.92"/>
</a>
</g>
</g>
<!-- Node7 -->
<g id="Node000007" class="node">
<title>Node7</title>
<g id="a_Node000007"><a xlink:title=" ">
<polygon fill="#e0e0e0" stroke="#999999" points="161,-24.5 28,-24.5 28,-5.5 161,-5.5 161,-24.5"/>
<text text-anchor="middle" x="94.5" y="-12.5" font-family="Helvetica,sans-Serif" font-size="10.00">rmvl/rmvl_modules.hpp</text>
</a>
</g>
</g>
<!-- Node6&#45;&gt;Node7 -->
<g id="edge6_Node000006_Node000007" class="edge">
<title>Node6&#45;&gt;Node7</title>
<g id="a_edge6_Node000006_Node000007"><a xlink:title=" ">
<path fill="none" stroke="#63b8ff" d="M278.24,-65.99C240.58,-55.75 177.21,-38.5 135.62,-27.19"/>
<polygon fill="#63b8ff" stroke="#63b8ff" points="136.37,-23.77 125.8,-24.52 134.53,-30.52 136.37,-23.77"/>
</a>
</g>
</g>
<!-- Node8 -->
<g id="Node000008" class="node">
<title>Node8</title>
<g id="a_Node000008"><a xlink:title=" ">
<polygon fill="#e0e0e0" stroke="#999999" points="229.5,-24.5 179.5,-24.5 179.5,-5.5 229.5,-5.5 229.5,-24.5"/>
<text text-anchor="middle" x="204.5" y="-12.5" font-family="Helvetica,sans-Serif" font-size="10.00">cstdint</text>
</a>
</g>
</g>
<!-- Node6&#45;&gt;Node8 -->
<g id="edge7_Node000006_Node000008" class="edge">
<title>Node6&#45;&gt;Node8</title>
<g id="a_edge7_Node000006_Node000008"><a xlink:title=" ">
<path fill="none" stroke="#63b8ff" d="M294.01,-65.87C276.87,-56.32 249.03,-40.81 228.94,-29.62"/>
<polygon fill="#63b8ff" stroke="#63b8ff" points="230.5,-26.48 220.06,-24.67 227.09,-32.59 230.5,-26.48"/>
</a>
</g>
</g>
<!-- Node9 -->
<g id="Node000009" class="node">
<title>Node9</title>
<g id="a_Node000009"><a xlink:title=" ">
<polygon fill="#e0e0e0" stroke="#999999" points="293.5,-24.5 247.5,-24.5 247.5,-5.5 293.5,-5.5 293.5,-24.5"/>
<text text-anchor="middle" x="270.5" y="-12.5" font-family="Helvetica,sans-Serif" font-size="10.00">cstdio</text>
</a>
</g>
</g>
<!-- Node6&#45;&gt;Node9 -->
<g id="edge8_Node000006_Node000009" class="edge">
<title>Node6&#45;&gt;Node9</title>
<g id="a_edge8_Node000006_Node000009"><a xlink:title=" ">
<path fill="none" stroke="#63b8ff" d="M303.75,-65.87C298.04,-57.31 289.15,-43.97 281.99,-33.24"/>
<polygon fill="#63b8ff" stroke="#63b8ff" points="284.74,-31.05 276.28,-24.67 278.91,-34.93 284.74,-31.05"/>
</a>
</g>
</g>
<!-- Node10 -->
<g id="Node000010" class="node">
<title>Node10</title>
<g id="a_Node000010"><a xlink:title=" ">
<polygon fill="#e0e0e0" stroke="#999999" points="448.5,-24.5 404.5,-24.5 404.5,-5.5 448.5,-5.5 448.5,-24.5"/>
<text text-anchor="middle" x="426.5" y="-12.5" font-family="Helvetica,sans-Serif" font-size="10.00">string</text>
</a>
</g>
</g>
<!-- Node6&#45;&gt;Node10 -->
<g id="edge9_Node000006_Node000010" class="edge">
<title>Node6&#45;&gt;Node10</title>
<g id="a_edge9_Node000006_Node000010"><a xlink:title=" ">
<path fill="none" stroke="#63b8ff" d="M326.51,-65.99C345.92,-56.29 377.89,-40.31 400.44,-29.03"/>
<polygon fill="#63b8ff" stroke="#63b8ff" points="402.09,-32.12 409.47,-24.52 398.96,-25.86 402.09,-32.12"/>
</a>
</g>
</g>
<!-- Node11 -->
<g id="Node000011" class="node">
<title>Node11</title>
<g id="a_Node000011"><a xlink:href="../../db/d41/rmvldef_8hpp.html" target="_top" xlink:title=" ">
<polygon fill="white" stroke="#666666" points="387,-24.5 312,-24.5 312,-5.5 387,-5.5 387,-24.5"/>
<text text-anchor="middle" x="349.5" y="-12.5" font-family="Helvetica,sans-Serif" font-size="10.00">rmvldef.hpp</text>
</a>
</g>
</g>
<!-- Node6&#45;&gt;Node11 -->
<g id="edge10_Node000006_Node000011" class="edge">
<title>Node6&#45;&gt;Node11</title>
<g id="a_edge10_Node000006_Node000011"><a xlink:title=" ">
<path fill="none" stroke="#63b8ff" d="M315.4,-65.87C321.25,-57.31 330.37,-43.97 337.71,-33.24"/>
<polygon fill="#63b8ff" stroke="#63b8ff" points="340.82,-34.9 343.57,-24.67 335.04,-30.95 340.82,-34.9"/>
</a>
</g>
</g>
<!-- Node12&#45;&gt;Node10 -->
<g id="edge12_Node000012_Node000010" class="edge">
<title>Node12&#45;&gt;Node10</title>
<g id="a_edge12_Node000012_Node000010"><a xlink:title=" ">
<path fill="none" stroke="#63b8ff" d="M525.38,-65.87C506.28,-56.23 475.13,-40.53 452.9,-29.31"/>
<polygon fill="#63b8ff" stroke="#63b8ff" points="454.19,-26.05 443.69,-24.67 451.04,-32.3 454.19,-26.05"/>
</a>
</g>
</g>
<!-- Node13 -->
<g id="Node000013" class="node">
<title>Node13</title>
<g id="a_Node000013"><a xlink:title=" ">
<polygon fill="#e0e0e0" stroke="#999999" points="532,-24.5 467,-24.5 467,-5.5 532,-5.5 532,-24.5"/>
<text text-anchor="middle" x="499.5" y="-12.5" font-family="Helvetica,sans-Serif" font-size="10.00">typeindex</text>
</a>
</g>
</g>
<!-- Node12&#45;&gt;Node13 -->
<g id="edge13_Node000012_Node000013" class="edge">
<title>Node12&#45;&gt;Node13</title>
<g id="a_edge13_Node000012_Node000013"><a xlink:title=" ">
<path fill="none" stroke="#63b8ff" d="M536.16,-65.87C529.8,-57.23 519.86,-43.7 511.93,-32.92"/>
<polygon fill="#63b8ff" stroke="#63b8ff" points="514.61,-30.65 505.87,-24.67 508.97,-34.8 514.61,-30.65"/>
</a>
</g>
</g>
<!-- Node14 -->
<g id="Node000014" class="node">
<title>Node14</title>
<g id="a_Node000014"><a xlink:title=" ">
<polygon fill="#e0e0e0" stroke="#999999" points="623,-24.5 550,-24.5 550,-5.5 623,-5.5 623,-24.5"/>
<text text-anchor="middle" x="586.5" y="-12.5" font-family="Helvetica,sans-Serif" font-size="10.00">string_view</text>
</a>
</g>
</g>
<!-- Node12&#45;&gt;Node14 -->
<g id="edge14_Node000012_Node000014" class="edge">
<title>Node12&#45;&gt;Node14</title>
<g id="a_edge14_Node000012_Node000014"><a xlink:title=" ">
<path fill="none" stroke="#63b8ff" d="M548.99,-65.87C555.49,-57.23 565.66,-43.7 573.78,-32.92"/>
<polygon fill="#63b8ff" stroke="#63b8ff" points="576.77,-34.76 579.98,-24.67 571.17,-30.56 576.77,-34.76"/>
</a>
</g>
</g>
<!-- Node15 -->
<g id="Node000015" class="node">
<title>Node15</title>
<g id="a_Node000015"><a xlink:title=" ">
<polygon fill="#e0e0e0" stroke="#999999" points="734,-24.5 641,-24.5 641,-5.5 734,-5.5 734,-24.5"/>
<text text-anchor="middle" x="687.5" y="-12.5" font-family="Helvetica,sans-Serif" font-size="10.00">unordered_map</text>
</a>
</g>
</g>
<!-- Node12&#45;&gt;Node15 -->
<g id="edge15_Node000012_Node000015" class="edge">
<title>Node12&#45;&gt;Node15</title>
<g id="a_edge15_Node000012_Node000015"><a xlink:title=" ">
<path fill="none" stroke="#63b8ff" d="M563.58,-65.99C588.18,-56.07 629.03,-39.59 657.06,-28.28"/>
<polygon fill="#63b8ff" stroke="#63b8ff" points="658.43,-31.5 666.39,-24.52 655.81,-25.01 658.43,-31.5"/>
</a>
</g>
</g>
<!-- Node16 -->
<g id="Node000016" class="node">
<title>Node16</title>
<g id="a_Node000016"><a xlink:title=" ">
<polygon fill="#e0e0e0" stroke="#999999" points="907,-30 752,-30 752,0 907,0 907,-30"/>
<text text-anchor="start" x="760" y="-18" font-family="Helvetica,sans-Serif" font-size="10.00">open62541/types_generated</text>
<text text-anchor="middle" x="829.5" y="-7" font-family="Helvetica,sans-Serif" font-size="10.00">_handling.h</text>
</a>
</g>
</g>
<!-- Node12&#45;&gt;Node16 -->
<g id="edge16_Node000012_Node000016" class="edge">
<title>Node12&#45;&gt;Node16</title>
<g id="a_edge16_Node000012_Node000016"><a xlink:title=" ">
<path fill="none" stroke="#63b8ff" d="M579.73,-66.91C622.86,-58.12 695.15,-43.38 750.89,-32.02"/>
<polygon fill="#63b8ff" stroke="#63b8ff" points="751.65,-35.44 760.75,-30.01 750.25,-28.58 751.65,-35.44"/>
</a>
</g>
</g>
</g>
</svg>
