<?xml version="1.0" encoding="UTF-8" standalone="no"?>
<!DOCTYPE svg PUBLIC "-//W3C//DTD SVG 1.1//EN"
 "http://www.w3.org/Graphics/SVG/1.1/DTD/svg11.dtd">
<!-- Generated by graphviz version 2.43.0 (0)
 -->
<!-- Title: rmvl/predictor/rune_predictor.h Pages: 1 -->
<svg width="1097pt" height="478pt"
 viewBox="0.00 0.00 1097.00 478.00" xmlns="http://www.w3.org/2000/svg" xmlns:xlink="http://www.w3.org/1999/xlink">
<g id="graph0" class="graph" transform="scale(1 1) rotate(0) translate(4 474)">
<title>rmvl/predictor/rune_predictor.h</title>
<!-- Node1 -->
<g id="Node000001" class="node">
<title>Node1</title>
<g id="a_Node000001"><a xlink:title="神符预测派生类头文件">
<polygon fill="#999999" stroke="#666666" points="748.5,-470 638.5,-470 638.5,-440 748.5,-440 748.5,-470"/>
<text text-anchor="start" x="646.5" y="-458" font-family="Helvetica,sans-Serif" font-size="10.00">rmvl/predictor/rune</text>
<text text-anchor="middle" x="693.5" y="-447" font-family="Helvetica,sans-Serif" font-size="10.00">_predictor.h</text>
</a>
</g>
</g>
<!-- Node2 -->
<g id="Node000002" class="node">
<title>Node2</title>
<g id="a_Node000002"><a xlink:title=" ">
<polygon fill="#e0e0e0" stroke="#999999" points="824,-129 777,-129 777,-110 824,-110 824,-129"/>
<text text-anchor="middle" x="800.5" y="-117" font-family="Helvetica,sans-Serif" font-size="10.00">vector</text>
</a>
</g>
</g>
<!-- Node1&#45;&gt;Node2 -->
<g id="edge1_Node000001_Node000002" class="edge">
<title>Node1&#45;&gt;Node2</title>
<g id="a_edge1_Node000001_Node000002"><a xlink:title=" ">
<path fill="none" stroke="#63b8ff" d="M711.98,-439.67C735.05,-420.02 771.5,-382.34 771.5,-340.5 771.5,-340.5 771.5,-340.5 771.5,-228.5 771.5,-195.95 783.94,-159.71 792.53,-138.57"/>
<polygon fill="#63b8ff" stroke="#63b8ff" points="795.8,-139.82 796.47,-129.25 789.35,-137.09 795.8,-139.82"/>
</a>
</g>
</g>
<!-- Node3 -->
<g id="Node000003" class="node">
<title>Node3</title>
<g id="a_Node000003"><a xlink:href="../../dc/d08/predictor_8h.html" target="_top" xlink:title="抽象预测类头文件">
<polygon fill="white" stroke="#666666" points="683.5,-404 615.5,-404 615.5,-385 683.5,-385 683.5,-404"/>
<text text-anchor="middle" x="649.5" y="-392" font-family="Helvetica,sans-Serif" font-size="10.00">predictor.h</text>
</a>
</g>
</g>
<!-- Node1&#45;&gt;Node3 -->
<g id="edge2_Node000001_Node000003" class="edge">
<title>Node1&#45;&gt;Node3</title>
<g id="a_edge2_Node000001_Node000003"><a xlink:title=" ">
<path fill="none" stroke="#63b8ff" d="M682.85,-439.84C676.66,-431.61 668.81,-421.18 662.29,-412.51"/>
<polygon fill="#63b8ff" stroke="#63b8ff" points="664.9,-410.15 656.09,-404.27 659.31,-414.36 664.9,-410.15"/>
</a>
</g>
</g>
<!-- Node4 -->
<g id="Node000004" class="node">
<title>Node4</title>
<g id="a_Node000004"><a xlink:title=" ">
<polygon fill="#e0e0e0" stroke="#999999" points="93,-129 0,-129 0,-110 93,-110 93,-129"/>
<text text-anchor="middle" x="46.5" y="-117" font-family="Helvetica,sans-Serif" font-size="10.00">unordered_map</text>
</a>
</g>
</g>
<!-- Node3&#45;&gt;Node4 -->
<g id="edge3_Node000003_Node000004" class="edge">
<title>Node3&#45;&gt;Node4</title>
<g id="a_edge3_Node000003_Node000004"><a xlink:title=" ">
<path fill="none" stroke="#63b8ff" d="M615.37,-394.2C494.01,-395.79 90.5,-392.99 90.5,-285.5 90.5,-285.5 90.5,-285.5 90.5,-228.5 90.5,-194.42 71.47,-158.46 58.44,-137.83"/>
<polygon fill="#63b8ff" stroke="#63b8ff" points="61.22,-135.68 52.8,-129.25 55.37,-139.53 61.22,-135.68"/>
</a>
</g>
</g>
<!-- Node5 -->
<g id="Node000005" class="node">
<title>Node5</title>
<g id="a_Node000005"><a xlink:href="../../d9/dd1/group_8h.html" target="_top" xlink:title="序列组抽象头文件">
<polygon fill="white" stroke="#666666" points="704.5,-349 594.5,-349 594.5,-330 704.5,-330 704.5,-349"/>
<text text-anchor="middle" x="649.5" y="-337" font-family="Helvetica,sans-Serif" font-size="10.00">rmvl/group/group.h</text>
</a>
</g>
</g>
<!-- Node3&#45;&gt;Node5 -->
<g id="edge4_Node000003_Node000005" class="edge">
<title>Node3&#45;&gt;Node5</title>
<g id="a_edge4_Node000003_Node000005"><a xlink:title=" ">
<path fill="none" stroke="#63b8ff" d="M649.5,-384.75C649.5,-377.8 649.5,-367.85 649.5,-359.13"/>
<polygon fill="#63b8ff" stroke="#63b8ff" points="653,-359.09 649.5,-349.09 646,-359.09 653,-359.09"/>
</a>
</g>
</g>
<!-- Node6 -->
<g id="Node000006" class="node">
<title>Node6</title>
<g id="a_Node000006"><a xlink:href="../../dc/ded/tracker_8h.html" target="_top" xlink:title="追踪器抽象头文件">
<polygon fill="white" stroke="#666666" points="710,-294 589,-294 589,-275 710,-275 710,-294"/>
<text text-anchor="middle" x="649.5" y="-282" font-family="Helvetica,sans-Serif" font-size="10.00">rmvl/tracker/tracker.h</text>
</a>
</g>
</g>
<!-- Node5&#45;&gt;Node6 -->
<g id="edge5_Node000005_Node000006" class="edge">
<title>Node5&#45;&gt;Node6</title>
<g id="a_edge5_Node000005_Node000006"><a xlink:title=" ">
<path fill="none" stroke="#63b8ff" d="M649.5,-329.75C649.5,-322.8 649.5,-312.85 649.5,-304.13"/>
<polygon fill="#63b8ff" stroke="#63b8ff" points="653,-304.09 649.5,-294.09 646,-304.09 653,-304.09"/>
</a>
</g>
</g>
<!-- Node7 -->
<g id="Node000007" class="node">
<title>Node7</title>
<g id="a_Node000007"><a xlink:title=" ">
<polygon fill="#e0e0e0" stroke="#999999" points="741,-239 694,-239 694,-220 741,-220 741,-239"/>
<text text-anchor="middle" x="717.5" y="-227" font-family="Helvetica,sans-Serif" font-size="10.00">deque</text>
</a>
</g>
</g>
<!-- Node6&#45;&gt;Node7 -->
<g id="edge6_Node000006_Node000007" class="edge">
<title>Node6&#45;&gt;Node7</title>
<g id="a_edge6_Node000006_Node000007"><a xlink:title=" ">
<path fill="none" stroke="#63b8ff" d="M660.43,-274.98C670.58,-267.07 685.92,-255.11 698.15,-245.58"/>
<polygon fill="#63b8ff" stroke="#63b8ff" points="700.64,-248.08 706.38,-239.17 696.34,-242.56 700.64,-248.08"/>
</a>
</g>
</g>
<!-- Node8 -->
<g id="Node000008" class="node">
<title>Node8</title>
<g id="a_Node000008"><a xlink:href="../../d8/d36/combo_8h.html" target="_top" xlink:title="the combination of the features header file">
<polygon fill="white" stroke="#666666" points="675.5,-239 555.5,-239 555.5,-220 675.5,-220 675.5,-239"/>
<text text-anchor="middle" x="615.5" y="-227" font-family="Helvetica,sans-Serif" font-size="10.00">rmvl/combo/combo.h</text>
</a>
</g>
</g>
<!-- Node6&#45;&gt;Node8 -->
<g id="edge7_Node000006_Node000008" class="edge">
<title>Node6&#45;&gt;Node8</title>
<g id="a_edge7_Node000006_Node000008"><a xlink:title=" ">
<path fill="none" stroke="#63b8ff" d="M643.89,-274.75C639.18,-267.42 632.33,-256.73 626.53,-247.7"/>
<polygon fill="#63b8ff" stroke="#63b8ff" points="629.36,-245.62 621.01,-239.09 623.46,-249.4 629.36,-245.62"/>
</a>
</g>
</g>
<!-- Node9 -->
<g id="Node000009" class="node">
<title>Node9</title>
<g id="a_Node000009"><a xlink:href="../../d3/d7e/camutils_8hpp.html" target="_top" xlink:title=" ">
<polygon fill="white" stroke="#666666" points="1089,-184 944,-184 944,-165 1089,-165 1089,-184"/>
<text text-anchor="middle" x="1016.5" y="-172" font-family="Helvetica,sans-Serif" font-size="10.00">rmvl/camera/camutils.hpp</text>
</a>
</g>
</g>
<!-- Node8&#45;&gt;Node9 -->
<g id="edge8_Node000008_Node000009" class="edge">
<title>Node8&#45;&gt;Node9</title>
<g id="a_edge8_Node000008_Node000009"><a xlink:title=" ">
<path fill="none" stroke="#63b8ff" d="M675.53,-220.57C746.63,-211.17 865.07,-195.51 941.97,-185.35"/>
<polygon fill="#63b8ff" stroke="#63b8ff" points="942.61,-188.8 952.07,-184.02 941.69,-181.86 942.61,-188.8"/>
</a>
</g>
</g>
<!-- Node11 -->
<g id="Node000011" class="node">
<title>Node11</title>
<g id="a_Node000011"><a xlink:href="../../dc/d71/uty__math_8hpp.html" target="_top" xlink:title=" ">
<polygon fill="white" stroke="#666666" points="346.5,-184 204.5,-184 204.5,-165 346.5,-165 346.5,-184"/>
<text text-anchor="middle" x="275.5" y="-172" font-family="Helvetica,sans-Serif" font-size="10.00">rmvl/rmath/uty_math.hpp</text>
</a>
</g>
</g>
<!-- Node8&#45;&gt;Node11 -->
<g id="edge10_Node000008_Node000011" class="edge">
<title>Node8&#45;&gt;Node11</title>
<g id="a_edge10_Node000008_Node000011"><a xlink:title=" ">
<path fill="none" stroke="#63b8ff" d="M560.87,-219.98C500.74,-210.61 404.13,-195.55 340.24,-185.59"/>
<polygon fill="#63b8ff" stroke="#63b8ff" points="340.69,-182.12 330.27,-184.04 339.61,-189.04 340.69,-182.12"/>
</a>
</g>
</g>
<!-- Node21 -->
<g id="Node000021" class="node">
<title>Node21</title>
<g id="a_Node000021"><a xlink:href="../../dd/de3/types_8hpp.html" target="_top" xlink:title="常用状态类型定义">
<polygon fill="white" stroke="#666666" points="530.5,-129 440.5,-129 440.5,-110 530.5,-110 530.5,-129"/>
<text text-anchor="middle" x="485.5" y="-117" font-family="Helvetica,sans-Serif" font-size="10.00">rmvl/types.hpp</text>
</a>
</g>
</g>
<!-- Node8&#45;&gt;Node21 -->
<g id="edge21_Node000008_Node000021" class="edge">
<title>Node8&#45;&gt;Node21</title>
<g id="a_edge21_Node000008_Node000021"><a xlink:title=" ">
<path fill="none" stroke="#63b8ff" d="M598.91,-219.97C583.73,-211.78 561.04,-198.54 543.5,-184 526.34,-169.77 509.47,-150.54 498.38,-136.99"/>
<polygon fill="#63b8ff" stroke="#63b8ff" points="500.98,-134.62 491.99,-129 495.51,-139 500.98,-134.62"/>
</a>
</g>
</g>
<!-- Node22 -->
<g id="Node000022" class="node">
<title>Node22</title>
<g id="a_Node000022"><a xlink:href="../../d5/d60/dataio_8hpp.html" target="_top" xlink:title="陀螺仪数据">
<polygon fill="white" stroke="#666666" points="920.5,-184 802.5,-184 802.5,-165 920.5,-165 920.5,-184"/>
<text text-anchor="middle" x="861.5" y="-172" font-family="Helvetica,sans-Serif" font-size="10.00">rmvl/core/dataio.hpp</text>
</a>
</g>
</g>
<!-- Node8&#45;&gt;Node22 -->
<g id="edge23_Node000008_Node000022" class="edge">
<title>Node8&#45;&gt;Node22</title>
<g id="a_edge23_Node000008_Node000022"><a xlink:title=" ">
<path fill="none" stroke="#63b8ff" d="M655.02,-219.98C697.67,-210.8 765.65,-196.15 811.86,-186.19"/>
<polygon fill="#63b8ff" stroke="#63b8ff" points="812.63,-189.61 821.67,-184.08 811.15,-182.77 812.63,-189.61"/>
</a>
</g>
</g>
<!-- Node25 -->
<g id="Node000025" class="node">
<title>Node25</title>
<g id="a_Node000025"><a xlink:href="../../d2/d74/feature_8h.html" target="_top" xlink:title="feature class header">
<polygon fill="white" stroke="#666666" points="678,-184 553,-184 553,-165 678,-165 678,-184"/>
<text text-anchor="middle" x="615.5" y="-172" font-family="Helvetica,sans-Serif" font-size="10.00">rmvl/feature/feature.h</text>
</a>
</g>
</g>
<!-- Node8&#45;&gt;Node25 -->
<g id="edge27_Node000008_Node000025" class="edge">
<title>Node8&#45;&gt;Node25</title>
<g id="a_edge27_Node000008_Node000025"><a xlink:title=" ">
<path fill="none" stroke="#63b8ff" d="M615.5,-219.75C615.5,-212.8 615.5,-202.85 615.5,-194.13"/>
<polygon fill="#63b8ff" stroke="#63b8ff" points="619,-194.09 615.5,-184.09 612,-194.09 619,-194.09"/>
</a>
</g>
</g>
<!-- Node10 -->
<g id="Node000010" class="node">
<title>Node10</title>
<g id="a_Node000010"><a xlink:title=" ">
<polygon fill="#e0e0e0" stroke="#999999" points="1072,-129 969,-129 969,-110 1072,-110 1072,-129"/>
<text text-anchor="middle" x="1020.5" y="-117" font-family="Helvetica,sans-Serif" font-size="10.00">opencv2/core.hpp</text>
</a>
</g>
</g>
<!-- Node9&#45;&gt;Node10 -->
<g id="edge9_Node000009_Node000010" class="edge">
<title>Node9&#45;&gt;Node10</title>
<g id="a_edge9_Node000009_Node000010"><a xlink:title=" ">
<path fill="none" stroke="#63b8ff" d="M1017.16,-164.75C1017.68,-157.8 1018.44,-147.85 1019.09,-139.13"/>
<polygon fill="#63b8ff" stroke="#63b8ff" points="1022.59,-139.32 1019.85,-129.09 1015.61,-138.8 1022.59,-139.32"/>
</a>
</g>
</g>
<!-- Node11&#45;&gt;Node4 -->
<g id="edge12_Node000011_Node000004" class="edge">
<title>Node11&#45;&gt;Node4</title>
<g id="a_edge12_Node000011_Node000004"><a xlink:title=" ">
<path fill="none" stroke="#63b8ff" d="M238.71,-164.98C199.26,-155.86 136.52,-141.33 93.52,-131.38"/>
<polygon fill="#63b8ff" stroke="#63b8ff" points="94.11,-127.93 83.58,-129.08 92.53,-134.75 94.11,-127.93"/>
</a>
</g>
</g>
<!-- Node12 -->
<g id="Node000012" class="node">
<title>Node12</title>
<g id="a_Node000012"><a xlink:title=" ">
<polygon fill="#e0e0e0" stroke="#999999" points="158,-129 111,-129 111,-110 158,-110 158,-129"/>
<text text-anchor="middle" x="134.5" y="-117" font-family="Helvetica,sans-Serif" font-size="10.00">cmath</text>
</a>
</g>
</g>
<!-- Node11&#45;&gt;Node12 -->
<g id="edge11_Node000011_Node000012" class="edge">
<title>Node11&#45;&gt;Node12</title>
<g id="a_edge11_Node000011_Node000012"><a xlink:title=" ">
<path fill="none" stroke="#63b8ff" d="M252.85,-164.98C229.65,-156.27 193.38,-142.63 167.1,-132.75"/>
<polygon fill="#63b8ff" stroke="#63b8ff" points="168.16,-129.41 157.57,-129.17 165.7,-135.97 168.16,-129.41"/>
</a>
</g>
</g>
<!-- Node13 -->
<g id="Node000013" class="node">
<title>Node13</title>
<g id="a_Node000013"><a xlink:title=" ">
<polygon fill="#e0e0e0" stroke="#999999" points="235,-129 176,-129 176,-110 235,-110 235,-129"/>
<text text-anchor="middle" x="205.5" y="-117" font-family="Helvetica,sans-Serif" font-size="10.00">numbers</text>
</a>
</g>
</g>
<!-- Node11&#45;&gt;Node13 -->
<g id="edge13_Node000011_Node000013" class="edge">
<title>Node11&#45;&gt;Node13</title>
<g id="a_edge13_Node000011_Node000013"><a xlink:title=" ">
<path fill="none" stroke="#63b8ff" d="M264.25,-164.98C253.7,-157 237.7,-144.88 225.06,-135.31"/>
<polygon fill="#63b8ff" stroke="#63b8ff" points="227.04,-132.42 216.95,-129.17 222.81,-138 227.04,-132.42"/>
</a>
</g>
</g>
<!-- Node14 -->
<g id="Node000014" class="node">
<title>Node14</title>
<g id="a_Node000014"><a xlink:title=" ">
<polygon fill="#e0e0e0" stroke="#999999" points="384,-129 253,-129 253,-110 384,-110 384,-129"/>
<text text-anchor="middle" x="318.5" y="-117" font-family="Helvetica,sans-Serif" font-size="10.00">opencv2/core/matx.hpp</text>
</a>
</g>
</g>
<!-- Node11&#45;&gt;Node14 -->
<g id="edge14_Node000011_Node000014" class="edge">
<title>Node11&#45;&gt;Node14</title>
<g id="a_edge14_Node000011_Node000014"><a xlink:title=" ">
<path fill="none" stroke="#63b8ff" d="M282.6,-164.75C288.67,-157.26 297.59,-146.28 305.01,-137.13"/>
<polygon fill="#63b8ff" stroke="#63b8ff" points="307.95,-139.06 311.53,-129.09 302.51,-134.65 307.95,-139.06"/>
</a>
</g>
</g>
<!-- Node15 -->
<g id="Node000015" class="node">
<title>Node15</title>
<g id="a_Node000015"><a xlink:href="../../d0/d3f/util_8hpp.html" target="_top" xlink:title=" ">
<polygon fill="white" stroke="#666666" points="500,-74 397,-74 397,-55 500,-55 500,-74"/>
<text text-anchor="middle" x="448.5" y="-62" font-family="Helvetica,sans-Serif" font-size="10.00">rmvl/core/util.hpp</text>
</a>
</g>
</g>
<!-- Node11&#45;&gt;Node15 -->
<g id="edge15_Node000011_Node000015" class="edge">
<title>Node11&#45;&gt;Node15</title>
<g id="a_edge15_Node000011_Node000015"><a xlink:title=" ">
<path fill="none" stroke="#63b8ff" d="M310.65,-164.96C335.08,-157.92 367.58,-146.26 392.5,-129 410.74,-116.37 426.94,-96.56 437.16,-82.42"/>
<polygon fill="#63b8ff" stroke="#63b8ff" points="440.13,-84.29 442.98,-74.09 434.39,-80.29 440.13,-84.29"/>
</a>
</g>
</g>
<!-- Node16 -->
<g id="Node000016" class="node">
<title>Node16</title>
<g id="a_Node000016"><a xlink:title=" ">
<polygon fill="#e0e0e0" stroke="#999999" points="339,-19 206,-19 206,0 339,0 339,-19"/>
<text text-anchor="middle" x="272.5" y="-7" font-family="Helvetica,sans-Serif" font-size="10.00">rmvl/rmvl_modules.hpp</text>
</a>
</g>
</g>
<!-- Node15&#45;&gt;Node16 -->
<g id="edge16_Node000015_Node000016" class="edge">
<title>Node15&#45;&gt;Node16</title>
<g id="a_edge16_Node000015_Node000016"><a xlink:title=" ">
<path fill="none" stroke="#63b8ff" d="M420.22,-54.98C390.55,-46.05 343.71,-31.94 310.75,-22.02"/>
<polygon fill="#63b8ff" stroke="#63b8ff" points="311.58,-18.61 301,-19.08 309.57,-25.32 311.58,-18.61"/>
</a>
</g>
</g>
<!-- Node17 -->
<g id="Node000017" class="node">
<title>Node17</title>
<g id="a_Node000017"><a xlink:title=" ">
<polygon fill="#e0e0e0" stroke="#999999" points="407.5,-19 357.5,-19 357.5,0 407.5,0 407.5,-19"/>
<text text-anchor="middle" x="382.5" y="-7" font-family="Helvetica,sans-Serif" font-size="10.00">cstdint</text>
</a>
</g>
</g>
<!-- Node15&#45;&gt;Node17 -->
<g id="edge17_Node000015_Node000017" class="edge">
<title>Node15&#45;&gt;Node17</title>
<g id="a_edge17_Node000015_Node000017"><a xlink:title=" ">
<path fill="none" stroke="#63b8ff" d="M437.9,-54.98C428.04,-47.07 413.15,-35.11 401.28,-25.58"/>
<polygon fill="#63b8ff" stroke="#63b8ff" points="403.29,-22.7 393.3,-19.17 398.9,-28.16 403.29,-22.7"/>
</a>
</g>
</g>
<!-- Node18 -->
<g id="Node000018" class="node">
<title>Node18</title>
<g id="a_Node000018"><a xlink:title=" ">
<polygon fill="#e0e0e0" stroke="#999999" points="471.5,-19 425.5,-19 425.5,0 471.5,0 471.5,-19"/>
<text text-anchor="middle" x="448.5" y="-7" font-family="Helvetica,sans-Serif" font-size="10.00">cstdio</text>
</a>
</g>
</g>
<!-- Node15&#45;&gt;Node18 -->
<g id="edge18_Node000015_Node000018" class="edge">
<title>Node15&#45;&gt;Node18</title>
<g id="a_edge18_Node000015_Node000018"><a xlink:title=" ">
<path fill="none" stroke="#63b8ff" d="M448.5,-54.75C448.5,-47.8 448.5,-37.85 448.5,-29.13"/>
<polygon fill="#63b8ff" stroke="#63b8ff" points="452,-29.09 448.5,-19.09 445,-29.09 452,-29.09"/>
</a>
</g>
</g>
<!-- Node19 -->
<g id="Node000019" class="node">
<title>Node19</title>
<g id="a_Node000019"><a xlink:title=" ">
<polygon fill="#e0e0e0" stroke="#999999" points="533.5,-19 489.5,-19 489.5,0 533.5,0 533.5,-19"/>
<text text-anchor="middle" x="511.5" y="-7" font-family="Helvetica,sans-Serif" font-size="10.00">string</text>
</a>
</g>
</g>
<!-- Node15&#45;&gt;Node19 -->
<g id="edge19_Node000015_Node000019" class="edge">
<title>Node15&#45;&gt;Node19</title>
<g id="a_edge19_Node000015_Node000019"><a xlink:title=" ">
<path fill="none" stroke="#63b8ff" d="M458.62,-54.98C467.94,-47.15 481.97,-35.34 493.24,-25.86"/>
<polygon fill="#63b8ff" stroke="#63b8ff" points="495.79,-28.29 501.19,-19.17 491.29,-22.93 495.79,-28.29"/>
</a>
</g>
</g>
<!-- Node20 -->
<g id="Node000020" class="node">
<title>Node20</title>
<g id="a_Node000020"><a xlink:href="../../db/d41/rmvldef_8hpp.html" target="_top" xlink:title=" ">
<polygon fill="white" stroke="#666666" points="627,-19 552,-19 552,0 627,0 627,-19"/>
<text text-anchor="middle" x="589.5" y="-7" font-family="Helvetica,sans-Serif" font-size="10.00">rmvldef.hpp</text>
</a>
</g>
</g>
<!-- Node15&#45;&gt;Node20 -->
<g id="edge20_Node000015_Node000020" class="edge">
<title>Node15&#45;&gt;Node20</title>
<g id="a_edge20_Node000015_Node000020"><a xlink:title=" ">
<path fill="none" stroke="#63b8ff" d="M471.15,-54.98C494.35,-46.27 530.62,-32.63 556.9,-22.75"/>
<polygon fill="#63b8ff" stroke="#63b8ff" points="558.3,-25.97 566.43,-19.17 555.84,-19.41 558.3,-25.97"/>
</a>
</g>
</g>
<!-- Node21&#45;&gt;Node15 -->
<g id="edge22_Node000021_Node000015" class="edge">
<title>Node21&#45;&gt;Node15</title>
<g id="a_edge22_Node000021_Node000015"><a xlink:title=" ">
<path fill="none" stroke="#63b8ff" d="M479.39,-109.75C474.22,-102.34 466.65,-91.5 460.31,-82.41"/>
<polygon fill="#63b8ff" stroke="#63b8ff" points="463.09,-80.29 454.5,-74.09 457.35,-84.29 463.09,-80.29"/>
</a>
</g>
</g>
<!-- Node22&#45;&gt;Node2 -->
<g id="edge26_Node000022_Node000002" class="edge">
<title>Node22&#45;&gt;Node2</title>
<g id="a_edge26_Node000022_Node000002"><a xlink:title=" ">
<path fill="none" stroke="#63b8ff" d="M851.7,-164.98C842.68,-157.15 829.09,-145.34 818.18,-135.86"/>
<polygon fill="#63b8ff" stroke="#63b8ff" points="820.32,-133.09 810.48,-129.17 815.73,-138.37 820.32,-133.09"/>
</a>
</g>
</g>
<!-- Node23 -->
<g id="Node000023" class="node">
<title>Node23</title>
<g id="a_Node000023"><a xlink:title=" ">
<polygon fill="#e0e0e0" stroke="#999999" points="884.5,-129 842.5,-129 842.5,-110 884.5,-110 884.5,-129"/>
<text text-anchor="middle" x="863.5" y="-117" font-family="Helvetica,sans-Serif" font-size="10.00">array</text>
</a>
</g>
</g>
<!-- Node22&#45;&gt;Node23 -->
<g id="edge24_Node000022_Node000023" class="edge">
<title>Node22&#45;&gt;Node23</title>
<g id="a_edge24_Node000022_Node000023"><a xlink:title=" ">
<path fill="none" stroke="#63b8ff" d="M861.83,-164.75C862.09,-157.8 862.47,-147.85 862.8,-139.13"/>
<polygon fill="#63b8ff" stroke="#63b8ff" points="866.3,-139.21 863.18,-129.09 859.3,-138.95 866.3,-139.21"/>
</a>
</g>
</g>
<!-- Node24 -->
<g id="Node000024" class="node">
<title>Node24</title>
<g id="a_Node000024"><a xlink:title=" ">
<polygon fill="#e0e0e0" stroke="#999999" points="950.5,-129 902.5,-129 902.5,-110 950.5,-110 950.5,-129"/>
<text text-anchor="middle" x="926.5" y="-117" font-family="Helvetica,sans-Serif" font-size="10.00">iosfwd</text>
</a>
</g>
</g>
<!-- Node22&#45;&gt;Node24 -->
<g id="edge25_Node000022_Node000024" class="edge">
<title>Node22&#45;&gt;Node24</title>
<g id="a_edge25_Node000022_Node000024"><a xlink:title=" ">
<path fill="none" stroke="#63b8ff" d="M871.94,-164.98C881.65,-157.07 896.32,-145.11 908,-135.58"/>
<polygon fill="#63b8ff" stroke="#63b8ff" points="910.33,-138.2 915.87,-129.17 905.9,-132.78 910.33,-138.2"/>
</a>
</g>
</g>
<!-- Node25&#45;&gt;Node21 -->
<g id="edge30_Node000025_Node000021" class="edge">
<title>Node25&#45;&gt;Node21</title>
<g id="a_edge30_Node000025_Node000021"><a xlink:title=" ">
<path fill="none" stroke="#63b8ff" d="M594.61,-164.98C573.42,-156.34 540.37,-142.87 516.2,-133.02"/>
<polygon fill="#63b8ff" stroke="#63b8ff" points="517.35,-129.7 506.77,-129.17 514.71,-136.19 517.35,-129.7"/>
</a>
</g>
</g>
<!-- Node26 -->
<g id="Node000026" class="node">
<title>Node26</title>
<g id="a_Node000026"><a xlink:title=" ">
<polygon fill="#e0e0e0" stroke="#999999" points="758.5,-129 700.5,-129 700.5,-110 758.5,-110 758.5,-129"/>
<text text-anchor="middle" x="729.5" y="-117" font-family="Helvetica,sans-Serif" font-size="10.00">memory</text>
</a>
</g>
</g>
<!-- Node25&#45;&gt;Node26 -->
<g id="edge28_Node000025_Node000026" class="edge">
<title>Node25&#45;&gt;Node26</title>
<g id="a_edge28_Node000025_Node000026"><a xlink:title=" ">
<path fill="none" stroke="#63b8ff" d="M633.82,-164.98C652.16,-156.46 680.61,-143.23 701.73,-133.41"/>
<polygon fill="#63b8ff" stroke="#63b8ff" points="703.26,-136.56 710.85,-129.17 700.31,-130.21 703.26,-136.56"/>
</a>
</g>
</g>
<!-- Node27 -->
<g id="Node000027" class="node">
<title>Node27</title>
<g id="a_Node000027"><a xlink:title=" ">
<polygon fill="#e0e0e0" stroke="#999999" points="682,-129 549,-129 549,-110 682,-110 682,-129"/>
<text text-anchor="middle" x="615.5" y="-117" font-family="Helvetica,sans-Serif" font-size="10.00">opencv2/core/types.hpp</text>
</a>
</g>
</g>
<!-- Node25&#45;&gt;Node27 -->
<g id="edge29_Node000025_Node000027" class="edge">
<title>Node25&#45;&gt;Node27</title>
<g id="a_edge29_Node000025_Node000027"><a xlink:title=" ">
<path fill="none" stroke="#63b8ff" d="M615.5,-164.75C615.5,-157.8 615.5,-147.85 615.5,-139.13"/>
<polygon fill="#63b8ff" stroke="#63b8ff" points="619,-139.09 615.5,-129.09 612,-139.09 619,-139.09"/>
</a>
</g>
</g>
</g>
</svg>
