<?xml version="1.0" encoding="UTF-8" standalone="no"?>
<!DOCTYPE svg PUBLIC "-//W3C//DTD SVG 1.1//EN"
 "http://www.w3.org/Graphics/SVG/1.1/DTD/svg11.dtd">
<!-- Generated by graphviz version 2.43.0 (0)
 -->
<!-- Title: rm::msg::Char Pages: 1 -->
<svg width="113pt" height="194pt"
 viewBox="0.00 0.00 113.00 194.00" xmlns="http://www.w3.org/2000/svg" xmlns:xlink="http://www.w3.org/1999/xlink">

<svg id="main" version="1.1" xmlns="http://www.w3.org/2000/svg" xmlns:xlink="http://www.w3.org/1999/xlink" xml:space="preserve">

<style type="text/css"><![CDATA[
.node, .edge {opacity: 0.7;}
.node.selected, .edge.selected {opacity: 1;}
.edge:hover path { stroke: red; }
.edge:hover polygon { stroke: red; fill: red; }
]]></style>
<script type="application/ecmascript" xlink:href="../../svg.min.js"/>
<svg id="graph" class="graph">
<g id="graph0" class="graph" transform="scale(1 1) rotate(0) translate(4 190)">
<title>rm::msg::Char</title>
<!-- Node1 -->
<g id="Node000001" class="node">
<title>Node1</title>
<g id="a_Node000001"><a xlink:title="Char 消息类型：std/Char">
<polygon fill="#999999" stroke="transparent" points="96,-79 0,-79 0,0 96,0 96,-79"/>
<text text-anchor="start" x="13" y="-66.5" font-family="Helvetica,sans-Serif" font-size="10.00">rm::msg::Char</text>
<text text-anchor="start" x="46" y="-51.5" font-family="Helvetica,sans-Serif" font-size="10.00"> </text>
<text text-anchor="start" x="4" y="-36.5" font-family="Helvetica,sans-Serif" font-size="10.00">+</text>
<text text-anchor="start" x="17" y="-36.5" font-family="Helvetica,sans-Serif" font-size="10.00">serialize()</text>
<text text-anchor="start" x="4" y="-21.5" font-family="Helvetica,sans-Serif" font-size="10.00">+</text>
<text text-anchor="start" x="17" y="-21.5" font-family="Helvetica,sans-Serif" font-size="10.00">compact_size()</text>
<text text-anchor="start" x="4" y="-6.5" font-family="Helvetica,sans-Serif" font-size="10.00">+</text>
<text text-anchor="start" x="17" y="-6.5" font-family="Helvetica,sans-Serif" font-size="10.00">deserialize()</text>
<polygon fill="#666666" stroke="#666666" points="0,-61.5 0,-61.5 96,-61.5 96,-61.5 0,-61.5"/>
<polygon fill="#666666" stroke="#666666" points="0,-46.5 0,-46.5 96,-46.5 96,-46.5 0,-46.5"/>
<polygon fill="none" stroke="#666666" points="0,0 0,-79 96,-79 96,0 0,0"/>
</a>
</g>
</g>
<!-- Node2 -->
<g id="Node000002" class="node">
<title>Node2</title>
<g id="a_Node000002"><a xlink:title=" ">
<polygon fill="white" stroke="transparent" points="64,-186 32,-186 32,-137 64,-137 64,-186"/>
<text text-anchor="start" x="37" y="-173.5" font-family="Helvetica,sans-Serif" font-size="10.00">char</text>
<text text-anchor="start" x="46" y="-158.5" font-family="Helvetica,sans-Serif" font-size="10.00"> </text>
<text text-anchor="start" x="46" y="-143.5" font-family="Helvetica,sans-Serif" font-size="10.00"> </text>
<polygon fill="#666666" stroke="#666666" points="32,-168.5 32,-168.5 64,-168.5 64,-168.5 32,-168.5"/>
<polygon fill="#666666" stroke="#666666" points="32,-153.5 32,-153.5 64,-153.5 64,-153.5 32,-153.5"/>
<polygon fill="none" stroke="#666666" points="32,-137 32,-186 64,-186 64,-137 32,-137"/>
</a>
</g>
</g>
<!-- Node2&#45;&gt;Node1 -->
<g id="edge1_Node000001_Node000002" class="edge">
<title>Node2&#45;&gt;Node1</title>
<g id="a_edge1_Node000001_Node000002"><a xlink:title=" ">
<path fill="none" stroke="#63b8ff" d="M48,-136.79C48,-123.86 48,-107.32 48,-91.61"/>
<polygon fill="none" stroke="#63b8ff" points="48,-91.27 44,-85.27 48,-79.27 52,-85.27 48,-91.27"/>
</a>
</g>
<text text-anchor="middle" x="76.5" y="-111" font-family="Helvetica,sans-Serif" font-size="10.00" fill="grey"> +data</text>
<text text-anchor="middle" x="76.5" y="-100" font-family="Helvetica,sans-Serif" font-size="10.00" fill="grey">+msg_type</text>
</g>
</g>
</svg>
</svg>

<style type='text/css'>
<![CDATA[
[data-mouse-over-selected='false'] { opacity: 0.7; }
[data-mouse-over-selected='true']  { opacity: 1.0; }
]]>
</style>
<script type="application/ecmascript"><![CDATA[
document.addEventListener('DOMContentLoaded', (event) => {
  highlightEdges();
  highlightAdjacentNodes();
});
]]></script>
</svg>
