<?xml version="1.0" encoding="UTF-8" standalone="no"?>
<!DOCTYPE svg PUBLIC "-//W3C//DTD SVG 1.1//EN"
 "http://www.w3.org/Graphics/SVG/1.1/DTD/svg11.dtd">
<!-- Generated by graphviz version 2.43.0 (0)
 -->
<!-- Title: rmvl/combo/rune.h Pages: 1 -->
<svg width="1158pt" height="308pt"
 viewBox="0.00 0.00 1157.50 308.00" xmlns="http://www.w3.org/2000/svg" xmlns:xlink="http://www.w3.org/1999/xlink">
<g id="graph0" class="graph" transform="scale(1 1) rotate(0) translate(4 304)">
<title>rmvl/combo/rune.h</title>
<polygon fill="white" stroke="transparent" points="-4,4 -4,-304 1153.5,-304 1153.5,4 -4,4"/>
<!-- Node1 -->
<g id="node1" class="node">
<title>Node1</title>
<g id="a_node1"><a xlink:title="神符类头文件">
<polygon fill="#bfbfbf" stroke="black" points="182.5,-280.5 182.5,-299.5 291.5,-299.5 291.5,-280.5 182.5,-280.5"/>
<text text-anchor="middle" x="237" y="-287.5" font-family="Helvetica,sans-Serif" font-size="10.00">rmvl/combo/rune.h</text>
</a>
</g>
</g>
<!-- Node2 -->
<g id="node2" class="node">
<title>Node2</title>
<g id="a_node2"><a xlink:href="../../d8/d36/combo_8h.html" target="_top" xlink:title="the combination of the features header file">
<polygon fill="white" stroke="black" points="328.5,-224.5 328.5,-243.5 387.5,-243.5 387.5,-224.5 328.5,-224.5"/>
<text text-anchor="middle" x="358" y="-231.5" font-family="Helvetica,sans-Serif" font-size="10.00">combo.h</text>
</a>
</g>
</g>
<!-- Node1&#45;&gt;Node2 -->
<g id="edge1" class="edge">
<title>Node1&#45;&gt;Node2</title>
<path fill="none" stroke="midnightblue" d="M256.17,-280.44C275.91,-271.64 306.89,-257.81 329.49,-247.72"/>
<polygon fill="midnightblue" stroke="midnightblue" points="331.21,-250.79 338.92,-243.52 328.36,-244.4 331.21,-250.79"/>
</g>
<!-- Node23 -->
<g id="node23" class="node">
<title>Node23</title>
<g id="a_node23"><a xlink:href="../../d6/d1d/feature_2rune__center_8h.html" target="_top" xlink:title=" ">
<polygon fill="white" stroke="black" points="0,-224.5 0,-243.5 146,-243.5 146,-224.5 0,-224.5"/>
<text text-anchor="middle" x="73" y="-231.5" font-family="Helvetica,sans-Serif" font-size="10.00">rmvl/feature/rune_center.h</text>
</a>
</g>
</g>
<!-- Node1&#45;&gt;Node23 -->
<g id="edge26" class="edge">
<title>Node1&#45;&gt;Node23</title>
<path fill="none" stroke="midnightblue" d="M211.01,-280.44C183.3,-271.32 139.25,-256.81 108.38,-246.65"/>
<polygon fill="midnightblue" stroke="midnightblue" points="109.46,-243.32 98.86,-243.52 107.27,-249.97 109.46,-243.32"/>
</g>
<!-- Node24 -->
<g id="node24" class="node">
<title>Node24</title>
<g id="a_node24"><a xlink:href="../../d2/d8d/feature_2rune__target_8h.html" target="_top" xlink:title=" ">
<polygon fill="white" stroke="black" points="164,-224.5 164,-243.5 310,-243.5 310,-224.5 164,-224.5"/>
<text text-anchor="middle" x="237" y="-231.5" font-family="Helvetica,sans-Serif" font-size="10.00">rmvl/feature/rune_target.h</text>
</a>
</g>
</g>
<!-- Node1&#45;&gt;Node24 -->
<g id="edge28" class="edge">
<title>Node1&#45;&gt;Node24</title>
<path fill="none" stroke="midnightblue" d="M237,-280.08C237,-273.01 237,-262.86 237,-253.99"/>
<polygon fill="midnightblue" stroke="midnightblue" points="240.5,-253.75 237,-243.75 233.5,-253.75 240.5,-253.75"/>
</g>
<!-- Node3 -->
<g id="node3" class="node">
<title>Node3</title>
<g id="a_node3"><a xlink:href="../../d3/d7e/camutils_8hpp.html" target="_top" xlink:title=" ">
<polygon fill="white" stroke="black" points="617.5,-168.5 617.5,-187.5 762.5,-187.5 762.5,-168.5 617.5,-168.5"/>
<text text-anchor="middle" x="690" y="-175.5" font-family="Helvetica,sans-Serif" font-size="10.00">rmvl/camera/camutils.hpp</text>
</a>
</g>
</g>
<!-- Node2&#45;&gt;Node3 -->
<g id="edge2" class="edge">
<title>Node2&#45;&gt;Node3</title>
<path fill="none" stroke="midnightblue" d="M387.75,-228.16C441.46,-219.43 555.64,-200.85 627.27,-189.2"/>
<polygon fill="midnightblue" stroke="midnightblue" points="628.2,-192.6 637.51,-187.54 627.08,-185.69 628.2,-192.6"/>
</g>
<!-- Node19 -->
<g id="node19" class="node">
<title>Node19</title>
<g id="a_node19"><a xlink:href="../../dd/de3/types_8hpp.html" target="_top" xlink:title="常用状态类型定义">
<polygon fill="white" stroke="black" points="287,-112.5 287,-131.5 377,-131.5 377,-112.5 287,-112.5"/>
<text text-anchor="middle" x="332" y="-119.5" font-family="Helvetica,sans-Serif" font-size="10.00">rmvl/types.hpp</text>
</a>
</g>
</g>
<!-- Node2&#45;&gt;Node19 -->
<g id="edge18" class="edge">
<title>Node2&#45;&gt;Node19</title>
<path fill="none" stroke="midnightblue" d="M365.42,-224.45C375.37,-211.88 390.81,-187.78 382,-168 376.43,-155.5 365.48,-145.01 355.25,-137.32"/>
<polygon fill="midnightblue" stroke="midnightblue" points="357.16,-134.38 346.95,-131.53 353.15,-140.12 357.16,-134.38"/>
</g>
<!-- Node20 -->
<g id="node20" class="node">
<title>Node20</title>
<g id="a_node20"><a xlink:href="../../d5/d60/dataio_8hpp.html" target="_top" xlink:title="陀螺仪数据">
<polygon fill="white" stroke="black" points="255,-168.5 255,-187.5 373,-187.5 373,-168.5 255,-168.5"/>
<text text-anchor="middle" x="314" y="-175.5" font-family="Helvetica,sans-Serif" font-size="10.00">rmvl/core/dataio.hpp</text>
</a>
</g>
</g>
<!-- Node2&#45;&gt;Node20 -->
<g id="edge20" class="edge">
<title>Node2&#45;&gt;Node20</title>
<path fill="none" stroke="midnightblue" d="M350.73,-224.08C344.46,-216.38 335.21,-205.03 327.57,-195.65"/>
<polygon fill="midnightblue" stroke="midnightblue" points="330.16,-193.29 321.13,-187.75 324.73,-197.71 330.16,-193.29"/>
</g>
<!-- Node21 -->
<g id="node21" class="node">
<title>Node21</title>
<g id="a_node21"><a xlink:href="../../d2/d74/feature_8h.html" target="_top" xlink:title="feature class header">
<polygon fill="white" stroke="black" points="111.5,-168.5 111.5,-187.5 236.5,-187.5 236.5,-168.5 111.5,-168.5"/>
<text text-anchor="middle" x="174" y="-175.5" font-family="Helvetica,sans-Serif" font-size="10.00">rmvl/feature/feature.h</text>
</a>
</g>
</g>
<!-- Node2&#45;&gt;Node21 -->
<g id="edge22" class="edge">
<title>Node2&#45;&gt;Node21</title>
<path fill="none" stroke="midnightblue" d="M328.84,-224.44C297.49,-215.24 247.47,-200.56 212.8,-190.39"/>
<polygon fill="midnightblue" stroke="midnightblue" points="213.6,-186.97 203.02,-187.52 211.63,-193.69 213.6,-186.97"/>
</g>
<!-- Node4 -->
<g id="node4" class="node">
<title>Node4</title>
<g id="a_node4"><a xlink:title=" ">
<polygon fill="white" stroke="#bfbfbf" points="713.5,-112.5 713.5,-131.5 790.5,-131.5 790.5,-112.5 713.5,-112.5"/>
<text text-anchor="middle" x="752" y="-119.5" font-family="Helvetica,sans-Serif" font-size="10.00">Eigen/Dense</text>
</a>
</g>
</g>
<!-- Node3&#45;&gt;Node4 -->
<g id="edge3" class="edge">
<title>Node3&#45;&gt;Node4</title>
<path fill="none" stroke="midnightblue" d="M699.96,-168.32C709.13,-160.34 722.94,-148.31 734.03,-138.65"/>
<polygon fill="midnightblue" stroke="midnightblue" points="736.62,-141.04 741.86,-131.83 732.02,-135.76 736.62,-141.04"/>
</g>
<!-- Node5 -->
<g id="node5" class="node">
<title>Node5</title>
<g id="a_node5"><a xlink:title=" ">
<polygon fill="white" stroke="#bfbfbf" points="808.5,-112.5 808.5,-131.5 925.5,-131.5 925.5,-112.5 808.5,-112.5"/>
<text text-anchor="middle" x="867" y="-119.5" font-family="Helvetica,sans-Serif" font-size="10.00">opencv2/calib3d.hpp</text>
</a>
</g>
</g>
<!-- Node3&#45;&gt;Node5 -->
<g id="edge4" class="edge">
<title>Node3&#45;&gt;Node5</title>
<path fill="none" stroke="midnightblue" d="M718.05,-168.44C748.08,-159.28 795.91,-144.69 829.24,-134.52"/>
<polygon fill="midnightblue" stroke="midnightblue" points="830.54,-137.78 839.09,-131.52 828.5,-131.09 830.54,-137.78"/>
</g>
<!-- Node6 -->
<g id="node6" class="node">
<title>Node6</title>
<g id="a_node6"><a xlink:title=" ">
<polygon fill="white" stroke="#bfbfbf" points="562.5,-112.5 562.5,-131.5 695.5,-131.5 695.5,-112.5 562.5,-112.5"/>
<text text-anchor="middle" x="629" y="-119.5" font-family="Helvetica,sans-Serif" font-size="10.00">opencv2/core/eigen.hpp</text>
</a>
</g>
</g>
<!-- Node3&#45;&gt;Node6 -->
<g id="edge5" class="edge">
<title>Node3&#45;&gt;Node6</title>
<path fill="none" stroke="midnightblue" d="M680.2,-168.32C671.18,-160.34 657.59,-148.31 646.68,-138.65"/>
<polygon fill="midnightblue" stroke="midnightblue" points="648.79,-135.84 638.98,-131.83 644.15,-141.08 648.79,-135.84"/>
</g>
<!-- Node7 -->
<g id="node7" class="node">
<title>Node7</title>
<g id="a_node7"><a xlink:href="../../dc/d71/uty__math_8hpp.html" target="_top" xlink:title=" ">
<polygon fill="white" stroke="black" points="944,-112.5 944,-131.5 1086,-131.5 1086,-112.5 944,-112.5"/>
<text text-anchor="middle" x="1015" y="-119.5" font-family="Helvetica,sans-Serif" font-size="10.00">rmvl/rmath/uty_math.hpp</text>
</a>
</g>
</g>
<!-- Node3&#45;&gt;Node7 -->
<g id="edge6" class="edge">
<title>Node3&#45;&gt;Node7</title>
<path fill="none" stroke="midnightblue" d="M741.5,-168.44C799.14,-158.87 892.49,-143.36 953.81,-133.17"/>
<polygon fill="midnightblue" stroke="midnightblue" points="954.45,-136.61 963.74,-131.52 953.31,-129.7 954.45,-136.61"/>
</g>
<!-- Node17 -->
<g id="node17" class="node">
<title>Node17</title>
<g id="a_node17"><a xlink:href="../../d7/df6/camera_8h.html" target="_top" xlink:title="CameraParam module header file (Generated by CMake automatically)">
<polygon fill="white" stroke="black" points="395.5,-112.5 395.5,-131.5 544.5,-131.5 544.5,-112.5 395.5,-112.5"/>
<text text-anchor="middle" x="470" y="-119.5" font-family="Helvetica,sans-Serif" font-size="10.00">rmvlpara/camera/camera.h</text>
</a>
</g>
</g>
<!-- Node3&#45;&gt;Node17 -->
<g id="edge16" class="edge">
<title>Node3&#45;&gt;Node17</title>
<path fill="none" stroke="midnightblue" d="M655.14,-168.44C617.08,-159.1 556.04,-144.12 514.54,-133.93"/>
<polygon fill="midnightblue" stroke="midnightblue" points="515.24,-130.5 504.7,-131.52 513.57,-137.3 515.24,-130.5"/>
</g>
<!-- Node8 -->
<g id="node8" class="node">
<title>Node8</title>
<g id="a_node8"><a xlink:title=" ">
<polygon fill="white" stroke="#bfbfbf" points="991.5,-56.5 991.5,-75.5 1038.5,-75.5 1038.5,-56.5 991.5,-56.5"/>
<text text-anchor="middle" x="1015" y="-63.5" font-family="Helvetica,sans-Serif" font-size="10.00">cmath</text>
</a>
</g>
</g>
<!-- Node7&#45;&gt;Node8 -->
<g id="edge7" class="edge">
<title>Node7&#45;&gt;Node8</title>
<path fill="none" stroke="midnightblue" d="M1015,-112.08C1015,-105.01 1015,-94.86 1015,-85.99"/>
<polygon fill="midnightblue" stroke="midnightblue" points="1018.5,-85.75 1015,-75.75 1011.5,-85.75 1018.5,-85.75"/>
</g>
<!-- Node9 -->
<g id="node9" class="node">
<title>Node9</title>
<g id="a_node9"><a xlink:title=" ">
<polygon fill="white" stroke="#bfbfbf" points="1056.5,-56.5 1056.5,-75.5 1149.5,-75.5 1149.5,-56.5 1056.5,-56.5"/>
<text text-anchor="middle" x="1103" y="-63.5" font-family="Helvetica,sans-Serif" font-size="10.00">unordered_map</text>
</a>
</g>
</g>
<!-- Node7&#45;&gt;Node9 -->
<g id="edge8" class="edge">
<title>Node7&#45;&gt;Node9</title>
<path fill="none" stroke="midnightblue" d="M1029.14,-112.32C1042.87,-103.9 1063.94,-90.97 1080.06,-81.07"/>
<polygon fill="midnightblue" stroke="midnightblue" points="1082.2,-83.87 1088.9,-75.65 1078.54,-77.9 1082.2,-83.87"/>
</g>
<!-- Node10 -->
<g id="node10" class="node">
<title>Node10</title>
<g id="a_node10"><a xlink:title=" ">
<polygon fill="white" stroke="#bfbfbf" points="842.5,-56.5 842.5,-75.5 973.5,-75.5 973.5,-56.5 842.5,-56.5"/>
<text text-anchor="middle" x="908" y="-63.5" font-family="Helvetica,sans-Serif" font-size="10.00">opencv2/core/matx.hpp</text>
</a>
</g>
</g>
<!-- Node7&#45;&gt;Node10 -->
<g id="edge9" class="edge">
<title>Node7&#45;&gt;Node10</title>
<path fill="none" stroke="midnightblue" d="M997.81,-112.32C980.65,-103.66 954.05,-90.24 934.25,-80.25"/>
<polygon fill="midnightblue" stroke="midnightblue" points="935.65,-77.04 925.15,-75.65 932.5,-83.28 935.65,-77.04"/>
</g>
<!-- Node11 -->
<g id="node11" class="node">
<title>Node11</title>
<g id="a_node11"><a xlink:href="../../d0/d3f/util_8hpp.html" target="_top" xlink:title=" ">
<polygon fill="white" stroke="black" points="532.5,-56.5 532.5,-75.5 635.5,-75.5 635.5,-56.5 532.5,-56.5"/>
<text text-anchor="middle" x="584" y="-63.5" font-family="Helvetica,sans-Serif" font-size="10.00">rmvl/core/util.hpp</text>
</a>
</g>
</g>
<!-- Node7&#45;&gt;Node11 -->
<g id="edge10" class="edge">
<title>Node7&#45;&gt;Node11</title>
<path fill="none" stroke="midnightblue" d="M946.71,-112.44C864.02,-102.08 725.94,-84.78 646.13,-74.78"/>
<polygon fill="midnightblue" stroke="midnightblue" points="646.1,-71.25 635.74,-73.48 645.23,-78.2 646.1,-71.25"/>
</g>
<!-- Node12 -->
<g id="node12" class="node">
<title>Node12</title>
<g id="a_node12"><a xlink:title=" ">
<polygon fill="white" stroke="#bfbfbf" points="341.5,-0.5 341.5,-19.5 474.5,-19.5 474.5,-0.5 341.5,-0.5"/>
<text text-anchor="middle" x="408" y="-7.5" font-family="Helvetica,sans-Serif" font-size="10.00">rmvl/rmvl_modules.hpp</text>
</a>
</g>
</g>
<!-- Node11&#45;&gt;Node12 -->
<g id="edge11" class="edge">
<title>Node11&#45;&gt;Node12</title>
<path fill="none" stroke="midnightblue" d="M556.11,-56.44C526.25,-47.28 478.69,-32.69 445.54,-22.52"/>
<polygon fill="midnightblue" stroke="midnightblue" points="446.34,-19.1 435.76,-19.52 444.29,-25.8 446.34,-19.1"/>
</g>
<!-- Node13 -->
<g id="node13" class="node">
<title>Node13</title>
<g id="a_node13"><a xlink:title=" ">
<polygon fill="white" stroke="#bfbfbf" points="493,-0.5 493,-19.5 543,-19.5 543,-0.5 493,-0.5"/>
<text text-anchor="middle" x="518" y="-7.5" font-family="Helvetica,sans-Serif" font-size="10.00">cstdint</text>
</a>
</g>
</g>
<!-- Node11&#45;&gt;Node13 -->
<g id="edge12" class="edge">
<title>Node11&#45;&gt;Node13</title>
<path fill="none" stroke="midnightblue" d="M573.4,-56.32C563.54,-48.26 548.65,-36.08 536.78,-26.37"/>
<polygon fill="midnightblue" stroke="midnightblue" points="538.75,-23.46 528.8,-19.83 534.32,-28.88 538.75,-23.46"/>
</g>
<!-- Node14 -->
<g id="node14" class="node">
<title>Node14</title>
<g id="a_node14"><a xlink:title=" ">
<polygon fill="white" stroke="#bfbfbf" points="561,-0.5 561,-19.5 607,-19.5 607,-0.5 561,-0.5"/>
<text text-anchor="middle" x="584" y="-7.5" font-family="Helvetica,sans-Serif" font-size="10.00">cstdio</text>
</a>
</g>
</g>
<!-- Node11&#45;&gt;Node14 -->
<g id="edge13" class="edge">
<title>Node11&#45;&gt;Node14</title>
<path fill="none" stroke="midnightblue" d="M584,-56.08C584,-49.01 584,-38.86 584,-29.99"/>
<polygon fill="midnightblue" stroke="midnightblue" points="587.5,-29.75 584,-19.75 580.5,-29.75 587.5,-29.75"/>
</g>
<!-- Node15 -->
<g id="node15" class="node">
<title>Node15</title>
<g id="a_node15"><a xlink:title=" ">
<polygon fill="white" stroke="#bfbfbf" points="625,-0.5 625,-19.5 669,-19.5 669,-0.5 625,-0.5"/>
<text text-anchor="middle" x="647" y="-7.5" font-family="Helvetica,sans-Serif" font-size="10.00">string</text>
</a>
</g>
</g>
<!-- Node11&#45;&gt;Node15 -->
<g id="edge14" class="edge">
<title>Node11&#45;&gt;Node15</title>
<path fill="none" stroke="midnightblue" d="M594.12,-56.32C603.53,-48.26 617.74,-36.08 629.07,-26.37"/>
<polygon fill="midnightblue" stroke="midnightblue" points="631.38,-29 636.69,-19.83 626.82,-23.68 631.38,-29"/>
</g>
<!-- Node16 -->
<g id="node16" class="node">
<title>Node16</title>
<g id="a_node16"><a xlink:href="../../db/d41/rmvldef_8hpp.html" target="_top" xlink:title=" ">
<polygon fill="white" stroke="black" points="687.5,-0.5 687.5,-19.5 762.5,-19.5 762.5,-0.5 687.5,-0.5"/>
<text text-anchor="middle" x="725" y="-7.5" font-family="Helvetica,sans-Serif" font-size="10.00">rmvldef.hpp</text>
</a>
</g>
</g>
<!-- Node11&#45;&gt;Node16 -->
<g id="edge15" class="edge">
<title>Node11&#45;&gt;Node16</title>
<path fill="none" stroke="midnightblue" d="M606.34,-56.44C629.75,-47.48 666.74,-33.31 693.19,-23.18"/>
<polygon fill="midnightblue" stroke="midnightblue" points="694.68,-26.36 702.76,-19.52 692.17,-19.82 694.68,-26.36"/>
</g>
<!-- Node18 -->
<g id="node18" class="node">
<title>Node18</title>
<g id="a_node18"><a xlink:title=" ">
<polygon fill="white" stroke="#bfbfbf" points="192.5,-56.5 192.5,-75.5 325.5,-75.5 325.5,-56.5 192.5,-56.5"/>
<text text-anchor="middle" x="259" y="-63.5" font-family="Helvetica,sans-Serif" font-size="10.00">opencv2/core/types.hpp</text>
</a>
</g>
</g>
<!-- Node17&#45;&gt;Node18 -->
<g id="edge17" class="edge">
<title>Node17&#45;&gt;Node18</title>
<path fill="none" stroke="midnightblue" d="M436.57,-112.44C400.14,-103.12 341.77,-88.18 301.97,-78"/>
<polygon fill="midnightblue" stroke="midnightblue" points="302.83,-74.61 292.28,-75.52 301.1,-81.39 302.83,-74.61"/>
</g>
<!-- Node19&#45;&gt;Node11 -->
<g id="edge19" class="edge">
<title>Node19&#45;&gt;Node11</title>
<path fill="none" stroke="midnightblue" d="M371.93,-112.44C415.89,-103.02 486.63,-87.87 534.18,-77.68"/>
<polygon fill="midnightblue" stroke="midnightblue" points="535.21,-81.03 544.26,-75.52 533.75,-74.19 535.21,-81.03"/>
</g>
<!-- Node20&#45;&gt;Node18 -->
<g id="edge21" class="edge">
<title>Node20&#45;&gt;Node18</title>
<path fill="none" stroke="midnightblue" d="M305.42,-168.43C297.3,-159.88 285.29,-146.02 278,-132 270.37,-117.33 265.39,-99.16 262.45,-85.77"/>
<polygon fill="midnightblue" stroke="midnightblue" points="265.85,-84.93 260.45,-75.82 258.99,-86.31 265.85,-84.93"/>
</g>
<!-- Node21&#45;&gt;Node18 -->
<g id="edge24" class="edge">
<title>Node21&#45;&gt;Node18</title>
<path fill="none" stroke="midnightblue" d="M169.19,-168.25C162.63,-155 152.89,-129.56 164,-112 174.05,-96.13 191.37,-85.74 208.5,-79"/>
<polygon fill="midnightblue" stroke="midnightblue" points="209.71,-82.28 217.95,-75.62 207.35,-75.69 209.71,-82.28"/>
</g>
<!-- Node21&#45;&gt;Node19 -->
<g id="edge25" class="edge">
<title>Node21&#45;&gt;Node19</title>
<path fill="none" stroke="midnightblue" d="M199.04,-168.44C225.62,-159.36 267.81,-144.94 297.52,-134.78"/>
<polygon fill="midnightblue" stroke="midnightblue" points="298.75,-138.06 307.08,-131.52 296.49,-131.44 298.75,-138.06"/>
</g>
<!-- Node22 -->
<g id="node22" class="node">
<title>Node22</title>
<g id="a_node22"><a xlink:title=" ">
<polygon fill="white" stroke="#bfbfbf" points="173,-112.5 173,-131.5 231,-131.5 231,-112.5 173,-112.5"/>
<text text-anchor="middle" x="202" y="-119.5" font-family="Helvetica,sans-Serif" font-size="10.00">memory</text>
</a>
</g>
</g>
<!-- Node21&#45;&gt;Node22 -->
<g id="edge23" class="edge">
<title>Node21&#45;&gt;Node22</title>
<path fill="none" stroke="midnightblue" d="M178.62,-168.08C182.46,-160.69 188.02,-149.95 192.76,-140.81"/>
<polygon fill="midnightblue" stroke="midnightblue" points="195.97,-142.24 197.46,-131.75 189.75,-139.02 195.97,-142.24"/>
</g>
<!-- Node23&#45;&gt;Node21 -->
<g id="edge27" class="edge">
<title>Node23&#45;&gt;Node21</title>
<path fill="none" stroke="midnightblue" d="M89.23,-224.32C105.35,-215.7 130.3,-202.36 148.96,-192.39"/>
<polygon fill="midnightblue" stroke="midnightblue" points="150.64,-195.46 157.81,-187.65 147.34,-189.28 150.64,-195.46"/>
</g>
<!-- Node24&#45;&gt;Node21 -->
<g id="edge29" class="edge">
<title>Node24&#45;&gt;Node21</title>
<path fill="none" stroke="midnightblue" d="M226.88,-224.32C217.47,-216.26 203.26,-204.08 191.93,-194.37"/>
<polygon fill="midnightblue" stroke="midnightblue" points="194.18,-191.68 184.31,-187.83 189.62,-197 194.18,-191.68"/>
</g>
</g>
</svg>
