<?xml version="1.0" encoding="UTF-8" standalone="no"?>
<!DOCTYPE svg PUBLIC "-//W3C//DTD SVG 1.1//EN"
 "http://www.w3.org/Graphics/SVG/1.1/DTD/svg11.dtd">
<!-- Generated by graphviz version 2.43.0 (0)
 -->
<!-- Title: rmvl/detector/gyro_detector.h Pages: 1 -->
<svg width="1121pt" height="489pt"
 viewBox="0.00 0.00 1121.00 489.00" xmlns="http://www.w3.org/2000/svg" xmlns:xlink="http://www.w3.org/1999/xlink">
<g id="graph0" class="graph" transform="scale(1 1) rotate(0) translate(4 485)">
<title>rmvl/detector/gyro_detector.h</title>
<!-- Node1 -->
<g id="Node000001" class="node">
<title>Node1</title>
<g id="a_Node000001"><a xlink:title="装甲板识别派生类头文件">
<polygon fill="#999999" stroke="#666666" points="395,-481 288,-481 288,-451 395,-451 395,-481"/>
<text text-anchor="start" x="296" y="-469" font-family="Helvetica,sans-Serif" font-size="10.00">rmvl/detector/gyro</text>
<text text-anchor="middle" x="341.5" y="-458" font-family="Helvetica,sans-Serif" font-size="10.00">_detector.h</text>
</a>
</g>
</g>
<!-- Node2 -->
<g id="Node000002" class="node">
<title>Node2</title>
<g id="a_Node000002"><a xlink:title=" ">
<polygon fill="#e0e0e0" stroke="#999999" points="93,-129 0,-129 0,-110 93,-110 93,-129"/>
<text text-anchor="middle" x="46.5" y="-117" font-family="Helvetica,sans-Serif" font-size="10.00">unordered_map</text>
</a>
</g>
</g>
<!-- Node1&#45;&gt;Node2 -->
<g id="edge1_Node000001_Node000002" class="edge">
<title>Node1&#45;&gt;Node2</title>
<g id="a_edge1_Node000001_Node000002"><a xlink:title=" ">
<path fill="none" stroke="#63b8ff" d="M287.56,-451.4C240.43,-435.89 179.5,-405.42 179.5,-351.5 179.5,-351.5 179.5,-351.5 179.5,-234 179.5,-182.37 120.79,-149.24 81.38,-132.82"/>
<polygon fill="#63b8ff" stroke="#63b8ff" points="82.41,-129.47 71.83,-129.01 79.82,-135.97 82.41,-129.47"/>
</a>
</g>
</g>
<!-- Node3 -->
<g id="Node000003" class="node">
<title>Node3</title>
<g id="a_Node000003"><a xlink:href="../../d5/d9f/detector_8h.html" target="_top" xlink:title="抽象识别类头文件">
<polygon fill="white" stroke="#666666" points="420,-415 355,-415 355,-396 420,-396 420,-415"/>
<text text-anchor="middle" x="387.5" y="-403" font-family="Helvetica,sans-Serif" font-size="10.00">detector.h</text>
</a>
</g>
</g>
<!-- Node1&#45;&gt;Node3 -->
<g id="edge2_Node000001_Node000003" class="edge">
<title>Node1&#45;&gt;Node3</title>
<g id="a_edge2_Node000001_Node000003"><a xlink:title=" ">
<path fill="none" stroke="#63b8ff" d="M352.64,-450.84C359.18,-442.52 367.48,-431.96 374.34,-423.23"/>
<polygon fill="#63b8ff" stroke="#63b8ff" points="377.18,-425.29 380.61,-415.27 371.67,-420.96 377.18,-425.29"/>
</a>
</g>
</g>
<!-- Node30 -->
<g id="Node000030" class="node">
<title>Node30</title>
<g id="a_Node000030"><a xlink:href="../../d9/d8f/ml_2ort_8h.html" target="_top" xlink:title="the deployment library header file of the ONNXruntime (Ort)">
<polygon fill="white" stroke="#666666" points="334.5,-415 254.5,-415 254.5,-396 334.5,-396 334.5,-415"/>
<text text-anchor="middle" x="294.5" y="-403" font-family="Helvetica,sans-Serif" font-size="10.00">rmvl/ml/ort.h</text>
</a>
</g>
</g>
<!-- Node1&#45;&gt;Node30 -->
<g id="edge32_Node000001_Node000030" class="edge">
<title>Node1&#45;&gt;Node30</title>
<g id="a_edge32_Node000001_Node000030"><a xlink:title=" ">
<path fill="none" stroke="#63b8ff" d="M330.12,-450.84C323.44,-442.52 314.95,-431.96 307.94,-423.23"/>
<polygon fill="#63b8ff" stroke="#63b8ff" points="310.53,-420.87 301.54,-415.27 305.08,-425.25 310.53,-420.87"/>
</a>
</g>
</g>
<!-- Node31 -->
<g id="Node000031" class="node">
<title>Node31</title>
<g id="a_Node000031"><a xlink:href="../../d7/de6/tracker_2gyro__tracker_8h.html" target="_top" xlink:title="装甲板追踪器头文件">
<polygon fill="white" stroke="#666666" points="748.5,-360 600.5,-360 600.5,-341 748.5,-341 748.5,-360"/>
<text text-anchor="middle" x="674.5" y="-348" font-family="Helvetica,sans-Serif" font-size="10.00">rmvl/tracker/gyro_tracker.h</text>
</a>
</g>
</g>
<!-- Node1&#45;&gt;Node31 -->
<g id="edge34_Node000001_Node000031" class="edge">
<title>Node1&#45;&gt;Node31</title>
<g id="a_edge34_Node000001_Node000031"><a xlink:title=" ">
<path fill="none" stroke="#63b8ff" d="M382.67,-450.97C448.77,-428.44 577.42,-384.59 639.42,-363.46"/>
<polygon fill="#63b8ff" stroke="#63b8ff" points="640.8,-366.68 649.14,-360.14 638.54,-360.06 640.8,-366.68"/>
</a>
</g>
</g>
<!-- Node4 -->
<g id="Node000004" class="node">
<title>Node4</title>
<g id="a_Node000004"><a xlink:href="../../d9/dd1/group_8h.html" target="_top" xlink:title="序列组抽象头文件">
<polygon fill="white" stroke="#666666" points="582.5,-360 472.5,-360 472.5,-341 582.5,-341 582.5,-360"/>
<text text-anchor="middle" x="527.5" y="-348" font-family="Helvetica,sans-Serif" font-size="10.00">rmvl/group/group.h</text>
</a>
</g>
</g>
<!-- Node3&#45;&gt;Node4 -->
<g id="edge3_Node000003_Node000004" class="edge">
<title>Node3&#45;&gt;Node4</title>
<g id="a_edge3_Node000003_Node000004"><a xlink:title=" ">
<path fill="none" stroke="#63b8ff" d="M409.99,-395.98C433.02,-387.27 469.04,-373.63 495.13,-363.75"/>
<polygon fill="#63b8ff" stroke="#63b8ff" points="496.48,-366.98 504.6,-360.17 494.01,-360.44 496.48,-366.98"/>
</a>
</g>
</g>
<!-- Node28 -->
<g id="Node000028" class="node">
<title>Node28</title>
<g id="a_Node000028"><a xlink:href="../../df/d4b/pretreat_8h.html" target="_top" xlink:title="Header of the image pretreating module">
<polygon fill="white" stroke="#666666" points="454,-360 321,-360 321,-341 454,-341 454,-360"/>
<text text-anchor="middle" x="387.5" y="-348" font-family="Helvetica,sans-Serif" font-size="10.00">rmvl/imgproc/pretreat.h</text>
</a>
</g>
</g>
<!-- Node3&#45;&gt;Node28 -->
<g id="edge30_Node000003_Node000028" class="edge">
<title>Node3&#45;&gt;Node28</title>
<g id="a_edge30_Node000003_Node000028"><a xlink:title=" ">
<path fill="none" stroke="#63b8ff" d="M387.5,-395.75C387.5,-388.8 387.5,-378.85 387.5,-370.13"/>
<polygon fill="#63b8ff" stroke="#63b8ff" points="391,-370.09 387.5,-360.09 384,-370.09 391,-370.09"/>
</a>
</g>
</g>
<!-- Node5 -->
<g id="Node000005" class="node">
<title>Node5</title>
<g id="a_Node000005"><a xlink:href="../../dc/ded/tracker_8h.html" target="_top" xlink:title="追踪器抽象头文件">
<polygon fill="white" stroke="#666666" points="593,-305 472,-305 472,-286 593,-286 593,-305"/>
<text text-anchor="middle" x="532.5" y="-293" font-family="Helvetica,sans-Serif" font-size="10.00">rmvl/tracker/tracker.h</text>
</a>
</g>
</g>
<!-- Node4&#45;&gt;Node5 -->
<g id="edge4_Node000004_Node000005" class="edge">
<title>Node4&#45;&gt;Node5</title>
<g id="a_edge4_Node000004_Node000005"><a xlink:title=" ">
<path fill="none" stroke="#63b8ff" d="M528.33,-340.75C528.98,-333.8 529.92,-323.85 530.74,-315.13"/>
<polygon fill="#63b8ff" stroke="#63b8ff" points="534.23,-315.37 531.69,-305.09 527.27,-314.72 534.23,-315.37"/>
</a>
</g>
</g>
<!-- Node6 -->
<g id="Node000006" class="node">
<title>Node6</title>
<g id="a_Node000006"><a xlink:title=" ">
<polygon fill="#e0e0e0" stroke="#999999" points="470,-244.5 423,-244.5 423,-225.5 470,-225.5 470,-244.5"/>
<text text-anchor="middle" x="446.5" y="-232.5" font-family="Helvetica,sans-Serif" font-size="10.00">deque</text>
</a>
</g>
</g>
<!-- Node5&#45;&gt;Node6 -->
<g id="edge5_Node000005_Node000006" class="edge">
<title>Node5&#45;&gt;Node6</title>
<g id="a_edge5_Node000005_Node000006"><a xlink:title=" ">
<path fill="none" stroke="#63b8ff" d="M519.81,-285.87C506.09,-276.54 484,-261.51 467.65,-250.38"/>
<polygon fill="#63b8ff" stroke="#63b8ff" points="469.48,-247.4 459.24,-244.67 465.54,-253.19 469.48,-247.4"/>
</a>
</g>
</g>
<!-- Node7 -->
<g id="Node000007" class="node">
<title>Node7</title>
<g id="a_Node000007"><a xlink:href="../../d8/d36/combo_8h.html" target="_top" xlink:title="the combination of the features header file">
<polygon fill="white" stroke="#666666" points="608.5,-244.5 488.5,-244.5 488.5,-225.5 608.5,-225.5 608.5,-244.5"/>
<text text-anchor="middle" x="548.5" y="-232.5" font-family="Helvetica,sans-Serif" font-size="10.00">rmvl/combo/combo.h</text>
</a>
</g>
</g>
<!-- Node5&#45;&gt;Node7 -->
<g id="edge6_Node000005_Node000007" class="edge">
<title>Node5&#45;&gt;Node7</title>
<g id="a_edge6_Node000005_Node000007"><a xlink:title=" ">
<path fill="none" stroke="#63b8ff" d="M534.86,-285.87C537.11,-277.66 540.56,-265.04 543.43,-254.55"/>
<polygon fill="#63b8ff" stroke="#63b8ff" points="546.87,-255.24 546.13,-244.67 540.12,-253.39 546.87,-255.24"/>
</a>
</g>
</g>
<!-- Node8 -->
<g id="Node000008" class="node">
<title>Node8</title>
<g id="a_Node000008"><a xlink:href="../../d3/d7e/camutils_8hpp.html" target="_top" xlink:title=" ">
<polygon fill="white" stroke="#666666" points="991,-184 846,-184 846,-165 991,-165 991,-184"/>
<text text-anchor="middle" x="918.5" y="-172" font-family="Helvetica,sans-Serif" font-size="10.00">rmvl/camera/camutils.hpp</text>
</a>
</g>
</g>
<!-- Node7&#45;&gt;Node8 -->
<g id="edge7_Node000007_Node000008" class="edge">
<title>Node7&#45;&gt;Node8</title>
<g id="a_edge7_Node000007_Node000008"><a xlink:title=" ">
<path fill="none" stroke="#63b8ff" d="M589.52,-225.44C599.02,-223.55 609.1,-221.64 618.5,-220 695.24,-206.64 783.48,-193.86 844.29,-185.45"/>
<polygon fill="#63b8ff" stroke="#63b8ff" points="845.13,-188.87 854.56,-184.04 844.18,-181.94 845.13,-188.87"/>
</a>
</g>
</g>
<!-- Node10 -->
<g id="Node000010" class="node">
<title>Node10</title>
<g id="a_Node000010"><a xlink:href="../../dc/d71/uty__math_8hpp.html" target="_top" xlink:title=" ">
<polygon fill="white" stroke="#666666" points="381.5,-184 239.5,-184 239.5,-165 381.5,-165 381.5,-184"/>
<text text-anchor="middle" x="310.5" y="-172" font-family="Helvetica,sans-Serif" font-size="10.00">rmvl/rmath/uty_math.hpp</text>
</a>
</g>
</g>
<!-- Node7&#45;&gt;Node10 -->
<g id="edge9_Node000007_Node000010" class="edge">
<title>Node7&#45;&gt;Node10</title>
<g id="a_edge9_Node000007_Node000010"><a xlink:title=" ">
<path fill="none" stroke="#63b8ff" d="M513.89,-225.49C471.94,-215.18 401.16,-197.78 355.14,-186.47"/>
<polygon fill="#63b8ff" stroke="#63b8ff" points="355.7,-183 345.15,-184.02 354.02,-189.8 355.7,-183"/>
</a>
</g>
</g>
<!-- Node20 -->
<g id="Node000020" class="node">
<title>Node20</title>
<g id="a_Node000020"><a xlink:href="../../dd/de3/types_8hpp.html" target="_top" xlink:title="常用状态类型定义">
<polygon fill="white" stroke="#666666" points="722.5,-129 632.5,-129 632.5,-110 722.5,-110 722.5,-129"/>
<text text-anchor="middle" x="677.5" y="-117" font-family="Helvetica,sans-Serif" font-size="10.00">rmvl/types.hpp</text>
</a>
</g>
</g>
<!-- Node7&#45;&gt;Node20 -->
<g id="edge20_Node000007_Node000020" class="edge">
<title>Node7&#45;&gt;Node20</title>
<g id="a_edge20_Node000007_Node000020"><a xlink:title=" ">
<path fill="none" stroke="#63b8ff" d="M558.2,-225.47C579.86,-206.41 632.45,-160.13 660.01,-135.89"/>
<polygon fill="#63b8ff" stroke="#63b8ff" points="662.5,-138.36 667.69,-129.13 657.87,-133.11 662.5,-138.36"/>
</a>
</g>
</g>
<!-- Node21 -->
<g id="Node000021" class="node">
<title>Node21</title>
<g id="a_Node000021"><a xlink:href="../../d5/d60/dataio_8hpp.html" target="_top" xlink:title="陀螺仪数据">
<polygon fill="white" stroke="#666666" points="591.5,-184 473.5,-184 473.5,-165 591.5,-165 591.5,-184"/>
<text text-anchor="middle" x="532.5" y="-172" font-family="Helvetica,sans-Serif" font-size="10.00">rmvl/core/dataio.hpp</text>
</a>
</g>
</g>
<!-- Node7&#45;&gt;Node21 -->
<g id="edge22_Node000007_Node000021" class="edge">
<title>Node7&#45;&gt;Node21</title>
<g id="a_edge22_Node000007_Node000021"><a xlink:title=" ">
<path fill="none" stroke="#63b8ff" d="M546.14,-225.37C543.89,-217.16 540.44,-204.54 537.57,-194.05"/>
<polygon fill="#63b8ff" stroke="#63b8ff" points="540.88,-192.89 534.87,-184.17 534.13,-194.74 540.88,-192.89"/>
</a>
</g>
</g>
<!-- Node25 -->
<g id="Node000025" class="node">
<title>Node25</title>
<g id="a_Node000025"><a xlink:href="../../d2/d74/feature_8h.html" target="_top" xlink:title="feature class header">
<polygon fill="white" stroke="#666666" points="828,-184 703,-184 703,-165 828,-165 828,-184"/>
<text text-anchor="middle" x="765.5" y="-172" font-family="Helvetica,sans-Serif" font-size="10.00">rmvl/feature/feature.h</text>
</a>
</g>
</g>
<!-- Node7&#45;&gt;Node25 -->
<g id="edge26_Node000007_Node000025" class="edge">
<title>Node7&#45;&gt;Node25</title>
<g id="a_edge26_Node000007_Node000025"><a xlink:title=" ">
<path fill="none" stroke="#63b8ff" d="M580.05,-225.49C618.06,-215.25 682.02,-198 724,-186.69"/>
<polygon fill="#63b8ff" stroke="#63b8ff" points="725.16,-190 733.91,-184.02 723.34,-183.24 725.16,-190"/>
</a>
</g>
</g>
<!-- Node9 -->
<g id="Node000009" class="node">
<title>Node9</title>
<g id="a_Node000009"><a xlink:title=" ">
<polygon fill="#e0e0e0" stroke="#999999" points="1071,-129 968,-129 968,-110 1071,-110 1071,-129"/>
<text text-anchor="middle" x="1019.5" y="-117" font-family="Helvetica,sans-Serif" font-size="10.00">opencv2/core.hpp</text>
</a>
</g>
</g>
<!-- Node8&#45;&gt;Node9 -->
<g id="edge8_Node000008_Node000009" class="edge">
<title>Node8&#45;&gt;Node9</title>
<g id="a_edge8_Node000008_Node000009"><a xlink:title=" ">
<path fill="none" stroke="#63b8ff" d="M934.73,-164.98C950.68,-156.61 975.28,-143.7 993.88,-133.95"/>
<polygon fill="#63b8ff" stroke="#63b8ff" points="995.75,-136.92 1002.98,-129.17 992.5,-130.72 995.75,-136.92"/>
</a>
</g>
</g>
<!-- Node10&#45;&gt;Node2 -->
<g id="edge11_Node000010_Node000002" class="edge">
<title>Node10&#45;&gt;Node2</title>
<g id="a_edge11_Node000010_Node000002"><a xlink:title=" ">
<path fill="none" stroke="#63b8ff" d="M268.08,-164.98C222.13,-155.76 148.75,-141.03 99.15,-131.07"/>
<polygon fill="#63b8ff" stroke="#63b8ff" points="99.74,-127.62 89.25,-129.08 98.36,-134.48 99.74,-127.62"/>
</a>
</g>
</g>
<!-- Node11 -->
<g id="Node000011" class="node">
<title>Node11</title>
<g id="a_Node000011"><a xlink:title=" ">
<polygon fill="#e0e0e0" stroke="#999999" points="158,-129 111,-129 111,-110 158,-110 158,-129"/>
<text text-anchor="middle" x="134.5" y="-117" font-family="Helvetica,sans-Serif" font-size="10.00">cmath</text>
</a>
</g>
</g>
<!-- Node10&#45;&gt;Node11 -->
<g id="edge10_Node000010_Node000011" class="edge">
<title>Node10&#45;&gt;Node11</title>
<g id="a_edge10_Node000010_Node000011"><a xlink:title=" ">
<path fill="none" stroke="#63b8ff" d="M282.22,-164.98C251.05,-155.6 200.94,-140.51 167.87,-130.55"/>
<polygon fill="#63b8ff" stroke="#63b8ff" points="168.78,-127.17 158.19,-127.63 166.76,-133.87 168.78,-127.17"/>
</a>
</g>
</g>
<!-- Node12 -->
<g id="Node000012" class="node">
<title>Node12</title>
<g id="a_Node000012"><a xlink:title=" ">
<polygon fill="#e0e0e0" stroke="#999999" points="235,-129 176,-129 176,-110 235,-110 235,-129"/>
<text text-anchor="middle" x="205.5" y="-117" font-family="Helvetica,sans-Serif" font-size="10.00">numbers</text>
</a>
</g>
</g>
<!-- Node10&#45;&gt;Node12 -->
<g id="edge12_Node000010_Node000012" class="edge">
<title>Node10&#45;&gt;Node12</title>
<g id="a_edge12_Node000010_Node000012"><a xlink:title=" ">
<path fill="none" stroke="#63b8ff" d="M293.63,-164.98C276.89,-156.54 251,-143.47 231.61,-133.68"/>
<polygon fill="#63b8ff" stroke="#63b8ff" points="233.18,-130.55 222.68,-129.17 230.03,-136.8 233.18,-130.55"/>
</a>
</g>
</g>
<!-- Node13 -->
<g id="Node000013" class="node">
<title>Node13</title>
<g id="a_Node000013"><a xlink:title=" ">
<polygon fill="#e0e0e0" stroke="#999999" points="384,-129 253,-129 253,-110 384,-110 384,-129"/>
<text text-anchor="middle" x="318.5" y="-117" font-family="Helvetica,sans-Serif" font-size="10.00">opencv2/core/matx.hpp</text>
</a>
</g>
</g>
<!-- Node10&#45;&gt;Node13 -->
<g id="edge13_Node000010_Node000013" class="edge">
<title>Node10&#45;&gt;Node13</title>
<g id="a_edge13_Node000010_Node000013"><a xlink:title=" ">
<path fill="none" stroke="#63b8ff" d="M311.82,-164.75C312.87,-157.8 314.37,-147.85 315.69,-139.13"/>
<polygon fill="#63b8ff" stroke="#63b8ff" points="319.17,-139.5 317.2,-129.09 312.25,-138.45 319.17,-139.5"/>
</a>
</g>
</g>
<!-- Node14 -->
<g id="Node000014" class="node">
<title>Node14</title>
<g id="a_Node000014"><a xlink:href="../../d0/d3f/util_8hpp.html" target="_top" xlink:title=" ">
<polygon fill="white" stroke="#666666" points="596,-74 493,-74 493,-55 596,-55 596,-74"/>
<text text-anchor="middle" x="544.5" y="-62" font-family="Helvetica,sans-Serif" font-size="10.00">rmvl/core/util.hpp</text>
</a>
</g>
</g>
<!-- Node10&#45;&gt;Node14 -->
<g id="edge14_Node000010_Node000014" class="edge">
<title>Node10&#45;&gt;Node14</title>
<g id="a_edge14_Node000010_Node000014"><a xlink:title=" ">
<path fill="none" stroke="#63b8ff" d="M326.39,-164.88C354.28,-149.81 411.01,-119.38 431.5,-110 457.72,-98 488.17,-86.12 510.86,-77.66"/>
<polygon fill="#63b8ff" stroke="#63b8ff" points="512.21,-80.89 520.38,-74.14 509.78,-74.32 512.21,-80.89"/>
</a>
</g>
</g>
<!-- Node15 -->
<g id="Node000015" class="node">
<title>Node15</title>
<g id="a_Node000015"><a xlink:title=" ">
<polygon fill="#e0e0e0" stroke="#999999" points="435,-19 302,-19 302,0 435,0 435,-19"/>
<text text-anchor="middle" x="368.5" y="-7" font-family="Helvetica,sans-Serif" font-size="10.00">rmvl/rmvl_modules.hpp</text>
</a>
</g>
</g>
<!-- Node14&#45;&gt;Node15 -->
<g id="edge15_Node000014_Node000015" class="edge">
<title>Node14&#45;&gt;Node15</title>
<g id="a_edge15_Node000014_Node000015"><a xlink:title=" ">
<path fill="none" stroke="#63b8ff" d="M516.22,-54.98C486.55,-46.05 439.71,-31.94 406.75,-22.02"/>
<polygon fill="#63b8ff" stroke="#63b8ff" points="407.58,-18.61 397,-19.08 405.57,-25.32 407.58,-18.61"/>
</a>
</g>
</g>
<!-- Node16 -->
<g id="Node000016" class="node">
<title>Node16</title>
<g id="a_Node000016"><a xlink:title=" ">
<polygon fill="#e0e0e0" stroke="#999999" points="503.5,-19 453.5,-19 453.5,0 503.5,0 503.5,-19"/>
<text text-anchor="middle" x="478.5" y="-7" font-family="Helvetica,sans-Serif" font-size="10.00">cstdint</text>
</a>
</g>
</g>
<!-- Node14&#45;&gt;Node16 -->
<g id="edge16_Node000014_Node000016" class="edge">
<title>Node14&#45;&gt;Node16</title>
<g id="a_edge16_Node000014_Node000016"><a xlink:title=" ">
<path fill="none" stroke="#63b8ff" d="M533.9,-54.98C524.04,-47.07 509.15,-35.11 497.28,-25.58"/>
<polygon fill="#63b8ff" stroke="#63b8ff" points="499.29,-22.7 489.3,-19.17 494.9,-28.16 499.29,-22.7"/>
</a>
</g>
</g>
<!-- Node17 -->
<g id="Node000017" class="node">
<title>Node17</title>
<g id="a_Node000017"><a xlink:title=" ">
<polygon fill="#e0e0e0" stroke="#999999" points="567.5,-19 521.5,-19 521.5,0 567.5,0 567.5,-19"/>
<text text-anchor="middle" x="544.5" y="-7" font-family="Helvetica,sans-Serif" font-size="10.00">cstdio</text>
</a>
</g>
</g>
<!-- Node14&#45;&gt;Node17 -->
<g id="edge17_Node000014_Node000017" class="edge">
<title>Node14&#45;&gt;Node17</title>
<g id="a_edge17_Node000014_Node000017"><a xlink:title=" ">
<path fill="none" stroke="#63b8ff" d="M544.5,-54.75C544.5,-47.8 544.5,-37.85 544.5,-29.13"/>
<polygon fill="#63b8ff" stroke="#63b8ff" points="548,-29.09 544.5,-19.09 541,-29.09 548,-29.09"/>
</a>
</g>
</g>
<!-- Node18 -->
<g id="Node000018" class="node">
<title>Node18</title>
<g id="a_Node000018"><a xlink:title=" ">
<polygon fill="#e0e0e0" stroke="#999999" points="629.5,-19 585.5,-19 585.5,0 629.5,0 629.5,-19"/>
<text text-anchor="middle" x="607.5" y="-7" font-family="Helvetica,sans-Serif" font-size="10.00">string</text>
</a>
</g>
</g>
<!-- Node14&#45;&gt;Node18 -->
<g id="edge18_Node000014_Node000018" class="edge">
<title>Node14&#45;&gt;Node18</title>
<g id="a_edge18_Node000014_Node000018"><a xlink:title=" ">
<path fill="none" stroke="#63b8ff" d="M554.62,-54.98C563.94,-47.15 577.97,-35.34 589.24,-25.86"/>
<polygon fill="#63b8ff" stroke="#63b8ff" points="591.79,-28.29 597.19,-19.17 587.29,-22.93 591.79,-28.29"/>
</a>
</g>
</g>
<!-- Node19 -->
<g id="Node000019" class="node">
<title>Node19</title>
<g id="a_Node000019"><a xlink:href="../../db/d41/rmvldef_8hpp.html" target="_top" xlink:title=" ">
<polygon fill="white" stroke="#666666" points="723,-19 648,-19 648,0 723,0 723,-19"/>
<text text-anchor="middle" x="685.5" y="-7" font-family="Helvetica,sans-Serif" font-size="10.00">rmvldef.hpp</text>
</a>
</g>
</g>
<!-- Node14&#45;&gt;Node19 -->
<g id="edge19_Node000014_Node000019" class="edge">
<title>Node14&#45;&gt;Node19</title>
<g id="a_edge19_Node000014_Node000019"><a xlink:title=" ">
<path fill="none" stroke="#63b8ff" d="M567.15,-54.98C590.35,-46.27 626.62,-32.63 652.9,-22.75"/>
<polygon fill="#63b8ff" stroke="#63b8ff" points="654.3,-25.97 662.43,-19.17 651.84,-19.41 654.3,-25.97"/>
</a>
</g>
</g>
<!-- Node20&#45;&gt;Node14 -->
<g id="edge21_Node000020_Node000014" class="edge">
<title>Node20&#45;&gt;Node14</title>
<g id="a_edge21_Node000020_Node000014"><a xlink:title=" ">
<path fill="none" stroke="#63b8ff" d="M656.13,-109.98C634.35,-101.3 600.34,-87.75 575.58,-77.88"/>
<polygon fill="#63b8ff" stroke="#63b8ff" points="576.84,-74.62 566.26,-74.17 574.25,-81.12 576.84,-74.62"/>
</a>
</g>
</g>
<!-- Node22 -->
<g id="Node000022" class="node">
<title>Node22</title>
<g id="a_Node000022"><a xlink:title=" ">
<polygon fill="#e0e0e0" stroke="#999999" points="482.5,-129 440.5,-129 440.5,-110 482.5,-110 482.5,-129"/>
<text text-anchor="middle" x="461.5" y="-117" font-family="Helvetica,sans-Serif" font-size="10.00">array</text>
</a>
</g>
</g>
<!-- Node21&#45;&gt;Node22 -->
<g id="edge23_Node000021_Node000022" class="edge">
<title>Node21&#45;&gt;Node22</title>
<g id="a_edge23_Node000021_Node000022"><a xlink:title=" ">
<path fill="none" stroke="#63b8ff" d="M521.09,-164.98C510.39,-157 494.16,-144.88 481.34,-135.31"/>
<polygon fill="#63b8ff" stroke="#63b8ff" points="483.22,-132.35 473.11,-129.17 479.03,-137.96 483.22,-132.35"/>
</a>
</g>
</g>
<!-- Node23 -->
<g id="Node000023" class="node">
<title>Node23</title>
<g id="a_Node000023"><a xlink:title=" ">
<polygon fill="#e0e0e0" stroke="#999999" points="548.5,-129 500.5,-129 500.5,-110 548.5,-110 548.5,-129"/>
<text text-anchor="middle" x="524.5" y="-117" font-family="Helvetica,sans-Serif" font-size="10.00">iosfwd</text>
</a>
</g>
</g>
<!-- Node21&#45;&gt;Node23 -->
<g id="edge24_Node000021_Node000023" class="edge">
<title>Node21&#45;&gt;Node23</title>
<g id="a_edge24_Node000021_Node000023"><a xlink:title=" ">
<path fill="none" stroke="#63b8ff" d="M531.18,-164.75C530.13,-157.8 528.63,-147.85 527.31,-139.13"/>
<polygon fill="#63b8ff" stroke="#63b8ff" points="530.75,-138.45 525.8,-129.09 523.83,-139.5 530.75,-138.45"/>
</a>
</g>
</g>
<!-- Node24 -->
<g id="Node000024" class="node">
<title>Node24</title>
<g id="a_Node000024"><a xlink:title=" ">
<polygon fill="#e0e0e0" stroke="#999999" points="614,-129 567,-129 567,-110 614,-110 614,-129"/>
<text text-anchor="middle" x="590.5" y="-117" font-family="Helvetica,sans-Serif" font-size="10.00">vector</text>
</a>
</g>
</g>
<!-- Node21&#45;&gt;Node24 -->
<g id="edge25_Node000021_Node000024" class="edge">
<title>Node21&#45;&gt;Node24</title>
<g id="a_edge25_Node000021_Node000024"><a xlink:title=" ">
<path fill="none" stroke="#63b8ff" d="M541.82,-164.98C550.31,-157.23 563.06,-145.58 573.38,-136.14"/>
<polygon fill="#63b8ff" stroke="#63b8ff" points="575.99,-138.5 581.01,-129.17 571.27,-133.33 575.99,-138.5"/>
</a>
</g>
</g>
<!-- Node25&#45;&gt;Node20 -->
<g id="edge29_Node000025_Node000020" class="edge">
<title>Node25&#45;&gt;Node20</title>
<g id="a_edge29_Node000025_Node000020"><a xlink:title=" ">
<path fill="none" stroke="#63b8ff" d="M751.36,-164.98C737.71,-156.77 716.81,-144.18 700.72,-134.49"/>
<polygon fill="#63b8ff" stroke="#63b8ff" points="702.27,-131.33 691.9,-129.17 698.66,-137.33 702.27,-131.33"/>
</a>
</g>
</g>
<!-- Node26 -->
<g id="Node000026" class="node">
<title>Node26</title>
<g id="a_Node000026"><a xlink:title=" ">
<polygon fill="#e0e0e0" stroke="#999999" points="798.5,-129 740.5,-129 740.5,-110 798.5,-110 798.5,-129"/>
<text text-anchor="middle" x="769.5" y="-117" font-family="Helvetica,sans-Serif" font-size="10.00">memory</text>
</a>
</g>
</g>
<!-- Node25&#45;&gt;Node26 -->
<g id="edge27_Node000025_Node000026" class="edge">
<title>Node25&#45;&gt;Node26</title>
<g id="a_edge27_Node000025_Node000026"><a xlink:title=" ">
<path fill="none" stroke="#63b8ff" d="M766.16,-164.75C766.68,-157.8 767.44,-147.85 768.09,-139.13"/>
<polygon fill="#63b8ff" stroke="#63b8ff" points="771.59,-139.32 768.85,-129.09 764.61,-138.8 771.59,-139.32"/>
</a>
</g>
</g>
<!-- Node27 -->
<g id="Node000027" class="node">
<title>Node27</title>
<g id="a_Node000027"><a xlink:title=" ">
<polygon fill="#e0e0e0" stroke="#999999" points="950,-129 817,-129 817,-110 950,-110 950,-129"/>
<text text-anchor="middle" x="883.5" y="-117" font-family="Helvetica,sans-Serif" font-size="10.00">opencv2/core/types.hpp</text>
</a>
</g>
</g>
<!-- Node25&#45;&gt;Node27 -->
<g id="edge28_Node000025_Node000027" class="edge">
<title>Node25&#45;&gt;Node27</title>
<g id="a_edge28_Node000025_Node000027"><a xlink:title=" ">
<path fill="none" stroke="#63b8ff" d="M784.46,-164.98C803.53,-156.42 833.16,-143.11 855.05,-133.28"/>
<polygon fill="#63b8ff" stroke="#63b8ff" points="856.51,-136.46 864.2,-129.17 853.64,-130.07 856.51,-136.46"/>
</a>
</g>
</g>
<!-- Node29 -->
<g id="Node000029" class="node">
<title>Node29</title>
<g id="a_Node000029"><a xlink:title=" ">
<polygon fill="#e0e0e0" stroke="#999999" points="407,-305 282,-305 282,-286 407,-286 407,-305"/>
<text text-anchor="middle" x="344.5" y="-293" font-family="Helvetica,sans-Serif" font-size="10.00">opencv2/core/mat.hpp</text>
</a>
</g>
</g>
<!-- Node28&#45;&gt;Node29 -->
<g id="edge31_Node000028_Node000029" class="edge">
<title>Node28&#45;&gt;Node29</title>
<g id="a_edge31_Node000028_Node000029"><a xlink:title=" ">
<path fill="none" stroke="#63b8ff" d="M380.4,-340.75C374.33,-333.26 365.41,-322.28 357.99,-313.13"/>
<polygon fill="#63b8ff" stroke="#63b8ff" points="360.49,-310.65 351.47,-305.09 355.05,-315.06 360.49,-310.65"/>
</a>
</g>
</g>
<!-- Node30&#45;&gt;Node29 -->
<g id="edge33_Node000030_Node000029" class="edge">
<title>Node30&#45;&gt;Node29</title>
<g id="a_edge33_Node000030_Node000029"><a xlink:title=" ">
<path fill="none" stroke="#63b8ff" d="M295.74,-395.92C297.79,-383.38 302.57,-359.5 311.5,-341 316.35,-330.95 323.59,-320.87 330.04,-312.85"/>
<polygon fill="#63b8ff" stroke="#63b8ff" points="332.84,-314.96 336.6,-305.05 327.48,-310.45 332.84,-314.96"/>
</a>
</g>
</g>
<!-- Node31&#45;&gt;Node5 -->
<g id="edge43_Node000031_Node000005" class="edge">
<title>Node31&#45;&gt;Node5</title>
<g id="a_edge43_Node000031_Node000005"><a xlink:title=" ">
<path fill="none" stroke="#63b8ff" d="M651.69,-340.98C628.33,-332.27 591.8,-318.63 565.33,-308.75"/>
<polygon fill="#63b8ff" stroke="#63b8ff" points="566.32,-305.39 555.73,-305.17 563.87,-311.95 566.32,-305.39"/>
</a>
</g>
</g>
<!-- Node32 -->
<g id="Node000032" class="node">
<title>Node32</title>
<g id="a_Node000032"><a xlink:href="../../dd/d92/combo_2armor_8h.html" target="_top" xlink:title="装甲板类头文件">
<polygon fill="white" stroke="#666666" points="732.5,-305 616.5,-305 616.5,-286 732.5,-286 732.5,-305"/>
<text text-anchor="middle" x="674.5" y="-293" font-family="Helvetica,sans-Serif" font-size="10.00">rmvl/combo/armor.h</text>
</a>
</g>
</g>
<!-- Node31&#45;&gt;Node32 -->
<g id="edge35_Node000031_Node000032" class="edge">
<title>Node31&#45;&gt;Node32</title>
<g id="a_edge35_Node000031_Node000032"><a xlink:title=" ">
<path fill="none" stroke="#63b8ff" d="M674.5,-340.75C674.5,-333.8 674.5,-323.85 674.5,-315.13"/>
<polygon fill="#63b8ff" stroke="#63b8ff" points="678,-315.09 674.5,-305.09 671,-315.09 678,-315.09"/>
</a>
</g>
</g>
<!-- Node35 -->
<g id="Node000035" class="node">
<title>Node35</title>
<g id="a_Node000035"><a xlink:href="../../db/d0f/kalman_8hpp.html" target="_top" xlink:title="包含轻量级 cv::Matx 的卡尔曼滤波模块">
<polygon fill="white" stroke="#666666" points="1081,-305 958,-305 958,-286 1081,-286 1081,-305"/>
<text text-anchor="middle" x="1019.5" y="-293" font-family="Helvetica,sans-Serif" font-size="10.00">rmvl/core/kalman.hpp</text>
</a>
</g>
</g>
<!-- Node31&#45;&gt;Node35 -->
<g id="edge40_Node000031_Node000035" class="edge">
<title>Node31&#45;&gt;Node35</title>
<g id="a_edge40_Node000031_Node000035"><a xlink:title=" ">
<path fill="none" stroke="#63b8ff" d="M729.93,-340.98C790.95,-331.61 888.98,-316.55 953.81,-306.59"/>
<polygon fill="#63b8ff" stroke="#63b8ff" points="954.57,-310.02 963.92,-305.04 953.51,-303.1 954.57,-310.02"/>
</a>
</g>
</g>
<!-- Node32&#45;&gt;Node7 -->
<g id="edge37_Node000032_Node000007" class="edge">
<title>Node32&#45;&gt;Node7</title>
<g id="a_edge37_Node000032_Node000007"><a xlink:title=" ">
<path fill="none" stroke="#63b8ff" d="M656.18,-285.99C635.09,-276.2 600.24,-260.02 575.92,-248.73"/>
<polygon fill="#63b8ff" stroke="#63b8ff" points="577.39,-245.55 566.84,-244.52 574.44,-251.9 577.39,-245.55"/>
</a>
</g>
</g>
<!-- Node33 -->
<g id="Node000033" class="node">
<title>Node33</title>
<g id="a_Node000033"><a xlink:title=" ">
<polygon fill="#e0e0e0" stroke="#999999" points="722,-244.5 627,-244.5 627,-225.5 722,-225.5 722,-244.5"/>
<text text-anchor="middle" x="674.5" y="-232.5" font-family="Helvetica,sans-Serif" font-size="10.00">opencv2/ml.hpp</text>
</a>
</g>
</g>
<!-- Node32&#45;&gt;Node33 -->
<g id="edge36_Node000032_Node000033" class="edge">
<title>Node32&#45;&gt;Node33</title>
<g id="a_edge36_Node000032_Node000033"><a xlink:title=" ">
<path fill="none" stroke="#63b8ff" d="M674.5,-285.87C674.5,-277.75 674.5,-265.31 674.5,-254.89"/>
<polygon fill="#63b8ff" stroke="#63b8ff" points="678,-254.67 674.5,-244.67 671,-254.67 678,-254.67"/>
</a>
</g>
</g>
<!-- Node34 -->
<g id="Node000034" class="node">
<title>Node34</title>
<g id="a_Node000034"><a xlink:href="../../d4/d54/feature_2light__blob_8h.html" target="_top" xlink:title="灯条类头文件">
<polygon fill="white" stroke="#666666" points="842.5,-250 740.5,-250 740.5,-220 842.5,-220 842.5,-250"/>
<text text-anchor="start" x="748.5" y="-238" font-family="Helvetica,sans-Serif" font-size="10.00">rmvl/feature/light</text>
<text text-anchor="middle" x="791.5" y="-227" font-family="Helvetica,sans-Serif" font-size="10.00">_blob.h</text>
</a>
</g>
</g>
<!-- Node32&#45;&gt;Node34 -->
<g id="edge38_Node000032_Node000034" class="edge">
<title>Node32&#45;&gt;Node34</title>
<g id="a_edge38_Node000032_Node000034"><a xlink:title=" ">
<path fill="none" stroke="#63b8ff" d="M691.51,-285.99C707.85,-277.82 733.09,-265.2 754.13,-254.69"/>
<polygon fill="#63b8ff" stroke="#63b8ff" points="755.77,-257.78 763.14,-250.18 752.64,-251.52 755.77,-257.78"/>
</a>
</g>
</g>
<!-- Node34&#45;&gt;Node25 -->
<g id="edge39_Node000034_Node000025" class="edge">
<title>Node34&#45;&gt;Node25</title>
<g id="a_edge39_Node000034_Node000025"><a xlink:title=" ">
<path fill="none" stroke="#63b8ff" d="M785.21,-219.84C781.7,-211.95 777.3,-202.05 773.55,-193.61"/>
<polygon fill="#63b8ff" stroke="#63b8ff" points="776.66,-191.98 769.4,-184.27 770.26,-194.83 776.66,-191.98"/>
</a>
</g>
</g>
<!-- Node35&#45;&gt;Node9 -->
<g id="edge42_Node000035_Node000009" class="edge">
<title>Node35&#45;&gt;Node9</title>
<g id="a_edge42_Node000035_Node000009"><a xlink:title=" ">
<path fill="none" stroke="#63b8ff" d="M1019.5,-285.63C1019.5,-258.64 1019.5,-177.03 1019.5,-139.61"/>
<polygon fill="#63b8ff" stroke="#63b8ff" points="1023,-139.14 1019.5,-129.14 1016,-139.14 1023,-139.14"/>
</a>
</g>
</g>
<!-- Node36 -->
<g id="Node000036" class="node">
<title>Node36</title>
<g id="a_Node000036"><a xlink:title=" ">
<polygon fill="#e0e0e0" stroke="#999999" points="1113,-244.5 1048,-244.5 1048,-225.5 1113,-225.5 1113,-244.5"/>
<text text-anchor="middle" x="1080.5" y="-232.5" font-family="Helvetica,sans-Serif" font-size="10.00">functional</text>
</a>
</g>
</g>
<!-- Node35&#45;&gt;Node36 -->
<g id="edge41_Node000035_Node000036" class="edge">
<title>Node35&#45;&gt;Node36</title>
<g id="a_edge41_Node000035_Node000036"><a xlink:title=" ">
<path fill="none" stroke="#63b8ff" d="M1028.5,-285.87C1037.87,-276.88 1052.75,-262.61 1064.2,-251.64"/>
<polygon fill="#63b8ff" stroke="#63b8ff" points="1066.67,-254.12 1071.46,-244.67 1061.82,-249.06 1066.67,-254.12"/>
</a>
</g>
</g>
</g>
</svg>
