<?xml version="1.0" encoding="UTF-8" standalone="no"?>
<!DOCTYPE svg PUBLIC "-//W3C//DTD SVG 1.1//EN"
 "http://www.w3.org/Graphics/SVG/1.1/DTD/svg11.dtd">
<!-- Generated by graphviz version 2.43.0 (0)
 -->
<!-- Title: rmvl/ml/ort.h Pages: 1 -->
<svg width="350pt" height="148pt"
 viewBox="0.00 0.00 349.50 148.00" xmlns="http://www.w3.org/2000/svg" xmlns:xlink="http://www.w3.org/1999/xlink">
<g id="graph0" class="graph" transform="scale(1 1) rotate(0) translate(4 144)">
<title>rmvl/ml/ort.h</title>
<!-- Node1 -->
<g id="Node000001" class="node">
<title>Node1</title>
<g id="a_Node000001"><a xlink:title="the deployment library header file of the ONNXruntime (Ort)">
<polygon fill="#999999" stroke="#666666" points="165.5,-140 85.5,-140 85.5,-121 165.5,-121 165.5,-140"/>
<text text-anchor="middle" x="125.5" y="-128" font-family="Helvetica,sans-Serif" font-size="10.00">rmvl/ml/ort.h</text>
</a>
</g>
</g>
<!-- Node2 -->
<g id="Node000002" class="node">
<title>Node2</title>
<g id="a_Node000002"><a xlink:title=" ">
<polygon fill="#e0e0e0" stroke="#999999" points="35,-79.5 0,-79.5 0,-60.5 35,-60.5 35,-79.5"/>
<text text-anchor="middle" x="17.5" y="-67.5" font-family="Helvetica,sans-Serif" font-size="10.00">any</text>
</a>
</g>
</g>
<!-- Node1&#45;&gt;Node2 -->
<g id="edge1_Node000001_Node000002" class="edge">
<title>Node1&#45;&gt;Node2</title>
<g id="a_edge1_Node000001_Node000002"><a xlink:title=" ">
<path fill="none" stroke="#63b8ff" d="M109.56,-120.87C91.86,-111.28 63.04,-95.67 42.36,-84.47"/>
<polygon fill="#63b8ff" stroke="#63b8ff" points="43.96,-81.35 33.5,-79.67 40.63,-87.51 43.96,-81.35"/>
</a>
</g>
</g>
<!-- Node3 -->
<g id="Node000003" class="node">
<title>Node3</title>
<g id="a_Node000003"><a xlink:title=" ">
<polygon fill="#e0e0e0" stroke="#999999" points="197.5,-85 53.5,-85 53.5,-55 197.5,-55 197.5,-85"/>
<text text-anchor="start" x="61.5" y="-73" font-family="Helvetica,sans-Serif" font-size="10.00">onnxruntime/onnxruntime</text>
<text text-anchor="middle" x="125.5" y="-62" font-family="Helvetica,sans-Serif" font-size="10.00">_cxx_api.h</text>
</a>
</g>
</g>
<!-- Node1&#45;&gt;Node3 -->
<g id="edge2_Node000001_Node000003" class="edge">
<title>Node1&#45;&gt;Node3</title>
<g id="a_edge2_Node000001_Node000003"><a xlink:title=" ">
<path fill="none" stroke="#63b8ff" d="M125.5,-120.87C125.5,-114.11 125.5,-104.35 125.5,-95.26"/>
<polygon fill="#63b8ff" stroke="#63b8ff" points="129,-95.11 125.5,-85.11 122,-95.11 129,-95.11"/>
</a>
</g>
</g>
<!-- Node4 -->
<g id="Node000004" class="node">
<title>Node4</title>
<g id="a_Node000004"><a xlink:href="../../d2/d4c/pretreat_8hpp.html" target="_top" xlink:title="图像预处理模块">
<polygon fill="white" stroke="#666666" points="341.5,-79.5 215.5,-79.5 215.5,-60.5 341.5,-60.5 341.5,-79.5"/>
<text text-anchor="middle" x="278.5" y="-67.5" font-family="Helvetica,sans-Serif" font-size="10.00">rmvl/core/pretreat.hpp</text>
</a>
</g>
</g>
<!-- Node1&#45;&gt;Node4 -->
<g id="edge3_Node000001_Node000004" class="edge">
<title>Node1&#45;&gt;Node4</title>
<g id="a_edge3_Node000001_Node000004"><a xlink:title=" ">
<path fill="none" stroke="#63b8ff" d="M147.75,-120.99C173.81,-111.03 217.18,-94.45 246.77,-83.13"/>
<polygon fill="#63b8ff" stroke="#63b8ff" points="248.14,-86.36 256.23,-79.52 245.64,-79.82 248.14,-86.36"/>
</a>
</g>
</g>
<!-- Node5 -->
<g id="Node000005" class="node">
<title>Node5</title>
<g id="a_Node000005"><a xlink:title=" ">
<polygon fill="#e0e0e0" stroke="#999999" points="341,-19 216,-19 216,0 341,0 341,-19"/>
<text text-anchor="middle" x="278.5" y="-7" font-family="Helvetica,sans-Serif" font-size="10.00">opencv2/core/mat.hpp</text>
</a>
</g>
</g>
<!-- Node4&#45;&gt;Node5 -->
<g id="edge4_Node000004_Node000005" class="edge">
<title>Node4&#45;&gt;Node5</title>
<g id="a_edge4_Node000004_Node000005"><a xlink:title=" ">
<path fill="none" stroke="#63b8ff" d="M278.5,-60.37C278.5,-52.25 278.5,-39.81 278.5,-29.39"/>
<polygon fill="#63b8ff" stroke="#63b8ff" points="282,-29.17 278.5,-19.17 275,-29.17 282,-29.17"/>
</a>
</g>
</g>
</g>
</svg>
