<?xml version="1.0" encoding="UTF-8" standalone="no"?>
<!DOCTYPE svg PUBLIC "-//W3C//DTD SVG 1.1//EN"
 "http://www.w3.org/Graphics/SVG/1.1/DTD/svg11.dtd">
<!-- Generated by graphviz version 2.43.0 (0)
 -->
<!-- Title: rm::para::GyroPredictorParam Pages: 1 -->
<svg width="149pt" height="205pt"
 viewBox="0.00 0.00 149.00 205.00" xmlns="http://www.w3.org/2000/svg" xmlns:xlink="http://www.w3.org/1999/xlink">

<svg id="main" version="1.1" xmlns="http://www.w3.org/2000/svg" xmlns:xlink="http://www.w3.org/1999/xlink" xml:space="preserve">

<style type="text/css"><![CDATA[
.node, .edge {opacity: 0.7;}
.node.selected, .edge.selected {opacity: 1;}
.edge:hover path { stroke: red; }
.edge:hover polygon { stroke: red; fill: red; }
]]></style>
<script type="application/ecmascript" xlink:href="../../svg.min.js"/>
<svg id="graph" class="graph">
<g id="graph0" class="graph" transform="scale(1 1) rotate(0) translate(4 201)">
<title>rm::para::GyroPredictorParam</title>
<!-- Node1 -->
<g id="Node000001" class="node">
<title>Node1</title>
<g id="a_Node000001"><a xlink:title="GyroPredictorParam 参数模块">
<polygon fill="#999999" stroke="transparent" points="141,-79 0,-79 0,0 141,0 141,-79"/>
<text text-anchor="start" x="5.5" y="-66.5" font-family="Helvetica,sans-Serif" font-size="10.00">rm::para::GyroPredictorParam</text>
<text text-anchor="start" x="69" y="-51.5" font-family="Helvetica,sans-Serif" font-size="10.00"> </text>
<text text-anchor="start" x="11" y="-36.5" font-family="Helvetica,sans-Serif" font-size="10.00">+</text>
<text text-anchor="start" x="28.5" y="-36.5" font-family="Helvetica,sans-Serif" font-size="10.00">GyroPredictorParam()</text>
<text text-anchor="start" x="11" y="-21.5" font-family="Helvetica,sans-Serif" font-size="10.00">+</text>
<text text-anchor="start" x="28.5" y="-21.5" font-family="Helvetica,sans-Serif" font-size="10.00">read()</text>
<text text-anchor="start" x="11" y="-6.5" font-family="Helvetica,sans-Serif" font-size="10.00">+</text>
<text text-anchor="start" x="28.5" y="-6.5" font-family="Helvetica,sans-Serif" font-size="10.00">write()</text>
<polygon fill="#666666" stroke="#666666" points="0.5,-61.5 0.5,-61.5 141.5,-61.5 141.5,-61.5 0.5,-61.5"/>
<polygon fill="#666666" stroke="#666666" points="0.5,-46.5 0.5,-46.5 141.5,-46.5 141.5,-46.5 0.5,-46.5"/>
<polygon fill="none" stroke="#666666" points="0,0 0,-79 141,-79 141,0 0,0"/>
</a>
</g>
</g>
<!-- Node2 -->
<g id="Node000002" class="node">
<title>Node2</title>
<g id="a_Node000002"><a xlink:title=" ">
<polygon fill="white" stroke="transparent" points="90,-197 51,-197 51,-148 90,-148 90,-197"/>
<text text-anchor="start" x="56.5" y="-184.5" font-family="Helvetica,sans-Serif" font-size="10.00">double</text>
<text text-anchor="start" x="69" y="-169.5" font-family="Helvetica,sans-Serif" font-size="10.00"> </text>
<text text-anchor="start" x="69" y="-154.5" font-family="Helvetica,sans-Serif" font-size="10.00"> </text>
<polygon fill="#666666" stroke="#666666" points="51.5,-179.5 51.5,-179.5 90.5,-179.5 90.5,-179.5 51.5,-179.5"/>
<polygon fill="#666666" stroke="#666666" points="51.5,-164.5 51.5,-164.5 90.5,-164.5 90.5,-164.5 51.5,-164.5"/>
<polygon fill="none" stroke="#666666" points="51,-148 51,-197 90,-197 90,-148 51,-148"/>
</a>
</g>
</g>
<!-- Node2&#45;&gt;Node1 -->
<g id="edge1_Node000001_Node000002" class="edge">
<title>Node2&#45;&gt;Node1</title>
<g id="a_edge1_Node000001_Node000002"><a xlink:title=" ">
<path fill="none" stroke="#63b8ff" d="M70.5,-147.78C70.5,-132.04 70.5,-110.77 70.5,-91.33"/>
<polygon fill="none" stroke="#63b8ff" points="70.5,-91.21 66.5,-85.21 70.5,-79.21 74.5,-85.21 70.5,-91.21"/>
</a>
</g>
<text text-anchor="middle" x="97.5" y="-122" font-family="Helvetica,sans-Serif" font-size="10.00" fill="grey"> +B</text>
<text text-anchor="middle" x="97.5" y="-111" font-family="Helvetica,sans-Serif" font-size="10.00" fill="grey">+K</text>
<text text-anchor="middle" x="97.5" y="-100" font-family="Helvetica,sans-Serif" font-size="10.00" fill="grey">+SHOOT_B</text>
</g>
</g>
</svg>
</svg>

<style type='text/css'>
<![CDATA[
[data-mouse-over-selected='false'] { opacity: 0.7; }
[data-mouse-over-selected='true']  { opacity: 1.0; }
]]>
</style>
<script type="application/ecmascript"><![CDATA[
document.addEventListener('DOMContentLoaded', (event) => {
  highlightEdges();
  highlightAdjacentNodes();
});
]]></script>
</svg>
