<?xml version="1.0" encoding="UTF-8" standalone="no"?>
<!DOCTYPE svg PUBLIC "-//W3C//DTD SVG 1.1//EN"
 "http://www.w3.org/Graphics/SVG/1.1/DTD/svg11.dtd">
<!-- Generated by graphviz version 2.43.0 (0)
 -->
<!-- Title: 相机模块 Pages: 1 -->
<svg width="279pt" height="101pt"
 viewBox="0.00 0.00 279.00 101.00" xmlns="http://www.w3.org/2000/svg" xmlns:xlink="http://www.w3.org/1999/xlink">

<svg id="main" version="1.1" xmlns="http://www.w3.org/2000/svg" xmlns:xlink="http://www.w3.org/1999/xlink" xml:space="preserve">

<style type="text/css"><![CDATA[
.node, .edge {opacity: 0.7;}
.node.selected, .edge.selected {opacity: 1;}
.edge:hover path { stroke: red; }
.edge:hover polygon { stroke: red; fill: red; }
]]></style>
<script type="application/ecmascript" xlink:href="../../svg.min.js"/>
<svg id="graph" class="graph">
<g id="graph0" class="graph" transform="scale(1 1) rotate(0) translate(4 97)">
<title>相机模块</title>
<!-- Node1 -->
<g id="Node000001" class="node">
<title>Node1</title>
<g id="a_Node000001"><a xlink:title=" ">
<polygon fill="#999999" stroke="#666666" points="56,-56 0,-56 0,-37 56,-37 56,-56"/>
<text text-anchor="middle" x="28" y="-44" font-family="Helvetica,sans-Serif" font-size="10.00">相机模块</text>
</a>
</g>
</g>
<!-- Node2 -->
<g id="Node000002" class="node">
<title>Node2</title>
<g id="a_Node000002"><a xlink:href="../../db/d27/group__hik__camera.html" target="_top" xlink:title=" ">
<polygon fill="white" stroke="#666666" points="271,-93 92,-93 92,-74 271,-74 271,-93"/>
<text text-anchor="middle" x="181.5" y="-81" font-family="Helvetica,sans-Serif" font-size="10.00">海康机器人（HikRobot）工业相机库</text>
</a>
</g>
</g>
<!-- Node1&#45;&gt;Node2 -->
<g id="edge1" class="edge">
<title>Node1&#45;&gt;Node2</title>
<path fill="none" stroke="black" d="M65.85,-58.23C74.39,-60.78 83.48,-63.35 92,-65.5 104.01,-68.53 117.04,-71.4 129.31,-73.92"/>
<polygon fill="black" stroke="black" points="66.72,-54.84 56.14,-55.28 64.69,-61.54 66.72,-54.84"/>
</g>
<!-- Node3 -->
<g id="Node000003" class="node">
<title>Node3</title>
<g id="a_Node000003"><a xlink:href="../../dd/df4/group__mv__camera.html" target="_top" xlink:title=" ">
<polygon fill="white" stroke="#666666" points="260.5,-56 102.5,-56 102.5,-37 260.5,-37 260.5,-56"/>
<text text-anchor="middle" x="181.5" y="-44" font-family="Helvetica,sans-Serif" font-size="10.00">迈德威视（MindVision）相机库</text>
</a>
</g>
</g>
<!-- Node1&#45;&gt;Node3 -->
<g id="edge2" class="edge">
<title>Node1&#45;&gt;Node3</title>
<path fill="none" stroke="black" d="M66.16,-46.5C77.18,-46.5 89.7,-46.5 102.31,-46.5"/>
<polygon fill="black" stroke="black" points="66.09,-43 56.09,-46.5 66.09,-50 66.09,-43"/>
</g>
<!-- Node4 -->
<g id="Node000004" class="node">
<title>Node4</title>
<g id="a_Node000004"><a xlink:href="../../d4/d5d/group__opt__camera.html" target="_top" xlink:title=" ">
<polygon fill="white" stroke="#666666" points="238.5,-19 124.5,-19 124.5,0 238.5,0 238.5,-19"/>
<text text-anchor="middle" x="181.5" y="-7" font-family="Helvetica,sans-Serif" font-size="10.00">奥普特机器视觉相机库</text>
</a>
</g>
</g>
<!-- Node1&#45;&gt;Node4 -->
<g id="edge3" class="edge">
<title>Node1&#45;&gt;Node4</title>
<path fill="none" stroke="black" d="M65.9,-35.51C74.44,-33.09 83.51,-30.62 92,-28.5 105.26,-25.19 119.73,-21.93 133.06,-19.07"/>
<polygon fill="black" stroke="black" points="64.83,-32.18 56.18,-38.3 66.76,-38.91 64.83,-32.18"/>
</g>
</g>
</svg>
</svg>

<style type='text/css'>
<![CDATA[
[data-mouse-over-selected='false'] { opacity: 0.7; }
[data-mouse-over-selected='true']  { opacity: 1.0; }
]]>
</style>
<script type="application/ecmascript"><![CDATA[
document.addEventListener('DOMContentLoaded', (event) => {
  highlightEdges();
  highlightAdjacentNodes();
});
]]></script>
</svg>
