<?xml version="1.0" encoding="UTF-8" standalone="no"?>
<!DOCTYPE svg PUBLIC "-//W3C//DTD SVG 1.1//EN"
 "http://www.w3.org/Graphics/SVG/1.1/DTD/svg11.dtd">
<!-- Generated by graphviz version 2.43.0 (0)
 -->
<!-- Title: rmvl/opcua/client.hpp Pages: 1 -->
<svg width="1007pt" height="313pt"
 viewBox="0.00 0.00 1006.50 313.00" xmlns="http://www.w3.org/2000/svg" xmlns:xlink="http://www.w3.org/1999/xlink">
<g id="graph0" class="graph" transform="scale(1 1) rotate(0) translate(4 309)">
<title>rmvl/opcua/client.hpp</title>
<!-- Node1 -->
<g id="Node000001" class="node">
<title>Node1</title>
<g id="a_Node000001"><a xlink:title="OPC UA 客户端">
<polygon fill="#999999" stroke="#666666" points="282,-305 160,-305 160,-286 282,-286 282,-305"/>
<text text-anchor="middle" x="221" y="-293" font-family="Helvetica,sans-Serif" font-size="10.00">rmvl/opcua/client.hpp</text>
</a>
</g>
</g>
<!-- Node2 -->
<g id="Node000002" class="node">
<title>Node2</title>
<g id="a_Node000002"><a xlink:title=" ">
<polygon fill="#e0e0e0" stroke="#999999" points="42,-250 0,-250 0,-231 42,-231 42,-250"/>
<text text-anchor="middle" x="21" y="-238" font-family="Helvetica,sans-Serif" font-size="10.00">array</text>
</a>
</g>
</g>
<!-- Node1&#45;&gt;Node2 -->
<g id="edge1_Node000001_Node000002" class="edge">
<title>Node1&#45;&gt;Node2</title>
<g id="a_edge1_Node000001_Node000002"><a xlink:title=" ">
<path fill="none" stroke="#63b8ff" d="M187.72,-286C155.42,-277.7 104.77,-264.57 52.14,-250.27"/>
<polygon fill="#63b8ff" stroke="#63b8ff" points="52.86,-246.84 42.29,-247.59 51.02,-253.59 52.86,-246.84"/>
</a>
</g>
</g>
<!-- Node3 -->
<g id="Node000003" class="node">
<title>Node3</title>
<g id="a_Node000003"><a xlink:title=" ">
<polygon fill="#e0e0e0" stroke="#999999" points="239.5,-250 60.5,-250 60.5,-231 239.5,-231 239.5,-250"/>
<text text-anchor="middle" x="150" y="-238" font-family="Helvetica,sans-Serif" font-size="10.00">open62541/client_subscriptions.h</text>
</a>
</g>
</g>
<!-- Node1&#45;&gt;Node3 -->
<g id="edge2_Node000001_Node000003" class="edge">
<title>Node1&#45;&gt;Node3</title>
<g id="a_edge2_Node000001_Node000003"><a xlink:title=" ">
<path fill="none" stroke="#63b8ff" d="M209.59,-285.98C198.89,-278 182.66,-265.88 169.84,-256.31"/>
<polygon fill="#63b8ff" stroke="#63b8ff" points="171.72,-253.35 161.61,-250.17 167.53,-258.96 171.72,-253.35"/>
</a>
</g>
</g>
<!-- Node4 -->
<g id="Node000004" class="node">
<title>Node4</title>
<g id="a_Node000004"><a xlink:href="../../df/de1/object_8hpp.html" target="_top" xlink:title="对象（类型）">
<polygon fill="white" stroke="#666666" points="326,-250 258,-250 258,-231 326,-231 326,-250"/>
<text text-anchor="middle" x="292" y="-238" font-family="Helvetica,sans-Serif" font-size="10.00">object.hpp</text>
</a>
</g>
</g>
<!-- Node1&#45;&gt;Node4 -->
<g id="edge3_Node000001_Node000004" class="edge">
<title>Node1&#45;&gt;Node4</title>
<g id="a_edge3_Node000001_Node000004"><a xlink:title=" ">
<path fill="none" stroke="#63b8ff" d="M232.41,-285.98C243.11,-278 259.34,-265.88 272.16,-256.31"/>
<polygon fill="#63b8ff" stroke="#63b8ff" points="274.47,-258.96 280.39,-250.17 270.28,-253.35 274.47,-258.96"/>
</a>
</g>
</g>
<!-- Node20 -->
<g id="Node000020" class="node">
<title>Node20</title>
<g id="a_Node000020"><a xlink:href="../../d8/d11/view_8hpp.html" target="_top" xlink:title="视图">
<polygon fill="white" stroke="#666666" points="401,-195 341,-195 341,-176 401,-176 401,-195"/>
<text text-anchor="middle" x="371" y="-183" font-family="Helvetica,sans-Serif" font-size="10.00">view.hpp</text>
</a>
</g>
</g>
<!-- Node1&#45;&gt;Node20 -->
<g id="edge19_Node000001_Node000020" class="edge">
<title>Node1&#45;&gt;Node20</title>
<g id="a_edge19_Node000001_Node000020"><a xlink:title=" ">
<path fill="none" stroke="#63b8ff" d="M261.22,-285.99C284.82,-279.36 314.04,-268.15 335,-250 349.05,-237.84 358.81,-218.78 364.59,-204.71"/>
<polygon fill="#63b8ff" stroke="#63b8ff" points="367.96,-205.71 368.24,-195.12 361.41,-203.22 367.96,-205.71"/>
</a>
</g>
</g>
<!-- Node5 -->
<g id="Node000005" class="node">
<title>Node5</title>
<g id="a_Node000005"><a xlink:href="../../d7/d9c/method_8hpp.html" target="_top" xlink:title="方法节点">
<polygon fill="white" stroke="#666666" points="323.5,-195 248.5,-195 248.5,-176 323.5,-176 323.5,-195"/>
<text text-anchor="middle" x="286" y="-183" font-family="Helvetica,sans-Serif" font-size="10.00">method.hpp</text>
</a>
</g>
</g>
<!-- Node4&#45;&gt;Node5 -->
<g id="edge4_Node000004_Node000005" class="edge">
<title>Node4&#45;&gt;Node5</title>
<g id="a_edge4_Node000004_Node000005"><a xlink:title=" ">
<path fill="none" stroke="#63b8ff" d="M291.01,-230.75C290.22,-223.8 289.1,-213.85 288.11,-205.13"/>
<polygon fill="#63b8ff" stroke="#63b8ff" points="291.58,-204.63 286.97,-195.09 284.62,-205.42 291.58,-204.63"/>
</a>
</g>
</g>
<!-- Node6 -->
<g id="Node000006" class="node">
<title>Node6</title>
<g id="a_Node000006"><a xlink:href="../../da/d0e/variable_8hpp.html" target="_top" xlink:title="变量（类型）">
<polygon fill="white" stroke="#666666" points="366.5,-140 289.5,-140 289.5,-121 366.5,-121 366.5,-140"/>
<text text-anchor="middle" x="328" y="-128" font-family="Helvetica,sans-Serif" font-size="10.00">variable.hpp</text>
</a>
</g>
</g>
<!-- Node5&#45;&gt;Node6 -->
<g id="edge5_Node000005_Node000006" class="edge">
<title>Node5&#45;&gt;Node6</title>
<g id="a_edge5_Node000005_Node000006"><a xlink:title=" ">
<path fill="none" stroke="#63b8ff" d="M292.94,-175.75C298.87,-168.26 307.57,-157.28 314.82,-148.13"/>
<polygon fill="#63b8ff" stroke="#63b8ff" points="317.73,-150.1 321.19,-140.09 312.24,-145.75 317.73,-150.1"/>
</a>
</g>
</g>
<!-- Node7 -->
<g id="Node000007" class="node">
<title>Node7</title>
<g id="a_Node000007"><a xlink:title=" ">
<polygon fill="#e0e0e0" stroke="#999999" points="197.5,-85 162.5,-85 162.5,-66 197.5,-66 197.5,-85"/>
<text text-anchor="middle" x="180" y="-73" font-family="Helvetica,sans-Serif" font-size="10.00">any</text>
</a>
</g>
</g>
<!-- Node6&#45;&gt;Node7 -->
<g id="edge6_Node000006_Node000007" class="edge">
<title>Node6&#45;&gt;Node7</title>
<g id="a_edge6_Node000006_Node000007"><a xlink:title=" ">
<path fill="none" stroke="#63b8ff" d="M304.22,-120.98C277.73,-111.5 234.99,-96.19 207.19,-86.24"/>
<polygon fill="#63b8ff" stroke="#63b8ff" points="208.28,-82.91 197.68,-82.83 205.92,-89.5 208.28,-82.91"/>
</a>
</g>
</g>
<!-- Node8 -->
<g id="Node000008" class="node">
<title>Node8</title>
<g id="a_Node000008"><a xlink:title=" ">
<polygon fill="#e0e0e0" stroke="#999999" points="280.5,-85 215.5,-85 215.5,-66 280.5,-66 280.5,-85"/>
<text text-anchor="middle" x="248" y="-73" font-family="Helvetica,sans-Serif" font-size="10.00">functional</text>
</a>
</g>
</g>
<!-- Node6&#45;&gt;Node8 -->
<g id="edge7_Node000006_Node000008" class="edge">
<title>Node6&#45;&gt;Node8</title>
<g id="a_edge7_Node000006_Node000008"><a xlink:title=" ">
<path fill="none" stroke="#63b8ff" d="M315.15,-120.98C302.86,-112.84 284.09,-100.41 269.52,-90.76"/>
<polygon fill="#63b8ff" stroke="#63b8ff" points="271.36,-87.78 261.09,-85.17 267.49,-93.61 271.36,-87.78"/>
</a>
</g>
</g>
<!-- Node9 -->
<g id="Node000009" class="node">
<title>Node9</title>
<g id="a_Node000009"><a xlink:title=" ">
<polygon fill="#e0e0e0" stroke="#999999" points="357,-85 299,-85 299,-66 357,-66 357,-85"/>
<text text-anchor="middle" x="328" y="-73" font-family="Helvetica,sans-Serif" font-size="10.00">memory</text>
</a>
</g>
</g>
<!-- Node6&#45;&gt;Node9 -->
<g id="edge8_Node000006_Node000009" class="edge">
<title>Node6&#45;&gt;Node9</title>
<g id="a_edge8_Node000006_Node000009"><a xlink:title=" ">
<path fill="none" stroke="#63b8ff" d="M328,-120.75C328,-113.8 328,-103.85 328,-95.13"/>
<polygon fill="#63b8ff" stroke="#63b8ff" points="331.5,-95.09 328,-85.09 324.5,-95.09 331.5,-95.09"/>
</a>
</g>
</g>
<!-- Node10 -->
<g id="Node000010" class="node">
<title>Node10</title>
<g id="a_Node000010"><a xlink:title=" ">
<polygon fill="#e0e0e0" stroke="#999999" points="420.5,-85 375.5,-85 375.5,-66 420.5,-66 420.5,-85"/>
<text text-anchor="middle" x="398" y="-73" font-family="Helvetica,sans-Serif" font-size="10.00">utility</text>
</a>
</g>
</g>
<!-- Node6&#45;&gt;Node10 -->
<g id="edge9_Node000006_Node000010" class="edge">
<title>Node6&#45;&gt;Node10</title>
<g id="a_edge9_Node000006_Node000010"><a xlink:title=" ">
<path fill="none" stroke="#63b8ff" d="M339.25,-120.98C349.8,-113 365.8,-100.88 378.44,-91.31"/>
<polygon fill="#63b8ff" stroke="#63b8ff" points="380.69,-94 386.55,-85.17 376.46,-88.42 380.69,-94"/>
</a>
</g>
</g>
<!-- Node11 -->
<g id="Node000011" class="node">
<title>Node11</title>
<g id="a_Node000011"><a xlink:href="../../dc/d5f/utilities_8hpp.html" target="_top" xlink:title=" ">
<polygon fill="white" stroke="#666666" points="513,-85 439,-85 439,-66 513,-66 513,-85"/>
<text text-anchor="middle" x="476" y="-73" font-family="Helvetica,sans-Serif" font-size="10.00">utilities.hpp</text>
</a>
</g>
</g>
<!-- Node6&#45;&gt;Node11 -->
<g id="edge10_Node000006_Node000011" class="edge">
<title>Node6&#45;&gt;Node11</title>
<g id="a_edge10_Node000006_Node000011"><a xlink:title=" ">
<path fill="none" stroke="#63b8ff" d="M351.78,-120.98C376.23,-112.23 414.53,-98.51 442.15,-88.62"/>
<polygon fill="#63b8ff" stroke="#63b8ff" points="443.55,-91.84 451.79,-85.17 441.19,-85.25 443.55,-91.84"/>
</a>
</g>
</g>
<!-- Node12 -->
<g id="Node000012" class="node">
<title>Node12</title>
<g id="a_Node000012"><a xlink:title=" ">
<polygon fill="#e0e0e0" stroke="#999999" points="193,-24.5 149,-24.5 149,-5.5 193,-5.5 193,-24.5"/>
<text text-anchor="middle" x="171" y="-12.5" font-family="Helvetica,sans-Serif" font-size="10.00">string</text>
</a>
</g>
</g>
<!-- Node11&#45;&gt;Node12 -->
<g id="edge11_Node000011_Node000012" class="edge">
<title>Node11&#45;&gt;Node12</title>
<g id="a_edge11_Node000011_Node000012"><a xlink:title=" ">
<path fill="none" stroke="#63b8ff" d="M438.86,-67.55C435.86,-67.02 432.88,-66.49 430,-66 328.88,-48.68 300.29,-59.37 202,-30 200.37,-29.51 198.71,-28.96 197.05,-28.35"/>
<polygon fill="#63b8ff" stroke="#63b8ff" points="198.32,-25.09 187.74,-24.54 195.67,-31.57 198.32,-25.09"/>
</a>
</g>
</g>
<!-- Node13 -->
<g id="Node000013" class="node">
<title>Node13</title>
<g id="a_Node000013"><a xlink:title=" ">
<polygon fill="#e0e0e0" stroke="#999999" points="284.5,-24.5 211.5,-24.5 211.5,-5.5 284.5,-5.5 284.5,-24.5"/>
<text text-anchor="middle" x="248" y="-12.5" font-family="Helvetica,sans-Serif" font-size="10.00">string_view</text>
</a>
</g>
</g>
<!-- Node11&#45;&gt;Node13 -->
<g id="edge12_Node000011_Node000013" class="edge">
<title>Node11&#45;&gt;Node13</title>
<g id="a_edge12_Node000011_Node000013"><a xlink:title=" ">
<path fill="none" stroke="#63b8ff" d="M438.9,-66.07C402.01,-57.53 343.88,-43.68 294,-30 291.04,-29.19 287.97,-28.32 284.9,-27.43"/>
<polygon fill="#63b8ff" stroke="#63b8ff" points="285.75,-24.03 275.17,-24.54 283.76,-30.74 285.75,-24.03"/>
</a>
</g>
</g>
<!-- Node14 -->
<g id="Node000014" class="node">
<title>Node14</title>
<g id="a_Node000014"><a xlink:title=" ">
<polygon fill="#e0e0e0" stroke="#999999" points="367.5,-24.5 302.5,-24.5 302.5,-5.5 367.5,-5.5 367.5,-24.5"/>
<text text-anchor="middle" x="335" y="-12.5" font-family="Helvetica,sans-Serif" font-size="10.00">typeindex</text>
</a>
</g>
</g>
<!-- Node11&#45;&gt;Node14 -->
<g id="edge13_Node000011_Node000014" class="edge">
<title>Node11&#45;&gt;Node14</title>
<g id="a_edge13_Node000011_Node000014"><a xlink:title=" ">
<path fill="none" stroke="#63b8ff" d="M455.5,-65.99C431.69,-56.12 392.21,-39.73 364.96,-28.43"/>
<polygon fill="#63b8ff" stroke="#63b8ff" points="366.11,-25.12 355.53,-24.52 363.42,-31.58 366.11,-25.12"/>
</a>
</g>
</g>
<!-- Node15 -->
<g id="Node000015" class="node">
<title>Node15</title>
<g id="a_Node000015"><a xlink:title=" ">
<polygon fill="#e0e0e0" stroke="#999999" points="478.5,-24.5 385.5,-24.5 385.5,-5.5 478.5,-5.5 478.5,-24.5"/>
<text text-anchor="middle" x="432" y="-12.5" font-family="Helvetica,sans-Serif" font-size="10.00">unordered_map</text>
</a>
</g>
</g>
<!-- Node11&#45;&gt;Node15 -->
<g id="edge14_Node000011_Node000015" class="edge">
<title>Node11&#45;&gt;Node15</title>
<g id="a_edge14_Node000011_Node000015"><a xlink:title=" ">
<path fill="none" stroke="#63b8ff" d="M469.51,-65.87C463.01,-57.23 452.84,-43.7 444.72,-32.92"/>
<polygon fill="#63b8ff" stroke="#63b8ff" points="447.33,-30.56 438.52,-24.67 441.73,-34.76 447.33,-30.56"/>
</a>
</g>
</g>
<!-- Node16 -->
<g id="Node000016" class="node">
<title>Node16</title>
<g id="a_Node000016"><a xlink:title=" ">
<polygon fill="#e0e0e0" stroke="#999999" points="543.5,-24.5 496.5,-24.5 496.5,-5.5 543.5,-5.5 543.5,-24.5"/>
<text text-anchor="middle" x="520" y="-12.5" font-family="Helvetica,sans-Serif" font-size="10.00">vector</text>
</a>
</g>
</g>
<!-- Node11&#45;&gt;Node16 -->
<g id="edge15_Node000011_Node000016" class="edge">
<title>Node11&#45;&gt;Node16</title>
<g id="a_edge15_Node000011_Node000016"><a xlink:title=" ">
<path fill="none" stroke="#63b8ff" d="M482.49,-65.87C488.99,-57.23 499.16,-43.7 507.28,-32.92"/>
<polygon fill="#63b8ff" stroke="#63b8ff" points="510.27,-34.76 513.48,-24.67 504.67,-30.56 510.27,-34.76"/>
</a>
</g>
</g>
<!-- Node17 -->
<g id="Node000017" class="node">
<title>Node17</title>
<g id="a_Node000017"><a xlink:title=" ">
<polygon fill="#e0e0e0" stroke="#999999" points="682.5,-24.5 561.5,-24.5 561.5,-5.5 682.5,-5.5 682.5,-24.5"/>
<text text-anchor="middle" x="622" y="-12.5" font-family="Helvetica,sans-Serif" font-size="10.00">open62541/nodeids.h</text>
</a>
</g>
</g>
<!-- Node11&#45;&gt;Node17 -->
<g id="edge16_Node000011_Node000017" class="edge">
<title>Node11&#45;&gt;Node17</title>
<g id="a_edge16_Node000011_Node000017"><a xlink:title=" ">
<path fill="none" stroke="#63b8ff" d="M497.23,-65.99C521.99,-56.07 563.12,-39.59 591.35,-28.28"/>
<polygon fill="#63b8ff" stroke="#63b8ff" points="592.76,-31.49 600.74,-24.52 590.16,-24.99 592.76,-31.49"/>
</a>
</g>
</g>
<!-- Node18 -->
<g id="Node000018" class="node">
<title>Node18</title>
<g id="a_Node000018"><a xlink:title=" ">
<polygon fill="#e0e0e0" stroke="#999999" points="855.5,-30 700.5,-30 700.5,0 855.5,0 855.5,-30"/>
<text text-anchor="start" x="708.5" y="-18" font-family="Helvetica,sans-Serif" font-size="10.00">open62541/types_generated</text>
<text text-anchor="middle" x="778" y="-7" font-family="Helvetica,sans-Serif" font-size="10.00">_handling.h</text>
</a>
</g>
</g>
<!-- Node11&#45;&gt;Node18 -->
<g id="edge17_Node000011_Node000018" class="edge">
<title>Node11&#45;&gt;Node18</title>
<g id="a_edge17_Node000011_Node000018"><a xlink:title=" ">
<path fill="none" stroke="#63b8ff" d="M513.03,-67.33C558.15,-58.59 635.71,-43.56 695.3,-32.02"/>
<polygon fill="#63b8ff" stroke="#63b8ff" points="696.3,-35.39 705.45,-30.05 694.96,-28.52 696.3,-35.39"/>
</a>
</g>
</g>
<!-- Node19 -->
<g id="Node000019" class="node">
<title>Node19</title>
<g id="a_Node000019"><a xlink:href="../../db/d41/rmvldef_8hpp.html" target="_top" xlink:title=" ">
<polygon fill="white" stroke="#666666" points="998.5,-24.5 873.5,-24.5 873.5,-5.5 998.5,-5.5 998.5,-24.5"/>
<text text-anchor="middle" x="936" y="-12.5" font-family="Helvetica,sans-Serif" font-size="10.00">rmvl/core/rmvldef.hpp</text>
</a>
</g>
</g>
<!-- Node11&#45;&gt;Node19 -->
<g id="edge18_Node000011_Node000019" class="edge">
<title>Node11&#45;&gt;Node19</title>
<g id="a_edge18_Node000011_Node000019"><a xlink:title=" ">
<path fill="none" stroke="#63b8ff" d="M513.14,-71.26C582.51,-64.98 736.37,-50.01 865,-30 871.67,-28.96 878.67,-27.74 885.57,-26.46"/>
<polygon fill="#63b8ff" stroke="#63b8ff" points="886.38,-29.87 895.55,-24.56 885.07,-23 886.38,-29.87"/>
</a>
</g>
</g>
<!-- Node20&#45;&gt;Node6 -->
<g id="edge20_Node000020_Node000006" class="edge">
<title>Node20&#45;&gt;Node6</title>
<g id="a_edge20_Node000020_Node000006"><a xlink:title=" ">
<path fill="none" stroke="#63b8ff" d="M363.9,-175.75C357.83,-168.26 348.91,-157.28 341.49,-148.13"/>
<polygon fill="#63b8ff" stroke="#63b8ff" points="343.99,-145.65 334.97,-140.09 338.55,-150.06 343.99,-145.65"/>
</a>
</g>
</g>
</g>
</svg>
