<?xml version="1.0" encoding="UTF-8" standalone="no"?>
<!DOCTYPE svg PUBLIC "-//W3C//DTD SVG 1.1//EN"
 "http://www.w3.org/Graphics/SVG/1.1/DTD/svg11.dtd">
<!-- Generated by graphviz version 2.43.0 (0)
 -->
<!-- Title: rm::ip::tcp Pages: 1 -->
<svg width="75pt" height="189pt"
 viewBox="0.00 0.00 74.50 189.00" xmlns="http://www.w3.org/2000/svg" xmlns:xlink="http://www.w3.org/1999/xlink">
<g id="graph0" class="graph" transform="scale(1 1) rotate(0) translate(4 185)">
<title>rm::ip::tcp</title>
<!-- Node1 -->
<g id="Node000001" class="node">
<title>Node1</title>
<g id="a_Node000001"><a xlink:title="TCP 协议">
<polygon fill="#999999" stroke="transparent" points="55,-64 0,-64 0,0 55,0 55,-64"/>
<text text-anchor="start" x="5.5" y="-52" font-family="Helvetica,sans-Serif" font-size="10.00">rm::ip::tcp</text>
<text text-anchor="start" x="26" y="-37" font-family="Helvetica,sans-Serif" font-size="10.00"> </text>
<text text-anchor="start" x="9" y="-22" font-family="Helvetica,sans-Serif" font-size="10.00">+</text>
<text text-anchor="start" x="24.5" y="-22" font-family="Helvetica,sans-Serif" font-size="10.00">v4()</text>
<text text-anchor="start" x="9" y="-7" font-family="Helvetica,sans-Serif" font-size="10.00">+</text>
<text text-anchor="start" x="24.5" y="-7" font-family="Helvetica,sans-Serif" font-size="10.00">v6()</text>
<polygon fill="#666666" stroke="#666666" points="0.5,-47 0.5,-47 55.5,-47 55.5,-47 0.5,-47"/>
<polygon fill="#666666" stroke="#666666" points="0.5,-32 0.5,-32 55.5,-32 55.5,-32 0.5,-32"/>
<polygon fill="none" stroke="#666666" points="0,0 0,-64 55,-64 55,0 0,0"/>
</a>
</g>
</g>
<!-- Node2 -->
<g id="Node000002" class="node">
<title>Node2</title>
<g id="a_Node000002"><a xlink:title=" ">
<polygon fill="white" stroke="transparent" points="38,-181 17,-181 17,-132 38,-132 38,-181"/>
<text text-anchor="start" x="22.5" y="-168.5" font-family="Helvetica,sans-Serif" font-size="10.00">int</text>
<text text-anchor="start" x="26" y="-153.5" font-family="Helvetica,sans-Serif" font-size="10.00"> </text>
<text text-anchor="start" x="26" y="-138.5" font-family="Helvetica,sans-Serif" font-size="10.00"> </text>
<polygon fill="#666666" stroke="#666666" points="17.5,-163.5 17.5,-163.5 38.5,-163.5 38.5,-163.5 17.5,-163.5"/>
<polygon fill="#666666" stroke="#666666" points="17.5,-148.5 17.5,-148.5 38.5,-148.5 38.5,-148.5 17.5,-148.5"/>
<polygon fill="none" stroke="#666666" points="17,-132 17,-181 38,-181 38,-132 17,-132"/>
</a>
</g>
</g>
<!-- Node2&#45;&gt;Node1 -->
<g id="edge1_Node000001_Node000002" class="edge">
<title>Node2&#45;&gt;Node1</title>
<g id="a_edge1_Node000001_Node000002"><a xlink:title=" ">
<path fill="none" stroke="#63b8ff" d="M27.5,-131.88C27.5,-116.21 27.5,-95.19 27.5,-76.55"/>
<polygon fill="none" stroke="#63b8ff" points="27.5,-76.43 23.5,-70.43 27.5,-64.43 31.5,-70.43 27.5,-76.43"/>
</a>
</g>
<text text-anchor="start" x="31" y="-103" font-family="Helvetica,sans-Serif" font-size="10.00" fill="grey">+family</text>
<text text-anchor="start" x="31" y="-88" font-family="Helvetica,sans-Serif" font-size="10.00" fill="grey">+type</text>
</g>
</g>
</svg>
