<?xml version="1.0" encoding="UTF-8" standalone="no"?>
<!DOCTYPE svg PUBLIC "-//W3C//DTD SVG 1.1//EN"
 "http://www.w3.org/Graphics/SVG/1.1/DTD/svg11.dtd">
<!-- Generated by graphviz version 2.43.0 (0)
 -->
<!-- Title: rm::MqServer::operator&lt;&lt; Pages: 1 -->
<svg width="325pt" height="64pt"
 viewBox="0.00 0.00 325.00 64.00" xmlns="http://www.w3.org/2000/svg" xmlns:xlink="http://www.w3.org/1999/xlink">
<g id="graph0" class="graph" transform="scale(1 1) rotate(0) translate(4 60)">
<title>rm::MqServer::operator&lt;&lt;</title>
<!-- Node1 -->
<g id="Node000001" class="node">
<title>Node1</title>
<g id="a_Node000001"><a xlink:title="向消息队列写入数据">
<polygon fill="#999999" stroke="#666666" points="146,-37 0,-37 0,-18 146,-18 146,-37"/>
<text text-anchor="middle" x="73" y="-25" font-family="Helvetica,sans-Serif" font-size="10.00">rm::MqServer::operator&lt;&lt;</text>
</a>
</g>
</g>
<!-- Node2 -->
<g id="Node000002" class="node">
<title>Node2</title>
<g id="a_Node000002"><a xlink:href="../../d4/d88/classrm_1_1MqServer.html#a673989277a0b93bf91cc1e3daaf068a9" target="_top" xlink:title="构造消息队列服务端">
<polygon fill="white" stroke="#666666" points="317,-56 182,-56 182,-37 317,-37 317,-56"/>
<text text-anchor="middle" x="249.5" y="-44" font-family="Helvetica,sans-Serif" font-size="10.00">rm::MqServer::MqServer</text>
</a>
</g>
</g>
<!-- Node1&#45;&gt;Node2 -->
<g id="edge1_Node000001_Node000002" class="edge">
<title>Node1&#45;&gt;Node2</title>
<g id="a_edge1_Node000001_Node000002"><a xlink:title=" ">
<path fill="none" stroke="#63b8ff" d="M146.24,-35.37C154.73,-36.29 163.41,-37.24 171.96,-38.17"/>
<polygon fill="#63b8ff" stroke="#63b8ff" points="171.59,-41.65 181.91,-39.25 172.35,-34.69 171.59,-41.65"/>
</a>
</g>
</g>
<!-- Node3 -->
<g id="Node000003" class="node">
<title>Node3</title>
<g id="a_Node000003"><a xlink:href="../../d4/d88/classrm_1_1MqServer.html#ae304fb4c8fe1eebae01a7d730890ac42" target="_top" xlink:title="向消息队列写入数据">
<polygon fill="white" stroke="#666666" points="306,-19 193,-19 193,0 306,0 306,-19"/>
<text text-anchor="middle" x="249.5" y="-7" font-family="Helvetica,sans-Serif" font-size="10.00">rm::MqServer::write</text>
</a>
</g>
</g>
<!-- Node1&#45;&gt;Node3 -->
<g id="edge2_Node000001_Node000003" class="edge">
<title>Node1&#45;&gt;Node3</title>
<g id="a_edge2_Node000001_Node000003"><a xlink:title=" ">
<path fill="none" stroke="#63b8ff" d="M146.24,-20.05C158.27,-18.81 170.7,-17.52 182.58,-16.3"/>
<polygon fill="#63b8ff" stroke="#63b8ff" points="183.25,-19.75 192.84,-15.24 182.53,-12.79 183.25,-19.75"/>
</a>
</g>
</g>
</g>
</svg>
