<?xml version="1.0" encoding="UTF-8" standalone="no"?>
<!DOCTYPE svg PUBLIC "-//W3C//DTD SVG 1.1//EN"
 "http://www.w3.org/Graphics/SVG/1.1/DTD/svg11.dtd">
<!-- Generated by graphviz version 2.43.0 (0)
 -->
<!-- Title: rmvl/detector/detector.h Pages: 1 -->
<svg width="1371pt" height="412pt"
 viewBox="0.00 0.00 1371.00 412.00" xmlns="http://www.w3.org/2000/svg" xmlns:xlink="http://www.w3.org/1999/xlink">
<g id="graph0" class="graph" transform="scale(1 1) rotate(0) translate(4 408)">
<title>rmvl/detector/detector.h</title>
<!-- Node1 -->
<g id="Node000001" class="node">
<title>Node1</title>
<g id="a_Node000001"><a xlink:title="抽象识别类头文件">
<polygon fill="#999999" stroke="#666666" points="892,-404 758,-404 758,-385 892,-385 892,-404"/>
<text text-anchor="middle" x="825" y="-392" font-family="Helvetica,sans-Serif" font-size="10.00">rmvl/detector/detector.h</text>
</a>
</g>
</g>
<!-- Node2 -->
<g id="Node000002" class="node">
<title>Node2</title>
<g id="a_Node000002"><a xlink:href="../../d9/dd1/group_8h.html" target="_top" xlink:title="序列组抽象头文件">
<polygon fill="white" stroke="#666666" points="806,-349 696,-349 696,-330 806,-330 806,-349"/>
<text text-anchor="middle" x="751" y="-337" font-family="Helvetica,sans-Serif" font-size="10.00">rmvl/group/group.h</text>
</a>
</g>
</g>
<!-- Node1&#45;&gt;Node2 -->
<g id="edge1_Node000001_Node000002" class="edge">
<title>Node1&#45;&gt;Node2</title>
<g id="a_edge1_Node000001_Node000002"><a xlink:title=" ">
<path fill="none" stroke="#63b8ff" d="M813.11,-384.98C801.85,-376.92 784.71,-364.65 771.29,-355.03"/>
<polygon fill="#63b8ff" stroke="#63b8ff" points="773.27,-352.15 763.11,-349.17 769.2,-357.84 773.27,-352.15"/>
</a>
</g>
</g>
<!-- Node29 -->
<g id="Node000029" class="node">
<title>Node29</title>
<g id="a_Node000029"><a xlink:href="../../d2/d4c/pretreat_8hpp.html" target="_top" xlink:title="图像预处理模块">
<polygon fill="white" stroke="#666666" points="1224,-349 1072,-349 1072,-330 1224,-330 1224,-349"/>
<text text-anchor="middle" x="1148" y="-337" font-family="Helvetica,sans-Serif" font-size="10.00">rmvl/algorithm/pretreat.hpp</text>
</a>
</g>
</g>
<!-- Node1&#45;&gt;Node29 -->
<g id="edge35_Node000001_Node000029" class="edge">
<title>Node1&#45;&gt;Node29</title>
<g id="a_edge35_Node000001_Node000029"><a xlink:title=" ">
<path fill="none" stroke="#63b8ff" d="M876.9,-384.98C933.79,-375.65 1025.05,-360.67 1085.75,-350.71"/>
<polygon fill="#63b8ff" stroke="#63b8ff" points="1086.66,-354.11 1095.97,-349.04 1085.53,-347.2 1086.66,-354.11"/>
</a>
</g>
</g>
<!-- Node3 -->
<g id="Node000003" class="node">
<title>Node3</title>
<g id="a_Node000003"><a xlink:href="../../dc/ded/tracker_8h.html" target="_top" xlink:title="追踪器抽象头文件">
<polygon fill="white" stroke="#666666" points="748.5,-294 627.5,-294 627.5,-275 748.5,-275 748.5,-294"/>
<text text-anchor="middle" x="688" y="-282" font-family="Helvetica,sans-Serif" font-size="10.00">rmvl/tracker/tracker.h</text>
</a>
</g>
</g>
<!-- Node2&#45;&gt;Node3 -->
<g id="edge2_Node000002_Node000003" class="edge">
<title>Node2&#45;&gt;Node3</title>
<g id="a_edge2_Node000002_Node000003"><a xlink:title=" ">
<path fill="none" stroke="#63b8ff" d="M740.88,-329.98C731.56,-322.15 717.53,-310.34 706.26,-300.86"/>
<polygon fill="#63b8ff" stroke="#63b8ff" points="708.21,-297.93 698.31,-294.17 703.71,-303.29 708.21,-297.93"/>
</a>
</g>
</g>
<!-- Node4 -->
<g id="Node000004" class="node">
<title>Node4</title>
<g id="a_Node000004"><a xlink:title=" ">
<polygon fill="#e0e0e0" stroke="#999999" points="711.5,-239 664.5,-239 664.5,-220 711.5,-220 711.5,-239"/>
<text text-anchor="middle" x="688" y="-227" font-family="Helvetica,sans-Serif" font-size="10.00">deque</text>
</a>
</g>
</g>
<!-- Node3&#45;&gt;Node4 -->
<g id="edge3_Node000003_Node000004" class="edge">
<title>Node3&#45;&gt;Node4</title>
<g id="a_edge3_Node000003_Node000004"><a xlink:title=" ">
<path fill="none" stroke="#63b8ff" d="M688,-274.75C688,-267.8 688,-257.85 688,-249.13"/>
<polygon fill="#63b8ff" stroke="#63b8ff" points="691.5,-249.09 688,-239.09 684.5,-249.09 691.5,-249.09"/>
</a>
</g>
</g>
<!-- Node5 -->
<g id="Node000005" class="node">
<title>Node5</title>
<g id="a_Node000005"><a xlink:href="../../d8/d36/combo_8h.html" target="_top" xlink:title="the combination of the features header file">
<polygon fill="white" stroke="#666666" points="615,-239 495,-239 495,-220 615,-220 615,-239"/>
<text text-anchor="middle" x="555" y="-227" font-family="Helvetica,sans-Serif" font-size="10.00">rmvl/combo/combo.h</text>
</a>
</g>
</g>
<!-- Node3&#45;&gt;Node5 -->
<g id="edge4_Node000003_Node000005" class="edge">
<title>Node3&#45;&gt;Node5</title>
<g id="a_edge4_Node000003_Node000005"><a xlink:title=" ">
<path fill="none" stroke="#63b8ff" d="M666.63,-274.98C644.85,-266.3 610.84,-252.75 586.08,-242.88"/>
<polygon fill="#63b8ff" stroke="#63b8ff" points="587.34,-239.62 576.76,-239.17 584.75,-246.12 587.34,-239.62"/>
</a>
</g>
</g>
<!-- Node6 -->
<g id="Node000006" class="node">
<title>Node6</title>
<g id="a_Node000006"><a xlink:href="../../d4/d78/math_8hpp.html" target="_top" xlink:title="基础数学库">
<polygon fill="white" stroke="#666666" points="851.5,-184 712.5,-184 712.5,-165 851.5,-165 851.5,-184"/>
<text text-anchor="middle" x="782" y="-172" font-family="Helvetica,sans-Serif" font-size="10.00">rmvl/algorithm/math.hpp</text>
</a>
</g>
</g>
<!-- Node5&#45;&gt;Node6 -->
<g id="edge5_Node000005_Node000006" class="edge">
<title>Node5&#45;&gt;Node6</title>
<g id="a_edge5_Node000005_Node000006"><a xlink:title=" ">
<path fill="none" stroke="#63b8ff" d="M591.47,-219.98C630.57,-210.86 692.77,-196.33 735.39,-186.38"/>
<polygon fill="#63b8ff" stroke="#63b8ff" points="736.3,-189.76 745.24,-184.08 734.71,-182.95 736.3,-189.76"/>
</a>
</g>
</g>
<!-- Node19 -->
<g id="Node000019" class="node">
<title>Node19</title>
<g id="a_Node000019"><a xlink:href="../../d3/d7e/camutils_8hpp.html" target="_top" xlink:title="相机基本配置信息">
<polygon fill="white" stroke="#666666" points="1317.5,-184 1172.5,-184 1172.5,-165 1317.5,-165 1317.5,-184"/>
<text text-anchor="middle" x="1245" y="-172" font-family="Helvetica,sans-Serif" font-size="10.00">rmvl/camera/camutils.hpp</text>
</a>
</g>
</g>
<!-- Node5&#45;&gt;Node19 -->
<g id="edge18_Node000005_Node000019" class="edge">
<title>Node5&#45;&gt;Node19</title>
<g id="a_edge18_Node000005_Node000019"><a xlink:title=" ">
<path fill="none" stroke="#63b8ff" d="M615.08,-223.36C628.54,-222.23 642.76,-221.06 656,-220 836.6,-205.58 1048.44,-189.87 1162.4,-181.52"/>
<polygon fill="#63b8ff" stroke="#63b8ff" points="1162.73,-185 1172.44,-180.78 1162.21,-178.02 1162.73,-185"/>
</a>
</g>
</g>
<!-- Node21 -->
<g id="Node000021" class="node">
<title>Node21</title>
<g id="a_Node000021"><a xlink:href="../../dd/de3/types_8hpp.html" target="_top" xlink:title="常用状态类型定义">
<polygon fill="white" stroke="#666666" points="90,-129 0,-129 0,-110 90,-110 90,-129"/>
<text text-anchor="middle" x="45" y="-117" font-family="Helvetica,sans-Serif" font-size="10.00">rmvl/types.hpp</text>
</a>
</g>
</g>
<!-- Node5&#45;&gt;Node21 -->
<g id="edge21_Node000005_Node000021" class="edge">
<title>Node5&#45;&gt;Node21</title>
<g id="a_edge21_Node000005_Node000021"><a xlink:title=" ">
<path fill="none" stroke="#63b8ff" d="M494.73,-227.27C419.66,-224.4 288.09,-214.95 180,-184 138.75,-172.19 94.36,-149.07 68.16,-134.23"/>
<polygon fill="#63b8ff" stroke="#63b8ff" points="69.79,-131.13 59.37,-129.17 66.29,-137.19 69.79,-131.13"/>
</a>
</g>
</g>
<!-- Node22 -->
<g id="Node000022" class="node">
<title>Node22</title>
<g id="a_Node000022"><a xlink:href="../../d2/dc6/io_8hpp.html" target="_top" xlink:title="数据 IO 与通信模块">
<polygon fill="white" stroke="#666666" points="541,-184 445,-184 445,-165 541,-165 541,-184"/>
<text text-anchor="middle" x="493" y="-172" font-family="Helvetica,sans-Serif" font-size="10.00">rmvl/core/io.hpp</text>
</a>
</g>
</g>
<!-- Node5&#45;&gt;Node22 -->
<g id="edge23_Node000005_Node000022" class="edge">
<title>Node5&#45;&gt;Node22</title>
<g id="a_edge23_Node000005_Node000022"><a xlink:title=" ">
<path fill="none" stroke="#63b8ff" d="M545.04,-219.98C535.87,-212.15 522.06,-200.34 510.97,-190.86"/>
<polygon fill="#63b8ff" stroke="#63b8ff" points="513.02,-188.01 503.14,-184.17 508.47,-193.33 513.02,-188.01"/>
</a>
</g>
</g>
<!-- Node27 -->
<g id="Node000027" class="node">
<title>Node27</title>
<g id="a_Node000027"><a xlink:href="../../d2/d74/feature_8h.html" target="_top" xlink:title="feature class header">
<polygon fill="white" stroke="#666666" points="313.5,-184 188.5,-184 188.5,-165 313.5,-165 313.5,-184"/>
<text text-anchor="middle" x="251" y="-172" font-family="Helvetica,sans-Serif" font-size="10.00">rmvl/feature/feature.h</text>
</a>
</g>
</g>
<!-- Node5&#45;&gt;Node27 -->
<g id="edge31_Node000005_Node000027" class="edge">
<title>Node5&#45;&gt;Node27</title>
<g id="a_edge31_Node000005_Node000027"><a xlink:title=" ">
<path fill="none" stroke="#63b8ff" d="M506.16,-219.98C452.72,-210.67 367.08,-195.74 309.94,-185.78"/>
<polygon fill="#63b8ff" stroke="#63b8ff" points="310.43,-182.31 299.97,-184.04 309.22,-189.2 310.43,-182.31"/>
</a>
</g>
</g>
<!-- Node7 -->
<g id="Node000007" class="node">
<title>Node7</title>
<g id="a_Node000007"><a xlink:title=" ">
<polygon fill="#e0e0e0" stroke="#999999" points="1175.5,-129 1128.5,-129 1128.5,-110 1175.5,-110 1175.5,-129"/>
<text text-anchor="middle" x="1152" y="-117" font-family="Helvetica,sans-Serif" font-size="10.00">cmath</text>
</a>
</g>
</g>
<!-- Node6&#45;&gt;Node7 -->
<g id="edge6_Node000006_Node000007" class="edge">
<title>Node6&#45;&gt;Node7</title>
<g id="a_edge6_Node000006_Node000007"><a xlink:title=" ">
<path fill="none" stroke="#63b8ff" d="M851.69,-166.97C918.05,-160.16 1020.87,-148.04 1118.3,-129.13"/>
<polygon fill="#63b8ff" stroke="#63b8ff" points="1119.18,-132.52 1128.31,-127.16 1117.83,-125.65 1119.18,-132.52"/>
</a>
</g>
</g>
<!-- Node8 -->
<g id="Node000008" class="node">
<title>Node8</title>
<g id="a_Node000008"><a xlink:title=" ">
<polygon fill="#e0e0e0" stroke="#999999" points="775.5,-129 710.5,-129 710.5,-110 775.5,-110 775.5,-129"/>
<text text-anchor="middle" x="743" y="-117" font-family="Helvetica,sans-Serif" font-size="10.00">functional</text>
</a>
</g>
</g>
<!-- Node6&#45;&gt;Node8 -->
<g id="edge7_Node000006_Node000008" class="edge">
<title>Node6&#45;&gt;Node8</title>
<g id="a_edge7_Node000006_Node000008"><a xlink:title=" ">
<path fill="none" stroke="#63b8ff" d="M775.56,-164.75C770.11,-157.34 762.14,-146.5 755.44,-137.41"/>
<polygon fill="#63b8ff" stroke="#63b8ff" points="758.07,-135.07 749.32,-129.09 752.43,-139.22 758.07,-135.07"/>
</a>
</g>
</g>
<!-- Node9 -->
<g id="Node000009" class="node">
<title>Node9</title>
<g id="a_Node000009"><a xlink:title=" ">
<polygon fill="#e0e0e0" stroke="#999999" points="850,-129 794,-129 794,-110 850,-110 850,-129"/>
<text text-anchor="middle" x="822" y="-117" font-family="Helvetica,sans-Serif" font-size="10.00">numeric</text>
</a>
</g>
</g>
<!-- Node6&#45;&gt;Node9 -->
<g id="edge8_Node000006_Node000009" class="edge">
<title>Node6&#45;&gt;Node9</title>
<g id="a_edge8_Node000006_Node000009"><a xlink:title=" ">
<path fill="none" stroke="#63b8ff" d="M788.61,-164.75C794.26,-157.26 802.54,-146.28 809.45,-137.13"/>
<polygon fill="#63b8ff" stroke="#63b8ff" points="812.29,-139.18 815.52,-129.09 806.7,-134.96 812.29,-139.18"/>
</a>
</g>
</g>
<!-- Node10 -->
<g id="Node000010" class="node">
<title>Node10</title>
<g id="a_Node000010"><a xlink:title=" ">
<polygon fill="#e0e0e0" stroke="#999999" points="961.5,-129 868.5,-129 868.5,-110 961.5,-110 961.5,-129"/>
<text text-anchor="middle" x="915" y="-117" font-family="Helvetica,sans-Serif" font-size="10.00">unordered_map</text>
</a>
</g>
</g>
<!-- Node6&#45;&gt;Node10 -->
<g id="edge9_Node000006_Node000010" class="edge">
<title>Node6&#45;&gt;Node10</title>
<g id="a_edge9_Node000006_Node000010"><a xlink:title=" ">
<path fill="none" stroke="#63b8ff" d="M803.37,-164.98C825.15,-156.3 859.16,-142.75 883.92,-132.88"/>
<polygon fill="#63b8ff" stroke="#63b8ff" points="885.25,-136.12 893.24,-129.17 882.66,-129.62 885.25,-136.12"/>
</a>
</g>
</g>
<!-- Node11 -->
<g id="Node000011" class="node">
<title>Node11</title>
<g id="a_Node000011"><a xlink:title=" ">
<polygon fill="#e0e0e0" stroke="#999999" points="653.5,-129 606.5,-129 606.5,-110 653.5,-110 653.5,-129"/>
<text text-anchor="middle" x="630" y="-117" font-family="Helvetica,sans-Serif" font-size="10.00">vector</text>
</a>
</g>
</g>
<!-- Node6&#45;&gt;Node11 -->
<g id="edge10_Node000006_Node000011" class="edge">
<title>Node6&#45;&gt;Node11</title>
<g id="a_edge10_Node000006_Node000011"><a xlink:title=" ">
<path fill="none" stroke="#63b8ff" d="M757.58,-164.98C732.06,-156.09 691.84,-142.06 663.39,-132.14"/>
<polygon fill="#63b8ff" stroke="#63b8ff" points="664.45,-128.81 653.86,-128.82 662.15,-135.42 664.45,-128.81"/>
</a>
</g>
</g>
<!-- Node12 -->
<g id="Node000012" class="node">
<title>Node12</title>
<g id="a_Node000012"><a xlink:title=" ">
<polygon fill="#e0e0e0" stroke="#999999" points="1110.5,-129 979.5,-129 979.5,-110 1110.5,-110 1110.5,-129"/>
<text text-anchor="middle" x="1045" y="-117" font-family="Helvetica,sans-Serif" font-size="10.00">opencv2/core/matx.hpp</text>
</a>
</g>
</g>
<!-- Node6&#45;&gt;Node12 -->
<g id="edge11_Node000006_Node000012" class="edge">
<title>Node6&#45;&gt;Node12</title>
<g id="a_edge11_Node000006_Node000012"><a xlink:title=" ">
<path fill="none" stroke="#63b8ff" d="M824.26,-164.98C870.04,-155.76 943.14,-141.03 992.55,-131.07"/>
<polygon fill="#63b8ff" stroke="#63b8ff" points="993.3,-134.49 1002.41,-129.08 991.92,-127.63 993.3,-134.49"/>
</a>
</g>
</g>
<!-- Node13 -->
<g id="Node000013" class="node">
<title>Node13</title>
<g id="a_Node000013"><a xlink:href="../../d0/d3f/util_8hpp.html" target="_top" xlink:title=" ">
<polygon fill="white" stroke="#666666" points="549.5,-74 446.5,-74 446.5,-55 549.5,-55 549.5,-74"/>
<text text-anchor="middle" x="498" y="-62" font-family="Helvetica,sans-Serif" font-size="10.00">rmvl/core/util.hpp</text>
</a>
</g>
</g>
<!-- Node6&#45;&gt;Node13 -->
<g id="edge12_Node000006_Node000013" class="edge">
<title>Node6&#45;&gt;Node13</title>
<g id="a_edge12_Node000006_Node000013"><a xlink:title=" ">
<path fill="none" stroke="#63b8ff" d="M766.9,-164.89C739.8,-149.53 683.79,-118.23 663,-110 626.12,-95.41 582.77,-83.92 549.76,-76.28"/>
<polygon fill="#63b8ff" stroke="#63b8ff" points="550.39,-72.83 539.86,-74.03 548.84,-79.66 550.39,-72.83"/>
</a>
</g>
</g>
<!-- Node14 -->
<g id="Node000014" class="node">
<title>Node14</title>
<g id="a_Node000014"><a xlink:title=" ">
<polygon fill="#e0e0e0" stroke="#999999" points="717.5,-19 584.5,-19 584.5,0 717.5,0 717.5,-19"/>
<text text-anchor="middle" x="651" y="-7" font-family="Helvetica,sans-Serif" font-size="10.00">rmvl/rmvl_modules.hpp</text>
</a>
</g>
</g>
<!-- Node13&#45;&gt;Node14 -->
<g id="edge13_Node000013_Node000014" class="edge">
<title>Node13&#45;&gt;Node14</title>
<g id="a_edge13_Node000013_Node000014"><a xlink:title=" ">
<path fill="none" stroke="#63b8ff" d="M522.58,-54.98C548.05,-46.16 588.04,-32.31 616.63,-22.41"/>
<polygon fill="#63b8ff" stroke="#63b8ff" points="617.92,-25.66 626.23,-19.08 615.63,-19.05 617.92,-25.66"/>
</a>
</g>
</g>
<!-- Node15 -->
<g id="Node000015" class="node">
<title>Node15</title>
<g id="a_Node000015"><a xlink:title=" ">
<polygon fill="#e0e0e0" stroke="#999999" points="502,-19 452,-19 452,0 502,0 502,-19"/>
<text text-anchor="middle" x="477" y="-7" font-family="Helvetica,sans-Serif" font-size="10.00">cstdint</text>
</a>
</g>
</g>
<!-- Node13&#45;&gt;Node15 -->
<g id="edge14_Node000013_Node000015" class="edge">
<title>Node13&#45;&gt;Node15</title>
<g id="a_edge14_Node000013_Node000015"><a xlink:title=" ">
<path fill="none" stroke="#63b8ff" d="M494.53,-54.75C491.72,-47.65 487.66,-37.4 484.15,-28.56"/>
<polygon fill="#63b8ff" stroke="#63b8ff" points="487.34,-27.1 480.4,-19.09 480.83,-29.68 487.34,-27.1"/>
</a>
</g>
</g>
<!-- Node16 -->
<g id="Node000016" class="node">
<title>Node16</title>
<g id="a_Node000016"><a xlink:title=" ">
<polygon fill="#e0e0e0" stroke="#999999" points="566,-19 520,-19 520,0 566,0 566,-19"/>
<text text-anchor="middle" x="543" y="-7" font-family="Helvetica,sans-Serif" font-size="10.00">cstdio</text>
</a>
</g>
</g>
<!-- Node13&#45;&gt;Node16 -->
<g id="edge15_Node000013_Node000016" class="edge">
<title>Node13&#45;&gt;Node16</title>
<g id="a_edge15_Node000013_Node000016"><a xlink:title=" ">
<path fill="none" stroke="#63b8ff" d="M505.43,-54.75C511.85,-47.18 521.31,-36.05 529.12,-26.84"/>
<polygon fill="#63b8ff" stroke="#63b8ff" points="531.9,-28.98 535.71,-19.09 526.57,-24.45 531.9,-28.98"/>
</a>
</g>
</g>
<!-- Node17 -->
<g id="Node000017" class="node">
<title>Node17</title>
<g id="a_Node000017"><a xlink:title=" ">
<polygon fill="#e0e0e0" stroke="#999999" points="434,-19 390,-19 390,0 434,0 434,-19"/>
<text text-anchor="middle" x="412" y="-7" font-family="Helvetica,sans-Serif" font-size="10.00">string</text>
</a>
</g>
</g>
<!-- Node13&#45;&gt;Node17 -->
<g id="edge16_Node000013_Node000017" class="edge">
<title>Node13&#45;&gt;Node17</title>
<g id="a_edge16_Node000013_Node000017"><a xlink:title=" ">
<path fill="none" stroke="#63b8ff" d="M484.18,-54.98C470.85,-46.77 450.42,-34.18 434.69,-24.49"/>
<polygon fill="#63b8ff" stroke="#63b8ff" points="436.42,-21.44 426.07,-19.17 432.75,-27.4 436.42,-21.44"/>
</a>
</g>
</g>
<!-- Node18 -->
<g id="Node000018" class="node">
<title>Node18</title>
<g id="a_Node000018"><a xlink:href="../../db/d41/rmvldef_8hpp.html" target="_top" xlink:title=" ">
<polygon fill="white" stroke="#666666" points="1086.5,-19 1011.5,-19 1011.5,0 1086.5,0 1086.5,-19"/>
<text text-anchor="middle" x="1049" y="-7" font-family="Helvetica,sans-Serif" font-size="10.00">rmvldef.hpp</text>
</a>
</g>
</g>
<!-- Node13&#45;&gt;Node18 -->
<g id="edge17_Node000013_Node000018" class="edge">
<title>Node13&#45;&gt;Node18</title>
<g id="a_edge17_Node000013_Node000018"><a xlink:title=" ">
<path fill="none" stroke="#63b8ff" d="M549.5,-56.68C554.4,-56.09 559.29,-55.52 564,-55 723.91,-37.37 914.03,-21.37 1001.12,-14.31"/>
<polygon fill="#63b8ff" stroke="#63b8ff" points="1001.53,-17.79 1011.22,-13.49 1000.97,-10.81 1001.53,-17.79"/>
</a>
</g>
</g>
<!-- Node19&#45;&gt;Node18 -->
<g id="edge20_Node000019_Node000018" class="edge">
<title>Node19&#45;&gt;Node18</title>
<g id="a_edge20_Node000019_Node000018"><a xlink:title=" ">
<path fill="none" stroke="#63b8ff" d="M1264.39,-164.88C1287.45,-153.39 1321.03,-131.94 1306,-110 1258.96,-41.35 1157.2,-20.05 1096.79,-13.45"/>
<polygon fill="#63b8ff" stroke="#63b8ff" points="1097.04,-9.96 1086.74,-12.45 1096.35,-16.93 1097.04,-9.96"/>
</a>
</g>
</g>
<!-- Node20 -->
<g id="Node000020" class="node">
<title>Node20</title>
<g id="a_Node000020"><a xlink:title=" ">
<polygon fill="#e0e0e0" stroke="#999999" points="1296.5,-129 1193.5,-129 1193.5,-110 1296.5,-110 1296.5,-129"/>
<text text-anchor="middle" x="1245" y="-117" font-family="Helvetica,sans-Serif" font-size="10.00">opencv2/core.hpp</text>
</a>
</g>
</g>
<!-- Node19&#45;&gt;Node20 -->
<g id="edge19_Node000019_Node000020" class="edge">
<title>Node19&#45;&gt;Node20</title>
<g id="a_edge19_Node000019_Node000020"><a xlink:title=" ">
<path fill="none" stroke="#63b8ff" d="M1245,-164.75C1245,-157.8 1245,-147.85 1245,-139.13"/>
<polygon fill="#63b8ff" stroke="#63b8ff" points="1248.5,-139.09 1245,-129.09 1241.5,-139.09 1248.5,-139.09"/>
</a>
</g>
</g>
<!-- Node21&#45;&gt;Node13 -->
<g id="edge22_Node000021_Node000013" class="edge">
<title>Node21&#45;&gt;Node13</title>
<g id="a_edge22_Node000021_Node000013"><a xlink:title=" ">
<path fill="none" stroke="#63b8ff" d="M90.06,-111.25C93.08,-110.81 96.08,-110.39 99,-110 218,-94.01 357.52,-79.39 436.06,-71.53"/>
<polygon fill="#63b8ff" stroke="#63b8ff" points="436.66,-74.99 446.26,-70.52 435.96,-68.03 436.66,-74.99"/>
</a>
</g>
</g>
<!-- Node22&#45;&gt;Node11 -->
<g id="edge29_Node000022_Node000011" class="edge">
<title>Node22&#45;&gt;Node11</title>
<g id="a_edge29_Node000022_Node000011"><a xlink:title=" ">
<path fill="none" stroke="#63b8ff" d="M515.01,-164.98C537.45,-156.3 572.48,-142.75 597.99,-132.88"/>
<polygon fill="#63b8ff" stroke="#63b8ff" points="599.52,-136.04 607.59,-129.17 597,-129.51 599.52,-136.04"/>
</a>
</g>
</g>
<!-- Node22&#45;&gt;Node17 -->
<g id="edge28_Node000022_Node000017" class="edge">
<title>Node22&#45;&gt;Node17</title>
<g id="a_edge28_Node000022_Node000017"><a xlink:title=" ">
<path fill="none" stroke="#63b8ff" d="M473.84,-164.87C459.65,-157.45 441.1,-145.34 431,-129 411.8,-97.94 409.98,-53.87 410.75,-29.16"/>
<polygon fill="#63b8ff" stroke="#63b8ff" points="414.25,-29.17 411.25,-19.01 407.26,-28.82 414.25,-29.17"/>
</a>
</g>
</g>
<!-- Node22&#45;&gt;Node18 -->
<g id="edge30_Node000022_Node000018" class="edge">
<title>Node22&#45;&gt;Node18</title>
<g id="a_edge30_Node000022_Node000018"><a xlink:title=" ">
<path fill="none" stroke="#63b8ff" d="M504.31,-164.93C522.87,-151.28 561.41,-124.64 598,-110 738.61,-53.75 917.23,-26.34 1001.24,-15.83"/>
<polygon fill="#63b8ff" stroke="#63b8ff" points="1001.75,-19.3 1011.25,-14.61 1000.89,-12.35 1001.75,-19.3"/>
</a>
</g>
</g>
<!-- Node23 -->
<g id="Node000023" class="node">
<title>Node23</title>
<g id="a_Node000023"><a xlink:title=" ">
<polygon fill="#e0e0e0" stroke="#999999" points="482,-129 440,-129 440,-110 482,-110 482,-129"/>
<text text-anchor="middle" x="461" y="-117" font-family="Helvetica,sans-Serif" font-size="10.00">array</text>
</a>
</g>
</g>
<!-- Node22&#45;&gt;Node23 -->
<g id="edge24_Node000022_Node000023" class="edge">
<title>Node22&#45;&gt;Node23</title>
<g id="a_edge24_Node000022_Node000023"><a xlink:title=" ">
<path fill="none" stroke="#63b8ff" d="M487.72,-164.75C483.29,-157.42 476.84,-146.73 471.38,-137.7"/>
<polygon fill="#63b8ff" stroke="#63b8ff" points="474.35,-135.84 466.19,-129.09 468.36,-139.46 474.35,-135.84"/>
</a>
</g>
</g>
<!-- Node24 -->
<g id="Node000024" class="node">
<title>Node24</title>
<g id="a_Node000024"><a xlink:title=" ">
<polygon fill="#e0e0e0" stroke="#999999" points="550,-129 500,-129 500,-110 550,-110 550,-129"/>
<text text-anchor="middle" x="525" y="-117" font-family="Helvetica,sans-Serif" font-size="10.00">cstring</text>
</a>
</g>
</g>
<!-- Node22&#45;&gt;Node24 -->
<g id="edge25_Node000022_Node000024" class="edge">
<title>Node22&#45;&gt;Node24</title>
<g id="a_edge25_Node000022_Node000024"><a xlink:title=" ">
<path fill="none" stroke="#63b8ff" d="M498.28,-164.75C502.71,-157.42 509.16,-146.73 514.62,-137.7"/>
<polygon fill="#63b8ff" stroke="#63b8ff" points="517.64,-139.46 519.81,-129.09 511.65,-135.84 517.64,-139.46"/>
</a>
</g>
</g>
<!-- Node25 -->
<g id="Node000025" class="node">
<title>Node25</title>
<g id="a_Node000025"><a xlink:title=" ">
<polygon fill="#e0e0e0" stroke="#999999" points="384,-129 336,-129 336,-110 384,-110 384,-129"/>
<text text-anchor="middle" x="360" y="-117" font-family="Helvetica,sans-Serif" font-size="10.00">iosfwd</text>
</a>
</g>
</g>
<!-- Node22&#45;&gt;Node25 -->
<g id="edge26_Node000022_Node000025" class="edge">
<title>Node22&#45;&gt;Node25</title>
<g id="a_edge26_Node000022_Node000025"><a xlink:title=" ">
<path fill="none" stroke="#63b8ff" d="M471.63,-164.98C449.85,-156.3 415.84,-142.75 391.08,-132.88"/>
<polygon fill="#63b8ff" stroke="#63b8ff" points="392.34,-129.62 381.76,-129.17 389.75,-136.12 392.34,-129.62"/>
</a>
</g>
</g>
<!-- Node26 -->
<g id="Node000026" class="node">
<title>Node26</title>
<g id="a_Node000026"><a xlink:title=" ">
<polygon fill="#e0e0e0" stroke="#999999" points="318,-129 260,-129 260,-110 318,-110 318,-129"/>
<text text-anchor="middle" x="289" y="-117" font-family="Helvetica,sans-Serif" font-size="10.00">memory</text>
</a>
</g>
</g>
<!-- Node22&#45;&gt;Node26 -->
<g id="edge27_Node000022_Node000026" class="edge">
<title>Node22&#45;&gt;Node26</title>
<g id="a_edge27_Node000022_Node000026"><a xlink:title=" ">
<path fill="none" stroke="#63b8ff" d="M460.22,-164.98C424.14,-155.61 366.17,-140.55 327.84,-130.59"/>
<polygon fill="#63b8ff" stroke="#63b8ff" points="328.62,-127.18 318.06,-128.05 326.86,-133.95 328.62,-127.18"/>
</a>
</g>
</g>
<!-- Node27&#45;&gt;Node21 -->
<g id="edge34_Node000027_Node000021" class="edge">
<title>Node27&#45;&gt;Node21</title>
<g id="a_edge34_Node000027_Node000021"><a xlink:title=" ">
<path fill="none" stroke="#63b8ff" d="M217.9,-164.98C182.72,-155.93 126.93,-141.58 88.28,-131.64"/>
<polygon fill="#63b8ff" stroke="#63b8ff" points="88.91,-128.18 78.36,-129.08 87.17,-134.96 88.91,-128.18"/>
</a>
</g>
</g>
<!-- Node27&#45;&gt;Node26 -->
<g id="edge32_Node000027_Node000026" class="edge">
<title>Node27&#45;&gt;Node26</title>
<g id="a_edge32_Node000027_Node000026"><a xlink:title=" ">
<path fill="none" stroke="#63b8ff" d="M257.27,-164.75C262.59,-157.34 270.36,-146.5 276.88,-137.41"/>
<polygon fill="#63b8ff" stroke="#63b8ff" points="279.86,-139.26 282.84,-129.09 274.17,-135.18 279.86,-139.26"/>
</a>
</g>
</g>
<!-- Node28 -->
<g id="Node000028" class="node">
<title>Node28</title>
<g id="a_Node000028"><a xlink:title=" ">
<polygon fill="#e0e0e0" stroke="#999999" points="241.5,-129 108.5,-129 108.5,-110 241.5,-110 241.5,-129"/>
<text text-anchor="middle" x="175" y="-117" font-family="Helvetica,sans-Serif" font-size="10.00">opencv2/core/types.hpp</text>
</a>
</g>
</g>
<!-- Node27&#45;&gt;Node28 -->
<g id="edge33_Node000027_Node000028" class="edge">
<title>Node27&#45;&gt;Node28</title>
<g id="a_edge33_Node000027_Node000028"><a xlink:title=" ">
<path fill="none" stroke="#63b8ff" d="M238.79,-164.98C227.22,-156.92 209.62,-144.65 195.84,-135.03"/>
<polygon fill="#63b8ff" stroke="#63b8ff" points="197.64,-132.02 187.43,-129.17 193.63,-137.76 197.64,-132.02"/>
</a>
</g>
</g>
<!-- Node29&#45;&gt;Node18 -->
<g id="edge36_Node000029_Node000018" class="edge">
<title>Node29&#45;&gt;Node18</title>
<g id="a_edge36_Node000029_Node000018"><a xlink:title=" ">
<path fill="none" stroke="#63b8ff" d="M1224.1,-331.21C1285.95,-320.59 1363,-294.51 1363,-230.5 1363,-230.5 1363,-230.5 1363,-118.5 1363,-62.84 1184.34,-29.7 1096.55,-16.77"/>
<polygon fill="#63b8ff" stroke="#63b8ff" points="1096.96,-13.3 1086.56,-15.33 1095.96,-20.23 1096.96,-13.3"/>
</a>
</g>
</g>
<!-- Node30 -->
<g id="Node000030" class="node">
<title>Node30</title>
<g id="a_Node000030"><a xlink:title=" ">
<polygon fill="#e0e0e0" stroke="#999999" points="1210.5,-294 1085.5,-294 1085.5,-275 1210.5,-275 1210.5,-294"/>
<text text-anchor="middle" x="1148" y="-282" font-family="Helvetica,sans-Serif" font-size="10.00">opencv2/core/mat.hpp</text>
</a>
</g>
</g>
<!-- Node29&#45;&gt;Node30 -->
<g id="edge37_Node000029_Node000030" class="edge">
<title>Node29&#45;&gt;Node30</title>
<g id="a_edge37_Node000029_Node000030"><a xlink:title=" ">
<path fill="none" stroke="#63b8ff" d="M1148,-329.75C1148,-322.8 1148,-312.85 1148,-304.13"/>
<polygon fill="#63b8ff" stroke="#63b8ff" points="1151.5,-304.09 1148,-294.09 1144.5,-304.09 1151.5,-304.09"/>
</a>
</g>
</g>
</g>
</svg>
