<?xml version="1.0" encoding="UTF-8" standalone="no"?>
<!DOCTYPE svg PUBLIC "-//W3C//DTD SVG 1.1//EN"
 "http://www.w3.org/Graphics/SVG/1.1/DTD/svg11.dtd">
<!-- Generated by graphviz version 2.43.0 (0)
 -->
<!-- Title: rm::para::GyroGroupParam Pages: 1 -->
<svg width="491pt" height="234pt"
 viewBox="0.00 0.00 491.00 234.00" xmlns="http://www.w3.org/2000/svg" xmlns:xlink="http://www.w3.org/1999/xlink">
<g id="graph0" class="graph" transform="scale(1 1) rotate(0) translate(4 230)">
<title>rm::para::GyroGroupParam</title>
<!-- Node1 -->
<g id="Node000001" class="node">
<title>Node1</title>
<g id="a_Node000001"><a xlink:title="GyroGroupParam 参数模块">
<polygon fill="#999999" stroke="transparent" points="287.5,-79 146.5,-79 146.5,0 287.5,0 287.5,-79"/>
<text text-anchor="start" x="152" y="-66.5" font-family="Helvetica,sans-Serif" font-size="10.00">rm::para::GyroGroupParam</text>
<text text-anchor="start" x="215.5" y="-51.5" font-family="Helvetica,sans-Serif" font-size="10.00"> </text>
<text text-anchor="start" x="158" y="-36.5" font-family="Helvetica,sans-Serif" font-size="10.00">+</text>
<text text-anchor="start" x="178" y="-36.5" font-family="Helvetica,sans-Serif" font-size="10.00">GyroGroupParam()</text>
<text text-anchor="start" x="158" y="-21.5" font-family="Helvetica,sans-Serif" font-size="10.00">+</text>
<text text-anchor="start" x="178" y="-21.5" font-family="Helvetica,sans-Serif" font-size="10.00">read()</text>
<text text-anchor="start" x="158" y="-6.5" font-family="Helvetica,sans-Serif" font-size="10.00">+</text>
<text text-anchor="start" x="178" y="-6.5" font-family="Helvetica,sans-Serif" font-size="10.00">write()</text>
<polygon fill="#666666" stroke="#666666" points="147,-61.5 147,-61.5 288,-61.5 288,-61.5 147,-61.5"/>
<polygon fill="#666666" stroke="#666666" points="147,-46.5 147,-46.5 288,-46.5 288,-46.5 147,-46.5"/>
<polygon fill="none" stroke="#666666" points="146.5,0 146.5,-79 287.5,-79 287.5,0 146.5,0"/>
</a>
</g>
</g>
<!-- Node2 -->
<g id="Node000002" class="node">
<title>Node2</title>
<g id="a_Node000002"><a xlink:title=" ">
<polygon fill="white" stroke="transparent" points="50,-226 0,-226 0,-177 50,-177 50,-226"/>
<text text-anchor="start" x="5" y="-213.5" font-family="Helvetica,sans-Serif" font-size="10.00">uint32_t</text>
<text text-anchor="start" x="23" y="-198.5" font-family="Helvetica,sans-Serif" font-size="10.00"> </text>
<text text-anchor="start" x="23" y="-183.5" font-family="Helvetica,sans-Serif" font-size="10.00"> </text>
<polygon fill="#666666" stroke="#666666" points="0,-208.5 0,-208.5 50,-208.5 50,-208.5 0,-208.5"/>
<polygon fill="#666666" stroke="#666666" points="0,-193.5 0,-193.5 50,-193.5 50,-193.5 0,-193.5"/>
<polygon fill="none" stroke="#666666" points="0,-177 0,-226 50,-226 50,-177 0,-177"/>
</a>
</g>
</g>
<!-- Node2&#45;&gt;Node1 -->
<g id="edge1_Node000001_Node000002" class="edge">
<title>Node2&#45;&gt;Node1</title>
<g id="a_edge1_Node000001_Node000002"><a xlink:title=" ">
<path fill="none" stroke="#63b8ff" d="M20.69,-176.75C17.95,-153.76 17.78,-119.21 36,-97 59.92,-67.85 98.67,-53.47 134.19,-46.48"/>
<polygon fill="none" stroke="#63b8ff" points="134.27,-46.47 139.49,-41.49 146.09,-44.39 140.88,-49.37 134.27,-46.47"/>
</a>
</g>
<text text-anchor="start" x="39" y="-125" font-family="Helvetica,sans-Serif" font-size="10.00" fill="grey">+TRACK_FRAMES</text>
</g>
<!-- Node3 -->
<g id="Node000003" class="node">
<title>Node3</title>
<g id="a_Node000003"><a xlink:title=" ">
<polygon fill="white" stroke="transparent" points="158,-226 126,-226 126,-177 158,-177 158,-226"/>
<text text-anchor="start" x="131" y="-213.5" font-family="Helvetica,sans-Serif" font-size="10.00">float</text>
<text text-anchor="start" x="140" y="-198.5" font-family="Helvetica,sans-Serif" font-size="10.00"> </text>
<text text-anchor="start" x="140" y="-183.5" font-family="Helvetica,sans-Serif" font-size="10.00"> </text>
<polygon fill="#666666" stroke="#666666" points="126,-208.5 126,-208.5 158,-208.5 158,-208.5 126,-208.5"/>
<polygon fill="#666666" stroke="#666666" points="126,-193.5 126,-193.5 158,-193.5 158,-193.5 126,-193.5"/>
<polygon fill="none" stroke="#666666" points="126,-177 126,-226 158,-226 158,-177 126,-177"/>
</a>
</g>
</g>
<!-- Node3&#45;&gt;Node1 -->
<g id="edge2_Node000001_Node000003" class="edge">
<title>Node3&#45;&gt;Node1</title>
<g id="a_edge2_Node000001_Node000003"><a xlink:title=" ">
<path fill="none" stroke="#63b8ff" d="M136.59,-176.93C132.82,-155.02 130.45,-122.07 143,-97 144.48,-94.05 146.19,-91.22 148.08,-88.49"/>
<polygon fill="none" stroke="#63b8ff" points="148.13,-88.44 148.8,-81.26 155.69,-79.12 155.02,-86.3 148.13,-88.44"/>
</a>
</g>
<text text-anchor="start" x="146.5" y="-148" font-family="Helvetica,sans-Serif" font-size="10.00" fill="grey">+INIT_RADIUS</text>
<text text-anchor="start" x="146.5" y="-133" font-family="Helvetica,sans-Serif" font-size="10.00" fill="grey">+MAX_LOW_ROT_SPEED</text>
<text text-anchor="start" x="146.5" y="-118" font-family="Helvetica,sans-Serif" font-size="10.00" fill="grey">+MIN_HIGH_ROT_SPEED</text>
<text text-anchor="start" x="146.5" y="-103" font-family="Helvetica,sans-Serif" font-size="10.00" fill="grey">+ROTSPEED_SIZE</text>
</g>
<!-- Node4 -->
<g id="Node000004" class="node">
<title>Node4</title>
<g id="a_Node000004"><a xlink:title=" ">
<polygon fill="white" stroke="transparent" points="344,-226 240,-226 240,-177 344,-177 344,-226"/>
<text text-anchor="start" x="245" y="-213.5" font-family="Helvetica,sans-Serif" font-size="10.00">Matx&lt; float, 6, 6 &gt;</text>
<text text-anchor="start" x="290" y="-198.5" font-family="Helvetica,sans-Serif" font-size="10.00"> </text>
<text text-anchor="start" x="290" y="-183.5" font-family="Helvetica,sans-Serif" font-size="10.00"> </text>
<polygon fill="#666666" stroke="#666666" points="240,-208.5 240,-208.5 344,-208.5 344,-208.5 240,-208.5"/>
<polygon fill="#666666" stroke="#666666" points="240,-193.5 240,-193.5 344,-193.5 344,-193.5 240,-193.5"/>
<polygon fill="none" stroke="#666666" points="240,-177 240,-226 344,-226 344,-177 240,-177"/>
</a>
</g>
</g>
<!-- Node4&#45;&gt;Node1 -->
<g id="edge3_Node000001_Node000004" class="edge">
<title>Node4&#45;&gt;Node1</title>
<g id="a_edge3_Node000001_Node000004"><a xlink:title=" ">
<path fill="none" stroke="#63b8ff" d="M290.59,-176.67C288.47,-154.86 283.19,-122.24 270,-97 268.58,-94.29 267,-91.61 265.29,-88.99"/>
<polygon fill="none" stroke="#63b8ff" points="265.2,-88.86 258.44,-86.35 258.16,-79.14 264.92,-81.66 265.2,-88.86"/>
</a>
</g>
<text text-anchor="start" x="291" y="-125" font-family="Helvetica,sans-Serif" font-size="10.00" fill="grey">+CENTER3D_Q</text>
</g>
<!-- Node5 -->
<g id="Node000005" class="node">
<title>Node5</title>
<g id="a_Node000005"><a xlink:title=" ">
<polygon fill="white" stroke="transparent" points="466,-226 362,-226 362,-177 466,-177 466,-226"/>
<text text-anchor="start" x="367" y="-213.5" font-family="Helvetica,sans-Serif" font-size="10.00">Matx&lt; float, 3, 3 &gt;</text>
<text text-anchor="start" x="412" y="-198.5" font-family="Helvetica,sans-Serif" font-size="10.00"> </text>
<text text-anchor="start" x="412" y="-183.5" font-family="Helvetica,sans-Serif" font-size="10.00"> </text>
<polygon fill="#666666" stroke="#666666" points="362,-208.5 362,-208.5 466,-208.5 466,-208.5 362,-208.5"/>
<polygon fill="#666666" stroke="#666666" points="362,-193.5 362,-193.5 466,-193.5 466,-193.5 362,-193.5"/>
<polygon fill="none" stroke="#666666" points="362,-177 362,-226 466,-226 466,-177 362,-177"/>
</a>
</g>
</g>
<!-- Node5&#45;&gt;Node1 -->
<g id="edge4_Node000001_Node000005" class="edge">
<title>Node5&#45;&gt;Node1</title>
<g id="a_edge4_Node000001_Node000005"><a xlink:title=" ">
<path fill="none" stroke="#63b8ff" d="M410.13,-176.84C405.15,-153.59 394.33,-118.54 372,-97 352.16,-77.86 325.32,-65.12 299.56,-56.68"/>
<polygon fill="none" stroke="#63b8ff" points="299.3,-56.61 292.4,-58.68 287.83,-53.1 294.73,-51.03 299.3,-56.61"/>
</a>
</g>
<text text-anchor="start" x="407.5" y="-125" font-family="Helvetica,sans-Serif" font-size="10.00" fill="grey">+CENTER3D_R</text>
</g>
</g>
</svg>
