<?xml version="1.0" encoding="UTF-8" standalone="no"?>
<!DOCTYPE svg PUBLIC "-//W3C//DTD SVG 1.1//EN"
 "http://www.w3.org/Graphics/SVG/1.1/DTD/svg11.dtd">
<!-- Generated by graphviz version 2.43.0 (0)
 -->
<!-- Title: rm::Tag Pages: 1 -->
<svg width="105pt" height="367pt"
 viewBox="0.00 0.00 105.00 367.00" xmlns="http://www.w3.org/2000/svg" xmlns:xlink="http://www.w3.org/1999/xlink">

<svg id="main" version="1.1" xmlns="http://www.w3.org/2000/svg" xmlns:xlink="http://www.w3.org/1999/xlink" xml:space="preserve" onload="init(evt)">
<style type="text/css"><![CDATA[
.node, .edge {opacity: 0.7;}
.node.selected, .edge.selected {opacity: 1;}
.edge:hover path { stroke: red; }
.edge:hover polygon { stroke: red; fill: red; }
]]></style>
<script type="application/ecmascript" xlink:href="../../svg.min.js"/>
<svg id="graph" class="graph">
<g id="graph0" class="graph" transform="scale(1 1) rotate(0) translate(4 363)">
<title>rm::Tag</title>
<!-- Node1 -->
<g id="Node000001" class="node">
<title>Node1</title>
<g id="a_Node000001"><a xlink:title="AprilTag 视觉标签特征类">
<polygon fill="#999999" stroke="transparent" points="97,-94 0,-94 0,0 97,0 97,-94"/>
<text text-anchor="start" x="30.5" y="-82" font-family="Helvetica,sans-Serif" font-size="10.00">rm::Tag</text>
<text text-anchor="start" x="47" y="-67" font-family="Helvetica,sans-Serif" font-size="10.00"> </text>
<text text-anchor="start" x="4.5" y="-52" font-family="Helvetica,sans-Serif" font-size="10.00">+</text>
<text text-anchor="start" x="17.5" y="-52" font-family="Helvetica,sans-Serif" font-size="10.00">Tag()</text>
<text text-anchor="start" x="4.5" y="-37" font-family="Helvetica,sans-Serif" font-size="10.00">+</text>
<text text-anchor="start" x="17.5" y="-37" font-family="Helvetica,sans-Serif" font-size="10.00">make_feature()</text>
<text text-anchor="start" x="4.5" y="-22" font-family="Helvetica,sans-Serif" font-size="10.00">+</text>
<text text-anchor="start" x="17.5" y="-22" font-family="Helvetica,sans-Serif" font-size="10.00">cast()</text>
<text text-anchor="start" x="4.5" y="-7" font-family="Helvetica,sans-Serif" font-size="10.00">+</text>
<text text-anchor="start" x="17.5" y="-7" font-family="Helvetica,sans-Serif" font-size="10.00">cast()</text>
<polygon fill="#666666" stroke="#666666" points="0.5,-77 0.5,-77 97.5,-77 97.5,-77 0.5,-77"/>
<polygon fill="#666666" stroke="#666666" points="0.5,-62 0.5,-62 97.5,-62 97.5,-62 0.5,-62"/>
<polygon fill="none" stroke="#666666" points="0,0 0,-94 97,-94 97,0 0,0"/>
</a>
</g>
</g>
<!-- Node2 -->
<g id="Node000002" class="node">
<title>Node2</title>
<g id="a_Node000002"><a xlink:href="../../df/db7/classrm_1_1feature.html" target="_top" xlink:title="图像中的轮廓特征">
<polygon fill="white" stroke="transparent" points="89.5,-359 7.5,-359 7.5,-130 89.5,-130 89.5,-359"/>
<text text-anchor="start" x="21" y="-346.5" font-family="Helvetica,sans-Serif" font-size="10.00">rm::feature</text>
<text text-anchor="start" x="11.5" y="-331.5" font-family="Helvetica,sans-Serif" font-size="10.00">#</text>
<text text-anchor="start" x="24.5" y="-331.5" font-family="Helvetica,sans-Serif" font-size="10.00">_width</text>
<text text-anchor="start" x="11.5" y="-316.5" font-family="Helvetica,sans-Serif" font-size="10.00">#</text>
<text text-anchor="start" x="24.5" y="-316.5" font-family="Helvetica,sans-Serif" font-size="10.00">_height</text>
<text text-anchor="start" x="11.5" y="-301.5" font-family="Helvetica,sans-Serif" font-size="10.00">#</text>
<text text-anchor="start" x="24.5" y="-301.5" font-family="Helvetica,sans-Serif" font-size="10.00">_angle</text>
<text text-anchor="start" x="11.5" y="-286.5" font-family="Helvetica,sans-Serif" font-size="10.00">#</text>
<text text-anchor="start" x="24.5" y="-286.5" font-family="Helvetica,sans-Serif" font-size="10.00">_center</text>
<text text-anchor="start" x="11.5" y="-271.5" font-family="Helvetica,sans-Serif" font-size="10.00">#</text>
<text text-anchor="start" x="24.5" y="-271.5" font-family="Helvetica,sans-Serif" font-size="10.00">_corners</text>
<text text-anchor="start" x="11.5" y="-256.5" font-family="Helvetica,sans-Serif" font-size="10.00">#</text>
<text text-anchor="start" x="24.5" y="-256.5" font-family="Helvetica,sans-Serif" font-size="10.00">_type</text>
<text text-anchor="start" x="11.5" y="-241.5" font-family="Helvetica,sans-Serif" font-size="10.00">+</text>
<text text-anchor="start" x="24.5" y="-241.5" font-family="Helvetica,sans-Serif" font-size="10.00">~feature()</text>
<text text-anchor="start" x="11.5" y="-226.5" font-family="Helvetica,sans-Serif" font-size="10.00">+</text>
<text text-anchor="start" x="24.5" y="-226.5" font-family="Helvetica,sans-Serif" font-size="10.00">getArea()</text>
<text text-anchor="start" x="11.5" y="-211.5" font-family="Helvetica,sans-Serif" font-size="10.00">+</text>
<text text-anchor="start" x="24.5" y="-211.5" font-family="Helvetica,sans-Serif" font-size="10.00">getCenter()</text>
<text text-anchor="start" x="11.5" y="-196.5" font-family="Helvetica,sans-Serif" font-size="10.00">+</text>
<text text-anchor="start" x="24.5" y="-196.5" font-family="Helvetica,sans-Serif" font-size="10.00">getWidth()</text>
<text text-anchor="start" x="11.5" y="-181.5" font-family="Helvetica,sans-Serif" font-size="10.00">+</text>
<text text-anchor="start" x="24.5" y="-181.5" font-family="Helvetica,sans-Serif" font-size="10.00">getHeight()</text>
<text text-anchor="start" x="11.5" y="-166.5" font-family="Helvetica,sans-Serif" font-size="10.00">+</text>
<text text-anchor="start" x="24.5" y="-166.5" font-family="Helvetica,sans-Serif" font-size="10.00">getAngle()</text>
<text text-anchor="start" x="11.5" y="-151.5" font-family="Helvetica,sans-Serif" font-size="10.00">+</text>
<text text-anchor="start" x="24.5" y="-151.5" font-family="Helvetica,sans-Serif" font-size="10.00">getCorners()</text>
<text text-anchor="start" x="11.5" y="-136.5" font-family="Helvetica,sans-Serif" font-size="10.00">+</text>
<text text-anchor="start" x="24.5" y="-136.5" font-family="Helvetica,sans-Serif" font-size="10.00">getType()</text>
<polygon fill="#666666" stroke="#666666" points="7.5,-341.5 7.5,-341.5 89.5,-341.5 89.5,-341.5 7.5,-341.5"/>
<polygon fill="#666666" stroke="#666666" points="7.5,-251.5 7.5,-251.5 22.5,-251.5 22.5,-251.5 7.5,-251.5"/>
<polygon fill="#666666" stroke="#666666" points="22.5,-251.5 22.5,-251.5 89.5,-251.5 89.5,-251.5 22.5,-251.5"/>
<polygon fill="none" stroke="#666666" points="7.5,-130 7.5,-359 89.5,-359 89.5,-130 7.5,-130"/>
</a>
</g>
</g>
<!-- Node2&#45;&gt;Node1 -->
<g id="edge1_Node000001_Node000002" class="edge">
<title>Node2&#45;&gt;Node1</title>
<g id="a_edge1_Node000001_Node000002"><a xlink:title=" ">
<path fill="none" stroke="#63b8ff" d="M48.5,-119.68C48.5,-110.83 48.5,-102.29 48.5,-94.38"/>
<polygon fill="none" stroke="#63b8ff" points="45,-119.78 48.5,-129.78 52,-119.78 45,-119.78"/>
</a>
</g>
</g>
</g>
</svg>
</svg>

<style type='text/css'>
<![CDATA[
[data-mouse-over-selected='false'] { opacity: 0.7; }
[data-mouse-over-selected='true']  { opacity: 1.0; }
]]>
</style>
<script type="application/ecmascript"><![CDATA[
document.addEventListener('DOMContentLoaded', (event) => {
  highlightEdges();
  highlightAdjacentNodes();
});
]]></script>
</svg>
