<?xml version="1.0" encoding="UTF-8" standalone="no"?>
<!DOCTYPE svg PUBLIC "-//W3C//DTD SVG 1.1//EN"
 "http://www.w3.org/Graphics/SVG/1.1/DTD/svg11.dtd">
<!-- Generated by graphviz version 2.43.0 (0)
 -->
<!-- Title: rm::feature Pages: 1 -->
<svg width="717pt" height="487pt"
 viewBox="0.00 0.00 716.50 487.00" xmlns="http://www.w3.org/2000/svg" xmlns:xlink="http://www.w3.org/1999/xlink">
<g id="graph0" class="graph" transform="scale(1 1) rotate(0) translate(4 483)">
<title>rm::feature</title>
<!-- Node1 -->
<g id="Node000001" class="node">
<title>Node1</title>
<g id="a_Node000001"><a xlink:title="图像中的轮廓特征">
<polygon fill="#999999" stroke="transparent" points="133.5,-154 75.5,-154 75.5,0 133.5,0 133.5,-154"/>
<text text-anchor="start" x="80.5" y="-142" font-family="Helvetica,sans-Serif" font-size="10.00">rm::feature</text>
<text text-anchor="start" x="102.5" y="-127" font-family="Helvetica,sans-Serif" font-size="10.00"> </text>
<text text-anchor="start" x="79.5" y="-112" font-family="Helvetica,sans-Serif" font-size="10.00">+</text>
<text text-anchor="start" x="90.5" y="-112" font-family="Helvetica,sans-Serif" font-size="10.00">clone()</text>
<text text-anchor="start" x="79.5" y="-97" font-family="Helvetica,sans-Serif" font-size="10.00">+</text>
<text text-anchor="start" x="90.5" y="-97" font-family="Helvetica,sans-Serif" font-size="10.00">area()</text>
<text text-anchor="start" x="79.5" y="-82" font-family="Helvetica,sans-Serif" font-size="10.00">+</text>
<text text-anchor="start" x="90.5" y="-82" font-family="Helvetica,sans-Serif" font-size="10.00">center()</text>
<text text-anchor="start" x="79.5" y="-67" font-family="Helvetica,sans-Serif" font-size="10.00">+</text>
<text text-anchor="start" x="90.5" y="-67" font-family="Helvetica,sans-Serif" font-size="10.00">width()</text>
<text text-anchor="start" x="79.5" y="-52" font-family="Helvetica,sans-Serif" font-size="10.00">+</text>
<text text-anchor="start" x="90.5" y="-52" font-family="Helvetica,sans-Serif" font-size="10.00">height()</text>
<text text-anchor="start" x="79.5" y="-37" font-family="Helvetica,sans-Serif" font-size="10.00">+</text>
<text text-anchor="start" x="90.5" y="-37" font-family="Helvetica,sans-Serif" font-size="10.00">angle()</text>
<text text-anchor="start" x="79.5" y="-22" font-family="Helvetica,sans-Serif" font-size="10.00">+</text>
<text text-anchor="start" x="90.5" y="-22" font-family="Helvetica,sans-Serif" font-size="10.00">corners()</text>
<text text-anchor="start" x="79.5" y="-7" font-family="Helvetica,sans-Serif" font-size="10.00">+</text>
<text text-anchor="start" x="90.5" y="-7" font-family="Helvetica,sans-Serif" font-size="10.00">type()</text>
<polygon fill="#666666" stroke="#666666" points="75.5,-137 75.5,-137 133.5,-137 133.5,-137 75.5,-137"/>
<polygon fill="#666666" stroke="#666666" points="75.5,-122 75.5,-122 133.5,-122 133.5,-122 75.5,-122"/>
<polygon fill="none" stroke="#666666" points="75.5,0 75.5,-154 133.5,-154 133.5,0 75.5,0"/>
</a>
</g>
</g>
<!-- Node2 -->
<g id="Node000002" class="node">
<title>Node2</title>
<g id="a_Node000002"><a xlink:title=" ">
<polygon fill="white" stroke="transparent" points="29,-279.5 0,-279.5 0,-230.5 29,-230.5 29,-279.5"/>
<text text-anchor="start" x="5.5" y="-267" font-family="Helvetica,sans-Serif" font-size="10.00">float</text>
<text text-anchor="start" x="13" y="-252" font-family="Helvetica,sans-Serif" font-size="10.00"> </text>
<text text-anchor="start" x="13" y="-237" font-family="Helvetica,sans-Serif" font-size="10.00"> </text>
<polygon fill="#666666" stroke="#666666" points="0.5,-262 0.5,-262 29.5,-262 29.5,-262 0.5,-262"/>
<polygon fill="#666666" stroke="#666666" points="0.5,-247 0.5,-247 29.5,-247 29.5,-247 0.5,-247"/>
<polygon fill="none" stroke="#666666" points="0,-230.5 0,-279.5 29,-279.5 29,-230.5 0,-230.5"/>
</a>
</g>
</g>
<!-- Node2&#45;&gt;Node1 -->
<g id="edge1_Node000001_Node000002" class="edge">
<title>Node2&#45;&gt;Node1</title>
<g id="a_edge1_Node000001_Node000002"><a xlink:title=" ">
<path fill="none" stroke="#63b8ff" d="M10.36,-230.49C8.42,-213.59 7.96,-190.6 15.5,-172 25.9,-146.34 46.9,-123.61 65.89,-106.93"/>
<polygon fill="none" stroke="#63b8ff" points="66.11,-106.75 68.12,-99.82 75.28,-99.01 73.27,-105.94 66.11,-106.75"/>
</a>
</g>
<text text-anchor="middle" x="34" y="-197" font-family="Helvetica,sans-Serif" font-size="10.00" fill="grey"> #_angle</text>
<text text-anchor="middle" x="34" y="-186" font-family="Helvetica,sans-Serif" font-size="10.00" fill="grey">#_height</text>
<text text-anchor="middle" x="34" y="-175" font-family="Helvetica,sans-Serif" font-size="10.00" fill="grey">#_width</text>
</g>
<!-- Node3 -->
<g id="Node000003" class="node">
<title>Node3</title>
<g id="a_Node000003"><a xlink:title=" ">
<polygon fill="white" stroke="transparent" points="104,-383 63,-383 63,-334 104,-334 104,-383"/>
<text text-anchor="start" x="68.5" y="-370.5" font-family="Helvetica,sans-Serif" font-size="10.00">Point2f</text>
<text text-anchor="start" x="82" y="-355.5" font-family="Helvetica,sans-Serif" font-size="10.00"> </text>
<text text-anchor="start" x="82" y="-340.5" font-family="Helvetica,sans-Serif" font-size="10.00"> </text>
<polygon fill="#666666" stroke="#666666" points="63.5,-365.5 63.5,-365.5 104.5,-365.5 104.5,-365.5 63.5,-365.5"/>
<polygon fill="#666666" stroke="#666666" points="63.5,-350.5 63.5,-350.5 104.5,-350.5 104.5,-350.5 63.5,-350.5"/>
<polygon fill="none" stroke="#666666" points="63,-334 63,-383 104,-383 104,-334 63,-334"/>
</a>
</g>
</g>
<!-- Node3&#45;&gt;Node1 -->
<g id="edge2_Node000001_Node000003" class="edge">
<title>Node3&#45;&gt;Node1</title>
<g id="a_edge2_Node000001_Node000003"><a xlink:title=" ">
<path fill="none" stroke="#63b8ff" d="M80.13,-333.73C78.36,-320.09 76.38,-302.62 75.5,-287 73.89,-258.6 72.7,-251.31 75.5,-223 77.33,-204.47 80.46,-184.8 83.99,-166.12"/>
<polygon fill="none" stroke="#63b8ff" points="83.99,-166.11 81.22,-159.45 86.3,-154.33 89.07,-160.99 83.99,-166.11"/>
</a>
</g>
<text text-anchor="middle" x="96" y="-252.5" font-family="Helvetica,sans-Serif" font-size="10.00" fill="grey"> #_center</text>
</g>
<!-- Node4 -->
<g id="Node000004" class="node">
<title>Node4</title>
<g id="a_Node000004"><a xlink:title=" ">
<polygon fill="white" stroke="transparent" points="247.5,-279.5 125.5,-279.5 125.5,-230.5 247.5,-230.5 247.5,-279.5"/>
<text text-anchor="start" x="130.5" y="-267" font-family="Helvetica,sans-Serif" font-size="10.00">std::vector&lt; cv::Point2f &gt;</text>
<text text-anchor="start" x="184.5" y="-252" font-family="Helvetica,sans-Serif" font-size="10.00"> </text>
<text text-anchor="start" x="184.5" y="-237" font-family="Helvetica,sans-Serif" font-size="10.00"> </text>
<polygon fill="#666666" stroke="#666666" points="125.5,-262 125.5,-262 247.5,-262 247.5,-262 125.5,-262"/>
<polygon fill="#666666" stroke="#666666" points="125.5,-247 125.5,-247 247.5,-247 247.5,-247 125.5,-247"/>
<polygon fill="none" stroke="#666666" points="125.5,-230.5 125.5,-279.5 247.5,-279.5 247.5,-230.5 125.5,-230.5"/>
</a>
</g>
</g>
<!-- Node3&#45;&gt;Node4 -->
<g id="edge4_Node000004_Node000003" class="edge">
<title>Node3&#45;&gt;Node4</title>
<g id="a_edge4_Node000004_Node000003"><a xlink:title=" ">
<path fill="none" stroke="#63b8ff" d="M102.97,-333.86C110.92,-324.59 120.37,-314.04 129.5,-305 135.36,-299.2 141.79,-293.28 148.16,-287.65"/>
<polygon fill="none" stroke="#63b8ff" points="148.31,-287.52 150.23,-280.57 157.38,-279.66 155.47,-286.61 148.31,-287.52"/>
</a>
</g>
<text text-anchor="middle" x="154" y="-308" font-family="Helvetica,sans-Serif" font-size="10.00" fill="grey"> +elements</text>
</g>
<!-- Node4&#45;&gt;Node1 -->
<g id="edge3_Node000001_Node000004" class="edge">
<title>Node4&#45;&gt;Node1</title>
<g id="a_edge3_Node000001_Node000004"><a xlink:title=" ">
<path fill="none" stroke="#63b8ff" d="M175.44,-230.26C165.99,-209.97 151.86,-179.65 138.7,-151.4"/>
<polygon fill="none" stroke="#63b8ff" points="138.59,-151.16 132.43,-147.41 133.52,-140.28 139.68,-144.03 138.59,-151.16"/>
</a>
</g>
<text text-anchor="middle" x="185.5" y="-186" font-family="Helvetica,sans-Serif" font-size="10.00" fill="grey"> #_corners</text>
</g>
<!-- Node5 -->
<g id="Node000005" class="node">
<title>Node5</title>
<g id="a_Node000005"><a xlink:title=" ">
<polygon fill="white" stroke="transparent" points="220,-383 139,-383 139,-334 220,-334 220,-383"/>
<text text-anchor="start" x="144.5" y="-370.5" font-family="Helvetica,sans-Serif" font-size="10.00">std::vector&lt; T &gt;</text>
<text text-anchor="start" x="178" y="-355.5" font-family="Helvetica,sans-Serif" font-size="10.00"> </text>
<text text-anchor="start" x="178" y="-340.5" font-family="Helvetica,sans-Serif" font-size="10.00"> </text>
<polygon fill="#666666" stroke="#666666" points="139.5,-365.5 139.5,-365.5 220.5,-365.5 220.5,-365.5 139.5,-365.5"/>
<polygon fill="#666666" stroke="#666666" points="139.5,-350.5 139.5,-350.5 220.5,-350.5 220.5,-350.5 139.5,-350.5"/>
<polygon fill="none" stroke="#666666" points="139,-334 139,-383 220,-383 220,-334 139,-334"/>
</a>
</g>
</g>
<!-- Node5&#45;&gt;Node4 -->
<g id="edge5_Node000004_Node000005" class="edge">
<title>Node5&#45;&gt;Node4</title>
<g id="a_edge5_Node000004_Node000005"><a xlink:title=" ">
<path fill="none" stroke="orange" d="M181.82,-323.89C182.81,-309.45 183.95,-292.9 184.86,-279.77"/>
<polygon fill="orange" stroke="orange" points="178.32,-323.74 181.12,-333.96 185.3,-324.22 178.32,-323.74"/>
</a>
</g>
<text text-anchor="middle" x="218" y="-308" font-family="Helvetica,sans-Serif" font-size="10.00" fill="grey"> &lt; cv::Point2f &gt;</text>
</g>
<!-- Node6 -->
<g id="Node000006" class="node">
<title>Node6</title>
<g id="a_Node000006"><a xlink:title=" ">
<polygon fill="white" stroke="transparent" points="188,-479 171,-479 171,-430 188,-430 188,-479"/>
<text text-anchor="start" x="176.5" y="-466.5" font-family="Helvetica,sans-Serif" font-size="10.00">T</text>
<text text-anchor="start" x="178" y="-451.5" font-family="Helvetica,sans-Serif" font-size="10.00"> </text>
<text text-anchor="start" x="178" y="-436.5" font-family="Helvetica,sans-Serif" font-size="10.00"> </text>
<polygon fill="#666666" stroke="#666666" points="171.5,-461.5 171.5,-461.5 188.5,-461.5 188.5,-461.5 171.5,-461.5"/>
<polygon fill="#666666" stroke="#666666" points="171.5,-446.5 171.5,-446.5 188.5,-446.5 188.5,-446.5 171.5,-446.5"/>
<polygon fill="none" stroke="#666666" points="171,-430 171,-479 188,-479 188,-430 171,-430"/>
</a>
</g>
</g>
<!-- Node6&#45;&gt;Node5 -->
<g id="edge6_Node000005_Node000006" class="edge">
<title>Node6&#45;&gt;Node5</title>
<g id="a_edge6_Node000005_Node000006"><a xlink:title=" ">
<path fill="none" stroke="#63b8ff" d="M179.5,-429.78C179.5,-419.32 179.5,-406.79 179.5,-395.23"/>
<polygon fill="none" stroke="#63b8ff" points="179.5,-395.21 175.5,-389.21 179.5,-383.21 183.5,-389.21 179.5,-395.21"/>
</a>
</g>
<text text-anchor="middle" x="204" y="-404" font-family="Helvetica,sans-Serif" font-size="10.00" fill="grey"> +elements</text>
</g>
<!-- Node7 -->
<g id="Node000007" class="node">
<title>Node7</title>
<g id="a_Node000007"><a xlink:href="../../d0/d01/structrm_1_1RMStatus.html" target="_top" xlink:title="状态类型">
<polygon fill="white" stroke="transparent" points="465.5,-287 393.5,-287 393.5,-223 465.5,-223 465.5,-287"/>
<text text-anchor="start" x="398.5" y="-275" font-family="Helvetica,sans-Serif" font-size="10.00">rm::RMStatus</text>
<text text-anchor="start" x="427.5" y="-260" font-family="Helvetica,sans-Serif" font-size="10.00"> </text>
<text text-anchor="start" x="399.5" y="-245" font-family="Helvetica,sans-Serif" font-size="10.00">+</text>
<text text-anchor="start" x="412.5" y="-245" font-family="Helvetica,sans-Serif" font-size="10.00">to_string()</text>
<text text-anchor="start" x="399.5" y="-230" font-family="Helvetica,sans-Serif" font-size="10.00">+</text>
<text text-anchor="start" x="412.5" y="-230" font-family="Helvetica,sans-Serif" font-size="10.00">to_string()</text>
<polygon fill="#666666" stroke="#666666" points="393.5,-270 393.5,-270 465.5,-270 465.5,-270 393.5,-270"/>
<polygon fill="#666666" stroke="#666666" points="393.5,-255 393.5,-255 465.5,-255 465.5,-255 393.5,-255"/>
<polygon fill="none" stroke="#666666" points="393.5,-223 393.5,-287 465.5,-287 465.5,-223 393.5,-223"/>
</a>
</g>
</g>
<!-- Node7&#45;&gt;Node1 -->
<g id="edge7_Node000001_Node000007" class="edge">
<title>Node7&#45;&gt;Node1</title>
<g id="a_edge7_Node000001_Node000007"><a xlink:title=" ">
<path fill="none" stroke="#63b8ff" d="M393.48,-234.49C332.21,-201.31 208.15,-134.13 144.36,-99.59"/>
<polygon fill="none" stroke="#63b8ff" points="144.1,-99.45 136.92,-100.11 133.55,-93.73 140.73,-93.07 144.1,-99.45"/>
</a>
</g>
<text text-anchor="middle" x="350" y="-186" font-family="Helvetica,sans-Serif" font-size="10.00" fill="grey"> #_type</text>
</g>
<!-- Node8 -->
<g id="Node000008" class="node">
<title>Node8</title>
<g id="a_Node000008"><a xlink:title=" ">
<polygon fill="white" stroke="transparent" points="315,-383 238,-383 238,-334 315,-334 315,-383"/>
<text text-anchor="start" x="243.5" y="-370.5" font-family="Helvetica,sans-Serif" font-size="10.00">ArmorSizeType</text>
<text text-anchor="start" x="275" y="-355.5" font-family="Helvetica,sans-Serif" font-size="10.00"> </text>
<text text-anchor="start" x="275" y="-340.5" font-family="Helvetica,sans-Serif" font-size="10.00"> </text>
<polygon fill="#666666" stroke="#666666" points="238.5,-365.5 238.5,-365.5 315.5,-365.5 315.5,-365.5 238.5,-365.5"/>
<polygon fill="#666666" stroke="#666666" points="238.5,-350.5 238.5,-350.5 315.5,-350.5 315.5,-350.5 238.5,-350.5"/>
<polygon fill="none" stroke="#666666" points="238,-334 238,-383 315,-383 315,-334 238,-334"/>
</a>
</g>
</g>
<!-- Node8&#45;&gt;Node7 -->
<g id="edge8_Node000007_Node000008" class="edge">
<title>Node8&#45;&gt;Node7</title>
<g id="a_edge8_Node000007_Node000008"><a xlink:title=" ">
<path fill="none" stroke="#63b8ff" d="M279.44,-333.94C281.78,-323.92 285.97,-312.78 293.5,-305 316.64,-281.09 352.28,-268.81 381.27,-262.52"/>
<polygon fill="none" stroke="#63b8ff" points="381.46,-262.48 386.58,-257.4 393.23,-260.17 388.12,-265.25 381.46,-262.48"/>
</a>
</g>
<text text-anchor="middle" x="337" y="-308" font-family="Helvetica,sans-Serif" font-size="10.00" fill="grey"> +ArmorSizeTypeID</text>
</g>
<!-- Node9 -->
<g id="Node000009" class="node">
<title>Node9</title>
<g id="a_Node000009"><a xlink:title=" ">
<polygon fill="white" stroke="transparent" points="413,-383 358,-383 358,-334 413,-334 413,-383"/>
<text text-anchor="start" x="363.5" y="-370.5" font-family="Helvetica,sans-Serif" font-size="10.00">RuneType</text>
<text text-anchor="start" x="384" y="-355.5" font-family="Helvetica,sans-Serif" font-size="10.00"> </text>
<text text-anchor="start" x="384" y="-340.5" font-family="Helvetica,sans-Serif" font-size="10.00"> </text>
<polygon fill="#666666" stroke="#666666" points="358.5,-365.5 358.5,-365.5 413.5,-365.5 413.5,-365.5 358.5,-365.5"/>
<polygon fill="#666666" stroke="#666666" points="358.5,-350.5 358.5,-350.5 413.5,-350.5 413.5,-350.5 358.5,-350.5"/>
<polygon fill="none" stroke="#666666" points="358,-334 358,-383 413,-383 413,-334 358,-334"/>
</a>
</g>
</g>
<!-- Node9&#45;&gt;Node7 -->
<g id="edge9_Node000007_Node000009" class="edge">
<title>Node9&#45;&gt;Node7</title>
<g id="a_edge9_Node000007_Node000009"><a xlink:title=" ">
<path fill="none" stroke="#63b8ff" d="M383.12,-333.82C383.02,-324.55 383.97,-314 387.5,-305 388.5,-302.46 389.68,-299.95 391.02,-297.51"/>
<polygon fill="none" stroke="#63b8ff" points="391.17,-297.27 391.04,-290.06 397.65,-287.18 397.77,-294.39 391.17,-297.27"/>
</a>
</g>
<text text-anchor="middle" x="419.5" y="-308" font-family="Helvetica,sans-Serif" font-size="10.00" fill="grey"> +RuneTypeID</text>
</g>
<!-- Node10 -->
<g id="Node000010" class="node">
<title>Node10</title>
<g id="a_Node000010"><a xlink:title=" ">
<polygon fill="white" stroke="transparent" points="518,-383 431,-383 431,-334 518,-334 518,-383"/>
<text text-anchor="start" x="436.5" y="-370.5" font-family="Helvetica,sans-Serif" font-size="10.00">CompensateType</text>
<text text-anchor="start" x="473" y="-355.5" font-family="Helvetica,sans-Serif" font-size="10.00"> </text>
<text text-anchor="start" x="473" y="-340.5" font-family="Helvetica,sans-Serif" font-size="10.00"> </text>
<polygon fill="#666666" stroke="#666666" points="431.5,-365.5 431.5,-365.5 518.5,-365.5 518.5,-365.5 431.5,-365.5"/>
<polygon fill="#666666" stroke="#666666" points="431.5,-350.5 431.5,-350.5 518.5,-350.5 518.5,-350.5 431.5,-350.5"/>
<polygon fill="none" stroke="#666666" points="431,-334 431,-383 518,-383 518,-334 431,-334"/>
</a>
</g>
</g>
<!-- Node10&#45;&gt;Node7 -->
<g id="edge10_Node000007_Node000010" class="edge">
<title>Node10&#45;&gt;Node7</title>
<g id="a_edge10_Node000007_Node000010"><a xlink:title=" ">
<path fill="none" stroke="#63b8ff" d="M464.24,-333.96C460.28,-324.9 455.7,-314.46 451.5,-305 450.5,-302.74 449.46,-300.41 448.42,-298.07"/>
<polygon fill="none" stroke="#63b8ff" points="448.41,-298.04 442.31,-294.2 443.51,-287.09 449.61,-290.93 448.41,-298.04"/>
</a>
</g>
<text text-anchor="middle" x="504" y="-308" font-family="Helvetica,sans-Serif" font-size="10.00" fill="grey"> +CompensateTypeID</text>
</g>
<!-- Node11 -->
<g id="Node000011" class="node">
<title>Node11</title>
<g id="a_Node000011"><a xlink:title=" ">
<polygon fill="white" stroke="transparent" points="622.5,-383 564.5,-383 564.5,-334 622.5,-334 622.5,-383"/>
<text text-anchor="start" x="569.5" y="-370.5" font-family="Helvetica,sans-Serif" font-size="10.00">RobotType</text>
<text text-anchor="start" x="591.5" y="-355.5" font-family="Helvetica,sans-Serif" font-size="10.00"> </text>
<text text-anchor="start" x="591.5" y="-340.5" font-family="Helvetica,sans-Serif" font-size="10.00"> </text>
<polygon fill="#666666" stroke="#666666" points="564.5,-365.5 564.5,-365.5 622.5,-365.5 622.5,-365.5 564.5,-365.5"/>
<polygon fill="#666666" stroke="#666666" points="564.5,-350.5 564.5,-350.5 622.5,-350.5 622.5,-350.5 564.5,-350.5"/>
<polygon fill="none" stroke="#666666" points="564.5,-334 564.5,-383 622.5,-383 622.5,-334 564.5,-334"/>
</a>
</g>
</g>
<!-- Node11&#45;&gt;Node7 -->
<g id="edge11_Node000007_Node000011" class="edge">
<title>Node11&#45;&gt;Node7</title>
<g id="a_edge11_Node000007_Node000011"><a xlink:title=" ">
<path fill="none" stroke="#63b8ff" d="M581.06,-333.91C574.81,-323.89 566.43,-312.75 556.5,-305 533.34,-286.93 502.72,-274.85 477.36,-267.21"/>
<polygon fill="none" stroke="#63b8ff" points="477.29,-267.19 470.43,-269.4 465.75,-263.91 472.61,-261.7 477.29,-267.19"/>
</a>
</g>
<text text-anchor="middle" x="601" y="-308" font-family="Helvetica,sans-Serif" font-size="10.00" fill="grey"> +RobotTypeID</text>
</g>
<!-- Node12 -->
<g id="Node000012" class="node">
<title>Node12</title>
<g id="a_Node000012"><a xlink:title=" ">
<polygon fill="white" stroke="transparent" points="707,-383 660,-383 660,-334 707,-334 707,-383"/>
<text text-anchor="start" x="665.5" y="-370.5" font-family="Helvetica,sans-Serif" font-size="10.00">TagType</text>
<text text-anchor="start" x="682" y="-355.5" font-family="Helvetica,sans-Serif" font-size="10.00"> </text>
<text text-anchor="start" x="682" y="-340.5" font-family="Helvetica,sans-Serif" font-size="10.00"> </text>
<polygon fill="#666666" stroke="#666666" points="660.5,-365.5 660.5,-365.5 707.5,-365.5 707.5,-365.5 660.5,-365.5"/>
<polygon fill="#666666" stroke="#666666" points="660.5,-350.5 660.5,-350.5 707.5,-350.5 707.5,-350.5 660.5,-350.5"/>
<polygon fill="none" stroke="#666666" points="660,-334 660,-383 707,-383 707,-334 660,-334"/>
</a>
</g>
</g>
<!-- Node12&#45;&gt;Node7 -->
<g id="edge12_Node000007_Node000012" class="edge">
<title>Node12&#45;&gt;Node7</title>
<g id="a_edge12_Node000007_Node000012"><a xlink:title=" ">
<path fill="none" stroke="#63b8ff" d="M668.32,-333.79C660.58,-323.49 650.3,-312.17 638.5,-305 588.98,-274.89 522.49,-263.28 477.93,-258.81"/>
<polygon fill="none" stroke="#63b8ff" points="477.65,-258.78 471.31,-262.22 465.7,-257.7 472.03,-254.26 477.65,-258.78"/>
</a>
</g>
<text text-anchor="middle" x="680" y="-308" font-family="Helvetica,sans-Serif" font-size="10.00" fill="grey"> +TagTypeID</text>
</g>
</g>
</svg>
