<?xml version="1.0" encoding="UTF-8" standalone="no"?>
<!DOCTYPE svg PUBLIC "-//W3C//DTD SVG 1.1//EN"
 "http://www.w3.org/Graphics/SVG/1.1/DTD/svg11.dtd">
<!-- Generated by graphviz version 2.43.0 (0)
 -->
<!-- Title: rm::OptimalOptions Pages: 1 -->
<svg width="365pt" height="175pt"
 viewBox="0.00 0.00 365.00 175.00" xmlns="http://www.w3.org/2000/svg" xmlns:xlink="http://www.w3.org/1999/xlink">
<g id="graph0" class="graph" transform="scale(1 1) rotate(0) translate(4 171)">
<title>rm::OptimalOptions</title>
<!-- Node1 -->
<g id="Node000001" class="node">
<title>Node1</title>
<g id="a_Node000001"><a xlink:title="无约束多维函数优化选项">
<polygon fill="#999999" stroke="transparent" points="228.5,-49 133.5,-49 133.5,0 228.5,0 228.5,-49"/>
<text text-anchor="start" x="139" y="-36.5" font-family="Helvetica,sans-Serif" font-size="10.00">rm::OptimalOptions</text>
<text text-anchor="start" x="179.5" y="-21.5" font-family="Helvetica,sans-Serif" font-size="10.00"> </text>
<text text-anchor="start" x="179.5" y="-6.5" font-family="Helvetica,sans-Serif" font-size="10.00"> </text>
<polygon fill="#666666" stroke="#666666" points="134,-31.5 134,-31.5 229,-31.5 229,-31.5 134,-31.5"/>
<polygon fill="#666666" stroke="#666666" points="134,-16.5 134,-16.5 229,-16.5 229,-16.5 134,-16.5"/>
<polygon fill="none" stroke="#666666" points="133.5,0 133.5,-49 228.5,-49 228.5,0 133.5,0"/>
</a>
</g>
</g>
<!-- Node2 -->
<g id="Node000002" class="node">
<title>Node2</title>
<g id="a_Node000002"><a xlink:title=" ">
<polygon fill="white" stroke="transparent" points="50,-167 0,-167 0,-118 50,-118 50,-167"/>
<text text-anchor="start" x="5" y="-154.5" font-family="Helvetica,sans-Serif" font-size="10.00">DiffMode</text>
<text text-anchor="start" x="23" y="-139.5" font-family="Helvetica,sans-Serif" font-size="10.00"> </text>
<text text-anchor="start" x="23" y="-124.5" font-family="Helvetica,sans-Serif" font-size="10.00"> </text>
<polygon fill="#666666" stroke="#666666" points="0,-149.5 0,-149.5 50,-149.5 50,-149.5 0,-149.5"/>
<polygon fill="#666666" stroke="#666666" points="0,-134.5 0,-134.5 50,-134.5 50,-134.5 0,-134.5"/>
<polygon fill="none" stroke="#666666" points="0,-118 0,-167 50,-167 50,-118 0,-118"/>
</a>
</g>
</g>
<!-- Node2&#45;&gt;Node1 -->
<g id="edge1_Node000001_Node000002" class="edge">
<title>Node2&#45;&gt;Node1</title>
<g id="a_edge1_Node000001_Node000002"><a xlink:title=" ">
<path fill="none" stroke="#63b8ff" d="M27,-117.73C29.59,-101.43 35.5,-80.4 49,-67 68.19,-47.94 96.03,-37.62 121.2,-32.04"/>
<polygon fill="none" stroke="#63b8ff" points="121.52,-31.98 126.63,-26.89 133.29,-29.66 128.18,-34.74 121.52,-31.98"/>
</a>
</g>
<text text-anchor="middle" x="75" y="-81" font-family="Helvetica,sans-Serif" font-size="10.00" fill="grey"> +diff_mode</text>
</g>
<!-- Node3 -->
<g id="Node000003" class="node">
<title>Node3</title>
<g id="a_Node000003"><a xlink:title=" ">
<polygon fill="white" stroke="transparent" points="128,-167 72,-167 72,-118 128,-118 128,-167"/>
<text text-anchor="start" x="77" y="-154.5" font-family="Helvetica,sans-Serif" font-size="10.00">FminMode</text>
<text text-anchor="start" x="98" y="-139.5" font-family="Helvetica,sans-Serif" font-size="10.00"> </text>
<text text-anchor="start" x="98" y="-124.5" font-family="Helvetica,sans-Serif" font-size="10.00"> </text>
<polygon fill="#666666" stroke="#666666" points="72,-149.5 72,-149.5 128,-149.5 128,-149.5 72,-149.5"/>
<polygon fill="#666666" stroke="#666666" points="72,-134.5 72,-134.5 128,-134.5 128,-134.5 72,-134.5"/>
<polygon fill="none" stroke="#666666" points="72,-118 72,-167 128,-167 128,-118 72,-118"/>
</a>
</g>
</g>
<!-- Node3&#45;&gt;Node1 -->
<g id="edge2_Node000001_Node000003" class="edge">
<title>Node3&#45;&gt;Node1</title>
<g id="a_edge2_Node000001_Node000003"><a xlink:title=" ">
<path fill="none" stroke="#63b8ff" d="M101.66,-117.85C103.75,-102.22 108.44,-81.93 119,-67 121.47,-63.51 124.33,-60.23 127.44,-57.16"/>
<polygon fill="none" stroke="#63b8ff" points="127.69,-56.95 129.61,-50 136.76,-49.09 134.84,-56.04 127.69,-56.95"/>
</a>
</g>
<text text-anchor="middle" x="148" y="-81" font-family="Helvetica,sans-Serif" font-size="10.00" fill="grey"> +fmin_mode</text>
</g>
<!-- Node4 -->
<g id="Node000004" class="node">
<title>Node4</title>
<g id="a_Node000004"><a xlink:title=" ">
<polygon fill="white" stroke="transparent" points="206,-167 156,-167 156,-118 206,-118 206,-167"/>
<text text-anchor="start" x="161" y="-154.5" font-family="Helvetica,sans-Serif" font-size="10.00">LsqMode</text>
<text text-anchor="start" x="179" y="-139.5" font-family="Helvetica,sans-Serif" font-size="10.00"> </text>
<text text-anchor="start" x="179" y="-124.5" font-family="Helvetica,sans-Serif" font-size="10.00"> </text>
<polygon fill="#666666" stroke="#666666" points="156,-149.5 156,-149.5 206,-149.5 206,-149.5 156,-149.5"/>
<polygon fill="#666666" stroke="#666666" points="156,-134.5 156,-134.5 206,-134.5 206,-134.5 156,-134.5"/>
<polygon fill="none" stroke="#666666" points="156,-118 156,-167 206,-167 206,-118 156,-118"/>
</a>
</g>
</g>
<!-- Node4&#45;&gt;Node1 -->
<g id="edge3_Node000001_Node000004" class="edge">
<title>Node4&#45;&gt;Node1</title>
<g id="a_edge3_Node000001_Node000004"><a xlink:title=" ">
<path fill="none" stroke="#63b8ff" d="M181,-117.75C181,-101.48 181,-79.62 181,-61.26"/>
<polygon fill="none" stroke="#63b8ff" points="181,-61.22 177,-55.22 181,-49.22 185,-55.22 181,-61.22"/>
</a>
</g>
<text text-anchor="middle" x="207" y="-81" font-family="Helvetica,sans-Serif" font-size="10.00" fill="grey"> +lsq_mode</text>
</g>
<!-- Node5 -->
<g id="Node000005" class="node">
<title>Node5</title>
<g id="a_Node000005"><a xlink:title=" ">
<polygon fill="white" stroke="transparent" points="266.5,-167 245.5,-167 245.5,-118 266.5,-118 266.5,-167"/>
<text text-anchor="start" x="251" y="-154.5" font-family="Helvetica,sans-Serif" font-size="10.00">int</text>
<text text-anchor="start" x="254.5" y="-139.5" font-family="Helvetica,sans-Serif" font-size="10.00"> </text>
<text text-anchor="start" x="254.5" y="-124.5" font-family="Helvetica,sans-Serif" font-size="10.00"> </text>
<polygon fill="#666666" stroke="#666666" points="246,-149.5 246,-149.5 267,-149.5 267,-149.5 246,-149.5"/>
<polygon fill="#666666" stroke="#666666" points="246,-134.5 246,-134.5 267,-134.5 267,-134.5 246,-134.5"/>
<polygon fill="none" stroke="#666666" points="245.5,-118 245.5,-167 266.5,-167 266.5,-118 245.5,-118"/>
</a>
</g>
</g>
<!-- Node5&#45;&gt;Node1 -->
<g id="edge4_Node000001_Node000005" class="edge">
<title>Node5&#45;&gt;Node1</title>
<g id="a_edge4_Node000001_Node000005"><a xlink:title=" ">
<path fill="none" stroke="#63b8ff" d="M252.82,-117.74C249.87,-102.25 244.31,-82.17 234,-67 231.77,-63.71 229.19,-60.57 226.41,-57.58"/>
<polygon fill="none" stroke="#63b8ff" points="226.23,-57.42 219.13,-56.17 217.54,-49.14 224.65,-50.38 226.23,-57.42"/>
</a>
</g>
<text text-anchor="middle" x="271.5" y="-81" font-family="Helvetica,sans-Serif" font-size="10.00" fill="grey"> +max_iter</text>
</g>
<!-- Node6 -->
<g id="Node000006" class="node">
<title>Node6</title>
<g id="a_Node000006"><a xlink:title=" ">
<polygon fill="white" stroke="transparent" points="345.5,-167 306.5,-167 306.5,-118 345.5,-118 345.5,-167"/>
<text text-anchor="start" x="312" y="-154.5" font-family="Helvetica,sans-Serif" font-size="10.00">double</text>
<text text-anchor="start" x="324.5" y="-139.5" font-family="Helvetica,sans-Serif" font-size="10.00"> </text>
<text text-anchor="start" x="324.5" y="-124.5" font-family="Helvetica,sans-Serif" font-size="10.00"> </text>
<polygon fill="#666666" stroke="#666666" points="307,-149.5 307,-149.5 346,-149.5 346,-149.5 307,-149.5"/>
<polygon fill="#666666" stroke="#666666" points="307,-134.5 307,-134.5 346,-134.5 346,-134.5 307,-134.5"/>
<polygon fill="none" stroke="#666666" points="306.5,-118 306.5,-167 345.5,-167 345.5,-118 306.5,-118"/>
</a>
</g>
</g>
<!-- Node6&#45;&gt;Node1 -->
<g id="edge5_Node000001_Node000006" class="edge">
<title>Node6&#45;&gt;Node1</title>
<g id="a_edge5_Node000001_Node000006"><a xlink:title=" ">
<path fill="none" stroke="#63b8ff" d="M322.82,-117.82C319.48,-101.56 312.68,-80.55 299,-67 283.19,-51.34 261.14,-41.57 240.36,-35.48"/>
<polygon fill="none" stroke="#63b8ff" points="240.27,-35.46 233.45,-37.79 228.67,-32.38 235.5,-30.05 240.27,-35.46"/>
</a>
</g>
<text text-anchor="middle" x="337.5" y="-92" font-family="Helvetica,sans-Serif" font-size="10.00" fill="grey"> +dx</text>
<text text-anchor="middle" x="337.5" y="-81" font-family="Helvetica,sans-Serif" font-size="10.00" fill="grey">+exterior</text>
<text text-anchor="middle" x="337.5" y="-70" font-family="Helvetica,sans-Serif" font-size="10.00" fill="grey">+tol</text>
</g>
</g>
</svg>
