<?xml version="1.0" encoding="UTF-8" standalone="no"?>
<!DOCTYPE svg PUBLIC "-//W3C//DTD SVG 1.1//EN"
 "http://www.w3.org/Graphics/SVG/1.1/DTD/svg11.dtd">
<!-- Generated by graphviz version 2.43.0 (0)
 -->
<!-- Title: rm::Exception Pages: 1 -->
<svg width="208pt" height="346pt"
 viewBox="0.00 0.00 208.00 346.00" xmlns="http://www.w3.org/2000/svg" xmlns:xlink="http://www.w3.org/1999/xlink">
<g id="graph0" class="graph" transform="scale(1 1) rotate(0) translate(4 342)">
<title>rm::Exception</title>
<!-- Node1 -->
<g id="Node000001" class="node">
<title>Node1</title>
<g id="a_Node000001"><a xlink:title="该类封装了有关程序中发生的错误的所有或几乎所有必要信息。异常通常是通过 RMVL_Error 和 RMVL_Error_ 宏隐式构造和抛出的">
<polygon fill="#999999" stroke="transparent" points="154.5,-94 79.5,-94 79.5,0 154.5,0 154.5,-94"/>
<text text-anchor="start" x="87" y="-82" font-family="Helvetica,sans-Serif" font-size="10.00">rm::Exception</text>
<text text-anchor="start" x="115.5" y="-67" font-family="Helvetica,sans-Serif" font-size="10.00"> </text>
<text text-anchor="start" x="84" y="-52" font-family="Helvetica,sans-Serif" font-size="10.00">+</text>
<text text-anchor="start" x="95" y="-52" font-family="Helvetica,sans-Serif" font-size="10.00">Exception()</text>
<text text-anchor="start" x="84" y="-37" font-family="Helvetica,sans-Serif" font-size="10.00">+</text>
<text text-anchor="start" x="95" y="-37" font-family="Helvetica,sans-Serif" font-size="10.00">Exception()</text>
<text text-anchor="start" x="84" y="-22" font-family="Helvetica,sans-Serif" font-size="10.00">+</text>
<text text-anchor="start" x="95" y="-22" font-family="Helvetica,sans-Serif" font-size="10.00">~Exception()</text>
<text text-anchor="start" x="84" y="-7" font-family="Helvetica,sans-Serif" font-size="10.00">+</text>
<text text-anchor="start" x="95" y="-7" font-family="Helvetica,sans-Serif" font-size="10.00">what()</text>
<polygon fill="#666666" stroke="#666666" points="80,-77 80,-77 155,-77 155,-77 80,-77"/>
<polygon fill="#666666" stroke="#666666" points="80,-62 80,-62 155,-62 155,-62 80,-62"/>
<polygon fill="none" stroke="#666666" points="79.5,0 79.5,-94 154.5,-94 154.5,0 79.5,0"/>
</a>
</g>
</g>
<!-- Node2 -->
<g id="Node000002" class="node">
<title>Node2</title>
<g id="a_Node000002"><a xlink:title=" ">
<polygon fill="white" stroke="transparent" points="72,-241 0,-241 0,-192 72,-192 72,-241"/>
<text text-anchor="start" x="5" y="-228.5" font-family="Helvetica,sans-Serif" font-size="10.00">std::exception</text>
<text text-anchor="start" x="34" y="-213.5" font-family="Helvetica,sans-Serif" font-size="10.00"> </text>
<text text-anchor="start" x="34" y="-198.5" font-family="Helvetica,sans-Serif" font-size="10.00"> </text>
<polygon fill="#666666" stroke="#666666" points="0,-223.5 0,-223.5 72,-223.5 72,-223.5 0,-223.5"/>
<polygon fill="#666666" stroke="#666666" points="0,-208.5 0,-208.5 72,-208.5 72,-208.5 0,-208.5"/>
<polygon fill="none" stroke="#666666" points="0,-192 0,-241 72,-241 72,-192 0,-192"/>
</a>
</g>
</g>
<!-- Node2&#45;&gt;Node1 -->
<g id="edge1_Node000001_Node000002" class="edge">
<title>Node2&#45;&gt;Node1</title>
<g id="a_edge1_Node000001_Node000002"><a xlink:title=" ">
<path fill="none" stroke="#63b8ff" d="M51.85,-182.72C64.04,-157.51 81.04,-122.36 94.62,-94.29"/>
<polygon fill="none" stroke="#63b8ff" points="48.64,-181.33 47.43,-191.86 54.94,-184.38 48.64,-181.33"/>
</a>
</g>
</g>
<!-- Node3 -->
<g id="Node000003" class="node">
<title>Node3</title>
<g id="a_Node000003"><a xlink:title=" ">
<polygon fill="white" stroke="transparent" points="144,-241 90,-241 90,-192 144,-192 144,-241"/>
<text text-anchor="start" x="95" y="-228.5" font-family="Helvetica,sans-Serif" font-size="10.00">std::string</text>
<text text-anchor="start" x="115" y="-213.5" font-family="Helvetica,sans-Serif" font-size="10.00"> </text>
<text text-anchor="start" x="115" y="-198.5" font-family="Helvetica,sans-Serif" font-size="10.00"> </text>
<polygon fill="#666666" stroke="#666666" points="90,-223.5 90,-223.5 144,-223.5 144,-223.5 90,-223.5"/>
<polygon fill="#666666" stroke="#666666" points="90,-208.5 90,-208.5 144,-208.5 144,-208.5 90,-208.5"/>
<polygon fill="none" stroke="#666666" points="90,-192 90,-241 144,-241 144,-192 90,-192"/>
</a>
</g>
</g>
<!-- Node3&#45;&gt;Node1 -->
<g id="edge2_Node000001_Node000003" class="edge">
<title>Node3&#45;&gt;Node1</title>
<g id="a_edge2_Node000001_Node000003"><a xlink:title=" ">
<path fill="none" stroke="#63b8ff" d="M117,-191.86C117,-169.76 117,-135.87 117,-106.54"/>
<polygon fill="none" stroke="#63b8ff" points="117,-106.29 113,-100.29 117,-94.29 121,-100.29 117,-106.29"/>
</a>
</g>
<text text-anchor="start" x="120.5" y="-163" font-family="Helvetica,sans-Serif" font-size="10.00" fill="grey">+err</text>
<text text-anchor="start" x="120.5" y="-148" font-family="Helvetica,sans-Serif" font-size="10.00" fill="grey">+file</text>
<text text-anchor="start" x="120.5" y="-133" font-family="Helvetica,sans-Serif" font-size="10.00" fill="grey">+func</text>
<text text-anchor="start" x="120.5" y="-118" font-family="Helvetica,sans-Serif" font-size="10.00" fill="grey">+msg</text>
</g>
<!-- Node4 -->
<g id="Node000004" class="node">
<title>Node4</title>
<g id="a_Node000004"><a xlink:title=" ">
<polygon fill="white" stroke="transparent" points="161.5,-338 72.5,-338 72.5,-278 161.5,-278 161.5,-338"/>
<text text-anchor="start" x="78" y="-326" font-family="Helvetica,sans-Serif" font-size="10.00">std::basic_string&lt;</text>
<text text-anchor="start" x="100.5" y="-315" font-family="Helvetica,sans-Serif" font-size="10.00"> Char &gt;</text>
<text text-anchor="start" x="115.5" y="-300" font-family="Helvetica,sans-Serif" font-size="10.00"> </text>
<text text-anchor="start" x="115.5" y="-285" font-family="Helvetica,sans-Serif" font-size="10.00"> </text>
<polygon fill="#666666" stroke="#666666" points="73,-310 73,-310 162,-310 162,-310 73,-310"/>
<polygon fill="#666666" stroke="#666666" points="73,-295 73,-295 162,-295 162,-295 73,-295"/>
<polygon fill="none" stroke="#666666" points="72.5,-278 72.5,-338 161.5,-338 161.5,-278 72.5,-278"/>
</a>
</g>
</g>
<!-- Node4&#45;&gt;Node3 -->
<g id="edge3_Node000003_Node000004" class="edge">
<title>Node4&#45;&gt;Node3</title>
<g id="a_edge3_Node000003_Node000004"><a xlink:title=" ">
<path fill="none" stroke="#63b8ff" d="M117,-267.41C117,-258.47 117,-249.25 117,-241.21"/>
<polygon fill="none" stroke="#63b8ff" points="113.5,-267.69 117,-277.69 120.5,-267.69 113.5,-267.69"/>
</a>
</g>
</g>
<!-- Node5 -->
<g id="Node000005" class="node">
<title>Node5</title>
<g id="a_Node000005"><a xlink:title=" ">
<polygon fill="white" stroke="transparent" points="183.5,-241 162.5,-241 162.5,-192 183.5,-192 183.5,-241"/>
<text text-anchor="start" x="168" y="-228.5" font-family="Helvetica,sans-Serif" font-size="10.00">int</text>
<text text-anchor="start" x="171.5" y="-213.5" font-family="Helvetica,sans-Serif" font-size="10.00"> </text>
<text text-anchor="start" x="171.5" y="-198.5" font-family="Helvetica,sans-Serif" font-size="10.00"> </text>
<polygon fill="#666666" stroke="#666666" points="163,-223.5 163,-223.5 184,-223.5 184,-223.5 163,-223.5"/>
<polygon fill="#666666" stroke="#666666" points="163,-208.5 163,-208.5 184,-208.5 184,-208.5 163,-208.5"/>
<polygon fill="none" stroke="#666666" points="162.5,-192 162.5,-241 183.5,-241 183.5,-192 162.5,-192"/>
</a>
</g>
</g>
<!-- Node5&#45;&gt;Node1 -->
<g id="edge4_Node000001_Node000005" class="edge">
<title>Node5&#45;&gt;Node1</title>
<g id="a_edge4_Node000001_Node000005"><a xlink:title=" ">
<path fill="none" stroke="#63b8ff" d="M169.91,-191.96C166.67,-170.64 160.67,-138.59 151,-112 150.19,-109.78 149.32,-107.55 148.4,-105.31"/>
<polygon fill="none" stroke="#63b8ff" points="148.31,-105.11 142.22,-101.25 143.44,-94.15 149.53,-98 148.31,-105.11"/>
</a>
</g>
<text text-anchor="start" x="169" y="-148" font-family="Helvetica,sans-Serif" font-size="10.00" fill="grey">+code</text>
<text text-anchor="start" x="169" y="-133" font-family="Helvetica,sans-Serif" font-size="10.00" fill="grey">+line</text>
</g>
</g>
</svg>
