<?xml version="1.0" encoding="UTF-8" standalone="no"?>
<!DOCTYPE svg PUBLIC "-//W3C//DTD SVG 1.1//EN"
 "http://www.w3.org/Graphics/SVG/1.1/DTD/svg11.dtd">
<!-- Generated by graphviz version 2.43.0 (0)
 -->
<!-- Title: rm::ArmorDetector Pages: 1 -->
<svg width="186pt" height="591pt"
 viewBox="0.00 0.00 186.00 591.00" xmlns="http://www.w3.org/2000/svg" xmlns:xlink="http://www.w3.org/1999/xlink">
<g id="graph0" class="graph" transform="scale(1 1) rotate(0) translate(4 587)">
<title>rm::ArmorDetector</title>
<!-- Node1 -->
<g id="Node000001" class="node">
<title>Node1</title>
<g id="a_Node000001"><a xlink:title="装甲板识别模块">
<polygon fill="#999999" stroke="transparent" points="92,-79 0,-79 0,0 92,0 92,-79"/>
<text text-anchor="start" x="5" y="-66.5" font-family="Helvetica,sans-Serif" font-size="10.00">rm::ArmorDetector</text>
<text text-anchor="start" x="44" y="-51.5" font-family="Helvetica,sans-Serif" font-size="10.00"> </text>
<text text-anchor="start" x="4.5" y="-36.5" font-family="Helvetica,sans-Serif" font-size="10.00">+</text>
<text text-anchor="start" x="16" y="-36.5" font-family="Helvetica,sans-Serif" font-size="10.00">detect()</text>
<text text-anchor="start" x="4.5" y="-21.5" font-family="Helvetica,sans-Serif" font-size="10.00">+</text>
<text text-anchor="start" x="16" y="-21.5" font-family="Helvetica,sans-Serif" font-size="10.00">make_detector()</text>
<text text-anchor="start" x="4.5" y="-6.5" font-family="Helvetica,sans-Serif" font-size="10.00">+</text>
<text text-anchor="start" x="16" y="-6.5" font-family="Helvetica,sans-Serif" font-size="10.00">make_detector()</text>
<polygon fill="#666666" stroke="#666666" points="0,-61.5 0,-61.5 92,-61.5 92,-61.5 0,-61.5"/>
<polygon fill="#666666" stroke="#666666" points="0,-46.5 0,-46.5 92,-46.5 92,-46.5 0,-46.5"/>
<polygon fill="none" stroke="#666666" points="0,0 0,-79 92,-79 92,0 0,0"/>
</a>
</g>
</g>
<!-- Node2 -->
<g id="Node000002" class="node">
<title>Node2</title>
<g id="a_Node000002"><a xlink:href="../../d3/d77/classrm_1_1detector.html" target="_top" xlink:title="识别检测模块">
<polygon fill="white" stroke="transparent" points="79.5,-195 12.5,-195 12.5,-116 79.5,-116 79.5,-195"/>
<text text-anchor="start" x="20" y="-182.5" font-family="Helvetica,sans-Serif" font-size="10.00">rm::detector</text>
<text text-anchor="start" x="44.5" y="-167.5" font-family="Helvetica,sans-Serif" font-size="10.00"> </text>
<text text-anchor="start" x="17" y="-152.5" font-family="Helvetica,sans-Serif" font-size="10.00">+</text>
<text text-anchor="start" x="28" y="-152.5" font-family="Helvetica,sans-Serif" font-size="10.00">detector()</text>
<text text-anchor="start" x="17" y="-137.5" font-family="Helvetica,sans-Serif" font-size="10.00">+</text>
<text text-anchor="start" x="28" y="-137.5" font-family="Helvetica,sans-Serif" font-size="10.00">~detector()</text>
<text text-anchor="start" x="17" y="-122.5" font-family="Helvetica,sans-Serif" font-size="10.00">+</text>
<text text-anchor="start" x="28" y="-122.5" font-family="Helvetica,sans-Serif" font-size="10.00">detect()</text>
<polygon fill="#666666" stroke="#666666" points="13,-177.5 13,-177.5 80,-177.5 80,-177.5 13,-177.5"/>
<polygon fill="#666666" stroke="#666666" points="13,-162.5 13,-162.5 80,-162.5 80,-162.5 13,-162.5"/>
<polygon fill="none" stroke="#666666" points="12.5,-116 12.5,-195 79.5,-195 79.5,-116 12.5,-116"/>
</a>
</g>
</g>
<!-- Node2&#45;&gt;Node1 -->
<g id="edge1_Node000001_Node000002" class="edge">
<title>Node2&#45;&gt;Node1</title>
<g id="a_edge1_Node000001_Node000002"><a xlink:title=" ">
<path fill="none" stroke="#63b8ff" d="M46,-105.65C46,-96.76 46,-87.6 46,-79.06"/>
<polygon fill="none" stroke="#63b8ff" points="42.5,-105.9 46,-115.9 49.5,-105.9 42.5,-105.9"/>
</a>
</g>
</g>
<!-- Node3 -->
<g id="Node000003" class="node">
<title>Node3</title>
<g id="a_Node000003"><a xlink:title=" ">
<polygon fill="white" stroke="transparent" points="39.5,-313.5 0.5,-313.5 0.5,-264.5 39.5,-264.5 39.5,-313.5"/>
<text text-anchor="start" x="6" y="-301" font-family="Helvetica,sans-Serif" font-size="10.00">double</text>
<text text-anchor="start" x="18.5" y="-286" font-family="Helvetica,sans-Serif" font-size="10.00"> </text>
<text text-anchor="start" x="18.5" y="-271" font-family="Helvetica,sans-Serif" font-size="10.00"> </text>
<polygon fill="#666666" stroke="#666666" points="1,-296 1,-296 40,-296 40,-296 1,-296"/>
<polygon fill="#666666" stroke="#666666" points="1,-281 1,-281 40,-281 40,-281 1,-281"/>
<polygon fill="none" stroke="#666666" points="0.5,-264.5 0.5,-313.5 39.5,-313.5 39.5,-264.5 0.5,-264.5"/>
</a>
</g>
</g>
<!-- Node3&#45;&gt;Node2 -->
<g id="edge2_Node000002_Node000003" class="edge">
<title>Node3&#45;&gt;Node2</title>
<g id="a_edge2_Node000002_Node000003"><a xlink:title=" ">
<path fill="none" stroke="#63b8ff" d="M21.8,-264.18C23.18,-249.36 25.46,-229.95 29,-213 29.42,-211 29.87,-208.97 30.36,-206.93"/>
<polygon fill="none" stroke="#63b8ff" points="30.39,-206.79 28.02,-199.98 33.4,-195.18 35.77,-201.99 30.39,-206.79"/>
</a>
</g>
<text text-anchor="middle" x="44" y="-216" font-family="Helvetica,sans-Serif" font-size="10.00" fill="grey"> #_tick</text>
</g>
<!-- Node4 -->
<g id="Node000004" class="node">
<title>Node4</title>
<g id="a_Node000004"><a xlink:href="../../db/def/structrm_1_1ImuData.html" target="_top" xlink:title="IMU 数据">
<polygon fill="white" stroke="transparent" points="122.5,-336 57.5,-336 57.5,-242 122.5,-242 122.5,-336"/>
<text text-anchor="start" x="63" y="-324" font-family="Helvetica,sans-Serif" font-size="10.00">rm::ImuData</text>
<text text-anchor="start" x="88.5" y="-309" font-family="Helvetica,sans-Serif" font-size="10.00"> </text>
<text text-anchor="start" x="66.5" y="-294" font-family="Helvetica,sans-Serif" font-size="10.00">+</text>
<text text-anchor="start" x="82" y="-294" font-family="Helvetica,sans-Serif" font-size="10.00">write()</text>
<text text-anchor="start" x="66.5" y="-279" font-family="Helvetica,sans-Serif" font-size="10.00">+</text>
<text text-anchor="start" x="82" y="-279" font-family="Helvetica,sans-Serif" font-size="10.00">read()</text>
<text text-anchor="start" x="66.5" y="-264" font-family="Helvetica,sans-Serif" font-size="10.00">+</text>
<text text-anchor="start" x="82" y="-264" font-family="Helvetica,sans-Serif" font-size="10.00">write()</text>
<text text-anchor="start" x="66.5" y="-249" font-family="Helvetica,sans-Serif" font-size="10.00">+</text>
<text text-anchor="start" x="82" y="-249" font-family="Helvetica,sans-Serif" font-size="10.00">read()</text>
<polygon fill="#666666" stroke="#666666" points="58,-319 58,-319 123,-319 123,-319 58,-319"/>
<polygon fill="#666666" stroke="#666666" points="58,-304 58,-304 123,-304 123,-304 58,-304"/>
<polygon fill="none" stroke="#666666" points="57.5,-242 57.5,-336 122.5,-336 122.5,-242 57.5,-242"/>
</a>
</g>
</g>
<!-- Node4&#45;&gt;Node2 -->
<g id="edge3_Node000002_Node000004" class="edge">
<title>Node4&#45;&gt;Node2</title>
<g id="a_edge3_Node000002_Node000004"><a xlink:title=" ">
<path fill="none" stroke="#63b8ff" d="M74.49,-241.64C70.7,-230.33 66.64,-218.19 62.8,-206.71"/>
<polygon fill="none" stroke="#63b8ff" points="62.71,-206.44 57.01,-202.02 58.9,-195.06 64.6,-199.48 62.71,-206.44"/>
</a>
</g>
<text text-anchor="middle" x="95" y="-216" font-family="Helvetica,sans-Serif" font-size="10.00" fill="grey"> #_imu_data</text>
</g>
<!-- Node5 -->
<g id="Node000005" class="node">
<title>Node5</title>
<g id="a_Node000005"><a xlink:href="../../d4/def/structrm_1_1Translation.html" target="_top" xlink:title="移动位置信息">
<polygon fill="white" stroke="transparent" points="82,-432 6,-432 6,-383 82,-383 82,-432"/>
<text text-anchor="start" x="11" y="-419.5" font-family="Helvetica,sans-Serif" font-size="10.00">rm::Translation</text>
<text text-anchor="start" x="42" y="-404.5" font-family="Helvetica,sans-Serif" font-size="10.00"> </text>
<text text-anchor="start" x="42" y="-389.5" font-family="Helvetica,sans-Serif" font-size="10.00"> </text>
<polygon fill="#666666" stroke="#666666" points="6,-414.5 6,-414.5 82,-414.5 82,-414.5 6,-414.5"/>
<polygon fill="#666666" stroke="#666666" points="6,-399.5 6,-399.5 82,-399.5 82,-399.5 6,-399.5"/>
<polygon fill="none" stroke="#666666" points="6,-383 6,-432 82,-432 82,-383 6,-383"/>
</a>
</g>
</g>
<!-- Node5&#45;&gt;Node4 -->
<g id="edge4_Node000004_Node000005" class="edge">
<title>Node5&#45;&gt;Node4</title>
<g id="a_edge4_Node000004_Node000005"><a xlink:title=" ">
<path fill="none" stroke="#63b8ff" d="M47.43,-382.83C49.16,-373.65 51.62,-363.17 55,-354 55.82,-351.77 56.71,-349.53 57.65,-347.28"/>
<polygon fill="none" stroke="#63b8ff" points="57.78,-347.01 56.62,-339.9 62.74,-336.09 63.9,-343.21 57.78,-347.01"/>
</a>
</g>
<text text-anchor="middle" x="82.5" y="-357" font-family="Helvetica,sans-Serif" font-size="10.00" fill="grey"> +translation</text>
</g>
<!-- Node6 -->
<g id="Node000006" class="node">
<title>Node6</title>
<g id="a_Node000006"><a xlink:title=" ">
<polygon fill="white" stroke="transparent" points="102.5,-583 73.5,-583 73.5,-534 102.5,-534 102.5,-583"/>
<text text-anchor="start" x="79" y="-570.5" font-family="Helvetica,sans-Serif" font-size="10.00">float</text>
<text text-anchor="start" x="86.5" y="-555.5" font-family="Helvetica,sans-Serif" font-size="10.00"> </text>
<text text-anchor="start" x="86.5" y="-540.5" font-family="Helvetica,sans-Serif" font-size="10.00"> </text>
<polygon fill="#666666" stroke="#666666" points="74,-565.5 74,-565.5 103,-565.5 103,-565.5 74,-565.5"/>
<polygon fill="#666666" stroke="#666666" points="74,-550.5 74,-550.5 103,-550.5 103,-550.5 74,-550.5"/>
<polygon fill="none" stroke="#666666" points="73.5,-534 73.5,-583 102.5,-583 102.5,-534 73.5,-534"/>
</a>
</g>
</g>
<!-- Node6&#45;&gt;Node5 -->
<g id="edge5_Node000005_Node000006" class="edge">
<title>Node6&#45;&gt;Node5</title>
<g id="a_edge5_Node000005_Node000006"><a xlink:title=" ">
<path fill="none" stroke="#63b8ff" d="M81.03,-533.89C73.89,-509.73 62.72,-471.89 54.51,-444.1"/>
<polygon fill="none" stroke="#63b8ff" points="54.48,-444 48.95,-439.38 51.09,-432.49 56.62,-437.11 54.48,-444"/>
</a>
</g>
<text text-anchor="middle" x="85" y="-508" font-family="Helvetica,sans-Serif" font-size="10.00" fill="grey"> +vx</text>
<text text-anchor="middle" x="85" y="-497" font-family="Helvetica,sans-Serif" font-size="10.00" fill="grey">+vy</text>
<text text-anchor="middle" x="85" y="-486" font-family="Helvetica,sans-Serif" font-size="10.00" fill="grey">+vz</text>
<text text-anchor="middle" x="85" y="-475" font-family="Helvetica,sans-Serif" font-size="10.00" fill="grey">+x</text>
<text text-anchor="middle" x="85" y="-464" font-family="Helvetica,sans-Serif" font-size="10.00" fill="grey">+y</text>
<text text-anchor="middle" x="85" y="-453" font-family="Helvetica,sans-Serif" font-size="10.00" fill="grey">+z</text>
</g>
<!-- Node7 -->
<g id="Node000007" class="node">
<title>Node7</title>
<g id="a_Node000007"><a xlink:href="../../d1/d5f/structrm_1_1Rotation.html" target="_top" xlink:title="转动姿态信息">
<polygon fill="white" stroke="transparent" points="165.5,-432 100.5,-432 100.5,-383 165.5,-383 165.5,-432"/>
<text text-anchor="start" x="106" y="-419.5" font-family="Helvetica,sans-Serif" font-size="10.00">rm::Rotation</text>
<text text-anchor="start" x="131.5" y="-404.5" font-family="Helvetica,sans-Serif" font-size="10.00"> </text>
<text text-anchor="start" x="131.5" y="-389.5" font-family="Helvetica,sans-Serif" font-size="10.00"> </text>
<polygon fill="#666666" stroke="#666666" points="101,-414.5 101,-414.5 166,-414.5 166,-414.5 101,-414.5"/>
<polygon fill="#666666" stroke="#666666" points="101,-399.5 101,-399.5 166,-399.5 166,-399.5 101,-399.5"/>
<polygon fill="none" stroke="#666666" points="100.5,-383 100.5,-432 165.5,-432 165.5,-383 100.5,-383"/>
</a>
</g>
</g>
<!-- Node6&#45;&gt;Node7 -->
<g id="edge7_Node000007_Node000006" class="edge">
<title>Node6&#45;&gt;Node7</title>
<g id="a_edge7_Node000007_Node000006"><a xlink:title=" ">
<path fill="none" stroke="#63b8ff" d="M95.13,-533.89C102.43,-509.73 113.85,-471.89 122.25,-444.1"/>
<polygon fill="none" stroke="#63b8ff" points="122.28,-443.98 120.19,-437.08 125.75,-432.49 127.85,-439.39 122.28,-443.98"/>
</a>
</g>
<text text-anchor="middle" x="148.5" y="-508" font-family="Helvetica,sans-Serif" font-size="10.00" fill="grey"> +pitch</text>
<text text-anchor="middle" x="148.5" y="-497" font-family="Helvetica,sans-Serif" font-size="10.00" fill="grey">+pitch_speed</text>
<text text-anchor="middle" x="148.5" y="-486" font-family="Helvetica,sans-Serif" font-size="10.00" fill="grey">+roll</text>
<text text-anchor="middle" x="148.5" y="-475" font-family="Helvetica,sans-Serif" font-size="10.00" fill="grey">+roll_speed</text>
<text text-anchor="middle" x="148.5" y="-464" font-family="Helvetica,sans-Serif" font-size="10.00" fill="grey">+yaw</text>
<text text-anchor="middle" x="148.5" y="-453" font-family="Helvetica,sans-Serif" font-size="10.00" fill="grey">+yaw_speed</text>
</g>
<!-- Node7&#45;&gt;Node4 -->
<g id="edge6_Node000004_Node000007" class="edge">
<title>Node7&#45;&gt;Node4</title>
<g id="a_edge6_Node000004_Node000007"><a xlink:title=" ">
<path fill="none" stroke="#63b8ff" d="M124.3,-382.92C120.5,-372.64 115.87,-360.09 111.25,-347.58"/>
<polygon fill="none" stroke="#63b8ff" points="111.2,-347.43 105.37,-343.19 107.04,-336.17 112.87,-340.42 111.2,-347.43"/>
</a>
</g>
<text text-anchor="middle" x="137" y="-357" font-family="Helvetica,sans-Serif" font-size="10.00" fill="grey"> +rotation</text>
</g>
</g>
</svg>
