<?xml version="1.0" encoding="UTF-8" standalone="no"?>
<!DOCTYPE svg PUBLIC "-//W3C//DTD SVG 1.1//EN"
 "http://www.w3.org/Graphics/SVG/1.1/DTD/svg11.dtd">
<!-- Generated by graphviz version 2.43.0 (0)
 -->
<!-- Title: rm::ImuData Pages: 1 -->
<svg width="276pt" height="319pt"
 viewBox="0.00 0.00 276.00 319.00" xmlns="http://www.w3.org/2000/svg" xmlns:xlink="http://www.w3.org/1999/xlink">

<svg id="main" version="1.1" xmlns="http://www.w3.org/2000/svg" xmlns:xlink="http://www.w3.org/1999/xlink" xml:space="preserve">

<style type="text/css"><![CDATA[
.node, .edge {opacity: 0.7;}
.node.selected, .edge.selected {opacity: 1;}
.edge:hover path { stroke: red; }
.edge:hover polygon { stroke: red; fill: red; }
]]></style>
<script type="application/ecmascript" xlink:href="../../svg.min.js"/>
<svg id="graph" class="graph">
<g id="graph0" class="graph" transform="scale(1 1) rotate(0) translate(4 315)">
<title>rm::ImuData</title>
<!-- Node1 -->
<g id="Node000001" class="node">
<title>Node1</title>
<g id="a_Node000001"><a xlink:title="IMU 数据">
<polygon fill="#999999" stroke="transparent" points="172.5,-64 100.5,-64 100.5,0 172.5,0 172.5,-64"/>
<text text-anchor="start" x="105.5" y="-52" font-family="Helvetica,sans-Serif" font-size="10.00">rm::ImuData</text>
<text text-anchor="start" x="134.5" y="-37" font-family="Helvetica,sans-Serif" font-size="10.00"> </text>
<text text-anchor="start" x="109" y="-22" font-family="Helvetica,sans-Serif" font-size="10.00">+</text>
<text text-anchor="start" x="126.5" y="-22" font-family="Helvetica,sans-Serif" font-size="10.00">write()</text>
<text text-anchor="start" x="109" y="-7" font-family="Helvetica,sans-Serif" font-size="10.00">+</text>
<text text-anchor="start" x="126.5" y="-7" font-family="Helvetica,sans-Serif" font-size="10.00">read()</text>
<polygon fill="#666666" stroke="#666666" points="100.5,-47 100.5,-47 172.5,-47 172.5,-47 100.5,-47"/>
<polygon fill="#666666" stroke="#666666" points="100.5,-32 100.5,-32 172.5,-32 172.5,-32 100.5,-32"/>
<polygon fill="none" stroke="#666666" points="100.5,0 100.5,-64 172.5,-64 172.5,0 100.5,0"/>
</a>
</g>
</g>
<!-- Node2 -->
<g id="Node000002" class="node">
<title>Node2</title>
<g id="a_Node000002"><a xlink:href="../../d7/df5/structrm_1_1ImuData_1_1Translation.html" target="_top" xlink:title="移动姿态信息">
<polygon fill="white" stroke="transparent" points="131,-160 0,-160 0,-111 131,-111 131,-160"/>
<text text-anchor="start" x="5.5" y="-147.5" font-family="Helvetica,sans-Serif" font-size="10.00">rm::ImuData::Translation</text>
<text text-anchor="start" x="64" y="-132.5" font-family="Helvetica,sans-Serif" font-size="10.00"> </text>
<text text-anchor="start" x="64" y="-117.5" font-family="Helvetica,sans-Serif" font-size="10.00"> </text>
<polygon fill="#666666" stroke="#666666" points="0.5,-142.5 0.5,-142.5 131.5,-142.5 131.5,-142.5 0.5,-142.5"/>
<polygon fill="#666666" stroke="#666666" points="0.5,-127.5 0.5,-127.5 131.5,-127.5 131.5,-127.5 0.5,-127.5"/>
<polygon fill="none" stroke="#666666" points="0,-111 0,-160 131,-160 131,-111 0,-111"/>
</a>
</g>
</g>
<!-- Node2&#45;&gt;Node1 -->
<g id="edge1_Node000001_Node000002" class="edge">
<title>Node2&#45;&gt;Node1</title>
<g id="a_edge1_Node000001_Node000002"><a xlink:title=" ">
<path fill="none" stroke="#63b8ff" d="M81.97,-110.96C89.66,-99.96 99.05,-86.54 107.85,-73.96"/>
<polygon fill="none" stroke="#63b8ff" points="107.86,-73.94 108.02,-66.73 114.74,-64.11 114.58,-71.32 107.86,-73.94"/>
</a>
</g>
<text text-anchor="middle" x="133.5" y="-85" font-family="Helvetica,sans-Serif" font-size="10.00" fill="grey"> +translation</text>
</g>
<!-- Node3 -->
<g id="Node000003" class="node">
<title>Node3</title>
<g id="a_Node000003"><a xlink:title=" ">
<polygon fill="white" stroke="transparent" points="152.5,-311 120.5,-311 120.5,-262 152.5,-262 152.5,-311"/>
<text text-anchor="start" x="125.5" y="-298.5" font-family="Helvetica,sans-Serif" font-size="10.00">float</text>
<text text-anchor="start" x="134.5" y="-283.5" font-family="Helvetica,sans-Serif" font-size="10.00"> </text>
<text text-anchor="start" x="134.5" y="-268.5" font-family="Helvetica,sans-Serif" font-size="10.00"> </text>
<polygon fill="#666666" stroke="#666666" points="120.5,-293.5 120.5,-293.5 152.5,-293.5 152.5,-293.5 120.5,-293.5"/>
<polygon fill="#666666" stroke="#666666" points="120.5,-278.5 120.5,-278.5 152.5,-278.5 152.5,-278.5 120.5,-278.5"/>
<polygon fill="none" stroke="#666666" points="120.5,-262 120.5,-311 152.5,-311 152.5,-262 120.5,-262"/>
</a>
</g>
</g>
<!-- Node3&#45;&gt;Node2 -->
<g id="edge2_Node000002_Node000003" class="edge">
<title>Node3&#45;&gt;Node2</title>
<g id="a_edge2_Node000002_Node000003"><a xlink:title=" ">
<path fill="none" stroke="#63b8ff" d="M125.25,-261.89C113.63,-237.51 95.38,-199.21 82.11,-171.35"/>
<polygon fill="none" stroke="#63b8ff" points="82.09,-171.33 75.9,-167.63 76.93,-160.49 83.12,-164.19 82.09,-171.33"/>
</a>
</g>
<text text-anchor="middle" x="128.5" y="-236" font-family="Helvetica,sans-Serif" font-size="10.00" fill="grey"> +vx</text>
<text text-anchor="middle" x="128.5" y="-225" font-family="Helvetica,sans-Serif" font-size="10.00" fill="grey">+vy</text>
<text text-anchor="middle" x="128.5" y="-214" font-family="Helvetica,sans-Serif" font-size="10.00" fill="grey">+vz</text>
<text text-anchor="middle" x="128.5" y="-203" font-family="Helvetica,sans-Serif" font-size="10.00" fill="grey">+x</text>
<text text-anchor="middle" x="128.5" y="-192" font-family="Helvetica,sans-Serif" font-size="10.00" fill="grey">+y</text>
<text text-anchor="middle" x="128.5" y="-181" font-family="Helvetica,sans-Serif" font-size="10.00" fill="grey">+z</text>
</g>
<!-- Node4 -->
<g id="Node000004" class="node">
<title>Node4</title>
<g id="a_Node000004"><a xlink:href="../../d4/d78/structrm_1_1ImuData_1_1Rotation.html" target="_top" xlink:title="转动姿态信息">
<polygon fill="white" stroke="transparent" points="268,-160 149,-160 149,-111 268,-111 268,-160"/>
<text text-anchor="start" x="154.5" y="-147.5" font-family="Helvetica,sans-Serif" font-size="10.00">rm::ImuData::Rotation</text>
<text text-anchor="start" x="207" y="-132.5" font-family="Helvetica,sans-Serif" font-size="10.00"> </text>
<text text-anchor="start" x="207" y="-117.5" font-family="Helvetica,sans-Serif" font-size="10.00"> </text>
<polygon fill="#666666" stroke="#666666" points="149.5,-142.5 149.5,-142.5 268.5,-142.5 268.5,-142.5 149.5,-142.5"/>
<polygon fill="#666666" stroke="#666666" points="149.5,-127.5 149.5,-127.5 268.5,-127.5 268.5,-127.5 149.5,-127.5"/>
<polygon fill="none" stroke="#666666" points="149,-111 149,-160 268,-160 268,-111 149,-111"/>
</a>
</g>
</g>
<!-- Node3&#45;&gt;Node4 -->
<g id="edge4_Node000004_Node000003" class="edge">
<title>Node3&#45;&gt;Node4</title>
<g id="a_edge4_Node000004_Node000003"><a xlink:title=" ">
<path fill="none" stroke="#63b8ff" d="M147.91,-261.89C159.69,-237.51 178.2,-199.21 191.66,-171.35"/>
<polygon fill="none" stroke="#63b8ff" points="191.69,-171.3 190.69,-164.15 196.91,-160.49 197.9,-167.64 191.69,-171.3"/>
</a>
</g>
<text text-anchor="middle" x="220" y="-236" font-family="Helvetica,sans-Serif" font-size="10.00" fill="grey"> +pitch</text>
<text text-anchor="middle" x="220" y="-225" font-family="Helvetica,sans-Serif" font-size="10.00" fill="grey">+pitch_speed</text>
<text text-anchor="middle" x="220" y="-214" font-family="Helvetica,sans-Serif" font-size="10.00" fill="grey">+roll</text>
<text text-anchor="middle" x="220" y="-203" font-family="Helvetica,sans-Serif" font-size="10.00" fill="grey">+roll_speed</text>
<text text-anchor="middle" x="220" y="-192" font-family="Helvetica,sans-Serif" font-size="10.00" fill="grey">+yaw</text>
<text text-anchor="middle" x="220" y="-181" font-family="Helvetica,sans-Serif" font-size="10.00" fill="grey">+yaw_speed</text>
</g>
<!-- Node4&#45;&gt;Node1 -->
<g id="edge3_Node000001_Node000004" class="edge">
<title>Node4&#45;&gt;Node1</title>
<g id="a_edge3_Node000001_Node000004"><a xlink:title=" ">
<path fill="none" stroke="#63b8ff" d="M191.8,-110.96C184,-99.96 174.48,-86.54 165.55,-73.96"/>
<polygon fill="none" stroke="#63b8ff" points="165.51,-73.9 158.78,-71.32 158.57,-64.11 165.3,-66.69 165.51,-73.9"/>
</a>
</g>
<text text-anchor="middle" x="203.5" y="-85" font-family="Helvetica,sans-Serif" font-size="10.00" fill="grey"> +rotation</text>
</g>
</g>
</svg>
</svg>

<style type='text/css'>
<![CDATA[
[data-mouse-over-selected='false'] { opacity: 0.7; }
[data-mouse-over-selected='true']  { opacity: 1.0; }
]]>
</style>
<script type="application/ecmascript"><![CDATA[
document.addEventListener('DOMContentLoaded', (event) => {
  highlightEdges();
  highlightAdjacentNodes();
});
]]></script>
</svg>
