<?xml version="1.0" encoding="UTF-8" standalone="no"?>
<!DOCTYPE svg PUBLIC "-//W3C//DTD SVG 1.1//EN"
 "http://www.w3.org/Graphics/SVG/1.1/DTD/svg11.dtd">
<!-- Generated by graphviz version 2.43.0 (0)
 -->
<!-- Title: rm::Rune Pages: 1 -->
<svg width="1253pt" height="958pt"
 viewBox="0.00 0.00 1253.00 958.00" xmlns="http://www.w3.org/2000/svg" xmlns:xlink="http://www.w3.org/1999/xlink">
<g id="graph0" class="graph" transform="scale(1 1) rotate(0) translate(4 954)">
<title>rm::Rune</title>
<!-- Node1 -->
<g id="Node000001" class="node">
<title>Node1</title>
<g id="a_Node000001"><a xlink:title="神符（能量机关）">
<polygon fill="#999999" stroke="transparent" points="627.5,-184 474.5,-184 474.5,0 627.5,0 627.5,-184"/>
<text text-anchor="start" x="529" y="-172" font-family="Helvetica,sans-Serif" font-size="10.00">rm::Rune</text>
<text text-anchor="start" x="549.5" y="-157" font-family="Helvetica,sans-Serif" font-size="10.00"> </text>
<text text-anchor="start" x="479" y="-142" font-family="Helvetica,sans-Serif" font-size="10.00">+</text>
<text text-anchor="start" x="492" y="-142" font-family="Helvetica,sans-Serif" font-size="10.00">Rune()</text>
<text text-anchor="start" x="479" y="-127" font-family="Helvetica,sans-Serif" font-size="10.00">+</text>
<text text-anchor="start" x="492" y="-127" font-family="Helvetica,sans-Serif" font-size="10.00">Rune()</text>
<text text-anchor="start" x="479" y="-112" font-family="Helvetica,sans-Serif" font-size="10.00">+</text>
<text text-anchor="start" x="492" y="-112" font-family="Helvetica,sans-Serif" font-size="10.00">clone()</text>
<text text-anchor="start" x="479" y="-97" font-family="Helvetica,sans-Serif" font-size="10.00">+</text>
<text text-anchor="start" x="492" y="-97" font-family="Helvetica,sans-Serif" font-size="10.00">getFeatureDis()</text>
<text text-anchor="start" x="479" y="-82" font-family="Helvetica,sans-Serif" font-size="10.00">+</text>
<text text-anchor="start" x="492" y="-82" font-family="Helvetica,sans-Serif" font-size="10.00">isActive()</text>
<text text-anchor="start" x="479" y="-67" font-family="Helvetica,sans-Serif" font-size="10.00">+</text>
<text text-anchor="start" x="492" y="-67" font-family="Helvetica,sans-Serif" font-size="10.00">make_combo()</text>
<text text-anchor="start" x="479" y="-52" font-family="Helvetica,sans-Serif" font-size="10.00">+</text>
<text text-anchor="start" x="492" y="-52" font-family="Helvetica,sans-Serif" font-size="10.00">cast()</text>
<text text-anchor="start" x="479" y="-37" font-family="Helvetica,sans-Serif" font-size="10.00">+</text>
<text text-anchor="start" x="492" y="-37" font-family="Helvetica,sans-Serif" font-size="10.00">cast()</text>
<text text-anchor="start" x="479" y="-22" font-family="Helvetica,sans-Serif" font-size="10.00">+</text>
<text text-anchor="start" x="492" y="-22" font-family="Helvetica,sans-Serif" font-size="10.00">cameraConvertToVertical()</text>
<text text-anchor="start" x="479" y="-7" font-family="Helvetica,sans-Serif" font-size="10.00">+</text>
<text text-anchor="start" x="492" y="-7" font-family="Helvetica,sans-Serif" font-size="10.00">verticalConvertToCamera()</text>
<polygon fill="#666666" stroke="#666666" points="475,-167 475,-167 628,-167 628,-167 475,-167"/>
<polygon fill="#666666" stroke="#666666" points="475,-152 475,-152 628,-152 628,-152 475,-152"/>
<polygon fill="none" stroke="#666666" points="474.5,0 474.5,-184 627.5,-184 627.5,0 474.5,0"/>
</a>
</g>
</g>
<!-- Node2 -->
<g id="Node000002" class="node">
<title>Node2</title>
<g id="a_Node000002"><a xlink:href="../../de/dee/classrm_1_1combo.html" target="_top" xlink:title="特征组合体">
<polygon fill="white" stroke="transparent" points="607.5,-420 494.5,-420 494.5,-221 607.5,-221 607.5,-420"/>
<text text-anchor="start" x="525" y="-407.5" font-family="Helvetica,sans-Serif" font-size="10.00">rm::combo</text>
<text text-anchor="start" x="549.5" y="-392.5" font-family="Helvetica,sans-Serif" font-size="10.00"> </text>
<text text-anchor="start" x="499" y="-377.5" font-family="Helvetica,sans-Serif" font-size="10.00">+</text>
<text text-anchor="start" x="512" y="-377.5" font-family="Helvetica,sans-Serif" font-size="10.00">clone()</text>
<text text-anchor="start" x="499" y="-362.5" font-family="Helvetica,sans-Serif" font-size="10.00">+</text>
<text text-anchor="start" x="512" y="-362.5" font-family="Helvetica,sans-Serif" font-size="10.00">getHeight()</text>
<text text-anchor="start" x="499" y="-347.5" font-family="Helvetica,sans-Serif" font-size="10.00">+</text>
<text text-anchor="start" x="512" y="-347.5" font-family="Helvetica,sans-Serif" font-size="10.00">getWidth()</text>
<text text-anchor="start" x="499" y="-332.5" font-family="Helvetica,sans-Serif" font-size="10.00">+</text>
<text text-anchor="start" x="512" y="-332.5" font-family="Helvetica,sans-Serif" font-size="10.00">getAngle()</text>
<text text-anchor="start" x="499" y="-317.5" font-family="Helvetica,sans-Serif" font-size="10.00">+</text>
<text text-anchor="start" x="512" y="-317.5" font-family="Helvetica,sans-Serif" font-size="10.00">getCenter()</text>
<text text-anchor="start" x="499" y="-302.5" font-family="Helvetica,sans-Serif" font-size="10.00">+</text>
<text text-anchor="start" x="512" y="-302.5" font-family="Helvetica,sans-Serif" font-size="10.00">getCorners()</text>
<text text-anchor="start" x="499" y="-287.5" font-family="Helvetica,sans-Serif" font-size="10.00">+</text>
<text text-anchor="start" x="512" y="-287.5" font-family="Helvetica,sans-Serif" font-size="10.00">getExtrinsics()</text>
<text text-anchor="start" x="499" y="-272.5" font-family="Helvetica,sans-Serif" font-size="10.00">+</text>
<text text-anchor="start" x="512" y="-272.5" font-family="Helvetica,sans-Serif" font-size="10.00">getType()</text>
<text text-anchor="start" x="499" y="-257.5" font-family="Helvetica,sans-Serif" font-size="10.00">+</text>
<text text-anchor="start" x="512" y="-257.5" font-family="Helvetica,sans-Serif" font-size="10.00">getTick()</text>
<text text-anchor="start" x="499" y="-242.5" font-family="Helvetica,sans-Serif" font-size="10.00">+</text>
<text text-anchor="start" x="512" y="-242.5" font-family="Helvetica,sans-Serif" font-size="10.00">getRelativeAngle()</text>
<text text-anchor="start" x="512" y="-227.5" font-family="Helvetica,sans-Serif" font-size="10.00">和 6 更多...</text>
<polygon fill="#666666" stroke="#666666" points="495,-402.5 495,-402.5 608,-402.5 608,-402.5 495,-402.5"/>
<polygon fill="#666666" stroke="#666666" points="495,-387.5 495,-387.5 608,-387.5 608,-387.5 495,-387.5"/>
<polygon fill="none" stroke="#666666" points="494.5,-221 494.5,-420 607.5,-420 607.5,-221 494.5,-221"/>
</a>
</g>
</g>
<!-- Node2&#45;&gt;Node1 -->
<g id="edge1_Node000001_Node000002" class="edge">
<title>Node2&#45;&gt;Node1</title>
<g id="a_edge1_Node000001_Node000002"><a xlink:title=" ">
<path fill="none" stroke="#63b8ff" d="M551,-210.8C551,-201.9 551,-192.97 551,-184.22"/>
<polygon fill="none" stroke="#63b8ff" points="547.5,-210.81 551,-220.81 554.5,-210.81 547.5,-210.81"/>
</a>
</g>
</g>
<!-- Node3 -->
<g id="Node000003" class="node">
<title>Node3</title>
<g id="a_Node000003"><a xlink:title=" ">
<polygon fill="white" stroke="transparent" points="191.5,-604 82.5,-604 82.5,-544 191.5,-544 191.5,-604"/>
<text text-anchor="start" x="88" y="-592" font-family="Helvetica,sans-Serif" font-size="10.00">std::vector&lt; feature</text>
<text text-anchor="start" x="122" y="-581" font-family="Helvetica,sans-Serif" font-size="10.00">::ptr &gt;</text>
<text text-anchor="start" x="135.5" y="-566" font-family="Helvetica,sans-Serif" font-size="10.00"> </text>
<text text-anchor="start" x="135.5" y="-551" font-family="Helvetica,sans-Serif" font-size="10.00"> </text>
<polygon fill="#666666" stroke="#666666" points="83,-576 83,-576 192,-576 192,-576 83,-576"/>
<polygon fill="#666666" stroke="#666666" points="83,-561 83,-561 192,-561 192,-561 83,-561"/>
<polygon fill="none" stroke="#666666" points="82.5,-544 82.5,-604 191.5,-604 191.5,-544 82.5,-544"/>
</a>
</g>
</g>
<!-- Node3&#45;&gt;Node2 -->
<g id="edge2_Node000002_Node000003" class="edge">
<title>Node3&#45;&gt;Node2</title>
<g id="a_edge2_Node000002_Node000003"><a xlink:title=" ">
<path fill="none" stroke="#63b8ff" d="M159.95,-543.56C178.3,-521.09 205.43,-490.16 233,-467 307.71,-404.24 413.93,-362.94 482.67,-340.89"/>
<polygon fill="none" stroke="#63b8ff" points="482.76,-340.86 487.28,-335.24 494.21,-337.25 489.68,-342.87 482.76,-340.86"/>
</a>
</g>
<text text-anchor="middle" x="300" y="-441" font-family="Helvetica,sans-Serif" font-size="10.00" fill="grey"> #_features</text>
</g>
<!-- Node4 -->
<g id="Node000004" class="node">
<title>Node4</title>
<g id="a_Node000004"><a xlink:title=" ">
<polygon fill="white" stroke="transparent" points="112,-799 0,-799 0,-750 112,-750 112,-799"/>
<text text-anchor="start" x="5" y="-786.5" font-family="Helvetica,sans-Serif" font-size="10.00">std::shared_ptr&lt; T &gt;</text>
<text text-anchor="start" x="54" y="-771.5" font-family="Helvetica,sans-Serif" font-size="10.00"> </text>
<text text-anchor="start" x="11.5" y="-756.5" font-family="Helvetica,sans-Serif" font-size="10.00">+</text>
<text text-anchor="start" x="32" y="-756.5" font-family="Helvetica,sans-Serif" font-size="10.00">operator&#45;&gt;()</text>
<polygon fill="#666666" stroke="#666666" points="0,-781.5 0,-781.5 112,-781.5 112,-781.5 0,-781.5"/>
<polygon fill="#666666" stroke="#666666" points="0,-766.5 0,-766.5 112,-766.5 112,-766.5 0,-766.5"/>
<polygon fill="none" stroke="#666666" points="0,-750 0,-799 112,-799 112,-750 0,-750"/>
</a>
</g>
</g>
<!-- Node4&#45;&gt;Node3 -->
<g id="edge3_Node000003_Node000004" class="edge">
<title>Node4&#45;&gt;Node3</title>
<g id="a_edge3_Node000003_Node000004"><a xlink:title=" ">
<path fill="none" stroke="#63b8ff" d="M57.7,-749.83C59.28,-734.93 62.29,-715.46 68,-699 78.36,-669.13 95.67,-638.04 110.37,-614.46"/>
<polygon fill="none" stroke="#63b8ff" points="110.46,-614.32 110.3,-607.11 116.9,-604.19 117.05,-611.4 110.46,-614.32"/>
</a>
</g>
<text text-anchor="middle" x="97" y="-713" font-family="Helvetica,sans-Serif" font-size="10.00" fill="grey"> +elements</text>
</g>
<!-- Node5 -->
<g id="Node000005" class="node">
<title>Node5</title>
<g id="a_Node000005"><a xlink:title=" ">
<polygon fill="white" stroke="transparent" points="124.5,-950 107.5,-950 107.5,-901 124.5,-901 124.5,-950"/>
<text text-anchor="start" x="113" y="-937.5" font-family="Helvetica,sans-Serif" font-size="10.00">T</text>
<text text-anchor="start" x="114.5" y="-922.5" font-family="Helvetica,sans-Serif" font-size="10.00"> </text>
<text text-anchor="start" x="114.5" y="-907.5" font-family="Helvetica,sans-Serif" font-size="10.00"> </text>
<polygon fill="#666666" stroke="#666666" points="108,-932.5 108,-932.5 125,-932.5 125,-932.5 108,-932.5"/>
<polygon fill="#666666" stroke="#666666" points="108,-917.5 108,-917.5 125,-917.5 125,-917.5 108,-917.5"/>
<polygon fill="none" stroke="#666666" points="107.5,-901 107.5,-950 124.5,-950 124.5,-901 107.5,-901"/>
</a>
</g>
</g>
<!-- Node5&#45;&gt;Node4 -->
<g id="edge4_Node000004_Node000005" class="edge">
<title>Node5&#45;&gt;Node4</title>
<g id="a_edge4_Node000004_Node000005"><a xlink:title=" ">
<path fill="none" stroke="#63b8ff" d="M107.5,-910.6C102.86,-902.68 97.22,-892.48 93,-883 82.53,-859.49 73.13,-832.03 66.42,-810.76"/>
<polygon fill="none" stroke="#63b8ff" points="66.34,-810.48 60.74,-805.93 62.79,-799.02 68.39,-803.57 66.34,-810.48"/>
</a>
</g>
<text text-anchor="middle" x="105.5" y="-847.5" font-family="Helvetica,sans-Serif" font-size="10.00" fill="grey"> +ptr</text>
</g>
<!-- Node6 -->
<g id="Node000006" class="node">
<title>Node6</title>
<g id="a_Node000006"><a xlink:title=" ">
<polygon fill="white" stroke="transparent" points="221.5,-799 130.5,-799 130.5,-750 221.5,-750 221.5,-799"/>
<text text-anchor="start" x="136" y="-786.5" font-family="Helvetica,sans-Serif" font-size="10.00">std::vector&lt; T &gt;</text>
<text text-anchor="start" x="174.5" y="-771.5" font-family="Helvetica,sans-Serif" font-size="10.00"> </text>
<text text-anchor="start" x="174.5" y="-756.5" font-family="Helvetica,sans-Serif" font-size="10.00"> </text>
<polygon fill="#666666" stroke="#666666" points="131,-781.5 131,-781.5 222,-781.5 222,-781.5 131,-781.5"/>
<polygon fill="#666666" stroke="#666666" points="131,-766.5 131,-766.5 222,-766.5 222,-766.5 131,-766.5"/>
<polygon fill="none" stroke="#666666" points="130.5,-750 130.5,-799 221.5,-799 221.5,-750 130.5,-750"/>
</a>
</g>
</g>
<!-- Node5&#45;&gt;Node6 -->
<g id="edge6_Node000006_Node000005" class="edge">
<title>Node5&#45;&gt;Node6</title>
<g id="a_edge6_Node000006_Node000005"><a xlink:title=" ">
<path fill="none" stroke="#63b8ff" d="M124.6,-903.15C134.37,-878.89 150.45,-838.95 162.03,-810.2"/>
<polygon fill="none" stroke="#63b8ff" points="162.05,-810.15 160.58,-803.09 166.53,-799.02 168,-806.08 162.05,-810.15"/>
</a>
</g>
<text text-anchor="middle" x="188" y="-847.5" font-family="Helvetica,sans-Serif" font-size="10.00" fill="grey"> +elements</text>
</g>
<!-- Node6&#45;&gt;Node3 -->
<g id="edge5_Node000003_Node000006" class="edge">
<title>Node6&#45;&gt;Node3</title>
<g id="a_edge5_Node000003_Node000006"><a xlink:title=" ">
<path fill="none" stroke="orange" d="M142.9,-741.51C140.97,-738.46 139.29,-735.28 138,-732 121.52,-690.01 125.93,-636.69 131.11,-604.25"/>
<polygon fill="orange" stroke="orange" points="140.18,-743.71 148.93,-749.69 145.82,-739.56 140.18,-743.71"/>
</a>
</g>
<text text-anchor="middle" x="178.5" y="-713" font-family="Helvetica,sans-Serif" font-size="10.00" fill="grey"> &lt; feature::ptr &gt;</text>
</g>
<!-- Node18 -->
<g id="Node000018" class="node">
<title>Node18</title>
<g id="a_Node000018"><a xlink:title=" ">
<polygon fill="white" stroke="transparent" points="378,-598.5 242,-598.5 242,-549.5 378,-549.5 378,-598.5"/>
<text text-anchor="start" x="247" y="-586" font-family="Helvetica,sans-Serif" font-size="10.00">std::vector&lt; cv::Point2f &gt;</text>
<text text-anchor="start" x="308" y="-571" font-family="Helvetica,sans-Serif" font-size="10.00"> </text>
<text text-anchor="start" x="308" y="-556" font-family="Helvetica,sans-Serif" font-size="10.00"> </text>
<polygon fill="#666666" stroke="#666666" points="242,-581 242,-581 378,-581 378,-581 242,-581"/>
<polygon fill="#666666" stroke="#666666" points="242,-566 242,-566 378,-566 378,-566 242,-566"/>
<polygon fill="none" stroke="#666666" points="242,-549.5 242,-598.5 378,-598.5 378,-549.5 242,-549.5"/>
</a>
</g>
</g>
<!-- Node6&#45;&gt;Node18 -->
<g id="edge22_Node000018_Node000006" class="edge">
<title>Node6&#45;&gt;Node18</title>
<g id="a_edge22_Node000018_Node000006"><a xlink:title=" ">
<path fill="none" stroke="orange" d="M210.1,-742.36C213.24,-738.98 216.26,-735.49 219,-732 253.18,-688.34 283.37,-630.51 298.91,-598.62"/>
<polygon fill="orange" stroke="orange" points="207.57,-739.95 203.12,-749.56 212.6,-744.82 207.57,-739.95"/>
</a>
</g>
<text text-anchor="middle" x="281.5" y="-713" font-family="Helvetica,sans-Serif" font-size="10.00" fill="grey"> &lt; cv::Point2f &gt;</text>
</g>
<!-- Node7 -->
<g id="Node000007" class="node">
<title>Node7</title>
<g id="a_Node000007"><a xlink:title=" ">
<polygon fill="white" stroke="transparent" points="610,-950 578,-950 578,-901 610,-901 610,-950"/>
<text text-anchor="start" x="583" y="-937.5" font-family="Helvetica,sans-Serif" font-size="10.00">float</text>
<text text-anchor="start" x="592" y="-922.5" font-family="Helvetica,sans-Serif" font-size="10.00"> </text>
<text text-anchor="start" x="592" y="-907.5" font-family="Helvetica,sans-Serif" font-size="10.00"> </text>
<polygon fill="#666666" stroke="#666666" points="578,-932.5 578,-932.5 610,-932.5 610,-932.5 578,-932.5"/>
<polygon fill="#666666" stroke="#666666" points="578,-917.5 578,-917.5 610,-917.5 610,-917.5 578,-917.5"/>
<polygon fill="none" stroke="#666666" points="578,-901 578,-950 610,-950 610,-901 578,-901"/>
</a>
</g>
</g>
<!-- Node7&#45;&gt;Node2 -->
<g id="edge7_Node000002_Node000007" class="edge">
<title>Node7&#45;&gt;Node2</title>
<g id="a_edge7_Node000002_Node000007"><a xlink:title=" ">
<path fill="none" stroke="#63b8ff" d="M581.14,-900.83C568.56,-876.22 550.26,-836.16 543,-799 518.8,-675.19 526.2,-529.87 536.17,-432.35"/>
<polygon fill="none" stroke="#63b8ff" points="536.18,-432.34 532.83,-425.95 537.43,-420.41 540.78,-426.79 536.18,-432.34"/>
</a>
</g>
<text text-anchor="middle" x="555.5" y="-724" font-family="Helvetica,sans-Serif" font-size="10.00" fill="grey"> #_angle</text>
<text text-anchor="middle" x="555.5" y="-713" font-family="Helvetica,sans-Serif" font-size="10.00" fill="grey">#_height</text>
<text text-anchor="middle" x="555.5" y="-702" font-family="Helvetica,sans-Serif" font-size="10.00" fill="grey">#_width</text>
</g>
<!-- Node16 -->
<g id="Node000016" class="node">
<title>Node16</title>
<g id="a_Node000016"><a xlink:href="../../d4/def/structrm_1_1Translation.html" target="_top" xlink:title="移动位置信息">
<polygon fill="white" stroke="transparent" points="635.5,-799 552.5,-799 552.5,-750 635.5,-750 635.5,-799"/>
<text text-anchor="start" x="558" y="-786.5" font-family="Helvetica,sans-Serif" font-size="10.00">rm::Translation</text>
<text text-anchor="start" x="592.5" y="-771.5" font-family="Helvetica,sans-Serif" font-size="10.00"> </text>
<text text-anchor="start" x="592.5" y="-756.5" font-family="Helvetica,sans-Serif" font-size="10.00"> </text>
<polygon fill="#666666" stroke="#666666" points="553,-781.5 553,-781.5 636,-781.5 636,-781.5 553,-781.5"/>
<polygon fill="#666666" stroke="#666666" points="553,-766.5 553,-766.5 636,-766.5 636,-766.5 553,-766.5"/>
<polygon fill="none" stroke="#666666" points="552.5,-750 552.5,-799 635.5,-799 635.5,-750 552.5,-750"/>
</a>
</g>
</g>
<!-- Node7&#45;&gt;Node16 -->
<g id="edge17_Node000016_Node000007" class="edge">
<title>Node7&#45;&gt;Node16</title>
<g id="a_edge17_Node000016_Node000007"><a xlink:title=" ">
<path fill="none" stroke="#63b8ff" d="M594,-900.89C594,-876.95 594,-839.57 594,-811.85"/>
<polygon fill="none" stroke="#63b8ff" points="594,-811.49 590,-805.49 594,-799.49 598,-805.49 594,-811.49"/>
</a>
</g>
<text text-anchor="middle" x="606" y="-875" font-family="Helvetica,sans-Serif" font-size="10.00" fill="grey"> +vx</text>
<text text-anchor="middle" x="606" y="-864" font-family="Helvetica,sans-Serif" font-size="10.00" fill="grey">+vy</text>
<text text-anchor="middle" x="606" y="-853" font-family="Helvetica,sans-Serif" font-size="10.00" fill="grey">+vz</text>
<text text-anchor="middle" x="606" y="-842" font-family="Helvetica,sans-Serif" font-size="10.00" fill="grey">+x</text>
<text text-anchor="middle" x="606" y="-831" font-family="Helvetica,sans-Serif" font-size="10.00" fill="grey">+y</text>
<text text-anchor="middle" x="606" y="-820" font-family="Helvetica,sans-Serif" font-size="10.00" fill="grey">+z</text>
</g>
<!-- Node17 -->
<g id="Node000017" class="node">
<title>Node17</title>
<g id="a_Node000017"><a xlink:href="../../d1/d5f/structrm_1_1Rotation.html" target="_top" xlink:title="转动姿态信息">
<polygon fill="white" stroke="transparent" points="724.5,-799 653.5,-799 653.5,-750 724.5,-750 724.5,-799"/>
<text text-anchor="start" x="659" y="-786.5" font-family="Helvetica,sans-Serif" font-size="10.00">rm::Rotation</text>
<text text-anchor="start" x="687.5" y="-771.5" font-family="Helvetica,sans-Serif" font-size="10.00"> </text>
<text text-anchor="start" x="687.5" y="-756.5" font-family="Helvetica,sans-Serif" font-size="10.00"> </text>
<polygon fill="#666666" stroke="#666666" points="654,-781.5 654,-781.5 725,-781.5 725,-781.5 654,-781.5"/>
<polygon fill="#666666" stroke="#666666" points="654,-766.5 654,-766.5 725,-766.5 725,-766.5 654,-766.5"/>
<polygon fill="none" stroke="#666666" points="653.5,-750 653.5,-799 724.5,-799 724.5,-750 653.5,-750"/>
</a>
</g>
</g>
<!-- Node7&#45;&gt;Node17 -->
<g id="edge19_Node000017_Node000007" class="edge">
<title>Node7&#45;&gt;Node17</title>
<g id="a_edge19_Node000017_Node000007"><a xlink:title=" ">
<path fill="none" stroke="#63b8ff" d="M610.14,-900.9C614.06,-895.07 618.22,-888.83 622,-883 637.8,-858.65 655.12,-830.83 668.19,-809.59"/>
<polygon fill="none" stroke="#63b8ff" points="668.33,-809.37 668.06,-802.16 674.6,-799.14 674.87,-806.35 668.33,-809.37"/>
</a>
</g>
<text text-anchor="middle" x="695.5" y="-875" font-family="Helvetica,sans-Serif" font-size="10.00" fill="grey"> +pitch</text>
<text text-anchor="middle" x="695.5" y="-864" font-family="Helvetica,sans-Serif" font-size="10.00" fill="grey">+pitch_speed</text>
<text text-anchor="middle" x="695.5" y="-853" font-family="Helvetica,sans-Serif" font-size="10.00" fill="grey">+roll</text>
<text text-anchor="middle" x="695.5" y="-842" font-family="Helvetica,sans-Serif" font-size="10.00" fill="grey">+roll_speed</text>
<text text-anchor="middle" x="695.5" y="-831" font-family="Helvetica,sans-Serif" font-size="10.00" fill="grey">+yaw</text>
<text text-anchor="middle" x="695.5" y="-820" font-family="Helvetica,sans-Serif" font-size="10.00" fill="grey">+yaw_speed</text>
</g>
<!-- Node8 -->
<g id="Node000008" class="node">
<title>Node8</title>
<g id="a_Node000008"><a xlink:href="../../d0/d01/structrm_1_1RMStatus.html" target="_top" xlink:title="状态类型">
<polygon fill="white" stroke="transparent" points="852.5,-606 775.5,-606 775.5,-542 852.5,-542 852.5,-606"/>
<text text-anchor="start" x="781" y="-594" font-family="Helvetica,sans-Serif" font-size="10.00">rm::RMStatus</text>
<text text-anchor="start" x="812.5" y="-579" font-family="Helvetica,sans-Serif" font-size="10.00"> </text>
<text text-anchor="start" x="781" y="-564" font-family="Helvetica,sans-Serif" font-size="10.00">+</text>
<text text-anchor="start" x="795" y="-564" font-family="Helvetica,sans-Serif" font-size="10.00">to_string()</text>
<text text-anchor="start" x="781" y="-549" font-family="Helvetica,sans-Serif" font-size="10.00">+</text>
<text text-anchor="start" x="795" y="-549" font-family="Helvetica,sans-Serif" font-size="10.00">to_string()</text>
<polygon fill="#666666" stroke="#666666" points="776,-589 776,-589 853,-589 853,-589 776,-589"/>
<polygon fill="#666666" stroke="#666666" points="776,-574 776,-574 853,-574 853,-574 776,-574"/>
<polygon fill="none" stroke="#666666" points="775.5,-542 775.5,-606 852.5,-606 852.5,-542 775.5,-542"/>
</a>
</g>
</g>
<!-- Node8&#45;&gt;Node2 -->
<g id="edge8_Node000002_Node000008" class="edge">
<title>Node8&#45;&gt;Node2</title>
<g id="a_edge8_Node000002_Node000008"><a xlink:title=" ">
<path fill="none" stroke="#63b8ff" d="M781.49,-541.91C740.5,-502.71 669.05,-434.39 616.54,-384.18"/>
<polygon fill="none" stroke="#63b8ff" points="616.3,-383.95 609.2,-382.69 607.63,-375.65 614.73,-376.91 616.3,-383.95"/>
</a>
</g>
<text text-anchor="middle" x="701.5" y="-441" font-family="Helvetica,sans-Serif" font-size="10.00" fill="grey"> #_type</text>
</g>
<!-- Node9 -->
<g id="Node000009" class="node">
<title>Node9</title>
<g id="a_Node000009"><a xlink:title=" ">
<polygon fill="white" stroke="transparent" points="825.5,-799 742.5,-799 742.5,-750 825.5,-750 825.5,-799"/>
<text text-anchor="start" x="748" y="-786.5" font-family="Helvetica,sans-Serif" font-size="10.00">ArmorSizeType</text>
<text text-anchor="start" x="782.5" y="-771.5" font-family="Helvetica,sans-Serif" font-size="10.00"> </text>
<text text-anchor="start" x="782.5" y="-756.5" font-family="Helvetica,sans-Serif" font-size="10.00"> </text>
<polygon fill="#666666" stroke="#666666" points="743,-781.5 743,-781.5 826,-781.5 826,-781.5 743,-781.5"/>
<polygon fill="#666666" stroke="#666666" points="743,-766.5 743,-766.5 826,-766.5 826,-766.5 743,-766.5"/>
<polygon fill="none" stroke="#666666" points="742.5,-750 742.5,-799 825.5,-799 825.5,-750 742.5,-750"/>
</a>
</g>
</g>
<!-- Node9&#45;&gt;Node8 -->
<g id="edge9_Node000008_Node000009" class="edge">
<title>Node9&#45;&gt;Node8</title>
<g id="a_edge9_Node000008_Node000009"><a xlink:title=" ">
<path fill="none" stroke="#63b8ff" d="M764.52,-749.72C761.01,-744.21 757.88,-738.15 756,-732 751.71,-717.97 752.82,-713.32 756,-699 762.41,-670.16 776.27,-640.09 788.84,-616.78"/>
<polygon fill="none" stroke="#63b8ff" points="788.86,-616.75 788.27,-609.56 794.67,-606.25 795.26,-613.44 788.86,-616.75"/>
</a>
</g>
<text text-anchor="middle" x="803.5" y="-713" font-family="Helvetica,sans-Serif" font-size="10.00" fill="grey"> +ArmorSizeTypeID</text>
</g>
<!-- Node10 -->
<g id="Node000010" class="node">
<title>Node10</title>
<g id="a_Node000010"><a xlink:title=" ">
<polygon fill="white" stroke="transparent" points="902,-799 844,-799 844,-750 902,-750 902,-799"/>
<text text-anchor="start" x="849" y="-786.5" font-family="Helvetica,sans-Serif" font-size="10.00">RuneType</text>
<text text-anchor="start" x="871" y="-771.5" font-family="Helvetica,sans-Serif" font-size="10.00"> </text>
<text text-anchor="start" x="871" y="-756.5" font-family="Helvetica,sans-Serif" font-size="10.00"> </text>
<polygon fill="#666666" stroke="#666666" points="844,-781.5 844,-781.5 902,-781.5 902,-781.5 844,-781.5"/>
<polygon fill="#666666" stroke="#666666" points="844,-766.5 844,-766.5 902,-766.5 902,-766.5 844,-766.5"/>
<polygon fill="none" stroke="#666666" points="844,-750 844,-799 902,-799 902,-750 844,-750"/>
</a>
</g>
</g>
<!-- Node10&#45;&gt;Node8 -->
<g id="edge10_Node000008_Node000010" class="edge">
<title>Node10&#45;&gt;Node8</title>
<g id="a_edge10_Node000008_Node000010"><a xlink:title=" ">
<path fill="none" stroke="#63b8ff" d="M865.98,-749.67C861.67,-735.05 856.03,-715.94 851,-699 842.96,-671.92 833.89,-641.52 826.74,-617.6"/>
<polygon fill="none" stroke="#63b8ff" points="826.74,-617.58 821.19,-612.97 823.3,-606.08 828.85,-610.68 826.74,-617.58"/>
</a>
</g>
<text text-anchor="middle" x="895" y="-713" font-family="Helvetica,sans-Serif" font-size="10.00" fill="grey"> +RuneTypeID</text>
</g>
<!-- Node11 -->
<g id="Node000011" class="node">
<title>Node11</title>
<g id="a_Node000011"><a xlink:title=" ">
<polygon fill="white" stroke="transparent" points="1015.5,-799 920.5,-799 920.5,-750 1015.5,-750 1015.5,-799"/>
<text text-anchor="start" x="926" y="-786.5" font-family="Helvetica,sans-Serif" font-size="10.00">CompensateType</text>
<text text-anchor="start" x="966.5" y="-771.5" font-family="Helvetica,sans-Serif" font-size="10.00"> </text>
<text text-anchor="start" x="966.5" y="-756.5" font-family="Helvetica,sans-Serif" font-size="10.00"> </text>
<polygon fill="#666666" stroke="#666666" points="921,-781.5 921,-781.5 1016,-781.5 1016,-781.5 921,-781.5"/>
<polygon fill="#666666" stroke="#666666" points="921,-766.5 921,-766.5 1016,-766.5 1016,-766.5 921,-766.5"/>
<polygon fill="none" stroke="#666666" points="920.5,-750 920.5,-799 1015.5,-799 1015.5,-750 920.5,-750"/>
</a>
</g>
</g>
<!-- Node11&#45;&gt;Node8 -->
<g id="edge11_Node000008_Node000011" class="edge">
<title>Node11&#45;&gt;Node8</title>
<g id="a_edge11_Node000008_Node000011"><a xlink:title=" ">
<path fill="none" stroke="#63b8ff" d="M962.91,-749.67C958.16,-733.12 949.41,-711.82 934,-699 908.64,-677.91 887.33,-702.13 862,-681 842.89,-665.06 831.06,-639.91 823.92,-618.12"/>
<polygon fill="none" stroke="#63b8ff" points="823.87,-617.93 818.31,-613.32 820.43,-606.43 825.98,-611.03 823.87,-617.93"/>
</a>
</g>
<text text-anchor="middle" x="1009" y="-713" font-family="Helvetica,sans-Serif" font-size="10.00" fill="grey"> +CompensateTypeID</text>
</g>
<!-- Node12 -->
<g id="Node000012" class="node">
<title>Node12</title>
<g id="a_Node000012"><a xlink:title=" ">
<polygon fill="white" stroke="transparent" points="1126,-799 1064,-799 1064,-750 1126,-750 1126,-799"/>
<text text-anchor="start" x="1069" y="-786.5" font-family="Helvetica,sans-Serif" font-size="10.00">RobotType</text>
<text text-anchor="start" x="1093" y="-771.5" font-family="Helvetica,sans-Serif" font-size="10.00"> </text>
<text text-anchor="start" x="1093" y="-756.5" font-family="Helvetica,sans-Serif" font-size="10.00"> </text>
<polygon fill="#666666" stroke="#666666" points="1064,-781.5 1064,-781.5 1126,-781.5 1126,-781.5 1064,-781.5"/>
<polygon fill="#666666" stroke="#666666" points="1064,-766.5 1064,-766.5 1126,-766.5 1126,-766.5 1064,-766.5"/>
<polygon fill="none" stroke="#666666" points="1064,-750 1064,-799 1126,-799 1126,-750 1064,-750"/>
</a>
</g>
</g>
<!-- Node12&#45;&gt;Node8 -->
<g id="edge12_Node000008_Node000012" class="edge">
<title>Node12&#45;&gt;Node8</title>
<g id="a_edge12_Node000008_Node000012"><a xlink:title=" ">
<path fill="none" stroke="#63b8ff" d="M1092.32,-749.73C1089.06,-732.76 1081.87,-710.91 1066,-699 1029.6,-671.68 899.12,-707.32 862,-681 841.33,-666.34 829.39,-640.59 822.59,-618.15"/>
<polygon fill="none" stroke="#63b8ff" points="822.55,-618.02 817.12,-613.29 819.4,-606.45 824.84,-611.18 822.55,-618.02"/>
</a>
</g>
<text text-anchor="middle" x="1123.5" y="-713" font-family="Helvetica,sans-Serif" font-size="10.00" fill="grey"> +RobotTypeID</text>
</g>
<!-- Node13 -->
<g id="Node000013" class="node">
<title>Node13</title>
<g id="a_Node000013"><a xlink:title=" ">
<polygon fill="white" stroke="transparent" points="1216,-799 1166,-799 1166,-750 1216,-750 1216,-799"/>
<text text-anchor="start" x="1171" y="-786.5" font-family="Helvetica,sans-Serif" font-size="10.00">TagType</text>
<text text-anchor="start" x="1189" y="-771.5" font-family="Helvetica,sans-Serif" font-size="10.00"> </text>
<text text-anchor="start" x="1189" y="-756.5" font-family="Helvetica,sans-Serif" font-size="10.00"> </text>
<polygon fill="#666666" stroke="#666666" points="1166,-781.5 1166,-781.5 1216,-781.5 1216,-781.5 1166,-781.5"/>
<polygon fill="#666666" stroke="#666666" points="1166,-766.5 1166,-766.5 1216,-766.5 1216,-766.5 1166,-766.5"/>
<polygon fill="none" stroke="#666666" points="1166,-750 1166,-799 1216,-799 1216,-750 1166,-750"/>
</a>
</g>
</g>
<!-- Node13&#45;&gt;Node8 -->
<g id="edge13_Node000008_Node000013" class="edge">
<title>Node13&#45;&gt;Node8</title>
<g id="a_edge13_Node000008_Node000013"><a xlink:title=" ">
<path fill="none" stroke="#63b8ff" d="M1189.08,-749.65C1186.34,-732.64 1179.76,-710.77 1164,-699 1110.13,-658.78 917.39,-719.1 862,-681 840.98,-666.54 829.02,-640.55 822.29,-617.92"/>
<polygon fill="none" stroke="#63b8ff" points="822.24,-617.73 816.83,-612.96 819.15,-606.13 824.56,-610.9 822.24,-617.73"/>
</a>
</g>
<text text-anchor="middle" x="1214.5" y="-713" font-family="Helvetica,sans-Serif" font-size="10.00" fill="grey"> +TagTypeID</text>
</g>
<!-- Node14 -->
<g id="Node000014" class="node">
<title>Node14</title>
<g id="a_Node000014"><a xlink:title=" ">
<polygon fill="white" stroke="transparent" points="400.5,-799 355.5,-799 355.5,-750 400.5,-750 400.5,-799"/>
<text text-anchor="start" x="361" y="-786.5" font-family="Helvetica,sans-Serif" font-size="10.00">Point2f</text>
<text text-anchor="start" x="376.5" y="-771.5" font-family="Helvetica,sans-Serif" font-size="10.00"> </text>
<text text-anchor="start" x="376.5" y="-756.5" font-family="Helvetica,sans-Serif" font-size="10.00"> </text>
<polygon fill="#666666" stroke="#666666" points="356,-781.5 356,-781.5 401,-781.5 401,-781.5 356,-781.5"/>
<polygon fill="#666666" stroke="#666666" points="356,-766.5 356,-766.5 401,-766.5 401,-766.5 356,-766.5"/>
<polygon fill="none" stroke="#666666" points="355.5,-750 355.5,-799 400.5,-799 400.5,-750 355.5,-750"/>
</a>
</g>
</g>
<!-- Node14&#45;&gt;Node2 -->
<g id="edge14_Node000002_Node000014" class="edge">
<title>Node14&#45;&gt;Node2</title>
<g id="a_edge14_Node000002_Node000014"><a xlink:title=" ">
<path fill="none" stroke="#63b8ff" d="M392.65,-749.59C395.52,-743.99 398.19,-737.93 400,-732 434.59,-618.73 381.49,-575.92 428,-467 441.36,-435.71 463.84,-406.07 485.96,-381.82"/>
<polygon fill="none" stroke="#63b8ff" points="486.2,-381.56 487.38,-374.44 494.39,-372.79 493.22,-379.9 486.2,-381.56"/>
</a>
</g>
<text text-anchor="middle" x="470" y="-577" font-family="Helvetica,sans-Serif" font-size="10.00" fill="grey"> #_center</text>
<text text-anchor="middle" x="470" y="-566" font-family="Helvetica,sans-Serif" font-size="10.00" fill="grey">#_relative_angle</text>
</g>
<!-- Node14&#45;&gt;Node18 -->
<g id="edge21_Node000018_Node000014" class="edge">
<title>Node14&#45;&gt;Node18</title>
<g id="a_edge21_Node000018_Node000014"><a xlink:title=" ">
<path fill="none" stroke="#63b8ff" d="M355.13,-751.33C350.15,-745.46 345.37,-738.84 342,-732 322.9,-693.23 315.19,-643.69 312.09,-610.73"/>
<polygon fill="none" stroke="#63b8ff" points="312.07,-610.51 307.59,-604.86 311.08,-598.55 315.56,-604.2 312.07,-610.51"/>
</a>
</g>
<text text-anchor="middle" x="371" y="-713" font-family="Helvetica,sans-Serif" font-size="10.00" fill="grey"> +elements</text>
</g>
<!-- Node15 -->
<g id="Node000015" class="node">
<title>Node15</title>
<g id="a_Node000015"><a xlink:href="../../dc/d5f/structrm_1_1GyroData.html" target="_top" xlink:title="陀螺仪数据">
<polygon fill="white" stroke="transparent" points="632.5,-621 555.5,-621 555.5,-527 632.5,-527 632.5,-621"/>
<text text-anchor="start" x="561" y="-609" font-family="Helvetica,sans-Serif" font-size="10.00">rm::GyroData</text>
<text text-anchor="start" x="592.5" y="-594" font-family="Helvetica,sans-Serif" font-size="10.00"> </text>
<text text-anchor="start" x="565.5" y="-579" font-family="Helvetica,sans-Serif" font-size="10.00">+</text>
<text text-anchor="start" x="584" y="-579" font-family="Helvetica,sans-Serif" font-size="10.00">write()</text>
<text text-anchor="start" x="565.5" y="-564" font-family="Helvetica,sans-Serif" font-size="10.00">+</text>
<text text-anchor="start" x="584" y="-564" font-family="Helvetica,sans-Serif" font-size="10.00">read()</text>
<text text-anchor="start" x="565.5" y="-549" font-family="Helvetica,sans-Serif" font-size="10.00">+</text>
<text text-anchor="start" x="584" y="-549" font-family="Helvetica,sans-Serif" font-size="10.00">write()</text>
<text text-anchor="start" x="565.5" y="-534" font-family="Helvetica,sans-Serif" font-size="10.00">+</text>
<text text-anchor="start" x="584" y="-534" font-family="Helvetica,sans-Serif" font-size="10.00">read()</text>
<polygon fill="#666666" stroke="#666666" points="556,-604 556,-604 633,-604 633,-604 556,-604"/>
<polygon fill="#666666" stroke="#666666" points="556,-589 556,-589 633,-589 633,-589 556,-589"/>
<polygon fill="none" stroke="#666666" points="555.5,-527 555.5,-621 632.5,-621 632.5,-527 555.5,-527"/>
</a>
</g>
</g>
<!-- Node15&#45;&gt;Node2 -->
<g id="edge15_Node000002_Node000015" class="edge">
<title>Node15&#45;&gt;Node2</title>
<g id="a_edge15_Node000002_Node000015"><a xlink:title=" ">
<path fill="none" stroke="#63b8ff" d="M586.11,-526.87C581.57,-500.29 575.64,-465.63 569.96,-432.39"/>
<polygon fill="none" stroke="#63b8ff" points="569.9,-432.05 564.95,-426.81 567.88,-420.22 572.83,-425.46 569.9,-432.05"/>
</a>
</g>
<text text-anchor="middle" x="606" y="-441" font-family="Helvetica,sans-Serif" font-size="10.00" fill="grey"> #_gyro_data</text>
</g>
<!-- Node16&#45;&gt;Node15 -->
<g id="edge16_Node000015_Node000016" class="edge">
<title>Node16&#45;&gt;Node15</title>
<g id="a_edge16_Node000015_Node000016"><a xlink:title=" ">
<path fill="none" stroke="#63b8ff" d="M594,-749.95C594,-721.41 594,-672.3 594,-633.37"/>
<polygon fill="none" stroke="#63b8ff" points="594,-633.12 590,-627.12 594,-621.12 598,-627.12 594,-633.12"/>
</a>
</g>
<text text-anchor="middle" x="626" y="-713" font-family="Helvetica,sans-Serif" font-size="10.00" fill="grey"> +translation</text>
</g>
<!-- Node17&#45;&gt;Node15 -->
<g id="edge18_Node000015_Node000017" class="edge">
<title>Node17&#45;&gt;Node15</title>
<g id="a_edge18_Node000015_Node000017"><a xlink:title=" ">
<path fill="none" stroke="#63b8ff" d="M680.56,-749.72C675.11,-734.94 667.64,-715.65 660,-699 649.74,-676.63 637.31,-652.63 626.02,-631.76"/>
<polygon fill="none" stroke="#63b8ff" points="625.98,-631.69 619.6,-628.34 620.24,-621.16 626.62,-624.51 625.98,-631.69"/>
</a>
</g>
<text text-anchor="middle" x="698" y="-713" font-family="Helvetica,sans-Serif" font-size="10.00" fill="grey"> +rotation</text>
</g>
<!-- Node18&#45;&gt;Node2 -->
<g id="edge20_Node000002_Node000018" class="edge">
<title>Node18&#45;&gt;Node2</title>
<g id="a_edge20_Node000002_Node000018"><a xlink:title=" ">
<path fill="none" stroke="#63b8ff" d="M311.08,-549.35C313.53,-520.33 321.46,-470.93 347,-438 381.49,-393.53 438.07,-363.15 482.9,-344.6"/>
<polygon fill="none" stroke="#63b8ff" points="483.19,-344.48 487.27,-338.54 494.32,-340.02 490.24,-345.96 483.19,-344.48"/>
</a>
</g>
<text text-anchor="middle" x="373.5" y="-441" font-family="Helvetica,sans-Serif" font-size="10.00" fill="grey"> #_corners</text>
</g>
<!-- Node19 -->
<g id="Node000019" class="node">
<title>Node19</title>
<g id="a_Node000019"><a xlink:href="../../da/dbf/classrm_1_1CameraExtrinsics.html" target="_top" xlink:title="相机外参">
<polygon fill="white" stroke="transparent" points="987,-681 871,-681 871,-467 987,-467 987,-681"/>
<text text-anchor="start" x="876" y="-669" font-family="Helvetica,sans-Serif" font-size="10.00">rm::CameraExtrinsics</text>
<text text-anchor="start" x="927" y="-654" font-family="Helvetica,sans-Serif" font-size="10.00"> </text>
<text text-anchor="start" x="886.5" y="-639" font-family="Helvetica,sans-Serif" font-size="10.00">+</text>
<text text-anchor="start" x="911" y="-639" font-family="Helvetica,sans-Serif" font-size="10.00">tvec()</text>
<text text-anchor="start" x="886.5" y="-624" font-family="Helvetica,sans-Serif" font-size="10.00">+</text>
<text text-anchor="start" x="911" y="-624" font-family="Helvetica,sans-Serif" font-size="10.00">rvec()</text>
<text text-anchor="start" x="886.5" y="-609" font-family="Helvetica,sans-Serif" font-size="10.00">+</text>
<text text-anchor="start" x="911" y="-609" font-family="Helvetica,sans-Serif" font-size="10.00">R()</text>
<text text-anchor="start" x="886.5" y="-594" font-family="Helvetica,sans-Serif" font-size="10.00">+</text>
<text text-anchor="start" x="911" y="-594" font-family="Helvetica,sans-Serif" font-size="10.00">T()</text>
<text text-anchor="start" x="886.5" y="-579" font-family="Helvetica,sans-Serif" font-size="10.00">+</text>
<text text-anchor="start" x="911" y="-579" font-family="Helvetica,sans-Serif" font-size="10.00">yaw()</text>
<text text-anchor="start" x="886.5" y="-564" font-family="Helvetica,sans-Serif" font-size="10.00">+</text>
<text text-anchor="start" x="911" y="-564" font-family="Helvetica,sans-Serif" font-size="10.00">pitch()</text>
<text text-anchor="start" x="886.5" y="-549" font-family="Helvetica,sans-Serif" font-size="10.00">+</text>
<text text-anchor="start" x="911" y="-549" font-family="Helvetica,sans-Serif" font-size="10.00">roll()</text>
<text text-anchor="start" x="886.5" y="-534" font-family="Helvetica,sans-Serif" font-size="10.00">+</text>
<text text-anchor="start" x="911" y="-534" font-family="Helvetica,sans-Serif" font-size="10.00">distance()</text>
<text text-anchor="start" x="886.5" y="-519" font-family="Helvetica,sans-Serif" font-size="10.00">+</text>
<text text-anchor="start" x="911" y="-519" font-family="Helvetica,sans-Serif" font-size="10.00">tvec()</text>
<text text-anchor="start" x="886.5" y="-504" font-family="Helvetica,sans-Serif" font-size="10.00">+</text>
<text text-anchor="start" x="911" y="-504" font-family="Helvetica,sans-Serif" font-size="10.00">rvec()</text>
<text text-anchor="start" x="886.5" y="-489" font-family="Helvetica,sans-Serif" font-size="10.00">+</text>
<text text-anchor="start" x="911" y="-489" font-family="Helvetica,sans-Serif" font-size="10.00">R()</text>
<text text-anchor="start" x="886.5" y="-474" font-family="Helvetica,sans-Serif" font-size="10.00">+</text>
<text text-anchor="start" x="911" y="-474" font-family="Helvetica,sans-Serif" font-size="10.00">distance()</text>
<polygon fill="#666666" stroke="#666666" points="871,-664 871,-664 987,-664 987,-664 871,-664"/>
<polygon fill="#666666" stroke="#666666" points="871,-649 871,-649 987,-649 987,-649 871,-649"/>
<polygon fill="none" stroke="#666666" points="871,-467 871,-681 987,-681 987,-467 871,-467"/>
</a>
</g>
</g>
<!-- Node19&#45;&gt;Node2 -->
<g id="edge23_Node000002_Node000019" class="edge">
<title>Node19&#45;&gt;Node2</title>
<g id="a_edge23_Node000002_Node000019"><a xlink:title=" ">
<path fill="none" stroke="#63b8ff" d="M870.57,-475.22C867.8,-472.34 864.94,-469.59 862,-467 790.49,-403.98 686.98,-362.92 619.34,-340.98"/>
<polygon fill="none" stroke="#63b8ff" points="619,-340.87 612.07,-342.86 607.56,-337.23 614.49,-335.24 619,-340.87"/>
</a>
</g>
<text text-anchor="middle" x="862.5" y="-441" font-family="Helvetica,sans-Serif" font-size="10.00" fill="grey"> #_extrinsic</text>
</g>
<!-- Node20 -->
<g id="Node000020" class="node">
<title>Node20</title>
<g id="a_Node000020"><a xlink:title=" ">
<polygon fill="white" stroke="transparent" points="1049,-598.5 1005,-598.5 1005,-549.5 1049,-549.5 1049,-598.5"/>
<text text-anchor="start" x="1010" y="-586" font-family="Helvetica,sans-Serif" font-size="10.00">double</text>
<text text-anchor="start" x="1025" y="-571" font-family="Helvetica,sans-Serif" font-size="10.00"> </text>
<text text-anchor="start" x="1025" y="-556" font-family="Helvetica,sans-Serif" font-size="10.00"> </text>
<polygon fill="#666666" stroke="#666666" points="1005,-581 1005,-581 1049,-581 1049,-581 1005,-581"/>
<polygon fill="#666666" stroke="#666666" points="1005,-566 1005,-566 1049,-566 1049,-566 1005,-566"/>
<polygon fill="none" stroke="#666666" points="1005,-549.5 1005,-598.5 1049,-598.5 1049,-549.5 1005,-549.5"/>
</a>
</g>
</g>
<!-- Node20&#45;&gt;Node2 -->
<g id="edge24_Node000002_Node000020" class="edge">
<title>Node20&#45;&gt;Node2</title>
<g id="a_edge24_Node000002_Node000020"><a xlink:title=" ">
<path fill="none" stroke="#63b8ff" d="M1026.24,-549.2C1024.2,-525.38 1017.48,-489.17 996,-467 894.57,-362.32 716.88,-332.9 619.54,-324.67"/>
<polygon fill="none" stroke="#63b8ff" points="619.47,-324.66 613.17,-328.18 607.5,-323.72 613.8,-320.2 619.47,-324.66"/>
</a>
</g>
<text text-anchor="middle" x="985.5" y="-441" font-family="Helvetica,sans-Serif" font-size="10.00" fill="grey"> #_tick</text>
</g>
</g>
</svg>
