<?xml version="1.0" encoding="UTF-8" standalone="no"?>
<!DOCTYPE svg PUBLIC "-//W3C//DTD SVG 1.1//EN"
 "http://www.w3.org/Graphics/SVG/1.1/DTD/svg11.dtd">
<!-- Generated by graphviz version 2.43.0 (0)
 -->
<!-- Title: rmvl/group/group.h Pages: 1 -->
<svg width="876pt" height="420pt"
 viewBox="0.00 0.00 875.50 420.00" xmlns="http://www.w3.org/2000/svg" xmlns:xlink="http://www.w3.org/1999/xlink">
<g id="graph0" class="graph" transform="scale(1 1) rotate(0) translate(4 416)">
<title>rmvl/group/group.h</title>
<polygon fill="white" stroke="transparent" points="-4,4 -4,-416 871.5,-416 871.5,4 -4,4"/>
<!-- Node1 -->
<g id="node1" class="node">
<title>Node1</title>
<g id="a_node1"><a xlink:title="序列组抽象头文件">
<polygon fill="#bfbfbf" stroke="black" points="563.5,-392.5 563.5,-411.5 673.5,-411.5 673.5,-392.5 563.5,-392.5"/>
<text text-anchor="middle" x="618.5" y="-399.5" font-family="Helvetica,sans-Serif" font-size="10.00">rmvl/group/group.h</text>
</a>
</g>
</g>
<!-- Node2 -->
<g id="node2" class="node">
<title>Node2</title>
<g id="a_node2"><a xlink:href="../../dc/ded/tracker_8h.html" target="_top" xlink:title="追踪器抽象头文件">
<polygon fill="white" stroke="black" points="558,-336.5 558,-355.5 679,-355.5 679,-336.5 558,-336.5"/>
<text text-anchor="middle" x="618.5" y="-343.5" font-family="Helvetica,sans-Serif" font-size="10.00">rmvl/tracker/tracker.h</text>
</a>
</g>
</g>
<!-- Node1&#45;&gt;Node2 -->
<g id="edge1" class="edge">
<title>Node1&#45;&gt;Node2</title>
<path fill="none" stroke="midnightblue" d="M618.5,-392.08C618.5,-385.01 618.5,-374.86 618.5,-365.99"/>
<polygon fill="midnightblue" stroke="midnightblue" points="622,-365.75 618.5,-355.75 615,-365.75 622,-365.75"/>
</g>
<!-- Node3 -->
<g id="node3" class="node">
<title>Node3</title>
<g id="a_node3"><a xlink:title=" ">
<polygon fill="white" stroke="#bfbfbf" points="544,-280.5 544,-299.5 591,-299.5 591,-280.5 544,-280.5"/>
<text text-anchor="middle" x="567.5" y="-287.5" font-family="Helvetica,sans-Serif" font-size="10.00">deque</text>
</a>
</g>
</g>
<!-- Node2&#45;&gt;Node3 -->
<g id="edge2" class="edge">
<title>Node2&#45;&gt;Node3</title>
<path fill="none" stroke="midnightblue" d="M610.08,-336.08C602.65,-328.22 591.65,-316.57 582.69,-307.08"/>
<polygon fill="midnightblue" stroke="midnightblue" points="585.18,-304.62 575.76,-299.75 580.09,-309.42 585.18,-304.62"/>
</g>
<!-- Node4 -->
<g id="node4" class="node">
<title>Node4</title>
<g id="a_node4"><a xlink:href="../../d8/d36/combo_8h.html" target="_top" xlink:title="the combination of the features header file">
<polygon fill="white" stroke="black" points="609.5,-280.5 609.5,-299.5 729.5,-299.5 729.5,-280.5 609.5,-280.5"/>
<text text-anchor="middle" x="669.5" y="-287.5" font-family="Helvetica,sans-Serif" font-size="10.00">rmvl/combo/combo.h</text>
</a>
</g>
</g>
<!-- Node2&#45;&gt;Node4 -->
<g id="edge3" class="edge">
<title>Node2&#45;&gt;Node4</title>
<path fill="none" stroke="midnightblue" d="M626.92,-336.08C634.35,-328.22 645.35,-316.57 654.31,-307.08"/>
<polygon fill="midnightblue" stroke="midnightblue" points="656.91,-309.42 661.24,-299.75 651.82,-304.62 656.91,-309.42"/>
</g>
<!-- Node5 -->
<g id="node5" class="node">
<title>Node5</title>
<g id="a_node5"><a xlink:href="../../da/d8d/result__pnp_8hpp.html" target="_top" xlink:title="PnP数据">
<polygon fill="white" stroke="black" points="287.5,-224.5 287.5,-243.5 433.5,-243.5 433.5,-224.5 287.5,-224.5"/>
<text text-anchor="middle" x="360.5" y="-231.5" font-family="Helvetica,sans-Serif" font-size="10.00">rmvl/rmath/result_pnp.hpp</text>
</a>
</g>
</g>
<!-- Node4&#45;&gt;Node5 -->
<g id="edge4" class="edge">
<title>Node4&#45;&gt;Node5</title>
<path fill="none" stroke="midnightblue" d="M620.54,-280.44C565.96,-270.9 477.71,-255.48 419.4,-245.29"/>
<polygon fill="midnightblue" stroke="midnightblue" points="419.69,-241.79 409.23,-243.52 418.48,-248.69 419.69,-241.79"/>
</g>
<!-- Node21 -->
<g id="node21" class="node">
<title>Node21</title>
<g id="a_node21"><a xlink:href="../../dd/de3/types_8hpp.html" target="_top" xlink:title="常用状态类型定义">
<polygon fill="white" stroke="black" points="777.5,-56.5 777.5,-75.5 867.5,-75.5 867.5,-56.5 777.5,-56.5"/>
<text text-anchor="middle" x="822.5" y="-63.5" font-family="Helvetica,sans-Serif" font-size="10.00">rmvl/types.hpp</text>
</a>
</g>
</g>
<!-- Node4&#45;&gt;Node21 -->
<g id="edge20" class="edge">
<title>Node4&#45;&gt;Node21</title>
<path fill="none" stroke="midnightblue" d="M729.76,-284.32C757.75,-278.88 788.88,-267.5 807.5,-244 844.48,-197.32 834.21,-120.36 826.93,-85.35"/>
<polygon fill="midnightblue" stroke="midnightblue" points="830.33,-84.55 824.73,-75.55 823.5,-86.08 830.33,-84.55"/>
</g>
<!-- Node22 -->
<g id="node22" class="node">
<title>Node22</title>
<g id="a_node22"><a xlink:href="../../d5/d60/dataio_8hpp.html" target="_top" xlink:title="陀螺仪数据">
<polygon fill="white" stroke="black" points="680.5,-224.5 680.5,-243.5 798.5,-243.5 798.5,-224.5 680.5,-224.5"/>
<text text-anchor="middle" x="739.5" y="-231.5" font-family="Helvetica,sans-Serif" font-size="10.00">rmvl/core/dataio.hpp</text>
</a>
</g>
</g>
<!-- Node4&#45;&gt;Node22 -->
<g id="edge22" class="edge">
<title>Node4&#45;&gt;Node22</title>
<path fill="none" stroke="midnightblue" d="M680.75,-280.32C691.3,-272.18 707.3,-259.84 719.94,-250.09"/>
<polygon fill="midnightblue" stroke="midnightblue" points="722.27,-252.71 728.05,-243.83 717.99,-247.17 722.27,-252.71"/>
</g>
<!-- Node23 -->
<g id="node23" class="node">
<title>Node23</title>
<g id="a_node23"><a xlink:href="../../d2/d74/feature_8h.html" target="_top" xlink:title="feature class header">
<polygon fill="white" stroke="black" points="537,-224.5 537,-243.5 662,-243.5 662,-224.5 537,-224.5"/>
<text text-anchor="middle" x="599.5" y="-231.5" font-family="Helvetica,sans-Serif" font-size="10.00">rmvl/feature/feature.h</text>
</a>
</g>
</g>
<!-- Node4&#45;&gt;Node23 -->
<g id="edge24" class="edge">
<title>Node4&#45;&gt;Node23</title>
<path fill="none" stroke="midnightblue" d="M658.25,-280.32C647.7,-272.18 631.7,-259.84 619.06,-250.09"/>
<polygon fill="midnightblue" stroke="midnightblue" points="621.01,-247.17 610.95,-243.83 616.73,-252.71 621.01,-247.17"/>
</g>
<!-- Node6 -->
<g id="node6" class="node">
<title>Node6</title>
<g id="a_node6"><a xlink:title=" ">
<polygon fill="white" stroke="#bfbfbf" points="0,-168.5 0,-187.5 77,-187.5 77,-168.5 0,-168.5"/>
<text text-anchor="middle" x="38.5" y="-175.5" font-family="Helvetica,sans-Serif" font-size="10.00">Eigen/Dense</text>
</a>
</g>
</g>
<!-- Node5&#45;&gt;Node6 -->
<g id="edge5" class="edge">
<title>Node5&#45;&gt;Node6</title>
<path fill="none" stroke="midnightblue" d="M305.64,-224.47C252.25,-216.07 168.57,-202.63 87.13,-188.26"/>
<polygon fill="midnightblue" stroke="midnightblue" points="87.67,-184.8 77.21,-186.5 86.45,-191.69 87.67,-184.8"/>
</g>
<!-- Node7 -->
<g id="node7" class="node">
<title>Node7</title>
<g id="a_node7"><a xlink:title=" ">
<polygon fill="white" stroke="#bfbfbf" points="95,-168.5 95,-187.5 212,-187.5 212,-168.5 95,-168.5"/>
<text text-anchor="middle" x="153.5" y="-175.5" font-family="Helvetica,sans-Serif" font-size="10.00">opencv2/calib3d.hpp</text>
</a>
</g>
</g>
<!-- Node5&#45;&gt;Node7 -->
<g id="edge6" class="edge">
<title>Node5&#45;&gt;Node7</title>
<path fill="none" stroke="midnightblue" d="M327.7,-224.44C292.12,-215.16 235.19,-200.31 196.15,-190.13"/>
<polygon fill="midnightblue" stroke="midnightblue" points="196.71,-186.65 186.15,-187.52 194.94,-193.43 196.71,-186.65"/>
</g>
<!-- Node8 -->
<g id="node8" class="node">
<title>Node8</title>
<g id="a_node8"><a xlink:title=" ">
<polygon fill="white" stroke="#bfbfbf" points="230,-168.5 230,-187.5 363,-187.5 363,-168.5 230,-168.5"/>
<text text-anchor="middle" x="296.5" y="-175.5" font-family="Helvetica,sans-Serif" font-size="10.00">opencv2/core/eigen.hpp</text>
</a>
</g>
</g>
<!-- Node5&#45;&gt;Node8 -->
<g id="edge7" class="edge">
<title>Node5&#45;&gt;Node8</title>
<path fill="none" stroke="midnightblue" d="M350.22,-224.32C340.66,-216.26 326.22,-204.08 314.72,-194.37"/>
<polygon fill="midnightblue" stroke="midnightblue" points="316.87,-191.61 306.97,-187.83 312.36,-196.96 316.87,-191.61"/>
</g>
<!-- Node9 -->
<g id="node9" class="node">
<title>Node9</title>
<g id="a_node9"><a xlink:href="../../d8/d7e/rmvlpara_2rmath_8hpp.html" target="_top" xlink:title="RmathParam module header file (Generated by CMake automatically)">
<polygon fill="white" stroke="black" points="483.5,-168.5 483.5,-187.5 597.5,-187.5 597.5,-168.5 483.5,-168.5"/>
<text text-anchor="middle" x="540.5" y="-175.5" font-family="Helvetica,sans-Serif" font-size="10.00">rmvlpara/rmath.hpp</text>
</a>
</g>
</g>
<!-- Node5&#45;&gt;Node9 -->
<g id="edge8" class="edge">
<title>Node5&#45;&gt;Node9</title>
<path fill="none" stroke="midnightblue" d="M389.02,-224.44C419.57,-215.28 468.21,-200.69 502.1,-190.52"/>
<polygon fill="midnightblue" stroke="midnightblue" points="503.54,-193.74 512.11,-187.52 501.53,-187.04 503.54,-193.74"/>
</g>
<!-- Node17 -->
<g id="node17" class="node">
<title>Node17</title>
<g id="a_node17"><a xlink:href="../../dc/d71/uty__math_8hpp.html" target="_top" xlink:title=" ">
<polygon fill="white" stroke="black" points="381.5,-168.5 381.5,-187.5 465.5,-187.5 465.5,-168.5 381.5,-168.5"/>
<text text-anchor="middle" x="423.5" y="-175.5" font-family="Helvetica,sans-Serif" font-size="10.00">uty_math.hpp</text>
</a>
</g>
</g>
<!-- Node5&#45;&gt;Node17 -->
<g id="edge16" class="edge">
<title>Node5&#45;&gt;Node17</title>
<path fill="none" stroke="midnightblue" d="M370.62,-224.32C380.03,-216.26 394.24,-204.08 405.57,-194.37"/>
<polygon fill="midnightblue" stroke="midnightblue" points="407.88,-197 413.19,-187.83 403.32,-191.68 407.88,-197"/>
</g>
<!-- Node10 -->
<g id="node10" class="node">
<title>Node10</title>
<g id="a_node10"><a xlink:title=" ">
<polygon fill="white" stroke="#bfbfbf" points="623,-112.5 623,-131.5 756,-131.5 756,-112.5 623,-112.5"/>
<text text-anchor="middle" x="689.5" y="-119.5" font-family="Helvetica,sans-Serif" font-size="10.00">opencv2/core/types.hpp</text>
</a>
</g>
</g>
<!-- Node9&#45;&gt;Node10 -->
<g id="edge9" class="edge">
<title>Node9&#45;&gt;Node10</title>
<path fill="none" stroke="midnightblue" d="M564.11,-168.44C588.96,-159.44 628.27,-145.19 656.25,-135.05"/>
<polygon fill="midnightblue" stroke="midnightblue" points="657.79,-138.21 666,-131.52 655.41,-131.63 657.79,-138.21"/>
</g>
<!-- Node11 -->
<g id="node11" class="node">
<title>Node11</title>
<g id="a_node11"><a xlink:href="../../d2/d8f/loader_8hpp.html" target="_top" xlink:title=" ">
<polygon fill="white" stroke="black" points="490,-112.5 490,-131.5 605,-131.5 605,-112.5 490,-112.5"/>
<text text-anchor="middle" x="547.5" y="-119.5" font-family="Helvetica,sans-Serif" font-size="10.00">rmvlpara/loader.hpp</text>
</a>
</g>
</g>
<!-- Node9&#45;&gt;Node11 -->
<g id="edge10" class="edge">
<title>Node9&#45;&gt;Node11</title>
<path fill="none" stroke="midnightblue" d="M541.66,-168.08C542.58,-160.93 543.92,-150.64 545.08,-141.69"/>
<polygon fill="midnightblue" stroke="midnightblue" points="548.55,-142.12 546.37,-131.75 541.61,-141.22 548.55,-142.12"/>
</g>
<!-- Node12 -->
<g id="node12" class="node">
<title>Node12</title>
<g id="a_node12"><a xlink:href="../../d0/d3f/util_8hpp.html" target="_top" xlink:title=" ">
<polygon fill="white" stroke="black" points="524,-56.5 524,-75.5 627,-75.5 627,-56.5 524,-56.5"/>
<text text-anchor="middle" x="575.5" y="-63.5" font-family="Helvetica,sans-Serif" font-size="10.00">rmvl/core/util.hpp</text>
</a>
</g>
</g>
<!-- Node11&#45;&gt;Node12 -->
<g id="edge11" class="edge">
<title>Node11&#45;&gt;Node12</title>
<path fill="none" stroke="midnightblue" d="M552.12,-112.08C555.96,-104.69 561.52,-93.95 566.26,-84.81"/>
<polygon fill="midnightblue" stroke="midnightblue" points="569.47,-86.24 570.96,-75.75 563.25,-83.02 569.47,-86.24"/>
</g>
<!-- Node13 -->
<g id="node13" class="node">
<title>Node13</title>
<g id="a_node13"><a xlink:title=" ">
<polygon fill="white" stroke="#bfbfbf" points="631,-0.5 631,-19.5 764,-19.5 764,-0.5 631,-0.5"/>
<text text-anchor="middle" x="697.5" y="-7.5" font-family="Helvetica,sans-Serif" font-size="10.00">rmvl/rmvl_modules.hpp</text>
</a>
</g>
</g>
<!-- Node12&#45;&gt;Node13 -->
<g id="edge12" class="edge">
<title>Node12&#45;&gt;Node13</title>
<path fill="none" stroke="midnightblue" d="M594.83,-56.44C614.82,-47.6 646.24,-33.69 669.06,-23.59"/>
<polygon fill="midnightblue" stroke="midnightblue" points="670.53,-26.76 678.26,-19.52 667.7,-20.36 670.53,-26.76"/>
</g>
<!-- Node14 -->
<g id="node14" class="node">
<title>Node14</title>
<g id="a_node14"><a xlink:title=" ">
<polygon fill="white" stroke="#bfbfbf" points="473.5,-0.5 473.5,-19.5 519.5,-19.5 519.5,-0.5 473.5,-0.5"/>
<text text-anchor="middle" x="496.5" y="-7.5" font-family="Helvetica,sans-Serif" font-size="10.00">cstdio</text>
</a>
</g>
</g>
<!-- Node12&#45;&gt;Node14 -->
<g id="edge13" class="edge">
<title>Node12&#45;&gt;Node14</title>
<path fill="none" stroke="midnightblue" d="M562.81,-56.32C550.6,-47.98 531.92,-35.21 517.5,-25.35"/>
<polygon fill="midnightblue" stroke="midnightblue" points="519.39,-22.41 509.16,-19.65 515.44,-28.19 519.39,-22.41"/>
</g>
<!-- Node15 -->
<g id="node15" class="node">
<title>Node15</title>
<g id="a_node15"><a xlink:title=" ">
<polygon fill="white" stroke="#bfbfbf" points="796.5,-0.5 796.5,-19.5 840.5,-19.5 840.5,-0.5 796.5,-0.5"/>
<text text-anchor="middle" x="818.5" y="-7.5" font-family="Helvetica,sans-Serif" font-size="10.00">string</text>
</a>
</g>
</g>
<!-- Node12&#45;&gt;Node15 -->
<g id="edge14" class="edge">
<title>Node12&#45;&gt;Node15</title>
<path fill="none" stroke="midnightblue" d="M614,-56.44C661.58,-45.87 741.68,-28.07 786.2,-18.18"/>
<polygon fill="midnightblue" stroke="midnightblue" points="787.18,-21.55 796.18,-15.96 785.66,-14.71 787.18,-21.55"/>
</g>
<!-- Node16 -->
<g id="node16" class="node">
<title>Node16</title>
<g id="a_node16"><a xlink:href="../../db/d41/rmvldef_8hpp.html" target="_top" xlink:title=" ">
<polygon fill="white" stroke="black" points="538,-0.5 538,-19.5 613,-19.5 613,-0.5 538,-0.5"/>
<text text-anchor="middle" x="575.5" y="-7.5" font-family="Helvetica,sans-Serif" font-size="10.00">rmvldef.hpp</text>
</a>
</g>
</g>
<!-- Node12&#45;&gt;Node16 -->
<g id="edge15" class="edge">
<title>Node12&#45;&gt;Node16</title>
<path fill="none" stroke="midnightblue" d="M575.5,-56.08C575.5,-49.01 575.5,-38.86 575.5,-29.99"/>
<polygon fill="midnightblue" stroke="midnightblue" points="579,-29.75 575.5,-19.75 572,-29.75 579,-29.75"/>
</g>
<!-- Node18 -->
<g id="node18" class="node">
<title>Node18</title>
<g id="a_node18"><a xlink:title=" ">
<polygon fill="white" stroke="#bfbfbf" points="425,-112.5 425,-131.5 472,-131.5 472,-112.5 425,-112.5"/>
<text text-anchor="middle" x="448.5" y="-119.5" font-family="Helvetica,sans-Serif" font-size="10.00">cmath</text>
</a>
</g>
</g>
<!-- Node17&#45;&gt;Node18 -->
<g id="edge17" class="edge">
<title>Node17&#45;&gt;Node18</title>
<path fill="none" stroke="midnightblue" d="M427.63,-168.08C431.01,-160.77 435.92,-150.18 440.12,-141.1"/>
<polygon fill="midnightblue" stroke="midnightblue" points="443.42,-142.3 444.45,-131.75 437.07,-139.36 443.42,-142.3"/>
</g>
<!-- Node19 -->
<g id="node19" class="node">
<title>Node19</title>
<g id="a_node19"><a xlink:title=" ">
<polygon fill="white" stroke="#bfbfbf" points="193,-112.5 193,-131.5 286,-131.5 286,-112.5 193,-112.5"/>
<text text-anchor="middle" x="239.5" y="-119.5" font-family="Helvetica,sans-Serif" font-size="10.00">unordered_map</text>
</a>
</g>
</g>
<!-- Node17&#45;&gt;Node19 -->
<g id="edge18" class="edge">
<title>Node17&#45;&gt;Node19</title>
<path fill="none" stroke="midnightblue" d="M394.34,-168.44C362.99,-159.24 312.97,-144.56 278.3,-134.39"/>
<polygon fill="midnightblue" stroke="midnightblue" points="279.1,-130.97 268.52,-131.52 277.13,-137.69 279.1,-130.97"/>
</g>
<!-- Node20 -->
<g id="node20" class="node">
<title>Node20</title>
<g id="a_node20"><a xlink:title=" ">
<polygon fill="white" stroke="#bfbfbf" points="304,-112.5 304,-131.5 407,-131.5 407,-112.5 304,-112.5"/>
<text text-anchor="middle" x="355.5" y="-119.5" font-family="Helvetica,sans-Serif" font-size="10.00">opencv2/core.hpp</text>
</a>
</g>
</g>
<!-- Node17&#45;&gt;Node20 -->
<g id="edge19" class="edge">
<title>Node17&#45;&gt;Node20</title>
<path fill="none" stroke="midnightblue" d="M412.57,-168.32C402.33,-160.18 386.78,-147.84 374.5,-138.09"/>
<polygon fill="midnightblue" stroke="midnightblue" points="376.63,-135.31 366.62,-131.83 372.28,-140.79 376.63,-135.31"/>
</g>
<!-- Node21&#45;&gt;Node15 -->
<g id="edge21" class="edge">
<title>Node21&#45;&gt;Node15</title>
<path fill="none" stroke="midnightblue" d="M821.84,-56.08C821.32,-49.01 820.56,-38.86 819.91,-29.99"/>
<polygon fill="midnightblue" stroke="midnightblue" points="823.38,-29.47 819.15,-19.75 816.4,-29.98 823.38,-29.47"/>
</g>
<!-- Node22&#45;&gt;Node10 -->
<g id="edge23" class="edge">
<title>Node22&#45;&gt;Node10</title>
<path fill="none" stroke="midnightblue" d="M737.87,-224.27C735.29,-211.48 729.59,-187.11 720.5,-168 715.77,-158.06 708.96,-147.88 702.93,-139.73"/>
<polygon fill="midnightblue" stroke="midnightblue" points="705.69,-137.58 696.82,-131.78 700.14,-141.85 705.69,-137.58"/>
</g>
<!-- Node23&#45;&gt;Node10 -->
<g id="edge26" class="edge">
<title>Node23&#45;&gt;Node10</title>
<path fill="none" stroke="midnightblue" d="M604.86,-224.23C612.85,-211.4 628.67,-186.97 644.5,-168 653.17,-157.61 663.85,-146.86 672.63,-138.47"/>
<polygon fill="midnightblue" stroke="midnightblue" points="675.14,-140.91 680.04,-131.51 670.35,-135.8 675.14,-140.91"/>
</g>
<!-- Node24 -->
<g id="node24" class="node">
<title>Node24</title>
<g id="a_node24"><a xlink:title=" ">
<polygon fill="white" stroke="#bfbfbf" points="653.5,-168.5 653.5,-187.5 711.5,-187.5 711.5,-168.5 653.5,-168.5"/>
<text text-anchor="middle" x="682.5" y="-175.5" font-family="Helvetica,sans-Serif" font-size="10.00">memory</text>
</a>
</g>
</g>
<!-- Node23&#45;&gt;Node24 -->
<g id="edge25" class="edge">
<title>Node23&#45;&gt;Node24</title>
<path fill="none" stroke="midnightblue" d="M612.84,-224.32C625.66,-215.98 645.28,-203.21 660.44,-193.35"/>
<polygon fill="midnightblue" stroke="midnightblue" points="662.72,-196.04 669.2,-187.65 658.91,-190.17 662.72,-196.04"/>
</g>
</g>
</svg>
