<?xml version="1.0" encoding="UTF-8" standalone="no"?>
<!DOCTYPE svg PUBLIC "-//W3C//DTD SVG 1.1//EN"
 "http://www.w3.org/Graphics/SVG/1.1/DTD/svg11.dtd">
<!-- Generated by graphviz version 2.43.0 (0)
 -->
<!-- Title: rmvl/opcua/event.hpp Pages: 1 -->
<svg width="818pt" height="203pt"
 viewBox="0.00 0.00 817.50 203.00" xmlns="http://www.w3.org/2000/svg" xmlns:xlink="http://www.w3.org/1999/xlink">
<g id="graph0" class="graph" transform="scale(1 1) rotate(0) translate(4 199)">
<title>rmvl/opcua/event.hpp</title>
<!-- Node1 -->
<g id="Node000001" class="node">
<title>Node1</title>
<g id="a_Node000001"><a xlink:title="OPC UA 事件">
<polygon fill="#999999" stroke="#666666" points="541.5,-195 431.5,-195 431.5,-176 541.5,-176 541.5,-195"/>
<text text-anchor="middle" x="486.5" y="-183" font-family="Helvetica,sans-Serif" font-size="10.00">rmvl/opcua/event.hpp</text>
</a>
</g>
</g>
<!-- Node2 -->
<g id="Node000002" class="node">
<title>Node2</title>
<g id="a_Node000002"><a xlink:title=" ">
<polygon fill="#e0e0e0" stroke="#999999" points="461,-24.5 420,-24.5 420,-5.5 461,-5.5 461,-24.5"/>
<text text-anchor="middle" x="440.5" y="-12.5" font-family="Helvetica,sans-Serif" font-size="10.00">string</text>
</a>
</g>
</g>
<!-- Node1&#45;&gt;Node2 -->
<g id="edge1_Node000001_Node000002" class="edge">
<title>Node1&#45;&gt;Node2</title>
<g id="a_edge1_Node000001_Node000002"><a xlink:title=" ">
<path fill="none" stroke="#63b8ff" d="M490.48,-175.96C499.27,-155.77 518.25,-103.9 500.5,-66 493.35,-50.74 479,-38.51 466.12,-29.96"/>
<polygon fill="#63b8ff" stroke="#63b8ff" points="467.89,-26.94 457.55,-24.65 464.2,-32.89 467.89,-26.94"/>
</a>
</g>
</g>
<!-- Node3 -->
<g id="Node000003" class="node">
<title>Node3</title>
<g id="a_Node000003"><a xlink:title=" ">
<polygon fill="#e0e0e0" stroke="#999999" points="402,-24.5 319,-24.5 319,-5.5 402,-5.5 402,-24.5"/>
<text text-anchor="middle" x="360.5" y="-12.5" font-family="Helvetica,sans-Serif" font-size="10.00">unordered_map</text>
</a>
</g>
</g>
<!-- Node1&#45;&gt;Node3 -->
<g id="edge2_Node000001_Node000003" class="edge">
<title>Node1&#45;&gt;Node3</title>
<g id="a_edge2_Node000001_Node000003"><a xlink:title=" ">
<path fill="none" stroke="#63b8ff" d="M487.67,-175.71C489.99,-154.49 492.97,-99.77 467.5,-66 458.21,-53.68 422.85,-38.56 395.3,-28.2"/>
<polygon fill="#63b8ff" stroke="#63b8ff" points="396.15,-24.78 385.56,-24.61 393.73,-31.35 396.15,-24.78"/>
</a>
</g>
</g>
<!-- Node4 -->
<g id="Node000004" class="node">
<title>Node4</title>
<g id="a_Node000004"><a xlink:href="../../da/d0e/variable_8hpp.html" target="_top" xlink:title="变量（类型）">
<polygon fill="white" stroke="#666666" points="411,-140 342,-140 342,-121 411,-121 411,-140"/>
<text text-anchor="middle" x="376.5" y="-128" font-family="Helvetica,sans-Serif" font-size="10.00">variable.hpp</text>
</a>
</g>
</g>
<!-- Node1&#45;&gt;Node4 -->
<g id="edge3_Node000001_Node000004" class="edge">
<title>Node1&#45;&gt;Node4</title>
<g id="a_edge3_Node000001_Node000004"><a xlink:title=" ">
<path fill="none" stroke="#63b8ff" d="M468.83,-175.98C451.21,-167.5 423.92,-154.35 403.57,-144.54"/>
<polygon fill="#63b8ff" stroke="#63b8ff" points="405.02,-141.36 394.49,-140.17 401.98,-147.66 405.02,-141.36"/>
</a>
</g>
</g>
<!-- Node5 -->
<g id="Node000005" class="node">
<title>Node5</title>
<g id="a_Node000005"><a xlink:title=" ">
<polygon fill="#e0e0e0" stroke="#999999" points="268.5,-85 236.5,-85 236.5,-66 268.5,-66 268.5,-85"/>
<text text-anchor="middle" x="252.5" y="-73" font-family="Helvetica,sans-Serif" font-size="10.00">any</text>
</a>
</g>
</g>
<!-- Node4&#45;&gt;Node5 -->
<g id="edge4_Node000004_Node000005" class="edge">
<title>Node4&#45;&gt;Node5</title>
<g id="a_edge4_Node000004_Node000005"><a xlink:title=" ">
<path fill="none" stroke="#63b8ff" d="M356.58,-120.98C335.25,-111.87 301.35,-97.38 278.07,-87.43"/>
<polygon fill="#63b8ff" stroke="#63b8ff" points="279.38,-84.18 268.81,-83.47 276.63,-90.62 279.38,-84.18"/>
</a>
</g>
</g>
<!-- Node6 -->
<g id="Node000006" class="node">
<title>Node6</title>
<g id="a_Node000006"><a xlink:title=" ">
<polygon fill="#e0e0e0" stroke="#999999" points="338.5,-85 286.5,-85 286.5,-66 338.5,-66 338.5,-85"/>
<text text-anchor="middle" x="312.5" y="-73" font-family="Helvetica,sans-Serif" font-size="10.00">memory</text>
</a>
</g>
</g>
<!-- Node4&#45;&gt;Node6 -->
<g id="edge5_Node000004_Node000006" class="edge">
<title>Node4&#45;&gt;Node6</title>
<g id="a_edge5_Node000004_Node000006"><a xlink:title=" ">
<path fill="none" stroke="#63b8ff" d="M366.22,-120.98C356.66,-113.07 342.22,-101.11 330.72,-91.58"/>
<polygon fill="#63b8ff" stroke="#63b8ff" points="332.9,-88.85 322.97,-85.17 328.44,-94.24 332.9,-88.85"/>
</a>
</g>
</g>
<!-- Node7 -->
<g id="Node000007" class="node">
<title>Node7</title>
<g id="a_Node000007"><a xlink:title=" ">
<polygon fill="#e0e0e0" stroke="#999999" points="396.5,-85 356.5,-85 356.5,-66 396.5,-66 396.5,-85"/>
<text text-anchor="middle" x="376.5" y="-73" font-family="Helvetica,sans-Serif" font-size="10.00">utility</text>
</a>
</g>
</g>
<!-- Node4&#45;&gt;Node7 -->
<g id="edge6_Node000004_Node000007" class="edge">
<title>Node4&#45;&gt;Node7</title>
<g id="a_edge6_Node000004_Node000007"><a xlink:title=" ">
<path fill="none" stroke="#63b8ff" d="M376.5,-120.75C376.5,-113.8 376.5,-103.85 376.5,-95.13"/>
<polygon fill="#63b8ff" stroke="#63b8ff" points="380,-95.09 376.5,-85.09 373,-95.09 380,-95.09"/>
</a>
</g>
</g>
<!-- Node8 -->
<g id="Node000008" class="node">
<title>Node8</title>
<g id="a_Node000008"><a xlink:title=" ">
<polygon fill="#e0e0e0" stroke="#999999" points="458.5,-85 414.5,-85 414.5,-66 458.5,-66 458.5,-85"/>
<text text-anchor="middle" x="436.5" y="-73" font-family="Helvetica,sans-Serif" font-size="10.00">vector</text>
</a>
</g>
</g>
<!-- Node4&#45;&gt;Node8 -->
<g id="edge7_Node000004_Node000008" class="edge">
<title>Node4&#45;&gt;Node8</title>
<g id="a_edge7_Node000004_Node000008"><a xlink:title=" ">
<path fill="none" stroke="#63b8ff" d="M386.14,-120.98C395.01,-113.15 408.37,-101.34 419.11,-91.86"/>
<polygon fill="#63b8ff" stroke="#63b8ff" points="421.51,-94.41 426.68,-85.17 416.87,-89.17 421.51,-94.41"/>
</a>
</g>
</g>
<!-- Node9 -->
<g id="Node000009" class="node">
<title>Node9</title>
<g id="a_Node000009"><a xlink:href="../../d0/d3f/util_8hpp.html" target="_top" xlink:title=" ">
<polygon fill="white" stroke="#666666" points="664.5,-85 572.5,-85 572.5,-66 664.5,-66 664.5,-85"/>
<text text-anchor="middle" x="618.5" y="-73" font-family="Helvetica,sans-Serif" font-size="10.00">rmvl/core/util.hpp</text>
</a>
</g>
</g>
<!-- Node4&#45;&gt;Node9 -->
<g id="edge8_Node000004_Node000009" class="edge">
<title>Node4&#45;&gt;Node9</title>
<g id="a_edge8_Node000004_Node000009"><a xlink:title=" ">
<path fill="none" stroke="#63b8ff" d="M411.17,-121.91C452.69,-112.81 522.51,-97.52 569.52,-87.23"/>
<polygon fill="#63b8ff" stroke="#63b8ff" points="570.46,-90.6 579.48,-85.05 568.96,-83.77 570.46,-90.6"/>
</a>
</g>
</g>
<!-- Node14 -->
<g id="Node000014" class="node">
<title>Node14</title>
<g id="a_Node000014"><a xlink:href="../../dc/d5f/utilities_8hpp.html" target="_top" xlink:title=" ">
<polygon fill="white" stroke="#666666" points="218.5,-85 152.5,-85 152.5,-66 218.5,-66 218.5,-85"/>
<text text-anchor="middle" x="185.5" y="-73" font-family="Helvetica,sans-Serif" font-size="10.00">utilities.hpp</text>
</a>
</g>
</g>
<!-- Node4&#45;&gt;Node14 -->
<g id="edge14_Node000004_Node000014" class="edge">
<title>Node4&#45;&gt;Node14</title>
<g id="a_edge14_Node000004_Node000014"><a xlink:title=" ">
<path fill="none" stroke="#63b8ff" d="M345.81,-120.98C313.33,-111.97 261.9,-97.7 226.09,-87.76"/>
<polygon fill="#63b8ff" stroke="#63b8ff" points="227,-84.38 216.43,-85.08 225.13,-91.13 227,-84.38"/>
</a>
</g>
</g>
<!-- Node9&#45;&gt;Node2 -->
<g id="edge12_Node000009_Node000002" class="edge">
<title>Node9&#45;&gt;Node2</title>
<g id="a_edge12_Node000009_Node000002"><a xlink:title=" ">
<path fill="none" stroke="#63b8ff" d="M585.12,-65.95C554.82,-57.84 509.11,-44.72 470.5,-30 469.45,-29.6 468.39,-29.18 467.32,-28.75"/>
<polygon fill="#63b8ff" stroke="#63b8ff" points="468.33,-25.37 457.77,-24.58 465.53,-31.78 468.33,-25.37"/>
</a>
</g>
</g>
<!-- Node10 -->
<g id="Node000010" class="node">
<title>Node10</title>
<g id="a_Node000010"><a xlink:title=" ">
<polygon fill="#e0e0e0" stroke="#999999" points="597.5,-24.5 479.5,-24.5 479.5,-5.5 597.5,-5.5 597.5,-24.5"/>
<text text-anchor="middle" x="538.5" y="-12.5" font-family="Helvetica,sans-Serif" font-size="10.00">rmvl/rmvl_modules.hpp</text>
</a>
</g>
</g>
<!-- Node9&#45;&gt;Node10 -->
<g id="edge9_Node000009_Node000010" class="edge">
<title>Node9&#45;&gt;Node10</title>
<g id="a_edge9_Node000009_Node000010"><a xlink:title=" ">
<path fill="none" stroke="#63b8ff" d="M606.7,-65.87C594.05,-56.62 573.76,-41.78 558.59,-30.69"/>
<polygon fill="#63b8ff" stroke="#63b8ff" points="560.49,-27.74 550.35,-24.67 556.36,-33.4 560.49,-27.74"/>
</a>
</g>
</g>
<!-- Node11 -->
<g id="Node000011" class="node">
<title>Node11</title>
<g id="a_Node000011"><a xlink:title=" ">
<polygon fill="#e0e0e0" stroke="#999999" points="661.5,-24.5 615.5,-24.5 615.5,-5.5 661.5,-5.5 661.5,-24.5"/>
<text text-anchor="middle" x="638.5" y="-12.5" font-family="Helvetica,sans-Serif" font-size="10.00">cstdint</text>
</a>
</g>
</g>
<!-- Node9&#45;&gt;Node11 -->
<g id="edge10_Node000009_Node000011" class="edge">
<title>Node9&#45;&gt;Node11</title>
<g id="a_edge10_Node000009_Node000011"><a xlink:title=" ">
<path fill="none" stroke="#63b8ff" d="M621.45,-65.87C624.29,-57.57 628.66,-44.78 632.27,-34.22"/>
<polygon fill="#63b8ff" stroke="#63b8ff" points="635.61,-35.26 635.54,-24.67 628.99,-33 635.61,-35.26"/>
</a>
</g>
</g>
<!-- Node12 -->
<g id="Node000012" class="node">
<title>Node12</title>
<g id="a_Node000012"><a xlink:title=" ">
<polygon fill="#e0e0e0" stroke="#999999" points="723,-24.5 680,-24.5 680,-5.5 723,-5.5 723,-24.5"/>
<text text-anchor="middle" x="701.5" y="-12.5" font-family="Helvetica,sans-Serif" font-size="10.00">cstdio</text>
</a>
</g>
</g>
<!-- Node9&#45;&gt;Node12 -->
<g id="edge11_Node000009_Node000012" class="edge">
<title>Node9&#45;&gt;Node12</title>
<g id="a_edge11_Node000009_Node000012"><a xlink:title=" ">
<path fill="none" stroke="#63b8ff" d="M630.75,-65.87C643.86,-56.62 664.92,-41.78 680.65,-30.69"/>
<polygon fill="#63b8ff" stroke="#63b8ff" points="683.05,-33.29 689.2,-24.67 679.01,-27.57 683.05,-33.29"/>
</a>
</g>
</g>
<!-- Node13 -->
<g id="Node000013" class="node">
<title>Node13</title>
<g id="a_Node000013"><a xlink:href="../../db/d41/rmvldef_8hpp.html" target="_top" xlink:title=" ">
<polygon fill="white" stroke="#666666" points="809.5,-24.5 741.5,-24.5 741.5,-5.5 809.5,-5.5 809.5,-24.5"/>
<text text-anchor="middle" x="775.5" y="-12.5" font-family="Helvetica,sans-Serif" font-size="10.00">rmvldef.hpp</text>
</a>
</g>
</g>
<!-- Node9&#45;&gt;Node13 -->
<g id="edge13_Node000009_Node000013" class="edge">
<title>Node9&#45;&gt;Node13</title>
<g id="a_edge13_Node000009_Node000013"><a xlink:title=" ">
<path fill="none" stroke="#63b8ff" d="M641.33,-65.99C668.07,-56.03 712.58,-39.45 742.94,-28.13"/>
<polygon fill="#63b8ff" stroke="#63b8ff" points="744.49,-31.29 752.64,-24.52 742.05,-24.73 744.49,-31.29"/>
</a>
</g>
</g>
<!-- Node14&#45;&gt;Node2 -->
<g id="edge15_Node000014_Node000002" class="edge">
<title>Node14&#45;&gt;Node2</title>
<g id="a_edge15_Node000014_Node000002"><a xlink:title=" ">
<path fill="none" stroke="#63b8ff" d="M218.51,-67.8C221.55,-67.19 224.58,-66.58 227.5,-66 308.79,-49.78 331.7,-55.72 410.5,-30 411.9,-29.54 413.32,-29.04 414.74,-28.5"/>
<polygon fill="#63b8ff" stroke="#63b8ff" points="416.13,-31.71 423.97,-24.58 413.4,-25.27 416.13,-31.71"/>
</a>
</g>
</g>
<!-- Node14&#45;&gt;Node3 -->
<g id="edge18_Node000014_Node000003" class="edge">
<title>Node14&#45;&gt;Node3</title>
<g id="a_edge18_Node000014_Node000003"><a xlink:title=" ">
<path fill="none" stroke="#63b8ff" d="M210.95,-65.99C241.14,-55.9 291.66,-39.01 325.52,-27.69"/>
<polygon fill="#63b8ff" stroke="#63b8ff" points="326.65,-31.01 335.02,-24.52 324.43,-24.37 326.65,-31.01"/>
</a>
</g>
</g>
<!-- Node15 -->
<g id="Node000015" class="node">
<title>Node15</title>
<g id="a_Node000015"><a xlink:title=" ">
<polygon fill="#e0e0e0" stroke="#999999" points="300.5,-24.5 234.5,-24.5 234.5,-5.5 300.5,-5.5 300.5,-24.5"/>
<text text-anchor="middle" x="267.5" y="-12.5" font-family="Helvetica,sans-Serif" font-size="10.00">string_view</text>
</a>
</g>
</g>
<!-- Node14&#45;&gt;Node15 -->
<g id="edge16_Node000014_Node000015" class="edge">
<title>Node14&#45;&gt;Node15</title>
<g id="a_edge16_Node000014_Node000015"><a xlink:title=" ">
<path fill="none" stroke="#63b8ff" d="M197.6,-65.87C210.56,-56.62 231.36,-41.78 246.9,-30.69"/>
<polygon fill="#63b8ff" stroke="#63b8ff" points="249.24,-33.32 255.35,-24.67 245.18,-27.63 249.24,-33.32"/>
</a>
</g>
</g>
<!-- Node16 -->
<g id="Node000016" class="node">
<title>Node16</title>
<g id="a_Node000016"><a xlink:title=" ">
<polygon fill="#e0e0e0" stroke="#999999" points="59,-24.5 0,-24.5 0,-5.5 59,-5.5 59,-24.5"/>
<text text-anchor="middle" x="29.5" y="-12.5" font-family="Helvetica,sans-Serif" font-size="10.00">typeindex</text>
</a>
</g>
</g>
<!-- Node14&#45;&gt;Node16 -->
<g id="edge17_Node000014_Node000016" class="edge">
<title>Node14&#45;&gt;Node16</title>
<g id="a_edge17_Node000014_Node000016"><a xlink:title=" ">
<path fill="none" stroke="#63b8ff" d="M162.82,-65.99C136.24,-56.03 92.02,-39.45 61.86,-28.13"/>
<polygon fill="#63b8ff" stroke="#63b8ff" points="62.8,-24.75 52.21,-24.52 60.35,-31.31 62.8,-24.75"/>
</a>
</g>
</g>
<!-- Node17 -->
<g id="Node000017" class="node">
<title>Node17</title>
<g id="a_Node000017"><a xlink:title=" ">
<polygon fill="#e0e0e0" stroke="#999999" points="216,-30 77,-30 77,0 216,0 216,-30"/>
<text text-anchor="start" x="85" y="-18" font-family="Helvetica,sans-Serif" font-size="10.00">open62541/types_generated</text>
<text text-anchor="middle" x="146.5" y="-7" font-family="Helvetica,sans-Serif" font-size="10.00">_handling.h</text>
</a>
</g>
</g>
<!-- Node14&#45;&gt;Node17 -->
<g id="edge19_Node000014_Node000017" class="edge">
<title>Node14&#45;&gt;Node17</title>
<g id="a_edge19_Node000014_Node000017"><a xlink:title=" ">
<path fill="none" stroke="#63b8ff" d="M179.75,-65.87C174.94,-58.67 167.88,-48.07 161.5,-38.49"/>
<polygon fill="#63b8ff" stroke="#63b8ff" points="164.37,-36.49 155.91,-30.11 158.54,-40.38 164.37,-36.49"/>
</a>
</g>
</g>
</g>
</svg>
