<?xml version="1.0" encoding="UTF-8" standalone="no"?>
<!DOCTYPE svg PUBLIC "-//W3C//DTD SVG 1.1//EN"
 "http://www.w3.org/Graphics/SVG/1.1/DTD/svg11.dtd">
<!-- Generated by graphviz version 2.43.0 (0)
 -->
<!-- Title: rmvl/detector.hpp Pages: 1 -->
<svg width="861pt" height="532pt"
 viewBox="0.00 0.00 861.03 532.00" xmlns="http://www.w3.org/2000/svg" xmlns:xlink="http://www.w3.org/1999/xlink">
<g id="graph0" class="graph" transform="scale(1 1) rotate(0) translate(4 528)">
<title>rmvl/detector.hpp</title>
<polygon fill="white" stroke="transparent" points="-4,4 -4,-528 857.03,-528 857.03,4 -4,4"/>
<!-- Node1 -->
<g id="node1" class="node">
<title>Node1</title>
<g id="a_node1"><a xlink:title=" ">
<polygon fill="#bfbfbf" stroke="black" points="45,-504.5 45,-523.5 148,-523.5 148,-504.5 45,-504.5"/>
<text text-anchor="middle" x="96.5" y="-511.5" font-family="Helvetica,sans-Serif" font-size="10.00">rmvl/detector.hpp</text>
</a>
</g>
</g>
<!-- Node2 -->
<g id="node2" class="node">
<title>Node2</title>
<g id="a_node2"><a xlink:title=" ">
<polygon fill="white" stroke="#bfbfbf" points="0,-0.5 0,-19.5 133,-19.5 133,-0.5 0,-0.5"/>
<text text-anchor="middle" x="66.5" y="-7.5" font-family="Helvetica,sans-Serif" font-size="10.00">rmvl/rmvl_modules.hpp</text>
</a>
</g>
</g>
<!-- Node1&#45;&gt;Node2 -->
<g id="edge1" class="edge">
<title>Node1&#45;&gt;Node2</title>
<path fill="none" stroke="midnightblue" d="M89.96,-504.41C77.05,-486.56 49.5,-443.7 49.5,-403 49.5,-403 49.5,-403 49.5,-121 49.5,-88.58 56.8,-51.42 61.83,-29.64"/>
<polygon fill="midnightblue" stroke="midnightblue" points="65.27,-30.31 64.21,-19.77 58.47,-28.67 65.27,-30.31"/>
</g>
<!-- Node3 -->
<g id="node3" class="node">
<title>Node3</title>
<g id="a_node3"><a xlink:href="../../d5/d9f/detector_8h.html" target="_top" xlink:title="抽象识别类头文件">
<polygon fill="white" stroke="black" points="90,-448.5 90,-467.5 199,-467.5 199,-448.5 90,-448.5"/>
<text text-anchor="middle" x="144.5" y="-455.5" font-family="Helvetica,sans-Serif" font-size="10.00">detector/detector.h</text>
</a>
</g>
</g>
<!-- Node1&#45;&gt;Node3 -->
<g id="edge2" class="edge">
<title>Node1&#45;&gt;Node3</title>
<path fill="none" stroke="midnightblue" d="M104.43,-504.08C111.35,-496.3 121.57,-484.8 129.95,-475.37"/>
<polygon fill="midnightblue" stroke="midnightblue" points="132.69,-477.55 136.72,-467.75 127.46,-472.9 132.69,-477.55"/>
</g>
<!-- Node4 -->
<g id="node4" class="node">
<title>Node4</title>
<g id="a_node4"><a xlink:href="../../d9/dd1/group_8h.html" target="_top" xlink:title="序列组抽象头文件">
<polygon fill="white" stroke="black" points="230.5,-392.5 230.5,-411.5 340.5,-411.5 340.5,-392.5 230.5,-392.5"/>
<text text-anchor="middle" x="285.5" y="-399.5" font-family="Helvetica,sans-Serif" font-size="10.00">rmvl/group/group.h</text>
</a>
</g>
</g>
<!-- Node3&#45;&gt;Node4 -->
<g id="edge3" class="edge">
<title>Node3&#45;&gt;Node4</title>
<path fill="none" stroke="midnightblue" d="M166.84,-448.44C190.25,-439.48 227.24,-425.31 253.69,-415.18"/>
<polygon fill="midnightblue" stroke="midnightblue" points="255.18,-418.36 263.26,-411.52 252.67,-411.82 255.18,-418.36"/>
</g>
<!-- Node27 -->
<g id="node27" class="node">
<title>Node27</title>
<g id="a_node27"><a xlink:href="../../df/d4b/pretreat_8h.html" target="_top" xlink:title="Header of the image pretreating module">
<polygon fill="white" stroke="black" points="78,-392.5 78,-411.5 211,-411.5 211,-392.5 78,-392.5"/>
<text text-anchor="middle" x="144.5" y="-399.5" font-family="Helvetica,sans-Serif" font-size="10.00">rmvl/imgproc/pretreat.h</text>
</a>
</g>
</g>
<!-- Node3&#45;&gt;Node27 -->
<g id="edge30" class="edge">
<title>Node3&#45;&gt;Node27</title>
<path fill="none" stroke="midnightblue" d="M144.5,-448.08C144.5,-441.01 144.5,-430.86 144.5,-421.99"/>
<polygon fill="midnightblue" stroke="midnightblue" points="148,-421.75 144.5,-411.75 141,-421.75 148,-421.75"/>
</g>
<!-- Node5 -->
<g id="node5" class="node">
<title>Node5</title>
<g id="a_node5"><a xlink:href="../../dc/ded/tracker_8h.html" target="_top" xlink:title="追踪器抽象头文件">
<polygon fill="white" stroke="black" points="225,-336.5 225,-355.5 346,-355.5 346,-336.5 225,-336.5"/>
<text text-anchor="middle" x="285.5" y="-343.5" font-family="Helvetica,sans-Serif" font-size="10.00">rmvl/tracker/tracker.h</text>
</a>
</g>
</g>
<!-- Node4&#45;&gt;Node5 -->
<g id="edge4" class="edge">
<title>Node4&#45;&gt;Node5</title>
<path fill="none" stroke="midnightblue" d="M285.5,-392.08C285.5,-385.01 285.5,-374.86 285.5,-365.99"/>
<polygon fill="midnightblue" stroke="midnightblue" points="289,-365.75 285.5,-355.75 282,-365.75 289,-365.75"/>
</g>
<!-- Node6 -->
<g id="node6" class="node">
<title>Node6</title>
<g id="a_node6"><a xlink:title=" ">
<polygon fill="white" stroke="#bfbfbf" points="359,-280.5 359,-299.5 406,-299.5 406,-280.5 359,-280.5"/>
<text text-anchor="middle" x="382.5" y="-287.5" font-family="Helvetica,sans-Serif" font-size="10.00">deque</text>
</a>
</g>
</g>
<!-- Node5&#45;&gt;Node6 -->
<g id="edge5" class="edge">
<title>Node5&#45;&gt;Node6</title>
<path fill="none" stroke="midnightblue" d="M301.08,-336.32C316.5,-327.74 340.31,-314.49 358.21,-304.52"/>
<polygon fill="midnightblue" stroke="midnightblue" points="359.92,-307.58 366.95,-299.65 356.51,-301.46 359.92,-307.58"/>
</g>
<!-- Node7 -->
<g id="node7" class="node">
<title>Node7</title>
<g id="a_node7"><a xlink:href="../../d8/d36/combo_8h.html" target="_top" xlink:title="the combination of the features header file">
<polygon fill="white" stroke="black" points="220.5,-280.5 220.5,-299.5 340.5,-299.5 340.5,-280.5 220.5,-280.5"/>
<text text-anchor="middle" x="280.5" y="-287.5" font-family="Helvetica,sans-Serif" font-size="10.00">rmvl/combo/combo.h</text>
</a>
</g>
</g>
<!-- Node5&#45;&gt;Node7 -->
<g id="edge6" class="edge">
<title>Node5&#45;&gt;Node7</title>
<path fill="none" stroke="midnightblue" d="M284.67,-336.08C284.02,-329.01 283.08,-318.86 282.26,-309.99"/>
<polygon fill="midnightblue" stroke="midnightblue" points="285.72,-309.39 281.31,-299.75 278.75,-310.03 285.72,-309.39"/>
</g>
<!-- Node8 -->
<g id="node8" class="node">
<title>Node8</title>
<g id="a_node8"><a xlink:href="../../da/d8d/result__pnp_8hpp.html" target="_top" xlink:title="PnP数据">
<polygon fill="white" stroke="black" points="400.5,-224.5 400.5,-243.5 546.5,-243.5 546.5,-224.5 400.5,-224.5"/>
<text text-anchor="middle" x="473.5" y="-231.5" font-family="Helvetica,sans-Serif" font-size="10.00">rmvl/rmath/result_pnp.hpp</text>
</a>
</g>
</g>
<!-- Node7&#45;&gt;Node8 -->
<g id="edge7" class="edge">
<title>Node7&#45;&gt;Node8</title>
<path fill="none" stroke="midnightblue" d="M311.08,-280.44C344.11,-271.2 396.89,-256.44 433.27,-246.26"/>
<polygon fill="midnightblue" stroke="midnightblue" points="434.37,-249.58 443.06,-243.52 432.49,-242.84 434.37,-249.58"/>
</g>
<!-- Node23 -->
<g id="node23" class="node">
<title>Node23</title>
<g id="a_node23"><a xlink:href="../../dd/de3/types_8hpp.html" target="_top" xlink:title="常用状态类型定义">
<polygon fill="white" stroke="black" points="397.5,-56.5 397.5,-75.5 487.5,-75.5 487.5,-56.5 397.5,-56.5"/>
<text text-anchor="middle" x="442.5" y="-63.5" font-family="Helvetica,sans-Serif" font-size="10.00">rmvl/types.hpp</text>
</a>
</g>
</g>
<!-- Node7&#45;&gt;Node23 -->
<g id="edge23" class="edge">
<title>Node7&#45;&gt;Node23</title>
<path fill="none" stroke="midnightblue" d="M338.81,-280.47C478.25,-259.8 820.66,-207.31 836.5,-188 857.92,-161.89 858.99,-137.2 836.5,-112 814.34,-87.17 600.88,-74.18 497.75,-69.3"/>
<polygon fill="midnightblue" stroke="midnightblue" points="497.67,-65.8 487.52,-68.83 497.35,-72.79 497.67,-65.8"/>
</g>
<!-- Node24 -->
<g id="node24" class="node">
<title>Node24</title>
<g id="a_node24"><a xlink:href="../../d5/d60/dataio_8hpp.html" target="_top" xlink:title="陀螺仪数据">
<polygon fill="white" stroke="black" points="77.5,-224.5 77.5,-243.5 195.5,-243.5 195.5,-224.5 77.5,-224.5"/>
<text text-anchor="middle" x="136.5" y="-231.5" font-family="Helvetica,sans-Serif" font-size="10.00">rmvl/core/dataio.hpp</text>
</a>
</g>
</g>
<!-- Node7&#45;&gt;Node24 -->
<g id="edge25" class="edge">
<title>Node7&#45;&gt;Node24</title>
<path fill="none" stroke="midnightblue" d="M257.68,-280.44C233.67,-271.44 195.67,-257.19 168.63,-247.05"/>
<polygon fill="midnightblue" stroke="midnightblue" points="169.8,-243.75 159.21,-243.52 167.34,-250.3 169.8,-243.75"/>
</g>
<!-- Node25 -->
<g id="node25" class="node">
<title>Node25</title>
<g id="a_node25"><a xlink:href="../../d2/d74/feature_8h.html" target="_top" xlink:title="feature class header">
<polygon fill="white" stroke="black" points="214,-224.5 214,-243.5 339,-243.5 339,-224.5 214,-224.5"/>
<text text-anchor="middle" x="276.5" y="-231.5" font-family="Helvetica,sans-Serif" font-size="10.00">rmvl/feature/feature.h</text>
</a>
</g>
</g>
<!-- Node7&#45;&gt;Node25 -->
<g id="edge27" class="edge">
<title>Node7&#45;&gt;Node25</title>
<path fill="none" stroke="midnightblue" d="M279.84,-280.08C279.32,-273.01 278.56,-262.86 277.91,-253.99"/>
<polygon fill="midnightblue" stroke="midnightblue" points="281.38,-253.47 277.15,-243.75 274.4,-253.98 281.38,-253.47"/>
</g>
<!-- Node9 -->
<g id="node9" class="node">
<title>Node9</title>
<g id="a_node9"><a xlink:title=" ">
<polygon fill="white" stroke="#bfbfbf" points="362,-168.5 362,-187.5 439,-187.5 439,-168.5 362,-168.5"/>
<text text-anchor="middle" x="400.5" y="-175.5" font-family="Helvetica,sans-Serif" font-size="10.00">Eigen/Dense</text>
</a>
</g>
</g>
<!-- Node8&#45;&gt;Node9 -->
<g id="edge8" class="edge">
<title>Node8&#45;&gt;Node9</title>
<path fill="none" stroke="midnightblue" d="M461.77,-224.32C450.66,-216.11 433.76,-203.6 420.52,-193.81"/>
<polygon fill="midnightblue" stroke="midnightblue" points="422.56,-190.97 412.44,-187.83 418.4,-196.59 422.56,-190.97"/>
</g>
<!-- Node10 -->
<g id="node10" class="node">
<title>Node10</title>
<g id="a_node10"><a xlink:title=" ">
<polygon fill="white" stroke="#bfbfbf" points="457,-168.5 457,-187.5 574,-187.5 574,-168.5 457,-168.5"/>
<text text-anchor="middle" x="515.5" y="-175.5" font-family="Helvetica,sans-Serif" font-size="10.00">opencv2/calib3d.hpp</text>
</a>
</g>
</g>
<!-- Node8&#45;&gt;Node10 -->
<g id="edge9" class="edge">
<title>Node8&#45;&gt;Node10</title>
<path fill="none" stroke="midnightblue" d="M480.44,-224.08C486.43,-216.38 495.25,-205.03 502.55,-195.65"/>
<polygon fill="midnightblue" stroke="midnightblue" points="505.32,-197.79 508.69,-187.75 499.79,-193.5 505.32,-197.79"/>
</g>
<!-- Node11 -->
<g id="node11" class="node">
<title>Node11</title>
<g id="a_node11"><a xlink:title=" ">
<polygon fill="white" stroke="#bfbfbf" points="592,-168.5 592,-187.5 725,-187.5 725,-168.5 592,-168.5"/>
<text text-anchor="middle" x="658.5" y="-175.5" font-family="Helvetica,sans-Serif" font-size="10.00">opencv2/core/eigen.hpp</text>
</a>
</g>
</g>
<!-- Node8&#45;&gt;Node11 -->
<g id="edge10" class="edge">
<title>Node8&#45;&gt;Node11</title>
<path fill="none" stroke="midnightblue" d="M502.81,-224.44C534.34,-215.24 584.63,-200.56 619.49,-190.39"/>
<polygon fill="midnightblue" stroke="midnightblue" points="620.7,-193.68 629.32,-187.52 618.74,-186.96 620.7,-193.68"/>
</g>
<!-- Node12 -->
<g id="node12" class="node">
<title>Node12</title>
<g id="a_node12"><a xlink:href="../../d8/d7e/rmvlpara_2rmath_8hpp.html" target="_top" xlink:title="RmathParam module header file (Generated by CMake automatically)">
<polygon fill="white" stroke="black" points="229.5,-168.5 229.5,-187.5 343.5,-187.5 343.5,-168.5 229.5,-168.5"/>
<text text-anchor="middle" x="286.5" y="-175.5" font-family="Helvetica,sans-Serif" font-size="10.00">rmvlpara/rmath.hpp</text>
</a>
</g>
</g>
<!-- Node8&#45;&gt;Node12 -->
<g id="edge11" class="edge">
<title>Node8&#45;&gt;Node12</title>
<path fill="none" stroke="midnightblue" d="M443.87,-224.44C412,-215.24 361.17,-200.56 325.94,-190.39"/>
<polygon fill="midnightblue" stroke="midnightblue" points="326.57,-186.93 315.99,-187.52 324.63,-193.65 326.57,-186.93"/>
</g>
<!-- Node19 -->
<g id="node19" class="node">
<title>Node19</title>
<g id="a_node19"><a xlink:href="../../dc/d71/uty__math_8hpp.html" target="_top" xlink:title=" ">
<polygon fill="white" stroke="black" points="743.5,-168.5 743.5,-187.5 827.5,-187.5 827.5,-168.5 743.5,-168.5"/>
<text text-anchor="middle" x="785.5" y="-175.5" font-family="Helvetica,sans-Serif" font-size="10.00">uty_math.hpp</text>
</a>
</g>
</g>
<!-- Node8&#45;&gt;Node19 -->
<g id="edge19" class="edge">
<title>Node8&#45;&gt;Node19</title>
<path fill="none" stroke="midnightblue" d="M523.55,-224.43C573.94,-215.79 654.2,-201.99 733.33,-188.2"/>
<polygon fill="midnightblue" stroke="midnightblue" points="734.23,-191.6 743.48,-186.43 733.02,-184.7 734.23,-191.6"/>
</g>
<!-- Node13 -->
<g id="node13" class="node">
<title>Node13</title>
<g id="a_node13"><a xlink:title=" ">
<polygon fill="white" stroke="#bfbfbf" points="106,-112.5 106,-131.5 239,-131.5 239,-112.5 106,-112.5"/>
<text text-anchor="middle" x="172.5" y="-119.5" font-family="Helvetica,sans-Serif" font-size="10.00">opencv2/core/types.hpp</text>
</a>
</g>
</g>
<!-- Node12&#45;&gt;Node13 -->
<g id="edge12" class="edge">
<title>Node12&#45;&gt;Node13</title>
<path fill="none" stroke="midnightblue" d="M268.44,-168.44C249.93,-159.68 220.92,-145.94 199.64,-135.86"/>
<polygon fill="midnightblue" stroke="midnightblue" points="201.01,-132.63 190.48,-131.52 198.02,-138.96 201.01,-132.63"/>
</g>
<!-- Node14 -->
<g id="node14" class="node">
<title>Node14</title>
<g id="a_node14"><a xlink:href="../../d2/d8f/loader_8hpp.html" target="_top" xlink:title=" ">
<polygon fill="white" stroke="black" points="257,-112.5 257,-131.5 372,-131.5 372,-112.5 257,-112.5"/>
<text text-anchor="middle" x="314.5" y="-119.5" font-family="Helvetica,sans-Serif" font-size="10.00">rmvlpara/loader.hpp</text>
</a>
</g>
</g>
<!-- Node12&#45;&gt;Node14 -->
<g id="edge13" class="edge">
<title>Node12&#45;&gt;Node14</title>
<path fill="none" stroke="midnightblue" d="M291.12,-168.08C294.96,-160.69 300.52,-149.95 305.26,-140.81"/>
<polygon fill="midnightblue" stroke="midnightblue" points="308.47,-142.24 309.96,-131.75 302.25,-139.02 308.47,-142.24"/>
</g>
<!-- Node15 -->
<g id="node15" class="node">
<title>Node15</title>
<g id="a_node15"><a xlink:href="../../d0/d3f/util_8hpp.html" target="_top" xlink:title=" ">
<polygon fill="white" stroke="black" points="263,-56.5 263,-75.5 366,-75.5 366,-56.5 263,-56.5"/>
<text text-anchor="middle" x="314.5" y="-63.5" font-family="Helvetica,sans-Serif" font-size="10.00">rmvl/core/util.hpp</text>
</a>
</g>
</g>
<!-- Node14&#45;&gt;Node15 -->
<g id="edge14" class="edge">
<title>Node14&#45;&gt;Node15</title>
<path fill="none" stroke="midnightblue" d="M314.5,-112.08C314.5,-105.01 314.5,-94.86 314.5,-85.99"/>
<polygon fill="midnightblue" stroke="midnightblue" points="318,-85.75 314.5,-75.75 311,-85.75 318,-85.75"/>
</g>
<!-- Node15&#45;&gt;Node2 -->
<g id="edge15" class="edge">
<title>Node15&#45;&gt;Node2</title>
<path fill="none" stroke="midnightblue" d="M275.2,-56.44C231.94,-47.02 162.33,-31.87 115.53,-21.68"/>
<polygon fill="midnightblue" stroke="midnightblue" points="116.13,-18.22 105.61,-19.52 114.64,-25.06 116.13,-18.22"/>
</g>
<!-- Node16 -->
<g id="node16" class="node">
<title>Node16</title>
<g id="a_node16"><a xlink:title=" ">
<polygon fill="white" stroke="#bfbfbf" points="308.5,-0.5 308.5,-19.5 354.5,-19.5 354.5,-0.5 308.5,-0.5"/>
<text text-anchor="middle" x="331.5" y="-7.5" font-family="Helvetica,sans-Serif" font-size="10.00">cstdio</text>
</a>
</g>
</g>
<!-- Node15&#45;&gt;Node16 -->
<g id="edge16" class="edge">
<title>Node15&#45;&gt;Node16</title>
<path fill="none" stroke="midnightblue" d="M317.31,-56.08C319.58,-48.85 322.87,-38.41 325.71,-29.4"/>
<polygon fill="midnightblue" stroke="midnightblue" points="329.08,-30.34 328.75,-19.75 322.4,-28.24 329.08,-30.34"/>
</g>
<!-- Node17 -->
<g id="node17" class="node">
<title>Node17</title>
<g id="a_node17"><a xlink:title=" ">
<polygon fill="white" stroke="#bfbfbf" points="404.5,-0.5 404.5,-19.5 448.5,-19.5 448.5,-0.5 404.5,-0.5"/>
<text text-anchor="middle" x="426.5" y="-7.5" font-family="Helvetica,sans-Serif" font-size="10.00">string</text>
</a>
</g>
</g>
<!-- Node15&#45;&gt;Node17 -->
<g id="edge17" class="edge">
<title>Node15&#45;&gt;Node17</title>
<path fill="none" stroke="midnightblue" d="M332.49,-56.32C350.54,-47.62 378.55,-34.12 399.3,-24.11"/>
<polygon fill="midnightblue" stroke="midnightblue" points="401.06,-27.15 408.55,-19.65 398.02,-20.84 401.06,-27.15"/>
</g>
<!-- Node18 -->
<g id="node18" class="node">
<title>Node18</title>
<g id="a_node18"><a xlink:href="../../db/d41/rmvldef_8hpp.html" target="_top" xlink:title=" ">
<polygon fill="white" stroke="black" points="215,-0.5 215,-19.5 290,-19.5 290,-0.5 215,-0.5"/>
<text text-anchor="middle" x="252.5" y="-7.5" font-family="Helvetica,sans-Serif" font-size="10.00">rmvldef.hpp</text>
</a>
</g>
</g>
<!-- Node15&#45;&gt;Node18 -->
<g id="edge18" class="edge">
<title>Node15&#45;&gt;Node18</title>
<path fill="none" stroke="midnightblue" d="M304.54,-56.32C295.37,-48.34 281.56,-36.31 270.47,-26.65"/>
<polygon fill="midnightblue" stroke="midnightblue" points="272.48,-23.76 262.64,-19.83 267.88,-29.04 272.48,-23.76"/>
</g>
<!-- Node20 -->
<g id="node20" class="node">
<title>Node20</title>
<g id="a_node20"><a xlink:title=" ">
<polygon fill="white" stroke="#bfbfbf" points="780,-112.5 780,-131.5 827,-131.5 827,-112.5 780,-112.5"/>
<text text-anchor="middle" x="803.5" y="-119.5" font-family="Helvetica,sans-Serif" font-size="10.00">cmath</text>
</a>
</g>
</g>
<!-- Node19&#45;&gt;Node20 -->
<g id="edge20" class="edge">
<title>Node19&#45;&gt;Node20</title>
<path fill="none" stroke="midnightblue" d="M788.47,-168.08C790.88,-160.85 794.36,-150.41 797.37,-141.4"/>
<polygon fill="midnightblue" stroke="midnightblue" points="800.74,-142.34 800.58,-131.75 794.1,-140.13 800.74,-142.34"/>
</g>
<!-- Node21 -->
<g id="node21" class="node">
<title>Node21</title>
<g id="a_node21"><a xlink:title=" ">
<polygon fill="white" stroke="#bfbfbf" points="548,-112.5 548,-131.5 641,-131.5 641,-112.5 548,-112.5"/>
<text text-anchor="middle" x="594.5" y="-119.5" font-family="Helvetica,sans-Serif" font-size="10.00">unordered_map</text>
</a>
</g>
</g>
<!-- Node19&#45;&gt;Node21 -->
<g id="edge21" class="edge">
<title>Node19&#45;&gt;Node21</title>
<path fill="none" stroke="midnightblue" d="M755.24,-168.44C722.54,-159.2 670.32,-144.44 634.32,-134.26"/>
<polygon fill="midnightblue" stroke="midnightblue" points="635.2,-130.87 624.62,-131.52 633.29,-137.61 635.2,-130.87"/>
</g>
<!-- Node22 -->
<g id="node22" class="node">
<title>Node22</title>
<g id="a_node22"><a xlink:title=" ">
<polygon fill="white" stroke="#bfbfbf" points="659,-112.5 659,-131.5 762,-131.5 762,-112.5 659,-112.5"/>
<text text-anchor="middle" x="710.5" y="-119.5" font-family="Helvetica,sans-Serif" font-size="10.00">opencv2/core.hpp</text>
</a>
</g>
</g>
<!-- Node19&#45;&gt;Node22 -->
<g id="edge22" class="edge">
<title>Node19&#45;&gt;Node22</title>
<path fill="none" stroke="midnightblue" d="M773.45,-168.32C762.04,-160.11 744.67,-147.6 731.07,-137.81"/>
<polygon fill="midnightblue" stroke="midnightblue" points="732.93,-134.84 722.77,-131.83 728.84,-140.52 732.93,-134.84"/>
</g>
<!-- Node23&#45;&gt;Node17 -->
<g id="edge24" class="edge">
<title>Node23&#45;&gt;Node17</title>
<path fill="none" stroke="midnightblue" d="M439.86,-56.08C437.71,-48.85 434.62,-38.41 431.95,-29.4"/>
<polygon fill="midnightblue" stroke="midnightblue" points="435.29,-28.34 429.09,-19.75 428.58,-30.33 435.29,-28.34"/>
</g>
<!-- Node24&#45;&gt;Node13 -->
<g id="edge26" class="edge">
<title>Node24&#45;&gt;Node13</title>
<path fill="none" stroke="midnightblue" d="M127.37,-224.44C115.12,-211.88 96.05,-187.78 106.5,-168 113.92,-153.95 127.92,-143.47 141.12,-136.17"/>
<polygon fill="midnightblue" stroke="midnightblue" points="142.72,-139.28 150.04,-131.62 139.54,-133.04 142.72,-139.28"/>
</g>
<!-- Node25&#45;&gt;Node13 -->
<g id="edge29" class="edge">
<title>Node25&#45;&gt;Node13</title>
<path fill="none" stroke="midnightblue" d="M263.71,-224.19C251.82,-215.68 233.97,-202.04 220.5,-188 206.13,-173.04 192.35,-153.67 183.27,-139.98"/>
<polygon fill="midnightblue" stroke="midnightblue" points="186.16,-138.02 177.78,-131.54 180.29,-141.83 186.16,-138.02"/>
</g>
<!-- Node26 -->
<g id="node26" class="node">
<title>Node26</title>
<g id="a_node26"><a xlink:title=" ">
<polygon fill="white" stroke="#bfbfbf" points="115.5,-168.5 115.5,-187.5 173.5,-187.5 173.5,-168.5 115.5,-168.5"/>
<text text-anchor="middle" x="144.5" y="-175.5" font-family="Helvetica,sans-Serif" font-size="10.00">memory</text>
</a>
</g>
</g>
<!-- Node25&#45;&gt;Node26 -->
<g id="edge28" class="edge">
<title>Node25&#45;&gt;Node26</title>
<path fill="none" stroke="midnightblue" d="M255.58,-224.44C233.76,-215.52 199.35,-201.44 174.61,-191.32"/>
<polygon fill="midnightblue" stroke="midnightblue" points="175.9,-188.06 165.32,-187.52 173.25,-194.54 175.9,-188.06"/>
</g>
<!-- Node28 -->
<g id="node28" class="node">
<title>Node28</title>
<g id="a_node28"><a xlink:title=" ">
<polygon fill="white" stroke="#bfbfbf" points="82,-336.5 82,-355.5 207,-355.5 207,-336.5 82,-336.5"/>
<text text-anchor="middle" x="144.5" y="-343.5" font-family="Helvetica,sans-Serif" font-size="10.00">opencv2/core/mat.hpp</text>
</a>
</g>
</g>
<!-- Node27&#45;&gt;Node28 -->
<g id="edge31" class="edge">
<title>Node27&#45;&gt;Node28</title>
<path fill="none" stroke="midnightblue" d="M144.5,-392.08C144.5,-385.01 144.5,-374.86 144.5,-365.99"/>
<polygon fill="midnightblue" stroke="midnightblue" points="148,-365.75 144.5,-355.75 141,-365.75 148,-365.75"/>
</g>
</g>
</svg>
