<?xml version="1.0" encoding="UTF-8" standalone="no"?>
<!DOCTYPE svg PUBLIC "-//W3C//DTD SVG 1.1//EN"
 "http://www.w3.org/Graphics/SVG/1.1/DTD/svg11.dtd">
<!-- Generated by graphviz version 14.1.2 (0)
 -->
<!-- Title: /home/zhaoxi/.rmvldev/rmvl/doc/tutorials/extra Pages: 1 -->
<!--zoomable 98 -->

<svg id="main" version="1.1" xmlns="http://www.w3.org/2000/svg" xmlns:xlink="http://www.w3.org/1999/xlink" xml:space="preserve" onload="init(evt)">

<style type="text/css"><![CDATA[
.node, .edge {opacity: 0.7;}
.node.selected, .edge.selected {opacity: 1;}
.edge:hover path { stroke: red; }
.edge:hover polygon { stroke: red; fill: red; }
]]></style>

<defs>
  <circle id="rim" cx="0" cy="0" r="7"/>
  <circle id="rim2" cx="0" cy="0" r="3.5"/>
  <g id="zoomPlus">
    <use xlink:href="#rim" fill="#404040"><set attributeName="fill" to="#808080" begin="zoomplus.mouseover" end="zoomplus.mouseout"/></use>
    <path d="M-4,0h8M0,-4v8" fill="none" stroke="white" stroke-width="1.5" pointer-events="none"/>
  </g>
  <g id="zoomMin">
    <use xlink:href="#rim" fill="#404040"><set attributeName="fill" to="#808080" begin="zoomminus.mouseover" end="zoomminus.mouseout"/></use>
    <path d="M-4,0h8" fill="none" stroke="white" stroke-width="1.5" pointer-events="none"/>
  </g>
  <g id="arrowUp" transform="translate(30 24)">
    <use xlink:href="#rim"/>
    <path pointer-events="none" fill="none" stroke="white" stroke-width="1.5" d="M0,-3.0v7 M-2.5,-0.5L0,-3.0L2.5,-0.5"/>
  </g>
  <g id="arrowRight" transform="rotate(90) translate(36 -43)">
    <use xlink:href="#rim"/>
    <path pointer-events="none" fill="none" stroke="white" stroke-width="1.5" d="M0,-3.0v7 M-2.5,-0.5L0,-3.0L2.5,-0.5"/>
  </g>
  <g id="arrowDown" transform="rotate(180) translate(-30 -48)">
    <use xlink:href="#rim"/>
    <path pointer-events="none" fill="none" stroke="white" stroke-width="1.5" d="M0,-3.0v7 M-2.5,-0.5L0,-3.0L2.5,-0.5"/>
  </g>
  <g id="arrowLeft" transform="rotate(270) translate(-36 17)">
    <use xlink:href="#rim"/>
    <path pointer-events="none" fill="none" stroke="white" stroke-width="1.5" d="M0,-3.0v7 M-2.5,-0.5L0,-3.0L2.5,-0.5"/>
  </g>
  <g id="resetDef">
    <use xlink:href="#rim2" fill="#404040"><set attributeName="fill" to="#808080" begin="reset.mouseover" end="reset.mouseout"/></use>
  </g>
</defs>
<script type="application/ecmascript">
var viewWidth = 746;
var viewHeight = 98;
var sectionId = 'dynsection-0';
</script>
<script type="application/ecmascript" xlink:href="svg.min.js"/>
<svg id="graph" class="graph">
<g id="viewport">
<title>/home/zhaoxi/.rmvldev/rmvl/doc/tutorials/extra</title>
<g id="clust1" class="cluster">
<title>clusterdir_5b0b179e83013be2ae877b5cea1eb6e2</title>
<g id="a_clust1"><a xlink:href="dir_5b0b179e83013be2ae877b5cea1eb6e2.html" target="_top" xlink:title="tutorials">
<polygon fill="#daedff" stroke="#7f7f7f" stroke-dasharray="5,2" points="8,-8 8,-81.5 730,-81.5 730,-8 8,-8"/>
<text xml:space="preserve" text-anchor="middle" x="369" y="-68" font-family="Helvetica,sans-Serif" font-size="10.00">tutorials</text>
</a>
</g>
</g>
<g id="clust2" class="cluster">
<title>clusterdir_426a5ffbbb727b99f4225294c6466649</title>
<g id="a_clust2"><a xlink:href="dir_426a5ffbbb727b99f4225294c6466649.html" target="_top">
<polygon fill="#daedff" stroke="#404040" stroke-width="2" points="16,-16 16,-52.75 722,-52.75 722,-16 16,-16"/>
</a>
</g>
</g>
<!-- dir_426a5ffbbb727b99f4225294c6466649 -->
<g id="node1" class="node">
<title>dir_426a5ffbbb727b99f4225294c6466649</title>
<text xml:space="preserve" text-anchor="middle" x="45" y="-31.25" font-family="Helvetica,sans-Serif" font-size="10.00">extra</text>
</g>
<!-- dir_e47bc4c88201119324ad1742b0acdaea -->
<g id="node2" class="node">
<title>dir_e47bc4c88201119324ad1742b0acdaea</title>
<g id="a_node2"><a xlink:href="dir_e47bc4c88201119324ad1742b0acdaea.html" target="_top" xlink:title="combo">
<polygon fill="#4ea9ff" stroke="#404040" points="132.5,-44.75 83.5,-44.75 83.5,-24 132.5,-24 132.5,-44.75"/>
<text xml:space="preserve" text-anchor="middle" x="108" y="-31.25" font-family="Helvetica,sans-Serif" font-size="10.00">combo</text>
</a>
</g>
</g>
<!-- dir_b42c29baecd700a1c7b1f9e031116f59 -->
<g id="node3" class="node">
<title>dir_b42c29baecd700a1c7b1f9e031116f59</title>
<g id="a_node3"><a xlink:href="dir_b42c29baecd700a1c7b1f9e031116f59.html" target="_top" xlink:title="compensator">
<polygon fill="#4ea9ff" stroke="#404040" points="229.88,-44.75 150.12,-44.75 150.12,-24 229.88,-24 229.88,-44.75"/>
<text xml:space="preserve" text-anchor="middle" x="190" y="-31.25" font-family="Helvetica,sans-Serif" font-size="10.00">compensator</text>
</a>
</g>
</g>
<!-- dir_9c77f252bc2dea7aa2340c49f3ddd30c -->
<g id="node4" class="node">
<title>dir_9c77f252bc2dea7aa2340c49f3ddd30c</title>
<g id="a_node4"><a xlink:href="dir_9c77f252bc2dea7aa2340c49f3ddd30c.html" target="_top" xlink:title="decider">
<polygon fill="#4ea9ff" stroke="#404040" points="300,-44.75 248,-44.75 248,-24 300,-24 300,-44.75"/>
<text xml:space="preserve" text-anchor="middle" x="274" y="-31.25" font-family="Helvetica,sans-Serif" font-size="10.00">decider</text>
</a>
</g>
</g>
<!-- dir_e7c88c51ab0687dfbc5937f04baf7c42 -->
<g id="node5" class="node">
<title>dir_e7c88c51ab0687dfbc5937f04baf7c42</title>
<g id="a_node5"><a xlink:href="dir_e7c88c51ab0687dfbc5937f04baf7c42.html" target="_top" xlink:title="detector">
<polygon fill="#4ea9ff" stroke="#404040" points="374.25,-44.75 317.75,-44.75 317.75,-24 374.25,-24 374.25,-44.75"/>
<text xml:space="preserve" text-anchor="middle" x="346" y="-31.25" font-family="Helvetica,sans-Serif" font-size="10.00">detector</text>
</a>
</g>
</g>
<!-- dir_08cb09a26daf7692ff65867d96a774b2 -->
<g id="node6" class="node">
<title>dir_08cb09a26daf7692ff65867d96a774b2</title>
<g id="a_node6"><a xlink:href="dir_08cb09a26daf7692ff65867d96a774b2.html" target="_top" xlink:title="feature">
<polygon fill="#4ea9ff" stroke="#404040" points="443.62,-44.75 392.38,-44.75 392.38,-24 443.62,-24 443.62,-44.75"/>
<text xml:space="preserve" text-anchor="middle" x="418" y="-31.25" font-family="Helvetica,sans-Serif" font-size="10.00">feature</text>
</a>
</g>
</g>
<!-- dir_bdac78099532942366d2fabd1b27783f -->
<g id="node7" class="node">
<title>dir_bdac78099532942366d2fabd1b27783f</title>
<g id="a_node7"><a xlink:href="dir_bdac78099532942366d2fabd1b27783f.html" target="_top" xlink:title="group">
<polygon fill="#4ea9ff" stroke="#404040" points="505.88,-44.75 462.12,-44.75 462.12,-24 505.88,-24 505.88,-44.75"/>
<text xml:space="preserve" text-anchor="middle" x="484" y="-31.25" font-family="Helvetica,sans-Serif" font-size="10.00">group</text>
</a>
</g>
</g>
<!-- dir_2d16c776959d732bcd5241749ddcece3 -->
<g id="node8" class="node">
<title>dir_2d16c776959d732bcd5241749ddcece3</title>
<g id="a_node8"><a xlink:href="dir_2d16c776959d732bcd5241749ddcece3.html" target="_top" xlink:title="predictor">
<polygon fill="#4ea9ff" stroke="#404040" points="583.75,-44.75 524.25,-44.75 524.25,-24 583.75,-24 583.75,-44.75"/>
<text xml:space="preserve" text-anchor="middle" x="554" y="-31.25" font-family="Helvetica,sans-Serif" font-size="10.00">predictor</text>
</a>
</g>
</g>
<!-- dir_6b8d1066f9f8a1d0ae64c8dcf96bf1e3 -->
<g id="node9" class="node">
<title>dir_6b8d1066f9f8a1d0ae64c8dcf96bf1e3</title>
<g id="a_node9"><a xlink:href="dir_6b8d1066f9f8a1d0ae64c8dcf96bf1e3.html" target="_top" xlink:title="tracker">
<polygon fill="#4ea9ff" stroke="#404040" points="651.88,-44.75 602.12,-44.75 602.12,-24 651.88,-24 651.88,-44.75"/>
<text xml:space="preserve" text-anchor="middle" x="627" y="-31.25" font-family="Helvetica,sans-Serif" font-size="10.00">tracker</text>
</a>
</g>
</g>
<!-- dir_4ef7a8655673da93818ea708ee8785e2 -->
<g id="node10" class="node">
<title>dir_4ef7a8655673da93818ea708ee8785e2</title>
<g id="a_node10"><a xlink:href="dir_4ef7a8655673da93818ea708ee8785e2.html" target="_top" xlink:title="upper">
<polygon fill="#4ea9ff" stroke="#404040" points="713.88,-44.75 670.12,-44.75 670.12,-24 713.88,-24 713.88,-44.75"/>
<text xml:space="preserve" text-anchor="middle" x="692" y="-31.25" font-family="Helvetica,sans-Serif" font-size="10.00">upper</text>
</a>
</g>
</g>
</g>
</svg>

<g id="navigator" transform="translate(0 0)" fill="#404254">
  <rect fill="#f2f5e9" fill-opacity="0.5" stroke="#606060" stroke-width=".5" x="0" y="0" width="60" height="60"/>
  <use id="zoomplus" xlink:href="#zoomPlus" x="17" y="9" onmousedown="handleZoom(evt,'in')"/>
  <use id="zoomminus" xlink:href="#zoomMin" x="42" y="9" onmousedown="handleZoom(evt,'out')"/>
  <use id="reset" xlink:href="#resetDef" x="30" y="36" onmousedown="handleReset()"/>
   <use id="arrowup" xlink:href="#arrowUp" x="0" y="0" onmousedown="handlePan(0,-1)"/>
  <use id="arrowright" xlink:href="#arrowRight" x="0" y="0" onmousedown="handlePan(1,0)"/>
  <use id="arrowdown" xlink:href="#arrowDown" x="0" y="0" onmousedown="handlePan(0,1)"/>
  <use id="arrowleft" xlink:href="#arrowLeft" x="0" y="0" onmousedown="handlePan(-1,0)"/>
</g>
<svg viewBox="0 0 15 15" width="100%" height="30px" preserveAspectRatio="xMaxYMin meet">
 <g id="arrow_out" transform="scale(0.3 0.3)">
  <a xlink:href="dir_426a5ffbbb727b99f4225294c6466649_dep_org.svg" target="_base">
   <rect id="button" ry="5" rx="5" y="6" x="6" height="38" width="38"
        fill="#f2f5e9" fill-opacity="0.5" stroke="#606060" stroke-width="1.0"/>
   <path id="arrow"
     d="M 11.500037,31.436501 C 11.940474,20.09759 22.043105,11.32322 32.158766,21.979434 L 37.068811,17.246167 C 37.068811,17.246167 37.088388,32 37.088388,32 L 22.160133,31.978069 C 22.160133,31.978069 26.997745,27.140456 26.997745,27.140456 C 18.528582,18.264221 13.291696,25.230495 11.500037,31.436501 z"
     style="fill:#404040;"/>
  </a>
 </g>
</svg>

<style type='text/css'>
<![CDATA[
[data-mouse-over-selected='false'] { opacity: 0.7; }
[data-mouse-over-selected='true']  { opacity: 1.0; }
]]>
</style>
<script type="application/ecmascript"><![CDATA[
document.addEventListener('DOMContentLoaded', (event) => {
  highlightEdges();
  highlightAdjacentNodes();
});
]]></script>
</svg>
