<?xml version="1.0" encoding="UTF-8" standalone="no"?>
<!DOCTYPE svg PUBLIC "-//W3C//DTD SVG 1.1//EN"
 "http://www.w3.org/Graphics/SVG/1.1/DTD/svg11.dtd">
<!-- Generated by graphviz version 2.43.0 (0)
 -->
<!-- Title: 类继承关系图 Pages: 1 -->
<svg width="304pt" height="364pt"
 viewBox="0.00 0.00 304.00 364.00" xmlns="http://www.w3.org/2000/svg" xmlns:xlink="http://www.w3.org/1999/xlink">
<g id="graph0" class="graph" transform="scale(1 1) rotate(0) translate(4 360)">
<title>类继承关系图</title>
<!-- Node0 -->
<g id="Node000000" class="node">
<title>Node0</title>
<g id="a_Node000000"><a xlink:href="d5/d8b/classrm_1_1SHMBase.html" target="_top" xlink:title="共享内存对象基类">
<polygon fill="white" stroke="#666666" points="83,-182.5 0,-182.5 0,-163.5 83,-163.5 83,-182.5"/>
<text text-anchor="middle" x="41.5" y="-170.5" font-family="Helvetica,sans-Serif" font-size="10.00">rm::SHMBase</text>
</a>
</g>
</g>
<!-- Node1 -->
<g id="Node000001" class="node">
<title>Node1</title>
<g id="a_Node000001"><a xlink:href="d0/df0/classrm_1_1RingBufferSlotSHM.html" target="_top" xlink:title=" ">
<polygon fill="white" stroke="#666666" points="271.5,-356 143.5,-356 143.5,-326 271.5,-326 271.5,-356"/>
<text text-anchor="start" x="151.5" y="-344" font-family="Helvetica,sans-Serif" font-size="10.00">rm::RingBufferSlotSHM</text>
<text text-anchor="middle" x="207.5" y="-333" font-family="Helvetica,sans-Serif" font-size="10.00">&lt; T, 2 &gt;</text>
</a>
</g>
</g>
<!-- Node0&#45;&gt;Node1 -->
<g id="edge80_Node000000_Node000001" class="edge">
<title>Node0&#45;&gt;Node1</title>
<g id="a_edge80_Node000000_Node000001"><a xlink:title=" ">
<path fill="none" stroke="#63b8ff" d="M47.43,-192.45C56.33,-223.53 78.08,-284.24 119,-317 126.13,-322.71 134.52,-327.06 143.24,-330.38"/>
<polygon fill="#63b8ff" stroke="#63b8ff" points="50.8,-191.52 44.81,-182.78 44.05,-193.35 50.8,-191.52"/>
</a>
</g>
</g>
<!-- Node2 -->
<g id="Node000002" class="node">
<title>Node2</title>
<g id="a_Node000002"><a xlink:href="d0/df0/classrm_1_1RingBufferSlotSHM.html" target="_top" xlink:title=" ">
<polygon fill="white" stroke="#666666" points="271.5,-308 143.5,-308 143.5,-278 271.5,-278 271.5,-308"/>
<text text-anchor="start" x="151.5" y="-296" font-family="Helvetica,sans-Serif" font-size="10.00">rm::RingBufferSlotSHM</text>
<text text-anchor="middle" x="207.5" y="-285" font-family="Helvetica,sans-Serif" font-size="10.00">&lt; T, 4 &gt;</text>
</a>
</g>
</g>
<!-- Node0&#45;&gt;Node2 -->
<g id="edge81_Node000000_Node000002" class="edge">
<title>Node0&#45;&gt;Node2</title>
<g id="a_edge81_Node000000_Node000002"><a xlink:title=" ">
<path fill="none" stroke="#63b8ff" d="M52.37,-191.48C64.95,-213.28 88.76,-249.06 119,-269 126.36,-273.86 134.69,-277.73 143.21,-280.83"/>
<polygon fill="#63b8ff" stroke="#63b8ff" points="55.32,-189.59 47.39,-182.56 49.2,-193 55.32,-189.59"/>
</a>
</g>
</g>
<!-- Node3 -->
<g id="Node000003" class="node">
<title>Node3</title>
<g id="a_Node000003"><a xlink:href="d0/df0/classrm_1_1RingBufferSlotSHM.html" target="_top" xlink:title=" ">
<polygon fill="white" stroke="#666666" points="271.5,-260 143.5,-260 143.5,-230 271.5,-230 271.5,-260"/>
<text text-anchor="start" x="151.5" y="-248" font-family="Helvetica,sans-Serif" font-size="10.00">rm::RingBufferSlotSHM</text>
<text text-anchor="middle" x="207.5" y="-237" font-family="Helvetica,sans-Serif" font-size="10.00">&lt; T, 8 &gt;</text>
</a>
</g>
</g>
<!-- Node0&#45;&gt;Node3 -->
<g id="edge82_Node000000_Node000003" class="edge">
<title>Node0&#45;&gt;Node3</title>
<g id="a_edge82_Node000000_Node000003"><a xlink:title=" ">
<path fill="none" stroke="#63b8ff" d="M63.55,-188.58C78.42,-198.97 99.15,-212.28 119,-221 126.64,-224.36 134.87,-227.36 143.12,-230"/>
<polygon fill="#63b8ff" stroke="#63b8ff" points="65.29,-185.52 55.12,-182.55 61.22,-191.21 65.29,-185.52"/>
</a>
</g>
</g>
<!-- Node4 -->
<g id="Node000004" class="node">
<title>Node4</title>
<g id="a_Node000004"><a xlink:href="d0/df0/classrm_1_1RingBufferSlotSHM.html" target="_top" xlink:title=" ">
<polygon fill="white" stroke="#666666" points="271.5,-212 143.5,-212 143.5,-182 271.5,-182 271.5,-212"/>
<text text-anchor="start" x="151.5" y="-200" font-family="Helvetica,sans-Serif" font-size="10.00">rm::RingBufferSlotSHM</text>
<text text-anchor="middle" x="207.5" y="-189" font-family="Helvetica,sans-Serif" font-size="10.00">&lt; T, 16 &gt;</text>
</a>
</g>
</g>
<!-- Node0&#45;&gt;Node4 -->
<g id="edge83_Node000000_Node000004" class="edge">
<title>Node0&#45;&gt;Node4</title>
<g id="a_edge83_Node000000_Node000004"><a xlink:title=" ">
<path fill="none" stroke="#63b8ff" d="M93.18,-180.42C109.07,-182.74 126.81,-185.34 143.45,-187.77"/>
<polygon fill="#63b8ff" stroke="#63b8ff" points="93.44,-176.92 83.04,-178.93 92.43,-183.84 93.44,-176.92"/>
</a>
</g>
</g>
<!-- Node5 -->
<g id="Node000005" class="node">
<title>Node5</title>
<g id="a_Node000005"><a xlink:href="d0/df0/classrm_1_1RingBufferSlotSHM.html" target="_top" xlink:title=" ">
<polygon fill="white" stroke="#666666" points="271.5,-164 143.5,-164 143.5,-134 271.5,-134 271.5,-164"/>
<text text-anchor="start" x="151.5" y="-152" font-family="Helvetica,sans-Serif" font-size="10.00">rm::RingBufferSlotSHM</text>
<text text-anchor="middle" x="207.5" y="-141" font-family="Helvetica,sans-Serif" font-size="10.00">&lt; T, 32 &gt;</text>
</a>
</g>
</g>
<!-- Node0&#45;&gt;Node5 -->
<g id="edge84_Node000000_Node000005" class="edge">
<title>Node0&#45;&gt;Node5</title>
<g id="a_edge84_Node000000_Node000005"><a xlink:title=" ">
<path fill="none" stroke="#63b8ff" d="M93.18,-165.58C109.07,-163.26 126.81,-160.66 143.45,-158.23"/>
<polygon fill="#63b8ff" stroke="#63b8ff" points="92.43,-162.16 83.04,-167.07 93.44,-169.08 92.43,-162.16"/>
</a>
</g>
</g>
<!-- Node6 -->
<g id="Node000006" class="node">
<title>Node6</title>
<g id="a_Node000006"><a xlink:href="d0/df0/classrm_1_1RingBufferSlotSHM.html" target="_top" xlink:title=" ">
<polygon fill="white" stroke="#666666" points="271.5,-116 143.5,-116 143.5,-86 271.5,-86 271.5,-116"/>
<text text-anchor="start" x="151.5" y="-104" font-family="Helvetica,sans-Serif" font-size="10.00">rm::RingBufferSlotSHM</text>
<text text-anchor="middle" x="207.5" y="-93" font-family="Helvetica,sans-Serif" font-size="10.00">&lt; T, 64 &gt;</text>
</a>
</g>
</g>
<!-- Node0&#45;&gt;Node6 -->
<g id="edge85_Node000000_Node000006" class="edge">
<title>Node0&#45;&gt;Node6</title>
<g id="a_edge85_Node000000_Node000006"><a xlink:title=" ">
<path fill="none" stroke="#63b8ff" d="M63.55,-157.42C78.42,-147.03 99.15,-133.72 119,-125 126.64,-121.64 134.87,-118.64 143.12,-116"/>
<polygon fill="#63b8ff" stroke="#63b8ff" points="61.22,-154.79 55.12,-163.45 65.29,-160.48 61.22,-154.79"/>
</a>
</g>
</g>
<!-- Node7 -->
<g id="Node000007" class="node">
<title>Node7</title>
<g id="a_Node000007"><a xlink:href="da/dd5/classrm_1_1AtomicSHM.html" target="_top" xlink:title="MPMC 原子共享内存对象">
<polygon fill="white" stroke="#666666" points="296,-67.5 119,-67.5 119,-48.5 296,-48.5 296,-67.5"/>
<text text-anchor="middle" x="207.5" y="-55.5" font-family="Helvetica,sans-Serif" font-size="10.00">rm::AtomicSHM&lt; T, typename &gt;</text>
</a>
</g>
</g>
<!-- Node0&#45;&gt;Node7 -->
<g id="edge86_Node000000_Node000007" class="edge">
<title>Node0&#45;&gt;Node7</title>
<g id="a_edge86_Node000000_Node000007"><a xlink:title=" ">
<path fill="none" stroke="#63b8ff" d="M52.19,-154.24C64.6,-132.17 88.23,-96.11 119,-77 125.21,-73.14 132.08,-70.06 139.17,-67.6"/>
<polygon fill="#63b8ff" stroke="#63b8ff" points="48.97,-152.82 47.29,-163.28 55.13,-156.16 48.97,-152.82"/>
</a>
</g>
</g>
<!-- Node8 -->
<g id="Node000008" class="node">
<title>Node8</title>
<g id="a_Node000008"><a xlink:href="d0/df0/classrm_1_1RingBufferSlotSHM.html" target="_top" xlink:title="基于共享内存的无锁 MPMC（多生产者多消费者）环形缓冲区">
<polygon fill="white" stroke="#666666" points="282,-30 133,-30 133,0 282,0 282,-30"/>
<text text-anchor="start" x="141" y="-18" font-family="Helvetica,sans-Serif" font-size="10.00">rm::RingBufferSlotSHM</text>
<text text-anchor="middle" x="207.5" y="-7" font-family="Helvetica,sans-Serif" font-size="10.00">&lt; T, Capacity, typename &gt;</text>
</a>
</g>
</g>
<!-- Node0&#45;&gt;Node8 -->
<g id="edge87_Node000000_Node000008" class="edge">
<title>Node0&#45;&gt;Node8</title>
<g id="a_edge87_Node000000_Node000008"><a xlink:title=" ">
<path fill="none" stroke="#63b8ff" d="M48.44,-153.46C58.31,-124.35 80.85,-69.82 119,-40 123.98,-36.11 129.54,-32.82 135.37,-30.05"/>
<polygon fill="#63b8ff" stroke="#63b8ff" points="45.02,-152.68 45.28,-163.27 51.68,-154.83 45.02,-152.68"/>
</a>
</g>
</g>
</g>
</svg>
