<?xml version="1.0" encoding="UTF-8" standalone="no"?>
<!DOCTYPE svg PUBLIC "-//W3C//DTD SVG 1.1//EN"
 "http://www.w3.org/Graphics/SVG/1.1/DTD/svg11.dtd">
<!-- Generated by graphviz version 2.43.0 (0)
 -->
<!-- Title: 类继承关系图 Pages: 1 -->
<svg width="221pt" height="101pt"
 viewBox="0.00 0.00 221.00 101.00" xmlns="http://www.w3.org/2000/svg" xmlns:xlink="http://www.w3.org/1999/xlink">
<g id="graph0" class="graph" transform="scale(1 1) rotate(0) translate(4 97)">
<title>类继承关系图</title>
<!-- Node0 -->
<g id="Node000000" class="node">
<title>Node0</title>
<g id="a_Node000000"><a xlink:href="d5/d26/classrm_1_1RungeKutta.html" target="_top" xlink:title="Butcher 表形式的常微分方程（组）数值求解器">
<polygon fill="white" stroke="#666666" points="86,-56 0,-56 0,-37 86,-37 86,-56"/>
<text text-anchor="middle" x="43" y="-44" font-family="Helvetica,sans-Serif" font-size="10.00">rm::RungeKutta</text>
</a>
</g>
</g>
<!-- Node1 -->
<g id="Node000001" class="node">
<title>Node1</title>
<g id="a_Node000001"><a xlink:href="da/d12/classrm_1_1RungeKutta2.html" target="_top" xlink:title="2 阶 2 级 Runge&#45;Kutta 求解器">
<polygon fill="white" stroke="#666666" points="213,-93 122,-93 122,-74 213,-74 213,-93"/>
<text text-anchor="middle" x="167.5" y="-81" font-family="Helvetica,sans-Serif" font-size="10.00">rm::RungeKutta2</text>
</a>
</g>
</g>
<!-- Node0&#45;&gt;Node1 -->
<g id="edge89_Node000000_Node000001" class="edge">
<title>Node0&#45;&gt;Node1</title>
<g id="a_edge89_Node000000_Node000001"><a xlink:title=" ">
<path fill="none" stroke="#63b8ff" d="M85.26,-58.96C101.38,-63.83 119.56,-69.32 134.63,-73.88"/>
<polygon fill="#63b8ff" stroke="#63b8ff" points="86.13,-55.57 75.55,-56.03 84.11,-62.27 86.13,-55.57"/>
</a>
</g>
</g>
<!-- Node2 -->
<g id="Node000002" class="node">
<title>Node2</title>
<g id="a_Node000002"><a xlink:href="d8/d0a/classrm_1_1RungeKutta3.html" target="_top" xlink:title="3 阶 3 级 Runge&#45;Kutta 求解器">
<polygon fill="white" stroke="#666666" points="213,-56 122,-56 122,-37 213,-37 213,-56"/>
<text text-anchor="middle" x="167.5" y="-44" font-family="Helvetica,sans-Serif" font-size="10.00">rm::RungeKutta3</text>
</a>
</g>
</g>
<!-- Node0&#45;&gt;Node2 -->
<g id="edge90_Node000000_Node000002" class="edge">
<title>Node0&#45;&gt;Node2</title>
<g id="a_edge90_Node000000_Node000002"><a xlink:title=" ">
<path fill="none" stroke="#63b8ff" d="M96.33,-46.5C104.79,-46.5 113.49,-46.5 121.76,-46.5"/>
<polygon fill="#63b8ff" stroke="#63b8ff" points="96.16,-43 86.16,-46.5 96.16,-50 96.16,-43"/>
</a>
</g>
</g>
<!-- Node3 -->
<g id="Node000003" class="node">
<title>Node3</title>
<g id="a_Node000003"><a xlink:href="d0/dcd/classrm_1_1RungeKutta4.html" target="_top" xlink:title="4 阶 4 级 Runge&#45;Kutta 求解器">
<polygon fill="white" stroke="#666666" points="213,-19 122,-19 122,0 213,0 213,-19"/>
<text text-anchor="middle" x="167.5" y="-7" font-family="Helvetica,sans-Serif" font-size="10.00">rm::RungeKutta4</text>
</a>
</g>
</g>
<!-- Node0&#45;&gt;Node3 -->
<g id="edge91_Node000000_Node000003" class="edge">
<title>Node0&#45;&gt;Node3</title>
<g id="a_edge91_Node000000_Node000003"><a xlink:title=" ">
<path fill="none" stroke="#63b8ff" d="M85.26,-34.04C101.38,-29.17 119.56,-23.68 134.63,-19.12"/>
<polygon fill="#63b8ff" stroke="#63b8ff" points="84.11,-30.73 75.55,-36.97 86.13,-37.43 84.11,-30.73"/>
</a>
</g>
</g>
</g>
</svg>
