<?xml version="1.0" encoding="UTF-8" standalone="no"?>
<!DOCTYPE svg PUBLIC "-//W3C//DTD SVG 1.1//EN"
 "http://www.w3.org/Graphics/SVG/1.1/DTD/svg11.dtd">
<!-- Generated by graphviz version 14.1.2 (0)
 -->
<!-- Title: 类继承关系图 Pages: 1 -->
<svg width="385pt" height="2070pt"
 viewBox="0.00 0.00 385.00 2070.00" xmlns="http://www.w3.org/2000/svg" xmlns:xlink="http://www.w3.org/1999/xlink">
<g id="graph0" class="graph" transform="scale(1 1) rotate(0) translate(4 2065.5)">
<title>类继承关系图</title>
<!-- Node0 -->
<g id="Node000000" class="node">
<title>Node0</title>
<g id="a_Node000000"><a xlink:href="df/d1a/classrm_1_1KalmanFilterStaticDatas.html" target="_top" xlink:title="卡尔曼滤波静态数据">
<polygon fill="white" stroke="#666666" points="170.5,-1047.5 0,-1047.5 0,-1014 170.5,-1014 170.5,-1047.5"/>
<text xml:space="preserve" text-anchor="start" x="8" y="-1034" font-family="Helvetica,sans-Serif" font-size="10.00">rm::KalmanFilterStaticDatas</text>
<text xml:space="preserve" text-anchor="middle" x="85.25" y="-1021.25" font-family="Helvetica,sans-Serif" font-size="10.00">&lt; Tp, StateDim, MeasureDim &gt;</text>
</a>
</g>
</g>
<!-- Node1 -->
<g id="Node000001" class="node">
<title>Node1</title>
<g id="a_Node000001"><a xlink:href="d9/dd2/classrm_1_1ExtendedKalmanFilter.html" target="_top" xlink:title=" ">
<polygon fill="white" stroke="#666666" points="363.5,-2061.5 220,-2061.5 220,-2028 363.5,-2028 363.5,-2061.5"/>
<text xml:space="preserve" text-anchor="start" x="228" y="-2048" font-family="Helvetica,sans-Serif" font-size="10.00">rm::ExtendedKalmanFilter</text>
<text xml:space="preserve" text-anchor="middle" x="291.75" y="-2035.25" font-family="Helvetica,sans-Serif" font-size="10.00">&lt; float, 3U, 1U &gt;</text>
</a>
</g>
</g>
<!-- Node0&#45;&gt;Node1 -->
<g id="edge33_Node000000_Node000001" class="edge">
<title>Node0&#45;&gt;Node1</title>
<g id="a_edge33_Node000000_Node000001"><a xlink:title=" ">
<path fill="none" stroke="#63b8ff" d="M87.86,-1058.77C96.88,-1211.86 143.04,-1942.84 206.5,-2018.75 210.23,-2023.21 214.71,-2026.92 219.63,-2030.01"/>
<polygon fill="#63b8ff" stroke="#63b8ff" points="91.37,-1058.92 87.3,-1049.15 84.38,-1059.33 91.37,-1058.92"/>
</a>
</g>
</g>
<!-- Node2 -->
<g id="Node000002" class="node">
<title>Node2</title>
<g id="a_Node000002"><a xlink:href="d9/dd2/classrm_1_1ExtendedKalmanFilter.html" target="_top" xlink:title=" ">
<polygon fill="white" stroke="#666666" points="363.5,-2009.5 220,-2009.5 220,-1976 363.5,-1976 363.5,-2009.5"/>
<text xml:space="preserve" text-anchor="start" x="228" y="-1996" font-family="Helvetica,sans-Serif" font-size="10.00">rm::ExtendedKalmanFilter</text>
<text xml:space="preserve" text-anchor="middle" x="291.75" y="-1983.25" font-family="Helvetica,sans-Serif" font-size="10.00">&lt; double, 3U, 1U &gt;</text>
</a>
</g>
</g>
<!-- Node0&#45;&gt;Node2 -->
<g id="edge34_Node000000_Node000002" class="edge">
<title>Node0&#45;&gt;Node2</title>
<g id="a_edge34_Node000000_Node000002"><a xlink:title=" ">
<path fill="none" stroke="#63b8ff" d="M85.92,-1059.22C84.83,-1200.45 86.94,-1824.69 206.5,-1966.75 210.25,-1971.2 214.74,-1974.9 219.67,-1977.98"/>
<polygon fill="#63b8ff" stroke="#63b8ff" points="89.41,-1059.32 86.01,-1049.29 82.41,-1059.26 89.41,-1059.32"/>
</a>
</g>
</g>
<!-- Node3 -->
<g id="Node000003" class="node">
<title>Node3</title>
<g id="a_Node000003"><a xlink:href="d9/dd2/classrm_1_1ExtendedKalmanFilter.html" target="_top" xlink:title=" ">
<polygon fill="white" stroke="#666666" points="363.5,-1957.5 220,-1957.5 220,-1924 363.5,-1924 363.5,-1957.5"/>
<text xml:space="preserve" text-anchor="start" x="228" y="-1944" font-family="Helvetica,sans-Serif" font-size="10.00">rm::ExtendedKalmanFilter</text>
<text xml:space="preserve" text-anchor="middle" x="291.75" y="-1931.25" font-family="Helvetica,sans-Serif" font-size="10.00">&lt; float, 3U, 2U &gt;</text>
</a>
</g>
</g>
<!-- Node0&#45;&gt;Node3 -->
<g id="edge35_Node000000_Node000003" class="edge">
<title>Node0&#45;&gt;Node3</title>
<g id="a_edge35_Node000000_Node000003"><a xlink:title=" ">
<path fill="none" stroke="#63b8ff" d="M86.15,-1059.36C86.27,-1196.05 93.45,-1781.44 206.5,-1914.75 210.26,-1919.19 214.76,-1922.88 219.7,-1925.95"/>
<polygon fill="#63b8ff" stroke="#63b8ff" points="89.65,-1059.41 86.16,-1049.41 82.65,-1059.41 89.65,-1059.41"/>
</a>
</g>
</g>
<!-- Node4 -->
<g id="Node000004" class="node">
<title>Node4</title>
<g id="a_Node000004"><a xlink:href="d9/dd2/classrm_1_1ExtendedKalmanFilter.html" target="_top" xlink:title=" ">
<polygon fill="white" stroke="#666666" points="363.5,-1905.5 220,-1905.5 220,-1872 363.5,-1872 363.5,-1905.5"/>
<text xml:space="preserve" text-anchor="start" x="228" y="-1892" font-family="Helvetica,sans-Serif" font-size="10.00">rm::ExtendedKalmanFilter</text>
<text xml:space="preserve" text-anchor="middle" x="291.75" y="-1879.25" font-family="Helvetica,sans-Serif" font-size="10.00">&lt; double, 3U, 2U &gt;</text>
</a>
</g>
</g>
<!-- Node0&#45;&gt;Node4 -->
<g id="edge36_Node000000_Node000004" class="edge">
<title>Node0&#45;&gt;Node4</title>
<g id="a_edge36_Node000000_Node000004"><a xlink:title=" ">
<path fill="none" stroke="#63b8ff" d="M86.42,-1059.34C87.79,-1191.05 99.91,-1738.11 206.5,-1862.75 210.28,-1867.17 214.8,-1870.85 219.74,-1873.92"/>
<polygon fill="#63b8ff" stroke="#63b8ff" points="89.92,-1059.41 86.33,-1049.44 82.92,-1059.47 89.92,-1059.41"/>
</a>
</g>
</g>
<!-- Node5 -->
<g id="Node000005" class="node">
<title>Node5</title>
<g id="a_Node000005"><a xlink:href="d9/dd2/classrm_1_1ExtendedKalmanFilter.html" target="_top" xlink:title=" ">
<polygon fill="white" stroke="#666666" points="363.5,-1853.5 220,-1853.5 220,-1820 363.5,-1820 363.5,-1853.5"/>
<text xml:space="preserve" text-anchor="start" x="228" y="-1840" font-family="Helvetica,sans-Serif" font-size="10.00">rm::ExtendedKalmanFilter</text>
<text xml:space="preserve" text-anchor="middle" x="291.75" y="-1827.25" font-family="Helvetica,sans-Serif" font-size="10.00">&lt; float, 4U, 2U &gt;</text>
</a>
</g>
</g>
<!-- Node0&#45;&gt;Node5 -->
<g id="edge37_Node000000_Node000005" class="edge">
<title>Node0&#45;&gt;Node5</title>
<g id="a_edge37_Node000000_Node000005"><a xlink:title=" ">
<path fill="none" stroke="#63b8ff" d="M86.72,-1059.16C89.39,-1185.45 106.3,-1694.7 206.5,-1810.75 210.3,-1815.15 214.83,-1818.82 219.79,-1821.88"/>
<polygon fill="#63b8ff" stroke="#63b8ff" points="90.23,-1059.29 86.53,-1049.36 83.23,-1059.43 90.23,-1059.29"/>
</a>
</g>
</g>
<!-- Node6 -->
<g id="Node000006" class="node">
<title>Node6</title>
<g id="a_Node000006"><a xlink:href="d9/dd2/classrm_1_1ExtendedKalmanFilter.html" target="_top" xlink:title=" ">
<polygon fill="white" stroke="#666666" points="363.5,-1801.5 220,-1801.5 220,-1768 363.5,-1768 363.5,-1801.5"/>
<text xml:space="preserve" text-anchor="start" x="228" y="-1788" font-family="Helvetica,sans-Serif" font-size="10.00">rm::ExtendedKalmanFilter</text>
<text xml:space="preserve" text-anchor="middle" x="291.75" y="-1775.25" font-family="Helvetica,sans-Serif" font-size="10.00">&lt; double, 4U, 2U &gt;</text>
</a>
</g>
</g>
<!-- Node0&#45;&gt;Node6 -->
<g id="edge38_Node000000_Node000006" class="edge">
<title>Node0&#45;&gt;Node6</title>
<g id="a_edge38_Node000000_Node000006"><a xlink:title=" ">
<path fill="none" stroke="#63b8ff" d="M87.07,-1059.2C91.12,-1180.27 112.74,-1651.33 206.5,-1758.75 210.32,-1763.13 214.87,-1766.79 219.84,-1769.83"/>
<polygon fill="#63b8ff" stroke="#63b8ff" points="90.58,-1059.39 86.76,-1049.51 83.58,-1059.61 90.58,-1059.39"/>
</a>
</g>
</g>
<!-- Node7 -->
<g id="Node000007" class="node">
<title>Node7</title>
<g id="a_Node000007"><a xlink:href="d9/dd2/classrm_1_1ExtendedKalmanFilter.html" target="_top" xlink:title=" ">
<polygon fill="white" stroke="#666666" points="363.5,-1749.5 220,-1749.5 220,-1716 363.5,-1716 363.5,-1749.5"/>
<text xml:space="preserve" text-anchor="start" x="228" y="-1736" font-family="Helvetica,sans-Serif" font-size="10.00">rm::ExtendedKalmanFilter</text>
<text xml:space="preserve" text-anchor="middle" x="291.75" y="-1723.25" font-family="Helvetica,sans-Serif" font-size="10.00">&lt; float, 5U, 2U &gt;</text>
</a>
</g>
</g>
<!-- Node0&#45;&gt;Node7 -->
<g id="edge39_Node000000_Node000007" class="edge">
<title>Node0&#45;&gt;Node7</title>
<g id="a_edge39_Node000000_Node000007"><a xlink:title=" ">
<path fill="none" stroke="#63b8ff" d="M87.47,-1059.37C92.99,-1175.22 119.2,-1607.96 206.5,-1706.75 210.25,-1710.99 214.68,-1714.55 219.51,-1717.54"/>
<polygon fill="#63b8ff" stroke="#63b8ff" points="90.98,-1059.34 87.02,-1049.51 83.98,-1059.66 90.98,-1059.34"/>
</a>
</g>
</g>
<!-- Node8 -->
<g id="Node000008" class="node">
<title>Node8</title>
<g id="a_Node000008"><a xlink:href="d9/dd2/classrm_1_1ExtendedKalmanFilter.html" target="_top" xlink:title=" ">
<polygon fill="white" stroke="#666666" points="363.5,-1697.5 220,-1697.5 220,-1664 363.5,-1664 363.5,-1697.5"/>
<text xml:space="preserve" text-anchor="start" x="228" y="-1684" font-family="Helvetica,sans-Serif" font-size="10.00">rm::ExtendedKalmanFilter</text>
<text xml:space="preserve" text-anchor="middle" x="291.75" y="-1671.25" font-family="Helvetica,sans-Serif" font-size="10.00">&lt; double, 5U, 2U &gt;</text>
</a>
</g>
</g>
<!-- Node0&#45;&gt;Node8 -->
<g id="edge40_Node000000_Node000008" class="edge">
<title>Node0&#45;&gt;Node8</title>
<g id="a_edge40_Node000000_Node000008"><a xlink:title=" ">
<path fill="none" stroke="#63b8ff" d="M87.93,-1059.27C94.97,-1169.29 125.57,-1564.48 206.5,-1654.75 210.28,-1658.97 214.73,-1662.51 219.57,-1665.48"/>
<polygon fill="#63b8ff" stroke="#63b8ff" points="91.43,-1059.13 87.31,-1049.36 84.44,-1059.56 91.43,-1059.13"/>
</a>
</g>
</g>
<!-- Node9 -->
<g id="Node000009" class="node">
<title>Node9</title>
<g id="a_Node000009"><a xlink:href="d9/dd2/classrm_1_1ExtendedKalmanFilter.html" target="_top" xlink:title=" ">
<polygon fill="white" stroke="#666666" points="363.5,-1645.5 220,-1645.5 220,-1612 363.5,-1612 363.5,-1645.5"/>
<text xml:space="preserve" text-anchor="start" x="228" y="-1632" font-family="Helvetica,sans-Serif" font-size="10.00">rm::ExtendedKalmanFilter</text>
<text xml:space="preserve" text-anchor="middle" x="291.75" y="-1619.25" font-family="Helvetica,sans-Serif" font-size="10.00">&lt; float, 5U, 3U &gt;</text>
</a>
</g>
</g>
<!-- Node0&#45;&gt;Node9 -->
<g id="edge41_Node000000_Node000009" class="edge">
<title>Node0&#45;&gt;Node9</title>
<g id="a_edge41_Node000000_Node000009"><a xlink:title=" ">
<path fill="none" stroke="#63b8ff" d="M88.47,-1059.23C97.13,-1163.26 131.93,-1520.97 206.5,-1602.75 210.32,-1606.94 214.79,-1610.45 219.65,-1613.41"/>
<polygon fill="#63b8ff" stroke="#63b8ff" points="91.97,-1059.02 87.66,-1049.34 84.99,-1059.59 91.97,-1059.02"/>
</a>
</g>
</g>
<!-- Node10 -->
<g id="Node000010" class="node">
<title>Node10</title>
<g id="a_Node000010"><a xlink:href="d9/dd2/classrm_1_1ExtendedKalmanFilter.html" target="_top" xlink:title=" ">
<polygon fill="white" stroke="#666666" points="363.5,-1593.5 220,-1593.5 220,-1560 363.5,-1560 363.5,-1593.5"/>
<text xml:space="preserve" text-anchor="start" x="228" y="-1580" font-family="Helvetica,sans-Serif" font-size="10.00">rm::ExtendedKalmanFilter</text>
<text xml:space="preserve" text-anchor="middle" x="291.75" y="-1567.25" font-family="Helvetica,sans-Serif" font-size="10.00">&lt; double, 5U, 3U &gt;</text>
</a>
</g>
</g>
<!-- Node0&#45;&gt;Node10 -->
<g id="edge42_Node000000_Node000010" class="edge">
<title>Node0&#45;&gt;Node10</title>
<g id="a_edge42_Node000000_Node000010"><a xlink:title=" ">
<path fill="none" stroke="#63b8ff" d="M89.11,-1059.16C99.5,-1156.92 138.25,-1477.4 206.5,-1550.75 210.36,-1554.9 214.86,-1558.39 219.74,-1561.33"/>
<polygon fill="#63b8ff" stroke="#63b8ff" points="92.61,-1058.97 88.09,-1049.38 85.65,-1059.69 92.61,-1058.97"/>
</a>
</g>
</g>
<!-- Node11 -->
<g id="Node000011" class="node">
<title>Node11</title>
<g id="a_Node000011"><a xlink:href="d9/dd2/classrm_1_1ExtendedKalmanFilter.html" target="_top" xlink:title=" ">
<polygon fill="white" stroke="#666666" points="363.5,-1541.5 220,-1541.5 220,-1508 363.5,-1508 363.5,-1541.5"/>
<text xml:space="preserve" text-anchor="start" x="228" y="-1528" font-family="Helvetica,sans-Serif" font-size="10.00">rm::ExtendedKalmanFilter</text>
<text xml:space="preserve" text-anchor="middle" x="291.75" y="-1515.25" font-family="Helvetica,sans-Serif" font-size="10.00">&lt; float, 6U, 3U &gt;</text>
</a>
</g>
</g>
<!-- Node0&#45;&gt;Node11 -->
<g id="edge43_Node000000_Node000011" class="edge">
<title>Node0&#45;&gt;Node11</title>
<g id="a_edge43_Node000000_Node000011"><a xlink:title=" ">
<path fill="none" stroke="#63b8ff" d="M89.91,-1059.27C102.18,-1150.62 144.59,-1433.8 206.5,-1498.75 210.41,-1502.85 214.95,-1506.31 219.85,-1509.22"/>
<polygon fill="#63b8ff" stroke="#63b8ff" points="93.39,-1058.88 88.61,-1049.43 86.45,-1059.8 93.39,-1058.88"/>
</a>
</g>
</g>
<!-- Node12 -->
<g id="Node000012" class="node">
<title>Node12</title>
<g id="a_Node000012"><a xlink:href="d9/dd2/classrm_1_1ExtendedKalmanFilter.html" target="_top" xlink:title=" ">
<polygon fill="white" stroke="#666666" points="363.5,-1489.5 220,-1489.5 220,-1456 363.5,-1456 363.5,-1489.5"/>
<text xml:space="preserve" text-anchor="start" x="228" y="-1476" font-family="Helvetica,sans-Serif" font-size="10.00">rm::ExtendedKalmanFilter</text>
<text xml:space="preserve" text-anchor="middle" x="291.75" y="-1463.25" font-family="Helvetica,sans-Serif" font-size="10.00">&lt; double, 6U, 3U &gt;</text>
</a>
</g>
</g>
<!-- Node0&#45;&gt;Node12 -->
<g id="edge44_Node000000_Node000012" class="edge">
<title>Node0&#45;&gt;Node12</title>
<g id="a_edge44_Node000000_Node000012"><a xlink:title=" ">
<path fill="none" stroke="#63b8ff" d="M85.8,-1058.97C86.19,-1133.23 97.71,-1335.99 206.5,-1446.75 210.36,-1450.68 214.8,-1454.02 219.59,-1456.86"/>
<polygon fill="#63b8ff" stroke="#63b8ff" points="89.3,-1059.32 85.82,-1049.31 82.3,-1059.3 89.3,-1059.32"/>
</a>
</g>
</g>
<!-- Node13 -->
<g id="Node000013" class="node">
<title>Node13</title>
<g id="a_Node000013"><a xlink:href="d9/dd2/classrm_1_1ExtendedKalmanFilter.html" target="_top" xlink:title=" ">
<polygon fill="white" stroke="#666666" points="363.5,-1437.5 220,-1437.5 220,-1404 363.5,-1404 363.5,-1437.5"/>
<text xml:space="preserve" text-anchor="start" x="228" y="-1424" font-family="Helvetica,sans-Serif" font-size="10.00">rm::ExtendedKalmanFilter</text>
<text xml:space="preserve" text-anchor="middle" x="291.75" y="-1411.25" font-family="Helvetica,sans-Serif" font-size="10.00">&lt; float, 6U, 4U &gt;</text>
</a>
</g>
</g>
<!-- Node0&#45;&gt;Node13 -->
<g id="edge45_Node000000_Node000013" class="edge">
<title>Node0&#45;&gt;Node13</title>
<g id="a_edge45_Node000000_Node000013"><a xlink:title=" ">
<path fill="none" stroke="#63b8ff" d="M87.18,-1059.06C90.97,-1126.92 110.09,-1300.22 206.5,-1394.75 210.43,-1398.61 214.93,-1401.9 219.75,-1404.7"/>
<polygon fill="#63b8ff" stroke="#63b8ff" points="90.68,-1058.99 86.71,-1049.17 83.69,-1059.33 90.68,-1058.99"/>
</a>
</g>
</g>
<!-- Node14 -->
<g id="Node000014" class="node">
<title>Node14</title>
<g id="a_Node000014"><a xlink:href="d9/dd2/classrm_1_1ExtendedKalmanFilter.html" target="_top" xlink:title=" ">
<polygon fill="white" stroke="#666666" points="363.5,-1385.5 220,-1385.5 220,-1352 363.5,-1352 363.5,-1385.5"/>
<text xml:space="preserve" text-anchor="start" x="228" y="-1372" font-family="Helvetica,sans-Serif" font-size="10.00">rm::ExtendedKalmanFilter</text>
<text xml:space="preserve" text-anchor="middle" x="291.75" y="-1359.25" font-family="Helvetica,sans-Serif" font-size="10.00">&lt; double, 6U, 4U &gt;</text>
</a>
</g>
</g>
<!-- Node0&#45;&gt;Node14 -->
<g id="edge46_Node000000_Node000014" class="edge">
<title>Node0&#45;&gt;Node14</title>
<g id="a_edge46_Node000000_Node000014"><a xlink:title=" ">
<path fill="none" stroke="#63b8ff" d="M89,-1059.15C96.41,-1120.08 122.35,-1264.17 206.5,-1342.75 210.42,-1346.41 214.84,-1349.55 219.55,-1352.25"/>
<polygon fill="#63b8ff" stroke="#63b8ff" points="92.48,-1058.84 87.88,-1049.29 85.53,-1059.62 92.48,-1058.84"/>
</a>
</g>
</g>
<!-- Node15 -->
<g id="Node000015" class="node">
<title>Node15</title>
<g id="a_Node000015"><a xlink:href="d9/dd2/classrm_1_1ExtendedKalmanFilter.html" target="_top" xlink:title=" ">
<polygon fill="white" stroke="#666666" points="363.5,-1333.5 220,-1333.5 220,-1300 363.5,-1300 363.5,-1333.5"/>
<text xml:space="preserve" text-anchor="start" x="228" y="-1320" font-family="Helvetica,sans-Serif" font-size="10.00">rm::ExtendedKalmanFilter</text>
<text xml:space="preserve" text-anchor="middle" x="291.75" y="-1307.25" font-family="Helvetica,sans-Serif" font-size="10.00">&lt; float, 7U, 3U &gt;</text>
</a>
</g>
</g>
<!-- Node0&#45;&gt;Node15 -->
<g id="edge47_Node000000_Node000015" class="edge">
<title>Node0&#45;&gt;Node15</title>
<g id="a_edge47_Node000000_Node000015"><a xlink:title=" ">
<path fill="none" stroke="#63b8ff" d="M91.47,-1059.17C102.75,-1112.47 134.43,-1227.73 206.5,-1290.75 210.53,-1294.28 215.04,-1297.32 219.81,-1299.96"/>
<polygon fill="#63b8ff" stroke="#63b8ff" points="94.91,-1058.49 89.5,-1049.38 88.04,-1059.87 94.91,-1058.49"/>
</a>
</g>
</g>
<!-- Node16 -->
<g id="Node000016" class="node">
<title>Node16</title>
<g id="a_Node000016"><a xlink:href="d9/dd2/classrm_1_1ExtendedKalmanFilter.html" target="_top" xlink:title=" ">
<polygon fill="white" stroke="#666666" points="363.5,-1281.5 220,-1281.5 220,-1248 363.5,-1248 363.5,-1281.5"/>
<text xml:space="preserve" text-anchor="start" x="228" y="-1268" font-family="Helvetica,sans-Serif" font-size="10.00">rm::ExtendedKalmanFilter</text>
<text xml:space="preserve" text-anchor="middle" x="291.75" y="-1255.25" font-family="Helvetica,sans-Serif" font-size="10.00">&lt; double, 7U, 3U &gt;</text>
</a>
</g>
</g>
<!-- Node0&#45;&gt;Node16 -->
<g id="edge48_Node000000_Node000016" class="edge">
<title>Node0&#45;&gt;Node16</title>
<g id="a_edge48_Node000000_Node000016"><a xlink:title=" ">
<path fill="none" stroke="#63b8ff" d="M94.95,-1058.8C110.24,-1103.47 146.17,-1190.66 206.5,-1238.75 210.69,-1242.09 215.31,-1245 220.16,-1247.54"/>
<polygon fill="#63b8ff" stroke="#63b8ff" points="98.28,-1057.72 91.82,-1049.33 91.64,-1059.92 98.28,-1057.72"/>
</a>
</g>
</g>
<!-- Node17 -->
<g id="Node000017" class="node">
<title>Node17</title>
<g id="a_Node000017"><a xlink:href="d9/dd2/classrm_1_1ExtendedKalmanFilter.html" target="_top" xlink:title=" ">
<polygon fill="white" stroke="#666666" points="363.5,-1229.5 220,-1229.5 220,-1196 363.5,-1196 363.5,-1229.5"/>
<text xml:space="preserve" text-anchor="start" x="228" y="-1216" font-family="Helvetica,sans-Serif" font-size="10.00">rm::ExtendedKalmanFilter</text>
<text xml:space="preserve" text-anchor="middle" x="291.75" y="-1203.25" font-family="Helvetica,sans-Serif" font-size="10.00">&lt; float, 7U, 4U &gt;</text>
</a>
</g>
</g>
<!-- Node0&#45;&gt;Node17 -->
<g id="edge49_Node000000_Node000017" class="edge">
<title>Node0&#45;&gt;Node17</title>
<g id="a_edge49_Node000000_Node000017"><a xlink:title=" ">
<path fill="none" stroke="#63b8ff" d="M100.01,-1057.53C119.24,-1092.32 157.36,-1152.65 206.5,-1186.75 211.28,-1190.07 216.5,-1192.97 221.91,-1195.51"/>
<polygon fill="#63b8ff" stroke="#63b8ff" points="103.21,-1056.08 95.38,-1048.94 97.05,-1059.4 103.21,-1056.08"/>
</a>
</g>
</g>
<!-- Node18 -->
<g id="Node000018" class="node">
<title>Node18</title>
<g id="a_Node000018"><a xlink:href="d9/dd2/classrm_1_1ExtendedKalmanFilter.html" target="_top" xlink:title=" ">
<polygon fill="white" stroke="#666666" points="363.5,-1177.5 220,-1177.5 220,-1144 363.5,-1144 363.5,-1177.5"/>
<text xml:space="preserve" text-anchor="start" x="228" y="-1164" font-family="Helvetica,sans-Serif" font-size="10.00">rm::ExtendedKalmanFilter</text>
<text xml:space="preserve" text-anchor="middle" x="291.75" y="-1151.25" font-family="Helvetica,sans-Serif" font-size="10.00">&lt; double, 7U, 4U &gt;</text>
</a>
</g>
</g>
<!-- Node0&#45;&gt;Node18 -->
<g id="edge50_Node000000_Node000018" class="edge">
<title>Node0&#45;&gt;Node18</title>
<g id="a_edge50_Node000000_Node000018"><a xlink:title=" ">
<path fill="none" stroke="#63b8ff" d="M109.4,-1056.07C132.08,-1079.49 168.66,-1113.77 206.5,-1134.75 212.39,-1138.02 218.75,-1140.93 225.23,-1143.51"/>
<polygon fill="#63b8ff" stroke="#63b8ff" points="112.17,-1053.9 102.74,-1049.07 107.09,-1058.72 112.17,-1053.9"/>
</a>
</g>
</g>
<!-- Node19 -->
<g id="Node000019" class="node">
<title>Node19</title>
<g id="a_Node000019"><a xlink:href="d9/dd2/classrm_1_1ExtendedKalmanFilter.html" target="_top" xlink:title=" ">
<polygon fill="white" stroke="#666666" points="363.5,-1125.5 220,-1125.5 220,-1092 363.5,-1092 363.5,-1125.5"/>
<text xml:space="preserve" text-anchor="start" x="228" y="-1112" font-family="Helvetica,sans-Serif" font-size="10.00">rm::ExtendedKalmanFilter</text>
<text xml:space="preserve" text-anchor="middle" x="291.75" y="-1099.25" font-family="Helvetica,sans-Serif" font-size="10.00">&lt; float, 8U, 3U &gt;</text>
</a>
</g>
</g>
<!-- Node0&#45;&gt;Node19 -->
<g id="edge51_Node000000_Node000019" class="edge">
<title>Node0&#45;&gt;Node19</title>
<g id="a_edge51_Node000000_Node000019"><a xlink:title=" ">
<path fill="none" stroke="#63b8ff" d="M133.58,-1052.63C155.53,-1062.41 182.11,-1073.74 206.5,-1082.75 214.68,-1085.77 223.4,-1088.74 232.01,-1091.52"/>
<polygon fill="#63b8ff" stroke="#63b8ff" points="135.14,-1049.5 124.58,-1048.59 132.27,-1055.88 135.14,-1049.5"/>
</a>
</g>
</g>
<!-- Node20 -->
<g id="Node000020" class="node">
<title>Node20</title>
<g id="a_Node000020"><a xlink:href="d9/dd2/classrm_1_1ExtendedKalmanFilter.html" target="_top" xlink:title=" ">
<polygon fill="white" stroke="#666666" points="363.5,-1073.5 220,-1073.5 220,-1040 363.5,-1040 363.5,-1073.5"/>
<text xml:space="preserve" text-anchor="start" x="228" y="-1060" font-family="Helvetica,sans-Serif" font-size="10.00">rm::ExtendedKalmanFilter</text>
<text xml:space="preserve" text-anchor="middle" x="291.75" y="-1047.25" font-family="Helvetica,sans-Serif" font-size="10.00">&lt; double, 8U, 3U &gt;</text>
</a>
</g>
</g>
<!-- Node0&#45;&gt;Node20 -->
<g id="edge52_Node000000_Node000020" class="edge">
<title>Node0&#45;&gt;Node20</title>
<g id="a_edge52_Node000000_Node000020"><a xlink:title=" ">
<path fill="none" stroke="#63b8ff" d="M182.03,-1042.93C194.76,-1044.55 207.62,-1046.18 219.82,-1047.73"/>
<polygon fill="#63b8ff" stroke="#63b8ff" points="182.77,-1039.49 172.41,-1041.7 181.88,-1046.44 182.77,-1039.49"/>
</a>
</g>
</g>
<!-- Node21 -->
<g id="Node000021" class="node">
<title>Node21</title>
<g id="a_Node000021"><a xlink:href="d9/dd2/classrm_1_1ExtendedKalmanFilter.html" target="_top" xlink:title=" ">
<polygon fill="white" stroke="#666666" points="363.5,-1021.5 220,-1021.5 220,-988 363.5,-988 363.5,-1021.5"/>
<text xml:space="preserve" text-anchor="start" x="228" y="-1008" font-family="Helvetica,sans-Serif" font-size="10.00">rm::ExtendedKalmanFilter</text>
<text xml:space="preserve" text-anchor="middle" x="291.75" y="-995.25" font-family="Helvetica,sans-Serif" font-size="10.00">&lt; float, 8U, 4U &gt;</text>
</a>
</g>
</g>
<!-- Node0&#45;&gt;Node21 -->
<g id="edge53_Node000000_Node000021" class="edge">
<title>Node0&#45;&gt;Node21</title>
<g id="a_edge53_Node000000_Node000021"><a xlink:title=" ">
<path fill="none" stroke="#63b8ff" d="M182.03,-1018.57C194.76,-1016.95 207.62,-1015.32 219.82,-1013.77"/>
<polygon fill="#63b8ff" stroke="#63b8ff" points="181.88,-1015.06 172.41,-1019.8 182.77,-1022.01 181.88,-1015.06"/>
</a>
</g>
</g>
<!-- Node22 -->
<g id="Node000022" class="node">
<title>Node22</title>
<g id="a_Node000022"><a xlink:href="d9/dd2/classrm_1_1ExtendedKalmanFilter.html" target="_top" xlink:title=" ">
<polygon fill="white" stroke="#666666" points="363.5,-969.5 220,-969.5 220,-936 363.5,-936 363.5,-969.5"/>
<text xml:space="preserve" text-anchor="start" x="228" y="-956" font-family="Helvetica,sans-Serif" font-size="10.00">rm::ExtendedKalmanFilter</text>
<text xml:space="preserve" text-anchor="middle" x="291.75" y="-943.25" font-family="Helvetica,sans-Serif" font-size="10.00">&lt; double, 8U, 4U &gt;</text>
</a>
</g>
</g>
<!-- Node0&#45;&gt;Node22 -->
<g id="edge54_Node000000_Node000022" class="edge">
<title>Node0&#45;&gt;Node22</title>
<g id="a_edge54_Node000000_Node000022"><a xlink:title=" ">
<path fill="none" stroke="#63b8ff" d="M133.58,-1008.87C155.53,-999.09 182.11,-987.76 206.5,-978.75 214.68,-975.73 223.4,-972.76 232.01,-969.98"/>
<polygon fill="#63b8ff" stroke="#63b8ff" points="132.27,-1005.62 124.58,-1012.91 135.14,-1012 132.27,-1005.62"/>
</a>
</g>
</g>
<!-- Node23 -->
<g id="Node000023" class="node">
<title>Node23</title>
<g id="a_Node000023"><a xlink:href="d9/dd2/classrm_1_1ExtendedKalmanFilter.html" target="_top" xlink:title=" ">
<polygon fill="white" stroke="#666666" points="363.5,-917.5 220,-917.5 220,-884 363.5,-884 363.5,-917.5"/>
<text xml:space="preserve" text-anchor="start" x="228" y="-904" font-family="Helvetica,sans-Serif" font-size="10.00">rm::ExtendedKalmanFilter</text>
<text xml:space="preserve" text-anchor="middle" x="291.75" y="-891.25" font-family="Helvetica,sans-Serif" font-size="10.00">&lt; float, 9U, 4U &gt;</text>
</a>
</g>
</g>
<!-- Node0&#45;&gt;Node23 -->
<g id="edge55_Node000000_Node000023" class="edge">
<title>Node0&#45;&gt;Node23</title>
<g id="a_edge55_Node000000_Node000023"><a xlink:title=" ">
<path fill="none" stroke="#63b8ff" d="M109.4,-1005.43C132.08,-982.01 168.66,-947.73 206.5,-926.75 212.39,-923.48 218.75,-920.57 225.23,-917.99"/>
<polygon fill="#63b8ff" stroke="#63b8ff" points="107.09,-1002.78 102.74,-1012.43 112.17,-1007.6 107.09,-1002.78"/>
</a>
</g>
</g>
<!-- Node24 -->
<g id="Node000024" class="node">
<title>Node24</title>
<g id="a_Node000024"><a xlink:href="d9/dd2/classrm_1_1ExtendedKalmanFilter.html" target="_top" xlink:title=" ">
<polygon fill="white" stroke="#666666" points="363.5,-865.5 220,-865.5 220,-832 363.5,-832 363.5,-865.5"/>
<text xml:space="preserve" text-anchor="start" x="228" y="-852" font-family="Helvetica,sans-Serif" font-size="10.00">rm::ExtendedKalmanFilter</text>
<text xml:space="preserve" text-anchor="middle" x="291.75" y="-839.25" font-family="Helvetica,sans-Serif" font-size="10.00">&lt; double, 9U, 4U &gt;</text>
</a>
</g>
</g>
<!-- Node0&#45;&gt;Node24 -->
<g id="edge56_Node000000_Node000024" class="edge">
<title>Node0&#45;&gt;Node24</title>
<g id="a_edge56_Node000000_Node000024"><a xlink:title=" ">
<path fill="none" stroke="#63b8ff" d="M100.01,-1003.97C119.24,-969.18 157.36,-908.85 206.5,-874.75 211.28,-871.43 216.5,-868.53 221.91,-865.99"/>
<polygon fill="#63b8ff" stroke="#63b8ff" points="97.05,-1002.1 95.38,-1012.56 103.21,-1005.42 97.05,-1002.1"/>
</a>
</g>
</g>
<!-- Node25 -->
<g id="Node000025" class="node">
<title>Node25</title>
<g id="a_Node000025"><a xlink:href="d9/d1a/classrm_1_1KalmanFilter.html" target="_top" xlink:title=" ">
<polygon fill="white" stroke="#666666" points="358.62,-813.5 224.88,-813.5 224.88,-780 358.62,-780 358.62,-813.5"/>
<text xml:space="preserve" text-anchor="start" x="232.88" y="-800" font-family="Helvetica,sans-Serif" font-size="10.00">rm::KalmanFilter&lt; float,</text>
<text xml:space="preserve" text-anchor="middle" x="291.75" y="-787.25" font-family="Helvetica,sans-Serif" font-size="10.00"> 2U, 1U &gt;</text>
</a>
</g>
</g>
<!-- Node0&#45;&gt;Node25 -->
<g id="edge57_Node000000_Node000025" class="edge">
<title>Node0&#45;&gt;Node25</title>
<g id="a_edge57_Node000000_Node000025"><a xlink:title=" ">
<path fill="none" stroke="#63b8ff" d="M94.95,-1002.7C110.24,-958.03 146.17,-870.84 206.5,-822.75 212.01,-818.36 218.25,-814.71 224.8,-811.67"/>
<polygon fill="#63b8ff" stroke="#63b8ff" points="91.64,-1001.58 91.82,-1012.17 98.28,-1003.78 91.64,-1001.58"/>
</a>
</g>
</g>
<!-- Node26 -->
<g id="Node000026" class="node">
<title>Node26</title>
<g id="a_Node000026"><a xlink:href="d9/d1a/classrm_1_1KalmanFilter.html" target="_top" xlink:title=" ">
<polygon fill="white" stroke="#666666" points="364.25,-761.5 219.25,-761.5 219.25,-728 364.25,-728 364.25,-761.5"/>
<text xml:space="preserve" text-anchor="start" x="227.25" y="-748" font-family="Helvetica,sans-Serif" font-size="10.00">rm::KalmanFilter&lt; double,</text>
<text xml:space="preserve" text-anchor="middle" x="291.75" y="-735.25" font-family="Helvetica,sans-Serif" font-size="10.00"> 2U, 1U &gt;</text>
</a>
</g>
</g>
<!-- Node0&#45;&gt;Node26 -->
<g id="edge58_Node000000_Node000026" class="edge">
<title>Node0&#45;&gt;Node26</title>
<g id="a_edge58_Node000000_Node000026"><a xlink:title=" ">
<path fill="none" stroke="#63b8ff" d="M91.47,-1002.33C102.75,-949.03 134.43,-833.77 206.5,-770.75 210.3,-767.42 214.53,-764.53 219,-762"/>
<polygon fill="#63b8ff" stroke="#63b8ff" points="88.04,-1001.63 89.5,-1012.12 94.91,-1003.01 88.04,-1001.63"/>
</a>
</g>
</g>
<!-- Node27 -->
<g id="Node000027" class="node">
<title>Node27</title>
<g id="a_Node000027"><a xlink:href="d9/d1a/classrm_1_1KalmanFilter.html" target="_top" xlink:title=" ">
<polygon fill="white" stroke="#666666" points="358.62,-709.5 224.88,-709.5 224.88,-676 358.62,-676 358.62,-709.5"/>
<text xml:space="preserve" text-anchor="start" x="232.88" y="-696" font-family="Helvetica,sans-Serif" font-size="10.00">rm::KalmanFilter&lt; float,</text>
<text xml:space="preserve" text-anchor="middle" x="291.75" y="-683.25" font-family="Helvetica,sans-Serif" font-size="10.00"> 3U, 1U &gt;</text>
</a>
</g>
</g>
<!-- Node0&#45;&gt;Node27 -->
<g id="edge59_Node000000_Node000027" class="edge">
<title>Node0&#45;&gt;Node27</title>
<g id="a_edge59_Node000000_Node000027"><a xlink:title=" ">
<path fill="none" stroke="#63b8ff" d="M89,-1002.35C96.41,-941.42 122.35,-797.33 206.5,-718.75 211.76,-713.84 217.93,-709.86 224.49,-706.62"/>
<polygon fill="#63b8ff" stroke="#63b8ff" points="85.53,-1001.88 87.88,-1012.21 92.48,-1002.66 85.53,-1001.88"/>
</a>
</g>
</g>
<!-- Node28 -->
<g id="Node000028" class="node">
<title>Node28</title>
<g id="a_Node000028"><a xlink:href="d9/d1a/classrm_1_1KalmanFilter.html" target="_top" xlink:title=" ">
<polygon fill="white" stroke="#666666" points="364.25,-657.5 219.25,-657.5 219.25,-624 364.25,-624 364.25,-657.5"/>
<text xml:space="preserve" text-anchor="start" x="227.25" y="-644" font-family="Helvetica,sans-Serif" font-size="10.00">rm::KalmanFilter&lt; double,</text>
<text xml:space="preserve" text-anchor="middle" x="291.75" y="-631.25" font-family="Helvetica,sans-Serif" font-size="10.00"> 3U, 1U &gt;</text>
</a>
</g>
</g>
<!-- Node0&#45;&gt;Node28 -->
<g id="edge60_Node000000_Node000028" class="edge">
<title>Node0&#45;&gt;Node28</title>
<g id="a_edge60_Node000000_Node000028"><a xlink:title=" ">
<path fill="none" stroke="#63b8ff" d="M87.18,-1002.44C90.97,-934.58 110.09,-761.28 206.5,-666.75 210.22,-663.11 214.43,-659.97 218.95,-657.28"/>
<polygon fill="#63b8ff" stroke="#63b8ff" points="83.69,-1002.17 86.71,-1012.33 90.68,-1002.51 83.69,-1002.17"/>
</a>
</g>
</g>
<!-- Node29 -->
<g id="Node000029" class="node">
<title>Node29</title>
<g id="a_Node000029"><a xlink:href="d9/d1a/classrm_1_1KalmanFilter.html" target="_top" xlink:title=" ">
<polygon fill="white" stroke="#666666" points="358.62,-605.5 224.88,-605.5 224.88,-572 358.62,-572 358.62,-605.5"/>
<text xml:space="preserve" text-anchor="start" x="232.88" y="-592" font-family="Helvetica,sans-Serif" font-size="10.00">rm::KalmanFilter&lt; float,</text>
<text xml:space="preserve" text-anchor="middle" x="291.75" y="-579.25" font-family="Helvetica,sans-Serif" font-size="10.00"> 3U, 2U &gt;</text>
</a>
</g>
</g>
<!-- Node0&#45;&gt;Node29 -->
<g id="edge61_Node000000_Node000029" class="edge">
<title>Node0&#45;&gt;Node29</title>
<g id="a_edge61_Node000000_Node000029"><a xlink:title=" ">
<path fill="none" stroke="#63b8ff" d="M85.8,-1002.53C86.19,-928.27 97.71,-725.51 206.5,-614.75 211.65,-609.51 217.83,-605.32 224.47,-601.97"/>
<polygon fill="#63b8ff" stroke="#63b8ff" points="82.3,-1002.2 85.82,-1012.19 89.3,-1002.18 82.3,-1002.2"/>
</a>
</g>
</g>
<!-- Node30 -->
<g id="Node000030" class="node">
<title>Node30</title>
<g id="a_Node000030"><a xlink:href="d9/d1a/classrm_1_1KalmanFilter.html" target="_top" xlink:title=" ">
<polygon fill="white" stroke="#666666" points="364.25,-553.5 219.25,-553.5 219.25,-520 364.25,-520 364.25,-553.5"/>
<text xml:space="preserve" text-anchor="start" x="227.25" y="-540" font-family="Helvetica,sans-Serif" font-size="10.00">rm::KalmanFilter&lt; double,</text>
<text xml:space="preserve" text-anchor="middle" x="291.75" y="-527.25" font-family="Helvetica,sans-Serif" font-size="10.00"> 3U, 2U &gt;</text>
</a>
</g>
</g>
<!-- Node0&#45;&gt;Node30 -->
<g id="edge62_Node000000_Node000030" class="edge">
<title>Node0&#45;&gt;Node30</title>
<g id="a_edge62_Node000000_Node000030"><a xlink:title=" ">
<path fill="none" stroke="#63b8ff" d="M89.91,-1002.23C102.18,-910.88 144.59,-627.7 206.5,-562.75 210.2,-558.87 214.46,-555.57 219.06,-552.75"/>
<polygon fill="#63b8ff" stroke="#63b8ff" points="86.45,-1001.7 88.61,-1012.07 93.39,-1002.62 86.45,-1001.7"/>
</a>
</g>
</g>
<!-- Node31 -->
<g id="Node000031" class="node">
<title>Node31</title>
<g id="a_Node000031"><a xlink:href="d9/d1a/classrm_1_1KalmanFilter.html" target="_top" xlink:title=" ">
<polygon fill="white" stroke="#666666" points="358.62,-501.5 224.88,-501.5 224.88,-468 358.62,-468 358.62,-501.5"/>
<text xml:space="preserve" text-anchor="start" x="232.88" y="-488" font-family="Helvetica,sans-Serif" font-size="10.00">rm::KalmanFilter&lt; float,</text>
<text xml:space="preserve" text-anchor="middle" x="291.75" y="-475.25" font-family="Helvetica,sans-Serif" font-size="10.00"> 4U, 2U &gt;</text>
</a>
</g>
</g>
<!-- Node0&#45;&gt;Node31 -->
<g id="edge63_Node000000_Node000031" class="edge">
<title>Node0&#45;&gt;Node31</title>
<g id="a_edge63_Node000000_Node000031"><a xlink:title=" ">
<path fill="none" stroke="#63b8ff" d="M89.11,-1002.34C99.5,-904.58 138.25,-584.1 206.5,-510.75 211.61,-505.26 217.85,-500.92 224.6,-497.49"/>
<polygon fill="#63b8ff" stroke="#63b8ff" points="85.65,-1001.81 88.09,-1012.12 92.61,-1002.53 85.65,-1001.81"/>
</a>
</g>
</g>
<!-- Node32 -->
<g id="Node000032" class="node">
<title>Node32</title>
<g id="a_Node000032"><a xlink:href="d9/d1a/classrm_1_1KalmanFilter.html" target="_top" xlink:title=" ">
<polygon fill="white" stroke="#666666" points="364.25,-449.5 219.25,-449.5 219.25,-416 364.25,-416 364.25,-449.5"/>
<text xml:space="preserve" text-anchor="start" x="227.25" y="-436" font-family="Helvetica,sans-Serif" font-size="10.00">rm::KalmanFilter&lt; double,</text>
<text xml:space="preserve" text-anchor="middle" x="291.75" y="-423.25" font-family="Helvetica,sans-Serif" font-size="10.00"> 4U, 2U &gt;</text>
</a>
</g>
</g>
<!-- Node0&#45;&gt;Node32 -->
<g id="edge64_Node000000_Node000032" class="edge">
<title>Node0&#45;&gt;Node32</title>
<g id="a_edge64_Node000000_Node000032"><a xlink:title=" ">
<path fill="none" stroke="#63b8ff" d="M88.47,-1002.27C97.13,-898.24 131.93,-540.53 206.5,-458.75 210.11,-454.79 214.31,-451.43 218.86,-448.57"/>
<polygon fill="#63b8ff" stroke="#63b8ff" points="84.99,-1001.91 87.66,-1012.16 91.97,-1002.48 84.99,-1001.91"/>
</a>
</g>
</g>
<!-- Node33 -->
<g id="Node000033" class="node">
<title>Node33</title>
<g id="a_Node000033"><a xlink:href="d9/d1a/classrm_1_1KalmanFilter.html" target="_top" xlink:title=" ">
<polygon fill="white" stroke="#666666" points="358.62,-397.5 224.88,-397.5 224.88,-364 358.62,-364 358.62,-397.5"/>
<text xml:space="preserve" text-anchor="start" x="232.88" y="-384" font-family="Helvetica,sans-Serif" font-size="10.00">rm::KalmanFilter&lt; float,</text>
<text xml:space="preserve" text-anchor="middle" x="291.75" y="-371.25" font-family="Helvetica,sans-Serif" font-size="10.00"> 6U, 3U &gt;</text>
</a>
</g>
</g>
<!-- Node0&#45;&gt;Node33 -->
<g id="edge65_Node000000_Node000033" class="edge">
<title>Node0&#45;&gt;Node33</title>
<g id="a_edge65_Node000000_Node000033"><a xlink:title=" ">
<path fill="none" stroke="#63b8ff" d="M87.93,-1002.23C94.97,-892.21 125.57,-497.02 206.5,-406.75 211.51,-401.17 217.68,-396.77 224.4,-393.3"/>
<polygon fill="#63b8ff" stroke="#63b8ff" points="84.44,-1001.94 87.31,-1012.14 91.43,-1002.37 84.44,-1001.94"/>
</a>
</g>
</g>
<!-- Node34 -->
<g id="Node000034" class="node">
<title>Node34</title>
<g id="a_Node000034"><a xlink:href="d9/d1a/classrm_1_1KalmanFilter.html" target="_top" xlink:title=" ">
<polygon fill="white" stroke="#666666" points="364.25,-345.5 219.25,-345.5 219.25,-312 364.25,-312 364.25,-345.5"/>
<text xml:space="preserve" text-anchor="start" x="227.25" y="-332" font-family="Helvetica,sans-Serif" font-size="10.00">rm::KalmanFilter&lt; double,</text>
<text xml:space="preserve" text-anchor="middle" x="291.75" y="-319.25" font-family="Helvetica,sans-Serif" font-size="10.00"> 6U, 3U &gt;</text>
</a>
</g>
</g>
<!-- Node0&#45;&gt;Node34 -->
<g id="edge66_Node000000_Node000034" class="edge">
<title>Node0&#45;&gt;Node34</title>
<g id="a_edge66_Node000000_Node000034"><a xlink:title=" ">
<path fill="none" stroke="#63b8ff" d="M87.47,-1002.13C92.99,-886.28 119.2,-453.54 206.5,-354.75 210.15,-350.62 214.44,-347.14 219.11,-344.2"/>
<polygon fill="#63b8ff" stroke="#63b8ff" points="83.98,-1001.84 87.02,-1011.99 90.98,-1002.16 83.98,-1001.84"/>
</a>
</g>
</g>
<!-- Node35 -->
<g id="Node000035" class="node">
<title>Node35</title>
<g id="a_Node000035"><a xlink:href="d9/d1a/classrm_1_1KalmanFilter.html" target="_top" xlink:title=" ">
<polygon fill="white" stroke="#666666" points="358.62,-293.5 224.88,-293.5 224.88,-260 358.62,-260 358.62,-293.5"/>
<text xml:space="preserve" text-anchor="start" x="232.88" y="-280" font-family="Helvetica,sans-Serif" font-size="10.00">rm::KalmanFilter&lt; float,</text>
<text xml:space="preserve" text-anchor="middle" x="291.75" y="-267.25" font-family="Helvetica,sans-Serif" font-size="10.00"> 6U, 4U &gt;</text>
</a>
</g>
</g>
<!-- Node0&#45;&gt;Node35 -->
<g id="edge67_Node000000_Node000035" class="edge">
<title>Node0&#45;&gt;Node35</title>
<g id="a_edge67_Node000000_Node000035"><a xlink:title=" ">
<path fill="none" stroke="#63b8ff" d="M87.07,-1002.3C91.12,-881.23 112.74,-410.17 206.5,-302.75 211.53,-296.98 217.81,-292.48 224.66,-288.96"/>
<polygon fill="#63b8ff" stroke="#63b8ff" points="83.58,-1001.89 86.76,-1011.99 90.58,-1002.11 83.58,-1001.89"/>
</a>
</g>
</g>
<!-- Node36 -->
<g id="Node000036" class="node">
<title>Node36</title>
<g id="a_Node000036"><a xlink:href="d9/d1a/classrm_1_1KalmanFilter.html" target="_top" xlink:title=" ">
<polygon fill="white" stroke="#666666" points="364.25,-241.5 219.25,-241.5 219.25,-208 364.25,-208 364.25,-241.5"/>
<text xml:space="preserve" text-anchor="start" x="227.25" y="-228" font-family="Helvetica,sans-Serif" font-size="10.00">rm::KalmanFilter&lt; double,</text>
<text xml:space="preserve" text-anchor="middle" x="291.75" y="-215.25" font-family="Helvetica,sans-Serif" font-size="10.00"> 6U, 4U &gt;</text>
</a>
</g>
</g>
<!-- Node0&#45;&gt;Node36 -->
<g id="edge68_Node000000_Node000036" class="edge">
<title>Node0&#45;&gt;Node36</title>
<g id="a_edge68_Node000000_Node000036"><a xlink:title=" ">
<path fill="none" stroke="#63b8ff" d="M86.72,-1002.34C89.39,-876.05 106.3,-366.8 206.5,-250.75 210.1,-246.58 214.36,-243.07 219.01,-240.11"/>
<polygon fill="#63b8ff" stroke="#63b8ff" points="83.23,-1002.07 86.53,-1012.14 90.23,-1002.21 83.23,-1002.07"/>
</a>
</g>
</g>
<!-- Node37 -->
<g id="Node000037" class="node">
<title>Node37</title>
<g id="a_Node000037"><a xlink:href="d9/d1a/classrm_1_1KalmanFilter.html" target="_top" xlink:title=" ">
<polygon fill="white" stroke="#666666" points="358.62,-189.5 224.88,-189.5 224.88,-156 358.62,-156 358.62,-189.5"/>
<text xml:space="preserve" text-anchor="start" x="232.88" y="-176" font-family="Helvetica,sans-Serif" font-size="10.00">rm::KalmanFilter&lt; float,</text>
<text xml:space="preserve" text-anchor="middle" x="291.75" y="-163.25" font-family="Helvetica,sans-Serif" font-size="10.00"> 7U, 3U &gt;</text>
</a>
</g>
</g>
<!-- Node0&#45;&gt;Node37 -->
<g id="edge69_Node000000_Node000037" class="edge">
<title>Node0&#45;&gt;Node37</title>
<g id="a_edge69_Node000000_Node000037"><a xlink:title=" ">
<path fill="none" stroke="#63b8ff" d="M86.42,-1002.16C87.79,-870.45 99.91,-323.39 206.5,-198.75 211.47,-192.93 217.72,-188.4 224.55,-184.86"/>
<polygon fill="#63b8ff" stroke="#63b8ff" points="82.92,-1002.03 86.33,-1012.06 89.92,-1002.09 82.92,-1002.03"/>
</a>
</g>
</g>
<!-- Node38 -->
<g id="Node000038" class="node">
<title>Node38</title>
<g id="a_Node000038"><a xlink:href="d9/d1a/classrm_1_1KalmanFilter.html" target="_top" xlink:title=" ">
<polygon fill="white" stroke="#666666" points="364.25,-137.5 219.25,-137.5 219.25,-104 364.25,-104 364.25,-137.5"/>
<text xml:space="preserve" text-anchor="start" x="227.25" y="-124" font-family="Helvetica,sans-Serif" font-size="10.00">rm::KalmanFilter&lt; double,</text>
<text xml:space="preserve" text-anchor="middle" x="291.75" y="-111.25" font-family="Helvetica,sans-Serif" font-size="10.00"> 7U, 3U &gt;</text>
</a>
</g>
</g>
<!-- Node0&#45;&gt;Node38 -->
<g id="edge70_Node000000_Node000038" class="edge">
<title>Node0&#45;&gt;Node38</title>
<g id="a_edge70_Node000000_Node000038"><a xlink:title=" ">
<path fill="none" stroke="#63b8ff" d="M86.15,-1002.14C86.27,-865.45 93.45,-280.06 206.5,-146.75 210.06,-142.55 214.29,-139.01 218.93,-136.04"/>
<polygon fill="#63b8ff" stroke="#63b8ff" points="82.65,-1002.09 86.16,-1012.09 89.65,-1002.09 82.65,-1002.09"/>
</a>
</g>
</g>
<!-- Node39 -->
<g id="Node000039" class="node">
<title>Node39</title>
<g id="a_Node000039"><a xlink:href="d9/dd2/classrm_1_1ExtendedKalmanFilter.html" target="_top" xlink:title="扩展卡尔曼滤波器">
<polygon fill="white" stroke="#666666" points="377,-85.5 206.5,-85.5 206.5,-52 377,-52 377,-85.5"/>
<text xml:space="preserve" text-anchor="start" x="214.5" y="-72" font-family="Helvetica,sans-Serif" font-size="10.00">rm::ExtendedKalmanFilter</text>
<text xml:space="preserve" text-anchor="middle" x="291.75" y="-59.25" font-family="Helvetica,sans-Serif" font-size="10.00">&lt; Tp, StateDim, MeasureDim &gt;</text>
</a>
</g>
</g>
<!-- Node0&#45;&gt;Node39 -->
<g id="edge71_Node000000_Node000039" class="edge">
<title>Node0&#45;&gt;Node39</title>
<g id="a_edge71_Node000000_Node000039"><a xlink:title=" ">
<path fill="none" stroke="#63b8ff" d="M85.92,-1002.28C84.83,-861.05 86.94,-236.81 206.5,-94.75 209.36,-91.35 212.65,-88.39 216.24,-85.81"/>
<polygon fill="#63b8ff" stroke="#63b8ff" points="82.41,-1002.24 86.01,-1012.21 89.41,-1002.18 82.41,-1002.24"/>
</a>
</g>
</g>
<!-- Node40 -->
<g id="Node000040" class="node">
<title>Node40</title>
<g id="a_Node000040"><a xlink:href="d9/d1a/classrm_1_1KalmanFilter.html" target="_top" xlink:title="卡尔曼滤波器">
<polygon fill="white" stroke="#666666" points="363.88,-33.5 219.62,-33.5 219.62,0 363.88,0 363.88,-33.5"/>
<text xml:space="preserve" text-anchor="start" x="227.62" y="-20" font-family="Helvetica,sans-Serif" font-size="10.00">rm::KalmanFilter&lt; Tp,</text>
<text xml:space="preserve" text-anchor="middle" x="291.75" y="-7.25" font-family="Helvetica,sans-Serif" font-size="10.00"> StateDim, MeasureDim &gt;</text>
</a>
</g>
</g>
<!-- Node0&#45;&gt;Node40 -->
<g id="edge72_Node000000_Node000040" class="edge">
<title>Node0&#45;&gt;Node40</title>
<g id="a_edge72_Node000000_Node000040"><a xlink:title=" ">
<path fill="none" stroke="#63b8ff" d="M87.86,-1002.73C96.88,-849.64 143.04,-118.66 206.5,-42.75 210.13,-38.4 214.48,-34.77 219.25,-31.74"/>
<polygon fill="#63b8ff" stroke="#63b8ff" points="84.38,-1002.17 87.3,-1012.35 91.37,-1002.58 84.38,-1002.17"/>
</a>
</g>
</g>
</g>
</svg>
