<?xml version="1.0" encoding="UTF-8" standalone="no"?>
<!DOCTYPE svg PUBLIC "-//W3C//DTD SVG 1.1//EN"
 "http://www.w3.org/Graphics/SVG/1.1/DTD/svg11.dtd">
<!-- Generated by graphviz version 14.1.2 (0)
 -->
<!-- Title: 类继承关系图 Pages: 1 -->
<svg width="284pt" height="94pt"
 viewBox="0.00 0.00 284.00 94.00" xmlns="http://www.w3.org/2000/svg" xmlns:xlink="http://www.w3.org/1999/xlink">
<g id="graph0" class="graph" transform="scale(1 1) rotate(0) translate(4 89.5)">
<title>类继承关系图</title>
<!-- Node0 -->
<g id="Node000000" class="node">
<title>Node0</title>
<g id="a_Node000000"><a xlink:title=" ">
<polygon fill="#e0e0e0" stroke="#999999" points="108.25,-59.5 0,-59.5 0,-26 108.25,-26 108.25,-59.5"/>
<text xml:space="preserve" text-anchor="start" x="8" y="-46" font-family="Helvetica,sans-Serif" font-size="10.00">std::enable_shared</text>
<text xml:space="preserve" text-anchor="middle" x="54.12" y="-33.25" font-family="Helvetica,sans-Serif" font-size="10.00">_from_this</text>
</a>
</g>
</g>
<!-- Node1 -->
<g id="Node000001" class="node">
<title>Node1</title>
<g id="a_Node000001"><a xlink:href="d3/d9d/classrm_1_1lpss_1_1async_1_1Client.html" target="_top" xlink:title="异步客户端代理">
<polygon fill="white" stroke="#666666" points="272,-85.5 148,-85.5 148,-52 272,-52 272,-85.5"/>
<text xml:space="preserve" text-anchor="start" x="156" y="-72" font-family="Helvetica,sans-Serif" font-size="10.00">rm::lpss::async::Client</text>
<text xml:space="preserve" text-anchor="middle" x="210" y="-59.25" font-family="Helvetica,sans-Serif" font-size="10.00">&lt; SrvType &gt;</text>
</a>
</g>
</g>
<!-- Node0&#45;&gt;Node1 -->
<g id="edge70_Node000000_Node000001" class="edge">
<title>Node0&#45;&gt;Node1</title>
<g id="a_edge70_Node000000_Node000001"><a xlink:title=" ">
<path fill="none" stroke="#63b8ff" d="M119.62,-53.65C128.86,-55.21 138.35,-56.81 147.53,-58.36"/>
<polygon fill="#63b8ff" stroke="#63b8ff" points="120.45,-50.24 110,-52.02 119.28,-57.14 120.45,-50.24"/>
</a>
</g>
</g>
<!-- Node2 -->
<g id="Node000002" class="node">
<title>Node2</title>
<g id="a_Node000002"><a xlink:href="d0/d8a/classrm_1_1lpss_1_1async_1_1Service.html" target="_top" xlink:title="异步服务端代理">
<polygon fill="white" stroke="#666666" points="275.75,-33.5 144.25,-33.5 144.25,0 275.75,0 275.75,-33.5"/>
<text xml:space="preserve" text-anchor="start" x="152.25" y="-20" font-family="Helvetica,sans-Serif" font-size="10.00">rm::lpss::async::Service</text>
<text xml:space="preserve" text-anchor="middle" x="210" y="-7.25" font-family="Helvetica,sans-Serif" font-size="10.00">&lt; SrvType &gt;</text>
</a>
</g>
</g>
<!-- Node0&#45;&gt;Node2 -->
<g id="edge71_Node000000_Node000002" class="edge">
<title>Node0&#45;&gt;Node2</title>
<g id="a_edge71_Node000000_Node000002"><a xlink:title=" ">
<path fill="none" stroke="#63b8ff" d="M119.63,-31.85C127.62,-30.5 135.78,-29.12 143.77,-27.77"/>
<polygon fill="#63b8ff" stroke="#63b8ff" points="119.28,-28.36 110,-33.48 120.45,-35.26 119.28,-28.36"/>
</a>
</g>
</g>
</g>
</svg>
