<?xml version="1.0" encoding="UTF-8" standalone="no"?>
<!DOCTYPE svg PUBLIC "-//W3C//DTD SVG 1.1//EN"
 "http://www.w3.org/Graphics/SVG/1.1/DTD/svg11.dtd">
<!-- Generated by graphviz version 2.43.0 (0)
 -->
<!-- Title: 类继承关系图 Pages: 1 -->
<svg width="321pt" height="101pt"
 viewBox="0.00 0.00 321.00 101.00" xmlns="http://www.w3.org/2000/svg" xmlns:xlink="http://www.w3.org/1999/xlink">
<g id="graph0" class="graph" transform="scale(1 1) rotate(0) translate(4 97)">
<title>类继承关系图</title>
<!-- Node0 -->
<g id="Node000000" class="node">
<title>Node0</title>
<g id="a_Node000000"><a xlink:href="da/df7/classrm_1_1lpss_1_1ctl_1_1ControlLawBase.html" target="_top" xlink:title="【控制律组件】控制律基类，供 RobotController 组合调用">
<polygon fill="white" stroke="#666666" points="146,-56 0,-56 0,-37 146,-37 146,-56"/>
<text text-anchor="middle" x="73" y="-44" font-family="Helvetica,sans-Serif" font-size="10.00">rm::lpss::ctl::ControlLawBase</text>
</a>
</g>
</g>
<!-- Node1 -->
<g id="Node000001" class="node">
<title>Node1</title>
<g id="a_Node000001"><a xlink:href="df/d09/classrm_1_1lpss_1_1ctl_1_1FeedForward.html" target="_top" xlink:title="【控制律组件】离散动态全补偿的前馈环节，适合在已知系统模型或有外部扰动补偿需求时使用">
<polygon fill="white" stroke="#666666" points="313,-93 182,-93 182,-74 313,-74 313,-93"/>
<text text-anchor="middle" x="247.5" y="-81" font-family="Helvetica,sans-Serif" font-size="10.00">rm::lpss::ctl::FeedForward</text>
</a>
</g>
</g>
<!-- Node0&#45;&gt;Node1 -->
<g id="edge70_Node000000_Node000001" class="edge">
<title>Node0&#45;&gt;Node1</title>
<g id="a_edge70_Node000000_Node000001"><a xlink:title=" ">
<path fill="none" stroke="#63b8ff" d="M128.32,-58.15C152.02,-63.23 179.46,-69.12 201.93,-73.94"/>
<polygon fill="#63b8ff" stroke="#63b8ff" points="128.93,-54.7 118.42,-56.03 127.47,-61.55 128.93,-54.7"/>
</a>
</g>
</g>
<!-- Node2 -->
<g id="Node000002" class="node">
<title>Node2</title>
<g id="a_Node000002"><a xlink:href="d9/d28/classrm_1_1lpss_1_1ctl_1_1PID.html" target="_top" xlink:title="【控制律组件】单环离散比例&#45;积分&#45;微分控制器">
<polygon fill="white" stroke="#666666" points="293.5,-56 201.5,-56 201.5,-37 293.5,-37 293.5,-56"/>
<text text-anchor="middle" x="247.5" y="-44" font-family="Helvetica,sans-Serif" font-size="10.00">rm::lpss::ctl::PID</text>
</a>
</g>
</g>
<!-- Node0&#45;&gt;Node2 -->
<g id="edge71_Node000000_Node000002" class="edge">
<title>Node0&#45;&gt;Node2</title>
<g id="a_edge71_Node000000_Node000002"><a xlink:title=" ">
<path fill="none" stroke="#63b8ff" d="M156.28,-46.5C171.74,-46.5 187.38,-46.5 201.2,-46.5"/>
<polygon fill="#63b8ff" stroke="#63b8ff" points="156.16,-43 146.16,-46.5 156.16,-50 156.16,-43"/>
</a>
</g>
</g>
<!-- Node3 -->
<g id="Node000003" class="node">
<title>Node3</title>
<g id="a_Node000003"><a xlink:href="d2/d2b/classrm_1_1lpss_1_1ctl_1_1UnitTF.html" target="_top" xlink:title="【控制律组件】单位传递函数，">
<polygon fill="white" stroke="#666666" points="299.5,-19 195.5,-19 195.5,0 299.5,0 299.5,-19"/>
<text text-anchor="middle" x="247.5" y="-7" font-family="Helvetica,sans-Serif" font-size="10.00">rm::lpss::ctl::UnitTF</text>
</a>
</g>
</g>
<!-- Node0&#45;&gt;Node3 -->
<g id="edge72_Node000000_Node000003" class="edge">
<title>Node0&#45;&gt;Node3</title>
<g id="a_edge72_Node000000_Node000003"><a xlink:title=" ">
<path fill="none" stroke="#63b8ff" d="M128.32,-34.85C152.02,-29.77 179.46,-23.88 201.93,-19.06"/>
<polygon fill="#63b8ff" stroke="#63b8ff" points="127.47,-31.45 118.42,-36.97 128.93,-38.3 127.47,-31.45"/>
</a>
</g>
</g>
</g>
</svg>
