<?xml version="1.0" encoding="UTF-8" standalone="no"?>
<!DOCTYPE svg PUBLIC "-//W3C//DTD SVG 1.1//EN"
 "http://www.w3.org/Graphics/SVG/1.1/DTD/svg11.dtd">
<!-- Generated by graphviz version 14.1.2 (0)
 -->
<!-- Title: 类继承关系图 Pages: 1 -->
<svg width="541pt" height="614pt"
 viewBox="0.00 0.00 541.00 614.00" xmlns="http://www.w3.org/2000/svg" xmlns:xlink="http://www.w3.org/1999/xlink">
<g id="graph0" class="graph" transform="scale(1 1) rotate(0) translate(4 609.5)">
<title>类继承关系图</title>
<!-- Node0 -->
<g id="Node000000" class="node">
<title>Node0</title>
<g id="a_Node000000"><a xlink:href="d6/d17/classrm_1_1async_1_1AsyncIOAwaiter.html" target="_top" xlink:title="IO 事件异步等待器">
<polygon fill="white" stroke="#666666" points="147.25,-160.12 0,-160.12 0,-139.38 147.25,-139.38 147.25,-160.12"/>
<text xml:space="preserve" text-anchor="middle" x="73.62" y="-146.62" font-family="Helvetica,sans-Serif" font-size="10.00">rm::async::AsyncIOAwaiter</text>
</a>
</g>
</g>
<!-- Node1 -->
<g id="Node000001" class="node">
<title>Node1</title>
<g id="a_Node000001"><a xlink:href="df/df7/classrm_1_1async_1_1AsyncReadAwaiter.html" target="_top" xlink:title="通用异步读等待器，核心操作使用文件 I/O 系统调用的 read、ReadFile，使用者可以通过">
<polygon fill="white" stroke="#666666" points="349.25,-443.12 187.75,-443.12 187.75,-422.38 349.25,-422.38 349.25,-443.12"/>
<text xml:space="preserve" text-anchor="middle" x="268.5" y="-429.62" font-family="Helvetica,sans-Serif" font-size="10.00">rm::async::AsyncReadAwaiter</text>
</a>
</g>
</g>
<!-- Node0&#45;&gt;Node1 -->
<g id="edge2_Node000000_Node000001" class="edge">
<title>Node0&#45;&gt;Node1</title>
<g id="a_edge2_Node000000_Node000001"><a xlink:title=" ">
<path fill="none" stroke="#63b8ff" d="M88.41,-169.98C126.37,-225.67 231.45,-379.86 260.17,-421.99"/>
<polygon fill="#63b8ff" stroke="#63b8ff" points="91.33,-168.04 82.8,-161.75 85.54,-171.98 91.33,-168.04"/>
</a>
</g>
</g>
<!-- Node8 -->
<g id="Node000008" class="node">
<title>Node8</title>
<g id="a_Node000008"><a xlink:href="db/d38/classrm_1_1async_1_1AsyncWriteAwaiter.html" target="_top" xlink:title="通用异步写等待器，核心操作使用文件 I/O 系统调用的 write、WriteFile，使用者可以通过">
<polygon fill="white" stroke="#666666" points="350,-183.12 187,-183.12 187,-162.38 350,-162.38 350,-183.12"/>
<text xml:space="preserve" text-anchor="middle" x="268.5" y="-169.62" font-family="Helvetica,sans-Serif" font-size="10.00">rm::async::AsyncWriteAwaiter</text>
</a>
</g>
</g>
<!-- Node0&#45;&gt;Node8 -->
<g id="edge9_Node000000_Node000008" class="edge">
<title>Node0&#45;&gt;Node8</title>
<g id="a_edge9_Node000000_Node000008"><a xlink:title=" ">
<path fill="none" stroke="#63b8ff" d="M158.77,-159.78C168.05,-160.89 177.49,-162.02 186.73,-163.12"/>
<polygon fill="#63b8ff" stroke="#63b8ff" points="159.39,-156.33 149.05,-158.62 158.56,-163.28 159.39,-156.33"/>
</a>
</g>
</g>
<!-- Node15 -->
<g id="Node000015" class="node">
<title>Node15</title>
<g id="a_Node000015"><a xlink:href="de/d99/classrm_1_1async_1_1Signal_1_1SignalAwaiter.html" target="_top" xlink:title="信号等待器">
<polygon fill="white" stroke="#666666" points="321.5,-144.5 215.5,-144.5 215.5,-111 321.5,-111 321.5,-144.5"/>
<text xml:space="preserve" text-anchor="start" x="223.5" y="-131" font-family="Helvetica,sans-Serif" font-size="10.00">rm::async::Signal::</text>
<text xml:space="preserve" text-anchor="middle" x="268.5" y="-118.25" font-family="Helvetica,sans-Serif" font-size="10.00">SignalAwaiter</text>
</a>
</g>
</g>
<!-- Node0&#45;&gt;Node15 -->
<g id="edge16_Node000000_Node000015" class="edge">
<title>Node0&#45;&gt;Node15</title>
<g id="a_edge16_Node000000_Node000015"><a xlink:title=" ">
<path fill="none" stroke="#63b8ff" d="M158.74,-140.15C177.94,-137.97 197.8,-135.7 215.21,-133.71"/>
<polygon fill="#63b8ff" stroke="#63b8ff" points="158.59,-136.65 149.05,-141.26 159.38,-143.61 158.59,-136.65"/>
</a>
</g>
</g>
<!-- Node16 -->
<g id="Node000016" class="node">
<title>Node16</title>
<g id="a_Node000016"><a xlink:href="da/d52/classrm_1_1async_1_1Timer_1_1TimerAwaiter.html" target="_top" xlink:title="定时等待器">
<polygon fill="white" stroke="#666666" points="353.75,-93.12 183.25,-93.12 183.25,-72.38 353.75,-72.38 353.75,-93.12"/>
<text xml:space="preserve" text-anchor="middle" x="268.5" y="-79.62" font-family="Helvetica,sans-Serif" font-size="10.00">rm::async::Timer::TimerAwaiter</text>
</a>
</g>
</g>
<!-- Node0&#45;&gt;Node16 -->
<g id="edge17_Node000000_Node000016" class="edge">
<title>Node0&#45;&gt;Node16</title>
<g id="a_edge17_Node000000_Node000016"><a xlink:title=" ">
<path fill="none" stroke="#63b8ff" d="M105.89,-133.99C127.26,-123.71 156.45,-110.6 183.25,-101.75 192.5,-98.69 202.49,-95.96 212.24,-93.59"/>
<polygon fill="#63b8ff" stroke="#63b8ff" points="104.59,-130.73 97.14,-138.26 107.66,-137.02 104.59,-130.73"/>
</a>
</g>
</g>
<!-- Node2 -->
<g id="Node000002" class="node">
<title>Node2</title>
<g id="a_Node000002"><a xlink:href="da/dd0/classrm_1_1async_1_1Acceptor_1_1AcceptAwaiter.html" target="_top" xlink:title="接受等待器">
<polygon fill="white" stroke="#666666" points="517.5,-605.5 404.75,-605.5 404.75,-572 517.5,-572 517.5,-605.5"/>
<text xml:space="preserve" text-anchor="start" x="412.75" y="-592" font-family="Helvetica,sans-Serif" font-size="10.00">rm::async::Acceptor</text>
<text xml:space="preserve" text-anchor="middle" x="461.12" y="-579.25" font-family="Helvetica,sans-Serif" font-size="10.00">::AcceptAwaiter</text>
</a>
</g>
</g>
<!-- Node1&#45;&gt;Node2 -->
<g id="edge3_Node000001_Node000002" class="edge">
<title>Node1&#45;&gt;Node2</title>
<g id="a_edge3_Node000001_Node000002"><a xlink:title=" ">
<path fill="none" stroke="#63b8ff" d="M283.17,-452.65C303.43,-480.79 343.99,-532.17 389.75,-562.75 394.62,-566.01 399.96,-568.92 405.44,-571.51"/>
<polygon fill="#63b8ff" stroke="#63b8ff" points="286.15,-450.81 277.52,-444.66 280.43,-454.84 286.15,-450.81"/>
</a>
</g>
</g>
<!-- Node3 -->
<g id="Node000003" class="node">
<title>Node3</title>
<g id="a_Node000003"><a xlink:href="d3/d8d/classrm_1_1async_1_1DgramSocket_1_1SocketMultiReadAwaiter.html" target="_top" xlink:title="数据报式 Socket 多缓冲区异步读等待器">
<polygon fill="white" stroke="#666666" points="531.75,-553.5 390.5,-553.5 390.5,-520 531.75,-520 531.75,-553.5"/>
<text xml:space="preserve" text-anchor="start" x="398.5" y="-540" font-family="Helvetica,sans-Serif" font-size="10.00">rm::async::DgramSocket</text>
<text xml:space="preserve" text-anchor="middle" x="461.12" y="-527.25" font-family="Helvetica,sans-Serif" font-size="10.00">::SocketMultiReadAwaiter</text>
</a>
</g>
</g>
<!-- Node1&#45;&gt;Node3 -->
<g id="edge4_Node000001_Node000003" class="edge">
<title>Node1&#45;&gt;Node3</title>
<g id="a_edge4_Node000001_Node000003"><a xlink:title=" ">
<path fill="none" stroke="#63b8ff" d="M292.86,-450.14C316.44,-467.14 354.32,-492.99 389.75,-510.75 396.04,-513.9 402.8,-516.88 409.57,-519.62"/>
<polygon fill="#63b8ff" stroke="#63b8ff" points="295.05,-447.4 284.91,-444.34 290.92,-453.06 295.05,-447.4"/>
</a>
</g>
</g>
<!-- Node4 -->
<g id="Node000004" class="node">
<title>Node4</title>
<g id="a_Node000004"><a xlink:href="d5/d13/classrm_1_1async_1_1DgramSocket_1_1SocketReadAwaiter.html" target="_top" xlink:title="数据报式 Socket 异步读等待器">
<polygon fill="white" stroke="#666666" points="528.75,-501.5 393.5,-501.5 393.5,-468 528.75,-468 528.75,-501.5"/>
<text xml:space="preserve" text-anchor="start" x="401.5" y="-488" font-family="Helvetica,sans-Serif" font-size="10.00">rm::async::DgramSocket</text>
<text xml:space="preserve" text-anchor="middle" x="461.12" y="-475.25" font-family="Helvetica,sans-Serif" font-size="10.00">::SocketReadAwaiter</text>
</a>
</g>
</g>
<!-- Node1&#45;&gt;Node4 -->
<g id="edge5_Node000001_Node000004" class="edge">
<title>Node1&#45;&gt;Node4</title>
<g id="a_edge5_Node000001_Node000004"><a xlink:title=" ">
<path fill="none" stroke="#63b8ff" d="M319.85,-446.48C343.5,-452.94 371.96,-460.7 397.04,-467.54"/>
<polygon fill="#63b8ff" stroke="#63b8ff" points="321.03,-443.18 310.46,-443.92 319.18,-449.93 321.03,-443.18"/>
</a>
</g>
</g>
<!-- Node5 -->
<g id="Node000005" class="node">
<title>Node5</title>
<g id="a_Node000005"><a xlink:href="df/d02/classrm_1_1async_1_1SerialPort_1_1SerialReadAwaiter.html" target="_top" xlink:title="串口读等待器">
<polygon fill="white" stroke="#666666" points="519.75,-449.5 402.5,-449.5 402.5,-416 519.75,-416 519.75,-449.5"/>
<text xml:space="preserve" text-anchor="start" x="410.5" y="-436" font-family="Helvetica,sans-Serif" font-size="10.00">rm::async::SerialPort</text>
<text xml:space="preserve" text-anchor="middle" x="461.12" y="-423.25" font-family="Helvetica,sans-Serif" font-size="10.00">::SerialReadAwaiter</text>
</a>
</g>
</g>
<!-- Node1&#45;&gt;Node5 -->
<g id="edge6_Node000001_Node000005" class="edge">
<title>Node1&#45;&gt;Node5</title>
<g id="a_edge6_Node000001_Node000005"><a xlink:title=" ">
<path fill="none" stroke="#63b8ff" d="M360.74,-432.75C374.8,-432.75 388.98,-432.75 402.05,-432.75"/>
<polygon fill="#63b8ff" stroke="#63b8ff" points="361.03,-429.25 351.03,-432.75 361.03,-436.25 361.03,-429.25"/>
</a>
</g>
</g>
<!-- Node6 -->
<g id="Node000006" class="node">
<title>Node6</title>
<g id="a_Node000006"><a xlink:href="dd/d67/classrm_1_1async_1_1StreamSocket_1_1SocketMultiReadAwaiter.html" target="_top" xlink:title="流式 Socket 多缓冲区异步读等待器">
<polygon fill="white" stroke="#666666" points="531.75,-397.5 390.5,-397.5 390.5,-364 531.75,-364 531.75,-397.5"/>
<text xml:space="preserve" text-anchor="start" x="398.5" y="-384" font-family="Helvetica,sans-Serif" font-size="10.00">rm::async::StreamSocket</text>
<text xml:space="preserve" text-anchor="middle" x="461.12" y="-371.25" font-family="Helvetica,sans-Serif" font-size="10.00">::SocketMultiReadAwaiter</text>
</a>
</g>
</g>
<!-- Node1&#45;&gt;Node6 -->
<g id="edge7_Node000001_Node000006" class="edge">
<title>Node1&#45;&gt;Node6</title>
<g id="a_edge7_Node000001_Node000006"><a xlink:title=" ">
<path fill="none" stroke="#63b8ff" d="M319.85,-419.02C343.5,-412.56 371.96,-404.8 397.04,-397.96"/>
<polygon fill="#63b8ff" stroke="#63b8ff" points="319.18,-415.57 310.46,-421.58 321.03,-422.32 319.18,-415.57"/>
</a>
</g>
</g>
<!-- Node7 -->
<g id="Node000007" class="node">
<title>Node7</title>
<g id="a_Node000007"><a xlink:href="df/d1e/classrm_1_1async_1_1StreamSocket_1_1SocketReadAwaiter.html" target="_top" xlink:title="流式 Socket 异步读等待器">
<polygon fill="white" stroke="#666666" points="529.88,-345.5 392.38,-345.5 392.38,-312 529.88,-312 529.88,-345.5"/>
<text xml:space="preserve" text-anchor="start" x="400.38" y="-332" font-family="Helvetica,sans-Serif" font-size="10.00">rm::async::StreamSocket</text>
<text xml:space="preserve" text-anchor="middle" x="461.12" y="-319.25" font-family="Helvetica,sans-Serif" font-size="10.00">::SocketReadAwaiter</text>
</a>
</g>
</g>
<!-- Node1&#45;&gt;Node7 -->
<g id="edge8_Node000001_Node000007" class="edge">
<title>Node1&#45;&gt;Node7</title>
<g id="a_edge8_Node000001_Node000007"><a xlink:title=" ">
<path fill="none" stroke="#63b8ff" d="M292.86,-415.36C316.44,-398.36 354.32,-372.51 389.75,-354.75 396.04,-351.6 402.8,-348.62 409.57,-345.88"/>
<polygon fill="#63b8ff" stroke="#63b8ff" points="290.92,-412.44 284.91,-421.16 295.05,-418.1 290.92,-412.44"/>
</a>
</g>
</g>
<!-- Node9 -->
<g id="Node000009" class="node">
<title>Node9</title>
<g id="a_Node000009"><a xlink:href="dd/db2/classrm_1_1async_1_1Connector_1_1ConnectAwaiter.html" target="_top" xlink:title="连接等待器">
<polygon fill="white" stroke="#666666" points="520.88,-293.5 401.38,-293.5 401.38,-260 520.88,-260 520.88,-293.5"/>
<text xml:space="preserve" text-anchor="start" x="409.38" y="-280" font-family="Helvetica,sans-Serif" font-size="10.00">rm::async::Connector</text>
<text xml:space="preserve" text-anchor="middle" x="461.12" y="-267.25" font-family="Helvetica,sans-Serif" font-size="10.00">::ConnectAwaiter</text>
</a>
</g>
</g>
<!-- Node8&#45;&gt;Node9 -->
<g id="edge10_Node000008_Node000009" class="edge">
<title>Node8&#45;&gt;Node9</title>
<g id="a_edge10_Node000008_Node000009"><a xlink:title=" ">
<path fill="none" stroke="#63b8ff" d="M292.86,-190.14C316.44,-207.14 354.32,-232.99 389.75,-250.75 396.04,-253.9 402.8,-256.88 409.57,-259.62"/>
<polygon fill="#63b8ff" stroke="#63b8ff" points="295.05,-187.4 284.91,-184.34 290.92,-193.06 295.05,-187.4"/>
</a>
</g>
</g>
<!-- Node10 -->
<g id="Node000010" class="node">
<title>Node10</title>
<g id="a_Node000010"><a xlink:href="d6/dcd/classrm_1_1async_1_1DgramSocket_1_1SocketMultiWriteAwaiter.html" target="_top" xlink:title="数据报式 Socket 多缓冲区异步写等待器">
<polygon fill="white" stroke="#666666" points="532.5,-241.5 389.75,-241.5 389.75,-208 532.5,-208 532.5,-241.5"/>
<text xml:space="preserve" text-anchor="start" x="397.75" y="-228" font-family="Helvetica,sans-Serif" font-size="10.00">rm::async::DgramSocket</text>
<text xml:space="preserve" text-anchor="middle" x="461.12" y="-215.25" font-family="Helvetica,sans-Serif" font-size="10.00">::SocketMultiWriteAwaiter</text>
</a>
</g>
</g>
<!-- Node8&#45;&gt;Node10 -->
<g id="edge11_Node000008_Node000010" class="edge">
<title>Node8&#45;&gt;Node10</title>
<g id="a_edge11_Node000008_Node000010"><a xlink:title=" ">
<path fill="none" stroke="#63b8ff" d="M319.85,-186.48C343.5,-192.94 371.96,-200.7 397.04,-207.54"/>
<polygon fill="#63b8ff" stroke="#63b8ff" points="321.03,-183.18 310.46,-183.92 319.18,-189.93 321.03,-183.18"/>
</a>
</g>
</g>
<!-- Node11 -->
<g id="Node000011" class="node">
<title>Node11</title>
<g id="a_Node000011"><a xlink:href="d0/d11/classrm_1_1async_1_1DgramSocket_1_1SocketWriteAwaiter.html" target="_top" xlink:title="数据报式 Socket 异步写等待器">
<polygon fill="white" stroke="#666666" points="528.75,-189.5 393.5,-189.5 393.5,-156 528.75,-156 528.75,-189.5"/>
<text xml:space="preserve" text-anchor="start" x="401.5" y="-176" font-family="Helvetica,sans-Serif" font-size="10.00">rm::async::DgramSocket</text>
<text xml:space="preserve" text-anchor="middle" x="461.12" y="-163.25" font-family="Helvetica,sans-Serif" font-size="10.00">::SocketWriteAwaiter</text>
</a>
</g>
</g>
<!-- Node8&#45;&gt;Node11 -->
<g id="edge12_Node000008_Node000011" class="edge">
<title>Node8&#45;&gt;Node11</title>
<g id="a_edge12_Node000008_Node000011"><a xlink:title=" ">
<path fill="none" stroke="#63b8ff" d="M361.81,-172.75C372.43,-172.75 383.09,-172.75 393.27,-172.75"/>
<polygon fill="#63b8ff" stroke="#63b8ff" points="361.86,-169.25 351.86,-172.75 361.86,-176.25 361.86,-169.25"/>
</a>
</g>
</g>
<!-- Node12 -->
<g id="Node000012" class="node">
<title>Node12</title>
<g id="a_Node000012"><a xlink:href="de/da3/classrm_1_1async_1_1SerialPort_1_1SerialWriteAwaiter.html" target="_top" xlink:title="串口写等待器">
<polygon fill="white" stroke="#666666" points="519.75,-137.5 402.5,-137.5 402.5,-104 519.75,-104 519.75,-137.5"/>
<text xml:space="preserve" text-anchor="start" x="410.5" y="-124" font-family="Helvetica,sans-Serif" font-size="10.00">rm::async::SerialPort</text>
<text xml:space="preserve" text-anchor="middle" x="461.12" y="-111.25" font-family="Helvetica,sans-Serif" font-size="10.00">::SerialWriteAwaiter</text>
</a>
</g>
</g>
<!-- Node8&#45;&gt;Node12 -->
<g id="edge13_Node000008_Node000012" class="edge">
<title>Node8&#45;&gt;Node12</title>
<g id="a_edge13_Node000008_Node000012"><a xlink:title=" ">
<path fill="none" stroke="#63b8ff" d="M331.42,-159.37C338.97,-157.57 346.55,-155.68 353.75,-153.75 371.4,-149.03 390.52,-143.3 407.61,-137.94"/>
<polygon fill="#63b8ff" stroke="#63b8ff" points="330.86,-155.91 321.92,-161.6 332.46,-162.73 330.86,-155.91"/>
</a>
</g>
</g>
<!-- Node13 -->
<g id="Node000013" class="node">
<title>Node13</title>
<g id="a_Node000013"><a xlink:href="d6/dbf/classrm_1_1async_1_1StreamSocket_1_1SocketMultiWriteAwaiter.html" target="_top" xlink:title="流式 Socket 多缓冲区异步写等待器">
<polygon fill="white" stroke="#666666" points="532.5,-85.5 389.75,-85.5 389.75,-52 532.5,-52 532.5,-85.5"/>
<text xml:space="preserve" text-anchor="start" x="397.75" y="-72" font-family="Helvetica,sans-Serif" font-size="10.00">rm::async::StreamSocket</text>
<text xml:space="preserve" text-anchor="middle" x="461.12" y="-59.25" font-family="Helvetica,sans-Serif" font-size="10.00">::SocketMultiWriteAwaiter</text>
</a>
</g>
</g>
<!-- Node8&#45;&gt;Node13 -->
<g id="edge14_Node000008_Node000013" class="edge">
<title>Node8&#45;&gt;Node13</title>
<g id="a_edge14_Node000008_Node000013"><a xlink:title=" ">
<path fill="none" stroke="#63b8ff" d="M348.95,-156.9C350.6,-155.91 352.2,-154.86 353.75,-153.75 378.71,-135.84 366.03,-114.27 389.75,-94.75 393.77,-91.44 398.26,-88.53 402.96,-85.97"/>
<polygon fill="#63b8ff" stroke="#63b8ff" points="347.75,-153.58 340.43,-161.24 350.93,-159.82 347.75,-153.58"/>
</a>
</g>
</g>
<!-- Node14 -->
<g id="Node000014" class="node">
<title>Node14</title>
<g id="a_Node000014"><a xlink:href="df/d4e/classrm_1_1async_1_1StreamSocket_1_1SocketWriteAwaiter.html" target="_top" xlink:title="流式 Socket 异步写等待器">
<polygon fill="white" stroke="#666666" points="529.88,-33.5 392.38,-33.5 392.38,0 529.88,0 529.88,-33.5"/>
<text xml:space="preserve" text-anchor="start" x="400.38" y="-20" font-family="Helvetica,sans-Serif" font-size="10.00">rm::async::StreamSocket</text>
<text xml:space="preserve" text-anchor="middle" x="461.12" y="-7.25" font-family="Helvetica,sans-Serif" font-size="10.00">::SocketWriteAwaiter</text>
</a>
</g>
</g>
<!-- Node8&#45;&gt;Node14 -->
<g id="edge15_Node000008_Node000014" class="edge">
<title>Node8&#45;&gt;Node14</title>
<g id="a_edge15_Node000008_Node000014"><a xlink:title=" ">
<path fill="none" stroke="#63b8ff" d="M351.36,-155.8C352.18,-155.14 352.97,-154.46 353.75,-153.75 392.07,-118.8 353.82,-80.15 389.75,-42.75 393,-39.37 396.72,-36.42 400.73,-33.86"/>
<polygon fill="#63b8ff" stroke="#63b8ff" points="349.67,-152.73 343.25,-161.16 353.52,-158.57 349.67,-152.73"/>
</a>
</g>
</g>
</g>
</svg>
