<?xml version="1.0" encoding="UTF-8" standalone="no"?>
<!DOCTYPE svg PUBLIC "-//W3C//DTD SVG 1.1//EN"
 "http://www.w3.org/Graphics/SVG/1.1/DTD/svg11.dtd">
<!-- Generated by graphviz version 2.43.0 (0)
 -->
<!-- Title: 类继承关系图 Pages: 1 -->
<svg width="503pt" height="566pt"
 viewBox="0.00 0.00 503.00 566.00" xmlns="http://www.w3.org/2000/svg" xmlns:xlink="http://www.w3.org/1999/xlink">
<g id="graph0" class="graph" transform="scale(1 1) rotate(0) translate(4 562)">
<title>类继承关系图</title>
<!-- Node0 -->
<g id="Node000000" class="node">
<title>Node0</title>
<g id="a_Node000000"><a xlink:href="d6/d17/classrm_1_1async_1_1AsyncIOAwaiter.html" target="_top" xlink:title="IO 事件异步等待器">
<polygon fill="white" stroke="#666666" points="137,-146.5 0,-146.5 0,-127.5 137,-127.5 137,-146.5"/>
<text text-anchor="middle" x="68.5" y="-134.5" font-family="Helvetica,sans-Serif" font-size="10.00">rm::async::AsyncIOAwaiter</text>
</a>
</g>
</g>
<!-- Node1 -->
<g id="Node000001" class="node">
<title>Node1</title>
<g id="a_Node000001"><a xlink:href="df/df7/classrm_1_1async_1_1AsyncReadAwaiter.html" target="_top" xlink:title="通用异步读等待器，核心操作使用文件 I/O 系统调用的 read、ReadFile，使用者可以通过">
<polygon fill="white" stroke="#666666" points="325.5,-408.5 175.5,-408.5 175.5,-389.5 325.5,-389.5 325.5,-408.5"/>
<text text-anchor="middle" x="250.5" y="-396.5" font-family="Helvetica,sans-Serif" font-size="10.00">rm::async::AsyncReadAwaiter</text>
</a>
</g>
</g>
<!-- Node0&#45;&gt;Node1 -->
<g id="edge2_Node000000_Node000001" class="edge">
<title>Node0&#45;&gt;Node1</title>
<g id="a_edge2_Node000000_Node000001"><a xlink:title=" ">
<path fill="none" stroke="#63b8ff" d="M81.89,-155.04C116.97,-206.1 216.14,-350.44 242.82,-389.28"/>
<polygon fill="#63b8ff" stroke="#63b8ff" points="84.67,-152.9 76.12,-146.64 78.9,-156.86 84.67,-152.9"/>
</a>
</g>
</g>
<!-- Node8 -->
<g id="Node000008" class="node">
<title>Node8</title>
<g id="a_Node000008"><a xlink:href="db/d38/classrm_1_1async_1_1AsyncWriteAwaiter.html" target="_top" xlink:title="通用异步写等待器，核心操作使用文件 I/O 系统调用的 write、WriteFile，使用者可以通过">
<polygon fill="white" stroke="#666666" points="325,-168.5 176,-168.5 176,-149.5 325,-149.5 325,-168.5"/>
<text text-anchor="middle" x="250.5" y="-156.5" font-family="Helvetica,sans-Serif" font-size="10.00">rm::async::AsyncWriteAwaiter</text>
</a>
</g>
</g>
<!-- Node0&#45;&gt;Node8 -->
<g id="edge9_Node000000_Node000008" class="edge">
<title>Node0&#45;&gt;Node8</title>
<g id="a_edge9_Node000000_Node000008"><a xlink:title=" ">
<path fill="none" stroke="#63b8ff" d="M147.25,-146.5C156.74,-147.66 166.42,-148.85 175.85,-150"/>
<polygon fill="#63b8ff" stroke="#63b8ff" points="147.39,-142.99 137.04,-145.25 146.54,-149.94 147.39,-142.99"/>
</a>
</g>
</g>
<!-- Node15 -->
<g id="Node000015" class="node">
<title>Node15</title>
<g id="a_Node000015"><a xlink:href="de/d99/classrm_1_1async_1_1Signal_1_1SignalAwaiter.html" target="_top" xlink:title="信号等待器">
<polygon fill="white" stroke="#666666" points="300,-131 201,-131 201,-101 300,-101 300,-131"/>
<text text-anchor="start" x="209" y="-119" font-family="Helvetica,sans-Serif" font-size="10.00">rm::async::Signal::</text>
<text text-anchor="middle" x="250.5" y="-108" font-family="Helvetica,sans-Serif" font-size="10.00">SignalAwaiter</text>
</a>
</g>
</g>
<!-- Node0&#45;&gt;Node15 -->
<g id="edge16_Node000000_Node000015" class="edge">
<title>Node0&#45;&gt;Node15</title>
<g id="a_edge16_Node000000_Node000015"><a xlink:title=" ">
<path fill="none" stroke="#63b8ff" d="M147.11,-127.95C165.4,-125.81 184.39,-123.6 200.97,-121.66"/>
<polygon fill="#63b8ff" stroke="#63b8ff" points="146.56,-124.49 137.04,-129.12 147.38,-131.44 146.56,-124.49"/>
</a>
</g>
</g>
<!-- Node16 -->
<g id="Node000016" class="node">
<title>Node16</title>
<g id="a_Node000016"><a xlink:href="da/d52/classrm_1_1async_1_1Timer_1_1TimerAwaiter.html" target="_top" xlink:title="定时等待器">
<polygon fill="white" stroke="#666666" points="328,-82.5 173,-82.5 173,-63.5 328,-63.5 328,-82.5"/>
<text text-anchor="middle" x="250.5" y="-70.5" font-family="Helvetica,sans-Serif" font-size="10.00">rm::async::Timer::TimerAwaiter</text>
</a>
</g>
</g>
<!-- Node0&#45;&gt;Node16 -->
<g id="edge17_Node000000_Node000016" class="edge">
<title>Node0&#45;&gt;Node16</title>
<g id="a_edge17_Node000000_Node000016"><a xlink:title=" ">
<path fill="none" stroke="#63b8ff" d="M98.06,-123.05C118.56,-113.41 147.05,-100.8 173,-92 183.5,-88.44 195.01,-85.23 205.85,-82.51"/>
<polygon fill="#63b8ff" stroke="#63b8ff" points="96.48,-119.92 88.96,-127.38 99.49,-126.24 96.48,-119.92"/>
</a>
</g>
</g>
<!-- Node2 -->
<g id="Node000002" class="node">
<title>Node2</title>
<g id="a_Node000002"><a xlink:href="da/dd0/classrm_1_1async_1_1Acceptor_1_1AcceptAwaiter.html" target="_top" xlink:title="接受等待器">
<polygon fill="white" stroke="#666666" points="482,-558 377,-558 377,-528 482,-528 482,-558"/>
<text text-anchor="start" x="385" y="-546" font-family="Helvetica,sans-Serif" font-size="10.00">rm::async::Acceptor</text>
<text text-anchor="middle" x="429.5" y="-535" font-family="Helvetica,sans-Serif" font-size="10.00">::AcceptAwaiter</text>
</a>
</g>
</g>
<!-- Node1&#45;&gt;Node2 -->
<g id="edge3_Node000001_Node000002" class="edge">
<title>Node1&#45;&gt;Node2</title>
<g id="a_edge3_Node000001_Node000002"><a xlink:title=" ">
<path fill="none" stroke="#63b8ff" d="M264.07,-416.96C283.01,-442.82 321.22,-490.55 364,-519 369.07,-522.37 374.69,-525.36 380.42,-527.97"/>
<polygon fill="#63b8ff" stroke="#63b8ff" points="266.67,-414.58 257.99,-408.5 260.99,-418.67 266.67,-414.58"/>
</a>
</g>
</g>
<!-- Node3 -->
<g id="Node000003" class="node">
<title>Node3</title>
<g id="a_Node000003"><a xlink:href="d3/d8d/classrm_1_1async_1_1DgramSocket_1_1SocketMultiReadAwaiter.html" target="_top" xlink:title="数据报式 Socket 多缓冲区异步读等待器">
<polygon fill="white" stroke="#666666" points="495,-510 364,-510 364,-480 495,-480 495,-510"/>
<text text-anchor="start" x="372" y="-498" font-family="Helvetica,sans-Serif" font-size="10.00">rm::async::DgramSocket</text>
<text text-anchor="middle" x="429.5" y="-487" font-family="Helvetica,sans-Serif" font-size="10.00">::SocketMultiReadAwaiter</text>
</a>
</g>
</g>
<!-- Node1&#45;&gt;Node3 -->
<g id="edge4_Node000001_Node000003" class="edge">
<title>Node1&#45;&gt;Node3</title>
<g id="a_edge4_Node000001_Node000003"><a xlink:title=" ">
<path fill="none" stroke="#63b8ff" d="M272.74,-414.55C294.78,-430.2 330.63,-454.35 364,-471 370.41,-474.2 377.37,-477.22 384.25,-479.97"/>
<polygon fill="#63b8ff" stroke="#63b8ff" points="274.63,-411.59 264.46,-408.6 270.55,-417.28 274.63,-411.59"/>
</a>
</g>
</g>
<!-- Node4 -->
<g id="Node000004" class="node">
<title>Node4</title>
<g id="a_Node000004"><a xlink:href="d5/d13/classrm_1_1async_1_1DgramSocket_1_1SocketReadAwaiter.html" target="_top" xlink:title="数据报式 Socket 异步读等待器">
<polygon fill="white" stroke="#666666" points="492.5,-462 366.5,-462 366.5,-432 492.5,-432 492.5,-462"/>
<text text-anchor="start" x="374.5" y="-450" font-family="Helvetica,sans-Serif" font-size="10.00">rm::async::DgramSocket</text>
<text text-anchor="middle" x="429.5" y="-439" font-family="Helvetica,sans-Serif" font-size="10.00">::SocketReadAwaiter</text>
</a>
</g>
</g>
<!-- Node1&#45;&gt;Node4 -->
<g id="edge5_Node000001_Node000004" class="edge">
<title>Node1&#45;&gt;Node4</title>
<g id="a_edge5_Node000001_Node000004"><a xlink:title=" ">
<path fill="none" stroke="#63b8ff" d="M296.82,-411.29C320.01,-417.58 348.45,-425.29 372.96,-431.94"/>
<polygon fill="#63b8ff" stroke="#63b8ff" points="297.46,-407.84 286.89,-408.6 295.63,-414.59 297.46,-407.84"/>
</a>
</g>
</g>
<!-- Node5 -->
<g id="Node000005" class="node">
<title>Node5</title>
<g id="a_Node000005"><a xlink:href="df/d02/classrm_1_1async_1_1SerialPort_1_1SerialReadAwaiter.html" target="_top" xlink:title="串口读等待器">
<polygon fill="white" stroke="#666666" points="484,-414 375,-414 375,-384 484,-384 484,-414"/>
<text text-anchor="start" x="383" y="-402" font-family="Helvetica,sans-Serif" font-size="10.00">rm::async::SerialPort</text>
<text text-anchor="middle" x="429.5" y="-391" font-family="Helvetica,sans-Serif" font-size="10.00">::SerialReadAwaiter</text>
</a>
</g>
</g>
<!-- Node1&#45;&gt;Node5 -->
<g id="edge6_Node000001_Node000005" class="edge">
<title>Node1&#45;&gt;Node5</title>
<g id="a_edge6_Node000001_Node000005"><a xlink:title=" ">
<path fill="none" stroke="#63b8ff" d="M335.71,-399C349.06,-399 362.55,-399 374.95,-399"/>
<polygon fill="#63b8ff" stroke="#63b8ff" points="335.54,-395.5 325.54,-399 335.54,-402.5 335.54,-395.5"/>
</a>
</g>
</g>
<!-- Node6 -->
<g id="Node000006" class="node">
<title>Node6</title>
<g id="a_Node000006"><a xlink:href="dd/d67/classrm_1_1async_1_1StreamSocket_1_1SocketMultiReadAwaiter.html" target="_top" xlink:title="流式 Socket 多缓冲区异步读等待器">
<polygon fill="white" stroke="#666666" points="495,-366 364,-366 364,-336 495,-336 495,-366"/>
<text text-anchor="start" x="372" y="-354" font-family="Helvetica,sans-Serif" font-size="10.00">rm::async::StreamSocket</text>
<text text-anchor="middle" x="429.5" y="-343" font-family="Helvetica,sans-Serif" font-size="10.00">::SocketMultiReadAwaiter</text>
</a>
</g>
</g>
<!-- Node1&#45;&gt;Node6 -->
<g id="edge7_Node000001_Node000006" class="edge">
<title>Node1&#45;&gt;Node6</title>
<g id="a_edge7_Node000001_Node000006"><a xlink:title=" ">
<path fill="none" stroke="#63b8ff" d="M296.82,-386.71C320.01,-380.42 348.45,-372.71 372.96,-366.06"/>
<polygon fill="#63b8ff" stroke="#63b8ff" points="295.63,-383.41 286.89,-389.4 297.46,-390.16 295.63,-383.41"/>
</a>
</g>
</g>
<!-- Node7 -->
<g id="Node000007" class="node">
<title>Node7</title>
<g id="a_Node000007"><a xlink:href="df/d1e/classrm_1_1async_1_1StreamSocket_1_1SocketReadAwaiter.html" target="_top" xlink:title="流式 Socket 异步读等待器">
<polygon fill="white" stroke="#666666" points="493.5,-318 365.5,-318 365.5,-288 493.5,-288 493.5,-318"/>
<text text-anchor="start" x="373.5" y="-306" font-family="Helvetica,sans-Serif" font-size="10.00">rm::async::StreamSocket</text>
<text text-anchor="middle" x="429.5" y="-295" font-family="Helvetica,sans-Serif" font-size="10.00">::SocketReadAwaiter</text>
</a>
</g>
</g>
<!-- Node1&#45;&gt;Node7 -->
<g id="edge8_Node000001_Node000007" class="edge">
<title>Node1&#45;&gt;Node7</title>
<g id="a_edge8_Node000001_Node000007"><a xlink:title=" ">
<path fill="none" stroke="#63b8ff" d="M272.74,-383.45C294.78,-367.8 330.63,-343.65 364,-327 370.41,-323.8 377.37,-320.78 384.25,-318.03"/>
<polygon fill="#63b8ff" stroke="#63b8ff" points="270.55,-380.72 264.46,-389.4 274.63,-386.41 270.55,-380.72"/>
</a>
</g>
</g>
<!-- Node9 -->
<g id="Node000009" class="node">
<title>Node9</title>
<g id="a_Node000009"><a xlink:href="dd/db2/classrm_1_1async_1_1Connector_1_1ConnectAwaiter.html" target="_top" xlink:title="连接等待器">
<polygon fill="white" stroke="#666666" points="485,-270 374,-270 374,-240 485,-240 485,-270"/>
<text text-anchor="start" x="382" y="-258" font-family="Helvetica,sans-Serif" font-size="10.00">rm::async::Connector</text>
<text text-anchor="middle" x="429.5" y="-247" font-family="Helvetica,sans-Serif" font-size="10.00">::ConnectAwaiter</text>
</a>
</g>
</g>
<!-- Node8&#45;&gt;Node9 -->
<g id="edge10_Node000008_Node000009" class="edge">
<title>Node8&#45;&gt;Node9</title>
<g id="a_edge10_Node000008_Node000009"><a xlink:title=" ">
<path fill="none" stroke="#63b8ff" d="M272.74,-174.55C294.78,-190.2 330.63,-214.35 364,-231 370.41,-234.2 377.37,-237.22 384.25,-239.97"/>
<polygon fill="#63b8ff" stroke="#63b8ff" points="274.63,-171.59 264.46,-168.6 270.55,-177.28 274.63,-171.59"/>
</a>
</g>
</g>
<!-- Node10 -->
<g id="Node000010" class="node">
<title>Node10</title>
<g id="a_Node000010"><a xlink:href="d6/dcd/classrm_1_1async_1_1DgramSocket_1_1SocketMultiWriteAwaiter.html" target="_top" xlink:title="数据报式 Socket 多缓冲区异步写等待器">
<polygon fill="white" stroke="#666666" points="494.5,-222 364.5,-222 364.5,-192 494.5,-192 494.5,-222"/>
<text text-anchor="start" x="372.5" y="-210" font-family="Helvetica,sans-Serif" font-size="10.00">rm::async::DgramSocket</text>
<text text-anchor="middle" x="429.5" y="-199" font-family="Helvetica,sans-Serif" font-size="10.00">::SocketMultiWriteAwaiter</text>
</a>
</g>
</g>
<!-- Node8&#45;&gt;Node10 -->
<g id="edge11_Node000008_Node000010" class="edge">
<title>Node8&#45;&gt;Node10</title>
<g id="a_edge11_Node000008_Node000010"><a xlink:title=" ">
<path fill="none" stroke="#63b8ff" d="M296.82,-171.29C320.01,-177.58 348.45,-185.29 372.96,-191.94"/>
<polygon fill="#63b8ff" stroke="#63b8ff" points="297.46,-167.84 286.89,-168.6 295.63,-174.59 297.46,-167.84"/>
</a>
</g>
</g>
<!-- Node11 -->
<g id="Node000011" class="node">
<title>Node11</title>
<g id="a_Node000011"><a xlink:href="d0/d11/classrm_1_1async_1_1DgramSocket_1_1SocketWriteAwaiter.html" target="_top" xlink:title="数据报式 Socket 异步写等待器">
<polygon fill="white" stroke="#666666" points="492.5,-174 366.5,-174 366.5,-144 492.5,-144 492.5,-174"/>
<text text-anchor="start" x="374.5" y="-162" font-family="Helvetica,sans-Serif" font-size="10.00">rm::async::DgramSocket</text>
<text text-anchor="middle" x="429.5" y="-151" font-family="Helvetica,sans-Serif" font-size="10.00">::SocketWriteAwaiter</text>
</a>
</g>
</g>
<!-- Node8&#45;&gt;Node11 -->
<g id="edge12_Node000008_Node000011" class="edge">
<title>Node8&#45;&gt;Node11</title>
<g id="a_edge12_Node000008_Node000011"><a xlink:title=" ">
<path fill="none" stroke="#63b8ff" d="M335.1,-159C345.66,-159 356.31,-159 366.45,-159"/>
<polygon fill="#63b8ff" stroke="#63b8ff" points="335.03,-155.5 325.03,-159 335.03,-162.5 335.03,-155.5"/>
</a>
</g>
</g>
<!-- Node12 -->
<g id="Node000012" class="node">
<title>Node12</title>
<g id="a_Node000012"><a xlink:href="de/da3/classrm_1_1async_1_1SerialPort_1_1SerialWriteAwaiter.html" target="_top" xlink:title="串口写等待器">
<polygon fill="white" stroke="#666666" points="484,-126 375,-126 375,-96 484,-96 484,-126"/>
<text text-anchor="start" x="383" y="-114" font-family="Helvetica,sans-Serif" font-size="10.00">rm::async::SerialPort</text>
<text text-anchor="middle" x="429.5" y="-103" font-family="Helvetica,sans-Serif" font-size="10.00">::SerialWriteAwaiter</text>
</a>
</g>
</g>
<!-- Node8&#45;&gt;Node12 -->
<g id="edge13_Node000008_Node000012" class="edge">
<title>Node8&#45;&gt;Node12</title>
<g id="a_edge13_Node000008_Node000012"><a xlink:title=" ">
<path fill="none" stroke="#63b8ff" d="M301.2,-146.94C310.14,-144.69 319.36,-142.32 328,-140 344.22,-135.65 361.84,-130.65 377.73,-126.05"/>
<polygon fill="#63b8ff" stroke="#63b8ff" points="300.13,-143.6 291.28,-149.42 301.83,-150.39 300.13,-143.6"/>
</a>
</g>
</g>
<!-- Node13 -->
<g id="Node000013" class="node">
<title>Node13</title>
<g id="a_Node000013"><a xlink:href="d6/dbf/classrm_1_1async_1_1StreamSocket_1_1SocketMultiWriteAwaiter.html" target="_top" xlink:title="流式 Socket 多缓冲区异步写等待器">
<polygon fill="white" stroke="#666666" points="494.5,-78 364.5,-78 364.5,-48 494.5,-48 494.5,-78"/>
<text text-anchor="start" x="372.5" y="-66" font-family="Helvetica,sans-Serif" font-size="10.00">rm::async::StreamSocket</text>
<text text-anchor="middle" x="429.5" y="-55" font-family="Helvetica,sans-Serif" font-size="10.00">::SocketMultiWriteAwaiter</text>
</a>
</g>
</g>
<!-- Node8&#45;&gt;Node13 -->
<g id="edge14_Node000008_Node000013" class="edge">
<title>Node8&#45;&gt;Node13</title>
<g id="a_edge14_Node000008_Node000013"><a xlink:title=" ">
<path fill="none" stroke="#63b8ff" d="M318.81,-145.43C322.02,-143.82 325.11,-142.02 328,-140 351.36,-123.72 341.6,-104.58 364,-87 368.32,-83.61 373.18,-80.66 378.23,-78.11"/>
<polygon fill="#63b8ff" stroke="#63b8ff" points="317.25,-142.29 309.48,-149.49 320.05,-148.71 317.25,-142.29"/>
</a>
</g>
</g>
<!-- Node14 -->
<g id="Node000014" class="node">
<title>Node14</title>
<g id="a_Node000014"><a xlink:href="df/d4e/classrm_1_1async_1_1StreamSocket_1_1SocketWriteAwaiter.html" target="_top" xlink:title="流式 Socket 异步写等待器">
<polygon fill="white" stroke="#666666" points="493.5,-30 365.5,-30 365.5,0 493.5,0 493.5,-30"/>
<text text-anchor="start" x="373.5" y="-18" font-family="Helvetica,sans-Serif" font-size="10.00">rm::async::StreamSocket</text>
<text text-anchor="middle" x="429.5" y="-7" font-family="Helvetica,sans-Serif" font-size="10.00">::SocketWriteAwaiter</text>
</a>
</g>
</g>
<!-- Node8&#45;&gt;Node14 -->
<g id="edge15_Node000008_Node000014" class="edge">
<title>Node8&#45;&gt;Node14</title>
<g id="a_edge15_Node000008_Node000014"><a xlink:title=" ">
<path fill="none" stroke="#63b8ff" d="M322.5,-144.34C324.43,-143.01 326.27,-141.57 328,-140 363.32,-108.01 330.54,-72.93 364,-39 367.36,-35.6 371.24,-32.67 375.4,-30.16"/>
<polygon fill="#63b8ff" stroke="#63b8ff" points="320.51,-141.45 313.57,-149.45 323.98,-147.52 320.51,-141.45"/>
</a>
</g>
</g>
</g>
</svg>
