<?xml version="1.0" encoding="UTF-8" standalone="no"?>
<!DOCTYPE svg PUBLIC "-//W3C//DTD SVG 1.1//EN"
 "http://www.w3.org/Graphics/SVG/1.1/DTD/svg11.dtd">
<!-- Generated by graphviz version 14.1.2 (0)
 -->
<!-- Title: rmvl/group/group.h Pages: 1 -->
<svg width="1894pt" height="225pt"
 viewBox="0.00 0.00 1894.00 225.00" xmlns="http://www.w3.org/2000/svg" xmlns:xlink="http://www.w3.org/1999/xlink">
<g id="graph0" class="graph" transform="scale(1 1) rotate(0) translate(4 220.5)">
<title>rmvl/group/group.h</title>
<!-- Node1 -->
<g id="Node000001" class="node">
<title>Node1</title>
<g id="a_Node000001"><a xlink:title="序列组抽象头文件">
<polygon fill="#999999" stroke="#666666" points="1509.25,-216.5 1400.25,-216.5 1400.25,-195.75 1509.25,-195.75 1509.25,-216.5"/>
<text xml:space="preserve" text-anchor="middle" x="1454.75" y="-203" font-family="Helvetica,sans-Serif" font-size="10.00">rmvl/group/group.h</text>
</a>
</g>
</g>
<!-- Node2 -->
<g id="Node000002" class="node">
<title>Node2</title>
<g id="a_Node000002"><a xlink:href="../../d9/df2/compensator_8h.html" target="_top" xlink:title="抽象补偿类头文件">
<polygon fill="white" stroke="#666666" points="458.88,-159.75 278.62,-159.75 278.62,-139 458.88,-139 458.88,-159.75"/>
<text xml:space="preserve" text-anchor="middle" x="368.75" y="-146.25" font-family="Helvetica,sans-Serif" font-size="10.00">rmvl/compensator/compensator.h</text>
</a>
</g>
</g>
<!-- Node1&#45;&gt;Node2 -->
<g id="edge1_Node000001_Node000002" class="edge">
<title>Node1&#45;&gt;Node2</title>
<g id="a_edge1_Node000001_Node000002"><a xlink:title=" ">
<path fill="none" stroke="#63b8ff" d="M1388.52,-201.79C1202.08,-192.39 672.5,-165.69 459.31,-154.94"/>
<polygon fill="#63b8ff" stroke="#63b8ff" points="1388.1,-205.27 1398.27,-202.28 1388.45,-198.28 1388.1,-205.27"/>
</a>
</g>
</g>
<!-- Node11 -->
<g id="Node000011" class="node">
<title>Node11</title>
<g id="a_Node000011"><a xlink:href="../../d5/d9f/detector_8h.html" target="_top" xlink:title="抽象识别类头文件">
<polygon fill="white" stroke="#666666" points="967.62,-159.75 833.88,-159.75 833.88,-139 967.62,-139 967.62,-159.75"/>
<text xml:space="preserve" text-anchor="middle" x="900.75" y="-146.25" font-family="Helvetica,sans-Serif" font-size="10.00">rmvl/detector/detector.h</text>
</a>
</g>
</g>
<!-- Node1&#45;&gt;Node11 -->
<g id="edge10_Node000001_Node000011" class="edge">
<title>Node1&#45;&gt;Node11</title>
<g id="a_edge10_Node000001_Node000011"><a xlink:title=" ">
<path fill="none" stroke="#63b8ff" d="M1388.65,-198.59C1282.35,-188.09 1074.54,-167.55 967.7,-156.99"/>
<polygon fill="#63b8ff" stroke="#63b8ff" points="1388.06,-202.05 1398.35,-199.55 1388.75,-195.08 1388.06,-202.05"/>
</a>
</g>
</g>
<!-- Node17 -->
<g id="Node000017" class="node">
<title>Node17</title>
<g id="a_Node000017"><a xlink:href="../../db/d4f/rmvl_2group_8hpp.html" target="_top" xlink:title=" ">
<polygon fill="white" stroke="#666666" points="1566.88,-159.75 1476.62,-159.75 1476.62,-139 1566.88,-139 1566.88,-159.75"/>
<text xml:space="preserve" text-anchor="middle" x="1521.75" y="-146.25" font-family="Helvetica,sans-Serif" font-size="10.00">rmvl/group.hpp</text>
</a>
</g>
</g>
<!-- Node1&#45;&gt;Node17 -->
<g id="edge17_Node000001_Node000017" class="edge">
<title>Node1&#45;&gt;Node17</title>
<g id="a_edge17_Node000001_Node000017"><a xlink:title=" ">
<path fill="none" stroke="#63b8ff" d="M1475.54,-188.14C1486.83,-178.91 1500.38,-167.84 1509.88,-160.08"/>
<polygon fill="#63b8ff" stroke="#63b8ff" points="1473.43,-185.34 1467.9,-194.38 1477.86,-190.76 1473.43,-185.34"/>
</a>
</g>
</g>
<!-- Node18 -->
<g id="Node000018" class="node">
<title>Node18</title>
<g id="a_Node000018"><a xlink:href="../../d3/df0/group_2gyro__group_8h.html" target="_top" xlink:title="装甲序列组头文件">
<polygon fill="white" stroke="#666666" points="1720.75,-159.75 1584.75,-159.75 1584.75,-139 1720.75,-139 1720.75,-159.75"/>
<text xml:space="preserve" text-anchor="middle" x="1652.75" y="-146.25" font-family="Helvetica,sans-Serif" font-size="10.00">rmvl/group/gyro_group.h</text>
</a>
</g>
</g>
<!-- Node1&#45;&gt;Node18 -->
<g id="edge18_Node000001_Node000018" class="edge">
<title>Node1&#45;&gt;Node18</title>
<g id="a_edge18_Node000001_Node000018"><a xlink:title=" ">
<path fill="none" stroke="#63b8ff" d="M1501.19,-192.28C1536.69,-182.47 1584.9,-169.14 1617.32,-160.17"/>
<polygon fill="#63b8ff" stroke="#63b8ff" points="1500.31,-188.89 1491.61,-194.93 1502.18,-195.64 1500.31,-188.89"/>
</a>
</g>
</g>
<!-- Node19 -->
<g id="Node000019" class="node">
<title>Node19</title>
<g id="a_Node000019"><a xlink:href="../../d8/df3/group_2rune__group_8h.html" target="_top" xlink:title="神符序列组头文件">
<polygon fill="white" stroke="#666666" points="1874.75,-159.75 1738.75,-159.75 1738.75,-139 1874.75,-139 1874.75,-159.75"/>
<text xml:space="preserve" text-anchor="middle" x="1806.75" y="-146.25" font-family="Helvetica,sans-Serif" font-size="10.00">rmvl/group/rune_group.h</text>
</a>
</g>
</g>
<!-- Node1&#45;&gt;Node19 -->
<g id="edge19_Node000001_Node000019" class="edge">
<title>Node1&#45;&gt;Node19</title>
<g id="a_edge19_Node000001_Node000019"><a xlink:title=" ">
<path fill="none" stroke="#63b8ff" d="M1520.89,-194.84C1584.72,-184.91 1680.68,-169.98 1743.51,-160.21"/>
<polygon fill="#63b8ff" stroke="#63b8ff" points="1520.59,-191.34 1511.25,-196.34 1521.66,-198.26 1520.59,-191.34"/>
</a>
</g>
</g>
<!-- Node20 -->
<g id="Node000020" class="node">
<title>Node20</title>
<g id="a_Node000020"><a xlink:href="../../dc/d08/predictor_8h.html" target="_top" xlink:title="抽象预测类头文件">
<polygon fill="white" stroke="#666666" points="1458.62,-159.75 1318.88,-159.75 1318.88,-139 1458.62,-139 1458.62,-159.75"/>
<text xml:space="preserve" text-anchor="middle" x="1388.75" y="-146.25" font-family="Helvetica,sans-Serif" font-size="10.00">rmvl/predictor/predictor.h</text>
</a>
</g>
</g>
<!-- Node1&#45;&gt;Node20 -->
<g id="edge20_Node000001_Node000020" class="edge">
<title>Node1&#45;&gt;Node20</title>
<g id="a_edge20_Node000001_Node000020"><a xlink:title=" ">
<path fill="none" stroke="#63b8ff" d="M1434.27,-188.14C1423.15,-178.91 1409.8,-167.84 1400.45,-160.08"/>
<polygon fill="#63b8ff" stroke="#63b8ff" points="1431.85,-190.68 1441.79,-194.37 1436.32,-185.29 1431.85,-190.68"/>
</a>
</g>
</g>
<!-- Node3 -->
<g id="Node000003" class="node">
<title>Node3</title>
<g id="a_Node000003"><a xlink:href="../../d6/ddf/rmvl_2compensator_8hpp.html" target="_top" xlink:title=" ">
<polygon fill="white" stroke="#666666" points="125.5,-96.62 0,-96.62 0,-75.88 125.5,-75.88 125.5,-96.62"/>
<text xml:space="preserve" text-anchor="middle" x="62.75" y="-83.12" font-family="Helvetica,sans-Serif" font-size="10.00">rmvl/compensator.hpp</text>
</a>
</g>
</g>
<!-- Node2&#45;&gt;Node3 -->
<g id="edge2_Node000002_Node000003" class="edge">
<title>Node2&#45;&gt;Node3</title>
<g id="a_edge2_Node000002_Node000003"><a xlink:title=" ">
<path fill="none" stroke="#63b8ff" d="M304.91,-136.42C257.82,-127.5 192.22,-114.86 134.75,-103 125.73,-101.14 116.08,-99.08 106.88,-97.08"/>
<polygon fill="#63b8ff" stroke="#63b8ff" points="304.21,-139.85 314.68,-138.27 305.51,-132.97 304.21,-139.85"/>
</a>
</g>
</g>
<!-- Node4 -->
<g id="Node000004" class="node">
<title>Node4</title>
<g id="a_Node000004"><a xlink:href="../../d1/d91/compensator_2gravity__compensator_8h.html" target="_top" xlink:title="重力模型补偿头文件">
<polygon fill="white" stroke="#666666" points="286.12,-103 143.38,-103 143.38,-69.5 286.12,-69.5 286.12,-103"/>
<text xml:space="preserve" text-anchor="start" x="151.38" y="-89.5" font-family="Helvetica,sans-Serif" font-size="10.00">rmvl/compensator/gravity</text>
<text xml:space="preserve" text-anchor="middle" x="214.75" y="-76.75" font-family="Helvetica,sans-Serif" font-size="10.00">_compensator.h</text>
</a>
</g>
</g>
<!-- Node2&#45;&gt;Node4 -->
<g id="edge3_Node000002_Node000004" class="edge">
<title>Node2&#45;&gt;Node4</title>
<g id="a_edge3_Node000002_Node000004"><a xlink:title=" ">
<path fill="none" stroke="#63b8ff" d="M333.59,-134.42C310.4,-125.21 279.93,-113.12 255.65,-103.48"/>
<polygon fill="#63b8ff" stroke="#63b8ff" points="332.01,-137.56 342.6,-138 334.6,-131.05 332.01,-137.56"/>
</a>
</g>
</g>
<!-- Node5 -->
<g id="Node000005" class="node">
<title>Node5</title>
<g id="a_Node000005"><a xlink:href="../../d5/d90/compensator_2gyro__compensator_8h.html" target="_top" xlink:title="整车状态补偿模块接口声明">
<polygon fill="white" stroke="#666666" points="433.75,-103 303.75,-103 303.75,-69.5 433.75,-69.5 433.75,-103"/>
<text xml:space="preserve" text-anchor="start" x="311.75" y="-89.5" font-family="Helvetica,sans-Serif" font-size="10.00">rmvl/compensator/gyro</text>
<text xml:space="preserve" text-anchor="middle" x="368.75" y="-76.75" font-family="Helvetica,sans-Serif" font-size="10.00">_compensator.h</text>
</a>
</g>
</g>
<!-- Node2&#45;&gt;Node5 -->
<g id="edge4_Node000002_Node000005" class="edge">
<title>Node2&#45;&gt;Node5</title>
<g id="a_edge4_Node000002_Node000005"><a xlink:title=" ">
<path fill="none" stroke="#63b8ff" d="M368.75,-127.09C368.75,-119.35 368.75,-110.72 368.75,-103.48"/>
<polygon fill="#63b8ff" stroke="#63b8ff" points="365.25,-127.04 368.75,-137.04 372.25,-127.04 365.25,-127.04"/>
</a>
</g>
</g>
<!-- Node6 -->
<g id="Node000006" class="node">
<title>Node6</title>
<g id="a_Node000006"><a xlink:href="../../d3/d70/decider_8h.html" target="_top" xlink:title="抽象决策类头文件">
<polygon fill="white" stroke="#666666" points="576.12,-96.62 451.38,-96.62 451.38,-75.88 576.12,-75.88 576.12,-96.62"/>
<text xml:space="preserve" text-anchor="middle" x="513.75" y="-83.12" font-family="Helvetica,sans-Serif" font-size="10.00">rmvl/decider/decider.h</text>
</a>
</g>
</g>
<!-- Node2&#45;&gt;Node6 -->
<g id="edge5_Node000002_Node000006" class="edge">
<title>Node2&#45;&gt;Node6</title>
<g id="a_edge5_Node000002_Node000006"><a xlink:title=" ">
<path fill="none" stroke="#63b8ff" d="M402.58,-134.12C429.6,-122.72 466.75,-107.06 490.51,-97.05"/>
<polygon fill="#63b8ff" stroke="#63b8ff" points="401.3,-130.86 393.44,-137.97 404.02,-137.31 401.3,-130.86"/>
</a>
</g>
</g>
<!-- Node7 -->
<g id="Node000007" class="node">
<title>Node7</title>
<g id="a_Node000007"><a xlink:href="../../de/d18/rmvl_2decider_8hpp.html" target="_top" xlink:title=" ">
<polygon fill="white" stroke="#666666" points="334.62,-27.12 236.88,-27.12 236.88,-6.38 334.62,-6.38 334.62,-27.12"/>
<text xml:space="preserve" text-anchor="middle" x="285.75" y="-13.62" font-family="Helvetica,sans-Serif" font-size="10.00">rmvl/decider.hpp</text>
</a>
</g>
</g>
<!-- Node6&#45;&gt;Node7 -->
<g id="edge6_Node000006_Node000007" class="edge">
<title>Node6&#45;&gt;Node7</title>
<g id="a_edge6_Node000006_Node000007"><a xlink:title=" ">
<path fill="none" stroke="#63b8ff" d="M469.63,-72.19C425.53,-59.13 358.73,-39.36 318.94,-27.58"/>
<polygon fill="#63b8ff" stroke="#63b8ff" points="468.56,-75.52 479.15,-75.01 470.55,-68.81 468.56,-75.52"/>
</a>
</g>
</g>
<!-- Node8 -->
<g id="Node000008" class="node">
<title>Node8</title>
<g id="a_Node000008"><a xlink:href="../../d6/dd8/decider_2gyro__decider_8h.html" target="_top" xlink:title="装甲板模块决策器头文件">
<polygon fill="white" stroke="#666666" points="504.62,-27.12 352.88,-27.12 352.88,-6.38 504.62,-6.38 504.62,-27.12"/>
<text xml:space="preserve" text-anchor="middle" x="428.75" y="-13.62" font-family="Helvetica,sans-Serif" font-size="10.00">rmvl/decider/gyro_decider.h</text>
</a>
</g>
</g>
<!-- Node6&#45;&gt;Node8 -->
<g id="edge7_Node000006_Node000008" class="edge">
<title>Node6&#45;&gt;Node8</title>
<g id="a_edge7_Node000006_Node000008"><a xlink:title=" ">
<path fill="none" stroke="#63b8ff" d="M492.8,-68.61C476.6,-55.75 454.72,-38.37 441.18,-27.62"/>
<polygon fill="#63b8ff" stroke="#63b8ff" points="490.38,-71.16 500.39,-74.64 494.73,-65.68 490.38,-71.16"/>
</a>
</g>
</g>
<!-- Node9 -->
<g id="Node000009" class="node">
<title>Node9</title>
<g id="a_Node000009"><a xlink:href="../../dd/d03/decider_2rune__decider_8h.html" target="_top" xlink:title="神符模块决策器头文件">
<polygon fill="white" stroke="#666666" points="674.62,-27.12 522.88,-27.12 522.88,-6.38 674.62,-6.38 674.62,-27.12"/>
<text xml:space="preserve" text-anchor="middle" x="598.75" y="-13.62" font-family="Helvetica,sans-Serif" font-size="10.00">rmvl/decider/rune_decider.h</text>
</a>
</g>
</g>
<!-- Node6&#45;&gt;Node9 -->
<g id="edge8_Node000006_Node000009" class="edge">
<title>Node6&#45;&gt;Node9</title>
<g id="a_edge8_Node000006_Node000009"><a xlink:title=" ">
<path fill="none" stroke="#63b8ff" d="M534.7,-68.61C550.9,-55.75 572.78,-38.37 586.32,-27.62"/>
<polygon fill="#63b8ff" stroke="#63b8ff" points="532.77,-65.68 527.11,-74.64 537.12,-71.16 532.77,-65.68"/>
</a>
</g>
</g>
<!-- Node10 -->
<g id="Node000010" class="node">
<title>Node10</title>
<g id="a_Node000010"><a xlink:href="../../de/d06/decider_2translation__decider_8h.html" target="_top" xlink:title="平移目标决策器头文件">
<polygon fill="white" stroke="#666666" points="825.25,-33.5 692.25,-33.5 692.25,0 825.25,0 825.25,-33.5"/>
<text xml:space="preserve" text-anchor="start" x="700.25" y="-20" font-family="Helvetica,sans-Serif" font-size="10.00">rmvl/decider/translation</text>
<text xml:space="preserve" text-anchor="middle" x="758.75" y="-7.25" font-family="Helvetica,sans-Serif" font-size="10.00">_decider.h</text>
</a>
</g>
</g>
<!-- Node6&#45;&gt;Node10 -->
<g id="edge9_Node000006_Node000010" class="edge">
<title>Node6&#45;&gt;Node10</title>
<g id="a_edge9_Node000006_Node000010"><a xlink:title=" ">
<path fill="none" stroke="#63b8ff" d="M560.31,-72.42C599.93,-61.51 657.05,-45.77 699.85,-33.98"/>
<polygon fill="#63b8ff" stroke="#63b8ff" points="559.55,-69 550.83,-75.03 561.4,-75.75 559.55,-69"/>
</a>
</g>
</g>
<!-- Node11&#45;&gt;Node6 -->
<g id="edge11_Node000011_Node000006" class="edge">
<title>Node11&#45;&gt;Node6</title>
<g id="a_edge11_Node000011_Node000006"><a xlink:title=" ">
<path fill="none" stroke="#63b8ff" d="M822.35,-138.68C758.47,-130.4 666.02,-117.54 585.75,-103 576.18,-101.27 565.95,-99.17 556.29,-97.09"/>
<polygon fill="#63b8ff" stroke="#63b8ff" points="821.68,-142.12 832.04,-139.93 822.57,-135.18 821.68,-142.12"/>
</a>
</g>
</g>
<!-- Node12 -->
<g id="Node000012" class="node">
<title>Node12</title>
<g id="a_Node000012"><a xlink:href="../../dd/d9f/rmvl_2detector_8hpp.html" target="_top" xlink:title=" ">
<polygon fill="white" stroke="#666666" points="696.88,-96.62 594.62,-96.62 594.62,-75.88 696.88,-75.88 696.88,-96.62"/>
<text xml:space="preserve" text-anchor="middle" x="645.75" y="-83.12" font-family="Helvetica,sans-Serif" font-size="10.00">rmvl/detector.hpp</text>
</a>
</g>
</g>
<!-- Node11&#45;&gt;Node12 -->
<g id="edge12_Node000011_Node000012" class="edge">
<title>Node11&#45;&gt;Node12</title>
<g id="a_edge12_Node000011_Node000012"><a xlink:title=" ">
<path fill="none" stroke="#63b8ff" d="M845.77,-136.02C806.65,-127.12 752.89,-114.67 705.75,-103 698.22,-101.14 690.18,-99.08 682.52,-97.08"/>
<polygon fill="#63b8ff" stroke="#63b8ff" points="844.91,-139.41 855.43,-138.21 846.46,-132.58 844.91,-139.41"/>
</a>
</g>
</g>
<!-- Node13 -->
<g id="Node000013" class="node">
<title>Node13</title>
<g id="a_Node000013"><a xlink:href="../../da/d95/detector_2armor__detector_8h.html" target="_top" xlink:title="装甲板识别派生类头文件">
<polygon fill="white" stroke="#666666" points="828.88,-103 714.62,-103 714.62,-69.5 828.88,-69.5 828.88,-103"/>
<text xml:space="preserve" text-anchor="start" x="722.62" y="-89.5" font-family="Helvetica,sans-Serif" font-size="10.00">rmvl/detector/armor</text>
<text xml:space="preserve" text-anchor="middle" x="771.75" y="-76.75" font-family="Helvetica,sans-Serif" font-size="10.00">_detector.h</text>
</a>
</g>
</g>
<!-- Node11&#45;&gt;Node13 -->
<g id="edge13_Node000011_Node000013" class="edge">
<title>Node11&#45;&gt;Node13</title>
<g id="a_edge13_Node000011_Node000013"><a xlink:title=" ">
<path fill="none" stroke="#63b8ff" d="M869.7,-133.66C850.49,-124.56 825.8,-112.86 806.01,-103.48"/>
<polygon fill="#63b8ff" stroke="#63b8ff" points="868.12,-136.79 878.66,-137.91 871.12,-130.46 868.12,-136.79"/>
</a>
</g>
</g>
<!-- Node14 -->
<g id="Node000014" class="node">
<title>Node14</title>
<g id="a_Node000014"><a xlink:href="../../d1/d6b/detector_2gyro__detector_8h.html" target="_top" xlink:title="装甲板识别派生类头文件">
<polygon fill="white" stroke="#666666" points="954.12,-103 847.38,-103 847.38,-69.5 954.12,-69.5 954.12,-103"/>
<text xml:space="preserve" text-anchor="start" x="855.38" y="-89.5" font-family="Helvetica,sans-Serif" font-size="10.00">rmvl/detector/gyro</text>
<text xml:space="preserve" text-anchor="middle" x="900.75" y="-76.75" font-family="Helvetica,sans-Serif" font-size="10.00">_detector.h</text>
</a>
</g>
</g>
<!-- Node11&#45;&gt;Node14 -->
<g id="edge14_Node000011_Node000014" class="edge">
<title>Node11&#45;&gt;Node14</title>
<g id="a_edge14_Node000011_Node000014"><a xlink:title=" ">
<path fill="none" stroke="#63b8ff" d="M900.75,-127.09C900.75,-119.35 900.75,-110.72 900.75,-103.48"/>
<polygon fill="#63b8ff" stroke="#63b8ff" points="897.25,-127.04 900.75,-137.04 904.25,-127.04 897.25,-127.04"/>
</a>
</g>
</g>
<!-- Node15 -->
<g id="Node000015" class="node">
<title>Node15</title>
<g id="a_Node000015"><a xlink:href="../../db/dcc/detector_2rune__detector_8h.html" target="_top" xlink:title="神符识别派生类头文件">
<polygon fill="white" stroke="#666666" points="1079.12,-103 972.38,-103 972.38,-69.5 1079.12,-69.5 1079.12,-103"/>
<text xml:space="preserve" text-anchor="start" x="980.38" y="-89.5" font-family="Helvetica,sans-Serif" font-size="10.00">rmvl/detector/rune</text>
<text xml:space="preserve" text-anchor="middle" x="1025.75" y="-76.75" font-family="Helvetica,sans-Serif" font-size="10.00">_detector.h</text>
</a>
</g>
</g>
<!-- Node11&#45;&gt;Node15 -->
<g id="edge15_Node000011_Node000015" class="edge">
<title>Node11&#45;&gt;Node15</title>
<g id="a_edge15_Node000011_Node000015"><a xlink:title=" ">
<path fill="none" stroke="#63b8ff" d="M931.1,-133.54C949.68,-124.45 973.47,-112.82 992.55,-103.48"/>
<polygon fill="#63b8ff" stroke="#63b8ff" points="929.64,-130.35 922.19,-137.89 932.71,-136.64 929.64,-130.35"/>
</a>
</g>
</g>
<!-- Node16 -->
<g id="Node000016" class="node">
<title>Node16</title>
<g id="a_Node000016"><a xlink:href="../../d6/d58/detector_2tag__detector_8h.html" target="_top" xlink:title="AprilTag 识别模块">
<polygon fill="white" stroke="#666666" points="1252.12,-96.62 1097.38,-96.62 1097.38,-75.88 1252.12,-75.88 1252.12,-96.62"/>
<text xml:space="preserve" text-anchor="middle" x="1174.75" y="-83.12" font-family="Helvetica,sans-Serif" font-size="10.00">rmvl/detector/tag_detector.h</text>
</a>
</g>
</g>
<!-- Node11&#45;&gt;Node16 -->
<g id="edge16_Node000011_Node000016" class="edge">
<title>Node11&#45;&gt;Node16</title>
<g id="a_edge16_Node000011_Node000016"><a xlink:title=" ">
<path fill="none" stroke="#63b8ff" d="M955.7,-136.12C1007.21,-124.62 1083.24,-107.66 1130.84,-97.05"/>
<polygon fill="#63b8ff" stroke="#63b8ff" points="955.25,-132.63 946.25,-138.22 956.77,-139.46 955.25,-132.63"/>
</a>
</g>
</g>
<!-- Node20&#45;&gt;Node6 -->
<g id="edge21_Node000020_Node000006" class="edge">
<title>Node20&#45;&gt;Node6</title>
<g id="a_edge21_Node000020_Node000006"><a xlink:title=" ">
<path fill="none" stroke="#63b8ff" d="M1307.12,-148.03C1161.53,-146.48 847.74,-138.83 585.75,-103 575.1,-101.54 563.69,-99.35 553.16,-97.05"/>
<polygon fill="#63b8ff" stroke="#63b8ff" points="1307.03,-151.53 1317.06,-148.13 1307.1,-144.53 1307.03,-151.53"/>
</a>
</g>
</g>
<!-- Node21 -->
<g id="Node000021" class="node">
<title>Node21</title>
<g id="a_Node000021"><a xlink:href="../../df/d54/rmvl_2predictor_8hpp.html" target="_top" xlink:title=" ">
<polygon fill="white" stroke="#666666" points="1751.38,-96.62 1646.12,-96.62 1646.12,-75.88 1751.38,-75.88 1751.38,-96.62"/>
<text xml:space="preserve" text-anchor="middle" x="1698.75" y="-83.12" font-family="Helvetica,sans-Serif" font-size="10.00">rmvl/predictor.hpp</text>
</a>
</g>
</g>
<!-- Node20&#45;&gt;Node21 -->
<g id="edge22_Node000020_Node000021" class="edge">
<title>Node20&#45;&gt;Node21</title>
<g id="a_edge22_Node000020_Node000021"><a xlink:title=" ">
<path fill="none" stroke="#63b8ff" d="M1460.38,-136.59C1510.05,-128.1 1577.64,-115.9 1636.75,-103 1644.89,-101.22 1653.58,-99.14 1661.8,-97.07"/>
<polygon fill="#63b8ff" stroke="#63b8ff" points="1459.88,-133.13 1450.61,-138.25 1461.05,-140.03 1459.88,-133.13"/>
</a>
</g>
</g>
<!-- Node22 -->
<g id="Node000022" class="node">
<title>Node22</title>
<g id="a_Node000022"><a xlink:href="../../df/d4c/predictor_2armor__predictor_8h.html" target="_top" xlink:title="装甲板预测派生类头文件">
<polygon fill="white" stroke="#666666" points="1886.38,-103 1769.12,-103 1769.12,-69.5 1886.38,-69.5 1886.38,-103"/>
<text xml:space="preserve" text-anchor="start" x="1777.12" y="-89.5" font-family="Helvetica,sans-Serif" font-size="10.00">rmvl/predictor/armor</text>
<text xml:space="preserve" text-anchor="middle" x="1827.75" y="-76.75" font-family="Helvetica,sans-Serif" font-size="10.00">_predictor.h</text>
</a>
</g>
</g>
<!-- Node20&#45;&gt;Node22 -->
<g id="edge23_Node000020_Node000022" class="edge">
<title>Node20&#45;&gt;Node22</title>
<g id="a_edge23_Node000020_Node000022"><a xlink:title=" ">
<path fill="none" stroke="#63b8ff" d="M1470.32,-138.66C1575.48,-126.09 1746.63,-105.51 1760.75,-103 1763.34,-102.54 1765.98,-102.04 1768.64,-101.52"/>
<polygon fill="#63b8ff" stroke="#63b8ff" points="1470.11,-135.15 1460.6,-139.82 1470.94,-142.11 1470.11,-135.15"/>
</a>
</g>
</g>
<!-- Node23 -->
<g id="Node000023" class="node">
<title>Node23</title>
<g id="a_Node000023"><a xlink:href="../../d9/de5/predictor_2gyro__predictor_8h.html" target="_top" xlink:title="整车状态预测派生类头文件">
<polygon fill="white" stroke="#666666" points="1379.62,-103 1269.88,-103 1269.88,-69.5 1379.62,-69.5 1379.62,-103"/>
<text xml:space="preserve" text-anchor="start" x="1277.88" y="-89.5" font-family="Helvetica,sans-Serif" font-size="10.00">rmvl/predictor/gyro</text>
<text xml:space="preserve" text-anchor="middle" x="1324.75" y="-76.75" font-family="Helvetica,sans-Serif" font-size="10.00">_predictor.h</text>
</a>
</g>
</g>
<!-- Node20&#45;&gt;Node23 -->
<g id="edge24_Node000020_Node000023" class="edge">
<title>Node20&#45;&gt;Node23</title>
<g id="a_edge24_Node000020_Node000023"><a xlink:title=" ">
<path fill="none" stroke="#63b8ff" d="M1370.2,-130.66C1361.22,-122.08 1350.51,-111.86 1341.75,-103.48"/>
<polygon fill="#63b8ff" stroke="#63b8ff" points="1367.72,-133.13 1377.37,-137.51 1372.56,-128.07 1367.72,-133.13"/>
</a>
</g>
</g>
<!-- Node24 -->
<g id="Node000024" class="node">
<title>Node24</title>
<g id="a_Node000024"><a xlink:href="../../d5/dec/predictor_2rune__predictor_8h.html" target="_top" xlink:title="神符预测派生类头文件">
<polygon fill="white" stroke="#666666" points="1507.62,-103 1397.88,-103 1397.88,-69.5 1507.62,-69.5 1507.62,-103"/>
<text xml:space="preserve" text-anchor="start" x="1405.88" y="-89.5" font-family="Helvetica,sans-Serif" font-size="10.00">rmvl/predictor/rune</text>
<text xml:space="preserve" text-anchor="middle" x="1452.75" y="-76.75" font-family="Helvetica,sans-Serif" font-size="10.00">_predictor.h</text>
</a>
</g>
</g>
<!-- Node20&#45;&gt;Node24 -->
<g id="edge25_Node000020_Node000024" class="edge">
<title>Node20&#45;&gt;Node24</title>
<g id="a_edge25_Node000020_Node000024"><a xlink:title=" ">
<path fill="none" stroke="#63b8ff" d="M1407.3,-130.66C1416.28,-122.08 1426.99,-111.86 1435.75,-103.48"/>
<polygon fill="#63b8ff" stroke="#63b8ff" points="1404.94,-128.07 1400.13,-137.51 1409.78,-133.13 1404.94,-128.07"/>
</a>
</g>
</g>
<!-- Node25 -->
<g id="Node000025" class="node">
<title>Node25</title>
<g id="a_Node000025"><a xlink:href="../../dc/d86/predictor_2spi__rune__predictor_8h.html" target="_top" xlink:title="系统参数辨识神符预测头文件">
<polygon fill="white" stroke="#666666" points="1627.88,-103 1525.62,-103 1525.62,-69.5 1627.88,-69.5 1627.88,-103"/>
<text xml:space="preserve" text-anchor="start" x="1533.62" y="-89.5" font-family="Helvetica,sans-Serif" font-size="10.00">rmvl/predictor/spi</text>
<text xml:space="preserve" text-anchor="middle" x="1576.75" y="-76.75" font-family="Helvetica,sans-Serif" font-size="10.00">_rune_predictor.h</text>
</a>
</g>
</g>
<!-- Node20&#45;&gt;Node25 -->
<g id="edge26_Node000020_Node000025" class="edge">
<title>Node20&#45;&gt;Node25</title>
<g id="a_edge26_Node000020_Node000025"><a xlink:title=" ">
<path fill="none" stroke="#63b8ff" d="M1429.77,-135.04C1458.3,-125.76 1496.51,-113.34 1526.82,-103.48"/>
<polygon fill="#63b8ff" stroke="#63b8ff" points="1428.82,-131.67 1420.39,-138.09 1430.99,-138.32 1428.82,-131.67"/>
</a>
</g>
</g>
</g>
</svg>
