<?xml version="1.0" encoding="UTF-8" standalone="no"?>
<!DOCTYPE svg PUBLIC "-//W3C//DTD SVG 1.1//EN"
 "http://www.w3.org/Graphics/SVG/1.1/DTD/svg11.dtd">
<!-- Generated by graphviz version 2.43.0 (0)
 -->
<!-- Title: rm::para::RmathParam Pages: 1 -->
<svg width="135pt" height="193pt"
 viewBox="0.00 0.00 135.00 193.00" xmlns="http://www.w3.org/2000/svg" xmlns:xlink="http://www.w3.org/1999/xlink">
<g id="graph0" class="graph" transform="scale(1 1) rotate(0) translate(4 189)">
<title>rm::para::RmathParam</title>
<polygon fill="white" stroke="transparent" points="-4,4 -4,-189 131,-189 131,4 -4,4"/>
<!-- Node1 -->
<g id="node1" class="node">
<title>Node1</title>
<g id="a_node1"><a xlink:title="RmathParam 参数模块">
<polygon fill="#bfbfbf" stroke="black" points="0,-0.5 0,-57.5 127,-57.5 127,-0.5 0,-0.5"/>
<text text-anchor="middle" x="63.5" y="-45.5" font-family="Helvetica,sans-Serif" font-size="10.00">rm::para::RmathParam</text>
<polyline fill="none" stroke="black" points="0,-38.5 127,-38.5 "/>
<text text-anchor="middle" x="63.5" y="-26.5" font-family="Helvetica,sans-Serif" font-size="10.00"> </text>
<polyline fill="none" stroke="black" points="0,-19.5 127,-19.5 "/>
<text text-anchor="start" x="8" y="-7.5" font-family="Helvetica,sans-Serif" font-size="10.00">+ RmathParam()</text>
</a>
</g>
</g>
<!-- Node2 -->
<g id="node2" class="node">
<title>Node2</title>
<g id="a_node2"><a xlink:title=" ">
<polygon fill="white" stroke="#bfbfbf" points="49,-127.5 49,-184.5 78,-184.5 78,-127.5 49,-127.5"/>
<text text-anchor="middle" x="63.5" y="-172.5" font-family="Helvetica,sans-Serif" font-size="10.00">int</text>
<polyline fill="none" stroke="#bfbfbf" points="49,-165.5 78,-165.5 "/>
<text text-anchor="middle" x="63.5" y="-153.5" font-family="Helvetica,sans-Serif" font-size="10.00"> </text>
<polyline fill="none" stroke="#bfbfbf" points="49,-146.5 78,-146.5 "/>
<text text-anchor="middle" x="63.5" y="-134.5" font-family="Helvetica,sans-Serif" font-size="10.00"> </text>
</a>
</g>
</g>
<!-- Node2&#45;&gt;Node1 -->
<g id="edge1" class="edge">
<title>Node2&#45;&gt;Node1</title>
<path fill="none" stroke="#404040" d="M63.5,-127.26C63.5,-110.35 63.5,-88.46 63.5,-69.73"/>
<polygon fill="none" stroke="#404040" points="63.5,-69.66 59.5,-63.66 63.5,-57.66 67.5,-63.66 63.5,-69.66"/>
<text text-anchor="middle" x="91" y="-101" font-family="Helvetica,sans-Serif" font-size="10.00"> +EULER_0</text>
<text text-anchor="middle" x="91" y="-90" font-family="Helvetica,sans-Serif" font-size="10.00">+EULER_1</text>
<text text-anchor="middle" x="91" y="-79" font-family="Helvetica,sans-Serif" font-size="10.00">+EULER_2</text>
</g>
</g>
</svg>
