<?xml version="1.0" encoding="UTF-8" standalone="no"?>
<!DOCTYPE svg PUBLIC "-//W3C//DTD SVG 1.1//EN"
 "http://www.w3.org/Graphics/SVG/1.1/DTD/svg11.dtd">
<!-- Generated by graphviz version 2.43.0 (0)
 -->
<!-- Title: rmvl/decider/rune_decider.h Pages: 1 -->
<!--zoomable 522 -->

<svg id="main" version="1.1" xmlns="http://www.w3.org/2000/svg" xmlns:xlink="http://www.w3.org/1999/xlink" xml:space="preserve" onload="init(evt)">

<style type="text/css"><![CDATA[
.node, .edge {opacity: 0.7;}
.node.selected, .edge.selected {opacity: 1;}
.edge:hover path { stroke: red; }
.edge:hover polygon { stroke: red; fill: red; }
]]></style>

<defs>
  <circle id="rim" cx="0" cy="0" r="7"/>
  <circle id="rim2" cx="0" cy="0" r="3.5"/>
  <g id="zoomPlus">
    <use xlink:href="#rim" fill="#404040"><set attributeName="fill" to="#808080" begin="zoomplus.mouseover" end="zoomplus.mouseout"/></use>
    <path d="M-4,0h8M0,-4v8" fill="none" stroke="white" stroke-width="1.5" pointer-events="none"/>
  </g>
  <g id="zoomMin">
    <use xlink:href="#rim" fill="#404040"><set attributeName="fill" to="#808080" begin="zoomminus.mouseover" end="zoomminus.mouseout"/></use>
    <path d="M-4,0h8" fill="none" stroke="white" stroke-width="1.5" pointer-events="none"/>
  </g>
  <g id="arrowUp" transform="translate(30 24)">
    <use xlink:href="#rim"/>
    <path pointer-events="none" fill="none" stroke="white" stroke-width="1.5" d="M0,-3.0v7 M-2.5,-0.5L0,-3.0L2.5,-0.5"/>
  </g>
  <g id="arrowRight" transform="rotate(90) translate(36 -43)">
    <use xlink:href="#rim"/>
    <path pointer-events="none" fill="none" stroke="white" stroke-width="1.5" d="M0,-3.0v7 M-2.5,-0.5L0,-3.0L2.5,-0.5"/>
  </g>
  <g id="arrowDown" transform="rotate(180) translate(-30 -48)">
    <use xlink:href="#rim"/>
    <path pointer-events="none" fill="none" stroke="white" stroke-width="1.5" d="M0,-3.0v7 M-2.5,-0.5L0,-3.0L2.5,-0.5"/>
  </g>
  <g id="arrowLeft" transform="rotate(270) translate(-36 17)">
    <use xlink:href="#rim"/>
    <path pointer-events="none" fill="none" stroke="white" stroke-width="1.5" d="M0,-3.0v7 M-2.5,-0.5L0,-3.0L2.5,-0.5"/>
  </g>
  <g id="resetDef">
    <use xlink:href="#rim2" fill="#404040"><set attributeName="fill" to="#808080" begin="reset.mouseover" end="reset.mouseout"/></use>
  </g>
</defs>
<script type="application/ecmascript">
var viewWidth = 1155;
var viewHeight = 522;
var sectionId = 'dynsection-0';
</script>
<script type="application/ecmascript" xlink:href="../../svg.min.js"/>
<svg id="graph" class="graph">
<g id="viewport">
<title>rmvl/decider/rune_decider.h</title>
<!-- Node1 -->
<g id="Node000001" class="node">
<title>Node1</title>
<g id="a_Node000001"><a xlink:title="神符模块决策器头文件">
<polygon fill="#999999" stroke="#666666" points="455.5,-514 303.5,-514 303.5,-495 455.5,-495 455.5,-514"/>
<text text-anchor="middle" x="379.5" y="-502" font-family="Helvetica,sans-Serif" font-size="10.00">rmvl/decider/rune_decider.h</text>
</a>
</g>
</g>
<!-- Node2 -->
<g id="Node000002" class="node">
<title>Node2</title>
<g id="a_Node000002"><a xlink:href="../../d3/d70/decider_8h.html" target="_top" xlink:title="抽象决策类头文件">
<polygon fill="white" stroke="#666666" points="410,-459 349,-459 349,-440 410,-440 410,-459"/>
<text text-anchor="middle" x="379.5" y="-447" font-family="Helvetica,sans-Serif" font-size="10.00">decider.h</text>
</a>
</g>
</g>
<!-- Node1&#45;&gt;Node2 -->
<g id="edge1_Node000001_Node000002" class="edge">
<title>Node1&#45;&gt;Node2</title>
<g id="a_edge1_Node000001_Node000002"><a xlink:title=" ">
<path fill="none" stroke="#63b8ff" d="M379.5,-494.75C379.5,-487.8 379.5,-477.85 379.5,-469.13"/>
<polygon fill="#63b8ff" stroke="#63b8ff" points="383,-469.09 379.5,-459.09 376,-469.09 383,-469.09"/>
</a>
</g>
</g>
<!-- Node3 -->
<g id="Node000003" class="node">
<title>Node3</title>
<g id="a_Node000003"><a xlink:href="../../d9/df2/compensator_8h.html" target="_top" xlink:title="抽象补偿类头文件">
<polygon fill="white" stroke="#666666" points="291,-404 110,-404 110,-385 291,-385 291,-404"/>
<text text-anchor="middle" x="200.5" y="-392" font-family="Helvetica,sans-Serif" font-size="10.00">rmvl/compensator/compensator.h</text>
</a>
</g>
</g>
<!-- Node2&#45;&gt;Node3 -->
<g id="edge2_Node000002_Node000003" class="edge">
<title>Node2&#45;&gt;Node3</title>
<g id="a_edge2_Node000002_Node000003"><a xlink:title=" ">
<path fill="none" stroke="#63b8ff" d="M350.74,-439.98C320.56,-431.05 272.93,-416.94 239.4,-407.02"/>
<polygon fill="#63b8ff" stroke="#63b8ff" points="240.07,-403.57 229.48,-404.08 238.08,-410.28 240.07,-403.57"/>
</a>
</g>
</g>
<!-- Node30 -->
<g id="Node000030" class="node">
<title>Node30</title>
<g id="a_Node000030"><a xlink:href="../../d5/d9f/detector_8h.html" target="_top" xlink:title="抽象识别类头文件">
<polygon fill="white" stroke="#666666" points="601.5,-404 467.5,-404 467.5,-385 601.5,-385 601.5,-404"/>
<text text-anchor="middle" x="534.5" y="-392" font-family="Helvetica,sans-Serif" font-size="10.00">rmvl/detector/detector.h</text>
</a>
</g>
</g>
<!-- Node2&#45;&gt;Node30 -->
<g id="edge33_Node000002_Node000030" class="edge">
<title>Node2&#45;&gt;Node30</title>
<g id="a_edge33_Node000002_Node000030"><a xlink:title=" ">
<path fill="none" stroke="#63b8ff" d="M404.4,-439.98C430.2,-431.16 470.72,-417.31 499.68,-407.41"/>
<polygon fill="#63b8ff" stroke="#63b8ff" points="501.07,-410.63 509.4,-404.08 498.81,-404.01 501.07,-410.63"/>
</a>
</g>
</g>
<!-- Node33 -->
<g id="Node000033" class="node">
<title>Node33</title>
<g id="a_Node000033"><a xlink:href="../../dc/d08/predictor_8h.html" target="_top" xlink:title="抽象预测类头文件">
<polygon fill="white" stroke="#666666" points="449.5,-404 309.5,-404 309.5,-385 449.5,-385 449.5,-404"/>
<text text-anchor="middle" x="379.5" y="-392" font-family="Helvetica,sans-Serif" font-size="10.00">rmvl/predictor/predictor.h</text>
</a>
</g>
</g>
<!-- Node2&#45;&gt;Node33 -->
<g id="edge37_Node000002_Node000033" class="edge">
<title>Node2&#45;&gt;Node33</title>
<g id="a_edge37_Node000002_Node000033"><a xlink:title=" ">
<path fill="none" stroke="#63b8ff" d="M379.5,-439.75C379.5,-432.8 379.5,-422.85 379.5,-414.13"/>
<polygon fill="#63b8ff" stroke="#63b8ff" points="383,-414.09 379.5,-404.09 376,-414.09 383,-414.09"/>
</a>
</g>
</g>
<!-- Node4 -->
<g id="Node000004" class="node">
<title>Node4</title>
<g id="a_Node000004"><a xlink:title=" ">
<polygon fill="#e0e0e0" stroke="#999999" points="93,-129 0,-129 0,-110 93,-110 93,-129"/>
<text text-anchor="middle" x="46.5" y="-117" font-family="Helvetica,sans-Serif" font-size="10.00">unordered_map</text>
</a>
</g>
</g>
<!-- Node3&#45;&gt;Node4 -->
<g id="edge3_Node000003_Node000004" class="edge">
<title>Node3&#45;&gt;Node4</title>
<g id="a_edge3_Node000003_Node000004"><a xlink:title=" ">
<path fill="none" stroke="#63b8ff" d="M177.36,-384.91C142.49,-370.3 80.5,-337.07 80.5,-285.5 80.5,-285.5 80.5,-285.5 80.5,-228.5 80.5,-195.39 65.78,-159.1 55.71,-138.14"/>
<polygon fill="#63b8ff" stroke="#63b8ff" points="58.83,-136.55 51.23,-129.17 52.57,-139.68 58.83,-136.55"/>
</a>
</g>
</g>
<!-- Node5 -->
<g id="Node000005" class="node">
<title>Node5</title>
<g id="a_Node000005"><a xlink:href="../../d9/dd1/group_8h.html" target="_top" xlink:title="序列组抽象头文件">
<polygon fill="white" stroke="#666666" points="465.5,-349 355.5,-349 355.5,-330 465.5,-330 465.5,-349"/>
<text text-anchor="middle" x="410.5" y="-337" font-family="Helvetica,sans-Serif" font-size="10.00">rmvl/group/group.h</text>
</a>
</g>
</g>
<!-- Node3&#45;&gt;Node5 -->
<g id="edge4_Node000003_Node000005" class="edge">
<title>Node3&#45;&gt;Node5</title>
<g id="a_edge4_Node000003_Node000005"><a xlink:title=" ">
<path fill="none" stroke="#63b8ff" d="M234.24,-384.98C270.18,-375.91 327.22,-361.52 366.63,-351.57"/>
<polygon fill="#63b8ff" stroke="#63b8ff" points="367.66,-354.92 376.5,-349.08 365.94,-348.14 367.66,-354.92"/>
</a>
</g>
</g>
<!-- Node6 -->
<g id="Node000006" class="node">
<title>Node6</title>
<g id="a_Node000006"><a xlink:href="../../dc/ded/tracker_8h.html" target="_top" xlink:title="追踪器抽象头文件">
<polygon fill="white" stroke="#666666" points="575,-294 454,-294 454,-275 575,-275 575,-294"/>
<text text-anchor="middle" x="514.5" y="-282" font-family="Helvetica,sans-Serif" font-size="10.00">rmvl/tracker/tracker.h</text>
</a>
</g>
</g>
<!-- Node5&#45;&gt;Node6 -->
<g id="edge5_Node000005_Node000006" class="edge">
<title>Node5&#45;&gt;Node6</title>
<g id="a_edge5_Node000005_Node000006"><a xlink:title=" ">
<path fill="none" stroke="#63b8ff" d="M427.21,-329.98C443.71,-321.57 469.2,-308.59 488.38,-298.81"/>
<polygon fill="#63b8ff" stroke="#63b8ff" points="490.17,-301.83 497.49,-294.17 486.99,-295.59 490.17,-301.83"/>
</a>
</g>
</g>
<!-- Node7 -->
<g id="Node000007" class="node">
<title>Node7</title>
<g id="a_Node000007"><a xlink:title=" ">
<polygon fill="#e0e0e0" stroke="#999999" points="728,-239 681,-239 681,-220 728,-220 728,-239"/>
<text text-anchor="middle" x="704.5" y="-227" font-family="Helvetica,sans-Serif" font-size="10.00">deque</text>
</a>
</g>
</g>
<!-- Node6&#45;&gt;Node7 -->
<g id="edge6_Node000006_Node000007" class="edge">
<title>Node6&#45;&gt;Node7</title>
<g id="a_edge6_Node000006_Node000007"><a xlink:title=" ">
<path fill="none" stroke="#63b8ff" d="M545.03,-274.98C579.49,-265.37 635.4,-249.78 671.03,-239.84"/>
<polygon fill="#63b8ff" stroke="#63b8ff" points="672.26,-243.13 680.95,-237.07 670.38,-236.38 672.26,-243.13"/>
</a>
</g>
</g>
<!-- Node8 -->
<g id="Node000008" class="node">
<title>Node8</title>
<g id="a_Node000008"><a xlink:href="../../d8/d36/combo_8h.html" target="_top" xlink:title="the combination of the features header file">
<polygon fill="white" stroke="#666666" points="662.5,-239 542.5,-239 542.5,-220 662.5,-220 662.5,-239"/>
<text text-anchor="middle" x="602.5" y="-227" font-family="Helvetica,sans-Serif" font-size="10.00">rmvl/combo/combo.h</text>
</a>
</g>
</g>
<!-- Node6&#45;&gt;Node8 -->
<g id="edge7_Node000006_Node000008" class="edge">
<title>Node6&#45;&gt;Node8</title>
<g id="a_edge7_Node000006_Node000008"><a xlink:title=" ">
<path fill="none" stroke="#63b8ff" d="M528.64,-274.98C542.29,-266.77 563.19,-254.18 579.28,-244.49"/>
<polygon fill="#63b8ff" stroke="#63b8ff" points="581.34,-247.33 588.1,-239.17 577.73,-241.33 581.34,-247.33"/>
</a>
</g>
</g>
<!-- Node9 -->
<g id="Node000009" class="node">
<title>Node9</title>
<g id="a_Node000009"><a xlink:href="../../d3/d7e/camutils_8hpp.html" target="_top" xlink:title=" ">
<polygon fill="white" stroke="#666666" points="828,-184 683,-184 683,-165 828,-165 828,-184"/>
<text text-anchor="middle" x="755.5" y="-172" font-family="Helvetica,sans-Serif" font-size="10.00">rmvl/camera/camutils.hpp</text>
</a>
</g>
</g>
<!-- Node8&#45;&gt;Node9 -->
<g id="edge8_Node000008_Node000009" class="edge">
<title>Node8&#45;&gt;Node9</title>
<g id="a_edge8_Node000008_Node000009"><a xlink:title=" ">
<path fill="none" stroke="#63b8ff" d="M627.08,-219.98C652.55,-211.16 692.54,-197.31 721.13,-187.41"/>
<polygon fill="#63b8ff" stroke="#63b8ff" points="722.42,-190.66 730.73,-184.08 720.13,-184.05 722.42,-190.66"/>
</a>
</g>
</g>
<!-- Node11 -->
<g id="Node000011" class="node">
<title>Node11</title>
<g id="a_Node000011"><a xlink:href="../../d4/d78/math_8hpp.html" target="_top" xlink:title="基础数学库">
<polygon fill="white" stroke="#666666" points="459,-184 346,-184 346,-165 459,-165 459,-184"/>
<text text-anchor="middle" x="402.5" y="-172" font-family="Helvetica,sans-Serif" font-size="10.00">rmvl/core/math.hpp</text>
</a>
</g>
</g>
<!-- Node8&#45;&gt;Node11 -->
<g id="edge10_Node000008_Node000011" class="edge">
<title>Node8&#45;&gt;Node11</title>
<g id="a_edge10_Node000008_Node000011"><a xlink:title=" ">
<path fill="none" stroke="#63b8ff" d="M570.37,-219.98C536.35,-210.97 482.5,-196.7 445,-186.76"/>
<polygon fill="#63b8ff" stroke="#63b8ff" points="445.45,-183.26 434.89,-184.08 443.66,-190.03 445.45,-183.26"/>
</a>
</g>
</g>
<!-- Node23 -->
<g id="Node000023" class="node">
<title>Node23</title>
<g id="a_Node000023"><a xlink:href="../../dd/de3/types_8hpp.html" target="_top" xlink:title="常用状态类型定义">
<polygon fill="white" stroke="#666666" points="919.5,-129 829.5,-129 829.5,-110 919.5,-110 919.5,-129"/>
<text text-anchor="middle" x="874.5" y="-117" font-family="Helvetica,sans-Serif" font-size="10.00">rmvl/types.hpp</text>
</a>
</g>
</g>
<!-- Node8&#45;&gt;Node23 -->
<g id="edge23_Node000008_Node000023" class="edge">
<title>Node8&#45;&gt;Node23</title>
<g id="a_edge23_Node000008_Node000023"><a xlink:title=" ">
<path fill="none" stroke="#63b8ff" d="M661.09,-220C725.93,-210.18 823.21,-194.09 837.5,-184 853.1,-172.98 863.1,-153.14 868.72,-138.56"/>
<polygon fill="#63b8ff" stroke="#63b8ff" points="872.04,-139.67 872.06,-129.07 865.44,-137.35 872.04,-139.67"/>
</a>
</g>
</g>
<!-- Node24 -->
<g id="Node000024" class="node">
<title>Node24</title>
<g id="a_Node000024"><a xlink:href="../../d5/d60/dataio_8hpp.html" target="_top" xlink:title="陀螺仪数据">
<polygon fill="white" stroke="#666666" points="661.5,-184 543.5,-184 543.5,-165 661.5,-165 661.5,-184"/>
<text text-anchor="middle" x="602.5" y="-172" font-family="Helvetica,sans-Serif" font-size="10.00">rmvl/core/dataio.hpp</text>
</a>
</g>
</g>
<!-- Node8&#45;&gt;Node24 -->
<g id="edge25_Node000008_Node000024" class="edge">
<title>Node8&#45;&gt;Node24</title>
<g id="a_edge25_Node000008_Node000024"><a xlink:title=" ">
<path fill="none" stroke="#63b8ff" d="M602.5,-219.75C602.5,-212.8 602.5,-202.85 602.5,-194.13"/>
<polygon fill="#63b8ff" stroke="#63b8ff" points="606,-194.09 602.5,-184.09 599,-194.09 606,-194.09"/>
</a>
</g>
</g>
<!-- Node27 -->
<g id="Node000027" class="node">
<title>Node27</title>
<g id="a_Node000027"><a xlink:href="../../d2/d74/feature_8h.html" target="_top" xlink:title="feature class header">
<polygon fill="white" stroke="#666666" points="1024,-184 899,-184 899,-165 1024,-165 1024,-184"/>
<text text-anchor="middle" x="961.5" y="-172" font-family="Helvetica,sans-Serif" font-size="10.00">rmvl/feature/feature.h</text>
</a>
</g>
</g>
<!-- Node8&#45;&gt;Node27 -->
<g id="edge29_Node000008_Node000027" class="edge">
<title>Node8&#45;&gt;Node27</title>
<g id="a_edge29_Node000008_Node000027"><a xlink:title=" ">
<path fill="none" stroke="#63b8ff" d="M660.18,-219.98C723.81,-210.59 826.1,-195.49 893.56,-185.53"/>
<polygon fill="#63b8ff" stroke="#63b8ff" points="894.28,-188.96 903.67,-184.04 893.26,-182.04 894.28,-188.96"/>
</a>
</g>
</g>
<!-- Node10 -->
<g id="Node000010" class="node">
<title>Node10</title>
<g id="a_Node000010"><a xlink:title=" ">
<polygon fill="#e0e0e0" stroke="#999999" points="811,-129 708,-129 708,-110 811,-110 811,-129"/>
<text text-anchor="middle" x="759.5" y="-117" font-family="Helvetica,sans-Serif" font-size="10.00">opencv2/core.hpp</text>
</a>
</g>
</g>
<!-- Node9&#45;&gt;Node10 -->
<g id="edge9_Node000009_Node000010" class="edge">
<title>Node9&#45;&gt;Node10</title>
<g id="a_edge9_Node000009_Node000010"><a xlink:title=" ">
<path fill="none" stroke="#63b8ff" d="M756.16,-164.75C756.68,-157.8 757.44,-147.85 758.09,-139.13"/>
<polygon fill="#63b8ff" stroke="#63b8ff" points="761.59,-139.32 758.85,-129.09 754.61,-138.8 761.59,-139.32"/>
</a>
</g>
</g>
<!-- Node11&#45;&gt;Node4 -->
<g id="edge13_Node000011_Node000004" class="edge">
<title>Node11&#45;&gt;Node4</title>
<g id="a_edge13_Node000011_Node000004"><a xlink:title=" ">
<path fill="none" stroke="#63b8ff" d="M345.82,-165.15C287.61,-156.56 194.11,-142.73 103.18,-129.1"/>
<polygon fill="#63b8ff" stroke="#63b8ff" points="103.66,-125.63 93.25,-127.61 102.62,-132.55 103.66,-125.63"/>
</a>
</g>
</g>
<!-- Node12 -->
<g id="Node000012" class="node">
<title>Node12</title>
<g id="a_Node000012"><a xlink:title=" ">
<polygon fill="#e0e0e0" stroke="#999999" points="459,-129 412,-129 412,-110 459,-110 459,-129"/>
<text text-anchor="middle" x="435.5" y="-117" font-family="Helvetica,sans-Serif" font-size="10.00">cmath</text>
</a>
</g>
</g>
<!-- Node11&#45;&gt;Node12 -->
<g id="edge11_Node000011_Node000012" class="edge">
<title>Node11&#45;&gt;Node12</title>
<g id="a_edge11_Node000011_Node000012"><a xlink:title=" ">
<path fill="none" stroke="#63b8ff" d="M407.95,-164.75C412.51,-157.42 419.17,-146.73 424.79,-137.7"/>
<polygon fill="#63b8ff" stroke="#63b8ff" points="427.84,-139.43 430.15,-129.09 421.9,-135.73 427.84,-139.43"/>
</a>
</g>
</g>
<!-- Node13 -->
<g id="Node000013" class="node">
<title>Node13</title>
<g id="a_Node000013"><a xlink:title=" ">
<polygon fill="#e0e0e0" stroke="#999999" points="167.5,-129 111.5,-129 111.5,-110 167.5,-110 167.5,-129"/>
<text text-anchor="middle" x="139.5" y="-117" font-family="Helvetica,sans-Serif" font-size="10.00">numeric</text>
</a>
</g>
</g>
<!-- Node11&#45;&gt;Node13 -->
<g id="edge12_Node000011_Node000013" class="edge">
<title>Node11&#45;&gt;Node13</title>
<g id="a_edge12_Node000011_Node000013"><a xlink:title=" ">
<path fill="none" stroke="#63b8ff" d="M357.61,-164.96C312.15,-156.23 239.84,-142.14 177.5,-129 177.4,-128.98 177.3,-128.96 177.2,-128.94"/>
<polygon fill="#63b8ff" stroke="#63b8ff" points="178.22,-125.58 167.7,-126.89 176.74,-132.42 178.22,-125.58"/>
</a>
</g>
</g>
<!-- Node14 -->
<g id="Node000014" class="node">
<title>Node14</title>
<g id="a_Node000014"><a xlink:title=" ">
<polygon fill="#e0e0e0" stroke="#999999" points="563,-129 516,-129 516,-110 563,-110 563,-129"/>
<text text-anchor="middle" x="539.5" y="-117" font-family="Helvetica,sans-Serif" font-size="10.00">vector</text>
</a>
</g>
</g>
<!-- Node11&#45;&gt;Node14 -->
<g id="edge14_Node000011_Node000014" class="edge">
<title>Node11&#45;&gt;Node14</title>
<g id="a_edge14_Node000011_Node000014"><a xlink:title=" ">
<path fill="none" stroke="#63b8ff" d="M424.51,-164.98C446.95,-156.3 481.98,-142.75 507.49,-132.88"/>
<polygon fill="#63b8ff" stroke="#63b8ff" points="509.02,-136.04 517.09,-129.17 506.5,-129.51 509.02,-136.04"/>
</a>
</g>
</g>
<!-- Node15 -->
<g id="Node000015" class="node">
<title>Node15</title>
<g id="a_Node000015"><a xlink:title=" ">
<polygon fill="#e0e0e0" stroke="#999999" points="245,-129 186,-129 186,-110 245,-110 245,-129"/>
<text text-anchor="middle" x="215.5" y="-117" font-family="Helvetica,sans-Serif" font-size="10.00">numbers</text>
</a>
</g>
</g>
<!-- Node11&#45;&gt;Node15 -->
<g id="edge15_Node000011_Node000015" class="edge">
<title>Node11&#45;&gt;Node15</title>
<g id="a_edge15_Node000011_Node000015"><a xlink:title=" ">
<path fill="none" stroke="#63b8ff" d="M372.46,-164.98C340.6,-155.96 290.14,-141.65 255.07,-131.71"/>
<polygon fill="#63b8ff" stroke="#63b8ff" points="255.74,-128.27 245.16,-128.91 253.83,-135 255.74,-128.27"/>
</a>
</g>
</g>
<!-- Node16 -->
<g id="Node000016" class="node">
<title>Node16</title>
<g id="a_Node000016"><a xlink:title=" ">
<polygon fill="#e0e0e0" stroke="#999999" points="394,-129 263,-129 263,-110 394,-110 394,-129"/>
<text text-anchor="middle" x="328.5" y="-117" font-family="Helvetica,sans-Serif" font-size="10.00">opencv2/core/matx.hpp</text>
</a>
</g>
</g>
<!-- Node11&#45;&gt;Node16 -->
<g id="edge16_Node000011_Node000016" class="edge">
<title>Node11&#45;&gt;Node16</title>
<g id="a_edge16_Node000011_Node000016"><a xlink:title=" ">
<path fill="none" stroke="#63b8ff" d="M390.61,-164.98C379.35,-156.92 362.21,-144.65 348.79,-135.03"/>
<polygon fill="#63b8ff" stroke="#63b8ff" points="350.77,-132.15 340.61,-129.17 346.7,-137.84 350.77,-132.15"/>
</a>
</g>
</g>
<!-- Node17 -->
<g id="Node000017" class="node">
<title>Node17</title>
<g id="a_Node000017"><a xlink:href="../../d0/d3f/util_8hpp.html" target="_top" xlink:title=" ">
<polygon fill="white" stroke="#666666" points="707,-74 654,-74 654,-55 707,-55 707,-74"/>
<text text-anchor="middle" x="680.5" y="-62" font-family="Helvetica,sans-Serif" font-size="10.00">util.hpp</text>
</a>
</g>
</g>
<!-- Node11&#45;&gt;Node17 -->
<g id="edge17_Node000011_Node000017" class="edge">
<title>Node11&#45;&gt;Node17</title>
<g id="a_edge17_Node000011_Node000017"><a xlink:title=" ">
<path fill="none" stroke="#63b8ff" d="M414.17,-164.86C432.93,-151.35 471.36,-125.19 507.5,-110 552.78,-90.97 608.24,-78.46 643.96,-71.68"/>
<polygon fill="#63b8ff" stroke="#63b8ff" points="644.74,-75.09 653.93,-69.84 643.46,-68.21 644.74,-75.09"/>
</a>
</g>
</g>
<!-- Node18 -->
<g id="Node000018" class="node">
<title>Node18</title>
<g id="a_Node000018"><a xlink:title=" ">
<polygon fill="#e0e0e0" stroke="#999999" points="571,-19 438,-19 438,0 571,0 571,-19"/>
<text text-anchor="middle" x="504.5" y="-7" font-family="Helvetica,sans-Serif" font-size="10.00">rmvl/rmvl_modules.hpp</text>
</a>
</g>
</g>
<!-- Node17&#45;&gt;Node18 -->
<g id="edge18_Node000017_Node000018" class="edge">
<title>Node17&#45;&gt;Node18</title>
<g id="a_edge18_Node000017_Node000018"><a xlink:title=" ">
<path fill="none" stroke="#63b8ff" d="M653.77,-55.45C624.23,-46.55 576.39,-32.15 542.86,-22.05"/>
<polygon fill="#63b8ff" stroke="#63b8ff" points="543.53,-18.6 532.94,-19.07 541.51,-25.3 543.53,-18.6"/>
</a>
</g>
</g>
<!-- Node19 -->
<g id="Node000019" class="node">
<title>Node19</title>
<g id="a_Node000019"><a xlink:title=" ">
<polygon fill="#e0e0e0" stroke="#999999" points="639.5,-19 589.5,-19 589.5,0 639.5,0 639.5,-19"/>
<text text-anchor="middle" x="614.5" y="-7" font-family="Helvetica,sans-Serif" font-size="10.00">cstdint</text>
</a>
</g>
</g>
<!-- Node17&#45;&gt;Node19 -->
<g id="edge19_Node000017_Node000019" class="edge">
<title>Node17&#45;&gt;Node19</title>
<g id="a_edge19_Node000017_Node000019"><a xlink:title=" ">
<path fill="none" stroke="#63b8ff" d="M669.9,-54.98C660.04,-47.07 645.15,-35.11 633.28,-25.58"/>
<polygon fill="#63b8ff" stroke="#63b8ff" points="635.29,-22.7 625.3,-19.17 630.9,-28.16 635.29,-22.7"/>
</a>
</g>
</g>
<!-- Node20 -->
<g id="Node000020" class="node">
<title>Node20</title>
<g id="a_Node000020"><a xlink:title=" ">
<polygon fill="#e0e0e0" stroke="#999999" points="703.5,-19 657.5,-19 657.5,0 703.5,0 703.5,-19"/>
<text text-anchor="middle" x="680.5" y="-7" font-family="Helvetica,sans-Serif" font-size="10.00">cstdio</text>
</a>
</g>
</g>
<!-- Node17&#45;&gt;Node20 -->
<g id="edge20_Node000017_Node000020" class="edge">
<title>Node17&#45;&gt;Node20</title>
<g id="a_edge20_Node000017_Node000020"><a xlink:title=" ">
<path fill="none" stroke="#63b8ff" d="M680.5,-54.75C680.5,-47.8 680.5,-37.85 680.5,-29.13"/>
<polygon fill="#63b8ff" stroke="#63b8ff" points="684,-29.09 680.5,-19.09 677,-29.09 684,-29.09"/>
</a>
</g>
</g>
<!-- Node21 -->
<g id="Node000021" class="node">
<title>Node21</title>
<g id="a_Node000021"><a xlink:title=" ">
<polygon fill="#e0e0e0" stroke="#999999" points="765.5,-19 721.5,-19 721.5,0 765.5,0 765.5,-19"/>
<text text-anchor="middle" x="743.5" y="-7" font-family="Helvetica,sans-Serif" font-size="10.00">string</text>
</a>
</g>
</g>
<!-- Node17&#45;&gt;Node21 -->
<g id="edge21_Node000017_Node000021" class="edge">
<title>Node17&#45;&gt;Node21</title>
<g id="a_edge21_Node000017_Node000021"><a xlink:title=" ">
<path fill="none" stroke="#63b8ff" d="M690.62,-54.98C699.94,-47.15 713.97,-35.34 725.24,-25.86"/>
<polygon fill="#63b8ff" stroke="#63b8ff" points="727.79,-28.29 733.19,-19.17 723.29,-22.93 727.79,-28.29"/>
</a>
</g>
</g>
<!-- Node22 -->
<g id="Node000022" class="node">
<title>Node22</title>
<g id="a_Node000022"><a xlink:href="../../db/d41/rmvldef_8hpp.html" target="_top" xlink:title=" ">
<polygon fill="white" stroke="#666666" points="859,-19 784,-19 784,0 859,0 859,-19"/>
<text text-anchor="middle" x="821.5" y="-7" font-family="Helvetica,sans-Serif" font-size="10.00">rmvldef.hpp</text>
</a>
</g>
</g>
<!-- Node17&#45;&gt;Node22 -->
<g id="edge22_Node000017_Node000022" class="edge">
<title>Node17&#45;&gt;Node22</title>
<g id="a_edge22_Node000017_Node000022"><a xlink:title=" ">
<path fill="none" stroke="#63b8ff" d="M703.15,-54.98C726.35,-46.27 762.62,-32.63 788.9,-22.75"/>
<polygon fill="#63b8ff" stroke="#63b8ff" points="790.3,-25.97 798.43,-19.17 787.84,-19.41 790.3,-25.97"/>
</a>
</g>
</g>
<!-- Node23&#45;&gt;Node17 -->
<g id="edge24_Node000023_Node000017" class="edge">
<title>Node23&#45;&gt;Node17</title>
<g id="a_edge24_Node000023_Node000017"><a xlink:title=" ">
<path fill="none" stroke="#63b8ff" d="M843.33,-109.98C808.87,-100.57 753.42,-85.42 716.96,-75.46"/>
<polygon fill="#63b8ff" stroke="#63b8ff" points="717.79,-72.06 707.22,-72.8 715.94,-78.81 717.79,-72.06"/>
</a>
</g>
</g>
<!-- Node24&#45;&gt;Node14 -->
<g id="edge28_Node000024_Node000014" class="edge">
<title>Node24&#45;&gt;Node14</title>
<g id="a_edge28_Node000024_Node000014"><a xlink:title=" ">
<path fill="none" stroke="#63b8ff" d="M592.38,-164.98C583.06,-157.15 569.03,-145.34 557.76,-135.86"/>
<polygon fill="#63b8ff" stroke="#63b8ff" points="559.71,-132.93 549.81,-129.17 555.21,-138.29 559.71,-132.93"/>
</a>
</g>
</g>
<!-- Node25 -->
<g id="Node000025" class="node">
<title>Node25</title>
<g id="a_Node000025"><a xlink:title=" ">
<polygon fill="#e0e0e0" stroke="#999999" points="623.5,-129 581.5,-129 581.5,-110 623.5,-110 623.5,-129"/>
<text text-anchor="middle" x="602.5" y="-117" font-family="Helvetica,sans-Serif" font-size="10.00">array</text>
</a>
</g>
</g>
<!-- Node24&#45;&gt;Node25 -->
<g id="edge26_Node000024_Node000025" class="edge">
<title>Node24&#45;&gt;Node25</title>
<g id="a_edge26_Node000024_Node000025"><a xlink:title=" ">
<path fill="none" stroke="#63b8ff" d="M602.5,-164.75C602.5,-157.8 602.5,-147.85 602.5,-139.13"/>
<polygon fill="#63b8ff" stroke="#63b8ff" points="606,-139.09 602.5,-129.09 599,-139.09 606,-139.09"/>
</a>
</g>
</g>
<!-- Node26 -->
<g id="Node000026" class="node">
<title>Node26</title>
<g id="a_Node000026"><a xlink:title=" ">
<polygon fill="#e0e0e0" stroke="#999999" points="689.5,-129 641.5,-129 641.5,-110 689.5,-110 689.5,-129"/>
<text text-anchor="middle" x="665.5" y="-117" font-family="Helvetica,sans-Serif" font-size="10.00">iosfwd</text>
</a>
</g>
</g>
<!-- Node24&#45;&gt;Node26 -->
<g id="edge27_Node000024_Node000026" class="edge">
<title>Node24&#45;&gt;Node26</title>
<g id="a_edge27_Node000024_Node000026"><a xlink:title=" ">
<path fill="none" stroke="#63b8ff" d="M612.62,-164.98C621.94,-157.15 635.97,-145.34 647.24,-135.86"/>
<polygon fill="#63b8ff" stroke="#63b8ff" points="649.79,-138.29 655.19,-129.17 645.29,-132.93 649.79,-138.29"/>
</a>
</g>
</g>
<!-- Node27&#45;&gt;Node23 -->
<g id="edge32_Node000027_Node000023" class="edge">
<title>Node27&#45;&gt;Node23</title>
<g id="a_edge32_Node000027_Node000023"><a xlink:title=" ">
<path fill="none" stroke="#63b8ff" d="M947.52,-164.98C934.03,-156.77 913.37,-144.18 897.46,-134.49"/>
<polygon fill="#63b8ff" stroke="#63b8ff" points="899.09,-131.38 888.73,-129.17 895.45,-137.36 899.09,-131.38"/>
</a>
</g>
</g>
<!-- Node28 -->
<g id="Node000028" class="node">
<title>Node28</title>
<g id="a_Node000028"><a xlink:title=" ">
<polygon fill="#e0e0e0" stroke="#999999" points="995.5,-129 937.5,-129 937.5,-110 995.5,-110 995.5,-129"/>
<text text-anchor="middle" x="966.5" y="-117" font-family="Helvetica,sans-Serif" font-size="10.00">memory</text>
</a>
</g>
</g>
<!-- Node27&#45;&gt;Node28 -->
<g id="edge30_Node000027_Node000028" class="edge">
<title>Node27&#45;&gt;Node28</title>
<g id="a_edge30_Node000027_Node000028"><a xlink:title=" ">
<path fill="none" stroke="#63b8ff" d="M962.33,-164.75C962.98,-157.8 963.92,-147.85 964.74,-139.13"/>
<polygon fill="#63b8ff" stroke="#63b8ff" points="968.23,-139.37 965.69,-129.09 961.27,-138.72 968.23,-139.37"/>
</a>
</g>
</g>
<!-- Node29 -->
<g id="Node000029" class="node">
<title>Node29</title>
<g id="a_Node000029"><a xlink:title=" ">
<polygon fill="#e0e0e0" stroke="#999999" points="1147,-129 1014,-129 1014,-110 1147,-110 1147,-129"/>
<text text-anchor="middle" x="1080.5" y="-117" font-family="Helvetica,sans-Serif" font-size="10.00">opencv2/core/types.hpp</text>
</a>
</g>
</g>
<!-- Node27&#45;&gt;Node29 -->
<g id="edge31_Node000027_Node000029" class="edge">
<title>Node27&#45;&gt;Node29</title>
<g id="a_edge31_Node000027_Node000029"><a xlink:title=" ">
<path fill="none" stroke="#63b8ff" d="M980.62,-164.98C999.85,-156.42 1029.73,-143.11 1051.81,-133.28"/>
<polygon fill="#63b8ff" stroke="#63b8ff" points="1053.32,-136.44 1061.03,-129.17 1050.47,-130.04 1053.32,-136.44"/>
</a>
</g>
</g>
<!-- Node30&#45;&gt;Node5 -->
<g id="edge34_Node000030_Node000005" class="edge">
<title>Node30&#45;&gt;Node5</title>
<g id="a_edge34_Node000030_Node000005"><a xlink:title=" ">
<path fill="none" stroke="#63b8ff" d="M514.58,-384.98C494.45,-376.38 463.12,-362.99 440.09,-353.15"/>
<polygon fill="#63b8ff" stroke="#63b8ff" points="441.36,-349.88 430.79,-349.17 438.6,-356.32 441.36,-349.88"/>
</a>
</g>
</g>
<!-- Node31 -->
<g id="Node000031" class="node">
<title>Node31</title>
<g id="a_Node000031"><a xlink:href="../../d2/d4c/pretreat_8hpp.html" target="_top" xlink:title="图像预处理模块">
<polygon fill="white" stroke="#666666" points="641.5,-349 515.5,-349 515.5,-330 641.5,-330 641.5,-349"/>
<text text-anchor="middle" x="578.5" y="-337" font-family="Helvetica,sans-Serif" font-size="10.00">rmvl/core/pretreat.hpp</text>
</a>
</g>
</g>
<!-- Node30&#45;&gt;Node31 -->
<g id="edge35_Node000030_Node000031" class="edge">
<title>Node30&#45;&gt;Node31</title>
<g id="a_edge35_Node000030_Node000031"><a xlink:title=" ">
<path fill="none" stroke="#63b8ff" d="M541.77,-384.75C548.04,-377.18 557.29,-366.05 564.93,-356.84"/>
<polygon fill="#63b8ff" stroke="#63b8ff" points="567.67,-359.02 571.37,-349.09 562.29,-354.55 567.67,-359.02"/>
</a>
</g>
</g>
<!-- Node32 -->
<g id="Node000032" class="node">
<title>Node32</title>
<g id="a_Node000032"><a xlink:title=" ">
<polygon fill="#e0e0e0" stroke="#999999" points="718,-294 593,-294 593,-275 718,-275 718,-294"/>
<text text-anchor="middle" x="655.5" y="-282" font-family="Helvetica,sans-Serif" font-size="10.00">opencv2/core/mat.hpp</text>
</a>
</g>
</g>
<!-- Node31&#45;&gt;Node32 -->
<g id="edge36_Node000031_Node000032" class="edge">
<title>Node31&#45;&gt;Node32</title>
<g id="a_edge36_Node000031_Node000032"><a xlink:title=" ">
<path fill="none" stroke="#63b8ff" d="M590.87,-329.98C602.59,-321.92 620.42,-309.65 634.39,-300.03"/>
<polygon fill="#63b8ff" stroke="#63b8ff" points="636.65,-302.72 642.9,-294.17 632.68,-296.96 636.65,-302.72"/>
</a>
</g>
</g>
<!-- Node33&#45;&gt;Node4 -->
<g id="edge38_Node000033_Node000004" class="edge">
<title>Node33&#45;&gt;Node4</title>
<g id="a_edge38_Node000033_Node000004"><a xlink:title=" ">
<path fill="none" stroke="#63b8ff" d="M353.6,-384.91C316.2,-370.68 251.5,-338.42 251.5,-285.5 251.5,-285.5 251.5,-285.5 251.5,-228.5 251.5,-191.23 144.12,-151.34 84.79,-132.14"/>
<polygon fill="#63b8ff" stroke="#63b8ff" points="85.6,-128.72 75,-129.02 83.47,-135.39 85.6,-128.72"/>
</a>
</g>
</g>
<!-- Node33&#45;&gt;Node5 -->
<g id="edge39_Node000033_Node000005" class="edge">
<title>Node33&#45;&gt;Node5</title>
<g id="a_edge39_Node000033_Node000005"><a xlink:title=" ">
<path fill="none" stroke="#63b8ff" d="M384.62,-384.75C388.86,-377.49 395.03,-366.95 400.28,-357.98"/>
<polygon fill="#63b8ff" stroke="#63b8ff" points="403.45,-359.49 405.48,-349.09 397.41,-355.95 403.45,-359.49"/>
</a>
</g>
</g>
</g>
</svg>

<g id="navigator" transform="translate(0 0)" fill="#404254">
  <rect fill="#f2f5e9" fill-opacity="0.5" stroke="#606060" stroke-width=".5" x="0" y="0" width="60" height="60"/>
  <use id="zoomplus" xlink:href="#zoomPlus" x="17" y="9" onmousedown="handleZoom(evt,'in')"/>
  <use id="zoomminus" xlink:href="#zoomMin" x="42" y="9" onmousedown="handleZoom(evt,'out')"/>
  <use id="reset" xlink:href="#resetDef" x="30" y="36" onmousedown="handleReset()"/>
   <use id="arrowup" xlink:href="#arrowUp" x="0" y="0" onmousedown="handlePan(0,-1)"/>
  <use id="arrowright" xlink:href="#arrowRight" x="0" y="0" onmousedown="handlePan(1,0)"/>
  <use id="arrowdown" xlink:href="#arrowDown" x="0" y="0" onmousedown="handlePan(0,1)"/>
  <use id="arrowleft" xlink:href="#arrowLeft" x="0" y="0" onmousedown="handlePan(-1,0)"/>
</g>
<svg viewBox="0 0 15 15" width="100%" height="30px" preserveAspectRatio="xMaxYMin meet">
 <g id="arrow_out" transform="scale(0.3 0.3)">
  <a xlink:href="decider_2rune__decider_8h__incl_org.svg" target="_base">
   <rect id="button" ry="5" rx="5" y="6" x="6" height="38" width="38"
        fill="#f2f5e9" fill-opacity="0.5" stroke="#606060" stroke-width="1.0"/>
   <path id="arrow"
     d="M 11.500037,31.436501 C 11.940474,20.09759 22.043105,11.32322 32.158766,21.979434 L 37.068811,17.246167 C 37.068811,17.246167 37.088388,32 37.088388,32 L 22.160133,31.978069 C 22.160133,31.978069 26.997745,27.140456 26.997745,27.140456 C 18.528582,18.264221 13.291696,25.230495 11.500037,31.436501 z"
     style="fill:#404040;"/>
  </a>
 </g>
</svg>

<style type='text/css'>
<![CDATA[
[data-mouse-over-selected='false'] { opacity: 0.7; }
[data-mouse-over-selected='true']  { opacity: 1.0; }
]]>
</style>
<script type="application/ecmascript"><![CDATA[
document.addEventListener('DOMContentLoaded', (event) => {
  highlightEdges();
  highlightAdjacentNodes();
});
]]></script>
</svg>
