<?xml version="1.0" encoding="UTF-8" standalone="no"?>
<!DOCTYPE svg PUBLIC "-//W3C//DTD SVG 1.1//EN"
 "http://www.w3.org/Graphics/SVG/1.1/DTD/svg11.dtd">
<!-- Generated by graphviz version 2.43.0 (0)
 -->
<!-- Title: rmvl/combo/combo.h Pages: 1 -->
<!--zoomable 335 -->

<svg id="main" version="1.1" xmlns="http://www.w3.org/2000/svg" xmlns:xlink="http://www.w3.org/1999/xlink" xml:space="preserve" onload="init(evt)">

<style type="text/css"><![CDATA[
.node, .edge {opacity: 0.7;}
.node.selected, .edge.selected {opacity: 1;}
.edge:hover path { stroke: red; }
.edge:hover polygon { stroke: red; fill: red; }
]]></style>

<defs>
  <circle id="rim" cx="0" cy="0" r="7"/>
  <circle id="rim2" cx="0" cy="0" r="3.5"/>
  <g id="zoomPlus">
    <use xlink:href="#rim" fill="#404040"><set attributeName="fill" to="#808080" begin="zoomplus.mouseover" end="zoomplus.mouseout"/></use>
    <path d="M-4,0h8M0,-4v8" fill="none" stroke="white" stroke-width="1.5" pointer-events="none"/>
  </g>
  <g id="zoomMin">
    <use xlink:href="#rim" fill="#404040"><set attributeName="fill" to="#808080" begin="zoomminus.mouseover" end="zoomminus.mouseout"/></use>
    <path d="M-4,0h8" fill="none" stroke="white" stroke-width="1.5" pointer-events="none"/>
  </g>
  <g id="arrowUp" transform="translate(30 24)">
    <use xlink:href="#rim"/>
    <path pointer-events="none" fill="none" stroke="white" stroke-width="1.5" d="M0,-3.0v7 M-2.5,-0.5L0,-3.0L2.5,-0.5"/>
  </g>
  <g id="arrowRight" transform="rotate(90) translate(36 -43)">
    <use xlink:href="#rim"/>
    <path pointer-events="none" fill="none" stroke="white" stroke-width="1.5" d="M0,-3.0v7 M-2.5,-0.5L0,-3.0L2.5,-0.5"/>
  </g>
  <g id="arrowDown" transform="rotate(180) translate(-30 -48)">
    <use xlink:href="#rim"/>
    <path pointer-events="none" fill="none" stroke="white" stroke-width="1.5" d="M0,-3.0v7 M-2.5,-0.5L0,-3.0L2.5,-0.5"/>
  </g>
  <g id="arrowLeft" transform="rotate(270) translate(-36 17)">
    <use xlink:href="#rim"/>
    <path pointer-events="none" fill="none" stroke="white" stroke-width="1.5" d="M0,-3.0v7 M-2.5,-0.5L0,-3.0L2.5,-0.5"/>
  </g>
  <g id="resetDef">
    <use xlink:href="#rim2" fill="#404040"><set attributeName="fill" to="#808080" begin="reset.mouseover" end="reset.mouseout"/></use>
  </g>
</defs>
<script type="application/ecmascript">
var viewWidth = 2027;
var viewHeight = 335;
var sectionId = 'dynsection-1';
</script>
<script type="application/ecmascript" xlink:href="../../svg.min.js"/>
<svg id="graph" class="graph">
<g id="viewport">
<title>rmvl/combo/combo.h</title>
<!-- Node1 -->
<g id="Node000001" class="node">
<title>Node1</title>
<g id="a_Node000001"><a xlink:title="the combination of the features header file">
<polygon fill="#999999" stroke="#666666" points="311.86,-327 191.86,-327 191.86,-308 311.86,-308 311.86,-327"/>
<text text-anchor="middle" x="251.86" y="-315" font-family="Helvetica,sans-Serif" font-size="10.00">rmvl/combo/combo.h</text>
</a>
</g>
</g>
<!-- Node2 -->
<g id="Node000002" class="node">
<title>Node2</title>
<g id="a_Node000002"><a xlink:href="../../d1/dad/rmvl_2combo_8hpp.html" target="_top" xlink:title=" ">
<polygon fill="white" stroke="#666666" points="110.86,-272 14.86,-272 14.86,-253 110.86,-253 110.86,-272"/>
<text text-anchor="middle" x="62.86" y="-260" font-family="Helvetica,sans-Serif" font-size="10.00">rmvl/combo.hpp</text>
</a>
</g>
</g>
<!-- Node1&#45;&gt;Node2 -->
<g id="edge1_Node000001_Node000002" class="edge">
<title>Node1&#45;&gt;Node2</title>
<g id="a_edge1_Node000001_Node000002"><a xlink:title=" ">
<path fill="none" stroke="#63b8ff" d="M211.51,-305.18C176.16,-295.27 125.56,-281.08 93.47,-272.08"/>
<polygon fill="#63b8ff" stroke="#63b8ff" points="210.92,-308.65 221.5,-307.98 212.81,-301.91 210.92,-308.65"/>
</a>
</g>
</g>
<!-- Node3 -->
<g id="Node000003" class="node">
<title>Node3</title>
<g id="a_Node000003"><a xlink:href="../../dd/d92/combo_2armor_8h.html" target="_top" xlink:title="装甲板类头文件">
<polygon fill="white" stroke="#666666" points="244.86,-272 128.86,-272 128.86,-253 244.86,-253 244.86,-272"/>
<text text-anchor="middle" x="186.86" y="-260" font-family="Helvetica,sans-Serif" font-size="10.00">rmvl/combo/armor.h</text>
</a>
</g>
</g>
<!-- Node1&#45;&gt;Node3 -->
<g id="edge2_Node000001_Node000003" class="edge">
<title>Node1&#45;&gt;Node3</title>
<g id="a_edge2_Node000001_Node000003"><a xlink:title=" ">
<path fill="none" stroke="#63b8ff" d="M233.59,-301.6C221.94,-292.11 207.26,-280.13 197.5,-272.17"/>
<polygon fill="#63b8ff" stroke="#63b8ff" points="231.46,-304.38 241.42,-307.98 235.88,-298.95 231.46,-304.38"/>
</a>
</g>
</g>
<!-- Node9 -->
<g id="Node000009" class="node">
<title>Node9</title>
<g id="a_Node000009"><a xlink:href="../../de/de6/combo_2rune_8h.html" target="_top" xlink:title="神符类头文件">
<polygon fill="white" stroke="#666666" points="372.36,-272 263.36,-272 263.36,-253 372.36,-253 372.36,-272"/>
<text text-anchor="middle" x="317.86" y="-260" font-family="Helvetica,sans-Serif" font-size="10.00">rmvl/combo/rune.h</text>
</a>
</g>
</g>
<!-- Node1&#45;&gt;Node9 -->
<g id="edge8_Node000001_Node000009" class="edge">
<title>Node1&#45;&gt;Node9</title>
<g id="a_edge8_Node000001_Node000009"><a xlink:title=" ">
<path fill="none" stroke="#63b8ff" d="M270.42,-301.6C282.24,-292.11 297.15,-280.13 307.06,-272.17"/>
<polygon fill="#63b8ff" stroke="#63b8ff" points="268.07,-298.99 262.47,-307.98 272.45,-304.45 268.07,-298.99"/>
</a>
</g>
</g>
<!-- Node12 -->
<g id="Node000012" class="node">
<title>Node12</title>
<g id="a_Node000012"><a xlink:href="../../dc/ded/tracker_8h.html" target="_top" xlink:title="追踪器抽象头文件">
<polygon fill="white" stroke="#666666" points="511.36,-272 390.36,-272 390.36,-253 511.36,-253 511.36,-272"/>
<text text-anchor="middle" x="450.86" y="-260" font-family="Helvetica,sans-Serif" font-size="10.00">rmvl/tracker/tracker.h</text>
</a>
</g>
</g>
<!-- Node1&#45;&gt;Node12 -->
<g id="edge11_Node000001_Node000012" class="edge">
<title>Node1&#45;&gt;Node12</title>
<g id="a_edge11_Node000001_Node000012"><a xlink:title=" ">
<path fill="none" stroke="#63b8ff" d="M293.87,-305.31C331.11,-295.39 384.7,-281.12 418.64,-272.08"/>
<polygon fill="#63b8ff" stroke="#63b8ff" points="292.6,-302.03 283.83,-307.98 294.4,-308.79 292.6,-302.03"/>
</a>
</g>
</g>
<!-- Node4 -->
<g id="Node000004" class="node">
<title>Node4</title>
<g id="a_Node000004"><a xlink:href="../../d6/dd8/decider_2gyro__decider_8h.html" target="_top" xlink:title="装甲板模块决策器头文件">
<polygon fill="white" stroke="#666666" points="554.86,-24.5 402.86,-24.5 402.86,-5.5 554.86,-5.5 554.86,-24.5"/>
<text text-anchor="middle" x="478.86" y="-12.5" font-family="Helvetica,sans-Serif" font-size="10.00">rmvl/decider/gyro_decider.h</text>
</a>
</g>
</g>
<!-- Node3&#45;&gt;Node4 -->
<g id="edge3_Node000003_Node000004" class="edge">
<title>Node3&#45;&gt;Node4</title>
<g id="a_edge3_Node000003_Node000004"><a xlink:title=" ">
<path fill="none" stroke="#63b8ff" d="M118.92,-251.53C79.33,-244.18 34.88,-232.72 22.86,-217 -7.14,-177.77 -17.73,-130.16 57.86,-66 108.3,-23.2 295.47,-15.85 402.49,-15.27"/>
<polygon fill="#63b8ff" stroke="#63b8ff" points="118.4,-254.99 128.86,-253.31 119.64,-248.1 118.4,-254.99"/>
</a>
</g>
</g>
<!-- Node5 -->
<g id="Node000005" class="node">
<title>Node5</title>
<g id="a_Node000005"><a xlink:href="../../d7/de6/tracker_2gyro__tracker_8h.html" target="_top" xlink:title="装甲板追踪器头文件">
<polygon fill="white" stroke="#666666" points="179.86,-211.5 31.86,-211.5 31.86,-192.5 179.86,-192.5 179.86,-211.5"/>
<text text-anchor="middle" x="105.86" y="-199.5" font-family="Helvetica,sans-Serif" font-size="10.00">rmvl/tracker/gyro_tracker.h</text>
</a>
</g>
</g>
<!-- Node3&#45;&gt;Node5 -->
<g id="edge4_Node000003_Node000005" class="edge">
<title>Node3&#45;&gt;Node5</title>
<g id="a_edge4_Node000003_Node000005"><a xlink:title=" ">
<path fill="none" stroke="#63b8ff" d="M166.58,-246.85C151.23,-235.77 130.68,-220.93 117.86,-211.67"/>
<polygon fill="#63b8ff" stroke="#63b8ff" points="164.75,-249.85 174.91,-252.87 168.85,-244.18 164.75,-249.85"/>
</a>
</g>
</g>
<!-- Node7 -->
<g id="Node000007" class="node">
<title>Node7</title>
<g id="a_Node000007"><a xlink:href="../../d5/dea/tracker_2planar__tracker_8h.html" target="_top" xlink:title="平面目标追踪器头文件">
<polygon fill="white" stroke="#666666" points="307.86,-217 197.86,-217 197.86,-187 307.86,-187 307.86,-217"/>
<text text-anchor="start" x="205.86" y="-205" font-family="Helvetica,sans-Serif" font-size="10.00">rmvl/tracker/planar</text>
<text text-anchor="middle" x="252.86" y="-194" font-family="Helvetica,sans-Serif" font-size="10.00">_tracker.h</text>
</a>
</g>
</g>
<!-- Node3&#45;&gt;Node7 -->
<g id="edge6_Node000003_Node000007" class="edge">
<title>Node3&#45;&gt;Node7</title>
<g id="a_edge6_Node000003_Node000007"><a xlink:title=" ">
<path fill="none" stroke="#63b8ff" d="M204.08,-246.23C214.24,-237.23 227.01,-225.91 236.94,-217.11"/>
<polygon fill="#63b8ff" stroke="#63b8ff" points="201.76,-243.62 196.6,-252.87 206.41,-248.85 201.76,-243.62"/>
</a>
</g>
</g>
<!-- Node6 -->
<g id="Node000006" class="node">
<title>Node6</title>
<g id="a_Node000006"><a xlink:href="../../d1/d6b/detector_2gyro__detector_8h.html" target="_top" xlink:title="装甲板识别派生类头文件">
<polygon fill="white" stroke="#666666" points="174.36,-96 67.36,-96 67.36,-66 174.36,-66 174.36,-96"/>
<text text-anchor="start" x="75.36" y="-84" font-family="Helvetica,sans-Serif" font-size="10.00">rmvl/detector/gyro</text>
<text text-anchor="middle" x="120.86" y="-73" font-family="Helvetica,sans-Serif" font-size="10.00">_detector.h</text>
</a>
</g>
</g>
<!-- Node5&#45;&gt;Node6 -->
<g id="edge5_Node000005_Node000006" class="edge">
<title>Node5&#45;&gt;Node6</title>
<g id="a_edge5_Node000005_Node000006"><a xlink:title=" ">
<path fill="none" stroke="#63b8ff" d="M108.23,-182.23C111.24,-158.35 116.37,-117.65 119.07,-96.2"/>
<polygon fill="#63b8ff" stroke="#63b8ff" points="104.72,-182.08 106.94,-192.44 111.66,-182.96 104.72,-182.08"/>
</a>
</g>
</g>
<!-- Node8 -->
<g id="Node000008" class="node">
<title>Node8</title>
<g id="a_Node000008"><a xlink:href="../../da/d95/detector_2armor__detector_8h.html" target="_top" xlink:title="装甲板识别派生类头文件">
<polygon fill="white" stroke="#666666" points="316.36,-96 201.36,-96 201.36,-66 316.36,-66 316.36,-96"/>
<text text-anchor="start" x="209.36" y="-84" font-family="Helvetica,sans-Serif" font-size="10.00">rmvl/detector/armor</text>
<text text-anchor="middle" x="258.86" y="-73" font-family="Helvetica,sans-Serif" font-size="10.00">_detector.h</text>
</a>
</g>
</g>
<!-- Node7&#45;&gt;Node8 -->
<g id="edge7_Node000007_Node000008" class="edge">
<title>Node7&#45;&gt;Node8</title>
<g id="a_edge7_Node000007_Node000008"><a xlink:title=" ">
<path fill="none" stroke="#63b8ff" d="M254.09,-176.69C255.31,-152.42 257.15,-115.95 258.15,-96.1"/>
<polygon fill="#63b8ff" stroke="#63b8ff" points="250.58,-176.72 253.57,-186.88 257.57,-177.07 250.58,-176.72"/>
</a>
</g>
</g>
<!-- Node10 -->
<g id="Node000010" class="node">
<title>Node10</title>
<g id="a_Node000010"><a xlink:href="../../dd/d0a/tracker_2rune__tracker_8h.html" target="_top" xlink:title="神符追踪器头文件">
<polygon fill="white" stroke="#666666" points="473.86,-211.5 325.86,-211.5 325.86,-192.5 473.86,-192.5 473.86,-211.5"/>
<text text-anchor="middle" x="399.86" y="-199.5" font-family="Helvetica,sans-Serif" font-size="10.00">rmvl/tracker/rune_tracker.h</text>
</a>
</g>
</g>
<!-- Node9&#45;&gt;Node10 -->
<g id="edge9_Node000009_Node000010" class="edge">
<title>Node9&#45;&gt;Node10</title>
<g id="a_edge9_Node000009_Node000010"><a xlink:title=" ">
<path fill="none" stroke="#63b8ff" d="M338.4,-246.85C353.93,-235.77 374.73,-220.93 387.71,-211.67"/>
<polygon fill="#63b8ff" stroke="#63b8ff" points="336.07,-244.21 329.96,-252.87 340.13,-249.91 336.07,-244.21"/>
</a>
</g>
</g>
<!-- Node11 -->
<g id="Node000011" class="node">
<title>Node11</title>
<g id="a_Node000011"><a xlink:href="../../db/dcc/detector_2rune__detector_8h.html" target="_top" xlink:title="神符识别派生类头文件">
<polygon fill="white" stroke="#666666" points="450.36,-96 343.36,-96 343.36,-66 450.36,-66 450.36,-96"/>
<text text-anchor="start" x="351.36" y="-84" font-family="Helvetica,sans-Serif" font-size="10.00">rmvl/detector/rune</text>
<text text-anchor="middle" x="396.86" y="-73" font-family="Helvetica,sans-Serif" font-size="10.00">_detector.h</text>
</a>
</g>
</g>
<!-- Node10&#45;&gt;Node11 -->
<g id="edge10_Node000010_Node000011" class="edge">
<title>Node10&#45;&gt;Node11</title>
<g id="a_edge10_Node000010_Node000011"><a xlink:title=" ">
<path fill="none" stroke="#63b8ff" d="M399.39,-182.23C398.79,-158.35 397.76,-117.65 397.22,-96.2"/>
<polygon fill="#63b8ff" stroke="#63b8ff" points="395.89,-182.53 399.65,-192.44 402.89,-182.36 395.89,-182.53"/>
</a>
</g>
</g>
<!-- Node12&#45;&gt;Node4 -->
<g id="edge12_Node000012_Node000004" class="edge">
<title>Node12&#45;&gt;Node4</title>
<g id="a_edge12_Node000012_Node000004"><a xlink:title=" ">
<path fill="none" stroke="#63b8ff" d="M466.31,-245.26C472.76,-237.38 479.52,-227.38 482.86,-217 505.77,-145.91 487.58,-53.22 481,-24.71"/>
<polygon fill="#63b8ff" stroke="#63b8ff" points="463.57,-243.08 459.61,-252.9 468.84,-247.69 463.57,-243.08"/>
</a>
</g>
</g>
<!-- Node12&#45;&gt;Node5 -->
<g id="edge41_Node000012_Node000005" class="edge">
<title>Node12&#45;&gt;Node5</title>
<g id="a_edge41_Node000012_Node000005"><a xlink:title=" ">
<path fill="none" stroke="#63b8ff" d="M390.78,-251.31C324.29,-240.04 218.33,-222.07 156.09,-211.52"/>
<polygon fill="#63b8ff" stroke="#63b8ff" points="390.25,-254.77 400.7,-252.99 391.42,-247.87 390.25,-254.77"/>
</a>
</g>
</g>
<!-- Node12&#45;&gt;Node7 -->
<g id="edge42_Node000012_Node000007" class="edge">
<title>Node12&#45;&gt;Node7</title>
<g id="a_edge42_Node000012_Node000007"><a xlink:title=" ">
<path fill="none" stroke="#63b8ff" d="M412.2,-250.08C380.22,-240.63 334.68,-227.17 300.46,-217.06"/>
<polygon fill="#63b8ff" stroke="#63b8ff" points="411.49,-253.52 422.07,-252.99 413.47,-246.8 411.49,-253.52"/>
</a>
</g>
</g>
<!-- Node12&#45;&gt;Node10 -->
<g id="edge43_Node000012_Node000010" class="edge">
<title>Node12&#45;&gt;Node10</title>
<g id="a_edge43_Node000012_Node000010"><a xlink:title=" ">
<path fill="none" stroke="#63b8ff" d="M436.71,-245.27C427.23,-234.39 415.11,-220.49 407.42,-211.67"/>
<polygon fill="#63b8ff" stroke="#63b8ff" points="434.13,-247.63 443.34,-252.87 439.4,-243.03 434.13,-247.63"/>
</a>
</g>
</g>
<!-- Node13 -->
<g id="Node000013" class="node">
<title>Node13</title>
<g id="a_Node000013"><a xlink:href="../../d9/dd1/group_8h.html" target="_top" xlink:title="序列组抽象头文件">
<polygon fill="white" stroke="#666666" points="1056.86,-211.5 946.86,-211.5 946.86,-192.5 1056.86,-192.5 1056.86,-211.5"/>
<text text-anchor="middle" x="1001.86" y="-199.5" font-family="Helvetica,sans-Serif" font-size="10.00">rmvl/group/group.h</text>
</a>
</g>
</g>
<!-- Node12&#45;&gt;Node13 -->
<g id="edge13_Node000012_Node000013" class="edge">
<title>Node12&#45;&gt;Node13</title>
<g id="a_edge13_Node000012_Node000013"><a xlink:title=" ">
<path fill="none" stroke="#63b8ff" d="M521.5,-254C632.6,-242.2 845.84,-219.56 946.57,-208.87"/>
<polygon fill="#63b8ff" stroke="#63b8ff" points="520.98,-250.54 511.4,-255.07 521.72,-257.5 520.98,-250.54"/>
</a>
</g>
</g>
<!-- Node34 -->
<g id="Node000034" class="node">
<title>Node34</title>
<g id="a_Node000034"><a xlink:href="../../dc/d2d/rmvl_2tracker_8hpp.html" target="_top" xlink:title=" ">
<polygon fill="white" stroke="#666666" points="1170.86,-211.5 1074.86,-211.5 1074.86,-192.5 1170.86,-192.5 1170.86,-211.5"/>
<text text-anchor="middle" x="1122.86" y="-199.5" font-family="Helvetica,sans-Serif" font-size="10.00">rmvl/tracker.hpp</text>
</a>
</g>
</g>
<!-- Node12&#45;&gt;Node34 -->
<g id="edge40_Node000012_Node000034" class="edge">
<title>Node12&#45;&gt;Node34</title>
<g id="a_edge40_Node000012_Node000034"><a xlink:title=" ">
<path fill="none" stroke="#63b8ff" d="M521.55,-260.25C636.39,-257.36 870.33,-247.86 1065.86,-217 1074.52,-215.63 1083.79,-213.61 1092.29,-211.51"/>
<polygon fill="#63b8ff" stroke="#63b8ff" points="521.39,-256.75 511.48,-260.5 521.56,-263.75 521.39,-256.75"/>
</a>
</g>
</g>
<!-- Node14 -->
<g id="Node000014" class="node">
<title>Node14</title>
<g id="a_Node000014"><a xlink:href="../../d9/df2/compensator_8h.html" target="_top" xlink:title="抽象补偿类头文件">
<polygon fill="white" stroke="#666666" points="1015.36,-151 834.36,-151 834.36,-132 1015.36,-132 1015.36,-151"/>
<text text-anchor="middle" x="924.86" y="-139" font-family="Helvetica,sans-Serif" font-size="10.00">rmvl/compensator/compensator.h</text>
</a>
</g>
</g>
<!-- Node13&#45;&gt;Node14 -->
<g id="edge14_Node000013_Node000014" class="edge">
<title>Node13&#45;&gt;Node14</title>
<g id="a_edge14_Node000013_Node000014"><a xlink:title=" ">
<path fill="none" stroke="#63b8ff" d="M982.17,-186.04C967.63,-174.99 948.34,-160.34 936.27,-151.17"/>
<polygon fill="#63b8ff" stroke="#63b8ff" points="980.42,-189.11 990.5,-192.37 984.65,-183.53 980.42,-189.11"/>
</a>
</g>
</g>
<!-- Node22 -->
<g id="Node000022" class="node">
<title>Node22</title>
<g id="a_Node000022"><a xlink:href="../../d5/d9f/detector_8h.html" target="_top" xlink:title="抽象识别类头文件">
<polygon fill="white" stroke="#666666" points="640.86,-151 506.86,-151 506.86,-132 640.86,-132 640.86,-151"/>
<text text-anchor="middle" x="573.86" y="-139" font-family="Helvetica,sans-Serif" font-size="10.00">rmvl/detector/detector.h</text>
</a>
</g>
</g>
<!-- Node13&#45;&gt;Node22 -->
<g id="edge23_Node000013_Node000022" class="edge">
<title>Node13&#45;&gt;Node22</title>
<g id="a_edge23_Node000013_Node000022"><a xlink:title=" ">
<path fill="none" stroke="#63b8ff" d="M936.65,-192.09C855.13,-180.94 716.59,-162.01 636.36,-151.04"/>
<polygon fill="#63b8ff" stroke="#63b8ff" points="936.4,-195.59 946.78,-193.47 937.35,-188.65 936.4,-195.59"/>
</a>
</g>
</g>
<!-- Node25 -->
<g id="Node000025" class="node">
<title>Node25</title>
<g id="a_Node000025"><a xlink:href="../../db/d4f/rmvl_2group_8hpp.html" target="_top" xlink:title=" ">
<polygon fill="white" stroke="#666666" points="1124.36,-151 1033.36,-151 1033.36,-132 1124.36,-132 1124.36,-151"/>
<text text-anchor="middle" x="1078.86" y="-139" font-family="Helvetica,sans-Serif" font-size="10.00">rmvl/group.hpp</text>
</a>
</g>
</g>
<!-- Node13&#45;&gt;Node25 -->
<g id="edge30_Node000013_Node000025" class="edge">
<title>Node13&#45;&gt;Node25</title>
<g id="a_edge30_Node000013_Node000025"><a xlink:title=" ">
<path fill="none" stroke="#63b8ff" d="M1021.56,-186.04C1036.1,-174.99 1055.38,-160.34 1067.45,-151.17"/>
<polygon fill="#63b8ff" stroke="#63b8ff" points="1019.07,-183.53 1013.22,-192.37 1023.3,-189.11 1019.07,-183.53"/>
</a>
</g>
</g>
<!-- Node26 -->
<g id="Node000026" class="node">
<title>Node26</title>
<g id="a_Node000026"><a xlink:href="../../d3/df0/group_2gyro__group_8h.html" target="_top" xlink:title="装甲序列组头文件">
<polygon fill="white" stroke="#666666" points="1279.36,-151 1142.36,-151 1142.36,-132 1279.36,-132 1279.36,-151"/>
<text text-anchor="middle" x="1210.86" y="-139" font-family="Helvetica,sans-Serif" font-size="10.00">rmvl/group/gyro_group.h</text>
</a>
</g>
</g>
<!-- Node13&#45;&gt;Node26 -->
<g id="edge31_Node000013_Node000026" class="edge">
<title>Node13&#45;&gt;Node26</title>
<g id="a_edge31_Node000013_Node000026"><a xlink:title=" ">
<path fill="none" stroke="#63b8ff" d="M1042.05,-189.75C1082.47,-178.44 1143.89,-161.25 1180.43,-151.02"/>
<polygon fill="#63b8ff" stroke="#63b8ff" points="1040.94,-186.43 1032.25,-192.49 1042.83,-193.17 1040.94,-186.43"/>
</a>
</g>
</g>
<!-- Node27 -->
<g id="Node000027" class="node">
<title>Node27</title>
<g id="a_Node000027"><a xlink:href="../../d8/df3/group_2rune__group_8h.html" target="_top" xlink:title="神符序列组头文件">
<polygon fill="white" stroke="#666666" points="1434.36,-151 1297.36,-151 1297.36,-132 1434.36,-132 1434.36,-151"/>
<text text-anchor="middle" x="1365.86" y="-139" font-family="Helvetica,sans-Serif" font-size="10.00">rmvl/group/rune_group.h</text>
</a>
</g>
</g>
<!-- Node13&#45;&gt;Node27 -->
<g id="edge32_Node000013_Node000027" class="edge">
<title>Node13&#45;&gt;Node27</title>
<g id="a_edge32_Node000013_Node000027"><a xlink:title=" ">
<path fill="none" stroke="#63b8ff" d="M1049.06,-190.3C1054.71,-189.13 1060.41,-188 1065.86,-187 1145.88,-172.33 1238.58,-159.16 1299.51,-151.02"/>
<polygon fill="#63b8ff" stroke="#63b8ff" points="1048.06,-186.93 1039,-192.43 1049.51,-193.78 1048.06,-186.93"/>
</a>
</g>
</g>
<!-- Node28 -->
<g id="Node000028" class="node">
<title>Node28</title>
<g id="a_Node000028"><a xlink:href="../../dc/d08/predictor_8h.html" target="_top" xlink:title="抽象预测类头文件">
<polygon fill="white" stroke="#666666" points="1652.86,-151 1512.86,-151 1512.86,-132 1652.86,-132 1652.86,-151"/>
<text text-anchor="middle" x="1582.86" y="-139" font-family="Helvetica,sans-Serif" font-size="10.00">rmvl/predictor/predictor.h</text>
</a>
</g>
</g>
<!-- Node13&#45;&gt;Node28 -->
<g id="edge33_Node000013_Node000028" class="edge">
<title>Node13&#45;&gt;Node28</title>
<g id="a_edge33_Node000013_Node000028"><a xlink:title=" ">
<path fill="none" stroke="#63b8ff" d="M1046.79,-190.41C1053.17,-189.13 1059.66,-187.94 1065.86,-187 1150.03,-174.23 1391.72,-156.06 1512.46,-147.42"/>
<polygon fill="#63b8ff" stroke="#63b8ff" points="1045.99,-187 1036.92,-192.47 1047.43,-193.85 1045.99,-187"/>
</a>
</g>
</g>
<!-- Node15 -->
<g id="Node000015" class="node">
<title>Node15</title>
<g id="a_Node000015"><a xlink:href="../../d6/ddf/rmvl_2compensator_8hpp.html" target="_top" xlink:title=" ">
<polygon fill="white" stroke="#666666" points="927.86,-90.5 801.86,-90.5 801.86,-71.5 927.86,-71.5 927.86,-90.5"/>
<text text-anchor="middle" x="864.86" y="-78.5" font-family="Helvetica,sans-Serif" font-size="10.00">rmvl/compensator.hpp</text>
</a>
</g>
</g>
<!-- Node14&#45;&gt;Node15 -->
<g id="edge15_Node000014_Node000015" class="edge">
<title>Node14&#45;&gt;Node15</title>
<g id="a_edge15_Node000014_Node000015"><a xlink:title=" ">
<path fill="none" stroke="#63b8ff" d="M908.54,-124.59C897.34,-113.67 882.89,-99.58 873.75,-90.67"/>
<polygon fill="#63b8ff" stroke="#63b8ff" points="906.41,-127.39 916.01,-131.87 911.29,-122.38 906.41,-127.39"/>
</a>
</g>
</g>
<!-- Node16 -->
<g id="Node000016" class="node">
<title>Node16</title>
<g id="a_Node000016"><a xlink:href="../../d1/d91/compensator_2gravity__compensator_8h.html" target="_top" xlink:title="重力模型补偿头文件">
<polygon fill="white" stroke="#666666" points="1089.36,-96 946.36,-96 946.36,-66 1089.36,-66 1089.36,-96"/>
<text text-anchor="start" x="954.36" y="-84" font-family="Helvetica,sans-Serif" font-size="10.00">rmvl/compensator/gravity</text>
<text text-anchor="middle" x="1017.86" y="-73" font-family="Helvetica,sans-Serif" font-size="10.00">_compensator.h</text>
</a>
</g>
</g>
<!-- Node14&#45;&gt;Node16 -->
<g id="edge16_Node000014_Node000016" class="edge">
<title>Node14&#45;&gt;Node16</title>
<g id="a_edge16_Node000014_Node000016"><a xlink:title=" ">
<path fill="none" stroke="#63b8ff" d="M947.45,-126.29C962.01,-117.13 980.88,-105.26 995.42,-96.11"/>
<polygon fill="#63b8ff" stroke="#63b8ff" points="945.19,-123.58 938.58,-131.87 948.91,-129.51 945.19,-123.58"/>
</a>
</g>
</g>
<!-- Node17 -->
<g id="Node000017" class="node">
<title>Node17</title>
<g id="a_Node000017"><a xlink:href="../../d5/d90/compensator_2gyro__compensator_8h.html" target="_top" xlink:title="整车状态补偿模块接口声明">
<polygon fill="white" stroke="#666666" points="1238.36,-96 1107.36,-96 1107.36,-66 1238.36,-66 1238.36,-96"/>
<text text-anchor="start" x="1115.36" y="-84" font-family="Helvetica,sans-Serif" font-size="10.00">rmvl/compensator/gyro</text>
<text text-anchor="middle" x="1172.86" y="-73" font-family="Helvetica,sans-Serif" font-size="10.00">_compensator.h</text>
</a>
</g>
</g>
<!-- Node14&#45;&gt;Node17 -->
<g id="edge17_Node000014_Node000017" class="edge">
<title>Node14&#45;&gt;Node17</title>
<g id="a_edge17_Node000014_Node000017"><a xlink:title=" ">
<path fill="none" stroke="#63b8ff" d="M970.71,-129.68C1010.86,-120.21 1069.46,-106.39 1113.24,-96.06"/>
<polygon fill="#63b8ff" stroke="#63b8ff" points="969.85,-126.29 960.92,-131.99 971.46,-133.1 969.85,-126.29"/>
</a>
</g>
</g>
<!-- Node18 -->
<g id="Node000018" class="node">
<title>Node18</title>
<g id="a_Node000018"><a xlink:href="../../d3/d70/decider_8h.html" target="_top" xlink:title="抽象决策类头文件">
<polygon fill="white" stroke="#666666" points="1381.36,-90.5 1256.36,-90.5 1256.36,-71.5 1381.36,-71.5 1381.36,-90.5"/>
<text text-anchor="middle" x="1318.86" y="-78.5" font-family="Helvetica,sans-Serif" font-size="10.00">rmvl/decider/decider.h</text>
</a>
</g>
</g>
<!-- Node14&#45;&gt;Node18 -->
<g id="edge18_Node000014_Node000018" class="edge">
<title>Node14&#45;&gt;Node18</title>
<g id="a_edge18_Node000014_Node000018"><a xlink:title=" ">
<path fill="none" stroke="#63b8ff" d="M1004.97,-130.67C1070.23,-122.36 1164.69,-109.66 1246.86,-96 1256.66,-94.37 1267.17,-92.44 1277.05,-90.53"/>
<polygon fill="#63b8ff" stroke="#63b8ff" points="1004.23,-127.23 994.75,-131.96 1005.11,-134.18 1004.23,-127.23"/>
</a>
</g>
</g>
<!-- Node18&#45;&gt;Node4 -->
<g id="edge20_Node000018_Node000004" class="edge">
<title>Node18&#45;&gt;Node4</title>
<g id="a_edge20_Node000018_Node000004"><a xlink:title=" ">
<path fill="none" stroke="#63b8ff" d="M1269.85,-69.61C1262.18,-68.23 1254.33,-66.96 1246.86,-66 994.75,-33.42 693.2,-21.65 554.93,-17.75"/>
<polygon fill="#63b8ff" stroke="#63b8ff" points="1269.3,-73.06 1279.77,-71.46 1270.59,-66.18 1269.3,-73.06"/>
</a>
</g>
</g>
<!-- Node19 -->
<g id="Node000019" class="node">
<title>Node19</title>
<g id="a_Node000019"><a xlink:href="../../de/d18/rmvl_2decider_8hpp.html" target="_top" xlink:title=" ">
<polygon fill="white" stroke="#666666" points="1224.86,-24.5 1126.86,-24.5 1126.86,-5.5 1224.86,-5.5 1224.86,-24.5"/>
<text text-anchor="middle" x="1175.86" y="-12.5" font-family="Helvetica,sans-Serif" font-size="10.00">rmvl/decider.hpp</text>
</a>
</g>
</g>
<!-- Node18&#45;&gt;Node19 -->
<g id="edge19_Node000018_Node000019" class="edge">
<title>Node18&#45;&gt;Node19</title>
<g id="a_edge19_Node000018_Node000019"><a xlink:title=" ">
<path fill="none" stroke="#63b8ff" d="M1290.25,-67.19C1262.07,-54.58 1219.79,-35.66 1195.3,-24.7"/>
<polygon fill="#63b8ff" stroke="#63b8ff" points="1289.02,-70.48 1299.58,-71.37 1291.88,-64.09 1289.02,-70.48"/>
</a>
</g>
</g>
<!-- Node20 -->
<g id="Node000020" class="node">
<title>Node20</title>
<g id="a_Node000020"><a xlink:href="../../dd/d03/decider_2rune__decider_8h.html" target="_top" xlink:title="神符模块决策器头文件">
<polygon fill="white" stroke="#666666" points="1394.86,-24.5 1242.86,-24.5 1242.86,-5.5 1394.86,-5.5 1394.86,-24.5"/>
<text text-anchor="middle" x="1318.86" y="-12.5" font-family="Helvetica,sans-Serif" font-size="10.00">rmvl/decider/rune_decider.h</text>
</a>
</g>
</g>
<!-- Node18&#45;&gt;Node20 -->
<g id="edge21_Node000018_Node000020" class="edge">
<title>Node18&#45;&gt;Node20</title>
<g id="a_edge21_Node000018_Node000020"><a xlink:title=" ">
<path fill="none" stroke="#63b8ff" d="M1318.86,-61.08C1318.86,-49.13 1318.86,-34.22 1318.86,-24.91"/>
<polygon fill="#63b8ff" stroke="#63b8ff" points="1315.36,-61.37 1318.86,-71.37 1322.36,-61.37 1315.36,-61.37"/>
</a>
</g>
</g>
<!-- Node21 -->
<g id="Node000021" class="node">
<title>Node21</title>
<g id="a_Node000021"><a xlink:href="../../de/d06/decider_2translation__decider_8h.html" target="_top" xlink:title="平移目标决策器头文件">
<polygon fill="white" stroke="#666666" points="1546.86,-30 1412.86,-30 1412.86,0 1546.86,0 1546.86,-30"/>
<text text-anchor="start" x="1420.86" y="-18" font-family="Helvetica,sans-Serif" font-size="10.00">rmvl/decider/translation</text>
<text text-anchor="middle" x="1479.86" y="-7" font-family="Helvetica,sans-Serif" font-size="10.00">_decider.h</text>
</a>
</g>
</g>
<!-- Node18&#45;&gt;Node21 -->
<g id="edge22_Node000018_Node000021" class="edge">
<title>Node18&#45;&gt;Node21</title>
<g id="a_edge22_Node000018_Node000021"><a xlink:title=" ">
<path fill="none" stroke="#63b8ff" d="M1349.94,-67.65C1376.96,-56.9 1416.1,-41.35 1444.35,-30.12"/>
<polygon fill="#63b8ff" stroke="#63b8ff" points="1348.57,-64.42 1340.57,-71.37 1351.16,-70.93 1348.57,-64.42"/>
</a>
</g>
</g>
<!-- Node22&#45;&gt;Node6 -->
<g id="edge27_Node000022_Node000006" class="edge">
<title>Node22&#45;&gt;Node6</title>
<g id="a_edge27_Node000022_Node000006"><a xlink:title=" ">
<path fill="none" stroke="#63b8ff" d="M496.57,-133.3C419.23,-125.67 296.97,-112.46 191.86,-96 186.28,-95.13 180.46,-94.13 174.67,-93.07"/>
<polygon fill="#63b8ff" stroke="#63b8ff" points="496.42,-136.8 506.71,-134.29 497.1,-129.83 496.42,-136.8"/>
</a>
</g>
</g>
<!-- Node22&#45;&gt;Node8 -->
<g id="edge26_Node000022_Node000008" class="edge">
<title>Node22&#45;&gt;Node8</title>
<g id="a_edge26_Node000022_Node000008"><a xlink:title=" ">
<path fill="none" stroke="#63b8ff" d="M517.84,-130.13C469.2,-121.13 396.87,-107.72 333.86,-96 328.26,-94.96 322.43,-93.87 316.6,-92.78"/>
<polygon fill="#63b8ff" stroke="#63b8ff" points="517.38,-133.61 527.85,-131.99 518.65,-126.72 517.38,-133.61"/>
</a>
</g>
</g>
<!-- Node22&#45;&gt;Node11 -->
<g id="edge28_Node000022_Node000011" class="edge">
<title>Node22&#45;&gt;Node11</title>
<g id="a_edge28_Node000022_Node000011"><a xlink:title=" ">
<path fill="none" stroke="#63b8ff" d="M538.55,-128.83C510.01,-119.4 469.74,-106.09 439.41,-96.06"/>
<polygon fill="#63b8ff" stroke="#63b8ff" points="537.53,-132.18 548.12,-131.99 539.73,-125.53 537.53,-132.18"/>
</a>
</g>
</g>
<!-- Node22&#45;&gt;Node18 -->
<g id="edge24_Node000022_Node000018" class="edge">
<title>Node22&#45;&gt;Node18</title>
<g id="a_edge24_Node000022_Node000018"><a xlink:title=" ">
<path fill="none" stroke="#63b8ff" d="M651.27,-138.55C776.78,-134.68 1032.26,-123.85 1246.86,-96 1257.6,-94.61 1269.14,-92.6 1279.77,-90.53"/>
<polygon fill="#63b8ff" stroke="#63b8ff" points="650.89,-135.06 641,-138.86 651.1,-142.06 650.89,-135.06"/>
</a>
</g>
</g>
<!-- Node23 -->
<g id="Node000023" class="node">
<title>Node23</title>
<g id="a_Node000023"><a xlink:href="../../dd/d9f/rmvl_2detector_8hpp.html" target="_top" xlink:title=" ">
<polygon fill="white" stroke="#666666" points="610.36,-90.5 507.36,-90.5 507.36,-71.5 610.36,-71.5 610.36,-90.5"/>
<text text-anchor="middle" x="558.86" y="-78.5" font-family="Helvetica,sans-Serif" font-size="10.00">rmvl/detector.hpp</text>
</a>
</g>
</g>
<!-- Node22&#45;&gt;Node23 -->
<g id="edge25_Node000022_Node000023" class="edge">
<title>Node22&#45;&gt;Node23</title>
<g id="a_edge25_Node000022_Node000023"><a xlink:title=" ">
<path fill="none" stroke="#63b8ff" d="M569.12,-121.99C566.43,-111.51 563.19,-98.89 561.08,-90.67"/>
<polygon fill="#63b8ff" stroke="#63b8ff" points="565.77,-123.05 571.65,-131.87 572.55,-121.31 565.77,-123.05"/>
</a>
</g>
</g>
<!-- Node24 -->
<g id="Node000024" class="node">
<title>Node24</title>
<g id="a_Node000024"><a xlink:href="../../d6/d58/detector_2tag__detector_8h.html" target="_top" xlink:title="AprilTag 识别模块">
<polygon fill="white" stroke="#666666" points="783.36,-90.5 628.36,-90.5 628.36,-71.5 783.36,-71.5 783.36,-90.5"/>
<text text-anchor="middle" x="705.86" y="-78.5" font-family="Helvetica,sans-Serif" font-size="10.00">rmvl/detector/tag_detector.h</text>
</a>
</g>
</g>
<!-- Node22&#45;&gt;Node24 -->
<g id="edge29_Node000022_Node000024" class="edge">
<title>Node22&#45;&gt;Node24</title>
<g id="a_edge29_Node000022_Node000024"><a xlink:title=" ">
<path fill="none" stroke="#63b8ff" d="M602.22,-127.93C627.71,-116.64 664.44,-100.36 686.64,-90.52"/>
<polygon fill="#63b8ff" stroke="#63b8ff" points="600.78,-124.74 593.06,-131.99 603.62,-131.14 600.78,-124.74"/>
</a>
</g>
</g>
<!-- Node28&#45;&gt;Node18 -->
<g id="edge34_Node000028_Node000018" class="edge">
<title>Node28&#45;&gt;Node18</title>
<g id="a_edge34_Node000028_Node000018"><a xlink:title=" ">
<path fill="none" stroke="#63b8ff" d="M1534.67,-129.82C1483.68,-118.52 1404.24,-100.92 1357.3,-90.52"/>
<polygon fill="#63b8ff" stroke="#63b8ff" points="1533.95,-133.25 1544.47,-131.99 1535.47,-126.41 1533.95,-133.25"/>
</a>
</g>
</g>
<!-- Node29 -->
<g id="Node000029" class="node">
<title>Node29</title>
<g id="a_Node000029"><a xlink:href="../../df/d54/rmvl_2predictor_8hpp.html" target="_top" xlink:title=" ">
<polygon fill="white" stroke="#666666" points="1505.86,-90.5 1399.86,-90.5 1399.86,-71.5 1505.86,-71.5 1505.86,-90.5"/>
<text text-anchor="middle" x="1452.86" y="-78.5" font-family="Helvetica,sans-Serif" font-size="10.00">rmvl/predictor.hpp</text>
</a>
</g>
</g>
<!-- Node28&#45;&gt;Node29 -->
<g id="edge35_Node000028_Node000029" class="edge">
<title>Node28&#45;&gt;Node29</title>
<g id="a_edge35_Node000028_Node000029"><a xlink:title=" ">
<path fill="none" stroke="#63b8ff" d="M1554.6,-127.78C1529.51,-116.49 1493.56,-100.31 1471.79,-90.52"/>
<polygon fill="#63b8ff" stroke="#63b8ff" points="1553.4,-131.08 1563.96,-131.99 1556.28,-124.7 1553.4,-131.08"/>
</a>
</g>
</g>
<!-- Node30 -->
<g id="Node000030" class="node">
<title>Node30</title>
<g id="a_Node000030"><a xlink:href="../../df/d4c/predictor_2armor__predictor_8h.html" target="_top" xlink:title="装甲板预测派生类头文件">
<polygon fill="white" stroke="#666666" points="1641.86,-96 1523.86,-96 1523.86,-66 1641.86,-66 1641.86,-96"/>
<text text-anchor="start" x="1531.86" y="-84" font-family="Helvetica,sans-Serif" font-size="10.00">rmvl/predictor/armor</text>
<text text-anchor="middle" x="1582.86" y="-73" font-family="Helvetica,sans-Serif" font-size="10.00">_predictor.h</text>
</a>
</g>
</g>
<!-- Node28&#45;&gt;Node30 -->
<g id="edge36_Node000028_Node000030" class="edge">
<title>Node28&#45;&gt;Node30</title>
<g id="a_edge36_Node000028_Node000030"><a xlink:title=" ">
<path fill="none" stroke="#63b8ff" d="M1582.86,-121.65C1582.86,-113.36 1582.86,-103.78 1582.86,-96.11"/>
<polygon fill="#63b8ff" stroke="#63b8ff" points="1579.36,-121.87 1582.86,-131.87 1586.36,-121.87 1579.36,-121.87"/>
</a>
</g>
</g>
<!-- Node31 -->
<g id="Node000031" class="node">
<title>Node31</title>
<g id="a_Node000031"><a xlink:href="../../d9/de5/predictor_2gyro__predictor_8h.html" target="_top" xlink:title="整车状态预测派生类头文件">
<polygon fill="white" stroke="#666666" points="1769.86,-96 1659.86,-96 1659.86,-66 1769.86,-66 1769.86,-96"/>
<text text-anchor="start" x="1667.86" y="-84" font-family="Helvetica,sans-Serif" font-size="10.00">rmvl/predictor/gyro</text>
<text text-anchor="middle" x="1714.86" y="-73" font-family="Helvetica,sans-Serif" font-size="10.00">_predictor.h</text>
</a>
</g>
</g>
<!-- Node28&#45;&gt;Node31 -->
<g id="edge37_Node000028_Node000031" class="edge">
<title>Node28&#45;&gt;Node31</title>
<g id="a_edge37_Node000028_Node000031"><a xlink:title=" ">
<path fill="none" stroke="#63b8ff" d="M1611.46,-127.83C1632.57,-118.47 1661.31,-105.74 1683.13,-96.06"/>
<polygon fill="#63b8ff" stroke="#63b8ff" points="1609.78,-124.74 1602.06,-131.99 1612.62,-131.14 1609.78,-124.74"/>
</a>
</g>
</g>
<!-- Node32 -->
<g id="Node000032" class="node">
<title>Node32</title>
<g id="a_Node000032"><a xlink:href="../../d5/dec/predictor_2rune__predictor_8h.html" target="_top" xlink:title="神符预测派生类头文件">
<polygon fill="white" stroke="#666666" points="1897.86,-96 1787.86,-96 1787.86,-66 1897.86,-66 1897.86,-96"/>
<text text-anchor="start" x="1795.86" y="-84" font-family="Helvetica,sans-Serif" font-size="10.00">rmvl/predictor/rune</text>
<text text-anchor="middle" x="1842.86" y="-73" font-family="Helvetica,sans-Serif" font-size="10.00">_predictor.h</text>
</a>
</g>
</g>
<!-- Node28&#45;&gt;Node32 -->
<g id="edge38_Node000028_Node000032" class="edge">
<title>Node28&#45;&gt;Node32</title>
<g id="a_edge38_Node000028_Node000032"><a xlink:title=" ">
<path fill="none" stroke="#63b8ff" d="M1630.63,-129.75C1675.03,-119.76 1741.14,-104.89 1787.75,-94.4"/>
<polygon fill="#63b8ff" stroke="#63b8ff" points="1629.66,-126.38 1620.67,-131.99 1631.19,-133.21 1629.66,-126.38"/>
</a>
</g>
</g>
<!-- Node33 -->
<g id="Node000033" class="node">
<title>Node33</title>
<g id="a_Node000033"><a xlink:href="../../dc/d86/predictor_2spi__rune__predictor_8h.html" target="_top" xlink:title="系统参数辨识神符预测头文件">
<polygon fill="white" stroke="#666666" points="2019.36,-96 1916.36,-96 1916.36,-66 2019.36,-66 2019.36,-96"/>
<text text-anchor="start" x="1924.36" y="-84" font-family="Helvetica,sans-Serif" font-size="10.00">rmvl/predictor/spi</text>
<text text-anchor="middle" x="1967.86" y="-73" font-family="Helvetica,sans-Serif" font-size="10.00">_rune_predictor.h</text>
</a>
</g>
</g>
<!-- Node28&#45;&gt;Node33 -->
<g id="edge39_Node000028_Node000033" class="edge">
<title>Node28&#45;&gt;Node33</title>
<g id="a_edge39_Node000028_Node000033"><a xlink:title=" ">
<path fill="none" stroke="#63b8ff" d="M1663.28,-131.48C1729.03,-123.61 1824.29,-111.11 1906.86,-96 1909.96,-95.43 1913.14,-94.81 1916.34,-94.16"/>
<polygon fill="#63b8ff" stroke="#63b8ff" points="1662.5,-128.04 1652.99,-132.7 1663.33,-134.99 1662.5,-128.04"/>
</a>
</g>
</g>
</g>
</svg>

<g id="navigator" transform="translate(0 0)" fill="#404254">
  <rect fill="#f2f5e9" fill-opacity="0.5" stroke="#606060" stroke-width=".5" x="0" y="0" width="60" height="60"/>
  <use id="zoomplus" xlink:href="#zoomPlus" x="17" y="9" onmousedown="handleZoom(evt,'in')"/>
  <use id="zoomminus" xlink:href="#zoomMin" x="42" y="9" onmousedown="handleZoom(evt,'out')"/>
  <use id="reset" xlink:href="#resetDef" x="30" y="36" onmousedown="handleReset()"/>
   <use id="arrowup" xlink:href="#arrowUp" x="0" y="0" onmousedown="handlePan(0,-1)"/>
  <use id="arrowright" xlink:href="#arrowRight" x="0" y="0" onmousedown="handlePan(1,0)"/>
  <use id="arrowdown" xlink:href="#arrowDown" x="0" y="0" onmousedown="handlePan(0,1)"/>
  <use id="arrowleft" xlink:href="#arrowLeft" x="0" y="0" onmousedown="handlePan(-1,0)"/>
</g>
<svg viewBox="0 0 15 15" width="100%" height="30px" preserveAspectRatio="xMaxYMin meet">
 <g id="arrow_out" transform="scale(0.3 0.3)">
  <a xlink:href="combo_8h__dep__incl_org.svg" target="_base">
   <rect id="button" ry="5" rx="5" y="6" x="6" height="38" width="38"
        fill="#f2f5e9" fill-opacity="0.5" stroke="#606060" stroke-width="1.0"/>
   <path id="arrow"
     d="M 11.500037,31.436501 C 11.940474,20.09759 22.043105,11.32322 32.158766,21.979434 L 37.068811,17.246167 C 37.068811,17.246167 37.088388,32 37.088388,32 L 22.160133,31.978069 C 22.160133,31.978069 26.997745,27.140456 26.997745,27.140456 C 18.528582,18.264221 13.291696,25.230495 11.500037,31.436501 z"
     style="fill:#404040;"/>
  </a>
 </g>
</svg>

<style type='text/css'>
<![CDATA[
[data-mouse-over-selected='false'] { opacity: 0.7; }
[data-mouse-over-selected='true']  { opacity: 1.0; }
]]>
</style>
<script type="application/ecmascript"><![CDATA[
document.addEventListener('DOMContentLoaded', (event) => {
  highlightEdges();
  highlightAdjacentNodes();
});
]]></script>
</svg>
