<?xml version="1.0" encoding="UTF-8" standalone="no"?>
<!DOCTYPE svg PUBLIC "-//W3C//DTD SVG 1.1//EN"
 "http://www.w3.org/Graphics/SVG/1.1/DTD/svg11.dtd">
<!-- Generated by graphviz version 2.43.0 (0)
 -->
<!-- Title: rm::LightIpConfig Pages: 1 -->
<svg width="151pt" height="272pt"
 viewBox="0.00 0.00 151.00 272.00" xmlns="http://www.w3.org/2000/svg" xmlns:xlink="http://www.w3.org/1999/xlink">

<svg id="main" version="1.1" xmlns="http://www.w3.org/2000/svg" xmlns:xlink="http://www.w3.org/1999/xlink" xml:space="preserve">

<style type="text/css"><![CDATA[
.node, .edge {opacity: 0.7;}
.node.selected, .edge.selected {opacity: 1;}
.edge:hover path { stroke: red; }
.edge:hover polygon { stroke: red; fill: red; }
]]></style>
<script type="application/ecmascript" xlink:href="../../svg.min.js"/>
<svg id="graph" class="graph">
<g id="graph0" class="graph" transform="scale(1 1) rotate(0) translate(4 268)">
<title>rm::LightIpConfig</title>
<!-- Node1 -->
<g id="Node000001" class="node">
<title>Node1</title>
<g id="a_Node000001"><a xlink:title="OPT 光源控制器 IP 配置信息">
<polygon fill="#999999" stroke="transparent" points="96,-49 2,-49 2,0 96,0 96,-49"/>
<text text-anchor="start" x="7" y="-36.5" font-family="Helvetica,sans-Serif" font-size="10.00">rm::LightIpConfig</text>
<text text-anchor="start" x="47" y="-21.5" font-family="Helvetica,sans-Serif" font-size="10.00"> </text>
<text text-anchor="start" x="47" y="-6.5" font-family="Helvetica,sans-Serif" font-size="10.00"> </text>
<polygon fill="#666666" stroke="#666666" points="2,-31.5 2,-31.5 96,-31.5 96,-31.5 2,-31.5"/>
<polygon fill="#666666" stroke="#666666" points="2,-16.5 2,-16.5 96,-16.5 96,-16.5 2,-16.5"/>
<polygon fill="none" stroke="#666666" points="2,0 2,-49 96,-49 96,0 2,0"/>
</a>
</g>
</g>
<!-- Node2 -->
<g id="Node000002" class="node">
<title>Node2</title>
<g id="a_Node000002"><a xlink:title=" ">
<polygon fill="white" stroke="transparent" points="78.5,-167 19.5,-167 19.5,-118 78.5,-118 78.5,-167"/>
<text text-anchor="start" x="25" y="-154.5" font-family="Helvetica,sans-Serif" font-size="10.00">std::string</text>
<text text-anchor="start" x="47.5" y="-139.5" font-family="Helvetica,sans-Serif" font-size="10.00"> </text>
<text text-anchor="start" x="47.5" y="-124.5" font-family="Helvetica,sans-Serif" font-size="10.00"> </text>
<polygon fill="#666666" stroke="#666666" points="20,-149.5 20,-149.5 79,-149.5 79,-149.5 20,-149.5"/>
<polygon fill="#666666" stroke="#666666" points="20,-134.5 20,-134.5 79,-134.5 79,-134.5 20,-134.5"/>
<polygon fill="none" stroke="#666666" points="19.5,-118 19.5,-167 78.5,-167 78.5,-118 19.5,-118"/>
</a>
</g>
</g>
<!-- Node2&#45;&gt;Node1 -->
<g id="edge1_Node000001_Node000002" class="edge">
<title>Node2&#45;&gt;Node1</title>
<g id="a_edge1_Node000001_Node000002"><a xlink:title=" ">
<path fill="none" stroke="#63b8ff" d="M49,-117.75C49,-101.48 49,-79.62 49,-61.26"/>
<polygon fill="none" stroke="#63b8ff" points="49,-61.22 45,-55.22 49,-49.22 53,-55.22 49,-61.22"/>
</a>
</g>
<text text-anchor="middle" x="96" y="-92" font-family="Helvetica,sans-Serif" font-size="10.00" fill="grey"> +default_gateway</text>
<text text-anchor="middle" x="96" y="-81" font-family="Helvetica,sans-Serif" font-size="10.00" fill="grey">+ip</text>
<text text-anchor="middle" x="96" y="-70" font-family="Helvetica,sans-Serif" font-size="10.00" fill="grey">+subnet_mask</text>
</g>
<!-- Node3 -->
<g id="Node000003" class="node">
<title>Node3</title>
<g id="a_Node000003"><a xlink:title=" ">
<polygon fill="white" stroke="transparent" points="98,-264 0,-264 0,-204 98,-204 98,-264"/>
<text text-anchor="start" x="5" y="-252" font-family="Helvetica,sans-Serif" font-size="10.00">std::basic_string&lt;</text>
<text text-anchor="start" x="30.5" y="-241" font-family="Helvetica,sans-Serif" font-size="10.00"> Char &gt;</text>
<text text-anchor="start" x="47" y="-226" font-family="Helvetica,sans-Serif" font-size="10.00"> </text>
<text text-anchor="start" x="47" y="-211" font-family="Helvetica,sans-Serif" font-size="10.00"> </text>
<polygon fill="#666666" stroke="#666666" points="0,-236 0,-236 98,-236 98,-236 0,-236"/>
<polygon fill="#666666" stroke="#666666" points="0,-221 0,-221 98,-221 98,-221 0,-221"/>
<polygon fill="none" stroke="#666666" points="0,-204 0,-264 98,-264 98,-204 0,-204"/>
</a>
</g>
</g>
<!-- Node3&#45;&gt;Node2 -->
<g id="edge2_Node000002_Node000003" class="edge">
<title>Node3&#45;&gt;Node2</title>
<g id="a_edge2_Node000002_Node000003"><a xlink:title=" ">
<path fill="none" stroke="#63b8ff" d="M49,-193.41C49,-184.47 49,-175.25 49,-167.21"/>
<polygon fill="none" stroke="#63b8ff" points="45.5,-193.69 49,-203.69 52.5,-193.69 45.5,-193.69"/>
</a>
</g>
</g>
</g>
</svg>
</svg>

<style type='text/css'>
<![CDATA[
[data-mouse-over-selected='false'] { opacity: 0.7; }
[data-mouse-over-selected='true']  { opacity: 1.0; }
]]>
</style>
<script type="application/ecmascript"><![CDATA[
document.addEventListener('DOMContentLoaded', (event) => {
  highlightEdges();
  highlightAdjacentNodes();
});
]]></script>
</svg>
