<?xml version="1.0" encoding="UTF-8" standalone="no"?>
<!DOCTYPE svg PUBLIC "-//W3C//DTD SVG 1.1//EN"
 "http://www.w3.org/Graphics/SVG/1.1/DTD/svg11.dtd">
<!-- Generated by graphviz version 2.43.0 (0)
 -->
<!-- Title: rm::EventType Pages: 1 -->
<svg width="158pt" height="331pt"
 viewBox="0.00 0.00 157.50 331.00" xmlns="http://www.w3.org/2000/svg" xmlns:xlink="http://www.w3.org/1999/xlink">
<g id="graph0" class="graph" transform="scale(1 1) rotate(0) translate(4 327)">
<title>rm::EventType</title>
<!-- Node1 -->
<g id="Node000001" class="node">
<title>Node1</title>
<g id="a_Node000001"><a xlink:title="OPC UA 事件类型">
<polygon fill="#999999" stroke="transparent" points="82.5,-94 8.5,-94 8.5,0 82.5,0 82.5,-94"/>
<text text-anchor="start" x="13.5" y="-82" font-family="Helvetica,sans-Serif" font-size="10.00">rm::EventType</text>
<text text-anchor="start" x="43.5" y="-67" font-family="Helvetica,sans-Serif" font-size="10.00"> </text>
<text text-anchor="start" x="13" y="-52" font-family="Helvetica,sans-Serif" font-size="10.00">+</text>
<text text-anchor="start" x="24.5" y="-52" font-family="Helvetica,sans-Serif" font-size="10.00">EventType()</text>
<text text-anchor="start" x="13" y="-37" font-family="Helvetica,sans-Serif" font-size="10.00">+</text>
<text text-anchor="start" x="24.5" y="-37" font-family="Helvetica,sans-Serif" font-size="10.00">add()</text>
<text text-anchor="start" x="13" y="-22" font-family="Helvetica,sans-Serif" font-size="10.00">+</text>
<text text-anchor="start" x="24.5" y="-22" font-family="Helvetica,sans-Serif" font-size="10.00">operator[]()</text>
<text text-anchor="start" x="13" y="-7" font-family="Helvetica,sans-Serif" font-size="10.00">+</text>
<text text-anchor="start" x="24.5" y="-7" font-family="Helvetica,sans-Serif" font-size="10.00">data()</text>
<polygon fill="#666666" stroke="#666666" points="8.5,-77 8.5,-77 82.5,-77 82.5,-77 8.5,-77"/>
<polygon fill="#666666" stroke="#666666" points="8.5,-62 8.5,-62 82.5,-62 82.5,-62 8.5,-62"/>
<polygon fill="none" stroke="#666666" points="8.5,0 8.5,-94 82.5,-94 82.5,0 8.5,0"/>
</a>
</g>
</g>
<!-- Node2 -->
<g id="Node000002" class="node">
<title>Node2</title>
<g id="a_Node000002"><a xlink:title=" ">
<polygon fill="white" stroke="transparent" points="45,-226 0,-226 0,-177 45,-177 45,-226"/>
<text text-anchor="start" x="5.5" y="-213.5" font-family="Helvetica,sans-Serif" font-size="10.00">uint16_t</text>
<text text-anchor="start" x="21" y="-198.5" font-family="Helvetica,sans-Serif" font-size="10.00"> </text>
<text text-anchor="start" x="21" y="-183.5" font-family="Helvetica,sans-Serif" font-size="10.00"> </text>
<polygon fill="#666666" stroke="#666666" points="0.5,-208.5 0.5,-208.5 45.5,-208.5 45.5,-208.5 0.5,-208.5"/>
<polygon fill="#666666" stroke="#666666" points="0.5,-193.5 0.5,-193.5 45.5,-193.5 45.5,-193.5 0.5,-193.5"/>
<polygon fill="none" stroke="#666666" points="0,-177 0,-226 45,-226 45,-177 0,-177"/>
</a>
</g>
</g>
<!-- Node2&#45;&gt;Node1 -->
<g id="edge1_Node000001_Node000002" class="edge">
<title>Node2&#45;&gt;Node1</title>
<g id="a_edge1_Node000001_Node000002"><a xlink:title=" ">
<path fill="none" stroke="#63b8ff" d="M25.48,-176.8C27.78,-158.96 31.13,-133.92 34.5,-112 34.79,-110.1 35.09,-108.17 35.4,-106.22"/>
<polygon fill="none" stroke="#63b8ff" points="35.45,-105.96 32.46,-99.39 37.37,-94.11 40.36,-100.68 35.45,-105.96"/>
</a>
</g>
<text text-anchor="start" x="38" y="-132.5" font-family="Helvetica,sans-Serif" font-size="10.00" fill="grey">+ns</text>
</g>
<!-- Node3 -->
<g id="Node000003" class="node">
<title>Node3</title>
<g id="a_Node000003"><a xlink:title=" ">
<polygon fill="white" stroke="transparent" points="117.5,-226 63.5,-226 63.5,-177 117.5,-177 117.5,-226"/>
<text text-anchor="start" x="68.5" y="-213.5" font-family="Helvetica,sans-Serif" font-size="10.00">std::string</text>
<text text-anchor="start" x="88.5" y="-198.5" font-family="Helvetica,sans-Serif" font-size="10.00"> </text>
<text text-anchor="start" x="88.5" y="-183.5" font-family="Helvetica,sans-Serif" font-size="10.00"> </text>
<polygon fill="#666666" stroke="#666666" points="63.5,-208.5 63.5,-208.5 117.5,-208.5 117.5,-208.5 63.5,-208.5"/>
<polygon fill="#666666" stroke="#666666" points="63.5,-193.5 63.5,-193.5 117.5,-193.5 117.5,-193.5 63.5,-193.5"/>
<polygon fill="none" stroke="#666666" points="63.5,-177 63.5,-226 117.5,-226 117.5,-177 63.5,-177"/>
</a>
</g>
</g>
<!-- Node3&#45;&gt;Node1 -->
<g id="edge2_Node000001_Node000003" class="edge">
<title>Node3&#45;&gt;Node1</title>
<g id="a_edge2_Node000001_Node000003"><a xlink:title=" ">
<path fill="none" stroke="#63b8ff" d="M83.47,-176.67C77.88,-157.74 69.83,-130.45 62.58,-105.87"/>
<polygon fill="none" stroke="#63b8ff" points="62.49,-105.57 56.95,-100.95 59.09,-94.07 64.63,-98.69 62.49,-105.57"/>
</a>
</g>
<text text-anchor="start" x="80" y="-147.5" font-family="Helvetica,sans-Serif" font-size="10.00" fill="grey">+browse_name</text>
<text text-anchor="start" x="80" y="-132.5" font-family="Helvetica,sans-Serif" font-size="10.00" fill="grey">+description</text>
<text text-anchor="start" x="80" y="-117.5" font-family="Helvetica,sans-Serif" font-size="10.00" fill="grey">+display_name</text>
</g>
<!-- Node4 -->
<g id="Node000004" class="node">
<title>Node4</title>
<g id="a_Node000004"><a xlink:title=" ">
<polygon fill="white" stroke="transparent" points="135,-323 46,-323 46,-263 135,-263 135,-323"/>
<text text-anchor="start" x="51.5" y="-311" font-family="Helvetica,sans-Serif" font-size="10.00">std::basic_string&lt;</text>
<text text-anchor="start" x="74" y="-300" font-family="Helvetica,sans-Serif" font-size="10.00"> Char &gt;</text>
<text text-anchor="start" x="89" y="-285" font-family="Helvetica,sans-Serif" font-size="10.00"> </text>
<text text-anchor="start" x="89" y="-270" font-family="Helvetica,sans-Serif" font-size="10.00"> </text>
<polygon fill="#666666" stroke="#666666" points="46.5,-295 46.5,-295 135.5,-295 135.5,-295 46.5,-295"/>
<polygon fill="#666666" stroke="#666666" points="46.5,-280 46.5,-280 135.5,-280 135.5,-280 46.5,-280"/>
<polygon fill="none" stroke="#666666" points="46,-263 46,-323 135,-323 135,-263 46,-263"/>
</a>
</g>
</g>
<!-- Node4&#45;&gt;Node3 -->
<g id="edge3_Node000003_Node000004" class="edge">
<title>Node4&#45;&gt;Node3</title>
<g id="a_edge3_Node000003_Node000004"><a xlink:title=" ">
<path fill="none" stroke="#63b8ff" d="M90.5,-252.41C90.5,-243.47 90.5,-234.25 90.5,-226.21"/>
<polygon fill="none" stroke="#63b8ff" points="87,-252.69 90.5,-262.69 94,-252.69 87,-252.69"/>
</a>
</g>
</g>
</g>
</svg>
