<?xml version="1.0" encoding="UTF-8" standalone="no"?>
<!DOCTYPE svg PUBLIC "-//W3C//DTD SVG 1.1//EN"
 "http://www.w3.org/Graphics/SVG/1.1/DTD/svg11.dtd">
<!-- Generated by graphviz version 2.43.0 (0)
 -->
<!-- Title: rm::CompensateInfo Pages: 1 -->
<svg width="514pt" height="425pt"
 viewBox="0.00 0.00 513.50 425.00" xmlns="http://www.w3.org/2000/svg" xmlns:xlink="http://www.w3.org/1999/xlink">
<g id="graph0" class="graph" transform="scale(1 1) rotate(0) translate(4 421)">
<title>rm::CompensateInfo</title>
<polygon fill="white" stroke="transparent" points="-4,4 -4,-421 509.5,-421 509.5,4 -4,4"/>
<!-- Node1 -->
<g id="node1" class="node">
<title>Node1</title>
<g id="a_node1"><a xlink:title="补偿模块信息">
<polygon fill="#bfbfbf" stroke="black" points="178.5,-0.5 178.5,-57.5 294.5,-57.5 294.5,-0.5 178.5,-0.5"/>
<text text-anchor="middle" x="236.5" y="-45.5" font-family="Helvetica,sans-Serif" font-size="10.00">rm::CompensateInfo</text>
<polyline fill="none" stroke="black" points="178.5,-38.5 294.5,-38.5 "/>
<text text-anchor="middle" x="236.5" y="-26.5" font-family="Helvetica,sans-Serif" font-size="10.00"> </text>
<polyline fill="none" stroke="black" points="178.5,-19.5 294.5,-19.5 "/>
<text text-anchor="middle" x="236.5" y="-7.5" font-family="Helvetica,sans-Serif" font-size="10.00"> </text>
</a>
</g>
</g>
<!-- Node2 -->
<g id="node2" class="node">
<title>Node2</title>
<g id="a_node2"><a xlink:title=" ">
<polygon fill="white" stroke="#bfbfbf" points="109.5,-105.5 109.5,-184.5 223.5,-184.5 223.5,-105.5 109.5,-105.5"/>
<text text-anchor="start" x="117.5" y="-172.5" font-family="Helvetica,sans-Serif" font-size="10.00">std::unordered_map</text>
<text text-anchor="start" x="117.5" y="-161.5" font-family="Helvetica,sans-Serif" font-size="10.00">&lt; tracker::ptr, cv::</text>
<text text-anchor="middle" x="166.5" y="-150.5" font-family="Helvetica,sans-Serif" font-size="10.00">Point2f &gt;</text>
<polyline fill="none" stroke="#bfbfbf" points="109.5,-143.5 223.5,-143.5 "/>
<text text-anchor="middle" x="166.5" y="-131.5" font-family="Helvetica,sans-Serif" font-size="10.00"> </text>
<polyline fill="none" stroke="#bfbfbf" points="109.5,-124.5 223.5,-124.5 "/>
<text text-anchor="middle" x="166.5" y="-112.5" font-family="Helvetica,sans-Serif" font-size="10.00"> </text>
</a>
</g>
</g>
<!-- Node2&#45;&gt;Node1 -->
<g id="edge1" class="edge">
<title>Node2&#45;&gt;Node1</title>
<path fill="none" stroke="#404040" d="M179.65,-105.42C183.77,-95.49 188.76,-85.06 194.5,-76 196.37,-73.05 198.44,-70.1 200.63,-67.22"/>
<polygon fill="none" stroke="#404040" points="200.82,-66.99 201.51,-59.81 208.41,-57.69 207.71,-64.87 200.82,-66.99"/>
<text text-anchor="middle" x="235" y="-79" font-family="Helvetica,sans-Serif" font-size="10.00"> +compensation</text>
</g>
<!-- Node3 -->
<g id="node3" class="node">
<title>Node3</title>
<g id="a_node3"><a xlink:title=" ">
<polygon fill="white" stroke="#bfbfbf" points="0,-249 0,-306 51,-306 51,-249 0,-249"/>
<text text-anchor="middle" x="25.5" y="-294" font-family="Helvetica,sans-Serif" font-size="10.00">Point2f</text>
<polyline fill="none" stroke="#bfbfbf" points="0,-287 51,-287 "/>
<text text-anchor="middle" x="25.5" y="-275" font-family="Helvetica,sans-Serif" font-size="10.00"> </text>
<polyline fill="none" stroke="#bfbfbf" points="0,-268 51,-268 "/>
<text text-anchor="middle" x="25.5" y="-256" font-family="Helvetica,sans-Serif" font-size="10.00"> </text>
</a>
</g>
</g>
<!-- Node3&#45;&gt;Node2 -->
<g id="edge2" class="edge">
<title>Node3&#45;&gt;Node2</title>
<path fill="none" stroke="#404040" d="M26.14,-248.79C27.8,-233.8 32.08,-215.79 42.5,-203 56.77,-185.49 77.61,-173.11 98.15,-164.48"/>
<polygon fill="none" stroke="#404040" points="98.3,-164.42 102.44,-158.51 109.48,-160.06 105.34,-165.96 98.3,-164.42"/>
<text text-anchor="middle" x="71.5" y="-211.5" font-family="Helvetica,sans-Serif" font-size="10.00"> +elements</text>
</g>
<!-- Node4 -->
<g id="node4" class="node">
<title>Node4</title>
<g id="a_node4"><a xlink:title=" ">
<polygon fill="white" stroke="#bfbfbf" points="257.5,-249 257.5,-306 375.5,-306 375.5,-249 257.5,-249"/>
<text text-anchor="middle" x="316.5" y="-294" font-family="Helvetica,sans-Serif" font-size="10.00">std::shared_ptr&lt; T &gt;</text>
<polyline fill="none" stroke="#bfbfbf" points="257.5,-287 375.5,-287 "/>
<text text-anchor="middle" x="316.5" y="-275" font-family="Helvetica,sans-Serif" font-size="10.00"> </text>
<polyline fill="none" stroke="#bfbfbf" points="257.5,-268 375.5,-268 "/>
<text text-anchor="start" x="265.5" y="-256" font-family="Helvetica,sans-Serif" font-size="10.00">+ operator&#45;&gt;()</text>
</a>
</g>
</g>
<!-- Node4&#45;&gt;Node2 -->
<g id="edge3" class="edge">
<title>Node4&#45;&gt;Node2</title>
<path fill="none" stroke="#404040" d="M259.42,-248.93C235.37,-237.24 212.6,-226.03 211.5,-225 202.53,-216.57 194.85,-205.94 188.5,-195.24"/>
<polygon fill="none" stroke="#404040" points="188.42,-195.09 182.01,-191.77 182.6,-184.59 189.01,-187.9 188.42,-195.09"/>
<text text-anchor="middle" x="228.5" y="-211.5" font-family="Helvetica,sans-Serif" font-size="10.00"> +keys</text>
</g>
<!-- Node8 -->
<g id="node8" class="node">
<title>Node8</title>
<g id="a_node8"><a xlink:title=" ">
<polygon fill="white" stroke="#bfbfbf" points="254,-111 254,-179 385,-179 385,-111 254,-111"/>
<text text-anchor="start" x="262" y="-167" font-family="Helvetica,sans-Serif" font-size="10.00">std::unordered_map</text>
<text text-anchor="middle" x="319.5" y="-156" font-family="Helvetica,sans-Serif" font-size="10.00">&lt; tracker::ptr, double &gt;</text>
<polyline fill="none" stroke="#bfbfbf" points="254,-149 385,-149 "/>
<text text-anchor="middle" x="319.5" y="-137" font-family="Helvetica,sans-Serif" font-size="10.00"> </text>
<polyline fill="none" stroke="#bfbfbf" points="254,-130 385,-130 "/>
<text text-anchor="middle" x="319.5" y="-118" font-family="Helvetica,sans-Serif" font-size="10.00"> </text>
</a>
</g>
</g>
<!-- Node4&#45;&gt;Node8 -->
<g id="edge10" class="edge">
<title>Node4&#45;&gt;Node8</title>
<path fill="none" stroke="#404040" d="M370.01,-248.94C378.26,-242.25 385.64,-234.3 390.5,-225 397.37,-211.85 392.91,-199.15 383.55,-187.93"/>
<polygon fill="none" stroke="#404040" points="383.49,-187.87 376.44,-186.36 375.12,-179.27 382.17,-180.78 383.49,-187.87"/>
<text text-anchor="middle" x="410.5" y="-211.5" font-family="Helvetica,sans-Serif" font-size="10.00"> +keys</text>
</g>
<!-- Node5 -->
<g id="node5" class="node">
<title>Node5</title>
<g id="a_node5"><a xlink:title=" ">
<polygon fill="white" stroke="#bfbfbf" points="261,-359.5 261,-416.5 290,-416.5 290,-359.5 261,-359.5"/>
<text text-anchor="middle" x="275.5" y="-404.5" font-family="Helvetica,sans-Serif" font-size="10.00">T</text>
<polyline fill="none" stroke="#bfbfbf" points="261,-397.5 290,-397.5 "/>
<text text-anchor="middle" x="275.5" y="-385.5" font-family="Helvetica,sans-Serif" font-size="10.00"> </text>
<polyline fill="none" stroke="#bfbfbf" points="261,-378.5 290,-378.5 "/>
<text text-anchor="middle" x="275.5" y="-366.5" font-family="Helvetica,sans-Serif" font-size="10.00"> </text>
</a>
</g>
</g>
<!-- Node5&#45;&gt;Node4 -->
<g id="edge4" class="edge">
<title>Node5&#45;&gt;Node4</title>
<path fill="none" stroke="#404040" d="M287.19,-359.37C289.67,-353.34 292.22,-346.97 294.5,-341 297.36,-333.51 300.3,-325.46 303.06,-317.72"/>
<polygon fill="none" stroke="#404040" points="303.09,-317.63 301.3,-310.64 307.07,-306.31 308.85,-313.29 303.09,-317.63"/>
<text text-anchor="middle" x="310" y="-333" font-family="Helvetica,sans-Serif" font-size="10.00"> +ptr</text>
</g>
<!-- Node6 -->
<g id="node6" class="node">
<title>Node6</title>
<g id="a_node6"><a xlink:title=" ">
<polygon fill="white" stroke="#bfbfbf" points="123.5,-243.5 123.5,-311.5 237.5,-311.5 237.5,-243.5 123.5,-243.5"/>
<text text-anchor="start" x="131.5" y="-299.5" font-family="Helvetica,sans-Serif" font-size="10.00">std::unordered_map</text>
<text text-anchor="middle" x="180.5" y="-288.5" font-family="Helvetica,sans-Serif" font-size="10.00">&lt; K, T &gt;</text>
<polyline fill="none" stroke="#bfbfbf" points="123.5,-281.5 237.5,-281.5 "/>
<text text-anchor="middle" x="180.5" y="-269.5" font-family="Helvetica,sans-Serif" font-size="10.00"> </text>
<polyline fill="none" stroke="#bfbfbf" points="123.5,-262.5 237.5,-262.5 "/>
<text text-anchor="middle" x="180.5" y="-250.5" font-family="Helvetica,sans-Serif" font-size="10.00"> </text>
</a>
</g>
</g>
<!-- Node5&#45;&gt;Node6 -->
<g id="edge7" class="edge">
<title>Node5&#45;&gt;Node6</title>
<path fill="none" stroke="#404040" d="M260.94,-371.87C252.51,-362.99 241.76,-351.49 232.5,-341 226.92,-334.67 221.1,-327.89 215.47,-321.21"/>
<polygon fill="none" stroke="#404040" points="215.11,-320.77 208.19,-318.73 207.41,-311.56 214.32,-313.6 215.11,-320.77"/>
<text text-anchor="middle" x="261.5" y="-333" font-family="Helvetica,sans-Serif" font-size="10.00"> +elements</text>
</g>
<!-- Node6&#45;&gt;Node2 -->
<g id="edge5" class="edge">
<title>Node6&#45;&gt;Node2</title>
<path fill="none" stroke="orange" d="M116.35,-237.87C112.91,-233.9 109.89,-229.62 107.5,-225 100.25,-211.02 105.83,-196.88 115.96,-184.51"/>
<polygon fill="orange" stroke="orange" points="113.93,-240.41 123.42,-245.12 118.94,-235.52 113.93,-240.41"/>
<text text-anchor="start" x="107.5" y="-217" font-family="Helvetica,sans-Serif" font-size="10.00"> &lt; tracker::ptr, cv</text>
<text text-anchor="middle" x="150" y="-206" font-family="Helvetica,sans-Serif" font-size="10.00">::Point2f &gt;</text>
</g>
<!-- Node6&#45;&gt;Node8 -->
<g id="edge11" class="edge">
<title>Node6&#45;&gt;Node8</title>
<path fill="none" stroke="orange" d="M235.73,-237C240.5,-233.08 245.16,-229.05 249.5,-225 258.95,-216.2 259.97,-212.7 268.5,-203 275.34,-195.22 282.74,-186.89 289.74,-179.07"/>
<polygon fill="orange" stroke="orange" points="233.25,-234.5 227.63,-243.48 237.63,-239.96 233.25,-234.5"/>
<text text-anchor="middle" x="327.5" y="-211.5" font-family="Helvetica,sans-Serif" font-size="10.00"> &lt; tracker::ptr, double &gt;</text>
</g>
<!-- Node7 -->
<g id="node7" class="node">
<title>Node7</title>
<g id="a_node7"><a xlink:title=" ">
<polygon fill="white" stroke="#bfbfbf" points="164,-359.5 164,-416.5 193,-416.5 193,-359.5 164,-359.5"/>
<text text-anchor="middle" x="178.5" y="-404.5" font-family="Helvetica,sans-Serif" font-size="10.00">K</text>
<polyline fill="none" stroke="#bfbfbf" points="164,-397.5 193,-397.5 "/>
<text text-anchor="middle" x="178.5" y="-385.5" font-family="Helvetica,sans-Serif" font-size="10.00"> </text>
<polyline fill="none" stroke="#bfbfbf" points="164,-378.5 193,-378.5 "/>
<text text-anchor="middle" x="178.5" y="-366.5" font-family="Helvetica,sans-Serif" font-size="10.00"> </text>
</a>
</g>
</g>
<!-- Node7&#45;&gt;Node6 -->
<g id="edge6" class="edge">
<title>Node7&#45;&gt;Node6</title>
<path fill="none" stroke="#404040" d="M178.97,-359.46C179.14,-350.11 179.32,-339.6 179.5,-330 179.54,-327.97 179.58,-325.9 179.62,-323.8"/>
<polygon fill="none" stroke="#404040" points="179.62,-323.74 175.73,-317.67 179.85,-311.74 183.73,-317.82 179.62,-323.74"/>
<text text-anchor="middle" x="196.5" y="-333" font-family="Helvetica,sans-Serif" font-size="10.00"> +keys</text>
</g>
<!-- Node8&#45;&gt;Node1 -->
<g id="edge8" class="edge">
<title>Node8&#45;&gt;Node1</title>
<path fill="none" stroke="#404040" d="M299.3,-110.91C292.09,-99.62 283.72,-87.06 275.5,-76 273.32,-73.07 271.02,-70.08 268.65,-67.11"/>
<polygon fill="none" stroke="#404040" points="268.6,-67.05 261.71,-64.93 261.01,-57.75 267.91,-59.87 268.6,-67.05"/>
<text text-anchor="middle" x="295" y="-79" font-family="Helvetica,sans-Serif" font-size="10.00"> +tof</text>
</g>
<!-- Node9 -->
<g id="node9" class="node">
<title>Node9</title>
<g id="a_node9"><a xlink:title=" ">
<polygon fill="white" stroke="#bfbfbf" points="444.5,-249 444.5,-306 494.5,-306 494.5,-249 444.5,-249"/>
<text text-anchor="middle" x="469.5" y="-294" font-family="Helvetica,sans-Serif" font-size="10.00">double</text>
<polyline fill="none" stroke="#bfbfbf" points="444.5,-287 494.5,-287 "/>
<text text-anchor="middle" x="469.5" y="-275" font-family="Helvetica,sans-Serif" font-size="10.00"> </text>
<polyline fill="none" stroke="#bfbfbf" points="444.5,-268 494.5,-268 "/>
<text text-anchor="middle" x="469.5" y="-256" font-family="Helvetica,sans-Serif" font-size="10.00"> </text>
</a>
</g>
</g>
<!-- Node9&#45;&gt;Node8 -->
<g id="edge9" class="edge">
<title>Node9&#45;&gt;Node8</title>
<path fill="none" stroke="#404040" d="M459.99,-248.76C453.75,-233.76 444.34,-215.76 431.5,-203 421.22,-192.79 408.74,-184.04 395.89,-176.68"/>
<polygon fill="none" stroke="#404040" points="395.61,-176.53 388.43,-177.2 385.05,-170.82 392.23,-170.16 395.61,-176.53"/>
<text text-anchor="middle" x="476.5" y="-211.5" font-family="Helvetica,sans-Serif" font-size="10.00"> +elements</text>
</g>
</g>
</svg>
