<?xml version="1.0" encoding="UTF-8" standalone="no"?>
<!DOCTYPE svg PUBLIC "-//W3C//DTD SVG 1.1//EN"
 "http://www.w3.org/Graphics/SVG/1.1/DTD/svg11.dtd">
<!-- Generated by graphviz version 2.43.0 (0)
 -->
<!-- Title: rm::para::ArmorPredictorParam Pages: 1 -->
<svg width="127pt" height="245pt"
 viewBox="0.00 0.00 127.00 245.00" xmlns="http://www.w3.org/2000/svg" xmlns:xlink="http://www.w3.org/1999/xlink">
<g id="graph0" class="graph" transform="scale(1 1) rotate(0) translate(4 241)">
<title>rm::para::ArmorPredictorParam</title>
<!-- Node1 -->
<g id="Node000001" class="node">
<title>Node1</title>
<g id="a_Node000001"><a xlink:title="ArmorPredictorParam 参数模块">
<polygon fill="#999999" stroke="transparent" points="119,-90 0,-90 0,0 119,0 119,-90"/>
<text text-anchor="start" x="6" y="-78" font-family="Helvetica,sans-Serif" font-size="10.00">rm::para::ArmorPredictor</text>
<text text-anchor="start" x="45.5" y="-67" font-family="Helvetica,sans-Serif" font-size="10.00">Param</text>
<text text-anchor="start" x="58" y="-52" font-family="Helvetica,sans-Serif" font-size="10.00"> </text>
<text text-anchor="start" x="4.5" y="-37" font-family="Helvetica,sans-Serif" font-size="10.00">+</text>
<text text-anchor="start" x="15.5" y="-37" font-family="Helvetica,sans-Serif" font-size="10.00">ArmorPredictorParam()</text>
<text text-anchor="start" x="4.5" y="-22" font-family="Helvetica,sans-Serif" font-size="10.00">+</text>
<text text-anchor="start" x="15.5" y="-22" font-family="Helvetica,sans-Serif" font-size="10.00">read()</text>
<text text-anchor="start" x="4.5" y="-7" font-family="Helvetica,sans-Serif" font-size="10.00">+</text>
<text text-anchor="start" x="15.5" y="-7" font-family="Helvetica,sans-Serif" font-size="10.00">write()</text>
<polygon fill="#666666" stroke="#666666" points="0.5,-62 0.5,-62 119.5,-62 119.5,-62 0.5,-62"/>
<polygon fill="#666666" stroke="#666666" points="0.5,-47 0.5,-47 119.5,-47 119.5,-47 0.5,-47"/>
<polygon fill="none" stroke="#666666" points="0,0 0,-90 119,-90 119,0 0,0"/>
</a>
</g>
</g>
<!-- Node2 -->
<g id="Node000002" class="node">
<title>Node2</title>
<g id="a_Node000002"><a xlink:title=" ">
<polygon fill="white" stroke="transparent" points="79,-237 40,-237 40,-188 79,-188 79,-237"/>
<text text-anchor="start" x="45.5" y="-224.5" font-family="Helvetica,sans-Serif" font-size="10.00">double</text>
<text text-anchor="start" x="58" y="-209.5" font-family="Helvetica,sans-Serif" font-size="10.00"> </text>
<text text-anchor="start" x="58" y="-194.5" font-family="Helvetica,sans-Serif" font-size="10.00"> </text>
<polygon fill="#666666" stroke="#666666" points="40.5,-219.5 40.5,-219.5 79.5,-219.5 79.5,-219.5 40.5,-219.5"/>
<polygon fill="#666666" stroke="#666666" points="40.5,-204.5 40.5,-204.5 79.5,-204.5 79.5,-204.5 40.5,-204.5"/>
<polygon fill="none" stroke="#666666" points="40,-188 40,-237 79,-237 79,-188 40,-188"/>
</a>
</g>
</g>
<!-- Node2&#45;&gt;Node1 -->
<g id="edge1_Node000001_Node000002" class="edge">
<title>Node2&#45;&gt;Node1</title>
<g id="a_edge1_Node000001_Node000002"><a xlink:title=" ">
<path fill="none" stroke="#63b8ff" d="M59.5,-187.79C59.5,-165.58 59.5,-131.53 59.5,-102.36"/>
<polygon fill="none" stroke="#63b8ff" points="59.5,-102.21 55.5,-96.21 59.5,-90.21 63.5,-96.21 59.5,-102.21"/>
</a>
</g>
<text text-anchor="start" x="63" y="-159" font-family="Helvetica,sans-Serif" font-size="10.00" fill="grey">+PITCH_B</text>
<text text-anchor="start" x="63" y="-144" font-family="Helvetica,sans-Serif" font-size="10.00" fill="grey">+PITCH_K</text>
<text text-anchor="start" x="63" y="-129" font-family="Helvetica,sans-Serif" font-size="10.00" fill="grey">+YAW_B</text>
<text text-anchor="start" x="63" y="-114" font-family="Helvetica,sans-Serif" font-size="10.00" fill="grey">+YAW_K</text>
</g>
</g>
</svg>
