<?xml version="1.0" encoding="UTF-8" standalone="no"?>
<!DOCTYPE svg PUBLIC "-//W3C//DTD SVG 1.1//EN"
 "http://www.w3.org/Graphics/SVG/1.1/DTD/svg11.dtd">
<!-- Generated by graphviz version 2.43.0 (0)
 -->
<!-- Title: rm::group Pages: 1 -->
<svg width="413pt" height="490pt"
 viewBox="0.00 0.00 413.00 490.00" xmlns="http://www.w3.org/2000/svg" xmlns:xlink="http://www.w3.org/1999/xlink">
<g id="graph0" class="graph" transform="scale(1 1) rotate(0) translate(4 486)">
<title>rm::group</title>
<polygon fill="white" stroke="transparent" points="-4,4 -4,-486 409,-486 409,4 -4,4"/>
<!-- Node1 -->
<g id="node1" class="node">
<title>Node1</title>
<g id="a_node1"><a xlink:title="相关追踪器的空间集合（序列组）">
<polygon fill="#bfbfbf" stroke="black" points="141.5,-270.5 141.5,-481.5 263.5,-481.5 263.5,-270.5 141.5,-270.5"/>
<text text-anchor="middle" x="202.5" y="-469.5" font-family="Helvetica,sans-Serif" font-size="10.00">rm::group</text>
<polyline fill="none" stroke="black" points="141.5,-462.5 263.5,-462.5 "/>
<text text-anchor="start" x="149.5" y="-450.5" font-family="Helvetica,sans-Serif" font-size="10.00"># _trackers</text>
<text text-anchor="start" x="149.5" y="-439.5" font-family="Helvetica,sans-Serif" font-size="10.00"># _center</text>
<text text-anchor="start" x="149.5" y="-428.5" font-family="Helvetica,sans-Serif" font-size="10.00"># _is_tracked</text>
<text text-anchor="start" x="149.5" y="-417.5" font-family="Helvetica,sans-Serif" font-size="10.00"># _vanish_num</text>
<text text-anchor="start" x="149.5" y="-406.5" font-family="Helvetica,sans-Serif" font-size="10.00"># _type</text>
<polyline fill="none" stroke="black" points="141.5,-399.5 263.5,-399.5 "/>
<text text-anchor="start" x="149.5" y="-387.5" font-family="Helvetica,sans-Serif" font-size="10.00">+ group()</text>
<text text-anchor="start" x="149.5" y="-376.5" font-family="Helvetica,sans-Serif" font-size="10.00">+ ~group()</text>
<text text-anchor="start" x="149.5" y="-365.5" font-family="Helvetica,sans-Serif" font-size="10.00">+ sync()</text>
<text text-anchor="start" x="149.5" y="-354.5" font-family="Helvetica,sans-Serif" font-size="10.00">+ add()</text>
<text text-anchor="start" x="149.5" y="-343.5" font-family="Helvetica,sans-Serif" font-size="10.00">+ data()</text>
<text text-anchor="start" x="149.5" y="-332.5" font-family="Helvetica,sans-Serif" font-size="10.00">+ size()</text>
<text text-anchor="start" x="149.5" y="-321.5" font-family="Helvetica,sans-Serif" font-size="10.00">+ empty()</text>
<text text-anchor="start" x="149.5" y="-310.5" font-family="Helvetica,sans-Serif" font-size="10.00">+ at()</text>
<text text-anchor="start" x="149.5" y="-299.5" font-family="Helvetica,sans-Serif" font-size="10.00">+ getCenter()</text>
<text text-anchor="start" x="149.5" y="-288.5" font-family="Helvetica,sans-Serif" font-size="10.00">+ getVanishNumber()</text>
<text text-anchor="start" x="149.5" y="-277.5" font-family="Helvetica,sans-Serif" font-size="10.00">+ getType()</text>
</a>
</g>
</g>
<!-- Node2 -->
<g id="node2" class="node">
<title>Node2</title>
<g id="a_node2"><a xlink:href="../../d0/df4/classrm_1_1DefaultGroup.html" target="_top" xlink:title="默认序列组（一般退化为 trackers 使用）">
<polygon fill="white" stroke="black" points="0,-77.5 0,-156.5 101,-156.5 101,-77.5 0,-77.5"/>
<text text-anchor="middle" x="50.5" y="-144.5" font-family="Helvetica,sans-Serif" font-size="10.00">rm::DefaultGroup</text>
<polyline fill="none" stroke="black" points="0,-137.5 101,-137.5 "/>
<text text-anchor="middle" x="50.5" y="-125.5" font-family="Helvetica,sans-Serif" font-size="10.00"> </text>
<polyline fill="none" stroke="black" points="0,-118.5 101,-118.5 "/>
<text text-anchor="start" x="8" y="-106.5" font-family="Helvetica,sans-Serif" font-size="10.00">+ DefaultGroup()</text>
<text text-anchor="start" x="8" y="-95.5" font-family="Helvetica,sans-Serif" font-size="10.00">+ sync()</text>
<text text-anchor="start" x="8" y="-84.5" font-family="Helvetica,sans-Serif" font-size="10.00">+ make_group()</text>
</a>
</g>
</g>
<!-- Node1&#45;&gt;Node2 -->
<g id="edge1" class="edge">
<title>Node1&#45;&gt;Node2</title>
<path fill="none" stroke="midnightblue" d="M135.82,-275.51C127.08,-261.7 118.42,-247.59 110.5,-234 95.77,-208.73 80.65,-179.47 69.27,-156.66"/>
<polygon fill="none" stroke="midnightblue" points="132.94,-277.51 141.26,-284.07 138.84,-273.75 132.94,-277.51"/>
</g>
<!-- Node3 -->
<g id="node3" class="node">
<title>Node3</title>
<g id="a_node3"><a xlink:href="../../da/df9/classrm_1_1GyroGroup.html" target="_top" xlink:title="整车状态序列组">
<polygon fill="white" stroke="black" points="119.5,-0.5 119.5,-233.5 285.5,-233.5 285.5,-0.5 119.5,-0.5"/>
<text text-anchor="middle" x="202.5" y="-221.5" font-family="Helvetica,sans-Serif" font-size="10.00">rm::GyroGroup</text>
<polyline fill="none" stroke="black" points="119.5,-214.5 285.5,-214.5 "/>
<text text-anchor="middle" x="202.5" y="-202.5" font-family="Helvetica,sans-Serif" font-size="10.00"> </text>
<polyline fill="none" stroke="black" points="119.5,-195.5 285.5,-195.5 "/>
<text text-anchor="start" x="127.5" y="-183.5" font-family="Helvetica,sans-Serif" font-size="10.00">+ GyroGroup()</text>
<text text-anchor="start" x="127.5" y="-172.5" font-family="Helvetica,sans-Serif" font-size="10.00">+ GyroGroup()</text>
<text text-anchor="start" x="127.5" y="-161.5" font-family="Helvetica,sans-Serif" font-size="10.00">+ GyroGroup()</text>
<text text-anchor="start" x="127.5" y="-150.5" font-family="Helvetica,sans-Serif" font-size="10.00">+ GyroGroup()</text>
<text text-anchor="start" x="127.5" y="-139.5" font-family="Helvetica,sans-Serif" font-size="10.00">+ sync()</text>
<text text-anchor="start" x="127.5" y="-128.5" font-family="Helvetica,sans-Serif" font-size="10.00">+ getTrackerState()</text>
<text text-anchor="start" x="127.5" y="-117.5" font-family="Helvetica,sans-Serif" font-size="10.00">+ getCenter3D()</text>
<text text-anchor="start" x="127.5" y="-106.5" font-family="Helvetica,sans-Serif" font-size="10.00">+ getSpeed3D()</text>
<text text-anchor="start" x="127.5" y="-95.5" font-family="Helvetica,sans-Serif" font-size="10.00">+ getRotatedSpeed()</text>
<text text-anchor="start" x="127.5" y="-84.5" font-family="Helvetica,sans-Serif" font-size="10.00">+ getGyroData()</text>
<text text-anchor="start" x="127.5" y="-73.5" font-family="Helvetica,sans-Serif" font-size="10.00">+ getRotStatus()</text>
<text text-anchor="start" x="127.5" y="-62.5" font-family="Helvetica,sans-Serif" font-size="10.00">+ make_group()</text>
<text text-anchor="start" x="127.5" y="-51.5" font-family="Helvetica,sans-Serif" font-size="10.00">+ cast()</text>
<text text-anchor="start" x="127.5" y="-40.5" font-family="Helvetica,sans-Serif" font-size="10.00">+ cast()</text>
<text text-anchor="start" x="127.5" y="-29.5" font-family="Helvetica,sans-Serif" font-size="10.00">+ calcGroupFrom3DMessage()</text>
<text text-anchor="start" x="127.5" y="-18.5" font-family="Helvetica,sans-Serif" font-size="10.00">+ constructComboForced()</text>
<text text-anchor="start" x="127.5" y="-7.5" font-family="Helvetica,sans-Serif" font-size="10.00">+ calcArmorNum()</text>
</a>
</g>
</g>
<!-- Node1&#45;&gt;Node3 -->
<g id="edge2" class="edge">
<title>Node1&#45;&gt;Node3</title>
<path fill="none" stroke="midnightblue" d="M202.5,-260.21C202.5,-251.42 202.5,-242.56 202.5,-233.77"/>
<polygon fill="none" stroke="midnightblue" points="199,-260.47 202.5,-270.47 206,-260.47 199,-260.47"/>
</g>
<!-- Node4 -->
<g id="node4" class="node">
<title>Node4</title>
<g id="a_node4"><a xlink:href="../../d2/df2/classrm_1_1RuneGroup.html" target="_top" xlink:title="神符序列组">
<polygon fill="white" stroke="black" points="304,-61 304,-173 405,-173 405,-61 304,-61"/>
<text text-anchor="middle" x="354.5" y="-161" font-family="Helvetica,sans-Serif" font-size="10.00">rm::RuneGroup</text>
<polyline fill="none" stroke="black" points="304,-154 405,-154 "/>
<text text-anchor="middle" x="354.5" y="-142" font-family="Helvetica,sans-Serif" font-size="10.00"> </text>
<polyline fill="none" stroke="black" points="304,-135 405,-135 "/>
<text text-anchor="start" x="312" y="-123" font-family="Helvetica,sans-Serif" font-size="10.00">+ RuneGroup()</text>
<text text-anchor="start" x="312" y="-112" font-family="Helvetica,sans-Serif" font-size="10.00">+ sync()</text>
<text text-anchor="start" x="312" y="-101" font-family="Helvetica,sans-Serif" font-size="10.00">+ getRawDatas()</text>
<text text-anchor="start" x="312" y="-90" font-family="Helvetica,sans-Serif" font-size="10.00">+ make_group()</text>
<text text-anchor="start" x="312" y="-79" font-family="Helvetica,sans-Serif" font-size="10.00">+ cast()</text>
<text text-anchor="start" x="312" y="-68" font-family="Helvetica,sans-Serif" font-size="10.00">+ cast()</text>
</a>
</g>
</g>
<!-- Node1&#45;&gt;Node4 -->
<g id="edge3" class="edge">
<title>Node1&#45;&gt;Node4</title>
<path fill="none" stroke="midnightblue" d="M269.18,-275.51C277.92,-261.7 286.58,-247.59 294.5,-234 305.86,-214.51 317.45,-192.65 327.38,-173.2"/>
<polygon fill="none" stroke="midnightblue" points="266.16,-273.75 263.74,-284.07 272.06,-277.51 266.16,-273.75"/>
</g>
</g>
</svg>
