<?xml version="1.0" encoding="UTF-8" standalone="no"?>
<!DOCTYPE svg PUBLIC "-//W3C//DTD SVG 1.1//EN"
 "http://www.w3.org/Graphics/SVG/1.1/DTD/svg11.dtd">
<!-- Generated by graphviz version 2.43.0 (0)
 -->
<!-- Title: rmvl/group/rune_group.h Pages: 1 -->
<svg width="1242pt" height="412pt"
 viewBox="0.00 0.00 1241.58 412.00" xmlns="http://www.w3.org/2000/svg" xmlns:xlink="http://www.w3.org/1999/xlink">
<g id="graph0" class="graph" transform="scale(1 1) rotate(0) translate(4 408)">
<title>rmvl/group/rune_group.h</title>
<!-- Node1 -->
<g id="Node000001" class="node">
<title>Node1</title>
<g id="a_Node000001"><a xlink:title="神符序列组头文件">
<polygon fill="#999999" stroke="#666666" points="726,-404 589,-404 589,-385 726,-385 726,-404"/>
<text text-anchor="middle" x="657.5" y="-392" font-family="Helvetica,sans-Serif" font-size="10.00">rmvl/group/rune_group.h</text>
</a>
</g>
</g>
<!-- Node2 -->
<g id="Node000002" class="node">
<title>Node2</title>
<g id="a_Node000002"><a xlink:href="../../d9/dd1/group_8h.html" target="_top" xlink:title="序列组抽象头文件">
<polygon fill="white" stroke="#666666" points="712.5,-349 602.5,-349 602.5,-330 712.5,-330 712.5,-349"/>
<text text-anchor="middle" x="657.5" y="-337" font-family="Helvetica,sans-Serif" font-size="10.00">rmvl/group/group.h</text>
</a>
</g>
</g>
<!-- Node1&#45;&gt;Node2 -->
<g id="edge1_Node000001_Node000002" class="edge">
<title>Node1&#45;&gt;Node2</title>
<g id="a_edge1_Node000001_Node000002"><a xlink:title=" ">
<path fill="none" stroke="#63b8ff" d="M657.5,-384.75C657.5,-377.8 657.5,-367.85 657.5,-359.13"/>
<polygon fill="#63b8ff" stroke="#63b8ff" points="661,-359.09 657.5,-349.09 654,-359.09 661,-359.09"/>
</a>
</g>
</g>
<!-- Node3 -->
<g id="Node000003" class="node">
<title>Node3</title>
<g id="a_Node000003"><a xlink:href="../../dc/ded/tracker_8h.html" target="_top" xlink:title="追踪器抽象头文件">
<polygon fill="white" stroke="#666666" points="718,-294 597,-294 597,-275 718,-275 718,-294"/>
<text text-anchor="middle" x="657.5" y="-282" font-family="Helvetica,sans-Serif" font-size="10.00">rmvl/tracker/tracker.h</text>
</a>
</g>
</g>
<!-- Node2&#45;&gt;Node3 -->
<g id="edge2_Node000002_Node000003" class="edge">
<title>Node2&#45;&gt;Node3</title>
<g id="a_edge2_Node000002_Node000003"><a xlink:title=" ">
<path fill="none" stroke="#63b8ff" d="M657.5,-329.75C657.5,-322.8 657.5,-312.85 657.5,-304.13"/>
<polygon fill="#63b8ff" stroke="#63b8ff" points="661,-304.09 657.5,-294.09 654,-304.09 661,-304.09"/>
</a>
</g>
</g>
<!-- Node4 -->
<g id="Node000004" class="node">
<title>Node4</title>
<g id="a_Node000004"><a xlink:title=" ">
<polygon fill="#e0e0e0" stroke="#999999" points="630,-239 583,-239 583,-220 630,-220 630,-239"/>
<text text-anchor="middle" x="606.5" y="-227" font-family="Helvetica,sans-Serif" font-size="10.00">deque</text>
</a>
</g>
</g>
<!-- Node3&#45;&gt;Node4 -->
<g id="edge3_Node000003_Node000004" class="edge">
<title>Node3&#45;&gt;Node4</title>
<g id="a_edge3_Node000003_Node000004"><a xlink:title=" ">
<path fill="none" stroke="#63b8ff" d="M649.08,-274.75C641.73,-267.11 630.87,-255.82 621.96,-246.56"/>
<polygon fill="#63b8ff" stroke="#63b8ff" points="624.22,-243.87 614.76,-239.09 619.18,-248.72 624.22,-243.87"/>
</a>
</g>
</g>
<!-- Node5 -->
<g id="Node000005" class="node">
<title>Node5</title>
<g id="a_Node000005"><a xlink:href="../../d8/d36/combo_8h.html" target="_top" xlink:title="the combination of the features header file">
<polygon fill="white" stroke="#666666" points="768.5,-239 648.5,-239 648.5,-220 768.5,-220 768.5,-239"/>
<text text-anchor="middle" x="708.5" y="-227" font-family="Helvetica,sans-Serif" font-size="10.00">rmvl/combo/combo.h</text>
</a>
</g>
</g>
<!-- Node3&#45;&gt;Node5 -->
<g id="edge4_Node000003_Node000005" class="edge">
<title>Node3&#45;&gt;Node5</title>
<g id="a_edge4_Node000003_Node000005"><a xlink:title=" ">
<path fill="none" stroke="#63b8ff" d="M665.92,-274.75C673.27,-267.11 684.13,-255.82 693.04,-246.56"/>
<polygon fill="#63b8ff" stroke="#63b8ff" points="695.82,-248.72 700.24,-239.09 690.78,-243.87 695.82,-248.72"/>
</a>
</g>
</g>
<!-- Node6 -->
<g id="Node000006" class="node">
<title>Node6</title>
<g id="a_Node000006"><a xlink:href="../../d4/d78/math_8hpp.html" target="_top" xlink:title="基础数学库">
<polygon fill="white" stroke="#666666" points="392,-184 253,-184 253,-165 392,-165 392,-184"/>
<text text-anchor="middle" x="322.5" y="-172" font-family="Helvetica,sans-Serif" font-size="10.00">rmvl/algorithm/math.hpp</text>
</a>
</g>
</g>
<!-- Node5&#45;&gt;Node6 -->
<g id="edge5_Node000005_Node000006" class="edge">
<title>Node5&#45;&gt;Node6</title>
<g id="a_edge5_Node000005_Node000006"><a xlink:title=" ">
<path fill="none" stroke="#63b8ff" d="M648.19,-220.22C579.64,-210.81 467.8,-195.45 394.68,-185.41"/>
<polygon fill="#63b8ff" stroke="#63b8ff" points="395.01,-181.92 384.62,-184.03 394.06,-188.86 395.01,-181.92"/>
</a>
</g>
</g>
<!-- Node18 -->
<g id="Node000018" class="node">
<title>Node18</title>
<g id="a_Node000018"><a xlink:href="../../d3/d7e/camutils_8hpp.html" target="_top" xlink:title=" ">
<polygon fill="white" stroke="#666666" points="601,-184 456,-184 456,-165 601,-165 601,-184"/>
<text text-anchor="middle" x="528.5" y="-172" font-family="Helvetica,sans-Serif" font-size="10.00">rmvl/camera/camutils.hpp</text>
</a>
</g>
</g>
<!-- Node5&#45;&gt;Node18 -->
<g id="edge17_Node000005_Node000018" class="edge">
<title>Node5&#45;&gt;Node18</title>
<g id="a_edge17_Node000005_Node000018"><a xlink:title=" ">
<path fill="none" stroke="#63b8ff" d="M679.58,-219.98C649.23,-211.05 601.33,-196.94 567.62,-187.02"/>
<polygon fill="#63b8ff" stroke="#63b8ff" points="568.23,-183.55 557.65,-184.08 566.25,-190.26 568.23,-183.55"/>
</a>
</g>
</g>
<!-- Node20 -->
<g id="Node000020" class="node">
<title>Node20</title>
<g id="a_Node000020"><a xlink:href="../../dd/de3/types_8hpp.html" target="_top" xlink:title="常用状态类型定义">
<polygon fill="white" stroke="#666666" points="753.5,-129 663.5,-129 663.5,-110 753.5,-110 753.5,-129"/>
<text text-anchor="middle" x="708.5" y="-117" font-family="Helvetica,sans-Serif" font-size="10.00">rmvl/types.hpp</text>
</a>
</g>
</g>
<!-- Node5&#45;&gt;Node20 -->
<g id="edge20_Node000005_Node000020" class="edge">
<title>Node5&#45;&gt;Node20</title>
<g id="a_edge20_Node000005_Node000020"><a xlink:title=" ">
<path fill="none" stroke="#63b8ff" d="M708.5,-219.66C708.5,-202.17 708.5,-162.8 708.5,-139.27"/>
<polygon fill="#63b8ff" stroke="#63b8ff" points="712,-139.16 708.5,-129.16 705,-139.16 712,-139.16"/>
</a>
</g>
</g>
<!-- Node21 -->
<g id="Node000021" class="node">
<title>Node21</title>
<g id="a_Node000021"><a xlink:href="../../d2/dc6/io_8hpp.html" target="_top" xlink:title="数据 IO 与通信模块">
<polygon fill="white" stroke="#666666" points="1100.5,-184 1004.5,-184 1004.5,-165 1100.5,-165 1100.5,-184"/>
<text text-anchor="middle" x="1052.5" y="-172" font-family="Helvetica,sans-Serif" font-size="10.00">rmvl/core/io.hpp</text>
</a>
</g>
</g>
<!-- Node5&#45;&gt;Node21 -->
<g id="edge22_Node000005_Node000021" class="edge">
<title>Node5&#45;&gt;Node21</title>
<g id="a_edge22_Node000005_Node000021"><a xlink:title=" ">
<path fill="none" stroke="#63b8ff" d="M763.77,-219.98C826.96,-210.25 929.94,-194.38 994.32,-184.46"/>
<polygon fill="#63b8ff" stroke="#63b8ff" points="994.96,-187.91 1004.31,-182.92 993.89,-180.99 994.96,-187.91"/>
</a>
</g>
</g>
<!-- Node26 -->
<g id="Node000026" class="node">
<title>Node26</title>
<g id="a_Node000026"><a xlink:href="../../d2/d74/feature_8h.html" target="_top" xlink:title="feature class header">
<polygon fill="white" stroke="#666666" points="882,-184 757,-184 757,-165 882,-165 882,-184"/>
<text text-anchor="middle" x="819.5" y="-172" font-family="Helvetica,sans-Serif" font-size="10.00">rmvl/feature/feature.h</text>
</a>
</g>
</g>
<!-- Node5&#45;&gt;Node26 -->
<g id="edge30_Node000005_Node000026" class="edge">
<title>Node5&#45;&gt;Node26</title>
<g id="a_edge30_Node000005_Node000026"><a xlink:title=" ">
<path fill="none" stroke="#63b8ff" d="M726.33,-219.98C744.11,-211.5 771.65,-198.35 792.18,-188.54"/>
<polygon fill="#63b8ff" stroke="#63b8ff" points="793.83,-191.64 801.34,-184.17 790.81,-185.32 793.83,-191.64"/>
</a>
</g>
</g>
<!-- Node7 -->
<g id="Node000007" class="node">
<title>Node7</title>
<g id="a_Node000007"><a xlink:title=" ">
<polygon fill="#e0e0e0" stroke="#999999" points="346,-129 299,-129 299,-110 346,-110 346,-129"/>
<text text-anchor="middle" x="322.5" y="-117" font-family="Helvetica,sans-Serif" font-size="10.00">cmath</text>
</a>
</g>
</g>
<!-- Node6&#45;&gt;Node7 -->
<g id="edge6_Node000006_Node000007" class="edge">
<title>Node6&#45;&gt;Node7</title>
<g id="a_edge6_Node000006_Node000007"><a xlink:title=" ">
<path fill="none" stroke="#63b8ff" d="M322.5,-164.75C322.5,-157.8 322.5,-147.85 322.5,-139.13"/>
<polygon fill="#63b8ff" stroke="#63b8ff" points="326,-139.09 322.5,-129.09 319,-139.09 326,-139.09"/>
</a>
</g>
</g>
<!-- Node8 -->
<g id="Node000008" class="node">
<title>Node8</title>
<g id="a_Node000008"><a xlink:title=" ">
<polygon fill="#e0e0e0" stroke="#999999" points="420.5,-129 364.5,-129 364.5,-110 420.5,-110 420.5,-129"/>
<text text-anchor="middle" x="392.5" y="-117" font-family="Helvetica,sans-Serif" font-size="10.00">numeric</text>
</a>
</g>
</g>
<!-- Node6&#45;&gt;Node8 -->
<g id="edge7_Node000006_Node000008" class="edge">
<title>Node6&#45;&gt;Node8</title>
<g id="a_edge7_Node000006_Node000008"><a xlink:title=" ">
<path fill="none" stroke="#63b8ff" d="M333.75,-164.98C344.3,-157 360.3,-144.88 372.94,-135.31"/>
<polygon fill="#63b8ff" stroke="#63b8ff" points="375.19,-138 381.05,-129.17 370.96,-132.42 375.19,-138"/>
</a>
</g>
</g>
<!-- Node9 -->
<g id="Node000009" class="node">
<title>Node9</title>
<g id="a_Node000009"><a xlink:title=" ">
<polygon fill="#e0e0e0" stroke="#999999" points="93,-129 0,-129 0,-110 93,-110 93,-129"/>
<text text-anchor="middle" x="46.5" y="-117" font-family="Helvetica,sans-Serif" font-size="10.00">unordered_map</text>
</a>
</g>
</g>
<!-- Node6&#45;&gt;Node9 -->
<g id="edge8_Node000006_Node000009" class="edge">
<title>Node6&#45;&gt;Node9</title>
<g id="a_edge8_Node000006_Node000009"><a xlink:title=" ">
<path fill="none" stroke="#63b8ff" d="M278.16,-164.98C230.01,-155.74 153.08,-140.97 101.21,-131.01"/>
<polygon fill="#63b8ff" stroke="#63b8ff" points="101.67,-127.53 91.19,-129.08 100.35,-134.41 101.67,-127.53"/>
</a>
</g>
</g>
<!-- Node10 -->
<g id="Node000010" class="node">
<title>Node10</title>
<g id="a_Node000010"><a xlink:title=" ">
<polygon fill="#e0e0e0" stroke="#999999" points="645,-129 598,-129 598,-110 645,-110 645,-129"/>
<text text-anchor="middle" x="621.5" y="-117" font-family="Helvetica,sans-Serif" font-size="10.00">vector</text>
</a>
</g>
</g>
<!-- Node6&#45;&gt;Node10 -->
<g id="edge9_Node000006_Node000010" class="edge">
<title>Node6&#45;&gt;Node10</title>
<g id="a_edge9_Node000006_Node000010"><a xlink:title=" ">
<path fill="none" stroke="#63b8ff" d="M382.47,-164.98C434.34,-157.27 511.54,-144.97 587.97,-128.95"/>
<polygon fill="#63b8ff" stroke="#63b8ff" points="588.71,-132.37 597.76,-126.87 587.26,-125.52 588.71,-132.37"/>
</a>
</g>
</g>
<!-- Node11 -->
<g id="Node000011" class="node">
<title>Node11</title>
<g id="a_Node000011"><a xlink:title=" ">
<polygon fill="#e0e0e0" stroke="#999999" points="281,-129 150,-129 150,-110 281,-110 281,-129"/>
<text text-anchor="middle" x="215.5" y="-117" font-family="Helvetica,sans-Serif" font-size="10.00">opencv2/core/matx.hpp</text>
</a>
</g>
</g>
<!-- Node6&#45;&gt;Node11 -->
<g id="edge10_Node000006_Node000011" class="edge">
<title>Node6&#45;&gt;Node11</title>
<g id="a_edge10_Node000006_Node000011"><a xlink:title=" ">
<path fill="none" stroke="#63b8ff" d="M305.31,-164.98C288.25,-156.54 261.87,-143.47 242.1,-133.68"/>
<polygon fill="#63b8ff" stroke="#63b8ff" points="243.52,-130.47 233,-129.17 240.41,-136.75 243.52,-130.47"/>
</a>
</g>
</g>
<!-- Node12 -->
<g id="Node000012" class="node">
<title>Node12</title>
<g id="a_Node000012"><a xlink:href="../../d0/d3f/util_8hpp.html" target="_top" xlink:title=" ">
<polygon fill="white" stroke="#666666" points="420,-74 317,-74 317,-55 420,-55 420,-74"/>
<text text-anchor="middle" x="368.5" y="-62" font-family="Helvetica,sans-Serif" font-size="10.00">rmvl/core/util.hpp</text>
</a>
</g>
</g>
<!-- Node6&#45;&gt;Node12 -->
<g id="edge11_Node000006_Node000012" class="edge">
<title>Node6&#45;&gt;Node12</title>
<g id="a_edge11_Node000006_Node000012"><a xlink:title=" ">
<path fill="none" stroke="#63b8ff" d="M252.96,-171.03C188.07,-166.16 106.03,-151.85 140.5,-110 161.19,-84.88 246.43,-73.74 306.6,-68.95"/>
<polygon fill="#63b8ff" stroke="#63b8ff" points="307.06,-72.42 316.77,-68.18 306.53,-65.44 307.06,-72.42"/>
</a>
</g>
</g>
<!-- Node13 -->
<g id="Node000013" class="node">
<title>Node13</title>
<g id="a_Node000013"><a xlink:title=" ">
<polygon fill="#e0e0e0" stroke="#999999" points="292,-19 159,-19 159,0 292,0 292,-19"/>
<text text-anchor="middle" x="225.5" y="-7" font-family="Helvetica,sans-Serif" font-size="10.00">rmvl/rmvl_modules.hpp</text>
</a>
</g>
</g>
<!-- Node12&#45;&gt;Node13 -->
<g id="edge12_Node000012_Node000013" class="edge">
<title>Node12&#45;&gt;Node13</title>
<g id="a_edge12_Node000012_Node000013"><a xlink:title=" ">
<path fill="none" stroke="#63b8ff" d="M345.52,-54.98C322,-46.27 285.21,-32.63 258.56,-22.75"/>
<polygon fill="#63b8ff" stroke="#63b8ff" points="259.49,-19.36 248.89,-19.17 257.05,-25.93 259.49,-19.36"/>
</a>
</g>
</g>
<!-- Node14 -->
<g id="Node000014" class="node">
<title>Node14</title>
<g id="a_Node000014"><a xlink:title=" ">
<polygon fill="#e0e0e0" stroke="#999999" points="360.5,-19 310.5,-19 310.5,0 360.5,0 360.5,-19"/>
<text text-anchor="middle" x="335.5" y="-7" font-family="Helvetica,sans-Serif" font-size="10.00">cstdint</text>
</a>
</g>
</g>
<!-- Node12&#45;&gt;Node14 -->
<g id="edge13_Node000012_Node000014" class="edge">
<title>Node12&#45;&gt;Node14</title>
<g id="a_edge13_Node000012_Node000014"><a xlink:title=" ">
<path fill="none" stroke="#63b8ff" d="M363.05,-54.75C358.49,-47.42 351.83,-36.73 346.21,-27.7"/>
<polygon fill="#63b8ff" stroke="#63b8ff" points="349.1,-25.73 340.85,-19.09 343.16,-29.43 349.1,-25.73"/>
</a>
</g>
</g>
<!-- Node15 -->
<g id="Node000015" class="node">
<title>Node15</title>
<g id="a_Node000015"><a xlink:title=" ">
<polygon fill="#e0e0e0" stroke="#999999" points="424.5,-19 378.5,-19 378.5,0 424.5,0 424.5,-19"/>
<text text-anchor="middle" x="401.5" y="-7" font-family="Helvetica,sans-Serif" font-size="10.00">cstdio</text>
</a>
</g>
</g>
<!-- Node12&#45;&gt;Node15 -->
<g id="edge14_Node000012_Node000015" class="edge">
<title>Node12&#45;&gt;Node15</title>
<g id="a_edge14_Node000012_Node000015"><a xlink:title=" ">
<path fill="none" stroke="#63b8ff" d="M373.95,-54.75C378.51,-47.42 385.17,-36.73 390.79,-27.7"/>
<polygon fill="#63b8ff" stroke="#63b8ff" points="393.84,-29.43 396.15,-19.09 387.9,-25.73 393.84,-29.43"/>
</a>
</g>
</g>
<!-- Node16 -->
<g id="Node000016" class="node">
<title>Node16</title>
<g id="a_Node000016"><a xlink:title=" ">
<polygon fill="#e0e0e0" stroke="#999999" points="486.5,-19 442.5,-19 442.5,0 486.5,0 486.5,-19"/>
<text text-anchor="middle" x="464.5" y="-7" font-family="Helvetica,sans-Serif" font-size="10.00">string</text>
</a>
</g>
</g>
<!-- Node12&#45;&gt;Node16 -->
<g id="edge15_Node000012_Node000016" class="edge">
<title>Node12&#45;&gt;Node16</title>
<g id="a_edge15_Node000012_Node000016"><a xlink:title=" ">
<path fill="none" stroke="#63b8ff" d="M383.92,-54.98C398.95,-46.69 422.04,-33.94 439.66,-24.22"/>
<polygon fill="#63b8ff" stroke="#63b8ff" points="441.73,-27.07 448.8,-19.17 438.35,-20.94 441.73,-27.07"/>
</a>
</g>
</g>
<!-- Node17 -->
<g id="Node000017" class="node">
<title>Node17</title>
<g id="a_Node000017"><a xlink:href="../../db/d41/rmvldef_8hpp.html" target="_top" xlink:title=" ">
<polygon fill="white" stroke="#666666" points="580,-19 505,-19 505,0 580,0 580,-19"/>
<text text-anchor="middle" x="542.5" y="-7" font-family="Helvetica,sans-Serif" font-size="10.00">rmvldef.hpp</text>
</a>
</g>
</g>
<!-- Node12&#45;&gt;Node17 -->
<g id="edge16_Node000012_Node000017" class="edge">
<title>Node12&#45;&gt;Node17</title>
<g id="a_edge16_Node000012_Node000017"><a xlink:title=" ">
<path fill="none" stroke="#63b8ff" d="M396.46,-54.98C425.8,-46.05 472.1,-31.94 504.69,-22.02"/>
<polygon fill="#63b8ff" stroke="#63b8ff" points="505.78,-25.34 514.32,-19.08 503.74,-18.65 505.78,-25.34"/>
</a>
</g>
</g>
<!-- Node18&#45;&gt;Node17 -->
<g id="edge19_Node000018_Node000017" class="edge">
<title>Node18&#45;&gt;Node17</title>
<g id="a_edge19_Node000018_Node000017"><a xlink:title=" ">
<path fill="none" stroke="#63b8ff" d="M508.3,-164.91C494.03,-157.64 475.99,-145.71 467.5,-129 463.67,-121.47 464.82,-118.01 467.5,-110 478.81,-76.2 506.63,-44.69 525.02,-26.53"/>
<polygon fill="#63b8ff" stroke="#63b8ff" points="527.91,-28.6 532.72,-19.16 523.07,-23.55 527.91,-28.6"/>
</a>
</g>
</g>
<!-- Node19 -->
<g id="Node000019" class="node">
<title>Node19</title>
<g id="a_Node000019"><a xlink:title=" ">
<polygon fill="#e0e0e0" stroke="#999999" points="580,-129 477,-129 477,-110 580,-110 580,-129"/>
<text text-anchor="middle" x="528.5" y="-117" font-family="Helvetica,sans-Serif" font-size="10.00">opencv2/core.hpp</text>
</a>
</g>
</g>
<!-- Node18&#45;&gt;Node19 -->
<g id="edge18_Node000018_Node000019" class="edge">
<title>Node18&#45;&gt;Node19</title>
<g id="a_edge18_Node000018_Node000019"><a xlink:title=" ">
<path fill="none" stroke="#63b8ff" d="M528.5,-164.75C528.5,-157.8 528.5,-147.85 528.5,-139.13"/>
<polygon fill="#63b8ff" stroke="#63b8ff" points="532,-139.09 528.5,-129.09 525,-139.09 532,-139.09"/>
</a>
</g>
</g>
<!-- Node20&#45;&gt;Node12 -->
<g id="edge21_Node000020_Node000012" class="edge">
<title>Node20&#45;&gt;Node12</title>
<g id="a_edge21_Node000020_Node000012"><a xlink:title=" ">
<path fill="none" stroke="#63b8ff" d="M663.35,-111.46C603.47,-102.13 497.54,-85.61 430.28,-75.13"/>
<polygon fill="#63b8ff" stroke="#63b8ff" points="430.66,-71.65 420.24,-73.57 429.58,-78.56 430.66,-71.65"/>
</a>
</g>
</g>
<!-- Node21&#45;&gt;Node10 -->
<g id="edge28_Node000021_Node000010" class="edge">
<title>Node21&#45;&gt;Node10</title>
<g id="a_edge28_Node000021_Node000010"><a xlink:title=" ">
<path fill="none" stroke="#63b8ff" d="M1004.4,-170.32C931.08,-164.99 786.9,-152.62 655.08,-128.84"/>
<polygon fill="#63b8ff" stroke="#63b8ff" points="655.67,-125.39 645.2,-127.03 654.41,-132.27 655.67,-125.39"/>
</a>
</g>
</g>
<!-- Node21&#45;&gt;Node16 -->
<g id="edge27_Node000021_Node000016" class="edge">
<title>Node21&#45;&gt;Node16</title>
<g id="a_edge27_Node000021_Node000016"><a xlink:title=" ">
<path fill="none" stroke="#63b8ff" d="M1100.73,-167.17C1148.95,-158.92 1212.24,-141.65 1184.5,-110 1084.73,3.81 664.19,-47.44 496.71,-18.85"/>
<polygon fill="#63b8ff" stroke="#63b8ff" points="497.24,-15.39 486.76,-16.99 495.95,-22.27 497.24,-15.39"/>
</a>
</g>
</g>
<!-- Node21&#45;&gt;Node17 -->
<g id="edge29_Node000021_Node000017" class="edge">
<title>Node21&#45;&gt;Node17</title>
<g id="a_edge29_Node000021_Node000017"><a xlink:title=" ">
<path fill="none" stroke="#63b8ff" d="M1100.67,-167.04C1144.11,-160.12 1203.29,-147.55 1217.5,-129 1237.5,-102.89 1239.98,-79.01 1217.5,-55 1174.83,-9.42 737.31,-8.86 590.35,-9.98"/>
<polygon fill="#63b8ff" stroke="#63b8ff" points="590.25,-6.48 580.28,-10.06 590.31,-13.48 590.25,-6.48"/>
</a>
</g>
</g>
<!-- Node22 -->
<g id="Node000022" class="node">
<title>Node22</title>
<g id="a_Node000022"><a xlink:title=" ">
<polygon fill="#e0e0e0" stroke="#999999" points="1041.5,-129 999.5,-129 999.5,-110 1041.5,-110 1041.5,-129"/>
<text text-anchor="middle" x="1020.5" y="-117" font-family="Helvetica,sans-Serif" font-size="10.00">array</text>
</a>
</g>
</g>
<!-- Node21&#45;&gt;Node22 -->
<g id="edge23_Node000021_Node000022" class="edge">
<title>Node21&#45;&gt;Node22</title>
<g id="a_edge23_Node000021_Node000022"><a xlink:title=" ">
<path fill="none" stroke="#63b8ff" d="M1047.22,-164.75C1042.79,-157.42 1036.34,-146.73 1030.88,-137.7"/>
<polygon fill="#63b8ff" stroke="#63b8ff" points="1033.85,-135.84 1025.69,-129.09 1027.86,-139.46 1033.85,-135.84"/>
</a>
</g>
</g>
<!-- Node23 -->
<g id="Node000023" class="node">
<title>Node23</title>
<g id="a_Node000023"><a xlink:title=" ">
<polygon fill="#e0e0e0" stroke="#999999" points="1109.5,-129 1059.5,-129 1059.5,-110 1109.5,-110 1109.5,-129"/>
<text text-anchor="middle" x="1084.5" y="-117" font-family="Helvetica,sans-Serif" font-size="10.00">cstring</text>
</a>
</g>
</g>
<!-- Node21&#45;&gt;Node23 -->
<g id="edge24_Node000021_Node000023" class="edge">
<title>Node21&#45;&gt;Node23</title>
<g id="a_edge24_Node000021_Node000023"><a xlink:title=" ">
<path fill="none" stroke="#63b8ff" d="M1057.78,-164.75C1062.21,-157.42 1068.66,-146.73 1074.12,-137.7"/>
<polygon fill="#63b8ff" stroke="#63b8ff" points="1077.14,-139.46 1079.31,-129.09 1071.15,-135.84 1077.14,-139.46"/>
</a>
</g>
</g>
<!-- Node24 -->
<g id="Node000024" class="node">
<title>Node24</title>
<g id="a_Node000024"><a xlink:title=" ">
<polygon fill="#e0e0e0" stroke="#999999" points="1175.5,-129 1127.5,-129 1127.5,-110 1175.5,-110 1175.5,-129"/>
<text text-anchor="middle" x="1151.5" y="-117" font-family="Helvetica,sans-Serif" font-size="10.00">iosfwd</text>
</a>
</g>
</g>
<!-- Node21&#45;&gt;Node24 -->
<g id="edge25_Node000021_Node000024" class="edge">
<title>Node21&#45;&gt;Node24</title>
<g id="a_edge25_Node000021_Node000024"><a xlink:title=" ">
<path fill="none" stroke="#63b8ff" d="M1068.41,-164.98C1084.05,-156.61 1108.16,-143.7 1126.38,-133.95"/>
<polygon fill="#63b8ff" stroke="#63b8ff" points="1128.14,-136.98 1135.3,-129.17 1124.84,-130.8 1128.14,-136.98"/>
</a>
</g>
</g>
<!-- Node25 -->
<g id="Node000025" class="node">
<title>Node25</title>
<g id="a_Node000025"><a xlink:title=" ">
<polygon fill="#e0e0e0" stroke="#999999" points="981.5,-129 923.5,-129 923.5,-110 981.5,-110 981.5,-129"/>
<text text-anchor="middle" x="952.5" y="-117" font-family="Helvetica,sans-Serif" font-size="10.00">memory</text>
</a>
</g>
</g>
<!-- Node21&#45;&gt;Node25 -->
<g id="edge26_Node000021_Node000025" class="edge">
<title>Node21&#45;&gt;Node25</title>
<g id="a_edge26_Node000021_Node000025"><a xlink:title=" ">
<path fill="none" stroke="#63b8ff" d="M1036.43,-164.98C1020.64,-156.61 996.28,-143.7 977.87,-133.95"/>
<polygon fill="#63b8ff" stroke="#63b8ff" points="979.33,-130.76 968.86,-129.17 976.06,-136.95 979.33,-130.76"/>
</a>
</g>
</g>
<!-- Node26&#45;&gt;Node20 -->
<g id="edge33_Node000026_Node000020" class="edge">
<title>Node26&#45;&gt;Node20</title>
<g id="a_edge33_Node000026_Node000020"><a xlink:title=" ">
<path fill="none" stroke="#63b8ff" d="M801.67,-164.98C783.89,-156.5 756.35,-143.35 735.82,-133.54"/>
<polygon fill="#63b8ff" stroke="#63b8ff" points="737.19,-130.32 726.66,-129.17 734.17,-136.64 737.19,-130.32"/>
</a>
</g>
</g>
<!-- Node26&#45;&gt;Node25 -->
<g id="edge31_Node000026_Node000025" class="edge">
<title>Node26&#45;&gt;Node25</title>
<g id="a_edge31_Node000026_Node000025"><a xlink:title=" ">
<path fill="none" stroke="#63b8ff" d="M840.87,-164.98C862.65,-156.3 896.66,-142.75 921.42,-132.88"/>
<polygon fill="#63b8ff" stroke="#63b8ff" points="922.75,-136.12 930.74,-129.17 920.16,-129.62 922.75,-136.12"/>
</a>
</g>
</g>
<!-- Node27 -->
<g id="Node000027" class="node">
<title>Node27</title>
<g id="a_Node000027"><a xlink:title=" ">
<polygon fill="#e0e0e0" stroke="#999999" points="905,-129 772,-129 772,-110 905,-110 905,-129"/>
<text text-anchor="middle" x="838.5" y="-117" font-family="Helvetica,sans-Serif" font-size="10.00">opencv2/core/types.hpp</text>
</a>
</g>
</g>
<!-- Node26&#45;&gt;Node27 -->
<g id="edge32_Node000026_Node000027" class="edge">
<title>Node26&#45;&gt;Node27</title>
<g id="a_edge32_Node000026_Node000027"><a xlink:title=" ">
<path fill="none" stroke="#63b8ff" d="M822.64,-164.75C825.18,-157.65 828.86,-147.4 832.03,-138.56"/>
<polygon fill="#63b8ff" stroke="#63b8ff" points="835.34,-139.68 835.42,-129.09 828.75,-137.32 835.34,-139.68"/>
</a>
</g>
</g>
</g>
</svg>
