<?xml version="1.0" encoding="UTF-8" standalone="no"?>
<!DOCTYPE svg PUBLIC "-//W3C//DTD SVG 1.1//EN"
 "http://www.w3.org/Graphics/SVG/1.1/DTD/svg11.dtd">
<!-- Generated by graphviz version 2.43.0 (0)
 -->
<!-- Title: rm::Pilot Pages: 1 -->
<svg width="348pt" height="798pt"
 viewBox="0.00 0.00 347.50 798.00" xmlns="http://www.w3.org/2000/svg" xmlns:xlink="http://www.w3.org/1999/xlink">
<g id="graph0" class="graph" transform="scale(1 1) rotate(0) translate(4 794)">
<title>rm::Pilot</title>
<!-- Node1 -->
<g id="Node000001" class="node">
<title>Node1</title>
<g id="a_Node000001"><a xlink:title="前哨、基地的引导灯">
<polygon fill="#999999" stroke="transparent" points="147,-109 62,-109 62,0 147,0 147,-109"/>
<text text-anchor="start" x="86.5" y="-96.5" font-family="Helvetica,sans-Serif" font-size="10.00">rm::Pilot</text>
<text text-anchor="start" x="103" y="-81.5" font-family="Helvetica,sans-Serif" font-size="10.00"> </text>
<text text-anchor="start" x="66.5" y="-66.5" font-family="Helvetica,sans-Serif" font-size="10.00">+</text>
<text text-anchor="start" x="77.5" y="-66.5" font-family="Helvetica,sans-Serif" font-size="10.00">clone()</text>
<text text-anchor="start" x="66.5" y="-51.5" font-family="Helvetica,sans-Serif" font-size="10.00">+</text>
<text text-anchor="start" x="77.5" y="-51.5" font-family="Helvetica,sans-Serif" font-size="10.00">make_feature()</text>
<text text-anchor="start" x="66.5" y="-36.5" font-family="Helvetica,sans-Serif" font-size="10.00">+</text>
<text text-anchor="start" x="77.5" y="-36.5" font-family="Helvetica,sans-Serif" font-size="10.00">make_feature()</text>
<text text-anchor="start" x="66.5" y="-21.5" font-family="Helvetica,sans-Serif" font-size="10.00">+</text>
<text text-anchor="start" x="77.5" y="-21.5" font-family="Helvetica,sans-Serif" font-size="10.00">cast()</text>
<text text-anchor="start" x="66.5" y="-6.5" font-family="Helvetica,sans-Serif" font-size="10.00">+</text>
<text text-anchor="start" x="77.5" y="-6.5" font-family="Helvetica,sans-Serif" font-size="10.00">cast()</text>
<polygon fill="#666666" stroke="#666666" points="62.5,-91.5 62.5,-91.5 147.5,-91.5 147.5,-91.5 62.5,-91.5"/>
<polygon fill="#666666" stroke="#666666" points="62.5,-76.5 62.5,-76.5 147.5,-76.5 147.5,-76.5 62.5,-76.5"/>
<polygon fill="none" stroke="#666666" points="62,0 62,-109 147,-109 147,0 62,0"/>
</a>
</g>
</g>
<!-- Node2 -->
<g id="Node000002" class="node">
<title>Node2</title>
<g id="a_Node000002"><a xlink:href="../../df/db7/classrm_1_1feature.html" target="_top" xlink:title="图像中的轮廓特征">
<polygon fill="white" stroke="transparent" points="133.5,-315 75.5,-315 75.5,-146 133.5,-146 133.5,-315"/>
<text text-anchor="start" x="80.5" y="-302.5" font-family="Helvetica,sans-Serif" font-size="10.00">rm::feature</text>
<text text-anchor="start" x="102.5" y="-287.5" font-family="Helvetica,sans-Serif" font-size="10.00"> </text>
<text text-anchor="start" x="79.5" y="-272.5" font-family="Helvetica,sans-Serif" font-size="10.00">+</text>
<text text-anchor="start" x="90.5" y="-272.5" font-family="Helvetica,sans-Serif" font-size="10.00">clone()</text>
<text text-anchor="start" x="79.5" y="-257.5" font-family="Helvetica,sans-Serif" font-size="10.00">+</text>
<text text-anchor="start" x="90.5" y="-257.5" font-family="Helvetica,sans-Serif" font-size="10.00">area()</text>
<text text-anchor="start" x="79.5" y="-242.5" font-family="Helvetica,sans-Serif" font-size="10.00">+</text>
<text text-anchor="start" x="90.5" y="-242.5" font-family="Helvetica,sans-Serif" font-size="10.00">center()</text>
<text text-anchor="start" x="79.5" y="-227.5" font-family="Helvetica,sans-Serif" font-size="10.00">+</text>
<text text-anchor="start" x="90.5" y="-227.5" font-family="Helvetica,sans-Serif" font-size="10.00">width()</text>
<text text-anchor="start" x="79.5" y="-212.5" font-family="Helvetica,sans-Serif" font-size="10.00">+</text>
<text text-anchor="start" x="90.5" y="-212.5" font-family="Helvetica,sans-Serif" font-size="10.00">height()</text>
<text text-anchor="start" x="79.5" y="-197.5" font-family="Helvetica,sans-Serif" font-size="10.00">+</text>
<text text-anchor="start" x="90.5" y="-197.5" font-family="Helvetica,sans-Serif" font-size="10.00">angle()</text>
<text text-anchor="start" x="79.5" y="-182.5" font-family="Helvetica,sans-Serif" font-size="10.00">+</text>
<text text-anchor="start" x="90.5" y="-182.5" font-family="Helvetica,sans-Serif" font-size="10.00">corners()</text>
<text text-anchor="start" x="79.5" y="-167.5" font-family="Helvetica,sans-Serif" font-size="10.00">+</text>
<text text-anchor="start" x="90.5" y="-167.5" font-family="Helvetica,sans-Serif" font-size="10.00">state()</text>
<text text-anchor="start" x="79.5" y="-152.5" font-family="Helvetica,sans-Serif" font-size="10.00">+</text>
<text text-anchor="start" x="90.5" y="-152.5" font-family="Helvetica,sans-Serif" font-size="10.00">state()</text>
<polygon fill="#666666" stroke="#666666" points="75.5,-297.5 75.5,-297.5 133.5,-297.5 133.5,-297.5 75.5,-297.5"/>
<polygon fill="#666666" stroke="#666666" points="75.5,-282.5 75.5,-282.5 133.5,-282.5 133.5,-282.5 75.5,-282.5"/>
<polygon fill="none" stroke="#666666" points="75.5,-146 75.5,-315 133.5,-315 133.5,-146 75.5,-146"/>
</a>
</g>
</g>
<!-- Node2&#45;&gt;Node1 -->
<g id="edge1_Node000001_Node000002" class="edge">
<title>Node2&#45;&gt;Node1</title>
<g id="a_edge1_Node000001_Node000002"><a xlink:title=" ">
<path fill="none" stroke="#63b8ff" d="M104.5,-135.67C104.5,-126.71 104.5,-117.84 104.5,-109.46"/>
<polygon fill="none" stroke="#63b8ff" points="101,-135.81 104.5,-145.81 108,-135.81 101,-135.81"/>
</a>
</g>
</g>
<!-- Node3 -->
<g id="Node000003" class="node">
<title>Node3</title>
<g id="a_Node000003"><a xlink:title=" ">
<polygon fill="white" stroke="transparent" points="29,-515.5 0,-515.5 0,-466.5 29,-466.5 29,-515.5"/>
<text text-anchor="start" x="5.5" y="-503" font-family="Helvetica,sans-Serif" font-size="10.00">float</text>
<text text-anchor="start" x="13" y="-488" font-family="Helvetica,sans-Serif" font-size="10.00"> </text>
<text text-anchor="start" x="13" y="-473" font-family="Helvetica,sans-Serif" font-size="10.00"> </text>
<polygon fill="#666666" stroke="#666666" points="0.5,-498 0.5,-498 29.5,-498 29.5,-498 0.5,-498"/>
<polygon fill="#666666" stroke="#666666" points="0.5,-483 0.5,-483 29.5,-483 29.5,-483 0.5,-483"/>
<polygon fill="none" stroke="#666666" points="0,-466.5 0,-515.5 29,-515.5 29,-466.5 0,-466.5"/>
</a>
</g>
</g>
<!-- Node3&#45;&gt;Node2 -->
<g id="edge2_Node000002_Node000003" class="edge">
<title>Node3&#45;&gt;Node2</title>
<g id="a_edge2_Node000002_Node000003"><a xlink:title=" ">
<path fill="none" stroke="#63b8ff" d="M9.69,-466.46C4.34,-434.91 -1.49,-377.72 15.5,-333 25.85,-305.77 47.13,-281.05 66.29,-262.82"/>
<polygon fill="none" stroke="#63b8ff" points="66.34,-262.78 68.06,-255.78 75.18,-254.67 73.47,-261.67 66.34,-262.78"/>
</a>
</g>
<text text-anchor="middle" x="34" y="-358" font-family="Helvetica,sans-Serif" font-size="10.00" fill="grey"> #_angle</text>
<text text-anchor="middle" x="34" y="-347" font-family="Helvetica,sans-Serif" font-size="10.00" fill="grey">#_height</text>
<text text-anchor="middle" x="34" y="-336" font-family="Helvetica,sans-Serif" font-size="10.00" fill="grey">#_width</text>
</g>
<!-- Node4 -->
<g id="Node000004" class="node">
<title>Node4</title>
<g id="a_Node000004"><a xlink:title=" ">
<polygon fill="white" stroke="transparent" points="108,-694 67,-694 67,-645 108,-645 108,-694"/>
<text text-anchor="start" x="72.5" y="-681.5" font-family="Helvetica,sans-Serif" font-size="10.00">Point2f</text>
<text text-anchor="start" x="86" y="-666.5" font-family="Helvetica,sans-Serif" font-size="10.00"> </text>
<text text-anchor="start" x="86" y="-651.5" font-family="Helvetica,sans-Serif" font-size="10.00"> </text>
<polygon fill="#666666" stroke="#666666" points="67.5,-676.5 67.5,-676.5 108.5,-676.5 108.5,-676.5 67.5,-676.5"/>
<polygon fill="#666666" stroke="#666666" points="67.5,-661.5 67.5,-661.5 108.5,-661.5 108.5,-661.5 67.5,-661.5"/>
<polygon fill="none" stroke="#666666" points="67,-645 67,-694 108,-694 108,-645 67,-645"/>
</a>
</g>
</g>
<!-- Node4&#45;&gt;Node2 -->
<g id="edge3_Node000002_Node000004" class="edge">
<title>Node4&#45;&gt;Node2</title>
<g id="a_edge3_Node000002_Node000004"><a xlink:title=" ">
<path fill="none" stroke="#63b8ff" d="M82.44,-644.81C79.79,-631.19 76.83,-613.71 75.5,-598 67.49,-503.23 66.58,-478.69 75.5,-384 77.24,-365.53 80.14,-345.98 83.45,-327.25"/>
<polygon fill="none" stroke="#63b8ff" points="83.46,-327.2 80.6,-320.58 85.62,-315.39 88.47,-322.02 83.46,-327.2"/>
</a>
</g>
<text text-anchor="middle" x="96" y="-488.5" font-family="Helvetica,sans-Serif" font-size="10.00" fill="grey"> #_center</text>
</g>
<!-- Node5 -->
<g id="Node000005" class="node">
<title>Node5</title>
<g id="a_Node000005"><a xlink:title=" ">
<polygon fill="white" stroke="transparent" points="247.5,-515.5 125.5,-515.5 125.5,-466.5 247.5,-466.5 247.5,-515.5"/>
<text text-anchor="start" x="130.5" y="-503" font-family="Helvetica,sans-Serif" font-size="10.00">std::vector&lt; cv::Point2f &gt;</text>
<text text-anchor="start" x="184.5" y="-488" font-family="Helvetica,sans-Serif" font-size="10.00"> </text>
<text text-anchor="start" x="184.5" y="-473" font-family="Helvetica,sans-Serif" font-size="10.00"> </text>
<polygon fill="#666666" stroke="#666666" points="125.5,-498 125.5,-498 247.5,-498 247.5,-498 125.5,-498"/>
<polygon fill="#666666" stroke="#666666" points="125.5,-483 125.5,-483 247.5,-483 247.5,-483 125.5,-483"/>
<polygon fill="none" stroke="#666666" points="125.5,-466.5 125.5,-515.5 247.5,-515.5 247.5,-466.5 125.5,-466.5"/>
</a>
</g>
</g>
<!-- Node4&#45;&gt;Node5 -->
<g id="edge5_Node000005_Node000004" class="edge">
<title>Node4&#45;&gt;Node5</title>
<g id="a_edge5_Node000005_Node000004"><a xlink:title=" ">
<path fill="none" stroke="#63b8ff" d="M100.85,-644.7C117.95,-614.21 147.7,-561.18 167.24,-526.33"/>
<polygon fill="none" stroke="#63b8ff" points="167.33,-526.17 166.78,-518.98 173.2,-515.71 173.76,-522.9 167.33,-526.17"/>
</a>
</g>
<text text-anchor="middle" x="142" y="-619" font-family="Helvetica,sans-Serif" font-size="10.00" fill="grey"> +elements</text>
</g>
<!-- Node5&#45;&gt;Node2 -->
<g id="edge4_Node000002_Node000005" class="edge">
<title>Node5&#45;&gt;Node2</title>
<g id="a_edge4_Node000002_Node000005"><a xlink:title=" ">
<path fill="none" stroke="#63b8ff" d="M178.93,-466.14C168.91,-434.55 150.64,-376.95 134.71,-326.72"/>
<polygon fill="none" stroke="#63b8ff" points="134.66,-326.58 129.03,-322.07 131.03,-315.14 136.66,-319.65 134.66,-326.58"/>
</a>
</g>
<text text-anchor="middle" x="168.5" y="-347" font-family="Helvetica,sans-Serif" font-size="10.00" fill="grey"> #_corners</text>
</g>
<!-- Node6 -->
<g id="Node000006" class="node">
<title>Node6</title>
<g id="a_Node000006"><a xlink:title=" ">
<polygon fill="white" stroke="transparent" points="227,-694 146,-694 146,-645 227,-645 227,-694"/>
<text text-anchor="start" x="151.5" y="-681.5" font-family="Helvetica,sans-Serif" font-size="10.00">std::vector&lt; T &gt;</text>
<text text-anchor="start" x="185" y="-666.5" font-family="Helvetica,sans-Serif" font-size="10.00"> </text>
<text text-anchor="start" x="185" y="-651.5" font-family="Helvetica,sans-Serif" font-size="10.00"> </text>
<polygon fill="#666666" stroke="#666666" points="146.5,-676.5 146.5,-676.5 227.5,-676.5 227.5,-676.5 146.5,-676.5"/>
<polygon fill="#666666" stroke="#666666" points="146.5,-661.5 146.5,-661.5 227.5,-661.5 227.5,-661.5 146.5,-661.5"/>
<polygon fill="none" stroke="#666666" points="146,-645 146,-694 227,-694 227,-645 146,-645"/>
</a>
</g>
</g>
<!-- Node6&#45;&gt;Node5 -->
<g id="edge6_Node000005_Node000006" class="edge">
<title>Node6&#45;&gt;Node5</title>
<g id="a_edge6_Node000005_Node000006"><a xlink:title=" ">
<path fill="none" stroke="orange" d="M186.5,-634.51C186.5,-599.63 186.5,-546.27 186.5,-515.71"/>
<polygon fill="orange" stroke="orange" points="183,-634.7 186.5,-644.7 190,-634.7 183,-634.7"/>
</a>
</g>
<text text-anchor="middle" x="221" y="-619" font-family="Helvetica,sans-Serif" font-size="10.00" fill="grey"> &lt; cv::Point2f &gt;</text>
</g>
<!-- Node7 -->
<g id="Node000007" class="node">
<title>Node7</title>
<g id="a_Node000007"><a xlink:title=" ">
<polygon fill="white" stroke="transparent" points="195,-790 178,-790 178,-741 195,-741 195,-790"/>
<text text-anchor="start" x="183.5" y="-777.5" font-family="Helvetica,sans-Serif" font-size="10.00">T</text>
<text text-anchor="start" x="185" y="-762.5" font-family="Helvetica,sans-Serif" font-size="10.00"> </text>
<text text-anchor="start" x="185" y="-747.5" font-family="Helvetica,sans-Serif" font-size="10.00"> </text>
<polygon fill="#666666" stroke="#666666" points="178.5,-772.5 178.5,-772.5 195.5,-772.5 195.5,-772.5 178.5,-772.5"/>
<polygon fill="#666666" stroke="#666666" points="178.5,-757.5 178.5,-757.5 195.5,-757.5 195.5,-757.5 178.5,-757.5"/>
<polygon fill="none" stroke="#666666" points="178,-741 178,-790 195,-790 195,-741 178,-741"/>
</a>
</g>
</g>
<!-- Node7&#45;&gt;Node6 -->
<g id="edge7_Node000006_Node000007" class="edge">
<title>Node7&#45;&gt;Node6</title>
<g id="a_edge7_Node000006_Node000007"><a xlink:title=" ">
<path fill="none" stroke="#63b8ff" d="M186.5,-740.78C186.5,-730.32 186.5,-717.79 186.5,-706.23"/>
<polygon fill="none" stroke="#63b8ff" points="186.5,-706.21 182.5,-700.21 186.5,-694.21 190.5,-700.21 186.5,-706.21"/>
</a>
</g>
<text text-anchor="middle" x="211" y="-715" font-family="Helvetica,sans-Serif" font-size="10.00" fill="grey"> +elements</text>
</g>
<!-- Node8 -->
<g id="Node000008" class="node">
<title>Node8</title>
<g id="a_Node000008"><a xlink:href="../../d3/da8/classrm_1_1StateInfo.html" target="_top" xlink:title="状态类型系统">
<polygon fill="white" stroke="transparent" points="339.5,-598 265.5,-598 265.5,-384 339.5,-384 339.5,-598"/>
<text text-anchor="start" x="273.5" y="-586" font-family="Helvetica,sans-Serif" font-size="10.00">rm::StateInfo</text>
<text text-anchor="start" x="300.5" y="-571" font-family="Helvetica,sans-Serif" font-size="10.00"> </text>
<text text-anchor="start" x="269.5" y="-556" font-family="Helvetica,sans-Serif" font-size="10.00">+</text>
<text text-anchor="start" x="280.5" y="-556" font-family="Helvetica,sans-Serif" font-size="10.00">StateInfo()</text>
<text text-anchor="start" x="269.5" y="-541" font-family="Helvetica,sans-Serif" font-size="10.00">+</text>
<text text-anchor="start" x="280.5" y="-541" font-family="Helvetica,sans-Serif" font-size="10.00">add()</text>
<text text-anchor="start" x="269.5" y="-526" font-family="Helvetica,sans-Serif" font-size="10.00">+</text>
<text text-anchor="start" x="280.5" y="-526" font-family="Helvetica,sans-Serif" font-size="10.00">add()</text>
<text text-anchor="start" x="269.5" y="-511" font-family="Helvetica,sans-Serif" font-size="10.00">+</text>
<text text-anchor="start" x="280.5" y="-511" font-family="Helvetica,sans-Serif" font-size="10.00">remove()</text>
<text text-anchor="start" x="269.5" y="-496" font-family="Helvetica,sans-Serif" font-size="10.00">+</text>
<text text-anchor="start" x="280.5" y="-496" font-family="Helvetica,sans-Serif" font-size="10.00">contains()</text>
<text text-anchor="start" x="269.5" y="-481" font-family="Helvetica,sans-Serif" font-size="10.00">+</text>
<text text-anchor="start" x="280.5" y="-481" font-family="Helvetica,sans-Serif" font-size="10.00">clear()</text>
<text text-anchor="start" x="269.5" y="-466" font-family="Helvetica,sans-Serif" font-size="10.00">+</text>
<text text-anchor="start" x="280.5" y="-466" font-family="Helvetica,sans-Serif" font-size="10.00">empty()</text>
<text text-anchor="start" x="269.5" y="-451" font-family="Helvetica,sans-Serif" font-size="10.00">+</text>
<text text-anchor="start" x="280.5" y="-451" font-family="Helvetica,sans-Serif" font-size="10.00">at()</text>
<text text-anchor="start" x="269.5" y="-436" font-family="Helvetica,sans-Serif" font-size="10.00">+</text>
<text text-anchor="start" x="280.5" y="-436" font-family="Helvetica,sans-Serif" font-size="10.00">at_numeric()</text>
<text text-anchor="start" x="269.5" y="-421" font-family="Helvetica,sans-Serif" font-size="10.00">+</text>
<text text-anchor="start" x="280.5" y="-421" font-family="Helvetica,sans-Serif" font-size="10.00">at_string()</text>
<text text-anchor="start" x="269.5" y="-406" font-family="Helvetica,sans-Serif" font-size="10.00">+</text>
<text text-anchor="start" x="280.5" y="-406" font-family="Helvetica,sans-Serif" font-size="10.00">at()</text>
<text text-anchor="start" x="269.5" y="-391" font-family="Helvetica,sans-Serif" font-size="10.00">+</text>
<text text-anchor="start" x="280.5" y="-391" font-family="Helvetica,sans-Serif" font-size="10.00">operator[]()</text>
<polygon fill="#666666" stroke="#666666" points="265.5,-581 265.5,-581 339.5,-581 339.5,-581 265.5,-581"/>
<polygon fill="#666666" stroke="#666666" points="265.5,-566 265.5,-566 339.5,-566 339.5,-566 265.5,-566"/>
<polygon fill="none" stroke="#666666" points="265.5,-384 265.5,-598 339.5,-598 339.5,-384 265.5,-384"/>
</a>
</g>
</g>
<!-- Node8&#45;&gt;Node2 -->
<g id="edge8_Node000002_Node000008" class="edge">
<title>Node8&#45;&gt;Node2</title>
<g id="a_edge8_Node000002_Node000008"><a xlink:title=" ">
<path fill="none" stroke="#63b8ff" d="M265.39,-398.31C262.56,-393.37 259.6,-388.56 256.5,-384 224.39,-336.72 176.41,-291.51 142.97,-262.77"/>
<polygon fill="none" stroke="#63b8ff" points="142.68,-262.52 135.51,-261.69 133.53,-254.75 140.69,-255.59 142.68,-262.52"/>
</a>
</g>
<text text-anchor="middle" x="260.5" y="-347" font-family="Helvetica,sans-Serif" font-size="10.00" fill="grey"> #_state</text>
</g>
</g>
</svg>
