<?xml version="1.0" encoding="UTF-8" standalone="no"?>
<!DOCTYPE svg PUBLIC "-//W3C//DTD SVG 1.1//EN"
 "http://www.w3.org/Graphics/SVG/1.1/DTD/svg11.dtd">
<!-- Generated by graphviz version 2.43.0 (0)
 -->
<!-- Title: rm::ImuData Pages: 1 -->
<svg width="198pt" height="349pt"
 viewBox="0.00 0.00 197.50 349.00" xmlns="http://www.w3.org/2000/svg" xmlns:xlink="http://www.w3.org/1999/xlink">
<g id="graph0" class="graph" transform="scale(1 1) rotate(0) translate(4 345)">
<title>rm::ImuData</title>
<!-- Node1 -->
<g id="Node000001" class="node">
<title>Node1</title>
<g id="a_Node000001"><a xlink:title="IMU 数据">
<polygon fill="#999999" stroke="transparent" points="124.5,-94 52.5,-94 52.5,0 124.5,0 124.5,-94"/>
<text text-anchor="start" x="57.5" y="-82" font-family="Helvetica,sans-Serif" font-size="10.00">rm::ImuData</text>
<text text-anchor="start" x="86.5" y="-67" font-family="Helvetica,sans-Serif" font-size="10.00"> </text>
<text text-anchor="start" x="61" y="-52" font-family="Helvetica,sans-Serif" font-size="10.00">+</text>
<text text-anchor="start" x="78.5" y="-52" font-family="Helvetica,sans-Serif" font-size="10.00">write()</text>
<text text-anchor="start" x="61" y="-37" font-family="Helvetica,sans-Serif" font-size="10.00">+</text>
<text text-anchor="start" x="78.5" y="-37" font-family="Helvetica,sans-Serif" font-size="10.00">read()</text>
<text text-anchor="start" x="61" y="-22" font-family="Helvetica,sans-Serif" font-size="10.00">+</text>
<text text-anchor="start" x="78.5" y="-22" font-family="Helvetica,sans-Serif" font-size="10.00">write()</text>
<text text-anchor="start" x="61" y="-7" font-family="Helvetica,sans-Serif" font-size="10.00">+</text>
<text text-anchor="start" x="78.5" y="-7" font-family="Helvetica,sans-Serif" font-size="10.00">read()</text>
<polygon fill="#666666" stroke="#666666" points="52.5,-77 52.5,-77 124.5,-77 124.5,-77 52.5,-77"/>
<polygon fill="#666666" stroke="#666666" points="52.5,-62 52.5,-62 124.5,-62 124.5,-62 52.5,-62"/>
<polygon fill="none" stroke="#666666" points="52.5,0 52.5,-94 124.5,-94 124.5,0 52.5,0"/>
</a>
</g>
</g>
<!-- Node2 -->
<g id="Node000002" class="node">
<title>Node2</title>
<g id="a_Node000002"><a xlink:href="../../d4/def/structrm_1_1Translation.html" target="_top" xlink:title="移动位置信息">
<polygon fill="white" stroke="transparent" points="83,-190 0,-190 0,-141 83,-141 83,-190"/>
<text text-anchor="start" x="5.5" y="-177.5" font-family="Helvetica,sans-Serif" font-size="10.00">rm::Translation</text>
<text text-anchor="start" x="40" y="-162.5" font-family="Helvetica,sans-Serif" font-size="10.00"> </text>
<text text-anchor="start" x="40" y="-147.5" font-family="Helvetica,sans-Serif" font-size="10.00"> </text>
<polygon fill="#666666" stroke="#666666" points="0.5,-172.5 0.5,-172.5 83.5,-172.5 83.5,-172.5 0.5,-172.5"/>
<polygon fill="#666666" stroke="#666666" points="0.5,-157.5 0.5,-157.5 83.5,-157.5 83.5,-157.5 0.5,-157.5"/>
<polygon fill="none" stroke="#666666" points="0,-141 0,-190 83,-190 83,-141 0,-141"/>
</a>
</g>
</g>
<!-- Node2&#45;&gt;Node1 -->
<g id="edge1_Node000001_Node000002" class="edge">
<title>Node2&#45;&gt;Node1</title>
<g id="a_edge1_Node000001_Node000002"><a xlink:title=" ">
<path fill="none" stroke="#63b8ff" d="M42.49,-140.99C43.43,-131.75 45.2,-121.17 48.5,-112 49.35,-109.64 50.3,-107.28 51.32,-104.92"/>
<polygon fill="none" stroke="#63b8ff" points="51.37,-104.81 50.39,-97.67 56.6,-94.01 57.59,-101.16 51.37,-104.81"/>
</a>
</g>
<text text-anchor="middle" x="80.5" y="-115" font-family="Helvetica,sans-Serif" font-size="10.00" fill="grey"> +translation</text>
</g>
<!-- Node3 -->
<g id="Node000003" class="node">
<title>Node3</title>
<g id="a_Node000003"><a xlink:title=" ">
<polygon fill="white" stroke="transparent" points="104.5,-341 72.5,-341 72.5,-292 104.5,-292 104.5,-341"/>
<text text-anchor="start" x="77.5" y="-328.5" font-family="Helvetica,sans-Serif" font-size="10.00">float</text>
<text text-anchor="start" x="86.5" y="-313.5" font-family="Helvetica,sans-Serif" font-size="10.00"> </text>
<text text-anchor="start" x="86.5" y="-298.5" font-family="Helvetica,sans-Serif" font-size="10.00"> </text>
<polygon fill="#666666" stroke="#666666" points="72.5,-323.5 72.5,-323.5 104.5,-323.5 104.5,-323.5 72.5,-323.5"/>
<polygon fill="#666666" stroke="#666666" points="72.5,-308.5 72.5,-308.5 104.5,-308.5 104.5,-308.5 72.5,-308.5"/>
<polygon fill="none" stroke="#666666" points="72.5,-292 72.5,-341 104.5,-341 104.5,-292 72.5,-292"/>
</a>
</g>
</g>
<!-- Node3&#45;&gt;Node2 -->
<g id="edge2_Node000002_Node000003" class="edge">
<title>Node3&#45;&gt;Node2</title>
<g id="a_edge2_Node000002_Node000003"><a xlink:title=" ">
<path fill="none" stroke="#63b8ff" d="M81.05,-291.89C73.43,-267.73 61.5,-229.89 52.73,-202.1"/>
<polygon fill="none" stroke="#63b8ff" points="52.68,-201.94 47.06,-197.42 49.07,-190.49 54.69,-195.01 52.68,-201.94"/>
</a>
</g>
<text text-anchor="middle" x="87.5" y="-266" font-family="Helvetica,sans-Serif" font-size="10.00" fill="grey"> +vx</text>
<text text-anchor="middle" x="87.5" y="-255" font-family="Helvetica,sans-Serif" font-size="10.00" fill="grey">+vy</text>
<text text-anchor="middle" x="87.5" y="-244" font-family="Helvetica,sans-Serif" font-size="10.00" fill="grey">+vz</text>
<text text-anchor="middle" x="87.5" y="-233" font-family="Helvetica,sans-Serif" font-size="10.00" fill="grey">+x</text>
<text text-anchor="middle" x="87.5" y="-222" font-family="Helvetica,sans-Serif" font-size="10.00" fill="grey">+y</text>
<text text-anchor="middle" x="87.5" y="-211" font-family="Helvetica,sans-Serif" font-size="10.00" fill="grey">+z</text>
</g>
<!-- Node4 -->
<g id="Node000004" class="node">
<title>Node4</title>
<g id="a_Node000004"><a xlink:href="../../d1/d5f/structrm_1_1Rotation.html" target="_top" xlink:title="转动姿态信息">
<polygon fill="white" stroke="transparent" points="172,-190 101,-190 101,-141 172,-141 172,-190"/>
<text text-anchor="start" x="106.5" y="-177.5" font-family="Helvetica,sans-Serif" font-size="10.00">rm::Rotation</text>
<text text-anchor="start" x="135" y="-162.5" font-family="Helvetica,sans-Serif" font-size="10.00"> </text>
<text text-anchor="start" x="135" y="-147.5" font-family="Helvetica,sans-Serif" font-size="10.00"> </text>
<polygon fill="#666666" stroke="#666666" points="101.5,-172.5 101.5,-172.5 172.5,-172.5 172.5,-172.5 101.5,-172.5"/>
<polygon fill="#666666" stroke="#666666" points="101.5,-157.5 101.5,-157.5 172.5,-157.5 172.5,-157.5 101.5,-157.5"/>
<polygon fill="none" stroke="#666666" points="101,-141 101,-190 172,-190 172,-141 101,-141"/>
</a>
</g>
</g>
<!-- Node3&#45;&gt;Node4 -->
<g id="edge4_Node000004_Node000003" class="edge">
<title>Node3&#45;&gt;Node4</title>
<g id="a_edge4_Node000004_Node000003"><a xlink:title=" ">
<path fill="none" stroke="#63b8ff" d="M96.57,-291.82C98.53,-286 100.61,-279.78 102.5,-274 110.38,-249.89 118.99,-222.65 125.58,-201.62"/>
<polygon fill="none" stroke="#63b8ff" points="125.62,-201.48 123.59,-194.56 129.2,-190.03 131.23,-196.95 125.62,-201.48"/>
</a>
</g>
<text text-anchor="middle" x="156" y="-266" font-family="Helvetica,sans-Serif" font-size="10.00" fill="grey"> +pitch</text>
<text text-anchor="middle" x="156" y="-255" font-family="Helvetica,sans-Serif" font-size="10.00" fill="grey">+pitch_speed</text>
<text text-anchor="middle" x="156" y="-244" font-family="Helvetica,sans-Serif" font-size="10.00" fill="grey">+roll</text>
<text text-anchor="middle" x="156" y="-233" font-family="Helvetica,sans-Serif" font-size="10.00" fill="grey">+roll_speed</text>
<text text-anchor="middle" x="156" y="-222" font-family="Helvetica,sans-Serif" font-size="10.00" fill="grey">+yaw</text>
<text text-anchor="middle" x="156" y="-211" font-family="Helvetica,sans-Serif" font-size="10.00" fill="grey">+yaw_speed</text>
</g>
<!-- Node4&#45;&gt;Node1 -->
<g id="edge3_Node000001_Node000004" class="edge">
<title>Node4&#45;&gt;Node1</title>
<g id="a_edge3_Node000001_Node000004"><a xlink:title=" ">
<path fill="none" stroke="#63b8ff" d="M126.79,-140.92C122.55,-130.64 117.38,-118.09 112.23,-105.58"/>
<polygon fill="none" stroke="#63b8ff" points="112.1,-105.27 106.11,-101.25 107.52,-94.17 113.51,-98.2 112.1,-105.27"/>
</a>
</g>
<text text-anchor="middle" x="142.5" y="-115" font-family="Helvetica,sans-Serif" font-size="10.00" fill="grey"> +rotation</text>
</g>
</g>
</svg>
