<?xml version="1.0" encoding="UTF-8" standalone="no"?>
<!DOCTYPE svg PUBLIC "-//W3C//DTD SVG 1.1//EN"
 "http://www.w3.org/Graphics/SVG/1.1/DTD/svg11.dtd">
<!-- Generated by graphviz version 2.43.0 (0)
 -->
<!-- Title: rm::GyroGroup Pages: 1 -->
<!--zoomable 791 -->

<svg id="main" version="1.1" xmlns="http://www.w3.org/2000/svg" xmlns:xlink="http://www.w3.org/1999/xlink" xml:space="preserve" onload="init(evt)">

<style type="text/css"><![CDATA[
.node, .edge {opacity: 0.7;}
.node.selected, .edge.selected {opacity: 1;}
.edge:hover path { stroke: red; }
.edge:hover polygon { stroke: red; fill: red; }
]]></style>

<defs>
  <circle id="rim" cx="0" cy="0" r="7"/>
  <circle id="rim2" cx="0" cy="0" r="3.5"/>
  <g id="zoomPlus">
    <use xlink:href="#rim" fill="#404040"><set attributeName="fill" to="#808080" begin="zoomplus.mouseover" end="zoomplus.mouseout"/></use>
    <path d="M-4,0h8M0,-4v8" fill="none" stroke="white" stroke-width="1.5" pointer-events="none"/>
  </g>
  <g id="zoomMin">
    <use xlink:href="#rim" fill="#404040"><set attributeName="fill" to="#808080" begin="zoomminus.mouseover" end="zoomminus.mouseout"/></use>
    <path d="M-4,0h8" fill="none" stroke="white" stroke-width="1.5" pointer-events="none"/>
  </g>
  <g id="arrowUp" transform="translate(30 24)">
    <use xlink:href="#rim"/>
    <path pointer-events="none" fill="none" stroke="white" stroke-width="1.5" d="M0,-3.0v7 M-2.5,-0.5L0,-3.0L2.5,-0.5"/>
  </g>
  <g id="arrowRight" transform="rotate(90) translate(36 -43)">
    <use xlink:href="#rim"/>
    <path pointer-events="none" fill="none" stroke="white" stroke-width="1.5" d="M0,-3.0v7 M-2.5,-0.5L0,-3.0L2.5,-0.5"/>
  </g>
  <g id="arrowDown" transform="rotate(180) translate(-30 -48)">
    <use xlink:href="#rim"/>
    <path pointer-events="none" fill="none" stroke="white" stroke-width="1.5" d="M0,-3.0v7 M-2.5,-0.5L0,-3.0L2.5,-0.5"/>
  </g>
  <g id="arrowLeft" transform="rotate(270) translate(-36 17)">
    <use xlink:href="#rim"/>
    <path pointer-events="none" fill="none" stroke="white" stroke-width="1.5" d="M0,-3.0v7 M-2.5,-0.5L0,-3.0L2.5,-0.5"/>
  </g>
  <g id="resetDef">
    <use xlink:href="#rim2" fill="#404040"><set attributeName="fill" to="#808080" begin="reset.mouseover" end="reset.mouseout"/></use>
  </g>
</defs>
<script type="application/ecmascript">
var viewWidth = 782;
var viewHeight = 791;
var sectionId = 'dynsection-1';
</script>
<script type="application/ecmascript" xlink:href="../../svg.min.js"/>
<svg id="graph" class="graph">
<g id="viewport">
<title>rm::GyroGroup</title>
<!-- Node1 -->
<g id="Node000001" class="node">
<title>Node1</title>
<g id="a_Node000001"><a xlink:title="整车状态序列组">
<polygon fill="#999999" stroke="transparent" points="403,-229 243,-229 243,0 403,0 403,-229"/>
<text text-anchor="start" x="286.5" y="-216.5" font-family="Helvetica,sans-Serif" font-size="10.00">rm::GyroGroup</text>
<text text-anchor="start" x="321" y="-201.5" font-family="Helvetica,sans-Serif" font-size="10.00"> </text>
<text text-anchor="start" x="247" y="-186.5" font-family="Helvetica,sans-Serif" font-size="10.00">+</text>
<text text-anchor="start" x="260" y="-186.5" font-family="Helvetica,sans-Serif" font-size="10.00">clone()</text>
<text text-anchor="start" x="247" y="-171.5" font-family="Helvetica,sans-Serif" font-size="10.00">+</text>
<text text-anchor="start" x="260" y="-171.5" font-family="Helvetica,sans-Serif" font-size="10.00">invalid()</text>
<text text-anchor="start" x="247" y="-156.5" font-family="Helvetica,sans-Serif" font-size="10.00">+</text>
<text text-anchor="start" x="260" y="-156.5" font-family="Helvetica,sans-Serif" font-size="10.00">sync()</text>
<text text-anchor="start" x="247" y="-141.5" font-family="Helvetica,sans-Serif" font-size="10.00">+</text>
<text text-anchor="start" x="260" y="-141.5" font-family="Helvetica,sans-Serif" font-size="10.00">getTrackerState()</text>
<text text-anchor="start" x="247" y="-126.5" font-family="Helvetica,sans-Serif" font-size="10.00">+</text>
<text text-anchor="start" x="260" y="-126.5" font-family="Helvetica,sans-Serif" font-size="10.00">getCenter3D()</text>
<text text-anchor="start" x="247" y="-111.5" font-family="Helvetica,sans-Serif" font-size="10.00">+</text>
<text text-anchor="start" x="260" y="-111.5" font-family="Helvetica,sans-Serif" font-size="10.00">getSpeed3D()</text>
<text text-anchor="start" x="247" y="-96.5" font-family="Helvetica,sans-Serif" font-size="10.00">+</text>
<text text-anchor="start" x="260" y="-96.5" font-family="Helvetica,sans-Serif" font-size="10.00">getRotatedSpeed()</text>
<text text-anchor="start" x="247" y="-81.5" font-family="Helvetica,sans-Serif" font-size="10.00">+</text>
<text text-anchor="start" x="260" y="-81.5" font-family="Helvetica,sans-Serif" font-size="10.00">imu()</text>
<text text-anchor="start" x="247" y="-66.5" font-family="Helvetica,sans-Serif" font-size="10.00">+</text>
<text text-anchor="start" x="260" y="-66.5" font-family="Helvetica,sans-Serif" font-size="10.00">getRotStatus()</text>
<text text-anchor="start" x="247" y="-51.5" font-family="Helvetica,sans-Serif" font-size="10.00">+</text>
<text text-anchor="start" x="260" y="-51.5" font-family="Helvetica,sans-Serif" font-size="10.00">make_group()</text>
<text text-anchor="start" x="247" y="-36.5" font-family="Helvetica,sans-Serif" font-size="10.00">+</text>
<text text-anchor="start" x="260" y="-36.5" font-family="Helvetica,sans-Serif" font-size="10.00">calcGroupFrom3DMessage()</text>
<text text-anchor="start" x="247" y="-21.5" font-family="Helvetica,sans-Serif" font-size="10.00">+</text>
<text text-anchor="start" x="260" y="-21.5" font-family="Helvetica,sans-Serif" font-size="10.00">constructComboForced()</text>
<text text-anchor="start" x="247" y="-6.5" font-family="Helvetica,sans-Serif" font-size="10.00">+</text>
<text text-anchor="start" x="260" y="-6.5" font-family="Helvetica,sans-Serif" font-size="10.00">calcArmorNum()</text>
<polygon fill="#666666" stroke="#666666" points="243,-211.5 243,-211.5 403,-211.5 403,-211.5 243,-211.5"/>
<polygon fill="#666666" stroke="#666666" points="243,-196.5 243,-196.5 403,-196.5 403,-196.5 243,-196.5"/>
<polygon fill="none" stroke="#666666" points="243,0 243,-229 403,-229 403,0 243,0"/>
</a>
</g>
</g>
<!-- Node2 -->
<g id="Node000002" class="node">
<title>Node2</title>
<g id="a_Node000002"><a xlink:href="../../d6/d6c/classrm_1_1group.html" target="_top" xlink:title="相关追踪器的空间集合（序列组）">
<polygon fill="white" stroke="transparent" points="381,-465 265,-465 265,-266 381,-266 381,-465"/>
<text text-anchor="start" x="299" y="-452.5" font-family="Helvetica,sans-Serif" font-size="10.00">rm::group</text>
<text text-anchor="start" x="321" y="-437.5" font-family="Helvetica,sans-Serif" font-size="10.00"> </text>
<text text-anchor="start" x="269" y="-422.5" font-family="Helvetica,sans-Serif" font-size="10.00">+</text>
<text text-anchor="start" x="282" y="-422.5" font-family="Helvetica,sans-Serif" font-size="10.00">clone()</text>
<text text-anchor="start" x="269" y="-407.5" font-family="Helvetica,sans-Serif" font-size="10.00">+</text>
<text text-anchor="start" x="282" y="-407.5" font-family="Helvetica,sans-Serif" font-size="10.00">sync()</text>
<text text-anchor="start" x="269" y="-392.5" font-family="Helvetica,sans-Serif" font-size="10.00">+</text>
<text text-anchor="start" x="282" y="-392.5" font-family="Helvetica,sans-Serif" font-size="10.00">add()</text>
<text text-anchor="start" x="269" y="-377.5" font-family="Helvetica,sans-Serif" font-size="10.00">+</text>
<text text-anchor="start" x="282" y="-377.5" font-family="Helvetica,sans-Serif" font-size="10.00">invalid()</text>
<text text-anchor="start" x="269" y="-362.5" font-family="Helvetica,sans-Serif" font-size="10.00">+</text>
<text text-anchor="start" x="282" y="-362.5" font-family="Helvetica,sans-Serif" font-size="10.00">data()</text>
<text text-anchor="start" x="269" y="-347.5" font-family="Helvetica,sans-Serif" font-size="10.00">+</text>
<text text-anchor="start" x="282" y="-347.5" font-family="Helvetica,sans-Serif" font-size="10.00">size()</text>
<text text-anchor="start" x="269" y="-332.5" font-family="Helvetica,sans-Serif" font-size="10.00">+</text>
<text text-anchor="start" x="282" y="-332.5" font-family="Helvetica,sans-Serif" font-size="10.00">empty()</text>
<text text-anchor="start" x="269" y="-317.5" font-family="Helvetica,sans-Serif" font-size="10.00">+</text>
<text text-anchor="start" x="282" y="-317.5" font-family="Helvetica,sans-Serif" font-size="10.00">at()</text>
<text text-anchor="start" x="269" y="-302.5" font-family="Helvetica,sans-Serif" font-size="10.00">+</text>
<text text-anchor="start" x="282" y="-302.5" font-family="Helvetica,sans-Serif" font-size="10.00">center()</text>
<text text-anchor="start" x="269" y="-287.5" font-family="Helvetica,sans-Serif" font-size="10.00">+</text>
<text text-anchor="start" x="282" y="-287.5" font-family="Helvetica,sans-Serif" font-size="10.00">getVanishNumber()</text>
<text text-anchor="start" x="269" y="-272.5" font-family="Helvetica,sans-Serif" font-size="10.00">+</text>
<text text-anchor="start" x="282" y="-272.5" font-family="Helvetica,sans-Serif" font-size="10.00">type()</text>
<polygon fill="#666666" stroke="#666666" points="265,-447.5 265,-447.5 381,-447.5 381,-447.5 265,-447.5"/>
<polygon fill="#666666" stroke="#666666" points="265,-432.5 265,-432.5 381,-432.5 381,-432.5 265,-432.5"/>
<polygon fill="none" stroke="#666666" points="265,-266 265,-465 381,-465 381,-266 265,-266"/>
</a>
</g>
</g>
<!-- Node2&#45;&gt;Node1 -->
<g id="edge1_Node000001_Node000002" class="edge">
<title>Node2&#45;&gt;Node1</title>
<g id="a_edge1_Node000001_Node000002"><a xlink:title=" ">
<path fill="none" stroke="#63b8ff" d="M323,-255.58C323,-246.89 323,-238.09 323,-229.36"/>
<polygon fill="none" stroke="#63b8ff" points="319.5,-255.73 323,-265.73 326.5,-255.73 319.5,-255.73"/>
</a>
</g>
</g>
<!-- Node3 -->
<g id="Node000003" class="node">
<title>Node3</title>
<g id="a_Node000003"><a xlink:title=" ">
<polygon fill="white" stroke="transparent" points="211.5,-581.5 104.5,-581.5 104.5,-521.5 211.5,-521.5 211.5,-581.5"/>
<text text-anchor="start" x="110" y="-569.5" font-family="Helvetica,sans-Serif" font-size="10.00">std::vector&lt; tracker</text>
<text text-anchor="start" x="143" y="-558.5" font-family="Helvetica,sans-Serif" font-size="10.00">::ptr &gt;</text>
<text text-anchor="start" x="156.5" y="-543.5" font-family="Helvetica,sans-Serif" font-size="10.00"> </text>
<text text-anchor="start" x="156.5" y="-528.5" font-family="Helvetica,sans-Serif" font-size="10.00"> </text>
<polygon fill="#666666" stroke="#666666" points="105,-553.5 105,-553.5 212,-553.5 212,-553.5 105,-553.5"/>
<polygon fill="#666666" stroke="#666666" points="105,-538.5 105,-538.5 212,-538.5 212,-538.5 105,-538.5"/>
<polygon fill="none" stroke="#666666" points="104.5,-521.5 104.5,-581.5 211.5,-581.5 211.5,-521.5 104.5,-521.5"/>
</a>
</g>
</g>
<!-- Node3&#45;&gt;Node2 -->
<g id="edge2_Node000002_Node000003" class="edge">
<title>Node3&#45;&gt;Node2</title>
<g id="a_edge2_Node000002_Node000003"><a xlink:title=" ">
<path fill="none" stroke="#63b8ff" d="M178.3,-521.23C187.06,-509.1 197.66,-495.07 208,-483 223.03,-465.45 240.12,-447.29 256.44,-430.68"/>
<polygon fill="none" stroke="#63b8ff" points="256.45,-430.68 257.83,-423.6 264.89,-422.15 263.51,-429.23 256.45,-430.68"/>
</a>
</g>
<text text-anchor="middle" x="236" y="-486" font-family="Helvetica,sans-Serif" font-size="10.00" fill="grey"> #_trackers</text>
</g>
<!-- Node4 -->
<g id="Node000004" class="node">
<title>Node4</title>
<g id="a_Node000004"><a xlink:title=" ">
<polygon fill="white" stroke="transparent" points="112,-687 0,-687 0,-638 112,-638 112,-687"/>
<text text-anchor="start" x="5" y="-674.5" font-family="Helvetica,sans-Serif" font-size="10.00">std::shared_ptr&lt; T &gt;</text>
<text text-anchor="start" x="54" y="-659.5" font-family="Helvetica,sans-Serif" font-size="10.00"> </text>
<text text-anchor="start" x="11.5" y="-644.5" font-family="Helvetica,sans-Serif" font-size="10.00">+</text>
<text text-anchor="start" x="32" y="-644.5" font-family="Helvetica,sans-Serif" font-size="10.00">operator&#45;&gt;()</text>
<polygon fill="#666666" stroke="#666666" points="0,-669.5 0,-669.5 112,-669.5 112,-669.5 0,-669.5"/>
<polygon fill="#666666" stroke="#666666" points="0,-654.5 0,-654.5 112,-654.5 112,-654.5 0,-654.5"/>
<polygon fill="none" stroke="#666666" points="0,-638 0,-687 112,-687 112,-638 0,-638"/>
</a>
</g>
</g>
<!-- Node4&#45;&gt;Node3 -->
<g id="edge3_Node000003_Node000004" class="edge">
<title>Node4&#45;&gt;Node3</title>
<g id="a_edge3_Node000003_Node000004"><a xlink:title=" ">
<path fill="none" stroke="#63b8ff" d="M78.13,-637.85C91.06,-624.03 107.68,-606.27 122.41,-590.53"/>
<polygon fill="none" stroke="#63b8ff" points="122.63,-590.3 123.8,-583.19 130.82,-581.54 129.65,-588.65 122.63,-590.3"/>
</a>
</g>
<text text-anchor="middle" x="133" y="-612" font-family="Helvetica,sans-Serif" font-size="10.00" fill="grey"> +elements</text>
</g>
<!-- Node5 -->
<g id="Node000005" class="node">
<title>Node5</title>
<g id="a_Node000005"><a xlink:title=" ">
<polygon fill="white" stroke="transparent" points="124.5,-783 107.5,-783 107.5,-734 124.5,-734 124.5,-783"/>
<text text-anchor="start" x="113" y="-770.5" font-family="Helvetica,sans-Serif" font-size="10.00">T</text>
<text text-anchor="start" x="114.5" y="-755.5" font-family="Helvetica,sans-Serif" font-size="10.00"> </text>
<text text-anchor="start" x="114.5" y="-740.5" font-family="Helvetica,sans-Serif" font-size="10.00"> </text>
<polygon fill="#666666" stroke="#666666" points="108,-765.5 108,-765.5 125,-765.5 125,-765.5 108,-765.5"/>
<polygon fill="#666666" stroke="#666666" points="108,-750.5 108,-750.5 125,-750.5 125,-750.5 108,-750.5"/>
<polygon fill="none" stroke="#666666" points="107.5,-734 107.5,-783 124.5,-783 124.5,-734 107.5,-734"/>
</a>
</g>
</g>
<!-- Node5&#45;&gt;Node4 -->
<g id="edge4_Node000004_Node000005" class="edge">
<title>Node5&#45;&gt;Node4</title>
<g id="a_edge4_Node000004_Node000005"><a xlink:title=" ">
<path fill="none" stroke="#63b8ff" d="M107.4,-744.03C99.64,-731.87 87.89,-713.46 77.58,-697.32"/>
<polygon fill="none" stroke="#63b8ff" points="77.53,-697.23 70.93,-694.33 71.08,-687.12 77.68,-690.02 77.53,-697.23"/>
</a>
</g>
<text text-anchor="middle" x="100.5" y="-708" font-family="Helvetica,sans-Serif" font-size="10.00" fill="grey"> +ptr</text>
</g>
<!-- Node6 -->
<g id="Node000006" class="node">
<title>Node6</title>
<g id="a_Node000006"><a xlink:title=" ">
<polygon fill="white" stroke="transparent" points="221.5,-687 130.5,-687 130.5,-638 221.5,-638 221.5,-687"/>
<text text-anchor="start" x="136" y="-674.5" font-family="Helvetica,sans-Serif" font-size="10.00">std::vector&lt; T &gt;</text>
<text text-anchor="start" x="174.5" y="-659.5" font-family="Helvetica,sans-Serif" font-size="10.00"> </text>
<text text-anchor="start" x="174.5" y="-644.5" font-family="Helvetica,sans-Serif" font-size="10.00"> </text>
<polygon fill="#666666" stroke="#666666" points="131,-669.5 131,-669.5 222,-669.5 222,-669.5 131,-669.5"/>
<polygon fill="#666666" stroke="#666666" points="131,-654.5 131,-654.5 222,-654.5 222,-654.5 131,-654.5"/>
<polygon fill="none" stroke="#666666" points="130.5,-638 130.5,-687 221.5,-687 221.5,-638 130.5,-638"/>
</a>
</g>
</g>
<!-- Node5&#45;&gt;Node6 -->
<g id="edge6_Node000006_Node000005" class="edge">
<title>Node5&#45;&gt;Node6</title>
<g id="a_edge6_Node000006_Node000005"><a xlink:title=" ">
<path fill="none" stroke="#63b8ff" d="M124.6,-744.03C132.36,-731.87 144.11,-713.46 154.42,-697.32"/>
<polygon fill="none" stroke="#63b8ff" points="154.47,-697.23 154.32,-690.02 160.92,-687.12 161.07,-694.33 154.47,-697.23"/>
</a>
</g>
<text text-anchor="middle" x="177" y="-708" font-family="Helvetica,sans-Serif" font-size="10.00" fill="grey"> +elements</text>
</g>
<!-- Node6&#45;&gt;Node3 -->
<g id="edge5_Node000003_Node000006" class="edge">
<title>Node6&#45;&gt;Node3</title>
<g id="a_edge5_Node000003_Node000006"><a xlink:title=" ">
<path fill="none" stroke="orange" d="M170.4,-627.59C167.96,-612.83 165.13,-595.71 162.8,-581.54"/>
<polygon fill="orange" stroke="orange" points="167.01,-628.55 172.09,-637.85 173.92,-627.41 167.01,-628.55"/>
</a>
</g>
<text text-anchor="middle" x="209.5" y="-612" font-family="Helvetica,sans-Serif" font-size="10.00" fill="grey"> &lt; tracker::ptr &gt;</text>
</g>
<!-- Node7 -->
<g id="Node000007" class="node">
<title>Node7</title>
<g id="a_Node000007"><a xlink:title=" ">
<polygon fill="white" stroke="transparent" points="274.5,-576 229.5,-576 229.5,-527 274.5,-527 274.5,-576"/>
<text text-anchor="start" x="235" y="-563.5" font-family="Helvetica,sans-Serif" font-size="10.00">Point2f</text>
<text text-anchor="start" x="250.5" y="-548.5" font-family="Helvetica,sans-Serif" font-size="10.00"> </text>
<text text-anchor="start" x="250.5" y="-533.5" font-family="Helvetica,sans-Serif" font-size="10.00"> </text>
<polygon fill="#666666" stroke="#666666" points="230,-558.5 230,-558.5 275,-558.5 275,-558.5 230,-558.5"/>
<polygon fill="#666666" stroke="#666666" points="230,-543.5 230,-543.5 275,-543.5 275,-543.5 230,-543.5"/>
<polygon fill="none" stroke="#666666" points="229.5,-527 229.5,-576 274.5,-576 274.5,-527 229.5,-527"/>
</a>
</g>
</g>
<!-- Node7&#45;&gt;Node2 -->
<g id="edge7_Node000002_Node000007" class="edge">
<title>Node7&#45;&gt;Node2</title>
<g id="a_edge7_Node000002_Node000007"><a xlink:title=" ">
<path fill="none" stroke="#63b8ff" d="M257.77,-526.81C261.17,-513.74 265.82,-497.31 271,-483 271.76,-480.9 272.54,-478.79 273.33,-476.67"/>
<polygon fill="none" stroke="#63b8ff" points="273.42,-476.44 271.86,-469.4 277.75,-465.25 279.32,-472.28 273.42,-476.44"/>
</a>
</g>
<text text-anchor="middle" x="295" y="-486" font-family="Helvetica,sans-Serif" font-size="10.00" fill="grey"> #_center</text>
</g>
<!-- Node8 -->
<g id="Node000008" class="node">
<title>Node8</title>
<g id="a_Node000008"><a xlink:title=" ">
<polygon fill="white" stroke="transparent" points="339,-576 307,-576 307,-527 339,-527 339,-576"/>
<text text-anchor="start" x="312" y="-563.5" font-family="Helvetica,sans-Serif" font-size="10.00">bool</text>
<text text-anchor="start" x="321" y="-548.5" font-family="Helvetica,sans-Serif" font-size="10.00"> </text>
<text text-anchor="start" x="321" y="-533.5" font-family="Helvetica,sans-Serif" font-size="10.00"> </text>
<polygon fill="#666666" stroke="#666666" points="307,-558.5 307,-558.5 339,-558.5 339,-558.5 307,-558.5"/>
<polygon fill="#666666" stroke="#666666" points="307,-543.5 307,-543.5 339,-543.5 339,-543.5 307,-543.5"/>
<polygon fill="none" stroke="#666666" points="307,-527 307,-576 339,-576 339,-527 307,-527"/>
</a>
</g>
</g>
<!-- Node8&#45;&gt;Node2 -->
<g id="edge8_Node000002_Node000008" class="edge">
<title>Node8&#45;&gt;Node2</title>
<g id="a_edge8_Node000002_Node000008"><a xlink:title=" ">
<path fill="none" stroke="#63b8ff" d="M323,-526.82C323,-513.54 323,-495.91 323,-477.2"/>
<polygon fill="none" stroke="#63b8ff" points="323,-477.12 319,-471.12 323,-465.12 327,-471.12 323,-477.12"/>
</a>
</g>
<text text-anchor="middle" x="356.5" y="-486" font-family="Helvetica,sans-Serif" font-size="10.00" fill="grey"> #_is_tracked</text>
</g>
<!-- Node9 -->
<g id="Node000009" class="node">
<title>Node9</title>
<g id="a_Node000009"><a xlink:title=" ">
<polygon fill="white" stroke="transparent" points="438,-576 388,-576 388,-527 438,-527 438,-576"/>
<text text-anchor="start" x="393" y="-563.5" font-family="Helvetica,sans-Serif" font-size="10.00">uint32_t</text>
<text text-anchor="start" x="411" y="-548.5" font-family="Helvetica,sans-Serif" font-size="10.00"> </text>
<text text-anchor="start" x="411" y="-533.5" font-family="Helvetica,sans-Serif" font-size="10.00"> </text>
<polygon fill="#666666" stroke="#666666" points="388,-558.5 388,-558.5 438,-558.5 438,-558.5 388,-558.5"/>
<polygon fill="#666666" stroke="#666666" points="388,-543.5 388,-543.5 438,-543.5 438,-543.5 388,-543.5"/>
<polygon fill="none" stroke="#666666" points="388,-527 388,-576 438,-576 438,-527 388,-527"/>
</a>
</g>
</g>
<!-- Node9&#45;&gt;Node2 -->
<g id="edge9_Node000002_Node000009" class="edge">
<title>Node9&#45;&gt;Node2</title>
<g id="a_edge9_Node000002_Node000009"><a xlink:title=" ">
<path fill="none" stroke="#63b8ff" d="M406.66,-526.92C402.79,-513.74 397.36,-497.17 391,-483 389.56,-479.79 388.06,-476.57 386.5,-473.33"/>
<polygon fill="none" stroke="#63b8ff" points="386.36,-473.04 380.11,-469.44 381.03,-462.29 387.28,-465.89 386.36,-473.04"/>
</a>
</g>
<text text-anchor="middle" x="434" y="-486" font-family="Helvetica,sans-Serif" font-size="10.00" fill="grey"> #_vanish_num</text>
</g>
<!-- Node10 -->
<g id="Node000010" class="node">
<title>Node10</title>
<g id="a_Node000010"><a xlink:href="../../d0/d01/structrm_1_1RMStatus.html" target="_top" xlink:title="状态类型">
<polygon fill="white" stroke="transparent" points="555.5,-591 468.5,-591 468.5,-512 555.5,-512 555.5,-591"/>
<text text-anchor="start" x="479" y="-578.5" font-family="Helvetica,sans-Serif" font-size="10.00">rm::RMStatus</text>
<text text-anchor="start" x="510.5" y="-563.5" font-family="Helvetica,sans-Serif" font-size="10.00"> </text>
<text text-anchor="start" x="473" y="-548.5" font-family="Helvetica,sans-Serif" font-size="10.00">+</text>
<text text-anchor="start" x="486" y="-548.5" font-family="Helvetica,sans-Serif" font-size="10.00">operator==()</text>
<text text-anchor="start" x="473" y="-533.5" font-family="Helvetica,sans-Serif" font-size="10.00">+</text>
<text text-anchor="start" x="486" y="-533.5" font-family="Helvetica,sans-Serif" font-size="10.00">to_string()</text>
<text text-anchor="start" x="473" y="-518.5" font-family="Helvetica,sans-Serif" font-size="10.00">+</text>
<text text-anchor="start" x="486" y="-518.5" font-family="Helvetica,sans-Serif" font-size="10.00">to_string()</text>
<polygon fill="#666666" stroke="#666666" points="469,-573.5 469,-573.5 556,-573.5 556,-573.5 469,-573.5"/>
<polygon fill="#666666" stroke="#666666" points="469,-558.5 469,-558.5 556,-558.5 556,-558.5 469,-558.5"/>
<polygon fill="none" stroke="#666666" points="468.5,-512 468.5,-591 555.5,-591 555.5,-512 468.5,-512"/>
</a>
</g>
</g>
<!-- Node10&#45;&gt;Node2 -->
<g id="edge10_Node000002_Node000010" class="edge">
<title>Node10&#45;&gt;Node2</title>
<g id="a_edge10_Node000002_Node000010"><a xlink:title=" ">
<path fill="none" stroke="#63b8ff" d="M495.06,-511.89C489.74,-501.93 483.32,-491.6 476,-483 451.91,-454.68 419.82,-428.95 391.25,-408.92"/>
<polygon fill="none" stroke="#63b8ff" points="391.2,-408.88 383.99,-408.78 381.32,-402.08 388.53,-402.19 391.2,-408.88"/>
</a>
</g>
<text text-anchor="middle" x="502.5" y="-486" font-family="Helvetica,sans-Serif" font-size="10.00" fill="grey"> #_type</text>
</g>
<!-- Node11 -->
<g id="Node000011" class="node">
<title>Node11</title>
<g id="a_Node000011"><a xlink:title=" ">
<polygon fill="white" stroke="transparent" points="341.5,-687 258.5,-687 258.5,-638 341.5,-638 341.5,-687"/>
<text text-anchor="start" x="264" y="-674.5" font-family="Helvetica,sans-Serif" font-size="10.00">ArmorSizeType</text>
<text text-anchor="start" x="298.5" y="-659.5" font-family="Helvetica,sans-Serif" font-size="10.00"> </text>
<text text-anchor="start" x="298.5" y="-644.5" font-family="Helvetica,sans-Serif" font-size="10.00"> </text>
<polygon fill="#666666" stroke="#666666" points="259,-669.5 259,-669.5 342,-669.5 342,-669.5 259,-669.5"/>
<polygon fill="#666666" stroke="#666666" points="259,-654.5 259,-654.5 342,-654.5 342,-654.5 259,-654.5"/>
<polygon fill="none" stroke="#666666" points="258.5,-638 258.5,-687 341.5,-687 341.5,-638 258.5,-638"/>
</a>
</g>
</g>
<!-- Node11&#45;&gt;Node10 -->
<g id="edge11_Node000010_Node000011" class="edge">
<title>Node11&#45;&gt;Node10</title>
<g id="a_edge11_Node000010_Node000011"><a xlink:title=" ">
<path fill="none" stroke="#63b8ff" d="M309.46,-637.74C314.82,-627.3 322.58,-615.88 333,-609 375.82,-580.76 398.74,-608.38 447,-591 450.47,-589.75 453.96,-588.31 457.42,-586.74"/>
<polygon fill="none" stroke="#63b8ff" points="457.59,-586.66 461.19,-580.42 468.34,-581.34 464.74,-587.59 457.59,-586.66"/>
</a>
</g>
<text text-anchor="middle" x="380.5" y="-612" font-family="Helvetica,sans-Serif" font-size="10.00" fill="grey"> +ArmorSizeTypeID</text>
</g>
<!-- Node12 -->
<g id="Node000012" class="node">
<title>Node12</title>
<g id="a_Node000012"><a xlink:title=" ">
<polygon fill="white" stroke="transparent" points="447,-687 389,-687 389,-638 447,-638 447,-687"/>
<text text-anchor="start" x="394" y="-674.5" font-family="Helvetica,sans-Serif" font-size="10.00">RuneType</text>
<text text-anchor="start" x="416" y="-659.5" font-family="Helvetica,sans-Serif" font-size="10.00"> </text>
<text text-anchor="start" x="416" y="-644.5" font-family="Helvetica,sans-Serif" font-size="10.00"> </text>
<polygon fill="#666666" stroke="#666666" points="389,-669.5 389,-669.5 447,-669.5 447,-669.5 389,-669.5"/>
<polygon fill="#666666" stroke="#666666" points="389,-654.5 389,-654.5 447,-654.5 447,-654.5 389,-654.5"/>
<polygon fill="none" stroke="#666666" points="389,-638 389,-687 447,-687 447,-638 389,-638"/>
</a>
</g>
</g>
<!-- Node12&#45;&gt;Node10 -->
<g id="edge12_Node000010_Node000012" class="edge">
<title>Node12&#45;&gt;Node10</title>
<g id="a_edge12_Node000010_Node000012"><a xlink:title=" ">
<path fill="none" stroke="#63b8ff" d="M423.92,-637.87C427.07,-628.3 431.64,-617.52 438,-609 443.91,-601.08 451.22,-593.72 458.92,-587.11"/>
<polygon fill="none" stroke="#63b8ff" points="459.11,-586.96 461.26,-580.08 468.44,-579.42 466.29,-586.3 459.11,-586.96"/>
</a>
</g>
<text text-anchor="middle" x="473" y="-612" font-family="Helvetica,sans-Serif" font-size="10.00" fill="grey"> +RuneTypeID</text>
</g>
<!-- Node13 -->
<g id="Node000013" class="node">
<title>Node13</title>
<g id="a_Node000013"><a xlink:title=" ">
<polygon fill="white" stroke="transparent" points="560.5,-687 465.5,-687 465.5,-638 560.5,-638 560.5,-687"/>
<text text-anchor="start" x="471" y="-674.5" font-family="Helvetica,sans-Serif" font-size="10.00">CompensateType</text>
<text text-anchor="start" x="511.5" y="-659.5" font-family="Helvetica,sans-Serif" font-size="10.00"> </text>
<text text-anchor="start" x="511.5" y="-644.5" font-family="Helvetica,sans-Serif" font-size="10.00"> </text>
<polygon fill="#666666" stroke="#666666" points="466,-669.5 466,-669.5 561,-669.5 561,-669.5 466,-669.5"/>
<polygon fill="#666666" stroke="#666666" points="466,-654.5 466,-654.5 561,-654.5 561,-654.5 466,-654.5"/>
<polygon fill="none" stroke="#666666" points="465.5,-638 465.5,-687 560.5,-687 560.5,-638 465.5,-638"/>
</a>
</g>
</g>
<!-- Node13&#45;&gt;Node10 -->
<g id="edge13_Node000010_Node000013" class="edge">
<title>Node13&#45;&gt;Node10</title>
<g id="a_edge13_Node000010_Node000013"><a xlink:title=" ">
<path fill="none" stroke="#63b8ff" d="M512.78,-637.85C512.69,-627.72 512.58,-615.47 512.47,-603.45"/>
<polygon fill="none" stroke="#63b8ff" points="512.46,-603.1 508.41,-597.14 512.35,-591.1 516.41,-597.07 512.46,-603.1"/>
</a>
</g>
<text text-anchor="middle" x="565" y="-612" font-family="Helvetica,sans-Serif" font-size="10.00" fill="grey"> +CompensateTypeID</text>
</g>
<!-- Node14 -->
<g id="Node000014" class="node">
<title>Node14</title>
<g id="a_Node000014"><a xlink:title=" ">
<polygon fill="white" stroke="transparent" points="672,-687 610,-687 610,-638 672,-638 672,-687"/>
<text text-anchor="start" x="615" y="-674.5" font-family="Helvetica,sans-Serif" font-size="10.00">RobotType</text>
<text text-anchor="start" x="639" y="-659.5" font-family="Helvetica,sans-Serif" font-size="10.00"> </text>
<text text-anchor="start" x="639" y="-644.5" font-family="Helvetica,sans-Serif" font-size="10.00"> </text>
<polygon fill="#666666" stroke="#666666" points="610,-669.5 610,-669.5 672,-669.5 672,-669.5 610,-669.5"/>
<polygon fill="#666666" stroke="#666666" points="610,-654.5 610,-654.5 672,-654.5 672,-654.5 610,-654.5"/>
<polygon fill="none" stroke="#666666" points="610,-638 610,-687 672,-687 672,-638 610,-638"/>
</a>
</g>
</g>
<!-- Node14&#45;&gt;Node10 -->
<g id="edge14_Node000010_Node000014" class="edge">
<title>Node14&#45;&gt;Node10</title>
<g id="a_edge14_Node000010_Node000014"><a xlink:title=" ">
<path fill="none" stroke="#63b8ff" d="M634.95,-637.84C631.52,-628.04 626.4,-617.09 619,-609 604.73,-593.39 585.13,-581.33 566.61,-572.42"/>
<polygon fill="none" stroke="#63b8ff" points="566.5,-572.38 559.38,-573.54 555.57,-567.42 562.69,-566.25 566.5,-572.38"/>
</a>
</g>
<text text-anchor="middle" x="662.5" y="-612" font-family="Helvetica,sans-Serif" font-size="10.00" fill="grey"> +RobotTypeID</text>
</g>
<!-- Node15 -->
<g id="Node000015" class="node">
<title>Node15</title>
<g id="a_Node000015"><a xlink:title=" ">
<polygon fill="white" stroke="transparent" points="762,-687 712,-687 712,-638 762,-638 762,-687"/>
<text text-anchor="start" x="717" y="-674.5" font-family="Helvetica,sans-Serif" font-size="10.00">TagType</text>
<text text-anchor="start" x="735" y="-659.5" font-family="Helvetica,sans-Serif" font-size="10.00"> </text>
<text text-anchor="start" x="735" y="-644.5" font-family="Helvetica,sans-Serif" font-size="10.00"> </text>
<polygon fill="#666666" stroke="#666666" points="712,-669.5 712,-669.5 762,-669.5 762,-669.5 712,-669.5"/>
<polygon fill="#666666" stroke="#666666" points="712,-654.5 712,-654.5 762,-654.5 762,-654.5 712,-654.5"/>
<polygon fill="none" stroke="#666666" points="712,-638 712,-687 762,-687 762,-638 712,-638"/>
</a>
</g>
</g>
<!-- Node15&#45;&gt;Node10 -->
<g id="edge15_Node000010_Node000015" class="edge">
<title>Node15&#45;&gt;Node10</title>
<g id="a_edge15_Node000010_Node000015"><a xlink:title=" ">
<path fill="none" stroke="#63b8ff" d="M726.37,-637.8C720.74,-627.63 712.92,-616.41 703,-609 663.38,-579.39 608.4,-565.23 567.6,-558.5"/>
<polygon fill="none" stroke="#63b8ff" points="567.56,-558.49 561.02,-561.54 555.69,-556.68 562.23,-553.63 567.56,-558.49"/>
</a>
</g>
<text text-anchor="middle" x="743.5" y="-612" font-family="Helvetica,sans-Serif" font-size="10.00" fill="grey"> +TagTypeID</text>
</g>
</g>
</svg>

<g id="navigator" transform="translate(0 0)" fill="#404254">
  <rect fill="#f2f5e9" fill-opacity="0.5" stroke="#606060" stroke-width=".5" x="0" y="0" width="60" height="60"/>
  <use id="zoomplus" xlink:href="#zoomPlus" x="17" y="9" onmousedown="handleZoom(evt,'in')"/>
  <use id="zoomminus" xlink:href="#zoomMin" x="42" y="9" onmousedown="handleZoom(evt,'out')"/>
  <use id="reset" xlink:href="#resetDef" x="30" y="36" onmousedown="handleReset()"/>
   <use id="arrowup" xlink:href="#arrowUp" x="0" y="0" onmousedown="handlePan(0,-1)"/>
  <use id="arrowright" xlink:href="#arrowRight" x="0" y="0" onmousedown="handlePan(1,0)"/>
  <use id="arrowdown" xlink:href="#arrowDown" x="0" y="0" onmousedown="handlePan(0,1)"/>
  <use id="arrowleft" xlink:href="#arrowLeft" x="0" y="0" onmousedown="handlePan(-1,0)"/>
</g>
<svg viewBox="0 0 15 15" width="100%" height="30px" preserveAspectRatio="xMaxYMin meet">
 <g id="arrow_out" transform="scale(0.3 0.3)">
  <a xlink:href="classrm_1_1GyroGroup__coll__graph_org.svg" target="_base">
   <rect id="button" ry="5" rx="5" y="6" x="6" height="38" width="38"
        fill="#f2f5e9" fill-opacity="0.5" stroke="#606060" stroke-width="1.0"/>
   <path id="arrow"
     d="M 11.500037,31.436501 C 11.940474,20.09759 22.043105,11.32322 32.158766,21.979434 L 37.068811,17.246167 C 37.068811,17.246167 37.088388,32 37.088388,32 L 22.160133,31.978069 C 22.160133,31.978069 26.997745,27.140456 26.997745,27.140456 C 18.528582,18.264221 13.291696,25.230495 11.500037,31.436501 z"
     style="fill:#404040;"/>
  </a>
 </g>
</svg>

<style type='text/css'>
<![CDATA[
[data-mouse-over-selected='false'] { opacity: 0.7; }
[data-mouse-over-selected='true']  { opacity: 1.0; }
]]>
</style>
<script type="application/ecmascript"><![CDATA[
document.addEventListener('DOMContentLoaded', (event) => {
  highlightEdges();
  highlightAdjacentNodes();
});
]]></script>
</svg>
