<?xml version="1.0" encoding="UTF-8" standalone="no"?>
<!DOCTYPE svg PUBLIC "-//W3C//DTD SVG 1.1//EN"
 "http://www.w3.org/Graphics/SVG/1.1/DTD/svg11.dtd">
<!-- Generated by graphviz version 2.43.0 (0)
 -->
<!-- Title: rm::msg::TF Pages: 1 -->
<!--zoomable 754 -->

<svg id="main" version="1.1" xmlns="http://www.w3.org/2000/svg" xmlns:xlink="http://www.w3.org/1999/xlink" xml:space="preserve" onload="init(evt)">

<style type="text/css"><![CDATA[
.node, .edge {opacity: 0.7;}
.node.selected, .edge.selected {opacity: 1;}
.edge:hover path { stroke: red; }
.edge:hover polygon { stroke: red; fill: red; }
]]></style>

<defs>
  <circle id="rim" cx="0" cy="0" r="7"/>
  <circle id="rim2" cx="0" cy="0" r="3.5"/>
  <g id="zoomPlus">
    <use xlink:href="#rim" fill="#404040"><set attributeName="fill" to="#808080" begin="zoomplus.mouseover" end="zoomplus.mouseout"/></use>
    <path d="M-4,0h8M0,-4v8" fill="none" stroke="white" stroke-width="1.5" pointer-events="none"/>
  </g>
  <g id="zoomMin">
    <use xlink:href="#rim" fill="#404040"><set attributeName="fill" to="#808080" begin="zoomminus.mouseover" end="zoomminus.mouseout"/></use>
    <path d="M-4,0h8" fill="none" stroke="white" stroke-width="1.5" pointer-events="none"/>
  </g>
  <g id="arrowUp" transform="translate(30 24)">
    <use xlink:href="#rim"/>
    <path pointer-events="none" fill="none" stroke="white" stroke-width="1.5" d="M0,-3.0v7 M-2.5,-0.5L0,-3.0L2.5,-0.5"/>
  </g>
  <g id="arrowRight" transform="rotate(90) translate(36 -43)">
    <use xlink:href="#rim"/>
    <path pointer-events="none" fill="none" stroke="white" stroke-width="1.5" d="M0,-3.0v7 M-2.5,-0.5L0,-3.0L2.5,-0.5"/>
  </g>
  <g id="arrowDown" transform="rotate(180) translate(-30 -48)">
    <use xlink:href="#rim"/>
    <path pointer-events="none" fill="none" stroke="white" stroke-width="1.5" d="M0,-3.0v7 M-2.5,-0.5L0,-3.0L2.5,-0.5"/>
  </g>
  <g id="arrowLeft" transform="rotate(270) translate(-36 17)">
    <use xlink:href="#rim"/>
    <path pointer-events="none" fill="none" stroke="white" stroke-width="1.5" d="M0,-3.0v7 M-2.5,-0.5L0,-3.0L2.5,-0.5"/>
  </g>
  <g id="resetDef">
    <use xlink:href="#rim2" fill="#404040"><set attributeName="fill" to="#808080" begin="reset.mouseover" end="reset.mouseout"/></use>
  </g>
</defs>
<script type="application/ecmascript">
var viewWidth = 822;
var viewHeight = 754;
var sectionId = 'dynsection-0';
</script>
<script type="application/ecmascript" xlink:href="../../svg.min.js"/>
<svg id="graph" class="graph">
<g id="viewport">
<title>rm::msg::TF</title>
<!-- Node1 -->
<g id="Node000001" class="node">
<title>Node1</title>
<g id="a_Node000001"><a xlink:title="TF 消息类型：motion/TF">
<polygon fill="#999999" stroke="transparent" points="141.5,-79 55.5,-79 55.5,0 141.5,0 141.5,-79"/>
<text text-anchor="start" x="71" y="-66.5" font-family="Helvetica,sans-Serif" font-size="10.00">rm::msg::TF</text>
<text text-anchor="start" x="96.5" y="-51.5" font-family="Helvetica,sans-Serif" font-size="10.00"> </text>
<text text-anchor="start" x="59.5" y="-36.5" font-family="Helvetica,sans-Serif" font-size="10.00">+</text>
<text text-anchor="start" x="70.5" y="-36.5" font-family="Helvetica,sans-Serif" font-size="10.00">serialize()</text>
<text text-anchor="start" x="59.5" y="-21.5" font-family="Helvetica,sans-Serif" font-size="10.00">+</text>
<text text-anchor="start" x="70.5" y="-21.5" font-family="Helvetica,sans-Serif" font-size="10.00">compact_size()</text>
<text text-anchor="start" x="59.5" y="-6.5" font-family="Helvetica,sans-Serif" font-size="10.00">+</text>
<text text-anchor="start" x="70.5" y="-6.5" font-family="Helvetica,sans-Serif" font-size="10.00">deserialize()</text>
<polygon fill="#666666" stroke="#666666" points="55.5,-61.5 55.5,-61.5 141.5,-61.5 141.5,-61.5 55.5,-61.5"/>
<polygon fill="#666666" stroke="#666666" points="55.5,-46.5 55.5,-46.5 141.5,-46.5 141.5,-46.5 55.5,-46.5"/>
<polygon fill="none" stroke="#666666" points="55.5,0 55.5,-79 141.5,-79 141.5,0 55.5,0"/>
</a>
</g>
</g>
<!-- Node2 -->
<g id="Node000002" class="node">
<title>Node2</title>
<g id="a_Node000002"><a xlink:title=" ">
<polygon fill="white" stroke="transparent" points="207,-192 98,-192 98,-132 207,-132 207,-192"/>
<text text-anchor="start" x="103.5" y="-180" font-family="Helvetica,sans-Serif" font-size="10.00">std::vector&lt; rm::msg</text>
<text text-anchor="start" x="103.5" y="-169" font-family="Helvetica,sans-Serif" font-size="10.00">::TransformStamped &gt;</text>
<text text-anchor="start" x="151" y="-154" font-family="Helvetica,sans-Serif" font-size="10.00"> </text>
<text text-anchor="start" x="151" y="-139" font-family="Helvetica,sans-Serif" font-size="10.00"> </text>
<polygon fill="#666666" stroke="#666666" points="98.5,-164 98.5,-164 207.5,-164 207.5,-164 98.5,-164"/>
<polygon fill="#666666" stroke="#666666" points="98.5,-149 98.5,-149 207.5,-149 207.5,-149 98.5,-149"/>
<polygon fill="none" stroke="#666666" points="98,-132 98,-192 207,-192 207,-132 98,-132"/>
</a>
</g>
</g>
<!-- Node2&#45;&gt;Node1 -->
<g id="edge1_Node000001_Node000002" class="edge">
<title>Node2&#45;&gt;Node1</title>
<g id="a_edge1_Node000001_Node000002"><a xlink:title=" ">
<path fill="none" stroke="#63b8ff" d="M139.43,-131.83C133.86,-119.41 127.21,-104.56 120.9,-90.48"/>
<polygon fill="none" stroke="#63b8ff" points="120.85,-90.37 114.74,-86.53 115.94,-79.42 122.05,-83.26 120.85,-90.37"/>
</a>
</g>
<text text-anchor="start" x="134" y="-102.5" font-family="Helvetica,sans-Serif" font-size="10.00" fill="grey">+transforms</text>
</g>
<!-- Node3 -->
<g id="Node000003" class="node">
<title>Node3</title>
<g id="a_Node000003"><a xlink:href="../../db/d5d/classrm_1_1msg_1_1TransformStamped.html" target="_top" xlink:title="TransformStamped 消息类型：geometry/TransformStamped">
<polygon fill="white" stroke="transparent" points="414.5,-324 278.5,-324 278.5,-245 414.5,-245 414.5,-324"/>
<text text-anchor="start" x="283.5" y="-311.5" font-family="Helvetica,sans-Serif" font-size="10.00">rm::msg::TransformStamped</text>
<text text-anchor="start" x="344.5" y="-296.5" font-family="Helvetica,sans-Serif" font-size="10.00"> </text>
<text text-anchor="start" x="295" y="-281.5" font-family="Helvetica,sans-Serif" font-size="10.00">+</text>
<text text-anchor="start" x="318.5" y="-281.5" font-family="Helvetica,sans-Serif" font-size="10.00">serialize()</text>
<text text-anchor="start" x="295" y="-266.5" font-family="Helvetica,sans-Serif" font-size="10.00">+</text>
<text text-anchor="start" x="318.5" y="-266.5" font-family="Helvetica,sans-Serif" font-size="10.00">compact_size()</text>
<text text-anchor="start" x="295" y="-251.5" font-family="Helvetica,sans-Serif" font-size="10.00">+</text>
<text text-anchor="start" x="318.5" y="-251.5" font-family="Helvetica,sans-Serif" font-size="10.00">deserialize()</text>
<polygon fill="#666666" stroke="#666666" points="278.5,-306.5 278.5,-306.5 414.5,-306.5 414.5,-306.5 278.5,-306.5"/>
<polygon fill="#666666" stroke="#666666" points="278.5,-291.5 278.5,-291.5 414.5,-291.5 414.5,-291.5 278.5,-291.5"/>
<polygon fill="none" stroke="#666666" points="278.5,-245 278.5,-324 414.5,-324 414.5,-245 278.5,-245"/>
</a>
</g>
</g>
<!-- Node3&#45;&gt;Node2 -->
<g id="edge2_Node000002_Node000003" class="edge">
<title>Node3&#45;&gt;Node2</title>
<g id="a_edge2_Node000002_Node000003"><a xlink:title=" ">
<path fill="none" stroke="#63b8ff" d="M331.84,-244.74C325.43,-232.15 316.75,-219.1 305.5,-210 280.91,-190.11 247.94,-178.62 218.9,-171.99"/>
<polygon fill="none" stroke="#63b8ff" points="218.9,-171.99 212.21,-174.66 207.16,-169.51 213.85,-166.83 218.9,-171.99"/>
</a>
</g>
<text text-anchor="start" x="323.5" y="-215.5" font-family="Helvetica,sans-Serif" font-size="10.00" fill="grey">+elements</text>
</g>
<!-- Node4 -->
<g id="Node000004" class="node">
<title>Node4</title>
<g id="a_Node000004"><a xlink:href="../../de/de3/classrm_1_1msg_1_1Header.html" target="_top" xlink:title="Header 消息类型：std/Header">
<polygon fill="white" stroke="transparent" points="389.5,-456 303.5,-456 303.5,-377 389.5,-377 389.5,-456"/>
<text text-anchor="start" x="309.5" y="-443.5" font-family="Helvetica,sans-Serif" font-size="10.00">rm::msg::Header</text>
<text text-anchor="start" x="344.5" y="-428.5" font-family="Helvetica,sans-Serif" font-size="10.00"> </text>
<text text-anchor="start" x="307.5" y="-413.5" font-family="Helvetica,sans-Serif" font-size="10.00">+</text>
<text text-anchor="start" x="318.5" y="-413.5" font-family="Helvetica,sans-Serif" font-size="10.00">serialize()</text>
<text text-anchor="start" x="307.5" y="-398.5" font-family="Helvetica,sans-Serif" font-size="10.00">+</text>
<text text-anchor="start" x="318.5" y="-398.5" font-family="Helvetica,sans-Serif" font-size="10.00">compact_size()</text>
<text text-anchor="start" x="307.5" y="-383.5" font-family="Helvetica,sans-Serif" font-size="10.00">+</text>
<text text-anchor="start" x="318.5" y="-383.5" font-family="Helvetica,sans-Serif" font-size="10.00">deserialize()</text>
<polygon fill="#666666" stroke="#666666" points="303.5,-438.5 303.5,-438.5 389.5,-438.5 389.5,-438.5 303.5,-438.5"/>
<polygon fill="#666666" stroke="#666666" points="303.5,-423.5 303.5,-423.5 389.5,-423.5 389.5,-423.5 303.5,-423.5"/>
<polygon fill="none" stroke="#666666" points="303.5,-377 303.5,-456 389.5,-456 389.5,-377 303.5,-377"/>
</a>
</g>
</g>
<!-- Node4&#45;&gt;Node3 -->
<g id="edge3_Node000003_Node000004" class="edge">
<title>Node4&#45;&gt;Node3</title>
<g id="a_edge3_Node000003_Node000004"><a xlink:title=" ">
<path fill="none" stroke="#63b8ff" d="M346.5,-376.85C346.5,-364.13 346.5,-349.78 346.5,-336.3"/>
<polygon fill="none" stroke="#63b8ff" points="346.5,-336.23 342.5,-330.23 346.5,-324.23 350.5,-330.23 346.5,-336.23"/>
</a>
</g>
<text text-anchor="start" x="349.5" y="-347.5" font-family="Helvetica,sans-Serif" font-size="10.00" fill="grey">+header</text>
</g>
<!-- Node5 -->
<g id="Node000005" class="node">
<title>Node5</title>
<g id="a_Node000005"><a xlink:title=" ">
<polygon fill="white" stroke="transparent" points="313,-573 268,-573 268,-524 313,-524 313,-573"/>
<text text-anchor="start" x="273.5" y="-560.5" font-family="Helvetica,sans-Serif" font-size="10.00">uint32_t</text>
<text text-anchor="start" x="289" y="-545.5" font-family="Helvetica,sans-Serif" font-size="10.00"> </text>
<text text-anchor="start" x="289" y="-530.5" font-family="Helvetica,sans-Serif" font-size="10.00"> </text>
<polygon fill="#666666" stroke="#666666" points="268.5,-555.5 268.5,-555.5 313.5,-555.5 313.5,-555.5 268.5,-555.5"/>
<polygon fill="#666666" stroke="#666666" points="268.5,-540.5 268.5,-540.5 313.5,-540.5 313.5,-540.5 268.5,-540.5"/>
<polygon fill="none" stroke="#666666" points="268,-524 268,-573 313,-573 313,-524 268,-524"/>
</a>
</g>
</g>
<!-- Node5&#45;&gt;Node4 -->
<g id="edge4_Node000004_Node000005" class="edge">
<title>Node5&#45;&gt;Node4</title>
<g id="a_edge4_Node000004_Node000005"><a xlink:title=" ">
<path fill="none" stroke="#63b8ff" d="M293.63,-523.94C296.15,-509.15 300.47,-489.94 307.5,-474 308.58,-471.56 309.76,-469.12 311.03,-466.7"/>
<polygon fill="none" stroke="#63b8ff" points="311.07,-466.62 310.57,-459.43 317.02,-456.21 317.52,-463.4 311.07,-466.62"/>
</a>
</g>
<text text-anchor="start" x="310.5" y="-479.5" font-family="Helvetica,sans-Serif" font-size="10.00" fill="grey">+seq</text>
</g>
<!-- Node6 -->
<g id="Node000006" class="node">
<title>Node6</title>
<g id="a_Node000006"><a xlink:title=" ">
<polygon fill="white" stroke="transparent" points="462.5,-573 422.5,-573 422.5,-524 462.5,-524 462.5,-573"/>
<text text-anchor="start" x="427.5" y="-560.5" font-family="Helvetica,sans-Serif" font-size="10.00">int64_t</text>
<text text-anchor="start" x="440.5" y="-545.5" font-family="Helvetica,sans-Serif" font-size="10.00"> </text>
<text text-anchor="start" x="440.5" y="-530.5" font-family="Helvetica,sans-Serif" font-size="10.00"> </text>
<polygon fill="#666666" stroke="#666666" points="422.5,-555.5 422.5,-555.5 462.5,-555.5 462.5,-555.5 422.5,-555.5"/>
<polygon fill="#666666" stroke="#666666" points="422.5,-540.5 422.5,-540.5 462.5,-540.5 462.5,-540.5 422.5,-540.5"/>
<polygon fill="none" stroke="#666666" points="422.5,-524 422.5,-573 462.5,-573 462.5,-524 422.5,-524"/>
</a>
</g>
</g>
<!-- Node6&#45;&gt;Node4 -->
<g id="edge5_Node000004_Node000006" class="edge">
<title>Node6&#45;&gt;Node4</title>
<g id="a_edge5_Node000004_Node000006"><a xlink:title=" ">
<path fill="none" stroke="#63b8ff" d="M425.12,-523.96C413.19,-507.81 396.94,-485.8 382.3,-465.98"/>
<polygon fill="none" stroke="#63b8ff" points="382.18,-465.82 375.4,-463.37 375.05,-456.17 381.84,-458.62 382.18,-465.82"/>
</a>
</g>
<text text-anchor="start" x="402.5" y="-479.5" font-family="Helvetica,sans-Serif" font-size="10.00" fill="grey">+stamp</text>
</g>
<!-- Node7 -->
<g id="Node000007" class="node">
<title>Node7</title>
<g id="a_Node000007"><a xlink:title=" ">
<polygon fill="white" stroke="transparent" points="227.5,-573 173.5,-573 173.5,-524 227.5,-524 227.5,-573"/>
<text text-anchor="start" x="178.5" y="-560.5" font-family="Helvetica,sans-Serif" font-size="10.00">std::string</text>
<text text-anchor="start" x="198.5" y="-545.5" font-family="Helvetica,sans-Serif" font-size="10.00"> </text>
<text text-anchor="start" x="198.5" y="-530.5" font-family="Helvetica,sans-Serif" font-size="10.00"> </text>
<polygon fill="#666666" stroke="#666666" points="173.5,-555.5 173.5,-555.5 227.5,-555.5 227.5,-555.5 173.5,-555.5"/>
<polygon fill="#666666" stroke="#666666" points="173.5,-540.5 173.5,-540.5 227.5,-540.5 227.5,-540.5 173.5,-540.5"/>
<polygon fill="none" stroke="#666666" points="173.5,-524 173.5,-573 227.5,-573 227.5,-524 173.5,-524"/>
</a>
</g>
</g>
<!-- Node7&#45;&gt;Node3 -->
<g id="edge9_Node000003_Node000007" class="edge">
<title>Node7&#45;&gt;Node3</title>
<g id="a_edge9_Node000003_Node000007"><a xlink:title=" ">
<path fill="none" stroke="#63b8ff" d="M197.21,-523.87C193.59,-489.14 191.45,-423.42 218.5,-377 230.45,-356.5 249.02,-339.38 268.35,-325.7"/>
<polygon fill="none" stroke="#63b8ff" points="268.55,-325.57 271.29,-318.9 278.5,-318.86 275.76,-325.53 268.55,-325.57"/>
</a>
</g>
<text text-anchor="start" x="221.5" y="-413.5" font-family="Helvetica,sans-Serif" font-size="10.00" fill="grey">+child_frame_id</text>
</g>
<!-- Node7&#45;&gt;Node4 -->
<g id="edge6_Node000004_Node000007" class="edge">
<title>Node7&#45;&gt;Node4</title>
<g id="a_edge6_Node000004_Node000007"><a xlink:title=" ">
<path fill="none" stroke="#63b8ff" d="M211.35,-523.96C219.52,-508.25 231.96,-487.98 247.5,-474 260.8,-462.03 267.85,-464.67 283.5,-456 286.55,-454.31 289.66,-452.55 292.79,-450.74"/>
<polygon fill="none" stroke="#63b8ff" points="293.06,-450.58 296.21,-444.09 303.41,-444.5 300.26,-450.99 293.06,-450.58"/>
</a>
</g>
<text text-anchor="start" x="250.5" y="-479.5" font-family="Helvetica,sans-Serif" font-size="10.00" fill="grey">+frame_id</text>
</g>
<!-- Node8 -->
<g id="Node000008" class="node">
<title>Node8</title>
<g id="a_Node000008"><a xlink:title=" ">
<polygon fill="white" stroke="transparent" points="89,-746 0,-746 0,-686 89,-686 89,-746"/>
<text text-anchor="start" x="5.5" y="-734" font-family="Helvetica,sans-Serif" font-size="10.00">std::basic_string&lt;</text>
<text text-anchor="start" x="28" y="-723" font-family="Helvetica,sans-Serif" font-size="10.00"> Char &gt;</text>
<text text-anchor="start" x="43" y="-708" font-family="Helvetica,sans-Serif" font-size="10.00"> </text>
<text text-anchor="start" x="43" y="-693" font-family="Helvetica,sans-Serif" font-size="10.00"> </text>
<polygon fill="#666666" stroke="#666666" points="0.5,-718 0.5,-718 89.5,-718 89.5,-718 0.5,-718"/>
<polygon fill="#666666" stroke="#666666" points="0.5,-703 0.5,-703 89.5,-703 89.5,-703 0.5,-703"/>
<polygon fill="none" stroke="#666666" points="0,-686 0,-746 89,-746 89,-686 0,-686"/>
</a>
</g>
</g>
<!-- Node8&#45;&gt;Node7 -->
<g id="edge7_Node000007_Node000008" class="edge">
<title>Node8&#45;&gt;Node7</title>
<g id="a_edge7_Node000007_Node000008"><a xlink:title=" ">
<path fill="none" stroke="#63b8ff" d="M79.05,-678.35C109.31,-646.24 152.4,-600.53 178.29,-573.07"/>
<polygon fill="none" stroke="#63b8ff" points="76.34,-676.12 72.03,-685.79 81.44,-680.92 76.34,-676.12"/>
</a>
</g>
</g>
<!-- Node9 -->
<g id="Node000009" class="node">
<title>Node9</title>
<g id="a_Node000009"><a xlink:title=" ">
<polygon fill="white" stroke="transparent" points="528,-740.5 499,-740.5 499,-691.5 528,-691.5 528,-740.5"/>
<text text-anchor="start" x="504.5" y="-728" font-family="Helvetica,sans-Serif" font-size="10.00">char</text>
<text text-anchor="start" x="512" y="-713" font-family="Helvetica,sans-Serif" font-size="10.00"> </text>
<text text-anchor="start" x="512" y="-698" font-family="Helvetica,sans-Serif" font-size="10.00"> </text>
<polygon fill="#666666" stroke="#666666" points="499.5,-723 499.5,-723 528.5,-723 528.5,-723 499.5,-723"/>
<polygon fill="#666666" stroke="#666666" points="499.5,-708 499.5,-708 528.5,-708 528.5,-708 499.5,-708"/>
<polygon fill="none" stroke="#666666" points="499,-691.5 499,-740.5 528,-740.5 528,-691.5 499,-691.5"/>
</a>
</g>
</g>
<!-- Node9&#45;&gt;Node1 -->
<g id="edge21_Node000001_Node000009" class="edge">
<title>Node9&#45;&gt;Node1</title>
<g id="a_edge21_Node000001_Node000009"><a xlink:title=" ">
<path fill="none" stroke="#63b8ff" d="M498.73,-712.86C421.69,-701.29 69.5,-643.28 69.5,-549.5 69.5,-549.5 69.5,-549.5 69.5,-161 69.5,-137.51 74.77,-112.14 80.83,-90.76"/>
<polygon fill="none" stroke="#63b8ff" points="80.9,-90.51 78.79,-83.61 84.34,-79.01 86.45,-85.9 80.9,-90.51"/>
</a>
</g>
<text text-anchor="start" x="73" y="-347.5" font-family="Helvetica,sans-Serif" font-size="10.00" fill="grey">+msg_type</text>
</g>
<!-- Node9&#45;&gt;Node3 -->
<g id="edge18_Node000003_Node000009" class="edge">
<title>Node9&#45;&gt;Node3</title>
<g id="a_edge18_Node000003_Node000009"><a xlink:title=" ">
<path fill="none" stroke="#63b8ff" d="M510.57,-691.35C505.34,-652.54 492.89,-573.24 471.5,-509 445.56,-431.1 436.29,-411.45 392.5,-342 390.79,-339.29 388.96,-336.55 387.07,-333.83"/>
<polygon fill="none" stroke="#63b8ff" points="387.03,-333.78 380.26,-331.31 379.94,-324.1 386.71,-326.58 387.03,-333.78"/>
</a>
</g>
<text text-anchor="start" x="468" y="-479.5" font-family="Helvetica,sans-Serif" font-size="10.00" fill="grey">+msg_type</text>
</g>
<!-- Node9&#45;&gt;Node4 -->
<g id="edge8_Node000004_Node000009" class="edge">
<title>Node9&#45;&gt;Node4</title>
<g id="a_edge8_Node000004_Node000009"><a xlink:title=" ">
<path fill="none" stroke="#63b8ff" d="M498.6,-708.06C466.32,-692.12 390.3,-649.49 358.5,-588 339.42,-551.1 337.62,-503.57 339.9,-468.07"/>
<polygon fill="none" stroke="#63b8ff" points="339.91,-468.02 336.4,-461.72 340.86,-456.05 344.37,-462.35 339.91,-468.02"/>
</a>
</g>
<text text-anchor="start" x="362" y="-545.5" font-family="Helvetica,sans-Serif" font-size="10.00" fill="grey">+msg_type</text>
</g>
<!-- Node10 -->
<g id="Node000010" class="node">
<title>Node10</title>
<g id="a_Node000010"><a xlink:href="../../df/d0f/classrm_1_1msg_1_1Transform.html" target="_top" xlink:title="Transform 消息类型：geometry/Transform">
<polygon fill="white" stroke="transparent" points="643,-456 546,-456 546,-377 643,-377 643,-456"/>
<text text-anchor="start" x="551.5" y="-443.5" font-family="Helvetica,sans-Serif" font-size="10.00">rm::msg::Transform</text>
<text text-anchor="start" x="593" y="-428.5" font-family="Helvetica,sans-Serif" font-size="10.00"> </text>
<text text-anchor="start" x="553" y="-413.5" font-family="Helvetica,sans-Serif" font-size="10.00">+</text>
<text text-anchor="start" x="566.5" y="-413.5" font-family="Helvetica,sans-Serif" font-size="10.00">serialize()</text>
<text text-anchor="start" x="553" y="-398.5" font-family="Helvetica,sans-Serif" font-size="10.00">+</text>
<text text-anchor="start" x="566.5" y="-398.5" font-family="Helvetica,sans-Serif" font-size="10.00">compact_size()</text>
<text text-anchor="start" x="553" y="-383.5" font-family="Helvetica,sans-Serif" font-size="10.00">+</text>
<text text-anchor="start" x="566.5" y="-383.5" font-family="Helvetica,sans-Serif" font-size="10.00">deserialize()</text>
<polygon fill="#666666" stroke="#666666" points="546.5,-438.5 546.5,-438.5 643.5,-438.5 643.5,-438.5 546.5,-438.5"/>
<polygon fill="#666666" stroke="#666666" points="546.5,-423.5 546.5,-423.5 643.5,-423.5 643.5,-423.5 546.5,-423.5"/>
<polygon fill="none" stroke="#666666" points="546,-377 546,-456 643,-456 643,-377 546,-377"/>
</a>
</g>
</g>
<!-- Node9&#45;&gt;Node10 -->
<g id="edge17_Node000010_Node000009" class="edge">
<title>Node9&#45;&gt;Node10</title>
<g id="a_edge17_Node000010_Node000009"><a xlink:title=" ">
<path fill="none" stroke="#63b8ff" d="M514.6,-691.22C516.96,-652.23 524.2,-572.67 545.5,-509 550.23,-494.85 557.03,-480.28 564.07,-467.04"/>
<polygon fill="none" stroke="#63b8ff" points="564.21,-466.79 563.59,-459.6 569.99,-456.27 570.6,-463.46 564.21,-466.79"/>
</a>
</g>
<text text-anchor="start" x="549" y="-545.5" font-family="Helvetica,sans-Serif" font-size="10.00" fill="grey">+msg_type</text>
</g>
<!-- Node11 -->
<g id="Node000011" class="node">
<title>Node11</title>
<g id="a_Node000011"><a xlink:href="../../d3/d5d/classrm_1_1msg_1_1Vector3.html" target="_top" xlink:title="Vector3 消息类型：geometry/Vector3">
<polygon fill="white" stroke="transparent" points="695.5,-588 609.5,-588 609.5,-509 695.5,-509 695.5,-588"/>
<text text-anchor="start" x="614.5" y="-575.5" font-family="Helvetica,sans-Serif" font-size="10.00">rm::msg::Vector3</text>
<text text-anchor="start" x="650.5" y="-560.5" font-family="Helvetica,sans-Serif" font-size="10.00"> </text>
<text text-anchor="start" x="613.5" y="-545.5" font-family="Helvetica,sans-Serif" font-size="10.00">+</text>
<text text-anchor="start" x="624.5" y="-545.5" font-family="Helvetica,sans-Serif" font-size="10.00">serialize()</text>
<text text-anchor="start" x="613.5" y="-530.5" font-family="Helvetica,sans-Serif" font-size="10.00">+</text>
<text text-anchor="start" x="624.5" y="-530.5" font-family="Helvetica,sans-Serif" font-size="10.00">compact_size()</text>
<text text-anchor="start" x="613.5" y="-515.5" font-family="Helvetica,sans-Serif" font-size="10.00">+</text>
<text text-anchor="start" x="624.5" y="-515.5" font-family="Helvetica,sans-Serif" font-size="10.00">deserialize()</text>
<polygon fill="#666666" stroke="#666666" points="609.5,-570.5 609.5,-570.5 695.5,-570.5 695.5,-570.5 609.5,-570.5"/>
<polygon fill="#666666" stroke="#666666" points="609.5,-555.5 609.5,-555.5 695.5,-555.5 695.5,-555.5 609.5,-555.5"/>
<polygon fill="none" stroke="#666666" points="609.5,-509 609.5,-588 695.5,-588 695.5,-509 609.5,-509"/>
</a>
</g>
</g>
<!-- Node9&#45;&gt;Node11 -->
<g id="edge13_Node000011_Node000009" class="edge">
<title>Node9&#45;&gt;Node11</title>
<g id="a_edge13_Node000011_Node000009"><a xlink:title=" ">
<path fill="none" stroke="#63b8ff" d="M528.28,-697.01C534.76,-688.55 542.09,-678.13 547.5,-668 561.35,-642.08 552.45,-629.19 570.5,-606 571.16,-605.15 583.84,-596.33 599.04,-585.9"/>
<polygon fill="none" stroke="#63b8ff" points="599.38,-585.66 602.07,-578.97 609.28,-578.88 606.59,-585.57 599.38,-585.66"/>
</a>
</g>
<text text-anchor="start" x="574" y="-634" font-family="Helvetica,sans-Serif" font-size="10.00" fill="grey">+msg_type</text>
</g>
<!-- Node13 -->
<g id="Node000013" class="node">
<title>Node13</title>
<g id="a_Node000013"><a xlink:href="../../d1/dbe/classrm_1_1msg_1_1Quaternion.html" target="_top" xlink:title="Quaternion 消息类型：geometry/Quaternion">
<polygon fill="white" stroke="transparent" points="813.5,-588 713.5,-588 713.5,-509 813.5,-509 813.5,-588"/>
<text text-anchor="start" x="718.5" y="-575.5" font-family="Helvetica,sans-Serif" font-size="10.00">rm::msg::Quaternion</text>
<text text-anchor="start" x="761.5" y="-560.5" font-family="Helvetica,sans-Serif" font-size="10.00"> </text>
<text text-anchor="start" x="721" y="-545.5" font-family="Helvetica,sans-Serif" font-size="10.00">+</text>
<text text-anchor="start" x="735.5" y="-545.5" font-family="Helvetica,sans-Serif" font-size="10.00">serialize()</text>
<text text-anchor="start" x="721" y="-530.5" font-family="Helvetica,sans-Serif" font-size="10.00">+</text>
<text text-anchor="start" x="735.5" y="-530.5" font-family="Helvetica,sans-Serif" font-size="10.00">compact_size()</text>
<text text-anchor="start" x="721" y="-515.5" font-family="Helvetica,sans-Serif" font-size="10.00">+</text>
<text text-anchor="start" x="735.5" y="-515.5" font-family="Helvetica,sans-Serif" font-size="10.00">deserialize()</text>
<polygon fill="#666666" stroke="#666666" points="713.5,-570.5 713.5,-570.5 813.5,-570.5 813.5,-570.5 713.5,-570.5"/>
<polygon fill="#666666" stroke="#666666" points="713.5,-555.5 713.5,-555.5 813.5,-555.5 813.5,-555.5 713.5,-555.5"/>
<polygon fill="none" stroke="#666666" points="713.5,-509 713.5,-588 813.5,-588 813.5,-509 713.5,-509"/>
</a>
</g>
</g>
<!-- Node9&#45;&gt;Node13 -->
<g id="edge16_Node000013_Node000009" class="edge">
<title>Node9&#45;&gt;Node13</title>
<g id="a_edge16_Node000013_Node000009"><a xlink:title=" ">
<path fill="none" stroke="#63b8ff" d="M528.14,-712.9C551.99,-708.72 599.19,-697.09 625.5,-668 644.84,-646.63 624.06,-626.32 644.5,-606 661.93,-588.67 675.67,-597.05 702,-588.19"/>
<polygon fill="none" stroke="#63b8ff" points="702.07,-588.16 706.12,-582.2 713.19,-583.65 709.13,-589.61 702.07,-588.16"/>
</a>
</g>
<text text-anchor="start" x="648" y="-634" font-family="Helvetica,sans-Serif" font-size="10.00" fill="grey">+msg_type</text>
</g>
<!-- Node10&#45;&gt;Node3 -->
<g id="edge10_Node000003_Node000010" class="edge">
<title>Node10&#45;&gt;Node3</title>
<g id="a_edge10_Node000003_Node000010"><a xlink:title=" ">
<path fill="none" stroke="#63b8ff" d="M553.19,-376.8C538.59,-364.51 521.54,-351.62 504.5,-342 480.3,-328.33 452.2,-317.01 426.46,-308.18"/>
<polygon fill="none" stroke="#63b8ff" points="426.21,-308.09 419.25,-309.99 414.83,-304.29 421.79,-302.4 426.21,-308.09"/>
</a>
</g>
<text text-anchor="start" x="531.5" y="-347.5" font-family="Helvetica,sans-Serif" font-size="10.00" fill="grey">+transform</text>
</g>
<!-- Node11&#45;&gt;Node10 -->
<g id="edge11_Node000010_Node000011" class="edge">
<title>Node11&#45;&gt;Node10</title>
<g id="a_edge11_Node000010_Node000011"><a xlink:title=" ">
<path fill="none" stroke="#63b8ff" d="M635.26,-508.85C629.46,-495.87 622.92,-481.2 616.8,-467.48"/>
<polygon fill="none" stroke="#63b8ff" points="616.67,-467.19 610.57,-463.34 611.78,-456.23 617.88,-460.08 616.67,-467.19"/>
</a>
</g>
<text text-anchor="start" x="629.5" y="-479.5" font-family="Helvetica,sans-Serif" font-size="10.00" fill="grey">+translation</text>
</g>
<!-- Node12 -->
<g id="Node000012" class="node">
<title>Node12</title>
<g id="a_Node000012"><a xlink:title=" ">
<polygon fill="white" stroke="transparent" points="765,-740.5 726,-740.5 726,-691.5 765,-691.5 765,-740.5"/>
<text text-anchor="start" x="731.5" y="-728" font-family="Helvetica,sans-Serif" font-size="10.00">double</text>
<text text-anchor="start" x="744" y="-713" font-family="Helvetica,sans-Serif" font-size="10.00"> </text>
<text text-anchor="start" x="744" y="-698" font-family="Helvetica,sans-Serif" font-size="10.00"> </text>
<polygon fill="#666666" stroke="#666666" points="726.5,-723 726.5,-723 765.5,-723 765.5,-723 726.5,-723"/>
<polygon fill="#666666" stroke="#666666" points="726.5,-708 726.5,-708 765.5,-708 765.5,-708 726.5,-708"/>
<polygon fill="none" stroke="#666666" points="726,-691.5 726,-740.5 765,-740.5 765,-691.5 726,-691.5"/>
</a>
</g>
</g>
<!-- Node12&#45;&gt;Node11 -->
<g id="edge12_Node000011_Node000012" class="edge">
<title>Node12&#45;&gt;Node11</title>
<g id="a_edge12_Node000011_Node000012"><a xlink:title=" ">
<path fill="none" stroke="#63b8ff" d="M736.94,-691.44C726.07,-661.72 708.15,-613.56 703.5,-606 701.81,-603.25 699.97,-600.5 698.04,-597.79"/>
<polygon fill="none" stroke="#63b8ff" points="697.96,-597.69 691.14,-595.36 690.67,-588.16 697.49,-590.5 697.96,-597.69"/>
</a>
</g>
<text text-anchor="start" x="730.5" y="-649" font-family="Helvetica,sans-Serif" font-size="10.00" fill="grey">+x</text>
<text text-anchor="start" x="730.5" y="-634" font-family="Helvetica,sans-Serif" font-size="10.00" fill="grey">+y</text>
<text text-anchor="start" x="730.5" y="-619" font-family="Helvetica,sans-Serif" font-size="10.00" fill="grey">+z</text>
</g>
<!-- Node12&#45;&gt;Node13 -->
<g id="edge15_Node000013_Node000012" class="edge">
<title>Node12&#45;&gt;Node13</title>
<g id="a_edge15_Node000013_Node000012"><a xlink:title=" ">
<path fill="none" stroke="#63b8ff" d="M748.08,-691.29C750.65,-667.64 754.68,-630.58 757.98,-600.27"/>
<polygon fill="none" stroke="#63b8ff" points="757.99,-600.12 754.67,-593.72 759.29,-588.19 762.62,-594.58 757.99,-600.12"/>
</a>
</g>
<text text-anchor="start" x="759.5" y="-657" font-family="Helvetica,sans-Serif" font-size="10.00" fill="grey">+w</text>
<text text-anchor="start" x="759.5" y="-642" font-family="Helvetica,sans-Serif" font-size="10.00" fill="grey">+x</text>
<text text-anchor="start" x="759.5" y="-627" font-family="Helvetica,sans-Serif" font-size="10.00" fill="grey">+y</text>
<text text-anchor="start" x="759.5" y="-612" font-family="Helvetica,sans-Serif" font-size="10.00" fill="grey">+z</text>
</g>
<!-- Node13&#45;&gt;Node10 -->
<g id="edge14_Node000010_Node000013" class="edge">
<title>Node13&#45;&gt;Node10</title>
<g id="a_edge14_Node000010_Node000013"><a xlink:title=" ">
<path fill="none" stroke="#63b8ff" d="M727.32,-508.67C715.48,-496.91 701.91,-484.37 688.5,-474 677.67,-465.62 665.5,-457.49 653.6,-450.13"/>
<polygon fill="none" stroke="#63b8ff" points="653.53,-450.08 646.32,-450.4 643.26,-443.87 650.46,-443.56 653.53,-450.08"/>
</a>
</g>
<text text-anchor="start" x="711" y="-479.5" font-family="Helvetica,sans-Serif" font-size="10.00" fill="grey">+rotation</text>
</g>
<!-- Node14 -->
<g id="Node000014" class="node">
<title>Node14</title>
<g id="a_Node000014"><a xlink:title=" ">
<polygon fill="white" stroke="transparent" points="189,-309 108,-309 108,-260 189,-260 189,-309"/>
<text text-anchor="start" x="113.5" y="-296.5" font-family="Helvetica,sans-Serif" font-size="10.00">std::vector&lt; T &gt;</text>
<text text-anchor="start" x="147" y="-281.5" font-family="Helvetica,sans-Serif" font-size="10.00"> </text>
<text text-anchor="start" x="147" y="-266.5" font-family="Helvetica,sans-Serif" font-size="10.00"> </text>
<polygon fill="#666666" stroke="#666666" points="108.5,-291.5 108.5,-291.5 189.5,-291.5 189.5,-291.5 108.5,-291.5"/>
<polygon fill="#666666" stroke="#666666" points="108.5,-276.5 108.5,-276.5 189.5,-276.5 189.5,-276.5 108.5,-276.5"/>
<polygon fill="none" stroke="#666666" points="108,-260 108,-309 189,-309 189,-260 108,-260"/>
</a>
</g>
</g>
<!-- Node14&#45;&gt;Node2 -->
<g id="edge19_Node000002_Node000014" class="edge">
<title>Node14&#45;&gt;Node2</title>
<g id="a_edge19_Node000002_Node000014"><a xlink:title=" ">
<path fill="none" stroke="orange" d="M149.62,-249.88C150.21,-231.84 150.95,-209.8 151.52,-192.44"/>
<polygon fill="orange" stroke="orange" points="146.11,-249.87 149.28,-259.98 153.11,-250.1 146.11,-249.87"/>
</a>
</g>
<text text-anchor="start" x="154.5" y="-215.5" font-family="Helvetica,sans-Serif" font-size="10.00" fill="grey">&lt; rm::msg::TransformStamped &gt;</text>
</g>
<!-- Node15 -->
<g id="Node000015" class="node">
<title>Node15</title>
<g id="a_Node000015"><a xlink:title=" ">
<polygon fill="white" stroke="transparent" points="156,-441 139,-441 139,-392 156,-392 156,-441"/>
<text text-anchor="start" x="144.5" y="-428.5" font-family="Helvetica,sans-Serif" font-size="10.00">T</text>
<text text-anchor="start" x="146" y="-413.5" font-family="Helvetica,sans-Serif" font-size="10.00"> </text>
<text text-anchor="start" x="146" y="-398.5" font-family="Helvetica,sans-Serif" font-size="10.00"> </text>
<polygon fill="#666666" stroke="#666666" points="139.5,-423.5 139.5,-423.5 156.5,-423.5 156.5,-423.5 139.5,-423.5"/>
<polygon fill="#666666" stroke="#666666" points="139.5,-408.5 139.5,-408.5 156.5,-408.5 156.5,-408.5 139.5,-408.5"/>
<polygon fill="none" stroke="#666666" points="139,-392 139,-441 156,-441 156,-392 139,-392"/>
</a>
</g>
</g>
<!-- Node15&#45;&gt;Node14 -->
<g id="edge20_Node000014_Node000015" class="edge">
<title>Node15&#45;&gt;Node14</title>
<g id="a_edge20_Node000014_Node000015"><a xlink:title=" ">
<path fill="none" stroke="#63b8ff" d="M147.68,-391.96C147.83,-372.29 148.05,-343.94 148.22,-321.44"/>
<polygon fill="none" stroke="#63b8ff" points="148.22,-321.31 144.27,-315.28 148.32,-309.31 152.27,-315.34 148.22,-321.31"/>
</a>
</g>
<text text-anchor="start" x="151.5" y="-347.5" font-family="Helvetica,sans-Serif" font-size="10.00" fill="grey">+elements</text>
</g>
</g>
</svg>

<g id="navigator" transform="translate(0 0)" fill="#404254">
  <rect fill="#f2f5e9" fill-opacity="0.5" stroke="#606060" stroke-width=".5" x="0" y="0" width="60" height="60"/>
  <use id="zoomplus" xlink:href="#zoomPlus" x="17" y="9" onmousedown="handleZoom(evt,'in')"/>
  <use id="zoomminus" xlink:href="#zoomMin" x="42" y="9" onmousedown="handleZoom(evt,'out')"/>
  <use id="reset" xlink:href="#resetDef" x="30" y="36" onmousedown="handleReset()"/>
   <use id="arrowup" xlink:href="#arrowUp" x="0" y="0" onmousedown="handlePan(0,-1)"/>
  <use id="arrowright" xlink:href="#arrowRight" x="0" y="0" onmousedown="handlePan(1,0)"/>
  <use id="arrowdown" xlink:href="#arrowDown" x="0" y="0" onmousedown="handlePan(0,1)"/>
  <use id="arrowleft" xlink:href="#arrowLeft" x="0" y="0" onmousedown="handlePan(-1,0)"/>
</g>
<svg viewBox="0 0 15 15" width="100%" height="30px" preserveAspectRatio="xMaxYMin meet">
 <g id="arrow_out" transform="scale(0.3 0.3)">
  <a xlink:href="classrm_1_1msg_1_1TF__coll__graph_org.svg" target="_base">
   <rect id="button" ry="5" rx="5" y="6" x="6" height="38" width="38"
        fill="#f2f5e9" fill-opacity="0.5" stroke="#606060" stroke-width="1.0"/>
   <path id="arrow"
     d="M 11.500037,31.436501 C 11.940474,20.09759 22.043105,11.32322 32.158766,21.979434 L 37.068811,17.246167 C 37.068811,17.246167 37.088388,32 37.088388,32 L 22.160133,31.978069 C 22.160133,31.978069 26.997745,27.140456 26.997745,27.140456 C 18.528582,18.264221 13.291696,25.230495 11.500037,31.436501 z"
     style="fill:#404040;"/>
  </a>
 </g>
</svg>

<style type='text/css'>
<![CDATA[
[data-mouse-over-selected='false'] { opacity: 0.7; }
[data-mouse-over-selected='true']  { opacity: 1.0; }
]]>
</style>
<script type="application/ecmascript"><![CDATA[
document.addEventListener('DOMContentLoaded', (event) => {
  highlightEdges();
  highlightAdjacentNodes();
});
]]></script>
</svg>
