<?xml version="1.0" encoding="UTF-8" standalone="no"?>
<!DOCTYPE svg PUBLIC "-//W3C//DTD SVG 1.1//EN"
 "http://www.w3.org/Graphics/SVG/1.1/DTD/svg11.dtd">
<!-- Generated by graphviz version 2.43.0 (0)
 -->
<!-- Title: rmvl/detector Pages: 1 -->
<svg width="234pt" height="223pt"
 viewBox="0.00 0.00 234.00 223.00" xmlns="http://www.w3.org/2000/svg" xmlns:xlink="http://www.w3.org/1999/xlink">
<g id="graph0" class="graph" transform="scale(1 1) rotate(0) translate(4 219)">
<title>rmvl/detector</title>
<polygon fill="white" stroke="transparent" points="-4,4 -4,-219 230,-219 230,4 -4,4"/>
<g id="clust1" class="cluster">
<title>clusterdir_4b04c2e007ec9137cdcc6b07f15783dd</title>
<g id="a_clust1"><a xlink:href="dir_4b04c2e007ec9137cdcc6b07f15783dd.html" target="_top" xlink:title="rmvl">
<polygon fill="#ddddee" stroke="black" points="54,-136 54,-207 128,-207 128,-136 54,-136"/>
<text text-anchor="middle" x="91" y="-195" font-family="Helvetica,sans-Serif" font-size="10.00">rmvl</text>
</a>
</g>
</g>
<!-- dir_1b12cb4dd092e360e17e906bcf9b5c0b -->
<g id="node1" class="node">
<title>dir_1b12cb4dd092e360e17e906bcf9b5c0b</title>
<g id="a_node1"><a xlink:href="dir_1b12cb4dd092e360e17e906bcf9b5c0b.html" target="_top" xlink:title="detector">
<polygon fill="#eeeeff" stroke="black" points="119.5,-180 62.5,-180 62.5,-144 119.5,-144 119.5,-180"/>
<text text-anchor="middle" x="91" y="-159.5" font-family="Helvetica,sans-Serif" font-size="10.00">detector</text>
</a>
</g>
</g>
<!-- dir_05fa650a38f3f5a08a2422c6dda771be -->
<g id="node2" class="node">
<title>dir_05fa650a38f3f5a08a2422c6dda771be</title>
<g id="a_node2"><a xlink:href="dir_05fa650a38f3f5a08a2422c6dda771be.html" target="_top" xlink:title="rmvl">
<polygon fill="white" stroke="red" points="54,-36 0,-36 0,0 54,0 54,-36"/>
<text text-anchor="middle" x="27" y="-15.5" font-family="Helvetica,sans-Serif" font-size="10.00">rmvl</text>
</a>
</g>
</g>
<!-- dir_1b12cb4dd092e360e17e906bcf9b5c0b&#45;&gt;dir_05fa650a38f3f5a08a2422c6dda771be -->
<g id="edge2" class="edge">
<title>dir_1b12cb4dd092e360e17e906bcf9b5c0b&#45;&gt;dir_05fa650a38f3f5a08a2422c6dda771be</title>
<path fill="none" stroke="black" d="M62.46,-148.21C46.53,-139.39 28.1,-126.01 19,-108 9.3,-88.81 12.45,-64.32 17.37,-45.89"/>
<polygon fill="black" stroke="black" points="20.79,-46.67 20.31,-36.08 14.09,-44.66 20.79,-46.67"/>
<g id="a_edge2&#45;headlabel"><a xlink:href="dir_000036_000051.html" target="_top" xlink:title="3">
<text text-anchor="middle" x="22.48" y="-48.42" font-family="Helvetica,sans-Serif" font-size="10.00">3</text>
</a>
</g>
</g>
<!-- dir_3369679d0342e0144be24fe8bcb77137 -->
<g id="node3" class="node">
<title>dir_3369679d0342e0144be24fe8bcb77137</title>
<g id="a_node3"><a xlink:href="dir_3369679d0342e0144be24fe8bcb77137.html" target="_top" xlink:title="rmvl">
<polygon fill="white" stroke="red" points="82,-108 28,-108 28,-72 82,-72 82,-108"/>
<text text-anchor="middle" x="55" y="-87.5" font-family="Helvetica,sans-Serif" font-size="10.00">rmvl</text>
</a>
</g>
</g>
<!-- dir_1b12cb4dd092e360e17e906bcf9b5c0b&#45;&gt;dir_3369679d0342e0144be24fe8bcb77137 -->
<g id="edge3" class="edge">
<title>dir_1b12cb4dd092e360e17e906bcf9b5c0b&#45;&gt;dir_3369679d0342e0144be24fe8bcb77137</title>
<path fill="none" stroke="black" d="M82.1,-143.7C78,-135.73 73.05,-126.1 68.51,-117.26"/>
<polygon fill="black" stroke="black" points="71.48,-115.4 63.8,-108.1 65.26,-118.6 71.48,-115.4"/>
<g id="a_edge3&#45;headlabel"><a xlink:href="dir_000036_000042.html" target="_top" xlink:title="1">
<text text-anchor="middle" x="75.65" y="-114.79" font-family="Helvetica,sans-Serif" font-size="10.00">1</text>
</a>
</g>
</g>
<!-- dir_b5c1b52e49bdab802b985f422853f0cc -->
<g id="node4" class="node">
<title>dir_b5c1b52e49bdab802b985f422853f0cc</title>
<g id="a_node4"><a xlink:href="dir_b5c1b52e49bdab802b985f422853f0cc.html" target="_top" xlink:title="rmvl">
<polygon fill="white" stroke="red" points="154,-108 100,-108 100,-72 154,-72 154,-108"/>
<text text-anchor="middle" x="127" y="-87.5" font-family="Helvetica,sans-Serif" font-size="10.00">rmvl</text>
</a>
</g>
</g>
<!-- dir_1b12cb4dd092e360e17e906bcf9b5c0b&#45;&gt;dir_b5c1b52e49bdab802b985f422853f0cc -->
<g id="edge4" class="edge">
<title>dir_1b12cb4dd092e360e17e906bcf9b5c0b&#45;&gt;dir_b5c1b52e49bdab802b985f422853f0cc</title>
<path fill="none" stroke="black" d="M99.9,-143.7C104,-135.73 108.95,-126.1 113.49,-117.26"/>
<polygon fill="black" stroke="black" points="116.74,-118.6 118.2,-108.1 110.52,-115.4 116.74,-118.6"/>
<g id="a_edge4&#45;headlabel"><a xlink:href="dir_000036_000067.html" target="_top" xlink:title="2">
<text text-anchor="middle" x="117.62" y="-120.59" font-family="Helvetica,sans-Serif" font-size="10.00">2</text>
</a>
</g>
</g>
<!-- dir_c4f5578e7cc32f44b42b2b66752978ea -->
<g id="node5" class="node">
<title>dir_c4f5578e7cc32f44b42b2b66752978ea</title>
<g id="a_node5"><a xlink:href="dir_c4f5578e7cc32f44b42b2b66752978ea.html" target="_top" xlink:title="rmvl">
<polygon fill="white" stroke="red" points="226,-108 172,-108 172,-72 226,-72 226,-108"/>
<text text-anchor="middle" x="199" y="-87.5" font-family="Helvetica,sans-Serif" font-size="10.00">rmvl</text>
</a>
</g>
</g>
<!-- dir_1b12cb4dd092e360e17e906bcf9b5c0b&#45;&gt;dir_c4f5578e7cc32f44b42b2b66752978ea -->
<g id="edge5" class="edge">
<title>dir_1b12cb4dd092e360e17e906bcf9b5c0b&#45;&gt;dir_c4f5578e7cc32f44b42b2b66752978ea</title>
<path fill="none" stroke="black" d="M117.42,-143.88C131.41,-134.81 148.78,-123.55 163.89,-113.76"/>
<polygon fill="black" stroke="black" points="165.99,-116.57 172.48,-108.19 162.18,-110.69 165.99,-116.57"/>
<g id="a_edge5&#45;headlabel"><a xlink:href="dir_000036_000063.html" target="_top" xlink:title="1">
<text text-anchor="middle" x="164.52" y="-118.4" font-family="Helvetica,sans-Serif" font-size="10.00">1</text>
</a>
</g>
</g>
<!-- dir_3369679d0342e0144be24fe8bcb77137&#45;&gt;dir_05fa650a38f3f5a08a2422c6dda771be -->
<g id="edge1" class="edge">
<title>dir_3369679d0342e0144be24fe8bcb77137&#45;&gt;dir_05fa650a38f3f5a08a2422c6dda771be</title>
<path fill="none" stroke="black" d="M48.08,-71.7C44.93,-63.81 41.12,-54.3 37.62,-45.55"/>
<polygon fill="black" stroke="black" points="40.81,-44.09 33.84,-36.1 34.31,-46.69 40.81,-44.09"/>
<g id="a_edge1&#45;headlabel"><a xlink:href="dir_000042_000051.html" target="_top" xlink:title="1">
<text text-anchor="middle" x="44.78" y="-43.87" font-family="Helvetica,sans-Serif" font-size="10.00">1</text>
</a>
</g>
</g>
</g>
</svg>
