<?xml version="1.0" encoding="UTF-8" standalone="no"?>
<!DOCTYPE svg PUBLIC "-//W3C//DTD SVG 1.1//EN"
 "http://www.w3.org/Graphics/SVG/1.1/DTD/svg11.dtd">
<!-- Generated by graphviz version 14.1.2 (0)
 -->
<!-- Title: rm::async::Promise&lt; Tp &gt; Pages: 1 -->
<svg width="140pt" height="439pt"
 viewBox="0.00 0.00 140.00 439.00" xmlns="http://www.w3.org/2000/svg" xmlns:xlink="http://www.w3.org/1999/xlink">

<svg id="main" version="1.1" xmlns="http://www.w3.org/2000/svg" xmlns:xlink="http://www.w3.org/1999/xlink" xml:space="preserve">

<style type="text/css"><![CDATA[
.node, .edge {opacity: 0.7;}
.node.selected, .edge.selected {opacity: 1;}
.edge:hover path { stroke: red; }
.edge:hover polygon { stroke: red; fill: red; }
]]></style>
<script type="application/ecmascript" xlink:href="../../svg.min.js"/>
<svg id="graph" class="graph">
<g id="graph0" class="graph" transform="scale(1 1) rotate(0) translate(4 434.75)">
<title>rm::async::Promise&lt; Tp &gt;</title>
<!-- Node1 -->
<g id="Node000001" class="node">
<title>Node1</title>
<g id="a_Node000001"><a xlink:title="异步协程承诺">
<polygon fill="#999999" stroke="none" points="122.62,-306 9.38,-306 9.38,-188.75 122.62,-188.75 122.62,-306"/>
<text xml:space="preserve" text-anchor="start" x="19.12" y="-292.5" font-family="Helvetica,sans-Serif" font-size="10.00">rm::async::Promise</text>
<text xml:space="preserve" text-anchor="start" x="48.75" y="-279.75" font-family="Helvetica,sans-Serif" font-size="10.00">&lt; Tp &gt;</text>
<text xml:space="preserve" text-anchor="start" x="64.5" y="-263" font-family="Helvetica,sans-Serif" font-size="10.00"> </text>
<text xml:space="preserve" text-anchor="start" x="13.38" y="-246.25" font-family="Helvetica,sans-Serif" font-size="10.00">+</text>
<text xml:space="preserve" text-anchor="start" x="25.62" y="-246.25" font-family="Helvetica,sans-Serif" font-size="10.00">get_return_object()</text>
<text xml:space="preserve" text-anchor="start" x="13.38" y="-229.5" font-family="Helvetica,sans-Serif" font-size="10.00">+</text>
<text xml:space="preserve" text-anchor="start" x="25.62" y="-229.5" font-family="Helvetica,sans-Serif" font-size="10.00">final_suspend()</text>
<text xml:space="preserve" text-anchor="start" x="13.38" y="-212.75" font-family="Helvetica,sans-Serif" font-size="10.00">+</text>
<text xml:space="preserve" text-anchor="start" x="25.62" y="-212.75" font-family="Helvetica,sans-Serif" font-size="10.00">return_value()</text>
<text xml:space="preserve" text-anchor="start" x="13.38" y="-196" font-family="Helvetica,sans-Serif" font-size="10.00">+</text>
<text xml:space="preserve" text-anchor="start" x="25.62" y="-196" font-family="Helvetica,sans-Serif" font-size="10.00">get()</text>
<polygon fill="#666666" stroke="#666666" points="9.38,-274.5 9.38,-274.5 122.62,-274.5 122.62,-274.5 9.38,-274.5"/>
<polygon fill="#666666" stroke="#666666" points="9.38,-257.75 9.38,-257.75 122.62,-257.75 122.62,-257.75 9.38,-257.75"/>
<polygon fill="none" stroke="#666666" points="9.38,-188.75 9.38,-306 122.62,-306 122.62,-188.75 9.38,-188.75"/>
</a>
</g>
</g>
<!-- Node3 -->
<g id="Node000003" class="node">
<title>Node3</title>
<g id="a_Node000003"><a xlink:href="../../d3/de0/classrm_1_1async_1_1Promise_3_01void_01_4.html" target="_top" xlink:title="特化 void 类型的异步协程承诺">
<polygon fill="white" stroke="none" points="122.62,-134 9.38,-134 9.38,0 122.62,0 122.62,-134"/>
<text xml:space="preserve" text-anchor="start" x="19.12" y="-120.5" font-family="Helvetica,sans-Serif" font-size="10.00">rm::async::Promise</text>
<text xml:space="preserve" text-anchor="start" x="44.25" y="-107.75" font-family="Helvetica,sans-Serif" font-size="10.00">&lt; void &gt;</text>
<text xml:space="preserve" text-anchor="start" x="64.5" y="-91" font-family="Helvetica,sans-Serif" font-size="10.00"> </text>
<text xml:space="preserve" text-anchor="start" x="13.38" y="-74.25" font-family="Helvetica,sans-Serif" font-size="10.00">+</text>
<text xml:space="preserve" text-anchor="start" x="25.62" y="-74.25" font-family="Helvetica,sans-Serif" font-size="10.00">get_return_object()</text>
<text xml:space="preserve" text-anchor="start" x="13.38" y="-57.5" font-family="Helvetica,sans-Serif" font-size="10.00">+</text>
<text xml:space="preserve" text-anchor="start" x="25.62" y="-57.5" font-family="Helvetica,sans-Serif" font-size="10.00">final_suspend()</text>
<text xml:space="preserve" text-anchor="start" x="13.38" y="-40.75" font-family="Helvetica,sans-Serif" font-size="10.00">+</text>
<text xml:space="preserve" text-anchor="start" x="25.62" y="-40.75" font-family="Helvetica,sans-Serif" font-size="10.00">return_void()</text>
<text xml:space="preserve" text-anchor="start" x="13.38" y="-24" font-family="Helvetica,sans-Serif" font-size="10.00">+</text>
<text xml:space="preserve" text-anchor="start" x="25.62" y="-24" font-family="Helvetica,sans-Serif" font-size="10.00">get()</text>
<text xml:space="preserve" text-anchor="start" x="13.38" y="-7.25" font-family="Helvetica,sans-Serif" font-size="10.00">+</text>
<text xml:space="preserve" text-anchor="start" x="25.62" y="-7.25" font-family="Helvetica,sans-Serif" font-size="10.00">return_value()</text>
<polygon fill="#666666" stroke="#666666" points="9.38,-102.5 9.38,-102.5 122.62,-102.5 122.62,-102.5 9.38,-102.5"/>
<polygon fill="#666666" stroke="#666666" points="9.38,-85.75 9.38,-85.75 122.62,-85.75 122.62,-85.75 9.38,-85.75"/>
<polygon fill="none" stroke="#666666" points="9.38,0 9.38,-134 122.62,-134 122.62,0 9.38,0"/>
</a>
</g>
</g>
<!-- Node1&#45;&gt;Node3 -->
<g id="edge2_Node000001_Node000003" class="edge">
<title>Node1&#45;&gt;Node3</title>
<g id="a_edge2_Node000001_Node000003"><a xlink:title=" ">
<path fill="none" stroke="orange" d="M66,-177.58C66,-163.16 66,-147.99 66,-133.69"/>
<polygon fill="orange" stroke="orange" points="62.5,-177.44 66,-187.44 69.5,-177.44 62.5,-177.44"/>
</a>
</g>
<text xml:space="preserve" text-anchor="start" x="69" y="-158.25" font-family="Helvetica,sans-Serif" font-size="10.00" fill="grey">&lt; void &gt;</text>
</g>
<!-- Node2 -->
<g id="Node000002" class="node">
<title>Node2</title>
<g id="a_Node000002"><a xlink:href="../../d2/da2/classrm_1_1async_1_1BasicPromise.html" target="_top" xlink:title="协程承诺基类，管理协程的生命周期和异常处理">
<polygon fill="white" stroke="none" points="132,-430.75 0,-430.75 0,-343 132,-343 132,-430.75"/>
<text xml:space="preserve" text-anchor="start" x="6" y="-417.25" font-family="Helvetica,sans-Serif" font-size="10.00">rm::async::BasicPromise</text>
<text xml:space="preserve" text-anchor="start" x="4" y="-400.5" font-family="Helvetica,sans-Serif" font-size="10.00">+</text>
<text xml:space="preserve" text-anchor="start" x="16.25" y="-400.5" font-family="Helvetica,sans-Serif" font-size="10.00">previous</text>
<text xml:space="preserve" text-anchor="start" x="4" y="-383.75" font-family="Helvetica,sans-Serif" font-size="10.00">#</text>
<text xml:space="preserve" text-anchor="start" x="16.25" y="-383.75" font-family="Helvetica,sans-Serif" font-size="10.00">_exception</text>
<text xml:space="preserve" text-anchor="start" x="4" y="-367" font-family="Helvetica,sans-Serif" font-size="10.00">+</text>
<text xml:space="preserve" text-anchor="start" x="16.25" y="-367" font-family="Helvetica,sans-Serif" font-size="10.00">initial_suspend()</text>
<text xml:space="preserve" text-anchor="start" x="4" y="-350.25" font-family="Helvetica,sans-Serif" font-size="10.00">+</text>
<text xml:space="preserve" text-anchor="start" x="16.25" y="-350.25" font-family="Helvetica,sans-Serif" font-size="10.00">unhandled_exception()</text>
<polygon fill="#666666" stroke="#666666" points="0,-412 0,-412 132,-412 132,-412 0,-412"/>
<polygon fill="#666666" stroke="#666666" points="0,-378.5 0,-378.5 14.25,-378.5 14.25,-378.5 0,-378.5"/>
<polygon fill="#666666" stroke="#666666" points="14.25,-378.5 14.25,-378.5 132,-378.5 132,-378.5 14.25,-378.5"/>
<polygon fill="none" stroke="#666666" points="0,-343 0,-430.75 132,-430.75 132,-343 0,-343"/>
</a>
</g>
</g>
<!-- Node2&#45;&gt;Node1 -->
<g id="edge1_Node000001_Node000002" class="edge">
<title>Node2&#45;&gt;Node1</title>
<g id="a_edge1_Node000001_Node000002"><a xlink:title=" ">
<path fill="none" stroke="#63b8ff" d="M66,-331.74C66,-323.21 66,-314.36 66,-305.76"/>
<polygon fill="none" stroke="#63b8ff" points="62.5,-331.61 66,-341.61 69.5,-331.61 62.5,-331.61"/>
</a>
</g>
</g>
</g>
</svg>
</svg>

<style type='text/css'>
<![CDATA[
[data-mouse-over-selected='false'] { opacity: 0.7; }
[data-mouse-over-selected='true']  { opacity: 1.0; }
]]>
</style>
<script type="application/ecmascript"><![CDATA[
document.addEventListener('DOMContentLoaded', (event) => {
  highlightEdges();
  highlightAdjacentNodes();
});
]]></script>
</svg>
