<?xml version="1.0" encoding="UTF-8" standalone="no"?>
<!DOCTYPE svg PUBLIC "-//W3C//DTD SVG 1.1//EN"
 "http://www.w3.org/Graphics/SVG/1.1/DTD/svg11.dtd">
<!-- Generated by graphviz version 2.43.0 (0)
 -->
<!-- Title: rm::async::Promise&lt; Tp &gt; Pages: 1 -->
<svg width="129pt" height="426pt"
 viewBox="0.00 0.00 129.00 426.00" xmlns="http://www.w3.org/2000/svg" xmlns:xlink="http://www.w3.org/1999/xlink">
<g id="graph0" class="graph" transform="scale(1 1) rotate(0) translate(4 422)">
<title>rm::async::Promise&lt; Tp &gt;</title>
<!-- Node1 -->
<g id="Node000001" class="node">
<title>Node1</title>
<g id="a_Node000001"><a xlink:title="异步协程承诺">
<polygon fill="#999999" stroke="transparent" points="111,-302 10,-302 10,-197 111,-197 111,-302"/>
<text text-anchor="start" x="18" y="-289.5" font-family="Helvetica,sans-Serif" font-size="10.00">rm::async::Promise</text>
<text text-anchor="start" x="46" y="-278.5" font-family="Helvetica,sans-Serif" font-size="10.00">&lt; Tp &gt;</text>
<text text-anchor="start" x="59" y="-263.5" font-family="Helvetica,sans-Serif" font-size="10.00"> </text>
<text text-anchor="start" x="14.5" y="-248.5" font-family="Helvetica,sans-Serif" font-size="10.00">+</text>
<text text-anchor="start" x="25.5" y="-248.5" font-family="Helvetica,sans-Serif" font-size="10.00">get_return_object()</text>
<text text-anchor="start" x="14.5" y="-233.5" font-family="Helvetica,sans-Serif" font-size="10.00">+</text>
<text text-anchor="start" x="25.5" y="-233.5" font-family="Helvetica,sans-Serif" font-size="10.00">final_suspend()</text>
<text text-anchor="start" x="14.5" y="-218.5" font-family="Helvetica,sans-Serif" font-size="10.00">+</text>
<text text-anchor="start" x="25.5" y="-218.5" font-family="Helvetica,sans-Serif" font-size="10.00">return_value()</text>
<text text-anchor="start" x="14.5" y="-203.5" font-family="Helvetica,sans-Serif" font-size="10.00">+</text>
<text text-anchor="start" x="25.5" y="-203.5" font-family="Helvetica,sans-Serif" font-size="10.00">get()</text>
<polygon fill="#666666" stroke="#666666" points="10.5,-273.5 10.5,-273.5 111.5,-273.5 111.5,-273.5 10.5,-273.5"/>
<polygon fill="#666666" stroke="#666666" points="10.5,-258.5 10.5,-258.5 111.5,-258.5 111.5,-258.5 10.5,-258.5"/>
<polygon fill="none" stroke="#666666" points="10,-197 10,-302 111,-302 111,-197 10,-197"/>
</a>
</g>
</g>
<!-- Node3 -->
<g id="Node000003" class="node">
<title>Node3</title>
<g id="a_Node000003"><a xlink:href="../../d3/de0/classrm_1_1async_1_1Promise_3_01void_01_4.html" target="_top" xlink:title="特化 void 类型的异步协程承诺">
<polygon fill="white" stroke="transparent" points="111,-150 10,-150 10,0 111,0 111,-150"/>
<text text-anchor="start" x="18" y="-138" font-family="Helvetica,sans-Serif" font-size="10.00">rm::async::Promise</text>
<text text-anchor="start" x="42.5" y="-127" font-family="Helvetica,sans-Serif" font-size="10.00">&lt; void &gt;</text>
<text text-anchor="start" x="59" y="-112" font-family="Helvetica,sans-Serif" font-size="10.00"> </text>
<text text-anchor="start" x="14.5" y="-97" font-family="Helvetica,sans-Serif" font-size="10.00">+</text>
<text text-anchor="start" x="25.5" y="-97" font-family="Helvetica,sans-Serif" font-size="10.00">get_return_object()</text>
<text text-anchor="start" x="14.5" y="-82" font-family="Helvetica,sans-Serif" font-size="10.00">+</text>
<text text-anchor="start" x="25.5" y="-82" font-family="Helvetica,sans-Serif" font-size="10.00">final_suspend()</text>
<text text-anchor="start" x="14.5" y="-67" font-family="Helvetica,sans-Serif" font-size="10.00">+</text>
<text text-anchor="start" x="25.5" y="-67" font-family="Helvetica,sans-Serif" font-size="10.00">return_void()</text>
<text text-anchor="start" x="14.5" y="-52" font-family="Helvetica,sans-Serif" font-size="10.00">+</text>
<text text-anchor="start" x="25.5" y="-52" font-family="Helvetica,sans-Serif" font-size="10.00">get_return_object()</text>
<text text-anchor="start" x="14.5" y="-37" font-family="Helvetica,sans-Serif" font-size="10.00">+</text>
<text text-anchor="start" x="25.5" y="-37" font-family="Helvetica,sans-Serif" font-size="10.00">final_suspend()</text>
<text text-anchor="start" x="14.5" y="-22" font-family="Helvetica,sans-Serif" font-size="10.00">+</text>
<text text-anchor="start" x="25.5" y="-22" font-family="Helvetica,sans-Serif" font-size="10.00">return_value()</text>
<text text-anchor="start" x="14.5" y="-7" font-family="Helvetica,sans-Serif" font-size="10.00">+</text>
<text text-anchor="start" x="25.5" y="-7" font-family="Helvetica,sans-Serif" font-size="10.00">get()</text>
<polygon fill="#666666" stroke="#666666" points="10.5,-122 10.5,-122 111.5,-122 111.5,-122 10.5,-122"/>
<polygon fill="#666666" stroke="#666666" points="10.5,-107 10.5,-107 111.5,-107 111.5,-107 10.5,-107"/>
<polygon fill="none" stroke="#666666" points="10,0 10,-150 111,-150 111,0 10,0"/>
</a>
</g>
</g>
<!-- Node1&#45;&gt;Node3 -->
<g id="edge2_Node000001_Node000003" class="edge">
<title>Node1&#45;&gt;Node3</title>
<g id="a_edge2_Node000001_Node000003"><a xlink:title=" ">
<path fill="none" stroke="orange" d="M60.5,-186.54C60.5,-174.71 60.5,-162.21 60.5,-150.04"/>
<polygon fill="orange" stroke="orange" points="57,-186.74 60.5,-196.74 64,-186.74 57,-186.74"/>
</a>
</g>
<text text-anchor="middle" x="80.5" y="-171" font-family="Helvetica,sans-Serif" font-size="10.00" fill="grey"> &lt; void &gt;</text>
</g>
<!-- Node2 -->
<g id="Node000002" class="node">
<title>Node2</title>
<g id="a_Node000002"><a xlink:href="../../d2/da2/classrm_1_1async_1_1BasicPromise.html" target="_top" xlink:title="协程承诺基类，管理协程的生命周期和异常处理">
<polygon fill="white" stroke="transparent" points="121,-418 0,-418 0,-339 121,-339 121,-418"/>
<text text-anchor="start" x="5.5" y="-405.5" font-family="Helvetica,sans-Serif" font-size="10.00">rm::async::BasicPromise</text>
<text text-anchor="start" x="5.5" y="-390.5" font-family="Helvetica,sans-Serif" font-size="10.00">+</text>
<text text-anchor="start" x="17.5" y="-390.5" font-family="Helvetica,sans-Serif" font-size="10.00">previous</text>
<text text-anchor="start" x="6" y="-375.5" font-family="Helvetica,sans-Serif" font-size="10.00">#</text>
<text text-anchor="start" x="17.5" y="-375.5" font-family="Helvetica,sans-Serif" font-size="10.00">_exception</text>
<text text-anchor="start" x="5.5" y="-360.5" font-family="Helvetica,sans-Serif" font-size="10.00">+</text>
<text text-anchor="start" x="17.5" y="-360.5" font-family="Helvetica,sans-Serif" font-size="10.00">initial_suspend()</text>
<text text-anchor="start" x="5.5" y="-345.5" font-family="Helvetica,sans-Serif" font-size="10.00">+</text>
<text text-anchor="start" x="17.5" y="-345.5" font-family="Helvetica,sans-Serif" font-size="10.00">unhandled_exception()</text>
<polygon fill="#666666" stroke="#666666" points="0.5,-400.5 0.5,-400.5 121.5,-400.5 121.5,-400.5 0.5,-400.5"/>
<polygon fill="#666666" stroke="#666666" points="0.5,-370.5 0.5,-370.5 15.5,-370.5 15.5,-370.5 0.5,-370.5"/>
<polygon fill="#666666" stroke="#666666" points="15.5,-370.5 15.5,-370.5 121.5,-370.5 121.5,-370.5 15.5,-370.5"/>
<polygon fill="none" stroke="#666666" points="0,-339 0,-418 121,-418 121,-339 0,-339"/>
</a>
</g>
</g>
<!-- Node2&#45;&gt;Node1 -->
<g id="edge1_Node000001_Node000002" class="edge">
<title>Node2&#45;&gt;Node1</title>
<g id="a_edge1_Node000001_Node000002"><a xlink:title=" ">
<path fill="none" stroke="#63b8ff" d="M60.5,-328.43C60.5,-319.82 60.5,-310.84 60.5,-302.16"/>
<polygon fill="none" stroke="#63b8ff" points="57,-328.71 60.5,-338.71 64,-328.71 57,-328.71"/>
</a>
</g>
</g>
</g>
</svg>
