<?xml version="1.0" encoding="UTF-8" standalone="no"?>
<!DOCTYPE svg PUBLIC "-//W3C//DTD SVG 1.1//EN"
 "http://www.w3.org/Graphics/SVG/1.1/DTD/svg11.dtd">
<!-- Generated by graphviz version 2.43.0 (0)
 -->
<!-- Title: rmvl/decider/gyro_decider.h Pages: 1 -->
<!--zoomable 522 -->

<svg id="main" version="1.1" xmlns="http://www.w3.org/2000/svg" xmlns:xlink="http://www.w3.org/1999/xlink" xml:space="preserve" onload="init(evt)">

<style type="text/css"><![CDATA[
.node, .edge {opacity: 0.7;}
.node.selected, .edge.selected {opacity: 1;}
.edge:hover path { stroke: red; }
.edge:hover polygon { stroke: red; fill: red; }
]]></style>

<defs>
  <circle id="rim" cx="0" cy="0" r="7"/>
  <circle id="rim2" cx="0" cy="0" r="3.5"/>
  <g id="zoomPlus">
    <use xlink:href="#rim" fill="#404040"><set attributeName="fill" to="#808080" begin="zoomplus.mouseover" end="zoomplus.mouseout"/></use>
    <path d="M-4,0h8M0,-4v8" fill="none" stroke="white" stroke-width="1.5" pointer-events="none"/>
  </g>
  <g id="zoomMin">
    <use xlink:href="#rim" fill="#404040"><set attributeName="fill" to="#808080" begin="zoomminus.mouseover" end="zoomminus.mouseout"/></use>
    <path d="M-4,0h8" fill="none" stroke="white" stroke-width="1.5" pointer-events="none"/>
  </g>
  <g id="arrowUp" transform="translate(30 24)">
    <use xlink:href="#rim"/>
    <path pointer-events="none" fill="none" stroke="white" stroke-width="1.5" d="M0,-3.0v7 M-2.5,-0.5L0,-3.0L2.5,-0.5"/>
  </g>
  <g id="arrowRight" transform="rotate(90) translate(36 -43)">
    <use xlink:href="#rim"/>
    <path pointer-events="none" fill="none" stroke="white" stroke-width="1.5" d="M0,-3.0v7 M-2.5,-0.5L0,-3.0L2.5,-0.5"/>
  </g>
  <g id="arrowDown" transform="rotate(180) translate(-30 -48)">
    <use xlink:href="#rim"/>
    <path pointer-events="none" fill="none" stroke="white" stroke-width="1.5" d="M0,-3.0v7 M-2.5,-0.5L0,-3.0L2.5,-0.5"/>
  </g>
  <g id="arrowLeft" transform="rotate(270) translate(-36 17)">
    <use xlink:href="#rim"/>
    <path pointer-events="none" fill="none" stroke="white" stroke-width="1.5" d="M0,-3.0v7 M-2.5,-0.5L0,-3.0L2.5,-0.5"/>
  </g>
  <g id="resetDef">
    <use xlink:href="#rim2" fill="#404040"><set attributeName="fill" to="#808080" begin="reset.mouseover" end="reset.mouseout"/></use>
  </g>
</defs>
<script type="application/ecmascript">
var viewWidth = 1374;
var viewHeight = 522;
var sectionId = 'dynsection-0';
</script>
<script type="application/ecmascript" xlink:href="../../svg.min.js"/>
<svg id="graph" class="graph">
<g id="viewport">
<title>rmvl/decider/gyro_decider.h</title>
<!-- Node1 -->
<g id="Node000001" class="node">
<title>Node1</title>
<g id="a_Node000001"><a xlink:title="装甲板模块决策器头文件">
<polygon fill="#999999" stroke="#666666" points="971.5,-514 819.5,-514 819.5,-495 971.5,-495 971.5,-514"/>
<text text-anchor="middle" x="895.5" y="-502" font-family="Helvetica,sans-Serif" font-size="10.00">rmvl/decider/gyro_decider.h</text>
</a>
</g>
</g>
<!-- Node2 -->
<g id="Node000002" class="node">
<title>Node2</title>
<g id="a_Node000002"><a xlink:href="../../d3/d70/decider_8h.html" target="_top" xlink:title="抽象决策类头文件">
<polygon fill="white" stroke="#666666" points="1052,-459 991,-459 991,-440 1052,-440 1052,-459"/>
<text text-anchor="middle" x="1021.5" y="-447" font-family="Helvetica,sans-Serif" font-size="10.00">decider.h</text>
</a>
</g>
</g>
<!-- Node1&#45;&gt;Node2 -->
<g id="edge1_Node000001_Node000002" class="edge">
<title>Node1&#45;&gt;Node2</title>
<g id="a_edge1_Node000001_Node000002"><a xlink:title=" ">
<path fill="none" stroke="#63b8ff" d="M915.74,-494.98C936.2,-486.38 968.03,-472.99 991.43,-463.15"/>
<polygon fill="#63b8ff" stroke="#63b8ff" points="993.03,-466.27 1000.89,-459.17 990.31,-459.82 993.03,-466.27"/>
</a>
</g>
</g>
<!-- Node6 -->
<g id="Node000006" class="node">
<title>Node6</title>
<g id="a_Node000006"><a xlink:href="../../dc/ded/tracker_8h.html" target="_top" xlink:title="追踪器抽象头文件">
<polygon fill="white" stroke="#666666" points="907,-294 786,-294 786,-275 907,-275 907,-294"/>
<text text-anchor="middle" x="846.5" y="-282" font-family="Helvetica,sans-Serif" font-size="10.00">rmvl/tracker/tracker.h</text>
</a>
</g>
</g>
<!-- Node1&#45;&gt;Node6 -->
<g id="edge41_Node000001_Node000006" class="edge">
<title>Node1&#45;&gt;Node6</title>
<g id="a_edge41_Node000001_Node000006"><a xlink:title=" ">
<path fill="none" stroke="#63b8ff" d="M892.45,-494.82C886.53,-477.66 873.34,-438.11 865.5,-404 857.48,-369.1 851.66,-327.65 848.71,-304.17"/>
<polygon fill="#63b8ff" stroke="#63b8ff" points="852.18,-303.7 847.49,-294.2 845.23,-304.55 852.18,-303.7"/>
</a>
</g>
</g>
<!-- Node3 -->
<g id="Node000003" class="node">
<title>Node3</title>
<g id="a_Node000003"><a xlink:href="../../d9/df2/compensator_8h.html" target="_top" xlink:title="抽象补偿类头文件">
<polygon fill="white" stroke="#666666" points="1366,-404 1185,-404 1185,-385 1366,-385 1366,-404"/>
<text text-anchor="middle" x="1275.5" y="-392" font-family="Helvetica,sans-Serif" font-size="10.00">rmvl/compensator/compensator.h</text>
</a>
</g>
</g>
<!-- Node2&#45;&gt;Node3 -->
<g id="edge2_Node000002_Node000003" class="edge">
<title>Node2&#45;&gt;Node3</title>
<g id="a_edge2_Node000002_Node000003"><a xlink:title=" ">
<path fill="none" stroke="#63b8ff" d="M1052.14,-442.11C1094.94,-433.18 1173.16,-416.85 1224.74,-406.09"/>
<polygon fill="#63b8ff" stroke="#63b8ff" points="1225.61,-409.49 1234.68,-404.02 1224.18,-402.63 1225.61,-409.49"/>
</a>
</g>
</g>
<!-- Node29 -->
<g id="Node000029" class="node">
<title>Node29</title>
<g id="a_Node000029"><a xlink:href="../../d5/d9f/detector_8h.html" target="_top" xlink:title="抽象识别类头文件">
<polygon fill="white" stroke="#666666" points="1166.5,-404 1032.5,-404 1032.5,-385 1166.5,-385 1166.5,-404"/>
<text text-anchor="middle" x="1099.5" y="-392" font-family="Helvetica,sans-Serif" font-size="10.00">rmvl/detector/detector.h</text>
</a>
</g>
</g>
<!-- Node2&#45;&gt;Node29 -->
<g id="edge34_Node000002_Node000029" class="edge">
<title>Node2&#45;&gt;Node29</title>
<g id="a_edge34_Node000002_Node000029"><a xlink:title=" ">
<path fill="none" stroke="#63b8ff" d="M1034.03,-439.98C1045.9,-431.92 1063.96,-419.65 1078.11,-410.03"/>
<polygon fill="#63b8ff" stroke="#63b8ff" points="1080.44,-412.69 1086.74,-404.17 1076.5,-406.9 1080.44,-412.69"/>
</a>
</g>
</g>
<!-- Node32 -->
<g id="Node000032" class="node">
<title>Node32</title>
<g id="a_Node000032"><a xlink:href="../../dc/d08/predictor_8h.html" target="_top" xlink:title="抽象预测类头文件">
<polygon fill="white" stroke="#666666" points="1014.5,-404 874.5,-404 874.5,-385 1014.5,-385 1014.5,-404"/>
<text text-anchor="middle" x="944.5" y="-392" font-family="Helvetica,sans-Serif" font-size="10.00">rmvl/predictor/predictor.h</text>
</a>
</g>
</g>
<!-- Node2&#45;&gt;Node32 -->
<g id="edge38_Node000002_Node000032" class="edge">
<title>Node2&#45;&gt;Node32</title>
<g id="a_edge38_Node000002_Node000032"><a xlink:title=" ">
<path fill="none" stroke="#63b8ff" d="M1009.13,-439.98C997.41,-431.92 979.58,-419.65 965.61,-410.03"/>
<polygon fill="#63b8ff" stroke="#63b8ff" points="967.32,-406.96 957.1,-404.17 963.35,-412.72 967.32,-406.96"/>
</a>
</g>
</g>
<!-- Node4 -->
<g id="Node000004" class="node">
<title>Node4</title>
<g id="a_Node000004"><a xlink:title=" ">
<polygon fill="#e0e0e0" stroke="#999999" points="1145,-129 1052,-129 1052,-110 1145,-110 1145,-129"/>
<text text-anchor="middle" x="1098.5" y="-117" font-family="Helvetica,sans-Serif" font-size="10.00">unordered_map</text>
</a>
</g>
</g>
<!-- Node3&#45;&gt;Node4 -->
<g id="edge3_Node000003_Node000004" class="edge">
<title>Node3&#45;&gt;Node4</title>
<g id="a_edge3_Node000003_Node000004"><a xlink:title=" ">
<path fill="none" stroke="#63b8ff" d="M1275.77,-384.82C1276.32,-366.48 1277.5,-322.44 1277.5,-285.5 1277.5,-285.5 1277.5,-285.5 1277.5,-228.5 1277.5,-170.36 1207.42,-142.7 1154.96,-130.13"/>
<polygon fill="#63b8ff" stroke="#63b8ff" points="1155.59,-126.68 1145.06,-127.89 1154.04,-133.51 1155.59,-126.68"/>
</a>
</g>
</g>
<!-- Node5 -->
<g id="Node000005" class="node">
<title>Node5</title>
<g id="a_Node000005"><a xlink:href="../../d9/dd1/group_8h.html" target="_top" xlink:title="序列组抽象头文件">
<polygon fill="white" stroke="#666666" points="1079.5,-349 969.5,-349 969.5,-330 1079.5,-330 1079.5,-349"/>
<text text-anchor="middle" x="1024.5" y="-337" font-family="Helvetica,sans-Serif" font-size="10.00">rmvl/group/group.h</text>
</a>
</g>
</g>
<!-- Node3&#45;&gt;Node5 -->
<g id="edge4_Node000003_Node000005" class="edge">
<title>Node3&#45;&gt;Node5</title>
<g id="a_edge4_Node000003_Node000005"><a xlink:title=" ">
<path fill="none" stroke="#63b8ff" d="M1235.17,-384.98C1191.66,-375.8 1122.3,-361.15 1075.15,-351.19"/>
<polygon fill="#63b8ff" stroke="#63b8ff" points="1075.65,-347.72 1065.14,-349.08 1074.2,-354.57 1075.65,-347.72"/>
</a>
</g>
</g>
<!-- Node5&#45;&gt;Node6 -->
<g id="edge5_Node000005_Node000006" class="edge">
<title>Node5&#45;&gt;Node6</title>
<g id="a_edge5_Node000005_Node000006"><a xlink:title=" ">
<path fill="none" stroke="#63b8ff" d="M995.9,-329.98C965.89,-321.05 918.52,-306.94 885.18,-297.02"/>
<polygon fill="#63b8ff" stroke="#63b8ff" points="885.91,-293.58 875.32,-294.08 883.91,-300.29 885.91,-293.58"/>
</a>
</g>
</g>
<!-- Node7 -->
<g id="Node000007" class="node">
<title>Node7</title>
<g id="a_Node000007"><a xlink:title=" ">
<polygon fill="#e0e0e0" stroke="#999999" points="870,-239 823,-239 823,-220 870,-220 870,-239"/>
<text text-anchor="middle" x="846.5" y="-227" font-family="Helvetica,sans-Serif" font-size="10.00">deque</text>
</a>
</g>
</g>
<!-- Node6&#45;&gt;Node7 -->
<g id="edge6_Node000006_Node000007" class="edge">
<title>Node6&#45;&gt;Node7</title>
<g id="a_edge6_Node000006_Node000007"><a xlink:title=" ">
<path fill="none" stroke="#63b8ff" d="M846.5,-274.75C846.5,-267.8 846.5,-257.85 846.5,-249.13"/>
<polygon fill="#63b8ff" stroke="#63b8ff" points="850,-249.09 846.5,-239.09 843,-249.09 850,-249.09"/>
</a>
</g>
</g>
<!-- Node8 -->
<g id="Node000008" class="node">
<title>Node8</title>
<g id="a_Node000008"><a xlink:href="../../d8/d36/combo_8h.html" target="_top" xlink:title="the combination of the features header file">
<polygon fill="white" stroke="#666666" points="555.5,-239 435.5,-239 435.5,-220 555.5,-220 555.5,-239"/>
<text text-anchor="middle" x="495.5" y="-227" font-family="Helvetica,sans-Serif" font-size="10.00">rmvl/combo/combo.h</text>
</a>
</g>
</g>
<!-- Node6&#45;&gt;Node8 -->
<g id="edge7_Node000006_Node000008" class="edge">
<title>Node6&#45;&gt;Node8</title>
<g id="a_edge7_Node000006_Node000008"><a xlink:title=" ">
<path fill="none" stroke="#63b8ff" d="M790.11,-274.98C728.02,-265.61 628.29,-250.55 562.33,-240.59"/>
<polygon fill="#63b8ff" stroke="#63b8ff" points="562.46,-237.07 552.04,-239.04 561.41,-243.99 562.46,-237.07"/>
</a>
</g>
</g>
<!-- Node9 -->
<g id="Node000009" class="node">
<title>Node9</title>
<g id="a_Node000009"><a xlink:href="../../d3/d7e/camutils_8hpp.html" target="_top" xlink:title=" ">
<polygon fill="white" stroke="#666666" points="204,-184 59,-184 59,-165 204,-165 204,-184"/>
<text text-anchor="middle" x="131.5" y="-172" font-family="Helvetica,sans-Serif" font-size="10.00">rmvl/camera/camutils.hpp</text>
</a>
</g>
</g>
<!-- Node8&#45;&gt;Node9 -->
<g id="edge8_Node000008_Node000009" class="edge">
<title>Node8&#45;&gt;Node9</title>
<g id="a_edge8_Node000008_Node000009"><a xlink:title=" ">
<path fill="none" stroke="#63b8ff" d="M437.02,-219.98C372.5,-210.59 268.78,-195.49 200.38,-185.53"/>
<polygon fill="#63b8ff" stroke="#63b8ff" points="200.54,-182.02 190.14,-184.04 199.53,-188.94 200.54,-182.02"/>
</a>
</g>
</g>
<!-- Node12 -->
<g id="Node000012" class="node">
<title>Node12</title>
<g id="a_Node000012"><a xlink:href="../../d4/d78/math_8hpp.html" target="_top" xlink:title="基础数学库">
<polygon fill="white" stroke="#666666" points="913,-184 774,-184 774,-165 913,-165 913,-184"/>
<text text-anchor="middle" x="843.5" y="-172" font-family="Helvetica,sans-Serif" font-size="10.00">rmvl/algorithm/math.hpp</text>
</a>
</g>
</g>
<!-- Node8&#45;&gt;Node12 -->
<g id="edge11_Node000008_Node000012" class="edge">
<title>Node8&#45;&gt;Node12</title>
<g id="a_edge11_Node000008_Node000012"><a xlink:title=" ">
<path fill="none" stroke="#63b8ff" d="M551.41,-219.98C612.96,-210.61 711.84,-195.55 777.24,-185.59"/>
<polygon fill="#63b8ff" stroke="#63b8ff" points="778.08,-189 787.44,-184.04 777.03,-182.08 778.08,-189"/>
</a>
</g>
</g>
<!-- Node22 -->
<g id="Node000022" class="node">
<title>Node22</title>
<g id="a_Node000022"><a xlink:href="../../dd/de3/types_8hpp.html" target="_top" xlink:title="常用状态类型定义">
<polygon fill="white" stroke="#666666" points="477.5,-129 387.5,-129 387.5,-110 477.5,-110 477.5,-129"/>
<text text-anchor="middle" x="432.5" y="-117" font-family="Helvetica,sans-Serif" font-size="10.00">rmvl/types.hpp</text>
</a>
</g>
</g>
<!-- Node8&#45;&gt;Node22 -->
<g id="edge23_Node000008_Node000022" class="edge">
<title>Node8&#45;&gt;Node22</title>
<g id="a_edge23_Node000008_Node000022"><a xlink:title=" ">
<path fill="none" stroke="#63b8ff" d="M490.34,-219.66C479.96,-201.85 456.34,-161.37 442.71,-138.01"/>
<polygon fill="#63b8ff" stroke="#63b8ff" points="445.61,-136.03 437.55,-129.16 439.57,-139.56 445.61,-136.03"/>
</a>
</g>
</g>
<!-- Node23 -->
<g id="Node000023" class="node">
<title>Node23</title>
<g id="a_Node000023"><a xlink:href="../../d5/d60/dataio_8hpp.html" target="_top" xlink:title="陀螺仪数据">
<polygon fill="white" stroke="#666666" points="616.5,-184 498.5,-184 498.5,-165 616.5,-165 616.5,-184"/>
<text text-anchor="middle" x="557.5" y="-172" font-family="Helvetica,sans-Serif" font-size="10.00">rmvl/core/dataio.hpp</text>
</a>
</g>
</g>
<!-- Node8&#45;&gt;Node23 -->
<g id="edge25_Node000008_Node000023" class="edge">
<title>Node8&#45;&gt;Node23</title>
<g id="a_edge25_Node000008_Node000023"><a xlink:title=" ">
<path fill="none" stroke="#63b8ff" d="M505.46,-219.98C514.63,-212.15 528.44,-200.34 539.53,-190.86"/>
<polygon fill="#63b8ff" stroke="#63b8ff" points="542.03,-193.33 547.36,-184.17 537.48,-188.01 542.03,-193.33"/>
</a>
</g>
</g>
<!-- Node26 -->
<g id="Node000026" class="node">
<title>Node26</title>
<g id="a_Node000026"><a xlink:href="../../d2/d74/feature_8h.html" target="_top" xlink:title="feature class header">
<polygon fill="white" stroke="#666666" points="404,-184 279,-184 279,-165 404,-165 404,-184"/>
<text text-anchor="middle" x="341.5" y="-172" font-family="Helvetica,sans-Serif" font-size="10.00">rmvl/feature/feature.h</text>
</a>
</g>
</g>
<!-- Node8&#45;&gt;Node26 -->
<g id="edge30_Node000008_Node000026" class="edge">
<title>Node8&#45;&gt;Node26</title>
<g id="a_edge30_Node000008_Node000026"><a xlink:title=" ">
<path fill="none" stroke="#63b8ff" d="M470.76,-219.98C445.13,-211.16 404.87,-197.31 376.09,-187.41"/>
<polygon fill="#63b8ff" stroke="#63b8ff" points="377.03,-184.03 366.44,-184.08 374.75,-190.65 377.03,-184.03"/>
</a>
</g>
</g>
<!-- Node10 -->
<g id="Node000010" class="node">
<title>Node10</title>
<g id="a_Node000010"><a xlink:title=" ">
<polygon fill="#e0e0e0" stroke="#999999" points="103,-129 0,-129 0,-110 103,-110 103,-129"/>
<text text-anchor="middle" x="51.5" y="-117" font-family="Helvetica,sans-Serif" font-size="10.00">opencv2/core.hpp</text>
</a>
</g>
</g>
<!-- Node9&#45;&gt;Node10 -->
<g id="edge9_Node000009_Node000010" class="edge">
<title>Node9&#45;&gt;Node10</title>
<g id="a_edge9_Node000009_Node000010"><a xlink:title=" ">
<path fill="none" stroke="#63b8ff" d="M118.65,-164.98C106.36,-156.84 87.59,-144.41 73.02,-134.76"/>
<polygon fill="#63b8ff" stroke="#63b8ff" points="74.86,-131.78 64.59,-129.17 70.99,-137.61 74.86,-131.78"/>
</a>
</g>
</g>
<!-- Node11 -->
<g id="Node000011" class="node">
<title>Node11</title>
<g id="a_Node000011"><a xlink:href="../../db/d41/rmvldef_8hpp.html" target="_top" xlink:title=" ">
<polygon fill="white" stroke="#666666" points="522,-19 397,-19 397,0 522,0 522,-19"/>
<text text-anchor="middle" x="459.5" y="-7" font-family="Helvetica,sans-Serif" font-size="10.00">rmvl/core/rmvldef.hpp</text>
</a>
</g>
</g>
<!-- Node9&#45;&gt;Node11 -->
<g id="edge10_Node000009_Node000011" class="edge">
<title>Node9&#45;&gt;Node11</title>
<g id="a_edge10_Node000009_Node000011"><a xlink:title=" ">
<path fill="none" stroke="#63b8ff" d="M131.65,-164.85C132.35,-151.31 135.68,-125.13 150.5,-110 213.18,-46.01 317.13,-23.12 386.95,-14.97"/>
<polygon fill="#63b8ff" stroke="#63b8ff" points="387.43,-18.43 396.99,-13.87 386.67,-11.48 387.43,-18.43"/>
</a>
</g>
</g>
<!-- Node12&#45;&gt;Node4 -->
<g id="edge14_Node000012_Node000004" class="edge">
<title>Node12&#45;&gt;Node4</title>
<g id="a_edge14_Node000012_Node000004"><a xlink:title=" ">
<path fill="none" stroke="#63b8ff" d="M884.47,-164.98C928.76,-155.78 999.44,-141.09 1047.35,-131.13"/>
<polygon fill="#63b8ff" stroke="#63b8ff" points="1048.13,-134.54 1057.21,-129.08 1046.71,-127.69 1048.13,-134.54"/>
</a>
</g>
</g>
<!-- Node13 -->
<g id="Node000013" class="node">
<title>Node13</title>
<g id="a_Node000013"><a xlink:title=" ">
<polygon fill="#e0e0e0" stroke="#999999" points="921,-129 874,-129 874,-110 921,-110 921,-129"/>
<text text-anchor="middle" x="897.5" y="-117" font-family="Helvetica,sans-Serif" font-size="10.00">cmath</text>
</a>
</g>
</g>
<!-- Node12&#45;&gt;Node13 -->
<g id="edge12_Node000012_Node000013" class="edge">
<title>Node12&#45;&gt;Node13</title>
<g id="a_edge12_Node000012_Node000013"><a xlink:title=" ">
<path fill="none" stroke="#63b8ff" d="M852.42,-164.75C860.28,-157.03 871.93,-145.6 881.42,-136.28"/>
<polygon fill="#63b8ff" stroke="#63b8ff" points="884.06,-138.59 888.75,-129.09 879.16,-133.6 884.06,-138.59"/>
</a>
</g>
</g>
<!-- Node14 -->
<g id="Node000014" class="node">
<title>Node14</title>
<g id="a_Node000014"><a xlink:title=" ">
<polygon fill="#e0e0e0" stroke="#999999" points="995.5,-129 939.5,-129 939.5,-110 995.5,-110 995.5,-129"/>
<text text-anchor="middle" x="967.5" y="-117" font-family="Helvetica,sans-Serif" font-size="10.00">numeric</text>
</a>
</g>
</g>
<!-- Node12&#45;&gt;Node14 -->
<g id="edge13_Node000012_Node000014" class="edge">
<title>Node12&#45;&gt;Node14</title>
<g id="a_edge13_Node000012_Node000014"><a xlink:title=" ">
<path fill="none" stroke="#63b8ff" d="M863.42,-164.98C883.55,-156.38 914.88,-142.99 937.91,-133.15"/>
<polygon fill="#63b8ff" stroke="#63b8ff" points="939.4,-136.32 947.21,-129.17 936.64,-129.88 939.4,-136.32"/>
</a>
</g>
</g>
<!-- Node15 -->
<g id="Node000015" class="node">
<title>Node15</title>
<g id="a_Node000015"><a xlink:title=" ">
<polygon fill="#e0e0e0" stroke="#999999" points="707,-129 660,-129 660,-110 707,-110 707,-129"/>
<text text-anchor="middle" x="683.5" y="-117" font-family="Helvetica,sans-Serif" font-size="10.00">vector</text>
</a>
</g>
</g>
<!-- Node12&#45;&gt;Node15 -->
<g id="edge15_Node000012_Node000015" class="edge">
<title>Node12&#45;&gt;Node15</title>
<g id="a_edge15_Node000012_Node000015"><a xlink:title=" ">
<path fill="none" stroke="#63b8ff" d="M817.79,-164.98C790.33,-155.89 746.71,-141.44 716.68,-131.49"/>
<polygon fill="#63b8ff" stroke="#63b8ff" points="717.65,-128.13 707.06,-128.3 715.45,-134.77 717.65,-128.13"/>
</a>
</g>
</g>
<!-- Node16 -->
<g id="Node000016" class="node">
<title>Node16</title>
<g id="a_Node000016"><a xlink:title=" ">
<polygon fill="#e0e0e0" stroke="#999999" points="856,-129 725,-129 725,-110 856,-110 856,-129"/>
<text text-anchor="middle" x="790.5" y="-117" font-family="Helvetica,sans-Serif" font-size="10.00">opencv2/core/matx.hpp</text>
</a>
</g>
</g>
<!-- Node12&#45;&gt;Node16 -->
<g id="edge16_Node000012_Node000016" class="edge">
<title>Node12&#45;&gt;Node16</title>
<g id="a_edge16_Node000012_Node000016"><a xlink:title=" ">
<path fill="none" stroke="#63b8ff" d="M834.75,-164.75C827.03,-157.03 815.6,-145.6 806.28,-136.28"/>
<polygon fill="#63b8ff" stroke="#63b8ff" points="808.64,-133.69 799.09,-129.09 803.69,-138.64 808.64,-133.69"/>
</a>
</g>
</g>
<!-- Node17 -->
<g id="Node000017" class="node">
<title>Node17</title>
<g id="a_Node000017"><a xlink:href="../../d0/d3f/util_8hpp.html" target="_top" xlink:title=" ">
<polygon fill="white" stroke="#666666" points="683,-74 580,-74 580,-55 683,-55 683,-74"/>
<text text-anchor="middle" x="631.5" y="-62" font-family="Helvetica,sans-Serif" font-size="10.00">rmvl/core/util.hpp</text>
</a>
</g>
</g>
<!-- Node12&#45;&gt;Node17 -->
<g id="edge17_Node000012_Node000017" class="edge">
<title>Node12&#45;&gt;Node17</title>
<g id="a_edge17_Node000012_Node000017"><a xlink:title=" ">
<path fill="none" stroke="#63b8ff" d="M901.72,-164.94C942.49,-157.62 991.85,-145.61 1004.5,-129 1009.61,-122.28 1010.11,-116.31 1004.5,-110 984.22,-87.16 793.92,-73.92 693.26,-68.46"/>
<polygon fill="#63b8ff" stroke="#63b8ff" points="693.39,-64.96 683.22,-67.92 693.02,-71.95 693.39,-64.96"/>
</a>
</g>
</g>
<!-- Node17&#45;&gt;Node11 -->
<g id="edge22_Node000017_Node000011" class="edge">
<title>Node17&#45;&gt;Node11</title>
<g id="a_edge22_Node000017_Node000011"><a xlink:title=" ">
<path fill="none" stroke="#63b8ff" d="M603.87,-54.98C574.99,-46.09 529.49,-32.07 497.3,-22.15"/>
<polygon fill="#63b8ff" stroke="#63b8ff" points="497.94,-18.68 487.35,-19.08 495.88,-25.37 497.94,-18.68"/>
</a>
</g>
</g>
<!-- Node18 -->
<g id="Node000018" class="node">
<title>Node18</title>
<g id="a_Node000018"><a xlink:title=" ">
<polygon fill="#e0e0e0" stroke="#999999" points="868,-19 735,-19 735,0 868,0 868,-19"/>
<text text-anchor="middle" x="801.5" y="-7" font-family="Helvetica,sans-Serif" font-size="10.00">rmvl/rmvl_modules.hpp</text>
</a>
</g>
</g>
<!-- Node17&#45;&gt;Node18 -->
<g id="edge18_Node000017_Node000018" class="edge">
<title>Node17&#45;&gt;Node18</title>
<g id="a_edge18_Node000017_Node000018"><a xlink:title=" ">
<path fill="none" stroke="#63b8ff" d="M658.81,-54.98C687.35,-46.09 732.33,-32.07 764.14,-22.15"/>
<polygon fill="#63b8ff" stroke="#63b8ff" points="765.47,-25.4 773.97,-19.08 763.38,-18.72 765.47,-25.4"/>
</a>
</g>
</g>
<!-- Node19 -->
<g id="Node000019" class="node">
<title>Node19</title>
<g id="a_Node000019"><a xlink:title=" ">
<polygon fill="#e0e0e0" stroke="#999999" points="590.5,-19 540.5,-19 540.5,0 590.5,0 590.5,-19"/>
<text text-anchor="middle" x="565.5" y="-7" font-family="Helvetica,sans-Serif" font-size="10.00">cstdint</text>
</a>
</g>
</g>
<!-- Node17&#45;&gt;Node19 -->
<g id="edge19_Node000017_Node000019" class="edge">
<title>Node17&#45;&gt;Node19</title>
<g id="a_edge19_Node000017_Node000019"><a xlink:title=" ">
<path fill="none" stroke="#63b8ff" d="M620.9,-54.98C611.04,-47.07 596.15,-35.11 584.28,-25.58"/>
<polygon fill="#63b8ff" stroke="#63b8ff" points="586.29,-22.7 576.3,-19.17 581.9,-28.16 586.29,-22.7"/>
</a>
</g>
</g>
<!-- Node20 -->
<g id="Node000020" class="node">
<title>Node20</title>
<g id="a_Node000020"><a xlink:title=" ">
<polygon fill="#e0e0e0" stroke="#999999" points="654.5,-19 608.5,-19 608.5,0 654.5,0 654.5,-19"/>
<text text-anchor="middle" x="631.5" y="-7" font-family="Helvetica,sans-Serif" font-size="10.00">cstdio</text>
</a>
</g>
</g>
<!-- Node17&#45;&gt;Node20 -->
<g id="edge20_Node000017_Node000020" class="edge">
<title>Node17&#45;&gt;Node20</title>
<g id="a_edge20_Node000017_Node000020"><a xlink:title=" ">
<path fill="none" stroke="#63b8ff" d="M631.5,-54.75C631.5,-47.8 631.5,-37.85 631.5,-29.13"/>
<polygon fill="#63b8ff" stroke="#63b8ff" points="635,-29.09 631.5,-19.09 628,-29.09 635,-29.09"/>
</a>
</g>
</g>
<!-- Node21 -->
<g id="Node000021" class="node">
<title>Node21</title>
<g id="a_Node000021"><a xlink:title=" ">
<polygon fill="#e0e0e0" stroke="#999999" points="716.5,-19 672.5,-19 672.5,0 716.5,0 716.5,-19"/>
<text text-anchor="middle" x="694.5" y="-7" font-family="Helvetica,sans-Serif" font-size="10.00">string</text>
</a>
</g>
</g>
<!-- Node17&#45;&gt;Node21 -->
<g id="edge21_Node000017_Node000021" class="edge">
<title>Node17&#45;&gt;Node21</title>
<g id="a_edge21_Node000017_Node000021"><a xlink:title=" ">
<path fill="none" stroke="#63b8ff" d="M641.62,-54.98C650.94,-47.15 664.97,-35.34 676.24,-25.86"/>
<polygon fill="#63b8ff" stroke="#63b8ff" points="678.79,-28.29 684.19,-19.17 674.29,-22.93 678.79,-28.29"/>
</a>
</g>
</g>
<!-- Node22&#45;&gt;Node17 -->
<g id="edge24_Node000022_Node000017" class="edge">
<title>Node22&#45;&gt;Node17</title>
<g id="a_edge24_Node000022_Node000017"><a xlink:title=" ">
<path fill="none" stroke="#63b8ff" d="M464.47,-109.98C498.32,-100.97 551.9,-86.7 589.21,-76.76"/>
<polygon fill="#63b8ff" stroke="#63b8ff" points="590.51,-80.04 599.28,-74.08 588.71,-73.27 590.51,-80.04"/>
</a>
</g>
</g>
<!-- Node23&#45;&gt;Node11 -->
<g id="edge29_Node000023_Node000011" class="edge">
<title>Node23&#45;&gt;Node11</title>
<g id="a_edge29_Node000023_Node000011"><a xlink:title=" ">
<path fill="none" stroke="#63b8ff" d="M550.56,-164.89C543.62,-156.1 532.8,-141.96 524.5,-129 502.33,-94.41 480.08,-51.7 468.23,-28.16"/>
<polygon fill="#63b8ff" stroke="#63b8ff" points="471.29,-26.44 463.69,-19.06 465.02,-29.57 471.29,-26.44"/>
</a>
</g>
</g>
<!-- Node23&#45;&gt;Node15 -->
<g id="edge28_Node000023_Node000015" class="edge">
<title>Node23&#45;&gt;Node15</title>
<g id="a_edge28_Node000023_Node000015"><a xlink:title=" ">
<path fill="none" stroke="#63b8ff" d="M577.74,-164.98C598.2,-156.38 630.03,-142.99 653.43,-133.15"/>
<polygon fill="#63b8ff" stroke="#63b8ff" points="655.03,-136.27 662.89,-129.17 652.31,-129.82 655.03,-136.27"/>
</a>
</g>
</g>
<!-- Node24 -->
<g id="Node000024" class="node">
<title>Node24</title>
<g id="a_Node000024"><a xlink:title=" ">
<polygon fill="#e0e0e0" stroke="#999999" points="641.5,-129 599.5,-129 599.5,-110 641.5,-110 641.5,-129"/>
<text text-anchor="middle" x="620.5" y="-117" font-family="Helvetica,sans-Serif" font-size="10.00">array</text>
</a>
</g>
</g>
<!-- Node23&#45;&gt;Node24 -->
<g id="edge26_Node000023_Node000024" class="edge">
<title>Node23&#45;&gt;Node24</title>
<g id="a_edge26_Node000023_Node000024"><a xlink:title=" ">
<path fill="none" stroke="#63b8ff" d="M567.62,-164.98C576.94,-157.15 590.97,-145.34 602.24,-135.86"/>
<polygon fill="#63b8ff" stroke="#63b8ff" points="604.79,-138.29 610.19,-129.17 600.29,-132.93 604.79,-138.29"/>
</a>
</g>
</g>
<!-- Node25 -->
<g id="Node000025" class="node">
<title>Node25</title>
<g id="a_Node000025"><a xlink:title=" ">
<polygon fill="#e0e0e0" stroke="#999999" points="581.5,-129 533.5,-129 533.5,-110 581.5,-110 581.5,-129"/>
<text text-anchor="middle" x="557.5" y="-117" font-family="Helvetica,sans-Serif" font-size="10.00">iosfwd</text>
</a>
</g>
</g>
<!-- Node23&#45;&gt;Node25 -->
<g id="edge27_Node000023_Node000025" class="edge">
<title>Node23&#45;&gt;Node25</title>
<g id="a_edge27_Node000023_Node000025"><a xlink:title=" ">
<path fill="none" stroke="#63b8ff" d="M557.5,-164.75C557.5,-157.8 557.5,-147.85 557.5,-139.13"/>
<polygon fill="#63b8ff" stroke="#63b8ff" points="561,-139.09 557.5,-129.09 554,-139.09 561,-139.09"/>
</a>
</g>
</g>
<!-- Node26&#45;&gt;Node22 -->
<g id="edge33_Node000026_Node000022" class="edge">
<title>Node26&#45;&gt;Node22</title>
<g id="a_edge33_Node000026_Node000022"><a xlink:title=" ">
<path fill="none" stroke="#63b8ff" d="M356.12,-164.98C370.36,-156.69 392.25,-143.94 408.95,-134.22"/>
<polygon fill="#63b8ff" stroke="#63b8ff" points="410.73,-137.23 417.61,-129.17 407.21,-131.18 410.73,-137.23"/>
</a>
</g>
</g>
<!-- Node27 -->
<g id="Node000027" class="node">
<title>Node27</title>
<g id="a_Node000027"><a xlink:title=" ">
<polygon fill="#e0e0e0" stroke="#999999" points="217.5,-129 159.5,-129 159.5,-110 217.5,-110 217.5,-129"/>
<text text-anchor="middle" x="188.5" y="-117" font-family="Helvetica,sans-Serif" font-size="10.00">memory</text>
</a>
</g>
</g>
<!-- Node26&#45;&gt;Node27 -->
<g id="edge31_Node000026_Node000027" class="edge">
<title>Node26&#45;&gt;Node27</title>
<g id="a_edge31_Node000026_Node000027"><a xlink:title=" ">
<path fill="none" stroke="#63b8ff" d="M316.92,-164.98C291.45,-156.16 251.46,-142.31 222.87,-132.41"/>
<polygon fill="#63b8ff" stroke="#63b8ff" points="223.87,-129.05 213.27,-129.08 221.58,-135.66 223.87,-129.05"/>
</a>
</g>
</g>
<!-- Node28 -->
<g id="Node000028" class="node">
<title>Node28</title>
<g id="a_Node000028"><a xlink:title=" ">
<polygon fill="#e0e0e0" stroke="#999999" points="369,-129 236,-129 236,-110 369,-110 369,-129"/>
<text text-anchor="middle" x="302.5" y="-117" font-family="Helvetica,sans-Serif" font-size="10.00">opencv2/core/types.hpp</text>
</a>
</g>
</g>
<!-- Node26&#45;&gt;Node28 -->
<g id="edge32_Node000026_Node000028" class="edge">
<title>Node26&#45;&gt;Node28</title>
<g id="a_edge32_Node000026_Node000028"><a xlink:title=" ">
<path fill="none" stroke="#63b8ff" d="M335.06,-164.75C329.61,-157.34 321.64,-146.5 314.94,-137.41"/>
<polygon fill="#63b8ff" stroke="#63b8ff" points="317.57,-135.07 308.82,-129.09 311.93,-139.22 317.57,-135.07"/>
</a>
</g>
</g>
<!-- Node29&#45;&gt;Node5 -->
<g id="edge35_Node000029_Node000005" class="edge">
<title>Node29&#45;&gt;Node5</title>
<g id="a_edge35_Node000029_Node000005"><a xlink:title=" ">
<path fill="none" stroke="#63b8ff" d="M1087.45,-384.98C1076.04,-376.92 1058.67,-364.65 1045.07,-355.03"/>
<polygon fill="#63b8ff" stroke="#63b8ff" points="1046.96,-352.08 1036.77,-349.17 1042.92,-357.8 1046.96,-352.08"/>
</a>
</g>
</g>
<!-- Node30 -->
<g id="Node000030" class="node">
<title>Node30</title>
<g id="a_Node000030"><a xlink:href="../../d2/d4c/pretreat_8hpp.html" target="_top" xlink:title="图像预处理模块">
<polygon fill="white" stroke="#666666" points="1249.5,-349 1097.5,-349 1097.5,-330 1249.5,-330 1249.5,-349"/>
<text text-anchor="middle" x="1173.5" y="-337" font-family="Helvetica,sans-Serif" font-size="10.00">rmvl/algorithm/pretreat.hpp</text>
</a>
</g>
</g>
<!-- Node29&#45;&gt;Node30 -->
<g id="edge36_Node000029_Node000030" class="edge">
<title>Node29&#45;&gt;Node30</title>
<g id="a_edge36_Node000029_Node000030"><a xlink:title=" ">
<path fill="none" stroke="#63b8ff" d="M1111.39,-384.98C1122.65,-376.92 1139.79,-364.65 1153.21,-355.03"/>
<polygon fill="#63b8ff" stroke="#63b8ff" points="1155.3,-357.84 1161.39,-349.17 1151.23,-352.15 1155.3,-357.84"/>
</a>
</g>
</g>
<!-- Node31 -->
<g id="Node000031" class="node">
<title>Node31</title>
<g id="a_Node000031"><a xlink:title=" ">
<polygon fill="#e0e0e0" stroke="#999999" points="1236,-294 1111,-294 1111,-275 1236,-275 1236,-294"/>
<text text-anchor="middle" x="1173.5" y="-282" font-family="Helvetica,sans-Serif" font-size="10.00">opencv2/core/mat.hpp</text>
</a>
</g>
</g>
<!-- Node30&#45;&gt;Node31 -->
<g id="edge37_Node000030_Node000031" class="edge">
<title>Node30&#45;&gt;Node31</title>
<g id="a_edge37_Node000030_Node000031"><a xlink:title=" ">
<path fill="none" stroke="#63b8ff" d="M1173.5,-329.75C1173.5,-322.8 1173.5,-312.85 1173.5,-304.13"/>
<polygon fill="#63b8ff" stroke="#63b8ff" points="1177,-304.09 1173.5,-294.09 1170,-304.09 1177,-304.09"/>
</a>
</g>
</g>
<!-- Node32&#45;&gt;Node4 -->
<g id="edge39_Node000032_Node000004" class="edge">
<title>Node32&#45;&gt;Node4</title>
<g id="a_edge39_Node000032_Node000004"><a xlink:title=" ">
<path fill="none" stroke="#63b8ff" d="M944.1,-384.82C943.28,-366.49 941.5,-322.45 941.5,-285.5 941.5,-285.5 941.5,-285.5 941.5,-228.5 941.5,-175.02 1004.09,-146.02 1050.23,-131.91"/>
<polygon fill="#63b8ff" stroke="#63b8ff" points="1051.47,-135.19 1060.09,-129.04 1049.51,-128.47 1051.47,-135.19"/>
</a>
</g>
</g>
<!-- Node32&#45;&gt;Node5 -->
<g id="edge40_Node000032_Node000005" class="edge">
<title>Node32&#45;&gt;Node5</title>
<g id="a_edge40_Node000032_Node000005"><a xlink:title=" ">
<path fill="none" stroke="#63b8ff" d="M957.35,-384.98C969.64,-376.84 988.41,-364.41 1002.98,-354.76"/>
<polygon fill="#63b8ff" stroke="#63b8ff" points="1005.01,-357.61 1011.41,-349.17 1001.14,-351.78 1005.01,-357.61"/>
</a>
</g>
</g>
</g>
</svg>

<g id="navigator" transform="translate(0 0)" fill="#404254">
  <rect fill="#f2f5e9" fill-opacity="0.5" stroke="#606060" stroke-width=".5" x="0" y="0" width="60" height="60"/>
  <use id="zoomplus" xlink:href="#zoomPlus" x="17" y="9" onmousedown="handleZoom(evt,'in')"/>
  <use id="zoomminus" xlink:href="#zoomMin" x="42" y="9" onmousedown="handleZoom(evt,'out')"/>
  <use id="reset" xlink:href="#resetDef" x="30" y="36" onmousedown="handleReset()"/>
   <use id="arrowup" xlink:href="#arrowUp" x="0" y="0" onmousedown="handlePan(0,-1)"/>
  <use id="arrowright" xlink:href="#arrowRight" x="0" y="0" onmousedown="handlePan(1,0)"/>
  <use id="arrowdown" xlink:href="#arrowDown" x="0" y="0" onmousedown="handlePan(0,1)"/>
  <use id="arrowleft" xlink:href="#arrowLeft" x="0" y="0" onmousedown="handlePan(-1,0)"/>
</g>
<svg viewBox="0 0 15 15" width="100%" height="30px" preserveAspectRatio="xMaxYMin meet">
 <g id="arrow_out" transform="scale(0.3 0.3)">
  <a xlink:href="decider_2gyro__decider_8h__incl_org.svg" target="_base">
   <rect id="button" ry="5" rx="5" y="6" x="6" height="38" width="38"
        fill="#f2f5e9" fill-opacity="0.5" stroke="#606060" stroke-width="1.0"/>
   <path id="arrow"
     d="M 11.500037,31.436501 C 11.940474,20.09759 22.043105,11.32322 32.158766,21.979434 L 37.068811,17.246167 C 37.068811,17.246167 37.088388,32 37.088388,32 L 22.160133,31.978069 C 22.160133,31.978069 26.997745,27.140456 26.997745,27.140456 C 18.528582,18.264221 13.291696,25.230495 11.500037,31.436501 z"
     style="fill:#404040;"/>
  </a>
 </g>
</svg>

<style type='text/css'>
<![CDATA[
[data-mouse-over-selected='false'] { opacity: 0.7; }
[data-mouse-over-selected='true']  { opacity: 1.0; }
]]>
</style>
<script type="application/ecmascript"><![CDATA[
document.addEventListener('DOMContentLoaded', (event) => {
  highlightEdges();
  highlightAdjacentNodes();
});
]]></script>
</svg>
