<?xml version="1.0" encoding="UTF-8" standalone="no"?>
<!DOCTYPE svg PUBLIC "-//W3C//DTD SVG 1.1//EN"
 "http://www.w3.org/Graphics/SVG/1.1/DTD/svg11.dtd">
<!-- Generated by graphviz version 2.43.0 (0)
 -->
<!-- Title: rm::GyroDetector Pages: 1 -->
<svg width="117pt" height="248pt"
 viewBox="0.00 0.00 117.00 248.00" xmlns="http://www.w3.org/2000/svg" xmlns:xlink="http://www.w3.org/1999/xlink">
<g id="graph0" class="graph" transform="scale(1 1) rotate(0) translate(4 244)">
<title>rm::GyroDetector</title>
<polygon fill="white" stroke="transparent" points="-4,4 -4,-244 113,-244 113,4 -4,4"/>
<!-- Node1 -->
<g id="node1" class="node">
<title>Node1</title>
<g id="a_node1"><a xlink:title="整车状态识别模块">
<polygon fill="#bfbfbf" stroke="black" points="0,-0.5 0,-112.5 109,-112.5 109,-0.5 0,-0.5"/>
<text text-anchor="middle" x="54.5" y="-100.5" font-family="Helvetica,sans-Serif" font-size="10.00">rm::GyroDetector</text>
<polyline fill="none" stroke="black" points="0,-93.5 109,-93.5 "/>
<text text-anchor="middle" x="54.5" y="-81.5" font-family="Helvetica,sans-Serif" font-size="10.00"> </text>
<polyline fill="none" stroke="black" points="0,-74.5 109,-74.5 "/>
<text text-anchor="start" x="8" y="-62.5" font-family="Helvetica,sans-Serif" font-size="10.00">+ GyroDetector()</text>
<text text-anchor="start" x="8" y="-51.5" font-family="Helvetica,sans-Serif" font-size="10.00">+ ~GyroDetector()</text>
<text text-anchor="start" x="8" y="-40.5" font-family="Helvetica,sans-Serif" font-size="10.00">+ GyroDetector()</text>
<text text-anchor="start" x="8" y="-29.5" font-family="Helvetica,sans-Serif" font-size="10.00">+ detect()</text>
<text text-anchor="start" x="8" y="-18.5" font-family="Helvetica,sans-Serif" font-size="10.00">+ make_detector()</text>
<text text-anchor="start" x="8" y="-7.5" font-family="Helvetica,sans-Serif" font-size="10.00">+ make_detector()</text>
</a>
</g>
</g>
<!-- Node2 -->
<g id="node2" class="node">
<title>Node2</title>
<g id="a_node2"><a xlink:href="../../d3/d77/classrm_1_1detector.html" target="_top" xlink:title="识别检测模块">
<polygon fill="white" stroke="black" points="12.5,-149.5 12.5,-239.5 96.5,-239.5 96.5,-149.5 12.5,-149.5"/>
<text text-anchor="middle" x="54.5" y="-227.5" font-family="Helvetica,sans-Serif" font-size="10.00">rm::detector</text>
<polyline fill="none" stroke="black" points="12.5,-220.5 96.5,-220.5 "/>
<text text-anchor="start" x="20.5" y="-208.5" font-family="Helvetica,sans-Serif" font-size="10.00"># _tick</text>
<text text-anchor="start" x="20.5" y="-197.5" font-family="Helvetica,sans-Serif" font-size="10.00"># _gyro_data</text>
<polyline fill="none" stroke="black" points="12.5,-190.5 96.5,-190.5 "/>
<text text-anchor="start" x="20.5" y="-178.5" font-family="Helvetica,sans-Serif" font-size="10.00">+ detector()</text>
<text text-anchor="start" x="20.5" y="-167.5" font-family="Helvetica,sans-Serif" font-size="10.00">+ ~detector()</text>
<text text-anchor="start" x="20.5" y="-156.5" font-family="Helvetica,sans-Serif" font-size="10.00">+ detect()</text>
</a>
</g>
</g>
<!-- Node2&#45;&gt;Node1 -->
<g id="edge1" class="edge">
<title>Node2&#45;&gt;Node1</title>
<path fill="none" stroke="midnightblue" d="M54.5,-139.31C54.5,-130.61 54.5,-121.59 54.5,-112.87"/>
<polygon fill="none" stroke="midnightblue" points="51,-139.34 54.5,-149.34 58,-139.34 51,-139.34"/>
</g>
</g>
</svg>
