<?xml version="1.0" encoding="UTF-8" standalone="no"?>
<!DOCTYPE svg PUBLIC "-//W3C//DTD SVG 1.1//EN"
 "http://www.w3.org/Graphics/SVG/1.1/DTD/svg11.dtd">
<!-- Generated by graphviz version 2.43.0 (0)
 -->
<!-- Title: rm::msg::Polygon Pages: 1 -->
<svg width="329pt" height="438pt"
 viewBox="0.00 0.00 329.00 438.00" xmlns="http://www.w3.org/2000/svg" xmlns:xlink="http://www.w3.org/1999/xlink">

<svg id="main" version="1.1" xmlns="http://www.w3.org/2000/svg" xmlns:xlink="http://www.w3.org/1999/xlink" xml:space="preserve">

<style type="text/css"><![CDATA[
.node, .edge {opacity: 0.7;}
.node.selected, .edge.selected {opacity: 1;}
.edge:hover path { stroke: red; }
.edge:hover polygon { stroke: red; fill: red; }
]]></style>
<script type="application/ecmascript" xlink:href="../../svg.min.js"/>
<svg id="graph" class="graph">
<g id="graph0" class="graph" transform="scale(1 1) rotate(0) translate(4 434)">
<title>rm::msg::Polygon</title>
<!-- Node1 -->
<g id="Node000001" class="node">
<title>Node1</title>
<g id="a_Node000001"><a xlink:title="Polygon 消息类型：geometry/Polygon">
<polygon fill="#999999" stroke="transparent" points="147,-79 51,-79 51,0 147,0 147,-79"/>
<text text-anchor="start" x="56" y="-66.5" font-family="Helvetica,sans-Serif" font-size="10.00">rm::msg::Polygon</text>
<text text-anchor="start" x="97" y="-51.5" font-family="Helvetica,sans-Serif" font-size="10.00"> </text>
<text text-anchor="start" x="55" y="-36.5" font-family="Helvetica,sans-Serif" font-size="10.00">+</text>
<text text-anchor="start" x="68" y="-36.5" font-family="Helvetica,sans-Serif" font-size="10.00">serialize()</text>
<text text-anchor="start" x="55" y="-21.5" font-family="Helvetica,sans-Serif" font-size="10.00">+</text>
<text text-anchor="start" x="68" y="-21.5" font-family="Helvetica,sans-Serif" font-size="10.00">compact_size()</text>
<text text-anchor="start" x="55" y="-6.5" font-family="Helvetica,sans-Serif" font-size="10.00">+</text>
<text text-anchor="start" x="68" y="-6.5" font-family="Helvetica,sans-Serif" font-size="10.00">deserialize()</text>
<polygon fill="#666666" stroke="#666666" points="51,-61.5 51,-61.5 147,-61.5 147,-61.5 51,-61.5"/>
<polygon fill="#666666" stroke="#666666" points="51,-46.5 51,-46.5 147,-46.5 147,-46.5 51,-46.5"/>
<polygon fill="none" stroke="#666666" points="51,0 51,-79 147,-79 147,0 51,0"/>
</a>
</g>
</g>
<!-- Node2 -->
<g id="Node000002" class="node">
<title>Node2</title>
<g id="a_Node000002"><a xlink:title=" ">
<polygon fill="white" stroke="transparent" points="114,-186 0,-186 0,-126 114,-126 114,-186"/>
<text text-anchor="start" x="5" y="-174" font-family="Helvetica,sans-Serif" font-size="10.00">std::vector&lt; rm::msg</text>
<text text-anchor="start" x="29.5" y="-163" font-family="Helvetica,sans-Serif" font-size="10.00">::Point32 &gt;</text>
<text text-anchor="start" x="55" y="-148" font-family="Helvetica,sans-Serif" font-size="10.00"> </text>
<text text-anchor="start" x="55" y="-133" font-family="Helvetica,sans-Serif" font-size="10.00"> </text>
<polygon fill="#666666" stroke="#666666" points="0,-158 0,-158 114,-158 114,-158 0,-158"/>
<polygon fill="#666666" stroke="#666666" points="0,-143 0,-143 114,-143 114,-143 0,-143"/>
<polygon fill="none" stroke="#666666" points="0,-126 0,-186 114,-186 114,-126 0,-126"/>
</a>
</g>
</g>
<!-- Node2&#45;&gt;Node1 -->
<g id="edge1_Node000001_Node000002" class="edge">
<title>Node2&#45;&gt;Node1</title>
<g id="a_edge1_Node000001_Node000002"><a xlink:title=" ">
<path fill="none" stroke="#63b8ff" d="M67.71,-125.81C71.65,-115.07 76.23,-102.57 80.66,-90.51"/>
<polygon fill="none" stroke="#63b8ff" points="80.69,-90.41 79,-83.4 84.82,-79.15 86.51,-86.16 80.69,-90.41"/>
</a>
</g>
<text text-anchor="middle" x="99" y="-100" font-family="Helvetica,sans-Serif" font-size="10.00" fill="grey"> +points</text>
</g>
<!-- Node3 -->
<g id="Node000003" class="node">
<title>Node3</title>
<g id="a_Node000003"><a xlink:href="../../d7/dff/classrm_1_1msg_1_1Point32.html" target="_top" xlink:title="Point32 消息类型：geometry/Point32">
<polygon fill="white" stroke="transparent" points="105,-312 9,-312 9,-233 105,-233 105,-312"/>
<text text-anchor="start" x="15" y="-299.5" font-family="Helvetica,sans-Serif" font-size="10.00">rm::msg::Point32</text>
<text text-anchor="start" x="55" y="-284.5" font-family="Helvetica,sans-Serif" font-size="10.00"> </text>
<text text-anchor="start" x="13" y="-269.5" font-family="Helvetica,sans-Serif" font-size="10.00">+</text>
<text text-anchor="start" x="26" y="-269.5" font-family="Helvetica,sans-Serif" font-size="10.00">serialize()</text>
<text text-anchor="start" x="13" y="-254.5" font-family="Helvetica,sans-Serif" font-size="10.00">+</text>
<text text-anchor="start" x="26" y="-254.5" font-family="Helvetica,sans-Serif" font-size="10.00">compact_size()</text>
<text text-anchor="start" x="13" y="-239.5" font-family="Helvetica,sans-Serif" font-size="10.00">+</text>
<text text-anchor="start" x="26" y="-239.5" font-family="Helvetica,sans-Serif" font-size="10.00">deserialize()</text>
<polygon fill="#666666" stroke="#666666" points="9,-294.5 9,-294.5 105,-294.5 105,-294.5 9,-294.5"/>
<polygon fill="#666666" stroke="#666666" points="9,-279.5 9,-279.5 105,-279.5 105,-279.5 9,-279.5"/>
<polygon fill="none" stroke="#666666" points="9,-233 9,-312 105,-312 105,-233 9,-233"/>
</a>
</g>
</g>
<!-- Node3&#45;&gt;Node2 -->
<g id="edge2_Node000002_Node000003" class="edge">
<title>Node3&#45;&gt;Node2</title>
<g id="a_edge2_Node000002_Node000003"><a xlink:title=" ">
<path fill="none" stroke="#63b8ff" d="M57,-232.74C57,-221.71 57,-209.65 57,-198.47"/>
<polygon fill="none" stroke="#63b8ff" points="57,-198.31 53,-192.31 57,-186.31 61,-192.31 57,-198.31"/>
</a>
</g>
<text text-anchor="middle" x="86" y="-207" font-family="Helvetica,sans-Serif" font-size="10.00" fill="grey"> +elements</text>
</g>
<!-- Node4 -->
<g id="Node000004" class="node">
<title>Node4</title>
<g id="a_Node000004"><a xlink:title=" ">
<polygon fill="white" stroke="transparent" points="42,-430 10,-430 10,-381 42,-381 42,-430"/>
<text text-anchor="start" x="15" y="-417.5" font-family="Helvetica,sans-Serif" font-size="10.00">float</text>
<text text-anchor="start" x="24" y="-402.5" font-family="Helvetica,sans-Serif" font-size="10.00"> </text>
<text text-anchor="start" x="24" y="-387.5" font-family="Helvetica,sans-Serif" font-size="10.00"> </text>
<polygon fill="#666666" stroke="#666666" points="10,-412.5 10,-412.5 42,-412.5 42,-412.5 10,-412.5"/>
<polygon fill="#666666" stroke="#666666" points="10,-397.5 10,-397.5 42,-397.5 42,-397.5 10,-397.5"/>
<polygon fill="none" stroke="#666666" points="10,-381 10,-430 42,-430 42,-381 10,-381"/>
</a>
</g>
</g>
<!-- Node4&#45;&gt;Node3 -->
<g id="edge3_Node000003_Node000004" class="edge">
<title>Node4&#45;&gt;Node3</title>
<g id="a_edge3_Node000003_Node000004"><a xlink:title=" ">
<path fill="none" stroke="#63b8ff" d="M23.51,-380.97C22.63,-366.12 22.73,-346.67 27,-330 27.58,-327.74 28.26,-325.47 29.04,-323.21"/>
<polygon fill="none" stroke="#63b8ff" points="29.05,-323.18 27.56,-316.13 33.5,-312.04 34.99,-319.1 29.05,-323.18"/>
</a>
</g>
<text text-anchor="middle" x="36" y="-355" font-family="Helvetica,sans-Serif" font-size="10.00" fill="grey"> +x</text>
<text text-anchor="middle" x="36" y="-344" font-family="Helvetica,sans-Serif" font-size="10.00" fill="grey">+y</text>
<text text-anchor="middle" x="36" y="-333" font-family="Helvetica,sans-Serif" font-size="10.00" fill="grey">+z</text>
</g>
<!-- Node5 -->
<g id="Node000005" class="node">
<title>Node5</title>
<g id="a_Node000005"><a xlink:title=" ">
<polygon fill="white" stroke="transparent" points="125,-430 93,-430 93,-381 125,-381 125,-430"/>
<text text-anchor="start" x="98" y="-417.5" font-family="Helvetica,sans-Serif" font-size="10.00">char</text>
<text text-anchor="start" x="107" y="-402.5" font-family="Helvetica,sans-Serif" font-size="10.00"> </text>
<text text-anchor="start" x="107" y="-387.5" font-family="Helvetica,sans-Serif" font-size="10.00"> </text>
<polygon fill="#666666" stroke="#666666" points="93,-412.5 93,-412.5 125,-412.5 125,-412.5 93,-412.5"/>
<polygon fill="#666666" stroke="#666666" points="93,-397.5 93,-397.5 125,-397.5 125,-397.5 93,-397.5"/>
<polygon fill="none" stroke="#666666" points="93,-381 93,-430 125,-430 125,-381 93,-381"/>
</a>
</g>
</g>
<!-- Node5&#45;&gt;Node1 -->
<g id="edge7_Node000001_Node000005" class="edge">
<title>Node5&#45;&gt;Node1</title>
<g id="a_edge7_Node000001_Node000005"><a xlink:title=" ">
<path fill="none" stroke="#63b8ff" d="M121.87,-380.97C124.41,-375.25 126.68,-369.04 128,-363 131.12,-348.67 128.13,-344.67 128,-330 127.11,-226.43 146.29,-198.14 124,-97 123.53,-94.85 122.97,-92.69 122.34,-90.52"/>
<polygon fill="none" stroke="#63b8ff" points="122.3,-90.39 116.58,-85.99 118.45,-79.02 124.16,-83.42 122.3,-90.39"/>
</a>
</g>
<text text-anchor="middle" x="165" y="-207" font-family="Helvetica,sans-Serif" font-size="10.00" fill="grey"> +msg_type</text>
</g>
<!-- Node5&#45;&gt;Node3 -->
<g id="edge4_Node000003_Node000005" class="edge">
<title>Node5&#45;&gt;Node3</title>
<g id="a_edge4_Node000003_Node000005"><a xlink:title=" ">
<path fill="none" stroke="#63b8ff" d="M92.74,-392.5C83.9,-385.04 73.65,-374.67 68,-363 62.26,-351.15 59.11,-337.42 57.46,-324.33"/>
<polygon fill="none" stroke="#63b8ff" points="57.43,-324.01 52.88,-318.41 56.3,-312.06 60.85,-317.66 57.43,-324.01"/>
</a>
</g>
<text text-anchor="middle" x="98" y="-344" font-family="Helvetica,sans-Serif" font-size="10.00" fill="grey"> +msg_type</text>
</g>
<!-- Node6 -->
<g id="Node000006" class="node">
<title>Node6</title>
<g id="a_Node000006"><a xlink:title=" ">
<polygon fill="white" stroke="transparent" points="270.5,-297 179.5,-297 179.5,-248 270.5,-248 270.5,-297"/>
<text text-anchor="start" x="185" y="-284.5" font-family="Helvetica,sans-Serif" font-size="10.00">std::vector&lt; T &gt;</text>
<text text-anchor="start" x="223.5" y="-269.5" font-family="Helvetica,sans-Serif" font-size="10.00"> </text>
<text text-anchor="start" x="223.5" y="-254.5" font-family="Helvetica,sans-Serif" font-size="10.00"> </text>
<polygon fill="#666666" stroke="#666666" points="180,-279.5 180,-279.5 271,-279.5 271,-279.5 180,-279.5"/>
<polygon fill="#666666" stroke="#666666" points="180,-264.5 180,-264.5 271,-264.5 271,-264.5 180,-264.5"/>
<polygon fill="none" stroke="#666666" points="179.5,-248 179.5,-297 270.5,-297 270.5,-248 179.5,-248"/>
</a>
</g>
</g>
<!-- Node6&#45;&gt;Node2 -->
<g id="edge5_Node000002_Node000006" class="edge">
<title>Node6&#45;&gt;Node2</title>
<g id="a_edge5_Node000002_Node000006"><a xlink:title=" ">
<path fill="none" stroke="orange" d="M220.54,-237.91C217.4,-225.86 212.07,-213.04 203,-204 179.42,-180.51 144.06,-168.75 114.04,-162.87"/>
<polygon fill="orange" stroke="orange" points="217.13,-238.72 222.69,-247.74 223.97,-237.22 217.13,-238.72"/>
</a>
</g>
<text text-anchor="middle" x="266.5" y="-207" font-family="Helvetica,sans-Serif" font-size="10.00" fill="grey"> &lt; rm::msg::Point32 &gt;</text>
</g>
<!-- Node7 -->
<g id="Node000007" class="node">
<title>Node7</title>
<g id="a_Node000007"><a xlink:title=" ">
<polygon fill="white" stroke="transparent" points="233.5,-430 216.5,-430 216.5,-381 233.5,-381 233.5,-430"/>
<text text-anchor="start" x="222" y="-417.5" font-family="Helvetica,sans-Serif" font-size="10.00">T</text>
<text text-anchor="start" x="223.5" y="-402.5" font-family="Helvetica,sans-Serif" font-size="10.00"> </text>
<text text-anchor="start" x="223.5" y="-387.5" font-family="Helvetica,sans-Serif" font-size="10.00"> </text>
<polygon fill="#666666" stroke="#666666" points="217,-412.5 217,-412.5 234,-412.5 234,-412.5 217,-412.5"/>
<polygon fill="#666666" stroke="#666666" points="217,-397.5 217,-397.5 234,-397.5 234,-397.5 217,-397.5"/>
<polygon fill="none" stroke="#666666" points="216.5,-381 216.5,-430 233.5,-430 233.5,-381 216.5,-381"/>
</a>
</g>
</g>
<!-- Node7&#45;&gt;Node6 -->
<g id="edge6_Node000006_Node000007" class="edge">
<title>Node7&#45;&gt;Node6</title>
<g id="a_edge6_Node000006_Node000007"><a xlink:title=" ">
<path fill="none" stroke="#63b8ff" d="M225,-380.78C225,-360.84 225,-332.03 225,-309.29"/>
<polygon fill="none" stroke="#63b8ff" points="225,-309.05 221,-303.05 225,-297.05 229,-303.05 225,-309.05"/>
</a>
</g>
<text text-anchor="middle" x="254" y="-344" font-family="Helvetica,sans-Serif" font-size="10.00" fill="grey"> +elements</text>
</g>
</g>
</svg>
</svg>

<style type='text/css'>
<![CDATA[
[data-mouse-over-selected='false'] { opacity: 0.7; }
[data-mouse-over-selected='true']  { opacity: 1.0; }
]]>
</style>
<script type="application/ecmascript"><![CDATA[
document.addEventListener('DOMContentLoaded', (event) => {
  highlightEdges();
  highlightAdjacentNodes();
});
]]></script>
</svg>
