<?xml version="1.0" encoding="UTF-8" standalone="no"?>
<!DOCTYPE svg PUBLIC "-//W3C//DTD SVG 1.1//EN"
 "http://www.w3.org/Graphics/SVG/1.1/DTD/svg11.dtd">
<!-- Generated by graphviz version 2.43.0 (0)
 -->
<!-- Title: rm::msg::Polygon Pages: 1 -->
<svg width="306pt" height="494pt"
 viewBox="0.00 0.00 306.00 494.00" xmlns="http://www.w3.org/2000/svg" xmlns:xlink="http://www.w3.org/1999/xlink">
<g id="graph0" class="graph" transform="scale(1 1) rotate(0) translate(4 490)">
<title>rm::msg::Polygon</title>
<!-- Node1 -->
<g id="Node000001" class="node">
<title>Node1</title>
<g id="a_Node000001"><a xlink:title="Polygon 消息类型：geometry/Polygon">
<polygon fill="#999999" stroke="transparent" points="135,-94 47,-94 47,0 135,0 135,-94"/>
<text text-anchor="start" x="52" y="-82" font-family="Helvetica,sans-Serif" font-size="10.00">rm::msg::Polygon</text>
<text text-anchor="start" x="89" y="-67" font-family="Helvetica,sans-Serif" font-size="10.00"> </text>
<text text-anchor="start" x="51.5" y="-52" font-family="Helvetica,sans-Serif" font-size="10.00">+</text>
<text text-anchor="start" x="63" y="-52" font-family="Helvetica,sans-Serif" font-size="10.00">serialize()</text>
<text text-anchor="start" x="51.5" y="-37" font-family="Helvetica,sans-Serif" font-size="10.00">+</text>
<text text-anchor="start" x="63" y="-37" font-family="Helvetica,sans-Serif" font-size="10.00">json()</text>
<text text-anchor="start" x="51.5" y="-22" font-family="Helvetica,sans-Serif" font-size="10.00">+</text>
<text text-anchor="start" x="63" y="-22" font-family="Helvetica,sans-Serif" font-size="10.00">compact_size()</text>
<text text-anchor="start" x="51.5" y="-7" font-family="Helvetica,sans-Serif" font-size="10.00">+</text>
<text text-anchor="start" x="63" y="-7" font-family="Helvetica,sans-Serif" font-size="10.00">deserialize()</text>
<polygon fill="#666666" stroke="#666666" points="47,-77 47,-77 135,-77 135,-77 47,-77"/>
<polygon fill="#666666" stroke="#666666" points="47,-62 47,-62 135,-62 135,-62 47,-62"/>
<polygon fill="none" stroke="#666666" points="47,0 47,-94 135,-94 135,0 47,0"/>
</a>
</g>
</g>
<!-- Node2 -->
<g id="Node000002" class="node">
<title>Node2</title>
<g id="a_Node000002"><a xlink:title=" ">
<polygon fill="white" stroke="transparent" points="102,-207 0,-207 0,-147 102,-147 102,-207"/>
<text text-anchor="start" x="5" y="-195" font-family="Helvetica,sans-Serif" font-size="10.00">std::vector&lt; rm::msg</text>
<text text-anchor="start" x="26.5" y="-184" font-family="Helvetica,sans-Serif" font-size="10.00">::Point32 &gt;</text>
<text text-anchor="start" x="49" y="-169" font-family="Helvetica,sans-Serif" font-size="10.00"> </text>
<text text-anchor="start" x="49" y="-154" font-family="Helvetica,sans-Serif" font-size="10.00"> </text>
<polygon fill="#666666" stroke="#666666" points="0,-179 0,-179 102,-179 102,-179 0,-179"/>
<polygon fill="#666666" stroke="#666666" points="0,-164 0,-164 102,-164 102,-164 0,-164"/>
<polygon fill="none" stroke="#666666" points="0,-147 0,-207 102,-207 102,-147 0,-147"/>
</a>
</g>
</g>
<!-- Node2&#45;&gt;Node1 -->
<g id="edge1_Node000001_Node000002" class="edge">
<title>Node2&#45;&gt;Node1</title>
<g id="a_edge1_Node000001_Node000002"><a xlink:title=" ">
<path fill="none" stroke="#63b8ff" d="M60.08,-146.95C63.89,-134.74 68.48,-120.07 72.93,-105.82"/>
<polygon fill="none" stroke="#63b8ff" points="73.05,-105.46 71.02,-98.54 76.62,-94 78.65,-100.92 73.05,-105.46"/>
</a>
</g>
<text text-anchor="start" x="74.5" y="-117.5" font-family="Helvetica,sans-Serif" font-size="10.00" fill="grey">+points</text>
</g>
<!-- Node3 -->
<g id="Node000003" class="node">
<title>Node3</title>
<g id="a_Node000003"><a xlink:href="../../d7/dff/classrm_1_1msg_1_1Point32.html" target="_top" xlink:title="Point32 消息类型：geometry/Point32">
<polygon fill="white" stroke="transparent" points="94,-354 8,-354 8,-260 94,-260 94,-354"/>
<text text-anchor="start" x="13" y="-342" font-family="Helvetica,sans-Serif" font-size="10.00">rm::msg::Point32</text>
<text text-anchor="start" x="49" y="-327" font-family="Helvetica,sans-Serif" font-size="10.00"> </text>
<text text-anchor="start" x="12" y="-312" font-family="Helvetica,sans-Serif" font-size="10.00">+</text>
<text text-anchor="start" x="23" y="-312" font-family="Helvetica,sans-Serif" font-size="10.00">serialize()</text>
<text text-anchor="start" x="12" y="-297" font-family="Helvetica,sans-Serif" font-size="10.00">+</text>
<text text-anchor="start" x="23" y="-297" font-family="Helvetica,sans-Serif" font-size="10.00">json()</text>
<text text-anchor="start" x="12" y="-282" font-family="Helvetica,sans-Serif" font-size="10.00">+</text>
<text text-anchor="start" x="23" y="-282" font-family="Helvetica,sans-Serif" font-size="10.00">compact_size()</text>
<text text-anchor="start" x="12" y="-267" font-family="Helvetica,sans-Serif" font-size="10.00">+</text>
<text text-anchor="start" x="23" y="-267" font-family="Helvetica,sans-Serif" font-size="10.00">deserialize()</text>
<polygon fill="#666666" stroke="#666666" points="8,-337 8,-337 94,-337 94,-337 8,-337"/>
<polygon fill="#666666" stroke="#666666" points="8,-322 8,-322 94,-322 94,-322 8,-322"/>
<polygon fill="none" stroke="#666666" points="8,-260 8,-354 94,-354 94,-260 8,-260"/>
</a>
</g>
</g>
<!-- Node3&#45;&gt;Node2 -->
<g id="edge2_Node000002_Node000003" class="edge">
<title>Node3&#45;&gt;Node2</title>
<g id="a_edge2_Node000002_Node000003"><a xlink:title=" ">
<path fill="none" stroke="#63b8ff" d="M51,-259.79C51,-246.58 51,-232.27 51,-219.36"/>
<polygon fill="none" stroke="#63b8ff" points="51,-219.03 47,-213.03 51,-207.03 55,-213.03 51,-219.03"/>
</a>
</g>
<text text-anchor="start" x="54" y="-230.5" font-family="Helvetica,sans-Serif" font-size="10.00" fill="grey">+elements</text>
</g>
<!-- Node4 -->
<g id="Node000004" class="node">
<title>Node4</title>
<g id="a_Node000004"><a xlink:title=" ">
<polygon fill="white" stroke="transparent" points="33.5,-486 4.5,-486 4.5,-437 33.5,-437 33.5,-486"/>
<text text-anchor="start" x="10" y="-473.5" font-family="Helvetica,sans-Serif" font-size="10.00">float</text>
<text text-anchor="start" x="17.5" y="-458.5" font-family="Helvetica,sans-Serif" font-size="10.00"> </text>
<text text-anchor="start" x="17.5" y="-443.5" font-family="Helvetica,sans-Serif" font-size="10.00"> </text>
<polygon fill="#666666" stroke="#666666" points="5,-468.5 5,-468.5 34,-468.5 34,-468.5 5,-468.5"/>
<polygon fill="#666666" stroke="#666666" points="5,-453.5 5,-453.5 34,-453.5 34,-453.5 5,-453.5"/>
<polygon fill="none" stroke="#666666" points="4.5,-437 4.5,-486 33.5,-486 33.5,-437 4.5,-437"/>
</a>
</g>
</g>
<!-- Node4&#45;&gt;Node3 -->
<g id="edge3_Node000003_Node000004" class="edge">
<title>Node4&#45;&gt;Node3</title>
<g id="a_edge3_Node000003_Node000004"><a xlink:title=" ">
<path fill="none" stroke="#63b8ff" d="M16.5,-436.87C15.25,-418.85 14.93,-393.54 20,-372 20.48,-369.98 21.02,-367.94 21.63,-365.91"/>
<polygon fill="none" stroke="#63b8ff" points="21.73,-365.64 19.93,-358.65 25.69,-354.31 27.48,-361.3 21.73,-365.64"/>
</a>
</g>
<text text-anchor="start" x="23" y="-407.5" font-family="Helvetica,sans-Serif" font-size="10.00" fill="grey">+x</text>
<text text-anchor="start" x="23" y="-392.5" font-family="Helvetica,sans-Serif" font-size="10.00" fill="grey">+y</text>
<text text-anchor="start" x="23" y="-377.5" font-family="Helvetica,sans-Serif" font-size="10.00" fill="grey">+z</text>
</g>
<!-- Node5 -->
<g id="Node000005" class="node">
<title>Node5</title>
<g id="a_Node000005"><a xlink:title=" ">
<polygon fill="white" stroke="transparent" points="112.5,-486 83.5,-486 83.5,-437 112.5,-437 112.5,-486"/>
<text text-anchor="start" x="89" y="-473.5" font-family="Helvetica,sans-Serif" font-size="10.00">char</text>
<text text-anchor="start" x="96.5" y="-458.5" font-family="Helvetica,sans-Serif" font-size="10.00"> </text>
<text text-anchor="start" x="96.5" y="-443.5" font-family="Helvetica,sans-Serif" font-size="10.00"> </text>
<polygon fill="#666666" stroke="#666666" points="84,-468.5 84,-468.5 113,-468.5 113,-468.5 84,-468.5"/>
<polygon fill="#666666" stroke="#666666" points="84,-453.5 84,-453.5 113,-453.5 113,-453.5 84,-453.5"/>
<polygon fill="none" stroke="#666666" points="83.5,-437 83.5,-486 112.5,-486 112.5,-437 83.5,-437"/>
</a>
</g>
</g>
<!-- Node5&#45;&gt;Node1 -->
<g id="edge7_Node000001_Node000005" class="edge">
<title>Node5&#45;&gt;Node1</title>
<g id="a_edge7_Node000001_Node000005"><a xlink:title=" ">
<path fill="none" stroke="#63b8ff" d="M110.2,-436.91C112.6,-431.19 114.76,-425 116,-419 120.24,-398.55 116.08,-392.89 116,-372 115.56,-256.44 134.27,-225.77 114,-112 113.64,-110 113.23,-107.98 112.77,-105.96"/>
<polygon fill="none" stroke="#63b8ff" points="112.77,-105.94 107.37,-101.16 109.7,-94.34 115.1,-99.12 112.77,-105.94"/>
</a>
</g>
<text text-anchor="start" x="127.5" y="-230.5" font-family="Helvetica,sans-Serif" font-size="10.00" fill="grey">+msg_type</text>
</g>
<!-- Node5&#45;&gt;Node3 -->
<g id="edge4_Node000003_Node000005" class="edge">
<title>Node5&#45;&gt;Node3</title>
<g id="a_edge4_Node000003_Node000005"><a xlink:title=" ">
<path fill="none" stroke="#63b8ff" d="M83.19,-448.25C75.16,-440.71 65.91,-430.34 61,-419 53.94,-402.71 50.65,-383.83 49.35,-366.32"/>
<polygon fill="none" stroke="#63b8ff" points="49.34,-366.14 45.04,-360.36 48.73,-354.16 53.03,-359.95 49.34,-366.14"/>
</a>
</g>
<text text-anchor="start" x="64.5" y="-392.5" font-family="Helvetica,sans-Serif" font-size="10.00" fill="grey">+msg_type</text>
</g>
<!-- Node6 -->
<g id="Node000006" class="node">
<title>Node6</title>
<g id="a_Node000006"><a xlink:title=" ">
<polygon fill="white" stroke="transparent" points="248.5,-331.5 167.5,-331.5 167.5,-282.5 248.5,-282.5 248.5,-331.5"/>
<text text-anchor="start" x="173" y="-319" font-family="Helvetica,sans-Serif" font-size="10.00">std::vector&lt; T &gt;</text>
<text text-anchor="start" x="206.5" y="-304" font-family="Helvetica,sans-Serif" font-size="10.00"> </text>
<text text-anchor="start" x="206.5" y="-289" font-family="Helvetica,sans-Serif" font-size="10.00"> </text>
<polygon fill="#666666" stroke="#666666" points="168,-314 168,-314 249,-314 249,-314 168,-314"/>
<polygon fill="#666666" stroke="#666666" points="168,-299 168,-299 249,-299 249,-299 168,-299"/>
<polygon fill="none" stroke="#666666" points="167.5,-282.5 167.5,-331.5 248.5,-331.5 248.5,-282.5 167.5,-282.5"/>
</a>
</g>
</g>
<!-- Node6&#45;&gt;Node2 -->
<g id="edge5_Node000002_Node000006" class="edge">
<title>Node6&#45;&gt;Node2</title>
<g id="a_edge5_Node000002_Node000006"><a xlink:title=" ">
<path fill="none" stroke="orange" d="M206,-272.11C203.41,-256.06 197.82,-237.68 186,-225 164.34,-201.77 130.59,-190.02 102.25,-184.08"/>
<polygon fill="orange" stroke="orange" points="202.55,-272.77 207.31,-282.24 209.5,-271.87 202.55,-272.77"/>
</a>
</g>
<text text-anchor="start" x="201" y="-230.5" font-family="Helvetica,sans-Serif" font-size="10.00" fill="grey">&lt; rm::msg::Point32 &gt;</text>
</g>
<!-- Node7 -->
<g id="Node000007" class="node">
<title>Node7</title>
<g id="a_Node000007"><a xlink:title=" ">
<polygon fill="white" stroke="transparent" points="216.5,-486 199.5,-486 199.5,-437 216.5,-437 216.5,-486"/>
<text text-anchor="start" x="205" y="-473.5" font-family="Helvetica,sans-Serif" font-size="10.00">T</text>
<text text-anchor="start" x="206.5" y="-458.5" font-family="Helvetica,sans-Serif" font-size="10.00"> </text>
<text text-anchor="start" x="206.5" y="-443.5" font-family="Helvetica,sans-Serif" font-size="10.00"> </text>
<polygon fill="#666666" stroke="#666666" points="200,-468.5 200,-468.5 217,-468.5 217,-468.5 200,-468.5"/>
<polygon fill="#666666" stroke="#666666" points="200,-453.5 200,-453.5 217,-453.5 217,-453.5 200,-453.5"/>
<polygon fill="none" stroke="#666666" points="199.5,-437 199.5,-486 216.5,-486 216.5,-437 199.5,-437"/>
</a>
</g>
</g>
<!-- Node7&#45;&gt;Node6 -->
<g id="edge6_Node000006_Node000007" class="edge">
<title>Node7&#45;&gt;Node6</title>
<g id="a_edge6_Node000006_Node000007"><a xlink:title=" ">
<path fill="none" stroke="#63b8ff" d="M208,-436.67C208,-411.83 208,-372.59 208,-343.97"/>
<polygon fill="none" stroke="#63b8ff" points="208,-343.66 204,-337.66 208,-331.66 212,-337.66 208,-343.66"/>
</a>
</g>
<text text-anchor="start" x="211" y="-392.5" font-family="Helvetica,sans-Serif" font-size="10.00" fill="grey">+elements</text>
</g>
</g>
</svg>
