<?xml version="1.0" encoding="UTF-8" standalone="no"?>
<!DOCTYPE svg PUBLIC "-//W3C//DTD SVG 1.1//EN"
 "http://www.w3.org/Graphics/SVG/1.1/DTD/svg11.dtd">
<!-- Generated by graphviz version 2.43.0 (0)
 -->
<!-- Title: rm::Translation Pages: 1 -->
<svg width="84pt" height="208pt"
 viewBox="0.00 0.00 84.00 208.00" xmlns="http://www.w3.org/2000/svg" xmlns:xlink="http://www.w3.org/1999/xlink">
<g id="graph0" class="graph" transform="scale(1 1) rotate(0) translate(4 204)">
<title>rm::Translation</title>
<!-- Node1 -->
<g id="Node000001" class="node">
<title>Node1</title>
<g id="a_Node000001"><a xlink:title="移动位置信息">
<polygon fill="#999999" stroke="transparent" points="76,-49 0,-49 0,0 76,0 76,-49"/>
<text text-anchor="start" x="5" y="-36.5" font-family="Helvetica,sans-Serif" font-size="10.00">rm::Translation</text>
<text text-anchor="start" x="36" y="-21.5" font-family="Helvetica,sans-Serif" font-size="10.00"> </text>
<text text-anchor="start" x="36" y="-6.5" font-family="Helvetica,sans-Serif" font-size="10.00"> </text>
<polygon fill="#666666" stroke="#666666" points="0,-31.5 0,-31.5 76,-31.5 76,-31.5 0,-31.5"/>
<polygon fill="#666666" stroke="#666666" points="0,-16.5 0,-16.5 76,-16.5 76,-16.5 0,-16.5"/>
<polygon fill="none" stroke="#666666" points="0,0 0,-49 76,-49 76,0 0,0"/>
</a>
</g>
</g>
<!-- Node2 -->
<g id="Node000002" class="node">
<title>Node2</title>
<g id="a_Node000002"><a xlink:title=" ">
<polygon fill="white" stroke="transparent" points="52.5,-200 23.5,-200 23.5,-151 52.5,-151 52.5,-200"/>
<text text-anchor="start" x="29" y="-187.5" font-family="Helvetica,sans-Serif" font-size="10.00">float</text>
<text text-anchor="start" x="36.5" y="-172.5" font-family="Helvetica,sans-Serif" font-size="10.00"> </text>
<text text-anchor="start" x="36.5" y="-157.5" font-family="Helvetica,sans-Serif" font-size="10.00"> </text>
<polygon fill="#666666" stroke="#666666" points="24,-182.5 24,-182.5 53,-182.5 53,-182.5 24,-182.5"/>
<polygon fill="#666666" stroke="#666666" points="24,-167.5 24,-167.5 53,-167.5 53,-167.5 24,-167.5"/>
<polygon fill="none" stroke="#666666" points="23.5,-151 23.5,-200 52.5,-200 52.5,-151 23.5,-151"/>
</a>
</g>
</g>
<!-- Node2&#45;&gt;Node1 -->
<g id="edge1_Node000001_Node000002" class="edge">
<title>Node2&#45;&gt;Node1</title>
<g id="a_edge1_Node000001_Node000002"><a xlink:title=" ">
<path fill="none" stroke="#63b8ff" d="M38,-150.89C38,-126.95 38,-89.57 38,-61.85"/>
<polygon fill="none" stroke="#63b8ff" points="38,-61.49 34,-55.49 38,-49.49 42,-55.49 38,-61.49"/>
</a>
</g>
<text text-anchor="middle" x="48" y="-125" font-family="Helvetica,sans-Serif" font-size="10.00" fill="grey"> +vx</text>
<text text-anchor="middle" x="48" y="-114" font-family="Helvetica,sans-Serif" font-size="10.00" fill="grey">+vy</text>
<text text-anchor="middle" x="48" y="-103" font-family="Helvetica,sans-Serif" font-size="10.00" fill="grey">+vz</text>
<text text-anchor="middle" x="48" y="-92" font-family="Helvetica,sans-Serif" font-size="10.00" fill="grey">+x</text>
<text text-anchor="middle" x="48" y="-81" font-family="Helvetica,sans-Serif" font-size="10.00" fill="grey">+y</text>
<text text-anchor="middle" x="48" y="-70" font-family="Helvetica,sans-Serif" font-size="10.00" fill="grey">+z</text>
</g>
</g>
</svg>
