<?xml version="1.0" encoding="UTF-8" standalone="no"?>
<!DOCTYPE svg PUBLIC "-//W3C//DTD SVG 1.1//EN"
 "http://www.w3.org/Graphics/SVG/1.1/DTD/svg11.dtd">
<!-- Generated by graphviz version 2.43.0 (0)
 -->
<!-- Title: rm::feature Pages: 1 -->
<!--zoomable 391 -->
<svg id="main" version="1.1" xmlns="http://www.w3.org/2000/svg" xmlns:xlink="http://www.w3.org/1999/xlink" xml:space="preserve" onload="init(evt)">
<style type="text/css"><![CDATA[
.edge:hover path { stroke: red; }
.edge:hover polygon { stroke: red; fill: red; }
]]></style>
<script type="text/javascript"><![CDATA[
var edges = document.getElementsByTagName('g');
if (edges && edges.length) {
  for (var i=0;i<edges.length;i++) {
    if (edges[i].id.substr(0,4)=='edge') {
      edges[i].setAttribute('class','edge');
    }
  }
}
]]></script>
        <defs>
                <circle id="rim" cx="0" cy="0" r="7"/>
                <circle id="rim2" cx="0" cy="0" r="3.5"/>
                <g id="zoomPlus">
                        <use xlink:href="#rim" fill="#404040">
                                <set attributeName="fill" to="#808080" begin="zoomplus.mouseover" end="zoomplus.mouseout"/>
                        </use>
                        <path d="M-4,0h8M0,-4v8" fill="none" stroke="white" stroke-width="1.5" pointer-events="none"/>
                </g>
                <g id="zoomMin">
                        <use xlink:href="#rim" fill="#404040">
                                <set attributeName="fill" to="#808080" begin="zoomminus.mouseover" end="zoomminus.mouseout"/>
                        </use>
                        <path d="M-4,0h8" fill="none" stroke="white" stroke-width="1.5" pointer-events="none"/>
                </g>
                <g id="dirArrow">
                        <path fill="none" stroke="white" stroke-width="1.5" d="M0,-3.0v7 M-2.5,-0.5L0,-3.0L2.5,-0.5"/>
                </g>
               <g id="resetDef">
                       <use xlink:href="#rim2" fill="#404040">
                               <set attributeName="fill" to="#808080" begin="reset.mouseover" end="reset.mouseout"/>
                       </use>
               </g>
        </defs>

<script type="text/javascript">
var viewWidth = 518;
var viewHeight = 391;
var sectionId = 'dynsection-0';
</script>
<script xlink:href="../../svgpan.js"/>
<svg id="graph" class="graph">
<g id="viewport">
<title>rm::feature</title>
<polygon fill="white" stroke="transparent" points="-4,4 -4,-387 514,-387 514,4 -4,4"/>
<!-- Node1 -->
<g id="node1" class="node">
<title>Node1</title>
<g id="a_node1"><a xlink:title="图像中的轮廓特征">
<polygon fill="#bfbfbf" stroke="black" points="227,-215.5 227,-382.5 316,-382.5 316,-215.5 227,-215.5"/>
<text text-anchor="middle" x="271.5" y="-370.5" font-family="Helvetica,sans-Serif" font-size="10.00">rm::feature</text>
<polyline fill="none" stroke="black" points="227,-363.5 316,-363.5 "/>
<text text-anchor="start" x="235" y="-351.5" font-family="Helvetica,sans-Serif" font-size="10.00"># _width</text>
<text text-anchor="start" x="235" y="-340.5" font-family="Helvetica,sans-Serif" font-size="10.00"># _height</text>
<text text-anchor="start" x="235" y="-329.5" font-family="Helvetica,sans-Serif" font-size="10.00"># _angle</text>
<text text-anchor="start" x="235" y="-318.5" font-family="Helvetica,sans-Serif" font-size="10.00"># _center</text>
<text text-anchor="start" x="235" y="-307.5" font-family="Helvetica,sans-Serif" font-size="10.00"># _corners</text>
<polyline fill="none" stroke="black" points="227,-300.5 316,-300.5 "/>
<text text-anchor="start" x="235" y="-288.5" font-family="Helvetica,sans-Serif" font-size="10.00">+ ~feature()</text>
<text text-anchor="start" x="235" y="-277.5" font-family="Helvetica,sans-Serif" font-size="10.00">+ getArea()</text>
<text text-anchor="start" x="235" y="-266.5" font-family="Helvetica,sans-Serif" font-size="10.00">+ getCenter()</text>
<text text-anchor="start" x="235" y="-255.5" font-family="Helvetica,sans-Serif" font-size="10.00">+ getWidth()</text>
<text text-anchor="start" x="235" y="-244.5" font-family="Helvetica,sans-Serif" font-size="10.00">+ getHeight()</text>
<text text-anchor="start" x="235" y="-233.5" font-family="Helvetica,sans-Serif" font-size="10.00">+ getAngle()</text>
<text text-anchor="start" x="235" y="-222.5" font-family="Helvetica,sans-Serif" font-size="10.00">+ getCorners()</text>
</a>
</g>
</g>
<!-- Node2 -->
<g id="node2" class="node">
<title>Node2</title>
<g id="a_node2"><a xlink:href="../../d0/df8/classrm_1_1LightBlob.html" target="_top" xlink:title="装甲板灯条">
<polygon fill="white" stroke="black" points="0,-0.5 0,-178.5 125,-178.5 125,-0.5 0,-0.5"/>
<text text-anchor="middle" x="62.5" y="-166.5" font-family="Helvetica,sans-Serif" font-size="10.00">rm::LightBlob</text>
<polyline fill="none" stroke="black" points="0,-159.5 125,-159.5 "/>
<text text-anchor="middle" x="62.5" y="-147.5" font-family="Helvetica,sans-Serif" font-size="10.00"> </text>
<polyline fill="none" stroke="black" points="0,-140.5 125,-140.5 "/>
<text text-anchor="start" x="8" y="-128.5" font-family="Helvetica,sans-Serif" font-size="10.00">+ LightBlob()</text>
<text text-anchor="start" x="8" y="-117.5" font-family="Helvetica,sans-Serif" font-size="10.00">+ LightBlob()</text>
<text text-anchor="start" x="8" y="-106.5" font-family="Helvetica,sans-Serif" font-size="10.00">+ LightBlob()</text>
<text text-anchor="start" x="8" y="-95.5" font-family="Helvetica,sans-Serif" font-size="10.00">+ LightBlob()</text>
<text text-anchor="start" x="8" y="-84.5" font-family="Helvetica,sans-Serif" font-size="10.00">+ LightBlob()</text>
<text text-anchor="start" x="8" y="-73.5" font-family="Helvetica,sans-Serif" font-size="10.00">+ setMatchMessage()</text>
<text text-anchor="start" x="8" y="-62.5" font-family="Helvetica,sans-Serif" font-size="10.00">+ getMatchMessage()</text>
<text text-anchor="start" x="8" y="-51.5" font-family="Helvetica,sans-Serif" font-size="10.00">+ getTopPoint()</text>
<text text-anchor="start" x="8" y="-40.5" font-family="Helvetica,sans-Serif" font-size="10.00">+ getBottomPoint()</text>
<text text-anchor="start" x="8" y="-29.5" font-family="Helvetica,sans-Serif" font-size="10.00">+ make_feature()</text>
<text text-anchor="start" x="8" y="-18.5" font-family="Helvetica,sans-Serif" font-size="10.00">+ make_feature()</text>
<text text-anchor="start" x="8" y="-7.5" font-family="Helvetica,sans-Serif" font-size="10.00">+ cast()</text>
</a>
</g>
</g>
<!-- Node1&#45;&gt;Node2 -->
<g id="edge1" class="edge">
<title>Node1&#45;&gt;Node2</title>
<path fill="none" stroke="midnightblue" d="M218.71,-256.35C192.12,-234.42 159.98,-206.44 133.5,-179 130.76,-176.17 128.02,-173.23 125.29,-170.24"/>
<polygon fill="none" stroke="midnightblue" points="216.82,-259.32 226.78,-262.95 221.26,-253.91 216.82,-259.32"/>
</g>
<!-- Node3 -->
<g id="node3" class="node">
<title>Node3</title>
<g id="a_node3"><a xlink:href="../../de/d9a/classrm_1_1Pilot.html" target="_top" xlink:title="前哨、基地的引导灯">
<polygon fill="white" stroke="black" points="143,-6 143,-173 268,-173 268,-6 143,-6"/>
<text text-anchor="middle" x="205.5" y="-161" font-family="Helvetica,sans-Serif" font-size="10.00">rm::Pilot</text>
<polyline fill="none" stroke="black" points="143,-154 268,-154 "/>
<text text-anchor="middle" x="205.5" y="-142" font-family="Helvetica,sans-Serif" font-size="10.00"> </text>
<polyline fill="none" stroke="black" points="143,-135 268,-135 "/>
<text text-anchor="start" x="151" y="-123" font-family="Helvetica,sans-Serif" font-size="10.00">+ Pilot()</text>
<text text-anchor="start" x="151" y="-112" font-family="Helvetica,sans-Serif" font-size="10.00">+ Pilot()</text>
<text text-anchor="start" x="151" y="-101" font-family="Helvetica,sans-Serif" font-size="10.00">+ Pilot()</text>
<text text-anchor="start" x="151" y="-90" font-family="Helvetica,sans-Serif" font-size="10.00">+ Pilot()</text>
<text text-anchor="start" x="151" y="-79" font-family="Helvetica,sans-Serif" font-size="10.00">+ setMatchMessage()</text>
<text text-anchor="start" x="151" y="-68" font-family="Helvetica,sans-Serif" font-size="10.00">+ getMatchMessage()</text>
<text text-anchor="start" x="151" y="-57" font-family="Helvetica,sans-Serif" font-size="10.00">+ getLeftPoint()</text>
<text text-anchor="start" x="151" y="-46" font-family="Helvetica,sans-Serif" font-size="10.00">+ getRightPoint()</text>
<text text-anchor="start" x="151" y="-35" font-family="Helvetica,sans-Serif" font-size="10.00">+ make_feature()</text>
<text text-anchor="start" x="151" y="-24" font-family="Helvetica,sans-Serif" font-size="10.00">+ make_feature()</text>
<text text-anchor="start" x="151" y="-13" font-family="Helvetica,sans-Serif" font-size="10.00">+ cast()</text>
</a>
</g>
</g>
<!-- Node1&#45;&gt;Node3 -->
<g id="edge2" class="edge">
<title>Node1&#45;&gt;Node3</title>
<path fill="none" stroke="midnightblue" d="M242.09,-205.55C238.66,-194.76 235.18,-183.8 231.79,-173.16"/>
<polygon fill="none" stroke="midnightblue" points="238.86,-206.93 245.23,-215.39 245.53,-204.8 238.86,-206.93"/>
</g>
<!-- Node4 -->
<g id="node4" class="node">
<title>Node4</title>
<g id="a_node4"><a xlink:href="../../da/d40/classrm_1_1RuneCenter.html" target="_top" xlink:title="神符中心特征">
<polygon fill="white" stroke="black" points="286,-17 286,-162 389,-162 389,-17 286,-17"/>
<text text-anchor="middle" x="337.5" y="-150" font-family="Helvetica,sans-Serif" font-size="10.00">rm::RuneCenter</text>
<polyline fill="none" stroke="black" points="286,-143 389,-143 "/>
<text text-anchor="middle" x="337.5" y="-131" font-family="Helvetica,sans-Serif" font-size="10.00"> </text>
<polyline fill="none" stroke="black" points="286,-124 389,-124 "/>
<text text-anchor="start" x="294" y="-112" font-family="Helvetica,sans-Serif" font-size="10.00">+ RuneCenter()</text>
<text text-anchor="start" x="294" y="-101" font-family="Helvetica,sans-Serif" font-size="10.00">+ RuneCenter()</text>
<text text-anchor="start" x="294" y="-90" font-family="Helvetica,sans-Serif" font-size="10.00">+ RuneCenter()</text>
<text text-anchor="start" x="294" y="-79" font-family="Helvetica,sans-Serif" font-size="10.00">+ RuneCenter()</text>
<text text-anchor="start" x="294" y="-68" font-family="Helvetica,sans-Serif" font-size="10.00">+ getRatio()</text>
<text text-anchor="start" x="294" y="-57" font-family="Helvetica,sans-Serif" font-size="10.00">+ getContour()</text>
<text text-anchor="start" x="294" y="-46" font-family="Helvetica,sans-Serif" font-size="10.00">+ make_feature()</text>
<text text-anchor="start" x="294" y="-35" font-family="Helvetica,sans-Serif" font-size="10.00">+ make_feature()</text>
<text text-anchor="start" x="294" y="-24" font-family="Helvetica,sans-Serif" font-size="10.00">+ cast()</text>
</a>
</g>
</g>
<!-- Node1&#45;&gt;Node4 -->
<g id="edge3" class="edge">
<title>Node1&#45;&gt;Node4</title>
<path fill="none" stroke="midnightblue" d="M300.82,-205.82C305.48,-191.16 310.24,-176.2 314.72,-162.1"/>
<polygon fill="none" stroke="midnightblue" points="297.47,-204.8 297.77,-215.39 304.14,-206.93 297.47,-204.8"/>
</g>
<!-- Node5 -->
<g id="node5" class="node">
<title>Node5</title>
<g id="a_node5"><a xlink:href="../../db/d77/classrm_1_1RuneTarget.html" target="_top" xlink:title="神符靶心特征">
<polygon fill="white" stroke="black" points="407,-0.5 407,-178.5 510,-178.5 510,-0.5 407,-0.5"/>
<text text-anchor="middle" x="458.5" y="-166.5" font-family="Helvetica,sans-Serif" font-size="10.00">rm::RuneTarget</text>
<polyline fill="none" stroke="black" points="407,-159.5 510,-159.5 "/>
<text text-anchor="middle" x="458.5" y="-147.5" font-family="Helvetica,sans-Serif" font-size="10.00"> </text>
<polyline fill="none" stroke="black" points="407,-140.5 510,-140.5 "/>
<text text-anchor="start" x="415" y="-128.5" font-family="Helvetica,sans-Serif" font-size="10.00">+ RuneTarget()</text>
<text text-anchor="start" x="415" y="-117.5" font-family="Helvetica,sans-Serif" font-size="10.00">+ RuneTarget()</text>
<text text-anchor="start" x="415" y="-106.5" font-family="Helvetica,sans-Serif" font-size="10.00">+ RuneTarget()</text>
<text text-anchor="start" x="415" y="-95.5" font-family="Helvetica,sans-Serif" font-size="10.00">+ RuneTarget()</text>
<text text-anchor="start" x="415" y="-84.5" font-family="Helvetica,sans-Serif" font-size="10.00">+ RuneTarget()</text>
<text text-anchor="start" x="415" y="-73.5" font-family="Helvetica,sans-Serif" font-size="10.00">+ getRatio()</text>
<text text-anchor="start" x="415" y="-62.5" font-family="Helvetica,sans-Serif" font-size="10.00">+ isActive()</text>
<text text-anchor="start" x="415" y="-51.5" font-family="Helvetica,sans-Serif" font-size="10.00">+ getRadius()</text>
<text text-anchor="start" x="415" y="-40.5" font-family="Helvetica,sans-Serif" font-size="10.00">+ getContours()</text>
<text text-anchor="start" x="415" y="-29.5" font-family="Helvetica,sans-Serif" font-size="10.00">+ make_feature()</text>
<text text-anchor="start" x="415" y="-18.5" font-family="Helvetica,sans-Serif" font-size="10.00">+ make_feature()</text>
<text text-anchor="start" x="415" y="-7.5" font-family="Helvetica,sans-Serif" font-size="10.00">+ cast()</text>
</a>
</g>
</g>
<!-- Node1&#45;&gt;Node5 -->
<g id="edge4" class="edge">
<title>Node1&#45;&gt;Node5</title>
<path fill="none" stroke="midnightblue" d="M323.79,-253.79C347.77,-232.35 375.84,-205.54 398.5,-179 401.27,-175.75 404.03,-172.38 406.76,-168.92"/>
<polygon fill="none" stroke="midnightblue" points="321.32,-251.3 316.16,-260.56 325.97,-256.54 321.32,-251.3"/>
</g>
</g>
</svg>
        <g id="navigator" transform="translate(0 0)" fill="#404254">
                <rect fill="#f2f5e9" fill-opacity="0.5" stroke="#606060" stroke-width=".5" x="0" y="0" width="60" height="60"/>
                <use id="zoomplus" xlink:href="#zoomPlus" x="17" y="9" onmousedown="handleZoom(evt,'in')"/>
                <use id="zoomminus" xlink:href="#zoomMin" x="42" y="9" onmousedown="handleZoom(evt,'out')"/>
                <use id="reset" xlink:href="#resetDef" x="30" y="36" onmousedown="handleReset()"/>
                <g id="arrowUp" xlink:href="#dirArrow" transform="translate(30 24)" onmousedown="handlePan(0,-1)">
                  <use xlink:href="#rim" fill="#404040">
                        <set attributeName="fill" to="#808080" begin="arrowUp.mouseover" end="arrowUp.mouseout"/>
                  </use>
                  <path fill="none" stroke="white" stroke-width="1.5" d="M0,-3.0v7 M-2.5,-0.5L0,-3.0L2.5,-0.5"/>
                </g>
                <g id="arrowRight" xlink:href="#dirArrow" transform="rotate(90) translate(36 -43)" onmousedown="handlePan(1,0)">
                  <use xlink:href="#rim" fill="#404040">
                        <set attributeName="fill" to="#808080" begin="arrowRight.mouseover" end="arrowRight.mouseout"/>
                  </use>
                  <path fill="none" stroke="white" stroke-width="1.5" d="M0,-3.0v7 M-2.5,-0.5L0,-3.0L2.5,-0.5"/>
                </g>
                <g id="arrowDown" xlink:href="#dirArrow" transform="rotate(180) translate(-30 -48)" onmousedown="handlePan(0,1)">
                  <use xlink:href="#rim" fill="#404040">
                        <set attributeName="fill" to="#808080" begin="arrowDown.mouseover" end="arrowDown.mouseout"/>
                  </use>
                  <path fill="none" stroke="white" stroke-width="1.5" d="M0,-3.0v7 M-2.5,-0.5L0,-3.0L2.5,-0.5"/>
                </g>
                <g id="arrowLeft" xlink:href="#dirArrow" transform="rotate(270) translate(-36 17)" onmousedown="handlePan(-1,0)">
                  <use xlink:href="#rim" fill="#404040">
                        <set attributeName="fill" to="#808080" begin="arrowLeft.mouseover" end="arrowLeft.mouseout"/>
                  </use>
                  <path fill="none" stroke="white" stroke-width="1.5" d="M0,-3.0v7 M-2.5,-0.5L0,-3.0L2.5,-0.5"/>
                </g>
        </g>
        <svg viewBox="0 0 15 15" width="100%" height="30px" preserveAspectRatio="xMaxYMin meet">
         <g id="arrow_out" transform="scale(0.3 0.3)">
          <a xlink:href="classrm_1_1feature__inherit__graph_org.svg" target="_base">
           <rect id="button" ry="5" rx="5" y="6" x="6" height="38" width="38"
                fill="#f2f5e9" fill-opacity="0.5" stroke="#606060" stroke-width="1.0"/>
           <path id="arrow"
             d="M 11.500037,31.436501 C 11.940474,20.09759 22.043105,11.32322 32.158766,21.979434 L 37.068811,17.246167 C 37.068811,17.246167 37.088388,32 37.088388,32 L 22.160133,31.978069 C 22.160133,31.978069 26.997745,27.140456 26.997745,27.140456 C 18.528582,18.264221 13.291696,25.230495 11.500037,31.436501 z"
             style="fill:#404040;"/>
          </a>
         </g>
        </svg>
</svg>
