<?xml version="1.0" encoding="UTF-8" standalone="no"?>
<!DOCTYPE svg PUBLIC "-//W3C//DTD SVG 1.1//EN"
 "http://www.w3.org/Graphics/SVG/1.1/DTD/svg11.dtd">
<!-- Generated by graphviz version 2.43.0 (0)
 -->
<!-- Title: rm::RuneTracker Pages: 1 -->
<svg width="1281pt" height="949pt"
 viewBox="0.00 0.00 1281.00 949.00" xmlns="http://www.w3.org/2000/svg" xmlns:xlink="http://www.w3.org/1999/xlink">
<g id="graph0" class="graph" transform="scale(1 1) rotate(0) translate(4 945)">
<title>rm::RuneTracker</title>
<polygon fill="white" stroke="transparent" points="-4,4 -4,-945 1277,-945 1277,4 -4,4"/>
<!-- Node1 -->
<g id="node1" class="node">
<title>Node1</title>
<g id="a_node1"><a xlink:title="神符时间序列">
<polygon fill="#bfbfbf" stroke="black" points="430.5,-0.5 430.5,-134.5 549.5,-134.5 549.5,-0.5 430.5,-0.5"/>
<text text-anchor="middle" x="490" y="-122.5" font-family="Helvetica,sans-Serif" font-size="10.00">rm::RuneTracker</text>
<polyline fill="none" stroke="black" points="430.5,-115.5 549.5,-115.5 "/>
<text text-anchor="middle" x="490" y="-103.5" font-family="Helvetica,sans-Serif" font-size="10.00"> </text>
<polyline fill="none" stroke="black" points="430.5,-96.5 549.5,-96.5 "/>
<text text-anchor="start" x="438.5" y="-84.5" font-family="Helvetica,sans-Serif" font-size="10.00">+ RuneTracker()</text>
<text text-anchor="start" x="438.5" y="-73.5" font-family="Helvetica,sans-Serif" font-size="10.00">+ RuneTracker()</text>
<text text-anchor="start" x="438.5" y="-62.5" font-family="Helvetica,sans-Serif" font-size="10.00">+ update()</text>
<text text-anchor="start" x="438.5" y="-51.5" font-family="Helvetica,sans-Serif" font-size="10.00">+ initFilter()</text>
<text text-anchor="start" x="438.5" y="-40.5" font-family="Helvetica,sans-Serif" font-size="10.00">+ getRotatedSpeed()</text>
<text text-anchor="start" x="438.5" y="-29.5" font-family="Helvetica,sans-Serif" font-size="10.00">+ make_tracker()</text>
<text text-anchor="start" x="438.5" y="-18.5" font-family="Helvetica,sans-Serif" font-size="10.00">+ cast()</text>
<text text-anchor="start" x="438.5" y="-7.5" font-family="Helvetica,sans-Serif" font-size="10.00">+ cast()</text>
</a>
</g>
</g>
<!-- Node2 -->
<g id="node2" class="node">
<title>Node2</title>
<g id="a_node2"><a xlink:href="../../d6/dd2/classrm_1_1tracker.html" target="_top" xlink:title="组合体时间序列">
<polygon fill="white" stroke="black" points="429,-172.5 429,-339.5 551,-339.5 551,-172.5 429,-172.5"/>
<text text-anchor="middle" x="490" y="-327.5" font-family="Helvetica,sans-Serif" font-size="10.00">rm::tracker</text>
<polyline fill="none" stroke="black" points="429,-320.5 551,-320.5 "/>
<text text-anchor="middle" x="490" y="-308.5" font-family="Helvetica,sans-Serif" font-size="10.00"> </text>
<polyline fill="none" stroke="black" points="429,-301.5 551,-301.5 "/>
<text text-anchor="start" x="437" y="-289.5" font-family="Helvetica,sans-Serif" font-size="10.00">+ tracker()</text>
<text text-anchor="start" x="437" y="-278.5" font-family="Helvetica,sans-Serif" font-size="10.00">+ ~tracker()</text>
<text text-anchor="start" x="437" y="-267.5" font-family="Helvetica,sans-Serif" font-size="10.00">+ update()</text>
<text text-anchor="start" x="437" y="-256.5" font-family="Helvetica,sans-Serif" font-size="10.00">+ front()</text>
<text text-anchor="start" x="437" y="-245.5" font-family="Helvetica,sans-Serif" font-size="10.00">+ back()</text>
<text text-anchor="start" x="437" y="-234.5" font-family="Helvetica,sans-Serif" font-size="10.00">+ getVanishNumber()</text>
<text text-anchor="start" x="437" y="-223.5" font-family="Helvetica,sans-Serif" font-size="10.00">+ size()</text>
<text text-anchor="start" x="437" y="-212.5" font-family="Helvetica,sans-Serif" font-size="10.00">+ data()</text>
<text text-anchor="start" x="437" y="-201.5" font-family="Helvetica,sans-Serif" font-size="10.00">+ empty()</text>
<text text-anchor="start" x="437" y="-190.5" font-family="Helvetica,sans-Serif" font-size="10.00">+ at()</text>
<text text-anchor="start" x="437" y="-179.5" font-family="Helvetica,sans-Serif" font-size="10.00">和 9 更多...</text>
</a>
</g>
</g>
<!-- Node2&#45;&gt;Node1 -->
<g id="edge1" class="edge">
<title>Node2&#45;&gt;Node1</title>
<path fill="none" stroke="midnightblue" d="M490,-162.25C490,-152.9 490,-143.53 490,-134.54"/>
<polygon fill="none" stroke="midnightblue" points="486.5,-162.38 490,-172.38 493.5,-162.38 486.5,-162.38"/>
</g>
<!-- Node3 -->
<g id="node3" class="node">
<title>Node3</title>
<g id="a_node3"><a xlink:href="../../da/dbf/classrm_1_1CameraExtrinsics.html" target="_top" xlink:title=" ">
<polygon fill="white" stroke="black" points="4,-409.5 4,-598.5 126,-598.5 126,-409.5 4,-409.5"/>
<text text-anchor="start" x="12" y="-586.5" font-family="Helvetica,sans-Serif" font-size="10.00">rm::CameraExtrinsics</text>
<text text-anchor="middle" x="65" y="-575.5" font-family="Helvetica,sans-Serif" font-size="10.00">&lt; float &gt;</text>
<polyline fill="none" stroke="black" points="4,-568.5 126,-568.5 "/>
<text text-anchor="middle" x="65" y="-556.5" font-family="Helvetica,sans-Serif" font-size="10.00"> </text>
<polyline fill="none" stroke="black" points="4,-549.5 126,-549.5 "/>
<text text-anchor="start" x="12" y="-537.5" font-family="Helvetica,sans-Serif" font-size="10.00">+ tvec()</text>
<text text-anchor="start" x="12" y="-526.5" font-family="Helvetica,sans-Serif" font-size="10.00">+ tvec()</text>
<text text-anchor="start" x="12" y="-515.5" font-family="Helvetica,sans-Serif" font-size="10.00">+ rvec()</text>
<text text-anchor="start" x="12" y="-504.5" font-family="Helvetica,sans-Serif" font-size="10.00">+ rvec()</text>
<text text-anchor="start" x="12" y="-493.5" font-family="Helvetica,sans-Serif" font-size="10.00">+ R()</text>
<text text-anchor="start" x="12" y="-482.5" font-family="Helvetica,sans-Serif" font-size="10.00">+ R()</text>
<text text-anchor="start" x="12" y="-471.5" font-family="Helvetica,sans-Serif" font-size="10.00">+ T()</text>
<text text-anchor="start" x="12" y="-460.5" font-family="Helvetica,sans-Serif" font-size="10.00">+ yaw()</text>
<text text-anchor="start" x="12" y="-449.5" font-family="Helvetica,sans-Serif" font-size="10.00">+ pitch()</text>
<text text-anchor="start" x="12" y="-438.5" font-family="Helvetica,sans-Serif" font-size="10.00">+ roll()</text>
<text text-anchor="start" x="12" y="-427.5" font-family="Helvetica,sans-Serif" font-size="10.00">+ distance()</text>
<text text-anchor="start" x="12" y="-416.5" font-family="Helvetica,sans-Serif" font-size="10.00">+ distance()</text>
</a>
</g>
</g>
<!-- Node3&#45;&gt;Node2 -->
<g id="edge2" class="edge">
<title>Node3&#45;&gt;Node2</title>
<path fill="none" stroke="#404040" d="M67.32,-409.4C71.83,-390.47 79.72,-372.08 93,-358 136.85,-311.52 314.74,-280.53 416.9,-266.18"/>
<polygon fill="none" stroke="#404040" points="417.08,-266.16 422.48,-261.37 428.97,-264.51 423.57,-269.3 417.08,-266.16"/>
<text text-anchor="middle" x="122.5" y="-372" font-family="Helvetica,sans-Serif" font-size="10.00"> #_extrinsic</text>
</g>
<!-- Node4 -->
<g id="node4" class="node">
<title>Node4</title>
<g id="a_node4"><a xlink:href="../../da/dbf/classrm_1_1CameraExtrinsics.html" target="_top" xlink:title="相机外参">
<polygon fill="white" stroke="black" points="0,-646.5 0,-835.5 122,-835.5 122,-646.5 0,-646.5"/>
<text text-anchor="start" x="8" y="-823.5" font-family="Helvetica,sans-Serif" font-size="10.00">rm::CameraExtrinsics</text>
<text text-anchor="middle" x="61" y="-812.5" font-family="Helvetica,sans-Serif" font-size="10.00">&lt; Tp &gt;</text>
<polyline fill="none" stroke="black" points="0,-805.5 122,-805.5 "/>
<text text-anchor="middle" x="61" y="-793.5" font-family="Helvetica,sans-Serif" font-size="10.00"> </text>
<polyline fill="none" stroke="black" points="0,-786.5 122,-786.5 "/>
<text text-anchor="start" x="8" y="-774.5" font-family="Helvetica,sans-Serif" font-size="10.00">+ tvec()</text>
<text text-anchor="start" x="8" y="-763.5" font-family="Helvetica,sans-Serif" font-size="10.00">+ rvec()</text>
<text text-anchor="start" x="8" y="-752.5" font-family="Helvetica,sans-Serif" font-size="10.00">+ R()</text>
<text text-anchor="start" x="8" y="-741.5" font-family="Helvetica,sans-Serif" font-size="10.00">+ T()</text>
<text text-anchor="start" x="8" y="-730.5" font-family="Helvetica,sans-Serif" font-size="10.00">+ yaw()</text>
<text text-anchor="start" x="8" y="-719.5" font-family="Helvetica,sans-Serif" font-size="10.00">+ pitch()</text>
<text text-anchor="start" x="8" y="-708.5" font-family="Helvetica,sans-Serif" font-size="10.00">+ roll()</text>
<text text-anchor="start" x="8" y="-697.5" font-family="Helvetica,sans-Serif" font-size="10.00">+ distance()</text>
<text text-anchor="start" x="8" y="-686.5" font-family="Helvetica,sans-Serif" font-size="10.00">+ tvec()</text>
<text text-anchor="start" x="8" y="-675.5" font-family="Helvetica,sans-Serif" font-size="10.00">+ rvec()</text>
<text text-anchor="start" x="8" y="-664.5" font-family="Helvetica,sans-Serif" font-size="10.00">+ R()</text>
<text text-anchor="start" x="8" y="-653.5" font-family="Helvetica,sans-Serif" font-size="10.00">+ distance()</text>
</a>
</g>
</g>
<!-- Node4&#45;&gt;Node3 -->
<g id="edge3" class="edge">
<title>Node4&#45;&gt;Node3</title>
<path fill="none" stroke="orange" d="M62.76,-636.42C62.98,-623.84 63.2,-611.04 63.41,-598.62"/>
<polygon fill="orange" stroke="orange" points="59.26,-636.39 62.59,-646.45 66.26,-636.51 59.26,-636.39"/>
<text text-anchor="middle" x="87" y="-620" font-family="Helvetica,sans-Serif" font-size="10.00"> &lt; float &gt;</text>
</g>
<!-- Node5 -->
<g id="node5" class="node">
<title>Node5</title>
<g id="a_node5"><a xlink:title=" ">
<polygon fill="white" stroke="#bfbfbf" points="268,-475.5 268,-532.5 410,-532.5 410,-475.5 268,-475.5"/>
<text text-anchor="middle" x="339" y="-520.5" font-family="Helvetica,sans-Serif" font-size="10.00">std::vector&lt; cv::Point2f &gt;</text>
<polyline fill="none" stroke="#bfbfbf" points="268,-513.5 410,-513.5 "/>
<text text-anchor="middle" x="339" y="-501.5" font-family="Helvetica,sans-Serif" font-size="10.00"> </text>
<polyline fill="none" stroke="#bfbfbf" points="268,-494.5 410,-494.5 "/>
<text text-anchor="middle" x="339" y="-482.5" font-family="Helvetica,sans-Serif" font-size="10.00"> </text>
</a>
</g>
</g>
<!-- Node5&#45;&gt;Node2 -->
<g id="edge4" class="edge">
<title>Node5&#45;&gt;Node2</title>
<path fill="none" stroke="#404040" d="M356.03,-475.26C374.67,-444.89 405.56,-394.56 432.99,-349.88"/>
<polygon fill="none" stroke="#404040" points="433.05,-349.79 432.78,-342.58 439.32,-339.56 439.59,-346.76 433.05,-349.79"/>
<text text-anchor="middle" x="450.5" y="-372" font-family="Helvetica,sans-Serif" font-size="10.00"> #_corners</text>
</g>
<!-- Node6 -->
<g id="node6" class="node">
<title>Node6</title>
<g id="a_node6"><a xlink:title=" ">
<polygon fill="white" stroke="#bfbfbf" points="140.5,-712.5 140.5,-769.5 191.5,-769.5 191.5,-712.5 140.5,-712.5"/>
<text text-anchor="middle" x="166" y="-757.5" font-family="Helvetica,sans-Serif" font-size="10.00">Point2f</text>
<polyline fill="none" stroke="#bfbfbf" points="140.5,-750.5 191.5,-750.5 "/>
<text text-anchor="middle" x="166" y="-738.5" font-family="Helvetica,sans-Serif" font-size="10.00"> </text>
<polyline fill="none" stroke="#bfbfbf" points="140.5,-731.5 191.5,-731.5 "/>
<text text-anchor="middle" x="166" y="-719.5" font-family="Helvetica,sans-Serif" font-size="10.00"> </text>
</a>
</g>
</g>
<!-- Node6&#45;&gt;Node2 -->
<g id="edge17" class="edge">
<title>Node6&#45;&gt;Node2</title>
<path fill="none" stroke="#404040" d="M157.9,-712.36C141.89,-651.78 112.86,-505.05 175,-409 228.74,-325.93 341.67,-287.03 416.68,-269.73"/>
<polygon fill="none" stroke="#404040" points="417.12,-269.63 422.11,-264.42 428.84,-267.03 423.84,-272.23 417.12,-269.63"/>
<text text-anchor="middle" x="217" y="-512.5" font-family="Helvetica,sans-Serif" font-size="10.00"> #_center</text>
<text text-anchor="middle" x="217" y="-501.5" font-family="Helvetica,sans-Serif" font-size="10.00">#_relative_angle</text>
<text text-anchor="middle" x="217" y="-490.5" font-family="Helvetica,sans-Serif" font-size="10.00">#_speed</text>
</g>
<!-- Node6&#45;&gt;Node5 -->
<g id="edge5" class="edge">
<title>Node6&#45;&gt;Node5</title>
<path fill="none" stroke="#404040" d="M172.38,-712.08C177.71,-692.5 186.63,-666.28 200,-646 210.38,-630.25 216.67,-629.27 231,-617 240.86,-608.56 244.5,-607.85 254,-599 272.88,-581.41 292.3,-560.21 307.81,-542.4"/>
<polygon fill="none" stroke="#404040" points="308.16,-541.99 309.04,-534.83 315.99,-532.9 315.11,-540.05 308.16,-541.99"/>
<text text-anchor="middle" x="260" y="-620" font-family="Helvetica,sans-Serif" font-size="10.00"> +elements</text>
</g>
<!-- Node7 -->
<g id="node7" class="node">
<title>Node7</title>
<g id="a_node7"><a xlink:title=" ">
<polygon fill="white" stroke="#bfbfbf" points="209.5,-712.5 209.5,-769.5 306.5,-769.5 306.5,-712.5 209.5,-712.5"/>
<text text-anchor="middle" x="258" y="-757.5" font-family="Helvetica,sans-Serif" font-size="10.00">std::vector&lt; T &gt;</text>
<polyline fill="none" stroke="#bfbfbf" points="209.5,-750.5 306.5,-750.5 "/>
<text text-anchor="middle" x="258" y="-738.5" font-family="Helvetica,sans-Serif" font-size="10.00"> </text>
<polyline fill="none" stroke="#bfbfbf" points="209.5,-731.5 306.5,-731.5 "/>
<text text-anchor="middle" x="258" y="-719.5" font-family="Helvetica,sans-Serif" font-size="10.00"> </text>
</a>
</g>
</g>
<!-- Node7&#45;&gt;Node5 -->
<g id="edge6" class="edge">
<title>Node7&#45;&gt;Node5</title>
<path fill="none" stroke="orange" d="M268.77,-702.84C276.05,-678.33 286.11,-645.59 296,-617 306.01,-588.07 318.7,-555.43 327.7,-532.89"/>
<polygon fill="orange" stroke="orange" points="265.41,-701.89 265.93,-712.47 272.12,-703.87 265.41,-701.89"/>
<text text-anchor="middle" x="334.5" y="-620" font-family="Helvetica,sans-Serif" font-size="10.00"> &lt; cv::Point2f &gt;</text>
</g>
<!-- Node8 -->
<g id="node8" class="node">
<title>Node8</title>
<g id="a_node8"><a xlink:title=" ">
<polygon fill="white" stroke="#bfbfbf" points="369.5,-883.5 369.5,-940.5 398.5,-940.5 398.5,-883.5 369.5,-883.5"/>
<text text-anchor="middle" x="384" y="-928.5" font-family="Helvetica,sans-Serif" font-size="10.00">T</text>
<polyline fill="none" stroke="#bfbfbf" points="369.5,-921.5 398.5,-921.5 "/>
<text text-anchor="middle" x="384" y="-909.5" font-family="Helvetica,sans-Serif" font-size="10.00"> </text>
<polyline fill="none" stroke="#bfbfbf" points="369.5,-902.5 398.5,-902.5 "/>
<text text-anchor="middle" x="384" y="-890.5" font-family="Helvetica,sans-Serif" font-size="10.00"> </text>
</a>
</g>
</g>
<!-- Node8&#45;&gt;Node7 -->
<g id="edge7" class="edge">
<title>Node8&#45;&gt;Node7</title>
<path fill="none" stroke="#404040" d="M369.48,-902.87C355.88,-894.68 335.65,-881.01 322,-865 300.6,-839.9 283.77,-806.44 272.75,-780.75"/>
<polygon fill="none" stroke="#404040" points="272.71,-780.63 266.71,-776.63 268.11,-769.55 274.1,-773.56 272.71,-780.63"/>
<text text-anchor="middle" x="351" y="-857" font-family="Helvetica,sans-Serif" font-size="10.00"> +elements</text>
</g>
<!-- Node20 -->
<g id="node20" class="node">
<title>Node20</title>
<g id="a_node20"><a xlink:title=" ">
<polygon fill="white" stroke="#bfbfbf" points="325,-712.5 325,-769.5 443,-769.5 443,-712.5 325,-712.5"/>
<text text-anchor="middle" x="384" y="-757.5" font-family="Helvetica,sans-Serif" font-size="10.00">std::shared_ptr&lt; T &gt;</text>
<polyline fill="none" stroke="#bfbfbf" points="325,-750.5 443,-750.5 "/>
<text text-anchor="middle" x="384" y="-738.5" font-family="Helvetica,sans-Serif" font-size="10.00"> </text>
<polyline fill="none" stroke="#bfbfbf" points="325,-731.5 443,-731.5 "/>
<text text-anchor="start" x="333" y="-719.5" font-family="Helvetica,sans-Serif" font-size="10.00">+ operator&#45;&gt;()</text>
</a>
</g>
</g>
<!-- Node8&#45;&gt;Node20 -->
<g id="edge21" class="edge">
<title>Node8&#45;&gt;Node20</title>
<path fill="none" stroke="#404040" d="M384,-883.47C384,-855.85 384,-813.03 384,-781.73"/>
<polygon fill="none" stroke="#404040" points="384,-781.52 380,-775.52 384,-769.52 388,-775.52 384,-781.52"/>
<text text-anchor="middle" x="396.5" y="-857" font-family="Helvetica,sans-Serif" font-size="10.00"> +ptr</text>
</g>
<!-- Node21 -->
<g id="node21" class="node">
<title>Node21</title>
<g id="a_node21"><a xlink:title=" ">
<polygon fill="white" stroke="#bfbfbf" points="461,-712.5 461,-769.5 557,-769.5 557,-712.5 461,-712.5"/>
<text text-anchor="middle" x="509" y="-757.5" font-family="Helvetica,sans-Serif" font-size="10.00">std::deque&lt; T &gt;</text>
<polyline fill="none" stroke="#bfbfbf" points="461,-750.5 557,-750.5 "/>
<text text-anchor="middle" x="509" y="-738.5" font-family="Helvetica,sans-Serif" font-size="10.00"> </text>
<polyline fill="none" stroke="#bfbfbf" points="461,-731.5 557,-731.5 "/>
<text text-anchor="middle" x="509" y="-719.5" font-family="Helvetica,sans-Serif" font-size="10.00"> </text>
</a>
</g>
</g>
<!-- Node8&#45;&gt;Node21 -->
<g id="edge23" class="edge">
<title>Node8&#45;&gt;Node21</title>
<path fill="none" stroke="#404040" d="M398.69,-896.51C413.11,-881.91 435.29,-858.4 452,-836 465.13,-818.39 477.98,-797.61 488.14,-780.07"/>
<polygon fill="none" stroke="#404040" points="488.16,-780.05 487.66,-772.86 494.1,-769.63 494.6,-776.82 488.16,-780.05"/>
<text text-anchor="middle" x="466" y="-857" font-family="Helvetica,sans-Serif" font-size="10.00"> +elements</text>
</g>
<!-- Node9 -->
<g id="node9" class="node">
<title>Node9</title>
<g id="a_node9"><a xlink:href="../../d0/d01/structrm_1_1RMStatus.html" target="_top" xlink:title="状态类型">
<polygon fill="white" stroke="black" points="695.5,-470 695.5,-538 778.5,-538 778.5,-470 695.5,-470"/>
<text text-anchor="middle" x="737" y="-526" font-family="Helvetica,sans-Serif" font-size="10.00">rm::RMStatus</text>
<polyline fill="none" stroke="black" points="695.5,-519 778.5,-519 "/>
<text text-anchor="middle" x="737" y="-507" font-family="Helvetica,sans-Serif" font-size="10.00"> </text>
<polyline fill="none" stroke="black" points="695.5,-500 778.5,-500 "/>
<text text-anchor="start" x="703.5" y="-488" font-family="Helvetica,sans-Serif" font-size="10.00">+ to_string()</text>
<text text-anchor="start" x="703.5" y="-477" font-family="Helvetica,sans-Serif" font-size="10.00">+ to_string()</text>
</a>
</g>
</g>
<!-- Node9&#45;&gt;Node2 -->
<g id="edge8" class="edge">
<title>Node9&#45;&gt;Node2</title>
<path fill="none" stroke="#404040" d="M703.69,-469.82C666.99,-433.28 606.95,-373.47 559.83,-326.55"/>
<polygon fill="none" stroke="#404040" points="559.7,-326.42 552.62,-325.02 551.19,-317.95 558.27,-319.35 559.7,-326.42"/>
<text text-anchor="middle" x="639.5" y="-372" font-family="Helvetica,sans-Serif" font-size="10.00"> #_type</text>
</g>
<!-- Node10 -->
<g id="node10" class="node">
<title>Node10</title>
<g id="a_node10"><a xlink:title=" ">
<polygon fill="white" stroke="#bfbfbf" points="575,-712.5 575,-769.5 641,-769.5 641,-712.5 575,-712.5"/>
<text text-anchor="middle" x="608" y="-757.5" font-family="Helvetica,sans-Serif" font-size="10.00">MoveType</text>
<polyline fill="none" stroke="#bfbfbf" points="575,-750.5 641,-750.5 "/>
<text text-anchor="middle" x="608" y="-738.5" font-family="Helvetica,sans-Serif" font-size="10.00"> </text>
<polyline fill="none" stroke="#bfbfbf" points="575,-731.5 641,-731.5 "/>
<text text-anchor="middle" x="608" y="-719.5" font-family="Helvetica,sans-Serif" font-size="10.00"> </text>
</a>
</g>
</g>
<!-- Node10&#45;&gt;Node9 -->
<g id="edge9" class="edge">
<title>Node10&#45;&gt;Node9</title>
<path fill="none" stroke="#404040" d="M603.52,-712.17C600.66,-686.24 599.78,-647.17 614,-617 629.4,-584.34 659.09,-556.86 685.45,-537.3"/>
<polygon fill="none" stroke="#404040" points="685.6,-537.19 688.14,-530.45 695.35,-530.2 692.8,-536.95 685.6,-537.19"/>
<text text-anchor="middle" x="650" y="-620" font-family="Helvetica,sans-Serif" font-size="10.00"> +MoveTypeID</text>
</g>
<!-- Node11 -->
<g id="node11" class="node">
<title>Node11</title>
<g id="a_node11"><a xlink:title=" ">
<polygon fill="white" stroke="#bfbfbf" points="659,-712.5 659,-769.5 723,-769.5 723,-712.5 659,-712.5"/>
<text text-anchor="middle" x="691" y="-757.5" font-family="Helvetica,sans-Serif" font-size="10.00">RuneType</text>
<polyline fill="none" stroke="#bfbfbf" points="659,-750.5 723,-750.5 "/>
<text text-anchor="middle" x="691" y="-738.5" font-family="Helvetica,sans-Serif" font-size="10.00"> </text>
<polyline fill="none" stroke="#bfbfbf" points="659,-731.5 723,-731.5 "/>
<text text-anchor="middle" x="691" y="-719.5" font-family="Helvetica,sans-Serif" font-size="10.00"> </text>
</a>
</g>
</g>
<!-- Node11&#45;&gt;Node9 -->
<g id="edge10" class="edge">
<title>Node11&#45;&gt;Node9</title>
<path fill="none" stroke="#404040" d="M688.31,-712.35C686.56,-687.22 685.62,-649.26 692,-617 696.57,-593.86 705.82,-569.43 714.75,-549.3"/>
<polygon fill="none" stroke="#404040" points="714.79,-549.21 713.65,-542.09 719.79,-538.3 720.93,-545.42 714.79,-549.21"/>
<text text-anchor="middle" x="727" y="-620" font-family="Helvetica,sans-Serif" font-size="10.00"> +RuneTypeID</text>
</g>
<!-- Node12 -->
<g id="node12" class="node">
<title>Node12</title>
<g id="a_node12"><a xlink:title=" ">
<polygon fill="white" stroke="#bfbfbf" points="741.5,-712.5 741.5,-769.5 830.5,-769.5 830.5,-712.5 741.5,-712.5"/>
<text text-anchor="middle" x="786" y="-757.5" font-family="Helvetica,sans-Serif" font-size="10.00">ArmorSizeType</text>
<polyline fill="none" stroke="#bfbfbf" points="741.5,-750.5 830.5,-750.5 "/>
<text text-anchor="middle" x="786" y="-738.5" font-family="Helvetica,sans-Serif" font-size="10.00"> </text>
<polyline fill="none" stroke="#bfbfbf" points="741.5,-731.5 830.5,-731.5 "/>
<text text-anchor="middle" x="786" y="-719.5" font-family="Helvetica,sans-Serif" font-size="10.00"> </text>
</a>
</g>
</g>
<!-- Node12&#45;&gt;Node9 -->
<g id="edge11" class="edge">
<title>Node12&#45;&gt;Node9</title>
<path fill="none" stroke="#404040" d="M780.78,-712.11C776.06,-687.15 768.81,-649.58 762,-617 757.39,-594.93 751.97,-570.49 747.35,-550.09"/>
<polygon fill="none" stroke="#404040" points="747.33,-549.98 742.1,-545.01 744.67,-538.27 749.9,-543.24 747.33,-549.98"/>
<text text-anchor="middle" x="811.5" y="-620" font-family="Helvetica,sans-Serif" font-size="10.00"> +ArmorSizeTypeID</text>
</g>
<!-- Node13 -->
<g id="node13" class="node">
<title>Node13</title>
<g id="a_node13"><a xlink:title=" ">
<polygon fill="white" stroke="#bfbfbf" points="851.5,-712.5 851.5,-769.5 952.5,-769.5 952.5,-712.5 851.5,-712.5"/>
<text text-anchor="middle" x="902" y="-757.5" font-family="Helvetica,sans-Serif" font-size="10.00">CompensateType</text>
<polyline fill="none" stroke="#bfbfbf" points="851.5,-750.5 952.5,-750.5 "/>
<text text-anchor="middle" x="902" y="-738.5" font-family="Helvetica,sans-Serif" font-size="10.00"> </text>
<polyline fill="none" stroke="#bfbfbf" points="851.5,-731.5 952.5,-731.5 "/>
<text text-anchor="middle" x="902" y="-719.5" font-family="Helvetica,sans-Serif" font-size="10.00"> </text>
</a>
</g>
</g>
<!-- Node13&#45;&gt;Node9 -->
<g id="edge12" class="edge">
<title>Node13&#45;&gt;Node9</title>
<path fill="none" stroke="#404040" d="M900.83,-712.43C898.12,-684.42 889.56,-641.73 863,-617 837.91,-593.64 815.19,-619.87 788,-599 771.73,-586.51 760.01,-567.31 751.94,-549.5"/>
<polygon fill="none" stroke="#404040" points="751.91,-549.44 745.9,-545.46 747.26,-538.38 753.27,-542.36 751.91,-549.44"/>
<text text-anchor="middle" x="925" y="-620" font-family="Helvetica,sans-Serif" font-size="10.00"> +CompensateTypeID</text>
</g>
<!-- Node14 -->
<g id="node14" class="node">
<title>Node14</title>
<g id="a_node14"><a xlink:title=" ">
<polygon fill="white" stroke="#bfbfbf" points="1003,-712.5 1003,-769.5 1059,-769.5 1059,-712.5 1003,-712.5"/>
<text text-anchor="middle" x="1031" y="-757.5" font-family="Helvetica,sans-Serif" font-size="10.00">TagType</text>
<polyline fill="none" stroke="#bfbfbf" points="1003,-750.5 1059,-750.5 "/>
<text text-anchor="middle" x="1031" y="-738.5" font-family="Helvetica,sans-Serif" font-size="10.00"> </text>
<polyline fill="none" stroke="#bfbfbf" points="1003,-731.5 1059,-731.5 "/>
<text text-anchor="middle" x="1031" y="-719.5" font-family="Helvetica,sans-Serif" font-size="10.00"> </text>
</a>
</g>
</g>
<!-- Node14&#45;&gt;Node9 -->
<g id="edge13" class="edge">
<title>Node14&#45;&gt;Node9</title>
<path fill="none" stroke="#404040" d="M1028.22,-712.24C1023.74,-683.44 1012.1,-639.51 982,-617 947.33,-591.07 824.14,-622.84 788,-599 770.54,-587.49 758.58,-567.91 750.65,-549.59"/>
<polygon fill="none" stroke="#404040" points="750.65,-549.59 744.71,-545.49 746.22,-538.43 752.15,-542.54 750.65,-549.59"/>
<text text-anchor="middle" x="1022.5" y="-620" font-family="Helvetica,sans-Serif" font-size="10.00"> +TagTypeID</text>
</g>
<!-- Node15 -->
<g id="node15" class="node">
<title>Node15</title>
<g id="a_node15"><a xlink:title=" ">
<polygon fill="white" stroke="#bfbfbf" points="1081,-712.5 1081,-769.5 1149,-769.5 1149,-712.5 1081,-712.5"/>
<text text-anchor="middle" x="1115" y="-757.5" font-family="Helvetica,sans-Serif" font-size="10.00">RobotType</text>
<polyline fill="none" stroke="#bfbfbf" points="1081,-750.5 1149,-750.5 "/>
<text text-anchor="middle" x="1115" y="-738.5" font-family="Helvetica,sans-Serif" font-size="10.00"> </text>
<polyline fill="none" stroke="#bfbfbf" points="1081,-731.5 1149,-731.5 "/>
<text text-anchor="middle" x="1115" y="-719.5" font-family="Helvetica,sans-Serif" font-size="10.00"> </text>
</a>
</g>
</g>
<!-- Node15&#45;&gt;Node9 -->
<g id="edge14" class="edge">
<title>Node15&#45;&gt;Node9</title>
<path fill="none" stroke="#404040" d="M1110.37,-712.48C1103.89,-683.43 1089.09,-638.88 1057,-617 1007.5,-583.25 838.43,-631.34 788,-599 770.27,-587.63 758.24,-567.87 750.34,-549.4"/>
<polygon fill="none" stroke="#404040" points="750.31,-549.33 744.4,-545.19 745.94,-538.15 751.85,-542.28 750.31,-549.33"/>
<text text-anchor="middle" x="1104.5" y="-620" font-family="Helvetica,sans-Serif" font-size="10.00"> +RobotTypeID</text>
</g>
<!-- Node16 -->
<g id="node16" class="node">
<title>Node16</title>
<g id="a_node16"><a xlink:title=" ">
<polygon fill="white" stroke="#bfbfbf" points="1167,-712.5 1167,-769.5 1273,-769.5 1273,-712.5 1167,-712.5"/>
<text text-anchor="middle" x="1220" y="-757.5" font-family="Helvetica,sans-Serif" font-size="10.00">TargetChangeType</text>
<polyline fill="none" stroke="#bfbfbf" points="1167,-750.5 1273,-750.5 "/>
<text text-anchor="middle" x="1220" y="-738.5" font-family="Helvetica,sans-Serif" font-size="10.00"> </text>
<polyline fill="none" stroke="#bfbfbf" points="1167,-731.5 1273,-731.5 "/>
<text text-anchor="middle" x="1220" y="-719.5" font-family="Helvetica,sans-Serif" font-size="10.00"> </text>
</a>
</g>
</g>
<!-- Node16&#45;&gt;Node9 -->
<g id="edge15" class="edge">
<title>Node16&#45;&gt;Node9</title>
<path fill="none" stroke="#404040" d="M1211.75,-712.42C1201.37,-683.1 1180.46,-638.1 1145,-617 1076.74,-576.38 855.22,-641.33 788,-599 770.18,-587.77 758.13,-568.04 750.25,-549.54"/>
<polygon fill="none" stroke="#404040" points="750.21,-549.45 744.31,-545.31 745.86,-538.26 751.77,-542.41 750.21,-549.45"/>
<text text-anchor="middle" x="1213" y="-620" font-family="Helvetica,sans-Serif" font-size="10.00"> +TargetChangeTypeID</text>
</g>
<!-- Node17 -->
<g id="node17" class="node">
<title>Node17</title>
<g id="a_node17"><a xlink:title=" ">
<polygon fill="white" stroke="#bfbfbf" points="797,-475.5 797,-532.5 835,-532.5 835,-475.5 797,-475.5"/>
<text text-anchor="middle" x="816" y="-520.5" font-family="Helvetica,sans-Serif" font-size="10.00">float</text>
<polyline fill="none" stroke="#bfbfbf" points="797,-513.5 835,-513.5 "/>
<text text-anchor="middle" x="816" y="-501.5" font-family="Helvetica,sans-Serif" font-size="10.00"> </text>
<polyline fill="none" stroke="#bfbfbf" points="797,-494.5 835,-494.5 "/>
<text text-anchor="middle" x="816" y="-482.5" font-family="Helvetica,sans-Serif" font-size="10.00"> </text>
</a>
</g>
</g>
<!-- Node17&#45;&gt;Node2 -->
<g id="edge16" class="edge">
<title>Node17&#45;&gt;Node2</title>
<path fill="none" stroke="#404040" d="M813.56,-475.16C810.49,-454.85 803.58,-427.71 788,-409 729.63,-338.9 630.71,-297.6 562.96,-276.15"/>
<polygon fill="none" stroke="#404040" points="562.58,-276.03 555.67,-278.09 551.11,-272.5 558.03,-270.44 562.58,-276.03"/>
<text text-anchor="middle" x="791.5" y="-383" font-family="Helvetica,sans-Serif" font-size="10.00"> #_angle</text>
<text text-anchor="middle" x="791.5" y="-372" font-family="Helvetica,sans-Serif" font-size="10.00">#_height</text>
<text text-anchor="middle" x="791.5" y="-361" font-family="Helvetica,sans-Serif" font-size="10.00">#_width</text>
</g>
<!-- Node18 -->
<g id="node18" class="node">
<title>Node18</title>
<g id="a_node18"><a xlink:title=" ">
<polygon fill="white" stroke="#bfbfbf" points="854,-475.5 854,-532.5 910,-532.5 910,-475.5 854,-475.5"/>
<text text-anchor="middle" x="882" y="-520.5" font-family="Helvetica,sans-Serif" font-size="10.00">uint32_t</text>
<polyline fill="none" stroke="#bfbfbf" points="854,-513.5 910,-513.5 "/>
<text text-anchor="middle" x="882" y="-501.5" font-family="Helvetica,sans-Serif" font-size="10.00"> </text>
<polyline fill="none" stroke="#bfbfbf" points="854,-494.5 910,-494.5 "/>
<text text-anchor="middle" x="882" y="-482.5" font-family="Helvetica,sans-Serif" font-size="10.00"> </text>
</a>
</g>
</g>
<!-- Node18&#45;&gt;Node2 -->
<g id="edge18" class="edge">
<title>Node18&#45;&gt;Node2</title>
<path fill="none" stroke="#404040" d="M877.37,-475.38C870.38,-442.48 853.91,-388.19 818,-358 745.14,-296.75 635.48,-272.61 563.32,-263.12"/>
<polygon fill="none" stroke="#404040" points="563.1,-263.09 556.65,-266.32 551.19,-261.62 557.64,-258.38 563.1,-263.09"/>
<text text-anchor="middle" x="883" y="-372" font-family="Helvetica,sans-Serif" font-size="10.00"> #_vanish_num</text>
</g>
<!-- Node19 -->
<g id="node19" class="node">
<title>Node19</title>
<g id="a_node19"><a xlink:title=" ">
<polygon fill="white" stroke="#bfbfbf" points="431,-470 431,-538 549,-538 549,-470 431,-470"/>
<text text-anchor="start" x="439" y="-526" font-family="Helvetica,sans-Serif" font-size="10.00">std::deque&lt; combo::</text>
<text text-anchor="middle" x="490" y="-515" font-family="Helvetica,sans-Serif" font-size="10.00">ptr &gt;</text>
<polyline fill="none" stroke="#bfbfbf" points="431,-508 549,-508 "/>
<text text-anchor="middle" x="490" y="-496" font-family="Helvetica,sans-Serif" font-size="10.00"> </text>
<polyline fill="none" stroke="#bfbfbf" points="431,-489 549,-489 "/>
<text text-anchor="middle" x="490" y="-477" font-family="Helvetica,sans-Serif" font-size="10.00"> </text>
</a>
</g>
</g>
<!-- Node19&#45;&gt;Node2 -->
<g id="edge19" class="edge">
<title>Node19&#45;&gt;Node2</title>
<path fill="none" stroke="#404040" d="M490,-469.82C490,-439.56 490,-393.36 490,-351.72"/>
<polygon fill="none" stroke="#404040" points="490,-351.55 486,-345.55 490,-339.55 494,-345.55 490,-351.55"/>
<text text-anchor="middle" x="532.5" y="-372" font-family="Helvetica,sans-Serif" font-size="10.00"> #_combo_deque</text>
</g>
<!-- Node20&#45;&gt;Node19 -->
<g id="edge20" class="edge">
<title>Node20&#45;&gt;Node19</title>
<path fill="none" stroke="#404040" d="M393.86,-712.3C403.03,-687.14 417.45,-649.16 432,-617 442.28,-594.28 454.9,-569.6 465.73,-549.21"/>
<polygon fill="none" stroke="#404040" points="465.88,-548.94 465.19,-541.76 471.54,-538.36 472.24,-545.54 465.88,-548.94"/>
<text text-anchor="middle" x="461" y="-620" font-family="Helvetica,sans-Serif" font-size="10.00"> +elements</text>
</g>
<!-- Node21&#45;&gt;Node19 -->
<g id="edge22" class="edge">
<title>Node21&#45;&gt;Node19</title>
<path fill="none" stroke="orange" d="M503.49,-702.33C500.52,-680.64 497.05,-652.84 495,-628 492.49,-597.65 491.23,-562.98 490.6,-538.2"/>
<polygon fill="orange" stroke="orange" points="500.06,-703.03 504.9,-712.45 506.99,-702.06 500.06,-703.03"/>
<text text-anchor="middle" x="534.5" y="-620" font-family="Helvetica,sans-Serif" font-size="10.00"> &lt; combo::ptr &gt;</text>
</g>
</g>
</svg>
