<?xml version="1.0" encoding="UTF-8" standalone="no"?>
<!DOCTYPE svg PUBLIC "-//W3C//DTD SVG 1.1//EN"
 "http://www.w3.org/Graphics/SVG/1.1/DTD/svg11.dtd">
<!-- Generated by graphviz version 2.43.0 (0)
 -->
<!-- Title: rm::para::CameraParam Pages: 1 -->
<svg width="252pt" height="220pt"
 viewBox="0.00 0.00 251.50 220.00" xmlns="http://www.w3.org/2000/svg" xmlns:xlink="http://www.w3.org/1999/xlink">

<svg id="main" version="1.1" xmlns="http://www.w3.org/2000/svg" xmlns:xlink="http://www.w3.org/1999/xlink" xml:space="preserve">

<style type="text/css"><![CDATA[
.node, .edge {opacity: 0.7;}
.node.selected, .edge.selected {opacity: 1;}
.edge:hover path { stroke: red; }
.edge:hover polygon { stroke: red; fill: red; }
]]></style>
<script type="application/ecmascript" xlink:href="../../svg.min.js"/>
<svg id="graph" class="graph">
<g id="graph0" class="graph" transform="scale(1 1) rotate(0) translate(4 216)">
<title>rm::para::CameraParam</title>
<!-- Node1 -->
<g id="Node000001" class="node">
<title>Node1</title>
<g id="a_Node000001"><a xlink:title="CameraParam 参数模块">
<polygon fill="#999999" stroke="transparent" points="145.5,-94 29.5,-94 29.5,0 145.5,0 145.5,-94"/>
<text text-anchor="start" x="34.5" y="-82" font-family="Helvetica,sans-Serif" font-size="10.00">rm::para::CameraParam</text>
<text text-anchor="start" x="85.5" y="-67" font-family="Helvetica,sans-Serif" font-size="10.00"> </text>
<text text-anchor="start" x="40" y="-52" font-family="Helvetica,sans-Serif" font-size="10.00">+</text>
<text text-anchor="start" x="57.5" y="-52" font-family="Helvetica,sans-Serif" font-size="10.00">CameraParam()</text>
<text text-anchor="start" x="40" y="-37" font-family="Helvetica,sans-Serif" font-size="10.00">+</text>
<text text-anchor="start" x="57.5" y="-37" font-family="Helvetica,sans-Serif" font-size="10.00">read()</text>
<text text-anchor="start" x="40" y="-22" font-family="Helvetica,sans-Serif" font-size="10.00">+</text>
<text text-anchor="start" x="57.5" y="-22" font-family="Helvetica,sans-Serif" font-size="10.00">write()</text>
<text text-anchor="start" x="40" y="-7" font-family="Helvetica,sans-Serif" font-size="10.00">+</text>
<text text-anchor="start" x="57.5" y="-7" font-family="Helvetica,sans-Serif" font-size="10.00">load()</text>
<polygon fill="#666666" stroke="#666666" points="29.5,-77 29.5,-77 145.5,-77 145.5,-77 29.5,-77"/>
<polygon fill="#666666" stroke="#666666" points="29.5,-62 29.5,-62 145.5,-62 145.5,-62 29.5,-62"/>
<polygon fill="none" stroke="#666666" points="29.5,0 29.5,-94 145.5,-94 145.5,0 29.5,0"/>
</a>
</g>
</g>
<!-- Node2 -->
<g id="Node000002" class="node">
<title>Node2</title>
<g id="a_Node000002"><a xlink:title=" ">
<polygon fill="white" stroke="transparent" points="21,-212 0,-212 0,-163 21,-163 21,-212"/>
<text text-anchor="start" x="5.5" y="-199.5" font-family="Helvetica,sans-Serif" font-size="10.00">int</text>
<text text-anchor="start" x="9" y="-184.5" font-family="Helvetica,sans-Serif" font-size="10.00"> </text>
<text text-anchor="start" x="9" y="-169.5" font-family="Helvetica,sans-Serif" font-size="10.00"> </text>
<polygon fill="#666666" stroke="#666666" points="0.5,-194.5 0.5,-194.5 21.5,-194.5 21.5,-194.5 0.5,-194.5"/>
<polygon fill="#666666" stroke="#666666" points="0.5,-179.5 0.5,-179.5 21.5,-179.5 21.5,-179.5 0.5,-179.5"/>
<polygon fill="none" stroke="#666666" points="0,-163 0,-212 21,-212 21,-163 0,-163"/>
</a>
</g>
</g>
<!-- Node2&#45;&gt;Node1 -->
<g id="edge1_Node000001_Node000002" class="edge">
<title>Node2&#45;&gt;Node1</title>
<g id="a_edge1_Node000001_Node000002"><a xlink:title=" ">
<path fill="none" stroke="#63b8ff" d="M13.51,-162.94C16.15,-147.72 20.97,-127.87 29.5,-112 30.88,-109.44 32.38,-106.89 33.98,-104.38"/>
<polygon fill="none" stroke="#63b8ff" points="34.17,-104.12 34.32,-96.91 41.03,-94.28 40.88,-101.49 34.17,-104.12"/>
</a>
</g>
<text text-anchor="middle" x="56.5" y="-137" font-family="Helvetica,sans-Serif" font-size="10.00" fill="grey"> +EULER_0</text>
<text text-anchor="middle" x="56.5" y="-126" font-family="Helvetica,sans-Serif" font-size="10.00" fill="grey">+EULER_1</text>
<text text-anchor="middle" x="56.5" y="-115" font-family="Helvetica,sans-Serif" font-size="10.00" fill="grey">+EULER_2</text>
</g>
<!-- Node3 -->
<g id="Node000003" class="node">
<title>Node3</title>
<g id="a_Node000003"><a xlink:title=" ">
<polygon fill="white" stroke="transparent" points="133.5,-212 41.5,-212 41.5,-163 133.5,-163 133.5,-212"/>
<text text-anchor="start" x="46.5" y="-199.5" font-family="Helvetica,sans-Serif" font-size="10.00">Matx&lt; float, 3, 3 &gt;</text>
<text text-anchor="start" x="85.5" y="-184.5" font-family="Helvetica,sans-Serif" font-size="10.00"> </text>
<text text-anchor="start" x="85.5" y="-169.5" font-family="Helvetica,sans-Serif" font-size="10.00"> </text>
<polygon fill="#666666" stroke="#666666" points="41.5,-194.5 41.5,-194.5 133.5,-194.5 133.5,-194.5 41.5,-194.5"/>
<polygon fill="#666666" stroke="#666666" points="41.5,-179.5 41.5,-179.5 133.5,-179.5 133.5,-179.5 41.5,-179.5"/>
<polygon fill="none" stroke="#666666" points="41.5,-163 41.5,-212 133.5,-212 133.5,-163 41.5,-163"/>
</a>
</g>
</g>
<!-- Node3&#45;&gt;Node1 -->
<g id="edge2_Node000001_Node000003" class="edge">
<title>Node3&#45;&gt;Node1</title>
<g id="a_edge2_Node000001_Node000003"><a xlink:title=" ">
<path fill="none" stroke="#63b8ff" d="M87.5,-162.69C87.5,-147.13 87.5,-126.08 87.5,-106.27"/>
<polygon fill="none" stroke="#63b8ff" points="87.5,-106.15 83.5,-100.15 87.5,-94.15 91.5,-100.15 87.5,-106.15"/>
</a>
</g>
<text text-anchor="middle" x="122" y="-126" font-family="Helvetica,sans-Serif" font-size="10.00" fill="grey"> +cameraMatrix</text>
</g>
<!-- Node4 -->
<g id="Node000004" class="node">
<title>Node4</title>
<g id="a_Node000004"><a xlink:title=" ">
<polygon fill="white" stroke="transparent" points="243.5,-212 151.5,-212 151.5,-163 243.5,-163 243.5,-212"/>
<text text-anchor="start" x="156.5" y="-199.5" font-family="Helvetica,sans-Serif" font-size="10.00">Matx&lt; float, 5, 1 &gt;</text>
<text text-anchor="start" x="195.5" y="-184.5" font-family="Helvetica,sans-Serif" font-size="10.00"> </text>
<text text-anchor="start" x="195.5" y="-169.5" font-family="Helvetica,sans-Serif" font-size="10.00"> </text>
<polygon fill="#666666" stroke="#666666" points="151.5,-194.5 151.5,-194.5 243.5,-194.5 243.5,-194.5 151.5,-194.5"/>
<polygon fill="#666666" stroke="#666666" points="151.5,-179.5 151.5,-179.5 243.5,-179.5 243.5,-179.5 151.5,-179.5"/>
<polygon fill="none" stroke="#666666" points="151.5,-163 151.5,-212 243.5,-212 243.5,-163 151.5,-163"/>
</a>
</g>
</g>
<!-- Node4&#45;&gt;Node1 -->
<g id="edge3_Node000001_Node000004" class="edge">
<title>Node4&#45;&gt;Node1</title>
<g id="a_edge3_Node000001_Node000004"><a xlink:title=" ">
<path fill="none" stroke="#63b8ff" d="M188.63,-163C182.17,-147.62 172.48,-127.56 160.5,-112 158.14,-108.93 155.61,-105.89 152.96,-102.91"/>
<polygon fill="none" stroke="#63b8ff" points="152.94,-102.89 145.92,-101.25 144.73,-94.14 151.75,-95.78 152.94,-102.89"/>
</a>
</g>
<text text-anchor="middle" x="207" y="-126" font-family="Helvetica,sans-Serif" font-size="10.00" fill="grey"> +distCoeffs</text>
</g>
</g>
</svg>
</svg>

<style type='text/css'>
<![CDATA[
[data-mouse-over-selected='false'] { opacity: 0.7; }
[data-mouse-over-selected='true']  { opacity: 1.0; }
]]>
</style>
<script type="application/ecmascript"><![CDATA[
document.addEventListener('DOMContentLoaded', (event) => {
  highlightEdges();
  highlightAdjacentNodes();
});
]]></script>
</svg>
