<?xml version="1.0" encoding="UTF-8" standalone="no"?>
<!DOCTYPE svg PUBLIC "-//W3C//DTD SVG 1.1//EN"
 "http://www.w3.org/Graphics/SVG/1.1/DTD/svg11.dtd">
<!-- Generated by graphviz version 14.1.2 (0)
 -->
<!-- Title: rm::para::CameraParam Pages: 1 -->
<svg width="272pt" height="238pt"
 viewBox="0.00 0.00 272.00 238.00" xmlns="http://www.w3.org/2000/svg" xmlns:xlink="http://www.w3.org/1999/xlink">

<svg id="main" version="1.1" xmlns="http://www.w3.org/2000/svg" xmlns:xlink="http://www.w3.org/1999/xlink" xml:space="preserve">

<style type="text/css"><![CDATA[
.node, .edge {opacity: 0.7;}
.node.selected, .edge.selected {opacity: 1;}
.edge:hover path { stroke: red; }
.edge:hover polygon { stroke: red; fill: red; }
]]></style>
<script type="application/ecmascript" xlink:href="../../svg.min.js"/>
<svg id="graph" class="graph">
<g id="graph0" class="graph" transform="scale(1 1) rotate(0) translate(4 234.25)">
<title>rm::para::CameraParam</title>
<!-- Node1 -->
<g id="Node000001" class="node">
<title>Node1</title>
<g id="a_Node000001"><a xlink:title="CameraParam 参数模块">
<polygon fill="#999999" stroke="none" points="152.5,-87.75 28.25,-87.75 28.25,0 152.5,0 152.5,-87.75"/>
<text xml:space="preserve" text-anchor="start" x="32.25" y="-74.25" font-family="Helvetica,sans-Serif" font-size="10.00">rm::para::CameraParam</text>
<text xml:space="preserve" text-anchor="start" x="88.88" y="-57.5" font-family="Helvetica,sans-Serif" font-size="10.00"> </text>
<text xml:space="preserve" text-anchor="start" x="39.12" y="-40.75" font-family="Helvetica,sans-Serif" font-size="10.00">+</text>
<text xml:space="preserve" text-anchor="start" x="58.25" y="-40.75" font-family="Helvetica,sans-Serif" font-size="10.00">CameraParam()</text>
<text xml:space="preserve" text-anchor="start" x="39.12" y="-24" font-family="Helvetica,sans-Serif" font-size="10.00">+</text>
<text xml:space="preserve" text-anchor="start" x="58.25" y="-24" font-family="Helvetica,sans-Serif" font-size="10.00">read()</text>
<text xml:space="preserve" text-anchor="start" x="39.12" y="-7.25" font-family="Helvetica,sans-Serif" font-size="10.00">+</text>
<text xml:space="preserve" text-anchor="start" x="58.25" y="-7.25" font-family="Helvetica,sans-Serif" font-size="10.00">write()</text>
<polygon fill="#666666" stroke="#666666" points="28.25,-69 28.25,-69 152.5,-69 152.5,-69 28.25,-69"/>
<polygon fill="#666666" stroke="#666666" points="28.25,-52.25 28.25,-52.25 152.5,-52.25 152.5,-52.25 28.25,-52.25"/>
<polygon fill="none" stroke="#666666" points="28.25,0 28.25,-87.75 152.5,-87.75 152.5,0 28.25,0"/>
</a>
</g>
</g>
<!-- Node2 -->
<g id="Node000002" class="node">
<title>Node2</title>
<g id="a_Node000002"><a xlink:title=" ">
<polygon fill="white" stroke="none" points="20.75,-230.25 0,-230.25 0,-176 20.75,-176 20.75,-230.25"/>
<text xml:space="preserve" text-anchor="start" x="4" y="-216.75" font-family="Helvetica,sans-Serif" font-size="10.00">int</text>
<text xml:space="preserve" text-anchor="start" x="8.88" y="-200" font-family="Helvetica,sans-Serif" font-size="10.00"> </text>
<text xml:space="preserve" text-anchor="start" x="8.88" y="-183.25" font-family="Helvetica,sans-Serif" font-size="10.00"> </text>
<polygon fill="#666666" stroke="#666666" points="0,-211.5 0,-211.5 20.75,-211.5 20.75,-211.5 0,-211.5"/>
<polygon fill="#666666" stroke="#666666" points="0,-194.75 0,-194.75 20.75,-194.75 20.75,-194.75 0,-194.75"/>
<polygon fill="none" stroke="#666666" points="0,-176 0,-230.25 20.75,-230.25 20.75,-176 0,-176"/>
</a>
</g>
</g>
<!-- Node2&#45;&gt;Node1 -->
<g id="edge1_Node000001_Node000002" class="edge">
<title>Node2&#45;&gt;Node1</title>
<g id="a_edge1_Node000001_Node000002"><a xlink:title=" ">
<path fill="none" stroke="#63b8ff" d="M11.39,-176.2C13.11,-155.97 17.65,-127.71 29.38,-105.75 30.8,-103.08 32.39,-100.45 34.09,-97.87"/>
<polygon fill="none" stroke="#63b8ff" points="34.03,-97.95 34.38,-90.75 41.17,-88.31 40.81,-95.51 34.03,-97.95"/>
</a>
</g>
<text xml:space="preserve" text-anchor="start" x="32.38" y="-145.5" font-family="Helvetica,sans-Serif" font-size="10.00" fill="grey">+EULER_0</text>
<text xml:space="preserve" text-anchor="start" x="32.38" y="-128.75" font-family="Helvetica,sans-Serif" font-size="10.00" fill="grey">+EULER_1</text>
<text xml:space="preserve" text-anchor="start" x="32.38" y="-112" font-family="Helvetica,sans-Serif" font-size="10.00" fill="grey">+EULER_2</text>
</g>
<!-- Node3 -->
<g id="Node000003" class="node">
<title>Node3</title>
<g id="a_Node000003"><a xlink:title=" ">
<polygon fill="white" stroke="none" points="140.88,-230.25 39.88,-230.25 39.88,-176 140.88,-176 140.88,-230.25"/>
<text xml:space="preserve" text-anchor="start" x="43.88" y="-216.75" font-family="Helvetica,sans-Serif" font-size="10.00">Matx&lt; float, 3, 3 &gt;</text>
<text xml:space="preserve" text-anchor="start" x="88.88" y="-200" font-family="Helvetica,sans-Serif" font-size="10.00"> </text>
<text xml:space="preserve" text-anchor="start" x="88.88" y="-183.25" font-family="Helvetica,sans-Serif" font-size="10.00"> </text>
<polygon fill="#666666" stroke="#666666" points="39.88,-211.5 39.88,-211.5 140.88,-211.5 140.88,-211.5 39.88,-211.5"/>
<polygon fill="#666666" stroke="#666666" points="39.88,-194.75 39.88,-194.75 140.88,-194.75 140.88,-194.75 39.88,-194.75"/>
<polygon fill="none" stroke="#666666" points="39.88,-176 39.88,-230.25 140.88,-230.25 140.88,-176 39.88,-176"/>
</a>
</g>
</g>
<!-- Node3&#45;&gt;Node1 -->
<g id="edge2_Node000001_Node000003" class="edge">
<title>Node3&#45;&gt;Node1</title>
<g id="a_edge2_Node000001_Node000003"><a xlink:title=" ">
<path fill="none" stroke="#63b8ff" d="M90.38,-176.16C90.38,-155.56 90.38,-126.04 90.38,-100.21"/>
<polygon fill="none" stroke="#63b8ff" points="90.38,-100.4 86.38,-94.4 90.38,-88.4 94.38,-94.4 90.38,-100.4"/>
</a>
</g>
<text xml:space="preserve" text-anchor="start" x="93.38" y="-128.75" font-family="Helvetica,sans-Serif" font-size="10.00" fill="grey">+cameraMatrix</text>
</g>
<!-- Node4 -->
<g id="Node000004" class="node">
<title>Node4</title>
<g id="a_Node000004"><a xlink:title=" ">
<polygon fill="white" stroke="none" points="259.88,-230.25 158.88,-230.25 158.88,-176 259.88,-176 259.88,-230.25"/>
<text xml:space="preserve" text-anchor="start" x="162.88" y="-216.75" font-family="Helvetica,sans-Serif" font-size="10.00">Matx&lt; float, 5, 1 &gt;</text>
<text xml:space="preserve" text-anchor="start" x="207.88" y="-200" font-family="Helvetica,sans-Serif" font-size="10.00"> </text>
<text xml:space="preserve" text-anchor="start" x="207.88" y="-183.25" font-family="Helvetica,sans-Serif" font-size="10.00"> </text>
<polygon fill="#666666" stroke="#666666" points="158.88,-211.5 158.88,-211.5 259.88,-211.5 259.88,-211.5 158.88,-211.5"/>
<polygon fill="#666666" stroke="#666666" points="158.88,-194.75 158.88,-194.75 259.88,-194.75 259.88,-194.75 158.88,-194.75"/>
<polygon fill="none" stroke="#666666" points="158.88,-176 158.88,-230.25 259.88,-230.25 259.88,-176 158.88,-176"/>
</a>
</g>
</g>
<!-- Node4&#45;&gt;Node1 -->
<g id="edge3_Node000001_Node000004" class="edge">
<title>Node4&#45;&gt;Node1</title>
<g id="a_edge3_Node000001_Node000004"><a xlink:title=" ">
<path fill="none" stroke="#63b8ff" d="M205.42,-176.31C201.23,-155.61 192.97,-126.67 177.38,-105.75 172.93,-99.78 167.72,-94.19 162.11,-88.99"/>
<polygon fill="none" stroke="#63b8ff" points="162.13,-89.01 154.97,-88.15 153.01,-81.21 160.17,-82.07 162.13,-89.01"/>
</a>
</g>
<text xml:space="preserve" text-anchor="start" x="204" y="-128.75" font-family="Helvetica,sans-Serif" font-size="10.00" fill="grey">+distCoeffs</text>
</g>
</g>
</svg>
</svg>

<style type='text/css'>
<![CDATA[
[data-mouse-over-selected='false'] { opacity: 0.7; }
[data-mouse-over-selected='true']  { opacity: 1.0; }
]]>
</style>
<script type="application/ecmascript"><![CDATA[
document.addEventListener('DOMContentLoaded', (event) => {
  highlightEdges();
  highlightAdjacentNodes();
});
]]></script>
</svg>
