<?xml version="1.0" encoding="UTF-8" standalone="no"?>
<!DOCTYPE svg PUBLIC "-//W3C//DTD SVG 1.1//EN"
 "http://www.w3.org/Graphics/SVG/1.1/DTD/svg11.dtd">
<!-- Generated by graphviz version 2.43.0 (0)
 -->
<!-- Title: rm::para::CameraParam Pages: 1 -->
<svg width="276pt" height="219pt"
 viewBox="0.00 0.00 275.50 219.00" xmlns="http://www.w3.org/2000/svg" xmlns:xlink="http://www.w3.org/1999/xlink">

<svg id="main" version="1.1" xmlns="http://www.w3.org/2000/svg" xmlns:xlink="http://www.w3.org/1999/xlink" xml:space="preserve">

<style type="text/css"><![CDATA[
.node, .edge {opacity: 0.7;}
.node.selected, .edge.selected {opacity: 1;}
.edge:hover path { stroke: red; }
.edge:hover polygon { stroke: red; fill: red; }
]]></style>
<script type="application/ecmascript" xlink:href="../../svg.min.js"/>
<svg id="graph" class="graph">
<g id="graph0" class="graph" transform="scale(1 1) rotate(0) translate(4 215)">
<title>rm::para::CameraParam</title>
<!-- Node1 -->
<g id="Node000001" class="node">
<title>Node1</title>
<g id="a_Node000001"><a xlink:title="CameraParam 参数模块">
<polygon fill="#999999" stroke="transparent" points="157,-79 30,-79 30,0 157,0 157,-79"/>
<text text-anchor="start" x="35.5" y="-66.5" font-family="Helvetica,sans-Serif" font-size="10.00">rm::para::CameraParam</text>
<text text-anchor="start" x="92" y="-51.5" font-family="Helvetica,sans-Serif" font-size="10.00"> </text>
<text text-anchor="start" x="41.5" y="-36.5" font-family="Helvetica,sans-Serif" font-size="10.00">+</text>
<text text-anchor="start" x="61.5" y="-36.5" font-family="Helvetica,sans-Serif" font-size="10.00">CameraParam()</text>
<text text-anchor="start" x="41.5" y="-21.5" font-family="Helvetica,sans-Serif" font-size="10.00">+</text>
<text text-anchor="start" x="61.5" y="-21.5" font-family="Helvetica,sans-Serif" font-size="10.00">read()</text>
<text text-anchor="start" x="41.5" y="-6.5" font-family="Helvetica,sans-Serif" font-size="10.00">+</text>
<text text-anchor="start" x="61.5" y="-6.5" font-family="Helvetica,sans-Serif" font-size="10.00">write()</text>
<polygon fill="#666666" stroke="#666666" points="30.5,-61.5 30.5,-61.5 157.5,-61.5 157.5,-61.5 30.5,-61.5"/>
<polygon fill="#666666" stroke="#666666" points="30.5,-46.5 30.5,-46.5 157.5,-46.5 157.5,-46.5 30.5,-46.5"/>
<polygon fill="none" stroke="#666666" points="30,0 30,-79 157,-79 157,0 30,0"/>
</a>
</g>
</g>
<!-- Node2 -->
<g id="Node000002" class="node">
<title>Node2</title>
<g id="a_Node000002"><a xlink:title=" ">
<polygon fill="white" stroke="transparent" points="23,-211 0,-211 0,-162 23,-162 23,-211"/>
<text text-anchor="start" x="5.5" y="-198.5" font-family="Helvetica,sans-Serif" font-size="10.00">int</text>
<text text-anchor="start" x="10" y="-183.5" font-family="Helvetica,sans-Serif" font-size="10.00"> </text>
<text text-anchor="start" x="10" y="-168.5" font-family="Helvetica,sans-Serif" font-size="10.00"> </text>
<polygon fill="#666666" stroke="#666666" points="0.5,-193.5 0.5,-193.5 23.5,-193.5 23.5,-193.5 0.5,-193.5"/>
<polygon fill="#666666" stroke="#666666" points="0.5,-178.5 0.5,-178.5 23.5,-178.5 23.5,-178.5 0.5,-178.5"/>
<polygon fill="none" stroke="#666666" points="0,-162 0,-211 23,-211 23,-162 0,-162"/>
</a>
</g>
</g>
<!-- Node2&#45;&gt;Node1 -->
<g id="edge1_Node000001_Node000002" class="edge">
<title>Node2&#45;&gt;Node1</title>
<g id="a_edge1_Node000001_Node000002"><a xlink:title=" ">
<path fill="none" stroke="#63b8ff" d="M12.96,-161.91C14.99,-143.22 19.85,-117.01 31.5,-97 33.16,-94.15 35.01,-91.36 37.01,-88.64"/>
<polygon fill="none" stroke="#63b8ff" points="37.18,-88.43 37.89,-81.26 44.79,-79.15 44.08,-86.33 37.18,-88.43"/>
</a>
</g>
<text text-anchor="start" x="34.5" y="-132.5" font-family="Helvetica,sans-Serif" font-size="10.00" fill="grey">+EULER_0</text>
<text text-anchor="start" x="34.5" y="-117.5" font-family="Helvetica,sans-Serif" font-size="10.00" fill="grey">+EULER_1</text>
<text text-anchor="start" x="34.5" y="-102.5" font-family="Helvetica,sans-Serif" font-size="10.00" fill="grey">+EULER_2</text>
</g>
<!-- Node3 -->
<g id="Node000003" class="node">
<title>Node3</title>
<g id="a_Node000003"><a xlink:title=" ">
<polygon fill="white" stroke="transparent" points="145.5,-211 41.5,-211 41.5,-162 145.5,-162 145.5,-211"/>
<text text-anchor="start" x="46.5" y="-198.5" font-family="Helvetica,sans-Serif" font-size="10.00">Matx&lt; float, 3, 3 &gt;</text>
<text text-anchor="start" x="91.5" y="-183.5" font-family="Helvetica,sans-Serif" font-size="10.00"> </text>
<text text-anchor="start" x="91.5" y="-168.5" font-family="Helvetica,sans-Serif" font-size="10.00"> </text>
<polygon fill="#666666" stroke="#666666" points="41.5,-193.5 41.5,-193.5 145.5,-193.5 145.5,-193.5 41.5,-193.5"/>
<polygon fill="#666666" stroke="#666666" points="41.5,-178.5 41.5,-178.5 145.5,-178.5 145.5,-178.5 41.5,-178.5"/>
<polygon fill="none" stroke="#666666" points="41.5,-162 41.5,-211 145.5,-211 145.5,-162 41.5,-162"/>
</a>
</g>
</g>
<!-- Node3&#45;&gt;Node1 -->
<g id="edge2_Node000001_Node000003" class="edge">
<title>Node3&#45;&gt;Node1</title>
<g id="a_edge2_Node000001_Node000003"><a xlink:title=" ">
<path fill="none" stroke="#63b8ff" d="M93.5,-161.88C93.5,-142.81 93.5,-115.31 93.5,-91.3"/>
<polygon fill="none" stroke="#63b8ff" points="93.5,-91.12 89.5,-85.12 93.5,-79.12 97.5,-85.12 93.5,-91.12"/>
</a>
</g>
<text text-anchor="start" x="97" y="-117.5" font-family="Helvetica,sans-Serif" font-size="10.00" fill="grey">+cameraMatrix</text>
</g>
<!-- Node4 -->
<g id="Node000004" class="node">
<title>Node4</title>
<g id="a_Node000004"><a xlink:title=" ">
<polygon fill="white" stroke="transparent" points="267.5,-211 163.5,-211 163.5,-162 267.5,-162 267.5,-211"/>
<text text-anchor="start" x="168.5" y="-198.5" font-family="Helvetica,sans-Serif" font-size="10.00">Matx&lt; float, 5, 1 &gt;</text>
<text text-anchor="start" x="213.5" y="-183.5" font-family="Helvetica,sans-Serif" font-size="10.00"> </text>
<text text-anchor="start" x="213.5" y="-168.5" font-family="Helvetica,sans-Serif" font-size="10.00"> </text>
<polygon fill="#666666" stroke="#666666" points="163.5,-193.5 163.5,-193.5 267.5,-193.5 267.5,-193.5 163.5,-193.5"/>
<polygon fill="#666666" stroke="#666666" points="163.5,-178.5 163.5,-178.5 267.5,-178.5 267.5,-178.5 163.5,-178.5"/>
<polygon fill="none" stroke="#666666" points="163.5,-162 163.5,-211 267.5,-211 267.5,-162 163.5,-162"/>
</a>
</g>
</g>
<!-- Node4&#45;&gt;Node1 -->
<g id="edge3_Node000001_Node000004" class="edge">
<title>Node4&#45;&gt;Node1</title>
<g id="a_edge3_Node000001_Node000004"><a xlink:title=" ">
<path fill="none" stroke="#63b8ff" d="M210.34,-161.64C205.26,-142.55 195.98,-115.93 180.5,-97 176.37,-91.95 171.66,-87.19 166.62,-82.75"/>
<polygon fill="none" stroke="#63b8ff" points="166.55,-82.69 159.37,-82 157.26,-75.1 164.43,-75.8 166.55,-82.69"/>
</a>
</g>
<text text-anchor="start" x="206.5" y="-117.5" font-family="Helvetica,sans-Serif" font-size="10.00" fill="grey">+distCoeffs</text>
</g>
</g>
</svg>
</svg>

<style type='text/css'>
<![CDATA[
[data-mouse-over-selected='false'] { opacity: 0.7; }
[data-mouse-over-selected='true']  { opacity: 1.0; }
]]>
</style>
<script type="application/ecmascript"><![CDATA[
document.addEventListener('DOMContentLoaded', (event) => {
  highlightEdges();
  highlightAdjacentNodes();
});
]]></script>
</svg>
