<?xml version="1.0" encoding="UTF-8" standalone="no"?>
<!DOCTYPE svg PUBLIC "-//W3C//DTD SVG 1.1//EN"
 "http://www.w3.org/Graphics/SVG/1.1/DTD/svg11.dtd">
<!-- Generated by graphviz version 2.43.0 (0)
 -->
<!-- Title: rm::MqClient::operator&lt;&lt; Pages: 1 -->
<svg width="316pt" height="64pt"
 viewBox="0.00 0.00 316.00 64.00" xmlns="http://www.w3.org/2000/svg" xmlns:xlink="http://www.w3.org/1999/xlink">
<g id="graph0" class="graph" transform="scale(1 1) rotate(0) translate(4 60)">
<title>rm::MqClient::operator&lt;&lt;</title>
<!-- Node1 -->
<g id="Node000001" class="node">
<title>Node1</title>
<g id="a_Node000001"><a xlink:title="向消息队列写入数据">
<polygon fill="#999999" stroke="#666666" points="143,-37 0,-37 0,-18 143,-18 143,-37"/>
<text text-anchor="middle" x="71.5" y="-25" font-family="Helvetica,sans-Serif" font-size="10.00">rm::MqClient::operator&lt;&lt;</text>
</a>
</g>
</g>
<!-- Node2 -->
<g id="Node000002" class="node">
<title>Node2</title>
<g id="a_Node000002"><a xlink:href="../../d4/d5a/classrm_1_1MqClient.html#a57a692bb97c4650b0000b28fb2c4d2d7" target="_top" xlink:title="构造消息队列客户端">
<polygon fill="white" stroke="#666666" points="308,-56 179,-56 179,-37 308,-37 308,-56"/>
<text text-anchor="middle" x="243.5" y="-44" font-family="Helvetica,sans-Serif" font-size="10.00">rm::MqClient::MqClient</text>
</a>
</g>
</g>
<!-- Node1&#45;&gt;Node2 -->
<g id="edge1_Node000001_Node000002" class="edge">
<title>Node1&#45;&gt;Node2</title>
<g id="a_edge1_Node000001_Node000002"><a xlink:title=" ">
<path fill="none" stroke="#63b8ff" d="M143.12,-35.39C151.64,-36.35 160.36,-37.32 168.93,-38.28"/>
<polygon fill="#63b8ff" stroke="#63b8ff" points="168.56,-41.76 178.89,-39.39 169.34,-34.8 168.56,-41.76"/>
</a>
</g>
</g>
<!-- Node3 -->
<g id="Node000003" class="node">
<title>Node3</title>
<g id="a_Node000003"><a xlink:href="../../d4/d5a/classrm_1_1MqClient.html#ab67fae7cc558084ad7b707567da74f34" target="_top" xlink:title="向消息队列写入数据">
<polygon fill="white" stroke="#666666" points="298.5,-19 188.5,-19 188.5,0 298.5,0 298.5,-19"/>
<text text-anchor="middle" x="243.5" y="-7" font-family="Helvetica,sans-Serif" font-size="10.00">rm::MqClient::write</text>
</a>
</g>
</g>
<!-- Node1&#45;&gt;Node3 -->
<g id="edge2_Node000001_Node000003" class="edge">
<title>Node1&#45;&gt;Node3</title>
<g id="a_edge2_Node000001_Node000003"><a xlink:title=" ">
<path fill="none" stroke="#63b8ff" d="M143.12,-20.02C154.83,-18.78 166.92,-17.5 178.46,-16.28"/>
<polygon fill="#63b8ff" stroke="#63b8ff" points="178.86,-19.76 188.43,-15.22 178.12,-12.8 178.86,-19.76"/>
</a>
</g>
</g>
</g>
</svg>
