<?xml version="1.0" encoding="UTF-8" standalone="no"?>
<!DOCTYPE svg PUBLIC "-//W3C//DTD SVG 1.1//EN"
 "http://www.w3.org/Graphics/SVG/1.1/DTD/svg11.dtd">
<!-- Generated by graphviz version 2.43.0 (0)
 -->
<!-- Title: rm::GyroDetector Pages: 1 -->
<svg width="117pt" height="226pt"
 viewBox="0.00 0.00 117.00 226.00" xmlns="http://www.w3.org/2000/svg" xmlns:xlink="http://www.w3.org/1999/xlink">
<g id="graph0" class="graph" transform="scale(1 1) rotate(0) translate(4 222)">
<title>rm::GyroDetector</title>
<polygon fill="white" stroke="transparent" points="-4,4 -4,-222 113,-222 113,4 -4,4"/>
<!-- Node1 -->
<g id="node1" class="node">
<title>Node1</title>
<g id="a_node1"><a xlink:title="整车状态识别模块">
<polygon fill="#bfbfbf" stroke="black" points="0,-0.5 0,-90.5 109,-90.5 109,-0.5 0,-0.5"/>
<text text-anchor="middle" x="54.5" y="-78.5" font-family="Helvetica,sans-Serif" font-size="10.00">rm::GyroDetector</text>
<polyline fill="none" stroke="black" points="0,-71.5 109,-71.5 "/>
<text text-anchor="middle" x="54.5" y="-59.5" font-family="Helvetica,sans-Serif" font-size="10.00"> </text>
<polyline fill="none" stroke="black" points="0,-52.5 109,-52.5 "/>
<text text-anchor="start" x="8" y="-40.5" font-family="Helvetica,sans-Serif" font-size="10.00">+ GyroDetector()</text>
<text text-anchor="start" x="8" y="-29.5" font-family="Helvetica,sans-Serif" font-size="10.00">+ ~GyroDetector()</text>
<text text-anchor="start" x="8" y="-18.5" font-family="Helvetica,sans-Serif" font-size="10.00">+ detect()</text>
<text text-anchor="start" x="8" y="-7.5" font-family="Helvetica,sans-Serif" font-size="10.00">+ make_detector()</text>
</a>
</g>
</g>
<!-- Node2 -->
<g id="node2" class="node">
<title>Node2</title>
<g id="a_node2"><a xlink:href="../../d3/d77/classrm_1_1detector.html" target="_top" xlink:title="识别检测模块">
<polygon fill="white" stroke="black" points="12.5,-127.5 12.5,-217.5 96.5,-217.5 96.5,-127.5 12.5,-127.5"/>
<text text-anchor="middle" x="54.5" y="-205.5" font-family="Helvetica,sans-Serif" font-size="10.00">rm::detector</text>
<polyline fill="none" stroke="black" points="12.5,-198.5 96.5,-198.5 "/>
<text text-anchor="start" x="20.5" y="-186.5" font-family="Helvetica,sans-Serif" font-size="10.00"># _tick</text>
<text text-anchor="start" x="20.5" y="-175.5" font-family="Helvetica,sans-Serif" font-size="10.00"># _gyro_data</text>
<polyline fill="none" stroke="black" points="12.5,-168.5 96.5,-168.5 "/>
<text text-anchor="start" x="20.5" y="-156.5" font-family="Helvetica,sans-Serif" font-size="10.00">+ detector()</text>
<text text-anchor="start" x="20.5" y="-145.5" font-family="Helvetica,sans-Serif" font-size="10.00">+ ~detector()</text>
<text text-anchor="start" x="20.5" y="-134.5" font-family="Helvetica,sans-Serif" font-size="10.00">+ detect()</text>
</a>
</g>
</g>
<!-- Node2&#45;&gt;Node1 -->
<g id="edge1" class="edge">
<title>Node2&#45;&gt;Node1</title>
<path fill="none" stroke="midnightblue" d="M54.5,-117.16C54.5,-108.28 54.5,-99.18 54.5,-90.59"/>
<polygon fill="none" stroke="midnightblue" points="51,-117.43 54.5,-127.43 58,-117.43 51,-117.43"/>
</g>
</g>
</svg>
