<?xml version="1.0" encoding="UTF-8" standalone="no"?>
<!DOCTYPE svg PUBLIC "-//W3C//DTD SVG 1.1//EN"
 "http://www.w3.org/Graphics/SVG/1.1/DTD/svg11.dtd">
<!-- Generated by graphviz version 2.43.0 (0)
 -->
<!-- Title: 相机模块 Pages: 1 -->
<svg width="252pt" height="182pt"
 viewBox="0.00 0.00 252.00 182.00" xmlns="http://www.w3.org/2000/svg" xmlns:xlink="http://www.w3.org/1999/xlink">

<svg id="main" version="1.1" xmlns="http://www.w3.org/2000/svg" xmlns:xlink="http://www.w3.org/1999/xlink" xml:space="preserve">

<style type="text/css"><![CDATA[
.node, .edge {opacity: 0.7;}
.node.selected, .edge.selected {opacity: 1;}
.edge:hover path { stroke: red; }
.edge:hover polygon { stroke: red; fill: red; }
]]></style>
<script type="application/ecmascript" xlink:href="../../svg.min.js"/>
<svg id="graph" class="graph">
<g id="graph0" class="graph" transform="scale(1 1) rotate(0) translate(4 178)">
<title>相机模块</title>
<!-- Node1 -->
<g id="Node000001" class="node">
<title>Node1</title>
<g id="a_Node000001"><a xlink:title=" ">
<polygon fill="#999999" stroke="#666666" points="56,-96.5 0,-96.5 0,-77.5 56,-77.5 56,-96.5"/>
<text text-anchor="middle" x="28" y="-84.5" font-family="Helvetica,sans-Serif" font-size="10.00">相机模块</text>
</a>
</g>
</g>
<!-- Node2 -->
<g id="Node000002" class="node">
<title>Node2</title>
<g id="a_Node000002"><a xlink:href="../../d4/d59/group__galaxy__camera.html" target="_top" xlink:title=" ">
<polygon fill="white" stroke="#666666" points="244,-174 92,-174 92,-144 244,-144 244,-174"/>
<text text-anchor="start" x="100" y="-162" font-family="Helvetica,sans-Serif" font-size="10.00">大恒图像 Galaxy</text>
<text text-anchor="middle" x="168" y="-151" font-family="Helvetica,sans-Serif" font-size="10.00"> USB3.0/GigE 系列工业相机库</text>
</a>
</g>
</g>
<!-- Node1&#45;&gt;Node2 -->
<g id="edge1" class="edge">
<title>Node1&#45;&gt;Node2</title>
<path fill="none" stroke="black" d="M46.92,-103.31C58.95,-113.57 75.55,-126.43 92,-135 98.43,-138.35 105.41,-141.34 112.43,-143.98"/>
<polygon fill="black" stroke="black" points="49.21,-100.67 39.38,-96.72 44.6,-105.93 49.21,-100.67"/>
</g>
<!-- Node3 -->
<g id="Node000003" class="node">
<title>Node3</title>
<g id="a_Node000003"><a xlink:href="../../db/d27/group__hik__camera.html" target="_top" xlink:title=" ">
<polygon fill="white" stroke="#666666" points="224.5,-126 111.5,-126 111.5,-96 224.5,-96 224.5,-126"/>
<text text-anchor="start" x="119.5" y="-114" font-family="Helvetica,sans-Serif" font-size="10.00">海康机器人 USB3.0</text>
<text text-anchor="middle" x="168" y="-103" font-family="Helvetica,sans-Serif" font-size="10.00">/GigE 系列工业相机库</text>
</a>
</g>
</g>
<!-- Node1&#45;&gt;Node3 -->
<g id="edge2" class="edge">
<title>Node1&#45;&gt;Node3</title>
<path fill="none" stroke="black" d="M66.36,-93.5C80.18,-95.9 96.16,-98.68 111.26,-101.31"/>
<polygon fill="black" stroke="black" points="66.72,-90.01 56.26,-91.74 65.52,-96.9 66.72,-90.01"/>
</g>
<!-- Node4 -->
<g id="Node000004" class="node">
<title>Node4</title>
<g id="a_Node000004"><a xlink:href="../../dd/df4/group__mv__camera.html" target="_top" xlink:title=" ">
<polygon fill="white" stroke="#666666" points="214.5,-78 121.5,-78 121.5,-48 214.5,-48 214.5,-78"/>
<text text-anchor="start" x="129.5" y="-66" font-family="Helvetica,sans-Serif" font-size="10.00">迈德威视 USB3.0</text>
<text text-anchor="middle" x="168" y="-55" font-family="Helvetica,sans-Serif" font-size="10.00"> 相机库</text>
</a>
</g>
</g>
<!-- Node1&#45;&gt;Node4 -->
<g id="edge3" class="edge">
<title>Node1&#45;&gt;Node4</title>
<path fill="none" stroke="black" d="M66.34,-80.51C83.29,-77.56 103.48,-74.05 121.32,-70.94"/>
<polygon fill="black" stroke="black" points="65.52,-77.1 56.26,-82.26 66.72,-83.99 65.52,-77.1"/>
</g>
<!-- Node5 -->
<g id="Node000005" class="node">
<title>Node5</title>
<g id="a_Node000005"><a xlink:href="../../d4/d5d/group__opt__camera.html" target="_top" xlink:title=" ">
<polygon fill="white" stroke="#666666" points="244,-30 92,-30 92,0 244,0 244,-30"/>
<text text-anchor="start" x="100" y="-18" font-family="Helvetica,sans-Serif" font-size="10.00">奥普特机器视觉</text>
<text text-anchor="middle" x="168" y="-7" font-family="Helvetica,sans-Serif" font-size="10.00"> USB3.0/GigE 系列工业相机库</text>
</a>
</g>
</g>
<!-- Node1&#45;&gt;Node5 -->
<g id="edge4" class="edge">
<title>Node1&#45;&gt;Node5</title>
<path fill="none" stroke="black" d="M46.92,-70.69C58.95,-60.43 75.55,-47.57 92,-39 98.43,-35.65 105.41,-32.66 112.43,-30.02"/>
<polygon fill="black" stroke="black" points="44.6,-68.07 39.38,-77.28 49.21,-73.33 44.6,-68.07"/>
</g>
</g>
</svg>
</svg>

<style type='text/css'>
<![CDATA[
[data-mouse-over-selected='false'] { opacity: 0.7; }
[data-mouse-over-selected='true']  { opacity: 1.0; }
]]>
</style>
<script type="application/ecmascript"><![CDATA[
document.addEventListener('DOMContentLoaded', (event) => {
  highlightEdges();
  highlightAdjacentNodes();
});
]]></script>
</svg>
