<?xml version="1.0" encoding="UTF-8" standalone="no"?>
<!DOCTYPE svg PUBLIC "-//W3C//DTD SVG 1.1//EN"
 "http://www.w3.org/Graphics/SVG/1.1/DTD/svg11.dtd">
<!-- Generated by graphviz version 2.43.0 (0)
 -->
<!-- Title: rm::msg::Bool Pages: 1 -->
<svg width="184pt" height="189pt"
 viewBox="0.00 0.00 184.00 189.00" xmlns="http://www.w3.org/2000/svg" xmlns:xlink="http://www.w3.org/1999/xlink">
<g id="graph0" class="graph" transform="scale(1 1) rotate(0) translate(4 185)">
<title>rm::msg::Bool</title>
<!-- Node1 -->
<g id="Node000001" class="node">
<title>Node1</title>
<g id="a_Node000001"><a xlink:title="Bool 消息类型：std/Bool">
<polygon fill="#999999" stroke="transparent" points="105.5,-79 19.5,-79 19.5,0 105.5,0 105.5,-79"/>
<text text-anchor="start" x="31.5" y="-66.5" font-family="Helvetica,sans-Serif" font-size="10.00">rm::msg::Bool</text>
<text text-anchor="start" x="60.5" y="-51.5" font-family="Helvetica,sans-Serif" font-size="10.00"> </text>
<text text-anchor="start" x="23.5" y="-36.5" font-family="Helvetica,sans-Serif" font-size="10.00">+</text>
<text text-anchor="start" x="34.5" y="-36.5" font-family="Helvetica,sans-Serif" font-size="10.00">serialize()</text>
<text text-anchor="start" x="23.5" y="-21.5" font-family="Helvetica,sans-Serif" font-size="10.00">+</text>
<text text-anchor="start" x="34.5" y="-21.5" font-family="Helvetica,sans-Serif" font-size="10.00">compact_size()</text>
<text text-anchor="start" x="23.5" y="-6.5" font-family="Helvetica,sans-Serif" font-size="10.00">+</text>
<text text-anchor="start" x="34.5" y="-6.5" font-family="Helvetica,sans-Serif" font-size="10.00">deserialize()</text>
<polygon fill="#666666" stroke="#666666" points="19.5,-61.5 19.5,-61.5 105.5,-61.5 105.5,-61.5 19.5,-61.5"/>
<polygon fill="#666666" stroke="#666666" points="19.5,-46.5 19.5,-46.5 105.5,-46.5 105.5,-46.5 19.5,-46.5"/>
<polygon fill="none" stroke="#666666" points="19.5,0 19.5,-79 105.5,-79 105.5,0 19.5,0"/>
</a>
</g>
</g>
<!-- Node2 -->
<g id="Node000002" class="node">
<title>Node2</title>
<g id="a_Node000002"><a xlink:title=" ">
<polygon fill="white" stroke="transparent" points="29,-181 0,-181 0,-132 29,-132 29,-181"/>
<text text-anchor="start" x="5.5" y="-168.5" font-family="Helvetica,sans-Serif" font-size="10.00">bool</text>
<text text-anchor="start" x="13" y="-153.5" font-family="Helvetica,sans-Serif" font-size="10.00"> </text>
<text text-anchor="start" x="13" y="-138.5" font-family="Helvetica,sans-Serif" font-size="10.00"> </text>
<polygon fill="#666666" stroke="#666666" points="0.5,-163.5 0.5,-163.5 29.5,-163.5 29.5,-163.5 0.5,-163.5"/>
<polygon fill="#666666" stroke="#666666" points="0.5,-148.5 0.5,-148.5 29.5,-148.5 29.5,-148.5 0.5,-148.5"/>
<polygon fill="none" stroke="#666666" points="0,-132 0,-181 29,-181 29,-132 0,-132"/>
</a>
</g>
</g>
<!-- Node2&#45;&gt;Node1 -->
<g id="edge1_Node000001_Node000002" class="edge">
<title>Node2&#45;&gt;Node1</title>
<g id="a_edge1_Node000001_Node000002"><a xlink:title=" ">
<path fill="none" stroke="#63b8ff" d="M24.33,-131.95C29.31,-120.02 35.55,-105.06 41.54,-90.72"/>
<polygon fill="none" stroke="#63b8ff" points="41.64,-90.49 40.26,-83.41 46.26,-79.41 47.64,-86.49 41.64,-90.49"/>
</a>
</g>
<text text-anchor="start" x="42" y="-102.5" font-family="Helvetica,sans-Serif" font-size="10.00" fill="grey">+data</text>
</g>
<!-- Node3 -->
<g id="Node000003" class="node">
<title>Node3</title>
<g id="a_Node000003"><a xlink:title=" ">
<polygon fill="white" stroke="transparent" points="176,-181 47,-181 47,-132 176,-132 176,-181"/>
<text text-anchor="start" x="52.5" y="-168.5" font-family="Helvetica,sans-Serif" font-size="10.00">static constexpr const char</text>
<text text-anchor="start" x="110" y="-153.5" font-family="Helvetica,sans-Serif" font-size="10.00"> </text>
<text text-anchor="start" x="110" y="-138.5" font-family="Helvetica,sans-Serif" font-size="10.00"> </text>
<polygon fill="#666666" stroke="#666666" points="47.5,-163.5 47.5,-163.5 176.5,-163.5 176.5,-163.5 47.5,-163.5"/>
<polygon fill="#666666" stroke="#666666" points="47.5,-148.5 47.5,-148.5 176.5,-148.5 176.5,-148.5 47.5,-148.5"/>
<polygon fill="none" stroke="#666666" points="47,-132 47,-181 176,-181 176,-132 47,-132"/>
</a>
</g>
</g>
<!-- Node3&#45;&gt;Node1 -->
<g id="edge2_Node000001_Node000003" class="edge">
<title>Node3&#45;&gt;Node1</title>
<g id="a_edge2_Node000001_Node000003"><a xlink:title=" ">
<path fill="none" stroke="#63b8ff" d="M101.47,-131.95C96.38,-120.02 90.01,-105.06 83.9,-90.72"/>
<polygon fill="none" stroke="#63b8ff" points="83.78,-90.45 77.75,-86.5 79.08,-79.41 85.11,-83.36 83.78,-90.45"/>
</a>
</g>
<text text-anchor="start" x="96" y="-102.5" font-family="Helvetica,sans-Serif" font-size="10.00" fill="grey">+msg_type</text>
</g>
</g>
</svg>
