<?xml version="1.0" encoding="UTF-8" standalone="no"?>
<!DOCTYPE svg PUBLIC "-//W3C//DTD SVG 1.1//EN"
 "http://www.w3.org/Graphics/SVG/1.1/DTD/svg11.dtd">
<!-- Generated by graphviz version 14.1.2 (0)
 -->
<!-- Title: rm::NonlinearSolver Pages: 1 -->
<svg width="149pt" height="205pt"
 viewBox="0.00 0.00 149.00 205.00" xmlns="http://www.w3.org/2000/svg" xmlns:xlink="http://www.w3.org/1999/xlink">
<g id="graph0" class="graph" transform="scale(1 1) rotate(0) translate(4 200.75)">
<title>rm::NonlinearSolver</title>
<!-- Node1 -->
<g id="Node000001" class="node">
<title>Node1</title>
<g id="a_Node000001"><a xlink:title="非线性方程求解器">
<polygon fill="#999999" stroke="none" points="123.25,-87.75 17.5,-87.75 17.5,0 123.25,0 123.25,-87.75"/>
<text xml:space="preserve" text-anchor="start" x="21.62" y="-74.25" font-family="Helvetica,sans-Serif" font-size="10.00">rm::NonlinearSolver</text>
<text xml:space="preserve" text-anchor="start" x="68.88" y="-57.5" font-family="Helvetica,sans-Serif" font-size="10.00"> </text>
<text xml:space="preserve" text-anchor="start" x="21.5" y="-40.75" font-family="Helvetica,sans-Serif" font-size="10.00">+</text>
<text xml:space="preserve" text-anchor="start" x="33.75" y="-40.75" font-family="Helvetica,sans-Serif" font-size="10.00">NonlinearSolver()</text>
<text xml:space="preserve" text-anchor="start" x="21.5" y="-24" font-family="Helvetica,sans-Serif" font-size="10.00">+</text>
<text xml:space="preserve" text-anchor="start" x="33.75" y="-24" font-family="Helvetica,sans-Serif" font-size="10.00">NonlinearSolver()</text>
<text xml:space="preserve" text-anchor="start" x="21.5" y="-7.25" font-family="Helvetica,sans-Serif" font-size="10.00">+</text>
<text xml:space="preserve" text-anchor="start" x="33.75" y="-7.25" font-family="Helvetica,sans-Serif" font-size="10.00">operator()()</text>
<polygon fill="#666666" stroke="#666666" points="17.5,-69 17.5,-69 123.25,-69 123.25,-69 17.5,-69"/>
<polygon fill="#666666" stroke="#666666" points="17.5,-52.25 17.5,-52.25 123.25,-52.25 123.25,-52.25 17.5,-52.25"/>
<polygon fill="none" stroke="#666666" points="17.5,0 17.5,-87.75 123.25,-87.75 123.25,0 17.5,0"/>
</a>
</g>
</g>
<!-- Node2 -->
<g id="Node000002" class="node">
<title>Node2</title>
<g id="a_Node000002"><a xlink:title=" ">
<polygon fill="white" stroke="none" points="140.75,-196.75 0,-196.75 0,-142.5 140.75,-142.5 140.75,-196.75"/>
<text xml:space="preserve" text-anchor="start" x="4" y="-183.25" font-family="Helvetica,sans-Serif" font-size="10.00">function&lt; double(double)&gt;</text>
<text xml:space="preserve" text-anchor="start" x="68.88" y="-166.5" font-family="Helvetica,sans-Serif" font-size="10.00"> </text>
<text xml:space="preserve" text-anchor="start" x="68.88" y="-149.75" font-family="Helvetica,sans-Serif" font-size="10.00"> </text>
<polygon fill="#666666" stroke="#666666" points="0,-178 0,-178 140.75,-178 140.75,-178 0,-178"/>
<polygon fill="#666666" stroke="#666666" points="0,-161.25 0,-161.25 140.75,-161.25 140.75,-161.25 0,-161.25"/>
<polygon fill="none" stroke="#666666" points="0,-142.5 0,-196.75 140.75,-196.75 140.75,-142.5 0,-142.5"/>
</a>
</g>
</g>
<!-- Node2&#45;&gt;Node1 -->
<g id="edge1_Node000001_Node000002" class="edge">
<title>Node2&#45;&gt;Node1</title>
<g id="a_edge1_Node000001_Node000002"><a xlink:title=" ">
<path fill="none" stroke="#63b8ff" d="M70.38,-142.68C70.38,-130.29 70.38,-114.96 70.38,-100.15"/>
<polygon fill="none" stroke="#63b8ff" points="70.38,-100.24 66.38,-94.24 70.38,-88.24 74.38,-94.24 70.38,-100.24"/>
</a>
</g>
<text xml:space="preserve" text-anchor="start" x="73.38" y="-112" font-family="Helvetica,sans-Serif" font-size="10.00" fill="grey">+func</text>
</g>
</g>
</svg>
