<?xml version="1.0" encoding="UTF-8" standalone="no"?>
<!DOCTYPE svg PUBLIC "-//W3C//DTD SVG 1.1//EN"
 "http://www.w3.org/Graphics/SVG/1.1/DTD/svg11.dtd">
<!-- Generated by graphviz version 2.43.0 (0)
 -->
<!-- Title: rm::para::GyroCompensatorParam Pages: 1 -->
<svg width="211pt" height="230pt"
 viewBox="0.00 0.00 211.00 230.00" xmlns="http://www.w3.org/2000/svg" xmlns:xlink="http://www.w3.org/1999/xlink">

<svg id="main" version="1.1" xmlns="http://www.w3.org/2000/svg" xmlns:xlink="http://www.w3.org/1999/xlink" xml:space="preserve">

<style type="text/css"><![CDATA[
.node, .edge {opacity: 0.7;}
.node.selected, .edge.selected {opacity: 1;}
.edge:hover path { stroke: red; }
.edge:hover polygon { stroke: red; fill: red; }
]]></style>
<script type="application/ecmascript" xlink:href="../../svg.min.js"/>
<svg id="graph" class="graph">
<g id="graph0" class="graph" transform="scale(1 1) rotate(0) translate(4 226)">
<title>rm::para::GyroCompensatorParam</title>
<!-- Node1 -->
<g id="Node000001" class="node">
<title>Node1</title>
<g id="a_Node000001"><a xlink:title="GyroCompensatorParam 参数模块">
<polygon fill="#999999" stroke="transparent" points="134,-90 0,-90 0,0 134,0 134,-90"/>
<text text-anchor="start" x="6" y="-78" font-family="Helvetica,sans-Serif" font-size="10.00">rm::para::GyroCompensator</text>
<text text-anchor="start" x="52.5" y="-67" font-family="Helvetica,sans-Serif" font-size="10.00">Param</text>
<text text-anchor="start" x="65" y="-52" font-family="Helvetica,sans-Serif" font-size="10.00"> </text>
<text text-anchor="start" x="4" y="-37" font-family="Helvetica,sans-Serif" font-size="10.00">+</text>
<text text-anchor="start" x="15" y="-37" font-family="Helvetica,sans-Serif" font-size="10.00">GyroCompensatorParam()</text>
<text text-anchor="start" x="4" y="-22" font-family="Helvetica,sans-Serif" font-size="10.00">+</text>
<text text-anchor="start" x="15" y="-22" font-family="Helvetica,sans-Serif" font-size="10.00">read()</text>
<text text-anchor="start" x="4" y="-7" font-family="Helvetica,sans-Serif" font-size="10.00">+</text>
<text text-anchor="start" x="15" y="-7" font-family="Helvetica,sans-Serif" font-size="10.00">write()</text>
<polygon fill="#666666" stroke="#666666" points="0,-62 0,-62 134,-62 134,-62 0,-62"/>
<polygon fill="#666666" stroke="#666666" points="0,-47 0,-47 134,-47 134,-47 0,-47"/>
<polygon fill="none" stroke="#666666" points="0,0 0,-90 134,-90 134,0 0,0"/>
</a>
</g>
</g>
<!-- Node2 -->
<g id="Node000002" class="node">
<title>Node2</title>
<g id="a_Node000002"><a xlink:title=" ">
<polygon fill="white" stroke="transparent" points="60.5,-222 21.5,-222 21.5,-173 60.5,-173 60.5,-222"/>
<text text-anchor="start" x="27" y="-209.5" font-family="Helvetica,sans-Serif" font-size="10.00">double</text>
<text text-anchor="start" x="39.5" y="-194.5" font-family="Helvetica,sans-Serif" font-size="10.00"> </text>
<text text-anchor="start" x="39.5" y="-179.5" font-family="Helvetica,sans-Serif" font-size="10.00"> </text>
<polygon fill="#666666" stroke="#666666" points="22,-204.5 22,-204.5 61,-204.5 61,-204.5 22,-204.5"/>
<polygon fill="#666666" stroke="#666666" points="22,-189.5 22,-189.5 61,-189.5 61,-189.5 22,-189.5"/>
<polygon fill="none" stroke="#666666" points="21.5,-173 21.5,-222 60.5,-222 60.5,-173 21.5,-173"/>
</a>
</g>
</g>
<!-- Node2&#45;&gt;Node1 -->
<g id="edge1_Node000001_Node000002" class="edge">
<title>Node2&#45;&gt;Node1</title>
<g id="a_edge1_Node000001_Node000002"><a xlink:title=" ">
<path fill="none" stroke="#63b8ff" d="M43.65,-172.75C45.78,-154.88 49.06,-129.82 53,-108 53.34,-106.11 53.7,-104.19 54.07,-102.26"/>
<polygon fill="none" stroke="#63b8ff" points="54.12,-102.03 51.39,-95.35 56.51,-90.27 59.23,-96.95 54.12,-102.03"/>
</a>
</g>
<text text-anchor="start" x="56" y="-128.5" font-family="Helvetica,sans-Serif" font-size="10.00" fill="grey">+g</text>
</g>
<!-- Node3 -->
<g id="Node000003" class="node">
<title>Node3</title>
<g id="a_Node000003"><a xlink:title=" ">
<polygon fill="white" stroke="transparent" points="107.5,-222 78.5,-222 78.5,-173 107.5,-173 107.5,-222"/>
<text text-anchor="start" x="84" y="-209.5" font-family="Helvetica,sans-Serif" font-size="10.00">float</text>
<text text-anchor="start" x="91.5" y="-194.5" font-family="Helvetica,sans-Serif" font-size="10.00"> </text>
<text text-anchor="start" x="91.5" y="-179.5" font-family="Helvetica,sans-Serif" font-size="10.00"> </text>
<polygon fill="#666666" stroke="#666666" points="79,-204.5 79,-204.5 108,-204.5 108,-204.5 79,-204.5"/>
<polygon fill="#666666" stroke="#666666" points="79,-189.5 79,-189.5 108,-189.5 108,-189.5 79,-189.5"/>
<polygon fill="none" stroke="#666666" points="78.5,-173 78.5,-222 107.5,-222 107.5,-173 78.5,-173"/>
</a>
</g>
</g>
<!-- Node3&#45;&gt;Node1 -->
<g id="edge2_Node000001_Node000003" class="edge">
<title>Node3&#45;&gt;Node1</title>
<g id="a_edge2_Node000001_Node000003"><a xlink:title=" ">
<path fill="none" stroke="#63b8ff" d="M88.94,-172.98C85.68,-154.1 80.96,-126.79 76.73,-102.34"/>
<polygon fill="none" stroke="#63b8ff" points="76.69,-102.06 71.72,-96.83 74.64,-90.24 79.61,-95.47 76.69,-102.06"/>
</a>
</g>
<text text-anchor="start" x="88" y="-143.5" font-family="Helvetica,sans-Serif" font-size="10.00" fill="grey">+MINIMUM_COM</text>
<text text-anchor="start" x="88" y="-128.5" font-family="Helvetica,sans-Serif" font-size="10.00" fill="grey">+PITCH_COMPENSATE</text>
<text text-anchor="start" x="88" y="-113.5" font-family="Helvetica,sans-Serif" font-size="10.00" fill="grey">+YAW_COMPENSATE</text>
</g>
</g>
</svg>
</svg>

<style type='text/css'>
<![CDATA[
[data-mouse-over-selected='false'] { opacity: 0.7; }
[data-mouse-over-selected='true']  { opacity: 1.0; }
]]>
</style>
<script type="application/ecmascript"><![CDATA[
document.addEventListener('DOMContentLoaded', (event) => {
  highlightEdges();
  highlightAdjacentNodes();
});
]]></script>
</svg>
