<?xml version="1.0" encoding="UTF-8" standalone="no"?>
<!DOCTYPE svg PUBLIC "-//W3C//DTD SVG 1.1//EN"
 "http://www.w3.org/Graphics/SVG/1.1/DTD/svg11.dtd">
<!-- Generated by graphviz version 2.43.0 (0)
 -->
<!-- Title: rm::para::RuneTargetParam Pages: 1 -->
<svg width="203pt" height="264pt"
 viewBox="0.00 0.00 202.50 264.00" xmlns="http://www.w3.org/2000/svg" xmlns:xlink="http://www.w3.org/1999/xlink">

<svg id="main" version="1.1" xmlns="http://www.w3.org/2000/svg" xmlns:xlink="http://www.w3.org/1999/xlink" xml:space="preserve">

<style type="text/css"><![CDATA[
.node, .edge {opacity: 0.7;}
.node.selected, .edge.selected {opacity: 1;}
.edge:hover path { stroke: red; }
.edge:hover polygon { stroke: red; fill: red; }
]]></style>
<script type="application/ecmascript" xlink:href="../../svg.min.js"/>
<svg id="graph" class="graph">
<g id="graph0" class="graph" transform="scale(1 1) rotate(0) translate(4 260)">
<title>rm::para::RuneTargetParam</title>
<!-- Node1 -->
<g id="Node000001" class="node">
<title>Node1</title>
<g id="a_Node000001"><a xlink:title="RuneTargetParam 参数模块">
<polygon fill="#999999" stroke="transparent" points="131,-94 0,-94 0,0 131,0 131,-94"/>
<text text-anchor="start" x="5.5" y="-82" font-family="Helvetica,sans-Serif" font-size="10.00">rm::para::RuneTargetParam</text>
<text text-anchor="start" x="64" y="-67" font-family="Helvetica,sans-Serif" font-size="10.00"> </text>
<text text-anchor="start" x="11" y="-52" font-family="Helvetica,sans-Serif" font-size="10.00">+</text>
<text text-anchor="start" x="28.5" y="-52" font-family="Helvetica,sans-Serif" font-size="10.00">RuneTargetParam()</text>
<text text-anchor="start" x="11" y="-37" font-family="Helvetica,sans-Serif" font-size="10.00">+</text>
<text text-anchor="start" x="28.5" y="-37" font-family="Helvetica,sans-Serif" font-size="10.00">read()</text>
<text text-anchor="start" x="11" y="-22" font-family="Helvetica,sans-Serif" font-size="10.00">+</text>
<text text-anchor="start" x="28.5" y="-22" font-family="Helvetica,sans-Serif" font-size="10.00">write()</text>
<text text-anchor="start" x="11" y="-7" font-family="Helvetica,sans-Serif" font-size="10.00">+</text>
<text text-anchor="start" x="28.5" y="-7" font-family="Helvetica,sans-Serif" font-size="10.00">load()</text>
<polygon fill="#666666" stroke="#666666" points="0.5,-77 0.5,-77 131.5,-77 131.5,-77 0.5,-77"/>
<polygon fill="#666666" stroke="#666666" points="0.5,-62 0.5,-62 131.5,-62 131.5,-62 0.5,-62"/>
<polygon fill="none" stroke="#666666" points="0,0 0,-94 131,-94 131,0 0,0"/>
</a>
</g>
</g>
<!-- Node2 -->
<g id="Node000002" class="node">
<title>Node2</title>
<g id="a_Node000002"><a xlink:title=" ">
<polygon fill="white" stroke="transparent" points="80,-256 51,-256 51,-207 80,-207 80,-256"/>
<text text-anchor="start" x="56.5" y="-243.5" font-family="Helvetica,sans-Serif" font-size="10.00">float</text>
<text text-anchor="start" x="64" y="-228.5" font-family="Helvetica,sans-Serif" font-size="10.00"> </text>
<text text-anchor="start" x="64" y="-213.5" font-family="Helvetica,sans-Serif" font-size="10.00"> </text>
<polygon fill="#666666" stroke="#666666" points="51.5,-238.5 51.5,-238.5 80.5,-238.5 80.5,-238.5 51.5,-238.5"/>
<polygon fill="#666666" stroke="#666666" points="51.5,-223.5 51.5,-223.5 80.5,-223.5 80.5,-223.5 51.5,-223.5"/>
<polygon fill="none" stroke="#666666" points="51,-207 51,-256 80,-256 80,-207 51,-207"/>
</a>
</g>
</g>
<!-- Node2&#45;&gt;Node1 -->
<g id="edge1_Node000001_Node000002" class="edge">
<title>Node2&#45;&gt;Node1</title>
<g id="a_edge1_Node000001_Node000002"><a xlink:title=" ">
<path fill="none" stroke="#63b8ff" d="M65.5,-206.64C65.5,-181.34 65.5,-140.43 65.5,-106.49"/>
<polygon fill="none" stroke="#63b8ff" points="65.5,-106.34 61.5,-100.34 65.5,-94.34 69.5,-100.34 65.5,-106.34"/>
</a>
</g>
<text text-anchor="middle" x="130" y="-181" font-family="Helvetica,sans-Serif" font-size="10.00" fill="grey"> +MAX_AREA_PERI_RATIO</text>
<text text-anchor="middle" x="130" y="-170" font-family="Helvetica,sans-Serif" font-size="10.00" fill="grey">+MAX_AREA_RATIO</text>
<text text-anchor="middle" x="130" y="-159" font-family="Helvetica,sans-Serif" font-size="10.00" fill="grey">+MAX_RATIO</text>
<text text-anchor="middle" x="130" y="-148" font-family="Helvetica,sans-Serif" font-size="10.00" fill="grey">+MIN_AREA</text>
<text text-anchor="middle" x="130" y="-137" font-family="Helvetica,sans-Serif" font-size="10.00" fill="grey">+MIN_AREA_PERI_RATIO</text>
<text text-anchor="middle" x="130" y="-126" font-family="Helvetica,sans-Serif" font-size="10.00" fill="grey">+MIN_AREA_RATIO</text>
<text text-anchor="middle" x="130" y="-115" font-family="Helvetica,sans-Serif" font-size="10.00" fill="grey">+MIN_RATIO</text>
</g>
</g>
</svg>
</svg>

<style type='text/css'>
<![CDATA[
[data-mouse-over-selected='false'] { opacity: 0.7; }
[data-mouse-over-selected='true']  { opacity: 1.0; }
]]>
</style>
<script type="application/ecmascript"><![CDATA[
document.addEventListener('DOMContentLoaded', (event) => {
  highlightEdges();
  highlightAdjacentNodes();
});
]]></script>
</svg>
