<?xml version="1.0" encoding="UTF-8" standalone="no"?>
<!DOCTYPE svg PUBLIC "-//W3C//DTD SVG 1.1//EN"
 "http://www.w3.org/Graphics/SVG/1.1/DTD/svg11.dtd">
<!-- Generated by graphviz version 2.43.0 (0)
 -->
<!-- Title: rmvl/detector/armor_detector.h Pages: 1 -->
<svg width="1212pt" height="500pt"
 viewBox="0.00 0.00 1212.00 500.00" xmlns="http://www.w3.org/2000/svg" xmlns:xlink="http://www.w3.org/1999/xlink">
<g id="graph0" class="graph" transform="scale(1 1) rotate(0) translate(4 496)">
<title>rmvl/detector/armor_detector.h</title>
<!-- Node1 -->
<g id="Node000001" class="node">
<title>Node1</title>
<g id="a_Node000001"><a xlink:title="装甲板识别派生类头文件">
<polygon fill="#999999" stroke="#666666" points="428,-492 313,-492 313,-462 428,-462 428,-492"/>
<text text-anchor="start" x="321" y="-480" font-family="Helvetica,sans-Serif" font-size="10.00">rmvl/detector/armor</text>
<text text-anchor="middle" x="370.5" y="-469" font-family="Helvetica,sans-Serif" font-size="10.00">_detector.h</text>
</a>
</g>
</g>
<!-- Node2 -->
<g id="Node000002" class="node">
<title>Node2</title>
<g id="a_Node000002"><a xlink:href="../../d5/d9f/detector_8h.html" target="_top" xlink:title="抽象识别类头文件">
<polygon fill="white" stroke="#666666" points="237,-426 172,-426 172,-407 237,-407 237,-426"/>
<text text-anchor="middle" x="204.5" y="-414" font-family="Helvetica,sans-Serif" font-size="10.00">detector.h</text>
</a>
</g>
</g>
<!-- Node1&#45;&gt;Node2 -->
<g id="edge1_Node000001_Node000002" class="edge">
<title>Node1&#45;&gt;Node2</title>
<g id="a_edge1_Node000001_Node000002"><a xlink:title=" ">
<path fill="none" stroke="#63b8ff" d="M330.74,-461.99C302.67,-452.1 265.45,-438.98 238.71,-429.56"/>
<polygon fill="#63b8ff" stroke="#63b8ff" points="239.61,-426.16 229.01,-426.14 237.28,-432.76 239.61,-426.16"/>
</a>
</g>
</g>
<!-- Node30 -->
<g id="Node000030" class="node">
<title>Node30</title>
<g id="a_Node000030"><a xlink:href="../../d5/d47/ort_8h.html" target="_top" xlink:title="the deployment library header file of the ONNXruntime (Ort)">
<polygon fill="white" stroke="#666666" points="410.5,-426 330.5,-426 330.5,-407 410.5,-407 410.5,-426"/>
<text text-anchor="middle" x="370.5" y="-414" font-family="Helvetica,sans-Serif" font-size="10.00">rmvl/ml/ort.h</text>
</a>
</g>
</g>
<!-- Node1&#45;&gt;Node30 -->
<g id="edge34_Node000001_Node000030" class="edge">
<title>Node1&#45;&gt;Node30</title>
<g id="a_edge34_Node000001_Node000030"><a xlink:title=" ">
<path fill="none" stroke="#63b8ff" d="M370.5,-461.84C370.5,-454.21 370.5,-444.7 370.5,-436.45"/>
<polygon fill="#63b8ff" stroke="#63b8ff" points="374,-436.27 370.5,-426.27 367,-436.27 374,-436.27"/>
</a>
</g>
</g>
<!-- Node33 -->
<g id="Node000033" class="node">
<title>Node33</title>
<g id="a_Node000033"><a xlink:href="../../d5/dea/tracker_2planar__tracker_8h.html" target="_top" xlink:title="平面目标追踪器头文件">
<polygon fill="white" stroke="#666666" points="624.5,-371 514.5,-371 514.5,-341 624.5,-341 624.5,-371"/>
<text text-anchor="start" x="522.5" y="-359" font-family="Helvetica,sans-Serif" font-size="10.00">rmvl/tracker/planar</text>
<text text-anchor="middle" x="569.5" y="-348" font-family="Helvetica,sans-Serif" font-size="10.00">_tracker.h</text>
</a>
</g>
</g>
<!-- Node1&#45;&gt;Node33 -->
<g id="edge38_Node000001_Node000033" class="edge">
<title>Node1&#45;&gt;Node33</title>
<g id="a_edge38_Node000001_Node000033"><a xlink:title=" ">
<path fill="none" stroke="#63b8ff" d="M394.11,-461.88C429.72,-440.59 497.24,-400.21 537.32,-376.24"/>
<polygon fill="#63b8ff" stroke="#63b8ff" points="539.14,-379.24 545.92,-371.1 535.54,-373.23 539.14,-379.24"/>
</a>
</g>
</g>
<!-- Node3 -->
<g id="Node000003" class="node">
<title>Node3</title>
<g id="a_Node000003"><a xlink:href="../../d9/dd1/group_8h.html" target="_top" xlink:title="序列组抽象头文件">
<polygon fill="white" stroke="#666666" points="110.5,-365.5 0.5,-365.5 0.5,-346.5 110.5,-346.5 110.5,-365.5"/>
<text text-anchor="middle" x="55.5" y="-353.5" font-family="Helvetica,sans-Serif" font-size="10.00">rmvl/group/group.h</text>
</a>
</g>
</g>
<!-- Node2&#45;&gt;Node3 -->
<g id="edge2_Node000002_Node000003" class="edge">
<title>Node2&#45;&gt;Node3</title>
<g id="a_edge2_Node000002_Node000003"><a xlink:title=" ">
<path fill="none" stroke="#63b8ff" d="M182.83,-406.99C157.56,-397.07 115.59,-380.59 86.78,-369.28"/>
<polygon fill="#63b8ff" stroke="#63b8ff" points="87.78,-365.91 77.19,-365.52 85.22,-372.43 87.78,-365.91"/>
</a>
</g>
</g>
<!-- Node28 -->
<g id="Node000028" class="node">
<title>Node28</title>
<g id="a_Node000028"><a xlink:href="../../d2/d4c/pretreat_8hpp.html" target="_top" xlink:title="图像预处理模块">
<polygon fill="white" stroke="#666666" points="280.5,-365.5 128.5,-365.5 128.5,-346.5 280.5,-346.5 280.5,-365.5"/>
<text text-anchor="middle" x="204.5" y="-353.5" font-family="Helvetica,sans-Serif" font-size="10.00">rmvl/algorithm/pretreat.hpp</text>
</a>
</g>
</g>
<!-- Node2&#45;&gt;Node28 -->
<g id="edge32_Node000002_Node000028" class="edge">
<title>Node2&#45;&gt;Node28</title>
<g id="a_edge32_Node000002_Node000028"><a xlink:title=" ">
<path fill="none" stroke="#63b8ff" d="M204.5,-406.87C204.5,-398.75 204.5,-386.31 204.5,-375.89"/>
<polygon fill="#63b8ff" stroke="#63b8ff" points="208,-375.67 204.5,-365.67 201,-375.67 208,-375.67"/>
</a>
</g>
</g>
<!-- Node4 -->
<g id="Node000004" class="node">
<title>Node4</title>
<g id="a_Node000004"><a xlink:href="../../dc/ded/tracker_8h.html" target="_top" xlink:title="追踪器抽象头文件">
<polygon fill="white" stroke="#666666" points="121,-305 0,-305 0,-286 121,-286 121,-305"/>
<text text-anchor="middle" x="60.5" y="-293" font-family="Helvetica,sans-Serif" font-size="10.00">rmvl/tracker/tracker.h</text>
</a>
</g>
</g>
<!-- Node3&#45;&gt;Node4 -->
<g id="edge3_Node000003_Node000004" class="edge">
<title>Node3&#45;&gt;Node4</title>
<g id="a_edge3_Node000003_Node000004"><a xlink:title=" ">
<path fill="none" stroke="#63b8ff" d="M56.24,-346.37C56.93,-338.25 58,-325.81 58.89,-315.39"/>
<polygon fill="#63b8ff" stroke="#63b8ff" points="62.39,-315.43 59.76,-305.17 55.42,-314.83 62.39,-315.43"/>
</a>
</g>
</g>
<!-- Node5 -->
<g id="Node000005" class="node">
<title>Node5</title>
<g id="a_Node000005"><a xlink:title=" ">
<polygon fill="#e0e0e0" stroke="#999999" points="81,-244.5 34,-244.5 34,-225.5 81,-225.5 81,-244.5"/>
<text text-anchor="middle" x="57.5" y="-232.5" font-family="Helvetica,sans-Serif" font-size="10.00">deque</text>
</a>
</g>
</g>
<!-- Node4&#45;&gt;Node5 -->
<g id="edge4_Node000004_Node000005" class="edge">
<title>Node4&#45;&gt;Node5</title>
<g id="a_edge4_Node000004_Node000005"><a xlink:title=" ">
<path fill="none" stroke="#63b8ff" d="M60.06,-285.87C59.64,-277.75 59,-265.31 58.47,-254.89"/>
<polygon fill="#63b8ff" stroke="#63b8ff" points="61.95,-254.47 57.94,-244.67 54.96,-254.83 61.95,-254.47"/>
</a>
</g>
</g>
<!-- Node6 -->
<g id="Node000006" class="node">
<title>Node6</title>
<g id="a_Node000006"><a xlink:href="../../d8/d36/combo_8h.html" target="_top" xlink:title="the combination of the features header file">
<polygon fill="white" stroke="#666666" points="421.5,-244.5 301.5,-244.5 301.5,-225.5 421.5,-225.5 421.5,-244.5"/>
<text text-anchor="middle" x="361.5" y="-232.5" font-family="Helvetica,sans-Serif" font-size="10.00">rmvl/combo/combo.h</text>
</a>
</g>
</g>
<!-- Node4&#45;&gt;Node6 -->
<g id="edge5_Node000004_Node000006" class="edge">
<title>Node4&#45;&gt;Node6</title>
<g id="a_edge5_Node000004_Node000006"><a xlink:title=" ">
<path fill="none" stroke="#63b8ff" d="M104.27,-285.99C158.1,-275.53 249.48,-257.77 307.59,-246.48"/>
<polygon fill="#63b8ff" stroke="#63b8ff" points="308.53,-249.86 317.68,-244.52 307.2,-242.99 308.53,-249.86"/>
</a>
</g>
</g>
<!-- Node7 -->
<g id="Node000007" class="node">
<title>Node7</title>
<g id="a_Node000007"><a xlink:href="../../d3/d7e/camutils_8hpp.html" target="_top" xlink:title=" ">
<polygon fill="white" stroke="#666666" points="283,-184 138,-184 138,-165 283,-165 283,-184"/>
<text text-anchor="middle" x="210.5" y="-172" font-family="Helvetica,sans-Serif" font-size="10.00">rmvl/camera/camutils.hpp</text>
</a>
</g>
</g>
<!-- Node6&#45;&gt;Node7 -->
<g id="edge6_Node000006_Node000007" class="edge">
<title>Node6&#45;&gt;Node7</title>
<g id="a_edge6_Node000006_Node000007"><a xlink:title=" ">
<path fill="none" stroke="#63b8ff" d="M339.54,-225.49C313.82,-215.53 271.02,-198.95 241.82,-187.63"/>
<polygon fill="#63b8ff" stroke="#63b8ff" points="243.07,-184.37 232.48,-184.02 240.54,-190.89 243.07,-184.37"/>
</a>
</g>
</g>
<!-- Node10 -->
<g id="Node000010" class="node">
<title>Node10</title>
<g id="a_Node000010"><a xlink:href="../../d4/d78/math_8hpp.html" target="_top" xlink:title="基础数学库">
<polygon fill="white" stroke="#666666" points="579,-184 440,-184 440,-165 579,-165 579,-184"/>
<text text-anchor="middle" x="509.5" y="-172" font-family="Helvetica,sans-Serif" font-size="10.00">rmvl/algorithm/math.hpp</text>
</a>
</g>
</g>
<!-- Node6&#45;&gt;Node10 -->
<g id="edge9_Node000006_Node000010" class="edge">
<title>Node6&#45;&gt;Node10</title>
<g id="a_edge9_Node000006_Node000010"><a xlink:title=" ">
<path fill="none" stroke="#63b8ff" d="M383.02,-225.49C408.12,-215.57 449.82,-199.09 478.43,-187.78"/>
<polygon fill="#63b8ff" stroke="#63b8ff" points="479.94,-190.95 487.95,-184.02 477.37,-184.44 479.94,-190.95"/>
</a>
</g>
</g>
<!-- Node21 -->
<g id="Node000021" class="node">
<title>Node21</title>
<g id="a_Node000021"><a xlink:href="../../dd/de3/types_8hpp.html" target="_top" xlink:title="常用状态类型定义">
<polygon fill="white" stroke="#666666" points="976.5,-129 886.5,-129 886.5,-110 976.5,-110 976.5,-129"/>
<text text-anchor="middle" x="931.5" y="-117" font-family="Helvetica,sans-Serif" font-size="10.00">rmvl/types.hpp</text>
</a>
</g>
</g>
<!-- Node6&#45;&gt;Node21 -->
<g id="edge21_Node000006_Node000021" class="edge">
<title>Node6&#45;&gt;Node21</title>
<g id="a_edge21_Node000006_Node000021"><a xlink:title=" ">
<path fill="none" stroke="#63b8ff" d="M404.07,-225.48C413.12,-223.67 422.63,-221.77 431.5,-220 594.64,-187.45 787.75,-149.06 878.88,-130.95"/>
<polygon fill="#63b8ff" stroke="#63b8ff" points="879.57,-134.39 888.69,-129 878.2,-127.52 879.57,-134.39"/>
</a>
</g>
</g>
<!-- Node22 -->
<g id="Node000022" class="node">
<title>Node22</title>
<g id="a_Node000022"><a xlink:href="../../d5/d60/dataio_8hpp.html" target="_top" xlink:title="陀螺仪数据">
<polygon fill="white" stroke="#666666" points="419.5,-184 301.5,-184 301.5,-165 419.5,-165 419.5,-184"/>
<text text-anchor="middle" x="360.5" y="-172" font-family="Helvetica,sans-Serif" font-size="10.00">rmvl/core/dataio.hpp</text>
</a>
</g>
</g>
<!-- Node6&#45;&gt;Node22 -->
<g id="edge23_Node000006_Node000022" class="edge">
<title>Node6&#45;&gt;Node22</title>
<g id="a_edge23_Node000006_Node000022"><a xlink:title=" ">
<path fill="none" stroke="#63b8ff" d="M361.35,-225.37C361.21,-217.25 361,-204.81 360.82,-194.39"/>
<polygon fill="#63b8ff" stroke="#63b8ff" points="364.32,-194.11 360.65,-184.17 357.32,-194.23 364.32,-194.11"/>
</a>
</g>
</g>
<!-- Node25 -->
<g id="Node000025" class="node">
<title>Node25</title>
<g id="a_Node000025"><a xlink:href="../../d2/d74/feature_8h.html" target="_top" xlink:title="feature class header">
<polygon fill="white" stroke="#666666" points="994,-184 869,-184 869,-165 994,-165 994,-184"/>
<text text-anchor="middle" x="931.5" y="-172" font-family="Helvetica,sans-Serif" font-size="10.00">rmvl/feature/feature.h</text>
</a>
</g>
</g>
<!-- Node6&#45;&gt;Node25 -->
<g id="edge28_Node000006_Node000025" class="edge">
<title>Node6&#45;&gt;Node25</title>
<g id="a_edge28_Node000006_Node000025"><a xlink:title=" ">
<path fill="none" stroke="#63b8ff" d="M400.25,-225.47C410.38,-223.45 421.32,-221.47 431.5,-220 582.71,-198.22 761.28,-185.4 858.84,-179.48"/>
<polygon fill="#63b8ff" stroke="#63b8ff" points="859.12,-182.97 868.89,-178.88 858.7,-175.99 859.12,-182.97"/>
</a>
</g>
</g>
<!-- Node8 -->
<g id="Node000008" class="node">
<title>Node8</title>
<g id="a_Node000008"><a xlink:title=" ">
<polygon fill="#e0e0e0" stroke="#999999" points="161,-129 58,-129 58,-110 161,-110 161,-129"/>
<text text-anchor="middle" x="109.5" y="-117" font-family="Helvetica,sans-Serif" font-size="10.00">opencv2/core.hpp</text>
</a>
</g>
</g>
<!-- Node7&#45;&gt;Node8 -->
<g id="edge7_Node000007_Node000008" class="edge">
<title>Node7&#45;&gt;Node8</title>
<g id="a_edge7_Node000007_Node000008"><a xlink:title=" ">
<path fill="none" stroke="#63b8ff" d="M194.27,-164.98C178.32,-156.61 153.72,-143.7 135.12,-133.95"/>
<polygon fill="#63b8ff" stroke="#63b8ff" points="136.5,-130.72 126.02,-129.17 133.25,-136.92 136.5,-130.72"/>
</a>
</g>
</g>
<!-- Node9 -->
<g id="Node000009" class="node">
<title>Node9</title>
<g id="a_Node000009"><a xlink:href="../../db/d41/rmvldef_8hpp.html" target="_top" xlink:title=" ">
<polygon fill="white" stroke="#666666" points="290,-19 165,-19 165,0 290,0 290,-19"/>
<text text-anchor="middle" x="227.5" y="-7" font-family="Helvetica,sans-Serif" font-size="10.00">rmvl/core/rmvldef.hpp</text>
</a>
</g>
</g>
<!-- Node7&#45;&gt;Node9 -->
<g id="edge8_Node000007_Node000009" class="edge">
<title>Node7&#45;&gt;Node9</title>
<g id="a_edge8_Node000007_Node000009"><a xlink:title=" ">
<path fill="none" stroke="#63b8ff" d="M209.9,-164.8C208.71,-145.09 206.74,-95.6 213.5,-55 214.96,-46.21 217.75,-36.76 220.46,-28.84"/>
<polygon fill="#63b8ff" stroke="#63b8ff" points="223.84,-29.78 223.97,-19.19 217.26,-27.39 223.84,-29.78"/>
</a>
</g>
</g>
<!-- Node11 -->
<g id="Node000011" class="node">
<title>Node11</title>
<g id="a_Node000011"><a xlink:title=" ">
<polygon fill="#e0e0e0" stroke="#999999" points="533,-129 486,-129 486,-110 533,-110 533,-129"/>
<text text-anchor="middle" x="509.5" y="-117" font-family="Helvetica,sans-Serif" font-size="10.00">cmath</text>
</a>
</g>
</g>
<!-- Node10&#45;&gt;Node11 -->
<g id="edge10_Node000010_Node000011" class="edge">
<title>Node10&#45;&gt;Node11</title>
<g id="a_edge10_Node000010_Node000011"><a xlink:title=" ">
<path fill="none" stroke="#63b8ff" d="M509.5,-164.75C509.5,-157.8 509.5,-147.85 509.5,-139.13"/>
<polygon fill="#63b8ff" stroke="#63b8ff" points="513,-139.09 509.5,-129.09 506,-139.09 513,-139.09"/>
</a>
</g>
</g>
<!-- Node12 -->
<g id="Node000012" class="node">
<title>Node12</title>
<g id="a_Node000012"><a xlink:title=" ">
<polygon fill="#e0e0e0" stroke="#999999" points="607.5,-129 551.5,-129 551.5,-110 607.5,-110 607.5,-129"/>
<text text-anchor="middle" x="579.5" y="-117" font-family="Helvetica,sans-Serif" font-size="10.00">numeric</text>
</a>
</g>
</g>
<!-- Node10&#45;&gt;Node12 -->
<g id="edge11_Node000010_Node000012" class="edge">
<title>Node10&#45;&gt;Node12</title>
<g id="a_edge11_Node000010_Node000012"><a xlink:title=" ">
<path fill="none" stroke="#63b8ff" d="M520.75,-164.98C531.3,-157 547.3,-144.88 559.94,-135.31"/>
<polygon fill="#63b8ff" stroke="#63b8ff" points="562.19,-138 568.05,-129.17 557.96,-132.42 562.19,-138"/>
</a>
</g>
</g>
<!-- Node13 -->
<g id="Node000013" class="node">
<title>Node13</title>
<g id="a_Node000013"><a xlink:title=" ">
<polygon fill="#e0e0e0" stroke="#999999" points="719,-129 626,-129 626,-110 719,-110 719,-129"/>
<text text-anchor="middle" x="672.5" y="-117" font-family="Helvetica,sans-Serif" font-size="10.00">unordered_map</text>
</a>
</g>
</g>
<!-- Node10&#45;&gt;Node13 -->
<g id="edge12_Node000010_Node000013" class="edge">
<title>Node10&#45;&gt;Node13</title>
<g id="a_edge12_Node000010_Node000013"><a xlink:title=" ">
<path fill="none" stroke="#63b8ff" d="M535.69,-164.98C562.94,-156.13 605.8,-142.19 636.28,-132.28"/>
<polygon fill="#63b8ff" stroke="#63b8ff" points="637.68,-135.5 646.11,-129.08 635.51,-128.85 637.68,-135.5"/>
</a>
</g>
</g>
<!-- Node14 -->
<g id="Node000014" class="node">
<title>Node14</title>
<g id="a_Node000014"><a xlink:title=" ">
<polygon fill="#e0e0e0" stroke="#999999" points="429,-129 382,-129 382,-110 429,-110 429,-129"/>
<text text-anchor="middle" x="405.5" y="-117" font-family="Helvetica,sans-Serif" font-size="10.00">vector</text>
</a>
</g>
</g>
<!-- Node10&#45;&gt;Node14 -->
<g id="edge13_Node000010_Node000014" class="edge">
<title>Node10&#45;&gt;Node14</title>
<g id="a_edge13_Node000010_Node000014"><a xlink:title=" ">
<path fill="none" stroke="#63b8ff" d="M492.79,-164.98C476.29,-156.57 450.8,-143.59 431.62,-133.81"/>
<polygon fill="#63b8ff" stroke="#63b8ff" points="433.01,-130.59 422.51,-129.17 429.83,-136.83 433.01,-130.59"/>
</a>
</g>
</g>
<!-- Node15 -->
<g id="Node000015" class="node">
<title>Node15</title>
<g id="a_Node000015"><a xlink:title=" ">
<polygon fill="#e0e0e0" stroke="#999999" points="868,-129 737,-129 737,-110 868,-110 868,-129"/>
<text text-anchor="middle" x="802.5" y="-117" font-family="Helvetica,sans-Serif" font-size="10.00">opencv2/core/matx.hpp</text>
</a>
</g>
</g>
<!-- Node10&#45;&gt;Node15 -->
<g id="edge14_Node000010_Node000015" class="edge">
<title>Node10&#45;&gt;Node15</title>
<g id="a_edge14_Node000010_Node000015"><a xlink:title=" ">
<path fill="none" stroke="#63b8ff" d="M556.58,-164.98C607.9,-155.7 690.04,-140.84 745.1,-130.88"/>
<polygon fill="#63b8ff" stroke="#63b8ff" points="745.84,-134.31 755.06,-129.08 744.59,-127.42 745.84,-134.31"/>
</a>
</g>
</g>
<!-- Node16 -->
<g id="Node000016" class="node">
<title>Node16</title>
<g id="a_Node000016"><a xlink:href="../../d0/d3f/util_8hpp.html" target="_top" xlink:title=" ">
<polygon fill="white" stroke="#666666" points="509,-74 406,-74 406,-55 509,-55 509,-74"/>
<text text-anchor="middle" x="457.5" y="-62" font-family="Helvetica,sans-Serif" font-size="10.00">rmvl/core/util.hpp</text>
</a>
</g>
</g>
<!-- Node10&#45;&gt;Node16 -->
<g id="edge15_Node000010_Node000016" class="edge">
<title>Node10&#45;&gt;Node16</title>
<g id="a_edge15_Node000010_Node000016"><a xlink:title=" ">
<path fill="none" stroke="#63b8ff" d="M501.98,-164.84C494.84,-156.24 484.23,-142.44 477.5,-129 470.29,-114.61 465.01,-97.09 461.69,-84.1"/>
<polygon fill="#63b8ff" stroke="#63b8ff" points="465.01,-82.96 459.28,-74.05 458.21,-84.59 465.01,-82.96"/>
</a>
</g>
</g>
<!-- Node16&#45;&gt;Node9 -->
<g id="edge20_Node000016_Node000009" class="edge">
<title>Node16&#45;&gt;Node9</title>
<g id="a_edge20_Node000016_Node000009"><a xlink:title=" ">
<path fill="none" stroke="#63b8ff" d="M420.55,-54.98C380.93,-45.86 317.91,-31.33 274.73,-21.38"/>
<polygon fill="#63b8ff" stroke="#63b8ff" points="275.27,-17.92 264.74,-19.08 273.7,-24.74 275.27,-17.92"/>
</a>
</g>
</g>
<!-- Node17 -->
<g id="Node000017" class="node">
<title>Node17</title>
<g id="a_Node000017"><a xlink:title=" ">
<polygon fill="#e0e0e0" stroke="#999999" points="665,-19 532,-19 532,0 665,0 665,-19"/>
<text text-anchor="middle" x="598.5" y="-7" font-family="Helvetica,sans-Serif" font-size="10.00">rmvl/rmvl_modules.hpp</text>
</a>
</g>
</g>
<!-- Node16&#45;&gt;Node17 -->
<g id="edge16_Node000016_Node000017" class="edge">
<title>Node16&#45;&gt;Node17</title>
<g id="a_edge16_Node000016_Node000017"><a xlink:title=" ">
<path fill="none" stroke="#63b8ff" d="M480.15,-54.98C503.35,-46.27 539.62,-32.63 565.9,-22.75"/>
<polygon fill="#63b8ff" stroke="#63b8ff" points="567.3,-25.97 575.43,-19.17 564.84,-19.41 567.3,-25.97"/>
</a>
</g>
</g>
<!-- Node18 -->
<g id="Node000018" class="node">
<title>Node18</title>
<g id="a_Node000018"><a xlink:title=" ">
<polygon fill="#e0e0e0" stroke="#999999" points="387.5,-19 337.5,-19 337.5,0 387.5,0 387.5,-19"/>
<text text-anchor="middle" x="362.5" y="-7" font-family="Helvetica,sans-Serif" font-size="10.00">cstdint</text>
</a>
</g>
</g>
<!-- Node16&#45;&gt;Node18 -->
<g id="edge17_Node000016_Node000018" class="edge">
<title>Node16&#45;&gt;Node18</title>
<g id="a_edge17_Node000016_Node000018"><a xlink:title=" ">
<path fill="none" stroke="#63b8ff" d="M442.24,-54.98C427.37,-46.69 404.52,-33.94 387.08,-24.22"/>
<polygon fill="#63b8ff" stroke="#63b8ff" points="388.48,-20.99 378.04,-19.17 385.07,-27.1 388.48,-20.99"/>
</a>
</g>
</g>
<!-- Node19 -->
<g id="Node000019" class="node">
<title>Node19</title>
<g id="a_Node000019"><a xlink:title=" ">
<polygon fill="#e0e0e0" stroke="#999999" points="451.5,-19 405.5,-19 405.5,0 451.5,0 451.5,-19"/>
<text text-anchor="middle" x="428.5" y="-7" font-family="Helvetica,sans-Serif" font-size="10.00">cstdio</text>
</a>
</g>
</g>
<!-- Node16&#45;&gt;Node19 -->
<g id="edge18_Node000016_Node000019" class="edge">
<title>Node16&#45;&gt;Node19</title>
<g id="a_edge18_Node000016_Node000019"><a xlink:title=" ">
<path fill="none" stroke="#63b8ff" d="M452.71,-54.75C448.74,-47.49 442.97,-36.95 438.07,-27.98"/>
<polygon fill="#63b8ff" stroke="#63b8ff" points="441.07,-26.18 433.2,-19.09 434.93,-29.54 441.07,-26.18"/>
</a>
</g>
</g>
<!-- Node20 -->
<g id="Node000020" class="node">
<title>Node20</title>
<g id="a_Node000020"><a xlink:title=" ">
<polygon fill="#e0e0e0" stroke="#999999" points="513.5,-19 469.5,-19 469.5,0 513.5,0 513.5,-19"/>
<text text-anchor="middle" x="491.5" y="-7" font-family="Helvetica,sans-Serif" font-size="10.00">string</text>
</a>
</g>
</g>
<!-- Node16&#45;&gt;Node20 -->
<g id="edge19_Node000016_Node000020" class="edge">
<title>Node16&#45;&gt;Node20</title>
<g id="a_edge19_Node000016_Node000020"><a xlink:title=" ">
<path fill="none" stroke="#63b8ff" d="M463.11,-54.75C467.82,-47.42 474.67,-36.73 480.47,-27.7"/>
<polygon fill="#63b8ff" stroke="#63b8ff" points="483.54,-29.4 485.99,-19.09 477.64,-25.62 483.54,-29.4"/>
</a>
</g>
</g>
<!-- Node21&#45;&gt;Node16 -->
<g id="edge22_Node000021_Node000016" class="edge">
<title>Node21&#45;&gt;Node16</title>
<g id="a_edge22_Node000021_Node000016"><a xlink:title=" ">
<path fill="none" stroke="#63b8ff" d="M886.44,-111.23C883.42,-110.8 880.42,-110.38 877.5,-110 750.44,-93.28 601.11,-78.65 519.14,-71.05"/>
<polygon fill="#63b8ff" stroke="#63b8ff" points="519.28,-67.55 509,-70.11 518.64,-74.52 519.28,-67.55"/>
</a>
</g>
</g>
<!-- Node22&#45;&gt;Node9 -->
<g id="edge27_Node000022_Node000009" class="edge">
<title>Node22&#45;&gt;Node9</title>
<g id="a_edge27_Node000022_Node000009"><a xlink:title=" ">
<path fill="none" stroke="#63b8ff" d="M307.93,-164.93C285.76,-158.64 261.64,-147.77 246.5,-129 223.36,-100.31 223.13,-54.68 225.19,-29.23"/>
<polygon fill="#63b8ff" stroke="#63b8ff" points="228.69,-29.39 226.23,-19.09 221.73,-28.68 228.69,-29.39"/>
</a>
</g>
</g>
<!-- Node22&#45;&gt;Node14 -->
<g id="edge26_Node000022_Node000014" class="edge">
<title>Node22&#45;&gt;Node14</title>
<g id="a_edge26_Node000022_Node000014"><a xlink:title=" ">
<path fill="none" stroke="#63b8ff" d="M367.93,-164.75C374.35,-157.18 383.81,-146.05 391.62,-136.84"/>
<polygon fill="#63b8ff" stroke="#63b8ff" points="394.4,-138.98 398.21,-129.09 389.07,-134.45 394.4,-138.98"/>
</a>
</g>
</g>
<!-- Node23 -->
<g id="Node000023" class="node">
<title>Node23</title>
<g id="a_Node000023"><a xlink:title=" ">
<polygon fill="#e0e0e0" stroke="#999999" points="297.5,-129 255.5,-129 255.5,-110 297.5,-110 297.5,-129"/>
<text text-anchor="middle" x="276.5" y="-117" font-family="Helvetica,sans-Serif" font-size="10.00">array</text>
</a>
</g>
</g>
<!-- Node22&#45;&gt;Node23 -->
<g id="edge24_Node000022_Node000023" class="edge">
<title>Node22&#45;&gt;Node23</title>
<g id="a_edge24_Node000022_Node000023"><a xlink:title=" ">
<path fill="none" stroke="#63b8ff" d="M347,-164.98C334.1,-156.84 314.4,-144.41 299.1,-134.76"/>
<polygon fill="#63b8ff" stroke="#63b8ff" points="300.57,-131.55 290.24,-129.17 296.83,-137.47 300.57,-131.55"/>
</a>
</g>
</g>
<!-- Node24 -->
<g id="Node000024" class="node">
<title>Node24</title>
<g id="a_Node000024"><a xlink:title=" ">
<polygon fill="#e0e0e0" stroke="#999999" points="363.5,-129 315.5,-129 315.5,-110 363.5,-110 363.5,-129"/>
<text text-anchor="middle" x="339.5" y="-117" font-family="Helvetica,sans-Serif" font-size="10.00">iosfwd</text>
</a>
</g>
</g>
<!-- Node22&#45;&gt;Node24 -->
<g id="edge25_Node000022_Node000024" class="edge">
<title>Node22&#45;&gt;Node24</title>
<g id="a_edge25_Node000022_Node000024"><a xlink:title=" ">
<path fill="none" stroke="#63b8ff" d="M357.03,-164.75C354.22,-157.65 350.16,-147.4 346.65,-138.56"/>
<polygon fill="#63b8ff" stroke="#63b8ff" points="349.84,-137.1 342.9,-129.09 343.33,-139.68 349.84,-137.1"/>
</a>
</g>
</g>
<!-- Node25&#45;&gt;Node21 -->
<g id="edge31_Node000025_Node000021" class="edge">
<title>Node25&#45;&gt;Node21</title>
<g id="a_edge31_Node000025_Node000021"><a xlink:title=" ">
<path fill="none" stroke="#63b8ff" d="M931.5,-164.75C931.5,-157.8 931.5,-147.85 931.5,-139.13"/>
<polygon fill="#63b8ff" stroke="#63b8ff" points="935,-139.09 931.5,-129.09 928,-139.09 935,-139.09"/>
</a>
</g>
</g>
<!-- Node26 -->
<g id="Node000026" class="node">
<title>Node26</title>
<g id="a_Node000026"><a xlink:title=" ">
<polygon fill="#e0e0e0" stroke="#999999" points="1052.5,-129 994.5,-129 994.5,-110 1052.5,-110 1052.5,-129"/>
<text text-anchor="middle" x="1023.5" y="-117" font-family="Helvetica,sans-Serif" font-size="10.00">memory</text>
</a>
</g>
</g>
<!-- Node25&#45;&gt;Node26 -->
<g id="edge29_Node000025_Node000026" class="edge">
<title>Node25&#45;&gt;Node26</title>
<g id="a_edge29_Node000025_Node000026"><a xlink:title=" ">
<path fill="none" stroke="#63b8ff" d="M946.28,-164.98C960.68,-156.69 982.81,-143.94 999.69,-134.22"/>
<polygon fill="#63b8ff" stroke="#63b8ff" points="1001.53,-137.19 1008.45,-129.17 998.04,-131.13 1001.53,-137.19"/>
</a>
</g>
</g>
<!-- Node27 -->
<g id="Node000027" class="node">
<title>Node27</title>
<g id="a_Node000027"><a xlink:title=" ">
<polygon fill="#e0e0e0" stroke="#999999" points="1204,-129 1071,-129 1071,-110 1204,-110 1204,-129"/>
<text text-anchor="middle" x="1137.5" y="-117" font-family="Helvetica,sans-Serif" font-size="10.00">opencv2/core/types.hpp</text>
</a>
</g>
</g>
<!-- Node25&#45;&gt;Node27 -->
<g id="edge30_Node000025_Node000027" class="edge">
<title>Node25&#45;&gt;Node27</title>
<g id="a_edge30_Node000025_Node000027"><a xlink:title=" ">
<path fill="none" stroke="#63b8ff" d="M964.6,-164.98C999.78,-155.93 1055.57,-141.58 1094.22,-131.64"/>
<polygon fill="#63b8ff" stroke="#63b8ff" points="1095.33,-134.96 1104.14,-129.08 1093.59,-128.18 1095.33,-134.96"/>
</a>
</g>
</g>
<!-- Node29 -->
<g id="Node000029" class="node">
<title>Node29</title>
<g id="a_Node000029"><a xlink:title=" ">
<polygon fill="#e0e0e0" stroke="#999999" points="267,-305 142,-305 142,-286 267,-286 267,-305"/>
<text text-anchor="middle" x="204.5" y="-293" font-family="Helvetica,sans-Serif" font-size="10.00">opencv2/core/mat.hpp</text>
</a>
</g>
</g>
<!-- Node28&#45;&gt;Node29 -->
<g id="edge33_Node000028_Node000029" class="edge">
<title>Node28&#45;&gt;Node29</title>
<g id="a_edge33_Node000028_Node000029"><a xlink:title=" ">
<path fill="none" stroke="#63b8ff" d="M204.5,-346.37C204.5,-338.25 204.5,-325.81 204.5,-315.39"/>
<polygon fill="#63b8ff" stroke="#63b8ff" points="208,-315.17 204.5,-305.17 201,-315.17 208,-315.17"/>
</a>
</g>
</g>
<!-- Node30&#45;&gt;Node28 -->
<g id="edge37_Node000030_Node000028" class="edge">
<title>Node30&#45;&gt;Node28</title>
<g id="a_edge37_Node000030_Node000028"><a xlink:title=" ">
<path fill="none" stroke="#63b8ff" d="M346.36,-406.99C317.96,-396.99 270.62,-380.3 238.51,-368.99"/>
<polygon fill="#63b8ff" stroke="#63b8ff" points="239.26,-365.54 228.67,-365.52 236.94,-372.14 239.26,-365.54"/>
</a>
</g>
</g>
<!-- Node31 -->
<g id="Node000031" class="node">
<title>Node31</title>
<g id="a_Node000031"><a xlink:title=" ">
<polygon fill="#e0e0e0" stroke="#999999" points="496,-365.5 461,-365.5 461,-346.5 496,-346.5 496,-365.5"/>
<text text-anchor="middle" x="478.5" y="-353.5" font-family="Helvetica,sans-Serif" font-size="10.00">any</text>
</a>
</g>
</g>
<!-- Node30&#45;&gt;Node31 -->
<g id="edge35_Node000030_Node000031" class="edge">
<title>Node30&#45;&gt;Node31</title>
<g id="a_edge35_Node000030_Node000031"><a xlink:title=" ">
<path fill="none" stroke="#63b8ff" d="M386.44,-406.87C404.14,-397.28 432.96,-381.67 453.64,-370.47"/>
<polygon fill="#63b8ff" stroke="#63b8ff" points="455.37,-373.51 462.5,-365.67 452.04,-367.35 455.37,-373.51"/>
</a>
</g>
</g>
<!-- Node32 -->
<g id="Node000032" class="node">
<title>Node32</title>
<g id="a_Node000032"><a xlink:title=" ">
<polygon fill="#e0e0e0" stroke="#999999" points="442.5,-371 298.5,-371 298.5,-341 442.5,-341 442.5,-371"/>
<text text-anchor="start" x="306.5" y="-359" font-family="Helvetica,sans-Serif" font-size="10.00">onnxruntime/onnxruntime</text>
<text text-anchor="middle" x="370.5" y="-348" font-family="Helvetica,sans-Serif" font-size="10.00">_cxx_api.h</text>
</a>
</g>
</g>
<!-- Node30&#45;&gt;Node32 -->
<g id="edge36_Node000030_Node000032" class="edge">
<title>Node30&#45;&gt;Node32</title>
<g id="a_edge36_Node000030_Node000032"><a xlink:title=" ">
<path fill="none" stroke="#63b8ff" d="M370.5,-406.87C370.5,-400.11 370.5,-390.35 370.5,-381.26"/>
<polygon fill="#63b8ff" stroke="#63b8ff" points="374,-381.11 370.5,-371.11 367,-381.11 374,-381.11"/>
</a>
</g>
</g>
<!-- Node33&#45;&gt;Node4 -->
<g id="edge47_Node000033_Node000004" class="edge">
<title>Node33&#45;&gt;Node4</title>
<g id="a_edge47_Node000033_Node000004"><a xlink:title=" ">
<path fill="none" stroke="#63b8ff" d="M514.42,-342.51C511.41,-341.97 508.42,-341.46 505.5,-341 340.97,-315.16 298.1,-322.76 132.5,-305 132.16,-304.96 131.82,-304.93 131.48,-304.89"/>
<polygon fill="#63b8ff" stroke="#63b8ff" points="131.7,-301.39 121.38,-303.78 130.93,-308.35 131.7,-301.39"/>
</a>
</g>
</g>
<!-- Node34 -->
<g id="Node000034" class="node">
<title>Node34</title>
<g id="a_Node000034"><a xlink:href="../../db/d0f/kalman_8hpp.html" target="_top" xlink:title="包含轻量级 cv::Matx 的卡尔曼滤波模块">
<polygon fill="white" stroke="#666666" points="497,-305 348,-305 348,-286 497,-286 497,-305"/>
<text text-anchor="middle" x="422.5" y="-293" font-family="Helvetica,sans-Serif" font-size="10.00">rmvl/algorithm/kalman.hpp</text>
</a>
</g>
</g>
<!-- Node33&#45;&gt;Node34 -->
<g id="edge39_Node000033_Node000034" class="edge">
<title>Node33&#45;&gt;Node34</title>
<g id="a_edge39_Node000033_Node000034"><a xlink:title=" ">
<path fill="none" stroke="#63b8ff" d="M534.29,-340.99C509.76,-331.23 477.35,-318.33 453.74,-308.93"/>
<polygon fill="#63b8ff" stroke="#63b8ff" points="454.79,-305.58 444.21,-305.14 452.21,-312.09 454.79,-305.58"/>
</a>
</g>
</g>
<!-- Node36 -->
<g id="Node000036" class="node">
<title>Node36</title>
<g id="a_Node000036"><a xlink:href="../../dd/d92/combo_2armor_8h.html" target="_top" xlink:title="装甲板类头文件">
<polygon fill="white" stroke="#666666" points="630.5,-305 514.5,-305 514.5,-286 630.5,-286 630.5,-305"/>
<text text-anchor="middle" x="572.5" y="-293" font-family="Helvetica,sans-Serif" font-size="10.00">rmvl/combo/armor.h</text>
</a>
</g>
</g>
<!-- Node33&#45;&gt;Node36 -->
<g id="edge42_Node000033_Node000036" class="edge">
<title>Node33&#45;&gt;Node36</title>
<g id="a_edge42_Node000033_Node000036"><a xlink:title=" ">
<path fill="none" stroke="#63b8ff" d="M570.23,-340.84C570.62,-333.21 571.1,-323.7 571.53,-315.45"/>
<polygon fill="#63b8ff" stroke="#63b8ff" points="575.03,-315.43 572.05,-305.27 568.04,-315.07 575.03,-315.43"/>
</a>
</g>
</g>
<!-- Node34&#45;&gt;Node8 -->
<g id="edge41_Node000034_Node000008" class="edge">
<title>Node34&#45;&gt;Node8</title>
<g id="a_edge41_Node000034_Node000008"><a xlink:title=" ">
<path fill="none" stroke="#63b8ff" d="M349.85,-285.97C283.08,-274.31 186.01,-247.05 128.5,-184 117.35,-171.78 112.73,-153.26 110.83,-139.37"/>
<polygon fill="#63b8ff" stroke="#63b8ff" points="114.27,-138.63 109.78,-129.03 107.3,-139.33 114.27,-138.63"/>
</a>
</g>
</g>
<!-- Node35 -->
<g id="Node000035" class="node">
<title>Node35</title>
<g id="a_Node000035"><a xlink:title=" ">
<polygon fill="#e0e0e0" stroke="#999999" points="505,-244.5 440,-244.5 440,-225.5 505,-225.5 505,-244.5"/>
<text text-anchor="middle" x="472.5" y="-232.5" font-family="Helvetica,sans-Serif" font-size="10.00">functional</text>
</a>
</g>
</g>
<!-- Node34&#45;&gt;Node35 -->
<g id="edge40_Node000034_Node000035" class="edge">
<title>Node34&#45;&gt;Node35</title>
<g id="a_edge40_Node000034_Node000035"><a xlink:title=" ">
<path fill="none" stroke="#63b8ff" d="M429.88,-285.87C437.41,-277.05 449.29,-263.16 458.59,-252.27"/>
<polygon fill="#63b8ff" stroke="#63b8ff" points="461.26,-254.54 465.09,-244.67 455.93,-250 461.26,-254.54"/>
</a>
</g>
</g>
<!-- Node36&#45;&gt;Node6 -->
<g id="edge44_Node000036_Node000006" class="edge">
<title>Node36&#45;&gt;Node6</title>
<g id="a_edge44_Node000036_Node000006"><a xlink:title=" ">
<path fill="none" stroke="#63b8ff" d="M541.82,-285.99C504.94,-275.77 442.93,-258.58 402.11,-247.26"/>
<polygon fill="#63b8ff" stroke="#63b8ff" points="402.79,-243.82 392.22,-244.52 400.92,-250.56 402.79,-243.82"/>
</a>
</g>
</g>
<!-- Node37 -->
<g id="Node000037" class="node">
<title>Node37</title>
<g id="a_Node000037"><a xlink:title=" ">
<polygon fill="#e0e0e0" stroke="#999999" points="620,-244.5 525,-244.5 525,-225.5 620,-225.5 620,-244.5"/>
<text text-anchor="middle" x="572.5" y="-232.5" font-family="Helvetica,sans-Serif" font-size="10.00">opencv2/ml.hpp</text>
</a>
</g>
</g>
<!-- Node36&#45;&gt;Node37 -->
<g id="edge43_Node000036_Node000037" class="edge">
<title>Node36&#45;&gt;Node37</title>
<g id="a_edge43_Node000036_Node000037"><a xlink:title=" ">
<path fill="none" stroke="#63b8ff" d="M572.5,-285.87C572.5,-277.75 572.5,-265.31 572.5,-254.89"/>
<polygon fill="#63b8ff" stroke="#63b8ff" points="576,-254.67 572.5,-244.67 569,-254.67 576,-254.67"/>
</a>
</g>
</g>
<!-- Node38 -->
<g id="Node000038" class="node">
<title>Node38</title>
<g id="a_Node000038"><a xlink:href="../../d4/d54/feature_2light__blob_8h.html" target="_top" xlink:title="灯条类头文件">
<polygon fill="white" stroke="#666666" points="861.5,-250 759.5,-250 759.5,-220 861.5,-220 861.5,-250"/>
<text text-anchor="start" x="767.5" y="-238" font-family="Helvetica,sans-Serif" font-size="10.00">rmvl/feature/light</text>
<text text-anchor="middle" x="810.5" y="-227" font-family="Helvetica,sans-Serif" font-size="10.00">_blob.h</text>
</a>
</g>
</g>
<!-- Node36&#45;&gt;Node38 -->
<g id="edge45_Node000036_Node000038" class="edge">
<title>Node36&#45;&gt;Node38</title>
<g id="a_edge45_Node000036_Node000038"><a xlink:title=" ">
<path fill="none" stroke="#63b8ff" d="M607.11,-285.99C644.26,-276.86 704.03,-262.17 749.19,-251.07"/>
<polygon fill="#63b8ff" stroke="#63b8ff" points="750.29,-254.4 759.17,-248.62 748.62,-247.61 750.29,-254.4"/>
</a>
</g>
</g>
<!-- Node38&#45;&gt;Node25 -->
<g id="edge46_Node000038_Node000025" class="edge">
<title>Node38&#45;&gt;Node25</title>
<g id="a_edge46_Node000038_Node000025"><a xlink:title=" ">
<path fill="none" stroke="#63b8ff" d="M839.48,-219.99C859.22,-210.45 885.17,-197.9 904.47,-188.57"/>
<polygon fill="#63b8ff" stroke="#63b8ff" points="906.15,-191.64 913.63,-184.14 903.1,-185.34 906.15,-191.64"/>
</a>
</g>
</g>
</g>
</svg>
