<?xml version="1.0" encoding="UTF-8" standalone="no"?>
<!DOCTYPE svg PUBLIC "-//W3C//DTD SVG 1.1//EN"
 "http://www.w3.org/Graphics/SVG/1.1/DTD/svg11.dtd">
<!-- Generated by graphviz version 2.43.0 (0)
 -->
<!-- Title: rmvl/compensator Pages: 1 -->
<svg width="120pt" height="151pt"
 viewBox="0.00 0.00 120.00 151.00" xmlns="http://www.w3.org/2000/svg" xmlns:xlink="http://www.w3.org/1999/xlink">
<g id="graph0" class="graph" transform="scale(1 1) rotate(0) translate(4 147)">
<title>rmvl/compensator</title>
<polygon fill="white" stroke="transparent" points="-4,4 -4,-147 116,-147 116,4 -4,4"/>
<g id="clust1" class="cluster">
<title>clusterdir_3cd5b91f19adc4085f4b4e39e4ff2f73</title>
<g id="a_clust1"><a xlink:href="dir_3cd5b91f19adc4085f4b4e39e4ff2f73.html" target="_top" xlink:title="rmvl">
<polygon fill="#ddddee" stroke="black" points="8,-64 8,-135 104,-135 104,-64 8,-64"/>
<text text-anchor="middle" x="56" y="-123" font-family="Helvetica,sans-Serif" font-size="10.00">rmvl</text>
</a>
</g>
</g>
<!-- dir_fc26b6c2ce0d675ae37f0ead7fead92a -->
<g id="node1" class="node">
<title>dir_fc26b6c2ce0d675ae37f0ead7fead92a</title>
<g id="a_node1"><a xlink:href="dir_fc26b6c2ce0d675ae37f0ead7fead92a.html" target="_top" xlink:title="compensator">
<polygon fill="#eeeeff" stroke="black" points="96,-108 16,-108 16,-72 96,-72 96,-108"/>
<text text-anchor="middle" x="56" y="-87.5" font-family="Helvetica,sans-Serif" font-size="10.00">compensator</text>
</a>
</g>
</g>
<!-- dir_3369679d0342e0144be24fe8bcb77137 -->
<g id="node2" class="node">
<title>dir_3369679d0342e0144be24fe8bcb77137</title>
<g id="a_node2"><a xlink:href="dir_3369679d0342e0144be24fe8bcb77137.html" target="_top" xlink:title="rmvl">
<polygon fill="white" stroke="red" points="83,-36 29,-36 29,0 83,0 83,-36"/>
<text text-anchor="middle" x="56" y="-15.5" font-family="Helvetica,sans-Serif" font-size="10.00">rmvl</text>
</a>
</g>
</g>
<!-- dir_fc26b6c2ce0d675ae37f0ead7fead92a&#45;&gt;dir_3369679d0342e0144be24fe8bcb77137 -->
<g id="edge1" class="edge">
<title>dir_fc26b6c2ce0d675ae37f0ead7fead92a&#45;&gt;dir_3369679d0342e0144be24fe8bcb77137</title>
<path fill="none" stroke="black" d="M56,-71.7C56,-63.98 56,-54.71 56,-46.11"/>
<polygon fill="black" stroke="black" points="59.5,-46.1 56,-36.1 52.5,-46.1 59.5,-46.1"/>
<g id="a_edge1&#45;headlabel"><a xlink:href="dir_000028_000042.html" target="_top" xlink:title="1">
<text text-anchor="middle" x="62.34" y="-47.2" font-family="Helvetica,sans-Serif" font-size="10.00">1</text>
</a>
</g>
</g>
</g>
</svg>
