<?xml version="1.0" encoding="UTF-8" standalone="no"?>
<!DOCTYPE svg PUBLIC "-//W3C//DTD SVG 1.1//EN"
 "http://www.w3.org/Graphics/SVG/1.1/DTD/svg11.dtd">
<!-- Generated by graphviz version 2.43.0 (0)
 -->
<!-- Title: rm::para::MvCameraParam Pages: 1 -->
<svg width="317pt" height="488pt"
 viewBox="0.00 0.00 316.92 488.00" xmlns="http://www.w3.org/2000/svg" xmlns:xlink="http://www.w3.org/1999/xlink">
<g id="graph0" class="graph" transform="scale(1 1) rotate(0) translate(4 484)">
<title>rm::para::MvCameraParam</title>
<!-- Node1 -->
<g id="Node000001" class="node">
<title>Node1</title>
<g id="a_Node000001"><a xlink:title="MvCameraParam 参数模块">
<polygon fill="#999999" stroke="transparent" points="225.92,-109 83.92,-109 83.92,0 225.92,0 225.92,-109"/>
<text text-anchor="start" x="88.92" y="-96.5" font-family="Helvetica,sans-Serif" font-size="10.00">rm::para::MvCameraParam</text>
<text text-anchor="start" x="94.92" y="-81.5" font-family="Helvetica,sans-Serif" font-size="10.00">+</text>
<text text-anchor="start" x="114.92" y="-81.5" font-family="Helvetica,sans-Serif" font-size="10.00">saturation</text>
<text text-anchor="start" x="94.92" y="-66.5" font-family="Helvetica,sans-Serif" font-size="10.00">+</text>
<text text-anchor="start" x="114.92" y="-66.5" font-family="Helvetica,sans-Serif" font-size="10.00">sharpness</text>
<text text-anchor="start" x="94.92" y="-51.5" font-family="Helvetica,sans-Serif" font-size="10.00">+</text>
<text text-anchor="start" x="114.92" y="-51.5" font-family="Helvetica,sans-Serif" font-size="10.00">retrieve_mode</text>
<text text-anchor="start" x="94.92" y="-36.5" font-family="Helvetica,sans-Serif" font-size="10.00">+</text>
<text text-anchor="start" x="114.92" y="-36.5" font-family="Helvetica,sans-Serif" font-size="10.00">MvCameraParam()</text>
<text text-anchor="start" x="94.92" y="-21.5" font-family="Helvetica,sans-Serif" font-size="10.00">+</text>
<text text-anchor="start" x="114.92" y="-21.5" font-family="Helvetica,sans-Serif" font-size="10.00">read()</text>
<text text-anchor="start" x="94.92" y="-6.5" font-family="Helvetica,sans-Serif" font-size="10.00">+</text>
<text text-anchor="start" x="114.92" y="-6.5" font-family="Helvetica,sans-Serif" font-size="10.00">write()</text>
<polygon fill="#666666" stroke="#666666" points="83.92,-91.5 83.92,-91.5 225.92,-91.5 225.92,-91.5 83.92,-91.5"/>
<polygon fill="#666666" stroke="#666666" points="83.92,-46.5 83.92,-46.5 112.92,-46.5 112.92,-46.5 83.92,-46.5"/>
<polygon fill="#666666" stroke="#666666" points="112.92,-46.5 112.92,-46.5 225.92,-46.5 225.92,-46.5 112.92,-46.5"/>
<polygon fill="none" stroke="#666666" points="83.92,0 83.92,-109 225.92,-109 225.92,0 83.92,0"/>
</a>
</g>
</g>
<!-- Node2 -->
<g id="Node000002" class="node">
<title>Node2</title>
<g id="a_Node000002"><a xlink:title=" ">
<polygon fill="white" stroke="transparent" points="53.42,-378.5 30.42,-378.5 30.42,-329.5 53.42,-329.5 53.42,-378.5"/>
<text text-anchor="start" x="35.92" y="-366" font-family="Helvetica,sans-Serif" font-size="10.00">int</text>
<text text-anchor="start" x="40.42" y="-351" font-family="Helvetica,sans-Serif" font-size="10.00"> </text>
<text text-anchor="start" x="40.42" y="-336" font-family="Helvetica,sans-Serif" font-size="10.00"> </text>
<polygon fill="#666666" stroke="#666666" points="30.92,-361 30.92,-361 53.92,-361 53.92,-361 30.92,-361"/>
<polygon fill="#666666" stroke="#666666" points="30.92,-346 30.92,-346 53.92,-346 53.92,-346 30.92,-346"/>
<polygon fill="none" stroke="#666666" points="30.42,-329.5 30.42,-378.5 53.42,-378.5 53.42,-329.5 30.42,-329.5"/>
</a>
</g>
</g>
<!-- Node2&#45;&gt;Node1 -->
<g id="edge1_Node000001_Node000002" class="edge">
<title>Node2&#45;&gt;Node1</title>
<g id="a_edge1_Node000001_Node000002"><a xlink:title=" ">
<path fill="none" stroke="#63b8ff" d="M30.41,-330.6C12.54,-292.49 -16.86,-213.57 12.92,-156 26.22,-130.3 49.45,-109.76 73.33,-94.11"/>
<polygon fill="none" stroke="#63b8ff" points="73.39,-94.07 76.36,-87.5 83.57,-87.71 80.6,-94.28 73.39,-94.07"/>
</a>
</g>
<text text-anchor="middle" x="54.92" y="-269" font-family="Helvetica,sans-Serif" font-size="10.00" fill="grey"> +auto_exposure</text>
<text text-anchor="middle" x="54.92" y="-258" font-family="Helvetica,sans-Serif" font-size="10.00" fill="grey">+auto_wb</text>
<text text-anchor="middle" x="54.92" y="-247" font-family="Helvetica,sans-Serif" font-size="10.00" fill="grey">+b_gain</text>
<text text-anchor="middle" x="54.92" y="-236" font-family="Helvetica,sans-Serif" font-size="10.00" fill="grey">+contrast</text>
<text text-anchor="middle" x="54.92" y="-225" font-family="Helvetica,sans-Serif" font-size="10.00" fill="grey">+exposure</text>
<text text-anchor="middle" x="54.92" y="-214" font-family="Helvetica,sans-Serif" font-size="10.00" fill="grey">+g_gain</text>
<text text-anchor="middle" x="54.92" y="-203" font-family="Helvetica,sans-Serif" font-size="10.00" fill="grey">+gain</text>
<text text-anchor="middle" x="54.92" y="-192" font-family="Helvetica,sans-Serif" font-size="10.00" fill="grey">+gamma</text>
<text text-anchor="middle" x="54.92" y="-181" font-family="Helvetica,sans-Serif" font-size="10.00" fill="grey">+grab_mode</text>
<text text-anchor="middle" x="54.92" y="-170" font-family="Helvetica,sans-Serif" font-size="10.00" fill="grey">+r_gain</text>
<text text-anchor="middle" x="54.92" y="-159" font-family="Helvetica,sans-Serif" font-size="10.00" fill="grey">...</text>
</g>
<!-- Node3 -->
<g id="Node000003" class="node">
<title>Node3</title>
<g id="a_Node000003"><a xlink:title=" ">
<polygon fill="white" stroke="transparent" points="203.92,-241 105.92,-241 105.92,-192 203.92,-192 203.92,-241"/>
<text text-anchor="start" x="110.92" y="-228.5" font-family="Helvetica,sans-Serif" font-size="10.00">std::vector&lt; int &gt;</text>
<text text-anchor="start" x="152.92" y="-213.5" font-family="Helvetica,sans-Serif" font-size="10.00"> </text>
<text text-anchor="start" x="152.92" y="-198.5" font-family="Helvetica,sans-Serif" font-size="10.00"> </text>
<polygon fill="#666666" stroke="#666666" points="105.92,-223.5 105.92,-223.5 203.92,-223.5 203.92,-223.5 105.92,-223.5"/>
<polygon fill="#666666" stroke="#666666" points="105.92,-208.5 105.92,-208.5 203.92,-208.5 203.92,-208.5 105.92,-208.5"/>
<polygon fill="none" stroke="#666666" points="105.92,-192 105.92,-241 203.92,-241 203.92,-192 105.92,-192"/>
</a>
</g>
</g>
<!-- Node2&#45;&gt;Node3 -->
<g id="edge3_Node000003_Node000002" class="edge">
<title>Node2&#45;&gt;Node3</title>
<g id="a_edge3_Node000003_Node000002"><a xlink:title=" ">
<path fill="none" stroke="#63b8ff" d="M53.47,-338.08C62.68,-326.28 75.95,-309.45 87.92,-295 100.27,-280.09 114.24,-263.84 126.21,-250.09"/>
<polygon fill="none" stroke="#63b8ff" points="126.24,-250.06 127.17,-242.91 134.13,-241.02 133.2,-248.17 126.24,-250.06"/>
</a>
</g>
<text text-anchor="middle" x="116.92" y="-298" font-family="Helvetica,sans-Serif" font-size="10.00" fill="grey"> +elements</text>
</g>
<!-- Node3&#45;&gt;Node1 -->
<g id="edge2_Node000001_Node000003" class="edge">
<title>Node3&#45;&gt;Node1</title>
<g id="a_edge2_Node000001_Node000003"><a xlink:title=" ">
<path fill="none" stroke="#63b8ff" d="M154.92,-191.89C154.92,-173.22 154.92,-146.2 154.92,-121.13"/>
<polygon fill="none" stroke="#63b8ff" points="154.92,-121.02 150.92,-115.02 154.92,-109.02 158.92,-115.02 154.92,-121.02"/>
</a>
</g>
<text text-anchor="middle" x="178.42" y="-130" font-family="Helvetica,sans-Serif" font-size="10.00" fill="grey"> +lut_vec</text>
</g>
<!-- Node4 -->
<g id="Node000004" class="node">
<title>Node4</title>
<g id="a_Node000004"><a xlink:title=" ">
<polygon fill="white" stroke="transparent" points="192.42,-378.5 101.42,-378.5 101.42,-329.5 192.42,-329.5 192.42,-378.5"/>
<text text-anchor="start" x="106.92" y="-366" font-family="Helvetica,sans-Serif" font-size="10.00">std::vector&lt; T &gt;</text>
<text text-anchor="start" x="145.42" y="-351" font-family="Helvetica,sans-Serif" font-size="10.00"> </text>
<text text-anchor="start" x="145.42" y="-336" font-family="Helvetica,sans-Serif" font-size="10.00"> </text>
<polygon fill="#666666" stroke="#666666" points="101.92,-361 101.92,-361 192.92,-361 192.92,-361 101.92,-361"/>
<polygon fill="#666666" stroke="#666666" points="101.92,-346 101.92,-346 192.92,-346 192.92,-346 101.92,-346"/>
<polygon fill="none" stroke="#666666" points="101.42,-329.5 101.42,-378.5 192.42,-378.5 192.42,-329.5 101.42,-329.5"/>
</a>
</g>
</g>
<!-- Node4&#45;&gt;Node3 -->
<g id="edge4_Node000003_Node000004" class="edge">
<title>Node4&#45;&gt;Node3</title>
<g id="a_edge4_Node000003_Node000004"><a xlink:title=" ">
<path fill="none" stroke="orange" d="M148.92,-319.21C150.35,-294.96 152.24,-262.88 153.52,-241.29"/>
<polygon fill="orange" stroke="orange" points="145.41,-319.21 148.32,-329.4 152.4,-319.62 145.41,-319.21"/>
</a>
</g>
<text text-anchor="middle" x="170.42" y="-298" font-family="Helvetica,sans-Serif" font-size="10.00" fill="grey"> &lt; int &gt;</text>
</g>
<!-- Node5 -->
<g id="Node000005" class="node">
<title>Node5</title>
<g id="a_Node000005"><a xlink:title=" ">
<polygon fill="white" stroke="transparent" points="155.42,-480 138.42,-480 138.42,-431 155.42,-431 155.42,-480"/>
<text text-anchor="start" x="143.92" y="-467.5" font-family="Helvetica,sans-Serif" font-size="10.00">T</text>
<text text-anchor="start" x="145.42" y="-452.5" font-family="Helvetica,sans-Serif" font-size="10.00"> </text>
<text text-anchor="start" x="145.42" y="-437.5" font-family="Helvetica,sans-Serif" font-size="10.00"> </text>
<polygon fill="#666666" stroke="#666666" points="138.92,-462.5 138.92,-462.5 155.92,-462.5 155.92,-462.5 138.92,-462.5"/>
<polygon fill="#666666" stroke="#666666" points="138.92,-447.5 138.92,-447.5 155.92,-447.5 155.92,-447.5 138.92,-447.5"/>
<polygon fill="none" stroke="#666666" points="138.42,-431 138.42,-480 155.42,-480 155.42,-431 138.42,-431"/>
</a>
</g>
</g>
<!-- Node5&#45;&gt;Node4 -->
<g id="edge5_Node000004_Node000005" class="edge">
<title>Node5&#45;&gt;Node4</title>
<g id="a_edge5_Node000004_Node000005"><a xlink:title=" ">
<path fill="none" stroke="#63b8ff" d="M146.92,-430.92C146.92,-418.99 146.92,-404.25 146.92,-390.94"/>
<polygon fill="none" stroke="#63b8ff" points="146.92,-390.76 142.92,-384.76 146.92,-378.76 150.92,-384.76 146.92,-390.76"/>
</a>
</g>
<text text-anchor="middle" x="175.92" y="-405" font-family="Helvetica,sans-Serif" font-size="10.00" fill="grey"> +elements</text>
</g>
<!-- Node6 -->
<g id="Node000006" class="node">
<title>Node6</title>
<g id="a_Node000006"><a xlink:title=" ">
<polygon fill="white" stroke="transparent" points="286.42,-241 227.42,-241 227.42,-192 286.42,-192 286.42,-241"/>
<text text-anchor="start" x="232.92" y="-228.5" font-family="Helvetica,sans-Serif" font-size="10.00">std::string</text>
<text text-anchor="start" x="255.42" y="-213.5" font-family="Helvetica,sans-Serif" font-size="10.00"> </text>
<text text-anchor="start" x="255.42" y="-198.5" font-family="Helvetica,sans-Serif" font-size="10.00"> </text>
<polygon fill="#666666" stroke="#666666" points="227.92,-223.5 227.92,-223.5 286.92,-223.5 286.92,-223.5 227.92,-223.5"/>
<polygon fill="#666666" stroke="#666666" points="227.92,-208.5 227.92,-208.5 286.92,-208.5 286.92,-208.5 227.92,-208.5"/>
<polygon fill="none" stroke="#666666" points="227.42,-192 227.42,-241 286.42,-241 286.42,-192 227.42,-192"/>
</a>
</g>
</g>
<!-- Node6&#45;&gt;Node1 -->
<g id="edge6_Node000001_Node000006" class="edge">
<title>Node6&#45;&gt;Node1</title>
<g id="a_edge6_Node000001_Node000006"><a xlink:title=" ">
<path fill="none" stroke="#63b8ff" d="M244.11,-191.84C234.14,-173.8 219.73,-148.48 205.92,-127 204.3,-124.47 202.62,-121.91 200.92,-119.34"/>
<polygon fill="none" stroke="#63b8ff" points="200.91,-119.33 194.23,-116.6 194.19,-109.39 200.86,-112.12 200.91,-119.33"/>
</a>
</g>
<text text-anchor="middle" x="252.92" y="-130" font-family="Helvetica,sans-Serif" font-size="10.00" fill="grey"> +serial_number</text>
</g>
<!-- Node7 -->
<g id="Node000007" class="node">
<title>Node7</title>
<g id="a_Node000007"><a xlink:title=" ">
<polygon fill="white" stroke="transparent" points="308.92,-384 210.92,-384 210.92,-324 308.92,-324 308.92,-384"/>
<text text-anchor="start" x="215.92" y="-372" font-family="Helvetica,sans-Serif" font-size="10.00">std::basic_string&lt;</text>
<text text-anchor="start" x="241.42" y="-361" font-family="Helvetica,sans-Serif" font-size="10.00"> Char &gt;</text>
<text text-anchor="start" x="257.92" y="-346" font-family="Helvetica,sans-Serif" font-size="10.00"> </text>
<text text-anchor="start" x="257.92" y="-331" font-family="Helvetica,sans-Serif" font-size="10.00"> </text>
<polygon fill="#666666" stroke="#666666" points="210.92,-356 210.92,-356 308.92,-356 308.92,-356 210.92,-356"/>
<polygon fill="#666666" stroke="#666666" points="210.92,-341 210.92,-341 308.92,-341 308.92,-341 210.92,-341"/>
<polygon fill="none" stroke="#666666" points="210.92,-324 210.92,-384 308.92,-384 308.92,-324 210.92,-324"/>
</a>
</g>
</g>
<!-- Node7&#45;&gt;Node6 -->
<g id="edge7_Node000006_Node000007" class="edge">
<title>Node7&#45;&gt;Node6</title>
<g id="a_edge7_Node000006_Node000007"><a xlink:title=" ">
<path fill="none" stroke="#63b8ff" d="M259.06,-313.9C258.54,-290.36 257.89,-261.17 257.45,-241.11"/>
<polygon fill="none" stroke="#63b8ff" points="255.56,-314.01 259.28,-323.93 262.56,-313.86 255.56,-314.01"/>
</a>
</g>
</g>
</g>
</svg>
