<?xml version="1.0" encoding="UTF-8" standalone="no"?>
<!DOCTYPE svg PUBLIC "-//W3C//DTD SVG 1.1//EN"
 "http://www.w3.org/Graphics/SVG/1.1/DTD/svg11.dtd">
<!-- Generated by graphviz version 2.43.0 (0)
 -->
<!-- Title: rm::para::MvCameraParam Pages: 1 -->
<svg width="367pt" height="488pt"
 viewBox="0.00 0.00 367.00 488.00" xmlns="http://www.w3.org/2000/svg" xmlns:xlink="http://www.w3.org/1999/xlink">
<g id="graph0" class="graph" transform="scale(1 1) rotate(0) translate(4 484)">
<title>rm::para::MvCameraParam</title>
<!-- Node1 -->
<g id="Node000001" class="node">
<title>Node1</title>
<g id="a_Node000001"><a xlink:title="MvCameraParam 参数模块">
<polygon fill="#999999" stroke="transparent" points="189,-109 60,-109 60,0 189,0 189,-109"/>
<text text-anchor="start" x="65.5" y="-96.5" font-family="Helvetica,sans-Serif" font-size="10.00">rm::para::MvCameraParam</text>
<text text-anchor="start" x="71" y="-81.5" font-family="Helvetica,sans-Serif" font-size="10.00">+</text>
<text text-anchor="start" x="88.5" y="-81.5" font-family="Helvetica,sans-Serif" font-size="10.00">saturation</text>
<text text-anchor="start" x="71" y="-66.5" font-family="Helvetica,sans-Serif" font-size="10.00">+</text>
<text text-anchor="start" x="88.5" y="-66.5" font-family="Helvetica,sans-Serif" font-size="10.00">sharpness</text>
<text text-anchor="start" x="71" y="-51.5" font-family="Helvetica,sans-Serif" font-size="10.00">+</text>
<text text-anchor="start" x="88.5" y="-51.5" font-family="Helvetica,sans-Serif" font-size="10.00">MvCameraParam()</text>
<text text-anchor="start" x="71" y="-36.5" font-family="Helvetica,sans-Serif" font-size="10.00">+</text>
<text text-anchor="start" x="88.5" y="-36.5" font-family="Helvetica,sans-Serif" font-size="10.00">read()</text>
<text text-anchor="start" x="71" y="-21.5" font-family="Helvetica,sans-Serif" font-size="10.00">+</text>
<text text-anchor="start" x="88.5" y="-21.5" font-family="Helvetica,sans-Serif" font-size="10.00">write()</text>
<text text-anchor="start" x="71" y="-6.5" font-family="Helvetica,sans-Serif" font-size="10.00">+</text>
<text text-anchor="start" x="88.5" y="-6.5" font-family="Helvetica,sans-Serif" font-size="10.00">load()</text>
<polygon fill="#666666" stroke="#666666" points="60.5,-91.5 60.5,-91.5 189.5,-91.5 189.5,-91.5 60.5,-91.5"/>
<polygon fill="#666666" stroke="#666666" points="60.5,-61.5 60.5,-61.5 86.5,-61.5 86.5,-61.5 60.5,-61.5"/>
<polygon fill="#666666" stroke="#666666" points="86.5,-61.5 86.5,-61.5 189.5,-61.5 189.5,-61.5 86.5,-61.5"/>
<polygon fill="none" stroke="#666666" points="60,0 60,-109 189,-109 189,0 60,0"/>
</a>
</g>
</g>
<!-- Node2 -->
<g id="Node000002" class="node">
<title>Node2</title>
<g id="a_Node000002"><a xlink:title=" ">
<polygon fill="white" stroke="transparent" points="39,-241 0,-241 0,-192 39,-192 39,-241"/>
<text text-anchor="start" x="5.5" y="-228.5" font-family="Helvetica,sans-Serif" font-size="10.00">double</text>
<text text-anchor="start" x="18" y="-213.5" font-family="Helvetica,sans-Serif" font-size="10.00"> </text>
<text text-anchor="start" x="18" y="-198.5" font-family="Helvetica,sans-Serif" font-size="10.00"> </text>
<polygon fill="#666666" stroke="#666666" points="0.5,-223.5 0.5,-223.5 39.5,-223.5 39.5,-223.5 0.5,-223.5"/>
<polygon fill="#666666" stroke="#666666" points="0.5,-208.5 0.5,-208.5 39.5,-208.5 39.5,-208.5 0.5,-208.5"/>
<polygon fill="none" stroke="#666666" points="0,-192 0,-241 39,-241 39,-192 0,-192"/>
</a>
</g>
</g>
<!-- Node2&#45;&gt;Node1 -->
<g id="edge1_Node000001_Node000002" class="edge">
<title>Node2&#45;&gt;Node1</title>
<g id="a_edge1_Node000001_Node000002"><a xlink:title=" ">
<path fill="none" stroke="#63b8ff" d="M14.11,-191.87C11.12,-173.15 9.87,-146.93 20.5,-127 27.54,-113.8 38.21,-102.56 50.09,-93.17"/>
<polygon fill="none" stroke="#63b8ff" points="50.15,-93.13 52.62,-86.35 59.83,-86.03 57.35,-92.81 50.15,-93.13"/>
</a>
</g>
<text text-anchor="middle" x="45" y="-130" font-family="Helvetica,sans-Serif" font-size="10.00" fill="grey"> +exposure</text>
</g>
<!-- Node3 -->
<g id="Node000003" class="node">
<title>Node3</title>
<g id="a_Node000003"><a xlink:title=" ">
<polygon fill="white" stroke="transparent" points="125,-378.5 104,-378.5 104,-329.5 125,-329.5 125,-378.5"/>
<text text-anchor="start" x="109.5" y="-366" font-family="Helvetica,sans-Serif" font-size="10.00">int</text>
<text text-anchor="start" x="113" y="-351" font-family="Helvetica,sans-Serif" font-size="10.00"> </text>
<text text-anchor="start" x="113" y="-336" font-family="Helvetica,sans-Serif" font-size="10.00"> </text>
<polygon fill="#666666" stroke="#666666" points="104.5,-361 104.5,-361 125.5,-361 125.5,-361 104.5,-361"/>
<polygon fill="#666666" stroke="#666666" points="104.5,-346 104.5,-346 125.5,-346 125.5,-346 104.5,-346"/>
<polygon fill="none" stroke="#666666" points="104,-329.5 104,-378.5 125,-378.5 125,-329.5 104,-329.5"/>
</a>
</g>
</g>
<!-- Node3&#45;&gt;Node1 -->
<g id="edge2_Node000001_Node000003" class="edge">
<title>Node3&#45;&gt;Node1</title>
<g id="a_edge2_Node000001_Node000003"><a xlink:title=" ">
<path fill="none" stroke="#63b8ff" d="M105.81,-329.42C100.82,-314.6 95.05,-294.95 92.5,-277 84.95,-223.76 84.24,-209.14 92.5,-156 94.29,-144.45 97.18,-132.41 100.51,-120.85"/>
<polygon fill="none" stroke="#63b8ff" points="100.62,-120.49 98.53,-113.59 104.11,-109.01 106.19,-115.91 100.62,-120.49"/>
</a>
</g>
<text text-anchor="middle" x="129" y="-269" font-family="Helvetica,sans-Serif" font-size="10.00" fill="grey"> +auto_exposure</text>
<text text-anchor="middle" x="129" y="-258" font-family="Helvetica,sans-Serif" font-size="10.00" fill="grey">+auto_wb</text>
<text text-anchor="middle" x="129" y="-247" font-family="Helvetica,sans-Serif" font-size="10.00" fill="grey">+b_gain</text>
<text text-anchor="middle" x="129" y="-236" font-family="Helvetica,sans-Serif" font-size="10.00" fill="grey">+contrast</text>
<text text-anchor="middle" x="129" y="-225" font-family="Helvetica,sans-Serif" font-size="10.00" fill="grey">+g_gain</text>
<text text-anchor="middle" x="129" y="-214" font-family="Helvetica,sans-Serif" font-size="10.00" fill="grey">+gain</text>
<text text-anchor="middle" x="129" y="-203" font-family="Helvetica,sans-Serif" font-size="10.00" fill="grey">+gamma</text>
<text text-anchor="middle" x="129" y="-192" font-family="Helvetica,sans-Serif" font-size="10.00" fill="grey">+grab_mode</text>
<text text-anchor="middle" x="129" y="-181" font-family="Helvetica,sans-Serif" font-size="10.00" fill="grey">+r_gain</text>
<text text-anchor="middle" x="129" y="-170" font-family="Helvetica,sans-Serif" font-size="10.00" fill="grey">+retrieve_mode</text>
<text text-anchor="middle" x="129" y="-159" font-family="Helvetica,sans-Serif" font-size="10.00" fill="grey">...</text>
</g>
<!-- Node4 -->
<g id="Node000004" class="node">
<title>Node4</title>
<g id="a_Node000004"><a xlink:title=" ">
<polygon fill="white" stroke="transparent" points="260.5,-241 174.5,-241 174.5,-192 260.5,-192 260.5,-241"/>
<text text-anchor="start" x="179.5" y="-228.5" font-family="Helvetica,sans-Serif" font-size="10.00">std::vector&lt; int &gt;</text>
<text text-anchor="start" x="215.5" y="-213.5" font-family="Helvetica,sans-Serif" font-size="10.00"> </text>
<text text-anchor="start" x="215.5" y="-198.5" font-family="Helvetica,sans-Serif" font-size="10.00"> </text>
<polygon fill="#666666" stroke="#666666" points="174.5,-223.5 174.5,-223.5 260.5,-223.5 260.5,-223.5 174.5,-223.5"/>
<polygon fill="#666666" stroke="#666666" points="174.5,-208.5 174.5,-208.5 260.5,-208.5 260.5,-208.5 174.5,-208.5"/>
<polygon fill="none" stroke="#666666" points="174.5,-192 174.5,-241 260.5,-241 260.5,-192 174.5,-192"/>
</a>
</g>
</g>
<!-- Node3&#45;&gt;Node4 -->
<g id="edge4_Node000004_Node000003" class="edge">
<title>Node3&#45;&gt;Node4</title>
<g id="a_edge4_Node000004_Node000003"><a xlink:title=" ">
<path fill="none" stroke="#63b8ff" d="M125.13,-339.01C140.79,-318.41 170.51,-279.32 192.02,-251.02"/>
<polygon fill="none" stroke="#63b8ff" points="192.27,-250.7 192.71,-243.5 199.53,-241.14 199.08,-248.34 192.27,-250.7"/>
</a>
</g>
<text text-anchor="middle" x="182" y="-298" font-family="Helvetica,sans-Serif" font-size="10.00" fill="grey"> +elements</text>
</g>
<!-- Node4&#45;&gt;Node1 -->
<g id="edge3_Node000001_Node000004" class="edge">
<title>Node4&#45;&gt;Node1</title>
<g id="a_edge3_Node000001_Node000004"><a xlink:title=" ">
<path fill="none" stroke="#63b8ff" d="M203.78,-191.89C192.68,-172.79 176.5,-144.97 161.65,-119.42"/>
<polygon fill="none" stroke="#63b8ff" points="161.64,-119.4 155.17,-116.22 155.61,-109.02 162.08,-112.2 161.64,-119.4"/>
</a>
</g>
<text text-anchor="middle" x="192" y="-130" font-family="Helvetica,sans-Serif" font-size="10.00" fill="grey"> +lut_vec</text>
</g>
<!-- Node5 -->
<g id="Node000005" class="node">
<title>Node5</title>
<g id="a_Node000005"><a xlink:title=" ">
<polygon fill="white" stroke="transparent" points="252,-378.5 171,-378.5 171,-329.5 252,-329.5 252,-378.5"/>
<text text-anchor="start" x="176.5" y="-366" font-family="Helvetica,sans-Serif" font-size="10.00">std::vector&lt; T &gt;</text>
<text text-anchor="start" x="210" y="-351" font-family="Helvetica,sans-Serif" font-size="10.00"> </text>
<text text-anchor="start" x="210" y="-336" font-family="Helvetica,sans-Serif" font-size="10.00"> </text>
<polygon fill="#666666" stroke="#666666" points="171.5,-361 171.5,-361 252.5,-361 252.5,-361 171.5,-361"/>
<polygon fill="#666666" stroke="#666666" points="171.5,-346 171.5,-346 252.5,-346 252.5,-346 171.5,-346"/>
<polygon fill="none" stroke="#666666" points="171,-329.5 171,-378.5 252,-378.5 252,-329.5 171,-329.5"/>
</a>
</g>
</g>
<!-- Node5&#45;&gt;Node4 -->
<g id="edge5_Node000004_Node000005" class="edge">
<title>Node5&#45;&gt;Node4</title>
<g id="a_edge5_Node000004_Node000005"><a xlink:title=" ">
<path fill="none" stroke="orange" d="M213,-319.21C214.07,-294.96 215.49,-262.88 216.45,-241.29"/>
<polygon fill="orange" stroke="orange" points="209.49,-319.25 212.55,-329.4 216.48,-319.56 209.49,-319.25"/>
</a>
</g>
<text text-anchor="middle" x="230.5" y="-298" font-family="Helvetica,sans-Serif" font-size="10.00" fill="grey"> &lt; int &gt;</text>
</g>
<!-- Node6 -->
<g id="Node000006" class="node">
<title>Node6</title>
<g id="a_Node000006"><a xlink:title=" ">
<polygon fill="white" stroke="transparent" points="220,-480 203,-480 203,-431 220,-431 220,-480"/>
<text text-anchor="start" x="208.5" y="-467.5" font-family="Helvetica,sans-Serif" font-size="10.00">T</text>
<text text-anchor="start" x="210" y="-452.5" font-family="Helvetica,sans-Serif" font-size="10.00"> </text>
<text text-anchor="start" x="210" y="-437.5" font-family="Helvetica,sans-Serif" font-size="10.00"> </text>
<polygon fill="#666666" stroke="#666666" points="203.5,-462.5 203.5,-462.5 220.5,-462.5 220.5,-462.5 203.5,-462.5"/>
<polygon fill="#666666" stroke="#666666" points="203.5,-447.5 203.5,-447.5 220.5,-447.5 220.5,-447.5 203.5,-447.5"/>
<polygon fill="none" stroke="#666666" points="203,-431 203,-480 220,-480 220,-431 203,-431"/>
</a>
</g>
</g>
<!-- Node6&#45;&gt;Node5 -->
<g id="edge6_Node000005_Node000006" class="edge">
<title>Node6&#45;&gt;Node5</title>
<g id="a_edge6_Node000005_Node000006"><a xlink:title=" ">
<path fill="none" stroke="#63b8ff" d="M211.5,-430.92C211.5,-418.99 211.5,-404.25 211.5,-390.94"/>
<polygon fill="none" stroke="#63b8ff" points="211.5,-390.76 207.5,-384.76 211.5,-378.76 215.5,-384.76 211.5,-390.76"/>
</a>
</g>
<text text-anchor="middle" x="236" y="-405" font-family="Helvetica,sans-Serif" font-size="10.00" fill="grey"> +elements</text>
</g>
<!-- Node7 -->
<g id="Node000007" class="node">
<title>Node7</title>
<g id="a_Node000007"><a xlink:title=" ">
<polygon fill="white" stroke="transparent" points="338.5,-241 284.5,-241 284.5,-192 338.5,-192 338.5,-241"/>
<text text-anchor="start" x="289.5" y="-228.5" font-family="Helvetica,sans-Serif" font-size="10.00">std::string</text>
<text text-anchor="start" x="309.5" y="-213.5" font-family="Helvetica,sans-Serif" font-size="10.00"> </text>
<text text-anchor="start" x="309.5" y="-198.5" font-family="Helvetica,sans-Serif" font-size="10.00"> </text>
<polygon fill="#666666" stroke="#666666" points="284.5,-223.5 284.5,-223.5 338.5,-223.5 338.5,-223.5 284.5,-223.5"/>
<polygon fill="#666666" stroke="#666666" points="284.5,-208.5 284.5,-208.5 338.5,-208.5 338.5,-208.5 284.5,-208.5"/>
<polygon fill="none" stroke="#666666" points="284.5,-192 284.5,-241 338.5,-241 338.5,-192 284.5,-192"/>
</a>
</g>
</g>
<!-- Node7&#45;&gt;Node1 -->
<g id="edge7_Node000001_Node000007" class="edge">
<title>Node7&#45;&gt;Node1</title>
<g id="a_edge7_Node000001_Node000007"><a xlink:title=" ">
<path fill="none" stroke="#63b8ff" d="M297.47,-191.72C290.01,-180.2 280.19,-166.59 269.5,-156 248.66,-135.34 223.11,-116.06 199.29,-100.03"/>
<polygon fill="none" stroke="#63b8ff" points="199.22,-99.99 192.01,-100.01 189.21,-93.37 196.42,-93.34 199.22,-99.99"/>
</a>
</g>
<text text-anchor="middle" x="283.5" y="-130" font-family="Helvetica,sans-Serif" font-size="10.00" fill="grey"> +serial_number</text>
</g>
<!-- Node8 -->
<g id="Node000008" class="node">
<title>Node8</title>
<g id="a_Node000008"><a xlink:title=" ">
<polygon fill="white" stroke="transparent" points="359,-384 270,-384 270,-324 359,-324 359,-384"/>
<text text-anchor="start" x="275.5" y="-372" font-family="Helvetica,sans-Serif" font-size="10.00">std::basic_string&lt;</text>
<text text-anchor="start" x="298" y="-361" font-family="Helvetica,sans-Serif" font-size="10.00"> Char &gt;</text>
<text text-anchor="start" x="313" y="-346" font-family="Helvetica,sans-Serif" font-size="10.00"> </text>
<text text-anchor="start" x="313" y="-331" font-family="Helvetica,sans-Serif" font-size="10.00"> </text>
<polygon fill="#666666" stroke="#666666" points="270.5,-356 270.5,-356 359.5,-356 359.5,-356 270.5,-356"/>
<polygon fill="#666666" stroke="#666666" points="270.5,-341 270.5,-341 359.5,-341 359.5,-341 270.5,-341"/>
<polygon fill="none" stroke="#666666" points="270,-324 270,-384 359,-384 359,-324 270,-324"/>
</a>
</g>
</g>
<!-- Node8&#45;&gt;Node7 -->
<g id="edge8_Node000007_Node000008" class="edge">
<title>Node8&#45;&gt;Node7</title>
<g id="a_edge8_Node000007_Node000008"><a xlink:title=" ">
<path fill="none" stroke="#63b8ff" d="M313.63,-313.9C313.11,-290.36 312.47,-261.17 312.02,-241.11"/>
<polygon fill="none" stroke="#63b8ff" points="310.14,-314.01 313.86,-323.93 317.13,-313.86 310.14,-314.01"/>
</a>
</g>
</g>
</g>
</svg>
