<?xml version="1.0" encoding="UTF-8" standalone="no"?>
<!DOCTYPE svg PUBLIC "-//W3C//DTD SVG 1.1//EN"
 "http://www.w3.org/Graphics/SVG/1.1/DTD/svg11.dtd">
<!-- Generated by graphviz version 2.43.0 (0)
 -->
<!-- Title: rm::para::MvCameraParam Pages: 1 -->
<!--zoomable 552 -->

<svg id="main" version="1.1" xmlns="http://www.w3.org/2000/svg" xmlns:xlink="http://www.w3.org/1999/xlink" xml:space="preserve" onload="init(evt)">

<style type="text/css"><![CDATA[
.node, .edge {opacity: 0.7;}
.node.selected, .edge.selected {opacity: 1;}
.edge:hover path { stroke: red; }
.edge:hover polygon { stroke: red; fill: red; }
]]></style>

<defs>
  <circle id="rim" cx="0" cy="0" r="7"/>
  <circle id="rim2" cx="0" cy="0" r="3.5"/>
  <g id="zoomPlus">
    <use xlink:href="#rim" fill="#404040"><set attributeName="fill" to="#808080" begin="zoomplus.mouseover" end="zoomplus.mouseout"/></use>
    <path d="M-4,0h8M0,-4v8" fill="none" stroke="white" stroke-width="1.5" pointer-events="none"/>
  </g>
  <g id="zoomMin">
    <use xlink:href="#rim" fill="#404040"><set attributeName="fill" to="#808080" begin="zoomminus.mouseover" end="zoomminus.mouseout"/></use>
    <path d="M-4,0h8" fill="none" stroke="white" stroke-width="1.5" pointer-events="none"/>
  </g>
  <g id="arrowUp" transform="translate(30 24)">
    <use xlink:href="#rim"/>
    <path pointer-events="none" fill="none" stroke="white" stroke-width="1.5" d="M0,-3.0v7 M-2.5,-0.5L0,-3.0L2.5,-0.5"/>
  </g>
  <g id="arrowRight" transform="rotate(90) translate(36 -43)">
    <use xlink:href="#rim"/>
    <path pointer-events="none" fill="none" stroke="white" stroke-width="1.5" d="M0,-3.0v7 M-2.5,-0.5L0,-3.0L2.5,-0.5"/>
  </g>
  <g id="arrowDown" transform="rotate(180) translate(-30 -48)">
    <use xlink:href="#rim"/>
    <path pointer-events="none" fill="none" stroke="white" stroke-width="1.5" d="M0,-3.0v7 M-2.5,-0.5L0,-3.0L2.5,-0.5"/>
  </g>
  <g id="arrowLeft" transform="rotate(270) translate(-36 17)">
    <use xlink:href="#rim"/>
    <path pointer-events="none" fill="none" stroke="white" stroke-width="1.5" d="M0,-3.0v7 M-2.5,-0.5L0,-3.0L2.5,-0.5"/>
  </g>
  <g id="resetDef">
    <use xlink:href="#rim2" fill="#404040"><set attributeName="fill" to="#808080" begin="reset.mouseover" end="reset.mouseout"/></use>
  </g>
</defs>
<script type="application/ecmascript">
var viewWidth = 325;
var viewHeight = 552;
var sectionId = 'dynsection-0';
</script>
<script type="application/ecmascript" xlink:href="../../svg.min.js"/>
<svg id="graph" class="graph">
<g id="viewport">
<title>rm::para::MvCameraParam</title>
<!-- Node1 -->
<g id="Node000001" class="node">
<title>Node1</title>
<g id="a_Node000001"><a xlink:title="MvCameraParam 参数模块">
<polygon fill="#999999" stroke="transparent" points="232.54,-109 90.54,-109 90.54,0 232.54,0 232.54,-109"/>
<text text-anchor="start" x="95.54" y="-96.5" font-family="Helvetica,sans-Serif" font-size="10.00">rm::para::MvCameraParam</text>
<text text-anchor="start" x="101.54" y="-81.5" font-family="Helvetica,sans-Serif" font-size="10.00">+</text>
<text text-anchor="start" x="121.54" y="-81.5" font-family="Helvetica,sans-Serif" font-size="10.00">saturation</text>
<text text-anchor="start" x="101.54" y="-66.5" font-family="Helvetica,sans-Serif" font-size="10.00">+</text>
<text text-anchor="start" x="121.54" y="-66.5" font-family="Helvetica,sans-Serif" font-size="10.00">sharpness</text>
<text text-anchor="start" x="101.54" y="-51.5" font-family="Helvetica,sans-Serif" font-size="10.00">+</text>
<text text-anchor="start" x="121.54" y="-51.5" font-family="Helvetica,sans-Serif" font-size="10.00">retrieve_mode</text>
<text text-anchor="start" x="101.54" y="-36.5" font-family="Helvetica,sans-Serif" font-size="10.00">+</text>
<text text-anchor="start" x="121.54" y="-36.5" font-family="Helvetica,sans-Serif" font-size="10.00">MvCameraParam()</text>
<text text-anchor="start" x="101.54" y="-21.5" font-family="Helvetica,sans-Serif" font-size="10.00">+</text>
<text text-anchor="start" x="121.54" y="-21.5" font-family="Helvetica,sans-Serif" font-size="10.00">read()</text>
<text text-anchor="start" x="101.54" y="-6.5" font-family="Helvetica,sans-Serif" font-size="10.00">+</text>
<text text-anchor="start" x="121.54" y="-6.5" font-family="Helvetica,sans-Serif" font-size="10.00">write()</text>
<polygon fill="#666666" stroke="#666666" points="90.54,-91.5 90.54,-91.5 232.54,-91.5 232.54,-91.5 90.54,-91.5"/>
<polygon fill="#666666" stroke="#666666" points="90.54,-46.5 90.54,-46.5 119.54,-46.5 119.54,-46.5 90.54,-46.5"/>
<polygon fill="#666666" stroke="#666666" points="119.54,-46.5 119.54,-46.5 232.54,-46.5 232.54,-46.5 119.54,-46.5"/>
<polygon fill="none" stroke="#666666" points="90.54,0 90.54,-109 232.54,-109 232.54,0 90.54,0"/>
</a>
</g>
</g>
<!-- Node2 -->
<g id="Node000002" class="node">
<title>Node2</title>
<g id="a_Node000002"><a xlink:title=" ">
<polygon fill="white" stroke="transparent" points="60.04,-436.5 37.04,-436.5 37.04,-387.5 60.04,-387.5 60.04,-436.5"/>
<text text-anchor="start" x="42.54" y="-424" font-family="Helvetica,sans-Serif" font-size="10.00">int</text>
<text text-anchor="start" x="47.04" y="-409" font-family="Helvetica,sans-Serif" font-size="10.00"> </text>
<text text-anchor="start" x="47.04" y="-394" font-family="Helvetica,sans-Serif" font-size="10.00"> </text>
<polygon fill="#666666" stroke="#666666" points="37.54,-419 37.54,-419 60.54,-419 60.54,-419 37.54,-419"/>
<polygon fill="#666666" stroke="#666666" points="37.54,-404 37.54,-404 60.54,-404 60.54,-404 37.54,-404"/>
<polygon fill="none" stroke="#666666" points="37.04,-387.5 37.04,-436.5 60.04,-436.5 60.04,-387.5 37.04,-387.5"/>
</a>
</g>
</g>
<!-- Node2&#45;&gt;Node1 -->
<g id="edge1_Node000001_Node000002" class="edge">
<title>Node2&#45;&gt;Node1</title>
<g id="a_edge1_Node000001_Node000002"><a xlink:title=" ">
<path fill="none" stroke="#63b8ff" d="M36.94,-387.18C16.22,-341 -21.55,-237.24 16.54,-162 30.43,-134.57 55.08,-112.49 80.15,-95.7"/>
<polygon fill="none" stroke="#63b8ff" points="80.41,-95.53 83.31,-88.93 90.52,-89.06 87.62,-95.66 80.41,-95.53"/>
</a>
</g>
<text text-anchor="start" x="20.04" y="-317.5" font-family="Helvetica,sans-Serif" font-size="10.00" fill="grey">+auto_exposure</text>
<text text-anchor="start" x="20.04" y="-302.5" font-family="Helvetica,sans-Serif" font-size="10.00" fill="grey">+auto_wb</text>
<text text-anchor="start" x="20.04" y="-287.5" font-family="Helvetica,sans-Serif" font-size="10.00" fill="grey">+b_gain</text>
<text text-anchor="start" x="20.04" y="-272.5" font-family="Helvetica,sans-Serif" font-size="10.00" fill="grey">+contrast</text>
<text text-anchor="start" x="20.04" y="-257.5" font-family="Helvetica,sans-Serif" font-size="10.00" fill="grey">+exposure</text>
<text text-anchor="start" x="20.04" y="-242.5" font-family="Helvetica,sans-Serif" font-size="10.00" fill="grey">+g_gain</text>
<text text-anchor="start" x="20.04" y="-227.5" font-family="Helvetica,sans-Serif" font-size="10.00" fill="grey">+gain</text>
<text text-anchor="start" x="20.04" y="-212.5" font-family="Helvetica,sans-Serif" font-size="10.00" fill="grey">+gamma</text>
<text text-anchor="start" x="20.04" y="-197.5" font-family="Helvetica,sans-Serif" font-size="10.00" fill="grey">+grab_mode</text>
<text text-anchor="start" x="20.04" y="-182.5" font-family="Helvetica,sans-Serif" font-size="10.00" fill="grey">+r_gain</text>
<text text-anchor="start" x="20.04" y="-167.5" font-family="Helvetica,sans-Serif" font-size="10.00" fill="grey"> &#160;...</text>
</g>
<!-- Node3 -->
<g id="Node000003" class="node">
<title>Node3</title>
<g id="a_Node000003"><a xlink:title=" ">
<polygon fill="white" stroke="transparent" points="210.54,-270 112.54,-270 112.54,-221 210.54,-221 210.54,-270"/>
<text text-anchor="start" x="117.54" y="-257.5" font-family="Helvetica,sans-Serif" font-size="10.00">std::vector&lt; int &gt;</text>
<text text-anchor="start" x="159.54" y="-242.5" font-family="Helvetica,sans-Serif" font-size="10.00"> </text>
<text text-anchor="start" x="159.54" y="-227.5" font-family="Helvetica,sans-Serif" font-size="10.00"> </text>
<polygon fill="#666666" stroke="#666666" points="112.54,-252.5 112.54,-252.5 210.54,-252.5 210.54,-252.5 112.54,-252.5"/>
<polygon fill="#666666" stroke="#666666" points="112.54,-237.5 112.54,-237.5 210.54,-237.5 210.54,-237.5 112.54,-237.5"/>
<polygon fill="none" stroke="#666666" points="112.54,-221 112.54,-270 210.54,-270 210.54,-221 112.54,-221"/>
</a>
</g>
</g>
<!-- Node2&#45;&gt;Node3 -->
<g id="edge3_Node000003_Node000002" class="edge">
<title>Node2&#45;&gt;Node3</title>
<g id="a_edge3_Node000003_Node000002"><a xlink:title=" ">
<path fill="none" stroke="#63b8ff" d="M60.21,-394.02C78.56,-367.31 114.5,-314.98 138.27,-280.37"/>
<polygon fill="none" stroke="#63b8ff" points="138.43,-280.14 138.53,-272.93 145.23,-270.25 145.13,-277.46 138.43,-280.14"/>
</a>
</g>
<text text-anchor="start" x="96.04" y="-352.5" font-family="Helvetica,sans-Serif" font-size="10.00" fill="grey">+elements</text>
</g>
<!-- Node3&#45;&gt;Node1 -->
<g id="edge2_Node000001_Node000003" class="edge">
<title>Node3&#45;&gt;Node1</title>
<g id="a_edge2_Node000001_Node000003"><a xlink:title=" ">
<path fill="none" stroke="#63b8ff" d="M161.54,-220.95C161.54,-196.18 161.54,-156.1 161.54,-121.59"/>
<polygon fill="none" stroke="#63b8ff" points="161.54,-121.16 157.54,-115.16 161.54,-109.16 165.54,-115.16 161.54,-121.16"/>
</a>
</g>
<text text-anchor="start" x="164.54" y="-132.5" font-family="Helvetica,sans-Serif" font-size="10.00" fill="grey">+lut_vec</text>
</g>
<!-- Node4 -->
<g id="Node000004" class="node">
<title>Node4</title>
<g id="a_Node000004"><a xlink:title=" ">
<polygon fill="white" stroke="transparent" points="200.04,-436.5 109.04,-436.5 109.04,-387.5 200.04,-387.5 200.04,-436.5"/>
<text text-anchor="start" x="114.54" y="-424" font-family="Helvetica,sans-Serif" font-size="10.00">std::vector&lt; T &gt;</text>
<text text-anchor="start" x="153.04" y="-409" font-family="Helvetica,sans-Serif" font-size="10.00"> </text>
<text text-anchor="start" x="153.04" y="-394" font-family="Helvetica,sans-Serif" font-size="10.00"> </text>
<polygon fill="#666666" stroke="#666666" points="109.54,-419 109.54,-419 200.54,-419 200.54,-419 109.54,-419"/>
<polygon fill="#666666" stroke="#666666" points="109.54,-404 109.54,-404 200.54,-404 200.54,-404 109.54,-404"/>
<polygon fill="none" stroke="#666666" points="109.04,-387.5 109.04,-436.5 200.04,-436.5 200.04,-387.5 109.04,-387.5"/>
</a>
</g>
</g>
<!-- Node4&#45;&gt;Node3 -->
<g id="edge4_Node000003_Node000004" class="edge">
<title>Node4&#45;&gt;Node3</title>
<g id="a_edge4_Node000003_Node000004"><a xlink:title=" ">
<path fill="none" stroke="orange" d="M155.98,-377.22C157.34,-345.25 159.35,-298.1 160.54,-270.03"/>
<polygon fill="orange" stroke="orange" points="152.47,-377.29 155.55,-387.43 159.47,-377.59 152.47,-377.29"/>
</a>
</g>
<text text-anchor="start" x="160.54" y="-352.5" font-family="Helvetica,sans-Serif" font-size="10.00" fill="grey">&lt; int &gt;</text>
</g>
<!-- Node5 -->
<g id="Node000005" class="node">
<title>Node5</title>
<g id="a_Node000005"><a xlink:title=" ">
<polygon fill="white" stroke="transparent" points="163.04,-544 146.04,-544 146.04,-495 163.04,-495 163.04,-544"/>
<text text-anchor="start" x="151.54" y="-531.5" font-family="Helvetica,sans-Serif" font-size="10.00">T</text>
<text text-anchor="start" x="153.04" y="-516.5" font-family="Helvetica,sans-Serif" font-size="10.00"> </text>
<text text-anchor="start" x="153.04" y="-501.5" font-family="Helvetica,sans-Serif" font-size="10.00"> </text>
<polygon fill="#666666" stroke="#666666" points="146.54,-526.5 146.54,-526.5 163.54,-526.5 163.54,-526.5 146.54,-526.5"/>
<polygon fill="#666666" stroke="#666666" points="146.54,-511.5 146.54,-511.5 163.54,-511.5 163.54,-511.5 146.54,-511.5"/>
<polygon fill="none" stroke="#666666" points="146.04,-495 146.04,-544 163.04,-544 163.04,-495 146.04,-495"/>
</a>
</g>
</g>
<!-- Node5&#45;&gt;Node4 -->
<g id="edge5_Node000004_Node000005" class="edge">
<title>Node5&#45;&gt;Node4</title>
<g id="a_edge5_Node000004_Node000005"><a xlink:title=" ">
<path fill="none" stroke="#63b8ff" d="M154.54,-494.82C154.54,-481.25 154.54,-463.94 154.54,-448.74"/>
<polygon fill="none" stroke="#63b8ff" points="154.54,-448.6 150.54,-442.6 154.54,-436.6 158.54,-442.6 154.54,-448.6"/>
</a>
</g>
<text text-anchor="start" x="158.04" y="-465.5" font-family="Helvetica,sans-Serif" font-size="10.00" fill="grey">+elements</text>
</g>
<!-- Node6 -->
<g id="Node000006" class="node">
<title>Node6</title>
<g id="a_Node000006"><a xlink:title=" ">
<polygon fill="white" stroke="transparent" points="294.04,-270 235.04,-270 235.04,-221 294.04,-221 294.04,-270"/>
<text text-anchor="start" x="240.54" y="-257.5" font-family="Helvetica,sans-Serif" font-size="10.00">std::string</text>
<text text-anchor="start" x="263.04" y="-242.5" font-family="Helvetica,sans-Serif" font-size="10.00"> </text>
<text text-anchor="start" x="263.04" y="-227.5" font-family="Helvetica,sans-Serif" font-size="10.00"> </text>
<polygon fill="#666666" stroke="#666666" points="235.54,-252.5 235.54,-252.5 294.54,-252.5 294.54,-252.5 235.54,-252.5"/>
<polygon fill="#666666" stroke="#666666" points="235.54,-237.5 235.54,-237.5 294.54,-237.5 294.54,-237.5 235.54,-237.5"/>
<polygon fill="none" stroke="#666666" points="235.04,-221 235.04,-270 294.04,-270 294.04,-221 235.04,-221"/>
</a>
</g>
</g>
<!-- Node6&#45;&gt;Node1 -->
<g id="edge6_Node000001_Node000006" class="edge">
<title>Node6&#45;&gt;Node1</title>
<g id="a_edge6_Node000001_Node000006"><a xlink:title=" ">
<path fill="none" stroke="#63b8ff" d="M256.62,-220.72C248.07,-196.38 233.25,-157.86 215.54,-127 214.11,-124.5 212.59,-121.98 211.02,-119.46"/>
<polygon fill="none" stroke="#63b8ff" points="210.86,-119.22 204.23,-116.39 204.3,-109.18 210.93,-112.01 210.86,-119.22"/>
</a>
</g>
<text text-anchor="start" x="228.04" y="-132.5" font-family="Helvetica,sans-Serif" font-size="10.00" fill="grey">+serial_number</text>
</g>
<!-- Node7 -->
<g id="Node000007" class="node">
<title>Node7</title>
<g id="a_Node000007"><a xlink:title=" ">
<polygon fill="white" stroke="transparent" points="316.54,-442 218.54,-442 218.54,-382 316.54,-382 316.54,-442"/>
<text text-anchor="start" x="223.54" y="-430" font-family="Helvetica,sans-Serif" font-size="10.00">std::basic_string&lt;</text>
<text text-anchor="start" x="249.04" y="-419" font-family="Helvetica,sans-Serif" font-size="10.00"> Char &gt;</text>
<text text-anchor="start" x="265.54" y="-404" font-family="Helvetica,sans-Serif" font-size="10.00"> </text>
<text text-anchor="start" x="265.54" y="-389" font-family="Helvetica,sans-Serif" font-size="10.00"> </text>
<polygon fill="#666666" stroke="#666666" points="218.54,-414 218.54,-414 316.54,-414 316.54,-414 218.54,-414"/>
<polygon fill="#666666" stroke="#666666" points="218.54,-399 218.54,-399 316.54,-399 316.54,-399 218.54,-399"/>
<polygon fill="none" stroke="#666666" points="218.54,-382 218.54,-442 316.54,-442 316.54,-382 218.54,-382"/>
</a>
</g>
</g>
<!-- Node7&#45;&gt;Node6 -->
<g id="edge7_Node000006_Node000007" class="edge">
<title>Node7&#45;&gt;Node6</title>
<g id="a_edge7_Node000006_Node000007"><a xlink:title=" ">
<path fill="none" stroke="#63b8ff" d="M266.83,-371.74C266.25,-340.12 265.46,-296.7 264.97,-270.18"/>
<polygon fill="none" stroke="#63b8ff" points="263.33,-372.03 267.01,-381.97 270.33,-371.91 263.33,-372.03"/>
</a>
</g>
</g>
</g>
</svg>

<g id="navigator" transform="translate(0 0)" fill="#404254">
  <rect fill="#f2f5e9" fill-opacity="0.5" stroke="#606060" stroke-width=".5" x="0" y="0" width="60" height="60"/>
  <use id="zoomplus" xlink:href="#zoomPlus" x="17" y="9" onmousedown="handleZoom(evt,'in')"/>
  <use id="zoomminus" xlink:href="#zoomMin" x="42" y="9" onmousedown="handleZoom(evt,'out')"/>
  <use id="reset" xlink:href="#resetDef" x="30" y="36" onmousedown="handleReset()"/>
   <use id="arrowup" xlink:href="#arrowUp" x="0" y="0" onmousedown="handlePan(0,-1)"/>
  <use id="arrowright" xlink:href="#arrowRight" x="0" y="0" onmousedown="handlePan(1,0)"/>
  <use id="arrowdown" xlink:href="#arrowDown" x="0" y="0" onmousedown="handlePan(0,1)"/>
  <use id="arrowleft" xlink:href="#arrowLeft" x="0" y="0" onmousedown="handlePan(-1,0)"/>
</g>
<svg viewBox="0 0 15 15" width="100%" height="30px" preserveAspectRatio="xMaxYMin meet">
 <g id="arrow_out" transform="scale(0.3 0.3)">
  <a xlink:href="classrm_1_1para_1_1MvCameraParam__coll__graph_org.svg" target="_base">
   <rect id="button" ry="5" rx="5" y="6" x="6" height="38" width="38"
        fill="#f2f5e9" fill-opacity="0.5" stroke="#606060" stroke-width="1.0"/>
   <path id="arrow"
     d="M 11.500037,31.436501 C 11.940474,20.09759 22.043105,11.32322 32.158766,21.979434 L 37.068811,17.246167 C 37.068811,17.246167 37.088388,32 37.088388,32 L 22.160133,31.978069 C 22.160133,31.978069 26.997745,27.140456 26.997745,27.140456 C 18.528582,18.264221 13.291696,25.230495 11.500037,31.436501 z"
     style="fill:#404040;"/>
  </a>
 </g>
</svg>

<style type='text/css'>
<![CDATA[
[data-mouse-over-selected='false'] { opacity: 0.7; }
[data-mouse-over-selected='true']  { opacity: 1.0; }
]]>
</style>
<script type="application/ecmascript"><![CDATA[
document.addEventListener('DOMContentLoaded', (event) => {
  highlightEdges();
  highlightAdjacentNodes();
});
]]></script>
</svg>
