<?xml version="1.0" encoding="UTF-8" standalone="no"?>
<!DOCTYPE svg PUBLIC "-//W3C//DTD SVG 1.1//EN"
 "http://www.w3.org/Graphics/SVG/1.1/DTD/svg11.dtd">
<!-- Generated by graphviz version 14.1.2 (0)
 -->
<!-- Title: rm::para::RuneDetectorParam Pages: 1 -->
<svg width="304pt" height="255pt"
 viewBox="0.00 0.00 304.00 255.00" xmlns="http://www.w3.org/2000/svg" xmlns:xlink="http://www.w3.org/1999/xlink">

<svg id="main" version="1.1" xmlns="http://www.w3.org/2000/svg" xmlns:xlink="http://www.w3.org/1999/xlink" xml:space="preserve">

<style type="text/css"><![CDATA[
.node, .edge {opacity: 0.7;}
.node.selected, .edge.selected {opacity: 1;}
.edge:hover path { stroke: red; }
.edge:hover polygon { stroke: red; fill: red; }
]]></style>
<script type="application/ecmascript" xlink:href="../../svg.min.js"/>
<svg id="graph" class="graph">
<g id="graph0" class="graph" transform="scale(1 1) rotate(0) translate(4 251)">
<title>rm::para::RuneDetectorParam</title>
<!-- Node1 -->
<g id="Node000001" class="node">
<title>Node1</title>
<g id="a_Node000001"><a xlink:title="RuneDetectorParam 参数模块">
<polygon fill="#999999" stroke="none" points="166.75,-87.75 14,-87.75 14,0 166.75,0 166.75,-87.75"/>
<text xml:space="preserve" text-anchor="start" x="18" y="-74.25" font-family="Helvetica,sans-Serif" font-size="10.00">rm::para::RuneDetectorParam</text>
<text xml:space="preserve" text-anchor="start" x="88.88" y="-57.5" font-family="Helvetica,sans-Serif" font-size="10.00"> </text>
<text xml:space="preserve" text-anchor="start" x="24.88" y="-40.75" font-family="Helvetica,sans-Serif" font-size="10.00">+</text>
<text xml:space="preserve" text-anchor="start" x="44" y="-40.75" font-family="Helvetica,sans-Serif" font-size="10.00">RuneDetectorParam()</text>
<text xml:space="preserve" text-anchor="start" x="24.88" y="-24" font-family="Helvetica,sans-Serif" font-size="10.00">+</text>
<text xml:space="preserve" text-anchor="start" x="44" y="-24" font-family="Helvetica,sans-Serif" font-size="10.00">read()</text>
<text xml:space="preserve" text-anchor="start" x="24.88" y="-7.25" font-family="Helvetica,sans-Serif" font-size="10.00">+</text>
<text xml:space="preserve" text-anchor="start" x="44" y="-7.25" font-family="Helvetica,sans-Serif" font-size="10.00">write()</text>
<polygon fill="#666666" stroke="#666666" points="14,-69 14,-69 166.75,-69 166.75,-69 14,-69"/>
<polygon fill="#666666" stroke="#666666" points="14,-52.25 14,-52.25 166.75,-52.25 166.75,-52.25 14,-52.25"/>
<polygon fill="none" stroke="#666666" points="14,0 14,-87.75 166.75,-87.75 166.75,0 14,0"/>
</a>
</g>
</g>
<!-- Node2 -->
<g id="Node000002" class="node">
<title>Node2</title>
<g id="a_Node000002"><a xlink:title=" ">
<polygon fill="white" stroke="none" points="20.75,-247 0,-247 0,-192.75 20.75,-192.75 20.75,-247"/>
<text xml:space="preserve" text-anchor="start" x="4" y="-233.5" font-family="Helvetica,sans-Serif" font-size="10.00">int</text>
<text xml:space="preserve" text-anchor="start" x="8.88" y="-216.75" font-family="Helvetica,sans-Serif" font-size="10.00"> </text>
<text xml:space="preserve" text-anchor="start" x="8.88" y="-200" font-family="Helvetica,sans-Serif" font-size="10.00"> </text>
<polygon fill="#666666" stroke="#666666" points="0,-228.25 0,-228.25 20.75,-228.25 20.75,-228.25 0,-228.25"/>
<polygon fill="#666666" stroke="#666666" points="0,-211.5 0,-211.5 20.75,-211.5 20.75,-211.5 0,-211.5"/>
<polygon fill="none" stroke="#666666" points="0,-192.75 0,-247 20.75,-247 20.75,-192.75 0,-192.75"/>
</a>
</g>
</g>
<!-- Node2&#45;&gt;Node1 -->
<g id="edge1_Node000001_Node000002" class="edge">
<title>Node2&#45;&gt;Node1</title>
<g id="a_edge1_Node000001_Node000002"><a xlink:title=" ">
<path fill="none" stroke="#63b8ff" d="M4.63,-193.13C0.64,-169.18 -1.79,-133.18 11.88,-105.75 13.27,-102.95 14.86,-100.24 16.61,-97.62"/>
<polygon fill="none" stroke="#63b8ff" points="16.68,-97.54 17.24,-90.35 24.09,-88.1 23.53,-95.29 16.68,-97.54"/>
</a>
</g>
<text xml:space="preserve" text-anchor="start" x="14.88" y="-145.5" font-family="Helvetica,sans-Serif" font-size="10.00" fill="grey">+GRAY_THRESHOLD_BLUE</text>
<text xml:space="preserve" text-anchor="start" x="14.88" y="-128.75" font-family="Helvetica,sans-Serif" font-size="10.00" fill="grey">+GRAY_THRESHOLD_RED</text>
</g>
<!-- Node3 -->
<g id="Node000003" class="node">
<title>Node3</title>
<g id="a_Node000003"><a xlink:title=" ">
<polygon fill="white" stroke="none" points="190.88,-247 149.88,-247 149.88,-192.75 190.88,-192.75 190.88,-247"/>
<text xml:space="preserve" text-anchor="start" x="153.88" y="-233.5" font-family="Helvetica,sans-Serif" font-size="10.00">double</text>
<text xml:space="preserve" text-anchor="start" x="168.88" y="-216.75" font-family="Helvetica,sans-Serif" font-size="10.00"> </text>
<text xml:space="preserve" text-anchor="start" x="168.88" y="-200" font-family="Helvetica,sans-Serif" font-size="10.00"> </text>
<polygon fill="#666666" stroke="#666666" points="149.88,-228.25 149.88,-228.25 190.88,-228.25 190.88,-228.25 149.88,-228.25"/>
<polygon fill="#666666" stroke="#666666" points="149.88,-211.5 149.88,-211.5 190.88,-211.5 190.88,-211.5 149.88,-211.5"/>
<polygon fill="none" stroke="#666666" points="149.88,-192.75 149.88,-247 190.88,-247 190.88,-192.75 149.88,-192.75"/>
</a>
</g>
</g>
<!-- Node3&#45;&gt;Node1 -->
<g id="edge2_Node000001_Node000003" class="edge">
<title>Node3&#45;&gt;Node1</title>
<g id="a_edge2_Node000001_Node000003"><a xlink:title=" ">
<path fill="none" stroke="#63b8ff" d="M169.45,-192.81C167.67,-168.96 162.6,-133.31 148.38,-105.75 146.99,-103.07 145.45,-100.42 143.79,-97.83"/>
<polygon fill="none" stroke="#63b8ff" points="143.88,-97.94 137.13,-95.39 136.9,-88.18 143.64,-90.74 143.88,-97.94"/>
</a>
</g>
<text xml:space="preserve" text-anchor="start" x="170.51" y="-162.25" font-family="Helvetica,sans-Serif" font-size="10.00" fill="grey">+BIG_TARGET_AREA</text>
<text xml:space="preserve" text-anchor="start" x="170.51" y="-145.5" font-family="Helvetica,sans-Serif" font-size="10.00" fill="grey">+CONCENTRICITY_RATIO</text>
<text xml:space="preserve" text-anchor="start" x="170.51" y="-128.75" font-family="Helvetica,sans-Serif" font-size="10.00" fill="grey">+MAX_CONTOUR_AREA</text>
<text xml:space="preserve" text-anchor="start" x="170.51" y="-112" font-family="Helvetica,sans-Serif" font-size="10.00" fill="grey">+MIN_CONTOUR_AREA</text>
</g>
</g>
</svg>
</svg>

<style type='text/css'>
<![CDATA[
[data-mouse-over-selected='false'] { opacity: 0.7; }
[data-mouse-over-selected='true']  { opacity: 1.0; }
]]>
</style>
<script type="application/ecmascript"><![CDATA[
document.addEventListener('DOMContentLoaded', (event) => {
  highlightEdges();
  highlightAdjacentNodes();
});
]]></script>
</svg>
