<?xml version="1.0" encoding="UTF-8" standalone="no"?>
<!DOCTYPE svg PUBLIC "-//W3C//DTD SVG 1.1//EN"
 "http://www.w3.org/Graphics/SVG/1.1/DTD/svg11.dtd">
<!-- Generated by graphviz version 2.43.0 (0)
 -->
<!-- Title: rm::lpss::async::Publisher&lt; MsgType &gt; Pages: 1 -->
<svg width="445pt" height="211pt"
 viewBox="0.00 0.00 444.50 211.00" xmlns="http://www.w3.org/2000/svg" xmlns:xlink="http://www.w3.org/1999/xlink">
<g id="graph0" class="graph" transform="scale(1 1) rotate(0) translate(4 207)">
<title>rm::lpss::async::Publisher&lt; MsgType &gt;</title>
<!-- Node1 -->
<g id="Node000001" class="node">
<title>Node1</title>
<g id="a_Node000001"><a xlink:title="异步发布者代理">
<polygon fill="#999999" stroke="transparent" points="268,-203 143,-203 143,-128 268,-128 268,-203"/>
<text text-anchor="start" x="148.5" y="-190.5" font-family="Helvetica,sans-Serif" font-size="10.00">rm::lpss::async::Publisher</text>
<text text-anchor="start" x="177" y="-179.5" font-family="Helvetica,sans-Serif" font-size="10.00">&lt; MsgType &gt;</text>
<text text-anchor="start" x="204" y="-164.5" font-family="Helvetica,sans-Serif" font-size="10.00"> </text>
<text text-anchor="start" x="164.5" y="-149.5" font-family="Helvetica,sans-Serif" font-size="10.00">+</text>
<text text-anchor="start" x="192.5" y="-149.5" font-family="Helvetica,sans-Serif" font-size="10.00">invalid()</text>
<text text-anchor="start" x="164.5" y="-134.5" font-family="Helvetica,sans-Serif" font-size="10.00">+</text>
<text text-anchor="start" x="192.5" y="-134.5" font-family="Helvetica,sans-Serif" font-size="10.00">publish()</text>
<polygon fill="#666666" stroke="#666666" points="143.5,-174.5 143.5,-174.5 268.5,-174.5 268.5,-174.5 143.5,-174.5"/>
<polygon fill="#666666" stroke="#666666" points="143.5,-159.5 143.5,-159.5 268.5,-159.5 268.5,-159.5 143.5,-159.5"/>
<polygon fill="none" stroke="#666666" points="143,-128 143,-203 268,-203 268,-128 143,-128"/>
</a>
</g>
</g>
<!-- Node2 -->
<g id="Node000002" class="node">
<title>Node2</title>
<g id="a_Node000002"><a xlink:href="../../d1/d56/classrm_1_1lpss_1_1async_1_1Publisher.html" target="_top" xlink:title=" ">
<polygon fill="white" stroke="transparent" points="125,-75 0,-75 0,0 125,0 125,-75"/>
<text text-anchor="start" x="5.5" y="-62.5" font-family="Helvetica,sans-Serif" font-size="10.00">rm::lpss::async::Publisher</text>
<text text-anchor="start" x="18.5" y="-51.5" font-family="Helvetica,sans-Serif" font-size="10.00">&lt; rm::msg::URDF &gt;</text>
<text text-anchor="start" x="61" y="-36.5" font-family="Helvetica,sans-Serif" font-size="10.00"> </text>
<text text-anchor="start" x="21.5" y="-21.5" font-family="Helvetica,sans-Serif" font-size="10.00">+</text>
<text text-anchor="start" x="49.5" y="-21.5" font-family="Helvetica,sans-Serif" font-size="10.00">invalid()</text>
<text text-anchor="start" x="21.5" y="-6.5" font-family="Helvetica,sans-Serif" font-size="10.00">+</text>
<text text-anchor="start" x="49.5" y="-6.5" font-family="Helvetica,sans-Serif" font-size="10.00">publish()</text>
<polygon fill="#666666" stroke="#666666" points="0.5,-46.5 0.5,-46.5 125.5,-46.5 125.5,-46.5 0.5,-46.5"/>
<polygon fill="#666666" stroke="#666666" points="0.5,-31.5 0.5,-31.5 125.5,-31.5 125.5,-31.5 0.5,-31.5"/>
<polygon fill="none" stroke="#666666" points="0,0 0,-75 125,-75 125,0 0,0"/>
</a>
</g>
</g>
<!-- Node1&#45;&gt;Node2 -->
<g id="edge1_Node000001_Node000002" class="edge">
<title>Node1&#45;&gt;Node2</title>
<g id="a_edge1_Node000001_Node000002"><a xlink:title=" ">
<path fill="none" stroke="orange" d="M134.23,-131.21C124.33,-124.94 114.74,-117.85 106.5,-110 96.16,-100.15 87.29,-87.36 80.27,-75.33"/>
<polygon fill="orange" stroke="orange" points="132.62,-134.33 142.99,-136.51 136.25,-128.34 132.62,-134.33"/>
</a>
</g>
<text text-anchor="start" x="110" y="-98.5" font-family="Helvetica,sans-Serif" font-size="10.00" fill="grey">&lt; rm::msg::URDF &gt;</text>
</g>
<!-- Node3 -->
<g id="Node000003" class="node">
<title>Node3</title>
<g id="a_Node000003"><a xlink:href="../../d1/d56/classrm_1_1lpss_1_1async_1_1Publisher.html" target="_top" xlink:title=" ">
<polygon fill="white" stroke="transparent" points="268,-75 143,-75 143,0 268,0 268,-75"/>
<text text-anchor="start" x="148.5" y="-62.5" font-family="Helvetica,sans-Serif" font-size="10.00">rm::lpss::async::Publisher</text>
<text text-anchor="start" x="169.5" y="-51.5" font-family="Helvetica,sans-Serif" font-size="10.00">&lt; rm::msg::TF &gt;</text>
<text text-anchor="start" x="204" y="-36.5" font-family="Helvetica,sans-Serif" font-size="10.00"> </text>
<text text-anchor="start" x="164.5" y="-21.5" font-family="Helvetica,sans-Serif" font-size="10.00">+</text>
<text text-anchor="start" x="192.5" y="-21.5" font-family="Helvetica,sans-Serif" font-size="10.00">invalid()</text>
<text text-anchor="start" x="164.5" y="-6.5" font-family="Helvetica,sans-Serif" font-size="10.00">+</text>
<text text-anchor="start" x="192.5" y="-6.5" font-family="Helvetica,sans-Serif" font-size="10.00">publish()</text>
<polygon fill="#666666" stroke="#666666" points="143.5,-46.5 143.5,-46.5 268.5,-46.5 268.5,-46.5 143.5,-46.5"/>
<polygon fill="#666666" stroke="#666666" points="143.5,-31.5 143.5,-31.5 268.5,-31.5 268.5,-31.5 143.5,-31.5"/>
<polygon fill="none" stroke="#666666" points="143,0 143,-75 268,-75 268,0 143,0"/>
</a>
</g>
</g>
<!-- Node1&#45;&gt;Node3 -->
<g id="edge2_Node000001_Node000003" class="edge">
<title>Node1&#45;&gt;Node3</title>
<g id="a_edge2_Node000001_Node000003"><a xlink:title=" ">
<path fill="none" stroke="orange" d="M205.5,-117.31C205.5,-103.35 205.5,-88.29 205.5,-75.11"/>
<polygon fill="orange" stroke="orange" points="202,-117.72 205.5,-127.72 209,-117.72 202,-117.72"/>
</a>
</g>
<text text-anchor="start" x="209" y="-98.5" font-family="Helvetica,sans-Serif" font-size="10.00" fill="grey">&lt; rm::msg::TF &gt;</text>
</g>
<!-- Node4 -->
<g id="Node000004" class="node">
<title>Node4</title>
<g id="a_Node000004"><a xlink:href="../../d1/d56/classrm_1_1lpss_1_1async_1_1Publisher.html" target="_top" xlink:title=" ">
<polygon fill="white" stroke="transparent" points="421,-75 286,-75 286,0 421,0 421,-75"/>
<text text-anchor="start" x="291.5" y="-62.5" font-family="Helvetica,sans-Serif" font-size="10.00">rm::lpss::async::Publisher</text>
<text text-anchor="start" x="291.5" y="-51.5" font-family="Helvetica,sans-Serif" font-size="10.00">&lt; rm::msg::JointTrajectory &gt;</text>
<text text-anchor="start" x="352" y="-36.5" font-family="Helvetica,sans-Serif" font-size="10.00"> </text>
<text text-anchor="start" x="310" y="-21.5" font-family="Helvetica,sans-Serif" font-size="10.00">+</text>
<text text-anchor="start" x="340.5" y="-21.5" font-family="Helvetica,sans-Serif" font-size="10.00">invalid()</text>
<text text-anchor="start" x="310" y="-6.5" font-family="Helvetica,sans-Serif" font-size="10.00">+</text>
<text text-anchor="start" x="340.5" y="-6.5" font-family="Helvetica,sans-Serif" font-size="10.00">publish()</text>
<polygon fill="#666666" stroke="#666666" points="286.5,-46.5 286.5,-46.5 421.5,-46.5 421.5,-46.5 286.5,-46.5"/>
<polygon fill="#666666" stroke="#666666" points="286.5,-31.5 286.5,-31.5 421.5,-31.5 421.5,-31.5 286.5,-31.5"/>
<polygon fill="none" stroke="#666666" points="286,0 286,-75 421,-75 421,0 286,0"/>
</a>
</g>
</g>
<!-- Node1&#45;&gt;Node4 -->
<g id="edge3_Node000001_Node000004" class="edge">
<title>Node1&#45;&gt;Node4</title>
<g id="a_edge3_Node000001_Node000004"><a xlink:title=" ">
<path fill="none" stroke="orange" d="M273.54,-121.89C278.72,-118.03 283.77,-114.04 288.5,-110 300.74,-99.54 312.95,-86.87 323.42,-75.12"/>
<polygon fill="orange" stroke="orange" points="271.36,-119.15 265.32,-127.86 275.47,-124.82 271.36,-119.15"/>
</a>
</g>
<text text-anchor="start" x="309" y="-98.5" font-family="Helvetica,sans-Serif" font-size="10.00" fill="grey">&lt; rm::msg::JointTrajectory &gt;</text>
</g>
</g>
</svg>
