<?xml version="1.0" encoding="UTF-8" standalone="no"?>
<!DOCTYPE svg PUBLIC "-//W3C//DTD SVG 1.1//EN"
 "http://www.w3.org/Graphics/SVG/1.1/DTD/svg11.dtd">
<!-- Generated by graphviz version 2.43.0 (0)
 -->
<!-- Title: rm::RungeKutta Pages: 1 -->
<svg width="476pt" height="620pt"
 viewBox="0.00 0.00 476.00 620.00" xmlns="http://www.w3.org/2000/svg" xmlns:xlink="http://www.w3.org/1999/xlink">
<g id="graph0" class="graph" transform="scale(1 1) rotate(0) translate(4 616)">
<title>rm::RungeKutta</title>
<!-- Node1 -->
<g id="Node000001" class="node">
<title>Node1</title>
<g id="a_Node000001"><a xlink:title="Butcher 表形式的常微分方程（组）数值求解器">
<polygon fill="#999999" stroke="transparent" points="391,-109 311,-109 311,0 391,0 391,-109"/>
<text text-anchor="start" x="316" y="-96.5" font-family="Helvetica,sans-Serif" font-size="10.00">rm::RungeKutta</text>
<text text-anchor="start" x="349" y="-81.5" font-family="Helvetica,sans-Serif" font-size="10.00"> </text>
<text text-anchor="start" x="315.5" y="-66.5" font-family="Helvetica,sans-Serif" font-size="10.00">+</text>
<text text-anchor="start" x="327" y="-66.5" font-family="Helvetica,sans-Serif" font-size="10.00">RungeKutta()</text>
<text text-anchor="start" x="315.5" y="-51.5" font-family="Helvetica,sans-Serif" font-size="10.00">+</text>
<text text-anchor="start" x="327" y="-51.5" font-family="Helvetica,sans-Serif" font-size="10.00">init()</text>
<text text-anchor="start" x="315.5" y="-36.5" font-family="Helvetica,sans-Serif" font-size="10.00">+</text>
<text text-anchor="start" x="327" y="-36.5" font-family="Helvetica,sans-Serif" font-size="10.00">init()</text>
<text text-anchor="start" x="315.5" y="-21.5" font-family="Helvetica,sans-Serif" font-size="10.00">+</text>
<text text-anchor="start" x="327" y="-21.5" font-family="Helvetica,sans-Serif" font-size="10.00">solve()</text>
<text text-anchor="start" x="315.5" y="-6.5" font-family="Helvetica,sans-Serif" font-size="10.00">+</text>
<text text-anchor="start" x="327" y="-6.5" font-family="Helvetica,sans-Serif" font-size="10.00">generate()</text>
<polygon fill="#666666" stroke="#666666" points="311,-91.5 311,-91.5 391,-91.5 391,-91.5 311,-91.5"/>
<polygon fill="#666666" stroke="#666666" points="311,-76.5 311,-76.5 391,-76.5 391,-76.5 311,-76.5"/>
<polygon fill="none" stroke="#666666" points="311,0 311,-109 391,-109 391,0 311,0"/>
</a>
</g>
</g>
<!-- Node2 -->
<g id="Node000002" class="node">
<title>Node2</title>
<g id="a_Node000002"><a xlink:title=" ">
<polygon fill="white" stroke="transparent" points="126,-311 0,-311 0,-240 126,-240 126,-311"/>
<text text-anchor="start" x="5" y="-298.5" font-family="Helvetica,sans-Serif" font-size="10.00">std::vector&lt; std::function</text>
<text text-anchor="start" x="5" y="-287.5" font-family="Helvetica,sans-Serif" font-size="10.00">&lt; double(double, const std</text>
<text text-anchor="start" x="5.5" y="-276.5" font-family="Helvetica,sans-Serif" font-size="10.00">::valarray&lt; double &gt; &amp;)&gt; &gt;</text>
<text text-anchor="start" x="20.5" y="-261.5" font-family="Helvetica,sans-Serif" font-size="10.00">+</text>
<text text-anchor="start" x="48" y="-261.5" font-family="Helvetica,sans-Serif" font-size="10.00">elements</text>
<text text-anchor="start" x="61" y="-246.5" font-family="Helvetica,sans-Serif" font-size="10.00"> </text>
<polygon fill="#666666" stroke="#666666" points="0,-271.5 0,-271.5 126,-271.5 126,-271.5 0,-271.5"/>
<polygon fill="#666666" stroke="#666666" points="0,-256.5 0,-256.5 46,-256.5 46,-256.5 0,-256.5"/>
<polygon fill="#666666" stroke="#666666" points="46,-256.5 46,-256.5 126,-256.5 126,-256.5 46,-256.5"/>
<polygon fill="none" stroke="#666666" points="0,-240 0,-311 126,-311 126,-240 0,-240"/>
</a>
</g>
</g>
<!-- Node2&#45;&gt;Node1 -->
<g id="edge1_Node000001_Node000002" class="edge">
<title>Node2&#45;&gt;Node1</title>
<g id="a_edge1_Node000001_Node000002"><a xlink:title=" ">
<path fill="none" stroke="#63b8ff" d="M101.72,-239.97C127.82,-217.15 163.31,-186.96 196,-162 230.04,-136.01 269.89,-108.69 300.66,-88.23"/>
<polygon fill="none" stroke="#63b8ff" points="300.72,-88.19 303.52,-81.55 310.73,-81.57 307.93,-88.22 300.72,-88.19"/>
</a>
</g>
<text text-anchor="start" x="199.5" y="-189" font-family="Helvetica,sans-Serif" font-size="10.00" fill="grey">#_fs</text>
</g>
<!-- Node3 -->
<g id="Node000003" class="node">
<title>Node3</title>
<g id="a_Node000003"><a xlink:title=" ">
<polygon fill="white" stroke="transparent" points="91.5,-510 10.5,-510 10.5,-461 91.5,-461 91.5,-510"/>
<text text-anchor="start" x="16" y="-497.5" font-family="Helvetica,sans-Serif" font-size="10.00">std::vector&lt; T &gt;</text>
<text text-anchor="start" x="49.5" y="-482.5" font-family="Helvetica,sans-Serif" font-size="10.00"> </text>
<text text-anchor="start" x="49.5" y="-467.5" font-family="Helvetica,sans-Serif" font-size="10.00"> </text>
<polygon fill="#666666" stroke="#666666" points="11,-492.5 11,-492.5 92,-492.5 92,-492.5 11,-492.5"/>
<polygon fill="#666666" stroke="#666666" points="11,-477.5 11,-477.5 92,-477.5 92,-477.5 11,-477.5"/>
<polygon fill="none" stroke="#666666" points="10.5,-461 10.5,-510 91.5,-510 91.5,-461 10.5,-461"/>
</a>
</g>
</g>
<!-- Node3&#45;&gt;Node2 -->
<g id="edge2_Node000002_Node000003" class="edge">
<title>Node3&#45;&gt;Node2</title>
<g id="a_edge2_Node000002_Node000003"><a xlink:title=" ">
<path fill="none" stroke="orange" d="M32.59,-451.41C31.56,-448.62 30.67,-445.8 30,-443 19.19,-397.71 34.3,-344.9 47.44,-311.11"/>
<polygon fill="orange" stroke="orange" points="29.4,-452.85 36.57,-460.65 35.83,-450.09 29.4,-452.85"/>
</a>
</g>
<text text-anchor="start" x="33.5" y="-431.5" font-family="Helvetica,sans-Serif" font-size="10.00" fill="grey">&lt; std::function&lt; double</text>
<text text-anchor="start" x="33.5" y="-416.5" font-family="Helvetica,sans-Serif" font-size="10.00" fill="grey">  (double, const std::valarray</text>
<text text-anchor="start" x="33.5" y="-401.5" font-family="Helvetica,sans-Serif" font-size="10.00" fill="grey">  &lt; double &gt; &amp;)&gt; &gt;</text>
</g>
<!-- Node4 -->
<g id="Node000004" class="node">
<title>Node4</title>
<g id="a_Node000004"><a xlink:title=" ">
<polygon fill="white" stroke="transparent" points="110.5,-612 93.5,-612 93.5,-563 110.5,-563 110.5,-612"/>
<text text-anchor="start" x="99" y="-599.5" font-family="Helvetica,sans-Serif" font-size="10.00">T</text>
<text text-anchor="start" x="100.5" y="-584.5" font-family="Helvetica,sans-Serif" font-size="10.00"> </text>
<text text-anchor="start" x="100.5" y="-569.5" font-family="Helvetica,sans-Serif" font-size="10.00"> </text>
<polygon fill="#666666" stroke="#666666" points="94,-594.5 94,-594.5 111,-594.5 111,-594.5 94,-594.5"/>
<polygon fill="#666666" stroke="#666666" points="94,-579.5 94,-579.5 111,-579.5 111,-579.5 94,-579.5"/>
<polygon fill="none" stroke="#666666" points="93.5,-563 93.5,-612 110.5,-612 110.5,-563 93.5,-563"/>
</a>
</g>
</g>
<!-- Node4&#45;&gt;Node3 -->
<g id="edge3_Node000003_Node000004" class="edge">
<title>Node4&#45;&gt;Node3</title>
<g id="a_edge3_Node000003_Node000004"><a xlink:title=" ">
<path fill="none" stroke="#63b8ff" d="M93.33,-575.71C87.1,-567.6 78.82,-556.04 73,-545 69.14,-537.67 65.62,-529.51 62.59,-521.66"/>
<polygon fill="none" stroke="#63b8ff" points="62.5,-521.41 56.68,-517.15 58.38,-510.14 64.2,-514.4 62.5,-521.41"/>
</a>
</g>
<text text-anchor="start" x="76" y="-533.5" font-family="Helvetica,sans-Serif" font-size="10.00" fill="grey">+elements</text>
</g>
<!-- Node7 -->
<g id="Node000007" class="node">
<title>Node7</title>
<g id="a_Node000007"><a xlink:title=" ">
<polygon fill="white" stroke="transparent" points="219.5,-510 130.5,-510 130.5,-461 219.5,-461 219.5,-510"/>
<text text-anchor="start" x="136" y="-497.5" font-family="Helvetica,sans-Serif" font-size="10.00">std::valarray&lt; T &gt;</text>
<text text-anchor="start" x="173.5" y="-482.5" font-family="Helvetica,sans-Serif" font-size="10.00"> </text>
<text text-anchor="start" x="173.5" y="-467.5" font-family="Helvetica,sans-Serif" font-size="10.00"> </text>
<polygon fill="#666666" stroke="#666666" points="131,-492.5 131,-492.5 220,-492.5 220,-492.5 131,-492.5"/>
<polygon fill="#666666" stroke="#666666" points="131,-477.5 131,-477.5 220,-477.5 220,-477.5 131,-477.5"/>
<polygon fill="none" stroke="#666666" points="130.5,-461 130.5,-510 219.5,-510 219.5,-461 130.5,-461"/>
</a>
</g>
</g>
<!-- Node4&#45;&gt;Node7 -->
<g id="edge8_Node000007_Node000004" class="edge">
<title>Node4&#45;&gt;Node7</title>
<g id="a_edge8_Node000007_Node000004"><a xlink:title=" ">
<path fill="none" stroke="#63b8ff" d="M110.66,-574.64C120.46,-561.22 136.84,-538.77 150.62,-519.89"/>
<polygon fill="none" stroke="#63b8ff" points="150.67,-519.83 150.98,-512.62 157.75,-510.13 157.44,-517.34 150.67,-519.83"/>
</a>
</g>
<text text-anchor="start" x="146" y="-533.5" font-family="Helvetica,sans-Serif" font-size="10.00" fill="grey">+elements</text>
</g>
<!-- Node5 -->
<g id="Node000005" class="node">
<title>Node5</title>
<g id="a_Node000005"><a xlink:title=" ">
<polygon fill="white" stroke="transparent" points="439.5,-510 400.5,-510 400.5,-461 439.5,-461 439.5,-510"/>
<text text-anchor="start" x="406" y="-497.5" font-family="Helvetica,sans-Serif" font-size="10.00">double</text>
<text text-anchor="start" x="418.5" y="-482.5" font-family="Helvetica,sans-Serif" font-size="10.00"> </text>
<text text-anchor="start" x="418.5" y="-467.5" font-family="Helvetica,sans-Serif" font-size="10.00"> </text>
<polygon fill="#666666" stroke="#666666" points="401,-492.5 401,-492.5 440,-492.5 440,-492.5 401,-492.5"/>
<polygon fill="#666666" stroke="#666666" points="401,-477.5 401,-477.5 440,-477.5 440,-477.5 401,-477.5"/>
<polygon fill="none" stroke="#666666" points="400.5,-461 400.5,-510 439.5,-510 439.5,-461 400.5,-461"/>
</a>
</g>
</g>
<!-- Node5&#45;&gt;Node1 -->
<g id="edge4_Node000001_Node000005" class="edge">
<title>Node5&#45;&gt;Node1</title>
<g id="a_edge4_Node000001_Node000005"><a xlink:title=" ">
<path fill="none" stroke="#63b8ff" d="M436.48,-460.86C439.58,-455.25 442.36,-449.11 444,-443 449.41,-422.82 444.93,-416.87 444,-396 439.33,-291.41 451.91,-260.7 417,-162 411.91,-147.6 404.64,-133.08 396.78,-119.6"/>
<polygon fill="none" stroke="#63b8ff" points="396.59,-119.3 390.06,-116.24 390.37,-109.03 396.9,-112.09 396.59,-119.3"/>
</a>
</g>
<text text-anchor="start" x="446.5" y="-272.5" font-family="Helvetica,sans-Serif" font-size="10.00" fill="grey">#_t0</text>
</g>
<!-- Node6 -->
<g id="Node000006" class="node">
<title>Node6</title>
<g id="a_Node000006"><a xlink:title=" ">
<polygon fill="white" stroke="transparent" points="429.5,-378 318.5,-378 318.5,-329 429.5,-329 429.5,-378"/>
<text text-anchor="start" x="324" y="-365.5" font-family="Helvetica,sans-Serif" font-size="10.00">std::valarray&lt; double &gt;</text>
<text text-anchor="start" x="372.5" y="-350.5" font-family="Helvetica,sans-Serif" font-size="10.00"> </text>
<text text-anchor="start" x="372.5" y="-335.5" font-family="Helvetica,sans-Serif" font-size="10.00"> </text>
<polygon fill="#666666" stroke="#666666" points="319,-360.5 319,-360.5 430,-360.5 430,-360.5 319,-360.5"/>
<polygon fill="#666666" stroke="#666666" points="319,-345.5 319,-345.5 430,-345.5 430,-345.5 319,-345.5"/>
<polygon fill="none" stroke="#666666" points="318.5,-329 318.5,-378 429.5,-378 429.5,-329 318.5,-329"/>
</a>
</g>
</g>
<!-- Node5&#45;&gt;Node6 -->
<g id="edge6_Node000006_Node000005" class="edge">
<title>Node5&#45;&gt;Node6</title>
<g id="a_edge6_Node000006_Node000005"><a xlink:title=" ">
<path fill="none" stroke="#63b8ff" d="M401.73,-460.84C398.06,-455.22 394.55,-449.09 392,-443 384.99,-426.29 380.64,-406.64 377.98,-390.1"/>
<polygon fill="none" stroke="#63b8ff" points="377.97,-390.04 373.16,-384.67 376.26,-378.16 381.07,-383.53 377.97,-390.04"/>
</a>
</g>
<text text-anchor="start" x="395" y="-416.5" font-family="Helvetica,sans-Serif" font-size="10.00" fill="grey">+elements</text>
</g>
<!-- Node6&#45;&gt;Node1 -->
<g id="edge5_Node000001_Node000006" class="edge">
<title>Node6&#45;&gt;Node1</title>
<g id="a_edge5_Node000001_Node000006"><a xlink:title=" ">
<path fill="none" stroke="#63b8ff" d="M372.18,-328.95C368.74,-284.61 361.21,-187.3 356.12,-121.55"/>
<polygon fill="none" stroke="#63b8ff" points="356.09,-121.22 351.64,-115.55 355.16,-109.26 359.61,-114.93 356.09,-121.22"/>
</a>
</g>
<text text-anchor="start" x="367.5" y="-204" font-family="Helvetica,sans-Serif" font-size="10.00" fill="grey">#_lambda</text>
<text text-anchor="start" x="367.5" y="-189" font-family="Helvetica,sans-Serif" font-size="10.00" fill="grey">#_p</text>
<text text-anchor="start" x="367.5" y="-174" font-family="Helvetica,sans-Serif" font-size="10.00" fill="grey">#_x0</text>
</g>
<!-- Node8 -->
<g id="Node000008" class="node">
<title>Node8</title>
<g id="a_Node000008"><a xlink:title=" ">
<polygon fill="white" stroke="transparent" points="337.5,-222 230.5,-222 230.5,-162 337.5,-162 337.5,-222"/>
<text text-anchor="start" x="236" y="-210" font-family="Helvetica,sans-Serif" font-size="10.00">std::valarray&lt; std</text>
<text text-anchor="start" x="236" y="-199" font-family="Helvetica,sans-Serif" font-size="10.00">::valarray&lt; double &gt; &gt;</text>
<text text-anchor="start" x="282.5" y="-184" font-family="Helvetica,sans-Serif" font-size="10.00"> </text>
<text text-anchor="start" x="282.5" y="-169" font-family="Helvetica,sans-Serif" font-size="10.00"> </text>
<polygon fill="#666666" stroke="#666666" points="231,-194 231,-194 338,-194 338,-194 231,-194"/>
<polygon fill="#666666" stroke="#666666" points="231,-179 231,-179 338,-179 338,-179 231,-179"/>
<polygon fill="none" stroke="#666666" points="230.5,-162 230.5,-222 337.5,-222 337.5,-162 230.5,-162"/>
</a>
</g>
</g>
<!-- Node6&#45;&gt;Node8 -->
<g id="edge10_Node000008_Node000006" class="edge">
<title>Node6&#45;&gt;Node8</title>
<g id="a_edge10_Node000008_Node000006"><a xlink:title=" ">
<path fill="none" stroke="#63b8ff" d="M325.63,-328.77C318.9,-323.7 312.7,-317.79 308,-311 292.51,-288.6 286.57,-258.43 284.47,-234.21"/>
<polygon fill="none" stroke="#63b8ff" points="284.47,-234.13 280.09,-228.4 283.69,-222.16 288.07,-227.89 284.47,-234.13"/>
</a>
</g>
<text text-anchor="start" x="311" y="-272.5" font-family="Helvetica,sans-Serif" font-size="10.00" fill="grey">+elements</text>
</g>
<!-- Node7&#45;&gt;Node6 -->
<g id="edge7_Node000006_Node000007" class="edge">
<title>Node7&#45;&gt;Node6</title>
<g id="a_edge7_Node000006_Node000007"><a xlink:title=" ">
<path fill="none" stroke="orange" d="M219.79,-455.24C255.46,-431.94 304.73,-399.75 337.9,-378.09"/>
<polygon fill="orange" stroke="orange" points="217.5,-452.56 211.04,-460.96 221.32,-458.42 217.5,-452.56"/>
</a>
</g>
<text text-anchor="start" x="313.5" y="-416.5" font-family="Helvetica,sans-Serif" font-size="10.00" fill="grey">&lt; double &gt;</text>
</g>
<!-- Node7&#45;&gt;Node8 -->
<g id="edge11_Node000008_Node000007" class="edge">
<title>Node7&#45;&gt;Node8</title>
<g id="a_edge11_Node000008_Node000007"><a xlink:title=" ">
<path fill="none" stroke="orange" d="M171.53,-450.5C169.48,-418.24 169.63,-368.88 184,-329 198.95,-287.51 230.89,-247.8 254.67,-222.11"/>
<polygon fill="orange" stroke="orange" points="168.06,-451.04 172.29,-460.75 175.04,-450.52 168.06,-451.04"/>
</a>
</g>
<text text-anchor="start" x="187.5" y="-350.5" font-family="Helvetica,sans-Serif" font-size="10.00" fill="grey">&lt; std::valarray&lt; double &gt; &gt;</text>
</g>
<!-- Node8&#45;&gt;Node1 -->
<g id="edge9_Node000001_Node000008" class="edge">
<title>Node8&#45;&gt;Node1</title>
<g id="a_edge9_Node000001_Node000008"><a xlink:title=" ">
<path fill="none" stroke="#63b8ff" d="M298.37,-161.93C304.44,-149.66 311.77,-134.85 319,-120.22"/>
<polygon fill="none" stroke="#63b8ff" points="319.17,-119.88 318.24,-112.72 324.49,-109.12 325.41,-116.27 319.17,-119.88"/>
</a>
</g>
<text text-anchor="start" x="319" y="-132.5" font-family="Helvetica,sans-Serif" font-size="10.00" fill="grey">#_r</text>
</g>
</g>
</svg>
