<?xml version="1.0" encoding="UTF-8" standalone="no"?>
<!DOCTYPE svg PUBLIC "-//W3C//DTD SVG 1.1//EN"
 "http://www.w3.org/Graphics/SVG/1.1/DTD/svg11.dtd">
<!-- Generated by graphviz version 2.43.0 (0)
 -->
<!-- Title: rm::RungeKutta Pages: 1 -->
<svg width="564pt" height="578pt"
 viewBox="0.00 0.00 563.50 578.00" xmlns="http://www.w3.org/2000/svg" xmlns:xlink="http://www.w3.org/1999/xlink">
<g id="graph0" class="graph" transform="scale(1 1) rotate(0) translate(4 574)">
<title>rm::RungeKutta</title>
<!-- Node1 -->
<g id="Node000001" class="node">
<title>Node1</title>
<g id="a_Node000001"><a xlink:title="Butcher 表形式的常微分方程（组）数值求解器">
<polygon fill="#999999" stroke="transparent" points="327.5,-109 247.5,-109 247.5,0 327.5,0 327.5,-109"/>
<text text-anchor="start" x="252.5" y="-96.5" font-family="Helvetica,sans-Serif" font-size="10.00">rm::RungeKutta</text>
<text text-anchor="start" x="285.5" y="-81.5" font-family="Helvetica,sans-Serif" font-size="10.00"> </text>
<text text-anchor="start" x="252" y="-66.5" font-family="Helvetica,sans-Serif" font-size="10.00">+</text>
<text text-anchor="start" x="263.5" y="-66.5" font-family="Helvetica,sans-Serif" font-size="10.00">RungeKutta()</text>
<text text-anchor="start" x="252" y="-51.5" font-family="Helvetica,sans-Serif" font-size="10.00">+</text>
<text text-anchor="start" x="263.5" y="-51.5" font-family="Helvetica,sans-Serif" font-size="10.00">init()</text>
<text text-anchor="start" x="252" y="-36.5" font-family="Helvetica,sans-Serif" font-size="10.00">+</text>
<text text-anchor="start" x="263.5" y="-36.5" font-family="Helvetica,sans-Serif" font-size="10.00">init()</text>
<text text-anchor="start" x="252" y="-21.5" font-family="Helvetica,sans-Serif" font-size="10.00">+</text>
<text text-anchor="start" x="263.5" y="-21.5" font-family="Helvetica,sans-Serif" font-size="10.00">solve()</text>
<text text-anchor="start" x="252" y="-6.5" font-family="Helvetica,sans-Serif" font-size="10.00">+</text>
<text text-anchor="start" x="263.5" y="-6.5" font-family="Helvetica,sans-Serif" font-size="10.00">generate()</text>
<polygon fill="#666666" stroke="#666666" points="247.5,-91.5 247.5,-91.5 327.5,-91.5 327.5,-91.5 247.5,-91.5"/>
<polygon fill="#666666" stroke="#666666" points="247.5,-76.5 247.5,-76.5 327.5,-76.5 327.5,-76.5 247.5,-76.5"/>
<polygon fill="none" stroke="#666666" points="247.5,0 247.5,-109 327.5,-109 327.5,0 247.5,0"/>
</a>
</g>
</g>
<!-- Node2 -->
<g id="Node000002" class="node">
<title>Node2</title>
<g id="a_Node000002"><a xlink:title=" ">
<polygon fill="white" stroke="transparent" points="193.5,-334 67.5,-334 67.5,-263 193.5,-263 193.5,-334"/>
<text text-anchor="start" x="72.5" y="-321.5" font-family="Helvetica,sans-Serif" font-size="10.00">std::vector&lt; std::function</text>
<text text-anchor="start" x="72.5" y="-310.5" font-family="Helvetica,sans-Serif" font-size="10.00">&lt; double(double, const std</text>
<text text-anchor="start" x="73" y="-299.5" font-family="Helvetica,sans-Serif" font-size="10.00">::valarray&lt; double &gt; &amp;)&gt; &gt;</text>
<text text-anchor="start" x="128.5" y="-284.5" font-family="Helvetica,sans-Serif" font-size="10.00"> </text>
<text text-anchor="start" x="128.5" y="-269.5" font-family="Helvetica,sans-Serif" font-size="10.00"> </text>
<polygon fill="#666666" stroke="#666666" points="67.5,-294.5 67.5,-294.5 193.5,-294.5 193.5,-294.5 67.5,-294.5"/>
<polygon fill="#666666" stroke="#666666" points="67.5,-279.5 67.5,-279.5 193.5,-279.5 193.5,-279.5 67.5,-279.5"/>
<polygon fill="none" stroke="#666666" points="67.5,-263 67.5,-334 193.5,-334 193.5,-263 67.5,-263"/>
</a>
</g>
</g>
<!-- Node2&#45;&gt;Node1 -->
<g id="edge1_Node000001_Node000002" class="edge">
<title>Node2&#45;&gt;Node1</title>
<g id="a_edge1_Node000001_Node000002"><a xlink:title=" ">
<path fill="none" stroke="#63b8ff" d="M152.99,-262.83C177.19,-225.53 216.21,-165.38 246.01,-119.46"/>
<polygon fill="none" stroke="#63b8ff" points="246.07,-119.37 245.98,-112.16 252.6,-109.3 252.69,-116.51 246.07,-119.37"/>
</a>
</g>
<text text-anchor="middle" x="233.5" y="-183.5" font-family="Helvetica,sans-Serif" font-size="10.00" fill="grey"> #_fs</text>
</g>
<!-- Node3 -->
<g id="Node000003" class="node">
<title>Node3</title>
<g id="a_Node000003"><a xlink:title=" ">
<polygon fill="white" stroke="transparent" points="117,-474 0,-474 0,-403 117,-403 117,-474"/>
<text text-anchor="start" x="5.5" y="-461.5" font-family="Helvetica,sans-Serif" font-size="10.00">function&lt; double(double,</text>
<text text-anchor="start" x="5.5" y="-450.5" font-family="Helvetica,sans-Serif" font-size="10.00"> const std::valarray&lt;</text>
<text text-anchor="start" x="29" y="-439.5" font-family="Helvetica,sans-Serif" font-size="10.00"> double &gt; &amp;)&gt;</text>
<text text-anchor="start" x="57" y="-424.5" font-family="Helvetica,sans-Serif" font-size="10.00"> </text>
<text text-anchor="start" x="57" y="-409.5" font-family="Helvetica,sans-Serif" font-size="10.00"> </text>
<polygon fill="#666666" stroke="#666666" points="0.5,-434.5 0.5,-434.5 117.5,-434.5 117.5,-434.5 0.5,-434.5"/>
<polygon fill="#666666" stroke="#666666" points="0.5,-419.5 0.5,-419.5 117.5,-419.5 117.5,-419.5 0.5,-419.5"/>
<polygon fill="none" stroke="#666666" points="0,-403 0,-474 117,-474 117,-403 0,-403"/>
</a>
</g>
</g>
<!-- Node3&#45;&gt;Node2 -->
<g id="edge2_Node000002_Node000003" class="edge">
<title>Node3&#45;&gt;Node2</title>
<g id="a_edge2_Node000002_Node000003"><a xlink:title=" ">
<path fill="none" stroke="#63b8ff" d="M58.42,-402.91C59.68,-386.63 63.12,-367.44 71.5,-352 73.07,-349.11 74.87,-346.29 76.83,-343.57"/>
<polygon fill="none" stroke="#63b8ff" points="76.96,-343.41 77.68,-336.23 84.58,-334.13 83.86,-341.31 76.96,-343.41"/>
</a>
</g>
<text text-anchor="middle" x="96" y="-366" font-family="Helvetica,sans-Serif" font-size="10.00" fill="grey"> +elements</text>
</g>
<!-- Node4 -->
<g id="Node000004" class="node">
<title>Node4</title>
<g id="a_Node000004"><a xlink:title=" ">
<polygon fill="white" stroke="transparent" points="233,-463 152,-463 152,-414 233,-414 233,-463"/>
<text text-anchor="start" x="157.5" y="-450.5" font-family="Helvetica,sans-Serif" font-size="10.00">std::vector&lt; T &gt;</text>
<text text-anchor="start" x="191" y="-435.5" font-family="Helvetica,sans-Serif" font-size="10.00"> </text>
<text text-anchor="start" x="191" y="-420.5" font-family="Helvetica,sans-Serif" font-size="10.00"> </text>
<polygon fill="#666666" stroke="#666666" points="152.5,-445.5 152.5,-445.5 233.5,-445.5 233.5,-445.5 152.5,-445.5"/>
<polygon fill="#666666" stroke="#666666" points="152.5,-430.5 152.5,-430.5 233.5,-430.5 233.5,-430.5 152.5,-430.5"/>
<polygon fill="none" stroke="#666666" points="152,-414 152,-463 233,-463 233,-414 152,-414"/>
</a>
</g>
</g>
<!-- Node4&#45;&gt;Node2 -->
<g id="edge3_Node000002_Node000004" class="edge">
<title>Node4&#45;&gt;Node2</title>
<g id="a_edge3_Node000002_Node000004"><a xlink:title=" ">
<path fill="none" stroke="orange" d="M147.18,-406.66C140.84,-400.27 135.23,-393.01 131.5,-385 124.23,-369.39 123.34,-350.37 124.55,-334.24"/>
<polygon fill="orange" stroke="orange" points="145.15,-409.55 154.88,-413.75 149.89,-404.4 145.15,-409.55"/>
</a>
</g>
<text text-anchor="start" x="131.5" y="-377" font-family="Helvetica,sans-Serif" font-size="10.00" fill="grey"> &lt; std::function&lt; double</text>
<text text-anchor="start" x="131.5" y="-366" font-family="Helvetica,sans-Serif" font-size="10.00" fill="grey">(double, const std::valarray</text>
<text text-anchor="middle" x="191" y="-355" font-family="Helvetica,sans-Serif" font-size="10.00" fill="grey">&lt; double &gt; &amp;)&gt; &gt;</text>
</g>
<!-- Node5 -->
<g id="Node000005" class="node">
<title>Node5</title>
<g id="a_Node000005"><a xlink:title=" ">
<polygon fill="white" stroke="transparent" points="295,-570 278,-570 278,-521 295,-521 295,-570"/>
<text text-anchor="start" x="283.5" y="-557.5" font-family="Helvetica,sans-Serif" font-size="10.00">T</text>
<text text-anchor="start" x="285" y="-542.5" font-family="Helvetica,sans-Serif" font-size="10.00"> </text>
<text text-anchor="start" x="285" y="-527.5" font-family="Helvetica,sans-Serif" font-size="10.00"> </text>
<polygon fill="#666666" stroke="#666666" points="278.5,-552.5 278.5,-552.5 295.5,-552.5 295.5,-552.5 278.5,-552.5"/>
<polygon fill="#666666" stroke="#666666" points="278.5,-537.5 278.5,-537.5 295.5,-537.5 295.5,-537.5 278.5,-537.5"/>
<polygon fill="none" stroke="#666666" points="278,-521 278,-570 295,-570 295,-521 278,-521"/>
</a>
</g>
</g>
<!-- Node5&#45;&gt;Node4 -->
<g id="edge4_Node000004_Node000005" class="edge">
<title>Node5&#45;&gt;Node4</title>
<g id="a_edge4_Node000004_Node000005"><a xlink:title=" ">
<path fill="none" stroke="#63b8ff" d="M277.83,-534.81C265.24,-520.75 241.29,-494 221.97,-472.41"/>
<polygon fill="none" stroke="#63b8ff" points="221.75,-472.17 214.76,-470.37 213.74,-463.23 220.72,-465.03 221.75,-472.17"/>
</a>
</g>
<text text-anchor="middle" x="273" y="-495" font-family="Helvetica,sans-Serif" font-size="10.00" fill="grey"> +elements</text>
</g>
<!-- Node8 -->
<g id="Node000008" class="node">
<title>Node8</title>
<g id="a_Node000008"><a xlink:title=" ">
<polygon fill="white" stroke="transparent" points="414,-463 325,-463 325,-414 414,-414 414,-463"/>
<text text-anchor="start" x="330.5" y="-450.5" font-family="Helvetica,sans-Serif" font-size="10.00">std::valarray&lt; T &gt;</text>
<text text-anchor="start" x="368" y="-435.5" font-family="Helvetica,sans-Serif" font-size="10.00"> </text>
<text text-anchor="start" x="368" y="-420.5" font-family="Helvetica,sans-Serif" font-size="10.00"> </text>
<polygon fill="#666666" stroke="#666666" points="325.5,-445.5 325.5,-445.5 414.5,-445.5 414.5,-445.5 325.5,-445.5"/>
<polygon fill="#666666" stroke="#666666" points="325.5,-430.5 325.5,-430.5 414.5,-430.5 414.5,-430.5 325.5,-430.5"/>
<polygon fill="none" stroke="#666666" points="325,-414 325,-463 414,-463 414,-414 325,-414"/>
</a>
</g>
</g>
<!-- Node5&#45;&gt;Node8 -->
<g id="edge9_Node000008_Node000005" class="edge">
<title>Node5&#45;&gt;Node8</title>
<g id="a_edge9_Node000008_Node000005"><a xlink:title=" ">
<path fill="none" stroke="#63b8ff" d="M295.07,-533.66C306.37,-519.36 326.76,-493.57 343.34,-472.59"/>
<polygon fill="none" stroke="#63b8ff" points="343.44,-472.47 344.02,-465.28 350.88,-463.05 350.3,-470.24 343.44,-472.47"/>
</a>
</g>
<text text-anchor="middle" x="352" y="-495" font-family="Helvetica,sans-Serif" font-size="10.00" fill="grey"> +elements</text>
</g>
<!-- Node6 -->
<g id="Node000006" class="node">
<title>Node6</title>
<g id="a_Node000006"><a xlink:title=" ">
<polygon fill="white" stroke="transparent" points="295,-463 256,-463 256,-414 295,-414 295,-463"/>
<text text-anchor="start" x="261.5" y="-450.5" font-family="Helvetica,sans-Serif" font-size="10.00">double</text>
<text text-anchor="start" x="274" y="-435.5" font-family="Helvetica,sans-Serif" font-size="10.00"> </text>
<text text-anchor="start" x="274" y="-420.5" font-family="Helvetica,sans-Serif" font-size="10.00"> </text>
<polygon fill="#666666" stroke="#666666" points="256.5,-445.5 256.5,-445.5 295.5,-445.5 295.5,-445.5 256.5,-445.5"/>
<polygon fill="#666666" stroke="#666666" points="256.5,-430.5 256.5,-430.5 295.5,-430.5 295.5,-430.5 256.5,-430.5"/>
<polygon fill="none" stroke="#666666" points="256,-414 256,-463 295,-463 295,-414 256,-414"/>
</a>
</g>
</g>
<!-- Node6&#45;&gt;Node1 -->
<g id="edge5_Node000001_Node000006" class="edge">
<title>Node6&#45;&gt;Node1</title>
<g id="a_edge5_Node000001_Node000006"><a xlink:title=" ">
<path fill="none" stroke="#63b8ff" d="M276.24,-413.89C278.05,-356.47 282.71,-207.85 285.44,-121.1"/>
<polygon fill="none" stroke="#63b8ff" points="285.44,-121.02 281.63,-114.89 285.82,-109.02 289.63,-115.15 285.44,-121.02"/>
</a>
</g>
<text text-anchor="middle" x="293.5" y="-237" font-family="Helvetica,sans-Serif" font-size="10.00" fill="grey"> #_t0</text>
</g>
<!-- Node7 -->
<g id="Node000007" class="node">
<title>Node7</title>
<g id="a_Node000007"><a xlink:title=" ">
<polygon fill="white" stroke="transparent" points="404,-323 293,-323 293,-274 404,-274 404,-323"/>
<text text-anchor="start" x="298.5" y="-310.5" font-family="Helvetica,sans-Serif" font-size="10.00">std::valarray&lt; double &gt;</text>
<text text-anchor="start" x="347" y="-295.5" font-family="Helvetica,sans-Serif" font-size="10.00"> </text>
<text text-anchor="start" x="347" y="-280.5" font-family="Helvetica,sans-Serif" font-size="10.00"> </text>
<polygon fill="#666666" stroke="#666666" points="293.5,-305.5 293.5,-305.5 404.5,-305.5 404.5,-305.5 293.5,-305.5"/>
<polygon fill="#666666" stroke="#666666" points="293.5,-290.5 293.5,-290.5 404.5,-290.5 404.5,-290.5 293.5,-290.5"/>
<polygon fill="none" stroke="#666666" points="293,-274 293,-323 404,-323 404,-274 293,-274"/>
</a>
</g>
</g>
<!-- Node6&#45;&gt;Node7 -->
<g id="edge7_Node000007_Node000006" class="edge">
<title>Node6&#45;&gt;Node7</title>
<g id="a_edge7_Node000007_Node000006"><a xlink:title=" ">
<path fill="none" stroke="#63b8ff" d="M280.55,-413.98C284.99,-396.2 292.47,-371.6 303.5,-352 307.29,-345.27 312.01,-338.61 316.96,-332.41"/>
<polygon fill="none" stroke="#63b8ff" points="317.09,-332.26 317.9,-325.1 324.83,-323.09 324.01,-330.26 317.09,-332.26"/>
</a>
</g>
<text text-anchor="middle" x="328" y="-366" font-family="Helvetica,sans-Serif" font-size="10.00" fill="grey"> +elements</text>
</g>
<!-- Node7&#45;&gt;Node1 -->
<g id="edge6_Node000001_Node000007" class="edge">
<title>Node7&#45;&gt;Node1</title>
<g id="a_edge6_Node000001_Node000007"><a xlink:title=" ">
<path fill="none" stroke="#63b8ff" d="M339.48,-273.86C333.54,-257.72 325.9,-235.77 320.5,-216 312.07,-185.15 304.67,-150.43 299.04,-121.2"/>
<polygon fill="none" stroke="#63b8ff" points="298.97,-120.83 293.92,-115.68 296.73,-109.04 301.78,-114.19 298.97,-120.83"/>
</a>
</g>
<text text-anchor="middle" x="343.5" y="-194.5" font-family="Helvetica,sans-Serif" font-size="10.00" fill="grey"> #_lambda</text>
<text text-anchor="middle" x="343.5" y="-183.5" font-family="Helvetica,sans-Serif" font-size="10.00" fill="grey">#_p</text>
<text text-anchor="middle" x="343.5" y="-172.5" font-family="Helvetica,sans-Serif" font-size="10.00" fill="grey">#_x0</text>
</g>
<!-- Node9 -->
<g id="Node000009" class="node">
<title>Node9</title>
<g id="a_Node000009"><a xlink:title=" ">
<polygon fill="white" stroke="transparent" points="482,-216 375,-216 375,-156 482,-156 482,-216"/>
<text text-anchor="start" x="380.5" y="-204" font-family="Helvetica,sans-Serif" font-size="10.00">std::valarray&lt; std</text>
<text text-anchor="start" x="380.5" y="-193" font-family="Helvetica,sans-Serif" font-size="10.00">::valarray&lt; double &gt; &gt;</text>
<text text-anchor="start" x="427" y="-178" font-family="Helvetica,sans-Serif" font-size="10.00"> </text>
<text text-anchor="start" x="427" y="-163" font-family="Helvetica,sans-Serif" font-size="10.00"> </text>
<polygon fill="#666666" stroke="#666666" points="375.5,-188 375.5,-188 482.5,-188 482.5,-188 375.5,-188"/>
<polygon fill="#666666" stroke="#666666" points="375.5,-173 375.5,-173 482.5,-173 482.5,-173 375.5,-173"/>
<polygon fill="none" stroke="#666666" points="375,-156 375,-216 482,-216 482,-156 375,-156"/>
</a>
</g>
</g>
<!-- Node7&#45;&gt;Node9 -->
<g id="edge11_Node000009_Node000007" class="edge">
<title>Node7&#45;&gt;Node9</title>
<g id="a_edge11_Node000009_Node000007"><a xlink:title=" ">
<path fill="none" stroke="#63b8ff" d="M356.64,-273.97C361.6,-261.45 368.68,-246.17 377.5,-234 379.69,-230.98 382.1,-228 384.64,-225.1"/>
<polygon fill="none" stroke="#63b8ff" points="384.87,-224.86 386.07,-217.75 393.1,-216.13 391.89,-223.24 384.87,-224.86"/>
</a>
</g>
<text text-anchor="middle" x="402" y="-237" font-family="Helvetica,sans-Serif" font-size="10.00" fill="grey"> +elements</text>
</g>
<!-- Node8&#45;&gt;Node7 -->
<g id="edge8_Node000007_Node000008" class="edge">
<title>Node8&#45;&gt;Node7</title>
<g id="a_edge8_Node000007_Node000008"><a xlink:title=" ">
<path fill="none" stroke="orange" d="M364.35,-403.67C360.56,-378.78 355.51,-345.54 352.13,-323.38"/>
<polygon fill="orange" stroke="orange" points="360.93,-404.42 365.89,-413.78 367.85,-403.36 360.93,-404.42"/>
</a>
</g>
<text text-anchor="middle" x="385.5" y="-366" font-family="Helvetica,sans-Serif" font-size="10.00" fill="grey"> &lt; double &gt;</text>
</g>
<!-- Node8&#45;&gt;Node9 -->
<g id="edge12_Node000009_Node000008" class="edge">
<title>Node8&#45;&gt;Node9</title>
<g id="a_edge12_Node000009_Node000008"><a xlink:title=" ">
<path fill="none" stroke="orange" d="M401.83,-405.98C406.85,-399.5 411.4,-392.39 414.5,-385 438.02,-328.91 435.76,-256.04 432.09,-216.2"/>
<polygon fill="orange" stroke="orange" points="399.01,-403.89 395.28,-413.8 404.38,-408.38 399.01,-403.89"/>
</a>
</g>
<text text-anchor="middle" x="494.5" y="-296" font-family="Helvetica,sans-Serif" font-size="10.00" fill="grey"> &lt; std::valarray&lt; double &gt; &gt;</text>
</g>
<!-- Node9&#45;&gt;Node1 -->
<g id="edge10_Node000001_Node000009" class="edge">
<title>Node9&#45;&gt;Node1</title>
<g id="a_edge10_Node000001_Node000009"><a xlink:title=" ">
<path fill="none" stroke="#63b8ff" d="M396.86,-155.94C379.11,-139.64 356.59,-118.96 336.61,-100.6"/>
<polygon fill="none" stroke="#63b8ff" points="336.47,-100.47 329.34,-99.36 327.63,-92.36 334.76,-93.47 336.47,-100.47"/>
</a>
</g>
<text text-anchor="middle" x="383" y="-130" font-family="Helvetica,sans-Serif" font-size="10.00" fill="grey"> #_r</text>
</g>
</g>
</svg>
