<?xml version="1.0" encoding="UTF-8" standalone="no"?>
<!DOCTYPE svg PUBLIC "-//W3C//DTD SVG 1.1//EN"
 "http://www.w3.org/Graphics/SVG/1.1/DTD/svg11.dtd">
<!-- Generated by graphviz version 14.1.2 (0)
 -->
<!-- Title: rm::RungeKutta Pages: 1 -->
<!--zoomable 673 -->

<svg id="main" version="1.1" xmlns="http://www.w3.org/2000/svg" xmlns:xlink="http://www.w3.org/1999/xlink" xml:space="preserve" onload="init(evt)">

<style type="text/css"><![CDATA[
.node, .edge {opacity: 0.7;}
.node.selected, .edge.selected {opacity: 1;}
.edge:hover path { stroke: red; }
.edge:hover polygon { stroke: red; fill: red; }
]]></style>

<defs>
  <circle id="rim" cx="0" cy="0" r="7"/>
  <circle id="rim2" cx="0" cy="0" r="3.5"/>
  <g id="zoomPlus">
    <use xlink:href="#rim" fill="#404040"><set attributeName="fill" to="#808080" begin="zoomplus.mouseover" end="zoomplus.mouseout"/></use>
    <path d="M-4,0h8M0,-4v8" fill="none" stroke="white" stroke-width="1.5" pointer-events="none"/>
  </g>
  <g id="zoomMin">
    <use xlink:href="#rim" fill="#404040"><set attributeName="fill" to="#808080" begin="zoomminus.mouseover" end="zoomminus.mouseout"/></use>
    <path d="M-4,0h8" fill="none" stroke="white" stroke-width="1.5" pointer-events="none"/>
  </g>
  <g id="arrowUp" transform="translate(30 24)">
    <use xlink:href="#rim"/>
    <path pointer-events="none" fill="none" stroke="white" stroke-width="1.5" d="M0,-3.0v7 M-2.5,-0.5L0,-3.0L2.5,-0.5"/>
  </g>
  <g id="arrowRight" transform="rotate(90) translate(36 -43)">
    <use xlink:href="#rim"/>
    <path pointer-events="none" fill="none" stroke="white" stroke-width="1.5" d="M0,-3.0v7 M-2.5,-0.5L0,-3.0L2.5,-0.5"/>
  </g>
  <g id="arrowDown" transform="rotate(180) translate(-30 -48)">
    <use xlink:href="#rim"/>
    <path pointer-events="none" fill="none" stroke="white" stroke-width="1.5" d="M0,-3.0v7 M-2.5,-0.5L0,-3.0L2.5,-0.5"/>
  </g>
  <g id="arrowLeft" transform="rotate(270) translate(-36 17)">
    <use xlink:href="#rim"/>
    <path pointer-events="none" fill="none" stroke="white" stroke-width="1.5" d="M0,-3.0v7 M-2.5,-0.5L0,-3.0L2.5,-0.5"/>
  </g>
  <g id="resetDef">
    <use xlink:href="#rim2" fill="#404040"><set attributeName="fill" to="#808080" begin="reset.mouseover" end="reset.mouseout"/></use>
  </g>
</defs>
<script type="application/ecmascript">
var viewWidth = 536;
var viewHeight = 673;
var sectionId = 'dynsection-1';
</script>
<script type="application/ecmascript" xlink:href="../../svg.min.js"/>
<svg id="graph" class="graph">
<g id="viewport">
<title>rm::RungeKutta</title>
<!-- Node1 -->
<g id="Node000001" class="node">
<title>Node1</title>
<g id="a_Node000001"><a xlink:title="Butcher 表形式的常微分方程（组）数值求解器">
<polygon fill="#999999" stroke="none" points="438.88,-121.25 354.88,-121.25 354.88,0 438.88,0 438.88,-121.25"/>
<text xml:space="preserve" text-anchor="start" x="359" y="-107.75" font-family="Helvetica,sans-Serif" font-size="10.00">rm::RungeKutta</text>
<text xml:space="preserve" text-anchor="start" x="395.38" y="-91" font-family="Helvetica,sans-Serif" font-size="10.00"> </text>
<text xml:space="preserve" text-anchor="start" x="358.88" y="-74.25" font-family="Helvetica,sans-Serif" font-size="10.00">+</text>
<text xml:space="preserve" text-anchor="start" x="371.12" y="-74.25" font-family="Helvetica,sans-Serif" font-size="10.00">RungeKutta()</text>
<text xml:space="preserve" text-anchor="start" x="358.88" y="-57.5" font-family="Helvetica,sans-Serif" font-size="10.00">+</text>
<text xml:space="preserve" text-anchor="start" x="371.12" y="-57.5" font-family="Helvetica,sans-Serif" font-size="10.00">init()</text>
<text xml:space="preserve" text-anchor="start" x="358.88" y="-40.75" font-family="Helvetica,sans-Serif" font-size="10.00">+</text>
<text xml:space="preserve" text-anchor="start" x="371.12" y="-40.75" font-family="Helvetica,sans-Serif" font-size="10.00">init()</text>
<text xml:space="preserve" text-anchor="start" x="358.88" y="-24" font-family="Helvetica,sans-Serif" font-size="10.00">+</text>
<text xml:space="preserve" text-anchor="start" x="371.12" y="-24" font-family="Helvetica,sans-Serif" font-size="10.00">solve()</text>
<text xml:space="preserve" text-anchor="start" x="358.88" y="-7.25" font-family="Helvetica,sans-Serif" font-size="10.00">+</text>
<text xml:space="preserve" text-anchor="start" x="371.12" y="-7.25" font-family="Helvetica,sans-Serif" font-size="10.00">generate()</text>
<polygon fill="#666666" stroke="#666666" points="354.88,-102.5 354.88,-102.5 438.88,-102.5 438.88,-102.5 354.88,-102.5"/>
<polygon fill="#666666" stroke="#666666" points="354.88,-85.75 354.88,-85.75 438.88,-85.75 438.88,-85.75 354.88,-85.75"/>
<polygon fill="none" stroke="#666666" points="354.88,0 354.88,-121.25 438.88,-121.25 438.88,0 354.88,0"/>
</a>
</g>
</g>
<!-- Node2 -->
<g id="Node000002" class="node">
<title>Node2</title>
<g id="a_Node000002"><a xlink:title=" ">
<polygon fill="white" stroke="none" points="143.75,-340.75 0,-340.75 0,-261 143.75,-261 143.75,-340.75"/>
<text xml:space="preserve" text-anchor="start" x="4" y="-327.25" font-family="Helvetica,sans-Serif" font-size="10.00">std::vector&lt; std::function</text>
<text xml:space="preserve" text-anchor="start" x="4" y="-314.5" font-family="Helvetica,sans-Serif" font-size="10.00">&lt; double(double, const std</text>
<text xml:space="preserve" text-anchor="start" x="4" y="-301.75" font-family="Helvetica,sans-Serif" font-size="10.00">::valarray&lt; double &gt; &amp;)&gt; &gt;</text>
<text xml:space="preserve" text-anchor="start" x="23.44" y="-285" font-family="Helvetica,sans-Serif" font-size="10.00">+</text>
<text xml:space="preserve" text-anchor="start" x="55.12" y="-285" font-family="Helvetica,sans-Serif" font-size="10.00">elements</text>
<text xml:space="preserve" text-anchor="start" x="70.38" y="-268.25" font-family="Helvetica,sans-Serif" font-size="10.00"> </text>
<polygon fill="#666666" stroke="#666666" points="0,-296.5 0,-296.5 143.75,-296.5 143.75,-296.5 0,-296.5"/>
<polygon fill="#666666" stroke="#666666" points="0,-279.75 0,-279.75 53.12,-279.75 53.12,-279.75 0,-279.75"/>
<polygon fill="#666666" stroke="#666666" points="53.12,-279.75 53.12,-279.75 143.75,-279.75 143.75,-279.75 53.12,-279.75"/>
<polygon fill="none" stroke="#666666" points="0,-261 0,-340.75 143.75,-340.75 143.75,-261 0,-261"/>
</a>
</g>
</g>
<!-- Node2&#45;&gt;Node1 -->
<g id="edge1_Node000001_Node000002" class="edge">
<title>Node2&#45;&gt;Node1</title>
<g id="a_edge1_Node000001_Node000002"><a xlink:title=" ">
<path fill="none" stroke="#63b8ff" d="M118.06,-261.15C148.35,-236.17 189.1,-203.37 226.38,-176 265.13,-147.54 310.39,-117.32 344.53,-95.09"/>
<polygon fill="none" stroke="#63b8ff" points="344.38,-95.19 347.24,-88.56 354.45,-88.66 351.59,-95.28 344.38,-95.19"/>
</a>
</g>
<text xml:space="preserve" text-anchor="start" x="229.38" y="-206.38" font-family="Helvetica,sans-Serif" font-size="10.00" fill="grey">#_fs</text>
</g>
<!-- Node3 -->
<g id="Node000003" class="node">
<title>Node3</title>
<g id="a_Node000003"><a xlink:title=" ">
<polygon fill="white" stroke="none" points="104,-555.5 15.75,-555.5 15.75,-501.25 104,-501.25 104,-555.5"/>
<text xml:space="preserve" text-anchor="start" x="19.75" y="-542" font-family="Helvetica,sans-Serif" font-size="10.00">std::vector&lt; T &gt;</text>
<text xml:space="preserve" text-anchor="start" x="58.38" y="-525.25" font-family="Helvetica,sans-Serif" font-size="10.00"> </text>
<text xml:space="preserve" text-anchor="start" x="58.38" y="-508.5" font-family="Helvetica,sans-Serif" font-size="10.00"> </text>
<polygon fill="#666666" stroke="#666666" points="15.75,-536.75 15.75,-536.75 104,-536.75 104,-536.75 15.75,-536.75"/>
<polygon fill="#666666" stroke="#666666" points="15.75,-520 15.75,-520 104,-520 104,-520 15.75,-520"/>
<polygon fill="none" stroke="#666666" points="15.75,-501.25 15.75,-555.5 104,-555.5 104,-501.25 15.75,-501.25"/>
</a>
</g>
</g>
<!-- Node3&#45;&gt;Node2 -->
<g id="edge2_Node000002_Node000003" class="edge">
<title>Node3&#45;&gt;Node2</title>
<g id="a_edge2_Node000002_Node000003"><a xlink:title=" ">
<path fill="none" stroke="orange" d="M38.86,-491.14C37.88,-488.52 37.03,-485.88 36.38,-483.25 24.21,-434.53 40.19,-377.59 54.44,-340.7"/>
<polygon fill="orange" stroke="orange" points="35.64,-492.51 42.88,-500.24 42.04,-489.68 35.64,-492.51"/>
</a>
</g>
<text xml:space="preserve" text-anchor="start" x="39.38" y="-470.75" font-family="Helvetica,sans-Serif" font-size="10.00" fill="grey">&lt; std::function&lt; double</text>
<text xml:space="preserve" text-anchor="start" x="39.38" y="-454" font-family="Helvetica,sans-Serif" font-size="10.00" fill="grey">  (double, const std::valarray</text>
<text xml:space="preserve" text-anchor="start" x="39.38" y="-437.25" font-family="Helvetica,sans-Serif" font-size="10.00" fill="grey">  &lt; double &gt; &amp;)&gt; &gt;</text>
</g>
<!-- Node4 -->
<g id="Node000004" class="node">
<title>Node4</title>
<g id="a_Node000004"><a xlink:title=" ">
<polygon fill="white" stroke="none" points="121.88,-664.5 107.88,-664.5 107.88,-610.25 121.88,-610.25 121.88,-664.5"/>
<text xml:space="preserve" text-anchor="start" x="111.88" y="-651" font-family="Helvetica,sans-Serif" font-size="10.00">T</text>
<text xml:space="preserve" text-anchor="start" x="113.38" y="-634.25" font-family="Helvetica,sans-Serif" font-size="10.00"> </text>
<text xml:space="preserve" text-anchor="start" x="113.38" y="-617.5" font-family="Helvetica,sans-Serif" font-size="10.00"> </text>
<polygon fill="#666666" stroke="#666666" points="107.88,-645.75 107.88,-645.75 121.88,-645.75 121.88,-645.75 107.88,-645.75"/>
<polygon fill="#666666" stroke="#666666" points="107.88,-629 107.88,-629 121.88,-629 121.88,-629 107.88,-629"/>
<polygon fill="none" stroke="#666666" points="107.88,-610.25 107.88,-664.5 121.88,-664.5 121.88,-610.25 107.88,-610.25"/>
</a>
</g>
</g>
<!-- Node4&#45;&gt;Node3 -->
<g id="edge3_Node000003_Node000004" class="edge">
<title>Node4&#45;&gt;Node3</title>
<g id="a_edge3_Node000003_Node000004"><a xlink:title=" ">
<path fill="none" stroke="#63b8ff" d="M108.01,-628.74C100.72,-620.31 89.25,-606.1 81.88,-592.25 77.76,-584.52 74.15,-575.87 71.12,-567.51"/>
<polygon fill="none" stroke="#63b8ff" points="71.09,-567.43 65.38,-563.03 67.24,-556.06 72.95,-560.46 71.09,-567.43"/>
</a>
</g>
<text xml:space="preserve" text-anchor="start" x="84.88" y="-579.75" font-family="Helvetica,sans-Serif" font-size="10.00" fill="grey">+elements</text>
</g>
<!-- Node7 -->
<g id="Node000007" class="node">
<title>Node7</title>
<g id="a_Node000007"><a xlink:title=" ">
<polygon fill="white" stroke="none" points="244.88,-555.5 146.88,-555.5 146.88,-501.25 244.88,-501.25 244.88,-555.5"/>
<text xml:space="preserve" text-anchor="start" x="150.88" y="-542" font-family="Helvetica,sans-Serif" font-size="10.00">std::valarray&lt; T &gt;</text>
<text xml:space="preserve" text-anchor="start" x="194.38" y="-525.25" font-family="Helvetica,sans-Serif" font-size="10.00"> </text>
<text xml:space="preserve" text-anchor="start" x="194.38" y="-508.5" font-family="Helvetica,sans-Serif" font-size="10.00"> </text>
<polygon fill="#666666" stroke="#666666" points="146.88,-536.75 146.88,-536.75 244.88,-536.75 244.88,-536.75 146.88,-536.75"/>
<polygon fill="#666666" stroke="#666666" points="146.88,-520 146.88,-520 244.88,-520 244.88,-520 146.88,-520"/>
<polygon fill="none" stroke="#666666" points="146.88,-501.25 146.88,-555.5 244.88,-555.5 244.88,-501.25 146.88,-501.25"/>
</a>
</g>
</g>
<!-- Node4&#45;&gt;Node7 -->
<g id="edge8_Node000007_Node000004" class="edge">
<title>Node4&#45;&gt;Node7</title>
<g id="a_edge8_Node000007_Node000004"><a xlink:title=" ">
<path fill="none" stroke="#63b8ff" d="M121.78,-627.25C132.04,-613.7 151.87,-587.5 168.44,-565.62"/>
<polygon fill="none" stroke="#63b8ff" points="168.47,-565.58 168.9,-558.38 175.71,-556.01 175.28,-563.21 168.47,-565.58"/>
</a>
</g>
<text xml:space="preserve" text-anchor="start" x="163.22" y="-579.75" font-family="Helvetica,sans-Serif" font-size="10.00" fill="grey">+elements</text>
</g>
<!-- Node5 -->
<g id="Node000005" class="node">
<title>Node5</title>
<g id="a_Node000005"><a xlink:title=" ">
<polygon fill="white" stroke="none" points="491.38,-555.5 450.38,-555.5 450.38,-501.25 491.38,-501.25 491.38,-555.5"/>
<text xml:space="preserve" text-anchor="start" x="454.38" y="-542" font-family="Helvetica,sans-Serif" font-size="10.00">double</text>
<text xml:space="preserve" text-anchor="start" x="469.38" y="-525.25" font-family="Helvetica,sans-Serif" font-size="10.00"> </text>
<text xml:space="preserve" text-anchor="start" x="469.38" y="-508.5" font-family="Helvetica,sans-Serif" font-size="10.00"> </text>
<polygon fill="#666666" stroke="#666666" points="450.38,-536.75 450.38,-536.75 491.38,-536.75 491.38,-536.75 450.38,-536.75"/>
<polygon fill="#666666" stroke="#666666" points="450.38,-520 450.38,-520 491.38,-520 491.38,-520 450.38,-520"/>
<polygon fill="none" stroke="#666666" points="450.38,-501.25 450.38,-555.5 491.38,-555.5 491.38,-501.25 450.38,-501.25"/>
</a>
</g>
</g>
<!-- Node5&#45;&gt;Node1 -->
<g id="edge4_Node000001_Node000005" class="edge">
<title>Node5&#45;&gt;Node1</title>
<g id="a_edge4_Node000001_Node000005"><a xlink:title=" ">
<path fill="none" stroke="#63b8ff" d="M490.65,-501.48C494.04,-495.76 497.05,-489.52 498.88,-483.25 505.35,-460.95 499.68,-454.21 498.88,-431 494.94,-317.05 509.94,-283.11 470.88,-176 464.62,-158.85 455.41,-141.64 445.59,-125.97"/>
<polygon fill="none" stroke="#63b8ff" points="445.75,-126.22 439.13,-123.36 439.22,-116.15 445.84,-119.01 445.75,-126.22"/>
</a>
</g>
<text xml:space="preserve" text-anchor="start" x="501.59" y="-297.75" font-family="Helvetica,sans-Serif" font-size="10.00" fill="grey">#_t0</text>
</g>
<!-- Node6 -->
<g id="Node000006" class="node">
<title>Node6</title>
<g id="a_Node000006"><a xlink:title=" ">
<polygon fill="white" stroke="none" points="484.38,-413 359.38,-413 359.38,-358.75 484.38,-358.75 484.38,-413"/>
<text xml:space="preserve" text-anchor="start" x="363.38" y="-399.5" font-family="Helvetica,sans-Serif" font-size="10.00">std::valarray&lt; double &gt;</text>
<text xml:space="preserve" text-anchor="start" x="420.38" y="-382.75" font-family="Helvetica,sans-Serif" font-size="10.00"> </text>
<text xml:space="preserve" text-anchor="start" x="420.38" y="-366" font-family="Helvetica,sans-Serif" font-size="10.00"> </text>
<polygon fill="#666666" stroke="#666666" points="359.38,-394.25 359.38,-394.25 484.38,-394.25 484.38,-394.25 359.38,-394.25"/>
<polygon fill="#666666" stroke="#666666" points="359.38,-377.5 359.38,-377.5 484.38,-377.5 484.38,-377.5 359.38,-377.5"/>
<polygon fill="none" stroke="#666666" points="359.38,-358.75 359.38,-413 484.38,-413 484.38,-358.75 359.38,-358.75"/>
</a>
</g>
</g>
<!-- Node5&#45;&gt;Node6 -->
<g id="edge6_Node000006_Node000005" class="edge">
<title>Node5&#45;&gt;Node6</title>
<g id="a_edge6_Node000006_Node000005"><a xlink:title=" ">
<path fill="none" stroke="#63b8ff" d="M450.49,-503.37C446.06,-497.14 441.83,-490.22 438.88,-483.25 431.17,-465.09 426.96,-443.57 424.66,-425.49"/>
<polygon fill="none" stroke="#63b8ff" points="424.66,-425.55 420.04,-420.02 423.37,-413.62 427.99,-419.15 424.66,-425.55"/>
</a>
</g>
<text xml:space="preserve" text-anchor="start" x="441.88" y="-454" font-family="Helvetica,sans-Serif" font-size="10.00" fill="grey">+elements</text>
</g>
<!-- Node6&#45;&gt;Node1 -->
<g id="edge5_Node000001_Node000006" class="edge">
<title>Node6&#45;&gt;Node1</title>
<g id="a_edge5_Node000001_Node000006"><a xlink:title=" ">
<path fill="none" stroke="#63b8ff" d="M419.87,-358.97C416.14,-310.66 407.98,-205.28 402.46,-133.86"/>
<polygon fill="none" stroke="#63b8ff" points="402.46,-133.8 398.01,-128.13 401.53,-121.84 405.98,-127.51 402.46,-133.8"/>
</a>
</g>
<text xml:space="preserve" text-anchor="start" x="413.62" y="-223.12" font-family="Helvetica,sans-Serif" font-size="10.00" fill="grey">#_lambda</text>
<text xml:space="preserve" text-anchor="start" x="413.62" y="-206.38" font-family="Helvetica,sans-Serif" font-size="10.00" fill="grey">#_p</text>
<text xml:space="preserve" text-anchor="start" x="413.62" y="-189.62" font-family="Helvetica,sans-Serif" font-size="10.00" fill="grey">#_x0</text>
</g>
<!-- Node8 -->
<g id="Node000008" class="node">
<title>Node8</title>
<g id="a_Node000008"><a xlink:title=" ">
<polygon fill="white" stroke="none" points="385.5,-243 264.25,-243 264.25,-176 385.5,-176 385.5,-243"/>
<text xml:space="preserve" text-anchor="start" x="268.25" y="-229.5" font-family="Helvetica,sans-Serif" font-size="10.00">std::valarray&lt; std</text>
<text xml:space="preserve" text-anchor="start" x="268.25" y="-216.75" font-family="Helvetica,sans-Serif" font-size="10.00">::valarray&lt; double &gt; &gt;</text>
<text xml:space="preserve" text-anchor="start" x="323.38" y="-200" font-family="Helvetica,sans-Serif" font-size="10.00"> </text>
<text xml:space="preserve" text-anchor="start" x="323.38" y="-183.25" font-family="Helvetica,sans-Serif" font-size="10.00"> </text>
<polygon fill="#666666" stroke="#666666" points="264.25,-211.5 264.25,-211.5 385.5,-211.5 385.5,-211.5 264.25,-211.5"/>
<polygon fill="#666666" stroke="#666666" points="264.25,-194.75 264.25,-194.75 385.5,-194.75 385.5,-194.75 264.25,-194.75"/>
<polygon fill="none" stroke="#666666" points="264.25,-176 264.25,-243 385.5,-243 385.5,-176 264.25,-176"/>
</a>
</g>
</g>
<!-- Node6&#45;&gt;Node8 -->
<g id="edge10_Node000008_Node000006" class="edge">
<title>Node6&#45;&gt;Node8</title>
<g id="a_edge10_Node000008_Node000006"><a xlink:title=" ">
<path fill="none" stroke="#63b8ff" d="M365.66,-358.78C358.85,-353.63 352.63,-347.64 347.88,-340.75 330.81,-316.01 325.18,-282.52 323.76,-255.7"/>
<polygon fill="none" stroke="#63b8ff" points="323.75,-255.64 319.57,-249.76 323.39,-243.65 327.57,-249.52 323.75,-255.64"/>
</a>
</g>
<text xml:space="preserve" text-anchor="start" x="350.88" y="-297.75" font-family="Helvetica,sans-Serif" font-size="10.00" fill="grey">+elements</text>
</g>
<!-- Node7&#45;&gt;Node6 -->
<g id="edge7_Node000006_Node000007" class="edge">
<title>Node7&#45;&gt;Node6</title>
<g id="a_edge7_Node000006_Node000007"><a xlink:title=" ">
<path fill="none" stroke="orange" d="M247.47,-495.3C287.64,-470.32 342.69,-436.1 380.12,-412.83"/>
<polygon fill="orange" stroke="orange" points="245.78,-492.23 239.14,-500.48 249.48,-498.17 245.78,-492.23"/>
</a>
</g>
<text xml:space="preserve" text-anchor="start" x="351.77" y="-454" font-family="Helvetica,sans-Serif" font-size="10.00" fill="grey">&lt; double &gt;</text>
</g>
<!-- Node7&#45;&gt;Node8 -->
<g id="edge11_Node000008_Node000007" class="edge">
<title>Node7&#45;&gt;Node8</title>
<g id="a_edge11_Node000008_Node000007"><a xlink:title=" ">
<path fill="none" stroke="orange" d="M191.3,-490.35C188.42,-455.25 187.91,-401.65 204.38,-358.75 221.96,-312.92 259.49,-270.53 288.02,-242.92"/>
<polygon fill="orange" stroke="orange" points="187.78,-490.37 192.2,-500 194.75,-489.72 187.78,-490.37"/>
</a>
</g>
<text xml:space="preserve" text-anchor="start" x="207.38" y="-382.75" font-family="Helvetica,sans-Serif" font-size="10.00" fill="grey">&lt; std::valarray&lt; double &gt; &gt;</text>
</g>
<!-- Node8&#45;&gt;Node1 -->
<g id="edge9_Node000001_Node000008" class="edge">
<title>Node8&#45;&gt;Node1</title>
<g id="a_edge9_Node000001_Node000008"><a xlink:title=" ">
<path fill="none" stroke="#63b8ff" d="M340.68,-176.27C347.01,-163.35 354.58,-147.91 362.07,-132.62"/>
<polygon fill="none" stroke="#63b8ff" points="362.09,-132.58 361.14,-125.43 367.37,-121.8 368.33,-128.95 362.09,-132.58"/>
</a>
</g>
<text xml:space="preserve" text-anchor="start" x="361.72" y="-145.5" font-family="Helvetica,sans-Serif" font-size="10.00" fill="grey">#_r</text>
</g>
</g>
</svg>

<g id="navigator" transform="translate(0 0)" fill="#404254">
  <rect fill="#f2f5e9" fill-opacity="0.5" stroke="#606060" stroke-width=".5" x="0" y="0" width="60" height="60"/>
  <use id="zoomplus" xlink:href="#zoomPlus" x="17" y="9" onmousedown="handleZoom(evt,'in')"/>
  <use id="zoomminus" xlink:href="#zoomMin" x="42" y="9" onmousedown="handleZoom(evt,'out')"/>
  <use id="reset" xlink:href="#resetDef" x="30" y="36" onmousedown="handleReset()"/>
   <use id="arrowup" xlink:href="#arrowUp" x="0" y="0" onmousedown="handlePan(0,-1)"/>
  <use id="arrowright" xlink:href="#arrowRight" x="0" y="0" onmousedown="handlePan(1,0)"/>
  <use id="arrowdown" xlink:href="#arrowDown" x="0" y="0" onmousedown="handlePan(0,1)"/>
  <use id="arrowleft" xlink:href="#arrowLeft" x="0" y="0" onmousedown="handlePan(-1,0)"/>
</g>
<svg viewBox="0 0 15 15" width="100%" height="30px" preserveAspectRatio="xMaxYMin meet">
 <g id="arrow_out" transform="scale(0.3 0.3)">
  <a xlink:href="classrm_1_1RungeKutta__coll__graph_org.svg" target="_base">
   <rect id="button" ry="5" rx="5" y="6" x="6" height="38" width="38"
        fill="#f2f5e9" fill-opacity="0.5" stroke="#606060" stroke-width="1.0"/>
   <path id="arrow"
     d="M 11.500037,31.436501 C 11.940474,20.09759 22.043105,11.32322 32.158766,21.979434 L 37.068811,17.246167 C 37.068811,17.246167 37.088388,32 37.088388,32 L 22.160133,31.978069 C 22.160133,31.978069 26.997745,27.140456 26.997745,27.140456 C 18.528582,18.264221 13.291696,25.230495 11.500037,31.436501 z"
     style="fill:#404040;"/>
  </a>
 </g>
</svg>

<style type='text/css'>
<![CDATA[
[data-mouse-over-selected='false'] { opacity: 0.7; }
[data-mouse-over-selected='true']  { opacity: 1.0; }
]]>
</style>
<script type="application/ecmascript"><![CDATA[
document.addEventListener('DOMContentLoaded', (event) => {
  highlightEdges();
  highlightAdjacentNodes();
});
]]></script>
</svg>
