<?xml version="1.0" encoding="UTF-8" standalone="no"?>
<!DOCTYPE svg PUBLIC "-//W3C//DTD SVG 1.1//EN"
 "http://www.w3.org/Graphics/SVG/1.1/DTD/svg11.dtd">
<!-- Generated by graphviz version 2.43.0 (0)
 -->
<!-- Title: rm::async::Signal::SignalAwaiter Pages: 1 -->
<svg width="139pt" height="168pt"
 viewBox="0.00 0.00 139.00 168.00" xmlns="http://www.w3.org/2000/svg" xmlns:xlink="http://www.w3.org/1999/xlink">

<svg id="main" version="1.1" xmlns="http://www.w3.org/2000/svg" xmlns:xlink="http://www.w3.org/1999/xlink" xml:space="preserve">

<style type="text/css"><![CDATA[
.node, .edge {opacity: 0.7;}
.node.selected, .edge.selected {opacity: 1;}
.edge:hover path { stroke: red; }
.edge:hover polygon { stroke: red; fill: red; }
]]></style>
<script type="application/ecmascript" xlink:href="../../svg.min.js"/>
<svg id="graph" class="graph">
<g id="graph0" class="graph" transform="scale(1 1) rotate(0) translate(4 164)">
<title>rm::async::Signal::SignalAwaiter</title>
<!-- Node1 -->
<g id="Node000001" class="node">
<title>Node1</title>
<g id="a_Node000001"><a xlink:title="信号等待器">
<polygon fill="#999999" stroke="transparent" points="112,-60 19,-60 19,0 112,0 112,-60"/>
<text text-anchor="start" x="24.5" y="-48" font-family="Helvetica,sans-Serif" font-size="10.00">rm::async::Signal::</text>
<text text-anchor="start" x="35.5" y="-37" font-family="Helvetica,sans-Serif" font-size="10.00">SignalAwaiter</text>
<text text-anchor="start" x="64" y="-22" font-family="Helvetica,sans-Serif" font-size="10.00"> </text>
<text text-anchor="start" x="25" y="-7" font-family="Helvetica,sans-Serif" font-size="10.00">+</text>
<text text-anchor="start" x="37.5" y="-7" font-family="Helvetica,sans-Serif" font-size="10.00">SignalAwaiter()</text>
<polygon fill="#666666" stroke="#666666" points="19.5,-32 19.5,-32 112.5,-32 112.5,-32 19.5,-32"/>
<polygon fill="#666666" stroke="#666666" points="19.5,-17 19.5,-17 112.5,-17 112.5,-17 19.5,-17"/>
<polygon fill="none" stroke="#666666" points="19,0 19,-60 112,-60 112,0 19,0"/>
</a>
</g>
</g>
<!-- Node2 -->
<g id="Node000002" class="node">
<title>Node2</title>
<g id="a_Node000002"><a xlink:href="../../d6/d17/classrm_1_1async_1_1AsyncIOAwaiter.html" target="_top" xlink:title="IO 事件异步等待器">
<polygon fill="white" stroke="transparent" points="131,-160 0,-160 0,-96 131,-96 131,-160"/>
<text text-anchor="start" x="5.5" y="-148" font-family="Helvetica,sans-Serif" font-size="10.00">rm::async::AsyncIOAwaiter</text>
<text text-anchor="start" x="13.5" y="-133" font-family="Helvetica,sans-Serif" font-size="10.00">#</text>
<text text-anchor="start" x="32.5" y="-133" font-family="Helvetica,sans-Serif" font-size="10.00">_aioh</text>
<text text-anchor="start" x="13.5" y="-118" font-family="Helvetica,sans-Serif" font-size="10.00">#</text>
<text text-anchor="start" x="32.5" y="-118" font-family="Helvetica,sans-Serif" font-size="10.00">_fd</text>
<text text-anchor="start" x="13" y="-103" font-family="Helvetica,sans-Serif" font-size="10.00">+</text>
<text text-anchor="start" x="32.5" y="-103" font-family="Helvetica,sans-Serif" font-size="10.00">AsyncIOAwaiter()</text>
<polygon fill="#666666" stroke="#666666" points="0.5,-143 0.5,-143 131.5,-143 131.5,-143 0.5,-143"/>
<polygon fill="#666666" stroke="#666666" points="0.5,-113 0.5,-113 30.5,-113 30.5,-113 0.5,-113"/>
<polygon fill="#666666" stroke="#666666" points="30.5,-113 30.5,-113 131.5,-113 131.5,-113 30.5,-113"/>
<polygon fill="none" stroke="#666666" points="0,-96 0,-160 131,-160 131,-96 0,-96"/>
</a>
</g>
</g>
<!-- Node2&#45;&gt;Node1 -->
<g id="edge1_Node000001_Node000002" class="edge">
<title>Node2&#45;&gt;Node1</title>
<g id="a_edge1_Node000001_Node000002"><a xlink:title=" ">
<path fill="none" stroke="#63b8ff" d="M65.5,-85.57C65.5,-76.97 65.5,-68.09 65.5,-60.06"/>
<polygon fill="none" stroke="#63b8ff" points="62,-85.83 65.5,-95.83 69,-85.83 62,-85.83"/>
</a>
</g>
</g>
</g>
</svg>
</svg>

<style type='text/css'>
<![CDATA[
[data-mouse-over-selected='false'] { opacity: 0.7; }
[data-mouse-over-selected='true']  { opacity: 1.0; }
]]>
</style>
<script type="application/ecmascript"><![CDATA[
document.addEventListener('DOMContentLoaded', (event) => {
  highlightEdges();
  highlightAdjacentNodes();
});
]]></script>
</svg>
