<?xml version="1.0" encoding="UTF-8" standalone="no"?>
<!DOCTYPE svg PUBLIC "-//W3C//DTD SVG 1.1//EN"
 "http://www.w3.org/Graphics/SVG/1.1/DTD/svg11.dtd">
<!-- Generated by graphviz version 2.43.0 (0)
 -->
<!-- Title: rm::Object Pages: 1 -->
<svg width="156pt" height="377pt"
 viewBox="0.00 0.00 155.50 377.00" xmlns="http://www.w3.org/2000/svg" xmlns:xlink="http://www.w3.org/1999/xlink">

<svg id="main" version="1.1" xmlns="http://www.w3.org/2000/svg" xmlns:xlink="http://www.w3.org/1999/xlink" xml:space="preserve">

<style type="text/css"><![CDATA[
.node, .edge {opacity: 0.7;}
.node.selected, .edge.selected {opacity: 1;}
.edge:hover path { stroke: red; }
.edge:hover polygon { stroke: red; fill: red; }
]]></style>
<script type="application/ecmascript" xlink:href="../../svg.min.js"/>
<svg id="graph" class="graph">
<g id="graph0" class="graph" transform="scale(1 1) rotate(0) translate(4 373)">
<title>rm::Object</title>
<!-- Node1 -->
<g id="Node000001" class="node">
<title>Node1</title>
<g id="a_Node000001"><a xlink:title="OPC UA 对象">
<polygon fill="#999999" stroke="transparent" points="83,-154 4,-154 4,0 83,0 83,-154"/>
<text text-anchor="start" x="21" y="-142" font-family="Helvetica,sans-Serif" font-size="10.00">rm::Object</text>
<text text-anchor="start" x="42" y="-127" font-family="Helvetica,sans-Serif" font-size="10.00"> </text>
<text text-anchor="start" x="8.5" y="-112" font-family="Helvetica,sans-Serif" font-size="10.00">+</text>
<text text-anchor="start" x="19.5" y="-112" font-family="Helvetica,sans-Serif" font-size="10.00">Object()</text>
<text text-anchor="start" x="8.5" y="-97" font-family="Helvetica,sans-Serif" font-size="10.00">+</text>
<text text-anchor="start" x="19.5" y="-97" font-family="Helvetica,sans-Serif" font-size="10.00">Object()</text>
<text text-anchor="start" x="8.5" y="-82" font-family="Helvetica,sans-Serif" font-size="10.00">+</text>
<text text-anchor="start" x="19.5" y="-82" font-family="Helvetica,sans-Serif" font-size="10.00">type()</text>
<text text-anchor="start" x="8.5" y="-67" font-family="Helvetica,sans-Serif" font-size="10.00">+</text>
<text text-anchor="start" x="19.5" y="-67" font-family="Helvetica,sans-Serif" font-size="10.00">add()</text>
<text text-anchor="start" x="8.5" y="-52" font-family="Helvetica,sans-Serif" font-size="10.00">+</text>
<text text-anchor="start" x="19.5" y="-52" font-family="Helvetica,sans-Serif" font-size="10.00">add()</text>
<text text-anchor="start" x="8.5" y="-37" font-family="Helvetica,sans-Serif" font-size="10.00">+</text>
<text text-anchor="start" x="19.5" y="-37" font-family="Helvetica,sans-Serif" font-size="10.00">operator[]()</text>
<text text-anchor="start" x="8.5" y="-22" font-family="Helvetica,sans-Serif" font-size="10.00">+</text>
<text text-anchor="start" x="19.5" y="-22" font-family="Helvetica,sans-Serif" font-size="10.00">getVariables()</text>
<text text-anchor="start" x="8.5" y="-7" font-family="Helvetica,sans-Serif" font-size="10.00">+</text>
<text text-anchor="start" x="19.5" y="-7" font-family="Helvetica,sans-Serif" font-size="10.00">getMethods()</text>
<polygon fill="#666666" stroke="#666666" points="4.5,-137 4.5,-137 83.5,-137 83.5,-137 4.5,-137"/>
<polygon fill="#666666" stroke="#666666" points="4.5,-122 4.5,-122 83.5,-122 83.5,-122 4.5,-122"/>
<polygon fill="none" stroke="#666666" points="4,0 4,-154 83,-154 83,0 4,0"/>
</a>
</g>
</g>
<!-- Node2 -->
<g id="Node000002" class="node">
<title>Node2</title>
<g id="a_Node000002"><a xlink:title=" ">
<polygon fill="white" stroke="transparent" points="45,-272 0,-272 0,-223 45,-223 45,-272"/>
<text text-anchor="start" x="5.5" y="-259.5" font-family="Helvetica,sans-Serif" font-size="10.00">uint16_t</text>
<text text-anchor="start" x="21" y="-244.5" font-family="Helvetica,sans-Serif" font-size="10.00"> </text>
<text text-anchor="start" x="21" y="-229.5" font-family="Helvetica,sans-Serif" font-size="10.00"> </text>
<polygon fill="#666666" stroke="#666666" points="0.5,-254.5 0.5,-254.5 45.5,-254.5 45.5,-254.5 0.5,-254.5"/>
<polygon fill="#666666" stroke="#666666" points="0.5,-239.5 0.5,-239.5 45.5,-239.5 45.5,-239.5 0.5,-239.5"/>
<polygon fill="none" stroke="#666666" points="0,-223 0,-272 45,-272 45,-223 0,-223"/>
</a>
</g>
</g>
<!-- Node2&#45;&gt;Node1 -->
<g id="edge1_Node000001_Node000002" class="edge">
<title>Node2&#45;&gt;Node1</title>
<g id="a_edge1_Node000001_Node000002"><a xlink:title=" ">
<path fill="none" stroke="#63b8ff" d="M25.46,-222.72C27.34,-207.63 29.91,-187.08 32.51,-166.2"/>
<polygon fill="none" stroke="#63b8ff" points="32.51,-166.17 29.28,-159.72 34,-154.26 37.22,-160.71 32.51,-166.17"/>
</a>
</g>
<text text-anchor="middle" x="42.5" y="-186" font-family="Helvetica,sans-Serif" font-size="10.00" fill="grey"> +ns</text>
</g>
<!-- Node3 -->
<g id="Node000003" class="node">
<title>Node3</title>
<g id="a_Node000003"><a xlink:title=" ">
<polygon fill="white" stroke="transparent" points="117.5,-272 63.5,-272 63.5,-223 117.5,-223 117.5,-272"/>
<text text-anchor="start" x="68.5" y="-259.5" font-family="Helvetica,sans-Serif" font-size="10.00">std::string</text>
<text text-anchor="start" x="88.5" y="-244.5" font-family="Helvetica,sans-Serif" font-size="10.00"> </text>
<text text-anchor="start" x="88.5" y="-229.5" font-family="Helvetica,sans-Serif" font-size="10.00"> </text>
<polygon fill="#666666" stroke="#666666" points="63.5,-254.5 63.5,-254.5 117.5,-254.5 117.5,-254.5 63.5,-254.5"/>
<polygon fill="#666666" stroke="#666666" points="63.5,-239.5 63.5,-239.5 117.5,-239.5 117.5,-239.5 63.5,-239.5"/>
<polygon fill="none" stroke="#666666" points="63.5,-223 63.5,-272 117.5,-272 117.5,-223 63.5,-223"/>
</a>
</g>
</g>
<!-- Node3&#45;&gt;Node1 -->
<g id="edge2_Node000001_Node000003" class="edge">
<title>Node3&#45;&gt;Node1</title>
<g id="a_edge2_Node000001_Node000003"><a xlink:title=" ">
<path fill="none" stroke="#63b8ff" d="M83.87,-222.72C79.64,-207.56 73.87,-186.89 68.02,-165.91"/>
<polygon fill="none" stroke="#63b8ff" points="68,-165.82 62.53,-161.11 64.77,-154.26 70.24,-158.96 68,-165.82"/>
</a>
</g>
<text text-anchor="middle" x="112.5" y="-197" font-family="Helvetica,sans-Serif" font-size="10.00" fill="grey"> +browse_name</text>
<text text-anchor="middle" x="112.5" y="-186" font-family="Helvetica,sans-Serif" font-size="10.00" fill="grey">+description</text>
<text text-anchor="middle" x="112.5" y="-175" font-family="Helvetica,sans-Serif" font-size="10.00" fill="grey">+display_name</text>
</g>
<!-- Node4 -->
<g id="Node000004" class="node">
<title>Node4</title>
<g id="a_Node000004"><a xlink:title=" ">
<polygon fill="white" stroke="transparent" points="135,-369 46,-369 46,-309 135,-309 135,-369"/>
<text text-anchor="start" x="51.5" y="-357" font-family="Helvetica,sans-Serif" font-size="10.00">std::basic_string&lt;</text>
<text text-anchor="start" x="74" y="-346" font-family="Helvetica,sans-Serif" font-size="10.00"> Char &gt;</text>
<text text-anchor="start" x="89" y="-331" font-family="Helvetica,sans-Serif" font-size="10.00"> </text>
<text text-anchor="start" x="89" y="-316" font-family="Helvetica,sans-Serif" font-size="10.00"> </text>
<polygon fill="#666666" stroke="#666666" points="46.5,-341 46.5,-341 135.5,-341 135.5,-341 46.5,-341"/>
<polygon fill="#666666" stroke="#666666" points="46.5,-326 46.5,-326 135.5,-326 135.5,-326 46.5,-326"/>
<polygon fill="none" stroke="#666666" points="46,-309 46,-369 135,-369 135,-309 46,-309"/>
</a>
</g>
</g>
<!-- Node4&#45;&gt;Node3 -->
<g id="edge3_Node000003_Node000004" class="edge">
<title>Node4&#45;&gt;Node3</title>
<g id="a_edge3_Node000003_Node000004"><a xlink:title=" ">
<path fill="none" stroke="#63b8ff" d="M90.5,-298.41C90.5,-289.47 90.5,-280.25 90.5,-272.21"/>
<polygon fill="none" stroke="#63b8ff" points="87,-298.69 90.5,-308.69 94,-298.69 87,-298.69"/>
</a>
</g>
</g>
</g>
</svg>
</svg>

<style type='text/css'>
<![CDATA[
[data-mouse-over-selected='false'] { opacity: 0.7; }
[data-mouse-over-selected='true']  { opacity: 1.0; }
]]>
</style>
<script type="application/ecmascript"><![CDATA[
document.addEventListener('DOMContentLoaded', (event) => {
  highlightEdges();
  highlightAdjacentNodes();
});
]]></script>
</svg>
