<?xml version="1.0" encoding="UTF-8" standalone="no"?>
<!DOCTYPE svg PUBLIC "-//W3C//DTD SVG 1.1//EN"
 "http://www.w3.org/Graphics/SVG/1.1/DTD/svg11.dtd">
<!-- Generated by graphviz version 14.1.2 (0)
 -->
<!-- Title: rm::msg::JointState Pages: 1 -->
<!--zoomable 586 -->

<svg id="main" version="1.1" xmlns="http://www.w3.org/2000/svg" xmlns:xlink="http://www.w3.org/1999/xlink" xml:space="preserve" onload="init(evt)">

<style type="text/css"><![CDATA[
.node, .edge {opacity: 0.7;}
.node.selected, .edge.selected {opacity: 1;}
.edge:hover path { stroke: red; }
.edge:hover polygon { stroke: red; fill: red; }
]]></style>

<defs>
  <circle id="rim" cx="0" cy="0" r="7"/>
  <circle id="rim2" cx="0" cy="0" r="3.5"/>
  <g id="zoomPlus">
    <use xlink:href="#rim" fill="#404040"><set attributeName="fill" to="#808080" begin="zoomplus.mouseover" end="zoomplus.mouseout"/></use>
    <path d="M-4,0h8M0,-4v8" fill="none" stroke="white" stroke-width="1.5" pointer-events="none"/>
  </g>
  <g id="zoomMin">
    <use xlink:href="#rim" fill="#404040"><set attributeName="fill" to="#808080" begin="zoomminus.mouseover" end="zoomminus.mouseout"/></use>
    <path d="M-4,0h8" fill="none" stroke="white" stroke-width="1.5" pointer-events="none"/>
  </g>
  <g id="arrowUp" transform="translate(30 24)">
    <use xlink:href="#rim"/>
    <path pointer-events="none" fill="none" stroke="white" stroke-width="1.5" d="M0,-3.0v7 M-2.5,-0.5L0,-3.0L2.5,-0.5"/>
  </g>
  <g id="arrowRight" transform="rotate(90) translate(36 -43)">
    <use xlink:href="#rim"/>
    <path pointer-events="none" fill="none" stroke="white" stroke-width="1.5" d="M0,-3.0v7 M-2.5,-0.5L0,-3.0L2.5,-0.5"/>
  </g>
  <g id="arrowDown" transform="rotate(180) translate(-30 -48)">
    <use xlink:href="#rim"/>
    <path pointer-events="none" fill="none" stroke="white" stroke-width="1.5" d="M0,-3.0v7 M-2.5,-0.5L0,-3.0L2.5,-0.5"/>
  </g>
  <g id="arrowLeft" transform="rotate(270) translate(-36 17)">
    <use xlink:href="#rim"/>
    <path pointer-events="none" fill="none" stroke="white" stroke-width="1.5" d="M0,-3.0v7 M-2.5,-0.5L0,-3.0L2.5,-0.5"/>
  </g>
  <g id="resetDef">
    <use xlink:href="#rim2" fill="#404040"><set attributeName="fill" to="#808080" begin="reset.mouseover" end="reset.mouseout"/></use>
  </g>
</defs>
<script type="application/ecmascript">
var viewWidth = 783;
var viewHeight = 586;
var sectionId = 'dynsection-0';
</script>
<script type="application/ecmascript" xlink:href="../../svg.min.js"/>
<svg id="graph" class="graph">
<g id="viewport">
<title>rm::msg::JointState</title>
<!-- Node1 -->
<g id="Node000001" class="node">
<title>Node1</title>
<g id="a_Node000001"><a xlink:title="JointState 消息类型：sensor/JointState">
<polygon fill="#999999" stroke="none" points="407.75,-104.5 306,-104.5 306,0 407.75,0 407.75,-104.5"/>
<text xml:space="preserve" text-anchor="start" x="310" y="-91" font-family="Helvetica,sans-Serif" font-size="10.00">rm::msg::JointState</text>
<text xml:space="preserve" text-anchor="start" x="355.38" y="-74.25" font-family="Helvetica,sans-Serif" font-size="10.00"> </text>
<text xml:space="preserve" text-anchor="start" x="311.81" y="-57.5" font-family="Helvetica,sans-Serif" font-size="10.00">+</text>
<text xml:space="preserve" text-anchor="start" x="325.88" y="-57.5" font-family="Helvetica,sans-Serif" font-size="10.00">serialize()</text>
<text xml:space="preserve" text-anchor="start" x="311.81" y="-40.75" font-family="Helvetica,sans-Serif" font-size="10.00">+</text>
<text xml:space="preserve" text-anchor="start" x="325.88" y="-40.75" font-family="Helvetica,sans-Serif" font-size="10.00">json()</text>
<text xml:space="preserve" text-anchor="start" x="311.81" y="-24" font-family="Helvetica,sans-Serif" font-size="10.00">+</text>
<text xml:space="preserve" text-anchor="start" x="325.88" y="-24" font-family="Helvetica,sans-Serif" font-size="10.00">compact_size()</text>
<text xml:space="preserve" text-anchor="start" x="311.81" y="-7.25" font-family="Helvetica,sans-Serif" font-size="10.00">+</text>
<text xml:space="preserve" text-anchor="start" x="325.88" y="-7.25" font-family="Helvetica,sans-Serif" font-size="10.00">deserialize()</text>
<polygon fill="#666666" stroke="#666666" points="306,-85.75 306,-85.75 407.75,-85.75 407.75,-85.75 306,-85.75"/>
<polygon fill="#666666" stroke="#666666" points="306,-69 306,-69 407.75,-69 407.75,-69 306,-69"/>
<polygon fill="none" stroke="#666666" points="306,0 306,-104.5 407.75,-104.5 407.75,0 306,0"/>
</a>
</g>
</g>
<!-- Node2 -->
<g id="Node000002" class="node">
<title>Node2</title>
<g id="a_Node000002"><a xlink:href="../../de/de3/classrm_1_1msg_1_1Header.html" target="_top" xlink:title="Header 消息类型：std/Header">
<polygon fill="white" stroke="none" points="273.12,-297.25 178.62,-297.25 178.62,-192.75 273.12,-192.75 273.12,-297.25"/>
<text xml:space="preserve" text-anchor="start" x="185" y="-283.75" font-family="Helvetica,sans-Serif" font-size="10.00">rm::msg::Header</text>
<text xml:space="preserve" text-anchor="start" x="224.38" y="-267" font-family="Helvetica,sans-Serif" font-size="10.00"> </text>
<text xml:space="preserve" text-anchor="start" x="182.62" y="-250.25" font-family="Helvetica,sans-Serif" font-size="10.00">+</text>
<text xml:space="preserve" text-anchor="start" x="194.88" y="-250.25" font-family="Helvetica,sans-Serif" font-size="10.00">serialize()</text>
<text xml:space="preserve" text-anchor="start" x="182.62" y="-233.5" font-family="Helvetica,sans-Serif" font-size="10.00">+</text>
<text xml:space="preserve" text-anchor="start" x="194.88" y="-233.5" font-family="Helvetica,sans-Serif" font-size="10.00">json()</text>
<text xml:space="preserve" text-anchor="start" x="182.62" y="-216.75" font-family="Helvetica,sans-Serif" font-size="10.00">+</text>
<text xml:space="preserve" text-anchor="start" x="194.88" y="-216.75" font-family="Helvetica,sans-Serif" font-size="10.00">compact_size()</text>
<text xml:space="preserve" text-anchor="start" x="182.62" y="-200" font-family="Helvetica,sans-Serif" font-size="10.00">+</text>
<text xml:space="preserve" text-anchor="start" x="194.88" y="-200" font-family="Helvetica,sans-Serif" font-size="10.00">deserialize()</text>
<polygon fill="#666666" stroke="#666666" points="178.62,-278.5 178.62,-278.5 273.12,-278.5 273.12,-278.5 178.62,-278.5"/>
<polygon fill="#666666" stroke="#666666" points="178.62,-261.75 178.62,-261.75 273.12,-261.75 273.12,-261.75 178.62,-261.75"/>
<polygon fill="none" stroke="#666666" points="178.62,-192.75 178.62,-297.25 273.12,-297.25 273.12,-192.75 178.62,-192.75"/>
</a>
</g>
</g>
<!-- Node2&#45;&gt;Node1 -->
<g id="edge1_Node000001_Node000002" class="edge">
<title>Node2&#45;&gt;Node1</title>
<g id="a_edge1_Node000001_Node000002"><a xlink:title=" ">
<path fill="none" stroke="#63b8ff" d="M224.96,-192.94C226.77,-169.78 232.18,-143.04 245.88,-122.5 257.88,-104.5 276.31,-90.31 294.73,-79.59"/>
<polygon fill="none" stroke="#63b8ff" points="294.81,-79.54 298.16,-73.15 305.35,-73.79 302,-80.17 294.81,-79.54"/>
</a>
</g>
<text xml:space="preserve" text-anchor="start" x="248.88" y="-145.5" font-family="Helvetica,sans-Serif" font-size="10.00" fill="grey">+header</text>
</g>
<!-- Node3 -->
<g id="Node000003" class="node">
<title>Node3</title>
<g id="a_Node000003"><a xlink:href="../../d2/d47/classrm_1_1msg_1_1Time.html" target="_top" xlink:title="Time 消息类型：std/Time">
<polygon fill="white" stroke="none" points="158.12,-456.5 63.62,-456.5 63.62,-352 158.12,-352 158.12,-456.5"/>
<text xml:space="preserve" text-anchor="start" x="75.25" y="-443" font-family="Helvetica,sans-Serif" font-size="10.00">rm::msg::Time</text>
<text xml:space="preserve" text-anchor="start" x="109.38" y="-426.25" font-family="Helvetica,sans-Serif" font-size="10.00"> </text>
<text xml:space="preserve" text-anchor="start" x="67.62" y="-409.5" font-family="Helvetica,sans-Serif" font-size="10.00">+</text>
<text xml:space="preserve" text-anchor="start" x="79.88" y="-409.5" font-family="Helvetica,sans-Serif" font-size="10.00">serialize()</text>
<text xml:space="preserve" text-anchor="start" x="67.62" y="-392.75" font-family="Helvetica,sans-Serif" font-size="10.00">+</text>
<text xml:space="preserve" text-anchor="start" x="79.88" y="-392.75" font-family="Helvetica,sans-Serif" font-size="10.00">json()</text>
<text xml:space="preserve" text-anchor="start" x="67.62" y="-376" font-family="Helvetica,sans-Serif" font-size="10.00">+</text>
<text xml:space="preserve" text-anchor="start" x="79.88" y="-376" font-family="Helvetica,sans-Serif" font-size="10.00">compact_size()</text>
<text xml:space="preserve" text-anchor="start" x="67.62" y="-359.25" font-family="Helvetica,sans-Serif" font-size="10.00">+</text>
<text xml:space="preserve" text-anchor="start" x="79.88" y="-359.25" font-family="Helvetica,sans-Serif" font-size="10.00">deserialize()</text>
<polygon fill="#666666" stroke="#666666" points="63.62,-437.75 63.62,-437.75 158.12,-437.75 158.12,-437.75 63.62,-437.75"/>
<polygon fill="#666666" stroke="#666666" points="63.62,-421 63.62,-421 158.12,-421 158.12,-421 63.62,-421"/>
<polygon fill="none" stroke="#666666" points="63.62,-352 63.62,-456.5 158.12,-456.5 158.12,-352 63.62,-352"/>
</a>
</g>
</g>
<!-- Node3&#45;&gt;Node2 -->
<g id="edge2_Node000002_Node000003" class="edge">
<title>Node3&#45;&gt;Node2</title>
<g id="a_edge2_Node000002_Node000003"><a xlink:title=" ">
<path fill="none" stroke="#63b8ff" d="M135.79,-352.02C142.65,-339.59 150.52,-326.61 158.88,-315.25 162.41,-310.45 166.25,-305.64 170.26,-300.93"/>
<polygon fill="none" stroke="#63b8ff" points="170.12,-301.08 171.08,-293.94 178.05,-292.08 177.09,-299.22 170.12,-301.08"/>
</a>
</g>
<text xml:space="preserve" text-anchor="start" x="161.88" y="-321.5" font-family="Helvetica,sans-Serif" font-size="10.00" fill="grey">+stamp</text>
</g>
<!-- Node4 -->
<g id="Node000004" class="node">
<title>Node4</title>
<g id="a_Node000004"><a xlink:title=" ">
<polygon fill="white" stroke="none" points="107.75,-571.88 66,-571.88 66,-517.62 107.75,-517.62 107.75,-571.88"/>
<text xml:space="preserve" text-anchor="start" x="70" y="-558.38" font-family="Helvetica,sans-Serif" font-size="10.00">int32_t</text>
<text xml:space="preserve" text-anchor="start" x="85.38" y="-541.62" font-family="Helvetica,sans-Serif" font-size="10.00"> </text>
<text xml:space="preserve" text-anchor="start" x="85.38" y="-524.88" font-family="Helvetica,sans-Serif" font-size="10.00"> </text>
<polygon fill="#666666" stroke="#666666" points="66,-553.12 66,-553.12 107.75,-553.12 107.75,-553.12 66,-553.12"/>
<polygon fill="#666666" stroke="#666666" points="66,-536.38 66,-536.38 107.75,-536.38 107.75,-536.38 66,-536.38"/>
<polygon fill="none" stroke="#666666" points="66,-517.62 66,-571.88 107.75,-571.88 107.75,-517.62 66,-517.62"/>
</a>
</g>
</g>
<!-- Node4&#45;&gt;Node3 -->
<g id="edge3_Node000003_Node000004" class="edge">
<title>Node4&#45;&gt;Node3</title>
<g id="a_edge3_Node000003_Node000004"><a xlink:title=" ">
<path fill="none" stroke="#63b8ff" d="M85.52,-517.93C85.29,-504.83 85.72,-488.73 88.12,-474.5 88.44,-472.63 88.8,-470.74 89.19,-468.84"/>
<polygon fill="none" stroke="#63b8ff" points="89.2,-468.79 86.72,-462.02 92.02,-457.12 94.5,-463.9 89.2,-468.79"/>
</a>
</g>
<text xml:space="preserve" text-anchor="start" x="91.12" y="-480.75" font-family="Helvetica,sans-Serif" font-size="10.00" fill="grey">+sec</text>
</g>
<!-- Node5 -->
<g id="Node000005" class="node">
<title>Node5</title>
<g id="a_Node000005"><a xlink:title=" ">
<polygon fill="white" stroke="none" points="47.75,-571.88 0,-571.88 0,-517.62 47.75,-517.62 47.75,-571.88"/>
<text xml:space="preserve" text-anchor="start" x="4" y="-558.38" font-family="Helvetica,sans-Serif" font-size="10.00">uint32_t</text>
<text xml:space="preserve" text-anchor="start" x="22.38" y="-541.62" font-family="Helvetica,sans-Serif" font-size="10.00"> </text>
<text xml:space="preserve" text-anchor="start" x="22.38" y="-524.88" font-family="Helvetica,sans-Serif" font-size="10.00"> </text>
<polygon fill="#666666" stroke="#666666" points="0,-553.12 0,-553.12 47.75,-553.12 47.75,-553.12 0,-553.12"/>
<polygon fill="#666666" stroke="#666666" points="0,-536.38 0,-536.38 47.75,-536.38 47.75,-536.38 0,-536.38"/>
<polygon fill="none" stroke="#666666" points="0,-517.62 0,-571.88 47.75,-571.88 47.75,-517.62 0,-517.62"/>
</a>
</g>
</g>
<!-- Node5&#45;&gt;Node3 -->
<g id="edge4_Node000003_Node000005" class="edge">
<title>Node5&#45;&gt;Node3</title>
<g id="a_edge4_Node000003_Node000005"><a xlink:title=" ">
<path fill="none" stroke="#63b8ff" d="M28.81,-517.91C32.11,-504.37 37.32,-487.86 45.12,-474.5 48.2,-469.23 51.76,-464.04 55.58,-459.03"/>
<polygon fill="none" stroke="#63b8ff" points="55.61,-458.99 56.3,-451.81 63.19,-449.69 62.5,-456.87 55.61,-458.99"/>
</a>
</g>
<text xml:space="preserve" text-anchor="start" x="48.12" y="-480.75" font-family="Helvetica,sans-Serif" font-size="10.00" fill="grey">+nsec</text>
</g>
<!-- Node6 -->
<g id="Node000006" class="node">
<title>Node6</title>
<g id="a_Node000006"><a xlink:title=" ">
<polygon fill="white" stroke="none" points="232.38,-571.88 203.38,-571.88 203.38,-517.62 232.38,-517.62 232.38,-571.88"/>
<text xml:space="preserve" text-anchor="start" x="207.38" y="-558.38" font-family="Helvetica,sans-Serif" font-size="10.00">char</text>
<text xml:space="preserve" text-anchor="start" x="216.38" y="-541.62" font-family="Helvetica,sans-Serif" font-size="10.00"> </text>
<text xml:space="preserve" text-anchor="start" x="216.38" y="-524.88" font-family="Helvetica,sans-Serif" font-size="10.00"> </text>
<polygon fill="#666666" stroke="#666666" points="203.38,-553.12 203.38,-553.12 232.38,-553.12 232.38,-553.12 203.38,-553.12"/>
<polygon fill="#666666" stroke="#666666" points="203.38,-536.38 203.38,-536.38 232.38,-536.38 232.38,-536.38 203.38,-536.38"/>
<polygon fill="none" stroke="#666666" points="203.38,-517.62 203.38,-571.88 232.38,-571.88 232.38,-517.62 203.38,-517.62"/>
</a>
</g>
</g>
<!-- Node6&#45;&gt;Node1 -->
<g id="edge16_Node000001_Node000006" class="edge">
<title>Node6&#45;&gt;Node1</title>
<g id="a_edge16_Node000001_Node000006"><a xlink:title=" ">
<path fill="none" stroke="#63b8ff" d="M232.18,-531.19C248.94,-515.55 276.04,-487.12 288.88,-456.5 313.3,-398.25 294.94,-377.67 304.62,-315.25 315.2,-247.08 331.13,-169.68 342.61,-116.79"/>
<polygon fill="none" stroke="#63b8ff" points="342.61,-116.83 339.98,-110.11 345.17,-105.11 347.79,-111.82 342.61,-116.83"/>
</a>
</g>
<text xml:space="preserve" text-anchor="start" x="307.62" y="-321.5" font-family="Helvetica,sans-Serif" font-size="10.00" fill="grey">+msg_type</text>
</g>
<!-- Node6&#45;&gt;Node2 -->
<g id="edge8_Node000002_Node000006" class="edge">
<title>Node6&#45;&gt;Node2</title>
<g id="a_edge8_Node000002_Node000006"><a xlink:title=" ">
<path fill="none" stroke="#63b8ff" d="M218.57,-517.85C219.81,-471.92 222.41,-374.94 224.15,-310.12"/>
<polygon fill="none" stroke="#63b8ff" points="224.15,-310.1 220.32,-304 224.48,-298.11 228.31,-304.21 224.15,-310.1"/>
</a>
</g>
<text xml:space="preserve" text-anchor="start" x="225.93" y="-401.12" font-family="Helvetica,sans-Serif" font-size="10.00" fill="grey">+msg_type</text>
</g>
<!-- Node6&#45;&gt;Node3 -->
<g id="edge5_Node000003_Node000006" class="edge">
<title>Node6&#45;&gt;Node3</title>
<g id="a_edge5_Node000003_Node000006"><a xlink:title=" ">
<path fill="none" stroke="#63b8ff" d="M203.45,-537.7C186.38,-529.84 158.2,-514.56 141.62,-493.25 135.75,-485.7 130.95,-476.95 127.04,-467.95"/>
<polygon fill="none" stroke="#63b8ff" points="127.09,-468.07 121.19,-463.94 122.73,-456.89 128.64,-461.03 127.09,-468.07"/>
</a>
</g>
<text xml:space="preserve" text-anchor="start" x="144.62" y="-480.75" font-family="Helvetica,sans-Serif" font-size="10.00" fill="grey">+msg_type</text>
</g>
<!-- Node7 -->
<g id="Node000007" class="node">
<title>Node7</title>
<g id="a_Node000007"><a xlink:title=" ">
<polygon fill="white" stroke="none" points="457.25,-431.38 400.5,-431.38 400.5,-377.12 457.25,-377.12 457.25,-431.38"/>
<text xml:space="preserve" text-anchor="start" x="404.5" y="-417.88" font-family="Helvetica,sans-Serif" font-size="10.00">std::string</text>
<text xml:space="preserve" text-anchor="start" x="427.38" y="-401.12" font-family="Helvetica,sans-Serif" font-size="10.00"> </text>
<text xml:space="preserve" text-anchor="start" x="427.38" y="-384.38" font-family="Helvetica,sans-Serif" font-size="10.00"> </text>
<polygon fill="#666666" stroke="#666666" points="400.5,-412.62 400.5,-412.62 457.25,-412.62 457.25,-412.62 400.5,-412.62"/>
<polygon fill="#666666" stroke="#666666" points="400.5,-395.88 400.5,-395.88 457.25,-395.88 457.25,-395.88 400.5,-395.88"/>
<polygon fill="none" stroke="#666666" points="400.5,-377.12 400.5,-431.38 457.25,-431.38 457.25,-377.12 400.5,-377.12"/>
</a>
</g>
</g>
<!-- Node7&#45;&gt;Node2 -->
<g id="edge6_Node000002_Node000007" class="edge">
<title>Node7&#45;&gt;Node2</title>
<g id="a_edge6_Node000002_Node000007"><a xlink:title=" ">
<path fill="none" stroke="#63b8ff" d="M416.69,-377.4C406.61,-358.24 390.74,-332.56 370.88,-315.25 346.05,-293.62 313.29,-277.21 285.19,-265.81"/>
<polygon fill="none" stroke="#63b8ff" points="285.09,-265.77 278.04,-267.31 273.91,-261.41 280.95,-259.86 285.09,-265.77"/>
</a>
</g>
<text xml:space="preserve" text-anchor="start" x="391.66" y="-321.5" font-family="Helvetica,sans-Serif" font-size="10.00" fill="grey">+frame_id</text>
</g>
<!-- Node9 -->
<g id="Node000009" class="node">
<title>Node9</title>
<g id="a_Node000009"><a xlink:title=" ">
<polygon fill="white" stroke="none" points="539.38,-272.12 408.38,-272.12 408.38,-217.88 539.38,-217.88 539.38,-272.12"/>
<text xml:space="preserve" text-anchor="start" x="412.38" y="-258.62" font-family="Helvetica,sans-Serif" font-size="10.00">std::vector&lt; std::string &gt;</text>
<text xml:space="preserve" text-anchor="start" x="472.38" y="-241.88" font-family="Helvetica,sans-Serif" font-size="10.00"> </text>
<text xml:space="preserve" text-anchor="start" x="472.38" y="-225.12" font-family="Helvetica,sans-Serif" font-size="10.00"> </text>
<polygon fill="#666666" stroke="#666666" points="408.38,-253.38 408.38,-253.38 539.38,-253.38 539.38,-253.38 408.38,-253.38"/>
<polygon fill="#666666" stroke="#666666" points="408.38,-236.62 408.38,-236.62 539.38,-236.62 539.38,-236.62 408.38,-236.62"/>
<polygon fill="none" stroke="#666666" points="408.38,-217.88 408.38,-272.12 539.38,-272.12 539.38,-217.88 408.38,-217.88"/>
</a>
</g>
</g>
<!-- Node7&#45;&gt;Node9 -->
<g id="edge10_Node000009_Node000007" class="edge">
<title>Node7&#45;&gt;Node9</title>
<g id="a_edge10_Node000009_Node000007"><a xlink:title=" ">
<path fill="none" stroke="#63b8ff" d="M437.97,-377.42C442.4,-364.46 447.67,-348.48 451.88,-334 456.58,-317.81 461.19,-299.78 464.97,-284.27"/>
<polygon fill="none" stroke="#63b8ff" points="464.92,-284.48 462.44,-277.71 467.73,-272.81 470.21,-279.58 464.92,-284.48"/>
</a>
</g>
<text xml:space="preserve" text-anchor="start" x="459.54" y="-321.5" font-family="Helvetica,sans-Serif" font-size="10.00" fill="grey">+elements</text>
</g>
<!-- Node8 -->
<g id="Node000008" class="node">
<title>Node8</title>
<g id="a_Node000008"><a xlink:title=" ">
<polygon fill="white" stroke="none" points="476.75,-578.25 381,-578.25 381,-511.25 476.75,-511.25 476.75,-578.25"/>
<text xml:space="preserve" text-anchor="start" x="385" y="-564.75" font-family="Helvetica,sans-Serif" font-size="10.00">std::basic_string&lt;</text>
<text xml:space="preserve" text-anchor="start" x="410.5" y="-552" font-family="Helvetica,sans-Serif" font-size="10.00"> Char &gt;</text>
<text xml:space="preserve" text-anchor="start" x="427.38" y="-535.25" font-family="Helvetica,sans-Serif" font-size="10.00"> </text>
<text xml:space="preserve" text-anchor="start" x="427.38" y="-518.5" font-family="Helvetica,sans-Serif" font-size="10.00"> </text>
<polygon fill="#666666" stroke="#666666" points="381,-546.75 381,-546.75 476.75,-546.75 476.75,-546.75 381,-546.75"/>
<polygon fill="#666666" stroke="#666666" points="381,-530 381,-530 476.75,-530 476.75,-530 381,-530"/>
<polygon fill="none" stroke="#666666" points="381,-511.25 381,-578.25 476.75,-578.25 476.75,-511.25 381,-511.25"/>
</a>
</g>
</g>
<!-- Node8&#45;&gt;Node7 -->
<g id="edge7_Node000007_Node000008" class="edge">
<title>Node8&#45;&gt;Node7</title>
<g id="a_edge7_Node000007_Node000008"><a xlink:title=" ">
<path fill="none" stroke="#63b8ff" d="M428.88,-499.87C428.88,-477.22 428.88,-450.35 428.88,-431.05"/>
<polygon fill="none" stroke="#63b8ff" points="425.38,-499.76 428.88,-509.76 432.38,-499.76 425.38,-499.76"/>
</a>
</g>
</g>
<!-- Node9&#45;&gt;Node1 -->
<g id="edge9_Node000001_Node000009" class="edge">
<title>Node9&#45;&gt;Node1</title>
<g id="a_edge9_Node000001_Node000009"><a xlink:title=" ">
<path fill="none" stroke="#63b8ff" d="M457.85,-217.88C441.76,-191.64 416.36,-150.22 395.06,-115.5"/>
<polygon fill="none" stroke="#63b8ff" points="395.05,-115.49 388.5,-112.46 388.77,-105.26 395.32,-108.28 395.05,-115.49"/>
</a>
</g>
<text xml:space="preserve" text-anchor="start" x="432.3" y="-145.5" font-family="Helvetica,sans-Serif" font-size="10.00" fill="grey">+name</text>
</g>
<!-- Node10 -->
<g id="Node000010" class="node">
<title>Node10</title>
<g id="a_Node000010"><a xlink:title=" ">
<polygon fill="white" stroke="none" points="651,-431.38 562.75,-431.38 562.75,-377.12 651,-377.12 651,-431.38"/>
<text xml:space="preserve" text-anchor="start" x="566.75" y="-417.88" font-family="Helvetica,sans-Serif" font-size="10.00">std::vector&lt; T &gt;</text>
<text xml:space="preserve" text-anchor="start" x="605.38" y="-401.12" font-family="Helvetica,sans-Serif" font-size="10.00"> </text>
<text xml:space="preserve" text-anchor="start" x="605.38" y="-384.38" font-family="Helvetica,sans-Serif" font-size="10.00"> </text>
<polygon fill="#666666" stroke="#666666" points="562.75,-412.62 562.75,-412.62 651,-412.62 651,-412.62 562.75,-412.62"/>
<polygon fill="#666666" stroke="#666666" points="562.75,-395.88 562.75,-395.88 651,-395.88 651,-395.88 562.75,-395.88"/>
<polygon fill="none" stroke="#666666" points="562.75,-377.12 562.75,-431.38 651,-431.38 651,-377.12 562.75,-377.12"/>
</a>
</g>
</g>
<!-- Node10&#45;&gt;Node9 -->
<g id="edge11_Node000009_Node000010" class="edge">
<title>Node10&#45;&gt;Node9</title>
<g id="a_edge11_Node000009_Node000010"><a xlink:title=" ">
<path fill="none" stroke="orange" d="M577.61,-368.65C552.95,-339.49 518.21,-298.42 495.87,-272.01"/>
<polygon fill="orange" stroke="orange" points="574.81,-370.75 583.94,-376.13 580.15,-366.23 574.81,-370.75"/>
</a>
</g>
<text xml:space="preserve" text-anchor="start" x="547.36" y="-321.5" font-family="Helvetica,sans-Serif" font-size="10.00" fill="grey">&lt; std::string &gt;</text>
</g>
<!-- Node12 -->
<g id="Node000012" class="node">
<title>Node12</title>
<g id="a_Node000012"><a xlink:title=" ">
<polygon fill="white" stroke="none" points="714.5,-272.12 599.25,-272.12 599.25,-217.88 714.5,-217.88 714.5,-272.12"/>
<text xml:space="preserve" text-anchor="start" x="603.25" y="-258.62" font-family="Helvetica,sans-Serif" font-size="10.00">std::vector&lt; double &gt;</text>
<text xml:space="preserve" text-anchor="start" x="655.38" y="-241.88" font-family="Helvetica,sans-Serif" font-size="10.00"> </text>
<text xml:space="preserve" text-anchor="start" x="655.38" y="-225.12" font-family="Helvetica,sans-Serif" font-size="10.00"> </text>
<polygon fill="#666666" stroke="#666666" points="599.25,-253.38 599.25,-253.38 714.5,-253.38 714.5,-253.38 599.25,-253.38"/>
<polygon fill="#666666" stroke="#666666" points="599.25,-236.62 599.25,-236.62 714.5,-236.62 714.5,-236.62 599.25,-236.62"/>
<polygon fill="none" stroke="#666666" points="599.25,-217.88 599.25,-272.12 714.5,-272.12 714.5,-217.88 599.25,-217.88"/>
</a>
</g>
</g>
<!-- Node10&#45;&gt;Node12 -->
<g id="edge15_Node000012_Node000010" class="edge">
<title>Node10&#45;&gt;Node12</title>
<g id="a_edge15_Node000012_Node000010"><a xlink:title=" ">
<path fill="none" stroke="orange" d="M622.72,-366.79C626.97,-356.31 631.36,-344.8 634.88,-334 641.55,-313.48 647.38,-289.72 651.36,-272.07"/>
<polygon fill="orange" stroke="orange" points="619.56,-365.28 618.96,-375.86 626.03,-367.96 619.56,-365.28"/>
</a>
</g>
<text xml:space="preserve" text-anchor="start" x="642.92" y="-321.5" font-family="Helvetica,sans-Serif" font-size="10.00" fill="grey">&lt; double &gt;</text>
</g>
<!-- Node11 -->
<g id="Node000011" class="node">
<title>Node11</title>
<g id="a_Node000011"><a xlink:title=" ">
<polygon fill="white" stroke="none" points="613.88,-571.88 599.88,-571.88 599.88,-517.62 613.88,-517.62 613.88,-571.88"/>
<text xml:space="preserve" text-anchor="start" x="603.88" y="-558.38" font-family="Helvetica,sans-Serif" font-size="10.00">T</text>
<text xml:space="preserve" text-anchor="start" x="605.38" y="-541.62" font-family="Helvetica,sans-Serif" font-size="10.00"> </text>
<text xml:space="preserve" text-anchor="start" x="605.38" y="-524.88" font-family="Helvetica,sans-Serif" font-size="10.00"> </text>
<polygon fill="#666666" stroke="#666666" points="599.88,-553.12 599.88,-553.12 613.88,-553.12 613.88,-553.12 599.88,-553.12"/>
<polygon fill="#666666" stroke="#666666" points="599.88,-536.38 599.88,-536.38 613.88,-536.38 613.88,-536.38 599.88,-536.38"/>
<polygon fill="none" stroke="#666666" points="599.88,-517.62 599.88,-571.88 613.88,-571.88 613.88,-517.62 599.88,-517.62"/>
</a>
</g>
</g>
<!-- Node11&#45;&gt;Node10 -->
<g id="edge12_Node000010_Node000011" class="edge">
<title>Node11&#45;&gt;Node10</title>
<g id="a_edge12_Node000010_Node000011"><a xlink:title=" ">
<path fill="none" stroke="#63b8ff" d="M606.88,-517.7C606.88,-496.9 606.88,-467.45 606.88,-443.91"/>
<polygon fill="none" stroke="#63b8ff" points="606.88,-444.09 602.88,-438.09 606.88,-432.09 610.88,-438.09 606.88,-444.09"/>
</a>
</g>
<text xml:space="preserve" text-anchor="start" x="609.88" y="-480.75" font-family="Helvetica,sans-Serif" font-size="10.00" fill="grey">+elements</text>
</g>
<!-- Node12&#45;&gt;Node1 -->
<g id="edge13_Node000001_Node000012" class="edge">
<title>Node12&#45;&gt;Node1</title>
<g id="a_edge13_Node000001_Node000012"><a xlink:title=" ">
<path fill="none" stroke="#63b8ff" d="M619.3,-217.99C582.78,-192.94 525.58,-154.27 474.88,-122.5 456.79,-111.17 436.86,-99.26 418.61,-88.58"/>
<polygon fill="none" stroke="#63b8ff" points="418.65,-88.6 411.45,-89.03 408.28,-82.55 415.48,-82.12 418.65,-88.6"/>
</a>
</g>
<text xml:space="preserve" text-anchor="start" x="553.53" y="-162.25" font-family="Helvetica,sans-Serif" font-size="10.00" fill="grey">+effort</text>
<text xml:space="preserve" text-anchor="start" x="553.53" y="-145.5" font-family="Helvetica,sans-Serif" font-size="10.00" fill="grey">+position</text>
<text xml:space="preserve" text-anchor="start" x="553.53" y="-128.75" font-family="Helvetica,sans-Serif" font-size="10.00" fill="grey">+velocity</text>
</g>
<!-- Node13 -->
<g id="Node000013" class="node">
<title>Node13</title>
<g id="a_Node000013"><a xlink:title=" ">
<polygon fill="white" stroke="none" points="762.38,-431.38 721.38,-431.38 721.38,-377.12 762.38,-377.12 762.38,-431.38"/>
<text xml:space="preserve" text-anchor="start" x="725.38" y="-417.88" font-family="Helvetica,sans-Serif" font-size="10.00">double</text>
<text xml:space="preserve" text-anchor="start" x="740.38" y="-401.12" font-family="Helvetica,sans-Serif" font-size="10.00"> </text>
<text xml:space="preserve" text-anchor="start" x="740.38" y="-384.38" font-family="Helvetica,sans-Serif" font-size="10.00"> </text>
<polygon fill="#666666" stroke="#666666" points="721.38,-412.62 721.38,-412.62 762.38,-412.62 762.38,-412.62 721.38,-412.62"/>
<polygon fill="#666666" stroke="#666666" points="721.38,-395.88 721.38,-395.88 762.38,-395.88 762.38,-395.88 721.38,-395.88"/>
<polygon fill="none" stroke="#666666" points="721.38,-377.12 721.38,-431.38 762.38,-431.38 762.38,-377.12 721.38,-377.12"/>
</a>
</g>
</g>
<!-- Node13&#45;&gt;Node12 -->
<g id="edge14_Node000012_Node000013" class="edge">
<title>Node13&#45;&gt;Node12</title>
<g id="a_edge14_Node000012_Node000013"><a xlink:title=" ">
<path fill="none" stroke="#63b8ff" d="M733.11,-377.51C726.58,-359.58 716.92,-335.36 705.88,-315.25 699.77,-304.13 692.23,-292.66 684.91,-282.33"/>
<polygon fill="none" stroke="#63b8ff" points="685.02,-282.48 678.26,-279.98 677.96,-272.77 684.73,-275.27 685.02,-282.48"/>
</a>
</g>
<text xml:space="preserve" text-anchor="start" x="718.23" y="-321.5" font-family="Helvetica,sans-Serif" font-size="10.00" fill="grey">+elements</text>
</g>
</g>
</svg>

<g id="navigator" transform="translate(0 0)" fill="#404254">
  <rect fill="#f2f5e9" fill-opacity="0.5" stroke="#606060" stroke-width=".5" x="0" y="0" width="60" height="60"/>
  <use id="zoomplus" xlink:href="#zoomPlus" x="17" y="9" onmousedown="handleZoom(evt,'in')"/>
  <use id="zoomminus" xlink:href="#zoomMin" x="42" y="9" onmousedown="handleZoom(evt,'out')"/>
  <use id="reset" xlink:href="#resetDef" x="30" y="36" onmousedown="handleReset()"/>
   <use id="arrowup" xlink:href="#arrowUp" x="0" y="0" onmousedown="handlePan(0,-1)"/>
  <use id="arrowright" xlink:href="#arrowRight" x="0" y="0" onmousedown="handlePan(1,0)"/>
  <use id="arrowdown" xlink:href="#arrowDown" x="0" y="0" onmousedown="handlePan(0,1)"/>
  <use id="arrowleft" xlink:href="#arrowLeft" x="0" y="0" onmousedown="handlePan(-1,0)"/>
</g>
<svg viewBox="0 0 15 15" width="100%" height="30px" preserveAspectRatio="xMaxYMin meet">
 <g id="arrow_out" transform="scale(0.3 0.3)">
  <a xlink:href="classrm_1_1msg_1_1JointState__coll__graph_org.svg" target="_base">
   <rect id="button" ry="5" rx="5" y="6" x="6" height="38" width="38"
        fill="#f2f5e9" fill-opacity="0.5" stroke="#606060" stroke-width="1.0"/>
   <path id="arrow"
     d="M 11.500037,31.436501 C 11.940474,20.09759 22.043105,11.32322 32.158766,21.979434 L 37.068811,17.246167 C 37.068811,17.246167 37.088388,32 37.088388,32 L 22.160133,31.978069 C 22.160133,31.978069 26.997745,27.140456 26.997745,27.140456 C 18.528582,18.264221 13.291696,25.230495 11.500037,31.436501 z"
     style="fill:#404040;"/>
  </a>
 </g>
</svg>

<style type='text/css'>
<![CDATA[
[data-mouse-over-selected='false'] { opacity: 0.7; }
[data-mouse-over-selected='true']  { opacity: 1.0; }
]]>
</style>
<script type="application/ecmascript"><![CDATA[
document.addEventListener('DOMContentLoaded', (event) => {
  highlightEdges();
  highlightAdjacentNodes();
});
]]></script>
</svg>
