<?xml version="1.0" encoding="UTF-8" standalone="no"?>
<!DOCTYPE svg PUBLIC "-//W3C//DTD SVG 1.1//EN"
 "http://www.w3.org/Graphics/SVG/1.1/DTD/svg11.dtd">
<!-- Generated by graphviz version 2.43.0 (0)
 -->
<!-- Title: rm::msg::JointState Pages: 1 -->
<!--zoomable 464 -->

<svg id="main" version="1.1" xmlns="http://www.w3.org/2000/svg" xmlns:xlink="http://www.w3.org/1999/xlink" xml:space="preserve" onload="init(evt)">

<style type="text/css"><![CDATA[
.node, .edge {opacity: 0.7;}
.node.selected, .edge.selected {opacity: 1;}
.edge:hover path { stroke: red; }
.edge:hover polygon { stroke: red; fill: red; }
]]></style>

<defs>
  <circle id="rim" cx="0" cy="0" r="7"/>
  <circle id="rim2" cx="0" cy="0" r="3.5"/>
  <g id="zoomPlus">
    <use xlink:href="#rim" fill="#404040"><set attributeName="fill" to="#808080" begin="zoomplus.mouseover" end="zoomplus.mouseout"/></use>
    <path d="M-4,0h8M0,-4v8" fill="none" stroke="white" stroke-width="1.5" pointer-events="none"/>
  </g>
  <g id="zoomMin">
    <use xlink:href="#rim" fill="#404040"><set attributeName="fill" to="#808080" begin="zoomminus.mouseover" end="zoomminus.mouseout"/></use>
    <path d="M-4,0h8" fill="none" stroke="white" stroke-width="1.5" pointer-events="none"/>
  </g>
  <g id="arrowUp" transform="translate(30 24)">
    <use xlink:href="#rim"/>
    <path pointer-events="none" fill="none" stroke="white" stroke-width="1.5" d="M0,-3.0v7 M-2.5,-0.5L0,-3.0L2.5,-0.5"/>
  </g>
  <g id="arrowRight" transform="rotate(90) translate(36 -43)">
    <use xlink:href="#rim"/>
    <path pointer-events="none" fill="none" stroke="white" stroke-width="1.5" d="M0,-3.0v7 M-2.5,-0.5L0,-3.0L2.5,-0.5"/>
  </g>
  <g id="arrowDown" transform="rotate(180) translate(-30 -48)">
    <use xlink:href="#rim"/>
    <path pointer-events="none" fill="none" stroke="white" stroke-width="1.5" d="M0,-3.0v7 M-2.5,-0.5L0,-3.0L2.5,-0.5"/>
  </g>
  <g id="arrowLeft" transform="rotate(270) translate(-36 17)">
    <use xlink:href="#rim"/>
    <path pointer-events="none" fill="none" stroke="white" stroke-width="1.5" d="M0,-3.0v7 M-2.5,-0.5L0,-3.0L2.5,-0.5"/>
  </g>
  <g id="resetDef">
    <use xlink:href="#rim2" fill="#404040"><set attributeName="fill" to="#808080" begin="reset.mouseover" end="reset.mouseout"/></use>
  </g>
</defs>
<script type="application/ecmascript">
var viewWidth = 579;
var viewHeight = 464;
var sectionId = 'dynsection-0';
</script>
<script type="application/ecmascript" xlink:href="../../svg.min.js"/>
<svg id="graph" class="graph">
<g id="viewport">
<title>rm::msg::JointState</title>
<!-- Node1 -->
<g id="Node000001" class="node">
<title>Node1</title>
<g id="a_Node000001"><a xlink:title="JointState 消息类型：sensor/JointState">
<polygon fill="#999999" stroke="transparent" points="225.18,-79 128.18,-79 128.18,0 225.18,0 225.18,-79"/>
<text text-anchor="start" x="133.68" y="-66.5" font-family="Helvetica,sans-Serif" font-size="10.00">rm::msg::JointState</text>
<text text-anchor="start" x="175.18" y="-51.5" font-family="Helvetica,sans-Serif" font-size="10.00"> </text>
<text text-anchor="start" x="135.18" y="-36.5" font-family="Helvetica,sans-Serif" font-size="10.00">+</text>
<text text-anchor="start" x="148.68" y="-36.5" font-family="Helvetica,sans-Serif" font-size="10.00">serialize()</text>
<text text-anchor="start" x="135.18" y="-21.5" font-family="Helvetica,sans-Serif" font-size="10.00">+</text>
<text text-anchor="start" x="148.68" y="-21.5" font-family="Helvetica,sans-Serif" font-size="10.00">compact_size()</text>
<text text-anchor="start" x="135.18" y="-6.5" font-family="Helvetica,sans-Serif" font-size="10.00">+</text>
<text text-anchor="start" x="148.68" y="-6.5" font-family="Helvetica,sans-Serif" font-size="10.00">deserialize()</text>
<polygon fill="#666666" stroke="#666666" points="128.68,-61.5 128.68,-61.5 225.68,-61.5 225.68,-61.5 128.68,-61.5"/>
<polygon fill="#666666" stroke="#666666" points="128.68,-46.5 128.68,-46.5 225.68,-46.5 225.68,-46.5 128.68,-46.5"/>
<polygon fill="none" stroke="#666666" points="128.18,0 128.18,-79 225.18,-79 225.18,0 128.18,0"/>
</a>
</g>
</g>
<!-- Node2 -->
<g id="Node000002" class="node">
<title>Node2</title>
<g id="a_Node000002"><a xlink:href="../../de/de3/classrm_1_1msg_1_1Header.html" target="_top" xlink:title="Header 消息类型：std/Header">
<polygon fill="white" stroke="transparent" points="163.68,-241 77.68,-241 77.68,-162 163.68,-162 163.68,-241"/>
<text text-anchor="start" x="83.68" y="-228.5" font-family="Helvetica,sans-Serif" font-size="10.00">rm::msg::Header</text>
<text text-anchor="start" x="118.68" y="-213.5" font-family="Helvetica,sans-Serif" font-size="10.00"> </text>
<text text-anchor="start" x="81.68" y="-198.5" font-family="Helvetica,sans-Serif" font-size="10.00">+</text>
<text text-anchor="start" x="92.68" y="-198.5" font-family="Helvetica,sans-Serif" font-size="10.00">serialize()</text>
<text text-anchor="start" x="81.68" y="-183.5" font-family="Helvetica,sans-Serif" font-size="10.00">+</text>
<text text-anchor="start" x="92.68" y="-183.5" font-family="Helvetica,sans-Serif" font-size="10.00">compact_size()</text>
<text text-anchor="start" x="81.68" y="-168.5" font-family="Helvetica,sans-Serif" font-size="10.00">+</text>
<text text-anchor="start" x="92.68" y="-168.5" font-family="Helvetica,sans-Serif" font-size="10.00">deserialize()</text>
<polygon fill="#666666" stroke="#666666" points="77.68,-223.5 77.68,-223.5 163.68,-223.5 163.68,-223.5 77.68,-223.5"/>
<polygon fill="#666666" stroke="#666666" points="77.68,-208.5 77.68,-208.5 163.68,-208.5 163.68,-208.5 77.68,-208.5"/>
<polygon fill="none" stroke="#666666" points="77.68,-162 77.68,-241 163.68,-241 163.68,-162 77.68,-162"/>
</a>
</g>
</g>
<!-- Node2&#45;&gt;Node1 -->
<g id="edge1_Node000001_Node000002" class="edge">
<title>Node2&#45;&gt;Node1</title>
<g id="a_edge1_Node000001_Node000002"><a xlink:title=" ">
<path fill="none" stroke="#63b8ff" d="M134.24,-161.77C141.71,-140.43 151.07,-113.69 159.09,-90.75"/>
<polygon fill="none" stroke="#63b8ff" points="159.19,-90.48 157.4,-83.49 163.15,-79.15 164.95,-86.14 159.19,-90.48"/>
</a>
</g>
<text text-anchor="start" x="157.68" y="-117.5" font-family="Helvetica,sans-Serif" font-size="10.00" fill="grey">+header</text>
</g>
<!-- Node3 -->
<g id="Node000003" class="node">
<title>Node3</title>
<g id="a_Node000003"><a xlink:title=" ">
<polygon fill="white" stroke="transparent" points="131.18,-343 86.18,-343 86.18,-294 131.18,-294 131.18,-343"/>
<text text-anchor="start" x="91.68" y="-330.5" font-family="Helvetica,sans-Serif" font-size="10.00">uint32_t</text>
<text text-anchor="start" x="107.18" y="-315.5" font-family="Helvetica,sans-Serif" font-size="10.00"> </text>
<text text-anchor="start" x="107.18" y="-300.5" font-family="Helvetica,sans-Serif" font-size="10.00"> </text>
<polygon fill="#666666" stroke="#666666" points="86.68,-325.5 86.68,-325.5 131.68,-325.5 131.68,-325.5 86.68,-325.5"/>
<polygon fill="#666666" stroke="#666666" points="86.68,-310.5 86.68,-310.5 131.68,-310.5 131.68,-310.5 86.68,-310.5"/>
<polygon fill="none" stroke="#666666" points="86.18,-294 86.18,-343 131.18,-343 131.18,-294 86.18,-294"/>
</a>
</g>
</g>
<!-- Node3&#45;&gt;Node2 -->
<g id="edge2_Node000002_Node000003" class="edge">
<title>Node3&#45;&gt;Node2</title>
<g id="a_edge2_Node000002_Node000003"><a xlink:title=" ">
<path fill="none" stroke="#63b8ff" d="M108.15,-293.82C108.15,-283.15 108.48,-270.42 109.68,-259 109.88,-257.11 110.11,-255.19 110.37,-253.25"/>
<polygon fill="none" stroke="#63b8ff" points="110.38,-253.13 107.34,-246.59 112.21,-241.27 115.25,-247.81 110.38,-253.13"/>
</a>
</g>
<text text-anchor="start" x="112.68" y="-264.5" font-family="Helvetica,sans-Serif" font-size="10.00" fill="grey">+seq</text>
</g>
<!-- Node4 -->
<g id="Node000004" class="node">
<title>Node4</title>
<g id="a_Node000004"><a xlink:title=" ">
<polygon fill="white" stroke="transparent" points="215.18,-343 176.18,-343 176.18,-294 215.18,-294 215.18,-343"/>
<text text-anchor="start" x="181.68" y="-330.5" font-family="Helvetica,sans-Serif" font-size="10.00">double</text>
<text text-anchor="start" x="194.18" y="-315.5" font-family="Helvetica,sans-Serif" font-size="10.00"> </text>
<text text-anchor="start" x="194.18" y="-300.5" font-family="Helvetica,sans-Serif" font-size="10.00"> </text>
<polygon fill="#666666" stroke="#666666" points="176.68,-325.5 176.68,-325.5 215.68,-325.5 215.68,-325.5 176.68,-325.5"/>
<polygon fill="#666666" stroke="#666666" points="176.68,-310.5 176.68,-310.5 215.68,-310.5 215.68,-310.5 176.68,-310.5"/>
<polygon fill="none" stroke="#666666" points="176.18,-294 176.18,-343 215.18,-343 215.18,-294 176.18,-294"/>
</a>
</g>
</g>
<!-- Node4&#45;&gt;Node2 -->
<g id="edge3_Node000002_Node000004" class="edge">
<title>Node4&#45;&gt;Node2</title>
<g id="a_edge3_Node000002_Node000004"><a xlink:title=" ">
<path fill="none" stroke="#63b8ff" d="M177.91,-293.58C173.81,-287.88 169.53,-281.77 165.68,-276 160.49,-268.21 155.15,-259.83 150.04,-251.63"/>
<polygon fill="none" stroke="#63b8ff" points="150.02,-251.59 143.46,-248.58 143.72,-241.38 150.27,-244.39 150.02,-251.59"/>
</a>
</g>
<text text-anchor="start" x="168.68" y="-264.5" font-family="Helvetica,sans-Serif" font-size="10.00" fill="grey">+stamp</text>
</g>
<!-- Node11 -->
<g id="Node000011" class="node">
<title>Node11</title>
<g id="a_Node000011"><a xlink:title=" ">
<polygon fill="white" stroke="transparent" points="285.68,-226 181.68,-226 181.68,-177 285.68,-177 285.68,-226"/>
<text text-anchor="start" x="186.68" y="-213.5" font-family="Helvetica,sans-Serif" font-size="10.00">std::vector&lt; double &gt;</text>
<text text-anchor="start" x="231.68" y="-198.5" font-family="Helvetica,sans-Serif" font-size="10.00"> </text>
<text text-anchor="start" x="231.68" y="-183.5" font-family="Helvetica,sans-Serif" font-size="10.00"> </text>
<polygon fill="#666666" stroke="#666666" points="181.68,-208.5 181.68,-208.5 285.68,-208.5 285.68,-208.5 181.68,-208.5"/>
<polygon fill="#666666" stroke="#666666" points="181.68,-193.5 181.68,-193.5 285.68,-193.5 285.68,-193.5 181.68,-193.5"/>
<polygon fill="none" stroke="#666666" points="181.68,-177 181.68,-226 285.68,-226 285.68,-177 181.68,-177"/>
</a>
</g>
</g>
<!-- Node4&#45;&gt;Node11 -->
<g id="edge12_Node000011_Node000004" class="edge">
<title>Node4&#45;&gt;Node11</title>
<g id="a_edge12_Node000011_Node000004"><a xlink:title=" ">
<path fill="none" stroke="#63b8ff" d="M203.46,-293.95C208.84,-277.67 216.09,-255.74 222.14,-237.43"/>
<polygon fill="none" stroke="#63b8ff" points="222.14,-237.41 220.23,-230.46 225.91,-226.02 227.83,-232.97 222.14,-237.41"/>
</a>
</g>
<text text-anchor="start" x="217.68" y="-264.5" font-family="Helvetica,sans-Serif" font-size="10.00" fill="grey">+elements</text>
</g>
<!-- Node5 -->
<g id="Node000005" class="node">
<title>Node5</title>
<g id="a_Node000005"><a xlink:title=" ">
<polygon fill="white" stroke="transparent" points="376.68,-343 322.68,-343 322.68,-294 376.68,-294 376.68,-343"/>
<text text-anchor="start" x="327.68" y="-330.5" font-family="Helvetica,sans-Serif" font-size="10.00">std::string</text>
<text text-anchor="start" x="347.68" y="-315.5" font-family="Helvetica,sans-Serif" font-size="10.00"> </text>
<text text-anchor="start" x="347.68" y="-300.5" font-family="Helvetica,sans-Serif" font-size="10.00"> </text>
<polygon fill="#666666" stroke="#666666" points="322.68,-325.5 322.68,-325.5 376.68,-325.5 376.68,-325.5 322.68,-325.5"/>
<polygon fill="#666666" stroke="#666666" points="322.68,-310.5 322.68,-310.5 376.68,-310.5 376.68,-310.5 322.68,-310.5"/>
<polygon fill="none" stroke="#666666" points="322.68,-294 322.68,-343 376.68,-343 376.68,-294 322.68,-294"/>
</a>
</g>
</g>
<!-- Node5&#45;&gt;Node2 -->
<g id="edge4_Node000002_Node000005" class="edge">
<title>Node5&#45;&gt;Node2</title>
<g id="a_edge4_Node000002_Node000005"><a xlink:title=" ">
<path fill="none" stroke="#63b8ff" d="M324.17,-293.89C309.54,-281.64 290.25,-267.49 270.68,-259 233.31,-242.78 216.14,-256.09 175.08,-241.15"/>
<polygon fill="none" stroke="#63b8ff" points="174.9,-241.08 167.84,-242.53 163.78,-236.57 170.85,-235.12 174.9,-241.08"/>
</a>
</g>
<text text-anchor="start" x="301.68" y="-264.5" font-family="Helvetica,sans-Serif" font-size="10.00" fill="grey">+frame_id</text>
</g>
<!-- Node8 -->
<g id="Node000008" class="node">
<title>Node8</title>
<g id="a_Node000008"><a xlink:title=" ">
<polygon fill="white" stroke="transparent" points="430.18,-226 311.18,-226 311.18,-177 430.18,-177 430.18,-226"/>
<text text-anchor="start" x="316.68" y="-213.5" font-family="Helvetica,sans-Serif" font-size="10.00">std::vector&lt; std::string &gt;</text>
<text text-anchor="start" x="369.18" y="-198.5" font-family="Helvetica,sans-Serif" font-size="10.00"> </text>
<text text-anchor="start" x="369.18" y="-183.5" font-family="Helvetica,sans-Serif" font-size="10.00"> </text>
<polygon fill="#666666" stroke="#666666" points="311.68,-208.5 311.68,-208.5 430.68,-208.5 430.68,-208.5 311.68,-208.5"/>
<polygon fill="#666666" stroke="#666666" points="311.68,-193.5 311.68,-193.5 430.68,-193.5 430.68,-193.5 311.68,-193.5"/>
<polygon fill="none" stroke="#666666" points="311.18,-177 311.18,-226 430.18,-226 430.18,-177 311.18,-177"/>
</a>
</g>
</g>
<!-- Node5&#45;&gt;Node8 -->
<g id="edge8_Node000008_Node000005" class="edge">
<title>Node5&#45;&gt;Node8</title>
<g id="a_edge8_Node000008_Node000005"><a xlink:title=" ">
<path fill="none" stroke="#63b8ff" d="M353.98,-293.95C356.93,-277.83 360.88,-256.15 364.21,-237.95"/>
<polygon fill="none" stroke="#63b8ff" points="364.23,-237.82 361.37,-231.2 366.39,-226.02 369.24,-232.64 364.23,-237.82"/>
</a>
</g>
<text text-anchor="start" x="362.68" y="-264.5" font-family="Helvetica,sans-Serif" font-size="10.00" fill="grey">+elements</text>
</g>
<!-- Node6 -->
<g id="Node000006" class="node">
<title>Node6</title>
<g id="a_Node000006"><a xlink:title=" ">
<polygon fill="white" stroke="transparent" points="394.18,-456 305.18,-456 305.18,-396 394.18,-396 394.18,-456"/>
<text text-anchor="start" x="310.68" y="-444" font-family="Helvetica,sans-Serif" font-size="10.00">std::basic_string&lt;</text>
<text text-anchor="start" x="333.18" y="-433" font-family="Helvetica,sans-Serif" font-size="10.00"> Char &gt;</text>
<text text-anchor="start" x="348.18" y="-418" font-family="Helvetica,sans-Serif" font-size="10.00"> </text>
<text text-anchor="start" x="348.18" y="-403" font-family="Helvetica,sans-Serif" font-size="10.00"> </text>
<polygon fill="#666666" stroke="#666666" points="305.68,-428 305.68,-428 394.68,-428 394.68,-428 305.68,-428"/>
<polygon fill="#666666" stroke="#666666" points="305.68,-413 305.68,-413 394.68,-413 394.68,-413 305.68,-413"/>
<polygon fill="none" stroke="#666666" points="305.18,-396 305.18,-456 394.18,-456 394.18,-396 305.18,-396"/>
</a>
</g>
</g>
<!-- Node6&#45;&gt;Node5 -->
<g id="edge5_Node000005_Node000006" class="edge">
<title>Node6&#45;&gt;Node5</title>
<g id="a_edge5_Node000005_Node000006"><a xlink:title=" ">
<path fill="none" stroke="#63b8ff" d="M349.68,-385.79C349.68,-371.47 349.68,-355.73 349.68,-343.18"/>
<polygon fill="none" stroke="#63b8ff" points="346.18,-385.89 349.68,-395.89 353.18,-385.89 346.18,-385.89"/>
</a>
</g>
</g>
<!-- Node7 -->
<g id="Node000007" class="node">
<title>Node7</title>
<g id="a_Node000007"><a xlink:title=" ">
<polygon fill="white" stroke="transparent" points="29.18,-343 0.18,-343 0.18,-294 29.18,-294 29.18,-343"/>
<text text-anchor="start" x="5.68" y="-330.5" font-family="Helvetica,sans-Serif" font-size="10.00">char</text>
<text text-anchor="start" x="13.18" y="-315.5" font-family="Helvetica,sans-Serif" font-size="10.00"> </text>
<text text-anchor="start" x="13.18" y="-300.5" font-family="Helvetica,sans-Serif" font-size="10.00"> </text>
<polygon fill="#666666" stroke="#666666" points="0.68,-325.5 0.68,-325.5 29.68,-325.5 29.68,-325.5 0.68,-325.5"/>
<polygon fill="#666666" stroke="#666666" points="0.68,-310.5 0.68,-310.5 29.68,-310.5 29.68,-310.5 0.68,-310.5"/>
<polygon fill="none" stroke="#666666" points="0.18,-294 0.18,-343 29.18,-343 29.18,-294 0.18,-294"/>
</a>
</g>
</g>
<!-- Node7&#45;&gt;Node1 -->
<g id="edge14_Node000001_Node000007" class="edge">
<title>Node7&#45;&gt;Node1</title>
<g id="a_edge14_Node000001_Node000007"><a xlink:title=" ">
<path fill="none" stroke="#63b8ff" d="M8.21,-293.88C0.83,-262.04 -7.63,-204.47 13.68,-162 35.22,-119.08 79.91,-87.46 117.06,-67.25"/>
<polygon fill="none" stroke="#63b8ff" points="117.19,-67.18 120.64,-60.85 127.81,-61.6 124.36,-67.93 117.19,-67.18"/>
</a>
</g>
<text text-anchor="start" x="17.18" y="-198.5" font-family="Helvetica,sans-Serif" font-size="10.00" fill="grey">+msg_type</text>
</g>
<!-- Node7&#45;&gt;Node2 -->
<g id="edge6_Node000002_Node000007" class="edge">
<title>Node7&#45;&gt;Node2</title>
<g id="a_edge6_Node000002_Node000007"><a xlink:title=" ">
<path fill="none" stroke="#63b8ff" d="M25.74,-293.95C31.65,-282.7 39.58,-269.46 48.68,-259 54.49,-252.32 61.18,-245.88 68.09,-239.88"/>
<polygon fill="none" stroke="#63b8ff" points="68.35,-239.66 70.41,-232.75 77.59,-232 75.52,-238.91 68.35,-239.66"/>
</a>
</g>
<text text-anchor="start" x="52.18" y="-264.5" font-family="Helvetica,sans-Serif" font-size="10.00" fill="grey">+msg_type</text>
</g>
<!-- Node8&#45;&gt;Node1 -->
<g id="edge7_Node000001_Node000008" class="edge">
<title>Node8&#45;&gt;Node1</title>
<g id="a_edge7_Node000001_Node000008"><a xlink:title=" ">
<path fill="none" stroke="#63b8ff" d="M349.17,-176.9C328.57,-154.95 296.08,-121.98 264.68,-97 255.61,-89.78 245.6,-82.65 235.67,-76.02"/>
<polygon fill="none" stroke="#63b8ff" points="235.44,-75.87 228.23,-75.93 225.4,-69.29 232.61,-69.23 235.44,-75.87"/>
</a>
</g>
<text text-anchor="start" x="319.18" y="-117.5" font-family="Helvetica,sans-Serif" font-size="10.00" fill="grey">+name</text>
</g>
<!-- Node9 -->
<g id="Node000009" class="node">
<title>Node9</title>
<g id="a_Node000009"><a xlink:title=" ">
<polygon fill="white" stroke="transparent" points="507.18,-343 426.18,-343 426.18,-294 507.18,-294 507.18,-343"/>
<text text-anchor="start" x="431.68" y="-330.5" font-family="Helvetica,sans-Serif" font-size="10.00">std::vector&lt; T &gt;</text>
<text text-anchor="start" x="465.18" y="-315.5" font-family="Helvetica,sans-Serif" font-size="10.00"> </text>
<text text-anchor="start" x="465.18" y="-300.5" font-family="Helvetica,sans-Serif" font-size="10.00"> </text>
<polygon fill="#666666" stroke="#666666" points="426.68,-325.5 426.68,-325.5 507.68,-325.5 507.68,-325.5 426.68,-325.5"/>
<polygon fill="#666666" stroke="#666666" points="426.68,-310.5 426.68,-310.5 507.68,-310.5 507.68,-310.5 426.68,-310.5"/>
<polygon fill="none" stroke="#666666" points="426.18,-294 426.18,-343 507.18,-343 507.18,-294 426.18,-294"/>
</a>
</g>
</g>
<!-- Node9&#45;&gt;Node8 -->
<g id="edge9_Node000008_Node000009" class="edge">
<title>Node9&#45;&gt;Node8</title>
<g id="a_edge9_Node000008_Node000009"><a xlink:title=" ">
<path fill="none" stroke="orange" d="M498.36,-285.32C503.27,-276.64 505.14,-267.34 499.68,-259 484.16,-235.26 456.22,-221.43 430.3,-213.41"/>
<polygon fill="orange" stroke="orange" points="495.35,-283.51 492.59,-293.74 501.13,-287.47 495.35,-283.51"/>
</a>
</g>
<text text-anchor="start" x="505.68" y="-264.5" font-family="Helvetica,sans-Serif" font-size="10.00" fill="grey">&lt; std::string &gt;</text>
</g>
<!-- Node9&#45;&gt;Node11 -->
<g id="edge13_Node000011_Node000009" class="edge">
<title>Node9&#45;&gt;Node11</title>
<g id="a_edge13_Node000011_Node000009"><a xlink:title=" ">
<path fill="none" stroke="orange" d="M445.93,-285.9C437.71,-275.76 427.4,-265.49 415.68,-259 371.2,-234.36 350.74,-257.65 302.68,-241 291.79,-237.23 280.62,-231.79 270.52,-226.18"/>
<polygon fill="orange" stroke="orange" points="443.22,-288.11 452.07,-293.93 448.78,-283.86 443.22,-288.11"/>
</a>
</g>
<text text-anchor="start" x="440.18" y="-264.5" font-family="Helvetica,sans-Serif" font-size="10.00" fill="grey">&lt; double &gt;</text>
</g>
<!-- Node10 -->
<g id="Node000010" class="node">
<title>Node10</title>
<g id="a_Node000010"><a xlink:title=" ">
<polygon fill="white" stroke="transparent" points="475.18,-450.5 458.18,-450.5 458.18,-401.5 475.18,-401.5 475.18,-450.5"/>
<text text-anchor="start" x="463.68" y="-438" font-family="Helvetica,sans-Serif" font-size="10.00">T</text>
<text text-anchor="start" x="465.18" y="-423" font-family="Helvetica,sans-Serif" font-size="10.00"> </text>
<text text-anchor="start" x="465.18" y="-408" font-family="Helvetica,sans-Serif" font-size="10.00"> </text>
<polygon fill="#666666" stroke="#666666" points="458.68,-433 458.68,-433 475.68,-433 475.68,-433 458.68,-433"/>
<polygon fill="#666666" stroke="#666666" points="458.68,-418 458.68,-418 475.68,-418 475.68,-418 458.68,-418"/>
<polygon fill="none" stroke="#666666" points="458.18,-401.5 458.18,-450.5 475.18,-450.5 475.18,-401.5 458.18,-401.5"/>
</a>
</g>
</g>
<!-- Node10&#45;&gt;Node9 -->
<g id="edge10_Node000009_Node000010" class="edge">
<title>Node10&#45;&gt;Node9</title>
<g id="a_edge10_Node000009_Node000010"><a xlink:title=" ">
<path fill="none" stroke="#63b8ff" d="M466.68,-401.32C466.68,-387.75 466.68,-370.44 466.68,-355.24"/>
<polygon fill="none" stroke="#63b8ff" points="466.68,-355.1 462.68,-349.1 466.68,-343.1 470.68,-349.1 466.68,-355.1"/>
</a>
</g>
<text text-anchor="start" x="469.68" y="-366.5" font-family="Helvetica,sans-Serif" font-size="10.00" fill="grey">+elements</text>
</g>
<!-- Node11&#45;&gt;Node1 -->
<g id="edge11_Node000001_Node000011" class="edge">
<title>Node11&#45;&gt;Node1</title>
<g id="a_edge11_Node000001_Node000011"><a xlink:title=" ">
<path fill="none" stroke="#63b8ff" d="M226.44,-176.91C219.85,-155.83 209.66,-124.16 199.68,-97 198.92,-94.93 198.13,-92.82 197.32,-90.69"/>
<polygon fill="none" stroke="#63b8ff" points="197.23,-90.45 191.32,-86.31 192.87,-79.27 198.78,-83.41 197.23,-90.45"/>
</a>
</g>
<text text-anchor="start" x="217.68" y="-132.5" font-family="Helvetica,sans-Serif" font-size="10.00" fill="grey">+effort</text>
<text text-anchor="start" x="217.68" y="-117.5" font-family="Helvetica,sans-Serif" font-size="10.00" fill="grey">+position</text>
<text text-anchor="start" x="217.68" y="-102.5" font-family="Helvetica,sans-Serif" font-size="10.00" fill="grey">+velocity</text>
</g>
</g>
</svg>

<g id="navigator" transform="translate(0 0)" fill="#404254">
  <rect fill="#f2f5e9" fill-opacity="0.5" stroke="#606060" stroke-width=".5" x="0" y="0" width="60" height="60"/>
  <use id="zoomplus" xlink:href="#zoomPlus" x="17" y="9" onmousedown="handleZoom(evt,'in')"/>
  <use id="zoomminus" xlink:href="#zoomMin" x="42" y="9" onmousedown="handleZoom(evt,'out')"/>
  <use id="reset" xlink:href="#resetDef" x="30" y="36" onmousedown="handleReset()"/>
   <use id="arrowup" xlink:href="#arrowUp" x="0" y="0" onmousedown="handlePan(0,-1)"/>
  <use id="arrowright" xlink:href="#arrowRight" x="0" y="0" onmousedown="handlePan(1,0)"/>
  <use id="arrowdown" xlink:href="#arrowDown" x="0" y="0" onmousedown="handlePan(0,1)"/>
  <use id="arrowleft" xlink:href="#arrowLeft" x="0" y="0" onmousedown="handlePan(-1,0)"/>
</g>
<svg viewBox="0 0 15 15" width="100%" height="30px" preserveAspectRatio="xMaxYMin meet">
 <g id="arrow_out" transform="scale(0.3 0.3)">
  <a xlink:href="classrm_1_1msg_1_1JointState__coll__graph_org.svg" target="_base">
   <rect id="button" ry="5" rx="5" y="6" x="6" height="38" width="38"
        fill="#f2f5e9" fill-opacity="0.5" stroke="#606060" stroke-width="1.0"/>
   <path id="arrow"
     d="M 11.500037,31.436501 C 11.940474,20.09759 22.043105,11.32322 32.158766,21.979434 L 37.068811,17.246167 C 37.068811,17.246167 37.088388,32 37.088388,32 L 22.160133,31.978069 C 22.160133,31.978069 26.997745,27.140456 26.997745,27.140456 C 18.528582,18.264221 13.291696,25.230495 11.500037,31.436501 z"
     style="fill:#404040;"/>
  </a>
 </g>
</svg>

<style type='text/css'>
<![CDATA[
[data-mouse-over-selected='false'] { opacity: 0.7; }
[data-mouse-over-selected='true']  { opacity: 1.0; }
]]>
</style>
<script type="application/ecmascript"><![CDATA[
document.addEventListener('DOMContentLoaded', (event) => {
  highlightEdges();
  highlightAdjacentNodes();
});
]]></script>
</svg>
