<?xml version="1.0" encoding="UTF-8" standalone="no"?>
<!DOCTYPE svg PUBLIC "-//W3C//DTD SVG 1.1//EN"
 "http://www.w3.org/Graphics/SVG/1.1/DTD/svg11.dtd">
<!-- Generated by graphviz version 2.43.0 (0)
 -->
<!-- Title: rm::RungeKutta Pages: 1 -->
<svg width="338pt" height="259pt"
 viewBox="0.00 0.00 338.00 259.00" xmlns="http://www.w3.org/2000/svg" xmlns:xlink="http://www.w3.org/1999/xlink">
<g id="graph0" class="graph" transform="scale(1 1) rotate(0) translate(4 255)">
<title>rm::RungeKutta</title>
<polygon fill="white" stroke="transparent" points="-4,4 -4,-255 334,-255 334,4 -4,4"/>
<!-- Node1 -->
<g id="node1" class="node">
<title>Node1</title>
<g id="a_node1"><a xlink:title="Butcher 表形式的常微分方程（组）数值求解器">
<polygon fill="#bfbfbf" stroke="black" points="119,-94.5 119,-250.5 211,-250.5 211,-94.5 119,-94.5"/>
<text text-anchor="middle" x="165" y="-238.5" font-family="Helvetica,sans-Serif" font-size="10.00">rm::RungeKutta</text>
<polyline fill="none" stroke="black" points="119,-231.5 211,-231.5 "/>
<text text-anchor="start" x="127" y="-219.5" font-family="Helvetica,sans-Serif" font-size="10.00"># _fs</text>
<text text-anchor="start" x="127" y="-208.5" font-family="Helvetica,sans-Serif" font-size="10.00"># _t0</text>
<text text-anchor="start" x="127" y="-197.5" font-family="Helvetica,sans-Serif" font-size="10.00"># _x0</text>
<text text-anchor="start" x="127" y="-186.5" font-family="Helvetica,sans-Serif" font-size="10.00"># _p</text>
<text text-anchor="start" x="127" y="-175.5" font-family="Helvetica,sans-Serif" font-size="10.00"># _lambda</text>
<text text-anchor="start" x="127" y="-164.5" font-family="Helvetica,sans-Serif" font-size="10.00"># _r</text>
<polyline fill="none" stroke="black" points="119,-157.5 211,-157.5 "/>
<text text-anchor="start" x="127" y="-145.5" font-family="Helvetica,sans-Serif" font-size="10.00">+ RungeKutta()</text>
<text text-anchor="start" x="127" y="-134.5" font-family="Helvetica,sans-Serif" font-size="10.00">+ init()</text>
<text text-anchor="start" x="127" y="-123.5" font-family="Helvetica,sans-Serif" font-size="10.00">+ init()</text>
<text text-anchor="start" x="127" y="-112.5" font-family="Helvetica,sans-Serif" font-size="10.00">+ solve()</text>
<text text-anchor="start" x="127" y="-101.5" font-family="Helvetica,sans-Serif" font-size="10.00">+ generate()</text>
</a>
</g>
</g>
<!-- Node2 -->
<g id="node2" class="node">
<title>Node2</title>
<g id="a_node2"><a xlink:href="../../da/d12/classrm_1_1RungeKutta2.html" target="_top" xlink:title="2 阶 2 级 Runge&#45;Kutta 求解器">
<polygon fill="white" stroke="black" points="0,-0.5 0,-57.5 98,-57.5 98,-0.5 0,-0.5"/>
<text text-anchor="middle" x="49" y="-45.5" font-family="Helvetica,sans-Serif" font-size="10.00">rm::RungeKutta2</text>
<polyline fill="none" stroke="black" points="0,-38.5 98,-38.5 "/>
<text text-anchor="middle" x="49" y="-26.5" font-family="Helvetica,sans-Serif" font-size="10.00"> </text>
<polyline fill="none" stroke="black" points="0,-19.5 98,-19.5 "/>
<text text-anchor="start" x="8" y="-7.5" font-family="Helvetica,sans-Serif" font-size="10.00">+ RungeKutta2()</text>
</a>
</g>
</g>
<!-- Node1&#45;&gt;Node2 -->
<g id="edge1" class="edge">
<title>Node1&#45;&gt;Node2</title>
<path fill="none" stroke="midnightblue" d="M112.32,-107.24C98.08,-89.87 83.41,-71.97 71.78,-57.79"/>
<polygon fill="none" stroke="midnightblue" points="109.77,-109.65 118.82,-115.17 115.19,-105.22 109.77,-109.65"/>
</g>
<!-- Node3 -->
<g id="node3" class="node">
<title>Node3</title>
<g id="a_node3"><a xlink:href="../../d8/d0a/classrm_1_1RungeKutta3.html" target="_top" xlink:title="3 阶 3 级 Runge&#45;Kutta 求解器">
<polygon fill="white" stroke="black" points="116,-0.5 116,-57.5 214,-57.5 214,-0.5 116,-0.5"/>
<text text-anchor="middle" x="165" y="-45.5" font-family="Helvetica,sans-Serif" font-size="10.00">rm::RungeKutta3</text>
<polyline fill="none" stroke="black" points="116,-38.5 214,-38.5 "/>
<text text-anchor="middle" x="165" y="-26.5" font-family="Helvetica,sans-Serif" font-size="10.00"> </text>
<polyline fill="none" stroke="black" points="116,-19.5 214,-19.5 "/>
<text text-anchor="start" x="124" y="-7.5" font-family="Helvetica,sans-Serif" font-size="10.00">+ RungeKutta3()</text>
</a>
</g>
</g>
<!-- Node1&#45;&gt;Node3 -->
<g id="edge2" class="edge">
<title>Node1&#45;&gt;Node3</title>
<path fill="none" stroke="midnightblue" d="M165,-83.84C165,-74.48 165,-65.54 165,-57.72"/>
<polygon fill="none" stroke="midnightblue" points="161.5,-84.13 165,-94.13 168.5,-84.13 161.5,-84.13"/>
</g>
<!-- Node4 -->
<g id="node4" class="node">
<title>Node4</title>
<g id="a_node4"><a xlink:href="../../d0/dcd/classrm_1_1RungeKutta4.html" target="_top" xlink:title="4 阶 4 级 Runge&#45;Kutta 求解器">
<polygon fill="white" stroke="black" points="232,-0.5 232,-57.5 330,-57.5 330,-0.5 232,-0.5"/>
<text text-anchor="middle" x="281" y="-45.5" font-family="Helvetica,sans-Serif" font-size="10.00">rm::RungeKutta4</text>
<polyline fill="none" stroke="black" points="232,-38.5 330,-38.5 "/>
<text text-anchor="middle" x="281" y="-26.5" font-family="Helvetica,sans-Serif" font-size="10.00"> </text>
<polyline fill="none" stroke="black" points="232,-19.5 330,-19.5 "/>
<text text-anchor="start" x="240" y="-7.5" font-family="Helvetica,sans-Serif" font-size="10.00">+ RungeKutta4()</text>
</a>
</g>
</g>
<!-- Node1&#45;&gt;Node4 -->
<g id="edge3" class="edge">
<title>Node1&#45;&gt;Node4</title>
<path fill="none" stroke="midnightblue" d="M217.68,-107.24C231.92,-89.87 246.59,-71.97 258.22,-57.79"/>
<polygon fill="none" stroke="midnightblue" points="214.81,-105.22 211.18,-115.17 220.23,-109.65 214.81,-105.22"/>
</g>
</g>
</svg>
