<?xml version="1.0" encoding="UTF-8" standalone="no"?>
<!DOCTYPE svg PUBLIC "-//W3C//DTD SVG 1.1//EN"
 "http://www.w3.org/Graphics/SVG/1.1/DTD/svg11.dtd">
<!-- Generated by graphviz version 2.43.0 (0)
 -->
<!-- Title: rmvl/tracker/tracker.h Pages: 1 -->
<svg width="1760pt" height="280pt"
 viewBox="0.00 0.00 1760.33 280.00" xmlns="http://www.w3.org/2000/svg" xmlns:xlink="http://www.w3.org/1999/xlink">
<g id="graph0" class="graph" transform="scale(1 1) rotate(0) translate(4 276)">
<title>rmvl/tracker/tracker.h</title>
<!-- Node1 -->
<g id="Node000001" class="node">
<title>Node1</title>
<g id="a_Node000001"><a xlink:title="追踪器抽象头文件">
<polygon fill="#999999" stroke="#666666" points="353.83,-272 244.83,-272 244.83,-253 353.83,-253 353.83,-272"/>
<text text-anchor="middle" x="299.33" y="-260" font-family="Helvetica,sans-Serif" font-size="10.00">rmvl/tracker/tracker.h</text>
</a>
</g>
</g>
<!-- Node2 -->
<g id="Node000002" class="node">
<title>Node2</title>
<g id="a_Node000002"><a xlink:href="../../d6/dd8/decider_2gyro__decider_8h.html" target="_top" xlink:title="装甲板模块决策器头文件">
<polygon fill="white" stroke="#666666" points="298.33,-24.5 162.33,-24.5 162.33,-5.5 298.33,-5.5 298.33,-24.5"/>
<text text-anchor="middle" x="230.33" y="-12.5" font-family="Helvetica,sans-Serif" font-size="10.00">rmvl/decider/gyro_decider.h</text>
</a>
</g>
</g>
<!-- Node1&#45;&gt;Node2 -->
<g id="edge1_Node000001_Node000002" class="edge">
<title>Node1&#45;&gt;Node2</title>
<g id="a_edge1_Node000001_Node000002"><a xlink:title=" ">
<path fill="none" stroke="#63b8ff" d="M234.55,-259.94C164.02,-256.71 57.86,-246.88 32.33,-217 -11.26,-165.97 -9.94,-118.92 31.33,-66 47.49,-45.28 111.09,-31.84 162.1,-24.17"/>
<polygon fill="#63b8ff" stroke="#63b8ff" points="234.54,-263.44 244.68,-260.37 234.84,-256.45 234.54,-263.44"/>
</a>
</g>
</g>
<!-- Node3 -->
<g id="Node000003" class="node">
<title>Node3</title>
<g id="a_Node000003"><a xlink:href="../../d9/dd1/group_8h.html" target="_top" xlink:title="序列组抽象头文件">
<polygon fill="white" stroke="#666666" points="1115.33,-211.5 1017.33,-211.5 1017.33,-192.5 1115.33,-192.5 1115.33,-211.5"/>
<text text-anchor="middle" x="1066.33" y="-199.5" font-family="Helvetica,sans-Serif" font-size="10.00">rmvl/group/group.h</text>
</a>
</g>
</g>
<!-- Node1&#45;&gt;Node3 -->
<g id="edge2_Node000001_Node000003" class="edge">
<title>Node1&#45;&gt;Node3</title>
<g id="a_edge2_Node000001_Node000003"><a xlink:title=" ">
<path fill="none" stroke="#63b8ff" d="M363.87,-256.58C513.87,-245.14 883.42,-216.95 1017.08,-206.76"/>
<polygon fill="#63b8ff" stroke="#63b8ff" points="363.58,-253.09 353.88,-257.34 364.12,-260.07 363.58,-253.09"/>
</a>
</g>
</g>
<!-- Node27 -->
<g id="Node000027" class="node">
<title>Node27</title>
<g id="a_Node000027"><a xlink:href="../../dc/d2d/rmvl_2tracker_8hpp.html" target="_top" xlink:title=" ">
<polygon fill="white" stroke="#666666" points="1219.33,-211.5 1133.33,-211.5 1133.33,-192.5 1219.33,-192.5 1219.33,-211.5"/>
<text text-anchor="middle" x="1176.33" y="-199.5" font-family="Helvetica,sans-Serif" font-size="10.00">rmvl/tracker.hpp</text>
</a>
</g>
</g>
<!-- Node1&#45;&gt;Node27 -->
<g id="edge29_Node000001_Node000027" class="edge">
<title>Node1&#45;&gt;Node27</title>
<g id="a_edge29_Node000001_Node000027"><a xlink:title=" ">
<path fill="none" stroke="#63b8ff" d="M364.01,-259.76C531.82,-254.96 978.23,-240.34 1124.33,-217 1132.37,-215.72 1140.94,-213.69 1148.77,-211.57"/>
<polygon fill="#63b8ff" stroke="#63b8ff" points="363.74,-256.27 353.84,-260.05 363.94,-263.26 363.74,-256.27"/>
</a>
</g>
</g>
<!-- Node28 -->
<g id="Node000028" class="node">
<title>Node28</title>
<g id="a_Node000028"><a xlink:href="../../d7/de6/tracker_2gyro__tracker_8h.html" target="_top" xlink:title="装甲板追踪器头文件">
<polygon fill="white" stroke="#666666" points="290.83,-211.5 157.83,-211.5 157.83,-192.5 290.83,-192.5 290.83,-211.5"/>
<text text-anchor="middle" x="224.33" y="-199.5" font-family="Helvetica,sans-Serif" font-size="10.00">rmvl/tracker/gyro_tracker.h</text>
</a>
</g>
</g>
<!-- Node1&#45;&gt;Node28 -->
<g id="edge30_Node000001_Node000028" class="edge">
<title>Node1&#45;&gt;Node28</title>
<g id="a_edge30_Node000001_Node000028"><a xlink:title=" ">
<path fill="none" stroke="#63b8ff" d="M280.15,-246.54C265.99,-235.49 247.21,-220.84 235.45,-211.67"/>
<polygon fill="#63b8ff" stroke="#63b8ff" points="278.23,-249.48 288.27,-252.87 282.53,-243.96 278.23,-249.48"/>
</a>
</g>
</g>
<!-- Node29 -->
<g id="Node000029" class="node">
<title>Node29</title>
<g id="a_Node000029"><a xlink:href="../../d5/dea/tracker_2planar__tracker_8h.html" target="_top" xlink:title="平面目标追踪器头文件">
<polygon fill="white" stroke="#666666" points="139.33,-217 41.33,-217 41.33,-187 139.33,-187 139.33,-217"/>
<text text-anchor="start" x="49.33" y="-205" font-family="Helvetica,sans-Serif" font-size="10.00">rmvl/tracker/planar</text>
<text text-anchor="middle" x="90.33" y="-194" font-family="Helvetica,sans-Serif" font-size="10.00">_tracker.h</text>
</a>
</g>
</g>
<!-- Node1&#45;&gt;Node29 -->
<g id="edge32_Node000001_Node000029" class="edge">
<title>Node1&#45;&gt;Node29</title>
<g id="a_edge32_Node000001_Node000029"><a xlink:title=" ">
<path fill="none" stroke="#63b8ff" d="M259.29,-250.29C225.13,-240.73 175.89,-226.95 139.37,-216.73"/>
<polygon fill="#63b8ff" stroke="#63b8ff" points="258.37,-253.67 268.94,-252.99 260.26,-246.93 258.37,-253.67"/>
</a>
</g>
</g>
<!-- Node30 -->
<g id="Node000030" class="node">
<title>Node30</title>
<g id="a_Node000030"><a xlink:href="../../dd/d0a/tracker_2rune__tracker_8h.html" target="_top" xlink:title="神符追踪器头文件">
<polygon fill="white" stroke="#666666" points="441.83,-211.5 308.83,-211.5 308.83,-192.5 441.83,-192.5 441.83,-211.5"/>
<text text-anchor="middle" x="375.33" y="-199.5" font-family="Helvetica,sans-Serif" font-size="10.00">rmvl/tracker/rune_tracker.h</text>
</a>
</g>
</g>
<!-- Node1&#45;&gt;Node30 -->
<g id="edge34_Node000001_Node000030" class="edge">
<title>Node1&#45;&gt;Node30</title>
<g id="a_edge34_Node000001_Node000030"><a xlink:title=" ">
<path fill="none" stroke="#63b8ff" d="M318.77,-246.54C333.12,-235.49 352.16,-220.84 364.07,-211.67"/>
<polygon fill="#63b8ff" stroke="#63b8ff" points="316.34,-243.99 310.55,-252.87 320.61,-249.54 316.34,-243.99"/>
</a>
</g>
</g>
<!-- Node4 -->
<g id="Node000004" class="node">
<title>Node4</title>
<g id="a_Node000004"><a xlink:href="../../d9/df2/compensator_8h.html" target="_top" xlink:title="抽象补偿类头文件">
<polygon fill="white" stroke="#666666" points="1066.83,-151 905.83,-151 905.83,-132 1066.83,-132 1066.83,-151"/>
<text text-anchor="middle" x="986.33" y="-139" font-family="Helvetica,sans-Serif" font-size="10.00">rmvl/compensator/compensator.h</text>
</a>
</g>
</g>
<!-- Node3&#45;&gt;Node4 -->
<g id="edge3_Node000003_Node000004" class="edge">
<title>Node3&#45;&gt;Node4</title>
<g id="a_edge3_Node000003_Node000004"><a xlink:title=" ">
<path fill="none" stroke="#63b8ff" d="M1046.3,-186.35C1031.14,-175.27 1010.85,-160.43 998.19,-151.17"/>
<polygon fill="#63b8ff" stroke="#63b8ff" points="1044.39,-189.29 1054.53,-192.37 1048.52,-183.64 1044.39,-189.29"/>
</a>
</g>
</g>
<!-- Node12 -->
<g id="Node000012" class="node">
<title>Node12</title>
<g id="a_Node000012"><a xlink:href="../../d5/d9f/detector_8h.html" target="_top" xlink:title="抽象识别类头文件">
<polygon fill="white" stroke="#666666" points="514.83,-151 395.83,-151 395.83,-132 514.83,-132 514.83,-151"/>
<text text-anchor="middle" x="455.33" y="-139" font-family="Helvetica,sans-Serif" font-size="10.00">rmvl/detector/detector.h</text>
</a>
</g>
</g>
<!-- Node3&#45;&gt;Node12 -->
<g id="edge12_Node000003_Node000012" class="edge">
<title>Node3&#45;&gt;Node12</title>
<g id="a_edge12_Node000003_Node000012"><a xlink:title=" ">
<path fill="none" stroke="#63b8ff" d="M1006.93,-195.31C890.22,-184.14 632.15,-159.43 515.12,-148.22"/>
<polygon fill="#63b8ff" stroke="#63b8ff" points="1006.82,-198.82 1017.11,-196.29 1007.49,-191.85 1006.82,-198.82"/>
</a>
</g>
</g>
<!-- Node18 -->
<g id="Node000018" class="node">
<title>Node18</title>
<g id="a_Node000018"><a xlink:href="../../db/d4f/rmvl_2group_8hpp.html" target="_top" xlink:title=" ">
<polygon fill="white" stroke="#666666" points="1357.83,-151 1276.83,-151 1276.83,-132 1357.83,-132 1357.83,-151"/>
<text text-anchor="middle" x="1317.33" y="-139" font-family="Helvetica,sans-Serif" font-size="10.00">rmvl/group.hpp</text>
</a>
</g>
</g>
<!-- Node3&#45;&gt;Node18 -->
<g id="edge19_Node000003_Node000018" class="edge">
<title>Node3&#45;&gt;Node18</title>
<g id="a_edge19_Node000003_Node000018"><a xlink:title=" ">
<path fill="none" stroke="#63b8ff" d="M1111.58,-190.03C1115.89,-189 1120.19,-187.98 1124.33,-187 1178.38,-174.25 1241.05,-159.87 1279.95,-151"/>
<polygon fill="#63b8ff" stroke="#63b8ff" points="1110.5,-186.69 1101.59,-192.43 1112.13,-193.5 1110.5,-186.69"/>
</a>
</g>
</g>
<!-- Node19 -->
<g id="Node000019" class="node">
<title>Node19</title>
<g id="a_Node000019"><a xlink:href="../../d3/df0/group_2gyro__group_8h.html" target="_top" xlink:title="装甲序列组头文件">
<polygon fill="white" stroke="#666666" points="1498.33,-151 1376.33,-151 1376.33,-132 1498.33,-132 1498.33,-151"/>
<text text-anchor="middle" x="1437.33" y="-139" font-family="Helvetica,sans-Serif" font-size="10.00">rmvl/group/gyro_group.h</text>
</a>
</g>
</g>
<!-- Node3&#45;&gt;Node19 -->
<g id="edge20_Node000003_Node000019" class="edge">
<title>Node3&#45;&gt;Node19</title>
<g id="a_edge20_Node000003_Node000019"><a xlink:title=" ">
<path fill="none" stroke="#63b8ff" d="M1109.47,-190.11C1114.46,-188.99 1119.5,-187.92 1124.33,-187 1171.3,-178.01 1299.34,-160.64 1376.33,-150.47"/>
<polygon fill="#63b8ff" stroke="#63b8ff" points="1108.29,-186.79 1099.34,-192.46 1109.87,-193.61 1108.29,-186.79"/>
</a>
</g>
</g>
<!-- Node20 -->
<g id="Node000020" class="node">
<title>Node20</title>
<g id="a_Node000020"><a xlink:href="../../d8/df3/group_2rune__group_8h.html" target="_top" xlink:title="神符序列组头文件">
<polygon fill="white" stroke="#666666" points="1638.33,-151 1516.33,-151 1516.33,-132 1638.33,-132 1638.33,-151"/>
<text text-anchor="middle" x="1577.33" y="-139" font-family="Helvetica,sans-Serif" font-size="10.00">rmvl/group/rune_group.h</text>
</a>
</g>
</g>
<!-- Node3&#45;&gt;Node20 -->
<g id="edge21_Node000003_Node000020" class="edge">
<title>Node3&#45;&gt;Node20</title>
<g id="a_edge21_Node000003_Node000020"><a xlink:title=" ">
<path fill="none" stroke="#63b8ff" d="M1107.85,-190.22C1113.37,-189.01 1118.97,-187.89 1124.33,-187 1292.98,-158.87 1337.34,-169.31 1507.33,-151 1510.25,-150.69 1513.24,-150.36 1516.26,-150.01"/>
<polygon fill="#63b8ff" stroke="#63b8ff" points="1107.03,-186.82 1098.07,-192.47 1108.6,-193.64 1107.03,-186.82"/>
</a>
</g>
</g>
<!-- Node21 -->
<g id="Node000021" class="node">
<title>Node21</title>
<g id="a_Node000021"><a xlink:href="../../dc/d08/predictor_8h.html" target="_top" xlink:title="抽象预测类头文件">
<polygon fill="white" stroke="#666666" points="1258.33,-151 1134.33,-151 1134.33,-132 1258.33,-132 1258.33,-151"/>
<text text-anchor="middle" x="1196.33" y="-139" font-family="Helvetica,sans-Serif" font-size="10.00">rmvl/predictor/predictor.h</text>
</a>
</g>
</g>
<!-- Node3&#45;&gt;Node21 -->
<g id="edge22_Node000003_Node000021" class="edge">
<title>Node3&#45;&gt;Node21</title>
<g id="a_edge22_Node000003_Node000021"><a xlink:title=" ">
<path fill="none" stroke="#63b8ff" d="M1094.59,-188.28C1119.68,-176.99 1155.64,-160.81 1177.41,-151.02"/>
<polygon fill="#63b8ff" stroke="#63b8ff" points="1092.92,-185.2 1085.24,-192.49 1095.79,-191.58 1092.92,-185.2"/>
</a>
</g>
</g>
<!-- Node5 -->
<g id="Node000005" class="node">
<title>Node5</title>
<g id="a_Node000005"><a xlink:href="../../d6/ddf/rmvl_2compensator_8hpp.html" target="_top" xlink:title=" ">
<polygon fill="white" stroke="#666666" points="1175.83,-90.5 1062.83,-90.5 1062.83,-71.5 1175.83,-71.5 1175.83,-90.5"/>
<text text-anchor="middle" x="1119.33" y="-78.5" font-family="Helvetica,sans-Serif" font-size="10.00">rmvl/compensator.hpp</text>
</a>
</g>
</g>
<!-- Node4&#45;&gt;Node5 -->
<g id="edge4_Node000004_Node000005" class="edge">
<title>Node4&#45;&gt;Node5</title>
<g id="a_edge4_Node000004_Node000005"><a xlink:title=" ">
<path fill="none" stroke="#63b8ff" d="M1014.91,-127.93C1040.59,-116.64 1077.6,-100.36 1099.97,-90.52"/>
<polygon fill="#63b8ff" stroke="#63b8ff" points="1013.42,-124.76 1005.67,-131.99 1016.24,-131.17 1013.42,-124.76"/>
</a>
</g>
</g>
<!-- Node6 -->
<g id="Node000006" class="node">
<title>Node6</title>
<g id="a_Node000006"><a xlink:href="../../d1/d91/compensator_2gravity__compensator_8h.html" target="_top" xlink:title="重力模型补偿头文件">
<polygon fill="white" stroke="#666666" points="909.83,-96 782.83,-96 782.83,-66 909.83,-66 909.83,-96"/>
<text text-anchor="start" x="790.83" y="-84" font-family="Helvetica,sans-Serif" font-size="10.00">rmvl/compensator/gravity</text>
<text text-anchor="middle" x="846.33" y="-73" font-family="Helvetica,sans-Serif" font-size="10.00">_compensator.h</text>
</a>
</g>
</g>
<!-- Node4&#45;&gt;Node6 -->
<g id="edge5_Node000004_Node000006" class="edge">
<title>Node4&#45;&gt;Node6</title>
<g id="a_edge5_Node000004_Node000006"><a xlink:title=" ">
<path fill="none" stroke="#63b8ff" d="M956.61,-128.08C934.17,-118.7 903.34,-105.82 879.99,-96.06"/>
<polygon fill="#63b8ff" stroke="#63b8ff" points="955.4,-131.37 965.98,-131.99 958.1,-124.91 955.4,-131.37"/>
</a>
</g>
</g>
<!-- Node7 -->
<g id="Node000007" class="node">
<title>Node7</title>
<g id="a_Node000007"><a xlink:href="../../d5/d90/compensator_2gyro__compensator_8h.html" target="_top" xlink:title="整车状态补偿模块接口声明">
<polygon fill="white" stroke="#666666" points="1044.33,-96 928.33,-96 928.33,-66 1044.33,-66 1044.33,-96"/>
<text text-anchor="start" x="936.33" y="-84" font-family="Helvetica,sans-Serif" font-size="10.00">rmvl/compensator/gyro</text>
<text text-anchor="middle" x="986.33" y="-73" font-family="Helvetica,sans-Serif" font-size="10.00">_compensator.h</text>
</a>
</g>
</g>
<!-- Node4&#45;&gt;Node7 -->
<g id="edge6_Node000004_Node000007" class="edge">
<title>Node4&#45;&gt;Node7</title>
<g id="a_edge6_Node000004_Node000007"><a xlink:title=" ">
<path fill="none" stroke="#63b8ff" d="M986.33,-121.65C986.33,-113.36 986.33,-103.78 986.33,-96.11"/>
<polygon fill="#63b8ff" stroke="#63b8ff" points="982.83,-121.87 986.33,-131.87 989.83,-121.87 982.83,-121.87"/>
</a>
</g>
</g>
<!-- Node8 -->
<g id="Node000008" class="node">
<title>Node8</title>
<g id="a_Node000008"><a xlink:href="../../d3/d70/decider_8h.html" target="_top" xlink:title="抽象决策类头文件">
<polygon fill="white" stroke="#666666" points="764.33,-90.5 652.33,-90.5 652.33,-71.5 764.33,-71.5 764.33,-90.5"/>
<text text-anchor="middle" x="708.33" y="-78.5" font-family="Helvetica,sans-Serif" font-size="10.00">rmvl/decider/decider.h</text>
</a>
</g>
</g>
<!-- Node4&#45;&gt;Node8 -->
<g id="edge7_Node000004_Node000008" class="edge">
<title>Node4&#45;&gt;Node8</title>
<g id="a_edge7_Node000004_Node000008"><a xlink:title=" ">
<path fill="none" stroke="#63b8ff" d="M935.11,-129.89C891.95,-120.93 828.59,-107.72 773.33,-96 765.09,-94.25 756.26,-92.36 747.85,-90.55"/>
<polygon fill="#63b8ff" stroke="#63b8ff" points="934.58,-133.36 945.09,-131.96 936.01,-126.5 934.58,-133.36"/>
</a>
</g>
</g>
<!-- Node8&#45;&gt;Node2 -->
<g id="edge9_Node000008_Node000002" class="edge">
<title>Node8&#45;&gt;Node2</title>
<g id="a_edge9_Node000008_Node000002"><a xlink:title=" ">
<path fill="none" stroke="#63b8ff" d="M661.53,-69.38C655.42,-68.16 649.24,-66.99 643.33,-66 522.6,-45.73 380.69,-30.38 298.57,-22.33"/>
<polygon fill="#63b8ff" stroke="#63b8ff" points="661.16,-72.88 671.66,-71.49 662.58,-66.03 661.16,-72.88"/>
</a>
</g>
</g>
<!-- Node9 -->
<g id="Node000009" class="node">
<title>Node9</title>
<g id="a_Node000009"><a xlink:href="../../de/d18/rmvl_2decider_8hpp.html" target="_top" xlink:title=" ">
<polygon fill="white" stroke="#666666" points="622.33,-24.5 534.33,-24.5 534.33,-5.5 622.33,-5.5 622.33,-24.5"/>
<text text-anchor="middle" x="578.33" y="-12.5" font-family="Helvetica,sans-Serif" font-size="10.00">rmvl/decider.hpp</text>
</a>
</g>
</g>
<!-- Node8&#45;&gt;Node9 -->
<g id="edge8_Node000008_Node000009" class="edge">
<title>Node8&#45;&gt;Node9</title>
<g id="a_edge8_Node000008_Node000009"><a xlink:title=" ">
<path fill="none" stroke="#63b8ff" d="M681.65,-66.86C656.03,-54.25 618.07,-35.56 596,-24.7"/>
<polygon fill="#63b8ff" stroke="#63b8ff" points="680.28,-70.09 690.8,-71.37 683.37,-63.81 680.28,-70.09"/>
</a>
</g>
</g>
<!-- Node10 -->
<g id="Node000010" class="node">
<title>Node10</title>
<g id="a_Node000010"><a xlink:href="../../dd/d03/decider_2rune__decider_8h.html" target="_top" xlink:title="神符模块决策器头文件">
<polygon fill="white" stroke="#666666" points="776.33,-24.5 640.33,-24.5 640.33,-5.5 776.33,-5.5 776.33,-24.5"/>
<text text-anchor="middle" x="708.33" y="-12.5" font-family="Helvetica,sans-Serif" font-size="10.00">rmvl/decider/rune_decider.h</text>
</a>
</g>
</g>
<!-- Node8&#45;&gt;Node10 -->
<g id="edge10_Node000008_Node000010" class="edge">
<title>Node8&#45;&gt;Node10</title>
<g id="a_edge10_Node000008_Node000010"><a xlink:title=" ">
<path fill="none" stroke="#63b8ff" d="M708.33,-61.08C708.33,-49.13 708.33,-34.22 708.33,-24.91"/>
<polygon fill="#63b8ff" stroke="#63b8ff" points="704.83,-61.37 708.33,-71.37 711.83,-61.37 704.83,-61.37"/>
</a>
</g>
</g>
<!-- Node11 -->
<g id="Node000011" class="node">
<title>Node11</title>
<g id="a_Node000011"><a xlink:href="../../de/d06/decider_2translation__decider_8h.html" target="_top" xlink:title="平移目标决策器头文件">
<polygon fill="white" stroke="#666666" points="912.33,-30 794.33,-30 794.33,0 912.33,0 912.33,-30"/>
<text text-anchor="start" x="802.33" y="-18" font-family="Helvetica,sans-Serif" font-size="10.00">rmvl/decider/translation</text>
<text text-anchor="middle" x="853.33" y="-7" font-family="Helvetica,sans-Serif" font-size="10.00">_decider.h</text>
</a>
</g>
</g>
<!-- Node8&#45;&gt;Node11 -->
<g id="edge11_Node000008_Node000011" class="edge">
<title>Node8&#45;&gt;Node11</title>
<g id="a_edge11_Node000008_Node000011"><a xlink:title=" ">
<path fill="none" stroke="#63b8ff" d="M737.29,-67.22C761.58,-56.5 796.24,-41.2 821.35,-30.12"/>
<polygon fill="#63b8ff" stroke="#63b8ff" points="735.62,-64.13 727.89,-71.37 738.45,-70.53 735.62,-64.13"/>
</a>
</g>
</g>
<!-- Node12&#45;&gt;Node8 -->
<g id="edge13_Node000012_Node000008" class="edge">
<title>Node12&#45;&gt;Node8</title>
<g id="a_edge13_Node000012_Node000008"><a xlink:title=" ">
<path fill="none" stroke="#63b8ff" d="M502.13,-129.68C551.01,-118.38 626.7,-100.88 671.5,-90.52"/>
<polygon fill="#63b8ff" stroke="#63b8ff" points="501.08,-126.33 492.12,-131.99 502.65,-133.15 501.08,-126.33"/>
</a>
</g>
</g>
<!-- Node13 -->
<g id="Node000013" class="node">
<title>Node13</title>
<g id="a_Node000013"><a xlink:href="../../dd/d9f/rmvl_2detector_8hpp.html" target="_top" xlink:title=" ">
<polygon fill="white" stroke="#666666" points="634.33,-90.5 542.33,-90.5 542.33,-71.5 634.33,-71.5 634.33,-90.5"/>
<text text-anchor="middle" x="588.33" y="-78.5" font-family="Helvetica,sans-Serif" font-size="10.00">rmvl/detector.hpp</text>
</a>
</g>
</g>
<!-- Node12&#45;&gt;Node13 -->
<g id="edge14_Node000012_Node000013" class="edge">
<title>Node12&#45;&gt;Node13</title>
<g id="a_edge14_Node000012_Node000013"><a xlink:title=" ">
<path fill="none" stroke="#63b8ff" d="M483.91,-127.93C509.59,-116.64 546.6,-100.36 568.97,-90.52"/>
<polygon fill="#63b8ff" stroke="#63b8ff" points="482.42,-124.76 474.67,-131.99 485.24,-131.17 482.42,-124.76"/>
</a>
</g>
</g>
<!-- Node14 -->
<g id="Node000014" class="node">
<title>Node14</title>
<g id="a_Node000014"><a xlink:href="../../da/d95/detector_2armor__detector_8h.html" target="_top" xlink:title="装甲板识别派生类头文件">
<polygon fill="white" stroke="#666666" points="141.83,-96 40.83,-96 40.83,-66 141.83,-66 141.83,-96"/>
<text text-anchor="start" x="48.83" y="-84" font-family="Helvetica,sans-Serif" font-size="10.00">rmvl/detector/armor</text>
<text text-anchor="middle" x="91.33" y="-73" font-family="Helvetica,sans-Serif" font-size="10.00">_detector.h</text>
</a>
</g>
</g>
<!-- Node12&#45;&gt;Node14 -->
<g id="edge15_Node000012_Node000014" class="edge">
<title>Node12&#45;&gt;Node14</title>
<g id="a_edge15_Node000012_Node000014"><a xlink:title=" ">
<path fill="none" stroke="#63b8ff" d="M385.69,-132.11C323.68,-124.23 230.62,-111.35 150.33,-96 147.64,-95.49 144.89,-94.93 142.12,-94.35"/>
<polygon fill="#63b8ff" stroke="#63b8ff" points="385.39,-135.6 395.75,-133.38 386.27,-128.66 385.39,-135.6"/>
</a>
</g>
</g>
<!-- Node15 -->
<g id="Node000015" class="node">
<title>Node15</title>
<g id="a_Node000015"><a xlink:href="../../d1/d6b/detector_2gyro__detector_8h.html" target="_top" xlink:title="装甲板识别派生类头文件">
<polygon fill="white" stroke="#666666" points="254.83,-96 159.83,-96 159.83,-66 254.83,-66 254.83,-96"/>
<text text-anchor="start" x="167.83" y="-84" font-family="Helvetica,sans-Serif" font-size="10.00">rmvl/detector/gyro</text>
<text text-anchor="middle" x="207.33" y="-73" font-family="Helvetica,sans-Serif" font-size="10.00">_detector.h</text>
</a>
</g>
</g>
<!-- Node12&#45;&gt;Node15 -->
<g id="edge16_Node000012_Node000015" class="edge">
<title>Node12&#45;&gt;Node15</title>
<g id="a_edge16_Node000012_Node000015"><a xlink:title=" ">
<path fill="none" stroke="#63b8ff" d="M407.77,-129.72C368.89,-120.84 312.5,-107.84 263.33,-96 260.61,-95.34 257.8,-94.66 254.98,-93.97"/>
<polygon fill="#63b8ff" stroke="#63b8ff" points="407.23,-133.18 417.76,-131.99 408.79,-126.36 407.23,-133.18"/>
</a>
</g>
</g>
<!-- Node16 -->
<g id="Node000016" class="node">
<title>Node16</title>
<g id="a_Node000016"><a xlink:href="../../db/dcc/detector_2rune__detector_8h.html" target="_top" xlink:title="神符识别派生类头文件">
<polygon fill="white" stroke="#666666" points="367.83,-96 272.83,-96 272.83,-66 367.83,-66 367.83,-96"/>
<text text-anchor="start" x="280.83" y="-84" font-family="Helvetica,sans-Serif" font-size="10.00">rmvl/detector/rune</text>
<text text-anchor="middle" x="320.33" y="-73" font-family="Helvetica,sans-Serif" font-size="10.00">_detector.h</text>
</a>
</g>
</g>
<!-- Node12&#45;&gt;Node16 -->
<g id="edge17_Node000012_Node000016" class="edge">
<title>Node12&#45;&gt;Node16</title>
<g id="a_edge17_Node000012_Node000016"><a xlink:title=" ">
<path fill="none" stroke="#63b8ff" d="M426.38,-127.95C404.76,-118.59 375.21,-105.78 352.79,-96.06"/>
<polygon fill="#63b8ff" stroke="#63b8ff" points="425.14,-131.23 435.7,-131.99 427.92,-124.81 425.14,-131.23"/>
</a>
</g>
</g>
<!-- Node17 -->
<g id="Node000017" class="node">
<title>Node17</title>
<g id="a_Node000017"><a xlink:href="../../d6/d58/detector_2tag__detector_8h.html" target="_top" xlink:title="AprilTag 识别模块">
<polygon fill="white" stroke="#666666" points="524.33,-90.5 386.33,-90.5 386.33,-71.5 524.33,-71.5 524.33,-90.5"/>
<text text-anchor="middle" x="455.33" y="-78.5" font-family="Helvetica,sans-Serif" font-size="10.00">rmvl/detector/tag_detector.h</text>
</a>
</g>
</g>
<!-- Node12&#45;&gt;Node17 -->
<g id="edge18_Node000012_Node000017" class="edge">
<title>Node12&#45;&gt;Node17</title>
<g id="a_edge18_Node000012_Node000017"><a xlink:title=" ">
<path fill="none" stroke="#63b8ff" d="M455.33,-121.66C455.33,-111.24 455.33,-98.8 455.33,-90.67"/>
<polygon fill="#63b8ff" stroke="#63b8ff" points="451.83,-121.87 455.33,-131.87 458.83,-121.87 451.83,-121.87"/>
</a>
</g>
</g>
<!-- Node21&#45;&gt;Node8 -->
<g id="edge23_Node000021_Node000008" class="edge">
<title>Node21&#45;&gt;Node8</title>
<g id="a_edge23_Node000021_Node000008"><a xlink:title=" ">
<path fill="none" stroke="#63b8ff" d="M1124.06,-135.27C1039.59,-128.61 895.78,-115.57 773.33,-96 763.99,-94.51 753.96,-92.53 744.64,-90.54"/>
<polygon fill="#63b8ff" stroke="#63b8ff" points="1123.82,-138.76 1134.06,-136.05 1124.36,-131.78 1123.82,-138.76"/>
</a>
</g>
</g>
<!-- Node22 -->
<g id="Node000022" class="node">
<title>Node22</title>
<g id="a_Node000022"><a xlink:href="../../df/d54/rmvl_2predictor_8hpp.html" target="_top" xlink:title=" ">
<polygon fill="white" stroke="#666666" points="1752.33,-90.5 1658.33,-90.5 1658.33,-71.5 1752.33,-71.5 1752.33,-90.5"/>
<text text-anchor="middle" x="1705.33" y="-78.5" font-family="Helvetica,sans-Serif" font-size="10.00">rmvl/predictor.hpp</text>
</a>
</g>
</g>
<!-- Node21&#45;&gt;Node22 -->
<g id="edge24_Node000021_Node000022" class="edge">
<title>Node21&#45;&gt;Node22</title>
<g id="a_edge24_Node000021_Node000022"><a xlink:title=" ">
<path fill="none" stroke="#63b8ff" d="M1268.03,-132.03C1268.13,-132.02 1268.23,-132.01 1268.33,-132 1437.47,-114.03 1481.69,-124.71 1649.33,-96 1657.63,-94.58 1666.51,-92.58 1674.7,-90.54"/>
<polygon fill="#63b8ff" stroke="#63b8ff" points="1267.94,-128.52 1258.38,-133.08 1268.7,-135.48 1267.94,-128.52"/>
</a>
</g>
</g>
<!-- Node23 -->
<g id="Node000023" class="node">
<title>Node23</title>
<g id="a_Node000023"><a xlink:href="../../df/d4c/predictor_2armor__predictor_8h.html" target="_top" xlink:title="装甲板预测派生类头文件">
<polygon fill="white" stroke="#666666" points="1298.33,-96 1194.33,-96 1194.33,-66 1298.33,-66 1298.33,-96"/>
<text text-anchor="start" x="1202.33" y="-84" font-family="Helvetica,sans-Serif" font-size="10.00">rmvl/predictor/armor</text>
<text text-anchor="middle" x="1246.33" y="-73" font-family="Helvetica,sans-Serif" font-size="10.00">_predictor.h</text>
</a>
</g>
</g>
<!-- Node21&#45;&gt;Node23 -->
<g id="edge25_Node000021_Node000023" class="edge">
<title>Node21&#45;&gt;Node23</title>
<g id="a_edge25_Node000021_Node000023"><a xlink:title=" ">
<path fill="none" stroke="#63b8ff" d="M1210.3,-124.15C1217.84,-115.34 1227.05,-104.56 1234.27,-96.11"/>
<polygon fill="#63b8ff" stroke="#63b8ff" points="1207.55,-121.99 1203.71,-131.87 1212.87,-126.54 1207.55,-121.99"/>
</a>
</g>
</g>
<!-- Node24 -->
<g id="Node000024" class="node">
<title>Node24</title>
<g id="a_Node000024"><a xlink:href="../../d9/de5/predictor_2gyro__predictor_8h.html" target="_top" xlink:title="整车状态预测派生类头文件">
<polygon fill="white" stroke="#666666" points="1414.33,-96 1316.33,-96 1316.33,-66 1414.33,-66 1414.33,-96"/>
<text text-anchor="start" x="1324.33" y="-84" font-family="Helvetica,sans-Serif" font-size="10.00">rmvl/predictor/gyro</text>
<text text-anchor="middle" x="1365.33" y="-73" font-family="Helvetica,sans-Serif" font-size="10.00">_predictor.h</text>
</a>
</g>
</g>
<!-- Node21&#45;&gt;Node24 -->
<g id="edge26_Node000021_Node000024" class="edge">
<title>Node21&#45;&gt;Node24</title>
<g id="a_edge26_Node000021_Node000024"><a xlink:title=" ">
<path fill="none" stroke="#63b8ff" d="M1230.4,-128.71C1257.63,-119.28 1295.88,-106.04 1324.7,-96.06"/>
<polygon fill="#63b8ff" stroke="#63b8ff" points="1229.21,-125.41 1220.91,-131.99 1231.5,-132.03 1229.21,-125.41"/>
</a>
</g>
</g>
<!-- Node25 -->
<g id="Node000025" class="node">
<title>Node25</title>
<g id="a_Node000025"><a xlink:href="../../d5/dec/predictor_2rune__predictor_8h.html" target="_top" xlink:title="神符预测派生类头文件">
<polygon fill="white" stroke="#666666" points="1530.33,-96 1432.33,-96 1432.33,-66 1530.33,-66 1530.33,-96"/>
<text text-anchor="start" x="1440.33" y="-84" font-family="Helvetica,sans-Serif" font-size="10.00">rmvl/predictor/rune</text>
<text text-anchor="middle" x="1481.33" y="-73" font-family="Helvetica,sans-Serif" font-size="10.00">_predictor.h</text>
</a>
</g>
</g>
<!-- Node21&#45;&gt;Node25 -->
<g id="edge27_Node000021_Node000025" class="edge">
<title>Node21&#45;&gt;Node25</title>
<g id="a_edge27_Node000021_Node000025"><a xlink:title=" ">
<path fill="none" stroke="#63b8ff" d="M1253.05,-130.09C1299.05,-121.47 1365.52,-108.64 1423.33,-96 1426.27,-95.36 1429.28,-94.68 1432.32,-93.99"/>
<polygon fill="#63b8ff" stroke="#63b8ff" points="1252.16,-126.69 1242.97,-131.97 1253.45,-133.57 1252.16,-126.69"/>
</a>
</g>
</g>
<!-- Node26 -->
<g id="Node000026" class="node">
<title>Node26</title>
<g id="a_Node000026"><a xlink:href="../../dc/d86/predictor_2spi__rune__predictor_8h.html" target="_top" xlink:title="系统参数辨识神符预测头文件">
<polygon fill="white" stroke="#666666" points="1640.33,-96 1548.33,-96 1548.33,-66 1640.33,-66 1640.33,-96"/>
<text text-anchor="start" x="1556.33" y="-84" font-family="Helvetica,sans-Serif" font-size="10.00">rmvl/predictor/spi</text>
<text text-anchor="middle" x="1594.33" y="-73" font-family="Helvetica,sans-Serif" font-size="10.00">_rune_predictor.h</text>
</a>
</g>
</g>
<!-- Node21&#45;&gt;Node26 -->
<g id="edge28_Node000021_Node000026" class="edge">
<title>Node21&#45;&gt;Node26</title>
<g id="a_edge28_Node000021_Node000026"><a xlink:title=" ">
<path fill="none" stroke="#63b8ff" d="M1268.81,-131.57C1361.57,-120.06 1513.43,-100.96 1539.33,-96 1542.24,-95.44 1545.21,-94.83 1548.21,-94.17"/>
<polygon fill="#63b8ff" stroke="#63b8ff" points="1268.13,-128.13 1258.64,-132.83 1269,-135.07 1268.13,-128.13"/>
</a>
</g>
</g>
<!-- Node28&#45;&gt;Node15 -->
<g id="edge31_Node000028_Node000015" class="edge">
<title>Node28&#45;&gt;Node15</title>
<g id="a_edge31_Node000028_Node000015"><a xlink:title=" ">
<path fill="none" stroke="#63b8ff" d="M221.65,-182.23C218.24,-158.35 212.43,-117.65 209.36,-96.2"/>
<polygon fill="#63b8ff" stroke="#63b8ff" points="218.23,-183.04 223.11,-192.44 225.16,-182.05 218.23,-183.04"/>
</a>
</g>
</g>
<!-- Node29&#45;&gt;Node14 -->
<g id="edge33_Node000029_Node000014" class="edge">
<title>Node29&#45;&gt;Node14</title>
<g id="a_edge33_Node000029_Node000014"><a xlink:title=" ">
<path fill="none" stroke="#63b8ff" d="M90.54,-176.69C90.74,-152.42 91.05,-115.95 91.21,-96.1"/>
<polygon fill="#63b8ff" stroke="#63b8ff" points="87.04,-176.85 90.45,-186.88 94.04,-176.91 87.04,-176.85"/>
</a>
</g>
</g>
<!-- Node30&#45;&gt;Node16 -->
<g id="edge35_Node000030_Node000016" class="edge">
<title>Node30&#45;&gt;Node16</title>
<g id="a_edge35_Node000030_Node000016"><a xlink:title=" ">
<path fill="none" stroke="#63b8ff" d="M367.11,-183.2C356.14,-159.47 336.95,-117.95 326.9,-96.2"/>
<polygon fill="#63b8ff" stroke="#63b8ff" points="364.01,-184.83 371.38,-192.44 370.36,-181.9 364.01,-184.83"/>
</a>
</g>
</g>
</g>
</svg>
