<?xml version="1.0" encoding="UTF-8" standalone="no"?>
<!DOCTYPE svg PUBLIC "-//W3C//DTD SVG 1.1//EN"
 "http://www.w3.org/Graphics/SVG/1.1/DTD/svg11.dtd">
<!-- Generated by graphviz version 14.1.2 (0)
 -->
<!-- Title: rm::Connector Pages: 1 -->
<svg width="263pt" height="394pt"
 viewBox="0.00 0.00 263.00 394.00" xmlns="http://www.w3.org/2000/svg" xmlns:xlink="http://www.w3.org/1999/xlink">

<svg id="main" version="1.1" xmlns="http://www.w3.org/2000/svg" xmlns:xlink="http://www.w3.org/1999/xlink" xml:space="preserve">

<style type="text/css"><![CDATA[
.node, .edge {opacity: 0.7;}
.node.selected, .edge.selected {opacity: 1;}
.edge:hover path { stroke: red; }
.edge:hover polygon { stroke: red; fill: red; }
]]></style>
<script type="application/ecmascript" xlink:href="../../svg.min.js"/>
<svg id="graph" class="graph">
<g id="graph0" class="graph" transform="scale(1 1) rotate(0) translate(4 389.5)">
<title>rm::Connector</title>
<!-- Node1 -->
<g id="Node000001" class="node">
<title>Node1</title>
<g id="a_Node000001"><a xlink:title="Socket 连接器">
<polygon fill="#999999" stroke="none" points="197.62,-104.5 112.12,-104.5 112.12,0 197.62,0 197.62,-104.5"/>
<text xml:space="preserve" text-anchor="start" x="120.38" y="-91" font-family="Helvetica,sans-Serif" font-size="10.00">rm::Connector</text>
<text xml:space="preserve" text-anchor="start" x="153.38" y="-74.25" font-family="Helvetica,sans-Serif" font-size="10.00"> </text>
<text xml:space="preserve" text-anchor="start" x="116.12" y="-57.5" font-family="Helvetica,sans-Serif" font-size="10.00">+</text>
<text xml:space="preserve" text-anchor="start" x="128.38" y="-57.5" font-family="Helvetica,sans-Serif" font-size="10.00">Connector()</text>
<text xml:space="preserve" text-anchor="start" x="116.12" y="-40.75" font-family="Helvetica,sans-Serif" font-size="10.00">+</text>
<text xml:space="preserve" text-anchor="start" x="128.38" y="-40.75" font-family="Helvetica,sans-Serif" font-size="10.00">~Connector()</text>
<text xml:space="preserve" text-anchor="start" x="116.12" y="-24" font-family="Helvetica,sans-Serif" font-size="10.00">+</text>
<text xml:space="preserve" text-anchor="start" x="128.38" y="-24" font-family="Helvetica,sans-Serif" font-size="10.00">connect()</text>
<text xml:space="preserve" text-anchor="start" x="116.12" y="-7.25" font-family="Helvetica,sans-Serif" font-size="10.00">#</text>
<text xml:space="preserve" text-anchor="start" x="128.38" y="-7.25" font-family="Helvetica,sans-Serif" font-size="10.00">Connector()</text>
<polygon fill="#666666" stroke="#666666" points="112.12,-85.75 112.12,-85.75 197.62,-85.75 197.62,-85.75 112.12,-85.75"/>
<polygon fill="#666666" stroke="#666666" points="112.12,-69 112.12,-69 197.62,-69 197.62,-69 112.12,-69"/>
<polygon fill="none" stroke="#666666" points="112.12,0 112.12,-104.5 197.62,-104.5 197.62,0 112.12,0"/>
</a>
</g>
</g>
<!-- Node2 -->
<g id="Node000002" class="node">
<title>Node2</title>
<g id="a_Node000002"><a xlink:title=" ">
<polygon fill="white" stroke="none" points="88.25,-238.62 31.5,-238.62 31.5,-184.38 88.25,-184.38 88.25,-238.62"/>
<text xml:space="preserve" text-anchor="start" x="35.5" y="-225.12" font-family="Helvetica,sans-Serif" font-size="10.00">std::string</text>
<text xml:space="preserve" text-anchor="start" x="58.38" y="-208.38" font-family="Helvetica,sans-Serif" font-size="10.00"> </text>
<text xml:space="preserve" text-anchor="start" x="58.38" y="-191.62" font-family="Helvetica,sans-Serif" font-size="10.00"> </text>
<polygon fill="#666666" stroke="#666666" points="31.5,-219.88 31.5,-219.88 88.25,-219.88 88.25,-219.88 31.5,-219.88"/>
<polygon fill="#666666" stroke="#666666" points="31.5,-203.12 31.5,-203.12 88.25,-203.12 88.25,-203.12 31.5,-203.12"/>
<polygon fill="none" stroke="#666666" points="31.5,-184.38 31.5,-238.62 88.25,-238.62 88.25,-184.38 31.5,-184.38"/>
</a>
</g>
</g>
<!-- Node2&#45;&gt;Node1 -->
<g id="edge1_Node000001_Node000002" class="edge">
<title>Node2&#45;&gt;Node1</title>
<g id="a_edge1_Node000001_Node000002"><a xlink:title=" ">
<path fill="none" stroke="#63b8ff" d="M75.56,-184.53C86.94,-165.7 102.83,-139.4 117.4,-115.28"/>
<polygon fill="none" stroke="#63b8ff" points="117.31,-115.43 116.99,-108.23 123.51,-105.16 123.83,-112.36 117.31,-115.43"/>
</a>
</g>
<text xml:space="preserve" text-anchor="start" x="113.22" y="-128.75" font-family="Helvetica,sans-Serif" font-size="10.00" fill="grey">#_url</text>
</g>
<!-- Node3 -->
<g id="Node000003" class="node">
<title>Node3</title>
<g id="a_Node000003"><a xlink:title=" ">
<polygon fill="white" stroke="none" points="95.75,-385.5 0,-385.5 0,-318.5 95.75,-318.5 95.75,-385.5"/>
<text xml:space="preserve" text-anchor="start" x="4" y="-372" font-family="Helvetica,sans-Serif" font-size="10.00">std::basic_string&lt;</text>
<text xml:space="preserve" text-anchor="start" x="29.5" y="-359.25" font-family="Helvetica,sans-Serif" font-size="10.00"> Char &gt;</text>
<text xml:space="preserve" text-anchor="start" x="46.38" y="-342.5" font-family="Helvetica,sans-Serif" font-size="10.00"> </text>
<text xml:space="preserve" text-anchor="start" x="46.38" y="-325.75" font-family="Helvetica,sans-Serif" font-size="10.00"> </text>
<polygon fill="#666666" stroke="#666666" points="0,-354 0,-354 95.75,-354 95.75,-354 0,-354"/>
<polygon fill="#666666" stroke="#666666" points="0,-337.25 0,-337.25 95.75,-337.25 95.75,-337.25 0,-337.25"/>
<polygon fill="none" stroke="#666666" points="0,-318.5 0,-385.5 95.75,-385.5 95.75,-318.5 0,-318.5"/>
</a>
</g>
</g>
<!-- Node3&#45;&gt;Node2 -->
<g id="edge2_Node000002_Node000003" class="edge">
<title>Node3&#45;&gt;Node2</title>
<g id="a_edge2_Node000002_Node000003"><a xlink:title=" ">
<path fill="none" stroke="#63b8ff" d="M51.68,-307.12C53.64,-284.47 55.97,-257.6 57.64,-238.3"/>
<polygon fill="none" stroke="#63b8ff" points="48.2,-306.76 50.82,-317.02 55.17,-307.36 48.2,-306.76"/>
</a>
</g>
</g>
<!-- Node4 -->
<g id="Node000004" class="node">
<title>Node4</title>
<g id="a_Node000004"><a xlink:href="../../dc/db5/classrm_1_1Endpoint.html" target="_top" xlink:title="端点">
<polygon fill="white" stroke="none" points="201.12,-263.75 130.62,-263.75 130.62,-159.25 201.12,-159.25 201.12,-263.75"/>
<text xml:space="preserve" text-anchor="start" x="134.75" y="-250.25" font-family="Helvetica,sans-Serif" font-size="10.00">rm::Endpoint</text>
<text xml:space="preserve" text-anchor="start" x="164.38" y="-233.5" font-family="Helvetica,sans-Serif" font-size="10.00"> </text>
<text xml:space="preserve" text-anchor="start" x="134.62" y="-216.75" font-family="Helvetica,sans-Serif" font-size="10.00">+</text>
<text xml:space="preserve" text-anchor="start" x="146.88" y="-216.75" font-family="Helvetica,sans-Serif" font-size="10.00">Endpoint()</text>
<text xml:space="preserve" text-anchor="start" x="134.62" y="-200" font-family="Helvetica,sans-Serif" font-size="10.00">+</text>
<text xml:space="preserve" text-anchor="start" x="146.88" y="-200" font-family="Helvetica,sans-Serif" font-size="10.00">family()</text>
<text xml:space="preserve" text-anchor="start" x="134.62" y="-183.25" font-family="Helvetica,sans-Serif" font-size="10.00">+</text>
<text xml:space="preserve" text-anchor="start" x="146.88" y="-183.25" font-family="Helvetica,sans-Serif" font-size="10.00">type()</text>
<text xml:space="preserve" text-anchor="start" x="134.62" y="-166.5" font-family="Helvetica,sans-Serif" font-size="10.00">+</text>
<text xml:space="preserve" text-anchor="start" x="146.88" y="-166.5" font-family="Helvetica,sans-Serif" font-size="10.00">port()</text>
<polygon fill="#666666" stroke="#666666" points="130.62,-245 130.62,-245 201.12,-245 201.12,-245 130.62,-245"/>
<polygon fill="#666666" stroke="#666666" points="130.62,-228.25 130.62,-228.25 201.12,-228.25 201.12,-228.25 130.62,-228.25"/>
<polygon fill="none" stroke="#666666" points="130.62,-159.25 130.62,-263.75 201.12,-263.75 201.12,-159.25 130.62,-159.25"/>
</a>
</g>
</g>
<!-- Node4&#45;&gt;Node1 -->
<g id="edge3_Node000001_Node000004" class="edge">
<title>Node4&#45;&gt;Node1</title>
<g id="a_edge3_Node000001_Node000004"><a xlink:title=" ">
<path fill="none" stroke="#63b8ff" d="M157.51,-159.54C156.75,-153.39 156.09,-147.19 155.62,-141.25 155.02,-133.55 154.63,-125.45 154.39,-117.42"/>
<polygon fill="none" stroke="#63b8ff" points="154.39,-117.39 150.26,-111.47 154.14,-105.39 158.26,-111.3 154.39,-117.39"/>
</a>
</g>
<text xml:space="preserve" text-anchor="start" x="158.62" y="-128.75" font-family="Helvetica,sans-Serif" font-size="10.00" fill="grey">#_endpoint</text>
</g>
<!-- Node5 -->
<g id="Node000005" class="node">
<title>Node5</title>
<g id="a_Node000005"><a xlink:title=" ">
<polygon fill="white" stroke="none" points="242.25,-379.12 113.5,-379.12 113.5,-324.88 242.25,-324.88 242.25,-379.12"/>
<text xml:space="preserve" text-anchor="start" x="117.5" y="-365.62" font-family="Helvetica,sans-Serif" font-size="10.00">static constexpr uint16_t</text>
<text xml:space="preserve" text-anchor="start" x="176.38" y="-348.88" font-family="Helvetica,sans-Serif" font-size="10.00"> </text>
<text xml:space="preserve" text-anchor="start" x="176.38" y="-332.12" font-family="Helvetica,sans-Serif" font-size="10.00"> </text>
<polygon fill="#666666" stroke="#666666" points="113.5,-360.38 113.5,-360.38 242.25,-360.38 242.25,-360.38 113.5,-360.38"/>
<polygon fill="#666666" stroke="#666666" points="113.5,-343.62 113.5,-343.62 242.25,-343.62 242.25,-343.62 113.5,-343.62"/>
<polygon fill="none" stroke="#666666" points="113.5,-324.88 113.5,-379.12 242.25,-379.12 242.25,-324.88 113.5,-324.88"/>
</a>
</g>
</g>
<!-- Node5&#45;&gt;Node4 -->
<g id="edge4_Node000004_Node000005" class="edge">
<title>Node5&#45;&gt;Node4</title>
<g id="a_edge4_Node000004_Node000005"><a xlink:title=" ">
<path fill="none" stroke="#63b8ff" d="M175.62,-324.95C174.43,-311.21 172.91,-293.7 171.43,-276.6"/>
<polygon fill="none" stroke="#63b8ff" points="171.42,-276.54 166.92,-270.91 170.39,-264.58 174.89,-270.22 171.42,-276.54"/>
</a>
</g>
<text xml:space="preserve" text-anchor="start" x="176.3" y="-288" font-family="Helvetica,sans-Serif" font-size="10.00" fill="grey">+ANY_PORT</text>
</g>
<!-- Node6 -->
<g id="Node000006" class="node">
<title>Node6</title>
<g id="a_Node000006"><a xlink:title=" ">
<polygon fill="white" stroke="none" points="250.25,-238.62 229.5,-238.62 229.5,-184.38 250.25,-184.38 250.25,-238.62"/>
<text xml:space="preserve" text-anchor="start" x="233.5" y="-225.12" font-family="Helvetica,sans-Serif" font-size="10.00">int</text>
<text xml:space="preserve" text-anchor="start" x="238.38" y="-208.38" font-family="Helvetica,sans-Serif" font-size="10.00"> </text>
<text xml:space="preserve" text-anchor="start" x="238.38" y="-191.62" font-family="Helvetica,sans-Serif" font-size="10.00"> </text>
<polygon fill="#666666" stroke="#666666" points="229.5,-219.88 229.5,-219.88 250.25,-219.88 250.25,-219.88 229.5,-219.88"/>
<polygon fill="#666666" stroke="#666666" points="229.5,-203.12 229.5,-203.12 250.25,-203.12 250.25,-203.12 229.5,-203.12"/>
<polygon fill="none" stroke="#666666" points="229.5,-184.38 229.5,-238.62 250.25,-238.62 250.25,-184.38 229.5,-184.38"/>
</a>
</g>
</g>
<!-- Node6&#45;&gt;Node1 -->
<g id="edge5_Node000001_Node000006" class="edge">
<title>Node6&#45;&gt;Node1</title>
<g id="a_edge5_Node000001_Node000006"><a xlink:title=" ">
<path fill="none" stroke="#63b8ff" d="M236.83,-184.64C233.89,-166.43 228.28,-141.94 217.88,-122.5 214.39,-115.98 210.15,-109.6 205.54,-103.5"/>
<polygon fill="none" stroke="#63b8ff" points="205.6,-103.57 198.72,-101.42 198.06,-94.24 204.94,-96.39 205.6,-103.57"/>
</a>
</g>
<text xml:space="preserve" text-anchor="start" x="228.83" y="-128.75" font-family="Helvetica,sans-Serif" font-size="10.00" fill="grey">#_fd</text>
</g>
</g>
</svg>
</svg>

<style type='text/css'>
<![CDATA[
[data-mouse-over-selected='false'] { opacity: 0.7; }
[data-mouse-over-selected='true']  { opacity: 1.0; }
]]>
</style>
<script type="application/ecmascript"><![CDATA[
document.addEventListener('DOMContentLoaded', (event) => {
  highlightEdges();
  highlightAdjacentNodes();
});
]]></script>
</svg>
