<?xml version="1.0" encoding="UTF-8" standalone="no"?>
<!DOCTYPE svg PUBLIC "-//W3C//DTD SVG 1.1//EN"
 "http://www.w3.org/Graphics/SVG/1.1/DTD/svg11.dtd">
<!-- Generated by graphviz version 2.43.0 (0)
 -->
<!-- Title: rm::Connector Pages: 1 -->
<svg width="218pt" height="376pt"
 viewBox="0.00 0.00 218.00 376.00" xmlns="http://www.w3.org/2000/svg" xmlns:xlink="http://www.w3.org/1999/xlink">

<svg id="main" version="1.1" xmlns="http://www.w3.org/2000/svg" xmlns:xlink="http://www.w3.org/1999/xlink" xml:space="preserve">

<style type="text/css"><![CDATA[
.node, .edge {opacity: 0.7;}
.node.selected, .edge.selected {opacity: 1;}
.edge:hover path { stroke: red; }
.edge:hover polygon { stroke: red; fill: red; }
]]></style>
<script type="application/ecmascript" xlink:href="../../svg.min.js"/>
<svg id="graph" class="graph">
<g id="graph0" class="graph" transform="scale(1 1) rotate(0) translate(4 372)">
<title>rm::Connector</title>
<!-- Node1 -->
<g id="Node000001" class="node">
<title>Node1</title>
<g id="a_Node000001"><a xlink:title="Socket 连接器">
<polygon fill="#999999" stroke="transparent" points="161,-94 84,-94 84,0 161,0 161,-94"/>
<text text-anchor="start" x="91.5" y="-82" font-family="Helvetica,sans-Serif" font-size="10.00">rm::Connector</text>
<text text-anchor="start" x="121" y="-67" font-family="Helvetica,sans-Serif" font-size="10.00"> </text>
<text text-anchor="start" x="88.5" y="-52" font-family="Helvetica,sans-Serif" font-size="10.00">+</text>
<text text-anchor="start" x="99.5" y="-52" font-family="Helvetica,sans-Serif" font-size="10.00">Connector()</text>
<text text-anchor="start" x="88.5" y="-37" font-family="Helvetica,sans-Serif" font-size="10.00">+</text>
<text text-anchor="start" x="99.5" y="-37" font-family="Helvetica,sans-Serif" font-size="10.00">~Connector()</text>
<text text-anchor="start" x="88.5" y="-22" font-family="Helvetica,sans-Serif" font-size="10.00">+</text>
<text text-anchor="start" x="99.5" y="-22" font-family="Helvetica,sans-Serif" font-size="10.00">connect()</text>
<text text-anchor="start" x="89" y="-7" font-family="Helvetica,sans-Serif" font-size="10.00">#</text>
<text text-anchor="start" x="99.5" y="-7" font-family="Helvetica,sans-Serif" font-size="10.00">Connector()</text>
<polygon fill="#666666" stroke="#666666" points="84.5,-77 84.5,-77 161.5,-77 161.5,-77 84.5,-77"/>
<polygon fill="#666666" stroke="#666666" points="84.5,-62 84.5,-62 161.5,-62 161.5,-62 84.5,-62"/>
<polygon fill="none" stroke="#666666" points="84,0 84,-94 161,-94 161,0 84,0"/>
</a>
</g>
</g>
<!-- Node2 -->
<g id="Node000002" class="node">
<title>Node2</title>
<g id="a_Node000002"><a xlink:title=" ">
<polygon fill="white" stroke="transparent" points="71.5,-233.5 17.5,-233.5 17.5,-184.5 71.5,-184.5 71.5,-233.5"/>
<text text-anchor="start" x="22.5" y="-221" font-family="Helvetica,sans-Serif" font-size="10.00">std::string</text>
<text text-anchor="start" x="42.5" y="-206" font-family="Helvetica,sans-Serif" font-size="10.00"> </text>
<text text-anchor="start" x="42.5" y="-191" font-family="Helvetica,sans-Serif" font-size="10.00"> </text>
<polygon fill="#666666" stroke="#666666" points="17.5,-216 17.5,-216 71.5,-216 71.5,-216 17.5,-216"/>
<polygon fill="#666666" stroke="#666666" points="17.5,-201 17.5,-201 71.5,-201 71.5,-201 17.5,-201"/>
<polygon fill="none" stroke="#666666" points="17.5,-184.5 17.5,-233.5 71.5,-233.5 71.5,-184.5 17.5,-184.5"/>
</a>
</g>
</g>
<!-- Node2&#45;&gt;Node1 -->
<g id="edge1_Node000001_Node000002" class="edge">
<title>Node2&#45;&gt;Node1</title>
<g id="a_edge1_Node000001_Node000002"><a xlink:title=" ">
<path fill="none" stroke="#63b8ff" d="M55.73,-184.28C64.98,-164.81 78.47,-136.57 90.5,-112 91.61,-109.73 92.74,-107.42 93.89,-105.09"/>
<polygon fill="none" stroke="#63b8ff" points="94.01,-104.85 93.09,-97.7 99.34,-94.1 100.26,-101.25 94.01,-104.85"/>
</a>
</g>
<text text-anchor="start" x="93.5" y="-117.5" font-family="Helvetica,sans-Serif" font-size="10.00" fill="grey">#_url</text>
</g>
<!-- Node3 -->
<g id="Node000003" class="node">
<title>Node3</title>
<g id="a_Node000003"><a xlink:title=" ">
<polygon fill="white" stroke="transparent" points="89,-368 0,-368 0,-308 89,-308 89,-368"/>
<text text-anchor="start" x="5.5" y="-356" font-family="Helvetica,sans-Serif" font-size="10.00">std::basic_string&lt;</text>
<text text-anchor="start" x="28" y="-345" font-family="Helvetica,sans-Serif" font-size="10.00"> Char &gt;</text>
<text text-anchor="start" x="43" y="-330" font-family="Helvetica,sans-Serif" font-size="10.00"> </text>
<text text-anchor="start" x="43" y="-315" font-family="Helvetica,sans-Serif" font-size="10.00"> </text>
<polygon fill="#666666" stroke="#666666" points="0.5,-340 0.5,-340 89.5,-340 89.5,-340 0.5,-340"/>
<polygon fill="#666666" stroke="#666666" points="0.5,-325 0.5,-325 89.5,-325 89.5,-325 0.5,-325"/>
<polygon fill="none" stroke="#666666" points="0,-308 0,-368 89,-368 89,-308 0,-308"/>
</a>
</g>
</g>
<!-- Node3&#45;&gt;Node2 -->
<g id="edge2_Node000002_Node000003" class="edge">
<title>Node3&#45;&gt;Node2</title>
<g id="a_edge2_Node000002_Node000003"><a xlink:title=" ">
<path fill="none" stroke="#63b8ff" d="M44.5,-297.69C44.5,-276.82 44.5,-251.84 44.5,-233.9"/>
<polygon fill="none" stroke="#63b8ff" points="41,-297.86 44.5,-307.86 48,-297.86 41,-297.86"/>
</a>
</g>
</g>
<!-- Node4 -->
<g id="Node000004" class="node">
<title>Node4</title>
<g id="a_Node000004"><a xlink:href="../../dc/db5/classrm_1_1Endpoint.html" target="_top" xlink:title="端点">
<polygon fill="white" stroke="transparent" points="155.5,-271 89.5,-271 89.5,-147 155.5,-147 155.5,-271"/>
<text text-anchor="start" x="94.5" y="-259" font-family="Helvetica,sans-Serif" font-size="10.00">rm::Endpoint</text>
<text text-anchor="start" x="120.5" y="-244" font-family="Helvetica,sans-Serif" font-size="10.00"> </text>
<text text-anchor="start" x="94" y="-229" font-family="Helvetica,sans-Serif" font-size="10.00">+</text>
<text text-anchor="start" x="105.5" y="-229" font-family="Helvetica,sans-Serif" font-size="10.00">Endpoint()</text>
<text text-anchor="start" x="94" y="-214" font-family="Helvetica,sans-Serif" font-size="10.00">+</text>
<text text-anchor="start" x="105.5" y="-214" font-family="Helvetica,sans-Serif" font-size="10.00">Endpoint()</text>
<text text-anchor="start" x="94" y="-199" font-family="Helvetica,sans-Serif" font-size="10.00">+</text>
<text text-anchor="start" x="105.5" y="-199" font-family="Helvetica,sans-Serif" font-size="10.00">family()</text>
<text text-anchor="start" x="94" y="-184" font-family="Helvetica,sans-Serif" font-size="10.00">+</text>
<text text-anchor="start" x="105.5" y="-184" font-family="Helvetica,sans-Serif" font-size="10.00">type()</text>
<text text-anchor="start" x="94" y="-169" font-family="Helvetica,sans-Serif" font-size="10.00">+</text>
<text text-anchor="start" x="105.5" y="-169" font-family="Helvetica,sans-Serif" font-size="10.00">port()</text>
<text text-anchor="start" x="94" y="-154" font-family="Helvetica,sans-Serif" font-size="10.00">+</text>
<text text-anchor="start" x="105.5" y="-154" font-family="Helvetica,sans-Serif" font-size="10.00">path()</text>
<polygon fill="#666666" stroke="#666666" points="89.5,-254 89.5,-254 155.5,-254 155.5,-254 89.5,-254"/>
<polygon fill="#666666" stroke="#666666" points="89.5,-239 89.5,-239 155.5,-239 155.5,-239 89.5,-239"/>
<polygon fill="none" stroke="#666666" points="89.5,-147 89.5,-271 155.5,-271 155.5,-147 89.5,-147"/>
</a>
</g>
</g>
<!-- Node4&#45;&gt;Node1 -->
<g id="edge3_Node000001_Node000004" class="edge">
<title>Node4&#45;&gt;Node1</title>
<g id="a_edge3_Node000001_Node000004"><a xlink:title=" ">
<path fill="none" stroke="#63b8ff" d="M122.5,-146.6C122.5,-133.37 122.5,-119.43 122.5,-106.33"/>
<polygon fill="none" stroke="#63b8ff" points="122.5,-106.08 118.5,-100.08 122.5,-94.08 126.5,-100.08 122.5,-106.08"/>
</a>
</g>
<text text-anchor="start" x="125.5" y="-117.5" font-family="Helvetica,sans-Serif" font-size="10.00" fill="grey">#_endpoint</text>
</g>
<!-- Node5 -->
<g id="Node000005" class="node">
<title>Node5</title>
<g id="a_Node000005"><a xlink:title=" ">
<polygon fill="white" stroke="transparent" points="210,-233.5 189,-233.5 189,-184.5 210,-184.5 210,-233.5"/>
<text text-anchor="start" x="194.5" y="-221" font-family="Helvetica,sans-Serif" font-size="10.00">int</text>
<text text-anchor="start" x="198" y="-206" font-family="Helvetica,sans-Serif" font-size="10.00"> </text>
<text text-anchor="start" x="198" y="-191" font-family="Helvetica,sans-Serif" font-size="10.00"> </text>
<polygon fill="#666666" stroke="#666666" points="189.5,-216 189.5,-216 210.5,-216 210.5,-216 189.5,-216"/>
<polygon fill="#666666" stroke="#666666" points="189.5,-201 189.5,-201 210.5,-201 210.5,-201 189.5,-201"/>
<polygon fill="none" stroke="#666666" points="189,-184.5 189,-233.5 210,-233.5 210,-184.5 189,-184.5"/>
</a>
</g>
</g>
<!-- Node5&#45;&gt;Node1 -->
<g id="edge4_Node000001_Node000005" class="edge">
<title>Node5&#45;&gt;Node1</title>
<g id="a_edge4_Node000001_Node000005"><a xlink:title=" ">
<path fill="none" stroke="#63b8ff" d="M197.31,-184.43C194.7,-164.31 189.14,-135.05 177.5,-112 174.91,-106.88 171.83,-101.82 168.46,-96.93"/>
<polygon fill="none" stroke="#63b8ff" points="168.37,-96.81 161.58,-94.37 161.22,-87.17 168,-89.6 168.37,-96.81"/>
</a>
</g>
<text text-anchor="start" x="187" y="-117.5" font-family="Helvetica,sans-Serif" font-size="10.00" fill="grey">#_fd</text>
</g>
</g>
</svg>
</svg>

<style type='text/css'>
<![CDATA[
[data-mouse-over-selected='false'] { opacity: 0.7; }
[data-mouse-over-selected='true']  { opacity: 1.0; }
]]>
</style>
<script type="application/ecmascript"><![CDATA[
document.addEventListener('DOMContentLoaded', (event) => {
  highlightEdges();
  highlightAdjacentNodes();
});
]]></script>
</svg>
