<?xml version="1.0" encoding="UTF-8" standalone="no"?>
<!DOCTYPE svg PUBLIC "-//W3C//DTD SVG 1.1//EN"
 "http://www.w3.org/Graphics/SVG/1.1/DTD/svg11.dtd">
<!-- Generated by graphviz version 14.1.2 (0)
 -->
<!-- Title: 类继承关系图 Pages: 1 -->
<svg width="242pt" height="146pt"
 viewBox="0.00 0.00 242.00 146.00" xmlns="http://www.w3.org/2000/svg" xmlns:xlink="http://www.w3.org/1999/xlink">
<g id="graph0" class="graph" transform="scale(1 1) rotate(0) translate(4 141.75)">
<title>类继承关系图</title>
<!-- Node0 -->
<g id="Node000000" class="node">
<title>Node0</title>
<g id="a_Node000000"><a xlink:href="dc/d74/classrm_1_1predictor.html" target="_top" xlink:title="目标预测模块">
<polygon fill="white" stroke="#666666" points="79,-78.75 0,-78.75 0,-58 79,-58 79,-78.75"/>
<text xml:space="preserve" text-anchor="middle" x="39.5" y="-65.25" font-family="Helvetica,sans-Serif" font-size="10.00">rm::predictor</text>
</a>
</g>
</g>
<!-- Node1 -->
<g id="Node000001" class="node">
<title>Node1</title>
<g id="a_Node000001"><a xlink:href="d6/df1/classrm_1_1ArmorPredictor.html" target="_top" xlink:title="装甲预测模块">
<polygon fill="white" stroke="#666666" points="228.88,-137.75 119.88,-137.75 119.88,-117 228.88,-117 228.88,-137.75"/>
<text xml:space="preserve" text-anchor="middle" x="174.38" y="-124.25" font-family="Helvetica,sans-Serif" font-size="10.00">rm::ArmorPredictor</text>
</a>
</g>
</g>
<!-- Node0&#45;&gt;Node1 -->
<g id="edge63_Node000000_Node000001" class="edge">
<title>Node0&#45;&gt;Node1</title>
<g id="a_edge63_Node000000_Node000001"><a xlink:title=" ">
<path fill="none" stroke="#63b8ff" d="M68.89,-84.54C82.59,-92 99.4,-100.66 115,-107.38 122.68,-110.68 131.09,-113.82 139.09,-116.6"/>
<polygon fill="#63b8ff" stroke="#63b8ff" points="70.87,-81.63 60.42,-79.86 67.48,-87.76 70.87,-81.63"/>
</a>
</g>
</g>
<!-- Node2 -->
<g id="Node000002" class="node">
<title>Node2</title>
<g id="a_Node000002"><a xlink:href="d4/d7b/classrm_1_1GyroPredictor.html" target="_top" xlink:title="整车状态预测模块">
<polygon fill="white" stroke="#666666" points="225.5,-98.75 123.25,-98.75 123.25,-78 225.5,-78 225.5,-98.75"/>
<text xml:space="preserve" text-anchor="middle" x="174.38" y="-85.25" font-family="Helvetica,sans-Serif" font-size="10.00">rm::GyroPredictor</text>
</a>
</g>
</g>
<!-- Node0&#45;&gt;Node2 -->
<g id="edge64_Node000000_Node000002" class="edge">
<title>Node0&#45;&gt;Node2</title>
<g id="a_edge64_Node000000_Node000002"><a xlink:title=" ">
<path fill="none" stroke="#63b8ff" d="M90.5,-75.9C101.1,-77.5 112.29,-79.18 122.91,-80.78"/>
<polygon fill="#63b8ff" stroke="#63b8ff" points="91.2,-72.47 80.79,-74.44 90.15,-79.39 91.2,-72.47"/>
</a>
</g>
</g>
<!-- Node3 -->
<g id="Node000003" class="node">
<title>Node3</title>
<g id="a_Node000003"><a xlink:href="db/d9e/classrm_1_1RunePredictor.html" target="_top" xlink:title="神符预测模块">
<polygon fill="white" stroke="#666666" points="226.25,-59.75 122.5,-59.75 122.5,-39 226.25,-39 226.25,-59.75"/>
<text xml:space="preserve" text-anchor="middle" x="174.38" y="-46.25" font-family="Helvetica,sans-Serif" font-size="10.00">rm::RunePredictor</text>
</a>
</g>
</g>
<!-- Node0&#45;&gt;Node3 -->
<g id="edge65_Node000000_Node000003" class="edge">
<title>Node0&#45;&gt;Node3</title>
<g id="a_edge65_Node000000_Node000003"><a xlink:title=" ">
<path fill="none" stroke="#63b8ff" d="M90.37,-61.24C100.84,-59.75 111.9,-58.16 122.42,-56.66"/>
<polygon fill="#63b8ff" stroke="#63b8ff" points="90.19,-57.73 80.79,-62.61 91.18,-64.66 90.19,-57.73"/>
</a>
</g>
</g>
<!-- Node4 -->
<g id="Node000004" class="node">
<title>Node4</title>
<g id="a_Node000004"><a xlink:href="d0/d05/classrm_1_1SpiRunePredictor.html" target="_top" xlink:title="系统参数辨识神符预测类">
<polygon fill="white" stroke="#666666" points="233.75,-20.75 115,-20.75 115,0 233.75,0 233.75,-20.75"/>
<text xml:space="preserve" text-anchor="middle" x="174.38" y="-7.25" font-family="Helvetica,sans-Serif" font-size="10.00">rm::SpiRunePredictor</text>
</a>
</g>
</g>
<!-- Node0&#45;&gt;Node4 -->
<g id="edge66_Node000000_Node000004" class="edge">
<title>Node0&#45;&gt;Node4</title>
<g id="a_edge66_Node000000_Node000004"><a xlink:title=" ">
<path fill="none" stroke="#63b8ff" d="M69.5,-52.37C83.1,-45.18 99.66,-36.88 115,-30.38 122.69,-27.11 131.12,-23.98 139.11,-21.21"/>
<polygon fill="#63b8ff" stroke="#63b8ff" points="68.24,-49.08 61.08,-56.89 71.55,-55.25 68.24,-49.08"/>
</a>
</g>
</g>
</g>
</svg>
