<?xml version="1.0" encoding="UTF-8" standalone="no"?>
<!DOCTYPE svg PUBLIC "-//W3C//DTD SVG 1.1//EN"
 "http://www.w3.org/Graphics/SVG/1.1/DTD/svg11.dtd">
<!-- Generated by graphviz version 2.43.0 (0)
 -->
<!-- Title: rm::GyroGroup Pages: 1 -->
<svg width="733pt" height="955pt"
 viewBox="0.00 0.00 733.00 955.00" xmlns="http://www.w3.org/2000/svg" xmlns:xlink="http://www.w3.org/1999/xlink">
<g id="graph0" class="graph" transform="scale(1 1) rotate(0) translate(4 951)">
<title>rm::GyroGroup</title>
<!-- Node1 -->
<g id="Node000001" class="node">
<title>Node1</title>
<g id="a_Node000001"><a xlink:title="整车状态序列组">
<polygon fill="#999999" stroke="transparent" points="383.5,-244 238.5,-244 238.5,0 383.5,0 383.5,-244"/>
<text text-anchor="start" x="279" y="-232" font-family="Helvetica,sans-Serif" font-size="10.00">rm::GyroGroup</text>
<text text-anchor="start" x="309.5" y="-217" font-family="Helvetica,sans-Serif" font-size="10.00"> </text>
<text text-anchor="start" x="243" y="-202" font-family="Helvetica,sans-Serif" font-size="10.00">+</text>
<text text-anchor="start" x="254" y="-202" font-family="Helvetica,sans-Serif" font-size="10.00">GyroGroup()</text>
<text text-anchor="start" x="243" y="-187" font-family="Helvetica,sans-Serif" font-size="10.00">+</text>
<text text-anchor="start" x="254" y="-187" font-family="Helvetica,sans-Serif" font-size="10.00">clone()</text>
<text text-anchor="start" x="243" y="-172" font-family="Helvetica,sans-Serif" font-size="10.00">+</text>
<text text-anchor="start" x="254" y="-172" font-family="Helvetica,sans-Serif" font-size="10.00">invalid()</text>
<text text-anchor="start" x="243" y="-157" font-family="Helvetica,sans-Serif" font-size="10.00">+</text>
<text text-anchor="start" x="254" y="-157" font-family="Helvetica,sans-Serif" font-size="10.00">sync()</text>
<text text-anchor="start" x="243" y="-142" font-family="Helvetica,sans-Serif" font-size="10.00">+</text>
<text text-anchor="start" x="254" y="-142" font-family="Helvetica,sans-Serif" font-size="10.00">getTrackerState()</text>
<text text-anchor="start" x="243" y="-127" font-family="Helvetica,sans-Serif" font-size="10.00">+</text>
<text text-anchor="start" x="254" y="-127" font-family="Helvetica,sans-Serif" font-size="10.00">getCenter3D()</text>
<text text-anchor="start" x="243" y="-112" font-family="Helvetica,sans-Serif" font-size="10.00">+</text>
<text text-anchor="start" x="254" y="-112" font-family="Helvetica,sans-Serif" font-size="10.00">getSpeed3D()</text>
<text text-anchor="start" x="243" y="-97" font-family="Helvetica,sans-Serif" font-size="10.00">+</text>
<text text-anchor="start" x="254" y="-97" font-family="Helvetica,sans-Serif" font-size="10.00">getRotatedSpeed()</text>
<text text-anchor="start" x="243" y="-82" font-family="Helvetica,sans-Serif" font-size="10.00">+</text>
<text text-anchor="start" x="254" y="-82" font-family="Helvetica,sans-Serif" font-size="10.00">imu()</text>
<text text-anchor="start" x="243" y="-67" font-family="Helvetica,sans-Serif" font-size="10.00">+</text>
<text text-anchor="start" x="254" y="-67" font-family="Helvetica,sans-Serif" font-size="10.00">getRotStatus()</text>
<text text-anchor="start" x="243" y="-52" font-family="Helvetica,sans-Serif" font-size="10.00">+</text>
<text text-anchor="start" x="254" y="-52" font-family="Helvetica,sans-Serif" font-size="10.00">make_group()</text>
<text text-anchor="start" x="243" y="-37" font-family="Helvetica,sans-Serif" font-size="10.00">+</text>
<text text-anchor="start" x="254" y="-37" font-family="Helvetica,sans-Serif" font-size="10.00">calcGroupFrom3DMessage()</text>
<text text-anchor="start" x="243" y="-22" font-family="Helvetica,sans-Serif" font-size="10.00">+</text>
<text text-anchor="start" x="254" y="-22" font-family="Helvetica,sans-Serif" font-size="10.00">constructComboForced()</text>
<text text-anchor="start" x="243" y="-7" font-family="Helvetica,sans-Serif" font-size="10.00">+</text>
<text text-anchor="start" x="254" y="-7" font-family="Helvetica,sans-Serif" font-size="10.00">calcArmorNum()</text>
<polygon fill="#666666" stroke="#666666" points="239,-227 239,-227 384,-227 384,-227 239,-227"/>
<polygon fill="#666666" stroke="#666666" points="239,-212 239,-212 384,-212 384,-212 239,-212"/>
<polygon fill="none" stroke="#666666" points="238.5,0 238.5,-244 383.5,-244 383.5,0 238.5,0"/>
</a>
</g>
</g>
<!-- Node2 -->
<g id="Node000002" class="node">
<title>Node2</title>
<g id="a_Node000002"><a xlink:href="../../d6/d6c/classrm_1_1group.html" target="_top" xlink:title="相关追踪器的空间集合（序列组）">
<polygon fill="white" stroke="transparent" points="362.5,-480 259.5,-480 259.5,-281 362.5,-281 362.5,-480"/>
<text text-anchor="start" x="290.5" y="-467.5" font-family="Helvetica,sans-Serif" font-size="10.00">rm::group</text>
<text text-anchor="start" x="309.5" y="-452.5" font-family="Helvetica,sans-Serif" font-size="10.00"> </text>
<text text-anchor="start" x="264" y="-437.5" font-family="Helvetica,sans-Serif" font-size="10.00">+</text>
<text text-anchor="start" x="275" y="-437.5" font-family="Helvetica,sans-Serif" font-size="10.00">clone()</text>
<text text-anchor="start" x="264" y="-422.5" font-family="Helvetica,sans-Serif" font-size="10.00">+</text>
<text text-anchor="start" x="275" y="-422.5" font-family="Helvetica,sans-Serif" font-size="10.00">sync()</text>
<text text-anchor="start" x="264" y="-407.5" font-family="Helvetica,sans-Serif" font-size="10.00">+</text>
<text text-anchor="start" x="275" y="-407.5" font-family="Helvetica,sans-Serif" font-size="10.00">add()</text>
<text text-anchor="start" x="264" y="-392.5" font-family="Helvetica,sans-Serif" font-size="10.00">+</text>
<text text-anchor="start" x="275" y="-392.5" font-family="Helvetica,sans-Serif" font-size="10.00">invalid()</text>
<text text-anchor="start" x="264" y="-377.5" font-family="Helvetica,sans-Serif" font-size="10.00">+</text>
<text text-anchor="start" x="275" y="-377.5" font-family="Helvetica,sans-Serif" font-size="10.00">data()</text>
<text text-anchor="start" x="264" y="-362.5" font-family="Helvetica,sans-Serif" font-size="10.00">+</text>
<text text-anchor="start" x="275" y="-362.5" font-family="Helvetica,sans-Serif" font-size="10.00">size()</text>
<text text-anchor="start" x="264" y="-347.5" font-family="Helvetica,sans-Serif" font-size="10.00">+</text>
<text text-anchor="start" x="275" y="-347.5" font-family="Helvetica,sans-Serif" font-size="10.00">empty()</text>
<text text-anchor="start" x="264" y="-332.5" font-family="Helvetica,sans-Serif" font-size="10.00">+</text>
<text text-anchor="start" x="275" y="-332.5" font-family="Helvetica,sans-Serif" font-size="10.00">at()</text>
<text text-anchor="start" x="264" y="-317.5" font-family="Helvetica,sans-Serif" font-size="10.00">+</text>
<text text-anchor="start" x="275" y="-317.5" font-family="Helvetica,sans-Serif" font-size="10.00">center()</text>
<text text-anchor="start" x="264" y="-302.5" font-family="Helvetica,sans-Serif" font-size="10.00">+</text>
<text text-anchor="start" x="275" y="-302.5" font-family="Helvetica,sans-Serif" font-size="10.00">getVanishNumber()</text>
<text text-anchor="start" x="264" y="-287.5" font-family="Helvetica,sans-Serif" font-size="10.00">+</text>
<text text-anchor="start" x="275" y="-287.5" font-family="Helvetica,sans-Serif" font-size="10.00">type()</text>
<polygon fill="#666666" stroke="#666666" points="260,-462.5 260,-462.5 363,-462.5 363,-462.5 260,-462.5"/>
<polygon fill="#666666" stroke="#666666" points="260,-447.5 260,-447.5 363,-447.5 363,-447.5 260,-447.5"/>
<polygon fill="none" stroke="#666666" points="259.5,-281 259.5,-480 362.5,-480 362.5,-281 259.5,-281"/>
</a>
</g>
</g>
<!-- Node2&#45;&gt;Node1 -->
<g id="edge1_Node000001_Node000002" class="edge">
<title>Node2&#45;&gt;Node1</title>
<g id="a_edge1_Node000001_Node000002"><a xlink:title=" ">
<path fill="none" stroke="#63b8ff" d="M311,-270.5C311,-261.76 311,-252.89 311,-244.07"/>
<polygon fill="none" stroke="#63b8ff" points="307.5,-270.7 311,-280.7 314.5,-270.7 307.5,-270.7"/>
</a>
</g>
</g>
<!-- Node3 -->
<g id="Node000003" class="node">
<title>Node3</title>
<g id="a_Node000003"><a xlink:title=" ">
<polygon fill="white" stroke="transparent" points="208,-589 112,-589 112,-529 208,-529 208,-589"/>
<text text-anchor="start" x="117" y="-577" font-family="Helvetica,sans-Serif" font-size="10.00">std::vector&lt; tracker</text>
<text text-anchor="start" x="146.5" y="-566" font-family="Helvetica,sans-Serif" font-size="10.00">::ptr &gt;</text>
<text text-anchor="start" x="158" y="-551" font-family="Helvetica,sans-Serif" font-size="10.00"> </text>
<text text-anchor="start" x="158" y="-536" font-family="Helvetica,sans-Serif" font-size="10.00"> </text>
<polygon fill="#666666" stroke="#666666" points="112,-561 112,-561 208,-561 208,-561 112,-561"/>
<polygon fill="#666666" stroke="#666666" points="112,-546 112,-546 208,-546 208,-546 112,-546"/>
<polygon fill="none" stroke="#666666" points="112,-529 112,-589 208,-589 208,-529 112,-529"/>
</a>
</g>
</g>
<!-- Node3&#45;&gt;Node2 -->
<g id="edge2_Node000002_Node000003" class="edge">
<title>Node3&#45;&gt;Node2</title>
<g id="a_edge2_Node000002_Node000003"><a xlink:title=" ">
<path fill="none" stroke="#63b8ff" d="M184.05,-528.91C192.24,-519.06 201.48,-508.02 210,-498 223.33,-482.31 237.77,-465.54 251.44,-449.74"/>
<polygon fill="none" stroke="#63b8ff" points="251.53,-449.64 252.44,-442.49 259.39,-440.57 258.49,-447.73 251.53,-449.64"/>
</a>
</g>
<text text-anchor="middle" x="234.5" y="-501" font-family="Helvetica,sans-Serif" font-size="10.00" fill="grey"> #_trackers</text>
</g>
<!-- Node4 -->
<g id="Node000004" class="node">
<title>Node4</title>
<g id="a_Node000004"><a xlink:title=" ">
<polygon fill="white" stroke="transparent" points="124,-717 0,-717 0,-638 124,-638 124,-717"/>
<text text-anchor="start" x="5" y="-704.5" font-family="Helvetica,sans-Serif" font-size="10.00">std::shared_ptr&lt; tracker &gt;</text>
<text text-anchor="start" x="17.5" y="-689.5" font-family="Helvetica,sans-Serif" font-size="10.00">+</text>
<text text-anchor="start" x="42" y="-689.5" font-family="Helvetica,sans-Serif" font-size="10.00">ptr</text>
<text text-anchor="start" x="17.5" y="-674.5" font-family="Helvetica,sans-Serif" font-size="10.00">+</text>
<text text-anchor="start" x="42" y="-674.5" font-family="Helvetica,sans-Serif" font-size="10.00">ptr</text>
<text text-anchor="start" x="17.5" y="-659.5" font-family="Helvetica,sans-Serif" font-size="10.00">+</text>
<text text-anchor="start" x="42" y="-659.5" font-family="Helvetica,sans-Serif" font-size="10.00">operator&#45;&gt;()</text>
<text text-anchor="start" x="17.5" y="-644.5" font-family="Helvetica,sans-Serif" font-size="10.00">+</text>
<text text-anchor="start" x="42" y="-644.5" font-family="Helvetica,sans-Serif" font-size="10.00">operator&#45;&gt;()</text>
<polygon fill="#666666" stroke="#666666" points="0,-699.5 0,-699.5 124,-699.5 124,-699.5 0,-699.5"/>
<polygon fill="#666666" stroke="#666666" points="0,-669.5 0,-669.5 40,-669.5 40,-669.5 0,-669.5"/>
<polygon fill="#666666" stroke="#666666" points="40,-669.5 40,-669.5 124,-669.5 124,-669.5 40,-669.5"/>
<polygon fill="none" stroke="#666666" points="0,-638 0,-717 124,-717 124,-638 0,-638"/>
</a>
</g>
</g>
<!-- Node4&#45;&gt;Node3 -->
<g id="edge3_Node000003_Node000004" class="edge">
<title>Node4&#45;&gt;Node3</title>
<g id="a_edge3_Node000003_Node000004"><a xlink:title=" ">
<path fill="none" stroke="#63b8ff" d="M78.38,-637.93C83.55,-627.96 89.82,-617.62 97,-609 100.43,-604.87 104.27,-600.88 108.31,-597.06"/>
<polygon fill="none" stroke="#63b8ff" points="108.41,-596.97 110.25,-590 117.4,-589.02 115.55,-595.99 108.41,-596.97"/>
</a>
</g>
<text text-anchor="middle" x="121.5" y="-612" font-family="Helvetica,sans-Serif" font-size="10.00" fill="grey"> +elements</text>
</g>
<!-- Node5 -->
<g id="Node000005" class="node">
<title>Node5</title>
<g id="a_Node000005"><a xlink:title=" ">
<polygon fill="white" stroke="transparent" points="122,-851 22,-851 22,-802 122,-802 122,-851"/>
<text text-anchor="start" x="27" y="-838.5" font-family="Helvetica,sans-Serif" font-size="10.00">std::shared_ptr&lt; T &gt;</text>
<text text-anchor="start" x="70" y="-823.5" font-family="Helvetica,sans-Serif" font-size="10.00"> </text>
<text text-anchor="start" x="33.5" y="-808.5" font-family="Helvetica,sans-Serif" font-size="10.00">+</text>
<text text-anchor="start" x="52" y="-808.5" font-family="Helvetica,sans-Serif" font-size="10.00">operator&#45;&gt;()</text>
<polygon fill="#666666" stroke="#666666" points="22,-833.5 22,-833.5 122,-833.5 122,-833.5 22,-833.5"/>
<polygon fill="#666666" stroke="#666666" points="22,-818.5 22,-818.5 122,-818.5 122,-818.5 22,-818.5"/>
<polygon fill="none" stroke="#666666" points="22,-802 22,-851 122,-851 122,-802 22,-802"/>
</a>
</g>
</g>
<!-- Node5&#45;&gt;Node4 -->
<g id="edge4_Node000004_Node000005" class="edge">
<title>Node5&#45;&gt;Node4</title>
<g id="a_edge4_Node000004_Node000005"><a xlink:title=" ">
<path fill="none" stroke="orange" d="M59.7,-792.07C59.02,-789.36 58.44,-786.65 58,-784 54.41,-762.11 55.11,-737.35 56.84,-717.31"/>
<polygon fill="orange" stroke="orange" points="56.35,-793.07 62.5,-801.7 63.07,-791.12 56.35,-793.07"/>
</a>
</g>
<text text-anchor="middle" x="84" y="-757" font-family="Helvetica,sans-Serif" font-size="10.00" fill="grey"> &lt; tracker &gt;</text>
</g>
<!-- Node6 -->
<g id="Node000006" class="node">
<title>Node6</title>
<g id="a_Node000006"><a xlink:title=" ">
<polygon fill="white" stroke="transparent" points="124.5,-947 107.5,-947 107.5,-898 124.5,-898 124.5,-947"/>
<text text-anchor="start" x="113" y="-934.5" font-family="Helvetica,sans-Serif" font-size="10.00">T</text>
<text text-anchor="start" x="114.5" y="-919.5" font-family="Helvetica,sans-Serif" font-size="10.00"> </text>
<text text-anchor="start" x="114.5" y="-904.5" font-family="Helvetica,sans-Serif" font-size="10.00"> </text>
<polygon fill="#666666" stroke="#666666" points="108,-929.5 108,-929.5 125,-929.5 125,-929.5 108,-929.5"/>
<polygon fill="#666666" stroke="#666666" points="108,-914.5 108,-914.5 125,-914.5 125,-914.5 108,-914.5"/>
<polygon fill="none" stroke="#666666" points="107.5,-898 107.5,-947 124.5,-947 124.5,-898 107.5,-898"/>
</a>
</g>
</g>
<!-- Node6&#45;&gt;Node5 -->
<g id="edge5_Node000005_Node000006" class="edge">
<title>Node6&#45;&gt;Node5</title>
<g id="a_edge5_Node000005_Node000006"><a xlink:title=" ">
<path fill="none" stroke="#63b8ff" d="M107.31,-902.93C101.87,-891.31 94.69,-875.97 88.23,-862.17"/>
<polygon fill="none" stroke="#63b8ff" points="88.11,-861.91 81.94,-858.17 83.02,-851.04 89.19,-854.78 88.11,-861.91"/>
</a>
</g>
<text text-anchor="middle" x="106.5" y="-872" font-family="Helvetica,sans-Serif" font-size="10.00" fill="grey"> +ptr</text>
</g>
<!-- Node7 -->
<g id="Node000007" class="node">
<title>Node7</title>
<g id="a_Node000007"><a xlink:title=" ">
<polygon fill="white" stroke="transparent" points="200.5,-784 119.5,-784 119.5,-735 200.5,-735 200.5,-784"/>
<text text-anchor="start" x="125" y="-771.5" font-family="Helvetica,sans-Serif" font-size="10.00">std::vector&lt; T &gt;</text>
<text text-anchor="start" x="158.5" y="-756.5" font-family="Helvetica,sans-Serif" font-size="10.00"> </text>
<text text-anchor="start" x="158.5" y="-741.5" font-family="Helvetica,sans-Serif" font-size="10.00"> </text>
<polygon fill="#666666" stroke="#666666" points="120,-766.5 120,-766.5 201,-766.5 201,-766.5 120,-766.5"/>
<polygon fill="#666666" stroke="#666666" points="120,-751.5 120,-751.5 201,-751.5 201,-751.5 120,-751.5"/>
<polygon fill="none" stroke="#666666" points="119.5,-735 119.5,-784 200.5,-784 200.5,-735 119.5,-735"/>
</a>
</g>
</g>
<!-- Node6&#45;&gt;Node7 -->
<g id="edge7_Node000007_Node000006" class="edge">
<title>Node6&#45;&gt;Node7</title>
<g id="a_edge7_Node000007_Node000006"><a xlink:title=" ">
<path fill="none" stroke="#63b8ff" d="M122.49,-897.74C129.82,-870.91 141.83,-826.97 150.28,-796.05"/>
<polygon fill="none" stroke="#63b8ff" points="150.39,-795.67 148.11,-788.82 153.55,-784.09 155.83,-790.93 150.39,-795.67"/>
</a>
</g>
<text text-anchor="middle" x="154.5" y="-872" font-family="Helvetica,sans-Serif" font-size="10.00" fill="grey"> +elements</text>
</g>
<!-- Node7&#45;&gt;Node3 -->
<g id="edge6_Node000003_Node000007" class="edge">
<title>Node7&#45;&gt;Node3</title>
<g id="a_edge6_Node000003_Node000007"><a xlink:title=" ">
<path fill="none" stroke="orange" d="M160,-724.88C160,-686.84 160,-625.48 160,-589.31"/>
<polygon fill="orange" stroke="orange" points="156.5,-724.95 160,-734.95 163.5,-724.95 156.5,-724.95"/>
</a>
</g>
<text text-anchor="middle" x="194.5" y="-675" font-family="Helvetica,sans-Serif" font-size="10.00" fill="grey"> &lt; tracker::ptr &gt;</text>
</g>
<!-- Node8 -->
<g id="Node000008" class="node">
<title>Node8</title>
<g id="a_Node000008"><a xlink:title=" ">
<polygon fill="white" stroke="transparent" points="267.5,-583.5 226.5,-583.5 226.5,-534.5 267.5,-534.5 267.5,-583.5"/>
<text text-anchor="start" x="232" y="-571" font-family="Helvetica,sans-Serif" font-size="10.00">Point2f</text>
<text text-anchor="start" x="245.5" y="-556" font-family="Helvetica,sans-Serif" font-size="10.00"> </text>
<text text-anchor="start" x="245.5" y="-541" font-family="Helvetica,sans-Serif" font-size="10.00"> </text>
<polygon fill="#666666" stroke="#666666" points="227,-566 227,-566 268,-566 268,-566 227,-566"/>
<polygon fill="#666666" stroke="#666666" points="227,-551 227,-551 268,-551 268,-551 227,-551"/>
<polygon fill="none" stroke="#666666" points="226.5,-534.5 226.5,-583.5 267.5,-583.5 267.5,-534.5 226.5,-534.5"/>
</a>
</g>
</g>
<!-- Node8&#45;&gt;Node2 -->
<g id="edge8_Node000002_Node000008" class="edge">
<title>Node8&#45;&gt;Node2</title>
<g id="a_edge8_Node000002_Node000008"><a xlink:title=" ">
<path fill="none" stroke="#63b8ff" d="M254.15,-534.24C257.58,-523.17 261.84,-509.86 266,-498 266.74,-495.9 267.48,-493.79 268.24,-491.66"/>
<polygon fill="none" stroke="#63b8ff" points="268.32,-491.46 266.6,-484.46 272.4,-480.18 274.12,-487.18 268.32,-491.46"/>
</a>
</g>
<text text-anchor="middle" x="286.5" y="-501" font-family="Helvetica,sans-Serif" font-size="10.00" fill="grey"> #_center</text>
</g>
<!-- Node9 -->
<g id="Node000009" class="node">
<title>Node9</title>
<g id="a_Node000009"><a xlink:title=" ">
<polygon fill="white" stroke="transparent" points="325.5,-583.5 296.5,-583.5 296.5,-534.5 325.5,-534.5 325.5,-583.5"/>
<text text-anchor="start" x="302" y="-571" font-family="Helvetica,sans-Serif" font-size="10.00">bool</text>
<text text-anchor="start" x="309.5" y="-556" font-family="Helvetica,sans-Serif" font-size="10.00"> </text>
<text text-anchor="start" x="309.5" y="-541" font-family="Helvetica,sans-Serif" font-size="10.00"> </text>
<polygon fill="#666666" stroke="#666666" points="297,-566 297,-566 326,-566 326,-566 297,-566"/>
<polygon fill="#666666" stroke="#666666" points="297,-551 297,-551 326,-551 326,-551 297,-551"/>
<polygon fill="none" stroke="#666666" points="296.5,-534.5 296.5,-583.5 325.5,-583.5 325.5,-534.5 296.5,-534.5"/>
</a>
</g>
</g>
<!-- Node9&#45;&gt;Node2 -->
<g id="edge9_Node000002_Node000009" class="edge">
<title>Node9&#45;&gt;Node2</title>
<g id="a_edge9_Node000002_Node000009"><a xlink:title=" ">
<path fill="none" stroke="#63b8ff" d="M311,-534.2C311,-522.72 311,-508.06 311,-492.37"/>
<polygon fill="none" stroke="#63b8ff" points="311,-492.21 307,-486.21 311,-480.21 315,-486.21 311,-492.21"/>
</a>
</g>
<text text-anchor="middle" x="340.5" y="-501" font-family="Helvetica,sans-Serif" font-size="10.00" fill="grey"> #_is_tracked</text>
</g>
<!-- Node10 -->
<g id="Node000010" class="node">
<title>Node10</title>
<g id="a_Node000010"><a xlink:title=" ">
<polygon fill="white" stroke="transparent" points="415.5,-583.5 370.5,-583.5 370.5,-534.5 415.5,-534.5 415.5,-583.5"/>
<text text-anchor="start" x="376" y="-571" font-family="Helvetica,sans-Serif" font-size="10.00">uint32_t</text>
<text text-anchor="start" x="391.5" y="-556" font-family="Helvetica,sans-Serif" font-size="10.00"> </text>
<text text-anchor="start" x="391.5" y="-541" font-family="Helvetica,sans-Serif" font-size="10.00"> </text>
<polygon fill="#666666" stroke="#666666" points="371,-566 371,-566 416,-566 416,-566 371,-566"/>
<polygon fill="#666666" stroke="#666666" points="371,-551 371,-551 416,-551 416,-551 371,-551"/>
<polygon fill="none" stroke="#666666" points="370.5,-534.5 370.5,-583.5 415.5,-583.5 415.5,-534.5 370.5,-534.5"/>
</a>
</g>
</g>
<!-- Node10&#45;&gt;Node2 -->
<g id="edge10_Node000002_Node000010" class="edge">
<title>Node10&#45;&gt;Node2</title>
<g id="a_edge10_Node000002_Node000010"><a xlink:title=" ">
<path fill="none" stroke="#63b8ff" d="M385.1,-534.37C381.17,-523.21 376.17,-509.79 371,-498 369.92,-495.55 368.82,-493.07 367.69,-490.58"/>
<polygon fill="none" stroke="#63b8ff" points="367.65,-490.49 361.5,-486.73 362.61,-479.6 368.76,-483.37 367.65,-490.49"/>
</a>
</g>
<text text-anchor="middle" x="409.5" y="-501" font-family="Helvetica,sans-Serif" font-size="10.00" fill="grey"> #_vanish_num</text>
</g>
<!-- Node11 -->
<g id="Node000011" class="node">
<title>Node11</title>
<g id="a_Node000011"><a xlink:href="../../d0/d01/structrm_1_1RMStatus.html" target="_top" xlink:title="状态类型">
<polygon fill="white" stroke="transparent" points="519,-591 447,-591 447,-527 519,-527 519,-591"/>
<text text-anchor="start" x="452" y="-579" font-family="Helvetica,sans-Serif" font-size="10.00">rm::RMStatus</text>
<text text-anchor="start" x="481" y="-564" font-family="Helvetica,sans-Serif" font-size="10.00"> </text>
<text text-anchor="start" x="453" y="-549" font-family="Helvetica,sans-Serif" font-size="10.00">+</text>
<text text-anchor="start" x="466" y="-549" font-family="Helvetica,sans-Serif" font-size="10.00">to_string()</text>
<text text-anchor="start" x="453" y="-534" font-family="Helvetica,sans-Serif" font-size="10.00">+</text>
<text text-anchor="start" x="466" y="-534" font-family="Helvetica,sans-Serif" font-size="10.00">to_string()</text>
<polygon fill="#666666" stroke="#666666" points="447,-574 447,-574 519,-574 519,-574 447,-574"/>
<polygon fill="#666666" stroke="#666666" points="447,-559 447,-559 519,-559 519,-559 447,-559"/>
<polygon fill="none" stroke="#666666" points="447,-527 447,-591 519,-591 519,-527 447,-527"/>
</a>
</g>
</g>
<!-- Node11&#45;&gt;Node2 -->
<g id="edge11_Node000002_Node000011" class="edge">
<title>Node11&#45;&gt;Node2</title>
<g id="a_edge11_Node000002_Node000011"><a xlink:title=" ">
<path fill="none" stroke="#63b8ff" d="M466.85,-526.81C461.18,-517.13 454.37,-506.72 447,-498 425.13,-472.11 397.22,-447.14 372.38,-427"/>
<polygon fill="none" stroke="#63b8ff" points="372.05,-426.74 364.86,-426.12 362.67,-419.25 369.86,-419.87 372.05,-426.74"/>
</a>
</g>
<text text-anchor="middle" x="472.5" y="-501" font-family="Helvetica,sans-Serif" font-size="10.00" fill="grey"> #_type</text>
</g>
<!-- Node12 -->
<g id="Node000012" class="node">
<title>Node12</title>
<g id="a_Node000012"><a xlink:title=" ">
<polygon fill="white" stroke="transparent" points="324.5,-702 247.5,-702 247.5,-653 324.5,-653 324.5,-702"/>
<text text-anchor="start" x="253" y="-689.5" font-family="Helvetica,sans-Serif" font-size="10.00">ArmorSizeType</text>
<text text-anchor="start" x="284.5" y="-674.5" font-family="Helvetica,sans-Serif" font-size="10.00"> </text>
<text text-anchor="start" x="284.5" y="-659.5" font-family="Helvetica,sans-Serif" font-size="10.00"> </text>
<polygon fill="#666666" stroke="#666666" points="248,-684.5 248,-684.5 325,-684.5 325,-684.5 248,-684.5"/>
<polygon fill="#666666" stroke="#666666" points="248,-669.5 248,-669.5 325,-669.5 325,-669.5 248,-669.5"/>
<polygon fill="none" stroke="#666666" points="247.5,-653 247.5,-702 324.5,-702 324.5,-653 247.5,-653"/>
</a>
</g>
</g>
<!-- Node12&#45;&gt;Node11 -->
<g id="edge12_Node000011_Node000012" class="edge">
<title>Node12&#45;&gt;Node11</title>
<g id="a_edge12_Node000011_Node000012"><a xlink:title=" ">
<path fill="none" stroke="#63b8ff" d="M291.6,-652.92C296.38,-638.02 304.8,-619.64 319,-609 356.89,-580.61 379.16,-606.2 424,-591 427.96,-589.66 431.97,-588.08 435.94,-586.36"/>
<polygon fill="none" stroke="#63b8ff" points="436.1,-586.28 439.84,-580.12 446.97,-581.2 443.23,-587.36 436.1,-586.28"/>
</a>
</g>
<text text-anchor="middle" x="362.5" y="-612" font-family="Helvetica,sans-Serif" font-size="10.00" fill="grey"> +ArmorSizeTypeID</text>
</g>
<!-- Node13 -->
<g id="Node000013" class="node">
<title>Node13</title>
<g id="a_Node000013"><a xlink:title=" ">
<polygon fill="white" stroke="transparent" points="422.5,-702 367.5,-702 367.5,-653 422.5,-653 422.5,-702"/>
<text text-anchor="start" x="373" y="-689.5" font-family="Helvetica,sans-Serif" font-size="10.00">RuneType</text>
<text text-anchor="start" x="393.5" y="-674.5" font-family="Helvetica,sans-Serif" font-size="10.00"> </text>
<text text-anchor="start" x="393.5" y="-659.5" font-family="Helvetica,sans-Serif" font-size="10.00"> </text>
<polygon fill="#666666" stroke="#666666" points="368,-684.5 368,-684.5 423,-684.5 423,-684.5 368,-684.5"/>
<polygon fill="#666666" stroke="#666666" points="368,-669.5 368,-669.5 423,-669.5 423,-669.5 368,-669.5"/>
<polygon fill="none" stroke="#666666" points="367.5,-653 367.5,-702 422.5,-702 422.5,-653 367.5,-653"/>
</a>
</g>
</g>
<!-- Node13&#45;&gt;Node11 -->
<g id="edge13_Node000011_Node000013" class="edge">
<title>Node13&#45;&gt;Node11</title>
<g id="a_edge13_Node000011_Node000013"><a xlink:title=" ">
<path fill="none" stroke="#63b8ff" d="M398.08,-652.96C400.79,-639.16 405.8,-621.96 415,-609 420.93,-600.64 428.75,-593.17 436.96,-586.74"/>
<polygon fill="none" stroke="#63b8ff" points="436.99,-586.72 439.49,-579.96 446.7,-579.67 444.19,-586.43 436.99,-586.72"/>
</a>
</g>
<text text-anchor="middle" x="447" y="-612" font-family="Helvetica,sans-Serif" font-size="10.00" fill="grey"> +RuneTypeID</text>
</g>
<!-- Node14 -->
<g id="Node000014" class="node">
<title>Node14</title>
<g id="a_Node000014"><a xlink:title=" ">
<polygon fill="white" stroke="transparent" points="527.5,-702 440.5,-702 440.5,-653 527.5,-653 527.5,-702"/>
<text text-anchor="start" x="446" y="-689.5" font-family="Helvetica,sans-Serif" font-size="10.00">CompensateType</text>
<text text-anchor="start" x="482.5" y="-674.5" font-family="Helvetica,sans-Serif" font-size="10.00"> </text>
<text text-anchor="start" x="482.5" y="-659.5" font-family="Helvetica,sans-Serif" font-size="10.00"> </text>
<polygon fill="#666666" stroke="#666666" points="441,-684.5 441,-684.5 528,-684.5 528,-684.5 441,-684.5"/>
<polygon fill="#666666" stroke="#666666" points="441,-669.5 441,-669.5 528,-669.5 528,-669.5 441,-669.5"/>
<polygon fill="none" stroke="#666666" points="440.5,-653 440.5,-702 527.5,-702 527.5,-653 440.5,-653"/>
</a>
</g>
</g>
<!-- Node14&#45;&gt;Node11 -->
<g id="edge14_Node000011_Node000014" class="edge">
<title>Node14&#45;&gt;Node11</title>
<g id="a_edge14_Node000011_Node000014"><a xlink:title=" ">
<path fill="none" stroke="#63b8ff" d="M483.8,-652.92C483.68,-638.73 483.52,-620.2 483.37,-603.44"/>
<polygon fill="none" stroke="#63b8ff" points="483.37,-603.06 479.32,-597.09 483.27,-591.06 487.32,-597.02 483.37,-603.06"/>
</a>
</g>
<text text-anchor="middle" x="531.5" y="-612" font-family="Helvetica,sans-Serif" font-size="10.00" fill="grey"> +CompensateTypeID</text>
</g>
<!-- Node15 -->
<g id="Node000015" class="node">
<title>Node15</title>
<g id="a_Node000015"><a xlink:title=" ">
<polygon fill="white" stroke="transparent" points="632,-702 574,-702 574,-653 632,-653 632,-702"/>
<text text-anchor="start" x="579" y="-689.5" font-family="Helvetica,sans-Serif" font-size="10.00">RobotType</text>
<text text-anchor="start" x="601" y="-674.5" font-family="Helvetica,sans-Serif" font-size="10.00"> </text>
<text text-anchor="start" x="601" y="-659.5" font-family="Helvetica,sans-Serif" font-size="10.00"> </text>
<polygon fill="#666666" stroke="#666666" points="574,-684.5 574,-684.5 632,-684.5 632,-684.5 574,-684.5"/>
<polygon fill="#666666" stroke="#666666" points="574,-669.5 574,-669.5 632,-669.5 632,-669.5 574,-669.5"/>
<polygon fill="none" stroke="#666666" points="574,-653 574,-702 632,-702 632,-653 574,-653"/>
</a>
</g>
</g>
<!-- Node15&#45;&gt;Node11 -->
<g id="edge15_Node000011_Node000015" class="edge">
<title>Node15&#45;&gt;Node11</title>
<g id="a_edge15_Node000011_Node000015"><a xlink:title=" ">
<path fill="none" stroke="#63b8ff" d="M599.92,-652.69C597.05,-638.62 591.54,-621.23 581,-609 567.7,-593.56 548.36,-582.46 530.38,-574.77"/>
<polygon fill="none" stroke="#63b8ff" points="530.28,-574.73 523.23,-576.24 519.12,-570.31 526.17,-568.8 530.28,-574.73"/>
</a>
</g>
<text text-anchor="middle" x="620.5" y="-612" font-family="Helvetica,sans-Serif" font-size="10.00" fill="grey"> +RobotTypeID</text>
</g>
<!-- Node16 -->
<g id="Node000016" class="node">
<title>Node16</title>
<g id="a_Node000016"><a xlink:title=" ">
<polygon fill="white" stroke="transparent" points="716.5,-702 669.5,-702 669.5,-653 716.5,-653 716.5,-702"/>
<text text-anchor="start" x="675" y="-689.5" font-family="Helvetica,sans-Serif" font-size="10.00">TagType</text>
<text text-anchor="start" x="691.5" y="-674.5" font-family="Helvetica,sans-Serif" font-size="10.00"> </text>
<text text-anchor="start" x="691.5" y="-659.5" font-family="Helvetica,sans-Serif" font-size="10.00"> </text>
<polygon fill="#666666" stroke="#666666" points="670,-684.5 670,-684.5 717,-684.5 717,-684.5 670,-684.5"/>
<polygon fill="#666666" stroke="#666666" points="670,-669.5 670,-669.5 717,-669.5 717,-669.5 670,-669.5"/>
<polygon fill="none" stroke="#666666" points="669.5,-653 669.5,-702 716.5,-702 716.5,-653 669.5,-653"/>
</a>
</g>
</g>
<!-- Node16&#45;&gt;Node11 -->
<g id="edge16_Node000011_Node000016" class="edge">
<title>Node16&#45;&gt;Node11</title>
<g id="a_edge16_Node000011_Node000016"><a xlink:title=" ">
<path fill="none" stroke="#63b8ff" d="M686.08,-652.72C680.67,-638.13 671.72,-620.16 658,-609 621.93,-579.67 569.41,-567.87 531.32,-563.14"/>
<polygon fill="none" stroke="#63b8ff" points="530.93,-563.09 524.53,-566.42 519.01,-561.79 525.4,-558.47 530.93,-563.09"/>
</a>
</g>
<text text-anchor="middle" x="696.5" y="-612" font-family="Helvetica,sans-Serif" font-size="10.00" fill="grey"> +TagTypeID</text>
</g>
</g>
</svg>
