<?xml version="1.0" encoding="UTF-8" standalone="no"?>
<!DOCTYPE svg PUBLIC "-//W3C//DTD SVG 1.1//EN"
 "http://www.w3.org/Graphics/SVG/1.1/DTD/svg11.dtd">
<!-- Generated by graphviz version 2.43.0 (0)
 -->
<!-- Title: rm::async::StreamSocket::SocketWriteAwaiter Pages: 1 -->
<svg width="272pt" height="368pt"
 viewBox="0.00 0.00 271.50 368.00" xmlns="http://www.w3.org/2000/svg" xmlns:xlink="http://www.w3.org/1999/xlink">
<g id="graph0" class="graph" transform="scale(1 1) rotate(0) translate(4 364)">
<title>rm::async::StreamSocket::SocketWriteAwaiter</title>
<!-- Node1 -->
<g id="Node000001" class="node">
<title>Node1</title>
<g id="a_Node000001"><a xlink:title="流式 Socket 异步写等待器">
<polygon fill="#999999" stroke="transparent" points="203,-60 71,-60 71,0 203,0 203,-60"/>
<text text-anchor="start" x="76" y="-48" font-family="Helvetica,sans-Serif" font-size="10.00">rm::async::StreamSocket</text>
<text text-anchor="start" x="85.5" y="-37" font-family="Helvetica,sans-Serif" font-size="10.00">::SocketWriteAwaiter</text>
<text text-anchor="start" x="135" y="-22" font-family="Helvetica,sans-Serif" font-size="10.00"> </text>
<text text-anchor="start" x="76.5" y="-7" font-family="Helvetica,sans-Serif" font-size="10.00">+</text>
<text text-anchor="start" x="91" y="-7" font-family="Helvetica,sans-Serif" font-size="10.00">SocketWriteAwaiter()</text>
<polygon fill="#666666" stroke="#666666" points="71,-32 71,-32 203,-32 203,-32 71,-32"/>
<polygon fill="#666666" stroke="#666666" points="71,-17 71,-17 203,-17 203,-17 71,-17"/>
<polygon fill="none" stroke="#666666" points="71,0 71,-60 203,-60 203,0 71,0"/>
</a>
</g>
</g>
<!-- Node2 -->
<g id="Node000002" class="node">
<title>Node2</title>
<g id="a_Node000002"><a xlink:href="../../db/d38/classrm_1_1async_1_1AsyncWriteAwaiter.html" target="_top" xlink:title="通用异步写等待器，核心操作使用文件 I/O 系统调用的 write、WriteFile，使用者可以通过">
<polygon fill="white" stroke="transparent" points="216,-146 58,-146 58,-97 216,-97 216,-146"/>
<text text-anchor="start" x="63" y="-133.5" font-family="Helvetica,sans-Serif" font-size="10.00">rm::async::AsyncWriteAwaiter</text>
<text text-anchor="start" x="135" y="-118.5" font-family="Helvetica,sans-Serif" font-size="10.00"> </text>
<text text-anchor="start" x="71" y="-103.5" font-family="Helvetica,sans-Serif" font-size="10.00">+</text>
<text text-anchor="start" x="93" y="-103.5" font-family="Helvetica,sans-Serif" font-size="10.00">AsyncWriteAwaiter()</text>
<polygon fill="#666666" stroke="#666666" points="58,-128.5 58,-128.5 216,-128.5 216,-128.5 58,-128.5"/>
<polygon fill="#666666" stroke="#666666" points="58,-113.5 58,-113.5 216,-113.5 216,-113.5 58,-113.5"/>
<polygon fill="none" stroke="#666666" points="58,-97 58,-146 216,-146 216,-97 58,-97"/>
</a>
</g>
</g>
<!-- Node2&#45;&gt;Node1 -->
<g id="edge1_Node000001_Node000002" class="edge">
<title>Node2&#45;&gt;Node1</title>
<g id="a_edge1_Node000001_Node000002"><a xlink:title=" ">
<path fill="none" stroke="#63b8ff" d="M137,-86.7C137,-77.95 137,-68.6 137,-60.12"/>
<polygon fill="none" stroke="#63b8ff" points="133.5,-86.98 137,-96.98 140.5,-86.98 133.5,-86.98"/>
</a>
</g>
</g>
<!-- Node3 -->
<g id="Node000003" class="node">
<title>Node3</title>
<g id="a_Node000003"><a xlink:href="../../d6/d17/classrm_1_1async_1_1AsyncIOAwaiter.html" target="_top" xlink:title="IO 事件异步等待器">
<polygon fill="white" stroke="transparent" points="142,-242 0,-242 0,-193 142,-193 142,-242"/>
<text text-anchor="start" x="5" y="-229.5" font-family="Helvetica,sans-Serif" font-size="10.00">rm::async::AsyncIOAwaiter</text>
<text text-anchor="start" x="69" y="-214.5" font-family="Helvetica,sans-Serif" font-size="10.00"> </text>
<text text-anchor="start" x="13" y="-199.5" font-family="Helvetica,sans-Serif" font-size="10.00">+</text>
<text text-anchor="start" x="35" y="-199.5" font-family="Helvetica,sans-Serif" font-size="10.00">AsyncIOAwaiter()</text>
<polygon fill="#666666" stroke="#666666" points="0,-224.5 0,-224.5 142,-224.5 142,-224.5 0,-224.5"/>
<polygon fill="#666666" stroke="#666666" points="0,-209.5 0,-209.5 142,-209.5 142,-209.5 0,-209.5"/>
<polygon fill="none" stroke="#666666" points="0,-193 0,-242 142,-242 142,-193 0,-193"/>
</a>
</g>
</g>
<!-- Node3&#45;&gt;Node2 -->
<g id="edge2_Node000002_Node000003" class="edge">
<title>Node3&#45;&gt;Node2</title>
<g id="a_edge2_Node000002_Node000003"><a xlink:title=" ">
<path fill="none" stroke="#63b8ff" d="M93.53,-184.41C102.32,-171.89 112.22,-157.79 120.35,-146.21"/>
<polygon fill="none" stroke="#63b8ff" points="90.54,-182.58 87.65,-192.78 96.27,-186.61 90.54,-182.58"/>
</a>
</g>
</g>
<!-- Node4 -->
<g id="Node000004" class="node">
<title>Node4</title>
<g id="a_Node000004"><a xlink:title=" ">
<polygon fill="white" stroke="transparent" points="82.5,-354.5 59.5,-354.5 59.5,-305.5 82.5,-305.5 82.5,-354.5"/>
<text text-anchor="start" x="65" y="-342" font-family="Helvetica,sans-Serif" font-size="10.00">int</text>
<text text-anchor="start" x="69.5" y="-327" font-family="Helvetica,sans-Serif" font-size="10.00"> </text>
<text text-anchor="start" x="69.5" y="-312" font-family="Helvetica,sans-Serif" font-size="10.00"> </text>
<polygon fill="#666666" stroke="#666666" points="60,-337 60,-337 83,-337 83,-337 60,-337"/>
<polygon fill="#666666" stroke="#666666" points="60,-322 60,-322 83,-322 83,-322 60,-322"/>
<polygon fill="none" stroke="#666666" points="59.5,-305.5 59.5,-354.5 82.5,-354.5 82.5,-305.5 59.5,-305.5"/>
</a>
</g>
</g>
<!-- Node4&#45;&gt;Node3 -->
<g id="edge3_Node000003_Node000004" class="edge">
<title>Node4&#45;&gt;Node3</title>
<g id="a_edge3_Node000003_Node000004"><a xlink:title=" ">
<path fill="none" stroke="#63b8ff" d="M71,-305.29C71,-290.44 71,-271 71,-254.29"/>
<polygon fill="none" stroke="#63b8ff" points="71,-254.17 67,-248.17 71,-242.17 75,-248.17 71,-254.17"/>
</a>
</g>
<text text-anchor="middle" x="90" y="-274" font-family="Helvetica,sans-Serif" font-size="10.00" fill="grey"> #_aioh</text>
<text text-anchor="middle" x="90" y="-263" font-family="Helvetica,sans-Serif" font-size="10.00" fill="grey">#_fd</text>
</g>
<!-- Node5 -->
<g id="Node000005" class="node">
<title>Node5</title>
<g id="a_Node000005"><a xlink:title=" ">
<polygon fill="white" stroke="transparent" points="248,-242 160,-242 160,-193 248,-193 248,-242"/>
<text text-anchor="start" x="165" y="-229.5" font-family="Helvetica,sans-Serif" font-size="10.00">std::string_view</text>
<text text-anchor="start" x="202" y="-214.5" font-family="Helvetica,sans-Serif" font-size="10.00"> </text>
<text text-anchor="start" x="202" y="-199.5" font-family="Helvetica,sans-Serif" font-size="10.00"> </text>
<polygon fill="#666666" stroke="#666666" points="160,-224.5 160,-224.5 248,-224.5 248,-224.5 160,-224.5"/>
<polygon fill="#666666" stroke="#666666" points="160,-209.5 160,-209.5 248,-209.5 248,-209.5 160,-209.5"/>
<polygon fill="none" stroke="#666666" points="160,-193 160,-242 248,-242 248,-193 160,-193"/>
</a>
</g>
</g>
<!-- Node5&#45;&gt;Node2 -->
<g id="edge4_Node000002_Node000005" class="edge">
<title>Node5&#45;&gt;Node2</title>
<g id="a_edge4_Node000002_Node000005"><a xlink:title=" ">
<path fill="none" stroke="#63b8ff" d="M187.09,-192.78C179.16,-181.65 169.56,-168.18 160.9,-156.03"/>
<polygon fill="none" stroke="#63b8ff" points="160.87,-155.98 154.13,-153.42 153.9,-146.21 160.64,-148.78 160.87,-155.98"/>
</a>
</g>
<text text-anchor="middle" x="191.5" y="-167" font-family="Helvetica,sans-Serif" font-size="10.00" fill="grey"> #_data</text>
</g>
<!-- Node6 -->
<g id="Node000006" class="node">
<title>Node6</title>
<g id="a_Node000006"><a xlink:title=" ">
<polygon fill="white" stroke="transparent" points="263.5,-360 144.5,-360 144.5,-300 263.5,-300 263.5,-360"/>
<text text-anchor="start" x="150" y="-348" font-family="Helvetica,sans-Serif" font-size="10.00">std::basic_string_view</text>
<text text-anchor="start" x="181.5" y="-337" font-family="Helvetica,sans-Serif" font-size="10.00">&lt; Char &gt;</text>
<text text-anchor="start" x="202.5" y="-322" font-family="Helvetica,sans-Serif" font-size="10.00"> </text>
<text text-anchor="start" x="202.5" y="-307" font-family="Helvetica,sans-Serif" font-size="10.00"> </text>
<polygon fill="#666666" stroke="#666666" points="145,-332 145,-332 264,-332 264,-332 145,-332"/>
<polygon fill="#666666" stroke="#666666" points="145,-317 145,-317 264,-317 264,-317 145,-317"/>
<polygon fill="none" stroke="#666666" points="144.5,-300 144.5,-360 263.5,-360 263.5,-300 144.5,-300"/>
</a>
</g>
</g>
<!-- Node6&#45;&gt;Node5 -->
<g id="edge5_Node000005_Node000006" class="edge">
<title>Node6&#45;&gt;Node5</title>
<g id="a_edge5_Node000005_Node000006"><a xlink:title=" ">
<path fill="none" stroke="#63b8ff" d="M204,-289.84C204,-273.9 204,-256.01 204,-242.13"/>
<polygon fill="none" stroke="#63b8ff" points="200.5,-289.97 204,-299.97 207.5,-289.97 200.5,-289.97"/>
</a>
</g>
</g>
</g>
</svg>
