<?xml version="1.0" encoding="UTF-8" standalone="no"?>
<!DOCTYPE svg PUBLIC "-//W3C//DTD SVG 1.1//EN"
 "http://www.w3.org/Graphics/SVG/1.1/DTD/svg11.dtd">
<!-- Generated by graphviz version 2.43.0 (0)
 -->
<!-- Title: rm::VariableType Pages: 1 -->
<svg width="137pt" height="422pt"
 viewBox="0.00 0.00 137.00 422.00" xmlns="http://www.w3.org/2000/svg" xmlns:xlink="http://www.w3.org/1999/xlink">
<g id="graph0" class="graph" transform="scale(1 1) rotate(0) translate(4 418)">
<title>rm::VariableType</title>
<!-- Node1 -->
<g id="Node000001" class="node">
<title>Node1</title>
<g id="a_Node000001"><a xlink:title="OPC UA 变量类型">
<polygon fill="#999999" stroke="transparent" points="95,-199 3,-199 3,0 95,0 95,-199"/>
<text text-anchor="start" x="8" y="-186.5" font-family="Helvetica,sans-Serif" font-size="10.00">rm::VariableType</text>
<text text-anchor="start" x="47" y="-171.5" font-family="Helvetica,sans-Serif" font-size="10.00"> </text>
<text text-anchor="start" x="7" y="-156.5" font-family="Helvetica,sans-Serif" font-size="10.00">+</text>
<text text-anchor="start" x="20" y="-156.5" font-family="Helvetica,sans-Serif" font-size="10.00">VariableType()</text>
<text text-anchor="start" x="7" y="-141.5" font-family="Helvetica,sans-Serif" font-size="10.00">+</text>
<text text-anchor="start" x="20" y="-141.5" font-family="Helvetica,sans-Serif" font-size="10.00">VariableType()</text>
<text text-anchor="start" x="7" y="-126.5" font-family="Helvetica,sans-Serif" font-size="10.00">+</text>
<text text-anchor="start" x="20" y="-126.5" font-family="Helvetica,sans-Serif" font-size="10.00">VariableType()</text>
<text text-anchor="start" x="7" y="-111.5" font-family="Helvetica,sans-Serif" font-size="10.00">+</text>
<text text-anchor="start" x="20" y="-111.5" font-family="Helvetica,sans-Serif" font-size="10.00">VariableType()</text>
<text text-anchor="start" x="7" y="-96.5" font-family="Helvetica,sans-Serif" font-size="10.00">+</text>
<text text-anchor="start" x="20" y="-96.5" font-family="Helvetica,sans-Serif" font-size="10.00">VariableType()</text>
<text text-anchor="start" x="7" y="-81.5" font-family="Helvetica,sans-Serif" font-size="10.00">+</text>
<text text-anchor="start" x="20" y="-81.5" font-family="Helvetica,sans-Serif" font-size="10.00">operator=()</text>
<text text-anchor="start" x="7" y="-66.5" font-family="Helvetica,sans-Serif" font-size="10.00">+</text>
<text text-anchor="start" x="20" y="-66.5" font-family="Helvetica,sans-Serif" font-size="10.00">operator=()</text>
<text text-anchor="start" x="7" y="-51.5" font-family="Helvetica,sans-Serif" font-size="10.00">+</text>
<text text-anchor="start" x="20" y="-51.5" font-family="Helvetica,sans-Serif" font-size="10.00">data()</text>
<text text-anchor="start" x="7" y="-36.5" font-family="Helvetica,sans-Serif" font-size="10.00">+</text>
<text text-anchor="start" x="20" y="-36.5" font-family="Helvetica,sans-Serif" font-size="10.00">getDataType()</text>
<text text-anchor="start" x="7" y="-21.5" font-family="Helvetica,sans-Serif" font-size="10.00">+</text>
<text text-anchor="start" x="20" y="-21.5" font-family="Helvetica,sans-Serif" font-size="10.00">size()</text>
<text text-anchor="start" x="7" y="-6.5" font-family="Helvetica,sans-Serif" font-size="10.00">+</text>
<text text-anchor="start" x="20" y="-6.5" font-family="Helvetica,sans-Serif" font-size="10.00">cast()</text>
<polygon fill="#666666" stroke="#666666" points="3,-181.5 3,-181.5 95,-181.5 95,-181.5 3,-181.5"/>
<polygon fill="#666666" stroke="#666666" points="3,-166.5 3,-166.5 95,-166.5 95,-166.5 3,-166.5"/>
<polygon fill="none" stroke="#666666" points="3,0 3,-199 95,-199 95,0 3,0"/>
</a>
</g>
</g>
<!-- Node2 -->
<g id="Node000002" class="node">
<title>Node2</title>
<g id="a_Node000002"><a xlink:title=" ">
<polygon fill="white" stroke="transparent" points="78.5,-317 19.5,-317 19.5,-268 78.5,-268 78.5,-317"/>
<text text-anchor="start" x="25" y="-304.5" font-family="Helvetica,sans-Serif" font-size="10.00">std::string</text>
<text text-anchor="start" x="47.5" y="-289.5" font-family="Helvetica,sans-Serif" font-size="10.00"> </text>
<text text-anchor="start" x="47.5" y="-274.5" font-family="Helvetica,sans-Serif" font-size="10.00"> </text>
<polygon fill="#666666" stroke="#666666" points="20,-299.5 20,-299.5 79,-299.5 79,-299.5 20,-299.5"/>
<polygon fill="#666666" stroke="#666666" points="20,-284.5 20,-284.5 79,-284.5 79,-284.5 20,-284.5"/>
<polygon fill="none" stroke="#666666" points="19.5,-268 19.5,-317 78.5,-317 78.5,-268 19.5,-268"/>
</a>
</g>
</g>
<!-- Node2&#45;&gt;Node1 -->
<g id="edge1_Node000001_Node000002" class="edge">
<title>Node2&#45;&gt;Node1</title>
<g id="a_edge1_Node000001_Node000002"><a xlink:title=" ">
<path fill="none" stroke="#63b8ff" d="M49,-267.7C49,-252.91 49,-232.73 49,-211.5"/>
<polygon fill="none" stroke="#63b8ff" points="49,-211.27 45,-205.27 49,-199.27 53,-205.27 49,-211.27"/>
</a>
</g>
<text text-anchor="middle" x="89" y="-242" font-family="Helvetica,sans-Serif" font-size="10.00" fill="grey"> +browse_name</text>
<text text-anchor="middle" x="89" y="-231" font-family="Helvetica,sans-Serif" font-size="10.00" fill="grey">+description</text>
<text text-anchor="middle" x="89" y="-220" font-family="Helvetica,sans-Serif" font-size="10.00" fill="grey">+display_name</text>
</g>
<!-- Node3 -->
<g id="Node000003" class="node">
<title>Node3</title>
<g id="a_Node000003"><a xlink:title=" ">
<polygon fill="white" stroke="transparent" points="98,-414 0,-414 0,-354 98,-354 98,-414"/>
<text text-anchor="start" x="5" y="-402" font-family="Helvetica,sans-Serif" font-size="10.00">std::basic_string&lt;</text>
<text text-anchor="start" x="30.5" y="-391" font-family="Helvetica,sans-Serif" font-size="10.00"> Char &gt;</text>
<text text-anchor="start" x="47" y="-376" font-family="Helvetica,sans-Serif" font-size="10.00"> </text>
<text text-anchor="start" x="47" y="-361" font-family="Helvetica,sans-Serif" font-size="10.00"> </text>
<polygon fill="#666666" stroke="#666666" points="0,-386 0,-386 98,-386 98,-386 0,-386"/>
<polygon fill="#666666" stroke="#666666" points="0,-371 0,-371 98,-371 98,-371 0,-371"/>
<polygon fill="none" stroke="#666666" points="0,-354 0,-414 98,-414 98,-354 0,-354"/>
</a>
</g>
</g>
<!-- Node3&#45;&gt;Node2 -->
<g id="edge2_Node000002_Node000003" class="edge">
<title>Node3&#45;&gt;Node2</title>
<g id="a_edge2_Node000002_Node000003"><a xlink:title=" ">
<path fill="none" stroke="#63b8ff" d="M49,-343.41C49,-334.47 49,-325.25 49,-317.21"/>
<polygon fill="none" stroke="#63b8ff" points="45.5,-343.69 49,-353.69 52.5,-343.69 45.5,-343.69"/>
</a>
</g>
</g>
</g>
</svg>
