<?xml version="1.0" encoding="UTF-8" standalone="no"?>
<!DOCTYPE svg PUBLIC "-//W3C//DTD SVG 1.1//EN"
 "http://www.w3.org/Graphics/SVG/1.1/DTD/svg11.dtd">
<!-- Generated by graphviz version 14.1.2 (0)
 -->
<!-- Title: rm::async::Promise&lt; Tp &gt; Pages: 1 -->
<svg width="208pt" height="342pt"
 viewBox="0.00 0.00 208.00 342.00" xmlns="http://www.w3.org/2000/svg" xmlns:xlink="http://www.w3.org/1999/xlink">

<svg id="main" version="1.1" xmlns="http://www.w3.org/2000/svg" xmlns:xlink="http://www.w3.org/1999/xlink" xml:space="preserve">

<style type="text/css"><![CDATA[
.node, .edge {opacity: 0.7;}
.node.selected, .edge.selected {opacity: 1;}
.edge:hover path { stroke: red; }
.edge:hover polygon { stroke: red; fill: red; }
]]></style>
<script type="application/ecmascript" xlink:href="../../svg.min.js"/>
<svg id="graph" class="graph">
<g id="graph0" class="graph" transform="scale(1 1) rotate(0) translate(4 338.25)">
<title>rm::async::Promise&lt; Tp &gt;</title>
<!-- Node1 -->
<g id="Node000001" class="node">
<title>Node1</title>
<g id="a_Node000001"><a xlink:title="异步协程承诺">
<polygon fill="#999999" stroke="none" points="152.62,-117.25 39.38,-117.25 39.38,0 152.62,0 152.62,-117.25"/>
<text xml:space="preserve" text-anchor="start" x="49.12" y="-103.75" font-family="Helvetica,sans-Serif" font-size="10.00">rm::async::Promise</text>
<text xml:space="preserve" text-anchor="start" x="78.75" y="-91" font-family="Helvetica,sans-Serif" font-size="10.00">&lt; Tp &gt;</text>
<text xml:space="preserve" text-anchor="start" x="94.5" y="-74.25" font-family="Helvetica,sans-Serif" font-size="10.00"> </text>
<text xml:space="preserve" text-anchor="start" x="43.38" y="-57.5" font-family="Helvetica,sans-Serif" font-size="10.00">+</text>
<text xml:space="preserve" text-anchor="start" x="55.62" y="-57.5" font-family="Helvetica,sans-Serif" font-size="10.00">get_return_object()</text>
<text xml:space="preserve" text-anchor="start" x="43.38" y="-40.75" font-family="Helvetica,sans-Serif" font-size="10.00">+</text>
<text xml:space="preserve" text-anchor="start" x="55.62" y="-40.75" font-family="Helvetica,sans-Serif" font-size="10.00">final_suspend()</text>
<text xml:space="preserve" text-anchor="start" x="43.38" y="-24" font-family="Helvetica,sans-Serif" font-size="10.00">+</text>
<text xml:space="preserve" text-anchor="start" x="55.62" y="-24" font-family="Helvetica,sans-Serif" font-size="10.00">return_value()</text>
<text xml:space="preserve" text-anchor="start" x="43.38" y="-7.25" font-family="Helvetica,sans-Serif" font-size="10.00">+</text>
<text xml:space="preserve" text-anchor="start" x="55.62" y="-7.25" font-family="Helvetica,sans-Serif" font-size="10.00">get()</text>
<polygon fill="#666666" stroke="#666666" points="39.38,-85.75 39.38,-85.75 152.62,-85.75 152.62,-85.75 39.38,-85.75"/>
<polygon fill="#666666" stroke="#666666" points="39.38,-69 39.38,-69 152.62,-69 152.62,-69 39.38,-69"/>
<polygon fill="none" stroke="#666666" points="39.38,0 39.38,-117.25 152.62,-117.25 152.62,0 39.38,0"/>
</a>
</g>
</g>
<!-- Node2 -->
<g id="Node000002" class="node">
<title>Node2</title>
<g id="a_Node000002"><a xlink:href="../../d2/da2/classrm_1_1async_1_1BasicPromise.html" target="_top" xlink:title="协程承诺基类，管理协程的生命周期和异常处理">
<polygon fill="white" stroke="none" points="162,-225.25 30,-225.25 30,-154.25 162,-154.25 162,-225.25"/>
<text xml:space="preserve" text-anchor="start" x="36" y="-211.75" font-family="Helvetica,sans-Serif" font-size="10.00">rm::async::BasicPromise</text>
<text xml:space="preserve" text-anchor="start" x="94.5" y="-195" font-family="Helvetica,sans-Serif" font-size="10.00"> </text>
<text xml:space="preserve" text-anchor="start" x="34" y="-178.25" font-family="Helvetica,sans-Serif" font-size="10.00">+</text>
<text xml:space="preserve" text-anchor="start" x="46.25" y="-178.25" font-family="Helvetica,sans-Serif" font-size="10.00">initial_suspend()</text>
<text xml:space="preserve" text-anchor="start" x="34" y="-161.5" font-family="Helvetica,sans-Serif" font-size="10.00">+</text>
<text xml:space="preserve" text-anchor="start" x="46.25" y="-161.5" font-family="Helvetica,sans-Serif" font-size="10.00">unhandled_exception()</text>
<polygon fill="#666666" stroke="#666666" points="30,-206.5 30,-206.5 162,-206.5 162,-206.5 30,-206.5"/>
<polygon fill="#666666" stroke="#666666" points="30,-189.75 30,-189.75 162,-189.75 162,-189.75 30,-189.75"/>
<polygon fill="none" stroke="#666666" points="30,-154.25 30,-225.25 162,-225.25 162,-154.25 30,-154.25"/>
</a>
</g>
</g>
<!-- Node2&#45;&gt;Node1 -->
<g id="edge1_Node000001_Node000002" class="edge">
<title>Node2&#45;&gt;Node1</title>
<g id="a_edge1_Node000001_Node000002"><a xlink:title=" ">
<path fill="none" stroke="#63b8ff" d="M96,-142.99C96,-134.58 96,-125.72 96,-117.03"/>
<polygon fill="none" stroke="#63b8ff" points="92.5,-142.97 96,-152.97 99.5,-142.97 92.5,-142.97"/>
</a>
</g>
</g>
<!-- Node3 -->
<g id="Node000003" class="node">
<title>Node3</title>
<g id="a_Node000003"><a xlink:title=" ">
<polygon fill="white" stroke="none" points="92,-334.25 0,-334.25 0,-280 92,-280 92,-334.25"/>
<text xml:space="preserve" text-anchor="start" x="4" y="-320.75" font-family="Helvetica,sans-Serif" font-size="10.00">coroutine_handle</text>
<text xml:space="preserve" text-anchor="start" x="44.5" y="-304" font-family="Helvetica,sans-Serif" font-size="10.00"> </text>
<text xml:space="preserve" text-anchor="start" x="44.5" y="-287.25" font-family="Helvetica,sans-Serif" font-size="10.00"> </text>
<polygon fill="#666666" stroke="#666666" points="0,-315.5 0,-315.5 92,-315.5 92,-315.5 0,-315.5"/>
<polygon fill="#666666" stroke="#666666" points="0,-298.75 0,-298.75 92,-298.75 92,-298.75 0,-298.75"/>
<polygon fill="none" stroke="#666666" points="0,-280 0,-334.25 92,-334.25 92,-280 0,-280"/>
</a>
</g>
</g>
<!-- Node3&#45;&gt;Node2 -->
<g id="edge2_Node000002_Node000003" class="edge">
<title>Node3&#45;&gt;Node2</title>
<g id="a_edge2_Node000002_Node000003"><a xlink:title=" ">
<path fill="none" stroke="#63b8ff" d="M54.54,-280.13C58.53,-268.68 63.53,-255.16 68.75,-243.25 69.68,-241.12 70.66,-238.96 71.68,-236.78"/>
<polygon fill="none" stroke="#63b8ff" points="71.68,-236.78 70.7,-229.63 76.92,-225.98 77.9,-233.13 71.68,-236.78"/>
</a>
</g>
<text xml:space="preserve" text-anchor="start" x="71.75" y="-249.5" font-family="Helvetica,sans-Serif" font-size="10.00" fill="grey">+previous</text>
</g>
<!-- Node4 -->
<g id="Node000004" class="node">
<title>Node4</title>
<g id="a_Node000004"><a xlink:title=" ">
<polygon fill="white" stroke="none" points="184.38,-334.25 109.62,-334.25 109.62,-280 184.38,-280 184.38,-334.25"/>
<text xml:space="preserve" text-anchor="start" x="113.62" y="-320.75" font-family="Helvetica,sans-Serif" font-size="10.00">exception_ptr</text>
<text xml:space="preserve" text-anchor="start" x="145.5" y="-304" font-family="Helvetica,sans-Serif" font-size="10.00"> </text>
<text xml:space="preserve" text-anchor="start" x="145.5" y="-287.25" font-family="Helvetica,sans-Serif" font-size="10.00"> </text>
<polygon fill="#666666" stroke="#666666" points="109.62,-315.5 109.62,-315.5 184.38,-315.5 184.38,-315.5 109.62,-315.5"/>
<polygon fill="#666666" stroke="#666666" points="109.62,-298.75 109.62,-298.75 184.38,-298.75 184.38,-298.75 109.62,-298.75"/>
<polygon fill="none" stroke="#666666" points="109.62,-280 109.62,-334.25 184.38,-334.25 184.38,-280 109.62,-280"/>
</a>
</g>
</g>
<!-- Node4&#45;&gt;Node2 -->
<g id="edge3_Node000002_Node000004" class="edge">
<title>Node4&#45;&gt;Node2</title>
<g id="a_edge3_Node000002_Node000004"><a xlink:title=" ">
<path fill="none" stroke="#63b8ff" d="M138.97,-280.05C135.16,-268.59 130.29,-255.07 125,-243.25 124,-241 122.93,-238.73 121.82,-236.44"/>
<polygon fill="none" stroke="#63b8ff" points="121.88,-236.56 115.6,-233.03 116.44,-225.87 122.72,-229.4 121.88,-236.56"/>
</a>
</g>
<text xml:space="preserve" text-anchor="start" x="135.58" y="-249.5" font-family="Helvetica,sans-Serif" font-size="10.00" fill="grey">#_exception</text>
</g>
</g>
</svg>
</svg>

<style type='text/css'>
<![CDATA[
[data-mouse-over-selected='false'] { opacity: 0.7; }
[data-mouse-over-selected='true']  { opacity: 1.0; }
]]>
</style>
<script type="application/ecmascript"><![CDATA[
document.addEventListener('DOMContentLoaded', (event) => {
  highlightEdges();
  highlightAdjacentNodes();
});
]]></script>
</svg>
