<?xml version="1.0" encoding="UTF-8" standalone="no"?>
<!DOCTYPE svg PUBLIC "-//W3C//DTD SVG 1.1//EN"
 "http://www.w3.org/Graphics/SVG/1.1/DTD/svg11.dtd">
<!-- Generated by graphviz version 2.43.0 (0)
 -->
<!-- Title: rm::para::RuneParam Pages: 1 -->
<svg width="186pt" height="248pt"
 viewBox="0.00 0.00 185.50 248.00" xmlns="http://www.w3.org/2000/svg" xmlns:xlink="http://www.w3.org/1999/xlink">
<g id="graph0" class="graph" transform="scale(1 1) rotate(0) translate(4 244)">
<title>rm::para::RuneParam</title>
<polygon fill="white" stroke="transparent" points="-4,4 -4,-244 181.5,-244 181.5,4 -4,4"/>
<!-- Node1 -->
<g id="node1" class="node">
<title>Node1</title>
<g id="a_node1"><a xlink:title="RuneParam 参数模块">
<polygon fill="#bfbfbf" stroke="black" points="0,-0.5 0,-57.5 119,-57.5 119,-0.5 0,-0.5"/>
<text text-anchor="middle" x="59.5" y="-45.5" font-family="Helvetica,sans-Serif" font-size="10.00">rm::para::RuneParam</text>
<polyline fill="none" stroke="black" points="0,-38.5 119,-38.5 "/>
<text text-anchor="middle" x="59.5" y="-26.5" font-family="Helvetica,sans-Serif" font-size="10.00"> </text>
<polyline fill="none" stroke="black" points="0,-19.5 119,-19.5 "/>
<text text-anchor="start" x="8" y="-7.5" font-family="Helvetica,sans-Serif" font-size="10.00">+ load()</text>
</a>
</g>
</g>
<!-- Node2 -->
<g id="node2" class="node">
<title>Node2</title>
<g id="a_node2"><a xlink:title=" ">
<polygon fill="white" stroke="#bfbfbf" points="40.5,-182.5 40.5,-239.5 78.5,-239.5 78.5,-182.5 40.5,-182.5"/>
<text text-anchor="middle" x="59.5" y="-227.5" font-family="Helvetica,sans-Serif" font-size="10.00">float</text>
<polyline fill="none" stroke="#bfbfbf" points="40.5,-220.5 78.5,-220.5 "/>
<text text-anchor="middle" x="59.5" y="-208.5" font-family="Helvetica,sans-Serif" font-size="10.00"> </text>
<polyline fill="none" stroke="#bfbfbf" points="40.5,-201.5 78.5,-201.5 "/>
<text text-anchor="middle" x="59.5" y="-189.5" font-family="Helvetica,sans-Serif" font-size="10.00"> </text>
</a>
</g>
</g>
<!-- Node2&#45;&gt;Node1 -->
<g id="edge1" class="edge">
<title>Node2&#45;&gt;Node1</title>
<path fill="none" stroke="#404040" d="M59.5,-182.27C59.5,-152.28 59.5,-104.18 59.5,-70.08"/>
<polygon fill="none" stroke="#404040" points="59.5,-69.76 55.5,-63.76 59.5,-57.76 63.5,-63.76 59.5,-69.76"/>
<text text-anchor="middle" x="118.5" y="-156" font-family="Helvetica,sans-Serif" font-size="10.00"> +BEST_RADIUS_RATIO</text>
<text text-anchor="middle" x="118.5" y="-145" font-family="Helvetica,sans-Serif" font-size="10.00">+COEFF_K</text>
<text text-anchor="middle" x="118.5" y="-134" font-family="Helvetica,sans-Serif" font-size="10.00">+MAX_AREA_RATIO</text>
<text text-anchor="middle" x="118.5" y="-123" font-family="Helvetica,sans-Serif" font-size="10.00">+MAX_MID_LINE_RATIO</text>
<text text-anchor="middle" x="118.5" y="-112" font-family="Helvetica,sans-Serif" font-size="10.00">+MAX_RADIUS_RATIO</text>
<text text-anchor="middle" x="118.5" y="-101" font-family="Helvetica,sans-Serif" font-size="10.00">+MIN_AREA_RATIO</text>
<text text-anchor="middle" x="118.5" y="-90" font-family="Helvetica,sans-Serif" font-size="10.00">+MIN_RADIUS_RATIO</text>
<text text-anchor="middle" x="118.5" y="-79" font-family="Helvetica,sans-Serif" font-size="10.00">+RUNE_DISTANCE</text>
</g>
</g>
</svg>
