<?xml version="1.0" encoding="UTF-8" standalone="no"?>
<!DOCTYPE svg PUBLIC "-//W3C//DTD SVG 1.1//EN"
 "http://www.w3.org/Graphics/SVG/1.1/DTD/svg11.dtd">
<!-- Generated by graphviz version 2.43.0 (0)
 -->
<!-- Title: rm::para::MvCameraParam Pages: 1 -->
<svg width="408pt" height="488pt"
 viewBox="0.00 0.00 408.00 488.00" xmlns="http://www.w3.org/2000/svg" xmlns:xlink="http://www.w3.org/1999/xlink">
<g id="graph0" class="graph" transform="scale(1 1) rotate(0) translate(4 484)">
<title>rm::para::MvCameraParam</title>
<!-- Node1 -->
<g id="Node000001" class="node">
<title>Node1</title>
<g id="a_Node000001"><a xlink:title="MvCameraParam 参数模块">
<polygon fill="#999999" stroke="transparent" points="211,-109 69,-109 69,0 211,0 211,-109"/>
<text text-anchor="start" x="74" y="-96.5" font-family="Helvetica,sans-Serif" font-size="10.00">rm::para::MvCameraParam</text>
<text text-anchor="start" x="80" y="-81.5" font-family="Helvetica,sans-Serif" font-size="10.00">+</text>
<text text-anchor="start" x="100" y="-81.5" font-family="Helvetica,sans-Serif" font-size="10.00">saturation</text>
<text text-anchor="start" x="80" y="-66.5" font-family="Helvetica,sans-Serif" font-size="10.00">+</text>
<text text-anchor="start" x="100" y="-66.5" font-family="Helvetica,sans-Serif" font-size="10.00">sharpness</text>
<text text-anchor="start" x="80" y="-51.5" font-family="Helvetica,sans-Serif" font-size="10.00">+</text>
<text text-anchor="start" x="100" y="-51.5" font-family="Helvetica,sans-Serif" font-size="10.00">MvCameraParam()</text>
<text text-anchor="start" x="80" y="-36.5" font-family="Helvetica,sans-Serif" font-size="10.00">+</text>
<text text-anchor="start" x="100" y="-36.5" font-family="Helvetica,sans-Serif" font-size="10.00">read()</text>
<text text-anchor="start" x="80" y="-21.5" font-family="Helvetica,sans-Serif" font-size="10.00">+</text>
<text text-anchor="start" x="100" y="-21.5" font-family="Helvetica,sans-Serif" font-size="10.00">write()</text>
<text text-anchor="start" x="80" y="-6.5" font-family="Helvetica,sans-Serif" font-size="10.00">+</text>
<text text-anchor="start" x="100" y="-6.5" font-family="Helvetica,sans-Serif" font-size="10.00">load()</text>
<polygon fill="#666666" stroke="#666666" points="69,-91.5 69,-91.5 211,-91.5 211,-91.5 69,-91.5"/>
<polygon fill="#666666" stroke="#666666" points="69,-61.5 69,-61.5 98,-61.5 98,-61.5 69,-61.5"/>
<polygon fill="#666666" stroke="#666666" points="98,-61.5 98,-61.5 211,-61.5 211,-61.5 98,-61.5"/>
<polygon fill="none" stroke="#666666" points="69,0 69,-109 211,-109 211,0 69,0"/>
</a>
</g>
</g>
<!-- Node2 -->
<g id="Node000002" class="node">
<title>Node2</title>
<g id="a_Node000002"><a xlink:title=" ">
<polygon fill="white" stroke="transparent" points="44,-241 0,-241 0,-192 44,-192 44,-241"/>
<text text-anchor="start" x="5" y="-228.5" font-family="Helvetica,sans-Serif" font-size="10.00">double</text>
<text text-anchor="start" x="20" y="-213.5" font-family="Helvetica,sans-Serif" font-size="10.00"> </text>
<text text-anchor="start" x="20" y="-198.5" font-family="Helvetica,sans-Serif" font-size="10.00"> </text>
<polygon fill="#666666" stroke="#666666" points="0,-223.5 0,-223.5 44,-223.5 44,-223.5 0,-223.5"/>
<polygon fill="#666666" stroke="#666666" points="0,-208.5 0,-208.5 44,-208.5 44,-208.5 0,-208.5"/>
<polygon fill="none" stroke="#666666" points="0,-192 0,-241 44,-241 44,-192 0,-192"/>
</a>
</g>
</g>
<!-- Node2&#45;&gt;Node1 -->
<g id="edge1_Node000001_Node000002" class="edge">
<title>Node2&#45;&gt;Node1</title>
<g id="a_edge1_Node000001_Node000002"><a xlink:title=" ">
<path fill="none" stroke="#63b8ff" d="M16.32,-191.71C13.17,-172.9 11.84,-146.64 23,-127 31.42,-112.18 44.29,-100.05 58.46,-90.28"/>
<polygon fill="none" stroke="#63b8ff" points="58.84,-90.03 61.75,-83.43 68.95,-83.57 66.05,-90.17 58.84,-90.03"/>
</a>
</g>
<text text-anchor="middle" x="51.5" y="-130" font-family="Helvetica,sans-Serif" font-size="10.00" fill="grey"> +exposure</text>
</g>
<!-- Node3 -->
<g id="Node000003" class="node">
<title>Node3</title>
<g id="a_Node000003"><a xlink:title=" ">
<polygon fill="white" stroke="transparent" points="142.5,-378.5 119.5,-378.5 119.5,-329.5 142.5,-329.5 142.5,-378.5"/>
<text text-anchor="start" x="125" y="-366" font-family="Helvetica,sans-Serif" font-size="10.00">int</text>
<text text-anchor="start" x="129.5" y="-351" font-family="Helvetica,sans-Serif" font-size="10.00"> </text>
<text text-anchor="start" x="129.5" y="-336" font-family="Helvetica,sans-Serif" font-size="10.00"> </text>
<polygon fill="#666666" stroke="#666666" points="120,-361 120,-361 143,-361 143,-361 120,-361"/>
<polygon fill="#666666" stroke="#666666" points="120,-346 120,-346 143,-346 143,-346 120,-346"/>
<polygon fill="none" stroke="#666666" points="119.5,-329.5 119.5,-378.5 142.5,-378.5 142.5,-329.5 119.5,-329.5"/>
</a>
</g>
</g>
<!-- Node3&#45;&gt;Node1 -->
<g id="edge2_Node000001_Node000003" class="edge">
<title>Node3&#45;&gt;Node1</title>
<g id="a_edge2_Node000001_Node000003"><a xlink:title=" ">
<path fill="none" stroke="#63b8ff" d="M119.81,-329.31C113.49,-314.61 106.23,-295.13 103,-277 93.56,-224.06 93.56,-208.94 103,-156 105.09,-144.26 108.46,-132.1 112.33,-120.46"/>
<polygon fill="none" stroke="#63b8ff" points="112.36,-120.35 110.58,-113.37 116.34,-109.03 118.12,-116.02 112.36,-120.35"/>
</a>
</g>
<text text-anchor="middle" x="145" y="-269" font-family="Helvetica,sans-Serif" font-size="10.00" fill="grey"> +auto_exposure</text>
<text text-anchor="middle" x="145" y="-258" font-family="Helvetica,sans-Serif" font-size="10.00" fill="grey">+auto_wb</text>
<text text-anchor="middle" x="145" y="-247" font-family="Helvetica,sans-Serif" font-size="10.00" fill="grey">+b_gain</text>
<text text-anchor="middle" x="145" y="-236" font-family="Helvetica,sans-Serif" font-size="10.00" fill="grey">+contrast</text>
<text text-anchor="middle" x="145" y="-225" font-family="Helvetica,sans-Serif" font-size="10.00" fill="grey">+g_gain</text>
<text text-anchor="middle" x="145" y="-214" font-family="Helvetica,sans-Serif" font-size="10.00" fill="grey">+gain</text>
<text text-anchor="middle" x="145" y="-203" font-family="Helvetica,sans-Serif" font-size="10.00" fill="grey">+gamma</text>
<text text-anchor="middle" x="145" y="-192" font-family="Helvetica,sans-Serif" font-size="10.00" fill="grey">+grab_mode</text>
<text text-anchor="middle" x="145" y="-181" font-family="Helvetica,sans-Serif" font-size="10.00" fill="grey">+r_gain</text>
<text text-anchor="middle" x="145" y="-170" font-family="Helvetica,sans-Serif" font-size="10.00" fill="grey">+retrieve_mode</text>
<text text-anchor="middle" x="145" y="-159" font-family="Helvetica,sans-Serif" font-size="10.00" fill="grey">...</text>
</g>
<!-- Node4 -->
<g id="Node000004" class="node">
<title>Node4</title>
<g id="a_Node000004"><a xlink:title=" ">
<polygon fill="white" stroke="transparent" points="294,-241 196,-241 196,-192 294,-192 294,-241"/>
<text text-anchor="start" x="201" y="-228.5" font-family="Helvetica,sans-Serif" font-size="10.00">std::vector&lt; int &gt;</text>
<text text-anchor="start" x="243" y="-213.5" font-family="Helvetica,sans-Serif" font-size="10.00"> </text>
<text text-anchor="start" x="243" y="-198.5" font-family="Helvetica,sans-Serif" font-size="10.00"> </text>
<polygon fill="#666666" stroke="#666666" points="196,-223.5 196,-223.5 294,-223.5 294,-223.5 196,-223.5"/>
<polygon fill="#666666" stroke="#666666" points="196,-208.5 196,-208.5 294,-208.5 294,-208.5 196,-208.5"/>
<polygon fill="none" stroke="#666666" points="196,-192 196,-241 294,-241 294,-192 196,-192"/>
</a>
</g>
</g>
<!-- Node3&#45;&gt;Node4 -->
<g id="edge4_Node000004_Node000003" class="edge">
<title>Node3&#45;&gt;Node4</title>
<g id="a_edge4_Node000004_Node000003"><a xlink:title=" ">
<path fill="none" stroke="#63b8ff" d="M142.78,-338.65C152.46,-326.89 166.56,-309.82 179,-295 191.25,-280.41 204.89,-264.36 216.58,-250.67"/>
<polygon fill="none" stroke="#63b8ff" points="216.9,-250.29 217.75,-243.13 224.69,-241.17 223.84,-248.33 216.9,-250.29"/>
</a>
</g>
<text text-anchor="middle" x="208" y="-298" font-family="Helvetica,sans-Serif" font-size="10.00" fill="grey"> +elements</text>
</g>
<!-- Node4&#45;&gt;Node1 -->
<g id="edge3_Node000001_Node000004" class="edge">
<title>Node4&#45;&gt;Node1</title>
<g id="a_edge3_Node000001_Node000004"><a xlink:title=" ">
<path fill="none" stroke="#63b8ff" d="M229.51,-191.89C216.92,-172.71 198.55,-144.72 181.72,-119.08"/>
<polygon fill="none" stroke="#63b8ff" points="181.71,-119.05 175.07,-116.23 175.12,-109.02 181.76,-111.84 181.71,-119.05"/>
</a>
</g>
<text text-anchor="middle" x="216.5" y="-130" font-family="Helvetica,sans-Serif" font-size="10.00" fill="grey"> +lut_vec</text>
</g>
<!-- Node5 -->
<g id="Node000005" class="node">
<title>Node5</title>
<g id="a_Node000005"><a xlink:title=" ">
<polygon fill="white" stroke="transparent" points="283.5,-378.5 192.5,-378.5 192.5,-329.5 283.5,-329.5 283.5,-378.5"/>
<text text-anchor="start" x="198" y="-366" font-family="Helvetica,sans-Serif" font-size="10.00">std::vector&lt; T &gt;</text>
<text text-anchor="start" x="236.5" y="-351" font-family="Helvetica,sans-Serif" font-size="10.00"> </text>
<text text-anchor="start" x="236.5" y="-336" font-family="Helvetica,sans-Serif" font-size="10.00"> </text>
<polygon fill="#666666" stroke="#666666" points="193,-361 193,-361 284,-361 284,-361 193,-361"/>
<polygon fill="#666666" stroke="#666666" points="193,-346 193,-346 284,-346 284,-346 193,-346"/>
<polygon fill="none" stroke="#666666" points="192.5,-329.5 192.5,-378.5 283.5,-378.5 283.5,-329.5 192.5,-329.5"/>
</a>
</g>
</g>
<!-- Node5&#45;&gt;Node4 -->
<g id="edge5_Node000004_Node000005" class="edge">
<title>Node5&#45;&gt;Node4</title>
<g id="a_edge5_Node000004_Node000005"><a xlink:title=" ">
<path fill="none" stroke="orange" d="M239.75,-319.21C241,-294.96 242.66,-262.88 243.77,-241.29"/>
<polygon fill="orange" stroke="orange" points="236.24,-319.23 239.22,-329.4 243.23,-319.59 236.24,-319.23"/>
</a>
</g>
<text text-anchor="middle" x="260.5" y="-298" font-family="Helvetica,sans-Serif" font-size="10.00" fill="grey"> &lt; int &gt;</text>
</g>
<!-- Node6 -->
<g id="Node000006" class="node">
<title>Node6</title>
<g id="a_Node000006"><a xlink:title=" ">
<polygon fill="white" stroke="transparent" points="246.5,-480 229.5,-480 229.5,-431 246.5,-431 246.5,-480"/>
<text text-anchor="start" x="235" y="-467.5" font-family="Helvetica,sans-Serif" font-size="10.00">T</text>
<text text-anchor="start" x="236.5" y="-452.5" font-family="Helvetica,sans-Serif" font-size="10.00"> </text>
<text text-anchor="start" x="236.5" y="-437.5" font-family="Helvetica,sans-Serif" font-size="10.00"> </text>
<polygon fill="#666666" stroke="#666666" points="230,-462.5 230,-462.5 247,-462.5 247,-462.5 230,-462.5"/>
<polygon fill="#666666" stroke="#666666" points="230,-447.5 230,-447.5 247,-447.5 247,-447.5 230,-447.5"/>
<polygon fill="none" stroke="#666666" points="229.5,-431 229.5,-480 246.5,-480 246.5,-431 229.5,-431"/>
</a>
</g>
</g>
<!-- Node6&#45;&gt;Node5 -->
<g id="edge6_Node000005_Node000006" class="edge">
<title>Node6&#45;&gt;Node5</title>
<g id="a_edge6_Node000005_Node000006"><a xlink:title=" ">
<path fill="none" stroke="#63b8ff" d="M238,-430.92C238,-418.99 238,-404.25 238,-390.94"/>
<polygon fill="none" stroke="#63b8ff" points="238,-390.76 234,-384.76 238,-378.76 242,-384.76 238,-390.76"/>
</a>
</g>
<text text-anchor="middle" x="267" y="-405" font-family="Helvetica,sans-Serif" font-size="10.00" fill="grey"> +elements</text>
</g>
<!-- Node7 -->
<g id="Node000007" class="node">
<title>Node7</title>
<g id="a_Node000007"><a xlink:title=" ">
<polygon fill="white" stroke="transparent" points="376.5,-241 317.5,-241 317.5,-192 376.5,-192 376.5,-241"/>
<text text-anchor="start" x="323" y="-228.5" font-family="Helvetica,sans-Serif" font-size="10.00">std::string</text>
<text text-anchor="start" x="345.5" y="-213.5" font-family="Helvetica,sans-Serif" font-size="10.00"> </text>
<text text-anchor="start" x="345.5" y="-198.5" font-family="Helvetica,sans-Serif" font-size="10.00"> </text>
<polygon fill="#666666" stroke="#666666" points="318,-223.5 318,-223.5 377,-223.5 377,-223.5 318,-223.5"/>
<polygon fill="#666666" stroke="#666666" points="318,-208.5 318,-208.5 377,-208.5 377,-208.5 318,-208.5"/>
<polygon fill="none" stroke="#666666" points="317.5,-192 317.5,-241 376.5,-241 376.5,-192 317.5,-192"/>
</a>
</g>
</g>
<!-- Node7&#45;&gt;Node1 -->
<g id="edge7_Node000001_Node000007" class="edge">
<title>Node7&#45;&gt;Node1</title>
<g id="a_edge7_Node000001_Node000007"><a xlink:title=" ">
<path fill="none" stroke="#63b8ff" d="M332.55,-191.8C324.73,-180.16 314.35,-166.43 303,-156 278.8,-133.76 248.98,-113.7 221.49,-97.47"/>
<polygon fill="none" stroke="#63b8ff" points="221.47,-97.46 214.27,-97.91 211.09,-91.44 218.28,-90.99 221.47,-97.46"/>
</a>
</g>
<text text-anchor="middle" x="321" y="-130" font-family="Helvetica,sans-Serif" font-size="10.00" fill="grey"> +serial_number</text>
</g>
<!-- Node8 -->
<g id="Node000008" class="node">
<title>Node8</title>
<g id="a_Node000008"><a xlink:title=" ">
<polygon fill="white" stroke="transparent" points="400,-384 302,-384 302,-324 400,-324 400,-384"/>
<text text-anchor="start" x="307" y="-372" font-family="Helvetica,sans-Serif" font-size="10.00">std::basic_string&lt;</text>
<text text-anchor="start" x="332.5" y="-361" font-family="Helvetica,sans-Serif" font-size="10.00"> Char &gt;</text>
<text text-anchor="start" x="349" y="-346" font-family="Helvetica,sans-Serif" font-size="10.00"> </text>
<text text-anchor="start" x="349" y="-331" font-family="Helvetica,sans-Serif" font-size="10.00"> </text>
<polygon fill="#666666" stroke="#666666" points="302,-356 302,-356 400,-356 400,-356 302,-356"/>
<polygon fill="#666666" stroke="#666666" points="302,-341 302,-341 400,-341 400,-341 302,-341"/>
<polygon fill="none" stroke="#666666" points="302,-324 302,-384 400,-384 400,-324 302,-324"/>
</a>
</g>
</g>
<!-- Node8&#45;&gt;Node7 -->
<g id="edge8_Node000007_Node000008" class="edge">
<title>Node8&#45;&gt;Node7</title>
<g id="a_edge8_Node000007_Node000008"><a xlink:title=" ">
<path fill="none" stroke="#63b8ff" d="M349.85,-313.9C349.15,-290.36 348.29,-261.17 347.7,-241.11"/>
<polygon fill="none" stroke="#63b8ff" points="346.35,-314.04 350.14,-323.93 353.35,-313.83 346.35,-314.04"/>
</a>
</g>
</g>
</g>
</svg>
