<?xml version="1.0" encoding="UTF-8" standalone="no"?>
<!DOCTYPE svg PUBLIC "-//W3C//DTD SVG 1.1//EN"
 "http://www.w3.org/Graphics/SVG/1.1/DTD/svg11.dtd">
<!-- Generated by graphviz version 2.43.0 (0)
 -->
<!-- Title: rm::GyroTracker Pages: 1 -->
<!--zoomable 1067 -->

<svg id="main" version="1.1" xmlns="http://www.w3.org/2000/svg" xmlns:xlink="http://www.w3.org/1999/xlink" xml:space="preserve" onload="init(evt)">

<style type="text/css"><![CDATA[
.node, .edge {opacity: 0.7;}
.node.selected, .edge.selected {opacity: 1;}
.edge:hover path { stroke: red; }
.edge:hover polygon { stroke: red; fill: red; }
]]></style>

<defs>
  <circle id="rim" cx="0" cy="0" r="7"/>
  <circle id="rim2" cx="0" cy="0" r="3.5"/>
  <g id="zoomPlus">
    <use xlink:href="#rim" fill="#404040"><set attributeName="fill" to="#808080" begin="zoomplus.mouseover" end="zoomplus.mouseout"/></use>
    <path d="M-4,0h8M0,-4v8" fill="none" stroke="white" stroke-width="1.5" pointer-events="none"/>
  </g>
  <g id="zoomMin">
    <use xlink:href="#rim" fill="#404040"><set attributeName="fill" to="#808080" begin="zoomminus.mouseover" end="zoomminus.mouseout"/></use>
    <path d="M-4,0h8" fill="none" stroke="white" stroke-width="1.5" pointer-events="none"/>
  </g>
  <g id="arrowUp" transform="translate(30 24)">
    <use xlink:href="#rim"/>
    <path pointer-events="none" fill="none" stroke="white" stroke-width="1.5" d="M0,-3.0v7 M-2.5,-0.5L0,-3.0L2.5,-0.5"/>
  </g>
  <g id="arrowRight" transform="rotate(90) translate(36 -43)">
    <use xlink:href="#rim"/>
    <path pointer-events="none" fill="none" stroke="white" stroke-width="1.5" d="M0,-3.0v7 M-2.5,-0.5L0,-3.0L2.5,-0.5"/>
  </g>
  <g id="arrowDown" transform="rotate(180) translate(-30 -48)">
    <use xlink:href="#rim"/>
    <path pointer-events="none" fill="none" stroke="white" stroke-width="1.5" d="M0,-3.0v7 M-2.5,-0.5L0,-3.0L2.5,-0.5"/>
  </g>
  <g id="arrowLeft" transform="rotate(270) translate(-36 17)">
    <use xlink:href="#rim"/>
    <path pointer-events="none" fill="none" stroke="white" stroke-width="1.5" d="M0,-3.0v7 M-2.5,-0.5L0,-3.0L2.5,-0.5"/>
  </g>
  <g id="resetDef">
    <use xlink:href="#rim2" fill="#404040"><set attributeName="fill" to="#808080" begin="reset.mouseover" end="reset.mouseout"/></use>
  </g>
</defs>
<script type="application/ecmascript">
var viewWidth = 855;
var viewHeight = 1067;
var sectionId = 'dynsection-1';
</script>
<script type="application/ecmascript" xlink:href="../../svg.min.js"/>
<svg id="graph" class="graph">
<g id="viewport">
<title>rm::GyroTracker</title>
<!-- Node1 -->
<g id="Node000001" class="node">
<title>Node1</title>
<g id="a_Node000001"><a xlink:title="整车状态追踪器">
<polygon fill="#999999" stroke="transparent" points="582,-184 461,-184 461,0 582,0 582,-184"/>
<text text-anchor="start" x="483" y="-172" font-family="Helvetica,sans-Serif" font-size="10.00">rm::GyroTracker</text>
<text text-anchor="start" x="520" y="-157" font-family="Helvetica,sans-Serif" font-size="10.00"> </text>
<text text-anchor="start" x="465.5" y="-142" font-family="Helvetica,sans-Serif" font-size="10.00">+</text>
<text text-anchor="start" x="478.5" y="-142" font-family="Helvetica,sans-Serif" font-size="10.00">clone()</text>
<text text-anchor="start" x="465.5" y="-127" font-family="Helvetica,sans-Serif" font-size="10.00">+</text>
<text text-anchor="start" x="478.5" y="-127" font-family="Helvetica,sans-Serif" font-size="10.00">update()</text>
<text text-anchor="start" x="465.5" y="-112" font-family="Helvetica,sans-Serif" font-size="10.00">+</text>
<text text-anchor="start" x="478.5" y="-112" font-family="Helvetica,sans-Serif" font-size="10.00">update()</text>
<text text-anchor="start" x="465.5" y="-97" font-family="Helvetica,sans-Serif" font-size="10.00">+</text>
<text text-anchor="start" x="478.5" y="-97" font-family="Helvetica,sans-Serif" font-size="10.00">updateVanishState()</text>
<text text-anchor="start" x="465.5" y="-82" font-family="Helvetica,sans-Serif" font-size="10.00">+</text>
<text text-anchor="start" x="478.5" y="-82" font-family="Helvetica,sans-Serif" font-size="10.00">getDuration()</text>
<text text-anchor="start" x="465.5" y="-67" font-family="Helvetica,sans-Serif" font-size="10.00">+</text>
<text text-anchor="start" x="478.5" y="-67" font-family="Helvetica,sans-Serif" font-size="10.00">getPose()</text>
<text text-anchor="start" x="465.5" y="-52" font-family="Helvetica,sans-Serif" font-size="10.00">+</text>
<text text-anchor="start" x="478.5" y="-52" font-family="Helvetica,sans-Serif" font-size="10.00">getRotatedSpeed()</text>
<text text-anchor="start" x="465.5" y="-37" font-family="Helvetica,sans-Serif" font-size="10.00">+</text>
<text text-anchor="start" x="478.5" y="-37" font-family="Helvetica,sans-Serif" font-size="10.00">make_tracker()</text>
<text text-anchor="start" x="465.5" y="-22" font-family="Helvetica,sans-Serif" font-size="10.00">+</text>
<text text-anchor="start" x="478.5" y="-22" font-family="Helvetica,sans-Serif" font-size="10.00">cast()</text>
<text text-anchor="start" x="465.5" y="-7" font-family="Helvetica,sans-Serif" font-size="10.00">+</text>
<text text-anchor="start" x="478.5" y="-7" font-family="Helvetica,sans-Serif" font-size="10.00">cast()</text>
<polygon fill="#666666" stroke="#666666" points="461.5,-167 461.5,-167 582.5,-167 582.5,-167 461.5,-167"/>
<polygon fill="#666666" stroke="#666666" points="461.5,-152 461.5,-152 582.5,-152 582.5,-152 461.5,-152"/>
<polygon fill="none" stroke="#666666" points="461,0 461,-184 582,-184 582,0 461,0"/>
</a>
</g>
</g>
<!-- Node2 -->
<g id="Node000002" class="node">
<title>Node2</title>
<g id="a_Node000002"><a xlink:href="../../d6/dd2/classrm_1_1tracker.html" target="_top" xlink:title="组合体时间序列">
<polygon fill="white" stroke="transparent" points="579.5,-420 463.5,-420 463.5,-221 579.5,-221 579.5,-420"/>
<text text-anchor="start" x="494.5" y="-407.5" font-family="Helvetica,sans-Serif" font-size="10.00">rm::tracker</text>
<text text-anchor="start" x="519.5" y="-392.5" font-family="Helvetica,sans-Serif" font-size="10.00"> </text>
<text text-anchor="start" x="467.5" y="-377.5" font-family="Helvetica,sans-Serif" font-size="10.00">+</text>
<text text-anchor="start" x="480.5" y="-377.5" font-family="Helvetica,sans-Serif" font-size="10.00">clone()</text>
<text text-anchor="start" x="467.5" y="-362.5" font-family="Helvetica,sans-Serif" font-size="10.00">+</text>
<text text-anchor="start" x="480.5" y="-362.5" font-family="Helvetica,sans-Serif" font-size="10.00">update()</text>
<text text-anchor="start" x="467.5" y="-347.5" font-family="Helvetica,sans-Serif" font-size="10.00">+</text>
<text text-anchor="start" x="480.5" y="-347.5" font-family="Helvetica,sans-Serif" font-size="10.00">update()</text>
<text text-anchor="start" x="467.5" y="-332.5" font-family="Helvetica,sans-Serif" font-size="10.00">+</text>
<text text-anchor="start" x="480.5" y="-332.5" font-family="Helvetica,sans-Serif" font-size="10.00">invalid()</text>
<text text-anchor="start" x="467.5" y="-317.5" font-family="Helvetica,sans-Serif" font-size="10.00">+</text>
<text text-anchor="start" x="480.5" y="-317.5" font-family="Helvetica,sans-Serif" font-size="10.00">front()</text>
<text text-anchor="start" x="467.5" y="-302.5" font-family="Helvetica,sans-Serif" font-size="10.00">+</text>
<text text-anchor="start" x="480.5" y="-302.5" font-family="Helvetica,sans-Serif" font-size="10.00">back()</text>
<text text-anchor="start" x="467.5" y="-287.5" font-family="Helvetica,sans-Serif" font-size="10.00">+</text>
<text text-anchor="start" x="480.5" y="-287.5" font-family="Helvetica,sans-Serif" font-size="10.00">getVanishNumber()</text>
<text text-anchor="start" x="467.5" y="-272.5" font-family="Helvetica,sans-Serif" font-size="10.00">+</text>
<text text-anchor="start" x="480.5" y="-272.5" font-family="Helvetica,sans-Serif" font-size="10.00">size()</text>
<text text-anchor="start" x="467.5" y="-257.5" font-family="Helvetica,sans-Serif" font-size="10.00">+</text>
<text text-anchor="start" x="480.5" y="-257.5" font-family="Helvetica,sans-Serif" font-size="10.00">data()</text>
<text text-anchor="start" x="467.5" y="-242.5" font-family="Helvetica,sans-Serif" font-size="10.00">+</text>
<text text-anchor="start" x="480.5" y="-242.5" font-family="Helvetica,sans-Serif" font-size="10.00">empty()</text>
<text text-anchor="start" x="480.5" y="-227.5" font-family="Helvetica,sans-Serif" font-size="10.00">和 11 更多...</text>
<polygon fill="#666666" stroke="#666666" points="463.5,-402.5 463.5,-402.5 579.5,-402.5 579.5,-402.5 463.5,-402.5"/>
<polygon fill="#666666" stroke="#666666" points="463.5,-387.5 463.5,-387.5 579.5,-387.5 579.5,-387.5 463.5,-387.5"/>
<polygon fill="none" stroke="#666666" points="463.5,-221 463.5,-420 579.5,-420 579.5,-221 463.5,-221"/>
</a>
</g>
</g>
<!-- Node2&#45;&gt;Node1 -->
<g id="edge1_Node000001_Node000002" class="edge">
<title>Node2&#45;&gt;Node1</title>
<g id="a_edge1_Node000001_Node000002"><a xlink:title=" ">
<path fill="none" stroke="#63b8ff" d="M521.5,-210.8C521.5,-201.9 521.5,-192.97 521.5,-184.22"/>
<polygon fill="none" stroke="#63b8ff" points="518,-210.81 521.5,-220.81 525,-210.81 518,-210.81"/>
</a>
</g>
</g>
<!-- Node3 -->
<g id="Node000003" class="node">
<title>Node3</title>
<g id="a_Node000003"><a xlink:title=" ">
<polygon fill="white" stroke="transparent" points="218.5,-626 106.5,-626 106.5,-566 218.5,-566 218.5,-626"/>
<text text-anchor="start" x="111.5" y="-614" font-family="Helvetica,sans-Serif" font-size="10.00">std::deque&lt; combo::</text>
<text text-anchor="start" x="150" y="-603" font-family="Helvetica,sans-Serif" font-size="10.00">ptr &gt;</text>
<text text-anchor="start" x="160.5" y="-588" font-family="Helvetica,sans-Serif" font-size="10.00"> </text>
<text text-anchor="start" x="160.5" y="-573" font-family="Helvetica,sans-Serif" font-size="10.00"> </text>
<polygon fill="#666666" stroke="#666666" points="106.5,-598 106.5,-598 218.5,-598 218.5,-598 106.5,-598"/>
<polygon fill="#666666" stroke="#666666" points="106.5,-583 106.5,-583 218.5,-583 218.5,-583 106.5,-583"/>
<polygon fill="none" stroke="#666666" points="106.5,-566 106.5,-626 218.5,-626 218.5,-566 106.5,-566"/>
</a>
</g>
</g>
<!-- Node3&#45;&gt;Node2 -->
<g id="edge2_Node000002_Node000003" class="edge">
<title>Node3&#45;&gt;Node2</title>
<g id="a_edge2_Node000002_Node000003"><a xlink:title=" ">
<path fill="none" stroke="#63b8ff" d="M169.28,-565.99C178.78,-531.26 199.23,-473.36 236.5,-438 296.6,-380.97 388.41,-350.29 451.5,-334.96"/>
<polygon fill="none" stroke="#63b8ff" points="451.64,-334.93 456.56,-329.66 463.32,-332.18 458.39,-337.45 451.64,-334.93"/>
</a>
</g>
<text text-anchor="middle" x="279" y="-452" font-family="Helvetica,sans-Serif" font-size="10.00" fill="grey"> #_combo_deque</text>
</g>
<!-- Node4 -->
<g id="Node000004" class="node">
<title>Node4</title>
<g id="a_Node000004"><a xlink:title=" ">
<polygon fill="white" stroke="transparent" points="139,-829 0,-829 0,-750 139,-750 139,-829"/>
<text text-anchor="start" x="5.5" y="-816.5" font-family="Helvetica,sans-Serif" font-size="10.00">std::shared_ptr&lt; combo &gt;</text>
<text text-anchor="start" x="18.5" y="-801.5" font-family="Helvetica,sans-Serif" font-size="10.00">+</text>
<text text-anchor="start" x="45.5" y="-801.5" font-family="Helvetica,sans-Serif" font-size="10.00">ptr</text>
<text text-anchor="start" x="18.5" y="-786.5" font-family="Helvetica,sans-Serif" font-size="10.00">+</text>
<text text-anchor="start" x="45.5" y="-786.5" font-family="Helvetica,sans-Serif" font-size="10.00">ptr</text>
<text text-anchor="start" x="18.5" y="-771.5" font-family="Helvetica,sans-Serif" font-size="10.00">+</text>
<text text-anchor="start" x="45.5" y="-771.5" font-family="Helvetica,sans-Serif" font-size="10.00">operator&#45;&gt;()</text>
<text text-anchor="start" x="18.5" y="-756.5" font-family="Helvetica,sans-Serif" font-size="10.00">+</text>
<text text-anchor="start" x="45.5" y="-756.5" font-family="Helvetica,sans-Serif" font-size="10.00">operator&#45;&gt;()</text>
<polygon fill="#666666" stroke="#666666" points="0.5,-811.5 0.5,-811.5 139.5,-811.5 139.5,-811.5 0.5,-811.5"/>
<polygon fill="#666666" stroke="#666666" points="0.5,-781.5 0.5,-781.5 43.5,-781.5 43.5,-781.5 0.5,-781.5"/>
<polygon fill="#666666" stroke="#666666" points="43.5,-781.5 43.5,-781.5 139.5,-781.5 139.5,-781.5 43.5,-781.5"/>
<polygon fill="none" stroke="#666666" points="0,-750 0,-829 139,-829 139,-750 0,-750"/>
</a>
</g>
</g>
<!-- Node4&#45;&gt;Node3 -->
<g id="edge3_Node000003_Node000004" class="edge">
<title>Node4&#45;&gt;Node3</title>
<g id="a_edge3_Node000003_Node000004"><a xlink:title=" ">
<path fill="none" stroke="#63b8ff" d="M88.32,-749.75C104.23,-717 126.92,-670.26 143.01,-637.12"/>
<polygon fill="none" stroke="#63b8ff" points="143.17,-636.81 142.19,-629.67 148.41,-626.02 149.39,-633.16 143.17,-636.81"/>
</a>
</g>
<text text-anchor="middle" x="131.5" y="-724" font-family="Helvetica,sans-Serif" font-size="10.00" fill="grey"> +elements</text>
</g>
<!-- Node5 -->
<g id="Node000005" class="node">
<title>Node5</title>
<g id="a_Node000005"><a xlink:title=" ">
<polygon fill="white" stroke="transparent" points="138.5,-963 26.5,-963 26.5,-914 138.5,-914 138.5,-963"/>
<text text-anchor="start" x="31.5" y="-950.5" font-family="Helvetica,sans-Serif" font-size="10.00">std::shared_ptr&lt; T &gt;</text>
<text text-anchor="start" x="80.5" y="-935.5" font-family="Helvetica,sans-Serif" font-size="10.00"> </text>
<text text-anchor="start" x="38" y="-920.5" font-family="Helvetica,sans-Serif" font-size="10.00">+</text>
<text text-anchor="start" x="58.5" y="-920.5" font-family="Helvetica,sans-Serif" font-size="10.00">operator&#45;&gt;()</text>
<polygon fill="#666666" stroke="#666666" points="26.5,-945.5 26.5,-945.5 138.5,-945.5 138.5,-945.5 26.5,-945.5"/>
<polygon fill="#666666" stroke="#666666" points="26.5,-930.5 26.5,-930.5 138.5,-930.5 138.5,-930.5 26.5,-930.5"/>
<polygon fill="none" stroke="#666666" points="26.5,-914 26.5,-963 138.5,-963 138.5,-914 26.5,-914"/>
</a>
</g>
</g>
<!-- Node5&#45;&gt;Node4 -->
<g id="edge4_Node000004_Node000005" class="edge">
<title>Node5&#45;&gt;Node4</title>
<g id="a_edge4_Node000004_Node000005"><a xlink:title=" ">
<path fill="none" stroke="orange" d="M67.57,-904.17C66.74,-901.45 66.03,-898.7 65.5,-896 61.22,-874.24 61.88,-849.48 63.76,-829.42"/>
<polygon fill="orange" stroke="orange" points="64.35,-905.58 70.97,-913.85 70.96,-903.26 64.35,-905.58"/>
</a>
</g>
<text text-anchor="middle" x="95" y="-869" font-family="Helvetica,sans-Serif" font-size="10.00" fill="grey"> &lt; combo &gt;</text>
</g>
<!-- Node6 -->
<g id="Node000006" class="node">
<title>Node6</title>
<g id="a_Node000006"><a xlink:title=" ">
<polygon fill="white" stroke="transparent" points="187,-1059 170,-1059 170,-1010 187,-1010 187,-1059"/>
<text text-anchor="start" x="175.5" y="-1046.5" font-family="Helvetica,sans-Serif" font-size="10.00">T</text>
<text text-anchor="start" x="177" y="-1031.5" font-family="Helvetica,sans-Serif" font-size="10.00"> </text>
<text text-anchor="start" x="177" y="-1016.5" font-family="Helvetica,sans-Serif" font-size="10.00"> </text>
<polygon fill="#666666" stroke="#666666" points="170.5,-1041.5 170.5,-1041.5 187.5,-1041.5 187.5,-1041.5 170.5,-1041.5"/>
<polygon fill="#666666" stroke="#666666" points="170.5,-1026.5 170.5,-1026.5 187.5,-1026.5 187.5,-1026.5 170.5,-1026.5"/>
<polygon fill="none" stroke="#666666" points="170,-1010 170,-1059 187,-1059 187,-1010 170,-1010"/>
</a>
</g>
</g>
<!-- Node6&#45;&gt;Node5 -->
<g id="edge5_Node000005_Node000006" class="edge">
<title>Node6&#45;&gt;Node5</title>
<g id="a_edge5_Node000005_Node000006"><a xlink:title=" ">
<path fill="none" stroke="#63b8ff" d="M169.96,-1026.39C160.37,-1018.31 144.45,-1004.6 131.5,-992 125.05,-985.72 118.34,-978.81 112.03,-972.12"/>
<polygon fill="none" stroke="#63b8ff" points="111.92,-972 104.9,-970.34 103.74,-963.22 110.75,-964.89 111.92,-972"/>
</a>
</g>
<text text-anchor="middle" x="144" y="-984" font-family="Helvetica,sans-Serif" font-size="10.00" fill="grey"> +ptr</text>
</g>
<!-- Node7 -->
<g id="Node000007" class="node">
<title>Node7</title>
<g id="a_Node000007"><a xlink:title=" ">
<polygon fill="white" stroke="transparent" points="223.5,-896 133.5,-896 133.5,-847 223.5,-847 223.5,-896"/>
<text text-anchor="start" x="138.5" y="-883.5" font-family="Helvetica,sans-Serif" font-size="10.00">std::deque&lt; T &gt;</text>
<text text-anchor="start" x="176.5" y="-868.5" font-family="Helvetica,sans-Serif" font-size="10.00"> </text>
<text text-anchor="start" x="176.5" y="-853.5" font-family="Helvetica,sans-Serif" font-size="10.00"> </text>
<polygon fill="#666666" stroke="#666666" points="133.5,-878.5 133.5,-878.5 223.5,-878.5 223.5,-878.5 133.5,-878.5"/>
<polygon fill="#666666" stroke="#666666" points="133.5,-863.5 133.5,-863.5 223.5,-863.5 223.5,-863.5 133.5,-863.5"/>
<polygon fill="none" stroke="#666666" points="133.5,-847 133.5,-896 223.5,-896 223.5,-847 133.5,-847"/>
</a>
</g>
</g>
<!-- Node6&#45;&gt;Node7 -->
<g id="edge7_Node000007_Node000006" class="edge">
<title>Node6&#45;&gt;Node7</title>
<g id="a_edge7_Node000007_Node000006"><a xlink:title=" ">
<path fill="none" stroke="#63b8ff" d="M178.5,-1009.74C178.5,-983.03 178.5,-939.36 178.5,-908.46"/>
<polygon fill="none" stroke="#63b8ff" points="178.5,-908.09 174.5,-902.09 178.5,-896.09 182.5,-902.09 178.5,-908.09"/>
</a>
</g>
<text text-anchor="middle" x="207.5" y="-984" font-family="Helvetica,sans-Serif" font-size="10.00" fill="grey"> +elements</text>
</g>
<!-- Node13 -->
<g id="Node000013" class="node">
<title>Node13</title>
<g id="a_Node000013"><a xlink:title=" ">
<polygon fill="white" stroke="transparent" points="328,-963 237,-963 237,-914 328,-914 328,-963"/>
<text text-anchor="start" x="242.5" y="-950.5" font-family="Helvetica,sans-Serif" font-size="10.00">std::vector&lt; T &gt;</text>
<text text-anchor="start" x="281" y="-935.5" font-family="Helvetica,sans-Serif" font-size="10.00"> </text>
<text text-anchor="start" x="281" y="-920.5" font-family="Helvetica,sans-Serif" font-size="10.00"> </text>
<polygon fill="#666666" stroke="#666666" points="237.5,-945.5 237.5,-945.5 328.5,-945.5 328.5,-945.5 237.5,-945.5"/>
<polygon fill="#666666" stroke="#666666" points="237.5,-930.5 237.5,-930.5 328.5,-930.5 328.5,-930.5 237.5,-930.5"/>
<polygon fill="none" stroke="#666666" points="237,-914 237,-963 328,-963 328,-914 237,-914"/>
</a>
</g>
</g>
<!-- Node6&#45;&gt;Node13 -->
<g id="edge15_Node000013_Node000006" class="edge">
<title>Node6&#45;&gt;Node13</title>
<g id="a_edge15_Node000013_Node000006"><a xlink:title=" ">
<path fill="none" stroke="#63b8ff" d="M187.11,-1028.87C199.65,-1021.88 223.33,-1007.77 240.5,-992 246.8,-986.22 252.93,-979.45 258.47,-972.73"/>
<polygon fill="none" stroke="#63b8ff" points="258.69,-972.45 259.27,-965.27 266.13,-963.04 265.55,-970.23 258.69,-972.45"/>
</a>
</g>
<text text-anchor="middle" x="280.5" y="-984" font-family="Helvetica,sans-Serif" font-size="10.00" fill="grey"> +elements</text>
</g>
<!-- Node7&#45;&gt;Node3 -->
<g id="edge6_Node000003_Node000007" class="edge">
<title>Node7&#45;&gt;Node3</title>
<g id="a_edge6_Node000003_Node000007"><a xlink:title=" ">
<path fill="none" stroke="orange" d="M176.52,-836.58C173.35,-782.41 167.2,-677.29 164.21,-626.23"/>
<polygon fill="orange" stroke="orange" points="173.03,-836.93 177.11,-846.71 180.02,-836.52 173.03,-836.93"/>
</a>
</g>
<text text-anchor="middle" x="216" y="-787" font-family="Helvetica,sans-Serif" font-size="10.00" fill="grey"> &lt; combo::ptr &gt;</text>
</g>
<!-- Node8 -->
<g id="Node000008" class="node">
<title>Node8</title>
<g id="a_Node000008"><a xlink:title=" ">
<polygon fill="white" stroke="transparent" points="560.5,-620.5 510.5,-620.5 510.5,-571.5 560.5,-571.5 560.5,-620.5"/>
<text text-anchor="start" x="515.5" y="-608" font-family="Helvetica,sans-Serif" font-size="10.00">uint32_t</text>
<text text-anchor="start" x="533.5" y="-593" font-family="Helvetica,sans-Serif" font-size="10.00"> </text>
<text text-anchor="start" x="533.5" y="-578" font-family="Helvetica,sans-Serif" font-size="10.00"> </text>
<polygon fill="#666666" stroke="#666666" points="510.5,-603 510.5,-603 560.5,-603 560.5,-603 510.5,-603"/>
<polygon fill="#666666" stroke="#666666" points="510.5,-588 510.5,-588 560.5,-588 560.5,-588 510.5,-588"/>
<polygon fill="none" stroke="#666666" points="510.5,-571.5 510.5,-620.5 560.5,-620.5 560.5,-571.5 510.5,-571.5"/>
</a>
</g>
</g>
<!-- Node8&#45;&gt;Node2 -->
<g id="edge8_Node000002_Node000008" class="edge">
<title>Node8&#45;&gt;Node2</title>
<g id="a_edge8_Node000002_Node000008"><a xlink:title=" ">
<path fill="none" stroke="#63b8ff" d="M532.32,-571.28C529.14,-546.37 524.45,-506.01 522.5,-471 521.8,-458.4 521.33,-445.19 521.03,-432.07"/>
<polygon fill="none" stroke="#63b8ff" points="521.03,-432.05 516.91,-426.13 520.79,-420.05 524.91,-425.97 521.03,-432.05"/>
</a>
</g>
<text text-anchor="middle" x="560.5" y="-452" font-family="Helvetica,sans-Serif" font-size="10.00" fill="grey"> #_vanish_num</text>
</g>
<!-- Node9 -->
<g id="Node000009" class="node">
<title>Node9</title>
<g id="a_Node000009"><a xlink:href="../../d3/da8/classrm_1_1StateInfo.html" target="_top" xlink:title="状态类型系统">
<polygon fill="white" stroke="transparent" points="662.5,-703 578.5,-703 578.5,-489 662.5,-489 662.5,-703"/>
<text text-anchor="start" x="588.5" y="-691" font-family="Helvetica,sans-Serif" font-size="10.00">rm::StateInfo</text>
<text text-anchor="start" x="618.5" y="-676" font-family="Helvetica,sans-Serif" font-size="10.00"> </text>
<text text-anchor="start" x="582.5" y="-661" font-family="Helvetica,sans-Serif" font-size="10.00">+</text>
<text text-anchor="start" x="595.5" y="-661" font-family="Helvetica,sans-Serif" font-size="10.00">StateInfo()</text>
<text text-anchor="start" x="582.5" y="-646" font-family="Helvetica,sans-Serif" font-size="10.00">+</text>
<text text-anchor="start" x="595.5" y="-646" font-family="Helvetica,sans-Serif" font-size="10.00">add()</text>
<text text-anchor="start" x="582.5" y="-631" font-family="Helvetica,sans-Serif" font-size="10.00">+</text>
<text text-anchor="start" x="595.5" y="-631" font-family="Helvetica,sans-Serif" font-size="10.00">add()</text>
<text text-anchor="start" x="582.5" y="-616" font-family="Helvetica,sans-Serif" font-size="10.00">+</text>
<text text-anchor="start" x="595.5" y="-616" font-family="Helvetica,sans-Serif" font-size="10.00">remove()</text>
<text text-anchor="start" x="582.5" y="-601" font-family="Helvetica,sans-Serif" font-size="10.00">+</text>
<text text-anchor="start" x="595.5" y="-601" font-family="Helvetica,sans-Serif" font-size="10.00">contains()</text>
<text text-anchor="start" x="582.5" y="-586" font-family="Helvetica,sans-Serif" font-size="10.00">+</text>
<text text-anchor="start" x="595.5" y="-586" font-family="Helvetica,sans-Serif" font-size="10.00">clear()</text>
<text text-anchor="start" x="582.5" y="-571" font-family="Helvetica,sans-Serif" font-size="10.00">+</text>
<text text-anchor="start" x="595.5" y="-571" font-family="Helvetica,sans-Serif" font-size="10.00">empty()</text>
<text text-anchor="start" x="582.5" y="-556" font-family="Helvetica,sans-Serif" font-size="10.00">+</text>
<text text-anchor="start" x="595.5" y="-556" font-family="Helvetica,sans-Serif" font-size="10.00">at()</text>
<text text-anchor="start" x="582.5" y="-541" font-family="Helvetica,sans-Serif" font-size="10.00">+</text>
<text text-anchor="start" x="595.5" y="-541" font-family="Helvetica,sans-Serif" font-size="10.00">at_numeric()</text>
<text text-anchor="start" x="582.5" y="-526" font-family="Helvetica,sans-Serif" font-size="10.00">+</text>
<text text-anchor="start" x="595.5" y="-526" font-family="Helvetica,sans-Serif" font-size="10.00">at_string()</text>
<text text-anchor="start" x="582.5" y="-511" font-family="Helvetica,sans-Serif" font-size="10.00">+</text>
<text text-anchor="start" x="595.5" y="-511" font-family="Helvetica,sans-Serif" font-size="10.00">at()</text>
<text text-anchor="start" x="582.5" y="-496" font-family="Helvetica,sans-Serif" font-size="10.00">+</text>
<text text-anchor="start" x="595.5" y="-496" font-family="Helvetica,sans-Serif" font-size="10.00">operator[]()</text>
<polygon fill="#666666" stroke="#666666" points="578.5,-686 578.5,-686 662.5,-686 662.5,-686 578.5,-686"/>
<polygon fill="#666666" stroke="#666666" points="578.5,-671 578.5,-671 662.5,-671 662.5,-671 578.5,-671"/>
<polygon fill="none" stroke="#666666" points="578.5,-489 578.5,-703 662.5,-703 662.5,-489 578.5,-489"/>
</a>
</g>
</g>
<!-- Node9&#45;&gt;Node2 -->
<g id="edge9_Node000002_Node000009" class="edge">
<title>Node9&#45;&gt;Node2</title>
<g id="a_edge9_Node000002_Node000009"><a xlink:title=" ">
<path fill="none" stroke="#63b8ff" d="M612.15,-488.66C608.94,-471.4 604.54,-453.96 598.5,-438 594.92,-428.55 590.47,-419.08 585.52,-409.86"/>
<polygon fill="none" stroke="#63b8ff" points="585.39,-409.63 578.96,-406.36 579.51,-399.17 585.93,-402.44 585.39,-409.63"/>
</a>
</g>
<text text-anchor="middle" x="627.5" y="-452" font-family="Helvetica,sans-Serif" font-size="10.00" fill="grey"> #_state</text>
</g>
<!-- Node10 -->
<g id="Node000010" class="node">
<title>Node10</title>
<g id="a_Node000010"><a xlink:title=" ">
<polygon fill="white" stroke="transparent" points="712.5,-620.5 680.5,-620.5 680.5,-571.5 712.5,-571.5 712.5,-620.5"/>
<text text-anchor="start" x="685.5" y="-608" font-family="Helvetica,sans-Serif" font-size="10.00">float</text>
<text text-anchor="start" x="694.5" y="-593" font-family="Helvetica,sans-Serif" font-size="10.00"> </text>
<text text-anchor="start" x="694.5" y="-578" font-family="Helvetica,sans-Serif" font-size="10.00"> </text>
<polygon fill="#666666" stroke="#666666" points="680.5,-603 680.5,-603 712.5,-603 712.5,-603 680.5,-603"/>
<polygon fill="#666666" stroke="#666666" points="680.5,-588 680.5,-588 712.5,-588 712.5,-588 680.5,-588"/>
<polygon fill="none" stroke="#666666" points="680.5,-571.5 680.5,-620.5 712.5,-620.5 712.5,-571.5 680.5,-571.5"/>
</a>
</g>
</g>
<!-- Node10&#45;&gt;Node2 -->
<g id="edge10_Node000002_Node000010" class="edge">
<title>Node10&#45;&gt;Node2</title>
<g id="a_edge10_Node000002_Node000010"><a xlink:title=" ">
<path fill="none" stroke="#63b8ff" d="M694.63,-571.46C691.06,-538.9 680.88,-479.46 652.5,-438 635.35,-412.95 611.68,-389.73 589.17,-370.72"/>
<polygon fill="none" stroke="#63b8ff" points="588.87,-370.48 581.7,-369.74 579.61,-362.84 586.79,-363.57 588.87,-370.48"/>
</a>
</g>
<text text-anchor="middle" x="691" y="-463" font-family="Helvetica,sans-Serif" font-size="10.00" fill="grey"> #_angle</text>
<text text-anchor="middle" x="691" y="-452" font-family="Helvetica,sans-Serif" font-size="10.00" fill="grey">#_height</text>
<text text-anchor="middle" x="691" y="-441" font-family="Helvetica,sans-Serif" font-size="10.00" fill="grey">#_width</text>
</g>
<!-- Node11 -->
<g id="Node000011" class="node">
<title>Node11</title>
<g id="a_Node000011"><a xlink:title=" ">
<polygon fill="white" stroke="transparent" points="431,-814 386,-814 386,-765 431,-765 431,-814"/>
<text text-anchor="start" x="391.5" y="-801.5" font-family="Helvetica,sans-Serif" font-size="10.00">Point2f</text>
<text text-anchor="start" x="407" y="-786.5" font-family="Helvetica,sans-Serif" font-size="10.00"> </text>
<text text-anchor="start" x="407" y="-771.5" font-family="Helvetica,sans-Serif" font-size="10.00"> </text>
<polygon fill="#666666" stroke="#666666" points="386.5,-796.5 386.5,-796.5 431.5,-796.5 431.5,-796.5 386.5,-796.5"/>
<polygon fill="#666666" stroke="#666666" points="386.5,-781.5 386.5,-781.5 431.5,-781.5 431.5,-781.5 386.5,-781.5"/>
<polygon fill="none" stroke="#666666" points="386,-765 386,-814 431,-814 431,-765 386,-765"/>
</a>
</g>
</g>
<!-- Node11&#45;&gt;Node2 -->
<g id="edge11_Node000002_Node000011" class="edge">
<title>Node11&#45;&gt;Node2</title>
<g id="a_edge11_Node000002_Node000011"><a xlink:title=" ">
<path fill="none" stroke="#63b8ff" d="M405.15,-764.92C398.7,-713.48 387.69,-587.86 417.5,-489 426.14,-460.34 441.01,-431.72 456.85,-406.45"/>
<polygon fill="none" stroke="#63b8ff" points="456.95,-406.29 456.83,-399.08 463.44,-396.2 463.56,-403.41 456.95,-406.29"/>
</a>
</g>
<text text-anchor="middle" x="459.5" y="-604.5" font-family="Helvetica,sans-Serif" font-size="10.00" fill="grey"> #_center</text>
<text text-anchor="middle" x="459.5" y="-593.5" font-family="Helvetica,sans-Serif" font-size="10.00" fill="grey">#_relative_angle</text>
<text text-anchor="middle" x="459.5" y="-582.5" font-family="Helvetica,sans-Serif" font-size="10.00" fill="grey">#_speed</text>
</g>
<!-- Node12 -->
<g id="Node000012" class="node">
<title>Node12</title>
<g id="a_Node000012"><a xlink:title=" ">
<polygon fill="white" stroke="transparent" points="372.5,-620.5 236.5,-620.5 236.5,-571.5 372.5,-571.5 372.5,-620.5"/>
<text text-anchor="start" x="241.5" y="-608" font-family="Helvetica,sans-Serif" font-size="10.00">std::vector&lt; cv::Point2f &gt;</text>
<text text-anchor="start" x="302.5" y="-593" font-family="Helvetica,sans-Serif" font-size="10.00"> </text>
<text text-anchor="start" x="302.5" y="-578" font-family="Helvetica,sans-Serif" font-size="10.00"> </text>
<polygon fill="#666666" stroke="#666666" points="236.5,-603 236.5,-603 372.5,-603 372.5,-603 236.5,-603"/>
<polygon fill="#666666" stroke="#666666" points="236.5,-588 236.5,-588 372.5,-588 372.5,-588 236.5,-588"/>
<polygon fill="none" stroke="#666666" points="236.5,-571.5 236.5,-620.5 372.5,-620.5 372.5,-571.5 236.5,-571.5"/>
</a>
</g>
</g>
<!-- Node11&#45;&gt;Node12 -->
<g id="edge13_Node000012_Node000011" class="edge">
<title>Node11&#45;&gt;Node12</title>
<g id="a_edge13_Node000012_Node000011"><a xlink:title=" ">
<path fill="none" stroke="#63b8ff" d="M388.12,-764.81C383,-759.58 377.3,-754.32 371.5,-750 357.47,-739.55 347.28,-745.77 336.5,-732 314.25,-703.58 307.08,-662.19 304.97,-632.74"/>
<polygon fill="none" stroke="#63b8ff" points="304.95,-632.51 300.65,-626.73 304.33,-620.53 308.63,-626.31 304.95,-632.51"/>
</a>
</g>
<text text-anchor="middle" x="365.5" y="-724" font-family="Helvetica,sans-Serif" font-size="10.00" fill="grey"> +elements</text>
</g>
<!-- Node12&#45;&gt;Node2 -->
<g id="edge12_Node000002_Node000012" class="edge">
<title>Node12&#45;&gt;Node2</title>
<g id="a_edge12_Node000002_Node000012"><a xlink:title=" ">
<path fill="none" stroke="#63b8ff" d="M304.73,-571.23C306.15,-538.4 312.87,-478.63 341.5,-438 369.02,-398.95 414.18,-369.78 452.38,-350.39"/>
<polygon fill="none" stroke="#63b8ff" points="452.7,-350.23 456.32,-343.99 463.47,-344.93 459.85,-351.17 452.7,-350.23"/>
</a>
</g>
<text text-anchor="middle" x="368" y="-452" font-family="Helvetica,sans-Serif" font-size="10.00" fill="grey"> #_corners</text>
</g>
<!-- Node13&#45;&gt;Node12 -->
<g id="edge14_Node000012_Node000013" class="edge">
<title>Node13&#45;&gt;Node12</title>
<g id="a_edge14_Node000012_Node000013"><a xlink:title=" ">
<path fill="none" stroke="orange" d="M284.7,-903.52C289.15,-834.54 299.16,-679.61 302.98,-620.52"/>
<polygon fill="orange" stroke="orange" points="281.18,-903.62 284.03,-913.83 288.17,-904.07 281.18,-903.62"/>
</a>
</g>
<text text-anchor="middle" x="334" y="-787" font-family="Helvetica,sans-Serif" font-size="10.00" fill="grey"> &lt; cv::Point2f &gt;</text>
</g>
<!-- Node14 -->
<g id="Node000014" class="node">
<title>Node14</title>
<g id="a_Node000014"><a xlink:href="../../da/dbf/classrm_1_1CameraExtrinsics.html" target="_top" xlink:title="相机外参">
<polygon fill="white" stroke="transparent" points="846.5,-703 730.5,-703 730.5,-489 846.5,-489 846.5,-703"/>
<text text-anchor="start" x="735.5" y="-691" font-family="Helvetica,sans-Serif" font-size="10.00">rm::CameraExtrinsics</text>
<text text-anchor="start" x="786.5" y="-676" font-family="Helvetica,sans-Serif" font-size="10.00"> </text>
<text text-anchor="start" x="746" y="-661" font-family="Helvetica,sans-Serif" font-size="10.00">+</text>
<text text-anchor="start" x="770.5" y="-661" font-family="Helvetica,sans-Serif" font-size="10.00">tvec()</text>
<text text-anchor="start" x="746" y="-646" font-family="Helvetica,sans-Serif" font-size="10.00">+</text>
<text text-anchor="start" x="770.5" y="-646" font-family="Helvetica,sans-Serif" font-size="10.00">rvec()</text>
<text text-anchor="start" x="746" y="-631" font-family="Helvetica,sans-Serif" font-size="10.00">+</text>
<text text-anchor="start" x="770.5" y="-631" font-family="Helvetica,sans-Serif" font-size="10.00">R()</text>
<text text-anchor="start" x="746" y="-616" font-family="Helvetica,sans-Serif" font-size="10.00">+</text>
<text text-anchor="start" x="770.5" y="-616" font-family="Helvetica,sans-Serif" font-size="10.00">T()</text>
<text text-anchor="start" x="746" y="-601" font-family="Helvetica,sans-Serif" font-size="10.00">+</text>
<text text-anchor="start" x="770.5" y="-601" font-family="Helvetica,sans-Serif" font-size="10.00">yaw()</text>
<text text-anchor="start" x="746" y="-586" font-family="Helvetica,sans-Serif" font-size="10.00">+</text>
<text text-anchor="start" x="770.5" y="-586" font-family="Helvetica,sans-Serif" font-size="10.00">pitch()</text>
<text text-anchor="start" x="746" y="-571" font-family="Helvetica,sans-Serif" font-size="10.00">+</text>
<text text-anchor="start" x="770.5" y="-571" font-family="Helvetica,sans-Serif" font-size="10.00">roll()</text>
<text text-anchor="start" x="746" y="-556" font-family="Helvetica,sans-Serif" font-size="10.00">+</text>
<text text-anchor="start" x="770.5" y="-556" font-family="Helvetica,sans-Serif" font-size="10.00">distance()</text>
<text text-anchor="start" x="746" y="-541" font-family="Helvetica,sans-Serif" font-size="10.00">+</text>
<text text-anchor="start" x="770.5" y="-541" font-family="Helvetica,sans-Serif" font-size="10.00">tvec()</text>
<text text-anchor="start" x="746" y="-526" font-family="Helvetica,sans-Serif" font-size="10.00">+</text>
<text text-anchor="start" x="770.5" y="-526" font-family="Helvetica,sans-Serif" font-size="10.00">rvec()</text>
<text text-anchor="start" x="746" y="-511" font-family="Helvetica,sans-Serif" font-size="10.00">+</text>
<text text-anchor="start" x="770.5" y="-511" font-family="Helvetica,sans-Serif" font-size="10.00">R()</text>
<text text-anchor="start" x="746" y="-496" font-family="Helvetica,sans-Serif" font-size="10.00">+</text>
<text text-anchor="start" x="770.5" y="-496" font-family="Helvetica,sans-Serif" font-size="10.00">distance()</text>
<polygon fill="#666666" stroke="#666666" points="730.5,-686 730.5,-686 846.5,-686 846.5,-686 730.5,-686"/>
<polygon fill="#666666" stroke="#666666" points="730.5,-671 730.5,-671 846.5,-671 846.5,-671 730.5,-671"/>
<polygon fill="none" stroke="#666666" points="730.5,-489 730.5,-703 846.5,-703 846.5,-489 730.5,-489"/>
</a>
</g>
</g>
<!-- Node14&#45;&gt;Node2 -->
<g id="edge16_Node000002_Node000014" class="edge">
<title>Node14&#45;&gt;Node2</title>
<g id="a_edge16_Node000002_Node000014"><a xlink:title=" ">
<path fill="none" stroke="#63b8ff" d="M751.18,-488.65C741.92,-470.55 730.76,-452.83 717.5,-438 682.82,-399.21 632.07,-369.54 590.91,-349.85"/>
<polygon fill="none" stroke="#63b8ff" points="590.72,-349.76 583.59,-350.85 579.85,-344.69 586.98,-343.6 590.72,-349.76"/>
</a>
</g>
<text text-anchor="middle" x="769" y="-452" font-family="Helvetica,sans-Serif" font-size="10.00" fill="grey"> #_extrinsic</text>
</g>
</g>
</svg>

<g id="navigator" transform="translate(0 0)" fill="#404254">
  <rect fill="#f2f5e9" fill-opacity="0.5" stroke="#606060" stroke-width=".5" x="0" y="0" width="60" height="60"/>
  <use id="zoomplus" xlink:href="#zoomPlus" x="17" y="9" onmousedown="handleZoom(evt,'in')"/>
  <use id="zoomminus" xlink:href="#zoomMin" x="42" y="9" onmousedown="handleZoom(evt,'out')"/>
  <use id="reset" xlink:href="#resetDef" x="30" y="36" onmousedown="handleReset()"/>
   <use id="arrowup" xlink:href="#arrowUp" x="0" y="0" onmousedown="handlePan(0,-1)"/>
  <use id="arrowright" xlink:href="#arrowRight" x="0" y="0" onmousedown="handlePan(1,0)"/>
  <use id="arrowdown" xlink:href="#arrowDown" x="0" y="0" onmousedown="handlePan(0,1)"/>
  <use id="arrowleft" xlink:href="#arrowLeft" x="0" y="0" onmousedown="handlePan(-1,0)"/>
</g>
<svg viewBox="0 0 15 15" width="100%" height="30px" preserveAspectRatio="xMaxYMin meet">
 <g id="arrow_out" transform="scale(0.3 0.3)">
  <a xlink:href="classrm_1_1GyroTracker__coll__graph_org.svg" target="_base">
   <rect id="button" ry="5" rx="5" y="6" x="6" height="38" width="38"
        fill="#f2f5e9" fill-opacity="0.5" stroke="#606060" stroke-width="1.0"/>
   <path id="arrow"
     d="M 11.500037,31.436501 C 11.940474,20.09759 22.043105,11.32322 32.158766,21.979434 L 37.068811,17.246167 C 37.068811,17.246167 37.088388,32 37.088388,32 L 22.160133,31.978069 C 22.160133,31.978069 26.997745,27.140456 26.997745,27.140456 C 18.528582,18.264221 13.291696,25.230495 11.500037,31.436501 z"
     style="fill:#404040;"/>
  </a>
 </g>
</svg>

<style type='text/css'>
<![CDATA[
[data-mouse-over-selected='false'] { opacity: 0.7; }
[data-mouse-over-selected='true']  { opacity: 1.0; }
]]>
</style>
<script type="application/ecmascript"><![CDATA[
document.addEventListener('DOMContentLoaded', (event) => {
  highlightEdges();
  highlightAdjacentNodes();
});
]]></script>
</svg>
