<?xml version="1.0" encoding="UTF-8" standalone="no"?>
<!DOCTYPE svg PUBLIC "-//W3C//DTD SVG 1.1//EN"
 "http://www.w3.org/Graphics/SVG/1.1/DTD/svg11.dtd">
<!-- Generated by graphviz version 2.43.0 (0)
 -->
<!-- Title: rm::ImuData Pages: 1 -->
<svg width="181pt" height="349pt"
 viewBox="0.00 0.00 181.00 349.00" xmlns="http://www.w3.org/2000/svg" xmlns:xlink="http://www.w3.org/1999/xlink">

<svg id="main" version="1.1" xmlns="http://www.w3.org/2000/svg" xmlns:xlink="http://www.w3.org/1999/xlink" xml:space="preserve">

<style type="text/css"><![CDATA[
.node, .edge {opacity: 0.7;}
.node.selected, .edge.selected {opacity: 1;}
.edge:hover path { stroke: red; }
.edge:hover polygon { stroke: red; fill: red; }
]]></style>
<script type="application/ecmascript" xlink:href="../../svg.min.js"/>
<svg id="graph" class="graph">
<g id="graph0" class="graph" transform="scale(1 1) rotate(0) translate(4 345)">
<title>rm::ImuData</title>
<!-- Node1 -->
<g id="Node000001" class="node">
<title>Node1</title>
<g id="a_Node000001"><a xlink:title="IMU 数据">
<polygon fill="#999999" stroke="transparent" points="114.5,-94 49.5,-94 49.5,0 114.5,0 114.5,-94"/>
<text text-anchor="start" x="55" y="-82" font-family="Helvetica,sans-Serif" font-size="10.00">rm::ImuData</text>
<text text-anchor="start" x="80.5" y="-67" font-family="Helvetica,sans-Serif" font-size="10.00"> </text>
<text text-anchor="start" x="58.5" y="-52" font-family="Helvetica,sans-Serif" font-size="10.00">+</text>
<text text-anchor="start" x="74" y="-52" font-family="Helvetica,sans-Serif" font-size="10.00">write()</text>
<text text-anchor="start" x="58.5" y="-37" font-family="Helvetica,sans-Serif" font-size="10.00">+</text>
<text text-anchor="start" x="74" y="-37" font-family="Helvetica,sans-Serif" font-size="10.00">read()</text>
<text text-anchor="start" x="58.5" y="-22" font-family="Helvetica,sans-Serif" font-size="10.00">+</text>
<text text-anchor="start" x="74" y="-22" font-family="Helvetica,sans-Serif" font-size="10.00">write()</text>
<text text-anchor="start" x="58.5" y="-7" font-family="Helvetica,sans-Serif" font-size="10.00">+</text>
<text text-anchor="start" x="74" y="-7" font-family="Helvetica,sans-Serif" font-size="10.00">read()</text>
<polygon fill="#666666" stroke="#666666" points="50,-77 50,-77 115,-77 115,-77 50,-77"/>
<polygon fill="#666666" stroke="#666666" points="50,-62 50,-62 115,-62 115,-62 50,-62"/>
<polygon fill="none" stroke="#666666" points="49.5,0 49.5,-94 114.5,-94 114.5,0 49.5,0"/>
</a>
</g>
</g>
<!-- Node2 -->
<g id="Node000002" class="node">
<title>Node2</title>
<g id="a_Node000002"><a xlink:href="../../d4/def/structrm_1_1Translation.html" target="_top" xlink:title="移动位置信息">
<polygon fill="white" stroke="transparent" points="76,-190 0,-190 0,-141 76,-141 76,-190"/>
<text text-anchor="start" x="5" y="-177.5" font-family="Helvetica,sans-Serif" font-size="10.00">rm::Translation</text>
<text text-anchor="start" x="36" y="-162.5" font-family="Helvetica,sans-Serif" font-size="10.00"> </text>
<text text-anchor="start" x="36" y="-147.5" font-family="Helvetica,sans-Serif" font-size="10.00"> </text>
<polygon fill="#666666" stroke="#666666" points="0,-172.5 0,-172.5 76,-172.5 76,-172.5 0,-172.5"/>
<polygon fill="#666666" stroke="#666666" points="0,-157.5 0,-157.5 76,-157.5 76,-157.5 0,-157.5"/>
<polygon fill="none" stroke="#666666" points="0,-141 0,-190 76,-190 76,-141 0,-141"/>
</a>
</g>
</g>
<!-- Node2&#45;&gt;Node1 -->
<g id="edge1_Node000001_Node000002" class="edge">
<title>Node2&#45;&gt;Node1</title>
<g id="a_edge1_Node000001_Node000002"><a xlink:title=" ">
<path fill="none" stroke="#63b8ff" d="M40.37,-140.82C41.72,-131.65 43.81,-121.17 47,-112 47.78,-109.76 48.64,-107.5 49.55,-105.24"/>
<polygon fill="none" stroke="#63b8ff" points="49.66,-104.98 48.44,-97.88 54.53,-94.01 55.75,-101.12 49.66,-104.98"/>
</a>
</g>
<text text-anchor="middle" x="74.5" y="-115" font-family="Helvetica,sans-Serif" font-size="10.00" fill="grey"> +translation</text>
</g>
<!-- Node3 -->
<g id="Node000003" class="node">
<title>Node3</title>
<g id="a_Node000003"><a xlink:title=" ">
<polygon fill="white" stroke="transparent" points="96.5,-341 67.5,-341 67.5,-292 96.5,-292 96.5,-341"/>
<text text-anchor="start" x="73" y="-328.5" font-family="Helvetica,sans-Serif" font-size="10.00">float</text>
<text text-anchor="start" x="80.5" y="-313.5" font-family="Helvetica,sans-Serif" font-size="10.00"> </text>
<text text-anchor="start" x="80.5" y="-298.5" font-family="Helvetica,sans-Serif" font-size="10.00"> </text>
<polygon fill="#666666" stroke="#666666" points="68,-323.5 68,-323.5 97,-323.5 97,-323.5 68,-323.5"/>
<polygon fill="#666666" stroke="#666666" points="68,-308.5 68,-308.5 97,-308.5 97,-308.5 68,-308.5"/>
<polygon fill="none" stroke="#666666" points="67.5,-292 67.5,-341 96.5,-341 96.5,-292 67.5,-292"/>
</a>
</g>
</g>
<!-- Node3&#45;&gt;Node2 -->
<g id="edge2_Node000002_Node000003" class="edge">
<title>Node3&#45;&gt;Node2</title>
<g id="a_edge2_Node000002_Node000003"><a xlink:title=" ">
<path fill="none" stroke="#63b8ff" d="M75.03,-291.89C67.89,-267.73 56.72,-229.89 48.51,-202.1"/>
<polygon fill="none" stroke="#63b8ff" points="48.48,-202 42.95,-197.38 45.09,-190.49 50.62,-195.11 48.48,-202"/>
</a>
</g>
<text text-anchor="middle" x="79" y="-266" font-family="Helvetica,sans-Serif" font-size="10.00" fill="grey"> +vx</text>
<text text-anchor="middle" x="79" y="-255" font-family="Helvetica,sans-Serif" font-size="10.00" fill="grey">+vy</text>
<text text-anchor="middle" x="79" y="-244" font-family="Helvetica,sans-Serif" font-size="10.00" fill="grey">+vz</text>
<text text-anchor="middle" x="79" y="-233" font-family="Helvetica,sans-Serif" font-size="10.00" fill="grey">+x</text>
<text text-anchor="middle" x="79" y="-222" font-family="Helvetica,sans-Serif" font-size="10.00" fill="grey">+y</text>
<text text-anchor="middle" x="79" y="-211" font-family="Helvetica,sans-Serif" font-size="10.00" fill="grey">+z</text>
</g>
<!-- Node4 -->
<g id="Node000004" class="node">
<title>Node4</title>
<g id="a_Node000004"><a xlink:href="../../d1/d5f/structrm_1_1Rotation.html" target="_top" xlink:title="转动姿态信息">
<polygon fill="white" stroke="transparent" points="159.5,-190 94.5,-190 94.5,-141 159.5,-141 159.5,-190"/>
<text text-anchor="start" x="100" y="-177.5" font-family="Helvetica,sans-Serif" font-size="10.00">rm::Rotation</text>
<text text-anchor="start" x="125.5" y="-162.5" font-family="Helvetica,sans-Serif" font-size="10.00"> </text>
<text text-anchor="start" x="125.5" y="-147.5" font-family="Helvetica,sans-Serif" font-size="10.00"> </text>
<polygon fill="#666666" stroke="#666666" points="95,-172.5 95,-172.5 160,-172.5 160,-172.5 95,-172.5"/>
<polygon fill="#666666" stroke="#666666" points="95,-157.5 95,-157.5 160,-157.5 160,-157.5 95,-157.5"/>
<polygon fill="none" stroke="#666666" points="94.5,-141 94.5,-190 159.5,-190 159.5,-141 94.5,-141"/>
</a>
</g>
</g>
<!-- Node3&#45;&gt;Node4 -->
<g id="edge4_Node000004_Node000003" class="edge">
<title>Node3&#45;&gt;Node4</title>
<g id="a_edge4_Node000004_Node000003"><a xlink:title=" ">
<path fill="none" stroke="#63b8ff" d="M89.13,-291.89C96.43,-267.73 107.85,-229.89 116.25,-202.1"/>
<polygon fill="none" stroke="#63b8ff" points="116.28,-201.98 114.19,-195.08 119.75,-190.49 121.85,-197.39 116.28,-201.98"/>
</a>
</g>
<text text-anchor="middle" x="143.5" y="-266" font-family="Helvetica,sans-Serif" font-size="10.00" fill="grey"> +pitch</text>
<text text-anchor="middle" x="143.5" y="-255" font-family="Helvetica,sans-Serif" font-size="10.00" fill="grey">+pitch_speed</text>
<text text-anchor="middle" x="143.5" y="-244" font-family="Helvetica,sans-Serif" font-size="10.00" fill="grey">+roll</text>
<text text-anchor="middle" x="143.5" y="-233" font-family="Helvetica,sans-Serif" font-size="10.00" fill="grey">+roll_speed</text>
<text text-anchor="middle" x="143.5" y="-222" font-family="Helvetica,sans-Serif" font-size="10.00" fill="grey">+yaw</text>
<text text-anchor="middle" x="143.5" y="-211" font-family="Helvetica,sans-Serif" font-size="10.00" fill="grey">+yaw_speed</text>
</g>
<!-- Node4&#45;&gt;Node1 -->
<g id="edge3_Node000001_Node000004" class="edge">
<title>Node4&#45;&gt;Node1</title>
<g id="a_edge3_Node000001_Node000004"><a xlink:title=" ">
<path fill="none" stroke="#63b8ff" d="M117.89,-140.92C113.92,-130.64 109.07,-118.09 104.24,-105.58"/>
<polygon fill="none" stroke="#63b8ff" points="104.16,-105.37 98.27,-101.21 99.84,-94.17 105.73,-98.33 104.16,-105.37"/>
</a>
</g>
<text text-anchor="middle" x="131" y="-115" font-family="Helvetica,sans-Serif" font-size="10.00" fill="grey"> +rotation</text>
</g>
</g>
</svg>
</svg>

<style type='text/css'>
<![CDATA[
[data-mouse-over-selected='false'] { opacity: 0.7; }
[data-mouse-over-selected='true']  { opacity: 1.0; }
]]>
</style>
<script type="application/ecmascript"><![CDATA[
document.addEventListener('DOMContentLoaded', (event) => {
  highlightEdges();
  highlightAdjacentNodes();
});
]]></script>
</svg>
