<?xml version="1.0" encoding="UTF-8" standalone="no"?>
<!DOCTYPE svg PUBLIC "-//W3C//DTD SVG 1.1//EN"
 "http://www.w3.org/Graphics/SVG/1.1/DTD/svg11.dtd">
<!-- Generated by graphviz version 2.43.0 (0)
 -->
<!-- Title: rm::para::TranslationDeciderParam Pages: 1 -->
<svg width="215pt" height="194pt"
 viewBox="0.00 0.00 214.50 194.00" xmlns="http://www.w3.org/2000/svg" xmlns:xlink="http://www.w3.org/1999/xlink">
<g id="graph0" class="graph" transform="scale(1 1) rotate(0) translate(4 190)">
<title>rm::para::TranslationDeciderParam</title>
<!-- Node1 -->
<g id="Node000001" class="node">
<title>Node1</title>
<g id="a_Node000001"><a xlink:title="TranslationDeciderParam 参数模块">
<polygon fill="#999999" stroke="transparent" points="149,-90 0,-90 0,0 149,0 149,-90"/>
<text text-anchor="start" x="5.5" y="-78" font-family="Helvetica,sans-Serif" font-size="10.00">rm::para::TranslationDecider</text>
<text text-anchor="start" x="59.5" y="-67" font-family="Helvetica,sans-Serif" font-size="10.00">Param</text>
<text text-anchor="start" x="73" y="-52" font-family="Helvetica,sans-Serif" font-size="10.00"> </text>
<text text-anchor="start" x="28" y="-37" font-family="Helvetica,sans-Serif" font-size="10.00">+</text>
<text text-anchor="start" x="64.5" y="-37" font-family="Helvetica,sans-Serif" font-size="10.00">read()</text>
<text text-anchor="start" x="28" y="-22" font-family="Helvetica,sans-Serif" font-size="10.00">+</text>
<text text-anchor="start" x="64.5" y="-22" font-family="Helvetica,sans-Serif" font-size="10.00">write()</text>
<text text-anchor="start" x="28" y="-7" font-family="Helvetica,sans-Serif" font-size="10.00">+</text>
<text text-anchor="start" x="64.5" y="-7" font-family="Helvetica,sans-Serif" font-size="10.00">load()</text>
<polygon fill="#666666" stroke="#666666" points="0.5,-62 0.5,-62 149.5,-62 149.5,-62 0.5,-62"/>
<polygon fill="#666666" stroke="#666666" points="0.5,-47 0.5,-47 149.5,-47 149.5,-47 0.5,-47"/>
<polygon fill="none" stroke="#666666" points="0,0 0,-90 149,-90 149,0 0,0"/>
</a>
</g>
</g>
<!-- Node2 -->
<g id="Node000002" class="node">
<title>Node2</title>
<g id="a_Node000002"><a xlink:title=" ">
<polygon fill="white" stroke="transparent" points="90.5,-186 58.5,-186 58.5,-137 90.5,-137 90.5,-186"/>
<text text-anchor="start" x="63.5" y="-173.5" font-family="Helvetica,sans-Serif" font-size="10.00">float</text>
<text text-anchor="start" x="72.5" y="-158.5" font-family="Helvetica,sans-Serif" font-size="10.00"> </text>
<text text-anchor="start" x="72.5" y="-143.5" font-family="Helvetica,sans-Serif" font-size="10.00"> </text>
<polygon fill="#666666" stroke="#666666" points="58.5,-168.5 58.5,-168.5 90.5,-168.5 90.5,-168.5 58.5,-168.5"/>
<polygon fill="#666666" stroke="#666666" points="58.5,-153.5 58.5,-153.5 90.5,-153.5 90.5,-153.5 58.5,-153.5"/>
<polygon fill="none" stroke="#666666" points="58.5,-137 58.5,-186 90.5,-186 90.5,-137 58.5,-137"/>
</a>
</g>
</g>
<!-- Node2&#45;&gt;Node1 -->
<g id="edge1_Node000001_Node000002" class="edge">
<title>Node2&#45;&gt;Node1</title>
<g id="a_edge1_Node000001_Node000002"><a xlink:title=" ">
<path fill="none" stroke="#63b8ff" d="M74.5,-136.78C74.5,-126.66 74.5,-114.38 74.5,-102.16"/>
<polygon fill="none" stroke="#63b8ff" points="74.5,-102.06 70.5,-96.06 74.5,-90.06 78.5,-96.06 74.5,-102.06"/>
</a>
</g>
<text text-anchor="middle" x="140.5" y="-111" font-family="Helvetica,sans-Serif" font-size="10.00" fill="grey"> +NORMAL_RADIUS_RATIO</text>
</g>
</g>
</svg>
