<?xml version="1.0" encoding="UTF-8" standalone="no"?>
<!DOCTYPE svg PUBLIC "-//W3C//DTD SVG 1.1//EN"
 "http://www.w3.org/Graphics/SVG/1.1/DTD/svg11.dtd">
<!-- Generated by graphviz version 2.43.0 (0)
 -->
<!-- Title: rm::ua::Variable Pages: 1 -->
<svg width="269pt" height="466pt"
 viewBox="0.00 0.00 269.00 466.00" xmlns="http://www.w3.org/2000/svg" xmlns:xlink="http://www.w3.org/1999/xlink">
<g id="graph0" class="graph" transform="scale(1 1) rotate(0) translate(4 462)">
<title>rm::ua::Variable</title>
<!-- Node1 -->
<g id="Node000001" class="node">
<title>Node1</title>
<g id="a_Node000001"><a xlink:title="OPC UA 变量">
<polygon fill="#999999" stroke="transparent" points="130,-229 42,-229 42,0 130,0 130,-229"/>
<text text-anchor="start" x="47" y="-216.5" font-family="Helvetica,sans-Serif" font-size="10.00">rm::ua::Variable</text>
<text text-anchor="start" x="84" y="-201.5" font-family="Helvetica,sans-Serif" font-size="10.00"> </text>
<text text-anchor="start" x="46" y="-186.5" font-family="Helvetica,sans-Serif" font-size="10.00">+</text>
<text text-anchor="start" x="59" y="-186.5" font-family="Helvetica,sans-Serif" font-size="10.00">Variable()</text>
<text text-anchor="start" x="46" y="-171.5" font-family="Helvetica,sans-Serif" font-size="10.00">+</text>
<text text-anchor="start" x="59" y="-171.5" font-family="Helvetica,sans-Serif" font-size="10.00">Variable()</text>
<text text-anchor="start" x="46" y="-156.5" font-family="Helvetica,sans-Serif" font-size="10.00">+</text>
<text text-anchor="start" x="59" y="-156.5" font-family="Helvetica,sans-Serif" font-size="10.00">Variable()</text>
<text text-anchor="start" x="46" y="-141.5" font-family="Helvetica,sans-Serif" font-size="10.00">+</text>
<text text-anchor="start" x="59" y="-141.5" font-family="Helvetica,sans-Serif" font-size="10.00">Variable()</text>
<text text-anchor="start" x="46" y="-126.5" font-family="Helvetica,sans-Serif" font-size="10.00">+</text>
<text text-anchor="start" x="59" y="-126.5" font-family="Helvetica,sans-Serif" font-size="10.00">Variable()</text>
<text text-anchor="start" x="46" y="-111.5" font-family="Helvetica,sans-Serif" font-size="10.00">+</text>
<text text-anchor="start" x="59" y="-111.5" font-family="Helvetica,sans-Serif" font-size="10.00">Variable()</text>
<text text-anchor="start" x="46" y="-96.5" font-family="Helvetica,sans-Serif" font-size="10.00">+</text>
<text text-anchor="start" x="59" y="-96.5" font-family="Helvetica,sans-Serif" font-size="10.00">operator==()</text>
<text text-anchor="start" x="46" y="-81.5" font-family="Helvetica,sans-Serif" font-size="10.00">+</text>
<text text-anchor="start" x="59" y="-81.5" font-family="Helvetica,sans-Serif" font-size="10.00">operator!=()</text>
<text text-anchor="start" x="46" y="-66.5" font-family="Helvetica,sans-Serif" font-size="10.00">+</text>
<text text-anchor="start" x="59" y="-66.5" font-family="Helvetica,sans-Serif" font-size="10.00">empty()</text>
<text text-anchor="start" x="46" y="-51.5" font-family="Helvetica,sans-Serif" font-size="10.00">+</text>
<text text-anchor="start" x="59" y="-51.5" font-family="Helvetica,sans-Serif" font-size="10.00">data()</text>
<text text-anchor="start" x="59" y="-36.5" font-family="Helvetica,sans-Serif" font-size="10.00">和 7 更多...</text>
<text text-anchor="start" x="46" y="-21.5" font-family="Helvetica,sans-Serif" font-size="10.00">+</text>
<text text-anchor="start" x="59" y="-21.5" font-family="Helvetica,sans-Serif" font-size="10.00">makeFrom()</text>
<text text-anchor="start" x="46" y="-6.5" font-family="Helvetica,sans-Serif" font-size="10.00">+</text>
<text text-anchor="start" x="59" y="-6.5" font-family="Helvetica,sans-Serif" font-size="10.00">cast()</text>
<polygon fill="#666666" stroke="#666666" points="42,-211.5 42,-211.5 130,-211.5 130,-211.5 42,-211.5"/>
<polygon fill="#666666" stroke="#666666" points="42,-196.5 42,-196.5 130,-196.5 130,-196.5 42,-196.5"/>
<polygon fill="none" stroke="#666666" points="42,0 42,-229 130,-229 130,0 42,0"/>
</a>
</g>
</g>
<!-- Node2 -->
<g id="Node000002" class="node">
<title>Node2</title>
<g id="a_Node000002"><a xlink:title=" ">
<polygon fill="white" stroke="transparent" points="50,-361 0,-361 0,-312 50,-312 50,-361"/>
<text text-anchor="start" x="5" y="-348.5" font-family="Helvetica,sans-Serif" font-size="10.00">uint16_t</text>
<text text-anchor="start" x="23" y="-333.5" font-family="Helvetica,sans-Serif" font-size="10.00"> </text>
<text text-anchor="start" x="23" y="-318.5" font-family="Helvetica,sans-Serif" font-size="10.00"> </text>
<polygon fill="#666666" stroke="#666666" points="0,-343.5 0,-343.5 50,-343.5 50,-343.5 0,-343.5"/>
<polygon fill="#666666" stroke="#666666" points="0,-328.5 0,-328.5 50,-328.5 50,-328.5 0,-328.5"/>
<polygon fill="none" stroke="#666666" points="0,-312 0,-361 50,-361 50,-312 0,-312"/>
</a>
</g>
</g>
<!-- Node2&#45;&gt;Node1 -->
<g id="edge1_Node000001_Node000002" class="edge">
<title>Node2&#45;&gt;Node1</title>
<g id="a_edge1_Node000001_Node000002"><a xlink:title=" ">
<path fill="none" stroke="#63b8ff" d="M31.53,-311.96C36.46,-294.16 43.66,-268.2 51.21,-240.96"/>
<polygon fill="none" stroke="#63b8ff" points="51.26,-240.78 49.01,-233.93 54.47,-229.22 56.72,-236.07 51.26,-240.78"/>
</a>
</g>
<text text-anchor="start" x="51" y="-267.5" font-family="Helvetica,sans-Serif" font-size="10.00" fill="grey">+ns</text>
</g>
<!-- Node3 -->
<g id="Node000003" class="node">
<title>Node3</title>
<g id="a_Node000003"><a xlink:title=" ">
<polygon fill="white" stroke="transparent" points="127.5,-361 68.5,-361 68.5,-312 127.5,-312 127.5,-361"/>
<text text-anchor="start" x="74" y="-348.5" font-family="Helvetica,sans-Serif" font-size="10.00">std::string</text>
<text text-anchor="start" x="96.5" y="-333.5" font-family="Helvetica,sans-Serif" font-size="10.00"> </text>
<text text-anchor="start" x="96.5" y="-318.5" font-family="Helvetica,sans-Serif" font-size="10.00"> </text>
<polygon fill="#666666" stroke="#666666" points="69,-343.5 69,-343.5 128,-343.5 128,-343.5 69,-343.5"/>
<polygon fill="#666666" stroke="#666666" points="69,-328.5 69,-328.5 128,-328.5 128,-328.5 69,-328.5"/>
<polygon fill="none" stroke="#666666" points="68.5,-312 68.5,-361 127.5,-361 127.5,-312 68.5,-312"/>
</a>
</g>
</g>
<!-- Node3&#45;&gt;Node1 -->
<g id="edge2_Node000001_Node000003" class="edge">
<title>Node3&#45;&gt;Node1</title>
<g id="a_edge2_Node000001_Node000003"><a xlink:title=" ">
<path fill="none" stroke="#63b8ff" d="M90.55,-311.57C89.09,-305.87 87.77,-299.76 87,-294 84.74,-277.03 83.41,-259.07 82.71,-241.34"/>
<polygon fill="none" stroke="#63b8ff" points="82.7,-241.11 78.52,-235.23 82.33,-229.11 86.51,-234.98 82.7,-241.11"/>
</a>
</g>
<text text-anchor="start" x="90.5" y="-282.5" font-family="Helvetica,sans-Serif" font-size="10.00" fill="grey">+browse_name</text>
<text text-anchor="start" x="90.5" y="-267.5" font-family="Helvetica,sans-Serif" font-size="10.00" fill="grey">+description</text>
<text text-anchor="start" x="90.5" y="-252.5" font-family="Helvetica,sans-Serif" font-size="10.00" fill="grey">+display_name</text>
</g>
<!-- Node4 -->
<g id="Node000004" class="node">
<title>Node4</title>
<g id="a_Node000004"><a xlink:title=" ">
<polygon fill="white" stroke="transparent" points="147,-458 49,-458 49,-398 147,-398 147,-458"/>
<text text-anchor="start" x="54" y="-446" font-family="Helvetica,sans-Serif" font-size="10.00">std::basic_string&lt;</text>
<text text-anchor="start" x="79.5" y="-435" font-family="Helvetica,sans-Serif" font-size="10.00"> Char &gt;</text>
<text text-anchor="start" x="96" y="-420" font-family="Helvetica,sans-Serif" font-size="10.00"> </text>
<text text-anchor="start" x="96" y="-405" font-family="Helvetica,sans-Serif" font-size="10.00"> </text>
<polygon fill="#666666" stroke="#666666" points="49,-430 49,-430 147,-430 147,-430 49,-430"/>
<polygon fill="#666666" stroke="#666666" points="49,-415 49,-415 147,-415 147,-415 49,-415"/>
<polygon fill="none" stroke="#666666" points="49,-398 49,-458 147,-458 147,-398 49,-398"/>
</a>
</g>
</g>
<!-- Node4&#45;&gt;Node3 -->
<g id="edge3_Node000003_Node000004" class="edge">
<title>Node4&#45;&gt;Node3</title>
<g id="a_edge3_Node000003_Node000004"><a xlink:title=" ">
<path fill="none" stroke="#63b8ff" d="M98,-387.41C98,-378.47 98,-369.25 98,-361.21"/>
<polygon fill="none" stroke="#63b8ff" points="94.5,-387.69 98,-397.69 101.5,-387.69 94.5,-387.69"/>
</a>
</g>
</g>
<!-- Node5 -->
<g id="Node000005" class="node">
<title>Node5</title>
<g id="a_Node000005"><a xlink:title=" ">
<polygon fill="white" stroke="transparent" points="214,-361 170,-361 170,-312 214,-312 214,-361"/>
<text text-anchor="start" x="175" y="-348.5" font-family="Helvetica,sans-Serif" font-size="10.00">uint8_t</text>
<text text-anchor="start" x="190" y="-333.5" font-family="Helvetica,sans-Serif" font-size="10.00"> </text>
<text text-anchor="start" x="190" y="-318.5" font-family="Helvetica,sans-Serif" font-size="10.00"> </text>
<polygon fill="#666666" stroke="#666666" points="170,-343.5 170,-343.5 214,-343.5 214,-343.5 170,-343.5"/>
<polygon fill="#666666" stroke="#666666" points="170,-328.5 170,-328.5 214,-328.5 214,-328.5 170,-328.5"/>
<polygon fill="none" stroke="#666666" points="170,-312 170,-361 214,-361 214,-312 170,-312"/>
</a>
</g>
</g>
<!-- Node5&#45;&gt;Node1 -->
<g id="edge4_Node000001_Node000005" class="edge">
<title>Node5&#45;&gt;Node1</title>
<g id="a_edge4_Node000001_Node000005"><a xlink:title=" ">
<path fill="none" stroke="#63b8ff" d="M188.29,-311.91C184.92,-293.68 179.07,-268.09 170,-247 161.02,-226.11 148.9,-204.79 136.67,-185.56"/>
<polygon fill="none" stroke="#63b8ff" points="136.61,-185.48 129.99,-182.62 130.08,-175.41 136.7,-178.27 136.61,-185.48"/>
</a>
</g>
<text text-anchor="start" x="187.5" y="-267.5" font-family="Helvetica,sans-Serif" font-size="10.00" fill="grey">+access_level</text>
</g>
</g>
</svg>
