<?xml version="1.0" encoding="UTF-8" standalone="no"?>
<!DOCTYPE svg PUBLIC "-//W3C//DTD SVG 1.1//EN"
 "http://www.w3.org/Graphics/SVG/1.1/DTD/svg11.dtd">
<!-- Generated by graphviz version 14.1.2 (0)
 -->
<!-- Title: rm::ua::Variable Pages: 1 -->
<!--zoomable 511 -->

<svg id="main" version="1.1" xmlns="http://www.w3.org/2000/svg" xmlns:xlink="http://www.w3.org/1999/xlink" xml:space="preserve" onload="init(evt)">

<style type="text/css"><![CDATA[
.node, .edge {opacity: 0.7;}
.node.selected, .edge.selected {opacity: 1;}
.edge:hover path { stroke: red; }
.edge:hover polygon { stroke: red; fill: red; }
]]></style>

<defs>
  <circle id="rim" cx="0" cy="0" r="7"/>
  <circle id="rim2" cx="0" cy="0" r="3.5"/>
  <g id="zoomPlus">
    <use xlink:href="#rim" fill="#404040"><set attributeName="fill" to="#808080" begin="zoomplus.mouseover" end="zoomplus.mouseout"/></use>
    <path d="M-4,0h8M0,-4v8" fill="none" stroke="white" stroke-width="1.5" pointer-events="none"/>
  </g>
  <g id="zoomMin">
    <use xlink:href="#rim" fill="#404040"><set attributeName="fill" to="#808080" begin="zoomminus.mouseover" end="zoomminus.mouseout"/></use>
    <path d="M-4,0h8" fill="none" stroke="white" stroke-width="1.5" pointer-events="none"/>
  </g>
  <g id="arrowUp" transform="translate(30 24)">
    <use xlink:href="#rim"/>
    <path pointer-events="none" fill="none" stroke="white" stroke-width="1.5" d="M0,-3.0v7 M-2.5,-0.5L0,-3.0L2.5,-0.5"/>
  </g>
  <g id="arrowRight" transform="rotate(90) translate(36 -43)">
    <use xlink:href="#rim"/>
    <path pointer-events="none" fill="none" stroke="white" stroke-width="1.5" d="M0,-3.0v7 M-2.5,-0.5L0,-3.0L2.5,-0.5"/>
  </g>
  <g id="arrowDown" transform="rotate(180) translate(-30 -48)">
    <use xlink:href="#rim"/>
    <path pointer-events="none" fill="none" stroke="white" stroke-width="1.5" d="M0,-3.0v7 M-2.5,-0.5L0,-3.0L2.5,-0.5"/>
  </g>
  <g id="arrowLeft" transform="rotate(270) translate(-36 17)">
    <use xlink:href="#rim"/>
    <path pointer-events="none" fill="none" stroke="white" stroke-width="1.5" d="M0,-3.0v7 M-2.5,-0.5L0,-3.0L2.5,-0.5"/>
  </g>
  <g id="resetDef">
    <use xlink:href="#rim2" fill="#404040"><set attributeName="fill" to="#808080" begin="reset.mouseover" end="reset.mouseout"/></use>
  </g>
</defs>
<script type="application/ecmascript">
var viewWidth = 266;
var viewHeight = 511;
var sectionId = 'dynsection-0';
</script>
<script type="application/ecmascript" xlink:href="../../svg.min.js"/>
<svg id="graph" class="graph">
<g id="viewport">
<title>rm::ua::Variable</title>
<!-- Node1 -->
<g id="Node000001" class="node">
<title>Node1</title>
<g id="a_Node000001"><a xlink:title="OPC UA 变量">
<polygon fill="#999999" stroke="none" points="125.62,-256.15 40.12,-256.15 40.12,0 125.62,0 125.62,-256.15"/>
<text xml:space="preserve" text-anchor="start" x="44.25" y="-242.65" font-family="Helvetica,sans-Serif" font-size="10.00">rm::ua::Variable</text>
<text xml:space="preserve" text-anchor="start" x="81.38" y="-225.9" font-family="Helvetica,sans-Serif" font-size="10.00"> </text>
<text xml:space="preserve" text-anchor="start" x="44.12" y="-209.15" font-family="Helvetica,sans-Serif" font-size="10.00">+</text>
<text xml:space="preserve" text-anchor="start" x="56.38" y="-209.15" font-family="Helvetica,sans-Serif" font-size="10.00">Variable()</text>
<text xml:space="preserve" text-anchor="start" x="44.12" y="-192.4" font-family="Helvetica,sans-Serif" font-size="10.00">+</text>
<text xml:space="preserve" text-anchor="start" x="56.38" y="-192.4" font-family="Helvetica,sans-Serif" font-size="10.00">Variable()</text>
<text xml:space="preserve" text-anchor="start" x="44.12" y="-175.65" font-family="Helvetica,sans-Serif" font-size="10.00">+</text>
<text xml:space="preserve" text-anchor="start" x="56.38" y="-175.65" font-family="Helvetica,sans-Serif" font-size="10.00">Variable()</text>
<text xml:space="preserve" text-anchor="start" x="44.12" y="-158.9" font-family="Helvetica,sans-Serif" font-size="10.00">+</text>
<text xml:space="preserve" text-anchor="start" x="56.38" y="-158.9" font-family="Helvetica,sans-Serif" font-size="10.00">Variable()</text>
<text xml:space="preserve" text-anchor="start" x="44.12" y="-142.15" font-family="Helvetica,sans-Serif" font-size="10.00">+</text>
<text xml:space="preserve" text-anchor="start" x="56.38" y="-142.15" font-family="Helvetica,sans-Serif" font-size="10.00">Variable()</text>
<text xml:space="preserve" text-anchor="start" x="44.12" y="-125.4" font-family="Helvetica,sans-Serif" font-size="10.00">+</text>
<text xml:space="preserve" text-anchor="start" x="56.38" y="-125.4" font-family="Helvetica,sans-Serif" font-size="10.00">Variable()</text>
<text xml:space="preserve" text-anchor="start" x="44.12" y="-108.65" font-family="Helvetica,sans-Serif" font-size="10.00">+</text>
<text xml:space="preserve" text-anchor="start" x="56.38" y="-108.65" font-family="Helvetica,sans-Serif" font-size="10.00">operator==()</text>
<text xml:space="preserve" text-anchor="start" x="44.12" y="-91.9" font-family="Helvetica,sans-Serif" font-size="10.00">+</text>
<text xml:space="preserve" text-anchor="start" x="56.38" y="-91.9" font-family="Helvetica,sans-Serif" font-size="10.00">operator!=()</text>
<text xml:space="preserve" text-anchor="start" x="44.12" y="-75.15" font-family="Helvetica,sans-Serif" font-size="10.00">+</text>
<text xml:space="preserve" text-anchor="start" x="56.38" y="-75.15" font-family="Helvetica,sans-Serif" font-size="10.00">empty()</text>
<text xml:space="preserve" text-anchor="start" x="44.12" y="-58.4" font-family="Helvetica,sans-Serif" font-size="10.00">+</text>
<text xml:space="preserve" text-anchor="start" x="56.38" y="-58.4" font-family="Helvetica,sans-Serif" font-size="10.00">data()</text>
<text xml:space="preserve" text-anchor="start" x="56.38" y="-41.65" font-family="Helvetica,sans-Serif" font-size="10.00">和 7 更多...</text>
<text xml:space="preserve" text-anchor="start" x="44.12" y="-24" font-family="Helvetica,sans-Serif" font-size="10.00">+</text>
<text xml:space="preserve" text-anchor="start" x="56.38" y="-24" font-family="Helvetica,sans-Serif" font-size="10.00">makeFrom()</text>
<text xml:space="preserve" text-anchor="start" x="44.12" y="-7.25" font-family="Helvetica,sans-Serif" font-size="10.00">+</text>
<text xml:space="preserve" text-anchor="start" x="56.38" y="-7.25" font-family="Helvetica,sans-Serif" font-size="10.00">cast()</text>
<polygon fill="#666666" stroke="#666666" points="40.12,-237.4 40.12,-237.4 125.62,-237.4 125.62,-237.4 40.12,-237.4"/>
<polygon fill="#666666" stroke="#666666" points="40.12,-220.65 40.12,-220.65 125.62,-220.65 125.62,-220.65 40.12,-220.65"/>
<polygon fill="none" stroke="#666666" points="40.12,0 40.12,-256.15 125.62,-256.15 125.62,0 40.12,0"/>
</a>
</g>
</g>
<!-- Node2 -->
<g id="Node000002" class="node">
<title>Node2</title>
<g id="a_Node000002"><a xlink:title=" ">
<polygon fill="white" stroke="none" points="47.75,-398.65 0,-398.65 0,-344.4 47.75,-344.4 47.75,-398.65"/>
<text xml:space="preserve" text-anchor="start" x="4" y="-385.15" font-family="Helvetica,sans-Serif" font-size="10.00">uint16_t</text>
<text xml:space="preserve" text-anchor="start" x="22.38" y="-368.4" font-family="Helvetica,sans-Serif" font-size="10.00"> </text>
<text xml:space="preserve" text-anchor="start" x="22.38" y="-351.65" font-family="Helvetica,sans-Serif" font-size="10.00"> </text>
<polygon fill="#666666" stroke="#666666" points="0,-379.9 0,-379.9 47.75,-379.9 47.75,-379.9 0,-379.9"/>
<polygon fill="#666666" stroke="#666666" points="0,-363.15 0,-363.15 47.75,-363.15 47.75,-363.15 0,-363.15"/>
<polygon fill="none" stroke="#666666" points="0,-344.4 0,-398.65 47.75,-398.65 47.75,-344.4 0,-344.4"/>
</a>
</g>
</g>
<!-- Node2&#45;&gt;Node1 -->
<g id="edge1_Node000001_Node000002" class="edge">
<title>Node2&#45;&gt;Node1</title>
<g id="a_edge1_Node000001_Node000002"><a xlink:title=" ">
<path fill="none" stroke="#63b8ff" d="M30.19,-344.69C34.86,-325.58 41.62,-297.91 48.75,-268.72"/>
<polygon fill="none" stroke="#63b8ff" points="48.76,-268.67 46.3,-261.89 51.61,-257.01 54.07,-263.79 48.76,-268.67"/>
</a>
</g>
<text xml:space="preserve" text-anchor="start" x="49.36" y="-297.15" font-family="Helvetica,sans-Serif" font-size="10.00" fill="grey">+ns</text>
</g>
<!-- Node3 -->
<g id="Node000003" class="node">
<title>Node3</title>
<g id="a_Node000003"><a xlink:title=" ">
<polygon fill="white" stroke="none" points="122.25,-398.65 65.5,-398.65 65.5,-344.4 122.25,-344.4 122.25,-398.65"/>
<text xml:space="preserve" text-anchor="start" x="69.5" y="-385.15" font-family="Helvetica,sans-Serif" font-size="10.00">std::string</text>
<text xml:space="preserve" text-anchor="start" x="92.38" y="-368.4" font-family="Helvetica,sans-Serif" font-size="10.00"> </text>
<text xml:space="preserve" text-anchor="start" x="92.38" y="-351.65" font-family="Helvetica,sans-Serif" font-size="10.00"> </text>
<polygon fill="#666666" stroke="#666666" points="65.5,-379.9 65.5,-379.9 122.25,-379.9 122.25,-379.9 65.5,-379.9"/>
<polygon fill="#666666" stroke="#666666" points="65.5,-363.15 65.5,-363.15 122.25,-363.15 122.25,-363.15 65.5,-363.15"/>
<polygon fill="none" stroke="#666666" points="65.5,-344.4 65.5,-398.65 122.25,-398.65 122.25,-344.4 65.5,-344.4"/>
</a>
</g>
</g>
<!-- Node3&#45;&gt;Node1 -->
<g id="edge2_Node000001_Node000003" class="edge">
<title>Node3&#45;&gt;Node1</title>
<g id="a_edge2_Node000001_Node000003"><a xlink:title=" ">
<path fill="none" stroke="#63b8ff" d="M87.36,-344.54C86.13,-338.62 85.03,-332.32 84.38,-326.4 82.34,-307.92 81.09,-288.4 80.4,-269.11"/>
<polygon fill="none" stroke="#63b8ff" points="80.4,-269.05 76.23,-263.17 80.05,-257.05 84.22,-262.93 80.4,-269.05"/>
</a>
</g>
<text xml:space="preserve" text-anchor="start" x="87.38" y="-313.9" font-family="Helvetica,sans-Serif" font-size="10.00" fill="grey">+browse_name</text>
<text xml:space="preserve" text-anchor="start" x="87.38" y="-297.15" font-family="Helvetica,sans-Serif" font-size="10.00" fill="grey">+description</text>
<text xml:space="preserve" text-anchor="start" x="87.38" y="-280.4" font-family="Helvetica,sans-Serif" font-size="10.00" fill="grey">+display_name</text>
</g>
<!-- Node4 -->
<g id="Node000004" class="node">
<title>Node4</title>
<g id="a_Node000004"><a xlink:title=" ">
<polygon fill="white" stroke="none" points="141.75,-502.65 46,-502.65 46,-435.65 141.75,-435.65 141.75,-502.65"/>
<text xml:space="preserve" text-anchor="start" x="50" y="-489.15" font-family="Helvetica,sans-Serif" font-size="10.00">std::basic_string&lt;</text>
<text xml:space="preserve" text-anchor="start" x="75.5" y="-476.4" font-family="Helvetica,sans-Serif" font-size="10.00"> Char &gt;</text>
<text xml:space="preserve" text-anchor="start" x="92.38" y="-459.65" font-family="Helvetica,sans-Serif" font-size="10.00"> </text>
<text xml:space="preserve" text-anchor="start" x="92.38" y="-442.9" font-family="Helvetica,sans-Serif" font-size="10.00"> </text>
<polygon fill="#666666" stroke="#666666" points="46,-471.15 46,-471.15 141.75,-471.15 141.75,-471.15 46,-471.15"/>
<polygon fill="#666666" stroke="#666666" points="46,-454.4 46,-454.4 141.75,-454.4 141.75,-454.4 46,-454.4"/>
<polygon fill="none" stroke="#666666" points="46,-435.65 46,-502.65 141.75,-502.65 141.75,-435.65 46,-435.65"/>
</a>
</g>
</g>
<!-- Node4&#45;&gt;Node3 -->
<g id="edge3_Node000003_Node000004" class="edge">
<title>Node4&#45;&gt;Node3</title>
<g id="a_edge3_Node000003_Node000004"><a xlink:title=" ">
<path fill="none" stroke="#63b8ff" d="M93.88,-424.37C93.88,-415.54 93.88,-406.52 93.88,-398.53"/>
<polygon fill="none" stroke="#63b8ff" points="90.38,-424.27 93.88,-434.27 97.38,-424.27 90.38,-424.27"/>
</a>
</g>
</g>
<!-- Node5 -->
<g id="Node000005" class="node">
<title>Node5</title>
<g id="a_Node000005"><a xlink:title=" ">
<polygon fill="white" stroke="none" points="209.75,-398.65 168,-398.65 168,-344.4 209.75,-344.4 209.75,-398.65"/>
<text xml:space="preserve" text-anchor="start" x="172" y="-385.15" font-family="Helvetica,sans-Serif" font-size="10.00">uint8_t</text>
<text xml:space="preserve" text-anchor="start" x="187.38" y="-368.4" font-family="Helvetica,sans-Serif" font-size="10.00"> </text>
<text xml:space="preserve" text-anchor="start" x="187.38" y="-351.65" font-family="Helvetica,sans-Serif" font-size="10.00"> </text>
<polygon fill="#666666" stroke="#666666" points="168,-379.9 168,-379.9 209.75,-379.9 209.75,-379.9 168,-379.9"/>
<polygon fill="#666666" stroke="#666666" points="168,-363.15 168,-363.15 209.75,-363.15 209.75,-363.15 168,-363.15"/>
<polygon fill="none" stroke="#666666" points="168,-344.4 168,-398.65 209.75,-398.65 209.75,-344.4 168,-344.4"/>
</a>
</g>
</g>
<!-- Node5&#45;&gt;Node1 -->
<g id="edge4_Node000001_Node000005" class="edge">
<title>Node5&#45;&gt;Node1</title>
<g id="a_edge4_Node000001_Node000005"><a xlink:title=" ">
<path fill="none" stroke="#63b8ff" d="M185.12,-344.54C181.75,-324.77 175.92,-297.15 166.88,-274.15 157.58,-250.51 144.86,-226.13 132.13,-204.25"/>
<polygon fill="none" stroke="#63b8ff" points="132.07,-204.16 125.57,-201.04 125.95,-193.84 132.45,-196.95 132.07,-204.16"/>
</a>
</g>
<text xml:space="preserve" text-anchor="start" x="184.56" y="-297.15" font-family="Helvetica,sans-Serif" font-size="10.00" fill="grey">+access_level</text>
</g>
</g>
</svg>

<g id="navigator" transform="translate(0 0)" fill="#404254">
  <rect fill="#f2f5e9" fill-opacity="0.5" stroke="#606060" stroke-width=".5" x="0" y="0" width="60" height="60"/>
  <use id="zoomplus" xlink:href="#zoomPlus" x="17" y="9" onmousedown="handleZoom(evt,'in')"/>
  <use id="zoomminus" xlink:href="#zoomMin" x="42" y="9" onmousedown="handleZoom(evt,'out')"/>
  <use id="reset" xlink:href="#resetDef" x="30" y="36" onmousedown="handleReset()"/>
   <use id="arrowup" xlink:href="#arrowUp" x="0" y="0" onmousedown="handlePan(0,-1)"/>
  <use id="arrowright" xlink:href="#arrowRight" x="0" y="0" onmousedown="handlePan(1,0)"/>
  <use id="arrowdown" xlink:href="#arrowDown" x="0" y="0" onmousedown="handlePan(0,1)"/>
  <use id="arrowleft" xlink:href="#arrowLeft" x="0" y="0" onmousedown="handlePan(-1,0)"/>
</g>
<svg viewBox="0 0 15 15" width="100%" height="30px" preserveAspectRatio="xMaxYMin meet">
 <g id="arrow_out" transform="scale(0.3 0.3)">
  <a xlink:href="classrm_1_1ua_1_1Variable__coll__graph_org.svg" target="_base">
   <rect id="button" ry="5" rx="5" y="6" x="6" height="38" width="38"
        fill="#f2f5e9" fill-opacity="0.5" stroke="#606060" stroke-width="1.0"/>
   <path id="arrow"
     d="M 11.500037,31.436501 C 11.940474,20.09759 22.043105,11.32322 32.158766,21.979434 L 37.068811,17.246167 C 37.068811,17.246167 37.088388,32 37.088388,32 L 22.160133,31.978069 C 22.160133,31.978069 26.997745,27.140456 26.997745,27.140456 C 18.528582,18.264221 13.291696,25.230495 11.500037,31.436501 z"
     style="fill:#404040;"/>
  </a>
 </g>
</svg>

<style type='text/css'>
<![CDATA[
[data-mouse-over-selected='false'] { opacity: 0.7; }
[data-mouse-over-selected='true']  { opacity: 1.0; }
]]>
</style>
<script type="application/ecmascript"><![CDATA[
document.addEventListener('DOMContentLoaded', (event) => {
  highlightEdges();
  highlightAdjacentNodes();
});
]]></script>
</svg>
