<?xml version="1.0" encoding="UTF-8" standalone="no"?>
<!DOCTYPE svg PUBLIC "-//W3C//DTD SVG 1.1//EN"
 "http://www.w3.org/Graphics/SVG/1.1/DTD/svg11.dtd">
<!-- Generated by graphviz version 2.43.0 (0)
 -->
<!-- Title: rm::DecideInfo Pages: 1 -->
<svg width="392pt" height="397pt"
 viewBox="0.00 0.00 392.00 397.00" xmlns="http://www.w3.org/2000/svg" xmlns:xlink="http://www.w3.org/1999/xlink">
<g id="graph0" class="graph" transform="scale(1 1) rotate(0) translate(4 393)">
<title>rm::DecideInfo</title>
<!-- Node1 -->
<g id="Node000001" class="node">
<title>Node1</title>
<g id="a_Node000001"><a xlink:title="决策模块信息">
<polygon fill="#999999" stroke="transparent" points="244.5,-49 169.5,-49 169.5,0 244.5,0 244.5,-49"/>
<text text-anchor="start" x="175" y="-36.5" font-family="Helvetica,sans-Serif" font-size="10.00">rm::DecideInfo</text>
<text text-anchor="start" x="205.5" y="-21.5" font-family="Helvetica,sans-Serif" font-size="10.00"> </text>
<text text-anchor="start" x="205.5" y="-6.5" font-family="Helvetica,sans-Serif" font-size="10.00"> </text>
<polygon fill="#666666" stroke="#666666" points="170,-31.5 170,-31.5 245,-31.5 245,-31.5 170,-31.5"/>
<polygon fill="#666666" stroke="#666666" points="170,-16.5 170,-16.5 245,-16.5 245,-16.5 170,-16.5"/>
<polygon fill="none" stroke="#666666" points="169.5,0 169.5,-49 244.5,-49 244.5,0 169.5,0"/>
</a>
</g>
</g>
<!-- Node2 -->
<g id="Node000002" class="node">
<title>Node2</title>
<g id="a_Node000002"><a xlink:title=" ">
<polygon fill="white" stroke="transparent" points="124,-197 0,-197 0,-118 124,-118 124,-197"/>
<text text-anchor="start" x="5" y="-184.5" font-family="Helvetica,sans-Serif" font-size="10.00">std::shared_ptr&lt; tracker &gt;</text>
<text text-anchor="start" x="17.5" y="-169.5" font-family="Helvetica,sans-Serif" font-size="10.00">+</text>
<text text-anchor="start" x="42" y="-169.5" font-family="Helvetica,sans-Serif" font-size="10.00">ptr</text>
<text text-anchor="start" x="17.5" y="-154.5" font-family="Helvetica,sans-Serif" font-size="10.00">+</text>
<text text-anchor="start" x="42" y="-154.5" font-family="Helvetica,sans-Serif" font-size="10.00">ptr</text>
<text text-anchor="start" x="17.5" y="-139.5" font-family="Helvetica,sans-Serif" font-size="10.00">+</text>
<text text-anchor="start" x="42" y="-139.5" font-family="Helvetica,sans-Serif" font-size="10.00">operator&#45;&gt;()</text>
<text text-anchor="start" x="17.5" y="-124.5" font-family="Helvetica,sans-Serif" font-size="10.00">+</text>
<text text-anchor="start" x="42" y="-124.5" font-family="Helvetica,sans-Serif" font-size="10.00">operator&#45;&gt;()</text>
<polygon fill="#666666" stroke="#666666" points="0,-179.5 0,-179.5 124,-179.5 124,-179.5 0,-179.5"/>
<polygon fill="#666666" stroke="#666666" points="0,-149.5 0,-149.5 40,-149.5 40,-149.5 0,-149.5"/>
<polygon fill="#666666" stroke="#666666" points="40,-149.5 40,-149.5 124,-149.5 124,-149.5 40,-149.5"/>
<polygon fill="none" stroke="#666666" points="0,-118 0,-197 124,-197 124,-118 0,-118"/>
</a>
</g>
</g>
<!-- Node2&#45;&gt;Node1 -->
<g id="edge1_Node000001_Node000002" class="edge">
<title>Node2&#45;&gt;Node1</title>
<g id="a_edge1_Node000001_Node000002"><a xlink:title=" ">
<path fill="none" stroke="#63b8ff" d="M80.36,-117.7C89.99,-100.49 103.1,-81 119,-67 130.29,-57.06 144.37,-49.01 157.94,-42.74"/>
<polygon fill="none" stroke="#63b8ff" points="158.13,-42.66 162.05,-36.6 169.15,-37.89 165.23,-43.95 158.13,-42.66"/>
</a>
</g>
<text text-anchor="middle" x="136" y="-81" font-family="Helvetica,sans-Serif" font-size="10.00" fill="grey"> +target</text>
</g>
<!-- Node3 -->
<g id="Node000003" class="node">
<title>Node3</title>
<g id="a_Node000003"><a xlink:title=" ">
<polygon fill="white" stroke="transparent" points="112,-293 12,-293 12,-244 112,-244 112,-293"/>
<text text-anchor="start" x="17" y="-280.5" font-family="Helvetica,sans-Serif" font-size="10.00">std::shared_ptr&lt; T &gt;</text>
<text text-anchor="start" x="60" y="-265.5" font-family="Helvetica,sans-Serif" font-size="10.00"> </text>
<text text-anchor="start" x="23.5" y="-250.5" font-family="Helvetica,sans-Serif" font-size="10.00">+</text>
<text text-anchor="start" x="42" y="-250.5" font-family="Helvetica,sans-Serif" font-size="10.00">operator&#45;&gt;()</text>
<polygon fill="#666666" stroke="#666666" points="12,-275.5 12,-275.5 112,-275.5 112,-275.5 12,-275.5"/>
<polygon fill="#666666" stroke="#666666" points="12,-260.5 12,-260.5 112,-260.5 112,-260.5 12,-260.5"/>
<polygon fill="none" stroke="#666666" points="12,-244 12,-293 112,-293 112,-244 12,-244"/>
</a>
</g>
</g>
<!-- Node3&#45;&gt;Node2 -->
<g id="edge2_Node000002_Node000003" class="edge">
<title>Node3&#45;&gt;Node2</title>
<g id="a_edge2_Node000002_Node000003"><a xlink:title=" ">
<path fill="none" stroke="orange" d="M62,-233.69C62,-222.1 62,-209.04 62,-197.1"/>
<polygon fill="orange" stroke="orange" points="58.5,-233.85 62,-243.85 65.5,-233.85 58.5,-233.85"/>
</a>
</g>
<text text-anchor="middle" x="88" y="-218" font-family="Helvetica,sans-Serif" font-size="10.00" fill="grey"> &lt; tracker &gt;</text>
</g>
<!-- Node4 -->
<g id="Node000004" class="node">
<title>Node4</title>
<g id="a_Node000004"><a xlink:title=" ">
<polygon fill="white" stroke="transparent" points="70.5,-389 53.5,-389 53.5,-340 70.5,-340 70.5,-389"/>
<text text-anchor="start" x="59" y="-376.5" font-family="Helvetica,sans-Serif" font-size="10.00">T</text>
<text text-anchor="start" x="60.5" y="-361.5" font-family="Helvetica,sans-Serif" font-size="10.00"> </text>
<text text-anchor="start" x="60.5" y="-346.5" font-family="Helvetica,sans-Serif" font-size="10.00"> </text>
<polygon fill="#666666" stroke="#666666" points="54,-371.5 54,-371.5 71,-371.5 71,-371.5 54,-371.5"/>
<polygon fill="#666666" stroke="#666666" points="54,-356.5 54,-356.5 71,-356.5 71,-356.5 54,-356.5"/>
<polygon fill="none" stroke="#666666" points="53.5,-340 53.5,-389 70.5,-389 70.5,-340 53.5,-340"/>
</a>
</g>
</g>
<!-- Node4&#45;&gt;Node3 -->
<g id="edge3_Node000003_Node000004" class="edge">
<title>Node4&#45;&gt;Node3</title>
<g id="a_edge3_Node000003_Node000004"><a xlink:title=" ">
<path fill="none" stroke="#63b8ff" d="M62,-339.78C62,-329.32 62,-316.79 62,-305.23"/>
<polygon fill="none" stroke="#63b8ff" points="62,-305.21 58,-299.21 62,-293.21 66,-299.21 62,-305.21"/>
</a>
</g>
<text text-anchor="middle" x="72.5" y="-314" font-family="Helvetica,sans-Serif" font-size="10.00" fill="grey"> +ptr</text>
</g>
<!-- Node5 -->
<g id="Node000005" class="node">
<title>Node5</title>
<g id="a_Node000005"><a xlink:title=" ">
<polygon fill="white" stroke="transparent" points="183.5,-182 142.5,-182 142.5,-133 183.5,-133 183.5,-182"/>
<text text-anchor="start" x="148" y="-169.5" font-family="Helvetica,sans-Serif" font-size="10.00">Point2f</text>
<text text-anchor="start" x="161.5" y="-154.5" font-family="Helvetica,sans-Serif" font-size="10.00"> </text>
<text text-anchor="start" x="161.5" y="-139.5" font-family="Helvetica,sans-Serif" font-size="10.00"> </text>
<polygon fill="#666666" stroke="#666666" points="143,-164.5 143,-164.5 184,-164.5 184,-164.5 143,-164.5"/>
<polygon fill="#666666" stroke="#666666" points="143,-149.5 143,-149.5 184,-149.5 184,-149.5 143,-149.5"/>
<polygon fill="none" stroke="#666666" points="142.5,-133 142.5,-182 183.5,-182 183.5,-133 142.5,-133"/>
</a>
</g>
</g>
<!-- Node5&#45;&gt;Node1 -->
<g id="edge4_Node000001_Node000005" class="edge">
<title>Node5&#45;&gt;Node1</title>
<g id="a_edge4_Node000001_Node000005"><a xlink:title=" ">
<path fill="none" stroke="#63b8ff" d="M158.42,-132.67C155.95,-114.01 155.02,-87.83 164,-67 165.22,-64.17 166.74,-61.43 168.47,-58.81"/>
<polygon fill="none" stroke="#63b8ff" points="168.56,-58.7 169.15,-51.51 176.01,-49.29 175.42,-56.48 168.56,-58.7"/>
</a>
</g>
<text text-anchor="middle" x="196.5" y="-92" font-family="Helvetica,sans-Serif" font-size="10.00" fill="grey"> +exp_angle</text>
<text text-anchor="middle" x="196.5" y="-81" font-family="Helvetica,sans-Serif" font-size="10.00" fill="grey">+exp_center2d</text>
<text text-anchor="middle" x="196.5" y="-70" font-family="Helvetica,sans-Serif" font-size="10.00" fill="grey">+shoot_center</text>
</g>
<!-- Node6 -->
<g id="Node000006" class="node">
<title>Node6</title>
<g id="a_Node000006"><a xlink:title=" ">
<polygon fill="white" stroke="transparent" points="271.5,-182 230.5,-182 230.5,-133 271.5,-133 271.5,-182"/>
<text text-anchor="start" x="236" y="-169.5" font-family="Helvetica,sans-Serif" font-size="10.00">Point3f</text>
<text text-anchor="start" x="249.5" y="-154.5" font-family="Helvetica,sans-Serif" font-size="10.00"> </text>
<text text-anchor="start" x="249.5" y="-139.5" font-family="Helvetica,sans-Serif" font-size="10.00"> </text>
<polygon fill="#666666" stroke="#666666" points="231,-164.5 231,-164.5 272,-164.5 272,-164.5 231,-164.5"/>
<polygon fill="#666666" stroke="#666666" points="231,-149.5 231,-149.5 272,-149.5 272,-149.5 231,-149.5"/>
<polygon fill="none" stroke="#666666" points="230.5,-133 230.5,-182 271.5,-182 271.5,-133 230.5,-133"/>
</a>
</g>
</g>
<!-- Node6&#45;&gt;Node1 -->
<g id="edge5_Node000001_Node000006" class="edge">
<title>Node6&#45;&gt;Node1</title>
<g id="a_edge5_Node000001_Node000006"><a xlink:title=" ">
<path fill="none" stroke="#63b8ff" d="M246.84,-132.84C243.23,-114.51 237.27,-88.68 229,-67 228.11,-64.68 227.13,-62.32 226.08,-59.97"/>
<polygon fill="none" stroke="#63b8ff" points="226.07,-59.96 219.86,-56.31 220.83,-49.17 227.05,-52.82 226.07,-59.96"/>
</a>
</g>
<text text-anchor="middle" x="272" y="-81" font-family="Helvetica,sans-Serif" font-size="10.00" fill="grey"> +exp_center3d</text>
</g>
<!-- Node7 -->
<g id="Node000007" class="node">
<title>Node7</title>
<g id="a_Node000007"><a xlink:title=" ">
<polygon fill="white" stroke="transparent" points="356.5,-182 327.5,-182 327.5,-133 356.5,-133 356.5,-182"/>
<text text-anchor="start" x="333" y="-169.5" font-family="Helvetica,sans-Serif" font-size="10.00">bool</text>
<text text-anchor="start" x="340.5" y="-154.5" font-family="Helvetica,sans-Serif" font-size="10.00"> </text>
<text text-anchor="start" x="340.5" y="-139.5" font-family="Helvetica,sans-Serif" font-size="10.00"> </text>
<polygon fill="#666666" stroke="#666666" points="328,-164.5 328,-164.5 357,-164.5 357,-164.5 328,-164.5"/>
<polygon fill="#666666" stroke="#666666" points="328,-149.5 328,-149.5 357,-149.5 357,-149.5 328,-149.5"/>
<polygon fill="none" stroke="#666666" points="327.5,-133 327.5,-182 356.5,-182 356.5,-133 327.5,-133"/>
</a>
</g>
</g>
<!-- Node7&#45;&gt;Node1 -->
<g id="edge6_Node000001_Node000007" class="edge">
<title>Node7&#45;&gt;Node1</title>
<g id="a_edge6_Node000001_Node000007"><a xlink:title=" ">
<path fill="none" stroke="#63b8ff" d="M338.98,-132.75C335.3,-112.88 327.27,-84.96 310,-67 295.62,-52.04 275.12,-42.32 256.19,-36.08"/>
<polygon fill="none" stroke="#63b8ff" points="256.17,-36.08 249.27,-38.19 244.67,-32.63 251.57,-30.52 256.17,-36.08"/>
</a>
</g>
<text text-anchor="middle" x="356.5" y="-81" font-family="Helvetica,sans-Serif" font-size="10.00" fill="grey"> +can_shoot</text>
</g>
</g>
</svg>
