<?xml version="1.0" encoding="UTF-8" standalone="no"?>
<!DOCTYPE svg PUBLIC "-//W3C//DTD SVG 1.1//EN"
 "http://www.w3.org/Graphics/SVG/1.1/DTD/svg11.dtd">
<!-- Generated by graphviz version 2.43.0 (0)
 -->
<!-- Title: rm::lpss::msg::Twist Pages: 1 -->
<svg width="118pt" height="366pt"
 viewBox="0.00 0.00 118.00 366.00" xmlns="http://www.w3.org/2000/svg" xmlns:xlink="http://www.w3.org/1999/xlink">
<g id="graph0" class="graph" transform="scale(1 1) rotate(0) translate(4 362)">
<title>rm::lpss::msg::Twist</title>
<!-- Node1 -->
<g id="Node000001" class="node">
<title>Node1</title>
<g id="a_Node000001"><a xlink:title="Twist 消息类型：geometry/Twist">
<polygon fill="#999999" stroke="transparent" points="105,-79 5,-79 5,0 105,0 105,-79"/>
<text text-anchor="start" x="10" y="-66.5" font-family="Helvetica,sans-Serif" font-size="10.00">rm::lpss::msg::Twist</text>
<text text-anchor="start" x="53" y="-51.5" font-family="Helvetica,sans-Serif" font-size="10.00"> </text>
<text text-anchor="start" x="12.5" y="-36.5" font-family="Helvetica,sans-Serif" font-size="10.00">+</text>
<text text-anchor="start" x="27" y="-36.5" font-family="Helvetica,sans-Serif" font-size="10.00">serialize()</text>
<text text-anchor="start" x="12.5" y="-21.5" font-family="Helvetica,sans-Serif" font-size="10.00">+</text>
<text text-anchor="start" x="27" y="-21.5" font-family="Helvetica,sans-Serif" font-size="10.00">compact_size()</text>
<text text-anchor="start" x="12.5" y="-6.5" font-family="Helvetica,sans-Serif" font-size="10.00">+</text>
<text text-anchor="start" x="27" y="-6.5" font-family="Helvetica,sans-Serif" font-size="10.00">deserialize()</text>
<polygon fill="#666666" stroke="#666666" points="5,-61.5 5,-61.5 105,-61.5 105,-61.5 5,-61.5"/>
<polygon fill="#666666" stroke="#666666" points="5,-46.5 5,-46.5 105,-46.5 105,-46.5 5,-46.5"/>
<polygon fill="none" stroke="#666666" points="5,0 5,-79 105,-79 105,0 5,0"/>
</a>
</g>
</g>
<!-- Node2 -->
<g id="Node000002" class="node">
<title>Node2</title>
<g id="a_Node000002"><a xlink:href="../../dd/d69/classrm_1_1lpss_1_1msg_1_1Vector3.html" target="_top" xlink:title="Vector3 消息类型：geometry/Vector3">
<polygon fill="white" stroke="transparent" points="110,-226 0,-226 0,-147 110,-147 110,-226"/>
<text text-anchor="start" x="5" y="-213.5" font-family="Helvetica,sans-Serif" font-size="10.00">rm::lpss::msg::Vector3</text>
<text text-anchor="start" x="53" y="-198.5" font-family="Helvetica,sans-Serif" font-size="10.00"> </text>
<text text-anchor="start" x="10" y="-183.5" font-family="Helvetica,sans-Serif" font-size="10.00">+</text>
<text text-anchor="start" x="27" y="-183.5" font-family="Helvetica,sans-Serif" font-size="10.00">serialize()</text>
<text text-anchor="start" x="10" y="-168.5" font-family="Helvetica,sans-Serif" font-size="10.00">+</text>
<text text-anchor="start" x="27" y="-168.5" font-family="Helvetica,sans-Serif" font-size="10.00">compact_size()</text>
<text text-anchor="start" x="10" y="-153.5" font-family="Helvetica,sans-Serif" font-size="10.00">+</text>
<text text-anchor="start" x="27" y="-153.5" font-family="Helvetica,sans-Serif" font-size="10.00">deserialize()</text>
<polygon fill="#666666" stroke="#666666" points="0,-208.5 0,-208.5 110,-208.5 110,-208.5 0,-208.5"/>
<polygon fill="#666666" stroke="#666666" points="0,-193.5 0,-193.5 110,-193.5 110,-193.5 0,-193.5"/>
<polygon fill="none" stroke="#666666" points="0,-147 0,-226 110,-226 110,-147 0,-147"/>
</a>
</g>
</g>
<!-- Node2&#45;&gt;Node1 -->
<g id="edge1_Node000001_Node000002" class="edge">
<title>Node2&#45;&gt;Node1</title>
<g id="a_edge1_Node000001_Node000002"><a xlink:title=" ">
<path fill="none" stroke="#63b8ff" d="M55,-146.64C55,-129.67 55,-109.54 55,-91.39"/>
<polygon fill="none" stroke="#63b8ff" points="55,-91.21 51,-85.21 55,-79.21 59,-85.21 55,-91.21"/>
</a>
</g>
<text text-anchor="start" x="58" y="-118" font-family="Helvetica,sans-Serif" font-size="10.00" fill="grey">+angular</text>
<text text-anchor="start" x="58" y="-103" font-family="Helvetica,sans-Serif" font-size="10.00" fill="grey">+linear</text>
</g>
<!-- Node3 -->
<g id="Node000003" class="node">
<title>Node3</title>
<g id="a_Node000003"><a xlink:title=" ">
<polygon fill="white" stroke="transparent" points="74.5,-358 35.5,-358 35.5,-309 74.5,-309 74.5,-358"/>
<text text-anchor="start" x="41" y="-345.5" font-family="Helvetica,sans-Serif" font-size="10.00">double</text>
<text text-anchor="start" x="53.5" y="-330.5" font-family="Helvetica,sans-Serif" font-size="10.00"> </text>
<text text-anchor="start" x="53.5" y="-315.5" font-family="Helvetica,sans-Serif" font-size="10.00"> </text>
<polygon fill="#666666" stroke="#666666" points="36,-340.5 36,-340.5 75,-340.5 75,-340.5 36,-340.5"/>
<polygon fill="#666666" stroke="#666666" points="36,-325.5 36,-325.5 75,-325.5 75,-325.5 36,-325.5"/>
<polygon fill="none" stroke="#666666" points="35.5,-309 35.5,-358 74.5,-358 74.5,-309 35.5,-309"/>
</a>
</g>
</g>
<!-- Node3&#45;&gt;Node2 -->
<g id="edge2_Node000002_Node000003" class="edge">
<title>Node3&#45;&gt;Node2</title>
<g id="a_edge2_Node000002_Node000003"><a xlink:title=" ">
<path fill="none" stroke="#63b8ff" d="M55,-308.88C55,-289.81 55,-262.31 55,-238.3"/>
<polygon fill="none" stroke="#63b8ff" points="55,-238.12 51,-232.12 55,-226.12 59,-232.12 55,-238.12"/>
</a>
</g>
<text text-anchor="start" x="58" y="-279.5" font-family="Helvetica,sans-Serif" font-size="10.00" fill="grey">+x</text>
<text text-anchor="start" x="58" y="-264.5" font-family="Helvetica,sans-Serif" font-size="10.00" fill="grey">+y</text>
<text text-anchor="start" x="58" y="-249.5" font-family="Helvetica,sans-Serif" font-size="10.00" fill="grey">+z</text>
</g>
</g>
</svg>
