<?xml version="1.0" encoding="UTF-8" standalone="no"?>
<!DOCTYPE svg PUBLIC "-//W3C//DTD SVG 1.1//EN"
 "http://www.w3.org/Graphics/SVG/1.1/DTD/svg11.dtd">
<!-- Generated by graphviz version 2.43.0 (0)
 -->
<!-- Title: rmvl/detector/armor_detector.h Pages: 1 -->
<svg width="1219pt" height="500pt"
 viewBox="0.00 0.00 1218.50 500.00" xmlns="http://www.w3.org/2000/svg" xmlns:xlink="http://www.w3.org/1999/xlink">
<g id="graph0" class="graph" transform="scale(1 1) rotate(0) translate(4 496)">
<title>rmvl/detector/armor_detector.h</title>
<!-- Node1 -->
<g id="Node000001" class="node">
<title>Node1</title>
<g id="a_Node000001"><a xlink:title="装甲板识别派生类头文件">
<polygon fill="#999999" stroke="#666666" points="976.5,-492 861.5,-492 861.5,-462 976.5,-462 976.5,-492"/>
<text text-anchor="start" x="869.5" y="-480" font-family="Helvetica,sans-Serif" font-size="10.00">rmvl/detector/armor</text>
<text text-anchor="middle" x="919" y="-469" font-family="Helvetica,sans-Serif" font-size="10.00">_detector.h</text>
</a>
</g>
</g>
<!-- Node2 -->
<g id="Node000002" class="node">
<title>Node2</title>
<g id="a_Node000002"><a xlink:href="../../d5/d9f/detector_8h.html" target="_top" xlink:title="抽象识别类头文件">
<polygon fill="white" stroke="#666666" points="798.5,-426 733.5,-426 733.5,-407 798.5,-407 798.5,-426"/>
<text text-anchor="middle" x="766" y="-414" font-family="Helvetica,sans-Serif" font-size="10.00">detector.h</text>
</a>
</g>
</g>
<!-- Node1&#45;&gt;Node2 -->
<g id="edge1_Node000001_Node000002" class="edge">
<title>Node1&#45;&gt;Node2</title>
<g id="a_edge1_Node000001_Node000002"><a xlink:title=" ">
<path fill="none" stroke="#63b8ff" d="M882.35,-461.99C856.71,-452.18 822.78,-439.21 798.18,-429.81"/>
<polygon fill="#63b8ff" stroke="#63b8ff" points="799.19,-426.44 788.59,-426.14 796.69,-432.98 799.19,-426.44"/>
</a>
</g>
</g>
<!-- Node31 -->
<g id="Node000031" class="node">
<title>Node31</title>
<g id="a_Node000031"><a xlink:href="../../d5/d47/ort_8h.html" target="_top" xlink:title="the deployment library header file of the ONNXruntime (Ort)">
<polygon fill="white" stroke="#666666" points="959,-426 879,-426 879,-407 959,-407 959,-426"/>
<text text-anchor="middle" x="919" y="-414" font-family="Helvetica,sans-Serif" font-size="10.00">rmvl/ml/ort.h</text>
</a>
</g>
</g>
<!-- Node1&#45;&gt;Node31 -->
<g id="edge33_Node000001_Node000031" class="edge">
<title>Node1&#45;&gt;Node31</title>
<g id="a_edge33_Node000001_Node000031"><a xlink:title=" ">
<path fill="none" stroke="#63b8ff" d="M919,-461.84C919,-454.21 919,-444.7 919,-436.45"/>
<polygon fill="#63b8ff" stroke="#63b8ff" points="922.5,-436.27 919,-426.27 915.5,-436.27 922.5,-436.27"/>
</a>
</g>
</g>
<!-- Node34 -->
<g id="Node000034" class="node">
<title>Node34</title>
<g id="a_Node000034"><a xlink:href="../../d5/dea/tracker_2planar__tracker_8h.html" target="_top" xlink:title="平面目标追踪器头文件">
<polygon fill="white" stroke="#666666" points="1173,-371 1063,-371 1063,-341 1173,-341 1173,-371"/>
<text text-anchor="start" x="1071" y="-359" font-family="Helvetica,sans-Serif" font-size="10.00">rmvl/tracker/planar</text>
<text text-anchor="middle" x="1118" y="-348" font-family="Helvetica,sans-Serif" font-size="10.00">_tracker.h</text>
</a>
</g>
</g>
<!-- Node1&#45;&gt;Node34 -->
<g id="edge37_Node000001_Node000034" class="edge">
<title>Node1&#45;&gt;Node34</title>
<g id="a_edge37_Node000001_Node000034"><a xlink:title=" ">
<path fill="none" stroke="#63b8ff" d="M942.61,-461.88C978.22,-440.59 1045.74,-400.21 1085.82,-376.24"/>
<polygon fill="#63b8ff" stroke="#63b8ff" points="1087.64,-379.24 1094.42,-371.1 1084.04,-373.23 1087.64,-379.24"/>
</a>
</g>
</g>
<!-- Node3 -->
<g id="Node000003" class="node">
<title>Node3</title>
<g id="a_Node000003"><a xlink:href="../../d9/dd1/group_8h.html" target="_top" xlink:title="序列组抽象头文件">
<polygon fill="white" stroke="#666666" points="685,-365.5 575,-365.5 575,-346.5 685,-346.5 685,-365.5"/>
<text text-anchor="middle" x="630" y="-353.5" font-family="Helvetica,sans-Serif" font-size="10.00">rmvl/group/group.h</text>
</a>
</g>
</g>
<!-- Node2&#45;&gt;Node3 -->
<g id="edge2_Node000002_Node000003" class="edge">
<title>Node2&#45;&gt;Node3</title>
<g id="a_edge2_Node000002_Node000003"><a xlink:title=" ">
<path fill="none" stroke="#63b8ff" d="M746.22,-406.99C723.36,-397.16 685.51,-380.88 659.24,-369.58"/>
<polygon fill="#63b8ff" stroke="#63b8ff" points="660.37,-366.25 649.8,-365.52 657.6,-372.68 660.37,-366.25"/>
</a>
</g>
</g>
<!-- Node29 -->
<g id="Node000029" class="node">
<title>Node29</title>
<g id="a_Node000029"><a xlink:href="../../d2/d4c/pretreat_8hpp.html" target="_top" xlink:title="图像预处理模块">
<polygon fill="white" stroke="#666666" points="829,-365.5 703,-365.5 703,-346.5 829,-346.5 829,-365.5"/>
<text text-anchor="middle" x="766" y="-353.5" font-family="Helvetica,sans-Serif" font-size="10.00">rmvl/core/pretreat.hpp</text>
</a>
</g>
</g>
<!-- Node2&#45;&gt;Node29 -->
<g id="edge31_Node000002_Node000029" class="edge">
<title>Node2&#45;&gt;Node29</title>
<g id="a_edge31_Node000002_Node000029"><a xlink:title=" ">
<path fill="none" stroke="#63b8ff" d="M766,-406.87C766,-398.75 766,-386.31 766,-375.89"/>
<polygon fill="#63b8ff" stroke="#63b8ff" points="769.5,-375.67 766,-365.67 762.5,-375.67 769.5,-375.67"/>
</a>
</g>
</g>
<!-- Node4 -->
<g id="Node000004" class="node">
<title>Node4</title>
<g id="a_Node000004"><a xlink:href="../../dc/ded/tracker_8h.html" target="_top" xlink:title="追踪器抽象头文件">
<polygon fill="white" stroke="#666666" points="701.5,-305 580.5,-305 580.5,-286 701.5,-286 701.5,-305"/>
<text text-anchor="middle" x="641" y="-293" font-family="Helvetica,sans-Serif" font-size="10.00">rmvl/tracker/tracker.h</text>
</a>
</g>
</g>
<!-- Node3&#45;&gt;Node4 -->
<g id="edge3_Node000003_Node000004" class="edge">
<title>Node3&#45;&gt;Node4</title>
<g id="a_edge3_Node000003_Node000004"><a xlink:title=" ">
<path fill="none" stroke="#63b8ff" d="M631.62,-346.37C633.17,-338.16 635.54,-325.54 637.51,-315.05"/>
<polygon fill="#63b8ff" stroke="#63b8ff" points="640.96,-315.64 639.37,-305.17 634.08,-314.35 640.96,-315.64"/>
</a>
</g>
</g>
<!-- Node5 -->
<g id="Node000005" class="node">
<title>Node5</title>
<g id="a_Node000005"><a xlink:title=" ">
<polygon fill="#e0e0e0" stroke="#999999" points="664.5,-244.5 617.5,-244.5 617.5,-225.5 664.5,-225.5 664.5,-244.5"/>
<text text-anchor="middle" x="641" y="-232.5" font-family="Helvetica,sans-Serif" font-size="10.00">deque</text>
</a>
</g>
</g>
<!-- Node4&#45;&gt;Node5 -->
<g id="edge4_Node000004_Node000005" class="edge">
<title>Node4&#45;&gt;Node5</title>
<g id="a_edge4_Node000004_Node000005"><a xlink:title=" ">
<path fill="none" stroke="#63b8ff" d="M641,-285.87C641,-277.75 641,-265.31 641,-254.89"/>
<polygon fill="#63b8ff" stroke="#63b8ff" points="644.5,-254.67 641,-244.67 637.5,-254.67 644.5,-254.67"/>
</a>
</g>
</g>
<!-- Node6 -->
<g id="Node000006" class="node">
<title>Node6</title>
<g id="a_Node000006"><a xlink:href="../../d8/d36/combo_8h.html" target="_top" xlink:title="the combination of the features header file">
<polygon fill="white" stroke="#666666" points="809,-244.5 689,-244.5 689,-225.5 809,-225.5 809,-244.5"/>
<text text-anchor="middle" x="749" y="-232.5" font-family="Helvetica,sans-Serif" font-size="10.00">rmvl/combo/combo.h</text>
</a>
</g>
</g>
<!-- Node4&#45;&gt;Node6 -->
<g id="edge5_Node000004_Node000006" class="edge">
<title>Node4&#45;&gt;Node6</title>
<g id="a_edge5_Node000004_Node000006"><a xlink:title=" ">
<path fill="none" stroke="#63b8ff" d="M656.94,-285.87C674.64,-276.28 703.46,-260.67 724.14,-249.47"/>
<polygon fill="#63b8ff" stroke="#63b8ff" points="725.87,-252.51 733,-244.67 722.54,-246.35 725.87,-252.51"/>
</a>
</g>
</g>
<!-- Node7 -->
<g id="Node000007" class="node">
<title>Node7</title>
<g id="a_Node000007"><a xlink:href="../../d3/d7e/camutils_8hpp.html" target="_top" xlink:title=" ">
<polygon fill="white" stroke="#666666" points="1088.5,-184 943.5,-184 943.5,-165 1088.5,-165 1088.5,-184"/>
<text text-anchor="middle" x="1016" y="-172" font-family="Helvetica,sans-Serif" font-size="10.00">rmvl/camera/camutils.hpp</text>
</a>
</g>
</g>
<!-- Node6&#45;&gt;Node7 -->
<g id="edge6_Node000006_Node000007" class="edge">
<title>Node6&#45;&gt;Node7</title>
<g id="a_edge6_Node000006_Node000007"><a xlink:title=" ">
<path fill="none" stroke="#63b8ff" d="M787.82,-225.49C835.28,-215.1 915.63,-197.49 967.21,-186.19"/>
<polygon fill="#63b8ff" stroke="#63b8ff" points="968.11,-189.58 977.13,-184.02 966.61,-182.74 968.11,-189.58"/>
</a>
</g>
</g>
<!-- Node9 -->
<g id="Node000009" class="node">
<title>Node9</title>
<g id="a_Node000009"><a xlink:href="../../d4/d78/math_8hpp.html" target="_top" xlink:title="基础数学库">
<polygon fill="white" stroke="#666666" points="426.5,-184 313.5,-184 313.5,-165 426.5,-165 426.5,-184"/>
<text text-anchor="middle" x="370" y="-172" font-family="Helvetica,sans-Serif" font-size="10.00">rmvl/core/math.hpp</text>
</a>
</g>
</g>
<!-- Node6&#45;&gt;Node9 -->
<g id="edge8_Node000006_Node000009" class="edge">
<title>Node6&#45;&gt;Node9</title>
<g id="a_edge8_Node000006_Node000009"><a xlink:title=" ">
<path fill="none" stroke="#63b8ff" d="M704.04,-225.44C693.84,-223.57 683.06,-221.66 673,-220 591.88,-206.58 498.2,-193.13 436.74,-184.59"/>
<polygon fill="#63b8ff" stroke="#63b8ff" points="437.16,-181.12 426.78,-183.21 436.2,-188.05 437.16,-181.12"/>
</a>
</g>
</g>
<!-- Node22 -->
<g id="Node000022" class="node">
<title>Node22</title>
<g id="a_Node000022"><a xlink:href="../../dd/de3/types_8hpp.html" target="_top" xlink:title="常用状态类型定义">
<polygon fill="white" stroke="#666666" points="798,-129 708,-129 708,-110 798,-110 798,-129"/>
<text text-anchor="middle" x="753" y="-117" font-family="Helvetica,sans-Serif" font-size="10.00">rmvl/types.hpp</text>
</a>
</g>
</g>
<!-- Node6&#45;&gt;Node22 -->
<g id="edge21_Node000006_Node000022" class="edge">
<title>Node6&#45;&gt;Node22</title>
<g id="a_edge21_Node000006_Node000022"><a xlink:title=" ">
<path fill="none" stroke="#63b8ff" d="M749.3,-225.47C749.94,-207.23 751.46,-164.07 752.34,-139.14"/>
<polygon fill="#63b8ff" stroke="#63b8ff" points="755.84,-139.25 752.7,-129.13 748.85,-139 755.84,-139.25"/>
</a>
</g>
</g>
<!-- Node23 -->
<g id="Node000023" class="node">
<title>Node23</title>
<g id="a_Node000023"><a xlink:href="../../d5/d60/dataio_8hpp.html" target="_top" xlink:title="IMU 数据">
<polygon fill="white" stroke="#666666" points="178,-184 60,-184 60,-165 178,-165 178,-184"/>
<text text-anchor="middle" x="119" y="-172" font-family="Helvetica,sans-Serif" font-size="10.00">rmvl/core/dataio.hpp</text>
</a>
</g>
</g>
<!-- Node6&#45;&gt;Node23 -->
<g id="edge23_Node000006_Node000023" class="edge">
<title>Node6&#45;&gt;Node23</title>
<g id="a_edge23_Node000006_Node000023"><a xlink:title=" ">
<path fill="none" stroke="#63b8ff" d="M706.91,-225.46C695.91,-223.44 684.04,-221.46 673,-220 499.41,-197.1 293.57,-184.31 188.41,-178.8"/>
<polygon fill="#63b8ff" stroke="#63b8ff" points="188.41,-175.29 178.24,-178.27 188.05,-182.28 188.41,-175.29"/>
</a>
</g>
</g>
<!-- Node26 -->
<g id="Node000026" class="node">
<title>Node26</title>
<g id="a_Node000026"><a xlink:href="../../d2/d74/feature_8h.html" target="_top" xlink:title="feature class header">
<polygon fill="white" stroke="#666666" points="925.5,-184 800.5,-184 800.5,-165 925.5,-165 925.5,-184"/>
<text text-anchor="middle" x="863" y="-172" font-family="Helvetica,sans-Serif" font-size="10.00">rmvl/feature/feature.h</text>
</a>
</g>
</g>
<!-- Node6&#45;&gt;Node26 -->
<g id="edge27_Node000006_Node000026" class="edge">
<title>Node6&#45;&gt;Node26</title>
<g id="a_edge27_Node000006_Node000026"><a xlink:title=" ">
<path fill="none" stroke="#63b8ff" d="M765.82,-225.37C784.6,-215.73 815.2,-200.03 837.05,-188.81"/>
<polygon fill="#63b8ff" stroke="#63b8ff" points="838.81,-191.85 846.11,-184.17 835.61,-185.62 838.81,-191.85"/>
</a>
</g>
</g>
<!-- Node8 -->
<g id="Node000008" class="node">
<title>Node8</title>
<g id="a_Node000008"><a xlink:title=" ">
<polygon fill="#e0e0e0" stroke="#999999" points="1167.5,-129 1064.5,-129 1064.5,-110 1167.5,-110 1167.5,-129"/>
<text text-anchor="middle" x="1116" y="-117" font-family="Helvetica,sans-Serif" font-size="10.00">opencv2/core.hpp</text>
</a>
</g>
</g>
<!-- Node7&#45;&gt;Node8 -->
<g id="edge7_Node000007_Node000008" class="edge">
<title>Node7&#45;&gt;Node8</title>
<g id="a_edge7_Node000007_Node000008"><a xlink:title=" ">
<path fill="none" stroke="#63b8ff" d="M1032.07,-164.98C1047.86,-156.61 1072.22,-143.7 1090.63,-133.95"/>
<polygon fill="#63b8ff" stroke="#63b8ff" points="1092.44,-136.95 1099.64,-129.17 1089.17,-130.76 1092.44,-136.95"/>
</a>
</g>
</g>
<!-- Node10 -->
<g id="Node000010" class="node">
<title>Node10</title>
<g id="a_Node000010"><a xlink:title=" ">
<polygon fill="#e0e0e0" stroke="#999999" points="277.5,-129 230.5,-129 230.5,-110 277.5,-110 277.5,-129"/>
<text text-anchor="middle" x="254" y="-117" font-family="Helvetica,sans-Serif" font-size="10.00">cmath</text>
</a>
</g>
</g>
<!-- Node9&#45;&gt;Node10 -->
<g id="edge9_Node000009_Node000010" class="edge">
<title>Node9&#45;&gt;Node10</title>
<g id="a_edge9_Node000009_Node000010"><a xlink:title=" ">
<path fill="none" stroke="#63b8ff" d="M351.36,-164.98C332.7,-156.46 303.75,-143.23 282.26,-133.41"/>
<polygon fill="#63b8ff" stroke="#63b8ff" points="283.53,-130.14 272.98,-129.17 280.62,-136.51 283.53,-130.14"/>
</a>
</g>
</g>
<!-- Node11 -->
<g id="Node000011" class="node">
<title>Node11</title>
<g id="a_Node000011"><a xlink:title=" ">
<polygon fill="#e0e0e0" stroke="#999999" points="352,-129 296,-129 296,-110 352,-110 352,-129"/>
<text text-anchor="middle" x="324" y="-117" font-family="Helvetica,sans-Serif" font-size="10.00">numeric</text>
</a>
</g>
</g>
<!-- Node9&#45;&gt;Node11 -->
<g id="edge10_Node000009_Node000011" class="edge">
<title>Node9&#45;&gt;Node11</title>
<g id="a_edge10_Node000009_Node000011"><a xlink:title=" ">
<path fill="none" stroke="#63b8ff" d="M362.4,-164.75C355.84,-157.18 346.18,-146.05 338.19,-136.84"/>
<polygon fill="#63b8ff" stroke="#63b8ff" points="340.65,-134.35 331.45,-129.09 335.37,-138.94 340.65,-134.35"/>
</a>
</g>
</g>
<!-- Node12 -->
<g id="Node000012" class="node">
<title>Node12</title>
<g id="a_Node000012"><a xlink:title=" ">
<polygon fill="#e0e0e0" stroke="#999999" points="463.5,-129 370.5,-129 370.5,-110 463.5,-110 463.5,-129"/>
<text text-anchor="middle" x="417" y="-117" font-family="Helvetica,sans-Serif" font-size="10.00">unordered_map</text>
</a>
</g>
</g>
<!-- Node9&#45;&gt;Node12 -->
<g id="edge11_Node000009_Node000012" class="edge">
<title>Node9&#45;&gt;Node12</title>
<g id="a_edge11_Node000009_Node000012"><a xlink:title=" ">
<path fill="none" stroke="#63b8ff" d="M377.76,-164.75C384.47,-157.18 394.34,-146.05 402.51,-136.84"/>
<polygon fill="#63b8ff" stroke="#63b8ff" points="405.37,-138.89 409.38,-129.09 400.13,-134.25 405.37,-138.89"/>
</a>
</g>
</g>
<!-- Node13 -->
<g id="Node000013" class="node">
<title>Node13</title>
<g id="a_Node000013"><a xlink:title=" ">
<polygon fill="#e0e0e0" stroke="#999999" points="173.5,-129 126.5,-129 126.5,-110 173.5,-110 173.5,-129"/>
<text text-anchor="middle" x="150" y="-117" font-family="Helvetica,sans-Serif" font-size="10.00">vector</text>
</a>
</g>
</g>
<!-- Node9&#45;&gt;Node13 -->
<g id="edge12_Node000009_Node000013" class="edge">
<title>Node9&#45;&gt;Node13</title>
<g id="a_edge12_Node000009_Node000013"><a xlink:title=" ">
<path fill="none" stroke="#63b8ff" d="M334.65,-164.98C293,-154.95 224.3,-138.4 183.48,-128.57"/>
<polygon fill="#63b8ff" stroke="#63b8ff" points="184.27,-125.16 173.73,-126.22 182.64,-131.96 184.27,-125.16"/>
</a>
</g>
</g>
<!-- Node14 -->
<g id="Node000014" class="node">
<title>Node14</title>
<g id="a_Node000014"><a xlink:title=" ">
<polygon fill="#e0e0e0" stroke="#999999" points="540.5,-129 481.5,-129 481.5,-110 540.5,-110 540.5,-129"/>
<text text-anchor="middle" x="511" y="-117" font-family="Helvetica,sans-Serif" font-size="10.00">numbers</text>
</a>
</g>
</g>
<!-- Node9&#45;&gt;Node14 -->
<g id="edge13_Node000009_Node000014" class="edge">
<title>Node9&#45;&gt;Node14</title>
<g id="a_edge13_Node000009_Node000014"><a xlink:title=" ">
<path fill="none" stroke="#63b8ff" d="M392.65,-164.98C415.85,-156.27 452.12,-142.63 478.4,-132.75"/>
<polygon fill="#63b8ff" stroke="#63b8ff" points="479.8,-135.97 487.93,-129.17 477.34,-129.41 479.8,-135.97"/>
</a>
</g>
</g>
<!-- Node15 -->
<g id="Node000015" class="node">
<title>Node15</title>
<g id="a_Node000015"><a xlink:title=" ">
<polygon fill="#e0e0e0" stroke="#999999" points="689.5,-129 558.5,-129 558.5,-110 689.5,-110 689.5,-129"/>
<text text-anchor="middle" x="624" y="-117" font-family="Helvetica,sans-Serif" font-size="10.00">opencv2/core/matx.hpp</text>
</a>
</g>
</g>
<!-- Node9&#45;&gt;Node15 -->
<g id="edge14_Node000009_Node000015" class="edge">
<title>Node9&#45;&gt;Node15</title>
<g id="a_edge14_Node000009_Node000015"><a xlink:title=" ">
<path fill="none" stroke="#63b8ff" d="M410.81,-164.98C454.93,-155.78 525.33,-141.09 573.05,-131.13"/>
<polygon fill="#63b8ff" stroke="#63b8ff" points="573.8,-134.55 582.87,-129.08 572.37,-127.7 573.8,-134.55"/>
</a>
</g>
</g>
<!-- Node16 -->
<g id="Node000016" class="node">
<title>Node16</title>
<g id="a_Node000016"><a xlink:href="../../d0/d3f/util_8hpp.html" target="_top" xlink:title=" ">
<polygon fill="white" stroke="#666666" points="503.5,-74 450.5,-74 450.5,-55 503.5,-55 503.5,-74"/>
<text text-anchor="middle" x="477" y="-62" font-family="Helvetica,sans-Serif" font-size="10.00">util.hpp</text>
</a>
</g>
</g>
<!-- Node9&#45;&gt;Node16 -->
<g id="edge15_Node000009_Node000016" class="edge">
<title>Node9&#45;&gt;Node16</title>
<g id="a_edge15_Node000009_Node000016"><a xlink:title=" ">
<path fill="none" stroke="#63b8ff" d="M313.12,-168.27C259.55,-161.13 191.59,-144.97 221,-110 248.58,-77.22 376.14,-68.58 440.15,-66.31"/>
<polygon fill="#63b8ff" stroke="#63b8ff" points="440.34,-69.81 450.23,-65.99 440.12,-62.81 440.34,-69.81"/>
</a>
</g>
</g>
<!-- Node17 -->
<g id="Node000017" class="node">
<title>Node17</title>
<g id="a_Node000017"><a xlink:title=" ">
<polygon fill="#e0e0e0" stroke="#999999" points="367.5,-19 234.5,-19 234.5,0 367.5,0 367.5,-19"/>
<text text-anchor="middle" x="301" y="-7" font-family="Helvetica,sans-Serif" font-size="10.00">rmvl/rmvl_modules.hpp</text>
</a>
</g>
</g>
<!-- Node16&#45;&gt;Node17 -->
<g id="edge16_Node000016_Node000017" class="edge">
<title>Node16&#45;&gt;Node17</title>
<g id="a_edge16_Node000016_Node000017"><a xlink:title=" ">
<path fill="none" stroke="#63b8ff" d="M450.27,-55.45C420.73,-46.55 372.89,-32.15 339.36,-22.05"/>
<polygon fill="#63b8ff" stroke="#63b8ff" points="340.03,-18.6 329.44,-19.07 338.01,-25.3 340.03,-18.6"/>
</a>
</g>
</g>
<!-- Node18 -->
<g id="Node000018" class="node">
<title>Node18</title>
<g id="a_Node000018"><a xlink:title=" ">
<polygon fill="#e0e0e0" stroke="#999999" points="436,-19 386,-19 386,0 436,0 436,-19"/>
<text text-anchor="middle" x="411" y="-7" font-family="Helvetica,sans-Serif" font-size="10.00">cstdint</text>
</a>
</g>
</g>
<!-- Node16&#45;&gt;Node18 -->
<g id="edge17_Node000016_Node000018" class="edge">
<title>Node16&#45;&gt;Node18</title>
<g id="a_edge17_Node000016_Node000018"><a xlink:title=" ">
<path fill="none" stroke="#63b8ff" d="M466.4,-54.98C456.54,-47.07 441.65,-35.11 429.78,-25.58"/>
<polygon fill="#63b8ff" stroke="#63b8ff" points="431.79,-22.7 421.8,-19.17 427.4,-28.16 431.79,-22.7"/>
</a>
</g>
</g>
<!-- Node19 -->
<g id="Node000019" class="node">
<title>Node19</title>
<g id="a_Node000019"><a xlink:title=" ">
<polygon fill="#e0e0e0" stroke="#999999" points="500,-19 454,-19 454,0 500,0 500,-19"/>
<text text-anchor="middle" x="477" y="-7" font-family="Helvetica,sans-Serif" font-size="10.00">cstdio</text>
</a>
</g>
</g>
<!-- Node16&#45;&gt;Node19 -->
<g id="edge18_Node000016_Node000019" class="edge">
<title>Node16&#45;&gt;Node19</title>
<g id="a_edge18_Node000016_Node000019"><a xlink:title=" ">
<path fill="none" stroke="#63b8ff" d="M477,-54.75C477,-47.8 477,-37.85 477,-29.13"/>
<polygon fill="#63b8ff" stroke="#63b8ff" points="480.5,-29.09 477,-19.09 473.5,-29.09 480.5,-29.09"/>
</a>
</g>
</g>
<!-- Node20 -->
<g id="Node000020" class="node">
<title>Node20</title>
<g id="a_Node000020"><a xlink:title=" ">
<polygon fill="#e0e0e0" stroke="#999999" points="562,-19 518,-19 518,0 562,0 562,-19"/>
<text text-anchor="middle" x="540" y="-7" font-family="Helvetica,sans-Serif" font-size="10.00">string</text>
</a>
</g>
</g>
<!-- Node16&#45;&gt;Node20 -->
<g id="edge19_Node000016_Node000020" class="edge">
<title>Node16&#45;&gt;Node20</title>
<g id="a_edge19_Node000016_Node000020"><a xlink:title=" ">
<path fill="none" stroke="#63b8ff" d="M487.12,-54.98C496.44,-47.15 510.47,-35.34 521.74,-25.86"/>
<polygon fill="#63b8ff" stroke="#63b8ff" points="524.29,-28.29 529.69,-19.17 519.79,-22.93 524.29,-28.29"/>
</a>
</g>
</g>
<!-- Node21 -->
<g id="Node000021" class="node">
<title>Node21</title>
<g id="a_Node000021"><a xlink:href="../../db/d41/rmvldef_8hpp.html" target="_top" xlink:title=" ">
<polygon fill="white" stroke="#666666" points="655.5,-19 580.5,-19 580.5,0 655.5,0 655.5,-19"/>
<text text-anchor="middle" x="618" y="-7" font-family="Helvetica,sans-Serif" font-size="10.00">rmvldef.hpp</text>
</a>
</g>
</g>
<!-- Node16&#45;&gt;Node21 -->
<g id="edge20_Node000016_Node000021" class="edge">
<title>Node16&#45;&gt;Node21</title>
<g id="a_edge20_Node000016_Node000021"><a xlink:title=" ">
<path fill="none" stroke="#63b8ff" d="M499.65,-54.98C522.85,-46.27 559.12,-32.63 585.4,-22.75"/>
<polygon fill="#63b8ff" stroke="#63b8ff" points="586.8,-25.97 594.93,-19.17 584.34,-19.41 586.8,-25.97"/>
</a>
</g>
</g>
<!-- Node22&#45;&gt;Node16 -->
<g id="edge22_Node000022_Node000016" class="edge">
<title>Node22&#45;&gt;Node16</title>
<g id="a_edge22_Node000022_Node000016"><a xlink:title=" ">
<path fill="none" stroke="#63b8ff" d="M708.66,-109.98C654.6,-99.6 564.23,-82.25 513.83,-72.57"/>
<polygon fill="#63b8ff" stroke="#63b8ff" points="514.19,-69.08 503.71,-70.63 512.87,-75.95 514.19,-69.08"/>
</a>
</g>
</g>
<!-- Node23&#45;&gt;Node13 -->
<g id="edge26_Node000023_Node000013" class="edge">
<title>Node23&#45;&gt;Node13</title>
<g id="a_edge26_Node000023_Node000013"><a xlink:title=" ">
<path fill="none" stroke="#63b8ff" d="M124.12,-164.75C128.36,-157.49 134.53,-146.95 139.78,-137.98"/>
<polygon fill="#63b8ff" stroke="#63b8ff" points="142.95,-139.49 144.98,-129.09 136.91,-135.95 142.95,-139.49"/>
</a>
</g>
</g>
<!-- Node24 -->
<g id="Node000024" class="node">
<title>Node24</title>
<g id="a_Node000024"><a xlink:title=" ">
<polygon fill="#e0e0e0" stroke="#999999" points="108,-129 66,-129 66,-110 108,-110 108,-129"/>
<text text-anchor="middle" x="87" y="-117" font-family="Helvetica,sans-Serif" font-size="10.00">array</text>
</a>
</g>
</g>
<!-- Node23&#45;&gt;Node24 -->
<g id="edge24_Node000023_Node000024" class="edge">
<title>Node23&#45;&gt;Node24</title>
<g id="a_edge24_Node000023_Node000024"><a xlink:title=" ">
<path fill="none" stroke="#63b8ff" d="M113.72,-164.75C109.29,-157.42 102.84,-146.73 97.38,-137.7"/>
<polygon fill="#63b8ff" stroke="#63b8ff" points="100.35,-135.84 92.19,-129.09 94.36,-139.46 100.35,-135.84"/>
</a>
</g>
</g>
<!-- Node25 -->
<g id="Node000025" class="node">
<title>Node25</title>
<g id="a_Node000025"><a xlink:title=" ">
<polygon fill="#e0e0e0" stroke="#999999" points="48,-129 0,-129 0,-110 48,-110 48,-129"/>
<text text-anchor="middle" x="24" y="-117" font-family="Helvetica,sans-Serif" font-size="10.00">iosfwd</text>
</a>
</g>
</g>
<!-- Node23&#45;&gt;Node25 -->
<g id="edge25_Node000023_Node000025" class="edge">
<title>Node23&#45;&gt;Node25</title>
<g id="a_edge25_Node000023_Node000025"><a xlink:title=" ">
<path fill="none" stroke="#63b8ff" d="M103.74,-164.98C88.87,-156.69 66.02,-143.94 48.58,-134.22"/>
<polygon fill="#63b8ff" stroke="#63b8ff" points="49.98,-130.99 39.54,-129.17 46.57,-137.1 49.98,-130.99"/>
</a>
</g>
</g>
<!-- Node26&#45;&gt;Node22 -->
<g id="edge30_Node000026_Node000022" class="edge">
<title>Node26&#45;&gt;Node22</title>
<g id="a_edge30_Node000026_Node000022"><a xlink:title=" ">
<path fill="none" stroke="#63b8ff" d="M845.33,-164.98C827.71,-156.5 800.42,-143.35 780.07,-133.54"/>
<polygon fill="#63b8ff" stroke="#63b8ff" points="781.52,-130.36 770.99,-129.17 778.48,-136.66 781.52,-130.36"/>
</a>
</g>
</g>
<!-- Node27 -->
<g id="Node000027" class="node">
<title>Node27</title>
<g id="a_Node000027"><a xlink:title=" ">
<polygon fill="#e0e0e0" stroke="#999999" points="1026,-129 968,-129 968,-110 1026,-110 1026,-129"/>
<text text-anchor="middle" x="997" y="-117" font-family="Helvetica,sans-Serif" font-size="10.00">memory</text>
</a>
</g>
</g>
<!-- Node26&#45;&gt;Node27 -->
<g id="edge28_Node000026_Node000027" class="edge">
<title>Node26&#45;&gt;Node27</title>
<g id="a_edge28_Node000026_Node000027"><a xlink:title=" ">
<path fill="none" stroke="#63b8ff" d="M884.53,-164.98C906.47,-156.3 940.74,-142.75 965.69,-132.88"/>
<polygon fill="#63b8ff" stroke="#63b8ff" points="967.07,-136.1 975.08,-129.17 964.49,-129.59 967.07,-136.1"/>
</a>
</g>
</g>
<!-- Node28 -->
<g id="Node000028" class="node">
<title>Node28</title>
<g id="a_Node000028"><a xlink:title=" ">
<polygon fill="#e0e0e0" stroke="#999999" points="949.5,-129 816.5,-129 816.5,-110 949.5,-110 949.5,-129"/>
<text text-anchor="middle" x="883" y="-117" font-family="Helvetica,sans-Serif" font-size="10.00">opencv2/core/types.hpp</text>
</a>
</g>
</g>
<!-- Node26&#45;&gt;Node28 -->
<g id="edge29_Node000026_Node000028" class="edge">
<title>Node26&#45;&gt;Node28</title>
<g id="a_edge29_Node000026_Node000028"><a xlink:title=" ">
<path fill="none" stroke="#63b8ff" d="M866.3,-164.75C868.98,-157.65 872.85,-147.4 876.19,-138.56"/>
<polygon fill="#63b8ff" stroke="#63b8ff" points="879.5,-139.68 879.76,-129.09 872.95,-137.21 879.5,-139.68"/>
</a>
</g>
</g>
<!-- Node30 -->
<g id="Node000030" class="node">
<title>Node30</title>
<g id="a_Node000030"><a xlink:title=" ">
<polygon fill="#e0e0e0" stroke="#999999" points="844.5,-305 719.5,-305 719.5,-286 844.5,-286 844.5,-305"/>
<text text-anchor="middle" x="782" y="-293" font-family="Helvetica,sans-Serif" font-size="10.00">opencv2/core/mat.hpp</text>
</a>
</g>
</g>
<!-- Node29&#45;&gt;Node30 -->
<g id="edge32_Node000029_Node000030" class="edge">
<title>Node29&#45;&gt;Node30</title>
<g id="a_edge32_Node000029_Node000030"><a xlink:title=" ">
<path fill="none" stroke="#63b8ff" d="M768.36,-346.37C770.61,-338.16 774.06,-325.54 776.93,-315.05"/>
<polygon fill="#63b8ff" stroke="#63b8ff" points="780.37,-315.74 779.63,-305.17 773.62,-313.89 780.37,-315.74"/>
</a>
</g>
</g>
<!-- Node31&#45;&gt;Node29 -->
<g id="edge36_Node000031_Node000029" class="edge">
<title>Node31&#45;&gt;Node29</title>
<g id="a_edge36_Node000031_Node000029"><a xlink:title=" ">
<path fill="none" stroke="#63b8ff" d="M896.75,-406.99C870.69,-397.03 827.32,-380.45 797.73,-369.13"/>
<polygon fill="#63b8ff" stroke="#63b8ff" points="798.86,-365.82 788.27,-365.52 796.36,-372.36 798.86,-365.82"/>
</a>
</g>
</g>
<!-- Node32 -->
<g id="Node000032" class="node">
<title>Node32</title>
<g id="a_Node000032"><a xlink:title=" ">
<polygon fill="#e0e0e0" stroke="#999999" points="1044.5,-365.5 1009.5,-365.5 1009.5,-346.5 1044.5,-346.5 1044.5,-365.5"/>
<text text-anchor="middle" x="1027" y="-353.5" font-family="Helvetica,sans-Serif" font-size="10.00">any</text>
</a>
</g>
</g>
<!-- Node31&#45;&gt;Node32 -->
<g id="edge34_Node000031_Node000032" class="edge">
<title>Node31&#45;&gt;Node32</title>
<g id="a_edge34_Node000031_Node000032"><a xlink:title=" ">
<path fill="none" stroke="#63b8ff" d="M934.94,-406.87C952.64,-397.28 981.46,-381.67 1002.14,-370.47"/>
<polygon fill="#63b8ff" stroke="#63b8ff" points="1003.87,-373.51 1011,-365.67 1000.54,-367.35 1003.87,-373.51"/>
</a>
</g>
</g>
<!-- Node33 -->
<g id="Node000033" class="node">
<title>Node33</title>
<g id="a_Node000033"><a xlink:title=" ">
<polygon fill="#e0e0e0" stroke="#999999" points="991,-371 847,-371 847,-341 991,-341 991,-371"/>
<text text-anchor="start" x="855" y="-359" font-family="Helvetica,sans-Serif" font-size="10.00">onnxruntime/onnxruntime</text>
<text text-anchor="middle" x="919" y="-348" font-family="Helvetica,sans-Serif" font-size="10.00">_cxx_api.h</text>
</a>
</g>
</g>
<!-- Node31&#45;&gt;Node33 -->
<g id="edge35_Node000031_Node000033" class="edge">
<title>Node31&#45;&gt;Node33</title>
<g id="a_edge35_Node000031_Node000033"><a xlink:title=" ">
<path fill="none" stroke="#63b8ff" d="M919,-406.87C919,-400.11 919,-390.35 919,-381.26"/>
<polygon fill="#63b8ff" stroke="#63b8ff" points="922.5,-381.11 919,-371.11 915.5,-381.11 922.5,-381.11"/>
</a>
</g>
</g>
<!-- Node34&#45;&gt;Node4 -->
<g id="edge46_Node000034_Node000004" class="edge">
<title>Node34&#45;&gt;Node4</title>
<g id="a_edge46_Node000034_Node000004"><a xlink:title=" ">
<path fill="none" stroke="#63b8ff" d="M1062.92,-342.54C1059.91,-341.99 1056.92,-341.47 1054,-341 905.5,-317.06 864.49,-322.16 711.8,-305.18"/>
<polygon fill="#63b8ff" stroke="#63b8ff" points="711.9,-301.67 701.57,-304.03 711.12,-308.62 711.9,-301.67"/>
</a>
</g>
</g>
<!-- Node35 -->
<g id="Node000035" class="node">
<title>Node35</title>
<g id="a_Node000035"><a xlink:href="../../dd/d92/combo_2armor_8h.html" target="_top" xlink:title="装甲板类头文件">
<polygon fill="white" stroke="#666666" points="1018,-305 902,-305 902,-286 1018,-286 1018,-305"/>
<text text-anchor="middle" x="960" y="-293" font-family="Helvetica,sans-Serif" font-size="10.00">rmvl/combo/armor.h</text>
</a>
</g>
</g>
<!-- Node34&#45;&gt;Node35 -->
<g id="edge38_Node000034_Node000035" class="edge">
<title>Node34&#45;&gt;Node35</title>
<g id="a_edge38_Node000034_Node000035"><a xlink:title=" ">
<path fill="none" stroke="#63b8ff" d="M1080.16,-340.99C1053.56,-331.14 1018.33,-318.1 992.9,-308.68"/>
<polygon fill="#63b8ff" stroke="#63b8ff" points="993.93,-305.33 983.33,-305.14 991.5,-311.89 993.93,-305.33"/>
</a>
</g>
</g>
<!-- Node38 -->
<g id="Node000038" class="node">
<title>Node38</title>
<g id="a_Node000038"><a xlink:href="../../db/d0f/kalman_8hpp.html" target="_top" xlink:title="包含轻量级 cv::Matx 的卡尔曼滤波模块">
<polygon fill="white" stroke="#666666" points="1179.5,-305 1056.5,-305 1056.5,-286 1179.5,-286 1179.5,-305"/>
<text text-anchor="middle" x="1118" y="-293" font-family="Helvetica,sans-Serif" font-size="10.00">rmvl/core/kalman.hpp</text>
</a>
</g>
</g>
<!-- Node34&#45;&gt;Node38 -->
<g id="edge43_Node000034_Node000038" class="edge">
<title>Node34&#45;&gt;Node38</title>
<g id="a_edge43_Node000034_Node000038"><a xlink:title=" ">
<path fill="none" stroke="#63b8ff" d="M1118,-340.84C1118,-333.21 1118,-323.7 1118,-315.45"/>
<polygon fill="#63b8ff" stroke="#63b8ff" points="1121.5,-315.27 1118,-305.27 1114.5,-315.27 1121.5,-315.27"/>
</a>
</g>
</g>
<!-- Node35&#45;&gt;Node6 -->
<g id="edge40_Node000035_Node000006" class="edge">
<title>Node35&#45;&gt;Node6</title>
<g id="a_edge40_Node000035_Node000006"><a xlink:title=" ">
<path fill="none" stroke="#63b8ff" d="M929.32,-285.99C892.44,-275.77 830.43,-258.58 789.61,-247.26"/>
<polygon fill="#63b8ff" stroke="#63b8ff" points="790.29,-243.82 779.72,-244.52 788.42,-250.56 790.29,-243.82"/>
</a>
</g>
</g>
<!-- Node36 -->
<g id="Node000036" class="node">
<title>Node36</title>
<g id="a_Node000036"><a xlink:title=" ">
<polygon fill="#e0e0e0" stroke="#999999" points="922.5,-244.5 827.5,-244.5 827.5,-225.5 922.5,-225.5 922.5,-244.5"/>
<text text-anchor="middle" x="875" y="-232.5" font-family="Helvetica,sans-Serif" font-size="10.00">opencv2/ml.hpp</text>
</a>
</g>
</g>
<!-- Node35&#45;&gt;Node36 -->
<g id="edge39_Node000035_Node000036" class="edge">
<title>Node35&#45;&gt;Node36</title>
<g id="a_edge39_Node000035_Node000036"><a xlink:title=" ">
<path fill="none" stroke="#63b8ff" d="M947.46,-285.87C933.9,-276.54 912.06,-261.51 895.9,-250.38"/>
<polygon fill="#63b8ff" stroke="#63b8ff" points="897.82,-247.45 887.59,-244.67 893.85,-253.22 897.82,-247.45"/>
</a>
</g>
</g>
<!-- Node37 -->
<g id="Node000037" class="node">
<title>Node37</title>
<g id="a_Node000037"><a xlink:href="../../d4/d54/feature_2light__blob_8h.html" target="_top" xlink:title="灯条类头文件">
<polygon fill="white" stroke="#666666" points="1043,-250 941,-250 941,-220 1043,-220 1043,-250"/>
<text text-anchor="start" x="949" y="-238" font-family="Helvetica,sans-Serif" font-size="10.00">rmvl/feature/light</text>
<text text-anchor="middle" x="992" y="-227" font-family="Helvetica,sans-Serif" font-size="10.00">_blob.h</text>
</a>
</g>
</g>
<!-- Node35&#45;&gt;Node37 -->
<g id="edge41_Node000035_Node000037" class="edge">
<title>Node35&#45;&gt;Node37</title>
<g id="a_edge41_Node000035_Node000037"><a xlink:title=" ">
<path fill="none" stroke="#63b8ff" d="M964.72,-285.87C968.58,-278.81 974.22,-268.5 979.37,-259.08"/>
<polygon fill="#63b8ff" stroke="#63b8ff" points="982.55,-260.57 984.28,-250.11 976.41,-257.21 982.55,-260.57"/>
</a>
</g>
</g>
<!-- Node37&#45;&gt;Node26 -->
<g id="edge42_Node000037_Node000026" class="edge">
<title>Node37&#45;&gt;Node26</title>
<g id="a_edge42_Node000037_Node000026"><a xlink:title=" ">
<path fill="none" stroke="#63b8ff" d="M961.1,-219.99C939.87,-210.36 911.89,-197.67 891.25,-188.31"/>
<polygon fill="#63b8ff" stroke="#63b8ff" points="892.6,-185.08 882.05,-184.14 889.71,-191.46 892.6,-185.08"/>
</a>
</g>
</g>
<!-- Node38&#45;&gt;Node8 -->
<g id="edge45_Node000038_Node000008" class="edge">
<title>Node38&#45;&gt;Node8</title>
<g id="a_edge45_Node000038_Node000008"><a xlink:title=" ">
<path fill="none" stroke="#63b8ff" d="M1117.9,-285.63C1117.59,-258.64 1116.65,-177.03 1116.22,-139.61"/>
<polygon fill="#63b8ff" stroke="#63b8ff" points="1119.71,-139.1 1116.1,-129.14 1112.71,-139.18 1119.71,-139.1"/>
</a>
</g>
</g>
<!-- Node39 -->
<g id="Node000039" class="node">
<title>Node39</title>
<g id="a_Node000039"><a xlink:title=" ">
<polygon fill="#e0e0e0" stroke="#999999" points="1210.5,-244.5 1145.5,-244.5 1145.5,-225.5 1210.5,-225.5 1210.5,-244.5"/>
<text text-anchor="middle" x="1178" y="-232.5" font-family="Helvetica,sans-Serif" font-size="10.00">functional</text>
</a>
</g>
</g>
<!-- Node38&#45;&gt;Node39 -->
<g id="edge44_Node000038_Node000039" class="edge">
<title>Node38&#45;&gt;Node39</title>
<g id="a_edge44_Node000038_Node000039"><a xlink:title=" ">
<path fill="none" stroke="#63b8ff" d="M1126.85,-285.87C1135.98,-276.97 1150.42,-262.89 1161.64,-251.95"/>
<polygon fill="#63b8ff" stroke="#63b8ff" points="1164.39,-254.15 1169.11,-244.67 1159.51,-249.14 1164.39,-254.15"/>
</a>
</g>
</g>
</g>
</svg>
