<?xml version="1.0" encoding="UTF-8" standalone="no"?>
<!DOCTYPE svg PUBLIC "-//W3C//DTD SVG 1.1//EN"
 "http://www.w3.org/Graphics/SVG/1.1/DTD/svg11.dtd">
<!-- Generated by graphviz version 2.43.0 (0)
 -->
<!-- Title: rm::lpss::Node::destroyPublisher Pages: 1 -->
<svg width="309pt" height="76pt"
 viewBox="0.00 0.00 309.00 75.50" xmlns="http://www.w3.org/2000/svg" xmlns:xlink="http://www.w3.org/1999/xlink">
<g id="graph0" class="graph" transform="scale(1 1) rotate(0) translate(4 71.5)">
<title>rm::lpss::Node::destroyPublisher</title>
<!-- Node1 -->
<g id="Node000001" class="node">
<title>Node1</title>
<g id="a_Node000001"><a xlink:title="销毁发布者">
<polygon fill="#999999" stroke="#666666" points="160,-45.5 0,-45.5 0,-26.5 160,-26.5 160,-45.5"/>
<text text-anchor="middle" x="80" y="-33.5" font-family="Helvetica,sans-Serif" font-size="10.00">rm::lpss::Node::destroyPublisher</text>
</a>
</g>
</g>
<!-- Node2 -->
<g id="Node000002" class="node">
<title>Node2</title>
<g id="a_Node000002"><a xlink:href="../../d2/da8/classrm_1_1lpss_1_1Node.html#a8de1ef9537de5b914ba854f5eec46f28" target="_top" xlink:title="获取节点唯一标识符">
<polygon fill="white" stroke="#666666" points="301,-67.5 196,-67.5 196,-48.5 301,-48.5 301,-67.5"/>
<text text-anchor="middle" x="248.5" y="-55.5" font-family="Helvetica,sans-Serif" font-size="10.00">rm::lpss::Node::guid</text>
</a>
</g>
</g>
<!-- Node1&#45;&gt;Node2 -->
<g id="edge1_Node000001_Node000002" class="edge">
<title>Node1&#45;&gt;Node2</title>
<g id="a_edge1_Node000001_Node000002"><a xlink:title=" ">
<path fill="none" stroke="#63b8ff" d="M153.06,-45.52C163.98,-46.96 175.17,-48.44 185.84,-49.85"/>
<polygon fill="#63b8ff" stroke="#63b8ff" points="185.53,-53.34 195.9,-51.18 186.44,-46.4 185.53,-53.34"/>
</a>
</g>
</g>
<!-- Node3 -->
<g id="Node000003" class="node">
<title>Node3</title>
<g id="a_Node000003"><a xlink:href="../../d8/dff/classrm_1_1lpss_1_1Publisher.html#a4f9869f10b18ac402c6b9d3ff24bdc55" target="_top" xlink:title="判断发布者是否无效">
<polygon fill="white" stroke="#666666" points="297.5,-30 199.5,-30 199.5,0 297.5,0 297.5,-30"/>
<text text-anchor="start" x="207.5" y="-18" font-family="Helvetica,sans-Serif" font-size="10.00">rm::lpss::Publisher</text>
<text text-anchor="middle" x="248.5" y="-7" font-family="Helvetica,sans-Serif" font-size="10.00">::invalid</text>
</a>
</g>
</g>
<!-- Node1&#45;&gt;Node3 -->
<g id="edge2_Node000001_Node000003" class="edge">
<title>Node1&#45;&gt;Node3</title>
<g id="a_edge2_Node000001_Node000003"><a xlink:title=" ">
<path fill="none" stroke="#63b8ff" d="M156.46,-26.48C167.54,-25.09 178.81,-23.66 189.47,-22.32"/>
<polygon fill="#63b8ff" stroke="#63b8ff" points="190,-25.78 199.48,-21.06 189.12,-18.84 190,-25.78"/>
</a>
</g>
</g>
</g>
</svg>
