<?xml version="1.0" encoding="UTF-8" standalone="no"?>
<!DOCTYPE svg PUBLIC "-//W3C//DTD SVG 1.1//EN"
 "http://www.w3.org/Graphics/SVG/1.1/DTD/svg11.dtd">
<!-- Generated by graphviz version 2.43.0 (0)
 -->
<!-- Title: rmvl/core/rmvldef.hpp Pages: 1 -->
<svg width="1807pt" height="565pt"
 viewBox="0.00 0.00 1807.00 565.00" xmlns="http://www.w3.org/2000/svg" xmlns:xlink="http://www.w3.org/1999/xlink">
<g id="graph0" class="graph" transform="scale(1 1) rotate(0) translate(4 561)">
<title>rmvl/core/rmvldef.hpp</title>
<polygon fill="white" stroke="transparent" points="-4,4 -4,-561 1803,-561 1803,4 -4,4"/>
<!-- Node1 -->
<g id="node1" class="node">
<title>Node1</title>
<g id="a_node1"><a xlink:title=" ">
<polygon fill="#bfbfbf" stroke="black" points="543.5,-537.5 543.5,-556.5 668.5,-556.5 668.5,-537.5 543.5,-537.5"/>
<text text-anchor="middle" x="606" y="-544.5" font-family="Helvetica,sans-Serif" font-size="10.00">rmvl/core/rmvldef.hpp</text>
</a>
</g>
</g>
<!-- Node2 -->
<g id="node2" class="node">
<title>Node2</title>
<g id="a_node2"><a xlink:href="../../d0/d3f/util_8hpp.html" target="_top" xlink:title=" ">
<polygon fill="white" stroke="black" points="554.5,-481.5 554.5,-500.5 657.5,-500.5 657.5,-481.5 554.5,-481.5"/>
<text text-anchor="middle" x="606" y="-488.5" font-family="Helvetica,sans-Serif" font-size="10.00">rmvl/core/util.hpp</text>
</a>
</g>
</g>
<!-- Node1&#45;&gt;Node2 -->
<g id="edge1" class="edge">
<title>Node1&#45;&gt;Node2</title>
<path fill="none" stroke="midnightblue" d="M606,-526.8C606,-517.91 606,-507.78 606,-500.75"/>
<polygon fill="midnightblue" stroke="midnightblue" points="602.5,-527.08 606,-537.08 609.5,-527.08 602.5,-527.08"/>
</g>
<!-- Node3 -->
<g id="node3" class="node">
<title>Node3</title>
<g id="a_node3"><a xlink:href="../../da/d35/camera_2hik__camera_8h.html" target="_top" xlink:title="Hik Robot 工业相机库">
<polygon fill="white" stroke="black" points="0,-425.5 0,-444.5 148,-444.5 148,-425.5 0,-425.5"/>
<text text-anchor="middle" x="74" y="-432.5" font-family="Helvetica,sans-Serif" font-size="10.00">rmvl/camera/hik_camera.h</text>
</a>
</g>
</g>
<!-- Node2&#45;&gt;Node3 -->
<g id="edge2" class="edge">
<title>Node2&#45;&gt;Node3</title>
<path fill="none" stroke="midnightblue" d="M544.3,-483.98C457.74,-475.49 295.33,-459.43 157,-445 154.12,-444.7 151.18,-444.39 148.21,-444.08"/>
<polygon fill="midnightblue" stroke="midnightblue" points="544.18,-487.48 554.47,-484.97 544.86,-480.51 544.18,-487.48"/>
</g>
<!-- Node5 -->
<g id="node5" class="node">
<title>Node5</title>
<g id="a_node5"><a xlink:href="../../d1/d67/camera_2mv__camera_8h.html" target="_top" xlink:title="迈德威视相机库">
<polygon fill="white" stroke="black" points="333.5,-425.5 333.5,-444.5 482.5,-444.5 482.5,-425.5 333.5,-425.5"/>
<text text-anchor="middle" x="408" y="-432.5" font-family="Helvetica,sans-Serif" font-size="10.00">rmvl/camera/mv_camera.h</text>
</a>
</g>
</g>
<!-- Node2&#45;&gt;Node5 -->
<g id="edge4" class="edge">
<title>Node2&#45;&gt;Node5</title>
<path fill="none" stroke="midnightblue" d="M564.56,-478.7C527.19,-468.51 473.06,-453.74 439.23,-444.52"/>
<polygon fill="midnightblue" stroke="midnightblue" points="564.06,-482.19 574.63,-481.44 565.9,-475.44 564.06,-482.19"/>
</g>
<!-- Node6 -->
<g id="node6" class="node">
<title>Node6</title>
<g id="a_node6"><a xlink:href="../../dd/d54/camera_2opt__camera_8h.html" target="_top" xlink:title="奥普特机器视觉相机库">
<polygon fill="white" stroke="black" points="166.5,-425.5 166.5,-444.5 315.5,-444.5 315.5,-425.5 166.5,-425.5"/>
<text text-anchor="middle" x="241" y="-432.5" font-family="Helvetica,sans-Serif" font-size="10.00">rmvl/camera/opt_camera.h</text>
</a>
</g>
</g>
<!-- Node2&#45;&gt;Node6 -->
<g id="edge5" class="edge">
<title>Node2&#45;&gt;Node6</title>
<path fill="none" stroke="midnightblue" d="M544.24,-480.86C475.57,-470.7 365.51,-454.42 298.58,-444.52"/>
<polygon fill="midnightblue" stroke="midnightblue" points="544.07,-484.38 554.48,-482.38 545.1,-477.45 544.07,-484.38"/>
</g>
<!-- Node7 -->
<g id="node7" class="node">
<title>Node7</title>
<g id="a_node7"><a xlink:href="../../de/d78/rmvl_2core_8hpp.html" target="_top" xlink:title=" ">
<polygon fill="white" stroke="black" points="500,-425.5 500,-444.5 584,-444.5 584,-425.5 500,-425.5"/>
<text text-anchor="middle" x="542" y="-432.5" font-family="Helvetica,sans-Serif" font-size="10.00">rmvl/core.hpp</text>
</a>
</g>
</g>
<!-- Node2&#45;&gt;Node7 -->
<g id="edge7" class="edge">
<title>Node2&#45;&gt;Node7</title>
<path fill="none" stroke="midnightblue" d="M588.01,-474.82C576.54,-465.15 562.09,-452.95 552.47,-444.83"/>
<polygon fill="midnightblue" stroke="midnightblue" points="585.82,-477.55 595.72,-481.32 590.33,-472.2 585.82,-477.55"/>
</g>
<!-- Node8 -->
<g id="node8" class="node">
<title>Node8</title>
<g id="a_node8"><a xlink:href="../../da/d0e/variable_8hpp.html" target="_top" xlink:title="变量（类型）">
<polygon fill="white" stroke="black" points="602.5,-425.5 602.5,-444.5 737.5,-444.5 737.5,-425.5 602.5,-425.5"/>
<text text-anchor="middle" x="670" y="-432.5" font-family="Helvetica,sans-Serif" font-size="10.00">rmvl/opcua/variable.hpp</text>
</a>
</g>
</g>
<!-- Node2&#45;&gt;Node8 -->
<g id="edge8" class="edge">
<title>Node2&#45;&gt;Node8</title>
<path fill="none" stroke="midnightblue" d="M623.99,-474.82C635.46,-465.15 649.91,-452.95 659.53,-444.83"/>
<polygon fill="midnightblue" stroke="midnightblue" points="621.67,-472.2 616.28,-481.32 626.18,-477.55 621.67,-472.2"/>
</g>
<!-- Node16 -->
<g id="node16" class="node">
<title>Node16</title>
<g id="a_node16"><a xlink:href="../../d2/d80/transform_8h.html" target="_top" xlink:title=" ">
<polygon fill="white" stroke="black" points="762.5,-369.5 762.5,-388.5 893.5,-388.5 893.5,-369.5 762.5,-369.5"/>
<text text-anchor="middle" x="828" y="-376.5" font-family="Helvetica,sans-Serif" font-size="10.00">rmvl/rmath/transform.h</text>
</a>
</g>
</g>
<!-- Node2&#45;&gt;Node16 -->
<g id="edge19" class="edge">
<title>Node2&#45;&gt;Node16</title>
<path fill="none" stroke="midnightblue" d="M655.77,-478.9C683.61,-471.53 718.37,-460.37 747,-445 776.23,-429.31 805.29,-402.6 819.32,-388.81"/>
<polygon fill="midnightblue" stroke="midnightblue" points="654.67,-475.57 645.85,-481.44 656.41,-482.35 654.67,-475.57"/>
</g>
<!-- Node17 -->
<g id="node17" class="node">
<title>Node17</title>
<g id="a_node17"><a xlink:href="../../dc/d71/uty__math_8hpp.html" target="_top" xlink:title=" ">
<polygon fill="white" stroke="black" points="794,-425.5 794,-444.5 936,-444.5 936,-425.5 794,-425.5"/>
<text text-anchor="middle" x="865" y="-432.5" font-family="Helvetica,sans-Serif" font-size="10.00">rmvl/rmath/uty_math.hpp</text>
</a>
</g>
</g>
<!-- Node2&#45;&gt;Node17 -->
<g id="edge20" class="edge">
<title>Node2&#45;&gt;Node17</title>
<path fill="none" stroke="midnightblue" d="M657.1,-479.35C706.05,-469.14 778.95,-453.94 824.15,-444.52"/>
<polygon fill="midnightblue" stroke="midnightblue" points="656.11,-475.98 647.04,-481.44 657.54,-482.83 656.11,-475.98"/>
</g>
<!-- Node52 -->
<g id="node43" class="node">
<title>Node52</title>
<g id="a_node43"><a xlink:href="../../dd/de3/types_8hpp.html" target="_top" xlink:title="常用状态类型定义">
<polygon fill="white" stroke="black" points="954,-425.5 954,-444.5 1044,-444.5 1044,-425.5 954,-425.5"/>
<text text-anchor="middle" x="999" y="-432.5" font-family="Helvetica,sans-Serif" font-size="10.00">rmvl/types.hpp</text>
</a>
</g>
</g>
<!-- Node2&#45;&gt;Node52 -->
<g id="edge56" class="edge">
<title>Node2&#45;&gt;Node52</title>
<path fill="none" stroke="midnightblue" d="M667.88,-482.41C735.91,-473.92 848.38,-459.46 945,-445 947.91,-444.56 950.91,-444.1 953.94,-443.63"/>
<polygon fill="midnightblue" stroke="midnightblue" points="667.26,-478.96 657.76,-483.67 668.12,-485.91 667.26,-478.96"/>
</g>
<!-- Node4 -->
<g id="node4" class="node">
<title>Node4</title>
<g id="a_node4"><a xlink:href="../../da/d4b/rmvl_2camera_8hpp.html" target="_top" xlink:title="相机调用">
<polygon fill="white" stroke="black" points="108,-369.5 108,-388.5 208,-388.5 208,-369.5 108,-369.5"/>
<text text-anchor="middle" x="158" y="-376.5" font-family="Helvetica,sans-Serif" font-size="10.00">rmvl/camera.hpp</text>
</a>
</g>
</g>
<!-- Node3&#45;&gt;Node4 -->
<g id="edge3" class="edge">
<title>Node3&#45;&gt;Node4</title>
<path fill="none" stroke="midnightblue" d="M95.93,-419.9C111.34,-410 131.45,-397.07 144.54,-388.65"/>
<polygon fill="midnightblue" stroke="midnightblue" points="94.02,-416.97 87.5,-425.32 97.8,-422.86 94.02,-416.97"/>
</g>
<!-- Node6&#45;&gt;Node4 -->
<g id="edge6" class="edge">
<title>Node6&#45;&gt;Node4</title>
<path fill="none" stroke="midnightblue" d="M218.9,-419.62C203.74,-409.76 184.12,-396.99 171.3,-388.65"/>
<polygon fill="midnightblue" stroke="midnightblue" points="217.37,-422.8 227.66,-425.32 221.19,-416.94 217.37,-422.8"/>
</g>
<!-- Node9 -->
<g id="node9" class="node">
<title>Node9</title>
<g id="a_node9"><a xlink:href="../../dc/d94/event_8hpp.html" target="_top" xlink:title="OPC UA 事件">
<polygon fill="white" stroke="black" points="621.5,-369.5 621.5,-388.5 744.5,-388.5 744.5,-369.5 621.5,-369.5"/>
<text text-anchor="middle" x="683" y="-376.5" font-family="Helvetica,sans-Serif" font-size="10.00">rmvl/opcua/event.hpp</text>
</a>
</g>
</g>
<!-- Node8&#45;&gt;Node9 -->
<g id="edge9" class="edge">
<title>Node8&#45;&gt;Node9</title>
<path fill="none" stroke="midnightblue" d="M674.55,-415.1C676.71,-406.14 679.18,-395.86 680.89,-388.75"/>
<polygon fill="midnightblue" stroke="midnightblue" points="671.08,-414.54 672.15,-425.08 677.89,-416.18 671.08,-414.54"/>
</g>
<!-- Node13 -->
<g id="node13" class="node">
<title>Node13</title>
<g id="a_node13"><a xlink:href="../../df/de1/object_8hpp.html" target="_top" xlink:title="对象（类型）">
<polygon fill="white" stroke="black" points="341.5,-369.5 341.5,-388.5 466.5,-388.5 466.5,-369.5 341.5,-369.5"/>
<text text-anchor="middle" x="404" y="-376.5" font-family="Helvetica,sans-Serif" font-size="10.00">rmvl/opcua/object.hpp</text>
</a>
</g>
</g>
<!-- Node8&#45;&gt;Node13 -->
<g id="edge13" class="edge">
<title>Node8&#45;&gt;Node13</title>
<path fill="none" stroke="midnightblue" d="M617.83,-423.41C567.56,-413.2 492.47,-397.96 445.95,-388.52"/>
<polygon fill="midnightblue" stroke="midnightblue" points="617.36,-426.88 627.85,-425.44 618.75,-420.02 617.36,-426.88"/>
</g>
<!-- Node15 -->
<g id="node15" class="node">
<title>Node15</title>
<g id="a_node15"><a xlink:href="../../d8/d11/view_8hpp.html" target="_top" xlink:title="视图">
<polygon fill="white" stroke="black" points="485,-369.5 485,-388.5 603,-388.5 603,-369.5 485,-369.5"/>
<text text-anchor="middle" x="544" y="-376.5" font-family="Helvetica,sans-Serif" font-size="10.00">rmvl/opcua/view.hpp</text>
</a>
</g>
</g>
<!-- Node8&#45;&gt;Node15 -->
<g id="edge16" class="edge">
<title>Node8&#45;&gt;Node15</title>
<path fill="none" stroke="midnightblue" d="M640.84,-421.5C617.22,-411.38 584.57,-397.39 563.87,-388.52"/>
<polygon fill="midnightblue" stroke="midnightblue" points="639.46,-424.72 650.03,-425.44 642.22,-418.29 639.46,-424.72"/>
</g>
<!-- Node10 -->
<g id="node10" class="node">
<title>Node10</title>
<g id="a_node10"><a xlink:href="../../df/d0a/server_8hpp.html" target="_top" xlink:title="OPC UA 服务器">
<polygon fill="white" stroke="black" points="483.5,-308 483.5,-327 608.5,-327 608.5,-308 483.5,-308"/>
<text text-anchor="middle" x="546" y="-315" font-family="Helvetica,sans-Serif" font-size="10.00">rmvl/opcua/server.hpp</text>
</a>
</g>
</g>
<!-- Node9&#45;&gt;Node10 -->
<g id="edge10" class="edge">
<title>Node9&#45;&gt;Node10</title>
<path fill="none" stroke="midnightblue" d="M654.17,-365.48C627.56,-353.92 588.77,-337.08 565.59,-327.01"/>
<polygon fill="midnightblue" stroke="midnightblue" points="652.8,-368.7 663.37,-369.48 655.59,-362.28 652.8,-368.7"/>
</g>
<!-- Node11 -->
<g id="node11" class="node">
<title>Node11</title>
<g id="a_node11"><a xlink:href="../../da/d24/publisher_8hpp.html" target="_top" xlink:title="OPC UA 发布者">
<polygon fill="white" stroke="black" points="396,-246.5 396,-265.5 536,-265.5 536,-246.5 396,-246.5"/>
<text text-anchor="middle" x="466" y="-253.5" font-family="Helvetica,sans-Serif" font-size="10.00">rmvl/opcua/publisher.hpp</text>
</a>
</g>
</g>
<!-- Node10&#45;&gt;Node11 -->
<g id="edge11" class="edge">
<title>Node10&#45;&gt;Node11</title>
<path fill="none" stroke="midnightblue" d="M526.23,-301.79C510.88,-290.38 490.14,-274.96 477.44,-265.51"/>
<polygon fill="midnightblue" stroke="midnightblue" points="524.43,-304.82 534.54,-307.98 528.6,-299.2 524.43,-304.82"/>
</g>
<!-- Node12 -->
<g id="node12" class="node">
<title>Node12</title>
<g id="a_node12"><a xlink:href="../../d8/df0/subscriber_8hpp.html" target="_top" xlink:title="OPC UA 订阅者">
<polygon fill="white" stroke="black" points="554.5,-246.5 554.5,-265.5 699.5,-265.5 699.5,-246.5 554.5,-246.5"/>
<text text-anchor="middle" x="627" y="-253.5" font-family="Helvetica,sans-Serif" font-size="10.00">rmvl/opcua/subscriber.hpp</text>
</a>
</g>
</g>
<!-- Node10&#45;&gt;Node12 -->
<g id="edge12" class="edge">
<title>Node10&#45;&gt;Node12</title>
<path fill="none" stroke="midnightblue" d="M566.02,-301.79C581.56,-290.38 602.55,-274.96 615.42,-265.51"/>
<polygon fill="midnightblue" stroke="midnightblue" points="563.59,-299.23 557.61,-307.98 567.74,-304.88 563.59,-299.23"/>
</g>
<!-- Node13&#45;&gt;Node10 -->
<g id="edge15" class="edge">
<title>Node13&#45;&gt;Node10</title>
<path fill="none" stroke="midnightblue" d="M433.88,-365.48C461.46,-353.92 501.67,-337.08 525.69,-327.01"/>
<polygon fill="midnightblue" stroke="midnightblue" points="432.22,-362.38 424.35,-369.48 434.92,-368.84 432.22,-362.38"/>
</g>
<!-- Node14 -->
<g id="node14" class="node">
<title>Node14</title>
<g id="a_node14"><a xlink:href="../../d2/dfe/client_8hpp.html" target="_top" xlink:title="OPC UA 客户端">
<polygon fill="white" stroke="black" points="343,-308 343,-327 465,-327 465,-308 343,-308"/>
<text text-anchor="middle" x="404" y="-315" font-family="Helvetica,sans-Serif" font-size="10.00">rmvl/opcua/client.hpp</text>
</a>
</g>
</g>
<!-- Node13&#45;&gt;Node14 -->
<g id="edge14" class="edge">
<title>Node13&#45;&gt;Node14</title>
<path fill="none" stroke="midnightblue" d="M404,-359.32C404,-348.5 404,-335.4 404,-327.01"/>
<polygon fill="midnightblue" stroke="midnightblue" points="400.5,-359.48 404,-369.48 407.5,-359.48 400.5,-359.48"/>
</g>
<!-- Node15&#45;&gt;Node10 -->
<g id="edge18" class="edge">
<title>Node15&#45;&gt;Node10</title>
<path fill="none" stroke="midnightblue" d="M544.63,-359.32C544.99,-348.5 545.43,-335.4 545.71,-327.01"/>
<polygon fill="midnightblue" stroke="midnightblue" points="541.12,-359.36 544.29,-369.48 548.12,-359.6 541.12,-359.36"/>
</g>
<!-- Node15&#45;&gt;Node14 -->
<g id="edge17" class="edge">
<title>Node15&#45;&gt;Node14</title>
<path fill="none" stroke="midnightblue" d="M514.54,-365.48C487.35,-353.92 447.71,-337.08 424.02,-327.01"/>
<polygon fill="midnightblue" stroke="midnightblue" points="513.37,-368.78 523.94,-369.48 516.11,-362.34 513.37,-368.78"/>
</g>
<!-- Node17&#45;&gt;Node16 -->
<g id="edge21" class="edge">
<title>Node17&#45;&gt;Node16</title>
<path fill="none" stroke="midnightblue" d="M853.05,-416.57C846.69,-407.27 839.13,-396.25 834,-388.75"/>
<polygon fill="midnightblue" stroke="midnightblue" points="850.35,-418.81 858.89,-425.08 856.13,-414.86 850.35,-418.81"/>
</g>
<!-- Node18 -->
<g id="node18" class="node">
<title>Node18</title>
<g id="a_node18"><a xlink:href="../../d8/d36/combo_8h.html" target="_top" xlink:title="the combination of the features header file">
<polygon fill="white" stroke="black" points="862,-308 862,-327 982,-327 982,-308 862,-308"/>
<text text-anchor="middle" x="922" y="-315" font-family="Helvetica,sans-Serif" font-size="10.00">rmvl/combo/combo.h</text>
</a>
</g>
</g>
<!-- Node17&#45;&gt;Node18 -->
<g id="edge22" class="edge">
<title>Node17&#45;&gt;Node18</title>
<path fill="none" stroke="midnightblue" d="M881.54,-417.98C889.04,-409.91 897.45,-399.6 903,-389 913.82,-368.34 918.9,-340.96 920.9,-327.19"/>
<polygon fill="midnightblue" stroke="midnightblue" points="878.94,-415.63 874.48,-425.23 883.96,-420.51 878.94,-415.63"/>
</g>
<!-- Node19 -->
<g id="node19" class="node">
<title>Node19</title>
<g id="a_node19"><a xlink:href="../../dd/d92/combo_2armor_8h.html" target="_top" xlink:title="装甲板类头文件">
<polygon fill="white" stroke="black" points="1245,-246.5 1245,-265.5 1361,-265.5 1361,-246.5 1245,-246.5"/>
<text text-anchor="middle" x="1303" y="-253.5" font-family="Helvetica,sans-Serif" font-size="10.00">rmvl/combo/armor.h</text>
</a>
</g>
</g>
<!-- Node18&#45;&gt;Node19 -->
<g id="edge23" class="edge">
<title>Node18&#45;&gt;Node19</title>
<path fill="none" stroke="midnightblue" d="M971.23,-305.91C978.19,-304.53 985.27,-303.18 992,-302 1079.85,-286.56 1182.34,-272.49 1244.94,-264.33"/>
<polygon fill="midnightblue" stroke="midnightblue" points="970.27,-302.54 961.16,-307.95 971.66,-309.4 970.27,-302.54"/>
</g>
<!-- Node24 -->
<g id="node24" class="node">
<title>Node24</title>
<g id="a_node24"><a xlink:href="../../de/de6/combo_2rune_8h.html" target="_top" xlink:title="神符类头文件">
<polygon fill="white" stroke="black" points="1488.5,-246.5 1488.5,-265.5 1597.5,-265.5 1597.5,-246.5 1488.5,-246.5"/>
<text text-anchor="middle" x="1543" y="-253.5" font-family="Helvetica,sans-Serif" font-size="10.00">rmvl/combo/rune.h</text>
</a>
</g>
</g>
<!-- Node18&#45;&gt;Node24 -->
<g id="edge28" class="edge">
<title>Node18&#45;&gt;Node24</title>
<path fill="none" stroke="midnightblue" d="M968.86,-305.97C976.56,-304.47 984.48,-303.08 992,-302 1086.76,-288.37 1368.45,-268.65 1488.18,-260.62"/>
<polygon fill="midnightblue" stroke="midnightblue" points="968.02,-302.57 958.91,-307.97 969.4,-309.43 968.02,-302.57"/>
</g>
<!-- Node27 -->
<g id="node27" class="node">
<title>Node27</title>
<g id="a_node27"><a xlink:href="../../d1/dad/rmvl_2combo_8hpp.html" target="_top" xlink:title=" ">
<polygon fill="white" stroke="black" points="874,-246.5 874,-265.5 970,-265.5 970,-246.5 874,-246.5"/>
<text text-anchor="middle" x="922" y="-253.5" font-family="Helvetica,sans-Serif" font-size="10.00">rmvl/combo.hpp</text>
</a>
</g>
</g>
<!-- Node18&#45;&gt;Node27 -->
<g id="edge31" class="edge">
<title>Node18&#45;&gt;Node27</title>
<path fill="none" stroke="midnightblue" d="M922,-297.82C922,-287 922,-273.9 922,-265.51"/>
<polygon fill="midnightblue" stroke="midnightblue" points="918.5,-297.98 922,-307.98 925.5,-297.98 918.5,-297.98"/>
</g>
<!-- Node28 -->
<g id="node28" class="node">
<title>Node28</title>
<g id="a_node28"><a xlink:href="../../dc/ded/tracker_8h.html" target="_top" xlink:title="追踪器抽象头文件">
<polygon fill="white" stroke="black" points="1024.5,-246.5 1024.5,-265.5 1145.5,-265.5 1145.5,-246.5 1024.5,-246.5"/>
<text text-anchor="middle" x="1085" y="-253.5" font-family="Helvetica,sans-Serif" font-size="10.00">rmvl/tracker/tracker.h</text>
</a>
</g>
</g>
<!-- Node18&#45;&gt;Node28 -->
<g id="edge32" class="edge">
<title>Node18&#45;&gt;Node28</title>
<path fill="none" stroke="midnightblue" d="M955.06,-304.43C986.74,-292.87 1033.75,-275.71 1061.69,-265.51"/>
<polygon fill="midnightblue" stroke="midnightblue" points="953.55,-301.26 945.35,-307.98 955.95,-307.83 953.55,-301.26"/>
</g>
<!-- Node20 -->
<g id="node20" class="node">
<title>Node20</title>
<g id="a_node20"><a xlink:href="../../d7/de6/tracker_2gyro__tracker_8h.html" target="_top" xlink:title="装甲板追踪器头文件">
<polygon fill="white" stroke="black" points="1155,-185 1155,-204 1303,-204 1303,-185 1155,-185"/>
<text text-anchor="middle" x="1229" y="-192" font-family="Helvetica,sans-Serif" font-size="10.00">rmvl/tracker/gyro_tracker.h</text>
</a>
</g>
</g>
<!-- Node19&#45;&gt;Node20 -->
<g id="edge24" class="edge">
<title>Node19&#45;&gt;Node20</title>
<path fill="none" stroke="midnightblue" d="M1284.31,-239.97C1270.16,-228.59 1251.22,-213.37 1239.58,-204.01"/>
<polygon fill="midnightblue" stroke="midnightblue" points="1282.41,-242.94 1292.4,-246.48 1286.8,-237.48 1282.41,-242.94"/>
</g>
<!-- Node22 -->
<g id="node22" class="node">
<title>Node22</title>
<g id="a_node22"><a xlink:href="../../d5/dea/tracker_2planar__tracker_8h.html" target="_top" xlink:title="平面目标追踪器头文件">
<polygon fill="white" stroke="black" points="1321,-179.5 1321,-209.5 1431,-209.5 1431,-179.5 1321,-179.5"/>
<text text-anchor="start" x="1329" y="-197.5" font-family="Helvetica,sans-Serif" font-size="10.00">rmvl/tracker/planar</text>
<text text-anchor="middle" x="1376" y="-186.5" font-family="Helvetica,sans-Serif" font-size="10.00">_tracker.h</text>
</a>
</g>
</g>
<!-- Node19&#45;&gt;Node22 -->
<g id="edge26" class="edge">
<title>Node19&#45;&gt;Node22</title>
<path fill="none" stroke="midnightblue" d="M1321.5,-239.92C1332.96,-230.58 1347.58,-218.66 1358.8,-209.52"/>
<polygon fill="midnightblue" stroke="midnightblue" points="1319,-237.44 1313.46,-246.48 1323.42,-242.87 1319,-237.44"/>
</g>
<!-- Node21 -->
<g id="node21" class="node">
<title>Node21</title>
<g id="a_node21"><a xlink:href="../../d1/d6b/detector_2gyro__detector_8h.html" target="_top" xlink:title="装甲板识别派生类头文件">
<polygon fill="white" stroke="black" points="1213.5,-56.5 1213.5,-86.5 1320.5,-86.5 1320.5,-56.5 1213.5,-56.5"/>
<text text-anchor="start" x="1221.5" y="-74.5" font-family="Helvetica,sans-Serif" font-size="10.00">rmvl/detector/gyro</text>
<text text-anchor="middle" x="1267" y="-63.5" font-family="Helvetica,sans-Serif" font-size="10.00">_detector.h</text>
</a>
</g>
</g>
<!-- Node20&#45;&gt;Node21 -->
<g id="edge25" class="edge">
<title>Node20&#45;&gt;Node21</title>
<path fill="none" stroke="midnightblue" d="M1274.93,-181.55C1294.55,-173.93 1315.53,-161.82 1327,-143 1340.05,-121.59 1314.92,-100.1 1293.29,-86.57"/>
<polygon fill="midnightblue" stroke="midnightblue" points="1273.69,-178.28 1265.46,-184.94 1276.06,-184.87 1273.69,-178.28"/>
</g>
<!-- Node23 -->
<g id="node23" class="node">
<title>Node23</title>
<g id="a_node23"><a xlink:href="../../da/d95/detector_2armor__detector_8h.html" target="_top" xlink:title="装甲板识别派生类头文件">
<polygon fill="white" stroke="black" points="1338.5,-56.5 1338.5,-86.5 1453.5,-86.5 1453.5,-56.5 1338.5,-56.5"/>
<text text-anchor="start" x="1346.5" y="-74.5" font-family="Helvetica,sans-Serif" font-size="10.00">rmvl/detector/armor</text>
<text text-anchor="middle" x="1396" y="-63.5" font-family="Helvetica,sans-Serif" font-size="10.00">_detector.h</text>
</a>
</g>
</g>
<!-- Node22&#45;&gt;Node23 -->
<g id="edge27" class="edge">
<title>Node22&#45;&gt;Node23</title>
<path fill="none" stroke="midnightblue" d="M1380.03,-169.12C1384.11,-144.44 1390.28,-107.11 1393.63,-86.84"/>
<polygon fill="midnightblue" stroke="midnightblue" points="1376.55,-168.71 1378.37,-179.14 1383.46,-169.85 1376.55,-168.71"/>
</g>
<!-- Node25 -->
<g id="node25" class="node">
<title>Node25</title>
<g id="a_node25"><a xlink:href="../../dd/d0a/tracker_2rune__tracker_8h.html" target="_top" xlink:title="神符追踪器头文件">
<polygon fill="white" stroke="black" points="1451,-185 1451,-204 1599,-204 1599,-185 1451,-185"/>
<text text-anchor="middle" x="1525" y="-192" font-family="Helvetica,sans-Serif" font-size="10.00">rmvl/tracker/rune_tracker.h</text>
</a>
</g>
</g>
<!-- Node24&#45;&gt;Node25 -->
<g id="edge29" class="edge">
<title>Node24&#45;&gt;Node25</title>
<path fill="none" stroke="midnightblue" d="M1537.45,-236.66C1534.16,-225.77 1530.14,-212.49 1527.57,-204.01"/>
<polygon fill="midnightblue" stroke="midnightblue" points="1534.18,-237.92 1540.42,-246.48 1540.88,-235.89 1534.18,-237.92"/>
</g>
<!-- Node26 -->
<g id="node26" class="node">
<title>Node26</title>
<g id="a_node26"><a xlink:href="../../db/dcc/detector_2rune__detector_8h.html" target="_top" xlink:title="神符识别派生类头文件">
<polygon fill="white" stroke="black" points="1471.5,-56.5 1471.5,-86.5 1578.5,-86.5 1578.5,-56.5 1471.5,-56.5"/>
<text text-anchor="start" x="1479.5" y="-74.5" font-family="Helvetica,sans-Serif" font-size="10.00">rmvl/detector/rune</text>
<text text-anchor="middle" x="1525" y="-63.5" font-family="Helvetica,sans-Serif" font-size="10.00">_detector.h</text>
</a>
</g>
</g>
<!-- Node25&#45;&gt;Node26 -->
<g id="edge30" class="edge">
<title>Node25&#45;&gt;Node26</title>
<path fill="none" stroke="midnightblue" d="M1525,-174.68C1525,-150.3 1525,-108.32 1525,-86.54"/>
<polygon fill="midnightblue" stroke="midnightblue" points="1521.5,-174.8 1525,-184.8 1528.5,-174.8 1521.5,-174.8"/>
</g>
<!-- Node28&#45;&gt;Node20 -->
<g id="edge52" class="edge">
<title>Node28&#45;&gt;Node20</title>
<path fill="none" stroke="midnightblue" d="M1114.93,-242.63C1142.91,-231.07 1183.94,-214.12 1208.41,-204.01"/>
<polygon fill="midnightblue" stroke="midnightblue" points="1113.54,-239.42 1105.63,-246.48 1116.21,-245.89 1113.54,-239.42"/>
</g>
<!-- Node28&#45;&gt;Node22 -->
<g id="edge53" class="edge">
<title>Node28&#45;&gt;Node22</title>
<path fill="none" stroke="midnightblue" d="M1139.93,-244.54C1185.96,-235.68 1253.36,-222.45 1312,-210 1314.9,-209.38 1317.87,-208.74 1320.86,-208.09"/>
<polygon fill="midnightblue" stroke="midnightblue" points="1139.03,-241.15 1129.87,-246.48 1140.35,-248.03 1139.03,-241.15"/>
</g>
<!-- Node28&#45;&gt;Node25 -->
<g id="edge54" class="edge">
<title>Node28&#45;&gt;Node25</title>
<path fill="none" stroke="midnightblue" d="M1156,-246.91C1227.75,-238.52 1341.75,-224.6 1440,-210 1451.99,-208.22 1464.91,-206.11 1476.96,-204.06"/>
<polygon fill="midnightblue" stroke="midnightblue" points="1155.25,-243.47 1145.72,-248.11 1156.06,-250.42 1155.25,-243.47"/>
</g>
<!-- Node29 -->
<g id="node29" class="node">
<title>Node29</title>
<g id="a_node29"><a xlink:href="../../d6/dd8/decider_2gyro__decider_8h.html" target="_top" xlink:title="装甲板模块决策器头文件">
<polygon fill="white" stroke="black" points="593,-0.5 593,-19.5 745,-19.5 745,-0.5 593,-0.5"/>
<text text-anchor="middle" x="669" y="-7.5" font-family="Helvetica,sans-Serif" font-size="10.00">rmvl/decider/gyro_decider.h</text>
</a>
</g>
</g>
<!-- Node28&#45;&gt;Node29 -->
<g id="edge33" class="edge">
<title>Node28&#45;&gt;Node29</title>
<path fill="none" stroke="midnightblue" d="M1014.26,-248.62C846.93,-232.82 437.75,-189.75 398,-143 374.8,-115.71 396.1,-83.41 433,-56 457.94,-37.47 533.8,-25.27 592.85,-18.3"/>
<polygon fill="midnightblue" stroke="midnightblue" points="1014.17,-252.13 1024.45,-249.58 1014.82,-245.16 1014.17,-252.13"/>
</g>
<!-- Node30 -->
<g id="node30" class="node">
<title>Node30</title>
<g id="a_node30"><a xlink:href="../../d9/dd1/group_8h.html" target="_top" xlink:title="序列组抽象头文件">
<polygon fill="white" stroke="black" points="907,-185 907,-204 1017,-204 1017,-185 907,-185"/>
<text text-anchor="middle" x="962" y="-192" font-family="Helvetica,sans-Serif" font-size="10.00">rmvl/group/group.h</text>
</a>
</g>
</g>
<!-- Node28&#45;&gt;Node30 -->
<g id="edge34" class="edge">
<title>Node28&#45;&gt;Node30</title>
<path fill="none" stroke="midnightblue" d="M1058.17,-242.02C1034.31,-230.48 1000.13,-213.94 979.59,-204.01"/>
<polygon fill="midnightblue" stroke="midnightblue" points="1056.85,-245.27 1067.38,-246.48 1059.9,-238.97 1056.85,-245.27"/>
</g>
<!-- Node51 -->
<g id="node42" class="node">
<title>Node51</title>
<g id="a_node42"><a xlink:href="../../dc/d2d/rmvl_2tracker_8hpp.html" target="_top" xlink:title=" ">
<polygon fill="white" stroke="black" points="1037,-185 1037,-204 1133,-204 1133,-185 1037,-185"/>
<text text-anchor="middle" x="1085" y="-192" font-family="Helvetica,sans-Serif" font-size="10.00">rmvl/tracker.hpp</text>
</a>
</g>
</g>
<!-- Node28&#45;&gt;Node51 -->
<g id="edge55" class="edge">
<title>Node28&#45;&gt;Node51</title>
<path fill="none" stroke="midnightblue" d="M1085,-236.32C1085,-225.5 1085,-212.4 1085,-204.01"/>
<polygon fill="midnightblue" stroke="midnightblue" points="1081.5,-236.48 1085,-246.48 1088.5,-236.48 1081.5,-236.48"/>
</g>
<!-- Node31 -->
<g id="node31" class="node">
<title>Node31</title>
<g id="a_node31"><a xlink:href="../../d9/df2/compensator_8h.html" target="_top" xlink:title="抽象补偿类头文件">
<polygon fill="white" stroke="black" points="717.5,-123.5 717.5,-142.5 898.5,-142.5 898.5,-123.5 717.5,-123.5"/>
<text text-anchor="middle" x="808" y="-130.5" font-family="Helvetica,sans-Serif" font-size="10.00">rmvl/compensator/compensator.h</text>
</a>
</g>
</g>
<!-- Node30&#45;&gt;Node31 -->
<g id="edge35" class="edge">
<title>Node30&#45;&gt;Node31</title>
<path fill="none" stroke="midnightblue" d="M930.38,-181.28C900.45,-169.72 856.31,-152.66 830.02,-142.51"/>
<polygon fill="midnightblue" stroke="midnightblue" points="929.35,-184.64 939.94,-184.98 931.87,-178.11 929.35,-184.64"/>
</g>
<!-- Node39 -->
<g id="node36" class="node">
<title>Node39</title>
<g id="a_node36"><a xlink:href="../../d5/d9f/detector_8h.html" target="_top" xlink:title="抽象识别类头文件">
<polygon fill="white" stroke="red" points="1184,-123.5 1184,-142.5 1318,-142.5 1318,-123.5 1184,-123.5"/>
<text text-anchor="middle" x="1251" y="-130.5" font-family="Helvetica,sans-Serif" font-size="10.00">rmvl/detector/detector.h</text>
</a>
</g>
</g>
<!-- Node30&#45;&gt;Node39 -->
<g id="edge41" class="edge">
<title>Node30&#45;&gt;Node39</title>
<path fill="none" stroke="midnightblue" d="M1010.29,-182.79C1016.25,-181.5 1022.26,-180.21 1028,-179 1090.22,-165.89 1162.38,-151.47 1207.37,-142.57"/>
<polygon fill="midnightblue" stroke="midnightblue" points="1009.39,-179.4 1000.37,-184.95 1010.88,-186.24 1009.39,-179.4"/>
</g>
<!-- Node42 -->
<g id="node38" class="node">
<title>Node42</title>
<g id="a_node38"><a xlink:href="../../d3/df0/group_2gyro__group_8h.html" target="_top" xlink:title="装甲序列组头文件">
<polygon fill="white" stroke="black" points="407.5,-123.5 407.5,-142.5 544.5,-142.5 544.5,-123.5 407.5,-123.5"/>
<text text-anchor="middle" x="476" y="-130.5" font-family="Helvetica,sans-Serif" font-size="10.00">rmvl/group/gyro_group.h</text>
</a>
</g>
</g>
<!-- Node30&#45;&gt;Node42 -->
<g id="edge47" class="edge">
<title>Node30&#45;&gt;Node42</title>
<path fill="none" stroke="midnightblue" d="M896.72,-185.51C804.95,-174.27 638.56,-153.9 544.88,-142.43"/>
<polygon fill="midnightblue" stroke="midnightblue" points="896.37,-188.99 906.72,-186.73 897.22,-182.04 896.37,-188.99"/>
</g>
<!-- Node43 -->
<g id="node39" class="node">
<title>Node43</title>
<g id="a_node39"><a xlink:href="../../d8/df3/group_2rune__group_8h.html" target="_top" xlink:title="神符序列组头文件">
<polygon fill="white" stroke="black" points="562.5,-123.5 562.5,-142.5 699.5,-142.5 699.5,-123.5 562.5,-123.5"/>
<text text-anchor="middle" x="631" y="-130.5" font-family="Helvetica,sans-Serif" font-size="10.00">rmvl/group/rune_group.h</text>
</a>
</g>
</g>
<!-- Node30&#45;&gt;Node43 -->
<g id="edge48" class="edge">
<title>Node30&#45;&gt;Node43</title>
<path fill="none" stroke="midnightblue" d="M904.63,-183.19C840.56,-171.67 738.02,-153.24 678.34,-142.51"/>
<polygon fill="midnightblue" stroke="midnightblue" points="904.11,-186.65 914.58,-184.98 905.35,-179.76 904.11,-186.65"/>
</g>
<!-- Node44 -->
<g id="node40" class="node">
<title>Node44</title>
<g id="a_node40"><a xlink:href="../../db/d4f/rmvl_2group_8hpp.html" target="_top" xlink:title=" ">
<polygon fill="white" stroke="black" points="916.5,-123.5 916.5,-142.5 1007.5,-142.5 1007.5,-123.5 916.5,-123.5"/>
<text text-anchor="middle" x="962" y="-130.5" font-family="Helvetica,sans-Serif" font-size="10.00">rmvl/group.hpp</text>
</a>
</g>
</g>
<!-- Node30&#45;&gt;Node44 -->
<g id="edge49" class="edge">
<title>Node30&#45;&gt;Node44</title>
<path fill="none" stroke="midnightblue" d="M962,-174.82C962,-164 962,-150.9 962,-142.51"/>
<polygon fill="midnightblue" stroke="midnightblue" points="958.5,-174.98 962,-184.98 965.5,-174.98 958.5,-174.98"/>
</g>
<!-- Node45 -->
<g id="node41" class="node">
<title>Node45</title>
<g id="a_node41"><a xlink:href="../../dc/d08/predictor_8h.html" target="_top" xlink:title="抽象预测类头文件">
<polygon fill="white" stroke="red" points="1026,-123.5 1026,-142.5 1166,-142.5 1166,-123.5 1026,-123.5"/>
<text text-anchor="middle" x="1096" y="-130.5" font-family="Helvetica,sans-Serif" font-size="10.00">rmvl/predictor/predictor.h</text>
</a>
</g>
</g>
<!-- Node30&#45;&gt;Node45 -->
<g id="edge50" class="edge">
<title>Node30&#45;&gt;Node45</title>
<path fill="none" stroke="midnightblue" d="M990.54,-180.83C1016.55,-169.28 1054.26,-152.53 1076.84,-142.51"/>
<polygon fill="midnightblue" stroke="midnightblue" points="988.92,-177.72 981.2,-184.98 991.76,-184.12 988.92,-177.72"/>
</g>
<!-- Node32 -->
<g id="node32" class="node">
<title>Node32</title>
<g id="a_node32"><a xlink:href="../../d1/d91/compensator_2gravity__compensator_8h.html" target="_top" xlink:title="重力模型补偿头文件">
<polygon fill="white" stroke="black" points="736.5,-56.5 736.5,-86.5 879.5,-86.5 879.5,-56.5 736.5,-56.5"/>
<text text-anchor="start" x="744.5" y="-74.5" font-family="Helvetica,sans-Serif" font-size="10.00">rmvl/compensator/gravity</text>
<text text-anchor="middle" x="808" y="-63.5" font-family="Helvetica,sans-Serif" font-size="10.00">_compensator.h</text>
</a>
</g>
</g>
<!-- Node31&#45;&gt;Node32 -->
<g id="edge36" class="edge">
<title>Node31&#45;&gt;Node32</title>
<path fill="none" stroke="midnightblue" d="M808,-113.23C808,-104.59 808,-94.5 808,-86.52"/>
<polygon fill="midnightblue" stroke="midnightblue" points="804.5,-113.48 808,-123.48 811.5,-113.48 804.5,-113.48"/>
</g>
<!-- Node33 -->
<g id="node33" class="node">
<title>Node33</title>
<g id="a_node33"><a xlink:href="../../d5/d90/compensator_2gyro__compensator_8h.html" target="_top" xlink:title="整车状态补偿模块接口声明">
<polygon fill="white" stroke="black" points="442.5,-56.5 442.5,-86.5 573.5,-86.5 573.5,-56.5 442.5,-56.5"/>
<text text-anchor="start" x="450.5" y="-74.5" font-family="Helvetica,sans-Serif" font-size="10.00">rmvl/compensator/gyro</text>
<text text-anchor="middle" x="508" y="-63.5" font-family="Helvetica,sans-Serif" font-size="10.00">_compensator.h</text>
</a>
</g>
</g>
<!-- Node31&#45;&gt;Node33 -->
<g id="edge37" class="edge">
<title>Node31&#45;&gt;Node33</title>
<path fill="none" stroke="midnightblue" d="M754.94,-121.48C704.33,-111.44 627.96,-96.29 573.56,-85.5"/>
<polygon fill="midnightblue" stroke="midnightblue" points="754.53,-124.96 765.02,-123.48 755.89,-118.1 754.53,-124.96"/>
</g>
<!-- Node34 -->
<g id="node34" class="node">
<title>Node34</title>
<g id="a_node34"><a xlink:href="../../d6/ddf/rmvl_2compensator_8hpp.html" target="_top" xlink:title=" ">
<polygon fill="white" stroke="black" points="592,-62 592,-81 718,-81 718,-62 592,-62"/>
<text text-anchor="middle" x="655" y="-69" font-family="Helvetica,sans-Serif" font-size="10.00">rmvl/compensator.hpp</text>
</a>
</g>
</g>
<!-- Node31&#45;&gt;Node34 -->
<g id="edge38" class="edge">
<title>Node31&#45;&gt;Node34</title>
<path fill="none" stroke="midnightblue" d="M776.58,-119.78C746.85,-108.22 702.99,-91.16 676.88,-81.01"/>
<polygon fill="midnightblue" stroke="midnightblue" points="775.49,-123.11 786.08,-123.48 778.03,-116.59 775.49,-123.11"/>
</g>
<!-- Node35 -->
<g id="node35" class="node">
<title>Node35</title>
<g id="a_node35"><a xlink:href="../../d3/d70/decider_8h.html" target="_top" xlink:title="抽象决策类头文件">
<polygon fill="white" stroke="red" points="897.5,-62 897.5,-81 1022.5,-81 1022.5,-62 897.5,-62"/>
<text text-anchor="middle" x="960" y="-69" font-family="Helvetica,sans-Serif" font-size="10.00">rmvl/decider/decider.h</text>
</a>
</g>
</g>
<!-- Node31&#45;&gt;Node35 -->
<g id="edge39" class="edge">
<title>Node31&#45;&gt;Node35</title>
<path fill="none" stroke="midnightblue" d="M839.21,-119.78C868.75,-108.22 912.32,-91.16 938.26,-81.01"/>
<polygon fill="midnightblue" stroke="midnightblue" points="837.81,-116.57 829.78,-123.48 840.37,-123.09 837.81,-116.57"/>
</g>
<!-- Node35&#45;&gt;Node29 -->
<g id="edge40" class="edge">
<title>Node35&#45;&gt;Node29</title>
<path fill="none" stroke="midnightblue" d="M908.17,-59.9C851.75,-48.37 762.66,-30.15 710.62,-19.51"/>
<polygon fill="midnightblue" stroke="midnightblue" points="907.81,-63.4 918.31,-61.98 909.21,-56.54 907.81,-63.4"/>
</g>
<!-- Node39&#45;&gt;Node21 -->
<g id="edge44" class="edge">
<title>Node39&#45;&gt;Node21</title>
<path fill="none" stroke="midnightblue" d="M1255.89,-113.82C1258.25,-105.04 1261.04,-94.68 1263.23,-86.52"/>
<polygon fill="midnightblue" stroke="midnightblue" points="1252.51,-112.91 1253.29,-123.48 1259.27,-114.73 1252.51,-112.91"/>
</g>
<!-- Node39&#45;&gt;Node23 -->
<g id="edge43" class="edge">
<title>Node39&#45;&gt;Node23</title>
<path fill="none" stroke="midnightblue" d="M1281.24,-119.59C1304.75,-109.94 1337.37,-96.56 1361.83,-86.52"/>
<polygon fill="midnightblue" stroke="midnightblue" points="1279.7,-116.44 1271.77,-123.48 1282.36,-122.92 1279.7,-116.44"/>
</g>
<!-- Node39&#45;&gt;Node26 -->
<g id="edge45" class="edge">
<title>Node39&#45;&gt;Node26</title>
<path fill="none" stroke="midnightblue" d="M1302.43,-121.39C1345.4,-112.46 1408.26,-99.21 1463,-87 1465.7,-86.4 1468.46,-85.78 1471.25,-85.14"/>
<polygon fill="midnightblue" stroke="midnightblue" points="1301.57,-118 1292.49,-123.46 1302.99,-124.85 1301.57,-118"/>
</g>
<!-- Node39&#45;&gt;Node35 -->
<g id="edge42" class="edge">
<title>Node39&#45;&gt;Node35</title>
<path fill="none" stroke="midnightblue" d="M1199.17,-121.4C1142.75,-109.87 1053.66,-91.65 1001.62,-81.01"/>
<polygon fill="midnightblue" stroke="midnightblue" points="1198.81,-124.9 1209.31,-123.48 1200.21,-118.04 1198.81,-124.9"/>
</g>
<!-- Node40 -->
<g id="node37" class="node">
<title>Node40</title>
<g id="a_node37"><a xlink:href="../../d6/d58/detector_2tag__detector_8h.html" target="_top" xlink:title="AprilTag 识别模块">
<polygon fill="white" stroke="black" points="1040.5,-62 1040.5,-81 1195.5,-81 1195.5,-62 1040.5,-62"/>
<text text-anchor="middle" x="1118" y="-69" font-family="Helvetica,sans-Serif" font-size="10.00">rmvl/detector/tag_detector.h</text>
</a>
</g>
</g>
<!-- Node39&#45;&gt;Node40 -->
<g id="edge46" class="edge">
<title>Node39&#45;&gt;Node40</title>
<path fill="none" stroke="midnightblue" d="M1222.67,-119.33C1196.85,-107.78 1159.42,-91.03 1137.02,-81.01"/>
<polygon fill="midnightblue" stroke="midnightblue" points="1221.39,-122.59 1231.94,-123.48 1224.25,-116.2 1221.39,-122.59"/>
</g>
<!-- Node45&#45;&gt;Node35 -->
<g id="edge51" class="edge">
<title>Node45&#45;&gt;Node35</title>
<path fill="none" stroke="midnightblue" d="M1067.03,-119.33C1040.63,-107.78 1002.36,-91.03 979.45,-81.01"/>
<polygon fill="midnightblue" stroke="midnightblue" points="1065.95,-122.67 1076.51,-123.48 1068.76,-116.26 1065.95,-122.67"/>
</g>
<!-- Node52&#45;&gt;Node18 -->
<g id="edge57" class="edge">
<title>Node52&#45;&gt;Node18</title>
<path fill="none" stroke="midnightblue" d="M987.56,-416.84C970.9,-391.86 940.57,-346.36 927.85,-327.28"/>
<polygon fill="midnightblue" stroke="midnightblue" points="984.75,-418.94 993.21,-425.32 990.58,-415.06 984.75,-418.94"/>
</g>
<!-- Node53 -->
<g id="node44" class="node">
<title>Node53</title>
<g id="a_node44"><a xlink:href="../../d2/d74/feature_8h.html" target="_top" xlink:title="feature class header">
<polygon fill="white" stroke="black" points="1179.5,-369.5 1179.5,-388.5 1304.5,-388.5 1304.5,-369.5 1179.5,-369.5"/>
<text text-anchor="middle" x="1242" y="-376.5" font-family="Helvetica,sans-Serif" font-size="10.00">rmvl/feature/feature.h</text>
</a>
</g>
</g>
<!-- Node52&#45;&gt;Node53 -->
<g id="edge58" class="edge">
<title>Node52&#45;&gt;Node53</title>
<path fill="none" stroke="midnightblue" d="M1047.52,-423.22C1093.44,-413.01 1161.45,-397.9 1203.68,-388.52"/>
<polygon fill="midnightblue" stroke="midnightblue" points="1046.51,-419.86 1037.5,-425.44 1048.03,-426.69 1046.51,-419.86"/>
</g>
<!-- Node53&#45;&gt;Node18 -->
<g id="edge59" class="edge">
<title>Node53&#45;&gt;Node18</title>
<path fill="none" stroke="midnightblue" d="M1182,-367.65C1131.3,-358.8 1056.81,-345.54 992,-333 982.37,-331.14 972.02,-329.04 962.31,-327.04"/>
<polygon fill="midnightblue" stroke="midnightblue" points="1181.67,-371.15 1192.12,-369.42 1182.87,-364.25 1181.67,-371.15"/>
</g>
<!-- Node54 -->
<g id="node45" class="node">
<title>Node54</title>
<g id="a_node45"><a xlink:href="../../d4/d54/feature_2light__blob_8h.html" target="_top" xlink:title="灯条类头文件">
<polygon fill="white" stroke="black" points="1369,-302.5 1369,-332.5 1471,-332.5 1471,-302.5 1369,-302.5"/>
<text text-anchor="start" x="1377" y="-320.5" font-family="Helvetica,sans-Serif" font-size="10.00">rmvl/feature/light</text>
<text text-anchor="middle" x="1420" y="-309.5" font-family="Helvetica,sans-Serif" font-size="10.00">_blob.h</text>
</a>
</g>
</g>
<!-- Node53&#45;&gt;Node54 -->
<g id="edge60" class="edge">
<title>Node53&#45;&gt;Node54</title>
<path fill="none" stroke="midnightblue" d="M1277.21,-366.23C1306.19,-356.54 1347.36,-342.78 1378.05,-332.52"/>
<polygon fill="midnightblue" stroke="midnightblue" points="1275.88,-362.99 1267.5,-369.48 1278.1,-369.62 1275.88,-362.99"/>
</g>
<!-- Node55 -->
<g id="node46" class="node">
<title>Node55</title>
<g id="a_node46"><a xlink:href="../../df/d8b/feature_2pilot_8h.html" target="_top" xlink:title="引导灯类头文件">
<polygon fill="white" stroke="black" points="1000.5,-308 1000.5,-327 1111.5,-327 1111.5,-308 1000.5,-308"/>
<text text-anchor="middle" x="1056" y="-315" font-family="Helvetica,sans-Serif" font-size="10.00">rmvl/feature/pilot.h</text>
</a>
</g>
</g>
<!-- Node53&#45;&gt;Node55 -->
<g id="edge62" class="edge">
<title>Node53&#45;&gt;Node55</title>
<path fill="none" stroke="midnightblue" d="M1205.68,-366.38C1169.52,-354.82 1114.9,-337.34 1082.6,-327.01"/>
<polygon fill="midnightblue" stroke="midnightblue" points="1204.76,-369.76 1215.35,-369.48 1206.89,-363.09 1204.76,-369.76"/>
</g>
<!-- Node56 -->
<g id="node47" class="node">
<title>Node56</title>
<g id="a_node47"><a xlink:href="../../d6/d1d/feature_2rune__center_8h.html" target="_top" xlink:title=" ">
<polygon fill="white" stroke="black" points="1489,-308 1489,-327 1635,-327 1635,-308 1489,-308"/>
<text text-anchor="middle" x="1562" y="-315" font-family="Helvetica,sans-Serif" font-size="10.00">rmvl/feature/rune_center.h</text>
</a>
</g>
</g>
<!-- Node53&#45;&gt;Node56 -->
<g id="edge63" class="edge">
<title>Node53&#45;&gt;Node56</title>
<path fill="none" stroke="midnightblue" d="M1297.84,-367.62C1359.81,-356.09 1458.65,-337.72 1516.24,-327.01"/>
<polygon fill="midnightblue" stroke="midnightblue" points="1297.04,-364.21 1287.85,-369.48 1298.32,-371.09 1297.04,-364.21"/>
</g>
<!-- Node57 -->
<g id="node48" class="node">
<title>Node57</title>
<g id="a_node48"><a xlink:href="../../d2/d8d/feature_2rune__target_8h.html" target="_top" xlink:title=" ">
<polygon fill="white" stroke="black" points="1653,-308 1653,-327 1799,-327 1799,-308 1653,-308"/>
<text text-anchor="middle" x="1726" y="-315" font-family="Helvetica,sans-Serif" font-size="10.00">rmvl/feature/rune_target.h</text>
</a>
</g>
</g>
<!-- Node53&#45;&gt;Node57 -->
<g id="edge65" class="edge">
<title>Node53&#45;&gt;Node57</title>
<path fill="none" stroke="midnightblue" d="M1314.88,-371.25C1395.55,-363.45 1529.35,-349.54 1644,-333 1655.88,-331.29 1668.67,-329.16 1680.54,-327.07"/>
<polygon fill="midnightblue" stroke="midnightblue" points="1314.44,-367.77 1304.83,-372.21 1315.12,-374.74 1314.44,-367.77"/>
</g>
<!-- Node58 -->
<g id="node49" class="node">
<title>Node58</title>
<g id="a_node49"><a xlink:href="../../d2/dcd/tag_8h.html" target="_top" xlink:title="AprilTag 视觉标签特征类">
<polygon fill="white" stroke="black" points="1129.5,-308 1129.5,-327 1234.5,-327 1234.5,-308 1129.5,-308"/>
<text text-anchor="middle" x="1182" y="-315" font-family="Helvetica,sans-Serif" font-size="10.00">rmvl/feature/tag.h</text>
</a>
</g>
</g>
<!-- Node53&#45;&gt;Node58 -->
<g id="edge67" class="edge">
<title>Node53&#45;&gt;Node58</title>
<path fill="none" stroke="midnightblue" d="M1226.19,-362.32C1214.79,-351.02 1199.84,-336.19 1190.58,-327.01"/>
<polygon fill="midnightblue" stroke="midnightblue" points="1223.84,-364.92 1233.4,-369.48 1228.77,-359.95 1223.84,-364.92"/>
</g>
<!-- Node59 -->
<g id="node50" class="node">
<title>Node59</title>
<g id="a_node50"><a xlink:href="../../d7/d13/rmvl_2feature_8hpp.html" target="_top" xlink:title=" ">
<polygon fill="white" stroke="black" points="1253,-308 1253,-327 1351,-327 1351,-308 1253,-308"/>
<text text-anchor="middle" x="1302" y="-315" font-family="Helvetica,sans-Serif" font-size="10.00">rmvl/feature.hpp</text>
</a>
</g>
</g>
<!-- Node53&#45;&gt;Node59 -->
<g id="edge68" class="edge">
<title>Node53&#45;&gt;Node59</title>
<path fill="none" stroke="midnightblue" d="M1257.81,-362.32C1269.21,-351.02 1284.16,-336.19 1293.42,-327.01"/>
<polygon fill="midnightblue" stroke="midnightblue" points="1255.23,-359.95 1250.6,-369.48 1260.16,-364.92 1255.23,-359.95"/>
</g>
<!-- Node54&#45;&gt;Node19 -->
<g id="edge61" class="edge">
<title>Node54&#45;&gt;Node19</title>
<path fill="none" stroke="midnightblue" d="M1383.22,-297.8C1362.08,-287.04 1336.52,-274.05 1320.02,-265.66"/>
<polygon fill="midnightblue" stroke="midnightblue" points="1381.77,-300.99 1392.27,-302.4 1384.95,-294.75 1381.77,-300.99"/>
</g>
<!-- Node56&#45;&gt;Node24 -->
<g id="edge64" class="edge">
<title>Node56&#45;&gt;Node24</title>
<path fill="none" stroke="midnightblue" d="M1556.14,-298.16C1552.67,-287.27 1548.42,-273.99 1545.72,-265.51"/>
<polygon fill="midnightblue" stroke="midnightblue" points="1552.9,-299.51 1559.28,-307.98 1559.57,-297.38 1552.9,-299.51"/>
</g>
<!-- Node57&#45;&gt;Node24 -->
<g id="edge66" class="edge">
<title>Node57&#45;&gt;Node24</title>
<path fill="none" stroke="midnightblue" d="M1690.26,-304.88C1654.69,-293.32 1600.95,-275.84 1569.17,-265.51"/>
<polygon fill="midnightblue" stroke="midnightblue" points="1689.19,-308.21 1699.78,-307.98 1691.35,-301.55 1689.19,-308.21"/>
</g>
</g>
</svg>
