<?xml version="1.0" encoding="UTF-8" standalone="no"?>
<!DOCTYPE svg PUBLIC "-//W3C//DTD SVG 1.1//EN"
 "http://www.w3.org/Graphics/SVG/1.1/DTD/svg11.dtd">
<!-- Generated by graphviz version 2.43.0 (0)
 -->
<!-- Title: rm::Router::WSRouteEntry Pages: 1 -->
<svg width="288pt" height="189pt"
 viewBox="0.00 0.00 287.50 189.00" xmlns="http://www.w3.org/2000/svg" xmlns:xlink="http://www.w3.org/1999/xlink">

<svg id="main" version="1.1" xmlns="http://www.w3.org/2000/svg" xmlns:xlink="http://www.w3.org/1999/xlink" xml:space="preserve">

<style type="text/css"><![CDATA[
.node, .edge {opacity: 0.7;}
.node.selected, .edge.selected {opacity: 1;}
.edge:hover path { stroke: red; }
.edge:hover polygon { stroke: red; fill: red; }
]]></style>
<script type="application/ecmascript" xlink:href="../../svg.min.js"/>
<svg id="graph" class="graph">
<g id="graph0" class="graph" transform="scale(1 1) rotate(0) translate(4 185)">
<title>rm::Router::WSRouteEntry</title>
<!-- Node1 -->
<g id="Node000001" class="node">
<title>Node1</title>
<g id="a_Node000001"><a xlink:title="WebSocket 路由条目">
<polygon fill="#999999" stroke="transparent" points="199,-49 70,-49 70,0 199,0 199,-49"/>
<text text-anchor="start" x="75.5" y="-36.5" font-family="Helvetica,sans-Serif" font-size="10.00">rm::Router::WSRouteEntry</text>
<text text-anchor="start" x="133" y="-21.5" font-family="Helvetica,sans-Serif" font-size="10.00"> </text>
<text text-anchor="start" x="83.5" y="-6.5" font-family="Helvetica,sans-Serif" font-size="10.00">+</text>
<text text-anchor="start" x="103.5" y="-6.5" font-family="Helvetica,sans-Serif" font-size="10.00">WSRouteEntry()</text>
<polygon fill="#666666" stroke="#666666" points="70.5,-31.5 70.5,-31.5 199.5,-31.5 199.5,-31.5 70.5,-31.5"/>
<polygon fill="#666666" stroke="#666666" points="70.5,-16.5 70.5,-16.5 199.5,-16.5 199.5,-16.5 70.5,-16.5"/>
<polygon fill="none" stroke="#666666" points="70,0 70,-49 199,-49 199,0 70,0"/>
</a>
</g>
</g>
<!-- Node2 -->
<g id="Node000002" class="node">
<title>Node2</title>
<g id="a_Node000002"><a xlink:href="../../dc/da4/classrm_1_1Router_1_1RoutePattern.html" target="_top" xlink:title="路由模式匹配器">
<polygon fill="white" stroke="transparent" points="121,-181 0,-181 0,-102 121,-102 121,-181"/>
<text text-anchor="start" x="5.5" y="-168.5" font-family="Helvetica,sans-Serif" font-size="10.00">rm::Router::RoutePattern</text>
<text text-anchor="start" x="59" y="-153.5" font-family="Helvetica,sans-Serif" font-size="10.00"> </text>
<text text-anchor="start" x="14" y="-138.5" font-family="Helvetica,sans-Serif" font-size="10.00">+</text>
<text text-anchor="start" x="34.5" y="-138.5" font-family="Helvetica,sans-Serif" font-size="10.00">RoutePattern()</text>
<text text-anchor="start" x="14" y="-123.5" font-family="Helvetica,sans-Serif" font-size="10.00">+</text>
<text text-anchor="start" x="34.5" y="-123.5" font-family="Helvetica,sans-Serif" font-size="10.00">match()</text>
<text text-anchor="start" x="14" y="-108.5" font-family="Helvetica,sans-Serif" font-size="10.00">+</text>
<text text-anchor="start" x="34.5" y="-108.5" font-family="Helvetica,sans-Serif" font-size="10.00">pattern()</text>
<polygon fill="#666666" stroke="#666666" points="0.5,-163.5 0.5,-163.5 121.5,-163.5 121.5,-163.5 0.5,-163.5"/>
<polygon fill="#666666" stroke="#666666" points="0.5,-148.5 0.5,-148.5 121.5,-148.5 121.5,-148.5 0.5,-148.5"/>
<polygon fill="none" stroke="#666666" points="0,-102 0,-181 121,-181 121,-102 0,-102"/>
</a>
</g>
</g>
<!-- Node2&#45;&gt;Node1 -->
<g id="edge1_Node000001_Node000002" class="edge">
<title>Node2&#45;&gt;Node1</title>
<g id="a_edge1_Node000001_Node000002"><a xlink:title=" ">
<path fill="none" stroke="#63b8ff" d="M85.35,-101.89C94.23,-88.09 104.16,-72.66 112.75,-59.3"/>
<polygon fill="none" stroke="#63b8ff" points="112.82,-59.19 112.71,-51.98 119.32,-49.1 119.43,-56.31 112.82,-59.19"/>
</a>
</g>
<text text-anchor="start" x="110" y="-72.5" font-family="Helvetica,sans-Serif" font-size="10.00" fill="grey">+pattern</text>
</g>
<!-- Node3 -->
<g id="Node000003" class="node">
<title>Node3</title>
<g id="a_Node000003"><a xlink:title=" ">
<polygon fill="white" stroke="transparent" points="279.5,-171.5 139.5,-171.5 139.5,-111.5 279.5,-111.5 279.5,-171.5"/>
<text text-anchor="start" x="144.5" y="-159.5" font-family="Helvetica,sans-Serif" font-size="10.00">function&lt; Task&lt;&gt;(WebSocket</text>
<text text-anchor="start" x="160" y="-148.5" font-family="Helvetica,sans-Serif" font-size="10.00"> &amp;, const Request &amp;)&gt;</text>
<text text-anchor="start" x="207.5" y="-133.5" font-family="Helvetica,sans-Serif" font-size="10.00"> </text>
<text text-anchor="start" x="207.5" y="-118.5" font-family="Helvetica,sans-Serif" font-size="10.00"> </text>
<polygon fill="#666666" stroke="#666666" points="139.5,-143.5 139.5,-143.5 279.5,-143.5 279.5,-143.5 139.5,-143.5"/>
<polygon fill="#666666" stroke="#666666" points="139.5,-128.5 139.5,-128.5 279.5,-128.5 279.5,-128.5 139.5,-128.5"/>
<polygon fill="none" stroke="#666666" points="139.5,-111.5 139.5,-171.5 279.5,-171.5 279.5,-111.5 139.5,-111.5"/>
</a>
</g>
</g>
<!-- Node3&#45;&gt;Node1 -->
<g id="edge2_Node000001_Node000003" class="edge">
<title>Node3&#45;&gt;Node1</title>
<g id="a_edge2_Node000001_Node000003"><a xlink:title=" ">
<path fill="none" stroke="#63b8ff" d="M190.57,-111.48C180.25,-95.65 167.42,-75.97 156.63,-59.43"/>
<polygon fill="none" stroke="#63b8ff" points="156.44,-59.14 149.81,-56.3 149.89,-49.09 156.51,-51.93 156.44,-59.14"/>
</a>
</g>
<text text-anchor="start" x="174.5" y="-72.5" font-family="Helvetica,sans-Serif" font-size="10.00" fill="grey">+handler</text>
</g>
</g>
</svg>
</svg>

<style type='text/css'>
<![CDATA[
[data-mouse-over-selected='false'] { opacity: 0.7; }
[data-mouse-over-selected='true']  { opacity: 1.0; }
]]>
</style>
<script type="application/ecmascript"><![CDATA[
document.addEventListener('DOMContentLoaded', (event) => {
  highlightEdges();
  highlightAdjacentNodes();
});
]]></script>
</svg>
