<?xml version="1.0" encoding="UTF-8" standalone="no"?>
<!DOCTYPE svg PUBLIC "-//W3C//DTD SVG 1.1//EN"
 "http://www.w3.org/Graphics/SVG/1.1/DTD/svg11.dtd">
<!-- Generated by graphviz version 2.43.0 (0)
 -->
<!-- Title: rm::Router::WSRouteEntry Pages: 1 -->
<svg width="314pt" height="183pt"
 viewBox="0.00 0.00 314.00 183.00" xmlns="http://www.w3.org/2000/svg" xmlns:xlink="http://www.w3.org/1999/xlink">

<svg id="main" version="1.1" xmlns="http://www.w3.org/2000/svg" xmlns:xlink="http://www.w3.org/1999/xlink" xml:space="preserve">

<style type="text/css"><![CDATA[
.node, .edge {opacity: 0.7;}
.node.selected, .edge.selected {opacity: 1;}
.edge:hover path { stroke: red; }
.edge:hover polygon { stroke: red; fill: red; }
]]></style>
<script type="application/ecmascript" xlink:href="../../svg.min.js"/>
<svg id="graph" class="graph">
<g id="graph0" class="graph" transform="scale(1 1) rotate(0) translate(4 179)">
<title>rm::Router::WSRouteEntry</title>
<!-- Node1 -->
<g id="Node000001" class="node">
<title>Node1</title>
<g id="a_Node000001"><a xlink:title="WebSocket 路由条目">
<polygon fill="#999999" stroke="transparent" points="215.5,-49 77.5,-49 77.5,0 215.5,0 215.5,-49"/>
<text text-anchor="start" x="82.5" y="-36.5" font-family="Helvetica,sans-Serif" font-size="10.00">rm::Router::WSRouteEntry</text>
<text text-anchor="start" x="144.5" y="-21.5" font-family="Helvetica,sans-Serif" font-size="10.00"> </text>
<text text-anchor="start" x="91" y="-6.5" font-family="Helvetica,sans-Serif" font-size="10.00">+</text>
<text text-anchor="start" x="113.5" y="-6.5" font-family="Helvetica,sans-Serif" font-size="10.00">WSRouteEntry()</text>
<polygon fill="#666666" stroke="#666666" points="77.5,-31.5 77.5,-31.5 215.5,-31.5 215.5,-31.5 77.5,-31.5"/>
<polygon fill="#666666" stroke="#666666" points="77.5,-16.5 77.5,-16.5 215.5,-16.5 215.5,-16.5 77.5,-16.5"/>
<polygon fill="none" stroke="#666666" points="77.5,0 77.5,-49 215.5,-49 215.5,0 77.5,0"/>
</a>
</g>
</g>
<!-- Node2 -->
<g id="Node000002" class="node">
<title>Node2</title>
<g id="a_Node000002"><a xlink:href="../../dc/da4/classrm_1_1Router_1_1RoutePattern.html" target="_top" xlink:title="路由模式匹配器">
<polygon fill="white" stroke="transparent" points="131,-175 0,-175 0,-96 131,-96 131,-175"/>
<text text-anchor="start" x="5.5" y="-162.5" font-family="Helvetica,sans-Serif" font-size="10.00">rm::Router::RoutePattern</text>
<text text-anchor="start" x="64" y="-147.5" font-family="Helvetica,sans-Serif" font-size="10.00"> </text>
<text text-anchor="start" x="14" y="-132.5" font-family="Helvetica,sans-Serif" font-size="10.00">+</text>
<text text-anchor="start" x="36.5" y="-132.5" font-family="Helvetica,sans-Serif" font-size="10.00">RoutePattern()</text>
<text text-anchor="start" x="14" y="-117.5" font-family="Helvetica,sans-Serif" font-size="10.00">+</text>
<text text-anchor="start" x="36.5" y="-117.5" font-family="Helvetica,sans-Serif" font-size="10.00">match()</text>
<text text-anchor="start" x="14" y="-102.5" font-family="Helvetica,sans-Serif" font-size="10.00">+</text>
<text text-anchor="start" x="36.5" y="-102.5" font-family="Helvetica,sans-Serif" font-size="10.00">pattern()</text>
<polygon fill="#666666" stroke="#666666" points="0.5,-157.5 0.5,-157.5 131.5,-157.5 131.5,-157.5 0.5,-157.5"/>
<polygon fill="#666666" stroke="#666666" points="0.5,-142.5 0.5,-142.5 131.5,-142.5 131.5,-142.5 0.5,-142.5"/>
<polygon fill="none" stroke="#666666" points="0,-96 0,-175 131,-175 131,-96 0,-96"/>
</a>
</g>
</g>
<!-- Node2&#45;&gt;Node1 -->
<g id="edge1_Node000001_Node000002" class="edge">
<title>Node2&#45;&gt;Node1</title>
<g id="a_edge1_Node000001_Node000002"><a xlink:title=" ">
<path fill="none" stroke="#63b8ff" d="M94.29,-95.76C103.22,-83.74 112.98,-70.6 121.63,-58.97"/>
<polygon fill="none" stroke="#63b8ff" points="121.73,-58.84 122.1,-51.63 128.89,-49.2 128.52,-56.41 121.73,-58.84"/>
</a>
</g>
<text text-anchor="middle" x="140" y="-70" font-family="Helvetica,sans-Serif" font-size="10.00" fill="grey"> +pattern</text>
</g>
<!-- Node3 -->
<g id="Node000003" class="node">
<title>Node3</title>
<g id="a_Node000003"><a xlink:title=" ">
<polygon fill="white" stroke="transparent" points="306,-165.5 149,-165.5 149,-105.5 306,-105.5 306,-165.5"/>
<text text-anchor="start" x="154.5" y="-153.5" font-family="Helvetica,sans-Serif" font-size="10.00">function&lt; Task&lt;&gt;(WebSocket</text>
<text text-anchor="start" x="173.5" y="-142.5" font-family="Helvetica,sans-Serif" font-size="10.00"> &amp;, const Request &amp;)&gt;</text>
<text text-anchor="start" x="226" y="-127.5" font-family="Helvetica,sans-Serif" font-size="10.00"> </text>
<text text-anchor="start" x="226" y="-112.5" font-family="Helvetica,sans-Serif" font-size="10.00"> </text>
<polygon fill="#666666" stroke="#666666" points="149.5,-137.5 149.5,-137.5 306.5,-137.5 306.5,-137.5 149.5,-137.5"/>
<polygon fill="#666666" stroke="#666666" points="149.5,-122.5 149.5,-122.5 306.5,-122.5 306.5,-122.5 149.5,-122.5"/>
<polygon fill="none" stroke="#666666" points="149,-105.5 149,-165.5 306,-165.5 306,-105.5 149,-105.5"/>
</a>
</g>
</g>
<!-- Node3&#45;&gt;Node1 -->
<g id="edge2_Node000001_Node000003" class="edge">
<title>Node3&#45;&gt;Node1</title>
<g id="a_edge2_Node000001_Node000003"><a xlink:title=" ">
<path fill="none" stroke="#63b8ff" d="M205.79,-105.29C195.21,-91.05 182.42,-73.84 171.44,-59.06"/>
<polygon fill="none" stroke="#63b8ff" points="171.33,-58.91 164.54,-56.48 164.17,-49.28 170.96,-51.71 171.33,-58.91"/>
</a>
</g>
<text text-anchor="middle" x="209" y="-70" font-family="Helvetica,sans-Serif" font-size="10.00" fill="grey"> +handler</text>
</g>
</g>
</svg>
</svg>

<style type='text/css'>
<![CDATA[
[data-mouse-over-selected='false'] { opacity: 0.7; }
[data-mouse-over-selected='true']  { opacity: 1.0; }
]]>
</style>
<script type="application/ecmascript"><![CDATA[
document.addEventListener('DOMContentLoaded', (event) => {
  highlightEdges();
  highlightAdjacentNodes();
});
]]></script>
</svg>
