<?xml version="1.0" encoding="UTF-8" standalone="no"?>
<!DOCTYPE svg PUBLIC "-//W3C//DTD SVG 1.1//EN"
 "http://www.w3.org/Graphics/SVG/1.1/DTD/svg11.dtd">
<!-- Generated by graphviz version 2.43.0 (0)
 -->
<!-- Title: rmvl/predictor/predictor.h Pages: 1 -->
<svg width="1192pt" height="412pt"
 viewBox="0.00 0.00 1192.00 412.00" xmlns="http://www.w3.org/2000/svg" xmlns:xlink="http://www.w3.org/1999/xlink">
<g id="graph0" class="graph" transform="scale(1 1) rotate(0) translate(4 408)">
<title>rmvl/predictor/predictor.h</title>
<!-- Node1 -->
<g id="Node000001" class="node">
<title>Node1</title>
<g id="a_Node000001"><a xlink:title="抽象预测类头文件">
<polygon fill="#999999" stroke="#666666" points="264.5,-404 124.5,-404 124.5,-385 264.5,-385 264.5,-404"/>
<text text-anchor="middle" x="194.5" y="-392" font-family="Helvetica,sans-Serif" font-size="10.00">rmvl/predictor/predictor.h</text>
</a>
</g>
</g>
<!-- Node2 -->
<g id="Node000002" class="node">
<title>Node2</title>
<g id="a_Node000002"><a xlink:title=" ">
<polygon fill="#e0e0e0" stroke="#999999" points="93,-129 0,-129 0,-110 93,-110 93,-129"/>
<text text-anchor="middle" x="46.5" y="-117" font-family="Helvetica,sans-Serif" font-size="10.00">unordered_map</text>
</a>
</g>
</g>
<!-- Node1&#45;&gt;Node2 -->
<g id="edge1_Node000001_Node000002" class="edge">
<title>Node1&#45;&gt;Node2</title>
<g id="a_edge1_Node000001_Node000002"><a xlink:title=" ">
<path fill="none" stroke="#63b8ff" d="M188.8,-384.96C177.53,-367.23 153.5,-324.81 153.5,-285.5 153.5,-285.5 153.5,-285.5 153.5,-228.5 153.5,-183.77 106.61,-150.93 74.91,-133.84"/>
<polygon fill="#63b8ff" stroke="#63b8ff" points="76.12,-130.53 65.63,-129.05 72.91,-136.75 76.12,-130.53"/>
</a>
</g>
</g>
<!-- Node3 -->
<g id="Node000003" class="node">
<title>Node3</title>
<g id="a_Node000003"><a xlink:href="../../d9/dd1/group_8h.html" target="_top" xlink:title="序列组抽象头文件">
<polygon fill="white" stroke="#666666" points="439.5,-349 329.5,-349 329.5,-330 439.5,-330 439.5,-349"/>
<text text-anchor="middle" x="384.5" y="-337" font-family="Helvetica,sans-Serif" font-size="10.00">rmvl/group/group.h</text>
</a>
</g>
</g>
<!-- Node1&#45;&gt;Node3 -->
<g id="edge2_Node000001_Node000003" class="edge">
<title>Node1&#45;&gt;Node3</title>
<g id="a_edge2_Node000001_Node000003"><a xlink:title=" ">
<path fill="none" stroke="#63b8ff" d="M225.03,-384.98C257.2,-376.01 308.06,-361.82 343.67,-351.89"/>
<polygon fill="#63b8ff" stroke="#63b8ff" points="345.04,-355.14 353.73,-349.08 343.16,-348.4 345.04,-355.14"/>
</a>
</g>
</g>
<!-- Node4 -->
<g id="Node000004" class="node">
<title>Node4</title>
<g id="a_Node000004"><a xlink:href="../../dc/ded/tracker_8h.html" target="_top" xlink:title="追踪器抽象头文件">
<polygon fill="white" stroke="#666666" points="777,-294 656,-294 656,-275 777,-275 777,-294"/>
<text text-anchor="middle" x="716.5" y="-282" font-family="Helvetica,sans-Serif" font-size="10.00">rmvl/tracker/tracker.h</text>
</a>
</g>
</g>
<!-- Node3&#45;&gt;Node4 -->
<g id="edge3_Node000003_Node000004" class="edge">
<title>Node3&#45;&gt;Node4</title>
<g id="a_edge3_Node000003_Node000004"><a xlink:title=" ">
<path fill="none" stroke="#63b8ff" d="M437.84,-329.98C496.44,-320.63 590.51,-305.61 652.9,-295.65"/>
<polygon fill="#63b8ff" stroke="#63b8ff" points="653.69,-299.07 663.02,-294.04 652.59,-292.16 653.69,-299.07"/>
</a>
</g>
</g>
<!-- Node5 -->
<g id="Node000005" class="node">
<title>Node5</title>
<g id="a_Node000005"><a xlink:title=" ">
<polygon fill="#e0e0e0" stroke="#999999" points="842,-239 795,-239 795,-220 842,-220 842,-239"/>
<text text-anchor="middle" x="818.5" y="-227" font-family="Helvetica,sans-Serif" font-size="10.00">deque</text>
</a>
</g>
</g>
<!-- Node4&#45;&gt;Node5 -->
<g id="edge4_Node000004_Node000005" class="edge">
<title>Node4&#45;&gt;Node5</title>
<g id="a_edge4_Node000004_Node000005"><a xlink:title=" ">
<path fill="none" stroke="#63b8ff" d="M732.89,-274.98C749.07,-266.57 774.07,-253.59 792.88,-243.81"/>
<polygon fill="#63b8ff" stroke="#63b8ff" points="794.55,-246.89 801.81,-239.17 791.33,-240.68 794.55,-246.89"/>
</a>
</g>
</g>
<!-- Node6 -->
<g id="Node000006" class="node">
<title>Node6</title>
<g id="a_Node000006"><a xlink:href="../../d8/d36/combo_8h.html" target="_top" xlink:title="the combination of the features header file">
<polygon fill="white" stroke="#666666" points="776.5,-239 656.5,-239 656.5,-220 776.5,-220 776.5,-239"/>
<text text-anchor="middle" x="716.5" y="-227" font-family="Helvetica,sans-Serif" font-size="10.00">rmvl/combo/combo.h</text>
</a>
</g>
</g>
<!-- Node4&#45;&gt;Node6 -->
<g id="edge5_Node000004_Node000006" class="edge">
<title>Node4&#45;&gt;Node6</title>
<g id="a_edge5_Node000004_Node000006"><a xlink:title=" ">
<path fill="none" stroke="#63b8ff" d="M716.5,-274.75C716.5,-267.8 716.5,-257.85 716.5,-249.13"/>
<polygon fill="#63b8ff" stroke="#63b8ff" points="720,-249.09 716.5,-239.09 713,-249.09 720,-249.09"/>
</a>
</g>
</g>
<!-- Node7 -->
<g id="Node000007" class="node">
<title>Node7</title>
<g id="a_Node000007"><a xlink:href="../../d3/d7e/camutils_8hpp.html" target="_top" xlink:title=" ">
<polygon fill="white" stroke="#666666" points="1125,-184 980,-184 980,-165 1125,-165 1125,-184"/>
<text text-anchor="middle" x="1052.5" y="-172" font-family="Helvetica,sans-Serif" font-size="10.00">rmvl/camera/camutils.hpp</text>
</a>
</g>
</g>
<!-- Node6&#45;&gt;Node7 -->
<g id="edge6_Node000006_Node000007" class="edge">
<title>Node6&#45;&gt;Node7</title>
<g id="a_edge6_Node000006_Node000007"><a xlink:title=" ">
<path fill="none" stroke="#63b8ff" d="M770.48,-219.98C829.79,-210.63 924.99,-195.61 988.14,-185.65"/>
<polygon fill="#63b8ff" stroke="#63b8ff" points="989.04,-189.05 998.37,-184.04 987.95,-182.14 989.04,-189.05"/>
</a>
</g>
</g>
<!-- Node10 -->
<g id="Node000010" class="node">
<title>Node10</title>
<g id="a_Node000010"><a xlink:href="../../d4/d78/math_8hpp.html" target="_top" xlink:title="基础数学库">
<polygon fill="white" stroke="#666666" points="428,-184 289,-184 289,-165 428,-165 428,-184"/>
<text text-anchor="middle" x="358.5" y="-172" font-family="Helvetica,sans-Serif" font-size="10.00">rmvl/algorithm/math.hpp</text>
</a>
</g>
</g>
<!-- Node6&#45;&gt;Node10 -->
<g id="edge9_Node000006_Node000010" class="edge">
<title>Node6&#45;&gt;Node10</title>
<g id="a_edge9_Node000006_Node000010"><a xlink:title=" ">
<path fill="none" stroke="#63b8ff" d="M658.98,-219.98C595.53,-210.59 493.52,-195.49 426.25,-185.53"/>
<polygon fill="#63b8ff" stroke="#63b8ff" points="426.58,-182.04 416.17,-184.04 425.55,-188.96 426.58,-182.04"/>
</a>
</g>
</g>
<!-- Node20 -->
<g id="Node000020" class="node">
<title>Node20</title>
<g id="a_Node000020"><a xlink:href="../../dd/de3/types_8hpp.html" target="_top" xlink:title="常用状态类型定义">
<polygon fill="white" stroke="#666666" points="1024.5,-129 934.5,-129 934.5,-110 1024.5,-110 1024.5,-129"/>
<text text-anchor="middle" x="979.5" y="-117" font-family="Helvetica,sans-Serif" font-size="10.00">rmvl/types.hpp</text>
</a>
</g>
</g>
<!-- Node6&#45;&gt;Node20 -->
<g id="edge21_Node000006_Node000020" class="edge">
<title>Node6&#45;&gt;Node20</title>
<g id="a_edge21_Node000006_Node000020"><a xlink:title=" ">
<path fill="none" stroke="#63b8ff" d="M752.53,-219.96C782.97,-212.2 827.4,-199.61 864.5,-184 898.31,-169.77 935.03,-148.36 957.66,-134.4"/>
<polygon fill="#63b8ff" stroke="#63b8ff" points="959.53,-137.36 966.16,-129.1 955.83,-131.42 959.53,-137.36"/>
</a>
</g>
</g>
<!-- Node21 -->
<g id="Node000021" class="node">
<title>Node21</title>
<g id="a_Node000021"><a xlink:href="../../d2/dc6/io_8hpp.html" target="_top" xlink:title="陀螺仪数据">
<polygon fill="white" stroke="#666666" points="688.5,-184 592.5,-184 592.5,-165 688.5,-165 688.5,-184"/>
<text text-anchor="middle" x="640.5" y="-172" font-family="Helvetica,sans-Serif" font-size="10.00">rmvl/core/io.hpp</text>
</a>
</g>
</g>
<!-- Node6&#45;&gt;Node21 -->
<g id="edge23_Node000006_Node000021" class="edge">
<title>Node6&#45;&gt;Node21</title>
<g id="a_edge23_Node000006_Node000021"><a xlink:title=" ">
<path fill="none" stroke="#63b8ff" d="M704.29,-219.98C692.72,-211.92 675.12,-199.65 661.34,-190.03"/>
<polygon fill="#63b8ff" stroke="#63b8ff" points="663.14,-187.02 652.93,-184.17 659.13,-192.76 663.14,-187.02"/>
</a>
</g>
</g>
<!-- Node25 -->
<g id="Node000025" class="node">
<title>Node25</title>
<g id="a_Node000025"><a xlink:href="../../d2/d74/feature_8h.html" target="_top" xlink:title="feature class header">
<polygon fill="white" stroke="#666666" points="855,-184 730,-184 730,-165 855,-165 855,-184"/>
<text text-anchor="middle" x="792.5" y="-172" font-family="Helvetica,sans-Serif" font-size="10.00">rmvl/feature/feature.h</text>
</a>
</g>
</g>
<!-- Node6&#45;&gt;Node25 -->
<g id="edge30_Node000006_Node000025" class="edge">
<title>Node6&#45;&gt;Node25</title>
<g id="a_edge30_Node000006_Node000025"><a xlink:title=" ">
<path fill="none" stroke="#63b8ff" d="M728.71,-219.98C740.28,-211.92 757.88,-199.65 771.66,-190.03"/>
<polygon fill="#63b8ff" stroke="#63b8ff" points="773.87,-192.76 780.07,-184.17 769.86,-187.02 773.87,-192.76"/>
</a>
</g>
</g>
<!-- Node8 -->
<g id="Node000008" class="node">
<title>Node8</title>
<g id="a_Node000008"><a xlink:title=" ">
<polygon fill="#e0e0e0" stroke="#999999" points="1184,-129 1081,-129 1081,-110 1184,-110 1184,-129"/>
<text text-anchor="middle" x="1132.5" y="-117" font-family="Helvetica,sans-Serif" font-size="10.00">opencv2/core.hpp</text>
</a>
</g>
</g>
<!-- Node7&#45;&gt;Node8 -->
<g id="edge7_Node000007_Node000008" class="edge">
<title>Node7&#45;&gt;Node8</title>
<g id="a_edge7_Node000007_Node000008"><a xlink:title=" ">
<path fill="none" stroke="#63b8ff" d="M1065.35,-164.98C1077.64,-156.84 1096.41,-144.41 1110.98,-134.76"/>
<polygon fill="#63b8ff" stroke="#63b8ff" points="1113.01,-137.61 1119.41,-129.17 1109.14,-131.78 1113.01,-137.61"/>
</a>
</g>
</g>
<!-- Node9 -->
<g id="Node000009" class="node">
<title>Node9</title>
<g id="a_Node000009"><a xlink:href="../../db/d41/rmvldef_8hpp.html" target="_top" xlink:title=" ">
<polygon fill="white" stroke="#666666" points="806,-19 681,-19 681,0 806,0 806,-19"/>
<text text-anchor="middle" x="743.5" y="-7" font-family="Helvetica,sans-Serif" font-size="10.00">rmvl/core/rmvldef.hpp</text>
</a>
</g>
</g>
<!-- Node7&#45;&gt;Node9 -->
<g id="edge8_Node000007_Node000009" class="edge">
<title>Node7&#45;&gt;Node9</title>
<g id="a_edge8_Node000007_Node000009"><a xlink:title=" ">
<path fill="none" stroke="#63b8ff" d="M1052.32,-164.88C1051.57,-151.39 1048.17,-125.27 1033.5,-110 976.26,-50.44 881.84,-26.52 816.36,-16.93"/>
<polygon fill="#63b8ff" stroke="#63b8ff" points="816.49,-13.41 806.11,-15.51 815.53,-20.35 816.49,-13.41"/>
</a>
</g>
</g>
<!-- Node10&#45;&gt;Node2 -->
<g id="edge12_Node000010_Node000002" class="edge">
<title>Node10&#45;&gt;Node2</title>
<g id="a_edge12_Node000010_Node000002"><a xlink:title=" ">
<path fill="none" stroke="#63b8ff" d="M308.37,-164.98C252.39,-155.48 161.97,-140.12 103.38,-130.16"/>
<polygon fill="#63b8ff" stroke="#63b8ff" points="103.63,-126.66 93.19,-128.43 102.46,-133.56 103.63,-126.66"/>
</a>
</g>
</g>
<!-- Node11 -->
<g id="Node000011" class="node">
<title>Node11</title>
<g id="a_Node000011"><a xlink:title=" ">
<polygon fill="#e0e0e0" stroke="#999999" points="382,-129 335,-129 335,-110 382,-110 382,-129"/>
<text text-anchor="middle" x="358.5" y="-117" font-family="Helvetica,sans-Serif" font-size="10.00">cmath</text>
</a>
</g>
</g>
<!-- Node10&#45;&gt;Node11 -->
<g id="edge10_Node000010_Node000011" class="edge">
<title>Node10&#45;&gt;Node11</title>
<g id="a_edge10_Node000010_Node000011"><a xlink:title=" ">
<path fill="none" stroke="#63b8ff" d="M358.5,-164.75C358.5,-157.8 358.5,-147.85 358.5,-139.13"/>
<polygon fill="#63b8ff" stroke="#63b8ff" points="362,-139.09 358.5,-129.09 355,-139.09 362,-139.09"/>
</a>
</g>
</g>
<!-- Node12 -->
<g id="Node000012" class="node">
<title>Node12</title>
<g id="a_Node000012"><a xlink:title=" ">
<polygon fill="#e0e0e0" stroke="#999999" points="167.5,-129 111.5,-129 111.5,-110 167.5,-110 167.5,-129"/>
<text text-anchor="middle" x="139.5" y="-117" font-family="Helvetica,sans-Serif" font-size="10.00">numeric</text>
</a>
</g>
</g>
<!-- Node10&#45;&gt;Node12 -->
<g id="edge11_Node000010_Node000012" class="edge">
<title>Node10&#45;&gt;Node12</title>
<g id="a_edge11_Node000010_Node000012"><a xlink:title=" ">
<path fill="none" stroke="#63b8ff" d="M323.31,-164.98C283.41,-155.33 218.57,-139.64 177.53,-129.7"/>
<polygon fill="#63b8ff" stroke="#63b8ff" points="178.18,-126.26 167.64,-127.31 176.53,-133.06 178.18,-126.26"/>
</a>
</g>
</g>
<!-- Node13 -->
<g id="Node000013" class="node">
<title>Node13</title>
<g id="a_Node000013"><a xlink:title=" ">
<polygon fill="#e0e0e0" stroke="#999999" points="486,-129 439,-129 439,-110 486,-110 486,-129"/>
<text text-anchor="middle" x="462.5" y="-117" font-family="Helvetica,sans-Serif" font-size="10.00">vector</text>
</a>
</g>
</g>
<!-- Node10&#45;&gt;Node13 -->
<g id="edge13_Node000010_Node000013" class="edge">
<title>Node10&#45;&gt;Node13</title>
<g id="a_edge13_Node000010_Node000013"><a xlink:title=" ">
<path fill="none" stroke="#63b8ff" d="M375.21,-164.98C391.71,-156.57 417.2,-143.59 436.38,-133.81"/>
<polygon fill="#63b8ff" stroke="#63b8ff" points="438.17,-136.83 445.49,-129.17 434.99,-130.59 438.17,-136.83"/>
</a>
</g>
</g>
<!-- Node14 -->
<g id="Node000014" class="node">
<title>Node14</title>
<g id="a_Node000014"><a xlink:title=" ">
<polygon fill="#e0e0e0" stroke="#999999" points="317,-129 186,-129 186,-110 317,-110 317,-129"/>
<text text-anchor="middle" x="251.5" y="-117" font-family="Helvetica,sans-Serif" font-size="10.00">opencv2/core/matx.hpp</text>
</a>
</g>
</g>
<!-- Node10&#45;&gt;Node14 -->
<g id="edge14_Node000010_Node000014" class="edge">
<title>Node10&#45;&gt;Node14</title>
<g id="a_edge14_Node000010_Node000014"><a xlink:title=" ">
<path fill="none" stroke="#63b8ff" d="M341.31,-164.98C324.25,-156.54 297.87,-143.47 278.1,-133.68"/>
<polygon fill="#63b8ff" stroke="#63b8ff" points="279.52,-130.47 269,-129.17 276.41,-136.75 279.52,-130.47"/>
</a>
</g>
</g>
<!-- Node15 -->
<g id="Node000015" class="node">
<title>Node15</title>
<g id="a_Node000015"><a xlink:href="../../d0/d3f/util_8hpp.html" target="_top" xlink:title=" ">
<polygon fill="white" stroke="#666666" points="585,-74 482,-74 482,-55 585,-55 585,-74"/>
<text text-anchor="middle" x="533.5" y="-62" font-family="Helvetica,sans-Serif" font-size="10.00">rmvl/core/util.hpp</text>
</a>
</g>
</g>
<!-- Node10&#45;&gt;Node15 -->
<g id="edge15_Node000010_Node000015" class="edge">
<title>Node10&#45;&gt;Node15</title>
<g id="a_edge15_Node000010_Node000015"><a xlink:title=" ">
<path fill="none" stroke="#63b8ff" d="M366.65,-164.72C379.3,-151.49 404.89,-126.25 430.5,-110 451.7,-96.55 477.67,-85.36 498.23,-77.57"/>
<polygon fill="#63b8ff" stroke="#63b8ff" points="499.67,-80.77 507.84,-74.02 497.24,-74.2 499.67,-80.77"/>
</a>
</g>
</g>
<!-- Node15&#45;&gt;Node9 -->
<g id="edge20_Node000015_Node000009" class="edge">
<title>Node15&#45;&gt;Node9</title>
<g id="a_edge20_Node000015_Node000009"><a xlink:title=" ">
<path fill="none" stroke="#63b8ff" d="M567.24,-54.98C603.18,-45.91 660.22,-31.52 699.63,-21.57"/>
<polygon fill="#63b8ff" stroke="#63b8ff" points="700.66,-24.92 709.5,-19.08 698.94,-18.14 700.66,-24.92"/>
</a>
</g>
</g>
<!-- Node16 -->
<g id="Node000016" class="node">
<title>Node16</title>
<g id="a_Node000016"><a xlink:title=" ">
<polygon fill="#e0e0e0" stroke="#999999" points="600,-19 467,-19 467,0 600,0 600,-19"/>
<text text-anchor="middle" x="533.5" y="-7" font-family="Helvetica,sans-Serif" font-size="10.00">rmvl/rmvl_modules.hpp</text>
</a>
</g>
</g>
<!-- Node15&#45;&gt;Node16 -->
<g id="edge16_Node000015_Node000016" class="edge">
<title>Node15&#45;&gt;Node16</title>
<g id="a_edge16_Node000015_Node000016"><a xlink:title=" ">
<path fill="none" stroke="#63b8ff" d="M533.5,-54.75C533.5,-47.8 533.5,-37.85 533.5,-29.13"/>
<polygon fill="#63b8ff" stroke="#63b8ff" points="537,-29.09 533.5,-19.09 530,-29.09 537,-29.09"/>
</a>
</g>
</g>
<!-- Node17 -->
<g id="Node000017" class="node">
<title>Node17</title>
<g id="a_Node000017"><a xlink:title=" ">
<polygon fill="#e0e0e0" stroke="#999999" points="384.5,-19 334.5,-19 334.5,0 384.5,0 384.5,-19"/>
<text text-anchor="middle" x="359.5" y="-7" font-family="Helvetica,sans-Serif" font-size="10.00">cstdint</text>
</a>
</g>
</g>
<!-- Node15&#45;&gt;Node17 -->
<g id="edge17_Node000015_Node000017" class="edge">
<title>Node15&#45;&gt;Node17</title>
<g id="a_edge17_Node000015_Node000017"><a xlink:title=" ">
<path fill="none" stroke="#63b8ff" d="M505.54,-54.98C475.25,-45.76 426.86,-31.02 394.17,-21.06"/>
<polygon fill="#63b8ff" stroke="#63b8ff" points="395.15,-17.7 384.56,-18.13 393.11,-24.4 395.15,-17.7"/>
</a>
</g>
</g>
<!-- Node18 -->
<g id="Node000018" class="node">
<title>Node18</title>
<g id="a_Node000018"><a xlink:title=" ">
<polygon fill="#e0e0e0" stroke="#999999" points="448.5,-19 402.5,-19 402.5,0 448.5,0 448.5,-19"/>
<text text-anchor="middle" x="425.5" y="-7" font-family="Helvetica,sans-Serif" font-size="10.00">cstdio</text>
</a>
</g>
</g>
<!-- Node15&#45;&gt;Node18 -->
<g id="edge18_Node000015_Node000018" class="edge">
<title>Node15&#45;&gt;Node18</title>
<g id="a_edge18_Node000015_Node000018"><a xlink:title=" ">
<path fill="none" stroke="#63b8ff" d="M516.15,-54.98C498.93,-46.54 472.3,-33.47 452.35,-23.68"/>
<polygon fill="#63b8ff" stroke="#63b8ff" points="453.69,-20.43 443.17,-19.17 450.6,-26.72 453.69,-20.43"/>
</a>
</g>
</g>
<!-- Node19 -->
<g id="Node000019" class="node">
<title>Node19</title>
<g id="a_Node000019"><a xlink:title=" ">
<polygon fill="#e0e0e0" stroke="#999999" points="662.5,-19 618.5,-19 618.5,0 662.5,0 662.5,-19"/>
<text text-anchor="middle" x="640.5" y="-7" font-family="Helvetica,sans-Serif" font-size="10.00">string</text>
</a>
</g>
</g>
<!-- Node15&#45;&gt;Node19 -->
<g id="edge19_Node000015_Node000019" class="edge">
<title>Node15&#45;&gt;Node19</title>
<g id="a_edge19_Node000015_Node000019"><a xlink:title=" ">
<path fill="none" stroke="#63b8ff" d="M550.69,-54.98C567.75,-46.54 594.13,-33.47 613.9,-23.68"/>
<polygon fill="#63b8ff" stroke="#63b8ff" points="615.59,-26.75 623,-19.17 612.48,-20.47 615.59,-26.75"/>
</a>
</g>
</g>
<!-- Node20&#45;&gt;Node15 -->
<g id="edge22_Node000020_Node000015" class="edge">
<title>Node20&#45;&gt;Node15</title>
<g id="a_edge22_Node000020_Node000015"><a xlink:title=" ">
<path fill="none" stroke="#63b8ff" d="M934.44,-111.26C931.42,-110.82 928.42,-110.39 925.5,-110 809.06,-94.23 672.65,-79.62 595.32,-71.69"/>
<polygon fill="#63b8ff" stroke="#63b8ff" points="595.57,-68.19 585.27,-70.66 594.86,-75.16 595.57,-68.19"/>
</a>
</g>
</g>
<!-- Node21&#45;&gt;Node9 -->
<g id="edge29_Node000021_Node000009" class="edge">
<title>Node21&#45;&gt;Node9</title>
<g id="a_edge29_Node000021_Node000009"><a xlink:title=" ">
<path fill="none" stroke="#63b8ff" d="M646.04,-164.74C662.38,-138.87 710.65,-62.48 732.52,-27.88"/>
<polygon fill="#63b8ff" stroke="#63b8ff" points="735.55,-29.63 737.93,-19.31 729.63,-25.89 735.55,-29.63"/>
</a>
</g>
</g>
<!-- Node21&#45;&gt;Node13 -->
<g id="edge28_Node000021_Node000013" class="edge">
<title>Node21&#45;&gt;Node13</title>
<g id="a_edge28_Node000021_Node000013"><a xlink:title=" ">
<path fill="none" stroke="#63b8ff" d="M611.9,-164.98C580.28,-155.57 529.41,-140.42 495.97,-130.46"/>
<polygon fill="#63b8ff" stroke="#63b8ff" points="496.77,-127.05 486.19,-127.55 494.77,-133.76 496.77,-127.05"/>
</a>
</g>
</g>
<!-- Node21&#45;&gt;Node19 -->
<g id="edge27_Node000021_Node000019" class="edge">
<title>Node21&#45;&gt;Node19</title>
<g id="a_edge27_Node000021_Node000019"><a xlink:title=" ">
<path fill="none" stroke="#63b8ff" d="M640.5,-164.74C640.5,-139.31 640.5,-65.08 640.5,-29.69"/>
<polygon fill="#63b8ff" stroke="#63b8ff" points="644,-29.31 640.5,-19.31 637,-29.31 644,-29.31"/>
</a>
</g>
</g>
<!-- Node22 -->
<g id="Node000022" class="node">
<title>Node22</title>
<g id="a_Node000022"><a xlink:title=" ">
<polygon fill="#e0e0e0" stroke="#999999" points="546.5,-129 504.5,-129 504.5,-110 546.5,-110 546.5,-129"/>
<text text-anchor="middle" x="525.5" y="-117" font-family="Helvetica,sans-Serif" font-size="10.00">array</text>
</a>
</g>
</g>
<!-- Node21&#45;&gt;Node22 -->
<g id="edge24_Node000021_Node000022" class="edge">
<title>Node21&#45;&gt;Node22</title>
<g id="a_edge24_Node000021_Node000022"><a xlink:title=" ">
<path fill="none" stroke="#63b8ff" d="M622.02,-164.98C603.52,-156.46 574.82,-143.23 553.52,-133.41"/>
<polygon fill="#63b8ff" stroke="#63b8ff" points="554.86,-130.18 544.31,-129.17 551.93,-136.53 554.86,-130.18"/>
</a>
</g>
</g>
<!-- Node23 -->
<g id="Node000023" class="node">
<title>Node23</title>
<g id="a_Node000023"><a xlink:title=" ">
<polygon fill="#e0e0e0" stroke="#999999" points="612.5,-129 564.5,-129 564.5,-110 612.5,-110 612.5,-129"/>
<text text-anchor="middle" x="588.5" y="-117" font-family="Helvetica,sans-Serif" font-size="10.00">iosfwd</text>
</a>
</g>
</g>
<!-- Node21&#45;&gt;Node23 -->
<g id="edge25_Node000021_Node000023" class="edge">
<title>Node21&#45;&gt;Node23</title>
<g id="a_edge25_Node000021_Node000023"><a xlink:title=" ">
<path fill="none" stroke="#63b8ff" d="M631.91,-164.75C624.34,-157.03 613.12,-145.6 603.99,-136.28"/>
<polygon fill="#63b8ff" stroke="#63b8ff" points="606.43,-133.78 596.93,-129.09 601.43,-138.68 606.43,-133.78"/>
</a>
</g>
</g>
<!-- Node24 -->
<g id="Node000024" class="node">
<title>Node24</title>
<g id="a_Node000024"><a xlink:title=" ">
<polygon fill="#e0e0e0" stroke="#999999" points="764.5,-129 706.5,-129 706.5,-110 764.5,-110 764.5,-129"/>
<text text-anchor="middle" x="735.5" y="-117" font-family="Helvetica,sans-Serif" font-size="10.00">memory</text>
</a>
</g>
</g>
<!-- Node21&#45;&gt;Node24 -->
<g id="edge26_Node000021_Node000024" class="edge">
<title>Node21&#45;&gt;Node24</title>
<g id="a_edge26_Node000021_Node000024"><a xlink:title=" ">
<path fill="none" stroke="#63b8ff" d="M655.76,-164.98C670.63,-156.69 693.48,-143.94 710.92,-134.22"/>
<polygon fill="#63b8ff" stroke="#63b8ff" points="712.93,-137.1 719.96,-129.17 709.52,-130.99 712.93,-137.1"/>
</a>
</g>
</g>
<!-- Node25&#45;&gt;Node20 -->
<g id="edge33_Node000025_Node000020" class="edge">
<title>Node25&#45;&gt;Node20</title>
<g id="a_edge33_Node000025_Node000020"><a xlink:title=" ">
<path fill="none" stroke="#63b8ff" d="M822.54,-164.98C854.21,-156.01 904.27,-141.82 939.31,-131.89"/>
<polygon fill="#63b8ff" stroke="#63b8ff" points="940.55,-135.18 949.22,-129.08 938.64,-128.44 940.55,-135.18"/>
</a>
</g>
</g>
<!-- Node25&#45;&gt;Node24 -->
<g id="edge31_Node000025_Node000024" class="edge">
<title>Node25&#45;&gt;Node24</title>
<g id="a_edge31_Node000025_Node000024"><a xlink:title=" ">
<path fill="none" stroke="#63b8ff" d="M783.34,-164.98C775,-157.23 762.47,-145.58 752.32,-136.14"/>
<polygon fill="#63b8ff" stroke="#63b8ff" points="754.53,-133.42 744.82,-129.17 749.76,-138.54 754.53,-133.42"/>
</a>
</g>
</g>
<!-- Node26 -->
<g id="Node000026" class="node">
<title>Node26</title>
<g id="a_Node000026"><a xlink:title=" ">
<polygon fill="#e0e0e0" stroke="#999999" points="916,-129 783,-129 783,-110 916,-110 916,-129"/>
<text text-anchor="middle" x="849.5" y="-117" font-family="Helvetica,sans-Serif" font-size="10.00">opencv2/core/types.hpp</text>
</a>
</g>
</g>
<!-- Node25&#45;&gt;Node26 -->
<g id="edge32_Node000025_Node000026" class="edge">
<title>Node25&#45;&gt;Node26</title>
<g id="a_edge32_Node000025_Node000026"><a xlink:title=" ">
<path fill="none" stroke="#63b8ff" d="M801.66,-164.98C810,-157.23 822.53,-145.58 832.68,-136.14"/>
<polygon fill="#63b8ff" stroke="#63b8ff" points="835.24,-138.54 840.18,-129.17 830.47,-133.42 835.24,-138.54"/>
</a>
</g>
</g>
</g>
</svg>
