<?xml version="1.0" encoding="UTF-8" standalone="no"?>
<!DOCTYPE svg PUBLIC "-//W3C//DTD SVG 1.1//EN"
 "http://www.w3.org/Graphics/SVG/1.1/DTD/svg11.dtd">
<!-- Generated by graphviz version 2.43.0 (0)
 -->
<!-- Title: rm::Server Pages: 1 -->
<svg width="230pt" height="281pt"
 viewBox="0.00 0.00 229.50 281.00" xmlns="http://www.w3.org/2000/svg" xmlns:xlink="http://www.w3.org/1999/xlink">
<g id="graph0" class="graph" transform="scale(1 1) rotate(0) translate(4 277)">
<title>rm::Server</title>
<polygon fill="white" stroke="transparent" points="-4,4 -4,-277 225.5,-277 225.5,4 -4,4"/>
<!-- Node1 -->
<g id="node1" class="node">
<title>Node1</title>
<g id="a_node1"><a xlink:title="OPC UA 服务器">
<polygon fill="#bfbfbf" stroke="black" points="25.5,-0.5 25.5,-167.5 166.5,-167.5 166.5,-0.5 25.5,-0.5"/>
<text text-anchor="middle" x="96" y="-155.5" font-family="Helvetica,sans-Serif" font-size="10.00">rm::Server</text>
<polyline fill="none" stroke="black" points="25.5,-148.5 166.5,-148.5 "/>
<text text-anchor="middle" x="96" y="-136.5" font-family="Helvetica,sans-Serif" font-size="10.00"> </text>
<polyline fill="none" stroke="black" points="25.5,-129.5 166.5,-129.5 "/>
<text text-anchor="start" x="33.5" y="-117.5" font-family="Helvetica,sans-Serif" font-size="10.00">+ Server()</text>
<text text-anchor="start" x="33.5" y="-106.5" font-family="Helvetica,sans-Serif" font-size="10.00">+ Server()</text>
<text text-anchor="start" x="33.5" y="-95.5" font-family="Helvetica,sans-Serif" font-size="10.00">+ Server()</text>
<text text-anchor="start" x="33.5" y="-84.5" font-family="Helvetica,sans-Serif" font-size="10.00">+ Server()</text>
<text text-anchor="start" x="33.5" y="-73.5" font-family="Helvetica,sans-Serif" font-size="10.00">+ start()</text>
<text text-anchor="start" x="33.5" y="-62.5" font-family="Helvetica,sans-Serif" font-size="10.00">+ stop()</text>
<text text-anchor="start" x="33.5" y="-51.5" font-family="Helvetica,sans-Serif" font-size="10.00">+ join()</text>
<text text-anchor="start" x="33.5" y="-40.5" font-family="Helvetica,sans-Serif" font-size="10.00">+ ~Server()</text>
<text text-anchor="start" x="33.5" y="-29.5" font-family="Helvetica,sans-Serif" font-size="10.00">+ find()</text>
<text text-anchor="start" x="33.5" y="-18.5" font-family="Helvetica,sans-Serif" font-size="10.00">+ addVariableTypeNode()</text>
<text text-anchor="start" x="33.5" y="-7.5" font-family="Helvetica,sans-Serif" font-size="10.00">和 12 更多...</text>
</a>
</g>
</g>
<!-- Node2 -->
<g id="node2" class="node">
<title>Node2</title>
<g id="a_node2"><a xlink:title=" ">
<polygon fill="white" stroke="#bfbfbf" points="0,-215.5 0,-272.5 38,-272.5 38,-215.5 0,-215.5"/>
<text text-anchor="middle" x="19" y="-260.5" font-family="Helvetica,sans-Serif" font-size="10.00">bool</text>
<polyline fill="none" stroke="#bfbfbf" points="0,-253.5 38,-253.5 "/>
<text text-anchor="middle" x="19" y="-241.5" font-family="Helvetica,sans-Serif" font-size="10.00"> </text>
<polyline fill="none" stroke="#bfbfbf" points="0,-234.5 38,-234.5 "/>
<text text-anchor="middle" x="19" y="-222.5" font-family="Helvetica,sans-Serif" font-size="10.00"> </text>
</a>
</g>
</g>
<!-- Node2&#45;&gt;Node1 -->
<g id="edge1" class="edge">
<title>Node2&#45;&gt;Node1</title>
<path fill="none" stroke="#404040" d="M27,-215.32C30.05,-205.87 33.82,-195.33 38,-186 39.11,-183.53 40.26,-181.04 41.45,-178.53"/>
<polygon fill="none" stroke="#404040" points="41.56,-178.31 40.62,-171.16 46.86,-167.54 47.8,-174.69 41.56,-178.31"/>
<text text-anchor="middle" x="65" y="-189" font-family="Helvetica,sans-Serif" font-size="10.00"> #_running</text>
</g>
<!-- Node3 -->
<g id="node3" class="node">
<title>Node3</title>
<g id="a_node3"><a xlink:title=" ">
<polygon fill="white" stroke="#bfbfbf" points="58,-215.5 58,-272.5 134,-272.5 134,-215.5 58,-215.5"/>
<text text-anchor="middle" x="96" y="-260.5" font-family="Helvetica,sans-Serif" font-size="10.00">UA_Server *</text>
<polyline fill="none" stroke="#bfbfbf" points="58,-253.5 134,-253.5 "/>
<text text-anchor="middle" x="96" y="-241.5" font-family="Helvetica,sans-Serif" font-size="10.00"> </text>
<polyline fill="none" stroke="#bfbfbf" points="58,-234.5 134,-234.5 "/>
<text text-anchor="middle" x="96" y="-222.5" font-family="Helvetica,sans-Serif" font-size="10.00"> </text>
</a>
</g>
</g>
<!-- Node3&#45;&gt;Node1 -->
<g id="edge2" class="edge">
<title>Node3&#45;&gt;Node1</title>
<path fill="none" stroke="#404040" d="M96,-215.48C96,-205.12 96,-192.67 96,-179.63"/>
<polygon fill="none" stroke="#404040" points="96,-179.54 92,-173.54 96,-167.54 100,-173.54 96,-179.54"/>
<text text-anchor="middle" x="120" y="-189" font-family="Helvetica,sans-Serif" font-size="10.00"> #_server</text>
</g>
<!-- Node4 -->
<g id="node4" class="node">
<title>Node4</title>
<g id="a_node4"><a xlink:title=" ">
<polygon fill="white" stroke="#bfbfbf" points="152.5,-215.5 152.5,-272.5 221.5,-272.5 221.5,-215.5 152.5,-215.5"/>
<text text-anchor="middle" x="187" y="-260.5" font-family="Helvetica,sans-Serif" font-size="10.00">std::thread</text>
<polyline fill="none" stroke="#bfbfbf" points="152.5,-253.5 221.5,-253.5 "/>
<text text-anchor="middle" x="187" y="-241.5" font-family="Helvetica,sans-Serif" font-size="10.00"> </text>
<polyline fill="none" stroke="#bfbfbf" points="152.5,-234.5 221.5,-234.5 "/>
<text text-anchor="middle" x="187" y="-222.5" font-family="Helvetica,sans-Serif" font-size="10.00"> </text>
</a>
</g>
</g>
<!-- Node4&#45;&gt;Node1 -->
<g id="edge3" class="edge">
<title>Node4&#45;&gt;Node1</title>
<path fill="none" stroke="#404040" d="M171.15,-215.48C164.94,-204.7 157.43,-191.65 149.58,-178.03"/>
<polygon fill="none" stroke="#404040" points="149.53,-177.93 143.06,-174.73 143.54,-167.54 150,-170.74 149.53,-177.93"/>
<text text-anchor="middle" x="176.5" y="-189" font-family="Helvetica,sans-Serif" font-size="10.00"> #_run</text>
</g>
</g>
</svg>
