<?xml version="1.0" encoding="UTF-8" standalone="no"?>
<!DOCTYPE svg PUBLIC "-//W3C//DTD SVG 1.1//EN"
 "http://www.w3.org/Graphics/SVG/1.1/DTD/svg11.dtd">
<!-- Generated by graphviz version 14.1.2 (0)
 -->
<!-- Title: rm::async::Task&lt; Tp &gt; Pages: 1 -->
<svg width="243pt" height="196pt"
 viewBox="0.00 0.00 243.00 196.00" xmlns="http://www.w3.org/2000/svg" xmlns:xlink="http://www.w3.org/1999/xlink">
<g id="graph0" class="graph" transform="scale(1 1) rotate(0) translate(4 192.25)">
<title>rm::async::Task&lt; Tp &gt;</title>
<!-- Node1 -->
<g id="Node000001" class="node">
<title>Node1</title>
<g id="a_Node000001"><a xlink:title="保有 rm::async::Promise 的异步协程任务">
<polygon fill="#999999" stroke="none" points="118.25,-188.25 0,-188.25 0,0 118.25,0 118.25,-188.25"/>
<text xml:space="preserve" text-anchor="start" x="4" y="-174.75" font-family="Helvetica,sans-Serif" font-size="10.00">rm::async::Task&lt; Tp &gt;</text>
<text xml:space="preserve" text-anchor="start" x="57.62" y="-158" font-family="Helvetica,sans-Serif" font-size="10.00"> </text>
<text xml:space="preserve" text-anchor="start" x="4.69" y="-141.25" font-family="Helvetica,sans-Serif" font-size="10.00">+</text>
<text xml:space="preserve" text-anchor="start" x="17.62" y="-141.25" font-family="Helvetica,sans-Serif" font-size="10.00">Task()</text>
<text xml:space="preserve" text-anchor="start" x="4.69" y="-124.5" font-family="Helvetica,sans-Serif" font-size="10.00">+</text>
<text xml:space="preserve" text-anchor="start" x="17.62" y="-124.5" font-family="Helvetica,sans-Serif" font-size="10.00">Task()</text>
<text xml:space="preserve" text-anchor="start" x="4.69" y="-107.75" font-family="Helvetica,sans-Serif" font-size="10.00">+</text>
<text xml:space="preserve" text-anchor="start" x="17.62" y="-107.75" font-family="Helvetica,sans-Serif" font-size="10.00">operator=()</text>
<text xml:space="preserve" text-anchor="start" x="4.69" y="-91" font-family="Helvetica,sans-Serif" font-size="10.00">+</text>
<text xml:space="preserve" text-anchor="start" x="17.62" y="-91" font-family="Helvetica,sans-Serif" font-size="10.00">Task()</text>
<text xml:space="preserve" text-anchor="start" x="4.69" y="-74.25" font-family="Helvetica,sans-Serif" font-size="10.00">+</text>
<text xml:space="preserve" text-anchor="start" x="17.62" y="-74.25" font-family="Helvetica,sans-Serif" font-size="10.00">operator=()</text>
<text xml:space="preserve" text-anchor="start" x="4.69" y="-57.5" font-family="Helvetica,sans-Serif" font-size="10.00">+</text>
<text xml:space="preserve" text-anchor="start" x="17.62" y="-57.5" font-family="Helvetica,sans-Serif" font-size="10.00">operator co_await()</text>
<text xml:space="preserve" text-anchor="start" x="4.69" y="-40.75" font-family="Helvetica,sans-Serif" font-size="10.00">+</text>
<text xml:space="preserve" text-anchor="start" x="17.62" y="-40.75" font-family="Helvetica,sans-Serif" font-size="10.00">~Task()</text>
<text xml:space="preserve" text-anchor="start" x="4.69" y="-24" font-family="Helvetica,sans-Serif" font-size="10.00">+</text>
<text xml:space="preserve" text-anchor="start" x="17.62" y="-24" font-family="Helvetica,sans-Serif" font-size="10.00">handle()</text>
<text xml:space="preserve" text-anchor="start" x="4.69" y="-7.25" font-family="Helvetica,sans-Serif" font-size="10.00">+</text>
<text xml:space="preserve" text-anchor="start" x="17.62" y="-7.25" font-family="Helvetica,sans-Serif" font-size="10.00">promise()</text>
<polygon fill="#666666" stroke="#666666" points="0,-169.5 0,-169.5 118.25,-169.5 118.25,-169.5 0,-169.5"/>
<polygon fill="#666666" stroke="#666666" points="0,-152.75 0,-152.75 118.25,-152.75 118.25,-152.75 0,-152.75"/>
<polygon fill="none" stroke="#666666" points="0,0 0,-188.25 118.25,-188.25 118.25,0 0,0"/>
</a>
</g>
</g>
<!-- Node1&#45;&gt;Node1 -->
<g id="edge1_Node000001_Node000001" class="edge">
<title>Node1&#45;&gt;Node1</title>
<g id="a_edge1_Node000001_Node000001"><a xlink:title=" ">
<path fill="none" stroke="orange" d="M128.48,-106.97C133.31,-104.04 136.25,-99.76 136.25,-94.12 136.25,-85.12 128.72,-79.56 117.97,-77.45"/>
<polygon fill="orange" stroke="orange" points="127.59,-103.57 119.39,-110.29 129.99,-110.15 127.59,-103.57"/>
</a>
</g>
<text xml:space="preserve" text-anchor="start" x="139.25" y="-91" font-family="Helvetica,sans-Serif" font-size="10.00" fill="grey">&lt; Tp &gt;</text>
</g>
<!-- Node1&#45;&gt;Node1 -->
<g id="edge2_Node000001_Node000001" class="edge">
<title>Node1&#45;&gt;Node1</title>
<g id="a_edge2_Node000001_Node000001"><a xlink:title=" ">
<path fill="none" stroke="orange" d="M129.19,-129.42C154.91,-129.62 176.75,-117.85 176.75,-94.12 176.75,-67.01 148.23,-55.52 117.99,-59.65"/>
<polygon fill="orange" stroke="orange" points="129.72,-125.95 119.5,-128.71 129.21,-132.93 129.72,-125.95"/>
</a>
</g>
<text xml:space="preserve" text-anchor="start" x="179.75" y="-91" font-family="Helvetica,sans-Serif" font-size="10.00" fill="grey">&lt; Tp &gt;</text>
</g>
</g>
</svg>
