<?xml version="1.0" encoding="UTF-8" standalone="no"?>
<!DOCTYPE svg PUBLIC "-//W3C//DTD SVG 1.1//EN"
 "http://www.w3.org/Graphics/SVG/1.1/DTD/svg11.dtd">
<!-- Generated by graphviz version 2.43.0 (0)
 -->
<!-- Title: rmvl/opcua/client.hpp Pages: 1 -->
<!--zoomable 313 -->

<svg id="main" version="1.1" xmlns="http://www.w3.org/2000/svg" xmlns:xlink="http://www.w3.org/1999/xlink" xml:space="preserve" onload="init(evt)">

<style type="text/css"><![CDATA[
.node, .edge {opacity: 0.7;}
.node.selected, .edge.selected {opacity: 1;}
.edge:hover path { stroke: red; }
.edge:hover polygon { stroke: red; fill: red; }
]]></style>

<defs>
  <circle id="rim" cx="0" cy="0" r="7"/>
  <circle id="rim2" cx="0" cy="0" r="3.5"/>
  <g id="zoomPlus">
    <use xlink:href="#rim" fill="#404040"><set attributeName="fill" to="#808080" begin="zoomplus.mouseover" end="zoomplus.mouseout"/></use>
    <path d="M-4,0h8M0,-4v8" fill="none" stroke="white" stroke-width="1.5" pointer-events="none"/>
  </g>
  <g id="zoomMin">
    <use xlink:href="#rim" fill="#404040"><set attributeName="fill" to="#808080" begin="zoomminus.mouseover" end="zoomminus.mouseout"/></use>
    <path d="M-4,0h8" fill="none" stroke="white" stroke-width="1.5" pointer-events="none"/>
  </g>
  <g id="arrowUp" transform="translate(30 24)">
    <use xlink:href="#rim"/>
    <path pointer-events="none" fill="none" stroke="white" stroke-width="1.5" d="M0,-3.0v7 M-2.5,-0.5L0,-3.0L2.5,-0.5"/>
  </g>
  <g id="arrowRight" transform="rotate(90) translate(36 -43)">
    <use xlink:href="#rim"/>
    <path pointer-events="none" fill="none" stroke="white" stroke-width="1.5" d="M0,-3.0v7 M-2.5,-0.5L0,-3.0L2.5,-0.5"/>
  </g>
  <g id="arrowDown" transform="rotate(180) translate(-30 -48)">
    <use xlink:href="#rim"/>
    <path pointer-events="none" fill="none" stroke="white" stroke-width="1.5" d="M0,-3.0v7 M-2.5,-0.5L0,-3.0L2.5,-0.5"/>
  </g>
  <g id="arrowLeft" transform="rotate(270) translate(-36 17)">
    <use xlink:href="#rim"/>
    <path pointer-events="none" fill="none" stroke="white" stroke-width="1.5" d="M0,-3.0v7 M-2.5,-0.5L0,-3.0L2.5,-0.5"/>
  </g>
  <g id="resetDef">
    <use xlink:href="#rim2" fill="#404040"><set attributeName="fill" to="#808080" begin="reset.mouseover" end="reset.mouseout"/></use>
  </g>
</defs>
<script type="application/ecmascript">
var viewWidth = 1232;
var viewHeight = 313;
var sectionId = 'dynsection-0';
</script>
<script type="application/ecmascript" xlink:href="../../svg.min.js"/>
<svg id="graph" class="graph">
<g id="viewport">
<title>rmvl/opcua/client.hpp</title>
<!-- Node1 -->
<g id="Node000001" class="node">
<title>Node1</title>
<g id="a_Node000001"><a xlink:title="OPC UA 客户端">
<polygon fill="#999999" stroke="#666666" points="282,-305 160,-305 160,-286 282,-286 282,-305"/>
<text text-anchor="middle" x="221" y="-293" font-family="Helvetica,sans-Serif" font-size="10.00">rmvl/opcua/client.hpp</text>
</a>
</g>
</g>
<!-- Node2 -->
<g id="Node000002" class="node">
<title>Node2</title>
<g id="a_Node000002"><a xlink:title=" ">
<polygon fill="#e0e0e0" stroke="#999999" points="42,-250 0,-250 0,-231 42,-231 42,-250"/>
<text text-anchor="middle" x="21" y="-238" font-family="Helvetica,sans-Serif" font-size="10.00">array</text>
</a>
</g>
</g>
<!-- Node1&#45;&gt;Node2 -->
<g id="edge1_Node000001_Node000002" class="edge">
<title>Node1&#45;&gt;Node2</title>
<g id="a_edge1_Node000001_Node000002"><a xlink:title=" ">
<path fill="none" stroke="#63b8ff" d="M187.72,-286C155.42,-277.7 104.77,-264.57 52.14,-250.27"/>
<polygon fill="#63b8ff" stroke="#63b8ff" points="52.86,-246.84 42.29,-247.59 51.02,-253.59 52.86,-246.84"/>
</a>
</g>
</g>
<!-- Node3 -->
<g id="Node000003" class="node">
<title>Node3</title>
<g id="a_Node000003"><a xlink:title=" ">
<polygon fill="#e0e0e0" stroke="#999999" points="239.5,-250 60.5,-250 60.5,-231 239.5,-231 239.5,-250"/>
<text text-anchor="middle" x="150" y="-238" font-family="Helvetica,sans-Serif" font-size="10.00">open62541/client_subscriptions.h</text>
</a>
</g>
</g>
<!-- Node1&#45;&gt;Node3 -->
<g id="edge2_Node000001_Node000003" class="edge">
<title>Node1&#45;&gt;Node3</title>
<g id="a_edge2_Node000001_Node000003"><a xlink:title=" ">
<path fill="none" stroke="#63b8ff" d="M209.59,-285.98C198.89,-278 182.66,-265.88 169.84,-256.31"/>
<polygon fill="#63b8ff" stroke="#63b8ff" points="171.72,-253.35 161.61,-250.17 167.53,-258.96 171.72,-253.35"/>
</a>
</g>
</g>
<!-- Node4 -->
<g id="Node000004" class="node">
<title>Node4</title>
<g id="a_Node000004"><a xlink:href="../../df/de1/object_8hpp.html" target="_top" xlink:title="对象（类型）">
<polygon fill="white" stroke="#666666" points="326,-250 258,-250 258,-231 326,-231 326,-250"/>
<text text-anchor="middle" x="292" y="-238" font-family="Helvetica,sans-Serif" font-size="10.00">object.hpp</text>
</a>
</g>
</g>
<!-- Node1&#45;&gt;Node4 -->
<g id="edge3_Node000001_Node000004" class="edge">
<title>Node1&#45;&gt;Node4</title>
<g id="a_edge3_Node000001_Node000004"><a xlink:title=" ">
<path fill="none" stroke="#63b8ff" d="M232.41,-285.98C243.11,-278 259.34,-265.88 272.16,-256.31"/>
<polygon fill="#63b8ff" stroke="#63b8ff" points="274.47,-258.96 280.39,-250.17 270.28,-253.35 274.47,-258.96"/>
</a>
</g>
</g>
<!-- Node24 -->
<g id="Node000024" class="node">
<title>Node24</title>
<g id="a_Node000024"><a xlink:href="../../d8/d11/view_8hpp.html" target="_top" xlink:title="视图">
<polygon fill="white" stroke="#666666" points="384,-195 324,-195 324,-176 384,-176 384,-195"/>
<text text-anchor="middle" x="354" y="-183" font-family="Helvetica,sans-Serif" font-size="10.00">view.hpp</text>
</a>
</g>
</g>
<!-- Node1&#45;&gt;Node24 -->
<g id="edge26_Node000001_Node000024" class="edge">
<title>Node1&#45;&gt;Node24</title>
<g id="a_edge26_Node000001_Node000024"><a xlink:title=" ">
<path fill="none" stroke="#63b8ff" d="M268.99,-285.96C291.81,-279.6 317.79,-268.67 335,-250 346.21,-237.84 350.82,-219.31 352.71,-205.4"/>
<polygon fill="#63b8ff" stroke="#63b8ff" points="356.23,-205.35 353.74,-195.05 349.27,-204.65 356.23,-205.35"/>
</a>
</g>
</g>
<!-- Node5 -->
<g id="Node000005" class="node">
<title>Node5</title>
<g id="a_Node000005"><a xlink:href="../../d7/d9c/method_8hpp.html" target="_top" xlink:title="方法节点">
<polygon fill="white" stroke="#666666" points="267.5,-195 192.5,-195 192.5,-176 267.5,-176 267.5,-195"/>
<text text-anchor="middle" x="230" y="-183" font-family="Helvetica,sans-Serif" font-size="10.00">method.hpp</text>
</a>
</g>
</g>
<!-- Node4&#45;&gt;Node5 -->
<g id="edge4_Node000004_Node000005" class="edge">
<title>Node4&#45;&gt;Node5</title>
<g id="a_edge4_Node000004_Node000005"><a xlink:title=" ">
<path fill="none" stroke="#63b8ff" d="M282.04,-230.98C272.87,-223.15 259.06,-211.34 247.97,-201.86"/>
<polygon fill="#63b8ff" stroke="#63b8ff" points="250.02,-199.01 240.14,-195.17 245.47,-204.33 250.02,-199.01"/>
</a>
</g>
</g>
<!-- Node6 -->
<g id="Node000006" class="node">
<title>Node6</title>
<g id="a_Node000006"><a xlink:href="../../da/d0e/variable_8hpp.html" target="_top" xlink:title="变量（类型）">
<polygon fill="white" stroke="#666666" points="334.5,-140 257.5,-140 257.5,-121 334.5,-121 334.5,-140"/>
<text text-anchor="middle" x="296" y="-128" font-family="Helvetica,sans-Serif" font-size="10.00">variable.hpp</text>
</a>
</g>
</g>
<!-- Node4&#45;&gt;Node6 -->
<g id="edge25_Node000004_Node000006" class="edge">
<title>Node4&#45;&gt;Node6</title>
<g id="a_edge25_Node000004_Node000006"><a xlink:title=" ">
<path fill="none" stroke="#63b8ff" d="M292.33,-230.66C292.98,-213.17 294.43,-173.8 295.3,-150.27"/>
<polygon fill="#63b8ff" stroke="#63b8ff" points="298.81,-150.28 295.68,-140.16 291.81,-150.02 298.81,-150.28"/>
</a>
</g>
</g>
<!-- Node5&#45;&gt;Node6 -->
<g id="edge5_Node000005_Node000006" class="edge">
<title>Node5&#45;&gt;Node6</title>
<g id="a_edge5_Node000005_Node000006"><a xlink:title=" ">
<path fill="none" stroke="#63b8ff" d="M240.6,-175.98C250.46,-168.07 265.35,-156.11 277.22,-146.58"/>
<polygon fill="#63b8ff" stroke="#63b8ff" points="279.6,-149.16 285.2,-140.17 275.21,-143.7 279.6,-149.16"/>
</a>
</g>
</g>
<!-- Node7 -->
<g id="Node000007" class="node">
<title>Node7</title>
<g id="a_Node000007"><a xlink:title=" ">
<polygon fill="#e0e0e0" stroke="#999999" points="130.5,-85 95.5,-85 95.5,-66 130.5,-66 130.5,-85"/>
<text text-anchor="middle" x="113" y="-73" font-family="Helvetica,sans-Serif" font-size="10.00">any</text>
</a>
</g>
</g>
<!-- Node6&#45;&gt;Node7 -->
<g id="edge6_Node000006_Node000007" class="edge">
<title>Node6&#45;&gt;Node7</title>
<g id="a_edge6_Node000006_Node000007"><a xlink:title=" ">
<path fill="none" stroke="#63b8ff" d="M264.62,-121C234.83,-112.85 188.59,-99.96 140.28,-85.31"/>
<polygon fill="#63b8ff" stroke="#63b8ff" points="141.18,-81.93 130.59,-82.36 139.14,-88.62 141.18,-81.93"/>
</a>
</g>
</g>
<!-- Node8 -->
<g id="Node000008" class="node">
<title>Node8</title>
<g id="a_Node000008"><a xlink:title=" ">
<polygon fill="#e0e0e0" stroke="#999999" points="213.5,-85 148.5,-85 148.5,-66 213.5,-66 213.5,-85"/>
<text text-anchor="middle" x="181" y="-73" font-family="Helvetica,sans-Serif" font-size="10.00">functional</text>
</a>
</g>
</g>
<!-- Node6&#45;&gt;Node8 -->
<g id="edge7_Node000006_Node000008" class="edge">
<title>Node6&#45;&gt;Node8</title>
<g id="a_edge7_Node000006_Node000008"><a xlink:title=" ">
<path fill="none" stroke="#63b8ff" d="M277.52,-120.98C259.02,-112.46 230.32,-99.23 209.02,-89.41"/>
<polygon fill="#63b8ff" stroke="#63b8ff" points="210.36,-86.18 199.81,-85.17 207.43,-92.53 210.36,-86.18"/>
</a>
</g>
</g>
<!-- Node9 -->
<g id="Node000009" class="node">
<title>Node9</title>
<g id="a_Node000009"><a xlink:title=" ">
<polygon fill="#e0e0e0" stroke="#999999" points="290,-85 232,-85 232,-66 290,-66 290,-85"/>
<text text-anchor="middle" x="261" y="-73" font-family="Helvetica,sans-Serif" font-size="10.00">memory</text>
</a>
</g>
</g>
<!-- Node6&#45;&gt;Node9 -->
<g id="edge8_Node000006_Node000009" class="edge">
<title>Node6&#45;&gt;Node9</title>
<g id="a_edge8_Node000006_Node000009"><a xlink:title=" ">
<path fill="none" stroke="#63b8ff" d="M290.22,-120.75C285.38,-113.42 278.32,-102.73 272.36,-93.7"/>
<polygon fill="#63b8ff" stroke="#63b8ff" points="275.1,-91.5 266.67,-85.09 269.26,-95.36 275.1,-91.5"/>
</a>
</g>
</g>
<!-- Node10 -->
<g id="Node000010" class="node">
<title>Node10</title>
<g id="a_Node000010"><a xlink:title=" ">
<polygon fill="#e0e0e0" stroke="#999999" points="353.5,-85 308.5,-85 308.5,-66 353.5,-66 353.5,-85"/>
<text text-anchor="middle" x="331" y="-73" font-family="Helvetica,sans-Serif" font-size="10.00">utility</text>
</a>
</g>
</g>
<!-- Node6&#45;&gt;Node10 -->
<g id="edge9_Node000006_Node000010" class="edge">
<title>Node6&#45;&gt;Node10</title>
<g id="a_edge9_Node000006_Node000010"><a xlink:title=" ">
<path fill="none" stroke="#63b8ff" d="M301.78,-120.75C306.62,-113.42 313.68,-102.73 319.64,-93.7"/>
<polygon fill="#63b8ff" stroke="#63b8ff" points="322.74,-95.36 325.33,-85.09 316.9,-91.5 322.74,-95.36"/>
</a>
</g>
</g>
<!-- Node11 -->
<g id="Node000011" class="node">
<title>Node11</title>
<g id="a_Node000011"><a xlink:href="../../d0/d3f/util_8hpp.html" target="_top" xlink:title=" ">
<polygon fill="white" stroke="#666666" points="474.5,-85 371.5,-85 371.5,-66 474.5,-66 474.5,-85"/>
<text text-anchor="middle" x="423" y="-73" font-family="Helvetica,sans-Serif" font-size="10.00">rmvl/core/util.hpp</text>
</a>
</g>
</g>
<!-- Node6&#45;&gt;Node11 -->
<g id="edge10_Node000006_Node000011" class="edge">
<title>Node6&#45;&gt;Node11</title>
<g id="a_edge10_Node000006_Node000011"><a xlink:title=" ">
<path fill="none" stroke="#63b8ff" d="M316.4,-120.98C337.02,-112.38 369.11,-98.99 392.69,-89.15"/>
<polygon fill="#63b8ff" stroke="#63b8ff" points="394.34,-92.25 402.22,-85.17 391.65,-85.79 394.34,-92.25"/>
</a>
</g>
</g>
<!-- Node17 -->
<g id="Node000017" class="node">
<title>Node17</title>
<g id="a_Node000017"><a xlink:href="../../dc/d5f/utilities_8hpp.html" target="_top" xlink:title=" ">
<polygon fill="white" stroke="#666666" points="742,-85 668,-85 668,-66 742,-66 742,-85"/>
<text text-anchor="middle" x="705" y="-73" font-family="Helvetica,sans-Serif" font-size="10.00">utilities.hpp</text>
</a>
</g>
</g>
<!-- Node6&#45;&gt;Node17 -->
<g id="edge16_Node000006_Node000017" class="edge">
<title>Node6&#45;&gt;Node17</title>
<g id="a_edge16_Node000006_Node000017"><a xlink:title=" ">
<path fill="none" stroke="#63b8ff" d="M334.85,-124.47C410.28,-114.69 576.34,-93.17 657.9,-82.6"/>
<polygon fill="#63b8ff" stroke="#63b8ff" points="658.43,-86.06 667.89,-81.31 657.53,-79.12 658.43,-86.06"/>
</a>
</g>
</g>
<!-- Node12 -->
<g id="Node000012" class="node">
<title>Node12</title>
<g id="a_Node000012"><a xlink:title=" ">
<polygon fill="#e0e0e0" stroke="#999999" points="273.5,-24.5 140.5,-24.5 140.5,-5.5 273.5,-5.5 273.5,-24.5"/>
<text text-anchor="middle" x="207" y="-12.5" font-family="Helvetica,sans-Serif" font-size="10.00">rmvl/rmvl_modules.hpp</text>
</a>
</g>
</g>
<!-- Node11&#45;&gt;Node12 -->
<g id="edge11_Node000011_Node000012" class="edge">
<title>Node11&#45;&gt;Node12</title>
<g id="a_edge11_Node000011_Node000012"><a xlink:title=" ">
<path fill="none" stroke="#63b8ff" d="M391.59,-65.99C353.76,-55.75 290.09,-38.5 248.31,-27.19"/>
<polygon fill="#63b8ff" stroke="#63b8ff" points="249.01,-23.75 238.45,-24.52 247.18,-30.51 249.01,-23.75"/>
</a>
</g>
</g>
<!-- Node13 -->
<g id="Node000013" class="node">
<title>Node13</title>
<g id="a_Node000013"><a xlink:title=" ">
<polygon fill="#e0e0e0" stroke="#999999" points="342,-24.5 292,-24.5 292,-5.5 342,-5.5 342,-24.5"/>
<text text-anchor="middle" x="317" y="-12.5" font-family="Helvetica,sans-Serif" font-size="10.00">cstdint</text>
</a>
</g>
</g>
<!-- Node11&#45;&gt;Node13 -->
<g id="edge12_Node000011_Node000013" class="edge">
<title>Node11&#45;&gt;Node13</title>
<g id="a_edge12_Node000011_Node000013"><a xlink:title=" ">
<path fill="none" stroke="#63b8ff" d="M407.36,-65.87C390.06,-56.32 361.95,-40.81 341.67,-29.62"/>
<polygon fill="#63b8ff" stroke="#63b8ff" points="343.15,-26.43 332.7,-24.67 339.77,-32.56 343.15,-26.43"/>
</a>
</g>
</g>
<!-- Node14 -->
<g id="Node000014" class="node">
<title>Node14</title>
<g id="a_Node000014"><a xlink:title=" ">
<polygon fill="#e0e0e0" stroke="#999999" points="406,-24.5 360,-24.5 360,-5.5 406,-5.5 406,-24.5"/>
<text text-anchor="middle" x="383" y="-12.5" font-family="Helvetica,sans-Serif" font-size="10.00">cstdio</text>
</a>
</g>
</g>
<!-- Node11&#45;&gt;Node14 -->
<g id="edge13_Node000011_Node000014" class="edge">
<title>Node11&#45;&gt;Node14</title>
<g id="a_edge13_Node000011_Node000014"><a xlink:title=" ">
<path fill="none" stroke="#63b8ff" d="M417.1,-65.87C411.25,-57.31 402.13,-43.97 394.79,-33.24"/>
<polygon fill="#63b8ff" stroke="#63b8ff" points="397.46,-30.95 388.93,-24.67 391.68,-34.9 397.46,-30.95"/>
</a>
</g>
</g>
<!-- Node15 -->
<g id="Node000015" class="node">
<title>Node15</title>
<g id="a_Node000015"><a xlink:title=" ">
<polygon fill="#e0e0e0" stroke="#999999" points="561,-24.5 517,-24.5 517,-5.5 561,-5.5 561,-24.5"/>
<text text-anchor="middle" x="539" y="-12.5" font-family="Helvetica,sans-Serif" font-size="10.00">string</text>
</a>
</g>
</g>
<!-- Node11&#45;&gt;Node15 -->
<g id="edge14_Node000011_Node000015" class="edge">
<title>Node11&#45;&gt;Node15</title>
<g id="a_edge14_Node000011_Node000015"><a xlink:title=" ">
<path fill="none" stroke="#63b8ff" d="M440.12,-65.87C459.22,-56.23 490.37,-40.53 512.6,-29.31"/>
<polygon fill="#63b8ff" stroke="#63b8ff" points="514.46,-32.3 521.81,-24.67 511.31,-26.05 514.46,-32.3"/>
</a>
</g>
</g>
<!-- Node16 -->
<g id="Node000016" class="node">
<title>Node16</title>
<g id="a_Node000016"><a xlink:href="../../db/d41/rmvldef_8hpp.html" target="_top" xlink:title=" ">
<polygon fill="white" stroke="#666666" points="499.5,-24.5 424.5,-24.5 424.5,-5.5 499.5,-5.5 499.5,-24.5"/>
<text text-anchor="middle" x="462" y="-12.5" font-family="Helvetica,sans-Serif" font-size="10.00">rmvldef.hpp</text>
</a>
</g>
</g>
<!-- Node11&#45;&gt;Node16 -->
<g id="edge15_Node000011_Node000016" class="edge">
<title>Node11&#45;&gt;Node16</title>
<g id="a_edge15_Node000011_Node000016"><a xlink:title=" ">
<path fill="none" stroke="#63b8ff" d="M428.75,-65.87C434.46,-57.31 443.35,-43.97 450.51,-33.24"/>
<polygon fill="#63b8ff" stroke="#63b8ff" points="453.59,-34.93 456.22,-24.67 447.76,-31.05 453.59,-34.93"/>
</a>
</g>
</g>
<!-- Node17&#45;&gt;Node15 -->
<g id="edge17_Node000017_Node000015" class="edge">
<title>Node17&#45;&gt;Node15</title>
<g id="a_edge17_Node000017_Node000015"><a xlink:title=" ">
<path fill="none" stroke="#63b8ff" d="M676.76,-65.95C649.46,-57.49 607.04,-43.84 571,-30 569.79,-29.54 568.56,-29.05 567.32,-28.55"/>
<polygon fill="#63b8ff" stroke="#63b8ff" points="568.41,-25.21 557.83,-24.58 565.7,-31.67 568.41,-25.21"/>
</a>
</g>
</g>
<!-- Node17&#45;&gt;Node16 -->
<g id="edge24_Node000017_Node000016" class="edge">
<title>Node17&#45;&gt;Node16</title>
<g id="a_edge24_Node000017_Node000016"><a xlink:title=" ">
<path fill="none" stroke="#63b8ff" d="M667.77,-66.94C628.01,-58.67 563.25,-44.63 508,-30 505.03,-29.21 501.96,-28.36 498.89,-27.49"/>
<polygon fill="#63b8ff" stroke="#63b8ff" points="499.73,-24.08 489.15,-24.62 497.76,-30.8 499.73,-24.08"/>
</a>
</g>
</g>
<!-- Node18 -->
<g id="Node000018" class="node">
<title>Node18</title>
<g id="a_Node000018"><a xlink:title=" ">
<polygon fill="#e0e0e0" stroke="#999999" points="1029.5,-24.5 956.5,-24.5 956.5,-5.5 1029.5,-5.5 1029.5,-24.5"/>
<text text-anchor="middle" x="993" y="-12.5" font-family="Helvetica,sans-Serif" font-size="10.00">string_view</text>
</a>
</g>
</g>
<!-- Node17&#45;&gt;Node18 -->
<g id="edge18_Node000017_Node000018" class="edge">
<title>Node17&#45;&gt;Node18</title>
<g id="a_edge18_Node000017_Node000018"><a xlink:title=" ">
<path fill="none" stroke="#63b8ff" d="M742.35,-69.09C790.31,-61.82 875.95,-47.74 948,-30 951.18,-29.22 954.46,-28.34 957.74,-27.41"/>
<polygon fill="#63b8ff" stroke="#63b8ff" points="958.86,-30.73 967.45,-24.53 956.87,-24.02 958.86,-30.73"/>
</a>
</g>
</g>
<!-- Node19 -->
<g id="Node000019" class="node">
<title>Node19</title>
<g id="a_Node000019"><a xlink:title=" ">
<polygon fill="#e0e0e0" stroke="#999999" points="1112.5,-24.5 1047.5,-24.5 1047.5,-5.5 1112.5,-5.5 1112.5,-24.5"/>
<text text-anchor="middle" x="1080" y="-12.5" font-family="Helvetica,sans-Serif" font-size="10.00">typeindex</text>
</a>
</g>
</g>
<!-- Node17&#45;&gt;Node19 -->
<g id="edge19_Node000017_Node000019" class="edge">
<title>Node17&#45;&gt;Node19</title>
<g id="a_edge19_Node000017_Node000019"><a xlink:title=" ">
<path fill="none" stroke="#63b8ff" d="M742,-71.96C804.07,-67.17 932.79,-54.95 1039,-30 1041.98,-29.3 1045.05,-28.47 1048.1,-27.57"/>
<polygon fill="#63b8ff" stroke="#63b8ff" points="1049.21,-30.88 1057.68,-24.51 1047.08,-24.22 1049.21,-30.88"/>
</a>
</g>
</g>
<!-- Node20 -->
<g id="Node000020" class="node">
<title>Node20</title>
<g id="a_Node000020"><a xlink:title=" ">
<polygon fill="#e0e0e0" stroke="#999999" points="1223.5,-24.5 1130.5,-24.5 1130.5,-5.5 1223.5,-5.5 1223.5,-24.5"/>
<text text-anchor="middle" x="1177" y="-12.5" font-family="Helvetica,sans-Serif" font-size="10.00">unordered_map</text>
</a>
</g>
</g>
<!-- Node17&#45;&gt;Node20 -->
<g id="edge20_Node000017_Node000020" class="edge">
<title>Node17&#45;&gt;Node20</title>
<g id="a_edge20_Node000017_Node000020"><a xlink:title=" ">
<path fill="none" stroke="#63b8ff" d="M742.07,-72.33C815.19,-67.65 982.98,-54.98 1122,-30 1126.78,-29.14 1131.76,-28.09 1136.68,-26.96"/>
<polygon fill="#63b8ff" stroke="#63b8ff" points="1137.73,-30.31 1146.62,-24.56 1136.08,-23.51 1137.73,-30.31"/>
</a>
</g>
</g>
<!-- Node21 -->
<g id="Node000021" class="node">
<title>Node21</title>
<g id="a_Node000021"><a xlink:title=" ">
<polygon fill="#e0e0e0" stroke="#999999" points="626.5,-24.5 579.5,-24.5 579.5,-5.5 626.5,-5.5 626.5,-24.5"/>
<text text-anchor="middle" x="603" y="-12.5" font-family="Helvetica,sans-Serif" font-size="10.00">vector</text>
</a>
</g>
</g>
<!-- Node17&#45;&gt;Node21 -->
<g id="edge21_Node000017_Node000021" class="edge">
<title>Node17&#45;&gt;Node21</title>
<g id="a_edge21_Node000017_Node000021"><a xlink:title=" ">
<path fill="none" stroke="#63b8ff" d="M689.95,-65.87C673.38,-56.36 646.5,-40.95 627.01,-29.77"/>
<polygon fill="#63b8ff" stroke="#63b8ff" points="628.53,-26.61 618.11,-24.67 625.05,-32.68 628.53,-26.61"/>
</a>
</g>
</g>
<!-- Node22 -->
<g id="Node000022" class="node">
<title>Node22</title>
<g id="a_Node000022"><a xlink:title=" ">
<polygon fill="#e0e0e0" stroke="#999999" points="765.5,-24.5 644.5,-24.5 644.5,-5.5 765.5,-5.5 765.5,-24.5"/>
<text text-anchor="middle" x="705" y="-12.5" font-family="Helvetica,sans-Serif" font-size="10.00">open62541/nodeids.h</text>
</a>
</g>
</g>
<!-- Node17&#45;&gt;Node22 -->
<g id="edge22_Node000017_Node000022" class="edge">
<title>Node17&#45;&gt;Node22</title>
<g id="a_edge22_Node000017_Node000022"><a xlink:title=" ">
<path fill="none" stroke="#63b8ff" d="M705,-65.87C705,-57.75 705,-45.31 705,-34.89"/>
<polygon fill="#63b8ff" stroke="#63b8ff" points="708.5,-34.67 705,-24.67 701.5,-34.67 708.5,-34.67"/>
</a>
</g>
</g>
<!-- Node23 -->
<g id="Node000023" class="node">
<title>Node23</title>
<g id="a_Node000023"><a xlink:title=" ">
<polygon fill="#e0e0e0" stroke="#999999" points="938.5,-30 783.5,-30 783.5,0 938.5,0 938.5,-30"/>
<text text-anchor="start" x="791.5" y="-18" font-family="Helvetica,sans-Serif" font-size="10.00">open62541/types_generated</text>
<text text-anchor="middle" x="861" y="-7" font-family="Helvetica,sans-Serif" font-size="10.00">_handling.h</text>
</a>
</g>
</g>
<!-- Node17&#45;&gt;Node23 -->
<g id="edge23_Node000017_Node000023" class="edge">
<title>Node17&#45;&gt;Node23</title>
<g id="a_edge23_Node000017_Node000023"><a xlink:title=" ">
<path fill="none" stroke="#63b8ff" d="M727.68,-65.99C750.23,-57.54 785.49,-44.32 814.08,-33.59"/>
<polygon fill="#63b8ff" stroke="#63b8ff" points="815.36,-36.85 823.5,-30.06 812.9,-30.3 815.36,-36.85"/>
</a>
</g>
</g>
<!-- Node24&#45;&gt;Node6 -->
<g id="edge27_Node000024_Node000006" class="edge">
<title>Node24&#45;&gt;Node6</title>
<g id="a_edge27_Node000024_Node000006"><a xlink:title=" ">
<path fill="none" stroke="#63b8ff" d="M344.68,-175.98C336.19,-168.23 323.44,-156.58 313.12,-147.14"/>
<polygon fill="#63b8ff" stroke="#63b8ff" points="315.23,-144.33 305.49,-140.17 310.51,-149.5 315.23,-144.33"/>
</a>
</g>
</g>
</g>
</svg>

<g id="navigator" transform="translate(0 0)" fill="#404254">
  <rect fill="#f2f5e9" fill-opacity="0.5" stroke="#606060" stroke-width=".5" x="0" y="0" width="60" height="60"/>
  <use id="zoomplus" xlink:href="#zoomPlus" x="17" y="9" onmousedown="handleZoom(evt,'in')"/>
  <use id="zoomminus" xlink:href="#zoomMin" x="42" y="9" onmousedown="handleZoom(evt,'out')"/>
  <use id="reset" xlink:href="#resetDef" x="30" y="36" onmousedown="handleReset()"/>
   <use id="arrowup" xlink:href="#arrowUp" x="0" y="0" onmousedown="handlePan(0,-1)"/>
  <use id="arrowright" xlink:href="#arrowRight" x="0" y="0" onmousedown="handlePan(1,0)"/>
  <use id="arrowdown" xlink:href="#arrowDown" x="0" y="0" onmousedown="handlePan(0,1)"/>
  <use id="arrowleft" xlink:href="#arrowLeft" x="0" y="0" onmousedown="handlePan(-1,0)"/>
</g>
<svg viewBox="0 0 15 15" width="100%" height="30px" preserveAspectRatio="xMaxYMin meet">
 <g id="arrow_out" transform="scale(0.3 0.3)">
  <a xlink:href="client_8hpp__incl_org.svg" target="_base">
   <rect id="button" ry="5" rx="5" y="6" x="6" height="38" width="38"
        fill="#f2f5e9" fill-opacity="0.5" stroke="#606060" stroke-width="1.0"/>
   <path id="arrow"
     d="M 11.500037,31.436501 C 11.940474,20.09759 22.043105,11.32322 32.158766,21.979434 L 37.068811,17.246167 C 37.068811,17.246167 37.088388,32 37.088388,32 L 22.160133,31.978069 C 22.160133,31.978069 26.997745,27.140456 26.997745,27.140456 C 18.528582,18.264221 13.291696,25.230495 11.500037,31.436501 z"
     style="fill:#404040;"/>
  </a>
 </g>
</svg>

<style type='text/css'>
<![CDATA[
[data-mouse-over-selected='false'] { opacity: 0.7; }
[data-mouse-over-selected='true']  { opacity: 1.0; }
]]>
</style>
<script type="application/ecmascript"><![CDATA[
document.addEventListener('DOMContentLoaded', (event) => {
  highlightEdges();
  highlightAdjacentNodes();
});
]]></script>
</svg>
