<?xml version="1.0" encoding="UTF-8" standalone="no"?>
<!DOCTYPE svg PUBLIC "-//W3C//DTD SVG 1.1//EN"
 "http://www.w3.org/Graphics/SVG/1.1/DTD/svg11.dtd">
<!-- Generated by graphviz version 2.43.0 (0)
 -->
<!-- Title: rmvl/decider/gyro_decider.h Pages: 1 -->
<!--zoomable 478 -->

<svg id="main" version="1.1" xmlns="http://www.w3.org/2000/svg" xmlns:xlink="http://www.w3.org/1999/xlink" xml:space="preserve" onload="init(evt)">

<style type="text/css"><![CDATA[
.node, .edge {opacity: 0.7;}
.node.selected, .edge.selected {opacity: 1;}
.edge:hover path { stroke: red; }
.edge:hover polygon { stroke: red; fill: red; }
]]></style>

<defs>
  <circle id="rim" cx="0" cy="0" r="7"/>
  <circle id="rim2" cx="0" cy="0" r="3.5"/>
  <g id="zoomPlus">
    <use xlink:href="#rim" fill="#404040"><set attributeName="fill" to="#808080" begin="zoomplus.mouseover" end="zoomplus.mouseout"/></use>
    <path d="M-4,0h8M0,-4v8" fill="none" stroke="white" stroke-width="1.5" pointer-events="none"/>
  </g>
  <g id="zoomMin">
    <use xlink:href="#rim" fill="#404040"><set attributeName="fill" to="#808080" begin="zoomminus.mouseover" end="zoomminus.mouseout"/></use>
    <path d="M-4,0h8" fill="none" stroke="white" stroke-width="1.5" pointer-events="none"/>
  </g>
  <g id="arrowUp" transform="translate(30 24)">
    <use xlink:href="#rim"/>
    <path pointer-events="none" fill="none" stroke="white" stroke-width="1.5" d="M0,-3.0v7 M-2.5,-0.5L0,-3.0L2.5,-0.5"/>
  </g>
  <g id="arrowRight" transform="rotate(90) translate(36 -43)">
    <use xlink:href="#rim"/>
    <path pointer-events="none" fill="none" stroke="white" stroke-width="1.5" d="M0,-3.0v7 M-2.5,-0.5L0,-3.0L2.5,-0.5"/>
  </g>
  <g id="arrowDown" transform="rotate(180) translate(-30 -48)">
    <use xlink:href="#rim"/>
    <path pointer-events="none" fill="none" stroke="white" stroke-width="1.5" d="M0,-3.0v7 M-2.5,-0.5L0,-3.0L2.5,-0.5"/>
  </g>
  <g id="arrowLeft" transform="rotate(270) translate(-36 17)">
    <use xlink:href="#rim"/>
    <path pointer-events="none" fill="none" stroke="white" stroke-width="1.5" d="M0,-3.0v7 M-2.5,-0.5L0,-3.0L2.5,-0.5"/>
  </g>
  <g id="resetDef">
    <use xlink:href="#rim2" fill="#404040"><set attributeName="fill" to="#808080" begin="reset.mouseover" end="reset.mouseout"/></use>
  </g>
</defs>
<script type="application/ecmascript">
var viewWidth = 1449;
var viewHeight = 478;
var sectionId = 'dynsection-0';
</script>
<script type="application/ecmascript" xlink:href="../../svg.min.js"/>
<svg id="graph" class="graph">
<g id="viewport">
<title>rmvl/decider/gyro_decider.h</title>
<!-- Node1 -->
<g id="Node000001" class="node">
<title>Node1</title>
<g id="a_Node000001"><a xlink:title="装甲板模块决策器头文件">
<polygon fill="#999999" stroke="#666666" points="1152,-470 1000,-470 1000,-451 1152,-451 1152,-470"/>
<text text-anchor="middle" x="1076" y="-458" font-family="Helvetica,sans-Serif" font-size="10.00">rmvl/decider/gyro_decider.h</text>
</a>
</g>
</g>
<!-- Node2 -->
<g id="Node000002" class="node">
<title>Node2</title>
<g id="a_Node000002"><a xlink:href="../../d3/d70/decider_8h.html" target="_top" xlink:title="抽象决策类头文件">
<polygon fill="white" stroke="#666666" points="1106.5,-415 1045.5,-415 1045.5,-396 1106.5,-396 1106.5,-415"/>
<text text-anchor="middle" x="1076" y="-403" font-family="Helvetica,sans-Serif" font-size="10.00">decider.h</text>
</a>
</g>
</g>
<!-- Node1&#45;&gt;Node2 -->
<g id="edge1_Node000001_Node000002" class="edge">
<title>Node1&#45;&gt;Node2</title>
<g id="a_edge1_Node000001_Node000002"><a xlink:title=" ">
<path fill="none" stroke="#63b8ff" d="M1076,-450.75C1076,-443.8 1076,-433.85 1076,-425.13"/>
<polygon fill="#63b8ff" stroke="#63b8ff" points="1079.5,-425.09 1076,-415.09 1072.5,-425.09 1079.5,-425.09"/>
</a>
</g>
</g>
<!-- Node6 -->
<g id="Node000006" class="node">
<title>Node6</title>
<g id="a_Node000006"><a xlink:href="../../dc/ded/tracker_8h.html" target="_top" xlink:title="追踪器抽象头文件">
<polygon fill="white" stroke="#666666" points="907.5,-250 786.5,-250 786.5,-231 907.5,-231 907.5,-250"/>
<text text-anchor="middle" x="847" y="-238" font-family="Helvetica,sans-Serif" font-size="10.00">rmvl/tracker/tracker.h</text>
</a>
</g>
</g>
<!-- Node1&#45;&gt;Node6 -->
<g id="edge49_Node000001_Node000006" class="edge">
<title>Node1&#45;&gt;Node6</title>
<g id="a_edge49_Node000001_Node000006"><a xlink:title=" ">
<path fill="none" stroke="#63b8ff" d="M1010.4,-450.98C955.84,-440.04 881.43,-415.35 845,-360 825,-329.61 833.58,-284.66 840.81,-259.77"/>
<polygon fill="#63b8ff" stroke="#63b8ff" points="844.17,-260.74 843.83,-250.15 837.49,-258.64 844.17,-260.74"/>
</a>
</g>
</g>
<!-- Node37 -->
<g id="Node000037" class="node">
<title>Node37</title>
<g id="a_Node000037"><a xlink:href="../../dd/d92/combo_2armor_8h.html" target="_top" xlink:title="装甲板类头文件">
<polygon fill="white" stroke="#666666" points="1350,-250 1234,-250 1234,-231 1350,-231 1350,-250"/>
<text text-anchor="middle" x="1292" y="-238" font-family="Helvetica,sans-Serif" font-size="10.00">rmvl/combo/armor.h</text>
</a>
</g>
</g>
<!-- Node1&#45;&gt;Node37 -->
<g id="edge50_Node000001_Node000037" class="edge">
<title>Node1&#45;&gt;Node37</title>
<g id="a_edge50_Node000001_Node000037"><a xlink:title=" ">
<path fill="none" stroke="#63b8ff" d="M1152.17,-455.49C1217.97,-447.51 1309.44,-424.62 1355,-360 1379.35,-325.46 1337.58,-280.38 1311.15,-257.03"/>
<polygon fill="#63b8ff" stroke="#63b8ff" points="1313.09,-254.09 1303.21,-250.26 1308.54,-259.41 1313.09,-254.09"/>
</a>
</g>
</g>
<!-- Node3 -->
<g id="Node000003" class="node">
<title>Node3</title>
<g id="a_Node000003"><a xlink:href="../../d9/df2/compensator_8h.html" target="_top" xlink:title="抽象补偿类头文件">
<polygon fill="white" stroke="#666666" points="1345.5,-360 1164.5,-360 1164.5,-341 1345.5,-341 1345.5,-360"/>
<text text-anchor="middle" x="1255" y="-348" font-family="Helvetica,sans-Serif" font-size="10.00">rmvl/compensator/compensator.h</text>
</a>
</g>
</g>
<!-- Node2&#45;&gt;Node3 -->
<g id="edge2_Node000002_Node000003" class="edge">
<title>Node2&#45;&gt;Node3</title>
<g id="a_edge2_Node000002_Node000003"><a xlink:title=" ">
<path fill="none" stroke="#63b8ff" d="M1104.76,-395.98C1134.94,-387.05 1182.57,-372.94 1216.1,-363.02"/>
<polygon fill="#63b8ff" stroke="#63b8ff" points="1217.42,-366.28 1226.02,-360.08 1215.43,-359.57 1217.42,-366.28"/>
</a>
</g>
</g>
<!-- Node33 -->
<g id="Node000033" class="node">
<title>Node33</title>
<g id="a_Node000033"><a xlink:href="../../d5/d9f/detector_8h.html" target="_top" xlink:title="抽象识别类头文件">
<polygon fill="white" stroke="#666666" points="988,-360 854,-360 854,-341 988,-341 988,-360"/>
<text text-anchor="middle" x="921" y="-348" font-family="Helvetica,sans-Serif" font-size="10.00">rmvl/detector/detector.h</text>
</a>
</g>
</g>
<!-- Node2&#45;&gt;Node33 -->
<g id="edge41_Node000002_Node000033" class="edge">
<title>Node2&#45;&gt;Node33</title>
<g id="a_edge41_Node000002_Node000033"><a xlink:title=" ">
<path fill="none" stroke="#63b8ff" d="M1051.1,-395.98C1025.3,-387.16 984.78,-373.31 955.82,-363.41"/>
<polygon fill="#63b8ff" stroke="#63b8ff" points="956.69,-360.01 946.1,-360.08 954.43,-366.63 956.69,-360.01"/>
</a>
</g>
</g>
<!-- Node36 -->
<g id="Node000036" class="node">
<title>Node36</title>
<g id="a_Node000036"><a xlink:href="../../dc/d08/predictor_8h.html" target="_top" xlink:title="抽象预测类头文件">
<polygon fill="white" stroke="#666666" points="1146,-360 1006,-360 1006,-341 1146,-341 1146,-360"/>
<text text-anchor="middle" x="1076" y="-348" font-family="Helvetica,sans-Serif" font-size="10.00">rmvl/predictor/predictor.h</text>
</a>
</g>
</g>
<!-- Node2&#45;&gt;Node36 -->
<g id="edge46_Node000002_Node000036" class="edge">
<title>Node2&#45;&gt;Node36</title>
<g id="a_edge46_Node000002_Node000036"><a xlink:title=" ">
<path fill="none" stroke="#63b8ff" d="M1076,-395.75C1076,-388.8 1076,-378.85 1076,-370.13"/>
<polygon fill="#63b8ff" stroke="#63b8ff" points="1079.5,-370.09 1076,-360.09 1072.5,-370.09 1079.5,-370.09"/>
</a>
</g>
</g>
<!-- Node4 -->
<g id="Node000004" class="node">
<title>Node4</title>
<g id="a_Node000004"><a xlink:title=" ">
<polygon fill="#e0e0e0" stroke="#999999" points="1174.5,-19 1081.5,-19 1081.5,0 1174.5,0 1174.5,-19"/>
<text text-anchor="middle" x="1128" y="-7" font-family="Helvetica,sans-Serif" font-size="10.00">unordered_map</text>
</a>
</g>
</g>
<!-- Node3&#45;&gt;Node4 -->
<g id="edge3_Node000003_Node000004" class="edge">
<title>Node3&#45;&gt;Node4</title>
<g id="a_edge3_Node000003_Node000004"><a xlink:title=" ">
<path fill="none" stroke="#63b8ff" d="M1311.01,-340.99C1365.46,-329.16 1440,-301.93 1440,-241.5 1440,-241.5 1440,-241.5 1440,-118.5 1440,-89.04 1443.24,-74.32 1421,-55 1421,-55 1270,-32.07 1184.8,-19.13"/>
<polygon fill="#63b8ff" stroke="#63b8ff" points="1185.16,-15.64 1174.75,-17.6 1184.11,-22.56 1185.16,-15.64"/>
</a>
</g>
</g>
<!-- Node5 -->
<g id="Node000005" class="node">
<title>Node5</title>
<g id="a_Node000005"><a xlink:href="../../d9/dd1/group_8h.html" target="_top" xlink:title="序列组抽象头文件">
<polygon fill="white" stroke="#666666" points="1111,-305 1001,-305 1001,-286 1111,-286 1111,-305"/>
<text text-anchor="middle" x="1056" y="-293" font-family="Helvetica,sans-Serif" font-size="10.00">rmvl/group/group.h</text>
</a>
</g>
</g>
<!-- Node3&#45;&gt;Node5 -->
<g id="edge4_Node000003_Node000005" class="edge">
<title>Node3&#45;&gt;Node5</title>
<g id="a_edge4_Node000003_Node000005"><a xlink:title=" ">
<path fill="none" stroke="#63b8ff" d="M1223.03,-340.98C1189.18,-331.97 1135.6,-317.7 1098.29,-307.76"/>
<polygon fill="#63b8ff" stroke="#63b8ff" points="1098.79,-304.27 1088.22,-305.08 1096.99,-311.04 1098.79,-304.27"/>
</a>
</g>
</g>
<!-- Node5&#45;&gt;Node6 -->
<g id="edge5_Node000005_Node000006" class="edge">
<title>Node5&#45;&gt;Node6</title>
<g id="a_edge5_Node000005_Node000006"><a xlink:title=" ">
<path fill="none" stroke="#63b8ff" d="M1022.42,-285.98C986.65,-276.91 929.88,-262.52 890.66,-252.57"/>
<polygon fill="#63b8ff" stroke="#63b8ff" points="891.4,-249.15 880.84,-250.08 889.68,-255.93 891.4,-249.15"/>
</a>
</g>
</g>
<!-- Node7 -->
<g id="Node000007" class="node">
<title>Node7</title>
<g id="a_Node000007"><a xlink:title=" ">
<polygon fill="#e0e0e0" stroke="#999999" points="808.5,-189.5 761.5,-189.5 761.5,-170.5 808.5,-170.5 808.5,-189.5"/>
<text text-anchor="middle" x="785" y="-177.5" font-family="Helvetica,sans-Serif" font-size="10.00">deque</text>
</a>
</g>
</g>
<!-- Node6&#45;&gt;Node7 -->
<g id="edge6_Node000006_Node000007" class="edge">
<title>Node6&#45;&gt;Node7</title>
<g id="a_edge6_Node000006_Node000007"><a xlink:title=" ">
<path fill="none" stroke="#63b8ff" d="M837.85,-230.87C828.33,-221.88 813.2,-207.61 801.57,-196.64"/>
<polygon fill="#63b8ff" stroke="#63b8ff" points="803.86,-193.98 794.19,-189.67 799.06,-199.08 803.86,-193.98"/>
</a>
</g>
</g>
<!-- Node8 -->
<g id="Node000008" class="node">
<title>Node8</title>
<g id="a_Node000008"><a xlink:href="../../d8/d36/combo_8h.html" target="_top" xlink:title="the combination of the features header file">
<polygon fill="white" stroke="#666666" points="947,-189.5 827,-189.5 827,-170.5 947,-170.5 947,-189.5"/>
<text text-anchor="middle" x="887" y="-177.5" font-family="Helvetica,sans-Serif" font-size="10.00">rmvl/combo/combo.h</text>
</a>
</g>
</g>
<!-- Node6&#45;&gt;Node8 -->
<g id="edge7_Node000006_Node000008" class="edge">
<title>Node6&#45;&gt;Node8</title>
<g id="a_edge7_Node000006_Node000008"><a xlink:title=" ">
<path fill="none" stroke="#63b8ff" d="M852.9,-230.87C858.75,-222.31 867.87,-208.97 875.21,-198.24"/>
<polygon fill="#63b8ff" stroke="#63b8ff" points="878.32,-199.9 881.07,-189.67 872.54,-195.95 878.32,-199.9"/>
</a>
</g>
</g>
<!-- Node9 -->
<g id="Node000009" class="node">
<title>Node9</title>
<g id="a_Node000009"><a xlink:href="../../d4/d78/math_8hpp.html" target="_top" xlink:title="基础数学库">
<polygon fill="white" stroke="#666666" points="632.5,-129 493.5,-129 493.5,-110 632.5,-110 632.5,-129"/>
<text text-anchor="middle" x="563" y="-117" font-family="Helvetica,sans-Serif" font-size="10.00">rmvl/algorithm/math.hpp</text>
</a>
</g>
</g>
<!-- Node8&#45;&gt;Node9 -->
<g id="edge8_Node000008_Node000009" class="edge">
<title>Node8&#45;&gt;Node9</title>
<g id="a_edge8_Node000008_Node000009"><a xlink:title=" ">
<path fill="none" stroke="#63b8ff" d="M845.2,-170.47C835.93,-168.62 826.14,-166.71 817,-165 751,-152.62 675.14,-139.47 623.63,-130.7"/>
<polygon fill="#63b8ff" stroke="#63b8ff" points="624.11,-127.23 613.67,-129.01 622.94,-134.13 624.11,-127.23"/>
</a>
</g>
</g>
<!-- Node21 -->
<g id="Node000021" class="node">
<title>Node21</title>
<g id="a_Node000021"><a xlink:href="../../d3/d7e/camutils_8hpp.html" target="_top" xlink:title="相机基本配置信息">
<polygon fill="white" stroke="#666666" points="190.5,-129 45.5,-129 45.5,-110 190.5,-110 190.5,-129"/>
<text text-anchor="middle" x="118" y="-117" font-family="Helvetica,sans-Serif" font-size="10.00">rmvl/camera/camutils.hpp</text>
</a>
</g>
</g>
<!-- Node8&#45;&gt;Node21 -->
<g id="edge21_Node000008_Node000021" class="edge">
<title>Node8&#45;&gt;Node21</title>
<g id="a_edge21_Node000008_Node000021"><a xlink:title=" ">
<path fill="none" stroke="#63b8ff" d="M849.01,-170.44C838.67,-168.37 827.44,-166.37 817,-165 595.58,-135.94 332.11,-125.67 200.88,-122.19"/>
<polygon fill="#63b8ff" stroke="#63b8ff" points="200.6,-118.68 190.51,-121.92 200.41,-125.68 200.6,-118.68"/>
</a>
</g>
</g>
<!-- Node23 -->
<g id="Node000023" class="node">
<title>Node23</title>
<g id="a_Node000023"><a xlink:href="../../d2/dc6/io_8hpp.html" target="_top" xlink:title="数据 IO 与通信模块">
<polygon fill="white" stroke="#666666" points="935,-129 839,-129 839,-110 935,-110 935,-129"/>
<text text-anchor="middle" x="887" y="-117" font-family="Helvetica,sans-Serif" font-size="10.00">rmvl/core/io.hpp</text>
</a>
</g>
</g>
<!-- Node8&#45;&gt;Node23 -->
<g id="edge24_Node000008_Node000023" class="edge">
<title>Node8&#45;&gt;Node23</title>
<g id="a_edge24_Node000008_Node000023"><a xlink:title=" ">
<path fill="none" stroke="#63b8ff" d="M887,-170.37C887,-162.25 887,-149.81 887,-139.39"/>
<polygon fill="#63b8ff" stroke="#63b8ff" points="890.5,-139.17 887,-129.17 883.5,-139.17 890.5,-139.17"/>
</a>
</g>
</g>
<!-- Node28 -->
<g id="Node000028" class="node">
<title>Node28</title>
<g id="a_Node000028"><a xlink:href="../../d2/d74/feature_8h.html" target="_top" xlink:title="feature class header">
<polygon fill="white" stroke="#666666" points="1295.5,-129 1170.5,-129 1170.5,-110 1295.5,-110 1295.5,-129"/>
<text text-anchor="middle" x="1233" y="-117" font-family="Helvetica,sans-Serif" font-size="10.00">rmvl/feature/feature.h</text>
</a>
</g>
</g>
<!-- Node8&#45;&gt;Node28 -->
<g id="edge32_Node000008_Node000028" class="edge">
<title>Node8&#45;&gt;Node28</title>
<g id="a_edge32_Node000008_Node000028"><a xlink:title=" ">
<path fill="none" stroke="#63b8ff" d="M937.31,-170.49C999.71,-159.94 1105.97,-141.98 1172.68,-130.7"/>
<polygon fill="#63b8ff" stroke="#63b8ff" points="1173.35,-134.13 1182.63,-129.02 1172.18,-127.23 1173.35,-134.13"/>
</a>
</g>
</g>
<!-- Node9&#45;&gt;Node4 -->
<g id="edge12_Node000009_Node000004" class="edge">
<title>Node9&#45;&gt;Node4</title>
<g id="a_edge12_Node000009_Node000004"><a xlink:title=" ">
<path fill="none" stroke="#63b8ff" d="M596.5,-110C626.63,-101.96 671.89,-88.94 710,-74 727.95,-66.96 730.5,-60.42 749,-55 859.97,-22.48 995.8,-13.62 1071,-11.27"/>
<polygon fill="#63b8ff" stroke="#63b8ff" points="1071.31,-14.76 1081.21,-10.98 1071.11,-7.77 1071.31,-14.76"/>
</a>
</g>
</g>
<!-- Node10 -->
<g id="Node000010" class="node">
<title>Node10</title>
<g id="a_Node000010"><a xlink:title=" ">
<polygon fill="#e0e0e0" stroke="#999999" points="234.5,-74 187.5,-74 187.5,-55 234.5,-55 234.5,-74"/>
<text text-anchor="middle" x="211" y="-62" font-family="Helvetica,sans-Serif" font-size="10.00">cmath</text>
</a>
</g>
</g>
<!-- Node9&#45;&gt;Node10 -->
<g id="edge9_Node000009_Node000010" class="edge">
<title>Node9&#45;&gt;Node10</title>
<g id="a_edge9_Node000009_Node000010"><a xlink:title=" ">
<path fill="none" stroke="#63b8ff" d="M493.3,-111.28C430.49,-104.21 335.47,-92.12 244.6,-74.13"/>
<polygon fill="#63b8ff" stroke="#63b8ff" points="245.18,-70.67 234.69,-72.14 243.81,-77.54 245.18,-70.67"/>
</a>
</g>
</g>
<!-- Node11 -->
<g id="Node000011" class="node">
<title>Node11</title>
<g id="a_Node000011"><a xlink:title=" ">
<polygon fill="#e0e0e0" stroke="#999999" points="317.5,-74 252.5,-74 252.5,-55 317.5,-55 317.5,-74"/>
<text text-anchor="middle" x="285" y="-62" font-family="Helvetica,sans-Serif" font-size="10.00">functional</text>
</a>
</g>
</g>
<!-- Node9&#45;&gt;Node11 -->
<g id="edge10_Node000009_Node000011" class="edge">
<title>Node9&#45;&gt;Node11</title>
<g id="a_edge10_Node000009_Node000011"><a xlink:title=" ">
<path fill="none" stroke="#63b8ff" d="M516.84,-109.98C471.38,-101.55 399.68,-88.15 327.71,-74.12"/>
<polygon fill="#63b8ff" stroke="#63b8ff" points="328.04,-70.61 317.55,-72.13 326.69,-77.48 328.04,-70.61"/>
</a>
</g>
</g>
<!-- Node12 -->
<g id="Node000012" class="node">
<title>Node12</title>
<g id="a_Node000012"><a xlink:title=" ">
<polygon fill="#e0e0e0" stroke="#999999" points="392,-74 336,-74 336,-55 392,-55 392,-74"/>
<text text-anchor="middle" x="364" y="-62" font-family="Helvetica,sans-Serif" font-size="10.00">numeric</text>
</a>
</g>
</g>
<!-- Node9&#45;&gt;Node12 -->
<g id="edge11_Node000009_Node000012" class="edge">
<title>Node9&#45;&gt;Node12</title>
<g id="a_edge11_Node000009_Node000012"><a xlink:title=" ">
<path fill="none" stroke="#63b8ff" d="M531.03,-109.98C495.88,-100.62 439.44,-85.59 402.04,-75.63"/>
<polygon fill="#63b8ff" stroke="#63b8ff" points="402.6,-72.16 392.03,-72.97 400.8,-78.92 402.6,-72.16"/>
</a>
</g>
</g>
<!-- Node13 -->
<g id="Node000013" class="node">
<title>Node13</title>
<g id="a_Node000013"><a xlink:title=" ">
<polygon fill="#e0e0e0" stroke="#999999" points="805.5,-74 758.5,-74 758.5,-55 805.5,-55 805.5,-74"/>
<text text-anchor="middle" x="782" y="-62" font-family="Helvetica,sans-Serif" font-size="10.00">vector</text>
</a>
</g>
</g>
<!-- Node9&#45;&gt;Node13 -->
<g id="edge13_Node000009_Node000013" class="edge">
<title>Node9&#45;&gt;Node13</title>
<g id="a_edge13_Node000009_Node000013"><a xlink:title=" ">
<path fill="none" stroke="#63b8ff" d="M598.19,-109.98C639.56,-99.97 707.74,-83.47 748.41,-73.63"/>
<polygon fill="#63b8ff" stroke="#63b8ff" points="749.48,-76.97 758.37,-71.22 747.83,-70.17 749.48,-76.97"/>
</a>
</g>
</g>
<!-- Node14 -->
<g id="Node000014" class="node">
<title>Node14</title>
<g id="a_Node000014"><a xlink:title=" ">
<polygon fill="#e0e0e0" stroke="#999999" points="541.5,-74 410.5,-74 410.5,-55 541.5,-55 541.5,-74"/>
<text text-anchor="middle" x="476" y="-62" font-family="Helvetica,sans-Serif" font-size="10.00">opencv2/core/matx.hpp</text>
</a>
</g>
</g>
<!-- Node9&#45;&gt;Node14 -->
<g id="edge14_Node000009_Node000014" class="edge">
<title>Node9&#45;&gt;Node14</title>
<g id="a_edge14_Node000009_Node000014"><a xlink:title=" ">
<path fill="none" stroke="#63b8ff" d="M549.02,-109.98C535.53,-101.77 514.87,-89.18 498.96,-79.49"/>
<polygon fill="#63b8ff" stroke="#63b8ff" points="500.59,-76.38 490.23,-74.17 496.95,-82.36 500.59,-76.38"/>
</a>
</g>
</g>
<!-- Node15 -->
<g id="Node000015" class="node">
<title>Node15</title>
<g id="a_Node000015"><a xlink:href="../../d0/d3f/util_8hpp.html" target="_top" xlink:title=" ">
<polygon fill="white" stroke="#666666" points="701.5,-74 598.5,-74 598.5,-55 701.5,-55 701.5,-74"/>
<text text-anchor="middle" x="650" y="-62" font-family="Helvetica,sans-Serif" font-size="10.00">rmvl/core/util.hpp</text>
</a>
</g>
</g>
<!-- Node9&#45;&gt;Node15 -->
<g id="edge15_Node000009_Node000015" class="edge">
<title>Node9&#45;&gt;Node15</title>
<g id="a_edge15_Node000009_Node000015"><a xlink:title=" ">
<path fill="none" stroke="#63b8ff" d="M576.98,-109.98C590.47,-101.77 611.13,-89.18 627.04,-79.49"/>
<polygon fill="#63b8ff" stroke="#63b8ff" points="629.05,-82.36 635.77,-74.17 625.41,-76.38 629.05,-82.36"/>
</a>
</g>
</g>
<!-- Node16 -->
<g id="Node000016" class="node">
<title>Node16</title>
<g id="a_Node000016"><a xlink:title=" ">
<polygon fill="#e0e0e0" stroke="#999999" points="824.5,-19 691.5,-19 691.5,0 824.5,0 824.5,-19"/>
<text text-anchor="middle" x="758" y="-7" font-family="Helvetica,sans-Serif" font-size="10.00">rmvl/rmvl_modules.hpp</text>
</a>
</g>
</g>
<!-- Node15&#45;&gt;Node16 -->
<g id="edge16_Node000015_Node000016" class="edge">
<title>Node15&#45;&gt;Node16</title>
<g id="a_edge16_Node000015_Node000016"><a xlink:title=" ">
<path fill="none" stroke="#63b8ff" d="M667.35,-54.98C684.57,-46.54 711.2,-33.47 731.15,-23.68"/>
<polygon fill="#63b8ff" stroke="#63b8ff" points="732.9,-26.72 740.33,-19.17 729.81,-20.43 732.9,-26.72"/>
</a>
</g>
</g>
<!-- Node17 -->
<g id="Node000017" class="node">
<title>Node17</title>
<g id="a_Node000017"><a xlink:title=" ">
<polygon fill="#e0e0e0" stroke="#999999" points="609,-19 559,-19 559,0 609,0 609,-19"/>
<text text-anchor="middle" x="584" y="-7" font-family="Helvetica,sans-Serif" font-size="10.00">cstdint</text>
</a>
</g>
</g>
<!-- Node15&#45;&gt;Node17 -->
<g id="edge17_Node000015_Node000017" class="edge">
<title>Node15&#45;&gt;Node17</title>
<g id="a_edge17_Node000015_Node000017"><a xlink:title=" ">
<path fill="none" stroke="#63b8ff" d="M639.4,-54.98C629.54,-47.07 614.65,-35.11 602.78,-25.58"/>
<polygon fill="#63b8ff" stroke="#63b8ff" points="604.79,-22.7 594.8,-19.17 600.4,-28.16 604.79,-22.7"/>
</a>
</g>
</g>
<!-- Node18 -->
<g id="Node000018" class="node">
<title>Node18</title>
<g id="a_Node000018"><a xlink:title=" ">
<polygon fill="#e0e0e0" stroke="#999999" points="673,-19 627,-19 627,0 673,0 673,-19"/>
<text text-anchor="middle" x="650" y="-7" font-family="Helvetica,sans-Serif" font-size="10.00">cstdio</text>
</a>
</g>
</g>
<!-- Node15&#45;&gt;Node18 -->
<g id="edge18_Node000015_Node000018" class="edge">
<title>Node15&#45;&gt;Node18</title>
<g id="a_edge18_Node000015_Node000018"><a xlink:title=" ">
<path fill="none" stroke="#63b8ff" d="M650,-54.75C650,-47.8 650,-37.85 650,-29.13"/>
<polygon fill="#63b8ff" stroke="#63b8ff" points="653.5,-29.09 650,-19.09 646.5,-29.09 653.5,-29.09"/>
</a>
</g>
</g>
<!-- Node19 -->
<g id="Node000019" class="node">
<title>Node19</title>
<g id="a_Node000019"><a xlink:title=" ">
<polygon fill="#e0e0e0" stroke="#999999" points="887,-19 843,-19 843,0 887,0 887,-19"/>
<text text-anchor="middle" x="865" y="-7" font-family="Helvetica,sans-Serif" font-size="10.00">string</text>
</a>
</g>
</g>
<!-- Node15&#45;&gt;Node19 -->
<g id="edge19_Node000015_Node000019" class="edge">
<title>Node15&#45;&gt;Node19</title>
<g id="a_edge19_Node000015_Node000019"><a xlink:title=" ">
<path fill="none" stroke="#63b8ff" d="M686.17,-54.94C723.12,-46.14 782.14,-31.94 833,-19 833.1,-18.97 833.2,-18.95 833.3,-18.92"/>
<polygon fill="#63b8ff" stroke="#63b8ff" points="834.18,-22.31 842.98,-16.41 832.42,-15.54 834.18,-22.31"/>
</a>
</g>
</g>
<!-- Node20 -->
<g id="Node000020" class="node">
<title>Node20</title>
<g id="a_Node000020"><a xlink:href="../../db/d41/rmvldef_8hpp.html" target="_top" xlink:title=" ">
<polygon fill="white" stroke="#666666" points="540.5,-19 465.5,-19 465.5,0 540.5,0 540.5,-19"/>
<text text-anchor="middle" x="503" y="-7" font-family="Helvetica,sans-Serif" font-size="10.00">rmvldef.hpp</text>
</a>
</g>
</g>
<!-- Node15&#45;&gt;Node20 -->
<g id="edge20_Node000015_Node000020" class="edge">
<title>Node15&#45;&gt;Node20</title>
<g id="a_edge20_Node000015_Node000020"><a xlink:title=" ">
<path fill="none" stroke="#63b8ff" d="M626.38,-54.98C602.1,-46.23 564.05,-32.51 536.63,-22.62"/>
<polygon fill="#63b8ff" stroke="#63b8ff" points="537.64,-19.27 527.05,-19.17 535.27,-25.85 537.64,-19.27"/>
</a>
</g>
</g>
<!-- Node21&#45;&gt;Node20 -->
<g id="edge23_Node000021_Node000020" class="edge">
<title>Node21&#45;&gt;Node20</title>
<g id="a_edge23_Node000021_Node000020"><a xlink:title=" ">
<path fill="none" stroke="#63b8ff" d="M98.97,-109.82C74.95,-97.74 38.84,-75.06 57,-55 83.37,-25.87 345.77,-15 455.33,-11.72"/>
<polygon fill="#63b8ff" stroke="#63b8ff" points="455.55,-15.21 465.45,-11.42 455.35,-8.21 455.55,-15.21"/>
</a>
</g>
</g>
<!-- Node22 -->
<g id="Node000022" class="node">
<title>Node22</title>
<g id="a_Node000022"><a xlink:title=" ">
<polygon fill="#e0e0e0" stroke="#999999" points="169.5,-74 66.5,-74 66.5,-55 169.5,-55 169.5,-74"/>
<text text-anchor="middle" x="118" y="-62" font-family="Helvetica,sans-Serif" font-size="10.00">opencv2/core.hpp</text>
</a>
</g>
</g>
<!-- Node21&#45;&gt;Node22 -->
<g id="edge22_Node000021_Node000022" class="edge">
<title>Node21&#45;&gt;Node22</title>
<g id="a_edge22_Node000021_Node000022"><a xlink:title=" ">
<path fill="none" stroke="#63b8ff" d="M118,-109.75C118,-102.8 118,-92.85 118,-84.13"/>
<polygon fill="#63b8ff" stroke="#63b8ff" points="121.5,-84.09 118,-74.09 114.5,-84.09 121.5,-84.09"/>
</a>
</g>
</g>
<!-- Node23&#45;&gt;Node13 -->
<g id="edge30_Node000023_Node000013" class="edge">
<title>Node23&#45;&gt;Node13</title>
<g id="a_edge30_Node000023_Node000013"><a xlink:title=" ">
<path fill="none" stroke="#63b8ff" d="M870.13,-109.98C853.39,-101.54 827.5,-88.47 808.11,-78.68"/>
<polygon fill="#63b8ff" stroke="#63b8ff" points="809.68,-75.55 799.18,-74.17 806.53,-81.8 809.68,-75.55"/>
</a>
</g>
</g>
<!-- Node23&#45;&gt;Node19 -->
<g id="edge29_Node000023_Node000019" class="edge">
<title>Node23&#45;&gt;Node19</title>
<g id="a_edge29_Node000023_Node000019"><a xlink:title=" ">
<path fill="none" stroke="#63b8ff" d="M877.39,-109.69C869.13,-101.41 857.8,-88.18 853,-74 848,-59.22 851.97,-41.76 856.65,-28.89"/>
<polygon fill="#63b8ff" stroke="#63b8ff" points="860.01,-29.91 860.55,-19.32 853.53,-27.26 860.01,-29.91"/>
</a>
</g>
</g>
<!-- Node23&#45;&gt;Node20 -->
<g id="edge31_Node000023_Node000020" class="edge">
<title>Node23&#45;&gt;Node20</title>
<g id="a_edge31_Node000023_Node000020"><a xlink:title=" ">
<path fill="none" stroke="#63b8ff" d="M838.92,-118.38C778.39,-116.68 672.26,-108.43 589,-74 561.83,-62.77 535.36,-41.13 519.13,-26.26"/>
<polygon fill="#63b8ff" stroke="#63b8ff" points="521.3,-23.49 511.62,-19.19 516.5,-28.59 521.3,-23.49"/>
</a>
</g>
</g>
<!-- Node24 -->
<g id="Node000024" class="node">
<title>Node24</title>
<g id="a_Node000024"><a xlink:title=" ">
<polygon fill="#e0e0e0" stroke="#999999" points="1038,-74 996,-74 996,-55 1038,-55 1038,-74"/>
<text text-anchor="middle" x="1017" y="-62" font-family="Helvetica,sans-Serif" font-size="10.00">array</text>
</a>
</g>
</g>
<!-- Node23&#45;&gt;Node24 -->
<g id="edge25_Node000023_Node000024" class="edge">
<title>Node23&#45;&gt;Node24</title>
<g id="a_edge25_Node000023_Node000024"><a xlink:title=" ">
<path fill="none" stroke="#63b8ff" d="M907.89,-109.98C929.08,-101.34 962.13,-87.87 986.3,-78.02"/>
<polygon fill="#63b8ff" stroke="#63b8ff" points="987.79,-81.19 995.73,-74.17 985.15,-74.7 987.79,-81.19"/>
</a>
</g>
</g>
<!-- Node25 -->
<g id="Node000025" class="node">
<title>Node25</title>
<g id="a_Node000025"><a xlink:title=" ">
<polygon fill="#e0e0e0" stroke="#999999" points="912,-74 862,-74 862,-55 912,-55 912,-74"/>
<text text-anchor="middle" x="887" y="-62" font-family="Helvetica,sans-Serif" font-size="10.00">cstring</text>
</a>
</g>
</g>
<!-- Node23&#45;&gt;Node25 -->
<g id="edge26_Node000023_Node000025" class="edge">
<title>Node23&#45;&gt;Node25</title>
<g id="a_edge26_Node000023_Node000025"><a xlink:title=" ">
<path fill="none" stroke="#63b8ff" d="M887,-109.75C887,-102.8 887,-92.85 887,-84.13"/>
<polygon fill="#63b8ff" stroke="#63b8ff" points="890.5,-84.09 887,-74.09 883.5,-84.09 890.5,-84.09"/>
</a>
</g>
</g>
<!-- Node26 -->
<g id="Node000026" class="node">
<title>Node26</title>
<g id="a_Node000026"><a xlink:title=" ">
<polygon fill="#e0e0e0" stroke="#999999" points="978,-74 930,-74 930,-55 978,-55 978,-74"/>
<text text-anchor="middle" x="954" y="-62" font-family="Helvetica,sans-Serif" font-size="10.00">iosfwd</text>
</a>
</g>
</g>
<!-- Node23&#45;&gt;Node26 -->
<g id="edge27_Node000023_Node000026" class="edge">
<title>Node23&#45;&gt;Node26</title>
<g id="a_edge27_Node000023_Node000026"><a xlink:title=" ">
<path fill="none" stroke="#63b8ff" d="M897.76,-109.98C907.77,-102.07 922.89,-90.11 934.93,-80.58"/>
<polygon fill="#63b8ff" stroke="#63b8ff" points="937.37,-83.12 943.04,-74.17 933.03,-77.63 937.37,-83.12"/>
</a>
</g>
</g>
<!-- Node27 -->
<g id="Node000027" class="node">
<title>Node27</title>
<g id="a_Node000027"><a xlink:title=" ">
<polygon fill="#e0e0e0" stroke="#999999" points="1114,-74 1056,-74 1056,-55 1114,-55 1114,-74"/>
<text text-anchor="middle" x="1085" y="-62" font-family="Helvetica,sans-Serif" font-size="10.00">memory</text>
</a>
</g>
</g>
<!-- Node23&#45;&gt;Node27 -->
<g id="edge28_Node000023_Node000027" class="edge">
<title>Node23&#45;&gt;Node27</title>
<g id="a_edge28_Node000023_Node000027"><a xlink:title=" ">
<path fill="none" stroke="#63b8ff" d="M918.81,-109.98C953.39,-100.73 1008.66,-85.94 1045.86,-75.98"/>
<polygon fill="#63b8ff" stroke="#63b8ff" points="1047.09,-79.27 1055.85,-73.3 1045.28,-72.51 1047.09,-79.27"/>
</a>
</g>
</g>
<!-- Node28&#45;&gt;Node27 -->
<g id="edge33_Node000028_Node000027" class="edge">
<title>Node28&#45;&gt;Node27</title>
<g id="a_edge33_Node000028_Node000027"><a xlink:title=" ">
<path fill="none" stroke="#63b8ff" d="M1209.22,-109.98C1184.77,-101.23 1146.47,-87.51 1118.85,-77.62"/>
<polygon fill="#63b8ff" stroke="#63b8ff" points="1119.81,-74.25 1109.21,-74.17 1117.45,-80.84 1119.81,-74.25"/>
</a>
</g>
</g>
<!-- Node29 -->
<g id="Node000029" class="node">
<title>Node29</title>
<g id="a_Node000029"><a xlink:title=" ">
<polygon fill="#e0e0e0" stroke="#999999" points="1411.5,-74 1278.5,-74 1278.5,-55 1411.5,-55 1411.5,-74"/>
<text text-anchor="middle" x="1345" y="-62" font-family="Helvetica,sans-Serif" font-size="10.00">opencv2/core/types.hpp</text>
</a>
</g>
</g>
<!-- Node28&#45;&gt;Node29 -->
<g id="edge34_Node000028_Node000029" class="edge">
<title>Node28&#45;&gt;Node29</title>
<g id="a_edge34_Node000028_Node000029"><a xlink:title=" ">
<path fill="none" stroke="#63b8ff" d="M1250.99,-109.98C1268.93,-101.5 1296.72,-88.35 1317.43,-78.54"/>
<polygon fill="#63b8ff" stroke="#63b8ff" points="1319.14,-81.61 1326.68,-74.17 1316.14,-75.28 1319.14,-81.61"/>
</a>
</g>
</g>
<!-- Node30 -->
<g id="Node000030" class="node">
<title>Node30</title>
<g id="a_Node000030"><a xlink:href="../../dd/de3/types_8hpp.html" target="_top" xlink:title="状态类型系统">
<polygon fill="white" stroke="#666666" points="1260,-74 1170,-74 1170,-55 1260,-55 1260,-74"/>
<text text-anchor="middle" x="1215" y="-62" font-family="Helvetica,sans-Serif" font-size="10.00">rmvl/types.hpp</text>
</a>
</g>
</g>
<!-- Node28&#45;&gt;Node30 -->
<g id="edge35_Node000028_Node000030" class="edge">
<title>Node28&#45;&gt;Node30</title>
<g id="a_edge35_Node000028_Node000030"><a xlink:title=" ">
<path fill="none" stroke="#63b8ff" d="M1230.03,-109.75C1227.64,-102.72 1224.21,-92.62 1221.23,-83.84"/>
<polygon fill="#63b8ff" stroke="#63b8ff" points="1224.45,-82.43 1217.92,-74.09 1217.82,-84.68 1224.45,-82.43"/>
</a>
</g>
</g>
<!-- Node30&#45;&gt;Node4 -->
<g id="edge38_Node000030_Node000004" class="edge">
<title>Node30&#45;&gt;Node4</title>
<g id="a_edge38_Node000030_Node000004"><a xlink:title=" ">
<path fill="none" stroke="#63b8ff" d="M1201.02,-54.98C1187.53,-46.77 1166.87,-34.18 1150.96,-24.49"/>
<polygon fill="#63b8ff" stroke="#63b8ff" points="1152.59,-21.38 1142.23,-19.17 1148.95,-27.36 1152.59,-21.38"/>
</a>
</g>
</g>
<!-- Node30&#45;&gt;Node19 -->
<g id="edge36_Node000030_Node000019" class="edge">
<title>Node30&#45;&gt;Node19</title>
<g id="a_edge36_Node000030_Node000019"><a xlink:title=" ">
<path fill="none" stroke="#63b8ff" d="M1169.96,-56.68C1098.23,-45.82 959.76,-24.85 897.14,-15.37"/>
<polygon fill="#63b8ff" stroke="#63b8ff" points="897.47,-11.88 887.06,-13.84 896.42,-18.8 897.47,-11.88"/>
</a>
</g>
</g>
<!-- Node30&#45;&gt;Node20 -->
<g id="edge40_Node000030_Node000020" class="edge">
<title>Node30&#45;&gt;Node20</title>
<g id="a_edge40_Node000030_Node000020"><a xlink:title=" ">
<path fill="none" stroke="#63b8ff" d="M1169.63,-59.04C1154.78,-57.65 1138.19,-56.18 1123,-55 871.95,-35.52 805.06,-49.38 550.94,-18.95"/>
<polygon fill="#63b8ff" stroke="#63b8ff" points="551,-15.43 540.65,-17.71 550.16,-22.38 551,-15.43"/>
</a>
</g>
</g>
<!-- Node31 -->
<g id="Node000031" class="node">
<title>Node31</title>
<g id="a_Node000031"><a xlink:title=" ">
<polygon fill="#e0e0e0" stroke="#999999" points="1265.5,-19 1192.5,-19 1192.5,0 1265.5,0 1265.5,-19"/>
<text text-anchor="middle" x="1229" y="-7" font-family="Helvetica,sans-Serif" font-size="10.00">string_view</text>
</a>
</g>
</g>
<!-- Node30&#45;&gt;Node31 -->
<g id="edge37_Node000030_Node000031" class="edge">
<title>Node30&#45;&gt;Node31</title>
<g id="a_edge37_Node000030_Node000031"><a xlink:title=" ">
<path fill="none" stroke="#63b8ff" d="M1217.31,-54.75C1219.17,-47.72 1221.84,-37.62 1224.15,-28.84"/>
<polygon fill="#63b8ff" stroke="#63b8ff" points="1227.56,-29.65 1226.73,-19.09 1220.79,-27.86 1227.56,-29.65"/>
</a>
</g>
</g>
<!-- Node32 -->
<g id="Node000032" class="node">
<title>Node32</title>
<g id="a_Node000032"><a xlink:title=" ">
<polygon fill="#e0e0e0" stroke="#999999" points="1334.5,-19 1283.5,-19 1283.5,0 1334.5,0 1334.5,-19"/>
<text text-anchor="middle" x="1309" y="-7" font-family="Helvetica,sans-Serif" font-size="10.00">variant</text>
</a>
</g>
</g>
<!-- Node30&#45;&gt;Node32 -->
<g id="edge39_Node000030_Node000032" class="edge">
<title>Node30&#45;&gt;Node32</title>
<g id="a_edge39_Node000030_Node000032"><a xlink:title=" ">
<path fill="none" stroke="#63b8ff" d="M1230.1,-54.98C1244.82,-46.69 1267.42,-33.94 1284.67,-24.22"/>
<polygon fill="#63b8ff" stroke="#63b8ff" points="1286.63,-27.13 1293.62,-19.17 1283.19,-21.03 1286.63,-27.13"/>
</a>
</g>
</g>
<!-- Node33&#45;&gt;Node5 -->
<g id="edge42_Node000033_Node000005" class="edge">
<title>Node33&#45;&gt;Node5</title>
<g id="a_edge42_Node000033_Node000005"><a xlink:title=" ">
<path fill="none" stroke="#63b8ff" d="M942.69,-340.98C964.8,-332.3 999.32,-318.75 1024.45,-308.88"/>
<polygon fill="#63b8ff" stroke="#63b8ff" points="1025.89,-312.08 1033.92,-305.17 1023.33,-305.57 1025.89,-312.08"/>
</a>
</g>
</g>
<!-- Node34 -->
<g id="Node000034" class="node">
<title>Node34</title>
<g id="a_Node000034"><a xlink:href="../../d2/d4c/pretreat_8hpp.html" target="_top" xlink:title="图像预处理模块">
<polygon fill="white" stroke="#666666" points="474,-305 322,-305 322,-286 474,-286 474,-305"/>
<text text-anchor="middle" x="398" y="-293" font-family="Helvetica,sans-Serif" font-size="10.00">rmvl/algorithm/pretreat.hpp</text>
</a>
</g>
</g>
<!-- Node33&#45;&gt;Node34 -->
<g id="edge43_Node000033_Node000034" class="edge">
<title>Node33&#45;&gt;Node34</title>
<g id="a_edge43_Node000033_Node000034"><a xlink:title=" ">
<path fill="none" stroke="#63b8ff" d="M853.96,-342.71C759.67,-333.15 587.81,-315.74 484.15,-305.23"/>
<polygon fill="#63b8ff" stroke="#63b8ff" points="484.32,-301.73 474.02,-304.2 483.62,-308.69 484.32,-301.73"/>
</a>
</g>
</g>
<!-- Node34&#45;&gt;Node20 -->
<g id="edge44_Node000034_Node000020" class="edge">
<title>Node34&#45;&gt;Node20</title>
<g id="a_edge44_Node000034_Node000020"><a xlink:title=" ">
<path fill="none" stroke="#63b8ff" d="M321.73,-288.35C206.17,-276.9 0,-247.19 0,-181 0,-181 0,-181 0,-118.5 0,-82.85 17.81,-72.27 49,-55 117.83,-16.89 353.27,-11.13 455.26,-10.46"/>
<polygon fill="#63b8ff" stroke="#63b8ff" points="455.3,-13.96 465.28,-10.41 455.26,-6.96 455.3,-13.96"/>
</a>
</g>
</g>
<!-- Node35 -->
<g id="Node000035" class="node">
<title>Node35</title>
<g id="a_Node000035"><a xlink:title=" ">
<polygon fill="#e0e0e0" stroke="#999999" points="460.5,-250 335.5,-250 335.5,-231 460.5,-231 460.5,-250"/>
<text text-anchor="middle" x="398" y="-238" font-family="Helvetica,sans-Serif" font-size="10.00">opencv2/core/mat.hpp</text>
</a>
</g>
</g>
<!-- Node34&#45;&gt;Node35 -->
<g id="edge45_Node000034_Node000035" class="edge">
<title>Node34&#45;&gt;Node35</title>
<g id="a_edge45_Node000034_Node000035"><a xlink:title=" ">
<path fill="none" stroke="#63b8ff" d="M398,-285.75C398,-278.8 398,-268.85 398,-260.13"/>
<polygon fill="#63b8ff" stroke="#63b8ff" points="401.5,-260.09 398,-250.09 394.5,-260.09 401.5,-260.09"/>
</a>
</g>
</g>
<!-- Node36&#45;&gt;Node4 -->
<g id="edge47_Node000036_Node000004" class="edge">
<title>Node36&#45;&gt;Node4</title>
<g id="a_edge47_Node000036_Node000004"><a xlink:title=" ">
<path fill="none" stroke="#63b8ff" d="M1087.18,-340.7C1097.03,-332.42 1111.16,-319.21 1120,-305 1135.78,-279.64 1142,-271.37 1142,-241.5 1142,-241.5 1142,-241.5 1142,-118.5 1142,-86.93 1136.04,-50.59 1131.9,-29.14"/>
<polygon fill="#63b8ff" stroke="#63b8ff" points="1135.29,-28.24 1129.89,-19.13 1128.43,-29.62 1135.29,-28.24"/>
</a>
</g>
</g>
<!-- Node36&#45;&gt;Node5 -->
<g id="edge48_Node000036_Node000005" class="edge">
<title>Node36&#45;&gt;Node5</title>
<g id="a_edge48_Node000036_Node000005"><a xlink:title=" ">
<path fill="none" stroke="#63b8ff" d="M1072.7,-340.75C1070.02,-333.65 1066.15,-323.4 1062.81,-314.56"/>
<polygon fill="#63b8ff" stroke="#63b8ff" points="1066.05,-313.21 1059.24,-305.09 1059.5,-315.68 1066.05,-313.21"/>
</a>
</g>
</g>
<!-- Node37&#45;&gt;Node8 -->
<g id="edge52_Node000037_Node000008" class="edge">
<title>Node37&#45;&gt;Node8</title>
<g id="a_edge52_Node000037_Node000008"><a xlink:title=" ">
<path fill="none" stroke="#63b8ff" d="M1233.97,-231.12C1160.61,-220.52 1034.44,-202.3 956.15,-190.99"/>
<polygon fill="#63b8ff" stroke="#63b8ff" points="956.3,-187.47 945.91,-189.51 955.3,-194.4 956.3,-187.47"/>
</a>
</g>
</g>
<!-- Node38 -->
<g id="Node000038" class="node">
<title>Node38</title>
<g id="a_Node000038"><a xlink:title=" ">
<polygon fill="#e0e0e0" stroke="#999999" points="1397.5,-189.5 1302.5,-189.5 1302.5,-170.5 1397.5,-170.5 1397.5,-189.5"/>
<text text-anchor="middle" x="1350" y="-177.5" font-family="Helvetica,sans-Serif" font-size="10.00">opencv2/ml.hpp</text>
</a>
</g>
</g>
<!-- Node37&#45;&gt;Node38 -->
<g id="edge51_Node000037_Node000038" class="edge">
<title>Node37&#45;&gt;Node38</title>
<g id="a_edge51_Node000037_Node000038"><a xlink:title=" ">
<path fill="none" stroke="#63b8ff" d="M1300.56,-230.87C1309.38,-221.97 1323.34,-207.89 1334.18,-196.95"/>
<polygon fill="#63b8ff" stroke="#63b8ff" points="1336.85,-199.23 1341.41,-189.67 1331.88,-194.3 1336.85,-199.23"/>
</a>
</g>
</g>
<!-- Node39 -->
<g id="Node000039" class="node">
<title>Node39</title>
<g id="a_Node000039"><a xlink:href="../../d4/d54/feature_2light__blob_8h.html" target="_top" xlink:title="灯条类头文件">
<polygon fill="white" stroke="#666666" points="1284,-195 1182,-195 1182,-165 1284,-165 1284,-195"/>
<text text-anchor="start" x="1190" y="-183" font-family="Helvetica,sans-Serif" font-size="10.00">rmvl/feature/light</text>
<text text-anchor="middle" x="1233" y="-172" font-family="Helvetica,sans-Serif" font-size="10.00">_blob.h</text>
</a>
</g>
</g>
<!-- Node37&#45;&gt;Node39 -->
<g id="edge53_Node000037_Node000039" class="edge">
<title>Node37&#45;&gt;Node39</title>
<g id="a_edge53_Node000037_Node000039"><a xlink:title=" ">
<path fill="none" stroke="#63b8ff" d="M1283.29,-230.87C1275.73,-223.37 1264.46,-212.2 1254.51,-202.33"/>
<polygon fill="#63b8ff" stroke="#63b8ff" points="1256.8,-199.67 1247.24,-195.11 1251.87,-204.64 1256.8,-199.67"/>
</a>
</g>
</g>
<!-- Node39&#45;&gt;Node28 -->
<g id="edge54_Node000039_Node000028" class="edge">
<title>Node39&#45;&gt;Node28</title>
<g id="a_edge54_Node000039_Node000028"><a xlink:title=" ">
<path fill="none" stroke="#63b8ff" d="M1233,-164.84C1233,-157.21 1233,-147.7 1233,-139.45"/>
<polygon fill="#63b8ff" stroke="#63b8ff" points="1236.5,-139.27 1233,-129.27 1229.5,-139.27 1236.5,-139.27"/>
</a>
</g>
</g>
</g>
</svg>

<g id="navigator" transform="translate(0 0)" fill="#404254">
  <rect fill="#f2f5e9" fill-opacity="0.5" stroke="#606060" stroke-width=".5" x="0" y="0" width="60" height="60"/>
  <use id="zoomplus" xlink:href="#zoomPlus" x="17" y="9" onmousedown="handleZoom(evt,'in')"/>
  <use id="zoomminus" xlink:href="#zoomMin" x="42" y="9" onmousedown="handleZoom(evt,'out')"/>
  <use id="reset" xlink:href="#resetDef" x="30" y="36" onmousedown="handleReset()"/>
   <use id="arrowup" xlink:href="#arrowUp" x="0" y="0" onmousedown="handlePan(0,-1)"/>
  <use id="arrowright" xlink:href="#arrowRight" x="0" y="0" onmousedown="handlePan(1,0)"/>
  <use id="arrowdown" xlink:href="#arrowDown" x="0" y="0" onmousedown="handlePan(0,1)"/>
  <use id="arrowleft" xlink:href="#arrowLeft" x="0" y="0" onmousedown="handlePan(-1,0)"/>
</g>
<svg viewBox="0 0 15 15" width="100%" height="30px" preserveAspectRatio="xMaxYMin meet">
 <g id="arrow_out" transform="scale(0.3 0.3)">
  <a xlink:href="decider_2gyro__decider_8h__incl_org.svg" target="_base">
   <rect id="button" ry="5" rx="5" y="6" x="6" height="38" width="38"
        fill="#f2f5e9" fill-opacity="0.5" stroke="#606060" stroke-width="1.0"/>
   <path id="arrow"
     d="M 11.500037,31.436501 C 11.940474,20.09759 22.043105,11.32322 32.158766,21.979434 L 37.068811,17.246167 C 37.068811,17.246167 37.088388,32 37.088388,32 L 22.160133,31.978069 C 22.160133,31.978069 26.997745,27.140456 26.997745,27.140456 C 18.528582,18.264221 13.291696,25.230495 11.500037,31.436501 z"
     style="fill:#404040;"/>
  </a>
 </g>
</svg>

<style type='text/css'>
<![CDATA[
[data-mouse-over-selected='false'] { opacity: 0.7; }
[data-mouse-over-selected='true']  { opacity: 1.0; }
]]>
</style>
<script type="application/ecmascript"><![CDATA[
document.addEventListener('DOMContentLoaded', (event) => {
  highlightEdges();
  highlightAdjacentNodes();
});
]]></script>
</svg>
