<?xml version="1.0" encoding="UTF-8" standalone="no"?>
<!DOCTYPE svg PUBLIC "-//W3C//DTD SVG 1.1//EN"
 "http://www.w3.org/Graphics/SVG/1.1/DTD/svg11.dtd">
<!-- Generated by graphviz version 2.43.0 (0)
 -->
<!-- Title: rm::para::GyroTrackerParam Pages: 1 -->
<!--zoomable 182 -->
<svg id="main" version="1.1" xmlns="http://www.w3.org/2000/svg" xmlns:xlink="http://www.w3.org/1999/xlink" xml:space="preserve" onload="init(evt)">
<style type="text/css"><![CDATA[
.edge:hover path { stroke: red; }
.edge:hover polygon { stroke: red; fill: red; }
]]></style>
<script type="text/javascript"><![CDATA[
var edges = document.getElementsByTagName('g');
if (edges && edges.length) {
  for (var i=0;i<edges.length;i++) {
    if (edges[i].id.substr(0,4)=='edge') {
      edges[i].setAttribute('class','edge');
    }
  }
}
]]></script>
        <defs>
                <circle id="rim" cx="0" cy="0" r="7"/>
                <circle id="rim2" cx="0" cy="0" r="3.5"/>
                <g id="zoomPlus">
                        <use xlink:href="#rim" fill="#404040">
                                <set attributeName="fill" to="#808080" begin="zoomplus.mouseover" end="zoomplus.mouseout"/>
                        </use>
                        <path d="M-4,0h8M0,-4v8" fill="none" stroke="white" stroke-width="1.5" pointer-events="none"/>
                </g>
                <g id="zoomMin">
                        <use xlink:href="#rim" fill="#404040">
                                <set attributeName="fill" to="#808080" begin="zoomminus.mouseover" end="zoomminus.mouseout"/>
                        </use>
                        <path d="M-4,0h8" fill="none" stroke="white" stroke-width="1.5" pointer-events="none"/>
                </g>
                <g id="dirArrow">
                        <path fill="none" stroke="white" stroke-width="1.5" d="M0,-3.0v7 M-2.5,-0.5L0,-3.0L2.5,-0.5"/>
                </g>
               <g id="resetDef">
                       <use xlink:href="#rim2" fill="#404040">
                               <set attributeName="fill" to="#808080" begin="reset.mouseover" end="reset.mouseout"/>
                       </use>
               </g>
        </defs>

<script type="text/javascript">
var viewWidth = 593;
var viewHeight = 182;
var sectionId = 'dynsection-0';
</script>
<script xlink:href="../../svgpan.js"/>
<svg id="graph" class="graph">
<g id="viewport">
<title>rm::para::GyroTrackerParam</title>
<polygon fill="white" stroke="transparent" points="-4,4 -4,-178 589,-178 589,4 -4,4"/>
<!-- Node1 -->
<g id="node1" class="node">
<title>Node1</title>
<g id="a_node1"><a xlink:title="GyroTrackerParam 参数模块">
<polygon fill="#bfbfbf" stroke="black" points="237,-0.5 237,-57.5 389,-57.5 389,-0.5 237,-0.5"/>
<text text-anchor="middle" x="313" y="-45.5" font-family="Helvetica,sans-Serif" font-size="10.00">rm::para::GyroTrackerParam</text>
<polyline fill="none" stroke="black" points="237,-38.5 389,-38.5 "/>
<text text-anchor="middle" x="313" y="-26.5" font-family="Helvetica,sans-Serif" font-size="10.00"> </text>
<polyline fill="none" stroke="black" points="237,-19.5 389,-19.5 "/>
<text text-anchor="start" x="245" y="-7.5" font-family="Helvetica,sans-Serif" font-size="10.00">+ load()</text>
</a>
</g>
</g>
<!-- Node2 -->
<g id="node2" class="node">
<title>Node2</title>
<g id="a_node2"><a xlink:title=" ">
<polygon fill="white" stroke="#bfbfbf" points="0,-116.5 0,-173.5 50,-173.5 50,-116.5 0,-116.5"/>
<text text-anchor="middle" x="25" y="-161.5" font-family="Helvetica,sans-Serif" font-size="10.00">double</text>
<polyline fill="none" stroke="#bfbfbf" points="0,-154.5 50,-154.5 "/>
<text text-anchor="middle" x="25" y="-142.5" font-family="Helvetica,sans-Serif" font-size="10.00"> </text>
<polyline fill="none" stroke="#bfbfbf" points="0,-135.5 50,-135.5 "/>
<text text-anchor="middle" x="25" y="-123.5" font-family="Helvetica,sans-Serif" font-size="10.00"> </text>
</a>
</g>
</g>
<!-- Node2&#45;&gt;Node1 -->
<g id="edge1" class="edge">
<title>Node2&#45;&gt;Node1</title>
<path fill="none" stroke="#404040" d="M27.25,-116.45C29.85,-102.35 35.38,-86.08 47,-76 73.16,-53.3 157.78,-41.48 224.64,-35.54"/>
<polygon fill="none" stroke="#404040" points="224.94,-35.52 230.58,-31.02 236.89,-34.5 231.25,-38.99 224.94,-35.52"/>
<text text-anchor="middle" x="99" y="-84.5" font-family="Helvetica,sans-Serif" font-size="10.00"> +SAMPLE_INTERVAL</text>
</g>
<!-- Node3 -->
<g id="node3" class="node">
<title>Node3</title>
<g id="a_node3"><a xlink:title=" ">
<polygon fill="white" stroke="#bfbfbf" points="133,-116.5 133,-173.5 171,-173.5 171,-116.5 133,-116.5"/>
<text text-anchor="middle" x="152" y="-161.5" font-family="Helvetica,sans-Serif" font-size="10.00">float</text>
<polyline fill="none" stroke="#bfbfbf" points="133,-154.5 171,-154.5 "/>
<text text-anchor="middle" x="152" y="-142.5" font-family="Helvetica,sans-Serif" font-size="10.00"> </text>
<polyline fill="none" stroke="#bfbfbf" points="133,-135.5 171,-135.5 "/>
<text text-anchor="middle" x="152" y="-123.5" font-family="Helvetica,sans-Serif" font-size="10.00"> </text>
</a>
</g>
</g>
<!-- Node3&#45;&gt;Node1 -->
<g id="edge2" class="edge">
<title>Node3&#45;&gt;Node1</title>
<path fill="none" stroke="#404040" d="M151.41,-116.24C152.55,-102.6 156.22,-86.82 166,-76 181.43,-58.94 203.1,-48.15 225.06,-41.34"/>
<polygon fill="none" stroke="#404040" points="225.34,-41.26 230.04,-35.8 236.9,-38.04 232.19,-43.51 225.34,-41.26"/>
<text text-anchor="middle" x="211.5" y="-90" font-family="Helvetica,sans-Serif" font-size="10.00"> +MAX_ROTSPEED</text>
<text text-anchor="middle" x="211.5" y="-79" font-family="Helvetica,sans-Serif" font-size="10.00">+MIN_ROTSPEED</text>
</g>
<!-- Node4 -->
<g id="node4" class="node">
<title>Node4</title>
<g id="a_node4"><a xlink:title=" ">
<polygon fill="white" stroke="#bfbfbf" points="237.5,-116.5 237.5,-173.5 294.5,-173.5 294.5,-116.5 237.5,-116.5"/>
<text text-anchor="middle" x="266" y="-161.5" font-family="Helvetica,sans-Serif" font-size="10.00">Matx66f</text>
<polyline fill="none" stroke="#bfbfbf" points="237.5,-154.5 294.5,-154.5 "/>
<text text-anchor="middle" x="266" y="-142.5" font-family="Helvetica,sans-Serif" font-size="10.00"> </text>
<polyline fill="none" stroke="#bfbfbf" points="237.5,-135.5 294.5,-135.5 "/>
<text text-anchor="middle" x="266" y="-123.5" font-family="Helvetica,sans-Serif" font-size="10.00"> </text>
</a>
</g>
</g>
<!-- Node4&#45;&gt;Node1 -->
<g id="edge3" class="edge">
<title>Node4&#45;&gt;Node1</title>
<path fill="none" stroke="#404040" d="M261.76,-116.22C260.97,-103.5 261.71,-88.51 267,-76 268.28,-72.98 269.85,-70.06 271.65,-67.25"/>
<polygon fill="none" stroke="#404040" points="271.71,-67.16 272.13,-59.96 278.94,-57.58 278.52,-64.78 271.71,-67.16"/>
<text text-anchor="middle" x="302.5" y="-84.5" font-family="Helvetica,sans-Serif" font-size="10.00"> +POSITION_Q</text>
</g>
<!-- Node5 -->
<g id="node5" class="node">
<title>Node5</title>
<g id="a_node5"><a xlink:title=" ">
<polygon fill="white" stroke="#bfbfbf" points="331.5,-116.5 331.5,-173.5 388.5,-173.5 388.5,-116.5 331.5,-116.5"/>
<text text-anchor="middle" x="360" y="-161.5" font-family="Helvetica,sans-Serif" font-size="10.00">Matx22f</text>
<polyline fill="none" stroke="#bfbfbf" points="331.5,-154.5 388.5,-154.5 "/>
<text text-anchor="middle" x="360" y="-142.5" font-family="Helvetica,sans-Serif" font-size="10.00"> </text>
<polyline fill="none" stroke="#bfbfbf" points="331.5,-135.5 388.5,-135.5 "/>
<text text-anchor="middle" x="360" y="-123.5" font-family="Helvetica,sans-Serif" font-size="10.00"> </text>
</a>
</g>
</g>
<!-- Node5&#45;&gt;Node1 -->
<g id="edge4" class="edge">
<title>Node5&#45;&gt;Node1</title>
<path fill="none" stroke="#404040" d="M352.35,-116.44C348.55,-103.91 343.58,-89 338,-76 336.95,-73.56 335.82,-71.07 334.63,-68.59"/>
<polygon fill="none" stroke="#404040" points="334.59,-68.52 328.32,-64.97 329.18,-57.81 335.46,-61.36 334.59,-68.52"/>
<text text-anchor="middle" x="377" y="-90" font-family="Helvetica,sans-Serif" font-size="10.00"> +MOTION_R</text>
<text text-anchor="middle" x="377" y="-79" font-family="Helvetica,sans-Serif" font-size="10.00">+POSE_R</text>
</g>
<!-- Node6 -->
<g id="node6" class="node">
<title>Node6</title>
<g id="a_node6"><a xlink:title=" ">
<polygon fill="white" stroke="#bfbfbf" points="418.5,-116.5 418.5,-173.5 475.5,-173.5 475.5,-116.5 418.5,-116.5"/>
<text text-anchor="middle" x="447" y="-161.5" font-family="Helvetica,sans-Serif" font-size="10.00">Matx33f</text>
<polyline fill="none" stroke="#bfbfbf" points="418.5,-154.5 475.5,-154.5 "/>
<text text-anchor="middle" x="447" y="-142.5" font-family="Helvetica,sans-Serif" font-size="10.00"> </text>
<polyline fill="none" stroke="#bfbfbf" points="418.5,-135.5 475.5,-135.5 "/>
<text text-anchor="middle" x="447" y="-123.5" font-family="Helvetica,sans-Serif" font-size="10.00"> </text>
</a>
</g>
</g>
<!-- Node6&#45;&gt;Node1 -->
<g id="edge5" class="edge">
<title>Node6&#45;&gt;Node1</title>
<path fill="none" stroke="#404040" d="M438.18,-116.48C432.7,-102.91 424.48,-87.11 413,-76 408.57,-71.71 403.66,-67.77 398.47,-64.15"/>
<polygon fill="none" stroke="#404040" points="398.31,-64.06 391.1,-64.21 388.19,-57.61 395.4,-57.46 398.31,-64.06"/>
<text text-anchor="middle" x="464" y="-84.5" font-family="Helvetica,sans-Serif" font-size="10.00"> +POSITION_R</text>
</g>
<!-- Node7 -->
<g id="node7" class="node">
<title>Node7</title>
<g id="a_node7"><a xlink:title=" ">
<polygon fill="white" stroke="#bfbfbf" points="511.5,-116.5 511.5,-173.5 568.5,-173.5 568.5,-116.5 511.5,-116.5"/>
<text text-anchor="middle" x="540" y="-161.5" font-family="Helvetica,sans-Serif" font-size="10.00">Matx44f</text>
<polyline fill="none" stroke="#bfbfbf" points="511.5,-154.5 568.5,-154.5 "/>
<text text-anchor="middle" x="540" y="-142.5" font-family="Helvetica,sans-Serif" font-size="10.00"> </text>
<polyline fill="none" stroke="#bfbfbf" points="511.5,-135.5 568.5,-135.5 "/>
<text text-anchor="middle" x="540" y="-123.5" font-family="Helvetica,sans-Serif" font-size="10.00"> </text>
</a>
</g>
</g>
<!-- Node7&#45;&gt;Node1 -->
<g id="edge6" class="edge">
<title>Node7&#45;&gt;Node1</title>
<path fill="none" stroke="#404040" d="M531.03,-116.16C525.16,-102.16 516.11,-86.07 503,-76 473.99,-53.71 435.72,-42.04 401.14,-35.99"/>
<polygon fill="none" stroke="#404040" points="400.93,-35.96 394.38,-38.97 389.08,-34.08 395.63,-31.07 400.93,-35.96"/>
<text text-anchor="middle" x="552.5" y="-90" font-family="Helvetica,sans-Serif" font-size="10.00"> +MOTION_Q</text>
<text text-anchor="middle" x="552.5" y="-79" font-family="Helvetica,sans-Serif" font-size="10.00">+POSE_Q</text>
</g>
</g>
</svg>
        <g id="navigator" transform="translate(0 0)" fill="#404254">
                <rect fill="#f2f5e9" fill-opacity="0.5" stroke="#606060" stroke-width=".5" x="0" y="0" width="60" height="60"/>
                <use id="zoomplus" xlink:href="#zoomPlus" x="17" y="9" onmousedown="handleZoom(evt,'in')"/>
                <use id="zoomminus" xlink:href="#zoomMin" x="42" y="9" onmousedown="handleZoom(evt,'out')"/>
                <use id="reset" xlink:href="#resetDef" x="30" y="36" onmousedown="handleReset()"/>
                <g id="arrowUp" xlink:href="#dirArrow" transform="translate(30 24)" onmousedown="handlePan(0,-1)">
                  <use xlink:href="#rim" fill="#404040">
                        <set attributeName="fill" to="#808080" begin="arrowUp.mouseover" end="arrowUp.mouseout"/>
                  </use>
                  <path fill="none" stroke="white" stroke-width="1.5" d="M0,-3.0v7 M-2.5,-0.5L0,-3.0L2.5,-0.5"/>
                </g>
                <g id="arrowRight" xlink:href="#dirArrow" transform="rotate(90) translate(36 -43)" onmousedown="handlePan(1,0)">
                  <use xlink:href="#rim" fill="#404040">
                        <set attributeName="fill" to="#808080" begin="arrowRight.mouseover" end="arrowRight.mouseout"/>
                  </use>
                  <path fill="none" stroke="white" stroke-width="1.5" d="M0,-3.0v7 M-2.5,-0.5L0,-3.0L2.5,-0.5"/>
                </g>
                <g id="arrowDown" xlink:href="#dirArrow" transform="rotate(180) translate(-30 -48)" onmousedown="handlePan(0,1)">
                  <use xlink:href="#rim" fill="#404040">
                        <set attributeName="fill" to="#808080" begin="arrowDown.mouseover" end="arrowDown.mouseout"/>
                  </use>
                  <path fill="none" stroke="white" stroke-width="1.5" d="M0,-3.0v7 M-2.5,-0.5L0,-3.0L2.5,-0.5"/>
                </g>
                <g id="arrowLeft" xlink:href="#dirArrow" transform="rotate(270) translate(-36 17)" onmousedown="handlePan(-1,0)">
                  <use xlink:href="#rim" fill="#404040">
                        <set attributeName="fill" to="#808080" begin="arrowLeft.mouseover" end="arrowLeft.mouseout"/>
                  </use>
                  <path fill="none" stroke="white" stroke-width="1.5" d="M0,-3.0v7 M-2.5,-0.5L0,-3.0L2.5,-0.5"/>
                </g>
        </g>
        <svg viewBox="0 0 15 15" width="100%" height="30px" preserveAspectRatio="xMaxYMin meet">
         <g id="arrow_out" transform="scale(0.3 0.3)">
          <a xlink:href="structrm_1_1para_1_1GyroTrackerParam__coll__graph_org.svg" target="_base">
           <rect id="button" ry="5" rx="5" y="6" x="6" height="38" width="38"
                fill="#f2f5e9" fill-opacity="0.5" stroke="#606060" stroke-width="1.0"/>
           <path id="arrow"
             d="M 11.500037,31.436501 C 11.940474,20.09759 22.043105,11.32322 32.158766,21.979434 L 37.068811,17.246167 C 37.068811,17.246167 37.088388,32 37.088388,32 L 22.160133,31.978069 C 22.160133,31.978069 26.997745,27.140456 26.997745,27.140456 C 18.528582,18.264221 13.291696,25.230495 11.500037,31.436501 z"
             style="fill:#404040;"/>
          </a>
         </g>
        </svg>
</svg>
