<?xml version="1.0" encoding="UTF-8" standalone="no"?>
<!DOCTYPE svg PUBLIC "-//W3C//DTD SVG 1.1//EN"
 "http://www.w3.org/Graphics/SVG/1.1/DTD/svg11.dtd">
<!-- Generated by graphviz version 2.43.0 (0)
 -->
<!-- Title: rm::para::ArmorDetectorParam Pages: 1 -->
<svg width="449pt" height="204pt"
 viewBox="0.00 0.00 449.00 204.00" xmlns="http://www.w3.org/2000/svg" xmlns:xlink="http://www.w3.org/1999/xlink">
<g id="graph0" class="graph" transform="scale(1 1) rotate(0) translate(4 200)">
<title>rm::para::ArmorDetectorParam</title>
<polygon fill="white" stroke="transparent" points="-4,4 -4,-200 445,-200 445,4 -4,4"/>
<!-- Node1 -->
<g id="node1" class="node">
<title>Node1</title>
<g id="a_node1"><a xlink:title="ArmorDetectorParam 参数模块">
<polygon fill="#bfbfbf" stroke="black" points="82.5,-0.5 82.5,-57.5 249.5,-57.5 249.5,-0.5 82.5,-0.5"/>
<text text-anchor="middle" x="166" y="-45.5" font-family="Helvetica,sans-Serif" font-size="10.00">rm::para::ArmorDetectorParam</text>
<polyline fill="none" stroke="black" points="82.5,-38.5 249.5,-38.5 "/>
<text text-anchor="middle" x="166" y="-26.5" font-family="Helvetica,sans-Serif" font-size="10.00"> </text>
<polyline fill="none" stroke="black" points="82.5,-19.5 249.5,-19.5 "/>
<text text-anchor="start" x="90.5" y="-7.5" font-family="Helvetica,sans-Serif" font-size="10.00">+ load()</text>
</a>
</g>
</g>
<!-- Node2 -->
<g id="node2" class="node">
<title>Node2</title>
<g id="a_node2"><a xlink:title=" ">
<polygon fill="white" stroke="#bfbfbf" points="0,-138.5 0,-195.5 50,-195.5 50,-138.5 0,-138.5"/>
<text text-anchor="middle" x="25" y="-183.5" font-family="Helvetica,sans-Serif" font-size="10.00">double</text>
<polyline fill="none" stroke="#bfbfbf" points="0,-176.5 50,-176.5 "/>
<text text-anchor="middle" x="25" y="-164.5" font-family="Helvetica,sans-Serif" font-size="10.00"> </text>
<polyline fill="none" stroke="#bfbfbf" points="0,-157.5 50,-157.5 "/>
<text text-anchor="middle" x="25" y="-145.5" font-family="Helvetica,sans-Serif" font-size="10.00"> </text>
</a>
</g>
</g>
<!-- Node2&#45;&gt;Node1 -->
<g id="edge1" class="edge">
<title>Node2&#45;&gt;Node1</title>
<path fill="none" stroke="#404040" d="M24.18,-138.18C25.06,-118.66 29.34,-93.09 44,-76 51.6,-67.14 61.1,-59.98 71.41,-54.2"/>
<polygon fill="none" stroke="#404040" points="71.69,-54.06 75.25,-47.79 82.4,-48.66 78.85,-54.93 71.69,-54.06"/>
<text text-anchor="middle" x="103" y="-95.5" font-family="Helvetica,sans-Serif" font-size="10.00"> +MIN_CONTOUR_AREA</text>
</g>
<!-- Node3 -->
<g id="node3" class="node">
<title>Node3</title>
<g id="a_node3"><a xlink:title=" ">
<polygon fill="white" stroke="#bfbfbf" points="147,-138.5 147,-195.5 185,-195.5 185,-138.5 147,-138.5"/>
<text text-anchor="middle" x="166" y="-183.5" font-family="Helvetica,sans-Serif" font-size="10.00">float</text>
<polyline fill="none" stroke="#bfbfbf" points="147,-176.5 185,-176.5 "/>
<text text-anchor="middle" x="166" y="-164.5" font-family="Helvetica,sans-Serif" font-size="10.00"> </text>
<polyline fill="none" stroke="#bfbfbf" points="147,-157.5 185,-157.5 "/>
<text text-anchor="middle" x="166" y="-145.5" font-family="Helvetica,sans-Serif" font-size="10.00"> </text>
</a>
</g>
</g>
<!-- Node3&#45;&gt;Node1 -->
<g id="edge2" class="edge">
<title>Node3&#45;&gt;Node1</title>
<path fill="none" stroke="#404040" d="M166,-138.48C166,-118.79 166,-91.99 166,-69.95"/>
<polygon fill="none" stroke="#404040" points="166,-69.95 162,-63.95 166,-57.95 170,-63.95 166,-69.95"/>
<text text-anchor="start" x="166" y="-112" font-family="Helvetica,sans-Serif" font-size="10.00"> +MAX_TRACKER_DELTA</text>
<text text-anchor="middle" x="226.5" y="-101" font-family="Helvetica,sans-Serif" font-size="10.00">_DIS</text>
<text text-anchor="middle" x="226.5" y="-90" font-family="Helvetica,sans-Serif" font-size="10.00">+MODEL_MEAN</text>
<text text-anchor="middle" x="226.5" y="-79" font-family="Helvetica,sans-Serif" font-size="10.00">+MODEL_STD</text>
</g>
<!-- Node4 -->
<g id="node4" class="node">
<title>Node4</title>
<g id="a_node4"><a xlink:title=" ">
<polygon fill="white" stroke="#bfbfbf" points="295.5,-138.5 295.5,-195.5 324.5,-195.5 324.5,-138.5 295.5,-138.5"/>
<text text-anchor="middle" x="310" y="-183.5" font-family="Helvetica,sans-Serif" font-size="10.00">int</text>
<polyline fill="none" stroke="#bfbfbf" points="295.5,-176.5 324.5,-176.5 "/>
<text text-anchor="middle" x="310" y="-164.5" font-family="Helvetica,sans-Serif" font-size="10.00"> </text>
<polyline fill="none" stroke="#bfbfbf" points="295.5,-157.5 324.5,-157.5 "/>
<text text-anchor="middle" x="310" y="-145.5" font-family="Helvetica,sans-Serif" font-size="10.00"> </text>
</a>
</g>
</g>
<!-- Node4&#45;&gt;Node1 -->
<g id="edge3" class="edge">
<title>Node4&#45;&gt;Node1</title>
<path fill="none" stroke="#404040" d="M309.77,-138.11C308.19,-118.55 303.04,-92.98 288,-76 280.31,-67.32 270.82,-60.28 260.55,-54.56"/>
<polygon fill="none" stroke="#404040" points="260.33,-54.45 253.18,-55.33 249.61,-49.06 256.77,-48.18 260.33,-54.45"/>
<text text-anchor="middle" x="374" y="-101" font-family="Helvetica,sans-Serif" font-size="10.00"> +GRAY_THRESHOLD_BLUE</text>
<text text-anchor="middle" x="374" y="-90" font-family="Helvetica,sans-Serif" font-size="10.00">+GRAY_THRESHOLD_RED</text>
</g>
</g>
</svg>
