<?xml version="1.0" encoding="UTF-8" standalone="no"?>
<!DOCTYPE svg PUBLIC "-//W3C//DTD SVG 1.1//EN"
 "http://www.w3.org/Graphics/SVG/1.1/DTD/svg11.dtd">
<!-- Generated by graphviz version 2.43.0 (0)
 -->
<!-- Title: rm::msg::URDF Pages: 1 -->
<svg width="199pt" height="316pt"
 viewBox="0.00 0.00 199.00 316.00" xmlns="http://www.w3.org/2000/svg" xmlns:xlink="http://www.w3.org/1999/xlink">

<svg id="main" version="1.1" xmlns="http://www.w3.org/2000/svg" xmlns:xlink="http://www.w3.org/1999/xlink" xml:space="preserve">

<style type="text/css"><![CDATA[
.node, .edge {opacity: 0.7;}
.node.selected, .edge.selected {opacity: 1;}
.edge:hover path { stroke: red; }
.edge:hover polygon { stroke: red; fill: red; }
]]></style>
<script type="application/ecmascript" xlink:href="../../svg.min.js"/>
<svg id="graph" class="graph">
<g id="graph0" class="graph" transform="scale(1 1) rotate(0) translate(4 312)">
<title>rm::msg::URDF</title>
<!-- Node1 -->
<g id="Node000001" class="node">
<title>Node1</title>
<g id="a_Node000001"><a xlink:title="URDF 消息类型：motion/URDF">
<polygon fill="#999999" stroke="transparent" points="143,-94 47,-94 47,0 143,0 143,-94"/>
<text text-anchor="start" x="57.5" y="-82" font-family="Helvetica,sans-Serif" font-size="10.00">rm::msg::URDF</text>
<text text-anchor="start" x="93" y="-67" font-family="Helvetica,sans-Serif" font-size="10.00"> </text>
<text text-anchor="start" x="51" y="-52" font-family="Helvetica,sans-Serif" font-size="10.00">+</text>
<text text-anchor="start" x="64" y="-52" font-family="Helvetica,sans-Serif" font-size="10.00">serialize()</text>
<text text-anchor="start" x="51" y="-37" font-family="Helvetica,sans-Serif" font-size="10.00">+</text>
<text text-anchor="start" x="64" y="-37" font-family="Helvetica,sans-Serif" font-size="10.00">json()</text>
<text text-anchor="start" x="51" y="-22" font-family="Helvetica,sans-Serif" font-size="10.00">+</text>
<text text-anchor="start" x="64" y="-22" font-family="Helvetica,sans-Serif" font-size="10.00">compact_size()</text>
<text text-anchor="start" x="51" y="-7" font-family="Helvetica,sans-Serif" font-size="10.00">+</text>
<text text-anchor="start" x="64" y="-7" font-family="Helvetica,sans-Serif" font-size="10.00">deserialize()</text>
<polygon fill="#666666" stroke="#666666" points="47,-77 47,-77 143,-77 143,-77 47,-77"/>
<polygon fill="#666666" stroke="#666666" points="47,-62 47,-62 143,-62 143,-62 47,-62"/>
<polygon fill="none" stroke="#666666" points="47,0 47,-94 143,-94 143,0 47,0"/>
</a>
</g>
</g>
<!-- Node2 -->
<g id="Node000002" class="node">
<title>Node2</title>
<g id="a_Node000002"><a xlink:title=" ">
<polygon fill="white" stroke="transparent" points="78.5,-211 19.5,-211 19.5,-162 78.5,-162 78.5,-211"/>
<text text-anchor="start" x="25" y="-198.5" font-family="Helvetica,sans-Serif" font-size="10.00">std::string</text>
<text text-anchor="start" x="47.5" y="-183.5" font-family="Helvetica,sans-Serif" font-size="10.00"> </text>
<text text-anchor="start" x="47.5" y="-168.5" font-family="Helvetica,sans-Serif" font-size="10.00"> </text>
<polygon fill="#666666" stroke="#666666" points="20,-193.5 20,-193.5 79,-193.5 79,-193.5 20,-193.5"/>
<polygon fill="#666666" stroke="#666666" points="20,-178.5 20,-178.5 79,-178.5 79,-178.5 20,-178.5"/>
<polygon fill="none" stroke="#666666" points="19.5,-162 19.5,-211 78.5,-211 78.5,-162 19.5,-162"/>
</a>
</g>
</g>
<!-- Node2&#45;&gt;Node1 -->
<g id="edge1_Node000001_Node000002" class="edge">
<title>Node2&#45;&gt;Node1</title>
<g id="a_edge1_Node000001_Node000002"><a xlink:title=" ">
<path fill="none" stroke="#63b8ff" d="M45.82,-161.75C44.71,-147.07 44.81,-128.03 50,-112 50.74,-109.72 51.59,-107.46 52.53,-105.21"/>
<polygon fill="none" stroke="#63b8ff" points="52.65,-104.96 51.7,-97.81 57.93,-94.18 58.88,-101.32 52.65,-104.96"/>
</a>
</g>
<text text-anchor="start" x="53.5" y="-133" font-family="Helvetica,sans-Serif" font-size="10.00" fill="grey">+data</text>
<text text-anchor="start" x="53.5" y="-118" font-family="Helvetica,sans-Serif" font-size="10.00" fill="grey">+mesh_path</text>
</g>
<!-- Node3 -->
<g id="Node000003" class="node">
<title>Node3</title>
<g id="a_Node000003"><a xlink:title=" ">
<polygon fill="white" stroke="transparent" points="98,-308 0,-308 0,-248 98,-248 98,-308"/>
<text text-anchor="start" x="5" y="-296" font-family="Helvetica,sans-Serif" font-size="10.00">std::basic_string&lt;</text>
<text text-anchor="start" x="30.5" y="-285" font-family="Helvetica,sans-Serif" font-size="10.00"> Char &gt;</text>
<text text-anchor="start" x="47" y="-270" font-family="Helvetica,sans-Serif" font-size="10.00"> </text>
<text text-anchor="start" x="47" y="-255" font-family="Helvetica,sans-Serif" font-size="10.00"> </text>
<polygon fill="#666666" stroke="#666666" points="0,-280 0,-280 98,-280 98,-280 0,-280"/>
<polygon fill="#666666" stroke="#666666" points="0,-265 0,-265 98,-265 98,-265 0,-265"/>
<polygon fill="none" stroke="#666666" points="0,-248 0,-308 98,-308 98,-248 0,-248"/>
</a>
</g>
</g>
<!-- Node3&#45;&gt;Node2 -->
<g id="edge2_Node000002_Node000003" class="edge">
<title>Node3&#45;&gt;Node2</title>
<g id="a_edge2_Node000002_Node000003"><a xlink:title=" ">
<path fill="none" stroke="#63b8ff" d="M49,-237.41C49,-228.47 49,-219.25 49,-211.21"/>
<polygon fill="none" stroke="#63b8ff" points="45.5,-237.69 49,-247.69 52.5,-237.69 45.5,-237.69"/>
</a>
</g>
</g>
<!-- Node4 -->
<g id="Node000004" class="node">
<title>Node4</title>
<g id="a_Node000004"><a xlink:title=" ">
<polygon fill="white" stroke="transparent" points="157,-211 125,-211 125,-162 157,-162 157,-211"/>
<text text-anchor="start" x="130" y="-198.5" font-family="Helvetica,sans-Serif" font-size="10.00">char</text>
<text text-anchor="start" x="139" y="-183.5" font-family="Helvetica,sans-Serif" font-size="10.00"> </text>
<text text-anchor="start" x="139" y="-168.5" font-family="Helvetica,sans-Serif" font-size="10.00"> </text>
<polygon fill="#666666" stroke="#666666" points="125,-193.5 125,-193.5 157,-193.5 157,-193.5 125,-193.5"/>
<polygon fill="#666666" stroke="#666666" points="125,-178.5 125,-178.5 157,-178.5 157,-178.5 125,-178.5"/>
<polygon fill="none" stroke="#666666" points="125,-162 125,-211 157,-211 157,-162 125,-162"/>
</a>
</g>
</g>
<!-- Node4&#45;&gt;Node1 -->
<g id="edge3_Node000001_Node000004" class="edge">
<title>Node4&#45;&gt;Node1</title>
<g id="a_edge3_Node000001_Node000004"><a xlink:title=" ">
<path fill="none" stroke="#63b8ff" d="M134.37,-161.87C130.2,-147.4 124.57,-128.54 119,-112 118.26,-109.81 117.5,-107.58 116.71,-105.33"/>
<polygon fill="none" stroke="#63b8ff" points="116.71,-105.31 110.93,-101 112.68,-94.01 118.46,-98.32 116.71,-105.31"/>
</a>
</g>
<text text-anchor="start" x="131.5" y="-125" font-family="Helvetica,sans-Serif" font-size="10.00" fill="grey">+msg_type</text>
</g>
</g>
</svg>
</svg>

<style type='text/css'>
<![CDATA[
[data-mouse-over-selected='false'] { opacity: 0.7; }
[data-mouse-over-selected='true']  { opacity: 1.0; }
]]>
</style>
<script type="application/ecmascript"><![CDATA[
document.addEventListener('DOMContentLoaded', (event) => {
  highlightEdges();
  highlightAdjacentNodes();
});
]]></script>
</svg>
