<?xml version="1.0" encoding="UTF-8" standalone="no"?>
<!DOCTYPE svg PUBLIC "-//W3C//DTD SVG 1.1//EN"
 "http://www.w3.org/Graphics/SVG/1.1/DTD/svg11.dtd">
<!-- Generated by graphviz version 2.43.0 (0)
 -->
<!-- Title: rm::Publisher Pages: 1 -->
<svg width="230pt" height="387pt"
 viewBox="0.00 0.00 229.50 387.00" xmlns="http://www.w3.org/2000/svg" xmlns:xlink="http://www.w3.org/1999/xlink">
<g id="graph0" class="graph" transform="scale(1 1) rotate(0) translate(4 383)">
<title>rm::Publisher</title>
<polygon fill="white" stroke="transparent" points="-4,4 -4,-383 225.5,-383 225.5,4 -4,4"/>
<!-- Node1 -->
<g id="node1" class="node">
<title>Node1</title>
<g id="a_node1"><a xlink:title="OPC UA 发布者">
<polygon fill="#bfbfbf" stroke="black" points="55.5,-0.5 55.5,-68.5 136.5,-68.5 136.5,-0.5 55.5,-0.5"/>
<text text-anchor="middle" x="96" y="-56.5" font-family="Helvetica,sans-Serif" font-size="10.00">rm::Publisher</text>
<polyline fill="none" stroke="black" points="55.5,-49.5 136.5,-49.5 "/>
<text text-anchor="middle" x="96" y="-37.5" font-family="Helvetica,sans-Serif" font-size="10.00"> </text>
<polyline fill="none" stroke="black" points="55.5,-30.5 136.5,-30.5 "/>
<text text-anchor="start" x="63.5" y="-18.5" font-family="Helvetica,sans-Serif" font-size="10.00">+ Publisher()</text>
<text text-anchor="start" x="63.5" y="-7.5" font-family="Helvetica,sans-Serif" font-size="10.00">+ publish()</text>
</a>
</g>
</g>
<!-- Node2 -->
<g id="node2" class="node">
<title>Node2</title>
<g id="a_node2"><a xlink:href="../../d4/d06/classrm_1_1Server.html" target="_top" xlink:title="OPC UA 服务器">
<polygon fill="white" stroke="black" points="25.5,-106.5 25.5,-273.5 166.5,-273.5 166.5,-106.5 25.5,-106.5"/>
<text text-anchor="middle" x="96" y="-261.5" font-family="Helvetica,sans-Serif" font-size="10.00">rm::Server</text>
<polyline fill="none" stroke="black" points="25.5,-254.5 166.5,-254.5 "/>
<text text-anchor="middle" x="96" y="-242.5" font-family="Helvetica,sans-Serif" font-size="10.00"> </text>
<polyline fill="none" stroke="black" points="25.5,-235.5 166.5,-235.5 "/>
<text text-anchor="start" x="33.5" y="-223.5" font-family="Helvetica,sans-Serif" font-size="10.00">+ Server()</text>
<text text-anchor="start" x="33.5" y="-212.5" font-family="Helvetica,sans-Serif" font-size="10.00">+ Server()</text>
<text text-anchor="start" x="33.5" y="-201.5" font-family="Helvetica,sans-Serif" font-size="10.00">+ Server()</text>
<text text-anchor="start" x="33.5" y="-190.5" font-family="Helvetica,sans-Serif" font-size="10.00">+ Server()</text>
<text text-anchor="start" x="33.5" y="-179.5" font-family="Helvetica,sans-Serif" font-size="10.00">+ start()</text>
<text text-anchor="start" x="33.5" y="-168.5" font-family="Helvetica,sans-Serif" font-size="10.00">+ stop()</text>
<text text-anchor="start" x="33.5" y="-157.5" font-family="Helvetica,sans-Serif" font-size="10.00">+ join()</text>
<text text-anchor="start" x="33.5" y="-146.5" font-family="Helvetica,sans-Serif" font-size="10.00">+ ~Server()</text>
<text text-anchor="start" x="33.5" y="-135.5" font-family="Helvetica,sans-Serif" font-size="10.00">+ find()</text>
<text text-anchor="start" x="33.5" y="-124.5" font-family="Helvetica,sans-Serif" font-size="10.00">+ addVariableTypeNode()</text>
<text text-anchor="start" x="33.5" y="-113.5" font-family="Helvetica,sans-Serif" font-size="10.00">和 12 更多...</text>
</a>
</g>
</g>
<!-- Node2&#45;&gt;Node1 -->
<g id="edge1" class="edge">
<title>Node2&#45;&gt;Node1</title>
<path fill="none" stroke="midnightblue" d="M96,-96.17C96,-86.44 96,-77.07 96,-68.72"/>
<polygon fill="none" stroke="midnightblue" points="92.5,-96.41 96,-106.41 99.5,-96.41 92.5,-96.41"/>
</g>
<!-- Node3 -->
<g id="node3" class="node">
<title>Node3</title>
<g id="a_node3"><a xlink:title=" ">
<polygon fill="white" stroke="#bfbfbf" points="0,-321.5 0,-378.5 38,-378.5 38,-321.5 0,-321.5"/>
<text text-anchor="middle" x="19" y="-366.5" font-family="Helvetica,sans-Serif" font-size="10.00">bool</text>
<polyline fill="none" stroke="#bfbfbf" points="0,-359.5 38,-359.5 "/>
<text text-anchor="middle" x="19" y="-347.5" font-family="Helvetica,sans-Serif" font-size="10.00"> </text>
<polyline fill="none" stroke="#bfbfbf" points="0,-340.5 38,-340.5 "/>
<text text-anchor="middle" x="19" y="-328.5" font-family="Helvetica,sans-Serif" font-size="10.00"> </text>
</a>
</g>
</g>
<!-- Node3&#45;&gt;Node2 -->
<g id="edge2" class="edge">
<title>Node3&#45;&gt;Node2</title>
<path fill="none" stroke="#404040" d="M27,-321.32C30.05,-311.87 33.82,-301.33 38,-292 39.11,-289.53 40.26,-287.04 41.45,-284.53"/>
<polygon fill="none" stroke="#404040" points="41.56,-284.31 40.62,-277.16 46.86,-273.54 47.8,-280.69 41.56,-284.31"/>
<text text-anchor="middle" x="65" y="-295" font-family="Helvetica,sans-Serif" font-size="10.00"> #_running</text>
</g>
<!-- Node4 -->
<g id="node4" class="node">
<title>Node4</title>
<g id="a_node4"><a xlink:title=" ">
<polygon fill="white" stroke="#bfbfbf" points="58,-321.5 58,-378.5 134,-378.5 134,-321.5 58,-321.5"/>
<text text-anchor="middle" x="96" y="-366.5" font-family="Helvetica,sans-Serif" font-size="10.00">UA_Server *</text>
<polyline fill="none" stroke="#bfbfbf" points="58,-359.5 134,-359.5 "/>
<text text-anchor="middle" x="96" y="-347.5" font-family="Helvetica,sans-Serif" font-size="10.00"> </text>
<polyline fill="none" stroke="#bfbfbf" points="58,-340.5 134,-340.5 "/>
<text text-anchor="middle" x="96" y="-328.5" font-family="Helvetica,sans-Serif" font-size="10.00"> </text>
</a>
</g>
</g>
<!-- Node4&#45;&gt;Node2 -->
<g id="edge3" class="edge">
<title>Node4&#45;&gt;Node2</title>
<path fill="none" stroke="#404040" d="M96,-321.48C96,-311.12 96,-298.67 96,-285.63"/>
<polygon fill="none" stroke="#404040" points="96,-285.54 92,-279.54 96,-273.54 100,-279.54 96,-285.54"/>
<text text-anchor="middle" x="120" y="-295" font-family="Helvetica,sans-Serif" font-size="10.00"> #_server</text>
</g>
<!-- Node5 -->
<g id="node5" class="node">
<title>Node5</title>
<g id="a_node5"><a xlink:title=" ">
<polygon fill="white" stroke="#bfbfbf" points="152.5,-321.5 152.5,-378.5 221.5,-378.5 221.5,-321.5 152.5,-321.5"/>
<text text-anchor="middle" x="187" y="-366.5" font-family="Helvetica,sans-Serif" font-size="10.00">std::thread</text>
<polyline fill="none" stroke="#bfbfbf" points="152.5,-359.5 221.5,-359.5 "/>
<text text-anchor="middle" x="187" y="-347.5" font-family="Helvetica,sans-Serif" font-size="10.00"> </text>
<polyline fill="none" stroke="#bfbfbf" points="152.5,-340.5 221.5,-340.5 "/>
<text text-anchor="middle" x="187" y="-328.5" font-family="Helvetica,sans-Serif" font-size="10.00"> </text>
</a>
</g>
</g>
<!-- Node5&#45;&gt;Node2 -->
<g id="edge4" class="edge">
<title>Node5&#45;&gt;Node2</title>
<path fill="none" stroke="#404040" d="M171.15,-321.48C164.94,-310.7 157.43,-297.65 149.58,-284.03"/>
<polygon fill="none" stroke="#404040" points="149.53,-283.93 143.06,-280.73 143.54,-273.54 150,-276.74 149.53,-283.93"/>
<text text-anchor="middle" x="176.5" y="-295" font-family="Helvetica,sans-Serif" font-size="10.00"> #_run</text>
</g>
</g>
</svg>
