<?xml version="1.0" encoding="UTF-8" standalone="no"?>
<!DOCTYPE svg PUBLIC "-//W3C//DTD SVG 1.1//EN"
 "http://www.w3.org/Graphics/SVG/1.1/DTD/svg11.dtd">
<!-- Generated by graphviz version 2.43.0 (0)
 -->
<!-- Title: rm::Pilot Pages: 1 -->
<!--zoomable 633 -->

<svg id="main" version="1.1" xmlns="http://www.w3.org/2000/svg" xmlns:xlink="http://www.w3.org/1999/xlink" xml:space="preserve" onload="init(evt)">

<style type="text/css"><![CDATA[
.node, .edge {opacity: 0.7;}
.node.selected, .edge.selected {opacity: 1;}
.edge:hover path { stroke: red; }
.edge:hover polygon { stroke: red; fill: red; }
]]></style>

<defs>
  <circle id="rim" cx="0" cy="0" r="7"/>
  <circle id="rim2" cx="0" cy="0" r="3.5"/>
  <g id="zoomPlus">
    <use xlink:href="#rim" fill="#404040"><set attributeName="fill" to="#808080" begin="zoomplus.mouseover" end="zoomplus.mouseout"/></use>
    <path d="M-4,0h8M0,-4v8" fill="none" stroke="white" stroke-width="1.5" pointer-events="none"/>
  </g>
  <g id="zoomMin">
    <use xlink:href="#rim" fill="#404040"><set attributeName="fill" to="#808080" begin="zoomminus.mouseover" end="zoomminus.mouseout"/></use>
    <path d="M-4,0h8" fill="none" stroke="white" stroke-width="1.5" pointer-events="none"/>
  </g>
  <g id="arrowUp" transform="translate(30 24)">
    <use xlink:href="#rim"/>
    <path pointer-events="none" fill="none" stroke="white" stroke-width="1.5" d="M0,-3.0v7 M-2.5,-0.5L0,-3.0L2.5,-0.5"/>
  </g>
  <g id="arrowRight" transform="rotate(90) translate(36 -43)">
    <use xlink:href="#rim"/>
    <path pointer-events="none" fill="none" stroke="white" stroke-width="1.5" d="M0,-3.0v7 M-2.5,-0.5L0,-3.0L2.5,-0.5"/>
  </g>
  <g id="arrowDown" transform="rotate(180) translate(-30 -48)">
    <use xlink:href="#rim"/>
    <path pointer-events="none" fill="none" stroke="white" stroke-width="1.5" d="M0,-3.0v7 M-2.5,-0.5L0,-3.0L2.5,-0.5"/>
  </g>
  <g id="arrowLeft" transform="rotate(270) translate(-36 17)">
    <use xlink:href="#rim"/>
    <path pointer-events="none" fill="none" stroke="white" stroke-width="1.5" d="M0,-3.0v7 M-2.5,-0.5L0,-3.0L2.5,-0.5"/>
  </g>
  <g id="resetDef">
    <use xlink:href="#rim2" fill="#404040"><set attributeName="fill" to="#808080" begin="reset.mouseover" end="reset.mouseout"/></use>
  </g>
</defs>
<script type="application/ecmascript">
var viewWidth = 717;
var viewHeight = 633;
var sectionId = 'dynsection-1';
</script>
<script type="application/ecmascript" xlink:href="../../svg.min.js"/>
<svg id="graph" class="graph">
<g id="viewport">
<title>rm::Pilot</title>
<!-- Node1 -->
<g id="Node000001" class="node">
<title>Node1</title>
<g id="a_Node000001"><a xlink:title="前哨、基地的引导灯">
<polygon fill="#999999" stroke="transparent" points="147,-109 62,-109 62,0 147,0 147,-109"/>
<text text-anchor="start" x="86.5" y="-96.5" font-family="Helvetica,sans-Serif" font-size="10.00">rm::Pilot</text>
<text text-anchor="start" x="103" y="-81.5" font-family="Helvetica,sans-Serif" font-size="10.00"> </text>
<text text-anchor="start" x="66.5" y="-66.5" font-family="Helvetica,sans-Serif" font-size="10.00">+</text>
<text text-anchor="start" x="77.5" y="-66.5" font-family="Helvetica,sans-Serif" font-size="10.00">clone()</text>
<text text-anchor="start" x="66.5" y="-51.5" font-family="Helvetica,sans-Serif" font-size="10.00">+</text>
<text text-anchor="start" x="77.5" y="-51.5" font-family="Helvetica,sans-Serif" font-size="10.00">getLeftPoint()</text>
<text text-anchor="start" x="66.5" y="-36.5" font-family="Helvetica,sans-Serif" font-size="10.00">+</text>
<text text-anchor="start" x="77.5" y="-36.5" font-family="Helvetica,sans-Serif" font-size="10.00">getRightPoint()</text>
<text text-anchor="start" x="66.5" y="-21.5" font-family="Helvetica,sans-Serif" font-size="10.00">+</text>
<text text-anchor="start" x="77.5" y="-21.5" font-family="Helvetica,sans-Serif" font-size="10.00">make_feature()</text>
<text text-anchor="start" x="66.5" y="-6.5" font-family="Helvetica,sans-Serif" font-size="10.00">+</text>
<text text-anchor="start" x="77.5" y="-6.5" font-family="Helvetica,sans-Serif" font-size="10.00">make_feature()</text>
<polygon fill="#666666" stroke="#666666" points="62.5,-91.5 62.5,-91.5 147.5,-91.5 147.5,-91.5 62.5,-91.5"/>
<polygon fill="#666666" stroke="#666666" points="62.5,-76.5 62.5,-76.5 147.5,-76.5 147.5,-76.5 62.5,-76.5"/>
<polygon fill="none" stroke="#666666" points="62,0 62,-109 147,-109 147,0 62,0"/>
</a>
</g>
</g>
<!-- Node2 -->
<g id="Node000002" class="node">
<title>Node2</title>
<g id="a_Node000002"><a xlink:href="../../df/db7/classrm_1_1feature.html" target="_top" xlink:title="图像中的轮廓特征">
<polygon fill="white" stroke="transparent" points="133.5,-300 75.5,-300 75.5,-146 133.5,-146 133.5,-300"/>
<text text-anchor="start" x="80.5" y="-288" font-family="Helvetica,sans-Serif" font-size="10.00">rm::feature</text>
<text text-anchor="start" x="102.5" y="-273" font-family="Helvetica,sans-Serif" font-size="10.00"> </text>
<text text-anchor="start" x="79.5" y="-258" font-family="Helvetica,sans-Serif" font-size="10.00">+</text>
<text text-anchor="start" x="90.5" y="-258" font-family="Helvetica,sans-Serif" font-size="10.00">clone()</text>
<text text-anchor="start" x="79.5" y="-243" font-family="Helvetica,sans-Serif" font-size="10.00">+</text>
<text text-anchor="start" x="90.5" y="-243" font-family="Helvetica,sans-Serif" font-size="10.00">area()</text>
<text text-anchor="start" x="79.5" y="-228" font-family="Helvetica,sans-Serif" font-size="10.00">+</text>
<text text-anchor="start" x="90.5" y="-228" font-family="Helvetica,sans-Serif" font-size="10.00">center()</text>
<text text-anchor="start" x="79.5" y="-213" font-family="Helvetica,sans-Serif" font-size="10.00">+</text>
<text text-anchor="start" x="90.5" y="-213" font-family="Helvetica,sans-Serif" font-size="10.00">width()</text>
<text text-anchor="start" x="79.5" y="-198" font-family="Helvetica,sans-Serif" font-size="10.00">+</text>
<text text-anchor="start" x="90.5" y="-198" font-family="Helvetica,sans-Serif" font-size="10.00">height()</text>
<text text-anchor="start" x="79.5" y="-183" font-family="Helvetica,sans-Serif" font-size="10.00">+</text>
<text text-anchor="start" x="90.5" y="-183" font-family="Helvetica,sans-Serif" font-size="10.00">angle()</text>
<text text-anchor="start" x="79.5" y="-168" font-family="Helvetica,sans-Serif" font-size="10.00">+</text>
<text text-anchor="start" x="90.5" y="-168" font-family="Helvetica,sans-Serif" font-size="10.00">corners()</text>
<text text-anchor="start" x="79.5" y="-153" font-family="Helvetica,sans-Serif" font-size="10.00">+</text>
<text text-anchor="start" x="90.5" y="-153" font-family="Helvetica,sans-Serif" font-size="10.00">type()</text>
<polygon fill="#666666" stroke="#666666" points="75.5,-283 75.5,-283 133.5,-283 133.5,-283 75.5,-283"/>
<polygon fill="#666666" stroke="#666666" points="75.5,-268 75.5,-268 133.5,-268 133.5,-268 75.5,-268"/>
<polygon fill="none" stroke="#666666" points="75.5,-146 75.5,-300 133.5,-300 133.5,-146 75.5,-146"/>
</a>
</g>
</g>
<!-- Node2&#45;&gt;Node1 -->
<g id="edge1_Node000001_Node000002" class="edge">
<title>Node2&#45;&gt;Node1</title>
<g id="a_edge1_Node000001_Node000002"><a xlink:title=" ">
<path fill="none" stroke="#63b8ff" d="M104.5,-135.45C104.5,-126.49 104.5,-117.57 104.5,-109.13"/>
<polygon fill="none" stroke="#63b8ff" points="101,-135.57 104.5,-145.57 108,-135.57 101,-135.57"/>
</a>
</g>
</g>
<!-- Node3 -->
<g id="Node000003" class="node">
<title>Node3</title>
<g id="a_Node000003"><a xlink:title=" ">
<polygon fill="white" stroke="transparent" points="29,-425.5 0,-425.5 0,-376.5 29,-376.5 29,-425.5"/>
<text text-anchor="start" x="5.5" y="-413" font-family="Helvetica,sans-Serif" font-size="10.00">float</text>
<text text-anchor="start" x="13" y="-398" font-family="Helvetica,sans-Serif" font-size="10.00"> </text>
<text text-anchor="start" x="13" y="-383" font-family="Helvetica,sans-Serif" font-size="10.00"> </text>
<polygon fill="#666666" stroke="#666666" points="0.5,-408 0.5,-408 29.5,-408 29.5,-408 0.5,-408"/>
<polygon fill="#666666" stroke="#666666" points="0.5,-393 0.5,-393 29.5,-393 29.5,-393 0.5,-393"/>
<polygon fill="none" stroke="#666666" points="0,-376.5 0,-425.5 29,-425.5 29,-376.5 0,-376.5"/>
</a>
</g>
</g>
<!-- Node3&#45;&gt;Node2 -->
<g id="edge2_Node000002_Node000003" class="edge">
<title>Node3&#45;&gt;Node2</title>
<g id="a_edge2_Node000002_Node000003"><a xlink:title=" ">
<path fill="none" stroke="#63b8ff" d="M10.36,-376.49C8.42,-359.59 7.96,-336.6 15.5,-318 25.9,-292.34 46.9,-269.61 65.89,-252.93"/>
<polygon fill="none" stroke="#63b8ff" points="66.11,-252.75 68.12,-245.82 75.28,-245.01 73.27,-251.94 66.11,-252.75"/>
</a>
</g>
<text text-anchor="middle" x="34" y="-343" font-family="Helvetica,sans-Serif" font-size="10.00" fill="grey"> #_angle</text>
<text text-anchor="middle" x="34" y="-332" font-family="Helvetica,sans-Serif" font-size="10.00" fill="grey">#_height</text>
<text text-anchor="middle" x="34" y="-321" font-family="Helvetica,sans-Serif" font-size="10.00" fill="grey">#_width</text>
</g>
<!-- Node4 -->
<g id="Node000004" class="node">
<title>Node4</title>
<g id="a_Node000004"><a xlink:title=" ">
<polygon fill="white" stroke="transparent" points="104,-529 63,-529 63,-480 104,-480 104,-529"/>
<text text-anchor="start" x="68.5" y="-516.5" font-family="Helvetica,sans-Serif" font-size="10.00">Point2f</text>
<text text-anchor="start" x="82" y="-501.5" font-family="Helvetica,sans-Serif" font-size="10.00"> </text>
<text text-anchor="start" x="82" y="-486.5" font-family="Helvetica,sans-Serif" font-size="10.00"> </text>
<polygon fill="#666666" stroke="#666666" points="63.5,-511.5 63.5,-511.5 104.5,-511.5 104.5,-511.5 63.5,-511.5"/>
<polygon fill="#666666" stroke="#666666" points="63.5,-496.5 63.5,-496.5 104.5,-496.5 104.5,-496.5 63.5,-496.5"/>
<polygon fill="none" stroke="#666666" points="63,-480 63,-529 104,-529 104,-480 63,-480"/>
</a>
</g>
</g>
<!-- Node4&#45;&gt;Node2 -->
<g id="edge3_Node000002_Node000004" class="edge">
<title>Node4&#45;&gt;Node2</title>
<g id="a_edge3_Node000002_Node000004"><a xlink:title=" ">
<path fill="none" stroke="#63b8ff" d="M80.13,-479.73C78.36,-466.09 76.38,-448.62 75.5,-433 73.89,-404.6 72.7,-397.31 75.5,-369 77.33,-350.47 80.46,-330.8 83.99,-312.12"/>
<polygon fill="none" stroke="#63b8ff" points="83.99,-312.11 81.22,-305.45 86.3,-300.33 89.07,-306.99 83.99,-312.11"/>
</a>
</g>
<text text-anchor="middle" x="96" y="-398.5" font-family="Helvetica,sans-Serif" font-size="10.00" fill="grey"> #_center</text>
</g>
<!-- Node5 -->
<g id="Node000005" class="node">
<title>Node5</title>
<g id="a_Node000005"><a xlink:title=" ">
<polygon fill="white" stroke="transparent" points="247.5,-425.5 125.5,-425.5 125.5,-376.5 247.5,-376.5 247.5,-425.5"/>
<text text-anchor="start" x="130.5" y="-413" font-family="Helvetica,sans-Serif" font-size="10.00">std::vector&lt; cv::Point2f &gt;</text>
<text text-anchor="start" x="184.5" y="-398" font-family="Helvetica,sans-Serif" font-size="10.00"> </text>
<text text-anchor="start" x="184.5" y="-383" font-family="Helvetica,sans-Serif" font-size="10.00"> </text>
<polygon fill="#666666" stroke="#666666" points="125.5,-408 125.5,-408 247.5,-408 247.5,-408 125.5,-408"/>
<polygon fill="#666666" stroke="#666666" points="125.5,-393 125.5,-393 247.5,-393 247.5,-393 125.5,-393"/>
<polygon fill="none" stroke="#666666" points="125.5,-376.5 125.5,-425.5 247.5,-425.5 247.5,-376.5 125.5,-376.5"/>
</a>
</g>
</g>
<!-- Node4&#45;&gt;Node5 -->
<g id="edge5_Node000005_Node000004" class="edge">
<title>Node4&#45;&gt;Node5</title>
<g id="a_edge5_Node000005_Node000004"><a xlink:title=" ">
<path fill="none" stroke="#63b8ff" d="M102.97,-479.86C110.92,-470.59 120.37,-460.04 129.5,-451 135.36,-445.2 141.79,-439.28 148.16,-433.65"/>
<polygon fill="none" stroke="#63b8ff" points="148.31,-433.52 150.23,-426.57 157.38,-425.66 155.47,-432.61 148.31,-433.52"/>
</a>
</g>
<text text-anchor="middle" x="154" y="-454" font-family="Helvetica,sans-Serif" font-size="10.00" fill="grey"> +elements</text>
</g>
<!-- Node5&#45;&gt;Node2 -->
<g id="edge4_Node000002_Node000005" class="edge">
<title>Node5&#45;&gt;Node2</title>
<g id="a_edge4_Node000002_Node000005"><a xlink:title=" ">
<path fill="none" stroke="#63b8ff" d="M175.44,-376.26C165.99,-355.97 151.86,-325.65 138.7,-297.4"/>
<polygon fill="none" stroke="#63b8ff" points="138.59,-297.16 132.43,-293.41 133.52,-286.28 139.68,-290.03 138.59,-297.16"/>
</a>
</g>
<text text-anchor="middle" x="185.5" y="-332" font-family="Helvetica,sans-Serif" font-size="10.00" fill="grey"> #_corners</text>
</g>
<!-- Node6 -->
<g id="Node000006" class="node">
<title>Node6</title>
<g id="a_Node000006"><a xlink:title=" ">
<polygon fill="white" stroke="transparent" points="220,-529 139,-529 139,-480 220,-480 220,-529"/>
<text text-anchor="start" x="144.5" y="-516.5" font-family="Helvetica,sans-Serif" font-size="10.00">std::vector&lt; T &gt;</text>
<text text-anchor="start" x="178" y="-501.5" font-family="Helvetica,sans-Serif" font-size="10.00"> </text>
<text text-anchor="start" x="178" y="-486.5" font-family="Helvetica,sans-Serif" font-size="10.00"> </text>
<polygon fill="#666666" stroke="#666666" points="139.5,-511.5 139.5,-511.5 220.5,-511.5 220.5,-511.5 139.5,-511.5"/>
<polygon fill="#666666" stroke="#666666" points="139.5,-496.5 139.5,-496.5 220.5,-496.5 220.5,-496.5 139.5,-496.5"/>
<polygon fill="none" stroke="#666666" points="139,-480 139,-529 220,-529 220,-480 139,-480"/>
</a>
</g>
</g>
<!-- Node6&#45;&gt;Node5 -->
<g id="edge6_Node000005_Node000006" class="edge">
<title>Node6&#45;&gt;Node5</title>
<g id="a_edge6_Node000005_Node000006"><a xlink:title=" ">
<path fill="none" stroke="orange" d="M181.82,-469.89C182.81,-455.45 183.95,-438.9 184.86,-425.77"/>
<polygon fill="orange" stroke="orange" points="178.32,-469.74 181.12,-479.96 185.3,-470.22 178.32,-469.74"/>
</a>
</g>
<text text-anchor="middle" x="218" y="-454" font-family="Helvetica,sans-Serif" font-size="10.00" fill="grey"> &lt; cv::Point2f &gt;</text>
</g>
<!-- Node7 -->
<g id="Node000007" class="node">
<title>Node7</title>
<g id="a_Node000007"><a xlink:title=" ">
<polygon fill="white" stroke="transparent" points="188,-625 171,-625 171,-576 188,-576 188,-625"/>
<text text-anchor="start" x="176.5" y="-612.5" font-family="Helvetica,sans-Serif" font-size="10.00">T</text>
<text text-anchor="start" x="178" y="-597.5" font-family="Helvetica,sans-Serif" font-size="10.00"> </text>
<text text-anchor="start" x="178" y="-582.5" font-family="Helvetica,sans-Serif" font-size="10.00"> </text>
<polygon fill="#666666" stroke="#666666" points="171.5,-607.5 171.5,-607.5 188.5,-607.5 188.5,-607.5 171.5,-607.5"/>
<polygon fill="#666666" stroke="#666666" points="171.5,-592.5 171.5,-592.5 188.5,-592.5 188.5,-592.5 171.5,-592.5"/>
<polygon fill="none" stroke="#666666" points="171,-576 171,-625 188,-625 188,-576 171,-576"/>
</a>
</g>
</g>
<!-- Node7&#45;&gt;Node6 -->
<g id="edge7_Node000006_Node000007" class="edge">
<title>Node7&#45;&gt;Node6</title>
<g id="a_edge7_Node000006_Node000007"><a xlink:title=" ">
<path fill="none" stroke="#63b8ff" d="M179.5,-575.78C179.5,-565.32 179.5,-552.79 179.5,-541.23"/>
<polygon fill="none" stroke="#63b8ff" points="179.5,-541.21 175.5,-535.21 179.5,-529.21 183.5,-535.21 179.5,-541.21"/>
</a>
</g>
<text text-anchor="middle" x="204" y="-550" font-family="Helvetica,sans-Serif" font-size="10.00" fill="grey"> +elements</text>
</g>
<!-- Node8 -->
<g id="Node000008" class="node">
<title>Node8</title>
<g id="a_Node000008"><a xlink:href="../../d0/d01/structrm_1_1RMStatus.html" target="_top" xlink:title="状态类型">
<polygon fill="white" stroke="transparent" points="465.5,-433 393.5,-433 393.5,-369 465.5,-369 465.5,-433"/>
<text text-anchor="start" x="398.5" y="-421" font-family="Helvetica,sans-Serif" font-size="10.00">rm::RMStatus</text>
<text text-anchor="start" x="427.5" y="-406" font-family="Helvetica,sans-Serif" font-size="10.00"> </text>
<text text-anchor="start" x="399.5" y="-391" font-family="Helvetica,sans-Serif" font-size="10.00">+</text>
<text text-anchor="start" x="412.5" y="-391" font-family="Helvetica,sans-Serif" font-size="10.00">to_string()</text>
<text text-anchor="start" x="399.5" y="-376" font-family="Helvetica,sans-Serif" font-size="10.00">+</text>
<text text-anchor="start" x="412.5" y="-376" font-family="Helvetica,sans-Serif" font-size="10.00">to_string()</text>
<polygon fill="#666666" stroke="#666666" points="393.5,-416 393.5,-416 465.5,-416 465.5,-416 393.5,-416"/>
<polygon fill="#666666" stroke="#666666" points="393.5,-401 393.5,-401 465.5,-401 465.5,-401 393.5,-401"/>
<polygon fill="none" stroke="#666666" points="393.5,-369 393.5,-433 465.5,-433 465.5,-369 393.5,-369"/>
</a>
</g>
</g>
<!-- Node8&#45;&gt;Node2 -->
<g id="edge8_Node000002_Node000008" class="edge">
<title>Node8&#45;&gt;Node2</title>
<g id="a_edge8_Node000002_Node000008"><a xlink:title=" ">
<path fill="none" stroke="#63b8ff" d="M393.48,-380.49C332.21,-347.31 208.15,-280.13 144.36,-245.59"/>
<polygon fill="none" stroke="#63b8ff" points="144.1,-245.45 136.92,-246.11 133.55,-239.73 140.73,-239.07 144.1,-245.45"/>
</a>
</g>
<text text-anchor="middle" x="350" y="-332" font-family="Helvetica,sans-Serif" font-size="10.00" fill="grey"> #_type</text>
</g>
<!-- Node9 -->
<g id="Node000009" class="node">
<title>Node9</title>
<g id="a_Node000009"><a xlink:title=" ">
<polygon fill="white" stroke="transparent" points="315,-529 238,-529 238,-480 315,-480 315,-529"/>
<text text-anchor="start" x="243.5" y="-516.5" font-family="Helvetica,sans-Serif" font-size="10.00">ArmorSizeType</text>
<text text-anchor="start" x="275" y="-501.5" font-family="Helvetica,sans-Serif" font-size="10.00"> </text>
<text text-anchor="start" x="275" y="-486.5" font-family="Helvetica,sans-Serif" font-size="10.00"> </text>
<polygon fill="#666666" stroke="#666666" points="238.5,-511.5 238.5,-511.5 315.5,-511.5 315.5,-511.5 238.5,-511.5"/>
<polygon fill="#666666" stroke="#666666" points="238.5,-496.5 238.5,-496.5 315.5,-496.5 315.5,-496.5 238.5,-496.5"/>
<polygon fill="none" stroke="#666666" points="238,-480 238,-529 315,-529 315,-480 238,-480"/>
</a>
</g>
</g>
<!-- Node9&#45;&gt;Node8 -->
<g id="edge9_Node000008_Node000009" class="edge">
<title>Node9&#45;&gt;Node8</title>
<g id="a_edge9_Node000008_Node000009"><a xlink:title=" ">
<path fill="none" stroke="#63b8ff" d="M279.44,-479.94C281.78,-469.92 285.97,-458.78 293.5,-451 316.64,-427.09 352.28,-414.81 381.27,-408.52"/>
<polygon fill="none" stroke="#63b8ff" points="381.46,-408.48 386.58,-403.4 393.23,-406.17 388.12,-411.25 381.46,-408.48"/>
</a>
</g>
<text text-anchor="middle" x="337" y="-454" font-family="Helvetica,sans-Serif" font-size="10.00" fill="grey"> +ArmorSizeTypeID</text>
</g>
<!-- Node10 -->
<g id="Node000010" class="node">
<title>Node10</title>
<g id="a_Node000010"><a xlink:title=" ">
<polygon fill="white" stroke="transparent" points="413,-529 358,-529 358,-480 413,-480 413,-529"/>
<text text-anchor="start" x="363.5" y="-516.5" font-family="Helvetica,sans-Serif" font-size="10.00">RuneType</text>
<text text-anchor="start" x="384" y="-501.5" font-family="Helvetica,sans-Serif" font-size="10.00"> </text>
<text text-anchor="start" x="384" y="-486.5" font-family="Helvetica,sans-Serif" font-size="10.00"> </text>
<polygon fill="#666666" stroke="#666666" points="358.5,-511.5 358.5,-511.5 413.5,-511.5 413.5,-511.5 358.5,-511.5"/>
<polygon fill="#666666" stroke="#666666" points="358.5,-496.5 358.5,-496.5 413.5,-496.5 413.5,-496.5 358.5,-496.5"/>
<polygon fill="none" stroke="#666666" points="358,-480 358,-529 413,-529 413,-480 358,-480"/>
</a>
</g>
</g>
<!-- Node10&#45;&gt;Node8 -->
<g id="edge10_Node000008_Node000010" class="edge">
<title>Node10&#45;&gt;Node8</title>
<g id="a_edge10_Node000008_Node000010"><a xlink:title=" ">
<path fill="none" stroke="#63b8ff" d="M383.12,-479.82C383.02,-470.55 383.97,-460 387.5,-451 388.5,-448.46 389.68,-445.95 391.02,-443.51"/>
<polygon fill="none" stroke="#63b8ff" points="391.17,-443.27 391.04,-436.06 397.65,-433.18 397.77,-440.39 391.17,-443.27"/>
</a>
</g>
<text text-anchor="middle" x="419.5" y="-454" font-family="Helvetica,sans-Serif" font-size="10.00" fill="grey"> +RuneTypeID</text>
</g>
<!-- Node11 -->
<g id="Node000011" class="node">
<title>Node11</title>
<g id="a_Node000011"><a xlink:title=" ">
<polygon fill="white" stroke="transparent" points="518,-529 431,-529 431,-480 518,-480 518,-529"/>
<text text-anchor="start" x="436.5" y="-516.5" font-family="Helvetica,sans-Serif" font-size="10.00">CompensateType</text>
<text text-anchor="start" x="473" y="-501.5" font-family="Helvetica,sans-Serif" font-size="10.00"> </text>
<text text-anchor="start" x="473" y="-486.5" font-family="Helvetica,sans-Serif" font-size="10.00"> </text>
<polygon fill="#666666" stroke="#666666" points="431.5,-511.5 431.5,-511.5 518.5,-511.5 518.5,-511.5 431.5,-511.5"/>
<polygon fill="#666666" stroke="#666666" points="431.5,-496.5 431.5,-496.5 518.5,-496.5 518.5,-496.5 431.5,-496.5"/>
<polygon fill="none" stroke="#666666" points="431,-480 431,-529 518,-529 518,-480 431,-480"/>
</a>
</g>
</g>
<!-- Node11&#45;&gt;Node8 -->
<g id="edge11_Node000008_Node000011" class="edge">
<title>Node11&#45;&gt;Node8</title>
<g id="a_edge11_Node000008_Node000011"><a xlink:title=" ">
<path fill="none" stroke="#63b8ff" d="M464.24,-479.96C460.28,-470.9 455.7,-460.46 451.5,-451 450.5,-448.74 449.46,-446.41 448.42,-444.07"/>
<polygon fill="none" stroke="#63b8ff" points="448.41,-444.04 442.31,-440.2 443.51,-433.09 449.61,-436.93 448.41,-444.04"/>
</a>
</g>
<text text-anchor="middle" x="504" y="-454" font-family="Helvetica,sans-Serif" font-size="10.00" fill="grey"> +CompensateTypeID</text>
</g>
<!-- Node12 -->
<g id="Node000012" class="node">
<title>Node12</title>
<g id="a_Node000012"><a xlink:title=" ">
<polygon fill="white" stroke="transparent" points="622.5,-529 564.5,-529 564.5,-480 622.5,-480 622.5,-529"/>
<text text-anchor="start" x="569.5" y="-516.5" font-family="Helvetica,sans-Serif" font-size="10.00">RobotType</text>
<text text-anchor="start" x="591.5" y="-501.5" font-family="Helvetica,sans-Serif" font-size="10.00"> </text>
<text text-anchor="start" x="591.5" y="-486.5" font-family="Helvetica,sans-Serif" font-size="10.00"> </text>
<polygon fill="#666666" stroke="#666666" points="564.5,-511.5 564.5,-511.5 622.5,-511.5 622.5,-511.5 564.5,-511.5"/>
<polygon fill="#666666" stroke="#666666" points="564.5,-496.5 564.5,-496.5 622.5,-496.5 622.5,-496.5 564.5,-496.5"/>
<polygon fill="none" stroke="#666666" points="564.5,-480 564.5,-529 622.5,-529 622.5,-480 564.5,-480"/>
</a>
</g>
</g>
<!-- Node12&#45;&gt;Node8 -->
<g id="edge12_Node000008_Node000012" class="edge">
<title>Node12&#45;&gt;Node8</title>
<g id="a_edge12_Node000008_Node000012"><a xlink:title=" ">
<path fill="none" stroke="#63b8ff" d="M581.06,-479.91C574.81,-469.89 566.43,-458.75 556.5,-451 533.34,-432.93 502.72,-420.85 477.36,-413.21"/>
<polygon fill="none" stroke="#63b8ff" points="477.29,-413.19 470.43,-415.4 465.75,-409.91 472.61,-407.7 477.29,-413.19"/>
</a>
</g>
<text text-anchor="middle" x="601" y="-454" font-family="Helvetica,sans-Serif" font-size="10.00" fill="grey"> +RobotTypeID</text>
</g>
<!-- Node13 -->
<g id="Node000013" class="node">
<title>Node13</title>
<g id="a_Node000013"><a xlink:title=" ">
<polygon fill="white" stroke="transparent" points="707,-529 660,-529 660,-480 707,-480 707,-529"/>
<text text-anchor="start" x="665.5" y="-516.5" font-family="Helvetica,sans-Serif" font-size="10.00">TagType</text>
<text text-anchor="start" x="682" y="-501.5" font-family="Helvetica,sans-Serif" font-size="10.00"> </text>
<text text-anchor="start" x="682" y="-486.5" font-family="Helvetica,sans-Serif" font-size="10.00"> </text>
<polygon fill="#666666" stroke="#666666" points="660.5,-511.5 660.5,-511.5 707.5,-511.5 707.5,-511.5 660.5,-511.5"/>
<polygon fill="#666666" stroke="#666666" points="660.5,-496.5 660.5,-496.5 707.5,-496.5 707.5,-496.5 660.5,-496.5"/>
<polygon fill="none" stroke="#666666" points="660,-480 660,-529 707,-529 707,-480 660,-480"/>
</a>
</g>
</g>
<!-- Node13&#45;&gt;Node8 -->
<g id="edge13_Node000008_Node000013" class="edge">
<title>Node13&#45;&gt;Node8</title>
<g id="a_edge13_Node000008_Node000013"><a xlink:title=" ">
<path fill="none" stroke="#63b8ff" d="M668.32,-479.79C660.58,-469.49 650.3,-458.17 638.5,-451 588.98,-420.89 522.49,-409.28 477.93,-404.81"/>
<polygon fill="none" stroke="#63b8ff" points="477.65,-404.78 471.31,-408.22 465.7,-403.7 472.03,-400.26 477.65,-404.78"/>
</a>
</g>
<text text-anchor="middle" x="680" y="-454" font-family="Helvetica,sans-Serif" font-size="10.00" fill="grey"> +TagTypeID</text>
</g>
</g>
</svg>

<g id="navigator" transform="translate(0 0)" fill="#404254">
  <rect fill="#f2f5e9" fill-opacity="0.5" stroke="#606060" stroke-width=".5" x="0" y="0" width="60" height="60"/>
  <use id="zoomplus" xlink:href="#zoomPlus" x="17" y="9" onmousedown="handleZoom(evt,'in')"/>
  <use id="zoomminus" xlink:href="#zoomMin" x="42" y="9" onmousedown="handleZoom(evt,'out')"/>
  <use id="reset" xlink:href="#resetDef" x="30" y="36" onmousedown="handleReset()"/>
   <use id="arrowup" xlink:href="#arrowUp" x="0" y="0" onmousedown="handlePan(0,-1)"/>
  <use id="arrowright" xlink:href="#arrowRight" x="0" y="0" onmousedown="handlePan(1,0)"/>
  <use id="arrowdown" xlink:href="#arrowDown" x="0" y="0" onmousedown="handlePan(0,1)"/>
  <use id="arrowleft" xlink:href="#arrowLeft" x="0" y="0" onmousedown="handlePan(-1,0)"/>
</g>
<svg viewBox="0 0 15 15" width="100%" height="30px" preserveAspectRatio="xMaxYMin meet">
 <g id="arrow_out" transform="scale(0.3 0.3)">
  <a xlink:href="classrm_1_1Pilot__coll__graph_org.svg" target="_base">
   <rect id="button" ry="5" rx="5" y="6" x="6" height="38" width="38"
        fill="#f2f5e9" fill-opacity="0.5" stroke="#606060" stroke-width="1.0"/>
   <path id="arrow"
     d="M 11.500037,31.436501 C 11.940474,20.09759 22.043105,11.32322 32.158766,21.979434 L 37.068811,17.246167 C 37.068811,17.246167 37.088388,32 37.088388,32 L 22.160133,31.978069 C 22.160133,31.978069 26.997745,27.140456 26.997745,27.140456 C 18.528582,18.264221 13.291696,25.230495 11.500037,31.436501 z"
     style="fill:#404040;"/>
  </a>
 </g>
</svg>

<style type='text/css'>
<![CDATA[
[data-mouse-over-selected='false'] { opacity: 0.7; }
[data-mouse-over-selected='true']  { opacity: 1.0; }
]]>
</style>
<script type="application/ecmascript"><![CDATA[
document.addEventListener('DOMContentLoaded', (event) => {
  highlightEdges();
  highlightAdjacentNodes();
});
]]></script>
</svg>
