<?xml version="1.0" encoding="UTF-8" standalone="no"?>
<!DOCTYPE svg PUBLIC "-//W3C//DTD SVG 1.1//EN"
 "http://www.w3.org/Graphics/SVG/1.1/DTD/svg11.dtd">
<!-- Generated by graphviz version 2.43.0 (0)
 -->
<!-- Title: rm::feature Pages: 1 -->
<svg width="690pt" height="427pt"
 viewBox="0.00 0.00 690.00 427.00" xmlns="http://www.w3.org/2000/svg" xmlns:xlink="http://www.w3.org/1999/xlink">
<g id="graph0" class="graph" transform="scale(1 1) rotate(0) translate(4 423)">
<title>rm::feature</title>
<!-- Node1 -->
<g id="Node000001" class="node">
<title>Node1</title>
<g id="a_Node000001"><a xlink:title="图像中的轮廓特征">
<polygon fill="#999999" stroke="transparent" points="378,-419 313,-419 313,-175 378,-175 378,-419"/>
<text text-anchor="start" x="318.5" y="-407" font-family="Helvetica,sans-Serif" font-size="10.00">rm::feature</text>
<text text-anchor="start" x="317.5" y="-392" font-family="Helvetica,sans-Serif" font-size="10.00">#</text>
<text text-anchor="start" x="330.5" y="-392" font-family="Helvetica,sans-Serif" font-size="10.00">_width</text>
<text text-anchor="start" x="317.5" y="-377" font-family="Helvetica,sans-Serif" font-size="10.00">#</text>
<text text-anchor="start" x="330.5" y="-377" font-family="Helvetica,sans-Serif" font-size="10.00">_height</text>
<text text-anchor="start" x="317.5" y="-362" font-family="Helvetica,sans-Serif" font-size="10.00">#</text>
<text text-anchor="start" x="330.5" y="-362" font-family="Helvetica,sans-Serif" font-size="10.00">_angle</text>
<text text-anchor="start" x="317.5" y="-347" font-family="Helvetica,sans-Serif" font-size="10.00">#</text>
<text text-anchor="start" x="330.5" y="-347" font-family="Helvetica,sans-Serif" font-size="10.00">_center</text>
<text text-anchor="start" x="317.5" y="-332" font-family="Helvetica,sans-Serif" font-size="10.00">#</text>
<text text-anchor="start" x="330.5" y="-332" font-family="Helvetica,sans-Serif" font-size="10.00">_corners</text>
<text text-anchor="start" x="317.5" y="-317" font-family="Helvetica,sans-Serif" font-size="10.00">#</text>
<text text-anchor="start" x="330.5" y="-317" font-family="Helvetica,sans-Serif" font-size="10.00">_state</text>
<text text-anchor="start" x="317.5" y="-302" font-family="Helvetica,sans-Serif" font-size="10.00">+</text>
<text text-anchor="start" x="330.5" y="-302" font-family="Helvetica,sans-Serif" font-size="10.00">clone()</text>
<text text-anchor="start" x="317.5" y="-287" font-family="Helvetica,sans-Serif" font-size="10.00">+</text>
<text text-anchor="start" x="330.5" y="-287" font-family="Helvetica,sans-Serif" font-size="10.00">area()</text>
<text text-anchor="start" x="317.5" y="-272" font-family="Helvetica,sans-Serif" font-size="10.00">+</text>
<text text-anchor="start" x="330.5" y="-272" font-family="Helvetica,sans-Serif" font-size="10.00">center()</text>
<text text-anchor="start" x="317.5" y="-257" font-family="Helvetica,sans-Serif" font-size="10.00">+</text>
<text text-anchor="start" x="330.5" y="-257" font-family="Helvetica,sans-Serif" font-size="10.00">width()</text>
<text text-anchor="start" x="317.5" y="-242" font-family="Helvetica,sans-Serif" font-size="10.00">+</text>
<text text-anchor="start" x="330.5" y="-242" font-family="Helvetica,sans-Serif" font-size="10.00">height()</text>
<text text-anchor="start" x="317.5" y="-227" font-family="Helvetica,sans-Serif" font-size="10.00">+</text>
<text text-anchor="start" x="330.5" y="-227" font-family="Helvetica,sans-Serif" font-size="10.00">angle()</text>
<text text-anchor="start" x="317.5" y="-212" font-family="Helvetica,sans-Serif" font-size="10.00">+</text>
<text text-anchor="start" x="330.5" y="-212" font-family="Helvetica,sans-Serif" font-size="10.00">corners()</text>
<text text-anchor="start" x="317.5" y="-197" font-family="Helvetica,sans-Serif" font-size="10.00">+</text>
<text text-anchor="start" x="330.5" y="-197" font-family="Helvetica,sans-Serif" font-size="10.00">state()</text>
<text text-anchor="start" x="317.5" y="-182" font-family="Helvetica,sans-Serif" font-size="10.00">+</text>
<text text-anchor="start" x="330.5" y="-182" font-family="Helvetica,sans-Serif" font-size="10.00">state()</text>
<polygon fill="#666666" stroke="#666666" points="313.5,-402 313.5,-402 378.5,-402 378.5,-402 313.5,-402"/>
<polygon fill="#666666" stroke="#666666" points="313.5,-312 313.5,-312 328.5,-312 328.5,-312 313.5,-312"/>
<polygon fill="#666666" stroke="#666666" points="328.5,-312 328.5,-312 378.5,-312 378.5,-312 328.5,-312"/>
<polygon fill="none" stroke="#666666" points="313,-175 313,-419 378,-419 378,-175 313,-175"/>
</a>
</g>
</g>
<!-- Node2 -->
<g id="Node000002" class="node">
<title>Node2</title>
<g id="a_Node000002"><a xlink:href="../../d0/d1a/classrm_1_1Anchor.html" target="_top" xlink:title="定位点特征，具有以下状态类型">
<polygon fill="white" stroke="transparent" points="97,-116.5 0,-116.5 0,-22.5 97,-22.5 97,-116.5"/>
<text text-anchor="start" x="22" y="-104.5" font-family="Helvetica,sans-Serif" font-size="10.00">rm::Anchor</text>
<text text-anchor="start" x="47" y="-89.5" font-family="Helvetica,sans-Serif" font-size="10.00"> </text>
<text text-anchor="start" x="4.5" y="-74.5" font-family="Helvetica,sans-Serif" font-size="10.00">+</text>
<text text-anchor="start" x="17.5" y="-74.5" font-family="Helvetica,sans-Serif" font-size="10.00">clone()</text>
<text text-anchor="start" x="4.5" y="-59.5" font-family="Helvetica,sans-Serif" font-size="10.00">+</text>
<text text-anchor="start" x="17.5" y="-59.5" font-family="Helvetica,sans-Serif" font-size="10.00">make_feature()</text>
<text text-anchor="start" x="4.5" y="-44.5" font-family="Helvetica,sans-Serif" font-size="10.00">+</text>
<text text-anchor="start" x="17.5" y="-44.5" font-family="Helvetica,sans-Serif" font-size="10.00">to_string()</text>
<text text-anchor="start" x="4.5" y="-29.5" font-family="Helvetica,sans-Serif" font-size="10.00">+</text>
<text text-anchor="start" x="17.5" y="-29.5" font-family="Helvetica,sans-Serif" font-size="10.00">from_string()</text>
<polygon fill="#666666" stroke="#666666" points="0.5,-99.5 0.5,-99.5 97.5,-99.5 97.5,-99.5 0.5,-99.5"/>
<polygon fill="#666666" stroke="#666666" points="0.5,-84.5 0.5,-84.5 97.5,-84.5 97.5,-84.5 0.5,-84.5"/>
<polygon fill="none" stroke="#666666" points="0,-22.5 0,-116.5 97,-116.5 97,-22.5 0,-22.5"/>
</a>
</g>
</g>
<!-- Node1&#45;&gt;Node2 -->
<g id="edge1_Node000001_Node000002" class="edge">
<title>Node1&#45;&gt;Node2</title>
<g id="a_edge1_Node000001_Node000002"><a xlink:title=" ">
<path fill="none" stroke="#63b8ff" d="M304.03,-273.65C254.27,-245.78 169.66,-194.92 106.5,-139 98.92,-132.29 91.45,-124.56 84.52,-116.78"/>
<polygon fill="none" stroke="#63b8ff" points="302.46,-276.79 312.9,-278.59 305.87,-270.67 302.46,-276.79"/>
</a>
</g>
</g>
<!-- Node3 -->
<g id="Node000003" class="node">
<title>Node3</title>
<g id="a_Node000003"><a xlink:href="../../d0/df8/classrm_1_1LightBlob.html" target="_top" xlink:title="装甲板灯条">
<polygon fill="white" stroke="transparent" points="221.5,-139 115.5,-139 115.5,0 221.5,0 221.5,-139"/>
<text text-anchor="start" x="135.5" y="-126.5" font-family="Helvetica,sans-Serif" font-size="10.00">rm::LightBlob</text>
<text text-anchor="start" x="166.5" y="-111.5" font-family="Helvetica,sans-Serif" font-size="10.00"> </text>
<text text-anchor="start" x="119.5" y="-96.5" font-family="Helvetica,sans-Serif" font-size="10.00">+</text>
<text text-anchor="start" x="132.5" y="-96.5" font-family="Helvetica,sans-Serif" font-size="10.00">getTopPoint()</text>
<text text-anchor="start" x="119.5" y="-81.5" font-family="Helvetica,sans-Serif" font-size="10.00">+</text>
<text text-anchor="start" x="132.5" y="-81.5" font-family="Helvetica,sans-Serif" font-size="10.00">getBottomPoint()</text>
<text text-anchor="start" x="119.5" y="-66.5" font-family="Helvetica,sans-Serif" font-size="10.00">+</text>
<text text-anchor="start" x="132.5" y="-66.5" font-family="Helvetica,sans-Serif" font-size="10.00">clone()</text>
<text text-anchor="start" x="119.5" y="-51.5" font-family="Helvetica,sans-Serif" font-size="10.00">+</text>
<text text-anchor="start" x="132.5" y="-51.5" font-family="Helvetica,sans-Serif" font-size="10.00">make_feature()</text>
<text text-anchor="start" x="119.5" y="-36.5" font-family="Helvetica,sans-Serif" font-size="10.00">+</text>
<text text-anchor="start" x="132.5" y="-36.5" font-family="Helvetica,sans-Serif" font-size="10.00">make_feature()</text>
<text text-anchor="start" x="119.5" y="-21.5" font-family="Helvetica,sans-Serif" font-size="10.00">+</text>
<text text-anchor="start" x="132.5" y="-21.5" font-family="Helvetica,sans-Serif" font-size="10.00">cast()</text>
<text text-anchor="start" x="119.5" y="-6.5" font-family="Helvetica,sans-Serif" font-size="10.00">+</text>
<text text-anchor="start" x="132.5" y="-6.5" font-family="Helvetica,sans-Serif" font-size="10.00">cast()</text>
<polygon fill="#666666" stroke="#666666" points="115.5,-121.5 115.5,-121.5 221.5,-121.5 221.5,-121.5 115.5,-121.5"/>
<polygon fill="#666666" stroke="#666666" points="115.5,-106.5 115.5,-106.5 221.5,-106.5 221.5,-106.5 115.5,-106.5"/>
<polygon fill="none" stroke="#666666" points="115.5,0 115.5,-139 221.5,-139 221.5,0 115.5,0"/>
</a>
</g>
</g>
<!-- Node1&#45;&gt;Node3 -->
<g id="edge2_Node000001_Node000003" class="edge">
<title>Node1&#45;&gt;Node3</title>
<g id="a_edge2_Node000001_Node000003"><a xlink:title=" ">
<path fill="none" stroke="#63b8ff" d="M306.36,-246.13C281.51,-214.48 249.03,-173.09 221.83,-138.45"/>
<polygon fill="none" stroke="#63b8ff" points="303.9,-248.67 312.83,-254.38 309.41,-244.35 303.9,-248.67"/>
</a>
</g>
</g>
<!-- Node4 -->
<g id="Node000004" class="node">
<title>Node4</title>
<g id="a_Node000004"><a xlink:href="../../de/d9a/classrm_1_1Pilot.html" target="_top" xlink:title="前哨、基地的引导灯">
<polygon fill="white" stroke="transparent" points="337,-124 240,-124 240,-15 337,-15 337,-124"/>
<text text-anchor="start" x="268" y="-111.5" font-family="Helvetica,sans-Serif" font-size="10.00">rm::Pilot</text>
<text text-anchor="start" x="287" y="-96.5" font-family="Helvetica,sans-Serif" font-size="10.00"> </text>
<text text-anchor="start" x="244.5" y="-81.5" font-family="Helvetica,sans-Serif" font-size="10.00">+</text>
<text text-anchor="start" x="257.5" y="-81.5" font-family="Helvetica,sans-Serif" font-size="10.00">clone()</text>
<text text-anchor="start" x="244.5" y="-66.5" font-family="Helvetica,sans-Serif" font-size="10.00">+</text>
<text text-anchor="start" x="257.5" y="-66.5" font-family="Helvetica,sans-Serif" font-size="10.00">make_feature()</text>
<text text-anchor="start" x="244.5" y="-51.5" font-family="Helvetica,sans-Serif" font-size="10.00">+</text>
<text text-anchor="start" x="257.5" y="-51.5" font-family="Helvetica,sans-Serif" font-size="10.00">make_feature()</text>
<text text-anchor="start" x="244.5" y="-36.5" font-family="Helvetica,sans-Serif" font-size="10.00">+</text>
<text text-anchor="start" x="257.5" y="-36.5" font-family="Helvetica,sans-Serif" font-size="10.00">cast()</text>
<text text-anchor="start" x="244.5" y="-21.5" font-family="Helvetica,sans-Serif" font-size="10.00">+</text>
<text text-anchor="start" x="257.5" y="-21.5" font-family="Helvetica,sans-Serif" font-size="10.00">cast()</text>
<polygon fill="#666666" stroke="#666666" points="240.5,-106.5 240.5,-106.5 337.5,-106.5 337.5,-106.5 240.5,-106.5"/>
<polygon fill="#666666" stroke="#666666" points="240.5,-91.5 240.5,-91.5 337.5,-91.5 337.5,-91.5 240.5,-91.5"/>
<polygon fill="none" stroke="#666666" points="240,-15 240,-124 337,-124 337,-15 240,-15"/>
</a>
</g>
</g>
<!-- Node1&#45;&gt;Node4 -->
<g id="edge3_Node000001_Node000004" class="edge">
<title>Node1&#45;&gt;Node4</title>
<g id="a_edge3_Node000001_Node000004"><a xlink:title=" ">
<path fill="none" stroke="#63b8ff" d="M312.38,-164.99C308.75,-150.61 305.22,-136.64 302.03,-124.04"/>
<polygon fill="none" stroke="#63b8ff" points="309.07,-166.16 314.91,-175 315.86,-164.45 309.07,-166.16"/>
</a>
</g>
</g>
<!-- Node5 -->
<g id="Node000005" class="node">
<title>Node5</title>
<g id="a_Node000005"><a xlink:href="../../da/d40/classrm_1_1RuneCenter.html" target="_top" xlink:title="神符中心特征">
<polygon fill="white" stroke="transparent" points="452,-124 355,-124 355,-15 452,-15 452,-124"/>
<text text-anchor="start" x="365.5" y="-111.5" font-family="Helvetica,sans-Serif" font-size="10.00">rm::RuneCenter</text>
<text text-anchor="start" x="402" y="-96.5" font-family="Helvetica,sans-Serif" font-size="10.00"> </text>
<text text-anchor="start" x="359.5" y="-81.5" font-family="Helvetica,sans-Serif" font-size="10.00">+</text>
<text text-anchor="start" x="372.5" y="-81.5" font-family="Helvetica,sans-Serif" font-size="10.00">clone()</text>
<text text-anchor="start" x="359.5" y="-66.5" font-family="Helvetica,sans-Serif" font-size="10.00">+</text>
<text text-anchor="start" x="372.5" y="-66.5" font-family="Helvetica,sans-Serif" font-size="10.00">make_feature()</text>
<text text-anchor="start" x="359.5" y="-51.5" font-family="Helvetica,sans-Serif" font-size="10.00">+</text>
<text text-anchor="start" x="372.5" y="-51.5" font-family="Helvetica,sans-Serif" font-size="10.00">make_feature()</text>
<text text-anchor="start" x="359.5" y="-36.5" font-family="Helvetica,sans-Serif" font-size="10.00">+</text>
<text text-anchor="start" x="372.5" y="-36.5" font-family="Helvetica,sans-Serif" font-size="10.00">cast()</text>
<text text-anchor="start" x="359.5" y="-21.5" font-family="Helvetica,sans-Serif" font-size="10.00">+</text>
<text text-anchor="start" x="372.5" y="-21.5" font-family="Helvetica,sans-Serif" font-size="10.00">cast()</text>
<polygon fill="#666666" stroke="#666666" points="355.5,-106.5 355.5,-106.5 452.5,-106.5 452.5,-106.5 355.5,-106.5"/>
<polygon fill="#666666" stroke="#666666" points="355.5,-91.5 355.5,-91.5 452.5,-91.5 452.5,-91.5 355.5,-91.5"/>
<polygon fill="none" stroke="#666666" points="355,-15 355,-124 452,-124 452,-15 355,-15"/>
</a>
</g>
</g>
<!-- Node1&#45;&gt;Node5 -->
<g id="edge4_Node000001_Node000005" class="edge">
<title>Node1&#45;&gt;Node5</title>
<g id="a_edge4_Node000001_Node000005"><a xlink:title=" ">
<path fill="none" stroke="#63b8ff" d="M379.2,-164.99C382.9,-150.61 386.49,-136.64 389.73,-124.04"/>
<polygon fill="none" stroke="#63b8ff" points="375.72,-164.44 376.62,-175 382.5,-166.19 375.72,-164.44"/>
</a>
</g>
</g>
<!-- Node6 -->
<g id="Node000006" class="node">
<title>Node6</title>
<g id="a_Node000006"><a xlink:href="../../db/d77/classrm_1_1RuneTarget.html" target="_top" xlink:title="神符靶心特征">
<polygon fill="white" stroke="transparent" points="567,-139 470,-139 470,0 567,0 567,-139"/>
<text text-anchor="start" x="481.5" y="-126.5" font-family="Helvetica,sans-Serif" font-size="10.00">rm::RuneTarget</text>
<text text-anchor="start" x="517" y="-111.5" font-family="Helvetica,sans-Serif" font-size="10.00"> </text>
<text text-anchor="start" x="474.5" y="-96.5" font-family="Helvetica,sans-Serif" font-size="10.00">+</text>
<text text-anchor="start" x="487.5" y="-96.5" font-family="Helvetica,sans-Serif" font-size="10.00">clone()</text>
<text text-anchor="start" x="474.5" y="-81.5" font-family="Helvetica,sans-Serif" font-size="10.00">+</text>
<text text-anchor="start" x="487.5" y="-81.5" font-family="Helvetica,sans-Serif" font-size="10.00">isActive()</text>
<text text-anchor="start" x="474.5" y="-66.5" font-family="Helvetica,sans-Serif" font-size="10.00">+</text>
<text text-anchor="start" x="487.5" y="-66.5" font-family="Helvetica,sans-Serif" font-size="10.00">getRadius()</text>
<text text-anchor="start" x="474.5" y="-51.5" font-family="Helvetica,sans-Serif" font-size="10.00">+</text>
<text text-anchor="start" x="487.5" y="-51.5" font-family="Helvetica,sans-Serif" font-size="10.00">make_feature()</text>
<text text-anchor="start" x="474.5" y="-36.5" font-family="Helvetica,sans-Serif" font-size="10.00">+</text>
<text text-anchor="start" x="487.5" y="-36.5" font-family="Helvetica,sans-Serif" font-size="10.00">make_feature()</text>
<text text-anchor="start" x="474.5" y="-21.5" font-family="Helvetica,sans-Serif" font-size="10.00">+</text>
<text text-anchor="start" x="487.5" y="-21.5" font-family="Helvetica,sans-Serif" font-size="10.00">cast()</text>
<text text-anchor="start" x="474.5" y="-6.5" font-family="Helvetica,sans-Serif" font-size="10.00">+</text>
<text text-anchor="start" x="487.5" y="-6.5" font-family="Helvetica,sans-Serif" font-size="10.00">cast()</text>
<polygon fill="#666666" stroke="#666666" points="470.5,-121.5 470.5,-121.5 567.5,-121.5 567.5,-121.5 470.5,-121.5"/>
<polygon fill="#666666" stroke="#666666" points="470.5,-106.5 470.5,-106.5 567.5,-106.5 567.5,-106.5 470.5,-106.5"/>
<polygon fill="none" stroke="#666666" points="470,0 470,-139 567,-139 567,0 470,0"/>
</a>
</g>
</g>
<!-- Node1&#45;&gt;Node6 -->
<g id="edge5_Node000001_Node000006" class="edge">
<title>Node1&#45;&gt;Node6</title>
<g id="a_edge5_Node000001_Node000006"><a xlink:title=" ">
<path fill="none" stroke="#63b8ff" d="M384.28,-245.45C409.54,-212.52 442.71,-169.29 469.75,-134.05"/>
<polygon fill="none" stroke="#63b8ff" points="381.35,-243.52 378.04,-253.59 386.9,-247.78 381.35,-243.52"/>
</a>
</g>
</g>
<!-- Node7 -->
<g id="Node000007" class="node">
<title>Node7</title>
<g id="a_Node000007"><a xlink:href="../../de/d29/classrm_1_1Tag.html" target="_top" xlink:title="AprilTag 视觉标签特征类">
<polygon fill="white" stroke="transparent" points="682,-124 585,-124 585,-15 682,-15 682,-124"/>
<text text-anchor="start" x="615.5" y="-111.5" font-family="Helvetica,sans-Serif" font-size="10.00">rm::Tag</text>
<text text-anchor="start" x="632" y="-96.5" font-family="Helvetica,sans-Serif" font-size="10.00"> </text>
<text text-anchor="start" x="589.5" y="-81.5" font-family="Helvetica,sans-Serif" font-size="10.00">+</text>
<text text-anchor="start" x="602.5" y="-81.5" font-family="Helvetica,sans-Serif" font-size="10.00">type()</text>
<text text-anchor="start" x="589.5" y="-66.5" font-family="Helvetica,sans-Serif" font-size="10.00">+</text>
<text text-anchor="start" x="602.5" y="-66.5" font-family="Helvetica,sans-Serif" font-size="10.00">clone()</text>
<text text-anchor="start" x="589.5" y="-51.5" font-family="Helvetica,sans-Serif" font-size="10.00">+</text>
<text text-anchor="start" x="602.5" y="-51.5" font-family="Helvetica,sans-Serif" font-size="10.00">make_feature()</text>
<text text-anchor="start" x="589.5" y="-36.5" font-family="Helvetica,sans-Serif" font-size="10.00">+</text>
<text text-anchor="start" x="602.5" y="-36.5" font-family="Helvetica,sans-Serif" font-size="10.00">cast()</text>
<text text-anchor="start" x="589.5" y="-21.5" font-family="Helvetica,sans-Serif" font-size="10.00">+</text>
<text text-anchor="start" x="602.5" y="-21.5" font-family="Helvetica,sans-Serif" font-size="10.00">cast()</text>
<polygon fill="#666666" stroke="#666666" points="585.5,-106.5 585.5,-106.5 682.5,-106.5 682.5,-106.5 585.5,-106.5"/>
<polygon fill="#666666" stroke="#666666" points="585.5,-91.5 585.5,-91.5 682.5,-91.5 682.5,-91.5 585.5,-91.5"/>
<polygon fill="none" stroke="#666666" points="585,-15 585,-124 682,-124 682,-15 585,-15"/>
</a>
</g>
</g>
<!-- Node1&#45;&gt;Node7 -->
<g id="edge6_Node000001_Node000007" class="edge">
<title>Node1&#45;&gt;Node7</title>
<g id="a_edge6_Node000001_Node000007"><a xlink:title=" ">
<path fill="none" stroke="#63b8ff" d="M387.1,-272.59C435.38,-244.35 516.11,-193.79 576.5,-139 581.54,-134.43 586.53,-129.4 591.34,-124.21"/>
<polygon fill="none" stroke="#63b8ff" points="385.07,-269.72 378.18,-277.76 388.58,-275.77 385.07,-269.72"/>
</a>
</g>
</g>
</g>
</svg>
