<?xml version="1.0" encoding="UTF-8" standalone="no"?>
<!DOCTYPE svg PUBLIC "-//W3C//DTD SVG 1.1//EN"
 "http://www.w3.org/Graphics/SVG/1.1/DTD/svg11.dtd">
<!-- Generated by graphviz version 2.43.0 (0)
 -->
<!-- Title: rm::RungeKutta4 Pages: 1 -->
<svg width="463pt" height="695pt"
 viewBox="0.00 0.00 463.00 695.00" xmlns="http://www.w3.org/2000/svg" xmlns:xlink="http://www.w3.org/1999/xlink">
<g id="graph0" class="graph" transform="scale(1 1) rotate(0) translate(4 691)">
<title>rm::RungeKutta4</title>
<!-- Node1 -->
<g id="Node000001" class="node">
<title>Node1</title>
<g id="a_Node000001"><a xlink:title="4 阶 4 级 Runge&#45;Kutta 求解器">
<polygon fill="#999999" stroke="transparent" points="384.5,-49 299.5,-49 299.5,0 384.5,0 384.5,-49"/>
<text text-anchor="start" x="305" y="-36.5" font-family="Helvetica,sans-Serif" font-size="10.00">rm::RungeKutta4</text>
<text text-anchor="start" x="340.5" y="-21.5" font-family="Helvetica,sans-Serif" font-size="10.00"> </text>
<text text-anchor="start" x="304.5" y="-6.5" font-family="Helvetica,sans-Serif" font-size="10.00">+</text>
<text text-anchor="start" x="316" y="-6.5" font-family="Helvetica,sans-Serif" font-size="10.00">RungeKutta4()</text>
<polygon fill="#666666" stroke="#666666" points="300,-31.5 300,-31.5 385,-31.5 385,-31.5 300,-31.5"/>
<polygon fill="#666666" stroke="#666666" points="300,-16.5 300,-16.5 385,-16.5 385,-16.5 300,-16.5"/>
<polygon fill="none" stroke="#666666" points="299.5,0 299.5,-49 384.5,-49 384.5,0 299.5,0"/>
</a>
</g>
</g>
<!-- Node2 -->
<g id="Node000002" class="node">
<title>Node2</title>
<g id="a_Node000002"><a xlink:href="../../d5/d26/classrm_1_1RungeKutta.html" target="_top" xlink:title="Butcher 表形式的常微分方程（组）数值求解器">
<polygon fill="white" stroke="transparent" points="382,-195 302,-195 302,-86 382,-86 382,-195"/>
<text text-anchor="start" x="307" y="-182.5" font-family="Helvetica,sans-Serif" font-size="10.00">rm::RungeKutta</text>
<text text-anchor="start" x="340" y="-167.5" font-family="Helvetica,sans-Serif" font-size="10.00"> </text>
<text text-anchor="start" x="306.5" y="-152.5" font-family="Helvetica,sans-Serif" font-size="10.00">+</text>
<text text-anchor="start" x="318" y="-152.5" font-family="Helvetica,sans-Serif" font-size="10.00">RungeKutta()</text>
<text text-anchor="start" x="306.5" y="-137.5" font-family="Helvetica,sans-Serif" font-size="10.00">+</text>
<text text-anchor="start" x="318" y="-137.5" font-family="Helvetica,sans-Serif" font-size="10.00">init()</text>
<text text-anchor="start" x="306.5" y="-122.5" font-family="Helvetica,sans-Serif" font-size="10.00">+</text>
<text text-anchor="start" x="318" y="-122.5" font-family="Helvetica,sans-Serif" font-size="10.00">init()</text>
<text text-anchor="start" x="306.5" y="-107.5" font-family="Helvetica,sans-Serif" font-size="10.00">+</text>
<text text-anchor="start" x="318" y="-107.5" font-family="Helvetica,sans-Serif" font-size="10.00">solve()</text>
<text text-anchor="start" x="306.5" y="-92.5" font-family="Helvetica,sans-Serif" font-size="10.00">+</text>
<text text-anchor="start" x="318" y="-92.5" font-family="Helvetica,sans-Serif" font-size="10.00">generate()</text>
<polygon fill="#666666" stroke="#666666" points="302,-177.5 302,-177.5 382,-177.5 382,-177.5 302,-177.5"/>
<polygon fill="#666666" stroke="#666666" points="302,-162.5 302,-162.5 382,-162.5 382,-162.5 302,-162.5"/>
<polygon fill="none" stroke="#666666" points="302,-86 302,-195 382,-195 382,-86 302,-86"/>
</a>
</g>
</g>
<!-- Node2&#45;&gt;Node1 -->
<g id="edge1_Node000001_Node000002" class="edge">
<title>Node2&#45;&gt;Node1</title>
<g id="a_edge1_Node000001_Node000002"><a xlink:title=" ">
<path fill="none" stroke="#63b8ff" d="M342,-75.83C342,-66.28 342,-56.97 342,-49.02"/>
<polygon fill="none" stroke="#63b8ff" points="338.5,-75.84 342,-85.84 345.5,-75.84 338.5,-75.84"/>
</a>
</g>
</g>
<!-- Node3 -->
<g id="Node000003" class="node">
<title>Node3</title>
<g id="a_Node000003"><a xlink:title=" ">
<polygon fill="white" stroke="transparent" points="126,-406 0,-406 0,-320 126,-320 126,-406"/>
<text text-anchor="start" x="5" y="-394" font-family="Helvetica,sans-Serif" font-size="10.00">std::vector&lt; std::function</text>
<text text-anchor="start" x="5" y="-383" font-family="Helvetica,sans-Serif" font-size="10.00">&lt; double(double, const std</text>
<text text-anchor="start" x="5.5" y="-372" font-family="Helvetica,sans-Serif" font-size="10.00">::valarray&lt; double &gt; &amp;)&gt; &gt;</text>
<text text-anchor="start" x="20.5" y="-357" font-family="Helvetica,sans-Serif" font-size="10.00">+</text>
<text text-anchor="start" x="48" y="-357" font-family="Helvetica,sans-Serif" font-size="10.00">elements</text>
<text text-anchor="start" x="20.5" y="-342" font-family="Helvetica,sans-Serif" font-size="10.00">+</text>
<text text-anchor="start" x="48" y="-342" font-family="Helvetica,sans-Serif" font-size="10.00">elements</text>
<text text-anchor="start" x="61" y="-327" font-family="Helvetica,sans-Serif" font-size="10.00"> </text>
<polygon fill="#666666" stroke="#666666" points="0,-367 0,-367 126,-367 126,-367 0,-367"/>
<polygon fill="#666666" stroke="#666666" points="0,-337 0,-337 46,-337 46,-337 0,-337"/>
<polygon fill="#666666" stroke="#666666" points="46,-337 46,-337 126,-337 126,-337 46,-337"/>
<polygon fill="none" stroke="#666666" points="0,-320 0,-406 126,-406 126,-320 0,-320"/>
</a>
</g>
</g>
<!-- Node3&#45;&gt;Node2 -->
<g id="edge2_Node000002_Node000003" class="edge">
<title>Node3&#45;&gt;Node2</title>
<g id="a_edge2_Node000002_Node000003"><a xlink:title=" ">
<path fill="none" stroke="#63b8ff" d="M103.97,-319.82C128.08,-295.9 159.7,-266.04 190,-242 222.37,-216.32 261.27,-190.69 291.62,-171.74"/>
<polygon fill="none" stroke="#63b8ff" points="291.77,-171.64 294.76,-165.08 301.97,-165.32 298.97,-171.88 291.77,-171.64"/>
</a>
</g>
<text text-anchor="middle" x="201" y="-269.5" font-family="Helvetica,sans-Serif" font-size="10.00" fill="grey"> #_fs</text>
</g>
<!-- Node4 -->
<g id="Node000004" class="node">
<title>Node4</title>
<g id="a_Node000004"><a xlink:title=" ">
<polygon fill="white" stroke="transparent" points="91.5,-591 10.5,-591 10.5,-542 91.5,-542 91.5,-591"/>
<text text-anchor="start" x="16" y="-578.5" font-family="Helvetica,sans-Serif" font-size="10.00">std::vector&lt; T &gt;</text>
<text text-anchor="start" x="49.5" y="-563.5" font-family="Helvetica,sans-Serif" font-size="10.00"> </text>
<text text-anchor="start" x="49.5" y="-548.5" font-family="Helvetica,sans-Serif" font-size="10.00"> </text>
<polygon fill="#666666" stroke="#666666" points="11,-573.5 11,-573.5 92,-573.5 92,-573.5 11,-573.5"/>
<polygon fill="#666666" stroke="#666666" points="11,-558.5 11,-558.5 92,-558.5 92,-558.5 11,-558.5"/>
<polygon fill="none" stroke="#666666" points="10.5,-542 10.5,-591 91.5,-591 91.5,-542 10.5,-542"/>
</a>
</g>
</g>
<!-- Node4&#45;&gt;Node3 -->
<g id="edge3_Node000003_Node000004" class="edge">
<title>Node4&#45;&gt;Node3</title>
<g id="a_edge3_Node000003_Node000004"><a xlink:title=" ">
<path fill="none" stroke="orange" d="M37.82,-532.1C37.09,-529.39 36.47,-526.67 36,-524 29,-484.04 38.42,-438.41 48,-406.13"/>
<polygon fill="orange" stroke="orange" points="34.51,-533.24 40.82,-541.75 41.19,-531.16 34.51,-533.24"/>
</a>
</g>
<text text-anchor="start" x="36" y="-516" font-family="Helvetica,sans-Serif" font-size="10.00" fill="grey"> &lt; std::function&lt; double</text>
<text text-anchor="start" x="36" y="-505" font-family="Helvetica,sans-Serif" font-size="10.00" fill="grey">(double, const std::valarray</text>
<text text-anchor="middle" x="95.5" y="-494" font-family="Helvetica,sans-Serif" font-size="10.00" fill="grey">&lt; double &gt; &amp;)&gt; &gt;</text>
</g>
<!-- Node5 -->
<g id="Node000005" class="node">
<title>Node5</title>
<g id="a_Node000005"><a xlink:title=" ">
<polygon fill="white" stroke="transparent" points="110.5,-687 93.5,-687 93.5,-638 110.5,-638 110.5,-687"/>
<text text-anchor="start" x="99" y="-674.5" font-family="Helvetica,sans-Serif" font-size="10.00">T</text>
<text text-anchor="start" x="100.5" y="-659.5" font-family="Helvetica,sans-Serif" font-size="10.00"> </text>
<text text-anchor="start" x="100.5" y="-644.5" font-family="Helvetica,sans-Serif" font-size="10.00"> </text>
<polygon fill="#666666" stroke="#666666" points="94,-669.5 94,-669.5 111,-669.5 111,-669.5 94,-669.5"/>
<polygon fill="#666666" stroke="#666666" points="94,-654.5 94,-654.5 111,-654.5 111,-654.5 94,-654.5"/>
<polygon fill="none" stroke="#666666" points="93.5,-638 93.5,-687 110.5,-687 110.5,-638 93.5,-638"/>
</a>
</g>
</g>
<!-- Node5&#45;&gt;Node4 -->
<g id="edge4_Node000004_Node000005" class="edge">
<title>Node5&#45;&gt;Node4</title>
<g id="a_edge4_Node000004_Node000005"><a xlink:title=" ">
<path fill="none" stroke="#63b8ff" d="M93.48,-649.44C87.9,-641.32 80.63,-630.24 75,-620 71.91,-614.38 68.87,-608.29 66.04,-602.32"/>
<polygon fill="none" stroke="#63b8ff" points="65.91,-602.03 59.77,-598.25 60.91,-591.13 67.04,-594.91 65.91,-602.03"/>
</a>
</g>
<text text-anchor="middle" x="99.5" y="-612" font-family="Helvetica,sans-Serif" font-size="10.00" fill="grey"> +elements</text>
</g>
<!-- Node8 -->
<g id="Node000008" class="node">
<title>Node8</title>
<g id="a_Node000008"><a xlink:title=" ">
<polygon fill="white" stroke="transparent" points="213.5,-591 124.5,-591 124.5,-542 213.5,-542 213.5,-591"/>
<text text-anchor="start" x="130" y="-578.5" font-family="Helvetica,sans-Serif" font-size="10.00">std::valarray&lt; T &gt;</text>
<text text-anchor="start" x="167.5" y="-563.5" font-family="Helvetica,sans-Serif" font-size="10.00"> </text>
<text text-anchor="start" x="167.5" y="-548.5" font-family="Helvetica,sans-Serif" font-size="10.00"> </text>
<polygon fill="#666666" stroke="#666666" points="125,-573.5 125,-573.5 214,-573.5 214,-573.5 125,-573.5"/>
<polygon fill="#666666" stroke="#666666" points="125,-558.5 125,-558.5 214,-558.5 214,-558.5 125,-558.5"/>
<polygon fill="none" stroke="#666666" points="124.5,-542 124.5,-591 213.5,-591 213.5,-542 124.5,-542"/>
</a>
</g>
</g>
<!-- Node5&#45;&gt;Node8 -->
<g id="edge9_Node000008_Node000005" class="edge">
<title>Node5&#45;&gt;Node8</title>
<g id="a_edge9_Node000008_Node000005"><a xlink:title=" ">
<path fill="none" stroke="#63b8ff" d="M110.76,-649.21C119.4,-637.09 132.99,-618.02 144.87,-601.35"/>
<polygon fill="none" stroke="#63b8ff" points="145.02,-601.14 145.25,-593.93 151.99,-591.37 151.76,-598.58 145.02,-601.14"/>
</a>
</g>
<text text-anchor="middle" x="162.5" y="-612" font-family="Helvetica,sans-Serif" font-size="10.00" fill="grey"> +elements</text>
</g>
<!-- Node6 -->
<g id="Node000006" class="node">
<title>Node6</title>
<g id="a_Node000006"><a xlink:title=" ">
<polygon fill="white" stroke="transparent" points="431.5,-591 392.5,-591 392.5,-542 431.5,-542 431.5,-591"/>
<text text-anchor="start" x="398" y="-578.5" font-family="Helvetica,sans-Serif" font-size="10.00">double</text>
<text text-anchor="start" x="410.5" y="-563.5" font-family="Helvetica,sans-Serif" font-size="10.00"> </text>
<text text-anchor="start" x="410.5" y="-548.5" font-family="Helvetica,sans-Serif" font-size="10.00"> </text>
<polygon fill="#666666" stroke="#666666" points="393,-573.5 393,-573.5 432,-573.5 432,-573.5 393,-573.5"/>
<polygon fill="#666666" stroke="#666666" points="393,-558.5 393,-558.5 432,-558.5 432,-558.5 393,-558.5"/>
<polygon fill="none" stroke="#666666" points="392.5,-542 392.5,-591 431.5,-591 431.5,-542 392.5,-542"/>
</a>
</g>
</g>
<!-- Node6&#45;&gt;Node2 -->
<g id="edge5_Node000002_Node000006" class="edge">
<title>Node6&#45;&gt;Node2</title>
<g id="a_edge5_Node000002_Node000006"><a xlink:title=" ">
<path fill="none" stroke="#63b8ff" d="M427.8,-541.79C430.77,-536.18 433.43,-530.06 435,-524 438.67,-509.8 435.65,-505.65 435,-491 430.02,-379.59 441.68,-346.96 404,-242 399.6,-229.74 393.56,-217.37 386.97,-205.71"/>
<polygon fill="none" stroke="#63b8ff" points="386.88,-205.56 380.39,-202.42 380.8,-195.22 387.29,-198.36 386.88,-205.56"/>
</a>
</g>
<text text-anchor="middle" x="444" y="-360.5" font-family="Helvetica,sans-Serif" font-size="10.00" fill="grey"> #_t0</text>
</g>
<!-- Node7 -->
<g id="Node000007" class="node">
<title>Node7</title>
<g id="a_Node000007"><a xlink:title=" ">
<polygon fill="white" stroke="transparent" points="420.5,-473 309.5,-473 309.5,-424 420.5,-424 420.5,-473"/>
<text text-anchor="start" x="315" y="-460.5" font-family="Helvetica,sans-Serif" font-size="10.00">std::valarray&lt; double &gt;</text>
<text text-anchor="start" x="363.5" y="-445.5" font-family="Helvetica,sans-Serif" font-size="10.00"> </text>
<text text-anchor="start" x="363.5" y="-430.5" font-family="Helvetica,sans-Serif" font-size="10.00"> </text>
<polygon fill="#666666" stroke="#666666" points="310,-455.5 310,-455.5 421,-455.5 421,-455.5 310,-455.5"/>
<polygon fill="#666666" stroke="#666666" points="310,-440.5 310,-440.5 421,-440.5 421,-440.5 310,-440.5"/>
<polygon fill="none" stroke="#666666" points="309.5,-424 309.5,-473 420.5,-473 420.5,-424 309.5,-424"/>
</a>
</g>
</g>
<!-- Node6&#45;&gt;Node7 -->
<g id="edge7_Node000007_Node000006" class="edge">
<title>Node6&#45;&gt;Node7</title>
<g id="a_edge7_Node000007_Node000006"><a xlink:title=" ">
<path fill="none" stroke="#63b8ff" d="M395.4,-541.56C391.97,-535.96 388.62,-529.91 386,-524 380.57,-511.75 376.18,-497.73 372.85,-485.19"/>
<polygon fill="none" stroke="#63b8ff" points="372.78,-484.9 367.44,-480.04 369.87,-473.25 375.2,-478.1 372.78,-484.9"/>
</a>
</g>
<text text-anchor="middle" x="410.5" y="-505" font-family="Helvetica,sans-Serif" font-size="10.00" fill="grey"> +elements</text>
</g>
<!-- Node7&#45;&gt;Node2 -->
<g id="edge6_Node000002_Node000007" class="edge">
<title>Node7&#45;&gt;Node2</title>
<g id="a_edge6_Node000002_Node000007"><a xlink:title=" ">
<path fill="none" stroke="#63b8ff" d="M363.23,-424C359.79,-378.21 352.08,-275.61 346.96,-207.48"/>
<polygon fill="none" stroke="#63b8ff" points="346.93,-207.15 342.5,-201.47 346.04,-195.18 350.47,-200.87 346.93,-207.15"/>
</a>
</g>
<text text-anchor="middle" x="377" y="-280.5" font-family="Helvetica,sans-Serif" font-size="10.00" fill="grey"> #_lambda</text>
<text text-anchor="middle" x="377" y="-269.5" font-family="Helvetica,sans-Serif" font-size="10.00" fill="grey">#_p</text>
<text text-anchor="middle" x="377" y="-258.5" font-family="Helvetica,sans-Serif" font-size="10.00" fill="grey">#_x0</text>
</g>
<!-- Node9 -->
<g id="Node000009" class="node">
<title>Node9</title>
<g id="a_Node000009"><a xlink:title=" ">
<polygon fill="white" stroke="transparent" points="328.5,-302 221.5,-302 221.5,-242 328.5,-242 328.5,-302"/>
<text text-anchor="start" x="227" y="-290" font-family="Helvetica,sans-Serif" font-size="10.00">std::valarray&lt; std</text>
<text text-anchor="start" x="227" y="-279" font-family="Helvetica,sans-Serif" font-size="10.00">::valarray&lt; double &gt; &gt;</text>
<text text-anchor="start" x="273.5" y="-264" font-family="Helvetica,sans-Serif" font-size="10.00"> </text>
<text text-anchor="start" x="273.5" y="-249" font-family="Helvetica,sans-Serif" font-size="10.00"> </text>
<polygon fill="#666666" stroke="#666666" points="222,-274 222,-274 329,-274 329,-274 222,-274"/>
<polygon fill="#666666" stroke="#666666" points="222,-259 222,-259 329,-259 329,-259 222,-259"/>
<polygon fill="none" stroke="#666666" points="221.5,-242 221.5,-302 328.5,-302 328.5,-242 221.5,-242"/>
</a>
</g>
</g>
<!-- Node7&#45;&gt;Node9 -->
<g id="edge11_Node000009_Node000007" class="edge">
<title>Node7&#45;&gt;Node9</title>
<g id="a_edge11_Node000009_Node000007"><a xlink:title=" ">
<path fill="none" stroke="#63b8ff" d="M319.45,-423.96C312.78,-418.82 306.62,-412.84 302,-406 283.75,-379 277.34,-342.35 275.3,-314.36"/>
<polygon fill="none" stroke="#63b8ff" points="275.29,-314.16 270.98,-308.38 274.65,-302.17 278.96,-307.95 275.29,-314.16"/>
</a>
</g>
<text text-anchor="middle" x="326.5" y="-360.5" font-family="Helvetica,sans-Serif" font-size="10.00" fill="grey"> +elements</text>
</g>
<!-- Node8&#45;&gt;Node7 -->
<g id="edge8_Node000007_Node000008" class="edge">
<title>Node8&#45;&gt;Node7</title>
<g id="a_edge8_Node000007_Node000008"><a xlink:title=" ">
<path fill="none" stroke="orange" d="M217.76,-536.64C250.91,-517.02 294.2,-491.4 325.25,-473.02"/>
<polygon fill="orange" stroke="orange" points="215.96,-533.64 209.14,-541.75 219.52,-539.66 215.96,-533.64"/>
</a>
</g>
<text text-anchor="middle" x="316" y="-505" font-family="Helvetica,sans-Serif" font-size="10.00" fill="grey"> &lt; double &gt;</text>
</g>
<!-- Node8&#45;&gt;Node9 -->
<g id="edge12_Node000009_Node000008" class="edge">
<title>Node8&#45;&gt;Node9</title>
<g id="a_edge12_Node000009_Node000008"><a xlink:title=" ">
<path fill="none" stroke="orange" d="M166.46,-531.67C165.35,-502.43 166.37,-459.41 178,-424 193.31,-377.37 226.5,-330.97 249.77,-302.15"/>
<polygon fill="orange" stroke="orange" points="162.97,-531.96 166.94,-541.78 169.96,-531.63 162.97,-531.96"/>
</a>
</g>
<text text-anchor="middle" x="239" y="-446" font-family="Helvetica,sans-Serif" font-size="10.00" fill="grey"> &lt; std::valarray&lt; double &gt; &gt;</text>
</g>
<!-- Node9&#45;&gt;Node2 -->
<g id="edge10_Node000002_Node000009" class="edge">
<title>Node9&#45;&gt;Node2</title>
<g id="a_edge10_Node000002_Node000009"><a xlink:title=" ">
<path fill="none" stroke="#63b8ff" d="M290.04,-241.94C295.56,-231.27 302.05,-218.72 308.54,-206.17"/>
<polygon fill="none" stroke="#63b8ff" points="308.71,-205.85 307.91,-198.68 314.22,-195.19 315.02,-202.36 308.71,-205.85"/>
</a>
</g>
<text text-anchor="middle" x="313.5" y="-216" font-family="Helvetica,sans-Serif" font-size="10.00" fill="grey"> #_r</text>
</g>
</g>
</svg>
