<?xml version="1.0" encoding="UTF-8" standalone="no"?>
<!DOCTYPE svg PUBLIC "-//W3C//DTD SVG 1.1//EN"
 "http://www.w3.org/Graphics/SVG/1.1/DTD/svg11.dtd">
<!-- Generated by graphviz version 2.43.0 (0)
 -->
<!-- Title: rm::para::TranslationDeciderParam Pages: 1 -->
<svg width="208pt" height="194pt"
 viewBox="0.00 0.00 208.00 194.00" xmlns="http://www.w3.org/2000/svg" xmlns:xlink="http://www.w3.org/1999/xlink">
<g id="graph0" class="graph" transform="scale(1 1) rotate(0) translate(4 190)">
<title>rm::para::TranslationDeciderParam</title>
<!-- Node1 -->
<g id="Node000001" class="node">
<title>Node1</title>
<g id="a_Node000001"><a xlink:title="TranslationDeciderParam 参数模块">
<polygon fill="#999999" stroke="transparent" points="136,-90 0,-90 0,0 136,0 136,-90"/>
<text text-anchor="start" x="6" y="-78" font-family="Helvetica,sans-Serif" font-size="10.00">rm::para::TranslationDecider</text>
<text text-anchor="start" x="53.5" y="-67" font-family="Helvetica,sans-Serif" font-size="10.00">Param</text>
<text text-anchor="start" x="66" y="-52" font-family="Helvetica,sans-Serif" font-size="10.00"> </text>
<text text-anchor="start" x="4" y="-37" font-family="Helvetica,sans-Serif" font-size="10.00">+</text>
<text text-anchor="start" x="15" y="-37" font-family="Helvetica,sans-Serif" font-size="10.00">TranslationDeciderParam()</text>
<text text-anchor="start" x="4" y="-22" font-family="Helvetica,sans-Serif" font-size="10.00">+</text>
<text text-anchor="start" x="15" y="-22" font-family="Helvetica,sans-Serif" font-size="10.00">read()</text>
<text text-anchor="start" x="4" y="-7" font-family="Helvetica,sans-Serif" font-size="10.00">+</text>
<text text-anchor="start" x="15" y="-7" font-family="Helvetica,sans-Serif" font-size="10.00">write()</text>
<polygon fill="#666666" stroke="#666666" points="0,-62 0,-62 136,-62 136,-62 0,-62"/>
<polygon fill="#666666" stroke="#666666" points="0,-47 0,-47 136,-47 136,-47 0,-47"/>
<polygon fill="none" stroke="#666666" points="0,0 0,-90 136,-90 136,0 0,0"/>
</a>
</g>
</g>
<!-- Node2 -->
<g id="Node000002" class="node">
<title>Node2</title>
<g id="a_Node000002"><a xlink:title=" ">
<polygon fill="white" stroke="transparent" points="82.5,-186 53.5,-186 53.5,-137 82.5,-137 82.5,-186"/>
<text text-anchor="start" x="59" y="-173.5" font-family="Helvetica,sans-Serif" font-size="10.00">float</text>
<text text-anchor="start" x="66.5" y="-158.5" font-family="Helvetica,sans-Serif" font-size="10.00"> </text>
<text text-anchor="start" x="66.5" y="-143.5" font-family="Helvetica,sans-Serif" font-size="10.00"> </text>
<polygon fill="#666666" stroke="#666666" points="54,-168.5 54,-168.5 83,-168.5 83,-168.5 54,-168.5"/>
<polygon fill="#666666" stroke="#666666" points="54,-153.5 54,-153.5 83,-153.5 83,-153.5 54,-153.5"/>
<polygon fill="none" stroke="#666666" points="53.5,-137 53.5,-186 82.5,-186 82.5,-137 53.5,-137"/>
</a>
</g>
</g>
<!-- Node2&#45;&gt;Node1 -->
<g id="edge1_Node000001_Node000002" class="edge">
<title>Node2&#45;&gt;Node1</title>
<g id="a_edge1_Node000001_Node000002"><a xlink:title=" ">
<path fill="none" stroke="#63b8ff" d="M68,-136.78C68,-126.66 68,-114.38 68,-102.16"/>
<polygon fill="none" stroke="#63b8ff" points="68,-102.06 64,-96.06 68,-90.06 72,-96.06 68,-102.06"/>
</a>
</g>
<text text-anchor="middle" x="134" y="-111" font-family="Helvetica,sans-Serif" font-size="10.00" fill="grey"> +NORMAL_RADIUS_RATIO</text>
</g>
</g>
</svg>
