<?xml version="1.0" encoding="UTF-8" standalone="no"?>
<!DOCTYPE svg PUBLIC "-//W3C//DTD SVG 1.1//EN"
 "http://www.w3.org/Graphics/SVG/1.1/DTD/svg11.dtd">
<!-- Generated by graphviz version 2.43.0 (0)
 -->
<!-- Title: rm::async::Acceptor::AcceptAwaiter Pages: 1 -->
<svg width="152pt" height="357pt"
 viewBox="0.00 0.00 152.00 357.00" xmlns="http://www.w3.org/2000/svg" xmlns:xlink="http://www.w3.org/1999/xlink">
<g id="graph0" class="graph" transform="scale(1 1) rotate(0) translate(4 353)">
<title>rm::async::Acceptor::AcceptAwaiter</title>
<!-- Node1 -->
<g id="Node000001" class="node">
<title>Node1</title>
<g id="a_Node000001"><a xlink:title="接受等待器">
<polygon fill="#999999" stroke="transparent" points="121.5,-60 22.5,-60 22.5,0 121.5,0 121.5,-60"/>
<text text-anchor="start" x="28" y="-48" font-family="Helvetica,sans-Serif" font-size="10.00">rm::async::Acceptor</text>
<text text-anchor="start" x="37.5" y="-37" font-family="Helvetica,sans-Serif" font-size="10.00">::AcceptAwaiter</text>
<text text-anchor="start" x="70.5" y="-22" font-family="Helvetica,sans-Serif" font-size="10.00"> </text>
<text text-anchor="start" x="29.5" y="-7" font-family="Helvetica,sans-Serif" font-size="10.00">+</text>
<text text-anchor="start" x="43" y="-7" font-family="Helvetica,sans-Serif" font-size="10.00">AcceptAwaiter()</text>
<polygon fill="#666666" stroke="#666666" points="23,-32 23,-32 122,-32 122,-32 23,-32"/>
<polygon fill="#666666" stroke="#666666" points="23,-17 23,-17 122,-17 122,-17 23,-17"/>
<polygon fill="none" stroke="#666666" points="22.5,0 22.5,-60 121.5,-60 121.5,0 22.5,0"/>
</a>
</g>
</g>
<!-- Node2 -->
<g id="Node000002" class="node">
<title>Node2</title>
<g id="a_Node000002"><a xlink:href="../../df/df7/classrm_1_1async_1_1AsyncReadAwaiter.html" target="_top" xlink:title="通用异步读等待器，核心操作使用文件 I/O 系统调用的 read、ReadFile，使用者可以通过">
<polygon fill="white" stroke="transparent" points="144,-146 0,-146 0,-97 144,-97 144,-146"/>
<text text-anchor="start" x="5" y="-133.5" font-family="Helvetica,sans-Serif" font-size="10.00">rm::async::AsyncReadAwaiter</text>
<text text-anchor="start" x="70" y="-118.5" font-family="Helvetica,sans-Serif" font-size="10.00"> </text>
<text text-anchor="start" x="12.5" y="-103.5" font-family="Helvetica,sans-Serif" font-size="10.00">+</text>
<text text-anchor="start" x="32" y="-103.5" font-family="Helvetica,sans-Serif" font-size="10.00">AsyncReadAwaiter()</text>
<polygon fill="#666666" stroke="#666666" points="0,-128.5 0,-128.5 144,-128.5 144,-128.5 0,-128.5"/>
<polygon fill="#666666" stroke="#666666" points="0,-113.5 0,-113.5 144,-113.5 144,-113.5 0,-113.5"/>
<polygon fill="none" stroke="#666666" points="0,-97 0,-146 144,-146 144,-97 0,-97"/>
</a>
</g>
</g>
<!-- Node2&#45;&gt;Node1 -->
<g id="edge1_Node000001_Node000002" class="edge">
<title>Node2&#45;&gt;Node1</title>
<g id="a_edge1_Node000001_Node000002"><a xlink:title=" ">
<path fill="none" stroke="#63b8ff" d="M72,-86.7C72,-77.95 72,-68.6 72,-60.12"/>
<polygon fill="none" stroke="#63b8ff" points="68.5,-86.98 72,-96.98 75.5,-86.98 68.5,-86.98"/>
</a>
</g>
</g>
<!-- Node3 -->
<g id="Node000003" class="node">
<title>Node3</title>
<g id="a_Node000003"><a xlink:href="../../d6/d17/classrm_1_1async_1_1AsyncIOAwaiter.html" target="_top" xlink:title="IO 事件异步等待器">
<polygon fill="white" stroke="transparent" points="137.5,-232 6.5,-232 6.5,-183 137.5,-183 137.5,-232"/>
<text text-anchor="start" x="12" y="-219.5" font-family="Helvetica,sans-Serif" font-size="10.00">rm::async::AsyncIOAwaiter</text>
<text text-anchor="start" x="70.5" y="-204.5" font-family="Helvetica,sans-Serif" font-size="10.00"> </text>
<text text-anchor="start" x="19.5" y="-189.5" font-family="Helvetica,sans-Serif" font-size="10.00">+</text>
<text text-anchor="start" x="39" y="-189.5" font-family="Helvetica,sans-Serif" font-size="10.00">AsyncIOAwaiter()</text>
<polygon fill="#666666" stroke="#666666" points="7,-214.5 7,-214.5 138,-214.5 138,-214.5 7,-214.5"/>
<polygon fill="#666666" stroke="#666666" points="7,-199.5 7,-199.5 138,-199.5 138,-199.5 7,-199.5"/>
<polygon fill="none" stroke="#666666" points="6.5,-183 6.5,-232 137.5,-232 137.5,-183 6.5,-183"/>
</a>
</g>
</g>
<!-- Node3&#45;&gt;Node2 -->
<g id="edge2_Node000002_Node000003" class="edge">
<title>Node3&#45;&gt;Node2</title>
<g id="a_edge2_Node000002_Node000003"><a xlink:title=" ">
<path fill="none" stroke="#63b8ff" d="M72,-172.57C72,-163.69 72,-154.32 72,-146.12"/>
<polygon fill="none" stroke="#63b8ff" points="68.5,-172.65 72,-182.65 75.5,-172.65 68.5,-172.65"/>
</a>
</g>
</g>
<!-- Node4 -->
<g id="Node000004" class="node">
<title>Node4</title>
<g id="a_Node000004"><a xlink:title=" ">
<polygon fill="white" stroke="transparent" points="82.5,-349 61.5,-349 61.5,-300 82.5,-300 82.5,-349"/>
<text text-anchor="start" x="67" y="-336.5" font-family="Helvetica,sans-Serif" font-size="10.00">int</text>
<text text-anchor="start" x="70.5" y="-321.5" font-family="Helvetica,sans-Serif" font-size="10.00"> </text>
<text text-anchor="start" x="70.5" y="-306.5" font-family="Helvetica,sans-Serif" font-size="10.00"> </text>
<polygon fill="#666666" stroke="#666666" points="62,-331.5 62,-331.5 83,-331.5 83,-331.5 62,-331.5"/>
<polygon fill="#666666" stroke="#666666" points="62,-316.5 62,-316.5 83,-316.5 83,-316.5 62,-316.5"/>
<polygon fill="none" stroke="#666666" points="61.5,-300 61.5,-349 82.5,-349 82.5,-300 61.5,-300"/>
</a>
</g>
</g>
<!-- Node4&#45;&gt;Node3 -->
<g id="edge3_Node000003_Node000004" class="edge">
<title>Node4&#45;&gt;Node3</title>
<g id="a_edge3_Node000003_Node000004"><a xlink:title=" ">
<path fill="none" stroke="#63b8ff" d="M72,-299.95C72,-283.9 72,-262.36 72,-244.22"/>
<polygon fill="none" stroke="#63b8ff" points="72,-244.02 68,-238.02 72,-232.02 76,-238.02 72,-244.02"/>
</a>
</g>
<text text-anchor="start" x="75.5" y="-271" font-family="Helvetica,sans-Serif" font-size="10.00" fill="grey">#_aioh</text>
<text text-anchor="start" x="75.5" y="-256" font-family="Helvetica,sans-Serif" font-size="10.00" fill="grey">#_fd</text>
</g>
</g>
</svg>
