<?xml version="1.0" encoding="UTF-8" standalone="no"?>
<!DOCTYPE svg PUBLIC "-//W3C//DTD SVG 1.1//EN"
 "http://www.w3.org/Graphics/SVG/1.1/DTD/svg11.dtd">
<!-- Generated by graphviz version 2.43.0 (0)
 -->
<!-- Title: rm::msg::CameraInfo Pages: 1 -->
<!--zoomable 434 -->

<svg id="main" version="1.1" xmlns="http://www.w3.org/2000/svg" xmlns:xlink="http://www.w3.org/1999/xlink" xml:space="preserve" onload="init(evt)">

<style type="text/css"><![CDATA[
.node, .edge {opacity: 0.7;}
.node.selected, .edge.selected {opacity: 1;}
.edge:hover path { stroke: red; }
.edge:hover polygon { stroke: red; fill: red; }
]]></style>

<defs>
  <circle id="rim" cx="0" cy="0" r="7"/>
  <circle id="rim2" cx="0" cy="0" r="3.5"/>
  <g id="zoomPlus">
    <use xlink:href="#rim" fill="#404040"><set attributeName="fill" to="#808080" begin="zoomplus.mouseover" end="zoomplus.mouseout"/></use>
    <path d="M-4,0h8M0,-4v8" fill="none" stroke="white" stroke-width="1.5" pointer-events="none"/>
  </g>
  <g id="zoomMin">
    <use xlink:href="#rim" fill="#404040"><set attributeName="fill" to="#808080" begin="zoomminus.mouseover" end="zoomminus.mouseout"/></use>
    <path d="M-4,0h8" fill="none" stroke="white" stroke-width="1.5" pointer-events="none"/>
  </g>
  <g id="arrowUp" transform="translate(30 24)">
    <use xlink:href="#rim"/>
    <path pointer-events="none" fill="none" stroke="white" stroke-width="1.5" d="M0,-3.0v7 M-2.5,-0.5L0,-3.0L2.5,-0.5"/>
  </g>
  <g id="arrowRight" transform="rotate(90) translate(36 -43)">
    <use xlink:href="#rim"/>
    <path pointer-events="none" fill="none" stroke="white" stroke-width="1.5" d="M0,-3.0v7 M-2.5,-0.5L0,-3.0L2.5,-0.5"/>
  </g>
  <g id="arrowDown" transform="rotate(180) translate(-30 -48)">
    <use xlink:href="#rim"/>
    <path pointer-events="none" fill="none" stroke="white" stroke-width="1.5" d="M0,-3.0v7 M-2.5,-0.5L0,-3.0L2.5,-0.5"/>
  </g>
  <g id="arrowLeft" transform="rotate(270) translate(-36 17)">
    <use xlink:href="#rim"/>
    <path pointer-events="none" fill="none" stroke="white" stroke-width="1.5" d="M0,-3.0v7 M-2.5,-0.5L0,-3.0L2.5,-0.5"/>
  </g>
  <g id="resetDef">
    <use xlink:href="#rim2" fill="#404040"><set attributeName="fill" to="#808080" begin="reset.mouseover" end="reset.mouseout"/></use>
  </g>
</defs>
<script type="application/ecmascript">
var viewWidth = 666;
var viewHeight = 434;
var sectionId = 'dynsection-0';
</script>
<script type="application/ecmascript" xlink:href="../../svg.min.js"/>
<svg id="graph" class="graph">
<g id="viewport">
<title>rm::msg::CameraInfo</title>
<!-- Node1 -->
<g id="Node000001" class="node">
<title>Node1</title>
<g id="a_Node000001"><a xlink:title="CameraInfo 消息类型：sensor/CameraInfo">
<polygon fill="#999999" stroke="transparent" points="356.5,-79 252.5,-79 252.5,0 356.5,0 356.5,-79"/>
<text text-anchor="start" x="257.5" y="-66.5" font-family="Helvetica,sans-Serif" font-size="10.00">rm::msg::CameraInfo</text>
<text text-anchor="start" x="302.5" y="-51.5" font-family="Helvetica,sans-Serif" font-size="10.00"> </text>
<text text-anchor="start" x="261" y="-36.5" font-family="Helvetica,sans-Serif" font-size="10.00">+</text>
<text text-anchor="start" x="276.5" y="-36.5" font-family="Helvetica,sans-Serif" font-size="10.00">serialize()</text>
<text text-anchor="start" x="261" y="-21.5" font-family="Helvetica,sans-Serif" font-size="10.00">+</text>
<text text-anchor="start" x="276.5" y="-21.5" font-family="Helvetica,sans-Serif" font-size="10.00">compact_size()</text>
<text text-anchor="start" x="261" y="-6.5" font-family="Helvetica,sans-Serif" font-size="10.00">+</text>
<text text-anchor="start" x="276.5" y="-6.5" font-family="Helvetica,sans-Serif" font-size="10.00">deserialize()</text>
<polygon fill="#666666" stroke="#666666" points="252.5,-61.5 252.5,-61.5 356.5,-61.5 356.5,-61.5 252.5,-61.5"/>
<polygon fill="#666666" stroke="#666666" points="252.5,-46.5 252.5,-46.5 356.5,-46.5 356.5,-46.5 252.5,-46.5"/>
<polygon fill="none" stroke="#666666" points="252.5,0 252.5,-79 356.5,-79 356.5,0 252.5,0"/>
</a>
</g>
</g>
<!-- Node2 -->
<g id="Node000002" class="node">
<title>Node2</title>
<g id="a_Node000002"><a xlink:href="../../de/de3/classrm_1_1msg_1_1Header.html" target="_top" xlink:title="Header 消息类型：std/Header">
<polygon fill="white" stroke="transparent" points="214.5,-211 128.5,-211 128.5,-132 214.5,-132 214.5,-211"/>
<text text-anchor="start" x="134.5" y="-198.5" font-family="Helvetica,sans-Serif" font-size="10.00">rm::msg::Header</text>
<text text-anchor="start" x="169.5" y="-183.5" font-family="Helvetica,sans-Serif" font-size="10.00"> </text>
<text text-anchor="start" x="132.5" y="-168.5" font-family="Helvetica,sans-Serif" font-size="10.00">+</text>
<text text-anchor="start" x="143.5" y="-168.5" font-family="Helvetica,sans-Serif" font-size="10.00">serialize()</text>
<text text-anchor="start" x="132.5" y="-153.5" font-family="Helvetica,sans-Serif" font-size="10.00">+</text>
<text text-anchor="start" x="143.5" y="-153.5" font-family="Helvetica,sans-Serif" font-size="10.00">compact_size()</text>
<text text-anchor="start" x="132.5" y="-138.5" font-family="Helvetica,sans-Serif" font-size="10.00">+</text>
<text text-anchor="start" x="143.5" y="-138.5" font-family="Helvetica,sans-Serif" font-size="10.00">deserialize()</text>
<polygon fill="#666666" stroke="#666666" points="128.5,-193.5 128.5,-193.5 214.5,-193.5 214.5,-193.5 128.5,-193.5"/>
<polygon fill="#666666" stroke="#666666" points="128.5,-178.5 128.5,-178.5 214.5,-178.5 214.5,-178.5 128.5,-178.5"/>
<polygon fill="none" stroke="#666666" points="128.5,-132 128.5,-211 214.5,-211 214.5,-132 128.5,-132"/>
</a>
</g>
</g>
<!-- Node2&#45;&gt;Node1 -->
<g id="edge1_Node000001_Node000002" class="edge">
<title>Node2&#45;&gt;Node1</title>
<g id="a_edge1_Node000001_Node000002"><a xlink:title=" ">
<path fill="none" stroke="#63b8ff" d="M211.04,-131.85C225.12,-118.09 241.14,-102.43 255.89,-88.02"/>
<polygon fill="none" stroke="#63b8ff" points="256.3,-87.62 257.79,-80.56 264.88,-79.23 263.38,-86.28 256.3,-87.62"/>
</a>
</g>
<text text-anchor="start" x="249.5" y="-102.5" font-family="Helvetica,sans-Serif" font-size="10.00" fill="grey">+header</text>
</g>
<!-- Node3 -->
<g id="Node000003" class="node">
<title>Node3</title>
<g id="a_Node000003"><a xlink:title=" ">
<polygon fill="white" stroke="transparent" points="45,-313 0,-313 0,-264 45,-264 45,-313"/>
<text text-anchor="start" x="5.5" y="-300.5" font-family="Helvetica,sans-Serif" font-size="10.00">uint32_t</text>
<text text-anchor="start" x="21" y="-285.5" font-family="Helvetica,sans-Serif" font-size="10.00"> </text>
<text text-anchor="start" x="21" y="-270.5" font-family="Helvetica,sans-Serif" font-size="10.00"> </text>
<polygon fill="#666666" stroke="#666666" points="0.5,-295.5 0.5,-295.5 45.5,-295.5 45.5,-295.5 0.5,-295.5"/>
<polygon fill="#666666" stroke="#666666" points="0.5,-280.5 0.5,-280.5 45.5,-280.5 45.5,-280.5 0.5,-280.5"/>
<polygon fill="none" stroke="#666666" points="0,-264 0,-313 45,-313 45,-264 0,-264"/>
</a>
</g>
</g>
<!-- Node3&#45;&gt;Node1 -->
<g id="edge7_Node000001_Node000003" class="edge">
<title>Node3&#45;&gt;Node1</title>
<g id="a_edge7_Node000001_Node000003"><a xlink:title=" ">
<path fill="none" stroke="#63b8ff" d="M25.34,-263.81C30.54,-230.3 44.6,-169.03 80.5,-132 123.46,-87.7 190.86,-64.11 240.52,-52.05"/>
<polygon fill="none" stroke="#63b8ff" points="240.73,-52.01 245.67,-46.76 252.42,-49.3 247.48,-54.55 240.73,-52.01"/>
</a>
</g>
<text text-anchor="start" x="84" y="-176.5" font-family="Helvetica,sans-Serif" font-size="10.00" fill="grey">+height</text>
<text text-anchor="start" x="84" y="-161.5" font-family="Helvetica,sans-Serif" font-size="10.00" fill="grey">+width</text>
</g>
<!-- Node3&#45;&gt;Node2 -->
<g id="edge2_Node000002_Node000003" class="edge">
<title>Node3&#45;&gt;Node2</title>
<g id="a_edge2_Node000002_Node000003"><a xlink:title=" ">
<path fill="none" stroke="#63b8ff" d="M42.5,-263.88C52.66,-252.63 65.56,-239.39 78.5,-229 90.59,-219.29 104.48,-210 117.78,-201.86"/>
<polygon fill="none" stroke="#63b8ff" points="117.98,-201.75 121.08,-195.24 128.28,-195.59 125.18,-202.1 117.98,-201.75"/>
</a>
</g>
<text text-anchor="start" x="81.5" y="-234.5" font-family="Helvetica,sans-Serif" font-size="10.00" fill="grey">+seq</text>
</g>
<!-- Node4 -->
<g id="Node000004" class="node">
<title>Node4</title>
<g id="a_Node000004"><a xlink:title=" ">
<polygon fill="white" stroke="transparent" points="191.5,-313 151.5,-313 151.5,-264 191.5,-264 191.5,-313"/>
<text text-anchor="start" x="156.5" y="-300.5" font-family="Helvetica,sans-Serif" font-size="10.00">int64_t</text>
<text text-anchor="start" x="169.5" y="-285.5" font-family="Helvetica,sans-Serif" font-size="10.00"> </text>
<text text-anchor="start" x="169.5" y="-270.5" font-family="Helvetica,sans-Serif" font-size="10.00"> </text>
<polygon fill="#666666" stroke="#666666" points="151.5,-295.5 151.5,-295.5 191.5,-295.5 191.5,-295.5 151.5,-295.5"/>
<polygon fill="#666666" stroke="#666666" points="151.5,-280.5 151.5,-280.5 191.5,-280.5 191.5,-280.5 151.5,-280.5"/>
<polygon fill="none" stroke="#666666" points="151.5,-264 151.5,-313 191.5,-313 191.5,-264 151.5,-264"/>
</a>
</g>
</g>
<!-- Node4&#45;&gt;Node2 -->
<g id="edge3_Node000002_Node000004" class="edge">
<title>Node4&#45;&gt;Node2</title>
<g id="a_edge3_Node000002_Node000004"><a xlink:title=" ">
<path fill="none" stroke="#63b8ff" d="M171.5,-263.95C171.5,-252.26 171.5,-237.65 171.5,-223.57"/>
<polygon fill="none" stroke="#63b8ff" points="171.5,-223.41 167.5,-217.41 171.5,-211.41 175.5,-217.41 171.5,-223.41"/>
</a>
</g>
<text text-anchor="start" x="174.5" y="-234.5" font-family="Helvetica,sans-Serif" font-size="10.00" fill="grey">+stamp</text>
</g>
<!-- Node5 -->
<g id="Node000005" class="node">
<title>Node5</title>
<g id="a_Node000005"><a xlink:title=" ">
<polygon fill="white" stroke="transparent" points="125.5,-313 71.5,-313 71.5,-264 125.5,-264 125.5,-313"/>
<text text-anchor="start" x="76.5" y="-300.5" font-family="Helvetica,sans-Serif" font-size="10.00">std::string</text>
<text text-anchor="start" x="96.5" y="-285.5" font-family="Helvetica,sans-Serif" font-size="10.00"> </text>
<text text-anchor="start" x="96.5" y="-270.5" font-family="Helvetica,sans-Serif" font-size="10.00"> </text>
<polygon fill="#666666" stroke="#666666" points="71.5,-295.5 71.5,-295.5 125.5,-295.5 125.5,-295.5 71.5,-295.5"/>
<polygon fill="#666666" stroke="#666666" points="71.5,-280.5 71.5,-280.5 125.5,-280.5 125.5,-280.5 71.5,-280.5"/>
<polygon fill="none" stroke="#666666" points="71.5,-264 71.5,-313 125.5,-313 125.5,-264 71.5,-264"/>
</a>
</g>
</g>
<!-- Node5&#45;&gt;Node2 -->
<g id="edge4_Node000002_Node000005" class="edge">
<title>Node5&#45;&gt;Node2</title>
<g id="a_edge4_Node000002_Node000005"><a xlink:title=" ">
<path fill="none" stroke="#63b8ff" d="M103.56,-263.98C106.57,-252.87 111.09,-239.73 117.5,-229 119.17,-226.2 121,-223.43 122.95,-220.71"/>
<polygon fill="none" stroke="#63b8ff" points="123.07,-220.56 123.6,-213.37 130.44,-211.09 129.91,-218.28 123.07,-220.56"/>
</a>
</g>
<text text-anchor="start" x="120.5" y="-234.5" font-family="Helvetica,sans-Serif" font-size="10.00" fill="grey">+frame_id</text>
</g>
<!-- Node6 -->
<g id="Node000006" class="node">
<title>Node6</title>
<g id="a_Node000006"><a xlink:title=" ">
<polygon fill="white" stroke="transparent" points="143,-426 54,-426 54,-366 143,-366 143,-426"/>
<text text-anchor="start" x="59.5" y="-414" font-family="Helvetica,sans-Serif" font-size="10.00">std::basic_string&lt;</text>
<text text-anchor="start" x="82" y="-403" font-family="Helvetica,sans-Serif" font-size="10.00"> Char &gt;</text>
<text text-anchor="start" x="97" y="-388" font-family="Helvetica,sans-Serif" font-size="10.00"> </text>
<text text-anchor="start" x="97" y="-373" font-family="Helvetica,sans-Serif" font-size="10.00"> </text>
<polygon fill="#666666" stroke="#666666" points="54.5,-398 54.5,-398 143.5,-398 143.5,-398 54.5,-398"/>
<polygon fill="#666666" stroke="#666666" points="54.5,-383 54.5,-383 143.5,-383 143.5,-383 54.5,-383"/>
<polygon fill="none" stroke="#666666" points="54,-366 54,-426 143,-426 143,-366 54,-366"/>
</a>
</g>
</g>
<!-- Node6&#45;&gt;Node5 -->
<g id="edge5_Node000005_Node000006" class="edge">
<title>Node6&#45;&gt;Node5</title>
<g id="a_edge5_Node000005_Node000006"><a xlink:title=" ">
<path fill="none" stroke="#63b8ff" d="M98.5,-355.79C98.5,-341.47 98.5,-325.73 98.5,-313.18"/>
<polygon fill="none" stroke="#63b8ff" points="95,-355.89 98.5,-365.89 102,-355.89 95,-355.89"/>
</a>
</g>
</g>
<!-- Node7 -->
<g id="Node000007" class="node">
<title>Node7</title>
<g id="a_Node000007"><a xlink:title=" ">
<polygon fill="white" stroke="transparent" points="284,-313 255,-313 255,-264 284,-264 284,-313"/>
<text text-anchor="start" x="260.5" y="-300.5" font-family="Helvetica,sans-Serif" font-size="10.00">char</text>
<text text-anchor="start" x="268" y="-285.5" font-family="Helvetica,sans-Serif" font-size="10.00"> </text>
<text text-anchor="start" x="268" y="-270.5" font-family="Helvetica,sans-Serif" font-size="10.00"> </text>
<polygon fill="#666666" stroke="#666666" points="255.5,-295.5 255.5,-295.5 284.5,-295.5 284.5,-295.5 255.5,-295.5"/>
<polygon fill="#666666" stroke="#666666" points="255.5,-280.5 255.5,-280.5 284.5,-280.5 284.5,-280.5 255.5,-280.5"/>
<polygon fill="none" stroke="#666666" points="255,-264 255,-313 284,-313 284,-264 255,-264"/>
</a>
</g>
</g>
<!-- Node7&#45;&gt;Node1 -->
<g id="edge15_Node000001_Node000007" class="edge">
<title>Node7&#45;&gt;Node1</title>
<g id="a_edge15_Node000001_Node000007"><a xlink:title=" ">
<path fill="none" stroke="#63b8ff" d="M283.63,-263.58C286.36,-257.98 288.87,-251.92 290.5,-246 304.62,-194.64 307.05,-133.48 306.61,-91.31"/>
<polygon fill="none" stroke="#63b8ff" points="306.61,-91.13 302.5,-85.2 306.4,-79.14 310.5,-85.07 306.61,-91.13"/>
</a>
</g>
<text text-anchor="start" x="310" y="-168.5" font-family="Helvetica,sans-Serif" font-size="10.00" fill="grey">+msg_type</text>
</g>
<!-- Node7&#45;&gt;Node2 -->
<g id="edge6_Node000002_Node000007" class="edge">
<title>Node7&#45;&gt;Node2</title>
<g id="a_edge6_Node000002_Node000007"><a xlink:title=" ">
<path fill="none" stroke="#63b8ff" d="M254.62,-270.03C243.41,-256.89 227.48,-238.19 212.56,-220.69"/>
<polygon fill="none" stroke="#63b8ff" points="212.2,-220.26 205.26,-218.28 204.41,-211.12 211.35,-213.1 212.2,-220.26"/>
</a>
</g>
<text text-anchor="start" x="236" y="-234.5" font-family="Helvetica,sans-Serif" font-size="10.00" fill="grey">+msg_type</text>
</g>
<!-- Node8 -->
<g id="Node000008" class="node">
<title>Node8</title>
<g id="a_Node000008"><a xlink:title=" ">
<polygon fill="white" stroke="transparent" points="615.5,-196 505.5,-196 505.5,-147 615.5,-147 615.5,-196"/>
<text text-anchor="start" x="510.5" y="-183.5" font-family="Helvetica,sans-Serif" font-size="10.00">std::array&lt; double, 5 &gt;</text>
<text text-anchor="start" x="558.5" y="-168.5" font-family="Helvetica,sans-Serif" font-size="10.00"> </text>
<text text-anchor="start" x="558.5" y="-153.5" font-family="Helvetica,sans-Serif" font-size="10.00"> </text>
<polygon fill="#666666" stroke="#666666" points="505.5,-178.5 505.5,-178.5 615.5,-178.5 615.5,-178.5 505.5,-178.5"/>
<polygon fill="#666666" stroke="#666666" points="505.5,-163.5 505.5,-163.5 615.5,-163.5 615.5,-163.5 505.5,-163.5"/>
<polygon fill="none" stroke="#666666" points="505.5,-147 505.5,-196 615.5,-196 615.5,-147 505.5,-147"/>
</a>
</g>
</g>
<!-- Node8&#45;&gt;Node1 -->
<g id="edge8_Node000001_Node000008" class="edge">
<title>Node8&#45;&gt;Node1</title>
<g id="a_edge8_Node000001_Node000008"><a xlink:title=" ">
<path fill="none" stroke="#63b8ff" d="M522.61,-146.88C514.11,-141.81 505.07,-136.6 496.5,-132 454.35,-109.35 405.67,-86.18 367.88,-68.83"/>
<polygon fill="none" stroke="#63b8ff" points="367.43,-68.62 360.31,-69.77 356.52,-63.63 363.64,-62.49 367.43,-68.62"/>
</a>
</g>
<text text-anchor="start" x="463.5" y="-102.5" font-family="Helvetica,sans-Serif" font-size="10.00" fill="grey">+D</text>
</g>
<!-- Node9 -->
<g id="Node000009" class="node">
<title>Node9</title>
<g id="a_Node000009"><a xlink:title=" ">
<polygon fill="white" stroke="transparent" points="437,-313 398,-313 398,-264 437,-264 437,-313"/>
<text text-anchor="start" x="403.5" y="-300.5" font-family="Helvetica,sans-Serif" font-size="10.00">double</text>
<text text-anchor="start" x="416" y="-285.5" font-family="Helvetica,sans-Serif" font-size="10.00"> </text>
<text text-anchor="start" x="416" y="-270.5" font-family="Helvetica,sans-Serif" font-size="10.00"> </text>
<polygon fill="#666666" stroke="#666666" points="398.5,-295.5 398.5,-295.5 437.5,-295.5 437.5,-295.5 398.5,-295.5"/>
<polygon fill="#666666" stroke="#666666" points="398.5,-280.5 398.5,-280.5 437.5,-280.5 437.5,-280.5 398.5,-280.5"/>
<polygon fill="none" stroke="#666666" points="398,-264 398,-313 437,-313 437,-264 398,-264"/>
</a>
</g>
</g>
<!-- Node9&#45;&gt;Node8 -->
<g id="edge9_Node000008_Node000009" class="edge">
<title>Node9&#45;&gt;Node8</title>
<g id="a_edge9_Node000008_Node000009"><a xlink:title=" ">
<path fill="none" stroke="#63b8ff" d="M437.17,-283.33C458.92,-277.87 493.99,-266.51 517.5,-246 529.6,-235.45 539.17,-220.62 546.18,-207.05"/>
<polygon fill="none" stroke="#63b8ff" points="546.26,-206.87 545.26,-199.73 551.47,-196.06 552.47,-203.2 546.26,-206.87"/>
</a>
</g>
<text text-anchor="start" x="535.5" y="-234.5" font-family="Helvetica,sans-Serif" font-size="10.00" fill="grey">+elements</text>
</g>
<!-- Node12 -->
<g id="Node000012" class="node">
<title>Node12</title>
<g id="a_Node000012"><a xlink:title=" ">
<polygon fill="white" stroke="transparent" points="487.5,-196 377.5,-196 377.5,-147 487.5,-147 487.5,-196"/>
<text text-anchor="start" x="382.5" y="-183.5" font-family="Helvetica,sans-Serif" font-size="10.00">std::array&lt; double, 9 &gt;</text>
<text text-anchor="start" x="430.5" y="-168.5" font-family="Helvetica,sans-Serif" font-size="10.00"> </text>
<text text-anchor="start" x="430.5" y="-153.5" font-family="Helvetica,sans-Serif" font-size="10.00"> </text>
<polygon fill="#666666" stroke="#666666" points="377.5,-178.5 377.5,-178.5 487.5,-178.5 487.5,-178.5 377.5,-178.5"/>
<polygon fill="#666666" stroke="#666666" points="377.5,-163.5 377.5,-163.5 487.5,-163.5 487.5,-163.5 377.5,-163.5"/>
<polygon fill="none" stroke="#666666" points="377.5,-147 377.5,-196 487.5,-196 487.5,-147 377.5,-147"/>
</a>
</g>
</g>
<!-- Node9&#45;&gt;Node12 -->
<g id="edge13_Node000012_Node000009" class="edge">
<title>Node9&#45;&gt;Node12</title>
<g id="a_edge13_Node000012_Node000009"><a xlink:title=" ">
<path fill="none" stroke="#63b8ff" d="M397.88,-273.07C385.12,-261.78 371.96,-245.31 378.5,-229 381.94,-220.43 387.36,-212.42 393.48,-205.28"/>
<polygon fill="none" stroke="#63b8ff" points="393.89,-204.85 395.1,-197.74 402.12,-196.12 400.92,-203.23 393.89,-204.85"/>
</a>
</g>
<text text-anchor="start" x="381.5" y="-234.5" font-family="Helvetica,sans-Serif" font-size="10.00" fill="grey">+elements</text>
</g>
<!-- Node10 -->
<g id="Node000010" class="node">
<title>Node10</title>
<g id="a_Node000010"><a xlink:title=" ">
<polygon fill="white" stroke="transparent" points="611.5,-313 535.5,-313 535.5,-264 611.5,-264 611.5,-313"/>
<text text-anchor="start" x="540.5" y="-300.5" font-family="Helvetica,sans-Serif" font-size="10.00">std::array&lt; T &gt;</text>
<text text-anchor="start" x="571.5" y="-285.5" font-family="Helvetica,sans-Serif" font-size="10.00"> </text>
<text text-anchor="start" x="571.5" y="-270.5" font-family="Helvetica,sans-Serif" font-size="10.00"> </text>
<polygon fill="#666666" stroke="#666666" points="535.5,-295.5 535.5,-295.5 611.5,-295.5 611.5,-295.5 535.5,-295.5"/>
<polygon fill="#666666" stroke="#666666" points="535.5,-280.5 535.5,-280.5 611.5,-280.5 611.5,-280.5 535.5,-280.5"/>
<polygon fill="none" stroke="#666666" points="535.5,-264 535.5,-313 611.5,-313 611.5,-264 535.5,-264"/>
</a>
</g>
</g>
<!-- Node10&#45;&gt;Node8 -->
<g id="edge10_Node000008_Node000010" class="edge">
<title>Node10&#45;&gt;Node8</title>
<g id="a_edge10_Node000008_Node000010"><a xlink:title=" ">
<path fill="none" stroke="orange" d="M591.21,-254.17C593.65,-245.99 594.67,-237.22 592.5,-229 589.46,-217.45 583.45,-205.77 577.45,-196.06"/>
<polygon fill="orange" stroke="orange" points="587.85,-253.18 587.66,-263.77 594.41,-255.61 587.85,-253.18"/>
</a>
</g>
<text text-anchor="start" x="596.5" y="-234.5" font-family="Helvetica,sans-Serif" font-size="10.00" fill="grey">&lt; double, 5 &gt;</text>
</g>
<!-- Node10&#45;&gt;Node12 -->
<g id="edge14_Node000012_Node000010" class="edge">
<title>Node10&#45;&gt;Node12</title>
<g id="a_edge14_Node000012_Node000010"><a xlink:title=" ">
<path fill="none" stroke="orange" d="M525.37,-281.54C500.8,-276.12 472.22,-265.77 453.5,-246 440.82,-232.6 435.72,-212.09 433.7,-196.13"/>
<polygon fill="orange" stroke="orange" points="524.77,-284.99 535.26,-283.51 526.14,-278.13 524.77,-284.99"/>
</a>
</g>
<text text-anchor="start" x="456.5" y="-234.5" font-family="Helvetica,sans-Serif" font-size="10.00" fill="grey">&lt; double, 9 &gt;</text>
</g>
<!-- Node11 -->
<g id="Node000011" class="node">
<title>Node11</title>
<g id="a_Node000011"><a xlink:title=" ">
<polygon fill="white" stroke="transparent" points="582,-420.5 565,-420.5 565,-371.5 582,-371.5 582,-420.5"/>
<text text-anchor="start" x="570.5" y="-408" font-family="Helvetica,sans-Serif" font-size="10.00">T</text>
<text text-anchor="start" x="572" y="-393" font-family="Helvetica,sans-Serif" font-size="10.00"> </text>
<text text-anchor="start" x="572" y="-378" font-family="Helvetica,sans-Serif" font-size="10.00"> </text>
<polygon fill="#666666" stroke="#666666" points="565.5,-403 565.5,-403 582.5,-403 582.5,-403 565.5,-403"/>
<polygon fill="#666666" stroke="#666666" points="565.5,-388 565.5,-388 582.5,-388 582.5,-388 565.5,-388"/>
<polygon fill="none" stroke="#666666" points="565,-371.5 565,-420.5 582,-420.5 582,-371.5 565,-371.5"/>
</a>
</g>
</g>
<!-- Node11&#45;&gt;Node10 -->
<g id="edge11_Node000010_Node000011" class="edge">
<title>Node11&#45;&gt;Node10</title>
<g id="a_edge11_Node000010_Node000011"><a xlink:title=" ">
<path fill="none" stroke="#63b8ff" d="M573.5,-371.32C573.5,-357.75 573.5,-340.44 573.5,-325.24"/>
<polygon fill="none" stroke="#63b8ff" points="573.5,-325.1 569.5,-319.1 573.5,-313.1 577.5,-319.1 573.5,-325.1"/>
</a>
</g>
<text text-anchor="start" x="576.5" y="-336.5" font-family="Helvetica,sans-Serif" font-size="10.00" fill="grey">+elements</text>
</g>
<!-- Node12&#45;&gt;Node1 -->
<g id="edge12_Node000001_Node000012" class="edge">
<title>Node12&#45;&gt;Node1</title>
<g id="a_edge12_Node000001_Node000012"><a xlink:title=" ">
<path fill="none" stroke="#63b8ff" d="M409.32,-146.96C393.13,-130.51 370.96,-107.99 351.17,-87.9"/>
<polygon fill="none" stroke="#63b8ff" points="350.99,-87.72 343.93,-86.25 342.57,-79.17 349.63,-80.64 350.99,-87.72"/>
</a>
</g>
<text text-anchor="start" x="380" y="-102.5" font-family="Helvetica,sans-Serif" font-size="10.00" fill="grey">+K</text>
</g>
</g>
</svg>

<g id="navigator" transform="translate(0 0)" fill="#404254">
  <rect fill="#f2f5e9" fill-opacity="0.5" stroke="#606060" stroke-width=".5" x="0" y="0" width="60" height="60"/>
  <use id="zoomplus" xlink:href="#zoomPlus" x="17" y="9" onmousedown="handleZoom(evt,'in')"/>
  <use id="zoomminus" xlink:href="#zoomMin" x="42" y="9" onmousedown="handleZoom(evt,'out')"/>
  <use id="reset" xlink:href="#resetDef" x="30" y="36" onmousedown="handleReset()"/>
   <use id="arrowup" xlink:href="#arrowUp" x="0" y="0" onmousedown="handlePan(0,-1)"/>
  <use id="arrowright" xlink:href="#arrowRight" x="0" y="0" onmousedown="handlePan(1,0)"/>
  <use id="arrowdown" xlink:href="#arrowDown" x="0" y="0" onmousedown="handlePan(0,1)"/>
  <use id="arrowleft" xlink:href="#arrowLeft" x="0" y="0" onmousedown="handlePan(-1,0)"/>
</g>
<svg viewBox="0 0 15 15" width="100%" height="30px" preserveAspectRatio="xMaxYMin meet">
 <g id="arrow_out" transform="scale(0.3 0.3)">
  <a xlink:href="classrm_1_1msg_1_1CameraInfo__coll__graph_org.svg" target="_base">
   <rect id="button" ry="5" rx="5" y="6" x="6" height="38" width="38"
        fill="#f2f5e9" fill-opacity="0.5" stroke="#606060" stroke-width="1.0"/>
   <path id="arrow"
     d="M 11.500037,31.436501 C 11.940474,20.09759 22.043105,11.32322 32.158766,21.979434 L 37.068811,17.246167 C 37.068811,17.246167 37.088388,32 37.088388,32 L 22.160133,31.978069 C 22.160133,31.978069 26.997745,27.140456 26.997745,27.140456 C 18.528582,18.264221 13.291696,25.230495 11.500037,31.436501 z"
     style="fill:#404040;"/>
  </a>
 </g>
</svg>

<style type='text/css'>
<![CDATA[
[data-mouse-over-selected='false'] { opacity: 0.7; }
[data-mouse-over-selected='true']  { opacity: 1.0; }
]]>
</style>
<script type="application/ecmascript"><![CDATA[
document.addEventListener('DOMContentLoaded', (event) => {
  highlightEdges();
  highlightAdjacentNodes();
});
]]></script>
</svg>
