<?xml version="1.0" encoding="UTF-8" standalone="no"?>
<!DOCTYPE svg PUBLIC "-//W3C//DTD SVG 1.1//EN"
 "http://www.w3.org/Graphics/SVG/1.1/DTD/svg11.dtd">
<!-- Generated by graphviz version 2.43.0 (0)
 -->
<!-- Title: rm::PipeClient::operator&gt;&gt; Pages: 1 -->
<svg width="334pt" height="82pt"
 viewBox="0.00 0.00 334.00 82.00" xmlns="http://www.w3.org/2000/svg" xmlns:xlink="http://www.w3.org/1999/xlink">
<g id="graph0" class="graph" transform="scale(1 1) rotate(0) translate(4 78)">
<title>rm::PipeClient::operator&gt;&gt;</title>
<!-- Node1 -->
<g id="Node000001" class="node">
<title>Node1</title>
<g id="a_Node000001"><a xlink:title="从管道读取数据">
<polygon fill="#999999" stroke="#666666" points="149,-37 0,-37 0,-18 149,-18 149,-37"/>
<text text-anchor="middle" x="74.5" y="-25" font-family="Helvetica,sans-Serif" font-size="10.00">rm::PipeClient::operator&gt;&gt;</text>
</a>
</g>
</g>
<!-- Node2 -->
<g id="Node000002" class="node">
<title>Node2</title>
<g id="a_Node000002"><a xlink:href="../../d8/d8c/classrm_1_1PipeClient.html#afbdc00dd546635daf4a3e70a83d6ca9e" target="_top" xlink:title=" ">
<polygon fill="white" stroke="#666666" points="326,-56 185,-56 185,-37 326,-37 326,-56"/>
<text text-anchor="middle" x="255.5" y="-44" font-family="Helvetica,sans-Serif" font-size="10.00">rm::PipeClient::PipeClient</text>
</a>
</g>
</g>
<!-- Node1&#45;&gt;Node2 -->
<g id="edge1_Node000001_Node000002" class="edge">
<title>Node1&#45;&gt;Node2</title>
<g id="a_edge1_Node000001_Node000002"><a xlink:title=" ">
<path fill="none" stroke="#63b8ff" d="M149.08,-35.31C157.61,-36.22 166.33,-37.14 174.93,-38.05"/>
<polygon fill="#63b8ff" stroke="#63b8ff" points="174.64,-41.54 184.95,-39.12 175.37,-34.58 174.64,-41.54"/>
</a>
</g>
</g>
<!-- Node3 -->
<g id="Node000003" class="node">
<title>Node3</title>
<g id="a_Node000003"><a xlink:href="../../d8/d8c/classrm_1_1PipeClient.html#af30fe1660192dc8b07cb005f9cb27167" target="_top" xlink:title="从管道读取数据">
<polygon fill="white" stroke="#666666" points="312,-19 199,-19 199,0 312,0 312,-19"/>
<text text-anchor="middle" x="255.5" y="-7" font-family="Helvetica,sans-Serif" font-size="10.00">rm::PipeClient::read</text>
</a>
</g>
</g>
<!-- Node1&#45;&gt;Node3 -->
<g id="edge3_Node000001_Node000003" class="edge">
<title>Node1&#45;&gt;Node3</title>
<g id="a_edge3_Node000001_Node000003"><a xlink:title=" ">
<path fill="none" stroke="#63b8ff" d="M149.08,-20.1C162.24,-18.78 175.88,-17.41 188.81,-16.11"/>
<polygon fill="#63b8ff" stroke="#63b8ff" points="189.39,-19.56 198.99,-15.08 188.69,-12.6 189.39,-19.56"/>
</a>
</g>
</g>
<!-- Node2&#45;&gt;Node2 -->
<g id="edge2_Node000002_Node000002" class="edge">
<title>Node2&#45;&gt;Node2</title>
<g id="a_edge2_Node000002_Node000002"><a xlink:title=" ">
<path fill="none" stroke="#63b8ff" d="M227.76,-56.08C214.26,-64.73 223.51,-74 255.5,-74 276.99,-74 288.22,-69.82 289.18,-64.45"/>
<polygon fill="#63b8ff" stroke="#63b8ff" points="291.89,-62.21 283.24,-56.08 286.18,-66.26 291.89,-62.21"/>
</a>
</g>
</g>
</g>
</svg>
