<?xml version="1.0" encoding="UTF-8" standalone="no"?>
<!DOCTYPE svg PUBLIC "-//W3C//DTD SVG 1.1//EN"
 "http://www.w3.org/Graphics/SVG/1.1/DTD/svg11.dtd">
<!-- Generated by graphviz version 2.43.0 (0)
 -->
<!-- Title: rm::DefaultTracker Pages: 1 -->
<!--zoomable 1007 -->

<svg id="main" version="1.1" xmlns="http://www.w3.org/2000/svg" xmlns:xlink="http://www.w3.org/1999/xlink" xml:space="preserve" onload="init(evt)">

<style type="text/css"><![CDATA[
.node, .edge {opacity: 0.7;}
.node.selected, .edge.selected {opacity: 1;}
.edge:hover path { stroke: red; }
.edge:hover polygon { stroke: red; fill: red; }
]]></style>

<defs>
  <circle id="rim" cx="0" cy="0" r="7"/>
  <circle id="rim2" cx="0" cy="0" r="3.5"/>
  <g id="zoomPlus">
    <use xlink:href="#rim" fill="#404040"><set attributeName="fill" to="#808080" begin="zoomplus.mouseover" end="zoomplus.mouseout"/></use>
    <path d="M-4,0h8M0,-4v8" fill="none" stroke="white" stroke-width="1.5" pointer-events="none"/>
  </g>
  <g id="zoomMin">
    <use xlink:href="#rim" fill="#404040"><set attributeName="fill" to="#808080" begin="zoomminus.mouseover" end="zoomminus.mouseout"/></use>
    <path d="M-4,0h8" fill="none" stroke="white" stroke-width="1.5" pointer-events="none"/>
  </g>
  <g id="arrowUp" transform="translate(30 24)">
    <use xlink:href="#rim"/>
    <path pointer-events="none" fill="none" stroke="white" stroke-width="1.5" d="M0,-3.0v7 M-2.5,-0.5L0,-3.0L2.5,-0.5"/>
  </g>
  <g id="arrowRight" transform="rotate(90) translate(36 -43)">
    <use xlink:href="#rim"/>
    <path pointer-events="none" fill="none" stroke="white" stroke-width="1.5" d="M0,-3.0v7 M-2.5,-0.5L0,-3.0L2.5,-0.5"/>
  </g>
  <g id="arrowDown" transform="rotate(180) translate(-30 -48)">
    <use xlink:href="#rim"/>
    <path pointer-events="none" fill="none" stroke="white" stroke-width="1.5" d="M0,-3.0v7 M-2.5,-0.5L0,-3.0L2.5,-0.5"/>
  </g>
  <g id="arrowLeft" transform="rotate(270) translate(-36 17)">
    <use xlink:href="#rim"/>
    <path pointer-events="none" fill="none" stroke="white" stroke-width="1.5" d="M0,-3.0v7 M-2.5,-0.5L0,-3.0L2.5,-0.5"/>
  </g>
  <g id="resetDef">
    <use xlink:href="#rim2" fill="#404040"><set attributeName="fill" to="#808080" begin="reset.mouseover" end="reset.mouseout"/></use>
  </g>
</defs>
<script type="application/ecmascript">
var viewWidth = 855;
var viewHeight = 1007;
var sectionId = 'dynsection-1';
</script>
<script type="application/ecmascript" xlink:href="../../svg.min.js"/>
<svg id="graph" class="graph">
<g id="viewport">
<title>rm::DefaultTracker</title>
<!-- Node1 -->
<g id="Node000001" class="node">
<title>Node1</title>
<g id="a_Node000001"><a xlink:title="默认追踪器，时间序列仅用于存储组合体，可退化为 combos 使用">
<polygon fill="#999999" stroke="transparent" points="572,-124 471,-124 471,0 572,0 572,-124"/>
<text text-anchor="start" x="476.5" y="-112" font-family="Helvetica,sans-Serif" font-size="10.00">rm::DefaultTracker</text>
<text text-anchor="start" x="520" y="-97" font-family="Helvetica,sans-Serif" font-size="10.00"> </text>
<text text-anchor="start" x="477" y="-82" font-family="Helvetica,sans-Serif" font-size="10.00">+</text>
<text text-anchor="start" x="491.5" y="-82" font-family="Helvetica,sans-Serif" font-size="10.00">clone()</text>
<text text-anchor="start" x="477" y="-67" font-family="Helvetica,sans-Serif" font-size="10.00">+</text>
<text text-anchor="start" x="491.5" y="-67" font-family="Helvetica,sans-Serif" font-size="10.00">update()</text>
<text text-anchor="start" x="477" y="-52" font-family="Helvetica,sans-Serif" font-size="10.00">+</text>
<text text-anchor="start" x="491.5" y="-52" font-family="Helvetica,sans-Serif" font-size="10.00">update()</text>
<text text-anchor="start" x="477" y="-37" font-family="Helvetica,sans-Serif" font-size="10.00">+</text>
<text text-anchor="start" x="491.5" y="-37" font-family="Helvetica,sans-Serif" font-size="10.00">make_tracker()</text>
<text text-anchor="start" x="477" y="-22" font-family="Helvetica,sans-Serif" font-size="10.00">+</text>
<text text-anchor="start" x="491.5" y="-22" font-family="Helvetica,sans-Serif" font-size="10.00">cast()</text>
<text text-anchor="start" x="477" y="-7" font-family="Helvetica,sans-Serif" font-size="10.00">+</text>
<text text-anchor="start" x="491.5" y="-7" font-family="Helvetica,sans-Serif" font-size="10.00">cast()</text>
<polygon fill="#666666" stroke="#666666" points="471.5,-107 471.5,-107 572.5,-107 572.5,-107 471.5,-107"/>
<polygon fill="#666666" stroke="#666666" points="471.5,-92 471.5,-92 572.5,-92 572.5,-92 471.5,-92"/>
<polygon fill="none" stroke="#666666" points="471,0 471,-124 572,-124 572,0 471,0"/>
</a>
</g>
</g>
<!-- Node2 -->
<g id="Node000002" class="node">
<title>Node2</title>
<g id="a_Node000002"><a xlink:href="../../d6/dd2/classrm_1_1tracker.html" target="_top" xlink:title="组合体时间序列">
<polygon fill="white" stroke="transparent" points="579.5,-360 463.5,-360 463.5,-161 579.5,-161 579.5,-360"/>
<text text-anchor="start" x="494.5" y="-347.5" font-family="Helvetica,sans-Serif" font-size="10.00">rm::tracker</text>
<text text-anchor="start" x="519.5" y="-332.5" font-family="Helvetica,sans-Serif" font-size="10.00"> </text>
<text text-anchor="start" x="467.5" y="-317.5" font-family="Helvetica,sans-Serif" font-size="10.00">+</text>
<text text-anchor="start" x="480.5" y="-317.5" font-family="Helvetica,sans-Serif" font-size="10.00">clone()</text>
<text text-anchor="start" x="467.5" y="-302.5" font-family="Helvetica,sans-Serif" font-size="10.00">+</text>
<text text-anchor="start" x="480.5" y="-302.5" font-family="Helvetica,sans-Serif" font-size="10.00">update()</text>
<text text-anchor="start" x="467.5" y="-287.5" font-family="Helvetica,sans-Serif" font-size="10.00">+</text>
<text text-anchor="start" x="480.5" y="-287.5" font-family="Helvetica,sans-Serif" font-size="10.00">update()</text>
<text text-anchor="start" x="467.5" y="-272.5" font-family="Helvetica,sans-Serif" font-size="10.00">+</text>
<text text-anchor="start" x="480.5" y="-272.5" font-family="Helvetica,sans-Serif" font-size="10.00">invalid()</text>
<text text-anchor="start" x="467.5" y="-257.5" font-family="Helvetica,sans-Serif" font-size="10.00">+</text>
<text text-anchor="start" x="480.5" y="-257.5" font-family="Helvetica,sans-Serif" font-size="10.00">front()</text>
<text text-anchor="start" x="467.5" y="-242.5" font-family="Helvetica,sans-Serif" font-size="10.00">+</text>
<text text-anchor="start" x="480.5" y="-242.5" font-family="Helvetica,sans-Serif" font-size="10.00">back()</text>
<text text-anchor="start" x="467.5" y="-227.5" font-family="Helvetica,sans-Serif" font-size="10.00">+</text>
<text text-anchor="start" x="480.5" y="-227.5" font-family="Helvetica,sans-Serif" font-size="10.00">getVanishNumber()</text>
<text text-anchor="start" x="467.5" y="-212.5" font-family="Helvetica,sans-Serif" font-size="10.00">+</text>
<text text-anchor="start" x="480.5" y="-212.5" font-family="Helvetica,sans-Serif" font-size="10.00">size()</text>
<text text-anchor="start" x="467.5" y="-197.5" font-family="Helvetica,sans-Serif" font-size="10.00">+</text>
<text text-anchor="start" x="480.5" y="-197.5" font-family="Helvetica,sans-Serif" font-size="10.00">data()</text>
<text text-anchor="start" x="467.5" y="-182.5" font-family="Helvetica,sans-Serif" font-size="10.00">+</text>
<text text-anchor="start" x="480.5" y="-182.5" font-family="Helvetica,sans-Serif" font-size="10.00">empty()</text>
<text text-anchor="start" x="480.5" y="-167.5" font-family="Helvetica,sans-Serif" font-size="10.00">和 11 更多...</text>
<polygon fill="#666666" stroke="#666666" points="463.5,-342.5 463.5,-342.5 579.5,-342.5 579.5,-342.5 463.5,-342.5"/>
<polygon fill="#666666" stroke="#666666" points="463.5,-327.5 463.5,-327.5 579.5,-327.5 579.5,-327.5 463.5,-327.5"/>
<polygon fill="none" stroke="#666666" points="463.5,-161 463.5,-360 579.5,-360 579.5,-161 463.5,-161"/>
</a>
</g>
</g>
<!-- Node2&#45;&gt;Node1 -->
<g id="edge1_Node000001_Node000002" class="edge">
<title>Node2&#45;&gt;Node1</title>
<g id="a_edge1_Node000001_Node000002"><a xlink:title=" ">
<path fill="none" stroke="#63b8ff" d="M521.5,-150.69C521.5,-141.62 521.5,-132.68 521.5,-124.17"/>
<polygon fill="none" stroke="#63b8ff" points="518,-150.96 521.5,-160.96 525,-150.96 518,-150.96"/>
</a>
</g>
</g>
<!-- Node3 -->
<g id="Node000003" class="node">
<title>Node3</title>
<g id="a_Node000003"><a xlink:title=" ">
<polygon fill="white" stroke="transparent" points="218.5,-566 106.5,-566 106.5,-506 218.5,-506 218.5,-566"/>
<text text-anchor="start" x="111.5" y="-554" font-family="Helvetica,sans-Serif" font-size="10.00">std::deque&lt; combo::</text>
<text text-anchor="start" x="150" y="-543" font-family="Helvetica,sans-Serif" font-size="10.00">ptr &gt;</text>
<text text-anchor="start" x="160.5" y="-528" font-family="Helvetica,sans-Serif" font-size="10.00"> </text>
<text text-anchor="start" x="160.5" y="-513" font-family="Helvetica,sans-Serif" font-size="10.00"> </text>
<polygon fill="#666666" stroke="#666666" points="106.5,-538 106.5,-538 218.5,-538 218.5,-538 106.5,-538"/>
<polygon fill="#666666" stroke="#666666" points="106.5,-523 106.5,-523 218.5,-523 218.5,-523 106.5,-523"/>
<polygon fill="none" stroke="#666666" points="106.5,-506 106.5,-566 218.5,-566 218.5,-506 106.5,-506"/>
</a>
</g>
</g>
<!-- Node3&#45;&gt;Node2 -->
<g id="edge2_Node000002_Node000003" class="edge">
<title>Node3&#45;&gt;Node2</title>
<g id="a_edge2_Node000002_Node000003"><a xlink:title=" ">
<path fill="none" stroke="#63b8ff" d="M169.28,-505.99C178.78,-471.26 199.23,-413.36 236.5,-378 296.6,-320.97 388.41,-290.29 451.5,-274.96"/>
<polygon fill="none" stroke="#63b8ff" points="451.64,-274.93 456.56,-269.66 463.32,-272.18 458.39,-277.45 451.64,-274.93"/>
</a>
</g>
<text text-anchor="middle" x="279" y="-392" font-family="Helvetica,sans-Serif" font-size="10.00" fill="grey"> #_combo_deque</text>
</g>
<!-- Node4 -->
<g id="Node000004" class="node">
<title>Node4</title>
<g id="a_Node000004"><a xlink:title=" ">
<polygon fill="white" stroke="transparent" points="139,-769 0,-769 0,-690 139,-690 139,-769"/>
<text text-anchor="start" x="5.5" y="-756.5" font-family="Helvetica,sans-Serif" font-size="10.00">std::shared_ptr&lt; combo &gt;</text>
<text text-anchor="start" x="18.5" y="-741.5" font-family="Helvetica,sans-Serif" font-size="10.00">+</text>
<text text-anchor="start" x="45.5" y="-741.5" font-family="Helvetica,sans-Serif" font-size="10.00">ptr</text>
<text text-anchor="start" x="18.5" y="-726.5" font-family="Helvetica,sans-Serif" font-size="10.00">+</text>
<text text-anchor="start" x="45.5" y="-726.5" font-family="Helvetica,sans-Serif" font-size="10.00">ptr</text>
<text text-anchor="start" x="18.5" y="-711.5" font-family="Helvetica,sans-Serif" font-size="10.00">+</text>
<text text-anchor="start" x="45.5" y="-711.5" font-family="Helvetica,sans-Serif" font-size="10.00">operator&#45;&gt;()</text>
<text text-anchor="start" x="18.5" y="-696.5" font-family="Helvetica,sans-Serif" font-size="10.00">+</text>
<text text-anchor="start" x="45.5" y="-696.5" font-family="Helvetica,sans-Serif" font-size="10.00">operator&#45;&gt;()</text>
<polygon fill="#666666" stroke="#666666" points="0.5,-751.5 0.5,-751.5 139.5,-751.5 139.5,-751.5 0.5,-751.5"/>
<polygon fill="#666666" stroke="#666666" points="0.5,-721.5 0.5,-721.5 43.5,-721.5 43.5,-721.5 0.5,-721.5"/>
<polygon fill="#666666" stroke="#666666" points="43.5,-721.5 43.5,-721.5 139.5,-721.5 139.5,-721.5 43.5,-721.5"/>
<polygon fill="none" stroke="#666666" points="0,-690 0,-769 139,-769 139,-690 0,-690"/>
</a>
</g>
</g>
<!-- Node4&#45;&gt;Node3 -->
<g id="edge3_Node000003_Node000004" class="edge">
<title>Node4&#45;&gt;Node3</title>
<g id="a_edge3_Node000003_Node000004"><a xlink:title=" ">
<path fill="none" stroke="#63b8ff" d="M88.32,-689.75C104.23,-657 126.92,-610.26 143.01,-577.12"/>
<polygon fill="none" stroke="#63b8ff" points="143.17,-576.81 142.19,-569.67 148.41,-566.02 149.39,-573.16 143.17,-576.81"/>
</a>
</g>
<text text-anchor="middle" x="131.5" y="-664" font-family="Helvetica,sans-Serif" font-size="10.00" fill="grey"> +elements</text>
</g>
<!-- Node5 -->
<g id="Node000005" class="node">
<title>Node5</title>
<g id="a_Node000005"><a xlink:title=" ">
<polygon fill="white" stroke="transparent" points="138.5,-903 26.5,-903 26.5,-854 138.5,-854 138.5,-903"/>
<text text-anchor="start" x="31.5" y="-890.5" font-family="Helvetica,sans-Serif" font-size="10.00">std::shared_ptr&lt; T &gt;</text>
<text text-anchor="start" x="80.5" y="-875.5" font-family="Helvetica,sans-Serif" font-size="10.00"> </text>
<text text-anchor="start" x="38" y="-860.5" font-family="Helvetica,sans-Serif" font-size="10.00">+</text>
<text text-anchor="start" x="58.5" y="-860.5" font-family="Helvetica,sans-Serif" font-size="10.00">operator&#45;&gt;()</text>
<polygon fill="#666666" stroke="#666666" points="26.5,-885.5 26.5,-885.5 138.5,-885.5 138.5,-885.5 26.5,-885.5"/>
<polygon fill="#666666" stroke="#666666" points="26.5,-870.5 26.5,-870.5 138.5,-870.5 138.5,-870.5 26.5,-870.5"/>
<polygon fill="none" stroke="#666666" points="26.5,-854 26.5,-903 138.5,-903 138.5,-854 26.5,-854"/>
</a>
</g>
</g>
<!-- Node5&#45;&gt;Node4 -->
<g id="edge4_Node000004_Node000005" class="edge">
<title>Node5&#45;&gt;Node4</title>
<g id="a_edge4_Node000004_Node000005"><a xlink:title=" ">
<path fill="none" stroke="orange" d="M67.57,-844.17C66.74,-841.45 66.03,-838.7 65.5,-836 61.22,-814.24 61.88,-789.48 63.76,-769.42"/>
<polygon fill="orange" stroke="orange" points="64.35,-845.58 70.97,-853.85 70.96,-843.26 64.35,-845.58"/>
</a>
</g>
<text text-anchor="middle" x="95" y="-809" font-family="Helvetica,sans-Serif" font-size="10.00" fill="grey"> &lt; combo &gt;</text>
</g>
<!-- Node6 -->
<g id="Node000006" class="node">
<title>Node6</title>
<g id="a_Node000006"><a xlink:title=" ">
<polygon fill="white" stroke="transparent" points="187,-999 170,-999 170,-950 187,-950 187,-999"/>
<text text-anchor="start" x="175.5" y="-986.5" font-family="Helvetica,sans-Serif" font-size="10.00">T</text>
<text text-anchor="start" x="177" y="-971.5" font-family="Helvetica,sans-Serif" font-size="10.00"> </text>
<text text-anchor="start" x="177" y="-956.5" font-family="Helvetica,sans-Serif" font-size="10.00"> </text>
<polygon fill="#666666" stroke="#666666" points="170.5,-981.5 170.5,-981.5 187.5,-981.5 187.5,-981.5 170.5,-981.5"/>
<polygon fill="#666666" stroke="#666666" points="170.5,-966.5 170.5,-966.5 187.5,-966.5 187.5,-966.5 170.5,-966.5"/>
<polygon fill="none" stroke="#666666" points="170,-950 170,-999 187,-999 187,-950 170,-950"/>
</a>
</g>
</g>
<!-- Node6&#45;&gt;Node5 -->
<g id="edge5_Node000005_Node000006" class="edge">
<title>Node6&#45;&gt;Node5</title>
<g id="a_edge5_Node000005_Node000006"><a xlink:title=" ">
<path fill="none" stroke="#63b8ff" d="M169.96,-966.39C160.37,-958.31 144.45,-944.6 131.5,-932 125.05,-925.72 118.34,-918.81 112.03,-912.12"/>
<polygon fill="none" stroke="#63b8ff" points="111.92,-912 104.9,-910.34 103.74,-903.22 110.75,-904.89 111.92,-912"/>
</a>
</g>
<text text-anchor="middle" x="144" y="-924" font-family="Helvetica,sans-Serif" font-size="10.00" fill="grey"> +ptr</text>
</g>
<!-- Node7 -->
<g id="Node000007" class="node">
<title>Node7</title>
<g id="a_Node000007"><a xlink:title=" ">
<polygon fill="white" stroke="transparent" points="223.5,-836 133.5,-836 133.5,-787 223.5,-787 223.5,-836"/>
<text text-anchor="start" x="138.5" y="-823.5" font-family="Helvetica,sans-Serif" font-size="10.00">std::deque&lt; T &gt;</text>
<text text-anchor="start" x="176.5" y="-808.5" font-family="Helvetica,sans-Serif" font-size="10.00"> </text>
<text text-anchor="start" x="176.5" y="-793.5" font-family="Helvetica,sans-Serif" font-size="10.00"> </text>
<polygon fill="#666666" stroke="#666666" points="133.5,-818.5 133.5,-818.5 223.5,-818.5 223.5,-818.5 133.5,-818.5"/>
<polygon fill="#666666" stroke="#666666" points="133.5,-803.5 133.5,-803.5 223.5,-803.5 223.5,-803.5 133.5,-803.5"/>
<polygon fill="none" stroke="#666666" points="133.5,-787 133.5,-836 223.5,-836 223.5,-787 133.5,-787"/>
</a>
</g>
</g>
<!-- Node6&#45;&gt;Node7 -->
<g id="edge7_Node000007_Node000006" class="edge">
<title>Node6&#45;&gt;Node7</title>
<g id="a_edge7_Node000007_Node000006"><a xlink:title=" ">
<path fill="none" stroke="#63b8ff" d="M178.5,-949.74C178.5,-923.03 178.5,-879.36 178.5,-848.46"/>
<polygon fill="none" stroke="#63b8ff" points="178.5,-848.09 174.5,-842.09 178.5,-836.09 182.5,-842.09 178.5,-848.09"/>
</a>
</g>
<text text-anchor="middle" x="207.5" y="-924" font-family="Helvetica,sans-Serif" font-size="10.00" fill="grey"> +elements</text>
</g>
<!-- Node13 -->
<g id="Node000013" class="node">
<title>Node13</title>
<g id="a_Node000013"><a xlink:title=" ">
<polygon fill="white" stroke="transparent" points="328,-903 237,-903 237,-854 328,-854 328,-903"/>
<text text-anchor="start" x="242.5" y="-890.5" font-family="Helvetica,sans-Serif" font-size="10.00">std::vector&lt; T &gt;</text>
<text text-anchor="start" x="281" y="-875.5" font-family="Helvetica,sans-Serif" font-size="10.00"> </text>
<text text-anchor="start" x="281" y="-860.5" font-family="Helvetica,sans-Serif" font-size="10.00"> </text>
<polygon fill="#666666" stroke="#666666" points="237.5,-885.5 237.5,-885.5 328.5,-885.5 328.5,-885.5 237.5,-885.5"/>
<polygon fill="#666666" stroke="#666666" points="237.5,-870.5 237.5,-870.5 328.5,-870.5 328.5,-870.5 237.5,-870.5"/>
<polygon fill="none" stroke="#666666" points="237,-854 237,-903 328,-903 328,-854 237,-854"/>
</a>
</g>
</g>
<!-- Node6&#45;&gt;Node13 -->
<g id="edge15_Node000013_Node000006" class="edge">
<title>Node6&#45;&gt;Node13</title>
<g id="a_edge15_Node000013_Node000006"><a xlink:title=" ">
<path fill="none" stroke="#63b8ff" d="M187.11,-968.87C199.65,-961.88 223.33,-947.77 240.5,-932 246.8,-926.22 252.93,-919.45 258.47,-912.73"/>
<polygon fill="none" stroke="#63b8ff" points="258.69,-912.45 259.27,-905.27 266.13,-903.04 265.55,-910.23 258.69,-912.45"/>
</a>
</g>
<text text-anchor="middle" x="280.5" y="-924" font-family="Helvetica,sans-Serif" font-size="10.00" fill="grey"> +elements</text>
</g>
<!-- Node7&#45;&gt;Node3 -->
<g id="edge6_Node000003_Node000007" class="edge">
<title>Node7&#45;&gt;Node3</title>
<g id="a_edge6_Node000003_Node000007"><a xlink:title=" ">
<path fill="none" stroke="orange" d="M176.52,-776.58C173.35,-722.41 167.2,-617.29 164.21,-566.23"/>
<polygon fill="orange" stroke="orange" points="173.03,-776.93 177.11,-786.71 180.02,-776.52 173.03,-776.93"/>
</a>
</g>
<text text-anchor="middle" x="216" y="-727" font-family="Helvetica,sans-Serif" font-size="10.00" fill="grey"> &lt; combo::ptr &gt;</text>
</g>
<!-- Node8 -->
<g id="Node000008" class="node">
<title>Node8</title>
<g id="a_Node000008"><a xlink:title=" ">
<polygon fill="white" stroke="transparent" points="560.5,-560.5 510.5,-560.5 510.5,-511.5 560.5,-511.5 560.5,-560.5"/>
<text text-anchor="start" x="515.5" y="-548" font-family="Helvetica,sans-Serif" font-size="10.00">uint32_t</text>
<text text-anchor="start" x="533.5" y="-533" font-family="Helvetica,sans-Serif" font-size="10.00"> </text>
<text text-anchor="start" x="533.5" y="-518" font-family="Helvetica,sans-Serif" font-size="10.00"> </text>
<polygon fill="#666666" stroke="#666666" points="510.5,-543 510.5,-543 560.5,-543 560.5,-543 510.5,-543"/>
<polygon fill="#666666" stroke="#666666" points="510.5,-528 510.5,-528 560.5,-528 560.5,-528 510.5,-528"/>
<polygon fill="none" stroke="#666666" points="510.5,-511.5 510.5,-560.5 560.5,-560.5 560.5,-511.5 510.5,-511.5"/>
</a>
</g>
</g>
<!-- Node8&#45;&gt;Node2 -->
<g id="edge8_Node000002_Node000008" class="edge">
<title>Node8&#45;&gt;Node2</title>
<g id="a_edge8_Node000002_Node000008"><a xlink:title=" ">
<path fill="none" stroke="#63b8ff" d="M532.32,-511.28C529.14,-486.37 524.45,-446.01 522.5,-411 521.8,-398.4 521.33,-385.19 521.03,-372.07"/>
<polygon fill="none" stroke="#63b8ff" points="521.03,-372.05 516.91,-366.13 520.79,-360.05 524.91,-365.97 521.03,-372.05"/>
</a>
</g>
<text text-anchor="middle" x="560.5" y="-392" font-family="Helvetica,sans-Serif" font-size="10.00" fill="grey"> #_vanish_num</text>
</g>
<!-- Node9 -->
<g id="Node000009" class="node">
<title>Node9</title>
<g id="a_Node000009"><a xlink:href="../../d3/da8/classrm_1_1StateInfo.html" target="_top" xlink:title="状态类型系统">
<polygon fill="white" stroke="transparent" points="662.5,-643 578.5,-643 578.5,-429 662.5,-429 662.5,-643"/>
<text text-anchor="start" x="588.5" y="-631" font-family="Helvetica,sans-Serif" font-size="10.00">rm::StateInfo</text>
<text text-anchor="start" x="618.5" y="-616" font-family="Helvetica,sans-Serif" font-size="10.00"> </text>
<text text-anchor="start" x="582.5" y="-601" font-family="Helvetica,sans-Serif" font-size="10.00">+</text>
<text text-anchor="start" x="595.5" y="-601" font-family="Helvetica,sans-Serif" font-size="10.00">StateInfo()</text>
<text text-anchor="start" x="582.5" y="-586" font-family="Helvetica,sans-Serif" font-size="10.00">+</text>
<text text-anchor="start" x="595.5" y="-586" font-family="Helvetica,sans-Serif" font-size="10.00">add()</text>
<text text-anchor="start" x="582.5" y="-571" font-family="Helvetica,sans-Serif" font-size="10.00">+</text>
<text text-anchor="start" x="595.5" y="-571" font-family="Helvetica,sans-Serif" font-size="10.00">add()</text>
<text text-anchor="start" x="582.5" y="-556" font-family="Helvetica,sans-Serif" font-size="10.00">+</text>
<text text-anchor="start" x="595.5" y="-556" font-family="Helvetica,sans-Serif" font-size="10.00">remove()</text>
<text text-anchor="start" x="582.5" y="-541" font-family="Helvetica,sans-Serif" font-size="10.00">+</text>
<text text-anchor="start" x="595.5" y="-541" font-family="Helvetica,sans-Serif" font-size="10.00">contains()</text>
<text text-anchor="start" x="582.5" y="-526" font-family="Helvetica,sans-Serif" font-size="10.00">+</text>
<text text-anchor="start" x="595.5" y="-526" font-family="Helvetica,sans-Serif" font-size="10.00">clear()</text>
<text text-anchor="start" x="582.5" y="-511" font-family="Helvetica,sans-Serif" font-size="10.00">+</text>
<text text-anchor="start" x="595.5" y="-511" font-family="Helvetica,sans-Serif" font-size="10.00">empty()</text>
<text text-anchor="start" x="582.5" y="-496" font-family="Helvetica,sans-Serif" font-size="10.00">+</text>
<text text-anchor="start" x="595.5" y="-496" font-family="Helvetica,sans-Serif" font-size="10.00">at()</text>
<text text-anchor="start" x="582.5" y="-481" font-family="Helvetica,sans-Serif" font-size="10.00">+</text>
<text text-anchor="start" x="595.5" y="-481" font-family="Helvetica,sans-Serif" font-size="10.00">at_numeric()</text>
<text text-anchor="start" x="582.5" y="-466" font-family="Helvetica,sans-Serif" font-size="10.00">+</text>
<text text-anchor="start" x="595.5" y="-466" font-family="Helvetica,sans-Serif" font-size="10.00">at_string()</text>
<text text-anchor="start" x="582.5" y="-451" font-family="Helvetica,sans-Serif" font-size="10.00">+</text>
<text text-anchor="start" x="595.5" y="-451" font-family="Helvetica,sans-Serif" font-size="10.00">at()</text>
<text text-anchor="start" x="582.5" y="-436" font-family="Helvetica,sans-Serif" font-size="10.00">+</text>
<text text-anchor="start" x="595.5" y="-436" font-family="Helvetica,sans-Serif" font-size="10.00">operator[]()</text>
<polygon fill="#666666" stroke="#666666" points="578.5,-626 578.5,-626 662.5,-626 662.5,-626 578.5,-626"/>
<polygon fill="#666666" stroke="#666666" points="578.5,-611 578.5,-611 662.5,-611 662.5,-611 578.5,-611"/>
<polygon fill="none" stroke="#666666" points="578.5,-429 578.5,-643 662.5,-643 662.5,-429 578.5,-429"/>
</a>
</g>
</g>
<!-- Node9&#45;&gt;Node2 -->
<g id="edge9_Node000002_Node000009" class="edge">
<title>Node9&#45;&gt;Node2</title>
<g id="a_edge9_Node000002_Node000009"><a xlink:title=" ">
<path fill="none" stroke="#63b8ff" d="M612.15,-428.66C608.94,-411.4 604.54,-393.96 598.5,-378 594.92,-368.55 590.47,-359.08 585.52,-349.86"/>
<polygon fill="none" stroke="#63b8ff" points="585.39,-349.63 578.96,-346.36 579.51,-339.17 585.93,-342.44 585.39,-349.63"/>
</a>
</g>
<text text-anchor="middle" x="627.5" y="-392" font-family="Helvetica,sans-Serif" font-size="10.00" fill="grey"> #_state</text>
</g>
<!-- Node10 -->
<g id="Node000010" class="node">
<title>Node10</title>
<g id="a_Node000010"><a xlink:title=" ">
<polygon fill="white" stroke="transparent" points="712.5,-560.5 680.5,-560.5 680.5,-511.5 712.5,-511.5 712.5,-560.5"/>
<text text-anchor="start" x="685.5" y="-548" font-family="Helvetica,sans-Serif" font-size="10.00">float</text>
<text text-anchor="start" x="694.5" y="-533" font-family="Helvetica,sans-Serif" font-size="10.00"> </text>
<text text-anchor="start" x="694.5" y="-518" font-family="Helvetica,sans-Serif" font-size="10.00"> </text>
<polygon fill="#666666" stroke="#666666" points="680.5,-543 680.5,-543 712.5,-543 712.5,-543 680.5,-543"/>
<polygon fill="#666666" stroke="#666666" points="680.5,-528 680.5,-528 712.5,-528 712.5,-528 680.5,-528"/>
<polygon fill="none" stroke="#666666" points="680.5,-511.5 680.5,-560.5 712.5,-560.5 712.5,-511.5 680.5,-511.5"/>
</a>
</g>
</g>
<!-- Node10&#45;&gt;Node2 -->
<g id="edge10_Node000002_Node000010" class="edge">
<title>Node10&#45;&gt;Node2</title>
<g id="a_edge10_Node000002_Node000010"><a xlink:title=" ">
<path fill="none" stroke="#63b8ff" d="M694.63,-511.46C691.06,-478.9 680.88,-419.46 652.5,-378 635.35,-352.95 611.68,-329.73 589.17,-310.72"/>
<polygon fill="none" stroke="#63b8ff" points="588.87,-310.48 581.7,-309.74 579.61,-302.84 586.79,-303.57 588.87,-310.48"/>
</a>
</g>
<text text-anchor="middle" x="691" y="-403" font-family="Helvetica,sans-Serif" font-size="10.00" fill="grey"> #_angle</text>
<text text-anchor="middle" x="691" y="-392" font-family="Helvetica,sans-Serif" font-size="10.00" fill="grey">#_height</text>
<text text-anchor="middle" x="691" y="-381" font-family="Helvetica,sans-Serif" font-size="10.00" fill="grey">#_width</text>
</g>
<!-- Node11 -->
<g id="Node000011" class="node">
<title>Node11</title>
<g id="a_Node000011"><a xlink:title=" ">
<polygon fill="white" stroke="transparent" points="431,-754 386,-754 386,-705 431,-705 431,-754"/>
<text text-anchor="start" x="391.5" y="-741.5" font-family="Helvetica,sans-Serif" font-size="10.00">Point2f</text>
<text text-anchor="start" x="407" y="-726.5" font-family="Helvetica,sans-Serif" font-size="10.00"> </text>
<text text-anchor="start" x="407" y="-711.5" font-family="Helvetica,sans-Serif" font-size="10.00"> </text>
<polygon fill="#666666" stroke="#666666" points="386.5,-736.5 386.5,-736.5 431.5,-736.5 431.5,-736.5 386.5,-736.5"/>
<polygon fill="#666666" stroke="#666666" points="386.5,-721.5 386.5,-721.5 431.5,-721.5 431.5,-721.5 386.5,-721.5"/>
<polygon fill="none" stroke="#666666" points="386,-705 386,-754 431,-754 431,-705 386,-705"/>
</a>
</g>
</g>
<!-- Node11&#45;&gt;Node2 -->
<g id="edge11_Node000002_Node000011" class="edge">
<title>Node11&#45;&gt;Node2</title>
<g id="a_edge11_Node000002_Node000011"><a xlink:title=" ">
<path fill="none" stroke="#63b8ff" d="M405.15,-704.92C398.7,-653.48 387.69,-527.86 417.5,-429 426.14,-400.34 441.01,-371.72 456.85,-346.45"/>
<polygon fill="none" stroke="#63b8ff" points="456.95,-346.29 456.83,-339.08 463.44,-336.2 463.56,-343.41 456.95,-346.29"/>
</a>
</g>
<text text-anchor="middle" x="459.5" y="-544.5" font-family="Helvetica,sans-Serif" font-size="10.00" fill="grey"> #_center</text>
<text text-anchor="middle" x="459.5" y="-533.5" font-family="Helvetica,sans-Serif" font-size="10.00" fill="grey">#_relative_angle</text>
<text text-anchor="middle" x="459.5" y="-522.5" font-family="Helvetica,sans-Serif" font-size="10.00" fill="grey">#_speed</text>
</g>
<!-- Node12 -->
<g id="Node000012" class="node">
<title>Node12</title>
<g id="a_Node000012"><a xlink:title=" ">
<polygon fill="white" stroke="transparent" points="372.5,-560.5 236.5,-560.5 236.5,-511.5 372.5,-511.5 372.5,-560.5"/>
<text text-anchor="start" x="241.5" y="-548" font-family="Helvetica,sans-Serif" font-size="10.00">std::vector&lt; cv::Point2f &gt;</text>
<text text-anchor="start" x="302.5" y="-533" font-family="Helvetica,sans-Serif" font-size="10.00"> </text>
<text text-anchor="start" x="302.5" y="-518" font-family="Helvetica,sans-Serif" font-size="10.00"> </text>
<polygon fill="#666666" stroke="#666666" points="236.5,-543 236.5,-543 372.5,-543 372.5,-543 236.5,-543"/>
<polygon fill="#666666" stroke="#666666" points="236.5,-528 236.5,-528 372.5,-528 372.5,-528 236.5,-528"/>
<polygon fill="none" stroke="#666666" points="236.5,-511.5 236.5,-560.5 372.5,-560.5 372.5,-511.5 236.5,-511.5"/>
</a>
</g>
</g>
<!-- Node11&#45;&gt;Node12 -->
<g id="edge13_Node000012_Node000011" class="edge">
<title>Node11&#45;&gt;Node12</title>
<g id="a_edge13_Node000012_Node000011"><a xlink:title=" ">
<path fill="none" stroke="#63b8ff" d="M388.12,-704.81C383,-699.58 377.3,-694.32 371.5,-690 357.47,-679.55 347.28,-685.77 336.5,-672 314.25,-643.58 307.08,-602.19 304.97,-572.74"/>
<polygon fill="none" stroke="#63b8ff" points="304.95,-572.51 300.65,-566.73 304.33,-560.53 308.63,-566.31 304.95,-572.51"/>
</a>
</g>
<text text-anchor="middle" x="365.5" y="-664" font-family="Helvetica,sans-Serif" font-size="10.00" fill="grey"> +elements</text>
</g>
<!-- Node12&#45;&gt;Node2 -->
<g id="edge12_Node000002_Node000012" class="edge">
<title>Node12&#45;&gt;Node2</title>
<g id="a_edge12_Node000002_Node000012"><a xlink:title=" ">
<path fill="none" stroke="#63b8ff" d="M304.73,-511.23C306.15,-478.4 312.87,-418.63 341.5,-378 369.02,-338.95 414.18,-309.78 452.38,-290.39"/>
<polygon fill="none" stroke="#63b8ff" points="452.7,-290.23 456.32,-283.99 463.47,-284.93 459.85,-291.17 452.7,-290.23"/>
</a>
</g>
<text text-anchor="middle" x="368" y="-392" font-family="Helvetica,sans-Serif" font-size="10.00" fill="grey"> #_corners</text>
</g>
<!-- Node13&#45;&gt;Node12 -->
<g id="edge14_Node000012_Node000013" class="edge">
<title>Node13&#45;&gt;Node12</title>
<g id="a_edge14_Node000012_Node000013"><a xlink:title=" ">
<path fill="none" stroke="orange" d="M284.7,-843.52C289.15,-774.54 299.16,-619.61 302.98,-560.52"/>
<polygon fill="orange" stroke="orange" points="281.18,-843.62 284.03,-853.83 288.17,-844.07 281.18,-843.62"/>
</a>
</g>
<text text-anchor="middle" x="334" y="-727" font-family="Helvetica,sans-Serif" font-size="10.00" fill="grey"> &lt; cv::Point2f &gt;</text>
</g>
<!-- Node14 -->
<g id="Node000014" class="node">
<title>Node14</title>
<g id="a_Node000014"><a xlink:href="../../da/dbf/classrm_1_1CameraExtrinsics.html" target="_top" xlink:title="相机外参">
<polygon fill="white" stroke="transparent" points="846.5,-643 730.5,-643 730.5,-429 846.5,-429 846.5,-643"/>
<text text-anchor="start" x="735.5" y="-631" font-family="Helvetica,sans-Serif" font-size="10.00">rm::CameraExtrinsics</text>
<text text-anchor="start" x="786.5" y="-616" font-family="Helvetica,sans-Serif" font-size="10.00"> </text>
<text text-anchor="start" x="746" y="-601" font-family="Helvetica,sans-Serif" font-size="10.00">+</text>
<text text-anchor="start" x="770.5" y="-601" font-family="Helvetica,sans-Serif" font-size="10.00">tvec()</text>
<text text-anchor="start" x="746" y="-586" font-family="Helvetica,sans-Serif" font-size="10.00">+</text>
<text text-anchor="start" x="770.5" y="-586" font-family="Helvetica,sans-Serif" font-size="10.00">rvec()</text>
<text text-anchor="start" x="746" y="-571" font-family="Helvetica,sans-Serif" font-size="10.00">+</text>
<text text-anchor="start" x="770.5" y="-571" font-family="Helvetica,sans-Serif" font-size="10.00">R()</text>
<text text-anchor="start" x="746" y="-556" font-family="Helvetica,sans-Serif" font-size="10.00">+</text>
<text text-anchor="start" x="770.5" y="-556" font-family="Helvetica,sans-Serif" font-size="10.00">T()</text>
<text text-anchor="start" x="746" y="-541" font-family="Helvetica,sans-Serif" font-size="10.00">+</text>
<text text-anchor="start" x="770.5" y="-541" font-family="Helvetica,sans-Serif" font-size="10.00">yaw()</text>
<text text-anchor="start" x="746" y="-526" font-family="Helvetica,sans-Serif" font-size="10.00">+</text>
<text text-anchor="start" x="770.5" y="-526" font-family="Helvetica,sans-Serif" font-size="10.00">pitch()</text>
<text text-anchor="start" x="746" y="-511" font-family="Helvetica,sans-Serif" font-size="10.00">+</text>
<text text-anchor="start" x="770.5" y="-511" font-family="Helvetica,sans-Serif" font-size="10.00">roll()</text>
<text text-anchor="start" x="746" y="-496" font-family="Helvetica,sans-Serif" font-size="10.00">+</text>
<text text-anchor="start" x="770.5" y="-496" font-family="Helvetica,sans-Serif" font-size="10.00">distance()</text>
<text text-anchor="start" x="746" y="-481" font-family="Helvetica,sans-Serif" font-size="10.00">+</text>
<text text-anchor="start" x="770.5" y="-481" font-family="Helvetica,sans-Serif" font-size="10.00">tvec()</text>
<text text-anchor="start" x="746" y="-466" font-family="Helvetica,sans-Serif" font-size="10.00">+</text>
<text text-anchor="start" x="770.5" y="-466" font-family="Helvetica,sans-Serif" font-size="10.00">rvec()</text>
<text text-anchor="start" x="746" y="-451" font-family="Helvetica,sans-Serif" font-size="10.00">+</text>
<text text-anchor="start" x="770.5" y="-451" font-family="Helvetica,sans-Serif" font-size="10.00">R()</text>
<text text-anchor="start" x="746" y="-436" font-family="Helvetica,sans-Serif" font-size="10.00">+</text>
<text text-anchor="start" x="770.5" y="-436" font-family="Helvetica,sans-Serif" font-size="10.00">distance()</text>
<polygon fill="#666666" stroke="#666666" points="730.5,-626 730.5,-626 846.5,-626 846.5,-626 730.5,-626"/>
<polygon fill="#666666" stroke="#666666" points="730.5,-611 730.5,-611 846.5,-611 846.5,-611 730.5,-611"/>
<polygon fill="none" stroke="#666666" points="730.5,-429 730.5,-643 846.5,-643 846.5,-429 730.5,-429"/>
</a>
</g>
</g>
<!-- Node14&#45;&gt;Node2 -->
<g id="edge16_Node000002_Node000014" class="edge">
<title>Node14&#45;&gt;Node2</title>
<g id="a_edge16_Node000002_Node000014"><a xlink:title=" ">
<path fill="none" stroke="#63b8ff" d="M751.18,-428.65C741.92,-410.55 730.76,-392.83 717.5,-378 682.82,-339.21 632.07,-309.54 590.91,-289.85"/>
<polygon fill="none" stroke="#63b8ff" points="590.72,-289.76 583.59,-290.85 579.85,-284.69 586.98,-283.6 590.72,-289.76"/>
</a>
</g>
<text text-anchor="middle" x="769" y="-392" font-family="Helvetica,sans-Serif" font-size="10.00" fill="grey"> #_extrinsic</text>
</g>
</g>
</svg>

<g id="navigator" transform="translate(0 0)" fill="#404254">
  <rect fill="#f2f5e9" fill-opacity="0.5" stroke="#606060" stroke-width=".5" x="0" y="0" width="60" height="60"/>
  <use id="zoomplus" xlink:href="#zoomPlus" x="17" y="9" onmousedown="handleZoom(evt,'in')"/>
  <use id="zoomminus" xlink:href="#zoomMin" x="42" y="9" onmousedown="handleZoom(evt,'out')"/>
  <use id="reset" xlink:href="#resetDef" x="30" y="36" onmousedown="handleReset()"/>
   <use id="arrowup" xlink:href="#arrowUp" x="0" y="0" onmousedown="handlePan(0,-1)"/>
  <use id="arrowright" xlink:href="#arrowRight" x="0" y="0" onmousedown="handlePan(1,0)"/>
  <use id="arrowdown" xlink:href="#arrowDown" x="0" y="0" onmousedown="handlePan(0,1)"/>
  <use id="arrowleft" xlink:href="#arrowLeft" x="0" y="0" onmousedown="handlePan(-1,0)"/>
</g>
<svg viewBox="0 0 15 15" width="100%" height="30px" preserveAspectRatio="xMaxYMin meet">
 <g id="arrow_out" transform="scale(0.3 0.3)">
  <a xlink:href="classrm_1_1DefaultTracker__coll__graph_org.svg" target="_base">
   <rect id="button" ry="5" rx="5" y="6" x="6" height="38" width="38"
        fill="#f2f5e9" fill-opacity="0.5" stroke="#606060" stroke-width="1.0"/>
   <path id="arrow"
     d="M 11.500037,31.436501 C 11.940474,20.09759 22.043105,11.32322 32.158766,21.979434 L 37.068811,17.246167 C 37.068811,17.246167 37.088388,32 37.088388,32 L 22.160133,31.978069 C 22.160133,31.978069 26.997745,27.140456 26.997745,27.140456 C 18.528582,18.264221 13.291696,25.230495 11.500037,31.436501 z"
     style="fill:#404040;"/>
  </a>
 </g>
</svg>

<style type='text/css'>
<![CDATA[
[data-mouse-over-selected='false'] { opacity: 0.7; }
[data-mouse-over-selected='true']  { opacity: 1.0; }
]]>
</style>
<script type="application/ecmascript"><![CDATA[
document.addEventListener('DOMContentLoaded', (event) => {
  highlightEdges();
  highlightAdjacentNodes();
});
]]></script>
</svg>
