<?xml version="1.0" encoding="UTF-8" standalone="no"?>
<!DOCTYPE svg PUBLIC "-//W3C//DTD SVG 1.1//EN"
 "http://www.w3.org/Graphics/SVG/1.1/DTD/svg11.dtd">
<!-- Generated by graphviz version 14.1.2 (0)
 -->
<!-- Title: rm::ua::PublishedDataSet Pages: 1 -->
<!--zoomable 494 -->

<svg id="main" version="1.1" xmlns="http://www.w3.org/2000/svg" xmlns:xlink="http://www.w3.org/1999/xlink" xml:space="preserve" onload="init(evt)">

<style type="text/css"><![CDATA[
.node, .edge {opacity: 0.7;}
.node.selected, .edge.selected {opacity: 1;}
.edge:hover path { stroke: red; }
.edge:hover polygon { stroke: red; fill: red; }
]]></style>

<defs>
  <circle id="rim" cx="0" cy="0" r="7"/>
  <circle id="rim2" cx="0" cy="0" r="3.5"/>
  <g id="zoomPlus">
    <use xlink:href="#rim" fill="#404040"><set attributeName="fill" to="#808080" begin="zoomplus.mouseover" end="zoomplus.mouseout"/></use>
    <path d="M-4,0h8M0,-4v8" fill="none" stroke="white" stroke-width="1.5" pointer-events="none"/>
  </g>
  <g id="zoomMin">
    <use xlink:href="#rim" fill="#404040"><set attributeName="fill" to="#808080" begin="zoomminus.mouseover" end="zoomminus.mouseout"/></use>
    <path d="M-4,0h8" fill="none" stroke="white" stroke-width="1.5" pointer-events="none"/>
  </g>
  <g id="arrowUp" transform="translate(30 24)">
    <use xlink:href="#rim"/>
    <path pointer-events="none" fill="none" stroke="white" stroke-width="1.5" d="M0,-3.0v7 M-2.5,-0.5L0,-3.0L2.5,-0.5"/>
  </g>
  <g id="arrowRight" transform="rotate(90) translate(36 -43)">
    <use xlink:href="#rim"/>
    <path pointer-events="none" fill="none" stroke="white" stroke-width="1.5" d="M0,-3.0v7 M-2.5,-0.5L0,-3.0L2.5,-0.5"/>
  </g>
  <g id="arrowDown" transform="rotate(180) translate(-30 -48)">
    <use xlink:href="#rim"/>
    <path pointer-events="none" fill="none" stroke="white" stroke-width="1.5" d="M0,-3.0v7 M-2.5,-0.5L0,-3.0L2.5,-0.5"/>
  </g>
  <g id="arrowLeft" transform="rotate(270) translate(-36 17)">
    <use xlink:href="#rim"/>
    <path pointer-events="none" fill="none" stroke="white" stroke-width="1.5" d="M0,-3.0v7 M-2.5,-0.5L0,-3.0L2.5,-0.5"/>
  </g>
  <g id="resetDef">
    <use xlink:href="#rim2" fill="#404040"><set attributeName="fill" to="#808080" begin="reset.mouseover" end="reset.mouseout"/></use>
  </g>
</defs>
<script type="application/ecmascript">
var viewWidth = 245;
var viewHeight = 494;
var sectionId = 'dynsection-0';
</script>
<script type="application/ecmascript" xlink:href="../../svg.min.js"/>
<svg id="graph" class="graph">
<g id="viewport">
<title>rm::ua::PublishedDataSet</title>
<!-- Node1 -->
<g id="Node000001" class="node">
<title>Node1</title>
<g id="a_Node000001"><a xlink:title="待发布的数据集 (PDS)">
<polygon fill="#999999" stroke="none" points="167.75,-54.25 36,-54.25 36,0 167.75,0 167.75,-54.25"/>
<text xml:space="preserve" text-anchor="start" x="40" y="-40.75" font-family="Helvetica,sans-Serif" font-size="10.00">rm::ua::PublishedDataSet</text>
<text xml:space="preserve" text-anchor="start" x="100.38" y="-24" font-family="Helvetica,sans-Serif" font-size="10.00"> </text>
<text xml:space="preserve" text-anchor="start" x="100.38" y="-7.25" font-family="Helvetica,sans-Serif" font-size="10.00"> </text>
<polygon fill="#666666" stroke="#666666" points="36,-35.5 36,-35.5 167.75,-35.5 167.75,-35.5 36,-35.5"/>
<polygon fill="#666666" stroke="#666666" points="36,-18.75 36,-18.75 167.75,-18.75 167.75,-18.75 36,-18.75"/>
<polygon fill="none" stroke="#666666" points="36,0 36,-54.25 167.75,-54.25 167.75,0 36,0"/>
</a>
</g>
</g>
<!-- Node2 -->
<g id="Node000002" class="node">
<title>Node2</title>
<g id="a_Node000002"><a xlink:title=" ">
<polygon fill="white" stroke="none" points="76.25,-263.75 19.5,-263.75 19.5,-209.5 76.25,-209.5 76.25,-263.75"/>
<text xml:space="preserve" text-anchor="start" x="23.5" y="-250.25" font-family="Helvetica,sans-Serif" font-size="10.00">std::string</text>
<text xml:space="preserve" text-anchor="start" x="46.38" y="-233.5" font-family="Helvetica,sans-Serif" font-size="10.00"> </text>
<text xml:space="preserve" text-anchor="start" x="46.38" y="-216.75" font-family="Helvetica,sans-Serif" font-size="10.00"> </text>
<polygon fill="#666666" stroke="#666666" points="19.5,-245 19.5,-245 76.25,-245 76.25,-245 19.5,-245"/>
<polygon fill="#666666" stroke="#666666" points="19.5,-228.25 19.5,-228.25 76.25,-228.25 76.25,-228.25 19.5,-228.25"/>
<polygon fill="none" stroke="#666666" points="19.5,-209.5 19.5,-263.75 76.25,-263.75 76.25,-209.5 19.5,-209.5"/>
</a>
</g>
</g>
<!-- Node2&#45;&gt;Node1 -->
<g id="edge1_Node000001_Node000002" class="edge">
<title>Node2&#45;&gt;Node1</title>
<g id="a_edge1_Node000001_Node000002"><a xlink:title=" ">
<path fill="none" stroke="#63b8ff" d="M51.46,-209.7C56.38,-177.09 66.42,-119.62 81.88,-72.25 82.56,-70.16 83.31,-68.04 84.11,-65.91"/>
<polygon fill="none" stroke="#63b8ff" points="84.15,-65.81 82.73,-58.74 88.71,-54.71 90.13,-61.78 84.15,-65.81"/>
</a>
</g>
<text xml:space="preserve" text-anchor="start" x="84.88" y="-78.5" font-family="Helvetica,sans-Serif" font-size="10.00" fill="grey">+name</text>
</g>
<!-- Node3 -->
<g id="Node000003" class="node">
<title>Node3</title>
<g id="a_Node000003"><a xlink:title=" ">
<polygon fill="white" stroke="none" points="95.75,-486 0,-486 0,-419 95.75,-419 95.75,-486"/>
<text xml:space="preserve" text-anchor="start" x="4" y="-472.5" font-family="Helvetica,sans-Serif" font-size="10.00">std::basic_string&lt;</text>
<text xml:space="preserve" text-anchor="start" x="29.5" y="-459.75" font-family="Helvetica,sans-Serif" font-size="10.00"> Char &gt;</text>
<text xml:space="preserve" text-anchor="start" x="46.38" y="-443" font-family="Helvetica,sans-Serif" font-size="10.00"> </text>
<text xml:space="preserve" text-anchor="start" x="46.38" y="-426.25" font-family="Helvetica,sans-Serif" font-size="10.00"> </text>
<polygon fill="#666666" stroke="#666666" points="0,-454.5 0,-454.5 95.75,-454.5 95.75,-454.5 0,-454.5"/>
<polygon fill="#666666" stroke="#666666" points="0,-437.75 0,-437.75 95.75,-437.75 95.75,-437.75 0,-437.75"/>
<polygon fill="none" stroke="#666666" points="0,-419 0,-486 95.75,-486 95.75,-419 0,-419"/>
</a>
</g>
</g>
<!-- Node3&#45;&gt;Node2 -->
<g id="edge2_Node000002_Node000003" class="edge">
<title>Node3&#45;&gt;Node2</title>
<g id="a_edge2_Node000002_Node000003"><a xlink:title=" ">
<path fill="none" stroke="#63b8ff" d="M47.88,-407.68C47.88,-364.34 47.88,-299.46 47.88,-263.67"/>
<polygon fill="none" stroke="#63b8ff" points="44.38,-407.5 47.88,-417.5 51.38,-407.5 44.38,-407.5"/>
</a>
</g>
</g>
<!-- Node4 -->
<g id="Node000004" class="node">
<title>Node4</title>
<g id="a_Node000004"><a xlink:href="../../da/d81/classrm_1_1ua_1_1NodeId.html" target="_top" xlink:title="OPC UA 节点 ID">
<polygon fill="white" stroke="none" points="219.88,-364.25 93.88,-364.25 93.88,-109 219.88,-109 219.88,-364.25"/>
<text xml:space="preserve" text-anchor="start" x="120.88" y="-350.75" font-family="Helvetica,sans-Serif" font-size="10.00">rm::ua::NodeId</text>
<text xml:space="preserve" text-anchor="start" x="155.38" y="-334" font-family="Helvetica,sans-Serif" font-size="10.00"> </text>
<text xml:space="preserve" text-anchor="start" x="97.88" y="-317.25" font-family="Helvetica,sans-Serif" font-size="10.00">+</text>
<text xml:space="preserve" text-anchor="start" x="110.12" y="-317.25" font-family="Helvetica,sans-Serif" font-size="10.00">NodeId()</text>
<text xml:space="preserve" text-anchor="start" x="97.88" y="-300.5" font-family="Helvetica,sans-Serif" font-size="10.00">+</text>
<text xml:space="preserve" text-anchor="start" x="110.12" y="-300.5" font-family="Helvetica,sans-Serif" font-size="10.00">NodeId()</text>
<text xml:space="preserve" text-anchor="start" x="97.88" y="-283.75" font-family="Helvetica,sans-Serif" font-size="10.00">+</text>
<text xml:space="preserve" text-anchor="start" x="110.12" y="-283.75" font-family="Helvetica,sans-Serif" font-size="10.00">NodeId()</text>
<text xml:space="preserve" text-anchor="start" x="97.88" y="-267" font-family="Helvetica,sans-Serif" font-size="10.00">+</text>
<text xml:space="preserve" text-anchor="start" x="110.12" y="-267" font-family="Helvetica,sans-Serif" font-size="10.00">NodeId()</text>
<text xml:space="preserve" text-anchor="start" x="97.88" y="-250.25" font-family="Helvetica,sans-Serif" font-size="10.00">+</text>
<text xml:space="preserve" text-anchor="start" x="110.12" y="-250.25" font-family="Helvetica,sans-Serif" font-size="10.00">NodeId()</text>
<text xml:space="preserve" text-anchor="start" x="97.88" y="-233.5" font-family="Helvetica,sans-Serif" font-size="10.00">+</text>
<text xml:space="preserve" text-anchor="start" x="110.12" y="-233.5" font-family="Helvetica,sans-Serif" font-size="10.00">operator=()</text>
<text xml:space="preserve" text-anchor="start" x="97.88" y="-216.75" font-family="Helvetica,sans-Serif" font-size="10.00">+</text>
<text xml:space="preserve" text-anchor="start" x="110.12" y="-216.75" font-family="Helvetica,sans-Serif" font-size="10.00">operator=()</text>
<text xml:space="preserve" text-anchor="start" x="97.88" y="-200" font-family="Helvetica,sans-Serif" font-size="10.00">+</text>
<text xml:space="preserve" text-anchor="start" x="110.12" y="-200" font-family="Helvetica,sans-Serif" font-size="10.00">operator==()</text>
<text xml:space="preserve" text-anchor="start" x="97.88" y="-183.25" font-family="Helvetica,sans-Serif" font-size="10.00">+</text>
<text xml:space="preserve" text-anchor="start" x="110.12" y="-183.25" font-family="Helvetica,sans-Serif" font-size="10.00">operator!=()</text>
<text xml:space="preserve" text-anchor="start" x="97.88" y="-166.5" font-family="Helvetica,sans-Serif" font-size="10.00">+</text>
<text xml:space="preserve" text-anchor="start" x="110.12" y="-166.5" font-family="Helvetica,sans-Serif" font-size="10.00">operator UA_NodeId()</text>
<text xml:space="preserve" text-anchor="start" x="97.88" y="-149.75" font-family="Helvetica,sans-Serif" font-size="10.00">+</text>
<text xml:space="preserve" text-anchor="start" x="110.12" y="-149.75" font-family="Helvetica,sans-Serif" font-size="10.00">data()</text>
<text xml:space="preserve" text-anchor="start" x="97.88" y="-133" font-family="Helvetica,sans-Serif" font-size="10.00">+</text>
<text xml:space="preserve" text-anchor="start" x="110.12" y="-133" font-family="Helvetica,sans-Serif" font-size="10.00">empty()</text>
<text xml:space="preserve" text-anchor="start" x="97.88" y="-116.25" font-family="Helvetica,sans-Serif" font-size="10.00">+</text>
<text xml:space="preserve" text-anchor="start" x="110.12" y="-116.25" font-family="Helvetica,sans-Serif" font-size="10.00">clear()</text>
<polygon fill="#666666" stroke="#666666" points="93.88,-345.5 93.88,-345.5 219.88,-345.5 219.88,-345.5 93.88,-345.5"/>
<polygon fill="#666666" stroke="#666666" points="93.88,-328.75 93.88,-328.75 219.88,-328.75 219.88,-328.75 93.88,-328.75"/>
<polygon fill="none" stroke="#666666" points="93.88,-109 93.88,-364.25 219.88,-364.25 219.88,-109 93.88,-109"/>
</a>
</g>
</g>
<!-- Node4&#45;&gt;Node1 -->
<g id="edge3_Node000001_Node000004" class="edge">
<title>Node4&#45;&gt;Node1</title>
<g id="a_edge3_Node000001_Node000004"><a xlink:title=" ">
<path fill="none" stroke="#63b8ff" d="M134.86,-109.41C131.62,-96.73 127.96,-84.15 123.88,-72.25 123.17,-70.19 122.38,-68.1 121.54,-66.02"/>
<polygon fill="none" stroke="#63b8ff" points="121.55,-66.02 115.45,-62.17 116.67,-55.06 122.76,-58.92 121.55,-66.02"/>
</a>
</g>
<text xml:space="preserve" text-anchor="start" x="132.36" y="-78.5" font-family="Helvetica,sans-Serif" font-size="10.00" fill="grey">+node_id</text>
</g>
<!-- Node5 -->
<g id="Node000005" class="node">
<title>Node5</title>
<g id="a_Node000005"><a xlink:title=" ">
<polygon fill="white" stroke="none" points="170.75,-479.62 123,-479.62 123,-425.38 170.75,-425.38 170.75,-479.62"/>
<text xml:space="preserve" text-anchor="start" x="127" y="-466.12" font-family="Helvetica,sans-Serif" font-size="10.00">uint16_t</text>
<text xml:space="preserve" text-anchor="start" x="145.38" y="-449.38" font-family="Helvetica,sans-Serif" font-size="10.00"> </text>
<text xml:space="preserve" text-anchor="start" x="145.38" y="-432.62" font-family="Helvetica,sans-Serif" font-size="10.00"> </text>
<polygon fill="#666666" stroke="#666666" points="123,-460.88 123,-460.88 170.75,-460.88 170.75,-460.88 123,-460.88"/>
<polygon fill="#666666" stroke="#666666" points="123,-444.12 123,-444.12 170.75,-444.12 170.75,-444.12 123,-444.12"/>
<polygon fill="none" stroke="#666666" points="123,-425.38 123,-479.62 170.75,-479.62 170.75,-425.38 123,-425.38"/>
</a>
</g>
</g>
<!-- Node5&#45;&gt;Node4 -->
<g id="edge4_Node000004_Node000005" class="edge">
<title>Node5&#45;&gt;Node4</title>
<g id="a_edge4_Node000004_Node000005"><a xlink:title=" ">
<path fill="none" stroke="#63b8ff" d="M148.08,-425.7C148.69,-412.61 149.49,-395.59 150.35,-377.13"/>
<polygon fill="none" stroke="#63b8ff" points="150.36,-377.05 146.64,-370.87 150.92,-365.06 154.63,-371.24 150.36,-377.05"/>
</a>
</g>
<text xml:space="preserve" text-anchor="start" x="153.11" y="-388.5" font-family="Helvetica,sans-Serif" font-size="10.00" fill="grey">+ns</text>
</g>
<!-- Node6 -->
<g id="Node000006" class="node">
<title>Node6</title>
<g id="a_Node000006"><a xlink:title=" ">
<polygon fill="white" stroke="none" points="236.75,-479.62 189,-479.62 189,-425.38 236.75,-425.38 236.75,-479.62"/>
<text xml:space="preserve" text-anchor="start" x="193" y="-466.12" font-family="Helvetica,sans-Serif" font-size="10.00">uint32_t</text>
<text xml:space="preserve" text-anchor="start" x="211.38" y="-449.38" font-family="Helvetica,sans-Serif" font-size="10.00"> </text>
<text xml:space="preserve" text-anchor="start" x="211.38" y="-432.62" font-family="Helvetica,sans-Serif" font-size="10.00"> </text>
<polygon fill="#666666" stroke="#666666" points="189,-460.88 189,-460.88 236.75,-460.88 236.75,-460.88 189,-460.88"/>
<polygon fill="#666666" stroke="#666666" points="189,-444.12 189,-444.12 236.75,-444.12 236.75,-444.12 189,-444.12"/>
<polygon fill="none" stroke="#666666" points="189,-425.38 189,-479.62 236.75,-479.62 236.75,-425.38 189,-425.38"/>
</a>
</g>
</g>
<!-- Node6&#45;&gt;Node4 -->
<g id="edge5_Node000004_Node000006" class="edge">
<title>Node6&#45;&gt;Node4</title>
<g id="a_edge5_Node000004_Node000006"><a xlink:title=" ">
<path fill="none" stroke="#63b8ff" d="M206.12,-425.7C202.66,-412.49 198.15,-395.26 193.26,-376.6"/>
<polygon fill="none" stroke="#63b8ff" points="193.27,-376.64 187.89,-371.85 190.23,-365.03 195.62,-369.82 193.27,-376.64"/>
</a>
</g>
<text xml:space="preserve" text-anchor="start" x="202.34" y="-388.5" font-family="Helvetica,sans-Serif" font-size="10.00" fill="grey">+id</text>
</g>
</g>
</svg>

<g id="navigator" transform="translate(0 0)" fill="#404254">
  <rect fill="#f2f5e9" fill-opacity="0.5" stroke="#606060" stroke-width=".5" x="0" y="0" width="60" height="60"/>
  <use id="zoomplus" xlink:href="#zoomPlus" x="17" y="9" onmousedown="handleZoom(evt,'in')"/>
  <use id="zoomminus" xlink:href="#zoomMin" x="42" y="9" onmousedown="handleZoom(evt,'out')"/>
  <use id="reset" xlink:href="#resetDef" x="30" y="36" onmousedown="handleReset()"/>
   <use id="arrowup" xlink:href="#arrowUp" x="0" y="0" onmousedown="handlePan(0,-1)"/>
  <use id="arrowright" xlink:href="#arrowRight" x="0" y="0" onmousedown="handlePan(1,0)"/>
  <use id="arrowdown" xlink:href="#arrowDown" x="0" y="0" onmousedown="handlePan(0,1)"/>
  <use id="arrowleft" xlink:href="#arrowLeft" x="0" y="0" onmousedown="handlePan(-1,0)"/>
</g>
<svg viewBox="0 0 15 15" width="100%" height="30px" preserveAspectRatio="xMaxYMin meet">
 <g id="arrow_out" transform="scale(0.3 0.3)">
  <a xlink:href="structrm_1_1ua_1_1PublishedDataSet__coll__graph_org.svg" target="_base">
   <rect id="button" ry="5" rx="5" y="6" x="6" height="38" width="38"
        fill="#f2f5e9" fill-opacity="0.5" stroke="#606060" stroke-width="1.0"/>
   <path id="arrow"
     d="M 11.500037,31.436501 C 11.940474,20.09759 22.043105,11.32322 32.158766,21.979434 L 37.068811,17.246167 C 37.068811,17.246167 37.088388,32 37.088388,32 L 22.160133,31.978069 C 22.160133,31.978069 26.997745,27.140456 26.997745,27.140456 C 18.528582,18.264221 13.291696,25.230495 11.500037,31.436501 z"
     style="fill:#404040;"/>
  </a>
 </g>
</svg>

<style type='text/css'>
<![CDATA[
[data-mouse-over-selected='false'] { opacity: 0.7; }
[data-mouse-over-selected='true']  { opacity: 1.0; }
]]>
</style>
<script type="application/ecmascript"><![CDATA[
document.addEventListener('DOMContentLoaded', (event) => {
  highlightEdges();
  highlightAdjacentNodes();
});
]]></script>
</svg>
