<?xml version="1.0" encoding="UTF-8" standalone="no"?>
<!DOCTYPE svg PUBLIC "-//W3C//DTD SVG 1.1//EN"
 "http://www.w3.org/Graphics/SVG/1.1/DTD/svg11.dtd">
<!-- Generated by graphviz version 2.43.0 (0)
 -->
<!-- Title: rm::group Pages: 1 -->
<svg width="986pt" height="510pt"
 viewBox="0.00 0.00 986.00 510.00" xmlns="http://www.w3.org/2000/svg" xmlns:xlink="http://www.w3.org/1999/xlink">
<g id="graph0" class="graph" transform="scale(1 1) rotate(0) translate(4 506)">
<title>rm::group</title>
<!-- Node1 -->
<g id="Node000001" class="node">
<title>Node1</title>
<g id="a_Node000001"><a xlink:title="相关追踪器的空间集合（序列组）">
<polygon fill="#999999" stroke="transparent" points="422,-199 306,-199 306,0 422,0 422,-199"/>
<text text-anchor="start" x="340" y="-186.5" font-family="Helvetica,sans-Serif" font-size="10.00">rm::group</text>
<text text-anchor="start" x="362" y="-171.5" font-family="Helvetica,sans-Serif" font-size="10.00"> </text>
<text text-anchor="start" x="310" y="-156.5" font-family="Helvetica,sans-Serif" font-size="10.00">+</text>
<text text-anchor="start" x="323" y="-156.5" font-family="Helvetica,sans-Serif" font-size="10.00">group()</text>
<text text-anchor="start" x="310" y="-141.5" font-family="Helvetica,sans-Serif" font-size="10.00">+</text>
<text text-anchor="start" x="323" y="-141.5" font-family="Helvetica,sans-Serif" font-size="10.00">~group()</text>
<text text-anchor="start" x="310" y="-126.5" font-family="Helvetica,sans-Serif" font-size="10.00">+</text>
<text text-anchor="start" x="323" y="-126.5" font-family="Helvetica,sans-Serif" font-size="10.00">sync()</text>
<text text-anchor="start" x="310" y="-111.5" font-family="Helvetica,sans-Serif" font-size="10.00">+</text>
<text text-anchor="start" x="323" y="-111.5" font-family="Helvetica,sans-Serif" font-size="10.00">add()</text>
<text text-anchor="start" x="310" y="-96.5" font-family="Helvetica,sans-Serif" font-size="10.00">+</text>
<text text-anchor="start" x="323" y="-96.5" font-family="Helvetica,sans-Serif" font-size="10.00">data()</text>
<text text-anchor="start" x="310" y="-81.5" font-family="Helvetica,sans-Serif" font-size="10.00">+</text>
<text text-anchor="start" x="323" y="-81.5" font-family="Helvetica,sans-Serif" font-size="10.00">size()</text>
<text text-anchor="start" x="310" y="-66.5" font-family="Helvetica,sans-Serif" font-size="10.00">+</text>
<text text-anchor="start" x="323" y="-66.5" font-family="Helvetica,sans-Serif" font-size="10.00">empty()</text>
<text text-anchor="start" x="310" y="-51.5" font-family="Helvetica,sans-Serif" font-size="10.00">+</text>
<text text-anchor="start" x="323" y="-51.5" font-family="Helvetica,sans-Serif" font-size="10.00">at()</text>
<text text-anchor="start" x="310" y="-36.5" font-family="Helvetica,sans-Serif" font-size="10.00">+</text>
<text text-anchor="start" x="323" y="-36.5" font-family="Helvetica,sans-Serif" font-size="10.00">getCenter()</text>
<text text-anchor="start" x="310" y="-21.5" font-family="Helvetica,sans-Serif" font-size="10.00">+</text>
<text text-anchor="start" x="323" y="-21.5" font-family="Helvetica,sans-Serif" font-size="10.00">getVanishNumber()</text>
<text text-anchor="start" x="310" y="-6.5" font-family="Helvetica,sans-Serif" font-size="10.00">+</text>
<text text-anchor="start" x="323" y="-6.5" font-family="Helvetica,sans-Serif" font-size="10.00">getType()</text>
<polygon fill="#666666" stroke="#666666" points="306,-181.5 306,-181.5 422,-181.5 422,-181.5 306,-181.5"/>
<polygon fill="#666666" stroke="#666666" points="306,-166.5 306,-166.5 422,-166.5 422,-166.5 306,-166.5"/>
<polygon fill="none" stroke="#666666" points="306,0 306,-199 422,-199 422,0 306,0"/>
</a>
</g>
</g>
<!-- Node2 -->
<g id="Node000002" class="node">
<title>Node2</title>
<g id="a_Node000002"><a xlink:title=" ">
<polygon fill="white" stroke="transparent" points="229.5,-308 122.5,-308 122.5,-248 229.5,-248 229.5,-308"/>
<text text-anchor="start" x="128" y="-296" font-family="Helvetica,sans-Serif" font-size="10.00">std::vector&lt; tracker</text>
<text text-anchor="start" x="161" y="-285" font-family="Helvetica,sans-Serif" font-size="10.00">::ptr &gt;</text>
<text text-anchor="start" x="174.5" y="-270" font-family="Helvetica,sans-Serif" font-size="10.00"> </text>
<text text-anchor="start" x="174.5" y="-255" font-family="Helvetica,sans-Serif" font-size="10.00"> </text>
<polygon fill="#666666" stroke="#666666" points="123,-280 123,-280 230,-280 230,-280 123,-280"/>
<polygon fill="#666666" stroke="#666666" points="123,-265 123,-265 230,-265 230,-265 123,-265"/>
<polygon fill="none" stroke="#666666" points="122.5,-248 122.5,-308 229.5,-308 229.5,-248 122.5,-248"/>
</a>
</g>
</g>
<!-- Node2&#45;&gt;Node1 -->
<g id="edge1_Node000001_Node000002" class="edge">
<title>Node2&#45;&gt;Node1</title>
<g id="a_edge1_Node000001_Node000002"><a xlink:title=" ">
<path fill="none" stroke="#63b8ff" d="M207.04,-247.85C231.44,-224.95 266.3,-192.22 296.98,-163.42"/>
<polygon fill="none" stroke="#63b8ff" points="297.18,-163.23 298.82,-156.21 305.93,-155.02 304.29,-162.04 297.18,-163.23"/>
</a>
</g>
<text text-anchor="middle" x="265" y="-220" font-family="Helvetica,sans-Serif" font-size="10.00" fill="grey"> #_trackers</text>
</g>
<!-- Node3 -->
<g id="Node000003" class="node">
<title>Node3</title>
<g id="a_Node000003"><a xlink:title=" ">
<polygon fill="white" stroke="transparent" points="112,-406 0,-406 0,-357 112,-357 112,-406"/>
<text text-anchor="start" x="5" y="-393.5" font-family="Helvetica,sans-Serif" font-size="10.00">std::shared_ptr&lt; T &gt;</text>
<text text-anchor="start" x="54" y="-378.5" font-family="Helvetica,sans-Serif" font-size="10.00"> </text>
<text text-anchor="start" x="11.5" y="-363.5" font-family="Helvetica,sans-Serif" font-size="10.00">+</text>
<text text-anchor="start" x="32" y="-363.5" font-family="Helvetica,sans-Serif" font-size="10.00">operator&#45;&gt;()</text>
<polygon fill="#666666" stroke="#666666" points="0,-388.5 0,-388.5 112,-388.5 112,-388.5 0,-388.5"/>
<polygon fill="#666666" stroke="#666666" points="0,-373.5 0,-373.5 112,-373.5 112,-373.5 0,-373.5"/>
<polygon fill="none" stroke="#666666" points="0,-357 0,-406 112,-406 112,-357 0,-357"/>
</a>
</g>
</g>
<!-- Node3&#45;&gt;Node2 -->
<g id="edge2_Node000002_Node000003" class="edge">
<title>Node3&#45;&gt;Node2</title>
<g id="a_edge2_Node000002_Node000003"><a xlink:title=" ">
<path fill="none" stroke="#63b8ff" d="M81.37,-356.87C91.4,-347.7 103.11,-337.21 114,-328 118.72,-324 123.71,-319.9 128.71,-315.84"/>
<polygon fill="none" stroke="#63b8ff" points="128.94,-315.65 131.12,-308.78 138.3,-308.14 136.12,-315.02 128.94,-315.65"/>
</a>
</g>
<text text-anchor="middle" x="143" y="-331" font-family="Helvetica,sans-Serif" font-size="10.00" fill="grey"> +elements</text>
</g>
<!-- Node4 -->
<g id="Node000004" class="node">
<title>Node4</title>
<g id="a_Node000004"><a xlink:title=" ">
<polygon fill="white" stroke="transparent" points="124.5,-502 107.5,-502 107.5,-453 124.5,-453 124.5,-502"/>
<text text-anchor="start" x="113" y="-489.5" font-family="Helvetica,sans-Serif" font-size="10.00">T</text>
<text text-anchor="start" x="114.5" y="-474.5" font-family="Helvetica,sans-Serif" font-size="10.00"> </text>
<text text-anchor="start" x="114.5" y="-459.5" font-family="Helvetica,sans-Serif" font-size="10.00"> </text>
<polygon fill="#666666" stroke="#666666" points="108,-484.5 108,-484.5 125,-484.5 125,-484.5 108,-484.5"/>
<polygon fill="#666666" stroke="#666666" points="108,-469.5 108,-469.5 125,-469.5 125,-469.5 108,-469.5"/>
<polygon fill="none" stroke="#666666" points="107.5,-453 107.5,-502 124.5,-502 124.5,-453 107.5,-453"/>
</a>
</g>
</g>
<!-- Node4&#45;&gt;Node3 -->
<g id="edge3_Node000003_Node000004" class="edge">
<title>Node4&#45;&gt;Node3</title>
<g id="a_edge3_Node000003_Node000004"><a xlink:title=" ">
<path fill="none" stroke="#63b8ff" d="M107.4,-463.03C99.64,-450.87 87.89,-432.46 77.58,-416.32"/>
<polygon fill="none" stroke="#63b8ff" points="77.53,-416.23 70.93,-413.33 71.08,-406.12 77.68,-409.02 77.53,-416.23"/>
</a>
</g>
<text text-anchor="middle" x="100.5" y="-427" font-family="Helvetica,sans-Serif" font-size="10.00" fill="grey"> +ptr</text>
</g>
<!-- Node5 -->
<g id="Node000005" class="node">
<title>Node5</title>
<g id="a_Node000005"><a xlink:title=" ">
<polygon fill="white" stroke="transparent" points="221.5,-406 130.5,-406 130.5,-357 221.5,-357 221.5,-406"/>
<text text-anchor="start" x="136" y="-393.5" font-family="Helvetica,sans-Serif" font-size="10.00">std::vector&lt; T &gt;</text>
<text text-anchor="start" x="174.5" y="-378.5" font-family="Helvetica,sans-Serif" font-size="10.00"> </text>
<text text-anchor="start" x="174.5" y="-363.5" font-family="Helvetica,sans-Serif" font-size="10.00"> </text>
<polygon fill="#666666" stroke="#666666" points="131,-388.5 131,-388.5 222,-388.5 222,-388.5 131,-388.5"/>
<polygon fill="#666666" stroke="#666666" points="131,-373.5 131,-373.5 222,-373.5 222,-373.5 131,-373.5"/>
<polygon fill="none" stroke="#666666" points="130.5,-357 130.5,-406 221.5,-406 221.5,-357 130.5,-357"/>
</a>
</g>
</g>
<!-- Node4&#45;&gt;Node5 -->
<g id="edge5_Node000005_Node000004" class="edge">
<title>Node4&#45;&gt;Node5</title>
<g id="a_edge5_Node000005_Node000004"><a xlink:title=" ">
<path fill="none" stroke="#63b8ff" d="M124.6,-463.03C132.36,-450.87 144.11,-432.46 154.42,-416.32"/>
<polygon fill="none" stroke="#63b8ff" points="154.47,-416.23 154.32,-409.02 160.92,-406.12 161.07,-413.33 154.47,-416.23"/>
</a>
</g>
<text text-anchor="middle" x="177" y="-427" font-family="Helvetica,sans-Serif" font-size="10.00" fill="grey"> +elements</text>
</g>
<!-- Node5&#45;&gt;Node2 -->
<g id="edge4_Node000002_Node000005" class="edge">
<title>Node5&#45;&gt;Node2</title>
<g id="a_edge4_Node000002_Node000005"><a xlink:title=" ">
<path fill="none" stroke="orange" d="M176,-346.9C176,-334.39 176,-320.31 176,-308.22"/>
<polygon fill="orange" stroke="orange" points="172.5,-346.96 176,-356.96 179.5,-346.96 172.5,-346.96"/>
</a>
</g>
<text text-anchor="middle" x="215.5" y="-331" font-family="Helvetica,sans-Serif" font-size="10.00" fill="grey"> &lt; tracker::ptr &gt;</text>
</g>
<!-- Node6 -->
<g id="Node000006" class="node">
<title>Node6</title>
<g id="a_Node000006"><a xlink:title=" ">
<polygon fill="white" stroke="transparent" points="315.5,-302.5 270.5,-302.5 270.5,-253.5 315.5,-253.5 315.5,-302.5"/>
<text text-anchor="start" x="276" y="-290" font-family="Helvetica,sans-Serif" font-size="10.00">Point2f</text>
<text text-anchor="start" x="291.5" y="-275" font-family="Helvetica,sans-Serif" font-size="10.00"> </text>
<text text-anchor="start" x="291.5" y="-260" font-family="Helvetica,sans-Serif" font-size="10.00"> </text>
<polygon fill="#666666" stroke="#666666" points="271,-285 271,-285 316,-285 316,-285 271,-285"/>
<polygon fill="#666666" stroke="#666666" points="271,-270 271,-270 316,-270 316,-270 271,-270"/>
<polygon fill="none" stroke="#666666" points="270.5,-253.5 270.5,-302.5 315.5,-302.5 315.5,-253.5 270.5,-253.5"/>
</a>
</g>
</g>
<!-- Node6&#45;&gt;Node1 -->
<g id="edge6_Node000001_Node000006" class="edge">
<title>Node6&#45;&gt;Node1</title>
<g id="a_edge6_Node000001_Node000006"><a xlink:title=" ">
<path fill="none" stroke="#63b8ff" d="M299.79,-253.42C303.17,-242.28 307.5,-228.85 312,-217 312.84,-214.79 313.7,-212.56 314.58,-210.31"/>
<polygon fill="none" stroke="#63b8ff" points="314.65,-210.15 313.16,-203.09 319.1,-199.01 320.59,-206.07 314.65,-210.15"/>
</a>
</g>
<text text-anchor="middle" x="336" y="-220" font-family="Helvetica,sans-Serif" font-size="10.00" fill="grey"> #_center</text>
</g>
<!-- Node7 -->
<g id="Node000007" class="node">
<title>Node7</title>
<g id="a_Node000007"><a xlink:title=" ">
<polygon fill="white" stroke="transparent" points="380,-302.5 348,-302.5 348,-253.5 380,-253.5 380,-302.5"/>
<text text-anchor="start" x="353" y="-290" font-family="Helvetica,sans-Serif" font-size="10.00">bool</text>
<text text-anchor="start" x="362" y="-275" font-family="Helvetica,sans-Serif" font-size="10.00"> </text>
<text text-anchor="start" x="362" y="-260" font-family="Helvetica,sans-Serif" font-size="10.00"> </text>
<polygon fill="#666666" stroke="#666666" points="348,-285 348,-285 380,-285 380,-285 348,-285"/>
<polygon fill="#666666" stroke="#666666" points="348,-270 348,-270 380,-270 380,-270 348,-270"/>
<polygon fill="none" stroke="#666666" points="348,-253.5 348,-302.5 380,-302.5 380,-253.5 348,-253.5"/>
</a>
</g>
</g>
<!-- Node7&#45;&gt;Node1 -->
<g id="edge7_Node000001_Node000007" class="edge">
<title>Node7&#45;&gt;Node1</title>
<g id="a_edge7_Node000001_Node000007"><a xlink:title=" ">
<path fill="none" stroke="#63b8ff" d="M364,-253.2C364,-241.72 364,-227.06 364,-211.37"/>
<polygon fill="none" stroke="#63b8ff" points="364,-211.21 360,-205.21 364,-199.21 368,-205.21 364,-211.21"/>
</a>
</g>
<text text-anchor="middle" x="397.5" y="-220" font-family="Helvetica,sans-Serif" font-size="10.00" fill="grey"> #_is_tracked</text>
</g>
<!-- Node8 -->
<g id="Node000008" class="node">
<title>Node8</title>
<g id="a_Node000008"><a xlink:title=" ">
<polygon fill="white" stroke="transparent" points="479,-302.5 429,-302.5 429,-253.5 479,-253.5 479,-302.5"/>
<text text-anchor="start" x="434" y="-290" font-family="Helvetica,sans-Serif" font-size="10.00">uint32_t</text>
<text text-anchor="start" x="452" y="-275" font-family="Helvetica,sans-Serif" font-size="10.00"> </text>
<text text-anchor="start" x="452" y="-260" font-family="Helvetica,sans-Serif" font-size="10.00"> </text>
<polygon fill="#666666" stroke="#666666" points="429,-285 429,-285 479,-285 479,-285 429,-285"/>
<polygon fill="#666666" stroke="#666666" points="429,-270 429,-270 479,-270 479,-270 429,-270"/>
<polygon fill="none" stroke="#666666" points="429,-253.5 429,-302.5 479,-302.5 479,-253.5 429,-253.5"/>
</a>
</g>
</g>
<!-- Node8&#45;&gt;Node1 -->
<g id="edge8_Node000001_Node000008" class="edge">
<title>Node8&#45;&gt;Node1</title>
<g id="a_edge8_Node000001_Node000008"><a xlink:title=" ">
<path fill="none" stroke="#63b8ff" d="M446.37,-253.24C442.51,-242.06 437.48,-228.64 432,-217 430.6,-214.02 429.15,-211.02 427.65,-208.01"/>
<polygon fill="none" stroke="#63b8ff" points="427.53,-207.76 421.24,-204.23 422.09,-197.07 428.37,-200.6 427.53,-207.76"/>
</a>
</g>
<text text-anchor="middle" x="475" y="-220" font-family="Helvetica,sans-Serif" font-size="10.00" fill="grey"> #_vanish_num</text>
</g>
<!-- Node9 -->
<g id="Node000009" class="node">
<title>Node9</title>
<g id="a_Node000009"><a xlink:href="../../d0/d01/structrm_1_1RMStatus.html" target="_top" xlink:title="状态类型">
<polygon fill="white" stroke="transparent" points="608.5,-310 531.5,-310 531.5,-246 608.5,-246 608.5,-310"/>
<text text-anchor="start" x="537" y="-298" font-family="Helvetica,sans-Serif" font-size="10.00">rm::RMStatus</text>
<text text-anchor="start" x="568.5" y="-283" font-family="Helvetica,sans-Serif" font-size="10.00"> </text>
<text text-anchor="start" x="537" y="-268" font-family="Helvetica,sans-Serif" font-size="10.00">+</text>
<text text-anchor="start" x="551" y="-268" font-family="Helvetica,sans-Serif" font-size="10.00">to_string()</text>
<text text-anchor="start" x="537" y="-253" font-family="Helvetica,sans-Serif" font-size="10.00">+</text>
<text text-anchor="start" x="551" y="-253" font-family="Helvetica,sans-Serif" font-size="10.00">to_string()</text>
<polygon fill="#666666" stroke="#666666" points="532,-293 532,-293 609,-293 609,-293 532,-293"/>
<polygon fill="#666666" stroke="#666666" points="532,-278 532,-278 609,-278 609,-278 532,-278"/>
<polygon fill="none" stroke="#666666" points="531.5,-246 531.5,-310 608.5,-310 608.5,-246 531.5,-246"/>
</a>
</g>
</g>
<!-- Node9&#45;&gt;Node1 -->
<g id="edge9_Node000001_Node000009" class="edge">
<title>Node9&#45;&gt;Node1</title>
<g id="a_edge9_Node000001_Node000009"><a xlink:title=" ">
<path fill="none" stroke="#63b8ff" d="M544.41,-245.71C536.05,-236.13 526.47,-225.8 517,-217 490.65,-192.5 459.37,-167.98 431.98,-147.8"/>
<polygon fill="none" stroke="#63b8ff" points="431.78,-147.65 424.57,-147.34 422.09,-140.57 429.29,-140.88 431.78,-147.65"/>
</a>
</g>
<text text-anchor="middle" x="546.5" y="-220" font-family="Helvetica,sans-Serif" font-size="10.00" fill="grey"> #_type</text>
</g>
<!-- Node10 -->
<g id="Node000010" class="node">
<title>Node10</title>
<g id="a_Node000010"><a xlink:title=" ">
<polygon fill="white" stroke="transparent" points="322.5,-406 239.5,-406 239.5,-357 322.5,-357 322.5,-406"/>
<text text-anchor="start" x="245" y="-393.5" font-family="Helvetica,sans-Serif" font-size="10.00">ArmorSizeType</text>
<text text-anchor="start" x="279.5" y="-378.5" font-family="Helvetica,sans-Serif" font-size="10.00"> </text>
<text text-anchor="start" x="279.5" y="-363.5" font-family="Helvetica,sans-Serif" font-size="10.00"> </text>
<polygon fill="#666666" stroke="#666666" points="240,-388.5 240,-388.5 323,-388.5 323,-388.5 240,-388.5"/>
<polygon fill="#666666" stroke="#666666" points="240,-373.5 240,-373.5 323,-373.5 323,-373.5 240,-373.5"/>
<polygon fill="none" stroke="#666666" points="239.5,-357 239.5,-406 322.5,-406 322.5,-357 239.5,-357"/>
</a>
</g>
</g>
<!-- Node10&#45;&gt;Node9 -->
<g id="edge10_Node000009_Node000010" class="edge">
<title>Node10&#45;&gt;Node9</title>
<g id="a_edge10_Node000009_Node000010"><a xlink:title=" ">
<path fill="none" stroke="#63b8ff" d="M292.21,-356.98C298.54,-346.33 307.51,-334.66 319,-328 384.36,-290.13 414.52,-327.5 488,-310 498.54,-307.49 509.56,-303.98 519.98,-300.22"/>
<polygon fill="none" stroke="#63b8ff" points="520.2,-300.13 524.41,-294.27 531.43,-295.9 527.23,-301.76 520.2,-300.13"/>
</a>
</g>
<text text-anchor="middle" x="366.5" y="-331" font-family="Helvetica,sans-Serif" font-size="10.00" fill="grey"> +ArmorSizeTypeID</text>
</g>
<!-- Node11 -->
<g id="Node000011" class="node">
<title>Node11</title>
<g id="a_Node000011"><a xlink:title=" ">
<polygon fill="white" stroke="transparent" points="428,-406 370,-406 370,-357 428,-357 428,-406"/>
<text text-anchor="start" x="375" y="-393.5" font-family="Helvetica,sans-Serif" font-size="10.00">RuneType</text>
<text text-anchor="start" x="397" y="-378.5" font-family="Helvetica,sans-Serif" font-size="10.00"> </text>
<text text-anchor="start" x="397" y="-363.5" font-family="Helvetica,sans-Serif" font-size="10.00"> </text>
<polygon fill="#666666" stroke="#666666" points="370,-388.5 370,-388.5 428,-388.5 428,-388.5 370,-388.5"/>
<polygon fill="#666666" stroke="#666666" points="370,-373.5 370,-373.5 428,-373.5 428,-373.5 370,-373.5"/>
<polygon fill="none" stroke="#666666" points="370,-357 370,-406 428,-406 428,-357 370,-357"/>
</a>
</g>
</g>
<!-- Node11&#45;&gt;Node9 -->
<g id="edge11_Node000009_Node000011" class="edge">
<title>Node11&#45;&gt;Node9</title>
<g id="a_edge11_Node000009_Node000011"><a xlink:title=" ">
<path fill="none" stroke="#63b8ff" d="M406.86,-356.83C411.32,-346.66 417.87,-335.44 427,-328 448.91,-310.14 461.21,-319 488,-310 498.38,-306.51 509.4,-302.54 519.88,-298.62"/>
<polygon fill="none" stroke="#63b8ff" points="520.2,-298.5 524.39,-292.64 531.42,-294.26 527.22,-300.12 520.2,-298.5"/>
</a>
</g>
<text text-anchor="middle" x="462" y="-331" font-family="Helvetica,sans-Serif" font-size="10.00" fill="grey"> +RuneTypeID</text>
</g>
<!-- Node12 -->
<g id="Node000012" class="node">
<title>Node12</title>
<g id="a_Node000012"><a xlink:title=" ">
<polygon fill="white" stroke="transparent" points="517,-406 467,-406 467,-357 517,-357 517,-406"/>
<text text-anchor="start" x="472" y="-393.5" font-family="Helvetica,sans-Serif" font-size="10.00">TagType</text>
<text text-anchor="start" x="490" y="-378.5" font-family="Helvetica,sans-Serif" font-size="10.00"> </text>
<text text-anchor="start" x="490" y="-363.5" font-family="Helvetica,sans-Serif" font-size="10.00"> </text>
<polygon fill="#666666" stroke="#666666" points="467,-388.5 467,-388.5 517,-388.5 517,-388.5 467,-388.5"/>
<polygon fill="#666666" stroke="#666666" points="467,-373.5 467,-373.5 517,-373.5 517,-373.5 467,-373.5"/>
<polygon fill="none" stroke="#666666" points="467,-357 467,-406 517,-406 517,-357 467,-357"/>
</a>
</g>
</g>
<!-- Node12&#45;&gt;Node9 -->
<g id="edge12_Node000009_Node000012" class="edge">
<title>Node12&#45;&gt;Node9</title>
<g id="a_edge12_Node000009_Node000012"><a xlink:title=" ">
<path fill="none" stroke="#63b8ff" d="M495.44,-356.92C497.64,-347.35 501.22,-336.56 507,-328 511.22,-321.75 516.5,-315.93 522.2,-310.66"/>
<polygon fill="none" stroke="#63b8ff" points="522.26,-310.61 524.23,-303.67 531.39,-302.83 529.42,-309.77 522.26,-310.61"/>
</a>
</g>
<text text-anchor="middle" x="537.5" y="-331" font-family="Helvetica,sans-Serif" font-size="10.00" fill="grey"> +TagTypeID</text>
</g>
<!-- Node13 -->
<g id="Node000013" class="node">
<title>Node13</title>
<g id="a_Node000013"><a xlink:title=" ">
<polygon fill="white" stroke="transparent" points="604,-406 544,-406 544,-357 604,-357 604,-406"/>
<text text-anchor="start" x="549" y="-393.5" font-family="Helvetica,sans-Serif" font-size="10.00">MoveType</text>
<text text-anchor="start" x="572" y="-378.5" font-family="Helvetica,sans-Serif" font-size="10.00"> </text>
<text text-anchor="start" x="572" y="-363.5" font-family="Helvetica,sans-Serif" font-size="10.00"> </text>
<polygon fill="#666666" stroke="#666666" points="544,-388.5 544,-388.5 604,-388.5 604,-388.5 544,-388.5"/>
<polygon fill="#666666" stroke="#666666" points="544,-373.5 544,-373.5 604,-373.5 604,-373.5 544,-373.5"/>
<polygon fill="none" stroke="#666666" points="544,-357 544,-406 604,-406 604,-357 544,-357"/>
</a>
</g>
</g>
<!-- Node13&#45;&gt;Node9 -->
<g id="edge13_Node000009_Node000013" class="edge">
<title>Node13&#45;&gt;Node9</title>
<g id="a_edge13_Node000009_Node000013"><a xlink:title=" ">
<path fill="none" stroke="#63b8ff" d="M573.07,-356.96C572.66,-346.61 572.17,-334.13 571.7,-322.21"/>
<polygon fill="none" stroke="#63b8ff" points="571.7,-322.1 567.47,-316.26 571.23,-310.11 575.46,-315.95 571.7,-322.1"/>
</a>
</g>
<text text-anchor="middle" x="608" y="-331" font-family="Helvetica,sans-Serif" font-size="10.00" fill="grey"> +MoveTypeID</text>
</g>
<!-- Node14 -->
<g id="Node000014" class="node">
<title>Node14</title>
<g id="a_Node000014"><a xlink:title=" ">
<polygon fill="white" stroke="transparent" points="722,-406 622,-406 622,-357 722,-357 722,-406"/>
<text text-anchor="start" x="627" y="-393.5" font-family="Helvetica,sans-Serif" font-size="10.00">TargetChangeType</text>
<text text-anchor="start" x="670" y="-378.5" font-family="Helvetica,sans-Serif" font-size="10.00"> </text>
<text text-anchor="start" x="670" y="-363.5" font-family="Helvetica,sans-Serif" font-size="10.00"> </text>
<polygon fill="#666666" stroke="#666666" points="622,-388.5 622,-388.5 722,-388.5 722,-388.5 622,-388.5"/>
<polygon fill="#666666" stroke="#666666" points="622,-373.5 622,-373.5 722,-373.5 722,-373.5 622,-373.5"/>
<polygon fill="none" stroke="#666666" points="622,-357 622,-406 722,-406 722,-357 622,-357"/>
</a>
</g>
</g>
<!-- Node14&#45;&gt;Node9 -->
<g id="edge14_Node000009_Node000014" class="edge">
<title>Node14&#45;&gt;Node9</title>
<g id="a_edge14_Node000009_Node000014"><a xlink:title=" ">
<path fill="none" stroke="#63b8ff" d="M664.57,-356.84C660.72,-347.15 655.26,-336.29 648,-328 639.86,-318.71 629.53,-310.56 619.07,-303.71"/>
<polygon fill="none" stroke="#63b8ff" points="618.87,-303.59 611.67,-303.86 608.65,-297.31 615.86,-297.04 618.87,-303.59"/>
</a>
</g>
<text text-anchor="middle" x="711" y="-331" font-family="Helvetica,sans-Serif" font-size="10.00" fill="grey"> +TargetChangeTypeID</text>
</g>
<!-- Node15 -->
<g id="Node000015" class="node">
<title>Node15</title>
<g id="a_Node000015"><a xlink:title=" ">
<polygon fill="white" stroke="transparent" points="853.5,-406 758.5,-406 758.5,-357 853.5,-357 853.5,-406"/>
<text text-anchor="start" x="764" y="-393.5" font-family="Helvetica,sans-Serif" font-size="10.00">CompensateType</text>
<text text-anchor="start" x="804.5" y="-378.5" font-family="Helvetica,sans-Serif" font-size="10.00"> </text>
<text text-anchor="start" x="804.5" y="-363.5" font-family="Helvetica,sans-Serif" font-size="10.00"> </text>
<polygon fill="#666666" stroke="#666666" points="759,-388.5 759,-388.5 854,-388.5 854,-388.5 759,-388.5"/>
<polygon fill="#666666" stroke="#666666" points="759,-373.5 759,-373.5 854,-373.5 854,-373.5 759,-373.5"/>
<polygon fill="none" stroke="#666666" points="758.5,-357 758.5,-406 853.5,-406 853.5,-357 758.5,-357"/>
</a>
</g>
</g>
<!-- Node15&#45;&gt;Node9 -->
<g id="edge15_Node000009_Node000015" class="edge">
<title>Node15&#45;&gt;Node9</title>
<g id="a_edge15_Node000009_Node000015"><a xlink:title=" ">
<path fill="none" stroke="#63b8ff" d="M795.23,-356.84C789.43,-346.55 781.32,-335.23 771,-328 726.32,-296.71 663.92,-285.3 620.54,-281.19"/>
<polygon fill="none" stroke="#63b8ff" points="620.52,-281.19 614.21,-284.68 608.56,-280.2 614.87,-276.71 620.52,-281.19"/>
</a>
</g>
<text text-anchor="middle" x="835" y="-331" font-family="Helvetica,sans-Serif" font-size="10.00" fill="grey"> +CompensateTypeID</text>
</g>
<!-- Node16 -->
<g id="Node000016" class="node">
<title>Node16</title>
<g id="a_Node000016"><a xlink:title=" ">
<polygon fill="white" stroke="transparent" points="966,-406 904,-406 904,-357 966,-357 966,-406"/>
<text text-anchor="start" x="909" y="-393.5" font-family="Helvetica,sans-Serif" font-size="10.00">RobotType</text>
<text text-anchor="start" x="933" y="-378.5" font-family="Helvetica,sans-Serif" font-size="10.00"> </text>
<text text-anchor="start" x="933" y="-363.5" font-family="Helvetica,sans-Serif" font-size="10.00"> </text>
<polygon fill="#666666" stroke="#666666" points="904,-388.5 904,-388.5 966,-388.5 966,-388.5 904,-388.5"/>
<polygon fill="#666666" stroke="#666666" points="904,-373.5 904,-373.5 966,-373.5 966,-373.5 904,-373.5"/>
<polygon fill="none" stroke="#666666" points="904,-357 904,-406 966,-406 966,-357 904,-357"/>
</a>
</g>
</g>
<!-- Node16&#45;&gt;Node9 -->
<g id="edge16_Node000009_Node000016" class="edge">
<title>Node16&#45;&gt;Node9</title>
<g id="a_edge16_Node000009_Node000016"><a xlink:title=" ">
<path fill="none" stroke="#63b8ff" d="M921.33,-356.91C913.99,-346.38 903.98,-334.82 892,-328 846.64,-302.16 699.23,-288.11 620.56,-282.28"/>
<polygon fill="none" stroke="#63b8ff" points="620.52,-282.28 614.25,-285.83 608.55,-281.41 614.82,-277.85 620.52,-282.28"/>
</a>
</g>
<text text-anchor="middle" x="941.5" y="-331" font-family="Helvetica,sans-Serif" font-size="10.00" fill="grey"> +RobotTypeID</text>
</g>
</g>
</svg>
