<?xml version="1.0" encoding="UTF-8" standalone="no"?>
<!DOCTYPE svg PUBLIC "-//W3C//DTD SVG 1.1//EN"
 "http://www.w3.org/Graphics/SVG/1.1/DTD/svg11.dtd">
<!-- Generated by graphviz version 14.1.2 (0)
 -->
<!-- Title: rm::ua::Argument Pages: 1 -->
<svg width="280pt" height="342pt"
 viewBox="0.00 0.00 280.00 342.00" xmlns="http://www.w3.org/2000/svg" xmlns:xlink="http://www.w3.org/1999/xlink">
<g id="graph0" class="graph" transform="scale(1 1) rotate(0) translate(4 338.25)">
<title>rm::ua::Argument</title>
<!-- Node1 -->
<g id="Node000001" class="node">
<title>Node1</title>
<g id="a_Node000001"><a xlink:title="OPC UA 方法参数信息">
<polygon fill="#999999" stroke="none" points="196.62,-54.25 103.12,-54.25 103.12,0 196.62,0 196.62,-54.25"/>
<text xml:space="preserve" text-anchor="start" x="107.12" y="-40.75" font-family="Helvetica,sans-Serif" font-size="10.00">rm::ua::Argument</text>
<text xml:space="preserve" text-anchor="start" x="148.38" y="-24" font-family="Helvetica,sans-Serif" font-size="10.00"> </text>
<text xml:space="preserve" text-anchor="start" x="115.88" y="-7.25" font-family="Helvetica,sans-Serif" font-size="10.00">+</text>
<text xml:space="preserve" text-anchor="start" x="136.88" y="-7.25" font-family="Helvetica,sans-Serif" font-size="10.00">create()</text>
<polygon fill="#666666" stroke="#666666" points="103.12,-35.5 103.12,-35.5 196.62,-35.5 196.62,-35.5 103.12,-35.5"/>
<polygon fill="#666666" stroke="#666666" points="103.12,-18.75 103.12,-18.75 196.62,-18.75 196.62,-18.75 103.12,-18.75"/>
<polygon fill="none" stroke="#666666" points="103.12,0 103.12,-54.25 196.62,-54.25 196.62,0 103.12,0"/>
</a>
</g>
</g>
<!-- Node2 -->
<g id="Node000002" class="node">
<title>Node2</title>
<g id="a_Node000002"><a xlink:title=" ">
<polygon fill="white" stroke="none" points="76.25,-205.12 19.5,-205.12 19.5,-150.88 76.25,-150.88 76.25,-205.12"/>
<text xml:space="preserve" text-anchor="start" x="23.5" y="-191.62" font-family="Helvetica,sans-Serif" font-size="10.00">std::string</text>
<text xml:space="preserve" text-anchor="start" x="46.38" y="-174.88" font-family="Helvetica,sans-Serif" font-size="10.00"> </text>
<text xml:space="preserve" text-anchor="start" x="46.38" y="-158.12" font-family="Helvetica,sans-Serif" font-size="10.00"> </text>
<polygon fill="#666666" stroke="#666666" points="19.5,-186.38 19.5,-186.38 76.25,-186.38 76.25,-186.38 19.5,-186.38"/>
<polygon fill="#666666" stroke="#666666" points="19.5,-169.62 19.5,-169.62 76.25,-169.62 76.25,-169.62 19.5,-169.62"/>
<polygon fill="none" stroke="#666666" points="19.5,-150.88 19.5,-205.12 76.25,-205.12 76.25,-150.88 19.5,-150.88"/>
</a>
</g>
</g>
<!-- Node2&#45;&gt;Node1 -->
<g id="edge1_Node000001_Node000002" class="edge">
<title>Node2&#45;&gt;Node1</title>
<g id="a_edge1_Node000001_Node000002"><a xlink:title=" ">
<path fill="none" stroke="#63b8ff" d="M49.95,-150.96C52.92,-128.2 60.13,-95.28 77.62,-72.25 81.9,-66.62 87.13,-61.54 92.79,-57.02"/>
<polygon fill="none" stroke="#63b8ff" points="92.85,-56.97 95.4,-50.22 102.61,-49.98 100.06,-56.73 92.85,-56.97"/>
</a>
</g>
<text xml:space="preserve" text-anchor="start" x="80.62" y="-95.25" font-family="Helvetica,sans-Serif" font-size="10.00" fill="grey">+description</text>
<text xml:space="preserve" text-anchor="start" x="80.62" y="-78.5" font-family="Helvetica,sans-Serif" font-size="10.00" fill="grey">+name</text>
</g>
<!-- Node3 -->
<g id="Node000003" class="node">
<title>Node3</title>
<g id="a_Node000003"><a xlink:title=" ">
<polygon fill="white" stroke="none" points="95.75,-334.25 0,-334.25 0,-267.25 95.75,-267.25 95.75,-334.25"/>
<text xml:space="preserve" text-anchor="start" x="4" y="-320.75" font-family="Helvetica,sans-Serif" font-size="10.00">std::basic_string&lt;</text>
<text xml:space="preserve" text-anchor="start" x="29.5" y="-308" font-family="Helvetica,sans-Serif" font-size="10.00"> Char &gt;</text>
<text xml:space="preserve" text-anchor="start" x="46.38" y="-291.25" font-family="Helvetica,sans-Serif" font-size="10.00"> </text>
<text xml:space="preserve" text-anchor="start" x="46.38" y="-274.5" font-family="Helvetica,sans-Serif" font-size="10.00"> </text>
<polygon fill="#666666" stroke="#666666" points="0,-302.75 0,-302.75 95.75,-302.75 95.75,-302.75 0,-302.75"/>
<polygon fill="#666666" stroke="#666666" points="0,-286 0,-286 95.75,-286 95.75,-286 0,-286"/>
<polygon fill="none" stroke="#666666" points="0,-267.25 0,-334.25 95.75,-334.25 95.75,-267.25 0,-267.25"/>
</a>
</g>
</g>
<!-- Node3&#45;&gt;Node2 -->
<g id="edge2_Node000002_Node000003" class="edge">
<title>Node3&#45;&gt;Node2</title>
<g id="a_edge2_Node000002_Node000003"><a xlink:title=" ">
<path fill="none" stroke="#63b8ff" d="M47.88,-255.93C47.88,-238.83 47.88,-219.8 47.88,-204.95"/>
<polygon fill="none" stroke="#63b8ff" points="44.38,-255.88 47.88,-265.88 51.38,-255.88 44.38,-255.88"/>
</a>
</g>
</g>
<!-- Node4 -->
<g id="Node000004" class="node">
<title>Node4</title>
<g id="a_Node000004"><a xlink:href="../../d9/d0f/classrm_1_1ua_1_1DataType.html" target="_top" xlink:title="OPC UA 数据类型">
<polygon fill="white" stroke="none" points="205.75,-230.25 94,-230.25 94,-125.75 205.75,-125.75 205.75,-230.25"/>
<text xml:space="preserve" text-anchor="start" x="108.25" y="-216.75" font-family="Helvetica,sans-Serif" font-size="10.00">rm::ua::DataType</text>
<text xml:space="preserve" text-anchor="start" x="148.38" y="-200" font-family="Helvetica,sans-Serif" font-size="10.00"> </text>
<text xml:space="preserve" text-anchor="start" x="98" y="-183.25" font-family="Helvetica,sans-Serif" font-size="10.00">+</text>
<text xml:space="preserve" text-anchor="start" x="110.25" y="-183.25" font-family="Helvetica,sans-Serif" font-size="10.00">DataType()</text>
<text xml:space="preserve" text-anchor="start" x="98" y="-166.5" font-family="Helvetica,sans-Serif" font-size="10.00">+</text>
<text xml:space="preserve" text-anchor="start" x="110.25" y="-166.5" font-family="Helvetica,sans-Serif" font-size="10.00">DataType()</text>
<text xml:space="preserve" text-anchor="start" x="98" y="-149.75" font-family="Helvetica,sans-Serif" font-size="10.00">+</text>
<text xml:space="preserve" text-anchor="start" x="110.25" y="-149.75" font-family="Helvetica,sans-Serif" font-size="10.00">DataType()</text>
<text xml:space="preserve" text-anchor="start" x="98" y="-133" font-family="Helvetica,sans-Serif" font-size="10.00">+</text>
<text xml:space="preserve" text-anchor="start" x="110.25" y="-133" font-family="Helvetica,sans-Serif" font-size="10.00">operator uint32_t()</text>
<polygon fill="#666666" stroke="#666666" points="94,-211.5 94,-211.5 205.75,-211.5 205.75,-211.5 94,-211.5"/>
<polygon fill="#666666" stroke="#666666" points="94,-194.75 94,-194.75 205.75,-194.75 205.75,-194.75 94,-194.75"/>
<polygon fill="none" stroke="#666666" points="94,-125.75 94,-230.25 205.75,-230.25 205.75,-125.75 94,-125.75"/>
</a>
</g>
</g>
<!-- Node4&#45;&gt;Node1 -->
<g id="edge3_Node000001_Node000004" class="edge">
<title>Node4&#45;&gt;Node1</title>
<g id="a_edge3_Node000001_Node000004"><a xlink:title=" ">
<path fill="none" stroke="#63b8ff" d="M149.88,-125.77C149.88,-106.46 149.88,-84.85 149.88,-66.87"/>
<polygon fill="none" stroke="#63b8ff" points="149.88,-66.83 145.88,-60.83 149.88,-54.83 153.88,-60.83 149.88,-66.83"/>
</a>
</g>
<text xml:space="preserve" text-anchor="start" x="152.88" y="-86.88" font-family="Helvetica,sans-Serif" font-size="10.00" fill="grey">+type</text>
</g>
<!-- Node5 -->
<g id="Node000005" class="node">
<title>Node5</title>
<g id="a_Node000005"><a xlink:title=" ">
<polygon fill="white" stroke="none" points="271.75,-205.12 224,-205.12 224,-150.88 271.75,-150.88 271.75,-205.12"/>
<text xml:space="preserve" text-anchor="start" x="228" y="-191.62" font-family="Helvetica,sans-Serif" font-size="10.00">uint32_t</text>
<text xml:space="preserve" text-anchor="start" x="246.38" y="-174.88" font-family="Helvetica,sans-Serif" font-size="10.00"> </text>
<text xml:space="preserve" text-anchor="start" x="246.38" y="-158.12" font-family="Helvetica,sans-Serif" font-size="10.00"> </text>
<polygon fill="#666666" stroke="#666666" points="224,-186.38 224,-186.38 271.75,-186.38 271.75,-186.38 224,-186.38"/>
<polygon fill="#666666" stroke="#666666" points="224,-169.62 224,-169.62 271.75,-169.62 271.75,-169.62 224,-169.62"/>
<polygon fill="none" stroke="#666666" points="224,-150.88 224,-205.12 271.75,-205.12 271.75,-150.88 224,-150.88"/>
</a>
</g>
</g>
<!-- Node5&#45;&gt;Node1 -->
<g id="edge4_Node000001_Node000005" class="edge">
<title>Node5&#45;&gt;Node1</title>
<g id="a_edge4_Node000001_Node000005"><a xlink:title=" ">
<path fill="none" stroke="#63b8ff" d="M235.61,-151.04C224.81,-129.21 208.02,-97.61 189.88,-72.25 187.86,-69.43 185.68,-66.59 183.43,-63.79"/>
<polygon fill="none" stroke="#63b8ff" points="183.37,-63.73 176.44,-61.74 175.61,-54.57 182.54,-56.56 183.37,-63.73"/>
</a>
</g>
<text xml:space="preserve" text-anchor="start" x="214.17" y="-86.88" font-family="Helvetica,sans-Serif" font-size="10.00" fill="grey">+dims</text>
</g>
</g>
</svg>
