<?xml version="1.0" encoding="UTF-8" standalone="no"?>
<!DOCTYPE svg PUBLIC "-//W3C//DTD SVG 1.1//EN"
 "http://www.w3.org/Graphics/SVG/1.1/DTD/svg11.dtd">
<!-- Generated by graphviz version 2.43.0 (0)
 -->
<!-- Title: rm::RingBufferSlotSHM&lt; T, Capacity, typename &gt; Pages: 1 -->
<svg width="133pt" height="318pt"
 viewBox="0.00 0.00 133.00 318.00" xmlns="http://www.w3.org/2000/svg" xmlns:xlink="http://www.w3.org/1999/xlink">
<g id="graph0" class="graph" transform="scale(1 1) rotate(0) translate(4 314)">
<title>rm::RingBufferSlotSHM&lt; T, Capacity, typename &gt;</title>
<!-- Node1 -->
<g id="Node000001" class="node">
<title>Node1</title>
<g id="a_Node000001"><a xlink:title="基于共享内存的无锁 MPMC（多生产者多消费者）环形缓冲区">
<polygon fill="#999999" stroke="transparent" points="125,-90 0,-90 0,0 125,0 125,-90"/>
<text text-anchor="start" x="5.5" y="-78" font-family="Helvetica,sans-Serif" font-size="10.00">rm::RingBufferSlotSHM</text>
<text text-anchor="start" x="5.5" y="-67" font-family="Helvetica,sans-Serif" font-size="10.00">&lt; T, Capacity, typename &gt;</text>
<text text-anchor="start" x="61" y="-52" font-family="Helvetica,sans-Serif" font-size="10.00"> </text>
<text text-anchor="start" x="7.5" y="-37" font-family="Helvetica,sans-Serif" font-size="10.00">+</text>
<text text-anchor="start" x="21.5" y="-37" font-family="Helvetica,sans-Serif" font-size="10.00">RingBufferSlotSHM()</text>
<text text-anchor="start" x="7.5" y="-22" font-family="Helvetica,sans-Serif" font-size="10.00">+</text>
<text text-anchor="start" x="21.5" y="-22" font-family="Helvetica,sans-Serif" font-size="10.00">write()</text>
<text text-anchor="start" x="7.5" y="-7" font-family="Helvetica,sans-Serif" font-size="10.00">+</text>
<text text-anchor="start" x="21.5" y="-7" font-family="Helvetica,sans-Serif" font-size="10.00">read()</text>
<polygon fill="#666666" stroke="#666666" points="0.5,-62 0.5,-62 125.5,-62 125.5,-62 0.5,-62"/>
<polygon fill="#666666" stroke="#666666" points="0.5,-47 0.5,-47 125.5,-47 125.5,-47 0.5,-47"/>
<polygon fill="none" stroke="#666666" points="0,0 0,-90 125,-90 125,0 0,0"/>
</a>
</g>
</g>
<!-- Node2 -->
<g id="Node000002" class="node">
<title>Node2</title>
<g id="a_Node000002"><a xlink:href="../../d5/d8b/classrm_1_1SHMBase.html" target="_top" xlink:title="共享内存对象基类">
<polygon fill="white" stroke="transparent" points="101,-310 24,-310 24,-126 101,-126 101,-310"/>
<text text-anchor="start" x="31.5" y="-298" font-family="Helvetica,sans-Serif" font-size="10.00">rm::SHMBase</text>
<text text-anchor="start" x="61" y="-283" font-family="Helvetica,sans-Serif" font-size="10.00"> </text>
<text text-anchor="start" x="28.5" y="-268" font-family="Helvetica,sans-Serif" font-size="10.00">+</text>
<text text-anchor="start" x="39.5" y="-268" font-family="Helvetica,sans-Serif" font-size="10.00">SHMBase()</text>
<text text-anchor="start" x="28.5" y="-253" font-family="Helvetica,sans-Serif" font-size="10.00">+</text>
<text text-anchor="start" x="39.5" y="-253" font-family="Helvetica,sans-Serif" font-size="10.00">~SHMBase()</text>
<text text-anchor="start" x="28.5" y="-238" font-family="Helvetica,sans-Serif" font-size="10.00">+</text>
<text text-anchor="start" x="39.5" y="-238" font-family="Helvetica,sans-Serif" font-size="10.00">SHMBase()</text>
<text text-anchor="start" x="28.5" y="-223" font-family="Helvetica,sans-Serif" font-size="10.00">+</text>
<text text-anchor="start" x="39.5" y="-223" font-family="Helvetica,sans-Serif" font-size="10.00">SHMBase()</text>
<text text-anchor="start" x="28.5" y="-208" font-family="Helvetica,sans-Serif" font-size="10.00">+</text>
<text text-anchor="start" x="39.5" y="-208" font-family="Helvetica,sans-Serif" font-size="10.00">operator=()</text>
<text text-anchor="start" x="28.5" y="-193" font-family="Helvetica,sans-Serif" font-size="10.00">+</text>
<text text-anchor="start" x="39.5" y="-193" font-family="Helvetica,sans-Serif" font-size="10.00">operator=()</text>
<text text-anchor="start" x="28.5" y="-178" font-family="Helvetica,sans-Serif" font-size="10.00">+</text>
<text text-anchor="start" x="39.5" y="-178" font-family="Helvetica,sans-Serif" font-size="10.00">data()</text>
<text text-anchor="start" x="28.5" y="-163" font-family="Helvetica,sans-Serif" font-size="10.00">+</text>
<text text-anchor="start" x="39.5" y="-163" font-family="Helvetica,sans-Serif" font-size="10.00">data()</text>
<text text-anchor="start" x="28.5" y="-148" font-family="Helvetica,sans-Serif" font-size="10.00">+</text>
<text text-anchor="start" x="39.5" y="-148" font-family="Helvetica,sans-Serif" font-size="10.00">isCreator()</text>
<text text-anchor="start" x="28.5" y="-133" font-family="Helvetica,sans-Serif" font-size="10.00">+</text>
<text text-anchor="start" x="39.5" y="-133" font-family="Helvetica,sans-Serif" font-size="10.00">destroy()</text>
<polygon fill="#666666" stroke="#666666" points="24.5,-293 24.5,-293 101.5,-293 101.5,-293 24.5,-293"/>
<polygon fill="#666666" stroke="#666666" points="24.5,-278 24.5,-278 101.5,-278 101.5,-278 24.5,-278"/>
<polygon fill="none" stroke="#666666" points="24,-126 24,-310 101,-310 101,-126 24,-126"/>
</a>
</g>
</g>
<!-- Node2&#45;&gt;Node1 -->
<g id="edge1_Node000001_Node000002" class="edge">
<title>Node2&#45;&gt;Node1</title>
<g id="a_edge1_Node000001_Node000002"><a xlink:title=" ">
<path fill="none" stroke="#63b8ff" d="M62.5,-115.84C62.5,-106.92 62.5,-98.24 62.5,-90.19"/>
<polygon fill="none" stroke="#63b8ff" points="59,-115.99 62.5,-125.99 66,-115.99 59,-115.99"/>
</a>
</g>
</g>
</g>
</svg>
