<?xml version="1.0" encoding="UTF-8" standalone="no"?>
<!DOCTYPE svg PUBLIC "-//W3C//DTD SVG 1.1//EN"
 "http://www.w3.org/Graphics/SVG/1.1/DTD/svg11.dtd">
<!-- Generated by graphviz version 2.43.0 (0)
 -->
<!-- Title: rmvl/compensator.hpp Pages: 1 -->
<svg width="1250pt" height="467pt"
 viewBox="0.00 0.00 1250.00 467.00" xmlns="http://www.w3.org/2000/svg" xmlns:xlink="http://www.w3.org/1999/xlink">
<g id="graph0" class="graph" transform="scale(1 1) rotate(0) translate(4 463)">
<title>rmvl/compensator.hpp</title>
<!-- Node1 -->
<g id="Node000001" class="node">
<title>Node1</title>
<g id="a_Node000001"><a xlink:title=" ">
<polygon fill="#999999" stroke="#666666" points="388.5,-459 262.5,-459 262.5,-440 388.5,-440 388.5,-459"/>
<text text-anchor="middle" x="325.5" y="-447" font-family="Helvetica,sans-Serif" font-size="10.00">rmvl/compensator.hpp</text>
</a>
</g>
</g>
<!-- Node2 -->
<g id="Node000002" class="node">
<title>Node2</title>
<g id="a_Node000002"><a xlink:title=" ">
<polygon fill="#e0e0e0" stroke="#999999" points="133,-19 0,-19 0,0 133,0 133,-19"/>
<text text-anchor="middle" x="66.5" y="-7" font-family="Helvetica,sans-Serif" font-size="10.00">rmvl/rmvl_modules.hpp</text>
</a>
</g>
</g>
<!-- Node1&#45;&gt;Node2 -->
<g id="edge1_Node000001_Node000002" class="edge">
<title>Node1&#45;&gt;Node2</title>
<g id="a_edge1_Node000001_Node000002"><a xlink:title=" ">
<path fill="none" stroke="#63b8ff" d="M262.47,-448.43C185.81,-444.64 66.5,-425.15 66.5,-340.5 66.5,-340.5 66.5,-340.5 66.5,-118.5 66.5,-87.19 66.5,-50.77 66.5,-29.23"/>
<polygon fill="#63b8ff" stroke="#63b8ff" points="70,-29.18 66.5,-19.18 63,-29.18 70,-29.18"/>
</a>
</g>
</g>
<!-- Node3 -->
<g id="Node000003" class="node">
<title>Node3</title>
<g id="a_Node000003"><a xlink:href="../../d9/df2/compensator_8h.html" target="_top" xlink:title="抽象补偿类头文件">
<polygon fill="white" stroke="#666666" points="611,-404 456,-404 456,-385 611,-385 611,-404"/>
<text text-anchor="middle" x="533.5" y="-392" font-family="Helvetica,sans-Serif" font-size="10.00">compensator/compensator.h</text>
</a>
</g>
</g>
<!-- Node1&#45;&gt;Node3 -->
<g id="edge2_Node000001_Node000003" class="edge">
<title>Node1&#45;&gt;Node3</title>
<g id="a_edge2_Node000001_Node000003"><a xlink:title=" ">
<path fill="none" stroke="#63b8ff" d="M358.92,-439.98C394.44,-430.93 450.77,-416.58 489.8,-406.64"/>
<polygon fill="#63b8ff" stroke="#63b8ff" points="490.99,-409.94 499.82,-404.08 489.26,-403.16 490.99,-409.94"/>
</a>
</g>
</g>
<!-- Node4 -->
<g id="Node000004" class="node">
<title>Node4</title>
<g id="a_Node000004"><a xlink:title=" ">
<polygon fill="#e0e0e0" stroke="#999999" points="837,-129 744,-129 744,-110 837,-110 837,-129"/>
<text text-anchor="middle" x="790.5" y="-117" font-family="Helvetica,sans-Serif" font-size="10.00">unordered_map</text>
</a>
</g>
</g>
<!-- Node3&#45;&gt;Node4 -->
<g id="edge3_Node000003_Node000004" class="edge">
<title>Node3&#45;&gt;Node4</title>
<g id="a_edge3_Node000003_Node000004"><a xlink:title=" ">
<path fill="none" stroke="#63b8ff" d="M611.18,-387.32C675.54,-377.46 756.5,-351.85 756.5,-285.5 756.5,-285.5 756.5,-285.5 756.5,-228.5 756.5,-195.39 771.22,-159.1 781.29,-138.14"/>
<polygon fill="#63b8ff" stroke="#63b8ff" points="784.43,-139.68 785.77,-129.17 778.17,-136.55 784.43,-139.68"/>
</a>
</g>
</g>
<!-- Node5 -->
<g id="Node000005" class="node">
<title>Node5</title>
<g id="a_Node000005"><a xlink:href="../../d9/dd1/group_8h.html" target="_top" xlink:title="序列组抽象头文件">
<polygon fill="white" stroke="#666666" points="588.5,-349 478.5,-349 478.5,-330 588.5,-330 588.5,-349"/>
<text text-anchor="middle" x="533.5" y="-337" font-family="Helvetica,sans-Serif" font-size="10.00">rmvl/group/group.h</text>
</a>
</g>
</g>
<!-- Node3&#45;&gt;Node5 -->
<g id="edge4_Node000003_Node000005" class="edge">
<title>Node3&#45;&gt;Node5</title>
<g id="a_edge4_Node000003_Node000005"><a xlink:title=" ">
<path fill="none" stroke="#63b8ff" d="M533.5,-384.75C533.5,-377.8 533.5,-367.85 533.5,-359.13"/>
<polygon fill="#63b8ff" stroke="#63b8ff" points="537,-359.09 533.5,-349.09 530,-359.09 537,-359.09"/>
</a>
</g>
</g>
<!-- Node6 -->
<g id="Node000006" class="node">
<title>Node6</title>
<g id="a_Node000006"><a xlink:href="../../dc/ded/tracker_8h.html" target="_top" xlink:title="追踪器抽象头文件">
<polygon fill="white" stroke="#666666" points="594,-294 473,-294 473,-275 594,-275 594,-294"/>
<text text-anchor="middle" x="533.5" y="-282" font-family="Helvetica,sans-Serif" font-size="10.00">rmvl/tracker/tracker.h</text>
</a>
</g>
</g>
<!-- Node5&#45;&gt;Node6 -->
<g id="edge5_Node000005_Node000006" class="edge">
<title>Node5&#45;&gt;Node6</title>
<g id="a_edge5_Node000005_Node000006"><a xlink:title=" ">
<path fill="none" stroke="#63b8ff" d="M533.5,-329.75C533.5,-322.8 533.5,-312.85 533.5,-304.13"/>
<polygon fill="#63b8ff" stroke="#63b8ff" points="537,-304.09 533.5,-294.09 530,-304.09 537,-304.09"/>
</a>
</g>
</g>
<!-- Node7 -->
<g id="Node000007" class="node">
<title>Node7</title>
<g id="a_Node000007"><a xlink:title=" ">
<polygon fill="#e0e0e0" stroke="#999999" points="608,-239 561,-239 561,-220 608,-220 608,-239"/>
<text text-anchor="middle" x="584.5" y="-227" font-family="Helvetica,sans-Serif" font-size="10.00">deque</text>
</a>
</g>
</g>
<!-- Node6&#45;&gt;Node7 -->
<g id="edge6_Node000006_Node000007" class="edge">
<title>Node6&#45;&gt;Node7</title>
<g id="a_edge6_Node000006_Node000007"><a xlink:title=" ">
<path fill="none" stroke="#63b8ff" d="M541.92,-274.75C549.27,-267.11 560.13,-255.82 569.04,-246.56"/>
<polygon fill="#63b8ff" stroke="#63b8ff" points="571.82,-248.72 576.24,-239.09 566.78,-243.87 571.82,-248.72"/>
</a>
</g>
</g>
<!-- Node8 -->
<g id="Node000008" class="node">
<title>Node8</title>
<g id="a_Node000008"><a xlink:href="../../d8/d36/combo_8h.html" target="_top" xlink:title="the combination of the features header file">
<polygon fill="white" stroke="#666666" points="542.5,-239 422.5,-239 422.5,-220 542.5,-220 542.5,-239"/>
<text text-anchor="middle" x="482.5" y="-227" font-family="Helvetica,sans-Serif" font-size="10.00">rmvl/combo/combo.h</text>
</a>
</g>
</g>
<!-- Node6&#45;&gt;Node8 -->
<g id="edge7_Node000006_Node000008" class="edge">
<title>Node6&#45;&gt;Node8</title>
<g id="a_edge7_Node000006_Node000008"><a xlink:title=" ">
<path fill="none" stroke="#63b8ff" d="M525.08,-274.75C517.73,-267.11 506.87,-255.82 497.96,-246.56"/>
<polygon fill="#63b8ff" stroke="#63b8ff" points="500.22,-243.87 490.76,-239.09 495.18,-248.72 500.22,-243.87"/>
</a>
</g>
</g>
<!-- Node9 -->
<g id="Node000009" class="node">
<title>Node9</title>
<g id="a_Node000009"><a xlink:href="../../d3/d7e/camutils_8hpp.html" target="_top" xlink:title=" ">
<polygon fill="white" stroke="#666666" points="555,-184 410,-184 410,-165 555,-165 555,-184"/>
<text text-anchor="middle" x="482.5" y="-172" font-family="Helvetica,sans-Serif" font-size="10.00">rmvl/camera/camutils.hpp</text>
</a>
</g>
</g>
<!-- Node8&#45;&gt;Node9 -->
<g id="edge8_Node000008_Node000009" class="edge">
<title>Node8&#45;&gt;Node9</title>
<g id="a_edge8_Node000008_Node000009"><a xlink:title=" ">
<path fill="none" stroke="#63b8ff" d="M482.5,-219.75C482.5,-212.8 482.5,-202.85 482.5,-194.13"/>
<polygon fill="#63b8ff" stroke="#63b8ff" points="486,-194.09 482.5,-184.09 479,-194.09 486,-194.09"/>
</a>
</g>
</g>
<!-- Node11 -->
<g id="Node000011" class="node">
<title>Node11</title>
<g id="a_Node000011"><a xlink:href="../../d4/d78/math_8hpp.html" target="_top" xlink:title="基础数学库">
<polygon fill="white" stroke="#666666" points="978,-184 865,-184 865,-165 978,-165 978,-184"/>
<text text-anchor="middle" x="921.5" y="-172" font-family="Helvetica,sans-Serif" font-size="10.00">rmvl/core/math.hpp</text>
</a>
</g>
</g>
<!-- Node8&#45;&gt;Node11 -->
<g id="edge10_Node000008_Node000011" class="edge">
<title>Node8&#45;&gt;Node11</title>
<g id="a_edge10_Node000008_Node000011"><a xlink:title=" ">
<path fill="none" stroke="#63b8ff" d="M542.71,-221.07C545.68,-220.71 548.62,-220.35 551.5,-220 657.46,-207.1 780.53,-192.34 854.64,-183.48"/>
<polygon fill="#63b8ff" stroke="#63b8ff" points="855.25,-186.93 864.76,-182.27 854.42,-179.98 855.25,-186.93"/>
</a>
</g>
</g>
<!-- Node22 -->
<g id="Node000022" class="node">
<title>Node22</title>
<g id="a_Node000022"><a xlink:href="../../dd/de3/types_8hpp.html" target="_top" xlink:title="常用状态类型定义">
<polygon fill="white" stroke="#666666" points="184.5,-129 94.5,-129 94.5,-110 184.5,-110 184.5,-129"/>
<text text-anchor="middle" x="139.5" y="-117" font-family="Helvetica,sans-Serif" font-size="10.00">rmvl/types.hpp</text>
</a>
</g>
</g>
<!-- Node8&#45;&gt;Node22 -->
<g id="edge23_Node000008_Node000022" class="edge">
<title>Node8&#45;&gt;Node22</title>
<g id="a_edge23_Node000008_Node000022"><a xlink:title=" ">
<path fill="none" stroke="#63b8ff" d="M422.39,-225.63C369.31,-221.35 290.76,-210.66 227.5,-184 200,-172.41 172.84,-150.85 156.13,-136.1"/>
<polygon fill="#63b8ff" stroke="#63b8ff" points="158.16,-133.21 148.4,-129.09 153.46,-138.4 158.16,-133.21"/>
</a>
</g>
</g>
<!-- Node23 -->
<g id="Node000023" class="node">
<title>Node23</title>
<g id="a_Node000023"><a xlink:href="../../d5/d60/dataio_8hpp.html" target="_top" xlink:title="陀螺仪数据">
<polygon fill="white" stroke="#666666" points="694.5,-184 576.5,-184 576.5,-165 694.5,-165 694.5,-184"/>
<text text-anchor="middle" x="635.5" y="-172" font-family="Helvetica,sans-Serif" font-size="10.00">rmvl/core/dataio.hpp</text>
</a>
</g>
</g>
<!-- Node8&#45;&gt;Node23 -->
<g id="edge25_Node000008_Node000023" class="edge">
<title>Node8&#45;&gt;Node23</title>
<g id="a_edge25_Node000008_Node000023"><a xlink:title=" ">
<path fill="none" stroke="#63b8ff" d="M507.08,-219.98C532.55,-211.16 572.54,-197.31 601.13,-187.41"/>
<polygon fill="#63b8ff" stroke="#63b8ff" points="602.42,-190.66 610.73,-184.08 600.13,-184.05 602.42,-190.66"/>
</a>
</g>
</g>
<!-- Node26 -->
<g id="Node000026" class="node">
<title>Node26</title>
<g id="a_Node000026"><a xlink:href="../../d2/d74/feature_8h.html" target="_top" xlink:title="feature class header">
<polygon fill="white" stroke="#666666" points="362,-184 237,-184 237,-165 362,-165 362,-184"/>
<text text-anchor="middle" x="299.5" y="-172" font-family="Helvetica,sans-Serif" font-size="10.00">rmvl/feature/feature.h</text>
</a>
</g>
</g>
<!-- Node8&#45;&gt;Node26 -->
<g id="edge29_Node000008_Node000026" class="edge">
<title>Node8&#45;&gt;Node26</title>
<g id="a_edge29_Node000008_Node000026"><a xlink:title=" ">
<path fill="none" stroke="#63b8ff" d="M453.1,-219.98C422.11,-211.01 373.12,-196.82 338.83,-186.89"/>
<polygon fill="#63b8ff" stroke="#63b8ff" points="339.71,-183.5 329.13,-184.08 337.76,-190.23 339.71,-183.5"/>
</a>
</g>
</g>
<!-- Node10 -->
<g id="Node000010" class="node">
<title>Node10</title>
<g id="a_Node000010"><a xlink:title=" ">
<polygon fill="#e0e0e0" stroke="#999999" points="534,-129 431,-129 431,-110 534,-110 534,-129"/>
<text text-anchor="middle" x="482.5" y="-117" font-family="Helvetica,sans-Serif" font-size="10.00">opencv2/core.hpp</text>
</a>
</g>
</g>
<!-- Node9&#45;&gt;Node10 -->
<g id="edge9_Node000009_Node000010" class="edge">
<title>Node9&#45;&gt;Node10</title>
<g id="a_edge9_Node000009_Node000010"><a xlink:title=" ">
<path fill="none" stroke="#63b8ff" d="M482.5,-164.75C482.5,-157.8 482.5,-147.85 482.5,-139.13"/>
<polygon fill="#63b8ff" stroke="#63b8ff" points="486,-139.09 482.5,-129.09 479,-139.09 486,-139.09"/>
</a>
</g>
</g>
<!-- Node11&#45;&gt;Node4 -->
<g id="edge13_Node000011_Node000004" class="edge">
<title>Node11&#45;&gt;Node4</title>
<g id="a_edge13_Node000011_Node000004"><a xlink:title=" ">
<path fill="none" stroke="#63b8ff" d="M900.45,-164.98C879.09,-156.34 845.8,-142.87 821.44,-133.02"/>
<polygon fill="#63b8ff" stroke="#63b8ff" points="822.51,-129.68 811.93,-129.17 819.89,-136.17 822.51,-129.68"/>
</a>
</g>
</g>
<!-- Node12 -->
<g id="Node000012" class="node">
<title>Node12</title>
<g id="a_Node000012"><a xlink:title=" ">
<polygon fill="#e0e0e0" stroke="#999999" points="1242,-129 1195,-129 1195,-110 1242,-110 1242,-129"/>
<text text-anchor="middle" x="1218.5" y="-117" font-family="Helvetica,sans-Serif" font-size="10.00">cmath</text>
</a>
</g>
</g>
<!-- Node11&#45;&gt;Node12 -->
<g id="edge11_Node000011_Node000012" class="edge">
<title>Node11&#45;&gt;Node12</title>
<g id="a_edge11_Node000011_Node000012"><a xlink:title=" ">
<path fill="none" stroke="#63b8ff" d="M975.72,-164.99C1028.22,-156.56 1110.01,-142.93 1180.5,-129 1181.95,-128.71 1183.43,-128.41 1184.93,-128.11"/>
<polygon fill="#63b8ff" stroke="#63b8ff" points="1185.78,-131.5 1194.82,-125.99 1184.31,-124.66 1185.78,-131.5"/>
</a>
</g>
</g>
<!-- Node13 -->
<g id="Node000013" class="node">
<title>Node13</title>
<g id="a_Node000013"><a xlink:title=" ">
<polygon fill="#e0e0e0" stroke="#999999" points="911.5,-129 855.5,-129 855.5,-110 911.5,-110 911.5,-129"/>
<text text-anchor="middle" x="883.5" y="-117" font-family="Helvetica,sans-Serif" font-size="10.00">numeric</text>
</a>
</g>
</g>
<!-- Node11&#45;&gt;Node13 -->
<g id="edge12_Node000011_Node000013" class="edge">
<title>Node11&#45;&gt;Node13</title>
<g id="a_edge12_Node000011_Node000013"><a xlink:title=" ">
<path fill="none" stroke="#63b8ff" d="M915.23,-164.75C909.91,-157.34 902.14,-146.5 895.62,-137.41"/>
<polygon fill="#63b8ff" stroke="#63b8ff" points="898.33,-135.18 889.66,-129.09 892.64,-139.26 898.33,-135.18"/>
</a>
</g>
</g>
<!-- Node14 -->
<g id="Node000014" class="node">
<title>Node14</title>
<g id="a_Node000014"><a xlink:title=" ">
<polygon fill="#e0e0e0" stroke="#999999" points="726,-129 679,-129 679,-110 726,-110 726,-129"/>
<text text-anchor="middle" x="702.5" y="-117" font-family="Helvetica,sans-Serif" font-size="10.00">vector</text>
</a>
</g>
</g>
<!-- Node11&#45;&gt;Node14 -->
<g id="edge14_Node000011_Node000014" class="edge">
<title>Node11&#45;&gt;Node14</title>
<g id="a_edge14_Node000011_Node000014"><a xlink:title=" ">
<path fill="none" stroke="#63b8ff" d="M885.1,-164.99C849.62,-156.65 793.9,-143.43 736.29,-129.16"/>
<polygon fill="#63b8ff" stroke="#63b8ff" points="736.83,-125.69 726.28,-126.68 735.14,-132.48 736.83,-125.69"/>
</a>
</g>
</g>
<!-- Node15 -->
<g id="Node000015" class="node">
<title>Node15</title>
<g id="a_Node000015"><a xlink:title=" ">
<polygon fill="#e0e0e0" stroke="#999999" points="989,-129 930,-129 930,-110 989,-110 989,-129"/>
<text text-anchor="middle" x="959.5" y="-117" font-family="Helvetica,sans-Serif" font-size="10.00">numbers</text>
</a>
</g>
</g>
<!-- Node11&#45;&gt;Node15 -->
<g id="edge15_Node000011_Node000015" class="edge">
<title>Node11&#45;&gt;Node15</title>
<g id="a_edge15_Node000011_Node000015"><a xlink:title=" ">
<path fill="none" stroke="#63b8ff" d="M927.77,-164.75C933.09,-157.34 940.86,-146.5 947.38,-137.41"/>
<polygon fill="#63b8ff" stroke="#63b8ff" points="950.36,-139.26 953.34,-129.09 944.67,-135.18 950.36,-139.26"/>
</a>
</g>
</g>
<!-- Node16 -->
<g id="Node000016" class="node">
<title>Node16</title>
<g id="a_Node000016"><a xlink:title=" ">
<polygon fill="#e0e0e0" stroke="#999999" points="1138,-129 1007,-129 1007,-110 1138,-110 1138,-129"/>
<text text-anchor="middle" x="1072.5" y="-117" font-family="Helvetica,sans-Serif" font-size="10.00">opencv2/core/matx.hpp</text>
</a>
</g>
</g>
<!-- Node11&#45;&gt;Node16 -->
<g id="edge16_Node000011_Node000016" class="edge">
<title>Node11&#45;&gt;Node16</title>
<g id="a_edge16_Node000011_Node000016"><a xlink:title=" ">
<path fill="none" stroke="#63b8ff" d="M945.76,-164.98C970.82,-156.19 1010.13,-142.39 1038.33,-132.49"/>
<polygon fill="#63b8ff" stroke="#63b8ff" points="1039.52,-135.78 1047.8,-129.17 1037.2,-129.18 1039.52,-135.78"/>
</a>
</g>
</g>
<!-- Node17 -->
<g id="Node000017" class="node">
<title>Node17</title>
<g id="a_Node000017"><a xlink:href="../../d0/d3f/util_8hpp.html" target="_top" xlink:title=" ">
<polygon fill="white" stroke="#666666" points="296,-74 243,-74 243,-55 296,-55 296,-74"/>
<text text-anchor="middle" x="269.5" y="-62" font-family="Helvetica,sans-Serif" font-size="10.00">util.hpp</text>
</a>
</g>
</g>
<!-- Node11&#45;&gt;Node17 -->
<g id="edge17_Node000011_Node000017" class="edge">
<title>Node11&#45;&gt;Node17</title>
<g id="a_edge17_Node000011_Node000017"><a xlink:title=" ">
<path fill="none" stroke="#63b8ff" d="M978.01,-174.15C1060.57,-173.33 1199.03,-164.2 1147.5,-110 1118.08,-79.05 468.88,-68.2 306.2,-65.97"/>
<polygon fill="#63b8ff" stroke="#63b8ff" points="306.25,-62.47 296.2,-65.83 306.16,-69.46 306.25,-62.47"/>
</a>
</g>
</g>
<!-- Node17&#45;&gt;Node2 -->
<g id="edge18_Node000017_Node000002" class="edge">
<title>Node17&#45;&gt;Node2</title>
<g id="a_edge18_Node000017_Node000002"><a xlink:title=" ">
<path fill="none" stroke="#63b8ff" d="M242.96,-56.57C208.88,-47.67 149.32,-32.12 108.92,-21.57"/>
<polygon fill="#63b8ff" stroke="#63b8ff" points="109.65,-18.15 99.09,-19.01 107.88,-24.92 109.65,-18.15"/>
</a>
</g>
</g>
<!-- Node18 -->
<g id="Node000018" class="node">
<title>Node18</title>
<g id="a_Node000018"><a xlink:title=" ">
<polygon fill="#e0e0e0" stroke="#999999" points="294.5,-19 244.5,-19 244.5,0 294.5,0 294.5,-19"/>
<text text-anchor="middle" x="269.5" y="-7" font-family="Helvetica,sans-Serif" font-size="10.00">cstdint</text>
</a>
</g>
</g>
<!-- Node17&#45;&gt;Node18 -->
<g id="edge19_Node000017_Node000018" class="edge">
<title>Node17&#45;&gt;Node18</title>
<g id="a_edge19_Node000017_Node000018"><a xlink:title=" ">
<path fill="none" stroke="#63b8ff" d="M269.5,-54.75C269.5,-47.8 269.5,-37.85 269.5,-29.13"/>
<polygon fill="#63b8ff" stroke="#63b8ff" points="273,-29.09 269.5,-19.09 266,-29.09 273,-29.09"/>
</a>
</g>
</g>
<!-- Node19 -->
<g id="Node000019" class="node">
<title>Node19</title>
<g id="a_Node000019"><a xlink:title=" ">
<polygon fill="#e0e0e0" stroke="#999999" points="358.5,-19 312.5,-19 312.5,0 358.5,0 358.5,-19"/>
<text text-anchor="middle" x="335.5" y="-7" font-family="Helvetica,sans-Serif" font-size="10.00">cstdio</text>
</a>
</g>
</g>
<!-- Node17&#45;&gt;Node19 -->
<g id="edge20_Node000017_Node000019" class="edge">
<title>Node17&#45;&gt;Node19</title>
<g id="a_edge20_Node000017_Node000019"><a xlink:title=" ">
<path fill="none" stroke="#63b8ff" d="M280.1,-54.98C289.96,-47.07 304.85,-35.11 316.72,-25.58"/>
<polygon fill="#63b8ff" stroke="#63b8ff" points="319.1,-28.16 324.7,-19.17 314.71,-22.7 319.1,-28.16"/>
</a>
</g>
</g>
<!-- Node20 -->
<g id="Node000020" class="node">
<title>Node20</title>
<g id="a_Node000020"><a xlink:title=" ">
<polygon fill="#e0e0e0" stroke="#999999" points="420.5,-19 376.5,-19 376.5,0 420.5,0 420.5,-19"/>
<text text-anchor="middle" x="398.5" y="-7" font-family="Helvetica,sans-Serif" font-size="10.00">string</text>
</a>
</g>
</g>
<!-- Node17&#45;&gt;Node20 -->
<g id="edge21_Node000017_Node000020" class="edge">
<title>Node17&#45;&gt;Node20</title>
<g id="a_edge21_Node000017_Node000020"><a xlink:title=" ">
<path fill="none" stroke="#63b8ff" d="M290.23,-54.98C311.26,-46.34 344.05,-32.87 368.04,-23.02"/>
<polygon fill="#63b8ff" stroke="#63b8ff" points="369.48,-26.21 377.4,-19.17 366.82,-19.73 369.48,-26.21"/>
</a>
</g>
</g>
<!-- Node21 -->
<g id="Node000021" class="node">
<title>Node21</title>
<g id="a_Node000021"><a xlink:href="../../db/d41/rmvldef_8hpp.html" target="_top" xlink:title=" ">
<polygon fill="white" stroke="#666666" points="226,-19 151,-19 151,0 226,0 226,-19"/>
<text text-anchor="middle" x="188.5" y="-7" font-family="Helvetica,sans-Serif" font-size="10.00">rmvldef.hpp</text>
</a>
</g>
</g>
<!-- Node17&#45;&gt;Node21 -->
<g id="edge22_Node000017_Node000021" class="edge">
<title>Node17&#45;&gt;Node21</title>
<g id="a_edge22_Node000017_Node000021"><a xlink:title=" ">
<path fill="none" stroke="#63b8ff" d="M256.49,-54.98C244.04,-46.84 225.04,-34.41 210.29,-24.76"/>
<polygon fill="#63b8ff" stroke="#63b8ff" points="212.04,-21.72 201.75,-19.17 208.2,-27.57 212.04,-21.72"/>
</a>
</g>
</g>
<!-- Node22&#45;&gt;Node17 -->
<g id="edge24_Node000022_Node000017" class="edge">
<title>Node22&#45;&gt;Node17</title>
<g id="a_edge24_Node000022_Node000017"><a xlink:title=" ">
<path fill="none" stroke="#63b8ff" d="M160.39,-109.98C181.58,-101.34 214.63,-87.87 238.8,-78.02"/>
<polygon fill="#63b8ff" stroke="#63b8ff" points="240.29,-81.19 248.23,-74.17 237.65,-74.7 240.29,-81.19"/>
</a>
</g>
</g>
<!-- Node23&#45;&gt;Node14 -->
<g id="edge28_Node000023_Node000014" class="edge">
<title>Node23&#45;&gt;Node14</title>
<g id="a_edge28_Node000023_Node000014"><a xlink:title=" ">
<path fill="none" stroke="#63b8ff" d="M646.26,-164.98C656.27,-157.07 671.39,-145.11 683.43,-135.58"/>
<polygon fill="#63b8ff" stroke="#63b8ff" points="685.87,-138.12 691.54,-129.17 681.53,-132.63 685.87,-138.12"/>
</a>
</g>
</g>
<!-- Node24 -->
<g id="Node000024" class="node">
<title>Node24</title>
<g id="a_Node000024"><a xlink:title=" ">
<polygon fill="#e0e0e0" stroke="#999999" points="660.5,-129 618.5,-129 618.5,-110 660.5,-110 660.5,-129"/>
<text text-anchor="middle" x="639.5" y="-117" font-family="Helvetica,sans-Serif" font-size="10.00">array</text>
</a>
</g>
</g>
<!-- Node23&#45;&gt;Node24 -->
<g id="edge26_Node000023_Node000024" class="edge">
<title>Node23&#45;&gt;Node24</title>
<g id="a_edge26_Node000023_Node000024"><a xlink:title=" ">
<path fill="none" stroke="#63b8ff" d="M636.16,-164.75C636.68,-157.8 637.44,-147.85 638.09,-139.13"/>
<polygon fill="#63b8ff" stroke="#63b8ff" points="641.59,-139.32 638.85,-129.09 634.61,-138.8 641.59,-139.32"/>
</a>
</g>
</g>
<!-- Node25 -->
<g id="Node000025" class="node">
<title>Node25</title>
<g id="a_Node000025"><a xlink:title=" ">
<polygon fill="#e0e0e0" stroke="#999999" points="600.5,-129 552.5,-129 552.5,-110 600.5,-110 600.5,-129"/>
<text text-anchor="middle" x="576.5" y="-117" font-family="Helvetica,sans-Serif" font-size="10.00">iosfwd</text>
</a>
</g>
</g>
<!-- Node23&#45;&gt;Node25 -->
<g id="edge27_Node000023_Node000025" class="edge">
<title>Node23&#45;&gt;Node25</title>
<g id="a_edge27_Node000023_Node000025"><a xlink:title=" ">
<path fill="none" stroke="#63b8ff" d="M626.02,-164.98C617.3,-157.15 604.16,-145.34 593.6,-135.86"/>
<polygon fill="#63b8ff" stroke="#63b8ff" points="595.93,-133.25 586.15,-129.17 591.25,-138.46 595.93,-133.25"/>
</a>
</g>
</g>
<!-- Node26&#45;&gt;Node22 -->
<g id="edge32_Node000026_Node000022" class="edge">
<title>Node26&#45;&gt;Node22</title>
<g id="a_edge32_Node000026_Node000022"><a xlink:title=" ">
<path fill="none" stroke="#63b8ff" d="M273.79,-164.98C247.05,-156.13 204.97,-142.19 175.05,-132.28"/>
<polygon fill="#63b8ff" stroke="#63b8ff" points="176,-128.9 165.41,-129.08 173.8,-135.55 176,-128.9"/>
</a>
</g>
</g>
<!-- Node27 -->
<g id="Node000027" class="node">
<title>Node27</title>
<g id="a_Node000027"><a xlink:title=" ">
<polygon fill="#e0e0e0" stroke="#999999" points="412.5,-129 354.5,-129 354.5,-110 412.5,-110 412.5,-129"/>
<text text-anchor="middle" x="383.5" y="-117" font-family="Helvetica,sans-Serif" font-size="10.00">memory</text>
</a>
</g>
</g>
<!-- Node26&#45;&gt;Node27 -->
<g id="edge30_Node000026_Node000027" class="edge">
<title>Node26&#45;&gt;Node27</title>
<g id="a_edge30_Node000026_Node000027"><a xlink:title=" ">
<path fill="none" stroke="#63b8ff" d="M313,-164.98C325.9,-156.84 345.6,-144.41 360.9,-134.76"/>
<polygon fill="#63b8ff" stroke="#63b8ff" points="363.17,-137.47 369.76,-129.17 359.43,-131.55 363.17,-137.47"/>
</a>
</g>
</g>
<!-- Node28 -->
<g id="Node000028" class="node">
<title>Node28</title>
<g id="a_Node000028"><a xlink:title=" ">
<polygon fill="#e0e0e0" stroke="#999999" points="336,-129 203,-129 203,-110 336,-110 336,-129"/>
<text text-anchor="middle" x="269.5" y="-117" font-family="Helvetica,sans-Serif" font-size="10.00">opencv2/core/types.hpp</text>
</a>
</g>
</g>
<!-- Node26&#45;&gt;Node28 -->
<g id="edge31_Node000026_Node000028" class="edge">
<title>Node26&#45;&gt;Node28</title>
<g id="a_edge31_Node000026_Node000028"><a xlink:title=" ">
<path fill="none" stroke="#63b8ff" d="M294.55,-164.75C290.44,-157.49 284.47,-146.95 279.4,-137.98"/>
<polygon fill="#63b8ff" stroke="#63b8ff" points="282.33,-136.07 274.36,-129.09 276.24,-139.52 282.33,-136.07"/>
</a>
</g>
</g>
</g>
</svg>
