<?xml version="1.0" encoding="UTF-8" standalone="no"?>
<!DOCTYPE svg PUBLIC "-//W3C//DTD SVG 1.1//EN"
 "http://www.w3.org/Graphics/SVG/1.1/DTD/svg11.dtd">
<!-- Generated by graphviz version 2.43.0 (0)
 -->
<!-- Title: rm::GyroTracker Pages: 1 -->
<!--zoomable 1063 -->

<svg id="main" version="1.1" xmlns="http://www.w3.org/2000/svg" xmlns:xlink="http://www.w3.org/1999/xlink" xml:space="preserve" onload="init(evt)">

<style type="text/css"><![CDATA[
.node, .edge {opacity: 0.7;}
.node.selected, .edge.selected {opacity: 1;}
.edge:hover path { stroke: red; }
.edge:hover polygon { stroke: red; fill: red; }
]]></style>

<defs>
  <circle id="rim" cx="0" cy="0" r="7"/>
  <circle id="rim2" cx="0" cy="0" r="3.5"/>
  <g id="zoomPlus">
    <use xlink:href="#rim" fill="#404040"><set attributeName="fill" to="#808080" begin="zoomplus.mouseover" end="zoomplus.mouseout"/></use>
    <path d="M-4,0h8M0,-4v8" fill="none" stroke="white" stroke-width="1.5" pointer-events="none"/>
  </g>
  <g id="zoomMin">
    <use xlink:href="#rim" fill="#404040"><set attributeName="fill" to="#808080" begin="zoomminus.mouseover" end="zoomminus.mouseout"/></use>
    <path d="M-4,0h8" fill="none" stroke="white" stroke-width="1.5" pointer-events="none"/>
  </g>
  <g id="arrowUp" transform="translate(30 24)">
    <use xlink:href="#rim"/>
    <path pointer-events="none" fill="none" stroke="white" stroke-width="1.5" d="M0,-3.0v7 M-2.5,-0.5L0,-3.0L2.5,-0.5"/>
  </g>
  <g id="arrowRight" transform="rotate(90) translate(36 -43)">
    <use xlink:href="#rim"/>
    <path pointer-events="none" fill="none" stroke="white" stroke-width="1.5" d="M0,-3.0v7 M-2.5,-0.5L0,-3.0L2.5,-0.5"/>
  </g>
  <g id="arrowDown" transform="rotate(180) translate(-30 -48)">
    <use xlink:href="#rim"/>
    <path pointer-events="none" fill="none" stroke="white" stroke-width="1.5" d="M0,-3.0v7 M-2.5,-0.5L0,-3.0L2.5,-0.5"/>
  </g>
  <g id="arrowLeft" transform="rotate(270) translate(-36 17)">
    <use xlink:href="#rim"/>
    <path pointer-events="none" fill="none" stroke="white" stroke-width="1.5" d="M0,-3.0v7 M-2.5,-0.5L0,-3.0L2.5,-0.5"/>
  </g>
  <g id="resetDef">
    <use xlink:href="#rim2" fill="#404040"><set attributeName="fill" to="#808080" begin="reset.mouseover" end="reset.mouseout"/></use>
  </g>
</defs>
<script type="application/ecmascript">
var viewWidth = 791;
var viewHeight = 1063;
var sectionId = 'dynsection-1';
</script>
<script type="application/ecmascript" xlink:href="../../svg.min.js"/>
<svg id="graph" class="graph">
<g id="viewport">
<title>rm::GyroTracker</title>
<!-- Node1 -->
<g id="Node000001" class="node">
<title>Node1</title>
<g id="a_Node000001"><a xlink:title="整车状态追踪器">
<polygon fill="#999999" stroke="transparent" points="534,-184 427,-184 427,0 534,0 534,-184"/>
<text text-anchor="start" x="445" y="-172" font-family="Helvetica,sans-Serif" font-size="10.00">rm::GyroTracker</text>
<text text-anchor="start" x="479" y="-157" font-family="Helvetica,sans-Serif" font-size="10.00"> </text>
<text text-anchor="start" x="431.5" y="-142" font-family="Helvetica,sans-Serif" font-size="10.00">+</text>
<text text-anchor="start" x="442.5" y="-142" font-family="Helvetica,sans-Serif" font-size="10.00">clone()</text>
<text text-anchor="start" x="431.5" y="-127" font-family="Helvetica,sans-Serif" font-size="10.00">+</text>
<text text-anchor="start" x="442.5" y="-127" font-family="Helvetica,sans-Serif" font-size="10.00">update()</text>
<text text-anchor="start" x="431.5" y="-112" font-family="Helvetica,sans-Serif" font-size="10.00">+</text>
<text text-anchor="start" x="442.5" y="-112" font-family="Helvetica,sans-Serif" font-size="10.00">update()</text>
<text text-anchor="start" x="431.5" y="-97" font-family="Helvetica,sans-Serif" font-size="10.00">+</text>
<text text-anchor="start" x="442.5" y="-97" font-family="Helvetica,sans-Serif" font-size="10.00">updateVanishState()</text>
<text text-anchor="start" x="431.5" y="-82" font-family="Helvetica,sans-Serif" font-size="10.00">+</text>
<text text-anchor="start" x="442.5" y="-82" font-family="Helvetica,sans-Serif" font-size="10.00">getDuration()</text>
<text text-anchor="start" x="431.5" y="-67" font-family="Helvetica,sans-Serif" font-size="10.00">+</text>
<text text-anchor="start" x="442.5" y="-67" font-family="Helvetica,sans-Serif" font-size="10.00">getPose()</text>
<text text-anchor="start" x="431.5" y="-52" font-family="Helvetica,sans-Serif" font-size="10.00">+</text>
<text text-anchor="start" x="442.5" y="-52" font-family="Helvetica,sans-Serif" font-size="10.00">getRotatedSpeed()</text>
<text text-anchor="start" x="431.5" y="-37" font-family="Helvetica,sans-Serif" font-size="10.00">+</text>
<text text-anchor="start" x="442.5" y="-37" font-family="Helvetica,sans-Serif" font-size="10.00">make_tracker()</text>
<text text-anchor="start" x="431.5" y="-22" font-family="Helvetica,sans-Serif" font-size="10.00">+</text>
<text text-anchor="start" x="442.5" y="-22" font-family="Helvetica,sans-Serif" font-size="10.00">cast()</text>
<text text-anchor="start" x="431.5" y="-7" font-family="Helvetica,sans-Serif" font-size="10.00">+</text>
<text text-anchor="start" x="442.5" y="-7" font-family="Helvetica,sans-Serif" font-size="10.00">cast()</text>
<polygon fill="#666666" stroke="#666666" points="427.5,-167 427.5,-167 534.5,-167 534.5,-167 427.5,-167"/>
<polygon fill="#666666" stroke="#666666" points="427.5,-152 427.5,-152 534.5,-152 534.5,-152 427.5,-152"/>
<polygon fill="none" stroke="#666666" points="427,0 427,-184 534,-184 534,0 427,0"/>
</a>
</g>
</g>
<!-- Node2 -->
<g id="Node000002" class="node">
<title>Node2</title>
<g id="a_Node000002"><a xlink:href="../../d6/dd2/classrm_1_1tracker.html" target="_top" xlink:title="组合体时间序列">
<polygon fill="white" stroke="transparent" points="532,-420 429,-420 429,-221 532,-221 532,-420"/>
<text text-anchor="start" x="457" y="-407.5" font-family="Helvetica,sans-Serif" font-size="10.00">rm::tracker</text>
<text text-anchor="start" x="479" y="-392.5" font-family="Helvetica,sans-Serif" font-size="10.00"> </text>
<text text-anchor="start" x="433.5" y="-377.5" font-family="Helvetica,sans-Serif" font-size="10.00">+</text>
<text text-anchor="start" x="444.5" y="-377.5" font-family="Helvetica,sans-Serif" font-size="10.00">clone()</text>
<text text-anchor="start" x="433.5" y="-362.5" font-family="Helvetica,sans-Serif" font-size="10.00">+</text>
<text text-anchor="start" x="444.5" y="-362.5" font-family="Helvetica,sans-Serif" font-size="10.00">update()</text>
<text text-anchor="start" x="433.5" y="-347.5" font-family="Helvetica,sans-Serif" font-size="10.00">+</text>
<text text-anchor="start" x="444.5" y="-347.5" font-family="Helvetica,sans-Serif" font-size="10.00">update()</text>
<text text-anchor="start" x="433.5" y="-332.5" font-family="Helvetica,sans-Serif" font-size="10.00">+</text>
<text text-anchor="start" x="444.5" y="-332.5" font-family="Helvetica,sans-Serif" font-size="10.00">invalid()</text>
<text text-anchor="start" x="433.5" y="-317.5" font-family="Helvetica,sans-Serif" font-size="10.00">+</text>
<text text-anchor="start" x="444.5" y="-317.5" font-family="Helvetica,sans-Serif" font-size="10.00">front()</text>
<text text-anchor="start" x="433.5" y="-302.5" font-family="Helvetica,sans-Serif" font-size="10.00">+</text>
<text text-anchor="start" x="444.5" y="-302.5" font-family="Helvetica,sans-Serif" font-size="10.00">back()</text>
<text text-anchor="start" x="433.5" y="-287.5" font-family="Helvetica,sans-Serif" font-size="10.00">+</text>
<text text-anchor="start" x="444.5" y="-287.5" font-family="Helvetica,sans-Serif" font-size="10.00">getVanishNumber()</text>
<text text-anchor="start" x="433.5" y="-272.5" font-family="Helvetica,sans-Serif" font-size="10.00">+</text>
<text text-anchor="start" x="444.5" y="-272.5" font-family="Helvetica,sans-Serif" font-size="10.00">size()</text>
<text text-anchor="start" x="433.5" y="-257.5" font-family="Helvetica,sans-Serif" font-size="10.00">+</text>
<text text-anchor="start" x="444.5" y="-257.5" font-family="Helvetica,sans-Serif" font-size="10.00">data()</text>
<text text-anchor="start" x="433.5" y="-242.5" font-family="Helvetica,sans-Serif" font-size="10.00">+</text>
<text text-anchor="start" x="444.5" y="-242.5" font-family="Helvetica,sans-Serif" font-size="10.00">empty()</text>
<text text-anchor="start" x="444.5" y="-227.5" font-family="Helvetica,sans-Serif" font-size="10.00">和 11 更多...</text>
<polygon fill="#666666" stroke="#666666" points="429.5,-402.5 429.5,-402.5 532.5,-402.5 532.5,-402.5 429.5,-402.5"/>
<polygon fill="#666666" stroke="#666666" points="429.5,-387.5 429.5,-387.5 532.5,-387.5 532.5,-387.5 429.5,-387.5"/>
<polygon fill="none" stroke="#666666" points="429,-221 429,-420 532,-420 532,-221 429,-221"/>
</a>
</g>
</g>
<!-- Node2&#45;&gt;Node1 -->
<g id="edge1_Node000001_Node000002" class="edge">
<title>Node2&#45;&gt;Node1</title>
<g id="a_edge1_Node000001_Node000002"><a xlink:title=" ">
<path fill="none" stroke="#63b8ff" d="M480.5,-210.8C480.5,-201.9 480.5,-192.97 480.5,-184.22"/>
<polygon fill="none" stroke="#63b8ff" points="477,-210.81 480.5,-220.81 484,-210.81 477,-210.81"/>
</a>
</g>
</g>
<!-- Node3 -->
<g id="Node000003" class="node">
<title>Node3</title>
<g id="a_Node000003"><a xlink:title=" ">
<polygon fill="white" stroke="transparent" points="201,-640 100,-640 100,-580 201,-580 201,-640"/>
<text text-anchor="start" x="105.5" y="-628" font-family="Helvetica,sans-Serif" font-size="10.00">std::deque&lt; combo::</text>
<text text-anchor="start" x="140.5" y="-617" font-family="Helvetica,sans-Serif" font-size="10.00">ptr &gt;</text>
<text text-anchor="start" x="149" y="-602" font-family="Helvetica,sans-Serif" font-size="10.00"> </text>
<text text-anchor="start" x="149" y="-587" font-family="Helvetica,sans-Serif" font-size="10.00"> </text>
<polygon fill="#666666" stroke="#666666" points="100.5,-612 100.5,-612 201.5,-612 201.5,-612 100.5,-612"/>
<polygon fill="#666666" stroke="#666666" points="100.5,-597 100.5,-597 201.5,-597 201.5,-597 100.5,-597"/>
<polygon fill="none" stroke="#666666" points="100,-580 100,-640 201,-640 201,-580 100,-580"/>
</a>
</g>
</g>
<!-- Node3&#45;&gt;Node2 -->
<g id="edge2_Node000002_Node000003" class="edge">
<title>Node3&#45;&gt;Node2</title>
<g id="a_edge2_Node000002_Node000003"><a xlink:title=" ">
<path fill="none" stroke="#63b8ff" d="M154.12,-579.93C160.2,-542.65 175.73,-478.05 213.5,-438 268.2,-380 356.78,-349.26 416.77,-334.19"/>
<polygon fill="none" stroke="#63b8ff" points="417.07,-334.12 421.97,-328.82 428.74,-331.3 423.85,-336.6 417.07,-334.12"/>
</a>
</g>
<text text-anchor="start" x="216.5" y="-458.5" font-family="Helvetica,sans-Serif" font-size="10.00" fill="grey">#_combo_deque</text>
</g>
<!-- Node4 -->
<g id="Node000004" class="node">
<title>Node4</title>
<g id="a_Node000004"><a xlink:title=" ">
<polygon fill="white" stroke="transparent" points="123,-819 0,-819 0,-770 123,-770 123,-819"/>
<text text-anchor="start" x="5.5" y="-806.5" font-family="Helvetica,sans-Serif" font-size="10.00">std::shared_ptr&lt; combo &gt;</text>
<text text-anchor="start" x="17.5" y="-791.5" font-family="Helvetica,sans-Serif" font-size="10.00">+</text>
<text text-anchor="start" x="41.5" y="-791.5" font-family="Helvetica,sans-Serif" font-size="10.00">ptr</text>
<text text-anchor="start" x="17.5" y="-776.5" font-family="Helvetica,sans-Serif" font-size="10.00">+</text>
<text text-anchor="start" x="41.5" y="-776.5" font-family="Helvetica,sans-Serif" font-size="10.00">operator&#45;&gt;()</text>
<polygon fill="#666666" stroke="#666666" points="0.5,-801.5 0.5,-801.5 123.5,-801.5 123.5,-801.5 0.5,-801.5"/>
<polygon fill="#666666" stroke="#666666" points="0.5,-786.5 0.5,-786.5 39.5,-786.5 39.5,-786.5 0.5,-786.5"/>
<polygon fill="#666666" stroke="#666666" points="39.5,-786.5 39.5,-786.5 123.5,-786.5 123.5,-786.5 39.5,-786.5"/>
<polygon fill="none" stroke="#666666" points="0,-770 0,-819 123,-819 123,-770 0,-770"/>
</a>
</g>
</g>
<!-- Node4&#45;&gt;Node3 -->
<g id="edge3_Node000003_Node000004" class="edge">
<title>Node4&#45;&gt;Node3</title>
<g id="a_edge3_Node000003_Node000004"><a xlink:title=" ">
<path fill="none" stroke="#63b8ff" d="M73.14,-769.64C87.76,-739.65 113.09,-687.71 130.77,-651.47"/>
<polygon fill="none" stroke="#63b8ff" points="130.95,-651.08 129.99,-643.94 136.21,-640.3 137.18,-647.44 130.95,-651.08"/>
</a>
</g>
<text text-anchor="start" x="91.5" y="-740.5" font-family="Helvetica,sans-Serif" font-size="10.00" fill="grey">+elements</text>
</g>
<!-- Node5 -->
<g id="Node000005" class="node">
<title>Node5</title>
<g id="a_Node000005"><a xlink:title=" ">
<polygon fill="white" stroke="transparent" points="122.5,-953 22.5,-953 22.5,-904 122.5,-904 122.5,-953"/>
<text text-anchor="start" x="27.5" y="-940.5" font-family="Helvetica,sans-Serif" font-size="10.00">std::shared_ptr&lt; T &gt;</text>
<text text-anchor="start" x="70.5" y="-925.5" font-family="Helvetica,sans-Serif" font-size="10.00"> </text>
<text text-anchor="start" x="34" y="-910.5" font-family="Helvetica,sans-Serif" font-size="10.00">+</text>
<text text-anchor="start" x="52.5" y="-910.5" font-family="Helvetica,sans-Serif" font-size="10.00">operator&#45;&gt;()</text>
<polygon fill="#666666" stroke="#666666" points="22.5,-935.5 22.5,-935.5 122.5,-935.5 122.5,-935.5 22.5,-935.5"/>
<polygon fill="#666666" stroke="#666666" points="22.5,-920.5 22.5,-920.5 122.5,-920.5 122.5,-920.5 22.5,-920.5"/>
<polygon fill="none" stroke="#666666" points="22.5,-904 22.5,-953 122.5,-953 122.5,-904 22.5,-904"/>
</a>
</g>
</g>
<!-- Node5&#45;&gt;Node4 -->
<g id="edge4_Node000004_Node000005" class="edge">
<title>Node5&#45;&gt;Node4</title>
<g id="a_edge4_Node000004_Node000005"><a xlink:title=" ">
<path fill="none" stroke="orange" d="M59.32,-894.1C58.59,-891.39 57.97,-888.67 57.5,-886 53.57,-863.54 55.37,-837.49 57.68,-819.12"/>
<polygon fill="orange" stroke="orange" points="56.01,-895.24 62.32,-903.75 62.69,-893.16 56.01,-895.24"/>
</a>
</g>
<text text-anchor="start" x="60.5" y="-858.5" font-family="Helvetica,sans-Serif" font-size="10.00" fill="grey">&lt; combo &gt;</text>
</g>
<!-- Node6 -->
<g id="Node000006" class="node">
<title>Node6</title>
<g id="a_Node000006"><a xlink:title=" ">
<polygon fill="white" stroke="transparent" points="169,-1055 152,-1055 152,-1006 169,-1006 169,-1055"/>
<text text-anchor="start" x="157.5" y="-1042.5" font-family="Helvetica,sans-Serif" font-size="10.00">T</text>
<text text-anchor="start" x="159" y="-1027.5" font-family="Helvetica,sans-Serif" font-size="10.00"> </text>
<text text-anchor="start" x="159" y="-1012.5" font-family="Helvetica,sans-Serif" font-size="10.00"> </text>
<polygon fill="#666666" stroke="#666666" points="152.5,-1037.5 152.5,-1037.5 169.5,-1037.5 169.5,-1037.5 152.5,-1037.5"/>
<polygon fill="#666666" stroke="#666666" points="152.5,-1022.5 152.5,-1022.5 169.5,-1022.5 169.5,-1022.5 152.5,-1022.5"/>
<polygon fill="none" stroke="#666666" points="152,-1006 152,-1055 169,-1055 169,-1006 152,-1006"/>
</a>
</g>
</g>
<!-- Node6&#45;&gt;Node5 -->
<g id="edge5_Node000005_Node000006" class="edge">
<title>Node6&#45;&gt;Node5</title>
<g id="a_edge5_Node000005_Node000006"><a xlink:title=" ">
<path fill="none" stroke="#63b8ff" d="M151.85,-1022.65C142.21,-1014.81 126.4,-1001.31 114.5,-988 107.63,-980.31 100.82,-971.51 94.76,-963.1"/>
<polygon fill="none" stroke="#63b8ff" points="94.66,-962.97 87.94,-960.36 87.77,-953.15 94.49,-955.76 94.66,-962.97"/>
</a>
</g>
<text text-anchor="start" x="117.5" y="-976.5" font-family="Helvetica,sans-Serif" font-size="10.00" fill="grey">+ptr</text>
</g>
<!-- Node7 -->
<g id="Node000007" class="node">
<title>Node7</title>
<g id="a_Node000007"><a xlink:title=" ">
<polygon fill="white" stroke="transparent" points="200.5,-886 120.5,-886 120.5,-837 200.5,-837 200.5,-886"/>
<text text-anchor="start" x="125.5" y="-873.5" font-family="Helvetica,sans-Serif" font-size="10.00">std::deque&lt; T &gt;</text>
<text text-anchor="start" x="158.5" y="-858.5" font-family="Helvetica,sans-Serif" font-size="10.00"> </text>
<text text-anchor="start" x="158.5" y="-843.5" font-family="Helvetica,sans-Serif" font-size="10.00"> </text>
<polygon fill="#666666" stroke="#666666" points="120.5,-868.5 120.5,-868.5 200.5,-868.5 200.5,-868.5 120.5,-868.5"/>
<polygon fill="#666666" stroke="#666666" points="120.5,-853.5 120.5,-853.5 200.5,-853.5 200.5,-853.5 120.5,-853.5"/>
<polygon fill="none" stroke="#666666" points="120.5,-837 120.5,-886 200.5,-886 200.5,-837 120.5,-837"/>
</a>
</g>
</g>
<!-- Node6&#45;&gt;Node7 -->
<g id="edge7_Node000007_Node000006" class="edge">
<title>Node6&#45;&gt;Node7</title>
<g id="a_edge7_Node000007_Node000006"><a xlink:title=" ">
<path fill="none" stroke="#63b8ff" d="M160.5,-1005.93C160.5,-977.91 160.5,-930.86 160.5,-898.33"/>
<polygon fill="none" stroke="#63b8ff" points="160.5,-898.22 156.5,-892.22 160.5,-886.22 164.5,-892.22 160.5,-898.22"/>
</a>
</g>
<text text-anchor="start" x="163.5" y="-976.5" font-family="Helvetica,sans-Serif" font-size="10.00" fill="grey">+elements</text>
</g>
<!-- Node13 -->
<g id="Node000013" class="node">
<title>Node13</title>
<g id="a_Node000013"><a xlink:title=" ">
<polygon fill="white" stroke="transparent" points="299,-953 218,-953 218,-904 299,-904 299,-953"/>
<text text-anchor="start" x="223.5" y="-940.5" font-family="Helvetica,sans-Serif" font-size="10.00">std::vector&lt; T &gt;</text>
<text text-anchor="start" x="257" y="-925.5" font-family="Helvetica,sans-Serif" font-size="10.00"> </text>
<text text-anchor="start" x="257" y="-910.5" font-family="Helvetica,sans-Serif" font-size="10.00"> </text>
<polygon fill="#666666" stroke="#666666" points="218.5,-935.5 218.5,-935.5 299.5,-935.5 299.5,-935.5 218.5,-935.5"/>
<polygon fill="#666666" stroke="#666666" points="218.5,-920.5 218.5,-920.5 299.5,-920.5 299.5,-920.5 218.5,-920.5"/>
<polygon fill="none" stroke="#666666" points="218,-904 218,-953 299,-953 299,-904 218,-904"/>
</a>
</g>
</g>
<!-- Node6&#45;&gt;Node13 -->
<g id="edge15_Node000013_Node000006" class="edge">
<title>Node6&#45;&gt;Node13</title>
<g id="a_edge15_Node000013_Node000006"><a xlink:title=" ">
<path fill="none" stroke="#63b8ff" d="M169.11,-1024.32C180.69,-1017.1 201.55,-1003.17 216.5,-988 223.86,-980.53 230.91,-971.67 237.06,-963.14"/>
<polygon fill="none" stroke="#63b8ff" points="237.24,-962.87 237.37,-955.66 244.07,-953.01 243.94,-960.22 237.24,-962.87"/>
</a>
</g>
<text text-anchor="start" x="234.5" y="-976.5" font-family="Helvetica,sans-Serif" font-size="10.00" fill="grey">+elements</text>
</g>
<!-- Node7&#45;&gt;Node3 -->
<g id="edge6_Node000003_Node000007" class="edge">
<title>Node7&#45;&gt;Node3</title>
<g id="a_edge6_Node000003_Node000007"><a xlink:title=" ">
<path fill="none" stroke="orange" d="M159.13,-826.42C157.16,-777.08 153.53,-686.62 151.67,-640.19"/>
<polygon fill="orange" stroke="orange" points="155.64,-826.73 159.54,-836.58 162.64,-826.44 155.64,-826.73"/>
</a>
</g>
<text text-anchor="start" x="163" y="-791.5" font-family="Helvetica,sans-Serif" font-size="10.00" fill="grey">&lt; combo::ptr &gt;</text>
</g>
<!-- Node8 -->
<g id="Node000008" class="node">
<title>Node8</title>
<g id="a_Node000008"><a xlink:title=" ">
<polygon fill="white" stroke="transparent" points="518,-634.5 473,-634.5 473,-585.5 518,-585.5 518,-634.5"/>
<text text-anchor="start" x="478.5" y="-622" font-family="Helvetica,sans-Serif" font-size="10.00">uint32_t</text>
<text text-anchor="start" x="494" y="-607" font-family="Helvetica,sans-Serif" font-size="10.00"> </text>
<text text-anchor="start" x="494" y="-592" font-family="Helvetica,sans-Serif" font-size="10.00"> </text>
<polygon fill="#666666" stroke="#666666" points="473.5,-617 473.5,-617 518.5,-617 518.5,-617 473.5,-617"/>
<polygon fill="#666666" stroke="#666666" points="473.5,-602 473.5,-602 518.5,-602 518.5,-602 473.5,-602"/>
<polygon fill="none" stroke="#666666" points="473,-585.5 473,-634.5 518,-634.5 518,-585.5 473,-585.5"/>
</a>
</g>
</g>
<!-- Node8&#45;&gt;Node2 -->
<g id="edge8_Node000002_Node000008" class="edge">
<title>Node8&#45;&gt;Node2</title>
<g id="a_edge8_Node000002_Node000008"><a xlink:title=" ">
<path fill="none" stroke="#63b8ff" d="M492.06,-585.29C488.63,-560.38 483.58,-520.03 481.5,-485 480.49,-467.96 479.9,-449.91 479.58,-432.26"/>
<polygon fill="none" stroke="#63b8ff" points="479.58,-432.12 475.5,-426.18 479.41,-420.12 483.5,-426.06 479.58,-432.12"/>
</a>
</g>
<text text-anchor="start" x="484.5" y="-458.5" font-family="Helvetica,sans-Serif" font-size="10.00" fill="grey">#_vanish_num</text>
</g>
<!-- Node9 -->
<g id="Node000009" class="node">
<title>Node9</title>
<g id="a_Node000009"><a xlink:href="../../d3/da8/classrm_1_1StateInfo.html" target="_top" xlink:title="状态类型系统">
<polygon fill="white" stroke="transparent" points="610.5,-717 536.5,-717 536.5,-503 610.5,-503 610.5,-717"/>
<text text-anchor="start" x="544.5" y="-705" font-family="Helvetica,sans-Serif" font-size="10.00">rm::StateInfo</text>
<text text-anchor="start" x="571.5" y="-690" font-family="Helvetica,sans-Serif" font-size="10.00"> </text>
<text text-anchor="start" x="540.5" y="-675" font-family="Helvetica,sans-Serif" font-size="10.00">+</text>
<text text-anchor="start" x="551.5" y="-675" font-family="Helvetica,sans-Serif" font-size="10.00">StateInfo()</text>
<text text-anchor="start" x="540.5" y="-660" font-family="Helvetica,sans-Serif" font-size="10.00">+</text>
<text text-anchor="start" x="551.5" y="-660" font-family="Helvetica,sans-Serif" font-size="10.00">add()</text>
<text text-anchor="start" x="540.5" y="-645" font-family="Helvetica,sans-Serif" font-size="10.00">+</text>
<text text-anchor="start" x="551.5" y="-645" font-family="Helvetica,sans-Serif" font-size="10.00">add()</text>
<text text-anchor="start" x="540.5" y="-630" font-family="Helvetica,sans-Serif" font-size="10.00">+</text>
<text text-anchor="start" x="551.5" y="-630" font-family="Helvetica,sans-Serif" font-size="10.00">remove()</text>
<text text-anchor="start" x="540.5" y="-615" font-family="Helvetica,sans-Serif" font-size="10.00">+</text>
<text text-anchor="start" x="551.5" y="-615" font-family="Helvetica,sans-Serif" font-size="10.00">contains()</text>
<text text-anchor="start" x="540.5" y="-600" font-family="Helvetica,sans-Serif" font-size="10.00">+</text>
<text text-anchor="start" x="551.5" y="-600" font-family="Helvetica,sans-Serif" font-size="10.00">clear()</text>
<text text-anchor="start" x="540.5" y="-585" font-family="Helvetica,sans-Serif" font-size="10.00">+</text>
<text text-anchor="start" x="551.5" y="-585" font-family="Helvetica,sans-Serif" font-size="10.00">empty()</text>
<text text-anchor="start" x="540.5" y="-570" font-family="Helvetica,sans-Serif" font-size="10.00">+</text>
<text text-anchor="start" x="551.5" y="-570" font-family="Helvetica,sans-Serif" font-size="10.00">at()</text>
<text text-anchor="start" x="540.5" y="-555" font-family="Helvetica,sans-Serif" font-size="10.00">+</text>
<text text-anchor="start" x="551.5" y="-555" font-family="Helvetica,sans-Serif" font-size="10.00">at_numeric()</text>
<text text-anchor="start" x="540.5" y="-540" font-family="Helvetica,sans-Serif" font-size="10.00">+</text>
<text text-anchor="start" x="551.5" y="-540" font-family="Helvetica,sans-Serif" font-size="10.00">at_string()</text>
<text text-anchor="start" x="540.5" y="-525" font-family="Helvetica,sans-Serif" font-size="10.00">+</text>
<text text-anchor="start" x="551.5" y="-525" font-family="Helvetica,sans-Serif" font-size="10.00">at()</text>
<text text-anchor="start" x="540.5" y="-510" font-family="Helvetica,sans-Serif" font-size="10.00">+</text>
<text text-anchor="start" x="551.5" y="-510" font-family="Helvetica,sans-Serif" font-size="10.00">operator[]()</text>
<polygon fill="#666666" stroke="#666666" points="536.5,-700 536.5,-700 610.5,-700 610.5,-700 536.5,-700"/>
<polygon fill="#666666" stroke="#666666" points="536.5,-685 536.5,-685 610.5,-685 610.5,-685 536.5,-685"/>
<polygon fill="none" stroke="#666666" points="536.5,-503 536.5,-717 610.5,-717 610.5,-503 536.5,-503"/>
</a>
</g>
</g>
<!-- Node9&#45;&gt;Node2 -->
<g id="edge9_Node000002_Node000009" class="edge">
<title>Node9&#45;&gt;Node2</title>
<g id="a_edge9_Node000002_Node000009"><a xlink:title=" ">
<path fill="none" stroke="#63b8ff" d="M566.87,-502.94C563.57,-481.07 558.69,-458.48 551.5,-438 547.8,-427.47 543.06,-416.86 537.78,-406.57"/>
<polygon fill="none" stroke="#63b8ff" points="537.77,-406.56 531.42,-403.16 532.11,-395.98 538.47,-399.38 537.77,-406.56"/>
</a>
</g>
<text text-anchor="start" x="567" y="-458.5" font-family="Helvetica,sans-Serif" font-size="10.00" fill="grey">#_state</text>
</g>
<!-- Node10 -->
<g id="Node000010" class="node">
<title>Node10</title>
<g id="a_Node000010"><a xlink:title=" ">
<polygon fill="white" stroke="transparent" points="658,-634.5 629,-634.5 629,-585.5 658,-585.5 658,-634.5"/>
<text text-anchor="start" x="634.5" y="-622" font-family="Helvetica,sans-Serif" font-size="10.00">float</text>
<text text-anchor="start" x="642" y="-607" font-family="Helvetica,sans-Serif" font-size="10.00"> </text>
<text text-anchor="start" x="642" y="-592" font-family="Helvetica,sans-Serif" font-size="10.00"> </text>
<polygon fill="#666666" stroke="#666666" points="629.5,-617 629.5,-617 658.5,-617 658.5,-617 629.5,-617"/>
<polygon fill="#666666" stroke="#666666" points="629.5,-602 629.5,-602 658.5,-602 658.5,-602 629.5,-602"/>
<polygon fill="none" stroke="#666666" points="629,-585.5 629,-634.5 658,-634.5 658,-585.5 629,-585.5"/>
</a>
</g>
</g>
<!-- Node10&#45;&gt;Node2 -->
<g id="edge10_Node000002_Node000010" class="edge">
<title>Node10&#45;&gt;Node2</title>
<g id="a_edge10_Node000002_Node000010"><a xlink:title=" ">
<path fill="none" stroke="#63b8ff" d="M642.82,-585.29C640.89,-550.73 633.61,-485.48 606.5,-438 590.39,-409.79 565.15,-384.48 541.48,-364.71"/>
<polygon fill="none" stroke="#63b8ff" points="541.47,-364.71 534.29,-364.03 532.16,-357.14 539.34,-357.82 541.47,-364.71"/>
</a>
</g>
<text text-anchor="start" x="628" y="-473.5" font-family="Helvetica,sans-Serif" font-size="10.00" fill="grey">#_angle</text>
<text text-anchor="start" x="628" y="-458.5" font-family="Helvetica,sans-Serif" font-size="10.00" fill="grey">#_height</text>
<text text-anchor="start" x="628" y="-443.5" font-family="Helvetica,sans-Serif" font-size="10.00" fill="grey">#_width</text>
</g>
<!-- Node11 -->
<g id="Node000011" class="node">
<title>Node11</title>
<g id="a_Node000011"><a xlink:title=" ">
<polygon fill="white" stroke="transparent" points="398,-819 357,-819 357,-770 398,-770 398,-819"/>
<text text-anchor="start" x="362.5" y="-806.5" font-family="Helvetica,sans-Serif" font-size="10.00">Point2f</text>
<text text-anchor="start" x="376" y="-791.5" font-family="Helvetica,sans-Serif" font-size="10.00"> </text>
<text text-anchor="start" x="376" y="-776.5" font-family="Helvetica,sans-Serif" font-size="10.00"> </text>
<polygon fill="#666666" stroke="#666666" points="357.5,-801.5 357.5,-801.5 398.5,-801.5 398.5,-801.5 357.5,-801.5"/>
<polygon fill="#666666" stroke="#666666" points="357.5,-786.5 357.5,-786.5 398.5,-786.5 398.5,-786.5 357.5,-786.5"/>
<polygon fill="none" stroke="#666666" points="357,-770 357,-819 398,-819 398,-770 357,-770"/>
</a>
</g>
</g>
<!-- Node11&#45;&gt;Node2 -->
<g id="edge11_Node000002_Node000011" class="edge">
<title>Node11&#45;&gt;Node2</title>
<g id="a_edge11_Node000002_Node000011"><a xlink:title=" ">
<path fill="none" stroke="#63b8ff" d="M374.87,-769.66C370.07,-719.38 362.52,-599.23 387.5,-503 395.35,-472.75 408.85,-441.77 423.16,-414.18"/>
<polygon fill="none" stroke="#63b8ff" points="423.27,-413.97 422.55,-406.8 428.9,-403.37 429.62,-410.55 423.27,-413.97"/>
</a>
</g>
<text text-anchor="start" x="391" y="-622" font-family="Helvetica,sans-Serif" font-size="10.00" fill="grey">#_center</text>
<text text-anchor="start" x="391" y="-607" font-family="Helvetica,sans-Serif" font-size="10.00" fill="grey">#_relative_angle</text>
<text text-anchor="start" x="391" y="-592" font-family="Helvetica,sans-Serif" font-size="10.00" fill="grey">#_speed</text>
</g>
<!-- Node12 -->
<g id="Node000012" class="node">
<title>Node12</title>
<g id="a_Node000012"><a xlink:title=" ">
<polygon fill="white" stroke="transparent" points="341.5,-634.5 219.5,-634.5 219.5,-585.5 341.5,-585.5 341.5,-634.5"/>
<text text-anchor="start" x="224.5" y="-622" font-family="Helvetica,sans-Serif" font-size="10.00">std::vector&lt; cv::Point2f &gt;</text>
<text text-anchor="start" x="278.5" y="-607" font-family="Helvetica,sans-Serif" font-size="10.00"> </text>
<text text-anchor="start" x="278.5" y="-592" font-family="Helvetica,sans-Serif" font-size="10.00"> </text>
<polygon fill="#666666" stroke="#666666" points="219.5,-617 219.5,-617 341.5,-617 341.5,-617 219.5,-617"/>
<polygon fill="#666666" stroke="#666666" points="219.5,-602 219.5,-602 341.5,-602 341.5,-602 219.5,-602"/>
<polygon fill="none" stroke="#666666" points="219.5,-585.5 219.5,-634.5 341.5,-634.5 341.5,-585.5 219.5,-585.5"/>
</a>
</g>
</g>
<!-- Node11&#45;&gt;Node12 -->
<g id="edge13_Node000012_Node000011" class="edge">
<title>Node11&#45;&gt;Node12</title>
<g id="a_edge13_Node000012_Node000011"><a xlink:title=" ">
<path fill="none" stroke="#63b8ff" d="M356.92,-779.36C352.22,-776.22 347.22,-772.95 342.5,-770 328.99,-761.56 320.89,-764.87 311.5,-752 289.07,-721.27 282.34,-677.4 280.58,-646.78"/>
<polygon fill="none" stroke="#63b8ff" points="280.57,-646.54 276.33,-640.7 280.1,-634.55 284.33,-640.39 280.57,-646.54"/>
</a>
</g>
<text text-anchor="start" x="314.5" y="-740.5" font-family="Helvetica,sans-Serif" font-size="10.00" fill="grey">+elements</text>
</g>
<!-- Node12&#45;&gt;Node2 -->
<g id="edge12_Node000002_Node000012" class="edge">
<title>Node12&#45;&gt;Node2</title>
<g id="a_edge12_Node000002_Node000012"><a xlink:title=" ">
<path fill="none" stroke="#63b8ff" d="M279.84,-585.39C279.98,-550.38 284.59,-483.9 314.5,-438 339.59,-399.51 382.23,-369.98 418.02,-350.29"/>
<polygon fill="none" stroke="#63b8ff" points="418.29,-350.14 421.7,-343.79 428.88,-344.49 425.47,-350.85 418.29,-350.14"/>
</a>
</g>
<text text-anchor="start" x="318" y="-458.5" font-family="Helvetica,sans-Serif" font-size="10.00" fill="grey">#_corners</text>
</g>
<!-- Node13&#45;&gt;Node12 -->
<g id="edge14_Node000012_Node000013" class="edge">
<title>Node13&#45;&gt;Node12</title>
<g id="a_edge14_Node000012_Node000013"><a xlink:title=" ">
<path fill="none" stroke="orange" d="M260.83,-893.95C265.3,-829.61 274.98,-690.34 278.85,-634.69"/>
<polygon fill="orange" stroke="orange" points="257.34,-893.75 260.14,-903.97 264.32,-894.24 257.34,-893.75"/>
</a>
</g>
<text text-anchor="start" x="272.5" y="-791.5" font-family="Helvetica,sans-Serif" font-size="10.00" fill="grey">&lt; cv::Point2f &gt;</text>
</g>
<!-- Node14 -->
<g id="Node000014" class="node">
<title>Node14</title>
<g id="a_Node000014"><a xlink:href="../../da/dbf/classrm_1_1CameraExtrinsics.html" target="_top" xlink:title="相机外参">
<polygon fill="white" stroke="transparent" points="782.5,-717 676.5,-717 676.5,-503 782.5,-503 782.5,-717"/>
<text text-anchor="start" x="681.5" y="-705" font-family="Helvetica,sans-Serif" font-size="10.00">rm::CameraExtrinsics</text>
<text text-anchor="start" x="727.5" y="-690" font-family="Helvetica,sans-Serif" font-size="10.00"> </text>
<text text-anchor="start" x="691.5" y="-675" font-family="Helvetica,sans-Serif" font-size="10.00">+</text>
<text text-anchor="start" x="713.5" y="-675" font-family="Helvetica,sans-Serif" font-size="10.00">tvec()</text>
<text text-anchor="start" x="691.5" y="-660" font-family="Helvetica,sans-Serif" font-size="10.00">+</text>
<text text-anchor="start" x="713.5" y="-660" font-family="Helvetica,sans-Serif" font-size="10.00">rvec()</text>
<text text-anchor="start" x="691.5" y="-645" font-family="Helvetica,sans-Serif" font-size="10.00">+</text>
<text text-anchor="start" x="713.5" y="-645" font-family="Helvetica,sans-Serif" font-size="10.00">R()</text>
<text text-anchor="start" x="691.5" y="-630" font-family="Helvetica,sans-Serif" font-size="10.00">+</text>
<text text-anchor="start" x="713.5" y="-630" font-family="Helvetica,sans-Serif" font-size="10.00">T()</text>
<text text-anchor="start" x="691.5" y="-615" font-family="Helvetica,sans-Serif" font-size="10.00">+</text>
<text text-anchor="start" x="713.5" y="-615" font-family="Helvetica,sans-Serif" font-size="10.00">yaw()</text>
<text text-anchor="start" x="691.5" y="-600" font-family="Helvetica,sans-Serif" font-size="10.00">+</text>
<text text-anchor="start" x="713.5" y="-600" font-family="Helvetica,sans-Serif" font-size="10.00">pitch()</text>
<text text-anchor="start" x="691.5" y="-585" font-family="Helvetica,sans-Serif" font-size="10.00">+</text>
<text text-anchor="start" x="713.5" y="-585" font-family="Helvetica,sans-Serif" font-size="10.00">roll()</text>
<text text-anchor="start" x="691.5" y="-570" font-family="Helvetica,sans-Serif" font-size="10.00">+</text>
<text text-anchor="start" x="713.5" y="-570" font-family="Helvetica,sans-Serif" font-size="10.00">distance()</text>
<text text-anchor="start" x="691.5" y="-555" font-family="Helvetica,sans-Serif" font-size="10.00">+</text>
<text text-anchor="start" x="713.5" y="-555" font-family="Helvetica,sans-Serif" font-size="10.00">tvec()</text>
<text text-anchor="start" x="691.5" y="-540" font-family="Helvetica,sans-Serif" font-size="10.00">+</text>
<text text-anchor="start" x="713.5" y="-540" font-family="Helvetica,sans-Serif" font-size="10.00">rvec()</text>
<text text-anchor="start" x="691.5" y="-525" font-family="Helvetica,sans-Serif" font-size="10.00">+</text>
<text text-anchor="start" x="713.5" y="-525" font-family="Helvetica,sans-Serif" font-size="10.00">R()</text>
<text text-anchor="start" x="691.5" y="-510" font-family="Helvetica,sans-Serif" font-size="10.00">+</text>
<text text-anchor="start" x="713.5" y="-510" font-family="Helvetica,sans-Serif" font-size="10.00">distance()</text>
<polygon fill="#666666" stroke="#666666" points="676.5,-700 676.5,-700 782.5,-700 782.5,-700 676.5,-700"/>
<polygon fill="#666666" stroke="#666666" points="676.5,-685 676.5,-685 782.5,-685 782.5,-685 676.5,-685"/>
<polygon fill="none" stroke="#666666" points="676.5,-503 676.5,-717 782.5,-717 782.5,-503 676.5,-503"/>
</a>
</g>
</g>
<!-- Node14&#45;&gt;Node2 -->
<g id="edge16_Node000002_Node000014" class="edge">
<title>Node14&#45;&gt;Node2</title>
<g id="a_edge16_Node000002_Node000014"><a xlink:title=" ">
<path fill="none" stroke="#63b8ff" d="M706.21,-502.74C697.84,-479.82 686.59,-456.84 671.5,-438 637.93,-396.06 584.87,-365.43 543.19,-346.13"/>
<polygon fill="none" stroke="#63b8ff" points="542.98,-346.04 535.87,-347.22 532.04,-341.11 539.15,-339.93 542.98,-346.04"/>
</a>
</g>
<text text-anchor="start" x="701.5" y="-458.5" font-family="Helvetica,sans-Serif" font-size="10.00" fill="grey">#_extrinsic</text>
</g>
</g>
</svg>

<g id="navigator" transform="translate(0 0)" fill="#404254">
  <rect fill="#f2f5e9" fill-opacity="0.5" stroke="#606060" stroke-width=".5" x="0" y="0" width="60" height="60"/>
  <use id="zoomplus" xlink:href="#zoomPlus" x="17" y="9" onmousedown="handleZoom(evt,'in')"/>
  <use id="zoomminus" xlink:href="#zoomMin" x="42" y="9" onmousedown="handleZoom(evt,'out')"/>
  <use id="reset" xlink:href="#resetDef" x="30" y="36" onmousedown="handleReset()"/>
   <use id="arrowup" xlink:href="#arrowUp" x="0" y="0" onmousedown="handlePan(0,-1)"/>
  <use id="arrowright" xlink:href="#arrowRight" x="0" y="0" onmousedown="handlePan(1,0)"/>
  <use id="arrowdown" xlink:href="#arrowDown" x="0" y="0" onmousedown="handlePan(0,1)"/>
  <use id="arrowleft" xlink:href="#arrowLeft" x="0" y="0" onmousedown="handlePan(-1,0)"/>
</g>
<svg viewBox="0 0 15 15" width="100%" height="30px" preserveAspectRatio="xMaxYMin meet">
 <g id="arrow_out" transform="scale(0.3 0.3)">
  <a xlink:href="classrm_1_1GyroTracker__coll__graph_org.svg" target="_base">
   <rect id="button" ry="5" rx="5" y="6" x="6" height="38" width="38"
        fill="#f2f5e9" fill-opacity="0.5" stroke="#606060" stroke-width="1.0"/>
   <path id="arrow"
     d="M 11.500037,31.436501 C 11.940474,20.09759 22.043105,11.32322 32.158766,21.979434 L 37.068811,17.246167 C 37.068811,17.246167 37.088388,32 37.088388,32 L 22.160133,31.978069 C 22.160133,31.978069 26.997745,27.140456 26.997745,27.140456 C 18.528582,18.264221 13.291696,25.230495 11.500037,31.436501 z"
     style="fill:#404040;"/>
  </a>
 </g>
</svg>

<style type='text/css'>
<![CDATA[
[data-mouse-over-selected='false'] { opacity: 0.7; }
[data-mouse-over-selected='true']  { opacity: 1.0; }
]]>
</style>
<script type="application/ecmascript"><![CDATA[
document.addEventListener('DOMContentLoaded', (event) => {
  highlightEdges();
  highlightAdjacentNodes();
});
]]></script>
</svg>
