<?xml version="1.0" encoding="UTF-8" standalone="no"?>
<!DOCTYPE svg PUBLIC "-//W3C//DTD SVG 1.1//EN"
 "http://www.w3.org/Graphics/SVG/1.1/DTD/svg11.dtd">
<!-- Generated by graphviz version 2.43.0 (0)
 -->
<!-- Title: rm::GyroTracker Pages: 1 -->
<svg width="816pt" height="903pt"
 viewBox="0.00 0.00 816.00 903.00" xmlns="http://www.w3.org/2000/svg" xmlns:xlink="http://www.w3.org/1999/xlink">
<g id="graph0" class="graph" transform="scale(1 1) rotate(0) translate(4 899)">
<title>rm::GyroTracker</title>
<!-- Node1 -->
<g id="Node000001" class="node">
<title>Node1</title>
<g id="a_Node000001"><a xlink:title="整车状态追踪器">
<polygon fill="#999999" stroke="transparent" points="562.5,-184 455.5,-184 455.5,0 562.5,0 562.5,-184"/>
<text text-anchor="start" x="473.5" y="-172" font-family="Helvetica,sans-Serif" font-size="10.00">rm::GyroTracker</text>
<text text-anchor="start" x="507.5" y="-157" font-family="Helvetica,sans-Serif" font-size="10.00"> </text>
<text text-anchor="start" x="460" y="-142" font-family="Helvetica,sans-Serif" font-size="10.00">+</text>
<text text-anchor="start" x="471" y="-142" font-family="Helvetica,sans-Serif" font-size="10.00">clone()</text>
<text text-anchor="start" x="460" y="-127" font-family="Helvetica,sans-Serif" font-size="10.00">+</text>
<text text-anchor="start" x="471" y="-127" font-family="Helvetica,sans-Serif" font-size="10.00">update()</text>
<text text-anchor="start" x="460" y="-112" font-family="Helvetica,sans-Serif" font-size="10.00">+</text>
<text text-anchor="start" x="471" y="-112" font-family="Helvetica,sans-Serif" font-size="10.00">update()</text>
<text text-anchor="start" x="460" y="-97" font-family="Helvetica,sans-Serif" font-size="10.00">+</text>
<text text-anchor="start" x="471" y="-97" font-family="Helvetica,sans-Serif" font-size="10.00">updateVanishState()</text>
<text text-anchor="start" x="460" y="-82" font-family="Helvetica,sans-Serif" font-size="10.00">+</text>
<text text-anchor="start" x="471" y="-82" font-family="Helvetica,sans-Serif" font-size="10.00">getDuration()</text>
<text text-anchor="start" x="460" y="-67" font-family="Helvetica,sans-Serif" font-size="10.00">+</text>
<text text-anchor="start" x="471" y="-67" font-family="Helvetica,sans-Serif" font-size="10.00">getPose()</text>
<text text-anchor="start" x="460" y="-52" font-family="Helvetica,sans-Serif" font-size="10.00">+</text>
<text text-anchor="start" x="471" y="-52" font-family="Helvetica,sans-Serif" font-size="10.00">getRotatedSpeed()</text>
<text text-anchor="start" x="460" y="-37" font-family="Helvetica,sans-Serif" font-size="10.00">+</text>
<text text-anchor="start" x="471" y="-37" font-family="Helvetica,sans-Serif" font-size="10.00">make_tracker()</text>
<text text-anchor="start" x="460" y="-22" font-family="Helvetica,sans-Serif" font-size="10.00">+</text>
<text text-anchor="start" x="471" y="-22" font-family="Helvetica,sans-Serif" font-size="10.00">cast()</text>
<text text-anchor="start" x="460" y="-7" font-family="Helvetica,sans-Serif" font-size="10.00">+</text>
<text text-anchor="start" x="471" y="-7" font-family="Helvetica,sans-Serif" font-size="10.00">cast()</text>
<polygon fill="#666666" stroke="#666666" points="456,-167 456,-167 563,-167 563,-167 456,-167"/>
<polygon fill="#666666" stroke="#666666" points="456,-152 456,-152 563,-152 563,-152 456,-152"/>
<polygon fill="none" stroke="#666666" points="455.5,0 455.5,-184 562.5,-184 562.5,0 455.5,0"/>
</a>
</g>
</g>
<!-- Node2 -->
<g id="Node000002" class="node">
<title>Node2</title>
<g id="a_Node000002"><a xlink:href="../../d6/dd2/classrm_1_1tracker.html" target="_top" xlink:title="组合体时间序列">
<polygon fill="white" stroke="transparent" points="560.5,-420 457.5,-420 457.5,-221 560.5,-221 560.5,-420"/>
<text text-anchor="start" x="485.5" y="-407.5" font-family="Helvetica,sans-Serif" font-size="10.00">rm::tracker</text>
<text text-anchor="start" x="507.5" y="-392.5" font-family="Helvetica,sans-Serif" font-size="10.00"> </text>
<text text-anchor="start" x="462" y="-377.5" font-family="Helvetica,sans-Serif" font-size="10.00">+</text>
<text text-anchor="start" x="473" y="-377.5" font-family="Helvetica,sans-Serif" font-size="10.00">clone()</text>
<text text-anchor="start" x="462" y="-362.5" font-family="Helvetica,sans-Serif" font-size="10.00">+</text>
<text text-anchor="start" x="473" y="-362.5" font-family="Helvetica,sans-Serif" font-size="10.00">update()</text>
<text text-anchor="start" x="462" y="-347.5" font-family="Helvetica,sans-Serif" font-size="10.00">+</text>
<text text-anchor="start" x="473" y="-347.5" font-family="Helvetica,sans-Serif" font-size="10.00">update()</text>
<text text-anchor="start" x="462" y="-332.5" font-family="Helvetica,sans-Serif" font-size="10.00">+</text>
<text text-anchor="start" x="473" y="-332.5" font-family="Helvetica,sans-Serif" font-size="10.00">invalid()</text>
<text text-anchor="start" x="462" y="-317.5" font-family="Helvetica,sans-Serif" font-size="10.00">+</text>
<text text-anchor="start" x="473" y="-317.5" font-family="Helvetica,sans-Serif" font-size="10.00">front()</text>
<text text-anchor="start" x="462" y="-302.5" font-family="Helvetica,sans-Serif" font-size="10.00">+</text>
<text text-anchor="start" x="473" y="-302.5" font-family="Helvetica,sans-Serif" font-size="10.00">back()</text>
<text text-anchor="start" x="462" y="-287.5" font-family="Helvetica,sans-Serif" font-size="10.00">+</text>
<text text-anchor="start" x="473" y="-287.5" font-family="Helvetica,sans-Serif" font-size="10.00">getVanishNumber()</text>
<text text-anchor="start" x="462" y="-272.5" font-family="Helvetica,sans-Serif" font-size="10.00">+</text>
<text text-anchor="start" x="473" y="-272.5" font-family="Helvetica,sans-Serif" font-size="10.00">size()</text>
<text text-anchor="start" x="462" y="-257.5" font-family="Helvetica,sans-Serif" font-size="10.00">+</text>
<text text-anchor="start" x="473" y="-257.5" font-family="Helvetica,sans-Serif" font-size="10.00">data()</text>
<text text-anchor="start" x="462" y="-242.5" font-family="Helvetica,sans-Serif" font-size="10.00">+</text>
<text text-anchor="start" x="473" y="-242.5" font-family="Helvetica,sans-Serif" font-size="10.00">empty()</text>
<text text-anchor="start" x="473" y="-227.5" font-family="Helvetica,sans-Serif" font-size="10.00">和 11 更多...</text>
<polygon fill="#666666" stroke="#666666" points="458,-402.5 458,-402.5 561,-402.5 561,-402.5 458,-402.5"/>
<polygon fill="#666666" stroke="#666666" points="458,-387.5 458,-387.5 561,-387.5 561,-387.5 458,-387.5"/>
<polygon fill="none" stroke="#666666" points="457.5,-221 457.5,-420 560.5,-420 560.5,-221 457.5,-221"/>
</a>
</g>
</g>
<!-- Node2&#45;&gt;Node1 -->
<g id="edge1_Node000001_Node000002" class="edge">
<title>Node2&#45;&gt;Node1</title>
<g id="a_edge1_Node000001_Node000002"><a xlink:title=" ">
<path fill="none" stroke="#63b8ff" d="M509,-210.8C509,-201.9 509,-192.97 509,-184.22"/>
<polygon fill="none" stroke="#63b8ff" points="505.5,-210.81 509,-220.81 512.5,-210.81 505.5,-210.81"/>
</a>
</g>
</g>
<!-- Node3 -->
<g id="Node000003" class="node">
<title>Node3</title>
<g id="a_Node000003"><a xlink:title=" ">
<polygon fill="white" stroke="transparent" points="208.5,-626 107.5,-626 107.5,-566 208.5,-566 208.5,-626"/>
<text text-anchor="start" x="113" y="-614" font-family="Helvetica,sans-Serif" font-size="10.00">std::deque&lt; combo::</text>
<text text-anchor="start" x="148" y="-603" font-family="Helvetica,sans-Serif" font-size="10.00">ptr &gt;</text>
<text text-anchor="start" x="156.5" y="-588" font-family="Helvetica,sans-Serif" font-size="10.00"> </text>
<text text-anchor="start" x="156.5" y="-573" font-family="Helvetica,sans-Serif" font-size="10.00"> </text>
<polygon fill="#666666" stroke="#666666" points="108,-598 108,-598 209,-598 209,-598 108,-598"/>
<polygon fill="#666666" stroke="#666666" points="108,-583 108,-583 209,-583 209,-583 108,-583"/>
<polygon fill="none" stroke="#666666" points="107.5,-566 107.5,-626 208.5,-626 208.5,-566 107.5,-566"/>
</a>
</g>
</g>
<!-- Node3&#45;&gt;Node2 -->
<g id="edge2_Node000002_Node000003" class="edge">
<title>Node3&#45;&gt;Node2</title>
<g id="a_edge2_Node000002_Node000003"><a xlink:title=" ">
<path fill="none" stroke="#63b8ff" d="M169.67,-565.96C184.8,-531.47 214.18,-474.07 255,-438 310.55,-388.92 390.27,-356.92 445.52,-339.11"/>
<polygon fill="none" stroke="#63b8ff" points="445.82,-339.01 450.34,-333.4 457.27,-335.41 452.74,-341.03 445.82,-339.01"/>
</a>
</g>
<text text-anchor="middle" x="292.5" y="-452" font-family="Helvetica,sans-Serif" font-size="10.00" fill="grey"> #_combo_deque</text>
</g>
<!-- Node4 -->
<g id="Node000004" class="node">
<title>Node4</title>
<g id="a_Node000004"><a xlink:title=" ">
<polygon fill="white" stroke="transparent" points="100,-799 0,-799 0,-750 100,-750 100,-799"/>
<text text-anchor="start" x="5" y="-786.5" font-family="Helvetica,sans-Serif" font-size="10.00">std::shared_ptr&lt; T &gt;</text>
<text text-anchor="start" x="48" y="-771.5" font-family="Helvetica,sans-Serif" font-size="10.00"> </text>
<text text-anchor="start" x="11.5" y="-756.5" font-family="Helvetica,sans-Serif" font-size="10.00">+</text>
<text text-anchor="start" x="30" y="-756.5" font-family="Helvetica,sans-Serif" font-size="10.00">operator&#45;&gt;()</text>
<polygon fill="#666666" stroke="#666666" points="0,-781.5 0,-781.5 100,-781.5 100,-781.5 0,-781.5"/>
<polygon fill="#666666" stroke="#666666" points="0,-766.5 0,-766.5 100,-766.5 100,-766.5 0,-766.5"/>
<polygon fill="none" stroke="#666666" points="0,-750 0,-799 100,-799 100,-750 0,-750"/>
</a>
</g>
</g>
<!-- Node4&#45;&gt;Node3 -->
<g id="edge3_Node000003_Node000004" class="edge">
<title>Node4&#45;&gt;Node3</title>
<g id="a_edge3_Node000003_Node000004"><a xlink:title=" ">
<path fill="none" stroke="#63b8ff" d="M64.57,-749.7C82.31,-720.7 112.53,-671.3 133.79,-636.56"/>
<polygon fill="none" stroke="#63b8ff" points="133.82,-636.52 133.54,-629.32 140.08,-626.29 140.36,-633.49 133.82,-636.52"/>
</a>
</g>
<text text-anchor="middle" x="106.5" y="-724" font-family="Helvetica,sans-Serif" font-size="10.00" fill="grey"> +elements</text>
</g>
<!-- Node5 -->
<g id="Node000005" class="node">
<title>Node5</title>
<g id="a_Node000005"><a xlink:title=" ">
<polygon fill="white" stroke="transparent" points="166.5,-895 149.5,-895 149.5,-846 166.5,-846 166.5,-895"/>
<text text-anchor="start" x="155" y="-882.5" font-family="Helvetica,sans-Serif" font-size="10.00">T</text>
<text text-anchor="start" x="156.5" y="-867.5" font-family="Helvetica,sans-Serif" font-size="10.00"> </text>
<text text-anchor="start" x="156.5" y="-852.5" font-family="Helvetica,sans-Serif" font-size="10.00"> </text>
<polygon fill="#666666" stroke="#666666" points="150,-877.5 150,-877.5 167,-877.5 167,-877.5 150,-877.5"/>
<polygon fill="#666666" stroke="#666666" points="150,-862.5 150,-862.5 167,-862.5 167,-862.5 150,-862.5"/>
<polygon fill="none" stroke="#666666" points="149.5,-846 149.5,-895 166.5,-895 166.5,-846 149.5,-846"/>
</a>
</g>
</g>
<!-- Node5&#45;&gt;Node4 -->
<g id="edge4_Node000004_Node000005" class="edge">
<title>Node5&#45;&gt;Node4</title>
<g id="a_edge4_Node000004_Node000005"><a xlink:title=" ">
<path fill="none" stroke="#63b8ff" d="M149.16,-861.81C135.59,-849.99 108.83,-826.7 86.53,-807.29"/>
<polygon fill="none" stroke="#63b8ff" points="86.34,-807.13 79.19,-806.21 77.29,-799.25 84.44,-800.18 86.34,-807.13"/>
</a>
</g>
<text text-anchor="middle" x="118.5" y="-820" font-family="Helvetica,sans-Serif" font-size="10.00" fill="grey"> +ptr</text>
</g>
<!-- Node6 -->
<g id="Node000006" class="node">
<title>Node6</title>
<g id="a_Node000006"><a xlink:title=" ">
<polygon fill="white" stroke="transparent" points="198,-799 118,-799 118,-750 198,-750 198,-799"/>
<text text-anchor="start" x="123" y="-786.5" font-family="Helvetica,sans-Serif" font-size="10.00">std::deque&lt; T &gt;</text>
<text text-anchor="start" x="156" y="-771.5" font-family="Helvetica,sans-Serif" font-size="10.00"> </text>
<text text-anchor="start" x="156" y="-756.5" font-family="Helvetica,sans-Serif" font-size="10.00"> </text>
<polygon fill="#666666" stroke="#666666" points="118,-781.5 118,-781.5 198,-781.5 198,-781.5 118,-781.5"/>
<polygon fill="#666666" stroke="#666666" points="118,-766.5 118,-766.5 198,-766.5 198,-766.5 118,-766.5"/>
<polygon fill="none" stroke="#666666" points="118,-750 118,-799 198,-799 198,-750 118,-750"/>
</a>
</g>
</g>
<!-- Node5&#45;&gt;Node6 -->
<g id="edge6_Node000006_Node000005" class="edge">
<title>Node5&#45;&gt;Node6</title>
<g id="a_edge6_Node000006_Node000005"><a xlink:title=" ">
<path fill="none" stroke="#63b8ff" d="M158,-845.78C158,-835.32 158,-822.79 158,-811.23"/>
<polygon fill="none" stroke="#63b8ff" points="158,-811.21 154,-805.21 158,-799.21 162,-805.21 158,-811.21"/>
</a>
</g>
<text text-anchor="middle" x="182.5" y="-820" font-family="Helvetica,sans-Serif" font-size="10.00" fill="grey"> +elements</text>
</g>
<!-- Node12 -->
<g id="Node000012" class="node">
<title>Node12</title>
<g id="a_Node000012"><a xlink:title=" ">
<polygon fill="white" stroke="transparent" points="297.5,-799 216.5,-799 216.5,-750 297.5,-750 297.5,-799"/>
<text text-anchor="start" x="222" y="-786.5" font-family="Helvetica,sans-Serif" font-size="10.00">std::vector&lt; T &gt;</text>
<text text-anchor="start" x="255.5" y="-771.5" font-family="Helvetica,sans-Serif" font-size="10.00"> </text>
<text text-anchor="start" x="255.5" y="-756.5" font-family="Helvetica,sans-Serif" font-size="10.00"> </text>
<polygon fill="#666666" stroke="#666666" points="217,-781.5 217,-781.5 298,-781.5 298,-781.5 217,-781.5"/>
<polygon fill="#666666" stroke="#666666" points="217,-766.5 217,-766.5 298,-766.5 298,-766.5 217,-766.5"/>
<polygon fill="none" stroke="#666666" points="216.5,-750 216.5,-799 297.5,-799 297.5,-750 216.5,-750"/>
</a>
</g>
</g>
<!-- Node5&#45;&gt;Node12 -->
<g id="edge14_Node000012_Node000005" class="edge">
<title>Node5&#45;&gt;Node12</title>
<g id="a_edge14_Node000012_Node000005"><a xlink:title=" ">
<path fill="none" stroke="#63b8ff" d="M166.66,-863.49C177.49,-855.8 196.4,-841.82 211,-828 217.48,-821.87 224.03,-814.93 230.08,-808.15"/>
<polygon fill="none" stroke="#63b8ff" points="230.08,-808.15 231.01,-800.99 237.96,-799.09 237.04,-806.25 230.08,-808.15"/>
</a>
</g>
<text text-anchor="middle" x="246.5" y="-820" font-family="Helvetica,sans-Serif" font-size="10.00" fill="grey"> +elements</text>
</g>
<!-- Node6&#45;&gt;Node3 -->
<g id="edge5_Node000003_Node000006" class="edge">
<title>Node6&#45;&gt;Node3</title>
<g id="a_edge5_Node000003_Node000006"><a xlink:title=" ">
<path fill="none" stroke="orange" d="M158,-739.66C158,-706.81 158,-657.49 158,-626.29"/>
<polygon fill="orange" stroke="orange" points="154.5,-739.7 158,-749.7 161.5,-739.7 154.5,-739.7"/>
</a>
</g>
<text text-anchor="middle" x="192" y="-724" font-family="Helvetica,sans-Serif" font-size="10.00" fill="grey"> &lt; combo::ptr &gt;</text>
</g>
<!-- Node7 -->
<g id="Node000007" class="node">
<title>Node7</title>
<g id="a_Node000007"><a xlink:title=" ">
<polygon fill="white" stroke="transparent" points="543.5,-620.5 498.5,-620.5 498.5,-571.5 543.5,-571.5 543.5,-620.5"/>
<text text-anchor="start" x="504" y="-608" font-family="Helvetica,sans-Serif" font-size="10.00">uint32_t</text>
<text text-anchor="start" x="519.5" y="-593" font-family="Helvetica,sans-Serif" font-size="10.00"> </text>
<text text-anchor="start" x="519.5" y="-578" font-family="Helvetica,sans-Serif" font-size="10.00"> </text>
<polygon fill="#666666" stroke="#666666" points="499,-603 499,-603 544,-603 544,-603 499,-603"/>
<polygon fill="#666666" stroke="#666666" points="499,-588 499,-588 544,-588 544,-588 499,-588"/>
<polygon fill="none" stroke="#666666" points="498.5,-571.5 498.5,-620.5 543.5,-620.5 543.5,-571.5 498.5,-571.5"/>
</a>
</g>
</g>
<!-- Node7&#45;&gt;Node2 -->
<g id="edge7_Node000002_Node000007" class="edge">
<title>Node7&#45;&gt;Node2</title>
<g id="a_edge7_Node000002_Node000007"><a xlink:title=" ">
<path fill="none" stroke="#63b8ff" d="M518.31,-571.27C515.63,-546.34 511.67,-505.97 510,-471 509.4,-458.4 508.99,-445.19 508.72,-432.06"/>
<polygon fill="none" stroke="#63b8ff" points="508.72,-432.04 504.62,-426.11 508.52,-420.04 512.62,-425.97 508.72,-432.04"/>
</a>
</g>
<text text-anchor="middle" x="543.5" y="-452" font-family="Helvetica,sans-Serif" font-size="10.00" fill="grey"> #_vanish_num</text>
</g>
<!-- Node8 -->
<g id="Node000008" class="node">
<title>Node8</title>
<g id="a_Node000008"><a xlink:href="../../d3/da8/classrm_1_1StateInfo.html" target="_top" xlink:title="状态类型系统">
<polygon fill="white" stroke="transparent" points="636,-703 562,-703 562,-489 636,-489 636,-703"/>
<text text-anchor="start" x="570" y="-691" font-family="Helvetica,sans-Serif" font-size="10.00">rm::StateInfo</text>
<text text-anchor="start" x="597" y="-676" font-family="Helvetica,sans-Serif" font-size="10.00"> </text>
<text text-anchor="start" x="566" y="-661" font-family="Helvetica,sans-Serif" font-size="10.00">+</text>
<text text-anchor="start" x="577" y="-661" font-family="Helvetica,sans-Serif" font-size="10.00">StateInfo()</text>
<text text-anchor="start" x="566" y="-646" font-family="Helvetica,sans-Serif" font-size="10.00">+</text>
<text text-anchor="start" x="577" y="-646" font-family="Helvetica,sans-Serif" font-size="10.00">add()</text>
<text text-anchor="start" x="566" y="-631" font-family="Helvetica,sans-Serif" font-size="10.00">+</text>
<text text-anchor="start" x="577" y="-631" font-family="Helvetica,sans-Serif" font-size="10.00">add()</text>
<text text-anchor="start" x="566" y="-616" font-family="Helvetica,sans-Serif" font-size="10.00">+</text>
<text text-anchor="start" x="577" y="-616" font-family="Helvetica,sans-Serif" font-size="10.00">remove()</text>
<text text-anchor="start" x="566" y="-601" font-family="Helvetica,sans-Serif" font-size="10.00">+</text>
<text text-anchor="start" x="577" y="-601" font-family="Helvetica,sans-Serif" font-size="10.00">contains()</text>
<text text-anchor="start" x="566" y="-586" font-family="Helvetica,sans-Serif" font-size="10.00">+</text>
<text text-anchor="start" x="577" y="-586" font-family="Helvetica,sans-Serif" font-size="10.00">clear()</text>
<text text-anchor="start" x="566" y="-571" font-family="Helvetica,sans-Serif" font-size="10.00">+</text>
<text text-anchor="start" x="577" y="-571" font-family="Helvetica,sans-Serif" font-size="10.00">empty()</text>
<text text-anchor="start" x="566" y="-556" font-family="Helvetica,sans-Serif" font-size="10.00">+</text>
<text text-anchor="start" x="577" y="-556" font-family="Helvetica,sans-Serif" font-size="10.00">at()</text>
<text text-anchor="start" x="566" y="-541" font-family="Helvetica,sans-Serif" font-size="10.00">+</text>
<text text-anchor="start" x="577" y="-541" font-family="Helvetica,sans-Serif" font-size="10.00">at_numeric()</text>
<text text-anchor="start" x="566" y="-526" font-family="Helvetica,sans-Serif" font-size="10.00">+</text>
<text text-anchor="start" x="577" y="-526" font-family="Helvetica,sans-Serif" font-size="10.00">at_string()</text>
<text text-anchor="start" x="566" y="-511" font-family="Helvetica,sans-Serif" font-size="10.00">+</text>
<text text-anchor="start" x="577" y="-511" font-family="Helvetica,sans-Serif" font-size="10.00">at()</text>
<text text-anchor="start" x="566" y="-496" font-family="Helvetica,sans-Serif" font-size="10.00">+</text>
<text text-anchor="start" x="577" y="-496" font-family="Helvetica,sans-Serif" font-size="10.00">operator[]()</text>
<polygon fill="#666666" stroke="#666666" points="562,-686 562,-686 636,-686 636,-686 562,-686"/>
<polygon fill="#666666" stroke="#666666" points="562,-671 562,-671 636,-671 636,-671 562,-671"/>
<polygon fill="none" stroke="#666666" points="562,-489 562,-703 636,-703 636,-489 562,-489"/>
</a>
</g>
</g>
<!-- Node8&#45;&gt;Node2 -->
<g id="edge8_Node000002_Node000008" class="edge">
<title>Node8&#45;&gt;Node2</title>
<g id="a_edge8_Node000002_Node000008"><a xlink:title=" ">
<path fill="none" stroke="#63b8ff" d="M589.88,-488.94C586.76,-471.64 582.59,-454.12 577,-438 573.95,-429.21 570.21,-420.34 566.07,-411.63"/>
<polygon fill="none" stroke="#63b8ff" points="565.98,-411.45 559.72,-407.86 560.63,-400.7 566.88,-404.29 565.98,-411.45"/>
</a>
</g>
<text text-anchor="middle" x="603" y="-452" font-family="Helvetica,sans-Serif" font-size="10.00" fill="grey"> #_state</text>
</g>
<!-- Node9 -->
<g id="Node000009" class="node">
<title>Node9</title>
<g id="a_Node000009"><a xlink:title=" ">
<polygon fill="white" stroke="transparent" points="683.5,-620.5 654.5,-620.5 654.5,-571.5 683.5,-571.5 683.5,-620.5"/>
<text text-anchor="start" x="660" y="-608" font-family="Helvetica,sans-Serif" font-size="10.00">float</text>
<text text-anchor="start" x="667.5" y="-593" font-family="Helvetica,sans-Serif" font-size="10.00"> </text>
<text text-anchor="start" x="667.5" y="-578" font-family="Helvetica,sans-Serif" font-size="10.00"> </text>
<polygon fill="#666666" stroke="#666666" points="655,-603 655,-603 684,-603 684,-603 655,-603"/>
<polygon fill="#666666" stroke="#666666" points="655,-588 655,-588 684,-588 684,-588 655,-588"/>
<polygon fill="none" stroke="#666666" points="654.5,-571.5 654.5,-620.5 683.5,-620.5 683.5,-571.5 654.5,-571.5"/>
</a>
</g>
</g>
<!-- Node9&#45;&gt;Node2 -->
<g id="edge9_Node000002_Node000009" class="edge">
<title>Node9&#45;&gt;Node2</title>
<g id="a_edge9_Node000002_Node000009"><a xlink:title=" ">
<path fill="none" stroke="#63b8ff" d="M666.84,-571.36C662.94,-538.94 652.39,-479.95 625,-438 609.71,-414.58 589.13,-392.02 569.55,-373.09"/>
<polygon fill="none" stroke="#63b8ff" points="569.35,-372.91 562.25,-371.69 560.64,-364.66 567.75,-365.88 569.35,-372.91"/>
</a>
</g>
<text text-anchor="middle" x="659.5" y="-463" font-family="Helvetica,sans-Serif" font-size="10.00" fill="grey"> #_angle</text>
<text text-anchor="middle" x="659.5" y="-452" font-family="Helvetica,sans-Serif" font-size="10.00" fill="grey">#_height</text>
<text text-anchor="middle" x="659.5" y="-441" font-family="Helvetica,sans-Serif" font-size="10.00" fill="grey">#_width</text>
</g>
<!-- Node10 -->
<g id="Node000010" class="node">
<title>Node10</title>
<g id="a_Node000010"><a xlink:title=" ">
<polygon fill="white" stroke="transparent" points="397.5,-799 356.5,-799 356.5,-750 397.5,-750 397.5,-799"/>
<text text-anchor="start" x="362" y="-786.5" font-family="Helvetica,sans-Serif" font-size="10.00">Point2f</text>
<text text-anchor="start" x="375.5" y="-771.5" font-family="Helvetica,sans-Serif" font-size="10.00"> </text>
<text text-anchor="start" x="375.5" y="-756.5" font-family="Helvetica,sans-Serif" font-size="10.00"> </text>
<polygon fill="#666666" stroke="#666666" points="357,-781.5 357,-781.5 398,-781.5 398,-781.5 357,-781.5"/>
<polygon fill="#666666" stroke="#666666" points="357,-766.5 357,-766.5 398,-766.5 398,-766.5 357,-766.5"/>
<polygon fill="none" stroke="#666666" points="356.5,-750 356.5,-799 397.5,-799 397.5,-750 356.5,-750"/>
</a>
</g>
</g>
<!-- Node10&#45;&gt;Node2 -->
<g id="edge10_Node000002_Node000010" class="edge">
<title>Node10&#45;&gt;Node2</title>
<g id="a_edge10_Node000002_Node000010"><a xlink:title=" ">
<path fill="none" stroke="#63b8ff" d="M388.77,-749.81C391.19,-744.1 393.46,-737.93 395,-732 422.25,-626.95 387.37,-592.81 419,-489 426.84,-463.26 438.82,-436.93 451.49,-412.99"/>
<polygon fill="none" stroke="#63b8ff" points="451.64,-412.72 450.98,-405.54 457.36,-402.17 458.02,-409.35 451.64,-412.72"/>
</a>
</g>
<text text-anchor="middle" x="454.5" y="-604.5" font-family="Helvetica,sans-Serif" font-size="10.00" fill="grey"> #_center</text>
<text text-anchor="middle" x="454.5" y="-593.5" font-family="Helvetica,sans-Serif" font-size="10.00" fill="grey">#_relative_angle</text>
<text text-anchor="middle" x="454.5" y="-582.5" font-family="Helvetica,sans-Serif" font-size="10.00" fill="grey">#_speed</text>
</g>
<!-- Node11 -->
<g id="Node000011" class="node">
<title>Node11</title>
<g id="a_Node000011"><a xlink:title=" ">
<polygon fill="white" stroke="transparent" points="373,-620.5 251,-620.5 251,-571.5 373,-571.5 373,-620.5"/>
<text text-anchor="start" x="256" y="-608" font-family="Helvetica,sans-Serif" font-size="10.00">std::vector&lt; cv::Point2f &gt;</text>
<text text-anchor="start" x="310" y="-593" font-family="Helvetica,sans-Serif" font-size="10.00"> </text>
<text text-anchor="start" x="310" y="-578" font-family="Helvetica,sans-Serif" font-size="10.00"> </text>
<polygon fill="#666666" stroke="#666666" points="251,-603 251,-603 373,-603 373,-603 251,-603"/>
<polygon fill="#666666" stroke="#666666" points="251,-588 251,-588 373,-588 373,-588 251,-588"/>
<polygon fill="none" stroke="#666666" points="251,-571.5 251,-620.5 373,-620.5 373,-571.5 251,-571.5"/>
</a>
</g>
</g>
<!-- Node10&#45;&gt;Node11 -->
<g id="edge12_Node000011_Node000010" class="edge">
<title>Node10&#45;&gt;Node11</title>
<g id="a_edge12_Node000011_Node000010"><a xlink:title=" ">
<path fill="none" stroke="#63b8ff" d="M356.93,-749.95C352.86,-744.34 348.94,-738.17 346,-732 330.87,-700.2 321.95,-660.88 317.07,-632.89"/>
<polygon fill="none" stroke="#63b8ff" points="317.05,-632.73 312.13,-627.46 315.11,-620.89 320.02,-626.17 317.05,-632.73"/>
</a>
</g>
<text text-anchor="middle" x="370.5" y="-724" font-family="Helvetica,sans-Serif" font-size="10.00" fill="grey"> +elements</text>
</g>
<!-- Node11&#45;&gt;Node2 -->
<g id="edge11_Node000002_Node000011" class="edge">
<title>Node11&#45;&gt;Node2</title>
<g id="a_edge11_Node000002_Node000011"><a xlink:title=" ">
<path fill="none" stroke="#63b8ff" d="M312.54,-571.44C314.34,-538.87 321.49,-479.4 349,-438 373.19,-401.59 412.86,-372.59 446.64,-352.64"/>
<polygon fill="none" stroke="#63b8ff" points="446.97,-352.45 450.18,-345.99 457.38,-346.48 454.16,-352.93 446.97,-352.45"/>
</a>
</g>
<text text-anchor="middle" x="372" y="-452" font-family="Helvetica,sans-Serif" font-size="10.00" fill="grey"> #_corners</text>
</g>
<!-- Node12&#45;&gt;Node11 -->
<g id="edge13_Node000011_Node000012" class="edge">
<title>Node12&#45;&gt;Node11</title>
<g id="a_edge13_Node000011_Node000012"><a xlink:title=" ">
<path fill="none" stroke="orange" d="M252.34,-739.56C252.25,-733.34 252.68,-726.94 254,-721 262.25,-683.88 282.85,-644.72 297.13,-620.57"/>
<polygon fill="orange" stroke="orange" points="248.85,-739.97 252.9,-749.76 255.84,-739.58 248.85,-739.97"/>
</a>
</g>
<text text-anchor="middle" x="288.5" y="-724" font-family="Helvetica,sans-Serif" font-size="10.00" fill="grey"> &lt; cv::Point2f &gt;</text>
</g>
<!-- Node13 -->
<g id="Node000013" class="node">
<title>Node13</title>
<g id="a_Node000013"><a xlink:href="../../da/dbf/classrm_1_1CameraExtrinsics.html" target="_top" xlink:title="相机外参">
<polygon fill="white" stroke="transparent" points="808,-703 702,-703 702,-489 808,-489 808,-703"/>
<text text-anchor="start" x="707" y="-691" font-family="Helvetica,sans-Serif" font-size="10.00">rm::CameraExtrinsics</text>
<text text-anchor="start" x="753" y="-676" font-family="Helvetica,sans-Serif" font-size="10.00"> </text>
<text text-anchor="start" x="717" y="-661" font-family="Helvetica,sans-Serif" font-size="10.00">+</text>
<text text-anchor="start" x="739" y="-661" font-family="Helvetica,sans-Serif" font-size="10.00">tvec()</text>
<text text-anchor="start" x="717" y="-646" font-family="Helvetica,sans-Serif" font-size="10.00">+</text>
<text text-anchor="start" x="739" y="-646" font-family="Helvetica,sans-Serif" font-size="10.00">rvec()</text>
<text text-anchor="start" x="717" y="-631" font-family="Helvetica,sans-Serif" font-size="10.00">+</text>
<text text-anchor="start" x="739" y="-631" font-family="Helvetica,sans-Serif" font-size="10.00">R()</text>
<text text-anchor="start" x="717" y="-616" font-family="Helvetica,sans-Serif" font-size="10.00">+</text>
<text text-anchor="start" x="739" y="-616" font-family="Helvetica,sans-Serif" font-size="10.00">T()</text>
<text text-anchor="start" x="717" y="-601" font-family="Helvetica,sans-Serif" font-size="10.00">+</text>
<text text-anchor="start" x="739" y="-601" font-family="Helvetica,sans-Serif" font-size="10.00">yaw()</text>
<text text-anchor="start" x="717" y="-586" font-family="Helvetica,sans-Serif" font-size="10.00">+</text>
<text text-anchor="start" x="739" y="-586" font-family="Helvetica,sans-Serif" font-size="10.00">pitch()</text>
<text text-anchor="start" x="717" y="-571" font-family="Helvetica,sans-Serif" font-size="10.00">+</text>
<text text-anchor="start" x="739" y="-571" font-family="Helvetica,sans-Serif" font-size="10.00">roll()</text>
<text text-anchor="start" x="717" y="-556" font-family="Helvetica,sans-Serif" font-size="10.00">+</text>
<text text-anchor="start" x="739" y="-556" font-family="Helvetica,sans-Serif" font-size="10.00">distance()</text>
<text text-anchor="start" x="717" y="-541" font-family="Helvetica,sans-Serif" font-size="10.00">+</text>
<text text-anchor="start" x="739" y="-541" font-family="Helvetica,sans-Serif" font-size="10.00">tvec()</text>
<text text-anchor="start" x="717" y="-526" font-family="Helvetica,sans-Serif" font-size="10.00">+</text>
<text text-anchor="start" x="739" y="-526" font-family="Helvetica,sans-Serif" font-size="10.00">rvec()</text>
<text text-anchor="start" x="717" y="-511" font-family="Helvetica,sans-Serif" font-size="10.00">+</text>
<text text-anchor="start" x="739" y="-511" font-family="Helvetica,sans-Serif" font-size="10.00">R()</text>
<text text-anchor="start" x="717" y="-496" font-family="Helvetica,sans-Serif" font-size="10.00">+</text>
<text text-anchor="start" x="739" y="-496" font-family="Helvetica,sans-Serif" font-size="10.00">distance()</text>
<polygon fill="#666666" stroke="#666666" points="702,-686 702,-686 808,-686 808,-686 702,-686"/>
<polygon fill="#666666" stroke="#666666" points="702,-671 702,-671 808,-671 808,-671 702,-671"/>
<polygon fill="none" stroke="#666666" points="702,-489 702,-703 808,-703 808,-489 702,-489"/>
</a>
</g>
</g>
<!-- Node13&#45;&gt;Node2 -->
<g id="edge15_Node000002_Node000013" class="edge">
<title>Node13&#45;&gt;Node2</title>
<g id="a_edge15_Node000002_Node000013"><a xlink:title=" ">
<path fill="none" stroke="#63b8ff" d="M715.34,-488.86C705.97,-470.83 694.88,-453.09 682,-438 651.53,-402.31 607.58,-372.9 571.6,-352.56"/>
<polygon fill="none" stroke="#63b8ff" points="571.21,-352.35 564.03,-352.94 560.71,-346.54 567.9,-345.94 571.21,-352.35"/>
</a>
</g>
<text text-anchor="middle" x="728.5" y="-452" font-family="Helvetica,sans-Serif" font-size="10.00" fill="grey"> #_extrinsic</text>
</g>
</g>
</svg>
