<?xml version="1.0" encoding="UTF-8" standalone="no"?>
<!DOCTYPE svg PUBLIC "-//W3C//DTD SVG 1.1//EN"
 "http://www.w3.org/Graphics/SVG/1.1/DTD/svg11.dtd">
<!-- Generated by graphviz version 2.43.0 (0)
 -->
<!-- Title: rm::FieldMetaData Pages: 1 -->
<svg width="245pt" height="280pt"
 viewBox="0.00 0.00 245.00 280.00" xmlns="http://www.w3.org/2000/svg" xmlns:xlink="http://www.w3.org/1999/xlink">

<svg id="main" version="1.1" xmlns="http://www.w3.org/2000/svg" xmlns:xlink="http://www.w3.org/1999/xlink" xml:space="preserve" onload="init(evt)">
<style type="text/css"><![CDATA[
.node, .edge {opacity: 0.7;}
.node.selected, .edge.selected {opacity: 1;}
.edge:hover path { stroke: red; }
.edge:hover polygon { stroke: red; fill: red; }
]]></style>
<script type="application/ecmascript" xlink:href="../../svg.min.js"/>
<svg id="graph" class="graph">
<g id="graph0" class="graph" transform="scale(1 1) rotate(0) translate(4 276)">
<title>rm::FieldMetaData</title>
<!-- Node1 -->
<g id="Node000001" class="node">
<title>Node1</title>
<g id="a_Node000001"><a xlink:title="数据集字段元数据">
<polygon fill="#999999" stroke="transparent" points="178.5,-79 77.5,-79 77.5,0 178.5,0 178.5,-79"/>
<text text-anchor="start" x="83" y="-66.5" font-family="Helvetica,sans-Serif" font-size="10.00">rm::FieldMetaData</text>
<text text-anchor="start" x="126.5" y="-51.5" font-family="Helvetica,sans-Serif" font-size="10.00"> </text>
<text text-anchor="start" x="82" y="-36.5" font-family="Helvetica,sans-Serif" font-size="10.00">+</text>
<text text-anchor="start" x="95" y="-36.5" font-family="Helvetica,sans-Serif" font-size="10.00">FieldMetaData()</text>
<text text-anchor="start" x="82" y="-21.5" font-family="Helvetica,sans-Serif" font-size="10.00">+</text>
<text text-anchor="start" x="95" y="-21.5" font-family="Helvetica,sans-Serif" font-size="10.00">FieldMetaData()</text>
<text text-anchor="start" x="82" y="-6.5" font-family="Helvetica,sans-Serif" font-size="10.00">+</text>
<text text-anchor="start" x="95" y="-6.5" font-family="Helvetica,sans-Serif" font-size="10.00">FieldMetaData()</text>
<polygon fill="#666666" stroke="#666666" points="78,-61.5 78,-61.5 179,-61.5 179,-61.5 78,-61.5"/>
<polygon fill="#666666" stroke="#666666" points="78,-46.5 78,-46.5 179,-46.5 179,-46.5 78,-46.5"/>
<polygon fill="none" stroke="#666666" points="77.5,0 77.5,-79 178.5,-79 178.5,0 77.5,0"/>
</a>
</g>
</g>
<!-- Node2 -->
<g id="Node000002" class="node">
<title>Node2</title>
<g id="a_Node000002"><a xlink:title=" ">
<polygon fill="white" stroke="transparent" points="78.5,-175 19.5,-175 19.5,-126 78.5,-126 78.5,-175"/>
<text text-anchor="start" x="25" y="-162.5" font-family="Helvetica,sans-Serif" font-size="10.00">std::string</text>
<text text-anchor="start" x="47.5" y="-147.5" font-family="Helvetica,sans-Serif" font-size="10.00"> </text>
<text text-anchor="start" x="47.5" y="-132.5" font-family="Helvetica,sans-Serif" font-size="10.00"> </text>
<polygon fill="#666666" stroke="#666666" points="20,-157.5 20,-157.5 79,-157.5 79,-157.5 20,-157.5"/>
<polygon fill="#666666" stroke="#666666" points="20,-142.5 20,-142.5 79,-142.5 79,-142.5 20,-142.5"/>
<polygon fill="none" stroke="#666666" points="19.5,-126 19.5,-175 78.5,-175 78.5,-126 19.5,-126"/>
</a>
</g>
</g>
<!-- Node2&#45;&gt;Node1 -->
<g id="edge1_Node000001_Node000002" class="edge">
<title>Node2&#45;&gt;Node1</title>
<g id="a_edge1_Node000001_Node000002"><a xlink:title=" ">
<path fill="none" stroke="#63b8ff" d="M64.14,-125.99C70.17,-116.84 77.27,-106.33 84,-97 85.91,-94.35 87.89,-91.65 89.91,-88.93"/>
<polygon fill="none" stroke="#63b8ff" points="90.09,-88.7 90.51,-81.5 97.32,-79.12 96.9,-86.32 90.09,-88.7"/>
</a>
</g>
<text text-anchor="middle" x="104" y="-100" font-family="Helvetica,sans-Serif" font-size="10.00" fill="grey"> +name</text>
</g>
<!-- Node3 -->
<g id="Node000003" class="node">
<title>Node3</title>
<g id="a_Node000003"><a xlink:title=" ">
<polygon fill="white" stroke="transparent" points="98,-272 0,-272 0,-212 98,-212 98,-272"/>
<text text-anchor="start" x="5" y="-260" font-family="Helvetica,sans-Serif" font-size="10.00">std::basic_string&lt;</text>
<text text-anchor="start" x="30.5" y="-249" font-family="Helvetica,sans-Serif" font-size="10.00"> Char &gt;</text>
<text text-anchor="start" x="47" y="-234" font-family="Helvetica,sans-Serif" font-size="10.00"> </text>
<text text-anchor="start" x="47" y="-219" font-family="Helvetica,sans-Serif" font-size="10.00"> </text>
<polygon fill="#666666" stroke="#666666" points="0,-244 0,-244 98,-244 98,-244 0,-244"/>
<polygon fill="#666666" stroke="#666666" points="0,-229 0,-229 98,-229 98,-229 0,-229"/>
<polygon fill="none" stroke="#666666" points="0,-212 0,-272 98,-272 98,-212 0,-212"/>
</a>
</g>
</g>
<!-- Node3&#45;&gt;Node2 -->
<g id="edge2_Node000002_Node000003" class="edge">
<title>Node3&#45;&gt;Node2</title>
<g id="a_edge2_Node000002_Node000003"><a xlink:title=" ">
<path fill="none" stroke="#63b8ff" d="M49,-201.41C49,-192.47 49,-183.25 49,-175.21"/>
<polygon fill="none" stroke="#63b8ff" points="45.5,-201.69 49,-211.69 52.5,-201.69 45.5,-201.69"/>
</a>
</g>
</g>
<!-- Node4 -->
<g id="Node000004" class="node">
<title>Node4</title>
<g id="a_Node000004"><a xlink:title=" ">
<polygon fill="white" stroke="transparent" points="159,-175 97,-175 97,-126 159,-126 159,-175"/>
<text text-anchor="start" x="102" y="-162.5" font-family="Helvetica,sans-Serif" font-size="10.00">UA_UInt32</text>
<text text-anchor="start" x="126" y="-147.5" font-family="Helvetica,sans-Serif" font-size="10.00"> </text>
<text text-anchor="start" x="126" y="-132.5" font-family="Helvetica,sans-Serif" font-size="10.00"> </text>
<polygon fill="#666666" stroke="#666666" points="97,-157.5 97,-157.5 159,-157.5 159,-157.5 97,-157.5"/>
<polygon fill="#666666" stroke="#666666" points="97,-142.5 97,-142.5 159,-142.5 159,-142.5 97,-142.5"/>
<polygon fill="none" stroke="#666666" points="97,-126 97,-175 159,-175 159,-126 97,-126"/>
</a>
</g>
</g>
<!-- Node4&#45;&gt;Node1 -->
<g id="edge3_Node000001_Node000004" class="edge">
<title>Node4&#45;&gt;Node1</title>
<g id="a_edge3_Node000001_Node000004"><a xlink:title=" ">
<path fill="none" stroke="#63b8ff" d="M128,-125.85C128,-115.72 128,-103.47 128,-91.45"/>
<polygon fill="none" stroke="#63b8ff" points="128,-91.1 124,-85.1 128,-79.1 132,-85.1 128,-91.1"/>
</a>
</g>
<text text-anchor="middle" x="145" y="-100" font-family="Helvetica,sans-Serif" font-size="10.00" fill="grey"> +type</text>
</g>
<!-- Node5 -->
<g id="Node000005" class="node">
<title>Node5</title>
<g id="a_Node000005"><a xlink:title=" ">
<polygon fill="white" stroke="transparent" points="200.5,-175 177.5,-175 177.5,-126 200.5,-126 200.5,-175"/>
<text text-anchor="start" x="183" y="-162.5" font-family="Helvetica,sans-Serif" font-size="10.00">int</text>
<text text-anchor="start" x="187.5" y="-147.5" font-family="Helvetica,sans-Serif" font-size="10.00"> </text>
<text text-anchor="start" x="187.5" y="-132.5" font-family="Helvetica,sans-Serif" font-size="10.00"> </text>
<polygon fill="#666666" stroke="#666666" points="178,-157.5 178,-157.5 201,-157.5 201,-157.5 178,-157.5"/>
<polygon fill="#666666" stroke="#666666" points="178,-142.5 178,-142.5 201,-142.5 201,-142.5 178,-142.5"/>
<polygon fill="none" stroke="#666666" points="177.5,-126 177.5,-175 200.5,-175 200.5,-126 177.5,-126"/>
</a>
</g>
</g>
<!-- Node5&#45;&gt;Node1 -->
<g id="edge4_Node000001_Node000005" class="edge">
<title>Node5&#45;&gt;Node1</title>
<g id="a_edge4_Node000001_Node000005"><a xlink:title=" ">
<path fill="none" stroke="#63b8ff" d="M179.69,-125.81C175.81,-116.63 171.03,-106.16 166,-97 164.63,-94.51 163.18,-91.99 161.69,-89.46"/>
<polygon fill="none" stroke="#63b8ff" points="161.61,-89.35 155.06,-86.35 155.3,-79.14 161.86,-82.14 161.61,-89.35"/>
</a>
</g>
<text text-anchor="middle" x="204" y="-100" font-family="Helvetica,sans-Serif" font-size="10.00" fill="grey"> +value_rank</text>
</g>
</g>
</svg>
</svg>

<style type='text/css'>
<![CDATA[
[data-mouse-over-selected='false'] { opacity: 0.7; }
[data-mouse-over-selected='true']  { opacity: 1.0; }
]]>
</style>
<script type="application/ecmascript"><![CDATA[
document.addEventListener('DOMContentLoaded', (event) => {
  highlightEdges();
  highlightAdjacentNodes();
});
]]></script>
</svg>
