<?xml version="1.0" encoding="UTF-8" standalone="no"?>
<!DOCTYPE svg PUBLIC "-//W3C//DTD SVG 1.1//EN"
 "http://www.w3.org/Graphics/SVG/1.1/DTD/svg11.dtd">
<!-- Generated by graphviz version 2.43.0 (0)
 -->
<!-- Title: rmvl/camera/camutils.hpp Pages: 1 -->
<svg width="2236pt" height="401pt"
 viewBox="0.00 0.00 2236.00 401.00" xmlns="http://www.w3.org/2000/svg" xmlns:xlink="http://www.w3.org/1999/xlink">
<g id="graph0" class="graph" transform="scale(1 1) rotate(0) translate(4 397)">
<title>rmvl/camera/camutils.hpp</title>
<!-- Node1 -->
<g id="Node000001" class="node">
<title>Node1</title>
<g id="a_Node000001"><a xlink:title="相机基本配置信息">
<polygon fill="#999999" stroke="#666666" points="401.5,-393 272.5,-393 272.5,-374 401.5,-374 401.5,-393"/>
<text text-anchor="middle" x="337" y="-381" font-family="Helvetica,sans-Serif" font-size="10.00">rmvl/camera/camutils.hpp</text>
</a>
</g>
</g>
<!-- Node2 -->
<g id="Node000002" class="node">
<title>Node2</title>
<g id="a_Node000002"><a xlink:href="../../d1/da6/camera_2galaxy__camera_8h.html" target="_top" xlink:title="大恒图像 Galaxy USB3.0/GigE 系列工业相机库">
<polygon fill="white" stroke="#666666" points="102,-338 0,-338 0,-308 102,-308 102,-338"/>
<text text-anchor="start" x="8" y="-326" font-family="Helvetica,sans-Serif" font-size="10.00">rmvl/camera/galaxy</text>
<text text-anchor="middle" x="51" y="-315" font-family="Helvetica,sans-Serif" font-size="10.00">_camera.h</text>
</a>
</g>
</g>
<!-- Node1&#45;&gt;Node2 -->
<g id="edge1_Node000001_Node000002" class="edge">
<title>Node1&#45;&gt;Node2</title>
<g id="a_edge1_Node000001_Node000002"><a xlink:title=" ">
<path fill="none" stroke="#63b8ff" d="M281,-372.03C235.19,-363.34 168.79,-350.43 111,-338 108.07,-337.37 105.07,-336.71 102.04,-336.04"/>
<polygon fill="#63b8ff" stroke="#63b8ff" points="280.55,-375.51 291.02,-373.93 281.85,-368.63 280.55,-375.51"/>
</a>
</g>
</g>
<!-- Node3 -->
<g id="Node000003" class="node">
<title>Node3</title>
<g id="a_Node000003"><a xlink:href="../../da/d35/camera_2hik__camera_8h.html" target="_top" xlink:title="HikRobot 工业相机库">
<polygon fill="white" stroke="#666666" points="252,-332.5 120,-332.5 120,-313.5 252,-313.5 252,-332.5"/>
<text text-anchor="middle" x="186" y="-320.5" font-family="Helvetica,sans-Serif" font-size="10.00">rmvl/camera/hik_camera.h</text>
</a>
</g>
</g>
<!-- Node1&#45;&gt;Node3 -->
<g id="edge2_Node000001_Node000003" class="edge">
<title>Node1&#45;&gt;Node3</title>
<g id="a_edge2_Node000001_Node000003"><a xlink:title=" ">
<path fill="none" stroke="#63b8ff" d="M305.71,-370.38C276.52,-359.07 233.72,-342.49 207.98,-332.52"/>
<polygon fill="#63b8ff" stroke="#63b8ff" points="304.45,-373.64 315.04,-373.99 306.98,-367.12 304.45,-373.64"/>
</a>
</g>
</g>
<!-- Node4 -->
<g id="Node000004" class="node">
<title>Node4</title>
<g id="a_Node000004"><a xlink:href="../../d1/d67/camera_2mv__camera_8h.html" target="_top" xlink:title="迈德威视相机库">
<polygon fill="white" stroke="#666666" points="403.5,-332.5 270.5,-332.5 270.5,-313.5 403.5,-313.5 403.5,-332.5"/>
<text text-anchor="middle" x="337" y="-320.5" font-family="Helvetica,sans-Serif" font-size="10.00">rmvl/camera/mv_camera.h</text>
</a>
</g>
</g>
<!-- Node1&#45;&gt;Node4 -->
<g id="edge3_Node000001_Node000004" class="edge">
<title>Node1&#45;&gt;Node4</title>
<g id="a_edge3_Node000001_Node000004"><a xlink:title=" ">
<path fill="none" stroke="#63b8ff" d="M337,-363.66C337,-353.24 337,-340.8 337,-332.67"/>
<polygon fill="#63b8ff" stroke="#63b8ff" points="333.5,-363.87 337,-373.87 340.5,-363.87 333.5,-363.87"/>
</a>
</g>
</g>
<!-- Node5 -->
<g id="Node000005" class="node">
<title>Node5</title>
<g id="a_Node000005"><a xlink:href="../../dd/d54/camera_2opt__camera_8h.html" target="_top" xlink:title="奥普特机器视觉相机库">
<polygon fill="white" stroke="#666666" points="554.5,-332.5 421.5,-332.5 421.5,-313.5 554.5,-313.5 554.5,-332.5"/>
<text text-anchor="middle" x="488" y="-320.5" font-family="Helvetica,sans-Serif" font-size="10.00">rmvl/camera/opt_camera.h</text>
</a>
</g>
</g>
<!-- Node1&#45;&gt;Node5 -->
<g id="edge4_Node000001_Node000005" class="edge">
<title>Node1&#45;&gt;Node5</title>
<g id="a_edge4_Node000001_Node000005"><a xlink:title=" ">
<path fill="none" stroke="#63b8ff" d="M368.29,-370.38C397.48,-359.07 440.28,-342.49 466.02,-332.52"/>
<polygon fill="#63b8ff" stroke="#63b8ff" points="367.02,-367.12 358.96,-373.99 369.55,-373.64 367.02,-367.12"/>
</a>
</g>
</g>
<!-- Node6 -->
<g id="Node000006" class="node">
<title>Node6</title>
<g id="a_Node000006"><a xlink:href="../../d8/d36/combo_8h.html" target="_top" xlink:title="the combination of the features header file">
<polygon fill="white" stroke="#666666" points="681,-332.5 573,-332.5 573,-313.5 681,-313.5 681,-332.5"/>
<text text-anchor="middle" x="627" y="-320.5" font-family="Helvetica,sans-Serif" font-size="10.00">rmvl/combo/combo.h</text>
</a>
</g>
</g>
<!-- Node1&#45;&gt;Node6 -->
<g id="edge5_Node000001_Node000006" class="edge">
<title>Node1&#45;&gt;Node6</title>
<g id="a_edge5_Node000001_Node000006"><a xlink:title=" ">
<path fill="none" stroke="#63b8ff" d="M391.67,-372.07C437.48,-363.25 504.58,-350.14 563,-338 571.24,-336.29 580.06,-334.4 588.45,-332.57"/>
<polygon fill="#63b8ff" stroke="#63b8ff" points="390.81,-368.67 381.65,-373.99 392.13,-375.54 390.81,-368.67"/>
</a>
</g>
</g>
<!-- Node7 -->
<g id="Node000007" class="node">
<title>Node7</title>
<g id="a_Node000007"><a xlink:href="../../d1/dad/rmvl_2combo_8hpp.html" target="_top" xlink:title=" ">
<polygon fill="white" stroke="#666666" points="498,-272 412,-272 412,-253 498,-253 498,-272"/>
<text text-anchor="middle" x="455" y="-260" font-family="Helvetica,sans-Serif" font-size="10.00">rmvl/combo.hpp</text>
</a>
</g>
</g>
<!-- Node6&#45;&gt;Node7 -->
<g id="edge6_Node000006_Node000007" class="edge">
<title>Node6&#45;&gt;Node7</title>
<g id="a_edge6_Node000006_Node000007"><a xlink:title=" ">
<path fill="none" stroke="#63b8ff" d="M592.22,-310.17C558.96,-298.86 509.61,-282.07 480.04,-272.02"/>
<polygon fill="#63b8ff" stroke="#63b8ff" points="591.4,-313.59 601.99,-313.49 593.65,-306.96 591.4,-313.59"/>
</a>
</g>
</g>
<!-- Node8 -->
<g id="Node000008" class="node">
<title>Node8</title>
<g id="a_Node000008"><a xlink:href="../../dd/d92/combo_2armor_8h.html" target="_top" xlink:title="装甲板类头文件">
<polygon fill="white" stroke="#666666" points="619.5,-272 516.5,-272 516.5,-253 619.5,-253 619.5,-272"/>
<text text-anchor="middle" x="568" y="-260" font-family="Helvetica,sans-Serif" font-size="10.00">rmvl/combo/armor.h</text>
</a>
</g>
</g>
<!-- Node6&#45;&gt;Node8 -->
<g id="edge7_Node000006_Node000008" class="edge">
<title>Node6&#45;&gt;Node8</title>
<g id="a_edge7_Node000006_Node000008"><a xlink:title=" ">
<path fill="none" stroke="#63b8ff" d="M610.95,-306.09C599.94,-295.17 585.73,-281.08 576.74,-272.17"/>
<polygon fill="#63b8ff" stroke="#63b8ff" points="608.73,-308.81 618.29,-313.37 613.66,-303.84 608.73,-308.81"/>
</a>
</g>
</g>
<!-- Node14 -->
<g id="Node000014" class="node">
<title>Node14</title>
<g id="a_Node000014"><a xlink:href="../../de/de6/combo_2rune_8h.html" target="_top" xlink:title="神符类头文件">
<polygon fill="white" stroke="#666666" points="736,-272 638,-272 638,-253 736,-253 736,-272"/>
<text text-anchor="middle" x="687" y="-260" font-family="Helvetica,sans-Serif" font-size="10.00">rmvl/combo/rune.h</text>
</a>
</g>
</g>
<!-- Node6&#45;&gt;Node14 -->
<g id="edge13_Node000006_Node000014" class="edge">
<title>Node6&#45;&gt;Node14</title>
<g id="a_edge13_Node000006_Node000014"><a xlink:title=" ">
<path fill="none" stroke="#63b8ff" d="M643.32,-306.09C654.52,-295.17 668.97,-281.08 678.11,-272.17"/>
<polygon fill="#63b8ff" stroke="#63b8ff" points="640.57,-303.88 635.85,-313.37 645.46,-308.89 640.57,-303.88"/>
</a>
</g>
</g>
<!-- Node17 -->
<g id="Node000017" class="node">
<title>Node17</title>
<g id="a_Node000017"><a xlink:href="../../dc/ded/tracker_8h.html" target="_top" xlink:title="追踪器抽象头文件">
<polygon fill="white" stroke="#666666" points="863.5,-272 754.5,-272 754.5,-253 863.5,-253 863.5,-272"/>
<text text-anchor="middle" x="809" y="-260" font-family="Helvetica,sans-Serif" font-size="10.00">rmvl/tracker/tracker.h</text>
</a>
</g>
</g>
<!-- Node6&#45;&gt;Node17 -->
<g id="edge16_Node000006_Node000017" class="edge">
<title>Node6&#45;&gt;Node17</title>
<g id="a_edge16_Node000006_Node000017"><a xlink:title=" ">
<path fill="none" stroke="#63b8ff" d="M663.35,-310.32C698.55,-299 751.08,-282.12 782.5,-272.02"/>
<polygon fill="#63b8ff" stroke="#63b8ff" points="661.91,-307.1 653.46,-313.49 664.06,-313.77 661.91,-307.1"/>
</a>
</g>
</g>
<!-- Node9 -->
<g id="Node000009" class="node">
<title>Node9</title>
<g id="a_Node000009"><a xlink:href="../../d6/dd8/decider_2gyro__decider_8h.html" target="_top" xlink:title="装甲板模块决策器头文件">
<polygon fill="white" stroke="#666666" points="903,-24.5 767,-24.5 767,-5.5 903,-5.5 903,-24.5"/>
<text text-anchor="middle" x="835" y="-12.5" font-family="Helvetica,sans-Serif" font-size="10.00">rmvl/decider/gyro_decider.h</text>
</a>
</g>
</g>
<!-- Node8&#45;&gt;Node9 -->
<g id="edge8_Node000008_Node000009" class="edge">
<title>Node8&#45;&gt;Node9</title>
<g id="a_edge8_Node000008_Node000009"><a xlink:title=" ">
<path fill="none" stroke="#63b8ff" d="M506.35,-250.89C469.97,-243.23 428.95,-231.67 418,-217 388.8,-177.87 378.59,-129.52 452,-66 497.76,-26.4 669.4,-17.78 766.65,-16.15"/>
<polygon fill="#63b8ff" stroke="#63b8ff" points="505.97,-254.38 516.46,-252.95 507.36,-247.52 505.97,-254.38"/>
</a>
</g>
</g>
<!-- Node10 -->
<g id="Node000010" class="node">
<title>Node10</title>
<g id="a_Node000010"><a xlink:href="../../d7/de6/tracker_2gyro__tracker_8h.html" target="_top" xlink:title="装甲板追踪器头文件">
<polygon fill="white" stroke="#666666" points="560.5,-211.5 427.5,-211.5 427.5,-192.5 560.5,-192.5 560.5,-211.5"/>
<text text-anchor="middle" x="494" y="-199.5" font-family="Helvetica,sans-Serif" font-size="10.00">rmvl/tracker/gyro_tracker.h</text>
</a>
</g>
</g>
<!-- Node8&#45;&gt;Node10 -->
<g id="edge9_Node000008_Node000010" class="edge">
<title>Node8&#45;&gt;Node10</title>
<g id="a_edge9_Node000008_Node000010"><a xlink:title=" ">
<path fill="none" stroke="#63b8ff" d="M549.07,-246.54C535.1,-235.49 516.57,-220.84 504.96,-211.67"/>
<polygon fill="#63b8ff" stroke="#63b8ff" points="547.07,-249.41 557.08,-252.87 551.41,-243.92 547.07,-249.41"/>
</a>
</g>
</g>
<!-- Node12 -->
<g id="Node000012" class="node">
<title>Node12</title>
<g id="a_Node000012"><a xlink:href="../../d5/dea/tracker_2planar__tracker_8h.html" target="_top" xlink:title="平面目标追踪器头文件">
<polygon fill="white" stroke="#666666" points="677,-217 579,-217 579,-187 677,-187 677,-217"/>
<text text-anchor="start" x="587" y="-205" font-family="Helvetica,sans-Serif" font-size="10.00">rmvl/tracker/planar</text>
<text text-anchor="middle" x="628" y="-194" font-family="Helvetica,sans-Serif" font-size="10.00">_tracker.h</text>
</a>
</g>
</g>
<!-- Node8&#45;&gt;Node12 -->
<g id="edge11_Node000008_Node000012" class="edge">
<title>Node8&#45;&gt;Node12</title>
<g id="a_edge11_Node000008_Node000012"><a xlink:title=" ">
<path fill="none" stroke="#63b8ff" d="M584.21,-245.7C593.35,-236.78 604.68,-225.74 613.52,-217.11"/>
<polygon fill="#63b8ff" stroke="#63b8ff" points="581.57,-243.38 576.85,-252.87 586.46,-248.39 581.57,-243.38"/>
</a>
</g>
</g>
<!-- Node11 -->
<g id="Node000011" class="node">
<title>Node11</title>
<g id="a_Node000011"><a xlink:href="../../d1/d6b/detector_2gyro__detector_8h.html" target="_top" xlink:title="装甲板识别派生类头文件">
<polygon fill="white" stroke="#666666" points="556.5,-96 461.5,-96 461.5,-66 556.5,-66 556.5,-96"/>
<text text-anchor="start" x="469.5" y="-84" font-family="Helvetica,sans-Serif" font-size="10.00">rmvl/detector/gyro</text>
<text text-anchor="middle" x="509" y="-73" font-family="Helvetica,sans-Serif" font-size="10.00">_detector.h</text>
</a>
</g>
</g>
<!-- Node10&#45;&gt;Node11 -->
<g id="edge10_Node000010_Node000011" class="edge">
<title>Node10&#45;&gt;Node11</title>
<g id="a_edge10_Node000010_Node000011"><a xlink:title=" ">
<path fill="none" stroke="#63b8ff" d="M496.37,-182.23C499.38,-158.35 504.51,-117.65 507.21,-96.2"/>
<polygon fill="#63b8ff" stroke="#63b8ff" points="492.86,-182.08 495.08,-192.44 499.8,-182.96 492.86,-182.08"/>
</a>
</g>
</g>
<!-- Node13 -->
<g id="Node000013" class="node">
<title>Node13</title>
<g id="a_Node000013"><a xlink:href="../../da/d95/detector_2armor__detector_8h.html" target="_top" xlink:title="装甲板识别派生类头文件">
<polygon fill="white" stroke="#666666" points="684.5,-96 583.5,-96 583.5,-66 684.5,-66 684.5,-96"/>
<text text-anchor="start" x="591.5" y="-84" font-family="Helvetica,sans-Serif" font-size="10.00">rmvl/detector/armor</text>
<text text-anchor="middle" x="634" y="-73" font-family="Helvetica,sans-Serif" font-size="10.00">_detector.h</text>
</a>
</g>
</g>
<!-- Node12&#45;&gt;Node13 -->
<g id="edge12_Node000012_Node000013" class="edge">
<title>Node12&#45;&gt;Node13</title>
<g id="a_edge12_Node000012_Node000013"><a xlink:title=" ">
<path fill="none" stroke="#63b8ff" d="M629.23,-176.69C630.45,-152.42 632.29,-115.95 633.29,-96.1"/>
<polygon fill="#63b8ff" stroke="#63b8ff" points="625.72,-176.72 628.71,-186.88 632.71,-177.07 625.72,-176.72"/>
</a>
</g>
</g>
<!-- Node15 -->
<g id="Node000015" class="node">
<title>Node15</title>
<g id="a_Node000015"><a xlink:href="../../dd/d0a/tracker_2rune__tracker_8h.html" target="_top" xlink:title="神符追踪器头文件">
<polygon fill="white" stroke="#666666" points="828.5,-211.5 695.5,-211.5 695.5,-192.5 828.5,-192.5 828.5,-211.5"/>
<text text-anchor="middle" x="762" y="-199.5" font-family="Helvetica,sans-Serif" font-size="10.00">rmvl/tracker/rune_tracker.h</text>
</a>
</g>
</g>
<!-- Node14&#45;&gt;Node15 -->
<g id="edge14_Node000014_Node000015" class="edge">
<title>Node14&#45;&gt;Node15</title>
<g id="a_edge14_Node000014_Node000015"><a xlink:title=" ">
<path fill="none" stroke="#63b8ff" d="M706.18,-246.54C720.35,-235.49 739.13,-220.84 750.89,-211.67"/>
<polygon fill="#63b8ff" stroke="#63b8ff" points="703.8,-243.96 698.07,-252.87 708.1,-249.48 703.8,-243.96"/>
</a>
</g>
</g>
<!-- Node16 -->
<g id="Node000016" class="node">
<title>Node16</title>
<g id="a_Node000016"><a xlink:href="../../db/dcc/detector_2rune__detector_8h.html" target="_top" xlink:title="神符识别派生类头文件">
<polygon fill="white" stroke="#666666" points="806.5,-96 711.5,-96 711.5,-66 806.5,-66 806.5,-96"/>
<text text-anchor="start" x="719.5" y="-84" font-family="Helvetica,sans-Serif" font-size="10.00">rmvl/detector/rune</text>
<text text-anchor="middle" x="759" y="-73" font-family="Helvetica,sans-Serif" font-size="10.00">_detector.h</text>
</a>
</g>
</g>
<!-- Node15&#45;&gt;Node16 -->
<g id="edge15_Node000015_Node000016" class="edge">
<title>Node15&#45;&gt;Node16</title>
<g id="a_edge15_Node000015_Node000016"><a xlink:title=" ">
<path fill="none" stroke="#63b8ff" d="M761.53,-182.23C760.92,-158.35 759.9,-117.65 759.36,-96.2"/>
<polygon fill="#63b8ff" stroke="#63b8ff" points="758.03,-182.53 761.78,-192.44 765.03,-182.36 758.03,-182.53"/>
</a>
</g>
</g>
<!-- Node17&#45;&gt;Node9 -->
<g id="edge17_Node000017_Node000009" class="edge">
<title>Node17&#45;&gt;Node9</title>
<g id="a_edge17_Node000017_Node000009"><a xlink:title=" ">
<path fill="none" stroke="#63b8ff" d="M822.72,-244.71C828.32,-236.8 834.13,-226.94 837,-217 857.7,-145.24 842.39,-53 836.82,-24.66"/>
<polygon fill="#63b8ff" stroke="#63b8ff" points="819.92,-242.61 816.67,-252.7 825.5,-246.84 819.92,-242.61"/>
</a>
</g>
</g>
<!-- Node17&#45;&gt;Node10 -->
<g id="edge46_Node000017_Node000010" class="edge">
<title>Node17&#45;&gt;Node10</title>
<g id="a_edge46_Node000017_Node000010"><a xlink:title=" ">
<path fill="none" stroke="#63b8ff" d="M753.02,-251.1C692.25,-239.82 596.34,-222.01 539.86,-211.52"/>
<polygon fill="#63b8ff" stroke="#63b8ff" points="752.73,-254.61 763.2,-252.99 754,-247.73 752.73,-254.61"/>
</a>
</g>
</g>
<!-- Node17&#45;&gt;Node12 -->
<g id="edge47_Node000017_Node000012" class="edge">
<title>Node17&#45;&gt;Node12</title>
<g id="a_edge47_Node000017_Node000012"><a xlink:title=" ">
<path fill="none" stroke="#63b8ff" d="M772.89,-249.83C743.71,-240.4 702.52,-227.09 671.52,-217.06"/>
<polygon fill="#63b8ff" stroke="#63b8ff" points="772.09,-253.25 782.68,-252.99 774.24,-246.59 772.09,-253.25"/>
</a>
</g>
</g>
<!-- Node17&#45;&gt;Node15 -->
<g id="edge48_Node000017_Node000015" class="edge">
<title>Node17&#45;&gt;Node15</title>
<g id="a_edge48_Node000017_Node000015"><a xlink:title=" ">
<path fill="none" stroke="#63b8ff" d="M795.7,-244.95C787,-234.12 775.99,-220.41 768.96,-211.67"/>
<polygon fill="#63b8ff" stroke="#63b8ff" points="793.07,-247.26 802.06,-252.87 798.53,-242.88 793.07,-247.26"/>
</a>
</g>
</g>
<!-- Node18 -->
<g id="Node000018" class="node">
<title>Node18</title>
<g id="a_Node000018"><a xlink:href="../../d9/dd1/group_8h.html" target="_top" xlink:title="序列组抽象头文件">
<polygon fill="white" stroke="#666666" points="1358,-211.5 1260,-211.5 1260,-192.5 1358,-192.5 1358,-211.5"/>
<text text-anchor="middle" x="1309" y="-199.5" font-family="Helvetica,sans-Serif" font-size="10.00">rmvl/group/group.h</text>
</a>
</g>
</g>
<!-- Node17&#45;&gt;Node18 -->
<g id="edge18_Node000017_Node000018" class="edge">
<title>Node17&#45;&gt;Node18</title>
<g id="a_edge18_Node000017_Node000018"><a xlink:title=" ">
<path fill="none" stroke="#63b8ff" d="M874.06,-253.89C975.54,-242.01 1169.26,-219.35 1259.93,-208.74"/>
<polygon fill="#63b8ff" stroke="#63b8ff" points="873.46,-250.43 863.94,-255.07 874.28,-257.39 873.46,-250.43"/>
</a>
</g>
</g>
<!-- Node39 -->
<g id="Node000039" class="node">
<title>Node39</title>
<g id="a_Node000039"><a xlink:href="../../dc/d2d/rmvl_2tracker_8hpp.html" target="_top" xlink:title=" ">
<polygon fill="white" stroke="#666666" points="1462,-211.5 1376,-211.5 1376,-192.5 1462,-192.5 1462,-211.5"/>
<text text-anchor="middle" x="1419" y="-199.5" font-family="Helvetica,sans-Serif" font-size="10.00">rmvl/tracker.hpp</text>
</a>
</g>
</g>
<!-- Node17&#45;&gt;Node39 -->
<g id="edge45_Node000017_Node000039" class="edge">
<title>Node17&#45;&gt;Node39</title>
<g id="a_edge45_Node000017_Node000039"><a xlink:title=" ">
<path fill="none" stroke="#63b8ff" d="M873.75,-260.18C978.24,-257.2 1190.22,-247.58 1367,-217 1374.92,-215.63 1383.39,-213.6 1391.14,-211.51"/>
<polygon fill="#63b8ff" stroke="#63b8ff" points="873.57,-256.69 863.67,-260.46 873.76,-263.68 873.57,-256.69"/>
</a>
</g>
</g>
<!-- Node19 -->
<g id="Node000019" class="node">
<title>Node19</title>
<g id="a_Node000019"><a xlink:href="../../d9/df2/compensator_8h.html" target="_top" xlink:title="抽象补偿类头文件">
<polygon fill="white" stroke="#666666" points="1320.5,-151 1159.5,-151 1159.5,-132 1320.5,-132 1320.5,-151"/>
<text text-anchor="middle" x="1240" y="-139" font-family="Helvetica,sans-Serif" font-size="10.00">rmvl/compensator/compensator.h</text>
</a>
</g>
</g>
<!-- Node18&#45;&gt;Node19 -->
<g id="edge19_Node000018_Node000019" class="edge">
<title>Node18&#45;&gt;Node19</title>
<g id="a_edge19_Node000018_Node000019"><a xlink:title=" ">
<path fill="none" stroke="#63b8ff" d="M1290.98,-185.72C1278,-174.71 1260.94,-160.25 1250.22,-151.17"/>
<polygon fill="#63b8ff" stroke="#63b8ff" points="1288.93,-188.57 1298.82,-192.37 1293.45,-183.23 1288.93,-188.57"/>
</a>
</g>
</g>
<!-- Node27 -->
<g id="Node000027" class="node">
<title>Node27</title>
<g id="a_Node000027"><a xlink:href="../../d5/d9f/detector_8h.html" target="_top" xlink:title="抽象识别类头文件">
<polygon fill="white" stroke="#666666" points="982.5,-151 863.5,-151 863.5,-132 982.5,-132 982.5,-151"/>
<text text-anchor="middle" x="923" y="-139" font-family="Helvetica,sans-Serif" font-size="10.00">rmvl/detector/detector.h</text>
</a>
</g>
</g>
<!-- Node18&#45;&gt;Node27 -->
<g id="edge28_Node000018_Node000027" class="edge">
<title>Node18&#45;&gt;Node27</title>
<g id="a_edge28_Node000018_Node000027"><a xlink:title=" ">
<path fill="none" stroke="#63b8ff" d="M1249.68,-192.01C1176.03,-180.85 1051.33,-161.95 979.17,-151.01"/>
<polygon fill="#63b8ff" stroke="#63b8ff" points="1249.31,-195.49 1259.72,-193.53 1250.36,-188.57 1249.31,-195.49"/>
</a>
</g>
</g>
<!-- Node30 -->
<g id="Node000030" class="node">
<title>Node30</title>
<g id="a_Node000030"><a xlink:href="../../db/d4f/rmvl_2group_8hpp.html" target="_top" xlink:title=" ">
<polygon fill="white" stroke="#666666" points="1419.5,-151 1338.5,-151 1338.5,-132 1419.5,-132 1419.5,-151"/>
<text text-anchor="middle" x="1379" y="-139" font-family="Helvetica,sans-Serif" font-size="10.00">rmvl/group.hpp</text>
</a>
</g>
</g>
<!-- Node18&#45;&gt;Node30 -->
<g id="edge35_Node000018_Node000030" class="edge">
<title>Node18&#45;&gt;Node30</title>
<g id="a_edge35_Node000018_Node000030"><a xlink:title=" ">
<path fill="none" stroke="#63b8ff" d="M1327.28,-185.72C1340.45,-174.71 1357.76,-160.25 1368.63,-151.17"/>
<polygon fill="#63b8ff" stroke="#63b8ff" points="1324.76,-183.27 1319.33,-192.37 1329.25,-188.64 1324.76,-183.27"/>
</a>
</g>
</g>
<!-- Node31 -->
<g id="Node000031" class="node">
<title>Node31</title>
<g id="a_Node000031"><a xlink:href="../../d3/df0/group_2gyro__group_8h.html" target="_top" xlink:title="装甲序列组头文件">
<polygon fill="white" stroke="#666666" points="1560,-151 1438,-151 1438,-132 1560,-132 1560,-151"/>
<text text-anchor="middle" x="1499" y="-139" font-family="Helvetica,sans-Serif" font-size="10.00">rmvl/group/gyro_group.h</text>
</a>
</g>
</g>
<!-- Node18&#45;&gt;Node31 -->
<g id="edge36_Node000018_Node000031" class="edge">
<title>Node18&#45;&gt;Node31</title>
<g id="a_edge36_Node000018_Node000031"><a xlink:title=" ">
<path fill="none" stroke="#63b8ff" d="M1346.47,-189.46C1383.22,-178.15 1438.4,-161.16 1471.34,-151.02"/>
<polygon fill="#63b8ff" stroke="#63b8ff" points="1345.15,-186.21 1336.63,-192.49 1347.21,-192.9 1345.15,-186.21"/>
</a>
</g>
</g>
<!-- Node32 -->
<g id="Node000032" class="node">
<title>Node32</title>
<g id="a_Node000032"><a xlink:href="../../d8/df3/group_2rune__group_8h.html" target="_top" xlink:title="神符序列组头文件">
<polygon fill="white" stroke="#666666" points="1700,-151 1578,-151 1578,-132 1700,-132 1700,-151"/>
<text text-anchor="middle" x="1639" y="-139" font-family="Helvetica,sans-Serif" font-size="10.00">rmvl/group/rune_group.h</text>
</a>
</g>
</g>
<!-- Node18&#45;&gt;Node32 -->
<g id="edge37_Node000018_Node000032" class="edge">
<title>Node18&#45;&gt;Node32</title>
<g id="a_edge37_Node000018_Node000032"><a xlink:title=" ">
<path fill="none" stroke="#63b8ff" d="M1352.53,-190.12C1357.4,-189.02 1362.3,-187.95 1367,-187 1439.46,-172.35 1523.53,-159.17 1578.8,-151.03"/>
<polygon fill="#63b8ff" stroke="#63b8ff" points="1351.58,-186.75 1342.64,-192.43 1353.18,-193.57 1351.58,-186.75"/>
</a>
</g>
</g>
<!-- Node33 -->
<g id="Node000033" class="node">
<title>Node33</title>
<g id="a_Node000033"><a xlink:href="../../dc/d08/predictor_8h.html" target="_top" xlink:title="抽象预测类头文件">
<polygon fill="white" stroke="#666666" points="1896,-151 1772,-151 1772,-132 1896,-132 1896,-151"/>
<text text-anchor="middle" x="1834" y="-139" font-family="Helvetica,sans-Serif" font-size="10.00">rmvl/predictor/predictor.h</text>
</a>
</g>
</g>
<!-- Node18&#45;&gt;Node33 -->
<g id="edge38_Node000018_Node000033" class="edge">
<title>Node18&#45;&gt;Node33</title>
<g id="a_edge38_Node000018_Node000033"><a xlink:title=" ">
<path fill="none" stroke="#63b8ff" d="M1350.51,-190.23C1356.03,-189.02 1361.64,-187.9 1367,-187 1443.21,-174.24 1663.01,-155.95 1771.67,-147.33"/>
<polygon fill="#63b8ff" stroke="#63b8ff" points="1349.7,-186.82 1340.74,-192.48 1351.27,-193.64 1349.7,-186.82"/>
</a>
</g>
</g>
<!-- Node20 -->
<g id="Node000020" class="node">
<title>Node20</title>
<g id="a_Node000020"><a xlink:href="../../d6/ddf/rmvl_2compensator_8hpp.html" target="_top" xlink:title=" ">
<polygon fill="white" stroke="#666666" points="1242.5,-90.5 1129.5,-90.5 1129.5,-71.5 1242.5,-71.5 1242.5,-90.5"/>
<text text-anchor="middle" x="1186" y="-78.5" font-family="Helvetica,sans-Serif" font-size="10.00">rmvl/compensator.hpp</text>
</a>
</g>
</g>
<!-- Node19&#45;&gt;Node20 -->
<g id="edge20_Node000019_Node000020" class="edge">
<title>Node19&#45;&gt;Node20</title>
<g id="a_edge20_Node000019_Node000020"><a xlink:title=" ">
<path fill="none" stroke="#63b8ff" d="M1225.02,-124.27C1214.98,-113.39 1202.15,-99.49 1194,-90.67"/>
<polygon fill="#63b8ff" stroke="#63b8ff" points="1222.68,-126.89 1232.03,-131.87 1227.82,-122.15 1222.68,-126.89"/>
</a>
</g>
</g>
<!-- Node21 -->
<g id="Node000021" class="node">
<title>Node21</title>
<g id="a_Node000021"><a xlink:href="../../d1/d91/compensator_2gravity__compensator_8h.html" target="_top" xlink:title="重力模型补偿头文件">
<polygon fill="white" stroke="#666666" points="1387.5,-96 1260.5,-96 1260.5,-66 1387.5,-66 1387.5,-96"/>
<text text-anchor="start" x="1268.5" y="-84" font-family="Helvetica,sans-Serif" font-size="10.00">rmvl/compensator/gravity</text>
<text text-anchor="middle" x="1324" y="-73" font-family="Helvetica,sans-Serif" font-size="10.00">_compensator.h</text>
</a>
</g>
</g>
<!-- Node19&#45;&gt;Node21 -->
<g id="edge21_Node000019_Node000021" class="edge">
<title>Node19&#45;&gt;Node21</title>
<g id="a_edge21_Node000019_Node000021"><a xlink:title=" ">
<path fill="none" stroke="#63b8ff" d="M1260.78,-126.03C1273.88,-116.9 1290.73,-105.17 1303.73,-96.11"/>
<polygon fill="#63b8ff" stroke="#63b8ff" points="1258.6,-123.28 1252.39,-131.87 1262.6,-129.03 1258.6,-123.28"/>
</a>
</g>
</g>
<!-- Node22 -->
<g id="Node000022" class="node">
<title>Node22</title>
<g id="a_Node000022"><a xlink:href="../../d5/d90/compensator_2gyro__compensator_8h.html" target="_top" xlink:title="整车状态补偿模块接口声明">
<polygon fill="white" stroke="#666666" points="1522,-96 1406,-96 1406,-66 1522,-66 1522,-96"/>
<text text-anchor="start" x="1414" y="-84" font-family="Helvetica,sans-Serif" font-size="10.00">rmvl/compensator/gyro</text>
<text text-anchor="middle" x="1464" y="-73" font-family="Helvetica,sans-Serif" font-size="10.00">_compensator.h</text>
</a>
</g>
</g>
<!-- Node19&#45;&gt;Node22 -->
<g id="edge22_Node000019_Node000022" class="edge">
<title>Node19&#45;&gt;Node22</title>
<g id="a_edge22_Node000019_Node000022"><a xlink:title=" ">
<path fill="none" stroke="#63b8ff" d="M1282.34,-129.44C1318.57,-119.98 1370.94,-106.3 1410.15,-96.06"/>
<polygon fill="#63b8ff" stroke="#63b8ff" points="1281.36,-126.08 1272.57,-131.99 1283.13,-132.85 1281.36,-126.08"/>
</a>
</g>
</g>
<!-- Node23 -->
<g id="Node000023" class="node">
<title>Node23</title>
<g id="a_Node000023"><a xlink:href="../../d3/d70/decider_8h.html" target="_top" xlink:title="抽象决策类头文件">
<polygon fill="white" stroke="#666666" points="1652,-90.5 1540,-90.5 1540,-71.5 1652,-71.5 1652,-90.5"/>
<text text-anchor="middle" x="1596" y="-78.5" font-family="Helvetica,sans-Serif" font-size="10.00">rmvl/decider/decider.h</text>
</a>
</g>
</g>
<!-- Node19&#45;&gt;Node23 -->
<g id="edge23_Node000019_Node000023" class="edge">
<title>Node19&#45;&gt;Node23</title>
<g id="a_edge23_Node000019_Node000023"><a xlink:title=" ">
<path fill="none" stroke="#63b8ff" d="M1312.88,-130.6C1371.86,-122.29 1456.99,-109.62 1531,-96 1539.86,-94.37 1549.35,-92.43 1558.27,-90.53"/>
<polygon fill="#63b8ff" stroke="#63b8ff" points="1312.33,-127.14 1302.91,-132 1313.3,-134.08 1312.33,-127.14"/>
</a>
</g>
</g>
<!-- Node23&#45;&gt;Node9 -->
<g id="edge25_Node000023_Node000009" class="edge">
<title>Node23&#45;&gt;Node9</title>
<g id="a_edge25_Node000023_Node000009"><a xlink:title=" ">
<path fill="none" stroke="#63b8ff" d="M1550.61,-69.38C1544.06,-68.09 1537.37,-66.91 1531,-66 1302.24,-33.31 1027.97,-21.58 903.01,-17.72"/>
<polygon fill="#63b8ff" stroke="#63b8ff" points="1550.24,-72.87 1560.74,-71.46 1551.65,-66.02 1550.24,-72.87"/>
</a>
</g>
</g>
<!-- Node24 -->
<g id="Node000024" class="node">
<title>Node24</title>
<g id="a_Node000024"><a xlink:href="../../de/d18/rmvl_2decider_8hpp.html" target="_top" xlink:title=" ">
<polygon fill="white" stroke="#666666" points="1510,-24.5 1422,-24.5 1422,-5.5 1510,-5.5 1510,-24.5"/>
<text text-anchor="middle" x="1466" y="-12.5" font-family="Helvetica,sans-Serif" font-size="10.00">rmvl/decider.hpp</text>
</a>
</g>
</g>
<!-- Node23&#45;&gt;Node24 -->
<g id="edge24_Node000023_Node000024" class="edge">
<title>Node23&#45;&gt;Node24</title>
<g id="a_edge24_Node000023_Node000024"><a xlink:title=" ">
<path fill="none" stroke="#63b8ff" d="M1569.31,-66.86C1543.7,-54.25 1505.74,-35.56 1483.67,-24.7"/>
<polygon fill="#63b8ff" stroke="#63b8ff" points="1567.95,-70.09 1578.47,-71.37 1571.04,-63.81 1567.95,-70.09"/>
</a>
</g>
</g>
<!-- Node25 -->
<g id="Node000025" class="node">
<title>Node25</title>
<g id="a_Node000025"><a xlink:href="../../dd/d03/decider_2rune__decider_8h.html" target="_top" xlink:title="神符模块决策器头文件">
<polygon fill="white" stroke="#666666" points="1664,-24.5 1528,-24.5 1528,-5.5 1664,-5.5 1664,-24.5"/>
<text text-anchor="middle" x="1596" y="-12.5" font-family="Helvetica,sans-Serif" font-size="10.00">rmvl/decider/rune_decider.h</text>
</a>
</g>
</g>
<!-- Node23&#45;&gt;Node25 -->
<g id="edge26_Node000023_Node000025" class="edge">
<title>Node23&#45;&gt;Node25</title>
<g id="a_edge26_Node000023_Node000025"><a xlink:title=" ">
<path fill="none" stroke="#63b8ff" d="M1596,-61.08C1596,-49.13 1596,-34.22 1596,-24.91"/>
<polygon fill="#63b8ff" stroke="#63b8ff" points="1592.5,-61.37 1596,-71.37 1599.5,-61.37 1592.5,-61.37"/>
</a>
</g>
</g>
<!-- Node26 -->
<g id="Node000026" class="node">
<title>Node26</title>
<g id="a_Node000026"><a xlink:href="../../de/d06/decider_2translation__decider_8h.html" target="_top" xlink:title="平移目标决策器头文件">
<polygon fill="white" stroke="#666666" points="1800,-30 1682,-30 1682,0 1800,0 1800,-30"/>
<text text-anchor="start" x="1690" y="-18" font-family="Helvetica,sans-Serif" font-size="10.00">rmvl/decider/translation</text>
<text text-anchor="middle" x="1741" y="-7" font-family="Helvetica,sans-Serif" font-size="10.00">_decider.h</text>
</a>
</g>
</g>
<!-- Node23&#45;&gt;Node26 -->
<g id="edge27_Node000023_Node000026" class="edge">
<title>Node23&#45;&gt;Node26</title>
<g id="a_edge27_Node000023_Node000026"><a xlink:title=" ">
<path fill="none" stroke="#63b8ff" d="M1624.96,-67.22C1649.25,-56.5 1683.91,-41.2 1709.02,-30.12"/>
<polygon fill="#63b8ff" stroke="#63b8ff" points="1623.29,-64.13 1615.56,-71.37 1626.12,-70.53 1623.29,-64.13"/>
</a>
</g>
</g>
<!-- Node27&#45;&gt;Node11 -->
<g id="edge32_Node000027_Node000011" class="edge">
<title>Node27&#45;&gt;Node11</title>
<g id="a_edge32_Node000027_Node000011"><a xlink:title=" ">
<path fill="none" stroke="#63b8ff" d="M853.38,-133.39C782.75,-125.77 670.4,-112.5 574,-96 568.42,-95.05 562.6,-93.94 556.83,-92.79"/>
<polygon fill="#63b8ff" stroke="#63b8ff" points="853.17,-136.89 863.49,-134.48 853.92,-129.93 853.17,-136.89"/>
</a>
</g>
</g>
<!-- Node27&#45;&gt;Node13 -->
<g id="edge31_Node000027_Node000013" class="edge">
<title>Node27&#45;&gt;Node13</title>
<g id="a_edge31_Node000027_Node000013"><a xlink:title=" ">
<path fill="none" stroke="#63b8ff" d="M870.14,-129.92C825.36,-120.95 759.46,-107.7 702,-96 696.45,-94.87 690.64,-93.68 684.87,-92.5"/>
<polygon fill="#63b8ff" stroke="#63b8ff" points="869.72,-133.41 880.21,-131.94 871.09,-126.54 869.72,-133.41"/>
</a>
</g>
</g>
<!-- Node27&#45;&gt;Node16 -->
<g id="edge33_Node000027_Node000016" class="edge">
<title>Node27&#45;&gt;Node16</title>
<g id="a_edge33_Node000027_Node000016"><a xlink:title=" ">
<path fill="none" stroke="#63b8ff" d="M889.59,-128.58C863.19,-119.16 826.28,-106 798.43,-96.06"/>
<polygon fill="#63b8ff" stroke="#63b8ff" points="888.56,-131.93 899.15,-131.99 890.91,-125.34 888.56,-131.93"/>
</a>
</g>
</g>
<!-- Node27&#45;&gt;Node23 -->
<g id="edge29_Node000027_Node000023" class="edge">
<title>Node27&#45;&gt;Node23</title>
<g id="a_edge29_Node000027_Node000023"><a xlink:title=" ">
<path fill="none" stroke="#63b8ff" d="M993.13,-138.53C1106.64,-134.64 1337.47,-123.79 1531,-96 1540.71,-94.61 1551.14,-92.59 1560.74,-90.53"/>
<polygon fill="#63b8ff" stroke="#63b8ff" points="992.72,-135.05 982.84,-138.88 992.96,-142.04 992.72,-135.05"/>
</a>
</g>
</g>
<!-- Node28 -->
<g id="Node000028" class="node">
<title>Node28</title>
<g id="a_Node000028"><a xlink:href="../../dd/d9f/rmvl_2detector_8hpp.html" target="_top" xlink:title=" ">
<polygon fill="white" stroke="#666666" points="955,-90.5 863,-90.5 863,-71.5 955,-71.5 955,-90.5"/>
<text text-anchor="middle" x="909" y="-78.5" font-family="Helvetica,sans-Serif" font-size="10.00">rmvl/detector.hpp</text>
</a>
</g>
</g>
<!-- Node27&#45;&gt;Node28 -->
<g id="edge30_Node000027_Node000028" class="edge">
<title>Node27&#45;&gt;Node28</title>
<g id="a_edge30_Node000027_Node000028"><a xlink:title=" ">
<path fill="none" stroke="#63b8ff" d="M918.57,-121.99C916.06,-111.51 913.04,-98.89 911.07,-90.67"/>
<polygon fill="#63b8ff" stroke="#63b8ff" points="915.2,-122.96 920.93,-131.87 922.01,-121.33 915.2,-122.96"/>
</a>
</g>
</g>
<!-- Node29 -->
<g id="Node000029" class="node">
<title>Node29</title>
<g id="a_Node000029"><a xlink:href="../../d6/d58/detector_2tag__detector_8h.html" target="_top" xlink:title="AprilTag 识别模块">
<polygon fill="white" stroke="#666666" points="1111,-90.5 973,-90.5 973,-71.5 1111,-71.5 1111,-90.5"/>
<text text-anchor="middle" x="1042" y="-78.5" font-family="Helvetica,sans-Serif" font-size="10.00">rmvl/detector/tag_detector.h</text>
</a>
</g>
</g>
<!-- Node27&#45;&gt;Node29 -->
<g id="edge34_Node000027_Node000029" class="edge">
<title>Node27&#45;&gt;Node29</title>
<g id="a_edge34_Node000027_Node000029"><a xlink:title=" ">
<path fill="none" stroke="#63b8ff" d="M949.48,-127.48C972.41,-116.21 1004.93,-100.23 1024.68,-90.52"/>
<polygon fill="#63b8ff" stroke="#63b8ff" points="947.73,-124.44 940.3,-131.99 950.82,-130.72 947.73,-124.44"/>
</a>
</g>
</g>
<!-- Node33&#45;&gt;Node23 -->
<g id="edge39_Node000033_Node000023" class="edge">
<title>Node33&#45;&gt;Node23</title>
<g id="a_edge39_Node000033_Node000023"><a xlink:title=" ">
<path fill="none" stroke="#63b8ff" d="M1789.4,-129.54C1743.4,-118.23 1672.62,-100.83 1630.65,-90.52"/>
<polygon fill="#63b8ff" stroke="#63b8ff" points="1788.85,-133.01 1799.39,-131.99 1790.52,-126.21 1788.85,-133.01"/>
</a>
</g>
</g>
<!-- Node34 -->
<g id="Node000034" class="node">
<title>Node34</title>
<g id="a_Node000034"><a xlink:href="../../df/d54/rmvl_2predictor_8hpp.html" target="_top" xlink:title=" ">
<polygon fill="white" stroke="#666666" points="1764,-90.5 1670,-90.5 1670,-71.5 1764,-71.5 1764,-90.5"/>
<text text-anchor="middle" x="1717" y="-78.5" font-family="Helvetica,sans-Serif" font-size="10.00">rmvl/predictor.hpp</text>
</a>
</g>
</g>
<!-- Node33&#45;&gt;Node34 -->
<g id="edge40_Node000033_Node000034" class="edge">
<title>Node33&#45;&gt;Node34</title>
<g id="a_edge40_Node000033_Node000034"><a xlink:title=" ">
<path fill="none" stroke="#63b8ff" d="M1807.96,-127.48C1785.42,-116.21 1753.45,-100.23 1734.03,-90.52"/>
<polygon fill="#63b8ff" stroke="#63b8ff" points="1806.48,-130.65 1816.99,-131.99 1809.61,-124.39 1806.48,-130.65"/>
</a>
</g>
</g>
<!-- Node35 -->
<g id="Node000035" class="node">
<title>Node35</title>
<g id="a_Node000035"><a xlink:href="../../df/d4c/predictor_2armor__predictor_8h.html" target="_top" xlink:title="装甲板预测派生类头文件">
<polygon fill="white" stroke="#666666" points="1886,-96 1782,-96 1782,-66 1886,-66 1886,-96"/>
<text text-anchor="start" x="1790" y="-84" font-family="Helvetica,sans-Serif" font-size="10.00">rmvl/predictor/armor</text>
<text text-anchor="middle" x="1834" y="-73" font-family="Helvetica,sans-Serif" font-size="10.00">_predictor.h</text>
</a>
</g>
</g>
<!-- Node33&#45;&gt;Node35 -->
<g id="edge41_Node000033_Node000035" class="edge">
<title>Node33&#45;&gt;Node35</title>
<g id="a_edge41_Node000033_Node000035"><a xlink:title=" ">
<path fill="none" stroke="#63b8ff" d="M1834,-121.65C1834,-113.36 1834,-103.78 1834,-96.11"/>
<polygon fill="#63b8ff" stroke="#63b8ff" points="1830.5,-121.87 1834,-131.87 1837.5,-121.87 1830.5,-121.87"/>
</a>
</g>
</g>
<!-- Node36 -->
<g id="Node000036" class="node">
<title>Node36</title>
<g id="a_Node000036"><a xlink:href="../../d9/de5/predictor_2gyro__predictor_8h.html" target="_top" xlink:title="整车状态预测派生类头文件">
<polygon fill="white" stroke="#666666" points="2002,-96 1904,-96 1904,-66 2002,-66 2002,-96"/>
<text text-anchor="start" x="1912" y="-84" font-family="Helvetica,sans-Serif" font-size="10.00">rmvl/predictor/gyro</text>
<text text-anchor="middle" x="1953" y="-73" font-family="Helvetica,sans-Serif" font-size="10.00">_predictor.h</text>
</a>
</g>
</g>
<!-- Node33&#45;&gt;Node36 -->
<g id="edge42_Node000033_Node000036" class="edge">
<title>Node33&#45;&gt;Node36</title>
<g id="a_edge42_Node000033_Node000036"><a xlink:title=" ">
<path fill="none" stroke="#63b8ff" d="M1860.52,-127.46C1879.41,-118.18 1904.77,-105.71 1924.16,-96.18"/>
<polygon fill="#63b8ff" stroke="#63b8ff" points="1858.73,-124.44 1851.3,-131.99 1861.82,-130.72 1858.73,-124.44"/>
</a>
</g>
</g>
<!-- Node37 -->
<g id="Node000037" class="node">
<title>Node37</title>
<g id="a_Node000037"><a xlink:href="../../d5/dec/predictor_2rune__predictor_8h.html" target="_top" xlink:title="神符预测派生类头文件">
<polygon fill="white" stroke="#666666" points="2118,-96 2020,-96 2020,-66 2118,-66 2118,-96"/>
<text text-anchor="start" x="2028" y="-84" font-family="Helvetica,sans-Serif" font-size="10.00">rmvl/predictor/rune</text>
<text text-anchor="middle" x="2069" y="-73" font-family="Helvetica,sans-Serif" font-size="10.00">_predictor.h</text>
</a>
</g>
</g>
<!-- Node33&#45;&gt;Node37 -->
<g id="edge43_Node000033_Node000037" class="edge">
<title>Node33&#45;&gt;Node37</title>
<g id="a_edge43_Node000033_Node000037"><a xlink:title=" ">
<path fill="none" stroke="#63b8ff" d="M1877.97,-129.55C1918.23,-119.53 1977.75,-104.72 2019.63,-94.29"/>
<polygon fill="#63b8ff" stroke="#63b8ff" points="1877.03,-126.18 1868.17,-131.99 1878.72,-132.97 1877.03,-126.18"/>
</a>
</g>
</g>
<!-- Node38 -->
<g id="Node000038" class="node">
<title>Node38</title>
<g id="a_Node000038"><a xlink:href="../../dc/d86/predictor_2spi__rune__predictor_8h.html" target="_top" xlink:title="系统参数辨识神符预测头文件">
<polygon fill="white" stroke="#666666" points="2228,-96 2136,-96 2136,-66 2228,-66 2228,-96"/>
<text text-anchor="start" x="2144" y="-84" font-family="Helvetica,sans-Serif" font-size="10.00">rmvl/predictor/spi</text>
<text text-anchor="middle" x="2182" y="-73" font-family="Helvetica,sans-Serif" font-size="10.00">_rune_predictor.h</text>
</a>
</g>
</g>
<!-- Node33&#45;&gt;Node38 -->
<g id="edge44_Node000033_Node000038" class="edge">
<title>Node33&#45;&gt;Node38</title>
<g id="a_edge44_Node000033_Node000038"><a xlink:title=" ">
<path fill="none" stroke="#63b8ff" d="M1906.1,-131.57C1965.62,-123.71 2052.16,-111.17 2127,-96 2129.9,-95.41 2132.87,-94.77 2135.86,-94.1"/>
<polygon fill="#63b8ff" stroke="#63b8ff" points="1905.51,-128.11 1896.05,-132.88 1906.42,-135.05 1905.51,-128.11"/>
</a>
</g>
</g>
</g>
</svg>
