<?xml version="1.0" encoding="UTF-8" standalone="no"?>
<!DOCTYPE svg PUBLIC "-//W3C//DTD SVG 1.1//EN"
 "http://www.w3.org/Graphics/SVG/1.1/DTD/svg11.dtd">
<!-- Generated by graphviz version 2.43.0 (0)
 -->
<!-- Title: rm::para::HikLightControlParam Pages: 1 -->
<svg width="192pt" height="209pt"
 viewBox="0.00 0.00 192.00 209.00" xmlns="http://www.w3.org/2000/svg" xmlns:xlink="http://www.w3.org/1999/xlink">
<g id="graph0" class="graph" transform="scale(1 1) rotate(0) translate(4 205)">
<title>rm::para::HikLightControlParam</title>
<!-- Node1 -->
<g id="Node000001" class="node">
<title>Node1</title>
<g id="a_Node000001"><a xlink:title="HikLightControlParam 参数模块">
<polygon fill="#999999" stroke="transparent" points="136,-105 0,-105 0,0 136,0 136,-105"/>
<text text-anchor="start" x="6" y="-92.5" font-family="Helvetica,sans-Serif" font-size="10.00">rm::para::HikLightControl</text>
<text text-anchor="start" x="52.5" y="-81.5" font-family="Helvetica,sans-Serif" font-size="10.00">Param</text>
<text text-anchor="start" x="66" y="-66.5" font-family="Helvetica,sans-Serif" font-size="10.00"> </text>
<text text-anchor="start" x="4" y="-51.5" font-family="Helvetica,sans-Serif" font-size="10.00">+</text>
<text text-anchor="start" x="17" y="-51.5" font-family="Helvetica,sans-Serif" font-size="10.00">HikLightControlParam()</text>
<text text-anchor="start" x="4" y="-36.5" font-family="Helvetica,sans-Serif" font-size="10.00">+</text>
<text text-anchor="start" x="17" y="-36.5" font-family="Helvetica,sans-Serif" font-size="10.00">read()</text>
<text text-anchor="start" x="4" y="-21.5" font-family="Helvetica,sans-Serif" font-size="10.00">+</text>
<text text-anchor="start" x="17" y="-21.5" font-family="Helvetica,sans-Serif" font-size="10.00">write()</text>
<text text-anchor="start" x="4" y="-6.5" font-family="Helvetica,sans-Serif" font-size="10.00">+</text>
<text text-anchor="start" x="17" y="-6.5" font-family="Helvetica,sans-Serif" font-size="10.00">load()</text>
<polygon fill="#666666" stroke="#666666" points="0,-76.5 0,-76.5 136,-76.5 136,-76.5 0,-76.5"/>
<polygon fill="#666666" stroke="#666666" points="0,-61.5 0,-61.5 136,-61.5 136,-61.5 0,-61.5"/>
<polygon fill="none" stroke="#666666" points="0,0 0,-105 136,-105 136,0 0,0"/>
</a>
</g>
</g>
<!-- Node2 -->
<g id="Node000002" class="node">
<title>Node2</title>
<g id="a_Node000002"><a xlink:title=" ">
<polygon fill="white" stroke="transparent" points="90,-201 46,-201 46,-152 90,-152 90,-201"/>
<text text-anchor="start" x="51" y="-188.5" font-family="Helvetica,sans-Serif" font-size="10.00">double</text>
<text text-anchor="start" x="66" y="-173.5" font-family="Helvetica,sans-Serif" font-size="10.00"> </text>
<text text-anchor="start" x="66" y="-158.5" font-family="Helvetica,sans-Serif" font-size="10.00"> </text>
<polygon fill="#666666" stroke="#666666" points="46,-183.5 46,-183.5 90,-183.5 90,-183.5 46,-183.5"/>
<polygon fill="#666666" stroke="#666666" points="46,-168.5 46,-168.5 90,-168.5 90,-168.5 46,-168.5"/>
<polygon fill="none" stroke="#666666" points="46,-152 46,-201 90,-201 90,-152 46,-152"/>
</a>
</g>
</g>
<!-- Node2&#45;&gt;Node1 -->
<g id="edge1_Node000001_Node000002" class="edge">
<title>Node2&#45;&gt;Node1</title>
<g id="a_edge1_Node000001_Node000002"><a xlink:title=" ">
<path fill="none" stroke="#63b8ff" d="M68,-151.98C68,-142.01 68,-129.85 68,-117.54"/>
<polygon fill="none" stroke="#63b8ff" points="68,-117.24 64,-111.24 68,-105.24 72,-111.24 68,-117.24"/>
</a>
</g>
<text text-anchor="middle" x="126" y="-126" font-family="Helvetica,sans-Serif" font-size="10.00" fill="grey"> +DELAY_AFTER_WRITE</text>
</g>
</g>
</svg>
