<?xml version="1.0" encoding="UTF-8" standalone="no"?>
<!DOCTYPE svg PUBLIC "-//W3C//DTD SVG 1.1//EN"
 "http://www.w3.org/Graphics/SVG/1.1/DTD/svg11.dtd">
<!-- Generated by graphviz version 2.43.0 (0)
 -->
<!-- Title: 检测与识别模块（功能模块） Pages: 1 -->
<svg width="324pt" height="138pt"
 viewBox="0.00 0.00 324.00 138.00" xmlns="http://www.w3.org/2000/svg" xmlns:xlink="http://www.w3.org/1999/xlink">

<svg id="main" version="1.1" xmlns="http://www.w3.org/2000/svg" xmlns:xlink="http://www.w3.org/1999/xlink" xml:space="preserve">

<style type="text/css"><![CDATA[
.node, .edge {opacity: 0.7;}
.node.selected, .edge.selected {opacity: 1;}
.edge:hover path { stroke: red; }
.edge:hover polygon { stroke: red; fill: red; }
]]></style>
<script type="application/ecmascript" xlink:href="../../svg.min.js"/>
<svg id="graph" class="graph">
<g id="graph0" class="graph" transform="scale(1 1) rotate(0) translate(4 134)">
<title>检测与识别模块（功能模块）</title>
<!-- Node2 -->
<g id="Node000002" class="node">
<title>Node2</title>
<g id="a_Node000002"><a xlink:href="../../d4/d47/group__armor__detector.html" target="_top" xlink:title=" ">
<polygon fill="white" stroke="#666666" points="290,-130 205,-130 205,-111 290,-111 290,-130"/>
<text text-anchor="middle" x="247.5" y="-118" font-family="Helvetica,sans-Serif" font-size="10.00">装甲板识别模块</text>
</a>
</g>
</g>
<!-- Node1 -->
<g id="Node000001" class="node">
<title>Node1</title>
<g id="a_Node000001"><a xlink:title=" ">
<polygon fill="#999999" stroke="#666666" points="143,-74 0,-74 0,-55 143,-55 143,-74"/>
<text text-anchor="middle" x="71.5" y="-62" font-family="Helvetica,sans-Serif" font-size="10.00">检测与识别模块（功能模块）</text>
</a>
</g>
</g>
<!-- Node1&#45;&gt;Node2 -->
<g id="edge1" class="edge">
<title>Node1&#45;&gt;Node2</title>
<path fill="none" stroke="black" d="M107.32,-77.74C128,-85.4 154.84,-94.98 179,-102.5 188.5,-105.45 198.83,-108.36 208.5,-110.95"/>
<polygon fill="black" stroke="black" points="108.29,-74.36 97.69,-74.15 105.84,-80.92 108.29,-74.36"/>
</g>
<!-- Node3 -->
<g id="Node000003" class="node">
<title>Node3</title>
<g id="a_Node000003"><a xlink:href="../../de/dee/group__gyro__detector.html" target="_top" xlink:title=" ">
<polygon fill="white" stroke="#666666" points="295,-93 200,-93 200,-74 295,-74 295,-93"/>
<text text-anchor="middle" x="247.5" y="-81" font-family="Helvetica,sans-Serif" font-size="10.00">整车状态识别模块</text>
</a>
</g>
</g>
<!-- Node1&#45;&gt;Node3 -->
<g id="edge2" class="edge">
<title>Node1&#45;&gt;Node3</title>
<path fill="none" stroke="black" d="M153.41,-73.34C169.32,-75.07 185.51,-76.84 199.82,-78.4"/>
<polygon fill="black" stroke="black" points="153.34,-69.81 143.02,-72.2 152.58,-76.77 153.34,-69.81"/>
</g>
<!-- Node4 -->
<g id="Node000004" class="node">
<title>Node4</title>
<g id="a_Node000004"><a xlink:href="../../d0/d52/group__rune__detector.html" target="_top" xlink:title=" ">
<polygon fill="white" stroke="#666666" points="314.5,-56 180.5,-56 180.5,-37 314.5,-37 314.5,-56"/>
<text text-anchor="middle" x="247.5" y="-44" font-family="Helvetica,sans-Serif" font-size="10.00">激活、未激活神符识别模块</text>
</a>
</g>
</g>
<!-- Node1&#45;&gt;Node4 -->
<g id="edge3" class="edge">
<title>Node1&#45;&gt;Node4</title>
<path fill="none" stroke="black" d="M153.23,-56.15C162.32,-55.21 171.5,-54.26 180.38,-53.34"/>
<polygon fill="black" stroke="black" points="152.61,-52.69 143.02,-57.2 153.33,-59.66 152.61,-52.69"/>
</g>
<!-- Node5 -->
<g id="Node000005" class="node">
<title>Node5</title>
<g id="a_Node000005"><a xlink:href="../../d6/d8c/group__tag__detector.html" target="_top" xlink:title=" ">
<polygon fill="white" stroke="#666666" points="316,-19 179,-19 179,0 316,0 316,-19"/>
<text text-anchor="middle" x="247.5" y="-7" font-family="Helvetica,sans-Serif" font-size="10.00">AprilTag(Tag25h9) 识别模块</text>
</a>
</g>
</g>
<!-- Node1&#45;&gt;Node5 -->
<g id="edge4" class="edge">
<title>Node1&#45;&gt;Node5</title>
<path fill="none" stroke="black" d="M109.08,-51.61C129.56,-44.53 155.61,-35.74 179,-28.5 189.47,-25.26 200.92,-21.95 211.37,-19.02"/>
<polygon fill="black" stroke="black" points="107.81,-48.35 99.51,-54.94 110.11,-54.96 107.81,-48.35"/>
</g>
</g>
</svg>
</svg>

<style type='text/css'>
<![CDATA[
[data-mouse-over-selected='false'] { opacity: 0.7; }
[data-mouse-over-selected='true']  { opacity: 1.0; }
]]>
</style>
<script type="application/ecmascript"><![CDATA[
document.addEventListener('DOMContentLoaded', (event) => {
  highlightEdges();
  highlightAdjacentNodes();
});
]]></script>
</svg>
