<?xml version="1.0" encoding="UTF-8" standalone="no"?>
<!DOCTYPE svg PUBLIC "-//W3C//DTD SVG 1.1//EN"
 "http://www.w3.org/Graphics/SVG/1.1/DTD/svg11.dtd">
<!-- Generated by graphviz version 2.43.0 (0)
 -->
<!-- Title: rm::DefaultFeature Pages: 1 -->
<!--zoomable 663 -->

<svg id="main" version="1.1" xmlns="http://www.w3.org/2000/svg" xmlns:xlink="http://www.w3.org/1999/xlink" xml:space="preserve" onload="init(evt)">

<style type="text/css"><![CDATA[
.node, .edge {opacity: 0.7;}
.node.selected, .edge.selected {opacity: 1;}
.edge:hover path { stroke: red; }
.edge:hover polygon { stroke: red; fill: red; }
]]></style>

<defs>
  <circle id="rim" cx="0" cy="0" r="7"/>
  <circle id="rim2" cx="0" cy="0" r="3.5"/>
  <g id="zoomPlus">
    <use xlink:href="#rim" fill="#404040"><set attributeName="fill" to="#808080" begin="zoomplus.mouseover" end="zoomplus.mouseout"/></use>
    <path d="M-4,0h8M0,-4v8" fill="none" stroke="white" stroke-width="1.5" pointer-events="none"/>
  </g>
  <g id="zoomMin">
    <use xlink:href="#rim" fill="#404040"><set attributeName="fill" to="#808080" begin="zoomminus.mouseover" end="zoomminus.mouseout"/></use>
    <path d="M-4,0h8" fill="none" stroke="white" stroke-width="1.5" pointer-events="none"/>
  </g>
  <g id="arrowUp" transform="translate(30 24)">
    <use xlink:href="#rim"/>
    <path pointer-events="none" fill="none" stroke="white" stroke-width="1.5" d="M0,-3.0v7 M-2.5,-0.5L0,-3.0L2.5,-0.5"/>
  </g>
  <g id="arrowRight" transform="rotate(90) translate(36 -43)">
    <use xlink:href="#rim"/>
    <path pointer-events="none" fill="none" stroke="white" stroke-width="1.5" d="M0,-3.0v7 M-2.5,-0.5L0,-3.0L2.5,-0.5"/>
  </g>
  <g id="arrowDown" transform="rotate(180) translate(-30 -48)">
    <use xlink:href="#rim"/>
    <path pointer-events="none" fill="none" stroke="white" stroke-width="1.5" d="M0,-3.0v7 M-2.5,-0.5L0,-3.0L2.5,-0.5"/>
  </g>
  <g id="arrowLeft" transform="rotate(270) translate(-36 17)">
    <use xlink:href="#rim"/>
    <path pointer-events="none" fill="none" stroke="white" stroke-width="1.5" d="M0,-3.0v7 M-2.5,-0.5L0,-3.0L2.5,-0.5"/>
  </g>
  <g id="resetDef">
    <use xlink:href="#rim2" fill="#404040"><set attributeName="fill" to="#808080" begin="reset.mouseover" end="reset.mouseout"/></use>
  </g>
</defs>
<script type="application/ecmascript">
var viewWidth = 780;
var viewHeight = 663;
var sectionId = 'dynsection-1';
</script>
<script type="application/ecmascript" xlink:href="../../svg.min.js"/>
<svg id="graph" class="graph">
<g id="viewport">
<title>rm::DefaultFeature</title>
<!-- Node1 -->
<g id="Node000001" class="node">
<title>Node1</title>
<g id="a_Node000001"><a xlink:title="默认图像特征，仅表示一个孤立的点 cv::Point2f">
<polygon fill="#999999" stroke="transparent" points="168.5,-124 65.5,-124 65.5,0 168.5,0 168.5,-124"/>
<text text-anchor="start" x="71" y="-112" font-family="Helvetica,sans-Serif" font-size="10.00">rm::DefaultFeature</text>
<text text-anchor="start" x="115.5" y="-97" font-family="Helvetica,sans-Serif" font-size="10.00"> </text>
<text text-anchor="start" x="70" y="-82" font-family="Helvetica,sans-Serif" font-size="10.00">+</text>
<text text-anchor="start" x="83" y="-82" font-family="Helvetica,sans-Serif" font-size="10.00">DefaultFeature()</text>
<text text-anchor="start" x="70" y="-67" font-family="Helvetica,sans-Serif" font-size="10.00">+</text>
<text text-anchor="start" x="83" y="-67" font-family="Helvetica,sans-Serif" font-size="10.00">DefaultFeature()</text>
<text text-anchor="start" x="70" y="-52" font-family="Helvetica,sans-Serif" font-size="10.00">+</text>
<text text-anchor="start" x="83" y="-52" font-family="Helvetica,sans-Serif" font-size="10.00">clone()</text>
<text text-anchor="start" x="70" y="-37" font-family="Helvetica,sans-Serif" font-size="10.00">+</text>
<text text-anchor="start" x="83" y="-37" font-family="Helvetica,sans-Serif" font-size="10.00">make_feature()</text>
<text text-anchor="start" x="70" y="-22" font-family="Helvetica,sans-Serif" font-size="10.00">+</text>
<text text-anchor="start" x="83" y="-22" font-family="Helvetica,sans-Serif" font-size="10.00">cast()</text>
<text text-anchor="start" x="70" y="-7" font-family="Helvetica,sans-Serif" font-size="10.00">+</text>
<text text-anchor="start" x="83" y="-7" font-family="Helvetica,sans-Serif" font-size="10.00">cast()</text>
<polygon fill="#666666" stroke="#666666" points="66,-107 66,-107 169,-107 169,-107 66,-107"/>
<polygon fill="#666666" stroke="#666666" points="66,-92 66,-92 169,-92 169,-92 66,-92"/>
<polygon fill="none" stroke="#666666" points="65.5,0 65.5,-124 168.5,-124 168.5,0 65.5,0"/>
</a>
</g>
</g>
<!-- Node2 -->
<g id="Node000002" class="node">
<title>Node2</title>
<g id="a_Node000002"><a xlink:href="../../df/db7/classrm_1_1feature.html" target="_top" xlink:title="图像中的轮廓特征">
<polygon fill="white" stroke="transparent" points="149.5,-315 84.5,-315 84.5,-161 149.5,-161 149.5,-315"/>
<text text-anchor="start" x="90" y="-303" font-family="Helvetica,sans-Serif" font-size="10.00">rm::feature</text>
<text text-anchor="start" x="115.5" y="-288" font-family="Helvetica,sans-Serif" font-size="10.00"> </text>
<text text-anchor="start" x="89" y="-273" font-family="Helvetica,sans-Serif" font-size="10.00">+</text>
<text text-anchor="start" x="102" y="-273" font-family="Helvetica,sans-Serif" font-size="10.00">clone()</text>
<text text-anchor="start" x="89" y="-258" font-family="Helvetica,sans-Serif" font-size="10.00">+</text>
<text text-anchor="start" x="102" y="-258" font-family="Helvetica,sans-Serif" font-size="10.00">area()</text>
<text text-anchor="start" x="89" y="-243" font-family="Helvetica,sans-Serif" font-size="10.00">+</text>
<text text-anchor="start" x="102" y="-243" font-family="Helvetica,sans-Serif" font-size="10.00">center()</text>
<text text-anchor="start" x="89" y="-228" font-family="Helvetica,sans-Serif" font-size="10.00">+</text>
<text text-anchor="start" x="102" y="-228" font-family="Helvetica,sans-Serif" font-size="10.00">width()</text>
<text text-anchor="start" x="89" y="-213" font-family="Helvetica,sans-Serif" font-size="10.00">+</text>
<text text-anchor="start" x="102" y="-213" font-family="Helvetica,sans-Serif" font-size="10.00">height()</text>
<text text-anchor="start" x="89" y="-198" font-family="Helvetica,sans-Serif" font-size="10.00">+</text>
<text text-anchor="start" x="102" y="-198" font-family="Helvetica,sans-Serif" font-size="10.00">angle()</text>
<text text-anchor="start" x="89" y="-183" font-family="Helvetica,sans-Serif" font-size="10.00">+</text>
<text text-anchor="start" x="102" y="-183" font-family="Helvetica,sans-Serif" font-size="10.00">corners()</text>
<text text-anchor="start" x="89" y="-168" font-family="Helvetica,sans-Serif" font-size="10.00">+</text>
<text text-anchor="start" x="102" y="-168" font-family="Helvetica,sans-Serif" font-size="10.00">type()</text>
<polygon fill="#666666" stroke="#666666" points="85,-298 85,-298 150,-298 150,-298 85,-298"/>
<polygon fill="#666666" stroke="#666666" points="85,-283 85,-283 150,-283 150,-283 85,-283"/>
<polygon fill="none" stroke="#666666" points="84.5,-161 84.5,-315 149.5,-315 149.5,-161 84.5,-161"/>
</a>
</g>
</g>
<!-- Node2&#45;&gt;Node1 -->
<g id="edge1_Node000001_Node000002" class="edge">
<title>Node2&#45;&gt;Node1</title>
<g id="a_edge1_Node000001_Node000002"><a xlink:title=" ">
<path fill="none" stroke="#63b8ff" d="M117,-150.76C117,-141.73 117,-132.68 117,-124.02"/>
<polygon fill="none" stroke="#63b8ff" points="113.5,-150.93 117,-160.93 120.5,-150.93 113.5,-150.93"/>
</a>
</g>
</g>
<!-- Node3 -->
<g id="Node000003" class="node">
<title>Node3</title>
<g id="a_Node000003"><a xlink:title=" ">
<polygon fill="white" stroke="transparent" points="32,-448 0,-448 0,-399 32,-399 32,-448"/>
<text text-anchor="start" x="5" y="-435.5" font-family="Helvetica,sans-Serif" font-size="10.00">float</text>
<text text-anchor="start" x="14" y="-420.5" font-family="Helvetica,sans-Serif" font-size="10.00"> </text>
<text text-anchor="start" x="14" y="-405.5" font-family="Helvetica,sans-Serif" font-size="10.00"> </text>
<polygon fill="#666666" stroke="#666666" points="0,-430.5 0,-430.5 32,-430.5 32,-430.5 0,-430.5"/>
<polygon fill="#666666" stroke="#666666" points="0,-415.5 0,-415.5 32,-415.5 32,-415.5 0,-415.5"/>
<polygon fill="none" stroke="#666666" points="0,-399 0,-448 32,-448 32,-399 0,-399"/>
</a>
</g>
</g>
<!-- Node3&#45;&gt;Node2 -->
<g id="edge2_Node000002_Node000003" class="edge">
<title>Node3&#45;&gt;Node2</title>
<g id="a_edge2_Node000002_Node000003"><a xlink:title=" ">
<path fill="none" stroke="#63b8ff" d="M11.34,-398.63C8.84,-379.96 7.88,-353.77 17,-333 28.91,-305.88 52.83,-282.93 74.29,-266.5"/>
<polygon fill="none" stroke="#63b8ff" points="74.57,-266.3 77.04,-259.52 84.25,-259.19 81.78,-265.97 74.57,-266.3"/>
</a>
</g>
<text text-anchor="middle" x="39.5" y="-358" font-family="Helvetica,sans-Serif" font-size="10.00" fill="grey"> #_angle</text>
<text text-anchor="middle" x="39.5" y="-347" font-family="Helvetica,sans-Serif" font-size="10.00" fill="grey">#_height</text>
<text text-anchor="middle" x="39.5" y="-336" font-family="Helvetica,sans-Serif" font-size="10.00" fill="grey">#_width</text>
</g>
<!-- Node4 -->
<g id="Node000004" class="node">
<title>Node4</title>
<g id="a_Node000004"><a xlink:title=" ">
<polygon fill="white" stroke="transparent" points="118.5,-559 73.5,-559 73.5,-510 118.5,-510 118.5,-559"/>
<text text-anchor="start" x="79" y="-546.5" font-family="Helvetica,sans-Serif" font-size="10.00">Point2f</text>
<text text-anchor="start" x="94.5" y="-531.5" font-family="Helvetica,sans-Serif" font-size="10.00"> </text>
<text text-anchor="start" x="94.5" y="-516.5" font-family="Helvetica,sans-Serif" font-size="10.00"> </text>
<polygon fill="#666666" stroke="#666666" points="74,-541.5 74,-541.5 119,-541.5 119,-541.5 74,-541.5"/>
<polygon fill="#666666" stroke="#666666" points="74,-526.5 74,-526.5 119,-526.5 119,-526.5 74,-526.5"/>
<polygon fill="none" stroke="#666666" points="73.5,-510 73.5,-559 118.5,-559 118.5,-510 73.5,-510"/>
</a>
</g>
</g>
<!-- Node4&#45;&gt;Node2 -->
<g id="edge3_Node000002_Node000004" class="edge">
<title>Node4&#45;&gt;Node2</title>
<g id="a_edge3_Node000002_Node000004"><a xlink:title=" ">
<path fill="none" stroke="#63b8ff" d="M91.36,-509.79C88.93,-496.16 86.22,-478.69 85,-463 82.29,-427.99 81.19,-418.9 85,-384 87.03,-365.41 90.47,-345.72 94.37,-327.04"/>
<polygon fill="none" stroke="#63b8ff" points="94.39,-326.97 91.74,-320.26 96.92,-315.24 99.56,-321.95 94.39,-326.97"/>
</a>
</g>
<text text-anchor="middle" x="109" y="-421" font-family="Helvetica,sans-Serif" font-size="10.00" fill="grey"> #_center</text>
</g>
<!-- Node5 -->
<g id="Node000005" class="node">
<title>Node5</title>
<g id="a_Node000005"><a xlink:title=" ">
<polygon fill="white" stroke="transparent" points="278,-448 142,-448 142,-399 278,-399 278,-448"/>
<text text-anchor="start" x="147" y="-435.5" font-family="Helvetica,sans-Serif" font-size="10.00">std::vector&lt; cv::Point2f &gt;</text>
<text text-anchor="start" x="208" y="-420.5" font-family="Helvetica,sans-Serif" font-size="10.00"> </text>
<text text-anchor="start" x="208" y="-405.5" font-family="Helvetica,sans-Serif" font-size="10.00"> </text>
<polygon fill="#666666" stroke="#666666" points="142,-430.5 142,-430.5 278,-430.5 278,-430.5 142,-430.5"/>
<polygon fill="#666666" stroke="#666666" points="142,-415.5 142,-415.5 278,-415.5 278,-415.5 142,-415.5"/>
<polygon fill="none" stroke="#666666" points="142,-399 142,-448 278,-448 278,-399 142,-399"/>
</a>
</g>
</g>
<!-- Node4&#45;&gt;Node5 -->
<g id="edge5_Node000005_Node000004" class="edge">
<title>Node4&#45;&gt;Node5</title>
<g id="a_edge5_Node000005_Node000004"><a xlink:title=" ">
<path fill="none" stroke="#63b8ff" d="M116.44,-509.93C124.75,-500.67 134.59,-490.1 144,-481 152.61,-472.67 162.23,-464.07 171.4,-456.17"/>
<polygon fill="none" stroke="#63b8ff" points="171.59,-456 173.58,-449.07 180.74,-448.23 178.76,-455.17 171.59,-456"/>
</a>
</g>
<text text-anchor="middle" x="173" y="-484" font-family="Helvetica,sans-Serif" font-size="10.00" fill="grey"> +elements</text>
</g>
<!-- Node5&#45;&gt;Node2 -->
<g id="edge4_Node000002_Node000005" class="edge">
<title>Node5&#45;&gt;Node2</title>
<g id="a_edge4_Node000002_Node000005"><a xlink:title=" ">
<path fill="none" stroke="#63b8ff" d="M198.03,-398.89C187.15,-377.42 170.5,-344.55 155.11,-314.19"/>
<polygon fill="none" stroke="#63b8ff" points="154.93,-313.85 148.65,-310.3 149.51,-303.14 155.79,-306.69 154.93,-313.85"/>
</a>
</g>
<text text-anchor="middle" x="206.5" y="-347" font-family="Helvetica,sans-Serif" font-size="10.00" fill="grey"> #_corners</text>
</g>
<!-- Node6 -->
<g id="Node000006" class="node">
<title>Node6</title>
<g id="a_Node000006"><a xlink:title=" ">
<polygon fill="white" stroke="transparent" points="247.5,-559 156.5,-559 156.5,-510 247.5,-510 247.5,-559"/>
<text text-anchor="start" x="162" y="-546.5" font-family="Helvetica,sans-Serif" font-size="10.00">std::vector&lt; T &gt;</text>
<text text-anchor="start" x="200.5" y="-531.5" font-family="Helvetica,sans-Serif" font-size="10.00"> </text>
<text text-anchor="start" x="200.5" y="-516.5" font-family="Helvetica,sans-Serif" font-size="10.00"> </text>
<polygon fill="#666666" stroke="#666666" points="157,-541.5 157,-541.5 248,-541.5 248,-541.5 157,-541.5"/>
<polygon fill="#666666" stroke="#666666" points="157,-526.5 157,-526.5 248,-526.5 248,-526.5 157,-526.5"/>
<polygon fill="none" stroke="#666666" points="156.5,-510 156.5,-559 247.5,-559 247.5,-510 156.5,-510"/>
</a>
</g>
</g>
<!-- Node6&#45;&gt;Node5 -->
<g id="edge6_Node000005_Node000006" class="edge">
<title>Node6&#45;&gt;Node5</title>
<g id="a_edge6_Node000005_Node000006"><a xlink:title=" ">
<path fill="none" stroke="orange" d="M204.5,-499.4C205.73,-482.74 207.17,-463.09 208.27,-448.11"/>
<polygon fill="orange" stroke="orange" points="200.98,-499.62 203.74,-509.85 207.96,-500.13 200.98,-499.62"/>
</a>
</g>
<text text-anchor="middle" x="244.5" y="-484" font-family="Helvetica,sans-Serif" font-size="10.00" fill="grey"> &lt; cv::Point2f &gt;</text>
</g>
<!-- Node7 -->
<g id="Node000007" class="node">
<title>Node7</title>
<g id="a_Node000007"><a xlink:title=" ">
<polygon fill="white" stroke="transparent" points="210.5,-655 193.5,-655 193.5,-606 210.5,-606 210.5,-655"/>
<text text-anchor="start" x="199" y="-642.5" font-family="Helvetica,sans-Serif" font-size="10.00">T</text>
<text text-anchor="start" x="200.5" y="-627.5" font-family="Helvetica,sans-Serif" font-size="10.00"> </text>
<text text-anchor="start" x="200.5" y="-612.5" font-family="Helvetica,sans-Serif" font-size="10.00"> </text>
<polygon fill="#666666" stroke="#666666" points="194,-637.5 194,-637.5 211,-637.5 211,-637.5 194,-637.5"/>
<polygon fill="#666666" stroke="#666666" points="194,-622.5 194,-622.5 211,-622.5 211,-622.5 194,-622.5"/>
<polygon fill="none" stroke="#666666" points="193.5,-606 193.5,-655 210.5,-655 210.5,-606 193.5,-606"/>
</a>
</g>
</g>
<!-- Node7&#45;&gt;Node6 -->
<g id="edge7_Node000006_Node000007" class="edge">
<title>Node7&#45;&gt;Node6</title>
<g id="a_edge7_Node000006_Node000007"><a xlink:title=" ">
<path fill="none" stroke="#63b8ff" d="M202,-605.78C202,-595.32 202,-582.79 202,-571.23"/>
<polygon fill="none" stroke="#63b8ff" points="202,-571.21 198,-565.21 202,-559.21 206,-565.21 202,-571.21"/>
</a>
</g>
<text text-anchor="middle" x="231" y="-580" font-family="Helvetica,sans-Serif" font-size="10.00" fill="grey"> +elements</text>
</g>
<!-- Node8 -->
<g id="Node000008" class="node">
<title>Node8</title>
<g id="a_Node000008"><a xlink:href="../../d0/d01/structrm_1_1RMStatus.html" target="_top" xlink:title="状态类型">
<polygon fill="white" stroke="transparent" points="514.5,-463 427.5,-463 427.5,-384 514.5,-384 514.5,-463"/>
<text text-anchor="start" x="438" y="-450.5" font-family="Helvetica,sans-Serif" font-size="10.00">rm::RMStatus</text>
<text text-anchor="start" x="469.5" y="-435.5" font-family="Helvetica,sans-Serif" font-size="10.00"> </text>
<text text-anchor="start" x="432" y="-420.5" font-family="Helvetica,sans-Serif" font-size="10.00">+</text>
<text text-anchor="start" x="445" y="-420.5" font-family="Helvetica,sans-Serif" font-size="10.00">operator==()</text>
<text text-anchor="start" x="432" y="-405.5" font-family="Helvetica,sans-Serif" font-size="10.00">+</text>
<text text-anchor="start" x="445" y="-405.5" font-family="Helvetica,sans-Serif" font-size="10.00">to_string()</text>
<text text-anchor="start" x="432" y="-390.5" font-family="Helvetica,sans-Serif" font-size="10.00">+</text>
<text text-anchor="start" x="445" y="-390.5" font-family="Helvetica,sans-Serif" font-size="10.00">to_string()</text>
<polygon fill="#666666" stroke="#666666" points="428,-445.5 428,-445.5 515,-445.5 515,-445.5 428,-445.5"/>
<polygon fill="#666666" stroke="#666666" points="428,-430.5 428,-430.5 515,-430.5 515,-430.5 428,-430.5"/>
<polygon fill="none" stroke="#666666" points="427.5,-384 427.5,-463 514.5,-463 514.5,-384 427.5,-384"/>
</a>
</g>
</g>
<!-- Node8&#45;&gt;Node2 -->
<g id="edge8_Node000002_Node000008" class="edge">
<title>Node8&#45;&gt;Node2</title>
<g id="a_edge8_Node000002_Node000008"><a xlink:title=" ">
<path fill="none" stroke="#63b8ff" d="M427.24,-399.82C359.07,-364.48 228.33,-296.71 160.39,-261.49"/>
<polygon fill="none" stroke="#63b8ff" points="160.31,-261.45 153.14,-262.24 149.65,-255.93 156.82,-255.14 160.31,-261.45"/>
</a>
</g>
<text text-anchor="middle" x="376.5" y="-347" font-family="Helvetica,sans-Serif" font-size="10.00" fill="grey"> #_type</text>
</g>
<!-- Node9 -->
<g id="Node000009" class="node">
<title>Node9</title>
<g id="a_Node000009"><a xlink:title=" ">
<polygon fill="white" stroke="transparent" points="348.5,-559 265.5,-559 265.5,-510 348.5,-510 348.5,-559"/>
<text text-anchor="start" x="271" y="-546.5" font-family="Helvetica,sans-Serif" font-size="10.00">ArmorSizeType</text>
<text text-anchor="start" x="305.5" y="-531.5" font-family="Helvetica,sans-Serif" font-size="10.00"> </text>
<text text-anchor="start" x="305.5" y="-516.5" font-family="Helvetica,sans-Serif" font-size="10.00"> </text>
<polygon fill="#666666" stroke="#666666" points="266,-541.5 266,-541.5 349,-541.5 349,-541.5 266,-541.5"/>
<polygon fill="#666666" stroke="#666666" points="266,-526.5 266,-526.5 349,-526.5 349,-526.5 266,-526.5"/>
<polygon fill="none" stroke="#666666" points="265.5,-510 265.5,-559 348.5,-559 348.5,-510 265.5,-510"/>
</a>
</g>
</g>
<!-- Node9&#45;&gt;Node8 -->
<g id="edge9_Node000008_Node000009" class="edge">
<title>Node9&#45;&gt;Node8</title>
<g id="a_edge9_Node000008_Node000009"><a xlink:title=" ">
<path fill="none" stroke="#63b8ff" d="M310.58,-509.74C313.14,-499.8 317.52,-488.78 325,-481 348.95,-456.1 385.12,-441.99 415.46,-434.11"/>
<polygon fill="none" stroke="#63b8ff" points="415.53,-434.09 420.43,-428.8 427.2,-431.28 422.3,-436.58 415.53,-434.09"/>
</a>
</g>
<text text-anchor="middle" x="372.5" y="-484" font-family="Helvetica,sans-Serif" font-size="10.00" fill="grey"> +ArmorSizeTypeID</text>
</g>
<!-- Node10 -->
<g id="Node000010" class="node">
<title>Node10</title>
<g id="a_Node000010"><a xlink:title=" ">
<polygon fill="white" stroke="transparent" points="453,-559 395,-559 395,-510 453,-510 453,-559"/>
<text text-anchor="start" x="400" y="-546.5" font-family="Helvetica,sans-Serif" font-size="10.00">RuneType</text>
<text text-anchor="start" x="422" y="-531.5" font-family="Helvetica,sans-Serif" font-size="10.00"> </text>
<text text-anchor="start" x="422" y="-516.5" font-family="Helvetica,sans-Serif" font-size="10.00"> </text>
<polygon fill="#666666" stroke="#666666" points="395,-541.5 395,-541.5 453,-541.5 453,-541.5 395,-541.5"/>
<polygon fill="#666666" stroke="#666666" points="395,-526.5 395,-526.5 453,-526.5 453,-526.5 395,-526.5"/>
<polygon fill="none" stroke="#666666" points="395,-510 395,-559 453,-559 453,-510 395,-510"/>
</a>
</g>
</g>
<!-- Node10&#45;&gt;Node8 -->
<g id="edge10_Node000008_Node000010" class="edge">
<title>Node10&#45;&gt;Node8</title>
<g id="a_edge10_Node000008_Node000010"><a xlink:title=" ">
<path fill="none" stroke="#63b8ff" d="M421.79,-509.89C421.72,-500.62 422.64,-490.06 426,-481 426.89,-478.61 427.92,-476.25 429.06,-473.92"/>
<polygon fill="none" stroke="#63b8ff" points="429.17,-473.72 428.68,-466.52 435.14,-463.31 435.63,-470.5 429.17,-473.72"/>
</a>
</g>
<text text-anchor="middle" x="461" y="-484" font-family="Helvetica,sans-Serif" font-size="10.00" fill="grey"> +RuneTypeID</text>
</g>
<!-- Node11 -->
<g id="Node000011" class="node">
<title>Node11</title>
<g id="a_Node000011"><a xlink:title=" ">
<polygon fill="white" stroke="transparent" points="566.5,-559 471.5,-559 471.5,-510 566.5,-510 566.5,-559"/>
<text text-anchor="start" x="477" y="-546.5" font-family="Helvetica,sans-Serif" font-size="10.00">CompensateType</text>
<text text-anchor="start" x="517.5" y="-531.5" font-family="Helvetica,sans-Serif" font-size="10.00"> </text>
<text text-anchor="start" x="517.5" y="-516.5" font-family="Helvetica,sans-Serif" font-size="10.00"> </text>
<polygon fill="#666666" stroke="#666666" points="472,-541.5 472,-541.5 567,-541.5 567,-541.5 472,-541.5"/>
<polygon fill="#666666" stroke="#666666" points="472,-526.5 472,-526.5 567,-526.5 567,-526.5 472,-526.5"/>
<polygon fill="none" stroke="#666666" points="471.5,-510 471.5,-559 566.5,-559 566.5,-510 471.5,-510"/>
</a>
</g>
</g>
<!-- Node11&#45;&gt;Node8 -->
<g id="edge11_Node000008_Node000011" class="edge">
<title>Node11&#45;&gt;Node8</title>
<g id="a_edge11_Node000008_Node000011"><a xlink:title=" ">
<path fill="none" stroke="#63b8ff" d="M508.71,-509.97C504.75,-500.91 500.17,-490.47 496,-481 495,-478.74 493.98,-476.42 492.95,-474.09"/>
<polygon fill="none" stroke="#63b8ff" points="492.95,-474.07 486.86,-470.19 488.1,-463.09 494.18,-466.96 492.95,-474.07"/>
</a>
</g>
<text text-anchor="middle" x="553" y="-484" font-family="Helvetica,sans-Serif" font-size="10.00" fill="grey"> +CompensateTypeID</text>
</g>
<!-- Node12 -->
<g id="Node000012" class="node">
<title>Node12</title>
<g id="a_Node000012"><a xlink:title=" ">
<polygon fill="white" stroke="transparent" points="678,-559 616,-559 616,-510 678,-510 678,-559"/>
<text text-anchor="start" x="621" y="-546.5" font-family="Helvetica,sans-Serif" font-size="10.00">RobotType</text>
<text text-anchor="start" x="645" y="-531.5" font-family="Helvetica,sans-Serif" font-size="10.00"> </text>
<text text-anchor="start" x="645" y="-516.5" font-family="Helvetica,sans-Serif" font-size="10.00"> </text>
<polygon fill="#666666" stroke="#666666" points="616,-541.5 616,-541.5 678,-541.5 678,-541.5 616,-541.5"/>
<polygon fill="#666666" stroke="#666666" points="616,-526.5 616,-526.5 678,-526.5 678,-526.5 616,-526.5"/>
<polygon fill="none" stroke="#666666" points="616,-510 616,-559 678,-559 678,-510 616,-510"/>
</a>
</g>
</g>
<!-- Node12&#45;&gt;Node8 -->
<g id="edge12_Node000008_Node000012" class="edge">
<title>Node12&#45;&gt;Node8</title>
<g id="a_edge12_Node000008_Node000012"><a xlink:title=" ">
<path fill="none" stroke="#63b8ff" d="M634.5,-509.99C628.23,-499.99 619.86,-488.84 610,-481 585.57,-461.59 553.58,-447.97 526.44,-438.98"/>
<polygon fill="none" stroke="#63b8ff" points="526.19,-438.9 519.27,-440.91 514.75,-435.29 521.68,-433.28 526.19,-438.9"/>
</a>
</g>
<text text-anchor="middle" x="657.5" y="-484" font-family="Helvetica,sans-Serif" font-size="10.00" fill="grey"> +RobotTypeID</text>
</g>
<!-- Node13 -->
<g id="Node000013" class="node">
<title>Node13</title>
<g id="a_Node000013"><a xlink:title=" ">
<polygon fill="white" stroke="transparent" points="768,-559 718,-559 718,-510 768,-510 768,-559"/>
<text text-anchor="start" x="723" y="-546.5" font-family="Helvetica,sans-Serif" font-size="10.00">TagType</text>
<text text-anchor="start" x="741" y="-531.5" font-family="Helvetica,sans-Serif" font-size="10.00"> </text>
<text text-anchor="start" x="741" y="-516.5" font-family="Helvetica,sans-Serif" font-size="10.00"> </text>
<polygon fill="#666666" stroke="#666666" points="718,-541.5 718,-541.5 768,-541.5 768,-541.5 718,-541.5"/>
<polygon fill="#666666" stroke="#666666" points="718,-526.5 718,-526.5 768,-526.5 768,-526.5 718,-526.5"/>
<polygon fill="none" stroke="#666666" points="718,-510 718,-559 768,-559 768,-510 718,-510"/>
</a>
</g>
</g>
<!-- Node13&#45;&gt;Node8 -->
<g id="edge13_Node000008_Node000013" class="edge">
<title>Node13&#45;&gt;Node8</title>
<g id="a_edge13_Node000008_Node000013"><a xlink:title=" ">
<path fill="none" stroke="#63b8ff" d="M727.77,-509.86C720.02,-499.58 709.75,-488.25 698,-481 645.39,-448.52 575.07,-434.69 526.71,-428.81"/>
<polygon fill="none" stroke="#63b8ff" points="526.53,-428.79 520.12,-432.1 514.61,-427.45 521.02,-424.15 526.53,-428.79"/>
</a>
</g>
<text text-anchor="middle" x="741.5" y="-484" font-family="Helvetica,sans-Serif" font-size="10.00" fill="grey"> +TagTypeID</text>
</g>
</g>
</svg>

<g id="navigator" transform="translate(0 0)" fill="#404254">
  <rect fill="#f2f5e9" fill-opacity="0.5" stroke="#606060" stroke-width=".5" x="0" y="0" width="60" height="60"/>
  <use id="zoomplus" xlink:href="#zoomPlus" x="17" y="9" onmousedown="handleZoom(evt,'in')"/>
  <use id="zoomminus" xlink:href="#zoomMin" x="42" y="9" onmousedown="handleZoom(evt,'out')"/>
  <use id="reset" xlink:href="#resetDef" x="30" y="36" onmousedown="handleReset()"/>
   <use id="arrowup" xlink:href="#arrowUp" x="0" y="0" onmousedown="handlePan(0,-1)"/>
  <use id="arrowright" xlink:href="#arrowRight" x="0" y="0" onmousedown="handlePan(1,0)"/>
  <use id="arrowdown" xlink:href="#arrowDown" x="0" y="0" onmousedown="handlePan(0,1)"/>
  <use id="arrowleft" xlink:href="#arrowLeft" x="0" y="0" onmousedown="handlePan(-1,0)"/>
</g>
<svg viewBox="0 0 15 15" width="100%" height="30px" preserveAspectRatio="xMaxYMin meet">
 <g id="arrow_out" transform="scale(0.3 0.3)">
  <a xlink:href="classrm_1_1DefaultFeature__coll__graph_org.svg" target="_base">
   <rect id="button" ry="5" rx="5" y="6" x="6" height="38" width="38"
        fill="#f2f5e9" fill-opacity="0.5" stroke="#606060" stroke-width="1.0"/>
   <path id="arrow"
     d="M 11.500037,31.436501 C 11.940474,20.09759 22.043105,11.32322 32.158766,21.979434 L 37.068811,17.246167 C 37.068811,17.246167 37.088388,32 37.088388,32 L 22.160133,31.978069 C 22.160133,31.978069 26.997745,27.140456 26.997745,27.140456 C 18.528582,18.264221 13.291696,25.230495 11.500037,31.436501 z"
     style="fill:#404040;"/>
  </a>
 </g>
</svg>

<style type='text/css'>
<![CDATA[
[data-mouse-over-selected='false'] { opacity: 0.7; }
[data-mouse-over-selected='true']  { opacity: 1.0; }
]]>
</style>
<script type="application/ecmascript"><![CDATA[
document.addEventListener('DOMContentLoaded', (event) => {
  highlightEdges();
  highlightAdjacentNodes();
});
]]></script>
</svg>
