<?xml version="1.0" encoding="UTF-8" standalone="no"?>
<!DOCTYPE svg PUBLIC "-//W3C//DTD SVG 1.1//EN"
 "http://www.w3.org/Graphics/SVG/1.1/DTD/svg11.dtd">
<!-- Generated by graphviz version 2.43.0 (0)
 -->
<!-- Title: rm::Rune Pages: 1 -->
<svg width="145pt" height="547pt"
 viewBox="0.00 0.00 145.00 547.00" xmlns="http://www.w3.org/2000/svg" xmlns:xlink="http://www.w3.org/1999/xlink">
<g id="graph0" class="graph" transform="scale(1 1) rotate(0) translate(4 543)">
<title>rm::Rune</title>
<!-- Node1 -->
<g id="Node000001" class="node">
<title>Node1</title>
<g id="a_Node000001"><a xlink:title="神符（能量机关）">
<polygon fill="#999999" stroke="transparent" points="137,-154 0,-154 0,0 137,0 137,-154"/>
<text text-anchor="start" x="48.5" y="-142" font-family="Helvetica,sans-Serif" font-size="10.00">rm::Rune</text>
<text text-anchor="start" x="67" y="-127" font-family="Helvetica,sans-Serif" font-size="10.00"> </text>
<text text-anchor="start" x="4.5" y="-112" font-family="Helvetica,sans-Serif" font-size="10.00">+</text>
<text text-anchor="start" x="15.5" y="-112" font-family="Helvetica,sans-Serif" font-size="10.00">clone()</text>
<text text-anchor="start" x="4.5" y="-97" font-family="Helvetica,sans-Serif" font-size="10.00">+</text>
<text text-anchor="start" x="15.5" y="-97" font-family="Helvetica,sans-Serif" font-size="10.00">getFeatureDis()</text>
<text text-anchor="start" x="4.5" y="-82" font-family="Helvetica,sans-Serif" font-size="10.00">+</text>
<text text-anchor="start" x="15.5" y="-82" font-family="Helvetica,sans-Serif" font-size="10.00">isActive()</text>
<text text-anchor="start" x="4.5" y="-67" font-family="Helvetica,sans-Serif" font-size="10.00">+</text>
<text text-anchor="start" x="15.5" y="-67" font-family="Helvetica,sans-Serif" font-size="10.00">make_combo()</text>
<text text-anchor="start" x="4.5" y="-52" font-family="Helvetica,sans-Serif" font-size="10.00">+</text>
<text text-anchor="start" x="15.5" y="-52" font-family="Helvetica,sans-Serif" font-size="10.00">cast()</text>
<text text-anchor="start" x="4.5" y="-37" font-family="Helvetica,sans-Serif" font-size="10.00">+</text>
<text text-anchor="start" x="15.5" y="-37" font-family="Helvetica,sans-Serif" font-size="10.00">cast()</text>
<text text-anchor="start" x="4.5" y="-22" font-family="Helvetica,sans-Serif" font-size="10.00">+</text>
<text text-anchor="start" x="15.5" y="-22" font-family="Helvetica,sans-Serif" font-size="10.00">cameraConvertToVertical()</text>
<text text-anchor="start" x="4.5" y="-7" font-family="Helvetica,sans-Serif" font-size="10.00">+</text>
<text text-anchor="start" x="15.5" y="-7" font-family="Helvetica,sans-Serif" font-size="10.00">verticalConvertToCamera()</text>
<polygon fill="#666666" stroke="#666666" points="0.5,-137 0.5,-137 137.5,-137 137.5,-137 0.5,-137"/>
<polygon fill="#666666" stroke="#666666" points="0.5,-122 0.5,-122 137.5,-122 137.5,-122 0.5,-122"/>
<polygon fill="none" stroke="#666666" points="0,0 0,-154 137,-154 137,0 0,0"/>
</a>
</g>
</g>
<!-- Node2 -->
<g id="Node000002" class="node">
<title>Node2</title>
<g id="a_Node000002"><a xlink:href="../../de/dee/classrm_1_1combo.html" target="_top" xlink:title="特征组合体">
<polygon fill="white" stroke="transparent" points="111,-539 26,-539 26,-190 111,-190 111,-539"/>
<text text-anchor="start" x="45.5" y="-526.5" font-family="Helvetica,sans-Serif" font-size="10.00">rm::combo</text>
<text text-anchor="start" x="31" y="-511.5" font-family="Helvetica,sans-Serif" font-size="10.00">#</text>
<text text-anchor="start" x="41.5" y="-511.5" font-family="Helvetica,sans-Serif" font-size="10.00">_features</text>
<text text-anchor="start" x="31" y="-496.5" font-family="Helvetica,sans-Serif" font-size="10.00">#</text>
<text text-anchor="start" x="41.5" y="-496.5" font-family="Helvetica,sans-Serif" font-size="10.00">_height</text>
<text text-anchor="start" x="31" y="-481.5" font-family="Helvetica,sans-Serif" font-size="10.00">#</text>
<text text-anchor="start" x="41.5" y="-481.5" font-family="Helvetica,sans-Serif" font-size="10.00">_width</text>
<text text-anchor="start" x="31" y="-466.5" font-family="Helvetica,sans-Serif" font-size="10.00">#</text>
<text text-anchor="start" x="41.5" y="-466.5" font-family="Helvetica,sans-Serif" font-size="10.00">_angle</text>
<text text-anchor="start" x="31" y="-451.5" font-family="Helvetica,sans-Serif" font-size="10.00">#</text>
<text text-anchor="start" x="41.5" y="-451.5" font-family="Helvetica,sans-Serif" font-size="10.00">_state</text>
<text text-anchor="start" x="31" y="-436.5" font-family="Helvetica,sans-Serif" font-size="10.00">#</text>
<text text-anchor="start" x="41.5" y="-436.5" font-family="Helvetica,sans-Serif" font-size="10.00">_center</text>
<text text-anchor="start" x="31" y="-421.5" font-family="Helvetica,sans-Serif" font-size="10.00">#</text>
<text text-anchor="start" x="41.5" y="-421.5" font-family="Helvetica,sans-Serif" font-size="10.00">_relative_angle</text>
<text text-anchor="start" x="31" y="-406.5" font-family="Helvetica,sans-Serif" font-size="10.00">#</text>
<text text-anchor="start" x="41.5" y="-406.5" font-family="Helvetica,sans-Serif" font-size="10.00">_imu_data</text>
<text text-anchor="start" x="31" y="-391.5" font-family="Helvetica,sans-Serif" font-size="10.00">#</text>
<text text-anchor="start" x="41.5" y="-391.5" font-family="Helvetica,sans-Serif" font-size="10.00">_corners</text>
<text text-anchor="start" x="31" y="-376.5" font-family="Helvetica,sans-Serif" font-size="10.00">#</text>
<text text-anchor="start" x="41.5" y="-376.5" font-family="Helvetica,sans-Serif" font-size="10.00">_extrinsic</text>
<text text-anchor="start" x="31" y="-361.5" font-family="Helvetica,sans-Serif" font-size="10.00">#</text>
<text text-anchor="start" x="41.5" y="-361.5" font-family="Helvetica,sans-Serif" font-size="10.00">_tick</text>
<text text-anchor="start" x="30.5" y="-346.5" font-family="Helvetica,sans-Serif" font-size="10.00">+</text>
<text text-anchor="start" x="41.5" y="-346.5" font-family="Helvetica,sans-Serif" font-size="10.00">clone()</text>
<text text-anchor="start" x="30.5" y="-331.5" font-family="Helvetica,sans-Serif" font-size="10.00">+</text>
<text text-anchor="start" x="41.5" y="-331.5" font-family="Helvetica,sans-Serif" font-size="10.00">height()</text>
<text text-anchor="start" x="30.5" y="-316.5" font-family="Helvetica,sans-Serif" font-size="10.00">+</text>
<text text-anchor="start" x="41.5" y="-316.5" font-family="Helvetica,sans-Serif" font-size="10.00">width()</text>
<text text-anchor="start" x="30.5" y="-301.5" font-family="Helvetica,sans-Serif" font-size="10.00">+</text>
<text text-anchor="start" x="41.5" y="-301.5" font-family="Helvetica,sans-Serif" font-size="10.00">angle()</text>
<text text-anchor="start" x="30.5" y="-286.5" font-family="Helvetica,sans-Serif" font-size="10.00">+</text>
<text text-anchor="start" x="41.5" y="-286.5" font-family="Helvetica,sans-Serif" font-size="10.00">center()</text>
<text text-anchor="start" x="30.5" y="-271.5" font-family="Helvetica,sans-Serif" font-size="10.00">+</text>
<text text-anchor="start" x="41.5" y="-271.5" font-family="Helvetica,sans-Serif" font-size="10.00">corners()</text>
<text text-anchor="start" x="30.5" y="-256.5" font-family="Helvetica,sans-Serif" font-size="10.00">+</text>
<text text-anchor="start" x="41.5" y="-256.5" font-family="Helvetica,sans-Serif" font-size="10.00">corner()</text>
<text text-anchor="start" x="30.5" y="-241.5" font-family="Helvetica,sans-Serif" font-size="10.00">+</text>
<text text-anchor="start" x="41.5" y="-241.5" font-family="Helvetica,sans-Serif" font-size="10.00">extrinsic()</text>
<text text-anchor="start" x="30.5" y="-226.5" font-family="Helvetica,sans-Serif" font-size="10.00">+</text>
<text text-anchor="start" x="41.5" y="-226.5" font-family="Helvetica,sans-Serif" font-size="10.00">state()</text>
<text text-anchor="start" x="30.5" y="-211.5" font-family="Helvetica,sans-Serif" font-size="10.00">+</text>
<text text-anchor="start" x="41.5" y="-211.5" font-family="Helvetica,sans-Serif" font-size="10.00">state()</text>
<text text-anchor="start" x="41.5" y="-196.5" font-family="Helvetica,sans-Serif" font-size="10.00">和 8 更多...</text>
<polygon fill="#666666" stroke="#666666" points="26.5,-521.5 26.5,-521.5 111.5,-521.5 111.5,-521.5 26.5,-521.5"/>
<polygon fill="#666666" stroke="#666666" points="26.5,-356.5 26.5,-356.5 39.5,-356.5 39.5,-356.5 26.5,-356.5"/>
<polygon fill="#666666" stroke="#666666" points="39.5,-356.5 39.5,-356.5 111.5,-356.5 111.5,-356.5 39.5,-356.5"/>
<polygon fill="none" stroke="#666666" points="26,-190 26,-539 111,-539 111,-190 26,-190"/>
</a>
</g>
</g>
<!-- Node2&#45;&gt;Node1 -->
<g id="edge1_Node000001_Node000002" class="edge">
<title>Node2&#45;&gt;Node1</title>
<g id="a_edge1_Node000001_Node000002"><a xlink:title=" ">
<path fill="none" stroke="#63b8ff" d="M68.5,-179.38C68.5,-170.74 68.5,-162.33 68.5,-154.28"/>
<polygon fill="none" stroke="#63b8ff" points="65,-179.61 68.5,-189.61 72,-179.61 65,-179.61"/>
</a>
</g>
</g>
</g>
</svg>
