<?xml version="1.0" encoding="UTF-8" standalone="no"?>
<!DOCTYPE svg PUBLIC "-//W3C//DTD SVG 1.1//EN"
 "http://www.w3.org/Graphics/SVG/1.1/DTD/svg11.dtd">
<!-- Generated by graphviz version 2.43.0 (0)
 -->
<!-- Title: rmvl/detector/detector.h Pages: 1 -->
<!--zoomable 412 -->

<svg id="main" version="1.1" xmlns="http://www.w3.org/2000/svg" xmlns:xlink="http://www.w3.org/1999/xlink" xml:space="preserve" onload="init(evt)">

<style type="text/css"><![CDATA[
.node, .edge {opacity: 0.7;}
.node.selected, .edge.selected {opacity: 1;}
.edge:hover path { stroke: red; }
.edge:hover polygon { stroke: red; fill: red; }
]]></style>

<defs>
  <circle id="rim" cx="0" cy="0" r="7"/>
  <circle id="rim2" cx="0" cy="0" r="3.5"/>
  <g id="zoomPlus">
    <use xlink:href="#rim" fill="#404040"><set attributeName="fill" to="#808080" begin="zoomplus.mouseover" end="zoomplus.mouseout"/></use>
    <path d="M-4,0h8M0,-4v8" fill="none" stroke="white" stroke-width="1.5" pointer-events="none"/>
  </g>
  <g id="zoomMin">
    <use xlink:href="#rim" fill="#404040"><set attributeName="fill" to="#808080" begin="zoomminus.mouseover" end="zoomminus.mouseout"/></use>
    <path d="M-4,0h8" fill="none" stroke="white" stroke-width="1.5" pointer-events="none"/>
  </g>
  <g id="arrowUp" transform="translate(30 24)">
    <use xlink:href="#rim"/>
    <path pointer-events="none" fill="none" stroke="white" stroke-width="1.5" d="M0,-3.0v7 M-2.5,-0.5L0,-3.0L2.5,-0.5"/>
  </g>
  <g id="arrowRight" transform="rotate(90) translate(36 -43)">
    <use xlink:href="#rim"/>
    <path pointer-events="none" fill="none" stroke="white" stroke-width="1.5" d="M0,-3.0v7 M-2.5,-0.5L0,-3.0L2.5,-0.5"/>
  </g>
  <g id="arrowDown" transform="rotate(180) translate(-30 -48)">
    <use xlink:href="#rim"/>
    <path pointer-events="none" fill="none" stroke="white" stroke-width="1.5" d="M0,-3.0v7 M-2.5,-0.5L0,-3.0L2.5,-0.5"/>
  </g>
  <g id="arrowLeft" transform="rotate(270) translate(-36 17)">
    <use xlink:href="#rim"/>
    <path pointer-events="none" fill="none" stroke="white" stroke-width="1.5" d="M0,-3.0v7 M-2.5,-0.5L0,-3.0L2.5,-0.5"/>
  </g>
  <g id="resetDef">
    <use xlink:href="#rim2" fill="#404040"><set attributeName="fill" to="#808080" begin="reset.mouseover" end="reset.mouseout"/></use>
  </g>
</defs>
<script type="application/ecmascript">
var viewWidth = 1442;
var viewHeight = 412;
var sectionId = 'dynsection-0';
</script>
<script type="application/ecmascript" xlink:href="../../svg.min.js"/>
<svg id="graph" class="graph">
<g id="viewport">
<title>rmvl/detector/detector.h</title>
<!-- Node1 -->
<g id="Node000001" class="node">
<title>Node1</title>
<g id="a_Node000001"><a xlink:title="抽象识别类头文件">
<polygon fill="#999999" stroke="#666666" points="977,-404 843,-404 843,-385 977,-385 977,-404"/>
<text text-anchor="middle" x="910" y="-392" font-family="Helvetica,sans-Serif" font-size="10.00">rmvl/detector/detector.h</text>
</a>
</g>
</g>
<!-- Node2 -->
<g id="Node000002" class="node">
<title>Node2</title>
<g id="a_Node000002"><a xlink:href="../../d9/dd1/group_8h.html" target="_top" xlink:title="序列组抽象头文件">
<polygon fill="white" stroke="#666666" points="891,-349 781,-349 781,-330 891,-330 891,-349"/>
<text text-anchor="middle" x="836" y="-337" font-family="Helvetica,sans-Serif" font-size="10.00">rmvl/group/group.h</text>
</a>
</g>
</g>
<!-- Node1&#45;&gt;Node2 -->
<g id="edge1_Node000001_Node000002" class="edge">
<title>Node1&#45;&gt;Node2</title>
<g id="a_edge1_Node000001_Node000002"><a xlink:title=" ">
<path fill="none" stroke="#63b8ff" d="M898.11,-384.98C886.85,-376.92 869.71,-364.65 856.29,-355.03"/>
<polygon fill="#63b8ff" stroke="#63b8ff" points="858.27,-352.15 848.11,-349.17 854.2,-357.84 858.27,-352.15"/>
</a>
</g>
</g>
<!-- Node28 -->
<g id="Node000028" class="node">
<title>Node28</title>
<g id="a_Node000028"><a xlink:href="../../d2/d4c/pretreat_8hpp.html" target="_top" xlink:title="图像预处理模块">
<polygon fill="white" stroke="#666666" points="1356,-349 1204,-349 1204,-330 1356,-330 1356,-349"/>
<text text-anchor="middle" x="1280" y="-337" font-family="Helvetica,sans-Serif" font-size="10.00">rmvl/algorithm/pretreat.hpp</text>
</a>
</g>
</g>
<!-- Node1&#45;&gt;Node28 -->
<g id="edge34_Node000001_Node000028" class="edge">
<title>Node1&#45;&gt;Node28</title>
<g id="a_edge34_Node000001_Node000028"><a xlink:title=" ">
<path fill="none" stroke="#63b8ff" d="M969.45,-384.98C1035.16,-375.57 1140.89,-360.43 1210.41,-350.47"/>
<polygon fill="#63b8ff" stroke="#63b8ff" points="1210.99,-353.92 1220.39,-349.04 1210,-346.99 1210.99,-353.92"/>
</a>
</g>
</g>
<!-- Node3 -->
<g id="Node000003" class="node">
<title>Node3</title>
<g id="a_Node000003"><a xlink:href="../../dc/ded/tracker_8h.html" target="_top" xlink:title="追踪器抽象头文件">
<polygon fill="white" stroke="#666666" points="682.5,-294 561.5,-294 561.5,-275 682.5,-275 682.5,-294"/>
<text text-anchor="middle" x="622" y="-282" font-family="Helvetica,sans-Serif" font-size="10.00">rmvl/tracker/tracker.h</text>
</a>
</g>
</g>
<!-- Node2&#45;&gt;Node3 -->
<g id="edge2_Node000002_Node000003" class="edge">
<title>Node2&#45;&gt;Node3</title>
<g id="a_edge2_Node000002_Node000003"><a xlink:title=" ">
<path fill="none" stroke="#63b8ff" d="M801.62,-329.98C764.91,-320.89 706.62,-306.46 666.45,-296.51"/>
<polygon fill="#63b8ff" stroke="#63b8ff" points="667.2,-293.09 656.65,-294.08 665.52,-299.88 667.2,-293.09"/>
</a>
</g>
</g>
<!-- Node4 -->
<g id="Node000004" class="node">
<title>Node4</title>
<g id="a_Node000004"><a xlink:title=" ">
<polygon fill="#e0e0e0" stroke="#999999" points="543.5,-239 496.5,-239 496.5,-220 543.5,-220 543.5,-239"/>
<text text-anchor="middle" x="520" y="-227" font-family="Helvetica,sans-Serif" font-size="10.00">deque</text>
</a>
</g>
</g>
<!-- Node3&#45;&gt;Node4 -->
<g id="edge3_Node000003_Node000004" class="edge">
<title>Node3&#45;&gt;Node4</title>
<g id="a_edge3_Node000003_Node000004"><a xlink:title=" ">
<path fill="none" stroke="#63b8ff" d="M605.61,-274.98C589.43,-266.57 564.43,-253.59 545.62,-243.81"/>
<polygon fill="#63b8ff" stroke="#63b8ff" points="547.17,-240.68 536.69,-239.17 543.95,-246.89 547.17,-240.68"/>
</a>
</g>
</g>
<!-- Node5 -->
<g id="Node000005" class="node">
<title>Node5</title>
<g id="a_Node000005"><a xlink:href="../../d8/d36/combo_8h.html" target="_top" xlink:title="the combination of the features header file">
<polygon fill="white" stroke="#666666" points="682,-239 562,-239 562,-220 682,-220 682,-239"/>
<text text-anchor="middle" x="622" y="-227" font-family="Helvetica,sans-Serif" font-size="10.00">rmvl/combo/combo.h</text>
</a>
</g>
</g>
<!-- Node3&#45;&gt;Node5 -->
<g id="edge4_Node000003_Node000005" class="edge">
<title>Node3&#45;&gt;Node5</title>
<g id="a_edge4_Node000003_Node000005"><a xlink:title=" ">
<path fill="none" stroke="#63b8ff" d="M622,-274.75C622,-267.8 622,-257.85 622,-249.13"/>
<polygon fill="#63b8ff" stroke="#63b8ff" points="625.5,-249.09 622,-239.09 618.5,-249.09 625.5,-249.09"/>
</a>
</g>
</g>
<!-- Node6 -->
<g id="Node000006" class="node">
<title>Node6</title>
<g id="a_Node000006"><a xlink:href="../../d4/d78/math_8hpp.html" target="_top" xlink:title="基础数学库">
<polygon fill="white" stroke="#666666" points="826.5,-184 687.5,-184 687.5,-165 826.5,-165 826.5,-184"/>
<text text-anchor="middle" x="757" y="-172" font-family="Helvetica,sans-Serif" font-size="10.00">rmvl/algorithm/math.hpp</text>
</a>
</g>
</g>
<!-- Node5&#45;&gt;Node6 -->
<g id="edge5_Node000005_Node000006" class="edge">
<title>Node5&#45;&gt;Node6</title>
<g id="a_edge5_Node000005_Node000006"><a xlink:title=" ">
<path fill="none" stroke="#63b8ff" d="M643.69,-219.98C665.8,-211.3 700.32,-197.75 725.45,-187.88"/>
<polygon fill="#63b8ff" stroke="#63b8ff" points="726.89,-191.08 734.92,-184.17 724.33,-184.57 726.89,-191.08"/>
</a>
</g>
</g>
<!-- Node18 -->
<g id="Node000018" class="node">
<title>Node18</title>
<g id="a_Node000018"><a xlink:href="../../d3/d7e/camutils_8hpp.html" target="_top" xlink:title=" ">
<polygon fill="white" stroke="#666666" points="1234.5,-184 1089.5,-184 1089.5,-165 1234.5,-165 1234.5,-184"/>
<text text-anchor="middle" x="1162" y="-172" font-family="Helvetica,sans-Serif" font-size="10.00">rmvl/camera/camutils.hpp</text>
</a>
</g>
</g>
<!-- Node5&#45;&gt;Node18 -->
<g id="edge17_Node000005_Node000018" class="edge">
<title>Node5&#45;&gt;Node18</title>
<g id="a_edge17_Node000005_Node000018"><a xlink:title=" ">
<path fill="none" stroke="#63b8ff" d="M682.11,-222.6C778.88,-213.1 969.43,-194.4 1079.06,-183.64"/>
<polygon fill="#63b8ff" stroke="#63b8ff" points="1079.47,-187.12 1089.08,-182.66 1078.79,-180.15 1079.47,-187.12"/>
</a>
</g>
</g>
<!-- Node20 -->
<g id="Node000020" class="node">
<title>Node20</title>
<g id="a_Node000020"><a xlink:href="../../dd/de3/types_8hpp.html" target="_top" xlink:title="常用状态类型定义">
<polygon fill="white" stroke="#666666" points="90,-129 0,-129 0,-110 90,-110 90,-129"/>
<text text-anchor="middle" x="45" y="-117" font-family="Helvetica,sans-Serif" font-size="10.00">rmvl/types.hpp</text>
</a>
</g>
</g>
<!-- Node5&#45;&gt;Node20 -->
<g id="edge20_Node000005_Node000020" class="edge">
<title>Node5&#45;&gt;Node20</title>
<g id="a_edge20_Node000005_Node000020"><a xlink:title=" ">
<path fill="none" stroke="#63b8ff" d="M561.8,-220.99C558.83,-220.65 555.88,-220.32 553,-220 387.45,-201.82 340.61,-228.09 180,-184 138.4,-172.58 93.79,-149.14 67.69,-134.16"/>
<polygon fill="#63b8ff" stroke="#63b8ff" points="69.36,-131.08 58.96,-129.06 65.83,-137.12 69.36,-131.08"/>
</a>
</g>
</g>
<!-- Node21 -->
<g id="Node000021" class="node">
<title>Node21</title>
<g id="a_Node000021"><a xlink:href="../../d2/dc6/io_8hpp.html" target="_top" xlink:title="数据 IO 与通信模块">
<polygon fill="white" stroke="#666666" points="562,-184 466,-184 466,-165 562,-165 562,-184"/>
<text text-anchor="middle" x="514" y="-172" font-family="Helvetica,sans-Serif" font-size="10.00">rmvl/core/io.hpp</text>
</a>
</g>
</g>
<!-- Node5&#45;&gt;Node21 -->
<g id="edge22_Node000005_Node000021" class="edge">
<title>Node5&#45;&gt;Node21</title>
<g id="a_edge22_Node000005_Node000021"><a xlink:title=" ">
<path fill="none" stroke="#63b8ff" d="M604.65,-219.98C587.43,-211.54 560.8,-198.47 540.85,-188.68"/>
<polygon fill="#63b8ff" stroke="#63b8ff" points="542.19,-185.43 531.67,-184.17 539.1,-191.72 542.19,-185.43"/>
</a>
</g>
</g>
<!-- Node26 -->
<g id="Node000026" class="node">
<title>Node26</title>
<g id="a_Node000026"><a xlink:href="../../d2/d74/feature_8h.html" target="_top" xlink:title="feature class header">
<polygon fill="white" stroke="#666666" points="313.5,-184 188.5,-184 188.5,-165 313.5,-165 313.5,-184"/>
<text text-anchor="middle" x="251" y="-172" font-family="Helvetica,sans-Serif" font-size="10.00">rmvl/feature/feature.h</text>
</a>
</g>
</g>
<!-- Node5&#45;&gt;Node26 -->
<g id="edge30_Node000005_Node000026" class="edge">
<title>Node5&#45;&gt;Node26</title>
<g id="a_edge30_Node000005_Node000026"><a xlink:title=" ">
<path fill="none" stroke="#63b8ff" d="M562.39,-219.98C496.5,-210.57 390.49,-195.43 320.78,-185.47"/>
<polygon fill="#63b8ff" stroke="#63b8ff" points="321.16,-181.99 310.77,-184.04 320.17,-188.92 321.16,-181.99"/>
</a>
</g>
</g>
<!-- Node7 -->
<g id="Node000007" class="node">
<title>Node7</title>
<g id="a_Node000007"><a xlink:title=" ">
<polygon fill="#e0e0e0" stroke="#999999" points="1017.5,-129 970.5,-129 970.5,-110 1017.5,-110 1017.5,-129"/>
<text text-anchor="middle" x="994" y="-117" font-family="Helvetica,sans-Serif" font-size="10.00">cmath</text>
</a>
</g>
</g>
<!-- Node6&#45;&gt;Node7 -->
<g id="edge6_Node000006_Node000007" class="edge">
<title>Node6&#45;&gt;Node7</title>
<g id="a_edge6_Node000006_Node000007"><a xlink:title=" ">
<path fill="none" stroke="#63b8ff" d="M799.14,-164.94C838.56,-156.8 899.32,-143.93 960.45,-129.3"/>
<polygon fill="#63b8ff" stroke="#63b8ff" points="961.36,-132.68 970.27,-126.93 959.72,-125.87 961.36,-132.68"/>
</a>
</g>
</g>
<!-- Node8 -->
<g id="Node000008" class="node">
<title>Node8</title>
<g id="a_Node000008"><a xlink:title=" ">
<polygon fill="#e0e0e0" stroke="#999999" points="1092,-129 1036,-129 1036,-110 1092,-110 1092,-129"/>
<text text-anchor="middle" x="1064" y="-117" font-family="Helvetica,sans-Serif" font-size="10.00">numeric</text>
</a>
</g>
</g>
<!-- Node6&#45;&gt;Node8 -->
<g id="edge7_Node000006_Node000008" class="edge">
<title>Node6&#45;&gt;Node8</title>
<g id="a_edge7_Node000006_Node000008"><a xlink:title=" ">
<path fill="none" stroke="#63b8ff" d="M815.12,-164.99C867.68,-157.06 947.42,-144.42 1025.72,-129.15"/>
<polygon fill="#63b8ff" stroke="#63b8ff" points="1026.62,-132.54 1035.76,-127.18 1025.27,-125.67 1026.62,-132.54"/>
</a>
</g>
</g>
<!-- Node9 -->
<g id="Node000009" class="node">
<title>Node9</title>
<g id="a_Node000009"><a xlink:title=" ">
<polygon fill="#e0e0e0" stroke="#999999" points="803.5,-129 710.5,-129 710.5,-110 803.5,-110 803.5,-129"/>
<text text-anchor="middle" x="757" y="-117" font-family="Helvetica,sans-Serif" font-size="10.00">unordered_map</text>
</a>
</g>
</g>
<!-- Node6&#45;&gt;Node9 -->
<g id="edge8_Node000006_Node000009" class="edge">
<title>Node6&#45;&gt;Node9</title>
<g id="a_edge8_Node000006_Node000009"><a xlink:title=" ">
<path fill="none" stroke="#63b8ff" d="M757,-164.75C757,-157.8 757,-147.85 757,-139.13"/>
<polygon fill="#63b8ff" stroke="#63b8ff" points="760.5,-139.09 757,-129.09 753.5,-139.09 760.5,-139.09"/>
</a>
</g>
</g>
<!-- Node10 -->
<g id="Node000010" class="node">
<title>Node10</title>
<g id="a_Node000010"><a xlink:title=" ">
<polygon fill="#e0e0e0" stroke="#999999" points="653.5,-129 606.5,-129 606.5,-110 653.5,-110 653.5,-129"/>
<text text-anchor="middle" x="630" y="-117" font-family="Helvetica,sans-Serif" font-size="10.00">vector</text>
</a>
</g>
</g>
<!-- Node6&#45;&gt;Node10 -->
<g id="edge9_Node000006_Node000010" class="edge">
<title>Node6&#45;&gt;Node10</title>
<g id="a_edge9_Node000006_Node000010"><a xlink:title=" ">
<path fill="none" stroke="#63b8ff" d="M736.6,-164.98C715.98,-156.38 683.89,-142.99 660.31,-133.15"/>
<polygon fill="#63b8ff" stroke="#63b8ff" points="661.35,-129.79 650.78,-129.17 658.66,-136.25 661.35,-129.79"/>
</a>
</g>
</g>
<!-- Node11 -->
<g id="Node000011" class="node">
<title>Node11</title>
<g id="a_Node000011"><a xlink:title=" ">
<polygon fill="#e0e0e0" stroke="#999999" points="952.5,-129 821.5,-129 821.5,-110 952.5,-110 952.5,-129"/>
<text text-anchor="middle" x="887" y="-117" font-family="Helvetica,sans-Serif" font-size="10.00">opencv2/core/matx.hpp</text>
</a>
</g>
</g>
<!-- Node6&#45;&gt;Node11 -->
<g id="edge10_Node000006_Node000011" class="edge">
<title>Node6&#45;&gt;Node11</title>
<g id="a_edge10_Node000006_Node000011"><a xlink:title=" ">
<path fill="none" stroke="#63b8ff" d="M777.89,-164.98C799.08,-156.34 832.13,-142.87 856.3,-133.02"/>
<polygon fill="#63b8ff" stroke="#63b8ff" points="857.79,-136.19 865.73,-129.17 855.15,-129.7 857.79,-136.19"/>
</a>
</g>
</g>
<!-- Node12 -->
<g id="Node000012" class="node">
<title>Node12</title>
<g id="a_Node000012"><a xlink:href="../../d0/d3f/util_8hpp.html" target="_top" xlink:title=" ">
<polygon fill="white" stroke="#666666" points="511.5,-74 408.5,-74 408.5,-55 511.5,-55 511.5,-74"/>
<text text-anchor="middle" x="460" y="-62" font-family="Helvetica,sans-Serif" font-size="10.00">rmvl/core/util.hpp</text>
</a>
</g>
</g>
<!-- Node6&#45;&gt;Node12 -->
<g id="edge11_Node000006_Node000012" class="edge">
<title>Node6&#45;&gt;Node12</title>
<g id="a_edge11_Node000006_Node000012"><a xlink:title=" ">
<path fill="none" stroke="#63b8ff" d="M747.05,-164.87C730.66,-151.12 696.49,-124.35 663,-110 617.66,-90.56 562.84,-79.2 521.61,-72.82"/>
<polygon fill="#63b8ff" stroke="#63b8ff" points="522.11,-69.36 511.7,-71.34 521.07,-76.28 522.11,-69.36"/>
</a>
</g>
</g>
<!-- Node13 -->
<g id="Node000013" class="node">
<title>Node13</title>
<g id="a_Node000013"><a xlink:title=" ">
<polygon fill="#e0e0e0" stroke="#999999" points="431.5,-19 298.5,-19 298.5,0 431.5,0 431.5,-19"/>
<text text-anchor="middle" x="365" y="-7" font-family="Helvetica,sans-Serif" font-size="10.00">rmvl/rmvl_modules.hpp</text>
</a>
</g>
</g>
<!-- Node12&#45;&gt;Node13 -->
<g id="edge12_Node000012_Node000013" class="edge">
<title>Node12&#45;&gt;Node13</title>
<g id="a_edge12_Node000012_Node000013"><a xlink:title=" ">
<path fill="none" stroke="#63b8ff" d="M444.74,-54.98C429.87,-46.69 407.02,-33.94 389.58,-24.22"/>
<polygon fill="#63b8ff" stroke="#63b8ff" points="390.98,-20.99 380.54,-19.17 387.57,-27.1 390.98,-20.99"/>
</a>
</g>
</g>
<!-- Node14 -->
<g id="Node000014" class="node">
<title>Node14</title>
<g id="a_Node000014"><a xlink:title=" ">
<polygon fill="#e0e0e0" stroke="#999999" points="500,-19 450,-19 450,0 500,0 500,-19"/>
<text text-anchor="middle" x="475" y="-7" font-family="Helvetica,sans-Serif" font-size="10.00">cstdint</text>
</a>
</g>
</g>
<!-- Node12&#45;&gt;Node14 -->
<g id="edge13_Node000012_Node000014" class="edge">
<title>Node12&#45;&gt;Node14</title>
<g id="a_edge13_Node000012_Node000014"><a xlink:title=" ">
<path fill="none" stroke="#63b8ff" d="M462.48,-54.75C464.46,-47.72 467.32,-37.62 469.81,-28.84"/>
<polygon fill="#63b8ff" stroke="#63b8ff" points="473.21,-29.66 472.57,-19.09 466.48,-27.76 473.21,-29.66"/>
</a>
</g>
</g>
<!-- Node15 -->
<g id="Node000015" class="node">
<title>Node15</title>
<g id="a_Node000015"><a xlink:title=" ">
<polygon fill="#e0e0e0" stroke="#999999" points="280,-19 234,-19 234,0 280,0 280,-19"/>
<text text-anchor="middle" x="257" y="-7" font-family="Helvetica,sans-Serif" font-size="10.00">cstdio</text>
</a>
</g>
</g>
<!-- Node12&#45;&gt;Node15 -->
<g id="edge14_Node000012_Node000015" class="edge">
<title>Node12&#45;&gt;Node15</title>
<g id="a_edge14_Node000012_Node000015"><a xlink:title=" ">
<path fill="none" stroke="#63b8ff" d="M427.38,-54.98C389.68,-45.14 327.98,-29.03 290.08,-19.14"/>
<polygon fill="#63b8ff" stroke="#63b8ff" points="290.62,-15.66 280.06,-16.52 288.86,-22.43 290.62,-15.66"/>
</a>
</g>
</g>
<!-- Node16 -->
<g id="Node000016" class="node">
<title>Node16</title>
<g id="a_Node000016"><a xlink:title=" ">
<polygon fill="#e0e0e0" stroke="#999999" points="562,-19 518,-19 518,0 562,0 562,-19"/>
<text text-anchor="middle" x="540" y="-7" font-family="Helvetica,sans-Serif" font-size="10.00">string</text>
</a>
</g>
</g>
<!-- Node12&#45;&gt;Node16 -->
<g id="edge15_Node000012_Node000016" class="edge">
<title>Node12&#45;&gt;Node16</title>
<g id="a_edge15_Node000012_Node000016"><a xlink:title=" ">
<path fill="none" stroke="#63b8ff" d="M472.85,-54.98C485.14,-46.84 503.91,-34.41 518.48,-24.76"/>
<polygon fill="#63b8ff" stroke="#63b8ff" points="520.51,-27.61 526.91,-19.17 516.64,-21.78 520.51,-27.61"/>
</a>
</g>
</g>
<!-- Node17 -->
<g id="Node000017" class="node">
<title>Node17</title>
<g id="a_Node000017"><a xlink:href="../../db/d41/rmvldef_8hpp.html" target="_top" xlink:title=" ">
<polygon fill="white" stroke="#666666" points="967.5,-19 892.5,-19 892.5,0 967.5,0 967.5,-19"/>
<text text-anchor="middle" x="930" y="-7" font-family="Helvetica,sans-Serif" font-size="10.00">rmvldef.hpp</text>
</a>
</g>
</g>
<!-- Node12&#45;&gt;Node17 -->
<g id="edge16_Node000012_Node000017" class="edge">
<title>Node12&#45;&gt;Node17</title>
<g id="a_edge16_Node000012_Node000017"><a xlink:title=" ">
<path fill="none" stroke="#63b8ff" d="M511.64,-57.68C603.4,-47.33 793.51,-25.89 882.33,-15.88"/>
<polygon fill="#63b8ff" stroke="#63b8ff" points="882.85,-19.34 892.39,-14.74 882.06,-12.38 882.85,-19.34"/>
</a>
</g>
</g>
<!-- Node18&#45;&gt;Node17 -->
<g id="edge19_Node000018_Node000017" class="edge">
<title>Node18&#45;&gt;Node17</title>
<g id="a_edge19_Node000018_Node000017"><a xlink:title=" ">
<path fill="none" stroke="#63b8ff" d="M1181.14,-164.98C1204.35,-153.43 1238.58,-131.75 1223,-110 1166.87,-31.66 1045.51,-14.25 977.92,-10.85"/>
<polygon fill="#63b8ff" stroke="#63b8ff" points="977.69,-7.34 967.55,-10.42 977.4,-14.33 977.69,-7.34"/>
</a>
</g>
</g>
<!-- Node19 -->
<g id="Node000019" class="node">
<title>Node19</title>
<g id="a_Node000019"><a xlink:title=" ">
<polygon fill="#e0e0e0" stroke="#999999" points="1213.5,-129 1110.5,-129 1110.5,-110 1213.5,-110 1213.5,-129"/>
<text text-anchor="middle" x="1162" y="-117" font-family="Helvetica,sans-Serif" font-size="10.00">opencv2/core.hpp</text>
</a>
</g>
</g>
<!-- Node18&#45;&gt;Node19 -->
<g id="edge18_Node000018_Node000019" class="edge">
<title>Node18&#45;&gt;Node19</title>
<g id="a_edge18_Node000018_Node000019"><a xlink:title=" ">
<path fill="none" stroke="#63b8ff" d="M1162,-164.75C1162,-157.8 1162,-147.85 1162,-139.13"/>
<polygon fill="#63b8ff" stroke="#63b8ff" points="1165.5,-139.09 1162,-129.09 1158.5,-139.09 1165.5,-139.09"/>
</a>
</g>
</g>
<!-- Node20&#45;&gt;Node12 -->
<g id="edge21_Node000020_Node000012" class="edge">
<title>Node20&#45;&gt;Node12</title>
<g id="a_edge21_Node000020_Node000012"><a xlink:title=" ">
<path fill="none" stroke="#63b8ff" d="M90.06,-111.29C93.09,-110.84 96.09,-110.41 99,-110 203.75,-95.3 325.99,-80.79 397.97,-72.51"/>
<polygon fill="#63b8ff" stroke="#63b8ff" points="398.68,-75.95 408.22,-71.33 397.88,-68.99 398.68,-75.95"/>
</a>
</g>
</g>
<!-- Node21&#45;&gt;Node10 -->
<g id="edge28_Node000021_Node000010" class="edge">
<title>Node21&#45;&gt;Node10</title>
<g id="a_edge28_Node000021_Node000010"><a xlink:title=" ">
<path fill="none" stroke="#63b8ff" d="M532.64,-164.98C551.3,-156.46 580.25,-143.23 601.74,-133.41"/>
<polygon fill="#63b8ff" stroke="#63b8ff" points="603.38,-136.51 611.02,-129.17 600.47,-130.14 603.38,-136.51"/>
</a>
</g>
</g>
<!-- Node21&#45;&gt;Node16 -->
<g id="edge27_Node000021_Node000016" class="edge">
<title>Node21&#45;&gt;Node16</title>
<g id="a_edge27_Node000021_Node000016"><a xlink:title=" ">
<path fill="none" stroke="#63b8ff" d="M515.4,-164.74C519.47,-139.2 531.4,-64.43 537.01,-29.23"/>
<polygon fill="#63b8ff" stroke="#63b8ff" points="540.48,-29.73 538.6,-19.31 533.56,-28.63 540.48,-29.73"/>
</a>
</g>
</g>
<!-- Node21&#45;&gt;Node17 -->
<g id="edge29_Node000021_Node000017" class="edge">
<title>Node21&#45;&gt;Node17</title>
<g id="a_edge29_Node000021_Node000017"><a xlink:title=" ">
<path fill="none" stroke="#63b8ff" d="M523.08,-164.87C537.73,-151.36 568,-125.21 598,-110 693.14,-61.77 815.71,-32.62 882.1,-19.26"/>
<polygon fill="#63b8ff" stroke="#63b8ff" points="883.13,-22.62 892.26,-17.25 881.77,-15.76 883.13,-22.62"/>
</a>
</g>
</g>
<!-- Node22 -->
<g id="Node000022" class="node">
<title>Node22</title>
<g id="a_Node000022"><a xlink:title=" ">
<polygon fill="#e0e0e0" stroke="#999999" points="378,-129 336,-129 336,-110 378,-110 378,-129"/>
<text text-anchor="middle" x="357" y="-117" font-family="Helvetica,sans-Serif" font-size="10.00">array</text>
</a>
</g>
</g>
<!-- Node21&#45;&gt;Node22 -->
<g id="edge23_Node000021_Node000022" class="edge">
<title>Node21&#45;&gt;Node22</title>
<g id="a_edge23_Node000021_Node000022"><a xlink:title=" ">
<path fill="none" stroke="#63b8ff" d="M488.78,-164.98C461.33,-155.72 417.42,-140.9 387.92,-130.94"/>
<polygon fill="#63b8ff" stroke="#63b8ff" points="388.73,-127.52 378.14,-127.63 386.49,-134.15 388.73,-127.52"/>
</a>
</g>
</g>
<!-- Node23 -->
<g id="Node000023" class="node">
<title>Node23</title>
<g id="a_Node000023"><a xlink:title=" ">
<polygon fill="#e0e0e0" stroke="#999999" points="446,-129 396,-129 396,-110 446,-110 446,-129"/>
<text text-anchor="middle" x="421" y="-117" font-family="Helvetica,sans-Serif" font-size="10.00">cstring</text>
</a>
</g>
</g>
<!-- Node21&#45;&gt;Node23 -->
<g id="edge24_Node000021_Node000023" class="edge">
<title>Node21&#45;&gt;Node23</title>
<g id="a_edge24_Node000021_Node000023"><a xlink:title=" ">
<path fill="none" stroke="#63b8ff" d="M499.06,-164.98C484.5,-156.69 462.13,-143.94 445.07,-134.22"/>
<polygon fill="#63b8ff" stroke="#63b8ff" points="446.64,-131.08 436.21,-129.17 443.17,-137.16 446.64,-131.08"/>
</a>
</g>
</g>
<!-- Node24 -->
<g id="Node000024" class="node">
<title>Node24</title>
<g id="a_Node000024"><a xlink:title=" ">
<polygon fill="#e0e0e0" stroke="#999999" points="512,-129 464,-129 464,-110 512,-110 512,-129"/>
<text text-anchor="middle" x="488" y="-117" font-family="Helvetica,sans-Serif" font-size="10.00">iosfwd</text>
</a>
</g>
</g>
<!-- Node21&#45;&gt;Node24 -->
<g id="edge25_Node000021_Node000024" class="edge">
<title>Node21&#45;&gt;Node24</title>
<g id="a_edge25_Node000021_Node000024"><a xlink:title=" ">
<path fill="none" stroke="#63b8ff" d="M509.71,-164.75C506.19,-157.57 501.09,-147.18 496.72,-138.27"/>
<polygon fill="#63b8ff" stroke="#63b8ff" points="499.76,-136.53 492.21,-129.09 493.48,-139.61 499.76,-136.53"/>
</a>
</g>
</g>
<!-- Node25 -->
<g id="Node000025" class="node">
<title>Node25</title>
<g id="a_Node000025"><a xlink:title=" ">
<polygon fill="#e0e0e0" stroke="#999999" points="318,-129 260,-129 260,-110 318,-110 318,-129"/>
<text text-anchor="middle" x="289" y="-117" font-family="Helvetica,sans-Serif" font-size="10.00">memory</text>
</a>
</g>
</g>
<!-- Node21&#45;&gt;Node25 -->
<g id="edge26_Node000021_Node000025" class="edge">
<title>Node21&#45;&gt;Node25</title>
<g id="a_edge26_Node000021_Node000025"><a xlink:title=" ">
<path fill="none" stroke="#63b8ff" d="M477.85,-164.98C436.88,-155.33 370.33,-139.66 328.16,-129.72"/>
<polygon fill="#63b8ff" stroke="#63b8ff" points="328.79,-126.28 318.25,-127.39 327.18,-133.09 328.79,-126.28"/>
</a>
</g>
</g>
<!-- Node26&#45;&gt;Node20 -->
<g id="edge33_Node000026_Node000020" class="edge">
<title>Node26&#45;&gt;Node20</title>
<g id="a_edge33_Node000026_Node000020"><a xlink:title=" ">
<path fill="none" stroke="#63b8ff" d="M217.9,-164.98C182.72,-155.93 126.93,-141.58 88.28,-131.64"/>
<polygon fill="#63b8ff" stroke="#63b8ff" points="88.91,-128.18 78.36,-129.08 87.17,-134.96 88.91,-128.18"/>
</a>
</g>
</g>
<!-- Node26&#45;&gt;Node25 -->
<g id="edge31_Node000026_Node000025" class="edge">
<title>Node26&#45;&gt;Node25</title>
<g id="a_edge31_Node000026_Node000025"><a xlink:title=" ">
<path fill="none" stroke="#63b8ff" d="M257.27,-164.75C262.59,-157.34 270.36,-146.5 276.88,-137.41"/>
<polygon fill="#63b8ff" stroke="#63b8ff" points="279.86,-139.26 282.84,-129.09 274.17,-135.18 279.86,-139.26"/>
</a>
</g>
</g>
<!-- Node27 -->
<g id="Node000027" class="node">
<title>Node27</title>
<g id="a_Node000027"><a xlink:title=" ">
<polygon fill="#e0e0e0" stroke="#999999" points="241.5,-129 108.5,-129 108.5,-110 241.5,-110 241.5,-129"/>
<text text-anchor="middle" x="175" y="-117" font-family="Helvetica,sans-Serif" font-size="10.00">opencv2/core/types.hpp</text>
</a>
</g>
</g>
<!-- Node26&#45;&gt;Node27 -->
<g id="edge32_Node000026_Node000027" class="edge">
<title>Node26&#45;&gt;Node27</title>
<g id="a_edge32_Node000026_Node000027"><a xlink:title=" ">
<path fill="none" stroke="#63b8ff" d="M238.79,-164.98C227.22,-156.92 209.62,-144.65 195.84,-135.03"/>
<polygon fill="#63b8ff" stroke="#63b8ff" points="197.64,-132.02 187.43,-129.17 193.63,-137.76 197.64,-132.02"/>
</a>
</g>
</g>
<!-- Node28&#45;&gt;Node17 -->
<g id="edge35_Node000028_Node000017" class="edge">
<title>Node28&#45;&gt;Node17</title>
<g id="a_edge35_Node000028_Node000017"><a xlink:title=" ">
<path fill="none" stroke="#63b8ff" d="M1280,-329.82C1280,-311.48 1280,-267.44 1280,-230.5 1280,-230.5 1280,-230.5 1280,-118.5 1280,-55.99 1073.61,-25.8 977.81,-15.15"/>
<polygon fill="#63b8ff" stroke="#63b8ff" points="978.11,-11.66 967.79,-14.06 977.35,-18.62 978.11,-11.66"/>
</a>
</g>
</g>
<!-- Node29 -->
<g id="Node000029" class="node">
<title>Node29</title>
<g id="a_Node000029"><a xlink:title=" ">
<polygon fill="#e0e0e0" stroke="#999999" points="1433.5,-294 1308.5,-294 1308.5,-275 1433.5,-275 1433.5,-294"/>
<text text-anchor="middle" x="1371" y="-282" font-family="Helvetica,sans-Serif" font-size="10.00">opencv2/core/mat.hpp</text>
</a>
</g>
</g>
<!-- Node28&#45;&gt;Node29 -->
<g id="edge36_Node000028_Node000029" class="edge">
<title>Node28&#45;&gt;Node29</title>
<g id="a_edge36_Node000028_Node000029"><a xlink:title=" ">
<path fill="none" stroke="#63b8ff" d="M1294.62,-329.98C1308.86,-321.69 1330.75,-308.94 1347.45,-299.22"/>
<polygon fill="#63b8ff" stroke="#63b8ff" points="1349.23,-302.23 1356.11,-294.17 1345.71,-296.18 1349.23,-302.23"/>
</a>
</g>
</g>
</g>
</svg>

<g id="navigator" transform="translate(0 0)" fill="#404254">
  <rect fill="#f2f5e9" fill-opacity="0.5" stroke="#606060" stroke-width=".5" x="0" y="0" width="60" height="60"/>
  <use id="zoomplus" xlink:href="#zoomPlus" x="17" y="9" onmousedown="handleZoom(evt,'in')"/>
  <use id="zoomminus" xlink:href="#zoomMin" x="42" y="9" onmousedown="handleZoom(evt,'out')"/>
  <use id="reset" xlink:href="#resetDef" x="30" y="36" onmousedown="handleReset()"/>
   <use id="arrowup" xlink:href="#arrowUp" x="0" y="0" onmousedown="handlePan(0,-1)"/>
  <use id="arrowright" xlink:href="#arrowRight" x="0" y="0" onmousedown="handlePan(1,0)"/>
  <use id="arrowdown" xlink:href="#arrowDown" x="0" y="0" onmousedown="handlePan(0,1)"/>
  <use id="arrowleft" xlink:href="#arrowLeft" x="0" y="0" onmousedown="handlePan(-1,0)"/>
</g>
<svg viewBox="0 0 15 15" width="100%" height="30px" preserveAspectRatio="xMaxYMin meet">
 <g id="arrow_out" transform="scale(0.3 0.3)">
  <a xlink:href="detector_8h__incl_org.svg" target="_base">
   <rect id="button" ry="5" rx="5" y="6" x="6" height="38" width="38"
        fill="#f2f5e9" fill-opacity="0.5" stroke="#606060" stroke-width="1.0"/>
   <path id="arrow"
     d="M 11.500037,31.436501 C 11.940474,20.09759 22.043105,11.32322 32.158766,21.979434 L 37.068811,17.246167 C 37.068811,17.246167 37.088388,32 37.088388,32 L 22.160133,31.978069 C 22.160133,31.978069 26.997745,27.140456 26.997745,27.140456 C 18.528582,18.264221 13.291696,25.230495 11.500037,31.436501 z"
     style="fill:#404040;"/>
  </a>
 </g>
</svg>

<style type='text/css'>
<![CDATA[
[data-mouse-over-selected='false'] { opacity: 0.7; }
[data-mouse-over-selected='true']  { opacity: 1.0; }
]]>
</style>
<script type="application/ecmascript"><![CDATA[
document.addEventListener('DOMContentLoaded', (event) => {
  highlightEdges();
  highlightAdjacentNodes();
});
]]></script>
</svg>
