<?xml version="1.0" encoding="UTF-8" standalone="no"?>
<!DOCTYPE svg PUBLIC "-//W3C//DTD SVG 1.1//EN"
 "http://www.w3.org/Graphics/SVG/1.1/DTD/svg11.dtd">
<!-- Generated by graphviz version 2.43.0 (0)
 -->
<!-- Title: rm::para::ArmorParam Pages: 1 -->
<svg width="295pt" height="649pt"
 viewBox="0.00 0.00 295.00 649.00" xmlns="http://www.w3.org/2000/svg" xmlns:xlink="http://www.w3.org/1999/xlink">
<g id="graph0" class="graph" transform="scale(1 1) rotate(0) translate(4 645)">
<title>rm::para::ArmorParam</title>
<!-- Node1 -->
<g id="Node000001" class="node">
<title>Node1</title>
<g id="a_Node000001"><a xlink:title="ArmorParam 参数模块">
<polygon fill="#999999" stroke="transparent" points="183,-199 17,-199 17,0 183,0 183,-199"/>
<text text-anchor="start" x="45.5" y="-186.5" font-family="Helvetica,sans-Serif" font-size="10.00">rm::para::ArmorParam</text>
<text text-anchor="start" x="21" y="-171.5" font-family="Helvetica,sans-Serif" font-size="10.00">+</text>
<text text-anchor="start" x="34" y="-171.5" font-family="Helvetica,sans-Serif" font-size="10.00">MAX_WIDTH_RATIO</text>
<text text-anchor="start" x="21" y="-156.5" font-family="Helvetica,sans-Serif" font-size="10.00">+</text>
<text text-anchor="start" x="34" y="-156.5" font-family="Helvetica,sans-Serif" font-size="10.00">MIN_COMBO_RATIO</text>
<text text-anchor="start" x="21" y="-141.5" font-family="Helvetica,sans-Serif" font-size="10.00">+</text>
<text text-anchor="start" x="34" y="-141.5" font-family="Helvetica,sans-Serif" font-size="10.00">MIN_BIG_COMBO_RATIO</text>
<text text-anchor="start" x="21" y="-126.5" font-family="Helvetica,sans-Serif" font-size="10.00">+</text>
<text text-anchor="start" x="34" y="-126.5" font-family="Helvetica,sans-Serif" font-size="10.00">MAX_SMALL_CORNER_ANGLE</text>
<text text-anchor="start" x="21" y="-111.5" font-family="Helvetica,sans-Serif" font-size="10.00">+</text>
<text text-anchor="start" x="34" y="-111.5" font-family="Helvetica,sans-Serif" font-size="10.00">MIN_BIG_CORNER_ANGLE</text>
<text text-anchor="start" x="21" y="-96.5" font-family="Helvetica,sans-Serif" font-size="10.00">+</text>
<text text-anchor="start" x="34" y="-96.5" font-family="Helvetica,sans-Serif" font-size="10.00">ROI_WIDTH_RATIO</text>
<text text-anchor="start" x="21" y="-81.5" font-family="Helvetica,sans-Serif" font-size="10.00">+</text>
<text text-anchor="start" x="34" y="-81.5" font-family="Helvetica,sans-Serif" font-size="10.00">ROI_HEIGHT_RATIO</text>
<text text-anchor="start" x="21" y="-66.5" font-family="Helvetica,sans-Serif" font-size="10.00">+</text>
<text text-anchor="start" x="34" y="-66.5" font-family="Helvetica,sans-Serif" font-size="10.00">ROI_SIZE</text>
<text text-anchor="start" x="21" y="-51.5" font-family="Helvetica,sans-Serif" font-size="10.00">+</text>
<text text-anchor="start" x="34" y="-51.5" font-family="Helvetica,sans-Serif" font-size="10.00">ArmorParam()</text>
<text text-anchor="start" x="21" y="-36.5" font-family="Helvetica,sans-Serif" font-size="10.00">+</text>
<text text-anchor="start" x="34" y="-36.5" font-family="Helvetica,sans-Serif" font-size="10.00">read()</text>
<text text-anchor="start" x="21" y="-21.5" font-family="Helvetica,sans-Serif" font-size="10.00">+</text>
<text text-anchor="start" x="34" y="-21.5" font-family="Helvetica,sans-Serif" font-size="10.00">write()</text>
<text text-anchor="start" x="21" y="-6.5" font-family="Helvetica,sans-Serif" font-size="10.00">+</text>
<text text-anchor="start" x="34" y="-6.5" font-family="Helvetica,sans-Serif" font-size="10.00">load()</text>
<polygon fill="#666666" stroke="#666666" points="17,-181.5 17,-181.5 183,-181.5 183,-181.5 17,-181.5"/>
<polygon fill="#666666" stroke="#666666" points="17,-61.5 17,-61.5 32,-61.5 32,-61.5 17,-61.5"/>
<polygon fill="#666666" stroke="#666666" points="32,-61.5 32,-61.5 183,-61.5 183,-61.5 32,-61.5"/>
<polygon fill="none" stroke="#666666" points="17,0 17,-199 183,-199 183,0 17,0"/>
</a>
</g>
</g>
<!-- Node2 -->
<g id="Node000002" class="node">
<title>Node2</title>
<g id="a_Node000002"><a xlink:title=" ">
<polygon fill="white" stroke="transparent" points="32,-449 0,-449 0,-400 32,-400 32,-449"/>
<text text-anchor="start" x="5" y="-436.5" font-family="Helvetica,sans-Serif" font-size="10.00">float</text>
<text text-anchor="start" x="14" y="-421.5" font-family="Helvetica,sans-Serif" font-size="10.00"> </text>
<text text-anchor="start" x="14" y="-406.5" font-family="Helvetica,sans-Serif" font-size="10.00"> </text>
<polygon fill="#666666" stroke="#666666" points="0,-431.5 0,-431.5 32,-431.5 32,-431.5 0,-431.5"/>
<polygon fill="#666666" stroke="#666666" points="0,-416.5 0,-416.5 32,-416.5 32,-416.5 0,-416.5"/>
<polygon fill="none" stroke="#666666" points="0,-400 0,-449 32,-449 32,-400 0,-400"/>
</a>
</g>
</g>
<!-- Node2&#45;&gt;Node1 -->
<g id="edge1_Node000001_Node000002" class="edge">
<title>Node2&#45;&gt;Node1</title>
<g id="a_edge1_Node000001_Node000002"><a xlink:title=" ">
<path fill="none" stroke="#63b8ff" d="M11.59,-399.86C5.28,-360.72 -3.47,-280.47 17,-217 17.73,-214.74 18.52,-212.49 19.36,-210.24"/>
<polygon fill="none" stroke="#63b8ff" points="19.39,-210.17 18.02,-203.09 24.03,-199.1 25.4,-206.18 19.39,-210.17"/>
</a>
</g>
<text text-anchor="middle" x="90" y="-374" font-family="Helvetica,sans-Serif" font-size="10.00" fill="grey"> +BIG_SMALL_WIDTH_RATIO</text>
<text text-anchor="start" x="17" y="-363" font-family="Helvetica,sans-Serif" font-size="10.00" fill="grey">+ERROR_ANGLE_SCALE</text>
<text text-anchor="middle" x="90" y="-352" font-family="Helvetica,sans-Serif" font-size="10.00" fill="grey">_RATIO</text>
<text text-anchor="start" x="17" y="-341" font-family="Helvetica,sans-Serif" font-size="10.00" fill="grey">+ERROR_LENGTH_SCALE</text>
<text text-anchor="middle" x="90" y="-330" font-family="Helvetica,sans-Serif" font-size="10.00" fill="grey">_RATIO</text>
<text text-anchor="start" x="17" y="-319" font-family="Helvetica,sans-Serif" font-size="10.00" fill="grey">+ERROR_TILT_ANGLE</text>
<text text-anchor="middle" x="90" y="-308" font-family="Helvetica,sans-Serif" font-size="10.00" fill="grey">_RATIO</text>
<text text-anchor="start" x="17" y="-297" font-family="Helvetica,sans-Serif" font-size="10.00" fill="grey">+ERROR_WIDTH_SCALE</text>
<text text-anchor="middle" x="90" y="-286" font-family="Helvetica,sans-Serif" font-size="10.00" fill="grey">_RATIO</text>
<text text-anchor="middle" x="90" y="-275" font-family="Helvetica,sans-Serif" font-size="10.00" fill="grey">+MAX_COMBO_RATIO</text>
<text text-anchor="middle" x="90" y="-264" font-family="Helvetica,sans-Serif" font-size="10.00" fill="grey">+MAX_CORNER_ANGLE</text>
<text text-anchor="middle" x="90" y="-253" font-family="Helvetica,sans-Serif" font-size="10.00" fill="grey">+MAX_DELTA_ANGLE</text>
<text text-anchor="middle" x="90" y="-242" font-family="Helvetica,sans-Serif" font-size="10.00" fill="grey">+MAX_LENGTH_RATIO</text>
<text text-anchor="middle" x="90" y="-231" font-family="Helvetica,sans-Serif" font-size="10.00" fill="grey">+MAX_SMALL_COMBO_RATIO</text>
<text text-anchor="middle" x="90" y="-220" font-family="Helvetica,sans-Serif" font-size="10.00" fill="grey">...</text>
</g>
<!-- Node3 -->
<g id="Node000003" class="node">
<title>Node3</title>
<g id="a_Node000003"><a xlink:title=" ">
<polygon fill="white" stroke="transparent" points="253,-449 117,-449 117,-400 253,-400 253,-449"/>
<text text-anchor="start" x="122" y="-436.5" font-family="Helvetica,sans-Serif" font-size="10.00">std::vector&lt; cv::Point3f &gt;</text>
<text text-anchor="start" x="183" y="-421.5" font-family="Helvetica,sans-Serif" font-size="10.00"> </text>
<text text-anchor="start" x="183" y="-406.5" font-family="Helvetica,sans-Serif" font-size="10.00"> </text>
<polygon fill="#666666" stroke="#666666" points="117,-431.5 117,-431.5 253,-431.5 253,-431.5 117,-431.5"/>
<polygon fill="#666666" stroke="#666666" points="117,-416.5 117,-416.5 253,-416.5 253,-416.5 117,-416.5"/>
<polygon fill="none" stroke="#666666" points="117,-400 117,-449 253,-449 253,-400 117,-400"/>
</a>
</g>
</g>
<!-- Node3&#45;&gt;Node1 -->
<g id="edge2_Node000001_Node000003" class="edge">
<title>Node3&#45;&gt;Node1</title>
<g id="a_edge2_Node000001_Node000003"><a xlink:title=" ">
<path fill="none" stroke="#63b8ff" d="M185.42,-399.99C185.48,-361.04 182.88,-281.05 163,-217 162.34,-214.87 161.64,-212.73 160.9,-210.59"/>
<polygon fill="none" stroke="#63b8ff" points="160.82,-210.39 154.98,-206.17 156.63,-199.15 162.47,-203.37 160.82,-210.39"/>
</a>
</g>
<text text-anchor="middle" x="226.5" y="-302.5" font-family="Helvetica,sans-Serif" font-size="10.00" fill="grey"> +BIG_ARMOR</text>
<text text-anchor="middle" x="226.5" y="-291.5" font-family="Helvetica,sans-Serif" font-size="10.00" fill="grey">+SMALL_ARMOR</text>
</g>
<!-- Node4 -->
<g id="Node000004" class="node">
<title>Node4</title>
<g id="a_Node000004"><a xlink:title=" ">
<polygon fill="white" stroke="transparent" points="165.5,-545 120.5,-545 120.5,-496 165.5,-496 165.5,-545"/>
<text text-anchor="start" x="126" y="-532.5" font-family="Helvetica,sans-Serif" font-size="10.00">Point3f</text>
<text text-anchor="start" x="141.5" y="-517.5" font-family="Helvetica,sans-Serif" font-size="10.00"> </text>
<text text-anchor="start" x="141.5" y="-502.5" font-family="Helvetica,sans-Serif" font-size="10.00"> </text>
<polygon fill="#666666" stroke="#666666" points="121,-527.5 121,-527.5 166,-527.5 166,-527.5 121,-527.5"/>
<polygon fill="#666666" stroke="#666666" points="121,-512.5 121,-512.5 166,-512.5 166,-512.5 121,-512.5"/>
<polygon fill="none" stroke="#666666" points="120.5,-496 120.5,-545 165.5,-545 165.5,-496 120.5,-496"/>
</a>
</g>
</g>
<!-- Node4&#45;&gt;Node3 -->
<g id="edge3_Node000003_Node000004" class="edge">
<title>Node4&#45;&gt;Node3</title>
<g id="a_edge3_Node000003_Node000004"><a xlink:title=" ">
<path fill="none" stroke="#63b8ff" d="M140.95,-495.97C140.99,-486.62 142.14,-475.98 146,-467 147.15,-464.32 148.56,-461.7 150.14,-459.17"/>
<polygon fill="none" stroke="#63b8ff" points="150.31,-458.94 150.69,-451.74 157.48,-449.32 157.1,-456.52 150.31,-458.94"/>
</a>
</g>
<text text-anchor="middle" x="175" y="-470" font-family="Helvetica,sans-Serif" font-size="10.00" fill="grey"> +elements</text>
</g>
<!-- Node5 -->
<g id="Node000005" class="node">
<title>Node5</title>
<g id="a_Node000005"><a xlink:title=" ">
<polygon fill="white" stroke="transparent" points="274.5,-545 183.5,-545 183.5,-496 274.5,-496 274.5,-545"/>
<text text-anchor="start" x="189" y="-532.5" font-family="Helvetica,sans-Serif" font-size="10.00">std::vector&lt; T &gt;</text>
<text text-anchor="start" x="227.5" y="-517.5" font-family="Helvetica,sans-Serif" font-size="10.00"> </text>
<text text-anchor="start" x="227.5" y="-502.5" font-family="Helvetica,sans-Serif" font-size="10.00"> </text>
<polygon fill="#666666" stroke="#666666" points="184,-527.5 184,-527.5 275,-527.5 275,-527.5 184,-527.5"/>
<polygon fill="#666666" stroke="#666666" points="184,-512.5 184,-512.5 275,-512.5 275,-512.5 184,-512.5"/>
<polygon fill="none" stroke="#666666" points="183.5,-496 183.5,-545 274.5,-545 274.5,-496 183.5,-496"/>
</a>
</g>
</g>
<!-- Node5&#45;&gt;Node3 -->
<g id="edge4_Node000003_Node000005" class="edge">
<title>Node5&#45;&gt;Node3</title>
<g id="a_edge4_Node000003_Node000005"><a xlink:title=" ">
<path fill="none" stroke="orange" d="M213.64,-486.69C207.86,-474.35 201.41,-460.57 196.1,-449.21"/>
<polygon fill="orange" stroke="orange" points="210.49,-488.21 217.9,-495.78 216.83,-485.24 210.49,-488.21"/>
</a>
</g>
<text text-anchor="middle" x="246.5" y="-470" font-family="Helvetica,sans-Serif" font-size="10.00" fill="grey"> &lt; cv::Point3f &gt;</text>
</g>
<!-- Node6 -->
<g id="Node000006" class="node">
<title>Node6</title>
<g id="a_Node000006"><a xlink:title=" ">
<polygon fill="white" stroke="transparent" points="237.5,-641 220.5,-641 220.5,-592 237.5,-592 237.5,-641"/>
<text text-anchor="start" x="226" y="-628.5" font-family="Helvetica,sans-Serif" font-size="10.00">T</text>
<text text-anchor="start" x="227.5" y="-613.5" font-family="Helvetica,sans-Serif" font-size="10.00"> </text>
<text text-anchor="start" x="227.5" y="-598.5" font-family="Helvetica,sans-Serif" font-size="10.00"> </text>
<polygon fill="#666666" stroke="#666666" points="221,-623.5 221,-623.5 238,-623.5 238,-623.5 221,-623.5"/>
<polygon fill="#666666" stroke="#666666" points="221,-608.5 221,-608.5 238,-608.5 238,-608.5 221,-608.5"/>
<polygon fill="none" stroke="#666666" points="220.5,-592 220.5,-641 237.5,-641 237.5,-592 220.5,-592"/>
</a>
</g>
</g>
<!-- Node6&#45;&gt;Node5 -->
<g id="edge5_Node000005_Node000006" class="edge">
<title>Node6&#45;&gt;Node5</title>
<g id="a_edge5_Node000005_Node000006"><a xlink:title=" ">
<path fill="none" stroke="#63b8ff" d="M229,-591.78C229,-581.32 229,-568.79 229,-557.23"/>
<polygon fill="none" stroke="#63b8ff" points="229,-557.21 225,-551.21 229,-545.21 233,-551.21 229,-557.21"/>
</a>
</g>
<text text-anchor="middle" x="258" y="-566" font-family="Helvetica,sans-Serif" font-size="10.00" fill="grey"> +elements</text>
</g>
</g>
</svg>
