<?xml version="1.0" encoding="UTF-8" standalone="no"?>
<!DOCTYPE svg PUBLIC "-//W3C//DTD SVG 1.1//EN"
 "http://www.w3.org/Graphics/SVG/1.1/DTD/svg11.dtd">
<!-- Generated by graphviz version 2.43.0 (0)
 -->
<!-- Title: rmvl/combo/rune.h Pages: 1 -->
<svg width="1373pt" height="247pt"
 viewBox="0.00 0.00 1373.00 247.00" xmlns="http://www.w3.org/2000/svg" xmlns:xlink="http://www.w3.org/1999/xlink">
<g id="graph0" class="graph" transform="scale(1 1) rotate(0) translate(4 243)">
<title>rmvl/combo/rune.h</title>
<!-- Node1 -->
<g id="Node000001" class="node">
<title>Node1</title>
<g id="a_Node000001"><a xlink:title="神符类头文件">
<polygon fill="#999999" stroke="#666666" points="997,-239 888,-239 888,-220 997,-220 997,-239"/>
<text text-anchor="middle" x="942.5" y="-227" font-family="Helvetica,sans-Serif" font-size="10.00">rmvl/combo/rune.h</text>
</a>
</g>
</g>
<!-- Node2 -->
<g id="Node000002" class="node">
<title>Node2</title>
<g id="a_Node000002"><a xlink:href="../../d8/d36/combo_8h.html" target="_top" xlink:title="the combination of the features header file">
<polygon fill="white" stroke="#666666" points="851,-184 792,-184 792,-165 851,-165 851,-184"/>
<text text-anchor="middle" x="821.5" y="-172" font-family="Helvetica,sans-Serif" font-size="10.00">combo.h</text>
</a>
</g>
</g>
<!-- Node1&#45;&gt;Node2 -->
<g id="edge1_Node000001_Node000002" class="edge">
<title>Node1&#45;&gt;Node2</title>
<g id="a_edge1_Node000001_Node000002"><a xlink:title=" ">
<path fill="none" stroke="#63b8ff" d="M923.06,-219.98C903.51,-211.42 873.12,-198.11 850.68,-188.28"/>
<polygon fill="#63b8ff" stroke="#63b8ff" points="851.86,-184.98 841.29,-184.17 849.05,-191.39 851.86,-184.98"/>
</a>
</g>
</g>
<!-- Node28 -->
<g id="Node000028" class="node">
<title>Node28</title>
<g id="a_Node000028"><a xlink:href="../../d6/d1d/feature_2rune__center_8h.html" target="_top" xlink:title=" ">
<polygon fill="white" stroke="#666666" points="1015.5,-184 869.5,-184 869.5,-165 1015.5,-165 1015.5,-184"/>
<text text-anchor="middle" x="942.5" y="-172" font-family="Helvetica,sans-Serif" font-size="10.00">rmvl/feature/rune_center.h</text>
</a>
</g>
</g>
<!-- Node1&#45;&gt;Node28 -->
<g id="edge35_Node000001_Node000028" class="edge">
<title>Node1&#45;&gt;Node28</title>
<g id="a_edge35_Node000001_Node000028"><a xlink:title=" ">
<path fill="none" stroke="#63b8ff" d="M942.5,-219.75C942.5,-212.8 942.5,-202.85 942.5,-194.13"/>
<polygon fill="#63b8ff" stroke="#63b8ff" points="946,-194.09 942.5,-184.09 939,-194.09 946,-194.09"/>
</a>
</g>
</g>
<!-- Node29 -->
<g id="Node000029" class="node">
<title>Node29</title>
<g id="a_Node000029"><a xlink:href="../../d2/d8d/feature_2rune__target_8h.html" target="_top" xlink:title=" ">
<polygon fill="white" stroke="#666666" points="1179.5,-184 1033.5,-184 1033.5,-165 1179.5,-165 1179.5,-184"/>
<text text-anchor="middle" x="1106.5" y="-172" font-family="Helvetica,sans-Serif" font-size="10.00">rmvl/feature/rune_target.h</text>
</a>
</g>
</g>
<!-- Node1&#45;&gt;Node29 -->
<g id="edge37_Node000001_Node000029" class="edge">
<title>Node1&#45;&gt;Node29</title>
<g id="a_edge37_Node000001_Node000029"><a xlink:title=" ">
<path fill="none" stroke="#63b8ff" d="M968.85,-219.98C996.26,-211.13 1039.39,-197.19 1070.06,-187.28"/>
<polygon fill="#63b8ff" stroke="#63b8ff" points="1071.5,-190.49 1079.94,-184.08 1069.35,-183.83 1071.5,-190.49"/>
</a>
</g>
</g>
<!-- Node3 -->
<g id="Node000003" class="node">
<title>Node3</title>
<g id="a_Node000003"><a xlink:href="../../d4/d78/math_8hpp.html" target="_top" xlink:title="基础数学库">
<polygon fill="white" stroke="#666666" points="349,-129 210,-129 210,-110 349,-110 349,-129"/>
<text text-anchor="middle" x="279.5" y="-117" font-family="Helvetica,sans-Serif" font-size="10.00">rmvl/algorithm/math.hpp</text>
</a>
</g>
</g>
<!-- Node2&#45;&gt;Node3 -->
<g id="edge2_Node000002_Node000003" class="edge">
<title>Node2&#45;&gt;Node3</title>
<g id="a_edge2_Node000002_Node000003"><a xlink:title=" ">
<path fill="none" stroke="#63b8ff" d="M791.97,-170.61C710.76,-162.67 481.92,-140.29 359.35,-128.31"/>
<polygon fill="#63b8ff" stroke="#63b8ff" points="359.57,-124.81 349.28,-127.32 358.89,-131.78 359.57,-124.81"/>
</a>
</g>
</g>
<!-- Node16 -->
<g id="Node000016" class="node">
<title>Node16</title>
<g id="a_Node000016"><a xlink:href="../../d3/d7e/camutils_8hpp.html" target="_top" xlink:title="相机基本配置信息">
<polygon fill="white" stroke="#666666" points="759,-129 614,-129 614,-110 759,-110 759,-129"/>
<text text-anchor="middle" x="686.5" y="-117" font-family="Helvetica,sans-Serif" font-size="10.00">rmvl/camera/camutils.hpp</text>
</a>
</g>
</g>
<!-- Node2&#45;&gt;Node16 -->
<g id="edge15_Node000002_Node000016" class="edge">
<title>Node2&#45;&gt;Node16</title>
<g id="a_edge15_Node000002_Node000016"><a xlink:title=" ">
<path fill="none" stroke="#63b8ff" d="M799.81,-164.98C777.7,-156.3 743.18,-142.75 718.05,-132.88"/>
<polygon fill="#63b8ff" stroke="#63b8ff" points="719.17,-129.57 708.58,-129.17 716.61,-136.08 719.17,-129.57"/>
</a>
</g>
</g>
<!-- Node18 -->
<g id="Node000018" class="node">
<title>Node18</title>
<g id="a_Node000018"><a xlink:href="../../d2/dc6/io_8hpp.html" target="_top" xlink:title="数据 IO 与通信模块">
<polygon fill="white" stroke="#666666" points="887.5,-129 791.5,-129 791.5,-110 887.5,-110 887.5,-129"/>
<text text-anchor="middle" x="839.5" y="-117" font-family="Helvetica,sans-Serif" font-size="10.00">rmvl/core/io.hpp</text>
</a>
</g>
</g>
<!-- Node2&#45;&gt;Node18 -->
<g id="edge18_Node000002_Node000018" class="edge">
<title>Node2&#45;&gt;Node18</title>
<g id="a_edge18_Node000002_Node000018"><a xlink:title=" ">
<path fill="none" stroke="#63b8ff" d="M824.47,-164.75C826.86,-157.72 830.29,-147.62 833.27,-138.84"/>
<polygon fill="#63b8ff" stroke="#63b8ff" points="836.68,-139.68 836.58,-129.09 830.05,-137.43 836.68,-139.68"/>
</a>
</g>
</g>
<!-- Node23 -->
<g id="Node000023" class="node">
<title>Node23</title>
<g id="a_Node000023"><a xlink:href="../../d2/d74/feature_8h.html" target="_top" xlink:title="feature class header">
<polygon fill="white" stroke="#666666" points="1135,-129 1010,-129 1010,-110 1135,-110 1135,-129"/>
<text text-anchor="middle" x="1072.5" y="-117" font-family="Helvetica,sans-Serif" font-size="10.00">rmvl/feature/feature.h</text>
</a>
</g>
</g>
<!-- Node2&#45;&gt;Node23 -->
<g id="edge26_Node000002_Node000023" class="edge">
<title>Node2&#45;&gt;Node23</title>
<g id="a_edge26_Node000002_Node000023"><a xlink:title=" ">
<path fill="none" stroke="#63b8ff" d="M851.31,-166.98C854.41,-166.31 857.52,-165.64 860.5,-165 915.48,-153.24 978.56,-140.04 1021.51,-131.09"/>
<polygon fill="#63b8ff" stroke="#63b8ff" points="1022.37,-134.49 1031.44,-129.02 1020.94,-127.63 1022.37,-134.49"/>
</a>
</g>
</g>
<!-- Node4 -->
<g id="Node000004" class="node">
<title>Node4</title>
<g id="a_Node000004"><a xlink:title=" ">
<polygon fill="#e0e0e0" stroke="#999999" points="47,-74 0,-74 0,-55 47,-55 47,-74"/>
<text text-anchor="middle" x="23.5" y="-62" font-family="Helvetica,sans-Serif" font-size="10.00">cmath</text>
</a>
</g>
</g>
<!-- Node3&#45;&gt;Node4 -->
<g id="edge3_Node000003_Node000004" class="edge">
<title>Node3&#45;&gt;Node4</title>
<g id="a_edge3_Node000003_Node000004"><a xlink:title=" ">
<path fill="none" stroke="#63b8ff" d="M232.12,-109.99C188.87,-102.02 122.97,-89.37 57.33,-74.32"/>
<polygon fill="#63b8ff" stroke="#63b8ff" points="57.76,-70.83 47.22,-71.98 56.18,-77.64 57.76,-70.83"/>
</a>
</g>
</g>
<!-- Node5 -->
<g id="Node000005" class="node">
<title>Node5</title>
<g id="a_Node000005"><a xlink:title=" ">
<polygon fill="#e0e0e0" stroke="#999999" points="130,-74 65,-74 65,-55 130,-55 130,-74"/>
<text text-anchor="middle" x="97.5" y="-62" font-family="Helvetica,sans-Serif" font-size="10.00">functional</text>
</a>
</g>
</g>
<!-- Node3&#45;&gt;Node5 -->
<g id="edge4_Node000003_Node000005" class="edge">
<title>Node3&#45;&gt;Node5</title>
<g id="a_edge4_Node000003_Node000005"><a xlink:title=" ">
<path fill="none" stroke="#63b8ff" d="M250.26,-109.98C219.44,-101.01 170.72,-86.82 136.61,-76.89"/>
<polygon fill="#63b8ff" stroke="#63b8ff" points="137.55,-73.52 126.97,-74.08 135.59,-80.24 137.55,-73.52"/>
</a>
</g>
</g>
<!-- Node6 -->
<g id="Node000006" class="node">
<title>Node6</title>
<g id="a_Node000006"><a xlink:title=" ">
<polygon fill="#e0e0e0" stroke="#999999" points="204.5,-74 148.5,-74 148.5,-55 204.5,-55 204.5,-74"/>
<text text-anchor="middle" x="176.5" y="-62" font-family="Helvetica,sans-Serif" font-size="10.00">numeric</text>
</a>
</g>
</g>
<!-- Node3&#45;&gt;Node6 -->
<g id="edge5_Node000003_Node000006" class="edge">
<title>Node3&#45;&gt;Node6</title>
<g id="a_edge5_Node000003_Node000006"><a xlink:title=" ">
<path fill="none" stroke="#63b8ff" d="M262.95,-109.98C246.61,-101.57 221.37,-88.59 202.37,-78.81"/>
<polygon fill="#63b8ff" stroke="#63b8ff" points="203.84,-75.63 193.35,-74.17 200.64,-81.86 203.84,-75.63"/>
</a>
</g>
</g>
<!-- Node7 -->
<g id="Node000007" class="node">
<title>Node7</title>
<g id="a_Node000007"><a xlink:title=" ">
<polygon fill="#e0e0e0" stroke="#999999" points="279,-19 186,-19 186,0 279,0 279,-19"/>
<text text-anchor="middle" x="232.5" y="-7" font-family="Helvetica,sans-Serif" font-size="10.00">unordered_map</text>
</a>
</g>
</g>
<!-- Node3&#45;&gt;Node7 -->
<g id="edge6_Node000003_Node000007" class="edge">
<title>Node3&#45;&gt;Node7</title>
<g id="a_edge6_Node000003_Node000007"><a xlink:title=" ">
<path fill="none" stroke="#63b8ff" d="M272.95,-109.7C266.73,-101.01 257.46,-87.13 251.5,-74 244.95,-59.57 239.95,-42.3 236.73,-29.41"/>
<polygon fill="#63b8ff" stroke="#63b8ff" points="240.07,-28.32 234.36,-19.4 233.25,-29.94 240.07,-28.32"/>
</a>
</g>
</g>
<!-- Node8 -->
<g id="Node000008" class="node">
<title>Node8</title>
<g id="a_Node000008"><a xlink:title=" ">
<polygon fill="#e0e0e0" stroke="#999999" points="578,-74 531,-74 531,-55 578,-55 578,-74"/>
<text text-anchor="middle" x="554.5" y="-62" font-family="Helvetica,sans-Serif" font-size="10.00">vector</text>
</a>
</g>
</g>
<!-- Node3&#45;&gt;Node8 -->
<g id="edge7_Node000003_Node000008" class="edge">
<title>Node3&#45;&gt;Node8</title>
<g id="a_edge7_Node000003_Node000008"><a xlink:title=" ">
<path fill="none" stroke="#63b8ff" d="M332.11,-109.92C379.07,-102.02 449.91,-89.49 520.76,-74.03"/>
<polygon fill="#63b8ff" stroke="#63b8ff" points="521.74,-77.4 530.75,-71.83 520.24,-70.56 521.74,-77.4"/>
</a>
</g>
</g>
<!-- Node9 -->
<g id="Node000009" class="node">
<title>Node9</title>
<g id="a_Node000009"><a xlink:title=" ">
<polygon fill="#e0e0e0" stroke="#999999" points="392,-74 261,-74 261,-55 392,-55 392,-74"/>
<text text-anchor="middle" x="326.5" y="-62" font-family="Helvetica,sans-Serif" font-size="10.00">opencv2/core/matx.hpp</text>
</a>
</g>
</g>
<!-- Node3&#45;&gt;Node9 -->
<g id="edge8_Node000003_Node000009" class="edge">
<title>Node3&#45;&gt;Node9</title>
<g id="a_edge8_Node000003_Node000009"><a xlink:title=" ">
<path fill="none" stroke="#63b8ff" d="M287.26,-109.75C293.97,-102.18 303.84,-91.05 312.01,-81.84"/>
<polygon fill="#63b8ff" stroke="#63b8ff" points="314.87,-83.89 318.88,-74.09 309.63,-79.25 314.87,-83.89"/>
</a>
</g>
</g>
<!-- Node10 -->
<g id="Node000010" class="node">
<title>Node10</title>
<g id="a_Node000010"><a xlink:href="../../d0/d3f/util_8hpp.html" target="_top" xlink:title=" ">
<polygon fill="white" stroke="#666666" points="513,-74 410,-74 410,-55 513,-55 513,-74"/>
<text text-anchor="middle" x="461.5" y="-62" font-family="Helvetica,sans-Serif" font-size="10.00">rmvl/core/util.hpp</text>
</a>
</g>
</g>
<!-- Node3&#45;&gt;Node10 -->
<g id="edge9_Node000003_Node000010" class="edge">
<title>Node3&#45;&gt;Node10</title>
<g id="a_edge9_Node000003_Node000010"><a xlink:title=" ">
<path fill="none" stroke="#63b8ff" d="M308.74,-109.98C339.56,-101.01 388.28,-86.82 422.39,-76.89"/>
<polygon fill="#63b8ff" stroke="#63b8ff" points="423.41,-80.24 432.03,-74.08 421.45,-73.52 423.41,-80.24"/>
</a>
</g>
</g>
<!-- Node11 -->
<g id="Node000011" class="node">
<title>Node11</title>
<g id="a_Node000011"><a xlink:title=" ">
<polygon fill="#e0e0e0" stroke="#999999" points="430,-19 297,-19 297,0 430,0 430,-19"/>
<text text-anchor="middle" x="363.5" y="-7" font-family="Helvetica,sans-Serif" font-size="10.00">rmvl/rmvl_modules.hpp</text>
</a>
</g>
</g>
<!-- Node10&#45;&gt;Node11 -->
<g id="edge10_Node000010_Node000011" class="edge">
<title>Node10&#45;&gt;Node11</title>
<g id="a_edge10_Node000010_Node000011"><a xlink:title=" ">
<path fill="none" stroke="#63b8ff" d="M445.75,-54.98C430.27,-46.61 406.41,-33.7 388.36,-23.95"/>
<polygon fill="#63b8ff" stroke="#63b8ff" points="389.99,-20.85 379.53,-19.17 386.66,-27.01 389.99,-20.85"/>
</a>
</g>
</g>
<!-- Node12 -->
<g id="Node000012" class="node">
<title>Node12</title>
<g id="a_Node000012"><a xlink:title=" ">
<polygon fill="#e0e0e0" stroke="#999999" points="498.5,-19 448.5,-19 448.5,0 498.5,0 498.5,-19"/>
<text text-anchor="middle" x="473.5" y="-7" font-family="Helvetica,sans-Serif" font-size="10.00">cstdint</text>
</a>
</g>
</g>
<!-- Node10&#45;&gt;Node12 -->
<g id="edge11_Node000010_Node000012" class="edge">
<title>Node10&#45;&gt;Node12</title>
<g id="a_edge11_Node000010_Node000012"><a xlink:title=" ">
<path fill="none" stroke="#63b8ff" d="M463.48,-54.75C465.07,-47.72 467.36,-37.62 469.35,-28.84"/>
<polygon fill="#63b8ff" stroke="#63b8ff" points="472.76,-29.62 471.56,-19.09 465.93,-28.07 472.76,-29.62"/>
</a>
</g>
</g>
<!-- Node13 -->
<g id="Node000013" class="node">
<title>Node13</title>
<g id="a_Node000013"><a xlink:title=" ">
<polygon fill="#e0e0e0" stroke="#999999" points="562.5,-19 516.5,-19 516.5,0 562.5,0 562.5,-19"/>
<text text-anchor="middle" x="539.5" y="-7" font-family="Helvetica,sans-Serif" font-size="10.00">cstdio</text>
</a>
</g>
</g>
<!-- Node10&#45;&gt;Node13 -->
<g id="edge12_Node000010_Node000013" class="edge">
<title>Node10&#45;&gt;Node13</title>
<g id="a_edge12_Node000010_Node000013"><a xlink:title=" ">
<path fill="none" stroke="#63b8ff" d="M474.03,-54.98C485.9,-46.92 503.96,-34.65 518.11,-25.03"/>
<polygon fill="#63b8ff" stroke="#63b8ff" points="520.44,-27.69 526.74,-19.17 516.5,-21.9 520.44,-27.69"/>
</a>
</g>
</g>
<!-- Node14 -->
<g id="Node000014" class="node">
<title>Node14</title>
<g id="a_Node000014"><a xlink:title=" ">
<polygon fill="#e0e0e0" stroke="#999999" points="748.5,-19 704.5,-19 704.5,0 748.5,0 748.5,-19"/>
<text text-anchor="middle" x="726.5" y="-7" font-family="Helvetica,sans-Serif" font-size="10.00">string</text>
</a>
</g>
</g>
<!-- Node10&#45;&gt;Node14 -->
<g id="edge13_Node000010_Node000014" class="edge">
<title>Node10&#45;&gt;Node14</title>
<g id="a_edge13_Node000010_Node000014"><a xlink:title=" ">
<path fill="none" stroke="#63b8ff" d="M504.08,-54.98C557.12,-44.38 646.58,-26.48 694.28,-16.94"/>
<polygon fill="#63b8ff" stroke="#63b8ff" points="695.23,-20.32 704.35,-14.93 693.86,-13.46 695.23,-20.32"/>
</a>
</g>
</g>
<!-- Node15 -->
<g id="Node000015" class="node">
<title>Node15</title>
<g id="a_Node000015"><a xlink:href="../../db/d41/rmvldef_8hpp.html" target="_top" xlink:title=" ">
<polygon fill="white" stroke="#666666" points="842,-19 767,-19 767,0 842,0 842,-19"/>
<text text-anchor="middle" x="804.5" y="-7" font-family="Helvetica,sans-Serif" font-size="10.00">rmvldef.hpp</text>
</a>
</g>
</g>
<!-- Node10&#45;&gt;Node15 -->
<g id="edge14_Node000010_Node000015" class="edge">
<title>Node10&#45;&gt;Node15</title>
<g id="a_edge14_Node000010_Node000015"><a xlink:title=" ">
<path fill="none" stroke="#63b8ff" d="M513.27,-55.91C581.11,-45.93 697.47,-28.69 756.77,-19.07"/>
<polygon fill="#63b8ff" stroke="#63b8ff" points="757.51,-22.49 766.81,-17.42 756.37,-15.58 757.51,-22.49"/>
</a>
</g>
</g>
<!-- Node16&#45;&gt;Node15 -->
<g id="edge17_Node000016_Node000015" class="edge">
<title>Node16&#45;&gt;Node15</title>
<g id="a_edge17_Node000016_Node000015"><a xlink:title=" ">
<path fill="none" stroke="#63b8ff" d="M667.5,-109.98C643.97,-98.26 608.93,-76.2 625.5,-55 633.69,-44.53 706.57,-28.92 756.77,-19.24"/>
<polygon fill="#63b8ff" stroke="#63b8ff" points="757.63,-22.64 766.8,-17.33 756.32,-15.76 757.63,-22.64"/>
</a>
</g>
</g>
<!-- Node17 -->
<g id="Node000017" class="node">
<title>Node17</title>
<g id="a_Node000017"><a xlink:title=" ">
<polygon fill="#e0e0e0" stroke="#999999" points="738,-74 635,-74 635,-55 738,-55 738,-74"/>
<text text-anchor="middle" x="686.5" y="-62" font-family="Helvetica,sans-Serif" font-size="10.00">opencv2/core.hpp</text>
</a>
</g>
</g>
<!-- Node16&#45;&gt;Node17 -->
<g id="edge16_Node000016_Node000017" class="edge">
<title>Node16&#45;&gt;Node17</title>
<g id="a_edge16_Node000016_Node000017"><a xlink:title=" ">
<path fill="none" stroke="#63b8ff" d="M686.5,-109.75C686.5,-102.8 686.5,-92.85 686.5,-84.13"/>
<polygon fill="#63b8ff" stroke="#63b8ff" points="690,-84.09 686.5,-74.09 683,-84.09 690,-84.09"/>
</a>
</g>
</g>
<!-- Node18&#45;&gt;Node8 -->
<g id="edge24_Node000018_Node000008" class="edge">
<title>Node18&#45;&gt;Node8</title>
<g id="a_edge24_Node000018_Node000008"><a xlink:title=" ">
<path fill="none" stroke="#63b8ff" d="M793.71,-109.98C736.3,-99.31 639.23,-81.26 588.19,-71.76"/>
<polygon fill="#63b8ff" stroke="#63b8ff" points="588.79,-68.32 578.32,-69.93 587.51,-75.2 588.79,-68.32"/>
</a>
</g>
</g>
<!-- Node18&#45;&gt;Node14 -->
<g id="edge23_Node000018_Node000014" class="edge">
<title>Node18&#45;&gt;Node14</title>
<g id="a_edge23_Node000018_Node000014"><a xlink:title=" ">
<path fill="none" stroke="#63b8ff" d="M830.25,-109.66C811.12,-91.38 766.97,-49.18 742.89,-26.17"/>
<polygon fill="#63b8ff" stroke="#63b8ff" points="745.21,-23.54 735.56,-19.16 740.37,-28.6 745.21,-23.54"/>
</a>
</g>
</g>
<!-- Node18&#45;&gt;Node15 -->
<g id="edge25_Node000018_Node000015" class="edge">
<title>Node18&#45;&gt;Node15</title>
<g id="a_edge25_Node000018_Node000015"><a xlink:title=" ">
<path fill="none" stroke="#63b8ff" d="M836.17,-109.68C832.83,-100.74 827.61,-86.48 823.5,-74 818.55,-58.95 813.43,-41.72 809.75,-29.01"/>
<polygon fill="#63b8ff" stroke="#63b8ff" points="813.05,-27.82 806.93,-19.17 806.32,-29.75 813.05,-27.82"/>
</a>
</g>
</g>
<!-- Node19 -->
<g id="Node000019" class="node">
<title>Node19</title>
<g id="a_Node000019"><a xlink:title=" ">
<polygon fill="#e0e0e0" stroke="#999999" points="874.5,-74 832.5,-74 832.5,-55 874.5,-55 874.5,-74"/>
<text text-anchor="middle" x="853.5" y="-62" font-family="Helvetica,sans-Serif" font-size="10.00">array</text>
</a>
</g>
</g>
<!-- Node18&#45;&gt;Node19 -->
<g id="edge19_Node000018_Node000019" class="edge">
<title>Node18&#45;&gt;Node19</title>
<g id="a_edge19_Node000018_Node000019"><a xlink:title=" ">
<path fill="none" stroke="#63b8ff" d="M841.81,-109.75C843.67,-102.72 846.34,-92.62 848.65,-83.84"/>
<polygon fill="#63b8ff" stroke="#63b8ff" points="852.06,-84.65 851.23,-74.09 845.29,-82.86 852.06,-84.65"/>
</a>
</g>
</g>
<!-- Node20 -->
<g id="Node000020" class="node">
<title>Node20</title>
<g id="a_Node000020"><a xlink:title=" ">
<polygon fill="#e0e0e0" stroke="#999999" points="942.5,-74 892.5,-74 892.5,-55 942.5,-55 942.5,-74"/>
<text text-anchor="middle" x="917.5" y="-62" font-family="Helvetica,sans-Serif" font-size="10.00">cstring</text>
</a>
</g>
</g>
<!-- Node18&#45;&gt;Node20 -->
<g id="edge20_Node000018_Node000020" class="edge">
<title>Node18&#45;&gt;Node20</title>
<g id="a_edge20_Node000018_Node000020"><a xlink:title=" ">
<path fill="none" stroke="#63b8ff" d="M852.03,-109.98C863.9,-101.92 881.96,-89.65 896.11,-80.03"/>
<polygon fill="#63b8ff" stroke="#63b8ff" points="898.44,-82.69 904.74,-74.17 894.5,-76.9 898.44,-82.69"/>
</a>
</g>
</g>
<!-- Node21 -->
<g id="Node000021" class="node">
<title>Node21</title>
<g id="a_Node000021"><a xlink:title=" ">
<polygon fill="#e0e0e0" stroke="#999999" points="1008.5,-74 960.5,-74 960.5,-55 1008.5,-55 1008.5,-74"/>
<text text-anchor="middle" x="984.5" y="-62" font-family="Helvetica,sans-Serif" font-size="10.00">iosfwd</text>
</a>
</g>
</g>
<!-- Node18&#45;&gt;Node21 -->
<g id="edge21_Node000018_Node000021" class="edge">
<title>Node18&#45;&gt;Node21</title>
<g id="a_edge21_Node000018_Node000021"><a xlink:title=" ">
<path fill="none" stroke="#63b8ff" d="M862.8,-109.98C886.75,-101.23 924.28,-87.51 951.33,-77.62"/>
<polygon fill="#63b8ff" stroke="#63b8ff" points="952.59,-80.89 960.78,-74.17 950.19,-74.32 952.59,-80.89"/>
</a>
</g>
</g>
<!-- Node22 -->
<g id="Node000022" class="node">
<title>Node22</title>
<g id="a_Node000022"><a xlink:title=" ">
<polygon fill="#e0e0e0" stroke="#999999" points="1084.5,-74 1026.5,-74 1026.5,-55 1084.5,-55 1084.5,-74"/>
<text text-anchor="middle" x="1055.5" y="-62" font-family="Helvetica,sans-Serif" font-size="10.00">memory</text>
</a>
</g>
</g>
<!-- Node18&#45;&gt;Node22 -->
<g id="edge22_Node000018_Node000022" class="edge">
<title>Node18&#45;&gt;Node22</title>
<g id="a_edge22_Node000018_Node000022"><a xlink:title=" ">
<path fill="none" stroke="#63b8ff" d="M874.2,-109.98C913.12,-100.44 976.08,-84.99 1016.63,-75.04"/>
<polygon fill="#63b8ff" stroke="#63b8ff" points="1017.54,-78.42 1026.42,-72.63 1015.88,-71.62 1017.54,-78.42"/>
</a>
</g>
</g>
<!-- Node23&#45;&gt;Node22 -->
<g id="edge27_Node000023_Node000022" class="edge">
<title>Node23&#45;&gt;Node22</title>
<g id="a_edge27_Node000023_Node000022"><a xlink:title=" ">
<path fill="none" stroke="#63b8ff" d="M1069.69,-109.75C1067.44,-102.72 1064.2,-92.62 1061.38,-83.84"/>
<polygon fill="#63b8ff" stroke="#63b8ff" points="1064.64,-82.54 1058.25,-74.09 1057.98,-84.68 1064.64,-82.54"/>
</a>
</g>
</g>
<!-- Node24 -->
<g id="Node000024" class="node">
<title>Node24</title>
<g id="a_Node000024"><a xlink:title=" ">
<polygon fill="#e0e0e0" stroke="#999999" points="1236,-74 1103,-74 1103,-55 1236,-55 1236,-74"/>
<text text-anchor="middle" x="1169.5" y="-62" font-family="Helvetica,sans-Serif" font-size="10.00">opencv2/core/types.hpp</text>
</a>
</g>
</g>
<!-- Node23&#45;&gt;Node24 -->
<g id="edge28_Node000023_Node000024" class="edge">
<title>Node23&#45;&gt;Node24</title>
<g id="a_edge28_Node000023_Node000024"><a xlink:title=" ">
<path fill="none" stroke="#63b8ff" d="M1088.08,-109.98C1103.27,-101.69 1126.6,-88.94 1144.4,-79.22"/>
<polygon fill="#63b8ff" stroke="#63b8ff" points="1146.53,-82.04 1153.63,-74.17 1143.18,-75.89 1146.53,-82.04"/>
</a>
</g>
</g>
<!-- Node25 -->
<g id="Node000025" class="node">
<title>Node25</title>
<g id="a_Node000025"><a xlink:href="../../dd/de3/types_8hpp.html" target="_top" xlink:title="状态类型系统">
<polygon fill="white" stroke="#666666" points="1344.5,-74 1254.5,-74 1254.5,-55 1344.5,-55 1344.5,-74"/>
<text text-anchor="middle" x="1299.5" y="-62" font-family="Helvetica,sans-Serif" font-size="10.00">rmvl/types.hpp</text>
</a>
</g>
</g>
<!-- Node23&#45;&gt;Node25 -->
<g id="edge29_Node000023_Node000025" class="edge">
<title>Node23&#45;&gt;Node25</title>
<g id="a_edge29_Node000023_Node000025"><a xlink:title=" ">
<path fill="none" stroke="#63b8ff" d="M1108.97,-109.98C1148.07,-100.86 1210.27,-86.33 1252.89,-76.38"/>
<polygon fill="#63b8ff" stroke="#63b8ff" points="1253.8,-79.76 1262.74,-74.08 1252.21,-72.95 1253.8,-79.76"/>
</a>
</g>
</g>
<!-- Node25&#45;&gt;Node7 -->
<g id="edge32_Node000025_Node000007" class="edge">
<title>Node25&#45;&gt;Node7</title>
<g id="a_edge32_Node000025_Node000007"><a xlink:title=" ">
<path fill="none" stroke="#63b8ff" d="M1254.47,-56C1251.44,-55.62 1248.43,-55.28 1245.5,-55 824.73,-14.12 713.37,-58.9 289.34,-19.06"/>
<polygon fill="#63b8ff" stroke="#63b8ff" points="289.55,-15.56 279.26,-18.1 288.89,-22.53 289.55,-15.56"/>
</a>
</g>
</g>
<!-- Node25&#45;&gt;Node14 -->
<g id="edge30_Node000025_Node000014" class="edge">
<title>Node25&#45;&gt;Node14</title>
<g id="a_edge30_Node000025_Node000014"><a xlink:title=" ">
<path fill="none" stroke="#63b8ff" d="M1254.46,-56.13C1251.43,-55.72 1248.42,-55.34 1245.5,-55 1032.73,-30.45 973.6,-55.16 758.75,-18.87"/>
<polygon fill="#63b8ff" stroke="#63b8ff" points="759.18,-15.39 748.73,-17.15 758,-22.29 759.18,-15.39"/>
</a>
</g>
</g>
<!-- Node25&#45;&gt;Node15 -->
<g id="edge34_Node000025_Node000015" class="edge">
<title>Node25&#45;&gt;Node15</title>
<g id="a_edge34_Node000025_Node000015"><a xlink:title=" ">
<path fill="none" stroke="#63b8ff" d="M1254.45,-56.22C1251.42,-55.79 1248.42,-55.38 1245.5,-55 1102.89,-36.6 933.51,-21.35 852.42,-14.46"/>
<polygon fill="#63b8ff" stroke="#63b8ff" points="852.3,-10.93 842.04,-13.58 851.71,-17.91 852.3,-10.93"/>
</a>
</g>
</g>
<!-- Node26 -->
<g id="Node000026" class="node">
<title>Node26</title>
<g id="a_Node000026"><a xlink:title=" ">
<polygon fill="#e0e0e0" stroke="#999999" points="1296,-19 1223,-19 1223,0 1296,0 1296,-19"/>
<text text-anchor="middle" x="1259.5" y="-7" font-family="Helvetica,sans-Serif" font-size="10.00">string_view</text>
</a>
</g>
</g>
<!-- Node25&#45;&gt;Node26 -->
<g id="edge31_Node000025_Node000026" class="edge">
<title>Node25&#45;&gt;Node26</title>
<g id="a_edge31_Node000025_Node000026"><a xlink:title=" ">
<path fill="none" stroke="#63b8ff" d="M1292.89,-54.75C1287.24,-47.26 1278.96,-36.28 1272.05,-27.13"/>
<polygon fill="#63b8ff" stroke="#63b8ff" points="1274.8,-24.96 1265.98,-19.09 1269.21,-29.18 1274.8,-24.96"/>
</a>
</g>
</g>
<!-- Node27 -->
<g id="Node000027" class="node">
<title>Node27</title>
<g id="a_Node000027"><a xlink:title=" ">
<polygon fill="#e0e0e0" stroke="#999999" points="1365,-19 1314,-19 1314,0 1365,0 1365,-19"/>
<text text-anchor="middle" x="1339.5" y="-7" font-family="Helvetica,sans-Serif" font-size="10.00">variant</text>
</a>
</g>
</g>
<!-- Node25&#45;&gt;Node27 -->
<g id="edge33_Node000025_Node000027" class="edge">
<title>Node25&#45;&gt;Node27</title>
<g id="a_edge33_Node000025_Node000027"><a xlink:title=" ">
<path fill="none" stroke="#63b8ff" d="M1306.11,-54.75C1311.76,-47.26 1320.04,-36.28 1326.95,-27.13"/>
<polygon fill="#63b8ff" stroke="#63b8ff" points="1329.79,-29.18 1333.02,-19.09 1324.2,-24.96 1329.79,-29.18"/>
</a>
</g>
</g>
<!-- Node28&#45;&gt;Node23 -->
<g id="edge36_Node000028_Node000023" class="edge">
<title>Node28&#45;&gt;Node23</title>
<g id="a_edge36_Node000028_Node000023"><a xlink:title=" ">
<path fill="none" stroke="#63b8ff" d="M963.39,-164.98C984.58,-156.34 1017.63,-142.87 1041.8,-133.02"/>
<polygon fill="#63b8ff" stroke="#63b8ff" points="1043.29,-136.19 1051.23,-129.17 1040.65,-129.7 1043.29,-136.19"/>
</a>
</g>
</g>
<!-- Node29&#45;&gt;Node23 -->
<g id="edge38_Node000029_Node000023" class="edge">
<title>Node29&#45;&gt;Node23</title>
<g id="a_edge38_Node000029_Node000023"><a xlink:title=" ">
<path fill="none" stroke="#63b8ff" d="M1100.89,-164.75C1096.18,-157.42 1089.33,-146.73 1083.53,-137.7"/>
<polygon fill="#63b8ff" stroke="#63b8ff" points="1086.36,-135.62 1078.01,-129.09 1080.46,-139.4 1086.36,-135.62"/>
</a>
</g>
</g>
</g>
</svg>
