<?xml version="1.0" encoding="UTF-8" standalone="no"?>
<!DOCTYPE svg PUBLIC "-//W3C//DTD SVG 1.1//EN"
 "http://www.w3.org/Graphics/SVG/1.1/DTD/svg11.dtd">
<!-- Generated by graphviz version 2.43.0 (0)
 -->
<!-- Title: rm::msg::operator!= Pages: 1 -->
<svg width="250pt" height="45pt"
 viewBox="0.00 0.00 250.00 45.00" xmlns="http://www.w3.org/2000/svg" xmlns:xlink="http://www.w3.org/1999/xlink">
<g id="graph0" class="graph" transform="scale(1 1) rotate(0) translate(4 41)">
<title>rm::msg::operator!=</title>
<!-- Node1 -->
<g id="Node000001" class="node">
<title>Node1</title>
<g id="a_Node000001"><a xlink:title=" ">
<polygon fill="#999999" stroke="#666666" points="103,-19 0,-19 0,0 103,0 103,-19"/>
<text text-anchor="middle" x="51.5" y="-7" font-family="Helvetica,sans-Serif" font-size="10.00">rm::msg::operator!=</text>
</a>
</g>
</g>
<!-- Node2 -->
<g id="Node000002" class="node">
<title>Node2</title>
<g id="a_Node000002"><a xlink:href="../../de/dd0/namespacerm_1_1msg.html#a6acf98024a7ab4e97540843d07999280" target="_top" xlink:title=" ">
<polygon fill="white" stroke="#666666" points="242,-19 139,-19 139,0 242,0 242,-19"/>
<text text-anchor="middle" x="190.5" y="-7" font-family="Helvetica,sans-Serif" font-size="10.00">rm::msg::operator!=</text>
</a>
</g>
</g>
<!-- Node1&#45;&gt;Node2 -->
<g id="edge1_Node000001_Node000002" class="edge">
<title>Node1&#45;&gt;Node2</title>
<g id="a_edge1_Node000001_Node000002"><a xlink:title=" ">
<path fill="none" stroke="#63b8ff" d="M103.12,-9.5C111.36,-9.5 119.97,-9.5 128.42,-9.5"/>
<polygon fill="#63b8ff" stroke="#63b8ff" points="128.63,-13 138.63,-9.5 128.63,-6 128.63,-13"/>
</a>
</g>
</g>
<!-- Node2&#45;&gt;Node2 -->
<g id="edge2_Node000002_Node000002" class="edge">
<title>Node2&#45;&gt;Node2</title>
<g id="a_edge2_Node000002_Node000002"><a xlink:title=" ">
<path fill="none" stroke="#63b8ff" d="M169.23,-19.08C158.88,-27.73 165.97,-37 190.5,-37 206.21,-37 214.77,-33.2 216.17,-28.19"/>
<polygon fill="#63b8ff" stroke="#63b8ff" points="219.27,-26.56 211.77,-19.08 212.97,-29.61 219.27,-26.56"/>
</a>
</g>
</g>
</g>
</svg>
