<?xml version="1.0" encoding="UTF-8" standalone="no"?>
<!DOCTYPE svg PUBLIC "-//W3C//DTD SVG 1.1//EN"
 "http://www.w3.org/Graphics/SVG/1.1/DTD/svg11.dtd">
<!-- Generated by graphviz version 2.43.0 (0)
 -->
<!-- Title: rm::SerialPort::operator&gt;&gt; Pages: 1 -->
<svg width="299pt" height="64pt"
 viewBox="0.00 0.00 299.00 64.00" xmlns="http://www.w3.org/2000/svg" xmlns:xlink="http://www.w3.org/1999/xlink">
<g id="graph0" class="graph" transform="scale(1 1) rotate(0) translate(4 60)">
<title>rm::SerialPort::operator&gt;&gt;</title>
<!-- Node1 -->
<g id="Node000001" class="node">
<title>Node1</title>
<g id="a_Node000001"><a xlink:title=" ">
<polygon fill="#999999" stroke="#666666" points="130,-37 0,-37 0,-18 130,-18 130,-37"/>
<text text-anchor="middle" x="65" y="-25" font-family="Helvetica,sans-Serif" font-size="10.00">rm::SerialPort::operator&gt;&gt;</text>
</a>
</g>
</g>
<!-- Node2 -->
<g id="Node000002" class="node">
<title>Node2</title>
<g id="a_Node000002"><a xlink:href="../../d4/d98/classrm_1_1SerialPort.html#a6a84f3be4561ecd69896c6d17273e2d5" target="_top" xlink:title="从串口读取数据到聚合体中">
<polygon fill="white" stroke="#666666" points="279,-56 178,-56 178,-37 279,-37 279,-56"/>
<text text-anchor="middle" x="228.5" y="-44" font-family="Helvetica,sans-Serif" font-size="10.00">rm::SerialPort::read</text>
</a>
</g>
</g>
<!-- Node1&#45;&gt;Node2 -->
<g id="edge1_Node000001_Node000002" class="edge">
<title>Node1&#45;&gt;Node2</title>
<g id="a_edge1_Node000001_Node000002"><a xlink:title=" ">
<path fill="none" stroke="#63b8ff" d="M130.29,-35.06C142.66,-36.52 155.57,-38.04 167.79,-39.48"/>
<polygon fill="#63b8ff" stroke="#63b8ff" points="167.52,-42.97 177.86,-40.66 168.34,-36.02 167.52,-42.97"/>
</a>
</g>
</g>
<!-- Node3 -->
<g id="Node000003" class="node">
<title>Node3</title>
<g id="a_Node000003"><a xlink:href="../../d4/d98/classrm_1_1SerialPort.html#af123f2151d6759162b2d5f24e788c88e" target="_top" xlink:title="构造新 SerialPort 对象">
<polygon fill="white" stroke="#666666" points="291,-19 166,-19 166,0 291,0 291,-19"/>
<text text-anchor="middle" x="228.5" y="-7" font-family="Helvetica,sans-Serif" font-size="10.00">rm::SerialPort::SerialPort</text>
</a>
</g>
</g>
<!-- Node1&#45;&gt;Node3 -->
<g id="edge2_Node000001_Node000003" class="edge">
<title>Node1&#45;&gt;Node3</title>
<g id="a_edge2_Node000001_Node000003"><a xlink:title=" ">
<path fill="none" stroke="#63b8ff" d="M130.29,-20.33C138.61,-19.41 147.17,-18.45 155.6,-17.51"/>
<polygon fill="#63b8ff" stroke="#63b8ff" points="156.24,-20.96 165.79,-16.38 155.47,-14.01 156.24,-20.96"/>
</a>
</g>
</g>
</g>
</svg>
