<?xml version="1.0" encoding="UTF-8" standalone="no"?>
<!DOCTYPE svg PUBLIC "-//W3C//DTD SVG 1.1//EN"
 "http://www.w3.org/Graphics/SVG/1.1/DTD/svg11.dtd">
<!-- Generated by graphviz version 2.43.0 (0)
 -->
<!-- Title: rm::SerialPort::operator&gt;&gt; Pages: 1 -->
<svg width="485pt" height="82pt"
 viewBox="0.00 0.00 485.00 82.00" xmlns="http://www.w3.org/2000/svg" xmlns:xlink="http://www.w3.org/1999/xlink">
<g id="graph0" class="graph" transform="scale(1 1) rotate(0) translate(4 78)">
<title>rm::SerialPort::operator&gt;&gt;</title>
<!-- Node1 -->
<g id="Node000001" class="node">
<title>Node1</title>
<g id="a_Node000001"><a xlink:title=" ">
<polygon fill="#999999" stroke="#666666" points="147,-37 0,-37 0,-18 147,-18 147,-37"/>
<text text-anchor="middle" x="73.5" y="-25" font-family="Helvetica,sans-Serif" font-size="10.00">rm::SerialPort::operator&gt;&gt;</text>
</a>
</g>
</g>
<!-- Node2 -->
<g id="Node000002" class="node">
<title>Node2</title>
<g id="a_Node000002"><a xlink:href="../../d4/d98/classrm_1_1SerialPort.html#a6a84f3be4561ecd69896c6d17273e2d5" target="_top" xlink:title="从串口读取数据到聚合体中">
<polygon fill="white" stroke="#666666" points="307,-56 196,-56 196,-37 307,-37 307,-56"/>
<text text-anchor="middle" x="251.5" y="-44" font-family="Helvetica,sans-Serif" font-size="10.00">rm::SerialPort::read</text>
</a>
</g>
</g>
<!-- Node1&#45;&gt;Node2 -->
<g id="edge1_Node000001_Node000002" class="edge">
<title>Node1&#45;&gt;Node2</title>
<g id="a_edge1_Node000001_Node000002"><a xlink:title=" ">
<path fill="none" stroke="#63b8ff" d="M147.1,-35.34C159.95,-36.73 173.26,-38.16 185.87,-39.52"/>
<polygon fill="#63b8ff" stroke="#63b8ff" points="185.5,-43 195.81,-40.6 186.25,-36.04 185.5,-43"/>
</a>
</g>
</g>
<!-- Node4 -->
<g id="Node000004" class="node">
<title>Node4</title>
<g id="a_Node000004"><a xlink:href="../../d4/d98/classrm_1_1SerialPort.html#ab686e2c4569b44a6a37981a9d5655a5e" target="_top" xlink:title="构造新串口对象">
<polygon fill="white" stroke="#666666" points="320,-19 183,-19 183,0 320,0 320,-19"/>
<text text-anchor="middle" x="251.5" y="-7" font-family="Helvetica,sans-Serif" font-size="10.00">rm::SerialPort::SerialPort</text>
</a>
</g>
</g>
<!-- Node1&#45;&gt;Node4 -->
<g id="edge4_Node000001_Node000004" class="edge">
<title>Node1&#45;&gt;Node4</title>
<g id="a_edge4_Node000001_Node000004"><a xlink:title=" ">
<path fill="none" stroke="#63b8ff" d="M147.1,-20.07C155.61,-19.2 164.31,-18.31 172.89,-17.44"/>
<polygon fill="#63b8ff" stroke="#63b8ff" points="173.28,-20.92 182.87,-16.42 172.56,-13.95 173.28,-20.92"/>
</a>
</g>
</g>
<!-- Node3 -->
<g id="Node000003" class="node">
<title>Node3</title>
<g id="a_Node000003"><a xlink:href="../../d4/d98/classrm_1_1SerialPort.html#a1c11b6246034ccbec3b27a2f15da2b50" target="_top" xlink:title="读取数据（基于文件描述符）">
<polygon fill="white" stroke="#666666" points="477,-56 356,-56 356,-37 477,-37 477,-56"/>
<text text-anchor="middle" x="416.5" y="-44" font-family="Helvetica,sans-Serif" font-size="10.00">rm::SerialPort::fdread</text>
</a>
</g>
</g>
<!-- Node2&#45;&gt;Node3 -->
<g id="edge2_Node000002_Node000003" class="edge">
<title>Node2&#45;&gt;Node3</title>
<g id="a_edge2_Node000002_Node000003"><a xlink:title=" ">
<path fill="none" stroke="#63b8ff" d="M307.23,-46.5C319.56,-46.5 332.82,-46.5 345.67,-46.5"/>
<polygon fill="#63b8ff" stroke="#63b8ff" points="345.88,-50 355.88,-46.5 345.88,-43 345.88,-50"/>
</a>
</g>
</g>
<!-- Node3&#45;&gt;Node3 -->
<g id="edge3_Node000003_Node000003" class="edge">
<title>Node3&#45;&gt;Node3</title>
<g id="a_edge3_Node000003_Node000003"><a xlink:title=" ">
<path fill="none" stroke="#63b8ff" d="M391.22,-56.08C378.93,-64.73 387.35,-74 416.5,-74 435.63,-74 445.83,-70.01 447.11,-64.82"/>
<polygon fill="#63b8ff" stroke="#63b8ff" points="449.98,-62.79 441.78,-56.08 444,-66.44 449.98,-62.79"/>
</a>
</g>
</g>
</g>
</svg>
