<?xml version="1.0" encoding="UTF-8" standalone="no"?>
<!DOCTYPE svg PUBLIC "-//W3C//DTD SVG 1.1//EN"
 "http://www.w3.org/Graphics/SVG/1.1/DTD/svg11.dtd">
<!-- Generated by graphviz version 2.43.0 (0)
 -->
<!-- Title: 图像轮廓特征（数据组件） Pages: 1 -->
<svg width="324pt" height="175pt"
 viewBox="0.00 0.00 324.00 175.00" xmlns="http://www.w3.org/2000/svg" xmlns:xlink="http://www.w3.org/1999/xlink">
<g id="graph0" class="graph" transform="scale(1 1) rotate(0) translate(4 171)">
<title>图像轮廓特征（数据组件）</title>
<polygon fill="white" stroke="transparent" points="-4,4 -4,-171 320,-171 320,4 -4,4"/>
<!-- Node4 -->
<g id="node1" class="node">
<title>Node4</title>
<g id="a_node1"><a xlink:href="../../dc/db0/group__rune__center.html" target="_top" xlink:title=" ">
<polygon fill="white" stroke="black" points="290.5,-167 195.5,-167 195.5,-148 290.5,-148 290.5,-167"/>
<text text-anchor="middle" x="243" y="-155" font-family="Helvetica,sans-Serif" font-size="10.00">神符旋转中心特征</text>
</a>
</g>
</g>
<!-- Node6 -->
<g id="node2" class="node">
<title>Node6</title>
<g id="a_node2"><a xlink:href="../../da/daa/group__tag.html" target="_top" xlink:title=" ">
<polygon fill="white" stroke="black" points="316,-130 170,-130 170,-111 316,-111 316,-130"/>
<text text-anchor="middle" x="243" y="-118" font-family="Helvetica,sans-Serif" font-size="10.00">AprilTag(Tag25h9) 视觉标签</text>
</a>
</g>
</g>
<!-- Node3 -->
<g id="node3" class="node">
<title>Node3</title>
<g id="a_node3"><a xlink:href="../../da/d44/group__pilot.html" target="_top" xlink:title=" ">
<polygon fill="white" stroke="black" points="295,-93 191,-93 191,-74 295,-74 295,-93"/>
<text text-anchor="middle" x="243" y="-81" font-family="Helvetica,sans-Serif" font-size="10.00">前哨、基地的引导灯</text>
</a>
</g>
</g>
<!-- Node1 -->
<g id="node4" class="node">
<title>Node1</title>
<g id="a_node4"><a xlink:title=" ">
<polygon fill="#bfbfbf" stroke="black" points="134,-93 0,-93 0,-74 134,-74 134,-93"/>
<text text-anchor="middle" x="67" y="-81" font-family="Helvetica,sans-Serif" font-size="10.00">图像轮廓特征（数据组件）</text>
</a>
</g>
</g>
<!-- Node1&#45;&gt;Node4 -->
<g id="edge3" class="edge">
<title>Node1&#45;&gt;Node4</title>
<path fill="none" stroke="black" d="M91.11,-98.44C111.26,-110.91 141.62,-128.38 170,-139.5 178.28,-142.74 187.32,-145.55 196.12,-147.91"/>
<polygon fill="black" stroke="black" points="92.95,-95.46 82.62,-93.11 89.22,-101.39 92.95,-95.46"/>
</g>
<!-- Node1&#45;&gt;Node6 -->
<g id="edge5" class="edge">
<title>Node1&#45;&gt;Node6</title>
<path fill="none" stroke="black" d="M122.8,-95.15C146.7,-100.23 174.37,-106.12 197.04,-110.94"/>
<polygon fill="black" stroke="black" points="123.32,-91.68 112.81,-93.03 121.86,-98.53 123.32,-91.68"/>
</g>
<!-- Node1&#45;&gt;Node3 -->
<g id="edge2" class="edge">
<title>Node1&#45;&gt;Node3</title>
<path fill="none" stroke="black" d="M144.48,-83.5C160.15,-83.5 176.27,-83.5 190.79,-83.5"/>
<polygon fill="black" stroke="black" points="144.28,-80 134.28,-83.5 144.28,-87 144.28,-80"/>
</g>
<!-- Node5 -->
<g id="node5" class="node">
<title>Node5</title>
<g id="a_node5"><a xlink:href="../../dd/da3/group__rune__target.html" target="_top" xlink:title=" ">
<polygon fill="white" stroke="black" points="280.5,-56 205.5,-56 205.5,-37 280.5,-37 280.5,-56"/>
<text text-anchor="middle" x="243" y="-44" font-family="Helvetica,sans-Serif" font-size="10.00">神符靶心特征</text>
</a>
</g>
</g>
<!-- Node1&#45;&gt;Node5 -->
<g id="edge4" class="edge">
<title>Node1&#45;&gt;Node5</title>
<path fill="none" stroke="black" d="M122.85,-71.84C149.71,-66.12 181.34,-59.4 205.26,-54.31"/>
<polygon fill="black" stroke="black" points="121.86,-68.47 112.81,-73.97 123.32,-75.32 121.86,-68.47"/>
</g>
<!-- Node2 -->
<g id="node6" class="node">
<title>Node2</title>
<g id="a_node6"><a xlink:href="../../d5/d68/group__light__blob.html" target="_top" xlink:title=" ">
<polygon fill="white" stroke="black" points="280.5,-19 205.5,-19 205.5,0 280.5,0 280.5,-19"/>
<text text-anchor="middle" x="243" y="-7" font-family="Helvetica,sans-Serif" font-size="10.00">装甲模块灯条</text>
</a>
</g>
</g>
<!-- Node1&#45;&gt;Node2 -->
<g id="edge1" class="edge">
<title>Node1&#45;&gt;Node2</title>
<path fill="none" stroke="black" d="M91.81,-68.56C112,-56.42 142.06,-39.54 170,-28.5 181.18,-24.08 193.74,-20.37 205.2,-17.43"/>
<polygon fill="black" stroke="black" points="89.72,-65.74 83.01,-73.94 93.36,-71.72 89.72,-65.74"/>
</g>
</g>
</svg>
