<?xml version="1.0" encoding="UTF-8" standalone="no"?>
<!DOCTYPE svg PUBLIC "-//W3C//DTD SVG 1.1//EN"
 "http://www.w3.org/Graphics/SVG/1.1/DTD/svg11.dtd">
<!-- Generated by graphviz version 2.43.0 (0)
 -->
<!-- Title: rmvl/group/gyro_group.h Pages: 1 -->
<svg width="1122pt" height="423pt"
 viewBox="0.00 0.00 1122.00 423.00" xmlns="http://www.w3.org/2000/svg" xmlns:xlink="http://www.w3.org/1999/xlink">
<g id="graph0" class="graph" transform="scale(1 1) rotate(0) translate(4 419)">
<title>rmvl/group/gyro_group.h</title>
<!-- Node1 -->
<g id="Node000001" class="node">
<title>Node1</title>
<g id="a_Node000001"><a xlink:title="装甲序列组头文件">
<polygon fill="#999999" stroke="#666666" points="567,-415 430,-415 430,-396 567,-396 567,-415"/>
<text text-anchor="middle" x="498.5" y="-403" font-family="Helvetica,sans-Serif" font-size="10.00">rmvl/group/gyro_group.h</text>
</a>
</g>
</g>
<!-- Node2 -->
<g id="Node000002" class="node">
<title>Node2</title>
<g id="a_Node000002"><a xlink:title=" ">
<polygon fill="#e0e0e0" stroke="#999999" points="129.5,-360 43.5,-360 43.5,-341 129.5,-341 129.5,-360"/>
<text text-anchor="middle" x="86.5" y="-348" font-family="Helvetica,sans-Serif" font-size="10.00">unordered_set</text>
</a>
</g>
</g>
<!-- Node1&#45;&gt;Node2 -->
<g id="edge1_Node000001_Node000002" class="edge">
<title>Node1&#45;&gt;Node2</title>
<g id="a_edge1_Node000001_Node000002"><a xlink:title=" ">
<path fill="none" stroke="#63b8ff" d="M429.71,-396.81C359.38,-388.76 246.72,-375.35 139.62,-360.11"/>
<polygon fill="#63b8ff" stroke="#63b8ff" points="140.01,-356.63 129.61,-358.68 139.01,-363.56 140.01,-356.63"/>
</a>
</g>
</g>
<!-- Node3 -->
<g id="Node000003" class="node">
<title>Node3</title>
<g id="a_Node000003"><a xlink:href="../../db/d0f/kalman_8hpp.html" target="_top" xlink:title="包含轻量级 cv::Matx 的卡尔曼滤波模块">
<polygon fill="white" stroke="#666666" points="297,-360 148,-360 148,-341 297,-341 297,-360"/>
<text text-anchor="middle" x="222.5" y="-348" font-family="Helvetica,sans-Serif" font-size="10.00">rmvl/algorithm/kalman.hpp</text>
</a>
</g>
</g>
<!-- Node1&#45;&gt;Node3 -->
<g id="edge2_Node000001_Node000003" class="edge">
<title>Node1&#45;&gt;Node3</title>
<g id="a_edge2_Node000001_Node000003"><a xlink:title=" ">
<path fill="none" stroke="#63b8ff" d="M454.16,-395.98C406.01,-386.74 329.08,-371.97 277.21,-362.01"/>
<polygon fill="#63b8ff" stroke="#63b8ff" points="277.67,-358.53 267.19,-360.08 276.35,-365.41 277.67,-358.53"/>
</a>
</g>
</g>
<!-- Node6 -->
<g id="Node000006" class="node">
<title>Node6</title>
<g id="a_Node000006"><a xlink:href="../../d9/dd1/group_8h.html" target="_top" xlink:title="序列组抽象头文件">
<polygon fill="white" stroke="#666666" points="553.5,-360 443.5,-360 443.5,-341 553.5,-341 553.5,-360"/>
<text text-anchor="middle" x="498.5" y="-348" font-family="Helvetica,sans-Serif" font-size="10.00">rmvl/group/group.h</text>
</a>
</g>
</g>
<!-- Node1&#45;&gt;Node6 -->
<g id="edge5_Node000001_Node000006" class="edge">
<title>Node1&#45;&gt;Node6</title>
<g id="a_edge5_Node000001_Node000006"><a xlink:title=" ">
<path fill="none" stroke="#63b8ff" d="M498.5,-395.75C498.5,-388.8 498.5,-378.85 498.5,-370.13"/>
<polygon fill="#63b8ff" stroke="#63b8ff" points="502,-370.09 498.5,-360.09 495,-370.09 502,-370.09"/>
</a>
</g>
</g>
<!-- Node30 -->
<g id="Node000030" class="node">
<title>Node30</title>
<g id="a_Node000030"><a xlink:href="../../d5/d60/utils_8h.html" target="_top" xlink:title=" ">
<polygon fill="white" stroke="#666666" points="705.5,-305 577.5,-305 577.5,-286 705.5,-286 705.5,-305"/>
<text text-anchor="middle" x="641.5" y="-293" font-family="Helvetica,sans-Serif" font-size="10.00">rmvl/group/gyro/utils.h</text>
</a>
</g>
</g>
<!-- Node1&#45;&gt;Node30 -->
<g id="edge33_Node000001_Node000030" class="edge">
<title>Node1&#45;&gt;Node30</title>
<g id="a_edge33_Node000001_Node000030"><a xlink:title=" ">
<path fill="none" stroke="#63b8ff" d="M511.44,-395.89C524.5,-387.11 545.16,-372.97 562.5,-360 583.66,-344.17 607.18,-325.06 623.01,-311.96"/>
<polygon fill="#63b8ff" stroke="#63b8ff" points="625.5,-314.45 630.95,-305.37 621.02,-309.07 625.5,-314.45"/>
</a>
</g>
</g>
<!-- Node31 -->
<g id="Node000031" class="node">
<title>Node31</title>
<g id="a_Node000031"><a xlink:href="../../db/d38/ara_2group_2gyro__group_8h.html" target="_top" xlink:title="GyroGroupParam module header file (Generated by CMake automatically)">
<polygon fill="white" stroke="#666666" points="911.5,-250 795.5,-250 795.5,-220 911.5,-220 911.5,-250"/>
<text text-anchor="start" x="803.5" y="-238" font-family="Helvetica,sans-Serif" font-size="10.00">rmvlpara/group/gyro</text>
<text text-anchor="middle" x="853.5" y="-227" font-family="Helvetica,sans-Serif" font-size="10.00">_group.h</text>
</a>
</g>
</g>
<!-- Node1&#45;&gt;Node31 -->
<g id="edge36_Node000001_Node000031" class="edge">
<title>Node1&#45;&gt;Node31</title>
<g id="a_edge36_Node000001_Node000031"><a xlink:title=" ">
<path fill="none" stroke="#63b8ff" d="M517.66,-395.9C555.46,-378.88 642.25,-339.57 714.5,-305 749.33,-288.34 788.72,-268.71 816.65,-254.66"/>
<polygon fill="#63b8ff" stroke="#63b8ff" points="818.31,-257.74 825.66,-250.12 815.16,-251.49 818.31,-257.74"/>
</a>
</g>
</g>
<!-- Node4 -->
<g id="Node000004" class="node">
<title>Node4</title>
<g id="a_Node000004"><a xlink:title=" ">
<polygon fill="#e0e0e0" stroke="#999999" points="65,-305 0,-305 0,-286 65,-286 65,-305"/>
<text text-anchor="middle" x="32.5" y="-293" font-family="Helvetica,sans-Serif" font-size="10.00">functional</text>
</a>
</g>
</g>
<!-- Node3&#45;&gt;Node4 -->
<g id="edge3_Node000003_Node000004" class="edge">
<title>Node3&#45;&gt;Node4</title>
<g id="a_edge3_Node000003_Node000004"><a xlink:title=" ">
<path fill="none" stroke="#63b8ff" d="M191.97,-340.98C159.8,-332.01 108.94,-317.82 73.33,-307.89"/>
<polygon fill="#63b8ff" stroke="#63b8ff" points="73.84,-304.4 63.27,-305.08 71.96,-311.14 73.84,-304.4"/>
</a>
</g>
</g>
<!-- Node5 -->
<g id="Node000005" class="node">
<title>Node5</title>
<g id="a_Node000005"><a xlink:title=" ">
<polygon fill="#e0e0e0" stroke="#999999" points="145,-129 42,-129 42,-110 145,-110 145,-129"/>
<text text-anchor="middle" x="93.5" y="-117" font-family="Helvetica,sans-Serif" font-size="10.00">opencv2/core.hpp</text>
</a>
</g>
</g>
<!-- Node3&#45;&gt;Node5 -->
<g id="edge4_Node000003_Node000005" class="edge">
<title>Node3&#45;&gt;Node5</title>
<g id="a_edge4_Node000003_Node000005"><a xlink:title=" ">
<path fill="none" stroke="#63b8ff" d="M215.29,-340.74C196.03,-316.96 142.83,-248.65 112.5,-184 105.7,-169.5 100.67,-151.99 97.51,-139.03"/>
<polygon fill="#63b8ff" stroke="#63b8ff" points="100.85,-137.97 95.2,-129.01 94.03,-139.54 100.85,-137.97"/>
</a>
</g>
</g>
<!-- Node7 -->
<g id="Node000007" class="node">
<title>Node7</title>
<g id="a_Node000007"><a xlink:href="../../dc/ded/tracker_8h.html" target="_top" xlink:title="追踪器抽象头文件">
<polygon fill="white" stroke="#666666" points="559,-305 438,-305 438,-286 559,-286 559,-305"/>
<text text-anchor="middle" x="498.5" y="-293" font-family="Helvetica,sans-Serif" font-size="10.00">rmvl/tracker/tracker.h</text>
</a>
</g>
</g>
<!-- Node6&#45;&gt;Node7 -->
<g id="edge6_Node000006_Node000007" class="edge">
<title>Node6&#45;&gt;Node7</title>
<g id="a_edge6_Node000006_Node000007"><a xlink:title=" ">
<path fill="none" stroke="#63b8ff" d="M498.5,-340.75C498.5,-333.8 498.5,-323.85 498.5,-315.13"/>
<polygon fill="#63b8ff" stroke="#63b8ff" points="502,-315.09 498.5,-305.09 495,-315.09 502,-315.09"/>
</a>
</g>
</g>
<!-- Node8 -->
<g id="Node000008" class="node">
<title>Node8</title>
<g id="a_Node000008"><a xlink:title=" ">
<polygon fill="#e0e0e0" stroke="#999999" points="645,-244.5 598,-244.5 598,-225.5 645,-225.5 645,-244.5"/>
<text text-anchor="middle" x="621.5" y="-232.5" font-family="Helvetica,sans-Serif" font-size="10.00">deque</text>
</a>
</g>
</g>
<!-- Node7&#45;&gt;Node8 -->
<g id="edge7_Node000007_Node000008" class="edge">
<title>Node7&#45;&gt;Node8</title>
<g id="a_edge7_Node000007_Node000008"><a xlink:title=" ">
<path fill="none" stroke="#63b8ff" d="M516.39,-285.99C536.88,-276.25 570.69,-260.16 594.42,-248.88"/>
<polygon fill="#63b8ff" stroke="#63b8ff" points="596.07,-251.97 603.59,-244.52 593.06,-245.65 596.07,-251.97"/>
</a>
</g>
</g>
<!-- Node9 -->
<g id="Node000009" class="node">
<title>Node9</title>
<g id="a_Node000009"><a xlink:href="../../d8/d36/combo_8h.html" target="_top" xlink:title="the combination of the features header file">
<polygon fill="white" stroke="#666666" points="558.5,-244.5 438.5,-244.5 438.5,-225.5 558.5,-225.5 558.5,-244.5"/>
<text text-anchor="middle" x="498.5" y="-232.5" font-family="Helvetica,sans-Serif" font-size="10.00">rmvl/combo/combo.h</text>
</a>
</g>
</g>
<!-- Node7&#45;&gt;Node9 -->
<g id="edge8_Node000007_Node000009" class="edge">
<title>Node7&#45;&gt;Node9</title>
<g id="a_edge8_Node000007_Node000009"><a xlink:title=" ">
<path fill="none" stroke="#63b8ff" d="M498.5,-285.87C498.5,-277.75 498.5,-265.31 498.5,-254.89"/>
<polygon fill="#63b8ff" stroke="#63b8ff" points="502,-254.67 498.5,-244.67 495,-254.67 502,-254.67"/>
</a>
</g>
</g>
<!-- Node10 -->
<g id="Node000010" class="node">
<title>Node10</title>
<g id="a_Node000010"><a xlink:href="../../d3/d7e/camutils_8hpp.html" target="_top" xlink:title=" ">
<polygon fill="white" stroke="#666666" points="267,-184 122,-184 122,-165 267,-165 267,-184"/>
<text text-anchor="middle" x="194.5" y="-172" font-family="Helvetica,sans-Serif" font-size="10.00">rmvl/camera/camutils.hpp</text>
</a>
</g>
</g>
<!-- Node9&#45;&gt;Node10 -->
<g id="edge9_Node000009_Node000010" class="edge">
<title>Node9&#45;&gt;Node10</title>
<g id="a_edge9_Node000009_Node000010"><a xlink:title=" ">
<path fill="none" stroke="#63b8ff" d="M454.3,-225.49C399.81,-215.01 307.26,-197.2 248.59,-185.91"/>
<polygon fill="#63b8ff" stroke="#63b8ff" points="249.24,-182.47 238.76,-184.02 247.92,-189.34 249.24,-182.47"/>
</a>
</g>
</g>
<!-- Node11 -->
<g id="Node000011" class="node">
<title>Node11</title>
<g id="a_Node000011"><a xlink:href="../../d4/d78/math_8hpp.html" target="_top" xlink:title="基础数学库">
<polygon fill="white" stroke="#666666" points="568,-184 429,-184 429,-165 568,-165 568,-184"/>
<text text-anchor="middle" x="498.5" y="-172" font-family="Helvetica,sans-Serif" font-size="10.00">rmvl/algorithm/math.hpp</text>
</a>
</g>
</g>
<!-- Node9&#45;&gt;Node11 -->
<g id="edge11_Node000009_Node000011" class="edge">
<title>Node9&#45;&gt;Node11</title>
<g id="a_edge11_Node000009_Node000011"><a xlink:title=" ">
<path fill="none" stroke="#63b8ff" d="M498.5,-225.37C498.5,-217.25 498.5,-204.81 498.5,-194.39"/>
<polygon fill="#63b8ff" stroke="#63b8ff" points="502,-194.17 498.5,-184.17 495,-194.17 502,-194.17"/>
</a>
</g>
</g>
<!-- Node23 -->
<g id="Node000023" class="node">
<title>Node23</title>
<g id="a_Node000023"><a xlink:href="../../dd/de3/types_8hpp.html" target="_top" xlink:title="常用状态类型定义">
<polygon fill="white" stroke="#666666" points="886.5,-129 796.5,-129 796.5,-110 886.5,-110 886.5,-129"/>
<text text-anchor="middle" x="841.5" y="-117" font-family="Helvetica,sans-Serif" font-size="10.00">rmvl/types.hpp</text>
</a>
</g>
</g>
<!-- Node9&#45;&gt;Node23 -->
<g id="edge23_Node000009_Node000023" class="edge">
<title>Node9&#45;&gt;Node23</title>
<g id="a_edge23_Node000009_Node000023"><a xlink:title=" ">
<path fill="none" stroke="#63b8ff" d="M524.28,-225.47C584.87,-205.42 736.42,-155.27 805.8,-132.31"/>
<polygon fill="#63b8ff" stroke="#63b8ff" points="807.03,-135.59 815.42,-129.13 804.83,-128.95 807.03,-135.59"/>
</a>
</g>
</g>
<!-- Node24 -->
<g id="Node000024" class="node">
<title>Node24</title>
<g id="a_Node000024"><a xlink:href="../../d5/d60/dataio_8hpp.html" target="_top" xlink:title="陀螺仪数据">
<polygon fill="white" stroke="#666666" points="403.5,-184 285.5,-184 285.5,-165 403.5,-165 403.5,-184"/>
<text text-anchor="middle" x="344.5" y="-172" font-family="Helvetica,sans-Serif" font-size="10.00">rmvl/core/dataio.hpp</text>
</a>
</g>
</g>
<!-- Node9&#45;&gt;Node24 -->
<g id="edge25_Node000009_Node000024" class="edge">
<title>Node9&#45;&gt;Node24</title>
<g id="a_edge25_Node000009_Node000024"><a xlink:title=" ">
<path fill="none" stroke="#63b8ff" d="M476.11,-225.49C449.88,-215.53 406.22,-198.95 376.44,-187.63"/>
<polygon fill="#63b8ff" stroke="#63b8ff" points="377.51,-184.3 366.92,-184.02 375.03,-190.84 377.51,-184.3"/>
</a>
</g>
</g>
<!-- Node27 -->
<g id="Node000027" class="node">
<title>Node27</title>
<g id="a_Node000027"><a xlink:href="../../d2/d74/feature_8h.html" target="_top" xlink:title="feature class header">
<polygon fill="white" stroke="#666666" points="933,-184 808,-184 808,-165 933,-165 933,-184"/>
<text text-anchor="middle" x="870.5" y="-172" font-family="Helvetica,sans-Serif" font-size="10.00">rmvl/feature/feature.h</text>
</a>
</g>
</g>
<!-- Node9&#45;&gt;Node27 -->
<g id="edge29_Node000009_Node000027" class="edge">
<title>Node9&#45;&gt;Node27</title>
<g id="a_edge29_Node000009_Node000027"><a xlink:title=" ">
<path fill="none" stroke="#63b8ff" d="M552.59,-225.49C619.81,-214.92 734.4,-196.9 806.09,-185.63"/>
<polygon fill="#63b8ff" stroke="#63b8ff" points="807.01,-189.03 816.34,-184.02 805.92,-182.11 807.01,-189.03"/>
</a>
</g>
</g>
<!-- Node10&#45;&gt;Node5 -->
<g id="edge10_Node000010_Node000005" class="edge">
<title>Node10&#45;&gt;Node5</title>
<g id="a_edge10_Node000010_Node000005"><a xlink:title=" ">
<path fill="none" stroke="#63b8ff" d="M178.27,-164.98C162.32,-156.61 137.72,-143.7 119.12,-133.95"/>
<polygon fill="#63b8ff" stroke="#63b8ff" points="120.5,-130.72 110.02,-129.17 117.25,-136.92 120.5,-130.72"/>
</a>
</g>
</g>
<!-- Node12 -->
<g id="Node000012" class="node">
<title>Node12</title>
<g id="a_Node000012"><a xlink:title=" ">
<polygon fill="#e0e0e0" stroke="#999999" points="441,-129 394,-129 394,-110 441,-110 441,-129"/>
<text text-anchor="middle" x="417.5" y="-117" font-family="Helvetica,sans-Serif" font-size="10.00">cmath</text>
</a>
</g>
</g>
<!-- Node11&#45;&gt;Node12 -->
<g id="edge12_Node000011_Node000012" class="edge">
<title>Node11&#45;&gt;Node12</title>
<g id="a_edge12_Node000011_Node000012"><a xlink:title=" ">
<path fill="none" stroke="#63b8ff" d="M485.49,-164.98C473.04,-156.84 454.04,-144.41 439.29,-134.76"/>
<polygon fill="#63b8ff" stroke="#63b8ff" points="441.04,-131.72 430.75,-129.17 437.2,-137.57 441.04,-131.72"/>
</a>
</g>
</g>
<!-- Node13 -->
<g id="Node000013" class="node">
<title>Node13</title>
<g id="a_Node000013"><a xlink:title=" ">
<polygon fill="#e0e0e0" stroke="#999999" points="337,-129 290,-129 290,-110 337,-110 337,-129"/>
<text text-anchor="middle" x="313.5" y="-117" font-family="Helvetica,sans-Serif" font-size="10.00">vector</text>
</a>
</g>
</g>
<!-- Node11&#45;&gt;Node13 -->
<g id="edge13_Node000011_Node000013" class="edge">
<title>Node11&#45;&gt;Node13</title>
<g id="a_edge13_Node000011_Node000013"><a xlink:title=" ">
<path fill="none" stroke="#63b8ff" d="M468.78,-164.98C435.5,-155.45 381.69,-140.03 346.96,-130.09"/>
<polygon fill="#63b8ff" stroke="#63b8ff" points="347.85,-126.7 337.27,-127.31 345.92,-133.43 347.85,-126.7"/>
</a>
</g>
</g>
<!-- Node14 -->
<g id="Node000014" class="node">
<title>Node14</title>
<g id="a_Node000014"><a xlink:title=" ">
<polygon fill="#e0e0e0" stroke="#999999" points="552,-129 459,-129 459,-110 552,-110 552,-129"/>
<text text-anchor="middle" x="505.5" y="-117" font-family="Helvetica,sans-Serif" font-size="10.00">unordered_map</text>
</a>
</g>
</g>
<!-- Node11&#45;&gt;Node14 -->
<g id="edge14_Node000011_Node000014" class="edge">
<title>Node11&#45;&gt;Node14</title>
<g id="a_edge14_Node000011_Node000014"><a xlink:title=" ">
<path fill="none" stroke="#63b8ff" d="M499.66,-164.75C500.57,-157.8 501.89,-147.85 503.04,-139.13"/>
<polygon fill="#63b8ff" stroke="#63b8ff" points="506.53,-139.46 504.37,-129.09 499.59,-138.54 506.53,-139.46"/>
</a>
</g>
</g>
<!-- Node15 -->
<g id="Node000015" class="node">
<title>Node15</title>
<g id="a_Node000015"><a xlink:title=" ">
<polygon fill="#e0e0e0" stroke="#999999" points="629,-129 570,-129 570,-110 629,-110 629,-129"/>
<text text-anchor="middle" x="599.5" y="-117" font-family="Helvetica,sans-Serif" font-size="10.00">numbers</text>
</a>
</g>
</g>
<!-- Node11&#45;&gt;Node15 -->
<g id="edge15_Node000011_Node000015" class="edge">
<title>Node11&#45;&gt;Node15</title>
<g id="a_edge15_Node000011_Node000015"><a xlink:title=" ">
<path fill="none" stroke="#63b8ff" d="M514.73,-164.98C530.68,-156.61 555.28,-143.7 573.88,-133.95"/>
<polygon fill="#63b8ff" stroke="#63b8ff" points="575.75,-136.92 582.98,-129.17 572.5,-130.72 575.75,-136.92"/>
</a>
</g>
</g>
<!-- Node16 -->
<g id="Node000016" class="node">
<title>Node16</title>
<g id="a_Node000016"><a xlink:title=" ">
<polygon fill="#e0e0e0" stroke="#999999" points="778,-129 647,-129 647,-110 778,-110 778,-129"/>
<text text-anchor="middle" x="712.5" y="-117" font-family="Helvetica,sans-Serif" font-size="10.00">opencv2/core/matx.hpp</text>
</a>
</g>
</g>
<!-- Node11&#45;&gt;Node16 -->
<g id="edge16_Node000011_Node000016" class="edge">
<title>Node11&#45;&gt;Node16</title>
<g id="a_edge16_Node000011_Node000016"><a xlink:title=" ">
<path fill="none" stroke="#63b8ff" d="M532.88,-164.98C569.59,-155.89 627.88,-141.46 668.05,-131.51"/>
<polygon fill="#63b8ff" stroke="#63b8ff" points="668.98,-134.88 677.85,-129.08 667.3,-128.09 668.98,-134.88"/>
</a>
</g>
</g>
<!-- Node17 -->
<g id="Node000017" class="node">
<title>Node17</title>
<g id="a_Node000017"><a xlink:href="../../d0/d3f/util_8hpp.html" target="_top" xlink:title=" ">
<polygon fill="white" stroke="#666666" points="655,-74 552,-74 552,-55 655,-55 655,-74"/>
<text text-anchor="middle" x="603.5" y="-62" font-family="Helvetica,sans-Serif" font-size="10.00">rmvl/core/util.hpp</text>
</a>
</g>
</g>
<!-- Node11&#45;&gt;Node17 -->
<g id="edge17_Node000011_Node000017" class="edge">
<title>Node11&#45;&gt;Node17</title>
<g id="a_edge17_Node000011_Node000017"><a xlink:title=" ">
<path fill="none" stroke="#63b8ff" d="M451.6,-164.98C410.89,-155.52 361.78,-137.8 384.5,-110 404.04,-86.09 483.96,-74.71 541.62,-69.52"/>
<polygon fill="#63b8ff" stroke="#63b8ff" points="542.08,-72.99 551.74,-68.65 541.48,-66.02 542.08,-72.99"/>
</a>
</g>
</g>
<!-- Node18 -->
<g id="Node000018" class="node">
<title>Node18</title>
<g id="a_Node000018"><a xlink:title=" ">
<polygon fill="#e0e0e0" stroke="#999999" points="494,-19 361,-19 361,0 494,0 494,-19"/>
<text text-anchor="middle" x="427.5" y="-7" font-family="Helvetica,sans-Serif" font-size="10.00">rmvl/rmvl_modules.hpp</text>
</a>
</g>
</g>
<!-- Node17&#45;&gt;Node18 -->
<g id="edge18_Node000017_Node000018" class="edge">
<title>Node17&#45;&gt;Node18</title>
<g id="a_edge18_Node000017_Node000018"><a xlink:title=" ">
<path fill="none" stroke="#63b8ff" d="M575.22,-54.98C545.55,-46.05 498.71,-31.94 465.75,-22.02"/>
<polygon fill="#63b8ff" stroke="#63b8ff" points="466.58,-18.61 456,-19.08 464.57,-25.32 466.58,-18.61"/>
</a>
</g>
</g>
<!-- Node19 -->
<g id="Node000019" class="node">
<title>Node19</title>
<g id="a_Node000019"><a xlink:title=" ">
<polygon fill="#e0e0e0" stroke="#999999" points="562.5,-19 512.5,-19 512.5,0 562.5,0 562.5,-19"/>
<text text-anchor="middle" x="537.5" y="-7" font-family="Helvetica,sans-Serif" font-size="10.00">cstdint</text>
</a>
</g>
</g>
<!-- Node17&#45;&gt;Node19 -->
<g id="edge19_Node000017_Node000019" class="edge">
<title>Node17&#45;&gt;Node19</title>
<g id="a_edge19_Node000017_Node000019"><a xlink:title=" ">
<path fill="none" stroke="#63b8ff" d="M592.9,-54.98C583.04,-47.07 568.15,-35.11 556.28,-25.58"/>
<polygon fill="#63b8ff" stroke="#63b8ff" points="558.29,-22.7 548.3,-19.17 553.9,-28.16 558.29,-22.7"/>
</a>
</g>
</g>
<!-- Node20 -->
<g id="Node000020" class="node">
<title>Node20</title>
<g id="a_Node000020"><a xlink:title=" ">
<polygon fill="#e0e0e0" stroke="#999999" points="626.5,-19 580.5,-19 580.5,0 626.5,0 626.5,-19"/>
<text text-anchor="middle" x="603.5" y="-7" font-family="Helvetica,sans-Serif" font-size="10.00">cstdio</text>
</a>
</g>
</g>
<!-- Node17&#45;&gt;Node20 -->
<g id="edge20_Node000017_Node000020" class="edge">
<title>Node17&#45;&gt;Node20</title>
<g id="a_edge20_Node000017_Node000020"><a xlink:title=" ">
<path fill="none" stroke="#63b8ff" d="M603.5,-54.75C603.5,-47.8 603.5,-37.85 603.5,-29.13"/>
<polygon fill="#63b8ff" stroke="#63b8ff" points="607,-29.09 603.5,-19.09 600,-29.09 607,-29.09"/>
</a>
</g>
</g>
<!-- Node21 -->
<g id="Node000021" class="node">
<title>Node21</title>
<g id="a_Node000021"><a xlink:title=" ">
<polygon fill="#e0e0e0" stroke="#999999" points="688.5,-19 644.5,-19 644.5,0 688.5,0 688.5,-19"/>
<text text-anchor="middle" x="666.5" y="-7" font-family="Helvetica,sans-Serif" font-size="10.00">string</text>
</a>
</g>
</g>
<!-- Node17&#45;&gt;Node21 -->
<g id="edge21_Node000017_Node000021" class="edge">
<title>Node17&#45;&gt;Node21</title>
<g id="a_edge21_Node000017_Node000021"><a xlink:title=" ">
<path fill="none" stroke="#63b8ff" d="M613.62,-54.98C622.94,-47.15 636.97,-35.34 648.24,-25.86"/>
<polygon fill="#63b8ff" stroke="#63b8ff" points="650.79,-28.29 656.19,-19.17 646.29,-22.93 650.79,-28.29"/>
</a>
</g>
</g>
<!-- Node22 -->
<g id="Node000022" class="node">
<title>Node22</title>
<g id="a_Node000022"><a xlink:href="../../db/d41/rmvldef_8hpp.html" target="_top" xlink:title=" ">
<polygon fill="white" stroke="#666666" points="782,-19 707,-19 707,0 782,0 782,-19"/>
<text text-anchor="middle" x="744.5" y="-7" font-family="Helvetica,sans-Serif" font-size="10.00">rmvldef.hpp</text>
</a>
</g>
</g>
<!-- Node17&#45;&gt;Node22 -->
<g id="edge22_Node000017_Node000022" class="edge">
<title>Node17&#45;&gt;Node22</title>
<g id="a_edge22_Node000017_Node000022"><a xlink:title=" ">
<path fill="none" stroke="#63b8ff" d="M626.15,-54.98C649.35,-46.27 685.62,-32.63 711.9,-22.75"/>
<polygon fill="#63b8ff" stroke="#63b8ff" points="713.3,-25.97 721.43,-19.17 710.84,-19.41 713.3,-25.97"/>
</a>
</g>
</g>
<!-- Node23&#45;&gt;Node17 -->
<g id="edge24_Node000023_Node000017" class="edge">
<title>Node23&#45;&gt;Node17</title>
<g id="a_edge24_Node000023_Node000017"><a xlink:title=" ">
<path fill="none" stroke="#63b8ff" d="M803.26,-109.98C762.09,-100.82 696.51,-86.21 651.8,-76.26"/>
<polygon fill="#63b8ff" stroke="#63b8ff" points="652.56,-72.84 642.04,-74.08 651.04,-79.67 652.56,-72.84"/>
</a>
</g>
</g>
<!-- Node24&#45;&gt;Node13 -->
<g id="edge28_Node000024_Node000013" class="edge">
<title>Node24&#45;&gt;Node13</title>
<g id="a_edge28_Node000024_Node000013"><a xlink:title=" ">
<path fill="none" stroke="#63b8ff" d="M339.38,-164.75C335.14,-157.49 328.97,-146.95 323.72,-137.98"/>
<polygon fill="#63b8ff" stroke="#63b8ff" points="326.59,-135.95 318.52,-129.09 320.55,-139.49 326.59,-135.95"/>
</a>
</g>
</g>
<!-- Node25 -->
<g id="Node000025" class="node">
<title>Node25</title>
<g id="a_Node000025"><a xlink:title=" ">
<polygon fill="#e0e0e0" stroke="#999999" points="205.5,-129 163.5,-129 163.5,-110 205.5,-110 205.5,-129"/>
<text text-anchor="middle" x="184.5" y="-117" font-family="Helvetica,sans-Serif" font-size="10.00">array</text>
</a>
</g>
</g>
<!-- Node24&#45;&gt;Node25 -->
<g id="edge26_Node000024_Node000025" class="edge">
<title>Node24&#45;&gt;Node25</title>
<g id="a_edge26_Node000024_Node000025"><a xlink:title=" ">
<path fill="none" stroke="#63b8ff" d="M318.79,-164.98C290.54,-155.63 245.18,-140.6 215.11,-130.64"/>
<polygon fill="#63b8ff" stroke="#63b8ff" points="216.14,-127.29 205.55,-127.47 213.94,-133.94 216.14,-127.29"/>
</a>
</g>
</g>
<!-- Node26 -->
<g id="Node000026" class="node">
<title>Node26</title>
<g id="a_Node000026"><a xlink:title=" ">
<polygon fill="#e0e0e0" stroke="#999999" points="271.5,-129 223.5,-129 223.5,-110 271.5,-110 271.5,-129"/>
<text text-anchor="middle" x="247.5" y="-117" font-family="Helvetica,sans-Serif" font-size="10.00">iosfwd</text>
</a>
</g>
</g>
<!-- Node24&#45;&gt;Node26 -->
<g id="edge27_Node000024_Node000026" class="edge">
<title>Node24&#45;&gt;Node26</title>
<g id="a_edge27_Node000024_Node000026"><a xlink:title=" ">
<path fill="none" stroke="#63b8ff" d="M328.92,-164.98C313.73,-156.69 290.4,-143.94 272.6,-134.22"/>
<polygon fill="#63b8ff" stroke="#63b8ff" points="273.82,-130.89 263.37,-129.17 270.47,-137.04 273.82,-130.89"/>
</a>
</g>
</g>
<!-- Node27&#45;&gt;Node23 -->
<g id="edge32_Node000027_Node000023" class="edge">
<title>Node27&#45;&gt;Node23</title>
<g id="a_edge32_Node000027_Node000023"><a xlink:title=" ">
<path fill="none" stroke="#63b8ff" d="M865.71,-164.75C861.74,-157.49 855.97,-146.95 851.07,-137.98"/>
<polygon fill="#63b8ff" stroke="#63b8ff" points="854.07,-136.18 846.2,-129.09 847.93,-139.54 854.07,-136.18"/>
</a>
</g>
</g>
<!-- Node28 -->
<g id="Node000028" class="node">
<title>Node28</title>
<g id="a_Node000028"><a xlink:title=" ">
<polygon fill="#e0e0e0" stroke="#999999" points="962.5,-129 904.5,-129 904.5,-110 962.5,-110 962.5,-129"/>
<text text-anchor="middle" x="933.5" y="-117" font-family="Helvetica,sans-Serif" font-size="10.00">memory</text>
</a>
</g>
</g>
<!-- Node27&#45;&gt;Node28 -->
<g id="edge30_Node000027_Node000028" class="edge">
<title>Node27&#45;&gt;Node28</title>
<g id="a_edge30_Node000027_Node000028"><a xlink:title=" ">
<path fill="none" stroke="#63b8ff" d="M880.62,-164.98C889.94,-157.15 903.97,-145.34 915.24,-135.86"/>
<polygon fill="#63b8ff" stroke="#63b8ff" points="917.79,-138.29 923.19,-129.17 913.29,-132.93 917.79,-138.29"/>
</a>
</g>
</g>
<!-- Node29 -->
<g id="Node000029" class="node">
<title>Node29</title>
<g id="a_Node000029"><a xlink:title=" ">
<polygon fill="#e0e0e0" stroke="#999999" points="1114,-129 981,-129 981,-110 1114,-110 1114,-129"/>
<text text-anchor="middle" x="1047.5" y="-117" font-family="Helvetica,sans-Serif" font-size="10.00">opencv2/core/types.hpp</text>
</a>
</g>
</g>
<!-- Node27&#45;&gt;Node29 -->
<g id="edge31_Node000027_Node000029" class="edge">
<title>Node27&#45;&gt;Node29</title>
<g id="a_edge31_Node000027_Node000029"><a xlink:title=" ">
<path fill="none" stroke="#63b8ff" d="M898.94,-164.98C928.78,-156.05 975.88,-141.94 1009.03,-132.02"/>
<polygon fill="#63b8ff" stroke="#63b8ff" points="1010.26,-135.3 1018.84,-129.08 1008.26,-128.6 1010.26,-135.3"/>
</a>
</g>
</g>
<!-- Node30&#45;&gt;Node8 -->
<g id="edge34_Node000030_Node000008" class="edge">
<title>Node30&#45;&gt;Node8</title>
<g id="a_edge34_Node000030_Node000008"><a xlink:title=" ">
<path fill="none" stroke="#63b8ff" d="M638.55,-285.87C635.71,-277.57 631.34,-264.78 627.73,-254.22"/>
<polygon fill="#63b8ff" stroke="#63b8ff" points="631.01,-253 624.46,-244.67 624.39,-255.26 631.01,-253"/>
</a>
</g>
</g>
<!-- Node30&#45;&gt;Node16 -->
<g id="edge35_Node000030_Node000016" class="edge">
<title>Node30&#45;&gt;Node16</title>
<g id="a_edge35_Node000030_Node000016"><a xlink:title=" ">
<path fill="none" stroke="#63b8ff" d="M645.12,-285.63C656.23,-258.4 690.01,-175.61 705.09,-138.65"/>
<polygon fill="#63b8ff" stroke="#63b8ff" points="708.44,-139.72 708.97,-129.14 701.95,-137.08 708.44,-139.72"/>
</a>
</g>
</g>
<!-- Node31&#45;&gt;Node29 -->
<g id="edge37_Node000031_Node000029" class="edge">
<title>Node31&#45;&gt;Node29</title>
<g id="a_edge37_Node000031_Node000029"><a xlink:title=" ">
<path fill="none" stroke="#63b8ff" d="M878.94,-219.99C896.81,-210.08 921.22,-196.41 942.5,-184 971.2,-167.27 1003.89,-147.36 1025.06,-134.35"/>
<polygon fill="#63b8ff" stroke="#63b8ff" points="1026.98,-137.29 1033.66,-129.07 1023.31,-131.33 1026.98,-137.29"/>
</a>
</g>
</g>
</g>
</svg>
