<?xml version="1.0" encoding="UTF-8" standalone="no"?>
<!DOCTYPE svg PUBLIC "-//W3C//DTD SVG 1.1//EN"
 "http://www.w3.org/Graphics/SVG/1.1/DTD/svg11.dtd">
<!-- Generated by graphviz version 2.43.0 (0)
 -->
<!-- Title: rm::lpss::Publisher&lt; MsgType &gt; Pages: 1 -->
<svg width="439pt" height="211pt"
 viewBox="0.00 0.00 438.50 211.00" xmlns="http://www.w3.org/2000/svg" xmlns:xlink="http://www.w3.org/1999/xlink">
<g id="graph0" class="graph" transform="scale(1 1) rotate(0) translate(4 207)">
<title>rm::lpss::Publisher&lt; MsgType &gt;</title>
<!-- Node1 -->
<g id="Node000001" class="node">
<title>Node1</title>
<g id="a_Node000001"><a xlink:title="发布者代理">
<polygon fill="#999999" stroke="transparent" points="230,-203 129,-203 129,-128 230,-128 230,-203"/>
<text text-anchor="start" x="134.5" y="-190.5" font-family="Helvetica,sans-Serif" font-size="10.00">rm::lpss::Publisher</text>
<text text-anchor="start" x="147" y="-179.5" font-family="Helvetica,sans-Serif" font-size="10.00">&lt; MsgType &gt;</text>
<text text-anchor="start" x="178" y="-164.5" font-family="Helvetica,sans-Serif" font-size="10.00"> </text>
<text text-anchor="start" x="142.5" y="-149.5" font-family="Helvetica,sans-Serif" font-size="10.00">+</text>
<text text-anchor="start" x="164.5" y="-149.5" font-family="Helvetica,sans-Serif" font-size="10.00">invalid()</text>
<text text-anchor="start" x="142.5" y="-134.5" font-family="Helvetica,sans-Serif" font-size="10.00">+</text>
<text text-anchor="start" x="164.5" y="-134.5" font-family="Helvetica,sans-Serif" font-size="10.00">publish()</text>
<polygon fill="#666666" stroke="#666666" points="129.5,-174.5 129.5,-174.5 230.5,-174.5 230.5,-174.5 129.5,-174.5"/>
<polygon fill="#666666" stroke="#666666" points="129.5,-159.5 129.5,-159.5 230.5,-159.5 230.5,-159.5 129.5,-159.5"/>
<polygon fill="none" stroke="#666666" points="129,-128 129,-203 230,-203 230,-128 129,-128"/>
</a>
</g>
</g>
<!-- Node2 -->
<g id="Node000002" class="node">
<title>Node2</title>
<g id="a_Node000002"><a xlink:href="../../d8/dff/classrm_1_1lpss_1_1Publisher.html" target="_top" xlink:title=" ">
<polygon fill="white" stroke="transparent" points="107,-75 0,-75 0,0 107,0 107,-75"/>
<text text-anchor="start" x="5.5" y="-62.5" font-family="Helvetica,sans-Serif" font-size="10.00">rm::lpss::Publisher</text>
<text text-anchor="start" x="5.5" y="-51.5" font-family="Helvetica,sans-Serif" font-size="10.00">&lt; rm::msg::URDF &gt;</text>
<text text-anchor="start" x="52" y="-36.5" font-family="Helvetica,sans-Serif" font-size="10.00"> </text>
<text text-anchor="start" x="15" y="-21.5" font-family="Helvetica,sans-Serif" font-size="10.00">+</text>
<text text-anchor="start" x="38.5" y="-21.5" font-family="Helvetica,sans-Serif" font-size="10.00">invalid()</text>
<text text-anchor="start" x="15" y="-6.5" font-family="Helvetica,sans-Serif" font-size="10.00">+</text>
<text text-anchor="start" x="38.5" y="-6.5" font-family="Helvetica,sans-Serif" font-size="10.00">publish()</text>
<polygon fill="#666666" stroke="#666666" points="0.5,-46.5 0.5,-46.5 107.5,-46.5 107.5,-46.5 0.5,-46.5"/>
<polygon fill="#666666" stroke="#666666" points="0.5,-31.5 0.5,-31.5 107.5,-31.5 107.5,-31.5 0.5,-31.5"/>
<polygon fill="none" stroke="#666666" points="0,0 0,-75 107,-75 107,0 0,0"/>
</a>
</g>
</g>
<!-- Node1&#45;&gt;Node2 -->
<g id="edge1_Node000001_Node000002" class="edge">
<title>Node1&#45;&gt;Node2</title>
<g id="a_edge1_Node000001_Node000002"><a xlink:title=" ">
<path fill="none" stroke="orange" d="M119.32,-144.64C102.07,-136.35 84.66,-125.05 72.5,-110 64.51,-100.11 59.86,-87.18 57.15,-75.03"/>
<polygon fill="orange" stroke="orange" points="118.3,-148.02 128.85,-148.94 121.18,-141.64 118.3,-148.02"/>
</a>
</g>
<text text-anchor="start" x="76" y="-98.5" font-family="Helvetica,sans-Serif" font-size="10.00" fill="grey">&lt; rm::msg::URDF &gt;</text>
</g>
<!-- Node3 -->
<g id="Node000003" class="node">
<title>Node3</title>
<g id="a_Node000003"><a xlink:href="../../d8/dff/classrm_1_1lpss_1_1Publisher.html" target="_top" xlink:title=" ">
<polygon fill="white" stroke="transparent" points="230,-75 129,-75 129,0 230,0 230,-75"/>
<text text-anchor="start" x="134.5" y="-62.5" font-family="Helvetica,sans-Serif" font-size="10.00">rm::lpss::Publisher</text>
<text text-anchor="start" x="139" y="-51.5" font-family="Helvetica,sans-Serif" font-size="10.00">&lt; rm::msg::TF &gt;</text>
<text text-anchor="start" x="178" y="-36.5" font-family="Helvetica,sans-Serif" font-size="10.00"> </text>
<text text-anchor="start" x="142.5" y="-21.5" font-family="Helvetica,sans-Serif" font-size="10.00">+</text>
<text text-anchor="start" x="164.5" y="-21.5" font-family="Helvetica,sans-Serif" font-size="10.00">invalid()</text>
<text text-anchor="start" x="142.5" y="-6.5" font-family="Helvetica,sans-Serif" font-size="10.00">+</text>
<text text-anchor="start" x="164.5" y="-6.5" font-family="Helvetica,sans-Serif" font-size="10.00">publish()</text>
<polygon fill="#666666" stroke="#666666" points="129.5,-46.5 129.5,-46.5 230.5,-46.5 230.5,-46.5 129.5,-46.5"/>
<polygon fill="#666666" stroke="#666666" points="129.5,-31.5 129.5,-31.5 230.5,-31.5 230.5,-31.5 129.5,-31.5"/>
<polygon fill="none" stroke="#666666" points="129,0 129,-75 230,-75 230,0 129,0"/>
</a>
</g>
</g>
<!-- Node1&#45;&gt;Node3 -->
<g id="edge2_Node000001_Node000003" class="edge">
<title>Node1&#45;&gt;Node3</title>
<g id="a_edge2_Node000001_Node000003"><a xlink:title=" ">
<path fill="none" stroke="orange" d="M179.5,-117.31C179.5,-103.35 179.5,-88.29 179.5,-75.11"/>
<polygon fill="orange" stroke="orange" points="176,-117.72 179.5,-127.72 183,-117.72 176,-117.72"/>
</a>
</g>
<text text-anchor="start" x="182.5" y="-98.5" font-family="Helvetica,sans-Serif" font-size="10.00" fill="grey">&lt; rm::msg::TF &gt;</text>
</g>
<!-- Node4 -->
<g id="Node000004" class="node">
<title>Node4</title>
<g id="a_Node000004"><a xlink:href="../../d8/dff/classrm_1_1lpss_1_1Publisher.html" target="_top" xlink:title=" ">
<polygon fill="white" stroke="transparent" points="397,-75 248,-75 248,0 397,0 397,-75"/>
<text text-anchor="start" x="253.5" y="-62.5" font-family="Helvetica,sans-Serif" font-size="10.00">rm::lpss::Publisher</text>
<text text-anchor="start" x="253.5" y="-51.5" font-family="Helvetica,sans-Serif" font-size="10.00">&lt; rm::msg::JointTrajectory &gt;</text>
<text text-anchor="start" x="321" y="-36.5" font-family="Helvetica,sans-Serif" font-size="10.00"> </text>
<text text-anchor="start" x="273.5" y="-21.5" font-family="Helvetica,sans-Serif" font-size="10.00">+</text>
<text text-anchor="start" x="307.5" y="-21.5" font-family="Helvetica,sans-Serif" font-size="10.00">invalid()</text>
<text text-anchor="start" x="273.5" y="-6.5" font-family="Helvetica,sans-Serif" font-size="10.00">+</text>
<text text-anchor="start" x="307.5" y="-6.5" font-family="Helvetica,sans-Serif" font-size="10.00">publish()</text>
<polygon fill="#666666" stroke="#666666" points="248.5,-46.5 248.5,-46.5 397.5,-46.5 397.5,-46.5 248.5,-46.5"/>
<polygon fill="#666666" stroke="#666666" points="248.5,-31.5 248.5,-31.5 397.5,-31.5 397.5,-31.5 248.5,-31.5"/>
<polygon fill="none" stroke="#666666" points="248,0 248,-75 397,-75 397,0 248,0"/>
</a>
</g>
</g>
<!-- Node1&#45;&gt;Node4 -->
<g id="edge3_Node000001_Node000004" class="edge">
<title>Node1&#45;&gt;Node4</title>
<g id="a_edge3_Node000001_Node000004"><a xlink:title=" ">
<path fill="none" stroke="orange" d="M239.03,-134.2C250.42,-127.06 261.8,-118.91 271.5,-110 282.5,-99.89 292.56,-87.04 300.77,-75.04"/>
<polygon fill="orange" stroke="orange" points="237.08,-131.28 230.34,-139.45 240.71,-137.27 237.08,-131.28"/>
</a>
</g>
<text text-anchor="start" x="289" y="-98.5" font-family="Helvetica,sans-Serif" font-size="10.00" fill="grey">&lt; rm::msg::JointTrajectory &gt;</text>
</g>
</g>
</svg>
