<?xml version="1.0" encoding="UTF-8" standalone="no"?>
<!DOCTYPE svg PUBLIC "-//W3C//DTD SVG 1.1//EN"
 "http://www.w3.org/Graphics/SVG/1.1/DTD/svg11.dtd">
<!-- Generated by graphviz version 2.43.0 (0)
 -->
<!-- Title: rmvl/tracker/gyro_tracker.h Pages: 1 -->
<svg width="1130pt" height="368pt"
 viewBox="0.00 0.00 1130.00 368.00" xmlns="http://www.w3.org/2000/svg" xmlns:xlink="http://www.w3.org/1999/xlink">
<g id="graph0" class="graph" transform="scale(1 1) rotate(0) translate(4 364)">
<title>rmvl/tracker/gyro_tracker.h</title>
<!-- Node1 -->
<g id="Node000001" class="node">
<title>Node1</title>
<g id="a_Node000001"><a xlink:title="装甲板追踪器头文件">
<polygon fill="#999999" stroke="#666666" points="657,-360 524,-360 524,-341 657,-341 657,-360"/>
<text text-anchor="middle" x="590.5" y="-348" font-family="Helvetica,sans-Serif" font-size="10.00">rmvl/tracker/gyro_tracker.h</text>
</a>
</g>
</g>
<!-- Node2 -->
<g id="Node000002" class="node">
<title>Node2</title>
<g id="a_Node000002"><a xlink:href="../../dd/d92/combo_2armor_8h.html" target="_top" xlink:title="装甲板类头文件">
<polygon fill="white" stroke="#666666" points="531,-305 428,-305 428,-286 531,-286 531,-305"/>
<text text-anchor="middle" x="479.5" y="-293" font-family="Helvetica,sans-Serif" font-size="10.00">rmvl/combo/armor.h</text>
</a>
</g>
</g>
<!-- Node1&#45;&gt;Node2 -->
<g id="edge1_Node000001_Node000002" class="edge">
<title>Node1&#45;&gt;Node2</title>
<g id="a_edge1_Node000001_Node000002"><a xlink:title=" ">
<path fill="none" stroke="#63b8ff" d="M572.67,-340.98C554.89,-332.5 527.35,-319.35 506.82,-309.54"/>
<polygon fill="#63b8ff" stroke="#63b8ff" points="508.19,-306.32 497.66,-305.17 505.17,-312.64 508.19,-306.32"/>
</a>
</g>
</g>
<!-- Node28 -->
<g id="Node000028" class="node">
<title>Node28</title>
<g id="a_Node000028"><a xlink:href="../../db/d0f/kalman_8hpp.html" target="_top" xlink:title="包含轻量级 cv::Matx 的卡尔曼滤波模块">
<polygon fill="white" stroke="#666666" points="1089.5,-305 979.5,-305 979.5,-286 1089.5,-286 1089.5,-305"/>
<text text-anchor="middle" x="1034.5" y="-293" font-family="Helvetica,sans-Serif" font-size="10.00">rmvl/core/kalman.hpp</text>
</a>
</g>
</g>
<!-- Node1&#45;&gt;Node28 -->
<g id="edge31_Node000001_Node000028" class="edge">
<title>Node1&#45;&gt;Node28</title>
<g id="a_edge31_Node000001_Node000028"><a xlink:title=" ">
<path fill="none" stroke="#63b8ff" d="M657.45,-341.51C741.75,-331.44 885.64,-314.27 969.17,-304.3"/>
<polygon fill="#63b8ff" stroke="#63b8ff" points="969.78,-307.75 979.29,-303.09 968.95,-300.8 969.78,-307.75"/>
</a>
</g>
</g>
<!-- Node30 -->
<g id="Node000030" class="node">
<title>Node30</title>
<g id="a_Node000030"><a xlink:href="../../dc/ded/tracker_8h.html" target="_top" xlink:title="追踪器抽象头文件">
<polygon fill="white" stroke="#666666" points="617.5,-305 563.5,-305 563.5,-286 617.5,-286 617.5,-305"/>
<text text-anchor="middle" x="590.5" y="-293" font-family="Helvetica,sans-Serif" font-size="10.00">tracker.h</text>
</a>
</g>
</g>
<!-- Node1&#45;&gt;Node30 -->
<g id="edge34_Node000001_Node000030" class="edge">
<title>Node1&#45;&gt;Node30</title>
<g id="a_edge34_Node000001_Node000030"><a xlink:title=" ">
<path fill="none" stroke="#63b8ff" d="M590.5,-340.75C590.5,-333.8 590.5,-323.85 590.5,-315.13"/>
<polygon fill="#63b8ff" stroke="#63b8ff" points="594,-315.09 590.5,-305.09 587,-315.09 594,-315.09"/>
</a>
</g>
</g>
<!-- Node3 -->
<g id="Node000003" class="node">
<title>Node3</title>
<g id="a_Node000003"><a xlink:title=" ">
<polygon fill="#e0e0e0" stroke="#999999" points="507.5,-244.5 421.5,-244.5 421.5,-225.5 507.5,-225.5 507.5,-244.5"/>
<text text-anchor="middle" x="464.5" y="-232.5" font-family="Helvetica,sans-Serif" font-size="10.00">opencv2/ml.hpp</text>
</a>
</g>
</g>
<!-- Node2&#45;&gt;Node3 -->
<g id="edge2_Node000002_Node000003" class="edge">
<title>Node2&#45;&gt;Node3</title>
<g id="a_edge2_Node000002_Node000003"><a xlink:title=" ">
<path fill="none" stroke="#63b8ff" d="M477.29,-285.87C475.18,-277.66 471.95,-265.04 469.26,-254.55"/>
<polygon fill="#63b8ff" stroke="#63b8ff" points="472.6,-253.48 466.72,-244.67 465.82,-255.22 472.6,-253.48"/>
</a>
</g>
</g>
<!-- Node4 -->
<g id="Node000004" class="node">
<title>Node4</title>
<g id="a_Node000004"><a xlink:href="../../d8/d36/combo_8h.html" target="_top" xlink:title="the combination of the features header file">
<polygon fill="white" stroke="#666666" points="579.5,-244.5 525.5,-244.5 525.5,-225.5 579.5,-225.5 579.5,-244.5"/>
<text text-anchor="middle" x="552.5" y="-232.5" font-family="Helvetica,sans-Serif" font-size="10.00">combo.h</text>
</a>
</g>
</g>
<!-- Node2&#45;&gt;Node4 -->
<g id="edge3_Node000002_Node000004" class="edge">
<title>Node2&#45;&gt;Node4</title>
<g id="a_edge3_Node000002_Node000004"><a xlink:title=" ">
<path fill="none" stroke="#63b8ff" d="M490.27,-285.87C501.7,-276.71 519.98,-262.06 533.78,-251.01"/>
<polygon fill="#63b8ff" stroke="#63b8ff" points="536.07,-253.65 541.68,-244.67 531.69,-248.19 536.07,-253.65"/>
</a>
</g>
</g>
<!-- Node27 -->
<g id="Node000027" class="node">
<title>Node27</title>
<g id="a_Node000027"><a xlink:href="../../d4/d54/feature_2light__blob_8h.html" target="_top" xlink:title="灯条类头文件">
<polygon fill="white" stroke="#666666" points="349,-250 260,-250 260,-220 349,-220 349,-250"/>
<text text-anchor="start" x="268" y="-238" font-family="Helvetica,sans-Serif" font-size="10.00">rmvl/feature/light</text>
<text text-anchor="middle" x="304.5" y="-227" font-family="Helvetica,sans-Serif" font-size="10.00">_blob.h</text>
</a>
</g>
</g>
<!-- Node2&#45;&gt;Node27 -->
<g id="edge29_Node000002_Node000027" class="edge">
<title>Node2&#45;&gt;Node27</title>
<g id="a_edge29_Node000002_Node000027"><a xlink:title=" ">
<path fill="none" stroke="#63b8ff" d="M454.05,-285.99C428.54,-277.46 388.52,-264.09 356.3,-253.32"/>
<polygon fill="#63b8ff" stroke="#63b8ff" points="357.17,-249.92 346.57,-250.06 354.95,-256.55 357.17,-249.92"/>
</a>
</g>
</g>
<!-- Node5 -->
<g id="Node000005" class="node">
<title>Node5</title>
<g id="a_Node000005"><a xlink:href="../../d3/d7e/camutils_8hpp.html" target="_top" xlink:title=" ">
<polygon fill="white" stroke="#666666" points="1006,-184 877,-184 877,-165 1006,-165 1006,-184"/>
<text text-anchor="middle" x="941.5" y="-172" font-family="Helvetica,sans-Serif" font-size="10.00">rmvl/camera/camutils.hpp</text>
</a>
</g>
</g>
<!-- Node4&#45;&gt;Node5 -->
<g id="edge4_Node000004_Node000005" class="edge">
<title>Node4&#45;&gt;Node5</title>
<g id="a_edge4_Node000004_Node000005"><a xlink:title=" ">
<path fill="none" stroke="#63b8ff" d="M572.02,-225.41C577.29,-223.37 583.04,-221.38 588.5,-220 601.81,-216.63 767.08,-196.45 866.68,-184.46"/>
<polygon fill="#63b8ff" stroke="#63b8ff" points="867.2,-187.92 876.71,-183.25 866.36,-180.97 867.2,-187.92"/>
</a>
</g>
</g>
<!-- Node7 -->
<g id="Node000007" class="node">
<title>Node7</title>
<g id="a_Node000007"><a xlink:href="../../d4/d78/math_8hpp.html" target="_top" xlink:title="基础数学库">
<polygon fill="white" stroke="#666666" points="603,-184 502,-184 502,-165 603,-165 603,-184"/>
<text text-anchor="middle" x="552.5" y="-172" font-family="Helvetica,sans-Serif" font-size="10.00">rmvl/core/math.hpp</text>
</a>
</g>
</g>
<!-- Node4&#45;&gt;Node7 -->
<g id="edge6_Node000004_Node000007" class="edge">
<title>Node4&#45;&gt;Node7</title>
<g id="a_edge6_Node000004_Node000007"><a xlink:title=" ">
<path fill="none" stroke="#63b8ff" d="M552.5,-225.37C552.5,-217.25 552.5,-204.81 552.5,-194.39"/>
<polygon fill="#63b8ff" stroke="#63b8ff" points="556,-194.17 552.5,-184.17 549,-194.17 556,-194.17"/>
</a>
</g>
</g>
<!-- Node20 -->
<g id="Node000020" class="node">
<title>Node20</title>
<g id="a_Node000020"><a xlink:href="../../dd/de3/types_8hpp.html" target="_top" xlink:title="常用状态类型定义">
<polygon fill="white" stroke="#666666" points="291,-129 210,-129 210,-110 291,-110 291,-129"/>
<text text-anchor="middle" x="250.5" y="-117" font-family="Helvetica,sans-Serif" font-size="10.00">rmvl/types.hpp</text>
</a>
</g>
</g>
<!-- Node4&#45;&gt;Node20 -->
<g id="edge19_Node000004_Node000020" class="edge">
<title>Node4&#45;&gt;Node20</title>
<g id="a_edge19_Node000004_Node000020"><a xlink:title=" ">
<path fill="none" stroke="#63b8ff" d="M530.43,-225.37C525.83,-223.58 521.01,-221.72 516.5,-220 432.67,-188.02 333.62,-151.23 283.34,-132.63"/>
<polygon fill="#63b8ff" stroke="#63b8ff" points="284.26,-129.24 273.67,-129.05 281.83,-135.8 284.26,-129.24"/>
</a>
</g>
</g>
<!-- Node21 -->
<g id="Node000021" class="node">
<title>Node21</title>
<g id="a_Node000021"><a xlink:href="../../d5/d60/dataio_8hpp.html" target="_top" xlink:title="IMU 数据">
<polygon fill="white" stroke="#666666" points="859,-184 754,-184 754,-165 859,-165 859,-184"/>
<text text-anchor="middle" x="806.5" y="-172" font-family="Helvetica,sans-Serif" font-size="10.00">rmvl/core/dataio.hpp</text>
</a>
</g>
</g>
<!-- Node4&#45;&gt;Node21 -->
<g id="edge21_Node000004_Node000021" class="edge">
<title>Node4&#45;&gt;Node21</title>
<g id="a_edge21_Node000004_Node000021"><a xlink:title=" ">
<path fill="none" stroke="#63b8ff" d="M572.85,-225.39C577.91,-223.45 583.35,-221.51 588.5,-220 640.07,-204.83 699.99,-193 743.95,-185.37"/>
<polygon fill="#63b8ff" stroke="#63b8ff" points="744.65,-188.8 753.92,-183.66 743.47,-181.9 744.65,-188.8"/>
</a>
</g>
</g>
<!-- Node24 -->
<g id="Node000024" class="node">
<title>Node24</title>
<g id="a_Node000024"><a xlink:href="../../d2/d74/feature_8h.html" target="_top" xlink:title="feature class header">
<polygon fill="white" stroke="#666666" points="305.5,-184 195.5,-184 195.5,-165 305.5,-165 305.5,-184"/>
<text text-anchor="middle" x="250.5" y="-172" font-family="Helvetica,sans-Serif" font-size="10.00">rmvl/feature/feature.h</text>
</a>
</g>
</g>
<!-- Node4&#45;&gt;Node24 -->
<g id="edge25_Node000004_Node000024" class="edge">
<title>Node4&#45;&gt;Node24</title>
<g id="a_edge25_Node000004_Node000024"><a xlink:title=" ">
<path fill="none" stroke="#63b8ff" d="M532.56,-225.41C527.4,-223.42 521.8,-221.46 516.5,-220 449.27,-201.52 370.26,-189.48 315.91,-182.64"/>
<polygon fill="#63b8ff" stroke="#63b8ff" points="316.08,-179.14 305.72,-181.39 315.22,-186.08 316.08,-179.14"/>
</a>
</g>
</g>
<!-- Node6 -->
<g id="Node000006" class="node">
<title>Node6</title>
<g id="a_Node000006"><a xlink:title=" ">
<polygon fill="#e0e0e0" stroke="#999999" points="1076.5,-129 982.5,-129 982.5,-110 1076.5,-110 1076.5,-129"/>
<text text-anchor="middle" x="1029.5" y="-117" font-family="Helvetica,sans-Serif" font-size="10.00">opencv2/core.hpp</text>
</a>
</g>
</g>
<!-- Node5&#45;&gt;Node6 -->
<g id="edge5_Node000005_Node000006" class="edge">
<title>Node5&#45;&gt;Node6</title>
<g id="a_edge5_Node000005_Node000006"><a xlink:title=" ">
<path fill="none" stroke="#63b8ff" d="M955.64,-164.98C969.29,-156.77 990.19,-144.18 1006.28,-134.49"/>
<polygon fill="#63b8ff" stroke="#63b8ff" points="1008.34,-137.33 1015.1,-129.17 1004.73,-131.33 1008.34,-137.33"/>
</a>
</g>
</g>
<!-- Node8 -->
<g id="Node000008" class="node">
<title>Node8</title>
<g id="a_Node000008"><a xlink:title=" ">
<polygon fill="#e0e0e0" stroke="#999999" points="353.5,-129 309.5,-129 309.5,-110 353.5,-110 353.5,-129"/>
<text text-anchor="middle" x="331.5" y="-117" font-family="Helvetica,sans-Serif" font-size="10.00">cmath</text>
</a>
</g>
</g>
<!-- Node7&#45;&gt;Node8 -->
<g id="edge7_Node000007_Node000008" class="edge">
<title>Node7&#45;&gt;Node8</title>
<g id="a_edge7_Node000007_Node000008"><a xlink:title=" ">
<path fill="none" stroke="#63b8ff" d="M514.19,-164.97C477.84,-156.78 421.46,-143.82 363.83,-129.27"/>
<polygon fill="#63b8ff" stroke="#63b8ff" points="364.38,-125.8 353.82,-126.73 362.66,-132.58 364.38,-125.8"/>
</a>
</g>
</g>
<!-- Node9 -->
<g id="Node000009" class="node">
<title>Node9</title>
<g id="a_Node000009"><a xlink:title=" ">
<polygon fill="#e0e0e0" stroke="#999999" points="423,-129 372,-129 372,-110 423,-110 423,-129"/>
<text text-anchor="middle" x="397.5" y="-117" font-family="Helvetica,sans-Serif" font-size="10.00">numeric</text>
</a>
</g>
</g>
<!-- Node7&#45;&gt;Node9 -->
<g id="edge8_Node000007_Node000009" class="edge">
<title>Node7&#45;&gt;Node9</title>
<g id="a_edge8_Node000007_Node000009"><a xlink:title=" ">
<path fill="none" stroke="#63b8ff" d="M527.6,-164.98C501.8,-156.16 461.28,-142.31 432.32,-132.41"/>
<polygon fill="#63b8ff" stroke="#63b8ff" points="433.19,-129.01 422.6,-129.08 430.93,-135.63 433.19,-129.01"/>
</a>
</g>
</g>
<!-- Node10 -->
<g id="Node000010" class="node">
<title>Node10</title>
<g id="a_Node000010"><a xlink:title=" ">
<polygon fill="#e0e0e0" stroke="#999999" points="524,-129 441,-129 441,-110 524,-110 524,-129"/>
<text text-anchor="middle" x="482.5" y="-117" font-family="Helvetica,sans-Serif" font-size="10.00">unordered_map</text>
</a>
</g>
</g>
<!-- Node7&#45;&gt;Node10 -->
<g id="edge9_Node000007_Node000010" class="edge">
<title>Node7&#45;&gt;Node10</title>
<g id="a_edge9_Node000007_Node000010"><a xlink:title=" ">
<path fill="none" stroke="#63b8ff" d="M541.25,-164.98C530.7,-157 514.7,-144.88 502.06,-135.31"/>
<polygon fill="#63b8ff" stroke="#63b8ff" points="504.04,-132.42 493.95,-129.17 499.81,-138 504.04,-132.42"/>
</a>
</g>
</g>
<!-- Node11 -->
<g id="Node000011" class="node">
<title>Node11</title>
<g id="a_Node000011"><a xlink:title=" ">
<polygon fill="#e0e0e0" stroke="#999999" points="834.5,-129 790.5,-129 790.5,-110 834.5,-110 834.5,-129"/>
<text text-anchor="middle" x="812.5" y="-117" font-family="Helvetica,sans-Serif" font-size="10.00">vector</text>
</a>
</g>
</g>
<!-- Node7&#45;&gt;Node11 -->
<g id="edge10_Node000007_Node000011" class="edge">
<title>Node7&#45;&gt;Node11</title>
<g id="a_edge10_Node000007_Node000011"><a xlink:title=" ">
<path fill="none" stroke="#63b8ff" d="M602.32,-164.94C646.68,-157.07 713.55,-144.58 780.35,-129.13"/>
<polygon fill="#63b8ff" stroke="#63b8ff" points="781.26,-132.51 790.2,-126.83 779.67,-125.7 781.26,-132.51"/>
</a>
</g>
</g>
<!-- Node12 -->
<g id="Node000012" class="node">
<title>Node12</title>
<g id="a_Node000012"><a xlink:title=" ">
<polygon fill="#e0e0e0" stroke="#999999" points="634.5,-129 580.5,-129 580.5,-110 634.5,-110 634.5,-129"/>
<text text-anchor="middle" x="607.5" y="-117" font-family="Helvetica,sans-Serif" font-size="10.00">numbers</text>
</a>
</g>
</g>
<!-- Node7&#45;&gt;Node12 -->
<g id="edge11_Node000007_Node000012" class="edge">
<title>Node7&#45;&gt;Node12</title>
<g id="a_edge11_Node000007_Node000012"><a xlink:title=" ">
<path fill="none" stroke="#63b8ff" d="M561.58,-164.75C569.59,-157.03 581.46,-145.6 591.12,-136.28"/>
<polygon fill="#63b8ff" stroke="#63b8ff" points="593.81,-138.55 598.59,-129.09 588.96,-133.51 593.81,-138.55"/>
</a>
</g>
</g>
<!-- Node13 -->
<g id="Node000013" class="node">
<title>Node13</title>
<g id="a_Node000013"><a xlink:title=" ">
<polygon fill="#e0e0e0" stroke="#999999" points="772,-129 653,-129 653,-110 772,-110 772,-129"/>
<text text-anchor="middle" x="712.5" y="-117" font-family="Helvetica,sans-Serif" font-size="10.00">opencv2/core/matx.hpp</text>
</a>
</g>
</g>
<!-- Node7&#45;&gt;Node13 -->
<g id="edge12_Node000007_Node000013" class="edge">
<title>Node7&#45;&gt;Node13</title>
<g id="a_edge12_Node000007_Node000013"><a xlink:title=" ">
<path fill="none" stroke="#63b8ff" d="M578.21,-164.98C604.95,-156.13 647.03,-142.19 676.95,-132.28"/>
<polygon fill="#63b8ff" stroke="#63b8ff" points="678.2,-135.55 686.59,-129.08 676,-128.9 678.2,-135.55"/>
</a>
</g>
</g>
<!-- Node14 -->
<g id="Node000014" class="node">
<title>Node14</title>
<g id="a_Node000014"><a xlink:href="../../d0/d3f/util_8hpp.html" target="_top" xlink:title=" ">
<polygon fill="white" stroke="#666666" points="425.5,-74 377.5,-74 377.5,-55 425.5,-55 425.5,-74"/>
<text text-anchor="middle" x="401.5" y="-62" font-family="Helvetica,sans-Serif" font-size="10.00">util.hpp</text>
</a>
</g>
</g>
<!-- Node7&#45;&gt;Node14 -->
<g id="edge13_Node000007_Node000014" class="edge">
<title>Node7&#45;&gt;Node14</title>
<g id="a_edge13_Node000007_Node000014"><a xlink:title=" ">
<path fill="none" stroke="#63b8ff" d="M552.17,-164.86C551.2,-151.36 547.37,-125.21 532.5,-110 506.92,-83.85 465.42,-73.06 435.98,-68.62"/>
<polygon fill="#63b8ff" stroke="#63b8ff" points="436.11,-65.1 425.74,-67.25 435.19,-72.04 436.11,-65.1"/>
</a>
</g>
</g>
<!-- Node15 -->
<g id="Node000015" class="node">
<title>Node15</title>
<g id="a_Node000015"><a xlink:title=" ">
<polygon fill="#e0e0e0" stroke="#999999" points="297.5,-19 179.5,-19 179.5,0 297.5,0 297.5,-19"/>
<text text-anchor="middle" x="238.5" y="-7" font-family="Helvetica,sans-Serif" font-size="10.00">rmvl/rmvl_modules.hpp</text>
</a>
</g>
</g>
<!-- Node14&#45;&gt;Node15 -->
<g id="edge14_Node000014_Node000015" class="edge">
<title>Node14&#45;&gt;Node15</title>
<g id="a_edge14_Node000014_Node000015"><a xlink:title=" ">
<path fill="none" stroke="#63b8ff" d="M377.45,-55.68C350.28,-46.85 305.78,-32.38 274.48,-22.2"/>
<polygon fill="#63b8ff" stroke="#63b8ff" points="275.41,-18.82 264.81,-19.06 273.24,-25.48 275.41,-18.82"/>
</a>
</g>
</g>
<!-- Node16 -->
<g id="Node000016" class="node">
<title>Node16</title>
<g id="a_Node000016"><a xlink:title=" ">
<polygon fill="#e0e0e0" stroke="#999999" points="361.5,-19 315.5,-19 315.5,0 361.5,0 361.5,-19"/>
<text text-anchor="middle" x="338.5" y="-7" font-family="Helvetica,sans-Serif" font-size="10.00">cstdint</text>
</a>
</g>
</g>
<!-- Node14&#45;&gt;Node16 -->
<g id="edge15_Node000014_Node000016" class="edge">
<title>Node14&#45;&gt;Node16</title>
<g id="a_edge15_Node000014_Node000016"><a xlink:title=" ">
<path fill="none" stroke="#63b8ff" d="M391.38,-54.98C382.06,-47.15 368.03,-35.34 356.76,-25.86"/>
<polygon fill="#63b8ff" stroke="#63b8ff" points="358.71,-22.93 348.81,-19.17 354.21,-28.29 358.71,-22.93"/>
</a>
</g>
</g>
<!-- Node17 -->
<g id="Node000017" class="node">
<title>Node17</title>
<g id="a_Node000017"><a xlink:title=" ">
<polygon fill="#e0e0e0" stroke="#999999" points="423,-19 380,-19 380,0 423,0 423,-19"/>
<text text-anchor="middle" x="401.5" y="-7" font-family="Helvetica,sans-Serif" font-size="10.00">cstdio</text>
</a>
</g>
</g>
<!-- Node14&#45;&gt;Node17 -->
<g id="edge16_Node000014_Node000017" class="edge">
<title>Node14&#45;&gt;Node17</title>
<g id="a_edge16_Node000014_Node000017"><a xlink:title=" ">
<path fill="none" stroke="#63b8ff" d="M401.5,-54.75C401.5,-47.8 401.5,-37.85 401.5,-29.13"/>
<polygon fill="#63b8ff" stroke="#63b8ff" points="405,-29.09 401.5,-19.09 398,-29.09 405,-29.09"/>
</a>
</g>
</g>
<!-- Node18 -->
<g id="Node000018" class="node">
<title>Node18</title>
<g id="a_Node000018"><a xlink:title=" ">
<polygon fill="#e0e0e0" stroke="#999999" points="482,-19 441,-19 441,0 482,0 482,-19"/>
<text text-anchor="middle" x="461.5" y="-7" font-family="Helvetica,sans-Serif" font-size="10.00">string</text>
</a>
</g>
</g>
<!-- Node14&#45;&gt;Node18 -->
<g id="edge17_Node000014_Node000018" class="edge">
<title>Node14&#45;&gt;Node18</title>
<g id="a_edge17_Node000014_Node000018"><a xlink:title=" ">
<path fill="none" stroke="#63b8ff" d="M411.14,-54.98C420.01,-47.15 433.37,-35.34 444.11,-25.86"/>
<polygon fill="#63b8ff" stroke="#63b8ff" points="446.51,-28.41 451.68,-19.17 441.87,-23.17 446.51,-28.41"/>
</a>
</g>
</g>
<!-- Node19 -->
<g id="Node000019" class="node">
<title>Node19</title>
<g id="a_Node000019"><a xlink:href="../../db/d41/rmvldef_8hpp.html" target="_top" xlink:title=" ">
<polygon fill="white" stroke="#666666" points="568.5,-19 500.5,-19 500.5,0 568.5,0 568.5,-19"/>
<text text-anchor="middle" x="534.5" y="-7" font-family="Helvetica,sans-Serif" font-size="10.00">rmvldef.hpp</text>
</a>
</g>
</g>
<!-- Node14&#45;&gt;Node19 -->
<g id="edge18_Node000014_Node000019" class="edge">
<title>Node14&#45;&gt;Node19</title>
<g id="a_edge18_Node000014_Node000019"><a xlink:title=" ">
<path fill="none" stroke="#63b8ff" d="M422.87,-54.98C444.65,-46.3 478.66,-32.75 503.42,-22.88"/>
<polygon fill="#63b8ff" stroke="#63b8ff" points="504.75,-26.12 512.74,-19.17 502.16,-19.62 504.75,-26.12"/>
</a>
</g>
</g>
<!-- Node20&#45;&gt;Node14 -->
<g id="edge20_Node000020_Node000014" class="edge">
<title>Node20&#45;&gt;Node14</title>
<g id="a_edge20_Node000020_Node000014"><a xlink:title=" ">
<path fill="none" stroke="#63b8ff" d="M274.76,-109.98C299.97,-101.14 339.6,-87.23 367.83,-77.32"/>
<polygon fill="#63b8ff" stroke="#63b8ff" points="369.02,-80.61 377.3,-73.99 366.7,-74 369.02,-80.61"/>
</a>
</g>
</g>
<!-- Node21&#45;&gt;Node11 -->
<g id="edge24_Node000021_Node000011" class="edge">
<title>Node21&#45;&gt;Node11</title>
<g id="a_edge24_Node000021_Node000011"><a xlink:title=" ">
<path fill="none" stroke="#63b8ff" d="M807.49,-164.75C808.28,-157.8 809.4,-147.85 810.39,-139.13"/>
<polygon fill="#63b8ff" stroke="#63b8ff" points="813.88,-139.42 811.53,-129.09 806.92,-138.63 813.88,-139.42"/>
</a>
</g>
</g>
<!-- Node22 -->
<g id="Node000022" class="node">
<title>Node22</title>
<g id="a_Node000022"><a xlink:title=" ">
<polygon fill="#e0e0e0" stroke="#999999" points="890.5,-129 852.5,-129 852.5,-110 890.5,-110 890.5,-129"/>
<text text-anchor="middle" x="871.5" y="-117" font-family="Helvetica,sans-Serif" font-size="10.00">array</text>
</a>
</g>
</g>
<!-- Node21&#45;&gt;Node22 -->
<g id="edge22_Node000021_Node000022" class="edge">
<title>Node21&#45;&gt;Node22</title>
<g id="a_edge22_Node000021_Node000022"><a xlink:title=" ">
<path fill="none" stroke="#63b8ff" d="M816.94,-164.98C826.65,-157.07 841.32,-145.11 853,-135.58"/>
<polygon fill="#63b8ff" stroke="#63b8ff" points="855.33,-138.2 860.87,-129.17 850.9,-132.78 855.33,-138.2"/>
</a>
</g>
</g>
<!-- Node23 -->
<g id="Node000023" class="node">
<title>Node23</title>
<g id="a_Node000023"><a xlink:title=" ">
<polygon fill="#e0e0e0" stroke="#999999" points="954,-129 909,-129 909,-110 954,-110 954,-129"/>
<text text-anchor="middle" x="931.5" y="-117" font-family="Helvetica,sans-Serif" font-size="10.00">iosfwd</text>
</a>
</g>
</g>
<!-- Node21&#45;&gt;Node23 -->
<g id="edge23_Node000021_Node000023" class="edge">
<title>Node21&#45;&gt;Node23</title>
<g id="a_edge23_Node000021_Node000023"><a xlink:title=" ">
<path fill="none" stroke="#63b8ff" d="M826.58,-164.98C846.87,-156.38 878.46,-142.99 901.67,-133.15"/>
<polygon fill="#63b8ff" stroke="#63b8ff" points="903.21,-136.3 911.05,-129.17 900.48,-129.85 903.21,-136.3"/>
</a>
</g>
</g>
<!-- Node24&#45;&gt;Node20 -->
<g id="edge28_Node000024_Node000020" class="edge">
<title>Node24&#45;&gt;Node20</title>
<g id="a_edge28_Node000024_Node000020"><a xlink:title=" ">
<path fill="none" stroke="#63b8ff" d="M250.5,-164.75C250.5,-157.8 250.5,-147.85 250.5,-139.13"/>
<polygon fill="#63b8ff" stroke="#63b8ff" points="254,-139.09 250.5,-129.09 247,-139.09 254,-139.09"/>
</a>
</g>
</g>
<!-- Node25 -->
<g id="Node000025" class="node">
<title>Node25</title>
<g id="a_Node000025"><a xlink:title=" ">
<polygon fill="#e0e0e0" stroke="#999999" points="191.5,-129 139.5,-129 139.5,-110 191.5,-110 191.5,-129"/>
<text text-anchor="middle" x="165.5" y="-117" font-family="Helvetica,sans-Serif" font-size="10.00">memory</text>
</a>
</g>
</g>
<!-- Node24&#45;&gt;Node25 -->
<g id="edge26_Node000024_Node000025" class="edge">
<title>Node24&#45;&gt;Node25</title>
<g id="a_edge26_Node000024_Node000025"><a xlink:title=" ">
<path fill="none" stroke="#63b8ff" d="M236.84,-164.98C223.66,-156.77 203.47,-144.18 187.93,-134.49"/>
<polygon fill="#63b8ff" stroke="#63b8ff" points="189.74,-131.49 179.41,-129.17 186.04,-137.43 189.74,-131.49"/>
</a>
</g>
</g>
<!-- Node26 -->
<g id="Node000026" class="node">
<title>Node26</title>
<g id="a_Node000026"><a xlink:title=" ">
<polygon fill="#e0e0e0" stroke="#999999" points="121,-129 0,-129 0,-110 121,-110 121,-129"/>
<text text-anchor="middle" x="60.5" y="-117" font-family="Helvetica,sans-Serif" font-size="10.00">opencv2/core/types.hpp</text>
</a>
</g>
</g>
<!-- Node24&#45;&gt;Node26 -->
<g id="edge27_Node000024_Node000026" class="edge">
<title>Node24&#45;&gt;Node26</title>
<g id="a_edge27_Node000024_Node000026"><a xlink:title=" ">
<path fill="none" stroke="#63b8ff" d="M219.97,-164.98C187.8,-156.01 136.94,-141.82 101.33,-131.89"/>
<polygon fill="#63b8ff" stroke="#63b8ff" points="101.84,-128.4 91.27,-129.08 99.96,-135.14 101.84,-128.4"/>
</a>
</g>
</g>
<!-- Node27&#45;&gt;Node24 -->
<g id="edge30_Node000027_Node000024" class="edge">
<title>Node27&#45;&gt;Node24</title>
<g id="a_edge30_Node000027_Node000024"><a xlink:title=" ">
<path fill="none" stroke="#63b8ff" d="M291.43,-219.84C283.59,-211.35 273.59,-200.52 265.44,-191.69"/>
<polygon fill="#63b8ff" stroke="#63b8ff" points="267.95,-189.24 258.59,-184.27 262.8,-193.99 267.95,-189.24"/>
</a>
</g>
</g>
<!-- Node28&#45;&gt;Node6 -->
<g id="edge33_Node000028_Node000006" class="edge">
<title>Node28&#45;&gt;Node6</title>
<g id="a_edge33_Node000028_Node000006"><a xlink:title=" ">
<path fill="none" stroke="#63b8ff" d="M1034.25,-285.63C1033.47,-258.64 1031.12,-177.03 1030.05,-139.61"/>
<polygon fill="#63b8ff" stroke="#63b8ff" points="1033.53,-139.04 1029.75,-129.14 1026.54,-139.24 1033.53,-139.04"/>
</a>
</g>
</g>
<!-- Node29 -->
<g id="Node000029" class="node">
<title>Node29</title>
<g id="a_Node000029"><a xlink:title=" ">
<polygon fill="#e0e0e0" stroke="#999999" points="1122,-244.5 1063,-244.5 1063,-225.5 1122,-225.5 1122,-244.5"/>
<text text-anchor="middle" x="1092.5" y="-232.5" font-family="Helvetica,sans-Serif" font-size="10.00">functional</text>
</a>
</g>
</g>
<!-- Node28&#45;&gt;Node29 -->
<g id="edge32_Node000028_Node000029" class="edge">
<title>Node28&#45;&gt;Node29</title>
<g id="a_edge32_Node000028_Node000029"><a xlink:title=" ">
<path fill="none" stroke="#63b8ff" d="M1043.06,-285.87C1051.88,-276.97 1065.84,-262.89 1076.68,-251.95"/>
<polygon fill="#63b8ff" stroke="#63b8ff" points="1079.35,-254.23 1083.91,-244.67 1074.38,-249.3 1079.35,-254.23"/>
</a>
</g>
</g>
<!-- Node30&#45;&gt;Node4 -->
<g id="edge36_Node000030_Node000004" class="edge">
<title>Node30&#45;&gt;Node4</title>
<g id="a_edge36_Node000030_Node000004"><a xlink:title=" ">
<path fill="none" stroke="#63b8ff" d="M584.89,-285.87C579.34,-277.31 570.67,-263.97 563.7,-253.24"/>
<polygon fill="#63b8ff" stroke="#63b8ff" points="566.51,-251.15 558.13,-244.67 560.64,-254.96 566.51,-251.15"/>
</a>
</g>
</g>
<!-- Node31 -->
<g id="Node000031" class="node">
<title>Node31</title>
<g id="a_Node000031"><a xlink:title=" ">
<polygon fill="#e0e0e0" stroke="#999999" points="641,-244.5 598,-244.5 598,-225.5 641,-225.5 641,-244.5"/>
<text text-anchor="middle" x="619.5" y="-232.5" font-family="Helvetica,sans-Serif" font-size="10.00">deque</text>
</a>
</g>
</g>
<!-- Node30&#45;&gt;Node31 -->
<g id="edge35_Node000030_Node000031" class="edge">
<title>Node30&#45;&gt;Node31</title>
<g id="a_edge35_Node000030_Node000031"><a xlink:title=" ">
<path fill="none" stroke="#63b8ff" d="M594.78,-285.87C598.93,-277.49 605.37,-264.51 610.63,-253.89"/>
<polygon fill="#63b8ff" stroke="#63b8ff" points="613.9,-255.18 615.2,-244.67 607.63,-252.07 613.9,-255.18"/>
</a>
</g>
</g>
</g>
</svg>
