<?xml version="1.0" encoding="UTF-8" standalone="no"?>
<!DOCTYPE svg PUBLIC "-//W3C//DTD SVG 1.1//EN"
 "http://www.w3.org/Graphics/SVG/1.1/DTD/svg11.dtd">
<!-- Generated by graphviz version 2.43.0 (0)
 -->
<!-- Title: rm::para::OptCameraParam Pages: 1 -->
<svg width="221pt" height="335pt"
 viewBox="0.00 0.00 220.50 335.00" xmlns="http://www.w3.org/2000/svg" xmlns:xlink="http://www.w3.org/1999/xlink">
<g id="graph0" class="graph" transform="scale(1 1) rotate(0) translate(4 331)">
<title>rm::para::OptCameraParam</title>
<!-- Node1 -->
<g id="Node000001" class="node">
<title>Node1</title>
<g id="a_Node000001"><a xlink:title="OptCameraParam 参数模块">
<polygon fill="#999999" stroke="transparent" points="154,-79 23,-79 23,0 154,0 154,-79"/>
<text text-anchor="start" x="28.5" y="-66.5" font-family="Helvetica,sans-Serif" font-size="10.00">rm::para::OptCameraParam</text>
<text text-anchor="start" x="87" y="-51.5" font-family="Helvetica,sans-Serif" font-size="10.00"> </text>
<text text-anchor="start" x="48.5" y="-36.5" font-family="Helvetica,sans-Serif" font-size="10.00">+</text>
<text text-anchor="start" x="80.5" y="-36.5" font-family="Helvetica,sans-Serif" font-size="10.00">read()</text>
<text text-anchor="start" x="48.5" y="-21.5" font-family="Helvetica,sans-Serif" font-size="10.00">+</text>
<text text-anchor="start" x="80.5" y="-21.5" font-family="Helvetica,sans-Serif" font-size="10.00">write()</text>
<text text-anchor="start" x="48.5" y="-6.5" font-family="Helvetica,sans-Serif" font-size="10.00">+</text>
<text text-anchor="start" x="80.5" y="-6.5" font-family="Helvetica,sans-Serif" font-size="10.00">load()</text>
<polygon fill="#666666" stroke="#666666" points="23.5,-61.5 23.5,-61.5 154.5,-61.5 154.5,-61.5 23.5,-61.5"/>
<polygon fill="#666666" stroke="#666666" points="23.5,-46.5 23.5,-46.5 154.5,-46.5 154.5,-46.5 23.5,-46.5"/>
<polygon fill="none" stroke="#666666" points="23,0 23,-79 154,-79 154,0 23,0"/>
</a>
</g>
</g>
<!-- Node2 -->
<g id="Node000002" class="node">
<title>Node2</title>
<g id="a_Node000002"><a xlink:title=" ">
<polygon fill="white" stroke="transparent" points="39,-230 0,-230 0,-181 39,-181 39,-230"/>
<text text-anchor="start" x="5.5" y="-217.5" font-family="Helvetica,sans-Serif" font-size="10.00">double</text>
<text text-anchor="start" x="18" y="-202.5" font-family="Helvetica,sans-Serif" font-size="10.00"> </text>
<text text-anchor="start" x="18" y="-187.5" font-family="Helvetica,sans-Serif" font-size="10.00"> </text>
<polygon fill="#666666" stroke="#666666" points="0.5,-212.5 0.5,-212.5 39.5,-212.5 39.5,-212.5 0.5,-212.5"/>
<polygon fill="#666666" stroke="#666666" points="0.5,-197.5 0.5,-197.5 39.5,-197.5 39.5,-197.5 0.5,-197.5"/>
<polygon fill="none" stroke="#666666" points="0,-181 0,-230 39,-230 39,-181 0,-181"/>
</a>
</g>
</g>
<!-- Node2&#45;&gt;Node1 -->
<g id="edge1_Node000001_Node000002" class="edge">
<title>Node2&#45;&gt;Node1</title>
<g id="a_edge1_Node000001_Node000002"><a xlink:title=" ">
<path fill="none" stroke="#63b8ff" d="M20.02,-180.73C21.35,-158.16 25.57,-123.8 38.5,-97 39.75,-94.41 41.15,-91.85 42.67,-89.34"/>
<polygon fill="none" stroke="#63b8ff" points="42.76,-89.2 42.81,-81.99 49.49,-79.27 49.44,-86.48 42.76,-89.2"/>
</a>
</g>
<text text-anchor="middle" x="61.5" y="-155" font-family="Helvetica,sans-Serif" font-size="10.00" fill="grey"> +b_gain</text>
<text text-anchor="middle" x="61.5" y="-144" font-family="Helvetica,sans-Serif" font-size="10.00" fill="grey">+exposure</text>
<text text-anchor="middle" x="61.5" y="-133" font-family="Helvetica,sans-Serif" font-size="10.00" fill="grey">+g_gain</text>
<text text-anchor="middle" x="61.5" y="-122" font-family="Helvetica,sans-Serif" font-size="10.00" fill="grey">+gain</text>
<text text-anchor="middle" x="61.5" y="-111" font-family="Helvetica,sans-Serif" font-size="10.00" fill="grey">+gamma</text>
<text text-anchor="middle" x="61.5" y="-100" font-family="Helvetica,sans-Serif" font-size="10.00" fill="grey">+r_gain</text>
</g>
<!-- Node3 -->
<g id="Node000003" class="node">
<title>Node3</title>
<g id="a_Node000003"><a xlink:title=" ">
<polygon fill="white" stroke="transparent" points="99,-230 78,-230 78,-181 99,-181 99,-230"/>
<text text-anchor="start" x="83.5" y="-217.5" font-family="Helvetica,sans-Serif" font-size="10.00">int</text>
<text text-anchor="start" x="87" y="-202.5" font-family="Helvetica,sans-Serif" font-size="10.00"> </text>
<text text-anchor="start" x="87" y="-187.5" font-family="Helvetica,sans-Serif" font-size="10.00"> </text>
<polygon fill="#666666" stroke="#666666" points="78.5,-212.5 78.5,-212.5 99.5,-212.5 99.5,-212.5 78.5,-212.5"/>
<polygon fill="#666666" stroke="#666666" points="78.5,-197.5 78.5,-197.5 99.5,-197.5 99.5,-197.5 78.5,-197.5"/>
<polygon fill="none" stroke="#666666" points="78,-181 78,-230 99,-230 99,-181 78,-181"/>
</a>
</g>
</g>
<!-- Node3&#45;&gt;Node1 -->
<g id="edge2_Node000001_Node000003" class="edge">
<title>Node3&#45;&gt;Node1</title>
<g id="a_edge2_Node000001_Node000003"><a xlink:title=" ">
<path fill="none" stroke="#63b8ff" d="M88.5,-180.65C88.5,-157.41 88.5,-121.33 88.5,-91.59"/>
<polygon fill="none" stroke="#63b8ff" points="88.5,-91.3 84.5,-85.3 88.5,-79.3 92.5,-85.3 88.5,-91.3"/>
</a>
</g>
<text text-anchor="middle" x="111" y="-127.5" font-family="Helvetica,sans-Serif" font-size="10.00" fill="grey"> +contrast</text>
</g>
<!-- Node4 -->
<g id="Node000004" class="node">
<title>Node4</title>
<g id="a_Node000004"><a xlink:title=" ">
<polygon fill="white" stroke="transparent" points="183.5,-230 129.5,-230 129.5,-181 183.5,-181 183.5,-230"/>
<text text-anchor="start" x="134.5" y="-217.5" font-family="Helvetica,sans-Serif" font-size="10.00">std::string</text>
<text text-anchor="start" x="154.5" y="-202.5" font-family="Helvetica,sans-Serif" font-size="10.00"> </text>
<text text-anchor="start" x="154.5" y="-187.5" font-family="Helvetica,sans-Serif" font-size="10.00"> </text>
<polygon fill="#666666" stroke="#666666" points="129.5,-212.5 129.5,-212.5 183.5,-212.5 183.5,-212.5 129.5,-212.5"/>
<polygon fill="#666666" stroke="#666666" points="129.5,-197.5 129.5,-197.5 183.5,-197.5 183.5,-197.5 129.5,-197.5"/>
<polygon fill="none" stroke="#666666" points="129.5,-181 129.5,-230 183.5,-230 183.5,-181 129.5,-181"/>
</a>
</g>
</g>
<!-- Node4&#45;&gt;Node1 -->
<g id="edge3_Node000001_Node000004" class="edge">
<title>Node4&#45;&gt;Node1</title>
<g id="a_edge3_Node000001_Node000004"><a xlink:title=" ">
<path fill="none" stroke="#63b8ff" d="M154.92,-180.83C152.68,-158.34 147.31,-124.03 134.5,-97 133.33,-94.54 132.04,-92.09 130.64,-89.67"/>
<polygon fill="none" stroke="#63b8ff" points="130.47,-89.41 123.86,-86.52 123.99,-79.31 130.59,-82.2 130.47,-89.41"/>
</a>
</g>
<text text-anchor="middle" x="183" y="-127.5" font-family="Helvetica,sans-Serif" font-size="10.00" fill="grey"> +handle_info</text>
</g>
<!-- Node5 -->
<g id="Node000005" class="node">
<title>Node5</title>
<g id="a_Node000005"><a xlink:title=" ">
<polygon fill="white" stroke="transparent" points="201,-327 112,-327 112,-267 201,-267 201,-327"/>
<text text-anchor="start" x="117.5" y="-315" font-family="Helvetica,sans-Serif" font-size="10.00">std::basic_string&lt;</text>
<text text-anchor="start" x="140" y="-304" font-family="Helvetica,sans-Serif" font-size="10.00"> Char &gt;</text>
<text text-anchor="start" x="155" y="-289" font-family="Helvetica,sans-Serif" font-size="10.00"> </text>
<text text-anchor="start" x="155" y="-274" font-family="Helvetica,sans-Serif" font-size="10.00"> </text>
<polygon fill="#666666" stroke="#666666" points="112.5,-299 112.5,-299 201.5,-299 201.5,-299 112.5,-299"/>
<polygon fill="#666666" stroke="#666666" points="112.5,-284 112.5,-284 201.5,-284 201.5,-284 112.5,-284"/>
<polygon fill="none" stroke="#666666" points="112,-267 112,-327 201,-327 201,-267 112,-267"/>
</a>
</g>
</g>
<!-- Node5&#45;&gt;Node4 -->
<g id="edge4_Node000004_Node000005" class="edge">
<title>Node5&#45;&gt;Node4</title>
<g id="a_edge4_Node000004_Node000005"><a xlink:title=" ">
<path fill="none" stroke="#63b8ff" d="M156.5,-256.41C156.5,-247.47 156.5,-238.25 156.5,-230.21"/>
<polygon fill="none" stroke="#63b8ff" points="153,-256.69 156.5,-266.69 160,-256.69 153,-256.69"/>
</a>
</g>
</g>
</g>
</svg>
