<?xml version="1.0" encoding="UTF-8" standalone="no"?>
<!DOCTYPE svg PUBLIC "-//W3C//DTD SVG 1.1//EN"
 "http://www.w3.org/Graphics/SVG/1.1/DTD/svg11.dtd">
<!-- Generated by graphviz version 2.43.0 (0)
 -->
<!-- Title: rm::CompensateInfo Pages: 1 -->
<svg width="519pt" height="414pt"
 viewBox="0.00 0.00 518.50 414.00" xmlns="http://www.w3.org/2000/svg" xmlns:xlink="http://www.w3.org/1999/xlink">
<g id="graph0" class="graph" transform="scale(1 1) rotate(0) translate(4 410)">
<title>rm::CompensateInfo</title>
<polygon fill="white" stroke="transparent" points="-4,4 -4,-410 514.5,-410 514.5,4 -4,4"/>
<!-- Node1 -->
<g id="node1" class="node">
<title>Node1</title>
<g id="a_node1"><a xlink:title="补偿模块信息">
<polygon fill="#bfbfbf" stroke="black" points="186.5,-0.5 186.5,-57.5 302.5,-57.5 302.5,-0.5 186.5,-0.5"/>
<text text-anchor="middle" x="244.5" y="-45.5" font-family="Helvetica,sans-Serif" font-size="10.00">rm::CompensateInfo</text>
<polyline fill="none" stroke="black" points="186.5,-38.5 302.5,-38.5 "/>
<text text-anchor="middle" x="244.5" y="-26.5" font-family="Helvetica,sans-Serif" font-size="10.00"> </text>
<polyline fill="none" stroke="black" points="186.5,-19.5 302.5,-19.5 "/>
<text text-anchor="middle" x="244.5" y="-7.5" font-family="Helvetica,sans-Serif" font-size="10.00"> </text>
</a>
</g>
</g>
<!-- Node2 -->
<g id="node2" class="node">
<title>Node2</title>
<g id="a_node2"><a xlink:title=" ">
<polygon fill="white" stroke="#bfbfbf" points="91,-105.5 91,-173.5 240,-173.5 240,-105.5 91,-105.5"/>
<text text-anchor="start" x="99" y="-161.5" font-family="Helvetica,sans-Serif" font-size="10.00">std::unordered_map</text>
<text text-anchor="middle" x="165.5" y="-150.5" font-family="Helvetica,sans-Serif" font-size="10.00">&lt; tracker_ptr, cv::Point2f &gt;</text>
<polyline fill="none" stroke="#bfbfbf" points="91,-143.5 240,-143.5 "/>
<text text-anchor="middle" x="165.5" y="-131.5" font-family="Helvetica,sans-Serif" font-size="10.00"> </text>
<polyline fill="none" stroke="#bfbfbf" points="91,-124.5 240,-124.5 "/>
<text text-anchor="middle" x="165.5" y="-112.5" font-family="Helvetica,sans-Serif" font-size="10.00"> </text>
</a>
</g>
</g>
<!-- Node2&#45;&gt;Node1 -->
<g id="edge1" class="edge">
<title>Node2&#45;&gt;Node1</title>
<path fill="none" stroke="#404040" d="M186.33,-105.28C192.6,-95.68 199.64,-85.29 206.5,-76 208.58,-73.19 210.76,-70.32 213,-67.45"/>
<polygon fill="none" stroke="#404040" points="213.2,-67.2 213.82,-60.02 220.69,-57.83 220.07,-65.01 213.2,-67.2"/>
<text text-anchor="middle" x="247" y="-79" font-family="Helvetica,sans-Serif" font-size="10.00"> +compensation</text>
</g>
<!-- Node3 -->
<g id="node3" class="node">
<title>Node3</title>
<g id="a_node3"><a xlink:title=" ">
<polygon fill="white" stroke="#bfbfbf" points="0,-238 0,-295 51,-295 51,-238 0,-238"/>
<text text-anchor="middle" x="25.5" y="-283" font-family="Helvetica,sans-Serif" font-size="10.00">Point2f</text>
<polyline fill="none" stroke="#bfbfbf" points="0,-276 51,-276 "/>
<text text-anchor="middle" x="25.5" y="-264" font-family="Helvetica,sans-Serif" font-size="10.00"> </text>
<polyline fill="none" stroke="#bfbfbf" points="0,-257 51,-257 "/>
<text text-anchor="middle" x="25.5" y="-245" font-family="Helvetica,sans-Serif" font-size="10.00"> </text>
</a>
</g>
</g>
<!-- Node3&#45;&gt;Node2 -->
<g id="edge2" class="edge">
<title>Node3&#45;&gt;Node2</title>
<path fill="none" stroke="#404040" d="M25.97,-237.65C27.57,-222.62 31.86,-204.61 42.5,-192 52.55,-180.09 65.83,-170.88 79.93,-163.77"/>
<polygon fill="none" stroke="#404040" points="79.94,-163.77 83.72,-157.62 90.84,-158.74 87.07,-164.89 79.94,-163.77"/>
<text text-anchor="middle" x="71.5" y="-200.5" font-family="Helvetica,sans-Serif" font-size="10.00"> +elements</text>
</g>
<!-- Node4 -->
<g id="node4" class="node">
<title>Node4</title>
<g id="a_node4"><a xlink:title=" ">
<polygon fill="white" stroke="#bfbfbf" points="259.5,-238 259.5,-295 377.5,-295 377.5,-238 259.5,-238"/>
<text text-anchor="middle" x="318.5" y="-283" font-family="Helvetica,sans-Serif" font-size="10.00">std::shared_ptr&lt; T &gt;</text>
<polyline fill="none" stroke="#bfbfbf" points="259.5,-276 377.5,-276 "/>
<text text-anchor="middle" x="318.5" y="-264" font-family="Helvetica,sans-Serif" font-size="10.00"> </text>
<polyline fill="none" stroke="#bfbfbf" points="259.5,-257 377.5,-257 "/>
<text text-anchor="start" x="267.5" y="-245" font-family="Helvetica,sans-Serif" font-size="10.00">+ operator&#45;&gt;()</text>
</a>
</g>
</g>
<!-- Node4&#45;&gt;Node2 -->
<g id="edge3" class="edge">
<title>Node4&#45;&gt;Node2</title>
<path fill="none" stroke="#404040" d="M261.11,-237.99C240.2,-227.68 220.63,-217.6 216.5,-214 210.66,-208.92 201.65,-196.67 192.81,-183.59"/>
<polygon fill="none" stroke="#404040" points="192.77,-183.54 186.12,-180.75 186.14,-173.54 192.79,-176.33 192.77,-183.54"/>
<text text-anchor="middle" x="233.5" y="-200.5" font-family="Helvetica,sans-Serif" font-size="10.00"> +keys</text>
</g>
<!-- Node8 -->
<g id="node8" class="node">
<title>Node8</title>
<g id="a_node8"><a xlink:title=" ">
<polygon fill="white" stroke="#bfbfbf" points="264,-105.5 264,-173.5 395,-173.5 395,-105.5 264,-105.5"/>
<text text-anchor="start" x="272" y="-161.5" font-family="Helvetica,sans-Serif" font-size="10.00">std::unordered_map</text>
<text text-anchor="middle" x="329.5" y="-150.5" font-family="Helvetica,sans-Serif" font-size="10.00">&lt; tracker_ptr, double &gt;</text>
<polyline fill="none" stroke="#bfbfbf" points="264,-143.5 395,-143.5 "/>
<text text-anchor="middle" x="329.5" y="-131.5" font-family="Helvetica,sans-Serif" font-size="10.00"> </text>
<polyline fill="none" stroke="#bfbfbf" points="264,-124.5 395,-124.5 "/>
<text text-anchor="middle" x="329.5" y="-112.5" font-family="Helvetica,sans-Serif" font-size="10.00"> </text>
</a>
</g>
</g>
<!-- Node4&#45;&gt;Node8 -->
<g id="edge10" class="edge">
<title>Node4&#45;&gt;Node8</title>
<path fill="none" stroke="#404040" d="M374.52,-237.98C382.96,-231.32 390.5,-223.36 395.5,-214 401.32,-203.11 398.64,-192.53 391.79,-182.95"/>
<polygon fill="none" stroke="#404040" points="391.62,-182.75 384.66,-180.88 383.71,-173.73 390.67,-175.6 391.62,-182.75"/>
<text text-anchor="middle" x="415.5" y="-200.5" font-family="Helvetica,sans-Serif" font-size="10.00"> +keys</text>
</g>
<!-- Node5 -->
<g id="node5" class="node">
<title>Node5</title>
<g id="a_node5"><a xlink:title=" ">
<polygon fill="white" stroke="#bfbfbf" points="263,-348.5 263,-405.5 292,-405.5 292,-348.5 263,-348.5"/>
<text text-anchor="middle" x="277.5" y="-393.5" font-family="Helvetica,sans-Serif" font-size="10.00">T</text>
<polyline fill="none" stroke="#bfbfbf" points="263,-386.5 292,-386.5 "/>
<text text-anchor="middle" x="277.5" y="-374.5" font-family="Helvetica,sans-Serif" font-size="10.00"> </text>
<polyline fill="none" stroke="#bfbfbf" points="263,-367.5 292,-367.5 "/>
<text text-anchor="middle" x="277.5" y="-355.5" font-family="Helvetica,sans-Serif" font-size="10.00"> </text>
</a>
</g>
</g>
<!-- Node5&#45;&gt;Node4 -->
<g id="edge4" class="edge">
<title>Node5&#45;&gt;Node4</title>
<path fill="none" stroke="#404040" d="M289.19,-348.37C291.67,-342.34 294.22,-335.97 296.5,-330 299.36,-322.51 302.3,-314.46 305.06,-306.72"/>
<polygon fill="none" stroke="#404040" points="305.09,-306.63 303.3,-299.64 309.07,-295.31 310.85,-302.29 305.09,-306.63"/>
<text text-anchor="middle" x="312" y="-322" font-family="Helvetica,sans-Serif" font-size="10.00"> +ptr</text>
</g>
<!-- Node6 -->
<g id="node6" class="node">
<title>Node6</title>
<g id="a_node6"><a xlink:title=" ">
<polygon fill="white" stroke="#bfbfbf" points="125.5,-232.5 125.5,-300.5 239.5,-300.5 239.5,-232.5 125.5,-232.5"/>
<text text-anchor="start" x="133.5" y="-288.5" font-family="Helvetica,sans-Serif" font-size="10.00">std::unordered_map</text>
<text text-anchor="middle" x="182.5" y="-277.5" font-family="Helvetica,sans-Serif" font-size="10.00">&lt; K, T &gt;</text>
<polyline fill="none" stroke="#bfbfbf" points="125.5,-270.5 239.5,-270.5 "/>
<text text-anchor="middle" x="182.5" y="-258.5" font-family="Helvetica,sans-Serif" font-size="10.00"> </text>
<polyline fill="none" stroke="#bfbfbf" points="125.5,-251.5 239.5,-251.5 "/>
<text text-anchor="middle" x="182.5" y="-239.5" font-family="Helvetica,sans-Serif" font-size="10.00"> </text>
</a>
</g>
</g>
<!-- Node5&#45;&gt;Node6 -->
<g id="edge7" class="edge">
<title>Node5&#45;&gt;Node6</title>
<path fill="none" stroke="#404040" d="M262.94,-360.87C254.51,-351.99 243.76,-340.49 234.5,-330 228.92,-323.67 223.1,-316.89 217.47,-310.21"/>
<polygon fill="none" stroke="#404040" points="217.11,-309.77 210.19,-307.73 209.41,-300.56 216.32,-302.6 217.11,-309.77"/>
<text text-anchor="middle" x="263.5" y="-322" font-family="Helvetica,sans-Serif" font-size="10.00"> +elements</text>
</g>
<!-- Node6&#45;&gt;Node2 -->
<g id="edge5" class="edge">
<title>Node6&#45;&gt;Node2</title>
<path fill="none" stroke="orange" d="M117.98,-228.55C113.88,-224.13 110.28,-219.28 107.5,-214 100.08,-199.9 106.84,-185.83 118.01,-173.82"/>
<polygon fill="orange" stroke="orange" points="115.69,-231.2 125.33,-235.6 120.53,-226.15 115.69,-231.2"/>
<text text-anchor="start" x="107.5" y="-206" font-family="Helvetica,sans-Serif" font-size="10.00"> &lt; tracker_ptr, cv::</text>
<text text-anchor="middle" x="152.5" y="-195" font-family="Helvetica,sans-Serif" font-size="10.00">Point2f &gt;</text>
</g>
<!-- Node6&#45;&gt;Node8 -->
<g id="edge11" class="edge">
<title>Node6&#45;&gt;Node8</title>
<path fill="none" stroke="orange" d="M240.07,-226.24C245.07,-222.26 249.96,-218.15 254.5,-214 264.04,-205.29 264.51,-201.28 273.5,-192 279.38,-185.93 285.83,-179.68 292.18,-173.71"/>
<polygon fill="orange" stroke="orange" points="237.9,-223.49 232.13,-232.38 242.18,-229.03 237.9,-223.49"/>
<text text-anchor="middle" x="332.5" y="-200.5" font-family="Helvetica,sans-Serif" font-size="10.00"> &lt; tracker_ptr, double &gt;</text>
</g>
<!-- Node7 -->
<g id="node7" class="node">
<title>Node7</title>
<g id="a_node7"><a xlink:title=" ">
<polygon fill="white" stroke="#bfbfbf" points="166,-348.5 166,-405.5 195,-405.5 195,-348.5 166,-348.5"/>
<text text-anchor="middle" x="180.5" y="-393.5" font-family="Helvetica,sans-Serif" font-size="10.00">K</text>
<polyline fill="none" stroke="#bfbfbf" points="166,-386.5 195,-386.5 "/>
<text text-anchor="middle" x="180.5" y="-374.5" font-family="Helvetica,sans-Serif" font-size="10.00"> </text>
<polyline fill="none" stroke="#bfbfbf" points="166,-367.5 195,-367.5 "/>
<text text-anchor="middle" x="180.5" y="-355.5" font-family="Helvetica,sans-Serif" font-size="10.00"> </text>
</a>
</g>
</g>
<!-- Node7&#45;&gt;Node6 -->
<g id="edge6" class="edge">
<title>Node7&#45;&gt;Node6</title>
<path fill="none" stroke="#404040" d="M180.97,-348.46C181.14,-339.11 181.32,-328.6 181.5,-319 181.54,-316.97 181.58,-314.9 181.62,-312.8"/>
<polygon fill="none" stroke="#404040" points="181.62,-312.74 177.73,-306.67 181.85,-300.74 185.73,-306.82 181.62,-312.74"/>
<text text-anchor="middle" x="198.5" y="-322" font-family="Helvetica,sans-Serif" font-size="10.00"> +keys</text>
</g>
<!-- Node8&#45;&gt;Node1 -->
<g id="edge8" class="edge">
<title>Node8&#45;&gt;Node1</title>
<path fill="none" stroke="#404040" d="M308.66,-105.36C302.19,-95.67 294.82,-85.21 287.5,-76 285.05,-72.92 282.44,-69.8 279.76,-66.7"/>
<polygon fill="none" stroke="#404040" points="279.61,-66.53 272.63,-64.72 271.62,-57.58 278.6,-59.39 279.61,-66.53"/>
<text text-anchor="middle" x="307" y="-79" font-family="Helvetica,sans-Serif" font-size="10.00"> +tof</text>
</g>
<!-- Node9 -->
<g id="node9" class="node">
<title>Node9</title>
<g id="a_node9"><a xlink:title=" ">
<polygon fill="white" stroke="#bfbfbf" points="449.5,-238 449.5,-295 499.5,-295 499.5,-238 449.5,-238"/>
<text text-anchor="middle" x="474.5" y="-283" font-family="Helvetica,sans-Serif" font-size="10.00">double</text>
<polyline fill="none" stroke="#bfbfbf" points="449.5,-276 499.5,-276 "/>
<text text-anchor="middle" x="474.5" y="-264" font-family="Helvetica,sans-Serif" font-size="10.00"> </text>
<polyline fill="none" stroke="#bfbfbf" points="449.5,-257 499.5,-257 "/>
<text text-anchor="middle" x="474.5" y="-245" font-family="Helvetica,sans-Serif" font-size="10.00"> </text>
</a>
</g>
</g>
<!-- Node9&#45;&gt;Node8 -->
<g id="edge9" class="edge">
<title>Node9&#45;&gt;Node8</title>
<path fill="none" stroke="#404040" d="M465.1,-237.65C458.89,-222.62 449.48,-204.61 436.5,-192 427.59,-183.34 416.95,-175.91 405.89,-169.6"/>
<polygon fill="none" stroke="#404040" points="405.78,-169.54 398.6,-170.25 395.19,-163.9 402.37,-163.19 405.78,-169.54"/>
<text text-anchor="middle" x="481.5" y="-200.5" font-family="Helvetica,sans-Serif" font-size="10.00"> +elements</text>
</g>
</g>
</svg>
