<?xml version="1.0" encoding="UTF-8" standalone="no"?>
<!DOCTYPE svg PUBLIC "-//W3C//DTD SVG 1.1//EN"
 "http://www.w3.org/Graphics/SVG/1.1/DTD/svg11.dtd">
<!-- Generated by graphviz version 2.43.0 (0)
 -->
<!-- Title: rm::Rune Pages: 1 -->
<!--zoomable 928 -->

<svg id="main" version="1.1" xmlns="http://www.w3.org/2000/svg" xmlns:xlink="http://www.w3.org/1999/xlink" xml:space="preserve" onload="init(evt)">

<style type="text/css"><![CDATA[
.node, .edge {opacity: 0.7;}
.node.selected, .edge.selected {opacity: 1;}
.edge:hover path { stroke: red; }
.edge:hover polygon { stroke: red; fill: red; }
]]></style>

<defs>
  <circle id="rim" cx="0" cy="0" r="7"/>
  <circle id="rim2" cx="0" cy="0" r="3.5"/>
  <g id="zoomPlus">
    <use xlink:href="#rim" fill="#404040"><set attributeName="fill" to="#808080" begin="zoomplus.mouseover" end="zoomplus.mouseout"/></use>
    <path d="M-4,0h8M0,-4v8" fill="none" stroke="white" stroke-width="1.5" pointer-events="none"/>
  </g>
  <g id="zoomMin">
    <use xlink:href="#rim" fill="#404040"><set attributeName="fill" to="#808080" begin="zoomminus.mouseover" end="zoomminus.mouseout"/></use>
    <path d="M-4,0h8" fill="none" stroke="white" stroke-width="1.5" pointer-events="none"/>
  </g>
  <g id="arrowUp" transform="translate(30 24)">
    <use xlink:href="#rim"/>
    <path pointer-events="none" fill="none" stroke="white" stroke-width="1.5" d="M0,-3.0v7 M-2.5,-0.5L0,-3.0L2.5,-0.5"/>
  </g>
  <g id="arrowRight" transform="rotate(90) translate(36 -43)">
    <use xlink:href="#rim"/>
    <path pointer-events="none" fill="none" stroke="white" stroke-width="1.5" d="M0,-3.0v7 M-2.5,-0.5L0,-3.0L2.5,-0.5"/>
  </g>
  <g id="arrowDown" transform="rotate(180) translate(-30 -48)">
    <use xlink:href="#rim"/>
    <path pointer-events="none" fill="none" stroke="white" stroke-width="1.5" d="M0,-3.0v7 M-2.5,-0.5L0,-3.0L2.5,-0.5"/>
  </g>
  <g id="arrowLeft" transform="rotate(270) translate(-36 17)">
    <use xlink:href="#rim"/>
    <path pointer-events="none" fill="none" stroke="white" stroke-width="1.5" d="M0,-3.0v7 M-2.5,-0.5L0,-3.0L2.5,-0.5"/>
  </g>
  <g id="resetDef">
    <use xlink:href="#rim2" fill="#404040"><set attributeName="fill" to="#808080" begin="reset.mouseover" end="reset.mouseout"/></use>
  </g>
</defs>
<script type="application/ecmascript">
var viewWidth = 1251;
var viewHeight = 928;
var sectionId = 'dynsection-1';
</script>
<script type="application/ecmascript" xlink:href="../../svg.min.js"/>
<svg id="graph" class="graph">
<g id="viewport">
<title>rm::Rune</title>
<!-- Node1 -->
<g id="Node000001" class="node">
<title>Node1</title>
<g id="a_Node000001"><a xlink:title="神符（能量机关）">
<polygon fill="#999999" stroke="transparent" points="627.5,-154 474.5,-154 474.5,0 627.5,0 627.5,-154"/>
<text text-anchor="start" x="529" y="-142" font-family="Helvetica,sans-Serif" font-size="10.00">rm::Rune</text>
<text text-anchor="start" x="549.5" y="-127" font-family="Helvetica,sans-Serif" font-size="10.00"> </text>
<text text-anchor="start" x="479" y="-112" font-family="Helvetica,sans-Serif" font-size="10.00">+</text>
<text text-anchor="start" x="492" y="-112" font-family="Helvetica,sans-Serif" font-size="10.00">clone()</text>
<text text-anchor="start" x="479" y="-97" font-family="Helvetica,sans-Serif" font-size="10.00">+</text>
<text text-anchor="start" x="492" y="-97" font-family="Helvetica,sans-Serif" font-size="10.00">getFeatureDis()</text>
<text text-anchor="start" x="479" y="-82" font-family="Helvetica,sans-Serif" font-size="10.00">+</text>
<text text-anchor="start" x="492" y="-82" font-family="Helvetica,sans-Serif" font-size="10.00">isActive()</text>
<text text-anchor="start" x="479" y="-67" font-family="Helvetica,sans-Serif" font-size="10.00">+</text>
<text text-anchor="start" x="492" y="-67" font-family="Helvetica,sans-Serif" font-size="10.00">make_combo()</text>
<text text-anchor="start" x="479" y="-52" font-family="Helvetica,sans-Serif" font-size="10.00">+</text>
<text text-anchor="start" x="492" y="-52" font-family="Helvetica,sans-Serif" font-size="10.00">cast()</text>
<text text-anchor="start" x="479" y="-37" font-family="Helvetica,sans-Serif" font-size="10.00">+</text>
<text text-anchor="start" x="492" y="-37" font-family="Helvetica,sans-Serif" font-size="10.00">cast()</text>
<text text-anchor="start" x="479" y="-22" font-family="Helvetica,sans-Serif" font-size="10.00">+</text>
<text text-anchor="start" x="492" y="-22" font-family="Helvetica,sans-Serif" font-size="10.00">cameraConvertToVertical()</text>
<text text-anchor="start" x="479" y="-7" font-family="Helvetica,sans-Serif" font-size="10.00">+</text>
<text text-anchor="start" x="492" y="-7" font-family="Helvetica,sans-Serif" font-size="10.00">verticalConvertToCamera()</text>
<polygon fill="#666666" stroke="#666666" points="475,-137 475,-137 628,-137 628,-137 475,-137"/>
<polygon fill="#666666" stroke="#666666" points="475,-122 475,-122 628,-122 628,-122 475,-122"/>
<polygon fill="none" stroke="#666666" points="474.5,0 474.5,-154 627.5,-154 627.5,0 474.5,0"/>
</a>
</g>
</g>
<!-- Node2 -->
<g id="Node000002" class="node">
<title>Node2</title>
<g id="a_Node000002"><a xlink:href="../../de/dee/classrm_1_1combo.html" target="_top" xlink:title="特征组合体">
<polygon fill="white" stroke="transparent" points="587,-390 515,-390 515,-191 587,-191 587,-390"/>
<text text-anchor="start" x="524.5" y="-377.5" font-family="Helvetica,sans-Serif" font-size="10.00">rm::combo</text>
<text text-anchor="start" x="549" y="-362.5" font-family="Helvetica,sans-Serif" font-size="10.00"> </text>
<text text-anchor="start" x="519" y="-347.5" font-family="Helvetica,sans-Serif" font-size="10.00">+</text>
<text text-anchor="start" x="532" y="-347.5" font-family="Helvetica,sans-Serif" font-size="10.00">clone()</text>
<text text-anchor="start" x="519" y="-332.5" font-family="Helvetica,sans-Serif" font-size="10.00">+</text>
<text text-anchor="start" x="532" y="-332.5" font-family="Helvetica,sans-Serif" font-size="10.00">height()</text>
<text text-anchor="start" x="519" y="-317.5" font-family="Helvetica,sans-Serif" font-size="10.00">+</text>
<text text-anchor="start" x="532" y="-317.5" font-family="Helvetica,sans-Serif" font-size="10.00">width()</text>
<text text-anchor="start" x="519" y="-302.5" font-family="Helvetica,sans-Serif" font-size="10.00">+</text>
<text text-anchor="start" x="532" y="-302.5" font-family="Helvetica,sans-Serif" font-size="10.00">angle()</text>
<text text-anchor="start" x="519" y="-287.5" font-family="Helvetica,sans-Serif" font-size="10.00">+</text>
<text text-anchor="start" x="532" y="-287.5" font-family="Helvetica,sans-Serif" font-size="10.00">center()</text>
<text text-anchor="start" x="519" y="-272.5" font-family="Helvetica,sans-Serif" font-size="10.00">+</text>
<text text-anchor="start" x="532" y="-272.5" font-family="Helvetica,sans-Serif" font-size="10.00">corners()</text>
<text text-anchor="start" x="519" y="-257.5" font-family="Helvetica,sans-Serif" font-size="10.00">+</text>
<text text-anchor="start" x="532" y="-257.5" font-family="Helvetica,sans-Serif" font-size="10.00">corner()</text>
<text text-anchor="start" x="519" y="-242.5" font-family="Helvetica,sans-Serif" font-size="10.00">+</text>
<text text-anchor="start" x="532" y="-242.5" font-family="Helvetica,sans-Serif" font-size="10.00">extrinsic()</text>
<text text-anchor="start" x="519" y="-227.5" font-family="Helvetica,sans-Serif" font-size="10.00">+</text>
<text text-anchor="start" x="532" y="-227.5" font-family="Helvetica,sans-Serif" font-size="10.00">type()</text>
<text text-anchor="start" x="519" y="-212.5" font-family="Helvetica,sans-Serif" font-size="10.00">+</text>
<text text-anchor="start" x="532" y="-212.5" font-family="Helvetica,sans-Serif" font-size="10.00">tick()</text>
<text text-anchor="start" x="532" y="-197.5" font-family="Helvetica,sans-Serif" font-size="10.00">和 7 更多...</text>
<polygon fill="#666666" stroke="#666666" points="515,-372.5 515,-372.5 587,-372.5 587,-372.5 515,-372.5"/>
<polygon fill="#666666" stroke="#666666" points="515,-357.5 515,-357.5 587,-357.5 587,-357.5 515,-357.5"/>
<polygon fill="none" stroke="#666666" points="515,-191 515,-390 587,-390 587,-191 515,-191"/>
</a>
</g>
</g>
<!-- Node2&#45;&gt;Node1 -->
<g id="edge1_Node000001_Node000002" class="edge">
<title>Node2&#45;&gt;Node1</title>
<g id="a_edge1_Node000001_Node000002"><a xlink:title=" ">
<path fill="none" stroke="#63b8ff" d="M551,-180.7C551,-171.68 551,-162.7 551,-154.01"/>
<polygon fill="none" stroke="#63b8ff" points="547.5,-180.87 551,-190.87 554.5,-180.87 547.5,-180.87"/>
</a>
</g>
</g>
<!-- Node3 -->
<g id="Node000003" class="node">
<title>Node3</title>
<g id="a_Node000003"><a xlink:title=" ">
<polygon fill="white" stroke="transparent" points="191.5,-574 82.5,-574 82.5,-514 191.5,-514 191.5,-574"/>
<text text-anchor="start" x="88" y="-562" font-family="Helvetica,sans-Serif" font-size="10.00">std::vector&lt; feature</text>
<text text-anchor="start" x="122" y="-551" font-family="Helvetica,sans-Serif" font-size="10.00">::ptr &gt;</text>
<text text-anchor="start" x="135.5" y="-536" font-family="Helvetica,sans-Serif" font-size="10.00"> </text>
<text text-anchor="start" x="135.5" y="-521" font-family="Helvetica,sans-Serif" font-size="10.00"> </text>
<polygon fill="#666666" stroke="#666666" points="83,-546 83,-546 192,-546 192,-546 83,-546"/>
<polygon fill="#666666" stroke="#666666" points="83,-531 83,-531 192,-531 192,-531 83,-531"/>
<polygon fill="none" stroke="#666666" points="82.5,-514 82.5,-574 191.5,-574 191.5,-514 82.5,-514"/>
</a>
</g>
</g>
<!-- Node3&#45;&gt;Node2 -->
<g id="edge2_Node000002_Node000003" class="edge">
<title>Node3&#45;&gt;Node2</title>
<g id="a_edge2_Node000002_Node000003"><a xlink:title=" ">
<path fill="none" stroke="#63b8ff" d="M159.95,-513.56C178.3,-491.09 205.43,-460.16 233,-437 315.49,-367.7 436.42,-324.56 502.86,-304.62"/>
<polygon fill="none" stroke="#63b8ff" points="503.1,-304.55 507.73,-299.01 514.61,-301.16 509.98,-306.69 503.1,-304.55"/>
</a>
</g>
<text text-anchor="middle" x="300" y="-411" font-family="Helvetica,sans-Serif" font-size="10.00" fill="grey"> #_features</text>
</g>
<!-- Node4 -->
<g id="Node000004" class="node">
<title>Node4</title>
<g id="a_Node000004"><a xlink:title=" ">
<polygon fill="white" stroke="transparent" points="112,-769 0,-769 0,-720 112,-720 112,-769"/>
<text text-anchor="start" x="5" y="-756.5" font-family="Helvetica,sans-Serif" font-size="10.00">std::shared_ptr&lt; T &gt;</text>
<text text-anchor="start" x="54" y="-741.5" font-family="Helvetica,sans-Serif" font-size="10.00"> </text>
<text text-anchor="start" x="11.5" y="-726.5" font-family="Helvetica,sans-Serif" font-size="10.00">+</text>
<text text-anchor="start" x="32" y="-726.5" font-family="Helvetica,sans-Serif" font-size="10.00">operator&#45;&gt;()</text>
<polygon fill="#666666" stroke="#666666" points="0,-751.5 0,-751.5 112,-751.5 112,-751.5 0,-751.5"/>
<polygon fill="#666666" stroke="#666666" points="0,-736.5 0,-736.5 112,-736.5 112,-736.5 0,-736.5"/>
<polygon fill="none" stroke="#666666" points="0,-720 0,-769 112,-769 112,-720 0,-720"/>
</a>
</g>
</g>
<!-- Node4&#45;&gt;Node3 -->
<g id="edge3_Node000003_Node000004" class="edge">
<title>Node4&#45;&gt;Node3</title>
<g id="a_edge3_Node000003_Node000004"><a xlink:title=" ">
<path fill="none" stroke="#63b8ff" d="M57.7,-719.83C59.28,-704.93 62.29,-685.46 68,-669 78.36,-639.13 95.67,-608.04 110.37,-584.46"/>
<polygon fill="none" stroke="#63b8ff" points="110.46,-584.32 110.3,-577.11 116.9,-574.19 117.05,-581.4 110.46,-584.32"/>
</a>
</g>
<text text-anchor="middle" x="97" y="-683" font-family="Helvetica,sans-Serif" font-size="10.00" fill="grey"> +elements</text>
</g>
<!-- Node5 -->
<g id="Node000005" class="node">
<title>Node5</title>
<g id="a_Node000005"><a xlink:title=" ">
<polygon fill="white" stroke="transparent" points="124.5,-920 107.5,-920 107.5,-871 124.5,-871 124.5,-920"/>
<text text-anchor="start" x="113" y="-907.5" font-family="Helvetica,sans-Serif" font-size="10.00">T</text>
<text text-anchor="start" x="114.5" y="-892.5" font-family="Helvetica,sans-Serif" font-size="10.00"> </text>
<text text-anchor="start" x="114.5" y="-877.5" font-family="Helvetica,sans-Serif" font-size="10.00"> </text>
<polygon fill="#666666" stroke="#666666" points="108,-902.5 108,-902.5 125,-902.5 125,-902.5 108,-902.5"/>
<polygon fill="#666666" stroke="#666666" points="108,-887.5 108,-887.5 125,-887.5 125,-887.5 108,-887.5"/>
<polygon fill="none" stroke="#666666" points="107.5,-871 107.5,-920 124.5,-920 124.5,-871 107.5,-871"/>
</a>
</g>
</g>
<!-- Node5&#45;&gt;Node4 -->
<g id="edge4_Node000004_Node000005" class="edge">
<title>Node5&#45;&gt;Node4</title>
<g id="a_edge4_Node000004_Node000005"><a xlink:title=" ">
<path fill="none" stroke="#63b8ff" d="M107.5,-880.6C102.86,-872.68 97.22,-862.48 93,-853 82.53,-829.49 73.13,-802.03 66.42,-780.76"/>
<polygon fill="none" stroke="#63b8ff" points="66.34,-780.48 60.74,-775.93 62.79,-769.02 68.39,-773.57 66.34,-780.48"/>
</a>
</g>
<text text-anchor="middle" x="105.5" y="-817.5" font-family="Helvetica,sans-Serif" font-size="10.00" fill="grey"> +ptr</text>
</g>
<!-- Node6 -->
<g id="Node000006" class="node">
<title>Node6</title>
<g id="a_Node000006"><a xlink:title=" ">
<polygon fill="white" stroke="transparent" points="221.5,-769 130.5,-769 130.5,-720 221.5,-720 221.5,-769"/>
<text text-anchor="start" x="136" y="-756.5" font-family="Helvetica,sans-Serif" font-size="10.00">std::vector&lt; T &gt;</text>
<text text-anchor="start" x="174.5" y="-741.5" font-family="Helvetica,sans-Serif" font-size="10.00"> </text>
<text text-anchor="start" x="174.5" y="-726.5" font-family="Helvetica,sans-Serif" font-size="10.00"> </text>
<polygon fill="#666666" stroke="#666666" points="131,-751.5 131,-751.5 222,-751.5 222,-751.5 131,-751.5"/>
<polygon fill="#666666" stroke="#666666" points="131,-736.5 131,-736.5 222,-736.5 222,-736.5 131,-736.5"/>
<polygon fill="none" stroke="#666666" points="130.5,-720 130.5,-769 221.5,-769 221.5,-720 130.5,-720"/>
</a>
</g>
</g>
<!-- Node5&#45;&gt;Node6 -->
<g id="edge6_Node000006_Node000005" class="edge">
<title>Node5&#45;&gt;Node6</title>
<g id="a_edge6_Node000006_Node000005"><a xlink:title=" ">
<path fill="none" stroke="#63b8ff" d="M124.6,-873.15C134.37,-848.89 150.45,-808.95 162.03,-780.2"/>
<polygon fill="none" stroke="#63b8ff" points="162.05,-780.15 160.58,-773.09 166.53,-769.02 168,-776.08 162.05,-780.15"/>
</a>
</g>
<text text-anchor="middle" x="188" y="-817.5" font-family="Helvetica,sans-Serif" font-size="10.00" fill="grey"> +elements</text>
</g>
<!-- Node6&#45;&gt;Node3 -->
<g id="edge5_Node000003_Node000006" class="edge">
<title>Node6&#45;&gt;Node3</title>
<g id="a_edge5_Node000003_Node000006"><a xlink:title=" ">
<path fill="none" stroke="orange" d="M142.9,-711.51C140.97,-708.46 139.29,-705.28 138,-702 121.52,-660.01 125.93,-606.69 131.11,-574.25"/>
<polygon fill="orange" stroke="orange" points="140.18,-713.71 148.93,-719.69 145.82,-709.56 140.18,-713.71"/>
</a>
</g>
<text text-anchor="middle" x="178.5" y="-683" font-family="Helvetica,sans-Serif" font-size="10.00" fill="grey"> &lt; feature::ptr &gt;</text>
</g>
<!-- Node18 -->
<g id="Node000018" class="node">
<title>Node18</title>
<g id="a_Node000018"><a xlink:title=" ">
<polygon fill="white" stroke="transparent" points="378,-568.5 242,-568.5 242,-519.5 378,-519.5 378,-568.5"/>
<text text-anchor="start" x="247" y="-556" font-family="Helvetica,sans-Serif" font-size="10.00">std::vector&lt; cv::Point2f &gt;</text>
<text text-anchor="start" x="308" y="-541" font-family="Helvetica,sans-Serif" font-size="10.00"> </text>
<text text-anchor="start" x="308" y="-526" font-family="Helvetica,sans-Serif" font-size="10.00"> </text>
<polygon fill="#666666" stroke="#666666" points="242,-551 242,-551 378,-551 378,-551 242,-551"/>
<polygon fill="#666666" stroke="#666666" points="242,-536 242,-536 378,-536 378,-536 242,-536"/>
<polygon fill="none" stroke="#666666" points="242,-519.5 242,-568.5 378,-568.5 378,-519.5 242,-519.5"/>
</a>
</g>
</g>
<!-- Node6&#45;&gt;Node18 -->
<g id="edge22_Node000018_Node000006" class="edge">
<title>Node6&#45;&gt;Node18</title>
<g id="a_edge22_Node000018_Node000006"><a xlink:title=" ">
<path fill="none" stroke="orange" d="M210.1,-712.36C213.24,-708.98 216.26,-705.49 219,-702 253.18,-658.34 283.37,-600.51 298.91,-568.62"/>
<polygon fill="orange" stroke="orange" points="207.57,-709.95 203.12,-719.56 212.6,-714.82 207.57,-709.95"/>
</a>
</g>
<text text-anchor="middle" x="281.5" y="-683" font-family="Helvetica,sans-Serif" font-size="10.00" fill="grey"> &lt; cv::Point2f &gt;</text>
</g>
<!-- Node7 -->
<g id="Node000007" class="node">
<title>Node7</title>
<g id="a_Node000007"><a xlink:title=" ">
<polygon fill="white" stroke="transparent" points="608,-920 576,-920 576,-871 608,-871 608,-920"/>
<text text-anchor="start" x="581" y="-907.5" font-family="Helvetica,sans-Serif" font-size="10.00">float</text>
<text text-anchor="start" x="590" y="-892.5" font-family="Helvetica,sans-Serif" font-size="10.00"> </text>
<text text-anchor="start" x="590" y="-877.5" font-family="Helvetica,sans-Serif" font-size="10.00"> </text>
<polygon fill="#666666" stroke="#666666" points="576,-902.5 576,-902.5 608,-902.5 608,-902.5 576,-902.5"/>
<polygon fill="#666666" stroke="#666666" points="576,-887.5 576,-887.5 608,-887.5 608,-887.5 576,-887.5"/>
<polygon fill="none" stroke="#666666" points="576,-871 576,-920 608,-920 608,-871 576,-871"/>
</a>
</g>
</g>
<!-- Node7&#45;&gt;Node2 -->
<g id="edge7_Node000002_Node000007" class="edge">
<title>Node7&#45;&gt;Node2</title>
<g id="a_edge7_Node000002_Node000007"><a xlink:title=" ">
<path fill="none" stroke="#63b8ff" d="M579.14,-870.83C566.56,-846.22 548.26,-806.16 541,-769 516.8,-645.18 524.9,-499.87 535.45,-402.35"/>
<polygon fill="none" stroke="#63b8ff" points="535.46,-402.33 532.14,-395.92 536.78,-390.4 540.1,-396.81 535.46,-402.33"/>
</a>
</g>
<text text-anchor="middle" x="553.5" y="-694" font-family="Helvetica,sans-Serif" font-size="10.00" fill="grey"> #_angle</text>
<text text-anchor="middle" x="553.5" y="-683" font-family="Helvetica,sans-Serif" font-size="10.00" fill="grey">#_height</text>
<text text-anchor="middle" x="553.5" y="-672" font-family="Helvetica,sans-Serif" font-size="10.00" fill="grey">#_width</text>
</g>
<!-- Node16 -->
<g id="Node000016" class="node">
<title>Node16</title>
<g id="a_Node000016"><a xlink:href="../../d4/def/structrm_1_1Translation.html" target="_top" xlink:title="移动位置信息">
<polygon fill="white" stroke="transparent" points="633.5,-769 550.5,-769 550.5,-720 633.5,-720 633.5,-769"/>
<text text-anchor="start" x="556" y="-756.5" font-family="Helvetica,sans-Serif" font-size="10.00">rm::Translation</text>
<text text-anchor="start" x="590.5" y="-741.5" font-family="Helvetica,sans-Serif" font-size="10.00"> </text>
<text text-anchor="start" x="590.5" y="-726.5" font-family="Helvetica,sans-Serif" font-size="10.00"> </text>
<polygon fill="#666666" stroke="#666666" points="551,-751.5 551,-751.5 634,-751.5 634,-751.5 551,-751.5"/>
<polygon fill="#666666" stroke="#666666" points="551,-736.5 551,-736.5 634,-736.5 634,-736.5 551,-736.5"/>
<polygon fill="none" stroke="#666666" points="550.5,-720 550.5,-769 633.5,-769 633.5,-720 550.5,-720"/>
</a>
</g>
</g>
<!-- Node7&#45;&gt;Node16 -->
<g id="edge17_Node000016_Node000007" class="edge">
<title>Node7&#45;&gt;Node16</title>
<g id="a_edge17_Node000016_Node000007"><a xlink:title=" ">
<path fill="none" stroke="#63b8ff" d="M592,-870.89C592,-846.95 592,-809.57 592,-781.85"/>
<polygon fill="none" stroke="#63b8ff" points="592,-781.49 588,-775.49 592,-769.49 596,-775.49 592,-781.49"/>
</a>
</g>
<text text-anchor="middle" x="604" y="-845" font-family="Helvetica,sans-Serif" font-size="10.00" fill="grey"> +vx</text>
<text text-anchor="middle" x="604" y="-834" font-family="Helvetica,sans-Serif" font-size="10.00" fill="grey">+vy</text>
<text text-anchor="middle" x="604" y="-823" font-family="Helvetica,sans-Serif" font-size="10.00" fill="grey">+vz</text>
<text text-anchor="middle" x="604" y="-812" font-family="Helvetica,sans-Serif" font-size="10.00" fill="grey">+x</text>
<text text-anchor="middle" x="604" y="-801" font-family="Helvetica,sans-Serif" font-size="10.00" fill="grey">+y</text>
<text text-anchor="middle" x="604" y="-790" font-family="Helvetica,sans-Serif" font-size="10.00" fill="grey">+z</text>
</g>
<!-- Node17 -->
<g id="Node000017" class="node">
<title>Node17</title>
<g id="a_Node000017"><a xlink:href="../../d1/d5f/structrm_1_1Rotation.html" target="_top" xlink:title="转动姿态信息">
<polygon fill="white" stroke="transparent" points="722.5,-769 651.5,-769 651.5,-720 722.5,-720 722.5,-769"/>
<text text-anchor="start" x="657" y="-756.5" font-family="Helvetica,sans-Serif" font-size="10.00">rm::Rotation</text>
<text text-anchor="start" x="685.5" y="-741.5" font-family="Helvetica,sans-Serif" font-size="10.00"> </text>
<text text-anchor="start" x="685.5" y="-726.5" font-family="Helvetica,sans-Serif" font-size="10.00"> </text>
<polygon fill="#666666" stroke="#666666" points="652,-751.5 652,-751.5 723,-751.5 723,-751.5 652,-751.5"/>
<polygon fill="#666666" stroke="#666666" points="652,-736.5 652,-736.5 723,-736.5 723,-736.5 652,-736.5"/>
<polygon fill="none" stroke="#666666" points="651.5,-720 651.5,-769 722.5,-769 722.5,-720 651.5,-720"/>
</a>
</g>
</g>
<!-- Node7&#45;&gt;Node17 -->
<g id="edge19_Node000017_Node000007" class="edge">
<title>Node7&#45;&gt;Node17</title>
<g id="a_edge19_Node000017_Node000007"><a xlink:title=" ">
<path fill="none" stroke="#63b8ff" d="M608.14,-870.9C612.06,-865.07 616.22,-858.83 620,-853 635.8,-828.65 653.12,-800.83 666.19,-779.59"/>
<polygon fill="none" stroke="#63b8ff" points="666.33,-779.37 666.06,-772.16 672.6,-769.14 672.87,-776.35 666.33,-779.37"/>
</a>
</g>
<text text-anchor="middle" x="693.5" y="-845" font-family="Helvetica,sans-Serif" font-size="10.00" fill="grey"> +pitch</text>
<text text-anchor="middle" x="693.5" y="-834" font-family="Helvetica,sans-Serif" font-size="10.00" fill="grey">+pitch_speed</text>
<text text-anchor="middle" x="693.5" y="-823" font-family="Helvetica,sans-Serif" font-size="10.00" fill="grey">+roll</text>
<text text-anchor="middle" x="693.5" y="-812" font-family="Helvetica,sans-Serif" font-size="10.00" fill="grey">+roll_speed</text>
<text text-anchor="middle" x="693.5" y="-801" font-family="Helvetica,sans-Serif" font-size="10.00" fill="grey">+yaw</text>
<text text-anchor="middle" x="693.5" y="-790" font-family="Helvetica,sans-Serif" font-size="10.00" fill="grey">+yaw_speed</text>
</g>
<!-- Node8 -->
<g id="Node000008" class="node">
<title>Node8</title>
<g id="a_Node000008"><a xlink:href="../../d0/d01/structrm_1_1RMStatus.html" target="_top" xlink:title="状态类型">
<polygon fill="white" stroke="transparent" points="855.5,-583.5 768.5,-583.5 768.5,-504.5 855.5,-504.5 855.5,-583.5"/>
<text text-anchor="start" x="779" y="-571" font-family="Helvetica,sans-Serif" font-size="10.00">rm::RMStatus</text>
<text text-anchor="start" x="810.5" y="-556" font-family="Helvetica,sans-Serif" font-size="10.00"> </text>
<text text-anchor="start" x="773" y="-541" font-family="Helvetica,sans-Serif" font-size="10.00">+</text>
<text text-anchor="start" x="786" y="-541" font-family="Helvetica,sans-Serif" font-size="10.00">operator==()</text>
<text text-anchor="start" x="773" y="-526" font-family="Helvetica,sans-Serif" font-size="10.00">+</text>
<text text-anchor="start" x="786" y="-526" font-family="Helvetica,sans-Serif" font-size="10.00">to_string()</text>
<text text-anchor="start" x="773" y="-511" font-family="Helvetica,sans-Serif" font-size="10.00">+</text>
<text text-anchor="start" x="786" y="-511" font-family="Helvetica,sans-Serif" font-size="10.00">to_string()</text>
<polygon fill="#666666" stroke="#666666" points="769,-566 769,-566 856,-566 856,-566 769,-566"/>
<polygon fill="#666666" stroke="#666666" points="769,-551 769,-551 856,-551 856,-551 769,-551"/>
<polygon fill="none" stroke="#666666" points="768.5,-504.5 768.5,-583.5 855.5,-583.5 855.5,-504.5 768.5,-504.5"/>
</a>
</g>
</g>
<!-- Node8&#45;&gt;Node2 -->
<g id="edge8_Node000002_Node000008" class="edge">
<title>Node8&#45;&gt;Node2</title>
<g id="a_edge8_Node000002_Node000008"><a xlink:title=" ">
<path fill="none" stroke="#63b8ff" d="M771.79,-504.25C724.27,-458.46 645.42,-382.49 595.93,-334.8"/>
<polygon fill="none" stroke="#63b8ff" points="595.69,-334.56 588.6,-333.28 587.05,-326.24 594.15,-327.52 595.69,-334.56"/>
</a>
</g>
<text text-anchor="middle" x="700.5" y="-411" font-family="Helvetica,sans-Serif" font-size="10.00" fill="grey"> #_type</text>
</g>
<!-- Node9 -->
<g id="Node000009" class="node">
<title>Node9</title>
<g id="a_Node000009"><a xlink:title=" ">
<polygon fill="white" stroke="transparent" points="823.5,-769 740.5,-769 740.5,-720 823.5,-720 823.5,-769"/>
<text text-anchor="start" x="746" y="-756.5" font-family="Helvetica,sans-Serif" font-size="10.00">ArmorSizeType</text>
<text text-anchor="start" x="780.5" y="-741.5" font-family="Helvetica,sans-Serif" font-size="10.00"> </text>
<text text-anchor="start" x="780.5" y="-726.5" font-family="Helvetica,sans-Serif" font-size="10.00"> </text>
<polygon fill="#666666" stroke="#666666" points="741,-751.5 741,-751.5 824,-751.5 824,-751.5 741,-751.5"/>
<polygon fill="#666666" stroke="#666666" points="741,-736.5 741,-736.5 824,-736.5 824,-736.5 741,-736.5"/>
<polygon fill="none" stroke="#666666" points="740.5,-720 740.5,-769 823.5,-769 823.5,-720 740.5,-720"/>
</a>
</g>
</g>
<!-- Node9&#45;&gt;Node8 -->
<g id="edge9_Node000008_Node000009" class="edge">
<title>Node9&#45;&gt;Node8</title>
<g id="a_edge9_Node000008_Node000009"><a xlink:title=" ">
<path fill="none" stroke="#63b8ff" d="M762.52,-719.72C759.01,-714.21 755.88,-708.15 754,-702 749.71,-687.97 750.82,-683.32 754,-669 759.74,-643.2 771.43,-616.41 782.83,-594.37"/>
<polygon fill="none" stroke="#63b8ff" points="782.91,-594.22 782.2,-587.04 788.55,-583.63 789.26,-590.8 782.91,-594.22"/>
</a>
</g>
<text text-anchor="middle" x="801.5" y="-683" font-family="Helvetica,sans-Serif" font-size="10.00" fill="grey"> +ArmorSizeTypeID</text>
</g>
<!-- Node10 -->
<g id="Node000010" class="node">
<title>Node10</title>
<g id="a_Node000010"><a xlink:title=" ">
<polygon fill="white" stroke="transparent" points="900,-769 842,-769 842,-720 900,-720 900,-769"/>
<text text-anchor="start" x="847" y="-756.5" font-family="Helvetica,sans-Serif" font-size="10.00">RuneType</text>
<text text-anchor="start" x="869" y="-741.5" font-family="Helvetica,sans-Serif" font-size="10.00"> </text>
<text text-anchor="start" x="869" y="-726.5" font-family="Helvetica,sans-Serif" font-size="10.00"> </text>
<polygon fill="#666666" stroke="#666666" points="842,-751.5 842,-751.5 900,-751.5 900,-751.5 842,-751.5"/>
<polygon fill="#666666" stroke="#666666" points="842,-736.5 842,-736.5 900,-736.5 900,-736.5 842,-736.5"/>
<polygon fill="none" stroke="#666666" points="842,-720 842,-769 900,-769 900,-720 842,-720"/>
</a>
</g>
</g>
<!-- Node10&#45;&gt;Node8 -->
<g id="edge10_Node000008_Node000010" class="edge">
<title>Node10&#45;&gt;Node8</title>
<g id="a_edge10_Node000008_Node000010"><a xlink:title=" ">
<path fill="none" stroke="#63b8ff" d="M863.98,-719.67C859.67,-705.05 854.03,-685.94 849,-669 841.79,-644.72 833.76,-617.78 827.02,-595.22"/>
<polygon fill="none" stroke="#63b8ff" points="826.96,-595.03 821.41,-590.43 823.53,-583.53 829.08,-588.14 826.96,-595.03"/>
</a>
</g>
<text text-anchor="middle" x="893" y="-683" font-family="Helvetica,sans-Serif" font-size="10.00" fill="grey"> +RuneTypeID</text>
</g>
<!-- Node11 -->
<g id="Node000011" class="node">
<title>Node11</title>
<g id="a_Node000011"><a xlink:title=" ">
<polygon fill="white" stroke="transparent" points="1013.5,-769 918.5,-769 918.5,-720 1013.5,-720 1013.5,-769"/>
<text text-anchor="start" x="924" y="-756.5" font-family="Helvetica,sans-Serif" font-size="10.00">CompensateType</text>
<text text-anchor="start" x="964.5" y="-741.5" font-family="Helvetica,sans-Serif" font-size="10.00"> </text>
<text text-anchor="start" x="964.5" y="-726.5" font-family="Helvetica,sans-Serif" font-size="10.00"> </text>
<polygon fill="#666666" stroke="#666666" points="919,-751.5 919,-751.5 1014,-751.5 1014,-751.5 919,-751.5"/>
<polygon fill="#666666" stroke="#666666" points="919,-736.5 919,-736.5 1014,-736.5 1014,-736.5 919,-736.5"/>
<polygon fill="none" stroke="#666666" points="918.5,-720 918.5,-769 1013.5,-769 1013.5,-720 918.5,-720"/>
</a>
</g>
</g>
<!-- Node11&#45;&gt;Node8 -->
<g id="edge11_Node000008_Node000011" class="edge">
<title>Node11&#45;&gt;Node8</title>
<g id="a_edge11_Node000008_Node000011"><a xlink:title=" ">
<path fill="none" stroke="#63b8ff" d="M960.84,-719.75C956.06,-703.24 947.3,-681.95 932,-669 908.47,-649.08 888.88,-670.5 865,-651 847.4,-636.63 835.12,-614.93 826.85,-594.9"/>
<polygon fill="none" stroke="#63b8ff" points="826.84,-594.89 820.96,-590.72 822.54,-583.68 828.43,-587.85 826.84,-594.89"/>
</a>
</g>
<text text-anchor="middle" x="1007" y="-683" font-family="Helvetica,sans-Serif" font-size="10.00" fill="grey"> +CompensateTypeID</text>
</g>
<!-- Node12 -->
<g id="Node000012" class="node">
<title>Node12</title>
<g id="a_Node000012"><a xlink:title=" ">
<polygon fill="white" stroke="transparent" points="1124,-769 1062,-769 1062,-720 1124,-720 1124,-769"/>
<text text-anchor="start" x="1067" y="-756.5" font-family="Helvetica,sans-Serif" font-size="10.00">RobotType</text>
<text text-anchor="start" x="1091" y="-741.5" font-family="Helvetica,sans-Serif" font-size="10.00"> </text>
<text text-anchor="start" x="1091" y="-726.5" font-family="Helvetica,sans-Serif" font-size="10.00"> </text>
<polygon fill="#666666" stroke="#666666" points="1062,-751.5 1062,-751.5 1124,-751.5 1124,-751.5 1062,-751.5"/>
<polygon fill="#666666" stroke="#666666" points="1062,-736.5 1062,-736.5 1124,-736.5 1124,-736.5 1062,-736.5"/>
<polygon fill="none" stroke="#666666" points="1062,-720 1062,-769 1124,-769 1124,-720 1062,-720"/>
</a>
</g>
</g>
<!-- Node12&#45;&gt;Node8 -->
<g id="edge12_Node000008_Node000012" class="edge">
<title>Node12&#45;&gt;Node8</title>
<g id="a_edge12_Node000008_Node000012"><a xlink:title=" ">
<path fill="none" stroke="#63b8ff" d="M1090.31,-719.74C1087.05,-702.78 1079.86,-680.93 1064,-669 1028.51,-642.31 901.68,-676.02 865,-651 845.87,-637.95 833.32,-615.89 825.26,-595.26"/>
<polygon fill="none" stroke="#63b8ff" points="825.16,-594.99 819.37,-590.69 821.12,-583.69 826.91,-587.99 825.16,-594.99"/>
</a>
</g>
<text text-anchor="middle" x="1121.5" y="-683" font-family="Helvetica,sans-Serif" font-size="10.00" fill="grey"> +RobotTypeID</text>
</g>
<!-- Node13 -->
<g id="Node000013" class="node">
<title>Node13</title>
<g id="a_Node000013"><a xlink:title=" ">
<polygon fill="white" stroke="transparent" points="1214,-769 1164,-769 1164,-720 1214,-720 1214,-769"/>
<text text-anchor="start" x="1169" y="-756.5" font-family="Helvetica,sans-Serif" font-size="10.00">TagType</text>
<text text-anchor="start" x="1187" y="-741.5" font-family="Helvetica,sans-Serif" font-size="10.00"> </text>
<text text-anchor="start" x="1187" y="-726.5" font-family="Helvetica,sans-Serif" font-size="10.00"> </text>
<polygon fill="#666666" stroke="#666666" points="1164,-751.5 1164,-751.5 1214,-751.5 1214,-751.5 1164,-751.5"/>
<polygon fill="#666666" stroke="#666666" points="1164,-736.5 1164,-736.5 1214,-736.5 1214,-736.5 1164,-736.5"/>
<polygon fill="none" stroke="#666666" points="1164,-720 1164,-769 1214,-769 1214,-720 1164,-720"/>
</a>
</g>
</g>
<!-- Node13&#45;&gt;Node8 -->
<g id="edge13_Node000008_Node000013" class="edge">
<title>Node13&#45;&gt;Node8</title>
<g id="a_edge13_Node000008_Node000013"><a xlink:title=" ">
<path fill="none" stroke="#63b8ff" d="M1187.07,-719.65C1184.34,-702.64 1177.76,-680.78 1162,-669 1109.04,-629.42 920.17,-687.45 865,-651 845.52,-638.13 832.89,-615.84 824.88,-595.01"/>
<polygon fill="none" stroke="#63b8ff" points="824.86,-594.98 819.1,-590.65 820.88,-583.66 826.65,-587.99 824.86,-594.98"/>
</a>
</g>
<text text-anchor="middle" x="1212.5" y="-683" font-family="Helvetica,sans-Serif" font-size="10.00" fill="grey"> +TagTypeID</text>
</g>
<!-- Node14 -->
<g id="Node000014" class="node">
<title>Node14</title>
<g id="a_Node000014"><a xlink:title=" ">
<polygon fill="white" stroke="transparent" points="400.5,-769 355.5,-769 355.5,-720 400.5,-720 400.5,-769"/>
<text text-anchor="start" x="361" y="-756.5" font-family="Helvetica,sans-Serif" font-size="10.00">Point2f</text>
<text text-anchor="start" x="376.5" y="-741.5" font-family="Helvetica,sans-Serif" font-size="10.00"> </text>
<text text-anchor="start" x="376.5" y="-726.5" font-family="Helvetica,sans-Serif" font-size="10.00"> </text>
<polygon fill="#666666" stroke="#666666" points="356,-751.5 356,-751.5 401,-751.5 401,-751.5 356,-751.5"/>
<polygon fill="#666666" stroke="#666666" points="356,-736.5 356,-736.5 401,-736.5 401,-736.5 356,-736.5"/>
<polygon fill="none" stroke="#666666" points="355.5,-720 355.5,-769 400.5,-769 400.5,-720 355.5,-720"/>
</a>
</g>
</g>
<!-- Node14&#45;&gt;Node2 -->
<g id="edge14_Node000002_Node000014" class="edge">
<title>Node14&#45;&gt;Node2</title>
<g id="a_edge14_Node000002_Node000014"><a xlink:title=" ">
<path fill="none" stroke="#63b8ff" d="M392.65,-719.59C395.52,-713.99 398.19,-707.93 400,-702 434.59,-588.73 381.49,-545.92 428,-437 445.52,-395.96 478.73,-357.77 506.23,-330.82"/>
<polygon fill="none" stroke="#63b8ff" points="506.27,-330.79 507.83,-323.75 514.93,-322.48 513.37,-329.52 506.27,-330.79"/>
</a>
</g>
<text text-anchor="middle" x="470" y="-547" font-family="Helvetica,sans-Serif" font-size="10.00" fill="grey"> #_center</text>
<text text-anchor="middle" x="470" y="-536" font-family="Helvetica,sans-Serif" font-size="10.00" fill="grey">#_relative_angle</text>
</g>
<!-- Node14&#45;&gt;Node18 -->
<g id="edge21_Node000018_Node000014" class="edge">
<title>Node14&#45;&gt;Node18</title>
<g id="a_edge21_Node000018_Node000014"><a xlink:title=" ">
<path fill="none" stroke="#63b8ff" d="M355.13,-721.33C350.15,-715.46 345.37,-708.84 342,-702 322.9,-663.23 315.19,-613.69 312.09,-580.73"/>
<polygon fill="none" stroke="#63b8ff" points="312.07,-580.51 307.59,-574.86 311.08,-568.55 315.56,-574.2 312.07,-580.51"/>
</a>
</g>
<text text-anchor="middle" x="371" y="-683" font-family="Helvetica,sans-Serif" font-size="10.00" fill="grey"> +elements</text>
</g>
<!-- Node15 -->
<g id="Node000015" class="node">
<title>Node15</title>
<g id="a_Node000015"><a xlink:href="../../db/def/structrm_1_1ImuData.html" target="_top" xlink:title="IMU 数据">
<polygon fill="white" stroke="transparent" points="628,-591 556,-591 556,-497 628,-497 628,-591"/>
<text text-anchor="start" x="561" y="-579" font-family="Helvetica,sans-Serif" font-size="10.00">rm::ImuData</text>
<text text-anchor="start" x="590" y="-564" font-family="Helvetica,sans-Serif" font-size="10.00"> </text>
<text text-anchor="start" x="564.5" y="-549" font-family="Helvetica,sans-Serif" font-size="10.00">+</text>
<text text-anchor="start" x="582" y="-549" font-family="Helvetica,sans-Serif" font-size="10.00">write()</text>
<text text-anchor="start" x="564.5" y="-534" font-family="Helvetica,sans-Serif" font-size="10.00">+</text>
<text text-anchor="start" x="582" y="-534" font-family="Helvetica,sans-Serif" font-size="10.00">read()</text>
<text text-anchor="start" x="564.5" y="-519" font-family="Helvetica,sans-Serif" font-size="10.00">+</text>
<text text-anchor="start" x="582" y="-519" font-family="Helvetica,sans-Serif" font-size="10.00">write()</text>
<text text-anchor="start" x="564.5" y="-504" font-family="Helvetica,sans-Serif" font-size="10.00">+</text>
<text text-anchor="start" x="582" y="-504" font-family="Helvetica,sans-Serif" font-size="10.00">read()</text>
<polygon fill="#666666" stroke="#666666" points="556,-574 556,-574 628,-574 628,-574 556,-574"/>
<polygon fill="#666666" stroke="#666666" points="556,-559 556,-559 628,-559 628,-559 556,-559"/>
<polygon fill="none" stroke="#666666" points="556,-497 556,-591 628,-591 628,-497 556,-497"/>
</a>
</g>
</g>
<!-- Node15&#45;&gt;Node2 -->
<g id="edge15_Node000002_Node000015" class="edge">
<title>Node15&#45;&gt;Node2</title>
<g id="a_edge15_Node000002_Node000015"><a xlink:title=" ">
<path fill="none" stroke="#63b8ff" d="M584.48,-496.87C580.15,-470.29 574.5,-435.63 569.08,-402.39"/>
<polygon fill="none" stroke="#63b8ff" points="569.02,-402.06 564.11,-396.79 567.09,-390.22 572.01,-395.5 569.02,-402.06"/>
</a>
</g>
<text text-anchor="middle" x="603.5" y="-411" font-family="Helvetica,sans-Serif" font-size="10.00" fill="grey"> #_imu_data</text>
</g>
<!-- Node16&#45;&gt;Node15 -->
<g id="edge16_Node000015_Node000016" class="edge">
<title>Node16&#45;&gt;Node15</title>
<g id="a_edge16_Node000015_Node000016"><a xlink:title=" ">
<path fill="none" stroke="#63b8ff" d="M592,-719.95C592,-691.41 592,-642.3 592,-603.37"/>
<polygon fill="none" stroke="#63b8ff" points="592,-603.12 588,-597.12 592,-591.12 596,-597.12 592,-603.12"/>
</a>
</g>
<text text-anchor="middle" x="624" y="-683" font-family="Helvetica,sans-Serif" font-size="10.00" fill="grey"> +translation</text>
</g>
<!-- Node17&#45;&gt;Node15 -->
<g id="edge18_Node000015_Node000017" class="edge">
<title>Node17&#45;&gt;Node15</title>
<g id="a_edge18_Node000015_Node000017"><a xlink:title=" ">
<path fill="none" stroke="#63b8ff" d="M678.56,-719.72C673.11,-704.94 665.64,-685.65 658,-669 647.74,-646.63 635.31,-622.63 624.02,-601.76"/>
<polygon fill="none" stroke="#63b8ff" points="623.98,-601.69 617.6,-598.34 618.24,-591.16 624.62,-594.51 623.98,-601.69"/>
</a>
</g>
<text text-anchor="middle" x="696" y="-683" font-family="Helvetica,sans-Serif" font-size="10.00" fill="grey"> +rotation</text>
</g>
<!-- Node18&#45;&gt;Node2 -->
<g id="edge20_Node000002_Node000018" class="edge">
<title>Node18&#45;&gt;Node2</title>
<g id="a_edge20_Node000002_Node000018"><a xlink:title=" ">
<path fill="none" stroke="#63b8ff" d="M311.08,-519.35C313.53,-490.33 321.46,-440.93 347,-408 386.98,-356.45 456.64,-323.84 503.28,-306.63"/>
<polygon fill="none" stroke="#63b8ff" points="503.31,-306.62 507.61,-300.83 514.61,-302.58 510.3,-308.36 503.31,-306.62"/>
</a>
</g>
<text text-anchor="middle" x="373.5" y="-411" font-family="Helvetica,sans-Serif" font-size="10.00" fill="grey"> #_corners</text>
</g>
<!-- Node19 -->
<g id="Node000019" class="node">
<title>Node19</title>
<g id="a_Node000019"><a xlink:href="../../da/dbf/classrm_1_1CameraExtrinsics.html" target="_top" xlink:title="相机外参">
<polygon fill="white" stroke="transparent" points="990,-651 874,-651 874,-437 990,-437 990,-651"/>
<text text-anchor="start" x="879" y="-639" font-family="Helvetica,sans-Serif" font-size="10.00">rm::CameraExtrinsics</text>
<text text-anchor="start" x="930" y="-624" font-family="Helvetica,sans-Serif" font-size="10.00"> </text>
<text text-anchor="start" x="889.5" y="-609" font-family="Helvetica,sans-Serif" font-size="10.00">+</text>
<text text-anchor="start" x="914" y="-609" font-family="Helvetica,sans-Serif" font-size="10.00">tvec()</text>
<text text-anchor="start" x="889.5" y="-594" font-family="Helvetica,sans-Serif" font-size="10.00">+</text>
<text text-anchor="start" x="914" y="-594" font-family="Helvetica,sans-Serif" font-size="10.00">rvec()</text>
<text text-anchor="start" x="889.5" y="-579" font-family="Helvetica,sans-Serif" font-size="10.00">+</text>
<text text-anchor="start" x="914" y="-579" font-family="Helvetica,sans-Serif" font-size="10.00">R()</text>
<text text-anchor="start" x="889.5" y="-564" font-family="Helvetica,sans-Serif" font-size="10.00">+</text>
<text text-anchor="start" x="914" y="-564" font-family="Helvetica,sans-Serif" font-size="10.00">T()</text>
<text text-anchor="start" x="889.5" y="-549" font-family="Helvetica,sans-Serif" font-size="10.00">+</text>
<text text-anchor="start" x="914" y="-549" font-family="Helvetica,sans-Serif" font-size="10.00">yaw()</text>
<text text-anchor="start" x="889.5" y="-534" font-family="Helvetica,sans-Serif" font-size="10.00">+</text>
<text text-anchor="start" x="914" y="-534" font-family="Helvetica,sans-Serif" font-size="10.00">pitch()</text>
<text text-anchor="start" x="889.5" y="-519" font-family="Helvetica,sans-Serif" font-size="10.00">+</text>
<text text-anchor="start" x="914" y="-519" font-family="Helvetica,sans-Serif" font-size="10.00">roll()</text>
<text text-anchor="start" x="889.5" y="-504" font-family="Helvetica,sans-Serif" font-size="10.00">+</text>
<text text-anchor="start" x="914" y="-504" font-family="Helvetica,sans-Serif" font-size="10.00">distance()</text>
<text text-anchor="start" x="889.5" y="-489" font-family="Helvetica,sans-Serif" font-size="10.00">+</text>
<text text-anchor="start" x="914" y="-489" font-family="Helvetica,sans-Serif" font-size="10.00">tvec()</text>
<text text-anchor="start" x="889.5" y="-474" font-family="Helvetica,sans-Serif" font-size="10.00">+</text>
<text text-anchor="start" x="914" y="-474" font-family="Helvetica,sans-Serif" font-size="10.00">rvec()</text>
<text text-anchor="start" x="889.5" y="-459" font-family="Helvetica,sans-Serif" font-size="10.00">+</text>
<text text-anchor="start" x="914" y="-459" font-family="Helvetica,sans-Serif" font-size="10.00">R()</text>
<text text-anchor="start" x="889.5" y="-444" font-family="Helvetica,sans-Serif" font-size="10.00">+</text>
<text text-anchor="start" x="914" y="-444" font-family="Helvetica,sans-Serif" font-size="10.00">distance()</text>
<polygon fill="#666666" stroke="#666666" points="874,-634 874,-634 990,-634 990,-634 874,-634"/>
<polygon fill="#666666" stroke="#666666" points="874,-619 874,-619 990,-619 990,-619 874,-619"/>
<polygon fill="none" stroke="#666666" points="874,-437 874,-651 990,-651 990,-437 874,-437"/>
</a>
</g>
</g>
<!-- Node19&#45;&gt;Node2 -->
<g id="edge23_Node000002_Node000019" class="edge">
<title>Node19&#45;&gt;Node2</title>
<g id="a_edge23_Node000002_Node000019"><a xlink:title=" ">
<path fill="none" stroke="#63b8ff" d="M873.58,-445.2C870.81,-442.33 867.94,-439.59 865,-437 784.88,-366.66 664.96,-323.92 598.91,-304.32"/>
<polygon fill="none" stroke="#63b8ff" points="598.75,-304.27 591.87,-306.44 587.23,-300.93 594.11,-298.76 598.75,-304.27"/>
</a>
</g>
<text text-anchor="middle" x="864.5" y="-411" font-family="Helvetica,sans-Serif" font-size="10.00" fill="grey"> #_extrinsic</text>
</g>
<!-- Node20 -->
<g id="Node000020" class="node">
<title>Node20</title>
<g id="a_Node000020"><a xlink:title=" ">
<polygon fill="white" stroke="transparent" points="1052,-568.5 1008,-568.5 1008,-519.5 1052,-519.5 1052,-568.5"/>
<text text-anchor="start" x="1013" y="-556" font-family="Helvetica,sans-Serif" font-size="10.00">double</text>
<text text-anchor="start" x="1028" y="-541" font-family="Helvetica,sans-Serif" font-size="10.00"> </text>
<text text-anchor="start" x="1028" y="-526" font-family="Helvetica,sans-Serif" font-size="10.00"> </text>
<polygon fill="#666666" stroke="#666666" points="1008,-551 1008,-551 1052,-551 1052,-551 1008,-551"/>
<polygon fill="#666666" stroke="#666666" points="1008,-536 1008,-536 1052,-536 1052,-536 1008,-536"/>
<polygon fill="none" stroke="#666666" points="1008,-519.5 1008,-568.5 1052,-568.5 1052,-519.5 1008,-519.5"/>
</a>
</g>
</g>
<!-- Node20&#45;&gt;Node2 -->
<g id="edge24_Node000002_Node000020" class="edge">
<title>Node20&#45;&gt;Node2</title>
<g id="a_edge24_Node000002_Node000020"><a xlink:title=" ">
<path fill="none" stroke="#63b8ff" d="M1029.25,-519.19C1027.22,-495.36 1020.5,-459.15 999,-437 889.1,-323.81 690.41,-298.59 599.17,-293.03"/>
<polygon fill="none" stroke="#63b8ff" points="599.01,-293.02 592.81,-296.69 587.03,-292.37 593.24,-288.7 599.01,-293.02"/>
</a>
</g>
<text text-anchor="middle" x="988.5" y="-411" font-family="Helvetica,sans-Serif" font-size="10.00" fill="grey"> #_tick</text>
</g>
</g>
</svg>

<g id="navigator" transform="translate(0 0)" fill="#404254">
  <rect fill="#f2f5e9" fill-opacity="0.5" stroke="#606060" stroke-width=".5" x="0" y="0" width="60" height="60"/>
  <use id="zoomplus" xlink:href="#zoomPlus" x="17" y="9" onmousedown="handleZoom(evt,'in')"/>
  <use id="zoomminus" xlink:href="#zoomMin" x="42" y="9" onmousedown="handleZoom(evt,'out')"/>
  <use id="reset" xlink:href="#resetDef" x="30" y="36" onmousedown="handleReset()"/>
   <use id="arrowup" xlink:href="#arrowUp" x="0" y="0" onmousedown="handlePan(0,-1)"/>
  <use id="arrowright" xlink:href="#arrowRight" x="0" y="0" onmousedown="handlePan(1,0)"/>
  <use id="arrowdown" xlink:href="#arrowDown" x="0" y="0" onmousedown="handlePan(0,1)"/>
  <use id="arrowleft" xlink:href="#arrowLeft" x="0" y="0" onmousedown="handlePan(-1,0)"/>
</g>
<svg viewBox="0 0 15 15" width="100%" height="30px" preserveAspectRatio="xMaxYMin meet">
 <g id="arrow_out" transform="scale(0.3 0.3)">
  <a xlink:href="classrm_1_1Rune__coll__graph_org.svg" target="_base">
   <rect id="button" ry="5" rx="5" y="6" x="6" height="38" width="38"
        fill="#f2f5e9" fill-opacity="0.5" stroke="#606060" stroke-width="1.0"/>
   <path id="arrow"
     d="M 11.500037,31.436501 C 11.940474,20.09759 22.043105,11.32322 32.158766,21.979434 L 37.068811,17.246167 C 37.068811,17.246167 37.088388,32 37.088388,32 L 22.160133,31.978069 C 22.160133,31.978069 26.997745,27.140456 26.997745,27.140456 C 18.528582,18.264221 13.291696,25.230495 11.500037,31.436501 z"
     style="fill:#404040;"/>
  </a>
 </g>
</svg>

<style type='text/css'>
<![CDATA[
[data-mouse-over-selected='false'] { opacity: 0.7; }
[data-mouse-over-selected='true']  { opacity: 1.0; }
]]>
</style>
<script type="application/ecmascript"><![CDATA[
document.addEventListener('DOMContentLoaded', (event) => {
  highlightEdges();
  highlightAdjacentNodes();
});
]]></script>
</svg>
