<?xml version="1.0" encoding="UTF-8" standalone="no"?>
<!DOCTYPE svg PUBLIC "-//W3C//DTD SVG 1.1//EN"
 "http://www.w3.org/Graphics/SVG/1.1/DTD/svg11.dtd">
<!-- Generated by graphviz version 2.43.0 (0)
 -->
<!-- Title: rm::GyroPredictor::Info Pages: 1 -->
<!--zoomable 528 -->

<svg id="main" version="1.1" xmlns="http://www.w3.org/2000/svg" xmlns:xlink="http://www.w3.org/1999/xlink" xml:space="preserve" onload="init(evt)">

<style type="text/css"><![CDATA[
.node, .edge {opacity: 0.7;}
.node.selected, .edge.selected {opacity: 1;}
.edge:hover path { stroke: red; }
.edge:hover polygon { stroke: red; fill: red; }
]]></style>

<defs>
  <circle id="rim" cx="0" cy="0" r="7"/>
  <circle id="rim2" cx="0" cy="0" r="3.5"/>
  <g id="zoomPlus">
    <use xlink:href="#rim" fill="#404040"><set attributeName="fill" to="#808080" begin="zoomplus.mouseover" end="zoomplus.mouseout"/></use>
    <path d="M-4,0h8M0,-4v8" fill="none" stroke="white" stroke-width="1.5" pointer-events="none"/>
  </g>
  <g id="zoomMin">
    <use xlink:href="#rim" fill="#404040"><set attributeName="fill" to="#808080" begin="zoomminus.mouseover" end="zoomminus.mouseout"/></use>
    <path d="M-4,0h8" fill="none" stroke="white" stroke-width="1.5" pointer-events="none"/>
  </g>
  <g id="arrowUp" transform="translate(30 24)">
    <use xlink:href="#rim"/>
    <path pointer-events="none" fill="none" stroke="white" stroke-width="1.5" d="M0,-3.0v7 M-2.5,-0.5L0,-3.0L2.5,-0.5"/>
  </g>
  <g id="arrowRight" transform="rotate(90) translate(36 -43)">
    <use xlink:href="#rim"/>
    <path pointer-events="none" fill="none" stroke="white" stroke-width="1.5" d="M0,-3.0v7 M-2.5,-0.5L0,-3.0L2.5,-0.5"/>
  </g>
  <g id="arrowDown" transform="rotate(180) translate(-30 -48)">
    <use xlink:href="#rim"/>
    <path pointer-events="none" fill="none" stroke="white" stroke-width="1.5" d="M0,-3.0v7 M-2.5,-0.5L0,-3.0L2.5,-0.5"/>
  </g>
  <g id="arrowLeft" transform="rotate(270) translate(-36 17)">
    <use xlink:href="#rim"/>
    <path pointer-events="none" fill="none" stroke="white" stroke-width="1.5" d="M0,-3.0v7 M-2.5,-0.5L0,-3.0L2.5,-0.5"/>
  </g>
  <g id="resetDef">
    <use xlink:href="#rim2" fill="#404040"><set attributeName="fill" to="#808080" begin="reset.mouseover" end="reset.mouseout"/></use>
  </g>
</defs>
<script type="application/ecmascript">
var viewWidth = 617;
var viewHeight = 528;
var sectionId = 'dynsection-0';
</script>
<script type="application/ecmascript" xlink:href="../../svg.min.js"/>
<svg id="graph" class="graph">
<g id="viewport">
<title>rm::GyroPredictor::Info</title>
<!-- Node1 -->
<g id="Node000001" class="node">
<title>Node1</title>
<g id="a_Node000001"><a xlink:title="预测模块信息">
<polygon fill="#999999" stroke="transparent" points="283.5,-49 161.5,-49 161.5,0 283.5,0 283.5,-49"/>
<text text-anchor="start" x="166.5" y="-36.5" font-family="Helvetica,sans-Serif" font-size="10.00">rm::GyroPredictor::Info</text>
<text text-anchor="start" x="220.5" y="-21.5" font-family="Helvetica,sans-Serif" font-size="10.00"> </text>
<text text-anchor="start" x="220.5" y="-6.5" font-family="Helvetica,sans-Serif" font-size="10.00"> </text>
<polygon fill="#666666" stroke="#666666" points="161.5,-31.5 161.5,-31.5 283.5,-31.5 283.5,-31.5 161.5,-31.5"/>
<polygon fill="#666666" stroke="#666666" points="161.5,-16.5 161.5,-16.5 283.5,-16.5 283.5,-16.5 161.5,-16.5"/>
<polygon fill="none" stroke="#666666" points="161.5,0 161.5,-49 283.5,-49 283.5,0 161.5,0"/>
</a>
</g>
</g>
<!-- Node2 -->
<g id="Node000002" class="node">
<title>Node2</title>
<g id="a_Node000002"><a xlink:title=" ">
<polygon fill="white" stroke="transparent" points="366,-188 227,-188 227,-117 366,-117 366,-188"/>
<text text-anchor="start" x="232.5" y="-175.5" font-family="Helvetica,sans-Serif" font-size="10.00">std::unordered_map</text>
<text text-anchor="start" x="232.5" y="-164.5" font-family="Helvetica,sans-Serif" font-size="10.00">&lt; tracker::const_ptr,</text>
<text text-anchor="start" x="232.5" y="-153.5" font-family="Helvetica,sans-Serif" font-size="10.00"> std::array&lt; double, 4 &gt; &gt;</text>
<text text-anchor="start" x="295" y="-138.5" font-family="Helvetica,sans-Serif" font-size="10.00"> </text>
<text text-anchor="start" x="295" y="-123.5" font-family="Helvetica,sans-Serif" font-size="10.00"> </text>
<polygon fill="#666666" stroke="#666666" points="227.5,-148.5 227.5,-148.5 366.5,-148.5 366.5,-148.5 227.5,-148.5"/>
<polygon fill="#666666" stroke="#666666" points="227.5,-133.5 227.5,-133.5 366.5,-133.5 366.5,-133.5 227.5,-133.5"/>
<polygon fill="none" stroke="#666666" points="227,-117 227,-188 366,-188 366,-117 227,-117"/>
</a>
</g>
</g>
<!-- Node2&#45;&gt;Node1 -->
<g id="edge1_Node000001_Node000002" class="edge">
<title>Node2&#45;&gt;Node1</title>
<g id="a_edge1_Node000001_Node000002"><a xlink:title=" ">
<path fill="none" stroke="#63b8ff" d="M293.68,-116.92C291.08,-100.73 286.08,-81.81 276.5,-67 274.35,-63.67 271.84,-60.51 269.09,-57.52"/>
<polygon fill="none" stroke="#63b8ff" points="268.96,-57.39 261.87,-56.12 260.31,-49.08 267.4,-50.35 268.96,-57.39"/>
</a>
</g>
<text text-anchor="start" x="293" y="-88" font-family="Helvetica,sans-Serif" font-size="10.00" fill="grey">+dynamic_prediction</text>
<text text-anchor="start" x="293" y="-73" font-family="Helvetica,sans-Serif" font-size="10.00" fill="grey">+static_prediction</text>
</g>
<!-- Node3 -->
<g id="Node000003" class="node">
<title>Node3</title>
<g id="a_Node000003"><a xlink:title=" ">
<polygon fill="white" stroke="transparent" points="121,-316 0,-316 0,-256 121,-256 121,-316"/>
<text text-anchor="start" x="5.5" y="-304" font-family="Helvetica,sans-Serif" font-size="10.00">std::shared_ptr&lt; const</text>
<text text-anchor="start" x="36.5" y="-293" font-family="Helvetica,sans-Serif" font-size="10.00"> tracker &gt;</text>
<text text-anchor="start" x="14" y="-278" font-family="Helvetica,sans-Serif" font-size="10.00">+</text>
<text text-anchor="start" x="36.5" y="-278" font-family="Helvetica,sans-Serif" font-size="10.00">ptr</text>
<text text-anchor="start" x="14" y="-263" font-family="Helvetica,sans-Serif" font-size="10.00">+</text>
<text text-anchor="start" x="36.5" y="-263" font-family="Helvetica,sans-Serif" font-size="10.00">operator&#45;&gt;()</text>
<polygon fill="#666666" stroke="#666666" points="0.5,-288 0.5,-288 121.5,-288 121.5,-288 0.5,-288"/>
<polygon fill="#666666" stroke="#666666" points="0.5,-273 0.5,-273 34.5,-273 34.5,-273 0.5,-273"/>
<polygon fill="#666666" stroke="#666666" points="34.5,-273 34.5,-273 121.5,-273 121.5,-273 34.5,-273"/>
<polygon fill="none" stroke="#666666" points="0,-256 0,-316 121,-316 121,-256 0,-256"/>
</a>
</g>
</g>
<!-- Node3&#45;&gt;Node2 -->
<g id="edge2_Node000002_Node000003" class="edge">
<title>Node3&#45;&gt;Node2</title>
<g id="a_edge2_Node000002_Node000003"><a xlink:title=" ">
<path fill="none" stroke="#63b8ff" d="M112.58,-255.98C145.18,-237.81 187.66,-214.14 223.58,-194.13"/>
<polygon fill="none" stroke="#63b8ff" points="224.02,-193.89 227.32,-187.47 234.5,-188.04 231.21,-194.46 224.02,-193.89"/>
</a>
</g>
<text text-anchor="start" x="204" y="-219" font-family="Helvetica,sans-Serif" font-size="10.00" fill="grey">+keys</text>
</g>
<!-- Node11 -->
<g id="Node000011" class="node">
<title>Node11</title>
<g id="a_Node000011"><a xlink:title=" ">
<polygon fill="white" stroke="transparent" points="206.5,-188 96.5,-188 96.5,-117 206.5,-117 206.5,-188"/>
<text text-anchor="start" x="101.5" y="-175.5" font-family="Helvetica,sans-Serif" font-size="10.00">std::unordered_map</text>
<text text-anchor="start" x="101.5" y="-164.5" font-family="Helvetica,sans-Serif" font-size="10.00">&lt; tracker::const_ptr,</text>
<text text-anchor="start" x="127.5" y="-153.5" font-family="Helvetica,sans-Serif" font-size="10.00"> double &gt;</text>
<text text-anchor="start" x="149.5" y="-138.5" font-family="Helvetica,sans-Serif" font-size="10.00"> </text>
<text text-anchor="start" x="149.5" y="-123.5" font-family="Helvetica,sans-Serif" font-size="10.00"> </text>
<polygon fill="#666666" stroke="#666666" points="96.5,-148.5 96.5,-148.5 206.5,-148.5 206.5,-148.5 96.5,-148.5"/>
<polygon fill="#666666" stroke="#666666" points="96.5,-133.5 96.5,-133.5 206.5,-133.5 206.5,-133.5 96.5,-133.5"/>
<polygon fill="none" stroke="#666666" points="96.5,-117 96.5,-188 206.5,-188 206.5,-117 96.5,-117"/>
</a>
</g>
</g>
<!-- Node3&#45;&gt;Node11 -->
<g id="edge13_Node000011_Node000003" class="edge">
<title>Node3&#45;&gt;Node11</title>
<g id="a_edge13_Node000011_Node000003"><a xlink:title=" ">
<path fill="none" stroke="#63b8ff" d="M51.58,-255.73C48.53,-239.97 47.78,-220.79 56.5,-206 63.46,-194.2 74.13,-184.87 85.84,-177.55"/>
<polygon fill="none" stroke="#63b8ff" points="85.88,-177.53 89.14,-171.1 96.33,-171.63 93.07,-178.07 85.88,-177.53"/>
</a>
</g>
<text text-anchor="start" x="60" y="-219" font-family="Helvetica,sans-Serif" font-size="10.00" fill="grey">+keys</text>
</g>
<!-- Node4 -->
<g id="Node000004" class="node">
<title>Node4</title>
<g id="a_Node000004"><a xlink:title=" ">
<polygon fill="white" stroke="transparent" points="133.5,-418 21.5,-418 21.5,-369 133.5,-369 133.5,-418"/>
<text text-anchor="start" x="26.5" y="-405.5" font-family="Helvetica,sans-Serif" font-size="10.00">std::shared_ptr&lt; T &gt;</text>
<text text-anchor="start" x="75.5" y="-390.5" font-family="Helvetica,sans-Serif" font-size="10.00"> </text>
<text text-anchor="start" x="33" y="-375.5" font-family="Helvetica,sans-Serif" font-size="10.00">+</text>
<text text-anchor="start" x="53.5" y="-375.5" font-family="Helvetica,sans-Serif" font-size="10.00">operator&#45;&gt;()</text>
<polygon fill="#666666" stroke="#666666" points="21.5,-400.5 21.5,-400.5 133.5,-400.5 133.5,-400.5 21.5,-400.5"/>
<polygon fill="#666666" stroke="#666666" points="21.5,-385.5 21.5,-385.5 133.5,-385.5 133.5,-385.5 21.5,-385.5"/>
<polygon fill="none" stroke="#666666" points="21.5,-369 21.5,-418 133.5,-418 133.5,-369 21.5,-369"/>
</a>
</g>
</g>
<!-- Node4&#45;&gt;Node3 -->
<g id="edge3_Node000003_Node000004" class="edge">
<title>Node4&#45;&gt;Node3</title>
<g id="a_edge3_Node000003_Node000004"><a xlink:title=" ">
<path fill="none" stroke="orange" d="M63.49,-359.13C62.7,-356.41 62.02,-353.68 61.5,-351 59.32,-339.76 58.73,-327.21 58.81,-316.22"/>
<polygon fill="orange" stroke="orange" points="60.23,-360.41 66.72,-368.79 66.87,-358.19 60.23,-360.41"/>
</a>
</g>
<text text-anchor="start" x="64.5" y="-339.5" font-family="Helvetica,sans-Serif" font-size="10.00" fill="grey">&lt; const tracker &gt;</text>
</g>
<!-- Node5 -->
<g id="Node000005" class="node">
<title>Node5</title>
<g id="a_Node000005"><a xlink:title=" ">
<polygon fill="white" stroke="transparent" points="311,-520 294,-520 294,-471 311,-471 311,-520"/>
<text text-anchor="start" x="299.5" y="-507.5" font-family="Helvetica,sans-Serif" font-size="10.00">T</text>
<text text-anchor="start" x="301" y="-492.5" font-family="Helvetica,sans-Serif" font-size="10.00"> </text>
<text text-anchor="start" x="301" y="-477.5" font-family="Helvetica,sans-Serif" font-size="10.00"> </text>
<polygon fill="#666666" stroke="#666666" points="294.5,-502.5 294.5,-502.5 311.5,-502.5 311.5,-502.5 294.5,-502.5"/>
<polygon fill="#666666" stroke="#666666" points="294.5,-487.5 294.5,-487.5 311.5,-487.5 311.5,-487.5 294.5,-487.5"/>
<polygon fill="none" stroke="#666666" points="294,-471 294,-520 311,-520 311,-471 294,-471"/>
</a>
</g>
</g>
<!-- Node5&#45;&gt;Node4 -->
<g id="edge4_Node000004_Node000005" class="edge">
<title>Node5&#45;&gt;Node4</title>
<g id="a_edge4_Node000004_Node000005"><a xlink:title=" ">
<path fill="none" stroke="#63b8ff" d="M293.95,-490.7C269.25,-479.72 196.02,-447.18 141.54,-422.96"/>
<polygon fill="none" stroke="#63b8ff" points="141.53,-422.96 134.43,-424.18 130.57,-418.09 137.68,-416.87 141.53,-422.96"/>
</a>
</g>
<text text-anchor="start" x="206.5" y="-441.5" font-family="Helvetica,sans-Serif" font-size="10.00" fill="grey">+ptr</text>
</g>
<!-- Node8 -->
<g id="Node000008" class="node">
<title>Node8</title>
<g id="a_Node000008"><a xlink:title=" ">
<polygon fill="white" stroke="transparent" points="345.5,-418 259.5,-418 259.5,-369 345.5,-369 345.5,-418"/>
<text text-anchor="start" x="264.5" y="-405.5" font-family="Helvetica,sans-Serif" font-size="10.00">std::array&lt; T &gt;</text>
<text text-anchor="start" x="300.5" y="-390.5" font-family="Helvetica,sans-Serif" font-size="10.00"> </text>
<text text-anchor="start" x="300.5" y="-375.5" font-family="Helvetica,sans-Serif" font-size="10.00"> </text>
<polygon fill="#666666" stroke="#666666" points="259.5,-400.5 259.5,-400.5 345.5,-400.5 345.5,-400.5 259.5,-400.5"/>
<polygon fill="#666666" stroke="#666666" points="259.5,-385.5 259.5,-385.5 345.5,-385.5 345.5,-385.5 259.5,-385.5"/>
<polygon fill="none" stroke="#666666" points="259.5,-369 259.5,-418 345.5,-418 345.5,-369 259.5,-369"/>
</a>
</g>
</g>
<!-- Node5&#45;&gt;Node8 -->
<g id="edge8_Node000008_Node000005" class="edge">
<title>Node5&#45;&gt;Node8</title>
<g id="a_edge8_Node000008_Node000005"><a xlink:title=" ">
<path fill="none" stroke="#63b8ff" d="M302.5,-470.8C302.5,-458.72 302.5,-443.78 302.5,-430.33"/>
<polygon fill="none" stroke="#63b8ff" points="302.5,-430.03 298.5,-424.03 302.5,-418.03 306.5,-424.03 302.5,-430.03"/>
</a>
</g>
<text text-anchor="start" x="306" y="-441.5" font-family="Helvetica,sans-Serif" font-size="10.00" fill="grey">+elements</text>
</g>
<!-- Node9 -->
<g id="Node000009" class="node">
<title>Node9</title>
<g id="a_Node000009"><a xlink:title=" ">
<polygon fill="white" stroke="transparent" points="515.5,-316 407.5,-316 407.5,-256 515.5,-256 515.5,-316"/>
<text text-anchor="start" x="412.5" y="-304" font-family="Helvetica,sans-Serif" font-size="10.00">std::unordered_map</text>
<text text-anchor="start" x="440.5" y="-293" font-family="Helvetica,sans-Serif" font-size="10.00">&lt; K, T &gt;</text>
<text text-anchor="start" x="459.5" y="-278" font-family="Helvetica,sans-Serif" font-size="10.00"> </text>
<text text-anchor="start" x="459.5" y="-263" font-family="Helvetica,sans-Serif" font-size="10.00"> </text>
<polygon fill="#666666" stroke="#666666" points="407.5,-288 407.5,-288 515.5,-288 515.5,-288 407.5,-288"/>
<polygon fill="#666666" stroke="#666666" points="407.5,-273 407.5,-273 515.5,-273 515.5,-273 407.5,-273"/>
<polygon fill="none" stroke="#666666" points="407.5,-256 407.5,-316 515.5,-316 515.5,-256 407.5,-256"/>
</a>
</g>
</g>
<!-- Node5&#45;&gt;Node9 -->
<g id="edge11_Node000009_Node000005" class="edge">
<title>Node5&#45;&gt;Node9</title>
<g id="a_edge11_Node000009_Node000005"><a xlink:title=" ">
<path fill="none" stroke="#63b8ff" d="M311.32,-491.01C325.12,-485.14 351.85,-472.02 367.5,-453 392.98,-422.03 381.03,-404.07 400.5,-369 408.74,-354.17 419.33,-338.97 429.37,-325.76"/>
<polygon fill="none" stroke="#63b8ff" points="429.53,-325.55 430.06,-318.36 436.9,-316.08 436.37,-323.27 429.53,-325.55"/>
</a>
</g>
<text text-anchor="start" x="404" y="-390.5" font-family="Helvetica,sans-Serif" font-size="10.00" fill="grey">+elements</text>
</g>
<!-- Node6 -->
<g id="Node000006" class="node">
<title>Node6</title>
<g id="a_Node000006"><a xlink:title=" ">
<polygon fill="white" stroke="transparent" points="372,-310.5 247,-310.5 247,-261.5 372,-261.5 372,-310.5"/>
<text text-anchor="start" x="252.5" y="-298" font-family="Helvetica,sans-Serif" font-size="10.00">std::array&lt; double, 4 &gt;</text>
<text text-anchor="start" x="308" y="-283" font-family="Helvetica,sans-Serif" font-size="10.00"> </text>
<text text-anchor="start" x="308" y="-268" font-family="Helvetica,sans-Serif" font-size="10.00"> </text>
<polygon fill="#666666" stroke="#666666" points="247.5,-293 247.5,-293 372.5,-293 372.5,-293 247.5,-293"/>
<polygon fill="#666666" stroke="#666666" points="247.5,-278 247.5,-278 372.5,-278 372.5,-278 247.5,-278"/>
<polygon fill="none" stroke="#666666" points="247,-261.5 247,-310.5 372,-310.5 372,-261.5 247,-261.5"/>
</a>
</g>
</g>
<!-- Node6&#45;&gt;Node2 -->
<g id="edge5_Node000002_Node000006" class="edge">
<title>Node6&#45;&gt;Node2</title>
<g id="a_edge5_Node000002_Node000006"><a xlink:title=" ">
<path fill="none" stroke="#63b8ff" d="M280.82,-261.19C274.59,-254.41 268.87,-246.52 265.5,-238 260.58,-225.54 262.43,-211.94 267.07,-199.37"/>
<polygon fill="none" stroke="#63b8ff" points="267.17,-199.16 265.93,-192.06 272.01,-188.18 273.25,-195.28 267.17,-199.16"/>
</a>
</g>
<text text-anchor="start" x="269" y="-219" font-family="Helvetica,sans-Serif" font-size="10.00" fill="grey">+elements</text>
</g>
<!-- Node7 -->
<g id="Node000007" class="node">
<title>Node7</title>
<g id="a_Node000007"><a xlink:title=" ">
<polygon fill="white" stroke="transparent" points="217.5,-418 173.5,-418 173.5,-369 217.5,-369 217.5,-418"/>
<text text-anchor="start" x="178.5" y="-405.5" font-family="Helvetica,sans-Serif" font-size="10.00">double</text>
<text text-anchor="start" x="193.5" y="-390.5" font-family="Helvetica,sans-Serif" font-size="10.00"> </text>
<text text-anchor="start" x="193.5" y="-375.5" font-family="Helvetica,sans-Serif" font-size="10.00"> </text>
<polygon fill="#666666" stroke="#666666" points="173.5,-400.5 173.5,-400.5 217.5,-400.5 217.5,-400.5 173.5,-400.5"/>
<polygon fill="#666666" stroke="#666666" points="173.5,-385.5 173.5,-385.5 217.5,-385.5 217.5,-385.5 173.5,-385.5"/>
<polygon fill="none" stroke="#666666" points="173.5,-369 173.5,-418 217.5,-418 217.5,-369 173.5,-369"/>
</a>
</g>
</g>
<!-- Node7&#45;&gt;Node6 -->
<g id="edge6_Node000006_Node000007" class="edge">
<title>Node7&#45;&gt;Node6</title>
<g id="a_edge6_Node000006_Node000007"><a xlink:title=" ">
<path fill="none" stroke="#63b8ff" d="M210.12,-368.77C217.75,-357.49 227.73,-344.26 238.5,-334 244.54,-328.25 251.37,-322.75 258.35,-317.67"/>
<polygon fill="none" stroke="#63b8ff" points="258.74,-317.39 261.39,-310.68 268.6,-310.54 265.95,-317.25 258.74,-317.39"/>
</a>
</g>
<text text-anchor="start" x="242" y="-339.5" font-family="Helvetica,sans-Serif" font-size="10.00" fill="grey">+elements</text>
</g>
<!-- Node7&#45;&gt;Node11 -->
<g id="edge14_Node000011_Node000007" class="edge">
<title>Node7&#45;&gt;Node11</title>
<g id="a_edge14_Node000011_Node000007"><a xlink:title=" ">
<path fill="none" stroke="#63b8ff" d="M189.04,-368.85C185.07,-353.8 180.08,-333.84 176.5,-316 168.74,-277.33 162.08,-233.07 157.58,-200.52"/>
<polygon fill="none" stroke="#63b8ff" points="157.53,-200.1 152.76,-194.7 155.91,-188.21 160.68,-193.62 157.53,-200.1"/>
</a>
</g>
<text text-anchor="start" x="180" y="-283" font-family="Helvetica,sans-Serif" font-size="10.00" fill="grey">+elements</text>
</g>
<!-- Node8&#45;&gt;Node6 -->
<g id="edge7_Node000006_Node000008" class="edge">
<title>Node8&#45;&gt;Node6</title>
<g id="a_edge7_Node000006_Node000008"><a xlink:title=" ">
<path fill="none" stroke="orange" d="M302.45,-358.62C302.61,-350.54 302.93,-341.96 303.5,-334 304.04,-326.45 304.97,-318.26 305.94,-310.86"/>
<polygon fill="orange" stroke="orange" points="298.94,-358.8 302.31,-368.85 305.94,-358.9 298.94,-358.8"/>
</a>
</g>
<text text-anchor="start" x="306.5" y="-339.5" font-family="Helvetica,sans-Serif" font-size="10.00" fill="grey">&lt; double, 4 &gt;</text>
</g>
<!-- Node9&#45;&gt;Node2 -->
<g id="edge9_Node000002_Node000009" class="edge">
<title>Node9&#45;&gt;Node2</title>
<g id="a_edge9_Node000002_Node000009"><a xlink:title=" ">
<path fill="none" stroke="orange" d="M466.98,-245.63C466.85,-231.84 464.14,-217.05 455.5,-206 434.19,-178.75 398.33,-165.49 366.06,-159.1"/>
<polygon fill="orange" stroke="orange" points="463.48,-245.79 466.64,-255.9 470.47,-246.02 463.48,-245.79"/>
</a>
</g>
<text text-anchor="start" x="471" y="-227" font-family="Helvetica,sans-Serif" font-size="10.00" fill="grey">&lt; tracker::const_ptr,</text>
<text text-anchor="start" x="471" y="-212" font-family="Helvetica,sans-Serif" font-size="10.00" fill="grey">   std::array&lt; double, 4 &gt; &gt;</text>
</g>
<!-- Node9&#45;&gt;Node11 -->
<g id="edge15_Node000011_Node000009" class="edge">
<title>Node9&#45;&gt;Node11</title>
<g id="a_edge15_Node000011_Node000009"><a xlink:title=" ">
<path fill="none" stroke="orange" d="M398.03,-261.26C373.51,-251.71 350.18,-242.02 345.5,-238 332.96,-227.22 340.16,-215.33 326.5,-206 285.96,-178.3 264.07,-203.57 217.5,-188 213.94,-186.81 210.35,-185.45 206.76,-183.97"/>
<polygon fill="orange" stroke="orange" points="396.87,-264.56 407.45,-264.9 399.39,-258.03 396.87,-264.56"/>
</a>
</g>
<text text-anchor="start" x="348.5" y="-227" font-family="Helvetica,sans-Serif" font-size="10.00" fill="grey">&lt; tracker::const_ptr,</text>
<text text-anchor="start" x="348.5" y="-212" font-family="Helvetica,sans-Serif" font-size="10.00" fill="grey">   double &gt;</text>
</g>
<!-- Node10 -->
<g id="Node000010" class="node">
<title>Node10</title>
<g id="a_Node000010"><a xlink:title=" ">
<polygon fill="white" stroke="transparent" points="488,-418 471,-418 471,-369 488,-369 488,-418"/>
<text text-anchor="start" x="476.5" y="-405.5" font-family="Helvetica,sans-Serif" font-size="10.00">K</text>
<text text-anchor="start" x="478" y="-390.5" font-family="Helvetica,sans-Serif" font-size="10.00"> </text>
<text text-anchor="start" x="478" y="-375.5" font-family="Helvetica,sans-Serif" font-size="10.00"> </text>
<polygon fill="#666666" stroke="#666666" points="471.5,-400.5 471.5,-400.5 488.5,-400.5 488.5,-400.5 471.5,-400.5"/>
<polygon fill="#666666" stroke="#666666" points="471.5,-385.5 471.5,-385.5 488.5,-385.5 488.5,-385.5 471.5,-385.5"/>
<polygon fill="none" stroke="#666666" points="471,-369 471,-418 488,-418 488,-369 471,-369"/>
</a>
</g>
</g>
<!-- Node10&#45;&gt;Node9 -->
<g id="edge10_Node000009_Node000010" class="edge">
<title>Node10&#45;&gt;Node9</title>
<g id="a_edge10_Node000009_Node000010"><a xlink:title=" ">
<path fill="none" stroke="#63b8ff" d="M475.46,-368.82C473.43,-356.92 470.91,-342.13 468.57,-328.42"/>
<polygon fill="none" stroke="#63b8ff" points="468.51,-328.08 463.56,-322.83 466.49,-316.25 471.44,-321.49 468.51,-328.08"/>
</a>
</g>
<text text-anchor="start" x="476" y="-339.5" font-family="Helvetica,sans-Serif" font-size="10.00" fill="grey">+keys</text>
</g>
<!-- Node11&#45;&gt;Node1 -->
<g id="edge12_Node000001_Node000011" class="edge">
<title>Node11&#45;&gt;Node1</title>
<g id="a_edge12_Node000001_Node000011"><a xlink:title=" ">
<path fill="none" stroke="#63b8ff" d="M142.13,-116.92C139.7,-100.74 139.82,-81.82 148.5,-67 150.55,-63.5 153.01,-60.28 155.77,-57.31"/>
<polygon fill="none" stroke="#63b8ff" points="155.93,-57.17 157.72,-50.19 164.85,-49.15 163.06,-56.13 155.93,-57.17"/>
</a>
</g>
<text text-anchor="start" x="151.5" y="-80" font-family="Helvetica,sans-Serif" font-size="10.00" fill="grey">+shoot_delay_prediction</text>
</g>
</g>
</svg>

<g id="navigator" transform="translate(0 0)" fill="#404254">
  <rect fill="#f2f5e9" fill-opacity="0.5" stroke="#606060" stroke-width=".5" x="0" y="0" width="60" height="60"/>
  <use id="zoomplus" xlink:href="#zoomPlus" x="17" y="9" onmousedown="handleZoom(evt,'in')"/>
  <use id="zoomminus" xlink:href="#zoomMin" x="42" y="9" onmousedown="handleZoom(evt,'out')"/>
  <use id="reset" xlink:href="#resetDef" x="30" y="36" onmousedown="handleReset()"/>
   <use id="arrowup" xlink:href="#arrowUp" x="0" y="0" onmousedown="handlePan(0,-1)"/>
  <use id="arrowright" xlink:href="#arrowRight" x="0" y="0" onmousedown="handlePan(1,0)"/>
  <use id="arrowdown" xlink:href="#arrowDown" x="0" y="0" onmousedown="handlePan(0,1)"/>
  <use id="arrowleft" xlink:href="#arrowLeft" x="0" y="0" onmousedown="handlePan(-1,0)"/>
</g>
<svg viewBox="0 0 15 15" width="100%" height="30px" preserveAspectRatio="xMaxYMin meet">
 <g id="arrow_out" transform="scale(0.3 0.3)">
  <a xlink:href="structrm_1_1GyroPredictor_1_1Info__coll__graph_org.svg" target="_base">
   <rect id="button" ry="5" rx="5" y="6" x="6" height="38" width="38"
        fill="#f2f5e9" fill-opacity="0.5" stroke="#606060" stroke-width="1.0"/>
   <path id="arrow"
     d="M 11.500037,31.436501 C 11.940474,20.09759 22.043105,11.32322 32.158766,21.979434 L 37.068811,17.246167 C 37.068811,17.246167 37.088388,32 37.088388,32 L 22.160133,31.978069 C 22.160133,31.978069 26.997745,27.140456 26.997745,27.140456 C 18.528582,18.264221 13.291696,25.230495 11.500037,31.436501 z"
     style="fill:#404040;"/>
  </a>
 </g>
</svg>

<style type='text/css'>
<![CDATA[
[data-mouse-over-selected='false'] { opacity: 0.7; }
[data-mouse-over-selected='true']  { opacity: 1.0; }
]]>
</style>
<script type="application/ecmascript"><![CDATA[
document.addEventListener('DOMContentLoaded', (event) => {
  highlightEdges();
  highlightAdjacentNodes();
});
]]></script>
</svg>
