<?xml version="1.0" encoding="UTF-8" standalone="no"?>
<!DOCTYPE svg PUBLIC "-//W3C//DTD SVG 1.1//EN"
 "http://www.w3.org/Graphics/SVG/1.1/DTD/svg11.dtd">
<!-- Generated by graphviz version 2.43.0 (0)
 -->
<!-- Title: rm::msg::TF Pages: 1 -->
<!--zoomable 712 -->

<svg id="main" version="1.1" xmlns="http://www.w3.org/2000/svg" xmlns:xlink="http://www.w3.org/1999/xlink" xml:space="preserve" onload="init(evt)">

<style type="text/css"><![CDATA[
.node, .edge {opacity: 0.7;}
.node.selected, .edge.selected {opacity: 1;}
.edge:hover path { stroke: red; }
.edge:hover polygon { stroke: red; fill: red; }
]]></style>

<defs>
  <circle id="rim" cx="0" cy="0" r="7"/>
  <circle id="rim2" cx="0" cy="0" r="3.5"/>
  <g id="zoomPlus">
    <use xlink:href="#rim" fill="#404040"><set attributeName="fill" to="#808080" begin="zoomplus.mouseover" end="zoomplus.mouseout"/></use>
    <path d="M-4,0h8M0,-4v8" fill="none" stroke="white" stroke-width="1.5" pointer-events="none"/>
  </g>
  <g id="zoomMin">
    <use xlink:href="#rim" fill="#404040"><set attributeName="fill" to="#808080" begin="zoomminus.mouseover" end="zoomminus.mouseout"/></use>
    <path d="M-4,0h8" fill="none" stroke="white" stroke-width="1.5" pointer-events="none"/>
  </g>
  <g id="arrowUp" transform="translate(30 24)">
    <use xlink:href="#rim"/>
    <path pointer-events="none" fill="none" stroke="white" stroke-width="1.5" d="M0,-3.0v7 M-2.5,-0.5L0,-3.0L2.5,-0.5"/>
  </g>
  <g id="arrowRight" transform="rotate(90) translate(36 -43)">
    <use xlink:href="#rim"/>
    <path pointer-events="none" fill="none" stroke="white" stroke-width="1.5" d="M0,-3.0v7 M-2.5,-0.5L0,-3.0L2.5,-0.5"/>
  </g>
  <g id="arrowDown" transform="rotate(180) translate(-30 -48)">
    <use xlink:href="#rim"/>
    <path pointer-events="none" fill="none" stroke="white" stroke-width="1.5" d="M0,-3.0v7 M-2.5,-0.5L0,-3.0L2.5,-0.5"/>
  </g>
  <g id="arrowLeft" transform="rotate(270) translate(-36 17)">
    <use xlink:href="#rim"/>
    <path pointer-events="none" fill="none" stroke="white" stroke-width="1.5" d="M0,-3.0v7 M-2.5,-0.5L0,-3.0L2.5,-0.5"/>
  </g>
  <g id="resetDef">
    <use xlink:href="#rim2" fill="#404040"><set attributeName="fill" to="#808080" begin="reset.mouseover" end="reset.mouseout"/></use>
  </g>
</defs>
<script type="application/ecmascript">
var viewWidth = 877;
var viewHeight = 712;
var sectionId = 'dynsection-0';
</script>
<script type="application/ecmascript" xlink:href="../../svg.min.js"/>
<svg id="graph" class="graph">
<g id="viewport">
<title>rm::msg::TF</title>
<!-- Node1 -->
<g id="Node000001" class="node">
<title>Node1</title>
<g id="a_Node000001"><a xlink:title="TF 消息类型：motion/TF">
<polygon fill="#999999" stroke="transparent" points="152,-79 56,-79 56,0 152,0 152,-79"/>
<text text-anchor="start" x="74.5" y="-66.5" font-family="Helvetica,sans-Serif" font-size="10.00">rm::msg::TF</text>
<text text-anchor="start" x="102" y="-51.5" font-family="Helvetica,sans-Serif" font-size="10.00"> </text>
<text text-anchor="start" x="60" y="-36.5" font-family="Helvetica,sans-Serif" font-size="10.00">+</text>
<text text-anchor="start" x="73" y="-36.5" font-family="Helvetica,sans-Serif" font-size="10.00">serialize()</text>
<text text-anchor="start" x="60" y="-21.5" font-family="Helvetica,sans-Serif" font-size="10.00">+</text>
<text text-anchor="start" x="73" y="-21.5" font-family="Helvetica,sans-Serif" font-size="10.00">compact_size()</text>
<text text-anchor="start" x="60" y="-6.5" font-family="Helvetica,sans-Serif" font-size="10.00">+</text>
<text text-anchor="start" x="73" y="-6.5" font-family="Helvetica,sans-Serif" font-size="10.00">deserialize()</text>
<polygon fill="#666666" stroke="#666666" points="56,-61.5 56,-61.5 152,-61.5 152,-61.5 56,-61.5"/>
<polygon fill="#666666" stroke="#666666" points="56,-46.5 56,-46.5 152,-46.5 152,-46.5 56,-46.5"/>
<polygon fill="none" stroke="#666666" points="56,0 56,-79 152,-79 152,0 56,0"/>
</a>
</g>
</g>
<!-- Node2 -->
<g id="Node000002" class="node">
<title>Node2</title>
<g id="a_Node000002"><a xlink:title=" ">
<polygon fill="white" stroke="transparent" points="222,-186 102,-186 102,-126 222,-126 222,-186"/>
<text text-anchor="start" x="107" y="-174" font-family="Helvetica,sans-Serif" font-size="10.00">std::vector&lt; rm::msg</text>
<text text-anchor="start" x="107" y="-163" font-family="Helvetica,sans-Serif" font-size="10.00">::TransformStamped &gt;</text>
<text text-anchor="start" x="160" y="-148" font-family="Helvetica,sans-Serif" font-size="10.00"> </text>
<text text-anchor="start" x="160" y="-133" font-family="Helvetica,sans-Serif" font-size="10.00"> </text>
<polygon fill="#666666" stroke="#666666" points="102,-158 102,-158 222,-158 222,-158 102,-158"/>
<polygon fill="#666666" stroke="#666666" points="102,-143 102,-143 222,-143 222,-143 102,-143"/>
<polygon fill="none" stroke="#666666" points="102,-126 102,-186 222,-186 222,-126 102,-126"/>
</a>
</g>
</g>
<!-- Node2&#45;&gt;Node1 -->
<g id="edge1_Node000001_Node000002" class="edge">
<title>Node2&#45;&gt;Node1</title>
<g id="a_edge1_Node000001_Node000002"><a xlink:title=" ">
<path fill="none" stroke="#63b8ff" d="M147.21,-125.81C141.72,-114.95 135.31,-102.31 129.14,-90.13"/>
<polygon fill="none" stroke="#63b8ff" points="129,-89.85 122.72,-86.31 123.58,-79.15 129.86,-82.69 129,-89.85"/>
</a>
</g>
<text text-anchor="middle" x="169.5" y="-100" font-family="Helvetica,sans-Serif" font-size="10.00" fill="grey"> +transforms</text>
</g>
<!-- Node3 -->
<g id="Node000003" class="node">
<title>Node3</title>
<g id="a_Node000003"><a xlink:href="../../db/d5d/classrm_1_1msg_1_1TransformStamped.html" target="_top" xlink:title="TransformStamped 消息类型：geometry/TransformStamped">
<polygon fill="white" stroke="transparent" points="442.5,-312 293.5,-312 293.5,-233 442.5,-233 442.5,-312"/>
<text text-anchor="start" x="299" y="-299.5" font-family="Helvetica,sans-Serif" font-size="10.00">rm::msg::TransformStamped</text>
<text text-anchor="start" x="366.5" y="-284.5" font-family="Helvetica,sans-Serif" font-size="10.00"> </text>
<text text-anchor="start" x="311" y="-269.5" font-family="Helvetica,sans-Serif" font-size="10.00">+</text>
<text text-anchor="start" x="337" y="-269.5" font-family="Helvetica,sans-Serif" font-size="10.00">serialize()</text>
<text text-anchor="start" x="311" y="-254.5" font-family="Helvetica,sans-Serif" font-size="10.00">+</text>
<text text-anchor="start" x="337" y="-254.5" font-family="Helvetica,sans-Serif" font-size="10.00">compact_size()</text>
<text text-anchor="start" x="311" y="-239.5" font-family="Helvetica,sans-Serif" font-size="10.00">+</text>
<text text-anchor="start" x="337" y="-239.5" font-family="Helvetica,sans-Serif" font-size="10.00">deserialize()</text>
<polygon fill="#666666" stroke="#666666" points="294,-294.5 294,-294.5 443,-294.5 443,-294.5 294,-294.5"/>
<polygon fill="#666666" stroke="#666666" points="294,-279.5 294,-279.5 443,-279.5 443,-279.5 294,-279.5"/>
<polygon fill="none" stroke="#666666" points="293.5,-233 293.5,-312 442.5,-312 442.5,-233 293.5,-233"/>
</a>
</g>
</g>
<!-- Node3&#45;&gt;Node2 -->
<g id="edge2_Node000002_Node000003" class="edge">
<title>Node3&#45;&gt;Node2</title>
<g id="a_edge2_Node000002_Node000003"><a xlink:title=" ">
<path fill="none" stroke="#63b8ff" d="M352.99,-232.94C347.21,-222.27 339.63,-211.56 330,-204 302.75,-182.61 266.31,-170.95 234.33,-164.6"/>
<polygon fill="none" stroke="#63b8ff" points="234.13,-164.56 227.51,-167.42 222.32,-162.42 228.94,-159.55 234.13,-164.56"/>
</a>
</g>
<text text-anchor="middle" x="369" y="-207" font-family="Helvetica,sans-Serif" font-size="10.00" fill="grey"> +elements</text>
</g>
<!-- Node4 -->
<g id="Node000004" class="node">
<title>Node4</title>
<g id="a_Node000004"><a xlink:href="../../de/de3/classrm_1_1msg_1_1Header.html" target="_top" xlink:title="Header 消息类型：std/Header">
<polygon fill="white" stroke="transparent" points="416,-438 320,-438 320,-359 416,-359 416,-438"/>
<text text-anchor="start" x="327" y="-425.5" font-family="Helvetica,sans-Serif" font-size="10.00">rm::msg::Header</text>
<text text-anchor="start" x="366" y="-410.5" font-family="Helvetica,sans-Serif" font-size="10.00"> </text>
<text text-anchor="start" x="324" y="-395.5" font-family="Helvetica,sans-Serif" font-size="10.00">+</text>
<text text-anchor="start" x="337" y="-395.5" font-family="Helvetica,sans-Serif" font-size="10.00">serialize()</text>
<text text-anchor="start" x="324" y="-380.5" font-family="Helvetica,sans-Serif" font-size="10.00">+</text>
<text text-anchor="start" x="337" y="-380.5" font-family="Helvetica,sans-Serif" font-size="10.00">compact_size()</text>
<text text-anchor="start" x="324" y="-365.5" font-family="Helvetica,sans-Serif" font-size="10.00">+</text>
<text text-anchor="start" x="337" y="-365.5" font-family="Helvetica,sans-Serif" font-size="10.00">deserialize()</text>
<polygon fill="#666666" stroke="#666666" points="320,-420.5 320,-420.5 416,-420.5 416,-420.5 320,-420.5"/>
<polygon fill="#666666" stroke="#666666" points="320,-405.5 320,-405.5 416,-405.5 416,-405.5 320,-405.5"/>
<polygon fill="none" stroke="#666666" points="320,-359 320,-438 416,-438 416,-359 320,-359"/>
</a>
</g>
</g>
<!-- Node4&#45;&gt;Node3 -->
<g id="edge3_Node000003_Node000004" class="edge">
<title>Node4&#45;&gt;Node3</title>
<g id="a_edge3_Node000003_Node000004"><a xlink:title=" ">
<path fill="none" stroke="#63b8ff" d="M368,-358.95C368,-347.98 368,-335.87 368,-324.3"/>
<polygon fill="none" stroke="#63b8ff" points="368,-324.03 364,-318.03 368,-312.03 372,-318.03 368,-324.03"/>
</a>
</g>
<text text-anchor="middle" x="391" y="-333" font-family="Helvetica,sans-Serif" font-size="10.00" fill="grey"> +header</text>
</g>
<!-- Node5 -->
<g id="Node000005" class="node">
<title>Node5</title>
<g id="a_Node000005"><a xlink:title=" ">
<polygon fill="white" stroke="transparent" points="333,-549 283,-549 283,-500 333,-500 333,-549"/>
<text text-anchor="start" x="288" y="-536.5" font-family="Helvetica,sans-Serif" font-size="10.00">uint32_t</text>
<text text-anchor="start" x="306" y="-521.5" font-family="Helvetica,sans-Serif" font-size="10.00"> </text>
<text text-anchor="start" x="306" y="-506.5" font-family="Helvetica,sans-Serif" font-size="10.00"> </text>
<polygon fill="#666666" stroke="#666666" points="283,-531.5 283,-531.5 333,-531.5 333,-531.5 283,-531.5"/>
<polygon fill="#666666" stroke="#666666" points="283,-516.5 283,-516.5 333,-516.5 333,-516.5 283,-516.5"/>
<polygon fill="none" stroke="#666666" points="283,-500 283,-549 333,-549 333,-500 283,-500"/>
</a>
</g>
</g>
<!-- Node5&#45;&gt;Node4 -->
<g id="edge4_Node000004_Node000005" class="edge">
<title>Node5&#45;&gt;Node4</title>
<g id="a_edge4_Node000004_Node000005"><a xlink:title=" ">
<path fill="none" stroke="#63b8ff" d="M312,-499.92C314.82,-486.59 319.3,-469.87 326,-456 327.23,-453.45 328.59,-450.89 330.03,-448.36"/>
<polygon fill="none" stroke="#63b8ff" points="330.07,-448.3 329.83,-441.09 336.39,-438.1 336.63,-445.31 330.07,-448.3"/>
</a>
</g>
<text text-anchor="middle" x="340.5" y="-459" font-family="Helvetica,sans-Serif" font-size="10.00" fill="grey"> +seq</text>
</g>
<!-- Node6 -->
<g id="Node000006" class="node">
<title>Node6</title>
<g id="a_Node000006"><a xlink:title=" ">
<polygon fill="white" stroke="transparent" points="491,-549 447,-549 447,-500 491,-500 491,-549"/>
<text text-anchor="start" x="452" y="-536.5" font-family="Helvetica,sans-Serif" font-size="10.00">int64_t</text>
<text text-anchor="start" x="467" y="-521.5" font-family="Helvetica,sans-Serif" font-size="10.00"> </text>
<text text-anchor="start" x="467" y="-506.5" font-family="Helvetica,sans-Serif" font-size="10.00"> </text>
<polygon fill="#666666" stroke="#666666" points="447,-531.5 447,-531.5 491,-531.5 491,-531.5 447,-531.5"/>
<polygon fill="#666666" stroke="#666666" points="447,-516.5 447,-516.5 491,-516.5 491,-516.5 447,-516.5"/>
<polygon fill="none" stroke="#666666" points="447,-500 447,-549 491,-549 491,-500 447,-500"/>
</a>
</g>
</g>
<!-- Node6&#45;&gt;Node4 -->
<g id="edge5_Node000004_Node000006" class="edge">
<title>Node6&#45;&gt;Node4</title>
<g id="a_edge5_Node000004_Node000006"><a xlink:title=" ">
<path fill="none" stroke="#63b8ff" d="M449.76,-499.88C437.79,-485.18 421.94,-465.73 407.39,-447.87"/>
<polygon fill="none" stroke="#63b8ff" points="407.06,-447.45 400.16,-445.32 399.48,-438.14 406.37,-440.27 407.06,-447.45"/>
</a>
</g>
<text text-anchor="middle" x="442.5" y="-459" font-family="Helvetica,sans-Serif" font-size="10.00" fill="grey"> +stamp</text>
</g>
<!-- Node7 -->
<g id="Node000007" class="node">
<title>Node7</title>
<g id="a_Node000007"><a xlink:title=" ">
<polygon fill="white" stroke="transparent" points="243.5,-549 184.5,-549 184.5,-500 243.5,-500 243.5,-549"/>
<text text-anchor="start" x="190" y="-536.5" font-family="Helvetica,sans-Serif" font-size="10.00">std::string</text>
<text text-anchor="start" x="212.5" y="-521.5" font-family="Helvetica,sans-Serif" font-size="10.00"> </text>
<text text-anchor="start" x="212.5" y="-506.5" font-family="Helvetica,sans-Serif" font-size="10.00"> </text>
<polygon fill="#666666" stroke="#666666" points="185,-531.5 185,-531.5 244,-531.5 244,-531.5 185,-531.5"/>
<polygon fill="#666666" stroke="#666666" points="185,-516.5 185,-516.5 244,-516.5 244,-516.5 185,-516.5"/>
<polygon fill="none" stroke="#666666" points="184.5,-500 184.5,-549 243.5,-549 243.5,-500 184.5,-500"/>
</a>
</g>
</g>
<!-- Node7&#45;&gt;Node3 -->
<g id="edge9_Node000003_Node000007" class="edge">
<title>Node7&#45;&gt;Node3</title>
<g id="a_edge9_Node000003_Node000007"><a xlink:title=" ">
<path fill="none" stroke="#63b8ff" d="M209.56,-499.94C204.48,-466.04 200.02,-402.78 227,-359 240.23,-337.53 261.05,-320.71 282.67,-307.89"/>
<polygon fill="none" stroke="#63b8ff" points="282.85,-307.79 286.13,-301.36 293.32,-301.91 290.04,-308.34 282.85,-307.79"/>
</a>
</g>
<text text-anchor="middle" x="269" y="-396" font-family="Helvetica,sans-Serif" font-size="10.00" fill="grey"> +child_frame_id</text>
</g>
<!-- Node7&#45;&gt;Node4 -->
<g id="edge6_Node000004_Node000007" class="edge">
<title>Node7&#45;&gt;Node4</title>
<g id="a_edge6_Node000004_Node000007"><a xlink:title=" ">
<path fill="none" stroke="#63b8ff" d="M226.48,-499.72C234.93,-485.49 247.23,-467.92 262,-456 277.81,-443.25 285.92,-447.26 304,-438 305.62,-437.17 307.26,-436.31 308.91,-435.44"/>
<polygon fill="none" stroke="#63b8ff" points="309.31,-435.22 312.64,-428.82 319.82,-429.43 316.49,-435.83 309.31,-435.22"/>
</a>
</g>
<text text-anchor="middle" x="289.5" y="-459" font-family="Helvetica,sans-Serif" font-size="10.00" fill="grey"> +frame_id</text>
</g>
<!-- Node8 -->
<g id="Node000008" class="node">
<title>Node8</title>
<g id="a_Node000008"><a xlink:title=" ">
<polygon fill="white" stroke="transparent" points="98,-704 0,-704 0,-644 98,-644 98,-704"/>
<text text-anchor="start" x="5" y="-692" font-family="Helvetica,sans-Serif" font-size="10.00">std::basic_string&lt;</text>
<text text-anchor="start" x="30.5" y="-681" font-family="Helvetica,sans-Serif" font-size="10.00"> Char &gt;</text>
<text text-anchor="start" x="47" y="-666" font-family="Helvetica,sans-Serif" font-size="10.00"> </text>
<text text-anchor="start" x="47" y="-651" font-family="Helvetica,sans-Serif" font-size="10.00"> </text>
<polygon fill="#666666" stroke="#666666" points="0,-676 0,-676 98,-676 98,-676 0,-676"/>
<polygon fill="#666666" stroke="#666666" points="0,-661 0,-661 98,-661 98,-661 0,-661"/>
<polygon fill="none" stroke="#666666" points="0,-644 0,-704 98,-704 98,-644 0,-644"/>
</a>
</g>
</g>
<!-- Node8&#45;&gt;Node7 -->
<g id="edge7_Node000007_Node000008" class="edge">
<title>Node8&#45;&gt;Node7</title>
<g id="a_edge7_Node000007_Node000008"><a xlink:title=" ">
<path fill="none" stroke="#63b8ff" d="M89.12,-637.13C119.68,-609.82 160.89,-572.98 187.45,-549.23"/>
<polygon fill="none" stroke="#63b8ff" points="86.72,-634.58 81.6,-643.86 91.39,-639.8 86.72,-634.58"/>
</a>
</g>
</g>
<!-- Node9 -->
<g id="Node000009" class="node">
<title>Node9</title>
<g id="a_Node000009"><a xlink:title=" ">
<polygon fill="white" stroke="transparent" points="558,-698.5 526,-698.5 526,-649.5 558,-649.5 558,-698.5"/>
<text text-anchor="start" x="531" y="-686" font-family="Helvetica,sans-Serif" font-size="10.00">char</text>
<text text-anchor="start" x="540" y="-671" font-family="Helvetica,sans-Serif" font-size="10.00"> </text>
<text text-anchor="start" x="540" y="-656" font-family="Helvetica,sans-Serif" font-size="10.00"> </text>
<polygon fill="#666666" stroke="#666666" points="526,-681 526,-681 558,-681 558,-681 526,-681"/>
<polygon fill="#666666" stroke="#666666" points="526,-666 526,-666 558,-666 558,-666 526,-666"/>
<polygon fill="none" stroke="#666666" points="526,-649.5 526,-698.5 558,-698.5 558,-649.5 526,-649.5"/>
</a>
</g>
</g>
<!-- Node9&#45;&gt;Node1 -->
<g id="edge21_Node000001_Node000009" class="edge">
<title>Node9&#45;&gt;Node1</title>
<g id="a_edge21_Node000001_Node000009"><a xlink:title=" ">
<path fill="none" stroke="#63b8ff" d="M525.89,-671.53C443.6,-663.56 74,-622.4 74,-525.5 74,-525.5 74,-525.5 74,-155 74,-133.46 79.03,-110.36 84.97,-90.59"/>
<polygon fill="none" stroke="#63b8ff" points="85,-90.49 83.01,-83.56 88.65,-79.06 90.64,-85.99 85,-90.49"/>
</a>
</g>
<text text-anchor="middle" x="104" y="-333" font-family="Helvetica,sans-Serif" font-size="10.00" fill="grey"> +msg_type</text>
</g>
<!-- Node9&#45;&gt;Node3 -->
<g id="edge18_Node000003_Node000009" class="edge">
<title>Node9&#45;&gt;Node3</title>
<g id="a_edge18_Node000003_Node000009"><a xlink:title=" ">
<path fill="none" stroke="#63b8ff" d="M538.78,-649.27C533.4,-613.04 521.05,-542.11 500,-485 473.04,-411.88 462.36,-394.08 418,-330 416.04,-327.17 413.96,-324.33 411.8,-321.51"/>
<polygon fill="none" stroke="#63b8ff" points="411.72,-321.4 404.85,-319.21 404.22,-312.03 411.09,-314.22 411.72,-321.4"/>
</a>
</g>
<text text-anchor="middle" x="522" y="-459" font-family="Helvetica,sans-Serif" font-size="10.00" fill="grey"> +msg_type</text>
</g>
<!-- Node9&#45;&gt;Node4 -->
<g id="edge8_Node000004_Node000009" class="edge">
<title>Node9&#45;&gt;Node4</title>
<g id="a_edge8_Node000004_Node000009"><a xlink:title=" ">
<path fill="none" stroke="#63b8ff" d="M525.76,-667.78C491.41,-655.78 411.78,-622.66 378,-564 358.29,-529.77 356.93,-484.62 359.86,-450.29"/>
<polygon fill="none" stroke="#63b8ff" points="359.88,-450.1 356.51,-443.72 361.11,-438.17 364.47,-444.54 359.88,-450.1"/>
</a>
</g>
<text text-anchor="middle" x="408" y="-522" font-family="Helvetica,sans-Serif" font-size="10.00" fill="grey"> +msg_type</text>
</g>
<!-- Node10 -->
<g id="Node000010" class="node">
<title>Node10</title>
<g id="a_Node000010"><a xlink:href="../../df/d0f/classrm_1_1msg_1_1Transform.html" target="_top" xlink:title="Transform 消息类型：geometry/Transform">
<polygon fill="white" stroke="transparent" points="685,-438 579,-438 579,-359 685,-359 685,-438"/>
<text text-anchor="start" x="584" y="-425.5" font-family="Helvetica,sans-Serif" font-size="10.00">rm::msg::Transform</text>
<text text-anchor="start" x="630" y="-410.5" font-family="Helvetica,sans-Serif" font-size="10.00"> </text>
<text text-anchor="start" x="585.5" y="-395.5" font-family="Helvetica,sans-Serif" font-size="10.00">+</text>
<text text-anchor="start" x="601" y="-395.5" font-family="Helvetica,sans-Serif" font-size="10.00">serialize()</text>
<text text-anchor="start" x="585.5" y="-380.5" font-family="Helvetica,sans-Serif" font-size="10.00">+</text>
<text text-anchor="start" x="601" y="-380.5" font-family="Helvetica,sans-Serif" font-size="10.00">compact_size()</text>
<text text-anchor="start" x="585.5" y="-365.5" font-family="Helvetica,sans-Serif" font-size="10.00">+</text>
<text text-anchor="start" x="601" y="-365.5" font-family="Helvetica,sans-Serif" font-size="10.00">deserialize()</text>
<polygon fill="#666666" stroke="#666666" points="579,-420.5 579,-420.5 685,-420.5 685,-420.5 579,-420.5"/>
<polygon fill="#666666" stroke="#666666" points="579,-405.5 579,-405.5 685,-405.5 685,-405.5 579,-405.5"/>
<polygon fill="none" stroke="#666666" points="579,-359 579,-438 685,-438 685,-359 579,-359"/>
</a>
</g>
</g>
<!-- Node9&#45;&gt;Node10 -->
<g id="edge17_Node000010_Node000009" class="edge">
<title>Node9&#45;&gt;Node10</title>
<g id="a_edge17_Node000010_Node000009"><a xlink:title=" ">
<path fill="none" stroke="#63b8ff" d="M542.82,-649.27C544.79,-612.73 551.46,-541.06 574,-485 579.02,-472.51 586.08,-460 593.55,-448.55"/>
<polygon fill="none" stroke="#63b8ff" points="593.73,-448.29 593.8,-441.08 600.49,-438.37 600.42,-445.58 593.73,-448.29"/>
</a>
</g>
<text text-anchor="middle" x="604" y="-522" font-family="Helvetica,sans-Serif" font-size="10.00" fill="grey"> +msg_type</text>
</g>
<!-- Node11 -->
<g id="Node000011" class="node">
<title>Node11</title>
<g id="a_Node000011"><a xlink:href="../../d3/d5d/classrm_1_1msg_1_1Vector3.html" target="_top" xlink:title="Vector3 消息类型：geometry/Vector3">
<polygon fill="white" stroke="transparent" points="739,-564 643,-564 643,-485 739,-485 739,-564"/>
<text text-anchor="start" x="649" y="-551.5" font-family="Helvetica,sans-Serif" font-size="10.00">rm::msg::Vector3</text>
<text text-anchor="start" x="689" y="-536.5" font-family="Helvetica,sans-Serif" font-size="10.00"> </text>
<text text-anchor="start" x="647" y="-521.5" font-family="Helvetica,sans-Serif" font-size="10.00">+</text>
<text text-anchor="start" x="660" y="-521.5" font-family="Helvetica,sans-Serif" font-size="10.00">serialize()</text>
<text text-anchor="start" x="647" y="-506.5" font-family="Helvetica,sans-Serif" font-size="10.00">+</text>
<text text-anchor="start" x="660" y="-506.5" font-family="Helvetica,sans-Serif" font-size="10.00">compact_size()</text>
<text text-anchor="start" x="647" y="-491.5" font-family="Helvetica,sans-Serif" font-size="10.00">+</text>
<text text-anchor="start" x="660" y="-491.5" font-family="Helvetica,sans-Serif" font-size="10.00">deserialize()</text>
<polygon fill="#666666" stroke="#666666" points="643,-546.5 643,-546.5 739,-546.5 739,-546.5 643,-546.5"/>
<polygon fill="#666666" stroke="#666666" points="643,-531.5 643,-531.5 739,-531.5 739,-531.5 643,-531.5"/>
<polygon fill="none" stroke="#666666" points="643,-485 643,-564 739,-564 739,-485 643,-485"/>
</a>
</g>
</g>
<!-- Node9&#45;&gt;Node11 -->
<g id="edge13_Node000011_Node000009" class="edge">
<title>Node9&#45;&gt;Node11</title>
<g id="a_edge13_Node000011_Node000009"><a xlink:title=" ">
<path fill="none" stroke="#63b8ff" d="M558.08,-653.77C564.81,-645.43 572.55,-635.43 579,-626 591.83,-607.26 589.32,-598.44 605,-582 607.75,-579.11 619.05,-571.36 632.6,-562.49"/>
<polygon fill="none" stroke="#63b8ff" points="632.71,-562.42 635.57,-555.8 642.78,-555.89 639.92,-562.51 632.71,-562.42"/>
</a>
</g>
<text text-anchor="middle" x="635" y="-601.5" font-family="Helvetica,sans-Serif" font-size="10.00" fill="grey"> +msg_type</text>
</g>
<!-- Node13 -->
<g id="Node000013" class="node">
<title>Node13</title>
<g id="a_Node000013"><a xlink:href="../../d1/dbe/classrm_1_1msg_1_1Quaternion.html" target="_top" xlink:title="Quaternion 消息类型：geometry/Quaternion">
<polygon fill="white" stroke="transparent" points="868.5,-564 757.5,-564 757.5,-485 868.5,-485 868.5,-564"/>
<text text-anchor="start" x="763" y="-551.5" font-family="Helvetica,sans-Serif" font-size="10.00">rm::msg::Quaternion</text>
<text text-anchor="start" x="811.5" y="-536.5" font-family="Helvetica,sans-Serif" font-size="10.00"> </text>
<text text-anchor="start" x="765.5" y="-521.5" font-family="Helvetica,sans-Serif" font-size="10.00">+</text>
<text text-anchor="start" x="782" y="-521.5" font-family="Helvetica,sans-Serif" font-size="10.00">serialize()</text>
<text text-anchor="start" x="765.5" y="-506.5" font-family="Helvetica,sans-Serif" font-size="10.00">+</text>
<text text-anchor="start" x="782" y="-506.5" font-family="Helvetica,sans-Serif" font-size="10.00">compact_size()</text>
<text text-anchor="start" x="765.5" y="-491.5" font-family="Helvetica,sans-Serif" font-size="10.00">+</text>
<text text-anchor="start" x="782" y="-491.5" font-family="Helvetica,sans-Serif" font-size="10.00">deserialize()</text>
<polygon fill="#666666" stroke="#666666" points="758,-546.5 758,-546.5 869,-546.5 869,-546.5 758,-546.5"/>
<polygon fill="#666666" stroke="#666666" points="758,-531.5 758,-531.5 869,-531.5 869,-531.5 758,-531.5"/>
<polygon fill="none" stroke="#666666" points="757.5,-485 757.5,-564 868.5,-564 868.5,-485 757.5,-485"/>
</a>
</g>
</g>
<!-- Node9&#45;&gt;Node13 -->
<g id="edge16_Node000013_Node000009" class="edge">
<title>Node9&#45;&gt;Node13</title>
<g id="a_edge16_Node000013_Node000009"><a xlink:title=" ">
<path fill="none" stroke="#63b8ff" d="M558.03,-670.84C583.67,-666.61 634.19,-654.97 665,-626 680.65,-611.29 668.73,-596.02 685,-582 704.56,-565.14 717.94,-573.08 745.96,-564.02"/>
<polygon fill="none" stroke="#63b8ff" points="746.25,-563.91 750.43,-558.03 757.46,-559.62 753.28,-565.5 746.25,-563.91"/>
</a>
</g>
<text text-anchor="middle" x="715" y="-601.5" font-family="Helvetica,sans-Serif" font-size="10.00" fill="grey"> +msg_type</text>
</g>
<!-- Node10&#45;&gt;Node3 -->
<g id="edge10_Node000003_Node000010" class="edge">
<title>Node10&#45;&gt;Node3</title>
<g id="a_edge10_Node000003_Node000010"><a xlink:title=" ">
<path fill="none" stroke="#63b8ff" d="M580.94,-358.86C565.99,-348.61 549.28,-338.15 533,-330 508.35,-317.66 480.36,-306.95 454.52,-298.27"/>
<polygon fill="none" stroke="#63b8ff" points="454.23,-298.17 447.28,-300.1 442.82,-294.43 449.77,-292.5 454.23,-298.17"/>
</a>
</g>
<text text-anchor="middle" x="580" y="-333" font-family="Helvetica,sans-Serif" font-size="10.00" fill="grey"> +transform</text>
</g>
<!-- Node11&#45;&gt;Node10 -->
<g id="edge11_Node000010_Node000011" class="edge">
<title>Node11&#45;&gt;Node10</title>
<g id="a_edge11_Node000010_Node000011"><a xlink:title=" ">
<path fill="none" stroke="#63b8ff" d="M672.66,-484.95C667.27,-473.63 661.31,-461.1 655.64,-449.19"/>
<polygon fill="none" stroke="#63b8ff" points="655.49,-448.87 649.3,-445.17 650.33,-438.03 656.52,-441.73 655.49,-448.87"/>
</a>
</g>
<text text-anchor="middle" x="695" y="-459" font-family="Helvetica,sans-Serif" font-size="10.00" fill="grey"> +translation</text>
</g>
<!-- Node12 -->
<g id="Node000012" class="node">
<title>Node12</title>
<g id="a_Node000012"><a xlink:title=" ">
<polygon fill="white" stroke="transparent" points="813,-698.5 769,-698.5 769,-649.5 813,-649.5 813,-698.5"/>
<text text-anchor="start" x="774" y="-686" font-family="Helvetica,sans-Serif" font-size="10.00">double</text>
<text text-anchor="start" x="789" y="-671" font-family="Helvetica,sans-Serif" font-size="10.00"> </text>
<text text-anchor="start" x="789" y="-656" font-family="Helvetica,sans-Serif" font-size="10.00"> </text>
<polygon fill="#666666" stroke="#666666" points="769,-681 769,-681 813,-681 813,-681 769,-681"/>
<polygon fill="#666666" stroke="#666666" points="769,-666 769,-666 813,-666 813,-666 769,-666"/>
<polygon fill="none" stroke="#666666" points="769,-649.5 769,-698.5 813,-698.5 813,-649.5 769,-649.5"/>
</a>
</g>
</g>
<!-- Node12&#45;&gt;Node11 -->
<g id="edge12_Node000011_Node000012" class="edge">
<title>Node12&#45;&gt;Node11</title>
<g id="a_edge12_Node000011_Node000012"><a xlink:title=" ">
<path fill="none" stroke="#63b8ff" d="M782.82,-649.3C775.58,-630.16 763.87,-603.03 749,-582 746.98,-579.15 744.81,-576.32 742.54,-573.53"/>
<polygon fill="none" stroke="#63b8ff" points="742.34,-573.31 735.38,-571.41 734.46,-564.26 741.41,-566.16 742.34,-573.31"/>
</a>
</g>
<text text-anchor="middle" x="781" y="-612.5" font-family="Helvetica,sans-Serif" font-size="10.00" fill="grey"> +x</text>
<text text-anchor="middle" x="781" y="-601.5" font-family="Helvetica,sans-Serif" font-size="10.00" fill="grey">+y</text>
<text text-anchor="middle" x="781" y="-590.5" font-family="Helvetica,sans-Serif" font-size="10.00" fill="grey">+z</text>
</g>
<!-- Node12&#45;&gt;Node13 -->
<g id="edge15_Node000013_Node000012" class="edge">
<title>Node12&#45;&gt;Node13</title>
<g id="a_edge15_Node000013_Node000012"><a xlink:title=" ">
<path fill="none" stroke="#63b8ff" d="M794.53,-649.3C797.46,-629.66 801.73,-601.04 805.43,-576.27"/>
<polygon fill="none" stroke="#63b8ff" points="805.47,-575.97 802.4,-569.44 807.24,-564.1 810.31,-570.62 805.47,-575.97"/>
</a>
</g>
<text text-anchor="middle" x="813" y="-618" font-family="Helvetica,sans-Serif" font-size="10.00" fill="grey"> +w</text>
<text text-anchor="middle" x="813" y="-607" font-family="Helvetica,sans-Serif" font-size="10.00" fill="grey">+x</text>
<text text-anchor="middle" x="813" y="-596" font-family="Helvetica,sans-Serif" font-size="10.00" fill="grey">+y</text>
<text text-anchor="middle" x="813" y="-585" font-family="Helvetica,sans-Serif" font-size="10.00" fill="grey">+z</text>
</g>
<!-- Node13&#45;&gt;Node10 -->
<g id="edge14_Node000010_Node000013" class="edge">
<title>Node13&#45;&gt;Node10</title>
<g id="a_edge14_Node000010_Node000013"><a xlink:title=" ">
<path fill="none" stroke="#63b8ff" d="M768.96,-484.94C756.96,-475.08 743.75,-464.79 731,-456 719.85,-448.31 707.58,-440.69 695.6,-433.66"/>
<polygon fill="none" stroke="#63b8ff" points="695.56,-433.64 688.37,-434.11 685.17,-427.64 692.36,-427.18 695.56,-433.64"/>
</a>
</g>
<text text-anchor="middle" x="770" y="-459" font-family="Helvetica,sans-Serif" font-size="10.00" fill="grey"> +rotation</text>
</g>
<!-- Node14 -->
<g id="Node000014" class="node">
<title>Node14</title>
<g id="a_Node000014"><a xlink:title=" ">
<polygon fill="white" stroke="transparent" points="203.5,-297 112.5,-297 112.5,-248 203.5,-248 203.5,-297"/>
<text text-anchor="start" x="118" y="-284.5" font-family="Helvetica,sans-Serif" font-size="10.00">std::vector&lt; T &gt;</text>
<text text-anchor="start" x="156.5" y="-269.5" font-family="Helvetica,sans-Serif" font-size="10.00"> </text>
<text text-anchor="start" x="156.5" y="-254.5" font-family="Helvetica,sans-Serif" font-size="10.00"> </text>
<polygon fill="#666666" stroke="#666666" points="113,-279.5 113,-279.5 204,-279.5 204,-279.5 113,-279.5"/>
<polygon fill="#666666" stroke="#666666" points="113,-264.5 113,-264.5 204,-264.5 204,-264.5 113,-264.5"/>
<polygon fill="none" stroke="#666666" points="112.5,-248 112.5,-297 203.5,-297 203.5,-248 112.5,-248"/>
</a>
</g>
</g>
<!-- Node14&#45;&gt;Node2 -->
<g id="edge19_Node000002_Node000014" class="edge">
<title>Node14&#45;&gt;Node2</title>
<g id="a_edge19_Node000002_Node000014"><a xlink:title=" ">
<path fill="none" stroke="orange" d="M159.18,-237.59C159.75,-221.33 160.43,-202.03 160.97,-186.39"/>
<polygon fill="orange" stroke="orange" points="155.68,-237.66 158.83,-247.78 162.68,-237.9 155.68,-237.66"/>
</a>
</g>
<text text-anchor="middle" x="243.5" y="-207" font-family="Helvetica,sans-Serif" font-size="10.00" fill="grey"> &lt; rm::msg::TransformStamped &gt;</text>
</g>
<!-- Node15 -->
<g id="Node000015" class="node">
<title>Node15</title>
<g id="a_Node000015"><a xlink:title=" ">
<polygon fill="white" stroke="transparent" points="165.5,-423 148.5,-423 148.5,-374 165.5,-374 165.5,-423"/>
<text text-anchor="start" x="154" y="-410.5" font-family="Helvetica,sans-Serif" font-size="10.00">T</text>
<text text-anchor="start" x="155.5" y="-395.5" font-family="Helvetica,sans-Serif" font-size="10.00"> </text>
<text text-anchor="start" x="155.5" y="-380.5" font-family="Helvetica,sans-Serif" font-size="10.00"> </text>
<polygon fill="#666666" stroke="#666666" points="149,-405.5 149,-405.5 166,-405.5 166,-405.5 149,-405.5"/>
<polygon fill="#666666" stroke="#666666" points="149,-390.5 149,-390.5 166,-390.5 166,-390.5 149,-390.5"/>
<polygon fill="none" stroke="#666666" points="148.5,-374 148.5,-423 165.5,-423 165.5,-374 148.5,-374"/>
</a>
</g>
</g>
<!-- Node15&#45;&gt;Node14 -->
<g id="edge20_Node000014_Node000015" class="edge">
<title>Node15&#45;&gt;Node14</title>
<g id="a_edge20_Node000014_Node000015"><a xlink:title=" ">
<path fill="none" stroke="#63b8ff" d="M157.19,-373.88C157.34,-355.61 157.54,-330.01 157.71,-309.23"/>
<polygon fill="none" stroke="#63b8ff" points="157.71,-309.03 153.76,-302.99 157.81,-297.03 161.76,-303.06 157.71,-309.03"/>
</a>
</g>
<text text-anchor="middle" x="187" y="-333" font-family="Helvetica,sans-Serif" font-size="10.00" fill="grey"> +elements</text>
</g>
</g>
</svg>

<g id="navigator" transform="translate(0 0)" fill="#404254">
  <rect fill="#f2f5e9" fill-opacity="0.5" stroke="#606060" stroke-width=".5" x="0" y="0" width="60" height="60"/>
  <use id="zoomplus" xlink:href="#zoomPlus" x="17" y="9" onmousedown="handleZoom(evt,'in')"/>
  <use id="zoomminus" xlink:href="#zoomMin" x="42" y="9" onmousedown="handleZoom(evt,'out')"/>
  <use id="reset" xlink:href="#resetDef" x="30" y="36" onmousedown="handleReset()"/>
   <use id="arrowup" xlink:href="#arrowUp" x="0" y="0" onmousedown="handlePan(0,-1)"/>
  <use id="arrowright" xlink:href="#arrowRight" x="0" y="0" onmousedown="handlePan(1,0)"/>
  <use id="arrowdown" xlink:href="#arrowDown" x="0" y="0" onmousedown="handlePan(0,1)"/>
  <use id="arrowleft" xlink:href="#arrowLeft" x="0" y="0" onmousedown="handlePan(-1,0)"/>
</g>
<svg viewBox="0 0 15 15" width="100%" height="30px" preserveAspectRatio="xMaxYMin meet">
 <g id="arrow_out" transform="scale(0.3 0.3)">
  <a xlink:href="classrm_1_1msg_1_1TF__coll__graph_org.svg" target="_base">
   <rect id="button" ry="5" rx="5" y="6" x="6" height="38" width="38"
        fill="#f2f5e9" fill-opacity="0.5" stroke="#606060" stroke-width="1.0"/>
   <path id="arrow"
     d="M 11.500037,31.436501 C 11.940474,20.09759 22.043105,11.32322 32.158766,21.979434 L 37.068811,17.246167 C 37.068811,17.246167 37.088388,32 37.088388,32 L 22.160133,31.978069 C 22.160133,31.978069 26.997745,27.140456 26.997745,27.140456 C 18.528582,18.264221 13.291696,25.230495 11.500037,31.436501 z"
     style="fill:#404040;"/>
  </a>
 </g>
</svg>

<style type='text/css'>
<![CDATA[
[data-mouse-over-selected='false'] { opacity: 0.7; }
[data-mouse-over-selected='true']  { opacity: 1.0; }
]]>
</style>
<script type="application/ecmascript"><![CDATA[
document.addEventListener('DOMContentLoaded', (event) => {
  highlightEdges();
  highlightAdjacentNodes();
});
]]></script>
</svg>
