<?xml version="1.0" encoding="UTF-8" standalone="no"?>
<!DOCTYPE svg PUBLIC "-//W3C//DTD SVG 1.1//EN"
 "http://www.w3.org/Graphics/SVG/1.1/DTD/svg11.dtd">
<!-- Generated by graphviz version 14.1.2 (0)
 -->
<!-- Title: rm::msg::TF Pages: 1 -->
<!--zoomable 884 -->

<svg id="main" version="1.1" xmlns="http://www.w3.org/2000/svg" xmlns:xlink="http://www.w3.org/1999/xlink" xml:space="preserve" onload="init(evt)">

<style type="text/css"><![CDATA[
.node, .edge {opacity: 0.7;}
.node.selected, .edge.selected {opacity: 1;}
.edge:hover path { stroke: red; }
.edge:hover polygon { stroke: red; fill: red; }
]]></style>

<defs>
  <circle id="rim" cx="0" cy="0" r="7"/>
  <circle id="rim2" cx="0" cy="0" r="3.5"/>
  <g id="zoomPlus">
    <use xlink:href="#rim" fill="#404040"><set attributeName="fill" to="#808080" begin="zoomplus.mouseover" end="zoomplus.mouseout"/></use>
    <path d="M-4,0h8M0,-4v8" fill="none" stroke="white" stroke-width="1.5" pointer-events="none"/>
  </g>
  <g id="zoomMin">
    <use xlink:href="#rim" fill="#404040"><set attributeName="fill" to="#808080" begin="zoomminus.mouseover" end="zoomminus.mouseout"/></use>
    <path d="M-4,0h8" fill="none" stroke="white" stroke-width="1.5" pointer-events="none"/>
  </g>
  <g id="arrowUp" transform="translate(30 24)">
    <use xlink:href="#rim"/>
    <path pointer-events="none" fill="none" stroke="white" stroke-width="1.5" d="M0,-3.0v7 M-2.5,-0.5L0,-3.0L2.5,-0.5"/>
  </g>
  <g id="arrowRight" transform="rotate(90) translate(36 -43)">
    <use xlink:href="#rim"/>
    <path pointer-events="none" fill="none" stroke="white" stroke-width="1.5" d="M0,-3.0v7 M-2.5,-0.5L0,-3.0L2.5,-0.5"/>
  </g>
  <g id="arrowDown" transform="rotate(180) translate(-30 -48)">
    <use xlink:href="#rim"/>
    <path pointer-events="none" fill="none" stroke="white" stroke-width="1.5" d="M0,-3.0v7 M-2.5,-0.5L0,-3.0L2.5,-0.5"/>
  </g>
  <g id="arrowLeft" transform="rotate(270) translate(-36 17)">
    <use xlink:href="#rim"/>
    <path pointer-events="none" fill="none" stroke="white" stroke-width="1.5" d="M0,-3.0v7 M-2.5,-0.5L0,-3.0L2.5,-0.5"/>
  </g>
  <g id="resetDef">
    <use xlink:href="#rim2" fill="#404040"><set attributeName="fill" to="#808080" begin="reset.mouseover" end="reset.mouseout"/></use>
  </g>
</defs>
<script type="application/ecmascript">
var viewWidth = 819;
var viewHeight = 884;
var sectionId = 'dynsection-0';
</script>
<script type="application/ecmascript" xlink:href="../../svg.min.js"/>
<svg id="graph" class="graph">
<g id="viewport">
<title>rm::msg::TF</title>
<!-- Node1 -->
<g id="Node000001" class="node">
<title>Node1</title>
<g id="a_Node000001"><a xlink:title="TF 消息类型：motion/TF">
<polygon fill="#999999" stroke="none" points="598.12,-104.5 503.62,-104.5 503.62,0 598.12,0 598.12,-104.5"/>
<text xml:space="preserve" text-anchor="start" x="521.62" y="-91" font-family="Helvetica,sans-Serif" font-size="10.00">rm::msg::TF</text>
<text xml:space="preserve" text-anchor="start" x="549.38" y="-74.25" font-family="Helvetica,sans-Serif" font-size="10.00"> </text>
<text xml:space="preserve" text-anchor="start" x="507.62" y="-57.5" font-family="Helvetica,sans-Serif" font-size="10.00">+</text>
<text xml:space="preserve" text-anchor="start" x="519.88" y="-57.5" font-family="Helvetica,sans-Serif" font-size="10.00">serialize()</text>
<text xml:space="preserve" text-anchor="start" x="507.62" y="-40.75" font-family="Helvetica,sans-Serif" font-size="10.00">+</text>
<text xml:space="preserve" text-anchor="start" x="519.88" y="-40.75" font-family="Helvetica,sans-Serif" font-size="10.00">json()</text>
<text xml:space="preserve" text-anchor="start" x="507.62" y="-24" font-family="Helvetica,sans-Serif" font-size="10.00">+</text>
<text xml:space="preserve" text-anchor="start" x="519.88" y="-24" font-family="Helvetica,sans-Serif" font-size="10.00">compact_size()</text>
<text xml:space="preserve" text-anchor="start" x="507.62" y="-7.25" font-family="Helvetica,sans-Serif" font-size="10.00">+</text>
<text xml:space="preserve" text-anchor="start" x="519.88" y="-7.25" font-family="Helvetica,sans-Serif" font-size="10.00">deserialize()</text>
<polygon fill="#666666" stroke="#666666" points="503.62,-85.75 503.62,-85.75 598.12,-85.75 598.12,-85.75 503.62,-85.75"/>
<polygon fill="#666666" stroke="#666666" points="503.62,-69 503.62,-69 598.12,-69 598.12,-69 503.62,-69"/>
<polygon fill="none" stroke="#666666" points="503.62,0 503.62,-104.5 598.12,-104.5 598.12,0 503.62,0"/>
</a>
</g>
</g>
<!-- Node2 -->
<g id="Node000002" class="node">
<title>Node2</title>
<g id="a_Node000002"><a xlink:title=" ">
<polygon fill="white" stroke="none" points="518.62,-226.25 401.12,-226.25 401.12,-159.25 518.62,-159.25 518.62,-226.25"/>
<text xml:space="preserve" text-anchor="start" x="405.12" y="-212.75" font-family="Helvetica,sans-Serif" font-size="10.00">std::vector&lt; rm::msg</text>
<text xml:space="preserve" text-anchor="start" x="405.12" y="-200" font-family="Helvetica,sans-Serif" font-size="10.00">::TransformStamped &gt;</text>
<text xml:space="preserve" text-anchor="start" x="458.38" y="-183.25" font-family="Helvetica,sans-Serif" font-size="10.00"> </text>
<text xml:space="preserve" text-anchor="start" x="458.38" y="-166.5" font-family="Helvetica,sans-Serif" font-size="10.00"> </text>
<polygon fill="#666666" stroke="#666666" points="401.12,-194.75 401.12,-194.75 518.62,-194.75 518.62,-194.75 401.12,-194.75"/>
<polygon fill="#666666" stroke="#666666" points="401.12,-178 401.12,-178 518.62,-178 518.62,-178 401.12,-178"/>
<polygon fill="none" stroke="#666666" points="401.12,-159.25 401.12,-226.25 518.62,-226.25 518.62,-159.25 401.12,-159.25"/>
</a>
</g>
</g>
<!-- Node2&#45;&gt;Node1 -->
<g id="edge1_Node000001_Node000002" class="edge">
<title>Node2&#45;&gt;Node1</title>
<g id="a_edge1_Node000001_Node000002"><a xlink:title=" ">
<path fill="none" stroke="#63b8ff" d="M481.21,-159.28C489.83,-146.15 500.09,-130.54 510.04,-115.4"/>
<polygon fill="none" stroke="#63b8ff" points="510.13,-115.27 510.08,-108.06 516.72,-105.24 516.76,-112.45 510.13,-115.27"/>
</a>
</g>
<text xml:space="preserve" text-anchor="start" x="508.38" y="-128.75" font-family="Helvetica,sans-Serif" font-size="10.00" fill="grey">+transforms</text>
</g>
<!-- Node3 -->
<g id="Node000003" class="node">
<title>Node3</title>
<g id="a_Node000003"><a xlink:href="../../db/d5d/classrm_1_1msg_1_1TransformStamped.html" target="_top" xlink:title="TransformStamped 消息类型：geometry/TransformStamped">
<polygon fill="white" stroke="none" points="439.25,-385.5 292.5,-385.5 292.5,-281 439.25,-281 439.25,-385.5"/>
<text xml:space="preserve" text-anchor="start" x="296.5" y="-372" font-family="Helvetica,sans-Serif" font-size="10.00">rm::msg::TransformStamped</text>
<text xml:space="preserve" text-anchor="start" x="364.38" y="-355.25" font-family="Helvetica,sans-Serif" font-size="10.00"> </text>
<text xml:space="preserve" text-anchor="start" x="309.56" y="-338.5" font-family="Helvetica,sans-Serif" font-size="10.00">+</text>
<text xml:space="preserve" text-anchor="start" x="334.88" y="-338.5" font-family="Helvetica,sans-Serif" font-size="10.00">serialize()</text>
<text xml:space="preserve" text-anchor="start" x="309.56" y="-321.75" font-family="Helvetica,sans-Serif" font-size="10.00">+</text>
<text xml:space="preserve" text-anchor="start" x="334.88" y="-321.75" font-family="Helvetica,sans-Serif" font-size="10.00">json()</text>
<text xml:space="preserve" text-anchor="start" x="309.56" y="-305" font-family="Helvetica,sans-Serif" font-size="10.00">+</text>
<text xml:space="preserve" text-anchor="start" x="334.88" y="-305" font-family="Helvetica,sans-Serif" font-size="10.00">compact_size()</text>
<text xml:space="preserve" text-anchor="start" x="309.56" y="-288.25" font-family="Helvetica,sans-Serif" font-size="10.00">+</text>
<text xml:space="preserve" text-anchor="start" x="334.88" y="-288.25" font-family="Helvetica,sans-Serif" font-size="10.00">deserialize()</text>
<polygon fill="#666666" stroke="#666666" points="292.5,-366.75 292.5,-366.75 439.25,-366.75 439.25,-366.75 292.5,-366.75"/>
<polygon fill="#666666" stroke="#666666" points="292.5,-350 292.5,-350 439.25,-350 439.25,-350 292.5,-350"/>
<polygon fill="none" stroke="#666666" points="292.5,-281 292.5,-385.5 439.25,-385.5 439.25,-281 292.5,-281"/>
</a>
</g>
</g>
<!-- Node3&#45;&gt;Node2 -->
<g id="edge2_Node000002_Node000003" class="edge">
<title>Node3&#45;&gt;Node2</title>
<g id="a_edge2_Node000002_Node000003"><a xlink:title=" ">
<path fill="none" stroke="#63b8ff" d="M375.63,-281.34C379.62,-268.5 385.17,-255.24 392.88,-244.25 395.1,-241.07 397.59,-238.01 400.26,-235.07"/>
<polygon fill="none" stroke="#63b8ff" points="400.15,-235.19 401.61,-228.13 408.69,-226.76 407.23,-233.82 400.15,-235.19"/>
</a>
</g>
<text xml:space="preserve" text-anchor="start" x="395.88" y="-250.5" font-family="Helvetica,sans-Serif" font-size="10.00" fill="grey">+elements</text>
</g>
<!-- Node4 -->
<g id="Node000004" class="node">
<title>Node4</title>
<g id="a_Node000004"><a xlink:href="../../de/de3/classrm_1_1msg_1_1Header.html" target="_top" xlink:title="Header 消息类型：std/Header">
<polygon fill="white" stroke="none" points="330.12,-544.75 235.62,-544.75 235.62,-440.25 330.12,-440.25 330.12,-544.75"/>
<text xml:space="preserve" text-anchor="start" x="242" y="-531.25" font-family="Helvetica,sans-Serif" font-size="10.00">rm::msg::Header</text>
<text xml:space="preserve" text-anchor="start" x="281.38" y="-514.5" font-family="Helvetica,sans-Serif" font-size="10.00"> </text>
<text xml:space="preserve" text-anchor="start" x="239.62" y="-497.75" font-family="Helvetica,sans-Serif" font-size="10.00">+</text>
<text xml:space="preserve" text-anchor="start" x="251.88" y="-497.75" font-family="Helvetica,sans-Serif" font-size="10.00">serialize()</text>
<text xml:space="preserve" text-anchor="start" x="239.62" y="-481" font-family="Helvetica,sans-Serif" font-size="10.00">+</text>
<text xml:space="preserve" text-anchor="start" x="251.88" y="-481" font-family="Helvetica,sans-Serif" font-size="10.00">json()</text>
<text xml:space="preserve" text-anchor="start" x="239.62" y="-464.25" font-family="Helvetica,sans-Serif" font-size="10.00">+</text>
<text xml:space="preserve" text-anchor="start" x="251.88" y="-464.25" font-family="Helvetica,sans-Serif" font-size="10.00">compact_size()</text>
<text xml:space="preserve" text-anchor="start" x="239.62" y="-447.5" font-family="Helvetica,sans-Serif" font-size="10.00">+</text>
<text xml:space="preserve" text-anchor="start" x="251.88" y="-447.5" font-family="Helvetica,sans-Serif" font-size="10.00">deserialize()</text>
<polygon fill="#666666" stroke="#666666" points="235.62,-526 235.62,-526 330.12,-526 330.12,-526 235.62,-526"/>
<polygon fill="#666666" stroke="#666666" points="235.62,-509.25 235.62,-509.25 330.12,-509.25 330.12,-509.25 235.62,-509.25"/>
<polygon fill="none" stroke="#666666" points="235.62,-440.25 235.62,-544.75 330.12,-544.75 330.12,-440.25 235.62,-440.25"/>
</a>
</g>
</g>
<!-- Node4&#45;&gt;Node3 -->
<g id="edge3_Node000003_Node000004" class="edge">
<title>Node4&#45;&gt;Node3</title>
<g id="a_edge3_Node000003_Node000004"><a xlink:title=" ">
<path fill="none" stroke="#63b8ff" d="M290.51,-440.62C293.6,-428.04 297.9,-414.91 303.88,-403.5 305.21,-400.94 306.67,-398.41 308.21,-395.9"/>
<polygon fill="none" stroke="#63b8ff" points="308.28,-395.8 308.33,-388.59 315.01,-385.87 314.95,-393.08 308.28,-395.8"/>
</a>
</g>
<text xml:space="preserve" text-anchor="start" x="306.88" y="-409.75" font-family="Helvetica,sans-Serif" font-size="10.00" fill="grey">+header</text>
</g>
<!-- Node5 -->
<g id="Node000005" class="node">
<title>Node5</title>
<g id="a_Node000005"><a xlink:href="../../d2/d47/classrm_1_1msg_1_1Time.html" target="_top" xlink:title="Time 消息类型：std/Time">
<polygon fill="white" stroke="none" points="267.12,-704 172.62,-704 172.62,-599.5 267.12,-599.5 267.12,-704"/>
<text xml:space="preserve" text-anchor="start" x="184.25" y="-690.5" font-family="Helvetica,sans-Serif" font-size="10.00">rm::msg::Time</text>
<text xml:space="preserve" text-anchor="start" x="218.38" y="-673.75" font-family="Helvetica,sans-Serif" font-size="10.00"> </text>
<text xml:space="preserve" text-anchor="start" x="176.62" y="-657" font-family="Helvetica,sans-Serif" font-size="10.00">+</text>
<text xml:space="preserve" text-anchor="start" x="188.88" y="-657" font-family="Helvetica,sans-Serif" font-size="10.00">serialize()</text>
<text xml:space="preserve" text-anchor="start" x="176.62" y="-640.25" font-family="Helvetica,sans-Serif" font-size="10.00">+</text>
<text xml:space="preserve" text-anchor="start" x="188.88" y="-640.25" font-family="Helvetica,sans-Serif" font-size="10.00">json()</text>
<text xml:space="preserve" text-anchor="start" x="176.62" y="-623.5" font-family="Helvetica,sans-Serif" font-size="10.00">+</text>
<text xml:space="preserve" text-anchor="start" x="188.88" y="-623.5" font-family="Helvetica,sans-Serif" font-size="10.00">compact_size()</text>
<text xml:space="preserve" text-anchor="start" x="176.62" y="-606.75" font-family="Helvetica,sans-Serif" font-size="10.00">+</text>
<text xml:space="preserve" text-anchor="start" x="188.88" y="-606.75" font-family="Helvetica,sans-Serif" font-size="10.00">deserialize()</text>
<polygon fill="#666666" stroke="#666666" points="172.62,-685.25 172.62,-685.25 267.12,-685.25 267.12,-685.25 172.62,-685.25"/>
<polygon fill="#666666" stroke="#666666" points="172.62,-668.5 172.62,-668.5 267.12,-668.5 267.12,-668.5 172.62,-668.5"/>
<polygon fill="none" stroke="#666666" points="172.62,-599.5 172.62,-704 267.12,-704 267.12,-599.5 172.62,-599.5"/>
</a>
</g>
</g>
<!-- Node5&#45;&gt;Node4 -->
<g id="edge4_Node000004_Node000005" class="edge">
<title>Node5&#45;&gt;Node4</title>
<g id="a_edge4_Node000004_Node000005"><a xlink:title=" ">
<path fill="none" stroke="#63b8ff" d="M231.49,-599.78C234.92,-587.46 239.06,-574.47 243.88,-562.75 244.76,-560.59 245.7,-558.42 246.68,-556.24"/>
<polygon fill="none" stroke="#63b8ff" points="246.68,-556.24 245.67,-549.1 251.87,-545.42 252.88,-552.56 246.68,-556.24"/>
</a>
</g>
<text xml:space="preserve" text-anchor="start" x="246.88" y="-569" font-family="Helvetica,sans-Serif" font-size="10.00" fill="grey">+stamp</text>
</g>
<!-- Node6 -->
<g id="Node000006" class="node">
<title>Node6</title>
<g id="a_Node000006"><a xlink:title=" ">
<polygon fill="white" stroke="none" points="155.75,-869.62 114,-869.62 114,-815.38 155.75,-815.38 155.75,-869.62"/>
<text xml:space="preserve" text-anchor="start" x="118" y="-856.12" font-family="Helvetica,sans-Serif" font-size="10.00">int32_t</text>
<text xml:space="preserve" text-anchor="start" x="133.38" y="-839.38" font-family="Helvetica,sans-Serif" font-size="10.00"> </text>
<text xml:space="preserve" text-anchor="start" x="133.38" y="-822.62" font-family="Helvetica,sans-Serif" font-size="10.00"> </text>
<polygon fill="#666666" stroke="#666666" points="114,-850.88 114,-850.88 155.75,-850.88 155.75,-850.88 114,-850.88"/>
<polygon fill="#666666" stroke="#666666" points="114,-834.12 114,-834.12 155.75,-834.12 155.75,-834.12 114,-834.12"/>
<polygon fill="none" stroke="#666666" points="114,-815.38 114,-869.62 155.75,-869.62 155.75,-815.38 114,-815.38"/>
</a>
</g>
</g>
<!-- Node6&#45;&gt;Node5 -->
<g id="edge5_Node000005_Node000006" class="edge">
<title>Node6&#45;&gt;Node5</title>
<g id="a_edge5_Node000005_Node000006"><a xlink:title=" ">
<path fill="none" stroke="#63b8ff" d="M135.33,-815.49C136.71,-790.36 141.34,-751.83 156.12,-722 158.64,-716.92 161.65,-711.95 164.96,-707.14"/>
<polygon fill="none" stroke="#63b8ff" points="164.89,-707.23 165.3,-700.03 172.1,-697.64 171.69,-704.84 164.89,-707.23"/>
</a>
</g>
<text xml:space="preserve" text-anchor="start" x="159.12" y="-753.38" font-family="Helvetica,sans-Serif" font-size="10.00" fill="grey">+sec</text>
</g>
<!-- Node7 -->
<g id="Node000007" class="node">
<title>Node7</title>
<g id="a_Node000007"><a xlink:title=" ">
<polygon fill="white" stroke="none" points="221.75,-869.62 174,-869.62 174,-815.38 221.75,-815.38 221.75,-869.62"/>
<text xml:space="preserve" text-anchor="start" x="178" y="-856.12" font-family="Helvetica,sans-Serif" font-size="10.00">uint32_t</text>
<text xml:space="preserve" text-anchor="start" x="196.38" y="-839.38" font-family="Helvetica,sans-Serif" font-size="10.00"> </text>
<text xml:space="preserve" text-anchor="start" x="196.38" y="-822.62" font-family="Helvetica,sans-Serif" font-size="10.00"> </text>
<polygon fill="#666666" stroke="#666666" points="174,-850.88 174,-850.88 221.75,-850.88 221.75,-850.88 174,-850.88"/>
<polygon fill="#666666" stroke="#666666" points="174,-834.12 174,-834.12 221.75,-834.12 221.75,-834.12 174,-834.12"/>
<polygon fill="none" stroke="#666666" points="174,-815.38 174,-869.62 221.75,-869.62 221.75,-815.38 174,-815.38"/>
</a>
</g>
</g>
<!-- Node7&#45;&gt;Node5 -->
<g id="edge6_Node000005_Node000007" class="edge">
<title>Node7&#45;&gt;Node5</title>
<g id="a_edge6_Node000005_Node000007"><a xlink:title=" ">
<path fill="none" stroke="#63b8ff" d="M193.98,-815.63C191.04,-791.27 188.39,-753.87 194.12,-722 194.46,-720.15 194.84,-718.28 195.26,-716.4"/>
<polygon fill="none" stroke="#63b8ff" points="195.24,-716.46 192.91,-709.64 198.31,-704.86 200.64,-711.69 195.24,-716.46"/>
</a>
</g>
<text xml:space="preserve" text-anchor="start" x="197.12" y="-753.38" font-family="Helvetica,sans-Serif" font-size="10.00" fill="grey">+nsec</text>
</g>
<!-- Node8 -->
<g id="Node000008" class="node">
<title>Node8</title>
<g id="a_Node000008"><a xlink:title=" ">
<polygon fill="white" stroke="none" points="453.38,-869.62 424.38,-869.62 424.38,-815.38 453.38,-815.38 453.38,-869.62"/>
<text xml:space="preserve" text-anchor="start" x="428.38" y="-856.12" font-family="Helvetica,sans-Serif" font-size="10.00">char</text>
<text xml:space="preserve" text-anchor="start" x="437.38" y="-839.38" font-family="Helvetica,sans-Serif" font-size="10.00"> </text>
<text xml:space="preserve" text-anchor="start" x="437.38" y="-822.62" font-family="Helvetica,sans-Serif" font-size="10.00"> </text>
<polygon fill="#666666" stroke="#666666" points="424.38,-850.88 424.38,-850.88 453.38,-850.88 453.38,-850.88 424.38,-850.88"/>
<polygon fill="#666666" stroke="#666666" points="424.38,-834.12 424.38,-834.12 453.38,-834.12 453.38,-834.12 424.38,-834.12"/>
<polygon fill="none" stroke="#666666" points="424.38,-815.38 424.38,-869.62 453.38,-869.62 453.38,-815.38 424.38,-815.38"/>
</a>
</g>
</g>
<!-- Node8&#45;&gt;Node1 -->
<g id="edge23_Node000001_Node000008" class="edge">
<title>Node8&#45;&gt;Node1</title>
<g id="a_edge23_Node000001_Node000008"><a xlink:title=" ">
<path fill="none" stroke="#63b8ff" d="M453.13,-840.25C481.49,-837.05 545.57,-826.14 583.88,-791 632.98,-745.96 641.88,-719.38 641.88,-652.75 641.88,-652.75 641.88,-652.75 641.88,-191.75 641.88,-160.28 625.26,-130.42 606.24,-106.54"/>
<polygon fill="none" stroke="#63b8ff" points="606.26,-106.57 599.34,-104.54 598.55,-97.37 605.47,-99.4 606.26,-106.57"/>
</a>
</g>
<text xml:space="preserve" text-anchor="start" x="644.88" y="-409.75" font-family="Helvetica,sans-Serif" font-size="10.00" fill="grey">+msg_type</text>
</g>
<!-- Node8&#45;&gt;Node3 -->
<g id="edge20_Node000003_Node000008" class="edge">
<title>Node8&#45;&gt;Node3</title>
<g id="a_edge20_Node000003_Node000008"><a xlink:title=" ">
<path fill="none" stroke="#63b8ff" d="M431.1,-815.6C417.53,-769.18 389.84,-668.53 377.62,-581.5 368.94,-519.58 366.33,-448.18 365.7,-398.07"/>
<polygon fill="none" stroke="#63b8ff" points="365.7,-398.07 361.64,-392.11 365.58,-386.07 369.64,-392.03 365.7,-398.07"/>
</a>
</g>
<text xml:space="preserve" text-anchor="start" x="380.62" y="-569" font-family="Helvetica,sans-Serif" font-size="10.00" fill="grey">+msg_type</text>
</g>
<!-- Node8&#45;&gt;Node4 -->
<g id="edge10_Node000004_Node000008" class="edge">
<title>Node8&#45;&gt;Node4</title>
<g id="a_edge10_Node000004_Node000008"><a xlink:title=" ">
<path fill="none" stroke="#63b8ff" d="M424.67,-831.17C411.93,-821.54 393.11,-806.4 378.88,-791 346.6,-756.09 334.7,-747.97 316.62,-704 305.99,-678.12 296.14,-609.39 289.87,-557.45"/>
<polygon fill="none" stroke="#63b8ff" points="289.87,-557.45 285.19,-551.97 288.45,-545.54 293.13,-551.03 289.87,-557.45"/>
</a>
</g>
<text xml:space="preserve" text-anchor="start" x="319.62" y="-648.62" font-family="Helvetica,sans-Serif" font-size="10.00" fill="grey">+msg_type</text>
</g>
<!-- Node8&#45;&gt;Node5 -->
<g id="edge7_Node000005_Node000008" class="edge">
<title>Node8&#45;&gt;Node5</title>
<g id="a_edge7_Node000005_Node000008"><a xlink:title=" ">
<path fill="none" stroke="#63b8ff" d="M424.41,-842.14C389.66,-842.83 300.83,-839.48 253.62,-791 248.05,-785.27 239.48,-749.98 232.37,-716.49"/>
<polygon fill="none" stroke="#63b8ff" points="232.36,-716.44 227.22,-711.38 229.91,-704.69 235.05,-709.75 232.36,-716.44"/>
</a>
</g>
<text xml:space="preserve" text-anchor="start" x="256.62" y="-753.38" font-family="Helvetica,sans-Serif" font-size="10.00" fill="grey">+msg_type</text>
</g>
<!-- Node11 -->
<g id="Node000011" class="node">
<title>Node11</title>
<g id="a_Node000011"><a xlink:href="../../df/d0f/classrm_1_1msg_1_1Transform.html" target="_top" xlink:title="Transform 消息类型：geometry/Transform">
<polygon fill="white" stroke="none" points="497.5,-544.75 394.25,-544.75 394.25,-440.25 497.5,-440.25 497.5,-544.75"/>
<text xml:space="preserve" text-anchor="start" x="398.25" y="-531.25" font-family="Helvetica,sans-Serif" font-size="10.00">rm::msg::Transform</text>
<text xml:space="preserve" text-anchor="start" x="444.38" y="-514.5" font-family="Helvetica,sans-Serif" font-size="10.00"> </text>
<text xml:space="preserve" text-anchor="start" x="400.44" y="-497.75" font-family="Helvetica,sans-Serif" font-size="10.00">+</text>
<text xml:space="preserve" text-anchor="start" x="414.88" y="-497.75" font-family="Helvetica,sans-Serif" font-size="10.00">serialize()</text>
<text xml:space="preserve" text-anchor="start" x="400.44" y="-481" font-family="Helvetica,sans-Serif" font-size="10.00">+</text>
<text xml:space="preserve" text-anchor="start" x="414.88" y="-481" font-family="Helvetica,sans-Serif" font-size="10.00">json()</text>
<text xml:space="preserve" text-anchor="start" x="400.44" y="-464.25" font-family="Helvetica,sans-Serif" font-size="10.00">+</text>
<text xml:space="preserve" text-anchor="start" x="414.88" y="-464.25" font-family="Helvetica,sans-Serif" font-size="10.00">compact_size()</text>
<text xml:space="preserve" text-anchor="start" x="400.44" y="-447.5" font-family="Helvetica,sans-Serif" font-size="10.00">+</text>
<text xml:space="preserve" text-anchor="start" x="414.88" y="-447.5" font-family="Helvetica,sans-Serif" font-size="10.00">deserialize()</text>
<polygon fill="#666666" stroke="#666666" points="394.25,-526 394.25,-526 497.5,-526 497.5,-526 394.25,-526"/>
<polygon fill="#666666" stroke="#666666" points="394.25,-509.25 394.25,-509.25 497.5,-509.25 497.5,-509.25 394.25,-509.25"/>
<polygon fill="none" stroke="#666666" points="394.25,-440.25 394.25,-544.75 497.5,-544.75 497.5,-440.25 394.25,-440.25"/>
</a>
</g>
</g>
<!-- Node8&#45;&gt;Node11 -->
<g id="edge19_Node000011_Node000008" class="edge">
<title>Node8&#45;&gt;Node11</title>
<g id="a_edge19_Node000011_Node000008"><a xlink:title=" ">
<path fill="none" stroke="#63b8ff" d="M439.4,-815.63C440.48,-761.5 443.03,-634.93 444.59,-557.54"/>
<polygon fill="none" stroke="#63b8ff" points="444.59,-557.52 440.71,-551.45 444.83,-545.53 448.71,-551.61 444.59,-557.52"/>
</a>
</g>
<text xml:space="preserve" text-anchor="start" x="446.74" y="-648.62" font-family="Helvetica,sans-Serif" font-size="10.00" fill="grey">+msg_type</text>
</g>
<!-- Node12 -->
<g id="Node000012" class="node">
<title>Node12</title>
<g id="a_Node000012"><a xlink:href="../../d3/d5d/classrm_1_1msg_1_1Vector3.html" target="_top" xlink:title="Vector3 消息类型：geometry/Vector3">
<polygon fill="white" stroke="none" points="614.12,-704 519.62,-704 519.62,-599.5 614.12,-599.5 614.12,-704"/>
<text xml:space="preserve" text-anchor="start" x="525.25" y="-690.5" font-family="Helvetica,sans-Serif" font-size="10.00">rm::msg::Vector3</text>
<text xml:space="preserve" text-anchor="start" x="565.38" y="-673.75" font-family="Helvetica,sans-Serif" font-size="10.00"> </text>
<text xml:space="preserve" text-anchor="start" x="523.62" y="-657" font-family="Helvetica,sans-Serif" font-size="10.00">+</text>
<text xml:space="preserve" text-anchor="start" x="535.88" y="-657" font-family="Helvetica,sans-Serif" font-size="10.00">serialize()</text>
<text xml:space="preserve" text-anchor="start" x="523.62" y="-640.25" font-family="Helvetica,sans-Serif" font-size="10.00">+</text>
<text xml:space="preserve" text-anchor="start" x="535.88" y="-640.25" font-family="Helvetica,sans-Serif" font-size="10.00">json()</text>
<text xml:space="preserve" text-anchor="start" x="523.62" y="-623.5" font-family="Helvetica,sans-Serif" font-size="10.00">+</text>
<text xml:space="preserve" text-anchor="start" x="535.88" y="-623.5" font-family="Helvetica,sans-Serif" font-size="10.00">compact_size()</text>
<text xml:space="preserve" text-anchor="start" x="523.62" y="-606.75" font-family="Helvetica,sans-Serif" font-size="10.00">+</text>
<text xml:space="preserve" text-anchor="start" x="535.88" y="-606.75" font-family="Helvetica,sans-Serif" font-size="10.00">deserialize()</text>
<polygon fill="#666666" stroke="#666666" points="519.62,-685.25 519.62,-685.25 614.12,-685.25 614.12,-685.25 519.62,-685.25"/>
<polygon fill="#666666" stroke="#666666" points="519.62,-668.5 519.62,-668.5 614.12,-668.5 614.12,-668.5 519.62,-668.5"/>
<polygon fill="none" stroke="#666666" points="519.62,-599.5 519.62,-704 614.12,-704 614.12,-599.5 519.62,-599.5"/>
</a>
</g>
</g>
<!-- Node8&#45;&gt;Node12 -->
<g id="edge15_Node000012_Node000008" class="edge">
<title>Node8&#45;&gt;Node12</title>
<g id="a_edge15_Node000012_Node000008"><a xlink:title=" ">
<path fill="none" stroke="#63b8ff" d="M453.31,-820.21C470.63,-794.68 500.42,-750.75 525.14,-714.29"/>
<polygon fill="none" stroke="#63b8ff" points="525.06,-714.41 525.11,-707.2 531.79,-704.48 531.74,-711.69 525.06,-714.41"/>
</a>
</g>
<text xml:space="preserve" text-anchor="start" x="521.1" y="-753.38" font-family="Helvetica,sans-Serif" font-size="10.00" fill="grey">+msg_type</text>
</g>
<!-- Node14 -->
<g id="Node000014" class="node">
<title>Node14</title>
<g id="a_Node000014"><a xlink:href="../../d1/dbe/classrm_1_1msg_1_1Quaternion.html" target="_top" xlink:title="Quaternion 消息类型：geometry/Quaternion">
<polygon fill="white" stroke="none" points="778.12,-704 669.62,-704 669.62,-599.5 778.12,-599.5 778.12,-704"/>
<text xml:space="preserve" text-anchor="start" x="673.62" y="-690.5" font-family="Helvetica,sans-Serif" font-size="10.00">rm::msg::Quaternion</text>
<text xml:space="preserve" text-anchor="start" x="722.38" y="-673.75" font-family="Helvetica,sans-Serif" font-size="10.00"> </text>
<text xml:space="preserve" text-anchor="start" x="677.12" y="-657" font-family="Helvetica,sans-Serif" font-size="10.00">+</text>
<text xml:space="preserve" text-anchor="start" x="692.88" y="-657" font-family="Helvetica,sans-Serif" font-size="10.00">serialize()</text>
<text xml:space="preserve" text-anchor="start" x="677.12" y="-640.25" font-family="Helvetica,sans-Serif" font-size="10.00">+</text>
<text xml:space="preserve" text-anchor="start" x="692.88" y="-640.25" font-family="Helvetica,sans-Serif" font-size="10.00">json()</text>
<text xml:space="preserve" text-anchor="start" x="677.12" y="-623.5" font-family="Helvetica,sans-Serif" font-size="10.00">+</text>
<text xml:space="preserve" text-anchor="start" x="692.88" y="-623.5" font-family="Helvetica,sans-Serif" font-size="10.00">compact_size()</text>
<text xml:space="preserve" text-anchor="start" x="677.12" y="-606.75" font-family="Helvetica,sans-Serif" font-size="10.00">+</text>
<text xml:space="preserve" text-anchor="start" x="692.88" y="-606.75" font-family="Helvetica,sans-Serif" font-size="10.00">deserialize()</text>
<polygon fill="#666666" stroke="#666666" points="669.62,-685.25 669.62,-685.25 778.12,-685.25 778.12,-685.25 669.62,-685.25"/>
<polygon fill="#666666" stroke="#666666" points="669.62,-668.5 669.62,-668.5 778.12,-668.5 778.12,-668.5 669.62,-668.5"/>
<polygon fill="none" stroke="#666666" points="669.62,-599.5 669.62,-704 778.12,-704 778.12,-599.5 669.62,-599.5"/>
</a>
</g>
</g>
<!-- Node8&#45;&gt;Node14 -->
<g id="edge18_Node000014_Node000008" class="edge">
<title>Node8&#45;&gt;Node14</title>
<g id="a_edge18_Node000014_Node000008"><a xlink:title=" ">
<path fill="none" stroke="#63b8ff" d="M453.19,-840.72C502.03,-837.77 661.05,-825.62 695.88,-791 701.5,-785.41 708.59,-750.12 714.23,-716.6"/>
<polygon fill="none" stroke="#63b8ff" points="714.23,-716.63 711.25,-710.06 716.17,-704.79 719.15,-711.36 714.23,-716.63"/>
</a>
</g>
<text xml:space="preserve" text-anchor="start" x="715.67" y="-753.38" font-family="Helvetica,sans-Serif" font-size="10.00" fill="grey">+msg_type</text>
</g>
<!-- Node9 -->
<g id="Node000009" class="node">
<title>Node9</title>
<g id="a_Node000009"><a xlink:title=" ">
<polygon fill="white" stroke="none" points="154.25,-678.88 97.5,-678.88 97.5,-624.62 154.25,-624.62 154.25,-678.88"/>
<text xml:space="preserve" text-anchor="start" x="101.5" y="-665.38" font-family="Helvetica,sans-Serif" font-size="10.00">std::string</text>
<text xml:space="preserve" text-anchor="start" x="124.38" y="-648.62" font-family="Helvetica,sans-Serif" font-size="10.00"> </text>
<text xml:space="preserve" text-anchor="start" x="124.38" y="-631.88" font-family="Helvetica,sans-Serif" font-size="10.00"> </text>
<polygon fill="#666666" stroke="#666666" points="97.5,-660.12 97.5,-660.12 154.25,-660.12 154.25,-660.12 97.5,-660.12"/>
<polygon fill="#666666" stroke="#666666" points="97.5,-643.38 97.5,-643.38 154.25,-643.38 154.25,-643.38 97.5,-643.38"/>
<polygon fill="none" stroke="#666666" points="97.5,-624.62 97.5,-678.88 154.25,-678.88 154.25,-624.62 97.5,-624.62"/>
</a>
</g>
</g>
<!-- Node9&#45;&gt;Node3 -->
<g id="edge11_Node000003_Node000009" class="edge">
<title>Node9&#45;&gt;Node3</title>
<g id="a_edge11_Node000003_Node000009"><a xlink:title=" ">
<path fill="none" stroke="#63b8ff" d="M119.94,-624.75C111.78,-582.12 102.12,-496.47 140.62,-440.25 172.65,-393.49 230.97,-366.82 280.24,-351.93"/>
<polygon fill="none" stroke="#63b8ff" points="280.16,-351.95 284.82,-346.45 291.69,-348.64 287.03,-354.14 280.16,-351.95"/>
</a>
</g>
<text xml:space="preserve" text-anchor="start" x="143.62" y="-489.38" font-family="Helvetica,sans-Serif" font-size="10.00" fill="grey">+child_frame_id</text>
</g>
<!-- Node9&#45;&gt;Node4 -->
<g id="edge8_Node000004_Node000009" class="edge">
<title>Node9&#45;&gt;Node4</title>
<g id="a_edge8_Node000004_Node000009"><a xlink:title=" ">
<path fill="none" stroke="#63b8ff" d="M135.16,-624.65C143.16,-605.37 156.4,-579.63 175.12,-562.75 190.13,-549.22 199.48,-555.03 216.88,-544.75 219.66,-543.1 222.46,-541.35 225.26,-539.53"/>
<polygon fill="none" stroke="#63b8ff" points="225.3,-539.51 227.99,-532.82 235.2,-532.73 232.51,-539.42 225.3,-539.51"/>
</a>
</g>
<text xml:space="preserve" text-anchor="start" x="178.12" y="-569" font-family="Helvetica,sans-Serif" font-size="10.00" fill="grey">+frame_id</text>
</g>
<!-- Node10 -->
<g id="Node000010" class="node">
<title>Node10</title>
<g id="a_Node000010"><a xlink:title=" ">
<polygon fill="white" stroke="none" points="95.75,-876 0,-876 0,-809 95.75,-809 95.75,-876"/>
<text xml:space="preserve" text-anchor="start" x="4" y="-862.5" font-family="Helvetica,sans-Serif" font-size="10.00">std::basic_string&lt;</text>
<text xml:space="preserve" text-anchor="start" x="29.5" y="-849.75" font-family="Helvetica,sans-Serif" font-size="10.00"> Char &gt;</text>
<text xml:space="preserve" text-anchor="start" x="46.38" y="-833" font-family="Helvetica,sans-Serif" font-size="10.00"> </text>
<text xml:space="preserve" text-anchor="start" x="46.38" y="-816.25" font-family="Helvetica,sans-Serif" font-size="10.00"> </text>
<polygon fill="#666666" stroke="#666666" points="0,-844.5 0,-844.5 95.75,-844.5 95.75,-844.5 0,-844.5"/>
<polygon fill="#666666" stroke="#666666" points="0,-827.75 0,-827.75 95.75,-827.75 95.75,-827.75 0,-827.75"/>
<polygon fill="none" stroke="#666666" points="0,-809 0,-876 95.75,-876 95.75,-809 0,-809"/>
</a>
</g>
</g>
<!-- Node10&#45;&gt;Node9 -->
<g id="edge9_Node000009_Node000010" class="edge">
<title>Node10&#45;&gt;Node9</title>
<g id="a_edge9_Node000009_Node000010"><a xlink:title=" ">
<path fill="none" stroke="#63b8ff" d="M65.6,-798.6C80.86,-761.68 102.38,-709.62 115.15,-678.71"/>
<polygon fill="none" stroke="#63b8ff" points="62.45,-797.08 61.86,-807.65 68.92,-799.75 62.45,-797.08"/>
</a>
</g>
</g>
<!-- Node11&#45;&gt;Node3 -->
<g id="edge12_Node000003_Node000011" class="edge">
<title>Node11&#45;&gt;Node3</title>
<g id="a_edge12_Node000003_Node000011"><a xlink:title=" ">
<path fill="none" stroke="#63b8ff" d="M419.9,-440.45C412.81,-426.51 405.04,-411.24 397.67,-396.74"/>
<polygon fill="none" stroke="#63b8ff" points="397.71,-396.82 391.42,-393.28 392.26,-386.12 398.55,-389.65 397.71,-396.82"/>
</a>
</g>
<text xml:space="preserve" text-anchor="start" x="411.27" y="-409.75" font-family="Helvetica,sans-Serif" font-size="10.00" fill="grey">+transform</text>
</g>
<!-- Node12&#45;&gt;Node11 -->
<g id="edge13_Node000011_Node000012" class="edge">
<title>Node12&#45;&gt;Node11</title>
<g id="a_edge13_Node000011_Node000012"><a xlink:title=" ">
<path fill="none" stroke="#63b8ff" d="M527.59,-599.7C516.54,-585.34 504.42,-569.58 492.97,-554.7"/>
<polygon fill="none" stroke="#63b8ff" points="493.04,-554.79 486.21,-552.48 485.72,-545.28 492.55,-547.6 493.04,-554.79"/>
</a>
</g>
<text xml:space="preserve" text-anchor="start" x="513" y="-569" font-family="Helvetica,sans-Serif" font-size="10.00" fill="grey">+translation</text>
</g>
<!-- Node13 -->
<g id="Node000013" class="node">
<title>Node13</title>
<g id="a_Node000013"><a xlink:title=" ">
<polygon fill="white" stroke="none" points="759.38,-869.62 718.38,-869.62 718.38,-815.38 759.38,-815.38 759.38,-869.62"/>
<text xml:space="preserve" text-anchor="start" x="722.38" y="-856.12" font-family="Helvetica,sans-Serif" font-size="10.00">double</text>
<text xml:space="preserve" text-anchor="start" x="737.38" y="-839.38" font-family="Helvetica,sans-Serif" font-size="10.00"> </text>
<text xml:space="preserve" text-anchor="start" x="737.38" y="-822.62" font-family="Helvetica,sans-Serif" font-size="10.00"> </text>
<polygon fill="#666666" stroke="#666666" points="718.38,-850.88 718.38,-850.88 759.38,-850.88 759.38,-850.88 718.38,-850.88"/>
<polygon fill="#666666" stroke="#666666" points="718.38,-834.12 718.38,-834.12 759.38,-834.12 759.38,-834.12 718.38,-834.12"/>
<polygon fill="none" stroke="#666666" points="718.38,-815.38 718.38,-869.62 759.38,-869.62 759.38,-815.38 718.38,-815.38"/>
</a>
</g>
</g>
<!-- Node13&#45;&gt;Node12 -->
<g id="edge14_Node000012_Node000013" class="edge">
<title>Node13&#45;&gt;Node12</title>
<g id="a_edge14_Node000012_Node000013"><a xlink:title=" ">
<path fill="none" stroke="#63b8ff" d="M718.51,-827.13C705.6,-817.57 688.89,-804.36 675.62,-791 652.28,-767.49 629.19,-739.07 610.33,-714.13"/>
<polygon fill="none" stroke="#63b8ff" points="610.24,-714.01 603.45,-711.6 603.06,-704.4 609.85,-706.81 610.24,-714.01"/>
</a>
</g>
<text xml:space="preserve" text-anchor="start" x="678.62" y="-770.12" font-family="Helvetica,sans-Serif" font-size="10.00" fill="grey">+x</text>
<text xml:space="preserve" text-anchor="start" x="678.62" y="-753.38" font-family="Helvetica,sans-Serif" font-size="10.00" fill="grey">+y</text>
<text xml:space="preserve" text-anchor="start" x="678.62" y="-736.62" font-family="Helvetica,sans-Serif" font-size="10.00" fill="grey">+z</text>
</g>
<!-- Node13&#45;&gt;Node14 -->
<g id="edge17_Node000014_Node000013" class="edge">
<title>Node13&#45;&gt;Node14</title>
<g id="a_edge17_Node000014_Node000013"><a xlink:title=" ">
<path fill="none" stroke="#63b8ff" d="M759.23,-823.41C767.64,-814.58 776.46,-803.23 780.88,-791 791.3,-762.16 791.23,-750.87 780.88,-722 780.03,-719.64 779.06,-717.3 777.99,-714.98"/>
<polygon fill="none" stroke="#63b8ff" points="778.03,-715.06 771.66,-711.68 772.33,-704.5 778.7,-707.88 778.03,-715.06"/>
</a>
</g>
<text xml:space="preserve" text-anchor="start" x="791.67" y="-778.5" font-family="Helvetica,sans-Serif" font-size="10.00" fill="grey">+w</text>
<text xml:space="preserve" text-anchor="start" x="791.67" y="-761.75" font-family="Helvetica,sans-Serif" font-size="10.00" fill="grey">+x</text>
<text xml:space="preserve" text-anchor="start" x="791.67" y="-745" font-family="Helvetica,sans-Serif" font-size="10.00" fill="grey">+y</text>
<text xml:space="preserve" text-anchor="start" x="791.67" y="-728.25" font-family="Helvetica,sans-Serif" font-size="10.00" fill="grey">+z</text>
</g>
<!-- Node14&#45;&gt;Node11 -->
<g id="edge16_Node000011_Node000014" class="edge">
<title>Node14&#45;&gt;Node11</title>
<g id="a_edge16_Node000011_Node000014"><a xlink:title=" ">
<path fill="none" stroke="#63b8ff" d="M669.68,-611.81C643.81,-594.72 611.82,-575.65 580.88,-562.75 552.93,-551.1 539.93,-558.12 509.06,-544.92"/>
<polygon fill="none" stroke="#63b8ff" points="508.99,-544.88 501.86,-545.92 498.16,-539.73 505.3,-538.69 508.99,-544.88"/>
</a>
</g>
<text xml:space="preserve" text-anchor="start" x="621.12" y="-569" font-family="Helvetica,sans-Serif" font-size="10.00" fill="grey">+rotation</text>
</g>
<!-- Node15 -->
<g id="Node000015" class="node">
<title>Node15</title>
<g id="a_Node000015"><a xlink:title=" ">
<polygon fill="white" stroke="none" points="557,-360.38 468.75,-360.38 468.75,-306.12 557,-306.12 557,-360.38"/>
<text xml:space="preserve" text-anchor="start" x="472.75" y="-346.88" font-family="Helvetica,sans-Serif" font-size="10.00">std::vector&lt; T &gt;</text>
<text xml:space="preserve" text-anchor="start" x="511.38" y="-330.12" font-family="Helvetica,sans-Serif" font-size="10.00"> </text>
<text xml:space="preserve" text-anchor="start" x="511.38" y="-313.38" font-family="Helvetica,sans-Serif" font-size="10.00"> </text>
<polygon fill="#666666" stroke="#666666" points="468.75,-341.62 468.75,-341.62 557,-341.62 557,-341.62 468.75,-341.62"/>
<polygon fill="#666666" stroke="#666666" points="468.75,-324.88 468.75,-324.88 557,-324.88 557,-324.88 468.75,-324.88"/>
<polygon fill="none" stroke="#666666" points="468.75,-306.12 468.75,-360.38 557,-360.38 557,-306.12 468.75,-306.12"/>
</a>
</g>
</g>
<!-- Node15&#45;&gt;Node2 -->
<g id="edge21_Node000002_Node000015" class="edge">
<title>Node15&#45;&gt;Node2</title>
<g id="a_edge21_Node000002_Node000015"><a xlink:title=" ">
<path fill="none" stroke="orange" d="M480.05,-297.64C472.18,-287.27 464.84,-275.35 460.62,-263 456.67,-251.39 455.74,-238.04 456.07,-226.18"/>
<polygon fill="orange" stroke="orange" points="477.1,-299.55 486.1,-305.14 482.55,-295.16 477.1,-299.55"/>
</a>
</g>
<text xml:space="preserve" text-anchor="start" x="463.62" y="-250.5" font-family="Helvetica,sans-Serif" font-size="10.00" fill="grey">&lt; rm::msg::TransformStamped &gt;</text>
</g>
<!-- Node16 -->
<g id="Node000016" class="node">
<title>Node16</title>
<g id="a_Node000016"><a xlink:title=" ">
<polygon fill="white" stroke="none" points="529.88,-519.62 515.88,-519.62 515.88,-465.38 529.88,-465.38 529.88,-519.62"/>
<text xml:space="preserve" text-anchor="start" x="519.88" y="-506.12" font-family="Helvetica,sans-Serif" font-size="10.00">T</text>
<text xml:space="preserve" text-anchor="start" x="521.38" y="-489.38" font-family="Helvetica,sans-Serif" font-size="10.00"> </text>
<text xml:space="preserve" text-anchor="start" x="521.38" y="-472.62" font-family="Helvetica,sans-Serif" font-size="10.00"> </text>
<polygon fill="#666666" stroke="#666666" points="515.88,-500.88 515.88,-500.88 529.88,-500.88 529.88,-500.88 515.88,-500.88"/>
<polygon fill="#666666" stroke="#666666" points="515.88,-484.12 515.88,-484.12 529.88,-484.12 529.88,-484.12 515.88,-484.12"/>
<polygon fill="none" stroke="#666666" points="515.88,-465.38 515.88,-519.62 529.88,-519.62 529.88,-465.38 515.88,-465.38"/>
</a>
</g>
</g>
<!-- Node16&#45;&gt;Node15 -->
<g id="edge22_Node000015_Node000016" class="edge">
<title>Node16&#45;&gt;Node15</title>
<g id="a_edge22_Node000015_Node000016"><a xlink:title=" ">
<path fill="none" stroke="#63b8ff" d="M521.22,-465.53C519.62,-440.38 517.18,-401.92 515.35,-373.12"/>
<polygon fill="none" stroke="#63b8ff" points="515.35,-373.13 510.97,-367.4 514.59,-361.15 518.96,-366.89 515.35,-373.13"/>
</a>
</g>
<text xml:space="preserve" text-anchor="start" x="521.17" y="-409.75" font-family="Helvetica,sans-Serif" font-size="10.00" fill="grey">+elements</text>
</g>
</g>
</svg>

<g id="navigator" transform="translate(0 0)" fill="#404254">
  <rect fill="#f2f5e9" fill-opacity="0.5" stroke="#606060" stroke-width=".5" x="0" y="0" width="60" height="60"/>
  <use id="zoomplus" xlink:href="#zoomPlus" x="17" y="9" onmousedown="handleZoom(evt,'in')"/>
  <use id="zoomminus" xlink:href="#zoomMin" x="42" y="9" onmousedown="handleZoom(evt,'out')"/>
  <use id="reset" xlink:href="#resetDef" x="30" y="36" onmousedown="handleReset()"/>
   <use id="arrowup" xlink:href="#arrowUp" x="0" y="0" onmousedown="handlePan(0,-1)"/>
  <use id="arrowright" xlink:href="#arrowRight" x="0" y="0" onmousedown="handlePan(1,0)"/>
  <use id="arrowdown" xlink:href="#arrowDown" x="0" y="0" onmousedown="handlePan(0,1)"/>
  <use id="arrowleft" xlink:href="#arrowLeft" x="0" y="0" onmousedown="handlePan(-1,0)"/>
</g>
<svg viewBox="0 0 15 15" width="100%" height="30px" preserveAspectRatio="xMaxYMin meet">
 <g id="arrow_out" transform="scale(0.3 0.3)">
  <a xlink:href="classrm_1_1msg_1_1TF__coll__graph_org.svg" target="_base">
   <rect id="button" ry="5" rx="5" y="6" x="6" height="38" width="38"
        fill="#f2f5e9" fill-opacity="0.5" stroke="#606060" stroke-width="1.0"/>
   <path id="arrow"
     d="M 11.500037,31.436501 C 11.940474,20.09759 22.043105,11.32322 32.158766,21.979434 L 37.068811,17.246167 C 37.068811,17.246167 37.088388,32 37.088388,32 L 22.160133,31.978069 C 22.160133,31.978069 26.997745,27.140456 26.997745,27.140456 C 18.528582,18.264221 13.291696,25.230495 11.500037,31.436501 z"
     style="fill:#404040;"/>
  </a>
 </g>
</svg>

<style type='text/css'>
<![CDATA[
[data-mouse-over-selected='false'] { opacity: 0.7; }
[data-mouse-over-selected='true']  { opacity: 1.0; }
]]>
</style>
<script type="application/ecmascript"><![CDATA[
document.addEventListener('DOMContentLoaded', (event) => {
  highlightEdges();
  highlightAdjacentNodes();
});
]]></script>
</svg>
