<?xml version="1.0" encoding="UTF-8" standalone="no"?>
<!DOCTYPE svg PUBLIC "-//W3C//DTD SVG 1.1//EN"
 "http://www.w3.org/Graphics/SVG/1.1/DTD/svg11.dtd">
<!-- Generated by graphviz version 2.43.0 (0)
 -->
<!-- Title: rm::DefaultGroup Pages: 1 -->
<svg width="971pt" height="619pt"
 viewBox="0.00 0.00 970.50 619.00" xmlns="http://www.w3.org/2000/svg" xmlns:xlink="http://www.w3.org/1999/xlink">
<g id="graph0" class="graph" transform="scale(1 1) rotate(0) translate(4 615)">
<title>rm::DefaultGroup</title>
<polygon fill="white" stroke="transparent" points="-4,4 -4,-615 966.5,-615 966.5,4 -4,4"/>
<!-- Node1 -->
<g id="node1" class="node">
<title>Node1</title>
<g id="a_node1"><a xlink:title="默认序列组（一般退化为 trackers 使用）">
<polygon fill="#bfbfbf" stroke="black" points="521.5,-0.5 521.5,-79.5 622.5,-79.5 622.5,-0.5 521.5,-0.5"/>
<text text-anchor="middle" x="572" y="-67.5" font-family="Helvetica,sans-Serif" font-size="10.00">rm::DefaultGroup</text>
<polyline fill="none" stroke="black" points="521.5,-60.5 622.5,-60.5 "/>
<text text-anchor="middle" x="572" y="-48.5" font-family="Helvetica,sans-Serif" font-size="10.00"> </text>
<polyline fill="none" stroke="black" points="521.5,-41.5 622.5,-41.5 "/>
<text text-anchor="start" x="529.5" y="-29.5" font-family="Helvetica,sans-Serif" font-size="10.00">+ DefaultGroup()</text>
<text text-anchor="start" x="529.5" y="-18.5" font-family="Helvetica,sans-Serif" font-size="10.00">+ sync()</text>
<text text-anchor="start" x="529.5" y="-7.5" font-family="Helvetica,sans-Serif" font-size="10.00">+ make_group()</text>
</a>
</g>
</g>
<!-- Node2 -->
<g id="node2" class="node">
<title>Node2</title>
<g id="a_node2"><a xlink:href="../../d6/d6c/classrm_1_1group.html" target="_top" xlink:title="相关追踪器的空间集合（序列组）">
<polygon fill="white" stroke="black" points="511,-117.5 511,-284.5 633,-284.5 633,-117.5 511,-117.5"/>
<text text-anchor="middle" x="572" y="-272.5" font-family="Helvetica,sans-Serif" font-size="10.00">rm::group</text>
<polyline fill="none" stroke="black" points="511,-265.5 633,-265.5 "/>
<text text-anchor="middle" x="572" y="-253.5" font-family="Helvetica,sans-Serif" font-size="10.00"> </text>
<polyline fill="none" stroke="black" points="511,-246.5 633,-246.5 "/>
<text text-anchor="start" x="519" y="-234.5" font-family="Helvetica,sans-Serif" font-size="10.00">+ group()</text>
<text text-anchor="start" x="519" y="-223.5" font-family="Helvetica,sans-Serif" font-size="10.00">+ ~group()</text>
<text text-anchor="start" x="519" y="-212.5" font-family="Helvetica,sans-Serif" font-size="10.00">+ sync()</text>
<text text-anchor="start" x="519" y="-201.5" font-family="Helvetica,sans-Serif" font-size="10.00">+ add()</text>
<text text-anchor="start" x="519" y="-190.5" font-family="Helvetica,sans-Serif" font-size="10.00">+ data()</text>
<text text-anchor="start" x="519" y="-179.5" font-family="Helvetica,sans-Serif" font-size="10.00">+ size()</text>
<text text-anchor="start" x="519" y="-168.5" font-family="Helvetica,sans-Serif" font-size="10.00">+ empty()</text>
<text text-anchor="start" x="519" y="-157.5" font-family="Helvetica,sans-Serif" font-size="10.00">+ at()</text>
<text text-anchor="start" x="519" y="-146.5" font-family="Helvetica,sans-Serif" font-size="10.00">+ getCenter()</text>
<text text-anchor="start" x="519" y="-135.5" font-family="Helvetica,sans-Serif" font-size="10.00">+ getVanishNumber()</text>
<text text-anchor="start" x="519" y="-124.5" font-family="Helvetica,sans-Serif" font-size="10.00">+ getType()</text>
</a>
</g>
</g>
<!-- Node2&#45;&gt;Node1 -->
<g id="edge1" class="edge">
<title>Node2&#45;&gt;Node1</title>
<path fill="none" stroke="midnightblue" d="M572,-107.13C572,-97.51 572,-88.15 572,-79.64"/>
<polygon fill="none" stroke="midnightblue" points="568.5,-107.24 572,-117.24 575.5,-107.24 568.5,-107.24"/>
</g>
<!-- Node3 -->
<g id="node3" class="node">
<title>Node3</title>
<g id="a_node3"><a xlink:href="../../d0/d01/structrm_1_1RMStatus.html" target="_top" xlink:title="状态类型">
<polygon fill="white" stroke="black" points="324.5,-332.5 324.5,-400.5 407.5,-400.5 407.5,-332.5 324.5,-332.5"/>
<text text-anchor="middle" x="366" y="-388.5" font-family="Helvetica,sans-Serif" font-size="10.00">rm::RMStatus</text>
<polyline fill="none" stroke="black" points="324.5,-381.5 407.5,-381.5 "/>
<text text-anchor="middle" x="366" y="-369.5" font-family="Helvetica,sans-Serif" font-size="10.00"> </text>
<polyline fill="none" stroke="black" points="324.5,-362.5 407.5,-362.5 "/>
<text text-anchor="start" x="332.5" y="-350.5" font-family="Helvetica,sans-Serif" font-size="10.00">+ to_string()</text>
<text text-anchor="start" x="332.5" y="-339.5" font-family="Helvetica,sans-Serif" font-size="10.00">+ to_string()</text>
</a>
</g>
</g>
<!-- Node3&#45;&gt;Node2 -->
<g id="edge2" class="edge">
<title>Node3&#45;&gt;Node2</title>
<path fill="none" stroke="#404040" d="M407.69,-332.41C434.54,-311.1 470.12,-282.86 501.31,-258.1"/>
<polygon fill="none" stroke="#404040" points="501.44,-258 503.65,-251.14 510.84,-250.54 508.63,-257.41 501.44,-258"/>
<text text-anchor="middle" x="464.5" y="-306" font-family="Helvetica,sans-Serif" font-size="10.00"> #_type</text>
</g>
<!-- Node4 -->
<g id="node4" class="node">
<title>Node4</title>
<g id="a_node4"><a xlink:title=" ">
<polygon fill="white" stroke="#bfbfbf" points="0,-448.5 0,-505.5 66,-505.5 66,-448.5 0,-448.5"/>
<text text-anchor="middle" x="33" y="-493.5" font-family="Helvetica,sans-Serif" font-size="10.00">MoveType</text>
<polyline fill="none" stroke="#bfbfbf" points="0,-486.5 66,-486.5 "/>
<text text-anchor="middle" x="33" y="-474.5" font-family="Helvetica,sans-Serif" font-size="10.00"> </text>
<polyline fill="none" stroke="#bfbfbf" points="0,-467.5 66,-467.5 "/>
<text text-anchor="middle" x="33" y="-455.5" font-family="Helvetica,sans-Serif" font-size="10.00"> </text>
</a>
</g>
</g>
<!-- Node4&#45;&gt;Node3 -->
<g id="edge3" class="edge">
<title>Node4&#45;&gt;Node3</title>
<path fill="none" stroke="#404040" d="M46.72,-448.49C53.48,-437.66 62.65,-426.13 74,-419 112.84,-394.6 239.08,-379.22 312.24,-372.12"/>
<polygon fill="none" stroke="#404040" points="312.43,-372.1 318.02,-367.55 324.37,-370.97 318.78,-375.52 312.43,-372.1"/>
<text text-anchor="middle" x="110" y="-422" font-family="Helvetica,sans-Serif" font-size="10.00"> +MoveTypeID</text>
</g>
<!-- Node5 -->
<g id="node5" class="node">
<title>Node5</title>
<g id="a_node5"><a xlink:title=" ">
<polygon fill="white" stroke="#bfbfbf" points="95,-448.5 95,-505.5 159,-505.5 159,-448.5 95,-448.5"/>
<text text-anchor="middle" x="127" y="-493.5" font-family="Helvetica,sans-Serif" font-size="10.00">RuneType</text>
<polyline fill="none" stroke="#bfbfbf" points="95,-486.5 159,-486.5 "/>
<text text-anchor="middle" x="127" y="-474.5" font-family="Helvetica,sans-Serif" font-size="10.00"> </text>
<polyline fill="none" stroke="#bfbfbf" points="95,-467.5 159,-467.5 "/>
<text text-anchor="middle" x="127" y="-455.5" font-family="Helvetica,sans-Serif" font-size="10.00"> </text>
</a>
</g>
</g>
<!-- Node5&#45;&gt;Node3 -->
<g id="edge4" class="edge">
<title>Node5&#45;&gt;Node3</title>
<path fill="none" stroke="#404040" d="M137.44,-448.32C142.72,-437.73 150.14,-426.43 160,-419 204.28,-385.65 267.61,-373.71 312.34,-369.54"/>
<polygon fill="none" stroke="#404040" points="312.47,-369.53 318.12,-365.05 324.43,-368.55 318.77,-373.03 312.47,-369.53"/>
<text text-anchor="middle" x="195" y="-422" font-family="Helvetica,sans-Serif" font-size="10.00"> +RuneTypeID</text>
</g>
<!-- Node6 -->
<g id="node6" class="node">
<title>Node6</title>
<g id="a_node6"><a xlink:title=" ">
<polygon fill="white" stroke="#bfbfbf" points="177.5,-448.5 177.5,-505.5 266.5,-505.5 266.5,-448.5 177.5,-448.5"/>
<text text-anchor="middle" x="222" y="-493.5" font-family="Helvetica,sans-Serif" font-size="10.00">ArmorSizeType</text>
<polyline fill="none" stroke="#bfbfbf" points="177.5,-486.5 266.5,-486.5 "/>
<text text-anchor="middle" x="222" y="-474.5" font-family="Helvetica,sans-Serif" font-size="10.00"> </text>
<polyline fill="none" stroke="#bfbfbf" points="177.5,-467.5 266.5,-467.5 "/>
<text text-anchor="middle" x="222" y="-455.5" font-family="Helvetica,sans-Serif" font-size="10.00"> </text>
</a>
</g>
</g>
<!-- Node6&#45;&gt;Node3 -->
<g id="edge5" class="edge">
<title>Node6&#45;&gt;Node3</title>
<path fill="none" stroke="#404040" d="M226.23,-448.26C228.99,-438.04 233.53,-427.01 241,-419 259.85,-398.8 287.8,-386.28 312.5,-378.66"/>
<polygon fill="none" stroke="#404040" points="312.76,-378.59 317.44,-373.1 324.3,-375.3 319.63,-380.79 312.76,-378.59"/>
<text text-anchor="middle" x="288.5" y="-422" font-family="Helvetica,sans-Serif" font-size="10.00"> +ArmorSizeTypeID</text>
</g>
<!-- Node7 -->
<g id="node7" class="node">
<title>Node7</title>
<g id="a_node7"><a xlink:title=" ">
<polygon fill="white" stroke="#bfbfbf" points="289.5,-448.5 289.5,-505.5 390.5,-505.5 390.5,-448.5 289.5,-448.5"/>
<text text-anchor="middle" x="340" y="-493.5" font-family="Helvetica,sans-Serif" font-size="10.00">CompensateType</text>
<polyline fill="none" stroke="#bfbfbf" points="289.5,-486.5 390.5,-486.5 "/>
<text text-anchor="middle" x="340" y="-474.5" font-family="Helvetica,sans-Serif" font-size="10.00"> </text>
<polyline fill="none" stroke="#bfbfbf" points="289.5,-467.5 390.5,-467.5 "/>
<text text-anchor="middle" x="340" y="-455.5" font-family="Helvetica,sans-Serif" font-size="10.00"> </text>
</a>
</g>
</g>
<!-- Node7&#45;&gt;Node3 -->
<g id="edge6" class="edge">
<title>Node7&#45;&gt;Node3</title>
<path fill="none" stroke="#404040" d="M338.09,-448.44C338.07,-439 338.74,-428.43 341,-419 341.58,-416.58 342.28,-414.15 343.08,-411.72"/>
<polygon fill="none" stroke="#404040" points="343.08,-411.71 341.51,-404.67 347.4,-400.51 348.98,-407.55 343.08,-411.71"/>
<text text-anchor="middle" x="394" y="-422" font-family="Helvetica,sans-Serif" font-size="10.00"> +CompensateTypeID</text>
</g>
<!-- Node8 -->
<g id="node8" class="node">
<title>Node8</title>
<g id="a_node8"><a xlink:title=" ">
<polygon fill="white" stroke="#bfbfbf" points="441,-448.5 441,-505.5 497,-505.5 497,-448.5 441,-448.5"/>
<text text-anchor="middle" x="469" y="-493.5" font-family="Helvetica,sans-Serif" font-size="10.00">TagType</text>
<polyline fill="none" stroke="#bfbfbf" points="441,-486.5 497,-486.5 "/>
<text text-anchor="middle" x="469" y="-474.5" font-family="Helvetica,sans-Serif" font-size="10.00"> </text>
<polyline fill="none" stroke="#bfbfbf" points="441,-467.5 497,-467.5 "/>
<text text-anchor="middle" x="469" y="-455.5" font-family="Helvetica,sans-Serif" font-size="10.00"> </text>
</a>
</g>
</g>
<!-- Node8&#45;&gt;Node3 -->
<g id="edge7" class="edge">
<title>Node8&#45;&gt;Node3</title>
<path fill="none" stroke="#404040" d="M462.24,-448.31C458.84,-438.33 453.92,-427.45 447,-419 439,-409.23 428.63,-400.73 418.01,-393.61"/>
<polygon fill="none" stroke="#404040" points="417.97,-393.59 410.77,-393.78 407.81,-387.2 415.02,-387.01 417.97,-393.59"/>
<text text-anchor="middle" x="484.5" y="-422" font-family="Helvetica,sans-Serif" font-size="10.00"> +TagTypeID</text>
</g>
<!-- Node9 -->
<g id="node9" class="node">
<title>Node9</title>
<g id="a_node9"><a xlink:title=" ">
<polygon fill="white" stroke="#bfbfbf" points="517,-448.5 517,-505.5 585,-505.5 585,-448.5 517,-448.5"/>
<text text-anchor="middle" x="551" y="-493.5" font-family="Helvetica,sans-Serif" font-size="10.00">RobotType</text>
<polyline fill="none" stroke="#bfbfbf" points="517,-486.5 585,-486.5 "/>
<text text-anchor="middle" x="551" y="-474.5" font-family="Helvetica,sans-Serif" font-size="10.00"> </text>
<polyline fill="none" stroke="#bfbfbf" points="517,-467.5 585,-467.5 "/>
<text text-anchor="middle" x="551" y="-455.5" font-family="Helvetica,sans-Serif" font-size="10.00"> </text>
</a>
</g>
</g>
<!-- Node9&#45;&gt;Node3 -->
<g id="edge8" class="edge">
<title>Node9&#45;&gt;Node3</title>
<path fill="none" stroke="#404040" d="M540.61,-448.41C535.49,-437.96 528.36,-426.73 519,-419 499.5,-402.89 488.98,-409.05 465,-401 450.21,-396.03 434.18,-390.62 419.42,-385.62"/>
<polygon fill="none" stroke="#404040" points="419.26,-385.57 412.29,-387.44 407.89,-381.72 414.86,-379.86 419.26,-385.57"/>
<text text-anchor="middle" x="565.5" y="-422" font-family="Helvetica,sans-Serif" font-size="10.00"> +RobotTypeID</text>
</g>
<!-- Node10 -->
<g id="node10" class="node">
<title>Node10</title>
<g id="a_node10"><a xlink:title=" ">
<polygon fill="white" stroke="#bfbfbf" points="603,-448.5 603,-505.5 709,-505.5 709,-448.5 603,-448.5"/>
<text text-anchor="middle" x="656" y="-493.5" font-family="Helvetica,sans-Serif" font-size="10.00">TargetChangeType</text>
<polyline fill="none" stroke="#bfbfbf" points="603,-486.5 709,-486.5 "/>
<text text-anchor="middle" x="656" y="-474.5" font-family="Helvetica,sans-Serif" font-size="10.00"> </text>
<polyline fill="none" stroke="#bfbfbf" points="603,-467.5 709,-467.5 "/>
<text text-anchor="middle" x="656" y="-455.5" font-family="Helvetica,sans-Serif" font-size="10.00"> </text>
</a>
</g>
</g>
<!-- Node10&#45;&gt;Node3 -->
<g id="edge9" class="edge">
<title>Node10&#45;&gt;Node3</title>
<path fill="none" stroke="#404040" d="M638.46,-448.46C630.01,-437.49 618.9,-425.86 606,-419 550.22,-389.33 526.56,-415.2 465,-401 449.93,-397.53 433.93,-392.65 419.28,-387.7"/>
<polygon fill="none" stroke="#404040" points="419.2,-387.67 412.21,-389.48 407.86,-383.73 414.84,-381.92 419.2,-387.67"/>
<text text-anchor="middle" x="678" y="-422" font-family="Helvetica,sans-Serif" font-size="10.00"> +TargetChangeTypeID</text>
</g>
<!-- Node11 -->
<g id="node11" class="node">
<title>Node11</title>
<g id="a_node11"><a xlink:title=" ">
<polygon fill="white" stroke="#bfbfbf" points="474.5,-338 474.5,-395 525.5,-395 525.5,-338 474.5,-338"/>
<text text-anchor="middle" x="500" y="-383" font-family="Helvetica,sans-Serif" font-size="10.00">Point2f</text>
<polyline fill="none" stroke="#bfbfbf" points="474.5,-376 525.5,-376 "/>
<text text-anchor="middle" x="500" y="-364" font-family="Helvetica,sans-Serif" font-size="10.00"> </text>
<polyline fill="none" stroke="#bfbfbf" points="474.5,-357 525.5,-357 "/>
<text text-anchor="middle" x="500" y="-345" font-family="Helvetica,sans-Serif" font-size="10.00"> </text>
</a>
</g>
</g>
<!-- Node11&#45;&gt;Node2 -->
<g id="edge10" class="edge">
<title>Node11&#45;&gt;Node2</title>
<path fill="none" stroke="#404040" d="M507.79,-337.76C511.16,-326.79 515.38,-314.16 520,-303 520.97,-300.65 521.98,-298.28 523.01,-295.9"/>
<polygon fill="none" stroke="#404040" points="523.12,-295.66 521.93,-288.55 528.04,-284.71 529.23,-291.82 523.12,-295.66"/>
<text text-anchor="middle" x="544" y="-306" font-family="Helvetica,sans-Serif" font-size="10.00"> #_center</text>
</g>
<!-- Node12 -->
<g id="node12" class="node">
<title>Node12</title>
<g id="a_node12"><a xlink:title=" ">
<polygon fill="white" stroke="#bfbfbf" points="544,-338 544,-395 600,-395 600,-338 544,-338"/>
<text text-anchor="middle" x="572" y="-383" font-family="Helvetica,sans-Serif" font-size="10.00">uint32_t</text>
<polyline fill="none" stroke="#bfbfbf" points="544,-376 600,-376 "/>
<text text-anchor="middle" x="572" y="-364" font-family="Helvetica,sans-Serif" font-size="10.00"> </text>
<polyline fill="none" stroke="#bfbfbf" points="544,-357 600,-357 "/>
<text text-anchor="middle" x="572" y="-345" font-family="Helvetica,sans-Serif" font-size="10.00"> </text>
</a>
</g>
</g>
<!-- Node12&#45;&gt;Node2 -->
<g id="edge11" class="edge">
<title>Node12&#45;&gt;Node2</title>
<path fill="none" stroke="#404040" d="M572,-337.76C572,-326.05 572,-311.65 572,-296.66"/>
<polygon fill="none" stroke="#404040" points="572,-296.55 568,-290.55 572,-284.55 576,-290.55 572,-296.55"/>
<text text-anchor="middle" x="610" y="-306" font-family="Helvetica,sans-Serif" font-size="10.00"> #_vanish_num</text>
</g>
<!-- Node13 -->
<g id="node13" class="node">
<title>Node13</title>
<g id="a_node13"><a xlink:title=" ">
<polygon fill="white" stroke="#bfbfbf" points="652,-338 652,-395 690,-395 690,-338 652,-338"/>
<text text-anchor="middle" x="671" y="-383" font-family="Helvetica,sans-Serif" font-size="10.00">bool</text>
<polyline fill="none" stroke="#bfbfbf" points="652,-376 690,-376 "/>
<text text-anchor="middle" x="671" y="-364" font-family="Helvetica,sans-Serif" font-size="10.00"> </text>
<polyline fill="none" stroke="#bfbfbf" points="652,-357 690,-357 "/>
<text text-anchor="middle" x="671" y="-345" font-family="Helvetica,sans-Serif" font-size="10.00"> </text>
</a>
</g>
</g>
<!-- Node13&#45;&gt;Node2 -->
<g id="edge12" class="edge">
<title>Node13&#45;&gt;Node2</title>
<path fill="none" stroke="#404040" d="M663.36,-337.95C659.74,-326.76 654.9,-313.93 649,-303 646.13,-297.68 642.99,-292.34 639.67,-287.05"/>
<polygon fill="none" stroke="#404040" points="639.64,-287 633.01,-284.15 633.09,-276.94 639.72,-279.79 639.64,-287"/>
<text text-anchor="middle" x="687.5" y="-306" font-family="Helvetica,sans-Serif" font-size="10.00"> #_is_tracked</text>
</g>
<!-- Node14 -->
<g id="node14" class="node">
<title>Node14</title>
<g id="a_node14"><a xlink:title=" ">
<polygon fill="white" stroke="#bfbfbf" points="732.5,-332.5 732.5,-400.5 845.5,-400.5 845.5,-332.5 732.5,-332.5"/>
<text text-anchor="start" x="740.5" y="-388.5" font-family="Helvetica,sans-Serif" font-size="10.00">std::vector&lt; tracker</text>
<text text-anchor="middle" x="789" y="-377.5" font-family="Helvetica,sans-Serif" font-size="10.00">::ptr &gt;</text>
<polyline fill="none" stroke="#bfbfbf" points="732.5,-370.5 845.5,-370.5 "/>
<text text-anchor="middle" x="789" y="-358.5" font-family="Helvetica,sans-Serif" font-size="10.00"> </text>
<polyline fill="none" stroke="#bfbfbf" points="732.5,-351.5 845.5,-351.5 "/>
<text text-anchor="middle" x="789" y="-339.5" font-family="Helvetica,sans-Serif" font-size="10.00"> </text>
</a>
</g>
</g>
<!-- Node14&#45;&gt;Node2 -->
<g id="edge13" class="edge">
<title>Node14&#45;&gt;Node2</title>
<path fill="none" stroke="#404040" d="M757.55,-332.45C747.52,-322.56 736.12,-311.97 725,-303 699.52,-282.45 669.81,-262.12 643.4,-245.13"/>
<polygon fill="none" stroke="#404040" points="643.19,-245 635.98,-245.15 633.07,-238.56 640.28,-238.4 643.19,-245"/>
<text text-anchor="middle" x="765" y="-306" font-family="Helvetica,sans-Serif" font-size="10.00"> #_trackers</text>
</g>
<!-- Node15 -->
<g id="node15" class="node">
<title>Node15</title>
<g id="a_node15"><a xlink:title=" ">
<polygon fill="white" stroke="#bfbfbf" points="729,-448.5 729,-505.5 847,-505.5 847,-448.5 729,-448.5"/>
<text text-anchor="middle" x="788" y="-493.5" font-family="Helvetica,sans-Serif" font-size="10.00">std::shared_ptr&lt; T &gt;</text>
<polyline fill="none" stroke="#bfbfbf" points="729,-486.5 847,-486.5 "/>
<text text-anchor="middle" x="788" y="-474.5" font-family="Helvetica,sans-Serif" font-size="10.00"> </text>
<polyline fill="none" stroke="#bfbfbf" points="729,-467.5 847,-467.5 "/>
<text text-anchor="start" x="737" y="-455.5" font-family="Helvetica,sans-Serif" font-size="10.00">+ operator&#45;&gt;()</text>
</a>
</g>
</g>
<!-- Node15&#45;&gt;Node14 -->
<g id="edge14" class="edge">
<title>Node15&#45;&gt;Node14</title>
<path fill="none" stroke="#404040" d="M788.25,-448.34C788.35,-437.53 788.47,-424.85 788.58,-412.77"/>
<polygon fill="none" stroke="#404040" points="788.58,-412.52 784.64,-406.48 788.7,-400.52 792.64,-406.56 788.58,-412.52"/>
<text text-anchor="middle" x="818" y="-422" font-family="Helvetica,sans-Serif" font-size="10.00"> +elements</text>
</g>
<!-- Node16 -->
<g id="node16" class="node">
<title>Node16</title>
<g id="a_node16"><a xlink:title=" ">
<polygon fill="white" stroke="#bfbfbf" points="836.5,-553.5 836.5,-610.5 865.5,-610.5 865.5,-553.5 836.5,-553.5"/>
<text text-anchor="middle" x="851" y="-598.5" font-family="Helvetica,sans-Serif" font-size="10.00">T</text>
<polyline fill="none" stroke="#bfbfbf" points="836.5,-591.5 865.5,-591.5 "/>
<text text-anchor="middle" x="851" y="-579.5" font-family="Helvetica,sans-Serif" font-size="10.00"> </text>
<polyline fill="none" stroke="#bfbfbf" points="836.5,-572.5 865.5,-572.5 "/>
<text text-anchor="middle" x="851" y="-560.5" font-family="Helvetica,sans-Serif" font-size="10.00"> </text>
</a>
</g>
</g>
<!-- Node16&#45;&gt;Node15 -->
<g id="edge15" class="edge">
<title>Node16&#45;&gt;Node15</title>
<path fill="none" stroke="#404040" d="M836.39,-557.11C828.99,-545.01 819.82,-530.03 811.47,-516.37"/>
<polygon fill="none" stroke="#404040" points="811.25,-516.01 804.7,-512.98 804.99,-505.77 811.53,-508.8 811.25,-516.01"/>
<text text-anchor="middle" x="834.5" y="-527" font-family="Helvetica,sans-Serif" font-size="10.00"> +ptr</text>
</g>
<!-- Node17 -->
<g id="node17" class="node">
<title>Node17</title>
<g id="a_node17"><a xlink:title=" ">
<polygon fill="white" stroke="#bfbfbf" points="865.5,-448.5 865.5,-505.5 962.5,-505.5 962.5,-448.5 865.5,-448.5"/>
<text text-anchor="middle" x="914" y="-493.5" font-family="Helvetica,sans-Serif" font-size="10.00">std::vector&lt; T &gt;</text>
<polyline fill="none" stroke="#bfbfbf" points="865.5,-486.5 962.5,-486.5 "/>
<text text-anchor="middle" x="914" y="-474.5" font-family="Helvetica,sans-Serif" font-size="10.00"> </text>
<polyline fill="none" stroke="#bfbfbf" points="865.5,-467.5 962.5,-467.5 "/>
<text text-anchor="middle" x="914" y="-455.5" font-family="Helvetica,sans-Serif" font-size="10.00"> </text>
</a>
</g>
</g>
<!-- Node16&#45;&gt;Node17 -->
<g id="edge17" class="edge">
<title>Node16&#45;&gt;Node17</title>
<path fill="none" stroke="#404040" d="M865.61,-557.11C873.01,-545.01 882.18,-530.03 890.53,-516.37"/>
<polygon fill="none" stroke="#404040" points="890.75,-516.01 890.47,-508.8 897.01,-505.77 897.3,-512.98 890.75,-516.01"/>
<text text-anchor="middle" x="914" y="-527" font-family="Helvetica,sans-Serif" font-size="10.00"> +elements</text>
</g>
<!-- Node17&#45;&gt;Node14 -->
<g id="edge16" class="edge">
<title>Node17&#45;&gt;Node14</title>
<path fill="none" stroke="orange" d="M876.6,-441.69C868.23,-434.15 859.36,-426.25 851,-419 844.13,-413.04 836.75,-406.79 829.56,-400.78"/>
<polygon fill="orange" stroke="orange" points="874.35,-444.37 884.11,-448.48 879.04,-439.18 874.35,-444.37"/>
<text text-anchor="middle" x="903.5" y="-422" font-family="Helvetica,sans-Serif" font-size="10.00"> &lt; tracker::ptr &gt;</text>
</g>
</g>
</svg>
