<?xml version="1.0" encoding="UTF-8" standalone="no"?>
<!DOCTYPE svg PUBLIC "-//W3C//DTD SVG 1.1//EN"
 "http://www.w3.org/Graphics/SVG/1.1/DTD/svg11.dtd">
<!-- Generated by graphviz version 2.43.0 (0)
 -->
<!-- Title: rm::RungeKutta2 Pages: 1 -->
<svg width="564pt" height="664pt"
 viewBox="0.00 0.00 563.50 664.00" xmlns="http://www.w3.org/2000/svg" xmlns:xlink="http://www.w3.org/1999/xlink">
<g id="graph0" class="graph" transform="scale(1 1) rotate(0) translate(4 660)">
<title>rm::RungeKutta2</title>
<!-- Node1 -->
<g id="Node000001" class="node">
<title>Node1</title>
<g id="a_Node000001"><a xlink:title="2 阶 2 级 Runge&#45;Kutta 求解器">
<polygon fill="#999999" stroke="transparent" points="330,-49 245,-49 245,0 330,0 330,-49"/>
<text text-anchor="start" x="250.5" y="-36.5" font-family="Helvetica,sans-Serif" font-size="10.00">rm::RungeKutta2</text>
<text text-anchor="start" x="286" y="-21.5" font-family="Helvetica,sans-Serif" font-size="10.00"> </text>
<text text-anchor="start" x="250" y="-6.5" font-family="Helvetica,sans-Serif" font-size="10.00">+</text>
<text text-anchor="start" x="261.5" y="-6.5" font-family="Helvetica,sans-Serif" font-size="10.00">RungeKutta2()</text>
<polygon fill="#666666" stroke="#666666" points="245.5,-31.5 245.5,-31.5 330.5,-31.5 330.5,-31.5 245.5,-31.5"/>
<polygon fill="#666666" stroke="#666666" points="245.5,-16.5 245.5,-16.5 330.5,-16.5 330.5,-16.5 245.5,-16.5"/>
<polygon fill="none" stroke="#666666" points="245,0 245,-49 330,-49 330,0 245,0"/>
</a>
</g>
</g>
<!-- Node2 -->
<g id="Node000002" class="node">
<title>Node2</title>
<g id="a_Node000002"><a xlink:href="../../d5/d26/classrm_1_1RungeKutta.html" target="_top" xlink:title="Butcher 表形式的常微分方程（组）数值求解器">
<polygon fill="white" stroke="transparent" points="327.5,-195 247.5,-195 247.5,-86 327.5,-86 327.5,-195"/>
<text text-anchor="start" x="252.5" y="-182.5" font-family="Helvetica,sans-Serif" font-size="10.00">rm::RungeKutta</text>
<text text-anchor="start" x="285.5" y="-167.5" font-family="Helvetica,sans-Serif" font-size="10.00"> </text>
<text text-anchor="start" x="252" y="-152.5" font-family="Helvetica,sans-Serif" font-size="10.00">+</text>
<text text-anchor="start" x="263.5" y="-152.5" font-family="Helvetica,sans-Serif" font-size="10.00">RungeKutta()</text>
<text text-anchor="start" x="252" y="-137.5" font-family="Helvetica,sans-Serif" font-size="10.00">+</text>
<text text-anchor="start" x="263.5" y="-137.5" font-family="Helvetica,sans-Serif" font-size="10.00">init()</text>
<text text-anchor="start" x="252" y="-122.5" font-family="Helvetica,sans-Serif" font-size="10.00">+</text>
<text text-anchor="start" x="263.5" y="-122.5" font-family="Helvetica,sans-Serif" font-size="10.00">init()</text>
<text text-anchor="start" x="252" y="-107.5" font-family="Helvetica,sans-Serif" font-size="10.00">+</text>
<text text-anchor="start" x="263.5" y="-107.5" font-family="Helvetica,sans-Serif" font-size="10.00">solve()</text>
<text text-anchor="start" x="252" y="-92.5" font-family="Helvetica,sans-Serif" font-size="10.00">+</text>
<text text-anchor="start" x="263.5" y="-92.5" font-family="Helvetica,sans-Serif" font-size="10.00">generate()</text>
<polygon fill="#666666" stroke="#666666" points="247.5,-177.5 247.5,-177.5 327.5,-177.5 327.5,-177.5 247.5,-177.5"/>
<polygon fill="#666666" stroke="#666666" points="247.5,-162.5 247.5,-162.5 327.5,-162.5 327.5,-162.5 247.5,-162.5"/>
<polygon fill="none" stroke="#666666" points="247.5,-86 247.5,-195 327.5,-195 327.5,-86 247.5,-86"/>
</a>
</g>
</g>
<!-- Node2&#45;&gt;Node1 -->
<g id="edge1_Node000001_Node000002" class="edge">
<title>Node2&#45;&gt;Node1</title>
<g id="a_edge1_Node000001_Node000002"><a xlink:title=" ">
<path fill="none" stroke="#63b8ff" d="M287.5,-75.83C287.5,-66.28 287.5,-56.97 287.5,-49.02"/>
<polygon fill="none" stroke="#63b8ff" points="284,-75.84 287.5,-85.84 291,-75.84 284,-75.84"/>
</a>
</g>
</g>
<!-- Node3 -->
<g id="Node000003" class="node">
<title>Node3</title>
<g id="a_Node000003"><a xlink:title=" ">
<polygon fill="white" stroke="transparent" points="193.5,-420 67.5,-420 67.5,-349 193.5,-349 193.5,-420"/>
<text text-anchor="start" x="72.5" y="-407.5" font-family="Helvetica,sans-Serif" font-size="10.00">std::vector&lt; std::function</text>
<text text-anchor="start" x="72.5" y="-396.5" font-family="Helvetica,sans-Serif" font-size="10.00">&lt; double(double, const std</text>
<text text-anchor="start" x="73" y="-385.5" font-family="Helvetica,sans-Serif" font-size="10.00">::valarray&lt; double &gt; &amp;)&gt; &gt;</text>
<text text-anchor="start" x="128.5" y="-370.5" font-family="Helvetica,sans-Serif" font-size="10.00"> </text>
<text text-anchor="start" x="128.5" y="-355.5" font-family="Helvetica,sans-Serif" font-size="10.00"> </text>
<polygon fill="#666666" stroke="#666666" points="67.5,-380.5 67.5,-380.5 193.5,-380.5 193.5,-380.5 67.5,-380.5"/>
<polygon fill="#666666" stroke="#666666" points="67.5,-365.5 67.5,-365.5 193.5,-365.5 193.5,-365.5 67.5,-365.5"/>
<polygon fill="none" stroke="#666666" points="67.5,-349 67.5,-420 193.5,-420 193.5,-349 67.5,-349"/>
</a>
</g>
</g>
<!-- Node3&#45;&gt;Node2 -->
<g id="edge2_Node000002_Node000003" class="edge">
<title>Node3&#45;&gt;Node2</title>
<g id="a_edge2_Node000002_Node000003"><a xlink:title=" ">
<path fill="none" stroke="#63b8ff" d="M152.99,-348.83C177.19,-311.53 216.21,-251.38 246.01,-205.46"/>
<polygon fill="none" stroke="#63b8ff" points="246.07,-205.37 245.98,-198.16 252.6,-195.3 252.69,-202.51 246.07,-205.37"/>
</a>
</g>
<text text-anchor="middle" x="233.5" y="-269.5" font-family="Helvetica,sans-Serif" font-size="10.00" fill="grey"> #_fs</text>
</g>
<!-- Node4 -->
<g id="Node000004" class="node">
<title>Node4</title>
<g id="a_Node000004"><a xlink:title=" ">
<polygon fill="white" stroke="transparent" points="117,-560 0,-560 0,-489 117,-489 117,-560"/>
<text text-anchor="start" x="5.5" y="-547.5" font-family="Helvetica,sans-Serif" font-size="10.00">function&lt; double(double,</text>
<text text-anchor="start" x="5.5" y="-536.5" font-family="Helvetica,sans-Serif" font-size="10.00"> const std::valarray&lt;</text>
<text text-anchor="start" x="29" y="-525.5" font-family="Helvetica,sans-Serif" font-size="10.00"> double &gt; &amp;)&gt;</text>
<text text-anchor="start" x="57" y="-510.5" font-family="Helvetica,sans-Serif" font-size="10.00"> </text>
<text text-anchor="start" x="57" y="-495.5" font-family="Helvetica,sans-Serif" font-size="10.00"> </text>
<polygon fill="#666666" stroke="#666666" points="0.5,-520.5 0.5,-520.5 117.5,-520.5 117.5,-520.5 0.5,-520.5"/>
<polygon fill="#666666" stroke="#666666" points="0.5,-505.5 0.5,-505.5 117.5,-505.5 117.5,-505.5 0.5,-505.5"/>
<polygon fill="none" stroke="#666666" points="0,-489 0,-560 117,-560 117,-489 0,-489"/>
</a>
</g>
</g>
<!-- Node4&#45;&gt;Node3 -->
<g id="edge3_Node000003_Node000004" class="edge">
<title>Node4&#45;&gt;Node3</title>
<g id="a_edge3_Node000003_Node000004"><a xlink:title=" ">
<path fill="none" stroke="#63b8ff" d="M58.42,-488.91C59.68,-472.63 63.12,-453.44 71.5,-438 73.07,-435.11 74.87,-432.29 76.83,-429.57"/>
<polygon fill="none" stroke="#63b8ff" points="76.96,-429.41 77.68,-422.23 84.58,-420.13 83.86,-427.31 76.96,-429.41"/>
</a>
</g>
<text text-anchor="middle" x="96" y="-452" font-family="Helvetica,sans-Serif" font-size="10.00" fill="grey"> +elements</text>
</g>
<!-- Node5 -->
<g id="Node000005" class="node">
<title>Node5</title>
<g id="a_Node000005"><a xlink:title=" ">
<polygon fill="white" stroke="transparent" points="233,-549 152,-549 152,-500 233,-500 233,-549"/>
<text text-anchor="start" x="157.5" y="-536.5" font-family="Helvetica,sans-Serif" font-size="10.00">std::vector&lt; T &gt;</text>
<text text-anchor="start" x="191" y="-521.5" font-family="Helvetica,sans-Serif" font-size="10.00"> </text>
<text text-anchor="start" x="191" y="-506.5" font-family="Helvetica,sans-Serif" font-size="10.00"> </text>
<polygon fill="#666666" stroke="#666666" points="152.5,-531.5 152.5,-531.5 233.5,-531.5 233.5,-531.5 152.5,-531.5"/>
<polygon fill="#666666" stroke="#666666" points="152.5,-516.5 152.5,-516.5 233.5,-516.5 233.5,-516.5 152.5,-516.5"/>
<polygon fill="none" stroke="#666666" points="152,-500 152,-549 233,-549 233,-500 152,-500"/>
</a>
</g>
</g>
<!-- Node5&#45;&gt;Node3 -->
<g id="edge4_Node000003_Node000005" class="edge">
<title>Node5&#45;&gt;Node3</title>
<g id="a_edge4_Node000003_Node000005"><a xlink:title=" ">
<path fill="none" stroke="orange" d="M147.18,-492.66C140.84,-486.27 135.23,-479.01 131.5,-471 124.23,-455.39 123.34,-436.37 124.55,-420.24"/>
<polygon fill="orange" stroke="orange" points="145.15,-495.55 154.88,-499.75 149.89,-490.4 145.15,-495.55"/>
</a>
</g>
<text text-anchor="start" x="131.5" y="-463" font-family="Helvetica,sans-Serif" font-size="10.00" fill="grey"> &lt; std::function&lt; double</text>
<text text-anchor="start" x="131.5" y="-452" font-family="Helvetica,sans-Serif" font-size="10.00" fill="grey">(double, const std::valarray</text>
<text text-anchor="middle" x="191" y="-441" font-family="Helvetica,sans-Serif" font-size="10.00" fill="grey">&lt; double &gt; &amp;)&gt; &gt;</text>
</g>
<!-- Node6 -->
<g id="Node000006" class="node">
<title>Node6</title>
<g id="a_Node000006"><a xlink:title=" ">
<polygon fill="white" stroke="transparent" points="295,-656 278,-656 278,-607 295,-607 295,-656"/>
<text text-anchor="start" x="283.5" y="-643.5" font-family="Helvetica,sans-Serif" font-size="10.00">T</text>
<text text-anchor="start" x="285" y="-628.5" font-family="Helvetica,sans-Serif" font-size="10.00"> </text>
<text text-anchor="start" x="285" y="-613.5" font-family="Helvetica,sans-Serif" font-size="10.00"> </text>
<polygon fill="#666666" stroke="#666666" points="278.5,-638.5 278.5,-638.5 295.5,-638.5 295.5,-638.5 278.5,-638.5"/>
<polygon fill="#666666" stroke="#666666" points="278.5,-623.5 278.5,-623.5 295.5,-623.5 295.5,-623.5 278.5,-623.5"/>
<polygon fill="none" stroke="#666666" points="278,-607 278,-656 295,-656 295,-607 278,-607"/>
</a>
</g>
</g>
<!-- Node6&#45;&gt;Node5 -->
<g id="edge5_Node000005_Node000006" class="edge">
<title>Node6&#45;&gt;Node5</title>
<g id="a_edge5_Node000005_Node000006"><a xlink:title=" ">
<path fill="none" stroke="#63b8ff" d="M277.83,-620.81C265.24,-606.75 241.29,-580 221.97,-558.41"/>
<polygon fill="none" stroke="#63b8ff" points="221.75,-558.17 214.76,-556.37 213.74,-549.23 220.72,-551.03 221.75,-558.17"/>
</a>
</g>
<text text-anchor="middle" x="273" y="-581" font-family="Helvetica,sans-Serif" font-size="10.00" fill="grey"> +elements</text>
</g>
<!-- Node9 -->
<g id="Node000009" class="node">
<title>Node9</title>
<g id="a_Node000009"><a xlink:title=" ">
<polygon fill="white" stroke="transparent" points="414,-549 325,-549 325,-500 414,-500 414,-549"/>
<text text-anchor="start" x="330.5" y="-536.5" font-family="Helvetica,sans-Serif" font-size="10.00">std::valarray&lt; T &gt;</text>
<text text-anchor="start" x="368" y="-521.5" font-family="Helvetica,sans-Serif" font-size="10.00"> </text>
<text text-anchor="start" x="368" y="-506.5" font-family="Helvetica,sans-Serif" font-size="10.00"> </text>
<polygon fill="#666666" stroke="#666666" points="325.5,-531.5 325.5,-531.5 414.5,-531.5 414.5,-531.5 325.5,-531.5"/>
<polygon fill="#666666" stroke="#666666" points="325.5,-516.5 325.5,-516.5 414.5,-516.5 414.5,-516.5 325.5,-516.5"/>
<polygon fill="none" stroke="#666666" points="325,-500 325,-549 414,-549 414,-500 325,-500"/>
</a>
</g>
</g>
<!-- Node6&#45;&gt;Node9 -->
<g id="edge10_Node000009_Node000006" class="edge">
<title>Node6&#45;&gt;Node9</title>
<g id="a_edge10_Node000009_Node000006"><a xlink:title=" ">
<path fill="none" stroke="#63b8ff" d="M295.07,-619.66C306.37,-605.36 326.76,-579.57 343.34,-558.59"/>
<polygon fill="none" stroke="#63b8ff" points="343.44,-558.47 344.02,-551.28 350.88,-549.05 350.3,-556.24 343.44,-558.47"/>
</a>
</g>
<text text-anchor="middle" x="352" y="-581" font-family="Helvetica,sans-Serif" font-size="10.00" fill="grey"> +elements</text>
</g>
<!-- Node7 -->
<g id="Node000007" class="node">
<title>Node7</title>
<g id="a_Node000007"><a xlink:title=" ">
<polygon fill="white" stroke="transparent" points="295,-549 256,-549 256,-500 295,-500 295,-549"/>
<text text-anchor="start" x="261.5" y="-536.5" font-family="Helvetica,sans-Serif" font-size="10.00">double</text>
<text text-anchor="start" x="274" y="-521.5" font-family="Helvetica,sans-Serif" font-size="10.00"> </text>
<text text-anchor="start" x="274" y="-506.5" font-family="Helvetica,sans-Serif" font-size="10.00"> </text>
<polygon fill="#666666" stroke="#666666" points="256.5,-531.5 256.5,-531.5 295.5,-531.5 295.5,-531.5 256.5,-531.5"/>
<polygon fill="#666666" stroke="#666666" points="256.5,-516.5 256.5,-516.5 295.5,-516.5 295.5,-516.5 256.5,-516.5"/>
<polygon fill="none" stroke="#666666" points="256,-500 256,-549 295,-549 295,-500 256,-500"/>
</a>
</g>
</g>
<!-- Node7&#45;&gt;Node2 -->
<g id="edge6_Node000002_Node000007" class="edge">
<title>Node7&#45;&gt;Node2</title>
<g id="a_edge6_Node000002_Node000007"><a xlink:title=" ">
<path fill="none" stroke="#63b8ff" d="M276.24,-499.89C278.05,-442.47 282.71,-293.85 285.44,-207.1"/>
<polygon fill="none" stroke="#63b8ff" points="285.44,-207.02 281.63,-200.89 285.82,-195.02 289.63,-201.15 285.44,-207.02"/>
</a>
</g>
<text text-anchor="middle" x="293.5" y="-323" font-family="Helvetica,sans-Serif" font-size="10.00" fill="grey"> #_t0</text>
</g>
<!-- Node8 -->
<g id="Node000008" class="node">
<title>Node8</title>
<g id="a_Node000008"><a xlink:title=" ">
<polygon fill="white" stroke="transparent" points="404,-409 293,-409 293,-360 404,-360 404,-409"/>
<text text-anchor="start" x="298.5" y="-396.5" font-family="Helvetica,sans-Serif" font-size="10.00">std::valarray&lt; double &gt;</text>
<text text-anchor="start" x="347" y="-381.5" font-family="Helvetica,sans-Serif" font-size="10.00"> </text>
<text text-anchor="start" x="347" y="-366.5" font-family="Helvetica,sans-Serif" font-size="10.00"> </text>
<polygon fill="#666666" stroke="#666666" points="293.5,-391.5 293.5,-391.5 404.5,-391.5 404.5,-391.5 293.5,-391.5"/>
<polygon fill="#666666" stroke="#666666" points="293.5,-376.5 293.5,-376.5 404.5,-376.5 404.5,-376.5 293.5,-376.5"/>
<polygon fill="none" stroke="#666666" points="293,-360 293,-409 404,-409 404,-360 293,-360"/>
</a>
</g>
</g>
<!-- Node7&#45;&gt;Node8 -->
<g id="edge8_Node000008_Node000007" class="edge">
<title>Node7&#45;&gt;Node8</title>
<g id="a_edge8_Node000008_Node000007"><a xlink:title=" ">
<path fill="none" stroke="#63b8ff" d="M280.55,-499.98C284.99,-482.2 292.47,-457.6 303.5,-438 307.29,-431.27 312.01,-424.61 316.96,-418.41"/>
<polygon fill="none" stroke="#63b8ff" points="317.09,-418.26 317.9,-411.1 324.83,-409.09 324.01,-416.26 317.09,-418.26"/>
</a>
</g>
<text text-anchor="middle" x="328" y="-452" font-family="Helvetica,sans-Serif" font-size="10.00" fill="grey"> +elements</text>
</g>
<!-- Node8&#45;&gt;Node2 -->
<g id="edge7_Node000002_Node000008" class="edge">
<title>Node8&#45;&gt;Node2</title>
<g id="a_edge7_Node000002_Node000008"><a xlink:title=" ">
<path fill="none" stroke="#63b8ff" d="M339.48,-359.86C333.54,-343.72 325.9,-321.77 320.5,-302 312.07,-271.15 304.67,-236.43 299.04,-207.2"/>
<polygon fill="none" stroke="#63b8ff" points="298.97,-206.83 293.92,-201.68 296.73,-195.04 301.78,-200.19 298.97,-206.83"/>
</a>
</g>
<text text-anchor="middle" x="343.5" y="-280.5" font-family="Helvetica,sans-Serif" font-size="10.00" fill="grey"> #_lambda</text>
<text text-anchor="middle" x="343.5" y="-269.5" font-family="Helvetica,sans-Serif" font-size="10.00" fill="grey">#_p</text>
<text text-anchor="middle" x="343.5" y="-258.5" font-family="Helvetica,sans-Serif" font-size="10.00" fill="grey">#_x0</text>
</g>
<!-- Node10 -->
<g id="Node000010" class="node">
<title>Node10</title>
<g id="a_Node000010"><a xlink:title=" ">
<polygon fill="white" stroke="transparent" points="482,-302 375,-302 375,-242 482,-242 482,-302"/>
<text text-anchor="start" x="380.5" y="-290" font-family="Helvetica,sans-Serif" font-size="10.00">std::valarray&lt; std</text>
<text text-anchor="start" x="380.5" y="-279" font-family="Helvetica,sans-Serif" font-size="10.00">::valarray&lt; double &gt; &gt;</text>
<text text-anchor="start" x="427" y="-264" font-family="Helvetica,sans-Serif" font-size="10.00"> </text>
<text text-anchor="start" x="427" y="-249" font-family="Helvetica,sans-Serif" font-size="10.00"> </text>
<polygon fill="#666666" stroke="#666666" points="375.5,-274 375.5,-274 482.5,-274 482.5,-274 375.5,-274"/>
<polygon fill="#666666" stroke="#666666" points="375.5,-259 375.5,-259 482.5,-259 482.5,-259 375.5,-259"/>
<polygon fill="none" stroke="#666666" points="375,-242 375,-302 482,-302 482,-242 375,-242"/>
</a>
</g>
</g>
<!-- Node8&#45;&gt;Node10 -->
<g id="edge12_Node000010_Node000008" class="edge">
<title>Node8&#45;&gt;Node10</title>
<g id="a_edge12_Node000010_Node000008"><a xlink:title=" ">
<path fill="none" stroke="#63b8ff" d="M356.64,-359.97C361.6,-347.45 368.68,-332.17 377.5,-320 379.69,-316.98 382.1,-314 384.64,-311.1"/>
<polygon fill="none" stroke="#63b8ff" points="384.87,-310.86 386.07,-303.75 393.1,-302.13 391.89,-309.24 384.87,-310.86"/>
</a>
</g>
<text text-anchor="middle" x="402" y="-323" font-family="Helvetica,sans-Serif" font-size="10.00" fill="grey"> +elements</text>
</g>
<!-- Node9&#45;&gt;Node8 -->
<g id="edge9_Node000008_Node000009" class="edge">
<title>Node9&#45;&gt;Node8</title>
<g id="a_edge9_Node000008_Node000009"><a xlink:title=" ">
<path fill="none" stroke="orange" d="M364.35,-489.67C360.56,-464.78 355.51,-431.54 352.13,-409.38"/>
<polygon fill="orange" stroke="orange" points="360.93,-490.42 365.89,-499.78 367.85,-489.36 360.93,-490.42"/>
</a>
</g>
<text text-anchor="middle" x="385.5" y="-452" font-family="Helvetica,sans-Serif" font-size="10.00" fill="grey"> &lt; double &gt;</text>
</g>
<!-- Node9&#45;&gt;Node10 -->
<g id="edge13_Node000010_Node000009" class="edge">
<title>Node9&#45;&gt;Node10</title>
<g id="a_edge13_Node000010_Node000009"><a xlink:title=" ">
<path fill="none" stroke="orange" d="M401.83,-491.98C406.85,-485.5 411.4,-478.39 414.5,-471 438.02,-414.91 435.76,-342.04 432.09,-302.2"/>
<polygon fill="orange" stroke="orange" points="399.01,-489.89 395.28,-499.8 404.38,-494.38 399.01,-489.89"/>
</a>
</g>
<text text-anchor="middle" x="494.5" y="-382" font-family="Helvetica,sans-Serif" font-size="10.00" fill="grey"> &lt; std::valarray&lt; double &gt; &gt;</text>
</g>
<!-- Node10&#45;&gt;Node2 -->
<g id="edge11_Node000002_Node000010" class="edge">
<title>Node10&#45;&gt;Node2</title>
<g id="a_edge11_Node000002_Node000010"><a xlink:title=" ">
<path fill="none" stroke="#63b8ff" d="M396.86,-241.94C379.11,-225.64 356.59,-204.96 336.61,-186.6"/>
<polygon fill="none" stroke="#63b8ff" points="336.47,-186.47 329.34,-185.36 327.63,-178.36 334.76,-179.47 336.47,-186.47"/>
</a>
</g>
<text text-anchor="middle" x="383" y="-216" font-family="Helvetica,sans-Serif" font-size="10.00" fill="grey"> #_r</text>
</g>
</g>
</svg>
