<?xml version="1.0" encoding="UTF-8" standalone="no"?>
<!DOCTYPE svg PUBLIC "-//W3C//DTD SVG 1.1//EN"
 "http://www.w3.org/Graphics/SVG/1.1/DTD/svg11.dtd">
<!-- Generated by graphviz version 2.43.0 (0)
 -->
<!-- Title: rm::RuneGroup Pages: 1 -->
<!--zoomable 806 -->

<svg id="main" version="1.1" xmlns="http://www.w3.org/2000/svg" xmlns:xlink="http://www.w3.org/1999/xlink" xml:space="preserve" onload="init(evt)">

<style type="text/css"><![CDATA[
.node, .edge {opacity: 0.7;}
.node.selected, .edge.selected {opacity: 1;}
.edge:hover path { stroke: red; }
.edge:hover polygon { stroke: red; fill: red; }
]]></style>

<defs>
  <circle id="rim" cx="0" cy="0" r="7"/>
  <circle id="rim2" cx="0" cy="0" r="3.5"/>
  <g id="zoomPlus">
    <use xlink:href="#rim" fill="#404040"><set attributeName="fill" to="#808080" begin="zoomplus.mouseover" end="zoomplus.mouseout"/></use>
    <path d="M-4,0h8M0,-4v8" fill="none" stroke="white" stroke-width="1.5" pointer-events="none"/>
  </g>
  <g id="zoomMin">
    <use xlink:href="#rim" fill="#404040"><set attributeName="fill" to="#808080" begin="zoomminus.mouseover" end="zoomminus.mouseout"/></use>
    <path d="M-4,0h8" fill="none" stroke="white" stroke-width="1.5" pointer-events="none"/>
  </g>
  <g id="arrowUp" transform="translate(30 24)">
    <use xlink:href="#rim"/>
    <path pointer-events="none" fill="none" stroke="white" stroke-width="1.5" d="M0,-3.0v7 M-2.5,-0.5L0,-3.0L2.5,-0.5"/>
  </g>
  <g id="arrowRight" transform="rotate(90) translate(36 -43)">
    <use xlink:href="#rim"/>
    <path pointer-events="none" fill="none" stroke="white" stroke-width="1.5" d="M0,-3.0v7 M-2.5,-0.5L0,-3.0L2.5,-0.5"/>
  </g>
  <g id="arrowDown" transform="rotate(180) translate(-30 -48)">
    <use xlink:href="#rim"/>
    <path pointer-events="none" fill="none" stroke="white" stroke-width="1.5" d="M0,-3.0v7 M-2.5,-0.5L0,-3.0L2.5,-0.5"/>
  </g>
  <g id="arrowLeft" transform="rotate(270) translate(-36 17)">
    <use xlink:href="#rim"/>
    <path pointer-events="none" fill="none" stroke="white" stroke-width="1.5" d="M0,-3.0v7 M-2.5,-0.5L0,-3.0L2.5,-0.5"/>
  </g>
  <g id="resetDef">
    <use xlink:href="#rim2" fill="#404040"><set attributeName="fill" to="#808080" begin="reset.mouseover" end="reset.mouseout"/></use>
  </g>
</defs>
<script type="application/ecmascript">
var viewWidth = 519;
var viewHeight = 806;
var sectionId = 'dynsection-1';
</script>
<script type="application/ecmascript" xlink:href="../../svg.min.js"/>
<svg id="graph" class="graph">
<g id="viewport">
<title>rm::RuneGroup</title>
<!-- Node1 -->
<g id="Node000001" class="node">
<title>Node1</title>
<g id="a_Node000001"><a xlink:title="神符序列组">
<polygon fill="#999999" stroke="transparent" points="327,-94 233,-94 233,0 327,0 327,-94"/>
<text text-anchor="start" x="243" y="-82" font-family="Helvetica,sans-Serif" font-size="10.00">rm::RuneGroup</text>
<text text-anchor="start" x="278" y="-67" font-family="Helvetica,sans-Serif" font-size="10.00"> </text>
<text text-anchor="start" x="237" y="-52" font-family="Helvetica,sans-Serif" font-size="10.00">+</text>
<text text-anchor="start" x="250" y="-52" font-family="Helvetica,sans-Serif" font-size="10.00">clone()</text>
<text text-anchor="start" x="237" y="-37" font-family="Helvetica,sans-Serif" font-size="10.00">+</text>
<text text-anchor="start" x="250" y="-37" font-family="Helvetica,sans-Serif" font-size="10.00">sync()</text>
<text text-anchor="start" x="237" y="-22" font-family="Helvetica,sans-Serif" font-size="10.00">+</text>
<text text-anchor="start" x="250" y="-22" font-family="Helvetica,sans-Serif" font-size="10.00">getRawDatas()</text>
<text text-anchor="start" x="237" y="-7" font-family="Helvetica,sans-Serif" font-size="10.00">+</text>
<text text-anchor="start" x="250" y="-7" font-family="Helvetica,sans-Serif" font-size="10.00">make_group()</text>
<polygon fill="#666666" stroke="#666666" points="233,-77 233,-77 327,-77 327,-77 233,-77"/>
<polygon fill="#666666" stroke="#666666" points="233,-62 233,-62 327,-62 327,-62 233,-62"/>
<polygon fill="none" stroke="#666666" points="233,0 233,-94 327,-94 327,0 233,0"/>
</a>
</g>
</g>
<!-- Node2 -->
<g id="Node000002" class="node">
<title>Node2</title>
<g id="a_Node000002"><a xlink:href="../../d6/d6c/classrm_1_1group.html" target="_top" xlink:title="相关追踪器的空间集合（序列组）">
<polygon fill="white" stroke="transparent" points="338,-345 222,-345 222,-131 338,-131 338,-345"/>
<text text-anchor="start" x="256" y="-333" font-family="Helvetica,sans-Serif" font-size="10.00">rm::group</text>
<text text-anchor="start" x="278" y="-318" font-family="Helvetica,sans-Serif" font-size="10.00"> </text>
<text text-anchor="start" x="226" y="-303" font-family="Helvetica,sans-Serif" font-size="10.00">+</text>
<text text-anchor="start" x="239" y="-303" font-family="Helvetica,sans-Serif" font-size="10.00">clone()</text>
<text text-anchor="start" x="226" y="-288" font-family="Helvetica,sans-Serif" font-size="10.00">+</text>
<text text-anchor="start" x="239" y="-288" font-family="Helvetica,sans-Serif" font-size="10.00">sync()</text>
<text text-anchor="start" x="226" y="-273" font-family="Helvetica,sans-Serif" font-size="10.00">+</text>
<text text-anchor="start" x="239" y="-273" font-family="Helvetica,sans-Serif" font-size="10.00">add()</text>
<text text-anchor="start" x="226" y="-258" font-family="Helvetica,sans-Serif" font-size="10.00">+</text>
<text text-anchor="start" x="239" y="-258" font-family="Helvetica,sans-Serif" font-size="10.00">invalid()</text>
<text text-anchor="start" x="226" y="-243" font-family="Helvetica,sans-Serif" font-size="10.00">+</text>
<text text-anchor="start" x="239" y="-243" font-family="Helvetica,sans-Serif" font-size="10.00">data()</text>
<text text-anchor="start" x="226" y="-228" font-family="Helvetica,sans-Serif" font-size="10.00">+</text>
<text text-anchor="start" x="239" y="-228" font-family="Helvetica,sans-Serif" font-size="10.00">size()</text>
<text text-anchor="start" x="226" y="-213" font-family="Helvetica,sans-Serif" font-size="10.00">+</text>
<text text-anchor="start" x="239" y="-213" font-family="Helvetica,sans-Serif" font-size="10.00">empty()</text>
<text text-anchor="start" x="226" y="-198" font-family="Helvetica,sans-Serif" font-size="10.00">+</text>
<text text-anchor="start" x="239" y="-198" font-family="Helvetica,sans-Serif" font-size="10.00">at()</text>
<text text-anchor="start" x="226" y="-183" font-family="Helvetica,sans-Serif" font-size="10.00">+</text>
<text text-anchor="start" x="239" y="-183" font-family="Helvetica,sans-Serif" font-size="10.00">center()</text>
<text text-anchor="start" x="226" y="-168" font-family="Helvetica,sans-Serif" font-size="10.00">+</text>
<text text-anchor="start" x="239" y="-168" font-family="Helvetica,sans-Serif" font-size="10.00">getVanishNumber()</text>
<text text-anchor="start" x="226" y="-153" font-family="Helvetica,sans-Serif" font-size="10.00">+</text>
<text text-anchor="start" x="239" y="-153" font-family="Helvetica,sans-Serif" font-size="10.00">state()</text>
<text text-anchor="start" x="226" y="-138" font-family="Helvetica,sans-Serif" font-size="10.00">+</text>
<text text-anchor="start" x="239" y="-138" font-family="Helvetica,sans-Serif" font-size="10.00">state()</text>
<polygon fill="#666666" stroke="#666666" points="222,-328 222,-328 338,-328 338,-328 222,-328"/>
<polygon fill="#666666" stroke="#666666" points="222,-313 222,-313 338,-313 338,-313 222,-313"/>
<polygon fill="none" stroke="#666666" points="222,-131 222,-345 338,-345 338,-131 222,-131"/>
</a>
</g>
</g>
<!-- Node2&#45;&gt;Node1 -->
<g id="edge1_Node000001_Node000002" class="edge">
<title>Node2&#45;&gt;Node1</title>
<g id="a_edge1_Node000001_Node000002"><a xlink:title=" ">
<path fill="none" stroke="#63b8ff" d="M280,-120.78C280,-111.55 280,-102.62 280,-94.35"/>
<polygon fill="none" stroke="#63b8ff" points="276.5,-120.9 280,-130.9 283.5,-120.9 276.5,-120.9"/>
</a>
</g>
</g>
<!-- Node3 -->
<g id="Node000003" class="node">
<title>Node3</title>
<g id="a_Node000003"><a xlink:title=" ">
<polygon fill="white" stroke="transparent" points="168.5,-529 61.5,-529 61.5,-469 168.5,-469 168.5,-529"/>
<text text-anchor="start" x="67" y="-517" font-family="Helvetica,sans-Serif" font-size="10.00">std::vector&lt; tracker</text>
<text text-anchor="start" x="100" y="-506" font-family="Helvetica,sans-Serif" font-size="10.00">::ptr &gt;</text>
<text text-anchor="start" x="113.5" y="-491" font-family="Helvetica,sans-Serif" font-size="10.00"> </text>
<text text-anchor="start" x="113.5" y="-476" font-family="Helvetica,sans-Serif" font-size="10.00"> </text>
<polygon fill="#666666" stroke="#666666" points="62,-501 62,-501 169,-501 169,-501 62,-501"/>
<polygon fill="#666666" stroke="#666666" points="62,-486 62,-486 169,-486 169,-486 62,-486"/>
<polygon fill="none" stroke="#666666" points="61.5,-469 61.5,-529 168.5,-529 168.5,-469 61.5,-469"/>
</a>
</g>
</g>
<!-- Node3&#45;&gt;Node2 -->
<g id="edge2_Node000002_Node000003" class="edge">
<title>Node3&#45;&gt;Node2</title>
<g id="a_edge2_Node000002_Node000003"><a xlink:title=" ">
<path fill="none" stroke="#63b8ff" d="M122.21,-468.85C130.03,-440.46 144.25,-396.75 165,-363 178.41,-341.18 196.04,-319.84 213.44,-301.17"/>
<polygon fill="none" stroke="#63b8ff" points="213.68,-300.93 214.92,-293.83 221.95,-292.24 220.71,-299.34 213.68,-300.93"/>
</a>
</g>
<text text-anchor="middle" x="193" y="-366" font-family="Helvetica,sans-Serif" font-size="10.00" fill="grey"> #_trackers</text>
</g>
<!-- Node4 -->
<g id="Node000004" class="node">
<title>Node4</title>
<g id="a_Node000004"><a xlink:title=" ">
<polygon fill="white" stroke="transparent" points="112,-702 0,-702 0,-653 112,-653 112,-702"/>
<text text-anchor="start" x="5" y="-689.5" font-family="Helvetica,sans-Serif" font-size="10.00">std::shared_ptr&lt; T &gt;</text>
<text text-anchor="start" x="54" y="-674.5" font-family="Helvetica,sans-Serif" font-size="10.00"> </text>
<text text-anchor="start" x="11.5" y="-659.5" font-family="Helvetica,sans-Serif" font-size="10.00">+</text>
<text text-anchor="start" x="32" y="-659.5" font-family="Helvetica,sans-Serif" font-size="10.00">operator&#45;&gt;()</text>
<polygon fill="#666666" stroke="#666666" points="0,-684.5 0,-684.5 112,-684.5 112,-684.5 0,-684.5"/>
<polygon fill="#666666" stroke="#666666" points="0,-669.5 0,-669.5 112,-669.5 112,-669.5 0,-669.5"/>
<polygon fill="none" stroke="#666666" points="0,-653 0,-702 112,-702 112,-653 0,-653"/>
</a>
</g>
</g>
<!-- Node4&#45;&gt;Node3 -->
<g id="edge3_Node000003_Node000004" class="edge">
<title>Node4&#45;&gt;Node3</title>
<g id="a_edge3_Node000003_Node000004"><a xlink:title=" ">
<path fill="none" stroke="#63b8ff" d="M63.96,-652.7C73.52,-624.08 89.74,-575.58 101.32,-540.92"/>
<polygon fill="none" stroke="#63b8ff" points="101.41,-540.67 99.51,-533.71 105.21,-529.29 107.1,-536.25 101.41,-540.67"/>
</a>
</g>
<text text-anchor="middle" x="103" y="-627" font-family="Helvetica,sans-Serif" font-size="10.00" fill="grey"> +elements</text>
</g>
<!-- Node5 -->
<g id="Node000005" class="node">
<title>Node5</title>
<g id="a_Node000005"><a xlink:title=" ">
<polygon fill="white" stroke="transparent" points="124.5,-798 107.5,-798 107.5,-749 124.5,-749 124.5,-798"/>
<text text-anchor="start" x="113" y="-785.5" font-family="Helvetica,sans-Serif" font-size="10.00">T</text>
<text text-anchor="start" x="114.5" y="-770.5" font-family="Helvetica,sans-Serif" font-size="10.00"> </text>
<text text-anchor="start" x="114.5" y="-755.5" font-family="Helvetica,sans-Serif" font-size="10.00"> </text>
<polygon fill="#666666" stroke="#666666" points="108,-780.5 108,-780.5 125,-780.5 125,-780.5 108,-780.5"/>
<polygon fill="#666666" stroke="#666666" points="108,-765.5 108,-765.5 125,-765.5 125,-765.5 108,-765.5"/>
<polygon fill="none" stroke="#666666" points="107.5,-749 107.5,-798 124.5,-798 124.5,-749 107.5,-749"/>
</a>
</g>
</g>
<!-- Node5&#45;&gt;Node4 -->
<g id="edge4_Node000004_Node000005" class="edge">
<title>Node5&#45;&gt;Node4</title>
<g id="a_edge4_Node000004_Node000005"><a xlink:title=" ">
<path fill="none" stroke="#63b8ff" d="M107.4,-759.03C99.64,-746.87 87.89,-728.46 77.58,-712.32"/>
<polygon fill="none" stroke="#63b8ff" points="77.53,-712.23 70.93,-709.33 71.08,-702.12 77.68,-705.02 77.53,-712.23"/>
</a>
</g>
<text text-anchor="middle" x="100.5" y="-723" font-family="Helvetica,sans-Serif" font-size="10.00" fill="grey"> +ptr</text>
</g>
<!-- Node6 -->
<g id="Node000006" class="node">
<title>Node6</title>
<g id="a_Node000006"><a xlink:title=" ">
<polygon fill="white" stroke="transparent" points="221.5,-702 130.5,-702 130.5,-653 221.5,-653 221.5,-702"/>
<text text-anchor="start" x="136" y="-689.5" font-family="Helvetica,sans-Serif" font-size="10.00">std::vector&lt; T &gt;</text>
<text text-anchor="start" x="174.5" y="-674.5" font-family="Helvetica,sans-Serif" font-size="10.00"> </text>
<text text-anchor="start" x="174.5" y="-659.5" font-family="Helvetica,sans-Serif" font-size="10.00"> </text>
<polygon fill="#666666" stroke="#666666" points="131,-684.5 131,-684.5 222,-684.5 222,-684.5 131,-684.5"/>
<polygon fill="#666666" stroke="#666666" points="131,-669.5 131,-669.5 222,-669.5 222,-669.5 131,-669.5"/>
<polygon fill="none" stroke="#666666" points="130.5,-653 130.5,-702 221.5,-702 221.5,-653 130.5,-653"/>
</a>
</g>
</g>
<!-- Node5&#45;&gt;Node6 -->
<g id="edge6_Node000006_Node000005" class="edge">
<title>Node5&#45;&gt;Node6</title>
<g id="a_edge6_Node000006_Node000005"><a xlink:title=" ">
<path fill="none" stroke="#63b8ff" d="M124.6,-759.03C132.36,-746.87 144.11,-728.46 154.42,-712.32"/>
<polygon fill="none" stroke="#63b8ff" points="154.47,-712.23 154.32,-705.02 160.92,-702.12 161.07,-709.33 154.47,-712.23"/>
</a>
</g>
<text text-anchor="middle" x="177" y="-723" font-family="Helvetica,sans-Serif" font-size="10.00" fill="grey"> +elements</text>
</g>
<!-- Node6&#45;&gt;Node3 -->
<g id="edge5_Node000003_Node000006" class="edge">
<title>Node6&#45;&gt;Node3</title>
<g id="a_edge5_Node000003_Node000006"><a xlink:title=" ">
<path fill="none" stroke="orange" d="M164.45,-643.08C153.1,-610.24 135.95,-560.62 125.12,-529.29"/>
<polygon fill="orange" stroke="orange" points="161.2,-644.39 167.77,-652.7 167.81,-642.1 161.2,-644.39"/>
</a>
</g>
<text text-anchor="middle" x="201.5" y="-627" font-family="Helvetica,sans-Serif" font-size="10.00" fill="grey"> &lt; tracker::ptr &gt;</text>
</g>
<!-- Node7 -->
<g id="Node000007" class="node">
<title>Node7</title>
<g id="a_Node000007"><a xlink:title=" ">
<polygon fill="white" stroke="transparent" points="231.5,-523.5 186.5,-523.5 186.5,-474.5 231.5,-474.5 231.5,-523.5"/>
<text text-anchor="start" x="192" y="-511" font-family="Helvetica,sans-Serif" font-size="10.00">Point2f</text>
<text text-anchor="start" x="207.5" y="-496" font-family="Helvetica,sans-Serif" font-size="10.00"> </text>
<text text-anchor="start" x="207.5" y="-481" font-family="Helvetica,sans-Serif" font-size="10.00"> </text>
<polygon fill="#666666" stroke="#666666" points="187,-506 187,-506 232,-506 232,-506 187,-506"/>
<polygon fill="#666666" stroke="#666666" points="187,-491 187,-491 232,-491 232,-491 187,-491"/>
<polygon fill="none" stroke="#666666" points="186.5,-474.5 186.5,-523.5 231.5,-523.5 231.5,-474.5 186.5,-474.5"/>
</a>
</g>
</g>
<!-- Node7&#45;&gt;Node2 -->
<g id="edge7_Node000002_Node000007" class="edge">
<title>Node7&#45;&gt;Node2</title>
<g id="a_edge7_Node000002_Node000007"><a xlink:title=" ">
<path fill="none" stroke="#63b8ff" d="M210.49,-474.21C212.62,-446.95 217.52,-401.11 228,-363 228.55,-360.99 229.13,-358.97 229.73,-356.94"/>
<polygon fill="none" stroke="#63b8ff" points="229.81,-356.7 227.79,-349.78 233.4,-345.25 235.42,-352.17 229.81,-356.7"/>
</a>
</g>
<text text-anchor="middle" x="252" y="-366" font-family="Helvetica,sans-Serif" font-size="10.00" fill="grey"> #_center</text>
</g>
<!-- Node8 -->
<g id="Node000008" class="node">
<title>Node8</title>
<g id="a_Node000008"><a xlink:title=" ">
<polygon fill="white" stroke="transparent" points="296,-523.5 264,-523.5 264,-474.5 296,-474.5 296,-523.5"/>
<text text-anchor="start" x="269" y="-511" font-family="Helvetica,sans-Serif" font-size="10.00">bool</text>
<text text-anchor="start" x="278" y="-496" font-family="Helvetica,sans-Serif" font-size="10.00"> </text>
<text text-anchor="start" x="278" y="-481" font-family="Helvetica,sans-Serif" font-size="10.00"> </text>
<polygon fill="#666666" stroke="#666666" points="264,-506 264,-506 296,-506 296,-506 264,-506"/>
<polygon fill="#666666" stroke="#666666" points="264,-491 264,-491 296,-491 296,-491 264,-491"/>
<polygon fill="none" stroke="#666666" points="264,-474.5 264,-523.5 296,-523.5 296,-474.5 264,-474.5"/>
</a>
</g>
</g>
<!-- Node8&#45;&gt;Node2 -->
<g id="edge8_Node000002_Node000008" class="edge">
<title>Node8&#45;&gt;Node2</title>
<g id="a_edge8_Node000002_Node000008"><a xlink:title=" ">
<path fill="none" stroke="#63b8ff" d="M280,-474.1C280,-447.14 280,-401.29 280,-357.21"/>
<polygon fill="none" stroke="#63b8ff" points="280,-357.14 276,-351.14 280,-345.14 284,-351.14 280,-357.14"/>
</a>
</g>
<text text-anchor="middle" x="313.5" y="-366" font-family="Helvetica,sans-Serif" font-size="10.00" fill="grey"> #_is_tracked</text>
</g>
<!-- Node9 -->
<g id="Node000009" class="node">
<title>Node9</title>
<g id="a_Node000009"><a xlink:title=" ">
<polygon fill="white" stroke="transparent" points="395,-523.5 345,-523.5 345,-474.5 395,-474.5 395,-523.5"/>
<text text-anchor="start" x="350" y="-511" font-family="Helvetica,sans-Serif" font-size="10.00">uint32_t</text>
<text text-anchor="start" x="368" y="-496" font-family="Helvetica,sans-Serif" font-size="10.00"> </text>
<text text-anchor="start" x="368" y="-481" font-family="Helvetica,sans-Serif" font-size="10.00"> </text>
<polygon fill="#666666" stroke="#666666" points="345,-506 345,-506 395,-506 395,-506 345,-506"/>
<polygon fill="#666666" stroke="#666666" points="345,-491 345,-491 395,-491 395,-491 345,-491"/>
<polygon fill="none" stroke="#666666" points="345,-474.5 345,-523.5 395,-523.5 395,-474.5 345,-474.5"/>
</a>
</g>
</g>
<!-- Node9&#45;&gt;Node2 -->
<g id="edge9_Node000002_Node000009" class="edge">
<title>Node9&#45;&gt;Node2</title>
<g id="a_edge9_Node000002_Node000009"><a xlink:title=" ">
<path fill="none" stroke="#63b8ff" d="M368.59,-474.48C366.4,-447.07 360.99,-400.72 348,-363 346.45,-358.49 344.74,-353.96 342.91,-349.42"/>
<polygon fill="none" stroke="#63b8ff" points="342.82,-349.21 336.79,-345.25 338.12,-338.17 344.15,-342.12 342.82,-349.21"/>
</a>
</g>
<text text-anchor="middle" x="389" y="-366" font-family="Helvetica,sans-Serif" font-size="10.00" fill="grey"> #_vanish_num</text>
</g>
<!-- Node10 -->
<g id="Node000010" class="node">
<title>Node10</title>
<g id="a_Node000010"><a xlink:href="../../d3/da8/classrm_1_1StateInfo.html" target="_top" xlink:title="状态类型系统">
<polygon fill="white" stroke="transparent" points="511,-606 427,-606 427,-392 511,-392 511,-606"/>
<text text-anchor="start" x="437" y="-594" font-family="Helvetica,sans-Serif" font-size="10.00">rm::StateInfo</text>
<text text-anchor="start" x="467" y="-579" font-family="Helvetica,sans-Serif" font-size="10.00"> </text>
<text text-anchor="start" x="431" y="-564" font-family="Helvetica,sans-Serif" font-size="10.00">+</text>
<text text-anchor="start" x="444" y="-564" font-family="Helvetica,sans-Serif" font-size="10.00">StateInfo()</text>
<text text-anchor="start" x="431" y="-549" font-family="Helvetica,sans-Serif" font-size="10.00">+</text>
<text text-anchor="start" x="444" y="-549" font-family="Helvetica,sans-Serif" font-size="10.00">add()</text>
<text text-anchor="start" x="431" y="-534" font-family="Helvetica,sans-Serif" font-size="10.00">+</text>
<text text-anchor="start" x="444" y="-534" font-family="Helvetica,sans-Serif" font-size="10.00">add()</text>
<text text-anchor="start" x="431" y="-519" font-family="Helvetica,sans-Serif" font-size="10.00">+</text>
<text text-anchor="start" x="444" y="-519" font-family="Helvetica,sans-Serif" font-size="10.00">remove()</text>
<text text-anchor="start" x="431" y="-504" font-family="Helvetica,sans-Serif" font-size="10.00">+</text>
<text text-anchor="start" x="444" y="-504" font-family="Helvetica,sans-Serif" font-size="10.00">contains()</text>
<text text-anchor="start" x="431" y="-489" font-family="Helvetica,sans-Serif" font-size="10.00">+</text>
<text text-anchor="start" x="444" y="-489" font-family="Helvetica,sans-Serif" font-size="10.00">clear()</text>
<text text-anchor="start" x="431" y="-474" font-family="Helvetica,sans-Serif" font-size="10.00">+</text>
<text text-anchor="start" x="444" y="-474" font-family="Helvetica,sans-Serif" font-size="10.00">empty()</text>
<text text-anchor="start" x="431" y="-459" font-family="Helvetica,sans-Serif" font-size="10.00">+</text>
<text text-anchor="start" x="444" y="-459" font-family="Helvetica,sans-Serif" font-size="10.00">at()</text>
<text text-anchor="start" x="431" y="-444" font-family="Helvetica,sans-Serif" font-size="10.00">+</text>
<text text-anchor="start" x="444" y="-444" font-family="Helvetica,sans-Serif" font-size="10.00">at_numeric()</text>
<text text-anchor="start" x="431" y="-429" font-family="Helvetica,sans-Serif" font-size="10.00">+</text>
<text text-anchor="start" x="444" y="-429" font-family="Helvetica,sans-Serif" font-size="10.00">at_string()</text>
<text text-anchor="start" x="431" y="-414" font-family="Helvetica,sans-Serif" font-size="10.00">+</text>
<text text-anchor="start" x="444" y="-414" font-family="Helvetica,sans-Serif" font-size="10.00">at()</text>
<text text-anchor="start" x="431" y="-399" font-family="Helvetica,sans-Serif" font-size="10.00">+</text>
<text text-anchor="start" x="444" y="-399" font-family="Helvetica,sans-Serif" font-size="10.00">operator[]()</text>
<polygon fill="#666666" stroke="#666666" points="427,-589 427,-589 511,-589 511,-589 427,-589"/>
<polygon fill="#666666" stroke="#666666" points="427,-574 427,-574 511,-574 511,-574 427,-574"/>
<polygon fill="none" stroke="#666666" points="427,-392 427,-606 511,-606 511,-392 427,-392"/>
</a>
</g>
</g>
<!-- Node10&#45;&gt;Node2 -->
<g id="edge10_Node000002_Node000010" class="edge">
<title>Node10&#45;&gt;Node2</title>
<g id="a_edge10_Node000002_Node000010"><a xlink:title=" ">
<path fill="none" stroke="#63b8ff" d="M445.9,-391.7C441.72,-381.62 436.79,-371.87 431,-363 409.74,-330.47 377.28,-302.23 347.89,-280.94"/>
<polygon fill="none" stroke="#63b8ff" points="347.86,-280.92 340.65,-280.73 338.06,-274 345.27,-274.19 347.86,-280.92"/>
</a>
</g>
<text text-anchor="middle" x="457" y="-366" font-family="Helvetica,sans-Serif" font-size="10.00" fill="grey"> #_state</text>
</g>
</g>
</svg>

<g id="navigator" transform="translate(0 0)" fill="#404254">
  <rect fill="#f2f5e9" fill-opacity="0.5" stroke="#606060" stroke-width=".5" x="0" y="0" width="60" height="60"/>
  <use id="zoomplus" xlink:href="#zoomPlus" x="17" y="9" onmousedown="handleZoom(evt,'in')"/>
  <use id="zoomminus" xlink:href="#zoomMin" x="42" y="9" onmousedown="handleZoom(evt,'out')"/>
  <use id="reset" xlink:href="#resetDef" x="30" y="36" onmousedown="handleReset()"/>
   <use id="arrowup" xlink:href="#arrowUp" x="0" y="0" onmousedown="handlePan(0,-1)"/>
  <use id="arrowright" xlink:href="#arrowRight" x="0" y="0" onmousedown="handlePan(1,0)"/>
  <use id="arrowdown" xlink:href="#arrowDown" x="0" y="0" onmousedown="handlePan(0,1)"/>
  <use id="arrowleft" xlink:href="#arrowLeft" x="0" y="0" onmousedown="handlePan(-1,0)"/>
</g>
<svg viewBox="0 0 15 15" width="100%" height="30px" preserveAspectRatio="xMaxYMin meet">
 <g id="arrow_out" transform="scale(0.3 0.3)">
  <a xlink:href="classrm_1_1RuneGroup__coll__graph_org.svg" target="_base">
   <rect id="button" ry="5" rx="5" y="6" x="6" height="38" width="38"
        fill="#f2f5e9" fill-opacity="0.5" stroke="#606060" stroke-width="1.0"/>
   <path id="arrow"
     d="M 11.500037,31.436501 C 11.940474,20.09759 22.043105,11.32322 32.158766,21.979434 L 37.068811,17.246167 C 37.068811,17.246167 37.088388,32 37.088388,32 L 22.160133,31.978069 C 22.160133,31.978069 26.997745,27.140456 26.997745,27.140456 C 18.528582,18.264221 13.291696,25.230495 11.500037,31.436501 z"
     style="fill:#404040;"/>
  </a>
 </g>
</svg>

<style type='text/css'>
<![CDATA[
[data-mouse-over-selected='false'] { opacity: 0.7; }
[data-mouse-over-selected='true']  { opacity: 1.0; }
]]>
</style>
<script type="application/ecmascript"><![CDATA[
document.addEventListener('DOMContentLoaded', (event) => {
  highlightEdges();
  highlightAdjacentNodes();
});
]]></script>
</svg>
