<?xml version="1.0" encoding="UTF-8" standalone="no"?>
<!DOCTYPE svg PUBLIC "-//W3C//DTD SVG 1.1//EN"
 "http://www.w3.org/Graphics/SVG/1.1/DTD/svg11.dtd">
<!-- Generated by graphviz version 14.1.2 (0)
 -->
<!-- Title: rm::DgramSocket Pages: 1 -->
<!--zoomable 488 -->

<svg id="main" version="1.1" xmlns="http://www.w3.org/2000/svg" xmlns:xlink="http://www.w3.org/1999/xlink" xml:space="preserve" onload="init(evt)">

<style type="text/css"><![CDATA[
.node, .edge {opacity: 0.7;}
.node.selected, .edge.selected {opacity: 1;}
.edge:hover path { stroke: red; }
.edge:hover polygon { stroke: red; fill: red; }
]]></style>

<defs>
  <circle id="rim" cx="0" cy="0" r="7"/>
  <circle id="rim2" cx="0" cy="0" r="3.5"/>
  <g id="zoomPlus">
    <use xlink:href="#rim" fill="#404040"><set attributeName="fill" to="#808080" begin="zoomplus.mouseover" end="zoomplus.mouseout"/></use>
    <path d="M-4,0h8M0,-4v8" fill="none" stroke="white" stroke-width="1.5" pointer-events="none"/>
  </g>
  <g id="zoomMin">
    <use xlink:href="#rim" fill="#404040"><set attributeName="fill" to="#808080" begin="zoomminus.mouseover" end="zoomminus.mouseout"/></use>
    <path d="M-4,0h8" fill="none" stroke="white" stroke-width="1.5" pointer-events="none"/>
  </g>
  <g id="arrowUp" transform="translate(30 24)">
    <use xlink:href="#rim"/>
    <path pointer-events="none" fill="none" stroke="white" stroke-width="1.5" d="M0,-3.0v7 M-2.5,-0.5L0,-3.0L2.5,-0.5"/>
  </g>
  <g id="arrowRight" transform="rotate(90) translate(36 -43)">
    <use xlink:href="#rim"/>
    <path pointer-events="none" fill="none" stroke="white" stroke-width="1.5" d="M0,-3.0v7 M-2.5,-0.5L0,-3.0L2.5,-0.5"/>
  </g>
  <g id="arrowDown" transform="rotate(180) translate(-30 -48)">
    <use xlink:href="#rim"/>
    <path pointer-events="none" fill="none" stroke="white" stroke-width="1.5" d="M0,-3.0v7 M-2.5,-0.5L0,-3.0L2.5,-0.5"/>
  </g>
  <g id="arrowLeft" transform="rotate(270) translate(-36 17)">
    <use xlink:href="#rim"/>
    <path pointer-events="none" fill="none" stroke="white" stroke-width="1.5" d="M0,-3.0v7 M-2.5,-0.5L0,-3.0L2.5,-0.5"/>
  </g>
  <g id="resetDef">
    <use xlink:href="#rim2" fill="#404040"><set attributeName="fill" to="#808080" begin="reset.mouseover" end="reset.mouseout"/></use>
  </g>
</defs>
<script type="application/ecmascript">
var viewWidth = 135;
var viewHeight = 488;
var sectionId = 'dynsection-0';
</script>
<script type="application/ecmascript" xlink:href="../../svg.min.js"/>
<svg id="graph" class="graph">
<g id="viewport">
<title>rm::DgramSocket</title>
<!-- Node1 -->
<g id="Node000001" class="node">
<title>Node1</title>
<g id="a_Node000001"><a xlink:title="由 rm::Listener 或 rm::Sender 建立的数据报式 Socket 会话">
<polygon fill="#999999" stroke="none" points="110,-479.5 17.25,-479.5 17.25,-224.25 110,-224.25 110,-479.5"/>
<text xml:space="preserve" text-anchor="start" x="21.25" y="-466" font-family="Helvetica,sans-Serif" font-size="10.00">rm::DgramSocket</text>
<text xml:space="preserve" text-anchor="start" x="24.94" y="-449.25" font-family="Helvetica,sans-Serif" font-size="10.00">#</text>
<text xml:space="preserve" text-anchor="start" x="40.88" y="-449.25" font-family="Helvetica,sans-Serif" font-size="10.00">_fd</text>
<text xml:space="preserve" text-anchor="start" x="24.94" y="-432.5" font-family="Helvetica,sans-Serif" font-size="10.00">+</text>
<text xml:space="preserve" text-anchor="start" x="40.88" y="-432.5" font-family="Helvetica,sans-Serif" font-size="10.00">invalid()</text>
<text xml:space="preserve" text-anchor="start" x="24.94" y="-415.75" font-family="Helvetica,sans-Serif" font-size="10.00">+</text>
<text xml:space="preserve" text-anchor="start" x="40.88" y="-415.75" font-family="Helvetica,sans-Serif" font-size="10.00">setOption()</text>
<text xml:space="preserve" text-anchor="start" x="24.94" y="-399" font-family="Helvetica,sans-Serif" font-size="10.00">+</text>
<text xml:space="preserve" text-anchor="start" x="40.88" y="-399" font-family="Helvetica,sans-Serif" font-size="10.00">endpoint()</text>
<text xml:space="preserve" text-anchor="start" x="24.94" y="-382.25" font-family="Helvetica,sans-Serif" font-size="10.00">+</text>
<text xml:space="preserve" text-anchor="start" x="40.88" y="-382.25" font-family="Helvetica,sans-Serif" font-size="10.00">read()</text>
<text xml:space="preserve" text-anchor="start" x="24.94" y="-365.5" font-family="Helvetica,sans-Serif" font-size="10.00">+</text>
<text xml:space="preserve" text-anchor="start" x="40.88" y="-365.5" font-family="Helvetica,sans-Serif" font-size="10.00">write()</text>
<text xml:space="preserve" text-anchor="start" x="24.94" y="-348.75" font-family="Helvetica,sans-Serif" font-size="10.00">+</text>
<text xml:space="preserve" text-anchor="start" x="40.88" y="-348.75" font-family="Helvetica,sans-Serif" font-size="10.00">write()</text>
<text xml:space="preserve" text-anchor="start" x="24.94" y="-332" font-family="Helvetica,sans-Serif" font-size="10.00">+</text>
<text xml:space="preserve" text-anchor="start" x="40.88" y="-332" font-family="Helvetica,sans-Serif" font-size="10.00">multiwrite()</text>
<text xml:space="preserve" text-anchor="start" x="24.94" y="-315.25" font-family="Helvetica,sans-Serif" font-size="10.00">+</text>
<text xml:space="preserve" text-anchor="start" x="40.88" y="-315.25" font-family="Helvetica,sans-Serif" font-size="10.00">multiwrite()</text>
<text xml:space="preserve" text-anchor="start" x="24.94" y="-298.5" font-family="Helvetica,sans-Serif" font-size="10.00">+</text>
<text xml:space="preserve" text-anchor="start" x="40.88" y="-298.5" font-family="Helvetica,sans-Serif" font-size="10.00">multiwrite()</text>
<text xml:space="preserve" text-anchor="start" x="24.94" y="-281.75" font-family="Helvetica,sans-Serif" font-size="10.00">+</text>
<text xml:space="preserve" text-anchor="start" x="40.88" y="-281.75" font-family="Helvetica,sans-Serif" font-size="10.00">multiwrite()</text>
<text xml:space="preserve" text-anchor="start" x="24.94" y="-265" font-family="Helvetica,sans-Serif" font-size="10.00">+</text>
<text xml:space="preserve" text-anchor="start" x="40.88" y="-265" font-family="Helvetica,sans-Serif" font-size="10.00">multiread()</text>
<text xml:space="preserve" text-anchor="start" x="24.94" y="-248.25" font-family="Helvetica,sans-Serif" font-size="10.00">+</text>
<text xml:space="preserve" text-anchor="start" x="40.88" y="-248.25" font-family="Helvetica,sans-Serif" font-size="10.00">multiread()</text>
<text xml:space="preserve" text-anchor="start" x="24.94" y="-231.5" font-family="Helvetica,sans-Serif" font-size="10.00">+</text>
<text xml:space="preserve" text-anchor="start" x="40.88" y="-231.5" font-family="Helvetica,sans-Serif" font-size="10.00">read_to()</text>
<polygon fill="#666666" stroke="#666666" points="17.25,-460.75 17.25,-460.75 110,-460.75 110,-460.75 17.25,-460.75"/>
<polygon fill="#666666" stroke="#666666" points="17.25,-444 17.25,-444 38.88,-444 38.88,-444 17.25,-444"/>
<polygon fill="#666666" stroke="#666666" points="38.88,-444 38.88,-444 110,-444 110,-444 38.88,-444"/>
<polygon fill="none" stroke="#666666" points="17.25,-224.25 17.25,-479.5 110,-479.5 110,-224.25 17.25,-224.25"/>
</a>
</g>
</g>
<!-- Node2 -->
<g id="Node000002" class="node">
<title>Node2</title>
<g id="a_Node000002"><a xlink:href="../../d4/d37/classrm_1_1async_1_1DgramSocket.html" target="_top" xlink:title="由 rm::async::Listener 建立的数据报式 Socket 异步会话">
<polygon fill="white" stroke="none" points="127.25,-188.25 0,-188.25 0,0 127.25,0 127.25,-188.25"/>
<text xml:space="preserve" text-anchor="start" x="4" y="-174.75" font-family="Helvetica,sans-Serif" font-size="10.00">rm::async::DgramSocket</text>
<text xml:space="preserve" text-anchor="start" x="62.12" y="-158" font-family="Helvetica,sans-Serif" font-size="10.00"> </text>
<text xml:space="preserve" text-anchor="start" x="16.31" y="-141.25" font-family="Helvetica,sans-Serif" font-size="10.00">+</text>
<text xml:space="preserve" text-anchor="start" x="40.88" y="-141.25" font-family="Helvetica,sans-Serif" font-size="10.00">read()</text>
<text xml:space="preserve" text-anchor="start" x="16.31" y="-124.5" font-family="Helvetica,sans-Serif" font-size="10.00">+</text>
<text xml:space="preserve" text-anchor="start" x="40.88" y="-124.5" font-family="Helvetica,sans-Serif" font-size="10.00">write()</text>
<text xml:space="preserve" text-anchor="start" x="16.31" y="-107.75" font-family="Helvetica,sans-Serif" font-size="10.00">+</text>
<text xml:space="preserve" text-anchor="start" x="40.88" y="-107.75" font-family="Helvetica,sans-Serif" font-size="10.00">write()</text>
<text xml:space="preserve" text-anchor="start" x="16.31" y="-91" font-family="Helvetica,sans-Serif" font-size="10.00">+</text>
<text xml:space="preserve" text-anchor="start" x="40.88" y="-91" font-family="Helvetica,sans-Serif" font-size="10.00">multiread()</text>
<text xml:space="preserve" text-anchor="start" x="16.31" y="-74.25" font-family="Helvetica,sans-Serif" font-size="10.00">+</text>
<text xml:space="preserve" text-anchor="start" x="40.88" y="-74.25" font-family="Helvetica,sans-Serif" font-size="10.00">multiread()</text>
<text xml:space="preserve" text-anchor="start" x="16.31" y="-57.5" font-family="Helvetica,sans-Serif" font-size="10.00">+</text>
<text xml:space="preserve" text-anchor="start" x="40.88" y="-57.5" font-family="Helvetica,sans-Serif" font-size="10.00">multiwrite()</text>
<text xml:space="preserve" text-anchor="start" x="16.31" y="-40.75" font-family="Helvetica,sans-Serif" font-size="10.00">+</text>
<text xml:space="preserve" text-anchor="start" x="40.88" y="-40.75" font-family="Helvetica,sans-Serif" font-size="10.00">multiwrite()</text>
<text xml:space="preserve" text-anchor="start" x="16.31" y="-24" font-family="Helvetica,sans-Serif" font-size="10.00">+</text>
<text xml:space="preserve" text-anchor="start" x="40.88" y="-24" font-family="Helvetica,sans-Serif" font-size="10.00">multiwrite()</text>
<text xml:space="preserve" text-anchor="start" x="16.31" y="-7.25" font-family="Helvetica,sans-Serif" font-size="10.00">+</text>
<text xml:space="preserve" text-anchor="start" x="40.88" y="-7.25" font-family="Helvetica,sans-Serif" font-size="10.00">multiwrite()</text>
<polygon fill="#666666" stroke="#666666" points="0,-169.5 0,-169.5 127.25,-169.5 127.25,-169.5 0,-169.5"/>
<polygon fill="#666666" stroke="#666666" points="0,-152.75 0,-152.75 127.25,-152.75 127.25,-152.75 0,-152.75"/>
<polygon fill="none" stroke="#666666" points="0,0 0,-188.25 127.25,-188.25 127.25,0 0,0"/>
</a>
</g>
</g>
<!-- Node1&#45;&gt;Node2 -->
<g id="edge1_Node000001_Node000002" class="edge">
<title>Node1&#45;&gt;Node2</title>
<g id="a_edge1_Node000001_Node000002"><a xlink:title=" ">
<path fill="none" stroke="#63b8ff" d="M63.62,-213.23C63.62,-204.68 63.62,-196.18 63.62,-187.9"/>
<polygon fill="none" stroke="#63b8ff" points="60.13,-212.98 63.63,-222.98 67.13,-212.98 60.13,-212.98"/>
</a>
</g>
</g>
</g>
</svg>

<g id="navigator" transform="translate(0 0)" fill="#404254">
  <rect fill="#f2f5e9" fill-opacity="0.5" stroke="#606060" stroke-width=".5" x="0" y="0" width="60" height="60"/>
  <use id="zoomplus" xlink:href="#zoomPlus" x="17" y="9" onmousedown="handleZoom(evt,'in')"/>
  <use id="zoomminus" xlink:href="#zoomMin" x="42" y="9" onmousedown="handleZoom(evt,'out')"/>
  <use id="reset" xlink:href="#resetDef" x="30" y="36" onmousedown="handleReset()"/>
   <use id="arrowup" xlink:href="#arrowUp" x="0" y="0" onmousedown="handlePan(0,-1)"/>
  <use id="arrowright" xlink:href="#arrowRight" x="0" y="0" onmousedown="handlePan(1,0)"/>
  <use id="arrowdown" xlink:href="#arrowDown" x="0" y="0" onmousedown="handlePan(0,1)"/>
  <use id="arrowleft" xlink:href="#arrowLeft" x="0" y="0" onmousedown="handlePan(-1,0)"/>
</g>
<svg viewBox="0 0 15 15" width="100%" height="30px" preserveAspectRatio="xMaxYMin meet">
 <g id="arrow_out" transform="scale(0.3 0.3)">
  <a xlink:href="classrm_1_1DgramSocket__inherit__graph_org.svg" target="_base">
   <rect id="button" ry="5" rx="5" y="6" x="6" height="38" width="38"
        fill="#f2f5e9" fill-opacity="0.5" stroke="#606060" stroke-width="1.0"/>
   <path id="arrow"
     d="M 11.500037,31.436501 C 11.940474,20.09759 22.043105,11.32322 32.158766,21.979434 L 37.068811,17.246167 C 37.068811,17.246167 37.088388,32 37.088388,32 L 22.160133,31.978069 C 22.160133,31.978069 26.997745,27.140456 26.997745,27.140456 C 18.528582,18.264221 13.291696,25.230495 11.500037,31.436501 z"
     style="fill:#404040;"/>
  </a>
 </g>
</svg>

<style type='text/css'>
<![CDATA[
[data-mouse-over-selected='false'] { opacity: 0.7; }
[data-mouse-over-selected='true']  { opacity: 1.0; }
]]>
</style>
<script type="application/ecmascript"><![CDATA[
document.addEventListener('DOMContentLoaded', (event) => {
  highlightEdges();
  highlightAdjacentNodes();
});
]]></script>
</svg>
