<?xml version="1.0" encoding="UTF-8" standalone="no"?>
<!DOCTYPE svg PUBLIC "-//W3C//DTD SVG 1.1//EN"
 "http://www.w3.org/Graphics/SVG/1.1/DTD/svg11.dtd">
<!-- Generated by graphviz version 2.43.0 (0)
 -->
<!-- Title: rmvl/core.hpp Pages: 1 -->
<!--zoomable 137 -->

<svg id="main" version="1.1" xmlns="http://www.w3.org/2000/svg" xmlns:xlink="http://www.w3.org/1999/xlink" xml:space="preserve" onload="init(evt)">
<style type="text/css"><![CDATA[
.node, .edge {opacity: 0.7;}
.node.selected, .edge.selected {opacity: 1;}
.edge:hover path { stroke: red; }
.edge:hover polygon { stroke: red; fill: red; }
]]></style>

<defs>
  <circle id="rim" cx="0" cy="0" r="7"/>
  <circle id="rim2" cx="0" cy="0" r="3.5"/>
  <g id="zoomPlus">
    <use xlink:href="#rim" fill="#404040"><set attributeName="fill" to="#808080" begin="zoomplus.mouseover" end="zoomplus.mouseout"/></use>
    <path d="M-4,0h8M0,-4v8" fill="none" stroke="white" stroke-width="1.5" pointer-events="none"/>
  </g>
  <g id="zoomMin">
    <use xlink:href="#rim" fill="#404040"><set attributeName="fill" to="#808080" begin="zoomminus.mouseover" end="zoomminus.mouseout"/></use>
    <path d="M-4,0h8" fill="none" stroke="white" stroke-width="1.5" pointer-events="none"/>
  </g>
  <g id="arrowUp" transform="translate(30 24)">
    <use xlink:href="#rim"/>
    <path pointer-events="none" fill="none" stroke="white" stroke-width="1.5" d="M0,-3.0v7 M-2.5,-0.5L0,-3.0L2.5,-0.5"/>
  </g>
  <g id="arrowRight" transform="rotate(90) translate(36 -43)">
    <use xlink:href="#rim"/>
    <path pointer-events="none" fill="none" stroke="white" stroke-width="1.5" d="M0,-3.0v7 M-2.5,-0.5L0,-3.0L2.5,-0.5"/>
  </g>
  <g id="arrowDown" transform="rotate(180) translate(-30 -48)">
    <use xlink:href="#rim"/>
    <path pointer-events="none" fill="none" stroke="white" stroke-width="1.5" d="M0,-3.0v7 M-2.5,-0.5L0,-3.0L2.5,-0.5"/>
  </g>
  <g id="arrowLeft" transform="rotate(270) translate(-36 17)">
    <use xlink:href="#rim"/>
    <path pointer-events="none" fill="none" stroke="white" stroke-width="1.5" d="M0,-3.0v7 M-2.5,-0.5L0,-3.0L2.5,-0.5"/>
  </g>
  <g id="resetDef">
    <use xlink:href="#rim2" fill="#404040"><set attributeName="fill" to="#808080" begin="reset.mouseover" end="reset.mouseout"/></use>
  </g>
</defs>
<script type="application/ecmascript">
var viewWidth = 1120;
var viewHeight = 137;
var sectionId = 'dynsection-0';
</script>
<script type="application/ecmascript" xlink:href="../../svg.min.js"/>
<svg id="graph" class="graph">
<g id="viewport">
<title>rmvl/core.hpp</title>
<!-- Node1 -->
<g id="Node000001" class="node">
<title>Node1</title>
<g id="a_Node000001"><a xlink:title=" ">
<polygon fill="#999999" stroke="#666666" points="674,-129 590,-129 590,-110 674,-110 674,-129"/>
<text text-anchor="middle" x="632" y="-117" font-family="Helvetica,sans-Serif" font-size="10.00">rmvl/core.hpp</text>
</a>
</g>
</g>
<!-- Node2 -->
<g id="Node000002" class="node">
<title>Node2</title>
<g id="a_Node000002"><a xlink:href="../../d0/d3f/util_8hpp.html" target="_top" xlink:title=" ">
<polygon fill="white" stroke="#666666" points="304.5,-74 227.5,-74 227.5,-55 304.5,-55 304.5,-74"/>
<text text-anchor="middle" x="266" y="-62" font-family="Helvetica,sans-Serif" font-size="10.00">core/util.hpp</text>
</a>
</g>
</g>
<!-- Node1&#45;&gt;Node2 -->
<g id="edge1_Node000001_Node000002" class="edge">
<title>Node1&#45;&gt;Node2</title>
<g id="a_edge1_Node000001_Node000002"><a xlink:title=" ">
<path fill="none" stroke="#63b8ff" d="M589.66,-112.37C521.33,-102.47 387.11,-83.04 314.84,-72.57"/>
<polygon fill="#63b8ff" stroke="#63b8ff" points="315.04,-69.07 304.64,-71.1 314.04,-75.99 315.04,-69.07"/>
</a>
</g>
</g>
<!-- Node8 -->
<g id="Node000008" class="node">
<title>Node8</title>
<g id="a_Node000008"><a xlink:href="../../d7/dad/version_8hpp.html" target="_top" xlink:title="RMVL 版本控制">
<polygon fill="white" stroke="#666666" points="568,-74 470,-74 470,-55 568,-55 568,-74"/>
<text text-anchor="middle" x="519" y="-62" font-family="Helvetica,sans-Serif" font-size="10.00">core/version.hpp</text>
</a>
</g>
</g>
<!-- Node1&#45;&gt;Node8 -->
<g id="edge7_Node000001_Node000008" class="edge">
<title>Node1&#45;&gt;Node8</title>
<g id="a_edge7_Node000001_Node000008"><a xlink:title=" ">
<path fill="none" stroke="#63b8ff" d="M613.84,-109.98C595.75,-101.5 567.72,-88.35 546.81,-78.54"/>
<polygon fill="#63b8ff" stroke="#63b8ff" points="548.03,-75.25 537.49,-74.17 545.05,-81.59 548.03,-75.25"/>
</a>
</g>
</g>
<!-- Node9 -->
<g id="Node000009" class="node">
<title>Node9</title>
<g id="a_Node000009"><a xlink:href="../../d5/d60/dataio_8hpp.html" target="_top" xlink:title="陀螺仪数据">
<polygon fill="white" stroke="#666666" points="678,-74 586,-74 586,-55 678,-55 678,-74"/>
<text text-anchor="middle" x="632" y="-62" font-family="Helvetica,sans-Serif" font-size="10.00">core/dataio.hpp</text>
</a>
</g>
</g>
<!-- Node1&#45;&gt;Node9 -->
<g id="edge8_Node000001_Node000009" class="edge">
<title>Node1&#45;&gt;Node9</title>
<g id="a_edge8_Node000001_Node000009"><a xlink:title=" ">
<path fill="none" stroke="#63b8ff" d="M632,-109.75C632,-102.8 632,-92.85 632,-84.13"/>
<polygon fill="#63b8ff" stroke="#63b8ff" points="635.5,-84.09 632,-74.09 628.5,-84.09 635.5,-84.09"/>
</a>
</g>
</g>
<!-- Node13 -->
<g id="Node000013" class="node">
<title>Node13</title>
<g id="a_Node000013"><a xlink:href="../../db/d0f/kalman_8hpp.html" target="_top" xlink:title="包含轻量级 cv::Matx 的卡尔曼滤波模块">
<polygon fill="white" stroke="#666666" points="939,-74 841,-74 841,-55 939,-55 939,-74"/>
<text text-anchor="middle" x="890" y="-62" font-family="Helvetica,sans-Serif" font-size="10.00">core/kalman.hpp</text>
</a>
</g>
</g>
<!-- Node1&#45;&gt;Node13 -->
<g id="edge12_Node000001_Node000013" class="edge">
<title>Node1&#45;&gt;Node13</title>
<g id="a_edge12_Node000001_Node000013"><a xlink:title=" ">
<path fill="none" stroke="#63b8ff" d="M673.45,-109.98C718.27,-100.78 789.77,-86.09 838.25,-76.13"/>
<polygon fill="#63b8ff" stroke="#63b8ff" points="839.13,-79.52 848.22,-74.08 837.72,-72.67 839.13,-79.52"/>
</a>
</g>
</g>
<!-- Node16 -->
<g id="Node000016" class="node">
<title>Node16</title>
<g id="a_Node000016"><a xlink:href="../../da/d3b/numcal_8hpp.html" target="_top" xlink:title="Numerical Calculation Module 数值计算模块">
<polygon fill="white" stroke="#666666" points="794,-74 696,-74 696,-55 794,-55 794,-74"/>
<text text-anchor="middle" x="745" y="-62" font-family="Helvetica,sans-Serif" font-size="10.00">core/numcal.hpp</text>
</a>
</g>
</g>
<!-- Node1&#45;&gt;Node16 -->
<g id="edge15_Node000001_Node000016" class="edge">
<title>Node1&#45;&gt;Node16</title>
<g id="a_edge15_Node000001_Node000016"><a xlink:title=" ">
<path fill="none" stroke="#63b8ff" d="M650.16,-109.98C668.25,-101.5 696.28,-88.35 717.19,-78.54"/>
<polygon fill="#63b8ff" stroke="#63b8ff" points="718.95,-81.59 726.51,-74.17 715.97,-75.25 718.95,-81.59"/>
</a>
</g>
</g>
<!-- Node19 -->
<g id="Node000019" class="node">
<title>Node19</title>
<g id="a_Node000019"><a xlink:href="../../d1/dc5/serial_8hpp.html" target="_top" xlink:title="Unix 串口类">
<polygon fill="white" stroke="#666666" points="452.5,-74 363.5,-74 363.5,-55 452.5,-55 452.5,-74"/>
<text text-anchor="middle" x="408" y="-62" font-family="Helvetica,sans-Serif" font-size="10.00">core/serial.hpp</text>
</a>
</g>
</g>
<!-- Node1&#45;&gt;Node19 -->
<g id="edge21_Node000001_Node000019" class="edge">
<title>Node1&#45;&gt;Node19</title>
<g id="a_edge21_Node000001_Node000019"><a xlink:title=" ">
<path fill="none" stroke="#63b8ff" d="M596.01,-109.98C557.51,-100.87 496.31,-86.4 454.26,-76.45"/>
<polygon fill="#63b8ff" stroke="#63b8ff" points="454.81,-72.98 444.27,-74.08 453.2,-79.79 454.81,-72.98"/>
</a>
</g>
</g>
<!-- Node21 -->
<g id="Node000021" class="node">
<title>Node21</title>
<g id="a_Node000021"><a xlink:href="../../df/d05/timer_8hpp.html" target="_top" xlink:title="定时、计时模块">
<polygon fill="white" stroke="#666666" points="1087.5,-74 1000.5,-74 1000.5,-55 1087.5,-55 1087.5,-74"/>
<text text-anchor="middle" x="1044" y="-62" font-family="Helvetica,sans-Serif" font-size="10.00">core/timer.hpp</text>
</a>
</g>
</g>
<!-- Node1&#45;&gt;Node21 -->
<g id="edge24_Node000001_Node000021" class="edge">
<title>Node1&#45;&gt;Node21</title>
<g id="a_edge24_Node000001_Node000021"><a xlink:title=" ">
<path fill="none" stroke="#63b8ff" d="M674.16,-113.08C749.56,-103.38 907.38,-83.07 990.37,-72.4"/>
<polygon fill="#63b8ff" stroke="#63b8ff" points="990.88,-75.86 1000.36,-71.11 989.99,-68.92 990.88,-75.86"/>
</a>
</g>
</g>
<!-- Node3 -->
<g id="Node000003" class="node">
<title>Node3</title>
<g id="a_Node000003"><a xlink:title=" ">
<polygon fill="#e0e0e0" stroke="#999999" points="290.5,-19 157.5,-19 157.5,0 290.5,0 290.5,-19"/>
<text text-anchor="middle" x="224" y="-7" font-family="Helvetica,sans-Serif" font-size="10.00">rmvl/rmvl_modules.hpp</text>
</a>
</g>
</g>
<!-- Node2&#45;&gt;Node3 -->
<g id="edge2_Node000002_Node000003" class="edge">
<title>Node2&#45;&gt;Node3</title>
<g id="a_edge2_Node000002_Node000003"><a xlink:title=" ">
<path fill="none" stroke="#63b8ff" d="M259.06,-54.75C253.13,-47.26 244.43,-36.28 237.18,-27.13"/>
<polygon fill="#63b8ff" stroke="#63b8ff" points="239.76,-24.75 230.81,-19.09 234.27,-29.1 239.76,-24.75"/>
</a>
</g>
</g>
<!-- Node4 -->
<g id="Node000004" class="node">
<title>Node4</title>
<g id="a_Node000004"><a xlink:title=" ">
<polygon fill="#e0e0e0" stroke="#999999" points="359,-19 309,-19 309,0 359,0 359,-19"/>
<text text-anchor="middle" x="334" y="-7" font-family="Helvetica,sans-Serif" font-size="10.00">cstdint</text>
</a>
</g>
</g>
<!-- Node2&#45;&gt;Node4 -->
<g id="edge3_Node000002_Node000004" class="edge">
<title>Node2&#45;&gt;Node4</title>
<g id="a_edge3_Node000002_Node000004"><a xlink:title=" ">
<path fill="none" stroke="#63b8ff" d="M276.93,-54.98C287.08,-47.07 302.42,-35.11 314.65,-25.58"/>
<polygon fill="#63b8ff" stroke="#63b8ff" points="317.14,-28.08 322.88,-19.17 312.84,-22.56 317.14,-28.08"/>
</a>
</g>
</g>
<!-- Node5 -->
<g id="Node000005" class="node">
<title>Node5</title>
<g id="a_Node000005"><a xlink:title=" ">
<polygon fill="#e0e0e0" stroke="#999999" points="46,-19 0,-19 0,0 46,0 46,-19"/>
<text text-anchor="middle" x="23" y="-7" font-family="Helvetica,sans-Serif" font-size="10.00">cstdio</text>
</a>
</g>
</g>
<!-- Node2&#45;&gt;Node5 -->
<g id="edge4_Node000002_Node000005" class="edge">
<title>Node2&#45;&gt;Node5</title>
<g id="a_edge4_Node000002_Node000005"><a xlink:title=" ">
<path fill="none" stroke="#63b8ff" d="M227.36,-55.98C187.02,-47.98 121.68,-34.65 56.13,-19.17"/>
<polygon fill="#63b8ff" stroke="#63b8ff" points="56.57,-15.68 46.04,-16.77 54.96,-22.49 56.57,-15.68"/>
</a>
</g>
</g>
<!-- Node6 -->
<g id="Node000006" class="node">
<title>Node6</title>
<g id="a_Node000006"><a xlink:title=" ">
<polygon fill="#e0e0e0" stroke="#999999" points="421,-19 377,-19 377,0 421,0 421,-19"/>
<text text-anchor="middle" x="399" y="-7" font-family="Helvetica,sans-Serif" font-size="10.00">string</text>
</a>
</g>
</g>
<!-- Node2&#45;&gt;Node6 -->
<g id="edge5_Node000002_Node000006" class="edge">
<title>Node2&#45;&gt;Node6</title>
<g id="a_edge5_Node000002_Node000006"><a xlink:title=" ">
<path fill="none" stroke="#63b8ff" d="M287.37,-54.98C309.15,-46.3 343.16,-32.75 367.92,-22.88"/>
<polygon fill="#63b8ff" stroke="#63b8ff" points="369.25,-26.12 377.24,-19.17 366.66,-19.62 369.25,-26.12"/>
</a>
</g>
</g>
<!-- Node7 -->
<g id="Node000007" class="node">
<title>Node7</title>
<g id="a_Node000007"><a xlink:href="../../db/d41/rmvldef_8hpp.html" target="_top" xlink:title=" ">
<polygon fill="white" stroke="#666666" points="139.5,-19 64.5,-19 64.5,0 139.5,0 139.5,-19"/>
<text text-anchor="middle" x="102" y="-7" font-family="Helvetica,sans-Serif" font-size="10.00">rmvldef.hpp</text>
</a>
</g>
</g>
<!-- Node2&#45;&gt;Node7 -->
<g id="edge6_Node000002_Node000007" class="edge">
<title>Node2&#45;&gt;Node7</title>
<g id="a_edge6_Node000002_Node000007"><a xlink:title=" ">
<path fill="none" stroke="#63b8ff" d="M239.65,-54.98C212.24,-46.13 169.11,-32.19 138.44,-22.28"/>
<polygon fill="#63b8ff" stroke="#63b8ff" points="139.15,-18.83 128.56,-19.08 137,-25.49 139.15,-18.83"/>
</a>
</g>
</g>
<!-- Node10 -->
<g id="Node000010" class="node">
<title>Node10</title>
<g id="a_Node000010"><a xlink:title=" ">
<polygon fill="#e0e0e0" stroke="#999999" points="629,-19 587,-19 587,0 629,0 629,-19"/>
<text text-anchor="middle" x="608" y="-7" font-family="Helvetica,sans-Serif" font-size="10.00">array</text>
</a>
</g>
</g>
<!-- Node9&#45;&gt;Node10 -->
<g id="edge9_Node000009_Node000010" class="edge">
<title>Node9&#45;&gt;Node10</title>
<g id="a_edge9_Node000009_Node000010"><a xlink:title=" ">
<path fill="none" stroke="#63b8ff" d="M628.04,-54.75C624.79,-47.57 620.08,-37.18 616.05,-28.27"/>
<polygon fill="#63b8ff" stroke="#63b8ff" points="619.2,-26.75 611.89,-19.09 612.83,-29.64 619.2,-26.75"/>
</a>
</g>
</g>
<!-- Node11 -->
<g id="Node000011" class="node">
<title>Node11</title>
<g id="a_Node000011"><a xlink:title=" ">
<polygon fill="#e0e0e0" stroke="#999999" points="569,-19 521,-19 521,0 569,0 569,-19"/>
<text text-anchor="middle" x="545" y="-7" font-family="Helvetica,sans-Serif" font-size="10.00">iosfwd</text>
</a>
</g>
</g>
<!-- Node9&#45;&gt;Node11 -->
<g id="edge10_Node000009_Node000011" class="edge">
<title>Node9&#45;&gt;Node11</title>
<g id="a_edge10_Node000009_Node000011"><a xlink:title=" ">
<path fill="none" stroke="#63b8ff" d="M618.02,-54.98C604.53,-46.77 583.87,-34.18 567.96,-24.49"/>
<polygon fill="#63b8ff" stroke="#63b8ff" points="569.59,-21.38 559.23,-19.17 565.95,-27.36 569.59,-21.38"/>
</a>
</g>
</g>
<!-- Node12 -->
<g id="Node000012" class="node">
<title>Node12</title>
<g id="a_Node000012"><a xlink:title=" ">
<polygon fill="#e0e0e0" stroke="#999999" points="694.5,-19 647.5,-19 647.5,0 694.5,0 694.5,-19"/>
<text text-anchor="middle" x="671" y="-7" font-family="Helvetica,sans-Serif" font-size="10.00">vector</text>
</a>
</g>
</g>
<!-- Node9&#45;&gt;Node12 -->
<g id="edge11_Node000009_Node000012" class="edge">
<title>Node9&#45;&gt;Node12</title>
<g id="a_edge11_Node000009_Node000012"><a xlink:title=" ">
<path fill="none" stroke="#63b8ff" d="M638.44,-54.75C643.89,-47.34 651.86,-36.5 658.56,-27.41"/>
<polygon fill="#63b8ff" stroke="#63b8ff" points="661.57,-29.22 664.68,-19.09 655.93,-25.07 661.57,-29.22"/>
</a>
</g>
</g>
<!-- Node14 -->
<g id="Node000014" class="node">
<title>Node14</title>
<g id="a_Node000014"><a xlink:title=" ">
<polygon fill="#e0e0e0" stroke="#999999" points="922.5,-19 857.5,-19 857.5,0 922.5,0 922.5,-19"/>
<text text-anchor="middle" x="890" y="-7" font-family="Helvetica,sans-Serif" font-size="10.00">functional</text>
</a>
</g>
</g>
<!-- Node13&#45;&gt;Node14 -->
<g id="edge13_Node000013_Node000014" class="edge">
<title>Node13&#45;&gt;Node14</title>
<g id="a_edge13_Node000013_Node000014"><a xlink:title=" ">
<path fill="none" stroke="#63b8ff" d="M890,-54.75C890,-47.8 890,-37.85 890,-29.13"/>
<polygon fill="#63b8ff" stroke="#63b8ff" points="893.5,-29.09 890,-19.09 886.5,-29.09 893.5,-29.09"/>
</a>
</g>
</g>
<!-- Node15 -->
<g id="Node000015" class="node">
<title>Node15</title>
<g id="a_Node000015"><a xlink:title=" ">
<polygon fill="#e0e0e0" stroke="#999999" points="1043.5,-19 940.5,-19 940.5,0 1043.5,0 1043.5,-19"/>
<text text-anchor="middle" x="992" y="-7" font-family="Helvetica,sans-Serif" font-size="10.00">opencv2/core.hpp</text>
</a>
</g>
</g>
<!-- Node13&#45;&gt;Node15 -->
<g id="edge14_Node000013_Node000015" class="edge">
<title>Node13&#45;&gt;Node15</title>
<g id="a_edge14_Node000013_Node000015"><a xlink:title=" ">
<path fill="none" stroke="#63b8ff" d="M906.39,-54.98C922.57,-46.57 947.57,-33.59 966.38,-23.81"/>
<polygon fill="#63b8ff" stroke="#63b8ff" points="968.05,-26.89 975.31,-19.17 964.83,-20.68 968.05,-26.89"/>
</a>
</g>
</g>
<!-- Node16&#45;&gt;Node10 -->
<g id="edge18_Node000016_Node000010" class="edge">
<title>Node16&#45;&gt;Node10</title>
<g id="a_edge18_Node000016_Node000010"><a xlink:title=" ">
<path fill="none" stroke="#63b8ff" d="M722.99,-54.98C700.15,-46.15 664.26,-32.27 638.66,-22.36"/>
<polygon fill="#63b8ff" stroke="#63b8ff" points="639.65,-18.99 629.06,-18.65 637.12,-25.52 639.65,-18.99"/>
</a>
</g>
</g>
<!-- Node16&#45;&gt;Node12 -->
<g id="edge20_Node000016_Node000012" class="edge">
<title>Node16&#45;&gt;Node12</title>
<g id="a_edge20_Node000016_Node000012"><a xlink:title=" ">
<path fill="none" stroke="#63b8ff" d="M733.11,-54.98C721.85,-46.92 704.71,-34.65 691.29,-25.03"/>
<polygon fill="#63b8ff" stroke="#63b8ff" points="693.27,-22.15 683.11,-19.17 689.2,-27.84 693.27,-22.15"/>
</a>
</g>
</g>
<!-- Node16&#45;&gt;Node14 -->
<g id="edge17_Node000016_Node000014" class="edge">
<title>Node16&#45;&gt;Node14</title>
<g id="a_edge17_Node000016_Node000014"><a xlink:title=" ">
<path fill="none" stroke="#63b8ff" d="M768.3,-54.98C792.25,-46.23 829.78,-32.51 856.83,-22.62"/>
<polygon fill="#63b8ff" stroke="#63b8ff" points="858.09,-25.89 866.28,-19.17 855.69,-19.32 858.09,-25.89"/>
</a>
</g>
</g>
<!-- Node17 -->
<g id="Node000017" class="node">
<title>Node17</title>
<g id="a_Node000017"><a xlink:title=" ">
<polygon fill="#e0e0e0" stroke="#999999" points="777,-19 713,-19 713,0 777,0 777,-19"/>
<text text-anchor="middle" x="745" y="-7" font-family="Helvetica,sans-Serif" font-size="10.00">algorithm</text>
</a>
</g>
</g>
<!-- Node16&#45;&gt;Node17 -->
<g id="edge16_Node000016_Node000017" class="edge">
<title>Node16&#45;&gt;Node17</title>
<g id="a_edge16_Node000016_Node000017"><a xlink:title=" ">
<path fill="none" stroke="#63b8ff" d="M745,-54.75C745,-47.8 745,-37.85 745,-29.13"/>
<polygon fill="#63b8ff" stroke="#63b8ff" points="748.5,-29.09 745,-19.09 741.5,-29.09 748.5,-29.09"/>
</a>
</g>
</g>
<!-- Node18 -->
<g id="Node000018" class="node">
<title>Node18</title>
<g id="a_Node000018"><a xlink:title=" ">
<polygon fill="#e0e0e0" stroke="#999999" points="839,-19 795,-19 795,0 839,0 839,-19"/>
<text text-anchor="middle" x="817" y="-7" font-family="Helvetica,sans-Serif" font-size="10.00">bitset</text>
</a>
</g>
</g>
<!-- Node16&#45;&gt;Node18 -->
<g id="edge19_Node000016_Node000018" class="edge">
<title>Node16&#45;&gt;Node18</title>
<g id="a_edge19_Node000016_Node000018"><a xlink:title=" ">
<path fill="none" stroke="#63b8ff" d="M756.57,-54.98C767.42,-47 783.88,-34.88 796.88,-25.31"/>
<polygon fill="#63b8ff" stroke="#63b8ff" points="799.24,-27.92 805.22,-19.17 795.09,-22.28 799.24,-27.92"/>
</a>
</g>
</g>
<!-- Node19&#45;&gt;Node6 -->
<g id="edge22_Node000019_Node000006" class="edge">
<title>Node19&#45;&gt;Node6</title>
<g id="a_edge22_Node000019_Node000006"><a xlink:title=" ">
<path fill="none" stroke="#63b8ff" d="M406.51,-54.75C405.33,-47.8 403.64,-37.85 402.16,-29.13"/>
<polygon fill="#63b8ff" stroke="#63b8ff" points="405.58,-28.36 400.46,-19.09 398.68,-29.53 405.58,-28.36"/>
</a>
</g>
</g>
<!-- Node20 -->
<g id="Node000020" class="node">
<title>Node20</title>
<g id="a_Node000020"><a xlink:title=" ">
<polygon fill="#e0e0e0" stroke="#999999" points="502.5,-19 439.5,-19 439.5,0 502.5,0 502.5,-19"/>
<text text-anchor="middle" x="471" y="-7" font-family="Helvetica,sans-Serif" font-size="10.00">termios.h</text>
</a>
</g>
</g>
<!-- Node19&#45;&gt;Node20 -->
<g id="edge23_Node000019_Node000020" class="edge">
<title>Node19&#45;&gt;Node20</title>
<g id="a_edge23_Node000019_Node000020"><a xlink:title=" ">
<path fill="none" stroke="#63b8ff" d="M418.12,-54.98C427.44,-47.15 441.47,-35.34 452.74,-25.86"/>
<polygon fill="#63b8ff" stroke="#63b8ff" points="455.29,-28.29 460.69,-19.17 450.79,-22.93 455.29,-28.29"/>
</a>
</g>
</g>
<!-- Node22 -->
<g id="Node000022" class="node">
<title>Node22</title>
<g id="a_Node000022"><a xlink:title=" ">
<polygon fill="#e0e0e0" stroke="#999999" points="1112,-19 1062,-19 1062,0 1112,0 1112,-19"/>
<text text-anchor="middle" x="1087" y="-7" font-family="Helvetica,sans-Serif" font-size="10.00">chrono</text>
</a>
</g>
</g>
<!-- Node21&#45;&gt;Node22 -->
<g id="edge25_Node000021_Node000022" class="edge">
<title>Node21&#45;&gt;Node22</title>
<g id="a_edge25_Node000021_Node000022"><a xlink:title=" ">
<path fill="none" stroke="#63b8ff" d="M1051.1,-54.75C1057.17,-47.26 1066.09,-36.28 1073.51,-27.13"/>
<polygon fill="#63b8ff" stroke="#63b8ff" points="1076.45,-29.06 1080.03,-19.09 1071.01,-24.65 1076.45,-29.06"/>
</a>
</g>
</g>
</g>
</svg>

<g id="navigator" transform="translate(0 0)" fill="#404254">
  <rect fill="#f2f5e9" fill-opacity="0.5" stroke="#606060" stroke-width=".5" x="0" y="0" width="60" height="60"/>
  <use id="zoomplus" xlink:href="#zoomPlus" x="17" y="9" onmousedown="handleZoom(evt,'in')"/>
  <use id="zoomminus" xlink:href="#zoomMin" x="42" y="9" onmousedown="handleZoom(evt,'out')"/>
  <use id="reset" xlink:href="#resetDef" x="30" y="36" onmousedown="handleReset()"/>
   <use id="arrowup" xlink:href="#arrowUp" x="0" y="0" onmousedown="handlePan(0,-1)"/>
  <use id="arrowright" xlink:href="#arrowRight" x="0" y="0" onmousedown="handlePan(1,0)"/>
  <use id="arrowdown" xlink:href="#arrowDown" x="0" y="0" onmousedown="handlePan(0,1)"/>
  <use id="arrowleft" xlink:href="#arrowLeft" x="0" y="0" onmousedown="handlePan(-1,0)"/>
</g>
<svg viewBox="0 0 15 15" width="100%" height="30px" preserveAspectRatio="xMaxYMin meet">
 <g id="arrow_out" transform="scale(0.3 0.3)">
  <a xlink:href="rmvl_2core_8hpp__incl_org.svg" target="_base">
   <rect id="button" ry="5" rx="5" y="6" x="6" height="38" width="38"
        fill="#f2f5e9" fill-opacity="0.5" stroke="#606060" stroke-width="1.0"/>
   <path id="arrow"
     d="M 11.500037,31.436501 C 11.940474,20.09759 22.043105,11.32322 32.158766,21.979434 L 37.068811,17.246167 C 37.068811,17.246167 37.088388,32 37.088388,32 L 22.160133,31.978069 C 22.160133,31.978069 26.997745,27.140456 26.997745,27.140456 C 18.528582,18.264221 13.291696,25.230495 11.500037,31.436501 z"
     style="fill:#404040;"/>
  </a>
 </g>
</svg>

<style type='text/css'>
<![CDATA[
[data-mouse-over-selected='false'] { opacity: 0.7; }
[data-mouse-over-selected='true']  { opacity: 1.0; }
]]>
</style>
<script type="application/ecmascript"><![CDATA[
document.addEventListener('DOMContentLoaded', (event) => {
  highlightEdges();
  highlightAdjacentNodes();
});
]]></script>
</svg>
