<?xml version="1.0" encoding="UTF-8" standalone="no"?>
<!DOCTYPE svg PUBLIC "-//W3C//DTD SVG 1.1//EN"
 "http://www.w3.org/Graphics/SVG/1.1/DTD/svg11.dtd">
<!-- Generated by graphviz version 2.43.0 (0)
 -->
<!-- Title: rmvl/detector/gyro_detector.h Pages: 1 -->
<!--zoomable 489 -->

<svg id="main" version="1.1" xmlns="http://www.w3.org/2000/svg" xmlns:xlink="http://www.w3.org/1999/xlink" xml:space="preserve" onload="init(evt)">
<style type="text/css"><![CDATA[
.node, .edge {opacity: 0.7;}
.node.selected, .edge.selected {opacity: 1;}
.edge:hover path { stroke: red; }
.edge:hover polygon { stroke: red; fill: red; }
]]></style>

<defs>
  <circle id="rim" cx="0" cy="0" r="7"/>
  <circle id="rim2" cx="0" cy="0" r="3.5"/>
  <g id="zoomPlus">
    <use xlink:href="#rim" fill="#404040"><set attributeName="fill" to="#808080" begin="zoomplus.mouseover" end="zoomplus.mouseout"/></use>
    <path d="M-4,0h8M0,-4v8" fill="none" stroke="white" stroke-width="1.5" pointer-events="none"/>
  </g>
  <g id="zoomMin">
    <use xlink:href="#rim" fill="#404040"><set attributeName="fill" to="#808080" begin="zoomminus.mouseover" end="zoomminus.mouseout"/></use>
    <path d="M-4,0h8" fill="none" stroke="white" stroke-width="1.5" pointer-events="none"/>
  </g>
  <g id="arrowUp" transform="translate(30 24)">
    <use xlink:href="#rim"/>
    <path pointer-events="none" fill="none" stroke="white" stroke-width="1.5" d="M0,-3.0v7 M-2.5,-0.5L0,-3.0L2.5,-0.5"/>
  </g>
  <g id="arrowRight" transform="rotate(90) translate(36 -43)">
    <use xlink:href="#rim"/>
    <path pointer-events="none" fill="none" stroke="white" stroke-width="1.5" d="M0,-3.0v7 M-2.5,-0.5L0,-3.0L2.5,-0.5"/>
  </g>
  <g id="arrowDown" transform="rotate(180) translate(-30 -48)">
    <use xlink:href="#rim"/>
    <path pointer-events="none" fill="none" stroke="white" stroke-width="1.5" d="M0,-3.0v7 M-2.5,-0.5L0,-3.0L2.5,-0.5"/>
  </g>
  <g id="arrowLeft" transform="rotate(270) translate(-36 17)">
    <use xlink:href="#rim"/>
    <path pointer-events="none" fill="none" stroke="white" stroke-width="1.5" d="M0,-3.0v7 M-2.5,-0.5L0,-3.0L2.5,-0.5"/>
  </g>
  <g id="resetDef">
    <use xlink:href="#rim2" fill="#404040"><set attributeName="fill" to="#808080" begin="reset.mouseover" end="reset.mouseout"/></use>
  </g>
</defs>
<script type="application/ecmascript">
var viewWidth = 1080;
var viewHeight = 489;
var sectionId = 'dynsection-0';
</script>
<script type="application/ecmascript" xlink:href="../../svg.min.js"/>
<svg id="graph" class="graph">
<g id="viewport">
<title>rmvl/detector/gyro_detector.h</title>
<!-- Node1 -->
<g id="Node000001" class="node">
<title>Node1</title>
<g id="a_Node000001"><a xlink:title="装甲板识别派生类头文件">
<polygon fill="#999999" stroke="#666666" points="230,-481 123,-481 123,-451 230,-451 230,-481"/>
<text text-anchor="start" x="131" y="-469" font-family="Helvetica,sans-Serif" font-size="10.00">rmvl/detector/gyro</text>
<text text-anchor="middle" x="176.5" y="-458" font-family="Helvetica,sans-Serif" font-size="10.00">_detector.h</text>
</a>
</g>
</g>
<!-- Node2 -->
<g id="Node000002" class="node">
<title>Node2</title>
<g id="a_Node000002"><a xlink:title=" ">
<polygon fill="#e0e0e0" stroke="#999999" points="93,-129 0,-129 0,-110 93,-110 93,-129"/>
<text text-anchor="middle" x="46.5" y="-117" font-family="Helvetica,sans-Serif" font-size="10.00">unordered_map</text>
</a>
</g>
</g>
<!-- Node1&#45;&gt;Node2 -->
<g id="edge1_Node000001_Node000002" class="edge">
<title>Node1&#45;&gt;Node2</title>
<g id="a_edge1_Node000001_Node000002"><a xlink:title=" ">
<path fill="none" stroke="#63b8ff" d="M137.68,-450.96C119.17,-442.74 97.78,-430.82 82.5,-415 60.68,-392.41 51.5,-382.91 51.5,-351.5 51.5,-351.5 51.5,-351.5 51.5,-234 51.5,-200.58 49.31,-161.67 47.83,-139.18"/>
<polygon fill="#63b8ff" stroke="#63b8ff" points="51.31,-138.77 47.13,-129.04 44.32,-139.25 51.31,-138.77"/>
</a>
</g>
</g>
<!-- Node3 -->
<g id="Node000003" class="node">
<title>Node3</title>
<g id="a_Node000003"><a xlink:href="../../d5/d9f/detector_8h.html" target="_top" xlink:title="抽象识别类头文件">
<polygon fill="white" stroke="#666666" points="257,-415 192,-415 192,-396 257,-396 257,-415"/>
<text text-anchor="middle" x="224.5" y="-403" font-family="Helvetica,sans-Serif" font-size="10.00">detector.h</text>
</a>
</g>
</g>
<!-- Node1&#45;&gt;Node3 -->
<g id="edge2_Node000001_Node000003" class="edge">
<title>Node1&#45;&gt;Node3</title>
<g id="a_edge2_Node000001_Node000003"><a xlink:title=" ">
<path fill="none" stroke="#63b8ff" d="M188.12,-450.84C194.94,-442.52 203.61,-431.96 210.77,-423.23"/>
<polygon fill="#63b8ff" stroke="#63b8ff" points="213.67,-425.22 217.31,-415.27 208.26,-420.78 213.67,-425.22"/>
</a>
</g>
</g>
<!-- Node30 -->
<g id="Node000030" class="node">
<title>Node30</title>
<g id="a_Node000030"><a xlink:href="../../d9/d8f/ml_2ort_8h.html" target="_top" xlink:title="the deployment library header file of the ONNXruntime (Ort)">
<polygon fill="white" stroke="#666666" points="171.5,-415 91.5,-415 91.5,-396 171.5,-396 171.5,-415"/>
<text text-anchor="middle" x="131.5" y="-403" font-family="Helvetica,sans-Serif" font-size="10.00">rmvl/ml/ort.h</text>
</a>
</g>
</g>
<!-- Node1&#45;&gt;Node30 -->
<g id="edge32_Node000001_Node000030" class="edge">
<title>Node1&#45;&gt;Node30</title>
<g id="a_edge32_Node000001_Node000030"><a xlink:title=" ">
<path fill="none" stroke="#63b8ff" d="M165.61,-450.84C159.21,-442.52 151.08,-431.96 144.37,-423.23"/>
<polygon fill="#63b8ff" stroke="#63b8ff" points="147.11,-421.06 138.24,-415.27 141.57,-425.33 147.11,-421.06"/>
</a>
</g>
</g>
<!-- Node31 -->
<g id="Node000031" class="node">
<title>Node31</title>
<g id="a_Node000031"><a xlink:href="../../d7/de6/tracker_2gyro__tracker_8h.html" target="_top" xlink:title="装甲板追踪器头文件">
<polygon fill="white" stroke="#666666" points="585.5,-360 437.5,-360 437.5,-341 585.5,-341 585.5,-360"/>
<text text-anchor="middle" x="511.5" y="-348" font-family="Helvetica,sans-Serif" font-size="10.00">rmvl/tracker/gyro_tracker.h</text>
</a>
</g>
</g>
<!-- Node1&#45;&gt;Node31 -->
<g id="edge34_Node000001_Node000031" class="edge">
<title>Node1&#45;&gt;Node31</title>
<g id="a_edge34_Node000001_Node000031"><a xlink:title=" ">
<path fill="none" stroke="#63b8ff" d="M217.91,-450.97C284.41,-428.44 413.83,-384.59 476.21,-363.46"/>
<polygon fill="#63b8ff" stroke="#63b8ff" points="477.64,-366.67 485.98,-360.14 475.39,-360.04 477.64,-366.67"/>
</a>
</g>
</g>
<!-- Node4 -->
<g id="Node000004" class="node">
<title>Node4</title>
<g id="a_Node000004"><a xlink:href="../../d9/dd1/group_8h.html" target="_top" xlink:title="序列组抽象头文件">
<polygon fill="white" stroke="#666666" points="419.5,-360 309.5,-360 309.5,-341 419.5,-341 419.5,-360"/>
<text text-anchor="middle" x="364.5" y="-348" font-family="Helvetica,sans-Serif" font-size="10.00">rmvl/group/group.h</text>
</a>
</g>
</g>
<!-- Node3&#45;&gt;Node4 -->
<g id="edge3_Node000003_Node000004" class="edge">
<title>Node3&#45;&gt;Node4</title>
<g id="a_edge3_Node000003_Node000004"><a xlink:title=" ">
<path fill="none" stroke="#63b8ff" d="M246.99,-395.98C270.02,-387.27 306.04,-373.63 332.13,-363.75"/>
<polygon fill="#63b8ff" stroke="#63b8ff" points="333.48,-366.98 341.6,-360.17 331.01,-360.44 333.48,-366.98"/>
</a>
</g>
</g>
<!-- Node28 -->
<g id="Node000028" class="node">
<title>Node28</title>
<g id="a_Node000028"><a xlink:href="../../df/d4b/pretreat_8h.html" target="_top" xlink:title="Header of the image pretreating module">
<polygon fill="white" stroke="#666666" points="291,-360 158,-360 158,-341 291,-341 291,-360"/>
<text text-anchor="middle" x="224.5" y="-348" font-family="Helvetica,sans-Serif" font-size="10.00">rmvl/imgproc/pretreat.h</text>
</a>
</g>
</g>
<!-- Node3&#45;&gt;Node28 -->
<g id="edge30_Node000003_Node000028" class="edge">
<title>Node3&#45;&gt;Node28</title>
<g id="a_edge30_Node000003_Node000028"><a xlink:title=" ">
<path fill="none" stroke="#63b8ff" d="M224.5,-395.75C224.5,-388.8 224.5,-378.85 224.5,-370.13"/>
<polygon fill="#63b8ff" stroke="#63b8ff" points="228,-370.09 224.5,-360.09 221,-370.09 228,-370.09"/>
</a>
</g>
</g>
<!-- Node5 -->
<g id="Node000005" class="node">
<title>Node5</title>
<g id="a_Node000005"><a xlink:href="../../dc/ded/tracker_8h.html" target="_top" xlink:title="追踪器抽象头文件">
<polygon fill="white" stroke="#666666" points="432,-305 311,-305 311,-286 432,-286 432,-305"/>
<text text-anchor="middle" x="371.5" y="-293" font-family="Helvetica,sans-Serif" font-size="10.00">rmvl/tracker/tracker.h</text>
</a>
</g>
</g>
<!-- Node4&#45;&gt;Node5 -->
<g id="edge4_Node000004_Node000005" class="edge">
<title>Node4&#45;&gt;Node5</title>
<g id="a_edge4_Node000004_Node000005"><a xlink:title=" ">
<path fill="none" stroke="#63b8ff" d="M365.66,-340.75C366.57,-333.8 367.89,-323.85 369.04,-315.13"/>
<polygon fill="#63b8ff" stroke="#63b8ff" points="372.53,-315.46 370.37,-305.09 365.59,-314.54 372.53,-315.46"/>
</a>
</g>
</g>
<!-- Node6 -->
<g id="Node000006" class="node">
<title>Node6</title>
<g id="a_Node000006"><a xlink:title=" ">
<polygon fill="#e0e0e0" stroke="#999999" points="395,-244.5 348,-244.5 348,-225.5 395,-225.5 395,-244.5"/>
<text text-anchor="middle" x="371.5" y="-232.5" font-family="Helvetica,sans-Serif" font-size="10.00">deque</text>
</a>
</g>
</g>
<!-- Node5&#45;&gt;Node6 -->
<g id="edge5_Node000005_Node000006" class="edge">
<title>Node5&#45;&gt;Node6</title>
<g id="a_edge5_Node000005_Node000006"><a xlink:title=" ">
<path fill="none" stroke="#63b8ff" d="M371.5,-285.87C371.5,-277.75 371.5,-265.31 371.5,-254.89"/>
<polygon fill="#63b8ff" stroke="#63b8ff" points="375,-254.67 371.5,-244.67 368,-254.67 375,-254.67"/>
</a>
</g>
</g>
<!-- Node7 -->
<g id="Node000007" class="node">
<title>Node7</title>
<g id="a_Node000007"><a xlink:href="../../d8/d36/combo_8h.html" target="_top" xlink:title="the combination of the features header file">
<polygon fill="white" stroke="#666666" points="589.5,-244.5 469.5,-244.5 469.5,-225.5 589.5,-225.5 589.5,-244.5"/>
<text text-anchor="middle" x="529.5" y="-232.5" font-family="Helvetica,sans-Serif" font-size="10.00">rmvl/combo/combo.h</text>
</a>
</g>
</g>
<!-- Node5&#45;&gt;Node7 -->
<g id="edge6_Node000005_Node000007" class="edge">
<title>Node5&#45;&gt;Node7</title>
<g id="a_edge6_Node000005_Node000007"><a xlink:title=" ">
<path fill="none" stroke="#63b8ff" d="M394.47,-285.99C421.39,-276.03 466.17,-259.45 496.73,-248.13"/>
<polygon fill="#63b8ff" stroke="#63b8ff" points="498.34,-251.27 506.5,-244.52 495.9,-244.71 498.34,-251.27"/>
</a>
</g>
</g>
<!-- Node8 -->
<g id="Node000008" class="node">
<title>Node8</title>
<g id="a_Node000008"><a xlink:href="../../d3/d7e/camutils_8hpp.html" target="_top" xlink:title=" ">
<polygon fill="white" stroke="#666666" points="748,-184 603,-184 603,-165 748,-165 748,-184"/>
<text text-anchor="middle" x="675.5" y="-172" font-family="Helvetica,sans-Serif" font-size="10.00">rmvl/camera/camutils.hpp</text>
</a>
</g>
</g>
<!-- Node7&#45;&gt;Node8 -->
<g id="edge7_Node000007_Node000008" class="edge">
<title>Node7&#45;&gt;Node8</title>
<g id="a_edge7_Node000007_Node000008"><a xlink:title=" ">
<path fill="none" stroke="#63b8ff" d="M550.73,-225.49C575.49,-215.57 616.62,-199.09 644.85,-187.78"/>
<polygon fill="#63b8ff" stroke="#63b8ff" points="646.26,-190.99 654.24,-184.02 643.66,-184.49 646.26,-190.99"/>
</a>
</g>
</g>
<!-- Node10 -->
<g id="Node000010" class="node">
<title>Node10</title>
<g id="a_Node000010"><a xlink:href="../../dc/d71/uty__math_8hpp.html" target="_top" xlink:title=" ">
<polygon fill="white" stroke="#666666" points="305.5,-184 163.5,-184 163.5,-165 305.5,-165 305.5,-184"/>
<text text-anchor="middle" x="234.5" y="-172" font-family="Helvetica,sans-Serif" font-size="10.00">rmvl/rmath/uty_math.hpp</text>
</a>
</g>
</g>
<!-- Node7&#45;&gt;Node10 -->
<g id="edge9_Node000007_Node000010" class="edge">
<title>Node7&#45;&gt;Node10</title>
<g id="a_edge9_Node000007_Node000010"><a xlink:title=" ">
<path fill="none" stroke="#63b8ff" d="M486.6,-225.49C433.84,-215.03 344.29,-197.27 287.34,-185.98"/>
<polygon fill="#63b8ff" stroke="#63b8ff" points="287.94,-182.53 277.45,-184.02 286.58,-189.4 287.94,-182.53"/>
</a>
</g>
</g>
<!-- Node20 -->
<g id="Node000020" class="node">
<title>Node20</title>
<g id="a_Node000020"><a xlink:href="../../dd/de3/types_8hpp.html" target="_top" xlink:title="常用状态类型定义">
<polygon fill="white" stroke="#666666" points="844.5,-129 754.5,-129 754.5,-110 844.5,-110 844.5,-129"/>
<text text-anchor="middle" x="799.5" y="-117" font-family="Helvetica,sans-Serif" font-size="10.00">rmvl/types.hpp</text>
</a>
</g>
</g>
<!-- Node7&#45;&gt;Node20 -->
<g id="edge20_Node000007_Node000020" class="edge">
<title>Node7&#45;&gt;Node20</title>
<g id="a_edge20_Node000007_Node000020"><a xlink:title=" ">
<path fill="none" stroke="#63b8ff" d="M570.19,-225.48C634.7,-211.92 753.61,-186.67 757.5,-184 773.81,-172.81 785.41,-153 792.23,-138.47"/>
<polygon fill="#63b8ff" stroke="#63b8ff" points="795.56,-139.59 796.34,-129.03 789.14,-136.8 795.56,-139.59"/>
</a>
</g>
</g>
<!-- Node21 -->
<g id="Node000021" class="node">
<title>Node21</title>
<g id="a_Node000021"><a xlink:href="../../d5/d60/dataio_8hpp.html" target="_top" xlink:title="陀螺仪数据">
<polygon fill="white" stroke="#666666" points="584.5,-184 466.5,-184 466.5,-165 584.5,-165 584.5,-184"/>
<text text-anchor="middle" x="525.5" y="-172" font-family="Helvetica,sans-Serif" font-size="10.00">rmvl/core/dataio.hpp</text>
</a>
</g>
</g>
<!-- Node7&#45;&gt;Node21 -->
<g id="edge22_Node000007_Node000021" class="edge">
<title>Node7&#45;&gt;Node21</title>
<g id="a_edge22_Node000007_Node000021"><a xlink:title=" ">
<path fill="none" stroke="#63b8ff" d="M528.91,-225.37C528.35,-217.25 527.5,-204.81 526.79,-194.39"/>
<polygon fill="#63b8ff" stroke="#63b8ff" points="530.27,-193.91 526.09,-184.17 523.28,-194.38 530.27,-193.91"/>
</a>
</g>
</g>
<!-- Node25 -->
<g id="Node000025" class="node">
<title>Node25</title>
<g id="a_Node000025"><a xlink:href="../../d2/d74/feature_8h.html" target="_top" xlink:title="feature class header">
<polygon fill="white" stroke="#666666" points="930,-184 805,-184 805,-165 930,-165 930,-184"/>
<text text-anchor="middle" x="867.5" y="-172" font-family="Helvetica,sans-Serif" font-size="10.00">rmvl/feature/feature.h</text>
</a>
</g>
</g>
<!-- Node7&#45;&gt;Node25 -->
<g id="edge26_Node000007_Node000025" class="edge">
<title>Node7&#45;&gt;Node25</title>
<g id="a_edge26_Node000007_Node000025"><a xlink:title=" ">
<path fill="none" stroke="#63b8ff" d="M570.32,-225.46C579.57,-223.6 589.36,-221.68 598.5,-220 667.96,-207.21 747.84,-194.21 802.39,-185.59"/>
<polygon fill="#63b8ff" stroke="#63b8ff" points="802.94,-189.05 812.27,-184.04 801.85,-182.14 802.94,-189.05"/>
</a>
</g>
</g>
<!-- Node9 -->
<g id="Node000009" class="node">
<title>Node9</title>
<g id="a_Node000009"><a xlink:title=" ">
<polygon fill="#e0e0e0" stroke="#999999" points="736,-129 633,-129 633,-110 736,-110 736,-129"/>
<text text-anchor="middle" x="684.5" y="-117" font-family="Helvetica,sans-Serif" font-size="10.00">opencv2/core.hpp</text>
</a>
</g>
</g>
<!-- Node8&#45;&gt;Node9 -->
<g id="edge8_Node000008_Node000009" class="edge">
<title>Node8&#45;&gt;Node9</title>
<g id="a_edge8_Node000008_Node000009"><a xlink:title=" ">
<path fill="none" stroke="#63b8ff" d="M676.99,-164.75C678.17,-157.8 679.86,-147.85 681.34,-139.13"/>
<polygon fill="#63b8ff" stroke="#63b8ff" points="684.82,-139.53 683.04,-129.09 677.92,-138.36 684.82,-139.53"/>
</a>
</g>
</g>
<!-- Node10&#45;&gt;Node2 -->
<g id="edge11_Node000010_Node000002" class="edge">
<title>Node10&#45;&gt;Node2</title>
<g id="a_edge11_Node000010_Node000002"><a xlink:title=" ">
<path fill="none" stroke="#63b8ff" d="M204.29,-164.98C172.46,-156.01 122.14,-141.82 86.9,-131.89"/>
<polygon fill="#63b8ff" stroke="#63b8ff" points="87.52,-128.43 76.94,-129.08 85.62,-135.16 87.52,-128.43"/>
</a>
</g>
</g>
<!-- Node11 -->
<g id="Node000011" class="node">
<title>Node11</title>
<g id="a_Node000011"><a xlink:title=" ">
<polygon fill="#e0e0e0" stroke="#999999" points="158,-129 111,-129 111,-110 158,-110 158,-129"/>
<text text-anchor="middle" x="134.5" y="-117" font-family="Helvetica,sans-Serif" font-size="10.00">cmath</text>
</a>
</g>
</g>
<!-- Node10&#45;&gt;Node11 -->
<g id="edge10_Node000010_Node000011" class="edge">
<title>Node10&#45;&gt;Node11</title>
<g id="a_edge10_Node000010_Node000011"><a xlink:title=" ">
<path fill="none" stroke="#63b8ff" d="M218.43,-164.98C202.64,-156.61 178.28,-143.7 159.87,-133.95"/>
<polygon fill="#63b8ff" stroke="#63b8ff" points="161.33,-130.76 150.86,-129.17 158.06,-136.95 161.33,-130.76"/>
</a>
</g>
</g>
<!-- Node12 -->
<g id="Node000012" class="node">
<title>Node12</title>
<g id="a_Node000012"><a xlink:title=" ">
<polygon fill="#e0e0e0" stroke="#999999" points="235,-129 176,-129 176,-110 235,-110 235,-129"/>
<text text-anchor="middle" x="205.5" y="-117" font-family="Helvetica,sans-Serif" font-size="10.00">numbers</text>
</a>
</g>
</g>
<!-- Node10&#45;&gt;Node12 -->
<g id="edge12_Node000010_Node000012" class="edge">
<title>Node10&#45;&gt;Node12</title>
<g id="a_edge12_Node000010_Node000012"><a xlink:title=" ">
<path fill="none" stroke="#63b8ff" d="M229.71,-164.75C225.74,-157.49 219.97,-146.95 215.07,-137.98"/>
<polygon fill="#63b8ff" stroke="#63b8ff" points="218.07,-136.18 210.2,-129.09 211.93,-139.54 218.07,-136.18"/>
</a>
</g>
</g>
<!-- Node13 -->
<g id="Node000013" class="node">
<title>Node13</title>
<g id="a_Node000013"><a xlink:title=" ">
<polygon fill="#e0e0e0" stroke="#999999" points="423,-129 292,-129 292,-110 423,-110 423,-129"/>
<text text-anchor="middle" x="357.5" y="-117" font-family="Helvetica,sans-Serif" font-size="10.00">opencv2/core/matx.hpp</text>
</a>
</g>
</g>
<!-- Node10&#45;&gt;Node13 -->
<g id="edge13_Node000010_Node000013" class="edge">
<title>Node10&#45;&gt;Node13</title>
<g id="a_edge13_Node000010_Node000013"><a xlink:title=" ">
<path fill="none" stroke="#63b8ff" d="M254.26,-164.98C274.23,-156.38 305.3,-142.99 328.15,-133.15"/>
<polygon fill="#63b8ff" stroke="#63b8ff" points="329.58,-136.34 337.38,-129.17 326.81,-129.91 329.58,-136.34"/>
</a>
</g>
</g>
<!-- Node14 -->
<g id="Node000014" class="node">
<title>Node14</title>
<g id="a_Node000014"><a xlink:href="../../d0/d3f/util_8hpp.html" target="_top" xlink:title=" ">
<polygon fill="white" stroke="#666666" points="583,-74 480,-74 480,-55 583,-55 583,-74"/>
<text text-anchor="middle" x="531.5" y="-62" font-family="Helvetica,sans-Serif" font-size="10.00">rmvl/core/util.hpp</text>
</a>
</g>
</g>
<!-- Node10&#45;&gt;Node14 -->
<g id="edge14_Node000010_Node000014" class="edge">
<title>Node10&#45;&gt;Node14</title>
<g id="a_edge14_Node000010_Node000014"><a xlink:title=" ">
<path fill="none" stroke="#63b8ff" d="M238.52,-164.87C245.53,-150.87 261.36,-123.44 283.5,-110 314.05,-91.46 406.64,-78.45 469.62,-71.48"/>
<polygon fill="#63b8ff" stroke="#63b8ff" points="470.29,-74.92 479.85,-70.37 469.53,-67.96 470.29,-74.92"/>
</a>
</g>
</g>
<!-- Node15 -->
<g id="Node000015" class="node">
<title>Node15</title>
<g id="a_Node000015"><a xlink:title=" ">
<polygon fill="#e0e0e0" stroke="#999999" points="422,-19 289,-19 289,0 422,0 422,-19"/>
<text text-anchor="middle" x="355.5" y="-7" font-family="Helvetica,sans-Serif" font-size="10.00">rmvl/rmvl_modules.hpp</text>
</a>
</g>
</g>
<!-- Node14&#45;&gt;Node15 -->
<g id="edge15_Node000014_Node000015" class="edge">
<title>Node14&#45;&gt;Node15</title>
<g id="a_edge15_Node000014_Node000015"><a xlink:title=" ">
<path fill="none" stroke="#63b8ff" d="M503.22,-54.98C473.55,-46.05 426.71,-31.94 393.75,-22.02"/>
<polygon fill="#63b8ff" stroke="#63b8ff" points="394.58,-18.61 384,-19.08 392.57,-25.32 394.58,-18.61"/>
</a>
</g>
</g>
<!-- Node16 -->
<g id="Node000016" class="node">
<title>Node16</title>
<g id="a_Node000016"><a xlink:title=" ">
<polygon fill="#e0e0e0" stroke="#999999" points="490.5,-19 440.5,-19 440.5,0 490.5,0 490.5,-19"/>
<text text-anchor="middle" x="465.5" y="-7" font-family="Helvetica,sans-Serif" font-size="10.00">cstdint</text>
</a>
</g>
</g>
<!-- Node14&#45;&gt;Node16 -->
<g id="edge16_Node000014_Node000016" class="edge">
<title>Node14&#45;&gt;Node16</title>
<g id="a_edge16_Node000014_Node000016"><a xlink:title=" ">
<path fill="none" stroke="#63b8ff" d="M520.9,-54.98C511.04,-47.07 496.15,-35.11 484.28,-25.58"/>
<polygon fill="#63b8ff" stroke="#63b8ff" points="486.29,-22.7 476.3,-19.17 481.9,-28.16 486.29,-22.7"/>
</a>
</g>
</g>
<!-- Node17 -->
<g id="Node000017" class="node">
<title>Node17</title>
<g id="a_Node000017"><a xlink:title=" ">
<polygon fill="#e0e0e0" stroke="#999999" points="554.5,-19 508.5,-19 508.5,0 554.5,0 554.5,-19"/>
<text text-anchor="middle" x="531.5" y="-7" font-family="Helvetica,sans-Serif" font-size="10.00">cstdio</text>
</a>
</g>
</g>
<!-- Node14&#45;&gt;Node17 -->
<g id="edge17_Node000014_Node000017" class="edge">
<title>Node14&#45;&gt;Node17</title>
<g id="a_edge17_Node000014_Node000017"><a xlink:title=" ">
<path fill="none" stroke="#63b8ff" d="M531.5,-54.75C531.5,-47.8 531.5,-37.85 531.5,-29.13"/>
<polygon fill="#63b8ff" stroke="#63b8ff" points="535,-29.09 531.5,-19.09 528,-29.09 535,-29.09"/>
</a>
</g>
</g>
<!-- Node18 -->
<g id="Node000018" class="node">
<title>Node18</title>
<g id="a_Node000018"><a xlink:title=" ">
<polygon fill="#e0e0e0" stroke="#999999" points="616.5,-19 572.5,-19 572.5,0 616.5,0 616.5,-19"/>
<text text-anchor="middle" x="594.5" y="-7" font-family="Helvetica,sans-Serif" font-size="10.00">string</text>
</a>
</g>
</g>
<!-- Node14&#45;&gt;Node18 -->
<g id="edge18_Node000014_Node000018" class="edge">
<title>Node14&#45;&gt;Node18</title>
<g id="a_edge18_Node000014_Node000018"><a xlink:title=" ">
<path fill="none" stroke="#63b8ff" d="M541.62,-54.98C550.94,-47.15 564.97,-35.34 576.24,-25.86"/>
<polygon fill="#63b8ff" stroke="#63b8ff" points="578.79,-28.29 584.19,-19.17 574.29,-22.93 578.79,-28.29"/>
</a>
</g>
</g>
<!-- Node19 -->
<g id="Node000019" class="node">
<title>Node19</title>
<g id="a_Node000019"><a xlink:href="../../db/d41/rmvldef_8hpp.html" target="_top" xlink:title=" ">
<polygon fill="white" stroke="#666666" points="710,-19 635,-19 635,0 710,0 710,-19"/>
<text text-anchor="middle" x="672.5" y="-7" font-family="Helvetica,sans-Serif" font-size="10.00">rmvldef.hpp</text>
</a>
</g>
</g>
<!-- Node14&#45;&gt;Node19 -->
<g id="edge19_Node000014_Node000019" class="edge">
<title>Node14&#45;&gt;Node19</title>
<g id="a_edge19_Node000014_Node000019"><a xlink:title=" ">
<path fill="none" stroke="#63b8ff" d="M554.15,-54.98C577.35,-46.27 613.62,-32.63 639.9,-22.75"/>
<polygon fill="#63b8ff" stroke="#63b8ff" points="641.3,-25.97 649.43,-19.17 638.84,-19.41 641.3,-25.97"/>
</a>
</g>
</g>
<!-- Node20&#45;&gt;Node14 -->
<g id="edge21_Node000020_Node000014" class="edge">
<title>Node20&#45;&gt;Node14</title>
<g id="a_edge21_Node000020_Node000014"><a xlink:title=" ">
<path fill="none" stroke="#63b8ff" d="M756.44,-109.98C709.79,-100.76 635.3,-86.03 584.94,-76.07"/>
<polygon fill="#63b8ff" stroke="#63b8ff" points="585.39,-72.59 574.9,-74.08 584.03,-79.46 585.39,-72.59"/>
</a>
</g>
</g>
<!-- Node22 -->
<g id="Node000022" class="node">
<title>Node22</title>
<g id="a_Node000022"><a xlink:title=" ">
<polygon fill="#e0e0e0" stroke="#999999" points="483.5,-129 441.5,-129 441.5,-110 483.5,-110 483.5,-129"/>
<text text-anchor="middle" x="462.5" y="-117" font-family="Helvetica,sans-Serif" font-size="10.00">array</text>
</a>
</g>
</g>
<!-- Node21&#45;&gt;Node22 -->
<g id="edge23_Node000021_Node000022" class="edge">
<title>Node21&#45;&gt;Node22</title>
<g id="a_edge23_Node000021_Node000022"><a xlink:title=" ">
<path fill="none" stroke="#63b8ff" d="M515.38,-164.98C506.06,-157.15 492.03,-145.34 480.76,-135.86"/>
<polygon fill="#63b8ff" stroke="#63b8ff" points="482.71,-132.93 472.81,-129.17 478.21,-138.29 482.71,-132.93"/>
</a>
</g>
</g>
<!-- Node23 -->
<g id="Node000023" class="node">
<title>Node23</title>
<g id="a_Node000023"><a xlink:title=" ">
<polygon fill="#e0e0e0" stroke="#999999" points="549.5,-129 501.5,-129 501.5,-110 549.5,-110 549.5,-129"/>
<text text-anchor="middle" x="525.5" y="-117" font-family="Helvetica,sans-Serif" font-size="10.00">iosfwd</text>
</a>
</g>
</g>
<!-- Node21&#45;&gt;Node23 -->
<g id="edge24_Node000021_Node000023" class="edge">
<title>Node21&#45;&gt;Node23</title>
<g id="a_edge24_Node000021_Node000023"><a xlink:title=" ">
<path fill="none" stroke="#63b8ff" d="M525.5,-164.75C525.5,-157.8 525.5,-147.85 525.5,-139.13"/>
<polygon fill="#63b8ff" stroke="#63b8ff" points="529,-139.09 525.5,-129.09 522,-139.09 529,-139.09"/>
</a>
</g>
</g>
<!-- Node24 -->
<g id="Node000024" class="node">
<title>Node24</title>
<g id="a_Node000024"><a xlink:title=" ">
<polygon fill="#e0e0e0" stroke="#999999" points="615,-129 568,-129 568,-110 615,-110 615,-129"/>
<text text-anchor="middle" x="591.5" y="-117" font-family="Helvetica,sans-Serif" font-size="10.00">vector</text>
</a>
</g>
</g>
<!-- Node21&#45;&gt;Node24 -->
<g id="edge25_Node000021_Node000024" class="edge">
<title>Node21&#45;&gt;Node24</title>
<g id="a_edge25_Node000021_Node000024"><a xlink:title=" ">
<path fill="none" stroke="#63b8ff" d="M536.1,-164.98C545.96,-157.07 560.85,-145.11 572.72,-135.58"/>
<polygon fill="#63b8ff" stroke="#63b8ff" points="575.1,-138.16 580.7,-129.17 570.71,-132.7 575.1,-138.16"/>
</a>
</g>
</g>
<!-- Node25&#45;&gt;Node20 -->
<g id="edge29_Node000025_Node000020" class="edge">
<title>Node25&#45;&gt;Node20</title>
<g id="a_edge29_Node000025_Node000020"><a xlink:title=" ">
<path fill="none" stroke="#63b8ff" d="M856.57,-164.98C846.42,-157.07 831.08,-145.11 818.85,-135.58"/>
<polygon fill="#63b8ff" stroke="#63b8ff" points="820.66,-132.56 810.62,-129.17 816.36,-138.08 820.66,-132.56"/>
</a>
</g>
</g>
<!-- Node26 -->
<g id="Node000026" class="node">
<title>Node26</title>
<g id="a_Node000026"><a xlink:title=" ">
<polygon fill="#e0e0e0" stroke="#999999" points="920.5,-129 862.5,-129 862.5,-110 920.5,-110 920.5,-129"/>
<text text-anchor="middle" x="891.5" y="-117" font-family="Helvetica,sans-Serif" font-size="10.00">memory</text>
</a>
</g>
</g>
<!-- Node25&#45;&gt;Node26 -->
<g id="edge27_Node000025_Node000026" class="edge">
<title>Node25&#45;&gt;Node26</title>
<g id="a_edge27_Node000025_Node000026"><a xlink:title=" ">
<path fill="none" stroke="#63b8ff" d="M871.46,-164.75C874.71,-157.57 879.42,-147.18 883.45,-138.27"/>
<polygon fill="#63b8ff" stroke="#63b8ff" points="886.67,-139.64 887.61,-129.09 880.3,-136.75 886.67,-139.64"/>
</a>
</g>
</g>
<!-- Node27 -->
<g id="Node000027" class="node">
<title>Node27</title>
<g id="a_Node000027"><a xlink:title=" ">
<polygon fill="#e0e0e0" stroke="#999999" points="1072,-129 939,-129 939,-110 1072,-110 1072,-129"/>
<text text-anchor="middle" x="1005.5" y="-117" font-family="Helvetica,sans-Serif" font-size="10.00">opencv2/core/types.hpp</text>
</a>
</g>
</g>
<!-- Node25&#45;&gt;Node27 -->
<g id="edge28_Node000025_Node000027" class="edge">
<title>Node25&#45;&gt;Node27</title>
<g id="a_edge28_Node000025_Node000027"><a xlink:title=" ">
<path fill="none" stroke="#63b8ff" d="M889.67,-164.98C912.27,-156.3 947.56,-142.75 973.25,-132.88"/>
<polygon fill="#63b8ff" stroke="#63b8ff" points="974.84,-136.02 982.92,-129.17 972.33,-129.49 974.84,-136.02"/>
</a>
</g>
</g>
<!-- Node29 -->
<g id="Node000029" class="node">
<title>Node29</title>
<g id="a_Node000029"><a xlink:title=" ">
<polygon fill="#e0e0e0" stroke="#999999" points="246,-305 121,-305 121,-286 246,-286 246,-305"/>
<text text-anchor="middle" x="183.5" y="-293" font-family="Helvetica,sans-Serif" font-size="10.00">opencv2/core/mat.hpp</text>
</a>
</g>
</g>
<!-- Node28&#45;&gt;Node29 -->
<g id="edge31_Node000028_Node000029" class="edge">
<title>Node28&#45;&gt;Node29</title>
<g id="a_edge31_Node000028_Node000029"><a xlink:title=" ">
<path fill="none" stroke="#63b8ff" d="M217.73,-340.75C211.94,-333.26 203.44,-322.28 196.36,-313.13"/>
<polygon fill="#63b8ff" stroke="#63b8ff" points="199.03,-310.86 190.14,-305.09 193.49,-315.14 199.03,-310.86"/>
</a>
</g>
</g>
<!-- Node30&#45;&gt;Node29 -->
<g id="edge33_Node000030_Node000029" class="edge">
<title>Node30&#45;&gt;Node29</title>
<g id="a_edge33_Node000030_Node000029"><a xlink:title=" ">
<path fill="none" stroke="#63b8ff" d="M132.67,-395.89C134.64,-383.3 139.31,-359.37 148.5,-341 153.59,-330.82 161.24,-320.75 168.09,-312.77"/>
<polygon fill="#63b8ff" stroke="#63b8ff" points="170.72,-315.07 174.79,-305.29 165.51,-310.4 170.72,-315.07"/>
</a>
</g>
</g>
<!-- Node31&#45;&gt;Node5 -->
<g id="edge42_Node000031_Node000005" class="edge">
<title>Node31&#45;&gt;Node5</title>
<g id="a_edge42_Node000031_Node000005"><a xlink:title=" ">
<path fill="none" stroke="#63b8ff" d="M489.01,-340.98C465.98,-332.27 429.96,-318.63 403.87,-308.75"/>
<polygon fill="#63b8ff" stroke="#63b8ff" points="404.99,-305.44 394.4,-305.17 402.52,-311.98 404.99,-305.44"/>
</a>
</g>
</g>
<!-- Node32 -->
<g id="Node000032" class="node">
<title>Node32</title>
<g id="a_Node000032"><a xlink:href="../../dd/d92/combo_2armor_8h.html" target="_top" xlink:title="装甲板类头文件">
<polygon fill="white" stroke="#666666" points="712.5,-305 596.5,-305 596.5,-286 712.5,-286 712.5,-305"/>
<text text-anchor="middle" x="654.5" y="-293" font-family="Helvetica,sans-Serif" font-size="10.00">rmvl/combo/armor.h</text>
</a>
</g>
</g>
<!-- Node31&#45;&gt;Node32 -->
<g id="edge35_Node000031_Node000032" class="edge">
<title>Node31&#45;&gt;Node32</title>
<g id="a_edge35_Node000031_Node000032"><a xlink:title=" ">
<path fill="none" stroke="#63b8ff" d="M534.48,-340.98C558,-332.27 594.79,-318.63 621.44,-308.75"/>
<polygon fill="#63b8ff" stroke="#63b8ff" points="622.95,-311.93 631.11,-305.17 620.51,-305.36 622.95,-311.93"/>
</a>
</g>
</g>
<!-- Node35 -->
<g id="Node000035" class="node">
<title>Node35</title>
<g id="a_Node000035"><a xlink:href="../../db/d0f/kalman_8hpp.html" target="_top" xlink:title="包含轻量级 cv::Matx 的卡尔曼滤波模块">
<polygon fill="white" stroke="#666666" points="573,-305 450,-305 450,-286 573,-286 573,-305"/>
<text text-anchor="middle" x="511.5" y="-293" font-family="Helvetica,sans-Serif" font-size="10.00">rmvl/core/kalman.hpp</text>
</a>
</g>
</g>
<!-- Node31&#45;&gt;Node35 -->
<g id="edge40_Node000031_Node000035" class="edge">
<title>Node31&#45;&gt;Node35</title>
<g id="a_edge40_Node000031_Node000035"><a xlink:title=" ">
<path fill="none" stroke="#63b8ff" d="M511.5,-340.75C511.5,-333.8 511.5,-323.85 511.5,-315.13"/>
<polygon fill="#63b8ff" stroke="#63b8ff" points="515,-315.09 511.5,-305.09 508,-315.09 515,-315.09"/>
</a>
</g>
</g>
<!-- Node32&#45;&gt;Node7 -->
<g id="edge37_Node000032_Node000007" class="edge">
<title>Node32&#45;&gt;Node7</title>
<g id="a_edge37_Node000032_Node000007"><a xlink:title=" ">
<path fill="none" stroke="#63b8ff" d="M636.32,-285.99C615.49,-276.25 581.13,-260.16 557.02,-248.88"/>
<polygon fill="#63b8ff" stroke="#63b8ff" points="558.24,-245.59 547.7,-244.52 555.27,-251.93 558.24,-245.59"/>
</a>
</g>
</g>
<!-- Node33 -->
<g id="Node000033" class="node">
<title>Node33</title>
<g id="a_Node000033"><a xlink:title=" ">
<polygon fill="#e0e0e0" stroke="#999999" points="823,-244.5 728,-244.5 728,-225.5 823,-225.5 823,-244.5"/>
<text text-anchor="middle" x="775.5" y="-232.5" font-family="Helvetica,sans-Serif" font-size="10.00">opencv2/ml.hpp</text>
</a>
</g>
</g>
<!-- Node32&#45;&gt;Node33 -->
<g id="edge36_Node000032_Node000033" class="edge">
<title>Node32&#45;&gt;Node33</title>
<g id="a_edge36_Node000032_Node000033"><a xlink:title=" ">
<path fill="none" stroke="#63b8ff" d="M672.09,-285.99C692.26,-276.25 725.52,-260.16 748.86,-248.88"/>
<polygon fill="#63b8ff" stroke="#63b8ff" points="750.4,-252.02 757.88,-244.52 747.36,-245.72 750.4,-252.02"/>
</a>
</g>
</g>
<!-- Node34 -->
<g id="Node000034" class="node">
<title>Node34</title>
<g id="a_Node000034"><a xlink:href="../../d4/d54/feature_2light__blob_8h.html" target="_top" xlink:title="灯条类头文件">
<polygon fill="white" stroke="#666666" points="709.5,-250 607.5,-250 607.5,-220 709.5,-220 709.5,-250"/>
<text text-anchor="start" x="615.5" y="-238" font-family="Helvetica,sans-Serif" font-size="10.00">rmvl/feature/light</text>
<text text-anchor="middle" x="658.5" y="-227" font-family="Helvetica,sans-Serif" font-size="10.00">_blob.h</text>
</a>
</g>
</g>
<!-- Node32&#45;&gt;Node34 -->
<g id="edge38_Node000032_Node000034" class="edge">
<title>Node32&#45;&gt;Node34</title>
<g id="a_edge38_Node000032_Node000034"><a xlink:title=" ">
<path fill="none" stroke="#63b8ff" d="M655.09,-285.87C655.55,-279.11 656.22,-269.35 656.84,-260.26"/>
<polygon fill="#63b8ff" stroke="#63b8ff" points="660.34,-260.33 657.53,-250.11 653.36,-259.85 660.34,-260.33"/>
</a>
</g>
</g>
<!-- Node34&#45;&gt;Node25 -->
<g id="edge39_Node000034_Node000025" class="edge">
<title>Node34&#45;&gt;Node25</title>
<g id="a_edge39_Node000034_Node000025"><a xlink:title=" ">
<path fill="none" stroke="#63b8ff" d="M708.56,-219.99C744.79,-209.85 793.12,-196.32 826.94,-186.85"/>
<polygon fill="#63b8ff" stroke="#63b8ff" points="828.25,-190.12 836.94,-184.05 826.37,-183.38 828.25,-190.12"/>
</a>
</g>
</g>
<!-- Node35&#45;&gt;Node13 -->
<g id="edge41_Node000035_Node000013" class="edge">
<title>Node35&#45;&gt;Node13</title>
<g id="a_edge41_Node000035_Node000013"><a xlink:title=" ">
<path fill="none" stroke="#63b8ff" d="M500.44,-285.83C489.75,-277.23 473.33,-263.42 460.5,-250 424.44,-212.26 387.69,-162.86 369.38,-137.36"/>
<polygon fill="#63b8ff" stroke="#63b8ff" points="372.16,-135.23 363.51,-129.11 366.46,-139.29 372.16,-135.23"/>
</a>
</g>
</g>
</g>
</svg>

<g id="navigator" transform="translate(0 0)" fill="#404254">
  <rect fill="#f2f5e9" fill-opacity="0.5" stroke="#606060" stroke-width=".5" x="0" y="0" width="60" height="60"/>
  <use id="zoomplus" xlink:href="#zoomPlus" x="17" y="9" onmousedown="handleZoom(evt,'in')"/>
  <use id="zoomminus" xlink:href="#zoomMin" x="42" y="9" onmousedown="handleZoom(evt,'out')"/>
  <use id="reset" xlink:href="#resetDef" x="30" y="36" onmousedown="handleReset()"/>
   <use id="arrowup" xlink:href="#arrowUp" x="0" y="0" onmousedown="handlePan(0,-1)"/>
  <use id="arrowright" xlink:href="#arrowRight" x="0" y="0" onmousedown="handlePan(1,0)"/>
  <use id="arrowdown" xlink:href="#arrowDown" x="0" y="0" onmousedown="handlePan(0,1)"/>
  <use id="arrowleft" xlink:href="#arrowLeft" x="0" y="0" onmousedown="handlePan(-1,0)"/>
</g>
<svg viewBox="0 0 15 15" width="100%" height="30px" preserveAspectRatio="xMaxYMin meet">
 <g id="arrow_out" transform="scale(0.3 0.3)">
  <a xlink:href="detector_2gyro__detector_8h__incl_org.svg" target="_base">
   <rect id="button" ry="5" rx="5" y="6" x="6" height="38" width="38"
        fill="#f2f5e9" fill-opacity="0.5" stroke="#606060" stroke-width="1.0"/>
   <path id="arrow"
     d="M 11.500037,31.436501 C 11.940474,20.09759 22.043105,11.32322 32.158766,21.979434 L 37.068811,17.246167 C 37.068811,17.246167 37.088388,32 37.088388,32 L 22.160133,31.978069 C 22.160133,31.978069 26.997745,27.140456 26.997745,27.140456 C 18.528582,18.264221 13.291696,25.230495 11.500037,31.436501 z"
     style="fill:#404040;"/>
  </a>
 </g>
</svg>

<style type='text/css'>
<![CDATA[
[data-mouse-over-selected='false'] { opacity: 0.7; }
[data-mouse-over-selected='true']  { opacity: 1.0; }
]]>
</style>
<script type="application/ecmascript"><![CDATA[
document.addEventListener('DOMContentLoaded', (event) => {
  highlightEdges();
  highlightAdjacentNodes();
});
]]></script>
</svg>
