<?xml version="1.0" encoding="UTF-8" standalone="no"?>
<!DOCTYPE svg PUBLIC "-//W3C//DTD SVG 1.1//EN"
 "http://www.w3.org/Graphics/SVG/1.1/DTD/svg11.dtd">
<!-- Generated by graphviz version 2.43.0 (0)
 -->
<!-- Title: rm::ExtendedKalmanFilter&lt; Tp, StateDim, MeasureDim &gt; Pages: 1 -->
<svg width="658pt" height="518pt"
 viewBox="0.00 0.00 657.50 518.00" xmlns="http://www.w3.org/2000/svg" xmlns:xlink="http://www.w3.org/1999/xlink">
<g id="graph0" class="graph" transform="scale(1 1) rotate(0) translate(4 514)">
<title>rm::ExtendedKalmanFilter&lt; Tp, StateDim, MeasureDim &gt;</title>
<!-- Node1 -->
<g id="Node000001" class="node">
<title>Node1</title>
<g id="a_Node000001"><a xlink:title="扩展卡尔曼滤波器">
<polygon fill="#999999" stroke="transparent" points="416.5,-180 267.5,-180 267.5,0 416.5,0 416.5,-180"/>
<text text-anchor="start" x="273" y="-168" font-family="Helvetica,sans-Serif" font-size="10.00">rm::ExtendedKalmanFilter</text>
<text text-anchor="start" x="273" y="-157" font-family="Helvetica,sans-Serif" font-size="10.00">&lt; Tp, StateDim, MeasureDim &gt;</text>
<text text-anchor="start" x="340.5" y="-142" font-family="Helvetica,sans-Serif" font-size="10.00"> </text>
<text text-anchor="start" x="278.5" y="-127" font-family="Helvetica,sans-Serif" font-size="10.00">+</text>
<text text-anchor="start" x="296" y="-127" font-family="Helvetica,sans-Serif" font-size="10.00">ExtendedKalmanFilter()</text>
<text text-anchor="start" x="278.5" y="-112" font-family="Helvetica,sans-Serif" font-size="10.00">+</text>
<text text-anchor="start" x="296" y="-112" font-family="Helvetica,sans-Serif" font-size="10.00">setJa()</text>
<text text-anchor="start" x="278.5" y="-97" font-family="Helvetica,sans-Serif" font-size="10.00">+</text>
<text text-anchor="start" x="296" y="-97" font-family="Helvetica,sans-Serif" font-size="10.00">setJh()</text>
<text text-anchor="start" x="278.5" y="-82" font-family="Helvetica,sans-Serif" font-size="10.00">+</text>
<text text-anchor="start" x="296" y="-82" font-family="Helvetica,sans-Serif" font-size="10.00">setFa()</text>
<text text-anchor="start" x="278.5" y="-67" font-family="Helvetica,sans-Serif" font-size="10.00">+</text>
<text text-anchor="start" x="296" y="-67" font-family="Helvetica,sans-Serif" font-size="10.00">setFh()</text>
<text text-anchor="start" x="278.5" y="-52" font-family="Helvetica,sans-Serif" font-size="10.00">+</text>
<text text-anchor="start" x="296" y="-52" font-family="Helvetica,sans-Serif" font-size="10.00">setW()</text>
<text text-anchor="start" x="278.5" y="-37" font-family="Helvetica,sans-Serif" font-size="10.00">+</text>
<text text-anchor="start" x="296" y="-37" font-family="Helvetica,sans-Serif" font-size="10.00">setV()</text>
<text text-anchor="start" x="278.5" y="-22" font-family="Helvetica,sans-Serif" font-size="10.00">+</text>
<text text-anchor="start" x="296" y="-22" font-family="Helvetica,sans-Serif" font-size="10.00">predict()</text>
<text text-anchor="start" x="278.5" y="-7" font-family="Helvetica,sans-Serif" font-size="10.00">+</text>
<text text-anchor="start" x="296" y="-7" font-family="Helvetica,sans-Serif" font-size="10.00">correct()</text>
<polygon fill="#666666" stroke="#666666" points="268,-152 268,-152 417,-152 417,-152 268,-152"/>
<polygon fill="#666666" stroke="#666666" points="268,-137 268,-137 417,-137 417,-137 268,-137"/>
<polygon fill="none" stroke="#666666" points="267.5,0 267.5,-180 416.5,-180 416.5,0 267.5,0"/>
</a>
</g>
</g>
<!-- Node2 -->
<g id="Node000002" class="node">
<title>Node2</title>
<g id="a_Node000002"><a xlink:href="../../df/d1a/classrm_1_1KalmanFilterStaticDatas.html" target="_top" xlink:title="卡尔曼滤波静态数据">
<polygon fill="white" stroke="transparent" points="416.5,-352 267.5,-352 267.5,-217 416.5,-217 416.5,-352"/>
<text text-anchor="start" x="273" y="-339.5" font-family="Helvetica,sans-Serif" font-size="10.00">rm::KalmanFilterStaticDatas</text>
<text text-anchor="start" x="273" y="-328.5" font-family="Helvetica,sans-Serif" font-size="10.00">&lt; Tp, StateDim, MeasureDim &gt;</text>
<text text-anchor="start" x="340.5" y="-313.5" font-family="Helvetica,sans-Serif" font-size="10.00"> </text>
<text text-anchor="start" x="276" y="-298.5" font-family="Helvetica,sans-Serif" font-size="10.00">+</text>
<text text-anchor="start" x="291" y="-298.5" font-family="Helvetica,sans-Serif" font-size="10.00">KalmanFilterStaticDatas()</text>
<text text-anchor="start" x="276" y="-283.5" font-family="Helvetica,sans-Serif" font-size="10.00">+</text>
<text text-anchor="start" x="291" y="-283.5" font-family="Helvetica,sans-Serif" font-size="10.00">init()</text>
<text text-anchor="start" x="276" y="-268.5" font-family="Helvetica,sans-Serif" font-size="10.00">+</text>
<text text-anchor="start" x="291" y="-268.5" font-family="Helvetica,sans-Serif" font-size="10.00">init()</text>
<text text-anchor="start" x="276" y="-253.5" font-family="Helvetica,sans-Serif" font-size="10.00">+</text>
<text text-anchor="start" x="291" y="-253.5" font-family="Helvetica,sans-Serif" font-size="10.00">setR()</text>
<text text-anchor="start" x="276" y="-238.5" font-family="Helvetica,sans-Serif" font-size="10.00">+</text>
<text text-anchor="start" x="291" y="-238.5" font-family="Helvetica,sans-Serif" font-size="10.00">setQ()</text>
<text text-anchor="start" x="276" y="-223.5" font-family="Helvetica,sans-Serif" font-size="10.00">+</text>
<text text-anchor="start" x="291" y="-223.5" font-family="Helvetica,sans-Serif" font-size="10.00">setP()</text>
<polygon fill="#666666" stroke="#666666" points="268,-323.5 268,-323.5 417,-323.5 417,-323.5 268,-323.5"/>
<polygon fill="#666666" stroke="#666666" points="268,-308.5 268,-308.5 417,-308.5 417,-308.5 268,-308.5"/>
<polygon fill="none" stroke="#666666" points="267.5,-217 267.5,-352 416.5,-352 416.5,-217 267.5,-217"/>
</a>
</g>
</g>
<!-- Node2&#45;&gt;Node1 -->
<g id="edge1_Node000001_Node000002" class="edge">
<title>Node2&#45;&gt;Node1</title>
<g id="a_edge1_Node000001_Node000002"><a xlink:title=" ">
<path fill="none" stroke="#63b8ff" d="M342,-206.85C342,-198.11 342,-189.15 342,-180.27"/>
<polygon fill="none" stroke="#63b8ff" points="338.5,-206.98 342,-216.98 345.5,-206.98 338.5,-206.98"/>
</a>
</g>
</g>
<!-- Node3 -->
<g id="Node000003" class="node">
<title>Node3</title>
<g id="a_Node000003"><a xlink:title=" ">
<polygon fill="white" stroke="transparent" points="120,-504.5 0,-504.5 0,-455.5 120,-455.5 120,-504.5"/>
<text text-anchor="start" x="5" y="-492" font-family="Helvetica,sans-Serif" font-size="10.00">Matx&lt; Tp, StateDim, 1 &gt;</text>
<text text-anchor="start" x="58" y="-477" font-family="Helvetica,sans-Serif" font-size="10.00"> </text>
<text text-anchor="start" x="58" y="-462" font-family="Helvetica,sans-Serif" font-size="10.00"> </text>
<polygon fill="#666666" stroke="#666666" points="0,-487 0,-487 120,-487 120,-487 0,-487"/>
<polygon fill="#666666" stroke="#666666" points="0,-472 0,-472 120,-472 120,-472 0,-472"/>
<polygon fill="none" stroke="#666666" points="0,-455.5 0,-504.5 120,-504.5 120,-455.5 0,-455.5"/>
</a>
</g>
</g>
<!-- Node3&#45;&gt;Node2 -->
<g id="edge2_Node000002_Node000003" class="edge">
<title>Node3&#45;&gt;Node2</title>
<g id="a_edge2_Node000002_Node000003"><a xlink:title=" ">
<path fill="none" stroke="#63b8ff" d="M93.35,-455.43C124.84,-433.22 173.47,-399.12 216,-370 229.29,-360.9 243.42,-351.33 257.24,-342.02"/>
<polygon fill="none" stroke="#63b8ff" points="257.26,-342.01 260.01,-335.34 267.22,-335.31 264.47,-341.98 257.26,-342.01"/>
</a>
</g>
<text text-anchor="start" x="219" y="-406" font-family="Helvetica,sans-Serif" font-size="10.00" fill="grey">#x</text>
<text text-anchor="start" x="219" y="-391" font-family="Helvetica,sans-Serif" font-size="10.00" fill="grey">#x_</text>
</g>
<!-- Node4 -->
<g id="Node000004" class="node">
<title>Node4</title>
<g id="a_Node000004"><a xlink:title=" ">
<polygon fill="white" stroke="transparent" points="272,-504.5 138,-504.5 138,-455.5 272,-455.5 272,-504.5"/>
<text text-anchor="start" x="143" y="-492" font-family="Helvetica,sans-Serif" font-size="10.00">Matx&lt; Tp, MeasureDim, 1 &gt;</text>
<text text-anchor="start" x="203" y="-477" font-family="Helvetica,sans-Serif" font-size="10.00"> </text>
<text text-anchor="start" x="203" y="-462" font-family="Helvetica,sans-Serif" font-size="10.00"> </text>
<polygon fill="#666666" stroke="#666666" points="138,-487 138,-487 272,-487 272,-487 138,-487"/>
<polygon fill="#666666" stroke="#666666" points="138,-472 138,-472 272,-472 272,-472 138,-472"/>
<polygon fill="none" stroke="#666666" points="138,-455.5 138,-504.5 272,-504.5 272,-455.5 138,-455.5"/>
</a>
</g>
</g>
<!-- Node4&#45;&gt;Node2 -->
<g id="edge3_Node000002_Node000004" class="edge">
<title>Node4&#45;&gt;Node2</title>
<g id="a_edge3_Node000002_Node000004"><a xlink:title=" ">
<path fill="none" stroke="#63b8ff" d="M221.8,-455.27C238.18,-432.13 264,-395.67 287.51,-362.46"/>
<polygon fill="none" stroke="#63b8ff" points="287.79,-362.07 287.99,-354.86 294.72,-352.28 294.52,-359.49 287.79,-362.07"/>
</a>
</g>
<text text-anchor="start" x="285.5" y="-398" font-family="Helvetica,sans-Serif" font-size="10.00" fill="grey">#z</text>
</g>
<!-- Node5 -->
<g id="Node000005" class="node">
<title>Node5</title>
<g id="a_Node000005"><a xlink:title=" ">
<polygon fill="white" stroke="transparent" points="393.5,-510 290.5,-510 290.5,-450 393.5,-450 393.5,-510"/>
<text text-anchor="start" x="296" y="-498" font-family="Helvetica,sans-Serif" font-size="10.00">Matx&lt; Tp, StateDim,</text>
<text text-anchor="start" x="315.5" y="-487" font-family="Helvetica,sans-Serif" font-size="10.00"> StateDim &gt;</text>
<text text-anchor="start" x="340.5" y="-472" font-family="Helvetica,sans-Serif" font-size="10.00"> </text>
<text text-anchor="start" x="340.5" y="-457" font-family="Helvetica,sans-Serif" font-size="10.00"> </text>
<polygon fill="#666666" stroke="#666666" points="291,-482 291,-482 394,-482 394,-482 291,-482"/>
<polygon fill="#666666" stroke="#666666" points="291,-467 291,-467 394,-467 394,-467 291,-467"/>
<polygon fill="none" stroke="#666666" points="290.5,-450 290.5,-510 393.5,-510 393.5,-450 290.5,-450"/>
</a>
</g>
</g>
<!-- Node5&#45;&gt;Node2 -->
<g id="edge4_Node000002_Node000005" class="edge">
<title>Node5&#45;&gt;Node2</title>
<g id="a_edge4_Node000002_Node000005"><a xlink:title=" ">
<path fill="none" stroke="#63b8ff" d="M342,-449.61C342,-426.94 342,-394.47 342,-364.38"/>
<polygon fill="none" stroke="#63b8ff" points="342,-364.12 338,-358.12 342,-352.12 346,-358.12 342,-364.12"/>
</a>
</g>
<text text-anchor="start" x="345" y="-421" font-family="Helvetica,sans-Serif" font-size="10.00" fill="grey">#I</text>
<text text-anchor="start" x="345" y="-406" font-family="Helvetica,sans-Serif" font-size="10.00" fill="grey">#P</text>
<text text-anchor="start" x="345" y="-391" font-family="Helvetica,sans-Serif" font-size="10.00" fill="grey">#P_</text>
<text text-anchor="start" x="345" y="-376" font-family="Helvetica,sans-Serif" font-size="10.00" fill="grey">#Q</text>
</g>
<!-- Node6 -->
<g id="Node000006" class="node">
<title>Node6</title>
<g id="a_Node000006"><a xlink:title=" ">
<polygon fill="white" stroke="transparent" points="528.5,-510 411.5,-510 411.5,-450 528.5,-450 528.5,-510"/>
<text text-anchor="start" x="417" y="-498" font-family="Helvetica,sans-Serif" font-size="10.00">Matx&lt; Tp, MeasureDim,</text>
<text text-anchor="start" x="436.5" y="-487" font-family="Helvetica,sans-Serif" font-size="10.00"> MeasureDim &gt;</text>
<text text-anchor="start" x="468.5" y="-472" font-family="Helvetica,sans-Serif" font-size="10.00"> </text>
<text text-anchor="start" x="468.5" y="-457" font-family="Helvetica,sans-Serif" font-size="10.00"> </text>
<polygon fill="#666666" stroke="#666666" points="412,-482 412,-482 529,-482 529,-482 412,-482"/>
<polygon fill="#666666" stroke="#666666" points="412,-467 412,-467 529,-467 529,-467 412,-467"/>
<polygon fill="none" stroke="#666666" points="411.5,-450 411.5,-510 528.5,-510 528.5,-450 411.5,-450"/>
</a>
</g>
</g>
<!-- Node6&#45;&gt;Node2 -->
<g id="edge5_Node000002_Node000006" class="edge">
<title>Node6&#45;&gt;Node2</title>
<g id="a_edge5_Node000002_Node000006"><a xlink:title=" ">
<path fill="none" stroke="#63b8ff" d="M450.56,-449.61C435.23,-426.43 413.12,-393.02 392.86,-362.38"/>
<polygon fill="none" stroke="#63b8ff" points="392.69,-362.13 386.04,-359.33 386.07,-352.12 392.71,-354.91 392.69,-362.13"/>
</a>
</g>
<text text-anchor="start" x="438.5" y="-398" font-family="Helvetica,sans-Serif" font-size="10.00" fill="grey">#R</text>
</g>
<!-- Node7 -->
<g id="Node000007" class="node">
<title>Node7</title>
<g id="a_Node000007"><a xlink:title=" ">
<polygon fill="white" stroke="transparent" points="649.5,-510 546.5,-510 546.5,-450 649.5,-450 649.5,-510"/>
<text text-anchor="start" x="552" y="-498" font-family="Helvetica,sans-Serif" font-size="10.00">Matx&lt; Tp, StateDim,</text>
<text text-anchor="start" x="564.5" y="-487" font-family="Helvetica,sans-Serif" font-size="10.00"> MeasureDim &gt;</text>
<text text-anchor="start" x="596.5" y="-472" font-family="Helvetica,sans-Serif" font-size="10.00"> </text>
<text text-anchor="start" x="596.5" y="-457" font-family="Helvetica,sans-Serif" font-size="10.00"> </text>
<polygon fill="#666666" stroke="#666666" points="547,-482 547,-482 650,-482 650,-482 547,-482"/>
<polygon fill="#666666" stroke="#666666" points="547,-467 547,-467 650,-467 650,-467 547,-467"/>
<polygon fill="none" stroke="#666666" points="546.5,-450 546.5,-510 649.5,-510 649.5,-450 546.5,-450"/>
</a>
</g>
</g>
<!-- Node7&#45;&gt;Node2 -->
<g id="edge6_Node000002_Node000007" class="edge">
<title>Node7&#45;&gt;Node2</title>
<g id="a_edge6_Node000002_Node000007"><a xlink:title=" ">
<path fill="none" stroke="#63b8ff" d="M561.4,-449.99C533.3,-427.84 493.43,-396.69 458,-370 447.79,-362.31 437.02,-354.31 426.31,-346.43"/>
<polygon fill="none" stroke="#63b8ff" points="426.19,-346.34 418.99,-346.02 416.52,-339.24 423.72,-339.57 426.19,-346.34"/>
</a>
</g>
<text text-anchor="start" x="541.5" y="-398" font-family="Helvetica,sans-Serif" font-size="10.00" fill="grey">#K</text>
</g>
</g>
</svg>
