<?xml version="1.0" encoding="UTF-8" standalone="no"?>
<!DOCTYPE svg PUBLIC "-//W3C//DTD SVG 1.1//EN"
 "http://www.w3.org/Graphics/SVG/1.1/DTD/svg11.dtd">
<!-- Generated by graphviz version 2.43.0 (0)
 -->
<!-- Title: rm::combo Pages: 1 -->
<!--zoomable 854 -->
<svg id="main" version="1.1" xmlns="http://www.w3.org/2000/svg" xmlns:xlink="http://www.w3.org/1999/xlink" xml:space="preserve" onload="init(evt)">
<style type="text/css"><![CDATA[
.edge:hover path { stroke: red; }
.edge:hover polygon { stroke: red; fill: red; }
]]></style>
<script type="text/javascript"><![CDATA[
var edges = document.getElementsByTagName('g');
if (edges && edges.length) {
  for (var i=0;i<edges.length;i++) {
    if (edges[i].id.substr(0,4)=='edge') {
      edges[i].setAttribute('class','edge');
    }
  }
}
]]></script>
        <defs>
                <circle id="rim" cx="0" cy="0" r="7"/>
                <circle id="rim2" cx="0" cy="0" r="3.5"/>
                <g id="zoomPlus">
                        <use xlink:href="#rim" fill="#404040">
                                <set attributeName="fill" to="#808080" begin="zoomplus.mouseover" end="zoomplus.mouseout"/>
                        </use>
                        <path d="M-4,0h8M0,-4v8" fill="none" stroke="white" stroke-width="1.5" pointer-events="none"/>
                </g>
                <g id="zoomMin">
                        <use xlink:href="#rim" fill="#404040">
                                <set attributeName="fill" to="#808080" begin="zoomminus.mouseover" end="zoomminus.mouseout"/>
                        </use>
                        <path d="M-4,0h8" fill="none" stroke="white" stroke-width="1.5" pointer-events="none"/>
                </g>
                <g id="dirArrow">
                        <path fill="none" stroke="white" stroke-width="1.5" d="M0,-3.0v7 M-2.5,-0.5L0,-3.0L2.5,-0.5"/>
                </g>
               <g id="resetDef">
                       <use xlink:href="#rim2" fill="#404040">
                               <set attributeName="fill" to="#808080" begin="reset.mouseover" end="reset.mouseout"/>
                       </use>
               </g>
        </defs>

<script type="text/javascript">
var viewWidth = 1527;
var viewHeight = 854;
var sectionId = 'dynsection-1';
</script>
<script xlink:href="../../svgpan.js"/>
<svg id="graph" class="graph">
<g id="viewport">
<title>rm::combo</title>
<polygon fill="white" stroke="transparent" points="-4,4 -4,-850 1523.19,-850 1523.19,4 -4,4"/>
<!-- Node1 -->
<g id="node1" class="node">
<title>Node1</title>
<g id="a_node1"><a xlink:title="特征组合体">
<polygon fill="#bfbfbf" stroke="black" points="407.19,-0.5 407.19,-211.5 526.19,-211.5 526.19,-0.5 407.19,-0.5"/>
<text text-anchor="middle" x="466.69" y="-199.5" font-family="Helvetica,sans-Serif" font-size="10.00">rm::combo</text>
<polyline fill="none" stroke="black" points="407.19,-192.5 526.19,-192.5 "/>
<text text-anchor="middle" x="466.69" y="-180.5" font-family="Helvetica,sans-Serif" font-size="10.00"> </text>
<polyline fill="none" stroke="black" points="407.19,-173.5 526.19,-173.5 "/>
<text text-anchor="start" x="415.19" y="-161.5" font-family="Helvetica,sans-Serif" font-size="10.00">+ ~combo()</text>
<text text-anchor="start" x="415.19" y="-150.5" font-family="Helvetica,sans-Serif" font-size="10.00">+ getHeight()</text>
<text text-anchor="start" x="415.19" y="-139.5" font-family="Helvetica,sans-Serif" font-size="10.00">+ getWidth()</text>
<text text-anchor="start" x="415.19" y="-128.5" font-family="Helvetica,sans-Serif" font-size="10.00">+ getAngle()</text>
<text text-anchor="start" x="415.19" y="-117.5" font-family="Helvetica,sans-Serif" font-size="10.00">+ getCenter()</text>
<text text-anchor="start" x="415.19" y="-106.5" font-family="Helvetica,sans-Serif" font-size="10.00">+ getCorners()</text>
<text text-anchor="start" x="415.19" y="-95.5" font-family="Helvetica,sans-Serif" font-size="10.00">+ getPNP()</text>
<text text-anchor="start" x="415.19" y="-84.5" font-family="Helvetica,sans-Serif" font-size="10.00">+ getType()</text>
<text text-anchor="start" x="415.19" y="-73.5" font-family="Helvetica,sans-Serif" font-size="10.00">+ getTick()</text>
<text text-anchor="start" x="415.19" y="-62.5" font-family="Helvetica,sans-Serif" font-size="10.00">+ getRelativeAngle()</text>
<text text-anchor="start" x="415.19" y="-51.5" font-family="Helvetica,sans-Serif" font-size="10.00">+ getGyroData()</text>
<text text-anchor="start" x="415.19" y="-40.5" font-family="Helvetica,sans-Serif" font-size="10.00">+ at()</text>
<text text-anchor="start" x="415.19" y="-29.5" font-family="Helvetica,sans-Serif" font-size="10.00">+ data()</text>
<text text-anchor="start" x="415.19" y="-18.5" font-family="Helvetica,sans-Serif" font-size="10.00">+ size()</text>
<text text-anchor="start" x="415.19" y="-7.5" font-family="Helvetica,sans-Serif" font-size="10.00">+ empty()</text>
</a>
</g>
</g>
<!-- Node2 -->
<g id="node2" class="node">
<title>Node2</title>
<g id="a_node2"><a xlink:title=" ">
<polygon fill="white" stroke="#bfbfbf" points="129.69,-320 129.69,-377 271.69,-377 271.69,-320 129.69,-320"/>
<text text-anchor="middle" x="200.69" y="-365" font-family="Helvetica,sans-Serif" font-size="10.00">std::vector&lt; cv::Point2f &gt;</text>
<polyline fill="none" stroke="#bfbfbf" points="129.69,-358 271.69,-358 "/>
<text text-anchor="middle" x="200.69" y="-346" font-family="Helvetica,sans-Serif" font-size="10.00"> </text>
<polyline fill="none" stroke="#bfbfbf" points="129.69,-339 271.69,-339 "/>
<text text-anchor="middle" x="200.69" y="-327" font-family="Helvetica,sans-Serif" font-size="10.00"> </text>
</a>
</g>
</g>
<!-- Node2&#45;&gt;Node1 -->
<g id="edge1" class="edge">
<title>Node2&#45;&gt;Node1</title>
<path fill="none" stroke="#404040" d="M221.59,-319.86C241,-295.04 271.4,-258.26 301.69,-230 331.03,-202.63 366.38,-175.6 396.83,-153.88"/>
<polygon fill="none" stroke="#404040" points="397.15,-153.66 399.74,-146.93 406.95,-146.73 404.35,-153.46 397.15,-153.66"/>
<text text-anchor="middle" x="328.19" y="-233" font-family="Helvetica,sans-Serif" font-size="10.00"> #_corners</text>
</g>
<!-- Node3 -->
<g id="node3" class="node">
<title>Node3</title>
<g id="a_node3"><a xlink:title=" ">
<polygon fill="white" stroke="#bfbfbf" points="19.19,-568 19.19,-625 70.19,-625 70.19,-568 19.19,-568"/>
<text text-anchor="middle" x="44.69" y="-613" font-family="Helvetica,sans-Serif" font-size="10.00">Point2f</text>
<polyline fill="none" stroke="#bfbfbf" points="19.19,-606 70.19,-606 "/>
<text text-anchor="middle" x="44.69" y="-594" font-family="Helvetica,sans-Serif" font-size="10.00"> </text>
<polyline fill="none" stroke="#bfbfbf" points="19.19,-587 70.19,-587 "/>
<text text-anchor="middle" x="44.69" y="-575" font-family="Helvetica,sans-Serif" font-size="10.00"> </text>
</a>
</g>
</g>
<!-- Node3&#45;&gt;Node1 -->
<g id="edge19" class="edge">
<title>Node3&#45;&gt;Node1</title>
<path fill="none" stroke="#404040" d="M34.02,-567.94C12.05,-506.13 -30.79,-354.42 36.69,-259 118.32,-143.57 295.26,-115.21 394.85,-108.62"/>
<polygon fill="none" stroke="#404040" points="394.92,-108.62 400.67,-104.27 406.89,-107.91 401.14,-112.26 394.92,-108.62"/>
<text text-anchor="middle" x="78.69" y="-351.5" font-family="Helvetica,sans-Serif" font-size="10.00"> #_center</text>
<text text-anchor="middle" x="78.69" y="-340.5" font-family="Helvetica,sans-Serif" font-size="10.00">#_relative_angle</text>
</g>
<!-- Node3&#45;&gt;Node2 -->
<g id="edge2" class="edge">
<title>Node3&#45;&gt;Node2</title>
<path fill="none" stroke="#404040" d="M46.23,-567.8C49.22,-537.45 57.99,-488.74 83.69,-456 93.77,-443.16 102.79,-447.99 115.69,-438 135.3,-422.81 154.66,-403.13 169.93,-386.19"/>
<polygon fill="none" stroke="#404040" points="170.02,-386.09 171,-378.94 177.98,-377.1 176.99,-384.25 170.02,-386.09"/>
<text text-anchor="middle" x="112.69" y="-470" font-family="Helvetica,sans-Serif" font-size="10.00"> +elements</text>
</g>
<!-- Node4 -->
<g id="node4" class="node">
<title>Node4</title>
<g id="a_node4"><a xlink:title=" ">
<polygon fill="white" stroke="#bfbfbf" points="172.19,-568 172.19,-625 269.19,-625 269.19,-568 172.19,-568"/>
<text text-anchor="middle" x="220.69" y="-613" font-family="Helvetica,sans-Serif" font-size="10.00">std::vector&lt; T &gt;</text>
<polyline fill="none" stroke="#bfbfbf" points="172.19,-606 269.19,-606 "/>
<text text-anchor="middle" x="220.69" y="-594" font-family="Helvetica,sans-Serif" font-size="10.00"> </text>
<polyline fill="none" stroke="#bfbfbf" points="172.19,-587 269.19,-587 "/>
<text text-anchor="middle" x="220.69" y="-575" font-family="Helvetica,sans-Serif" font-size="10.00"> </text>
</a>
</g>
</g>
<!-- Node4&#45;&gt;Node2 -->
<g id="edge3" class="edge">
<title>Node4&#45;&gt;Node2</title>
<path fill="none" stroke="orange" d="M188.57,-559.73C173.29,-540.29 156.64,-514.95 148.69,-489 136.62,-449.58 159.77,-405.13 178.95,-377.22"/>
<polygon fill="orange" stroke="orange" points="186,-562.11 195.01,-567.68 191.44,-557.71 186,-562.11"/>
<text text-anchor="middle" x="187.19" y="-470" font-family="Helvetica,sans-Serif" font-size="10.00"> &lt; cv::Point2f &gt;</text>
</g>
<!-- Node20 -->
<g id="node20" class="node">
<title>Node20</title>
<g id="a_node20"><a xlink:title=" ">
<polygon fill="white" stroke="#bfbfbf" points="290.19,-314.5 290.19,-382.5 405.19,-382.5 405.19,-314.5 290.19,-314.5"/>
<text text-anchor="start" x="298.19" y="-370.5" font-family="Helvetica,sans-Serif" font-size="10.00">std::vector&lt; feature</text>
<text text-anchor="middle" x="347.69" y="-359.5" font-family="Helvetica,sans-Serif" font-size="10.00">_ptr &gt;</text>
<polyline fill="none" stroke="#bfbfbf" points="290.19,-352.5 405.19,-352.5 "/>
<text text-anchor="middle" x="347.69" y="-340.5" font-family="Helvetica,sans-Serif" font-size="10.00"> </text>
<polyline fill="none" stroke="#bfbfbf" points="290.19,-333.5 405.19,-333.5 "/>
<text text-anchor="middle" x="347.69" y="-321.5" font-family="Helvetica,sans-Serif" font-size="10.00"> </text>
</a>
</g>
</g>
<!-- Node4&#45;&gt;Node20 -->
<g id="edge25" class="edge">
<title>Node4&#45;&gt;Node20</title>
<path fill="none" stroke="orange" d="M227.39,-557.96C233.72,-528.73 245.08,-487.92 263.69,-456 269.23,-446.49 273.58,-446.4 280.69,-438 295.76,-420.2 311.55,-399.46 324.01,-382.53"/>
<polygon fill="orange" stroke="orange" points="223.95,-557.27 225.35,-567.77 230.81,-558.69 223.95,-557.27"/>
<text text-anchor="middle" x="303.69" y="-470" font-family="Helvetica,sans-Serif" font-size="10.00"> &lt; feature_ptr &gt;</text>
</g>
<!-- Node5 -->
<g id="node5" class="node">
<title>Node5</title>
<g id="a_node5"><a xlink:title=" ">
<polygon fill="white" stroke="#bfbfbf" points="264.19,-788.5 264.19,-845.5 293.19,-845.5 293.19,-788.5 264.19,-788.5"/>
<text text-anchor="middle" x="278.69" y="-833.5" font-family="Helvetica,sans-Serif" font-size="10.00">T</text>
<polyline fill="none" stroke="#bfbfbf" points="264.19,-826.5 293.19,-826.5 "/>
<text text-anchor="middle" x="278.69" y="-814.5" font-family="Helvetica,sans-Serif" font-size="10.00"> </text>
<polyline fill="none" stroke="#bfbfbf" points="264.19,-807.5 293.19,-807.5 "/>
<text text-anchor="middle" x="278.69" y="-795.5" font-family="Helvetica,sans-Serif" font-size="10.00"> </text>
</a>
</g>
</g>
<!-- Node5&#45;&gt;Node4 -->
<g id="edge4" class="edge">
<title>Node5&#45;&gt;Node4</title>
<path fill="none" stroke="#404040" d="M263.91,-800.19C256.94,-791.83 249.19,-781.03 244.69,-770 227.14,-726.99 222.01,-673.48 220.72,-637.56"/>
<polygon fill="none" stroke="#404040" points="220.71,-637.17 216.55,-631.27 220.4,-625.17 224.55,-631.07 220.71,-637.17"/>
<text text-anchor="middle" x="273.69" y="-734.5" font-family="Helvetica,sans-Serif" font-size="10.00"> +elements</text>
</g>
<!-- Node21 -->
<g id="node21" class="node">
<title>Node21</title>
<g id="a_node21"><a xlink:title=" ">
<polygon fill="white" stroke="#bfbfbf" points="287.69,-568 287.69,-625 405.69,-625 405.69,-568 287.69,-568"/>
<text text-anchor="middle" x="346.69" y="-613" font-family="Helvetica,sans-Serif" font-size="10.00">std::shared_ptr&lt; T &gt;</text>
<polyline fill="none" stroke="#bfbfbf" points="287.69,-606 405.69,-606 "/>
<text text-anchor="middle" x="346.69" y="-594" font-family="Helvetica,sans-Serif" font-size="10.00"> </text>
<polyline fill="none" stroke="#bfbfbf" points="287.69,-587 405.69,-587 "/>
<text text-anchor="start" x="295.69" y="-575" font-family="Helvetica,sans-Serif" font-size="10.00">+ operator&#45;&gt;()</text>
</a>
</g>
</g>
<!-- Node5&#45;&gt;Node21 -->
<g id="edge24" class="edge">
<title>Node5&#45;&gt;Node21</title>
<path fill="none" stroke="#404040" d="M293.22,-790.7C296.64,-784.1 300.05,-776.9 302.69,-770 319.63,-725.71 332.07,-672.56 339.32,-637.07"/>
<polygon fill="none" stroke="#404040" points="339.32,-637.06 336.57,-630.4 341.66,-625.29 344.41,-631.96 339.32,-637.06"/>
<text text-anchor="middle" x="336.19" y="-734.5" font-family="Helvetica,sans-Serif" font-size="10.00"> +ptr</text>
</g>
<!-- Node6 -->
<g id="node6" class="node">
<title>Node6</title>
<g id="a_node6"><a xlink:href="../../dc/d5f/structrm_1_1GyroData.html" target="_top" xlink:title="陀螺仪数据">
<polygon fill="white" stroke="black" points="491.19,-314.5 491.19,-382.5 574.19,-382.5 574.19,-314.5 491.19,-314.5"/>
<text text-anchor="middle" x="532.69" y="-370.5" font-family="Helvetica,sans-Serif" font-size="10.00">rm::GyroData</text>
<polyline fill="none" stroke="black" points="491.19,-363.5 574.19,-363.5 "/>
<text text-anchor="middle" x="532.69" y="-351.5" font-family="Helvetica,sans-Serif" font-size="10.00"> </text>
<polyline fill="none" stroke="black" points="491.19,-344.5 574.19,-344.5 "/>
<text text-anchor="start" x="499.19" y="-332.5" font-family="Helvetica,sans-Serif" font-size="10.00">+ write()</text>
<text text-anchor="start" x="499.19" y="-321.5" font-family="Helvetica,sans-Serif" font-size="10.00">+ read()</text>
</a>
</g>
</g>
<!-- Node6&#45;&gt;Node1 -->
<g id="edge5" class="edge">
<title>Node6&#45;&gt;Node1</title>
<path fill="none" stroke="#404040" d="M523.58,-314.31C517.03,-290.45 507.78,-256.73 498.64,-223.41"/>
<polygon fill="none" stroke="#404040" points="498.59,-223.23 493.14,-218.5 495.41,-211.66 500.86,-216.38 498.59,-223.23"/>
<text text-anchor="middle" x="534.69" y="-233" font-family="Helvetica,sans-Serif" font-size="10.00"> #_gyro_data</text>
</g>
<!-- Node7 -->
<g id="node7" class="node">
<title>Node7</title>
<g id="a_node7"><a xlink:href="../../dd/db7/structrm_1_1GyroData_1_1Translation.html" target="_top" xlink:title="移动姿态信息">
<polygon fill="white" stroke="black" points="461.69,-568 461.69,-625 603.69,-625 603.69,-568 461.69,-568"/>
<text text-anchor="middle" x="532.69" y="-613" font-family="Helvetica,sans-Serif" font-size="10.00">rm::GyroData::Translation</text>
<polyline fill="none" stroke="black" points="461.69,-606 603.69,-606 "/>
<text text-anchor="middle" x="532.69" y="-594" font-family="Helvetica,sans-Serif" font-size="10.00"> </text>
<polyline fill="none" stroke="black" points="461.69,-587 603.69,-587 "/>
<text text-anchor="middle" x="532.69" y="-575" font-family="Helvetica,sans-Serif" font-size="10.00"> </text>
</a>
</g>
</g>
<!-- Node7&#45;&gt;Node6 -->
<g id="edge6" class="edge">
<title>Node7&#45;&gt;Node6</title>
<path fill="none" stroke="#404040" d="M532.69,-567.76C532.69,-525.71 532.69,-445.39 532.69,-394.79"/>
<polygon fill="none" stroke="#404040" points="532.69,-394.61 528.69,-388.61 532.69,-382.61 536.69,-388.61 532.69,-394.61"/>
<text text-anchor="middle" x="564.69" y="-470" font-family="Helvetica,sans-Serif" font-size="10.00"> +translation</text>
</g>
<!-- Node8 -->
<g id="node8" class="node">
<title>Node8</title>
<g id="a_node8"><a xlink:title=" ">
<polygon fill="white" stroke="#bfbfbf" points="513.69,-788.5 513.69,-845.5 551.69,-845.5 551.69,-788.5 513.69,-788.5"/>
<text text-anchor="middle" x="532.69" y="-833.5" font-family="Helvetica,sans-Serif" font-size="10.00">float</text>
<polyline fill="none" stroke="#bfbfbf" points="513.69,-826.5 551.69,-826.5 "/>
<text text-anchor="middle" x="532.69" y="-814.5" font-family="Helvetica,sans-Serif" font-size="10.00"> </text>
<polyline fill="none" stroke="#bfbfbf" points="513.69,-807.5 551.69,-807.5 "/>
<text text-anchor="middle" x="532.69" y="-795.5" font-family="Helvetica,sans-Serif" font-size="10.00"> </text>
</a>
</g>
</g>
<!-- Node8&#45;&gt;Node1 -->
<g id="edge17" class="edge">
<title>Node8&#45;&gt;Node1</title>
<path fill="none" stroke="#404040" d="M513.35,-793.45C493.67,-768.9 464.45,-727.56 452.69,-686 408.71,-530.61 425.42,-342.3 443.99,-223.54"/>
<polygon fill="none" stroke="#404040" points="444.01,-223.4 441.01,-216.85 445.9,-211.55 448.91,-218.11 444.01,-223.4"/>
<text text-anchor="middle" x="448.19" y="-481" font-family="Helvetica,sans-Serif" font-size="10.00"> #_angle</text>
<text text-anchor="middle" x="448.19" y="-470" font-family="Helvetica,sans-Serif" font-size="10.00">#_height</text>
<text text-anchor="middle" x="448.19" y="-459" font-family="Helvetica,sans-Serif" font-size="10.00">#_width</text>
</g>
<!-- Node8&#45;&gt;Node7 -->
<g id="edge7" class="edge">
<title>Node8&#45;&gt;Node7</title>
<path fill="none" stroke="#404040" d="M532.69,-788.33C532.69,-750.18 532.69,-681.2 532.69,-637.45"/>
<polygon fill="none" stroke="#404040" points="532.69,-637.29 528.69,-631.29 532.69,-625.29 536.69,-631.29 532.69,-637.29"/>
<text text-anchor="middle" x="544.69" y="-762" font-family="Helvetica,sans-Serif" font-size="10.00"> +vx</text>
<text text-anchor="middle" x="544.69" y="-751" font-family="Helvetica,sans-Serif" font-size="10.00">+vy</text>
<text text-anchor="middle" x="544.69" y="-740" font-family="Helvetica,sans-Serif" font-size="10.00">+vz</text>
<text text-anchor="middle" x="544.69" y="-729" font-family="Helvetica,sans-Serif" font-size="10.00">+x</text>
<text text-anchor="middle" x="544.69" y="-718" font-family="Helvetica,sans-Serif" font-size="10.00">+y</text>
<text text-anchor="middle" x="544.69" y="-707" font-family="Helvetica,sans-Serif" font-size="10.00">+z</text>
</g>
<!-- Node9 -->
<g id="node9" class="node">
<title>Node9</title>
<g id="a_node9"><a xlink:href="../../d5/df9/structrm_1_1GyroData_1_1Rotation.html" target="_top" xlink:title="转动姿态信息">
<polygon fill="white" stroke="black" points="621.69,-568 621.69,-625 751.69,-625 751.69,-568 621.69,-568"/>
<text text-anchor="middle" x="686.69" y="-613" font-family="Helvetica,sans-Serif" font-size="10.00">rm::GyroData::Rotation</text>
<polyline fill="none" stroke="black" points="621.69,-606 751.69,-606 "/>
<text text-anchor="middle" x="686.69" y="-594" font-family="Helvetica,sans-Serif" font-size="10.00"> </text>
<polyline fill="none" stroke="black" points="621.69,-587 751.69,-587 "/>
<text text-anchor="middle" x="686.69" y="-575" font-family="Helvetica,sans-Serif" font-size="10.00"> </text>
</a>
</g>
</g>
<!-- Node8&#45;&gt;Node9 -->
<g id="edge9" class="edge">
<title>Node8&#45;&gt;Node9</title>
<path fill="none" stroke="#404040" d="M551.88,-788.77C579.2,-750.01 629.4,-678.78 660.24,-635.03"/>
<polygon fill="none" stroke="#404040" points="660.34,-634.88 660.53,-627.67 667.26,-625.07 667.07,-632.28 660.34,-634.88"/>
<text text-anchor="middle" x="643.19" y="-762" font-family="Helvetica,sans-Serif" font-size="10.00"> +pitch</text>
<text text-anchor="middle" x="643.19" y="-751" font-family="Helvetica,sans-Serif" font-size="10.00">+pitch_speed</text>
<text text-anchor="middle" x="643.19" y="-740" font-family="Helvetica,sans-Serif" font-size="10.00">+roll</text>
<text text-anchor="middle" x="643.19" y="-729" font-family="Helvetica,sans-Serif" font-size="10.00">+roll_speed</text>
<text text-anchor="middle" x="643.19" y="-718" font-family="Helvetica,sans-Serif" font-size="10.00">+yaw</text>
<text text-anchor="middle" x="643.19" y="-707" font-family="Helvetica,sans-Serif" font-size="10.00">+yaw_speed</text>
</g>
<!-- Node9&#45;&gt;Node6 -->
<g id="edge8" class="edge">
<title>Node9&#45;&gt;Node6</title>
<path fill="none" stroke="#404040" d="M669.85,-567.89C652.6,-539.69 624.96,-494.68 600.69,-456 587.61,-435.15 572.93,-412.11 560.56,-392.81"/>
<polygon fill="none" stroke="#404040" points="560.44,-392.62 553.83,-389.73 553.96,-382.52 560.57,-385.41 560.44,-392.62"/>
<text text-anchor="middle" x="645.69" y="-470" font-family="Helvetica,sans-Serif" font-size="10.00"> +rotation</text>
</g>
<!-- Node10 -->
<g id="node10" class="node">
<title>Node10</title>
<g id="a_node10"><a xlink:href="../../d0/d01/structrm_1_1RMStatus.html" target="_top" xlink:title="状态类型">
<polygon fill="white" stroke="black" points="890.19,-281.5 890.19,-415.5 973.19,-415.5 973.19,-281.5 890.19,-281.5"/>
<text text-anchor="middle" x="931.69" y="-403.5" font-family="Helvetica,sans-Serif" font-size="10.00">rm::RMStatus</text>
<polyline fill="none" stroke="black" points="890.19,-396.5 973.19,-396.5 "/>
<text text-anchor="middle" x="931.69" y="-384.5" font-family="Helvetica,sans-Serif" font-size="10.00"> </text>
<polyline fill="none" stroke="black" points="890.19,-377.5 973.19,-377.5 "/>
<text text-anchor="start" x="898.19" y="-365.5" font-family="Helvetica,sans-Serif" font-size="10.00">+ RMStatus()</text>
<text text-anchor="start" x="898.19" y="-354.5" font-family="Helvetica,sans-Serif" font-size="10.00">+ RMStatus()</text>
<text text-anchor="start" x="898.19" y="-343.5" font-family="Helvetica,sans-Serif" font-size="10.00">+ RMStatus()</text>
<text text-anchor="start" x="898.19" y="-332.5" font-family="Helvetica,sans-Serif" font-size="10.00">+ RMStatus()</text>
<text text-anchor="start" x="898.19" y="-321.5" font-family="Helvetica,sans-Serif" font-size="10.00">+ RMStatus()</text>
<text text-anchor="start" x="898.19" y="-310.5" font-family="Helvetica,sans-Serif" font-size="10.00">+ RMStatus()</text>
<text text-anchor="start" x="898.19" y="-299.5" font-family="Helvetica,sans-Serif" font-size="10.00">+ RMStatus()</text>
<text text-anchor="start" x="898.19" y="-288.5" font-family="Helvetica,sans-Serif" font-size="10.00">+ to_string()</text>
</a>
</g>
</g>
<!-- Node10&#45;&gt;Node1 -->
<g id="edge10" class="edge">
<title>Node10&#45;&gt;Node1</title>
<path fill="none" stroke="#404040" d="M890.02,-325.95C810.3,-284.72 635.44,-194.28 537.22,-143.48"/>
<polygon fill="none" stroke="#404040" points="537.16,-143.45 530,-144.25 526.51,-137.94 533.67,-137.14 537.16,-143.45"/>
<text text-anchor="middle" x="733.19" y="-233" font-family="Helvetica,sans-Serif" font-size="10.00"> #_type</text>
</g>
<!-- Node11 -->
<g id="node11" class="node">
<title>Node11</title>
<g id="a_node11"><a xlink:title=" ">
<polygon fill="white" stroke="#bfbfbf" points="769.69,-568 769.69,-625 835.69,-625 835.69,-568 769.69,-568"/>
<text text-anchor="middle" x="802.69" y="-613" font-family="Helvetica,sans-Serif" font-size="10.00">MoveType</text>
<polyline fill="none" stroke="#bfbfbf" points="769.69,-606 835.69,-606 "/>
<text text-anchor="middle" x="802.69" y="-594" font-family="Helvetica,sans-Serif" font-size="10.00"> </text>
<polyline fill="none" stroke="#bfbfbf" points="769.69,-587 835.69,-587 "/>
<text text-anchor="middle" x="802.69" y="-575" font-family="Helvetica,sans-Serif" font-size="10.00"> </text>
</a>
</g>
</g>
<!-- Node11&#45;&gt;Node10 -->
<g id="edge11" class="edge">
<title>Node11&#45;&gt;Node10</title>
<path fill="none" stroke="#404040" d="M797.13,-567.75C792.67,-538.43 789.62,-491.61 806.69,-456 822.26,-423.51 852.91,-397.15 879.97,-378.78"/>
<polygon fill="none" stroke="#404040" points="880.08,-378.71 882.91,-372.07 890.12,-372.14 887.29,-378.77 880.08,-378.71"/>
<text text-anchor="middle" x="842.69" y="-470" font-family="Helvetica,sans-Serif" font-size="10.00"> +MoveTypeID</text>
</g>
<!-- Node12 -->
<g id="node12" class="node">
<title>Node12</title>
<g id="a_node12"><a xlink:title=" ">
<polygon fill="white" stroke="#bfbfbf" points="853.69,-568 853.69,-625 917.69,-625 917.69,-568 853.69,-568"/>
<text text-anchor="middle" x="885.69" y="-613" font-family="Helvetica,sans-Serif" font-size="10.00">RuneType</text>
<polyline fill="none" stroke="#bfbfbf" points="853.69,-606 917.69,-606 "/>
<text text-anchor="middle" x="885.69" y="-594" font-family="Helvetica,sans-Serif" font-size="10.00"> </text>
<polyline fill="none" stroke="#bfbfbf" points="853.69,-587 917.69,-587 "/>
<text text-anchor="middle" x="885.69" y="-575" font-family="Helvetica,sans-Serif" font-size="10.00"> </text>
</a>
</g>
</g>
<!-- Node12&#45;&gt;Node10 -->
<g id="edge12" class="edge">
<title>Node12&#45;&gt;Node10</title>
<path fill="none" stroke="#404040" d="M882.75,-567.9C880.45,-539.52 878.81,-494.19 886.69,-456 888.67,-446.43 891.52,-436.64 894.84,-427.07"/>
<polygon fill="none" stroke="#404040" points="894.95,-426.79 893.27,-419.78 899.1,-415.53 900.78,-422.55 894.95,-426.79"/>
<text text-anchor="middle" x="921.69" y="-470" font-family="Helvetica,sans-Serif" font-size="10.00"> +RuneTypeID</text>
</g>
<!-- Node13 -->
<g id="node13" class="node">
<title>Node13</title>
<g id="a_node13"><a xlink:title=" ">
<polygon fill="white" stroke="#bfbfbf" points="936.19,-568 936.19,-625 1025.19,-625 1025.19,-568 936.19,-568"/>
<text text-anchor="middle" x="980.69" y="-613" font-family="Helvetica,sans-Serif" font-size="10.00">ArmorSizeType</text>
<polyline fill="none" stroke="#bfbfbf" points="936.19,-606 1025.19,-606 "/>
<text text-anchor="middle" x="980.69" y="-594" font-family="Helvetica,sans-Serif" font-size="10.00"> </text>
<polyline fill="none" stroke="#bfbfbf" points="936.19,-587 1025.19,-587 "/>
<text text-anchor="middle" x="980.69" y="-575" font-family="Helvetica,sans-Serif" font-size="10.00"> </text>
</a>
</g>
</g>
<!-- Node13&#45;&gt;Node10 -->
<g id="edge13" class="edge">
<title>Node13&#45;&gt;Node10</title>
<path fill="none" stroke="#404040" d="M976.44,-567.88C971.98,-539.67 964.54,-494.65 956.69,-456 954.79,-446.67 952.68,-436.91 950.51,-427.25"/>
<polygon fill="none" stroke="#404040" points="950.51,-427.25 945.28,-422.29 947.85,-415.55 953.08,-420.51 950.51,-427.25"/>
<text text-anchor="middle" x="1009.19" y="-470" font-family="Helvetica,sans-Serif" font-size="10.00"> +ArmorSizeTypeID</text>
</g>
<!-- Node14 -->
<g id="node14" class="node">
<title>Node14</title>
<g id="a_node14"><a xlink:title=" ">
<polygon fill="white" stroke="#bfbfbf" points="1046.19,-568 1046.19,-625 1147.19,-625 1147.19,-568 1046.19,-568"/>
<text text-anchor="middle" x="1096.69" y="-613" font-family="Helvetica,sans-Serif" font-size="10.00">CompensateType</text>
<polyline fill="none" stroke="#bfbfbf" points="1046.19,-606 1147.19,-606 "/>
<text text-anchor="middle" x="1096.69" y="-594" font-family="Helvetica,sans-Serif" font-size="10.00"> </text>
<polyline fill="none" stroke="#bfbfbf" points="1046.19,-587 1147.19,-587 "/>
<text text-anchor="middle" x="1096.69" y="-575" font-family="Helvetica,sans-Serif" font-size="10.00"> </text>
</a>
</g>
</g>
<!-- Node14&#45;&gt;Node10 -->
<g id="edge14" class="edge">
<title>Node14&#45;&gt;Node10</title>
<path fill="none" stroke="#404040" d="M1097.52,-567.78C1096.88,-536.24 1090.78,-485.33 1060.69,-456 1035.21,-431.17 1011.28,-459.17 982.69,-438 977.74,-434.33 973.19,-430.03 969.03,-425.34"/>
<polygon fill="none" stroke="#404040" points="968.98,-425.27 962.11,-423.07 961.51,-415.89 968.37,-418.09 968.98,-425.27"/>
<text text-anchor="middle" x="1134.69" y="-470" font-family="Helvetica,sans-Serif" font-size="10.00"> +CompensateTypeID</text>
</g>
<!-- Node15 -->
<g id="node15" class="node">
<title>Node15</title>
<g id="a_node15"><a xlink:title=" ">
<polygon fill="white" stroke="#bfbfbf" points="1187.69,-568 1187.69,-625 1255.69,-625 1255.69,-568 1187.69,-568"/>
<text text-anchor="middle" x="1221.69" y="-613" font-family="Helvetica,sans-Serif" font-size="10.00">RobotType</text>
<polyline fill="none" stroke="#bfbfbf" points="1187.69,-606 1255.69,-606 "/>
<text text-anchor="middle" x="1221.69" y="-594" font-family="Helvetica,sans-Serif" font-size="10.00"> </text>
<polyline fill="none" stroke="#bfbfbf" points="1187.69,-587 1255.69,-587 "/>
<text text-anchor="middle" x="1221.69" y="-575" font-family="Helvetica,sans-Serif" font-size="10.00"> </text>
</a>
</g>
</g>
<!-- Node15&#45;&gt;Node10 -->
<g id="edge15" class="edge">
<title>Node15&#45;&gt;Node10</title>
<path fill="none" stroke="#404040" d="M1224.52,-567.99C1226.13,-535.92 1223.19,-483.76 1191.69,-456 1156.72,-425.18 1022.01,-463.04 982.69,-438 977.08,-434.43 972.02,-430 967.47,-425.05"/>
<polygon fill="none" stroke="#404040" points="967.39,-424.95 960.5,-422.82 959.82,-415.65 966.7,-417.78 967.39,-424.95"/>
<text text-anchor="middle" x="1249.19" y="-470" font-family="Helvetica,sans-Serif" font-size="10.00"> +RobotTypeID</text>
</g>
<!-- Node16 -->
<g id="node16" class="node">
<title>Node16</title>
<g id="a_node16"><a xlink:title=" ">
<polygon fill="white" stroke="#bfbfbf" points="1273.69,-568 1273.69,-625 1379.69,-625 1379.69,-568 1273.69,-568"/>
<text text-anchor="middle" x="1326.69" y="-613" font-family="Helvetica,sans-Serif" font-size="10.00">TargetChangeType</text>
<polyline fill="none" stroke="#bfbfbf" points="1273.69,-606 1379.69,-606 "/>
<text text-anchor="middle" x="1326.69" y="-594" font-family="Helvetica,sans-Serif" font-size="10.00"> </text>
<polyline fill="none" stroke="#bfbfbf" points="1273.69,-587 1379.69,-587 "/>
<text text-anchor="middle" x="1326.69" y="-575" font-family="Helvetica,sans-Serif" font-size="10.00"> </text>
</a>
</g>
</g>
<!-- Node16&#45;&gt;Node10 -->
<g id="edge16" class="edge">
<title>Node16&#45;&gt;Node10</title>
<path fill="none" stroke="#404040" d="M1328.14,-567.97C1328.17,-535.62 1322.68,-482.95 1289.69,-456 1236.77,-412.76 1040.83,-473.91 982.69,-438 977.03,-434.51 971.94,-430.14 967.36,-425.22"/>
<polygon fill="none" stroke="#404040" points="967.29,-425.14 960.39,-423.04 959.68,-415.86 966.58,-417.96 967.29,-425.14"/>
<text text-anchor="middle" x="1367.69" y="-470" font-family="Helvetica,sans-Serif" font-size="10.00"> +TargetChangeTypeID</text>
</g>
<!-- Node17 -->
<g id="node17" class="node">
<title>Node17</title>
<g id="a_node17"><a xlink:title=" ">
<polygon fill="white" stroke="#bfbfbf" points="991.19,-320 991.19,-377 1032.19,-377 1032.19,-320 991.19,-320"/>
<text text-anchor="middle" x="1011.69" y="-365" font-family="Helvetica,sans-Serif" font-size="10.00">int64</text>
<polyline fill="none" stroke="#bfbfbf" points="991.19,-358 1032.19,-358 "/>
<text text-anchor="middle" x="1011.69" y="-346" font-family="Helvetica,sans-Serif" font-size="10.00"> </text>
<polyline fill="none" stroke="#bfbfbf" points="991.19,-339 1032.19,-339 "/>
<text text-anchor="middle" x="1011.69" y="-327" font-family="Helvetica,sans-Serif" font-size="10.00"> </text>
</a>
</g>
</g>
<!-- Node17&#45;&gt;Node1 -->
<g id="edge18" class="edge">
<title>Node17&#45;&gt;Node1</title>
<path fill="none" stroke="#404040" d="M1009.36,-319.99C1006.29,-300.47 999.17,-274.99 982.69,-259 860.07,-140.02 649.18,-113.47 538.81,-108"/>
<polygon fill="none" stroke="#404040" points="538.49,-107.99 532.32,-111.72 526.5,-107.46 532.67,-103.73 538.49,-107.99"/>
<text text-anchor="middle" x="978.19" y="-233" font-family="Helvetica,sans-Serif" font-size="10.00"> #_tick</text>
</g>
<!-- Node18 -->
<g id="node18" class="node">
<title>Node18</title>
<g id="a_node18"><a xlink:href="../../d5/d53/classrm_1_1ResultPnP.html" target="_top" xlink:title=" ">
<polygon fill="white" stroke="black" points="1245.19,-259.5 1245.19,-437.5 1374.19,-437.5 1374.19,-259.5 1245.19,-259.5"/>
<text text-anchor="middle" x="1309.69" y="-425.5" font-family="Helvetica,sans-Serif" font-size="10.00">rm::ResultPnP&lt; float &gt;</text>
<polyline fill="none" stroke="black" points="1245.19,-418.5 1374.19,-418.5 "/>
<text text-anchor="middle" x="1309.69" y="-406.5" font-family="Helvetica,sans-Serif" font-size="10.00"> </text>
<polyline fill="none" stroke="black" points="1245.19,-399.5 1374.19,-399.5 "/>
<text text-anchor="start" x="1253.19" y="-387.5" font-family="Helvetica,sans-Serif" font-size="10.00">+ tvec()</text>
<text text-anchor="start" x="1253.19" y="-376.5" font-family="Helvetica,sans-Serif" font-size="10.00">+ tvec()</text>
<text text-anchor="start" x="1253.19" y="-365.5" font-family="Helvetica,sans-Serif" font-size="10.00">+ rvec()</text>
<text text-anchor="start" x="1253.19" y="-354.5" font-family="Helvetica,sans-Serif" font-size="10.00">+ rvec()</text>
<text text-anchor="start" x="1253.19" y="-343.5" font-family="Helvetica,sans-Serif" font-size="10.00">+ R()</text>
<text text-anchor="start" x="1253.19" y="-332.5" font-family="Helvetica,sans-Serif" font-size="10.00">+ R()</text>
<text text-anchor="start" x="1253.19" y="-321.5" font-family="Helvetica,sans-Serif" font-size="10.00">+ T()</text>
<text text-anchor="start" x="1253.19" y="-310.5" font-family="Helvetica,sans-Serif" font-size="10.00">+ yaw()</text>
<text text-anchor="start" x="1253.19" y="-299.5" font-family="Helvetica,sans-Serif" font-size="10.00">+ pitch()</text>
<text text-anchor="start" x="1253.19" y="-288.5" font-family="Helvetica,sans-Serif" font-size="10.00">+ roll()</text>
<text text-anchor="start" x="1253.19" y="-277.5" font-family="Helvetica,sans-Serif" font-size="10.00">+ distance()</text>
<text text-anchor="start" x="1253.19" y="-266.5" font-family="Helvetica,sans-Serif" font-size="10.00">+ distance()</text>
</a>
</g>
</g>
<!-- Node18&#45;&gt;Node1 -->
<g id="edge20" class="edge">
<title>Node18&#45;&gt;Node1</title>
<path fill="none" stroke="#404040" d="M1244.96,-320.02C1182.86,-294.36 1086.02,-256.19 999.69,-230 837.1,-180.67 641.43,-140.22 538.34,-120.32"/>
<polygon fill="none" stroke="#404040" points="538.32,-120.32 531.67,-123.12 526.54,-118.06 533.18,-115.26 538.32,-120.32"/>
<text text-anchor="middle" x="1064.69" y="-233" font-family="Helvetica,sans-Serif" font-size="10.00"> #_pnp_data</text>
</g>
<!-- Node19 -->
<g id="node19" class="node">
<title>Node19</title>
<g id="a_node19"><a xlink:href="../../d5/d53/classrm_1_1ResultPnP.html" target="_top" xlink:title="pnp 姿态解算">
<polygon fill="white" stroke="black" points="1400.19,-507.5 1400.19,-685.5 1519.19,-685.5 1519.19,-507.5 1400.19,-507.5"/>
<text text-anchor="middle" x="1459.69" y="-673.5" font-family="Helvetica,sans-Serif" font-size="10.00">rm::ResultPnP&lt; Tp &gt;</text>
<polyline fill="none" stroke="black" points="1400.19,-666.5 1519.19,-666.5 "/>
<text text-anchor="middle" x="1459.69" y="-654.5" font-family="Helvetica,sans-Serif" font-size="10.00"> </text>
<polyline fill="none" stroke="black" points="1400.19,-647.5 1519.19,-647.5 "/>
<text text-anchor="start" x="1408.19" y="-635.5" font-family="Helvetica,sans-Serif" font-size="10.00">+ tvec()</text>
<text text-anchor="start" x="1408.19" y="-624.5" font-family="Helvetica,sans-Serif" font-size="10.00">+ rvec()</text>
<text text-anchor="start" x="1408.19" y="-613.5" font-family="Helvetica,sans-Serif" font-size="10.00">+ R()</text>
<text text-anchor="start" x="1408.19" y="-602.5" font-family="Helvetica,sans-Serif" font-size="10.00">+ T()</text>
<text text-anchor="start" x="1408.19" y="-591.5" font-family="Helvetica,sans-Serif" font-size="10.00">+ yaw()</text>
<text text-anchor="start" x="1408.19" y="-580.5" font-family="Helvetica,sans-Serif" font-size="10.00">+ pitch()</text>
<text text-anchor="start" x="1408.19" y="-569.5" font-family="Helvetica,sans-Serif" font-size="10.00">+ roll()</text>
<text text-anchor="start" x="1408.19" y="-558.5" font-family="Helvetica,sans-Serif" font-size="10.00">+ distance()</text>
<text text-anchor="start" x="1408.19" y="-547.5" font-family="Helvetica,sans-Serif" font-size="10.00">+ tvec()</text>
<text text-anchor="start" x="1408.19" y="-536.5" font-family="Helvetica,sans-Serif" font-size="10.00">+ rvec()</text>
<text text-anchor="start" x="1408.19" y="-525.5" font-family="Helvetica,sans-Serif" font-size="10.00">+ R()</text>
<text text-anchor="start" x="1408.19" y="-514.5" font-family="Helvetica,sans-Serif" font-size="10.00">+ distance()</text>
</a>
</g>
</g>
<!-- Node19&#45;&gt;Node18 -->
<g id="edge21" class="edge">
<title>Node19&#45;&gt;Node18</title>
<path fill="none" stroke="orange" d="M1453.41,-497.39C1449.91,-482.92 1444.87,-468.64 1437.69,-456 1422.55,-429.36 1398.01,-406.52 1374.44,-388.9"/>
<polygon fill="orange" stroke="orange" points="1450.04,-498.39 1455.59,-507.42 1456.88,-496.9 1450.04,-498.39"/>
<text text-anchor="middle" x="1474.69" y="-470" font-family="Helvetica,sans-Serif" font-size="10.00"> &lt; float &gt;</text>
</g>
<!-- Node20&#45;&gt;Node1 -->
<g id="edge22" class="edge">
<title>Node20&#45;&gt;Node1</title>
<path fill="none" stroke="#404040" d="M346.59,-314.25C346.96,-289.95 349.99,-256.72 361.69,-230 370.71,-209.38 384.38,-189.62 398.9,-172.19"/>
<polygon fill="none" stroke="#404040" points="399.19,-171.85 400.08,-164.7 407.03,-162.76 406.14,-169.92 399.19,-171.85"/>
<text text-anchor="middle" x="390.69" y="-233" font-family="Helvetica,sans-Serif" font-size="10.00"> #_features</text>
</g>
<!-- Node21&#45;&gt;Node20 -->
<g id="edge23" class="edge">
<title>Node21&#45;&gt;Node20</title>
<path fill="none" stroke="#404040" d="M346.8,-567.76C346.97,-525.71 347.3,-445.39 347.51,-394.79"/>
<polygon fill="none" stroke="#404040" points="347.51,-394.61 343.53,-388.59 347.56,-382.61 351.53,-388.62 347.51,-394.61"/>
<text text-anchor="middle" x="376.69" y="-470" font-family="Helvetica,sans-Serif" font-size="10.00"> +elements</text>
</g>
</g>
</svg>
        <g id="navigator" transform="translate(0 0)" fill="#404254">
                <rect fill="#f2f5e9" fill-opacity="0.5" stroke="#606060" stroke-width=".5" x="0" y="0" width="60" height="60"/>
                <use id="zoomplus" xlink:href="#zoomPlus" x="17" y="9" onmousedown="handleZoom(evt,'in')"/>
                <use id="zoomminus" xlink:href="#zoomMin" x="42" y="9" onmousedown="handleZoom(evt,'out')"/>
                <use id="reset" xlink:href="#resetDef" x="30" y="36" onmousedown="handleReset()"/>
                <g id="arrowUp" xlink:href="#dirArrow" transform="translate(30 24)" onmousedown="handlePan(0,-1)">
                  <use xlink:href="#rim" fill="#404040">
                        <set attributeName="fill" to="#808080" begin="arrowUp.mouseover" end="arrowUp.mouseout"/>
                  </use>
                  <path fill="none" stroke="white" stroke-width="1.5" d="M0,-3.0v7 M-2.5,-0.5L0,-3.0L2.5,-0.5"/>
                </g>
                <g id="arrowRight" xlink:href="#dirArrow" transform="rotate(90) translate(36 -43)" onmousedown="handlePan(1,0)">
                  <use xlink:href="#rim" fill="#404040">
                        <set attributeName="fill" to="#808080" begin="arrowRight.mouseover" end="arrowRight.mouseout"/>
                  </use>
                  <path fill="none" stroke="white" stroke-width="1.5" d="M0,-3.0v7 M-2.5,-0.5L0,-3.0L2.5,-0.5"/>
                </g>
                <g id="arrowDown" xlink:href="#dirArrow" transform="rotate(180) translate(-30 -48)" onmousedown="handlePan(0,1)">
                  <use xlink:href="#rim" fill="#404040">
                        <set attributeName="fill" to="#808080" begin="arrowDown.mouseover" end="arrowDown.mouseout"/>
                  </use>
                  <path fill="none" stroke="white" stroke-width="1.5" d="M0,-3.0v7 M-2.5,-0.5L0,-3.0L2.5,-0.5"/>
                </g>
                <g id="arrowLeft" xlink:href="#dirArrow" transform="rotate(270) translate(-36 17)" onmousedown="handlePan(-1,0)">
                  <use xlink:href="#rim" fill="#404040">
                        <set attributeName="fill" to="#808080" begin="arrowLeft.mouseover" end="arrowLeft.mouseout"/>
                  </use>
                  <path fill="none" stroke="white" stroke-width="1.5" d="M0,-3.0v7 M-2.5,-0.5L0,-3.0L2.5,-0.5"/>
                </g>
        </g>
        <svg viewBox="0 0 15 15" width="100%" height="30px" preserveAspectRatio="xMaxYMin meet">
         <g id="arrow_out" transform="scale(0.3 0.3)">
          <a xlink:href="classrm_1_1combo__coll__graph_org.svg" target="_base">
           <rect id="button" ry="5" rx="5" y="6" x="6" height="38" width="38"
                fill="#f2f5e9" fill-opacity="0.5" stroke="#606060" stroke-width="1.0"/>
           <path id="arrow"
             d="M 11.500037,31.436501 C 11.940474,20.09759 22.043105,11.32322 32.158766,21.979434 L 37.068811,17.246167 C 37.068811,17.246167 37.088388,32 37.088388,32 L 22.160133,31.978069 C 22.160133,31.978069 26.997745,27.140456 26.997745,27.140456 C 18.528582,18.264221 13.291696,25.230495 11.500037,31.436501 z"
             style="fill:#404040;"/>
          </a>
         </g>
        </svg>
</svg>
