<?xml version="1.0" encoding="UTF-8" standalone="no"?>
<!DOCTYPE svg PUBLIC "-//W3C//DTD SVG 1.1//EN"
 "http://www.w3.org/Graphics/SVG/1.1/DTD/svg11.dtd">
<!-- Generated by graphviz version 2.43.0 (0)
 -->
<!-- Title: rm::KalmanFilter&lt; Tp, StateDim, MeasureDim &gt; Pages: 1 -->
<!--zoomable 458 -->

<svg id="main" version="1.1" xmlns="http://www.w3.org/2000/svg" xmlns:xlink="http://www.w3.org/1999/xlink" xml:space="preserve" onload="init(evt)">

<style type="text/css"><![CDATA[
.node, .edge {opacity: 0.7;}
.node.selected, .edge.selected {opacity: 1;}
.edge:hover path { stroke: red; }
.edge:hover polygon { stroke: red; fill: red; }
]]></style>

<defs>
  <circle id="rim" cx="0" cy="0" r="7"/>
  <circle id="rim2" cx="0" cy="0" r="3.5"/>
  <g id="zoomPlus">
    <use xlink:href="#rim" fill="#404040"><set attributeName="fill" to="#808080" begin="zoomplus.mouseover" end="zoomplus.mouseout"/></use>
    <path d="M-4,0h8M0,-4v8" fill="none" stroke="white" stroke-width="1.5" pointer-events="none"/>
  </g>
  <g id="zoomMin">
    <use xlink:href="#rim" fill="#404040"><set attributeName="fill" to="#808080" begin="zoomminus.mouseover" end="zoomminus.mouseout"/></use>
    <path d="M-4,0h8" fill="none" stroke="white" stroke-width="1.5" pointer-events="none"/>
  </g>
  <g id="arrowUp" transform="translate(30 24)">
    <use xlink:href="#rim"/>
    <path pointer-events="none" fill="none" stroke="white" stroke-width="1.5" d="M0,-3.0v7 M-2.5,-0.5L0,-3.0L2.5,-0.5"/>
  </g>
  <g id="arrowRight" transform="rotate(90) translate(36 -43)">
    <use xlink:href="#rim"/>
    <path pointer-events="none" fill="none" stroke="white" stroke-width="1.5" d="M0,-3.0v7 M-2.5,-0.5L0,-3.0L2.5,-0.5"/>
  </g>
  <g id="arrowDown" transform="rotate(180) translate(-30 -48)">
    <use xlink:href="#rim"/>
    <path pointer-events="none" fill="none" stroke="white" stroke-width="1.5" d="M0,-3.0v7 M-2.5,-0.5L0,-3.0L2.5,-0.5"/>
  </g>
  <g id="arrowLeft" transform="rotate(270) translate(-36 17)">
    <use xlink:href="#rim"/>
    <path pointer-events="none" fill="none" stroke="white" stroke-width="1.5" d="M0,-3.0v7 M-2.5,-0.5L0,-3.0L2.5,-0.5"/>
  </g>
  <g id="resetDef">
    <use xlink:href="#rim2" fill="#404040"><set attributeName="fill" to="#808080" begin="reset.mouseover" end="reset.mouseout"/></use>
  </g>
</defs>
<script type="application/ecmascript">
var viewWidth = 658;
var viewHeight = 458;
var sectionId = 'dynsection-1';
</script>
<script type="application/ecmascript" xlink:href="../../svg.min.js"/>
<svg id="graph" class="graph">
<g id="viewport">
<title>rm::KalmanFilter&lt; Tp, StateDim, MeasureDim &gt;</title>
<!-- Node1 -->
<g id="Node000001" class="node">
<title>Node1</title>
<g id="a_Node000001"><a xlink:title="卡尔曼滤波器">
<polygon fill="#999999" stroke="transparent" points="404.5,-120 279.5,-120 279.5,0 404.5,0 404.5,-120"/>
<text text-anchor="start" x="285" y="-108" font-family="Helvetica,sans-Serif" font-size="10.00">rm::KalmanFilter&lt; Tp,</text>
<text text-anchor="start" x="285" y="-97" font-family="Helvetica,sans-Serif" font-size="10.00"> StateDim, MeasureDim &gt;</text>
<text text-anchor="start" x="340.5" y="-82" font-family="Helvetica,sans-Serif" font-size="10.00"> </text>
<text text-anchor="start" x="295" y="-67" font-family="Helvetica,sans-Serif" font-size="10.00">+</text>
<text text-anchor="start" x="317" y="-67" font-family="Helvetica,sans-Serif" font-size="10.00">KalmanFilter()</text>
<text text-anchor="start" x="295" y="-52" font-family="Helvetica,sans-Serif" font-size="10.00">+</text>
<text text-anchor="start" x="317" y="-52" font-family="Helvetica,sans-Serif" font-size="10.00">setA()</text>
<text text-anchor="start" x="295" y="-37" font-family="Helvetica,sans-Serif" font-size="10.00">+</text>
<text text-anchor="start" x="317" y="-37" font-family="Helvetica,sans-Serif" font-size="10.00">setH()</text>
<text text-anchor="start" x="295" y="-22" font-family="Helvetica,sans-Serif" font-size="10.00">+</text>
<text text-anchor="start" x="317" y="-22" font-family="Helvetica,sans-Serif" font-size="10.00">predict()</text>
<text text-anchor="start" x="295" y="-7" font-family="Helvetica,sans-Serif" font-size="10.00">+</text>
<text text-anchor="start" x="317" y="-7" font-family="Helvetica,sans-Serif" font-size="10.00">correct()</text>
<polygon fill="#666666" stroke="#666666" points="280,-92 280,-92 405,-92 405,-92 280,-92"/>
<polygon fill="#666666" stroke="#666666" points="280,-77 280,-77 405,-77 405,-77 280,-77"/>
<polygon fill="none" stroke="#666666" points="279.5,0 279.5,-120 404.5,-120 404.5,0 279.5,0"/>
</a>
</g>
</g>
<!-- Node2 -->
<g id="Node000002" class="node">
<title>Node2</title>
<g id="a_Node000002"><a xlink:href="../../df/d1a/classrm_1_1KalmanFilterStaticDatas.html" target="_top" xlink:title="卡尔曼滤波静态数据">
<polygon fill="white" stroke="transparent" points="416.5,-292 267.5,-292 267.5,-157 416.5,-157 416.5,-292"/>
<text text-anchor="start" x="273" y="-279.5" font-family="Helvetica,sans-Serif" font-size="10.00">rm::KalmanFilterStaticDatas</text>
<text text-anchor="start" x="273" y="-268.5" font-family="Helvetica,sans-Serif" font-size="10.00">&lt; Tp, StateDim, MeasureDim &gt;</text>
<text text-anchor="start" x="340.5" y="-253.5" font-family="Helvetica,sans-Serif" font-size="10.00"> </text>
<text text-anchor="start" x="276" y="-238.5" font-family="Helvetica,sans-Serif" font-size="10.00">+</text>
<text text-anchor="start" x="291" y="-238.5" font-family="Helvetica,sans-Serif" font-size="10.00">KalmanFilterStaticDatas()</text>
<text text-anchor="start" x="276" y="-223.5" font-family="Helvetica,sans-Serif" font-size="10.00">+</text>
<text text-anchor="start" x="291" y="-223.5" font-family="Helvetica,sans-Serif" font-size="10.00">init()</text>
<text text-anchor="start" x="276" y="-208.5" font-family="Helvetica,sans-Serif" font-size="10.00">+</text>
<text text-anchor="start" x="291" y="-208.5" font-family="Helvetica,sans-Serif" font-size="10.00">init()</text>
<text text-anchor="start" x="276" y="-193.5" font-family="Helvetica,sans-Serif" font-size="10.00">+</text>
<text text-anchor="start" x="291" y="-193.5" font-family="Helvetica,sans-Serif" font-size="10.00">setR()</text>
<text text-anchor="start" x="276" y="-178.5" font-family="Helvetica,sans-Serif" font-size="10.00">+</text>
<text text-anchor="start" x="291" y="-178.5" font-family="Helvetica,sans-Serif" font-size="10.00">setQ()</text>
<text text-anchor="start" x="276" y="-163.5" font-family="Helvetica,sans-Serif" font-size="10.00">+</text>
<text text-anchor="start" x="291" y="-163.5" font-family="Helvetica,sans-Serif" font-size="10.00">setP()</text>
<polygon fill="#666666" stroke="#666666" points="268,-263.5 268,-263.5 417,-263.5 417,-263.5 268,-263.5"/>
<polygon fill="#666666" stroke="#666666" points="268,-248.5 268,-248.5 417,-248.5 417,-248.5 268,-248.5"/>
<polygon fill="none" stroke="#666666" points="267.5,-157 267.5,-292 416.5,-292 416.5,-157 267.5,-157"/>
</a>
</g>
</g>
<!-- Node2&#45;&gt;Node1 -->
<g id="edge1_Node000001_Node000002" class="edge">
<title>Node2&#45;&gt;Node1</title>
<g id="a_edge1_Node000001_Node000002"><a xlink:title=" ">
<path fill="none" stroke="#63b8ff" d="M342,-146.86C342,-137.89 342,-128.85 342,-120.16"/>
<polygon fill="none" stroke="#63b8ff" points="338.5,-146.94 342,-156.94 345.5,-146.94 338.5,-146.94"/>
</a>
</g>
</g>
<!-- Node3 -->
<g id="Node000003" class="node">
<title>Node3</title>
<g id="a_Node000003"><a xlink:title=" ">
<polygon fill="white" stroke="transparent" points="120,-444.5 0,-444.5 0,-395.5 120,-395.5 120,-444.5"/>
<text text-anchor="start" x="5" y="-432" font-family="Helvetica,sans-Serif" font-size="10.00">Matx&lt; Tp, StateDim, 1 &gt;</text>
<text text-anchor="start" x="58" y="-417" font-family="Helvetica,sans-Serif" font-size="10.00"> </text>
<text text-anchor="start" x="58" y="-402" font-family="Helvetica,sans-Serif" font-size="10.00"> </text>
<polygon fill="#666666" stroke="#666666" points="0,-427 0,-427 120,-427 120,-427 0,-427"/>
<polygon fill="#666666" stroke="#666666" points="0,-412 0,-412 120,-412 120,-412 0,-412"/>
<polygon fill="none" stroke="#666666" points="0,-395.5 0,-444.5 120,-444.5 120,-395.5 0,-395.5"/>
</a>
</g>
</g>
<!-- Node3&#45;&gt;Node2 -->
<g id="edge2_Node000002_Node000003" class="edge">
<title>Node3&#45;&gt;Node2</title>
<g id="a_edge2_Node000002_Node000003"><a xlink:title=" ">
<path fill="none" stroke="#63b8ff" d="M93.35,-395.43C124.84,-373.22 173.47,-339.12 216,-310 229.29,-300.9 243.42,-291.33 257.24,-282.02"/>
<polygon fill="none" stroke="#63b8ff" points="257.26,-282.01 260.01,-275.34 267.22,-275.31 264.47,-281.98 257.26,-282.01"/>
</a>
</g>
<text text-anchor="start" x="219" y="-346" font-family="Helvetica,sans-Serif" font-size="10.00" fill="grey">#x</text>
<text text-anchor="start" x="219" y="-331" font-family="Helvetica,sans-Serif" font-size="10.00" fill="grey">#x_</text>
</g>
<!-- Node4 -->
<g id="Node000004" class="node">
<title>Node4</title>
<g id="a_Node000004"><a xlink:title=" ">
<polygon fill="white" stroke="transparent" points="272,-444.5 138,-444.5 138,-395.5 272,-395.5 272,-444.5"/>
<text text-anchor="start" x="143" y="-432" font-family="Helvetica,sans-Serif" font-size="10.00">Matx&lt; Tp, MeasureDim, 1 &gt;</text>
<text text-anchor="start" x="203" y="-417" font-family="Helvetica,sans-Serif" font-size="10.00"> </text>
<text text-anchor="start" x="203" y="-402" font-family="Helvetica,sans-Serif" font-size="10.00"> </text>
<polygon fill="#666666" stroke="#666666" points="138,-427 138,-427 272,-427 272,-427 138,-427"/>
<polygon fill="#666666" stroke="#666666" points="138,-412 138,-412 272,-412 272,-412 138,-412"/>
<polygon fill="none" stroke="#666666" points="138,-395.5 138,-444.5 272,-444.5 272,-395.5 138,-395.5"/>
</a>
</g>
</g>
<!-- Node4&#45;&gt;Node2 -->
<g id="edge3_Node000002_Node000004" class="edge">
<title>Node4&#45;&gt;Node2</title>
<g id="a_edge3_Node000002_Node000004"><a xlink:title=" ">
<path fill="none" stroke="#63b8ff" d="M221.8,-395.27C238.18,-372.13 264,-335.67 287.51,-302.46"/>
<polygon fill="none" stroke="#63b8ff" points="287.79,-302.07 287.99,-294.86 294.72,-292.28 294.52,-299.49 287.79,-302.07"/>
</a>
</g>
<text text-anchor="start" x="285.5" y="-338" font-family="Helvetica,sans-Serif" font-size="10.00" fill="grey">#z</text>
</g>
<!-- Node5 -->
<g id="Node000005" class="node">
<title>Node5</title>
<g id="a_Node000005"><a xlink:title=" ">
<polygon fill="white" stroke="transparent" points="393.5,-450 290.5,-450 290.5,-390 393.5,-390 393.5,-450"/>
<text text-anchor="start" x="296" y="-438" font-family="Helvetica,sans-Serif" font-size="10.00">Matx&lt; Tp, StateDim,</text>
<text text-anchor="start" x="315.5" y="-427" font-family="Helvetica,sans-Serif" font-size="10.00"> StateDim &gt;</text>
<text text-anchor="start" x="340.5" y="-412" font-family="Helvetica,sans-Serif" font-size="10.00"> </text>
<text text-anchor="start" x="340.5" y="-397" font-family="Helvetica,sans-Serif" font-size="10.00"> </text>
<polygon fill="#666666" stroke="#666666" points="291,-422 291,-422 394,-422 394,-422 291,-422"/>
<polygon fill="#666666" stroke="#666666" points="291,-407 291,-407 394,-407 394,-407 291,-407"/>
<polygon fill="none" stroke="#666666" points="290.5,-390 290.5,-450 393.5,-450 393.5,-390 290.5,-390"/>
</a>
</g>
</g>
<!-- Node5&#45;&gt;Node2 -->
<g id="edge4_Node000002_Node000005" class="edge">
<title>Node5&#45;&gt;Node2</title>
<g id="a_edge4_Node000002_Node000005"><a xlink:title=" ">
<path fill="none" stroke="#63b8ff" d="M342,-389.61C342,-366.94 342,-334.47 342,-304.38"/>
<polygon fill="none" stroke="#63b8ff" points="342,-304.12 338,-298.12 342,-292.12 346,-298.12 342,-304.12"/>
</a>
</g>
<text text-anchor="start" x="345" y="-361" font-family="Helvetica,sans-Serif" font-size="10.00" fill="grey">#I</text>
<text text-anchor="start" x="345" y="-346" font-family="Helvetica,sans-Serif" font-size="10.00" fill="grey">#P</text>
<text text-anchor="start" x="345" y="-331" font-family="Helvetica,sans-Serif" font-size="10.00" fill="grey">#P_</text>
<text text-anchor="start" x="345" y="-316" font-family="Helvetica,sans-Serif" font-size="10.00" fill="grey">#Q</text>
</g>
<!-- Node6 -->
<g id="Node000006" class="node">
<title>Node6</title>
<g id="a_Node000006"><a xlink:title=" ">
<polygon fill="white" stroke="transparent" points="528.5,-450 411.5,-450 411.5,-390 528.5,-390 528.5,-450"/>
<text text-anchor="start" x="417" y="-438" font-family="Helvetica,sans-Serif" font-size="10.00">Matx&lt; Tp, MeasureDim,</text>
<text text-anchor="start" x="436.5" y="-427" font-family="Helvetica,sans-Serif" font-size="10.00"> MeasureDim &gt;</text>
<text text-anchor="start" x="468.5" y="-412" font-family="Helvetica,sans-Serif" font-size="10.00"> </text>
<text text-anchor="start" x="468.5" y="-397" font-family="Helvetica,sans-Serif" font-size="10.00"> </text>
<polygon fill="#666666" stroke="#666666" points="412,-422 412,-422 529,-422 529,-422 412,-422"/>
<polygon fill="#666666" stroke="#666666" points="412,-407 412,-407 529,-407 529,-407 412,-407"/>
<polygon fill="none" stroke="#666666" points="411.5,-390 411.5,-450 528.5,-450 528.5,-390 411.5,-390"/>
</a>
</g>
</g>
<!-- Node6&#45;&gt;Node2 -->
<g id="edge5_Node000002_Node000006" class="edge">
<title>Node6&#45;&gt;Node2</title>
<g id="a_edge5_Node000002_Node000006"><a xlink:title=" ">
<path fill="none" stroke="#63b8ff" d="M450.56,-389.61C435.23,-366.43 413.12,-333.02 392.86,-302.38"/>
<polygon fill="none" stroke="#63b8ff" points="392.69,-302.13 386.04,-299.33 386.07,-292.12 392.71,-294.91 392.69,-302.13"/>
</a>
</g>
<text text-anchor="start" x="438.5" y="-338" font-family="Helvetica,sans-Serif" font-size="10.00" fill="grey">#R</text>
</g>
<!-- Node7 -->
<g id="Node000007" class="node">
<title>Node7</title>
<g id="a_Node000007"><a xlink:title=" ">
<polygon fill="white" stroke="transparent" points="649.5,-450 546.5,-450 546.5,-390 649.5,-390 649.5,-450"/>
<text text-anchor="start" x="552" y="-438" font-family="Helvetica,sans-Serif" font-size="10.00">Matx&lt; Tp, StateDim,</text>
<text text-anchor="start" x="564.5" y="-427" font-family="Helvetica,sans-Serif" font-size="10.00"> MeasureDim &gt;</text>
<text text-anchor="start" x="596.5" y="-412" font-family="Helvetica,sans-Serif" font-size="10.00"> </text>
<text text-anchor="start" x="596.5" y="-397" font-family="Helvetica,sans-Serif" font-size="10.00"> </text>
<polygon fill="#666666" stroke="#666666" points="547,-422 547,-422 650,-422 650,-422 547,-422"/>
<polygon fill="#666666" stroke="#666666" points="547,-407 547,-407 650,-407 650,-407 547,-407"/>
<polygon fill="none" stroke="#666666" points="546.5,-390 546.5,-450 649.5,-450 649.5,-390 546.5,-390"/>
</a>
</g>
</g>
<!-- Node7&#45;&gt;Node2 -->
<g id="edge6_Node000002_Node000007" class="edge">
<title>Node7&#45;&gt;Node2</title>
<g id="a_edge6_Node000002_Node000007"><a xlink:title=" ">
<path fill="none" stroke="#63b8ff" d="M561.4,-389.99C533.3,-367.84 493.43,-336.69 458,-310 447.79,-302.31 437.02,-294.31 426.31,-286.43"/>
<polygon fill="none" stroke="#63b8ff" points="426.19,-286.34 418.99,-286.02 416.52,-279.24 423.72,-279.57 426.19,-286.34"/>
</a>
</g>
<text text-anchor="start" x="541.5" y="-338" font-family="Helvetica,sans-Serif" font-size="10.00" fill="grey">#K</text>
</g>
</g>
</svg>

<g id="navigator" transform="translate(0 0)" fill="#404254">
  <rect fill="#f2f5e9" fill-opacity="0.5" stroke="#606060" stroke-width=".5" x="0" y="0" width="60" height="60"/>
  <use id="zoomplus" xlink:href="#zoomPlus" x="17" y="9" onmousedown="handleZoom(evt,'in')"/>
  <use id="zoomminus" xlink:href="#zoomMin" x="42" y="9" onmousedown="handleZoom(evt,'out')"/>
  <use id="reset" xlink:href="#resetDef" x="30" y="36" onmousedown="handleReset()"/>
   <use id="arrowup" xlink:href="#arrowUp" x="0" y="0" onmousedown="handlePan(0,-1)"/>
  <use id="arrowright" xlink:href="#arrowRight" x="0" y="0" onmousedown="handlePan(1,0)"/>
  <use id="arrowdown" xlink:href="#arrowDown" x="0" y="0" onmousedown="handlePan(0,1)"/>
  <use id="arrowleft" xlink:href="#arrowLeft" x="0" y="0" onmousedown="handlePan(-1,0)"/>
</g>
<svg viewBox="0 0 15 15" width="100%" height="30px" preserveAspectRatio="xMaxYMin meet">
 <g id="arrow_out" transform="scale(0.3 0.3)">
  <a xlink:href="classrm_1_1KalmanFilter__coll__graph_org.svg" target="_base">
   <rect id="button" ry="5" rx="5" y="6" x="6" height="38" width="38"
        fill="#f2f5e9" fill-opacity="0.5" stroke="#606060" stroke-width="1.0"/>
   <path id="arrow"
     d="M 11.500037,31.436501 C 11.940474,20.09759 22.043105,11.32322 32.158766,21.979434 L 37.068811,17.246167 C 37.068811,17.246167 37.088388,32 37.088388,32 L 22.160133,31.978069 C 22.160133,31.978069 26.997745,27.140456 26.997745,27.140456 C 18.528582,18.264221 13.291696,25.230495 11.500037,31.436501 z"
     style="fill:#404040;"/>
  </a>
 </g>
</svg>

<style type='text/css'>
<![CDATA[
[data-mouse-over-selected='false'] { opacity: 0.7; }
[data-mouse-over-selected='true']  { opacity: 1.0; }
]]>
</style>
<script type="application/ecmascript"><![CDATA[
document.addEventListener('DOMContentLoaded', (event) => {
  highlightEdges();
  highlightAdjacentNodes();
});
]]></script>
</svg>
