<?xml version="1.0" encoding="UTF-8" standalone="no"?>
<!DOCTYPE svg PUBLIC "-//W3C//DTD SVG 1.1//EN"
 "http://www.w3.org/Graphics/SVG/1.1/DTD/svg11.dtd">
<!-- Generated by graphviz version 2.43.0 (0)
 -->
<!-- Title: rm::ExtendedKalmanFilter&lt; Tp, StateDim, MeasureDim &gt; Pages: 1 -->
<svg width="722pt" height="500pt"
 viewBox="0.00 0.00 721.50 500.00" xmlns="http://www.w3.org/2000/svg" xmlns:xlink="http://www.w3.org/1999/xlink">
<g id="graph0" class="graph" transform="scale(1 1) rotate(0) translate(4 496)">
<title>rm::ExtendedKalmanFilter&lt; Tp, StateDim, MeasureDim &gt;</title>
<!-- Node1 -->
<g id="Node000001" class="node">
<title>Node1</title>
<g id="a_Node000001"><a xlink:title="扩展卡尔曼滤波器">
<polygon fill="#999999" stroke="transparent" points="459.5,-180 294.5,-180 294.5,0 459.5,0 459.5,-180"/>
<text text-anchor="start" x="300" y="-168" font-family="Helvetica,sans-Serif" font-size="10.00">rm::ExtendedKalmanFilter</text>
<text text-anchor="start" x="300" y="-157" font-family="Helvetica,sans-Serif" font-size="10.00">&lt; Tp, StateDim, MeasureDim &gt;</text>
<text text-anchor="start" x="375.5" y="-142" font-family="Helvetica,sans-Serif" font-size="10.00"> </text>
<text text-anchor="start" x="306" y="-127" font-family="Helvetica,sans-Serif" font-size="10.00">+</text>
<text text-anchor="start" x="326" y="-127" font-family="Helvetica,sans-Serif" font-size="10.00">ExtendedKalmanFilter()</text>
<text text-anchor="start" x="306" y="-112" font-family="Helvetica,sans-Serif" font-size="10.00">+</text>
<text text-anchor="start" x="326" y="-112" font-family="Helvetica,sans-Serif" font-size="10.00">setJa()</text>
<text text-anchor="start" x="306" y="-97" font-family="Helvetica,sans-Serif" font-size="10.00">+</text>
<text text-anchor="start" x="326" y="-97" font-family="Helvetica,sans-Serif" font-size="10.00">setJh()</text>
<text text-anchor="start" x="306" y="-82" font-family="Helvetica,sans-Serif" font-size="10.00">+</text>
<text text-anchor="start" x="326" y="-82" font-family="Helvetica,sans-Serif" font-size="10.00">setFa()</text>
<text text-anchor="start" x="306" y="-67" font-family="Helvetica,sans-Serif" font-size="10.00">+</text>
<text text-anchor="start" x="326" y="-67" font-family="Helvetica,sans-Serif" font-size="10.00">setFh()</text>
<text text-anchor="start" x="306" y="-52" font-family="Helvetica,sans-Serif" font-size="10.00">+</text>
<text text-anchor="start" x="326" y="-52" font-family="Helvetica,sans-Serif" font-size="10.00">setW()</text>
<text text-anchor="start" x="306" y="-37" font-family="Helvetica,sans-Serif" font-size="10.00">+</text>
<text text-anchor="start" x="326" y="-37" font-family="Helvetica,sans-Serif" font-size="10.00">setV()</text>
<text text-anchor="start" x="306" y="-22" font-family="Helvetica,sans-Serif" font-size="10.00">+</text>
<text text-anchor="start" x="326" y="-22" font-family="Helvetica,sans-Serif" font-size="10.00">predict()</text>
<text text-anchor="start" x="306" y="-7" font-family="Helvetica,sans-Serif" font-size="10.00">+</text>
<text text-anchor="start" x="326" y="-7" font-family="Helvetica,sans-Serif" font-size="10.00">correct()</text>
<polygon fill="#666666" stroke="#666666" points="295,-152 295,-152 460,-152 460,-152 295,-152"/>
<polygon fill="#666666" stroke="#666666" points="295,-137 295,-137 460,-137 460,-137 295,-137"/>
<polygon fill="none" stroke="#666666" points="294.5,0 294.5,-180 459.5,-180 459.5,0 294.5,0"/>
</a>
</g>
</g>
<!-- Node2 -->
<g id="Node000002" class="node">
<title>Node2</title>
<g id="a_Node000002"><a xlink:href="../../df/d1a/classrm_1_1KalmanFilterStaticDatas.html" target="_top" xlink:title="卡尔曼滤波静态数据">
<polygon fill="white" stroke="transparent" points="459.5,-352 294.5,-352 294.5,-217 459.5,-217 459.5,-352"/>
<text text-anchor="start" x="300" y="-339.5" font-family="Helvetica,sans-Serif" font-size="10.00">rm::KalmanFilterStaticDatas</text>
<text text-anchor="start" x="300" y="-328.5" font-family="Helvetica,sans-Serif" font-size="10.00">&lt; Tp, StateDim, MeasureDim &gt;</text>
<text text-anchor="start" x="375.5" y="-313.5" font-family="Helvetica,sans-Serif" font-size="10.00"> </text>
<text text-anchor="start" x="303" y="-298.5" font-family="Helvetica,sans-Serif" font-size="10.00">+</text>
<text text-anchor="start" x="320" y="-298.5" font-family="Helvetica,sans-Serif" font-size="10.00">KalmanFilterStaticDatas()</text>
<text text-anchor="start" x="303" y="-283.5" font-family="Helvetica,sans-Serif" font-size="10.00">+</text>
<text text-anchor="start" x="320" y="-283.5" font-family="Helvetica,sans-Serif" font-size="10.00">init()</text>
<text text-anchor="start" x="303" y="-268.5" font-family="Helvetica,sans-Serif" font-size="10.00">+</text>
<text text-anchor="start" x="320" y="-268.5" font-family="Helvetica,sans-Serif" font-size="10.00">init()</text>
<text text-anchor="start" x="303" y="-253.5" font-family="Helvetica,sans-Serif" font-size="10.00">+</text>
<text text-anchor="start" x="320" y="-253.5" font-family="Helvetica,sans-Serif" font-size="10.00">setR()</text>
<text text-anchor="start" x="303" y="-238.5" font-family="Helvetica,sans-Serif" font-size="10.00">+</text>
<text text-anchor="start" x="320" y="-238.5" font-family="Helvetica,sans-Serif" font-size="10.00">setQ()</text>
<text text-anchor="start" x="303" y="-223.5" font-family="Helvetica,sans-Serif" font-size="10.00">+</text>
<text text-anchor="start" x="320" y="-223.5" font-family="Helvetica,sans-Serif" font-size="10.00">setP()</text>
<polygon fill="#666666" stroke="#666666" points="295,-323.5 295,-323.5 460,-323.5 460,-323.5 295,-323.5"/>
<polygon fill="#666666" stroke="#666666" points="295,-308.5 295,-308.5 460,-308.5 460,-308.5 295,-308.5"/>
<polygon fill="none" stroke="#666666" points="294.5,-217 294.5,-352 459.5,-352 459.5,-217 294.5,-217"/>
</a>
</g>
</g>
<!-- Node2&#45;&gt;Node1 -->
<g id="edge1_Node000001_Node000002" class="edge">
<title>Node2&#45;&gt;Node1</title>
<g id="a_edge1_Node000001_Node000002"><a xlink:title=" ">
<path fill="none" stroke="#63b8ff" d="M377,-206.85C377,-198.11 377,-189.15 377,-180.27"/>
<polygon fill="none" stroke="#63b8ff" points="373.5,-206.98 377,-216.98 380.5,-206.98 373.5,-206.98"/>
</a>
</g>
</g>
<!-- Node3 -->
<g id="Node000003" class="node">
<title>Node3</title>
<g id="a_Node000003"><a xlink:title=" ">
<polygon fill="white" stroke="transparent" points="134,-486.5 0,-486.5 0,-437.5 134,-437.5 134,-486.5"/>
<text text-anchor="start" x="5" y="-474" font-family="Helvetica,sans-Serif" font-size="10.00">Matx&lt; Tp, StateDim, 1 &gt;</text>
<text text-anchor="start" x="65" y="-459" font-family="Helvetica,sans-Serif" font-size="10.00"> </text>
<text text-anchor="start" x="65" y="-444" font-family="Helvetica,sans-Serif" font-size="10.00"> </text>
<polygon fill="#666666" stroke="#666666" points="0,-469 0,-469 134,-469 134,-469 0,-469"/>
<polygon fill="#666666" stroke="#666666" points="0,-454 0,-454 134,-454 134,-454 0,-454"/>
<polygon fill="none" stroke="#666666" points="0,-437.5 0,-486.5 134,-486.5 134,-437.5 0,-437.5"/>
</a>
</g>
</g>
<!-- Node3&#45;&gt;Node2 -->
<g id="edge2_Node000002_Node000003" class="edge">
<title>Node3&#45;&gt;Node2</title>
<g id="a_edge2_Node000002_Node000003"><a xlink:title=" ">
<path fill="none" stroke="#63b8ff" d="M108.81,-437.33C153.38,-412.1 225.42,-371.31 283.61,-338.37"/>
<polygon fill="none" stroke="#63b8ff" points="283.87,-338.23 287.12,-331.79 294.31,-332.31 291.06,-338.75 283.87,-338.23"/>
</a>
</g>
<text text-anchor="middle" x="232" y="-395" font-family="Helvetica,sans-Serif" font-size="10.00" fill="grey"> #x</text>
<text text-anchor="middle" x="232" y="-384" font-family="Helvetica,sans-Serif" font-size="10.00" fill="grey">#x_</text>
</g>
<!-- Node4 -->
<g id="Node000004" class="node">
<title>Node4</title>
<g id="a_Node000004"><a xlink:title=" ">
<polygon fill="white" stroke="transparent" points="302,-486.5 152,-486.5 152,-437.5 302,-437.5 302,-486.5"/>
<text text-anchor="start" x="157" y="-474" font-family="Helvetica,sans-Serif" font-size="10.00">Matx&lt; Tp, MeasureDim, 1 &gt;</text>
<text text-anchor="start" x="225" y="-459" font-family="Helvetica,sans-Serif" font-size="10.00"> </text>
<text text-anchor="start" x="225" y="-444" font-family="Helvetica,sans-Serif" font-size="10.00"> </text>
<polygon fill="#666666" stroke="#666666" points="152,-469 152,-469 302,-469 302,-469 152,-469"/>
<polygon fill="#666666" stroke="#666666" points="152,-454 152,-454 302,-454 302,-454 152,-454"/>
<polygon fill="none" stroke="#666666" points="152,-437.5 152,-486.5 302,-486.5 302,-437.5 152,-437.5"/>
</a>
</g>
</g>
<!-- Node4&#45;&gt;Node2 -->
<g id="edge3_Node000002_Node000004" class="edge">
<title>Node4&#45;&gt;Node2</title>
<g id="a_edge3_Node000002_Node000004"><a xlink:title=" ">
<path fill="none" stroke="#63b8ff" d="M247.23,-437.33C263.97,-417.75 288.71,-388.79 312.12,-361.41"/>
<polygon fill="none" stroke="#63b8ff" points="312.2,-361.32 313.05,-354.16 319.99,-352.2 319.13,-359.36 312.2,-361.32"/>
</a>
</g>
<text text-anchor="middle" x="310.5" y="-389.5" font-family="Helvetica,sans-Serif" font-size="10.00" fill="grey"> #z</text>
</g>
<!-- Node5 -->
<g id="Node000005" class="node">
<title>Node5</title>
<g id="a_Node000005"><a xlink:title=" ">
<polygon fill="white" stroke="transparent" points="433.5,-492 320.5,-492 320.5,-432 433.5,-432 433.5,-492"/>
<text text-anchor="start" x="326" y="-480" font-family="Helvetica,sans-Serif" font-size="10.00">Matx&lt; Tp, StateDim,</text>
<text text-anchor="start" x="347" y="-469" font-family="Helvetica,sans-Serif" font-size="10.00"> StateDim &gt;</text>
<text text-anchor="start" x="375.5" y="-454" font-family="Helvetica,sans-Serif" font-size="10.00"> </text>
<text text-anchor="start" x="375.5" y="-439" font-family="Helvetica,sans-Serif" font-size="10.00"> </text>
<polygon fill="#666666" stroke="#666666" points="321,-464 321,-464 434,-464 434,-464 321,-464"/>
<polygon fill="#666666" stroke="#666666" points="321,-449 321,-449 434,-449 434,-449 321,-449"/>
<polygon fill="none" stroke="#666666" points="320.5,-432 320.5,-492 433.5,-492 433.5,-432 320.5,-432"/>
</a>
</g>
</g>
<!-- Node5&#45;&gt;Node2 -->
<g id="edge4_Node000002_Node000005" class="edge">
<title>Node5&#45;&gt;Node2</title>
<g id="a_edge4_Node000002_Node000005"><a xlink:title=" ">
<path fill="none" stroke="#63b8ff" d="M377,-431.63C377,-413.09 377,-388.2 377,-364.22"/>
<polygon fill="none" stroke="#63b8ff" points="377,-364.18 373,-358.18 377,-352.18 381,-358.18 377,-364.18"/>
</a>
</g>
<text text-anchor="middle" x="387" y="-406" font-family="Helvetica,sans-Serif" font-size="10.00" fill="grey"> #I</text>
<text text-anchor="middle" x="387" y="-395" font-family="Helvetica,sans-Serif" font-size="10.00" fill="grey">#P</text>
<text text-anchor="middle" x="387" y="-384" font-family="Helvetica,sans-Serif" font-size="10.00" fill="grey">#P_</text>
<text text-anchor="middle" x="387" y="-373" font-family="Helvetica,sans-Serif" font-size="10.00" fill="grey">#Q</text>
</g>
<!-- Node6 -->
<g id="Node000006" class="node">
<title>Node6</title>
<g id="a_Node000006"><a xlink:title=" ">
<polygon fill="white" stroke="transparent" points="582,-492 452,-492 452,-432 582,-432 582,-492"/>
<text text-anchor="start" x="457" y="-480" font-family="Helvetica,sans-Serif" font-size="10.00">Matx&lt; Tp, MeasureDim,</text>
<text text-anchor="start" x="478.5" y="-469" font-family="Helvetica,sans-Serif" font-size="10.00"> MeasureDim &gt;</text>
<text text-anchor="start" x="515" y="-454" font-family="Helvetica,sans-Serif" font-size="10.00"> </text>
<text text-anchor="start" x="515" y="-439" font-family="Helvetica,sans-Serif" font-size="10.00"> </text>
<polygon fill="#666666" stroke="#666666" points="452,-464 452,-464 582,-464 582,-464 452,-464"/>
<polygon fill="#666666" stroke="#666666" points="452,-449 452,-449 582,-449 582,-449 452,-449"/>
<polygon fill="none" stroke="#666666" points="452,-432 452,-492 582,-492 582,-432 452,-432"/>
</a>
</g>
</g>
<!-- Node6&#45;&gt;Node2 -->
<g id="edge5_Node000002_Node000006" class="edge">
<title>Node6&#45;&gt;Node2</title>
<g id="a_edge5_Node000002_Node000006"><a xlink:title=" ">
<path fill="none" stroke="#63b8ff" d="M493.57,-431.63C478.24,-412.42 457.47,-386.38 437.71,-361.6"/>
<polygon fill="none" stroke="#63b8ff" points="437.68,-361.56 430.81,-359.37 430.19,-352.18 437.06,-354.38 437.68,-361.56"/>
</a>
</g>
<text text-anchor="middle" x="489.5" y="-389.5" font-family="Helvetica,sans-Serif" font-size="10.00" fill="grey"> #R</text>
</g>
<!-- Node7 -->
<g id="Node000007" class="node">
<title>Node7</title>
<g id="a_Node000007"><a xlink:title=" ">
<polygon fill="white" stroke="transparent" points="713.5,-492 600.5,-492 600.5,-432 713.5,-432 713.5,-492"/>
<text text-anchor="start" x="606" y="-480" font-family="Helvetica,sans-Serif" font-size="10.00">Matx&lt; Tp, StateDim,</text>
<text text-anchor="start" x="619" y="-469" font-family="Helvetica,sans-Serif" font-size="10.00"> MeasureDim &gt;</text>
<text text-anchor="start" x="655.5" y="-454" font-family="Helvetica,sans-Serif" font-size="10.00"> </text>
<text text-anchor="start" x="655.5" y="-439" font-family="Helvetica,sans-Serif" font-size="10.00"> </text>
<polygon fill="#666666" stroke="#666666" points="601,-464 601,-464 714,-464 714,-464 601,-464"/>
<polygon fill="#666666" stroke="#666666" points="601,-449 601,-449 714,-449 714,-449 601,-449"/>
<polygon fill="none" stroke="#666666" points="600.5,-432 600.5,-492 713.5,-492 713.5,-432 600.5,-432"/>
</a>
</g>
</g>
<!-- Node7&#45;&gt;Node2 -->
<g id="edge6_Node000002_Node000007" class="edge">
<title>Node7&#45;&gt;Node2</title>
<g id="a_edge6_Node000002_Node000007"><a xlink:title=" ">
<path fill="none" stroke="#63b8ff" d="M610.45,-431.82C572.27,-407.9 517.04,-373.27 469.88,-343.72"/>
<polygon fill="none" stroke="#63b8ff" points="469.81,-343.67 462.6,-343.87 459.64,-337.3 466.85,-337.09 469.81,-343.67"/>
</a>
</g>
<text text-anchor="middle" x="590.5" y="-389.5" font-family="Helvetica,sans-Serif" font-size="10.00" fill="grey"> #K</text>
</g>
</g>
</svg>
