<?xml version="1.0" encoding="UTF-8" standalone="no"?>
<!DOCTYPE svg PUBLIC "-//W3C//DTD SVG 1.1//EN"
 "http://www.w3.org/Graphics/SVG/1.1/DTD/svg11.dtd">
<!-- Generated by graphviz version 2.43.0 (0)
 -->
<!-- Title: rmvl/decider/translation_decider.h Pages: 1 -->
<svg width="1145pt" height="543pt"
 viewBox="0.00 0.00 1145.00 543.00" xmlns="http://www.w3.org/2000/svg" xmlns:xlink="http://www.w3.org/1999/xlink">
<g id="graph0" class="graph" transform="scale(1 1) rotate(0) translate(4 539)">
<title>rmvl/decider/translation_decider.h</title>
<polygon fill="white" stroke="transparent" points="-4,4 -4,-539 1141,-539 1141,4 -4,4"/>
<!-- Node1 -->
<g id="node1" class="node">
<title>Node1</title>
<g id="a_node1"><a xlink:title="平移目标决策器头文件">
<polygon fill="#bfbfbf" stroke="black" points="182,-504.5 182,-534.5 316,-534.5 316,-504.5 182,-504.5"/>
<text text-anchor="start" x="190" y="-522.5" font-family="Helvetica,sans-Serif" font-size="10.00">rmvl/decider/translation</text>
<text text-anchor="middle" x="249" y="-511.5" font-family="Helvetica,sans-Serif" font-size="10.00">_decider.h</text>
</a>
</g>
</g>
<!-- Node2 -->
<g id="node2" class="node">
<title>Node2</title>
<g id="a_node2"><a xlink:href="../../d3/d70/decider_8h.html" target="_top" xlink:title="抽象决策类头文件">
<polygon fill="white" stroke="black" points="218.5,-448.5 218.5,-467.5 279.5,-467.5 279.5,-448.5 218.5,-448.5"/>
<text text-anchor="middle" x="249" y="-455.5" font-family="Helvetica,sans-Serif" font-size="10.00">decider.h</text>
</a>
</g>
</g>
<!-- Node1&#45;&gt;Node2 -->
<g id="edge1" class="edge">
<title>Node1&#45;&gt;Node2</title>
<path fill="none" stroke="midnightblue" d="M249,-504.4C249,-496.47 249,-486.46 249,-477.86"/>
<polygon fill="midnightblue" stroke="midnightblue" points="252.5,-477.66 249,-467.66 245.5,-477.66 252.5,-477.66"/>
</g>
<!-- Node3 -->
<g id="node3" class="node">
<title>Node3</title>
<g id="a_node3"><a xlink:href="../../d9/df2/compensator_8h.html" target="_top" xlink:title="抽象补偿类头文件">
<polygon fill="white" stroke="black" points="158.5,-392.5 158.5,-411.5 339.5,-411.5 339.5,-392.5 158.5,-392.5"/>
<text text-anchor="middle" x="249" y="-399.5" font-family="Helvetica,sans-Serif" font-size="10.00">rmvl/compensator/compensator.h</text>
</a>
</g>
</g>
<!-- Node2&#45;&gt;Node3 -->
<g id="edge2" class="edge">
<title>Node2&#45;&gt;Node3</title>
<path fill="none" stroke="midnightblue" d="M249,-448.08C249,-441.01 249,-430.86 249,-421.99"/>
<polygon fill="midnightblue" stroke="midnightblue" points="252.5,-421.75 249,-411.75 245.5,-421.75 252.5,-421.75"/>
</g>
<!-- Node28 -->
<g id="node28" class="node">
<title>Node28</title>
<g id="a_node28"><a xlink:href="../../d5/d9f/detector_8h.html" target="_top" xlink:title="抽象识别类头文件">
<polygon fill="white" stroke="black" points="358,-392.5 358,-411.5 492,-411.5 492,-392.5 358,-392.5"/>
<text text-anchor="middle" x="425" y="-399.5" font-family="Helvetica,sans-Serif" font-size="10.00">rmvl/detector/detector.h</text>
</a>
</g>
</g>
<!-- Node2&#45;&gt;Node28 -->
<g id="edge32" class="edge">
<title>Node2&#45;&gt;Node28</title>
<path fill="none" stroke="midnightblue" d="M276.89,-448.44C306.75,-439.28 354.31,-424.69 387.46,-414.52"/>
<polygon fill="midnightblue" stroke="midnightblue" points="388.71,-417.8 397.24,-411.52 386.66,-411.1 388.71,-417.8"/>
</g>
<!-- Node31 -->
<g id="node31" class="node">
<title>Node31</title>
<g id="a_node31"><a xlink:href="../../dc/d08/predictor_8h.html" target="_top" xlink:title="抽象预测类头文件">
<polygon fill="white" stroke="black" points="0,-392.5 0,-411.5 140,-411.5 140,-392.5 0,-392.5"/>
<text text-anchor="middle" x="70" y="-399.5" font-family="Helvetica,sans-Serif" font-size="10.00">rmvl/predictor/predictor.h</text>
</a>
</g>
</g>
<!-- Node2&#45;&gt;Node31 -->
<g id="edge36" class="edge">
<title>Node2&#45;&gt;Node31</title>
<path fill="none" stroke="midnightblue" d="M220.64,-448.44C190.26,-439.28 141.89,-424.69 108.18,-414.52"/>
<polygon fill="midnightblue" stroke="midnightblue" points="108.82,-411.05 98.23,-411.52 106.79,-417.76 108.82,-411.05"/>
</g>
<!-- Node4 -->
<g id="node4" class="node">
<title>Node4</title>
<g id="a_node4"><a xlink:title=" ">
<polygon fill="white" stroke="#bfbfbf" points="61.5,-56.5 61.5,-75.5 154.5,-75.5 154.5,-56.5 61.5,-56.5"/>
<text text-anchor="middle" x="108" y="-63.5" font-family="Helvetica,sans-Serif" font-size="10.00">unordered_map</text>
</a>
</g>
</g>
<!-- Node3&#45;&gt;Node4 -->
<g id="edge3" class="edge">
<title>Node3&#45;&gt;Node4</title>
<path fill="none" stroke="midnightblue" d="M219.1,-392.45C177.71,-378.56 108,-346.89 108,-291 108,-291 108,-291 108,-177 108,-144.95 108,-107.64 108,-85.75"/>
<polygon fill="midnightblue" stroke="midnightblue" points="111.5,-85.56 108,-75.56 104.5,-85.56 111.5,-85.56"/>
</g>
<!-- Node5 -->
<g id="node5" class="node">
<title>Node5</title>
<g id="a_node5"><a xlink:href="../../d9/dd1/group_8h.html" target="_top" xlink:title="序列组抽象头文件">
<polygon fill="white" stroke="black" points="203,-336.5 203,-355.5 313,-355.5 313,-336.5 203,-336.5"/>
<text text-anchor="middle" x="258" y="-343.5" font-family="Helvetica,sans-Serif" font-size="10.00">rmvl/group/group.h</text>
</a>
</g>
</g>
<!-- Node3&#45;&gt;Node5 -->
<g id="edge4" class="edge">
<title>Node3&#45;&gt;Node5</title>
<path fill="none" stroke="midnightblue" d="M250.49,-392.08C251.68,-384.93 253.39,-374.64 254.88,-365.69"/>
<polygon fill="midnightblue" stroke="midnightblue" points="258.35,-366.19 256.54,-355.75 251.45,-365.04 258.35,-366.19"/>
</g>
<!-- Node6 -->
<g id="node6" class="node">
<title>Node6</title>
<g id="a_node6"><a xlink:href="../../dc/ded/tracker_8h.html" target="_top" xlink:title="追踪器抽象头文件">
<polygon fill="white" stroke="black" points="206.5,-280.5 206.5,-299.5 327.5,-299.5 327.5,-280.5 206.5,-280.5"/>
<text text-anchor="middle" x="267" y="-287.5" font-family="Helvetica,sans-Serif" font-size="10.00">rmvl/tracker/tracker.h</text>
</a>
</g>
</g>
<!-- Node5&#45;&gt;Node6 -->
<g id="edge5" class="edge">
<title>Node5&#45;&gt;Node6</title>
<path fill="none" stroke="midnightblue" d="M259.49,-336.08C260.68,-328.93 262.39,-318.64 263.88,-309.69"/>
<polygon fill="midnightblue" stroke="midnightblue" points="267.35,-310.19 265.54,-299.75 260.45,-309.04 267.35,-310.19"/>
</g>
<!-- Node7 -->
<g id="node7" class="node">
<title>Node7</title>
<g id="a_node7"><a xlink:title=" ">
<polygon fill="white" stroke="#bfbfbf" points="243.5,-224.5 243.5,-243.5 290.5,-243.5 290.5,-224.5 243.5,-224.5"/>
<text text-anchor="middle" x="267" y="-231.5" font-family="Helvetica,sans-Serif" font-size="10.00">deque</text>
</a>
</g>
</g>
<!-- Node6&#45;&gt;Node7 -->
<g id="edge6" class="edge">
<title>Node6&#45;&gt;Node7</title>
<path fill="none" stroke="midnightblue" d="M267,-280.08C267,-273.01 267,-262.86 267,-253.99"/>
<polygon fill="midnightblue" stroke="midnightblue" points="270.5,-253.75 267,-243.75 263.5,-253.75 270.5,-253.75"/>
</g>
<!-- Node8 -->
<g id="node8" class="node">
<title>Node8</title>
<g id="a_node8"><a xlink:href="../../d8/d36/combo_8h.html" target="_top" xlink:title="the combination of the features header file">
<polygon fill="white" stroke="black" points="787,-224.5 787,-243.5 907,-243.5 907,-224.5 787,-224.5"/>
<text text-anchor="middle" x="847" y="-231.5" font-family="Helvetica,sans-Serif" font-size="10.00">rmvl/combo/combo.h</text>
</a>
</g>
</g>
<!-- Node6&#45;&gt;Node8 -->
<g id="edge7" class="edge">
<title>Node6&#45;&gt;Node8</title>
<path fill="none" stroke="midnightblue" d="M327.84,-282.61C336.61,-281.72 345.54,-280.82 354,-280 504.42,-265.36 680.8,-249.6 776.51,-241.17"/>
<polygon fill="midnightblue" stroke="midnightblue" points="776.99,-244.64 786.64,-240.27 776.37,-237.66 776.99,-244.64"/>
</g>
<!-- Node9 -->
<g id="node9" class="node">
<title>Node9</title>
<g id="a_node9"><a xlink:href="../../d3/d7e/camutils_8hpp.html" target="_top" xlink:title=" ">
<polygon fill="white" stroke="black" points="438.5,-168.5 438.5,-187.5 583.5,-187.5 583.5,-168.5 438.5,-168.5"/>
<text text-anchor="middle" x="511" y="-175.5" font-family="Helvetica,sans-Serif" font-size="10.00">rmvl/camera/camutils.hpp</text>
</a>
</g>
</g>
<!-- Node8&#45;&gt;Node9 -->
<g id="edge8" class="edge">
<title>Node8&#45;&gt;Node9</title>
<path fill="none" stroke="midnightblue" d="M793.76,-224.44C734.04,-214.85 637.26,-199.29 573.87,-189.1"/>
<polygon fill="midnightblue" stroke="midnightblue" points="574.42,-185.65 563.99,-187.52 573.31,-192.56 574.42,-185.65"/>
</g>
<!-- Node24 -->
<g id="node24" class="node">
<title>Node24</title>
<g id="a_node24"><a xlink:href="../../dd/de3/types_8hpp.html" target="_top" xlink:title="常用状态类型定义">
<polygon fill="white" stroke="black" points="846,-112.5 846,-131.5 936,-131.5 936,-112.5 846,-112.5"/>
<text text-anchor="middle" x="891" y="-119.5" font-family="Helvetica,sans-Serif" font-size="10.00">rmvl/types.hpp</text>
</a>
</g>
</g>
<!-- Node8&#45;&gt;Node24 -->
<g id="edge24" class="edge">
<title>Node8&#45;&gt;Node24</title>
<path fill="none" stroke="midnightblue" d="M849.08,-224.4C852.27,-211.79 858.84,-187.62 867,-168 870.87,-158.7 876.04,-148.78 880.59,-140.63"/>
<polygon fill="midnightblue" stroke="midnightblue" points="883.76,-142.14 885.7,-131.72 877.69,-138.65 883.76,-142.14"/>
</g>
<!-- Node25 -->
<g id="node25" class="node">
<title>Node25</title>
<g id="a_node25"><a xlink:href="../../d5/d60/dataio_8hpp.html" target="_top" xlink:title="陀螺仪数据">
<polygon fill="white" stroke="black" points="1019,-168.5 1019,-187.5 1137,-187.5 1137,-168.5 1019,-168.5"/>
<text text-anchor="middle" x="1078" y="-175.5" font-family="Helvetica,sans-Serif" font-size="10.00">rmvl/core/dataio.hpp</text>
</a>
</g>
</g>
<!-- Node8&#45;&gt;Node25 -->
<g id="edge26" class="edge">
<title>Node8&#45;&gt;Node25</title>
<path fill="none" stroke="midnightblue" d="M883.6,-224.44C923.73,-215.06 988.2,-199.99 1031.78,-189.8"/>
<polygon fill="midnightblue" stroke="midnightblue" points="1032.63,-193.2 1041.57,-187.52 1031.03,-186.38 1032.63,-193.2"/>
</g>
<!-- Node26 -->
<g id="node26" class="node">
<title>Node26</title>
<g id="a_node26"><a xlink:href="../../d2/d74/feature_8h.html" target="_top" xlink:title="feature class header">
<polygon fill="white" stroke="black" points="875.5,-168.5 875.5,-187.5 1000.5,-187.5 1000.5,-168.5 875.5,-168.5"/>
<text text-anchor="middle" x="938" y="-175.5" font-family="Helvetica,sans-Serif" font-size="10.00">rmvl/feature/feature.h</text>
</a>
</g>
</g>
<!-- Node8&#45;&gt;Node26 -->
<g id="edge28" class="edge">
<title>Node8&#45;&gt;Node26</title>
<path fill="none" stroke="midnightblue" d="M861.62,-224.32C875.95,-215.82 898.01,-202.73 914.75,-192.8"/>
<polygon fill="midnightblue" stroke="midnightblue" points="916.6,-195.77 923.42,-187.65 913.03,-189.75 916.6,-195.77"/>
</g>
<!-- Node10 -->
<g id="node10" class="node">
<title>Node10</title>
<g id="a_node10"><a xlink:title=" ">
<polygon fill="white" stroke="#bfbfbf" points="136.5,-112.5 136.5,-131.5 213.5,-131.5 213.5,-112.5 136.5,-112.5"/>
<text text-anchor="middle" x="175" y="-119.5" font-family="Helvetica,sans-Serif" font-size="10.00">Eigen/Dense</text>
</a>
</g>
</g>
<!-- Node9&#45;&gt;Node10 -->
<g id="edge9" class="edge">
<title>Node9&#45;&gt;Node10</title>
<path fill="none" stroke="midnightblue" d="M452.23,-168.46C395.99,-160.15 308.52,-146.87 223.76,-132.26"/>
<polygon fill="midnightblue" stroke="midnightblue" points="224.16,-128.78 213.71,-130.52 222.97,-135.68 224.16,-128.78"/>
</g>
<!-- Node11 -->
<g id="node11" class="node">
<title>Node11</title>
<g id="a_node11"><a xlink:title=" ">
<polygon fill="white" stroke="#bfbfbf" points="231.5,-112.5 231.5,-131.5 348.5,-131.5 348.5,-112.5 231.5,-112.5"/>
<text text-anchor="middle" x="290" y="-119.5" font-family="Helvetica,sans-Serif" font-size="10.00">opencv2/calib3d.hpp</text>
</a>
</g>
</g>
<!-- Node9&#45;&gt;Node11 -->
<g id="edge10" class="edge">
<title>Node9&#45;&gt;Node11</title>
<path fill="none" stroke="midnightblue" d="M475.98,-168.44C437.75,-159.1 376.43,-144.12 334.74,-133.93"/>
<polygon fill="midnightblue" stroke="midnightblue" points="335.4,-130.49 324.85,-131.52 333.74,-137.29 335.4,-130.49"/>
</g>
<!-- Node12 -->
<g id="node12" class="node">
<title>Node12</title>
<g id="a_node12"><a xlink:title=" ">
<polygon fill="white" stroke="#bfbfbf" points="366.5,-112.5 366.5,-131.5 499.5,-131.5 499.5,-112.5 366.5,-112.5"/>
<text text-anchor="middle" x="433" y="-119.5" font-family="Helvetica,sans-Serif" font-size="10.00">opencv2/core/eigen.hpp</text>
</a>
</g>
</g>
<!-- Node9&#45;&gt;Node12 -->
<g id="edge11" class="edge">
<title>Node9&#45;&gt;Node12</title>
<path fill="none" stroke="midnightblue" d="M498.47,-168.32C486.41,-159.98 467.97,-147.21 453.73,-137.35"/>
<polygon fill="midnightblue" stroke="midnightblue" points="455.72,-134.47 445.5,-131.65 451.73,-140.22 455.72,-134.47"/>
</g>
<!-- Node13 -->
<g id="node13" class="node">
<title>Node13</title>
<g id="a_node13"><a xlink:href="../../dc/d71/uty__math_8hpp.html" target="_top" xlink:title=" ">
<polygon fill="white" stroke="black" points="518,-112.5 518,-131.5 660,-131.5 660,-112.5 518,-112.5"/>
<text text-anchor="middle" x="589" y="-119.5" font-family="Helvetica,sans-Serif" font-size="10.00">rmvl/rmath/uty_math.hpp</text>
</a>
</g>
</g>
<!-- Node9&#45;&gt;Node13 -->
<g id="edge12" class="edge">
<title>Node9&#45;&gt;Node13</title>
<path fill="none" stroke="midnightblue" d="M523.53,-168.32C535.59,-159.98 554.03,-147.21 568.27,-137.35"/>
<polygon fill="midnightblue" stroke="midnightblue" points="570.27,-140.22 576.5,-131.65 566.28,-134.47 570.27,-140.22"/>
</g>
<!-- Node22 -->
<g id="node22" class="node">
<title>Node22</title>
<g id="a_node22"><a xlink:href="../../d7/df6/camera_8h.html" target="_top" xlink:title="CameraParam module header file (Generated by CMake automatically)">
<polygon fill="white" stroke="black" points="678.5,-112.5 678.5,-131.5 827.5,-131.5 827.5,-112.5 678.5,-112.5"/>
<text text-anchor="middle" x="753" y="-119.5" font-family="Helvetica,sans-Serif" font-size="10.00">rmvlpara/camera/camera.h</text>
</a>
</g>
</g>
<!-- Node9&#45;&gt;Node22 -->
<g id="edge22" class="edge">
<title>Node9&#45;&gt;Node22</title>
<path fill="none" stroke="midnightblue" d="M549.35,-168.44C591.47,-159.04 659.21,-143.93 704.87,-133.74"/>
<polygon fill="midnightblue" stroke="midnightblue" points="705.84,-137.11 714.83,-131.52 704.31,-130.28 705.84,-137.11"/>
</g>
<!-- Node13&#45;&gt;Node4 -->
<g id="edge14" class="edge">
<title>Node13&#45;&gt;Node4</title>
<path fill="none" stroke="midnightblue" d="M517.9,-113C514.89,-112.66 511.92,-112.33 509,-112 386.24,-98.21 242.34,-82.07 164.67,-73.35"/>
<polygon fill="midnightblue" stroke="midnightblue" points="164.94,-69.86 154.61,-72.23 164.16,-76.82 164.94,-69.86"/>
</g>
<!-- Node14 -->
<g id="node14" class="node">
<title>Node14</title>
<g id="a_node14"><a xlink:title=" ">
<polygon fill="white" stroke="#bfbfbf" points="601.5,-56.5 601.5,-75.5 648.5,-75.5 648.5,-56.5 601.5,-56.5"/>
<text text-anchor="middle" x="625" y="-63.5" font-family="Helvetica,sans-Serif" font-size="10.00">cmath</text>
</a>
</g>
</g>
<!-- Node13&#45;&gt;Node14 -->
<g id="edge13" class="edge">
<title>Node13&#45;&gt;Node14</title>
<path fill="none" stroke="midnightblue" d="M594.94,-112.08C599.98,-104.53 607.34,-93.49 613.51,-84.23"/>
<polygon fill="midnightblue" stroke="midnightblue" points="616.53,-86.01 619.17,-75.75 610.71,-82.13 616.53,-86.01"/>
</g>
<!-- Node15 -->
<g id="node15" class="node">
<title>Node15</title>
<g id="a_node15"><a xlink:title=" ">
<polygon fill="white" stroke="#bfbfbf" points="452.5,-56.5 452.5,-75.5 583.5,-75.5 583.5,-56.5 452.5,-56.5"/>
<text text-anchor="middle" x="518" y="-63.5" font-family="Helvetica,sans-Serif" font-size="10.00">opencv2/core/matx.hpp</text>
</a>
</g>
</g>
<!-- Node13&#45;&gt;Node15 -->
<g id="edge15" class="edge">
<title>Node13&#45;&gt;Node15</title>
<path fill="none" stroke="midnightblue" d="M577.59,-112.32C566.89,-104.18 550.66,-91.84 537.84,-82.09"/>
<polygon fill="midnightblue" stroke="midnightblue" points="539.69,-79.1 529.61,-75.83 535.46,-84.67 539.69,-79.1"/>
</g>
<!-- Node16 -->
<g id="node16" class="node">
<title>Node16</title>
<g id="a_node16"><a xlink:href="../../d0/d3f/util_8hpp.html" target="_top" xlink:title=" ">
<polygon fill="white" stroke="black" points="703.5,-56.5 703.5,-75.5 806.5,-75.5 806.5,-56.5 703.5,-56.5"/>
<text text-anchor="middle" x="755" y="-63.5" font-family="Helvetica,sans-Serif" font-size="10.00">rmvl/core/util.hpp</text>
</a>
</g>
</g>
<!-- Node13&#45;&gt;Node16 -->
<g id="edge16" class="edge">
<title>Node13&#45;&gt;Node16</title>
<path fill="none" stroke="midnightblue" d="M615.3,-112.44C643.35,-103.32 687.94,-88.81 719.18,-78.65"/>
<polygon fill="midnightblue" stroke="midnightblue" points="720.39,-81.94 728.82,-75.52 718.23,-75.28 720.39,-81.94"/>
</g>
<!-- Node17 -->
<g id="node17" class="node">
<title>Node17</title>
<g id="a_node17"><a xlink:title=" ">
<polygon fill="white" stroke="#bfbfbf" points="512.5,-0.5 512.5,-19.5 645.5,-19.5 645.5,-0.5 512.5,-0.5"/>
<text text-anchor="middle" x="579" y="-7.5" font-family="Helvetica,sans-Serif" font-size="10.00">rmvl/rmvl_modules.hpp</text>
</a>
</g>
</g>
<!-- Node16&#45;&gt;Node17 -->
<g id="edge17" class="edge">
<title>Node16&#45;&gt;Node17</title>
<path fill="none" stroke="midnightblue" d="M727.11,-56.44C697.25,-47.28 649.69,-32.69 616.54,-22.52"/>
<polygon fill="midnightblue" stroke="midnightblue" points="617.34,-19.1 606.76,-19.52 615.29,-25.8 617.34,-19.1"/>
</g>
<!-- Node18 -->
<g id="node18" class="node">
<title>Node18</title>
<g id="a_node18"><a xlink:title=" ">
<polygon fill="white" stroke="#bfbfbf" points="664,-0.5 664,-19.5 714,-19.5 714,-0.5 664,-0.5"/>
<text text-anchor="middle" x="689" y="-7.5" font-family="Helvetica,sans-Serif" font-size="10.00">cstdint</text>
</a>
</g>
</g>
<!-- Node16&#45;&gt;Node18 -->
<g id="edge18" class="edge">
<title>Node16&#45;&gt;Node18</title>
<path fill="none" stroke="midnightblue" d="M744.4,-56.32C734.54,-48.26 719.65,-36.08 707.78,-26.37"/>
<polygon fill="midnightblue" stroke="midnightblue" points="709.75,-23.46 699.8,-19.83 705.32,-28.88 709.75,-23.46"/>
</g>
<!-- Node19 -->
<g id="node19" class="node">
<title>Node19</title>
<g id="a_node19"><a xlink:title=" ">
<polygon fill="white" stroke="#bfbfbf" points="732,-0.5 732,-19.5 778,-19.5 778,-0.5 732,-0.5"/>
<text text-anchor="middle" x="755" y="-7.5" font-family="Helvetica,sans-Serif" font-size="10.00">cstdio</text>
</a>
</g>
</g>
<!-- Node16&#45;&gt;Node19 -->
<g id="edge19" class="edge">
<title>Node16&#45;&gt;Node19</title>
<path fill="none" stroke="midnightblue" d="M755,-56.08C755,-49.01 755,-38.86 755,-29.99"/>
<polygon fill="midnightblue" stroke="midnightblue" points="758.5,-29.75 755,-19.75 751.5,-29.75 758.5,-29.75"/>
</g>
<!-- Node20 -->
<g id="node20" class="node">
<title>Node20</title>
<g id="a_node20"><a xlink:title=" ">
<polygon fill="white" stroke="#bfbfbf" points="796,-0.5 796,-19.5 840,-19.5 840,-0.5 796,-0.5"/>
<text text-anchor="middle" x="818" y="-7.5" font-family="Helvetica,sans-Serif" font-size="10.00">string</text>
</a>
</g>
</g>
<!-- Node16&#45;&gt;Node20 -->
<g id="edge20" class="edge">
<title>Node16&#45;&gt;Node20</title>
<path fill="none" stroke="midnightblue" d="M765.12,-56.32C774.53,-48.26 788.74,-36.08 800.07,-26.37"/>
<polygon fill="midnightblue" stroke="midnightblue" points="802.38,-29 807.69,-19.83 797.82,-23.68 802.38,-29"/>
</g>
<!-- Node21 -->
<g id="node21" class="node">
<title>Node21</title>
<g id="a_node21"><a xlink:href="../../db/d41/rmvldef_8hpp.html" target="_top" xlink:title=" ">
<polygon fill="white" stroke="black" points="858.5,-0.5 858.5,-19.5 933.5,-19.5 933.5,-0.5 858.5,-0.5"/>
<text text-anchor="middle" x="896" y="-7.5" font-family="Helvetica,sans-Serif" font-size="10.00">rmvldef.hpp</text>
</a>
</g>
</g>
<!-- Node16&#45;&gt;Node21 -->
<g id="edge21" class="edge">
<title>Node16&#45;&gt;Node21</title>
<path fill="none" stroke="midnightblue" d="M777.34,-56.44C800.75,-47.48 837.74,-33.31 864.19,-23.18"/>
<polygon fill="midnightblue" stroke="midnightblue" points="865.68,-26.36 873.76,-19.52 863.17,-19.82 865.68,-26.36"/>
</g>
<!-- Node23 -->
<g id="node23" class="node">
<title>Node23</title>
<g id="a_node23"><a xlink:title=" ">
<polygon fill="white" stroke="#bfbfbf" points="897.5,-56.5 897.5,-75.5 1030.5,-75.5 1030.5,-56.5 897.5,-56.5"/>
<text text-anchor="middle" x="964" y="-63.5" font-family="Helvetica,sans-Serif" font-size="10.00">opencv2/core/types.hpp</text>
</a>
</g>
</g>
<!-- Node22&#45;&gt;Node23 -->
<g id="edge23" class="edge">
<title>Node22&#45;&gt;Node23</title>
<path fill="none" stroke="midnightblue" d="M786.43,-112.44C822.86,-103.12 881.23,-88.18 921.03,-78"/>
<polygon fill="midnightblue" stroke="midnightblue" points="921.9,-81.39 930.72,-75.52 920.17,-74.61 921.9,-81.39"/>
</g>
<!-- Node24&#45;&gt;Node16 -->
<g id="edge25" class="edge">
<title>Node24&#45;&gt;Node16</title>
<path fill="none" stroke="midnightblue" d="M869.45,-112.44C846.97,-103.52 811.51,-89.44 786.02,-79.32"/>
<polygon fill="midnightblue" stroke="midnightblue" points="787.03,-75.95 776.45,-75.52 784.45,-82.46 787.03,-75.95"/>
</g>
<!-- Node25&#45;&gt;Node23 -->
<g id="edge27" class="edge">
<title>Node25&#45;&gt;Node23</title>
<path fill="none" stroke="midnightblue" d="M1077.67,-168.37C1076.71,-154.84 1073.04,-128.46 1059,-112 1045.81,-96.54 1026.11,-86.01 1008.07,-79.05"/>
<polygon fill="midnightblue" stroke="midnightblue" points="1008.86,-75.62 998.27,-75.55 1006.5,-82.21 1008.86,-75.62"/>
</g>
<!-- Node26&#45;&gt;Node23 -->
<g id="edge30" class="edge">
<title>Node26&#45;&gt;Node23</title>
<path fill="none" stroke="midnightblue" d="M940.04,-168.37C944.24,-150.62 953.92,-109.67 959.6,-85.6"/>
<polygon fill="midnightblue" stroke="midnightblue" points="963.08,-86.13 961.97,-75.59 956.26,-84.52 963.08,-86.13"/>
</g>
<!-- Node26&#45;&gt;Node24 -->
<g id="edge31" class="edge">
<title>Node26&#45;&gt;Node24</title>
<path fill="none" stroke="midnightblue" d="M930.24,-168.08C923.46,-160.3 913.46,-148.8 905.24,-139.37"/>
<polygon fill="midnightblue" stroke="midnightblue" points="907.82,-137 898.62,-131.75 902.54,-141.59 907.82,-137"/>
</g>
<!-- Node27 -->
<g id="node27" class="node">
<title>Node27</title>
<g id="a_node27"><a xlink:title=" ">
<polygon fill="white" stroke="#bfbfbf" points="992,-112.5 992,-131.5 1050,-131.5 1050,-112.5 992,-112.5"/>
<text text-anchor="middle" x="1021" y="-119.5" font-family="Helvetica,sans-Serif" font-size="10.00">memory</text>
</a>
</g>
</g>
<!-- Node26&#45;&gt;Node27 -->
<g id="edge29" class="edge">
<title>Node26&#45;&gt;Node27</title>
<path fill="none" stroke="midnightblue" d="M951.34,-168.32C964.16,-159.98 983.78,-147.21 998.94,-137.35"/>
<polygon fill="midnightblue" stroke="midnightblue" points="1001.22,-140.04 1007.7,-131.65 997.41,-134.17 1001.22,-140.04"/>
</g>
<!-- Node28&#45;&gt;Node5 -->
<g id="edge33" class="edge">
<title>Node28&#45;&gt;Node5</title>
<path fill="none" stroke="midnightblue" d="M398.54,-392.44C370.32,-383.32 325.46,-368.81 294.03,-358.65"/>
<polygon fill="midnightblue" stroke="midnightblue" points="294.93,-355.26 284.34,-355.52 292.78,-361.92 294.93,-355.26"/>
</g>
<!-- Node29 -->
<g id="node29" class="node">
<title>Node29</title>
<g id="a_node29"><a xlink:href="../../df/d4b/pretreat_8h.html" target="_top" xlink:title="Header of the image pretreating module">
<polygon fill="white" stroke="black" points="358.5,-336.5 358.5,-355.5 491.5,-355.5 491.5,-336.5 358.5,-336.5"/>
<text text-anchor="middle" x="425" y="-343.5" font-family="Helvetica,sans-Serif" font-size="10.00">rmvl/imgproc/pretreat.h</text>
</a>
</g>
</g>
<!-- Node28&#45;&gt;Node29 -->
<g id="edge34" class="edge">
<title>Node28&#45;&gt;Node29</title>
<path fill="none" stroke="midnightblue" d="M425,-392.08C425,-385.01 425,-374.86 425,-365.99"/>
<polygon fill="midnightblue" stroke="midnightblue" points="428.5,-365.75 425,-355.75 421.5,-365.75 428.5,-365.75"/>
</g>
<!-- Node30 -->
<g id="node30" class="node">
<title>Node30</title>
<g id="a_node30"><a xlink:title=" ">
<polygon fill="white" stroke="#bfbfbf" points="362.5,-280.5 362.5,-299.5 487.5,-299.5 487.5,-280.5 362.5,-280.5"/>
<text text-anchor="middle" x="425" y="-287.5" font-family="Helvetica,sans-Serif" font-size="10.00">opencv2/core/mat.hpp</text>
</a>
</g>
</g>
<!-- Node29&#45;&gt;Node30 -->
<g id="edge35" class="edge">
<title>Node29&#45;&gt;Node30</title>
<path fill="none" stroke="midnightblue" d="M425,-336.08C425,-329.01 425,-318.86 425,-309.99"/>
<polygon fill="midnightblue" stroke="midnightblue" points="428.5,-309.75 425,-299.75 421.5,-309.75 428.5,-309.75"/>
</g>
<!-- Node31&#45;&gt;Node4 -->
<g id="edge37" class="edge">
<title>Node31&#45;&gt;Node4</title>
<path fill="none" stroke="midnightblue" d="M70,-392.44C70,-373.94 70,-328.81 70,-291 70,-291 70,-291 70,-177 70,-142.81 86.6,-105.76 97.86,-84.57"/>
<polygon fill="midnightblue" stroke="midnightblue" points="100.95,-86.22 102.72,-75.77 94.82,-82.83 100.95,-86.22"/>
</g>
<!-- Node31&#45;&gt;Node5 -->
<g id="edge38" class="edge">
<title>Node31&#45;&gt;Node5</title>
<path fill="none" stroke="midnightblue" d="M99.79,-392.44C131.83,-383.24 182.93,-368.56 218.35,-358.39"/>
<polygon fill="midnightblue" stroke="midnightblue" points="219.71,-361.64 228.35,-355.52 217.77,-354.91 219.71,-361.64"/>
</g>
</g>
</svg>
