<?xml version="1.0" encoding="UTF-8" standalone="no"?>
<!DOCTYPE svg PUBLIC "-//W3C//DTD SVG 1.1//EN"
 "http://www.w3.org/Graphics/SVG/1.1/DTD/svg11.dtd">
<!-- Generated by graphviz version 2.43.0 (0)
 -->
<!-- Title: rmvl/decider/decider.h Pages: 1 -->
<!--zoomable 467 -->

<svg id="main" version="1.1" xmlns="http://www.w3.org/2000/svg" xmlns:xlink="http://www.w3.org/1999/xlink" xml:space="preserve" onload="init(evt)">
<style type="text/css"><![CDATA[
.node, .edge {opacity: 0.7;}
.node.selected, .edge.selected {opacity: 1;}
.edge:hover path { stroke: red; }
.edge:hover polygon { stroke: red; fill: red; }
]]></style>

<defs>
  <circle id="rim" cx="0" cy="0" r="7"/>
  <circle id="rim2" cx="0" cy="0" r="3.5"/>
  <g id="zoomPlus">
    <use xlink:href="#rim" fill="#404040"><set attributeName="fill" to="#808080" begin="zoomplus.mouseover" end="zoomplus.mouseout"/></use>
    <path d="M-4,0h8M0,-4v8" fill="none" stroke="white" stroke-width="1.5" pointer-events="none"/>
  </g>
  <g id="zoomMin">
    <use xlink:href="#rim" fill="#404040"><set attributeName="fill" to="#808080" begin="zoomminus.mouseover" end="zoomminus.mouseout"/></use>
    <path d="M-4,0h8" fill="none" stroke="white" stroke-width="1.5" pointer-events="none"/>
  </g>
  <g id="arrowUp" transform="translate(30 24)">
    <use xlink:href="#rim"/>
    <path pointer-events="none" fill="none" stroke="white" stroke-width="1.5" d="M0,-3.0v7 M-2.5,-0.5L0,-3.0L2.5,-0.5"/>
  </g>
  <g id="arrowRight" transform="rotate(90) translate(36 -43)">
    <use xlink:href="#rim"/>
    <path pointer-events="none" fill="none" stroke="white" stroke-width="1.5" d="M0,-3.0v7 M-2.5,-0.5L0,-3.0L2.5,-0.5"/>
  </g>
  <g id="arrowDown" transform="rotate(180) translate(-30 -48)">
    <use xlink:href="#rim"/>
    <path pointer-events="none" fill="none" stroke="white" stroke-width="1.5" d="M0,-3.0v7 M-2.5,-0.5L0,-3.0L2.5,-0.5"/>
  </g>
  <g id="arrowLeft" transform="rotate(270) translate(-36 17)">
    <use xlink:href="#rim"/>
    <path pointer-events="none" fill="none" stroke="white" stroke-width="1.5" d="M0,-3.0v7 M-2.5,-0.5L0,-3.0L2.5,-0.5"/>
  </g>
  <g id="resetDef">
    <use xlink:href="#rim2" fill="#404040"><set attributeName="fill" to="#808080" begin="reset.mouseover" end="reset.mouseout"/></use>
  </g>
</defs>
<script type="application/ecmascript">
var viewWidth = 1104;
var viewHeight = 467;
var sectionId = 'dynsection-0';
</script>
<script type="application/ecmascript" xlink:href="../../svg.min.js"/>
<svg id="graph" class="graph">
<g id="viewport">
<title>rmvl/decider/decider.h</title>
<!-- Node1 -->
<g id="Node000001" class="node">
<title>Node1</title>
<g id="a_Node000001"><a xlink:title="抽象决策类头文件">
<polygon fill="#999999" stroke="#666666" points="311.5,-459 186.5,-459 186.5,-440 311.5,-440 311.5,-459"/>
<text text-anchor="middle" x="249" y="-447" font-family="Helvetica,sans-Serif" font-size="10.00">rmvl/decider/decider.h</text>
</a>
</g>
</g>
<!-- Node2 -->
<g id="Node000002" class="node">
<title>Node2</title>
<g id="a_Node000002"><a xlink:href="../../d9/df2/compensator_8h.html" target="_top" xlink:title="抽象补偿类头文件">
<polygon fill="white" stroke="#666666" points="339.5,-404 158.5,-404 158.5,-385 339.5,-385 339.5,-404"/>
<text text-anchor="middle" x="249" y="-392" font-family="Helvetica,sans-Serif" font-size="10.00">rmvl/compensator/compensator.h</text>
</a>
</g>
</g>
<!-- Node1&#45;&gt;Node2 -->
<g id="edge1_Node000001_Node000002" class="edge">
<title>Node1&#45;&gt;Node2</title>
<g id="a_edge1_Node000001_Node000002"><a xlink:title=" ">
<path fill="none" stroke="#63b8ff" d="M249,-439.75C249,-432.8 249,-422.85 249,-414.13"/>
<polygon fill="#63b8ff" stroke="#63b8ff" points="252.5,-414.09 249,-404.09 245.5,-414.09 252.5,-414.09"/>
</a>
</g>
</g>
<!-- Node28 -->
<g id="Node000028" class="node">
<title>Node28</title>
<g id="a_Node000028"><a xlink:href="../../d5/d9f/detector_8h.html" target="_top" xlink:title="抽象识别类头文件">
<polygon fill="white" stroke="#666666" points="492,-404 358,-404 358,-385 492,-385 492,-404"/>
<text text-anchor="middle" x="425" y="-392" font-family="Helvetica,sans-Serif" font-size="10.00">rmvl/detector/detector.h</text>
</a>
</g>
</g>
<!-- Node1&#45;&gt;Node28 -->
<g id="edge30_Node000001_Node000028" class="edge">
<title>Node1&#45;&gt;Node28</title>
<g id="a_edge30_Node000001_Node000028"><a xlink:title=" ">
<path fill="none" stroke="#63b8ff" d="M277.28,-439.98C306.95,-431.05 353.79,-416.94 386.75,-407.02"/>
<polygon fill="#63b8ff" stroke="#63b8ff" points="387.93,-410.32 396.5,-404.08 385.92,-403.61 387.93,-410.32"/>
</a>
</g>
</g>
<!-- Node31 -->
<g id="Node000031" class="node">
<title>Node31</title>
<g id="a_Node000031"><a xlink:href="../../dc/d08/predictor_8h.html" target="_top" xlink:title="抽象预测类头文件">
<polygon fill="white" stroke="#666666" points="140,-404 0,-404 0,-385 140,-385 140,-404"/>
<text text-anchor="middle" x="70" y="-392" font-family="Helvetica,sans-Serif" font-size="10.00">rmvl/predictor/predictor.h</text>
</a>
</g>
</g>
<!-- Node1&#45;&gt;Node31 -->
<g id="edge34_Node000001_Node000031" class="edge">
<title>Node1&#45;&gt;Node31</title>
<g id="a_edge34_Node000001_Node000031"><a xlink:title=" ">
<path fill="none" stroke="#63b8ff" d="M220.24,-439.98C190.06,-431.05 142.43,-416.94 108.9,-407.02"/>
<polygon fill="#63b8ff" stroke="#63b8ff" points="109.57,-403.57 98.98,-404.08 107.58,-410.28 109.57,-403.57"/>
</a>
</g>
</g>
<!-- Node3 -->
<g id="Node000003" class="node">
<title>Node3</title>
<g id="a_Node000003"><a xlink:title=" ">
<polygon fill="#e0e0e0" stroke="#999999" points="116.5,-129 23.5,-129 23.5,-110 116.5,-110 116.5,-129"/>
<text text-anchor="middle" x="70" y="-117" font-family="Helvetica,sans-Serif" font-size="10.00">unordered_map</text>
</a>
</g>
</g>
<!-- Node2&#45;&gt;Node3 -->
<g id="edge2_Node000002_Node000003" class="edge">
<title>Node2&#45;&gt;Node3</title>
<g id="a_edge2_Node000002_Node000003"><a xlink:title=" ">
<path fill="none" stroke="#63b8ff" d="M231.06,-385C201.55,-369.62 146,-334.21 146,-285.5 146,-285.5 146,-285.5 146,-228.5 146,-189.47 112.39,-154.58 89.87,-135.6"/>
<polygon fill="#63b8ff" stroke="#63b8ff" points="91.85,-132.7 81.88,-129.12 87.44,-138.14 91.85,-132.7"/>
</a>
</g>
</g>
<!-- Node4 -->
<g id="Node000004" class="node">
<title>Node4</title>
<g id="a_Node000004"><a xlink:href="../../d9/dd1/group_8h.html" target="_top" xlink:title="序列组抽象头文件">
<polygon fill="white" stroke="#666666" points="313,-349 203,-349 203,-330 313,-330 313,-349"/>
<text text-anchor="middle" x="258" y="-337" font-family="Helvetica,sans-Serif" font-size="10.00">rmvl/group/group.h</text>
</a>
</g>
</g>
<!-- Node2&#45;&gt;Node4 -->
<g id="edge3_Node000002_Node000004" class="edge">
<title>Node2&#45;&gt;Node4</title>
<g id="a_edge3_Node000002_Node000004"><a xlink:title=" ">
<path fill="none" stroke="#63b8ff" d="M250.49,-384.75C251.67,-377.8 253.36,-367.85 254.84,-359.13"/>
<polygon fill="#63b8ff" stroke="#63b8ff" points="258.32,-359.53 256.54,-349.09 251.42,-358.36 258.32,-359.53"/>
</a>
</g>
</g>
<!-- Node5 -->
<g id="Node000005" class="node">
<title>Node5</title>
<g id="a_Node000005"><a xlink:href="../../dc/ded/tracker_8h.html" target="_top" xlink:title="追踪器抽象头文件">
<polygon fill="white" stroke="#666666" points="327.5,-294 206.5,-294 206.5,-275 327.5,-275 327.5,-294"/>
<text text-anchor="middle" x="267" y="-282" font-family="Helvetica,sans-Serif" font-size="10.00">rmvl/tracker/tracker.h</text>
</a>
</g>
</g>
<!-- Node4&#45;&gt;Node5 -->
<g id="edge4_Node000004_Node000005" class="edge">
<title>Node4&#45;&gt;Node5</title>
<g id="a_edge4_Node000004_Node000005"><a xlink:title=" ">
<path fill="none" stroke="#63b8ff" d="M259.49,-329.75C260.67,-322.8 262.36,-312.85 263.84,-304.13"/>
<polygon fill="#63b8ff" stroke="#63b8ff" points="267.32,-304.53 265.54,-294.09 260.42,-303.36 267.32,-304.53"/>
</a>
</g>
</g>
<!-- Node6 -->
<g id="Node000006" class="node">
<title>Node6</title>
<g id="a_Node000006"><a xlink:title=" ">
<polygon fill="#e0e0e0" stroke="#999999" points="290.5,-239 243.5,-239 243.5,-220 290.5,-220 290.5,-239"/>
<text text-anchor="middle" x="267" y="-227" font-family="Helvetica,sans-Serif" font-size="10.00">deque</text>
</a>
</g>
</g>
<!-- Node5&#45;&gt;Node6 -->
<g id="edge5_Node000005_Node000006" class="edge">
<title>Node5&#45;&gt;Node6</title>
<g id="a_edge5_Node000005_Node000006"><a xlink:title=" ">
<path fill="none" stroke="#63b8ff" d="M267,-274.75C267,-267.8 267,-257.85 267,-249.13"/>
<polygon fill="#63b8ff" stroke="#63b8ff" points="270.5,-249.09 267,-239.09 263.5,-249.09 270.5,-249.09"/>
</a>
</g>
</g>
<!-- Node7 -->
<g id="Node000007" class="node">
<title>Node7</title>
<g id="a_Node000007"><a xlink:href="../../d8/d36/combo_8h.html" target="_top" xlink:title="the combination of the features header file">
<polygon fill="white" stroke="#666666" points="655,-239 535,-239 535,-220 655,-220 655,-239"/>
<text text-anchor="middle" x="595" y="-227" font-family="Helvetica,sans-Serif" font-size="10.00">rmvl/combo/combo.h</text>
</a>
</g>
</g>
<!-- Node5&#45;&gt;Node7 -->
<g id="edge6_Node000005_Node000007" class="edge">
<title>Node5&#45;&gt;Node7</title>
<g id="a_edge6_Node000005_Node000007"><a xlink:title=" ">
<path fill="none" stroke="#63b8ff" d="M319.7,-274.98C377.59,-265.63 470.53,-250.61 532.17,-240.65"/>
<polygon fill="#63b8ff" stroke="#63b8ff" points="532.85,-244.09 542.16,-239.04 531.73,-237.18 532.85,-244.09"/>
</a>
</g>
</g>
<!-- Node8 -->
<g id="Node000008" class="node">
<title>Node8</title>
<g id="a_Node000008"><a xlink:href="../../d3/d7e/camutils_8hpp.html" target="_top" xlink:title=" ">
<polygon fill="white" stroke="#666666" points="590.5,-184 445.5,-184 445.5,-165 590.5,-165 590.5,-184"/>
<text text-anchor="middle" x="518" y="-172" font-family="Helvetica,sans-Serif" font-size="10.00">rmvl/camera/camutils.hpp</text>
</a>
</g>
</g>
<!-- Node7&#45;&gt;Node8 -->
<g id="edge7_Node000007_Node000008" class="edge">
<title>Node7&#45;&gt;Node8</title>
<g id="a_edge7_Node000007_Node000008"><a xlink:title=" ">
<path fill="none" stroke="#63b8ff" d="M582.63,-219.98C570.91,-211.92 553.08,-199.65 539.11,-190.03"/>
<polygon fill="#63b8ff" stroke="#63b8ff" points="540.82,-186.96 530.6,-184.17 536.85,-192.72 540.82,-186.96"/>
</a>
</g>
</g>
<!-- Node10 -->
<g id="Node000010" class="node">
<title>Node10</title>
<g id="a_Node000010"><a xlink:href="../../dc/d71/uty__math_8hpp.html" target="_top" xlink:title=" ">
<polygon fill="white" stroke="#666666" points="389,-184 247,-184 247,-165 389,-165 389,-184"/>
<text text-anchor="middle" x="318" y="-172" font-family="Helvetica,sans-Serif" font-size="10.00">rmvl/rmath/uty_math.hpp</text>
</a>
</g>
</g>
<!-- Node7&#45;&gt;Node10 -->
<g id="edge9_Node000007_Node000010" class="edge">
<title>Node7&#45;&gt;Node10</title>
<g id="a_edge9_Node000007_Node000010"><a xlink:title=" ">
<path fill="none" stroke="#63b8ff" d="M550.5,-219.98C502.18,-210.74 424.96,-195.97 372.91,-186.01"/>
<polygon fill="#63b8ff" stroke="#63b8ff" points="373.33,-182.52 362.85,-184.08 372.02,-189.4 373.33,-182.52"/>
</a>
</g>
</g>
<!-- Node20 -->
<g id="Node000020" class="node">
<title>Node20</title>
<g id="a_Node000020"><a xlink:href="../../dd/de3/types_8hpp.html" target="_top" xlink:title="常用状态类型定义">
<polygon fill="white" stroke="#666666" points="868,-129 778,-129 778,-110 868,-110 868,-129"/>
<text text-anchor="middle" x="823" y="-117" font-family="Helvetica,sans-Serif" font-size="10.00">rmvl/types.hpp</text>
</a>
</g>
</g>
<!-- Node7&#45;&gt;Node20 -->
<g id="edge20_Node000007_Node000020" class="edge">
<title>Node7&#45;&gt;Node20</title>
<g id="a_edge20_Node000007_Node000020"><a xlink:title=" ">
<path fill="none" stroke="#63b8ff" d="M637.15,-219.94C667.18,-212.84 707.93,-201.11 741,-184 765.83,-171.16 790.7,-150.54 806.43,-136.3"/>
<polygon fill="#63b8ff" stroke="#63b8ff" points="809.21,-138.49 814.17,-129.13 804.46,-133.36 809.21,-138.49"/>
</a>
</g>
</g>
<!-- Node21 -->
<g id="Node000021" class="node">
<title>Node21</title>
<g id="a_Node000021"><a xlink:href="../../d5/d60/dataio_8hpp.html" target="_top" xlink:title="陀螺仪数据">
<polygon fill="white" stroke="#666666" points="732,-184 614,-184 614,-165 732,-165 732,-184"/>
<text text-anchor="middle" x="673" y="-172" font-family="Helvetica,sans-Serif" font-size="10.00">rmvl/core/dataio.hpp</text>
</a>
</g>
</g>
<!-- Node7&#45;&gt;Node21 -->
<g id="edge22_Node000007_Node000021" class="edge">
<title>Node7&#45;&gt;Node21</title>
<g id="a_edge22_Node000007_Node000021"><a xlink:title=" ">
<path fill="none" stroke="#63b8ff" d="M607.53,-219.98C619.4,-211.92 637.46,-199.65 651.61,-190.03"/>
<polygon fill="#63b8ff" stroke="#63b8ff" points="653.94,-192.69 660.24,-184.17 650,-186.9 653.94,-192.69"/>
</a>
</g>
</g>
<!-- Node25 -->
<g id="Node000025" class="node">
<title>Node25</title>
<g id="a_Node000025"><a xlink:href="../../d2/d74/feature_8h.html" target="_top" xlink:title="feature class header">
<polygon fill="white" stroke="#666666" points="981.5,-184 856.5,-184 856.5,-165 981.5,-165 981.5,-184"/>
<text text-anchor="middle" x="919" y="-172" font-family="Helvetica,sans-Serif" font-size="10.00">rmvl/feature/feature.h</text>
</a>
</g>
</g>
<!-- Node7&#45;&gt;Node25 -->
<g id="edge26_Node000007_Node000025" class="edge">
<title>Node7&#45;&gt;Node25</title>
<g id="a_edge26_Node000007_Node000025"><a xlink:title=" ">
<path fill="none" stroke="#63b8ff" d="M647.06,-219.98C704.24,-210.63 796.04,-195.61 856.93,-185.65"/>
<polygon fill="#63b8ff" stroke="#63b8ff" points="857.5,-189.11 866.8,-184.04 856.37,-182.2 857.5,-189.11"/>
</a>
</g>
</g>
<!-- Node9 -->
<g id="Node000009" class="node">
<title>Node9</title>
<g id="a_Node000009"><a xlink:title=" ">
<polygon fill="#e0e0e0" stroke="#999999" points="567.5,-129 464.5,-129 464.5,-110 567.5,-110 567.5,-129"/>
<text text-anchor="middle" x="516" y="-117" font-family="Helvetica,sans-Serif" font-size="10.00">opencv2/core.hpp</text>
</a>
</g>
</g>
<!-- Node8&#45;&gt;Node9 -->
<g id="edge8_Node000008_Node000009" class="edge">
<title>Node8&#45;&gt;Node9</title>
<g id="a_edge8_Node000008_Node000009"><a xlink:title=" ">
<path fill="none" stroke="#63b8ff" d="M517.67,-164.75C517.41,-157.8 517.03,-147.85 516.7,-139.13"/>
<polygon fill="#63b8ff" stroke="#63b8ff" points="520.2,-138.95 516.32,-129.09 513.2,-139.21 520.2,-138.95"/>
</a>
</g>
</g>
<!-- Node10&#45;&gt;Node3 -->
<g id="edge11_Node000010_Node000003" class="edge">
<title>Node10&#45;&gt;Node3</title>
<g id="a_edge11_Node000010_Node000003"><a xlink:title=" ">
<path fill="none" stroke="#63b8ff" d="M278.15,-164.98C235.17,-155.8 166.63,-141.15 120.04,-131.19"/>
<polygon fill="#63b8ff" stroke="#63b8ff" points="120.67,-127.75 110.16,-129.08 119.21,-134.59 120.67,-127.75"/>
</a>
</g>
</g>
<!-- Node11 -->
<g id="Node000011" class="node">
<title>Node11</title>
<g id="a_Node000011"><a xlink:title=" ">
<polygon fill="#e0e0e0" stroke="#999999" points="446.5,-129 399.5,-129 399.5,-110 446.5,-110 446.5,-129"/>
<text text-anchor="middle" x="423" y="-117" font-family="Helvetica,sans-Serif" font-size="10.00">cmath</text>
</a>
</g>
</g>
<!-- Node10&#45;&gt;Node11 -->
<g id="edge10_Node000010_Node000011" class="edge">
<title>Node10&#45;&gt;Node11</title>
<g id="a_edge10_Node000010_Node000011"><a xlink:title=" ">
<path fill="none" stroke="#63b8ff" d="M334.87,-164.98C351.61,-156.54 377.5,-143.47 396.89,-133.68"/>
<polygon fill="#63b8ff" stroke="#63b8ff" points="398.47,-136.8 405.82,-129.17 395.32,-130.55 398.47,-136.8"/>
</a>
</g>
</g>
<!-- Node12 -->
<g id="Node000012" class="node">
<title>Node12</title>
<g id="a_Node000012"><a xlink:title=" ">
<polygon fill="#e0e0e0" stroke="#999999" points="193.5,-129 134.5,-129 134.5,-110 193.5,-110 193.5,-129"/>
<text text-anchor="middle" x="164" y="-117" font-family="Helvetica,sans-Serif" font-size="10.00">numbers</text>
</a>
</g>
</g>
<!-- Node10&#45;&gt;Node12 -->
<g id="edge12_Node000010_Node000012" class="edge">
<title>Node10&#45;&gt;Node12</title>
<g id="a_edge12_Node000010_Node000012"><a xlink:title=" ">
<path fill="none" stroke="#63b8ff" d="M293.26,-164.98C267.63,-156.16 227.37,-142.31 198.59,-132.41"/>
<polygon fill="#63b8ff" stroke="#63b8ff" points="199.53,-129.03 188.94,-129.08 197.25,-135.65 199.53,-129.03"/>
</a>
</g>
</g>
<!-- Node13 -->
<g id="Node000013" class="node">
<title>Node13</title>
<g id="a_Node000013"><a xlink:title=" ">
<polygon fill="#e0e0e0" stroke="#999999" points="342.5,-129 211.5,-129 211.5,-110 342.5,-110 342.5,-129"/>
<text text-anchor="middle" x="277" y="-117" font-family="Helvetica,sans-Serif" font-size="10.00">opencv2/core/matx.hpp</text>
</a>
</g>
</g>
<!-- Node10&#45;&gt;Node13 -->
<g id="edge13_Node000010_Node000013" class="edge">
<title>Node10&#45;&gt;Node13</title>
<g id="a_edge13_Node000010_Node000013"><a xlink:title=" ">
<path fill="none" stroke="#63b8ff" d="M311.23,-164.75C305.44,-157.26 296.94,-146.28 289.86,-137.13"/>
<polygon fill="#63b8ff" stroke="#63b8ff" points="292.53,-134.86 283.64,-129.09 286.99,-139.14 292.53,-134.86"/>
</a>
</g>
</g>
<!-- Node14 -->
<g id="Node000014" class="node">
<title>Node14</title>
<g id="a_Node000014"><a xlink:href="../../d0/d3f/util_8hpp.html" target="_top" xlink:title=" ">
<polygon fill="white" stroke="#666666" points="648.5,-74 545.5,-74 545.5,-55 648.5,-55 648.5,-74"/>
<text text-anchor="middle" x="597" y="-62" font-family="Helvetica,sans-Serif" font-size="10.00">rmvl/core/util.hpp</text>
</a>
</g>
</g>
<!-- Node10&#45;&gt;Node14 -->
<g id="edge14_Node000010_Node000014" class="edge">
<title>Node10&#45;&gt;Node14</title>
<g id="a_edge14_Node000010_Node000014"><a xlink:title=" ">
<path fill="none" stroke="#63b8ff" d="M325.12,-164.99C337.19,-151.17 363.06,-123.99 391,-110 436.18,-87.37 492.57,-76.21 534.93,-70.72"/>
<polygon fill="#63b8ff" stroke="#63b8ff" points="535.6,-74.17 545.1,-69.48 534.75,-67.22 535.6,-74.17"/>
</a>
</g>
</g>
<!-- Node15 -->
<g id="Node000015" class="node">
<title>Node15</title>
<g id="a_Node000015"><a xlink:title=" ">
<polygon fill="#e0e0e0" stroke="#999999" points="487.5,-19 354.5,-19 354.5,0 487.5,0 487.5,-19"/>
<text text-anchor="middle" x="421" y="-7" font-family="Helvetica,sans-Serif" font-size="10.00">rmvl/rmvl_modules.hpp</text>
</a>
</g>
</g>
<!-- Node14&#45;&gt;Node15 -->
<g id="edge15_Node000014_Node000015" class="edge">
<title>Node14&#45;&gt;Node15</title>
<g id="a_edge15_Node000014_Node000015"><a xlink:title=" ">
<path fill="none" stroke="#63b8ff" d="M568.72,-54.98C539.05,-46.05 492.21,-31.94 459.25,-22.02"/>
<polygon fill="#63b8ff" stroke="#63b8ff" points="460.08,-18.61 449.5,-19.08 458.07,-25.32 460.08,-18.61"/>
</a>
</g>
</g>
<!-- Node16 -->
<g id="Node000016" class="node">
<title>Node16</title>
<g id="a_Node000016"><a xlink:title=" ">
<polygon fill="#e0e0e0" stroke="#999999" points="556,-19 506,-19 506,0 556,0 556,-19"/>
<text text-anchor="middle" x="531" y="-7" font-family="Helvetica,sans-Serif" font-size="10.00">cstdint</text>
</a>
</g>
</g>
<!-- Node14&#45;&gt;Node16 -->
<g id="edge16_Node000014_Node000016" class="edge">
<title>Node14&#45;&gt;Node16</title>
<g id="a_edge16_Node000014_Node000016"><a xlink:title=" ">
<path fill="none" stroke="#63b8ff" d="M586.4,-54.98C576.54,-47.07 561.65,-35.11 549.78,-25.58"/>
<polygon fill="#63b8ff" stroke="#63b8ff" points="551.79,-22.7 541.8,-19.17 547.4,-28.16 551.79,-22.7"/>
</a>
</g>
</g>
<!-- Node17 -->
<g id="Node000017" class="node">
<title>Node17</title>
<g id="a_Node000017"><a xlink:title=" ">
<polygon fill="#e0e0e0" stroke="#999999" points="620,-19 574,-19 574,0 620,0 620,-19"/>
<text text-anchor="middle" x="597" y="-7" font-family="Helvetica,sans-Serif" font-size="10.00">cstdio</text>
</a>
</g>
</g>
<!-- Node14&#45;&gt;Node17 -->
<g id="edge17_Node000014_Node000017" class="edge">
<title>Node14&#45;&gt;Node17</title>
<g id="a_edge17_Node000014_Node000017"><a xlink:title=" ">
<path fill="none" stroke="#63b8ff" d="M597,-54.75C597,-47.8 597,-37.85 597,-29.13"/>
<polygon fill="#63b8ff" stroke="#63b8ff" points="600.5,-29.09 597,-19.09 593.5,-29.09 600.5,-29.09"/>
</a>
</g>
</g>
<!-- Node18 -->
<g id="Node000018" class="node">
<title>Node18</title>
<g id="a_Node000018"><a xlink:title=" ">
<polygon fill="#e0e0e0" stroke="#999999" points="682,-19 638,-19 638,0 682,0 682,-19"/>
<text text-anchor="middle" x="660" y="-7" font-family="Helvetica,sans-Serif" font-size="10.00">string</text>
</a>
</g>
</g>
<!-- Node14&#45;&gt;Node18 -->
<g id="edge18_Node000014_Node000018" class="edge">
<title>Node14&#45;&gt;Node18</title>
<g id="a_edge18_Node000014_Node000018"><a xlink:title=" ">
<path fill="none" stroke="#63b8ff" d="M607.12,-54.98C616.44,-47.15 630.47,-35.34 641.74,-25.86"/>
<polygon fill="#63b8ff" stroke="#63b8ff" points="644.29,-28.29 649.69,-19.17 639.79,-22.93 644.29,-28.29"/>
</a>
</g>
</g>
<!-- Node19 -->
<g id="Node000019" class="node">
<title>Node19</title>
<g id="a_Node000019"><a xlink:href="../../db/d41/rmvldef_8hpp.html" target="_top" xlink:title=" ">
<polygon fill="white" stroke="#666666" points="775.5,-19 700.5,-19 700.5,0 775.5,0 775.5,-19"/>
<text text-anchor="middle" x="738" y="-7" font-family="Helvetica,sans-Serif" font-size="10.00">rmvldef.hpp</text>
</a>
</g>
</g>
<!-- Node14&#45;&gt;Node19 -->
<g id="edge19_Node000014_Node000019" class="edge">
<title>Node14&#45;&gt;Node19</title>
<g id="a_edge19_Node000014_Node000019"><a xlink:title=" ">
<path fill="none" stroke="#63b8ff" d="M619.65,-54.98C642.85,-46.27 679.12,-32.63 705.4,-22.75"/>
<polygon fill="#63b8ff" stroke="#63b8ff" points="706.8,-25.97 714.93,-19.17 704.34,-19.41 706.8,-25.97"/>
</a>
</g>
</g>
<!-- Node20&#45;&gt;Node14 -->
<g id="edge21_Node000020_Node000014" class="edge">
<title>Node20&#45;&gt;Node14</title>
<g id="a_edge21_Node000020_Node000014"><a xlink:title=" ">
<path fill="none" stroke="#63b8ff" d="M786.69,-109.98C747.76,-100.86 685.84,-86.33 643.4,-76.38"/>
<polygon fill="#63b8ff" stroke="#63b8ff" points="644.13,-72.96 633.6,-74.08 642.53,-79.77 644.13,-72.96"/>
</a>
</g>
</g>
<!-- Node22 -->
<g id="Node000022" class="node">
<title>Node22</title>
<g id="a_Node000022"><a xlink:title=" ">
<polygon fill="#e0e0e0" stroke="#999999" points="760,-129 718,-129 718,-110 760,-110 760,-129"/>
<text text-anchor="middle" x="739" y="-117" font-family="Helvetica,sans-Serif" font-size="10.00">array</text>
</a>
</g>
</g>
<!-- Node21&#45;&gt;Node22 -->
<g id="edge23_Node000021_Node000022" class="edge">
<title>Node21&#45;&gt;Node22</title>
<g id="a_edge23_Node000021_Node000022"><a xlink:title=" ">
<path fill="none" stroke="#63b8ff" d="M683.6,-164.98C693.46,-157.07 708.35,-145.11 720.22,-135.58"/>
<polygon fill="#63b8ff" stroke="#63b8ff" points="722.6,-138.16 728.2,-129.17 718.21,-132.7 722.6,-138.16"/>
</a>
</g>
</g>
<!-- Node23 -->
<g id="Node000023" class="node">
<title>Node23</title>
<g id="a_Node000023"><a xlink:title=" ">
<polygon fill="#e0e0e0" stroke="#999999" points="634,-129 586,-129 586,-110 634,-110 634,-129"/>
<text text-anchor="middle" x="610" y="-117" font-family="Helvetica,sans-Serif" font-size="10.00">iosfwd</text>
</a>
</g>
</g>
<!-- Node21&#45;&gt;Node23 -->
<g id="edge24_Node000021_Node000023" class="edge">
<title>Node21&#45;&gt;Node23</title>
<g id="a_edge24_Node000021_Node000023"><a xlink:title=" ">
<path fill="none" stroke="#63b8ff" d="M662.88,-164.98C653.56,-157.15 639.53,-145.34 628.26,-135.86"/>
<polygon fill="#63b8ff" stroke="#63b8ff" points="630.21,-132.93 620.31,-129.17 625.71,-138.29 630.21,-132.93"/>
</a>
</g>
</g>
<!-- Node24 -->
<g id="Node000024" class="node">
<title>Node24</title>
<g id="a_Node000024"><a xlink:title=" ">
<polygon fill="#e0e0e0" stroke="#999999" points="699.5,-129 652.5,-129 652.5,-110 699.5,-110 699.5,-129"/>
<text text-anchor="middle" x="676" y="-117" font-family="Helvetica,sans-Serif" font-size="10.00">vector</text>
</a>
</g>
</g>
<!-- Node21&#45;&gt;Node24 -->
<g id="edge25_Node000021_Node000024" class="edge">
<title>Node21&#45;&gt;Node24</title>
<g id="a_edge25_Node000021_Node000024"><a xlink:title=" ">
<path fill="none" stroke="#63b8ff" d="M673.5,-164.75C673.89,-157.8 674.45,-147.85 674.95,-139.13"/>
<polygon fill="#63b8ff" stroke="#63b8ff" points="678.44,-139.27 675.51,-129.09 671.45,-138.88 678.44,-139.27"/>
</a>
</g>
</g>
<!-- Node25&#45;&gt;Node20 -->
<g id="edge29_Node000025_Node000020" class="edge">
<title>Node25&#45;&gt;Node20</title>
<g id="a_edge29_Node000025_Node000020"><a xlink:title=" ">
<path fill="none" stroke="#63b8ff" d="M903.58,-164.98C888.55,-156.69 865.46,-143.94 847.84,-134.22"/>
<polygon fill="#63b8ff" stroke="#63b8ff" points="849.15,-130.94 838.7,-129.17 845.77,-137.07 849.15,-130.94"/>
</a>
</g>
</g>
<!-- Node26 -->
<g id="Node000026" class="node">
<title>Node26</title>
<g id="a_Node000026"><a xlink:title=" ">
<polygon fill="#e0e0e0" stroke="#999999" points="1096,-129 1038,-129 1038,-110 1096,-110 1096,-129"/>
<text text-anchor="middle" x="1067" y="-117" font-family="Helvetica,sans-Serif" font-size="10.00">memory</text>
</a>
</g>
</g>
<!-- Node25&#45;&gt;Node26 -->
<g id="edge27_Node000025_Node000026" class="edge">
<title>Node25&#45;&gt;Node26</title>
<g id="a_edge27_Node000025_Node000026"><a xlink:title=" ">
<path fill="none" stroke="#63b8ff" d="M942.78,-164.98C967.23,-156.23 1005.53,-142.51 1033.15,-132.62"/>
<polygon fill="#63b8ff" stroke="#63b8ff" points="1034.55,-135.84 1042.79,-129.17 1032.19,-129.25 1034.55,-135.84"/>
</a>
</g>
</g>
<!-- Node27 -->
<g id="Node000027" class="node">
<title>Node27</title>
<g id="a_Node000027"><a xlink:title=" ">
<polygon fill="#e0e0e0" stroke="#999999" points="1019.5,-129 886.5,-129 886.5,-110 1019.5,-110 1019.5,-129"/>
<text text-anchor="middle" x="953" y="-117" font-family="Helvetica,sans-Serif" font-size="10.00">opencv2/core/types.hpp</text>
</a>
</g>
</g>
<!-- Node25&#45;&gt;Node27 -->
<g id="edge28_Node000025_Node000027" class="edge">
<title>Node25&#45;&gt;Node27</title>
<g id="a_edge28_Node000025_Node000027"><a xlink:title=" ">
<path fill="none" stroke="#63b8ff" d="M924.61,-164.75C929.32,-157.42 936.17,-146.73 941.97,-137.7"/>
<polygon fill="#63b8ff" stroke="#63b8ff" points="945.04,-139.4 947.49,-129.09 939.14,-135.62 945.04,-139.4"/>
</a>
</g>
</g>
<!-- Node28&#45;&gt;Node4 -->
<g id="edge31_Node000028_Node000004" class="edge">
<title>Node28&#45;&gt;Node4</title>
<g id="a_edge31_Node000028_Node000004"><a xlink:title=" ">
<path fill="none" stroke="#63b8ff" d="M398.17,-384.98C370.13,-376.09 325.95,-362.07 294.7,-352.15"/>
<polygon fill="#63b8ff" stroke="#63b8ff" points="295.63,-348.77 285.04,-349.08 293.51,-355.44 295.63,-348.77"/>
</a>
</g>
</g>
<!-- Node29 -->
<g id="Node000029" class="node">
<title>Node29</title>
<g id="a_Node000029"><a xlink:href="../../df/d4b/pretreat_8h.html" target="_top" xlink:title="Header of the image pretreating module">
<polygon fill="white" stroke="#666666" points="491.5,-349 358.5,-349 358.5,-330 491.5,-330 491.5,-349"/>
<text text-anchor="middle" x="425" y="-337" font-family="Helvetica,sans-Serif" font-size="10.00">rmvl/imgproc/pretreat.h</text>
</a>
</g>
</g>
<!-- Node28&#45;&gt;Node29 -->
<g id="edge32_Node000028_Node000029" class="edge">
<title>Node28&#45;&gt;Node29</title>
<g id="a_edge32_Node000028_Node000029"><a xlink:title=" ">
<path fill="none" stroke="#63b8ff" d="M425,-384.75C425,-377.8 425,-367.85 425,-359.13"/>
<polygon fill="#63b8ff" stroke="#63b8ff" points="428.5,-359.09 425,-349.09 421.5,-359.09 428.5,-359.09"/>
</a>
</g>
</g>
<!-- Node30 -->
<g id="Node000030" class="node">
<title>Node30</title>
<g id="a_Node000030"><a xlink:title=" ">
<polygon fill="#e0e0e0" stroke="#999999" points="487.5,-294 362.5,-294 362.5,-275 487.5,-275 487.5,-294"/>
<text text-anchor="middle" x="425" y="-282" font-family="Helvetica,sans-Serif" font-size="10.00">opencv2/core/mat.hpp</text>
</a>
</g>
</g>
<!-- Node29&#45;&gt;Node30 -->
<g id="edge33_Node000029_Node000030" class="edge">
<title>Node29&#45;&gt;Node30</title>
<g id="a_edge33_Node000029_Node000030"><a xlink:title=" ">
<path fill="none" stroke="#63b8ff" d="M425,-329.75C425,-322.8 425,-312.85 425,-304.13"/>
<polygon fill="#63b8ff" stroke="#63b8ff" points="428.5,-304.09 425,-294.09 421.5,-304.09 428.5,-304.09"/>
</a>
</g>
</g>
<!-- Node31&#45;&gt;Node3 -->
<g id="edge35_Node000031_Node000003" class="edge">
<title>Node31&#45;&gt;Node3</title>
<g id="a_edge35_Node000031_Node000003"><a xlink:title=" ">
<path fill="none" stroke="#63b8ff" d="M70,-384.82C70,-366.48 70,-322.44 70,-285.5 70,-285.5 70,-285.5 70,-228.5 70,-197.19 70,-160.77 70,-139.23"/>
<polygon fill="#63b8ff" stroke="#63b8ff" points="73.5,-139.18 70,-129.18 66.5,-139.18 73.5,-139.18"/>
</a>
</g>
</g>
<!-- Node31&#45;&gt;Node4 -->
<g id="edge36_Node000031_Node000004" class="edge">
<title>Node31&#45;&gt;Node4</title>
<g id="a_edge36_Node000031_Node000004"><a xlink:title=" ">
<path fill="none" stroke="#63b8ff" d="M100.21,-384.98C132.04,-376.01 182.36,-361.82 217.6,-351.89"/>
<polygon fill="#63b8ff" stroke="#63b8ff" points="218.88,-355.16 227.56,-349.08 216.98,-348.43 218.88,-355.16"/>
</a>
</g>
</g>
</g>
</svg>

<g id="navigator" transform="translate(0 0)" fill="#404254">
  <rect fill="#f2f5e9" fill-opacity="0.5" stroke="#606060" stroke-width=".5" x="0" y="0" width="60" height="60"/>
  <use id="zoomplus" xlink:href="#zoomPlus" x="17" y="9" onmousedown="handleZoom(evt,'in')"/>
  <use id="zoomminus" xlink:href="#zoomMin" x="42" y="9" onmousedown="handleZoom(evt,'out')"/>
  <use id="reset" xlink:href="#resetDef" x="30" y="36" onmousedown="handleReset()"/>
   <use id="arrowup" xlink:href="#arrowUp" x="0" y="0" onmousedown="handlePan(0,-1)"/>
  <use id="arrowright" xlink:href="#arrowRight" x="0" y="0" onmousedown="handlePan(1,0)"/>
  <use id="arrowdown" xlink:href="#arrowDown" x="0" y="0" onmousedown="handlePan(0,1)"/>
  <use id="arrowleft" xlink:href="#arrowLeft" x="0" y="0" onmousedown="handlePan(-1,0)"/>
</g>
<svg viewBox="0 0 15 15" width="100%" height="30px" preserveAspectRatio="xMaxYMin meet">
 <g id="arrow_out" transform="scale(0.3 0.3)">
  <a xlink:href="decider_8h__incl_org.svg" target="_base">
   <rect id="button" ry="5" rx="5" y="6" x="6" height="38" width="38"
        fill="#f2f5e9" fill-opacity="0.5" stroke="#606060" stroke-width="1.0"/>
   <path id="arrow"
     d="M 11.500037,31.436501 C 11.940474,20.09759 22.043105,11.32322 32.158766,21.979434 L 37.068811,17.246167 C 37.068811,17.246167 37.088388,32 37.088388,32 L 22.160133,31.978069 C 22.160133,31.978069 26.997745,27.140456 26.997745,27.140456 C 18.528582,18.264221 13.291696,25.230495 11.500037,31.436501 z"
     style="fill:#404040;"/>
  </a>
 </g>
</svg>

<style type='text/css'>
<![CDATA[
[data-mouse-over-selected='false'] { opacity: 0.7; }
[data-mouse-over-selected='true']  { opacity: 1.0; }
]]>
</style>
<script type="application/ecmascript"><![CDATA[
document.addEventListener('DOMContentLoaded', (event) => {
  highlightEdges();
  highlightAdjacentNodes();
});
]]></script>
</svg>
