<?xml version="1.0" encoding="UTF-8" standalone="no"?>
<!DOCTYPE svg PUBLIC "-//W3C//DTD SVG 1.1//EN"
 "http://www.w3.org/Graphics/SVG/1.1/DTD/svg11.dtd">
<!-- Generated by graphviz version 14.1.2 (0)
 -->
<!-- Title: rm::Rune Pages: 1 -->
<!--zoomable 1177 -->

<svg id="main" version="1.1" xmlns="http://www.w3.org/2000/svg" xmlns:xlink="http://www.w3.org/1999/xlink" xml:space="preserve" onload="init(evt)">

<style type="text/css"><![CDATA[
.node, .edge {opacity: 0.7;}
.node.selected, .edge.selected {opacity: 1;}
.edge:hover path { stroke: red; }
.edge:hover polygon { stroke: red; fill: red; }
]]></style>

<defs>
  <circle id="rim" cx="0" cy="0" r="7"/>
  <circle id="rim2" cx="0" cy="0" r="3.5"/>
  <g id="zoomPlus">
    <use xlink:href="#rim" fill="#404040"><set attributeName="fill" to="#808080" begin="zoomplus.mouseover" end="zoomplus.mouseout"/></use>
    <path d="M-4,0h8M0,-4v8" fill="none" stroke="white" stroke-width="1.5" pointer-events="none"/>
  </g>
  <g id="zoomMin">
    <use xlink:href="#rim" fill="#404040"><set attributeName="fill" to="#808080" begin="zoomminus.mouseover" end="zoomminus.mouseout"/></use>
    <path d="M-4,0h8" fill="none" stroke="white" stroke-width="1.5" pointer-events="none"/>
  </g>
  <g id="arrowUp" transform="translate(30 24)">
    <use xlink:href="#rim"/>
    <path pointer-events="none" fill="none" stroke="white" stroke-width="1.5" d="M0,-3.0v7 M-2.5,-0.5L0,-3.0L2.5,-0.5"/>
  </g>
  <g id="arrowRight" transform="rotate(90) translate(36 -43)">
    <use xlink:href="#rim"/>
    <path pointer-events="none" fill="none" stroke="white" stroke-width="1.5" d="M0,-3.0v7 M-2.5,-0.5L0,-3.0L2.5,-0.5"/>
  </g>
  <g id="arrowDown" transform="rotate(180) translate(-30 -48)">
    <use xlink:href="#rim"/>
    <path pointer-events="none" fill="none" stroke="white" stroke-width="1.5" d="M0,-3.0v7 M-2.5,-0.5L0,-3.0L2.5,-0.5"/>
  </g>
  <g id="arrowLeft" transform="rotate(270) translate(-36 17)">
    <use xlink:href="#rim"/>
    <path pointer-events="none" fill="none" stroke="white" stroke-width="1.5" d="M0,-3.0v7 M-2.5,-0.5L0,-3.0L2.5,-0.5"/>
  </g>
  <g id="resetDef">
    <use xlink:href="#rim2" fill="#404040"><set attributeName="fill" to="#808080" begin="reset.mouseover" end="reset.mouseout"/></use>
  </g>
</defs>
<script type="application/ecmascript">
var viewWidth = 950;
var viewHeight = 1177;
var sectionId = 'dynsection-1';
</script>
<script type="application/ecmascript" xlink:href="../../svg.min.js"/>
<svg id="graph" class="graph">
<g id="viewport">
<title>rm::Rune</title>
<!-- Node1 -->
<g id="Node000001" class="node">
<title>Node1</title>
<g id="a_Node000001"><a xlink:title="神符（能量机关）">
<polygon fill="#999999" stroke="none" points="653,-171.5 501.5,-171.5 501.5,0 653,0 653,-171.5"/>
<text xml:space="preserve" text-anchor="start" x="555.12" y="-158" font-family="Helvetica,sans-Serif" font-size="10.00">rm::Rune</text>
<text xml:space="preserve" text-anchor="start" x="575.75" y="-141.25" font-family="Helvetica,sans-Serif" font-size="10.00"> </text>
<text xml:space="preserve" text-anchor="start" x="505.5" y="-124.5" font-family="Helvetica,sans-Serif" font-size="10.00">+</text>
<text xml:space="preserve" text-anchor="start" x="517.75" y="-124.5" font-family="Helvetica,sans-Serif" font-size="10.00">clone()</text>
<text xml:space="preserve" text-anchor="start" x="505.5" y="-107.75" font-family="Helvetica,sans-Serif" font-size="10.00">+</text>
<text xml:space="preserve" text-anchor="start" x="517.75" y="-107.75" font-family="Helvetica,sans-Serif" font-size="10.00">getFeatureDis()</text>
<text xml:space="preserve" text-anchor="start" x="505.5" y="-91" font-family="Helvetica,sans-Serif" font-size="10.00">+</text>
<text xml:space="preserve" text-anchor="start" x="517.75" y="-91" font-family="Helvetica,sans-Serif" font-size="10.00">isActive()</text>
<text xml:space="preserve" text-anchor="start" x="505.5" y="-74.25" font-family="Helvetica,sans-Serif" font-size="10.00">+</text>
<text xml:space="preserve" text-anchor="start" x="517.75" y="-74.25" font-family="Helvetica,sans-Serif" font-size="10.00">make_combo()</text>
<text xml:space="preserve" text-anchor="start" x="505.5" y="-57.5" font-family="Helvetica,sans-Serif" font-size="10.00">+</text>
<text xml:space="preserve" text-anchor="start" x="517.75" y="-57.5" font-family="Helvetica,sans-Serif" font-size="10.00">cast()</text>
<text xml:space="preserve" text-anchor="start" x="505.5" y="-40.75" font-family="Helvetica,sans-Serif" font-size="10.00">+</text>
<text xml:space="preserve" text-anchor="start" x="517.75" y="-40.75" font-family="Helvetica,sans-Serif" font-size="10.00">cast()</text>
<text xml:space="preserve" text-anchor="start" x="505.5" y="-24" font-family="Helvetica,sans-Serif" font-size="10.00">+</text>
<text xml:space="preserve" text-anchor="start" x="517.75" y="-24" font-family="Helvetica,sans-Serif" font-size="10.00">cameraConvertToVertical()</text>
<text xml:space="preserve" text-anchor="start" x="505.5" y="-7.25" font-family="Helvetica,sans-Serif" font-size="10.00">+</text>
<text xml:space="preserve" text-anchor="start" x="517.75" y="-7.25" font-family="Helvetica,sans-Serif" font-size="10.00">verticalConvertToCamera()</text>
<polygon fill="#666666" stroke="#666666" points="501.5,-152.75 501.5,-152.75 653,-152.75 653,-152.75 501.5,-152.75"/>
<polygon fill="#666666" stroke="#666666" points="501.5,-136 501.5,-136 653,-136 653,-136 501.5,-136"/>
<polygon fill="none" stroke="#666666" points="501.5,0 501.5,-171.5 653,-171.5 653,0 501.5,0"/>
</a>
</g>
</g>
<!-- Node2 -->
<g id="Node000002" class="node">
<title>Node2</title>
<g id="a_Node000002"><a xlink:href="../../de/dee/classrm_1_1combo.html" target="_top" xlink:title="特征组合体">
<polygon fill="white" stroke="none" points="612.5,-431.15 542,-431.15 542,-208.5 612.5,-208.5 612.5,-431.15"/>
<text xml:space="preserve" text-anchor="start" x="551" y="-417.65" font-family="Helvetica,sans-Serif" font-size="10.00">rm::combo</text>
<text xml:space="preserve" text-anchor="start" x="575.75" y="-400.9" font-family="Helvetica,sans-Serif" font-size="10.00"> </text>
<text xml:space="preserve" text-anchor="start" x="546" y="-384.15" font-family="Helvetica,sans-Serif" font-size="10.00">+</text>
<text xml:space="preserve" text-anchor="start" x="558.25" y="-384.15" font-family="Helvetica,sans-Serif" font-size="10.00">clone()</text>
<text xml:space="preserve" text-anchor="start" x="546" y="-367.4" font-family="Helvetica,sans-Serif" font-size="10.00">+</text>
<text xml:space="preserve" text-anchor="start" x="558.25" y="-367.4" font-family="Helvetica,sans-Serif" font-size="10.00">height()</text>
<text xml:space="preserve" text-anchor="start" x="546" y="-350.65" font-family="Helvetica,sans-Serif" font-size="10.00">+</text>
<text xml:space="preserve" text-anchor="start" x="558.25" y="-350.65" font-family="Helvetica,sans-Serif" font-size="10.00">width()</text>
<text xml:space="preserve" text-anchor="start" x="546" y="-333.9" font-family="Helvetica,sans-Serif" font-size="10.00">+</text>
<text xml:space="preserve" text-anchor="start" x="558.25" y="-333.9" font-family="Helvetica,sans-Serif" font-size="10.00">angle()</text>
<text xml:space="preserve" text-anchor="start" x="546" y="-317.15" font-family="Helvetica,sans-Serif" font-size="10.00">+</text>
<text xml:space="preserve" text-anchor="start" x="558.25" y="-317.15" font-family="Helvetica,sans-Serif" font-size="10.00">center()</text>
<text xml:space="preserve" text-anchor="start" x="546" y="-300.4" font-family="Helvetica,sans-Serif" font-size="10.00">+</text>
<text xml:space="preserve" text-anchor="start" x="558.25" y="-300.4" font-family="Helvetica,sans-Serif" font-size="10.00">corners()</text>
<text xml:space="preserve" text-anchor="start" x="546" y="-283.65" font-family="Helvetica,sans-Serif" font-size="10.00">+</text>
<text xml:space="preserve" text-anchor="start" x="558.25" y="-283.65" font-family="Helvetica,sans-Serif" font-size="10.00">corner()</text>
<text xml:space="preserve" text-anchor="start" x="546" y="-266.9" font-family="Helvetica,sans-Serif" font-size="10.00">+</text>
<text xml:space="preserve" text-anchor="start" x="558.25" y="-266.9" font-family="Helvetica,sans-Serif" font-size="10.00">extrinsic()</text>
<text xml:space="preserve" text-anchor="start" x="546" y="-250.15" font-family="Helvetica,sans-Serif" font-size="10.00">+</text>
<text xml:space="preserve" text-anchor="start" x="558.25" y="-250.15" font-family="Helvetica,sans-Serif" font-size="10.00">state()</text>
<text xml:space="preserve" text-anchor="start" x="546" y="-233.4" font-family="Helvetica,sans-Serif" font-size="10.00">+</text>
<text xml:space="preserve" text-anchor="start" x="558.25" y="-233.4" font-family="Helvetica,sans-Serif" font-size="10.00">state()</text>
<text xml:space="preserve" text-anchor="start" x="558.25" y="-216.65" font-family="Helvetica,sans-Serif" font-size="10.00">和 8 更多...</text>
<polygon fill="#666666" stroke="#666666" points="542,-412.4 542,-412.4 612.5,-412.4 612.5,-412.4 542,-412.4"/>
<polygon fill="#666666" stroke="#666666" points="542,-395.65 542,-395.65 612.5,-395.65 612.5,-395.65 542,-395.65"/>
<polygon fill="none" stroke="#666666" points="542,-208.5 542,-431.15 612.5,-431.15 612.5,-208.5 542,-208.5"/>
</a>
</g>
</g>
<!-- Node2&#45;&gt;Node1 -->
<g id="edge1_Node000001_Node000002" class="edge">
<title>Node2&#45;&gt;Node1</title>
<g id="a_edge1_Node000001_Node000002"><a xlink:title=" ">
<path fill="none" stroke="#63b8ff" d="M577.25,-197.12C577.25,-188.42 577.25,-179.76 577.25,-171.34"/>
<polygon fill="none" stroke="#63b8ff" points="573.75,-197.05 577.25,-207.05 580.75,-197.05 573.75,-197.05"/>
</a>
</g>
</g>
<!-- Node3 -->
<g id="Node000003" class="node">
<title>Node3</title>
<g id="a_Node000003"><a xlink:title=" ">
<polygon fill="white" stroke="none" points="205.38,-638.65 99.12,-638.65 99.12,-571.65 205.38,-571.65 205.38,-638.65"/>
<text xml:space="preserve" text-anchor="start" x="103.12" y="-625.15" font-family="Helvetica,sans-Serif" font-size="10.00">std::vector&lt; feature</text>
<text xml:space="preserve" text-anchor="start" x="136.88" y="-612.4" font-family="Helvetica,sans-Serif" font-size="10.00">::ptr &gt;</text>
<text xml:space="preserve" text-anchor="start" x="150.75" y="-595.65" font-family="Helvetica,sans-Serif" font-size="10.00"> </text>
<text xml:space="preserve" text-anchor="start" x="150.75" y="-578.9" font-family="Helvetica,sans-Serif" font-size="10.00"> </text>
<polygon fill="#666666" stroke="#666666" points="99.12,-607.15 99.12,-607.15 205.38,-607.15 205.38,-607.15 99.12,-607.15"/>
<polygon fill="#666666" stroke="#666666" points="99.12,-590.4 99.12,-590.4 205.38,-590.4 205.38,-590.4 99.12,-590.4"/>
<polygon fill="none" stroke="#666666" points="99.12,-571.65 99.12,-638.65 205.38,-638.65 205.38,-571.65 99.12,-571.65"/>
</a>
</g>
</g>
<!-- Node3&#45;&gt;Node2 -->
<g id="edge2_Node000002_Node000003" class="edge">
<title>Node3&#45;&gt;Node2</title>
<g id="a_edge2_Node000002_Node000003"><a xlink:title=" ">
<path fill="none" stroke="#63b8ff" d="M180.47,-571.76C201.44,-547.84 230.86,-514.6 257.25,-485.9 272.52,-469.3 273.85,-462.19 292.25,-449.15 368.36,-395.23 470.75,-355.87 529.81,-335.82"/>
<polygon fill="none" stroke="#63b8ff" points="529.85,-335.81 534.28,-330.11 541.23,-332.01 536.81,-337.7 529.85,-335.81"/>
</a>
</g>
<text xml:space="preserve" text-anchor="start" x="295.25" y="-455.4" font-family="Helvetica,sans-Serif" font-size="10.00" fill="grey">#_features</text>
</g>
<!-- Node4 -->
<g id="Node000004" class="node">
<title>Node4</title>
<g id="a_Node000004"><a xlink:title=" ">
<polygon fill="white" stroke="none" points="138.5,-866.9 0,-866.9 0,-812.65 138.5,-812.65 138.5,-866.9"/>
<text xml:space="preserve" text-anchor="start" x="4" y="-853.4" font-family="Helvetica,sans-Serif" font-size="10.00">std::shared_ptr&lt; feature &gt;</text>
<text xml:space="preserve" text-anchor="start" x="18.38" y="-836.65" font-family="Helvetica,sans-Serif" font-size="10.00">+</text>
<text xml:space="preserve" text-anchor="start" x="45" y="-836.65" font-family="Helvetica,sans-Serif" font-size="10.00">ptr</text>
<text xml:space="preserve" text-anchor="start" x="18.38" y="-819.9" font-family="Helvetica,sans-Serif" font-size="10.00">+</text>
<text xml:space="preserve" text-anchor="start" x="45" y="-819.9" font-family="Helvetica,sans-Serif" font-size="10.00">operator&#45;&gt;()</text>
<polygon fill="#666666" stroke="#666666" points="0,-848.15 0,-848.15 138.5,-848.15 138.5,-848.15 0,-848.15"/>
<polygon fill="#666666" stroke="#666666" points="0,-831.4 0,-831.4 43,-831.4 43,-831.4 0,-831.4"/>
<polygon fill="#666666" stroke="#666666" points="43,-831.4 43,-831.4 138.5,-831.4 138.5,-831.4 43,-831.4"/>
<polygon fill="none" stroke="#666666" points="0,-812.65 0,-866.9 138.5,-866.9 138.5,-812.65 0,-812.65"/>
</a>
</g>
</g>
<!-- Node4&#45;&gt;Node3 -->
<g id="edge3_Node000003_Node000004" class="edge">
<title>Node4&#45;&gt;Node3</title>
<g id="a_edge3_Node000003_Node000004"><a xlink:title=" ">
<path fill="none" stroke="#63b8ff" d="M68.12,-812.87C67.98,-793.15 69.33,-765.55 76.25,-742.4 86.19,-709.18 105.2,-675.1 121.72,-649.34"/>
<polygon fill="none" stroke="#63b8ff" points="121.77,-649.26 121.72,-642.05 128.36,-639.23 128.41,-646.44 121.77,-649.26"/>
</a>
</g>
<text xml:space="preserve" text-anchor="start" x="79.25" y="-765.4" font-family="Helvetica,sans-Serif" font-size="10.00" fill="grey">+elements</text>
</g>
<!-- Node5 -->
<g id="Node000005" class="node">
<title>Node5</title>
<g id="a_Node000005"><a xlink:title=" ">
<polygon fill="white" stroke="none" points="138.88,-1059.65 29.62,-1059.65 29.62,-1005.4 138.88,-1005.4 138.88,-1059.65"/>
<text xml:space="preserve" text-anchor="start" x="33.62" y="-1046.15" font-family="Helvetica,sans-Serif" font-size="10.00">std::shared_ptr&lt; T &gt;</text>
<text xml:space="preserve" text-anchor="start" x="82.75" y="-1029.4" font-family="Helvetica,sans-Serif" font-size="10.00"> </text>
<text xml:space="preserve" text-anchor="start" x="40.69" y="-1012.65" font-family="Helvetica,sans-Serif" font-size="10.00">+</text>
<text xml:space="preserve" text-anchor="start" x="60" y="-1012.65" font-family="Helvetica,sans-Serif" font-size="10.00">operator&#45;&gt;()</text>
<polygon fill="#666666" stroke="#666666" points="29.62,-1040.9 29.62,-1040.9 138.88,-1040.9 138.88,-1040.9 29.62,-1040.9"/>
<polygon fill="#666666" stroke="#666666" points="29.62,-1024.15 29.62,-1024.15 138.88,-1024.15 138.88,-1024.15 29.62,-1024.15"/>
<polygon fill="none" stroke="#666666" points="29.62,-1005.4 29.62,-1059.65 138.88,-1059.65 138.88,-1005.4 29.62,-1005.4"/>
</a>
</g>
</g>
<!-- Node5&#45;&gt;Node4 -->
<g id="edge4_Node000004_Node000005" class="edge">
<title>Node5&#45;&gt;Node4</title>
<g id="a_edge4_Node000004_Node000005"><a xlink:title=" ">
<path fill="none" stroke="orange" d="M81.3,-993.95C78.34,-956.43 73.89,-899.76 71.3,-866.89"/>
<polygon fill="orange" stroke="orange" points="77.8,-994.2 82.08,-1003.9 84.78,-993.65 77.8,-994.2"/>
</a>
</g>
<text xml:space="preserve" text-anchor="start" x="83.63" y="-933.03" font-family="Helvetica,sans-Serif" font-size="10.00" fill="grey">&lt; feature &gt;</text>
</g>
<!-- Node6 -->
<g id="Node000006" class="node">
<title>Node6</title>
<g id="a_Node000006"><a xlink:title=" ">
<polygon fill="white" stroke="none" points="141.25,-1168.65 127.25,-1168.65 127.25,-1114.4 141.25,-1114.4 141.25,-1168.65"/>
<text xml:space="preserve" text-anchor="start" x="131.25" y="-1155.15" font-family="Helvetica,sans-Serif" font-size="10.00">T</text>
<text xml:space="preserve" text-anchor="start" x="132.75" y="-1138.4" font-family="Helvetica,sans-Serif" font-size="10.00"> </text>
<text xml:space="preserve" text-anchor="start" x="132.75" y="-1121.65" font-family="Helvetica,sans-Serif" font-size="10.00"> </text>
<polygon fill="#666666" stroke="#666666" points="127.25,-1149.9 127.25,-1149.9 141.25,-1149.9 141.25,-1149.9 127.25,-1149.9"/>
<polygon fill="#666666" stroke="#666666" points="127.25,-1133.15 127.25,-1133.15 141.25,-1133.15 141.25,-1133.15 127.25,-1133.15"/>
<polygon fill="none" stroke="#666666" points="127.25,-1114.4 127.25,-1168.65 141.25,-1168.65 141.25,-1114.4 127.25,-1114.4"/>
</a>
</g>
</g>
<!-- Node6&#45;&gt;Node5 -->
<g id="edge5_Node000005_Node000006" class="edge">
<title>Node6&#45;&gt;Node5</title>
<g id="a_edge5_Node000005_Node000006"><a xlink:title=" ">
<path fill="none" stroke="#63b8ff" d="M127.3,-1125.65C120.74,-1111.61 110.63,-1089.98 101.86,-1071.21"/>
<polygon fill="none" stroke="#63b8ff" points="101.8,-1071.08 95.63,-1067.33 96.72,-1060.2 102.88,-1063.95 101.8,-1071.08"/>
</a>
</g>
<text xml:space="preserve" text-anchor="start" x="115.24" y="-1083.9" font-family="Helvetica,sans-Serif" font-size="10.00" fill="grey">+ptr</text>
</g>
<!-- Node7 -->
<g id="Node000007" class="node">
<title>Node7</title>
<g id="a_Node000007"><a xlink:title=" ">
<polygon fill="white" stroke="none" points="244.38,-866.9 156.12,-866.9 156.12,-812.65 244.38,-812.65 244.38,-866.9"/>
<text xml:space="preserve" text-anchor="start" x="160.12" y="-853.4" font-family="Helvetica,sans-Serif" font-size="10.00">std::vector&lt; T &gt;</text>
<text xml:space="preserve" text-anchor="start" x="198.75" y="-836.65" font-family="Helvetica,sans-Serif" font-size="10.00"> </text>
<text xml:space="preserve" text-anchor="start" x="198.75" y="-819.9" font-family="Helvetica,sans-Serif" font-size="10.00"> </text>
<polygon fill="#666666" stroke="#666666" points="156.12,-848.15 156.12,-848.15 244.38,-848.15 244.38,-848.15 156.12,-848.15"/>
<polygon fill="#666666" stroke="#666666" points="156.12,-831.4 156.12,-831.4 244.38,-831.4 244.38,-831.4 156.12,-831.4"/>
<polygon fill="none" stroke="#666666" points="156.12,-812.65 156.12,-866.9 244.38,-866.9 244.38,-812.65 156.12,-812.65"/>
</a>
</g>
</g>
<!-- Node6&#45;&gt;Node7 -->
<g id="edge7_Node000007_Node000006" class="edge">
<title>Node6&#45;&gt;Node7</title>
<g id="a_edge7_Node000007_Node000006"><a xlink:title=" ">
<path fill="none" stroke="#63b8ff" d="M140.1,-1114.87C141.47,-1108.82 142.92,-1102.38 144.25,-1096.4 161.4,-1019.43 181.04,-929.31 191.91,-879.27"/>
<polygon fill="none" stroke="#63b8ff" points="191.93,-879.16 189.3,-872.45 194.48,-867.43 197.11,-874.15 191.93,-879.16"/>
</a>
</g>
<text xml:space="preserve" text-anchor="start" x="167.1" y="-1029.4" font-family="Helvetica,sans-Serif" font-size="10.00" fill="grey">+elements</text>
</g>
<!-- Node7&#45;&gt;Node3 -->
<g id="edge6_Node000003_Node000007" class="edge">
<title>Node7&#45;&gt;Node3</title>
<g id="a_edge6_Node000003_Node000007"><a xlink:title=" ">
<path fill="none" stroke="orange" d="M158.14,-803.83C156.14,-800.91 154.39,-797.84 153,-794.65 130.73,-743.67 137.71,-677.27 144.91,-638.42"/>
<polygon fill="orange" stroke="orange" points="155.29,-805.88 164.29,-811.48 160.75,-801.49 155.29,-805.88"/>
</a>
</g>
<text xml:space="preserve" text-anchor="start" x="156" y="-765.4" font-family="Helvetica,sans-Serif" font-size="10.00" fill="grey">&lt; feature::ptr &gt;</text>
</g>
<!-- Node14 -->
<g id="Node000014" class="node">
<title>Node14</title>
<g id="a_Node000014"><a xlink:title=" ">
<polygon fill="white" stroke="none" points="399.88,-632.28 266.62,-632.28 266.62,-578.03 399.88,-578.03 399.88,-632.28"/>
<text xml:space="preserve" text-anchor="start" x="270.62" y="-618.78" font-family="Helvetica,sans-Serif" font-size="10.00">std::vector&lt; cv::Point2f &gt;</text>
<text xml:space="preserve" text-anchor="start" x="331.75" y="-602.03" font-family="Helvetica,sans-Serif" font-size="10.00"> </text>
<text xml:space="preserve" text-anchor="start" x="331.75" y="-585.28" font-family="Helvetica,sans-Serif" font-size="10.00"> </text>
<polygon fill="#666666" stroke="#666666" points="266.62,-613.53 266.62,-613.53 399.88,-613.53 399.88,-613.53 266.62,-613.53"/>
<polygon fill="#666666" stroke="#666666" points="266.62,-596.78 266.62,-596.78 399.88,-596.78 399.88,-596.78 266.62,-596.78"/>
<polygon fill="none" stroke="#666666" points="266.62,-578.03 266.62,-632.28 399.88,-632.28 399.88,-578.03 266.62,-578.03"/>
</a>
</g>
</g>
<!-- Node7&#45;&gt;Node14 -->
<g id="edge18_Node000014_Node000007" class="edge">
<title>Node7&#45;&gt;Node14</title>
<g id="a_edge18_Node000014_Node000007"><a xlink:title=" ">
<path fill="none" stroke="orange" d="M229.83,-803.88C232.08,-800.82 234.25,-797.72 236.25,-794.65 250.45,-772.83 250.88,-765.58 262.75,-742.4 282.42,-704 305.43,-659.64 319.67,-632.24"/>
<polygon fill="orange" stroke="orange" points="227.16,-801.62 223.84,-811.68 232.71,-805.89 227.16,-801.62"/>
</a>
</g>
<text xml:space="preserve" text-anchor="start" x="265.75" y="-765.4" font-family="Helvetica,sans-Serif" font-size="10.00" fill="grey">&lt; cv::Point2f &gt;</text>
</g>
<!-- Node8 -->
<g id="Node000008" class="node">
<title>Node8</title>
<g id="a_Node000008"><a xlink:title=" ">
<polygon fill="white" stroke="none" points="638.12,-1059.65 608.38,-1059.65 608.38,-1005.4 638.12,-1005.4 638.12,-1059.65"/>
<text xml:space="preserve" text-anchor="start" x="612.38" y="-1046.15" font-family="Helvetica,sans-Serif" font-size="10.00">float</text>
<text xml:space="preserve" text-anchor="start" x="621.75" y="-1029.4" font-family="Helvetica,sans-Serif" font-size="10.00"> </text>
<text xml:space="preserve" text-anchor="start" x="621.75" y="-1012.65" font-family="Helvetica,sans-Serif" font-size="10.00"> </text>
<polygon fill="#666666" stroke="#666666" points="608.38,-1040.9 608.38,-1040.9 638.12,-1040.9 638.12,-1040.9 608.38,-1040.9"/>
<polygon fill="#666666" stroke="#666666" points="608.38,-1024.15 608.38,-1024.15 638.12,-1024.15 638.12,-1024.15 608.38,-1024.15"/>
<polygon fill="none" stroke="#666666" points="608.38,-1005.4 608.38,-1059.65 638.12,-1059.65 638.12,-1005.4 608.38,-1005.4"/>
</a>
</g>
</g>
<!-- Node8&#45;&gt;Node2 -->
<g id="edge8_Node000002_Node000008" class="edge">
<title>Node8&#45;&gt;Node2</title>
<g id="a_edge8_Node000002_Node000008"><a xlink:title=" ">
<path fill="none" stroke="#63b8ff" d="M614.01,-1005.66C602.89,-973.53 584.46,-916.86 574.25,-866.9 545.05,-723.94 552.04,-555.5 562.27,-443.89"/>
<polygon fill="none" stroke="#63b8ff" points="562.28,-443.75 558.86,-437.4 563.41,-431.81 566.83,-438.16 562.28,-443.75"/>
</a>
</g>
<text xml:space="preserve" text-anchor="start" x="565.53" y="-782.15" font-family="Helvetica,sans-Serif" font-size="10.00" fill="grey">#_angle</text>
<text xml:space="preserve" text-anchor="start" x="565.53" y="-765.4" font-family="Helvetica,sans-Serif" font-size="10.00" fill="grey">#_height</text>
<text xml:space="preserve" text-anchor="start" x="565.53" y="-748.65" font-family="Helvetica,sans-Serif" font-size="10.00" fill="grey">#_width</text>
</g>
<!-- Node12 -->
<g id="Node000012" class="node">
<title>Node12</title>
<g id="a_Node000012"><a xlink:href="../../d4/def/structrm_1_1Translation.html" target="_top" xlink:title="移动位置信息">
<polygon fill="white" stroke="none" points="663.62,-866.9 582.88,-866.9 582.88,-812.65 663.62,-812.65 663.62,-866.9"/>
<text xml:space="preserve" text-anchor="start" x="586.88" y="-853.4" font-family="Helvetica,sans-Serif" font-size="10.00">rm::Translation</text>
<text xml:space="preserve" text-anchor="start" x="621.75" y="-836.65" font-family="Helvetica,sans-Serif" font-size="10.00"> </text>
<text xml:space="preserve" text-anchor="start" x="621.75" y="-819.9" font-family="Helvetica,sans-Serif" font-size="10.00"> </text>
<polygon fill="#666666" stroke="#666666" points="582.88,-848.15 582.88,-848.15 663.62,-848.15 663.62,-848.15 582.88,-848.15"/>
<polygon fill="#666666" stroke="#666666" points="582.88,-831.4 582.88,-831.4 663.62,-831.4 663.62,-831.4 582.88,-831.4"/>
<polygon fill="none" stroke="#666666" points="582.88,-812.65 582.88,-866.9 663.62,-866.9 663.62,-812.65 582.88,-812.65"/>
</a>
</g>
</g>
<!-- Node8&#45;&gt;Node12 -->
<g id="edge13_Node000012_Node000008" class="edge">
<title>Node8&#45;&gt;Node12</title>
<g id="a_edge13_Node000012_Node000008"><a xlink:title=" ">
<path fill="none" stroke="#63b8ff" d="M623.25,-1005.41C623.25,-972.96 623.25,-917.33 623.25,-879.82"/>
<polygon fill="none" stroke="#63b8ff" points="623.25,-879.79 619.25,-873.79 623.25,-867.79 627.25,-873.79 623.25,-879.79"/>
</a>
</g>
<text xml:space="preserve" text-anchor="start" x="626.25" y="-974.9" font-family="Helvetica,sans-Serif" font-size="10.00" fill="grey">+vx</text>
<text xml:space="preserve" text-anchor="start" x="626.25" y="-958.15" font-family="Helvetica,sans-Serif" font-size="10.00" fill="grey">+vy</text>
<text xml:space="preserve" text-anchor="start" x="626.25" y="-941.4" font-family="Helvetica,sans-Serif" font-size="10.00" fill="grey">+vz</text>
<text xml:space="preserve" text-anchor="start" x="626.25" y="-924.65" font-family="Helvetica,sans-Serif" font-size="10.00" fill="grey">+x</text>
<text xml:space="preserve" text-anchor="start" x="626.25" y="-907.9" font-family="Helvetica,sans-Serif" font-size="10.00" fill="grey">+y</text>
<text xml:space="preserve" text-anchor="start" x="626.25" y="-891.15" font-family="Helvetica,sans-Serif" font-size="10.00" fill="grey">+z</text>
</g>
<!-- Node13 -->
<g id="Node000013" class="node">
<title>Node13</title>
<g id="a_Node000013"><a xlink:href="../../d1/d5f/structrm_1_1Rotation.html" target="_top" xlink:title="转动姿态信息">
<polygon fill="white" stroke="none" points="750.62,-866.9 681.88,-866.9 681.88,-812.65 750.62,-812.65 750.62,-866.9"/>
<text xml:space="preserve" text-anchor="start" x="685.88" y="-853.4" font-family="Helvetica,sans-Serif" font-size="10.00">rm::Rotation</text>
<text xml:space="preserve" text-anchor="start" x="714.75" y="-836.65" font-family="Helvetica,sans-Serif" font-size="10.00"> </text>
<text xml:space="preserve" text-anchor="start" x="714.75" y="-819.9" font-family="Helvetica,sans-Serif" font-size="10.00"> </text>
<polygon fill="#666666" stroke="#666666" points="681.88,-848.15 681.88,-848.15 750.62,-848.15 750.62,-848.15 681.88,-848.15"/>
<polygon fill="#666666" stroke="#666666" points="681.88,-831.4 681.88,-831.4 750.62,-831.4 750.62,-831.4 681.88,-831.4"/>
<polygon fill="none" stroke="#666666" points="681.88,-812.65 681.88,-866.9 750.62,-866.9 750.62,-812.65 681.88,-812.65"/>
</a>
</g>
</g>
<!-- Node8&#45;&gt;Node13 -->
<g id="edge15_Node000013_Node000008" class="edge">
<title>Node8&#45;&gt;Node13</title>
<g id="a_edge15_Node000013_Node000008"><a xlink:title=" ">
<path fill="none" stroke="#63b8ff" d="M637.83,-1011.83C643.02,-1004.38 648.71,-995.69 653.25,-987.4 672.77,-951.8 690.59,-908.9 702.26,-878.73"/>
<polygon fill="none" stroke="#63b8ff" points="702.27,-878.7 700.67,-871.67 706.55,-867.49 708.14,-874.52 702.27,-878.7"/>
</a>
</g>
<text xml:space="preserve" text-anchor="start" x="701.89" y="-974.9" font-family="Helvetica,sans-Serif" font-size="10.00" fill="grey">+pitch</text>
<text xml:space="preserve" text-anchor="start" x="701.89" y="-958.15" font-family="Helvetica,sans-Serif" font-size="10.00" fill="grey">+pitch_speed</text>
<text xml:space="preserve" text-anchor="start" x="701.89" y="-941.4" font-family="Helvetica,sans-Serif" font-size="10.00" fill="grey">+roll</text>
<text xml:space="preserve" text-anchor="start" x="701.89" y="-924.65" font-family="Helvetica,sans-Serif" font-size="10.00" fill="grey">+roll_speed</text>
<text xml:space="preserve" text-anchor="start" x="701.89" y="-907.9" font-family="Helvetica,sans-Serif" font-size="10.00" fill="grey">+yaw</text>
<text xml:space="preserve" text-anchor="start" x="701.89" y="-891.15" font-family="Helvetica,sans-Serif" font-size="10.00" fill="grey">+yaw_speed</text>
</g>
<!-- Node9 -->
<g id="Node000009" class="node">
<title>Node9</title>
<g id="a_Node000009"><a xlink:href="../../d3/da8/classrm_1_1StateInfo.html" target="_top" xlink:title="状态类型系统">
<polygon fill="white" stroke="none" points="751.5,-724.4 669,-724.4 669,-485.9 751.5,-485.9 751.5,-724.4"/>
<text xml:space="preserve" text-anchor="start" x="678.38" y="-710.9" font-family="Helvetica,sans-Serif" font-size="10.00">rm::StateInfo</text>
<text xml:space="preserve" text-anchor="start" x="708.75" y="-694.15" font-family="Helvetica,sans-Serif" font-size="10.00"> </text>
<text xml:space="preserve" text-anchor="start" x="673" y="-677.4" font-family="Helvetica,sans-Serif" font-size="10.00">+</text>
<text xml:space="preserve" text-anchor="start" x="685.25" y="-677.4" font-family="Helvetica,sans-Serif" font-size="10.00">StateInfo()</text>
<text xml:space="preserve" text-anchor="start" x="673" y="-660.65" font-family="Helvetica,sans-Serif" font-size="10.00">+</text>
<text xml:space="preserve" text-anchor="start" x="685.25" y="-660.65" font-family="Helvetica,sans-Serif" font-size="10.00">add()</text>
<text xml:space="preserve" text-anchor="start" x="673" y="-643.9" font-family="Helvetica,sans-Serif" font-size="10.00">+</text>
<text xml:space="preserve" text-anchor="start" x="685.25" y="-643.9" font-family="Helvetica,sans-Serif" font-size="10.00">add()</text>
<text xml:space="preserve" text-anchor="start" x="673" y="-627.15" font-family="Helvetica,sans-Serif" font-size="10.00">+</text>
<text xml:space="preserve" text-anchor="start" x="685.25" y="-627.15" font-family="Helvetica,sans-Serif" font-size="10.00">remove()</text>
<text xml:space="preserve" text-anchor="start" x="673" y="-610.4" font-family="Helvetica,sans-Serif" font-size="10.00">+</text>
<text xml:space="preserve" text-anchor="start" x="685.25" y="-610.4" font-family="Helvetica,sans-Serif" font-size="10.00">contains()</text>
<text xml:space="preserve" text-anchor="start" x="673" y="-593.65" font-family="Helvetica,sans-Serif" font-size="10.00">+</text>
<text xml:space="preserve" text-anchor="start" x="685.25" y="-593.65" font-family="Helvetica,sans-Serif" font-size="10.00">clear()</text>
<text xml:space="preserve" text-anchor="start" x="673" y="-576.9" font-family="Helvetica,sans-Serif" font-size="10.00">+</text>
<text xml:space="preserve" text-anchor="start" x="685.25" y="-576.9" font-family="Helvetica,sans-Serif" font-size="10.00">empty()</text>
<text xml:space="preserve" text-anchor="start" x="673" y="-560.15" font-family="Helvetica,sans-Serif" font-size="10.00">+</text>
<text xml:space="preserve" text-anchor="start" x="685.25" y="-560.15" font-family="Helvetica,sans-Serif" font-size="10.00">at()</text>
<text xml:space="preserve" text-anchor="start" x="673" y="-543.4" font-family="Helvetica,sans-Serif" font-size="10.00">+</text>
<text xml:space="preserve" text-anchor="start" x="685.25" y="-543.4" font-family="Helvetica,sans-Serif" font-size="10.00">at_numeric()</text>
<text xml:space="preserve" text-anchor="start" x="673" y="-526.65" font-family="Helvetica,sans-Serif" font-size="10.00">+</text>
<text xml:space="preserve" text-anchor="start" x="685.25" y="-526.65" font-family="Helvetica,sans-Serif" font-size="10.00">at_string()</text>
<text xml:space="preserve" text-anchor="start" x="673" y="-509.9" font-family="Helvetica,sans-Serif" font-size="10.00">+</text>
<text xml:space="preserve" text-anchor="start" x="685.25" y="-509.9" font-family="Helvetica,sans-Serif" font-size="10.00">at()</text>
<text xml:space="preserve" text-anchor="start" x="673" y="-493.15" font-family="Helvetica,sans-Serif" font-size="10.00">+</text>
<text xml:space="preserve" text-anchor="start" x="685.25" y="-493.15" font-family="Helvetica,sans-Serif" font-size="10.00">operator[]()</text>
<polygon fill="#666666" stroke="#666666" points="669,-705.65 669,-705.65 751.5,-705.65 751.5,-705.65 669,-705.65"/>
<polygon fill="#666666" stroke="#666666" points="669,-688.9 669,-688.9 751.5,-688.9 751.5,-688.9 669,-688.9"/>
<polygon fill="none" stroke="#666666" points="669,-485.9 669,-724.4 751.5,-724.4 751.5,-485.9 669,-485.9"/>
</a>
</g>
</g>
<!-- Node9&#45;&gt;Node2 -->
<g id="edge9_Node000002_Node000009" class="edge">
<title>Node9&#45;&gt;Node2</title>
<g id="a_edge9_Node000002_Node000009"><a xlink:title=" ">
<path fill="none" stroke="#63b8ff" d="M681.24,-486.27C676.8,-473.52 671.81,-460.91 666.25,-449.15 653.85,-422.91 636.26,-396.18 619.98,-373.95"/>
<polygon fill="none" stroke="#63b8ff" points="620.09,-374.1 613.3,-371.68 612.92,-364.48 619.71,-366.89 620.09,-374.1"/>
</a>
</g>
<text xml:space="preserve" text-anchor="start" x="676.27" y="-455.4" font-family="Helvetica,sans-Serif" font-size="10.00" fill="grey">#_state</text>
</g>
<!-- Node10 -->
<g id="Node000010" class="node">
<title>Node10</title>
<g id="a_Node000010"><a xlink:title=" ">
<polygon fill="white" stroke="none" points="419.5,-866.9 377,-866.9 377,-812.65 419.5,-812.65 419.5,-866.9"/>
<text xml:space="preserve" text-anchor="start" x="381" y="-853.4" font-family="Helvetica,sans-Serif" font-size="10.00">Point2f</text>
<text xml:space="preserve" text-anchor="start" x="396.75" y="-836.65" font-family="Helvetica,sans-Serif" font-size="10.00"> </text>
<text xml:space="preserve" text-anchor="start" x="396.75" y="-819.9" font-family="Helvetica,sans-Serif" font-size="10.00"> </text>
<polygon fill="#666666" stroke="#666666" points="377,-848.15 377,-848.15 419.5,-848.15 419.5,-848.15 377,-848.15"/>
<polygon fill="#666666" stroke="#666666" points="377,-831.4 377,-831.4 419.5,-831.4 419.5,-831.4 377,-831.4"/>
<polygon fill="none" stroke="#666666" points="377,-812.65 377,-866.9 419.5,-866.9 419.5,-812.65 377,-812.65"/>
</a>
</g>
</g>
<!-- Node10&#45;&gt;Node2 -->
<g id="edge10_Node000002_Node000010" class="edge">
<title>Node10&#45;&gt;Node2</title>
<g id="a_edge10_Node000002_Node000010"><a xlink:title=" ">
<path fill="none" stroke="#63b8ff" d="M414.56,-812.95C417.59,-807.12 420.38,-800.83 422.25,-794.65 462.16,-662.79 399.77,-614.2 450,-485.9 468.35,-439.03 504.33,-394.36 533.37,-363.33"/>
<polygon fill="none" stroke="#63b8ff" points="533.22,-363.48 534.47,-356.38 541.5,-354.8 540.25,-361.91 533.22,-363.48"/>
</a>
</g>
<text xml:space="preserve" text-anchor="start" x="453" y="-610.4" font-family="Helvetica,sans-Serif" font-size="10.00" fill="grey">#_center</text>
<text xml:space="preserve" text-anchor="start" x="453" y="-593.65" font-family="Helvetica,sans-Serif" font-size="10.00" fill="grey">#_relative_angle</text>
</g>
<!-- Node10&#45;&gt;Node14 -->
<g id="edge17_Node000014_Node000010" class="edge">
<title>Node10&#45;&gt;Node14</title>
<g id="a_edge17_Node000014_Node000010"><a xlink:title=" ">
<path fill="none" stroke="#63b8ff" d="M377.03,-817.44C371.39,-810.65 365.87,-802.78 362.25,-794.65 340.64,-746.08 334.73,-684.28 333.33,-644.96"/>
<polygon fill="none" stroke="#63b8ff" points="333.33,-644.94 329.18,-639.04 333.02,-632.94 337.17,-638.84 333.33,-644.94"/>
</a>
</g>
<text xml:space="preserve" text-anchor="start" x="365.25" y="-765.4" font-family="Helvetica,sans-Serif" font-size="10.00" fill="grey">+elements</text>
</g>
<!-- Node11 -->
<g id="Node000011" class="node">
<title>Node11</title>
<g id="a_Node000011"><a xlink:href="../../db/def/structrm_1_1ImuData.html" target="_top" xlink:title="IMU 数据">
<polygon fill="white" stroke="none" points="651,-657.4 581.5,-657.4 581.5,-552.9 651,-552.9 651,-657.4"/>
<text xml:space="preserve" text-anchor="start" x="585.5" y="-643.9" font-family="Helvetica,sans-Serif" font-size="10.00">rm::ImuData</text>
<text xml:space="preserve" text-anchor="start" x="614.75" y="-627.15" font-family="Helvetica,sans-Serif" font-size="10.00"> </text>
<text xml:space="preserve" text-anchor="start" x="589.75" y="-610.4" font-family="Helvetica,sans-Serif" font-size="10.00">+</text>
<text xml:space="preserve" text-anchor="start" x="606.25" y="-610.4" font-family="Helvetica,sans-Serif" font-size="10.00">write()</text>
<text xml:space="preserve" text-anchor="start" x="589.75" y="-593.65" font-family="Helvetica,sans-Serif" font-size="10.00">+</text>
<text xml:space="preserve" text-anchor="start" x="606.25" y="-593.65" font-family="Helvetica,sans-Serif" font-size="10.00">read()</text>
<text xml:space="preserve" text-anchor="start" x="589.75" y="-576.9" font-family="Helvetica,sans-Serif" font-size="10.00">+</text>
<text xml:space="preserve" text-anchor="start" x="606.25" y="-576.9" font-family="Helvetica,sans-Serif" font-size="10.00">write()</text>
<text xml:space="preserve" text-anchor="start" x="589.75" y="-560.15" font-family="Helvetica,sans-Serif" font-size="10.00">+</text>
<text xml:space="preserve" text-anchor="start" x="606.25" y="-560.15" font-family="Helvetica,sans-Serif" font-size="10.00">read()</text>
<polygon fill="#666666" stroke="#666666" points="581.5,-638.65 581.5,-638.65 651,-638.65 651,-638.65 581.5,-638.65"/>
<polygon fill="#666666" stroke="#666666" points="581.5,-621.9 581.5,-621.9 651,-621.9 651,-621.9 581.5,-621.9"/>
<polygon fill="none" stroke="#666666" points="581.5,-552.9 581.5,-657.4 651,-657.4 651,-552.9 581.5,-552.9"/>
</a>
</g>
</g>
<!-- Node11&#45;&gt;Node2 -->
<g id="edge11_Node000002_Node000011" class="edge">
<title>Node11&#45;&gt;Node2</title>
<g id="a_edge11_Node000002_Node000011"><a xlink:title=" ">
<path fill="none" stroke="#63b8ff" d="M609.23,-553.17C605.02,-522.55 599.46,-482.16 594.16,-443.67"/>
<polygon fill="none" stroke="#63b8ff" points="594.17,-443.76 589.39,-438.36 592.54,-431.87 597.32,-437.27 594.17,-443.76"/>
</a>
</g>
<text xml:space="preserve" text-anchor="start" x="599.75" y="-455.4" font-family="Helvetica,sans-Serif" font-size="10.00" fill="grey">#_imu_data</text>
</g>
<!-- Node12&#45;&gt;Node11 -->
<g id="edge12_Node000011_Node000012" class="edge">
<title>Node12&#45;&gt;Node11</title>
<g id="a_edge12_Node000011_Node000012"><a xlink:title=" ">
<path fill="none" stroke="#63b8ff" d="M622.47,-813C621.44,-778.72 619.59,-716.99 618.17,-669.86"/>
<polygon fill="none" stroke="#63b8ff" points="618.17,-669.89 613.99,-664.01 617.81,-657.89 621.99,-663.77 618.17,-669.89"/>
</a>
</g>
<text xml:space="preserve" text-anchor="start" x="624.91" y="-765.4" font-family="Helvetica,sans-Serif" font-size="10.00" fill="grey">+translation</text>
</g>
<!-- Node13&#45;&gt;Node11 -->
<g id="edge14_Node000011_Node000013" class="edge">
<title>Node13&#45;&gt;Node11</title>
<g id="a_edge14_Node000011_Node000013"><a xlink:title=" ">
<path fill="none" stroke="#63b8ff" d="M715.34,-813.05C713.4,-792.13 707.82,-762.84 692.25,-742.4 682.36,-729.43 670.85,-736.81 660.25,-724.4 646.88,-708.77 637.4,-688.68 630.75,-669.53"/>
<polygon fill="none" stroke="#63b8ff" points="630.72,-669.41 625.08,-664.92 627.06,-657.98 632.69,-662.48 630.72,-669.41"/>
</a>
</g>
<text xml:space="preserve" text-anchor="start" x="715.74" y="-765.4" font-family="Helvetica,sans-Serif" font-size="10.00" fill="grey">+rotation</text>
</g>
<!-- Node14&#45;&gt;Node2 -->
<g id="edge16_Node000002_Node000014" class="edge">
<title>Node14&#45;&gt;Node2</title>
<g id="a_edge16_Node000002_Node000014"><a xlink:title=" ">
<path fill="none" stroke="#63b8ff" d="M332.83,-578.08C333.55,-545.11 339.15,-487.97 366.75,-449.15 407.13,-392.36 481.3,-355.9 529.94,-336.88"/>
<polygon fill="none" stroke="#63b8ff" points="529.96,-336.87 534.16,-331.01 541.18,-332.63 536.99,-338.49 529.96,-336.87"/>
</a>
</g>
<text xml:space="preserve" text-anchor="start" x="369.75" y="-455.4" font-family="Helvetica,sans-Serif" font-size="10.00" fill="grey">#_corners</text>
</g>
<!-- Node15 -->
<g id="Node000015" class="node">
<title>Node15</title>
<g id="a_Node000015"><a xlink:href="../../da/dbf/classrm_1_1CameraExtrinsics.html" target="_top" xlink:title="相机外参">
<polygon fill="white" stroke="none" points="882.75,-724.4 769.75,-724.4 769.75,-485.9 882.75,-485.9 882.75,-724.4"/>
<text xml:space="preserve" text-anchor="start" x="773.75" y="-710.9" font-family="Helvetica,sans-Serif" font-size="10.00">rm::CameraExtrinsics</text>
<text xml:space="preserve" text-anchor="start" x="824.75" y="-694.15" font-family="Helvetica,sans-Serif" font-size="10.00"> </text>
<text xml:space="preserve" text-anchor="start" x="784.75" y="-677.4" font-family="Helvetica,sans-Serif" font-size="10.00">+</text>
<text xml:space="preserve" text-anchor="start" x="808" y="-677.4" font-family="Helvetica,sans-Serif" font-size="10.00">tvec()</text>
<text xml:space="preserve" text-anchor="start" x="784.75" y="-660.65" font-family="Helvetica,sans-Serif" font-size="10.00">+</text>
<text xml:space="preserve" text-anchor="start" x="808" y="-660.65" font-family="Helvetica,sans-Serif" font-size="10.00">rvec()</text>
<text xml:space="preserve" text-anchor="start" x="784.75" y="-643.9" font-family="Helvetica,sans-Serif" font-size="10.00">+</text>
<text xml:space="preserve" text-anchor="start" x="808" y="-643.9" font-family="Helvetica,sans-Serif" font-size="10.00">R()</text>
<text xml:space="preserve" text-anchor="start" x="784.75" y="-627.15" font-family="Helvetica,sans-Serif" font-size="10.00">+</text>
<text xml:space="preserve" text-anchor="start" x="808" y="-627.15" font-family="Helvetica,sans-Serif" font-size="10.00">T()</text>
<text xml:space="preserve" text-anchor="start" x="784.75" y="-610.4" font-family="Helvetica,sans-Serif" font-size="10.00">+</text>
<text xml:space="preserve" text-anchor="start" x="808" y="-610.4" font-family="Helvetica,sans-Serif" font-size="10.00">yaw()</text>
<text xml:space="preserve" text-anchor="start" x="784.75" y="-593.65" font-family="Helvetica,sans-Serif" font-size="10.00">+</text>
<text xml:space="preserve" text-anchor="start" x="808" y="-593.65" font-family="Helvetica,sans-Serif" font-size="10.00">pitch()</text>
<text xml:space="preserve" text-anchor="start" x="784.75" y="-576.9" font-family="Helvetica,sans-Serif" font-size="10.00">+</text>
<text xml:space="preserve" text-anchor="start" x="808" y="-576.9" font-family="Helvetica,sans-Serif" font-size="10.00">roll()</text>
<text xml:space="preserve" text-anchor="start" x="784.75" y="-560.15" font-family="Helvetica,sans-Serif" font-size="10.00">+</text>
<text xml:space="preserve" text-anchor="start" x="808" y="-560.15" font-family="Helvetica,sans-Serif" font-size="10.00">distance()</text>
<text xml:space="preserve" text-anchor="start" x="784.75" y="-543.4" font-family="Helvetica,sans-Serif" font-size="10.00">+</text>
<text xml:space="preserve" text-anchor="start" x="808" y="-543.4" font-family="Helvetica,sans-Serif" font-size="10.00">tvec()</text>
<text xml:space="preserve" text-anchor="start" x="784.75" y="-526.65" font-family="Helvetica,sans-Serif" font-size="10.00">+</text>
<text xml:space="preserve" text-anchor="start" x="808" y="-526.65" font-family="Helvetica,sans-Serif" font-size="10.00">rvec()</text>
<text xml:space="preserve" text-anchor="start" x="784.75" y="-509.9" font-family="Helvetica,sans-Serif" font-size="10.00">+</text>
<text xml:space="preserve" text-anchor="start" x="808" y="-509.9" font-family="Helvetica,sans-Serif" font-size="10.00">R()</text>
<text xml:space="preserve" text-anchor="start" x="784.75" y="-493.15" font-family="Helvetica,sans-Serif" font-size="10.00">+</text>
<text xml:space="preserve" text-anchor="start" x="808" y="-493.15" font-family="Helvetica,sans-Serif" font-size="10.00">distance()</text>
<polygon fill="#666666" stroke="#666666" points="769.75,-705.65 769.75,-705.65 882.75,-705.65 882.75,-705.65 769.75,-705.65"/>
<polygon fill="#666666" stroke="#666666" points="769.75,-688.9 769.75,-688.9 882.75,-688.9 882.75,-688.9 769.75,-688.9"/>
<polygon fill="none" stroke="#666666" points="769.75,-485.9 769.75,-724.4 882.75,-724.4 882.75,-485.9 769.75,-485.9"/>
</a>
</g>
</g>
<!-- Node15&#45;&gt;Node2 -->
<g id="edge19_Node000002_Node000015" class="edge">
<title>Node15&#45;&gt;Node2</title>
<g id="a_edge19_Node000002_Node000015"><a xlink:title=" ">
<path fill="none" stroke="#63b8ff" d="M769.81,-498.9C766.69,-494.43 763.5,-490.08 760.25,-485.9 719.93,-434.17 662.27,-385.2 622.51,-354.23"/>
<polygon fill="none" stroke="#63b8ff" points="622.52,-354.25 615.33,-353.75 613.01,-346.93 620.21,-347.42 622.52,-354.25"/>
</a>
</g>
<text xml:space="preserve" text-anchor="start" x="746.25" y="-455.4" font-family="Helvetica,sans-Serif" font-size="10.00" fill="grey">#_extrinsic</text>
</g>
<!-- Node16 -->
<g id="Node000016" class="node">
<title>Node16</title>
<g id="a_Node000016"><a xlink:title=" ">
<polygon fill="white" stroke="none" points="942.12,-632.28 900.38,-632.28 900.38,-578.03 942.12,-578.03 942.12,-632.28"/>
<text xml:space="preserve" text-anchor="start" x="904.38" y="-618.78" font-family="Helvetica,sans-Serif" font-size="10.00">int64_t</text>
<text xml:space="preserve" text-anchor="start" x="919.75" y="-602.03" font-family="Helvetica,sans-Serif" font-size="10.00"> </text>
<text xml:space="preserve" text-anchor="start" x="919.75" y="-585.28" font-family="Helvetica,sans-Serif" font-size="10.00"> </text>
<polygon fill="#666666" stroke="#666666" points="900.38,-613.53 900.38,-613.53 942.12,-613.53 942.12,-613.53 900.38,-613.53"/>
<polygon fill="#666666" stroke="#666666" points="900.38,-596.78 900.38,-596.78 942.12,-596.78 942.12,-596.78 900.38,-596.78"/>
<polygon fill="none" stroke="#666666" points="900.38,-578.03 900.38,-632.28 942.12,-632.28 942.12,-578.03 900.38,-578.03"/>
</a>
</g>
</g>
<!-- Node16&#45;&gt;Node2 -->
<g id="edge20_Node000002_Node000016" class="edge">
<title>Node16&#45;&gt;Node2</title>
<g id="a_edge20_Node000002_Node000016"><a xlink:title=" ">
<path fill="none" stroke="#63b8ff" d="M920.9,-578.46C919.29,-552.56 913.23,-512.7 892.25,-485.9 823.27,-397.81 694.1,-351.71 624.52,-332.3"/>
<polygon fill="none" stroke="#63b8ff" points="624.71,-332.35 617.87,-334.65 613.12,-329.22 619.96,-326.93 624.71,-332.35"/>
</a>
</g>
<text xml:space="preserve" text-anchor="start" x="876.49" y="-455.4" font-family="Helvetica,sans-Serif" font-size="10.00" fill="grey">#_tick</text>
</g>
</g>
</svg>

<g id="navigator" transform="translate(0 0)" fill="#404254">
  <rect fill="#f2f5e9" fill-opacity="0.5" stroke="#606060" stroke-width=".5" x="0" y="0" width="60" height="60"/>
  <use id="zoomplus" xlink:href="#zoomPlus" x="17" y="9" onmousedown="handleZoom(evt,'in')"/>
  <use id="zoomminus" xlink:href="#zoomMin" x="42" y="9" onmousedown="handleZoom(evt,'out')"/>
  <use id="reset" xlink:href="#resetDef" x="30" y="36" onmousedown="handleReset()"/>
   <use id="arrowup" xlink:href="#arrowUp" x="0" y="0" onmousedown="handlePan(0,-1)"/>
  <use id="arrowright" xlink:href="#arrowRight" x="0" y="0" onmousedown="handlePan(1,0)"/>
  <use id="arrowdown" xlink:href="#arrowDown" x="0" y="0" onmousedown="handlePan(0,1)"/>
  <use id="arrowleft" xlink:href="#arrowLeft" x="0" y="0" onmousedown="handlePan(-1,0)"/>
</g>
<svg viewBox="0 0 15 15" width="100%" height="30px" preserveAspectRatio="xMaxYMin meet">
 <g id="arrow_out" transform="scale(0.3 0.3)">
  <a xlink:href="classrm_1_1Rune__coll__graph_org.svg" target="_base">
   <rect id="button" ry="5" rx="5" y="6" x="6" height="38" width="38"
        fill="#f2f5e9" fill-opacity="0.5" stroke="#606060" stroke-width="1.0"/>
   <path id="arrow"
     d="M 11.500037,31.436501 C 11.940474,20.09759 22.043105,11.32322 32.158766,21.979434 L 37.068811,17.246167 C 37.068811,17.246167 37.088388,32 37.088388,32 L 22.160133,31.978069 C 22.160133,31.978069 26.997745,27.140456 26.997745,27.140456 C 18.528582,18.264221 13.291696,25.230495 11.500037,31.436501 z"
     style="fill:#404040;"/>
  </a>
 </g>
</svg>

<style type='text/css'>
<![CDATA[
[data-mouse-over-selected='false'] { opacity: 0.7; }
[data-mouse-over-selected='true']  { opacity: 1.0; }
]]>
</style>
<script type="application/ecmascript"><![CDATA[
document.addEventListener('DOMContentLoaded', (event) => {
  highlightEdges();
  highlightAdjacentNodes();
});
]]></script>
</svg>
