<?xml version="1.0" encoding="UTF-8" standalone="no"?>
<!DOCTYPE svg PUBLIC "-//W3C//DTD SVG 1.1//EN"
 "http://www.w3.org/Graphics/SVG/1.1/DTD/svg11.dtd">
<!-- Generated by graphviz version 2.43.0 (0)
 -->
<!-- Title: rm::Publisher&lt; Tpid &gt; Pages: 1 -->
<svg width="160pt" height="190pt"
 viewBox="0.00 0.00 159.50 190.00" xmlns="http://www.w3.org/2000/svg" xmlns:xlink="http://www.w3.org/1999/xlink">

<svg id="main" version="1.1" xmlns="http://www.w3.org/2000/svg" xmlns:xlink="http://www.w3.org/1999/xlink" xml:space="preserve">

<style type="text/css"><![CDATA[
.node, .edge {opacity: 0.7;}
.node.selected, .edge.selected {opacity: 1;}
.edge:hover path { stroke: red; }
.edge:hover polygon { stroke: red; fill: red; }
]]></style>
<script type="application/ecmascript" xlink:href="../../svg.min.js"/>
<svg id="graph" class="graph">
<g id="graph0" class="graph" transform="scale(1 1) rotate(0) translate(4 186)">
<title>rm::Publisher&lt; Tpid &gt;</title>
<!-- Node1 -->
<g id="Node000001" class="node">
<title>Node1</title>
<g id="a_Node000001"><a xlink:title="OPC UA 发布者">
<polygon fill="#999999" stroke="transparent" points="112,-182 7,-182 7,-133 112,-133 112,-182"/>
<text text-anchor="start" x="12.5" y="-169.5" font-family="Helvetica,sans-Serif" font-size="10.00">rm::Publisher&lt; Tpid &gt;</text>
<text text-anchor="start" x="58" y="-154.5" font-family="Helvetica,sans-Serif" font-size="10.00"> </text>
<text text-anchor="start" x="58" y="-139.5" font-family="Helvetica,sans-Serif" font-size="10.00"> </text>
<polygon fill="#666666" stroke="#666666" points="7.5,-164.5 7.5,-164.5 112.5,-164.5 112.5,-164.5 7.5,-164.5"/>
<polygon fill="#666666" stroke="#666666" points="7.5,-149.5 7.5,-149.5 112.5,-149.5 112.5,-149.5 7.5,-149.5"/>
<polygon fill="none" stroke="#666666" points="7,-133 7,-182 112,-182 112,-133 7,-133"/>
</a>
</g>
</g>
<!-- Node2 -->
<g id="Node000002" class="node">
<title>Node2</title>
<g id="a_Node000002"><a xlink:href="../../db/d7c/classrm_1_1Publisher_3_01TransportID_1_1UDP__UADP_01_4.html" target="_top" xlink:title="使用 UDP 协议以及 UADP 序列化方式的 Publisher 特化">
<polygon fill="white" stroke="transparent" points="119,-75 0,-75 0,0 119,0 119,-75"/>
<text text-anchor="start" x="5.5" y="-62.5" font-family="Helvetica,sans-Serif" font-size="10.00">rm::Publisher&lt; Transport</text>
<text text-anchor="start" x="19" y="-51.5" font-family="Helvetica,sans-Serif" font-size="10.00">ID::UDP_UADP &gt;</text>
<text text-anchor="start" x="58" y="-36.5" font-family="Helvetica,sans-Serif" font-size="10.00"> </text>
<text text-anchor="start" x="17.5" y="-21.5" font-family="Helvetica,sans-Serif" font-size="10.00">+</text>
<text text-anchor="start" x="41.5" y="-21.5" font-family="Helvetica,sans-Serif" font-size="10.00">Publisher()</text>
<text text-anchor="start" x="17.5" y="-6.5" font-family="Helvetica,sans-Serif" font-size="10.00">+</text>
<text text-anchor="start" x="41.5" y="-6.5" font-family="Helvetica,sans-Serif" font-size="10.00">publish()</text>
<polygon fill="#666666" stroke="#666666" points="0.5,-46.5 0.5,-46.5 119.5,-46.5 119.5,-46.5 0.5,-46.5"/>
<polygon fill="#666666" stroke="#666666" points="0.5,-31.5 0.5,-31.5 119.5,-31.5 119.5,-31.5 0.5,-31.5"/>
<polygon fill="none" stroke="#666666" points="0,0 0,-75 119,-75 119,0 0,0"/>
</a>
</g>
</g>
<!-- Node1&#45;&gt;Node2 -->
<g id="edge1_Node000001_Node000002" class="edge">
<title>Node1&#45;&gt;Node2</title>
<g id="a_edge1_Node000001_Node000002"><a xlink:title=" ">
<path fill="none" stroke="orange" d="M59.5,-122.61C59.5,-107.73 59.5,-90.24 59.5,-75.07"/>
<polygon fill="orange" stroke="orange" points="56,-122.9 59.5,-132.9 63,-122.9 56,-122.9"/>
</a>
</g>
<text text-anchor="start" x="59.5" y="-107" font-family="Helvetica,sans-Serif" font-size="10.00" fill="grey"> &lt; TransportID::UDP</text>
<text text-anchor="middle" x="105.5" y="-96" font-family="Helvetica,sans-Serif" font-size="10.00" fill="grey">_UADP &gt;</text>
</g>
</g>
</svg>
</svg>

<style type='text/css'>
<![CDATA[
[data-mouse-over-selected='false'] { opacity: 0.7; }
[data-mouse-over-selected='true']  { opacity: 1.0; }
]]>
</style>
<script type="application/ecmascript"><![CDATA[
document.addEventListener('DOMContentLoaded', (event) => {
  highlightEdges();
  highlightAdjacentNodes();
});
]]></script>
</svg>
