<?xml version="1.0" encoding="UTF-8" standalone="no"?>
<!DOCTYPE svg PUBLIC "-//W3C//DTD SVG 1.1//EN"
 "http://www.w3.org/Graphics/SVG/1.1/DTD/svg11.dtd">
<!-- Generated by graphviz version 2.43.0 (0)
 -->
<!-- Title: rm::para::GyroTrackerParam Pages: 1 -->
<!--zoomable 204 -->

<svg id="main" version="1.1" xmlns="http://www.w3.org/2000/svg" xmlns:xlink="http://www.w3.org/1999/xlink" xml:space="preserve" onload="init(evt)">

<style type="text/css"><![CDATA[
.node, .edge {opacity: 0.7;}
.node.selected, .edge.selected {opacity: 1;}
.edge:hover path { stroke: red; }
.edge:hover polygon { stroke: red; fill: red; }
]]></style>

<defs>
  <circle id="rim" cx="0" cy="0" r="7"/>
  <circle id="rim2" cx="0" cy="0" r="3.5"/>
  <g id="zoomPlus">
    <use xlink:href="#rim" fill="#404040"><set attributeName="fill" to="#808080" begin="zoomplus.mouseover" end="zoomplus.mouseout"/></use>
    <path d="M-4,0h8M0,-4v8" fill="none" stroke="white" stroke-width="1.5" pointer-events="none"/>
  </g>
  <g id="zoomMin">
    <use xlink:href="#rim" fill="#404040"><set attributeName="fill" to="#808080" begin="zoomminus.mouseover" end="zoomminus.mouseout"/></use>
    <path d="M-4,0h8" fill="none" stroke="white" stroke-width="1.5" pointer-events="none"/>
  </g>
  <g id="arrowUp" transform="translate(30 24)">
    <use xlink:href="#rim"/>
    <path pointer-events="none" fill="none" stroke="white" stroke-width="1.5" d="M0,-3.0v7 M-2.5,-0.5L0,-3.0L2.5,-0.5"/>
  </g>
  <g id="arrowRight" transform="rotate(90) translate(36 -43)">
    <use xlink:href="#rim"/>
    <path pointer-events="none" fill="none" stroke="white" stroke-width="1.5" d="M0,-3.0v7 M-2.5,-0.5L0,-3.0L2.5,-0.5"/>
  </g>
  <g id="arrowDown" transform="rotate(180) translate(-30 -48)">
    <use xlink:href="#rim"/>
    <path pointer-events="none" fill="none" stroke="white" stroke-width="1.5" d="M0,-3.0v7 M-2.5,-0.5L0,-3.0L2.5,-0.5"/>
  </g>
  <g id="arrowLeft" transform="rotate(270) translate(-36 17)">
    <use xlink:href="#rim"/>
    <path pointer-events="none" fill="none" stroke="white" stroke-width="1.5" d="M0,-3.0v7 M-2.5,-0.5L0,-3.0L2.5,-0.5"/>
  </g>
  <g id="resetDef">
    <use xlink:href="#rim2" fill="#404040"><set attributeName="fill" to="#808080" begin="reset.mouseover" end="reset.mouseout"/></use>
  </g>
</defs>
<script type="application/ecmascript">
var viewWidth = 670;
var viewHeight = 204;
var sectionId = 'dynsection-0';
</script>
<script type="application/ecmascript" xlink:href="../../svg.min.js"/>
<svg id="graph" class="graph">
<g id="viewport">
<title>rm::para::GyroTrackerParam</title>
<!-- Node1 -->
<g id="Node000001" class="node">
<title>Node1</title>
<g id="a_Node000001"><a xlink:title="GyroTrackerParam 参数模块">
<polygon fill="#999999" stroke="transparent" points="390,-79 244,-79 244,0 390,0 390,-79"/>
<text text-anchor="start" x="249" y="-66.5" font-family="Helvetica,sans-Serif" font-size="10.00">rm::para::GyroTrackerParam</text>
<text text-anchor="start" x="315" y="-51.5" font-family="Helvetica,sans-Serif" font-size="10.00"> </text>
<text text-anchor="start" x="255" y="-36.5" font-family="Helvetica,sans-Serif" font-size="10.00">+</text>
<text text-anchor="start" x="275" y="-36.5" font-family="Helvetica,sans-Serif" font-size="10.00">GyroTrackerParam()</text>
<text text-anchor="start" x="255" y="-21.5" font-family="Helvetica,sans-Serif" font-size="10.00">+</text>
<text text-anchor="start" x="275" y="-21.5" font-family="Helvetica,sans-Serif" font-size="10.00">read()</text>
<text text-anchor="start" x="255" y="-6.5" font-family="Helvetica,sans-Serif" font-size="10.00">+</text>
<text text-anchor="start" x="275" y="-6.5" font-family="Helvetica,sans-Serif" font-size="10.00">write()</text>
<polygon fill="#666666" stroke="#666666" points="244,-61.5 244,-61.5 390,-61.5 390,-61.5 244,-61.5"/>
<polygon fill="#666666" stroke="#666666" points="244,-46.5 244,-46.5 390,-46.5 390,-46.5 244,-46.5"/>
<polygon fill="none" stroke="#666666" points="244,0 244,-79 390,-79 390,0 244,0"/>
</a>
</g>
</g>
<!-- Node2 -->
<g id="Node000002" class="node">
<title>Node2</title>
<g id="a_Node000002"><a xlink:title=" ">
<polygon fill="white" stroke="transparent" points="44,-196 0,-196 0,-147 44,-147 44,-196"/>
<text text-anchor="start" x="5" y="-183.5" font-family="Helvetica,sans-Serif" font-size="10.00">double</text>
<text text-anchor="start" x="20" y="-168.5" font-family="Helvetica,sans-Serif" font-size="10.00"> </text>
<text text-anchor="start" x="20" y="-153.5" font-family="Helvetica,sans-Serif" font-size="10.00"> </text>
<polygon fill="#666666" stroke="#666666" points="0,-178.5 0,-178.5 44,-178.5 44,-178.5 0,-178.5"/>
<polygon fill="#666666" stroke="#666666" points="0,-163.5 0,-163.5 44,-163.5 44,-163.5 0,-163.5"/>
<polygon fill="none" stroke="#666666" points="0,-147 0,-196 44,-196 44,-147 0,-147"/>
</a>
</g>
</g>
<!-- Node2&#45;&gt;Node1 -->
<g id="edge1_Node000001_Node000002" class="edge">
<title>Node2&#45;&gt;Node1</title>
<g id="a_edge1_Node000001_Node000002"><a xlink:title=" ">
<path fill="none" stroke="#63b8ff" d="M19.41,-146.92C19.02,-130.78 21.43,-110.02 34,-97 60.95,-69.09 158.87,-54.27 232.03,-46.92"/>
<polygon fill="none" stroke="#63b8ff" points="232.05,-46.91 237.64,-42.35 244,-45.76 238.41,-50.32 232.05,-46.91"/>
</a>
</g>
<text text-anchor="start" x="37.5" y="-110" font-family="Helvetica,sans-Serif" font-size="10.00" fill="grey">+SAMPLE_INTERVAL</text>
</g>
<!-- Node3 -->
<g id="Node000003" class="node">
<title>Node3</title>
<g id="a_Node000003"><a xlink:title=" ">
<polygon fill="white" stroke="transparent" points="168,-196 136,-196 136,-147 168,-147 168,-196"/>
<text text-anchor="start" x="141" y="-183.5" font-family="Helvetica,sans-Serif" font-size="10.00">float</text>
<text text-anchor="start" x="150" y="-168.5" font-family="Helvetica,sans-Serif" font-size="10.00"> </text>
<text text-anchor="start" x="150" y="-153.5" font-family="Helvetica,sans-Serif" font-size="10.00"> </text>
<polygon fill="#666666" stroke="#666666" points="136,-178.5 136,-178.5 168,-178.5 168,-178.5 136,-178.5"/>
<polygon fill="#666666" stroke="#666666" points="136,-163.5 136,-163.5 168,-163.5 168,-163.5 136,-163.5"/>
<polygon fill="none" stroke="#666666" points="136,-147 136,-196 168,-196 168,-147 136,-147"/>
</a>
</g>
</g>
<!-- Node3&#45;&gt;Node1 -->
<g id="edge2_Node000001_Node000003" class="edge">
<title>Node3&#45;&gt;Node1</title>
<g id="a_edge2_Node000001_Node000003"><a xlink:title=" ">
<path fill="none" stroke="#63b8ff" d="M146.59,-146.73C144.45,-131.12 144.58,-111.05 155,-97 173.24,-72.4 202.97,-58.44 232.01,-50.55"/>
<polygon fill="none" stroke="#63b8ff" points="232.29,-50.48 237.16,-45.17 243.94,-47.62 239.07,-52.94 232.29,-50.48"/>
</a>
</g>
<text text-anchor="start" x="158" y="-118" font-family="Helvetica,sans-Serif" font-size="10.00" fill="grey">+MAX_ROTSPEED</text>
<text text-anchor="start" x="158" y="-103" font-family="Helvetica,sans-Serif" font-size="10.00" fill="grey">+MIN_ROTSPEED</text>
</g>
<!-- Node4 -->
<g id="Node000004" class="node">
<title>Node4</title>
<g id="a_Node000004"><a xlink:title=" ">
<polygon fill="white" stroke="transparent" points="296,-196 192,-196 192,-147 296,-147 296,-196"/>
<text text-anchor="start" x="197" y="-183.5" font-family="Helvetica,sans-Serif" font-size="10.00">Matx&lt; float, 6, 6 &gt;</text>
<text text-anchor="start" x="242" y="-168.5" font-family="Helvetica,sans-Serif" font-size="10.00"> </text>
<text text-anchor="start" x="242" y="-153.5" font-family="Helvetica,sans-Serif" font-size="10.00"> </text>
<polygon fill="#666666" stroke="#666666" points="192,-178.5 192,-178.5 296,-178.5 296,-178.5 192,-178.5"/>
<polygon fill="#666666" stroke="#666666" points="192,-163.5 192,-163.5 296,-163.5 296,-163.5 192,-163.5"/>
<polygon fill="none" stroke="#666666" points="192,-147 192,-196 296,-196 296,-147 192,-147"/>
</a>
</g>
</g>
<!-- Node4&#45;&gt;Node1 -->
<g id="edge3_Node000001_Node000004" class="edge">
<title>Node4&#45;&gt;Node1</title>
<g id="a_edge3_Node000001_Node000004"><a xlink:title=" ">
<path fill="none" stroke="#63b8ff" d="M248.26,-146.93C251.63,-131.96 257.25,-112.55 266,-97 267.5,-94.33 269.15,-91.68 270.91,-89.07"/>
<polygon fill="none" stroke="#63b8ff" points="271.03,-88.9 271.36,-81.69 278.13,-79.22 277.81,-86.43 271.03,-88.9"/>
</a>
</g>
<text text-anchor="start" x="269" y="-110" font-family="Helvetica,sans-Serif" font-size="10.00" fill="grey">+POSITION_Q</text>
</g>
<!-- Node5 -->
<g id="Node000005" class="node">
<title>Node5</title>
<g id="a_Node000005"><a xlink:title=" ">
<polygon fill="white" stroke="transparent" points="418,-196 314,-196 314,-147 418,-147 418,-196"/>
<text text-anchor="start" x="319" y="-183.5" font-family="Helvetica,sans-Serif" font-size="10.00">Matx&lt; float, 3, 3 &gt;</text>
<text text-anchor="start" x="364" y="-168.5" font-family="Helvetica,sans-Serif" font-size="10.00"> </text>
<text text-anchor="start" x="364" y="-153.5" font-family="Helvetica,sans-Serif" font-size="10.00"> </text>
<polygon fill="#666666" stroke="#666666" points="314,-178.5 314,-178.5 418,-178.5 418,-178.5 314,-178.5"/>
<polygon fill="#666666" stroke="#666666" points="314,-163.5 314,-163.5 418,-163.5 418,-163.5 314,-163.5"/>
<polygon fill="none" stroke="#666666" points="314,-147 314,-196 418,-196 418,-147 314,-147"/>
</a>
</g>
</g>
<!-- Node5&#45;&gt;Node1 -->
<g id="edge4_Node000001_Node000005" class="edge">
<title>Node5&#45;&gt;Node1</title>
<g id="a_edge4_Node000001_Node000005"><a xlink:title=" ">
<path fill="none" stroke="#63b8ff" d="M359.88,-146.69C355.9,-132.14 350.28,-113.28 344,-97 343.15,-94.79 342.25,-92.56 341.31,-90.3"/>
<polygon fill="none" stroke="#63b8ff" points="341.2,-90.05 335.13,-86.16 336.4,-79.06 342.46,-82.95 341.2,-90.05"/>
</a>
</g>
<text text-anchor="start" x="357.5" y="-110" font-family="Helvetica,sans-Serif" font-size="10.00" fill="grey">+POSITION_R</text>
</g>
<!-- Node6 -->
<g id="Node000006" class="node">
<title>Node6</title>
<g id="a_Node000006"><a xlink:title=" ">
<polygon fill="white" stroke="transparent" points="540,-196 436,-196 436,-147 540,-147 540,-196"/>
<text text-anchor="start" x="441" y="-183.5" font-family="Helvetica,sans-Serif" font-size="10.00">Matx&lt; float, 4, 4 &gt;</text>
<text text-anchor="start" x="486" y="-168.5" font-family="Helvetica,sans-Serif" font-size="10.00"> </text>
<text text-anchor="start" x="486" y="-153.5" font-family="Helvetica,sans-Serif" font-size="10.00"> </text>
<polygon fill="#666666" stroke="#666666" points="436,-178.5 436,-178.5 540,-178.5 540,-178.5 436,-178.5"/>
<polygon fill="#666666" stroke="#666666" points="436,-163.5 436,-163.5 540,-163.5 540,-163.5 436,-163.5"/>
<polygon fill="none" stroke="#666666" points="436,-147 436,-196 540,-196 540,-147 436,-147"/>
</a>
</g>
</g>
<!-- Node6&#45;&gt;Node1 -->
<g id="edge5_Node000001_Node000006" class="edge">
<title>Node6&#45;&gt;Node1</title>
<g id="a_edge5_Node000001_Node000006"><a xlink:title=" ">
<path fill="none" stroke="#63b8ff" d="M473.6,-146.7C463.24,-131.07 448.12,-111.01 431,-97 421.83,-89.5 411.5,-82.66 400.9,-76.54"/>
<polygon fill="none" stroke="#63b8ff" points="400.75,-76.46 393.56,-77.06 390.24,-70.66 397.43,-70.05 400.75,-76.46"/>
</a>
</g>
<text text-anchor="start" x="463.5" y="-110" font-family="Helvetica,sans-Serif" font-size="10.00" fill="grey">+POSE_Q</text>
</g>
<!-- Node7 -->
<g id="Node000007" class="node">
<title>Node7</title>
<g id="a_Node000007"><a xlink:title=" ">
<polygon fill="white" stroke="transparent" points="662,-196 558,-196 558,-147 662,-147 662,-196"/>
<text text-anchor="start" x="563" y="-183.5" font-family="Helvetica,sans-Serif" font-size="10.00">Matx&lt; float, 2, 2 &gt;</text>
<text text-anchor="start" x="608" y="-168.5" font-family="Helvetica,sans-Serif" font-size="10.00"> </text>
<text text-anchor="start" x="608" y="-153.5" font-family="Helvetica,sans-Serif" font-size="10.00"> </text>
<polygon fill="#666666" stroke="#666666" points="558,-178.5 558,-178.5 662,-178.5 662,-178.5 558,-178.5"/>
<polygon fill="#666666" stroke="#666666" points="558,-163.5 558,-163.5 662,-163.5 662,-163.5 558,-163.5"/>
<polygon fill="none" stroke="#666666" points="558,-147 558,-196 662,-196 662,-147 558,-147"/>
</a>
</g>
</g>
<!-- Node7&#45;&gt;Node1 -->
<g id="edge6_Node000001_Node000007" class="edge">
<title>Node7&#45;&gt;Node1</title>
<g id="a_edge6_Node000001_Node000007"><a xlink:title=" ">
<path fill="none" stroke="#63b8ff" d="M585.83,-146.97C568.07,-130.85 542.66,-110.1 517,-97 481.34,-78.8 439.02,-65.76 402.52,-56.83"/>
<polygon fill="none" stroke="#63b8ff" points="402.05,-56.72 395.29,-59.23 390.38,-53.95 397.14,-51.44 402.05,-56.72"/>
</a>
</g>
<text text-anchor="start" x="565" y="-110" font-family="Helvetica,sans-Serif" font-size="10.00" fill="grey">+POSE_R</text>
</g>
</g>
</svg>

<g id="navigator" transform="translate(0 0)" fill="#404254">
  <rect fill="#f2f5e9" fill-opacity="0.5" stroke="#606060" stroke-width=".5" x="0" y="0" width="60" height="60"/>
  <use id="zoomplus" xlink:href="#zoomPlus" x="17" y="9" onmousedown="handleZoom(evt,'in')"/>
  <use id="zoomminus" xlink:href="#zoomMin" x="42" y="9" onmousedown="handleZoom(evt,'out')"/>
  <use id="reset" xlink:href="#resetDef" x="30" y="36" onmousedown="handleReset()"/>
   <use id="arrowup" xlink:href="#arrowUp" x="0" y="0" onmousedown="handlePan(0,-1)"/>
  <use id="arrowright" xlink:href="#arrowRight" x="0" y="0" onmousedown="handlePan(1,0)"/>
  <use id="arrowdown" xlink:href="#arrowDown" x="0" y="0" onmousedown="handlePan(0,1)"/>
  <use id="arrowleft" xlink:href="#arrowLeft" x="0" y="0" onmousedown="handlePan(-1,0)"/>
</g>
<svg viewBox="0 0 15 15" width="100%" height="30px" preserveAspectRatio="xMaxYMin meet">
 <g id="arrow_out" transform="scale(0.3 0.3)">
  <a xlink:href="classrm_1_1para_1_1GyroTrackerParam__coll__graph_org.svg" target="_base">
   <rect id="button" ry="5" rx="5" y="6" x="6" height="38" width="38"
        fill="#f2f5e9" fill-opacity="0.5" stroke="#606060" stroke-width="1.0"/>
   <path id="arrow"
     d="M 11.500037,31.436501 C 11.940474,20.09759 22.043105,11.32322 32.158766,21.979434 L 37.068811,17.246167 C 37.068811,17.246167 37.088388,32 37.088388,32 L 22.160133,31.978069 C 22.160133,31.978069 26.997745,27.140456 26.997745,27.140456 C 18.528582,18.264221 13.291696,25.230495 11.500037,31.436501 z"
     style="fill:#404040;"/>
  </a>
 </g>
</svg>

<style type='text/css'>
<![CDATA[
[data-mouse-over-selected='false'] { opacity: 0.7; }
[data-mouse-over-selected='true']  { opacity: 1.0; }
]]>
</style>
<script type="application/ecmascript"><![CDATA[
document.addEventListener('DOMContentLoaded', (event) => {
  highlightEdges();
  highlightAdjacentNodes();
});
]]></script>
</svg>
